<svg xmlns="http://www.w3.org/2000/svg" xmlns:xlink="http://www.w3.org/1999/xlink" xml:space="preserve" width="3000" height="4000" viewBox="0 0 3000 4000"><defs><radialGradient xlink:href="#a" id="al" cx="148.628" cy="120.366" r="93.189" fx="148.628" fy="120.366" gradientTransform="matrix(3.44091 0 0 3.97566 505.856 979.803)" gradientUnits="userSpaceOnUse"/><radialGradient xlink:href="#b" id="am" cx="245.937" cy="86.13" r="74.715" fx="245.937" fy="86.13" gradientTransform="translate(355.243 908.391)scale(4.13091)" gradientUnits="userSpaceOnUse"/><radialGradient xlink:href="#c" id="bf" cx="228.306" cy="146.229" r="117.78" fx="228.306" fy="146.229" gradientTransform="matrix(3.07696 0 0 3.66687 631.12 822.035)" gradientUnits="userSpaceOnUse"/><radialGradient xlink:href="#d" id="af" cx="150.423" cy="300.846" r="53.565" fx="150.423" fy="300.846" gradientTransform="matrix(3.62162 0 0 4.13091 493.426 802.433)" gradientUnits="userSpaceOnUse"/><radialGradient xlink:href="#e" id="ao" cx="127.382" cy="395.192" r="70.564" fx="127.382" fy="395.192" gradientTransform="matrix(4.46382 0 0 4.48022 420.635 250.054)" gradientUnits="userSpaceOnUse"/><radialGradient xlink:href="#f" id="au" cx="189.9" cy="437.134" r="34.504" fx="189.9" fy="437.134" gradientTransform="matrix(4.54267 0 0 6.7835 333.37 -602.297)" gradientUnits="userSpaceOnUse"/><radialGradient xlink:href="#g" id="ad" cx="329.629" cy="392.733" r="145.286" fx="329.629" fy="392.733" gradientTransform="translate(-930.719 -311.6)scale(6.22577)" gradientUnits="userSpaceOnUse"/><radialGradient xlink:href="#h" id="ar" cx="301.946" cy="274.797" r="50.997" fx="301.946" fy="274.797" gradientTransform="matrix(5.32873 0 0 5.06705 -48.77 664.25)" gradientUnits="userSpaceOnUse"/><radialGradient xlink:href="#i" id="as" cx="455.879" cy="244.204" r="59.068" fx="455.879" fy="244.204" gradientTransform="matrix(3.21364 0 0 1.92434 940.608 1402.039)" gradientUnits="userSpaceOnUse"/><radialGradient xlink:href="#j" id="at" cx="467.228" cy="293.506" r="18.16" fx="467.228" fy="293.506" gradientTransform="translate(-26.776 478.683)scale(4.89808)" gradientUnits="userSpaceOnUse"/><radialGradient xlink:href="#k" id="az" cx="423.844" cy="294.333" r="14.217" fx="423.844" fy="294.333" gradientTransform="matrix(7.93051 0 0 5.117 -1263.498 501.298)" gradientUnits="userSpaceOnUse"/><radialGradient xlink:href="#l" id="ax" cx="453.543" cy="499.204" r="38.89" fx="453.543" fy="499.204" gradientTransform="matrix(3.31102 0 0 3.48288 658.284 1108.006)" gradientUnits="userSpaceOnUse"/><radialGradient xlink:href="#m" id="aA" cx="405.614" cy="288.094" r="19.587" fx="405.614" fy="288.094" gradientTransform="matrix(3.74791 0 0 3.1187 561.86 1088.459)" gradientUnits="userSpaceOnUse"/><radialGradient xlink:href="#n" id="W" cx="202.112" cy="434.012" r="43.741" fx="202.112" fy="434.012" gradientTransform="matrix(4.25555 0 0 5.60878 309.827 2.276)" gradientUnits="userSpaceOnUse"/><radialGradient xlink:href="#o" id="aB" cx="328.419" cy="106.233" r="113.052" fx="328.419" fy="106.233" gradientTransform="translate(-236.076 720.373)scale(4.13091)" gradientUnits="userSpaceOnUse"/><radialGradient xlink:href="#p" id="aF" cx="313.725" cy="-13.575" r="88.989" fx="313.725" fy="-13.575" gradientTransform="translate(319.045 797.474)scale(4.13091)" gradientUnits="userSpaceOnUse"/><radialGradient xlink:href="#q" id="aX" cx="74.124" cy="-69.324" r="98.654" fx="74.124" fy="-69.324" gradientTransform="translate(737.589 984.717)scale(4.13091)" gradientUnits="userSpaceOnUse"/><radialGradient xlink:href="#s" id="aH" cx="-20.594" cy="476.062" r="187.709" fx="-20.594" fy="476.062" gradientTransform="matrix(7.98187 -.20874 .1643 6.28233 205.386 41.816)" gradientUnits="userSpaceOnUse"/><radialGradient xlink:href="#t" id="ag" cx="100.35" cy="373.035" r="19.385" fx="100.35" fy="373.035" gradientTransform="translate(384.596 758.498)scale(4.13091)" gradientUnits="userSpaceOnUse"/><radialGradient xlink:href="#u" id="aI" cx="23.84" cy="506.353" r="564.103" fx="23.84" fy="506.353" gradientTransform="matrix(1.36504 0 0 1.12093 1539.617 2494.448)" gradientUnits="userSpaceOnUse"/><radialGradient xlink:href="#u" id="aT" cx="77.095" cy="580.679" r="564.103" fx="77.095" fy="580.679" gradientTransform="matrix(1.36504 0 0 1.00769 1539.617 2551.79)" gradientUnits="userSpaceOnUse"/><radialGradient xlink:href="#v" id="aG" cx="131.518" cy="400.824" r="156.863" fx="131.518" fy="400.824" gradientTransform="matrix(9.9779 0 0 6.29223 -1336.88 -664.431)" gradientUnits="userSpaceOnUse"/><radialGradient xlink:href="#w" id="aL" cx="63.348" cy="311.086" r="94.646" fx="63.348" fy="311.086" gradientTransform="translate(442.88 1224.744)scale(2.8953)" gradientUnits="userSpaceOnUse"/><radialGradient xlink:href="#x" id="aD" cx="166.842" cy="582.485" r="178.11" fx="166.842" fy="582.485" gradientTransform="translate(-941.19 -1962.528)scale(7.2861)" gradientUnits="userSpaceOnUse"/><radialGradient xlink:href="#t" id="ah" cx="100.35" cy="372.502" r="19.385" fx="100.35" fy="372.502" gradientTransform="translate(384.596 758.498)scale(4.13091)" gradientUnits="userSpaceOnUse"/><radialGradient xlink:href="#z" id="aM" cx="538.541" cy="310.428" r="85.322" fx="538.541" fy="310.428" gradientTransform="matrix(5.63951 0 0 3.68726 -1037.401 1030.67)" gradientUnits="userSpaceOnUse"/><radialGradient xlink:href="#A" id="aN" cx="152.647" cy="470.338" r="17.911" fx="152.647" fy="470.338" gradientTransform="matrix(5.15753 0 0 4.47823 216.597 609.907)" gradientUnits="userSpaceOnUse"/><radialGradient xlink:href="#A" id="aO" cx="152.647" cy="465.446" r="17.911" fx="152.647" fy="465.446" gradientTransform="matrix(5.15753 0 0 4.47823 216.597 609.907)" gradientUnits="userSpaceOnUse"/><radialGradient xlink:href="#A" id="aP" cx="152.647" cy="462.677" r="17.911" fx="152.647" fy="462.677" gradientTransform="matrix(5.15753 0 0 4.47823 216.597 609.907)" gradientUnits="userSpaceOnUse"/><radialGradient xlink:href="#C" id="ac" cx="580.694" cy="438.914" r="157.747" fx="580.694" fy="438.914" gradientTransform="translate(1180.648 1577.795)scale(2.628)" gradientUnits="userSpaceOnUse"/><radialGradient xlink:href="#C" id="aQ" cx="603.326" cy="438.914" r="157.747" fx="603.326" fy="438.914" gradientTransform="translate(1180.648 1577.795)scale(2.628)" gradientUnits="userSpaceOnUse"/><radialGradient xlink:href="#C" id="aR" cx="614.223" cy="438.076" r="157.747" fx="614.223" fy="438.076" gradientTransform="translate(1180.648 1577.795)scale(2.628)" gradientUnits="userSpaceOnUse"/><radialGradient xlink:href="#D" id="ab" cx="248.28" cy="524.83" r="176.089" fx="248.28" fy="524.83" gradientTransform="translate(332.292 757.598)scale(4.13091)" gradientUnits="userSpaceOnUse"/><radialGradient xlink:href="#E" id="aa" cx="442.042" cy="275.071" r="124.847" fx="442.042" fy="275.071" gradientTransform="translate(-255.243 489.366)scale(4.85617)" gradientUnits="userSpaceOnUse"/><radialGradient xlink:href="#E" id="X" cx="474.703" cy="262.369" r="124.847" fx="474.703" fy="262.369" gradientTransform="translate(-255.243 489.366)scale(4.85617)" gradientUnits="userSpaceOnUse"/><radialGradient xlink:href="#F" id="ai" cx="208.701" cy="429.49" r="186.404" fx="208.701" fy="429.49" gradientTransform="matrix(3.75357 0 0 4.13091 347.877 745.142)" gradientUnits="userSpaceOnUse"/><radialGradient xlink:href="#u" id="aU" cx="9.316" cy="582.865" r="564.103" fx="9.316" fy="582.865" gradientTransform="matrix(1.36504 0 0 1.00769 1539.617 2551.79)" gradientUnits="userSpaceOnUse"/><radialGradient xlink:href="#l" id="aw" cx="456.481" cy="492.599" r="38.89" fx="456.481" fy="492.599" gradientTransform="matrix(2.65014 0 0 2.97434 958.02 1361.266)" gradientUnits="userSpaceOnUse"/><radialGradient xlink:href="#v" id="aS" cx="131.518" cy="400.824" r="156.863" fx="131.518" fy="400.824" gradientTransform="matrix(9.71096 -.30136 .19517 6.2892 -1380 -623.583)" gradientUnits="userSpaceOnUse"/><radialGradient xlink:href="#G" id="aV" cx="-139.476" cy="234.103" r="366.885" fx="-139.476" fy="234.103" gradientTransform="matrix(4.07441 .0922 -.11137 4.92159 317.331 392.832)" gradientUnits="userSpaceOnUse"/><radialGradient xlink:href="#J" id="aY" cx="103.142" cy="426.126" r="87.641" fx="103.142" fy="426.126" gradientTransform="translate(1012.744 619.426)scale(4.13091)" gradientUnits="userSpaceOnUse"/><radialGradient xlink:href="#K" id="aZ" cx="30.166" cy="313.725" r="73.529" fx="30.166" fy="313.725" gradientTransform="translate(364.65 943.078)scale(4.13091)" gradientUnits="userSpaceOnUse"/><radialGradient xlink:href="#L" id="ba" cx="43.363" cy="248.492" r="93.137" fx="43.363" fy="248.492" gradientTransform="translate(496.34 886.61)scale(4.00126)" gradientUnits="userSpaceOnUse"/><radialGradient xlink:href="#L" id="bb" cx="26.235" cy="244.988" r="93.137" fx="26.235" fy="244.988" gradientTransform="translate(496.34 886.61)scale(4.00126)" gradientUnits="userSpaceOnUse"/><radialGradient xlink:href="#O" id="bd" cx="253.334" cy="123.35" r="27.178" fx="253.334" fy="123.35" gradientTransform="matrix(4.13091 0 0 2.55304 412.234 979.763)" gradientUnits="userSpaceOnUse"/><radialGradient xlink:href="#P" id="bh" cx="320.758" cy="101.987" r="33.862" fx="320.758" fy="101.987" gradientTransform="translate(289.345 739.828)scale(4.13091)" gradientUnits="userSpaceOnUse"/><radialGradient xlink:href="#Q" id="be" cx="387.816" cy="129.017" r="106.653" fx="387.816" fy="129.017" gradientTransform="translate(-107.298 702.114)scale(4.911)" gradientUnits="userSpaceOnUse"/><radialGradient xlink:href="#R" id="bk" cx="4.677" cy="496.646" r="8.432" fx="4.677" fy="496.646" gradientTransform="matrix(4.13091 0 0 3.31452 389.536 1183.105)" gradientUnits="userSpaceOnUse"/><radialGradient xlink:href="#S" id="bl" cx="27.196" cy="218.105" r="137.049" fx="27.196" fy="218.105" gradientTransform="matrix(3.82545 0 0 4.13091 355.98 777.648)" gradientUnits="userSpaceOnUse"/><radialGradient xlink:href="#Q" id="bi" cx="406.096" cy="120.495" r="106.653" fx="406.096" fy="120.495" gradientTransform="translate(-107.298 702.114)scale(4.911)" gradientUnits="userSpaceOnUse"/><radialGradient xlink:href="#T" id="bm" cx="403.687" cy="351.255" r="166.862" fx="403.687" fy="351.255" gradientTransform="translate(685.174 466.94)scale(4.13091)" gradientUnits="userSpaceOnUse"/><radialGradient xlink:href="#U" id="bn" cx="382.353" cy="163.65" r="101.4" fx="382.353" fy="163.65" gradientTransform="translate(-308.84 354.935)scale(4.13091)" gradientUnits="userSpaceOnUse"/><radialGradient xlink:href="#V" id="bp" cx="157.313" cy="525.264" r="62.925" fx="157.313" fy="525.264" gradientTransform="translate(427.239 824.358)scale(4.13091)" gradientUnits="userSpaceOnUse"/><radialGradient xlink:href="#E" id="Y" cx="442.042" cy="275.071" r="124.847" fx="442.042" fy="275.071" gradientTransform="translate(-255.243 489.366)scale(4.85617)" gradientUnits="userSpaceOnUse"/><radialGradient xlink:href="#c" id="ay" cx="228.306" cy="146.229" r="117.78" fx="228.306" fy="146.229" gradientTransform="matrix(3.07696 0 0 3.66687 631.12 822.035)" gradientUnits="userSpaceOnUse"/><radialGradient xlink:href="#p" id="aE" cx="313.725" cy="-13.575" r="88.989" fx="313.725" fy="-13.575" gradientTransform="translate(319.045 797.474)scale(4.13091)" gradientUnits="userSpaceOnUse"/><radialGradient xlink:href="#u" id="aJ" cx="77.095" cy="580.679" r="564.103" fx="77.095" fy="580.679" gradientTransform="matrix(1.36504 0 0 1.00769 1539.617 2551.79)" gradientUnits="userSpaceOnUse"/><radialGradient xlink:href="#w" id="aK" cx="63.348" cy="311.086" r="94.646" fx="63.348" fy="311.086" gradientTransform="translate(442.88 1224.744)scale(2.8953)" gradientUnits="userSpaceOnUse"/><radialGradient xlink:href="#q" id="aW" cx="74.124" cy="-69.324" r="98.654" fx="74.124" fy="-69.324" gradientTransform="translate(737.589 984.717)scale(4.13091)" gradientUnits="userSpaceOnUse"/><radialGradient xlink:href="#R" id="bj" cx="4.677" cy="496.646" r="8.432" fx="4.677" fy="496.646" gradientTransform="matrix(4.13091 0 0 3.31452 389.536 1183.105)" gradientUnits="userSpaceOnUse"/><radialGradient xlink:href="#V" id="bo" cx="157.313" cy="525.264" r="62.925" fx="157.313" fy="525.264" gradientTransform="translate(427.239 824.358)scale(4.13091)" gradientUnits="userSpaceOnUse"/><linearGradient id="V"><stop offset="0" style="stop-color:#f2e3c0;stop-opacity:1"/><stop offset="1" style="stop-color:#f2e3c0;stop-opacity:0"/></linearGradient><linearGradient id="U"><stop offset="0" style="stop-color:#ebdbbc;stop-opacity:1"/><stop offset="1" style="stop-color:#ebdbbc;stop-opacity:0"/></linearGradient><linearGradient id="T"><stop offset="0" style="stop-color:#ebdbbc;stop-opacity:1"/><stop offset="1" style="stop-color:#ebdbbc;stop-opacity:0"/></linearGradient><linearGradient id="S"><stop offset="0" style="stop-color:#fdf7e7;stop-opacity:1"/><stop offset="1" style="stop-color:#fdf7e7;stop-opacity:0"/></linearGradient><linearGradient id="R"><stop offset="0" style="stop-color:#96969b;stop-opacity:1"/><stop offset="1" style="stop-color:#96969b;stop-opacity:0"/></linearGradient><linearGradient id="I"><stop offset="0" style="stop-color:#5f5f65;stop-opacity:1"/><stop offset="1" style="stop-color:#b2b1b6;stop-opacity:0"/></linearGradient><linearGradient id="Q"><stop offset="0" style="stop-color:#fdf7e7;stop-opacity:1"/><stop offset="1" style="stop-color:#fdf7e7;stop-opacity:0"/></linearGradient><linearGradient id="P"><stop offset="0" style="stop-color:#fdf7e7;stop-opacity:1"/><stop offset="1" style="stop-color:#fdf7e7;stop-opacity:0"/></linearGradient><linearGradient id="O"><stop offset="0" style="stop-color:#fdf7e7;stop-opacity:1"/><stop offset="1" style="stop-color:#fdf7e7;stop-opacity:0"/></linearGradient><linearGradient id="N"><stop offset="0" style="stop-color:#291313;stop-opacity:1"/><stop offset="1" style="stop-color:#4d4d4d;stop-opacity:1"/></linearGradient><linearGradient id="M"><stop offset="0" style="stop-color:#311717;stop-opacity:1"/><stop offset="1" style="stop-color:#4d4d4d;stop-opacity:1"/></linearGradient><linearGradient id="L"><stop offset="0" style="stop-color:#f4eedd;stop-opacity:1"/><stop offset="1" style="stop-color:#f4eedd;stop-opacity:0"/></linearGradient><linearGradient id="K"><stop offset="0" style="stop-color:#fdfaf2;stop-opacity:1"/><stop offset="1" style="stop-color:#fdfaf2;stop-opacity:0"/></linearGradient><linearGradient id="J"><stop offset="0" style="stop-color:#fdfaf2;stop-opacity:1"/><stop offset="1" style="stop-color:#fdfaf2;stop-opacity:0"/></linearGradient><linearGradient id="H"><stop offset="0" style="stop-color:#b2b1b6;stop-opacity:1"/><stop offset="1" style="stop-color:#b2b1b6;stop-opacity:0"/></linearGradient><linearGradient id="G"><stop offset="0" style="stop-color:#eadab6;stop-opacity:1"/><stop offset="1" style="stop-color:#eadab6;stop-opacity:0"/></linearGradient><linearGradient id="F"><stop offset="0" style="stop-color:#ccc7ba;stop-opacity:1"/><stop offset="1" style="stop-color:#ccc7ba;stop-opacity:0"/></linearGradient><linearGradient id="E"><stop offset="0" style="stop-color:#fcf6e6;stop-opacity:1"/><stop offset="1" style="stop-color:#fcf6e6;stop-opacity:0"/></linearGradient><linearGradient id="D"><stop offset="0" style="stop-color:#edddba;stop-opacity:1"/><stop offset="1" style="stop-color:#edddba;stop-opacity:0"/></linearGradient><linearGradient id="C"><stop offset="0" style="stop-color:#fff;stop-opacity:1"/><stop offset="1" style="stop-color:#fff;stop-opacity:0"/></linearGradient><linearGradient id="B"><stop offset="0" style="stop-color:#e9d9af;stop-opacity:1"/><stop offset="1" style="stop-color:#f3ead3;stop-opacity:0"/></linearGradient><linearGradient id="A"><stop offset="0" style="stop-color:#fbf7ed;stop-opacity:1"/><stop offset="1" style="stop-color:#fbf7ed;stop-opacity:0"/></linearGradient><linearGradient id="z"><stop offset="0" style="stop-color:#f9e6b3;stop-opacity:1"/><stop offset="1" style="stop-color:#dacaa5;stop-opacity:0"/></linearGradient><linearGradient id="y"><stop offset="0" style="stop-color:#dcdcde;stop-opacity:1"/><stop offset="1" style="stop-color:#dcdcde;stop-opacity:0"/></linearGradient><linearGradient id="x"><stop offset="0" style="stop-color:#f0e7d2;stop-opacity:1"/><stop offset="1" style="stop-color:#f0e7d2;stop-opacity:0"/></linearGradient><linearGradient id="w"><stop offset="0" style="stop-color:#fdf7e7;stop-opacity:1"/><stop offset="1" style="stop-color:#fdf7e7;stop-opacity:0"/></linearGradient><linearGradient id="v"><stop offset="0" style="stop-color:#dacaa5;stop-opacity:1"/><stop offset="1" style="stop-color:#dacaa5;stop-opacity:0"/></linearGradient><linearGradient id="u"><stop offset="0" style="stop-color:#dacaa5;stop-opacity:1"/><stop offset="1" style="stop-color:#e3d7bb;stop-opacity:0"/></linearGradient><linearGradient id="t"><stop offset="0" style="stop-color:#a3a1a8;stop-opacity:1"/><stop offset="1" style="stop-color:#efd8a6;stop-opacity:0"/></linearGradient><linearGradient id="s"><stop offset="0" style="stop-color:#ebdab2;stop-opacity:1"/><stop offset="1" style="stop-color:#ebdab2;stop-opacity:0"/></linearGradient><linearGradient id="r"><stop offset="0" style="stop-color:#ebdab2;stop-opacity:1"/><stop offset="1" style="stop-color:#ebdab2;stop-opacity:0"/></linearGradient><linearGradient id="q"><stop offset="0" style="stop-color:#fffefb;stop-opacity:1"/><stop offset="1" style="stop-color:#fffefb;stop-opacity:0"/></linearGradient><linearGradient id="p"><stop offset="0" style="stop-color:#fdf9ed;stop-opacity:1"/><stop offset="1" style="stop-color:#fdf9ed;stop-opacity:0"/></linearGradient><linearGradient id="o"><stop offset="0" style="stop-color:#ede1c4;stop-opacity:.70310897"/><stop offset="1" style="stop-color:#ede1c4;stop-opacity:0"/></linearGradient><linearGradient id="n"><stop offset="0" style="stop-color:#ede1c4;stop-opacity:1"/><stop offset="1" style="stop-color:#ede1c4;stop-opacity:0"/></linearGradient><linearGradient id="m"><stop offset="0" style="stop-color:#d7ceac;stop-opacity:1"/><stop offset="1" style="stop-color:#d7ceac;stop-opacity:0"/></linearGradient><linearGradient id="l"><stop offset="0" style="stop-color:#d7ceac;stop-opacity:1"/><stop offset="1" style="stop-color:#d7ceac;stop-opacity:0"/></linearGradient><linearGradient id="k"><stop offset="0" style="stop-color:#d7ceac;stop-opacity:1"/><stop offset="1" style="stop-color:#d7ceac;stop-opacity:0"/></linearGradient><linearGradient id="j"><stop offset="0" style="stop-color:#d7ceac;stop-opacity:1"/><stop offset="1" style="stop-color:#d7ceac;stop-opacity:0"/></linearGradient><linearGradient id="i"><stop offset="0" style="stop-color:#e2d4a1;stop-opacity:1"/><stop offset="1" style="stop-color:#cbc7b8;stop-opacity:0"/></linearGradient><linearGradient id="h"><stop offset="0" style="stop-color:#e2d5a1;stop-opacity:1"/><stop offset="1" style="stop-color:#cbc7b8;stop-opacity:0"/></linearGradient><linearGradient id="g"><stop offset="0" style="stop-color:#cbc7b8;stop-opacity:1"/><stop offset="1" style="stop-color:#cbc7b8;stop-opacity:0"/></linearGradient><linearGradient id="f"><stop offset="0" style="stop-color:#e1d3a2;stop-opacity:1"/><stop offset="1" style="stop-color:#cbc7b8;stop-opacity:0"/></linearGradient><linearGradient id="e"><stop offset="0" style="stop-color:#cbc7b8;stop-opacity:1"/><stop offset="1" style="stop-color:#cbc7b8;stop-opacity:0"/></linearGradient><linearGradient id="d"><stop offset="0" style="stop-color:#cbc7b8;stop-opacity:1"/><stop offset="1" style="stop-color:#cbc7b8;stop-opacity:0"/></linearGradient><linearGradient id="c"><stop offset="0" style="stop-color:#f2e3c0;stop-opacity:1"/><stop offset="1" style="stop-color:#f2e3c0;stop-opacity:0"/></linearGradient><linearGradient id="b"><stop offset="0" style="stop-color:#c9c4c8;stop-opacity:1"/><stop offset="1" style="stop-color:#c9c4c8;stop-opacity:0"/></linearGradient><linearGradient id="a"><stop offset="0" style="stop-color:#cac6b9;stop-opacity:1"/><stop offset="1" style="stop-color:#cac6b9;stop-opacity:0"/></linearGradient><linearGradient xlink:href="#r" id="ae" x1="65.767" x2="160.546" y1="87.792" y2="84.592" gradientTransform="translate(389.536 777.648)scale(4.13091)" gradientUnits="userSpaceOnUse"/><linearGradient xlink:href="#y" id="av" x1="275.988" x2="301.481" y1="68.492" y2="87.343" gradientTransform="translate(389.536 777.648)scale(4.13091)" gradientUnits="userSpaceOnUse"/><linearGradient xlink:href="#B" id="Z" x1="567.564" x2="401.428" y1="440.71" y2="396.194" gradientTransform="translate(389.536 777.648)scale(4.13091)" gradientUnits="userSpaceOnUse"/><linearGradient xlink:href="#y" id="ak" x1="275.988" x2="301.234" y1="68.492" y2="89.058" gradientTransform="translate(389.536 777.648)scale(4.13091)" gradientUnits="userSpaceOnUse"/><linearGradient xlink:href="#H" id="ap" x1="216.829" x2="171.174" y1="292.183" y2="258.592" gradientTransform="translate(389.536 777.648)scale(4.13091)" gradientUnits="userSpaceOnUse"/><linearGradient xlink:href="#I" id="aq" x1="216.829" x2="171.164" y1="292.183" y2="255.766" gradientTransform="translate(389.536 777.648)scale(4.13091)" gradientUnits="userSpaceOnUse"/><linearGradient xlink:href="#M" id="aC" x1="220.805" x2="226.833" y1="125.64" y2="103.144" gradientTransform="translate(389.536 777.648)scale(4.13091)" gradientUnits="userSpaceOnUse"/><linearGradient xlink:href="#M" id="bg" x1="220.805" x2="226.833" y1="125.64" y2="103.144" gradientTransform="matrix(.71837 .03156 -.03572 .76008 -340.538 -89.236)" gradientUnits="userSpaceOnUse"/><linearGradient xlink:href="#N" id="bc" x1="257.219" x2="258.165" y1="144.423" y2="133.947" gradientTransform="translate(389.536 777.648)scale(4.13091)" gradientUnits="userSpaceOnUse"/><linearGradient xlink:href="#I" id="aj" x1="194.966" x2="171.164" y1="272.452" y2="255.766" gradientTransform="translate(389.536 777.648)scale(4.13091)" gradientUnits="userSpaceOnUse"/><linearGradient xlink:href="#y" id="an" x1="275.988" x2="308.966" y1="68.492" y2="91.724" gradientTransform="translate(389.536 777.648)scale(4.13091)" gradientUnits="userSpaceOnUse"/></defs><path d="M1183.27 2567.11c52.556 48.593 161.006 56.27 145.29 120.59-9.076 37.142-102.21 142.563-107.864 146.988-2.827 2.212-5.285 3.196-44.126 3.933-38.84.738-114.06 1.23-157.003 1.34s-53.604-.16-59.023-1.425c-11.175-2.61-11.353-80.293 54.812-93.217 8.778-1.564 17.643-2.433 26.508-3.563 14.603-3.057 38.367-4.893 51.148-15.999 7.93-6.624 3.711-11.52-4.612-14.518-16.225-4.787-50.51-6.48-89.743-19.558-18.99-6.33-35.46-13.459-52.54-35.353-17.08-21.893-29.24-55.97 4.07-83.01s112.085-47.044 155.038-52.437 50.082 3.825 55.429 11.753c5.346 7.928 8.91 14.565 11.984 19.973 3.072 5.408 5.653 9.587 10.631 14.504" style="fill:#fdf7e7;fill-opacity:1;stroke-width:103.273;stroke-linecap:round;stroke-linejoin:round" transform="translate(.376)"/><path d="M1131.253 2519.327c-6.792-.23-15.29.21-26.028 1.557-26.649 3.346-67.087 12.316-101.901 25.1a186.14 245.331 0 0 0 166.6 135.901 186.14 245.331 0 0 0 118.892-56.558c-32.612-17.705-77.208-32.017-105.548-58.22-4.977-4.916-7.56-9.09-10.633-14.498-3.073-5.409-6.635-12.05-11.982-19.977-4.01-5.946-9.024-12.616-29.4-13.305" style="mix-blend-mode:multiply;fill:url(#W);stroke-width:122.139;stroke-linecap:round;stroke-linejoin:round" transform="translate(.376)"/><path d="M973.815 2127.214c.19 41.605-.887 52.955-16.43 80.628-44.394 82.19-122.573 152.726-130.52 250.466-4.687 71.801 33.879 152.806 65.28 181.24 23.42 21.207 128.006 73.09 148.618 48.062 14.89-18.08-14.297-24.685 35.72-53.45 30.07-19.437 62.517-34.542 95.255-48.845 17.382-7.561 31.636-12.254 42.818-22.088 11.182-9.833 19.292-24.806 32.329-54.357s29.435-74.197 18.34-132.85c-11.096-58.654-49.684-131.31-91.662-176.243s-87.346-62.142-119.156-72.484c-31.81-10.343-50.06-13.819-61.185-14.775s-15.122.608-17.203 2.248-2.245 3.356-2.204 12.448M1559.03 1704.451c0 54.547 55.972 52.874 97.257 58.322 18.243 2.407 37.44 6.706 52.563 10.704 102.776 33.155 207.807 58.73 313.054 82.74 22.945 5.214 36.155 8.517 50.061 9.908 40.462 4.046 108.18-7.74 157.31 3.215 12.862 2.868 24.682 7.04 35.242 12.133 47.6 22.96 48.36 83.434 43.293 103.039-2.827 10.939-5.658 23.074-11.68 30.448-15.46 18.931-36.871 10.812-45.842 2.369-28.941-27.239-7.646-47.78-45.765-55.88-29.499-6.269-90.324-1.478-130.49-4.224-218.306-14.921-183.034-15.57-301.501-21.017-31.061-1.429-68.33 3.824-79.303 7.224-10.794 3.553-8.371 15.864-9.464 25.197-6.715 53.714-266.994-171.247-120.666-300.662 17.296-15.296 11.907-1.739 9.06 8.45-2.396 7.916-12.5 19.835-13.129 28.034" style="fill:#fdf7e7;fill-opacity:1;stroke-width:103.273;stroke-linecap:round;stroke-linejoin:round" transform="translate(.376)"/><path d="M1758.874 2010.009c41.016 1.273 69.74 6.628 106.74 21.476 36.999 14.849 82.274 39.19 125.845 67.67 169.408 110.73 243.033 231.033 370.236 287.961 33.503 14.359 70.538.766 88.36-7.79 18.257-8.762 36.27-22.393 54.526-36.511s36.756-28.724 48.683-36.513c23.68-15.465 34.819-19.625 44.655 54.147 22.58 144.146-35.056 282.725-120.114 397.147-104.507 142.907-237.223 166.658-407.236 167.227-147.323 8.068-242.094-46.54-367.747-99.448-14.197-6.034-166.261-72.014-242.691-161.622-215.514-324.623-125.387-642.207 298.743-653.744" style="fill:#f6efde;fill-opacity:1;stroke-width:103.273;stroke-linecap:round;stroke-linejoin:round" transform="translate(.376)"/><path d="M1758.877 2010.007c-385.088 10.476-494.833 273.25-350.466 564.515a606.28 606.28 0 0 0 382.916 136.231 606.28 606.28 0 0 0 543.256-337.121c-111.376-60.996-186.108-171.85-343.124-274.48-43.572-28.48-88.848-52.819-125.848-67.668-37-14.848-65.718-20.204-106.734-21.477" style="fill:url(#X);stroke-width:121.404;stroke-linecap:round;stroke-linejoin:round" transform="translate(.376)"/><path d="M1758.877 2010.007c-385.088 10.476-494.833 273.25-350.466 564.515a606.28 606.28 0 0 0 382.916 136.231 606.28 606.28 0 0 0 543.256-337.121c-111.376-60.996-186.108-171.85-343.124-274.48-43.572-28.48-88.848-52.819-125.848-67.668-37-14.848-65.718-20.204-106.734-21.477" style="mix-blend-mode:overlay;fill:url(#Y);stroke-width:121.404;stroke-linecap:round;stroke-linejoin:round" transform="translate(.376)"/><path d="M1758.874 2010.009c41.016 1.273 69.74 6.628 106.74 21.476 36.999 14.849 82.274 39.19 125.845 67.67 169.408 110.73 243.033 231.033 370.236 287.961 33.503 14.359 70.538.766 88.36-7.79 18.257-8.762 36.27-22.393 54.526-36.511s36.756-28.724 48.683-36.513c23.68-15.465 34.819-19.625 44.655 54.147 22.58 144.146-35.056 282.725-120.114 397.147-104.507 142.907-237.223 166.658-407.236 167.227-147.323 8.068-242.094-46.54-367.747-99.448-14.197-6.034-166.261-72.014-242.691-161.622-215.514-324.623-125.387-642.207 298.743-653.744" style="fill:url(#Z);fill-opacity:1;stroke-width:103.273;stroke-linecap:round;stroke-linejoin:round" transform="translate(.376)"/><path d="M1758.877 2010.007c-385.088 10.476-494.833 273.25-350.466 564.515a606.28 606.28 0 0 0 382.916 136.231 606.28 606.28 0 0 0 543.256-337.121c-111.376-60.996-186.108-171.85-343.124-274.48-43.572-28.48-88.848-52.819-125.848-67.668-37-14.848-65.718-20.204-106.734-21.477" style="fill:url(#aa);stroke-width:121.404;stroke-linecap:round;stroke-linejoin:round" transform="translate(.376)"/><path d="M1803.8 2281.517a727.4 727.4 0 0 0-445.887 152.69c16.014 73.307 50.216 151.224 102.215 229.549 76.43 89.607 228.494 155.588 242.691 161.622 125.653 52.907 220.425 107.516 367.748 99.448 170.014-.569 302.728-24.322 407.234-167.23a832 832 0 0 0 5.704-7.76 727.41 727.41 0 0 0-679.704-468.319" style="mix-blend-mode:multiply;fill:url(#ab);stroke-width:103.273;stroke-linecap:round;stroke-linejoin:round" transform="translate(.376)"/><path d="M2593.41 2332.484a414.56 414.56 0 0 0-301.258 398.778 414.6 414.6 0 0 0 29.772 154.272c57.992-24.895 109.69-64.778 155.877-127.937 85.059-114.422 142.699-253.002 120.12-397.149-1.464-10.971-2.954-20.22-4.511-27.964" style="fill:url(#ac);stroke-width:65.7001;stroke-linecap:round;stroke-linejoin:round" transform="translate(.376)"/><path d="M1758.877 2010.007c-424.13 11.538-514.262 329.126-298.749 653.749 76.43 89.607 228.494 155.588 242.691 161.622a2776 2776 0 0 1 32.338 13.885 904.52 904.52 0 0 0 312.642-683.988 905 905 0 0 0-.153-16.661c-17.56-13.206-36.208-26.402-56.187-39.462-43.572-28.48-88.848-52.819-125.848-67.668-37-14.848-65.718-20.204-106.734-21.477" style="mix-blend-mode:multiply;fill:url(#ad);stroke-width:155.644;stroke-linecap:round;stroke-linejoin:round" transform="translate(.376)"/><path d="M1569.984 1136.809c1.078-102.306-73.727-231.902-157.856-268.123-72.979-31.422-175.982 4.007-201.792 85.926-11.598 35.06-7.401 71.1 8.763 103.817 9.98 19.352 25.802 41.989 61.828 82.883 36.027 40.895 92.255 100.044 130.228 131.931s57.69 36.513 79.962 18.256 47.1-59.393 60.245-84.952 14.605-35.538 15.944-43.693 2.556-14.483 2.678-26.045" style="fill:#fdf7e7;fill-opacity:1;stroke-width:103.273;stroke-linecap:round;stroke-linejoin:round" transform="translate(.376)"/><path d="M1025.519 1269.55c-1.77-13.808-12.243-14.022-23.426-16.145-9.615-1.826-25.923-4.016-49.778-9.25-84.002-18.422-176.78-43.84-230.272-117.205-77.208-110.596 34.508-247.521 146.78-231.975 28.642 3.965 64.325 21.51 89.334 39.433 48.345 34.647 130.873 133.115 199.236 152.257 9.128 2.556 21.356.012 42.777-3.518s75.904-19.79 91.726 15.263c67.67 149.918-237.481 396.521-266.377 171.14" style="fill:#fdf7e7;fill-opacity:1;stroke-width:103.273;stroke-linecap:round;stroke-linejoin:round" transform="translate(.376)"/><path d="M1025.519 1269.55c-1.77-13.808-12.243-14.022-23.426-16.145-9.615-1.826-25.923-4.016-49.778-9.25-84.002-18.422-176.78-43.84-230.272-117.205-77.208-110.596 34.508-247.521 146.78-231.975 28.642 3.965 64.325 21.51 89.334 39.433 48.345 34.647 130.873 133.115 199.236 152.257 9.128 2.556 21.356.012 42.777-3.518s75.904-19.79 91.726 15.263c67.67 149.918-237.481 396.521-266.377 171.14" style="fill:url(#ae);fill-opacity:1;stroke-width:103.273;stroke-linecap:round;stroke-linejoin:round" transform="translate(.376)"/><path d="M989.455 1649.472c-.19 0-.375 0-.557.016-1.94.136-3.43 1.26-4.72 3.042-5.162 7.128-7.123 24.825-11.425 41.664-12.606 56.62-46.164 106.476-71.54 158.435-14.627 29.99-24.213 50.148-36.259 76.083-29.435 63.375-52.677 115.892-73.372 165.559-9.218 22.124-16.104 39.334-22.373 52.855-8.844 23.442-26.722 39.995-43.512 57.639-6.76 7.251-10.69 13.158-16.467 26.31-14.732 39.215-33.19 77.798-41.914 118.973-2.317 12.126-3.858 45.353-1.299 69.637a32965 32965 0 0 0 38.477-54.194c4.465-6.533 8.938-13.07 13.41-19.598.003 0 .005-.012.008-.016a25986 25986 0 0 1 32.143-46.82q.017-.015.032-.032c112.95-164.136 227.719-327.013 343.02-489.521-11.221-49.7-45.745-97.917-67.878-125.88-20.004-25.273-29.886-34.004-35.775-34.153zM813.568 2330.75a524707 524707 0 0 1-45.045 61.899c2.916 2.087 5.627 3.836 8.464 5.462 44.76 25.655 68.898-22.22 38.848-64.231a275 275 0 0 0-2.267-3.13" style="fill:#fdf7e7;fill-opacity:1;stroke-width:103.273;stroke-linecap:round;stroke-linejoin:round" transform="translate(.376)"/><path d="M1038.203 1823.93A193.993 221.273 0 0 0 844.21 2045.2a193.993 221.273 0 0 0 29.392 117.118c22.591-31.546 56.952-78.657 76.285-101.353 14.135-16.593 26.675-28.639 59.124-62.931s84.802-90.833 87.628-152.166c.179-3.876.16-7.77-.04-11.675a193.993 221.273 0 0 0-58.398-10.263z" style="mix-blend-mode:multiply;fill:url(#af);stroke-width:96.6972;stroke-linecap:round;stroke-linejoin:round" transform="translate(.376)"/><path d="m813.568 2330.75-33.781 46.424a80 80 0 0 0 19.347 2.38 80.1 80.1 0 0 0 29.99-5.833c.462-12.112-3.59-26.282-13.289-39.841a275 275 0 0 0-2.267-3.13" style="mix-blend-mode:multiply;fill:url(#ag);stroke-width:103.273;stroke-linecap:round;stroke-linejoin:round" transform="translate(.376)"/><path d="m813.568 2330.75-33.781 46.424a80 80 0 0 0 19.347 2.38 80.1 80.1 0 0 0 29.99-5.833c.462-12.112-3.59-26.282-13.289-39.841a275 275 0 0 0-2.267-3.13" style="mix-blend-mode:multiply;fill:url(#ah);stroke-width:103.273;stroke-linecap:round;stroke-linejoin:round" transform="translate(.376)"/><path d="M1887.018 846.308c-30.268 46.414-64.246 92.392-96.597 137.918-345.153 477.944-854.352 1178.383-1084.758 1494.758-65.503 89.918-243.857 322.388-261.973 350.266-3.807 5.859-61.975-6.342-43.767-33.827 58.037-80.508 114.717-161.989 171.919-243.094 46.064-65.235 93.015-130.868 132.656-186.84 336.769-492.698 691.47-972.996 1029.256-1464.947 26.153-38.71 52.178-77.555 77.49-116.81.782-1.478 1.309-1.901 2.064-2.412 2.348-1.588 75.143 7.804 73.71 64.988" style="fill:#afaeb4;fill-opacity:1;stroke-width:103.273;stroke-linecap:round;stroke-linejoin:round" transform="translate(.376)"/><path d="M1396.083 2299.977a770 770 0 0 0-46.594 1.412c-11.792 107.476 25.667 234.376 110.64 362.367 76.429 89.607 228.494 155.588 242.69 161.622 125.654 52.907 220.425 107.516 367.748 99.448 28.077-.094 55.14-.823 81.223-2.614a770.02 770.02 0 0 0-755.707-622.235" style="opacity:.545232;mix-blend-mode:multiply;fill:url(#ai);stroke-width:112.45;stroke-linecap:round;stroke-linejoin:round" transform="translate(.376)"/><path d="M1887.018 846.308c-30.268 46.414-64.246 92.392-96.597 137.918-345.153 477.944-854.352 1178.383-1084.758 1494.758-65.503 89.918-243.857 322.388-261.973 350.266-3.807 5.859-61.975-6.342-43.767-33.827 58.037-80.508 114.717-161.989 171.919-243.094 46.064-65.235 93.015-130.868 132.656-186.84 336.769-492.698 691.47-972.996 1029.256-1464.947 26.153-38.71 52.178-77.555 77.49-116.81.782-1.478 1.309-1.901 2.064-2.412 2.348-1.588 75.143 7.804 73.71 64.988" style="mix-blend-mode:multiply;fill:url(#aj);fill-opacity:1;stroke-width:103.273;stroke-linecap:round;stroke-linejoin:round" transform="translate(.376)"/><path d="M1887.018 846.308c-30.268 46.414-64.246 92.392-96.597 137.918-345.153 477.944-854.352 1178.383-1084.758 1494.758-65.503 89.918-243.857 322.388-261.973 350.266-3.807 5.859-61.975-6.342-43.767-33.827 58.037-80.508 114.717-161.989 171.919-243.094 46.064-65.235 93.015-130.868 132.656-186.84 336.769-492.698 691.47-972.996 1029.256-1464.947 26.153-38.71 52.178-77.555 77.49-116.81.782-1.478 1.309-1.901 2.064-2.412 2.348-1.588 75.143 7.804 73.71 64.988" style="mix-blend-mode:overlay;fill:url(#ak);fill-opacity:1;stroke-width:103.273;stroke-linecap:round;stroke-linejoin:round" transform="translate(.376)"/><path d="M1017.274 1087.854a320.654 370.487 0 0 0-221.916 103.054c47.818 27.31 104.126 41.664 156.959 53.25 23.855 5.234 40.165 7.42 49.78 9.247 11.183 2.123 21.652 2.335 23.422 16.144 20.684 161.329 182.917 80.823 248.638-32.95a320.654 370.487 0 0 0-256.883-148.745" style="mix-blend-mode:multiply;fill:url(#al);stroke-width:92.4659;stroke-linecap:round;stroke-linejoin:round" transform="translate(.376)"/><path d="M1371.185 955.543a308.64 308.64 0 0 0-167.1 49.152c1.325 18.413 6.515 36.532 15.014 53.734 9.98 19.352 25.8 41.99 61.827 82.884 36.026 40.895 92.255 100.044 130.229 131.931 37.973 31.888 57.69 36.515 79.963 18.259 22.273-18.257 47.1-59.4 60.245-84.959 13.145-25.558 14.604-35.534 15.943-43.689 1.339-8.154 2.557-14.482 2.679-26.044.448-42.538-12.228-89.8-33.233-133.1a308.64 308.64 0 0 0-165.567-48.168" style="mix-blend-mode:multiply;fill:url(#am);stroke-width:103.273;stroke-linecap:round;stroke-linejoin:round" transform="translate(.376)"/><path d="M1887.018 846.308c-30.268 46.414-64.246 92.392-96.597 137.918-345.153 477.944-854.352 1178.383-1084.758 1494.758-65.503 89.918-243.857 322.388-261.973 350.266-3.807 5.859-61.975-6.342-43.767-33.827 58.037-80.508 114.717-161.989 171.919-243.094 46.064-65.235 93.015-130.868 132.656-186.84 336.769-492.698 691.47-972.996 1029.256-1464.947 26.153-38.71 52.178-77.555 77.49-116.81.782-1.478 1.309-1.901 2.064-2.412 2.348-1.588 75.143 7.804 73.71 64.988" style="fill:url(#an);fill-opacity:1;stroke-width:103.273;stroke-linecap:round;stroke-linejoin:round" transform="translate(.376)"/><path d="M986.13 2112.239c-5.915.113-8.548 1.295-10.109 2.525-2.08 1.64-2.244 3.357-2.203 12.45.19 41.604-.892 52.952-16.434 80.625-20.603 38.143-48.477 73.777-73.235 110.784a314.985 316.142 0 0 0 105.096 18.121 314.985 316.142 0 0 0 220.43-90.315c-11.305-17.286-23.555-33.21-36.112-46.65-41.98-44.934-87.342-62.143-119.152-72.485s-50.064-13.817-61.189-14.773c-2.78-.239-5.12-.32-7.092-.282z" style="mix-blend-mode:multiply;fill:url(#ao);stroke-width:111.801;stroke-linecap:round;stroke-linejoin:round" transform="translate(.376)"/><path d="M1887.018 846.308c-30.268 46.414-64.246 92.392-96.597 137.918-345.153 477.944-854.352 1178.383-1084.758 1494.758-65.503 89.918-243.857 322.388-261.973 350.266-3.807 5.859-61.975-6.342-43.767-33.827 58.037-80.508 114.717-161.989 171.919-243.094 46.064-65.235 93.015-130.868 132.656-186.84 336.769-492.698 691.47-972.996 1029.256-1464.947 26.153-38.71 52.178-77.555 77.49-116.81.782-1.478 1.309-1.901 2.064-2.412 2.348-1.588 75.143 7.804 73.71 64.988" style="mix-blend-mode:multiply;fill:url(#ap);fill-opacity:1;stroke-width:103.273;stroke-linecap:round;stroke-linejoin:round" transform="translate(.376)"/><path d="M1887.018 846.308c-30.268 46.414-64.246 92.392-96.597 137.918-345.153 477.944-854.352 1178.383-1084.758 1494.758-65.503 89.918-243.857 322.388-261.973 350.266-3.807 5.859-61.975-6.342-43.767-33.827 58.037-80.508 114.717-161.989 171.919-243.094 46.064-65.235 93.015-130.868 132.656-186.84 336.769-492.698 691.47-972.996 1029.256-1464.947 26.153-38.71 52.178-77.555 77.49-116.81.782-1.478 1.309-1.901 2.064-2.412 2.348-1.588 75.143 7.804 73.71 64.988" style="mix-blend-mode:multiply;fill:url(#aq);fill-opacity:1;stroke-width:103.273;stroke-linecap:round;stroke-linejoin:round" transform="translate(.376)"/><path d="M1560.222 1798.257a271.75 258.405 0 0 0-36.734 2.372c27.026 106.954 155.581 205.539 160.274 167.996 1.093-9.333-1.33-21.643 9.464-25.197 10.973-3.4 48.241-8.649 79.302-7.22 10.798.496 20.325.956 28.877 1.387a271.75 258.405 0 0 0-241.183-139.338" style="mix-blend-mode:multiply;fill:url(#ar);stroke-width:129.906;stroke-linecap:round;stroke-linejoin:round" transform="translate(.376)"/><path d="M2192.244 1864.884a189.825 113.668 0 0 0 117.57 95.69c-.926-26.204-10.839-62.482-45.296-79.101-10.56-5.094-22.378-9.267-35.241-12.135-11.519-2.568-24.062-3.888-37.033-4.454" style="mix-blend-mode:multiply;fill:url(#as);stroke-width:62.1698;stroke-linecap:round;stroke-linejoin:round" transform="translate(.376)"/><path d="M2223.911 1969.98c9.589 9.028 6.238 22.57 18.888 39.115a89 89 0 0 0 18.944 2.041 88.95 88.95 0 0 0 41.495-10.27c1.78-5.265 3.18-10.957 4.574-16.355.652-2.522 1.202-5.716 1.574-9.423-14.05 2.546-31.46 3.27-52.653 1.38-11.621-1.037-16.673-3.11-21.284-4.495-4.551-1.365-8.674-2.058-11.538-1.992" style="mix-blend-mode:multiply;fill:url(#at);stroke-width:122.452;stroke-linecap:round;stroke-linejoin:round" transform="translate(.376)"/><path d="M999.282 2291.651a206.576 234.057 0 0 0-9.836 71.355 206.576 234.057 0 0 0 166.044 229.508 1611 1611 0 0 1 16.25-7.197c17.382-7.561 31.635-12.257 42.817-22.09a58 58 0 0 0 3.986-3.865c-50.413-25.587-96.484-61.366-139.798-111.277-38.252-47.308-63.194-100.437-79.463-156.434" style="mix-blend-mode:multiply;fill:url(#au);stroke-width:138.778;stroke-linecap:round;stroke-linejoin:round" transform="translate(.376)"/><path d="M1887.018 846.308c-30.268 46.414-64.246 92.392-96.597 137.918-345.153 477.944-854.352 1178.383-1084.758 1494.758-65.503 89.918-243.857 322.388-261.973 350.266-3.807 5.859-61.975-6.342-43.767-33.827 58.037-80.508 114.717-161.989 171.919-243.094 46.064-65.235 93.015-130.868 132.656-186.84 336.769-492.698 691.47-972.996 1029.256-1464.947 26.153-38.71 52.178-77.555 77.49-116.81.782-1.478 1.309-1.901 2.064-2.412 2.348-1.588 75.143 7.804 73.71 64.988" style="mix-blend-mode:overlay;fill:url(#av);fill-opacity:1;stroke-width:103.273;stroke-linecap:round;stroke-linejoin:round" transform="translate(.376)"/><path d="M1346.932 1060.623c-61.847.832-121.964 14.9-167.81 37.824-70.718 36.46-121.335 94.87-153.7 167.286-9.641 20.532-20.684 40.991-25.846 64.02-21.28 99.079-12.167 199.701-20.562 300.162-5.795 77.756-11.593 69.628-14.942 185.64-2.486 94.23.787 188.397 6.729 282.452 5.7 124.135 27.103 250.097 107.944 350.078 153.33 176.682 341.21 176.29 633.926 173.474 36.155-.348 44.848.343 63.795 8.165 35.32 14.582 171.974 86.68 203.286 116.553 7.561 7.214 9.124 12.426 10.428 19.205 4.047 23.398-12.923 72.983 22.216 77.622h319.661c11.653 0 10.954-30.454 8.988-52.073-6.46-54.08-51.993-65.255-96.963-67.99-44.94-2.172-94.68-10.206-113.624-55.767-20.203-53.08 7.136-81.244-54.324-252.736-54.488-152.04-109.02-221.65-220.487-326.786-96.967-91.46-138.204-122.152-163.655-144.622-19.295-17.035-42.933-36.68-59.446-55.8-27.048-31.879-48.174-70.326-63.017-109.53-29.841-82.5 16.987-95.938 73.44-148.418 65.991-63.546 57.08-131.529 29.377-225.974-7.649-26.073-15.297-50.06-19.469-67.442s-4.87-28.157-6.39-41.938c-19.086-172.996-163.492-235.235-299.555-233.405" style="fill:#fdf7e7;fill-opacity:1;stroke-width:103.273;stroke-linecap:round;stroke-linejoin:round" transform="translate(.376)"/><path d="M2160.947 2714.86a155.292 135.448 0 0 0-154.974 126.71c1.918.7 4.054 1.22 6.423 1.534h303.622a155.292 135.448 0 0 0-155.07-128.244" style="mix-blend-mode:multiply;fill:url(#aw);stroke-width:93.2322;stroke-linecap:round;stroke-linejoin:round" transform="translate(.376)"/><path d="M2160.947 2714.86a155.292 135.448 0 0 0-154.974 126.71c1.918.7 4.054 1.22 6.423 1.534h303.622a155.292 135.448 0 0 0-155.07-128.244" style="mix-blend-mode:multiply;fill:url(#ax);stroke-width:93.2322;stroke-linecap:round;stroke-linejoin:round" transform="translate(.376)"/><path d="M2179.634 2725.623c-40.51 2.108-80.575 15.116-119.676 25.608-24.227 6.639-76.739 88.02-47.562 91.873h226.175c1.747-4.317 2.72-8.397 3.478-12.103 1.485-7.261 18.826-103.273-62.415-105.378" style="fill:#fdf7e7;fill-opacity:1;stroke-width:103.273;stroke-linecap:round;stroke-linejoin:round" transform="translate(.376)"/><path d="M1346.932 1060.623c-61.847.832-121.964 14.9-167.81 37.824-70.718 36.46-121.335 94.87-153.7 167.286-9.641 20.532-20.688 40.992-25.85 64.02-11.083 51.603-13.92 103.623-15.281 155.822a362.404 431.883 0 0 0 352.483 331.505 362.404 431.883 0 0 0 225.143-93.462c-.259-.756-.501-1.525-.727-2.315 5.342-32.07 32.725-49.534 66.208-78.092a362.404 431.883 0 0 0 62.988-163.47c-3.494-23.562-9.971-48.825-18.04-76.333-7.649-26.073-15.297-50.06-19.469-67.442s-4.87-28.157-6.39-41.938c-19.086-172.996-163.492-235.235-299.555-233.405" style="mix-blend-mode:multiply;fill:url(#ay);stroke-width:83.9748;stroke-linecap:round;stroke-linejoin:round" transform="translate(.376)"/><path d="M2230.745 1890.116c46.2 10.355 76.977 6.36 98.46 11.99 46.343 12.145 47.264 85.041-72.47 74.364-11.622-1.037-16.673-3.11-21.285-4.494-4.611-1.384-8.783-2.08-11.651-1.992-2.868.087-4.172 3.041-7.735 5.736-19.617 16.276-40.627 16.036-69.672 12.04-77.828 10.151-72.668 10.83-86.848-48.001-2.688-9.628-9.279-19.495 6.6-29.345s54.227-19.683 79.423-25.091 37.242-6.392 46.338-5.531c9.095.86 15.24 3.564 20.895 5.53s10.816 3.196 17.945 4.794" style="fill:#fdf7e7;fill-opacity:1;stroke-width:103.273;stroke-linecap:round;stroke-linejoin:round" transform="translate(.376)"/><path d="M2097.798 1934.658a112.746 72.747 0 0 0-38.47 4.365c.073.246.15.488.218.734 14.18 58.831 9.018 58.156 86.846 48.006 23.337 3.21 41.49 3.998 57.897-4.26a112.746 72.747 0 0 0-106.492-48.845z" style="mix-blend-mode:multiply;fill:url(#az);stroke-width:159.257;stroke-linecap:round;stroke-linejoin:round" transform="translate(.376)"/><path d="M2082.065 1925.848a73.41 61.085 0 0 0-61.44 27.657c15.922 1.132 33.628 2.367 53.412 3.72 21.05 1.439 47.77.807 72.686.782a73.41 61.085 0 0 0-64.658-32.16" style="mix-blend-mode:multiply;fill:url(#aA);stroke-width:85.4719;stroke-linecap:round;stroke-linejoin:round" transform="translate(.376)"/><path d="M2059.45 1950.429c.186 44.178 28.687 94.733 63.422 123.104 29.858 24.387 72.023-5.047 55.149-41.986-6.43-14.077-14.927-27.54-22.1-41.14-2.433-4.866-3.65-8.864-2.781-16.947 12.65-117.642-122.799-89.46-97.167-43.803 2.781 4.954 3.303 12.602 3.477 20.772" style="fill:#fdf7e7;fill-opacity:1;stroke-width:103.273;stroke-linecap:round;stroke-linejoin:round" transform="translate(.376)"/><path d="M1353.443 857.337c-60.968.549-123.748 35.84-143.106 97.279-11.598 35.06-7.402 71.096 8.762 103.813 9.98 19.352 25.8 41.99 61.827 82.884 36.026 40.895 92.255 100.044 130.229 131.931 37.973 31.888 57.69 36.515 79.963 18.259 22.273-18.257 47.1-59.4 60.245-84.959 13.145-25.558 14.604-35.534 15.943-43.689 1.339-8.154 2.557-14.482 2.679-26.044 1.078-102.306-73.726-231.9-157.854-268.122-18.245-7.855-38.366-11.534-58.688-11.352" style="mix-blend-mode:multiply;fill:url(#aB);stroke-width:103.273;stroke-linecap:round;stroke-linejoin:round" transform="translate(.376)"/><path d="M1346.932 1060.623c-61.847.832-121.964 14.9-167.81 37.824-70.718 36.46-127.398 90.702-159.762 163.118-186.242 476 397.531 501.064 521.716 441.392 33.881-15.645 63.756-39.504 101.894-73.575 68.32-61.036 57.08-131.529 29.376-225.974-7.649-26.073-15.297-50.06-19.469-67.442s-4.87-28.157-6.39-41.938c-19.086-172.996-163.492-235.235-299.555-233.405M808.59 2152.346a87.903 108.325 0 0 0-87.903 108.323 87.903 108.325 0 0 0 13.773 58.212q.752-1.02 1.54-2.073c6.768-5.934 14.995-10.08 23.439-13.466 3.626-1.106 5.1-.122 6.083 1.783 3.787 9.604 8.477 18.698 14.934 26.859 24.188 33.018 54.106 15.934 56.542-19.791 1.245-18.266-4.666-37.56-8.165-59.124-6.18-31.322-1.76-64.092 16.12-91.025a87.903 108.325 0 0 0-36.363-9.698" style="fill:#fdf7e7;fill-opacity:1;stroke-width:103.273;stroke-linecap:round;stroke-linejoin:round" transform="translate(.376)"/><path d="M1300.988 1222.167c86.748-7.99 84.393 100.87 64.567 84.632-2.638-2.16-5.95-5.187-9.587-9.276-14.605-16.416-25.517-28.026-38.038-31.67-25.213-5.777-44.804 14.664-62.835 29.009-10.25 7.353-15.75 3.765-15.093-5.489 2.47-34.739 34.01-64.721 60.986-67.206" style="fill:url(#aC);fill-opacity:1;stroke-width:103.273;stroke-linecap:round;stroke-linejoin:round" transform="translate(.376)"/><path d="M696.596 1054.379c1.114 24.233 8.99 49 25.447 72.573 53.492 73.365 146.272 98.785 230.274 117.206 23.855 5.234 40.165 7.42 49.78 9.247 7.094 1.347 13.898 1.928 18.38 5.696q-.562 1.226-1.114 2.46c-31.36 80.151-40.893 147.523-34.459 203.851-1.945 54.699-1.304 109.623-5.89 164.503-2.426 32.552-4.852 50.052-7.1 67.91-13.202 55.127-45.869 103.958-70.701 154.804-14.627 29.99-24.213 50.148-36.259 76.083-29.435 63.376-52.677 115.892-73.372 165.559-9.218 22.124-16.104 39.334-22.373 52.855-8.844 23.442-26.722 39.995-43.512 57.639-6.76 7.252-10.69 13.159-16.467 26.31-14.732 39.215-33.19 77.798-41.914 118.974-2.317 12.125-3.858 45.352-1.299 69.636a32924 32924 0 0 0 38.477-54.194c4.465-6.533 8.938-13.07 13.41-19.598l.008-.01v-.01q11.073-16.168 22.171-32.32c5.876-4.259 12.547-7.485 19.356-10.215 3.626-1.106 5.1-.122 6.083 1.783 3.787 9.604 8.477 18.698 14.934 26.86 6.553 8.944 13.526 14.21 20.26 16.426-11.064 15.204-21.804 29.964-32.193 44.238 2.915 2.087 5.627 3.836 8.464 5.462 40.965 23.48 64.656-14.63 45.343-53.468 8.003-6.193 13.665-17.74 14.668-32.45 1.245-18.266-4.666-37.56-8.165-59.124-6.18-31.322-1.76-64.092 16.12-91.025a87.903 108.325 0 0 0-.016-.01c39.969-57.394 80.12-114.66 120.393-171.844 1.319 35.953 3.201 71.891 5.47 107.815.713 15.523 1.672 31.076 2.961 46.602-.442 28.137-3.253 39.861-16.378 63.23-44.395 82.19-122.573 152.73-130.519 250.469-4.687 71.801 33.879 152.81 65.28 181.243 14.706 13.317 61.413 38.726 99.238 49.596 2.386.878 4.814 1.712 7.278 2.533 39.234 13.078 73.517 14.77 89.742 19.557 8.324 2.999 12.537 7.898 4.607 14.523-12.781 11.106-36.541 12.942-51.144 16-8.865 1.13-17.734 1.993-26.512 3.557-66.165 12.924-65.983 90.61-54.807 93.22 5.418 1.265 16.076 1.53 59.019 1.42s118.166-.602 157.007-1.34c38.84-.737 41.297-1.716 44.124-3.928 5.655-4.426 98.789-109.844 107.864-146.986 14.722-60.25-79.51-70.798-134.69-111.834 7.788-3.557 14.68-7.36 20.687-12.642a58 58 0 0 0 3.985-3.865c87.119 44.216 187.205 57.996 308.43 61.649a1297.7 1297.7 0 0 0 45.191-339.493 1297.73 1297.73 0 0 0-875.568-1227.139Z" style="mix-blend-mode:multiply;fill:url(#aD);stroke-width:182.153;stroke-linecap:round;stroke-linejoin:round" transform="translate(.376)"/><path d="M1353.443 857.337c-27.518.248-55.407 7.575-79.504 21.187a367.61 367.61 0 0 0 294.23 227.483c-11.884-96.046-80.168-204.652-156.038-237.318-18.245-7.855-38.366-11.534-58.688-11.352" style="fill:url(#aE);fill-opacity:1;stroke-width:103.273;stroke-linecap:round;stroke-linejoin:round" transform="translate(.376)"/><path d="M1353.443 857.337c-27.518.248-55.407 7.575-79.504 21.187a367.61 367.61 0 0 0 294.23 227.483c-11.884-96.046-80.168-204.652-156.038-237.318-18.245-7.855-38.366-11.534-58.688-11.352" style="mix-blend-mode:overlay;fill:url(#aF);fill-opacity:1;stroke-width:103.273;stroke-linecap:round;stroke-linejoin:round" transform="translate(.376)"/><path d="M847.826 893.806c-104.5 2.638-198.166 129.462-125.783 233.146 53.492 73.365 146.272 98.785 230.274 117.206 23.855 5.234 40.165 7.42 49.78 9.247 7.094 1.347 13.898 1.928 18.38 5.696q-.562 1.226-1.114 2.46c-31.36 80.151-40.893 147.523-34.459 203.851-1.945 54.699-1.304 109.623-5.89 164.503-2.426 32.552-4.852 50.052-7.1 67.91-13.202 55.127-45.869 103.958-70.701 154.804-14.627 29.99-24.213 50.148-36.259 76.083-29.435 63.376-52.677 115.892-73.372 165.559-9.218 22.124-16.104 39.334-22.373 52.855-8.844 23.442-26.722 39.995-43.512 57.639-6.76 7.252-10.69 13.159-16.467 26.31-14.732 39.215-33.19 77.798-41.914 118.974-2.317 12.125-3.858 45.352-1.299 69.636a32930 32930 0 0 0 38.477-54.194c4.465-6.533 8.938-13.07 13.41-19.598l.008-.01v-.01q11.073-16.168 22.171-32.32c5.875-4.259 12.547-7.485 19.356-10.215 3.626-1.106 5.1-.122 6.083 1.783 3.787 9.604 8.477 18.698 14.934 26.86 6.553 8.944 13.526 14.21 20.26 16.426-11.064 15.204-21.804 29.964-32.193 44.238 2.915 2.087 5.627 3.836 8.464 5.462 40.965 23.48 64.656-14.63 45.343-53.468 8.003-6.193 13.665-17.74 14.668-32.45 1.245-18.266-4.666-37.56-8.165-59.124-6.18-31.322-1.76-64.092 16.12-91.025a87.903 108.325 0 0 0-.016-.01c39.969-57.394 80.12-114.66 120.393-171.844 1.319 35.953 3.201 71.891 5.47 107.815.713 15.523 1.672 31.076 2.961 46.602-.442 28.137-3.253 39.861-16.378 63.23-44.395 82.19-122.573 152.73-130.519 250.469-4.687 71.801 33.879 152.81 65.28 181.243 14.706 13.317 61.413 38.726 99.238 49.596 2.386.878 4.814 1.712 7.278 2.533 39.234 13.078 73.517 14.77 89.742 19.557 8.324 2.999 12.537 7.898 4.607 14.523-12.781 11.106-36.541 12.942-51.144 16-8.865 1.13-17.734 1.993-26.512 3.557-66.165 12.924-65.983 90.61-54.807 93.22 5.418 1.265 16.076 1.53 59.019 1.42s118.166-.602 157.007-1.34c38.84-.737 41.297-1.716 44.124-3.928 5.655-4.426 98.789-109.844 107.864-146.986 14.722-60.25-79.51-70.798-134.69-111.834 7.788-3.557 14.68-7.36 20.687-12.642a58 58 0 0 0 3.985-3.865c128.046 64.99 284.102 64.218 494.128 62.198 6.08-.06 11.382-.086 16.088-.057a1634.33 1172.057 0 0 0 250.356-399.392c-32.767-44.942-72.064-85.875-123.467-134.36-96.968-91.46-138.204-122.151-163.656-144.622-19.294-17.034-42.933-36.678-59.446-55.8-27.048-31.878-48.17-70.329-63.013-109.533-22.726-62.828-.989-85.6 35.605-116.069 11.941-9.568 24.372-20.32 37.832-32.345 68.32-61.036 57.08-131.53 29.376-225.974-7.648-26.073-15.296-50.06-19.468-67.442s-4.87-28.158-6.39-41.938c-6.623-60.026-28.337-106.717-59.551-142.025a1634.33 1172.057 0 0 0-87.67-62.737c-47.01-20.669-100.281-29.342-152.335-28.642-39.456.53-78.21 6.452-113.003 16.62-13.359 1.546-25.824 4.599-33.757 5.906-21.42 3.53-33.65 6.074-42.777 3.518-68.364-19.142-150.891-117.616-199.236-152.263-25.01-17.923-60.69-35.463-89.331-39.43a129 129 0 0 0-21.002-1.17z" style="mix-blend-mode:multiply;fill:url(#aG);stroke-width:220.579;stroke-linecap:round;stroke-linejoin:round" transform="translate(.376)"/><path d="M1047.933 1211.143a305 305 0 0 0-28.57 50.418c-31.36 80.151-40.893 147.523-34.459 203.851-1.945 54.699-1.304 109.623-5.89 164.503-2.426 32.552-4.852 50.052-7.1 67.91-13.202 55.127-45.869 103.958-70.701 154.804-14.627 29.99-24.213 50.148-36.259 76.083-29.435 63.376-52.677 115.892-73.372 165.559-9.218 22.124-16.104 39.334-22.373 52.855-8.844 23.442-26.722 39.995-43.512 57.639-6.76 7.252-10.69 13.159-16.467 26.31-14.732 39.215-33.19 77.798-41.914 118.974-2.317 12.125-3.858 45.352-1.299 69.636a32924 32924 0 0 0 38.477-54.194c4.465-6.533 8.938-13.07 13.41-19.598l.008-.01v-.01q11.073-16.168 22.171-32.32c5.876-4.259 12.547-7.485 19.356-10.215 3.626-1.106 5.1-.122 6.083 1.783 3.787 9.604 8.477 18.698 14.934 26.86 6.553 8.944 13.526 14.21 20.26 16.426-11.064 15.204-21.804 29.964-32.193 44.238 2.915 2.087 5.627 3.836 8.464 5.462 40.965 23.48 64.656-14.63 45.343-53.468 8.003-6.193 13.665-17.74 14.668-32.45 1.245-18.266-4.666-37.56-8.165-59.124-6.18-31.322-1.76-64.092 16.12-91.025a87.903 108.325 0 0 0-.016-.01c39.969-57.394 80.12-114.66 120.393-171.844 1.319 35.953 3.201 71.891 5.47 107.815.713 15.523 1.672 31.076 2.961 46.602-.442 28.137-3.253 39.861-16.378 63.23-44.395 82.19-122.573 152.73-130.519 250.469-4.687 71.801 33.879 152.81 65.28 181.243 14.706 13.317 61.413 38.726 99.238 49.596 2.386.878 4.814 1.712 7.278 2.533 39.234 13.078 73.517 14.77 89.742 19.557 8.324 2.999 12.537 7.898 4.607 14.523-12.781 11.106-36.541 12.942-51.144 16-8.865 1.13-17.734 1.993-26.512 3.557-66.165 12.924-65.983 90.61-54.807 93.22 5.418 1.265 16.076 1.53 59.019 1.42s118.166-.602 157.007-1.34c38.84-.737 41.297-1.716 44.124-3.928 5.655-4.426 98.789-109.844 107.864-146.986 14.722-60.25-79.51-70.798-134.69-111.834 7.788-3.557 14.68-7.36 20.687-12.642a58 58 0 0 0 3.985-3.865c128.046 64.99 284.102 64.218 494.128 62.198 36.156-.348 44.849.342 63.795 8.164 25.708 10.614 105.102 51.694 158.484 84.789a1499 1499 0 0 0 5.865-132.52 1498.8 1498.8 0 0 0-83.175-492.361l-1.992-1.88c-96.968-91.46-138.204-122.151-163.655-144.622-19.295-17.035-42.934-36.679-59.447-55.8-27.048-31.879-48.17-70.33-63.013-109.533-22.726-62.828-.989-85.6 35.605-116.07 3.97-3.18 7.99-6.494 12.087-9.94a1498.8 1498.8 0 0 0-569.291-440.643z" style="mix-blend-mode:multiply;fill:url(#aH);stroke-width:199.615;stroke-linecap:round;stroke-linejoin:round" transform="translate(.376)"/><path d="M1572.163 2281.517a770.02 696.81 0 0 0-495.766 163.631c.778.98 1.56 1.962 2.348 2.937 153.33 176.682 341.21 176.29 633.926 173.474 36.155-.348 44.848.343 63.795 8.165 35.32 14.582 171.974 86.68 203.286 116.553 7.561 7.214 9.12 12.423 10.424 19.203 4.048 23.397-12.919 72.985 22.22 77.624h315.143a770.02 696.81 0 0 0-35.387-111.842c-14.769-5.052-31.457-7.21-48.07-8.221-44.94-2.172-94.68-10.206-113.625-55.767-18.027-47.365 1.801-74.892-37.388-202.117a770.02 696.81 0 0 0-520.906-183.64" style="mix-blend-mode:multiply;fill:url(#aI);fill-opacity:1;stroke-width:32.4632;stroke-linecap:round;stroke-linejoin:round" transform="translate(.376)"/><path d="M1572.163 2281.517a770.02 696.81 0 0 0-495.766 163.631c.778.98 1.56 1.962 2.348 2.937 153.33 176.682 341.21 176.29 633.926 173.474 36.155-.348 44.848.343 63.795 8.165 35.32 14.582 171.974 86.68 203.286 116.553 7.561 7.214 9.12 12.423 10.424 19.203 4.048 23.397-12.919 72.985 22.22 77.624h315.143a770.02 696.81 0 0 0-35.387-111.842c-14.769-5.052-31.457-7.21-48.07-8.221-44.94-2.172-94.68-10.206-113.625-55.767-18.027-47.365 1.801-74.892-37.388-202.117a770.02 696.81 0 0 0-520.906-183.64" style="mix-blend-mode:multiply;fill:url(#aJ);fill-opacity:1;stroke-width:32.4632;stroke-linecap:round;stroke-linejoin:round" transform="translate(.376)"/><path d="M848.318 1964.817c-21.82 47.765-40.101 89.531-56.736 129.454-9.218 22.124-16.104 39.334-22.373 52.855-8.844 23.442-26.722 39.995-43.512 57.639-6.76 7.252-10.69 13.159-16.467 26.31-14.732 39.215-33.19 77.798-41.914 118.974-1.637 8.566-2.883 27.662-2.574 46.698a274 274 0 0 0 20.155-3.63c6.696-9.43 13.24-18.65 19.597-27.626 4.465-6.533 8.938-13.07 13.41-19.598l.008-.01v-.01q11.073-16.168 22.171-32.32c5.876-4.259 12.547-7.485 19.356-10.215 3.626-1.106 5.1-.122 6.083 1.783 3.787 9.604 8.477 18.698 14.934 26.86 3.716 5.071 7.567 8.958 11.433 11.779a274 274 0 0 0 45.045-43.06c-1.037-14.865-5.326-30.534-8.1-47.635-6.181-31.322-1.76-64.092 16.12-91.025a87.903 108.325 0 0 0-.017-.01 35650 35650 0 0 1 52.629-75.365 274 274 0 0 0-49.248-121.849z" style="fill:url(#aK);stroke-width:72.3827;stroke-linecap:round;stroke-linejoin:round" transform="translate(.376)"/><path d="M848.318 1964.817c-21.82 47.765-40.101 89.531-56.736 129.454-9.218 22.124-16.104 39.334-22.373 52.855-8.844 23.442-26.722 39.995-43.512 57.639-6.76 7.252-10.69 13.159-16.467 26.31-14.732 39.215-33.19 77.798-41.914 118.974-1.637 8.566-2.883 27.662-2.574 46.698a274 274 0 0 0 20.155-3.63c6.696-9.43 13.24-18.65 19.597-27.626 4.465-6.533 8.938-13.07 13.41-19.598l.008-.01v-.01q11.073-16.168 22.171-32.32c5.876-4.259 12.547-7.485 19.356-10.215 3.626-1.106 5.1-.122 6.083 1.783 3.787 9.604 8.477 18.698 14.934 26.86 3.716 5.071 7.567 8.958 11.433 11.779a274 274 0 0 0 45.045-43.06c-1.037-14.865-5.326-30.534-8.1-47.635-6.181-31.322-1.76-64.092 16.12-91.025a87.903 108.325 0 0 0-.017-.01 35650 35650 0 0 1 52.629-75.365 274 274 0 0 0-49.248-121.849z" style="fill:url(#aL);stroke-width:72.3827;stroke-linecap:round;stroke-linejoin:round" transform="translate(.376)"/><path d="M1891.389 1825.157a481.175 314.605 0 0 0-235.204 86.232c11.9 11.052 24.59 21.837 35.807 31.74q.296.263.597.525.311-.118.637-.226c10.973-3.4 48.241-8.649 79.302-7.22 115.794 5.323 84.715 6.068 287.107 20.032 2.497 42.734 30.016 90.16 63.238 117.296 29.858 24.387 72.02-5.048 55.146-41.987-6.43-14.076-14.925-27.54-22.098-41.14q-.389-.78-.734-1.54c24.6 2.758 43.293 1.435 60.874-13.152 3.563-2.694 4.87-5.65 7.737-5.736h.121c11.13 10.483 4.809 27.061 26.367 47.352 8.971 8.443 30.383 16.559 45.844-2.372 6.022-7.375 8.855-19.51 11.682-30.45.652-2.521 1.202-5.716 1.574-9.423 47.426-8.595 56.54-37.903 43.382-57.147a481.175 314.605 0 0 0-24.438-16.064c-11.18-2.762-24.845-3.058-41.818-4.163-5.882-6.377-13.123-11.963-21.994-16.241-10.56-5.094-22.378-9.267-35.241-12.135-49.13-10.955-116.852.835-157.314-3.211-13.906-1.39-27.11-4.693-50.055-9.908-43.59-9.944-87.147-20.154-130.519-31.062" style="mix-blend-mode:multiply;fill:url(#aM);stroke-width:114.002;stroke-linecap:round;stroke-linejoin:round" transform="translate(.376)"/><path d="M1095.955 2722.662c-.682.986-1.654 2.02-2.945 3.098-12.782 11.105-36.542 12.942-51.144 16-8.866 1.129-17.734 1.993-26.513 3.557-28.91 5.648-45.153 23.663-53.346 42.374a92.377 80.21 0 0 0 41.865 8.714 92.377 80.21 0 0 0 92.083-73.743" style="fill:url(#aN);stroke-width:128.938;stroke-linecap:round;stroke-linejoin:round" transform="translate(.376)"/><path d="M1095.955 2722.662c-.682.986-1.654 2.02-2.945 3.098-12.782 11.105-36.542 12.942-51.144 16-8.866 1.129-17.734 1.993-26.513 3.557-28.91 5.648-45.153 23.663-53.346 42.374a92.377 80.21 0 0 0 41.865 8.714 92.377 80.21 0 0 0 92.083-73.743" style="fill:url(#aO);stroke-width:128.938;stroke-linecap:round;stroke-linejoin:round" transform="translate(.376)"/><path d="M1095.955 2722.662c-.682.986-1.654 2.02-2.945 3.098-12.782 11.105-36.542 12.942-51.144 16-8.866 1.129-17.734 1.993-26.513 3.557-28.91 5.648-45.153 23.663-53.346 42.374a92.377 80.21 0 0 0 41.865 8.714 92.377 80.21 0 0 0 92.083-73.743" style="mix-blend-mode:overlay;fill:url(#aP);stroke-width:128.938;stroke-linecap:round;stroke-linejoin:round" transform="translate(.376)"/><path d="M2593.41 2332.484a414.56 414.56 0 0 0-301.258 398.778 414.6 414.6 0 0 0 29.772 154.272c57.992-24.895 109.69-64.778 155.877-127.937 85.059-114.422 142.699-253.002 120.12-397.149-1.464-10.971-2.954-20.22-4.511-27.964" style="fill:url(#aQ);stroke-width:65.7001;stroke-linecap:round;stroke-linejoin:round" transform="translate(.376)"/><path d="M2593.41 2332.484a414.56 414.56 0 0 0-301.258 398.778 414.6 414.6 0 0 0 29.772 154.272c57.992-24.895 109.69-64.778 155.877-127.937 85.059-114.422 142.699-253.002 120.12-397.149-1.464-10.971-2.954-20.22-4.511-27.964" style="fill:url(#aR);stroke-width:65.7001;stroke-linecap:round;stroke-linejoin:round" transform="translate(.376)"/><path d="M847.826 893.806c-104.5 2.638-198.166 129.462-125.783 233.146 53.492 73.365 146.272 98.785 230.274 117.206 23.855 5.234 40.165 7.42 49.78 9.247 7.094 1.347 13.898 1.928 18.38 5.696q-.562 1.226-1.114 2.46c-31.36 80.151-40.893 147.523-34.459 203.851-1.945 54.699-1.304 109.623-5.89 164.503-2.426 32.552-4.852 50.052-7.1 67.91-13.202 55.127-45.869 103.958-70.701 154.804-14.627 29.99-24.213 50.148-36.259 76.083-29.435 63.376-52.677 115.892-73.372 165.559-9.218 22.124-16.104 39.334-22.373 52.855-8.844 23.442-26.722 39.995-43.512 57.639-6.76 7.252-10.69 13.159-16.467 26.31-14.732 39.215-33.19 77.798-41.914 118.974-2.317 12.125-3.858 45.352-1.299 69.636a32924 32924 0 0 0 38.477-54.194c4.465-6.533 8.938-13.07 13.41-19.598l.008-.01v-.01q11.073-16.168 22.171-32.32c5.876-4.259 12.547-7.485 19.356-10.215 3.626-1.106 5.1-.122 6.083 1.783 3.787 9.604 8.477 18.698 14.934 26.86 6.553 8.944 13.526 14.21 20.26 16.426-11.064 15.204-21.804 29.964-32.193 44.238 2.915 2.087 5.627 3.836 8.464 5.462 40.965 23.48 64.656-14.63 45.343-53.468 8.003-6.193 13.665-17.74 14.668-32.45 1.245-18.266-4.666-37.56-8.165-59.124-6.18-31.322-1.76-64.092 16.12-91.025a87.903 108.325 0 0 0-.016-.01c39.969-57.394 80.12-114.66 120.393-171.844 1.319 35.953 3.201 71.891 5.47 107.815.713 15.523 1.672 31.076 2.961 46.602-.442 28.137-3.253 39.861-16.378 63.23-44.395 82.19-122.573 152.73-130.519 250.469-4.687 71.801 33.879 152.81 65.28 181.243 14.706 13.317 61.413 38.726 99.238 49.596 2.386.878 4.814 1.712 7.278 2.533 39.234 13.078 73.517 14.77 89.742 19.557 8.324 2.999 12.537 7.898 4.607 14.523-12.781 11.106-36.541 12.942-51.144 16-8.865 1.13-17.734 1.993-26.512 3.557-66.165 12.924-65.983 90.61-54.807 93.22 5.418 1.265 16.076 1.53 59.019 1.42s118.166-.602 157.007-1.34c38.84-.737 41.297-1.716 44.124-3.928 5.655-4.426 98.789-109.844 107.864-146.986 14.722-60.25-79.51-70.798-134.69-111.834 7.788-3.557 14.68-7.36 20.687-12.642a58 58 0 0 0 3.985-3.865c128.047 64.99 284.102 64.218 494.128 62.198 6.08-.06 11.382-.086 16.088-.057a1634.33 1172.057 0 0 0 250.356-399.392c-32.767-44.942-72.064-85.875-123.467-134.36-96.968-91.46-138.204-122.151-163.655-144.622-19.295-17.034-42.934-36.678-59.447-55.8-27.048-31.878-48.17-70.329-63.013-109.533-22.726-62.828-.989-85.6 35.605-116.069 11.941-9.568 24.372-20.32 37.832-32.345 68.32-61.036 57.08-131.53 29.376-225.974-7.648-26.073-15.296-50.06-19.468-67.442s-4.87-28.158-6.39-41.938c-6.623-60.026-28.337-106.717-59.551-142.025a1634.33 1172.057 0 0 0-87.67-62.738c-47.01-20.668-100.281-29.342-152.335-28.642-39.457.53-78.21 6.453-113.003 16.62-13.359 1.547-25.824 4.6-33.757 5.906-21.421 3.53-33.65 6.074-42.778 3.518-68.363-19.141-150.89-117.615-199.235-152.263-25.01-17.923-60.69-35.463-89.331-39.429a129 129 0 0 0-21.002-1.17z" style="mix-blend-mode:multiply;fill:url(#aS);stroke-width:220.579;stroke-linecap:round;stroke-linejoin:round" transform="translate(.376)"/><path d="M1572.163 2281.517a770.02 696.81 0 0 0-495.766 163.631c.778.98 1.56 1.962 2.348 2.937 153.33 176.682 341.21 176.29 633.926 173.474 36.155-.348 44.848.343 63.795 8.165 35.32 14.582 171.974 86.68 203.286 116.553 7.561 7.214 9.12 12.423 10.424 19.203 4.048 23.397-12.919 72.985 22.22 77.624h315.143a770.02 696.81 0 0 0-35.387-111.842c-14.769-5.052-31.457-7.21-48.07-8.221-44.94-2.172-94.68-10.206-113.625-55.767-18.027-47.365 1.801-74.892-37.388-202.117a770.02 696.81 0 0 0-520.906-183.64" style="mix-blend-mode:multiply;fill:url(#aT);fill-opacity:1;stroke-width:32.4632;stroke-linecap:round;stroke-linejoin:round" transform="translate(.376)"/><path d="M1572.163 2281.517a770.02 696.81 0 0 0-495.766 163.631c.778.98 1.56 1.962 2.348 2.937 153.33 176.682 341.21 176.29 633.926 173.474 36.155-.348 44.848.343 63.795 8.165 35.32 14.582 171.974 86.68 203.286 116.553 7.561 7.214 9.12 12.423 10.424 19.203 4.048 23.397-12.919 72.985 22.22 77.624h315.143a770.02 696.81 0 0 0-35.387-111.842c-14.769-5.052-31.457-7.21-48.07-8.221-44.94-2.172-94.68-10.206-113.625-55.767-18.027-47.365 1.801-74.892-37.388-202.117a770.02 696.81 0 0 0-520.906-183.64" style="mix-blend-mode:multiply;fill:url(#aU);fill-opacity:1;stroke-width:32.4632;stroke-linecap:round;stroke-linejoin:round" transform="translate(.376)"/><path d="M1353.443 857.337c-60.968.549-123.748 35.84-143.106 97.279-11.598 35.06-7.402 71.096 8.762 103.813 3.075 5.961 6.7 12.235 11.304 19.258-12.007 1.63-23 4.271-30.232 5.463-21.42 3.53-33.649 6.073-42.777 3.517-68.363-19.141-150.891-117.615-199.236-152.262-25.01-17.924-60.69-35.464-89.33-39.43a129 129 0 0 0-21.002-1.17c-104.5 2.64-198.166 129.463-125.783 233.147 53.492 73.365 146.272 98.785 230.274 117.206 23.855 5.234 40.165 7.42 49.78 9.247 7.094 1.347 13.898 1.928 18.38 5.696q-.562 1.226-1.114 2.46c-31.36 80.151-40.893 147.523-34.459 203.851-1.945 54.699-1.304 109.623-5.89 164.503-2.426 32.552-4.852 50.052-7.1 67.91-13.202 55.127-45.869 103.958-70.701 154.804-14.627 29.99-24.213 50.148-36.259 76.083-29.435 63.376-52.677 115.892-73.372 165.559-9.218 22.124-16.104 39.334-22.373 52.855-8.844 23.442-26.722 39.995-43.512 57.639-6.76 7.252-10.69 13.159-16.467 26.31-14.732 39.215-33.19 77.798-41.914 118.974-2.317 12.125-3.858 45.352-1.299 69.636a32924 32924 0 0 0 38.477-54.194c4.465-6.533 8.938-13.07 13.41-19.598l.008-.01v-.01q11.073-16.168 22.171-32.32c5.875-4.259 12.547-7.485 19.356-10.215 3.626-1.106 5.1-.122 6.083 1.783 3.787 9.604 8.477 18.698 14.934 26.86 6.553 8.944 13.526 14.21 20.26 16.426-11.064 15.204-21.804 29.964-32.193 44.238 2.915 2.087 5.627 3.836 8.464 5.462 40.965 23.48 64.656-14.63 45.343-53.468 8.003-6.193 13.665-17.74 14.668-32.45 1.245-18.266-4.666-37.56-8.165-59.124-6.18-31.322-1.76-64.092 16.12-91.025a87.903 108.325 0 0 0-.016-.01c39.969-57.394 80.12-114.66 120.393-171.844 1.319 35.953 3.201 71.891 5.47 107.815.713 15.523 1.672 31.076 2.961 46.602-.442 28.137-3.253 39.861-16.378 63.23-44.395 82.19-122.573 152.73-130.519 250.469-4.687 71.801 33.879 152.81 65.28 181.243 14.706 13.317 61.413 38.726 99.238 49.596 2.386.878 4.814 1.712 7.278 2.533 39.234 13.078 73.517 14.77 89.742 19.557 8.324 2.999 12.537 7.898 4.607 14.523-12.781 11.106-36.541 12.942-51.144 16-8.865 1.13-17.734 1.993-26.512 3.557-66.165 12.924-65.983 90.61-54.807 93.22 5.418 1.265 16.076 1.53 59.019 1.42s118.166-.602 157.007-1.34c38.84-.737 41.297-1.716 44.124-3.928 5.655-4.426 98.788-109.844 107.864-146.986 14.722-60.25-79.51-70.798-134.69-111.834 7.788-3.557 14.68-7.36 20.687-12.642a58 58 0 0 0 3.985-3.865c128.047 64.99 284.102 64.218 494.128 62.198 36.156-.348 44.849.342 63.795 8.164 35.32 14.582 171.974 86.68 203.286 116.554 7.562 7.213 9.12 12.423 10.425 19.202.253 1.464.425 3.035.532 4.687a1830.216 1806.118 0 0 0 85.942-354.185l-.516-1.444c-54.488-152.04-109.021-221.65-220.487-326.786-96.968-91.46-138.204-122.151-163.656-144.622-19.294-17.035-42.933-36.679-59.446-55.8-27.048-31.879-48.17-70.33-63.012-109.533-22.727-62.828-.99-85.6 35.604-116.07 11.941-9.568 24.372-20.32 37.832-32.345 68.32-61.035 57.08-131.529 29.376-225.973-7.648-26.074-15.296-50.06-19.468-67.442s-4.87-28.158-6.39-41.939c-7.764-70.361-36.262-122.398-76.495-159.258.072-101.98-74.293-230.1-157.862-266.08-18.244-7.856-38.365-11.535-58.688-11.352z" style="mix-blend-mode:multiply;fill:url(#aV);stroke-width:123.89;stroke-linecap:round;stroke-linejoin:round" transform="translate(.376)"/><path d="M848.81 893.781c-46.507.828-90.967 26.31-119.724 63.489a407.53 407.53 0 0 0 314.7 148.608 407.5 407.5 0 0 0 120.45-18.21c-2.493-.1-4.75-.414-6.842-1-68.363-19.142-150.891-117.616-199.236-152.263-25.01-17.924-60.69-35.464-89.33-39.43a129 129 0 0 0-20.018-1.194" style="fill:url(#aW);stroke-width:103.273;stroke-linecap:round;stroke-linejoin:round" transform="translate(.376)"/><path d="M848.81 893.781c-46.507.828-90.967 26.31-119.724 63.489a407.53 407.53 0 0 0 314.7 148.608 407.5 407.5 0 0 0 120.45-18.21c-2.493-.1-4.75-.414-6.842-1-68.363-19.142-150.891-117.616-199.236-152.263-25.01-17.924-60.69-35.464-89.33-39.43a129 129 0 0 0-20.018-1.194" style="mix-blend-mode:overlay;fill:url(#aX);stroke-width:103.273;stroke-linecap:round;stroke-linejoin:round" transform="translate(.376)"/><path d="M988.81 2249.979a362.04 362.04 0 0 0-56.696 194.516 362.04 362.04 0 0 0 107.904 257.859c21.047 4.11 38.244 5.892 48.385 8.883 8.323 2.999 12.536 7.898 4.607 14.523-4.316 3.75-9.883 6.44-15.927 8.48a362.04 362.04 0 0 0 171.417 69.402c29.96-35.26 73.965-90.996 80.06-115.94 14.722-60.25-79.509-70.797-134.69-111.833 7.788-3.557 14.68-7.36 20.687-12.643a58 58 0 0 0 3.986-3.864c-50.413-25.587-96.484-61.366-139.798-111.277-47.633-58.91-74.628-126.843-89.936-198.106" style="mix-blend-mode:normal;fill:url(#aY);stroke-width:73.1799;stroke-linecap:round;stroke-linejoin:round" transform="translate(.376)"/><path d="M788.468 2101.766c-7.692 18.568-13.717 33.406-19.259 45.36-8.844 23.442-26.722 39.995-43.512 57.639-6.76 7.252-10.69 13.158-16.467 26.31-14.732 39.215-33.19 77.798-41.914 118.974-2.317 12.125-3.858 45.352-1.299 69.636a32924 32924 0 0 0 38.477-54.194c4.465-6.533 8.938-13.07 13.41-19.598l.008-.01v-.01q11.073-16.168 22.171-32.32c5.876-4.259 12.547-7.485 19.356-10.215 3.626-1.106 5.1-.122 6.083 1.783 3.787 9.604 8.477 18.698 14.934 26.86 6.553 8.944 13.526 14.21 20.26 16.426-11.064 15.204-21.804 29.964-32.193 44.238 2.915 2.087 5.627 3.836 8.464 5.462 4.192 2.403 8.202 4.163 12.005 5.341a303.74 303.74 0 0 0 39.841-150.383c-2.403-12.178-3.205-24.579-2.235-36.767a303.7 303.7 0 0 0-38.13-114.536z" style="fill:url(#aZ);stroke-width:103.273;stroke-linecap:round;stroke-linejoin:round" transform="translate(.376)"/><path d="M975.577 1667.787c-1.252 11.397-2.484 20.668-3.663 30.037-13.202 55.128-45.869 103.96-70.701 154.805-14.627 29.99-24.213 50.148-36.259 76.083-29.435 63.376-52.677 115.892-73.372 165.559-9.218 22.124-16.104 39.334-22.373 52.855-8.844 23.442-26.722 39.995-43.512 57.639-6.76 7.252-10.69 13.159-16.467 26.31-2.657 7.074-5.433 14.127-8.253 21.18a372.7 372.7 0 0 0 125.436-33.177c1.159-20.129 7.087-39.781 18.54-57.034a87.903 108.325 0 0 0-.016-.01c39.969-57.394 80.12-114.661 120.393-171.845 1.319 35.954 3.201 71.892 5.47 107.816.038.837.082 1.679.122 2.517a372.67 372.67 0 0 0 71.597-219.632 372.67 372.67 0 0 0-66.942-213.105z" style="fill:url(#ba);stroke-width:100.032;stroke-linecap:round;stroke-linejoin:round" transform="translate(.376)"/><path d="M975.577 1667.787c-1.252 11.397-2.484 20.668-3.663 30.037-13.202 55.128-45.869 103.96-70.701 154.805-14.627 29.99-24.213 50.148-36.259 76.083-29.435 63.376-52.677 115.892-73.372 165.559-9.218 22.124-16.104 39.334-22.373 52.855-8.844 23.442-26.722 39.995-43.512 57.639-6.76 7.252-10.69 13.159-16.467 26.31-2.657 7.074-5.433 14.127-8.253 21.18a372.7 372.7 0 0 0 125.436-33.177c1.159-20.129 7.087-39.781 18.54-57.034a87.903 108.325 0 0 0-.016-.01c39.969-57.394 80.12-114.661 120.393-171.845 1.319 35.954 3.201 71.892 5.47 107.816.038.837.082 1.679.122 2.517a372.67 372.67 0 0 0 71.597-219.632 372.67 372.67 0 0 0-66.942-213.105z" style="mix-blend-mode:overlay;fill:url(#bb);stroke-width:100.032;stroke-linecap:round;stroke-linejoin:round" transform="translate(.376)"/><path d="M1462.73 1390.827c-16.372-1.009-53.725-17.798-43.302-36.372 9.58-17.074 60.437-24.606 74.156-.8 10.107 17.537-10.312 29.754-20.55 34.558-2.699 1.265-7.348 2.796-10.304 2.614" style="fill:url(#bc);fill-opacity:1;stroke-width:100.925;stroke-linecap:round;stroke-linejoin:round" transform="translate(.376)"/><path d="M1460.822 1338.58c-17.553-.313-36.009 6.267-41.398 15.87-1.489 2.655-2.003 5.278-1.742 7.819a112.27 69.387 0 0 0 42.212 5.09 112.27 69.387 0 0 0 36.412-3.751c.113-3.089-.68-6.417-2.719-9.956-6.002-10.415-19.112-14.828-32.765-15.072" style="fill:url(#bd);stroke-width:103.273;stroke-linecap:round;stroke-linejoin:round" transform="translate(.376)"/><path d="M1346.932 1060.623a438 438 0 0 0-58.478 4.728 523.77 523.77 0 0 0-78.472 275.763 523.77 523.77 0 0 0 168.577 384.933c70.306 1.671 131.111-8 162.518-23.091 33.88-15.645 63.755-39.503 101.893-73.574 68.32-61.036 57.08-131.529 29.376-225.974-7.648-26.073-15.297-50.06-19.469-67.442-4.171-17.382-4.87-28.157-6.39-41.938-19.086-172.996-163.492-235.235-299.555-233.405" style="mix-blend-mode:overlay;fill:url(#be);stroke-width:122.775;stroke-linecap:round;stroke-linejoin:round" transform="translate(.376)"/><path d="M984.904 1465.396c-.239 6.722-.438 13.45-.613 20.179a362.404 431.883 0 0 0 352.483 331.505 362.404 431.883 0 0 0 225.143-93.462q-.388-1.132-.727-2.315c4.103-24.633 21.214-40.652 44.101-59.697-21.95 17.602-42.241 31.203-64.215 41.35-103.275 49.624-524.404 40.644-556.172-237.56" style="mix-blend-mode:multiply;fill:url(#bf);stroke-width:83.9748;stroke-linecap:round;stroke-linejoin:round" transform="translate(.376)"/><path d="M-186.25-.48c16.723-.887 16.73 25.918 10.447 17.843-7.02-10.7-9.201-12.449-18.757-4.876-1.798 1.241-2.695.492-2.507-1.225.695-6.352 6.19-11.497 10.817-11.743" style="fill:url(#bg);fill-opacity:1;stroke-width:18.4923;stroke-linecap:round;stroke-linejoin:round" transform="matrix(4.13091 0 0 4.19118 2330.432 1269.565)"/><path d="M1565.975 1267.492a61 61 0 0 0-5.3.057c-8.613.463-17.95 5.098-25.876 12.481a139.9 139.9 0 0 0 79.569 24.834c-7.353-18.71-22.607-36.507-48.393-37.372z" style="fill:url(#bh);stroke-width:103.273;stroke-linecap:round;stroke-linejoin:round" transform="translate(.376)"/><path d="M1346.932 1060.623a438 438 0 0 0-58.478 4.728 523.77 523.77 0 0 0-78.472 275.763 523.77 523.77 0 0 0 168.577 384.933c70.306 1.671 131.111-8 162.518-23.091 33.88-15.645 63.755-39.503 101.893-73.574 68.32-61.036 57.08-131.529 29.376-225.974-7.648-26.073-15.297-50.06-19.469-67.442-4.171-17.382-4.87-28.157-6.39-41.938-19.086-172.996-163.492-235.235-299.555-233.405" style="mix-blend-mode:overlay;fill:url(#bi);stroke-width:122.775;stroke-linecap:round;stroke-linejoin:round" transform="translate(.376)"/><path d="M408.86 2801.302a34.833 27.949 0 0 0-12.215 1.775c-4.03 22.055 43.612 31.457 47.045 26.173a34.833 27.949 0 0 0-34.83-27.948" style="mix-blend-mode:multiply;fill:url(#bj);stroke-width:92.5068;stroke-linecap:round;stroke-linejoin:round" transform="translate(.376)"/><path d="M408.86 2801.302a34.833 27.949 0 0 0-12.215 1.775c-4.03 22.055 43.612 31.457 47.045 26.173a34.833 27.949 0 0 0-34.83-27.948" style="mix-blend-mode:overlay;fill:url(#bk);stroke-width:92.5068;stroke-linecap:round;stroke-linejoin:round" transform="translate(.376)"/><path d="M980.45 1610.212a955 955 0 0 1-1.436 19.703c-2.426 32.552-4.852 50.052-7.1 67.91-13.202 55.127-45.869 103.958-70.701 154.804-14.627 29.99-24.213 50.148-36.259 76.083-29.435 63.376-52.677 115.892-73.372 165.559-5.642 13.54-10.412 25.239-14.7 35.379a524.272 566.136 0 0 0 207.409-451.028 524.272 566.136 0 0 0-3.84-68.41" style="fill:url(#bl);fill-opacity:1;stroke-width:99.3811;stroke-linecap:round;stroke-linejoin:round" transform="translate(.376)"/><path d="M1590.881 1825.14a689 689 0 0 0-5.422 86.265 689.29 689.29 0 0 0 533.058 671.346c-3.544-34.975-12.391-84.528-42.383-168.213-54.488-152.04-109.02-221.65-220.487-326.786-96.967-91.46-138.204-122.152-163.655-144.622-19.295-17.035-42.933-36.68-59.446-55.8-15.982-18.836-29.894-39.965-41.665-62.19" style="mix-blend-mode:overlay;fill:url(#bm);stroke-width:103.273;stroke-linecap:round;stroke-linejoin:round" transform="translate(.376)"/><path d="M1308.858 1221.753a98 98 0 0 0-7.867.411c-26.975 2.485-58.517 32.47-60.987 67.208-.658 9.254 4.837 12.84 15.088 5.487 18.03-14.344 37.621-34.781 62.835-29.005 12.52 3.645 23.437 15.251 38.041 31.667 3.638 4.09 6.947 7.118 9.585 9.279 19.207 15.73 22.015-85.941-56.695-85.047z" style="mix-blend-mode:overlay;fill:url(#bn);stroke-width:103.273;stroke-linecap:round;stroke-linejoin:round" transform="translate(.376)"/><path d="M1077.083 2734.24c-11.856 4.002-25.545 5.494-35.218 7.52-8.865 1.129-17.733 1.993-26.512 3.557-66.164 12.924-65.983 90.61-54.807 93.22 5.418 1.265 16.077 1.53 59.019 1.42s118.166-.602 157.007-1.34c38.84-.737 41.298-1.716 44.125-3.929 1.955-1.53 14.373-15.143 30.159-33.83a259.94 259.94 0 0 0-173.765-66.618h-.01z" style="mix-blend-mode:multiply;fill:url(#bo);stroke-width:103.273;stroke-linecap:round;stroke-linejoin:round" transform="translate(.376)"/><path d="M1077.083 2734.24c-11.856 4.002-25.545 5.494-35.218 7.52-8.865 1.129-17.733 1.993-26.512 3.557-66.164 12.924-65.983 90.61-54.807 93.22 5.418 1.265 16.077 1.53 59.019 1.42s118.166-.602 157.007-1.34c38.84-.737 41.298-1.716 44.125-3.929 1.955-1.53 14.373-15.143 30.159-33.83a259.94 259.94 0 0 0-173.765-66.618h-.01z" style="mix-blend-mode:multiply;fill:url(#bp);stroke-width:103.273;stroke-linecap:round;stroke-linejoin:round" transform="translate(.376)"/></svg>