<svg xmlns="http://www.w3.org/2000/svg" xmlns:xlink="http://www.w3.org/1999/xlink" xml:space="preserve" width="2000" height="3400"><defs><linearGradient id="i"><stop offset="0" stop-color="#fff"/><stop offset="1" stop-color="#fff" stop-opacity="0"/></linearGradient><linearGradient id="g"><stop offset=".227" stop-color="#5ea6f1"/><stop offset=".488" stop-color="#95e2fc"/><stop offset="1" stop-color="#feffff"/></linearGradient><linearGradient id="e"><stop offset="0" stop-color="#d23157"/><stop offset=".5" stop-color="#d13156"/><stop offset=".857" stop-color="#ab2e4a"/></linearGradient><linearGradient id="d"><stop offset="0" stop-color="#f393a5"/><stop offset="1" stop-color="#f07f8e"/></linearGradient><linearGradient id="c"><stop offset=".636" stop-color="#262e56"/><stop offset=".881" stop-color="#235793"/><stop offset="1" stop-color="#205a98"/></linearGradient><linearGradient id="h"><stop offset="0" stop-color="#f396a9" stop-opacity=".669"/><stop offset="1" stop-color="#f396a9" stop-opacity="0"/></linearGradient><linearGradient id="b"><stop offset=".071" stop-color="#f07a88"/><stop offset=".5" stop-color="#f07a88" stop-opacity=".515"/><stop offset=".631" stop-color="#f28e9e" stop-opacity=".402"/></linearGradient><linearGradient id="a"><stop offset=".477" stop-color="#f396a9"/><stop offset=".738" stop-color="#f07f8e"/><stop offset="1" stop-color="#f07a88"/></linearGradient><linearGradient xlink:href="#a" id="o" x1="562.956" x2="562.956" y1="-68.605" y2="1013.374" gradientUnits="userSpaceOnUse"/><linearGradient xlink:href="#b" id="p" x1="31.202" x2="59.435" y1="1914.66" y2="1740.99" gradientUnits="userSpaceOnUse"/><linearGradient xlink:href="#c" id="l" x1="474.497" x2="474.611" y1="275.064" y2="407.471" gradientTransform="matrix(1 0 0 1.15445 0 -29.268)" gradientUnits="userSpaceOnUse"/><linearGradient xlink:href="#c" id="k" x1="474.497" x2="474.611" y1="275.064" y2="407.471" gradientTransform="matrix(1 0 0 1.15445 202.245 -29.268)" gradientUnits="userSpaceOnUse"/><linearGradient xlink:href="#d" id="r" x1="-250.763" x2="-327.922" y1="2092.191" y2="2280.346" gradientUnits="userSpaceOnUse"/><linearGradient xlink:href="#e" id="m" x1="973.233" x2="912.784" y1="743.898" y2="1019.716" gradientUnits="userSpaceOnUse"/><linearGradient xlink:href="#e" id="n" x1="973.233" x2="912.784" y1="743.898" y2="1019.716" gradientTransform="matrix(-1 0 0 1 1146.505 0)" gradientUnits="userSpaceOnUse"/><linearGradient xlink:href="#g" id="j" x1="1000" x2="1000" y1="0" y2="2000" gradientTransform="scale(1 1.7)" gradientUnits="userSpaceOnUse"/><radialGradient xlink:href="#h" id="q" cx="-280.485" cy="1560.867" r="177.712" fx="-280.485" fy="1560.867" gradientTransform="translate(360.995 -992.932)scale(.77108)" gradientUnits="userSpaceOnUse"/><radialGradient xlink:href="#i" id="s" cx="-873.164" cy="439.024" r="488.242" fx="-873.164" fy="439.024" gradientUnits="userSpaceOnUse"/></defs><path fill="url(#j)" d="M0 0h2000v3400H0z"/><path fill="url(#k)" d="M727.438 320.151c0 72.156-22.56 132.724-50.14 132.724s-49.739-60.568-49.739-132.724 22.359-130.65 49.94-130.65 49.94 58.494 49.94 130.65" transform="translate(425.49 1556.049)"/><path fill="url(#l)" d="M525.193 320.151c0 72.156-22.56 132.724-50.14 132.724s-49.739-60.568-49.739-132.724 22.359-130.65 49.94-130.65 49.94 58.494 49.94 130.65" transform="translate(425.49 1556.049)"/><path fill="#d03156" d="M1388.072 2269.329a26.83 26.83 0 0 0-22.353 12.193l-3.356 5.156c-14.407 22.134-67.962 78.356-95.793 99.283-53.272 40.057-124.25 71.281-184.447 81.65-14.542 2.505-27.98 4.847-32.096 5.627h-.004l-5.299 1.006a26.83 26.83 0 0 0-11.408 47.58l5.299 4.098.002.002c21.194 16.386 49.132 22.826 87.742 30.687s85.887 14.057 135.598 17.356c76.196 5.057 157.077.26 211.877-13.863 13.705-3.533 27.785-8.874 40.527-14.887s23.444-11.556 33.148-20.93c13.833-13.36 22.895-33.56 22.895-52.025 0-36.507-19.316-71.54-46.746-104.668s-64.284-63.919-105.748-86.012l-17.09-9.105a26.8 26.8 0 0 0-12.748-3.149m67.252 125.214c3.633 1.123 7.64 3.378 13.18 8.242.06.053 4.087 4.867 6.459 9.336.08.153.12.32.197.477-1.688-.397-2.97-.769-2.955-.762-.408-.202-5.775-3.954-9.795-8.139s-7.332-9.706-7.08-9.103c-.01-.015 0-.036-.01-.05z"/><path fill="url(#m)" d="M966.85 731.822c-.13.183-2.236 3.211-4.68 6.73-16.928 24.383-42.875 53.794-63.544 72.027-32.323 28.514-60.924 47.96-97.003 65.954-42.481 21.188-91.367 35.998-134.72 40.811-5.531.614-10.648 1.42-11.373 1.793-1.592.816 7.098 6.688 16.882 11.408 36.725 17.716 116.143 30.764 210.675 34.614 12.812.522 61.663-.306 75.87-1.287 50.273-3.47 89.332-11.525 114.72-23.66 12.49-5.97 19.107-10.36 25.701-17.05 13.144-13.333 15.085-29.32 6.647-54.78-15.675-47.299-65.394-98.022-129.063-131.674-5.43-2.87-9.981-5.07-10.112-4.886" transform="translate(425.49 1556.049)"/><path fill="#d03156" d="M612.59 2279.776a16.6 16.6 0 0 0-7.557 1.794l-10.848 5.497h-.002c-54.208 27.47-114.573 83.222-138.443 130.52-14.203 28.142-20.916 56.76-9.725 80.345 10.158 21.406 32.56 34.585 61.725 45.03 29.164 10.443 66.296 17.498 109.21 20.702 60.751 4.535 134.038 1.008 197.686-7.353 31.825-4.18 61.187-9.567 85.518-15.932s43.276-12.899 56.81-23.275c1.08-.828 1.997-1.453 3.592-2.946.798-.746 1.841-1.635 3.278-3.925 1.436-2.29 3.667-7.36 2.158-13.36s-5.763-9.315-8.049-10.654-3.599-1.654-4.639-1.95c-2.08-.59-3.188-.733-4.537-.98-67.15-12.275-93.33-19.667-132.05-37.097-72.748-32.748-137.741-86.204-186.266-153.4v-.003l-4.42-6.119a16.63 16.63 0 0 0-13.441-6.894m-61.883 103.063h.002c1.208.029 2.196.198 2.996.438.349.104 1.357.977 2.197 1.654.245.982.563 2.087.576 3.527.035 3.685-.846 8.157-1.6 9.96-2.033 4.867-15.232 18.701-21.872 21.8-12.23 5.707-17.935 3.128-18.8 2.36-.863-.77-3.314-3.416 2.075-14.43 7.144-14.601 25.927-25.51 34.426-25.309"/><path fill="url(#n)" d="M179.655 731.822c.13.183 2.236 3.211 4.679 6.73 16.928 24.383 42.876 53.794 63.544 72.027 32.323 28.514 60.924 47.96 97.003 65.954 42.481 21.188 91.367 35.998 134.721 40.811 5.53.614 10.647 1.42 11.373 1.793 1.591.816-7.098 6.688-16.883 11.408-36.725 17.716-116.142 30.764-210.674 34.614-12.813.522-61.664-.306-75.87-1.287-50.273-3.47-89.333-11.525-114.72-23.66-12.49-5.97-19.107-10.36-25.702-17.05-13.144-13.333-15.084-29.32-6.647-54.78 15.675-47.299 65.394-98.022 129.063-131.674 5.431-2.87 9.982-5.07 10.113-4.886" transform="translate(425.49 1556.049)"/><path fill="#fff" d="M896.235 1758.4c-5.173 0-10.356 1.146-13.983 2.932-14.3 7.04-21.692 22.68-24.652 41.633-1.59 10.179-1.65 27.537-.315 37.916 2.774 21.576 11.833 40.125 29.463 45.884 4.527 1.48 7.186 1.246 10.948 1.131 8.12-.248 16.71-4.365 22.492-10.61 6.439-6.954 10.896-16.125 13.322-25.696 2.32-9.151 3.026-20.555 2.644-33.905-.47-16.468-2.862-27.22-8.91-38.93-3.965-7.677-9.747-14.042-17.103-17.527-3.696-1.75-8.757-2.828-13.906-2.828"/><path fill="#ec6765" d="M1000.633 2056.639c-7.483.038-14.975 1.433-20.63 4.324-2.5 1.279-5.338 3.317-7.822 5.451s-4.573 4.252-5.6 6.158l-1.443 2.68a1.51 1.51 0 0 0-.029 1.379l3.44 7.07c7.471 15.363 17.14 24.682 28.18 26.393 8.632 1.338 17.174-1.973 24.64-9.324 5.1-5.021 11.066-14.01 13.473-20.344.663-1.746 1.066-2.847 1.134-4.006.069-1.16-.324-2.171-.853-3.195-1.023-1.978-3.31-4.295-5.97-6.662-2.663-2.368-5.61-4.609-7.97-5.805-5.604-2.84-13.067-4.157-20.55-4.12"/><path fill="#eb666f" d="M1447.238 2366.987c-7.884.503-14.426 4.108-17.76 11.447-4.17 9.182-1.636 21.982 6.885 34.78 7.562 11.356 19.91 20.995 31.674 24.726 14.588 4.626 27.52 1.253 32.518-8.48 2.045-3.985 2.531-6.333 2.476-11.972-.059-6.035-.631-8.2-4.094-15.513-10.506-22.191-34.353-36.096-51.699-34.989"/><path fill="url(#o)" d="M575.518 14.644c-30.373.137-63.419 9.476-94.536 15.904C411.017 44.999 339.6 93.253 280.396 143.773c-10.98 9.37-18.58 15.433-24.134 19.092-5.554 3.66-8.954 4.844-11.668 4.844-1.55 0-2.266-.41-2.735-1.014s-.768-1.67-.6-3.275c.338-3.212 2.63-8.177 6.92-13.275l7.55-8.97c.666-.792 6.428-2.812 5.627-3.468l-11.092-15.174C215.384 93.96 174.094 72.562 144.06 69.7c-30.036-2.86-61.701 5.23-82.838 28.74-35.85 39.872-48.804 123.474-31.93 189.694 11.9 46.695 20.68 80.915 53.148 120.84 7.06 8.681 21.367 19.809 24.598 22.36 1.616 1.276 3.085 2.072 4.733 1.986 1.648-.085 2.911-1.18 3.781-2.37 1.494-2.043 7.82-17.289 9.316-17.289.112 0-.006-.05.08.03.086.078.34.402.608 1.113.533 1.421 1.076 4.245 1.513 8.799.875 9.106-9.909 28.225-9.233 55.62 1.343 54.516 8.509 70.093 14.945 97.108 20.697 86.876 61.587 161.708 119.82 222.377 70.209 73.148 155.428 106.072 252.771 122.195 41.64 6.898 124.895 14.254 166.09 4.56 109.052-25.664 214.886-96.309 279.9-188.594l10.159-31.24c.623-.883 12.406-5.724 11.477-6.278l-23.82-5.389c-4.404-.996-7.188-2.847-9.05-4.918s-2.623-3.868-2.623-5.29c0-1.747.188-2.633.283-2.751.048-.06.11-.15.59-.266.48-.115 1.332-.184 2.562-.12 4.922.254 15.627 2.54 36.704 7.144 41.214 9.004 80.487 11.489 102.727-13.266s27.4-76.484 21.062-124.09c-7.034-52.83-15.674-104.38-53.45-144.01-20.632-21.645-34.42-15.995-40.734-40.474C975.147 241.473 891.097 118.005 773.321 61.21 711 31.158 642.339 14.343 575.518 14.644m98.673 183.018c6.85-.402 10.483 8.298 15.994 11.909 9.434 6.181 16.43 13.952 21.795 35.983 5.367 22.03 12.666 51.113 12.666 86.01 0 67.874-9.51 108.45-28.22 125.79-10.53 9.758-28.894 9.842-40.551.033-9.951-8.374-17.077-21.723-21.705-42.492-4.628-20.77-6.711-48.873-6.66-86.358.048-35.73 2.06-61.936 6.676-81.566s11.769-32.637 22.193-42.366c4.425-4.129 10.962-6.54 17.812-6.943m-199.601 1.014c13.641 0 24.035 7.373 31.988 23.29 7.953 15.918 13.091 40.333 15.328 73.388 2.546 37.606 1.321 72.155-3.066 99.92-4.388 27.764-12.059 48.734-21.772 59.033-4.287 4.546-7.128 7.026-10.154 8.394s-6.472 1.75-12.227 1.75c-8.447 0-13.956-9.696-20.095-14.82s-8.225-8.972-12.356-19.823c-8.26-21.702-16.982-52.025-16.982-98.244 0-46.167 4.039-79.704 12.289-101.42 4.125-10.857 9.28-18.73 15.406-23.863s13.222-7.605 21.64-7.605m98.68 261.107c18.61-.599 37.43 4.574 44.435 14.574 5.537 7.905 6.053 23.652 2.29 39.434-3.765 15.782-11.666 31.557-21.45 39.79-13.564 11.412-33.69 11.075-47.254-.835-9.17-8.052-16.763-22.719-20.687-37.539-3.925-14.82-4.08-29.793.45-38.139 2.8-5.155 8.606-9.382 16.151-12.341 7.546-2.96 16.76-4.644 26.065-4.944" transform="translate(425.49 1556.049)"/><path fill="#f396a9" d="M1431.745 1923.461c-4.055 2.758-6.327 24.173-.973 39.1 5.354 14.925 18.333 23.361 33.421 41.614s32.285 46.318 41.858 78.442c9.572 32.124 11.519 68.301 5.921 93.692s-18.738 39.992-35.611 49.077-37.477 12.655-57.595 10.708-39.748-9.41-54.674-20.28-25.147-25.146-27.175-23.686 4.137 18.657 14.52 32.285c10.384 13.628 24.985 23.687 47.05 30.988s51.592 11.843 78.037 1.784 49.807-34.719 60.028-69.6c10.22-34.882 7.3-79.984-3.083-118.11-10.384-38.126-28.23-69.275-43.804-87.608s-28.879-23.85-38.45-34.557c-9.573-10.708-15.414-26.607-19.47-23.85m-879.187 56.193c-5.921 63.513-20.022 121.898 33.943 222.964 31.813 80.58 86.89 150.869 159.816 202.334 41.404 29.22 91.245 52.285 141 65.252 31.909 8.316 50.205 11.156 93 14.438 10.083.773 49.42-.387 64-1.889 136.749-14.082 257.673-88.733 331.909-204.9 4.176-6.535 12.53-19.789 12.515-20.404-.02-.872-7.575-4.863-14.074-7.436-.441-.174-9.636 13.044-14.38 20.326-18.338 28.143-33.713 47.13-57.464 70.955-9.628 9.658-21.556 20.946-26.506 25.082-70.714 59.093-153.906 92.958-245.5 99.936-19.078 1.453-59.228.68-78-1.504-94.246-10.963-178.937-50.9-249.324-117.573-100.491-94.488-122.45-238.465-150.935-367.581"/><path fill="#fff" d="M1103.253 1756.904c5.173 0 10.356 1.146 13.983 2.932 14.3 7.04 17.276 22.813 20.236 41.766 1.59 10.18 6.065 27.404 4.73 37.783-2.773 21.576-11.832 40.125-29.462 45.884-4.527 1.48-7.186 1.246-10.948 1.131-8.12-.248-16.71-4.365-22.492-10.61-6.439-6.954-10.896-16.125-13.322-25.696-2.32-9.151-3.026-20.555-2.644-33.905.47-16.468 2.862-27.22 8.91-38.93 3.965-7.677 9.747-14.042 17.103-17.527 3.696-1.75 8.757-2.828 13.906-2.828"/><path fill="#803346" d="M1001.418 2018.606c-6.212-.095-12.21.214-16.971 1.367-4.647 1.125-9.385 3.129-13.633 5.502s-7.922 4.858-10.595 8.365c-1.45 1.902-2.95 4.351-3.547 7.19-.597 2.838-.575 5.58-.567 10.08.005 2.815.103 5.584.268 7.896.082 1.156.18 2.192.305 3.125.124.933.08 1.481.71 3.059.228.57.36 1.199 1.295 2.47s4.335 3.164 6.71 2.762 3.1-1.254 3.812-1.814c.71-.561 1.289-1.096 2.002-1.75 7.011-6.438 12.026-8.641 22.92-9.88 12.83-1.457 26.316 1.94 34.105 7.885 1.58 1.207 3.116 2.21 4.617 2.995.75.392 1.461.735 2.44 1.033s2.321 1.601 5.914-.62c2.616-1.616 2.508-2.742 2.77-3.423.26-.681.368-1.159.47-1.643.205-.968.326-1.915.432-3.008.212-2.184.326-4.86.326-7.744-.001-7.554-.437-12.212-2.576-16.343-2.212-4.272-5.772-6.937-9.965-9.538s-9.079-4.79-14.1-6.101c-4.827-1.261-10.932-1.77-17.142-1.865"/><path fill="#eb666f" d="M549.404 2366.945c-7.837.283-16.676 3.318-25.238 8.891-6.009 3.911-9.158 6.897-14.903 14.125-8.37 10.533-11.664 18.49-11.664 28.176 0 10.25 2.773 15.12 11.438 20.096 4.865 2.793 18.097 1.96 27.062-1.705 32.802-13.41 49.144-55.48 26.053-67.07-3.704-1.86-8.046-2.682-12.748-2.513"/><path fill="#ee7178" d="M1244.49 1962.584c-13.676.03-16.715.358-25.82 2.785-5.676 1.513-11.076 3.149-12 3.635-.924.487-3.48 1.769-5.68 2.85-10.022 4.925-13.284 7.15-20.076 13.695-17.734 17.09-19.002 36.104-3.37 50.55 4.264 3.941 10.456 7.49 18.446 10.575 1.1.425 5.375 1.534 9.5 2.465 14.867 3.356 35.239 1.693 51.43-4.197 10.392-3.781 13.57-5.218 13.57-6.137 0-.416.626-.756 1.39-.756 1.441 0 10.759-6.68 16.255-11.654 3.412-3.088 9.318-12.042 11.113-16.846 4.868-13.035-.337-27.826-12.758-36.248-12.329-8.36-21.745-10.762-42-10.717m-488.996-.455c-3.823.207-7.564.66-11.166 1.371-10.283 2.033-22.766 7.348-25.777 10.977-.719.865-1.926 1.572-2.684 1.572s-1.377.606-1.377 1.346-.867 2.127-1.926 3.086c-1.059.958-3.14 4.225-4.625 7.26-2.38 4.866-2.64 6.361-2.21 12.663.414 6.092 2.824 13.891 4.833 15.645.315.275.876 1.175 1.244 2 1.943 4.344 6.307 8.825 14.09 14.469 2.252 1.632 4.319 3.221 4.594 3.531.999 1.126 13.67 6.86 20.5 9.275 3.85 1.362 10.375 3.024 14.5 3.692s8.175 1.377 9 1.578c3.106.755 23.718-.62 29-1.934 15.591-3.88 27.843-12.104 33-22.154 2.056-4.006 2.5-6.302 2.5-12.914 0-10.344-2.153-15.184-11.5-25.852-14.516-16.565-45.238-27.061-71.996-25.61"/><path d="M636.562 2580.469c-100.26-5.003-169.516-26.494-195.412-60.639-6.34-8.36-12.386-20.603-14.53-29.428-3.402-14-1.429-36.028 4.975-55.54 5.536-16.87 18.336-40.717 31.344-58.396 26.984-36.674 69.496-73.363 114.113-98.484l8.526-4.8-11.558-23.108c-17.44-34.865-27.387-61.528-36.503-97.851-9.851-39.249-13.54-68.812-14.114-113.13l-.413-31.874-11.505-12.01c-46.962-49.016-75.418-105.253-86.145-170.243-1.488-9.018-1.815-16.768-1.81-43 .01-29.2.207-33.049 2.3-43.982 8.007-41.826 23.429-72.66 48.944-97.856 24.279-23.976 52.39-35.662 85.782-35.662 24.322 0 47.352 5.981 72.968 18.952 20.416 10.337 34.642 19.813 53.903 35.906 6.016 5.026 9.29 7.147 10.095 6.54.655-.494 7.616-5.759 15.468-11.7 72.97-55.205 156.553-87.323 248.035-95.313 22.663-1.98 70.988-1.437 92 1.033 134.72 15.836 252.915 84.165 333.127 192.582 37.072 50.107 64.777 110.116 79.719 172.672 2.726 11.41 3.15 12.38 6.78 15.489 26.81 22.958 51.5 57.937 66.59 94.339 8.15 19.663 13.415 37.72 16.912 58 2.919 16.93 3.622 46.87 1.482 63.115-7.38 56.038-34.499 97.12-74.324 112.596-14.968 5.818-25.432 7.93-42.786 8.637l-16 .652 7.5 4.417c18.97 11.172 38.665 25.44 57.619 41.745 45.263 38.933 76.004 85.008 84.96 127.338 2.468 11.667 2.487 32.12.037 41-11.883 43.075-59.816 69.661-148.615 82.43-68.028 9.783-166.705 8.045-255.5-4.499-78.129-11.037-123.56-26.48-149.579-50.843l-6.422-6.013-14.047-.038-14.047-.038-3.953 4.085c-28.186 29.131-89.497 47.265-197.453 58.399-40.972 4.226-111.388 6.37-148.463 4.52m75.463-31.011c64.52-2.423 134.052-11.038 178.5-22.117 27.54-6.864 45.007-13.727 58.869-23.13 6.21-4.213 6.244-5.692.131-5.737-10.03-.073-47.996-7.175-69.5-13.001-30.723-8.323-54.692-17.413-84.5-32.043-53.91-26.46-99.789-61.11-141.048-106.52-10.96-12.065-25.904-30.74-34.362-42.944-4.317-6.23-6.754-8.895-7.914-8.657-4.36.894-30.547 16.034-47.176 27.276-18.6 12.574-32.43 24.122-50.05 41.787-39.154 39.255-60.238 79.25-58.759 111.46.354 7.704.92 10.173 3.613 15.773 19.43 40.4 117.556 62.91 252.196 57.853m667-.999c54.997-3.795 97.728-12.608 125.5-25.883 13.665-6.531 20.904-11.333 28.118-18.651 14.38-14.587 16.501-32.078 7.27-59.931-17.148-51.743-71.538-107.233-141.19-144.047-5.941-3.14-10.92-5.546-11.063-5.346s-2.447 3.515-5.12 7.365c-18.519 26.673-46.904 58.848-69.515 78.794-35.36 31.193-66.649 52.467-106.118 72.153-46.473 23.18-99.954 39.38-147.382 44.646-6.05.672-11.649 1.554-12.442 1.961-1.74.894 7.765 7.317 18.469 12.48 40.176 19.382 127.058 33.656 230.473 37.868 14.017.571 67.459-.336 83-1.409m-351.5-67.128c59.486-3.693 116.404-18.744 169.02-44.693 65.292-32.202 118.76-76.62 162.352-134.876 10.526-14.067 26.99-39.05 27.817-42.212.305-1.168-.667-2.023-3.38-2.97-10.936-3.82-22.309-12.575-22.309-17.174 0-2.875 3.898-4.016 10.2-2.986 2.915.477 12.275 2.68 20.8 4.896 19.697 5.12 31.891 6.616 47.415 5.814 41.393-2.136 69.242-25.155 82.467-68.164 4.766-15.499 6.43-27.638 6.512-47.5.137-33.001-6.342-62.41-20.946-95.069-14.015-31.341-38.084-62.691-63.182-82.293-2.896-2.261-5.266-4.826-5.266-5.7 0-2.72-7.914-33.868-11.673-45.938-41.618-133.664-145.268-241.34-277.627-288.414-124.26-44.192-263.772-30.533-376.612 36.874-23.74 14.182-44.267 29.066-65.463 47.467-16.55 14.368-24.862 20.863-30.765 24.038-6.068 3.265-8.765 3.73-10.66 1.835-3.235-3.235-.038-10.556 9.27-21.23l6.36-7.292-9.165-7.968c-29.68-25.802-58.247-41.992-86.604-49.08-14.165-3.54-36.22-3.745-48.26-.447-43.31 11.863-73.773 53.588-82.442 112.916-2.324 15.907-2.312 46.438.024 62.8 8.613 60.31 33.658 111.455 77.826 158.924l7.373 7.924 2.96-5.924c2.419-4.843 3.464-5.981 5.73-6.242 2.384-.274 3 .218 4.39 3.5 1.355 3.2 1.554 6.982 1.228 23.319-.72 36.056-.306 72.418.95 83.5 4.232 37.298 9.59 62.44 20.298 95.26 22.128 67.814 59.773 128.445 111.031 178.825 58.013 57.019 126.312 95.7 203.514 115.26 30.147 7.639 49.28 10.532 89.317 13.51 8.54.634 33.542.377 47.5-.49m-35.57-363.17c-20.297-5.748-37.648-33.466-39.611-63.278-1.028-15.613 2.452-23.925 12.93-30.88 12.435-8.257 33.94-11.71 50.751-8.153 15.773 3.339 29.433 13.11 32.098 22.959 1.486 5.49.59 24.436-1.515 32.043-8.028 29.016-24.066 46.688-43.682 48.132-3.712.273-8.32-.073-10.971-.824m19.828-11.262c2.863-1.427 7.573-5.184 10.608-8.461 5.684-6.14 12.634-18.55 12.634-22.562 0-3.83-9.468-12.599-16.464-15.248-11.807-4.47-28.271-3.864-38.712 1.427-4.97 2.518-12.407 9.524-13.387 12.609-.331 1.045.944 4.838 3.028 9.004 8.525 17.04 18.95 25.677 31.089 25.758 4.552.03 7.331-.597 11.204-2.527m-42.606-45.88c16-14.385 48.348-13.842 64.874 1.09 3.578 3.23 4.024 3.394 4.684 1.714.401-1.021.743-6.6.76-12.397.035-11.988-.77-13.993-7.61-18.948-18.871-13.67-57.002-10.52-67.846 5.605-2.14 3.18-2.487 4.827-2.487 11.79 0 7.985 1.035 15.593 2.122 15.593.306 0 2.783-2.001 5.503-4.447"/><path d="M901.397 1751.741c-17.226-1.142-34.724 16.305-43.799 51.225-11.344 43.656-11.363 125.443-.04 169.022 18.082 69.595 71.171 71.771 86.89-13.76 6.468-35.197 8.234-101.136-.887-146.184-7.984-39.43-24.938-59.16-42.164-60.303m-2.15 13.756c5.929-.076 11.914 2.283 16.47 7.096 19.696 20.802 17.254 92.404-9.626 99.871-8.322 2.312-15.386.455-21.729-5.709-18.338-17.823-18.587-73.99-1.242-93.744 4.326-4.927 10.198-7.438 16.127-7.514m-34.432 154.469 4.424 6c17.054 23.13 48.613 19.6 62.547-2.5 2.717-4.31 2.747-3.802.773 13.006-11.397 97.038-57.192 93.697-67.074-9.506zm234.845-168.225c17.227-1.142 34.725 16.305 43.8 51.225 11.344 43.656 11.363 125.443.04 169.022-18.082 69.595-71.171 71.771-86.89-13.76-6.468-35.197-8.234-101.136.887-146.184 7.984-39.43 24.938-59.16 42.164-60.303m2.151 13.756c-5.929-.076-11.914 2.283-16.47 7.096-19.696 20.802-17.254 92.404 9.626 99.871 8.322 2.312 15.386.455 21.729-5.709 18.338-17.823 18.587-73.99 1.242-93.744-4.326-4.927-10.198-7.438-16.127-7.514m34.432 154.469-4.424 6c-17.054 23.13-48.613 19.6-62.547-2.5-2.717-4.31-2.747-3.802-.773 13.006 11.397 97.038 57.192 93.697 67.074-9.506z"/><g transform="translate(425.49 1556.049)"><path fill="url(#p)" d="M-12.585 1679.918c-43.543 52.56-37.105 177.685 48.117 250.895l55.99-144.4c-51.987 6.192-75.734-55.342-104.107-106.495" transform="rotate(3.464 29618.398 2677.473)scale(1.13394)"/><circle cx="144.718" cy="210.628" r="137.031" fill="url(#q)"/></g><path fill="url(#r)" d="M-220.826 2066.447c2.54 3.204 7.62 9.614 15.225 23.495 7.606 13.881 17.832 35.432 22.296 61.333 4.465 25.9 3.215 56.249-5.948 78.415s-26.24 36.15-46.322 43.065-43.171 6.762-67.856-2.714c-48.387-19.783-142.218-249.803 82.605-203.594" transform="translate(1691.79 -43.56)"/><path fill="#fff7ff" stroke="#ad0a6e" stroke-width="14.164" d="M288.739 1113.104c-56.118 0-112.239 21.506-155.24 64.508-86.003 86.003-86.003 224.478 0 310.482l23.283 23.283 296.123 296.113a20.32 20.32 0 0 0 28.735 0l319.398-319.397c86.003-86.003 86.003-224.478 0-310.481s-224.479-86.004-310.482 0l-23.284 23.283-23.291-23.283c-43.002-43.002-99.122-64.509-155.241-64.509z"/><path fill="#fba6d5" d="M311.928 1158.593c-48.828 0-97.657 18.712-135.072 56.127-74.83 74.83-74.83 195.315 0 270.145l20.259 20.258 257.651 257.643a17.68 17.68 0 0 0 25.002 0l277.902-277.902c74.83-74.83 74.83-195.314 0-270.144s-195.315-74.83-270.145 0l-20.258 20.258L447 1214.72c-37.415-37.415-86.244-56.128-135.072-56.128z"/><path fill="#fefefd" d="M725.088 1275.787a91.275 101.863 9.661 0 1-107.076 85.1 91.275 101.863 9.661 0 1-72.885-115.737 91.275 101.863 9.661 0 1 107.076-85.1 91.275 101.863 9.661 0 1 72.885 115.737"/><path fill="#fc78ab" d="M336.669 1207.115c-41.052 0-82.106 15.731-113.562 47.188-62.913 62.912-62.913 164.21 0 227.123l17.033 17.031 216.62 216.612a14.866 14.866 0 0 0 21.02 0l216.61-216.612 17.033-17.03c49.838-49.838 60.196-123.76 31.075-183.61a132.76 132.76 0 0 1-125.432 89.25A132.765 132.765 0 0 1 484.3 1254.304l-17.032 17.033-17.039-17.033c-31.456-31.457-72.51-47.188-113.561-47.188"/><path fill="#fefefd" d="M563.04 1424.196a34.49 33.606 0 0 1-34.49 33.605 34.49 33.606 0 0 1-34.49-33.605 34.49 33.606 0 0 1 34.49-33.605 34.49 33.606 0 0 1 34.49 33.605m-151.923 152.186a11.873 11.569 0 0 1-11.873 11.57 11.873 11.569 0 0 1-11.874-11.57 11.873 11.569 0 0 1 11.874-11.569 11.873 11.569 0 0 1 11.873 11.57m-.084 63.784a29.183 28.435 0 0 1-29.183 28.435 29.183 28.435 0 0 1-29.183-28.435 29.183 28.435 0 0 1 29.183-28.435 29.183 28.435 0 0 1 29.183 28.435"/><path fill="url(#s)" d="M-1270.816 397.87c-56.03 56.03-90.59 133.534-90.59 219.402 0 171.736 138.258 309.994 309.994 309.994h46.494l591.305-.01a28.69 28.69 135 0 0 28.69-28.69v-637.79c0-171.736-138.257-309.994-309.993-309.994S-1004.91 89.04-1004.91 260.776v46.494l-46.502.008c-85.868 0-163.373 34.559-219.404 90.59z" transform="rotate(45 -1418.896 2200.572)scale(.73862)"/><text xml:space="preserve" x="476.787" y="557.745" fill="#5ea6f1" stroke-width="32.886" font-family="Ruigslay" font-size="368.98" font-weight="400" style="-inkscape-font-specification:Ruigslay;text-align:start"><tspan x="476.787" y="557.745" fill="#fff">Poyo!</tspan></text><text xml:space="preserve" x="353.068" y="2849.332" stroke-width="18.229" font-family="Ruigslay" font-size="204.531" font-weight="400" style="-inkscape-font-specification:Ruigslay;text-align:start"><tspan x="353.068" y="2849.332">Translation:</tspan></text><text xml:space="preserve" x="362.654" y="3041.878" stroke-width="15.189" font-family="Ruigslay" font-size="170.419" font-weight="400" style="-inkscape-font-specification:Ruigslay;text-align:start"><tspan x="362.654" y="3041.878">You&apos;re doing a</tspan><tspan x="362.654" y="3254.902">good job, Auri!</tspan></text></svg>