<svg xmlns="http://www.w3.org/2000/svg" xml:space="preserve" width="1000" height="500"><g transform="translate(-84.671 -435.91)scale(.62794)"><path d="M931.092 782.586c-59.462-.079-114.673.185-131.758.671-36.82 1.05-37.45.07-39.283 2.686-1.174 1.676-.162 5.582-.162 5.582-107.022 1.488-259.367 11.024-328.957 18.893-103.353 11.686-141.482 31.253-158.868 81.523-10.034 29.014-11.029 51.488-10.398 235.047.49 142.327.586 147.021 3.25 158.666 21.016 91.868 100.312 111.202 138.022 115.156 6.068.637 243.515 1.196 528.154 1.246 284.639-.05 522.085-.61 528.154-1.246 37.71-3.954 117.006-23.288 138.022-115.156 2.664-11.645 2.76-16.339 3.25-158.666.63-183.56-.365-206.033-10.399-235.047-17.385-50.27-55.515-69.837-158.867-81.523-69.59-7.87-221.935-17.405-328.957-18.893 0 0 1.012-3.906-.162-5.582-1.833-2.617-2.464-1.636-39.283-2.686-17.086-.486-72.296-.75-131.758-.671" style="fill:#000;fill-opacity:1"/><circle cx="931.092" cy="1066.011" r="43.116" style="font-variation-settings:normal;vector-effect:none;fill:#dfdfe7;fill-opacity:1;fill-rule:evenodd;stroke-width:86.2024;stroke-linecap:butt;stroke-linejoin:miter;stroke-miterlimit:4;stroke-dasharray:none;stroke-dashoffset:0;stroke-opacity:1;-inkscape-stroke:none;stop-color:#000"/><path d="M461.804 1087.408a17.415 17.415 0 0 0-17.458 17.463v46.844a6.15 6.15 0 0 1-6.155 6.155h-46.844a17.415 17.415 0 0 0-17.46 17.456v45.576a17.415 17.415 0 0 0 17.46 17.456h46.844a6.15 6.15 0 0 1 6.155 6.153v46.846a17.415 17.415 0 0 0 17.458 17.46h45.58a17.415 17.415 0 0 0 17.454-17.46v-46.846a6.15 6.15 0 0 1 6.152-6.153h46.853a17.415 17.415 0 0 0 17.452-17.456v-45.576a17.415 17.415 0 0 0-17.454-17.456h-46.853a6.15 6.15 0 0 1-6.155-6.155v-46.846a17.415 17.415 0 0 0-17.45-17.458z" style="fill:#dfdfe7;fill-opacity:1;fill-rule:evenodd;stroke:none;stroke-width:7.40389;stroke-miterlimit:7;paint-order:stroke markers fill"/><rect width="98.872" height="36.058" x="801.289" y="1235.297" ry="18.03" style="fill:#dfdfe7;fill-opacity:1;stroke-width:61.5801;stroke-linecap:round;stroke-linejoin:round"/><rect width="98.872" height="36.058" x="-1060.894" y="1235.297" ry="18.03" style="fill:#dfdfe7;fill-opacity:1;stroke-width:61.5801;stroke-linecap:round;stroke-linejoin:round" transform="scale(-1 1)"/><circle cx="1239.159" cy="1253.236" r="55.581" style="font-variation-settings:normal;vector-effect:none;fill:#dfdfe7;fill-opacity:1;fill-rule:evenodd;stroke-width:111.125;stroke-linecap:butt;stroke-linejoin:miter;stroke-miterlimit:4;stroke-dasharray:none;stroke-dashoffset:0;stroke-opacity:1;-inkscape-stroke:none;stop-color:#000"/><circle cx="1405.103" cy="1253.236" r="55.581" style="font-variation-settings:normal;vector-effect:none;fill:#dfdfe7;fill-opacity:1;fill-rule:evenodd;stroke-width:111.125;stroke-linecap:butt;stroke-linejoin:miter;stroke-miterlimit:4;stroke-dasharray:none;stroke-dashoffset:0;stroke-opacity:1;-inkscape-stroke:none;stop-color:#000"/><circle cx="1239.159" cy="1087.782" r="55.581" style="font-variation-settings:normal;vector-effect:none;fill:#dfdfe7;fill-opacity:1;fill-rule:evenodd;stroke-width:111.125;stroke-linecap:butt;stroke-linejoin:miter;stroke-miterlimit:4;stroke-dasharray:none;stroke-dashoffset:0;stroke-opacity:1;-inkscape-stroke:none;stop-color:#000"/><circle cx="1405.103" cy="1087.782" r="55.581" style="font-variation-settings:normal;vector-effect:none;fill:#dfdfe7;fill-opacity:1;fill-rule:evenodd;stroke-width:111.125;stroke-linecap:butt;stroke-linejoin:miter;stroke-miterlimit:4;stroke-dasharray:none;stroke-dashoffset:0;stroke-opacity:1;-inkscape-stroke:none;stop-color:#000"/></g></svg>