<svg xmlns="http://www.w3.org/2000/svg" xml:space="preserve" width="1600" height="1800"><path d="M309.713 529.543c-1.661 0-3.266.602-5.186 1.521-1.92.92-4.097 2.214-6.49 3.829-4.786 3.229-10.42 7.741-16.174 13.033-4.593 4.225-7.397 6.399-8.73 6.914-.667.257-.808.22-1.123.098-.316-.122-.887-.527-1.672-1.336-2.879-2.97-7.12-4.02-11.832-3.276-2.22.351-4.024.815-5.504 2.102s-2.352 3.014-3.516 5.566c-1.85 4.058-6.517 16.446-7.812 20.729-.157.52-.236 1.388.074 2.138s.815 1.224 1.332 1.621c1.035.796 2.41 1.487 4.787 2.672 8.941 4.457 13.794 9.43 16.944 17.18 1.822 4.484 2.423 9.67 2.013 13.307-.204 1.818-.696 3.234-1.133 3.875-.436.64-.304.561-.712.459-.216-.055-.608-.226-1.418-1.635s-1.84-3.859-3.172-7.578c-1.221-3.408-2.608-6.977-3.381-8.506-1.819-3.597-5.935-6.967-10.332-9.018-2.847-1.327-4.718-1.64-8.463-1.4-9.355.6-16.58 6.107-21.766 16.19-4.96 9.642-7.233 19.628-7.258 31.693-.024 11.949 2.357 20.49 7.832 25.965 2.794 2.793 6.875 5.106 10.65 6.007 6.168 1.473 13.655.12 20.704-3.43 2.64-1.329 5.51-3.17 7.895-4.958 1.192-.894 2.26-1.77 3.126-2.588.867-.82 1.536-1.453 2.016-2.506.689-1.512 3.817-2.33 5.473-1.16 2.706 1.912 7.425 3.45 13.336 4.951 5.91 1.5 12.86 2.787 19.353 3.47 11.679 1.23 51.886 1.803 66.549.981 20.01-1.122 34.65-3.794 43.63-8.283 2.93-1.464 4.238-1.853 4.884-1.742s1.782.926 4.103 3.289c4.601 4.684 9.707 8.023 16.018 10.488 3.48 1.36 5.727 1.738 10.445 1.772 5.052.035 6.845-.302 10.227-1.864a22.28 22.28 0 0 0 10.98-11.17c4.795-10.842 4.512-28.023-.29-42.359-2.5-7.46-5.22-12.347-9.49-16.916-4.664-4.993-9.53-7.418-15.866-7.832-3.985-.26-5.64.065-9.127 1.781-6.23 3.067-9.541 7.18-12.358 15.194-1.844 5.247-3.222 8.486-4.232 10.029-.505.771-.883 1.064-1.02 1.135s-.1.085-.433.002c-.245-.062-.645-.334-1.057-1.446s-.672-2.866-.642-4.91c.058-4.087 1.222-9.336 3.404-13.695 3.304-6.603 7.812-10.954 15.234-14.608l5.967-2.937a2.116 2.116 0 0 0 1.104-2.469l-.993-3.543c-1.575-5.63-5.818-15.036-10.1-23.408-2.14-4.186-4.282-8.078-6.113-11.047-.915-1.484-1.747-2.734-2.5-3.71-.752-.978-1.102-1.719-2.523-2.264-.92-.353-2.154-.487-3.227.046-1.072.534-1.694 1.48-2.117 2.47-.845 1.977-1.197 4.622-1.531 8.67-.322 3.902-1.081 6.188-1.578 6.798-.249.305-.277.305-.563.332s-.91-.056-1.824-.441c.114.048-.395-.224-.965-.627s-1.306-.96-2.138-1.618a133 133 0 0 1-5.721-4.826c-7.92-7.056-14.112-11.832-19.098-14.549-2.492-1.358-4.69-2.217-6.756-2.507-2.064-.291-4.076.06-5.654 1.166-2.38 1.667-3.72 4.566-4.603 8.054-.885 3.489-1.219 7.65-.899 12 .224 3.04 1.051 8.992 1.865 13.541.926 5.171 1.371 8.348 1.39 10.102.008.877-.095 1.363-.167 1.553s-.044.148-.209.263c-.386.27-.621.384-.719.422.005-.009-.637-.372-1.767-1.56-2.127-2.236-4.88-8.664-6.532-16.803-.7-3.453-1.25-5.7-2.103-7.461-.853-1.76-2.271-2.997-3.797-3.61-1.912-.768-4.297-.822-6.984-.816s-5.266.15-7.192.807c-1.511.516-3.118 1.431-3.986 3.088-.868 1.656-1.27 3.68-2.004 7.273-1.489 7.282-2.516 10.448-4.693 14.598-1.264 2.408-2.574 3.87-3.336 4.342-.381.235-.555.237-.63.23-.073-.007-.168-.009-.44-.281.104.104-.338-.617-.25-2.887.087-2.27.558-5.831 1.447-11.02 1.02-5.958 1.51-11.483 1.46-16.158-.048-4.674-.564-8.465-1.921-11.232-1.732-3.531-4.812-5.756-8.42-5.756" style="fill:#e6be9a;fill-rule:evenodd;stroke-width:11.8409;stroke-linecap:round;stroke-linejoin:round;stroke-miterlimit:7;paint-order:stroke markers fill" transform="translate(14.971 -36.657)scale(2.48683)"/><path d="M347.287 328.44c-4.21-.153-8.385-.135-12.908.035-19.965.748-32.621 3.473-54.969 11.812-6.24 2.328-14.217 5.22-17.586 6.375l-6.28 2.152a3.336 3.336 0 0 0-1.216 5.57l4.79 4.555v.002c6.18 5.876 7.4 8.527 7.013 14.594-.265 4.156-.352 4.414-2.65 7.614-5.241 7.295-18.164 14.169-32.315 16.253-5.486.808-8.203 1.134-10.424 1.932-1.11.399-2.293 1.11-3.043 2.152s-.933 1.972-1.103 2.65c.067-.27-.35.72-1.13 1.721s-1.87 2.2-3.05 3.348c-2.358 2.295-5.471 4.43-6.104 4.658-.765.277-1.479.52-2.298 1-.82.48-1.704 1.318-2.23 2.246-1.055 1.858-1.16 3.5-1.618 6.393-2.662 16.839-10.472 31.019-18.162 35.707-3.16 1.927-5.309 4.509-7.043 8.326-3.19 7.022-4.954 15.272-4.957 23.11-.005 12.179 3.995 21.837 12.558 30.267 13.683 13.47 34.994 20.117 68.86 22.408 6.35.43 11.846.536 16.248.32 4.402-.215 7.536-.522 10.154-1.906 1.162-.613 2.406-1.518 4.344-2.902a279 279 0 0 0 6.623-4.894c10.277-7.826 17.952-11.353 23.031-11.395 2.54-.021 4.49.651 6.457 2.19 1.968 1.538 3.918 4.062 5.758 7.716l2.895 5.748a3.34 3.34 0 0 0 2.978 1.836h19.307a3.34 3.34 0 0 0 3.043-1.97l2.353-5.248c2.815-6.274 6.55-9.188 11.301-9.858s11.072 1.166 18.379 6.332l3.535 2.5a3.34 3.34 0 0 0 2.447.572l12.979-2.052c32.555-5.148 57.214-13.439 75.652-25.707 18.37-12.223 25.943-26.416 24.815-46.793-.524-9.456-1.588-14.839-5.785-29.34l-2.582-8.922a3.336 3.336 0 0 0-4.28-2.229l-3.75 1.278c-5.707 1.944-13.473-.616-22.316-9.014-5.877-5.581-8.48-9.263-13.24-18.795-1.846-3.694-2.724-5.661-4.227-7.344-.751-.84-1.78-1.553-2.764-1.93-.984-.376-1.826-.498-2.7-.642-3.74-.615-8.414-2.981-12.278-6.488l-3.477-3.154a3.34 3.34 0 0 0-2.754-.825l-7.535 1.174c-16.39 2.551-32.785-1.55-39.523-8.554-2.792-2.902-3.907-5.203-4.05-7.999-.141-2.795.856-6.442 3.429-11.44 1.033-2.01 1.923-3.419 2.57-4.976.323-.778.66-1.653.57-2.912s-.968-2.713-1.925-3.406c-1.915-1.386-3.556-1.417-6.098-1.742s-5.943-.631-10.608-1.133c-4.658-.501-8.9-.824-13.11-.976" style="fill:#e6be9a;fill-rule:evenodd;stroke-width:16.7456;stroke-linecap:round;stroke-linejoin:round;stroke-miterlimit:7;paint-order:stroke markers fill" transform="translate(14.971 -36.657)scale(2.48683)"/><path d="M194.564 347.008a2.7 2.7 0 0 0-1.382.287c-.565.278-.682.463-.801.586-.238.246-.293.343-.383.469-.18.251-.376.55-.71 1.068a1059 1059 0 0 0-9.122 14.494 503 503 0 0 0-2.033 3.318 92 92 0 0 0-.84 1.413c-.059.105-.04-.034-.25.513-.052.136-.185.2-.215 1.014a2.73 2.73 0 0 0 .818 2.096c.802.803 1.88.863 2.352.802.946-.12.99-.306 1.148-.396.16-.09.26-.159.372-.233a16.5 16.5 0 0 1 2.408-1.316c.7-.302 1.345-.379 1.072-.377 1.424-.008 2.926-.743 3.865-1.766s1.509-2.225 2.018-3.65c.506-1.417.786-2.382 2.357-8.19a159 159 0 0 1 1.309-4.55c.172-.551.321-1.057.432-1.457.055-.2.098-.368.138-.543.02-.087.04-.166.065-.32.012-.078.028-.163.035-.377.003-.107.01-.243-.031-.514a8 8 0 0 0-.145-.559l-.64-.996c-.415-.414-1.184-.783-1.837-.816" style="fill:#e6be9a;fill-rule:evenodd;stroke-width:2.96024;stroke-linecap:round;stroke-linejoin:round;stroke-miterlimit:7;paint-order:stroke markers fill" transform="translate(14.971 -36.657)scale(2.48683)"/><path d="M437.68 290.18c-.163.02-.568.167-.569.168l-.584.46c-.433.52-.284.462-.322.553-.037.092-.066.174-.1.268a22 22 0 0 0-.228.684c-.172.54-.384 1.245-.602 2.001-1.667 5.787-3.663 9.834-5.171 11.387v.002l-1.194 1.23a1.78 1.78 0 0 0-.09 2.378l1.783 2.138c2.776 3.328 5.14 6.767 8.475 12.358 3.495 5.858 4.613 7.77 6.36 8.85.391.241.96.51 1.55.59s1.088.032 1.783-.03c2.071-.185 6.227 1.04 9.758 2.941 3.532 1.9 6.486 4.677 6.912 5.85.314.862.784 1.704 1.559 2.297.775.592 1.684.831 2.625.953.903.116 2.151.11 3.62.074 1.467-.036 3.04-.12 4.24-.252l.001-.002 1.19-.13a1.78 1.78 0 0 0 1.224-2.84l-1.578-2.092c-.717-.95-4.378-6.304-7.855-11.532-8.374-12.586-11.936-17.416-17.81-24.144-1.506-1.724-4.796-5.14-7.788-8.162a257 257 0 0 0-3.969-3.938c-.53-.512-.97-.927-1.31-1.23a8 8 0 0 0-.463-.39c-.078-.06-.146-.118-.318-.214-.086-.048-.183-.114-.465-.185a1.6 1.6 0 0 0-.664-.041" style="fill:#e6be9a;fill-opacity:1;fill-rule:evenodd;stroke:none;stroke-width:4.18641;stroke-linecap:round;stroke-linejoin:round;stroke-miterlimit:7;stroke-opacity:1;paint-order:stroke markers fill" transform="translate(14.971 -36.657)scale(2.48683)"/><path d="M329.158 296.54a2.68 2.68 0 0 0-3.09.218l-1.869 1.531h-.002c-.893.732-1.636 1.295-2.226 2.37-.59 1.073-.627 2.17-.627 3.112 0 .889.052 1.77.414 2.694.361.924.995 1.66 1.597 2.219 2.194 2.036 6.08 4.28 10.43 6.54 4.35 2.262 8.917 4.33 12.215 5.278 2.816.81 6.496 1.35 11.81 1.812 4.15.362 10.148 1.007 13.165 1.415 3.75.506 6.306.782 8.265.814s3.529-.14 4.887-1.092c.488-.342 1.067-.42 1.619-1.846.276-.712.171-1.927-.228-2.584-.4-.656-.795-.892-1.075-1.072-1.39-.893-3.09-1.459-5.632-2.33a156 156 0 0 0-8.875-2.715c-15.704-4.32-30.458-10.106-38.356-14.896z" style="fill:#e6be9a;fill-rule:evenodd;stroke-width:8.37281;stroke-linecap:round;stroke-linejoin:round;stroke-miterlimit:7;paint-order:stroke markers fill" transform="translate(14.971 -36.657)scale(2.48683)"/><path d="M297.957 302.5c-.752-.091-1.675-.109-2.64.174s-1.92.795-3.137 1.61c-2.434 1.627-6.029 4.552-12.692 10.029-2.383 1.958-8.307 6.623-13.08 10.296-4.794 3.69-10.152 7.868-11.994 9.358a91 91 0 0 0-5.594 4.945 41 41 0 0 0-2.021 2.06 10 10 0 0 0-.678.823c-.098.135-.19.27-.289.46-.1.192-.27.391-.27 1.038 0 1.496 1.283 2.305 2.395 2.305.981 0 1.205-.21 1.88-.45a49 49 0 0 0 2.483-.974c1.948-.816 4.447-1.947 7.149-3.242 7.837-3.758 13.95-6.265 23.279-9.551 2.617-.922 6.296-2.434 8.426-3.469l3.64-1.77a1.9 1.9 0 0 0 .77-.677l1.58-2.432h-.002c2.021-3.108 5.987-10.004 7.424-12.928.404-.821.677-1.398.85-2.048s.144-1.652-.276-2.325c-.594-.95-1.008-.992-1.533-1.28a17 17 0 0 0-1.77-.825c-1.286-.52-2.653-.976-3.9-1.127" style="fill:#e6be9a;fill-rule:evenodd;stroke-width:5.92047;stroke-linecap:round;stroke-linejoin:round;stroke-miterlimit:7;paint-order:stroke markers fill" transform="translate(14.971 -36.657)scale(2.48683)"/><path d="M197.08 101.357c-5.83.048-11.588.434-16.156 1.215-18.74 3.204-34.652 11.328-47.95 24.51-5.707 5.658-6.943 7.383-10.7 15.002-5.334 10.813-7.401 18.575-7.46 28.402-.064 10.794 2.462 19.443 8.323 28.508 11.02 17.046 32.574 28.86 55.4 30.928 4.384.397 6.656.021 11.41-2.01 7.394-3.159 11.733-3.839 22.713-3.47 7.197.24 10.464.621 15.244 1.744 16.253 3.816 33.986 11.285 52.15 22.056a304 304 0 0 0 4.759 2.77q.952.542 1.582.88c.209.113.385.206.578.3.096.046.19.09.351.158.162.067-.136.272 1.47.328 1.572.055 1.614-.247 1.911-.371s.51-.236.73-.356a14 14 0 0 0 1.311-.818c.133-.093 2.24-1.175 4.338-1.983 2.097-.807 4.47-1.561 5.824-1.855.93-.202 5.055-.58 7.842-.568l5.566.021a4.03 4.03 0 0 0 4.041-4.264l-.384-6.648c-1.184-20.433-8.272-43.876-20.127-67.229-8.17-16.092-26.125-37.621-39.61-47.244-13.704-9.779-30.535-16.65-46.765-19.06-4.716-.7-10.562-.993-16.39-.946" style="fill:#e6be9a;fill-rule:evenodd;stroke-width:11.8409;stroke-linecap:round;stroke-linejoin:round;stroke-miterlimit:7;paint-order:stroke markers fill" transform="translate(14.971 -36.657)scale(2.48683)"/><path d="M392.56 79.936c-12.976-.654-26.81 2.393-40.658 8.888-16.471 7.726-35.016 27.347-44.382 46.162-1.977 3.972-3.764 7.975-5.09 11.327-.663 1.675-1.21 3.182-1.618 4.501s-.761 2.17-.761 3.907c0 1.835.36 2.637.785 4.086.426 1.448 1.004 3.165 1.709 5.105 1.41 3.88 3.322 8.633 5.432 13.426 3.743 8.506 7.257 17.956 9.806 26.031 2.55 8.076 4.037 15.287 4.037 17.195 0 1.005-.295 1.877.65 3.915.474 1.018 1.772 2.439 3.317 2.902s2.723.164 3.527-.102c3.217-1.061 4.717-2.703 8.872-5.857 11.435-8.683 28.504-15.46 47.164-18.422 9.071-1.44 17.828-2.887 20.353-3.402 3.648-.745 5.542-2.625 8.498-5.055s6.253-5.533 9.51-8.877c6.514-6.688 12.689-13.784 15.387-19.562 8.98-19.234 9.567-39.851 1.224-57.137-5.277-10.933-13.194-18.212-25.605-23.801-6.898-3.106-14.37-4.838-22.156-5.23" style="fill:#e6be9a;fill-rule:evenodd;stroke-width:33.4912;stroke-linecap:round;stroke-linejoin:round;stroke-miterlimit:7;paint-order:stroke markers fill" transform="translate(14.971 -36.657)scale(2.48683)"/><path d="M406.842 204.621c-15.444-.68-37.678 5.573-50.96 14.29-10.917 7.164-21.792 18.145-29.878 30.107-1.402 2.073-2.342 3.645-2.856 5.373-.513 1.727-.483 3.44-.228 5.355.157 1.184.263 2.114.555 3.065.292.95 1.132 2.31 2.513 2.697 1.382.386 2.354-.013 3.366-.406 1.01-.394 2.138-.95 3.61-1.672 4.851-2.381 7.634-3.396 10.79-4 4.238-.811 7.37-.3 9.875 1.306 1.254.805 1.918 1.54 2.187 2.05.27.508.309.803.108 1.474-.19.633-.301.73-.824.92-.524.19-1.626.277-3.237-.078-2.376-.526-3.62-.815-4.808-.914-1.189-.1-2.165.075-3.307.308-3.34.681-6.928 2.574-12.621 6.318l-4.451 2.928a2.4 2.4 0 0 0-1.065 2.281l.172 1.48.002.003c.5 4.254.815 6.774 1.121 8.437.306 1.664.609 2.867 1.696 3.75 1.957 1.591 5.067 3.226 9.095 5.102s8.904 3.899 14.022 5.844c10.236 3.89 21.358 7.46 28.676 8.826 3.248.606 6.138.56 8.539-.602.776-.375 1.34-.817 2.117-1.416a40 40 0 0 0 2.424-2.029c1.376-1.25 3.459-2.854 3.957-3.154 6.384-3.853 13.483-4.009 23.882-.06l1.961.745a2.4 2.4 0 0 0 3.024-1.218l1.209-2.565c2.075-4.4 3.275-9.887 4.234-18.568 1.545-13.977 1.561-32.715-.002-44.393-.883-6.6-2.824-12.979-5.363-18.201s-5.562-9.364-9.393-11.305c-2.613-1.324-5.597-1.878-10.142-2.078m-100.488 47.174c-2.315.152-4.429.594-6.21 1.303-1.78.708-3.293 1.652-4.199 3.185-.888 1.504-1.207 3.335-1.427 5.604s-.25 4.934-.116 7.783c.268 5.697 1.184 12.099 2.713 17.262 1.54 5.198 3.476 8.446 6.682 9.867 2.172.962 4.604.533 8.558-.463 2.484-.626 4.17-1.12 5.545-2.203 1.377-1.084 2.007-2.706 2.325-4.4.357-1.908.282-4.518.045-7.745-.238-3.226-.683-6.969-1.245-10.656-.561-3.687-1.238-7.313-1.949-10.309-.71-2.995-1.288-5.207-2.33-6.796-.85-1.299-2.155-1.809-3.56-2.135-1.406-.327-3.029-.416-4.832-.297" style="fill:#bfe2f5;fill-opacity:1;fill-rule:evenodd;stroke:none;stroke-width:5.92047;stroke-linecap:round;stroke-linejoin:round;stroke-miterlimit:7;stroke-opacity:1;paint-order:stroke markers fill" transform="translate(14.971 -36.657)scale(2.48683)"/><path d="M217.629 225.324a127 127 0 0 0-8.203.045c-9.6.345-16.451 1.745-22.961 5.057-6.267 3.188-10.629 7.77-14.01 13.68-9.332 16.31-6.464 39.58 3.354 64.02 5.067 12.617 10.642 23.215 17.087 29.88v.002l2.438 2.52a8.65 8.65 0 0 0 12.23.202l3.278-3.17c4.077-3.943 3.51-3.604 7.46-4.94 4.34-1.47 10.997.086 14.25 3.339a43 43 0 0 0 2.165 2.033c.346.301.667.575 1.14.924.237.175.49.365 1.008.664s.498 1.207 4.444 1.207c2.828 0 3-.522 3.433-.707s.633-.297.803-.39c.34-.187.5-.293.66-.395.32-.204.569-.375.861-.578a108 108 0 0 0 2.143-1.54 448 448 0 0 0 6.363-4.76c10.453-7.952 19.564-15.212 26.373-20.978 3.405-2.882 6.226-5.381 8.43-7.494s3.536-2.834 5.371-6.382c.66-1.277 1.713-4.572 1.596-7.002s-.57-4.14-1.233-7.14v-.001l-.605-2.74a8.65 8.65 0 0 0-4.512-5.535c.294-.415.804-.907.992-1.21.898-1.442 1.265-2.546 1.604-3.683.677-2.274 1.012-4.588 1.016-7.168v-.002c.004-2.62-1.745-7.687-4.374-10.129s-5.24-3.812-9.48-6.191c-17.797-9.989-39.888-18.348-56.367-20.9-2.034-.316-4.235-.463-6.754-.538" style="fill:#bfe2f5;fill-opacity:1;fill-rule:evenodd;stroke:none;stroke-width:11.8409;stroke-linecap:round;stroke-linejoin:round;stroke-miterlimit:7;stroke-opacity:1;paint-order:stroke markers fill" transform="translate(14.971 -36.657)scale(2.48683)"/><path d="M385.734 72.432c-25.397.274-50.96 13.56-70.79 38.15-6.908 8.565-15.046 22.856-18.233 32.018l-1.6 4.6-3.222-3.835c-15.903-18.92-28.914-29.986-43.739-37.2-88.33-42.989-160.04 35.309-132.332 90.991 10.27 20.639 23.991 29.985 42.467 34.248 9.53 2.2 25.453 2.413 35.23 1.967 32.916-1.5 60.5 2.315 92.249 23.785 5.499-.276 43.492-10.617 46.052-12.338 8.452-10.947 13.922-16.233 24.19-23.37 12.643-8.79 35.314-16.381 49.874-16.214 4.853.056 13.056-5.853 13.056-5.853l9.455-8.756c46.606-43.178 24.26-118.917-42.657-118.193m.368 11.146c24.422-.973 46.263 10.435 53.742 32.58 14.906 44.14-28.294 81.107-40.258 82.281-62.497 6.137-70.28 50.515-73.777 21.575-2.137-16.34-12.01-40.44-18.038-52.457-4.894-9.758-5.133-10.766-3.642-15.334 14.904-45.675 50.572-67.393 81.973-68.645m-188.483 21.26c13.772-.024 27.776 2.71 40.381 8.201 18.994 8.275 31.277 18.507 46.77 38.961 8.366 11.046 9.1 12.23 14.072 22.666 10.006 21.006 16.513 43.447 17.375 59.912l.449 8.578c-10.446-1.484-18.921.688-28 5.989 0 0-14.233-3.999-20.28-7.004-28.69-15.304-36.002-18.96-78.86-15.838-42.859 3.12-95.652-35.928-58.764-91.733 5.384-7.179 17.513-16.492 27.865-21.396 11.68-5.533 25.22-8.313 38.992-8.336m242.32 175.606-2.578 10.455 7.871 7.953c24.766 24.645 31.24 50.52 44.147 51.21 1.638-.007-1.765-9.258-3.563-13.062-8.114-17.173-24.039-37.857-39.023-50.686zM336.73 299.707v2.918a1 1 0 0 1-.406.807c8.86 4.31 23.81 9.647 35.399 12.506 7.532 1.858 12.195 3.644 11.89 4.558-1.027 3.086-33.077.415-46.918-6.437-5.431-2.757-10.922-6.169-12.2-7.582-1.249-1.38-.839-4.825-.614-5.615l-45.274 2.765q-.762.536-1.51 1.137c-13.517 11.704-34.982 27.298-36.456 28.52-4.732 3.918-7.88 26.322 22.869 16.13 0 0 23.316-9.836 38.744-13.68 57.174-14.243 84.562 10.62 90.234-10.088 3.049-22.968 5.882-27.895-.222-22.18-5.145 5.145-6.641 5.288-19.6 1.888-11.376-1.923-23.64-4.126-35.936-5.647m-39.765 4.414c.84-.025 1.664.178 2.701.484 2.383.704 4.334 1.765 4.334 2.358 0 1.223-7.176 13.936-9.684 17.156-.907 1.165-6.606 3.765-12.664 5.78-6.058 2.014-15.224 5.712-20.369 8.216-10.485 5.103-17.99 8.592-11.949 2.551s22.41-17.467 33.332-26.676c9.096-7.657 11.777-9.795 14.299-9.869m17.678 7.916h.023c.367.002 3.067 2.033 6 4.516l5.334 4.513-6.666.913c-3.667.501-7.717 1.202-9 1.556s-2.334-.004-2.334-.797c0-1.626 5.562-10.566 6.643-10.7m-113.215 22.926-13.31 1.97-6.966 11.2c-3.83 6.16-8.834 16.363-11.465 22.533-18.823 44.157 17.534 7.522 31.569-16.096 2.134-3.591.91-19.607.172-19.607m-4.684 10.97s-2.766 6.74-2.98 9.733c-.747 8.373-1.19 9.372-6.348 14.334-7.154 6.882-10.082 9.222-10.082 8.055 0-2.223 19.41-32.121 19.41-32.121m295.274 61.005c-7.624 10.067 28.873 59.479-6.684 89.597-26.977 21.52-62.405 28.369-96.025 32.945-20.427-16.453-32.458-9.247-36.918 1.122l-2.897 6.732h-20.086c-2.168-5.195-4.077-10.557-8.437-14.336-16.094-12.665-38.105 14.748-46.01 16.943-7.058 1.791-14.432.815-21.627.493-113.729-5.056-74.284-76.31-73.318-76.707l-12.957-3.846-1.53 7.615c-2.501 12.457-1.968 33.985 1.037 41.895 5.223 13.744 17.805 25.533 33.866 31.728 20.513 7.912 40.55 7.824 41.205 9.79.448 1.346-3.693 14.655-6.903 21.757-.662 1.467-1.743 4.443-2.398 6.615-.83 2.753-3.122 5.012-7.565 7.457-8.762 4.822-15.7 14.127-20.212 27.106-9.466 27.729-2.695 60.518 19.808 66.273 6.293 1.61 18.534.515 24.467-2.187 2.842-1.295 7.327-4.394 9.969-6.887l4.804-4.533 10.53 2.65c16.007 4.03 34.398 5.737 61.734 5.723q1.808 0 3.58-.012h.09q1.728.01 3.49.012c27.337.014 45.727-1.692 61.735-5.723l10.529-2.65 4.805 4.533c2.642 2.493 7.127 5.592 9.968 6.887 5.934 2.702 18.174 3.797 24.467 2.187 22.503-5.755 29.275-38.544 19.809-66.273-4.512-12.979-11.45-22.284-20.213-27.106-4.443-2.445-6.734-4.704-7.565-7.457-2.655-8.8-20.18-44.88-18.998-45.892.605-.519 4.35-1.656 8.323-2.528 19.022-4.173 58.787-20.203 68.722-41.959 13.228-28.964.963-79.457-12.595-81.964m-181.72 124.324c6.266.09 7.742 8.204 8.071 12.886.56 7.967-1.412 18.062-1.775 19.85-1.92 9.46-2.095 12.369-.815 13.648.503.503 1.032.805 1.578.92q.206.044.414.051c1.525.062 3.162-1.263 4.723-3.681v-.002c2.271-3.52 4.381-9.352 5.748-16.598l.006-.031c1.636-8.684.919-9.195 11.203-10.344 10.297 1.15 9.565 1.66 11.21 10.375 2.733 14.493 8.44 23.333 12.462 19.31 1.28-1.28 1.106-4.188-.814-13.648-4.4-21.676-1.04-34.682 8.396-32.494 5.127 1.189 15.815 8.752 25.256 17.877 21.926 21.58 9.43-15.382 18.95-11.729 2.732 1.049 19.829 32.648 20.908 43.104-.138.08-2.983 1.44-6.323 3.021-22.009 10.42-21.42 34.986-17.072 37.672 2.696 1.666 4.769-.974 7.758-9.883 3.404-10.145 3.802-10.78 9.394-14.906 5.783-4.266 13.413-4.365 20.66-.267 18.376 10.39 24.561 57.085 9.184 69.332-17.054 13.581-39.248-5.671-40.084-7.85-1.155-3.01-5.99-4.507-8.016-2.482-2.044 2.044-13.063 5.42-23.619 7.236-10.93 1.881-28.62 2.615-46.927 2.365v-.043c-6.621.124-12.822-.06-19.07-.197-2.913-.064-6.118.012-8.858-.111-8.449-.382-15.975-1.038-21.645-2.014-10.555-1.817-21.575-5.192-23.619-7.236-2.024-2.025-6.86-.527-8.015 2.482-.105.272-.544.811-1.264 1.52-1.44 1.416-4.007 3.51-7.29 5.501-8.204 4.98-20.872 9.317-31.53.829a16 16 0 0 1-2.633-2.682v-.002c-11.924-15.259-5.411-56.908 11.816-66.648 7.247-4.098 14.877-4 20.66.267 3.496 2.579 4.962 3.793 6.4 6.818v.002c.864 1.816 1.719 4.283 2.995 8.086 1.681 5.012 3.074 8.038 4.45 9.432q.227.233.456.406c.917.69 1.84.67 2.852.045 1.358-.84 2.35-3.816 2.4-7.828v-.002c.11-8.83-4.342-22.678-19.473-29.842-3.34-1.581-6.184-2.941-6.322-3.021-.61-.355 7.933-23.06 9.69-25.756a4.5 4.5 0 0 1 .6-.729q.171-.171.364-.332c3.726-3.08 13.006-2.924 15.286.727 1.062 1.7 2.1 2.555 3.552 2.398q.168-.018.344-.054c2.102-.434 5.057-2.831 10.022-7.63 9.441-9.124 20.128-16.687 25.255-17.876a8.7 8.7 0 0 1 2.102-.242z" style="fill:#8c633f;fill-opacity:1" transform="translate(14.971 -36.657)scale(2.48683)"/><path d="M387.707 350.941c-1.776 0-3.155.075-4.486.471-1.332.396-2.486 1.177-3.409 2.07-.535.52-.934.823-1.38 1.608-.447.785-.46 2.053-.364 2.531.255 1.271.83 2.059 1.5 2.9.67.842 1.483 1.64 2.407 2.334 3.65 2.745 8.896 4.635 14.601 5.51 1.796.276 4.71.284 7.977.242s6.554-.168 8.554-.435c2.532-.338 4.537-.69 6.043-1.08.754-.195 1.37-.381 1.993-.684.311-.151.633-.32 1.021-.68s.961-1.079.961-2.142c0-1.528-.652-1.793-.908-2.035a4 4 0 0 0-.637-.49 13 13 0 0 0-1.275-.711c-.972-.488-2.246-1.056-3.735-1.676a154 154 0 0 0-10.302-3.836c-7.728-2.552-13.818-3.897-18.561-3.897m68.093 29.026c-1.005 0-2.045.908-2.314 1.472-.269.565-.262.888-.273 1.157-.022.537.044.889.125 1.293.161.807.439 1.702.816 2.66 1.679 4.254 5.188 10.485 8.37 14.959 4.43 6.23 10.701 11.3 16.66 12.906 1.4.377 2.71.535 4.033.24 1.323-.294 2.74-1.332 3.24-2.763.396-1.137.371-1.824.371-2.782 0-1.294-.35-2.581-1.098-4.06-1.302-2.578-3.008-4.727-6.109-7.828-4.41-4.41-10.488-9.286-16.9-13.588a75 75 0 0 0-3.735-2.358 26 26 0 0 0-1.42-.783 8 8 0 0 0-.613-.281c-.218-.087-.292-.244-1.152-.244" style="fill:#ea81b7;fill-rule:evenodd;stroke-width:4.18641;stroke-linecap:round;stroke-linejoin:round;stroke-miterlimit:7;paint-order:stroke markers fill" transform="translate(14.971 -36.657)scale(2.48683)"/><path d="M449.193 338.582c-2.127.076-4.174.741-5.746 2.121-1.325 1.164-2.566 3.09-4.166 5.627s-3.3 5.513-4.576 8.107c-1.417 2.882-2.3 5.005-2.672 6.96-.372 1.954-.107 3.786.64 5.376 1.785 3.791 5.678 6.599 9.952 7.358a10.94 10.94 0 0 0 5.69-.514c2.13-.797 3.744-2.567 5.738-5.572 1.87-2.819 5.363-9.819 6.984-13.863.922-2.301 1.149-3.334 1.149-4.932 0-1.515-.244-2.638-.825-3.791-1.139-2.262-3.34-4.278-5.662-5.41-2.137-1.042-4.378-1.543-6.506-1.467" style="fill:#f6c9e0;fill-rule:evenodd;stroke-width:4.18641;stroke-linecap:round;stroke-linejoin:round;stroke-miterlimit:7;paint-order:stroke markers fill" transform="translate(14.971 -36.657)scale(2.48683)"/><path d="M408.334 301.963c-1.959-.027-3.851.171-5.633.984-6.861 3.132-10.727 10.185-12.719 21.176-.724 3.999-1.818 6.954-1.935 7.133.206-.315-.195.234-.602.68a50 50 0 0 1-1.45 1.517c-2.233 2.24-4.404 5.034-6.052 7.578-.823 1.272-1.51 2.467-2.013 3.586a9.7 9.7 0 0 0-.612 1.701c-.149.606-.349 1.285.016 2.434.07.22.146.64.639 1.289.492.648 1.498 1.194 2.148 1.32 1.3.252 1.72.036 2.676-.084 3.159-.394 7.56-.196 11.422.567 7.348 1.45 14.715 3.779 22.56 7.15 1.369.588 2.76 1.164 3.916 1.625s1.91.77 2.67.986c1.536.437 3.395.616 5.057-.277s2.51-2.364 3.197-3.902c1.83-4.1.677-8.71-2.342-12.248.53.292 1.236.814 1.748 1.015 1.421.56 3.536.474 4.737-.24 2.058-1.224 3.156-3.415 3.498-5.615.341-2.2.042-4.56-.77-6.979-1.538-4.581-3.723-8.41-9.25-16.422-5.133-7.44-9.472-11.532-15.181-13.908-1.801-.749-3.766-1.04-5.725-1.066" style="fill:#f6c9e0;fill-rule:evenodd;stroke-width:5.92047;stroke-linecap:round;stroke-linejoin:round;stroke-miterlimit:7;paint-order:stroke markers fill" transform="translate(14.971 -36.657)scale(2.48683)"/><path d="M483.512 350.055c-6.175.228-10.93.835-14.489 2.013-1.779.59-3.289 1.313-4.527 2.434-1.238 1.12-2.15 2.84-2.146 4.607v.002c.005 2.115.86 2.39 1.392 2.934.532.545 1.13 1.031 1.832 1.547 1.242.913 2.877 1.878 4.598 2.81-1.948-.69-3.945-1.13-5.904-1.043-2.837.126-5.649 1.03-7.618 3.205-.892.987-1.717 2.054-2.087 3.55-.37 1.494.013 3.243.8 4.517 1.575 2.548 4.19 4.331 8.528 7.266 4.32 2.921 9.424 7.106 13.658 11.056s7.71 8.025 8.377 9.315c.556 1.076 1.178 2.032 1.85 2.84.335.403.674.77 1.126 1.13.453.36.958.909 2.399.909 1.637 0 2.24-.776 2.683-1.235s.74-.9 1.041-1.387c.602-.975 1.159-2.137 1.721-3.476 1.125-2.68 2.219-6.01 2.897-9.149.092-.427.792-2.031 1.962-3.794 1.17-1.764 2.778-3.81 4.606-5.797 5.064-5.51 8.253-10.166 9.32-14.858s-.563-9.291-4.06-12.789c-2.758-2.757-6.32-4.626-10.823-5.629-4.502-1.003-9.978-1.243-17.136-.978" style="fill:#f6c9e0;fill-rule:evenodd;stroke-width:23.6819;stroke-linecap:round;stroke-linejoin:round;stroke-miterlimit:7;paint-order:stroke markers fill" transform="translate(14.971 -36.657)scale(2.48683)"/><path d="M420.413 300.665c-10.194-5.498-22.185-4.885-30.949 6.402-.542.726-.99 1.434-1.322 2.106-1.086 2.2-2.604 7.412-3.374 11.585-2.024 10.97-6.085 10.544-11.773 21.862-14.618 25.112 19.543 36.249 42.655 31.925 4.78-.882 8.82-1.535 10.016-.858 1.414 4.261 14.679 12.031 18.878 10.104 1.227.62 2.924 4.343 4.842 8.81 9.221 21.628 37.436 43.875 50.223 17.783 6.262-11.01 3.655-14.154 11.66-21.922 3.045-2.956 6.54-7.11 7.768-9.234.375-.648.716-1.414 1.02-2.268 6.04-18.07-6.892-30.39-23.189-33.045-16.296-2.655-29.075 2.354-29.8-2.208s-14.549-11.291-18.879-10.104-7.119-11.485-18.367-23.572c-2.812-3.021-6.011-5.533-9.41-7.366m-5.389 5.95c4.13 2.15 8.144 6.099 11.384 11.405 9.354 12.577 12.352 21.19 8.662 24.888-1.61 1.613-3.051 1.167-8.252-2.558-11.419-8.178-12.334-.49-4.855 2.738 5.456 2.356 8.905 7.683 7.587 11.715-1.724 5.274-2.942 5.49-10.737 1.903-12.44-5.726-29.76-9.883-35.04-8.411-4.717 1.314-4.97-.569-.88-6.565 2.042-2.994 4.892-6.33 6.332-7.41 1.725-1.296 3.035-5.074 3.842-11.078 3.222-17.376 12.872-21.355 21.957-16.626m91.229 48.826c8.973 4.937 11.017 15.174-1.653 27.493-4.549 4.002-6.966 7.188-7.087 9.342-.1 1.798-1.295 6.019-2.654 9.379-2.72 6.728-4.427 7.563-5.95 2.91-1.705-5.211-14.77-17.316-26.435-24.492-7.308-4.495-7.804-5.629-4.372-9.989 2.624-3.333 8.97-3.418 13.956-.185 6.835 4.432 12.724-.593-.415-5.558-5.984-2.262-7.154-3.213-6.705-5.447 1.03-5.122 9.86-7.405 25.513-6.598 6.212-.248 11.723.901 15.802 3.145m-51.278-13.682c3.789 1.943 6.55 5.757 5.006 9.936-1.594 4.31-6.17 14.65-10 18.639-5.388 5.611-17.815-1.04-16.134-8.635 1.195-5.4 7.144-15.03 9.962-18.66 2.562-3.298 7.378-3.224 11.166-1.28m-35.517 20.948c.868.449 1.347.767 1.329.895-.313 2.197-30.795 6.304-39.37-4.665-1.437-1.838-1.253-2.811.835-4.378 6.077-4.562 31.134 5.003 37.206 8.148m37.666 20.158c5.984 3.308 27.841 18.852 27.417 26.44-.146 2.605-.854 3.298-3.18 3.122-13.884-1.051-27.374-28.692-25.72-30.17.097-.087.628.136 1.483.608" style="display:inline;fill:#e46ea1;fill-opacity:1" transform="translate(14.971 -36.657)scale(2.48683)"/><path d="M408.4 197.184c-29.517-1.543-79.622 11.98-91.734 45.972-10.446-1.484-18.921.688-28 5.989 0 0-11.093-6.928-17.139-9.934-70.35-37.525-115.128-18.162-104.959 47.455.621 4.006 5.684 33.717 21.55 50.268 0 0 10.298 7.62 11.803 4.698.952-1.847 3.199-6.225 3.135-6.225-10.2 0-59.62-98.459 4.333-101.815 1.874-.22 3.81-.319 5.793-.313 29.736.095 69.968 24.033 71.324 25.358 1.975 1.93 2.31 3.49 1.58 7.377-.857 4.568-1.188 4.86-4.506 3.974-4.509-1.203-17.862-4.118-24.105 1.57-3.131 2.853-3.943 4.509-3.32 6.776.985 3.591 4.579 3.89 9.327.78 6.4-3.077 17.781-.294 23.793 3.458.346.559.994 3.358 1.442 6.221.813 5.204.808 5.211-11.62 15.97-13.017 11.272-33.405 26.15-36.212 28.327a69 69 0 0 1 4.336 7.508c3.022 6.159-1.927 6.11 4.113.068 6.04-6.041 22.41-17.467 33.332-26.676 9.096-7.657 11.777-9.795 14.299-9.869.84-.025 1.664.178 2.701.485 5.496 2.833 18.107 3.695 27.904-6.102l4.86 2.865c7.652 4.515 25.762 11.23 39.293 14.569 7.532 1.858 13.045 4.82 13.045 4.82.77-4.173 2.289-9.385 3.375-11.584a14 14 0 0 1 1.322-2.108c8.764-11.287 20.753-11.898 30.947-6.4 3.398 1.833 6.598 4.344 9.41 7.365 9.427-3.155 23.798-76.656-4.898-104.74-4.607-5.182-9.874-5.707-16.524-6.107m-2.886 9.568c4.853.056 8.846.806 11.334 2.379 5.342 3.378 10.646 14.277 12.427 25.535 3.06 19.334 1.024 54.763-3.646 63.459l-1.5 2.791c-11.377-4.802-22.375-6.334-31.863 2.55-5.145 5.145-6.641 5.288-19.6 1.888-15.984-4.195-43.168-15.696-43.428-18.374a487 487 0 0 0-.691-5.85c-.142-1.158-.433-3.115-.787-5.4 6.193-3.578 14.15-11.261 21.705-8.888 5.382 1.806 8.781.606 8.824-3.117.027-2.351-1.178-3.748-4.93-5.713-7.482-3.92-19.658 2.285-23.714 4.592-2.187 1.243-2.985 1.47-4.036-.149-.331-1.994-.55-3.303-.55-3.303-.495-4.24.353-6.037 6.757-14.334 8.452-10.947 13.922-16.233 24.19-23.37 12.643-8.79 34.948-14.863 49.508-14.696m-97.647 46.785c2.338.013 4.373.479 5.22 1.5 2.014 2.426 5.575 21.953 5.577 30.582.001 4.64-.608 6.603-2.33 7.492-1.283.663-4.484 1.591-7.111 2.065-3.81.686-5.273.312-7.23-1.852-4.918-5.434-7.944-31.478-4.245-36.537 1.486-2.033 6.223-3.272 10.12-3.25" style="display:inline;fill:#3491c3;fill-opacity:1" transform="translate(14.971 -36.657)scale(2.48683)"/><path d="M423.173 459.908c-18.02-3.713-22.101-38.073-6.553-45.329 16.643-7.766 27.282 18.72 25.977 30.228-1.107 9.763-10.373 16.966-19.425 15.1m-175.909 26.727c16.819-7.459 13.502-41.901-3.233-45.686-17.913-4.05-22.679 24.093-18.957 35.06 3.157 9.304 13.743 14.373 22.19 10.626" style="fill:#8c633f;fill-opacity:1;stroke-width:.288693" transform="translate(14.971 -36.657)scale(2.48683)"/><path d="M306.963 452.781c-1.206.014-2.485.902-3.21 2.74-1.866 4.736 2.025 11.719 7.388 13.254 6.777 1.941 11.642 1.442 21.662-2.224 5.751-2.892 9.964-2.09 15.73 0 10.02 3.666 14.885 4.165 21.662 2.224 5.363-1.535 9.254-8.518 7.387-13.254-1.546-3.92-5.61-3.517-6.117.467-.819 6.44-10.213 7.61-20.4 2.541-7.927-3.944-12.87-3.943-20.794 0-10.187 5.07-19.581 3.9-20.4-2.54-.269-2.117-1.542-3.224-2.908-3.208" style="display:inline;fill:#8c633f;fill-opacity:1" transform="rotate(-6.46 1069.303 1071.674)scale(2.48683)"/><path d="M387.707 350.941c-1.776 0-3.155.075-4.486.471-1.332.396-2.486 1.177-3.409 2.07-.535.52-.934.823-1.38 1.608-.447.785-.46 2.053-.364 2.531.255 1.271.83 2.059 1.5 2.9.67.842 1.483 1.64 2.407 2.334 3.65 2.745 8.896 4.635 14.601 5.51 1.796.276 4.71.284 7.977.242s6.554-.168 8.554-.435c2.532-.338 4.537-.69 6.043-1.08.754-.195 1.37-.381 1.993-.684.311-.151.633-.32 1.021-.68s.961-1.079.961-2.142c0-1.528-.652-1.793-.908-2.035a4 4 0 0 0-.637-.49 13 13 0 0 0-1.275-.711c-.972-.488-2.246-1.056-3.735-1.676a154 154 0 0 0-10.302-3.836c-7.728-2.552-13.818-3.897-18.561-3.897m68.093 29.026c-1.005 0-2.045.908-2.314 1.472-.269.565-.262.888-.273 1.157-.022.537.044.889.125 1.293.161.807.439 1.702.816 2.66 1.679 4.254 5.188 10.485 8.37 14.959 4.43 6.23 10.701 11.3 16.66 12.906 1.4.377 2.71.535 4.033.24 1.323-.294 2.74-1.332 3.24-2.763.396-1.137.371-1.824.371-2.782 0-1.294-.35-2.581-1.098-4.06-1.302-2.578-3.008-4.727-6.109-7.828-4.41-4.41-10.488-9.286-16.9-13.588a75 75 0 0 0-3.735-2.358 26 26 0 0 0-1.42-.783 8 8 0 0 0-.613-.281c-.218-.087-.292-.244-1.152-.244" style="fill:#ea81b7;fill-rule:evenodd;stroke-width:4.18641;stroke-linecap:round;stroke-linejoin:round;stroke-miterlimit:7;paint-order:stroke markers fill" transform="scale(-2.48683 2.48683)rotate(15.587 48.366 -2000.852)"/><path d="M449.193 338.582c-2.127.076-4.174.741-5.746 2.121-1.325 1.164-2.566 3.09-4.166 5.627s-3.3 5.513-4.576 8.107c-1.417 2.882-2.3 5.005-2.672 6.96-.372 1.954-.107 3.786.64 5.376 1.785 3.791 5.678 6.599 9.952 7.358a10.94 10.94 0 0 0 5.69-.514c2.13-.797 3.744-2.567 5.738-5.572 1.87-2.819 5.363-9.819 6.984-13.863.922-2.301 1.149-3.334 1.149-4.932 0-1.515-.244-2.638-.825-3.791-1.139-2.262-3.34-4.278-5.662-5.41-2.137-1.042-4.378-1.543-6.506-1.467" style="fill:#f6c9e0;fill-rule:evenodd;stroke-width:4.18641;stroke-linecap:round;stroke-linejoin:round;stroke-miterlimit:7;paint-order:stroke markers fill" transform="scale(-2.48683 2.48683)rotate(15.587 48.366 -2000.852)"/><path d="M408.334 301.963c-1.959-.027-3.851.171-5.633.984-6.861 3.132-10.727 10.185-12.719 21.176-.724 3.999-1.818 6.954-1.935 7.133.206-.315-.195.234-.602.68a50 50 0 0 1-1.45 1.517c-2.233 2.24-4.404 5.034-6.052 7.578-.823 1.272-1.51 2.467-2.013 3.586a9.7 9.7 0 0 0-.612 1.701c-.149.606-.349 1.285.016 2.434.07.22.146.64.639 1.289.492.648 1.498 1.194 2.148 1.32 1.3.252 1.72.036 2.676-.084 3.159-.394 7.56-.196 11.422.567 7.348 1.45 14.715 3.779 22.56 7.15 1.369.588 2.76 1.164 3.916 1.625s1.91.77 2.67.986c1.536.437 3.395.616 5.057-.277s2.51-2.364 3.197-3.902c1.83-4.1.677-8.71-2.342-12.248.53.292 1.236.814 1.748 1.015 1.421.56 3.536.474 4.737-.24 2.058-1.224 3.156-3.415 3.498-5.615.341-2.2.042-4.56-.77-6.979-1.538-4.581-3.723-8.41-9.25-16.422-5.133-7.44-9.472-11.532-15.181-13.908-1.801-.749-3.766-1.04-5.725-1.066" style="fill:#f6c9e0;fill-rule:evenodd;stroke-width:5.92047;stroke-linecap:round;stroke-linejoin:round;stroke-miterlimit:7;paint-order:stroke markers fill" transform="scale(-2.48683 2.48683)rotate(15.587 48.366 -2000.852)"/><path d="M483.512 350.055c-6.175.228-10.93.835-14.489 2.013-1.779.59-3.289 1.313-4.527 2.434-1.238 1.12-2.15 2.84-2.146 4.607v.002c.005 2.115.86 2.39 1.392 2.934.532.545 1.13 1.031 1.832 1.547 1.242.913 2.877 1.878 4.598 2.81-1.948-.69-3.945-1.13-5.904-1.043-2.837.126-5.649 1.03-7.618 3.205-.892.987-1.717 2.054-2.087 3.55-.37 1.494.013 3.243.8 4.517 1.575 2.548 4.19 4.331 8.528 7.266 4.32 2.921 9.424 7.106 13.658 11.056s7.71 8.025 8.377 9.315c.556 1.076 1.178 2.032 1.85 2.84.335.403.674.77 1.126 1.13.453.36.958.909 2.399.909 1.637 0 2.24-.776 2.683-1.235s.74-.9 1.041-1.387c.602-.975 1.159-2.137 1.721-3.476 1.125-2.68 2.219-6.01 2.897-9.149.092-.427.792-2.031 1.962-3.794 1.17-1.764 2.778-3.81 4.606-5.797 5.064-5.51 8.253-10.166 9.32-14.858s-.563-9.291-4.06-12.789c-2.758-2.757-6.32-4.626-10.823-5.629-4.502-1.003-9.978-1.243-17.136-.978" style="fill:#f6c9e0;fill-rule:evenodd;stroke-width:23.6819;stroke-linecap:round;stroke-linejoin:round;stroke-miterlimit:7;paint-order:stroke markers fill" transform="scale(-2.48683 2.48683)rotate(15.587 48.366 -2000.852)"/><path d="M420.413 300.665c-10.194-5.498-22.185-4.885-30.949 6.402-.542.726-.99 1.434-1.322 2.106-1.086 2.2-2.604 7.412-3.374 11.585-2.024 10.97-6.085 10.544-11.773 21.862-14.618 25.112 19.543 36.249 42.655 31.925 4.78-.882 8.82-1.535 10.016-.858 1.414 4.261 14.679 12.031 18.878 10.104 1.227.62 2.924 4.343 4.842 8.81 9.221 21.628 37.436 43.875 50.223 17.783 6.262-11.01 3.655-14.154 11.66-21.922 3.045-2.956 6.54-7.11 7.768-9.234.375-.648.716-1.414 1.02-2.268 6.04-18.07-6.892-30.39-23.189-33.045-16.296-2.655-29.075 2.354-29.8-2.208s-14.549-11.291-18.879-10.104-7.119-11.485-18.367-23.572c-2.812-3.021-6.011-5.533-9.41-7.366m-5.389 5.95c4.13 2.15 8.144 6.099 11.384 11.405 9.354 12.577 12.352 21.19 8.662 24.888-1.61 1.613-3.051 1.167-8.252-2.558-11.419-8.178-12.334-.49-4.855 2.738 5.456 2.356 8.905 7.683 7.587 11.715-1.724 5.274-2.942 5.49-10.737 1.903-12.44-5.726-29.76-9.883-35.04-8.411-4.717 1.314-4.97-.569-.88-6.565 2.042-2.994 4.892-6.33 6.332-7.41 1.725-1.296 3.035-5.074 3.842-11.078 3.222-17.376 12.872-21.355 21.957-16.626m91.229 48.826c8.973 4.937 11.017 15.174-1.653 27.493-4.549 4.002-6.966 7.188-7.087 9.342-.1 1.798-1.295 6.019-2.654 9.379-2.72 6.728-4.427 7.563-5.95 2.91-1.705-5.211-14.77-17.316-26.435-24.492-7.308-4.495-7.804-5.629-4.372-9.989 2.624-3.333 8.97-3.418 13.956-.185 6.835 4.432 12.724-.593-.415-5.558-5.984-2.262-7.154-3.213-6.705-5.447 1.03-5.122 9.86-7.405 25.513-6.598 6.212-.248 11.723.901 15.802 3.145m-51.278-13.682c3.789 1.943 6.55 5.757 5.006 9.936-1.594 4.31-6.17 14.65-10 18.639-5.388 5.611-17.815-1.04-16.134-8.635 1.195-5.4 7.144-15.03 9.962-18.66 2.562-3.298 7.378-3.224 11.166-1.28m-35.517 20.948c.868.449 1.347.767 1.329.895-.313 2.197-30.795 6.304-39.37-4.665-1.437-1.838-1.253-2.811.835-4.378 6.077-4.562 31.134 5.003 37.206 8.148m37.666 20.158c5.984 3.308 27.841 18.852 27.417 26.44-.146 2.605-.854 3.298-3.18 3.122-13.884-1.051-27.374-28.692-25.72-30.17.097-.087.628.136 1.483.608" style="display:inline;fill:#e46ea1;fill-opacity:1" transform="scale(-2.48683 2.48683)rotate(15.587 48.366 -2000.852)"/></svg>