<svg xmlns="http://www.w3.org/2000/svg" xml:space="preserve" width="1000" height="500"><path d="M424.14 32.076c-1.21.016-2.9.064-6.66.311-60.852 3.997-83.072 29.296-94.83 51.531-7.588 14.351-11.735 28.556-13.248 43.638-.305 3.03-.304 5.103.044 6.118.35 1.013 1.048.969 1.747.924-1.133 52.287-2.267 104.573-2.674 138.667-.527 44.121-.02 72.904 3.003 94.948 1.37 9.99 3.41 20.442 5.976 29.078 2.681 9.028 10.308 33.512 38.495 52.167 19.128 12.659 42.044 16.845 63.213 18.134 3.924.239 7.64.362 10.795.334v.003h7.345c3.315-.051 6.009-2.784 6.015-6.096v-17.491q.033-1.123.064-2.345h12.26V444h4.32c2.043 0 4.001-.432 5.442-1.199 1.43-.755 2.244-1.778 2.265-2.848v-36.28l-.253-.321c-.835-1.608-2.191-3.095-3.989-4.372v-.002a1 1 0 0 1-.108-.212 5 5 0 0 1-.265-.86c1.078-.212 2.295-.562 3.35-1.234a4.6 4.6 0 0 0 1.265-1.19v-69.473a4 4 0 0 0-.148-.214c-.567-.788-2.027-1.802-4.039-2.197.258-.444.7-.914 1.751-1.745 1.053-.83 2.084-2.36 2.435-3.971v-.003l-.557-129.845-.03-.134c-.351-1.61-1.382-3.14-2.434-3.971s-1.493-1.3-1.75-1.744c2.01-.395 3.47-1.41 4.038-2.197.72-.996.733-1.901.733-1.901v-.036l-.017-.437h.017v-67.743a4.6 4.6 0 0 0-1.266-1.19c-1.055-.672-2.272-1.023-3.35-1.234q.092-.435.266-.86a1.3 1.3 0 0 1 .107-.213v-.002c1.798-1.277 3.154-2.764 3.989-4.371l.254-.321V65.473c0-1.31-1.002-2.566-2.777-3.482-1.725-.917-4.07-1.434-6.514-1.437h-11.833V42.8c0-2.636-2.079-6.057-6.015-6.119h-13.754c0-1.529 0-3.058-.367-3.83-.366-.773-1.1-.79-2.31-.774m151.722 0c1.21.016 2.9.064 6.66.311 60.852 3.997 83.072 29.296 94.83 51.531 7.587 14.351 11.735 28.556 13.249 43.638.304 3.03.304 5.103-.046 6.118-.35 1.013-1.048.969-1.747.924 1.134 52.287 2.268 104.573 2.675 138.667.527 44.121.02 72.904-3.003 94.948-1.371 9.99-3.41 20.442-5.976 29.078-2.681 9.028-10.308 33.512-38.495 52.167-19.128 12.659-42.045 16.845-63.213 18.134-3.924.239-7.64.362-10.795.334v.003h-7.345c-3.315-.051-6.01-2.784-6.015-6.096v-17.491q-.033-1.123-.065-2.345h-12.26V444h-4.319c-2.043 0-4.002-.432-5.441-1.199-1.432-.755-2.245-1.778-2.266-2.848v-36.28l.254-.321c.835-1.608 2.19-3.095 3.988-4.372v-.002c.01-.012.043-.062.108-.212q.173-.425.265-.86c-1.077-.212-2.295-.562-3.35-1.234a4.6 4.6 0 0 1-1.265-1.19v-69.473q.069-.107.148-.214c.568-.788 2.027-1.802 4.038-2.197-.258-.444-.7-.914-1.75-1.745-1.053-.83-2.083-2.36-2.434-3.971v-.003l.556-129.845.03-.134c.35-1.61 1.382-3.14 2.434-3.971s1.493-1.3 1.751-1.744c-2.012-.395-3.47-1.41-4.039-2.197-.72-.996-.732-1.901-.732-1.901v-.036l.017-.437h-.017v-67.743a4.6 4.6 0 0 1 1.265-1.19c1.055-.672 2.271-1.023 3.35-1.234a5 5 0 0 0-.266-.86 1 1 0 0 0-.108-.213v-.002c-1.797-1.277-3.154-2.764-3.987-4.371l-.254-.321V65.473c0-1.31 1-2.566 2.776-3.482 1.724-.917 4.07-1.434 6.514-1.437h11.832V42.8c0-2.636 2.08-6.057 6.016-6.119h13.754c0-1.529 0-3.058.366-3.83.367-.773 1.1-.79 2.312-.774" style="fill:#000;fill-opacity:1;stroke-width:1.30097;stroke-linecap:round;stroke-linejoin:round"/><circle cx="345.148" cy="256.399" r="15.429" style="font-variation-settings:normal;vector-effect:none;fill:#dfdfe7;fill-opacity:1;fill-rule:evenodd;stroke-width:30.8491;stroke-linecap:butt;stroke-linejoin:miter;stroke-miterlimit:4;stroke-dasharray:none;stroke-dashoffset:0;stroke-opacity:1;-inkscape-stroke:none;stop-color:#000"/><circle cx="-405.16" cy="256.399" r="15.429" style="font-variation-settings:normal;vector-effect:none;fill:#dfdfe7;fill-opacity:1;fill-rule:evenodd;stroke-width:30.8491;stroke-linecap:butt;stroke-linejoin:miter;stroke-miterlimit:4;stroke-dasharray:none;stroke-dashoffset:0;stroke-opacity:1;-inkscape-stroke:none;stop-color:#000" transform="scale(-1 1)"/><circle cx="226.392" cy="-375.154" r="15.429" style="font-variation-settings:normal;vector-effect:none;fill:#dfdfe7;fill-opacity:1;fill-rule:evenodd;stroke-width:30.8491;stroke-linecap:butt;stroke-linejoin:miter;stroke-miterlimit:4;stroke-dasharray:none;stroke-dashoffset:0;stroke-opacity:1;-inkscape-stroke:none;stop-color:#000" transform="rotate(90)"/><circle cx="-286.404" cy="-375.154" r="15.429" style="font-variation-settings:normal;vector-effect:none;fill:#dfdfe7;fill-opacity:1;fill-rule:evenodd;stroke-width:30.8491;stroke-linecap:butt;stroke-linejoin:miter;stroke-miterlimit:4;stroke-dasharray:none;stroke-dashoffset:0;stroke-opacity:1;-inkscape-stroke:none;stop-color:#000" transform="scale(1 -1)rotate(90)"/><path d="M375.563 125.565c-9.469 0-17.158 7.689-17.158 17.157 0 9.47 7.688 17.16 17.158 17.16 9.469 0 17.158-7.691 17.158-17.16 0-9.468-7.69-17.157-17.16-17.157m0 1.197c8.823 0 15.962 7.139 15.962 15.96s-7.14 15.96-15.96 15.96c-8.822 0-15.96-7.138-15.96-15.96 0-8.82 7.137-15.96 15.96-15.96" style="baseline-shift:baseline;display:inline;overflow:visible;vector-effect:none;fill:#dfdfe7;fill-opacity:1;stroke-width:.598891;stop-color:#000"/><path d="M393.153 319.614a3.37 3.37 0 0 0-2.355.984l-.008.007-.007.009a3.36 3.36 0 0 0-.953 2.369v18.827a3.36 3.36 0 0 0 .953 2.369l.01.009.008.009a3.37 3.37 0 0 0 2.351.978h19.204a3.34 3.34 0 0 0 2.355-.977 3.3 3.3 0 0 0 .997-2.394v-18.818a3.3 3.3 0 0 0-.997-2.39 3.36 3.36 0 0 0-2.355-.98H393.16z" style="baseline-shift:baseline;display:inline;overflow:visible;vector-effect:none;fill:#dfdfe7;fill-opacity:1;stroke-width:.690738;stop-color:#000"/><path d="M597.01 315.988c-8.918.003-16.182 7.368-16.182 16.406 0 9.04 7.264 16.403 16.182 16.407h.442c8.92.002 16.187-7.364 16.188-16.405 0-9.043-7.268-16.41-16.188-16.408z" style="baseline-shift:baseline;display:inline;overflow:visible;vector-effect:none;fill:#dfdfe7;fill-opacity:1;stroke-width:.686086;stop-color:#000"/><g transform="translate(288.92 451.16)scale(.86054)"><circle cx="353.93" cy="-358.2" r="17.93" style="font-variation-settings:normal;vector-effect:none;fill:#dfdfe7;fill-opacity:1;fill-rule:evenodd;stroke-width:35.8485;stroke-linecap:butt;stroke-linejoin:miter;stroke-miterlimit:4;stroke-dasharray:none;stroke-dashoffset:0;stroke-opacity:1;-inkscape-stroke:none;stop-color:#000"/><circle cx="-423.668" cy="-358.2" r="17.93" style="font-variation-settings:normal;vector-effect:none;fill:#dfdfe7;fill-opacity:1;fill-rule:evenodd;stroke-width:35.8485;stroke-linecap:butt;stroke-linejoin:miter;stroke-miterlimit:4;stroke-dasharray:none;stroke-dashoffset:0;stroke-opacity:1;-inkscape-stroke:none;stop-color:#000" transform="scale(-1 1)"/><circle cx="-393.07" cy="-388.799" r="17.93" style="font-variation-settings:normal;vector-effect:none;fill:#dfdfe7;fill-opacity:1;fill-rule:evenodd;stroke-width:35.8485;stroke-linecap:butt;stroke-linejoin:miter;stroke-miterlimit:4;stroke-dasharray:none;stroke-dashoffset:0;stroke-opacity:1;-inkscape-stroke:none;stop-color:#000" transform="rotate(90)"/><circle cx="323.332" cy="-388.799" r="17.93" style="font-variation-settings:normal;vector-effect:none;fill:#dfdfe7;fill-opacity:1;fill-rule:evenodd;stroke-width:35.8485;stroke-linecap:butt;stroke-linejoin:miter;stroke-miterlimit:4;stroke-dasharray:none;stroke-dashoffset:0;stroke-opacity:1;-inkscape-stroke:none;stop-color:#000" transform="scale(1 -1)rotate(90)"/></g><path d="M623.905 236.884c-9.469 0-17.158 7.69-17.158 17.158s7.688 17.159 17.158 17.159 17.158-7.69 17.158-17.16c0-9.468-7.689-17.157-17.159-17.157m0 1.197c8.822 0 15.961 7.14 15.961 15.96 0 8.822-7.139 15.961-15.96 15.961s-15.96-7.138-15.96-15.96c0-8.82 7.138-15.96 15.96-15.96" style="baseline-shift:baseline;display:inline;overflow:visible;vector-effect:none;fill:#dfdfe7;fill-opacity:1;stroke-width:.598891;stop-color:#000"/><path d="M587.618 362.798a3.37 3.37 0 0 0-2.354.983l-.009.007-.006.01a3.36 3.36 0 0 0-.954 2.368v18.828a3.36 3.36 0 0 0 .953 2.368l.01.01.008.008a3.37 3.37 0 0 0 2.351.979h19.203a3.34 3.34 0 0 0 2.355-.977 3.3 3.3 0 0 0 .997-2.394V366.17a3.3 3.3 0 0 0-.997-2.39 3.36 3.36 0 0 0-2.355-.981h-19.196Z" style="baseline-shift:baseline;display:inline;overflow:visible;vector-effect:none;fill:#dfdfe7;fill-opacity:1;stroke-width:.690738;stop-color:#000"/><rect width="23.433" height="10.433" x="403.873" y="77.171" ry="2.83" style="fill:#dfdfe7;fill-opacity:1;stroke-width:1.15688;stroke-linecap:round;stroke-linejoin:round"/><path d="M582.078 70.695a2.657 2.657 0 0 0-2.61 2.564v4.203h-4.17c-1.685-.01-2.627 1.479-2.616 2.625v4.6c-.011 1.147.931 2.636 2.616 2.626h4.17v4.203a2.657 2.657 0 0 0 2.611 2.564h4.668a2.657 2.657 0 0 0 2.61-2.564v-4.203h4.17c1.685.01 2.627-1.479 2.617-2.625v-4.6c.01-1.146-.932-2.636-2.616-2.625h-4.171V73.26c-.036-1.4-1.21-2.554-2.61-2.564z" style="baseline-shift:baseline;display:inline;overflow:visible;vector-effect:none;fill:#dfdfe7;fill-opacity:1;stroke-width:.690738;stop-color:#000"/><rect width="6.377" height="6.475" x="447.268" y="226.22" ry="1.063" style="fill:#dfdfe7;fill-opacity:1;stroke-width:17.2108;stroke-linecap:round;stroke-linejoin:round"/><rect width="6.377" height="6.475" x="447.268" y="241.252" ry="1.063" style="fill:#dfdfe7;fill-opacity:1;stroke-width:17.2108;stroke-linecap:round;stroke-linejoin:round"/><rect width="6.377" height="6.475" x="447.268" y="256.285" ry="1.063" style="fill:#dfdfe7;fill-opacity:1;stroke-width:17.2108;stroke-linecap:round;stroke-linejoin:round"/><rect width="6.377" height="6.475" x="447.268" y="271.318" ry="1.063" style="fill:#dfdfe7;fill-opacity:1;stroke-width:17.2108;stroke-linecap:round;stroke-linejoin:round"/><g transform="matrix(-.86054 0 0 .86054 160.375 -3.376)"><rect width="7.411" height="7.524" x="-455.946" y="266.804" ry="1.235" style="fill:#dfdfe7;fill-opacity:1;stroke-width:20;stroke-linecap:round;stroke-linejoin:round"/><rect width="7.411" height="7.524" x="-455.946" y="284.273" ry="1.235" style="fill:#dfdfe7;fill-opacity:1;stroke-width:20;stroke-linecap:round;stroke-linejoin:round"/><rect width="7.411" height="7.524" x="-455.946" y="301.742" ry="1.235" style="fill:#dfdfe7;fill-opacity:1;stroke-width:20;stroke-linecap:round;stroke-linejoin:round"/><rect width="7.411" height="7.524" x="-455.946" y="319.211" ry="1.235" style="fill:#dfdfe7;fill-opacity:1;stroke-width:20;stroke-linecap:round;stroke-linejoin:round"/></g><g style="fill:#dfdfe7;fill-opacity:1"><path d="M704.621 584.088c-12.986 0-23.533 10.547-23.533 23.533s10.547 23.533 23.533 23.533 23.533-10.547 23.533-23.533-10.547-23.533-23.533-23.533m.393 3.142c11.45 0 20.712 9.26 20.712 20.71s-9.262 20.714-20.712 20.714-20.713-9.262-20.713-20.713c0-11.45 9.262-20.71 20.713-20.71" style="baseline-shift:baseline;display:inline;overflow:visible;vector-effect:none;fill:#dfdfe7;fill-opacity:1;stop-color:#000" transform="translate(101.099 -196.25)scale(.74139)"/><path d="M704.621 563C680 563 660 583 660 607.621s20 44.621 44.62 44.621c24.622 0 44.622-20 44.622-44.62 0-24.622-20-44.622-44.621-44.622m0 3.762c22.588 0 40.86 18.27 40.86 40.86 0 22.587-18.272 40.858-40.86 40.858s-40.86-18.27-40.86-40.859c0-22.588 18.272-40.86 40.86-40.86" style="baseline-shift:baseline;display:inline;overflow:visible;vector-effect:none;fill:#dfdfe7;fill-opacity:1;stop-color:#000" transform="translate(101.099 -196.25)scale(.74139)"/></g><g style="fill:#dfdfe7;fill-opacity:1"><path d="M704.621 584.088c-12.986 0-23.533 10.547-23.533 23.533s10.547 23.533 23.533 23.533 23.533-10.547 23.533-23.533-10.547-23.533-23.533-23.533m.393 3.142c11.45 0 20.712 9.26 20.712 20.71s-9.262 20.714-20.712 20.714-20.713-9.262-20.713-20.713c0-11.45 9.262-20.71 20.713-20.71" style="baseline-shift:baseline;display:inline;overflow:visible;vector-effect:none;fill:#dfdfe7;fill-opacity:1;stop-color:#000" transform="translate(-147.243 -307.57)scale(.74139)"/><path d="M704.621 563C680 563 660 583 660 607.621s20 44.621 44.62 44.621c24.622 0 44.622-20 44.622-44.62 0-24.622-20-44.622-44.621-44.622m0 3.762c22.588 0 40.86 18.27 40.86 40.86 0 22.587-18.272 40.858-40.86 40.858s-40.86-18.27-40.86-40.859c0-22.588 18.272-40.86 40.86-40.86" style="baseline-shift:baseline;display:inline;overflow:visible;vector-effect:none;fill:#dfdfe7;fill-opacity:1;stop-color:#000" transform="translate(-147.243 -307.57)scale(.74139)"/></g></svg>