<svg xmlns="http://www.w3.org/2000/svg" xml:space="preserve" width="1000" height="500"><path d="M424.14 32.076c-1.211.016-2.9.064-6.661.31-60.852 3.997-83.072 29.297-94.829 51.532-7.588 14.351-11.735 28.556-13.25 43.637-.303 3.03-.303 5.104.046 6.118.35 1.014 1.048.97 1.746.924-1.133 52.287-2.266 104.572-2.674 138.667-.526 44.12-.02 72.903 3.004 94.947 1.37 9.99 3.41 20.442 5.975 29.078 2.682 9.028 10.308 33.512 38.495 52.167 19.128 12.658 42.044 16.845 63.213 18.133 3.924.24 7.64.363 10.795.335v.003h7.345c3.315-.052 6.01-2.785 6.015-6.096v-17.492q.033-1.123.064-2.345h12.259v2.004h4.32c2.044-.001 4.002-.432 5.442-1.198 1.431-.757 2.245-1.78 2.266-2.85v-36.28l-.254-.32c-.834-1.608-2.19-3.095-3.988-4.372v-.002a1.2 1.2 0 0 1-.108-.212 5 5 0 0 1-.265-.86c1.077-.212 2.294-.562 3.35-1.234a4.5 4.5 0 0 0 1.265-1.19v-69.474a4 4 0 0 0-.148-.213c-.568-.788-2.027-1.802-4.039-2.197.258-.444.7-.913 1.751-1.744 1.052-.831 2.083-2.36 2.434-3.972v-.003l-.556-129.845-.03-.133c-.351-1.611-1.382-3.14-2.434-3.971s-1.493-1.301-1.751-1.745c2.011-.395 3.47-1.409 4.038-2.197.72-.996.733-1.9.733-1.9v-.036l-.017-.437h.017V109.87a4.5 4.5 0 0 0-1.265-1.19c-1.055-.672-2.272-1.022-3.35-1.234q.092-.435.265-.86c.066-.15.099-.2.108-.212v-.002c1.798-1.277 3.154-2.764 3.988-4.371l.254-.321V65.473c0-1.31-1.001-2.566-2.776-3.482-1.725-.917-4.07-1.434-6.515-1.437h-11.832V42.799c0-2.636-2.08-6.057-6.016-6.118h-13.754c0-1.53.001-3.06-.365-3.832-.367-.773-1.1-.79-2.311-.773" style="fill:#dfdfe7;fill-opacity:1;stroke-width:1.30097;stroke-linecap:round;stroke-linejoin:round"/><g style="fill:#000" transform="translate(160.375 -3.376)scale(.86054)"><circle cx="214.718" cy="301.874" r="17.93" style="font-variation-settings:normal;vector-effect:none;fill:#000;fill-opacity:1;fill-rule:evenodd;stroke-width:35.8485;stroke-linecap:butt;stroke-linejoin:miter;stroke-miterlimit:4;stroke-dasharray:none;stroke-dashoffset:0;stroke-opacity:1;-inkscape-stroke:none;stop-color:#000"/><circle cx="-284.455" cy="301.874" r="17.93" style="font-variation-settings:normal;vector-effect:none;fill:#000;fill-opacity:1;fill-rule:evenodd;stroke-width:35.8485;stroke-linecap:butt;stroke-linejoin:miter;stroke-miterlimit:4;stroke-dasharray:none;stroke-dashoffset:0;stroke-opacity:1;-inkscape-stroke:none;stop-color:#000" transform="scale(-1 1)"/><circle cx="267.005" cy="-249.586" r="17.93" style="font-variation-settings:normal;vector-effect:none;fill:#000;fill-opacity:1;fill-rule:evenodd;stroke-width:35.8485;stroke-linecap:butt;stroke-linejoin:miter;stroke-miterlimit:4;stroke-dasharray:none;stroke-dashoffset:0;stroke-opacity:1;-inkscape-stroke:none;stop-color:#000" transform="rotate(90)"/><circle cx="-336.742" cy="-249.586" r="17.93" style="font-variation-settings:normal;vector-effect:none;fill:#000;fill-opacity:1;fill-rule:evenodd;stroke-width:35.8485;stroke-linecap:butt;stroke-linejoin:miter;stroke-miterlimit:4;stroke-dasharray:none;stroke-dashoffset:0;stroke-opacity:1;-inkscape-stroke:none;stop-color:#000" transform="scale(1 -1)rotate(90)"/></g><path d="M393.152 319.612a3.37 3.37 0 0 0-2.354.984l-.008.007-.007.009a3.35 3.35 0 0 0-.954 2.37v18.827a3.34 3.34 0 0 0 .953 2.367l.01.01.01.01a3.37 3.37 0 0 0 2.35.977h19.203a3.34 3.34 0 0 0 2.355-.976 3.3 3.3 0 0 0 .997-2.394v-18.818a3.3 3.3 0 0 0-.997-2.39 3.34 3.34 0 0 0-2.355-.98h-19.196Z" style="baseline-shift:baseline;display:inline;overflow:visible;vector-effect:none;fill:#000;fill-opacity:1;stroke-width:.690735;stop-color:#000"/><rect width="23.432" height="10.433" x="403.873" y="77.171" ry="2.831" style="fill:#000;fill-opacity:1;stroke-width:1.15688;stroke-linecap:round;stroke-linejoin:round"/><g style="fill:#000" transform="translate(160.375 -3.376)scale(.86054)"><rect width="7.411" height="7.524" x="333.387" y="266.804" ry="1.235" style="fill:#000;fill-opacity:1;stroke-width:20;stroke-linecap:round;stroke-linejoin:round"/><rect width="7.411" height="7.524" x="333.387" y="284.273" ry="1.235" style="fill:#000;fill-opacity:1;stroke-width:20;stroke-linecap:round;stroke-linejoin:round"/><rect width="7.411" height="7.524" x="333.387" y="301.742" ry="1.235" style="fill:#000;fill-opacity:1;stroke-width:20;stroke-linecap:round;stroke-linejoin:round"/><rect width="7.411" height="7.524" x="333.387" y="319.211" ry="1.235" style="fill:#000;fill-opacity:1;stroke-width:20;stroke-linecap:round;stroke-linejoin:round"/></g><path d="M575.86 32.076c1.211.016 2.9.064 6.661.31 60.852 3.997 83.072 29.297 94.829 51.532 7.588 14.351 11.735 28.556 13.25 43.637.303 3.03.303 5.104-.046 6.118-.35 1.014-1.048.97-1.747.924 1.133 52.287 2.267 104.572 2.674 138.667.527 44.12.02 72.903-3.003 94.947-1.37 9.99-3.41 20.442-5.975 29.078-2.682 9.028-10.308 33.512-38.496 52.167-19.127 12.658-42.044 16.845-63.212 18.133-3.924.24-7.64.363-10.795.335v.003h-7.345c-3.315-.052-6.01-2.785-6.015-6.096v-17.492l-.064-2.345h-12.26v2.004h-4.32c-2.043-.001-4-.432-5.441-1.198-1.432-.757-2.245-1.78-2.266-2.85v-36.28l.254-.32c.834-1.608 2.19-3.095 3.988-4.372v-.002c.01-.012.043-.062.108-.212q.174-.425.265-.86c-1.077-.212-2.295-.562-3.35-1.234a4.5 4.5 0 0 1-1.265-1.19v-69.474q.069-.105.148-.213c.568-.788 2.027-1.802 4.039-2.197-.258-.444-.7-.913-1.752-1.744s-2.083-2.36-2.433-3.972v-.003l.556-129.845.03-.133c.351-1.611 1.382-3.14 2.434-3.971s1.493-1.301 1.751-1.745c-2.011-.395-3.47-1.409-4.038-2.197-.72-.996-.733-1.9-.733-1.9v-.036l.017-.437h-.017V109.87a4.5 4.5 0 0 1 1.265-1.19c1.055-.672 2.272-1.022 3.35-1.234a5 5 0 0 0-.266-.86c-.065-.15-.098-.2-.107-.212v-.002c-1.798-1.277-3.154-2.764-3.989-4.371l-.253-.321V65.473c0-1.31 1-2.566 2.776-3.482 1.725-.917 4.07-1.434 6.515-1.437h11.832V42.799c0-2.636 2.08-6.057 6.016-6.118h13.753c0-1.53 0-3.06.366-3.832.367-.773 1.1-.79 2.311-.773" style="fill:#dfdfe7;fill-opacity:1;stroke-width:1.30097;stroke-linecap:round;stroke-linejoin:round"/><path d="M597.008 315.986c-8.918.003-16.182 7.368-16.182 16.406 0 9.04 7.264 16.404 16.182 16.407h.442c8.92.002 16.188-7.363 16.188-16.405s-7.268-16.41-16.188-16.408z" style="baseline-shift:baseline;display:inline;overflow:visible;vector-effect:none;fill:#000;fill-opacity:1;stroke-width:.686083;stop-color:#000"/><g style="fill:#000" transform="translate(288.92 451.157)scale(.86054)"><circle cx="353.93" cy="-358.2" r="17.93" style="font-variation-settings:normal;vector-effect:none;fill:#000;fill-opacity:1;fill-rule:evenodd;stroke-width:35.8485;stroke-linecap:butt;stroke-linejoin:miter;stroke-miterlimit:4;stroke-dasharray:none;stroke-dashoffset:0;stroke-opacity:1;-inkscape-stroke:none;stop-color:#000"/><circle cx="-423.668" cy="-358.2" r="17.93" style="font-variation-settings:normal;vector-effect:none;fill:#000;fill-opacity:1;fill-rule:evenodd;stroke-width:35.8485;stroke-linecap:butt;stroke-linejoin:miter;stroke-miterlimit:4;stroke-dasharray:none;stroke-dashoffset:0;stroke-opacity:1;-inkscape-stroke:none;stop-color:#000" transform="scale(-1 1)"/><circle cx="-393.07" cy="-388.799" r="17.93" style="font-variation-settings:normal;vector-effect:none;fill:#000;fill-opacity:1;fill-rule:evenodd;stroke-width:35.8485;stroke-linecap:butt;stroke-linejoin:miter;stroke-miterlimit:4;stroke-dasharray:none;stroke-dashoffset:0;stroke-opacity:1;-inkscape-stroke:none;stop-color:#000" transform="rotate(90)"/><circle cx="323.332" cy="-388.799" r="17.93" style="font-variation-settings:normal;vector-effect:none;fill:#000;fill-opacity:1;fill-rule:evenodd;stroke-width:35.8485;stroke-linecap:butt;stroke-linejoin:miter;stroke-miterlimit:4;stroke-dasharray:none;stroke-dashoffset:0;stroke-opacity:1;-inkscape-stroke:none;stop-color:#000" transform="scale(1 -1)rotate(90)"/></g><path d="M587.616 362.796a3.37 3.37 0 0 0-2.354.983l-.008.007-.007.01a3.35 3.35 0 0 0-.954 2.369v18.827a3.34 3.34 0 0 0 .953 2.368l.01.01.01.009a3.37 3.37 0 0 0 2.35.978h19.203a3.34 3.34 0 0 0 2.355-.977 3.3 3.3 0 0 0 .997-2.394v-18.818a3.3 3.3 0 0 0-.997-2.39 3.34 3.34 0 0 0-2.355-.98h-19.196zm-5.539-292.101a2.657 2.657 0 0 0-2.61 2.565v4.202h-4.17c-1.685-.01-2.628 1.478-2.616 2.625v4.6c-.012 1.147.93 2.636 2.615 2.626h4.17v4.202a2.657 2.657 0 0 0 2.611 2.565h4.668a2.657 2.657 0 0 0 2.61-2.565v-4.202h4.17c1.685.01 2.628-1.479 2.616-2.625v-4.6c.012-1.147-.93-2.636-2.615-2.626h-4.171V73.26a2.656 2.656 0 0 0-2.61-2.565z" style="baseline-shift:baseline;display:inline;overflow:visible;vector-effect:none;fill:#000;fill-opacity:1;stroke-width:.690735;stop-color:#000"/><g style="fill:#000" transform="matrix(-.86054 0 0 .86054 160.375 -3.376)"><rect width="7.411" height="7.524" x="-455.946" y="266.804" ry="1.235" style="fill:#000;fill-opacity:1;stroke-width:20;stroke-linecap:round;stroke-linejoin:round"/><rect width="7.411" height="7.524" x="-455.946" y="284.273" ry="1.235" style="fill:#000;fill-opacity:1;stroke-width:20;stroke-linecap:round;stroke-linejoin:round"/><rect width="7.411" height="7.524" x="-455.946" y="301.742" ry="1.235" style="fill:#000;fill-opacity:1;stroke-width:20;stroke-linecap:round;stroke-linejoin:round"/><rect width="7.411" height="7.524" x="-455.946" y="319.211" ry="1.235" style="fill:#000;fill-opacity:1;stroke-width:20;stroke-linecap:round;stroke-linejoin:round"/></g><g style="fill:#000;fill-opacity:1"><path d="M704.621 584.088c-12.986 0-23.533 10.547-23.533 23.533s10.547 23.533 23.533 23.533 23.533-10.547 23.533-23.533-10.547-23.533-23.533-23.533m.393 3.142c11.45 0 20.712 9.26 20.712 20.71s-9.262 20.714-20.712 20.714-20.713-9.262-20.713-20.713c0-11.45 9.262-20.71 20.713-20.71" style="baseline-shift:baseline;display:inline;overflow:visible;vector-effect:none;fill:#000;fill-opacity:1;stop-color:#000" transform="translate(101.097 -196.252)scale(.74139)"/><path d="M704.621 563C680 563 660 583 660 607.621s20 44.621 44.62 44.621c24.622 0 44.622-20 44.622-44.62 0-24.622-20-44.622-44.621-44.622m0 3.762c22.588 0 40.86 18.27 40.86 40.86 0 22.587-18.272 40.858-40.86 40.858s-40.86-18.27-40.86-40.859c0-22.588 18.272-40.86 40.86-40.86" style="baseline-shift:baseline;display:inline;overflow:visible;vector-effect:none;fill:#000;fill-opacity:1;stop-color:#000" transform="translate(101.097 -196.252)scale(.74139)"/></g><g style="fill:#000;fill-opacity:1"><path d="M704.621 584.088c-12.986 0-23.533 10.547-23.533 23.533s10.547 23.533 23.533 23.533 23.533-10.547 23.533-23.533-10.547-23.533-23.533-23.533m.393 3.142c11.45 0 20.712 9.26 20.712 20.71s-9.262 20.714-20.712 20.714-20.713-9.262-20.713-20.713c0-11.45 9.262-20.71 20.713-20.71" style="baseline-shift:baseline;display:inline;overflow:visible;vector-effect:none;fill:#000;fill-opacity:1;stop-color:#000" transform="translate(-147.244 -307.57)scale(.74139)"/><path d="M704.621 563C680 563 660 583 660 607.621s20 44.621 44.62 44.621c24.622 0 44.622-20 44.622-44.62 0-24.622-20-44.622-44.621-44.622m0 3.762c22.588 0 40.86 18.27 40.86 40.86 0 22.587-18.272 40.858-40.86 40.858s-40.86-18.27-40.86-40.859c0-22.588 18.272-40.86 40.86-40.86" style="baseline-shift:baseline;display:inline;overflow:visible;vector-effect:none;fill:#000;fill-opacity:1;stop-color:#000" transform="translate(-147.244 -307.57)scale(.74139)"/></g></svg>