<svg xmlns="http://www.w3.org/2000/svg" xmlns:xlink="http://www.w3.org/1999/xlink" width="2000" height="3600"><defs><linearGradient id="f"><stop offset="0" style="stop-color:#4a5824;stop-opacity:1"/><stop offset="1" style="stop-color:#95b149;stop-opacity:1"/></linearGradient><linearGradient id="e"><stop offset="0" style="stop-color:#00aef0;stop-opacity:1"/><stop offset=".4" style="stop-color:#79daff;stop-opacity:1"/><stop offset="1" style="stop-color:#d3f3ff;stop-opacity:1"/></linearGradient><linearGradient id="d"><stop offset="0" style="stop-color:#f1c4b4;stop-opacity:1"/><stop offset="1" style="stop-color:#edb49f;stop-opacity:1"/></linearGradient><linearGradient id="c"><stop offset="0" style="stop-color:#dad7c0;stop-opacity:1"/><stop offset="1" style="stop-color:#cdc9aa;stop-opacity:1"/></linearGradient><linearGradient id="b"><stop offset="0" style="stop-color:#f1c4b4;stop-opacity:1"/><stop offset="1" style="stop-color:#e28665;stop-opacity:1"/></linearGradient><linearGradient id="a"><stop offset="0" style="stop-color:#b5ca7d;stop-opacity:1"/><stop offset=".5" style="stop-color:#a4be60;stop-opacity:1"/><stop offset="1" style="stop-color:#9bb750;stop-opacity:1"/></linearGradient><linearGradient xlink:href="#a" id="i" x1="507.91" x2="507.91" y1="101.566" y2="825.493" gradientTransform="translate(180.794 977.4)scale(1.62284)" gradientUnits="userSpaceOnUse"/><linearGradient xlink:href="#b" id="l" x1="517.545" x2="518.949" y1="394.597" y2="439.946" gradientUnits="userSpaceOnUse"/><linearGradient xlink:href="#c" id="j" x1="506.828" x2="506.829" y1="482.549" y2="916.54" gradientTransform="translate(180.794 977.4)scale(1.62284)" gradientUnits="userSpaceOnUse"/><linearGradient xlink:href="#d" id="k" x1="-670.769" x2="-724.991" y1="269.435" y2="288.867" gradientTransform="translate(-291.467 950.287)scale(1.62284)" gradientUnits="userSpaceOnUse"/><linearGradient xlink:href="#d" id="m" x1="-670.769" x2="-724.991" y1="269.435" y2="288.867" gradientTransform="translate(1695.391 1179.183)scale(1.62284)" gradientUnits="userSpaceOnUse"/><linearGradient xlink:href="#e" id="g" x1="1000" x2="1000" y1="0" y2="3333.896" gradientUnits="userSpaceOnUse"/><linearGradient xlink:href="#f" id="h" x1="210.309" x2="1768.303" y1="2397.082" y2="2397.082" gradientUnits="userSpaceOnUse"/></defs><rect width="2000" height="3600" ry="4.49" style="fill:url(#g);fill-opacity:1;stroke-width:3;stroke-linecap:round"/><text xml:space="preserve" x="997.021" y="2867.967" style="font-style:normal;font-variant:normal;font-weight:400;font-stretch:normal;font-size:145.335px;line-height:2;font-family:&quot;Magic Bubble&quot;;-inkscape-font-specification:&quot;Magic Bubble&quot;;text-align:center;writing-mode:lr-tb;direction:ltr;text-anchor:middle;fill:#0a8bbd;fill-opacity:1;stroke-width:4.67358;stroke-linecap:round"><tspan x="997.021" y="2867.967" style="fill:#0a8bbd;fill-opacity:1;stroke-width:4.67358">Here&apos;s A Silly Frog</tspan><tspan x="997.021" y="3158.637" style="fill:#0a8bbd;fill-opacity:1;stroke-width:4.67358">To Brighten Your </tspan><tspan x="997.021" y="3450.726" style="fill:#0a8bbd;fill-opacity:1;stroke-width:4.67358">Day!</tspan></text><path d="M161.3 659.404q-1.216-3.027-2.295-5.494-1.367-2.674-1.645-3.001-1.335-1.573-2.45-.628-1.572 1.335-2.684 3.745-1.168 2.344-1.9 5.334-.668 2.934-1.001 6.261-.39 3.262-.47 6.488-.015 3.17.23 6.119.192 2.882.629 4.991.942 5.628 2.651 10.83 1.653 5.137 4.165 10.222.83 1.776 1.707 3.739.942 1.907 1.92 4.121l1.704 2.275q3.616 4.26 7.23 7.057 3.613 2.796 7.376 3.775 3.772.858 7.834-.334 4.007-1.258 8.464-5.041 1.9-1.613 3.821-3.469t3.079-4.078q1.164-1.552 2.03-3.189.931-1.692 1.686-3.46l1.742-3.396-2.784-4.741-1.073-1.796q-.47-.953-.886-1.841-.886-1.841-1.498-2.562l-.223-.263-.961-1.664-1.553 1.093q-.918.778-1.931 1.976t-1.98 2.583q-.968 1.385-1.758 2.845-.78 1.339-1.178 2.465-.603 1.415-.42 2.161.389.46.127.682-.59.5-1.737.346-1.146-.155-2.328-.618-1.237-.528-2.344-1.168-1.04-.695-1.486-1.22l-.39-.458-1.203-1.684.04-.485q-.982-1.422-1.121-3.446-.195-2.09.104-4.261.31-2.293.842-4.323.598-2.086 1.146-3.566 2.298-6.46 6.54-12.09 4.243-5.63 9.42-10.025 2.098-1.78 4.428-3.42 2.396-1.694 4.843-2.53 2.513-.893 5.123-.74 2.61.152 5.324 2.021l2.213 1.28 12.07 20.2q4.494 7.688 9.13 15.142 4.645 7.334 9.85 14.53 1.993 2.481 2.029 2.789.091.373-.69 1.712-.357.642-1.294 1.663-.817 1.031-1.941 2.098-1.059 1.011-2.107 1.901-.994.956-1.583 1.457-2.36 2.002-5.11 3.546-2.627 1.554-5.55 2.23-2.8.685-5.764.382-2.898-.36-5.743-2.117-2.259-1.466-2.98-.854l-2.725 4.23q-2.397 3.95-5.396 7.06-2.878 3.119-6.352 6.067-13.83 11.738-33.798 14.251-6.103.781-11.313.355-5.145-.482-9.762-2.202-4.551-1.775-8.686-4.92-4.068-3.2-8.073-7.919-5.452-6.423-9.756-14.949-4.359-8.59-7.195-17.91-2.826-9.442-4.056-18.997-1.165-9.61-.34-18.204.311-4.55 1.34-8.917.973-4.434 2.708-8.5 1.802-4.123 4.356-7.757t6.094-6.637q3.212-2.726 7.651-4.802 4.384-2.142 9.36-3.32 4.986-1.3 10.256-1.6 5.28-.423 10.208.469 4.994.836 9.274 2.955t7.338 5.724q1.836 2.163 3.537 5.23 1.71 2.946 2.962 6.28 1.252 3.336 1.944 6.808.701 3.351.463 6.26-.11 3.589-1.88 5.09-1.246 1.058-3.218 2.055-2.028.932-4.289 1.723-2.25.67-4.547 1.153-2.23.427-3.937.41-3.17-.015-4.839-1.983-.612-.72-1.305-1.936-.628-1.272-1.312-2.608-.673-1.458-1.236-2.785t-.912-2.27m-33.431-11.092q1.46-2.93.736-3.783-.834-.983-2.407.352-.721.612-1.627 2.734-.961 2.056-1.775 4.551-.87 2.43-1.488 4.758-.673 2.262-.939 3.278-.591 2.757-1.052 5.403-.516 2.58-.79 5.18-.417 5.09 1.252 7.056.5.59.763.368.525-.445 1.309-6.297.505-6.18 1.96-12.039 1.4-5.923 4.058-11.561m140.217-2.046.35.49q.3.419 1.04 1.158.69.67 1.5 1.358.81.69 1.64 1.259.78.499 1.259.578.62-.02 1.678-1.2 5.114-4.82 7.55-10.578 2.504-5.808 3.16-12.724.129-1.889.198-3.418.07-1.529.218-2.798.15-1.27.159-2.439t.068-2.268q-.06-1.12-.14-2.12l-.122-2.238q-.06-1.119-.221-2.378-.091-1.31-.212-2.808-.05-.81-.06-1.86-.061-1.118.048-2.148.06-1.1.458-2.019.35-.99 1.049-1.49 1.398-1 3.507-.711 2.06.219 3.2 1.517 1.17 1.488 2.392 6.745.84 3.097 1.352 6.325.582 3.178 1.043 6.335.251 1.83.452 3.588.271 1.709.562 3.298.291 2.328.402 4.257.131 1.809.002 3.698-.059 1.839-.397 3.877-.32 1.92-.887 4.228-1.785 7.407-5.94 13.126-4.203 5.649-10.357 10.05-2.937 2.1-6.874 3.542-3.987 1.371-7.594 1.943-1.609.41-3.607.571-2.05.092-4.198.043-2.079-.099-4.138-.318-2.039-.338-3.768-.687-4.197-.697-8.046-2.384-3.899-1.756-7.248-4.223-1.07-.609-1.83-1.228-.76-.62-1.4-1.219-.57-.649-1.34-1.578l-1.65-2.308q-2.35-3.286-4.022-6.953-1.65-3.787-2.593-7.764-.991-4.047-1.124-8.074-.112-4.148.665-8.086 1.336-6.556 4.351-11.355 3.085-4.849 8.61-8.8 7.272-5.2 17.505-7.445 1.639-.221 3.717-.122 2.03.028 4.068.367 2.04.339 3.968.967 1.95.509 3.479 1.317 3.229 1.707 5.48 4.854 1.9 2.657 2.98 5.795 1.082 3.137 1.454 6.465.441 3.278.124 6.676-.368 3.328-1.366 6.367-2.015 5.458-3.603 7.967-1.328 2.43-5.234 5.54zm-7.854-13.937q.75 1.049 1.45.549.49-.35.908-1.39l-.1-.14q1.118-2.28 1.676-4.898.578-2.739.537-5.457-.022-2.838-.563-5.516-.591-2.748-1.762-4.976-.25-.35-.57-.65-.25-.349-.62-.719-.55-.769-1.5-1.358.42.44-.559 1.14-.63.45-1.078 1.3-.28.94-.608 4.027-.358 2.16-.447 4.548-.088 2.389.183 4.837.291 2.328 1.012 4.666.74 2.219 2.041 4.037m-23.364-14.048q.12-.72-.47-1.249-.99-1.089-2.109-.289-1.259.9-2.007 2.81-.799 1.84-1.177 4.118-.308 2.229-.307 4.448 0 2.218.292 3.807.29 1.589.891 3.168.52 1.318 1.25 1.748.8.38.76-.12.06-.36-.54-1.2-.85-1.188-.772-3.147.099-2.079.627-4.148.549-2.189 1.247-4.168.769-2.03 1.328-3.169.908-2.13.987-2.609m26.776-44.403q4.142.411 8.125-2.138 1.376-.88 2.612-1.978l.803-.82-1.4-5.535q-.686-2.826-1.219-4.935t-.814-3.664q-.209-1.602-.437-3.395-.23-1.793-.38-3.942.11-.785.174-1.642.016-.93.015-2.05.07-1.168.205-2.072.09-.976.345-1.853.226-1.88.756-3.444.483-1.637 1.726-3.044.71-.965 1.94-1.753 1.356-1.071 2.147-1.271 2.62-1.168 5.784-1.967 3.116-.872 5.984-1.176l-.145.092q.765-.08 2.242-.005 1.43.003 2.954.151 1.596.101 2.975.342 1.332.168 1.92.608 2.986 2.274 4.02 9.471.371 3.131 1.087 4.409.318.816.617 1.442.37.58.458 1.034l1.448-.927q.605-.49 1.355-1.072l.58-.37q1.697-1.495 3.533-2.772 1.862-1.397 3.745-2.602 1.52-.973 2.58-1.55 1.014-.648 1.64-.946l1.344-.452q.672-.226 1.483-.235 2.94-.35 4.643.397 1.657.675 3.134 3.302 1.26 2.766 1.472 5.488.075 1.075-.258 2.309-.203.64-.307 1.115-.15.403-.203.64-.675 1.657-1.057 1.697-.6.18-2.335-.139-1.662-.364-3.044.826l-4.231 3.117.145-.093-10.949 9.049q3.036 11.122 6.361 22.059 3.326 10.937 7.824 21.633 2.946 6.995 6.468 12.498.649 1.014 1.541 1.77.918.637 2.15-.151.723-.464 1.366-1.692 1.086-3.247 1.605-6.743.544-3.614.727-6.997-.102-.956-.11-1.767.016-.93.009-1.741-.044-1.503.173-1.642.005-.31-.165-2.65-.049-1.194-.217-2.413-.142-1.338-.258-2.795-.191-2.532-.547-5.162t-.904-5.24q-.519-4.159.01-5.723.131-.593.783-1.01 1.158-.742 2.749-.33 1.616.292 2.627 1.074 1.268 1.025 2.514 3.29 1.41 2.363 2.595 6.607 1.139 4.17 2.028 8.909.89 4.739 1.376 9.326.44 4.516.31 7.662-.087 2.097-.287 3.858-.246 1.688-.44 3.14-.428 2.52-1.346 4.434-.846 1.868-2.115 3.394-1.196 1.48-2.867 2.856-1.645 1.257-3.508 2.654l-2.462 1.575q-1.06.577-1.784 1.04-1.396.69-3.195 1.228-1.726.493-3.663.814-1.866.276-3.751.36-1.814.037-3.363.009-5.025-.357-9.376-2.37-4.397-2.085-8.203-5.16-3.852-3.149-7.192-6.932-3.267-3.829-6.106-7.626-1.488-2.007-2.647-3.817-1.205-1.883-2.198-3.595-.418-.651-.901-1.567t-1.127-2.238q-1.863-3.708-3.679-7.343-1.743-3.681-3.079-7.522-.376-.27-.515-.486l-.278-.435q-.279-.434-1.877.895l-5.214 3.337-2.337 1.292q-.435.278-.79.2-1.304.834-3.433 1.176-2.175.27-3.699.121-6.294-1.381-6.865-7.854-.39-3.323.973-6.135 1.318-2.885 4.142-4.692 1.448-.927 2.358-1.101.837-.128 2.598.072zm17.153-11.794q.683 1.706.906 1.257.25-.568-.092-2.697-.481-2.346-.597-3.803-.348-1.819-.432-3.704-.01-1.932-.05-3.746.134-2.024.195-4.002l.173-4.194q-.147-1.029-.756-1.66-.741-1.159-2.09-.397-.864.246-1.14.933-.202.64-.442 2.019-.154 1.833.223 4.654.568 2.801 1.162 5.483.593 2.682 1.352 5.463.687 2.827 1.588 4.394m158.25-77.992q-.613-1.326-.704-2.137-.33-1.741-.516-.708-.457-1.4-.877-2.72l-.914-2.798q-.456-1.4-.877-2.72-.342-1.357-.727-2.6-1.676-5.476-2.584-9.696-.83-4.257-.848-7.374-.001-6.154 3.36-9.127.757-.823 1.922-1.172 1.327-.612 3.188-1.093 1.861-.48 3.83-.727t3.777-.23q1.886-.018 3.26.294 2.066.372 4.156 1.206 2.132.72 4.408 1.753 2.84 1.434 5.573 5.096 1.327 1.85 3.003 4.863 1.754 2.978 3.893 7.199 2.312 4.803 5.28 9.588 2.775 4.779 4.432 8.37l4.26 7.786q1.092 1.957 2.702 4.623.33.51 1.466 2.353t2.456 3.885q1.4 2.005 2.583 3.542t1.453 1.507q.83.564 1.298.348.546-.253.648-1.057.126-.343-.35-3.627-.258-1.585-.624-3.404-.403-1.898-.836-4.065l-2.068-10.22-.156.073q-.042-1.117-.312-2.318-.193-1.237-.415-2.744-.451-2.822-.722-6.485-.596-5.596-1.011-12.032-.416-6.437-.213-12.97.28-6.569 1.396-12.766 1.158-6.31 3.624-11.427.9-1.741 1.573-2.336.444-.679 1.195-1.31.792-.744 1.777-1.483.864-.588 1.765-1.099.9-.51 1.837-.943 2.107-.973 4.863-1.772 2.834-.835 5.104-.842 2.57.234 5.158 1.122 2.63.774 5.008 2.232 2.342 1.381 4.282 3.326 1.982 1.831 3.297 4.064.733 1.177 1.01 2.186.354.972.48 1.861.289 1.855-.462 2.486l-.45.87q-.858.397-1.134.62-.51.33-.739.246-1.039.005-2.882-1.32-3.255-1.717-7.302-1.458-.426.102-.739.246-.348.066-.738.246-2.576 1.19-3.8 4.69-1.218 3.31-1.746 6.678-.486 3.255-.55 6.6-.066 3.344.175 6.736.319 3.356.674 6.791.216 1.7.36 3.242.223 1.507.41 2.936.27 1.201.504 2.324.313 1.087.661 2.252l.048.924q.103.427.09.81.067.35.307 1.28.205.852.577 2.48.451 1.59.932 3.452.444 1.783.955 3.914 1.93 8.484 4.507 17.142l3.618 13.576q.925 3.644 1.412 6.544.529 2.786.656 4.906.133 4.389-.978 6.7-.528.908-1.645 2.18-1.074 1.16-2.383 2.427-1.23 1.231-2.533 2.306-1.225 1.04-2.09 1.628l-3.59 2.889q-1.422 1.225-2.995 2.33-1.459 1.147-3.254 1.976-1.093.505-2.798.914-1.67.486-3.603.811-1.855.289-3.704.385-1.772.06-2.96-.053-2.306-.072-6.462-3.74-2.018-1.909-5.093-4.466-2.997-2.593-7.08-6.105l-8.132-8.176q-1.153-1.267-2.162-2.222-.967-1.068-1.826-1.903-1.67-1.975-1.417-1.428.288.624 1.207 3.23l1.887 6.136q.907 2.99 1.85 6.058.451 1.591.8 2.756.39 1.05.559 1.825.547 2.21.95 4.107.48 1.861.702 3.368.301 2.702-.185 4.726t-1.578 3.759q-1.015 1.7-2.635 3.11-1.621 1.412-3.59 2.89-6.016 4.198-10.7 6.36-4.838 2.235-10.788 3.09-5.987.775-11.259-.389-4.323-.75-8.197-3.6-3.91-2.93-7.213-6.802-3.303-3.873-6.018-8.111-2.673-4.353-4.715-7.955-2.427-4.845-4.775-9.726-2.35-4.881-4.62-9.799-1.225-2.653-3.094-6.904-1.904-4.329-3.977-9.432-2.108-5.182-4.09-10.705-1.941-5.638-3.317-10.874-1.377-5.235-1.93-9.715t.269-7.415q.954-3.47 4.076-4.913 2.185-1.009 6.622-1.448 2.978-.523 5.837.335.648.174 1.219.384.648.174 1.219.384.606.288 1.29.54l1.598.588q3.003 1.17 5.38 2.63 2.42 1.344 4.18 4.13.445.552 1.352 2.31 1.021 1.802 2.397 4.576 1.531 2.701 3.081 6.058.871 1.68 1.7 3.476l1.694 3.668q1.886 3.674 3.364 6.875 1.52 3.086 2.866 5.59 1.7 3.475 3.442 6.837 1.742 3.363 3.988 6.587.66 1.02 2.198 3.53t3.298 5.295q1.802 2.672 3.537 4.995 1.778 2.21 2.649 2.66.715.522 1.387-.073.678-.787.864-1.82.306-1.182.27-2.491-.073-1.387-.187-2.66-.048-.925-.174-1.814-.127-.888-.097-1.849-.132-1.927-.469-3.476-.312-1.087-.973-4.57-.331-1.74-.734-3.638-.438-1.976-.985-4.185-.511-2.132-.908-4.221-.433-2.168-.98-4.377l-.919-3.837q-.367-1.82-.745-3.254l-.553-2.017q-.277-1.01-.625-2.174-.703-2.137-.937-3.26l-.505-1.093q-.252-.546-.463-1.207zm-49.305-6.492q-.36-2.012-.757-2.87-.396-.859-.895-.913-.456-.168-1.267-.077-1.435.378-1.038 3.699.463 3.668 3.287 11.834.655 2.443 1.544 4.779.853 2.257 1.743 4.593.354.973.673 1.867.36.78.726 1.369.733 1.177.883 1.297.991.3.835-.859-.132-.697-.439-1.975-.307-1.28-.937-3.26-1.046-3.495-1.9-6.983-.775-3.525-1.508-7.163-.33-1.742-.559-3.057-.15-1.35-.39-2.281M495.907 444.2q.103 1.657.33 1.741.71.715.967-.162l.216-1.994q.204-1.609.594-4.251.186-1.033.378-2.258.27-1.26.587-2.828.75-3.092 1.206-5.386.564-2.06.834-3.32.234-1.34.294-2.03.12-1.381-1.051-.84-.546.251-1.08 1.35-.57 1.021-1.075 2.39-.426 1.333-.696 2.594-.306 1.183-.402 1.796-.642 3.326-.821 6.629-.215 3.224-.28 6.569m-55.073 25.716q2.24 5.878 3.7 7.193.414.282.57.21.625-.288-.45-4.053-.854-2.257-1.497-5.085-.68-2.906-1.028-5.302-.559-3.056-1.004-4.84-.48-1.86-.805-2.563-.612-1.327-1.891-1.02-1.243.384-1.237 1.423-.011.384.048.925.06.54.265 1.392.204.853.366 1.82.24.93.44 1.975.72 4.023 2.523 7.925m134.47 17.001.202.567q.173.486.681 1.4.48.834 1.068 1.72.59.885 1.23 1.66.612.695 1.052.904.601.15 1.944-.692 6.243-3.226 10.17-8.091 4.006-4.894 6.54-11.363.644-1.78 1.132-3.231t.98-2.63q.493-1.18.823-2.301.331-1.122.691-2.162.25-1.093.448-2.076l.5-2.185q.25-1.093.441-2.348.274-1.283.57-2.757.174-.793.453-1.804.25-1.093.638-2.053.36-1.04.997-1.814.608-.856 1.418-1.144 1.62-.576 3.568.282 1.92.777 2.658 2.339.715 1.753.443 7.142-.044 3.21-.44 6.454-.317 3.215-.742 6.378-.262 1.827-.553 3.573-.21 1.717-.368 3.325-.361 2.318-.786 4.203-.372 1.775-1.015 3.556-.563 1.751-1.45 3.618-.835 1.757-2.017 3.82-3.754 6.63-9.322 10.984-5.597 4.273-12.725 6.81-3.401 1.21-7.583 1.513-4.21.22-7.836-.223-1.66-.048-3.625-.443-1.995-.476-4.047-1.115-1.971-.667-3.89-1.444-1.867-.887-3.434-1.698-3.843-1.826-7.079-4.507-3.264-2.762-5.805-6.055-.861-.88-1.421-1.685-.56-.804-1.01-1.556-.37-.782-.854-1.887l-.952-2.672q-1.354-3.807-1.952-7.792-.544-4.095-.355-8.178.16-4.163 1.142-8.072 1.034-4.018 2.865-7.59 3.089-5.936 7.309-9.719 4.3-3.812 10.7-6.09 8.423-2.997 18.878-2.338 1.636.239 3.607.906 1.943.586 3.81 1.473t3.548 2.022q1.734 1.025 2.982 2.224 2.634 2.53 3.931 6.175 1.096 3.077 1.272 6.391t-.383 6.616q-.478 3.272-1.72 6.452-1.27 3.098-3.065 5.745-3.44 4.692-5.657 6.667-1.945 1.97-6.556 3.885zm-3.713-15.56q.433 1.215 1.243.927.567-.202 1.256-1.086l-.058-.162q1.702-1.884 2.96-4.248 1.31-2.473 2.018-5.098.76-2.735.977-5.458.188-2.805-.324-5.269-.144-.405-.369-.78-.144-.406-.398-.863-.317-.89-1.068-1.719.283.538-.851.942-.729.26-1.395.953-.527.826-1.693 3.705-.938 1.977-1.681 4.248t-1.156 4.7q-.361 2.32-.312 4.766.102 2.336.851 4.442m-18.594-19.937q.313-.659-.108-1.33-.652-1.32-1.948-.858-1.458.519-2.703 2.148-1.274 1.549-2.265 3.635-.91 2.058-1.52 4.191t-.767 3.741-.015 3.29q.137 1.412.72 2.025.665.585.764.094.157-.33-.19-1.302-.49-1.376.126-3.238.667-1.971 1.744-3.815 1.13-1.953 2.347-3.664 1.297-1.739 2.148-2.68 1.46-1.798 1.668-2.237zM613 375.521l-.164.049q2.429-2.694 5.56-3.623 1.237-.367 3.09-.469 1.91-.208 3.837-.063 1.985.04 3.795.399 1.869.252 3.127.865 3.52 1.287 6.138 4.366 2.618 3.08 3.694 6.706 1.027 3.461 1.182 7.003.212 3.434.201 7.024l-.065 5.22q-.032 2.611-.147 5.246-.192.864-.154 4.619-.044 3.78-.27 8.151-.043.461-.131 2.28-.005 1.796-.02 3.863-.039 1.984-.068 3.697.052 1.688.126 1.935-.043.461-.045 1.359.055.79.15 2.018t.24 2.62.196 3.08q.028 1.605.188 3.351.217 1.64.319 3.493.184 1.828.426 3.55.217 1.64.352 3.303.631 3.938 1.133 6.838t.9 4.845q.853 3.782 1.855 4.74.88.546 1.951.228 1.236-.367 2.243-1.204 1.007-.836 1.859-1.896.909-1.167 1.546-2.342.614-1.259 1.11-2.303.696-1.282 1.4-2.837.68-1.636.949-3.15.923-3.234 1.386-6.51.545-3.3.983-6.659.928-7.45 3.812-8.306 1.237-.366 2.602.305 2.846 1.128 4.117 5.414.759 2.555.806 6.038.023 3.4-.623 7.27-.563 3.843-1.703 7.858-1.057 3.99-2.567 7.667t-3.355 6.825q-1.87 3.066-3.869 5.094-6.243 6.157-13.249 8.236-3.79 1.126-8.303 1.03-4.512-.096-8.848-1.41t-8.034-3.803-5.754-6.094q-2.017-3.168-3.365-6.804-1.348-3.635-2.424-7.261l-.978-3.297q-.358-1.508-.7-2.662-.579-2.25-.73-4.268-.128-1.037-.168-1.474t-.284-1.26q-.949-5.01-1.5-10.496-.553-5.486-.858-11.045t-.395-11.003q-.033-5.55-.051-10.746.113-7.476.48-11.98.53-3.654 1.224-7.358t1.874-7.282q.217-.781.64-2.073t1.013-2.632q.564-1.423 1.12-2.574.612-1.258 1.198-1.701m2.147 6.627q-.762 4.082-1.31 8.28-.547 4.198-.362 8.448-.06 1.004.48 1.92.467.668.947.167.231-.427.109-.84-.098-.33.18-2.115l.703-3.975q.402-2.272.852-4.379.51-2.213 1.1-4.451 1.43-4.55 1.369-5.966-.062-1.417-1.875-.879-.742.22-1.197.804-.347.641-.997 2.986zm60.922-23.435-.167.041q2.557-2.572 5.73-3.348 1.253-.306 3.11-.317 1.918-.115 3.835.124 1.98.136 3.771.583 1.854.343 3.08 1.017 3.454 1.456 5.92 4.66 2.464 3.202 3.362 6.877.858 3.507.839 7.052.045 3.44-.14 7.026l-.32 5.211q-.16 2.606-.402 5.232-.234.854-.379 4.606-.228 3.773-.668 8.129-.065.458-.241 2.271-.093 1.793-.208 3.857-.135 1.98-.248 3.689-.03 1.689.031 1.94-.065.458-.11 1.354.016.792.051 2.023.035 1.23.112 2.628.076 1.397.046 3.086-.05 1.605.024 3.357.138 1.648.149 3.504.094 1.835.252 3.567.138 1.648.192 3.316.438 3.964.798 6.885t.662 4.883q.669 3.82 1.622 4.825.852.588 1.938.323 1.253-.306 2.3-1.093t1.948-1.804q.965-1.121 1.659-2.264.674-1.227 1.221-2.246.757-1.247 1.536-2.765.76-1.602 1.1-3.101 1.08-3.185 1.703-6.434.705-3.27 1.306-6.604 1.29-7.395 4.212-8.11 1.253-.306 2.584.43 2.787 1.267 3.849 5.61.633 2.588.51 6.07-.143 3.397-.976 7.23-.75 3.812-2.084 7.766-1.25 3.935-2.937 7.533t-3.684 6.653q-2.017 2.972-4.112 4.9-6.536 5.846-13.635 7.581-3.841.94-8.343.624-4.503-.315-8.77-1.839-4.266-1.523-7.838-4.19t-5.451-6.367q-1.86-3.263-3.029-6.96-1.17-3.696-2.067-7.37l-.817-3.341q-.284-1.524-.57-2.693-.468-2.275-.52-4.298-.078-1.043-.096-1.481t-.223-1.273q-.703-5.05-.988-10.556-.284-5.506-.317-11.074t.14-11.008q.238-5.546.474-10.736.476-7.463 1.063-11.942.707-3.625 1.58-7.29.875-3.665 2.227-7.182.255-.77.74-2.04.487-1.27 1.14-2.58.633-1.393 1.244-2.516.673-1.227 1.28-1.64zm1.82 6.724q-.959 4.04-1.71 8.206-.752 4.167-.774 8.42-.11 1 .386 1.942.434.69.937.213.253-.416.15-.833-.081-.334.283-2.105l.896-3.936q.512-2.25 1.065-4.332.616-2.186 1.316-4.392 1.65-4.475 1.657-5.893.008-1.417-1.83-.968-.752.183-1.234.744-.379.623-1.141 2.934zm148.294 41.602q-1.893 2.997-2.304 6.077-.336 2.984.083 6.483.5 4.183 2.338 7.254 1.829 2.985 4.57 4.908 2.816 1.828 6.373 2.615 3.633.691 7.56.222 3.072-.367 5.436-1.602 2.353-1.32 3.941-3.242 1.579-2.007 2.222-4.594.728-2.598.371-5.586-.102-.854-.978-2.394-.676-1.305-1.693-2.568-1.027-1.35-2.29-2.497-1.187-1.244-2.59-2.115-1.413-.957-2.85-1.391l-16.664-10.476q-11.35-7.302-17.63-13.478-6.32-6.517-7.36-15.225-.663-5.548 1.18-11.137 1.928-5.598 5.41-10.517 3.47-5.003 8.11-8.935 4.638-3.93 9.47-6.24 6.233-2.91 16.05-4.083 6.402-.765 12.486.153 6.169.908 11.091 3.696 5.008 2.778 8.266 7.584 3.334 4.71 4.16 11.624.347 2.902-.245 5.917t-2.11 5.534q-1.516 2.519-3.904 4.276-2.302 1.747-5.546 2.135-1.451.173-4.073-.033-2.537-.216-5.135-.945-2.598-.728-4.65-1.955-1.976-1.322-2.21-3.286-.072-.597.144-.97.71-1.296.773-2.949.147-1.663-.026-3.114-.214-1.792-1.347-3.302-.594-.622-1.273-1.233-.68-.612-1.423-1.042-1.318-.882-2.926-1.296t-3.144-.23q-1.452.174-2.831.945-1.39.685-2.463 1.852-1.083 1.082-1.688 2.54-.53 1.362-.346 2.898.347 2.903 6.398 7.894t18.432 10.784q3.56 2.259 7.349 5.702 3.863 3.348 7.126 7.46 3.251 4.028 5.52 8.518t2.81 9.016q.856 7.17-.407 13.988-1.188 6.722-4.28 12.72-3.018 5.902-7.79 10.888-4.697 4.89-10.848 8.483-8.815 5.21-21.193 6.689-5.72.683-11.451-.19-5.637-.798-10.84-3.034-5.117-2.245-9.448-5.883-4.256-3.734-7.278-8.741-3.255-5.499-3.847-10.45-.612-5.122.323-10.342 1.01-5.315 3.507-9.77 2.498-4.454 6.556-7.45 4.047-3.082 9.681-3.755 4.098-.49 7.078.54 3.161 1.094 3.335 2.545.112.939-.138 1.748-.12.447-.304 1.075-.195.543-.626 1.287m-2.35-62.405q3.76-3.306 3.587-4.758-.133-1.11-1.413-.956-1.195.143-2.865 1.381-1.585 1.229-3.345 3.17-1.684 1.847-3.307 4.205t-2.894 4.762q-1.196 2.308-1.89 4.469-.704 2.075-.52 3.612.152 1.28.92 1.188.598-.071.445-1.352-.033-1.727 1.258-3.96 1.282-2.317 3.096-4.526 1.9-2.218 3.83-4.18 1.93-1.963 3.098-3.055m148.508 51.79q.125.94.192 2.573.154 1.628.256 4.12.06 1.46.03 2.838.054 1.288.014 2.408-.278 3.712-1.256 7.108-.983 3.31-2.305 6.72-1.11 2.283-2.31 4.483t-3.02 3.996q-5.267 5.81-11.263 8.552-2.374.873-4.943 1.15-2.484.275-4.975.377-2.32.096-4.299.092-1.897-.094-3.371-.378-2.072-.173-4.85-.747-2.69-.577-5.478-1.409-2.791-.917-5.332-2.017-2.544-1.186-4.233-2.494-4.966-3.58-7.795-7.508t-4.275-9.805q-.632-2.814-1.082-5.377-.364-2.566-.46-4.885-.35-8.504 3.29-16.226.7-1.836 1.656-3.682 1.038-1.936 2.267-3.449.412-.447.82-.98.49-.623 1.063-1.335 3.696-4.282 8.304-7.311 4.607-3.03 10.066-4.2.77-.118 2.058-.171 1.37-.143 3.26-.22 2.667-.025 4.74.148 2.157.17 4.068.607 1.993.348 4.001 1.04 2.004.606 4.455 1.624l-.008-.172q9.547 4.08 13.058 12.024.368.588.65 1.178.548.752.723.83 2.923 2.032 4.232 4.559 1.394 2.524 2.051 5.939zm-45.673-18.426q4.038-2.231 2.353-3.453-.358-.33-1.045-.3-1.202.049-2.803.889-1.514.837-3.018 1.931t-2.828 2.354q-1.329 1.173-2.07 1.978-4.838 5.792-2.885 7.26.458.67.945-.038l1.78-2.741q.728-1.149 1.888-2.229 1.156-1.166 2.406-2.164 1.332-1.087 2.674-1.917 1.425-.92 2.603-1.57m31.011 23.848-1.13-.298.171-.008q-1.993-.348-3.26-1.845-1.18-1.5-1.938-3.19-.193-.508-.217-1.11l-.054-1.288q.12-1.295.57-2.863.66-2.78.586-4.584t-1.036-2.194q-1.647-.277-4.31 1.898-2.582 2.085-4.44 5.001-2.774 5.793-3.962 12.468-1.191 6.588-.93 12.944l.11 2.663q.043 1.031.15 1.543.021.515.214 1.024.279.504.647 1.092.73 1.002 1.36 1.664.63.663 1.245.982 1.062.73 2.601.495.512-.107.938-.21l1.024-.215q1.188-.393 1.779-.676l-.008-.171q3.537-1.867 5.557-5.048 2.102-3.27 3.328-6.934l.008.171 1.206-6.244zm100.771-3.648q.061.947.02 2.58.041 1.636-.027 4.128-.039 1.46-.162 2.833-.036 1.29-.151 2.404-.53 3.684-1.737 7.006-1.205 3.235-2.757 6.548-1.263 2.202-2.61 4.315t-3.284 3.782q-5.651 5.438-11.82 7.765-2.427.709-5.01.811-2.497.105-4.989.038-2.32-.063-4.295-.202-1.886-.223-3.338-.606-2.055-.314-4.787-1.075-2.645-.76-5.37-1.78-2.722-1.105-5.182-2.375-2.457-1.356-4.053-2.775-4.71-3.911-7.266-8.022t-3.598-10.074q-.44-2.85-.714-5.437-.188-2.585-.125-4.905.229-8.508 4.386-15.965.822-1.783 1.902-3.56 1.168-1.86 2.497-3.287.441-.418.885-.922.532-.588 1.152-1.26 3.978-4.02 8.781-6.729 4.803-2.708 10.329-3.505.776-.065 2.065-.03 1.377-.05 3.268.001 2.662.158 4.717.472 2.142.315 4.019.882 1.965.483 3.92 1.31 1.959.74 4.334 1.923v-.172q9.247 4.721 12.21 12.885.327.611.568 1.22.495.787.665.877 2.778 2.225 3.911 4.836 1.22 2.613 1.643 6.064zm-44.313-21.491q4.18-1.952 2.582-3.285-.334-.353-1.022-.372-1.203-.032-2.857.697-1.568.732-3.142 1.722-1.575.99-2.982 2.155-1.405 1.08-2.2 1.833-5.22 5.45-3.372 7.047.411.7.945.026l1.963-2.613q.803-1.097 2.035-2.096 1.233-1.084 2.547-1.995 1.403-.994 2.8-1.73 1.483-.82 2.703-1.39m29.316 25.903-1.108-.374.171.005q-1.965-.483-3.126-2.063-1.076-1.577-1.717-3.314-.158-.52-.142-1.122.018-.601.036-1.289.207-1.284.764-2.817.848-2.73.896-4.534.048-1.805-.885-2.26-1.623-.388-4.429 1.6-2.718 1.905-4.77 4.688-3.161 5.59-4.8 12.169-1.638 6.492-1.81 12.851l-.071 2.664q-.028 1.032.044 1.55-.018.515.144 1.035.244.523.571 1.134.66 1.05 1.243 1.753.583.704 1.175 1.064 1.01.801 2.562.671.518-.072.95-.146l1.036-.144q1.212-.312 1.82-.553v-.172q3.657-1.622 5.889-4.657 2.32-3.12 3.792-6.692v.172l1.628-6.149zm82.81 6.262q.8-2.946 2.065-5.33l-.018.172q2.2-5.835 2.278-7.555.08-1.72-1.417-1.431-.624.2-1.92 1.111-.742.534-1.493 1.153l-1.594 1.315q-2.438 2.012-4.77 4.725-2.333 2.713-4.52 5.7-2.091 2.908-4.029 6.004t-3.508 5.969q-1.665 2.95-1.796 4.319-.057.599-.245.754.188-.155-.71 2.004-.914 2.33-1.779 4.148-.019.171-.27 1.01-.314.575-.354 1.003-.592 1.67-1.192 3.427-.515 1.764-1.192 3.426-.212.412-.33.746-.112.249-.299.403-.1.163-.212.412-.1.163-.203.326-1.33 1.254-3.33 1.408-1.823.085-3.714-.011l-3.594-.344q-2.653-.254-4.442-.512-1.703-.25-2.628-.511-2.502-.93-4.262-2.395-1.751-1.55-2.948-3.477-1.112-1.92-1.763-4.142-.643-2.307-.927-4.752-.243-1.06-.3-2.275-.114-.615-.142-1.222.066-.685.047-1.378.073-.77.071-1.634l.189-1.968.516-5.392q.492-5.135 1.26-9.552.77-4.417 2.027-8.529 1.343-4.103 3.277-8.063 1.942-4.046 4.679-8.275 1.02-1.63 2.577-3.466 1.643-1.83 3.368-2.7 1.007-.595 2.392-.635 1.394-.126 2.592-.011 2.225.213 5.163 1.099 3.024.894 5.725 2.448t4.738 3.736q2.044 2.096 2.397 4.72.423 2.805-.928 6.993-.433.909-.873 1.903-.347.917-.882 1.988-.449 1.08-.881 1.989-.425.823-.926 1.552.868-.953 1.455-1.674l.767-.79q.392-.481.946-.86 1.737-1.906 4.02-4.106 2.284-2.2 4.885-4.11 2.695-1.986 5.427-3.452 2.74-1.551 5.38-2.076l-.171-.016q2.127-.574 2.983-.492.942.09 2.237.992 1.825.78 3.508 2.15 1.682 1.37 3.067 3.143 1.384 1.774 2.402 3.771 1.018 1.998 1.351 3.93.131.444.175.88t.175.88q.031 1.472 0 2.764-.037 1.292-.177 2.746l-.327 3.424q-.155 1.626-.475 3.15-.31 1.438-.637 3.048-1.343 4.103-2.556 8.65-1.205 4.462-1.965 8.794-.838 4.238.03 5.098.749 1.195 2.033 1.318 1.026.098 2.384-.549 1.366-.733 2.662-1.645 1.305-.998 2.438-2.012 1.142-1.1 1.73-1.82 3.107-3.59 5.236-7.79 2.215-4.192 3.343-8.748 1.306-4.625 1.252-9.467 1.278-5.232 2.819-5.084 1.54.147 4.013 2.284.774.938 1.421 2.295.655 1.272 1.115 2.785.554 1.434.85 2.845.297 1.41.353 2.624 0 1.728-.385 4.023-.756 3.382-1.768 6.74-.927 3.365-2.351 6.51-1.46 2.624-2.99 5.069-1.444 2.452-2.88 4.82-2.864 4.648-6.724 6.178t-9.166 1.022q-6.675-.64-12.66-3.976-4.11-3.071-6.179-6.724-1.974-3.73-2.713-8.637-.459-3.326-.27-5.294l.287-2.995q.244-.754.31-1.439l.319-1.524q.13-1.37.657-2.355.253-.84.625-2.013.371-1.174.775-2.69zm-32.87-27.417q.637-1.234.413-1.601-.431-.905-1.373-.996-.958.081-1.81.863-.775.876-1.733 2.77-.865 1.818-1.763 3.977-.89 2.074-1.608 4.165-.71 2.004-1.013 3.357-.743 2.347-.38 3.073.317.29.656-.542.212-.411.653-1.405.44-.995 1.195-2.563.71-2.005 1.84-3.883 1.224-1.956 2.595-3.638.893-1.21 1.41-2.11.604-.892.919-1.467m65.492 78.462q.525-.618.965-1.249l1.026-1.065q.941-1.078.979-1.333.025-.17-.02-.523-.022-.438-.117-.973-.095-.536-.288-.999-.18-.547-.372-1.01l-.506-1.291q-.24-.73-.552-1.559-.325-.743-.565-1.473-.155-.718-.42-1.279-1.298-3.58-.287-6.907.876-3 3.158-4.923 2.367-1.91 5.35-2.688 1.813-.515 3.344-.29 1.956.288 4.147 2.523 2.191 2.234 4.002 5.281 1.823 2.963 2.83 6.152 1.106 3.118.793 5.244-.576 3.912-6.704 9.528-.988.81-2.061 1.608t-2.16 1.68q-.67.423-2.206 1.414-1.549 1.075-3.34 2.028-1.706.965-3.375 1.675-1.584.723-2.35.61-.51-.075-1.345-.893t-1.548-1.879q-.725-.976-1.256-2.096-.457-1.024-.382-1.534.188-1.276 3.25-3.78zm4.503-18.194q-.225 1.53.503 1.899.642.355 1.28-1.028.686-1.116.837-2.137.078-1.118-.348-1.18-1.871-.276-2.272 2.446m227.553-16.616q-.053.52-.21 1.101-.054.52-.128 1.124l-.339 1.244q-.076.603-.278 1.35-.588 2.156-1.364 4.35-.776 2.195-1.613 4.284-.98 2.94-2.637 5.43-1.659 2.488-3.77 4.675-11.525 12.543-29.477 15.315-2.345.43-4.698.234-1.44.054-1.342.348.076.377 1.313 1.07.309.173.678.452.37.28.988.626.596.43 1.11.837l1.19.859q.325.445.672.806.43.385.777.747.324.444.626.972.407.468.77 1.1.444.657.927 1.501l1.086 1.9q.581 1.138 1.283 2.488.784 1.372 1.644 3.121 1.185 2.194 2.067 3.86t1.547 2.827l1.146 2.006q.566.866 1.056 1.356.92.875 1.818.852.897-.023 2.345-.43 2.035-.604 3.03-.333.747.203 1.087.92.475 1.198-.475 2.722-.783 1.568-2.48 2.888-1.613 1.343-3.596 2.407-1.9 1.086-3.92 1.961-1.998.792-3.656 1.32-1.26.37-2.828.567-1.508.302-3.137.393-1.545.113-3.129.038-1.5-.052-2.744-.391-1.908-.52-4.548-1.952-1.13-.754-2.179-1.485-.966-.708-1.848-1.394-.897-.958-1.908-2.48-.928-1.5-1.81-3.167-.86-1.749-1.555-3.453-.61-1.681-.98-2.94-.96-3.024-.869-3.355l-.121-.211q-.302-.528-.25-1.048l-.86-4.69q-.265-1.32-.89-3.272-.522-2.013-1.291-4.094-.77-2.081-1.796-3.875-.92-1.855-1.923-2.752-1.162-1.297-3.786-2.457l-2.36-.821-3.663 8.536-1.205 3.77-1.718 3.364-.527 3.242-.407 1.493q-.12.77-.414 1.848-.211 1.1-.46 2.013-.144.852-.158 1.56-.497 3.786-1.334 4.895-1.025 1.146-4.229 1.788-.483.136-.86.211-.4.159-.61.28-.377.075-.92.105t-1.29-.173q-.437-.03-1.1-.21l-1.577-.43-3.98-1.085q-2.075-.565-2.399-1.01l-.784-.392q-.392-.196-.867-.414-.453-.302-.95-.437l-.913-.249q-.37-.279-.762-.475-.415-.113-.701-.369-.784-.392-.943-.791-.076-.377-.603-1.056-.528-.678-1.358-1.885-1.237-1.673-2.06-3.234-.957-2.043-.868-4.335.09-2.292.406-4.434.241-1.538.535-3.597.293-2.058.7-4.531.497-2.805 2.034-7.466 1.725-5.678 3.737-11.1 2.117-5.482 4.483-10.896 1.251-2.956 2.457-5.747 1.289-2.767 2.592-5.263 1.425-3.265 1.786-4.593.535-.656.776-1.214.347-.618.671-1.154.219-.475.31-.806.195-.393.24-.559.234-.203 1.169-1.998 1.002-2.044 2.064-3.982 1.086-2.02 2.337-3.997.761-1.485.678-1.508-.332-.09-2.639.529-2.201.558-4.93 1.419-2.647.882-5.128 1.81-2.374.868-3.241 1.434-.212.12-.528.302-.294.098-.505.219-.317.18-.762.505-.444.324-1.123.852l-1.462 1.117q-1.222 1.538-2.134 1.29-.415-.113-.822-.58-.385-.551-.747-1.184-.362-.634-.64-1.244-.197-.589-.378-.905-3.727-9.213-2.342-16.588 1.385-7.374 7.416-12.503 2.887-2.421 6.929-4.172 4.04-1.75 8.466-2.95t8.905-1.94 8.218-1.058q6.726-.484 13.814-.336 7.11.066 13.693 1.414l10.037 2.735q.972.354 1.862.686.996.27 1.863.685 9.026 3.172 15.95 9.157t10.763 14.784q2.656 5.624 3.48 11.105.928 5.422.59 11.567-.037.792-.218 1.455-.076.603-.067 1.23zm-70.633-46.866q2.548-.197 2.707-.777.196-.392-.468-.573-1.161-.316-3.544-.075-2.36.16-4.976.605-2.617.446-5.172.997-2.473.573-3.921.98-.694.257-2.835.922-2.058.686-4.35 1.577-2.187.83-4.041 1.75-1.75.86-1.953 1.606-.474 1.742.687 2.059 1.161.316 4.087-.936 5.79-2.61 11.655-4.844 5.866-2.234 12.124-3.29m44.147 54.798q.354-.973.52-1.908.165-.935 0-2.315-.054-1.44-.378-2.865-.22-1.485-.732-2.872-.43-1.365-1.019-2.15-.71-1.975-2.708-4.123t-3.658-3.58q-.8-.664-1.538-1.222-.74-.557-1.418-1.01-.717-.64-3.1-1.379-1.116-.482-2.277-.798-1.056-.377-2.089-.837l-5.595-1.702 1.448 2.533q1.811 3.166 1.382 5.722-.535 2.617-4.017 7.55-.988 1.334-2.261 3.393-.731 1.048-1.38 2.119-.625.988-1.356 2.036-1.274 2.059-2.442 4.057-.603.905-.972 1.607-.264.64-.543 1.01l-.995 1.69q-.603.904-1.04 1.855-.377 1.055-.791 1.922l-.543 1.991 3.28.716 1.539.24q.769.12 1.726.204.958.082 1.75.12.874.06 1.583.075 3.936.27 7.97-.146 4.057-.498 7.736-1.902 3.762-1.38 6.838-3.84 3.076-2.458 5.073-6.191zm92.45 52.869q-.244.918-.805 2.451-.481 1.564-1.338 3.905-.503 1.372-1.056 2.634-.444 1.211-.909 2.231-1.675 3.324-3.877 6.088-2.172 2.684-4.698 5.33-1.898 1.685-3.848 3.26t-4.317 2.539q-7.088 3.356-13.677 3.598-2.527-.1-5.008-.826-2.4-.696-4.741-1.553-2.18-.798-4.007-1.559-1.717-.811-2.971-1.637-1.849-.951-4.196-2.543-2.266-1.562-4.524-3.396-2.229-1.915-4.156-3.902-1.898-2.068-2.96-3.921-3.22-5.208-4.333-9.918-1.113-4.711-.204-10.695.491-2.842 1.055-5.382.644-2.51 1.442-4.69 2.927-7.992 9.241-13.737 1.348-1.43 2.937-2.77 1.7-1.392 3.413-2.32.552-.256 1.133-.593.691-.388 1.493-.827 5.051-2.545 10.467-3.583 5.415-1.038 10.907-.035.756.186 1.967.629 1.322.392 3.098 1.042 2.473.997 4.322 1.949 1.93.981 3.528 2.116 1.709 1.083 3.3 2.49 1.62 1.325 3.496 3.202l.06-.161q7.262 7.42 7.47 16.102.116.683.151 1.337.219.904.35 1.044 1.926 2.994 2.17 5.83.323 2.865-.375 6.271m-35.164-34.482q4.584-.518 3.493-2.29-.204-.442-.85-.678-1.13-.414-2.93-.25-1.72.195-3.527.632t-3.514 1.094q-1.675.577-2.668 1.037-6.684 3.504-5.44 5.607.167.794.888.325l2.692-1.852q1.11-.784 2.596-1.339 1.514-.635 3.05-1.08 1.647-.496 3.204-.75 1.668-.304 3.006-.456m19.543 33.89-.93-.708.161.06q-1.709-1.084-2.307-2.951-.517-1.837-.572-3.689.018-.543.223-1.108l.443-1.211q.605-1.152 1.621-2.428 1.673-2.317 2.293-4.012.621-1.696-.12-2.425-1.415-.884-4.708.108-3.182.94-6.015 2.924-4.776 4.294-8.424 10.008-3.619 5.633-5.806 11.607l-.917 2.502q-.354.97-.45 1.483-.178.484-.194 1.028.064.573.18 1.256.292 1.205.62 2.058.329.853.776 1.383.703 1.081 2.215 1.452.514.096.947.163l1.028.194q1.248.09 1.902.055l.06-.161q3.981-.373 7.063-2.54 3.193-2.22 5.726-5.137l-.059.162 3.5-5.31zm45.718-16.124q3.734-4.729 7.626-9.387 4.005-4.701 8.332-9.07 4.326-4.368 8.981-8.21 4.77-3.886 10.11-6.948 1.663-.76 3.105-1.24 1.479-.56 2.737-.842 2.56-.449 5.068.682 1.176.53 2.288 1.408.557.44 1.156.993.635.475 1.191.914 2.284 2.255 4.113 4.683 1.943 2.384 2.898 5.078 1.068 2.65 1.07 5.575.038 2.846-1.375 5.98-1.413 3.136-5.12 7.594-1.758 2.226-4.304 4.945-2.467 2.754-5.6 6.15l-8.94 10.21 1.195.068-.157-.07q7.189.788 13.772 3.755 5.095 2.296 8.224 6.442 3.243 4.102 5.33 9.097 1.788 5.238 1.137 11.075-.536 5.793-2.797 10.81-2.12 4.702-5.388 8.604-3.232 3.824-7.342 6.875l.069-.157q-3.855 2.695-6.384 3.912-2.423.983-4.592 1.608t-4.386.946q-2.106.277-4.454.256-2.234-.064-4.825-.383-5.182-.638-9.022-2.37-2.351-1.06-4.357-3.095-1.892-2.079-3.302-4.6t-2.25-5.258q-.806-2.815-.985-5.347l.106-.235q.15-.122.326-.514.29-.435.467-.827l.354-.783-.334.32-2.751 5.268q-.863 1.496-1.507 2.715-.565 1.254-1.103 2.238-.883 1.96-1.558 2.41-1.447 1.327-3.274 1.824-1.748.532-3.677.417t-3.872-.614q-1.909-.577-3.477-1.284-3.84-1.73-7.08-4.794-3.126-3.107-3.802-7.466-.663-5.014 2.553-14.032.507-1.752 1.249-3.398.31-.897.55-1.638l.67-1.489.707-1.567.934-1.654q.742-1.646 1.825-3.421 1.734-2.802 3.473-6.45 1.005-1.81 1.712-3.378.784-1.532 1.542-2.794 2.559-5.259 5.98-10.13 3.421-4.87 7.164-9.407zm26.367 28.954q-3.905.503-7.296 8.027-.813 1.803-1.511 3.562-.664 1.682-1.163 3.626-.369.4-.527 2.214l-.216 1.317q-.295 1.282-.496 2.983-.2 1.7-.359 3.516-.044 1.771.026 3.5.183 1.686.578 2.901.521.518.913.695 1.176.53 2.945-.465 1.846-.96 3.592-2.53t3.255-3.248q1.546-1.755 2.24-2.668l1.538-1.947q1.31-1.861 1.146-2.124.887-.92 1.154-1.932.17-.584.38-1.054l.39-.862.458-1.019q.46-1.019.747-2.493.365-1.438.382-2.94.13-1.544-.159-2.994-.21-1.415-1.017-2.345-1.622-2.051-3.703-3.083-2.01-1.19-3.296-.637zm-1.673-45.453q-.954 2.116-.114 1.929.768-.031 3.365-2.444 2.404-2.406 4.894-4.584t5.38-3.987q2.295-1.323 2.99-2.236.658-.835.271-1.858-.188-.84-.815-1.122-1.567-.706-5.364 2.486-1 .964-2.632 2.492-1.517 1.484-3.141 3.204-1.589 1.642-2.985 3.275-1.318 1.67-1.848 2.845zm110.095 113.103q-.375.873-1.152 2.31-.702 1.477-1.888 3.67-.696 1.285-1.426 2.454-.613 1.134-1.22 2.076-2.138 3.047-4.717 5.464-2.537 2.341-5.418 4.594-2.123 1.394-4.28 2.67t-4.638 1.889q-7.499 2.296-14.054 1.584-2.485-.465-4.835-1.54-2.275-1.036-4.467-2.223-2.042-1.104-3.74-2.12-1.582-1.052-2.704-2.05-1.692-1.209-3.784-3.123-2.017-1.873-3.986-4.014-1.929-2.216-3.549-4.462-1.579-2.32-2.36-4.307-2.435-5.618-2.856-10.44t1.343-10.612q.897-2.741 1.822-5.173 1-2.391 2.105-4.433 4.05-7.485 11.129-12.257 1.54-1.22 3.306-2.317 1.883-1.131 3.712-1.803.583-.173 1.207-.423.74-.283 1.596-.602 5.367-1.788 10.875-2.033 5.51-.245 10.798 1.541.722.293 1.856.907 1.25.579 2.914 1.479 2.303 1.344 3.995 2.552 1.768 1.25 3.186 2.604 1.534 1.319 2.905 2.94 1.412 1.546 2.997 3.675l.081-.152q6.114 8.392 5.066 17.013.018.693-.044 1.345.085.926.196 1.083 1.472 3.24 1.303 6.082-.094 2.882-1.276 6.152zm-29.814-39.2q4.611.148 3.788-1.763-.138-.466-.744-.794-1.058-.572-2.863-.67-1.73-.055-3.581.116-1.852.17-3.635.575-1.741.328-2.79.64-7.12 2.501-6.193 4.762.052.81.831.45l2.932-1.443q1.212-.615 2.762-.95 1.59-.41 3.175-.628 1.7-.253 3.278-.279 1.695-.06 3.04-.016m14.442 36.356-.82-.834.152.082q-1.535-1.32-1.857-3.253-.247-1.893-.034-3.732.094-.536.38-1.065l.614-1.134q.765-1.053 1.955-2.168 1.99-2.052 2.85-3.64.858-1.587.231-2.415-1.273-1.08-4.674-.575-3.285.471-6.374 2.025-5.347 3.559-9.783 8.685-4.394 5.051-7.422 10.647l-1.268 2.344q-.491.907-.661 1.402-.245.453-.34.989-.018.576 0 1.269.115 1.235.316 2.126.202.891.568 1.48.54 1.172 1.982 1.757.494.17.913.299l.99.34q1.222.27 1.874.33l.08-.152q3.995.206 7.358-1.493 3.48-1.734 6.408-4.255l-.081.151 4.231-4.749zm47.3-27.611q1.428 3.91 5.453 6.391 1.39.857 2.916 1.495l1.087.367 4.379-3.663q2.248-1.846 3.916-3.241 1.669-1.396 2.948-2.324 1.352-.883 2.868-1.867 1.516-.985 3.387-2.053.755-.242 1.555-.557.845-.388 1.853-.877 1.082-.444 1.955-.714.919-.343 1.82-.494 1.791-.612 3.43-.814 1.685-.274 3.492.234 1.177.22 2.421.987 1.554.756 2.078 1.382 2.189 1.855 4.282 4.357 2.138 2.43 3.657 4.88l-.146-.09q.405.654.979 2.017.618 1.29 1.146 2.727.602 1.482.984 2.828.427 1.273.286 1.994-.752 3.677-6.788 7.733-2.66 1.693-3.5 2.892-.597.642-1.031 1.182-.361.586-.733.861l1.464.903q.704.333 1.553.756l.586.36q2.083.88 4.03 1.98 2.067 1.072 3.97 2.245 1.537.948 2.516 1.653 1.025.631 1.565 1.065l.99 1.015q.496.507.856 1.234 1.591 2.496 1.658 4.355.11 1.786-1.615 4.257-1.945 2.335-4.306 3.708-.935.534-2.191.77-.665.095-1.138.207-.428.04-.665.095-1.785.112-1.988-.215-.422-.462-.888-2.164-.393-1.656-2.065-2.384l-4.644-2.459.145.09-12.904-5.935q-8.702 7.563-17.111 15.306t-16.093 16.439q-5.023 5.69-8.452 11.252-.631 1.024-.925 2.156-.175 1.104 1.069 1.87.731.452 2.117.498 3.396-.431 6.771-1.482 3.493-1.078 6.62-2.382.817-.507 1.544-.866.845-.388 1.572-.748 1.335-.692 1.554-.557.282-.129 2.316-1.299 1.054-.562 2.08-1.243 1.143-.709 2.406-1.445 2.197-1.272 4.412-2.734 2.214-1.463 4.328-3.089 3.522-2.272 5.16-2.474.592-.14 1.25.266 1.172.722 1.491 2.333.438 1.583.172 2.833-.373 1.588-1.873 3.693-1.517 2.297-4.825 5.206-3.263 2.836-7.146 5.694t-7.805 5.288q-3.877 2.357-6.767 3.605-1.927.832-3.6 1.416-1.628.512-3.02.967-2.456.707-4.58.711-2.05.05-3.975-.431-1.853-.435-3.818-1.343-1.846-.937-3.912-2.009l-2.489-1.534q-.979-.704-1.71-1.155-1.228-.959-2.494-2.345-1.193-1.342-2.324-2.948-1.057-1.56-1.952-3.223-.82-1.617-1.467-3.026-1.86-4.681-1.936-9.474-.03-4.867 1.09-9.63 1.164-4.838 3.122-9.488 2.03-4.606 4.22-8.811 1.161-2.213 2.29-4.042 1.172-1.903 2.283-3.54.406-.66 1.02-1.493.615-.833 1.529-1.987 2.531-3.287 5.017-6.5 2.56-3.17 5.44-6.04.08-.456.215-.675l.27-.44q.271-.439-1.62-1.302l-5.27-3.248-2.178-1.545q-.44-.27-.523-.626-1.318-.812-2.55-2.581-1.187-1.843-1.715-3.28-1.487-6.27 4.097-9.593 2.823-1.795 5.949-1.787 3.17-.065 6.025 1.695 1.463.902 2.015 1.646.478.699 1.062 2.372zm18.071 10.332q-1.24 1.357-.739 1.363.62-.022 2.39-1.254 1.904-1.452 3.166-2.189 1.488-1.102 3.15-1.997 1.736-.849 3.353-1.67 1.881-.758 3.69-1.562l3.854-1.664q.862-.58 1.167-1.402.721-1.17-.55-2.056-.597-.67-1.335-.62-.665.095-2.011.476-1.718.658-4.096 2.222-2.277 1.727-4.436 3.426t-4.334 3.59q-2.248 1.846-3.269 3.337m31.723 20.582q1.25 3.97 5.16 6.629 1.351.919 2.847 1.624l1.069.415 4.539-3.463q2.329-1.743 4.058-3.062 1.729-1.32 3.049-2.19 1.39-.82 2.949-1.736t3.475-1.9q.765-.207 1.578-.485.862-.35 1.891-.794 1.1-.395 1.985-.625.933-.301 1.84-.412 1.817-.532 3.464-.66 1.695-.198 3.478.39 1.165.274 2.374 1.096 1.518.824 2.013 1.473 2.104 1.95 4.083 4.545 2.027 2.522 3.434 5.039l-.142-.097q.376.671.887 2.059.56 1.317 1.024 2.776.534 1.507.855 2.869.37 1.291.197 2.005-.917 3.64-7.128 7.42-2.732 1.573-3.626 2.733-.625.614-1.083 1.135-.387.568-.77.827l1.42.967q.69.364 1.52.825l.568.387q2.042.972 3.938 2.159 2.016 1.163 3.864 2.42 1.493 1.015 2.44 1.763.995.677 1.516 1.135l.944 1.058q.471.529.798 1.271 1.479 2.565 1.462 4.425.032 1.789-1.804 4.18-2.047 2.246-4.467 3.512-.959.491-2.224.67-.669.066-1.146.157-.43.02-.669.065-1.788.03-1.976-.305-.4-.48-.79-2.2-.319-1.673-1.956-2.475l-4.53-2.665.142.097-12.625-6.508q-9.032 7.165-17.78 14.523-8.748 7.359-16.814 15.701-5.273 5.46-8.948 10.862-.676.995-1.02 2.113-.225 1.094.983 1.916.711.484 2.093.592 3.412-.278 6.83-1.176 3.538-.921 6.72-2.084.84-.47 1.582-.796.861-.35 1.604-.677 1.365-.63 1.578-.486.287-.116 2.372-1.194 1.077-.514 2.133-1.148 1.174-.657 2.468-1.337 2.252-1.171 4.53-2.533t4.462-2.891q3.62-2.113 5.267-2.24.597-.114 1.237.321 1.137.774 1.384 2.397.367 1.601.044 2.838-.443 1.57-2.036 3.606-1.618 2.226-5.054 4.984-3.387 2.687-7.394 5.368t-8.034 4.933q-3.979 2.18-6.922 3.298-1.962.745-3.66 1.253-1.649.438-3.06.83-2.485.597-4.606.506-2.05-.043-3.953-.609-1.831-.518-3.753-1.513-1.803-1.018-3.82-2.182l-2.416-1.644q-.947-.748-1.658-1.231-1.183-1.013-2.385-2.455-1.132-1.393-2.19-3.048-.986-1.607-1.805-3.308-.748-1.652-1.33-3.088-1.65-4.76-1.51-9.552.189-4.863 1.52-9.572 1.38-4.78 3.545-9.338 2.235-4.51 4.61-8.613 1.26-2.158 2.469-3.935 1.257-1.848 2.44-3.435.435-.64 1.087-1.444.651-.805 1.615-1.917 2.676-3.17 5.304-6.27 2.7-3.05 5.705-5.788.1-.453.245-.666l.29-.426q.29-.427-1.56-1.374l-5.12-3.481-2.106-1.641q-.427-.29-.495-.649-1.28-.87-2.43-2.693-1.104-1.894-1.567-3.353-1.205-6.33 4.522-9.4 2.9-1.666 6.023-1.518 3.171.077 5.943 1.963 1.422.967 1.94 1.734.446.72.955 2.418zm17.59 11.132q-1.3 1.3-.8 1.328.62.005 2.443-1.146 1.968-1.365 3.262-2.044 1.536-1.035 3.236-1.854 1.772-.77 3.424-1.518 1.914-.674 3.757-1.396l3.924-1.49q.888-.54 1.229-1.347.774-1.137-.458-2.079-.565-.697-1.305-.68-.668.066-2.03.387-1.746.58-4.192 2.035-2.352 1.624-4.585 3.225t-4.49 3.392q-2.33 1.743-3.415 3.187m2.636 65.248q3.654-4.564 8.319-7.908 4.717-3.412 9.979-5.421 5.382-2.025 11.067-2.618 5.752-.54 11.476.64 7.096 1.374 12.664 5.698 4.142 3.217 6.868 7.837 2.793 4.672 4.569 9.534l.347.814q1.462-1.041 2.729-1.69 1.387-.665 2.66-.764 1.275-.1 2.557.352 1.35.504 2.844 1.664 1.019.791 1.577 1.334.626.595 1.011 1.22.453.679.8 1.493t.741 1.99l-.204-.158q2.69 5.789 2.051 9.974-.479 3.981-2.166 6.154-.422.543-1.349 1.456-.859.966-2.343 2.317-1.417 1.404-2.991 3.01-1.575 1.608-3.376 3.366-1.733 1.811-3.518 3.69-1.786 1.88-3.692 3.773-3.73 3.961-6.102 7.017-2.268 2.92-3.977 5.402-1.642 2.535-2.658 4.684-2.221 4.262-.388 5.686 1.086.844 2.715 1.129 1.682.217 3.454.178 1.892-.054 3.634-.334t2.933-.553q4.282-1.029 8.374-3.075 4.146-2.115 7.393-5.035 2.517-2.4 3.851-2.997 1.16-.513 2.858.805 1.29 1.002 1.525 2.381.235 1.38-.201 2.783-.316 1.388-1.13 2.715-.745 1.38-1.535 2.4-1.53 1.968-3.64 3.704t-4.559 3.208-5.065 2.598q-2.495 1.11-4.847 1.896-6.324 1.837-12.576 1.337-6.13-.516-11.494-4.681l-.747-.58q-.408-.317-.83-.754l-1.472-1.469q-2.717-3.09-4.476-6.85-1.76-3.762-2.638-7.818t-.79-8.233 1.132-8.046l.36-2.006q-2.856 1.156-6.4 2.214-3.422 1.043-7.056 1.378-3.513.32-6.96-.289-3.325-.623-5.973-2.68-3.735-2.9-6.528-6.592-2.792-3.693-4.372-7.967-1.579-4.274-1.778-8.783-.148-4.577 1.358-9.177.91-2.994 2.4-5.755 1.544-2.829 3.533-5.53zm71.422 12.033q-1.59.506-2.381 1.525l.03.24q.271.212.942.189.792-.039 1.569-.198.844-.106 1.537-.438.762-.28.973-.551.369-.476-.173-.897-.815-.633-2.496.13zm-47.773 11.339q-.806.898-1.77 2-.965 1.1-2.087 2.406l-2.32 2.988q-.829 1.207-1.025 1.6-.512.799-.33 2.246l.589-.196q.723-.091 1.138-.205.294-.098.724-.09.43.007 1.033-.07 3.905-.123 7.9-1.483t7.832-3.497 7.37-4.726 6.466-5.102q3.316-2.868 5.124-4.076.4-.234.626-.385.279-.219.49-.49l.632-.815q.686-.883.073-1.357-.61-.475-1.795-.632-1.13-.226-2.473-.18-1.29-.02-2.564.078l-1.93.243q-3.053.568-6.197 1.392-3.023.809-5.864 2.085l.136.106q-2.2 1.012-4.44 2.213-2.185 1.132-4 2.77-.89.724-1.711 1.502-.754.83-1.628 1.675zm.534-31.805q-.58.747.03 1.222.272.21 1.358.074.535-.129 1.5-.25 1.033-.069 2.654-.334 1.327-.167 2.616-.145 1.41.008 2.836.134 2.352.194 4.6.524 2.3.262 4.547.592 1.644.406 1.907.067.317-.408-.053-.913-.249-.52-1.879-1.785-1.018-.791-2.474-1.16-1.402-.436-3.016-.6-1.614-.165-3.197-.089-1.463.062-2.67.214l-1.93.242q-1.258.22-2.69.523-1.365.355-2.594.816-1.176.393-1.545.868m59.12 98.841 12.71 11.356-14.208 15.902-12.71-11.355zm69.307-77.57 12.71 11.356-36.64 41.007-21.221 21.232-10.143-9.062 18.655-23.525z" aria-label="Get Well Soon, Robotta!" style="font-size:93.2913px;line-height:2;font-family:&quot;Magic Bubble&quot;;-inkscape-font-specification:&quot;Magic Bubble&quot;;text-align:center;text-anchor:middle;fill:#0a8bbd;fill-opacity:1;stroke-width:5.52918;stroke-linecap:round"/><path d="M989.305 2137.416a778.998 259.666 0 0 0-778.996 259.666 778.998 259.666 0 0 0 778.996 259.666 778.998 259.666 0 0 0 654.467-118.83l-70.42-93.592 191.658-23.392a778.998 259.666 0 0 0 3.293-23.852 778.998 259.666 0 0 0-778.998-259.666" style="fill:url(#h);fill-opacity:1;stroke-width:2.57447;stroke-linecap:round"/><path d="M161.3 649.747q-1.216-3.027-2.295-5.494-1.367-2.674-1.645-3.001-1.335-1.573-2.45-.628-1.572 1.335-2.684 3.745-1.168 2.344-1.9 5.334-.668 2.934-1.001 6.261-.39 3.262-.47 6.488-.015 3.17.23 6.119.192 2.882.629 4.991.942 5.628 2.651 10.83 1.653 5.137 4.165 10.222.83 1.776 1.707 3.739.942 1.907 1.92 4.121l1.704 2.275q3.616 4.26 7.23 7.057 3.613 2.796 7.376 3.775 3.772.858 7.834-.334 4.007-1.258 8.464-5.041 1.9-1.613 3.821-3.469t3.079-4.078q1.164-1.552 2.03-3.189.931-1.692 1.686-3.46l1.742-3.396-2.784-4.741-1.073-1.796q-.47-.953-.886-1.841-.886-1.841-1.498-2.562l-.223-.263-.961-1.664-1.553 1.093q-.918.778-1.931 1.976t-1.98 2.583q-.968 1.385-1.758 2.845-.78 1.339-1.178 2.465-.603 1.415-.42 2.161.389.46.127.682-.59.5-1.737.346-1.146-.155-2.328-.618-1.237-.528-2.344-1.168-1.04-.695-1.486-1.22l-.39-.458-1.203-1.684.04-.485q-.982-1.422-1.121-3.446-.195-2.09.104-4.261.31-2.293.842-4.323.598-2.086 1.146-3.566 2.298-6.46 6.54-12.09 4.243-5.63 9.42-10.025 2.098-1.78 4.428-3.42 2.396-1.694 4.843-2.53 2.513-.893 5.123-.74 2.61.152 5.324 2.021l2.213 1.28 12.07 20.2q4.494 7.688 9.13 15.142 4.645 7.334 9.85 14.53 1.993 2.481 2.029 2.789.091.373-.69 1.712-.357.642-1.294 1.663-.817 1.031-1.941 2.098-1.059 1.011-2.107 1.901-.994.956-1.583 1.457-2.36 2.002-5.11 3.546-2.627 1.554-5.55 2.23-2.8.685-5.764.382-2.898-.36-5.743-2.117-2.259-1.466-2.98-.854l-2.725 4.23q-2.397 3.95-5.396 7.06-2.878 3.119-6.352 6.067-13.83 11.738-33.798 14.251-6.103.781-11.313.355-5.145-.482-9.762-2.202-4.551-1.775-8.686-4.92-4.068-3.2-8.073-7.919-5.452-6.423-9.756-14.949-4.359-8.59-7.195-17.91-2.826-9.442-4.056-18.997-1.165-9.61-.34-18.204.311-4.55 1.34-8.917.973-4.434 2.708-8.5 1.802-4.123 4.356-7.757t6.094-6.637q3.212-2.726 7.651-4.802 4.384-2.142 9.36-3.32 4.986-1.3 10.256-1.6 5.28-.423 10.208.469 4.994.836 9.274 2.955t7.338 5.724q1.836 2.163 3.537 5.23 1.71 2.946 2.962 6.28 1.252 3.336 1.944 6.808.701 3.351.463 6.26-.11 3.589-1.88 5.09-1.246 1.058-3.218 2.055-2.028.932-4.289 1.723-2.25.67-4.547 1.153-2.23.427-3.937.41-3.17-.015-4.839-1.983-.612-.72-1.305-1.936-.628-1.272-1.312-2.608-.673-1.458-1.236-2.785t-.912-2.27m-33.431-11.092q1.46-2.93.736-3.783-.834-.983-2.407.352-.721.612-1.627 2.734-.961 2.056-1.775 4.551-.87 2.43-1.488 4.758-.673 2.262-.939 3.278-.591 2.757-1.052 5.403-.516 2.58-.79 5.18-.417 5.09 1.252 7.056.5.59.763.368.525-.445 1.309-6.297.505-6.18 1.96-12.039 1.4-5.923 4.058-11.561m140.217-2.046.35.49q.3.419 1.04 1.158.69.67 1.5 1.358.81.69 1.64 1.259.78.499 1.259.578.62-.02 1.678-1.2 5.114-4.82 7.55-10.578 2.504-5.808 3.16-12.724.129-1.889.198-3.418.07-1.529.218-2.798.15-1.27.159-2.439t.068-2.268q-.06-1.12-.14-2.12l-.122-2.238q-.06-1.119-.221-2.378-.091-1.31-.212-2.808-.05-.81-.06-1.86-.061-1.118.048-2.148.06-1.1.458-2.019.35-.99 1.049-1.49 1.398-1 3.507-.711 2.06.219 3.2 1.517 1.17 1.488 2.392 6.745.84 3.097 1.352 6.325.582 3.178 1.043 6.335.251 1.83.452 3.588.271 1.709.562 3.298.291 2.328.402 4.257.131 1.809.002 3.698-.059 1.839-.397 3.877-.32 1.92-.887 4.228-1.785 7.407-5.94 13.126-4.203 5.649-10.357 10.05-2.937 2.1-6.874 3.542-3.987 1.371-7.594 1.943-1.609.41-3.607.571-2.05.092-4.198.043-2.079-.099-4.138-.318-2.039-.338-3.768-.687-4.197-.697-8.046-2.384-3.899-1.756-7.248-4.223-1.07-.609-1.83-1.228-.76-.62-1.4-1.219-.57-.649-1.34-1.578l-1.65-2.308q-2.35-3.286-4.022-6.953-1.65-3.787-2.593-7.764-.991-4.047-1.124-8.074-.112-4.148.665-8.086 1.336-6.556 4.351-11.355 3.085-4.849 8.61-8.8 7.272-5.2 17.505-7.445 1.639-.221 3.717-.122 2.03.028 4.068.367 2.04.339 3.968.967 1.95.509 3.479 1.317 3.229 1.707 5.48 4.854 1.9 2.657 2.98 5.795 1.082 3.137 1.454 6.465.441 3.278.124 6.676-.368 3.328-1.366 6.367-2.015 5.458-3.603 7.967-1.328 2.43-5.234 5.54zm-7.854-13.937q.75 1.049 1.45.549.49-.35.908-1.39l-.1-.14q1.118-2.28 1.676-4.898.578-2.739.537-5.457-.022-2.838-.563-5.516-.591-2.748-1.762-4.976-.25-.35-.57-.65-.25-.349-.62-.719-.55-.769-1.5-1.358.42.44-.559 1.14-.63.45-1.078 1.3-.28.94-.608 4.027-.358 2.16-.447 4.548-.088 2.389.183 4.837.291 2.328 1.012 4.666.74 2.219 2.041 4.037m-23.364-14.048q.12-.72-.47-1.249-.99-1.089-2.109-.289-1.259.9-2.007 2.81-.799 1.84-1.177 4.118-.308 2.229-.307 4.448 0 2.218.292 3.807.29 1.589.891 3.168.52 1.318 1.25 1.748.8.38.76-.12.06-.36-.54-1.2-.85-1.188-.772-3.147.099-2.079.627-4.148.549-2.189 1.247-4.168.769-2.03 1.328-3.169.908-2.13.987-2.609m26.776-44.403q4.142.411 8.125-2.138 1.376-.88 2.612-1.978l.803-.82-1.4-5.535q-.686-2.826-1.219-4.935t-.814-3.664q-.209-1.602-.437-3.395-.23-1.793-.38-3.942.11-.785.174-1.642.016-.93.015-2.05.07-1.168.205-2.072.09-.976.345-1.853.226-1.88.756-3.444.483-1.637 1.726-3.044.71-.965 1.94-1.753 1.356-1.071 2.147-1.271 2.62-1.168 5.784-1.967 3.116-.872 5.984-1.176l-.145.092q.765-.08 2.242-.005 1.43.003 2.954.151 1.596.101 2.975.342 1.332.168 1.92.608 2.986 2.274 4.02 9.471.371 3.131 1.087 4.409.318.816.617 1.442.37.58.458 1.034l1.448-.927q.605-.49 1.355-1.072l.58-.37q1.697-1.495 3.533-2.772 1.862-1.397 3.745-2.602 1.52-.973 2.58-1.55 1.014-.648 1.64-.946l1.344-.452q.672-.226 1.483-.235 2.94-.35 4.643.397 1.657.675 3.134 3.302 1.26 2.766 1.472 5.488.075 1.075-.258 2.309-.203.64-.307 1.115-.15.403-.203.64-.675 1.657-1.057 1.697-.6.18-2.335-.139-1.662-.364-3.044.826l-4.231 3.117.145-.093-10.949 9.049q3.036 11.122 6.361 22.059 3.326 10.937 7.824 21.633 2.946 6.995 6.468 12.498.649 1.014 1.541 1.77.918.637 2.15-.151.723-.464 1.366-1.692 1.086-3.247 1.605-6.743.544-3.614.727-6.997-.102-.956-.11-1.767.016-.93.009-1.741-.044-1.503.173-1.642.005-.31-.165-2.65-.049-1.194-.217-2.413-.142-1.338-.258-2.795-.191-2.532-.547-5.162t-.904-5.24q-.519-4.159.01-5.723.131-.593.783-1.01 1.158-.742 2.749-.33 1.616.292 2.627 1.074 1.268 1.025 2.514 3.29 1.41 2.363 2.595 6.607 1.139 4.17 2.028 8.909.89 4.739 1.376 9.326.44 4.516.31 7.662-.087 2.097-.287 3.858-.246 1.688-.44 3.14-.428 2.52-1.346 4.434-.846 1.868-2.115 3.394-1.196 1.48-2.867 2.856-1.645 1.258-3.508 2.654l-2.462 1.575q-1.06.577-1.784 1.04-1.396.69-3.195 1.228-1.726.493-3.663.814-1.866.276-3.751.36-1.814.037-3.363.009-5.025-.357-9.376-2.37-4.397-2.085-8.203-5.16-3.852-3.149-7.192-6.932-3.267-3.829-6.106-7.626-1.488-2.007-2.647-3.817-1.205-1.883-2.198-3.595-.418-.651-.901-1.567t-1.127-2.238q-1.863-3.708-3.679-7.343-1.743-3.681-3.079-7.522-.376-.27-.515-.486l-.278-.435q-.279-.434-1.877.895l-5.214 3.337-2.337 1.292q-.435.278-.79.2-1.304.834-3.433 1.176-2.175.27-3.699.121-6.294-1.381-6.865-7.854-.39-3.323.973-6.135 1.318-2.885 4.142-4.692 1.448-.927 2.358-1.101.837-.128 2.598.072zm17.153-11.794q.683 1.706.906 1.257.25-.568-.092-2.697-.481-2.346-.597-3.803-.348-1.819-.432-3.704-.01-1.932-.05-3.746.134-2.024.195-4.002l.173-4.194q-.147-1.029-.756-1.66-.741-1.159-2.09-.397-.864.246-1.14.933-.202.64-.442 2.019-.154 1.833.223 4.654.568 2.801 1.162 5.483.593 2.682 1.352 5.463.687 2.827 1.588 4.394m158.25-77.992q-.613-1.326-.704-2.137-.33-1.741-.516-.708-.457-1.4-.877-2.72l-.914-2.798q-.456-1.4-.877-2.72-.342-1.357-.727-2.6-1.676-5.476-2.584-9.696-.83-4.257-.848-7.374-.001-6.154 3.36-9.127.757-.823 1.922-1.172 1.327-.612 3.188-1.093 1.861-.48 3.83-.727t3.777-.23q1.886-.018 3.26.294 2.066.372 4.156 1.206 2.132.72 4.408 1.753 2.84 1.434 5.573 5.096 1.327 1.85 3.003 4.863 1.754 2.978 3.893 7.199 2.312 4.803 5.28 9.588 2.775 4.779 4.432 8.37l4.26 7.786q1.092 1.957 2.702 4.623.33.51 1.466 2.353t2.456 3.885q1.4 2.005 2.583 3.542t1.453 1.507q.83.564 1.298.348.546-.253.648-1.057.126-.343-.35-3.627-.258-1.585-.624-3.404-.403-1.898-.836-4.065l-2.068-10.22-.156.073q-.042-1.117-.312-2.318-.193-1.237-.415-2.744-.451-2.822-.722-6.485-.596-5.596-1.011-12.032-.416-6.437-.213-12.97.28-6.569 1.396-12.766 1.158-6.31 3.624-11.427.9-1.741 1.573-2.336.444-.679 1.195-1.31.792-.744 1.777-1.483.864-.588 1.765-1.099.9-.51 1.837-.943 2.107-.973 4.863-1.772 2.834-.835 5.104-.842 2.57.234 5.158 1.122 2.63.774 5.008 2.232 2.342 1.381 4.282 3.326 1.982 1.831 3.297 4.064.733 1.177 1.01 2.186.354.972.48 1.861.289 1.855-.462 2.486l-.45.87q-.858.397-1.134.62-.51.33-.739.246-1.039.005-2.882-1.32-3.255-1.717-7.302-1.458-.426.102-.739.246-.348.066-.738.246-2.576 1.19-3.8 4.69-1.218 3.31-1.746 6.678-.486 3.255-.55 6.6-.066 3.344.175 6.736.319 3.356.674 6.791.216 1.7.36 3.242.223 1.507.41 2.936.27 1.201.504 2.324.313 1.087.661 2.252l.048.924q.103.427.09.81.067.35.307 1.28.205.852.577 2.48.451 1.59.932 3.452.444 1.783.955 3.914 1.93 8.484 4.507 17.142l3.618 13.576q.925 3.644 1.412 6.544.529 2.786.656 4.906.133 4.389-.978 6.7-.528.908-1.645 2.18-1.074 1.16-2.383 2.427-1.23 1.231-2.533 2.306-1.225 1.04-2.09 1.628l-3.59 2.889q-1.422 1.225-2.995 2.33-1.459 1.147-3.254 1.976-1.093.505-2.798.914-1.67.486-3.603.811-1.855.289-3.704.385-1.772.06-2.96-.053-2.306-.072-6.462-3.74-2.018-1.909-5.093-4.466-2.997-2.593-7.08-6.105l-8.132-8.176q-1.153-1.267-2.162-2.222-.967-1.068-1.826-1.903-1.67-1.975-1.417-1.428.288.624 1.207 3.23l1.887 6.136q.907 2.99 1.85 6.058.451 1.591.8 2.756.39 1.05.559 1.825.547 2.21.95 4.107.48 1.861.702 3.368.301 2.702-.185 4.726t-1.578 3.759q-1.015 1.7-2.635 3.11-1.621 1.412-3.59 2.89-6.016 4.198-10.7 6.36-4.838 2.235-10.788 3.09-5.987.775-11.259-.389-4.323-.75-8.197-3.6-3.91-2.93-7.213-6.802-3.303-3.873-6.018-8.111-2.673-4.353-4.715-7.955-2.427-4.845-4.775-9.726-2.35-4.881-4.62-9.799-1.225-2.653-3.094-6.904-1.904-4.329-3.977-9.432-2.108-5.182-4.09-10.705-1.941-5.638-3.317-10.874-1.377-5.235-1.93-9.715t.269-7.415q.954-3.47 4.076-4.913 2.185-1.009 6.622-1.448 2.978-.523 5.837.335.648.174 1.219.384.648.174 1.219.384.606.288 1.29.54l1.598.588q3.003 1.17 5.38 2.63 2.42 1.344 4.18 4.13.445.552 1.352 2.31 1.021 1.802 2.397 4.576 1.531 2.701 3.081 6.058.871 1.68 1.7 3.476l1.694 3.668q1.886 3.674 3.364 6.875 1.52 3.086 2.866 5.59 1.7 3.475 3.442 6.837 1.742 3.363 3.988 6.587.66 1.02 2.198 3.53t3.298 5.295q1.802 2.672 3.537 4.995 1.778 2.21 2.649 2.66.715.522 1.387-.073.678-.787.864-1.82.306-1.182.27-2.491-.073-1.387-.187-2.66-.048-.925-.174-1.814-.127-.888-.097-1.849-.132-1.927-.469-3.476-.312-1.087-.973-4.57-.331-1.74-.734-3.638-.438-1.976-.985-4.185-.511-2.132-.908-4.221-.433-2.168-.98-4.377l-.919-3.837q-.367-1.82-.745-3.254l-.553-2.017q-.277-1.01-.625-2.174-.703-2.137-.937-3.26l-.505-1.093q-.252-.546-.463-1.207zm-49.305-6.492q-.36-2.012-.757-2.87-.396-.859-.895-.913-.456-.168-1.267-.077-1.435.378-1.038 3.699.463 3.668 3.287 11.834.655 2.443 1.544 4.779.853 2.257 1.743 4.593.354.973.673 1.867.36.78.726 1.369.733 1.177.883 1.297.991.3.835-.859-.132-.697-.439-1.975-.307-1.28-.937-3.26-1.046-3.495-1.9-6.983-.775-3.525-1.508-7.163-.33-1.742-.559-3.057-.15-1.35-.39-2.281m106.164-33.401q.103 1.657.33 1.741.71.715.967-.162l.216-1.994q.204-1.609.594-4.251.186-1.033.378-2.258.27-1.26.587-2.828.75-3.092 1.206-5.386.564-2.06.834-3.32.234-1.34.294-2.03.12-1.381-1.051-.84-.546.251-1.08 1.35-.57 1.021-1.075 2.39-.426 1.333-.696 2.594-.306 1.183-.402 1.796-.642 3.326-.821 6.629-.215 3.224-.28 6.569m-55.073 25.716q2.24 5.878 3.7 7.193.414.282.57.21.625-.288-.45-4.053-.854-2.257-1.497-5.085-.68-2.906-1.028-5.302-.559-3.056-1.004-4.84-.48-1.86-.805-2.563-.612-1.327-1.891-1.02-1.243.384-1.237 1.423-.011.384.048.925.06.54.265 1.392.204.853.366 1.82.24.93.44 1.975.72 4.023 2.523 7.925m134.47 17.001.202.567q.173.486.681 1.4.48.834 1.068 1.72.59.885 1.23 1.66.612.695 1.052.904.601.15 1.944-.692 6.243-3.226 10.17-8.091 4.006-4.894 6.54-11.363.644-1.78 1.132-3.231t.98-2.63q.493-1.18.823-2.301.331-1.122.691-2.162.25-1.093.448-2.076l.5-2.185q.25-1.093.441-2.348.274-1.283.57-2.757.174-.793.453-1.804.25-1.093.638-2.053.36-1.04.997-1.814.608-.856 1.418-1.144 1.62-.576 3.568.282 1.92.777 2.658 2.339.715 1.753.443 7.142-.044 3.21-.44 6.454-.317 3.215-.742 6.378-.262 1.827-.553 3.573-.21 1.717-.368 3.325-.361 2.318-.786 4.203-.372 1.775-1.015 3.556-.563 1.751-1.45 3.618-.835 1.757-2.017 3.82-3.754 6.63-9.322 10.984-5.597 4.273-12.725 6.81-3.401 1.21-7.583 1.513-4.21.22-7.836-.223-1.66-.048-3.625-.443-1.995-.476-4.047-1.115-1.971-.667-3.89-1.444-1.867-.887-3.434-1.698-3.843-1.826-7.079-4.507-3.264-2.762-5.805-6.055-.861-.88-1.421-1.685-.56-.804-1.01-1.556-.37-.782-.854-1.887l-.952-2.672q-1.354-3.807-1.952-7.792-.544-4.095-.355-8.178.16-4.163 1.142-8.072 1.034-4.018 2.865-7.59 3.089-5.936 7.309-9.719 4.3-3.812 10.7-6.09 8.423-2.997 18.878-2.338 1.636.239 3.607.906 1.943.586 3.81 1.473t3.548 2.022q1.734 1.025 2.982 2.224 2.634 2.53 3.931 6.175 1.096 3.077 1.272 6.391t-.383 6.616q-.478 3.272-1.72 6.452-1.27 3.098-3.065 5.745-3.44 4.692-5.657 6.667-1.945 1.97-6.556 3.885zm-3.713-15.56q.433 1.215 1.243.927.567-.202 1.256-1.086l-.058-.162q1.702-1.884 2.96-4.248 1.31-2.473 2.018-5.098.76-2.735.977-5.458.188-2.805-.324-5.269-.144-.405-.369-.78-.144-.406-.398-.863-.317-.89-1.068-1.719.283.538-.851.942-.729.26-1.395.953-.527.826-1.693 3.705-.938 1.977-1.681 4.248t-1.156 4.7q-.361 2.32-.312 4.766.102 2.336.851 4.442m-18.594-19.937q.313-.659-.108-1.33-.652-1.32-1.948-.858-1.458.519-2.703 2.148-1.274 1.549-2.265 3.635-.91 2.058-1.52 4.191t-.767 3.741-.015 3.29q.137 1.412.72 2.025.665.585.764.094.157-.33-.19-1.302-.49-1.376.126-3.238.667-1.971 1.744-3.815 1.13-1.953 2.347-3.664 1.297-1.739 2.148-2.68 1.46-1.798 1.668-2.237zM613 365.864l-.164.049q2.429-2.694 5.56-3.623 1.237-.367 3.09-.469 1.91-.208 3.837-.063 1.985.04 3.795.399 1.869.252 3.127.865 3.52 1.287 6.138 4.366 2.618 3.08 3.694 6.706 1.027 3.461 1.182 7.003.212 3.434.201 7.024l-.065 5.22q-.032 2.611-.147 5.246-.192.864-.154 4.619-.044 3.78-.27 8.151-.043.461-.131 2.28-.005 1.796-.02 3.863-.039 1.984-.068 3.697.052 1.688.126 1.935-.043.461-.045 1.359.055.79.15 2.018t.24 2.62.196 3.08q.028 1.605.188 3.351.217 1.64.319 3.493.184 1.828.426 3.55.217 1.64.352 3.303.631 3.938 1.133 6.838t.9 4.845q.853 3.782 1.855 4.74.88.546 1.951.228 1.236-.367 2.243-1.204 1.007-.836 1.859-1.896.909-1.167 1.546-2.342.614-1.259 1.11-2.303.696-1.282 1.4-2.837.68-1.636.949-3.15.923-3.234 1.386-6.51.545-3.3.983-6.659.928-7.45 3.812-8.306 1.237-.366 2.602.305 2.846 1.128 4.117 5.414.759 2.555.806 6.038.023 3.4-.623 7.27-.563 3.843-1.703 7.858-1.057 3.99-2.567 7.667t-3.355 6.825q-1.87 3.066-3.869 5.094-6.243 6.157-13.249 8.236-3.79 1.126-8.303 1.03-4.512-.096-8.848-1.41t-8.034-3.803-5.754-6.094q-2.017-3.168-3.365-6.804-1.348-3.635-2.424-7.261l-.978-3.297q-.358-1.508-.7-2.662-.579-2.25-.73-4.268-.128-1.037-.168-1.474t-.284-1.26q-.949-5.01-1.5-10.496-.553-5.486-.858-11.045t-.395-11.003q-.033-5.55-.051-10.746.113-7.476.48-11.98.53-3.654 1.224-7.358t1.874-7.282q.217-.781.64-2.073t1.013-2.632q.564-1.423 1.12-2.574.612-1.258 1.198-1.701m2.147 6.627q-.762 4.082-1.31 8.28-.547 4.198-.362 8.448-.06 1.004.48 1.92.467.668.947.167.231-.427.109-.84-.098-.33.18-2.115l.703-3.975q.402-2.272.852-4.379.51-2.213 1.1-4.451 1.43-4.55 1.369-5.966-.062-1.417-1.875-.879-.742.22-1.197.804-.347.641-.997 2.986zm60.922-23.435-.167.041q2.557-2.572 5.73-3.348 1.253-.306 3.11-.317 1.918-.115 3.835.124 1.98.136 3.771.583 1.854.343 3.08 1.017 3.454 1.456 5.92 4.66 2.464 3.202 3.362 6.877.858 3.507.839 7.052.045 3.44-.14 7.026l-.32 5.211q-.16 2.606-.402 5.232-.234.854-.379 4.606-.228 3.773-.668 8.129-.065.458-.241 2.271-.093 1.793-.208 3.857-.135 1.98-.248 3.689-.03 1.689.031 1.94-.065.458-.11 1.354.016.792.051 2.023.035 1.23.112 2.628.076 1.397.046 3.086-.05 1.605.024 3.357.138 1.648.149 3.504.094 1.835.252 3.567.138 1.648.192 3.316.438 3.964.798 6.885t.662 4.883q.669 3.82 1.622 4.825.852.588 1.938.323 1.253-.306 2.3-1.093t1.948-1.804q.965-1.121 1.659-2.264.674-1.227 1.221-2.246.757-1.247 1.536-2.765.76-1.602 1.1-3.101 1.08-3.185 1.703-6.434.705-3.27 1.306-6.604 1.29-7.395 4.212-8.11 1.253-.306 2.584.43 2.787 1.267 3.849 5.61.633 2.588.51 6.07-.143 3.397-.976 7.23-.75 3.812-2.084 7.766-1.25 3.935-2.937 7.533t-3.684 6.653q-2.017 2.972-4.112 4.9-6.536 5.846-13.635 7.581-3.841.94-8.343.624-4.503-.315-8.77-1.839-4.266-1.523-7.838-4.19t-5.451-6.367q-1.86-3.263-3.029-6.96-1.17-3.696-2.067-7.37l-.817-3.341q-.284-1.524-.57-2.693-.468-2.275-.52-4.298-.078-1.043-.096-1.481t-.223-1.273q-.703-5.05-.988-10.556-.284-5.506-.317-11.074t.14-11.008q.238-5.546.474-10.736.476-7.463 1.063-11.942.707-3.625 1.58-7.29.875-3.665 2.227-7.182.255-.77.74-2.04.487-1.27 1.14-2.58.633-1.393 1.244-2.516.673-1.227 1.28-1.64zm1.82 6.724q-.959 4.04-1.71 8.206-.752 4.167-.774 8.42-.11 1 .386 1.942.434.69.937.213.253-.416.15-.833-.081-.334.283-2.105l.896-3.936q.512-2.25 1.065-4.332.616-2.186 1.316-4.392 1.65-4.475 1.657-5.893.008-1.417-1.83-.968-.752.183-1.234.744-.379.623-1.141 2.934zm148.294 41.602q-1.893 2.997-2.304 6.077-.336 2.984.083 6.483.5 4.183 2.338 7.254 1.829 2.985 4.57 4.908 2.816 1.828 6.373 2.615 3.633.691 7.56.222 3.072-.367 5.436-1.602 2.353-1.32 3.941-3.242 1.579-2.007 2.222-4.594.728-2.598.371-5.586-.102-.854-.978-2.394-.676-1.305-1.693-2.568-1.027-1.35-2.29-2.497-1.187-1.244-2.59-2.115-1.413-.957-2.85-1.391l-16.664-10.476q-11.35-7.302-17.63-13.478-6.32-6.517-7.36-15.225-.663-5.548 1.18-11.137 1.928-5.598 5.41-10.517 3.47-5.003 8.11-8.935 4.638-3.93 9.47-6.24 6.233-2.91 16.05-4.083 6.402-.765 12.486.153 6.169.908 11.091 3.696 5.008 2.778 8.266 7.584 3.334 4.71 4.16 11.624.347 2.902-.245 5.917t-2.11 5.534q-1.516 2.519-3.904 4.276-2.302 1.747-5.546 2.135-1.451.173-4.073-.033-2.537-.216-5.135-.945-2.598-.728-4.65-1.955-1.976-1.322-2.21-3.286-.072-.597.144-.97.71-1.296.773-2.949.147-1.663-.026-3.114-.214-1.792-1.347-3.302-.594-.622-1.273-1.233-.68-.612-1.423-1.042-1.318-.882-2.926-1.296t-3.144-.23q-1.452.174-2.831.945-1.39.685-2.463 1.852-1.083 1.082-1.688 2.54-.53 1.362-.346 2.898.347 2.903 6.398 7.894t18.432 10.784q3.56 2.259 7.349 5.702 3.863 3.348 7.126 7.46 3.251 4.028 5.52 8.518t2.81 9.016q.856 7.17-.407 13.988-1.188 6.722-4.28 12.72-3.018 5.902-7.79 10.888-4.697 4.89-10.848 8.483-8.815 5.21-21.193 6.689-5.72.683-11.451-.19-5.637-.798-10.84-3.034-5.117-2.245-9.448-5.883-4.256-3.734-7.278-8.741-3.255-5.499-3.847-10.45-.612-5.122.323-10.342 1.01-5.315 3.507-9.77 2.498-4.454 6.556-7.45 4.047-3.082 9.681-3.755 4.098-.49 7.078.54 3.161 1.094 3.335 2.545.112.939-.138 1.748-.12.447-.304 1.075-.195.543-.626 1.287m-2.35-62.405q3.76-3.306 3.587-4.758-.133-1.11-1.413-.956-1.195.143-2.865 1.381-1.585 1.229-3.345 3.17-1.684 1.847-3.307 4.205t-2.894 4.762q-1.196 2.308-1.89 4.469-.704 2.075-.52 3.612.152 1.28.92 1.188.598-.071.445-1.352-.033-1.727 1.258-3.96 1.282-2.317 3.096-4.526 1.9-2.218 3.83-4.18 1.93-1.963 3.098-3.055m148.508 51.79q.125.94.192 2.573.154 1.628.256 4.12.06 1.46.03 2.838.054 1.288.014 2.408-.278 3.712-1.256 7.108-.983 3.31-2.305 6.72-1.11 2.283-2.31 4.483t-3.02 3.996q-5.267 5.81-11.263 8.552-2.374.873-4.943 1.15-2.484.275-4.975.377-2.32.096-4.299.092-1.897-.094-3.371-.378-2.072-.173-4.85-.747-2.69-.577-5.478-1.409-2.791-.917-5.332-2.017-2.544-1.186-4.233-2.494-4.966-3.58-7.795-7.508t-4.275-9.805q-.632-2.814-1.082-5.377-.364-2.566-.46-4.885-.35-8.504 3.29-16.226.7-1.836 1.656-3.682 1.038-1.936 2.267-3.449.412-.447.82-.98.49-.623 1.063-1.335 3.696-4.282 8.304-7.311 4.607-3.03 10.066-4.2.77-.118 2.058-.171 1.37-.143 3.26-.22 2.667-.025 4.74.148 2.157.17 4.068.607 1.993.348 4.001 1.04 2.004.606 4.455 1.624l-.008-.172q9.547 4.08 13.058 12.024.368.588.65 1.178.548.752.723.83 2.923 2.032 4.232 4.559 1.394 2.524 2.051 5.939zm-45.673-18.426q4.038-2.231 2.353-3.453-.358-.33-1.045-.3-1.202.049-2.803.889-1.514.837-3.018 1.931t-2.828 2.354q-1.329 1.173-2.07 1.978-4.838 5.792-2.885 7.26.458.67.945-.038l1.78-2.741q.728-1.149 1.888-2.229 1.156-1.166 2.406-2.164 1.332-1.087 2.674-1.917 1.425-.92 2.603-1.57m31.011 23.848-1.13-.298.171-.008q-1.993-.348-3.26-1.845-1.18-1.5-1.938-3.19-.193-.508-.217-1.11l-.054-1.288q.12-1.295.57-2.863.66-2.78.586-4.584t-1.036-2.194q-1.647-.277-4.31 1.898-2.582 2.085-4.44 5.001-2.774 5.793-3.962 12.468-1.191 6.588-.93 12.944l.11 2.663q.043 1.031.15 1.543.021.515.214 1.024.279.504.647 1.092.73 1.002 1.36 1.664.63.663 1.245.982 1.062.73 2.601.495.512-.107.938-.21l1.024-.215q1.188-.393 1.779-.676l-.008-.172q3.537-1.866 5.557-5.047 2.102-3.27 3.328-6.934l.008.171 1.206-6.244zm100.771-3.648q.061.947.02 2.58.041 1.636-.027 4.128-.039 1.46-.162 2.833-.036 1.29-.151 2.404-.53 3.684-1.737 7.006-1.205 3.235-2.757 6.548-1.263 2.202-2.61 4.315t-3.284 3.782q-5.651 5.438-11.82 7.765-2.427.709-5.01.811-2.497.105-4.989.038-2.32-.063-4.295-.202-1.886-.223-3.338-.606-2.055-.314-4.787-1.075-2.645-.76-5.37-1.78-2.722-1.105-5.182-2.375-2.457-1.356-4.053-2.775-4.71-3.911-7.266-8.022t-3.598-10.074q-.44-2.85-.714-5.437-.188-2.585-.125-4.905.229-8.508 4.386-15.965.822-1.783 1.902-3.56 1.168-1.86 2.497-3.287.441-.418.885-.922.532-.588 1.152-1.26 3.978-4.02 8.781-6.729 4.803-2.708 10.329-3.505.776-.065 2.065-.03 1.377-.05 3.268.001 2.662.158 4.717.472 2.142.315 4.019.882 1.965.483 3.92 1.31 1.959.74 4.334 1.923v-.172q9.247 4.721 12.21 12.885.327.611.568 1.22.495.787.665.877 2.778 2.225 3.911 4.836 1.22 2.613 1.643 6.064zm-44.313-21.492q4.18-1.95 2.582-3.284-.334-.353-1.022-.372-1.203-.032-2.857.697-1.568.732-3.142 1.722-1.575.99-2.982 2.155-1.405 1.08-2.2 1.833-5.22 5.45-3.372 7.047.411.7.945.026l1.963-2.613q.803-1.097 2.035-2.096 1.233-1.084 2.547-1.995 1.403-.994 2.8-1.73 1.483-.82 2.703-1.39m29.316 25.904-1.108-.374.171.005q-1.965-.483-3.126-2.063-1.076-1.577-1.717-3.314-.158-.52-.142-1.122.018-.601.036-1.289.207-1.284.764-2.817.848-2.73.896-4.534.048-1.805-.885-2.26-1.623-.388-4.429 1.6-2.718 1.905-4.77 4.688-3.161 5.59-4.8 12.169-1.638 6.492-1.81 12.851l-.071 2.664q-.028 1.032.044 1.55-.018.515.144 1.035.244.523.571 1.134.66 1.05 1.243 1.753.583.704 1.175 1.064 1.01.801 2.562.671.518-.072.95-.146l1.036-.144q1.212-.312 1.82-.553v-.172q3.657-1.622 5.889-4.657 2.32-3.12 3.792-6.692v.172l1.628-6.149zm82.81 6.262q.8-2.946 2.065-5.33l-.018.172q2.2-5.835 2.278-7.555.08-1.72-1.417-1.431-.624.2-1.92 1.111-.742.534-1.493 1.153l-1.594 1.315q-2.438 2.012-4.77 4.725-2.333 2.713-4.52 5.7-2.091 2.908-4.029 6.004t-3.508 5.969q-1.665 2.95-1.796 4.319-.057.599-.245.754.188-.155-.71 2.004-.914 2.33-1.779 4.148-.019.171-.27 1.01-.314.575-.354 1.003-.592 1.67-1.192 3.427-.515 1.764-1.192 3.426-.212.412-.33.746-.112.249-.299.403-.1.163-.212.412-.1.163-.203.326-1.33 1.254-3.33 1.408-1.823.085-3.714-.011l-3.594-.344q-2.653-.254-4.442-.512-1.703-.25-2.628-.511-2.502-.93-4.262-2.395-1.751-1.55-2.948-3.477-1.112-1.92-1.763-4.142-.643-2.307-.927-4.752-.243-1.06-.3-2.275-.114-.615-.142-1.222.066-.685.047-1.378.073-.77.071-1.634l.189-1.968.516-5.392q.492-5.135 1.26-9.552.77-4.417 2.027-8.529 1.343-4.103 3.277-8.063 1.942-4.046 4.679-8.275 1.02-1.63 2.577-3.466 1.643-1.83 3.368-2.7 1.007-.595 2.392-.635 1.394-.126 2.592-.011 2.225.213 5.163 1.099 3.024.894 5.725 2.448t4.738 3.736q2.044 2.096 2.397 4.72.423 2.805-.928 6.993-.433.909-.873 1.903-.347.917-.882 1.988-.449 1.08-.881 1.989-.425.823-.926 1.552.868-.953 1.455-1.674l.767-.79q.392-.481.946-.86 1.737-1.906 4.02-4.106 2.284-2.2 4.885-4.11 2.695-1.986 5.427-3.452 2.74-1.551 5.38-2.076l-.171-.016q2.127-.574 2.983-.492.942.09 2.237.992 1.825.78 3.508 2.15 1.682 1.37 3.067 3.143 1.384 1.774 2.402 3.771 1.018 1.998 1.351 3.93.131.444.175.88t.175.88q.031 1.472 0 2.764-.037 1.292-.177 2.746l-.327 3.424q-.155 1.626-.475 3.15-.31 1.438-.637 3.048-1.343 4.103-2.556 8.65-1.205 4.462-1.965 8.794-.838 4.238.03 5.098.749 1.195 2.033 1.318 1.026.098 2.384-.549 1.366-.733 2.662-1.645 1.305-.998 2.438-2.012 1.142-1.1 1.73-1.82 3.107-3.59 5.236-7.79 2.215-4.192 3.343-8.748 1.306-4.625 1.252-9.467 1.278-5.232 2.819-5.084 1.54.147 4.013 2.284.774.938 1.421 2.295.655 1.272 1.115 2.785.554 1.434.85 2.845.297 1.41.353 2.624 0 1.728-.385 4.023-.756 3.382-1.768 6.74-.927 3.365-2.351 6.51-1.46 2.624-2.99 5.069-1.444 2.452-2.88 4.82-2.864 4.648-6.724 6.178t-9.166 1.022q-6.675-.64-12.66-3.976-4.11-3.071-6.179-6.724-1.974-3.73-2.713-8.637-.459-3.326-.27-5.294l.287-2.995q.244-.754.31-1.439l.319-1.524q.13-1.37.657-2.355.253-.84.625-2.013.371-1.174.775-2.69zm-32.87-27.417q.637-1.234.413-1.601-.431-.905-1.373-.996-.958.081-1.81.863-.775.876-1.733 2.77-.865 1.818-1.763 3.977-.89 2.074-1.608 4.165-.71 2.004-1.013 3.357-.743 2.347-.38 3.073.317.29.656-.542.212-.411.653-1.405.44-.995 1.195-2.563.71-2.005 1.84-3.883 1.224-1.956 2.595-3.638.893-1.21 1.41-2.11.604-.892.919-1.467m65.492 78.462q.525-.618.965-1.249l1.026-1.065q.941-1.078.979-1.333.025-.17-.02-.523-.022-.438-.117-.973-.095-.536-.288-.999-.18-.547-.372-1.01l-.506-1.291q-.24-.73-.552-1.559-.325-.743-.565-1.473-.155-.718-.42-1.279-1.298-3.58-.287-6.907.876-3 3.158-4.923 2.367-1.91 5.35-2.688 1.813-.515 3.344-.29 1.956.288 4.147 2.523 2.191 2.234 4.002 5.281 1.823 2.963 2.83 6.152 1.106 3.117.793 5.244-.576 3.912-6.704 9.528-.988.81-2.061 1.608t-2.16 1.68q-.67.423-2.206 1.414-1.549 1.075-3.34 2.028-1.706.965-3.375 1.675-1.584.723-2.35.61-.51-.075-1.345-.893t-1.548-1.879q-.725-.976-1.256-2.096-.457-1.024-.382-1.534.188-1.276 3.25-3.78zm4.503-18.194q-.225 1.53.503 1.899.642.355 1.28-1.028.686-1.116.837-2.137.078-1.118-.348-1.18-1.871-.276-2.272 2.446m227.553-16.616q-.053.52-.21 1.101-.054.52-.128 1.124l-.339 1.244q-.076.603-.278 1.35-.588 2.156-1.364 4.35-.776 2.195-1.613 4.284-.98 2.94-2.637 5.43-1.659 2.488-3.77 4.675-11.525 12.543-29.477 15.315-2.345.43-4.698.234-1.44.054-1.342.348.076.377 1.313 1.07.309.173.678.452.37.28.988.626.596.43 1.11.837l1.19.859q.325.445.672.806.43.385.777.747.324.444.626.972.407.468.77 1.1.444.657.927 1.501l1.086 1.9q.581 1.138 1.283 2.488.784 1.372 1.644 3.121 1.185 2.194 2.067 3.86t1.547 2.827l1.146 2.006q.566.866 1.056 1.356.92.875 1.818.852.897-.023 2.345-.43 2.035-.604 3.03-.333.747.203 1.087.92.475 1.198-.475 2.722-.783 1.568-2.48 2.888-1.613 1.343-3.596 2.407-1.9 1.086-3.92 1.961-1.998.792-3.656 1.32-1.26.37-2.828.567-1.508.302-3.137.393-1.545.113-3.129.038-1.5-.052-2.744-.391-1.908-.52-4.548-1.952-1.13-.754-2.179-1.485-.966-.708-1.848-1.394-.897-.958-1.908-2.48-.928-1.5-1.81-3.167-.86-1.749-1.555-3.453-.61-1.681-.98-2.94-.96-3.024-.869-3.355l-.121-.211q-.302-.528-.25-1.048l-.86-4.69q-.265-1.32-.89-3.272-.522-2.013-1.291-4.094-.77-2.081-1.796-3.875-.92-1.855-1.923-2.752-1.162-1.297-3.786-2.457l-2.36-.821-3.663 8.536-1.205 3.77-1.718 3.364-.527 3.242-.407 1.493q-.12.77-.414 1.848-.211 1.1-.46 2.013-.144.852-.158 1.56-.497 3.786-1.334 4.895-1.025 1.146-4.229 1.788-.483.136-.86.211-.4.159-.61.28-.377.075-.92.105t-1.29-.173q-.437-.03-1.1-.21l-1.577-.43-3.98-1.085q-2.075-.565-2.399-1.01l-.784-.392q-.392-.196-.867-.414-.453-.302-.95-.437l-.913-.249q-.37-.279-.762-.475-.415-.113-.701-.369-.784-.392-.943-.791-.076-.377-.603-1.056-.528-.678-1.358-1.885-1.237-1.673-2.06-3.234-.957-2.043-.868-4.335.09-2.292.406-4.434.241-1.538.535-3.597.293-2.058.7-4.531.497-2.805 2.034-7.466 1.725-5.678 3.737-11.1 2.117-5.482 4.483-10.896 1.251-2.956 2.457-5.747 1.289-2.767 2.592-5.263 1.425-3.265 1.786-4.593.535-.656.776-1.214.347-.618.671-1.154.219-.475.31-.806.195-.393.24-.559.234-.203 1.169-1.998 1.002-2.044 2.064-3.982 1.086-2.02 2.337-3.997.761-1.485.678-1.508-.332-.09-2.639.529-2.201.558-4.93 1.419-2.647.882-5.128 1.81-2.374.868-3.241 1.434-.212.12-.528.302-.294.098-.505.219-.317.18-.762.505-.444.324-1.123.852l-1.462 1.117q-1.222 1.538-2.134 1.29-.415-.113-.822-.58-.385-.551-.747-1.184-.362-.634-.64-1.244-.197-.589-.378-.905-3.727-9.213-2.342-16.588 1.385-7.374 7.416-12.503 2.887-2.421 6.929-4.172 4.04-1.75 8.466-2.95t8.905-1.94 8.218-1.058q6.726-.484 13.814-.336 7.11.066 13.693 1.414l10.037 2.735q.972.354 1.862.686.996.27 1.863.685 9.026 3.172 15.95 9.157t10.763 14.784q2.656 5.624 3.48 11.105.928 5.422.59 11.567-.037.792-.218 1.455-.076.603-.067 1.23zm-70.633-46.866q2.548-.197 2.707-.777.196-.392-.468-.573-1.161-.316-3.544-.075-2.36.16-4.976.605-2.617.446-5.172.997-2.473.573-3.921.98-.694.257-2.835.922-2.058.686-4.35 1.577-2.187.83-4.041 1.75-1.75.86-1.953 1.606-.474 1.742.687 2.059 1.161.316 4.087-.936 5.79-2.61 11.655-4.844 5.866-2.234 12.124-3.29m44.147 54.798q.354-.973.52-1.908.165-.935 0-2.315-.054-1.44-.378-2.865-.22-1.485-.732-2.872-.43-1.365-1.019-2.15-.71-1.975-2.708-4.123t-3.658-3.58q-.8-.664-1.538-1.222-.74-.557-1.418-1.01-.717-.64-3.1-1.379-1.116-.482-2.277-.798-1.056-.377-2.089-.837l-5.595-1.702 1.448 2.533q1.811 3.166 1.382 5.722-.535 2.617-4.017 7.55-.988 1.334-2.261 3.393-.731 1.048-1.38 2.119-.625.988-1.356 2.036-1.274 2.059-2.442 4.057-.603.905-.972 1.607-.264.64-.543 1.01l-.995 1.69q-.603.904-1.04 1.855-.377 1.055-.791 1.922l-.543 1.991 3.28.716 1.539.24q.769.12 1.726.204.958.082 1.75.12.874.06 1.583.075 3.936.27 7.97-.146 4.057-.498 7.736-1.902 3.762-1.38 6.838-3.84 3.076-2.458 5.073-6.191zm92.45 52.869q-.244.918-.805 2.451-.481 1.564-1.338 3.905-.503 1.372-1.056 2.634-.444 1.211-.909 2.231-1.675 3.324-3.877 6.088-2.172 2.684-4.698 5.33-1.898 1.685-3.848 3.26t-4.317 2.539q-7.088 3.356-13.677 3.598-2.527-.1-5.008-.826-2.4-.696-4.741-1.553-2.18-.798-4.007-1.559-1.717-.811-2.971-1.637-1.849-.951-4.196-2.543-2.266-1.562-4.524-3.396-2.229-1.915-4.156-3.902-1.898-2.068-2.96-3.921-3.22-5.208-4.333-9.918-1.113-4.711-.204-10.695.491-2.842 1.055-5.382.644-2.51 1.442-4.69 2.927-7.992 9.241-13.737 1.348-1.43 2.937-2.77 1.7-1.392 3.413-2.32.552-.256 1.133-.593.691-.388 1.493-.827 5.051-2.545 10.467-3.583 5.415-1.038 10.907-.035.756.186 1.967.629 1.322.392 3.098 1.042 2.473.997 4.322 1.949 1.93.981 3.528 2.116 1.709 1.083 3.3 2.49 1.62 1.325 3.496 3.202l.06-.161q7.262 7.42 7.47 16.102.116.683.151 1.337.219.904.35 1.044 1.926 2.994 2.17 5.83.323 2.865-.375 6.271m-35.164-34.482q4.584-.518 3.493-2.29-.204-.442-.85-.678-1.13-.414-2.93-.25-1.72.195-3.527.632t-3.514 1.094q-1.675.577-2.668 1.037-6.684 3.504-5.44 5.607.167.794.888.325l2.692-1.852q1.11-.784 2.596-1.339 1.514-.635 3.05-1.08 1.647-.496 3.204-.75 1.668-.304 3.006-.456m19.543 33.89-.93-.708.161.06q-1.709-1.084-2.307-2.951-.517-1.837-.572-3.689.018-.543.223-1.108l.443-1.211q.605-1.152 1.621-2.428 1.673-2.317 2.293-4.012.621-1.696-.12-2.425-1.415-.884-4.708.108-3.182.94-6.015 2.924-4.776 4.294-8.424 10.008-3.619 5.633-5.806 11.607l-.917 2.502q-.354.97-.45 1.483-.178.484-.194 1.028.064.573.18 1.256.292 1.205.62 2.058.329.853.776 1.383.703 1.081 2.215 1.452.514.096.947.163l1.028.194q1.248.09 1.902.055l.06-.161q3.981-.373 7.063-2.54 3.193-2.22 5.726-5.137l-.059.162 3.5-5.31zm45.718-16.124q3.734-4.729 7.626-9.387 4.005-4.701 8.332-9.07 4.326-4.368 8.981-8.21 4.77-3.886 10.11-6.948 1.663-.76 3.105-1.24 1.479-.56 2.737-.842 2.56-.449 5.068.682 1.176.53 2.288 1.408.557.44 1.156.993.635.475 1.191.914 2.284 2.255 4.113 4.683 1.943 2.384 2.898 5.078 1.068 2.65 1.07 5.575.038 2.846-1.375 5.98-1.413 3.136-5.12 7.594-1.758 2.226-4.304 4.945-2.467 2.754-5.6 6.15l-8.94 10.21 1.195.068-.157-.07q7.189.788 13.772 3.755 5.095 2.296 8.224 6.442 3.243 4.102 5.33 9.097 1.788 5.238 1.137 11.075-.536 5.793-2.797 10.81-2.12 4.702-5.388 8.604-3.232 3.824-7.342 6.875l.069-.157q-3.855 2.695-6.384 3.912-2.423.983-4.592 1.608t-4.386.946q-2.106.277-4.454.256-2.234-.064-4.825-.383-5.182-.638-9.022-2.37-2.351-1.06-4.357-3.095-1.892-2.079-3.302-4.6t-2.25-5.258q-.806-2.815-.985-5.347l.106-.235q.15-.122.326-.514.29-.435.467-.827l.354-.783-.334.32-2.751 5.268q-.863 1.496-1.507 2.715-.565 1.254-1.103 2.238-.883 1.96-1.558 2.41-1.447 1.327-3.274 1.824-1.748.532-3.677.417t-3.872-.614q-1.909-.577-3.477-1.284-3.84-1.73-7.08-4.794-3.126-3.107-3.802-7.466-.663-5.014 2.553-14.032.507-1.752 1.249-3.398.31-.897.55-1.638l.67-1.489.707-1.567.934-1.654q.742-1.646 1.825-3.421 1.734-2.802 3.473-6.45 1.005-1.81 1.712-3.378.784-1.532 1.542-2.794 2.559-5.259 5.98-10.13 3.421-4.87 7.164-9.407zm26.367 28.954q-3.905.503-7.296 8.027-.813 1.803-1.511 3.562-.664 1.682-1.163 3.626-.369.4-.527 2.214l-.216 1.317q-.295 1.282-.496 2.983-.2 1.7-.359 3.516-.044 1.771.026 3.5.183 1.686.578 2.901.521.518.913.695 1.176.53 2.945-.465 1.846-.96 3.592-2.53t3.255-3.248q1.546-1.755 2.24-2.668l1.538-1.947q1.31-1.861 1.146-2.124.887-.92 1.154-1.932.17-.584.38-1.054l.39-.862.458-1.019q.46-1.019.747-2.493.365-1.438.382-2.94.13-1.544-.159-2.994-.21-1.415-1.017-2.345-1.622-2.051-3.703-3.083-2.01-1.19-3.296-.637zm-1.673-45.453q-.954 2.116-.114 1.929.768-.031 3.365-2.444 2.404-2.406 4.894-4.584t5.38-3.987q2.295-1.323 2.99-2.236.658-.835.271-1.858-.188-.84-.815-1.122-1.567-.706-5.364 2.486-1 .964-2.632 2.492-1.517 1.484-3.141 3.204-1.589 1.642-2.985 3.275-1.318 1.67-1.848 2.845zm110.095 113.103q-.375.873-1.152 2.31-.702 1.477-1.888 3.67-.696 1.285-1.426 2.454-.613 1.134-1.22 2.076-2.138 3.047-4.717 5.464-2.537 2.341-5.418 4.594-2.123 1.394-4.28 2.67t-4.638 1.889q-7.499 2.296-14.054 1.584-2.485-.465-4.835-1.54-2.275-1.036-4.467-2.223-2.042-1.104-3.74-2.12-1.582-1.052-2.704-2.05-1.692-1.209-3.784-3.123-2.017-1.873-3.986-4.014-1.929-2.216-3.549-4.462-1.579-2.32-2.36-4.307-2.435-5.618-2.856-10.44t1.343-10.612q.897-2.741 1.822-5.173 1-2.391 2.105-4.433 4.05-7.485 11.129-12.257 1.54-1.22 3.306-2.317 1.883-1.131 3.712-1.803.583-.173 1.207-.423.74-.283 1.596-.602 5.367-1.788 10.875-2.033 5.51-.245 10.798 1.541.722.293 1.856.907 1.25.579 2.914 1.479 2.303 1.344 3.995 2.552 1.768 1.25 3.186 2.604 1.534 1.319 2.905 2.94 1.412 1.546 2.997 3.675l.081-.152q6.114 8.392 5.066 17.013.018.693-.044 1.345.085.926.196 1.083 1.472 3.24 1.303 6.082-.094 2.882-1.276 6.152zm-29.814-39.2q4.611.148 3.788-1.763-.138-.466-.744-.794-1.058-.572-2.863-.67-1.73-.055-3.581.116-1.852.17-3.635.575-1.741.328-2.79.64-7.12 2.501-6.193 4.762.052.81.831.45l2.932-1.443q1.212-.615 2.762-.95 1.59-.41 3.175-.628 1.7-.253 3.278-.279 1.695-.06 3.04-.016m14.442 36.356-.82-.834.152.082q-1.535-1.32-1.857-3.253-.247-1.893-.034-3.732.094-.536.38-1.065l.614-1.134q.765-1.053 1.955-2.168 1.99-2.052 2.85-3.64.858-1.587.231-2.415-1.273-1.08-4.674-.575-3.285.471-6.374 2.025-5.347 3.559-9.783 8.685-4.394 5.051-7.422 10.647l-1.268 2.344q-.491.907-.661 1.402-.245.453-.34.989-.018.576 0 1.269.115 1.235.316 2.126.202.891.568 1.48.54 1.172 1.982 1.757.494.17.913.299l.99.34q1.222.27 1.874.33l.08-.152q3.995.206 7.358-1.493 3.48-1.734 6.408-4.255l-.081.151 4.231-4.749zm47.3-27.611q1.428 3.91 5.453 6.391 1.39.857 2.916 1.495l1.087.367 4.379-3.663q2.248-1.846 3.916-3.241 1.669-1.396 2.948-2.324 1.352-.883 2.868-1.867 1.516-.985 3.387-2.053.755-.242 1.555-.557.845-.388 1.853-.877 1.082-.444 1.955-.714.919-.343 1.82-.494 1.791-.612 3.43-.814 1.685-.274 3.492.234 1.177.22 2.421.987 1.554.756 2.078 1.382 2.189 1.855 4.282 4.357 2.138 2.43 3.657 4.88l-.146-.09q.405.654.979 2.017.618 1.29 1.146 2.727.602 1.482.984 2.828.427 1.273.286 1.994-.752 3.677-6.788 7.733-2.66 1.693-3.5 2.892-.597.642-1.031 1.182-.361.586-.733.861l1.464.903q.704.333 1.553.756l.586.36q2.083.88 4.03 1.98 2.067 1.072 3.97 2.245 1.537.948 2.516 1.653 1.025.631 1.565 1.065l.99 1.015q.496.507.856 1.234 1.591 2.496 1.658 4.355.11 1.786-1.615 4.257-1.945 2.335-4.306 3.708-.935.534-2.191.77-.665.095-1.138.207-.428.04-.665.095-1.785.112-1.988-.215-.422-.462-.888-2.164-.393-1.656-2.065-2.384l-4.644-2.459.145.09-12.904-5.935q-8.702 7.563-17.111 15.306t-16.093 16.439q-5.023 5.69-8.452 11.252-.631 1.024-.925 2.156-.175 1.104 1.069 1.87.731.452 2.117.498 3.396-.431 6.771-1.482 3.493-1.078 6.62-2.382.817-.507 1.544-.866.845-.388 1.572-.748 1.335-.692 1.554-.557.282-.129 2.316-1.299 1.054-.562 2.08-1.243 1.143-.709 2.406-1.445 2.197-1.272 4.412-2.734 2.214-1.463 4.328-3.089 3.522-2.272 5.16-2.474.592-.14 1.25.266 1.172.722 1.491 2.333.438 1.583.172 2.833-.373 1.588-1.873 3.693-1.517 2.297-4.825 5.206-3.263 2.836-7.146 5.694t-7.805 5.288q-3.877 2.357-6.767 3.605-1.927.832-3.6 1.416-1.628.512-3.02.967-2.456.707-4.58.711-2.05.05-3.975-.431-1.853-.435-3.818-1.343-1.846-.937-3.912-2.009l-2.489-1.534q-.979-.704-1.71-1.155-1.228-.959-2.494-2.345-1.193-1.342-2.324-2.948-1.057-1.56-1.952-3.223-.82-1.617-1.467-3.026-1.86-4.681-1.936-9.474-.03-4.867 1.09-9.63 1.164-4.838 3.122-9.488 2.03-4.606 4.22-8.811 1.161-2.213 2.29-4.042 1.172-1.903 2.283-3.54.406-.66 1.02-1.493.615-.833 1.529-1.987 2.531-3.287 5.017-6.5 2.56-3.17 5.44-6.04.08-.456.215-.675l.27-.44q.271-.439-1.62-1.302l-5.27-3.248-2.178-1.545q-.44-.27-.523-.626-1.318-.812-2.55-2.581-1.187-1.843-1.715-3.28-1.487-6.27 4.097-9.593 2.823-1.795 5.949-1.787 3.17-.065 6.025 1.695 1.463.902 2.015 1.646.478.699 1.062 2.372zm18.071 10.332q-1.24 1.357-.739 1.363.62-.022 2.39-1.254 1.904-1.452 3.166-2.189 1.488-1.102 3.15-1.997 1.736-.849 3.353-1.67 1.881-.758 3.69-1.562l3.854-1.664q.862-.58 1.167-1.402.721-1.17-.55-2.056-.597-.67-1.335-.62-.665.095-2.011.476-1.718.658-4.096 2.222-2.277 1.727-4.436 3.426t-4.334 3.59q-2.248 1.846-3.269 3.337m31.723 20.582q1.25 3.97 5.16 6.629 1.351.919 2.847 1.624l1.069.415 4.539-3.463q2.329-1.743 4.058-3.062 1.729-1.32 3.049-2.19 1.39-.82 2.949-1.736t3.475-1.9q.765-.207 1.578-.485.862-.35 1.891-.794 1.1-.395 1.985-.625.933-.301 1.84-.412 1.817-.532 3.464-.66 1.695-.198 3.478.39 1.165.274 2.374 1.096 1.518.824 2.013 1.473 2.104 1.95 4.083 4.545 2.027 2.522 3.434 5.039l-.142-.097q.376.671.887 2.059.56 1.317 1.024 2.776.534 1.507.855 2.869.37 1.291.197 2.005-.917 3.64-7.128 7.42-2.732 1.573-3.626 2.733-.625.614-1.083 1.135-.387.568-.77.827l1.42.967q.69.364 1.52.825l.568.387q2.042.972 3.938 2.159 2.016 1.163 3.864 2.42 1.493 1.015 2.44 1.763.995.677 1.516 1.135l.944 1.058q.471.529.798 1.271 1.479 2.565 1.462 4.425.032 1.789-1.804 4.18-2.047 2.246-4.467 3.512-.959.491-2.224.67-.669.066-1.146.157-.43.02-.669.065-1.788.03-1.976-.305-.4-.48-.79-2.2-.319-1.673-1.956-2.475l-4.53-2.665.142.097-12.625-6.508q-9.032 7.165-17.78 14.523-8.748 7.359-16.814 15.701-5.273 5.46-8.948 10.862-.676.995-1.02 2.113-.225 1.094.983 1.916.711.484 2.093.592 3.412-.278 6.83-1.176 3.538-.921 6.72-2.084.84-.47 1.582-.796.861-.35 1.604-.677 1.365-.63 1.578-.486.287-.116 2.372-1.194 1.077-.514 2.133-1.148 1.174-.657 2.468-1.337 2.252-1.171 4.53-2.533t4.462-2.891q3.62-2.113 5.267-2.24.597-.114 1.237.321 1.137.774 1.384 2.397.367 1.601.044 2.838-.443 1.57-2.036 3.606-1.618 2.226-5.054 4.984-3.387 2.687-7.394 5.368t-8.034 4.933q-3.979 2.18-6.922 3.298-1.962.745-3.66 1.253-1.649.438-3.06.83-2.485.597-4.606.506-2.05-.043-3.953-.609-1.831-.518-3.753-1.513-1.803-1.018-3.82-2.182l-2.416-1.644q-.947-.748-1.658-1.231-1.183-1.013-2.385-2.455-1.132-1.393-2.19-3.048-.986-1.607-1.805-3.308-.748-1.652-1.33-3.088-1.65-4.76-1.51-9.552.189-4.863 1.52-9.572 1.38-4.78 3.545-9.338 2.235-4.51 4.61-8.613 1.26-2.158 2.469-3.935 1.257-1.848 2.44-3.435.435-.64 1.087-1.444.651-.805 1.615-1.917 2.676-3.17 5.304-6.27 2.7-3.05 5.705-5.788.1-.453.245-.666l.29-.426q.29-.427-1.56-1.374l-5.12-3.481-2.106-1.641q-.427-.29-.495-.649-1.28-.87-2.43-2.693-1.104-1.894-1.567-3.353-1.205-6.33 4.522-9.4 2.9-1.666 6.023-1.518 3.171.077 5.943 1.963 1.422.967 1.94 1.734.446.72.955 2.418zm17.59 11.132q-1.3 1.3-.8 1.328.62.005 2.443-1.146 1.968-1.365 3.262-2.044 1.536-1.035 3.236-1.854 1.772-.77 3.424-1.518 1.914-.674 3.757-1.396l3.924-1.49q.888-.54 1.229-1.347.774-1.137-.458-2.079-.565-.697-1.305-.68-.668.066-2.03.387-1.746.58-4.192 2.035-2.352 1.624-4.585 3.225t-4.49 3.392q-2.33 1.743-3.415 3.187m2.636 65.248q3.654-4.564 8.319-7.908 4.717-3.412 9.979-5.421 5.382-2.025 11.067-2.618 5.752-.54 11.476.64 7.096 1.374 12.664 5.698 4.142 3.217 6.868 7.837 2.793 4.672 4.569 9.534l.347.814q1.462-1.041 2.729-1.69 1.387-.665 2.66-.764 1.275-.1 2.557.352 1.35.504 2.844 1.664 1.019.791 1.577 1.334.626.595 1.011 1.22.453.679.8 1.493t.741 1.99l-.204-.158q2.69 5.789 2.051 9.974-.479 3.981-2.166 6.154-.422.543-1.349 1.456-.859.966-2.343 2.317-1.417 1.404-2.991 3.01-1.575 1.608-3.376 3.366-1.733 1.811-3.518 3.69-1.786 1.88-3.692 3.773-3.73 3.961-6.102 7.017-2.268 2.92-3.977 5.402-1.642 2.535-2.658 4.684-2.221 4.262-.388 5.686 1.086.844 2.715 1.129 1.682.217 3.454.178 1.892-.054 3.634-.334t2.933-.553q4.282-1.029 8.374-3.075 4.146-2.115 7.393-5.035 2.517-2.4 3.851-2.997 1.16-.513 2.858.805 1.29 1.002 1.525 2.381.235 1.38-.201 2.783-.316 1.388-1.13 2.715-.745 1.38-1.535 2.4-1.53 1.968-3.64 3.704t-4.559 3.208-5.065 2.598q-2.495 1.11-4.847 1.896-6.324 1.837-12.576 1.337-6.13-.516-11.494-4.681l-.747-.58q-.408-.317-.83-.754l-1.472-1.469q-2.717-3.09-4.476-6.85-1.76-3.762-2.638-7.818t-.79-8.233 1.132-8.046l.36-2.006q-2.856 1.156-6.4 2.214-3.422 1.043-7.056 1.378-3.513.32-6.96-.289-3.325-.623-5.973-2.68-3.735-2.9-6.528-6.592-2.792-3.693-4.372-7.967-1.579-4.274-1.778-8.783-.148-4.577 1.358-9.177.91-2.994 2.4-5.755 1.544-2.829 3.533-5.53zm71.422 12.033q-1.59.506-2.381 1.525l.03.24q.271.212.942.189.792-.039 1.569-.198.844-.106 1.537-.438.762-.28.973-.551.369-.476-.173-.897-.815-.633-2.496.13zm-47.773 11.339q-.806.898-1.77 2-.965 1.1-2.087 2.406l-2.32 2.988q-.829 1.207-1.025 1.6-.512.799-.33 2.246l.589-.196q.723-.091 1.138-.205.294-.098.724-.09.43.007 1.033-.07 3.905-.123 7.9-1.483t7.832-3.497 7.37-4.726 6.466-5.102q3.316-2.868 5.124-4.076.4-.234.626-.385.279-.219.49-.49l.632-.815q.686-.883.073-1.357-.61-.475-1.795-.632-1.13-.226-2.473-.18-1.29-.02-2.564.078l-1.93.243q-3.053.568-6.197 1.392-3.023.809-5.864 2.085l.136.106q-2.2 1.012-4.44 2.213-2.185 1.132-4 2.77-.89.724-1.711 1.502-.754.83-1.628 1.675zm.534-31.805q-.58.747.03 1.222.272.21 1.358.074.535-.129 1.5-.25 1.033-.069 2.654-.334 1.327-.167 2.616-.145 1.41.008 2.836.134 2.352.194 4.6.524 2.3.262 4.547.592 1.644.406 1.907.067.317-.408-.053-.913-.249-.52-1.879-1.785-1.018-.791-2.474-1.16-1.402-.436-3.016-.6-1.614-.165-3.197-.089-1.463.062-2.67.214l-1.93.242q-1.258.22-2.69.523-1.365.355-2.594.816-1.176.393-1.545.868m59.12 98.841 12.71 11.356-14.208 15.902-12.71-11.355zm69.307-77.57 12.71 11.356-36.64 41.007-21.221 21.232-10.143-9.062 18.655-23.525z" aria-label="Get Well Soon, Robotta!" style="font-size:93.2913px;line-height:2;font-family:&quot;Magic Bubble&quot;;-inkscape-font-specification:&quot;Magic Bubble&quot;;text-align:center;text-anchor:middle;fill:#fff;stroke-width:5.52918;stroke-linecap:round"/><path d="M647.504 1073.142c-8.165-.17-16.727.277-25.665 1.47-69.833 9.328-125.365 70.223-135.34 115.38-14.683 68.484 9.01 105.706 68.766 144.4 9.149 5.662 16.634 10.767 16.634 11.346s-2.056 3.202-4.568 5.826c-5.158 5.39-21.951 27.416-28.383 37.227-78.903 121.818-124.182 256.88-143.876 400.031-1.564 11.57-36.927 279.45 22.72 448.717 82.207 233.287 304.766 279.742 544.4 288.603 26.517 1.024 50.263.979 75.615 0 239.635-8.861 462.194-55.316 544.4-288.603 59.648-169.267 24.285-437.147 22.72-448.717-19.693-143.15-64.972-278.213-143.875-400.03-6.432-9.812-23.225-31.838-28.383-37.228-2.512-2.624-4.568-5.246-4.568-5.826s7.485-5.684 16.634-11.347c59.756-38.693 83.45-75.915 68.765-144.398-9.974-45.158-65.506-106.053-135.34-115.38-8.937-1.194-17.499-1.642-25.664-1.471-57.153 1.193-94.899 32.679-106.59 50.61-12.412 19.032-16.456 27.481-24.321 50.824-1.805 5.355-3.639 10.184-3.639 10.184-1.836 1.634-50.35-24.028-125.855-36.383-50.306-8.232-133.87-8.232-184.176 0-75.505 12.355-124.018 38.016-125.855 36.383h-.003s-1.834-4.829-3.638-10.184c-7.865-23.343-11.91-31.792-24.32-50.825-11.693-17.93-49.438-49.416-106.592-50.61z" style="fill:url(#i);fill-opacity:1;stroke-width:1.62284"/><path d="M1003.296 1760.502a462.966 462.966 0 0 0-462.966 462.967 462.97 462.97 0 0 0 59.899 227.759c101.375 53.517 229.043 69.999 361.964 74.914 26.516 1.024 50.262.979 75.614 0 137.089-5.07 268.59-22.442 371.422-80.058a463 463 0 0 0 57.034-222.615 462.966 462.966 0 0 0-462.967-462.967" style="fill:url(#j);fill-opacity:1;stroke-width:1.62284"/><circle cx="631.908" cy="1210.884" r="50.329" style="fill:#000;fill-opacity:1;stroke:#c6d3bb;stroke-width:4.86853;stroke-linecap:round;stroke-opacity:1"/><circle cx="981.688" cy="1496.964" r="13.713" style="fill:#000;fill-opacity:1;stroke:none;stroke-width:6.13435;stroke-linecap:round;stroke-opacity:1"/><circle cx="981.688" cy="1496.964" r="13.713" style="fill:#000;fill-opacity:1;stroke:none;stroke-width:6.13435;stroke-linecap:round;stroke-opacity:1"/><circle cx="1055.093" cy="1496.964" r="13.713" style="fill:#000;fill-opacity:1;stroke:none;stroke-width:6.13435;stroke-linecap:round;stroke-opacity:1"/><ellipse cx="-1424.145" cy="1403.114" rx="48.968" ry="35.919" style="fill:url(#k);fill-opacity:1;stroke:none;stroke-width:5.25839;stroke-linecap:round;stroke-opacity:1" transform="scale(-1 1)rotate(-6.572)"/><g transform="translate(26.373 855.714)scale(1.92122)"><ellipse cx="517.545" cy="418.755" rx="29.168" ry="24.158" style="fill:url(#l);fill-opacity:1;stroke:none;stroke-width:2.73021;stroke-linecap:round;stroke-opacity:1"/><path d="M440.691 1386.027q-.643-.015-1.228.092c-3.801.695-7.49 5.611-9.488 12.645-1.704 5.997-1.817 8.173-.729 14.129 4.296 23.513 41.1 44.106 80.53 20.176 2.523-1.701 5.365-2.966 7.769-4.833 2.457 1.785 5.169 3.254 7.77 4.833 39.428 23.93 76.233 3.337 80.529-20.176 1.088-5.956.975-8.132-.729-14.13-1.998-7.033-5.687-11.95-9.488-12.644-3.115-.569-7.704 1.546-9.547 4.4-1.637 2.537-1.694 3.468-.506 8.343 4.232 17.36-11.467 40.96-56.345 19.347-4.684-2.255-8.184-3.383-11.684-3.383s-7 1.128-11.684 3.383c-44.878 21.612-60.577-1.986-56.345-19.348 1.188-4.875 1.131-5.805-.506-8.341-1.613-2.499-5.328-4.43-8.319-4.492z" style="display:inline;fill:#252b1f;fill-opacity:1" transform="translate(221.345 -420.49)scale(.57232)"/></g><path d="M1319.32 1215.948c-17.288 14.74-20.157 18.733-17.29 24.079 2.726 5.08 4.714 4.66 21.034-4.45 46.021-25.69 79.498-17.99 83.602-16.898 6.796 1.81 11.297 1.156 14.808-2.15 5.176-4.876 5.433-13.244.573-18.686-7.741-8.667-51.785-25.328-102.727 18.105" style="fill:#000;fill-opacity:1;stroke-width:.943805"/><ellipse cx="562.713" cy="1632.011" rx="48.968" ry="35.919" style="fill:url(#m);fill-opacity:1;stroke:none;stroke-width:5.25839;stroke-linecap:round;stroke-opacity:1" transform="rotate(-6.572)"/><path d="M-738.334-546.453c-53.884 0-105.18 21.35-140.413 62.938-66.966 79.058-47.2 196.088 35.74 263.209l21.62 17.496 264.262 213.864a8.934 8.934 0 0 0 11.513-.27l239.092-212.546 21.518-17.462c82.647-67.097 100.964-184.59 32.346-264.05-73.35-84.954-208.05-84.944-291.778-.115l-21.692 21.973-21.987-21.983c-41.666-41.675-96.304-63.054-150.226-63.054" style="fill:#f9787c;fill-opacity:1;fill-rule:evenodd;stroke:none;stroke-width:10.324;stroke-linecap:round;stroke-linejoin:round;stroke-miterlimit:7;paint-order:stroke markers fill" transform="translate(1531.792 2430.743)scale(.93578)"/><path d="M-685.88-461.986c-37.595 0-73.384 14.898-97.974 43.916-46.727 55.164-32.935 136.825 24.943 183.658l15.081 12.208 184.397 149.23a6.23 6.23 0 0 0 8.03-.192l166.834-148.304 15.018-12.189c57.665-46.818 70.448-128.798 22.567-184.247-51.18-59.278-145.17-59.268-203.597-.077l-15.135 15.333-15.342-15.343c-29.072-29.08-67.198-43.993-104.822-43.993" style="fill:#fa8d91;fill-opacity:1;fill-rule:evenodd;stroke:none;stroke-width:7.20385;stroke-linecap:round;stroke-linejoin:round;stroke-miterlimit:7;paint-order:stroke markers fill" transform="translate(1531.792 2430.743)scale(.93578)"/><path d="M-654.91-412.13c-27.985 0-54.623 11.093-72.92 32.693-34.785 41.058-24.518 101.838 18.558 136.7l11.228 9.083 137.244 111.07a4.636 4.636 0 0 0 5.984-.134l124.177-110.39 11.174-9.07c42.922-34.847 52.435-95.868 16.8-137.138-38.096-44.12-108.056-44.114-151.538-.058l-11.267 11.411-11.42-11.416c-21.64-21.649-50.016-32.751-78.02-32.751" style="fill:#fba9ac;fill-opacity:1;fill-rule:evenodd;stroke:none;stroke-width:5.36186;stroke-linecap:round;stroke-linejoin:round;stroke-miterlimit:7;paint-order:stroke markers fill" transform="translate(1531.792 2430.743)scale(.93578)"/><text xml:space="preserve" x="997.021" y="2861.529" style="font-style:normal;font-variant:normal;font-weight:400;font-stretch:normal;font-size:145.335px;line-height:2;font-family:&quot;Magic Bubble&quot;;-inkscape-font-specification:&quot;Magic Bubble&quot;;text-align:center;writing-mode:lr-tb;direction:ltr;text-anchor:middle;fill:#fff;fill-opacity:1;stroke-width:4.67358;stroke-linecap:round"><tspan x="997.021" y="2861.529" style="stroke-width:4.67358">Here&apos;s A Silly Frog</tspan><tspan x="997.021" y="3152.199" style="stroke-width:4.67358">To Brighten Your </tspan><tspan x="997.021" y="3444.288" style="stroke-width:4.67358">Day!</tspan></text></svg>