<svg xmlns="http://www.w3.org/2000/svg" xmlns:xlink="http://www.w3.org/1999/xlink" xml:space="preserve" width="2666.667" height="3000.667"><defs><radialGradient xlink:href="#a" id="b" cx="502.075" cy="1778.459" r="10.867" fx="502.075" fy="1778.459" gradientTransform="matrix(1.19697 0 0 .44875 -98.894 978.999)" gradientUnits="userSpaceOnUse"/><radialGradient xlink:href="#a" id="c" cx="502.075" cy="1778.459" r="10.867" fx="502.075" fy="1778.459" gradientTransform="matrix(1.19697 0 0 .44875 -33.71 978.999)" gradientUnits="userSpaceOnUse"/><radialGradient xlink:href="#a" id="d" cx="502.075" cy="1778.459" r="10.867" fx="502.075" fy="1778.459" gradientTransform="matrix(5.73416 0 0 2.14975 -1634.626 -2349.104)" gradientUnits="userSpaceOnUse"/><radialGradient xlink:href="#a" id="e" cx="502.075" cy="1778.459" r="10.867" fx="502.075" fy="1778.459" gradientTransform="matrix(5.73416 0 0 2.14975 -1322.359 -2349.104)" gradientUnits="userSpaceOnUse"/><linearGradient id="a"><stop offset="0" stop-color="#8e4975" stop-opacity=".554"/><stop offset="1" stop-color="#8e4975" stop-opacity="0"/></linearGradient></defs><g transform="translate(-55.017 14.567)"><g transform="translate(-2043.79 -9991.633)scale(6.44977)"><path fill="#fff" fill-rule="evenodd" d="M500.78 1749.6a.92.92 0 0 0-.938.175l-.685.619c-.957.866-1.42 2.04-1.42 3.455 0 1.291.592 2.518 1.744 2.986h.004c.22.088.283.075.38.086.099.01.195.016.302.02.212.01.455 0 .703-.012 1.786-.105 3.337-1.355 3.336-3.066-.001-.88-.384-1.68-.893-2.395s-1.149-1.344-1.97-1.658h-.003z"/><path fill="#393a42" fill-rule="evenodd" d="M491.149 1641.064c-.587 0-1.003-.08-1.904.225-.45.151-2.942.375-3.368 1.415s1.584 2.155 1.84 2.6c.512.891.926 1.123 1.485 1.576.558.454 1.256.97 2.152 1.62 6.378 4.62 11.628 11.569 17.871 24.083 7.864 15.766 10.922 27.444 11.574 44.14.189 4.822.224 8.05.102 10.081s-.522 2.707-.395 2.553c.255-.307.038-.042-.355.172a17 17 0 0 1-1.678.765c-1.392.556-3.22 1.143-5.043 1.586-10.305 2.508-21.238 7.593-26.388 12.897-13.982 14.396-13.344 37.678 1.19 53.047 1.133 1.196 2.386 2.209 3.624 3.246-2.209-1.27-4.132-2.21-6.018-2.328-1.321-.082-2.933.48-3.826 1.574-.892 1.094-1.149 2.298-1.293 3.547-.035.305-.067.32-.11.437-.055-.039-.673-.054-1.962-.957.188.132-.497-.453-1.219-1.236-.721-.783-1.66-1.854-2.73-3.117-2.14-2.527-4.814-5.83-7.48-9.266-7.3-9.407-13.354-15.668-19.915-19.61-6.56-3.94-13.544-5.401-22.074-5.396-13.725.01-21.955 2.371-43.521 12.455-3.598 1.682-7.14 3.222-9.909 4.332a70 70 0 0 1-3.463 1.303c-.884.299-1.744.4-1.238.385h-.002c-1.769.053-3.698.454-5.308 1.146-.483.208-.82.243-1.522.918-.351.338-1.098 1.299-.76 2.592s1.213 1.638 1.612 1.803c.798.33 1.174.3 1.76.346.33.026.798.033 1.208.047-.476.424-1.071.853-1.425 1.355a3.2 3.2 0 0 0-.473.914c-.145.436-1.07.931-.65 1.783s-1.267 2.596-.75 2.718 4.175-.929 4.459-.962c1.135-.134 1.874-.503 3.017-1.048 1.144-.545 2.52-1.294 4.113-2.254 24.368-14.68 42.818-20.092 58.698-17.79 5.981.868 9.313 1.826 14.076 5.51 4.763 3.685 10.861 10.277 21.17 22.106l8.953 10.273-2.346 4.76c-3.908 7.926-7.49 11.45-9.736 11.943-2.985.656-5.162 3.311-6.06 6.776-.9 3.464-1.038 8.035-.714 14.34.433 8.408 1.145 11.213 4.6 18.226 9.023 18.315 27.603 30.19 53.076 35.135.746.145 1.323.466 2.389.508s2.402.069 3.937.08c3.07.023 6.95.304 10.862-.117 17.056-1.836 25.186-3.837 37.267-9.83 18.708-9.28 30.188-23.806 33.023-40.28.743-4.32 1.304-7.992 1.07-11.312-.248-3.48-1.574-6.425-3.981-8.244.157.119-1.037-1.25-2.034-3.051s-2.109-4.153-3.091-6.613l-2.995-7.498 2.315-2.592c1.99-2.229 5.604-6.844 8.281-10.541 6.288-8.682 11.595-14.292 17.102-17.793 5.506-3.502 11.28-5.026 19.023-5.366 14.882-.653 24.965 2.482 48 15.108 3.365 1.844 6.482 3.456 8.836 4.586 1.177.565 2.154 1.007 2.934 1.316.39.155.717.276 1.093.375.188.05.377.101.717.123s2.634 1.993 3.658.92c.89-.934-.779-4.006-.994-4.613s-.48-.943-.754-1.272c-.176-.212-.44-.366-.64-.558.591-.024 1.253-.01 1.783-.121.458-.1 1.08.049 1.96-1.205.441-.627.562-1.808.298-2.48-.264-.674-.605-.953-.854-1.16-.996-.831-1.614-.914-2.717-1.28s-2.53-.774-4.332-1.244c-2.74-.716-10.618-3.654-16.802-6.346-14.649-6.378-25.6-10.105-34.992-11.356s-17.234.086-25.024 3.653c-7.678 3.515-14.825 10.393-24.82 23.342-3.952 5.118-6.748 8.447-8.725 10.365-.663.643-1.06.894-1.508 1.22.197-1.23.28-2.386-.013-3.544-.338-1.337-1.176-2.475-2.127-3.336-.49-.444-.961-.889-1.713-1.276s-1.849-.565-2.738-.4c-1.78.329-2.922 1.216-5.159 2.635-.146.093-.314.156-.463.246 6.812-4.661 12.072-10.41 15.319-17.02 2.554-5.2 3.056-7.867 3.056-16.949 0-4.606-.045-7.353-.476-9.705s-1.307-4.16-2.572-6.313c-4.104-6.98-11.931-13.983-19.563-17.593-3.69-1.746-10.772-3.959-16.453-5.233-2.72-.61-5.257-1.227-7.123-1.72-.539-.143-.866-.244-1.277-.362.104-.55.191-1.047.373-1.84.536-2.342 1.38-5.595 2.388-9.226 2.016-7.263 4.695-16.07 6.92-22.424 9.21-26.297 20.561-43.017 29.994-47.12a28 28 0 0 0 1.686-.78c.461-.239.782-.133 1.547-1.213.191-.27 1.882-.92 1.927-1.566.045-.645-1.683-1.19-2.039-1.616-.711-.852-1.212-.843-1.53-.92-.638-.153-1.003-.137-1.518-.146-4.847-.087-9.51 2.577-13.918 6.888-4.409 4.312-8.672 10.398-12.715 17.885-8.087 14.975-15.256 35.58-19.82 58.631-.042.21-.081.249-.124.445-.49-2.181-.948-4.263-2.113-10.326-3.27-17.02-5.923-26.825-9.916-36.502-4.437-10.754-10.072-20.317-15.803-27.312-5.73-6.995-11.38-11.78-17.267-11.78zm10.91 108.644c.365 0 .917.054 1.67.174 3.673.585 5.56 2.835 6.031 5.2.472 2.364-.355 4.858-3.517 6.494-1.84.951-3.333 1.254-4.526 1.148s-2.194-.567-3.279-1.652c-1.378-1.378-1.913-2.87-1.84-4.45.074-1.58.588-4.506 2.22-6.138.952-.953 1.816-.295 2.198-.518s.492-.257 1.043-.258m63.576 1.713c1.897 0 3.901.737 5.28 2.116 1.471 1.471 1.947 2.72 1.918 3.904s-.611 2.572-2.21 4.17h-.001c-2.752 2.75-7.777 2.891-9.733.935-.691-.691-1.31-2.33-1.299-4.195s.41-5.482 1.357-6.686c.93-1.184 2.791-.244 4.688-.244m-24.084 2.272c1.345.2 3.077 1.189 4.838 3.37 2.495 3.093 2.63 3.585 2.938 9.222.317 5.801.217 6.325-2.239 11-2.06 3.923-3.286 5.218-6.304 6.814-2.202 1.164-5.703 2.068-7.537 2.068-5.89 0-10.789-3.07-13.842-8.882-2.456-4.675-2.556-5.199-2.239-11 .309-5.637.443-6.13 2.938-9.221 1.782-2.209 3.425-3.165 4.703-3.36s2.51.167 4.108 1.698l2.734 2.62a2.5 2.5 0 0 0 3.553-.091l2.44-2.596c1.39-1.48 2.564-1.843 3.91-1.642z"/><path fill="#23242a" fill-rule="evenodd" d="M537.824 1903.914c-1.703 3.05-1.3 8.854-.435 11.496.432 1.32.986 2.196 1.719 2.715.732.518 1.578.596 2.33.519 1.504-.154 3.287-.962 4.23-2.918.472-.978.712-2.127.926-2.994.038-.152.064-.212.1-.342.147.257.293.51.469.857.484.961 1.033 2.132 1.634 3.022.602.89 1.249 1.495 2.037 1.713.789.217 1.616-.071 2.233-.613 1.235-1.085 2.093-3.106 2.828-5.678s1.91-12.605 1.91-12.605c.824-.407 1.122-1.573 2.255-.84l-.403-.58-3.35 1.782s-1.155 9.38-1.855 11.831-1.637 4.314-2.375 4.963c-.37.324-.575.367-.844.293-.27-.074-.704-.38-1.194-1.106-.49-.724-1.04-1.87-1.539-2.857a16 16 0 0 0-.722-1.32 3.4 3.4 0 0 0-.381-.506c-.144-.154-.31-.326-.647-.399-.337-.072-.721.1-.902.28a1.6 1.6 0 0 0-.342.535c-.155.358-.257.759-.369 1.209-.223.9-.47 1.98-.82 2.705-.7 1.452-1.907 1.96-3.033 2.074-.564.058-.945.01-1.31-.25-.367-.259-.784-.811-1.16-1.957-.749-2.29-.441-8.936.844-11.237z" overflow="visible"/><path fill="#29292f" fill-rule="evenodd" d="M556.026 1899.412c-5.953 1.922-10.45 3.04-15.467 3.851l-.963.156a.33.33 0 0 0-.26.213l-.183.49c-.33.88-.548 1.789-.752 3.094-.167 1.07-.201 1.692-.205 3.772-.003 1.405.018 2.284.113 2.982s.27 1.212.55 1.82c.342.74.629 1.113 1.1 1.417h.002c.137.086.304.153.495.18.19.026.405.024.73.011.643-.027.98-.104 1.49-.343.665-.312 1.184-.735 1.586-1.375.402-.641.698-1.485 1.006-2.684.1-.39.213-.788.313-1.115s.198-.6.226-.658c.218-.455.522-.633.836-.592.196.025.357.109.643.478.286.37.653 1.007 1.168 2.01.658 1.282 1.138 2.133 1.554 2.707s.795.893 1.229 1.002c.392.099.743-.122 1.053-.422s.612-.726.912-1.25c.6-1.048 1.177-2.49 1.57-4.043.342-1.351.805-4.134 1.299-7.75.222-1.628.426-3.117.451-3.29.02-.135.039-.224.008-.368a.4.4 0 0 0-.18-.262.4.4 0 0 0-.322-.033h-.002z"/><path fill="#9b5484" fill-rule="evenodd" d="M484.524 1646.367a6.23 6.23 0 0 0-3.207 1.322c-1.886 1.483-3.311 4.478-4.733 8.451-1.42 3.973-2.669 8.892-3.462 13.965-1.068 6.825-1.213 21.703-.272 28.426 1.767 12.624 4.66 22.686 10.332 35.959a118 118 0 0 0 2.426 5.343c.34.693.633 1.257.877 1.68.122.212.226.385.35.553.061.084.123.165.238.275s.236.383.922.383c.34 0 .422-.059.545-.1a4 4 0 0 0 .357-.139c.244-.105.52-.24.838-.404.635-.328 1.42-.768 2.226-1.254 7.263-4.372 11.387-6.006 21.5-8.506l6.3-1.556a1.24 1.24 0 0 0 .943-1.223l-.112-7.357c-.297-19.67-3.815-34.325-12.24-50.954-4.265-8.418-7.678-13.507-12.424-18.478-4.2-4.401-7.914-6.752-11.404-6.387zm102.56 1.531c-.848.055-1.708.222-2.578.488-5.01 1.534-10.056 5.93-14.859 12.164-4.804 6.235-9.325 14.363-12.934 23.543-1.846 4.698-7.506 21.21-9.611 28.014-1.246 4.029-2.21 7.579-2.822 10.35-.306 1.385-.524 2.574-.645 3.556-.12.982-.203 1.683.004 2.508.253 1.008 1.174 1.788 2.121 2.205.823.362 2.042.712 3.588 1.113s3.347.815 5.037 1.145c2.894.564 4.993 1.196 8.31 2.504 3.9 1.537 7.73 3.4 10.743 5.16s5.264 3.613 5.703 4.277c.243.368.508.684.807.961.15.139.304.27.512.397.207.126.449.302 1.013.302.832 0 1.53-.38 2.108-.855.577-.476 1.095-1.087 1.648-1.863 1.106-1.554 2.341-3.79 3.875-6.91 7.675-15.608 12.002-34.028 12.451-52.893.212-8.919-.386-15.672-1.978-21.953-1.18-4.654-2.698-8.194-4.746-10.649s-4.782-3.756-7.746-3.564"/><path fill="#bb6ba0" d="M472.497 1676.046c0 1.603.51 1.492 2.798-.61 7.265-6.677 22.728-8.442 30.87-3.523 3.454 2.087 3.47 2.084 2.573-.789-3.214-10.292-36.24-5.963-36.24 4.922m27.065 5.391c-9.3.1-19.984 2.3-27.637 5.848l.342 5.734c12.331-6.544 31.375-8.483 42.588-3.51.917.407 1.686.749 2.324 1.018v-4.71c-3.334-3.14-10.012-4.462-17.617-4.38m2.991 22.643c-9.299.1-19.984 2.3-27.636 5.847l.341 5.735c12.332-6.545 31.376-8.484 42.588-3.51.918.407 1.686.748 2.325 1.017v-4.709c-3.334-3.14-10.012-4.463-17.618-4.38m64.947 3.06c9.586 1.53 20.255 5.346 27.568 10.028l-1.306 5.615c-11.647-8.364-30.99-13.207-43.397-10.016-1.014.261-1.865.48-2.569.649l.783-4.654c3.964-2.592 11.08-2.872 18.92-1.621m5.391-25.704c9.299.1 19.984 2.3 27.636 5.848l-.342 5.734c-12.33-6.544-31.375-8.483-42.587-3.51-.918.407-1.686.749-2.325 1.018v-4.71c3.334-3.14 10.012-4.462 17.618-4.38m28.418-6.377c0 1.602-.53 1.492-2.9-.61-7.528-6.677-23.551-8.443-31.989-3.523-3.579 2.086-3.596 2.083-2.666-.79 3.33-10.292 37.555-5.963 37.555 4.922"/><path fill="#1b1c21" d="M491.446 1640.34c-11.114.078-19.631 14.965-20.565 40.044-.724 19.445 1.979 32.328 11.463 54.67 2.965 6.984 3.362 8.713 2.367 10.307-10.297 16.488-11.832 32.916.073 52.236l-2.252 1.824c-1.24 1.003-2.964 1.687-3.832 1.52s-4.82-4.575-8.782-9.793c-9.327-12.285-15.665-18.07-24.585-22.446-31.838-15.617-65.251 11.87-78.832 13.862-4.317.633-8.897 3.515-8.897 5.6 0 .508.887 1.4 1.97 1.98 1.681.899 1.803 1.418.84 3.53-.926 2.034-.808 2.83.653 4.444 1.716 1.896 1.685 2.077-.842 5.08-2.38 2.83-3.464 5.961-2.062 5.961.306 0 6.269-2.543 13.25-5.652 3.63-1.617 25.118-10.854 25.976-3.348.438 3.831-8.74 16.578-8.767 18.77-.048 3.634 29.656-11.194 36.216-1.37 1.32 1.978.807 6.128-1.65 13.352-2.755 8.1-2.269 8.897 3.963 6.526 3.35-1.275 32.042-12.015 30.076-5.186-1.746 6.064-1.866 20.454-.225 26.908 3.331 13.101 6.117 19.214 20.563 30.174 47.945 36.378 123.119 2.236 124.584-36.34.464-5.874.6-10 1.455-15.834 28.854 0 35.602 11.894 38.322 7.25.242-.412-.377-3.225-1.375-6.25-2.321-7.037-2.433-12.804-.293-15.17 2.672-2.952 13.052-2.459 24.88 1.182 5.378 1.656 10.037 2.752 10.353 2.436s-.278-2.01-1.32-3.762c-9.157-15.38-9.548-18.007-2.756-18.496 10.8-.778 31.442 11.81 34.314 11.81 1.514 0 .962-1.979-1.611-5.765-1.637-2.408-2.15-3.998-1.5-4.647.543-.543.986-2.416.986-4.164s.675-3.739 1.5-4.424c3.694-3.065 1.076-5.564-7.766-7.414-3.57-.747-13.568-4.594-22.218-8.547-17.196-7.858-25.014-9.995-36.676-10.021-17.02-.04-29.909 7.718-44.086 26.53-6.942 9.21-7.285 9.385-11.016 5.654l-3.14-3.143 2.09-2.28c7.235-8.797 11.308-21.617 8.867-32.837-.814-3.904-2.611-9.57-3.994-12.59l-2.514-5.492 3.351-6.68c15.33-30.547 17.856-61.894 11.05-82.127-14.687-43.654-51.578 9.147-60.485 54.697-.672 3.438-1.668 14.01-2.102 14.01s-1.369-10.572-2.19-14.01c-12.217-51.18-29.416-72.661-42.83-72.568m.111 2.698c2.617.106 4.423.842 7.229 2.666 9.926 6.455 23.45 29.506 28.402 48.41 2.461 9.395 6.245 27.272 6.941 32.795 1.125 8.92 3.39 7.424 4.92-3.25.395-2.75 1.634-8.375 2.754-12.5 5.267-19.52 20.988-69.336 44.28-66.271 1.325.742.886 1.145-2.274 2.092-26.71 8.002-43.205 84.24-43.205 84.263 0 .408 1.913 1.06 4.25 1.447 6.332 1.052 6.875 1.163 11.754 2.407 13.741 3.504 24.4 11.128 29.63 21.191 6.997 13.463 4.089 41.42-24.917 52.363-6.646 2.508-7.184 3.957-1.133 3.05 5.04-.756 10.802-3.288 15.658-6.878l2.803-2.072 2.58 2.578c2.15 2.15 2.395 2.925 1.477 4.64-1.59 2.97-1.358 4.218.648 3.513 3.06-1.076 7.209-5.54 14.762-15.887 8.274-11.335 13.547-16.27 21.328-19.961 16.155-7.663 31.956-5.315 63.64 9.46 6.58 3.069 16.564 6.065 20.204 6.065.174 0 .316.45.316 1s-1.87 1-4.154 1h-4.153l3.713 3.608c2.043 1.983 3.471 3.85 3.174 4.146-.297.297-4.262-1.65-8.81-4.324-30.792-18.108-48.02-23.008-65.112-18.521-11.524 3.025-18.621 8.728-28.158 22.632-2.2 3.208-5.729 7.756-7.842 10.108l-3.844 4.275 3.674 9.48c3.257 8.406 3.974 9.514 6.33 9.788 2.613.303 9.133 29.51-19.06 50.593-9.32 6.97-20.717 12.128-33.034 14.441-24.634 4.625-52.23-.343-70.663-16.023-5.846-4.972-12.694-14.85-15.157-21.863-2.627-7.481-3.373-19.195-1.675-26.342 1.209-5.09 1.539-5.52 4.416-5.802 3.939-.386 6.184-2.87 10.876-12.03l3.756-7.334-7.113-7.166c-3.912-3.942-9.342-10.141-12.066-13.777-6.008-8.016-12.083-13.448-18.098-16.18-6.884-3.126-22.212-3.558-32.652-.918-9.1 2.301-27.422 10.879-37.746 17.67-9.42 6.196-11.6 6.192-4.852-.01l3.75-3.445-4.252.16c-2.339.09-4.539-.125-4.889-.475-.886-.886 4.189-2.693 7.567-2.693 1.538 0 9.047-3.12 16.685-6.935 15.94-7.96 25.336-10.908 37.422-11.743 9.79-.676 17.175.977 25.467 5.7 6.373 3.63 10.448 7.618 17.346 16.978 3.04 4.125 5.79 7.725 6.113 8s1.39 1.76 2.37 3.299c1.97 3.096 7.545 6.899 8.892 6.066.473-.292.589-1.392.256-2.441-.734-2.313 3.868-4.93 5.923-3.37 10.239 7.776 24.051 13.038 31.37 11.952 5.483-.814 4.686-2.054-1.817-2.824-44.667-5.29-48.657-54.005-22.566-69.145 3.84-2.228 14.579-6.235 19.113-7.133 1.1-.217 3.423-.664 5.162-.994 3.005-.569 3.195-.88 3.807-6.254.89-7.825.811-37.4-18.983-67.175-4.499-6.768-10.372-12.347-15.422-14.649l-2.564-1.168 2.5-.197c1.12-.088 2.08-.123 2.953-.088zm-6.473 4.106c11.577-.217 33.334 35.266 34.33 68.379l.434 14.382-7.871 1.748c-4.33.962-9.981 2.765-12.559 4.006s-6.295 3.253-8.263 4.469l-3.578 2.211-1.405-3.34a856 856 0 0 0-3.588-8.34c-16.393-37.558-8.13-74.105-1.246-81.75 1.058-1.174 2.325-1.739 3.746-1.765m102.264 2.13c2.167-.089 4.108.647 5.723 2.262 10.837 10.837 10.292 58.12-7.76 89.74-2.066 3.619-4.105 4.915-4.873 3.094-1.4-3.317-17.467-11.372-25.34-12.703-2.197-.371-5.457-1.122-7.244-1.668-3.14-.96-3.229-1.134-2.635-5.166.543-3.684 3.338-13.273 6.463-22.174 4.317-12.956 8.471-26.03 16.291-37.46 6.82-10.087 13.837-15.698 19.375-15.925m-84.918 98.471q-.591.031-1.187.145c-7.369 1.408-9.088 13.458-2.325 16.3 4.703 1.977 10.893-.858 12.807-5.865 1.96-5.126-3.378-10.882-9.295-10.58m-2.1 2.674c1.558-.034 3.576 2.512 2.942 4.164-.333.868-1.52 1.576-2.637 1.576-3.407 0-1.823-5.01-.935-5.558.194-.12.408-.177.63-.182m26.212 14.74c-1.683 0-2.046 2.145-.932 5.52 1.094 3.316 1.999 4.143 3.209 2.933.778-.778-1.29-8.453-2.277-8.453"/><path fill="#29292f" fill-rule="evenodd" d="m485.389 1892.988-.316.037-.508.195-.61.596c-.174.284-.098.183-.11.21l-.04.089-.101.238c-.083.192-.192.446-.307.72-.603 1.434-1.1 2.227-.674 3.569.168.53.307.59.406.703.1.114.183.193.27.274.174.16.364.314.582.484.436.34.984.73 1.578 1.121.513.337 1.062.736 1.504 1.086s.823.732.785.685c.68.83 1.468 2.565 2.352 5.801.607 2.226 1.205 3.952 1.863 5.246.33.648.666 1.192 1.123 1.666.457.475 1.135.952 2.03.952 1.173 0 1.845-.717 2.366-1.377.522-.661.998-1.49 1.569-2.606.353-.69.502-.888.726-1.26.046.153.058.125.104.313.3 1.211.631 2.191 1.152 3.043a5.3 5.3 0 0 0 2.12 1.955c.773.385 1.532.68 2.433.64s1.75-.532 2.307-1.087c1.16-1.161 1.504-2.617 1.828-4.297s.442-3.518.199-5.17c-.234-1.59-.697-2.967-1.59-4.063s-2.177-1.783-3.596-2.113c-4.783-1.113-12-3.896-16.59-6.408a77 77 0 0 0-1.427-.766 17 17 0 0 0-.479-.24 4 4 0 0 0-.209-.094c-.043-.018-.084-.036-.207-.072-.061-.018-.13-.046-.338-.064-.052 0-.194-.01-.195-.01z"/><path fill="none" stroke="#23242a" stroke-linecap="round" stroke-linejoin="bevel" stroke-miterlimit="7" stroke-width="1.5" d="M484.472 1894.802c-.448 1.196-1.494 2.81-.732 3.976s3.333 1.884 4.888 3.782 2.093 4.978 2.81 7.49c.718 2.51 1.615 4.454 2.601 5.32.987.868 2.063.658 3.154-.956 1.092-1.614 2.198-4.634 2.826-4.768.627-.135.777 2.616 1.599 4.32s2.317 2.361 3.632 2.496c1.316.134 2.452-.254 3.26-2.72.806-2.467 1.285-7.011-.21-9.687s-4.963-3.483-8.371-4.62a71.5 71.5 0 0 1-9.298-3.886c-2.541-1.285-4.275-2.391-5.067-2.556-.793-.164-.643.613-1.092 1.809z"/><path fill="#753c61" fill-rule="evenodd" stroke="#6b2e56" stroke-linecap="round" stroke-linejoin="bevel" stroke-miterlimit="7" stroke-width="2.5" d="M525.374 1752.504c-2.662-.126-5.339 2.212-7.756 6.95-3.833 7.51-1.015 19.17 5.91 24.452 2.66 2.029 5.026 2.838 9.142 3.125q.3.02.594.035.292-.015.592-.035c4.116-.287 6.483-1.096 9.143-3.125 6.924-5.281 9.743-16.943 5.91-24.453-4.072-7.977-8.876-9.152-13.11-3.207-1.066 1.497-1.881 2.402-2.535 2.73-.653-.328-1.47-1.233-2.537-2.73-1.72-2.415-3.533-3.656-5.354-3.742z"/><path d="M525.61 1770.68c-1.113-3.374-.751-5.52.931-5.52.989 0 3.056 7.674 2.278 8.452-1.21 1.21-2.114.384-3.209-2.932m16.087-.254c1.114-3.374.752-5.52-.93-5.52-.989 0-3.057 7.674-2.278 8.452 1.21 1.21 2.114.384 3.208-2.932m-42.778-6.235c-6.763-2.842-5.046-14.893 2.323-16.302 6.361-1.216 12.575 4.97 10.484 10.437-1.914 5.007-8.104 7.841-12.807 5.865m4.353-9.608c.725-1.889-2.016-4.944-3.572-3.982-.887.548-2.471 5.56.935 5.56 1.118 0 2.304-.71 2.637-1.578"/><path fill="#fff" fill-rule="evenodd" d="M563.581 1751.23a1.4 1.4 0 0 0-.59.02c-.195.052-.35.128-.56.232-.286.141-.56.295-.776.559s-.324.539-.475.922c-.388.983-.574 2.048-.431 2.937.096.602.309 1.14.681 1.553s.893.67 1.46.766c.457.077.761.068 1.241-.033 1.34-.284 2.434-1.13 2.686-2.34.143-.69-.022-1.41-.395-2.172-.234-.478-.485-.817-.968-1.3-.63-.632-1.212-1.017-1.873-1.141z"/><path d="M561.738 1765.63c-6.763-2.841-5.046-14.892 2.322-16.301 6.362-1.216 12.575 4.97 10.484 10.437-1.914 5.007-8.104 7.841-12.806 5.865m4.352-9.607c.725-1.889-2.016-4.944-3.572-3.982-.887.548-2.471 5.559.936 5.559 1.117 0 2.303-.71 2.636-1.577"/><path fill="#030509" d="M634.827 1801.294c-10.859.1-17.13 1.24-20.532 3.736-1.729 1.27-1.219 1.29 4.19.164 8.817-1.835 20.816-1.9 28.3-.154 2.294.535 4.392.934 5.647 1.092v-1.053c-5.215-3.822-11.38-3.817-17.605-3.785m-27.75 17.332c-3.007 0 .125 1.605 5.75 2.947 3.025.722 7.975 2.604 11 4.182 5.819 3.034 7.518 3.52 6.488 1.853-1.66-2.686-17.949-8.982-23.238-8.982m-177.535-26.301c10.858.1 17.13 1.24 20.53 3.736 1.73 1.27 1.22 1.29-4.189.164-8.816-1.835-20.816-1.9-28.3-.154-2.294.535-4.392.934-5.647 1.092v-1.053c5.215-3.822 11.38-3.817 17.605-3.785m27.75 17.332c3.006 0-.126 1.605-5.75 2.947-3.025.722-7.975 2.604-11 4.182-5.82 3.034-7.519 3.52-6.489 1.853 1.66-2.686 17.95-8.982 23.239-8.982"/><ellipse cx="502.075" cy="1777.078" fill="url(#b)" fill-rule="evenodd" rx="13.008" ry="4.877" style="font-variation-settings:normal;-inkscape-stroke:none"/><ellipse cx="567.259" cy="1777.078" fill="url(#c)" fill-rule="evenodd" rx="13.008" ry="4.877" style="font-variation-settings:normal;-inkscape-stroke:none"/></g><ellipse cx="1244.351" cy="1474.138" fill="url(#d)" fill-rule="evenodd" rx="62.316" ry="23.362" style="font-variation-settings:normal;-inkscape-stroke:none"/><ellipse cx="1556.618" cy="1474.138" fill="url(#e)" fill-rule="evenodd" rx="62.316" ry="23.362" style="font-variation-settings:normal;-inkscape-stroke:none"/></g></svg>