<svg xmlns="http://www.w3.org/2000/svg" xmlns:xlink="http://www.w3.org/1999/xlink" width="3000" height="3600"><defs><linearGradient id="g"><stop offset="0" style="stop-color:#885195;stop-opacity:1"/><stop offset="1" style="stop-color:#6b3e76;stop-opacity:1"/></linearGradient><linearGradient id="f"><stop offset="0" style="stop-color:#aea9c1;stop-opacity:1"/><stop offset="1" style="stop-color:#9c97b4;stop-opacity:1"/></linearGradient><linearGradient id="d"><stop offset="0" style="stop-color:#a26aac;stop-opacity:1"/><stop offset="1" style="stop-color:#93589e;stop-opacity:1"/></linearGradient><linearGradient id="c"><stop offset="0" style="stop-color:#9558a5;stop-opacity:1"/><stop offset=".5" style="stop-color:#7d4a8b;stop-opacity:1"/><stop offset="1" style="stop-color:#72447f;stop-opacity:1"/></linearGradient><linearGradient id="h"><stop offset="0" style="stop-color:#dd8fec;stop-opacity:.51443464"/><stop offset="1" style="stop-color:#dd8fec;stop-opacity:0"/></linearGradient><linearGradient id="b"><stop offset="0" style="stop-color:#847ca1;stop-opacity:1"/><stop offset="1" style="stop-color:#797099;stop-opacity:1"/></linearGradient><linearGradient id="a"><stop offset="0" style="stop-color:#ae80bb;stop-opacity:1"/><stop offset="1" style="stop-color:#7d4a8b;stop-opacity:0"/></linearGradient><linearGradient xlink:href="#a" id="k" x1="202.861" x2="185.614" y1="-6.899" y2="57.47" gradientUnits="userSpaceOnUse"/><linearGradient xlink:href="#b" id="l" x1="170.812" x2="185.79" y1="124.977" y2="283.846" gradientUnits="userSpaceOnUse"/><linearGradient xlink:href="#c" id="i" x1="235.113" x2="194.098" y1="15.891" y2="283.846" gradientUnits="userSpaceOnUse"/><linearGradient xlink:href="#d" id="n" x1="288.557" x2="147.083" y1="59.475" y2="207.383" gradientUnits="userSpaceOnUse"/><linearGradient xlink:href="#f" id="o" x1="294.839" x2="186.92" y1="96.606" y2="222.004" gradientUnits="userSpaceOnUse"/><linearGradient xlink:href="#g" id="m" x1="285.155" x2="109.604" y1="110.795" y2="248.841" gradientUnits="userSpaceOnUse"/><radialGradient xlink:href="#h" id="j" cx="189.011" cy="84.827" r="61.869" fx="189.011" fy="84.827" gradientTransform="matrix(1.92677 -.0307 .02136 1.34067 -173.993 -24.977)" gradientUnits="userSpaceOnUse"/></defs><rect width="3000" height="3600" ry=".019" style="opacity:1;fill:#d2e9f7;fill-opacity:1;stroke-width:2;stroke-linecap:round;stroke-linejoin:round"/><path d="M1592.73 941.742c-9.666-.055-19.19.184-28.7.455-1.806.052-3.669-.018-5.469.045-.194.007-.373.044-.566.051-.507.018-1.029.004-1.535.023-10.037.378-19.461 1.956-29.319 2.692-.195.014-.387.036-.582.05-12.903.973-25.84 1.812-38.431 3.383-5.171.646-10.57.844-15.688 1.588-11.138 1.62-21.627 4.371-32.51 6.45-11.82 2.257-23.776 4.222-35.289 7.005-4.159 1.006-8.475 1.729-12.594 2.801-11.329 2.95-21.969 6.968-32.986 10.416l-1.135.358c-10.567 3.326-21.383 6.226-31.658 9.996-3.229 1.184-6.529 2.245-9.728 3.472-10.97 4.209-21.235 9.387-31.858 14.088-1.71.758-3.43 1.5-5.133 2.27-8.724 3.946-17.816 7.36-26.299 11.629-2.386 1.2-4.744 2.424-7.11 3.65-10.44 5.407-20.161 11.681-30.222 17.565-5.376 3.144-10.89 6.114-16.158 9.39-4.56 2.836-9.508 5.194-13.984 8.127-1.636 1.072-3.128 2.298-4.752 3.383-9.728 6.493-18.734 13.748-28.059 20.687-9.594 7.14-19.583 13.847-28.742 21.438-1.407 1.166-2.73 2.407-4.127 3.584-8.495 7.155-16.231 15.009-24.34 22.537-9.1 8.448-18.48 16.613-27.084 25.508-1.419 1.467-2.922 2.85-4.328 4.33-7.036 7.403-13.248 15.463-19.94 23.152-6.864 7.888-14.266 15.34-20.763 23.514a742.62 458.965 0 0 0 .494.346c-2.941 3.7-6.324 7.057-9.19 10.814-23.416 33.418-43.82 67.203-61.419 101.227-1.61 3.112-2.515 6.276-4.078 9.392-49.701 99.086-76.53 200.055-84.305 299.916a763.745 634.548 0 0 0 .004.01 829 829 0 0 0-.976 14.098c-123.016 26.822-221.556 63.892-290.948 107.842-79.87 48.39-129.99 105.761-137.224 170.566-12.641 113.232 99.577 228.32 295.254 319.654 104.944 48.984 233.894 91.135 378.927 123.725 118.896 163.012 264.058 280.647 394.018 294a171 171 0 0 0 4.076.385c131.505 11.292 299.85-83.145 448.904-227.28 321.754-15.616 706.525-84.275 732.971-321.166 8.237-73.78-37.288-149.868-124.1-219.527-57.46-48.055-138.132-94.143-242.095-135.24 7.819-79.7 4.154-162.28-13.903-246.701-12.277-57.4-31.209-115.653-57.705-174.428-20.831-41.64-44.331-78.841-69.705-112.078-125.166-163.958-295.933-231.421-416.998-259.172-40.355-9.25-75.186-14.089-100.967-16.617a75 75 0 0 0-.87-.082c-1.649-.15-3.613-.304-3.616-.311v.006l-.01-.002a882 882 0 0 0-56.91-2.887 855 855 0 0 0-10.543-.127z" style="display:inline;fill:#6fb9e5;fill-opacity:.328172;stroke-width:13.4408;stroke-linecap:round;stroke-linejoin:round"/><path d="M853.366 471.071q2.802 3.16 4.616 8.99.666 2.042 1.444 5.242.687 3.053 1.171 6.438t.73 6.716q.3 3.09.046 5.299-.381 3.313-2.564 7.347-1.761 2.744-3.194 4.053l-2.5 1.569q-1.47.923-3.861 2.012l-7.133 3.656-11.161 4.749q-8.238 3.529-16.199 7.5-7.906 3.73-15.405 8.436-3.235 2.03-2.866 2.618.184.294 2.338.787 2.024-.04 4.071 2.569.83 1.323 1.46 2.978.775 1.563 1.055 3.642.556 2.52 1.574 5.775.925 3.108 2.073 6.897l2.48 7.871q1.24 3.936 2.516 8.258 1.425 4.23 2.664 8.165l2.48 7.872q1.387 3.843 2.312 6.951 1.073 3.016 1.923 5.352l-.294.184 1.739 5.057q3.587 9.636 7.43 18.701 3.99 8.973 8.183 17.614 8.586 16.951 17.385 29.67 2.454 3.583 4.686 6.487t4.72 5.236q2.396 2.185 5.472 4.149 2.984 1.816 7.127 3.52 2.872.658 4.438 1.52 2.32 1.413 2.505 1.707 1.015 1.617-1.02 5.559-2.973 4.734-7.658 8.699-4.539 3.872-9.244 6.824-4.559 2.86-9.67 4.838-5.02 2.125-10.392 3.036-5.132.966-10.415.387-5.19-.433-10.327-2.743-12.837-6.086-30.246-27.953-1.862-2.315-3.356-4.042-1.439-1.967-2.453-3.584-1.162-1.526-2.085-2.996l-1.938-3.088q-1.014-1.618-2.03-3.235-1.107-1.765-2.159-3.769-7.75-12.352-14.252-26.307-6.447-14.194-12.046-27.69-2.439-5.848-4.786-11.548-2.44-5.848-4.694-11.4-2.347-5.701-4.287-10.427-1.886-4.965-3.31-9.195-4.648 4.351-8.451 7.762t-6.577 6.176q-2.866 2.618-5.438 5.052t-5.051 5.013q-2.333 2.489-3.82 4.037-1.434 1.309-2.077 1.917-2.424 2.342-2.698 3.538-1.984 2.065-4.152 3.835-.992 1.032-1.874 1.586l-1.47.922q-3.971 2.491-8.129 3.05-4.158.56-8.28-.132-4.069-.931-7.918-2.82-3.794-2.128-7.038-5.011-6.433-6.006-9.815-14.336-.648-2.667-1.591-5.15-.888-2.721-1.537-5.388 1.079-14.613 7.353-25.517 6.181-11.052 16.008-21.52 12.507-13.382 31.14-28.761l13.159-9.077q6.58-4.538 13.343-8.782 6.765-4.244 13.713-8.194l13.898-7.9q4.394-2.142 11.804-5.357t16.218-6.487q8.956-3.365 18.427-6.234t17.934-4.08q8.61-1.303 15.42-.247 6.865.816 10.406 5.152M703.043 552.89q1.747-.482 1.194-1.364-.407-.975-1.843-1.303-1.583-.237-5.259 2.07-6.634 4.777-13.468 11.524-6.686 6.655-11.642 13.453-5.087 6.266-5.632 10.296-.545 4.031 2.751 5.038 1.62.622 3.108-.926 1.34-1.456 6.038-9.322 1.303-1.842 2.661-3.924 1.266-2.228 2.679-4.55 2.678-4.55 5.01-7.037 3.343-4.147 8.192-8.829 4.648-4.35 6.211-5.126m299.992-11.236q.948 1.667 2.311 4.67 1.522 2.932 3.603 7.516 1.22 2.687 2.21 5.288 1.077 2.37 1.852 4.497 2.295 7.156 3.04 14.254.672 6.939.783 14.324-.347 5.114-.923 10.142t-2.62 9.769q-5.45 14.867-14.592 24.546-3.78 3.433-8.379 5.902-4.44 2.397-9.024 4.478-4.268 1.938-7.975 3.43-3.621 1.263-6.595 1.851-4.01 1.248-9.642 2.28-5.474.96-11.321 1.518-5.92.4-11.508.268-5.66-.29-9.812-1.455-12.01-2.936-20.283-8.14t-15.438-15.106q-3.317-4.786-6.102-9.241-2.627-4.527-4.565-8.794-7.105-15.65-6.15-32.86-.084-3.966.306-8.146.476-4.41 1.627-8.174.432-1.15.791-2.457.446-1.537.979-3.304 3.668-10.816 9.993-19.98t15.652-15.495q1.351-.804 3.722-1.88 2.457-1.307 5.935-2.886 4.972-2.066 8.98-3.314 4.168-1.32 8.076-1.95 3.994-.861 8.276-1.09 4.21-.385 9.568-.34l-.143-.316q20.96.397 33.555 12.6 1.135.82 2.111 1.71 1.595.992 1.983 1.007 7.01 1.583 11.376 5.32 4.524 3.666 8.343 9.558m-99.448.159q5.865-7.239 1.785-8.246-.92-.346-2.184.229-2.213 1.004-4.57 3.79-2.2 2.715-4.183 5.904-1.984 3.188-3.509 6.55-1.596 3.203-2.372 5.271-4.661 14.509.108 15.775 1.364.906 1.739-.79l1.252-6.478q.49-2.701 1.842-5.603 1.28-3.06 2.861-5.875 1.668-3.045 3.551-5.616 1.97-2.8 3.68-4.911m76.121 21.108-2.342.301.317-.143q-3.995.86-7.5-.98-3.346-1.913-6.046-4.5-.747-.805-1.25-1.911-.501-1.107-1.076-2.371-.76-2.515-1.103-5.79-.874-5.705-2.381-9.024-1.508-3.32-3.605-3.32-3.29.73-6.626 6.821-3.25 5.86-4.517 12.727-.796 12.944 2.043 26.336 2.767 13.233 8.078 24.93l2.225 4.9q.861 1.896 1.45 2.773.43.949 1.177 1.753.905.733 2.04 1.553 2.125 1.323 3.806 2.085 1.68.762 3.074.892 2.543.561 5.245-1.047.876-.588 1.595-1.105l1.753-1.178q1.926-1.637 2.817-2.613l-.144-.316q5.204-6.176 6.572-13.66 1.454-7.715.97-15.502l.143.316-2.48-12.6zm493.53-111.104q-1.443 18.227-2.594 32.037-1.174 13.638-2.354 23.25t-2.509 16.792q-1.35 7.007-2.869 11.41-2.993 9.152-7.847 10.844-2.513.858-5.738 1.634-3.052.754-7.01 1.277-20.308 2.685-34.135-3.893-13.805-6.405-15.42-18.624-1.001-7.572-.433-12.55 2.387-21.679 3.226-43.153.838-21.473.92-43.372l-.083-17.85q-.163-7.859-.499-15.694-.358-8.008-.888-15.992-.224-4.348-.576-8.33-.35-3.98-.53-7.984-.35-3.981-.76-7.079-.26-3.293-.602-5.874-1.501-11.359-4.943-10.904-1.377.182-4.25 4.94-6.425 11.005-11.704 22.735-5.301 11.557-10.04 23.39-1.231 2.615-2.543 5.94-1.334 3.153-2.645 6.479-1.14 3.302-2.084 6.754-.795 3.257-1.292 6.124-.899 3.796-1.671 7.226-.6 3.406-1.075 6.445-.473 3.04-1.119 6.102-.497 2.867-.97 5.907-.983 7.134-1.45 14.2-.318 6.871-.245 14.04-.268 13.87-2.67 18.215t-10.664 5.437q-11.703 1.547-19.795-4.038-7.92-5.607-11.315-16.715l-2.72-9.972-.545-4.13-2.638-10.683q-2.476-12.105-5.101-24.016-2.453-11.933-5.423-23.798-.354-1.354-1.176-4.922-.822-3.569-2.056-7.608-1.234-4.04-2.55-7.368t-2.439-3.88q.195.15.218.321l-.692 2.718q-.46 1.812-1.519 4.404t-2.048 5.699l-2.152 6.238q-2.198 5.894-4.409 13.015t-2.619 13.304l-.774 15.337q-.048 2.283-.178 5.277.043 2.97-.019 6.481-1.292 27.312 2.348 54.848.526 1.331.776 3.225.332 1.181.536 2.73.354 1.354.949 3.202.422 1.87.936 4.43.49 2.386 1.094 5.633 2.44 13.16 5.719 26.035 3.427 12.68 7.542 25.269.637 4.819-.742 7.628-1.357 2.98-4.124 4.572-2.743 1.764-6.484 2.609-3.569.821-7.527 1.345-13.424 1.774-23.961-2.436-10.366-4.233-18.478-12.617-7.918-8.234-13.79-19.54t-9.942-23.55q-3.899-12.268-6.397-24.545t-3.84-22.431q-1.82-13.768-1.69-28.67.132-14.901 2.007-29.858 2.047-14.98 5.562-29.453 3.493-14.645 8.245-27.706 1.542-4.23 3.555-8.875 2.012-4.643 4.415-8.988 2.552-4.54 5.539-8.437 3.136-4.092 6.58-7.174 2.78-2.819 5.741-4.261 3.134-1.465 7.024-2.504 1.87-.423 4.107-.719 2.215-.467 4.796-.809 9.294-1.228 18.72 1.203 9.577 2.236 18.416 6.846t16.68 10.928q8.01 6.296 13.83 13.23 3.586 4.605 4.79 4.446 3.98-9.632 9.763-20.202 5.931-10.765 13.639-20.014 7.685-9.421 17.328-15.95 9.62-6.7 20.98-8.2 3.613-.479 8.958.216 5.495.5 11.08 1.687 5.735.993 11.021 2.57 5.436 1.383 8.911 2.5 5.31 1.75 11.249 4.291 6.089 2.347 11.798 5.795 5.686 3.276 10.43 7.377 4.917 4.077 8.032 9.094 8.187 12.926 12.123 42.7 2.548 19.274 2.814 38.501.265 19.227-1.042 38.486m-238.693-98.2q3.185-6.375 3.048-7.407-.204-1.55-1.695-2.228-1.341-.873-2.546-.714-3.614.478-7.604 8.71-2.552 4.54-5.772 11.97t-6.178 15.525q-2.785 8.073-4.56 15.837-1.603 7.742-.875 13.25.386 2.925 1.075 2.834 1.893-.25 3.944-8.576 2.155-8.866 5.928-17.42 3.772-8.553 7.762-16.785 2.23-4.322 4.012-8.06 1.955-3.76 3.461-6.936m133.612-33.072q2.24-2.923 2.126-3.783-.432-3.27-3.013-2.929-3.098.41-6.452 4.18t-6.377 8.723-5.506 10.008-3.84 8.037q-2.714 5.963-2.623 6.65.387 2.927 1.591 2.767 1.893-.25 3.228-3.403 3.23-6.03 7.045-11.613 3.964-5.777 8.146-11.233zm149.735 143.566q1.052-11.759 5.168-22.593 4.129-11.007 10.738-20.262 6.796-9.415 15.7-16.758 9.076-7.33 20.024-11.736 13.474-5.61 27.67-4.55 10.56.788 20.303 5.519 9.917 4.744 18.332 10.942l1.494.982q1.297-3.384 2.702-5.89 1.592-2.667 3.626-4.256t4.694-2.261q2.835-.659 6.643-.375 2.597.194 4.142.483 1.718.303 3.064.925 1.52.636 3.013 1.618 1.494.982 3.468 2.522l-.52-.04q10.987 6.74 14.586 14.494 3.638 7.234 3.224 12.774-.103 1.385-.643 3.956-.367 2.583-1.357 6.513-.816 3.943-1.671 8.405-.856 4.463-1.923 9.431-.894 4.982-1.8 10.137-.907 5.154-2 10.47-1.853 10.828-2.434 18.618-.556 7.444-.662 13.529.067 6.098.757 10.85 1.02 9.65 5.695 9.998 2.77.207 5.829-1.131 3.072-1.512 6.01-3.555 3.124-2.204 5.74-4.62 2.618-2.416 4.319-4.204 6.056-6.511 10.658-14.524 4.614-8.185 6.818-16.725 1.556-6.847 3.135-9.34 1.38-2.16 5.707-1.837 3.29.245 5.225 2.305t2.767 4.906q1.018 2.687 1.132 5.83.286 3.154.093 5.75-.375 5.021-1.987 10.297t-4.09 10.488-5.623 10.025q-2.958 4.654-6.038 8.602-8.591 10.151-19.668 16.288-10.891 5.976-24.567 4.955l-1.904-.142q-1.039-.077-2.238-.34l-4.116-.83q-8.02-2.165-15.18-6.53-7.16-4.363-13.164-10.208-6.005-5.845-10.521-12.97-4.517-7.127-7.077-14.803l-1.633-3.778q-3.517 5.134-8.297 10.87-4.594 5.576-10.335 10.196-5.555 4.46-12.033 7.283-6.291 2.664-13.043 2.16-9.521-.71-18.342-3.805t-16.25-8.524-12.797-12.793q-5.356-7.537-7.961-16.957-1.811-6.054-2.385-12.364-.56-6.483-.23-13.247zm133.606-59.487q-2.11 2.628-2.305 5.225l.32.372q.693.052 1.796-.736 1.29-.949 2.419-2.083 1.302-1.121 2.098-2.455.969-1.32 1.02-2.012.091-1.212-1.294-1.316-2.077-.155-4.054 3.005m-67.724 72.411q-.354 2.41-.747 5.34-.393 2.931-.824 6.38l-.568 7.617q-.047 2.956.062 3.835.03 1.917 1.953 4.15l.77-.988q1.116-.96 1.687-1.615.385-.493 1.116-.96.731-.468 1.662-1.27 6.433-4.568 11.637-11.316 5.204-6.75 9.273-14.627 4.07-7.878 7.126-16.18t5.184-15.802q2.377-8.527 4.072-12.578.41-.84.623-1.347.224-.68.276-1.372l.155-2.077q.168-2.25-1.39-2.367t-3.726.94q-2.155.884-4.361 2.46-2.194 1.404-4.228 2.993l-2.976 2.563q-4.504 4.364-8.873 9.26-4.183 4.736-7.54 10.056l.347.026q-2.574 4.16-5 8.679-2.413 4.346-3.64 9.128-.688 2.212-1.202 4.437-.341 2.237-.868 4.635m-34.607-54.11q-.142 1.904 1.416 2.02.692.052 2.366-1.39.757-.813 2.246-2.095 1.661-1.268 4.092-3.524 2.047-1.762 4.24-3.165 2.38-1.563 4.92-2.94 4.175-2.3 8.325-4.254 4.163-2.126 8.312-4.08 3.22-1.152 3.284-2.017.078-1.039-1.108-1.476-1-.596-5.155-.907-2.597-.193-5.457.812-2.847.832-5.746 2.356t-5.478 3.421q-2.393 1.736-4.253 3.338l-2.977 2.563q-1.873 1.776-3.945 3.884-1.9 2.121-3.452 4.268-1.54 1.974-1.63 3.186m223.084 89.565q3.429-1.69 4.035-3.51.566-1.65-.261-6.48-1.702-7.177-2.54-15.755t-1.367-16.192q-.579-5.129-.281-7.912l.713-6.074-.052-6.61.118-3.538q.268-1.899.367-3.837l.535-3.798.914-3.887q1.985-8.45 3.882-11.213 1.888-3.48 3.14-4.256.666-.557 2.047-1.124t2.893-.925q1.719-.488 3.19-.677 1.64-.15 2.525-.12 1.053.07 2.704.635 1.859.437 4.523 1.241 3.768 1.42 7.496 3.01 3.897 1.628 7.545 3.555 3.728 1.59 6.115 3.577 2.465 1.649 3.37 3.11l-.506-.12q1.929 2.416 3.193 8.419.677 3.19 1.255 8.32.579 5.128 1.148 12.573l.959 14.135q1.997-1.671 3.746-3.043 1.789-1.542 3.538-2.914 1.789-1.541 3.369-2.953 1.62-1.581 3.448-3.292l3.577-3.082q1.958-1.502 3.786-3.212 1.958-1.502 3.746-3.043 1.958-1.502 3.707-2.874l5.665-4.376q2.832-2.187 5.753-3.997l-.079.338q4.502-3.223 7.97-5.082 3.47-1.86 8.757-3.115 6.43-.807 12.008.503 13.857 3.256 17.51 17.31 1.92 7.762-2.271 14.98-1.301 3.261-3.299 4.932-1.868 1.88-6.39 3.67l.338.08q-4.383 2.714-7.742 3.352t-8.43-.554q-5.07-1.191-5.945-3.537-1.293-2.087-1.661-4.313l.507.119-.01-.716-.259-.417-.596-.497q-.13-.209-.557-.666l-.766-.536q-.507-.12-2.594 1.173-2.047 1.124-4.84 3.143t-6.042 4.465q-3.21 2.278-6.042 4.465-2.792 2.02-4.959 3.65-1.957 1.502-2.414 1.93l-19.369 14.886.46 5.636-.338-.08 1.512 5.706 1.385 8.528-.338-.08 1.304 5.835q.19 1.47.737 4.453.757 2.852 1.85 5.784 1.264 2.972 2.687 5.268 1.59 2.335 3.28 2.732 4.733 1.112 10.586-1.793 6.063-3.034 11.767-7.578 5.912-4.674 10.682-9.795 4.939-5.08 7.631-8.193 10.314-12.02 14.28-14.477 2.504-1.552 4.87-.996 1.351.317 3.18 1.639 4.863 4.352 2.72 13.478-1.35 5.746-4.51 11.601-2.95 5.727-7.083 11.175-3.965 5.489-8.525 10.48-4.521 4.823-8.844 8.8-7.234 6.503-16.924 12.073-1.71 1.203-3.34 2.069l-2.712 1.68q-5.307 2.855-11.181 4.328t-11.67 2.608q-4.402 1.284-8.12.41-6.76-1.587-11.372-3.206-4.405-1.748-7.934-4.182-3.36-2.395-6.274-5.932-2.874-3.707-6.534-9.382-5.032-7.423-7.709-15.006-1.561-3.22-1.89-5.616-.33-2.395-1.035-1.67-1.003.478-2.216 1.085-1.004.477-2.425 1.213-1.59.697-3.011 1.433t-3.051 1.6q-37.298 21.375-52.17 17.88-2.535-.595-4.662-2.165-1.402-.864-2.645-2.404-1.034-1.67-1.86-3.469-.617-1.928-1.065-3.816-.408-2.058-.389-3.658-.1-4.125 2.015-9.334 1.102-2.416 2.294-4.454 1.232-2.207 2.723-3.997 1.37-1.283 2.842-1.472.755-.18 2.018-.24 1.431-.02 3.539.119 2.405.386 8.11-1.126 9.313-2.449 18.576-5.444 9.303-3.164 17.96-7.372zm114.794-70.394q-3.011 1.432-3.329 2.784-.198.845.816 1.083.507.12 1.809-.11t2.644-.627q1.51-.358 2.683-.796 1.213-.607 1.5-1.074.448-1.143-2.008-2.077-.895-.745-4.115.817m-102.352 30.342q.636.327.795-.349.158-.675.049-2.485.099-1.938-.161-5.387-.031-2.147.108-4.254.138-2.108.446-4.175.138-2.108.684-5.19.754-3.21 1.409-7.515l1.826-7.773q.675-2.873.744-3.927.268-1.898-1.134-2.763-1.78-.775-3.548 2.198-1.887 3.48-2.244 8.032-.148 1.392-.287 3.5-.099 1.938-.316 4.383-.09 2.654-.177 5.308-.05 2.485-.138 5.14.081 2.693.071 5.01-.01 2.315.23 4.333.101 4.125.36 4.542.686.875 1.282 1.372zm283.236-34.76q-3.186 8.817-9.623 15.904-6.437 7.088-12.965 13.405-2.472 2.244-4.65 3.672-1.955 1.324-3.896 2.1-5.275 2.339-8.346 2.152t-10.163-2.011q-4.63-1.489-7.837-2.832-4.766-2.645-9.741-5.735-4.812-3.03-8.72-7.027-1.71-1.91-2.975-4.028t-1.863-4.55q-.616-3.914-.457-5.886 0-2.032 2.533-9.053 2.387-7.628 3.88-10.226 2.971-4.649 6.995-9.655 4.083-5.17 8.806-9.554 4.885-4.326 10.396-7.318 5.57-3.156 11.399-3.45 4.122-.171 9.868 2.828 4.87 2.867 10.634 7.35t10.24 9.975 6.519 11.585q2.208 6.15-.034 12.355zm-43.046-24.413q6.337-5.278 4.388-8.567-.848-1.23-1.664-1.524-2.776-1.003-7.113 3.336-6.128 5.723-9.727 15.682-1.947 5.388-1.13 5.683.98.354 1.628-1.442.413-1.143 2.219-3.075t3.996-3.909 4.264-3.627q2.132-1.814 3.14-2.557m-50.318 53.435q3.692-.512 7.61.904 6.041 2.183 11.347 7.423 5.364 5.076 9.141 9.948.685 1.17 1.533 2.4 1.07 1.124 2.022 2.576 3.704 5.584 6.755 10.932l.939 2q.476.726.684 1.17.703 2.654-3.553 10.345-2.069 3.682-5.204 8.271-2.912 4.485-7.113 9.982-5.045 6.298-9.926 12.656-4.823 6.194-9.11 12.951l-3.576 6.83-2.187 4.009q-.93 2.063-2.082 4.231-1.684 3.637-3.04 7.392l-2.655 7.347q-.826 2.286-1.09 4.037l-.326-.118q.15.607.966.902 1.47.531 4.894-.262 3.587-.734 7.41-2.12 3.825-1.388 7.218-3.115 3.556-1.669 5.066-2.784l-.177.49 3.42-2.825q2.223-1.043 2.563-1.474l5.866-3.971q2.517-1.86 5.61-4.802l3.376-3.21q1.746-1.77 3.715-3.642 3.82-3.419 7.372-7.12 3.61-3.863 7.163-7.563l1.243-1.396q.785-.64 1.687-1.606 1.747-1.768 2.813-2.675l.15.608 3.302-2.499q1.465-1.5 2.685.232l2.171 3.185-.326-.118q4.43 5.107 2.837 9.516-1.71 4.734-6.71 11.418-4.836 6.744-10.992 13.564-6.097 6.657-12.507 12.647-6.351 5.826-11.15 8.891-3.688 2.544-8.591 5.387-4.74 2.901-10.075 5.404-5.275 2.34-10.7 4.07-5.365 1.569-9.815 1.622-1.097-.027-2.3-.277-1.201-.25-2.73-.617-1.364-.309-2.997-.899l-3.102-1.12q-15.347-5.546-25.141-15.73-9.795-10.184-12.409-26.449-1-10.513.771-22.056 1.83-11.705 5.37-21.501 3.127-8.653 7.573-17.383t10.14-16.825 12.458-15.064q6.927-6.91 14.852-11.984 1.837-.997 3.497-1.505 1.719-.671 3.483-.956zm-3.636 13.637q-2.059 1.102-4.708 3.837-3.997 3.908-7.53 9.092-3.535 5.183-5.423 10.407-1.357 3.755-.985 4.259.535.562 2.382-3.016.798-1.188 1.76-2.317 1.02-1.292 2.65-2.734 1.406-1.338 4.1-3.687 2.917-2.453 7.018-6.14 6.722-5.323 6.777-7.518-.167-2.09-2.126-2.799-1.96-.707-3.915.617m161.217 128.389q3.585-5.015 7.653-8.639l-.15.313q8.263-9.5 9.619-12.702 1.356-3.2-1.678-3.705-1.32-.06-4.416.756-1.78.488-3.634 1.133l-3.943 1.37q-6.029 2.097-12.35 5.594-6.322 3.497-12.558 7.614-6.004 4.037-11.847 8.537t-10.834 8.835q-5.223 4.415-6.434 6.915-.53 1.094-.993 1.255.464-.161-2.753 3.296-3.368 3.77-6.282 6.603-.15.312-1.22 1.723-.998.867-1.376 1.648-2.294 2.747-4.664 5.65-2.213 2.98-4.664 5.65-.69.63-1.149 1.18-.383.393-.847.554-.307.237-.69.63l-.616.474q-3.397 1.44-7.294.326-3.508-1.12-7.021-2.627l-6.563-3.177q-4.843-2.345-8.05-4.09-3.049-1.668-4.616-2.813-4.082-3.519-6.385-7.527-2.228-4.164-3.14-8.655-.755-4.416-.426-9.079.404-4.819 1.584-9.648.283-2.177 1.03-4.516.216-1.245.59-2.414.604-1.25 1.053-2.576.681-1.406 1.281-3.044l1.74-3.594 4.765-9.844q4.538-9.375 9.096-17.198 4.558-7.822 9.827-14.722 5.425-6.825 11.868-12.963 6.52-6.295 14.671-12.378 3.075-2.369 7.315-4.752 4.396-2.308 8.272-2.746 2.324-.418 4.976.48 2.726.741 4.914 1.8 4.063 1.967 9.002 5.708 5.095 3.816 9.117 8.656t6.345 10.4q2.398 5.404 1.223 10.621-1.17 5.606-6.671 12.586-1.457 1.416-2.99 2.989-1.3 1.492-3.065 3.145-1.608 1.729-3.065 3.145-1.382 1.26-2.844 2.288 2.314-1.194 3.932-2.147l2.007-.957q1.079-.635 2.394-.963 4.628-2.388 10.496-4.948t12.134-4.348q6.498-1.87 12.698-2.725 6.276-1.012 11.644-.15l-.312-.15q4.43.408 5.993 1.165 1.719.832 3.538 3.448 2.908 2.758 5.13 6.534t3.598 8.106 1.9 8.827-.204 8.387q-.066.933-.287 1.79-.222.857-.288 1.79-.973 2.807-1.952 5.226-.978 2.42-2.264 5.076l-3.025 6.25q-1.437 2.969-3.111 5.63-1.599 2.505-3.348 5.323-5.425 6.824-10.916 14.58-5.415 7.601-9.898 15.268-4.563 7.434-3.525 9.672.58 2.788 2.923 3.923 1.875.907 4.9.635 3.1-.427 6.195-1.244 3.171-.972 6.03-2.096 2.933-1.28 4.551-2.232 8.404-4.61 15.387-11.067 7.139-6.38 12.473-14.213 5.723-7.837 9.02-17.041 6.096-9.007 8.91-7.646 2.812 1.362 5.991 7.144.806 2.32 1.078 5.344.348 2.868.155 6.054.04 3.105-.389 5.983t-1.175 5.217q-1.2 3.276-3.555 7.344-3.807 5.872-8.082 11.517-4.12 5.72-9.025 10.674-4.608 3.942-9.22 7.495-4.457 3.628-8.838 7.1-8.687 6.79-17.07 6.974t-18.07-4.504q-12.188-5.9-21.174-16.421-5.624-8.702-6.973-17.07-1.118-8.448.93-18.257 1.468-6.619 3.208-10.212l2.647-5.47q.993-1.254 1.599-2.504l1.673-2.661q1.21-2.5 2.9-3.997 1.068-1.411 2.596-3.372t3.358-4.546m-42.965-74.994q2.072-1.89 1.906-2.742-.182-2.016-1.9-2.848-1.87-.52-4.033.362-2.082 1.114-5.228 4.027-2.914 2.832-6.13 6.29-3.141 3.3-5.97 6.753-2.753 3.297-4.275 5.645-3.056 3.922-2.88 5.55.398.771 1.624-.565.69-.63 2.223-2.202t4.063-4.012q2.753-3.296 6.212-6.058 3.69-2.842 7.466-5.065 2.54-1.663 4.154-3.003 1.77-1.265 2.768-2.132m147.84 170.416-.658 1.021q-.565.875-1.403 2.814-.743 1.793-1.435 3.825t-1.144 4.014q-.358 1.835-.151 2.795.499 1.148 3.5 2.26 12.85 6.019 25.471 6.312 12.766.387 26.239-3.522 3.642-1.161 6.564-2.168t5.416-1.67 4.697-1.515q2.202-.851 4.31-1.557 2.057-.945 3.873-1.84l4.113-1.89q2.056-.946 4.301-2.183 2.39-1.144 5.115-2.484 1.483-.697 3.445-1.496 2.056-.946 4.07-1.506 2.108-.705 4.132-.64 2.117-.079 3.576.862 2.917 1.883 3.943 6.057 1.119 4.028-.472 7.133-1.925 3.303-10.885 9.504-5.19 3.882-10.87 7.241-5.534 3.453-11.12 6.667-3.247 1.83-6.4 3.514-3.007 1.778-5.774 3.505-4.155 2.277-7.694 3.919-3.299 1.59-6.941 2.752-3.497 1.256-7.576 2.135-3.84.828-8.598 1.477-15.232 2.154-29.056-1.396-13.73-3.695-26.566-11.978-6.127-3.954-11.759-10.274-5.537-6.466-9.292-12.814-1.966-2.715-3.754-6.348-1.694-3.779-3.199-7.85-1.36-3.976-2.479-8.004-.88-4.08-1.51-7.585-1.81-8.4-1.504-16.88.401-8.625 2.543-16.746.349-2.461.947-4.348.597-1.887 1.247-3.534.795-1.552 1.967-3.689l3.106-4.813q4.424-6.856 10.067-12.718 5.882-5.914 12.65-10.638 6.86-4.87 14.324-8.11 7.703-3.294 15.675-4.761 13.303-2.366 24.553-.27 11.397 2.189 22.92 9.625 15.17 9.789 26.988 27.333 1.633 2.912 2.992 6.889 1.454 3.83 2.333 7.91t1.134 8.169q.493 4.037.112 7.51-.806 7.331-5.041 13.895-3.577 5.543-8.664 9.904-5.088 4.362-11.06 7.533-5.825 3.265-12.441 5.193-6.522 1.783-12.97 2.168-11.744.272-17.635-.844-5.548-.688-14.29-5.71zm20.331-25.102q-1.411 2.188.047 3.13 1.022.658 3.285.673l.188-.292q5.11.405 10.442-.493 5.571-.95 10.644-3.048 5.313-2.15 9.939-5.156 4.72-3.153 8.033-7.006.47-.73.795-1.553.47-.73.89-1.698 1.035-1.605 1.435-3.826-.513 1.115-2.555-.203-1.312-.847-3.242-1.059-1.971.174-8.014 1.853-4.32.932-8.87 2.54-4.55 1.61-8.945 3.938-4.156 2.277-8.01 5.368-3.614 3.04-6.061 6.832zm9.013-54.306q1.44-.31 1.995-1.811 1.308-2.668-1.025-4.174-2.626-1.694-6.767-1.68-4.046-.133-8.606.85-4.414 1.077-8.579 2.728-4.164 1.652-6.931 3.378t-5.285 4.028q-2.09 1.957-2.353 3.646-.118 1.784.79 1.337.72-.156 1.85-1.906 1.6-2.48 5.336-3.787 3.976-1.36 8.254-1.905 4.517-.597 8.752-.757 4.381-.065 6.936.137 4.673.123 5.633-.084" aria-label="To Maxine" style="font-size:347.192px;line-height:1;font-family:&quot;Magic Bubble&quot;;-inkscape-font-specification:&quot;Magic Bubble&quot;;text-align:center;text-anchor:middle;fill:#6fb9e5;fill-opacity:1;stroke-width:2.74099;stroke-linecap:round;stroke-linejoin:round"/><g transform="translate(271.06 839.932)scale(6.40608)"><path d="M207 16.362v.002c-44.377-3.678-79.358 14.412-100.723 42.426-70.004 99.903 32.568 220.73 76.702 224.886 42.768 4.027 166.68-95.3 116.459-206.705-24.64-49.253-73.192-58.728-91.737-60.547-.269-.026-.7-.06-.7-.061z" style="display:inline;fill:url(#i);stroke-width:2.09813;stroke-linecap:round;stroke-linejoin:round"/><path d="M190.809 15.982c-36.718 1.382-65.838 18.296-84.532 42.807-14.621 20.867-21.715 42.647-23.384 64.086A119.222 99.054 0 0 0 192 182a119.222 99.054 0 0 0 116.445-77.8c-1.916-8.961-4.871-18.054-9.007-27.23-24.64-49.253-73.192-58.727-91.737-60.546a135 135 0 0 0-16.893-.441" style="opacity:1;fill:url(#j);fill-opacity:1;stroke-width:3.51297;stroke-linecap:round;stroke-linejoin:round"/><path d="M191.137 15.97c-35.995 1.263-64.713 17.437-83.502 41.077a115.924 71.645 0 0 0 92.033 28.084 115.924 71.645 0 0 0 88.889-25.656C262.505 25.35 223.799 18.003 207.7 16.424a135 135 0 0 0-16.564-.453" style="opacity:1;fill:url(#k);fill-opacity:1;stroke-width:2;stroke-linecap:round;stroke-linejoin:round"/><path d="M85.54 157.619c10.991 58.846 58.632 122.402 97.44 126.057 38.107 3.588 96.296-50.17 118.037-104.848-2.896 2.146-5.728 4.008-8.447 5.363-6.146 3.063-11.713 3.535-17.229 3.346s-10.98-1.042-19.23-4.008c-20.117-7.474-40.377-16.83-62.075-15.996-21.697.834-41.115 8.819-58.302 10.988-16.528 2.087-27.94-1.88-42.735-14.232a158 158 0 0 1-7.459-6.67" style="fill:url(#l);stroke-width:2;stroke-linecap:round;stroke-linejoin:round"/><path d="M84.706 110.795c-1.263 7.67-1.763 15.251-1.646 22.678q.538.6 1.146 1.21c23.279 21.982 44.262 23.454 74.229 16.74 30.622-6.318 39.1-10.119 69.127 2.534 9.655 3.671 20.007 8.664 31.093 11.16 10.673 2.403 34.239 4.725 48.08-3.68 2.024-7.781 3.413-15.9 3.963-24.302-5.604 4.355-11.127 8.395-16.212 10.728-6.241 2.864-11.822 3.156-17.329 2.79-5.506-.368-10.94-1.395-19.09-4.626-19.865-8.118-39.814-18.123-61.527-17.988s-41.379 7.489-58.627 9.103c-16.586 1.553-27.864-2.78-42.254-15.601-3.916-3.49-7.489-7.099-10.953-10.746" style="fill:#847ba2;fill-opacity:1;stroke-width:2;stroke-linecap:round;stroke-linejoin:round"/><path d="M182.742 359.775c-1.891.138-16.752 12.137-17.627 25.846-.615 9.634 8.037 25.67 32.797 28.088 24.776 2.243 35.477-12.334 36.67-21.914 1.738-13.96-11.267-28.892-12.611-28.69-1.964.297-9.837 8.076-24.059 4.655-8.898-2.305-13.564-7.452-15.057-7.973a.3.3 0 0 0-.113-.012" style="display:inline;opacity:1;fill:#363337;fill-opacity:1;stroke-width:2;stroke-linecap:round;stroke-linejoin:round" transform="matrix(1.10719 .01438 -.01504 .97917 -17.759 -297.438)"/><path d="M225.458 25.1c-4.148-.048-8.86 6.156.366 12.426 3.831 2.603 7.908 2.561 9.854-.1 4.883-6.678-6.072-12.279-10.22-12.327" style="fill:#fffff8;fill-opacity:1"/><ellipse cx="210.559" cy="62.618" rx="16.015" ry="9.898" style="opacity:1;fill:#5b3a42;fill-opacity:1;stroke-width:2.13607;stroke-linecap:round;stroke-linejoin:round" transform="rotate(9.034)"/><path d="M83.2 124.977c-39.093 8.567-65.121 24.066-67.298 43.56-1.973 17.676 15.545 35.641 46.09 49.899 30.546 14.257 74.12 24.806 122.703 28.886 2.396.201 175.963 14.557 183.084-49.232 2.21-19.786-20.35-40.636-57.806-55.633-2.223 16.783-7.809 33.39-14.707 47.213-26.916 16.564-59.99 25.552-94.03 25.553-41.307 0-80.874-13.226-109.77-36.692-5.439-16.224-8.916-34.476-8.265-53.554" style="display:inline;opacity:1;fill:url(#m);stroke-width:1.89079;stroke-linecap:round;stroke-linejoin:round"/><path d="M83.2 124.977c-69.72 15.064-90.848 50.814-18.907 84.648 30.316 14.257 73.58 24.608 121.781 28.887 184.849 16.408 227.257-55.568 123.899-96.055-2.128 17.2-7.66 33.091-14.707 47.213-26.916 16.564-59.99 25.552-94.03 25.553-41.307 0-80.874-13.226-109.77-36.692-5.45-16.256-8.934-34.436-8.265-53.554" style="display:inline;opacity:1;fill:url(#n);stroke-width:1.88367;stroke-linecap:round;stroke-linejoin:round"/><path d="M83.936 145.424c-13.09 5.818-21.128 13.256-22.147 21.816-1.463 12.287 11.522 24.773 34.166 34.684s54.948 17.244 90.965 20.08c1.776.14 130.445 10.117 135.725-34.223 1.026-8.62-5.201-17.232-16.829-25.027-2.72 9.531-6.368 18.535-10.55 26.916-59.841 36.827-145.342 33.51-200.309-8.392-1.95-1.487-4.128-4.63-4.85-6.974-2.812-9.117-5.003-18.805-6.171-28.88" style="display:inline;opacity:1;fill:url(#o);stroke-width:1.3573;stroke-linecap:round;stroke-linejoin:round"/><path d="M259.298 70.548c-4.037 3.039-4.727 3.887-4.163 5.112.537 1.164.984 1.098 4.729-.704 10.561-5.083 17.888-2.923 18.785-2.625 1.484.493 2.491.409 3.315-.278 4.594-3.829-7.469-12.948-22.667-1.505M146.984 60.85c3.736 3.401 4.345 4.31 3.67 5.477-.643 1.11-1.082 1.002-4.643-1.14-10.043-6.043-17.54-4.573-18.46-4.36-1.523.353-2.519.175-3.275-.585-4.218-4.24 8.64-12.198 22.709.609" style="fill:#363039;fill-opacity:1;stroke-width:.209878"/></g><path d="M853.366 448.78q2.802 3.16 4.616 8.99.666 2.042 1.444 5.242.687 3.054 1.171 6.439t.73 6.715q.3 3.09.046 5.3-.381 3.312-2.564 7.346-1.761 2.745-3.194 4.054l-2.5 1.568q-1.47.923-3.861 2.013l-7.133 3.656-11.161 4.748q-8.238 3.53-16.199 7.5-7.906 3.73-15.405 8.436-3.235 2.03-2.866 2.618.184.294 2.338.787 2.024-.04 4.071 2.569.83 1.323 1.46 2.978.775 1.563 1.055 3.642.556 2.52 1.574 5.775.925 3.108 2.073 6.897l2.48 7.871q1.24 3.936 2.516 8.258 1.425 4.23 2.664 8.166l2.48 7.87q1.387 3.844 2.312 6.952 1.073 3.016 1.923 5.352l-.294.184 1.739 5.058q3.587 9.636 7.43 18.7 3.99 8.973 8.183 17.615 8.586 16.95 17.385 29.669 2.454 3.584 4.686 6.487t4.72 5.236q2.396 2.186 5.472 4.15 2.984 1.816 7.127 3.52 2.872.657 4.438 1.52 2.32 1.412 2.505 1.706 1.015 1.618-1.02 5.56-2.973 4.733-7.658 8.698-4.539 3.872-9.244 6.824-4.559 2.86-9.67 4.839-5.02 2.124-10.392 3.036-5.132.965-10.415.386-5.19-.433-10.327-2.742-12.837-6.087-30.246-27.954-1.862-2.315-3.356-4.042-1.439-1.967-2.453-3.584-1.162-1.525-2.085-2.996l-1.938-3.088-2.03-3.235q-1.107-1.765-2.159-3.768-7.75-12.352-14.252-26.307-6.447-14.195-12.046-27.692-2.439-5.847-4.786-11.547-2.44-5.847-4.694-11.4-2.347-5.7-4.287-10.427-1.886-4.965-3.31-9.194-4.648 4.35-8.451 7.761t-6.577 6.176q-2.866 2.618-5.438 5.052t-5.051 5.014q-2.333 2.488-3.82 4.036-1.434 1.31-2.077 1.918-2.424 2.34-2.698 3.537-1.984 2.065-4.152 3.835-.992 1.032-1.874 1.586l-1.47.923q-3.971 2.49-8.129 3.05t-8.28-.133q-4.069-.931-7.918-2.82-3.794-2.128-7.038-5.01-6.433-6.007-9.815-14.337-.648-2.667-1.591-5.15-.888-2.72-1.537-5.388 1.079-14.612 7.353-25.517 6.181-11.051 16.008-21.52 12.507-13.382 31.14-28.76l13.159-9.077q6.58-4.538 13.343-8.783 6.765-4.244 13.713-8.194l13.898-7.9q4.394-2.142 11.804-5.357t16.218-6.487q8.956-3.365 18.427-6.234t17.934-4.08q8.61-1.302 15.42-.247 6.865.816 10.406 5.152m-150.323 81.818q1.747-.482 1.194-1.364-.407-.974-1.843-1.303-1.583-.237-5.259 2.07-6.634 4.777-13.468 11.524-6.686 6.655-11.642 13.454-5.087 6.265-5.632 10.296t2.751 5.037q1.62.623 3.108-.926 1.34-1.456 6.038-9.321 1.303-1.843 2.661-3.924 1.266-2.23 2.679-4.55 2.678-4.55 5.01-7.038 3.343-4.146 8.192-8.829 4.648-4.35 6.211-5.126m299.992-11.236q.948 1.667 2.311 4.67 1.522 2.932 3.603 7.516 1.22 2.687 2.21 5.288 1.077 2.37 1.852 4.498 2.295 7.155 3.04 14.253.672 6.94.783 14.324-.347 5.114-.923 10.143-.577 5.028-2.62 9.768-5.45 14.867-14.592 24.547-3.78 3.432-8.379 5.9-4.44 2.398-9.024 4.48-4.268 1.937-7.975 3.43-3.621 1.263-6.595 1.85-4.01 1.249-9.642 2.28-5.474.96-11.321 1.519-5.92.4-11.508.268-5.66-.29-9.812-1.456-12.01-2.936-20.283-8.14t-15.438-15.106q-3.317-4.786-6.102-9.24-2.627-4.527-4.565-8.795-7.105-15.649-6.15-32.86-.084-3.965.306-8.146.476-4.41 1.627-8.174.432-1.15.791-2.456.446-1.537.979-3.304 3.668-10.817 9.993-19.98t15.652-15.496q1.351-.804 3.722-1.88 2.457-1.306 5.935-2.885 4.972-2.067 8.98-3.315 4.168-1.32 8.076-1.95 3.994-.86 8.276-1.089 4.21-.386 9.568-.34l-.143-.317q20.96.397 33.555 12.6 1.135.82 2.111 1.71 1.595.993 1.983 1.007 7.01 1.583 11.376 5.32 4.524 3.666 8.343 9.558m-99.448.159q5.865-7.239 1.785-8.246-.92-.345-2.184.229-2.213 1.005-4.57 3.79-2.2 2.715-4.183 5.904-1.984 3.188-3.509 6.55-1.596 3.203-2.372 5.271-4.661 14.509.108 15.775 1.364.906 1.739-.79l1.252-6.478q.49-2.701 1.842-5.603 1.28-3.06 2.861-5.874 1.668-3.045 3.551-5.616 1.97-2.801 3.68-4.912m76.121 21.109-2.342.3.317-.143q-3.995.86-7.5-.98-3.346-1.913-6.046-4.5-.747-.805-1.25-1.911-.501-1.107-1.076-2.371-.76-2.515-1.103-5.79-.874-5.704-2.381-9.024-1.508-3.32-3.605-3.32-3.29.731-6.626 6.821-3.25 5.86-4.517 12.727-.796 12.945 2.043 26.336 2.767 13.233 8.078 24.93l2.225 4.9q.861 1.897 1.45 2.773.43.949 1.177 1.754.905.733 2.04 1.552 2.125 1.323 3.806 2.085 1.68.762 3.074.892 2.543.561 5.245-1.047.876-.588 1.595-1.105l1.753-1.177q1.926-1.637 2.817-2.614l-.144-.316q5.204-6.176 6.572-13.66 1.454-7.715.97-15.502l.143.316-2.48-12.6zm493.53-111.105q-1.443 18.227-2.594 32.037-1.174 13.639-2.354 23.25t-2.509 16.792q-1.35 7.008-2.869 11.411-2.993 9.15-7.847 10.843-2.513.858-5.738 1.634-3.052.754-7.01 1.277-20.308 2.685-34.135-3.892-13.805-6.406-15.42-18.625-1.001-7.572-.433-12.55 2.387-21.679 3.226-43.152.838-21.474.92-43.373l-.083-17.85q-.163-7.858-.499-15.694-.358-8.007-.888-15.992-.224-4.348-.576-8.33-.35-3.98-.53-7.984-.35-3.98-.76-7.079-.26-3.292-.602-5.874-1.501-11.358-4.943-10.903-1.377.182-4.25 4.94-6.425 11.005-11.704 22.734-5.301 11.558-10.04 23.39-1.231 2.615-2.543 5.94-1.334 3.154-2.645 6.479-1.14 3.302-2.084 6.754-.795 3.257-1.292 6.125-.899 3.796-1.671 7.225-.6 3.406-1.075 6.446-.473 3.039-1.119 6.101-.497 2.868-.97 5.907-.983 7.134-1.45 14.2-.318 6.871-.245 14.041-.268 13.869-2.67 18.214t-10.664 5.437q-11.703 1.547-19.795-4.037-7.92-5.607-11.315-16.716l-2.72-9.971-.545-4.13-2.638-10.684q-2.476-12.105-5.101-24.015-2.453-11.934-5.423-23.798-.354-1.355-1.176-4.923t-2.056-7.608-2.55-7.368-2.439-3.88q.195.15.218.322l-.692 2.718q-.46 1.812-1.519 4.403t-2.048 5.7l-2.152 6.237q-2.198 5.894-4.409 13.016-2.21 7.12-2.619 13.304l-.774 15.336q-.048 2.283-.178 5.277.043 2.971-.019 6.481-1.292 27.313 2.348 54.848.526 1.332.776 3.225.332 1.182.536 2.73.354 1.355.949 3.202.422 1.87.936 4.43.49 2.386 1.094 5.633 2.44 13.16 5.719 26.035 3.427 12.68 7.542 25.27.637 4.818-.742 7.627-1.357 2.981-4.124 4.573-2.743 1.763-6.484 2.608-3.569.822-7.527 1.345-13.424 1.775-23.961-2.436-10.366-4.233-18.478-12.616-7.918-8.234-13.79-19.54t-9.942-23.551q-3.899-12.268-6.397-24.545t-3.84-22.431q-1.82-13.768-1.69-28.67.132-14.9 2.007-29.858 2.047-14.98 5.562-29.452 3.493-14.646 8.245-27.706 1.542-4.232 3.555-8.875 2.012-4.644 4.415-8.99 2.552-4.539 5.539-8.436 3.136-4.092 6.58-7.174 2.78-2.819 5.741-4.26 3.134-1.466 7.024-2.505 1.87-.423 4.107-.718 2.215-.468 4.796-.81 9.294-1.228 18.72 1.203 9.577 2.236 18.416 6.846t16.68 10.928q8.01 6.296 13.83 13.231 3.586 4.604 4.79 4.445 3.98-9.632 9.763-20.202 5.931-10.765 13.639-20.014 7.685-9.421 17.328-15.949 9.62-6.7 20.98-8.202 3.613-.477 8.958.217 5.495.5 11.08 1.687 5.735.993 11.021 2.57 5.436 1.383 8.911 2.5 5.31 1.75 11.249 4.292 6.089 2.347 11.798 5.794 5.686 3.276 10.43 7.377 4.917 4.078 8.032 9.094 8.187 12.926 12.123 42.7 2.548 19.275 2.814 38.501.265 19.227-1.042 38.486m-238.693-98.2q3.185-6.375 3.048-7.407-.204-1.55-1.695-2.228-1.341-.873-2.546-.714-3.614.478-7.604 8.71-2.552 4.54-5.772 11.97t-6.178 15.526q-2.785 8.072-4.56 15.837-1.603 7.741-.875 13.248.386 2.926 1.075 2.835 1.893-.25 3.944-8.576 2.155-8.865 5.928-17.419 3.772-8.553 7.762-16.786 2.23-4.322 4.012-8.06 1.955-3.76 3.461-6.936m133.612-33.072q2.24-2.923 2.126-3.783-.432-3.27-3.013-2.929-3.098.41-6.452 4.18t-6.377 8.723-5.506 10.008q-2.483 5.057-3.84 8.038-2.714 5.962-2.623 6.65.387 2.926 1.591 2.767 1.893-.25 3.228-3.404 3.23-6.03 7.045-11.613 3.964-5.777 8.146-11.233zm149.735 143.566q1.052-11.759 5.168-22.593 4.129-11.007 10.738-20.262 6.796-9.415 15.7-16.758 9.076-7.33 20.024-11.736 13.474-5.61 27.67-4.55 10.56.788 20.303 5.52 9.917 4.743 18.332 10.942l1.494.982q1.297-3.385 2.702-5.892 1.592-2.666 3.626-4.255t4.694-2.26q2.835-.66 6.643-.375 2.597.193 4.142.483 1.718.302 3.064.925 1.52.635 3.013 1.617 1.494.982 3.468 2.522l-.52-.039q10.987 6.739 14.586 14.493 3.638 7.234 3.224 12.774-.103 1.385-.643 3.956-.367 2.584-1.357 6.514-.816 3.943-1.671 8.405t-1.923 9.43q-.894 4.982-1.8 10.137-.907 5.155-2 10.47-1.853 10.828-2.434 18.618-.556 7.444-.662 13.529.067 6.098.757 10.85 1.02 9.65 5.695 9.999 2.77.206 5.829-1.132 3.072-1.511 6.01-3.555 3.124-2.204 5.74-4.62 2.618-2.416 4.319-4.204 6.056-6.511 10.658-14.523 4.614-8.186 6.818-16.725 1.556-6.847 3.135-9.34 1.38-2.16 5.707-1.838 3.29.246 5.225 2.305t2.767 4.907q1.018 2.687 1.132 5.829.286 3.154.093 5.751-.375 5.02-1.987 10.297-1.613 5.276-4.09 10.487-2.478 5.212-5.623 10.025-2.958 4.654-6.038 8.602-8.591 10.152-19.668 16.288-10.891 5.976-24.567 4.956l-1.904-.142q-1.039-.078-2.238-.341l-4.116-.83q-8.02-2.165-15.18-6.53-7.16-4.363-13.164-10.208-6.005-5.844-10.521-12.97t-7.077-14.803l-1.633-3.778q-3.517 5.134-8.297 10.87-4.594 5.576-10.335 10.196-5.555 4.46-12.033 7.284-6.291 2.664-13.043 2.16-9.521-.71-18.342-3.806t-16.25-8.524-12.797-12.793q-5.356-7.537-7.961-16.957-1.811-6.054-2.385-12.364-.56-6.482-.23-13.247zm133.606-59.486q-2.11 2.627-2.305 5.224l.32.372q.693.052 1.796-.736 1.29-.948 2.419-2.083 1.302-1.121 2.098-2.454.969-1.32 1.02-2.013.091-1.212-1.294-1.315-2.077-.155-4.054 3.005m-67.724 72.41q-.354 2.411-.747 5.341t-.824 6.38l-.568 7.617q-.047 2.955.062 3.834.03 1.917 1.953 4.15l.77-.987q1.116-.962 1.687-1.615.385-.494 1.116-.961.731-.468 1.662-1.27 6.433-4.567 11.637-11.316t9.273-14.627 7.126-16.18 5.184-15.802q2.377-8.527 4.072-12.578.41-.84.623-1.346.224-.68.276-1.372l.155-2.078q.168-2.25-1.39-2.366t-3.726.94q-2.155.884-4.361 2.46-2.194 1.403-4.228 2.992l-2.976 2.563q-4.504 4.364-8.873 9.26-4.183 4.736-7.54 10.056l.347.026q-2.574 4.16-5 8.68-2.413 4.345-3.64 9.128-.688 2.211-1.202 4.436-.341 2.238-.868 4.635m-34.607-54.11q-.142 1.905 1.416 2.021.692.052 2.366-1.39.757-.814 2.246-2.096 1.661-1.268 4.092-3.524 2.047-1.762 4.24-3.165 2.38-1.563 4.92-2.94 4.175-2.3 8.325-4.253 4.163-2.127 8.312-4.08 3.22-1.152 3.284-2.018.078-1.039-1.108-1.475-1-.597-5.155-.907-2.597-.194-5.457.811-2.847.832-5.746 2.356t-5.478 3.421q-2.393 1.737-4.253 3.339l-2.977 2.563q-1.873 1.775-3.945 3.883-1.9 2.121-3.452 4.269-1.54 1.974-1.63 3.185M1772.25 490.2q3.429-1.691 4.035-3.51.566-1.65-.261-6.481-1.702-7.177-2.54-15.755t-1.367-16.191q-.579-5.13-.281-7.913l.713-6.073-.052-6.61.118-3.54q.268-1.898.367-3.836l.535-3.797.914-3.887q1.985-8.45 3.882-11.214 1.888-3.48 3.14-4.255.666-.557 2.047-1.124t2.893-.926q1.719-.487 3.19-.677 1.64-.15 2.525-.12 1.053.07 2.704.635 1.859.437 4.523 1.241 3.768 1.42 7.496 3.01 3.897 1.629 7.545 3.556 3.728 1.589 6.115 3.576 2.465 1.65 3.37 3.11l-.506-.119q1.929 2.415 3.193 8.418.677 3.19 1.255 8.32.579 5.128 1.148 12.573l.959 14.135q1.997-1.67 3.746-3.043 1.789-1.541 3.538-2.914 1.789-1.541 3.369-2.953 1.62-1.581 3.448-3.291l3.577-3.083q1.958-1.502 3.786-3.212 1.958-1.502 3.746-3.043 1.958-1.501 3.707-2.874l5.665-4.375q2.832-2.188 5.753-3.998l-.079.338q4.502-3.222 7.97-5.082 3.47-1.86 8.757-3.114 6.43-.808 12.008.502 13.857 3.256 17.51 17.31 1.92 7.763-2.271 14.98-1.301 3.261-3.299 4.932-1.868 1.88-6.39 3.67l.338.08q-4.383 2.715-7.742 3.352t-8.43-.554-5.945-3.537q-1.293-2.087-1.661-4.313l.507.12-.01-.717-.259-.417-.596-.497q-.13-.208-.557-.666l-.766-.536q-.507-.12-2.594 1.174-2.047 1.124-4.84 3.142-2.792 2.02-6.042 4.466-3.21 2.277-6.042 4.465-2.792 2.018-4.959 3.65-1.957 1.501-2.414 1.929l-19.369 14.886.46 5.636-.338-.08 1.512 5.706 1.385 8.528-.338-.08 1.304 5.835q.19 1.471.737 4.453.757 2.853 1.85 5.784 1.264 2.972 2.687 5.268 1.59 2.335 3.28 2.732 4.733 1.112 10.586-1.793 6.063-3.033 11.767-7.578 5.912-4.674 10.682-9.794 4.939-5.082 7.631-8.194 10.314-12.02 14.28-14.477 2.504-1.552 4.87-.996 1.351.318 3.18 1.64 4.863 4.351 2.72 13.477-1.35 5.746-4.51 11.602-2.95 5.726-7.083 11.175-3.965 5.488-8.525 10.48-4.521 4.822-8.844 8.8-7.234 6.503-16.924 12.072-1.71 1.204-3.34 2.069l-2.712 1.68q-5.307 2.855-11.181 4.328t-11.67 2.609q-4.402 1.283-8.12.41-6.76-1.588-11.372-3.207-4.405-1.748-7.934-4.182-3.36-2.394-6.274-5.932-2.874-3.707-6.534-9.381-5.032-7.424-7.709-15.007-1.561-3.22-1.89-5.616-.33-2.395-1.035-1.67-1.003.478-2.216 1.085-1.004.477-2.425 1.213-1.59.697-3.011 1.433t-3.051 1.601q-37.298 21.374-52.17 17.88-2.535-.595-4.662-2.165-1.402-.865-2.645-2.405-1.034-1.67-1.86-3.468-.617-1.928-1.065-3.817-.408-2.057-.389-3.658-.1-4.125 2.015-9.334 1.102-2.416 2.294-4.454 1.232-2.207 2.723-3.997 1.37-1.283 2.842-1.472.755-.18 2.018-.24 1.431-.02 3.539.119 2.405.387 8.11-1.126 9.313-2.449 18.576-5.444 9.303-3.164 17.96-7.371zm114.794-70.395q-3.011 1.432-3.329 2.784-.198.845.816 1.084.507.119 1.809-.11 1.302-.23 2.644-.627 1.51-.359 2.683-.797 1.213-.606 1.5-1.074.448-1.143-2.008-2.076-.895-.746-4.115.816m-102.352 30.342q.636.328.795-.348.158-.676.049-2.485.099-1.939-.161-5.388-.031-2.147.108-4.254.138-2.108.446-4.175.138-2.107.684-5.19.754-3.21 1.409-7.514l1.826-7.774q.675-2.873.744-3.927.268-1.898-1.134-2.763-1.78-.774-3.548 2.198-1.887 3.48-2.244 8.033-.148 1.391-.287 3.499-.099 1.938-.316 4.383-.09 2.654-.177 5.308-.05 2.486-.138 5.14.081 2.693.071 5.01-.01 2.315.23 4.333.101 4.125.36 4.543.686.874 1.282 1.37zm283.236-34.76q-3.186 8.817-9.623 15.905t-12.965 13.404q-2.472 2.244-4.65 3.673-1.955 1.324-3.896 2.099-5.275 2.339-8.346 2.152t-10.163-2.01q-4.63-1.49-7.837-2.833-4.766-2.645-9.741-5.734-4.812-3.031-8.72-7.028-1.71-1.91-2.975-4.028t-1.863-4.55q-.616-3.913-.457-5.886 0-2.032 2.533-9.052 2.387-7.629 3.88-10.227 2.971-4.648 6.995-9.655 4.083-5.17 8.806-9.554 4.885-4.326 10.396-7.318 5.57-3.156 11.399-3.45 4.122-.17 9.868 2.828 4.87 2.868 10.634 7.35t10.24 9.975 6.519 11.585q2.208 6.15-.034 12.355zm-43.046-24.413q6.337-5.278 4.388-8.567-.848-1.23-1.664-1.524-2.776-1.003-7.113 3.337-6.128 5.722-9.727 15.681-1.947 5.388-1.13 5.683.98.354 1.628-1.442.413-1.143 2.219-3.075 1.805-1.931 3.996-3.908t4.264-3.628q2.132-1.814 3.14-2.557m-50.318 53.435q3.692-.511 7.61.904 6.041 2.183 11.347 7.423 5.364 5.076 9.141 9.948.685 1.17 1.533 2.4 1.07 1.124 2.022 2.576 3.704 5.584 6.755 10.932l.939 2q.476.726.684 1.17.703 2.654-3.553 10.345-2.069 3.682-5.204 8.272-2.912 4.485-7.113 9.98-5.045 6.3-9.926 12.657-4.823 6.195-9.11 12.952l-3.576 6.83-2.187 4.008q-.93 2.064-2.082 4.231-1.684 3.637-3.04 7.393l-2.655 7.346q-.826 2.286-1.09 4.037l-.326-.118q.15.608.966.903 1.47.53 4.894-.263 3.587-.734 7.41-2.12 3.825-1.388 7.218-3.115 3.556-1.668 5.066-2.784l-.177.49 3.42-2.825q2.223-1.043 2.563-1.473l5.866-3.972q2.517-1.86 5.61-4.802l3.376-3.21q1.746-1.769 3.715-3.642 3.82-3.419 7.372-7.119 3.61-3.863 7.163-7.564l1.243-1.396q.785-.64 1.687-1.605 1.747-1.769 2.813-2.676l.15.608 3.302-2.498q1.465-1.501 2.685.231l2.171 3.185-.326-.118q4.43 5.108 2.837 9.516-1.71 4.734-6.71 11.419-4.836 6.743-10.992 13.563-6.097 6.657-12.507 12.647-6.351 5.827-11.15 8.892-3.688 2.543-8.591 5.386-4.74 2.902-10.075 5.404-5.275 2.34-10.7 4.07-5.365 1.569-9.815 1.623-1.097-.028-2.3-.278-1.201-.25-2.73-.617-1.364-.309-2.997-.899l-3.102-1.12q-15.347-5.546-25.141-15.73-9.795-10.184-12.409-26.449-1-10.513.771-22.056 1.83-11.705 5.37-21.501 3.127-8.653 7.573-17.383t10.14-16.824 12.458-15.065q6.927-6.91 14.852-11.984 1.837-.997 3.497-1.505 1.719-.67 3.483-.956zm-3.636 13.638q-2.059 1.101-4.708 3.836-3.997 3.909-7.53 9.092-3.535 5.183-5.423 10.408-1.357 3.755-.985 4.258.535.563 2.382-3.015.798-1.189 1.76-2.318 1.02-1.292 2.65-2.734 1.406-1.338 4.1-3.686 2.917-2.454 7.018-6.14 6.722-5.323 6.777-7.518-.167-2.091-2.126-2.8-1.96-.707-3.915.617m161.217 128.388q3.585-5.015 7.653-8.639l-.15.313q8.263-9.5 9.619-12.701t-1.678-3.706q-1.32-.06-4.416.756-1.78.488-3.634 1.133l-3.943 1.37q-6.029 2.097-12.35 5.594-6.322 3.497-12.558 7.615-6.004 4.036-11.847 8.537-5.843 4.5-10.834 8.834-5.223 4.415-6.434 6.915-.53 1.094-.993 1.255.464-.161-2.753 3.296-3.368 3.77-6.282 6.603-.15.312-1.22 1.724-.998.866-1.376 1.648-2.294 2.747-4.664 5.65-2.213 2.978-4.664 5.65-.69.63-1.149 1.179-.383.393-.847.554-.307.237-.69.63l-.616.474q-3.397 1.441-7.294.326-3.508-1.12-7.021-2.627l-6.563-3.177q-4.843-2.344-8.05-4.09-3.049-1.668-4.616-2.813-4.082-3.519-6.385-7.527-2.228-4.164-3.14-8.655-.755-4.416-.426-9.079.404-4.818 1.584-9.647.283-2.178 1.03-4.517.216-1.245.59-2.414.604-1.25 1.053-2.576.681-1.406 1.281-3.044l1.74-3.594 4.765-9.844q4.538-9.375 9.096-17.198 4.558-7.822 9.827-14.722 5.425-6.824 11.868-12.963 6.52-6.295 14.671-12.378 3.075-2.368 7.315-4.752 4.396-2.308 8.272-2.746 2.324-.418 4.976.48 2.726.741 4.914 1.8 4.063 1.967 9.002 5.708 5.095 3.817 9.117 8.656t6.345 10.4q2.398 5.405 1.223 10.622-1.17 5.605-6.671 12.585-1.457 1.417-2.99 2.99-1.3 1.491-3.065 3.144-1.608 1.729-3.065 3.145-1.382 1.26-2.844 2.288 2.314-1.194 3.932-2.147l2.007-.957q1.079-.635 2.394-.962 4.628-2.389 10.496-4.949t12.134-4.348q6.498-1.869 12.698-2.725 6.276-1.012 11.644-.15l-.312-.15q4.43.409 5.993 1.165 1.719.832 3.538 3.448 2.908 2.758 5.13 6.534t3.598 8.106 1.9 8.827-.204 8.388q-.066.932-.287 1.79-.222.856-.288 1.789-.973 2.807-1.952 5.227-.978 2.419-2.264 5.075l-3.025 6.25q-1.437 2.97-3.111 5.63-1.599 2.505-3.348 5.323-5.425 6.824-10.916 14.581-5.415 7.6-9.898 15.267-4.563 7.434-3.525 9.673.58 2.787 2.923 3.922 1.875.907 4.9.636 3.1-.428 6.195-1.244 3.171-.973 6.03-2.096 2.933-1.28 4.551-2.233 8.404-4.61 15.387-11.067 7.139-6.38 12.473-14.213 5.723-7.837 9.02-17.04 6.096-9.008 8.91-7.646 2.812 1.361 5.991 7.143.806 2.32 1.078 5.344.348 2.868.155 6.054.04 3.105-.389 5.983t-1.175 5.217q-1.2 3.276-3.555 7.344-3.807 5.872-8.082 11.517-4.12 5.72-9.025 10.675-4.608 3.94-9.22 7.494-4.457 3.628-8.838 7.1-8.687 6.79-17.07 6.974-8.383.186-18.07-4.504-12.188-5.9-21.174-16.421-5.624-8.702-6.973-17.07-1.118-8.448.93-18.257 1.468-6.618 3.208-10.212l2.647-5.469q.993-1.255 1.599-2.505l1.673-2.661q1.21-2.5 2.9-3.997 1.068-1.411 2.596-3.372t3.358-4.546m-42.965-74.994q2.072-1.89 1.906-2.742-.182-2.016-1.9-2.848-1.87-.52-4.033.362-2.082 1.114-5.228 4.027-2.914 2.832-6.13 6.29-3.141 3.301-5.97 6.754-2.753 3.296-4.275 5.645-3.056 3.92-2.88 5.549.398.771 1.624-.564.69-.63 2.223-2.203t4.063-4.012q2.753-3.296 6.212-6.058 3.69-2.842 7.466-5.064 2.54-1.663 4.154-3.004 1.77-1.265 2.768-2.132m147.84 170.416-.658 1.021q-.565.876-1.403 2.814-.743 1.793-1.435 3.826-.692 2.032-1.144 4.013-.358 1.835-.151 2.795.499 1.149 3.5 2.26 12.85 6.02 25.471 6.312 12.766.388 26.239-3.521 3.642-1.162 6.564-2.169t5.416-1.67 4.697-1.514 4.31-1.558q2.057-.945 3.873-1.839l4.113-1.891q2.056-.946 4.301-2.183 2.39-1.143 5.115-2.484 1.483-.696 3.445-1.496 2.056-.946 4.07-1.505 2.108-.706 4.132-.64 2.117-.08 3.576.862 2.917 1.882 3.943 6.056 1.119 4.028-.472 7.134-1.925 3.303-10.885 9.504-5.19 3.881-10.87 7.24-5.534 3.454-11.12 6.667-3.247 1.83-6.4 3.514-3.007 1.779-5.774 3.505-4.155 2.277-7.694 3.92-3.299 1.59-6.941 2.751-3.497 1.256-7.576 2.136-3.84.827-8.598 1.476-15.232 2.154-29.056-1.396-13.73-3.695-26.566-11.978-6.127-3.953-11.759-10.274-5.537-6.466-9.292-12.814-1.966-2.715-3.754-6.348-1.694-3.779-3.199-7.85-1.36-3.976-2.479-8.004-.88-4.08-1.51-7.585-1.81-8.4-1.504-16.88.401-8.624 2.543-16.746.349-2.46.947-4.348.597-1.887 1.247-3.533.795-1.553 1.967-3.69l3.106-4.813q4.424-6.855 10.067-12.718 5.882-5.914 12.65-10.638 6.86-4.87 14.324-8.11 7.703-3.294 15.675-4.761 13.303-2.365 24.553-.27 11.397 2.189 22.92 9.625 15.17 9.79 26.988 27.333 1.633 2.913 2.992 6.889 1.454 3.83 2.333 7.91t1.134 8.17q.493 4.037.112 7.51-.806 7.33-5.041 13.894-3.577 5.543-8.664 9.905-5.088 4.361-11.06 7.532-5.825 3.265-12.441 5.194-6.522 1.782-12.97 2.167-11.744.272-17.635-.844-5.548-.687-14.29-5.71zm20.331-25.102q-1.411 2.188.047 3.13 1.022.658 3.285.673l.188-.292q5.11.405 10.442-.493 5.571-.95 10.644-3.048 5.313-2.15 9.939-5.156 4.72-3.152 8.033-7.006.47-.73.795-1.553.47-.729.89-1.698 1.035-1.605 1.435-3.826-.513 1.115-2.555-.202-1.312-.847-3.242-1.06-1.971.174-8.014 1.854-4.32.931-8.87 2.54t-8.945 3.937q-4.156 2.277-8.01 5.369-3.614 3.039-6.061 6.831zm9.013-54.305q1.44-.31 1.995-1.812 1.308-2.668-1.025-4.174-2.626-1.694-6.767-1.68-4.046-.133-8.606.85-4.414 1.077-8.579 2.729-4.164 1.65-6.931 3.378-2.767 1.726-5.285 4.027-2.09 1.957-2.353 3.646-.118 1.784.79 1.337.72-.155 1.85-1.906 1.6-2.48 5.336-3.787 3.976-1.36 8.254-1.905 4.517-.597 8.752-.757 4.381-.065 6.936.138 4.673.122 5.633-.084" aria-label="To Maxine" style="font-size:347.192px;line-height:1;font-family:&quot;Magic Bubble&quot;;-inkscape-font-specification:&quot;Magic Bubble&quot;;text-align:center;text-anchor:middle;fill:#fff;stroke-width:2.74099;stroke-linecap:round;stroke-linejoin:round"/><text xml:space="preserve" x="1480.683" y="2920.065" style="font-style:normal;font-variant:normal;font-weight:400;font-stretch:normal;font-size:253.333px;line-height:1;font-family:&quot;Magic Bubble&quot;;-inkscape-font-specification:&quot;Magic Bubble&quot;;text-align:center;writing-mode:lr-tb;direction:ltr;text-anchor:middle;opacity:1;fill:#6fb9e5;fill-opacity:1;stroke-width:2;stroke-linecap:round;stroke-linejoin:round"><tspan x="1480.683" y="2920.065">A Spinny Slime</tspan><tspan x="1480.683" y="3173.398">To Help Brighten</tspan><tspan x="1480.683" y="3429.205">Your Day!</tspan></text><text xml:space="preserve" x="1480.683" y="2905.736" style="font-style:normal;font-variant:normal;font-weight:400;font-stretch:normal;font-size:253.333px;line-height:1;font-family:&quot;Magic Bubble&quot;;-inkscape-font-specification:&quot;Magic Bubble&quot;;text-align:center;writing-mode:lr-tb;direction:ltr;text-anchor:middle;opacity:1;fill:#fff;fill-opacity:1;stroke-width:2;stroke-linecap:round;stroke-linejoin:round"><tspan x="1480.683" y="2905.736">A Spinny Slime</tspan><tspan x="1480.683" y="3159.069">To Help Brighten</tspan><tspan x="1480.683" y="3414.876">Your Day!</tspan></text></svg>