<?xml version="1.0" encoding="UTF-8" standalone="no"?>
<svg
   xml:space="preserve"
   width="2466.667"
   height="3058.667"
   version="1.1"
   id="svg33"
   sodipodi:docname="lute-wings.svg"
   inkscape:version="1.4.2 (ebf0e940d0, 2025-05-08)"
   xmlns:inkscape="http://www.inkscape.org/namespaces/inkscape"
   xmlns:sodipodi="http://sodipodi.sourceforge.net/DTD/sodipodi-0.dtd"
   xmlns="http://www.w3.org/2000/svg"
   xmlns:svg="http://www.w3.org/2000/svg"><sodipodi:namedview
     id="namedview1"
     pagecolor="#ffffff"
     bordercolor="#000000"
     borderopacity="0.25"
     inkscape:showpageshadow="2"
     inkscape:pageopacity="0.0"
     inkscape:pagecheckerboard="0"
     inkscape:deskcolor="#d1d1d1"
     inkscape:zoom="0.15188615"
     inkscape:cx="1287.1483"
     inkscape:cy="1767.7714"
     inkscape:window-width="1536"
     inkscape:window-height="888"
     inkscape:window-x="0"
     inkscape:window-y="0"
     inkscape:window-maximized="1"
     inkscape:current-layer="svg33" /><defs
     id="defs33" /><path
     d="M -5.1969134,0 H 2461.4701 V 3058.667 H -5.1969134 Z"
     style="fill:#ffffff;fill-opacity:1;fill-rule:evenodd;stroke-width:1.04537;stroke-opacity:0.933955"
     id="path1" /><g
     id="g37"
     transform="translate(25.919775,207.4836)"><path
       style="fill:#000000;stroke-width:1.61171"
       d="m 2194.2034,2801.875 c 3.0044,-5.6136 11.8101,-41.8846 14.6052,-72.9826 13.5872,-151.1731 2.3282,-338.3347 -32.6554,-551.6482 -36.8443,-224.6586 -90.2357,-421.6007 -162.8794,-600.8047 -154.6507,-381.507 -303.2838,-616.4544 -468.8791,-741.1675 -28.6737,-21.5948 -68.5968,-47.329 -73.4243,-47.329 -1.4919,0 -3.7132,1.8697 -4.9361,4.1549 -6.2746,11.7243 -30.1058,84.6498 -51.6622,158.0915 -33.9893,115.7992 -53.0648,171.6632 -77.0481,225.6405 -32.1503,72.359 -53.2134,102.571 -81.0326,116.2299 -12.5819,6.1778 -13.3178,6.2704 -55.5471,6.9975 -40.6972,0.7006 -67.9988,3.4758 -71.5448,7.8548 -3.5476,4.381 21.4881,2.4781 25.3451,10.0384 7.4867,14.6753 64.181,167.5003 78.7889,212.383 1.731,5.3186 6.4107,19.105 10.3992,30.6363 3.9884,11.5315 7.2068,21.2019 7.1519,21.4897 -0.1145,0.5961 -0.079,0.6939 8.7127,24.8458 7.5824,20.8283 7.7514,22.1005 2.7468,20.6719 -2.1151,-0.6038 -1.7191,0 0.9049,1.3946 2.566,1.3575 5.2036,4.6115 5.861,7.2311 0.6574,2.6195 2.1976,27.8905 3.4225,56.1575 1.2247,28.2669 2.7234,54.4438 3.3305,58.171 2.1993,13.5064 6.4361,10.0897 19.9198,-16.0639 19.4891,-37.8022 28.8642,-62.1339 48.586,-126.097 3.2416,-10.5139 3.2922,-10.56 2.3548,-2.1491 -14.0482,126.0641 -14.3691,243.356 -0.9434,344.9077 9.3082,70.4092 28.4641,152.576 35.5705,152.576 1.695,0 3.6846,-1.6923 4.4218,-3.7606 0.7371,-2.0684 6.5985,-15.8486 13.0255,-30.6227 6.4272,-14.774 17.7865,-40.902 25.2434,-58.0621 31.7063,-72.9644 53.8733,-156.3026 68.5812,-257.8346 2.9963,-20.6838 5.7616,-40.5079 6.1451,-44.0538 0.7835,-7.2432 1.6548,-0.2433 8.1583,65.5433 36.7599,371.8524 163.2964,642.9799 364.4241,780.8449 22.215,15.2274 28.3314,18.2168 31.2668,15.2815 0.6254,-0.6256 -2.1383,-13.4387 -6.1417,-28.4739 -16.9465,-63.6467 -46.6346,-184.4151 -60.075,-244.3812 -12.3076,-54.9114 -28.7771,-132.8583 -28.1949,-133.4407 0.3458,-0.3458 6.2925,19.3831 13.2144,43.8419 49.7688,175.8558 121.8571,350.0294 185.826,448.9769 13.7391,21.2517 18.5393,26.2204 21.9013,22.6695 1.6475,-1.7401 15.6472,-80.7542 23.3337,-131.6941 21.6797,-143.6763 28.4118,-288.6415 19.4363,-418.5283 -1.1222,-16.2412 -2.5062,-37.2656 -3.0756,-46.7211 l -1.0351,-17.1916 5.2333,20.4151 c 16.2086,63.231 49.4355,233.1603 67.579,345.6138 20.0747,124.422 37.396,258.0587 44.2356,350.113 1.5504,20.8681 5.0067,28.3488 9.3492,20.2347 z m -186.0537,-158.3069 c -24.5584,-39.091 -81.1867,-151.5393 -77.7935,-154.4761 0.4679,-0.405 12.9388,6.8869 27.7127,16.204 14.7742,9.3172 39.6753,24.387 55.3358,33.4884 21.765,12.649 28.4718,17.5755 28.466,20.9101 0,3.5594 -5.3068,35.4716 -16.5455,99.6076 -1.5246,8.7003 -2.2323,8.0519 -17.1755,-15.734 z M 1859.217,2536.4116 c -76.1844,-55.6832 -144.0037,-136.0561 -197.8293,-234.4476 l -9.3608,-17.1115 17.0995,13.4991 c 29.3062,23.1354 134.2788,101.8306 164.4969,123.3188 l 28.8171,20.4919 13.7807,54.5003 c 7.5792,29.9752 14.2498,56.3085 14.8234,58.5189 1.0145,3.9083 0.872,3.9105 -5.1847,0.086 -3.4252,-2.1635 -15.4145,-10.6483 -26.6428,-18.855 z m 136.4588,-148.3257 c -37.2884,-19.2199 -92.6073,-51.4226 -121.1999,-70.5539 l -13.7522,-9.2015 -13.7181,-44.0535 c -12.4087,-39.8485 -43.6616,-150.6375 -43.6616,-154.777 0,-0.9295 11.8462,5.0777 26.3249,13.3495 59.8626,34.1999 177.8461,94.7273 221.6009,113.6847 l 16.9129,7.3276 -1.417,47.2772 c -1.5826,52.8034 -4.9873,115.6695 -6.6608,122.9872 l -1.0963,4.7943 -12.3257,-5.4482 c -6.7793,-2.9967 -29.7324,-14.4205 -51.0071,-25.3864 z m -202.5233,-125.2408 c -47.1498,-33.1285 -109.5499,-80.3248 -161.4452,-122.1089 -26.4394,-21.2881 -49.4994,-39.8471 -51.2446,-41.2426 -5.6918,-4.5513 -31.8725,-104.5837 -40.2902,-153.9428 l -1.3986,-8.2018 15.704,11.1282 c 50.5172,35.7975 158.0468,105.5074 213.6902,138.533 l 17.4735,10.3708 5.7078,29.1868 c 7.9395,40.5977 30.1247,144.7208 32.6607,153.2891 0.6123,2.0684 0.5717,3.7607 -0.091,3.7607 -0.662,0 -14.5073,-9.3476 -30.7676,-20.7725 z m 220.7894,-230.2091 c -46.8727,-18.7888 -105.0835,-43.9149 -156.8738,-67.7128 -75.8709,-34.863 -94.1391,-44.0779 -95.3428,-48.0923 -0.6446,-2.1497 -5.5506,-30.0183 -10.9022,-61.9303 -16.7074,-99.6272 -21.0712,-120.1775 -25.7098,-121.0709 -4.722,-0.9093 -4.4859,2.4209 2.946,41.5594 8.5676,45.1183 23.8485,137.0364 22.9336,137.9512 -2.65,2.6501 -214.7012,-111.0722 -231.016,-123.8935 -3.696,-2.9044 -4.6502,-8.6118 -7.739,-46.292 -6.1298,-74.7778 -6.7794,-94.8835 -4.0249,-124.5593 1.4302,-15.4092 3.2869,-40.4446 4.1259,-55.6342 1.4575,-26.3832 1.3435,-27.5825 -2.5499,-26.8343 -3.7503,0.7204 -4.4463,5.5868 -8.7205,60.9615 -6.4404,83.4411 -16.7416,168.6304 -20.3908,168.6304 -2.293,0 -78.4767,-47.5412 -110.9989,-69.2672 l -22.1399,-14.7901 1.1876,-9.0092 c 0.6532,-4.955 2.2133,-21.0971 3.4671,-35.871 2.7329,-32.2054 12.6282,-105.216 20.0928,-148.2527 5.1803,-29.8663 4.9304,-38.9326 -0.9119,-33.0902 -1.1979,1.1977 -6.488,23.4186 -11.7559,49.3798 -13.9707,68.8501 -37.5398,155.6015 -42.2747,155.6015 -2.3038,0 -37.7066,-25.1641 -39.5114,-28.0845 -0.7625,-1.2338 -9.9201,-27.0898 -20.3502,-57.4577 -18.9161,-55.0755 -45.9642,-132.7505 -52.4335,-150.5759 -1.8771,-5.1719 -3.4128,-10.0071 -3.413,-10.7449 -2e-4,-0.7378 14.747,-1.3416 32.7716,-1.3416 32.2486,0 32.9539,-0.1017 44.1809,-6.3203 14.7923,-8.1945 35.6475,-30.4462 53.0768,-56.6308 19.2177,-28.8713 42.7243,-79.2508 146.0977,-313.1163 24.5544,-55.5507 45.3506,-101.7886 46.2137,-102.7511 3.1174,-3.4767 82.3302,98.7241 130.5326,168.4134 135.8208,196.3656 251.8858,430.7083 330.4167,667.1321 31.5851,95.0894 66.7843,221.9869 69.9693,252.2477 2.6468,25.1457 2.5579,28.8621 -0.6602,27.5858 -1.4774,-0.5858 -19.6093,-7.8487 -40.293,-16.1397 z m -630.9498,-105.8913 -34.6142,-31.8684 -1.3153,-15.6899 c -0.7236,-8.6295 -1.9734,-32.0345 -2.7777,-52.0112 -1.2415,-30.8376 -1.0081,-36.0436 1.5462,-34.4842 1.6547,1.0101 14.1294,10.6431 27.7215,21.4068 13.5921,10.7637 38.4932,30.014 55.3356,42.7785 16.8424,12.7645 30.6226,23.3948 30.6226,23.6227 0,3.6326 -20.0031,68.2741 -26.8823,86.872 -1.3197,3.5675 -4.1582,1.2443 -49.6364,-40.6263 z M 285.03793,2608.874 c 135.18852,-162.9832 205.79711,-366.0338 231.17363,-664.7917 1.35541,-15.9561 2.66543,-29.2235 2.91123,-29.4829 0.48621,-0.5135 3.84283,56.8937 8.76015,149.8246 6.11985,115.6556 13.45253,341.9748 14.29059,441.0703 0.43989,52.0069 1.48457,54.1113 15.78666,31.7987 66.58898,-103.8857 118.66079,-242.1914 141.72955,-376.4414 9.67973,-56.3318 12.78963,-102.5676 12.70129,-188.8328 -0.0824,-79.8173 -2.13617,-119.7079 -11.8154,-229.4014 -4.43864,-50.3049 -3.1765,-73.9771 -6.98176,-73.9771 -3.84303,0 -9.18503,-20.3456 -4.51536,38.6618 l 1.49933,18.946 -39.23079,49.2835 c -58.58017,73.591 -120.69141,147.4396 -122.39654,145.5263 -0.82758,-0.9287 -2.68894,-21.0293 -4.13626,-44.6678 -3.96536,-64.7663 -4.75152,-70.7293 -9.44319,-71.6267 -3.76456,-0.72 -3.89361,0.788 -2.48243,28.9868 1.03664,20.7131 0.42697,42.7606 -2.00752,72.6037 l -3.49636,42.8573 -15.44763,17.3135 c -58.72847,65.8212 -170.61312,183.1855 -172.67092,181.1275 -0.94187,-0.9417 8.92279,-67.5469 18.69199,-126.2075 10.12278,-60.7833 26.1811,-123.8959 82.83742,-325.5671 7.63689,-27.1842 16.84558,-60.0632 20.46378,-73.0645 43.90485,-157.7668 97.64515,-321.6618 146.21124,-445.9088 32.24579,-82.4948 73.16054,-172.3081 76.7825,-168.5481 3.01046,3.1253 23.91516,57.4595 52.85939,137.3883 26.52767,73.2562 33.46628,92.059 42.82178,116.0438 18.6068,47.7026 25.6989,65.0566 35.1291,85.9582 8.9385,19.8117 19.3393,30.1045 23.6985,30.6405 4.645,0.571 -1.0985,-8.8173 20.8103,-27.9364 33.5497,-29.2777 10.5742,-42.9384 -2.4874,-62.1038 -23.2847,-34.1657 -44.9096,-94.0477 -99.61168,-275.8376 -45.33143,-150.6487 -57.89022,-188.034 -63.16591,-188.034 -5.12119,0 -34.42736,50.7904 -61.74657,107.0128 -88.90444,182.964 -202.54746,501.7194 -268.30702,752.5704 -2.63367,10.0464 -6.63904,25.0353 -8.90071,33.3089 -20.27721,74.1734 -67.93298,328.282 -93.09719,496.4093 -21.70927,145.0432 -44.04398,341.6066 -41.65682,366.6133 0.83134,8.7087 6.77135,10.1726 7.8433,1.9328 3.18634,-24.4923 38.18123,-196.3123 57.33632,-281.5133 22.5285,-100.2059 53.1916,-227.9504 54.42081,-226.7212 0.42198,0.422 -1.70065,17.0354 -4.71682,36.9189 -22.02031,145.1644 -39.90294,325.0353 -46.2172,464.8687 -2.37759,52.6574 -1.7037,54.0675 15.77262,32.9982 z m -8.36402,-10.9713 c 0.45629,-4.4323 1.429,-21.3284 2.16131,-37.5471 l 1.332,-29.4885 21.46164,-13.264 c 11.80389,-7.2953 32.17017,-21.4748 45.25863,-31.5102 l 23.7969,-18.2461 -8.16708,14.7961 c -16.76223,30.367 -81.47915,123.3183 -85.85978,123.3183 -0.44733,0 -0.4399,-3.6263 0.0163,-8.0585 z m 270.80564,-245.5184 -1.49302,-67.6922 25.3695,-32.2344 c 32.75592,-41.6197 71.22599,-95.5696 102.74019,-144.0821 13.78382,-21.2186 25.59433,-39.0628 26.24542,-39.6538 2.41352,-2.1904 -1.82177,45.0984 -7.02245,78.4095 -19.2302,123.1703 -67.55935,260.569 -126.11662,358.5455 l -15.62625,26.1454 -1.30178,-55.8729 c -0.71602,-30.73 -1.97372,-86.3343 -2.79499,-123.565 z m -250.57004,-28.3572 c 2.504,-22.8161 5.22408,-42.0451 6.04474,-42.731 29.16703,-24.3775 105.8735,-98.7651 153.47349,-148.8336 l 32.35876,-34.0369 -1.51032,11.4728 c -0.83063,6.3101 -5.73594,32.5296 -10.90038,58.2653 -7.92158,39.4756 -10.28004,47.8764 -15.08255,53.7241 -11.82445,14.397 -73.92816,75.8926 -95.40425,94.47 -19.9731,17.2771 -52.09604,42.0077 -66.81503,51.439 -4.28364,2.7448 -5.50877,2.862 -6.04485,0.5783 -0.36987,-1.5752 1.37628,-21.5318 3.88039,-44.348 z m 240.3752,-238.8864 -2.09516,-39.7934 22.34286,-26.4567 c 31.55002,-37.3594 78.81261,-97.1281 113.06642,-142.985 l 29.25559,-39.1659 1.79256,33.2966 1.79266,33.2965 -15.64438,23.061 c -51.66093,76.1511 -144.77034,202.185 -147.41409,199.5413 -0.55073,-0.5506 -1.944,-18.9083 -3.09646,-40.7944 z M 791.9459,1887.672 c 0.6867,-5.023 1.8078,-20.7372 2.4911,-34.9203 0.6835,-14.1831 1.697,-31.3368 2.2524,-38.1193 0.6419,-7.8358 0.025,-13.9077 -1.6897,-16.6543 -2.1888,-3.5052 -2.1431,-5.2138 0.2419,-9.0329 1.722,-2.7572 3.2053,-12.3355 3.5777,-23.1013 0.3499,-10.1151 0.9511,-24.5716 1.3362,-32.1252 0.5375,-10.5475 -10.3692,-36.9362 -10.3692,-36.9362 0,0 -60.57908,-19.2046 -91.37934,-26.9343 l -4.81309,-1.2079 13.12707,38.3504 c 27.62932,80.7184 38.36575,114.9201 61.25296,160.2664 10.9283,21.6523 15.957,29.5481 18.8183,29.5481 2.9654,0 4.2053,-2.1972 5.1537,-9.1332 z m -44.53251,-86.4777 -7.80727,-20.3974 21.69988,-31.1775 c 11.9348,-17.1478 22.0105,-31.1777 22.3902,-31.1777 0.3798,0 2.2202,0.587 4.0897,1.3043 2.8335,1.0875 3.3993,5.518 3.3993,26.6193 v 25.3149 l -16.3687,24.9558 c -9.0028,13.7257 -17.0946,24.9557 -17.9823,24.9557 -0.8874,0 -5.1269,-9.1788 -9.42081,-20.3974 z m 445.62671,48.3339 c 5.3187,-3.5358 11.393,-6.4327 13.4985,-6.4376 2.1054,0 4.3246,-1.303 4.9312,-2.8841 1.2484,-3.2532 -18.5188,-65.0093 -39.3189,-122.8392 l -13.9129,-38.6812 1.2399,-18.2663 c 0.6821,-10.0463 2.5463,-24.3093 4.143,-31.6957 2.7441,-12.695 2.6481,-13.8777 -1.7528,-21.6259 -6.407,-11.2796 -20.2545,-31.7184 -39.3566,-58.0896 -17.4699,-24.118 -17.496,-24.5332 -1.7023,-27.1082 l 8.8367,-1.4409 -5.8158,-4.696 c -31.5929,-25.5105 -53.738,-42.9272 -53.738,-45.0192 0,-1.3557 1.4505,-3.6686 3.2235,-5.14 4.1624,-3.4544 4.0801,-5.6582 -0.2731,-7.3288 -4.4704,-1.7154 -7.783,2.4382 -16.9849,21.2971 -11.1073,22.7634 -3.5197,47.1261 -3.6211,75.5484 -0.1063,29.9853 2.048,55.2749 5.0143,58.8492 1.2061,1.4532 3.6739,8.3284 5.484,15.2782 1.8103,6.9497 4.0748,13.18 5.0323,13.8451 0.9575,0.665 5.171,8.4618 9.3632,17.3263 4.1924,8.8645 16.2586,31.5897 26.8141,50.5006 24.6715,44.2008 42.5281,80.9072 56.7134,116.581 10.4786,26.3518 11.7393,28.4728 16.9173,28.4645 3.0771,0 9.9464,-2.9021 15.265,-6.4377 z M 1076.0324,1624.377 c -9.8311,-10.9826 -13.5147,-24.1071 -15.5171,-55.2878 l -1.3801,-21.4896 9.4679,8.6174 c 5.2073,4.7397 26.6812,23.9673 47.7197,42.728 34.5066,30.7703 38.137,34.6609 37.0777,39.734 -0.6459,3.0931 -2.0934,12.3018 -3.2167,20.464 -1.8897,13.7303 -1.5688,16.2076 4.2897,33.1155 3.4828,10.0515 6.3323,18.7507 6.3323,19.3318 0,1.162 -71.6195,-72.5188 -84.7734,-87.2133 z m -181.0266,69.0451 c 2.9013,-5.7409 7.8601,-18.658 11.0197,-28.7043 3.1595,-10.0463 7.0197,-20.2237 8.5779,-22.6161 1.5583,-2.3925 3.5284,-9.4034 4.378,-15.5799 0.8494,-6.1765 2.2882,-11.2301 3.1974,-11.2301 0.909,0 2.2946,-8.945 3.079,-19.8778 2.386,-33.2549 12.2658,-61.3919 -21.3037,-112.4427 -10.8807,-16.5471 -21.4982,-33.8856 -23.5942,-38.5302 -6.3383,-14.0444 -26.447,-1.3908 -48.9237,25.7284 -10.9098,13.1633 -28.0558,34.6625 -38.1022,47.7761 -10.0463,13.1136 -18.9914,23.4011 -19.8778,22.861 -0.8864,-0.5401 -1.6117,0.3866 -1.6117,2.0593 0,4.8788 -15.0382,23.2564 -17.6895,21.6178 -1.5404,-0.9521 -1.8967,-0.2084 -1.0087,2.1055 0.8732,2.2758 -0.8482,6.1179 -4.7319,10.56 -9.63908,11.0259 -30.23685,42.9431 -29.00245,44.9405 0.61526,0.9953 2.75204,0.9519 4.74867,-0.097 2.7078,-1.4219 14.278,3.7513 45.53498,20.3587 23.0474,12.2456 57.3769,29.2421 76.288,37.7699 18.9107,8.5277 36.4902,17.3575 39.0653,19.6218 l 4.682,4.117 z m -70.149,-32.8816 c -0.9823,-0.9673 16.3855,-29.0211 38.5955,-62.3418 44.6552,-66.9943 42.5829,-65.2235 49.1566,-42.0032 5.9565,21.0395 6.7072,19.0645 -26.8698,70.6801 l -31.1598,47.9001 -13.9683,-6.2382 c -7.6824,-3.431 -14.7718,-7.0297 -15.7542,-7.997 z m -26.9755,-29.7444 c 0.2703,-17.9793 0.4885,-17.7354 4.7702,5.3348 2.7475,14.8041 2.7014,15.3761 -1.0746,13.3553 -3.341,-1.788 -3.9067,-4.6496 -3.6956,-18.6901 z m -51.08051,-10.2371 c -7.50077,-4.1947 -13.63747,-7.8981 -13.63747,-8.23 0,-0.3318 11.01057,-15.291 24.46798,-33.2428 15.824,-21.1087 24.89,-31.5398 25.6625,-29.5266 0.6571,1.7121 1.7937,13.5758 2.5261,26.364 l 1.3313,23.2509 -10.8658,14.5055 c -5.9762,7.978 -11.9867,14.5054 -13.3564,14.5054 -1.37,0 -8.6276,-3.4318 -16.12821,-7.6264 z m 61.93161,-109.0313 c 8.6111,-10.8905 22.3284,-27.7987 30.4829,-37.5738 l 14.8263,-17.7728 8.314,14.2271 c 4.8615,8.3196 7.6501,15.3526 6.7157,16.9372 -0.8791,1.4906 -16.5872,23.095 -34.9071,48.0099 l -33.3088,45.2997 -3.8897,-24.6631 -3.8899,-24.6631 z m 198.2608,-964.60819 c 0.6792,-5.13155 2.6869,-26.25312 4.4615,-46.93679 1.7746,-20.68366 4.3112,-47.39354 5.6365,-59.35539 l 2.4101,-21.74852 70.1151,-1.17704 c 119.5912,-2.00756 181.7742,-12.30563 186.435,-30.87537 3.4594,-13.78325 -9.9697,-22.68655 -47.5534,-31.52778 -44.5293,-10.47521 -94.7905,-16.8502 -165.4699,-20.98801 -23.6384,-1.38387 -43.2914,-2.78091 -43.6732,-3.10452 -0.3816,-0.32363 -2.0428,-24.61302 -3.6914,-53.97643 -4.6958,-83.63749 -5.7573,-97.44165 -7.4921,-97.44165 -0.8916,0 -2.2384,19.09886 -2.9929,42.4419 -1.4574,45.09062 -5.0096,100.1266 -6.8657,106.37342 -1.0203,3.43374 -5.2265,3.76068 -48.3843,3.76068 -51.3354,0 -96.3959,2.58123 -135.0322,7.73514 -47.3208,6.31245 -63.7535,12.26759 -69.05041,25.02369 -3.29827,7.94255 1.8275,15.73086 13.82331,21.00473 26.3554,11.58695 94.0258,22.97229 165.8257,27.89996 20.0928,1.37882 44.2686,3.15108 53.7239,3.93824 l 17.1918,1.43104 1.5346,11.81921 c 0.8442,6.50071 2.4122,36.75733 3.4849,67.23718 1.0724,30.47985 2.485,55.95306 3.1391,56.6071 0.654,0.65403 1.7448,-3.00924 2.424,-8.14079 z M 915.8246,402.08696 c -55.1532,-5.65149 -122.5439,-19.3619 -131.6144,-26.77644 -9.9085,-8.09986 1.9089,-11.30717 68.2202,-18.51494 29.1935,-3.17332 53.1521,-3.96096 119.2671,-3.92098 90.7658,0.0548 125.5721,2.46447 201.6075,13.95667 47.5436,7.186 56.7909,9.33651 60.7711,14.13219 6.5539,7.89693 -5.3085,10.54369 -81.1699,18.11039 -88.589,8.83625 -170.1381,9.87274 -237.0816,3.01311 z m 100.6265,-14.52578 c 2.5699,-2.73556 4.6724,-7.01694 4.6724,-9.51429 0,-5.24759 -9.4094,-13.44849 -15.4302,-13.44849 -4.9755,0 -14.6551,9.22595 -14.6551,13.96827 0,5.15798 9.8677,13.96812 15.6448,13.96812 2.8026,0 7.1982,-2.23819 9.7681,-4.97361 z"
       id="path35"
       sodipodi:nodetypes="sssssssssssssssccscsscsscssssssssssssscssssscsssssssscsssscsscssssssscsssscsscsscssscsscsssccssssssssssssssscssssssssssscssssssssscsssssssscsssssscssscsssssscsssscsssssssssssscssssssscsscsscssssscssssscssssscsscssssscsscccsssssssssscscssssscsssscsssscsscssssscssssscsssssscssscssssssssssssssssssssscscssscssssscssssssssssscssssscssscccsssccssssssssssssssscssssssssssssssssss" /><g
       id="g34"
       transform="matrix(0.76433513,0,0,0.76433513,33.66928,375.97098)"><path
         d="m 1304.499,552.481 60.145,-42.433 -9.592,310.44 -70.61,85.72 z"
         style="fill:#e6e6e7;fill-rule:evenodd;stroke-width:0.707572;stroke-opacity:0.933955"
         transform="translate(136.641,149.324)"
         id="path2" /><path
         d="m 1295.914,580.454 c -0.671,-0.405 -10,-5.414 -9.861,-5.964 0.308,-1.228 6.04,-6.653 8.153,-7.765 1.228,-0.646 1.923,0.76 2.433,2.746 0.019,0.075 1.177,12.13 -0.724,10.983 z"
         style="fill:#f6efe8;fill-opacity:1;fill-rule:evenodd;stroke-width:0.114869;stroke-opacity:0.933955"
         transform="translate(136.641,149.324)"
         id="path3" /><path
         d="m 1086.176,606.963 c -5.754,-3.569 -5.874,-8.895 -1.103,-12.018 11.245,-7.363 60.935,-29.546 62.59,-27.892 2.423,2.423 10.484,45.207 25.834,37.697 5.092,-2.491 10.36,-8.145 13.369,-14.348 4.497,-9.27 8.087,-22.359 8.992,-32.78 l 0.232,-5.934 c 27.015,-10.41 86.947,-32.462 124.376,-31.723 2.55,0.05 6.373,3.901 3.387,9.845 -13.763,27.395 -96.783,83.13 -139.047,91.86 -24.7,5.101 -86.82,-7.38 -98.63,-14.707"
         style="fill:#fde9e9;fill-opacity:1;fill-rule:evenodd;stroke-width:0.649795;stroke-opacity:0.933955"
         transform="translate(136.641,149.324)"
         id="path4" /><path
         d="m 1165.905,603.455 c -6.72,-1.68 -12.572,-13.848 -14.675,-30.786 -0.305,-2.46 0.13,-4.673 0.198,-4.727 0.24,-0.192 9.606,-5.793 9.857,-5.793 0.14,0 3.265,2.162 3.58,4.314 1.187,8.133 2.43,12.902 6.269,13.961 2.211,0.61 2.352,0.2 3.892,-2.224 1.746,-2.748 3.705,-12.275 4.169,-17.537 0.133,-1.513 0.981,-2.78 1.083,-3.265 0.682,-3.258 6.133,-2.992 8.321,-3.562 2.627,-0.684 2.52,1.56 2.485,5.453 -0.063,6.868 -3.056,21.464 -4.85,28.783 -1.546,6.303 -9.802,11.543 -13.947,13.657 -1.437,0.733 -4.984,2.075 -6.382,1.726"
         style="fill:#f6d564;fill-opacity:1;fill-rule:evenodd;stroke-width:0.324897;stroke-opacity:0.933955"
         transform="translate(136.641,149.324)"
         id="path5" /><path
         d="m 1021.704,407.011 c -16.397,-11.41 -28.32,-18.267 -40.765,-23.751 -12.362,-8.666 -94.277,-16.953 -47.693,-15.332 0,-0.548 34.398,-21.263 41.868,-12.047 l 3.634,4.943 c 16.087,5.688 33.271,25.436 45.632,39.442 8.423,8.825 4.9,12.018 -2.676,6.745"
         style="fill:#e6e6e7;fill-opacity:1;fill-rule:evenodd;stroke-width:0.505647;stroke-opacity:0.933955"
         transform="translate(136.641,149.324)"
         id="path6" /><path
         d="m 1074.463,840.694 c -32.662,-22.138 -48.395,-34.327 -70.62,-54.709 C 932.111,720.198 893.013,644.321 889.306,560.69 l -0.771,-17.403 3.109,-3.662 c 1.228,-1.447 6.74,-5.105 8.973,-4.827 l 5.415,0.673 13.158,16.853 c 6.923,8.867 14.097,18.51 14.097,18.988 0,0.478 -2.046,3.702 -3.599,4.72 -4.742,3.107 -12.628,7.99 -12.628,9.531 0,2.157 0.778,-0.95 11.342,-2.75 l 9.316,-1.589 12.608,8.673 c 10.342,7.114 13.811,10.291 13.376,12.025 -1.114,4.438 -3.24,15.754 -2.632,17.338 0.926,2.413 0.247,0.833 2.89,-3.59 1.272,-2.128 2.11,-4.873 3.356,-5.887 l 2.881,-2.344 11.975,2.848 c 17.514,4.166 27.135,1.192 41.713,-9.247 3.3,-2.363 5.315,-3.017 6.094,-3.017 1.71,0 -4.244,-0.538 -0.453,-3.088 1.456,-0.98 -1.414,-6.535 -1.935,-11.1 -0.853,-7.47 2.43,-8.725 4.756,-15.655 1.422,-4.235 2.902,-10.396 3.289,-13.692 0.823,-7.002 -0.341,-7.697 -5.158,-3.082 l -3.037,2.91 -2.02,-2.645 c -1.111,-1.455 -11.144,-20.643 -22.295,-42.642 -31.02,-61.197 -40.33,-69.165 -55.293,-83.378 -8.759,-8.32 -10.283,-6.177 -18.456,-5.5 -6.393,0.53 -6.976,9.001 -21.381,10.873 l -10.728,9.984 -3.811,-33.091 c -1.525,-13.242 2.812,-25.096 3.311,-25.884 2.626,-4.144 31.644,-8.647 48.428,-5.72 23.966,4.18 54.293,18.06 78.372,37.173 4.663,3.702 13.554,13.549 20.841,20.623 21.68,21.046 19.23,20.923 27.516,10.534 9.773,-12.253 40.889,-41.04 56.588,-52.633 35.053,-25.886 65.953,-41.826 95.51,-48.074 8.203,-1.735 14.85,-2.831 26.166,-2.782 17.502,0.075 27.035,2.856 28.928,6.814 1.11,2.32 7.44,42.42 7.44,47.305 0,1.462 -3.163,4.471 -8.444,5.075 -18.4,2.104 -35.979,13.136 -105.136,74.327 -36.296,32.115 -53.503,46.657 -68.307,58.547 -13.386,10.751 -29.802,20.788 -34.056,22.271 -3.451,1.203 -7.478,-0.098 -15.097,-5.618 -4.406,-3.191 -5.218,-4.623 -5.218,-2.606 0,2.37 5.866,11.838 10.943,16.03 l 4.82,3.98 3.644,-1.33 c 3.271,-1.193 7.815,-4.818 8.143,-4.49 0.329,0.33 1.14,9.82 0.38,17.545 -1.237,12.562 -0.322,14.561 -2.624,16.71 -3.438,3.209 -4.242,3.35 0.69,5.042 2.241,0.769 4.995,1.56 6.252,2.71 8.63,7.899 53.75,23.962 82.67,22.205 l 20.956,-1.274 4.767,3.249 c 5.083,3.463 4.23,8.042 5.602,7.195 0.851,-0.527 0.53,-0.128 -0.52,-4.273 -2.133,-8.427 1.753,-11.006 7.621,-13.208 13.316,-8.04 27.922,-12.309 41.835,-19.256 28.355,10.467 5.684,8.437 15.618,13.583 2.119,1.097 0,2.036 0,0 0,-1.26 -2.458,-3.215 -4.827,-7.507 -2.37,-4.293 -2.301,-9.396 -1.994,-9.893 0.307,-0.497 3.52,-8.076 9.481,-10.713 l 12.211,-5.401 11.016,3.01 c 7.484,2.047 11.703,2.917 12.318,4.664 1.096,3.11 10.57,77.194 5.29,94.277 l -9.548,30.896 -9.486,10.95 c -25.266,29.161 -125.507,103.548 -195.906,140.238 -0.668,0 -7.177,-16.084 -15.188,-21.514 m -13.944,-99.741 c 34.725,-8.76 56.962,-13.584 88.408,-19.178 34.093,-6.065 31.681,-5.015 47.357,-20.623 8.067,-8.032 13.732,-14.546 14.17,-16.295 1.713,-6.823 -0.867,-5.182 -19.574,12.449 -7.822,7.372 -15.215,13.591 -16.429,13.82 -1.214,0.229 -11.268,1.7 -22.344,3.264 -38.47,5.437 -75.362,13.485 -106.023,23.13 -16.728,5.262 -19.96,5.588 -27.567,2.782 -3.474,-1.281 -7.675,-2.574 -9.335,-2.873 -2.52,-0.453 -2.955,-0.215 -2.637,1.44 0.504,2.613 14.76,9.948 19.335,9.948 1.905,0 17.493,-3.54 34.638,-7.864 m -26.59,-33.974 c 0,-0.275 -5.791,-6.833 -12.87,-14.573 -7.077,-7.74 -14.206,-16.153 -15.842,-18.696 l -2.973,-4.624 4.978,-3.973 c 6.912,-5.514 17.29,-16.586 20.891,-22.286 5.846,-9.254 9.767,-24.18 6.83,-25.996 -1.905,-1.177 -3.746,1.326 -6.834,9.289 -5.142,13.26 -11.226,20.78 -29.036,35.891 l -5.71,4.844 4.445,8.542 c 7.63,14.665 25.906,32.041 33.736,32.074 1.312,0.005 2.385,-0.216 2.385,-0.492"
         style="fill:#f8f1ea;fill-opacity:1;fill-rule:evenodd;stroke-width:1.06157;stroke-opacity:0.933955"
         transform="translate(136.641,149.324)"
         id="path7" /><path
         d="m 1029.227,574.208 c 0,0 -75.978,-153.839 -103.392,-161.19 0,0 -12.716,13.902 -31.496,30.618 0,0 -13.85,45.173 -1.232,52.466 47.08,27.216 137.936,96.756 137.936,96.756 z"
         style="fill:#ada0a8;fill-rule:evenodd;stroke-width:0.693121;stroke-opacity:0.933955"
         transform="translate(136.641,149.324)"
         id="path8" /><path
         d="m 792.57,535.476 c 1.832,-36.07 15.635,-90.697 27.639,-122.24 4.213,-11.07 15.855,-33.943 19.744,-40.957 0,0 17.465,-30.623 32.273,-38.374 40.394,-21.144 109.777,26.626 109.777,26.626 -29.688,3.866 -87.801,14.872 -109.486,37.18 -50.102,54.478 -44.194,134.147 -35.087,203.093 16.66,126.116 47.17,235.836 101.736,345.868 4.302,8.403 8.32,28.791 8.156,28.954 C 859.772,853.996 797.539,684.725 792.57,535.476"
         style="fill:#e6e6e7;fill-opacity:1;fill-rule:evenodd;stroke-width:0.715093;stroke-opacity:0.933955"
         transform="translate(136.641,149.324)"
         id="path9" /><path
         d="m 997.427,611.15 c 0,0 -17.975,-3.228 -21.186,-4.845 -16.016,-8.061 -35.136,-27.52 -55.374,-55.961 -13.583,-19.089 -20.817,-37.15 -19.857,-45.933 1.71,-15.643 47.082,25.875 56.602,33.669 10.747,9.706 -2.488,22.721 19.217,46.47 5.587,6.113 6.32,5.934 10.702,1.552 2.833,-2.833 6.798,-13.654 11.407,-17.967 l -4.364,1.542 11.259,6.049 c 9.65,5.186 21.993,19.86 21.856,20.593 -1.516,8.137 -30.262,14.83 -30.262,14.83"
         style="fill:#fde9e9;fill-opacity:1;fill-rule:evenodd;stroke-width:0.649795;stroke-opacity:0.933955"
         transform="translate(136.641,149.324)"
         id="path10" /><path
         d="m 975.832,583.328 c -1.63,-2.283 -10.98,-29.884 -10.67,-35.934 0.096,-1.87 10.383,1.265 12.818,6.038 0.348,0.681 0.47,10.083 5.362,16.528 5.637,7.426 8.393,-7.549 11.232,-0.283 0.476,1.217 -2.381,10.461 -4.329,14.398 -1.223,3.674 -2.507,5.024 -6.399,4.8 -0.685,0.15 -5.379,-1.857 -8.014,-5.547"
         style="fill:#f6d564;fill-opacity:1;fill-rule:evenodd;stroke-width:0.162449;stroke-opacity:0.933955"
         transform="translate(136.641,149.324)"
         id="path11" /><path
         d="m 818.558,1279.573 c 15.776,-23.036 19.113,-50.036 49.4,-71.67 l 75.802,-153.695 c 14.309,-29.012 31.493,133.673 31.26,136.942 -13.27,46.7 -90.427,132.255 -120.077,170.414 -5.757,7.38 -35.55,-57.35 -36.385,-81.991 m 577.73,54.775 c -5.171,-1.586 -41.237,-7.816 -80.667,-10.146 l -32.522,-1.923 c -12.124,-22.807 -85.022,-151.245 -85.022,-156.524 53.178,64.883 86.814,-32.052 155.765,-30.524 18.32,36.701 49.549,154.6 53.15,196.113 0,1.624 -0.142,6.243 -10.704,3.004"
         style="fill:#f9f0eb;fill-opacity:1;fill-rule:evenodd;stroke-width:0.918948;stroke-opacity:0.933955"
         transform="translate(136.641,149.324)"
         id="path12" /><path
         d="m 1022.834,1168.048 c -8.692,-3.293 -10.528,-12.186 -18.233,-15.82 -11.372,-5.362 -23,-0.22 -33.515,2.507 -2.985,0.774 -0.452,-8.067 -0.579,-8.194 -0.127,-0.127 -5.177,-2.72 -5.52,-8.815 l -0.915,-16.258 c 3.597,-8.625 17.505,-40.995 12.266,-59.189 l -2.03,-7.05 2.983,12.103 c 0.364,11.092 -4.591,27.431 -10.831,37.561 -0.337,0.367 -7.17,3.143 -7.17,2.266 0,-3.07 -11.136,-32.412 -8.93,-39.743 1.093,-6.644 2.689,-14.406 6.314,-19.847 8.715,-13.078 14.893,-22.72 25.818,-30.99 9.988,-3.546 22.77,-7.087 33.576,-6.503 99.386,5.373 113.41,-103.484 113.12,-149.146 l -0.148,-23.473 c 24.716,-17.998 55.412,-41.17 85.006,-47.96 0.223,0.796 -5.053,18.645 -5.708,30.563 -1.632,29.688 -3.692,82.582 -1.594,115.68 2.647,41.77 7.042,52.59 35.568,78.509 6.804,6.182 23.68,12.238 31.52,18.707 31.901,26.325 54.104,68.332 80.01,102.275 l -57.338,33.579 -10.11,2.85 c -15.046,4.24 -21.786,14.202 -28.477,17.357 -8.383,2.65 -32.944,4.331 -32.944,4.331 -4.197,-5.435 -56.741,-18.5 -83.423,-18.503 -31.554,-0.55 -61.89,-0.445 -80.806,32.453 -8.408,-45.576 3.944,-49.557 3.944,-55.162 0,-13.987 -8.519,5.455 -8.833,8.434 -2.727,25.811 -1.688,34.986 -6.484,39.79 -0.37,0.37 -15.989,-28.316 -26.537,-32.312"
         style="fill:#f9f0eb;fill-opacity:1;fill-rule:evenodd;stroke-width:0.649795;stroke-opacity:0.933955"
         transform="translate(136.641,149.324)"
         id="path13" /><path
         d="m 1330.87,508.442 c -0.294,-1.344 -1.6,-17.805 -3.109,-26.234 -1.706,-9.534 -3.85,-15.394 -6.183,-21.356 -2.063,-5.27 -6.744,-12.011 -7.196,-15.667 -1.41,-11.398 0.1,-24.616 -14.295,-40.003 l -6.312,-6.747 -2.727,-21.51 c -4.99,-39.35 -11.165,-63.597 -21.763,-85.454 -9.638,-19.873 -17.742,-29.37 -30.796,-36.086 -7.608,-3.915 -18.591,4.1 -27.14,6.94 -55.054,18.285 -135.104,171.571 -137.43,164.592 -0.634,-1.899 7.04,-58.819 12.861,-75.655 28.303,-81.854 82.616,-162.703 118.441,-185.858 15.372,-9.935 35.092,-2.714 53.784,12.16 43.207,34.384 80.002,131.935 93.75,258.209 3.337,30.654 6.785,63.227 6.129,66.551 -0.477,2.418 -5.08,3.338 -9.39,5.234 -9.228,4.059 -18.02,3.646 -18.624,0.884"
         style="fill:#e9e9eb;fill-opacity:1;fill-rule:evenodd;stroke-width:1.06157;stroke-opacity:0.933955"
         transform="translate(136.641,149.324)"
         id="path14" /><path
         d="m 1081.755,417.398 c 0.53,-1.357 18.332,-31.61 29.76,-49.523 22.286,-34.94 43.977,-61.245 62.911,-80.397 12.799,-12.946 20.004,-26.357 30.665,-25.599 l 6.257,0.445 10.83,-2.517 c 8.163,-1.898 10.939,1.068 13.557,2.12 22.155,8.912 42.476,74.773 42.476,74.773 l -3.833,-0.824 -5.226,-0.474 c -9.288,-0.844 -33.556,-0.536 -40.706,0.515 -20.092,2.954 -44.797,12.482 -69.032,26.623 -24.4,13.548 -42.117,35.603 -65.238,52.255 -5.323,3.833 -16.006,11.774 -15.606,10.753 z"
         style="fill:#fbfaf5;fill-opacity:1;fill-rule:evenodd;stroke-width:0.530783;stroke-opacity:0.933955"
         transform="translate(136.641,149.324)"
         id="path15" /><path
         d="m 1087.403,414.154 c 1.007,-2.641 9.773,-23.305 19.06,-38.236 36.792,-59.154 73.563,-100.988 98.636,-114.038 5.663,-2.947 6.867,-3.246 14.886,-3.252 6.922,-0.005 12.033,1.588 15.75,3.3 20.242,14.605 39.394,50.794 41.634,76.659 -4.735,4.736 -20.607,-1.74 -33.83,-1.216 -21.07,0.836 -35.908,5.515 -61.129,16.946 -24.06,10.905 -61.538,36.76 -81.984,55.758 -5.098,4.737 -16.285,9.354 -16.642,9.354 -0.357,0 3.23,-4.254 3.62,-5.275"
         style="fill:#fcfaf5;fill-opacity:1;fill-rule:evenodd;stroke-width:1.06157;stroke-opacity:0.933955"
         transform="translate(136.641,149.324)"
         id="path16" /><path
         d="m 1007.334,381.69 c -7.074,-6.892 -71.416,-67.29 -124.8,-51.622 -3.403,0.999 -10.627,1.481 -10.972,1.49 -2.14,0.053 15.625,-29.362 25.729,-41.85 72.664,-96.606 181.572,-124.264 291.727,-145.016 28.854,-5.573 53.665,-8.959 54.621,-9.188 1.4,-0.336 3.866,1.528 3.349,2.452 -1.086,1.94 -21.762,20.415 -25.275,21.306 -12.222,3.1 -18.735,6.109 -29.82,16.403 -17.426,16.184 -29.877,26.36 -51.11,58.338 -7.601,11.447 -17.926,26.715 -22.945,33.929 -24.921,35.817 -52.24,84.487 -53.452,93.516 -0.375,2.798 1.62,-0.7 2.98,-0.7 1.994,0 -0.41,-0.965 12.772,-22.554 13.732,-22.49 27.13,-40.388 28.138,-38.427 0.813,1.583 0.28,6.486 -12.885,30.617 -7.162,13.128 -18.215,49.345 -24.123,73.013 -4.373,13.645 -6.625,27.23 -7.574,41.402 -14.65,-22.628 -36.796,-44.997 -56.36,-63.108"
         style="fill:#fcfaf6;fill-opacity:1;fill-rule:evenodd;stroke-width:0.75064;stroke-opacity:0.933955"
         transform="translate(136.641,149.324)"
         id="path17" /><path
         d="m 1077.636,562.33 c 0,0 177.626,-164.937 215.587,-162.995 0,0 28.54,41.873 35.669,66.575 0,0 11.091,54.16 -8.426,54.055 -84,-0.453 -247.076,82.243 -247.076,82.243 z"
         style="fill:#ada0a8;fill-rule:evenodd;stroke-width:0.928253;stroke-opacity:0.933955"
         transform="translate(136.641,149.324)"
         id="path18" /><path
         d="m 1820.847,2221.982 2.059,-7.862 -8.328,-8.138 c -4.944,-4.83 -9.803,-11.198 -11.956,-15.667 -4.393,-9.12 -10.598,-16.862 -18.995,-25.167 -6.286,-6.217 -12.286,-12.924 -13.333,-14.905 -2.793,-5.282 -2.428,-16.856 0.693,-21.975 2.617,-4.292 16.862,-14.464 28.347,-20.243 3.446,-1.734 8.653,-5.196 11.57,-7.693 l 5.305,-4.54 0.565,-12.308 c 0.311,-6.769 0.802,-13.398 1.091,-14.731 0.452,-2.085 -4.33,-4.018 -34.141,-13.8 -46.952,-15.681 -94.463,-31.368 -142,-45.827 -11.514,-4.285 -23.39,-6.784 -35.093,-10.518 -8.932,-2.88 -18.94,-5.949 -22.24,-6.821 -3.3,-0.872 -7.5,-2.067 -9.334,-2.656 -19.116,-5.04 -22.431,-11.729 -12,-28.62 2.933,-4.793 5.333,-8.985 5.333,-9.316 0,-0.702 11.528,-18.915 16.89,-26.685 3.76,-5.446 28.444,-46.068 28.444,-46.808 0,-0.224 1.9,-3.584 4.224,-7.466 6.793,-11.35 14.334,-24.723 22.403,-39.726 9.849,-18.31 14.696,-26.875 16.603,-29.333 0.853,-1.1 2.345,-3.8 3.316,-6 1.651,-3.743 2.264,-5.013 5.306,-11 1.84,-3.622 5.045,-11.132 7.254,-17 13.485,-30.787 22.735,-64.597 49.56,-34 6.315,5.241 52.08,-73.836 130.042,-213.333 4.55,-8.947 17.05,-26.069 22.822,-31.258 3.558,-3.199 6.47,-6.362 6.47,-7.03 0,-0.667 -1.879,-2.976 -4.175,-5.13 -19.127,-17.945 -50.936,-61.101 -73.153,-99.249 -8.412,-14.444 -36.006,-68.025 -36.006,-69.915 0,-0.37 -1.58,-4.13 -3.513,-8.354 -1.933,-4.225 -6.497,-15.192 -10.144,-24.373 -24.22,-60.97 -38.812,-112.842 -50.643,-180.025 -3.763,-21.37 -4.16,-26.473 -4.716,-60.666 -0.693,-42.552 0.327,-57.466 6.495,-95 4.224,-25.705 13.117,-55.656 22.802,-76.798 10.023,-21.88 27.494,-48.46 35.148,-53.476 1.714,-1.122 5.784,-7.595 9.046,-14.384 24.753,-51.517 80.465,-104.313 146.192,-138.541 24.727,-12.877 57.177,-25.468 80,-31.042 4.767,-1.164 10.767,-2.7 13.333,-3.415 2.566,-0.715 17.567,-3.736 33.334,-6.716 15.766,-2.98 39.466,-7.564 52.666,-10.186 13.2,-2.622 26.7,-5.22 30,-5.773 13.93,-2.334 73.107,-15.243 88,-19.195 23.448,-6.224 33.374,-8.931 39.212,-10.696 8.267,-2.498 12.085,-0.992 11.003,4.34 -7.441,36.678 -7.365,35.69 -2.28,29.555 l 3.864,-4.66 3.623,3.326 c 8.757,8.043 29.529,44.862 45.505,80.66 9.787,21.932 32.407,75.023 32.407,76.063 0,0.289 1.445,3.693 3.212,7.565 1.767,3.872 8.638,20.54 15.27,37.04 20.907,52.02 43.94,107.82 52.835,128 9.797,22.228 23.035,48.78 27.82,55.8 5.545,8.136 5.811,9.743 2.425,14.66 -1.34,1.947 -6.527,10.74 -11.527,19.54 -5,8.8 -15.753,27.1 -23.896,40.665 -8.143,13.566 -15.237,25.716 -15.763,27 -2.017,4.92 -4.664,2.411 -6.328,-5.999 -0.907,-4.583 -2.12,-10.133 -2.695,-12.333 -0.576,-2.2 -1.785,-7.6 -2.687,-12 -2.119,-10.34 -4.11,-17 -4.859,-16.253 -0.326,0.327 0.061,7.117 0.86,15.09 0.799,7.973 1.923,22.296 2.498,31.83 1.157,19.155 1.244,18.785 -7.706,32.633 -4.7,7.27 -5.224,9.065 -6.713,22.96 -0.889,8.29 -2.504,20.173 -3.59,26.406 -1.0458,5.9987 -2.0841,11.9987 -3.115,18 -12.11,70.837 -43.296,146.896 -82.087,200.207 -10.849,14.91 -15.807,19.179 -18.8,16.186 -1.627,-1.627 -1.706,-3.368 -0.477,-10.505 6.69,-38.834 13.277,-121.465 9.656,-121.128 -0.55,0.051 -5.2,5.835 -10.334,12.854 -21.24,29.039 -67.93,85.72 -70.61,85.72 -4.205,0 -4.985,-3.531 -3.444,-15.602 4.256,-33.352 9.52,-88.183 12.005,-125.065 2.203,-32.695 2.433,-37.839 1.72,-38.552 -0.374,-0.374 -6.453,4.479 -13.509,10.784 -13.347,11.928 -40.074,33.086 -54.544,43.181 -4.61,3.217 -8.654,7.064 -8.986,8.551 -5.854,36.856 -8.472,74.118 -8.632,111.37 0,41.266 0.759,77.936 19.04,95.637 8.83,8.549 24.947,19.465 44.06,29.841 106.435,51.248 119.69,267.895 206.234,449.855 0.8,0.494 1.333,9.48 1.333,22.478 0,11.91 0.564,22.225 1.253,22.922 12.37,190.741 -5.83,-16.442 22.757,338.6 3.589,44.233 5.96,65.608 7.838,70.666 0.816,2.2 2.109,17.2 2.872,33.334 0.763,16.133 1.975,38.333 2.694,49.333 0.72,11 1.864,32 2.544,46.667 2.765,59.645 3.449,69.411 5.057,72.245 2.033,3.584 2.31,35.857 0.318,37.088 -0.733,0.453 -1.333,2.613 -1.333,4.799 0,5.321 -4.354,13.574 -8.212,15.565 -1.993,1.028 -12.04,1.785 -27.788,2.092 -13.567,0.265 -27.372,1.054 -30.678,1.753 -8.059,1.703 -32.907,14.032 -38.358,19.032 -3.18,2.918 -4.197,4.835 -3.734,7.05 0.349,1.673 0.978,11.142 1.4,21.042 24.2147,552.6317 70.5242,284.8823 97.2221,848.1883 l -552.8576,-2.1534 c -0.664,-162.054 -154.0685,-927.5109 -48.5375,-1330.5629 m 442.876,563.195 c 0.453,-0.733 0.189,-1.333 -0.588,-1.333 -0.777,0 -1.412,0.6 -1.412,1.333 0,0.733 0.265,1.333 0.588,1.333 0.323,0 0.959,-0.6 1.412,-1.333 m -38,-64.588 c 0,-0.323 -0.6,-0.959 -1.333,-1.412 -0.734,-0.453 -1.334,-0.189 -1.334,0.588 0,0.777 0.6,1.412 1.334,1.412 0.733,0 1.333,-0.264 1.333,-0.588 m -43.39,-109.986 c 0.422,-0.683 0.157,-1.618 -0.588,-2.08 -0.745,-0.46 -1.355,0.099 -1.355,1.242 0,2.342 0.8,2.687 1.943,0.838 m 31.15,-15.137 c 1.648,-1.986 0.132,-5.265 -1.795,-3.885 -0.714,0.511 -2.122,1.98 -3.128,3.263 -1.611,2.054 -1.511,2.333 0.837,2.333 1.466,0 3.305,-0.77 4.087,-1.711 m -82.182,-19.911 c -0.957,-0.957 -1.578,-1.036 -1.578,-0.2 0,1.78 1.577,3.356 2.467,2.467 0.379,-0.38 -0.021,-1.4 -0.89,-2.267 m 57.134,-3.045 c -0.126,-1.744 -6.492,-3.435 -7.4,-1.964 -0.86,1.39 3.365,4.037 5.759,3.608 0.955,-0.17 1.694,-0.91 1.64,-1.644 m 19.955,0.667 c 0,-0.733 -0.9,-1.333 -2,-1.333 -1.1,0 -2,0.6 -2,1.333 0,0.733 0.9,1.333 2,1.333 1.1,0 2,-0.6 2,-1.333 m 13.905,-1.905 c -1.412,-1.032 -2.868,-1.577 -3.234,-1.21 -0.367,0.366 0.488,1.511 1.9,2.544 1.412,1.032 2.867,1.577 3.234,1.21 0.367,-0.366 -0.488,-1.511 -1.9,-2.544 m -58.433,-4.4 c -1.355,-1.356 -2.474,0.685 -1.362,2.484 0.84,1.36 1.154,1.36 1.606,0.01 0.309,-0.926 0.199,-2.047 -0.244,-2.49 z m 6.528,-4.361 c 0.453,-0.734 -0.447,-1.334 -2,-1.334 -1.553,0 -2.453,0.6 -2,1.333 0.453,0.734 1.353,1.334 2,1.334 0.647,0 1.547,-0.6 2,-1.334 m -7.334,-5.27 c 0,-1.345 0.95,-2.81 2.111,-3.255 2.777,-1.066 1.832,-3.611 -1.846,-4.972 -2.529,-0.935 -3.214,-0.407 -4.992,3.847 -1.892,4.53 -1.876,5.065 0.197,6.58 2.724,1.993 4.53,1.115 4.53,-2.2 m 57.334,-3.476 c 0,-1.143 -0.61,-1.702 -1.355,-1.241 -0.746,0.46 -1.01,1.396 -0.588,2.079 1.143,1.849 1.943,1.504 1.943,-0.838 m -38.922,-2.021 c -0.263,-0.789 -1.048,-1.434 -1.745,-1.434 -0.697,0 -1.482,0.645 -1.744,1.434 -0.263,0.788 0.522,1.433 1.744,1.433 1.222,0 2.007,-0.645 1.745,-1.433 m 19.795,-2.339 c -3.525,-3.895 -2.45,-11.416 1.419,-9.931 1.396,0.535 1.86,0.181 1.421,-1.084 -0.46,-1.33 -2.363,-1.751 -6.515,-1.44 -7.715,0.58 -9.087,2.088 -5.435,5.975 3.363,3.58 2.575,5.222 -1.961,4.083 -2.286,-0.573 -3.136,-0.224 -3.136,1.288 0,1.552 1.765,2.199 7,2.565 3.85,0.27 7.543,0.6 8.207,0.736 0.664,0.136 0.214,-0.85 -1,-2.192 m -29.54,-13.561 c -0.6453,-1.0433 -1.412,-1.121 -2.3,-0.233 -0.734,0.734 -0.899,2.038 -0.367,2.9 0.646,1.0427 1.413,1.12 2.301,0.232 0.734,-0.734 0.898,-2.038 0.366,-2.9 m 16.41,-4.322 c -0.283,-3.901 -1.07,-5.78 -2.54,-6.059 -1.71,-0.324 -2.103,0.786 -2,5.655 0.106,4.907 0.588,6.059 2.54,6.059 2.01,0 2.342,-0.938 2,-5.655 m -8.673,-2.993 c 0.145,-0.724 -0.787,-1.518 -2.07,-1.765 -1.46,-0.28 -2.334,0.373 -2.334,1.746 0,2.32 3.94,2.337 4.404,0.018 z m -26.404,-3.352 c -0.453,-0.733 -1.388,-1.333 -2.078,-1.333 -0.69,0 -1.255,0.6 -1.255,1.333 0,0.733 0.935,1.333 2.079,1.333 1.143,0 1.708,-0.6 1.254,-1.333 m 14,0 c 0,-0.733 -0.635,-1.333 -1.412,-1.333 -0.777,0 -1.04,0.6 -0.588,1.333 0.454,0.733 1.089,1.333 1.412,1.333 0.324,0 0.588,-0.6 0.588,-1.333 m 37.334,-8 c 0,-0.733 -0.636,-1.333 -1.412,-1.333 -0.777,0 -1.041,0.6 -0.588,1.333 0.453,0.733 1.088,1.333 1.412,1.333 0.324,0 0.588,-0.6 0.588,-1.333 m -44,-3.412 c 0,-1.057 -0.9,-1.921 -2,-1.921 -2.009,0 -2.741,2.814 -1.148,4.408 1.245,1.244 3.148,-0.26 3.148,-2.487 m 32,2.824 c 0,-1.407 -2.56,-1.998 -3.32,-0.767 -0.46,0.745 0.098,1.355 1.241,1.355 1.143,0 2.079,-0.264 2.079,-0.588 m 14.666,-6 c 0,-3.379 -1.757,-4.358 -5.938,-3.308 -4.197,1.053 -4.36,2.927 -0.395,4.521 4.708,1.893 6.333,1.581 6.333,-1.213 m -4,-1.49 c 0,-0.777 0.6,-1.042 1.334,-0.589 0.733,0.454 1.333,1.09 1.333,1.412 0,0.324 -0.6,0.588 -1.333,0.588 -0.734,0 -1.334,-0.635 -1.334,-1.412 m -36,-2.589 c 0,-0.733 -0.635,-1.333 -1.412,-1.333 -0.777,0 -1.04,0.6 -0.588,1.333 0.454,0.734 1.089,1.334 1.412,1.334 0.324,0 0.588,-0.6 0.588,-1.334 m 18.125,-2.868 c 0.522,-0.845 -0.157,-2.345 -1.51,-3.334 -3.21,-2.348 -4.518,-2.268 -5.517,0.337 -1.349,3.514 5.028,6.232 7.027,2.997 m 5.542,-4.576 c -1.27,-1.27 -3.818,0.787 -2.871,2.32 0.563,0.91 1.308,0.887 2.266,-0.07 0.785,-0.786 1.057,-1.798 0.605,-2.25 m -22.333,0.017 c 0,-0.419 -2.494,-3.719 -5.542,-7.333 -3.734,-4.429 -6.562,-6.573 -8.667,-6.573 -3.701,0 -4.072,2.73 -0.777,5.711 6.732,6.093 14.986,10.606 14.986,8.195 m 4.59,-7.536 c 2.576,-3.677 2.929,-13.572 0.367,-10.287 -0.893,1.145 -2.674,2.476 -3.957,2.958 -2.362,0.886 -3.003,4.329 -1.524,8.183 1.113,2.902 2.666,2.643 5.115,-0.854 m 28.743,0.46 c 0,-0.643 -0.94,-1.95 -2.088,-2.903 -2.727,-2.263 -5.912,-8.484 -5.912,-11.547 0,-1.33 -1.222,-4.7 -2.715,-7.486 l -2.716,-5.066 4.049,-3.782 c 2.227,-2.08 4.06,-4.292 4.075,-4.914 0.014,-0.623 -3.135,-4.023 -7,-7.556 -4.298,-3.93 -6.386,-6.69 -5.378,-7.106 0.907,-0.374 3.007,-1.871 4.667,-3.327 2.47,-2.167 2.655,-2.793 1.018,-3.449 -1.1,-0.44 -3.59,-2.502 -5.535,-4.58 -4.204,-4.496 -4.43,-4.526 -8.72,-1.151 -3.09,2.43 -3.7,2.48 -8.04,0.666 -5.716,-2.388 -5.705,-2.388 -5.705,-0.195 0,0.973 1.452,3.132 3.226,4.799 1.774,1.667 3.947,4.771 4.829,6.899 1.662,4.013 3.186,4.841 4.625,2.514 1.074,-1.738 8.397,2.442 10.235,5.843 1.662,3.075 -0.77,5.922 -5.526,6.469 -2.438,0.28 -3.724,-0.555 -5.068,-3.291 -2.006,-4.087 -5.657,-4.948 -5.65,-1.334 0,1.284 1.203,4.298 2.667,6.7 2.882,4.725 3.454,8.3 1.329,8.3 -0.734,0 -1.334,0.764 -1.334,1.697 0,2.184 7.502,6.082 12.667,6.583 3.67,0.355 4.008,0.812 4.09,5.55 0.078,4.391 0.86,5.735 5.238,9 5.114,3.812 8.672,4.907 8.672,2.667 m -19.263,-22.716 c -0.4282,-0.6983 -0.2125,-1.6113 0.483,-2.044 0.6981,-0.4275 1.6103,-0.2119 2.043,0.483 0.43,0.695 0.212,1.614 -0.482,2.043 -0.698,0.4284 -1.6109,0.2131 -2.044,-0.482 m -4.737,-29.447 c 0,-0.734 0.636,-1.334 1.412,-1.334 0.777,0 1.041,0.6 0.588,1.334 -0.453,0.733 -1.089,1.333 -1.412,1.333 -0.323,0 -0.588,-0.6 -0.588,-1.333 m 8,47.733 c 0,-2.154 -0.394,-2.539 -1.484,-1.45 -0.816,0.817 -1.08,2.137 -0.588,2.934 1.3807,2.2307 2.0713,1.736 2.072,-1.484 m -21.928,-6.516 c 1.144,-1.851 -1.392,-4.461 -3.23,-3.325 -1.532,0.946 -0.552,4.774 1.222,4.774 0.612,0 1.515,-0.652 2.008,-1.449 m 4.36,-19.44 c -0.65,-3.345 -3.765,-3.804 -3.765,-0.555 0,1.638 0.86,2.778 2.098,2.778 1.241,0 1.921,-0.907 1.666,-2.223 m -12.765,-4.57 c 6.369,-1.669 7.356,-7.252 2.213,-12.522 -2.143,-2.196 -2.979,-2.366 -4.898,-0.997 -1.274,0.908 -3.665,2.235 -5.315,2.949 -1.65,0.713 -3,2.137 -3,3.163 0,1.027 -0.393,3.83 -0.873,6.23 -0.97,4.852 -1.82,4.768 11.873,1.178 m 175.085,-28.332 c 8.889,-99.536 -39.96,-220.47 -69.993,-317.542 -3.775,-11.733 -7.44,-22.683 -8.144,-24.333 -0.705,-1.65 -1.85,-4.35 -2.543,-6 -0.693,-1.65 -3.137,-8.7 -5.43,-15.667 -2.293,-6.967 -5.256,-15.067 -6.587,-18 -1.331,-2.933 -4.374,-11.333 -6.762,-18.667 -2.39,-7.333 -5.484,-15.934 -6.878,-19.112 -9.625,-21.949 9.595,-84.55 2.829,-96.728 -28.652,-51.56 -78.991,-94.043 -66.96,-112.405 4.464,-6.814 21.574,-9.977 23.005,-11.7 1.312,-1.581 -0.85,-7.374 -11.504,-30.823 -7.215,-15.882 -13.976,-29.212 -15.024,-29.622 -47.802,27.789 -50.071,119.118 -39.651,171.724 24.462,126.308 192.278,321.93 192.887,545.76 0,1.31 9.213,-6.182 20.755,-16.885 m -167.724,12.208 c -0.824,-2.472 -3.695,-2.882 -3.695,-0.528 0,1.161 0.95,2.111 2.112,2.111 1.16,0 1.873,-0.712 1.583,-1.583 m 14.363,-17.176 c 0.936,-1.514 -0.502,-3.327 -10.058,-12.675 -3.3,-3.229 -6.768,-5.877 -7.708,-5.885 -2.569,-0.02 -3.498,3.741 -1.829,7.404 1.626,3.569 7.367,4.76 6.02,1.249 -0.423,-1.1 -0.168,-2 0.565,-2 2.126,0 3.211,4.35 1.37,5.487 -1.891,1.169 -1.319,1.945 3.906,5.294 4.322,2.771 6.52,3.091 7.734,1.126 m -10.058,-21.744 c 0,-2.792 -3.673,-5.242 -6.316,-4.213 -2.13,0.83 -2.056,1.154 0.797,3.482 3.713,3.029 5.52,3.268 5.52,0.731 m -26.666,-33.418 c 0,-0.323 -0.6,-0.959 -1.334,-1.412 -0.733,-0.453 -1.333,-0.189 -1.333,0.588 0,0.777 0.6,1.412 1.333,1.412 0.734,0 1.334,-0.264 1.334,-0.588 m -231.052,-377.024 c 42.81,-93.038 -5.432,-181.668 -47.134,-264.17 -2.037,-4.153 -4.064,-7.551 -4.504,-7.551 -34.547,32.93 -63.122,74.635 -90.127,113.733 -0.67,0.964 -1.85,1.875 -1.85,2.864 0,2.839 -7.663,16.665 -12.378,22.335 -2.359,2.835 -7.007,8.286 -10.33,12.112 -3.322,3.826 -8.667,10.856 -11.877,15.622 -3.21,4.767 -13.526,18.764 -16.387,22.554 -2.793,17.386 66.334,41.876 81.639,49.505 4.033,2.01 18.619,9.418 32.413,16.464 13.794,7.046 25.61,12.81 26.258,12.81 1.064,0 9.014,3.567 32.662,14.652 7.957,3.73 8.021,3.737 12,1.27 2.227,-1.38 6.489,-6.788 9.615,-12.2 m -144.26,-172.721 c 11.093,-14.712 21.173,-30.979 32.661,-45.613 29.169,-34.193 55.846,-54.707 50.563,-101.387 -3.167,-32.995 -0.887,-48.119 10.653,-70.667 23.966,-46.828 24.101,-60.693 24.101,-68.079 v -11.92 h 3.786 c 11.595,0 8.349,24.712 -8.016,61.032 -2.073,4.602 -3.77,8.593 -3.77,8.868 0,0.275 -2.4,5.648 -5.333,11.938 -5.949,12.757 -6.385,14.768 -3,13.817 11.488,-2.938 22.673,-8.995 34.715,-6.588 20.747,4.351 37.238,18.497 51.21,43.926 2.92,5.313 5.744,9.929 6.275,10.257 0.531,0.328 0.705,-6.23 0.385,-14.575 -0.656,-17.148 1.269,-25.06 8.119,-33.37 4.168,-5.057 6.408,-5.717 8.96,-2.642 1.361,1.64 0.992,2.87 -2.067,6.88 -2.048,2.685 -4.494,7.036 -5.435,9.67 -1.868,5.223 -2.27,24.511 -0.6,28.786 0.92,2.356 1.37,2.023 3.86,-2.856 1.55,-3.037 5.953,-8.264 9.783,-11.615 18.857,-16.496 45.431,-23.525 81.78,-21.632 20.424,1.063 24.905,1.929 43.04,8.317 26.823,9.449 36.405,19.325 39.026,40.226 3.904,22.454 15.962,42.874 25.234,63.56 5.248,11.733 12.955,28.41 17.128,37.058 7.175,14.87 7.768,15.676 10.92,14.846 8.158,-2.15 47.853,-2.097 64.789,0.086 17.077,2.201 42.771,8.119 52.008,11.978 4.12,-3.45 -49.271,-233.448 -130.13,-294.11 -34.645,-18.784 -55.524,-33.166 -61.736,-42.525 -15.95,-26.454 -11.56,-61.354 -11.597,-90.666 0,-89.473 5.906,-110.667 2.104,-110.667 -24.524,15.91 -53.88,25.502 -74.927,44.49 l 0.823,32.347 c 1.098,43.179 -5.1,86.464 -37.448,119.13 -15.974,13.47 -37.645,19.173 -85.321,22.456 -12.826,0.883 -14.782,1.383 -21.616,5.525 -4.133,2.505 -11.684,8.791 -16.78,13.97 -9.043,9.188 -19.381,25.71 -40.097,64.082 -21.068,39.023 -31.96,58.33 -48.322,85.655 -10.205,17.044 -20.474,33.975 -22.819,37.624 -3.1981,4.9915 -6.3771,9.9952 -9.537,15.011 -2.9,4.607 -9.2,14.277 -14,21.49 -4.8,7.213 -9.38,14.258 -10.179,15.657 -0.799,1.399 -2.385,3.599 -3.526,4.887 -1.905,2.15 -1.378,3.762 6.434,19.676 4.68,9.533 11.597,26.783 15.373,38.333 3.776,11.55 7.413,21 8.082,21 0.669,0 4.444,-3.666 4.444,-3.666 m 139.566,-344.863 c 4.173,-1.073 10.473,-2.323 14,-2.78 8.703,-1.125 23.008,-3.103 35.079,-4.85 14.582,-2.11 30.482,-7.138 37.705,-11.922 46.745,-30.962 43.241,-142.975 41.808,-143.919 -0.946,0 -8.991,3.9 -17.878,8.667 -8.887,4.767 -16.553,8.667 -17.036,8.667 -1.18,0 -34.77,-22.579 -47.266,-31.772 -21.42,-15.76 -37.504,-29.602 -57.893,-49.828 -11.675,-11.582 -21.394,-20.89 -21.598,-20.686 -0.918,0.918 -4.509,36.816 -4.509,45.08 0,6.64 -0.48,9.206 -1.724,9.206 -2.415,0 -13.176,-11.68 -16.953,-18.4 -2.94,-5.231 -5.323,-7.192 -5.323,-4.38 0,1.554 7.464,21.668 10.798,29.099 1.395,3.108 2.536,6.118 2.536,6.687 0,0.57 2.4,5.143 5.333,10.163 4.958,8.485 5.334,9.843 5.338,19.312 0.01,16.968 5.637,66.892 10.545,93.519 3.266,17.718 11.25,52.257 13.35,57.756 1.026,2.684 2.102,3.553 3.768,3.043 1.283,-0.392 5.747,-1.59 9.92,-2.662 m -31.146,-32.47 c -7.062,-31.666 -13.614,-78.404 -15.28,-109 -0.704,-12.916 -1.47,-17.197 -3.975,-22.206 -10.085,-20.174 -29.022,-75.192 -37.179,-108.02 -4.618,-18.588 -5.56,-28.441 -2.719,-28.441 0.709,0 6.123,11.7 12.03,26 5.908,14.3 12.786,29.6 15.285,34 8.038,14.151 14.936,24.666 16.183,24.666 0.667,0 1.212,-2.25 1.21,-5 0,-2.75 0.973,-12.713 2.168,-22.14 l 2.172,-17.14 -5.505,-7.526 c -30.67,-41.93 -50.85,-83.06 -59.95,-122.194 -7.1,-30.53 -9.616,-64.88 -7.015,-95.765 l 1.553,-18.433 -10.938,-18.9 c -6.016,-10.396 -12.143,-20.544 -13.615,-22.552 -3.08,-4.2 -2.14,-6.264 1.61,-3.536 8.596,6.253 23.198,15.947 23.497,15.599 2.233,-2.603 4.684,-9.988 4.65,-14.013 -0.037,-4.498 -0.24,-4.805 -1.813,-2.733 -1.939,2.554 -4.81,3.134 -4.81,0.972 0,-0.75 1.433,-3.6 3.185,-6.334 3.054,-4.767 3.216,-6.235 3.95,-35.799 0.42,-16.955 0.43,-31.162 0.02,-31.572 -0.41,-0.41 -3.684,1.366 -7.275,3.946 -29.157,20.947 -42.929,65.823 -44.836,146.1 -1.225,51.59 3.536,104.5 13.587,150.987 18.633,86.182 48.482,172.205 85.456,246.278 10.642,21.32 28.907,54.316 30.1,54.378 0.471,0.024 -0.315,-5.206 -1.746,-11.623 z m -31.003,-28.667 c -38.771,-74.39 -71.977,-168.429 -92.056,-260.696 -13.957,-64.137 -17.814,-150.048 -9.336,-207.943 9.706,-66.276 34.213,-101.209 76.62,-109.213 31.839,-6.01 74.316,7.193 111.667,34.707 4.583,3.377 8.333,5.505 8.333,4.73 0,-2.713 -38.099,-39.33 -48.837,-46.937 -46.656,-33.056 -90.737,-37.62 -118.89,-12.307 -20.898,18.79 -43.421,66.87 -52.775,112.659 -6.247,30.582 -7.687,45.419 -8.442,86.99 -0.766,42.117 -0.22,50.219 5.718,85.01 16.715,97.918 54.08,199.858 103.364,282 11.092,18.487 32.465,50 33.912,50 0.343,0 -3.832,-8.55 -9.278,-19 m 441.668,-40.667 c 38.452,-57.204 65.877,-132.568 76.775,-210.977 1.068,-7.687 1.779,-14.14 1.58,-14.34 -0.2,-0.199 -8.058,11.191 -17.462,25.311 -9.404,14.12 -26.668,39.058 -38.362,55.418 l -21.262,29.746 -0.553,15.588 c -1.199,33.822 -6.27,92.38 -9.29,107.254 -0.41,2.017 -0.412,3.667 -0.01,3.667 0.406,0 4.267,-5.25 8.58,-11.667 z m -55.697,-55.932 20.744,-25.859 3.025,-30.938 c 4.391,-44.91 7.868,-85.901 10.224,-120.538 2.392,-35.164 3.924,-130.835 2.34,-146.15 l -1.076,-10.418 -14,12.456 c -7.7,6.85 -18.688,16.338 -24.419,21.084 l -10.419,8.628 0.11,63.334 c 0.161,92.083 -2.67,146.846 -12.032,232.666 -1.44,13.2 -2.962,25.8 -3.382,28 l -0.764,4 4.453,-5.203 c 2.45,-2.862 13.788,-16.84 25.196,-31.062 m -202.757,-13.198 c 49.83,-27.2 93.758,-55.025 125.796,-79.682 22.259,-17.13 52.775,-44.508 53.49,-47.988 1.22,-5.953 2.256,-86.571 1.335,-103.954 l -0.961,-18.145 -10.351,-3.447 -10.351,-3.447 -10.457,6.826 c -5.751,3.754 -10.683,7.052 -10.959,7.328 -0.275,0.275 1.668,4.38 4.319,9.12 7.817,13.978 6.579,14.86 -5.602,3.995 l -8.421,-7.512 -18.245,8.814 c -10.035,4.848 -20.646,9.648 -23.579,10.666 -4.845,1.682 -5.324,2.265 -5.237,6.37 0.053,2.486 0.354,6.256 0.667,8.38 0.906,6.137 -2.04,5.481 -7.247,-1.612 l -4.798,-6.536 -15.806,0.651 c -35.296,1.454 -76.979,-8.535 -90.985,-21.803 -1.874,-1.775 -4.688,-3.227 -6.255,-3.227 -4.016,0 -5.009,-2.383 -2.258,-5.423 5.457,-6.03 47.986,-28.06 73.919,-38.29 44.055,-17.378 78.108,-27.18 149.333,-42.985 10.634,-2.36 23.084,-5.442 27.667,-6.85 9.808,-3.012 9.466,-1.429 5.71,-26.452 -2.384,-15.886 -1.956,-22.065 1.13,-16.298 0.782,1.46 2.764,10.675 4.406,20.476 1.64,9.802 3.131,18.046 3.31,18.32 0.18,0.273 4.104,-1.01 8.72,-2.852 8.213,-3.279 8.4,-3.464 8.797,-8.758 0.509,-6.77 -5.645,-68.143 -9.247,-92.222 -19.04,-127.279 -55.82,-210.432 -102.493,-231.725 -5.249,-2.395 -9.796,-3.383 -16,-3.477 -12.413,-0.188 -21.26,4.59 -36.794,19.87 -42.622,41.921 -94.52,143.804 -111.726,219.332 -2.458,10.79 -1.764,9.979 11.412,-13.333 32.488,-57.475 75.606,-111.686 103.624,-130.284 11.592,-7.694 19.292,-10.089 30.24,-9.404 17.588,1.1 32.026,12.816 43.738,35.492 11.762,22.774 19.038,50.078 23.564,88.427 l 2.78,23.563 9.585,9.77 c 9.913,10.104 17.172,22.398 18.955,32.103 1.533,8.343 -2.55,6.296 -7.976,-4 -9.992,-18.958 -20.332,-27 -34.715,-27 -6.284,0 -9.254,0.816 -15.246,4.192 -20.533,11.569 -41.04,27.548 -82.629,64.39 -60.556,53.644 -82.828,71.61 -103.56,83.54 -6.256,3.6 -11.9,6.544 -12.542,6.544 -3.266,0 -17.749,-21.405 -15.8,-23.353 0.455,-0.456 3.633,1.312 7.062,3.93 8.652,6.604 11.48,7.055 18.484,2.95 15.478,-9.07 41.601,-30.462 91.617,-75.024 56.185,-50.058 76.415,-66.29 93.597,-75.1 8.219,-4.214 12.022,-5.403 17.282,-5.403 h 6.744 l -0.743,-5.666 c -0.408,-3.117 -1.779,-13.624 -3.045,-23.349 -1.266,-9.725 -2.964,-18.557 -3.772,-19.626 -2.26,-2.99 -19.757,-5.128 -34.802,-4.252 -35.399,2.063 -75.21,20.172 -119.334,54.28 -14.647,11.322 -45.13,40.652 -50.872,48.947 -6.277,9.067 -8.417,8.286 -25.72,-9.394 -36.227,-37.014 -76.62,-58.539 -113.668,-60.57 -13.608,-0.746 -28.635,1.09 -32.073,3.919 -1.23,1.012 -1.667,8.193 -1.667,27.381 v 26.01 l 7.667,-7.689 c 19.41,-19.465 28.731,-19.97 46.197,-2.503 12.12,12.12 22.038,28.584 46.087,76.512 29.903,59.596 27.71,56.199 32.716,50.667 3.793,-4.19 5.112,-3.255 4.231,3 -1.088,7.729 -4.764,19.667 -6.056,19.667 -3.094,0 -26.955,-40.416 -50.775,-86 -19.816,-37.924 -27.293,-49.192 -37.587,-56.65 -11.08,-8.025 -20.461,-6.385 -34.104,5.96 -7.514,6.8 -8.034,7.663 -8.738,14.484 -0.412,3.989 -2.65,11.585 -4.975,16.88 -2.324,5.297 -3.724,10.073 -3.11,10.616 0.612,0.543 16.714,12.64 35.78,26.884 64.055,47.85 101.065,78.237 105.325,86.476 2.457,4.751 2.561,6.927 0.306,6.409 -0.937,-0.215 -4.453,1.862 -7.813,4.616 -7.05,5.776 -19.135,10.36 -27.026,10.248 -4.516,-0.064 -12.676,-1.839 -24.676,-5.369 -1.13,-0.332 -3.093,1.581 -4.9,4.78 -6.63,11.728 -9.171,10.896 -6.987,-2.288 l 1.476,-8.906 -4.519,-3.72 c -2.485,-2.046 -7.819,-6.798 -11.852,-10.562 l -7.333,-6.842 -9.26,3.159 c -16.422,5.601 -18.675,3.312 -6.046,-6.144 4.385,-3.282 7.972,-6.128 7.972,-6.325 0,-0.4 -23.752,-32.484 -25.2,-34.038 -0.91,-0.977 -11.31,2.378 -14.323,4.62 -1.71,1.273 -1.304,17.139 1,39.045 9.1,86.48 57.736,165.145 143.697,232.414 13.268,10.383 52.895,37.586 54.752,37.586 0.463,0 12.49,-6.358 26.727,-14.13 m -100.825,-92.347 c -7.98,-3.832 -10.875,-6.253 -9.328,-7.8 0.422,-0.422 4.318,0.773 8.659,2.656 9.56,4.146 12.83,3.968 30.175,-1.64 17.598,-5.69 49.731,-13.855 68,-17.28 13.62,-2.553 59.128,-9.459 62.333,-9.459 0.78,0 8.474,-6.967 17.095,-15.483 8.971,-8.86 16.306,-15.093 17.148,-14.573 0.994,0.614 0.533,2.287 -1.418,5.15 -4.986,7.314 -22.936,24.991 -28.097,27.668 -2.95,1.531 -15.03,4.193 -30,6.612 -29.959,4.841 -64.78,12.396 -95.728,20.77 -29.93,8.1 -29.151,8.032 -38.84,3.38 m 7.433,-41.324 c -8.84,-5.668 -20.407,-18.585 -25.269,-28.215 l -4.301,-8.522 3.821,-3.175 c 20.608,-17.123 26.556,-24.467 31.256,-38.592 1.824,-5.48 3.497,-8.362 4.856,-8.362 3.16,0 1.239,10.896 -3.703,20.987 -4.026,8.222 -14.839,20.556 -23.92,27.286 l -4.667,3.459 2.664,5.134 c 1.466,2.824 8.516,11.189 15.667,18.589 7.151,7.4 13.002,13.85 13.002,14.333 0,1.876 -3.73,0.717 -9.406,-2.922 m 347.732,80.134 c 30,-40.431 59.203,-82.826 87.241,-126.65 l 10.887,-17.016 -0.248,-8.667 c -1.137,-39.722 -7.685,-87.583 -19.833,-144.977 -2.675,-12.637 -4.439,-23.402 -3.92,-23.92 1.817,-1.817 4.78,3.002 9.568,15.564 11.251,29.514 29.12,89.88 34.039,115 0.97,4.95 2.19,9 2.714,9 1.291,0 42.56,-69.95 42.56,-72.138 0,-0.687 -1.445,-3.536 -3.21,-6.332 -12.314,-19.507 -27.359,-53.994 -83.263,-190.864 -27.996,-68.542 -39.993,-96.624 -54.322,-127.157 -11.375,-24.24 -24.92,-49.265 -30.348,-56.073 l -3.003,-3.766 -7.001,12.132 c -3.851,6.673 -7.518,12.451 -8.15,12.841 -0.63,0.39 -2.77,0.092 -4.753,-0.662 -3.112,-1.183 -3.497,-1.915 -2.812,-5.343 0.437,-2.184 0.313,-3.972 -0.275,-3.972 -2.217,0 -17.693,6.811 -35.752,15.734 -10.286,5.083 -19.458,9.493 -20.383,9.801 -1.079,0.36 1.249,4.607 6.493,11.846 9.396,12.973 25.6,44.85 33.185,65.286 19.239,51.83 33.956,124.497 40.235,198.667 2.323,27.438 2.792,30.667 4.454,30.663 0.864,-0.002 5.094,-2.128 9.4,-4.724 4.305,-2.596 8.44,-4.516 9.19,-4.266 0.749,0.25 -3.374,5.753 -9.162,12.23 -5.788,6.477 -10.407,12.749 -10.265,13.937 0.143,1.188 0.665,18.66 1.16,38.826 1.327,53.96 -1.55,118.196 -8.867,198 -5.691,62.069 -5.686,62 -4.857,62 0.41,0 9.095,-11.25 19.298,-25 m -184.827,-165.538 c 43.63,-11.159 118.214,-60.256 130.759,-86.076 4.115,-8.471 2.771,-10.615 -5.947,-9.485 -16.299,2.112 -73.213,16.138 -106.458,26.236 l -8.814,2.677 -0.773,8.27 c -1.06,11.353 -6.749,28.676 -11.63,35.414 -4.654,6.424 -11.147,10.826 -15.97,10.826 -9,0 -17.737,-12.012 -19.388,-26.657 -0.454,-4.033 -1.051,-8.062 -1.326,-8.953 -1.065,-3.457 -64.619,25.633 -64.619,29.578 0,5.831 15.535,12 42,16.68 18.798,3.322 21.161,3.559 38.12,3.815 10.108,0.153 16.94,-0.508 24.046,-2.325 m -175.747,-11.583 c 6.181,-2.106 14.248,-8.338 14.248,-11.007 0,-1.347 -25.732,-24.205 -27.248,-24.205 -0.414,0 -0.752,1.22 -0.752,2.71 0,3.892 -3.655,12.085 -6.963,15.605 -10.053,10.701 -25.189,-9.378 -27.312,-36.232 -0.459,-5.803 -1.572,-10.391 -2.901,-11.957 -4.054,-4.775 -49.068,-37.73 -52.824,-38.673 -4.837,-1.214 -6.282,0.964 -5.185,7.816 1.75,10.928 9.305,24.142 28.167,49.262 18.594,24.763 36.953,41.222 52.279,46.868 6.611,2.436 21.07,2.341 28.49,-0.187 m 165.826,-10.201 c 2.335,-2.216 5.532,-7.02 7.104,-10.676 3.283,-7.632 6.974,-24.06 6.384,-28.42 -0.374,-2.769 -0.695,-2.855 -5.066,-1.37 -2.567,0.872 -4.52,2.294 -4.342,3.161 0.519,2.516 -2.473,15.283 -4.521,19.294 -4.095,8.021 -11.775,3.054 -13.569,-8.776 l -0.901,-5.944 -5.145,2.06 -5.146,2.061 0.877,6.8 c 2.418,18.753 9.015,28.813 17.414,26.555 1.466,-0.394 4.577,-2.53 6.911,-4.745 m -189.098,-10.45 c 2.47,-2.652 6.002,-13.19 4.818,-14.375 -0.312,-0.311 -1.443,0.161 -2.514,1.05 -1.483,1.231 -2.629,1.25 -4.812,0.082 -3.013,-1.613 -7.825,-10.782 -8.039,-15.318 -0.122,-2.598 -8.737,-10.974 -9.993,-9.718 -1.143,1.143 3.56,22.925 6.356,29.433 2.497,5.814 7.742,11.618 10.499,11.618 0.605,0 2.264,-1.248 3.685,-2.773 z m 309.52,-11.894 c 0,-4.648 -0.535,-6.667 -1.767,-6.667 -1.814,0 -8.47,6.317 -7.46,7.08 l 4.407,3.339 c 2.115,1.603 4.065,2.914 4.333,2.914 0.268,0 0.487,-3 0.487,-6.666 m -401.441,-44.552 3.024,-3.219 -3.044,-4.117 c -3.645,-4.93 -5.155,-3.506 -5.185,4.888 -0.023,6.497 0.964,6.962 5.205,2.448 m 168.108,-95.304 c 0,-17.51 20.932,-89.465 32.571,-111.962 1.277,-2.467 3.171,-6.967 4.21,-10 l 1.89,-5.516 -2.542,3.266 c -1.398,1.796 -9.049,14.047 -17.002,27.224 -15.106,25.028 -17.241,28.01 -19.194,26.802 -4.34,-2.682 30.345,-62.47 61.604,-106.19 6.121,-8.561 14.834,-21.461 19.36,-28.667 13.34,-21.232 24.025,-34.919 38.33,-49.101 15.093,-14.964 25.08,-21.134 38.366,-23.706 7.91,-1.531 8.919,-2.17 17.073,-10.822 7.513,-7.969 8.188,-9.078 5.072,-8.326 -1.977,0.478 -30.477,6.007 -63.333,12.289 -89.998,17.204 -107.629,21.847 -144.405,38.026 -66.649,29.32 -128.896,82.19 -158.253,134.411 -3.999,7.113 -4.378,8.41 -2.274,7.757 13.632,-4.225 18.64,-5.088 29.86,-5.148 26.372,-0.14 53.822,10.507 82.65,32.056 22.206,16.598 49.977,46.498 66.767,71.883 3.97,6.002 7.675,10.913 8.234,10.913 0.558,0 1.016,-2.335 1.016,-5.19 m 29.333,-22.18 c 14.228,-15.43 55.972,-44.656 82,-57.413 36.617,-17.947 63.304,-23.114 94.953,-18.386 l 5.62,0.84 -3.403,-12.418 c -6.666,-24.326 -16.977,-44.435 -27.99,-54.587 -7.875,-7.259 -13.2,-9.334 -23.95,-9.334 -7.38,0 -10.172,0.701 -16.748,4.206 -22.093,11.776 -50.148,43.178 -83.2,93.128 -13.856,20.938 -35.282,56.995 -35.282,59.373 0,1.36 4.669,-1.797 8,-5.41 m 205.333,-243.47 c 12.834,-6.284 26.934,-12.807 31.334,-14.494 4.4,-1.688 8.679,-3.728 9.51,-4.534 0.83,-0.807 2.796,-8.51 4.369,-17.118 1.573,-8.609 3.244,-16.654 3.714,-17.878 1.026,-2.673 1.918,-2.834 -29.593,5.338 -12.467,3.233 -28.667,7.195 -36,8.805 -7.334,1.609 -14.534,3.261 -16,3.671 -3.135,0.878 -26.017,22.871 -25.964,24.957 0.02,0.784 3.867,3.136 8.55,5.227 4.682,2.092 12.316,7.013 16.964,10.938 4.647,3.924 8.75,6.995 9.116,6.824 0.367,-0.17 11.167,-5.452 24,-11.736"
         style="fill:#000000"
         id="path19"
         transform="translate(-772.03,-316.312)"
         sodipodi:nodetypes="ccccscssccsscccsccscsccscscccsscssccscsscssssssccccccccssccccsccscccscccccsscssscsscccccccscccscssssssccccccccsssccssscccsccsssccscccccccssscccccccsccccssscccccccccsccscscccccscscsccscsccscscccscccsssccscsccsssccscccsscccscccssccscscccccccccccscccsccccssccsccssccccssccsscccssccccccccccssscccccccsccssccsccssccccssscccccccccccssccccscscccccsccssscccccsccccsssscccccsscscsscccscssscsscccccscsccccccccsscccccsssssscccsccsscsssssscsccscccccccsccscccscccccsccssccscccsccccccccscscccssccscsscscsccccsscccsccssccccccscccsscccssscscsssscscccccccssscsccccccsscssssscccsssccsscsccssscsccccscccsccccscscccccccccssccssccscscscsccscccccscscsccssccscsscccsssscscscscsccccsscssccssccccscccsccsccccssscscccscccccsccccccsscccsccscscccsccscccsscccccsscsccsccccscccssccsccsssccsccccscsccscscc" /><path
         d="m 1286.277,2024.449 c -5.33,-3.558 -6.3,-4.949 -6.8,-9.746 -0.232,-2.213 -0.718,-4.38 -1.081,-4.818 -0.363,-0.438 -2.042,-0.981 -3.73,-1.209 -3.737,-0.503 -9.094,-2.934 -10.856,-4.926 l -1.298,-1.467 1.46,-0.975 c 1.975,-1.32 1.859,-2.205 -1.135,-8.602 -2.602,-5.558 -3.146,-8.017 -1.94,-8.763 0.678,-0.419 3.333,2.102 5.376,5.104 1.455,2.138 4.964,2.322 8.08,0.422 1.693,-1.032 2.105,-1.702 2.093,-3.403 -0.017,-2.495 -1.318,-4.291 -4.78,-6.6 -2.653,-1.768 -5.482,-2.174 -6.697,-0.96 -1.043,1.044 -1.949,0.246 -3.745,-3.298 -0.873,-1.723 -2.763,-4.492 -4.2,-6.152 -2.93,-3.384 -4.202,-5.478 -3.66,-6.02 0.2,-0.2 2.001,0.263 4.003,1.029 4.9,1.875 6.913,1.765 10.114,-0.554 1.478,-1.07 3.026,-1.946 3.441,-1.946 0.415,0 1.612,0.898 2.66,1.995 1.048,1.098 3.29,3.054 4.984,4.348 l 3.078,2.352 -1.78,1.874 c -0.98,1.03 -2.574,2.288 -3.543,2.794 -1.24,0.647 -1.646,1.255 -1.372,2.05 0.214,0.622 3.17,3.957 6.57,7.41 l 6.18,6.28 -4.228,4.426 -4.228,4.424 2.5,4.85 c 1.374,2.668 2.665,5.88 2.867,7.137 0.684,4.249 2.242,7.567 5.162,10.988 1.6,1.874 2.908,3.675 2.908,4.002 0,1.308 -2.65,0.461 -6.403,-2.046 m -9.528,-20.655 c 0.627,-1.015 -0.372,-2.654 -1.617,-2.654 -1.43,0 -2.164,1.012 -1.669,2.302 0.399,1.038 2.709,1.286 3.286,0.352 m -5.588,-29.805 c 0.166,-1.17 -0.053,-1.46 -0.973,-1.284 -0.66,0.126 -1.284,0.898 -1.403,1.738 -0.166,1.17 0.053,1.46 0.973,1.284 0.66,-0.126 1.284,-0.898 1.403,-1.738 m -9.946,-17.309 c -5.11,-3.069 -5.092,-3.045 -3.86,-5.232 1.339,-2.372 0.412,-5.454 -1.639,-5.454 -1.027,0 -1.314,0.425 -1.314,1.947 0,2.534 -1.44,2.553 -3.942,0.05 -1.48,-1.48 -1.896,-2.481 -1.896,-4.562 0,-3.121 1.153,-3.904 3.758,-2.549 0.948,0.494 4.89,4.032 8.76,7.864 5.437,5.384 6.99,7.3 6.829,8.434 -0.32,2.25 -2.375,2.096 -6.697,-0.498 m -31.789,-54.153 c -0.22,-0.357 -0.11,-0.65 0.248,-0.65 0.356,0 0.829,0.293 1.05,0.65 0.22,0.356 0.108,0.648 -0.249,0.648 -0.356,0 -0.829,-0.292 -1.05,-0.648 m 5.884,87.129 c 0.809,-6.473 0.97,-6.732 6.095,-9.759 l 4.764,-2.814 1.905,1.81 c 6.418,6.1 4.672,10.659 -5.011,13.088 -8.344,2.092 -8.306,2.104 -7.753,-2.325 m 17.007,40.757 c -5.284,-3.449 -9.59,-7.396 -9.59,-8.789 0,-0.95 1.369,-1.67 3.18,-1.67 1.584,0 5.867,3.823 9.746,8.697 1.811,2.276 3.293,4.316 3.293,4.533 0,1.039 -2.204,0.118 -6.629,-2.77"
         style="fill:#f9f0eb;fill-opacity:1;fill-rule:evenodd;stroke-width:0.649795;stroke-opacity:0.933955"
         transform="translate(136.641,149.324)"
         id="path20" /><path
         d="m 1260.476,2028.464 c -0.992,-0.573 -2.146,-4.298 -1.925,-6.213 0.22,-1.907 0.86,-2.807 2.678,-3.762 0.888,-0.467 2.186,-1.41 2.884,-2.097 0.734,-0.723 1.401,-1.197 1.585,-1.127 0.465,0.179 0.653,1.568 0.498,3.677 -0.27,3.653 -1.264,6.238 -3.16,8.219 -1.318,1.377 -1.91,1.678 -2.56,1.303 m -8.006,-11.964 c -0.737,-0.595 -1.11,-1.441 -1.11,-2.516 0,-1.966 1.536,-2.676 2.945,-1.36 1.288,1.203 1.157,2.8 -0.304,3.702 -0.872,0.54 -1.055,0.56 -1.531,0.175 m 4.448,-18.676 c -0.497,-0.2 -0.97,-1.382 -0.97,-2.422 0,-1.175 0.511,-2.012 1.23,-2.012 1.52,0 2.887,3.216 1.79,4.208 -0.4,0.362 -1.43,0.476 -2.05,0.226 m 18.579,26.13 c -0.652,-0.941 -0.736,-1.318 -0.49,-2.209 0.245,-0.885 1.304,-1.89 1.64,-1.554 0.23,0.23 0.273,3.262 0.055,3.95 -0.2,0.628 -0.693,0.551 -1.204,-0.187 z m -3.973,14.778 c -1.199,-0.632 -2.045,-1.781 -2.04,-2.77 0.01,-0.979 0.91,-2.493 1.644,-2.751 1.158,-0.407 4.597,1.763 5.235,3.303 0.868,2.098 -2.307,3.553 -4.84,2.218 m 9.099,12.33 c -0.491,-0.491 -0.111,-1.163 0.768,-1.356 1.388,-0.305 2.902,1.214 1.567,1.572 -0.926,0.248 -1.967,0.151 -2.335,-0.216 m 13.675,0.948 c -0.812,-0.925 -0.855,-1.061 -0.457,-1.46 0.397,-0.396 0.807,-0.34 1.33,0.184 0.532,0.53 0.586,1.116 0.16,1.7 -0.28,0.38 -0.353,0.351 -1.033,-0.424 m -45.784,-1.752 c -1.253,-1.49 -0.488,-3.882 1.241,-3.882 2.022,0 2.467,2.949 0.639,4.23 -0.753,0.526 -1.216,0.44 -1.88,-0.348 m -6.5,10.226 c -0.84,-0.364 -1.014,-1.191 -0.385,-1.82 0.57,-0.57 1.226,-0.426 2.12,0.469 l 0.83,0.83 -0.534,0.431 c -0.63,0.51 -1.025,0.528 -2.031,0.09 m 15.039,-0.28 c -0.735,-0.843 -0.893,-1.371 -0.504,-1.694 0.299,-0.247 0.466,-0.24 0.97,0.043 0.475,0.266 0.609,0.515 0.609,1.132 0,0.916 -0.512,1.163 -1.075,0.52 z m 10.01,3.729 c -0.647,-0.646 -0.72,-1.405 -0.206,-2.138 0.757,-1.081 3.772,-0.316 3.772,0.957 0,0.34 -0.275,0.788 -0.706,1.15 -0.933,0.786 -2.093,0.798 -2.86,0.032 z m -5.922,9.466 c -1.083,-0.605 -1.154,-2.606 -0.124,-3.455 1.032,-0.85 2.146,-0.105 2.146,1.434 0,1.304 -1.186,2.49 -2.023,2.022 m 15.051,-2.375 c -0.812,-0.568 -1.06,-1.97 -1.075,-6.08 -0.012,-3.261 0.043,-3.88 0.392,-4.415 0.564,-0.86 1.395,-0.815 2.338,0.128 0.905,0.904 1.246,2.23 1.462,5.678 0.185,2.941 0.027,4.314 -0.543,4.73 -0.57,0.416 -1.952,0.395 -2.574,-0.04 z m 11.756,14.322 c -5.635,-0.489 -7.205,-0.732 -8.327,-1.29 -1.059,-0.524 -1.397,-1.437 -0.845,-2.28 0.424,-0.647 0.79,-0.654 4.01,-0.08 0.847,0.152 1.5,0.148 1.983,-0.01 1.414,-0.463 1.124,-1.73 -0.971,-4.24 -0.838,-1.005 -1.684,-2.159 -1.88,-2.566 -0.987,-2.042 1.5,-3.135 7.797,-3.427 2.674,-0.124 3.301,-0.086 4.19,0.253 1.086,0.415 1.497,0.895 1.497,1.749 0,0.468 -0.069,0.49 -0.975,0.32 -1.72,-0.322 -2.273,-0.221 -2.953,0.54 -1.789,2.003 -1.402,6.356 0.822,9.243 0.545,0.708 1.11,1.508 1.254,1.778 0.31,0.58 0.959,0.58 -5.603,0.01 z m -36.966,8.955 c -1.337,-0.662 -2.602,-1.946 -2.602,-2.643 0,-1.525 2.526,-7.274 3.55,-8.08 0.797,-0.626 1.145,-0.627 2.807,-0.01 1.506,0.559 3.277,2.14 3.277,2.925 0,0.54 -0.582,1.158 -1.83,1.941 -1.168,0.734 -1.75,1.74 -1.914,3.316 -0.178,1.702 -0.504,2.44 -1.224,2.768 -0.763,0.348 -0.965,0.326 -2.064,-0.217 m 19.017,-7.148 c -0.67,-0.323 -0.664,-1.107 0.015,-1.744 0.689,-0.647 1.555,-0.635 2.181,0.032 0.636,0.676 0.633,1.184 -0.01,1.635 -0.584,0.408 -1.436,0.438 -2.186,0.077 m -11.598,10.188 c -0.77,-0.804 -0.777,-1.142 -0.028,-1.427 1.228,-0.467 3.31,-0.119 3.31,0.553 0,0.517 -1.344,1.517 -2.038,1.517 -0.388,0 -0.863,-0.245 -1.244,-0.643 m -4.145,6.795 c -0.649,-0.99 -0.867,-1.896 -0.615,-2.558 0.299,-0.785 1.027,-0.8 1.53,-0.034 0.445,0.68 0.324,2.269 -0.213,2.806 -0.3,0.299 -0.382,0.274 -0.702,-0.214 m -32.064,7.832 c -0.528,-0.308 -1.248,-2.237 -0.946,-2.538 0.483,-0.484 2.618,1.946 2.243,2.553 -0.175,0.282 -0.8,0.275 -1.297,-0.015 m 54.156,-3.746 c -2.927,-0.79 -4.898,-2.977 -3.253,-3.61 1.225,-0.472 4.672,0.395 5.953,1.497 0.82,0.706 0.596,1.637 -0.506,2.098 -0.914,0.382 -0.836,0.381 -2.194,0.015 m 20.264,0.266 c -1.32,-0.638 -0.573,-2.121 1.067,-2.121 1.668,0 2.462,1.383 1.175,2.048 -0.777,0.402 -1.51,0.426 -2.243,0.072 z m 16.981,-0.888 c -1.83,-0.906 -3.826,-3.207 -2.765,-3.188 1.015,0.018 3.941,2.106 4.553,3.25 0.185,0.344 0.133,0.415 -0.302,0.415 -0.288,0 -0.957,-0.215 -1.486,-0.477 m -3.376,-18.349 c -0.747,-0.889 -0.745,-1.229 0.012,-1.986 l 0.606,-0.605 0.448,0.553 c 0.348,0.43 0.415,0.753 0.303,1.454 -0.246,1.538 -0.481,1.638 -1.369,0.584 m -11.009,41.922 c -0.38,-0.278 -0.31,-0.427 0.95,-2.007 1.656,-2.079 3.12,-3.427 3.723,-3.427 0.596,0 1.3,0.784 1.47,1.636 0.304,1.516 -1.04,3.13 -3.12,3.749 -1.445,0.428 -2.48,0.445 -3.023,0.048 z m -27.208,14.163 c -0.446,-1.175 -0.103,-2.394 0.674,-2.394 1.037,0 1.327,1.505 0.467,2.42 -0.666,0.71 -0.862,0.706 -1.14,-0.026"
         style="fill:#f9f0eb;fill-opacity:1;fill-rule:evenodd;stroke-width:0.229737;stroke-opacity:0.933955"
         transform="translate(136.641,149.324)"
         id="path21" /><path
         d="m 1294.707,2046.98 c -2.3,-0.656 -3.903,-1.377 -4.782,-2.149 -1.152,-1.011 -0.608,-2.025 1.48,-2.759 2.422,-0.85 4.564,-0.947 5.597,-0.25 0.928,0.625 1.193,1.287 1.193,2.985 0,1.403 -0.027,1.522 -0.432,1.928 -0.567,0.567 -1.63,0.653 -3.056,0.246 m 2.26,-2.378 c 0.336,-0.328 0.016,-0.925 -0.818,-1.53 -1.093,-0.791 -1.766,-0.606 -1.766,0.486 0,0.58 0.39,1.12 0.973,1.346 0.362,0.14 1.346,-0.044 1.61,-0.302 m -45.711,-68.29 c -1.418,-1.194 -0.754,-3.332 0.906,-2.915 0.561,0.14 1.621,1.2 1.762,1.762 0.253,1.008 -0.3,1.57 -1.543,1.57 a 1.63,1.63 0 0 1 -1.125,-0.417 m 4.599,-38.75 c -0.992,-0.497 -3.023,-2.012 -4.221,-3.149 -1.128,-1.069 -1.126,-1.397 0.012,-1.954 2.103,-1.03 4.917,0 6.14,2.25 0.315,0.578 0.45,1.06 0.454,1.637 0.012,1.609 -0.79,2.017 -2.386,1.216 z m 1.083,103.805 c -0.915,-0.993 -0.854,-1.707 0.146,-1.707 0.914,0 1.562,1.475 0.965,2.194 -0.29,0.349 -0.374,0.312 -1.11,-0.487 m 22.461,-5.513 c -0.454,-0.693 -0.337,-1.348 0.368,-2.052 0.499,-0.5 0.75,-0.63 1.216,-0.63 0.572,0 1.236,0.439 1.236,0.816 0,0.434 -0.496,1.267 -1.036,1.741 -0.742,0.651 -1.409,0.698 -1.784,0.125"
         style="fill:#f9f0eb;fill-opacity:1;fill-rule:evenodd;stroke-width:0.162449;stroke-opacity:0.933955"
         transform="translate(136.641,149.324)"
         id="path22" /><path
         d="m 1272.116,2145.478 c -0.255,-0.609 -0.318,-1.239 -0.176,-1.763 0.309,-1.149 1.612,-0.845 1.612,0.376 0,0.627 -0.207,1.068 -0.693,1.477 -0.463,0.39 -0.547,0.38 -0.743,-0.09"
         style="fill:#f9f0eb;fill-opacity:1;fill-rule:evenodd;stroke-width:0.114869;stroke-opacity:0.933955"
         transform="translate(136.641,149.324)"
         id="path23" /><path
         d="m 1229.84,1903.36 c -0.752,-0.383 -1.01,-1.403 -0.477,-1.886 0.177,-0.16 0.563,-0.138 0.913,0.052 0.666,0.362 1.386,1.092 1.386,1.404 0,0.299 -0.421,0.514 -1.088,0.556 -0.385,0.024 -0.464,0.01 -0.734,-0.127 z m 0.948,-0.3 c 0.148,-0.194 0.046,-0.486 -0.282,-0.8 -0.207,-0.198 -0.636,-0.415 -0.824,-0.417 -0.2,0 -0.37,0.16 -0.37,0.353 0,0.608 1.155,1.284 1.476,0.864"
         style="fill:#f9f0eb;fill-opacity:1;fill-rule:evenodd;stroke-width:0.0574343;stroke-opacity:0.933955"
         transform="translate(136.641,149.324)"
         id="path24" /><path
         d="m 1353.372,2320.592 c -0.236,-0.284 -0.278,-1.228 -0.072,-1.625 0.182,-0.351 0.79,-0.722 1.185,-0.722 0.322,0 0.725,0.325 0.725,0.585 0,0.34 -0.305,0.868 -0.827,1.435 -0.487,0.528 -0.769,0.62 -1.011,0.327 m -38.152,-65.244 c -0.706,-0.318 -0.991,-1.493 -0.448,-1.848 0.245,-0.161 0.32,-0.163 0.678,-0.013 0.438,0.183 1.569,1.21 1.569,1.426 0,0.409 -1.207,0.7 -1.799,0.434 z"
         style="fill:#f9f0eb;fill-opacity:1;fill-rule:evenodd;stroke-width:0.114869;stroke-opacity:0.933955"
         transform="translate(136.641,149.324)"
         id="path25" /><path
         d="m 891.38,532.432 c -0.108,-0.07 -0.323,-0.415 -0.477,-0.768 -0.223,-0.511 -0.295,-1.267 -0.348,-3.682 -0.076,-3.401 0.144,-5.883 0.64,-7.207 0.804,-2.15 1.924,-1.547 5.18,2.792 l 2.127,2.834 -1.464,1.58 c -3.56,3.843 -4.925,4.916 -5.658,4.45"
         style="fill:#f6efe8;fill-opacity:1;fill-rule:evenodd;stroke-width:0.162449;stroke-opacity:0.933955"
         transform="translate(136.641,149.324)"
         id="path26" /><path
         fill="none"
         d="m 926.126,941.361 c -34.29,-51.72 -61.558,-107.328 -84.399,-172.12 -20.133,-57.11 -37.066,-129.68 -40.628,-174.12 -1.252,-15.615 -0.6,-63.997 1.168,-86.735 2.128,-27.37 9.513,-62.06 18.592,-87.34 5.693,-15.85 17.594,-40.466 24.865,-51.43 14.772,-22.275 31.743,-33.491 53.68,-35.48 25.192,-2.282 62.118,12.29 88.628,34.975 9.103,7.79 38.5,36.454 37.949,37.005 -0.215,0.215 -5.422,-2.993 -11.57,-7.129 -40.593,-27.308 -83.128,-37.547 -115.202,-27.731 -31.112,9.52 -51.977,37.043 -62.624,82.606 -11.487,49.16 -12.065,125.3 -1.501,197.902 12.034,82.71 50.02,199.134 93.02,285.098 5.794,11.583 10.327,21.268 10.073,21.521 -0.254,0.253 -5.676,-7.406 -12.051,-17.022"
         style="fill:#000000;fill-opacity:0;fill-rule:evenodd;stroke-width:1.01129;stroke-opacity:0.933955"
         transform="translate(136.641,149.324)"
         id="path27" /><path
         d="m 1268.086,175.284 c -7.474,-5.988 -12.621,-9.386 -19.486,-12.863 -9.795,-4.962 -9.545,-4.226 -3.619,-10.635 2.815,-3.045 8.438,-8.485 12.496,-12.09 l 7.378,-6.553 8.736,-1.976 c 4.804,-1.087 23.136,-5.57 40.738,-9.961 17.601,-4.392 32.147,-7.829 32.323,-7.637 0.475,0.516 -6.195,32.264 -7.234,34.435 -0.673,1.407 -3.442,2.973 -11.379,6.434 -5.769,2.516 -20.053,9.184 -31.743,14.816 -11.69,5.632 -21.639,10.24 -22.11,10.237 -0.47,-0.002 -3.215,-1.895 -6.1,-4.207"
         style="fill:#e6e6e7;fill-opacity:1;fill-rule:evenodd;stroke-width:0.75064;stroke-opacity:0.933955"
         transform="translate(136.641,149.324)"
         id="path28" /><path
         d="M 957.292,970.865 C 912.094,890.679 871.903,783.22 853.262,692.719 842.031,638.186 837.848,599.705 837.848,550.904 c 0,-85.298 14.245,-137.707 43.297,-159.298 6.184,-4.596 7.082,-4.915 7.89,-2.812 0.295,0.772 0.184,14.11 -0.248,29.64 -0.772,27.78 -0.83,28.326 -3.604,33.672 -4.213,8.12 -3.363,12.218 1.602,7.725 1.815,-1.643 1.938,-1.622 1.938,0.337 0,3.094 -3.073,12.884 -4.277,13.629 -0.574,0.354 -6.297,-2.964 -12.718,-7.374 -6.421,-4.41 -12.38,-8.018 -13.239,-8.018 -2.244,0 -1.931,2.143 0.93,6.378 1.371,2.03 7.322,11.913 13.225,21.961 l 10.732,18.27 -1.078,10.877 c -1.657,16.729 -1.353,51.198 0.599,68.008 5.215,44.907 17.68,80.629 42.88,122.898 7.076,11.867 12.733,20.371 26.192,39.37 l 2.252,3.18 -1.976,15.368 c -1.087,8.453 -1.992,17.606 -2.012,20.34 -0.02,2.735 -0.507,5.263 -1.082,5.619 -2.557,1.58 -17.596,-25.467 -28.58,-51.396 -9.804,-23.149 -14.069,-31.896 -15.335,-31.456 -2.234,0.776 -0.96,13.914 2.846,29.336 7.03,28.488 23.58,77.815 33.963,101.22 5.792,13.056 5.691,12.571 7.63,36.784 2.526,31.53 8.585,74.025 13.907,97.54 2.748,12.143 1.362,11.738 -6.29,-1.837"
         style="fill:#fbf9f5;fill-opacity:1;fill-rule:evenodd;stroke-width:1.06157;stroke-opacity:0.933955"
         transform="translate(136.641,149.324)"
         id="path29" /><path
         d="m 1352.424,804.387 c -0.013,-1.942 0.978,-14.42 2.203,-27.73 10.196,-110.769 13.108,-171.472 11.313,-235.835 l -0.865,-31.017 2.024,-3.084 c 1.113,-1.696 4.606,-6.12 7.761,-9.83 6.364,-7.48 9.767,-11.879 9.767,-12.623 0,-1.279 -3.13,-0.122 -10.925,4.036 l -8.487,4.527 -0.757,-2.841 c -0.416,-1.563 -1.625,-12.284 -2.687,-23.826 -7.319,-79.547 -20.08,-145.018 -38.247,-196.231 -8.517,-24.01 -24.254,-55.752 -35.917,-72.45 -2.16,-3.092 -4.496,-6.723 -5.192,-8.07 l -1.266,-2.45 16.327,-7.927 c 18.594,-9.03 34.997,-16.45 38.056,-17.218 l 2.081,-0.523 -0.509,3.393 c -0.389,2.594 -0.23,3.67 0.673,4.574 1.33,1.33 5.802,2.371 7.458,1.736 0.6,-0.23 3.385,-4.325 6.189,-9.098 l 5.098,-8.68 4.497,0.21 4.497,0.21 4.308,7.12 c 5.927,9.796 24.196,46.397 33.059,66.234 9.413,21.07 23.155,53.731 43.553,103.518 56.15,137.047 70.682,170.519 83.15,191.516 2.3,3.876 4.183,7.367 4.183,7.757 0,2.87 -41.04,72.14 -42.105,71.068 -0.293,-0.295 -1.575,-5.257 -2.85,-11.028 -8.864,-40.118 -34.172,-119.724 -40.169,-126.35 -0.713,-0.788 -1.798,-1.433 -2.412,-1.433 -1.735,0 -0.85,6.44 4.649,33.817 10.504,52.3 15.818,90.997 17.668,128.656 l 0.748,15.203 -9.478,14.775 c -31.426,48.988 -63.263,95.026 -93.134,134.674 -6.827,9.061 -12.823,16.987 -13.325,17.613 -0.75,0.935 -0.918,0.508 -0.937,-2.393"
         style="fill:#faf9f5;fill-opacity:1;fill-rule:evenodd;stroke-width:0.75064;stroke-opacity:0.933955"
         transform="translate(136.641,149.324)"
         id="path30" /><path
         d="m 1366.84,917.253 c -0.01,-0.46 0.32,-2.904 0.727,-5.433 2.885,-17.943 6.344,-57.006 8.436,-95.284 0.112,-2.06 0.378,-8.457 0.59,-14.213 l 0.385,-10.466 14.163,-19.887 c 21.484,-30.167 29.878,-42.246 46.507,-66.916 9.652,-14.32 15.07,-22.216 15.801,-23.03 0.183,-0.204 0.238,0.364 0.127,1.311 -9.522,81.523 -37.015,160.634 -76.62,220.474 -2.713,4.1 -5.892,8.736 -7.063,10.302 -3.205,4.283 -3.04,4.114 -3.054,3.142"
         style="fill:#fffdf8;fill-opacity:1;fill-rule:evenodd;stroke-width:0.37532;stroke-opacity:0.933955"
         transform="translate(136.641,149.324)"
         id="path31" /><path
         d="m 1085.504,1302.35 122.763,-121.052 -3.906,-31.731 43.64,-30.673 7.815,30.23 89.997,-29.006 25.598,32.876 -99.678,47.921 59.098,199.377 -65.819,-15.535 -28.67,-89.83 -12.676,-59.64 -87.373,79.336 z"
         aria-label="x"
         style="font-style:italic;font-size:422.156px;font-family:Arial;-inkscape-font-specification:'Arial Italic';fill-rule:evenodd;stroke-width:14.5131"
         id="path32" /><path
         d="m 1023.292,972.63615 c -1.438,-4.238 -2.894,-77.205 -2.522,-126.431 l 0.241,-31.909 -17.123,2.124 -0.026,-2.34 17.142,-2.448 8.994,-42.674 c 0,0 -0.493,1.603 2.742,1.619 3.964,0.019 3.603,5.003 1.785,6.53 -2.98,10.275 -6.977,23.45 -7.13,34.335 l 18.264,2.128 0.054,2.278 -18.159,-1.565 c 0,0 0.985,130.818 0.152,144.604 -0.374,6.198 -1.242,12.507 -1.952,14.195 l -1.279,3.04 z"
         style="fill:#000000;stroke-width:0.665113"
         id="path33" /></g></g></svg>
