<svg xmlns="http://www.w3.org/2000/svg" xml:space="preserve" width="1000" height="500" viewBox="0 0 1000 500"><path d="M136.65 54.738c-37.564.627-41.914.63-52.205 4.575-22.024 8.44-29.463 23.063-31.088 33.306 0 0-3.45 3.66-5.304 5.682-6.575 7.166-9.087 12.37-10.346 21.427-10.434 76.67-18.179 154.245-13.867 231.666C27.015 374.9 34.577 397.4 45.688 416.4c15.951 27.273 40.922 28.154 42.422 28.182 137.236 1.313 274.563.775 411.89.177 137.329.598 274.654 1.136 411.89-.177 1.5-.028 26.47-.909 42.422-28.182 11.111-19 18.673-41.5 21.848-65.006 4.312-77.42-3.433-154.996-13.867-231.666-1.259-9.056-3.771-14.26-10.346-21.427-1.854-2.021-5.304-5.682-5.304-5.682-1.625-10.243-9.064-24.865-31.088-33.306-10.291-3.944-14.64-3.948-52.205-4.575-23.99-.4-36.54.173-43.162.913-1.423.159-3.689.83-4.528 1.954-1.815 2.433-3.507 6.731-3.591 6.756H435.305l-2.63-2.462a2.17 2.17 0 0 0-1.482-.585h-27.04c-.318 0-.624.12-.859.334l-1.404 1.29h-15.158l-1.404-1.29a1.27 1.27 0 0 0-.86-.334h-27.037a2.17 2.17 0 0 0-1.484.585l-2.63 2.462H187.931c-.084-.025-1.776-4.323-3.591-6.756-.84-1.123-3.105-1.795-4.528-1.954-6.622-.74-19.172-1.313-43.162-.913" style="display:inline;fill:#dfdfe7;fill-opacity:1;stroke-width:.721995"/><path d="M836.164 195.587c-16.787 0-30.422 13.635-30.422 30.421s13.637 30.422 30.422 30.422c16.786 0 30.421-13.636 30.421-30.422s-13.635-30.421-30.42-30.421" style="baseline-shift:baseline;display:inline;overflow:visible;vector-effect:none;fill:#000;stroke-width:.945885;stop-color:#000"/><path d="M167.94 187.39c-23.298 0-42.223 18.925-42.223 42.222s18.927 42.224 42.224 42.224c23.298 0 42.222-18.926 42.222-42.224 0-23.299-18.924-42.222-42.222-42.222" style="baseline-shift:baseline;display:inline;overflow:visible;vector-effect:none;fill:#000;stroke-width:1.31281;stop-color:#000"/><path d="M900.746 94.18c-10.156 0-18.416 8.259-18.416 18.416s8.26 18.414 18.414 18.414c10.158 0 18.414-8.258 18.414-18.414 0-10.158-8.256-18.416-18.414-18.416m-.087 68.268c-10.156 0-18.416 8.258-18.416 18.416 0 10.156 8.26 18.413 18.414 18.413 10.158 0 18.414-8.257 18.414-18.414 0-10.156-8.256-18.415-18.414-18.415m52.593-15.673c0-10.155-8.259-18.416-18.417-18.416-10.156 0-18.413 8.26-18.413 18.414 0 10.158 8.257 18.414 18.414 18.414s18.416-8.256 18.416-18.414m-68.267-.087c0-10.156-8.26-18.416-18.417-18.416-10.156 0-18.414 8.26-18.414 18.414 0 10.158 8.258 18.414 18.414 18.414 10.158 0 18.417-8.256 18.417-18.414" style="baseline-shift:baseline;display:inline;overflow:visible;vector-effect:none;fill:#000;fill-opacity:1;stroke-width:.788873;stop-color:#000"/><path d="M95.296 127.362c-16.787 0-30.422 13.636-30.422 30.421 0 16.786 13.637 30.422 30.422 30.422 16.786 0 30.421-13.636 30.421-30.422s-13.635-30.42-30.42-30.42" style="baseline-shift:baseline;display:inline;overflow:visible;vector-effect:none;fill:#000;stroke-width:.945885;stop-color:#000"/><path d="M218.486 70.306a3.94 3.94 0 0 0-3.946 3.949v360.227a3.94 3.94 0 0 0 3.946 3.949h563.028a3.94 3.94 0 0 0 3.946-3.949V74.255a3.94 3.94 0 0 0-3.946-3.949H500z" style="display:inline;fill:#000;fill-opacity:1;stroke-width:3.37907;stroke-linecap:round"/></svg>