<svg xmlns="http://www.w3.org/2000/svg" xmlns:xlink="http://www.w3.org/1999/xlink" width="2000" height="3600"><defs><linearGradient id="a"><stop offset="0" style="stop-color:#27d183;stop-opacity:1"/><stop offset="1" style="stop-color:#25c77d;stop-opacity:1"/></linearGradient><linearGradient xlink:href="#a" id="b" x1="256.831" x2="227.033" y1="409.438" y2="580.43" gradientUnits="userSpaceOnUse"/><linearGradient xlink:href="#a" id="c" x1="256.831" x2="227.033" y1="409.438" y2="580.43" gradientUnits="userSpaceOnUse"/><linearGradient xlink:href="#a" id="d" x1="256.831" x2="227.033" y1="409.438" y2="580.43" gradientUnits="userSpaceOnUse"/></defs><path d="M546.23 338.642c-1.89 14.114-33.647 24.674-57.457 14.229-15.682-6.88-43.325-46.693-43.325-46.693l72.275-.316c.016 0 30.667 16.666 28.508 32.78" style="opacity:1;fill:#ffe65a;fill-opacity:1;fill-rule:evenodd;stroke-width:1.13715;stroke-linecap:round;stroke-linejoin:round;stroke-miterlimit:7;paint-order:stroke markers fill" transform="translate(111.506 896.359)scale(2.51568)"/><path d="M537.5 250.108c6.319-3.348 43.469-30.06 49.818-39.503 17.002-32.927-41.45-32.28-59.764-34.224-28.219-2.79-62.35-4.16-92.116.96-10.519 12.066-28.929 57.477-26.318 66.718s17.492 9.778 41.696 6.448c29.547-2.84 58.916-7.62 86.684-.4" style="opacity:1;fill:#ffe65a;fill-opacity:1;fill-rule:evenodd;stroke-width:1.13386;stroke-linecap:round;stroke-linejoin:round;stroke-miterlimit:7;paint-order:stroke markers fill" transform="translate(111.506 896.359)scale(2.51568)"/><path d="M86.12 165.378c-11.01-9.126-38.542-36.714-17.611-51.289 6.835-4.422 118.933-9.325 151.566 48.725 7.844 13.953 13.652 33.488 9.215 42.005s-19.115 6.016-42.136-2.169c-23.02-8.184-54.38-22.05-72.608-29.21-18.23-7.159-23.328-7.61-28.426-8.062" style="fill:#ffe65a;fill-opacity:1;fill-rule:evenodd;stroke-width:1.13386;stroke-linecap:round;stroke-linejoin:round;stroke-miterlimit:7;paint-order:stroke markers fill" transform="translate(111.506 896.359)scale(2.51568)"/><path d="M61.962 251.665c.034 4.303 8.835 17.06 35.057 18.654 5.273.32 12.037-.282 18.79-2.922 15.948-6.236 47.864-24.254 38.633-34.061-5.254-5.582-34.424-9.836-42.58-10.761-16.346-1.855-50.063 8.268-49.9 29.09" style="opacity:1;fill:#ffe65a;fill-opacity:1;fill-rule:evenodd;stroke-width:1.13715;stroke-linecap:round;stroke-linejoin:round;stroke-miterlimit:7;paint-order:stroke markers fill" transform="translate(111.506 896.359)scale(2.51568)"/><path d="M608.151 285.475c-44.952 20.017-91.108 24.036-139.932 25.263 2.401-29.531-53.562-86.817-53.562-86.817 33.684-15.392 78.164 7.596 110.476 17.962 46.942 14.61 92.325 30.626 83.018 43.592" style="opacity:1;fill:#ffc631;fill-opacity:1;fill-rule:evenodd;stroke-width:1.13386;stroke-linecap:round;stroke-linejoin:round;stroke-miterlimit:7;paint-order:stroke markers fill" transform="translate(111.506 896.359)scale(2.51568)"/><path d="M198.827 184.88c-42.579-14.751-101.101-22.445-145.467-22.72-5.28.48-8.48 2.08-9.6 5.333s-.16 8.16 4.427 15.094c21.473 32.459 80.716 61.408 106.264 50.749 12.69-5.778 32.64-19.557 42.88-28.286 10.242-8.73 10.776-12.41 9.816-14.757s-3.414-3.36-8.32-5.413" style="fill:#ffc631;fill-opacity:1;fill-rule:evenodd;stroke-width:1.13386;stroke-linecap:round;stroke-linejoin:round;stroke-miterlimit:7;paint-order:stroke markers fill" transform="translate(111.506 896.359)scale(2.51568)"/><path d="M227.033 580.43c-78.936-13.838-154.98-57.158-164.045-150.312-11.888-128.081 82.768-201.024 114.82-220.142 4.626-2.76 8.583-6.102 11.107-9.381 64.211-83.442 237.307-44.261 255.459 28.905 6.84 27.572-4.3 25.504 1.246 31.633 68.37 85.623 111.373 311.932-156.396 322.943-17.231.709-45.208-.668-62.19-3.645" style="fill:url(#b);fill-opacity:1" transform="translate(111.506 896.359)scale(2.51568)"/><path d="M343.5 274.906c-5.665 6.817-10.04 18.223-7.834 20.428 1.473 1.473 3.7.433 9.605-4.48 21.214-17.655 41.202-4.432 44.608.619 3.446 5.108 9.065 4.743 12.89-.84 10.55-15.396-30.393-50.473-59.269-15.727" style="fill:#252f3a;fill-opacity:1" transform="translate(111.506 896.359)scale(2.51568)"/><path d="M193.385 272.365c.938 6.586-.756 15.596-3.033 16.137-1.521.362-2.536-1.18-4.375-6.643-6.61-19.632-24.587-19.048-28.751-17.16-4.213 1.908-7.66-.537-7.908-5.611-.682-13.991 39.288-20.294 44.067 13.277" style="fill:#252f3a;fill-opacity:1;stroke-width:.750537" transform="translate(111.506 896.359)scale(2.51568)"/><path d="M213.951 181.184s-18.241-21.986-19.355-46.044c-.57-12.303.02-32.127 20.281-50.675 19.731-18.064 77.186-45.818 95.33-40.471 12.271 3.616 39.317 21.604 68.407 45.003 26.836 20.788 55.055 44.822 57.447 81.033.189 6.562-1.992 12.854-2.972 17.153-.98 4.3-1.961 7.165-4.677 10.446s-7.165 6.977-14.066 6.223-16.254-5.959-32.395-12.785-39.07-15.273-62.83-18.894c-23.758-3.62-48.346-2.413-67.005 1.243-14.859.186-38.165 7.768-38.165 7.768" style="opacity:1;fill:#ffc631;fill-opacity:1;fill-rule:evenodd;stroke-width:1.13386;stroke-linecap:round;stroke-linejoin:round;stroke-miterlimit:7;paint-order:stroke markers fill" transform="translate(111.506 896.359)scale(2.51568)"/><path d="M293.176 153.78c-40.79 1.477-80.183 15.523-104.262 46.814a27 27 0 0 1-1.76 2.056c15.557-7.832 164.562-72.667 251.846 49.295.825 1.266 4.72 6.903 5.51 7.723l.01.01c-2.622-4.54 6.091-5.035-.147-30.178-11.345-45.729-83.213-78.183-151.197-75.72" style="fill:#13a962;fill-opacity:1" transform="translate(111.506 896.359)scale(2.51568)"/><path d="M208.01 289.154c2.14 15.643 17.339 23.946 31.105 27.864 28.411 7.674 66.885-9.982 66.885-23.891-1.506-8.288-13.06-11.406-15.95-4.877-10.41 23.525-59.4 30.677-68.523-4.74-2.58-10.014-13.545-1.121-13.517 5.644" style="fill:#252f3a;fill-opacity:1" transform="translate(111.506 896.359)scale(2.51568)"/><path d="M374.691 206.993c-13.178-1.755-19.497 23.239 1.709 34.423 15.452 8.15 30.237-4.034 22.687-19.031-4.673-9.284-19.097-14.686-24.396-15.392" style="opacity:1;fill:#fdffff;fill-opacity:1" transform="translate(111.506 896.359)scale(2.51568)"/><path d="M176.31 294.716c-15.003-.907-51.328 16.991-64.336 28.9C97.726 336.659 97.31 350.6 97.71 359.252q.022.465.055.929c-8.192-5.388-17.758-9.213-27.521-11.88-6.905 24.185-10.076 51.451-7.258 81.817 9.066 93.154 85.11 136.474 164.046 150.312 16.983 2.978 44.96 4.355 62.19 3.646a445 445 0 0 0 18.266-1.12c5.133-22.997 3.44-47.587-2.34-70.349 16.676 6.94 38.528-.431 39.843-10.246 1.223-9.126-12.52-18.503-17.921-21.809 21.004-2.245 41.405-6.647 61.465-15.58 5.75-8.01-18.186-17.677-46.47-26.874 8.42-5.595 28.01-20.11 31.82-25.777 11.956-23.155-29.15-22.7-42.029-24.067-19.844-1.962-43.845-2.926-64.778.675.296-1.64.489-3.378.438-5.142-1.682-25.464-21.526-42.365-40.398-56.985-20.457-16.454-39.477-29.104-48.106-31.647-.798-.235-1.703-.379-2.703-.439m96.843 151.331a184 184 0 0 1 4.356 6.093 125 125 0 0 0-3.27-4.286c-.498-.551-.805-1.008-.97-1.427h-.002a2.5 2.5 0 0 1-.114-.38" style="fill:#23bd76;fill-opacity:1" transform="translate(111.506 896.359)scale(2.51568)"/><path d="M469.622 299.361c-10.821 5.375-20.951 11.7-26.605 16.877-14.025 12.84-14.435 26.562-14.04 35.079q.021.458.054.915c-31.454-20.685-83.489-17.976-87.336-15.487-13.548 9.434 2.233 26.742 10.572 34.116-7.336-.517-14.426-.798-21.059-.839-3.655.332-5.87 1.44-6.645 3.691-.776 2.253-.11 5.65 3.064 10.449 1.088 1.644 2.355 3.268 3.703 4.876-.016 0-.035-.005-.05-.006.167.2.39.387.562.587 1.189 1.383 2.535 2.714 3.887 4.056a84 84 0 0 0 4.861 4.44c1.02.865 2.007 1.72 3.08 2.555 1.934 1.506 3.953 2.916 6.023 4.304.976.654 1.898 1.338 2.896 1.962 3.094 1.937 6.262 3.752 9.481 5.355l.042.024c-4.299.742-8.894 2.147-12.954 4.192-6.768 3.409-12.05 8.599-11.996 15.474.004.495.176 1.15.542 1.906 1.838 3.792 8.588 10.086 23.726 11.006a31.4 31.4 0 0 0 10.245-1.098 173 173 0 0 0-5.93 7.888c-4.172 5.895-8.056 12.398-11.628 19.3-.427.825-.892 1.579-1.307 2.417-.16.322-.346.608-.504.933.032-.01.064-.026.097-.035-10.782 22.126-17.507 49.144-14.53 81.215.797 8.2 2.345 15.84 4.55 22.954 180.038-32.265 173.32-186.564 127.2-279.105z" style="fill:#23bd76;fill-opacity:1" transform="translate(111.506 896.359)scale(2.51568)"/><path d="M506.347 287.79c-8.742-.53-24.837 5.428-39.173 12.81.905 3.62 1.297 7.032 1.045 10.137 23.86-.6 47.082-1.865 69.838-5.34-12.597-9.067-23.226-15.459-29.05-17.175-.785-.231-1.675-.373-2.66-.433" style="opacity:1;fill:#ffb902;fill-opacity:1;fill-rule:evenodd;stroke-width:1.13386;stroke-linecap:round;stroke-linejoin:round;stroke-miterlimit:7;paint-order:stroke markers fill" transform="translate(111.506 896.359)scale(2.51568)"/><path d="M546.23 338.642c-1.89 14.114-33.647 24.674-57.457 14.229-15.682-6.88-43.325-46.693-43.325-46.693l72.275-.316c.016 0 30.667 16.666 28.508 32.78" style="opacity:1;fill:#ffe65a;fill-opacity:1;fill-rule:evenodd;stroke-width:1.13715;stroke-linecap:round;stroke-linejoin:round;stroke-miterlimit:7;paint-order:stroke markers fill" transform="translate(878.714 1544.82)scale(1.74145)"/><path d="M537.5 250.108c6.319-3.348 43.469-30.06 49.818-39.503 17.002-32.927-41.45-32.28-59.764-34.224-28.219-2.79-62.35-4.16-92.116.96-10.519 12.066-28.929 57.477-26.318 66.718s17.492 9.778 41.696 6.448c29.547-2.84 58.916-7.62 86.684-.4" style="opacity:1;fill:#ffe65a;fill-opacity:1;fill-rule:evenodd;stroke-width:1.13386;stroke-linecap:round;stroke-linejoin:round;stroke-miterlimit:7;paint-order:stroke markers fill" transform="translate(878.714 1544.82)scale(1.74145)"/><path d="M86.12 165.378c-11.01-9.126-38.542-36.714-17.611-51.289 6.835-4.422 118.933-9.325 151.566 48.725 7.844 13.953 13.652 33.488 9.215 42.005s-19.115 6.016-42.136-2.169c-23.02-8.184-54.38-22.05-72.608-29.21-18.23-7.159-23.328-7.61-28.426-8.062" style="fill:#ffe65a;fill-opacity:1;fill-rule:evenodd;stroke-width:1.13386;stroke-linecap:round;stroke-linejoin:round;stroke-miterlimit:7;paint-order:stroke markers fill" transform="translate(878.714 1544.82)scale(1.74145)"/><path d="M61.962 251.665c.034 4.303 8.835 17.06 35.057 18.654 5.273.32 12.037-.282 18.79-2.922 15.948-6.236 47.864-24.254 38.633-34.061-5.254-5.582-34.424-9.836-42.58-10.761-16.346-1.855-50.063 8.268-49.9 29.09" style="opacity:1;fill:#ffe65a;fill-opacity:1;fill-rule:evenodd;stroke-width:1.13715;stroke-linecap:round;stroke-linejoin:round;stroke-miterlimit:7;paint-order:stroke markers fill" transform="translate(878.714 1544.82)scale(1.74145)"/><path d="M608.151 285.475c-44.952 20.017-91.108 24.036-139.932 25.263 2.401-29.531-53.562-86.817-53.562-86.817 33.684-15.392 78.164 7.596 110.476 17.962 46.942 14.61 92.325 30.626 83.018 43.592" style="opacity:1;fill:#ffc631;fill-opacity:1;fill-rule:evenodd;stroke-width:1.13386;stroke-linecap:round;stroke-linejoin:round;stroke-miterlimit:7;paint-order:stroke markers fill" transform="translate(878.714 1544.82)scale(1.74145)"/><path d="M198.827 184.88c-42.579-14.751-101.101-22.445-145.467-22.72-5.28.48-8.48 2.08-9.6 5.333s-.16 8.16 4.427 15.094c21.473 32.459 80.716 61.408 106.264 50.749 12.69-5.778 32.64-19.557 42.88-28.286 10.242-8.73 10.776-12.41 9.816-14.757s-3.414-3.36-8.32-5.413" style="fill:#ffc631;fill-opacity:1;fill-rule:evenodd;stroke-width:1.13386;stroke-linecap:round;stroke-linejoin:round;stroke-miterlimit:7;paint-order:stroke markers fill" transform="translate(878.714 1544.82)scale(1.74145)"/><path d="M227.033 580.43c-78.936-13.838-154.98-57.158-164.045-150.312-11.888-128.081 82.768-201.024 114.82-220.142 4.626-2.76 8.583-6.102 11.107-9.381 64.211-83.442 237.307-44.261 255.459 28.905 6.84 27.572-4.3 25.504 1.246 31.633 68.37 85.623 111.373 311.932-156.396 322.943-17.231.709-45.208-.668-62.19-3.645" style="fill:url(#c);fill-opacity:1" transform="translate(878.714 1544.82)scale(1.74145)"/><path d="M193.385 272.365c.938 6.586-.756 15.596-3.033 16.137-1.521.362-2.536-1.18-4.375-6.643-6.61-19.632-24.587-19.048-28.751-17.16-4.213 1.908-7.66-.537-7.908-5.611-.682-13.991 39.288-20.294 44.067 13.277" style="fill:#252f3a;fill-opacity:1;stroke-width:.750537" transform="translate(878.714 1544.82)scale(1.74145)"/><path d="M213.951 181.184s-18.241-21.986-19.355-46.044c-.57-12.303.02-32.127 20.281-50.675 19.731-18.064 77.186-45.818 95.33-40.471 12.271 3.616 39.317 21.604 68.407 45.003 26.836 20.788 55.055 44.822 57.447 81.033.189 6.562-1.992 12.854-2.972 17.153-.98 4.3-1.961 7.165-4.677 10.446s-7.165 6.977-14.066 6.223-16.254-5.959-32.395-12.785-39.07-15.273-62.83-18.894c-23.758-3.62-48.346-2.413-67.005 1.243-14.859.186-38.165 7.768-38.165 7.768" style="opacity:1;fill:#ffc631;fill-opacity:1;fill-rule:evenodd;stroke-width:1.13386;stroke-linecap:round;stroke-linejoin:round;stroke-miterlimit:7;paint-order:stroke markers fill" transform="translate(878.714 1544.82)scale(1.74145)"/><path d="M293.176 153.78c-40.79 1.477-80.183 15.523-104.262 46.814a27 27 0 0 1-1.76 2.056c15.557-7.832 164.562-72.667 251.846 49.295.825 1.266 4.72 6.903 5.51 7.723l.01.01c-2.622-4.54 6.091-5.035-.147-30.178-11.345-45.729-83.213-78.183-151.197-75.72" style="fill:#13a962;fill-opacity:1" transform="translate(878.714 1544.82)scale(1.74145)"/><path d="M208.01 289.154c2.14 15.643 17.339 23.946 31.105 27.864 28.411 7.674 66.885-9.982 66.885-23.891-1.506-8.288-13.06-11.406-15.95-4.877-10.41 23.525-59.4 30.677-68.523-4.74-2.58-10.014-13.545-1.121-13.517 5.644" style="fill:#252f3a;fill-opacity:1" transform="translate(878.714 1544.82)scale(1.74145)"/><path d="M374.691 206.993c-13.178-1.755-19.497 23.239 1.709 34.423 15.452 8.15 30.237-4.034 22.687-19.031-4.673-9.284-19.097-14.686-24.396-15.392" style="opacity:1;fill:#fdffff;fill-opacity:1" transform="translate(878.714 1544.82)scale(1.74145)"/><path d="M53.463 189.622c11.225 13.398 28.246 25.703 45.695 34.202q.215-.288.396-.558c13.912-26.944-21.906-31.758-46.09-33.644" style="fill:#ffb902;fill-opacity:1;fill-rule:evenodd;stroke-width:1.13386;stroke-linecap:round;stroke-linejoin:round;stroke-miterlimit:7;paint-order:stroke markers fill" transform="translate(878.714 1544.82)scale(1.74145)"/><path d="M99.569 223.005c-16.862 2.505-37.736 12.266-37.607 28.66.005.715.252 1.662.781 2.753 13.597-9.764 32.079-24.145 36.415-30.594q.213-.413.41-.82" style="opacity:1;fill:#ffdf2a;fill-opacity:1;fill-rule:evenodd;stroke-width:1.13715;stroke-linecap:round;stroke-linejoin:round;stroke-miterlimit:7;paint-order:stroke markers fill" transform="translate(878.714 1544.82)scale(1.74145)"/><path d="M103.25 280.127c-7.018 9.92-13.626 20.825-19.412 32.72 12.265-3.352 24.417-7.59 36.484-12.964 4.36-6.074-3.095-12.808-17.071-19.756" style="fill:#23bd76;fill-opacity:1" transform="translate(878.714 1544.82)scale(1.74145)"/><path d="M1694.995 2168.262a30.983 55.831 0 0 1-30.983 55.831 30.983 55.831 0 0 1-30.983-55.83 30.983 55.831 0 0 1 30.983-55.832 30.983 55.831 0 0 1 30.983 55.831" style="opacity:1;vector-effect:none;fill:#252f3a;fill-rule:evenodd;stroke-width:22.4209;stop-color:#000;stop-opacity:1" transform="translate(64.256 122.901)scale(.86825)"/><path d="M546.23 338.642c-1.89 14.114-33.647 24.674-57.457 14.229-15.682-6.88-43.325-46.693-43.325-46.693l72.275-.316c.016 0 30.667 16.666 28.508 32.78" style="opacity:1;fill:#ffed86;fill-opacity:1;fill-rule:evenodd;stroke-width:1.13715;stroke-linecap:round;stroke-linejoin:round;stroke-miterlimit:7;paint-order:stroke markers fill" transform="translate(-16.57 1561.045)scale(1.7691)"/><path d="M537.5 250.108c6.319-3.348 43.469-30.06 49.818-39.503 17.002-32.927-41.45-32.28-59.764-34.224-28.219-2.79-62.35-4.16-92.116.96-10.519 12.066-28.929 57.477-26.318 66.718s17.492 9.778 41.696 6.448c29.547-2.84 58.916-7.62 86.684-.4" style="opacity:1;fill:#ffed86;fill-opacity:1;fill-rule:evenodd;stroke-width:1.13386;stroke-linecap:round;stroke-linejoin:round;stroke-miterlimit:7;paint-order:stroke markers fill" transform="translate(-16.57 1561.045)scale(1.7691)"/><path d="M86.12 165.378c-11.01-9.126-38.542-36.714-17.611-51.289 6.835-4.422 118.933-9.325 151.566 48.725 7.844 13.953 13.652 33.488 9.215 42.005s-19.115 6.016-42.136-2.169c-23.02-8.184-54.38-22.05-72.608-29.21-18.23-7.159-23.328-7.61-28.426-8.062" style="fill:#ffed86;fill-opacity:1;fill-rule:evenodd;stroke-width:1.13386;stroke-linecap:round;stroke-linejoin:round;stroke-miterlimit:7;paint-order:stroke markers fill" transform="translate(-16.57 1561.045)scale(1.7691)"/><path d="M61.962 251.665c.034 4.303 8.835 17.06 35.057 18.654 5.273.32 12.037-.282 18.79-2.922 15.948-6.236 47.864-24.254 38.633-34.061-5.254-5.582-34.424-9.836-42.58-10.761-16.346-1.855-50.063 8.268-49.9 29.09" style="opacity:1;fill:#ffed86;fill-opacity:1;fill-rule:evenodd;stroke-width:1.13715;stroke-linecap:round;stroke-linejoin:round;stroke-miterlimit:7;paint-order:stroke markers fill" transform="translate(-16.57 1561.045)scale(1.7691)"/><path d="M608.151 285.475c-44.952 20.017-91.108 24.036-139.932 25.263 2.401-29.531-53.562-86.817-53.562-86.817 33.684-15.392 78.164 7.596 110.476 17.962 46.942 14.61 92.325 30.626 83.018 43.592" style="opacity:1;fill:#efad00;fill-opacity:1;fill-rule:evenodd;stroke-width:1.13386;stroke-linecap:round;stroke-linejoin:round;stroke-miterlimit:7;paint-order:stroke markers fill" transform="translate(-16.57 1561.045)scale(1.7691)"/><path d="M198.827 184.88c-42.579-14.751-101.101-22.445-145.467-22.72-5.28.48-8.48 2.08-9.6 5.333s-.16 8.16 4.427 15.094c21.473 32.459 80.716 61.408 106.264 50.749 12.69-5.778 32.64-19.557 42.88-28.286 10.242-8.73 10.776-12.41 9.816-14.757s-3.414-3.36-8.32-5.413" style="fill:#efad00;fill-opacity:1;fill-rule:evenodd;stroke-width:1.13386;stroke-linecap:round;stroke-linejoin:round;stroke-miterlimit:7;paint-order:stroke markers fill" transform="translate(-16.57 1561.045)scale(1.7691)"/><path d="M227.033 580.43c-78.936-13.838-154.98-57.158-164.045-150.312-11.888-128.081 82.768-201.024 114.82-220.142 4.626-2.76 8.583-6.102 11.107-9.381 64.211-83.442 237.307-44.261 255.459 28.905 6.84 27.572-4.3 25.504 1.246 31.633 68.37 85.623 111.373 311.932-156.396 322.943-17.231.709-45.208-.668-62.19-3.645" style="fill:url(#d);fill-opacity:1" transform="translate(-16.57 1561.045)scale(1.7691)"/><path d="M343.5 274.906c-5.665 6.817-10.04 18.223-7.834 20.428 1.473 1.473 3.7.433 9.605-4.48 21.214-17.655 41.202-4.432 44.608.619 3.446 5.108 9.065 4.743 12.89-.84 10.55-15.396-30.393-50.473-59.269-15.727" style="fill:#252f3a;fill-opacity:1" transform="translate(-16.57 1561.045)scale(1.7691)"/><path d="M193.385 272.365c.938 6.586-.756 15.596-3.033 16.137-1.521.362-2.536-1.18-4.375-6.643-6.61-19.632-24.587-19.048-28.751-17.16-4.213 1.908-7.66-.537-7.908-5.611-.682-13.991 39.288-20.294 44.067 13.277" style="fill:#252f3a;fill-opacity:1;stroke-width:.750537" transform="translate(-16.57 1561.045)scale(1.7691)"/><path d="M213.951 181.184s-18.241-21.986-19.355-46.044c-.57-12.303.02-32.127 20.281-50.675 19.731-18.064 77.186-45.818 95.33-40.471 12.271 3.616 39.317 21.604 68.407 45.003 26.836 20.788 55.055 44.822 57.447 81.033.189 6.562-1.992 12.854-2.972 17.153-.98 4.3-1.961 7.165-4.677 10.446s-7.165 6.977-14.066 6.223-16.254-5.959-32.395-12.785-39.07-15.273-62.83-18.894c-23.758-3.62-48.346-2.413-67.005 1.243-14.859.186-38.165 7.768-38.165 7.768" style="opacity:1;fill:#efad00;fill-opacity:1;fill-rule:evenodd;stroke-width:1.13386;stroke-linecap:round;stroke-linejoin:round;stroke-miterlimit:7;paint-order:stroke markers fill" transform="translate(-16.57 1561.045)scale(1.7691)"/><path d="M293.176 153.78c-40.79 1.477-80.183 15.523-104.262 46.814a27 27 0 0 1-1.76 2.056c15.557-7.832 164.562-72.667 251.846 49.295.825 1.266 4.72 6.903 5.51 7.723l.01.01c-2.622-4.54 6.091-5.035-.147-30.178-11.345-45.729-83.213-78.183-151.197-75.72" style="fill:#13a962;fill-opacity:1" transform="translate(-16.57 1561.045)scale(1.7691)"/><path d="M374.691 206.993c-13.178-1.755-19.497 23.239 1.709 34.423 15.452 8.15 30.237-4.034 22.687-19.031-4.673-9.284-19.097-14.686-24.396-15.392" style="opacity:1;fill:#fdffff;fill-opacity:1" transform="translate(-16.57 1561.045)scale(1.7691)"/><path d="M531.367 2274.623c-3.482-1.025-8.967.83-11.412 3.862-2.173 2.692-2.352 3.745-1.587 9.444 2.724 20.298-18.018 45.296-66.553 15.24-11.355-7.03-18.15-7.394-34.684-1.847-42.908 14.393-74.76.61-82.327-12.965-4.608-8.271-4.182-13.345 2.202-26.309 4.708-9.56 4.777-9.824 3.436-13.46-1.442-3.912-4.27-5.827-8.891-6.015-3.946-.158-10.523 6.464-15.336 15.446-6.986 13.038-7.03 26.101-.129 39.17 23.384 44.28 93.706 25.277 108.933 20.548l12.77-4.027 7.769 5.92c42.044 32.04 86.479 13.018 94.217-13.26 1.96-6.656 2.095-9.15.878-16.19-1.427-8.258-5.038-14.306-9.286-15.557" style="fill:#252f3a;fill-opacity:1;stroke-width:1.14607" transform="translate(64.256 122.901)scale(.86825)"/></svg>