<svg xmlns="http://www.w3.org/2000/svg" xml:space="preserve" width="1000" height="500"><path d="M157.775 93.44c-11.448-.554-84.627 24.706-91.807 38.122-.768 1.435-2.91 3.385-4.756 4.332-2.763 1.417-4.156 3.481-7.891 11.665-16.541 36.248-32.726 86.037-42.749 130.2-18.06 79.575-3.74 148.4 16.423 166.618 21.03 18.998 73.72-5.143 93.047-66.877 1.722-5.5 3.976-12.145 3.976-12.145 58.978-24.918 174.09-24.918 233.067 0 0 0 2.254 6.645 3.976 12.145 19.327 61.734 72.018 85.875 93.047 66.877 20.164-18.217 34.483-87.043 16.423-166.617-10.023-44.164-26.207-93.953-42.749-130.2-3.735-8.185-5.128-10.249-7.891-11.666-1.846-.947-3.987-2.897-4.755-4.332-7.18-13.416-80.36-38.676-91.808-38.122-14.951.723-29.12 14.622-82.693 14.622h-.167c-53.573 0-67.742-13.9-82.693-14.622" style="opacity:1;fill:#000;fill-opacity:1" transform="translate(206.546 -81.906)scale(1.21992)"/><g transform="translate(205.663 -81.906)scale(1.21992)"><g transform="translate(6.863)"><circle cx="170.388" cy="283.153" r="42.052" style="font-variation-settings:normal;vector-effect:none;fill:#dfdfe7;fill-opacity:1;fill-rule:evenodd;stroke-width:41.4677;stroke-linecap:butt;stroke-linejoin:miter;stroke-miterlimit:4;stroke-dasharray:none;stroke-dashoffset:0;stroke-opacity:1;-inkscape-stroke:none;stop-color:#000"/><circle cx="304.918" cy="283.153" r="33.957" style="font-variation-settings:normal;vector-effect:none;fill:#dfdfe7;fill-opacity:1;fill-rule:evenodd;stroke-width:33.4852;stroke-linecap:butt;stroke-linejoin:miter;stroke-miterlimit:4;stroke-dasharray:none;stroke-dashoffset:0;stroke-opacity:1;-inkscape-stroke:none;stop-color:#000"/></g><g transform="rotate(46.888)"><circle cx="482.128" cy="-120.521" r="15.483" style="font-variation-settings:normal;vector-effect:none;fill:#dfdfe7;fill-opacity:1;fill-rule:evenodd;stroke-width:40.621;stroke-linecap:butt;stroke-linejoin:miter;stroke-miterlimit:4;stroke-dasharray:none;stroke-dashoffset:0;stroke-opacity:1;-inkscape-stroke:none;stop-color:#000"/><circle cx="479.079" cy="-73.274" r="15.483" style="font-variation-settings:normal;vector-effect:none;fill:#dfdfe7;fill-opacity:1;fill-rule:evenodd;stroke-width:40.621;stroke-linecap:butt;stroke-linejoin:miter;stroke-miterlimit:4;stroke-dasharray:none;stroke-dashoffset:0;stroke-opacity:1;-inkscape-stroke:none;stop-color:#000"/></g><circle cx="105.702" cy="202.369" r="33.957" style="font-variation-settings:normal;vector-effect:none;fill:#dfdfe7;fill-opacity:1;fill-rule:evenodd;stroke-width:33.4852;stroke-linecap:butt;stroke-linejoin:miter;stroke-miterlimit:4;stroke-dasharray:none;stroke-dashoffset:0;stroke-opacity:1;-inkscape-stroke:none;stop-color:#000"/><g transform="translate(-74.684 -263.343)scale(.73136)"><circle cx="573.338" cy="636.779" r="22.338" style="font-variation-settings:normal;vector-effect:none;fill:#dfdfe7;fill-opacity:1;fill-rule:evenodd;stroke-width:44.661;stroke-linecap:butt;stroke-linejoin:miter;stroke-miterlimit:4;stroke-dasharray:none;stroke-dashoffset:0;stroke-opacity:1;-inkscape-stroke:none;stop-color:#000"/><circle cx="-660.219" cy="636.779" r="22.338" style="font-variation-settings:normal;vector-effect:none;fill:#dfdfe7;fill-opacity:1;fill-rule:evenodd;stroke-width:44.661;stroke-linecap:butt;stroke-linejoin:miter;stroke-miterlimit:4;stroke-dasharray:none;stroke-dashoffset:0;stroke-opacity:1;-inkscape-stroke:none;stop-color:#000" transform="scale(-1 1)"/><circle cx="593.338" cy="-616.778" r="22.338" style="font-variation-settings:normal;vector-effect:none;fill:#dfdfe7;fill-opacity:1;fill-rule:evenodd;stroke-width:44.661;stroke-linecap:butt;stroke-linejoin:miter;stroke-miterlimit:4;stroke-dasharray:none;stroke-dashoffset:0;stroke-opacity:1;-inkscape-stroke:none;stop-color:#000" transform="rotate(90)"/><circle cx="-680.219" cy="-616.778" r="22.338" style="font-variation-settings:normal;vector-effect:none;fill:#dfdfe7;fill-opacity:1;fill-rule:evenodd;stroke-width:44.661;stroke-linecap:butt;stroke-linejoin:miter;stroke-miterlimit:4;stroke-dasharray:none;stroke-dashoffset:0;stroke-opacity:1;-inkscape-stroke:none;stop-color:#000" transform="scale(1 -1)rotate(90)"/></g><g transform="scale(-1 1)rotate(47 -240.469 -554.524)"><circle cx="482.128" cy="-120.521" r="15.483" style="font-variation-settings:normal;vector-effect:none;fill:#dfdfe7;fill-opacity:1;fill-rule:evenodd;stroke-width:40.621;stroke-linecap:butt;stroke-linejoin:miter;stroke-miterlimit:4;stroke-dasharray:none;stroke-dashoffset:0;stroke-opacity:1;-inkscape-stroke:none;stop-color:#000"/><circle cx="479.079" cy="-73.274" r="15.483" style="font-variation-settings:normal;vector-effect:none;fill:#dfdfe7;fill-opacity:1;fill-rule:evenodd;stroke-width:40.621;stroke-linecap:butt;stroke-linejoin:miter;stroke-miterlimit:4;stroke-dasharray:none;stroke-dashoffset:0;stroke-opacity:1;-inkscape-stroke:none;stop-color:#000"/></g></g></svg>