<svg xmlns="http://www.w3.org/2000/svg" xml:space="preserve" width="3600" height="3000"><path d="M448.05 359.334c-5.578.009-9.548.7-15.187 2.63-7.586 2.599-13.83 6.555-17.957 11.31-2.063 2.377-3.646 4.993-4.302 8.007-.657 3.015-.119 6.562 1.845 9.274 2.78 3.837 7.12 6.261 11.973 7.207 2.519.49 4.14.244 6.605.092 2.465-.153 4.982-.397 7.041-.819 11.145-2.28 21.48-7.112 26.735-14.549 1.46-2.068 2.479-4.773 2.646-7.088.161-2.228-.475-5.182-1.511-6.95-1.982-3.382-5.003-5.947-8.583-7.626-1.104-.518-2.531-1.074-4.058-1.289s-2.937-.203-5.246-.199" style="fill:#feffff;fill-opacity:1;fill-rule:evenodd;stroke-width:.761035;stroke-linecap:round;stroke-linejoin:bevel;stroke-miterlimit:7" transform="translate(665.859 138.126)scale(2.31917)"/><path d="M499.496 482.992a5.3 5.3 0 0 0-3.332.695l-6.012 3.542c-16.89 9.954-25.562 24.599-26.472 44.572-.498 10.912 1.117 19.23 5.586 28.46 12.374 25.563 42.432 42.978 76.02 45.372 16.31 1.162 37.235-2.939 51.482-10.156 22.296-11.297 35.683-29.198 35.771-49.791.038-8.997-1.79-16.53-6.049-25.196h.002c-1.938-3.944-4.657-8.262-7.222-11.799-1.283-1.768-2.506-3.318-3.688-4.591-.591-.637-1.156-1.204-1.879-1.768s-1.323-1.55-4.117-1.55c-.843 0-3.571.724-4.805 2.204s-1.392 2.521-1.67 3.625c-.554 2.208-.994 5.21-1.875 11.032-.444 2.942-1.084 4.493-1.29 4.85-.035-.004.02-.022-.026-.022-.898 0-1.257-.054-2.504-.934s-3.144-2.735-5.693-5.816l-4.66-5.635a5.3 5.3 0 0 0-3.813-1.916l-8.951-.467c-12.293-.642-20.872-1.789-28.71-3.766h-.001l-7.078-1.785a5.3 5.3 0 0 0-4.643 1.028l-4.717 3.83c-7.18 5.83-11.727 7.27-15.312 6.697-.15-.024-.122-.029-.26-.053.047-.6.03-.98.242-1.974.99-4.618 1.26-8.874-.13-12.963-1.39-4.09-4.122-7.41-7.842-11.045l-3.282-3.207a5.3 5.3 0 0 0-3.07-1.473" style="fill:#f9554a;fill-opacity:1;fill-rule:evenodd;stroke-width:1.52207;stroke-linecap:round;stroke-linejoin:bevel;stroke-miterlimit:7" transform="translate(665.859 138.126)scale(2.31917)"/><path d="M672.996 488.072c-2.74-.198-5.334.92-7.7 2.657-6.208 4.557-9.084 13.147-9.087 23.158-.002 7.615 1.68 15.13 4.398 21.185s6.324 11.063 11.842 12.305c3.562.801 7.074-.603 9.742-2.926s4.742-5.627 6.022-9.555c2.608-8.002 2.08-18.022-.127-26.834-1.103-4.405-2.647-8.494-4.633-11.878s-4.397-6.212-7.812-7.516a9.3 9.3 0 0 0-2.645-.596" style="fill:#f9554a;fill-opacity:1;fill-rule:evenodd;stroke-width:.761035;stroke-linecap:round;stroke-linejoin:bevel;stroke-miterlimit:7" transform="translate(665.859 138.126)scale(2.31917)"/><path d="M404.887 449.299c-3.818.425-7.395 2.37-10.57 4.953-4.235 3.445-7.884 8.311-10.047 14.094-5.063 13.531-5.079 28.951 2.126 38.398 1.276 1.673 2.582 3.18 4.534 4.225s4.052 1.261 6.002 1.26c5.964-.006 11.38-3.158 15.322-7.999s6.74-11.376 8.502-19.273c1.598-7.167 1.858-13.92.726-19.771s-3.714-11.033-8.341-14.065a11.6 11.6 0 0 0-4.362-1.709 13.8 13.8 0 0 0-3.892-.113" style="fill:#f9554a;fill-opacity:1;fill-rule:evenodd;stroke-width:2.15253;stroke-linecap:round;stroke-linejoin:bevel;stroke-miterlimit:7" transform="translate(665.859 138.126)scale(2.31917)"/><path d="M225.05 685c38.74 119.392 220.5 199.517 370.027 156.479C737.411 800.51 767.216 659.815 755.045 591c-1.048-16.84-5.843-34.429-11.973-50.273l-3.322-8.747c-.413.01-.75-9.219-.75-20.51 0-38.716-5.758-78.815-17.658-122.97-33.34-120.968-102.37-195.5-127.66-195.5-21.224 0-33.438 18.159-47.686 141.5-1.207 10.45-2.338 19.5-2.512 20.113-.223.787-3.493.57-11.15-.74-5.959-1.02-14.385-2.151-18.725-2.518l-7.89-.666.636-9.595c5.668-85.329 5.31-136.687-3.55-153.309C466.95 120.515 139.566 421.535 225.05 685M457 366.191c21.434 14.598-24.022 32.897-36.77 24.872-6.72-4.23-6.711-9.326.03-16.262 7.573-7.793 28.56-14.18 36.74-8.61m-49.857 87.15c16.412.593 12.772 41.737-1.248 51.731-25.203 17.965-28.739-40.488-4.5-50.533 2.137-.886 4.05-1.258 5.748-1.197m91.828 34.55c24.506 19.488-2.187 29.612 15.713 30.914 9.08.147 16.023-6.69 22.586-12.15 14.59 5.095 29.659 6.217 45.025 5.947 5.428 4.459 11.097 16.274 19.098 15.015 3.152-.791 4.804-5.153 5.53-14.607.743-9.655 2.208-10.076 7.985-2.295 48.568 65.405-50.106 116.039-114.408 75.937-43.76-27.29-33.255-67.305-24.361-80.623 4.203-6.295 9.458-10.808 18.095-15.543zm173.043 3.431c12.145-.586 19.212 34.355 11.13 46.89-15.242 23.644-33.826-27.45-17.216-43.733 1.465-1.437 2.888-2.347 4.258-2.805a6.8 6.8 0 0 1 1.828-.352" style="display:inline;fill:#6636a6;fill-opacity:1" transform="translate(665.859 138.126)scale(2.31917)"/><path d="M936.6 352.332q-.984.005-2.05.139c-6.44.817-40.136 17.587-88.763 44.175-9.855 5.39-31.08 18.886-38.869 24.717-8.023 6.007-12.53 12.06-21.049 28.274-8.868 16.878-16.019 29.759-19.984 36-5.195 8.175-18.115 31.084-26.135 46.343-1.055 2.008-.819 3.346 1.65 9.334 1.586 3.845 4.582 13.928 6.657 22.409 2.72 11.116 4.132 15.283 5.064 14.931.711-.268 6.561-3.724 13-7.68 6.44-3.955 23.475-12.939 37.86-19.964 25.9-12.65 26.197-12.828 30.554-18.572 6.596-8.694 23.721-35.772 40.04-63.301 22.567-38.075 51.665-84.09 64.368-101.793 2.962-4.128 5.385-8.552 5.385-9.832 0-3.188-3.143-5.207-7.728-5.18" style="display:inline;fill:#522b86;fill-opacity:1" transform="translate(665.859 138.126)scale(2.31917)"/><path d="M588.379 217.107c-22.532 13.613-17.853 104.625-22.523 144.03 114.178 50.555 128.37 97.086 142.087 107.412 26.475 6.177-69.168-281.89-119.564-251.442M289 432.912c-.153 1.91.034 1.918 2.246.043 1.236-1.048 3.598-3.273 5.25-4.945 95.881-87.085 187.96-78.363 187.96-78.363s13.725-123.436 5.493-142.198C463.946 148.184 295.806 348.21 289 432.912" style="display:inline;fill:#43226f;fill-opacity:1" transform="translate(665.859 138.126)scale(2.31917)"/><path d="M59.28 173.797c-9.3-.342-10.419 5.326-4.725 19.89 22.237 56.885 40.842 141.675 70.668 200.487 5.81 6.303 11.594 10.303 27.394 18.94 7.636 4.173 18.876 10.903 24.977 14.954 96.984 67.792 83.668 95.83 100.04 92.7 4.223-.808 4.333-8.9.325-23.72-16.404-61.152-33.22-122.238-53.094-182.372C206.473 273.58 112.934 182.733 63.77 174.303q-2.5-.43-4.49-.506" style="display:inline;fill:#522b86;fill-opacity:1" transform="translate(665.859 138.126)scale(2.31917)"/><path d="M566.623 353.277c-.226 2.797-.48 5.428-.768 7.862a583 583 0 0 1 21.59 10.076c-6.797-8.062-13.83-14.222-20.822-17.938" style="display:inline;fill:#43226f;fill-opacity:1" transform="translate(665.859 138.126)scale(2.31917)"/><path d="M492.578 233.797c-86.033 6.736-155.127 77.65-163.996 168.314 2.77-1.971 32.672-20.046 35.415-21.874 22.645-71.46 56.311-105.579 127.405-111.645.722-12.453 1.193-24.554 1.176-34.795m81.69 13.973c-1.863 9.829-3.08 21.183-3.95 33.017 62.645 25.91 82.823 64.734 89.1 135.502.1.11 23.567 22.416 23.666 22.525 5.578-63.68-22.743-153.134-108.816-191.044m-87.358 77.738a78.3 78.3 0 0 0-32.105 25.365c18.532-2.28 29.65-1.227 29.65-1.227s1.081-9.729 2.455-24.138m80.7 11.637c-.434 9.07-.959 17.281-1.755 23.994 9.487 4.2 18.283 8.371 26.446 12.498a78.3 78.3 0 0 0-24.692-36.492" style="display:inline;fill:#4a267b;fill-opacity:1" transform="translate(665.859 138.126)scale(2.31917)"/><path d="M679.307 562.508c-2.015.061-3.407.985-3.53 2.5-.057.696 1.064 3.208 2.491 5.583 6.12 10.184 19.897 36.48 30.475 58.173 7.65 15.684 15.758 31.16 18.957 36.176 2.114 3.315 2.268 3.426 15.784 11.448a428 428 0 0 1 6.417 3.89c5.286-20.765 7.598-40.945 7.607-58.904-3.72-8.654-5.894-12.054-9.88-15.578-3.974-3.514-14.911-11.79-20.029-15.155-25.25-16.604-42.821-27.21-46.285-27.94a9 9 0 0 0-1.107-.165 8 8 0 0 0-.9-.028m-465.522-13.111C207.92 594.354 210.52 640.22 225.05 685c3.392 10.452 7.88 20.602 13.346 30.395 5.329-23.496 4.455-46.006.33-61.74-1.447-10.018-5.171-20.302-9.608-29.477l-2.412-5.068c-.247.026-.898-5.477-1.448-12.228-1.511-18.54-5.273-37.432-11.472-57.485" style="display:inline;fill:#5d3198;fill-opacity:1" transform="translate(665.859 138.126)scale(2.31917)"/><path d="M448.05 359.334c-5.578.009-9.548.7-15.187 2.63-7.586 2.599-13.83 6.555-17.957 11.31-2.063 2.377-3.646 4.993-4.302 8.007-.657 3.015-.119 6.562 1.845 9.274 2.78 3.837 7.12 6.261 11.973 7.207 2.519.49 4.14.244 6.605.092 2.465-.153 4.982-.397 7.041-.819 11.145-2.28 21.48-7.112 26.735-14.549 1.46-2.068 2.479-4.773 2.646-7.088.161-2.228-.475-5.182-1.511-6.95-1.982-3.382-5.003-5.947-8.583-7.626-1.104-.518-2.531-1.074-4.058-1.289s-2.937-.203-5.246-.199" style="fill:#feffff;fill-opacity:1;fill-rule:evenodd;stroke-width:.761035;stroke-linecap:round;stroke-linejoin:bevel;stroke-miterlimit:7" transform="matrix(1.38672 -.113 .113 1.38672 76.56 919.83)"/><path d="M499.496 482.992a5.3 5.3 0 0 0-3.332.695l-6.012 3.542c-16.89 9.954-25.562 24.599-26.472 44.572-.498 10.912 1.117 19.23 5.586 28.46 12.374 25.563 42.432 42.978 76.02 45.372 16.31 1.162 37.235-2.939 51.482-10.156 22.296-11.297 35.683-29.198 35.771-49.791.038-8.997-1.79-16.53-6.049-25.196h.002c-1.938-3.944-4.657-8.262-7.222-11.799-1.283-1.768-2.506-3.318-3.688-4.591-.591-.637-1.156-1.204-1.879-1.768s-1.323-1.55-4.117-1.55c-.843 0-3.571.724-4.805 2.204s-1.392 2.521-1.67 3.625c-.554 2.208-.994 5.21-1.875 11.032-.444 2.942-1.084 4.493-1.29 4.85-.035-.004.02-.022-.026-.022-.898 0-1.257-.054-2.504-.934s-3.144-2.735-5.693-5.816l-4.66-5.635a5.3 5.3 0 0 0-3.813-1.916l-8.951-.467c-12.293-.642-20.872-1.789-28.71-3.766h-.001l-7.078-1.785a5.3 5.3 0 0 0-4.643 1.028l-4.717 3.83c-7.18 5.83-11.727 7.27-15.312 6.697-.15-.024-.122-.029-.26-.053.047-.6.03-.98.242-1.974.99-4.618 1.26-8.874-.13-12.963-1.39-4.09-4.122-7.41-7.842-11.045l-3.282-3.207a5.3 5.3 0 0 0-3.07-1.473" style="fill:#f9554a;fill-opacity:1;fill-rule:evenodd;stroke-width:1.52207;stroke-linecap:round;stroke-linejoin:bevel;stroke-miterlimit:7" transform="matrix(1.38672 -.113 .113 1.38672 76.56 919.83)"/><path d="M404.887 449.299c-3.818.425-7.395 2.37-10.57 4.953-4.235 3.445-7.884 8.311-10.047 14.094-5.063 13.531-5.079 28.951 2.126 38.398 1.276 1.673 2.582 3.18 4.534 4.225s4.052 1.261 6.002 1.26c5.964-.006 11.38-3.158 15.322-7.999s6.74-11.376 8.502-19.273c1.598-7.167 1.858-13.92.726-19.771s-3.714-11.033-8.341-14.065a11.6 11.6 0 0 0-4.362-1.709 13.8 13.8 0 0 0-3.892-.113" style="fill:#f9554a;fill-opacity:1;fill-rule:evenodd;stroke-width:2.15253;stroke-linecap:round;stroke-linejoin:bevel;stroke-miterlimit:7" transform="matrix(1.38672 -.113 .113 1.38672 76.56 919.83)"/><path d="M225.05 685c38.74 119.392 220.5 199.517 370.027 156.479C737.411 800.51 767.216 659.815 755.045 591c-1.048-16.84-5.843-34.429-11.973-50.273l-3.322-8.747c-.413.01-.75-9.219-.75-20.51 0-38.716-5.758-78.815-17.658-122.97-33.34-120.968-102.37-195.5-127.66-195.5-21.224 0-33.438 18.159-47.686 141.5-1.207 10.45-2.338 19.5-2.512 20.113-.223.787-3.493.57-11.15-.74-5.959-1.02-14.385-2.151-18.725-2.518l-7.89-.666.636-9.595c5.668-85.329 5.31-136.687-3.55-153.309C466.95 120.515 139.566 421.535 225.05 685M457 366.191c21.434 14.598-24.022 32.897-36.77 24.872-6.72-4.23-6.711-9.326.03-16.262 7.573-7.793 28.56-14.18 36.74-8.61m41.971 121.701c24.506 19.488-2.187 29.612 15.713 30.914 9.08.147 16.023-6.69 22.586-12.15 14.59 5.095 29.659 6.217 45.025 5.947 5.428 4.459 11.097 16.274 19.098 15.015 3.152-.791 4.804-5.153 5.53-14.607.743-9.655 2.208-10.076 7.985-2.295 48.568 65.405-50.106 116.039-114.408 75.937-43.76-27.29-33.255-67.305-24.361-80.623 4.203-6.295 9.458-10.808 18.095-15.543z" style="display:inline;fill:#6636a6;fill-opacity:1" transform="matrix(1.38672 -.113 .113 1.38672 76.56 919.83)"/><path d="M947.138 368.717q-.984.005-2.05.139c-6.44.817-40.136 17.587-88.763 44.175-9.855 5.39-31.08 18.886-38.869 24.717-8.023 6.007-12.53 12.06-21.049 28.274-8.868 16.878-16.019 29.759-19.984 36-5.195 8.175-18.115 31.084-26.135 46.343-1.055 2.008-.819 3.346 1.65 9.334 1.586 3.845 4.582 13.928 6.657 22.409 2.72 11.116 4.132 15.283 5.064 14.931.711-.268 6.561-3.724 13-7.68 6.44-3.955 23.475-12.939 37.86-19.964 25.9-12.65 26.197-12.828 30.554-18.572 6.596-8.694 23.721-35.772 40.04-63.3 22.567-38.076 51.665-84.09 64.368-101.794 2.962-4.128 5.385-8.552 5.385-9.832 0-3.188-3.143-5.207-7.728-5.18" style="display:inline;fill:#5d3198;fill-opacity:1" transform="matrix(1.38672 -.113 .113 1.38672 76.56 919.83)"/><path d="M936.6 352.332q-.984.005-2.05.139c-6.44.817-40.136 17.587-88.763 44.175-9.855 5.39-31.08 18.886-38.869 24.717-8.023 6.007-12.53 12.06-21.049 28.274-8.868 16.878-16.019 29.759-19.984 36-5.195 8.175-18.115 31.084-26.135 46.343-1.055 2.008-.819 3.346 1.65 9.334 1.586 3.845 4.582 13.928 6.657 22.409 2.72 11.116 4.132 15.283 5.064 14.931.711-.268 6.561-3.724 13-7.68 6.44-3.955 23.475-12.939 37.86-19.964 25.9-12.65 26.197-12.828 30.554-18.572 6.596-8.694 23.721-35.772 40.04-63.301 22.567-38.075 51.665-84.09 64.368-101.793 2.962-4.128 5.385-8.552 5.385-9.832 0-3.188-3.143-5.207-7.728-5.18" style="display:inline;fill:#522b86;fill-opacity:1" transform="matrix(1.38672 -.113 .113 1.38672 76.56 919.83)"/><path d="M588.379 217.107c-22.532 13.613-17.853 104.625-22.523 144.03 114.178 50.555 128.37 97.086 142.087 107.412 26.475 6.177-69.168-281.89-119.564-251.442M289 432.912c-.153 1.91.034 1.918 2.246.043 1.236-1.048 3.598-3.273 5.25-4.945 95.881-87.085 187.96-78.363 187.96-78.363s13.725-123.436 5.493-142.198C463.946 148.184 295.806 348.21 289 432.912" style="display:inline;fill:#43226f;fill-opacity:1" transform="matrix(1.38672 -.113 .113 1.38672 76.56 919.83)"/><path d="M59.28 173.797c-9.3-.342-10.419 5.326-4.725 19.89 22.237 56.885 40.842 141.675 70.668 200.487 5.81 6.303 11.594 10.303 27.394 18.94 7.636 4.173 18.876 10.903 24.977 14.954 96.984 67.792 83.668 95.83 100.04 92.7 4.223-.808 4.333-8.9.325-23.72-16.404-61.152-33.22-122.238-53.094-182.372C206.473 273.58 112.934 182.733 63.77 174.303q-2.5-.43-4.49-.506" style="display:inline;fill:#522b86;fill-opacity:1" transform="matrix(1.38672 -.113 .113 1.38672 76.56 919.83)"/><path d="M566.623 353.277c-.226 2.797-.48 5.428-.768 7.862a583 583 0 0 1 21.59 10.076c-6.797-8.062-13.83-14.222-20.822-17.938" style="display:inline;fill:#43226f;fill-opacity:1" transform="matrix(1.38672 -.113 .113 1.38672 76.56 919.83)"/><path d="M492.578 233.797c-86.033 6.736-155.127 77.65-163.996 168.314 2.77-1.971 32.672-20.046 35.415-21.874 22.645-71.46 56.311-105.579 127.405-111.645.722-12.453 1.193-24.554 1.176-34.795m81.69 13.973c-1.863 9.829-3.08 21.183-3.95 33.017 62.645 25.91 82.823 64.734 89.1 135.502.1.11 23.567 22.416 23.666 22.525 5.578-63.68-22.743-153.134-108.816-191.044m-87.358 77.738a78.3 78.3 0 0 0-32.105 25.365c18.532-2.28 29.65-1.227 29.65-1.227s1.081-9.729 2.455-24.138m80.7 11.637c-.434 9.07-.959 17.281-1.755 23.994 9.487 4.2 18.283 8.371 26.446 12.498a78.3 78.3 0 0 0-24.692-36.492" style="display:inline;fill:#4a267b;fill-opacity:1" transform="matrix(1.38672 -.113 .113 1.38672 76.56 919.83)"/><path d="M795.368 1193.224c11.714-3.376 31.538-3.089 53.95 14.836 11.063 8.848 12.929 11.28 11.246 14.668-1.6 3.22-2.846 2.998-13.196-2.36-29.185-15.111-49.899-9.659-52.435-8.897-4.201 1.257-7.018.94-9.27-1.051-3.322-2.938-3.647-8.148-.724-11.635 1.455-1.735 5.104-4.027 10.429-5.561" style="fill:#43226f;fill-opacity:1;stroke-width:.588511" transform="translate(-485.159 -155.228)scale(1.40811)"/><path d="M1127.55 1198.651c-9.087-2.619-24.463-2.396-41.848 11.508-8.581 6.864-10.029 8.75-8.723 11.378 1.24 2.498 2.208 2.326 10.235-1.831 22.638-11.721 38.706-7.492 40.673-6.901 3.259.975 5.443.73 7.191-.815 2.576-2.279 2.828-6.32.561-9.025-1.128-1.346-3.96-3.124-8.09-4.314" style="fill:#43226f;fill-opacity:1;stroke-width:.456494" transform="translate(-485.159 -155.228)scale(1.40811)"/><path d="M448.05 359.334c-5.578.009-9.548.7-15.187 2.63-7.586 2.599-13.83 6.555-17.957 11.31-2.063 2.377-3.646 4.993-4.302 8.007-.657 3.015-.119 6.562 1.845 9.274 2.78 3.837 7.12 6.261 11.973 7.207 2.519.49 4.14.244 6.605.092 2.465-.153 4.982-.397 7.041-.819 11.145-2.28 21.48-7.112 26.735-14.549 1.46-2.068 2.479-4.773 2.646-7.088.161-2.228-.475-5.182-1.511-6.95-1.982-3.382-5.003-5.947-8.583-7.626-1.104-.518-2.531-1.074-4.058-1.289s-2.937-.203-5.246-.199" style="fill:#feffff;fill-opacity:1;fill-rule:evenodd;stroke-width:.761035;stroke-linecap:round;stroke-linejoin:bevel;stroke-miterlimit:7" transform="scale(-1.2646 1.2646)rotate(-4.658 9267.9 34293.484)"/><path d="M499.496 482.992a5.3 5.3 0 0 0-3.332.695l-6.012 3.542c-16.89 9.954-25.562 24.599-26.472 44.572-.498 10.912 1.117 19.23 5.586 28.46 12.374 25.563 42.432 42.978 76.02 45.372 16.31 1.162 37.235-2.939 51.482-10.156 22.296-11.297 35.683-29.198 35.771-49.791.038-8.997-1.79-16.53-6.049-25.196h.002c-1.938-3.944-4.657-8.262-7.222-11.799-1.283-1.768-2.506-3.318-3.688-4.591-.591-.637-1.156-1.204-1.879-1.768s-1.323-1.55-4.117-1.55c-.843 0-3.571.724-4.805 2.204s-1.392 2.521-1.67 3.625c-.554 2.208-.994 5.21-1.875 11.032-.444 2.942-1.084 4.493-1.29 4.85-.035-.004.02-.022-.026-.022-.898 0-1.257-.054-2.504-.934s-3.144-2.735-5.693-5.816l-4.66-5.635a5.3 5.3 0 0 0-3.813-1.916l-8.951-.467c-12.293-.642-20.872-1.789-28.71-3.766h-.001l-7.078-1.785a5.3 5.3 0 0 0-4.643 1.028l-4.717 3.83c-7.18 5.83-11.727 7.27-15.312 6.697-.15-.024-.122-.029-.26-.053.047-.6.03-.98.242-1.974.99-4.618 1.26-8.874-.13-12.963-1.39-4.09-4.122-7.41-7.842-11.045l-3.282-3.207a5.3 5.3 0 0 0-3.07-1.473" style="fill:#f9554a;fill-opacity:1;fill-rule:evenodd;stroke-width:1.52207;stroke-linecap:round;stroke-linejoin:bevel;stroke-miterlimit:7" transform="scale(-1.2646 1.2646)rotate(-4.658 9267.9 34293.484)"/><path d="M404.887 449.299c-3.818.425-7.395 2.37-10.57 4.953-4.235 3.445-7.884 8.311-10.047 14.094-5.063 13.531-5.079 28.951 2.126 38.398 1.276 1.673 2.582 3.18 4.534 4.225s4.052 1.261 6.002 1.26c5.964-.006 11.38-3.158 15.322-7.999s6.74-11.376 8.502-19.273c1.598-7.167 1.858-13.92.726-19.771s-3.714-11.033-8.341-14.065a11.6 11.6 0 0 0-4.362-1.709 13.8 13.8 0 0 0-3.892-.113" style="fill:#f9554a;fill-opacity:1;fill-rule:evenodd;stroke-width:2.15253;stroke-linecap:round;stroke-linejoin:bevel;stroke-miterlimit:7" transform="scale(-1.2646 1.2646)rotate(-4.658 9267.9 34293.484)"/><path d="M225.05 685c38.74 119.392 220.5 199.517 370.027 156.479C737.411 800.51 767.216 659.815 755.045 591c-1.048-16.84-5.843-34.429-11.973-50.273l-3.322-8.747c-.413.01-.75-9.219-.75-20.51 0-38.716-5.758-78.815-17.658-122.97-33.34-120.968-102.37-195.5-127.66-195.5-21.224 0-33.438 18.159-47.686 141.5-1.207 10.45-2.338 19.5-2.512 20.113-.223.787-3.493.57-11.15-.74-5.959-1.02-14.385-2.151-18.725-2.518l-7.89-.666.636-9.595c5.668-85.329 5.31-136.687-3.55-153.309C466.95 120.515 139.566 421.535 225.05 685M457 366.191c21.434 14.598-24.022 32.897-36.77 24.872-6.72-4.23-6.711-9.326.03-16.262 7.573-7.793 28.56-14.18 36.74-8.61m41.971 121.701c24.506 19.488-2.187 29.612 15.713 30.914 9.08.147 16.023-6.69 22.586-12.15 14.59 5.095 29.659 6.217 45.025 5.947 5.428 4.459 11.097 16.274 19.098 15.015 3.152-.791 4.804-5.153 5.53-14.607.743-9.655 2.208-10.076 7.985-2.295 48.568 65.405-50.106 116.039-114.408 75.937-43.76-27.29-33.255-67.305-24.361-80.623 4.203-6.295 9.458-10.808 18.095-15.543z" style="display:inline;fill:#6636a6;fill-opacity:1" transform="scale(-1.2646 1.2646)rotate(-4.658 9267.9 34293.484)"/><path d="M936.6 352.332q-.984.005-2.05.139c-6.44.817-40.136 17.587-88.763 44.175-9.855 5.39-31.08 18.886-38.869 24.717-8.023 6.007-12.53 12.06-21.049 28.274-8.868 16.878-16.019 29.759-19.984 36-5.195 8.175-18.115 31.084-26.135 46.343-1.055 2.008-.819 3.346 1.65 9.334 1.586 3.845 4.582 13.928 6.657 22.409 2.72 11.116 4.132 15.283 5.064 14.931.711-.268 6.561-3.724 13-7.68 6.44-3.955 23.475-12.939 37.86-19.964 25.9-12.65 26.197-12.828 30.554-18.572 6.596-8.694 23.721-35.772 40.04-63.301 22.567-38.075 51.665-84.09 64.368-101.793 2.962-4.128 5.385-8.552 5.385-9.832 0-3.188-3.143-5.207-7.728-5.18" style="display:inline;fill:#522b86;fill-opacity:1" transform="scale(-1.2646 1.2646)rotate(-4.658 9267.9 34293.484)"/><path d="M588.379 217.107c-22.532 13.613-17.853 104.625-22.523 144.03 114.178 50.555 128.37 97.086 142.087 107.412 26.475 6.177-69.168-281.89-119.564-251.442M289 432.912c-.153 1.91.034 1.918 2.246.043 1.236-1.048 3.598-3.273 5.25-4.945 95.881-87.085 187.96-78.363 187.96-78.363s13.725-123.436 5.493-142.198C463.946 148.184 295.806 348.21 289 432.912" style="display:inline;fill:#43226f;fill-opacity:1" transform="scale(-1.2646 1.2646)rotate(-4.658 9267.9 34293.484)"/><path d="M59.28 173.797c-9.3-.342-10.419 5.326-4.725 19.89 22.237 56.885 40.842 141.675 70.668 200.487 5.81 6.303 11.594 10.303 27.394 18.94 7.636 4.173 18.876 10.903 24.977 14.954 96.984 67.792 83.668 95.83 100.04 92.7 4.223-.808 4.333-8.9.325-23.72-16.404-61.152-33.22-122.238-53.094-182.372C206.473 273.58 112.934 182.733 63.77 174.303q-2.5-.43-4.49-.506" style="display:inline;fill:#522b86;fill-opacity:1" transform="scale(-1.2646 1.2646)rotate(-4.658 9267.9 34293.484)"/><path d="M566.623 353.277c-.226 2.797-.48 5.428-.768 7.862a583 583 0 0 1 21.59 10.076c-6.797-8.062-13.83-14.222-20.822-17.938" style="display:inline;fill:#43226f;fill-opacity:1" transform="scale(-1.2646 1.2646)rotate(-4.658 9267.9 34293.484)"/><path d="M492.578 233.797c-86.033 6.736-155.127 77.65-163.996 168.314 2.77-1.971 32.672-20.046 35.415-21.874 22.645-71.46 56.311-105.579 127.405-111.645.722-12.453 1.193-24.554 1.176-34.795m81.69 13.973c-1.863 9.829-3.08 21.183-3.95 33.017 62.645 25.91 82.823 64.734 89.1 135.502.1.11 23.567 22.416 23.666 22.525 5.578-63.68-22.743-153.134-108.816-191.044m-87.358 77.738a78.3 78.3 0 0 0-32.105 25.365c18.532-2.28 29.65-1.227 29.65-1.227s1.081-9.729 2.455-24.138m80.7 11.637c-.434 9.07-.959 17.281-1.755 23.994 9.487 4.2 18.283 8.371 26.446 12.498a78.3 78.3 0 0 0-24.692-36.492" style="display:inline;fill:#4a267b;fill-opacity:1" transform="scale(-1.2646 1.2646)rotate(-4.658 9267.9 34293.484)"/><path d="M1127.55 1198.651c-9.087-2.619-24.463-2.396-41.848 11.508-8.581 6.864-10.029 8.75-8.723 11.378 1.24 2.498 2.208 2.326 10.235-1.831 22.638-11.721 38.706-7.492 40.673-6.901 3.259.975 5.443.73 7.191-.815 2.576-2.279 2.828-6.32.561-9.025-1.128-1.346-3.96-3.124-8.09-4.314" style="fill:#43226f;fill-opacity:1;stroke-width:.456494" transform="matrix(-1.27988 0 0 1.27988 3994.08 118.006)"/><path d="M2477.254 1337.173a10 10 0 0 0-.755 0 9.07 7.385 0 0 0-2.437.382c-1.828.498-3.725 1.486-5.68 3.046-22.152 17.685 2.634 73.178 22.963 47.499 10.61-13.402 1.642-50.383-14.09-50.928z" style="fill:#f9554a;fill-opacity:1;fill-rule:evenodd;stroke-width:.91594;stroke-linecap:round;stroke-linejoin:bevel;stroke-miterlimit:7" transform="translate(-1185.053 -611.44)scale(1.6642)"/></svg>