<svg xmlns="http://www.w3.org/2000/svg" xmlns:xlink="http://www.w3.org/1999/xlink" xml:space="preserve" width="1920" height="1080"><defs><linearGradient id="y"><stop offset="0" style="stop-color:#f5d930;stop-opacity:1"/><stop offset="1" style="stop-color:#f5d930;stop-opacity:0"/></linearGradient><linearGradient id="u"><stop offset="0" style="stop-color:#8fb7d5;stop-opacity:1"/><stop offset=".5" style="stop-color:#7eaccf;stop-opacity:.627451"/></linearGradient><linearGradient id="w"><stop offset="0" style="stop-color:#2aa6c6;stop-opacity:.14809702"/><stop offset="1" style="stop-color:#31b1d3;stop-opacity:0"/></linearGradient><linearGradient id="t"><stop offset="0" style="stop-color:#92c1db;stop-opacity:1"/><stop offset="1" style="stop-color:#92c1db;stop-opacity:0"/></linearGradient><linearGradient id="r"><stop offset="0" style="stop-color:#fcb516;stop-opacity:1"/><stop offset="1" style="stop-color:#fddd92;stop-opacity:1"/></linearGradient><linearGradient id="q"><stop offset="0" style="stop-color:#f0f4f1;stop-opacity:1"/><stop offset="1" style="stop-color:#d7e1d9;stop-opacity:1"/></linearGradient><linearGradient id="p"><stop offset="0" style="stop-color:#fff;stop-opacity:.8182655"/><stop offset="1" style="stop-color:#fff;stop-opacity:0"/></linearGradient><linearGradient id="n"><stop offset="0" style="stop-color:#fff;stop-opacity:1"/><stop offset="1" style="stop-color:#fff;stop-opacity:0"/></linearGradient><linearGradient id="m"><stop offset="0" style="stop-color:#faf7e5;stop-opacity:.41188618"/><stop offset="1" style="stop-color:#faf7e5;stop-opacity:0"/></linearGradient><linearGradient id="l"><stop offset="0" style="stop-color:#fcb516;stop-opacity:1"/><stop offset="1" style="stop-color:#fddd92;stop-opacity:1"/></linearGradient><linearGradient id="v"><stop offset="0" style="stop-color:#174583;stop-opacity:1"/><stop offset=".5" style="stop-color:#143d7a;stop-opacity:.49803922"/><stop offset="1" style="stop-color:#174583;stop-opacity:1"/></linearGradient><linearGradient id="k"><stop offset="0" style="stop-color:#c8ece9;stop-opacity:1"/><stop offset="1" style="stop-color:#9dded8;stop-opacity:1"/></linearGradient><linearGradient id="j"><stop offset="0" style="stop-color:#fff;stop-opacity:1"/><stop offset=".5" style="stop-color:#f7f7f7;stop-opacity:1"/><stop offset="1" style="stop-color:#9cb0d0;stop-opacity:1"/></linearGradient><linearGradient id="i"><stop offset="0" style="stop-color:#9cb0d0;stop-opacity:1"/><stop offset="1" style="stop-color:#9cb0d0;stop-opacity:0"/></linearGradient><linearGradient id="h"><stop offset="0" style="stop-color:#666a8b;stop-opacity:1"/><stop offset="1" style="stop-color:#666a8b;stop-opacity:0"/></linearGradient><linearGradient id="g"><stop offset="0" style="stop-color:#8aa8d2;stop-opacity:1"/><stop offset="1" style="stop-color:#8aa8d2;stop-opacity:0"/></linearGradient><linearGradient id="f"><stop offset="0" style="stop-color:#8aa8d2;stop-opacity:1"/><stop offset="1" style="stop-color:#8aa8d2;stop-opacity:0"/></linearGradient><linearGradient id="e"><stop offset="0" style="stop-color:#d3eef6;stop-opacity:1"/><stop offset=".5" style="stop-color:#b2e2ee;stop-opacity:1"/><stop offset="1" style="stop-color:#8aa8d2;stop-opacity:1"/></linearGradient><linearGradient id="d"><stop offset="0" style="stop-color:#194c8b;stop-opacity:1"/><stop offset=".5" style="stop-color:#164c8d;stop-opacity:1"/><stop offset="1" style="stop-color:#183e77;stop-opacity:1"/></linearGradient><linearGradient id="c"><stop offset="0" style="stop-color:#114894;stop-opacity:1"/><stop offset="1" style="stop-color:#3683bc;stop-opacity:1"/></linearGradient><linearGradient id="b"><stop offset="0" style="stop-color:#c23784;stop-opacity:1"/><stop offset=".5" style="stop-color:#ca4590;stop-opacity:1"/><stop offset="1" style="stop-color:#ab3074;stop-opacity:1"/></linearGradient><linearGradient id="a"><stop offset="0" style="stop-color:#e5a80b;stop-opacity:1"/><stop offset=".5" style="stop-color:#f5da31;stop-opacity:1"/><stop offset="1" style="stop-color:#e5a80b;stop-opacity:1"/></linearGradient><linearGradient xlink:href="#a" id="U" x1="113.732" x2="148.727" y1="71.517" y2="71.517" gradientUnits="userSpaceOnUse"/><linearGradient xlink:href="#b" id="V" x1="129.964" x2="129.188" y1="84.994" y2="106.141" gradientUnits="userSpaceOnUse"/><linearGradient xlink:href="#a" id="W" x1="113.732" x2="148.727" y1="71.517" y2="71.517" gradientTransform="matrix(1.01055 0 0 -1.05626 -1.2 175.857)" gradientUnits="userSpaceOnUse"/><linearGradient xlink:href="#c" id="R" x1="130.638" x2="130.621" y1="53.641" y2="22.26" gradientUnits="userSpaceOnUse"/><linearGradient xlink:href="#d" id="N" x1="130.414" x2="130.736" y1="141.368" y2="178.408" gradientUnits="userSpaceOnUse"/><linearGradient xlink:href="#e" id="E" x1="210.629" x2="236.553" y1="108.416" y2="149.481" gradientTransform="translate(-2.548 1.43)" gradientUnits="userSpaceOnUse"/><linearGradient xlink:href="#e" id="B" x1="210.629" x2="236.553" y1="108.416" y2="149.481" gradientTransform="matrix(-1.18553 0 0 1.0408 304.662 1.88)" gradientUnits="userSpaceOnUse"/><linearGradient xlink:href="#f" id="D" x1="219.073" x2="214.044" y1="151.167" y2="146.198" gradientTransform="matrix(-1.18553 0 0 1.0408 304.662 1.88)" gradientUnits="userSpaceOnUse"/><linearGradient xlink:href="#g" id="G" x1="220.91" x2="215.243" y1="149.042" y2="144.88" gradientTransform="translate(-2.548 1.43)" gradientUnits="userSpaceOnUse"/><linearGradient xlink:href="#h" id="T" x1="295.889" x2="298.287" y1="185.742" y2="172.309" gradientUnits="userSpaceOnUse"/><linearGradient xlink:href="#h" id="X" x1="295.889" x2="298.287" y1="185.742" y2="172.309" gradientUnits="userSpaceOnUse"/><linearGradient xlink:href="#i" id="Q" x1="134.046" x2="134.046" y1="140.424" y2="119.431" gradientUnits="userSpaceOnUse"/><linearGradient xlink:href="#j" id="P" x1="132.64" x2="132.64" y1="53.641" y2="128.864" gradientUnits="userSpaceOnUse"/><linearGradient xlink:href="#k" id="S" x1="104.89" x2="104.89" y1="7.627" y2="38.393" gradientUnits="userSpaceOnUse"/><linearGradient xlink:href="#l" id="M" x1="178.173" x2="169.292" y1="204.262" y2="233.969" gradientUnits="userSpaceOnUse"/><linearGradient xlink:href="#m" id="Z" x1="160.366" x2="165.599" y1="221.442" y2="227.861" gradientUnits="userSpaceOnUse"/><linearGradient xlink:href="#n" id="F" x1="207.965" x2="211.55" y1="108.319" y2="114.42" gradientUnits="userSpaceOnUse"/><linearGradient xlink:href="#p" id="C" x1="33.48" x2="32.001" y1="107.736" y2="111.74" gradientUnits="userSpaceOnUse"/><linearGradient xlink:href="#q" id="Y" x1="102.427" x2="102.427" y1="190.344" y2="216.32" gradientUnits="userSpaceOnUse"/><linearGradient xlink:href="#r" id="A" x1="114.684" x2="120.168" y1="267.435" y2="297.935" gradientUnits="userSpaceOnUse"/><linearGradient xlink:href="#q" id="H" x1="102.427" x2="102.427" y1="190.344" y2="216.32" gradientTransform="translate(67.595 -7.57)" gradientUnits="userSpaceOnUse"/><linearGradient xlink:href="#s" id="K" x1="163.79" x2="164.572" y1="202.67" y2="208.459" gradientTransform="translate(0 .26)" gradientUnits="userSpaceOnUse"/><linearGradient id="s"><stop offset="0" style="stop-color:#fff;stop-opacity:0"/><stop offset=".5" style="stop-color:#fff;stop-opacity:1"/><stop offset="1" style="stop-color:#fff;stop-opacity:0"/></linearGradient><linearGradient xlink:href="#t" id="J" x1="125.234" x2="127.918" y1="250.319" y2="224.68" gradientUnits="userSpaceOnUse"/><linearGradient xlink:href="#u" id="I" x1="129.441" x2="131.709" y1="141.402" y2="178.374" gradientTransform="translate(0 5.137)" gradientUnits="userSpaceOnUse"/><radialGradient xlink:href="#v" id="O" cx="133.22" cy="182.969" r="60.473" fx="133.22" fy="182.969" gradientTransform="matrix(1 0 0 .16815 0 144.163)" gradientUnits="userSpaceOnUse"/><radialGradient xlink:href="#w" id="L" cx="165.655" cy="193.533" r="24.902" fx="165.655" fy="193.533" gradientTransform="matrix(1 0 0 .393 0 128.666)" gradientUnits="userSpaceOnUse"/><radialGradient xlink:href="#y" id="z" cx="317.783" cy="-84.086" r="760.56" fx="317.783" fy="-84.086" gradientUnits="userSpaceOnUse"/></defs><path d="M0 0h1920v1080H0z" style="fill:#c2e8f2;fill-opacity:1;stroke-linecap:round;stroke-linejoin:round"/><path d="M931.633 845.39v.01c.234 1.44.741 6.207 1.037 8.016.261 1.604.53 3.205.773 4.808.584 3.843 1.016 7.693.83 11.598q-.008.091-.025.18l-.004.026q-.007.034-.018.066a1.2 1.2 0 0 1-.119.309 1.5 1.5 0 0 1-.201.291c1.088.7 2.133 1.248 3.162 1.707.723.323 1.425.599 2.106.815a9 9 0 0 1-.303-.45l-.074-.115a32 32 0 0 1-1.244-2.941c-.082-.22-.153-.472-.233-.698a57 57 0 0 1-.88-2.67c-.159-.528-.278-1.124-.428-1.67-.53-1.92-1.041-3.834-1.495-5.853-.004-.022-.013-.043-.017-.064-1.082-4.829-1.988-9.716-2.867-13.365m140.027-204.684c-1.144.037-2.37.304-3.642.745a9 9 0 0 0-.446.664c-1.777 3.616-3.141 8.74-4.297 13.894a41.314 66.848 11.895 0 1 18.928-2.795 41.314 66.848 11.895 0 1 .441.098l.745-2.978-.364-.526c-2.851-4.088-6.05-8.048-9.402-8.906a7 7 0 0 0-1.963-.195zm-9.01 3.328q-.566.336-1.132.69c-4.342 2.705-8.513 5.968-11.084 8.016-2.572 2.047-3.281 2.585-6.913 9.144-3.63 6.559-9.968 18.915-14.435 30.072s-7.084 21.135-8.1 31.452-.418 21.016 1.215 28.578c1.633 7.561 4.274 12.011 6.963 15.05 2.47 2.793 4.807 4.23 7.365 4.336a41.314 66.848 11.895 0 1-8.529-61.261 41.314 66.848 11.895 0 1 34.219-53.563c.583-3.843 1.016-7.693.83-11.597a1.5 1.5 0 0 0-.399-.917m-159.566-10.158a28.46 28.46 0 0 0-28.459 28.457 28.46 28.46 0 0 0 28.459 28.46 28.46 28.46 0 0 0 28.457-28.46 28.46 28.46 0 0 0-28.457-28.457m151.576-222.873c-.76.01-1.504.59-2.074 1.678-.926 1.77-1.394 4.88-1.734 9.15s-.554 9.704.312 14.196c2.867 14.841 13.293 17.58 23.08 6.06 2.962-3.486 5.445-8.325 7.246-12.213s2.922-6.825 2.985-8.822c.047-1.497-.502-2.465-1.457-2.656-.319-.063-.683-.041-1.084.078-4.59 1.35-8.506 10.37-12.418 13.514-5.584 4.487-8.275.06-9.272-2.434-1.863-4.66-.844-14.44-4.18-17.871-.291-.3-.595-.5-.904-.602-.058-.02-.116-.032-.174-.045a1.5 1.5 0 0 0-.326-.033m23.352-42.722a20.097 10.049 89.898 0 0-10.014 20.115 20.097 10.049 89.898 0 0 10.086 20.078 20.097 10.049 89.898 0 0 10.012-20.115 20.097 10.049 89.898 0 0-10.084-20.078m-7.233-6.33c-5.628.078-11.6 3.548-17.066 11.593-16.24 23.901-17.052 65.53-1.494 76.385 16.944 11.823 36.383-8.102 40.842-41.863 4.246-24.362-7.898-46.316-22.282-46.115m7.233 6.33a20.097 10.049 89.898 0 1 10.084 20.078 20.097 10.049 89.898 0 1-10.012 20.115 20.097 10.049 89.898 0 1-10.086-20.078 20.097 10.049 89.898 0 1 10.014-20.115m-23.352 42.722q.164 0 .326.033c.058.013.116.025.174.045q.466.152.904.602c3.336 3.43 2.317 13.21 4.18 17.87.997 2.494 3.688 6.922 9.272 2.435 3.912-3.145 7.827-12.164 12.418-13.514.401-.12.765-.141 1.084-.078.955.19 1.504 1.159 1.457 2.656-.062 1.997-1.183 4.935-2.985 8.822-1.801 3.888-4.284 8.727-7.246 12.213-9.787 11.52-20.213 8.781-23.08-6.06-.866-4.492-.653-9.925-.312-14.196.34-4.27.807-7.38 1.734-9.15.57-1.089 1.314-1.671 2.074-1.678m-126.002 4.178c-.32-.01-.539.268-.648.895-1.644 9.404 9.67 42.028 33.097 51.06 4.338 1.672 6.666 1.663 10.98 0 23.427-9.032 34.74-41.656 33.097-51.06-.439-2.508-2.608.626-6.137 4.796-7.69 9.03-16.301 17.808-27.7 21.096a21.4 21.4 0 0 1-9.501 0c-11.398-3.288-20.01-12.065-27.7-21.096-2.646-3.128-4.527-5.672-5.488-5.691m36.397-6.953a30 30 0 0 0-7.764.726c-4.61 1.05-7.896 2.967-11.205 5.705-3.31 2.74-6.643 6.301-8.307 9.135q-.228.39-.416.76c6.885 7.649 14.646 14.576 24.483 17.414a21.4 21.4 0 0 0 9.502 0c8.887-2.564 16.081-8.466 22.465-15.223-.725-1.882-1.955-3.734-3.805-5.746-3.73-4.056-9.984-8.758-16.078-11.017a28.5 28.5 0 0 0-8.875-1.754m1.55-56.62c-1.663 0-3.329.415-5.498 1.25-23.426 9.033-34.741 41.66-33.097 51.063.438 2.507 2.608-.626 6.136-4.797 7.69-9.03 16.302-17.807 27.7-21.095a21.4 21.4 0 0 1 9.502 0c11.398 3.288 20.01 12.065 27.699 21.095 3.529 4.171 5.698 7.304 6.137 4.797 1.643-9.404-9.67-42.03-33.096-51.062-2.157-.832-3.819-1.25-5.483-1.25m-96.154 55.01c-.055.001-.109 0-.164.01-.059.01-.118.015-.178.03q-.475.109-.953.519c-3.625 3.123-3.473 12.954-5.74 17.432-1.213 2.395-4.286 6.567-9.451 1.605-3.62-3.477-6.725-12.807-11.178-14.557q-.585-.227-1.07-.173c-.969.106-1.602 1.021-1.688 2.517-.114 1.994.744 5.021 2.196 9.053 1.45 4.031 3.496 9.069 6.138 12.803 8.733 12.338 19.36 10.532 23.526-3.998 1.26-4.398 1.526-9.83 1.564-14.114s-.153-7.423-.92-9.267c-.505-1.216-1.262-1.869-2.082-1.86m-19.326-44.61a10.049 20.097 5.166 0 0-11.816 19.109 10.049 20.097 5.166 0 0 8.197 20.921 10.049 20.097 5.166 0 0 11.818-19.111 10.049 20.097 5.166 0 0-8.199-20.92m5.9-5.733c-13.636.413-26.39 20.462-24.402 44.033 1.462 34.023 19.064 55.586 36.986 45.305 16.456-9.44 19.32-50.976 5.254-76.217-5.26-9.44-11.64-13.31-17.838-13.121m-5.9 5.732a10.049 20.097 5.166 0 1 8.2 20.92 10.049 20.097 5.166 0 1-11.82 19.111 10.049 20.097 5.166 0 1-8.196-20.921 10.049 20.097 5.166 0 1 11.816-19.11m19.326 44.611c.82-.01 1.577.644 2.082 1.86.767 1.844.958 4.983.92 9.267-.038 4.285-.305 9.717-1.564 14.114-4.166 14.53-14.793 16.336-23.526 3.998-2.642-3.734-4.687-8.772-6.138-12.803-1.452-4.031-2.31-7.058-2.196-9.053.086-1.496.72-2.411 1.688-2.517.323-.035.68.02 1.07.174 4.453 1.75 7.558 11.079 11.178 14.556 5.165 4.963 8.238.79 9.451-1.605 2.267-4.478 2.115-14.31 5.74-17.432q.478-.41.953-.52.09-.018.178-.028c.055-.01.11-.01.164-.01zm96.252-29.123c-1.56-.01-3.141.16-4.765.514l-.184.047c-8.219 2.396-14.962 7.68-20.983 13.813-.366.359-.79.802-1.17 1.183a151 151 0 0 0-5.455 6.072c-3.44 4.066-5.587 7.146-6.1 4.977.704 3.485 1.326 8.46 1.657 11.67 1.053.93 2.553 2.867 4.443 5.101a178 178 0 0 0 3.217 3.682q.188-.37.416-.76c1.664-2.834 4.997-6.396 8.307-9.134 3.31-2.74 6.594-4.656 11.205-5.705a30 30 0 0 1 7.764-.727c2.821.106 5.828.624 8.875 1.754 6.094 2.26 12.347 6.961 16.078 11.017 1.85 2.012 3.08 3.864 3.805 5.747a153 153 0 0 0 5.234-5.874c1.188-1.404 2.222-2.692 3.088-3.685.271-2.81 1.24-8.022 2.13-12.432-1.021-.403-2.8-2.773-5.218-5.63-7.69-9.03-16.301-17.808-27.7-21.096a21.8 21.8 0 0 0-4.644-.533m-.11-95.076-25.75 51.62-53.69-7.378c8.468 8.343 15.74 18.475 21.757 29.104 8.583 15.159 15.718 34.471 19.1 48.156-1.644-9.404 9.67-42.03 33.097-51.062 2.17-.836 3.835-1.251 5.498-1.25s3.326.418 5.483 1.25c20.741 7.996 31.988 34.49 33.152 46.984h.041c3.449-13.356 9.52-29.472 17.79-44.078 5.97-10.547 13.17-20.603 21.554-28.908l-52.273 7.181zm-4.655 95.59c-.031.01-.061.013-.092.02l-.092.027zm-1.704-107.316v.01c-27.73 0-55.467 5.92-81.183 17.789-10.96 5.058-20.698 11.054-29.291 17.795h.004c14.286 2.283 26.785 9.926 37.398 20.38l53.682 7.375 25.75-51.619 25.758 51.62 52.27-7.182c8.402-8.326 17.992-14.89 28.724-18.418-9.234-7.627-19.861-14.362-31.98-19.955-25.681-11.853-53.401-17.787-81.132-17.791zm-72.959 56.101c3.638 3.596 7.016 7.56 10.205 11.713-3.19-4.153-6.567-8.117-10.205-11.713m235.815 95.715c-64.046 106.939-257.702 111.728-325.631.137.021.929.094 1.85.13 2.777.214 5.358.69 10.678 1.415 15.942.224 1.625.412 3.258.683 4.87 1.067 6.328 2.421 12.568 4.194 18.62.272.928.638 1.807.926 2.726a152 152 0 0 0 5.687 15.205c.66 1.52 1.324 3.034 2.031 4.52 2.658 5.582 5.523 11.012 8.809 16.035 8.549 13.07 20.755 28.138 33.059 43.27 16.247-6.518 39.657-10.81 64.877-13.682 10.77-1.665 21.902-2.948 33.582-3.248 39.022-1.001 80.34 3.672 113.162 16.934 12.305-15.134 24.518-30.202 33.068-43.274 9.463-20.32 19.276-42.385 22.7-66.226.51-4.572 1.161-9.118 1.286-13.75q.014-.428.023-.856zM863.133 297.021c-1.75 1.074-3.276 2.3-4.95 3.428 1.674-1.128 3.2-2.354 4.95-3.428m-13.244 9.287c-27.662 21.683-43.512 51.054-49.637 82.025-2.244 11.345-3.052 22.878-2.793 34.313 67.93 111.591 261.585 106.802 325.63-.137.248-11.385-.691-22.882-2.925-34.176-5.921-29.94-20.844-58.441-46.82-79.894-10.73 3.529-20.32 10.093-28.723 18.418-8.384 8.305-15.584 18.361-21.555 28.908-8.27 14.606-14.34 30.722-17.789 44.078h-.04c.01.059.01.116.015.174.133 1.541.11 2.862-.072 3.9-.138.79-.448 1.02-.918.834-.89 4.41-1.859 9.623-2.13 12.432 1.705-1.957 2.758-2.774 3.048-1.111 1.644 9.404-9.669 42.028-33.095 51.06-4.315 1.664-6.643 1.673-10.98 0-23.427-9.032-34.742-41.656-33.099-51.06.11-.627.329-.901.649-.895.274.01.624.218 1.045.59-.331-3.21-.953-8.185-1.656-11.67a3 3 0 0 1-.038-.18c-3.38-13.685-10.517-32.997-19.1-48.156a149 149 0 0 0-11.429-17.258c-3.189-4.152-6.568-8.117-10.205-11.713-.043-.042-.08-.09-.123-.132h.01c-10.581-10.424-23.04-18.048-37.273-20.356zm7.136 49.967c6.199-.188 12.578 3.68 17.838 13.12 14.066 25.242 11.202 66.777-5.254 76.218-17.922 10.281-35.524-11.282-36.986-45.305-1.989-23.57 10.766-43.62 24.402-44.033m213.754 5.676c14.384-.2 26.528 21.753 22.281 46.115-4.459 33.76-23.897 53.686-40.841 41.863-15.558-10.856-14.745-52.484 1.494-76.385 5.466-8.045 11.438-11.515 17.066-11.593m-273.19 63.472c.537 13.506 2.601 26.818 6.286 39.404-1.769-6.043-3.123-12.273-4.188-18.591-.271-1.613-.459-3.246-.683-4.871a165 165 0 0 1-1.414-15.942m324.557 7.787c-.152 1.297-.22 2.606-.365 3.905-3.423 23.84-13.236 45.905-22.699 66.226 12.943-19.788 20.815-44.446 23.064-70.13m-317.632 33.51c1.925 6.28 4.271 12.316 6.918 18.15-.31-.696-.633-1.383-.938-2.084a152 152 0 0 1-5.687-15.205c-.091-.29-.192-.576-.293-.861m8.023 20.606c2.656 5.577 5.514 10.995 8.797 16.015-3.282-5.017-6.142-10.44-8.797-16.015m56.33 54.556c-5.245 1.436-10.145 2.992-14.474 4.729 4.276-1.716 9.4-3.22 14.474-4.729m-37.592 33.672c-1.162 4.36-1.431 9.08-.175 14.016 2.915 11.459 9.829 18.594 19.296 22.84 9.468 4.245 21.527 5.474 34.317 4.63 25.58-1.686 54.036-11.633 70.39-20.824 7.177-4.033 11.514-7.79 15.979-11.652a1.534 1.534 0 0 1 1.887-.092c4.948 3.5 9.802 6.934 17.623 10.994 18.413 9.558 37.057 14.202 52.023 16.11 24.593 3.133 36.441.626 45.746-13.19 1.762-2.617 3.041-5.288 3.69-8.174a83.329 52.578 0 0 1-49.424 10.248 83.329 52.578 0 0 1-70.248-24.478 83.329 52.578 0 0 1-70.248 24.478 83.329 52.578 0 0 1-70.856-24.906m121.577-45.873c-11.68.3-22.812 1.583-33.582 3.248h-.004c-18.498 2.107-35.96 5-50.399 8.953-5.072 1.51-10.195 3.012-14.47 4.727h-.005a71 71 0 0 0-9.77 7.748c-3.112 3.042-7.529 8.02-10.622 14.146-1.12 2.218-2.06 4.58-2.719 7.055a83.329 52.578 0 0 0 70.85 24.9 83.329 52.578 0 0 0 70.248-24.478 83.329 52.578 0 0 0 70.248 24.478 83.329 52.578 0 0 0 49.39-10.234c.757-3.349.694-6.974-.48-11.145-2.182-7.752-8.362-17.832-15.026-24.85-2.51-2.643-6.093-5.197-10.523-7.626-8.198-3.31-16.927-6.086-26.016-8.371-27.296-6.862-57.854-9.304-87.12-8.553zm138.937 61.459c-.087.314-.164.63-.266.94.102-.31.18-.626.266-.94m-.748 2.217c-.119.297-.225.598-.357.892.132-.293.238-.595.357-.892m-1.022 2.219c-.132.252-.248.508-.39.76.142-.252.258-.508.39-.76m-24.003 50.417c-.268.771-.536 1.541-.784 2.368.248-.826.516-1.597.784-2.368m-1.55 5.336c-.397 1.521-.805 2.982-1.157 4.551.35-1.558.763-3.04 1.158-4.55m13.118 1.342a41.314 66.848 11.895 0 0-14.303 3.336c-1.081 4.83-1.993 9.718-2.873 13.367.234-1.44.74-6.207 1.035-8.015.262-1.605.53-3.208.774-4.81A41.314 66.848 11.895 0 0 1028 710.11a41.314 66.848 11.895 0 0 8.53 61.26q.339.015.683 0c2.83-.14 6.248-1.966 9.908-5.471s7.568-8.667 11.986-14.862c4.419-6.194 9.321-13.37 13.948-21.671 4.626-8.301 8.993-17.758 12.05-26.092 3.058-8.335 4.81-15.55 5.53-22.315.719-6.765.396-13.079-.97-18.127-.709-2.615-1.699-4.918-2.886-7.1-.437.04-.63.21-.765.307a2 2 0 0 0-.309.28c-.15.162-.256.309-.373.478-.234.34-.489.764-.787 1.285-.597 1.042-1.345 2.458-2.166 4.082-1.642 3.25-3.555 7.305-4.963 10.635-.947 2.24-1.498 3.14-2.307 4.883.993-3.243 2.097-6.76 3.116-9.629 1.374-3.871 3.13-9.588 3.953-12.877l.466-1.863a41.314 66.848 11.895 0 0-.44-.098 41.314 66.848 11.895 0 0-4.62-.543zm-9.576-11.232-.018.02c.01 0 .017 0 .025-.01zm-.018.02c-1.72.6-3.528 1.507-5.34 2.575q.168.177.271.408.104.232.127.506c.093 1.952.031 3.891-.127 5.822-.157 1.931-.411 3.854-.703 5.776-.243 1.603-.512 3.206-.773 4.81-.282 1.726-.756 6.147-1.002 7.8.864-3.627 1.757-8.423 2.818-13.161 0-.022.013-.042.017-.064.453-2.02.965-3.933 1.495-5.854.15-.545.27-1.14.427-1.67.279-.931.58-1.809.883-2.67.08-.226.149-.477.23-.697a32 32 0 0 1 1.245-2.941q.036-.059.074-.115.173-.275.359-.526zm15.154 8.52.147.214c-.049-.07-.084-.143-.133-.213zm.243.366-.332 1.324-.41 1.643-.467 1.863c-.824 3.29-2.579 9.006-3.953 12.877-.978 2.752-2.034 6.103-2.995 9.234l.043-.016s.01.013.014.033c.716-1.507 1.253-2.433 2.13-4.505 1.408-3.33 3.32-7.386 4.962-10.635a95 95 0 0 1 2.166-4.082c.299-.521.553-.946.787-1.285.117-.17.224-.316.373-.479.075-.08.157-.168.31-.28.132-.096.323-.262.747-.304-1.003-1.842-2.144-3.606-3.375-5.389zm3.507 5.602.084.154s.01 0 .01-.01c-.027-.051-.066-.097-.094-.149zm-45.144 3.902c-13.986-.485-28.346 5.166-40.18 20.838l-.012.01c-4.012 5.174-7.491 12.625-12.974 15.984 4.556-2.57 9.124-5.217 13.84-9.261 4.989-4.28 10.145-10.121 16.193-14.092s12.987-6.069 20.633-5.932c.428.01.858.021 1.29.043a264 264 0 0 1 2.981-5.555c.376-.68.722-1.294 1.041-1.853a49 49 0 0 0-2.814-.18zm19.728 4.582a176 176 0 0 1-1.037 4.727l-.033.216c.355-1.472.716-3.145 1.09-4.935-.01 0-.013-.01-.02-.01zm13.795 12.84s-.016.01-.043.016l-.12.394.177-.377zm14.3 10.574a87 87 0 0 1-.981 4.303c3.56 3.561 5.814 6.473 7.199 8.166q.234.288.436.531.301.555.585.963c-1.507-2.171-3.278-7.597-7.24-13.963m-50.323-20.45c-3.823-.067-7.47.423-10.916 1.427a35.4 35.4 0 0 0-5.016 1.882 37 37 0 0 0-4.697 2.62c-6.048 3.97-11.204 9.813-16.193 14.091a60 60 0 0 1-2.13 1.747c-3.509 4.991-6.809 11.256-11.708 14.257 4.556-2.57 9.124-5.215 13.84-9.26 4.989-4.278 10.145-10.122 16.193-14.093 5.483-3.6 11.697-5.66 18.508-5.91a335 335 0 0 1 3.38-6.655c-.402-.02-.823-.1-1.222-.107h-.035zm49.172 25.413a104 104 0 0 1-1.328 4.623c4.441 4.223 7.127 7.708 8.697 9.627q.235.287.437.53.303.554.586.962c-1.646-2.371-3.606-8.623-8.392-15.742m18.414 16.3a220.782 170.428 0 0 1-31.953 16.893 179 179 0 0 1-1.828 3.364c-4.627 8.3-9.53 15.477-13.948 21.671-4.418 6.195-8.326 11.357-11.986 14.862s-7.078 5.33-9.908 5.47q-.344.016-.684 0a7.3 7.3 0 0 1-1.883-.33c-.926-.29-1.832-.768-2.74-1.435-.907-.667-1.815-1.523-2.742-2.57-2.69-3.04-5.33-7.49-6.963-15.051-.593-2.744-1.05-5.9-1.342-9.303a220.782 170.428 0 0 1-54.265 5.229 220.782 170.428 0 0 1-112.137-23.62c5.767 11.652 12.935 22.894 20.588 32.813 9.316 12.075 19.362 22.2 28.305 28.861 8.942 6.662 16.8 9.91 23.76 11.451 6.959 1.542 12.944 1.302 16.91-.236 3.965-1.537 6.378-4.501 9.468-7.685 3.09-3.185 6.605-6.23 10.973-8.842s9.506-4.753 14.393-6.21c4.886-1.456 9.625-2.238 14.82-1.853s10.634 1.876 17.213 3.373c6.578 1.497 14.279 3.002 21.795 2.739 7.515-.264 15.023-2.283 22.746-5.854 7.722-3.57 15.58-8.66 22.988-15.707s14.393-16.09 19.58-25.693c3.841-7.112 6.714-14.558 8.84-22.34zM972.01 584.194c-.333.016-.661.14-.928.37-4.465 3.863-8.802 7.62-15.978 11.653-12.266 6.893-31.338 14.21-50.899 18.15-6.52 1.314-13.095 2.253-19.49 2.674h-.002c-12.79.844-24.85-.385-34.317-4.63-9.467-4.246-16.381-11.381-19.296-22.84a22 22 0 0 1-.235-1.026c-.797 3.868-.857 7.992.235 12.282 2.915 11.459 9.829 18.594 19.296 22.84 9.468 4.245 21.527 5.474 34.317 4.63 25.58-1.687 54.036-11.633 70.39-20.824 7.177-4.033 11.514-7.79 15.979-11.652a1.53 1.53 0 0 1 1.887-.09c4.948 3.5 9.802 6.934 17.623 10.994 18.413 9.558 37.057 14.2 52.023 16.107 24.593 3.133 36.441.627 45.746-13.19 3.66-5.432 5.237-11.104 3.408-18.429-.078.29-.152.582-.246.867-.141.431-.313.854-.482 1.278-.119.297-.225.598-.357.892-.201.447-.434.887-.665 1.326-.132.253-.248.51-.39.76-.39.69-.81 1.372-1.268 2.05-9.305 13.817-21.153 16.323-45.746 13.19-14.966-1.906-33.61-6.551-52.023-16.109-7.821-4.06-12.675-7.494-17.623-10.994a1.53 1.53 0 0 0-.96-.28zm63.787 37.615c-7.86 5.064-13.065 13.895-13.065 23.941a28.45 28.45 0 0 0 4.83 15.858 43.5 43.5 0 0 1 7.085-1.46 46 46 0 0 1 7.103-.298q1.41.05 2.815.18c2.757-4.832 3.564-5.454 5.869-7.29 2.57-2.047 6.742-5.31 11.084-8.015q.566-.354 1.132-.69c1.812-1.068 3.62-1.975 5.34-2.574l.018-.02.012.011c1.271-.44 2.496-.707 3.639-.744a7 7 0 0 1 1.963.195c1.257.322 2.491 1.08 3.695 2.118.79.68 1.568 1.483 2.328 2.36-.115-9.025-4.433-17.039-11.086-22.173-6.758 1.292-15.115 1.005-25.945-.375-2.197-.28-4.475-.619-6.818-1.023zm32.193 19.652a9 9 0 0 0-.36.526q-.037.056-.073.115a32 32 0 0 0-1.244 2.941c-.082.22-.15.471-.23.698-.305.86-.605 1.738-.884 2.67-.157.528-.277 1.124-.427 1.67-.53 1.92-1.041 3.834-1.494 5.853 0 .022-.017.042-.017.064-.646 2.881-1.23 5.784-1.782 8.432.01 0 .013 0 .02.01.554-2.648 1.138-5.55 1.784-8.43a41.314 66.848 11.895 0 0-.01 0l.033-.129c.352-1.57.76-3.03 1.158-4.55.258-.99.484-2.03.765-2.97.248-.826.516-1.596.784-2.367.106-.305.2-.64.31-.935a32 32 0 0 1 1.246-2.944q.213-.349.444-.662c-.01 0-.017 0-.025.01zm23.615-62.129c1.107 4.066 1.155 7.613.413 10.895a83.329 52.578 0 0 0 .033-.014c-.071.314-.177.618-.262.928-.01.024-.013.048-.02.072 1.828 7.325.25 12.996-3.408 18.43-5.208 7.731-11.212 11.922-19.801 13.564 6.653 5.134 10.971 13.147 11.086 22.173 1.17 1.35 2.299 2.88 3.379 4.428l.119.172h.014c.049.071.084.143.133.213l.098.14v.01c1.23 1.784 2.371 3.547 3.375 5.39h.018l.115.214c.027.051.067.097.094.149 0 0-.01 0-.01.01 1.099 2.072 2.017 4.262 2.685 6.73 1.367 5.048 1.69 11.362.971 18.127a76 76 0 0 1-1.062 6.887c3.962 6.365 5.732 11.792 7.24 13.963q-.284-.408-.586-.963-.202-.244-.436-.531c-1.385-1.693-3.638-4.605-7.199-8.166l-.17.66c4.786 7.119 6.746 13.37 8.393 15.742a10 10 0 0 1-.586-.963l-.438-.53c-1.57-1.918-4.255-5.403-8.697-9.626a126 126 0 0 1-1.988 5.842c-2.652 7.227-6.287 15.298-10.223 22.728a220.782 170.428 0 0 0 31.615-16.697c.78-2.826 1.715-5.581 2.307-8.496 2.198-10.828 3.157-22.243 2.68-33.248-.477-11.006-2.396-21.702-4.198-31.909-1.801-10.206-3.466-19.828-4.978-26.503-.44-1.947-.868-3.633-1.3-5.164-3.835-10.782-6.699-18.547-9.403-24.653zm-119.47 16.118a1.53 1.53 0 0 0-1.053.37c-4.465 3.863-8.802 7.62-15.978 11.653-16.355 9.19-44.81 19.137-70.391 20.824-12.79.844-24.85-.385-34.317-4.63-3.928-1.762-7.417-4.022-10.363-6.882-.72 2.932-1.062 6.61-1.453 11.696-.76 10.898-1.206 27.715.51 43.424s5.587 30.393 11.814 44.742c1.159 2.67 2.749 5.206 4.06 7.844a220.782 170.428 0 0 0 111.63 23.421 220.782 170.428 0 0 0 54.265-5.228c-.513-5.973-.52-12.703.127-19.275 1.016-10.317 3.632-20.294 8.1-31.452 2.38-5.944 5.291-12.23 8.041-17.797-6.81.251-13.025 2.31-18.508 5.91-6.048 3.972-11.204 9.815-16.193 14.094-4.716 4.045-9.284 6.69-13.84 9.26 4.9-3.001 8.2-9.266 11.709-14.258q1.048-.82 2.105-1.726c-4.707 4.033-9.267 6.676-13.816 9.242 5.483-3.359 8.962-10.81 12.975-15.984l.012-.01c7.836-10.379 16.782-16.363 25.992-19.08a28.45 28.45 0 0 1-4.83-15.858c0-10.046 5.203-18.877 13.064-23.941-13.618-2.353-29.495-6.93-45.205-15.084-7.82-4.06-12.675-7.495-17.623-10.995a1.53 1.53 0 0 0-.834-.28m-69.051 38.427a28.46 28.46 0 0 1 28.457 28.457 28.46 28.46 0 0 1-28.457 28.46 28.46 28.46 0 0 1-28.459-28.46 28.46 28.46 0 0 1 28.459-28.457m138.666 25.973q1.41.05 2.815.18a49 49 0 0 0-2.815-.18m19.729 4.58c.01 0 .012.01.02.01-.01 0-.014-.01-.02-.01m-22.194 2.969c.4.01.82.088 1.223.107l.033-.066q-.631-.03-1.256-.04zm65.963 46.51c-.565 1.763-1.091 3.545-1.744 5.273.652-1.727 1.179-3.51 1.744-5.273m-2.723 7.773c-1.35 3.315-2.81 6.586-4.529 9.768 1.718-3.181 3.179-6.454 4.53-9.768m-242.953 11.711c1.132 1.995 2.14 3.987 3.338 5.937-1.188-1.934-2.215-3.958-3.338-5.937m356.002-301.885-.57.086c-32.903 67.093-54.114 91-119.072 156.467l-.543.547c1.667 4.353 3.494 9.402 5.619 15.377.268.95.534 1.96.802 3.054 43.872-45.554 93.039-92.023 111.663-154.236 2.13-9.231 3.005-15.743 2.101-21.295m0 0c-.013 0-.02.01-.033.01.011 0 .022 0 .033-.01m0 0h-.002zm-.588.121c-52.72 7.83-80.325 23.594-105.642 52.698a136 136 0 0 1-5.631 11.343c4.614-3.4 10.79-7.465 18.826-13.447 9.585-7.134 21.817-16.996 33.777-24.025 11.96-7.03 23.648-11.226 32.932-14.276 9.157-3.008 15.977-4.9 22.951-6.66q1.38-2.765 2.787-5.633m-101.582 57.192c-3.797 2.673-7.008 4.874-9.691 6.851a126 126 0 0 1-4.631 7.672c-8.55 13.072-20.763 28.14-33.068 43.274-.01 0-.017-.01-.025-.01a63 63 0 0 1 3.98 2.365h.01c12.305-15.134 26.634-32.561 35.184-45.633 2.87-4.388 5.68-9.35 8.244-14.523zm102.17-57.31h.002zm-.584.112c-10.812 1.606-20.453 3.608-29.345 5.928 8.898-2.32 18.526-4.314 29.341-5.92v-.01zm.938 4.663c-.01 2.258-.235 4.708-.653 7.433.418-2.725.646-5.175.655-7.433zm-3.729.978c-6.974 1.76-13.794 3.652-22.951 6.66-9.284 3.05-20.972 7.246-32.932 14.276s-24.192 16.89-33.777 24.025a417 417 0 0 1-9.135 6.596c-2.563 5.173-5.374 10.135-8.244 14.523-8.55 13.072-22.878 30.5-35.183 45.633h-.01c2.63 1.705 4.835 3.463 6.543 5.262 6.663 7.017 12.843 17.097 15.025 24.85q.035.124.068.25c1.205 2.721 2.442 5.773 3.783 9.275l.543-.547c63.095-63.59 84.916-87.97 116.268-150.8zm-33.506 2.496c-6.55 1.973-13.002 4.006-18.671 6.477 5.68-2.473 12.11-4.503 18.671-6.477m-41.302 18.979c-2.206 1.53-4.34 3.158-6.442 4.818 2.105-1.66 4.233-3.288 6.442-4.818m-8.9 6.726c-.65.537-1.267 1.148-1.907 1.697.643-.551 1.255-1.158 1.906-1.697m-13.778 13.184c-1.178 1.248-2.4 2.468-3.565 3.771 1.173-1.312 2.378-2.514 3.565-3.771m-410.395-36.154c-.72 5.304.129 11.57 2.475 20.503 21.987 64.442 80.16 112.71 132.24 160.204.19-1.87.405-3.5.684-4.954q.145-.76.316-1.46c-4.154-4.032-7.228-9.255-8.933-15.96a26.7 26.7 0 0 1-.66-9.587c-65.47-58.365-89.934-84.41-125.993-148.729-.044-.01-.085-.01-.129-.017m0 0-.037.298c.006 0 .013.01.02.014.012-.1.004-.213.017-.312m.13.017.402.716c32.028 24.43 83.556 41.635 105.384 38.942a157 157 0 0 1-2.705-6.658c-16.969-9.986-58.153-26.969-103.082-33m126.417 146.035a29 29 0 0 0-.427 2.694h.002q.151-1.366.425-2.694m-30.103-116.73v.01a130 130 0 0 1 6.767 3.687s0-.01-.002-.01a129 129 0 0 0-6.765-3.687m9.472 10.353c-1.613.2-3.389.289-5.306.276a134 134 0 0 0 2.176 4.863h.004c8.766 18.415 27.871 43.598 43.017 62.348a74 74 0 0 1 4.268-3.043c-12.303-15.132-24.51-30.2-33.059-43.27-3.283-5.02-6.141-10.438-8.797-16.015-.003-.01-.008-.013-.011-.02-.382-.801-.732-1.623-1.094-2.436q-.61-1.344-1.198-2.703M704.3 442.807c-.323 2.604-.28 5.447.135 8.72-.41-3.273-.458-6.114-.135-8.72m.549.422c35.839 63.795 60.363 89.865 125.588 148.012q.152-1.366.427-2.694a29 29 0 0 1-.37-2.304c-.043-.345-.062-.684-.09-1.026a27 27 0 0 1-.1-2.322q-.002-.515.017-1.025c.034-.805.106-1.599.207-2.385.034-.264.053-.531.094-.793q.24-1.549.633-3.043c.008-.03.012-.06.02-.09a83.329 52.578 0 0 0 .005.01c.66-2.475 1.599-4.837 2.72-7.055 3.093-6.125 7.509-11.104 10.622-14.146a69 69 0 0 1 5.502-4.705c-15.146-18.75-34.25-43.933-43.017-62.348h-.004a134 134 0 0 1-2.176-4.863c-24.032-.165-70.417-16.593-100.078-39.217zm33.642 6.101c3.385.86 6.548 1.818 9.801 2.75-3.31-.95-6.353-1.875-9.8-2.75m30.696 9.38c2.904 1.039 5.83 2.065 8.525 3.115-2.775-1.083-5.527-2.044-8.525-3.116m26.228 10.687c1.424.677 3.27 1.42 4.559 2.07-1.314-.663-3.104-1.378-4.559-2.07m44.3 148.851c-.278 1.452-.493 3.08-.683 4.948.114-1.116.308-1.863.447-2.82.09-.613.13-1.57.237-2.128M943.98 844.72c.002.01.005.011.008.016l-.004-.014zm.016.041c.477 1.431 1.74 5.982 2.32 7.701.52 1.54 1.047 3.076 1.55 4.617 1.202 3.697 2.26 7.424 2.714 11.307.007.062.004.12.004.18v.01c.713-.909 1.411-1.9 2.084-2.936a45 45 0 0 1-.523-1.031c-.243-.496-.456-1.06-.694-1.574-.836-1.809-1.653-3.615-2.43-5.533l-.029-.061c-1.849-4.57-3.536-9.228-4.996-12.68m-46.111-63.178a2 2 0 0 0-.155.02q.216 1.58.334 3.218c.002.024-.002.052 0 .076.452 6.447-.267 13.305 1.239 22.262 1.512 8.99 5.293 20.223 10.158 30.338s10.838 19.165 15.672 24.984c3.409 4.105 6.211 6.542 8.789 8.193q.043-.05.082-.101a1.5 1.5 0 0 0 .24-.543l.004-.027c.01-.059.022-.117.026-.18.186-3.904-.247-7.754-.83-11.597-.244-1.603-.513-3.204-.774-4.809-.296-1.808-.803-6.575-1.037-8.015v-.01c.88 3.649 1.785 8.536 2.867 13.365.004.022.014.043.018.064.453 2.02.964 3.933 1.494 5.854.15.545.27 1.14.428 1.67.278.931.577 1.809.88 2.67.08.225.151.476.233.697a32 32 0 0 0 1.244 2.941l.074.115q.139.22.285.424c2.58.819 4.9.837 7.164-.521 1.41-.846 2.863-2.31 4.264-4.096v-.01c0-.06.003-.118-.004-.18-.454-3.883-1.512-7.61-2.715-11.306-.502-1.542-1.029-3.077-1.549-4.618-.58-1.718-1.843-6.27-2.32-7.7 1.46 3.452 3.147 8.11 4.996 12.679.008.022.02.039.03.061.776 1.918 1.593 3.725 2.43 5.533.237.514.45 1.079.693 1.574q.23.47.466.922c.688-1.058 1.415-2.066 2.034-3.174 2.417-4.325 4.23-8.578 5.336-14.138s1.495-12.465 1.271-19.602-1.055-14.52-2.31-22.758c-.841-5.52-1.79-11.177-5.59-16.22-3.026 3.13-5.426 6.03-9.332 7.545-3.966 1.537-9.951 1.778-16.91.236-6.96-1.542-14.818-4.79-23.76-11.451a103 103 0 0 1-5.465-4.385m46.095 63.137h.004l.004.014c-.002 0-.006-.01-.008-.016zm-9.792 26.14c.222.14.442.264.662.391-.22-.127-.44-.251-.662-.39m2.59 1.401c.095.044.195.11.29.152.247.11.472.168.713.266-.24-.098-.468-.166-.713-.275-.096-.043-.194-.098-.29-.143" style="fill:#8fd5e7;fill-opacity:1;stroke-width:.136944;stroke-linecap:round;stroke-linejoin:round"/><path d="M929.444 527.576 420.253 354.904-10.66 676.474l6.872-537.629-438.99-310.45 513.44-159.603 159.6-513.438 310.451 438.99 537.63-6.872-321.57 430.911Z" style="fill:#f6f6f6;fill-opacity:1;stroke:none;stroke-linecap:round;stroke-linejoin:round" transform="rotate(7.674 -3312.427 5815.654)scale(.59143)"/><path d="M960.234 270.697v.006c-27.73 0-55.467 5.92-81.183 17.79-10.96 5.058-20.698 11.053-29.291 17.794h.004l.125.02v.002c-27.662 21.683-43.512 51.054-49.637 82.025-2.244 11.345-3.052 22.878-2.793 34.313.021.928.094 1.85.13 2.777.373 9.373 1.745 18.556 3.62 27.564-.469-2.266-1.135-4.457-1.521-6.751 1.066 6.327 2.42 12.567 4.193 18.619.186.634.414 1.247.633 1.865a143 143 0 0 0 3.013 8.783 129 129 0 0 0-6.765-3.687v.008c-.218-.112-.565-.246-.787-.358-1.288-.65-3.135-1.393-4.559-2.07-5.162-2.457-10.982-4.955-17.703-7.572-2.695-1.05-5.62-2.076-8.525-3.116-18.667-6.68-40.915-13-64.74-16.199v.002c-.045-.01-.086-.01-.13-.017l-.037.298h.004l.006.004.01.01c-.65 5.241.19 11.426 2.493 20.192 21.987 64.441 80.159 112.71 132.24 160.203v-.006q.001-.017.004-.033l.01-.088.01-.092c.002-.02.005-.033.008-.053-.005.051-.013.093-.018.145a216 216 0 0 0-.467 5.406c-.759 10.898-1.205 27.715.51 43.424s5.588 30.393 11.815 44.742c1.158 2.67 2.748 5.207 4.06 7.844a220.782 170.428 0 0 0 43.299 15.035 220.782 170.428 0 0 0 46.46 7.543 220.782 170.428 0 0 0 .003 0l20.537-11.412 70.908 35.209a41.314 66.848 11.895 0 1-5.303-10.219 41.314 66.848 11.895 0 0 5.303 10.219l10.701 5.314a71 71 0 0 0 8.555-3.334c7.722-3.57 15.58-8.66 22.988-15.707s14.394-16.09 19.58-25.693a99 99 0 0 0 .498-.934v-.004c3.591-6.827 6.305-13.959 8.338-21.398a220.782 170.428 0 0 1-.332.193c.78-2.823 1.713-5.577 2.305-8.49 2.197-10.828 3.156-22.243 2.68-33.248-.478-11.006-2.396-21.701-4.198-31.908s-3.466-19.828-4.979-26.504q-.25-1.11-.498-2.115c43.872-45.554 93.037-92.022 111.66-154.235.992-4.294 1.59-7.85 1.985-11.144.207-1.722.415-3.441.437-4.963.016-1.067.011-2.116-.07-3.106 0 .037.01.071.012.108a27 27 0 0 0-.263-2.19l-.563.086c0 .01-.01.02-.014.03v.006-.006c-10.81 1.605-20.45 3.607-29.341 5.927 4.678-1.22 10.277-2.083 15.425-3.113-43.385 8.507-68.867 23.612-91.724 49.887 6.896-15.656 11.226-33.133 12.8-51.114.385-3.27.833-6.528.922-9.845q.014-.427.023-.856c.248-11.385-.692-22.881-2.925-34.176-5.922-29.94-20.844-58.44-46.82-79.894-9.233-7.626-19.86-14.358-31.98-19.951-25.68-11.853-53.4-17.787-81.13-17.791zm254.752 160.926v-.002zm.908 5.072c0 .226.022.427.015.657q.016-.527.018-1.04c0 .117-.031.266-.032.383m.034-.382v-.028zm-.02 1.039c-.042 1.315-.275 2.844-.45 4.306-.087.715-.067 1.305-.182 2.06.352-2.301.568-4.407.633-6.366m-109.074 271.757v-.004zm-208.57 30.416a220.782 170.428 0 0 1-43.807-15.236c5.767 11.652 12.935 22.894 20.588 32.813 5.557 7.202 11.373 13.709 17.06 19.203l52.616-29.235a220.782 170.428 0 0 1-46.457-7.545M887.15 326.658h.004l.004.004h-.004zm.137.147c2.591 2.562 5.032 5.33 7.397 8.19-.414-.505-.823-1.014-1.243-1.51.604.713 1.174 1.464 1.764 2.193-2.516-3.11-5.128-6.115-7.918-8.873m10.2 11.71a149 149 0 0 1 11.421 17.247l.004.004c8.583 15.159 15.719 34.47 19.1 48.156q.016.095.037.18c.703 3.484 1.325 8.458 1.656 11.668l-.004-.002v-.002c-.33-3.21-.953-8.184-1.656-11.668a3 3 0 0 1-.037-.18c-3.381-13.685-10.517-32.997-19.1-48.156a149 149 0 0 0-11.422-17.246m70.37 39.051c.281.017.564.023.844.051-.28-.028-.562-.034-.844-.05m-4.138.127c-.254.035-.512.093-.768.137.256-.044.514-.102.768-.137m7.63.336c2.85.822 5.525 1.986 8.055 3.412-2.53-1.426-5.205-2.59-8.054-3.412m-13.195 1.317c-.406.168-.805.351-1.205.533.4-.181.798-.366 1.205-.533m-2.892 1.369c-3.383 1.742-6.516 3.941-9.448 6.45 2.937-2.503 6.06-4.714 9.448-6.45m44.447.879c2.16 4.606 3.706 9.099 4.625 12.97-.919-3.871-2.464-8.364-4.625-12.97m-58.936 10.275c-.366.36-.79.802-1.17 1.184.385-.405.78-.786 1.17-1.184m64.473 8.059c0 .03.01.06.01.09.025.285.017.521.031.79-.015-.297-.01-.564-.039-.88zm.09 2.21c0 .227-.039.403-.053.614.013-.211.05-.387.053-.613m-76.802 2.663.033.008zm.206.008q-.06.009-.119.006.057.003.12-.006m125.639 6.224c-.377.076-.745.292-1.084.641.34-.35.707-.566 1.084-.64m-49.842 4.143a.45.45 0 0 1 .266.08c-.269-.18-.652-.028-1.14.371.344-.28.639-.448.874-.451m-75.88.002q.115.005.247.055a.8.8 0 0 0-.244-.051c-.32-.01-.539.268-.648.894-.616 3.526.588 10.316 3.57 17.903-2.983-7.589-4.19-14.38-3.574-17.907.11-.626.328-.9.648-.894m74.992.46c-.946.777-2.287 2.468-3.977 4.493.93-1.114 1.754-2.128 2.465-2.943v-.01c.583-.669 1.086-1.191 1.512-1.54m80.755 6.208c-.12.837-.382 1.806-.767 2.908.385-1.102.647-2.071.767-2.908m-90.957 5.26c-.435.456-.898.872-1.341 1.32.442-.447.907-.865 1.341-1.32m222.13 4.404c0 .025.01.05.011.076 0-.025-.01-.051-.01-.076zm-.59.121-.025.047q.014-.023.024-.047zm-269.944.47c.98.864 1.943 1.753 2.97 2.546-1.028-.794-1.988-1.682-2.97-2.545m42.545.542c-1.163 1-2.333 1.981-3.56 2.879 1.226-.897 2.398-1.88 3.56-2.88m224.338 4.699v.002c-6.886 1.742-13.627 3.609-22.674 6.58-9.284 3.05-20.971 7.246-32.931 14.276s-24.193 16.89-33.778 24.025a416 416 0 0 1-9.132 6.592v.006c-3.797 2.672-7.008 4.873-9.69 6.85v-.005c4.614-3.4 10.789-7.464 18.824-13.445 9.585-7.134 21.818-16.996 33.778-24.025 11.96-7.03 23.647-11.226 32.931-14.276 9.048-2.972 15.79-4.838 22.676-6.58zm-258.969.684c.461.273.917.554 1.387.81-.47-.256-.926-.537-1.387-.81m3.784 1.986c.42.194.83.41 1.26.588-.43-.179-.84-.394-1.26-.588m19.517.1c-.374.17-.744.348-1.125.505.381-.157.75-.336 1.125-.505m-271.406 3.115c29.661 22.624 76.046 39.053 100.078 39.219.808 1.893 1.56 3.568 2.176 4.863h.004c8.766 18.414 27.87 43.596 43.016 62.346l-.002.002c-15.146-18.75-34.248-43.929-43.014-62.342h-.004a134 134 0 0 1-2.176-4.864c-24.032-.165-70.417-16.592-100.078-39.216v-.006zm496.02 14.726c-3.335 6.093-6.873 13.145-10.202 18.627 3.363-5.535 6.832-12.468 10.202-18.627M809.18 479.67a165 165 0 0 0 1.951 4.531l-.033-.07q-.436-.975-.861-1.957h-.006l.006-.002q-.538-1.244-1.057-2.502m367.04 18.022c-3.104 4.368-6.064 9.205-9.415 13.494 3.4-4.347 6.27-9.065 9.414-13.494M952.95 529.684c12.875-.327 25.932.233 38.918 1.246-12.968-1.01-26.061-1.573-38.918-1.246m48.697 2.164c13.122 1.409 26.078 3.31 38.3 6.38-12.207-3.067-25.195-4.97-38.3-6.38m-86.44 1.558c-16.91 2.051-32.785 4.801-46.125 8.438 13.342-3.637 29.206-6.39 46.125-8.438m-46.505 8.53c-4.922 1.352-9.52 2.814-13.641 4.43 4.115-1.618 8.72-3.078 13.64-4.43m197.296 4.672c.01.002.01.006.016.008v.002-.002c0-.002-.01-.006-.012-.008zm3.977 2.365v.002zm-238.69 26.587a83.329 52.578 0 0 0 6.129 5.441 83.329 52.578 0 0 0 15.273 9.201 83.329 52.578 0 0 0 49.445 10.256 83.329 52.578 0 0 0 30.647-3.73 83.329 52.578 0 0 0 33.468-15.403 83.329 52.578 0 0 0 6.133-5.345 83.329 52.578 0 0 0 6.133 5.345 83.329 52.578 0 0 0 33.469 15.403 83.329 52.578 0 0 0 30.646 3.73 83.329 52.578 0 0 0 30.96-3.765 83.329 52.578 0 0 0 9.54-2.866 83.329 52.578 0 0 0 8.891-3.603v.002a83.329 52.578 0 0 1-8.89 3.601 83.329 52.578 0 0 1-9.542 2.866 83.329 52.578 0 0 1-30.959 3.767 83.329 52.578 0 0 1-30.646-3.732 83.329 52.578 0 0 1-33.469-15.403 83.329 52.578 0 0 1-6.133-5.343 83.329 52.578 0 0 1-6.133 5.343 83.329 52.578 0 0 1-33.468 15.403 83.329 52.578 0 0 1-30.647 3.732 83.329 52.578 0 0 1-49.445-10.258 83.329 52.578 0 0 1-15.273-9.2 83.329 52.578 0 0 1-6.13-5.44zm-.721 3.64c-.031.226-.042.458-.068.686.015-.133.018-.27.035-.402q.018-.142.033-.284m-.252 3.348c-.007.436.013.877.027 1.318-.007-.182-.024-.367-.027-.548l.002.23-.006-.293.004.063q-.005-.213-.006-.424v-.004c0-.115.005-.228.006-.342m.143 3.232c.093.883.206 1.77.394 2.668a26 26 0 0 1-.353-2.207c-.02-.155-.029-.307-.041-.46m.54 3.34.073.31-.024-.087c-.018-.074-.031-.148-.048-.223m261.057 1.09v.002a83.329 52.578 0 0 1-.029.012 83.329 52.578 0 0 0 .03-.014m-.451 1.61q-.02.075-.043.152l-.033.107c-.026.079-.06.155-.088.233q.085-.246.164-.492m-.787 2.107c-.043.107-.081.216-.129.322-.022.048-.05.095-.072.143.071-.154.134-.31.201-.465m-.604 1.27c-.065.125-.123.253-.19.378-.131.253-.248.51-.39.76q-.531.941-1.146 1.87a29 29 0 0 0 1.726-3.009m-118.11.25.026.001q-.078.001-.156.008c.043-.003.086-.01.129-.01m18.493.019c9.207 4.779 18.471 8.33 27.305 10.924-8.834-2.594-18.098-6.145-27.305-10.924m-18.103.04q.035.007.07.017c-.023-.008-.047-.011-.07-.018m-17.385.71c-3.671 2.063-8.09 4.137-12.81 6.174 4.707-2.033 9.148-4.116 12.81-6.174m-17.076 7.9c-2.75 1.104-5.586 2.075-8.547 3.104 2.915-1.015 5.837-2.016 8.547-3.104m52.783 2.707c4.244 2.194 8.495 4.09 12.715 5.79-4.222-1.7-8.469-3.594-12.715-5.79m16.943 7.338c2.579.95 5.14 1.849 7.668 2.635-2.54-.79-5.076-1.68-7.668-2.635M840.032 616.8c-.152.617-.26 1.352-.381 2.041.022-.2.036-.437.066-.592q.145-.754.315-1.449m194.34 4.656c2.803.509 5.64 1.046 8.242 1.377-2.197-.28-4.474-.619-6.817-1.023v-.002c-.445-.077-.976-.27-1.425-.352m8.244 1.377c8.122 1.035 14.853 1.455 20.562 1.055a46 46 0 0 0 5.383-.682q1.249.964 2.38 2.059a29 29 0 0 0-2.382-2.057c-1.69.323-3.478.547-5.38.68-5.71.4-12.442-.02-20.563-1.055m30.466 4.737a28.34 28.34 0 0 1 6.565 17.81v-.002a28.33 28.33 0 0 0-6.563-17.808zm1.412 13.632c.09.038.18.084.27.125-.09-.041-.18-.087-.27-.125m-6.478.248v.002a9 9 0 0 0-.445.665 32 32 0 0 0-1.291 3.06l.04-.117a32 32 0 0 1 1.247-2.943q.21-.348.44-.659v-.008zm8.252.756q.12.082.238.168-.119-.086-.238-.168m.615.471c.144.115.29.22.434.344.089.076.173.186.262.265-.232-.207-.462-.422-.696-.609m-14.027 1.639q.036.06.066.127c.01.017.014.036.022.054a1.4 1.4 0 0 0-.088-.181m.16.412q.024.106.033.22c-.01-.075-.017-.15-.033-.22m2.365 3.176c-.073.235-.148.463-.219.703.023-.08.043-.166.066-.244.048-.16.103-.303.153-.46zm17.764 2.076h.014v.002h-.014zm.244.355v.008c1.231 1.783 2.372 3.546 3.375 5.389h.017l.113.21v.007l.084.154v.004c.361.68.669 1.402.989 2.113-.379-.842-.754-1.684-1.19-2.484a1.3 1.3 0 0 0-.58.176c.126-.076.298-.152.563-.178-1.003-1.842-2.145-3.604-3.375-5.387v-.002zm-5.805 2.338a41.314 66.848 11.895 0 1 4.62.543 41.314 66.848 11.895 0 1 .44.098v.002a41.314 66.848 11.895 0 0-.44-.098 41.314 66.848 11.895 0 0-4.62-.543zm-9.523 1.406a41.314 66.848 11.895 0 0-4.783 1.93v.002a41.314 66.848 11.895 0 0-.01 0c.01-.028.012-.055.02-.082-.01.027-.011.055-.018.082a41.314 66.848 11.895 0 1 .01-.002 41.314 66.848 11.895 0 1 4.779-1.93zm18.137 1.832c-.076.046-.134.095-.184.131a2 2 0 0 0-.309.28 3 3 0 0 0-.18.214c.057-.071.112-.144.18-.218q.054-.059.125-.125v-.002a2 2 0 0 1 .184-.153c.05-.036.108-.081.184-.127m-22.92.026c0 .012-.01.023-.012.035 0-.012.01-.023.012-.035m-1.06.613c-.244 1.602-.513 3.203-.774 4.807-.282 1.722-.754 6.128-1 7.789.246-1.659.716-6.063.998-7.785.26-1.605.53-3.208.773-4.81zm23.26.045a6 6 0 0 0-.146.205c-.234.34-.488.764-.787 1.285-.597 1.042-1.345 2.458-2.166 4.082-1.641 3.25-3.554 7.305-4.963 10.635-.873 2.066-1.416 3.004-2.129 4.502.716-1.507 1.253-2.433 2.13-4.506 1.408-3.33 3.32-7.386 4.962-10.635a95 95 0 0 1 2.166-4.082c.299-.52.553-.946.787-1.285q.073-.104.147-.201m2.95 2.607a31 31 0 0 1 1.236 3.633v.002c1.367 5.048 1.69 11.362.971 18.127v-.002c.72-6.765.396-13.079-.97-18.127a31 31 0 0 0-1.237-3.633m-46.678.649q1.41.05 2.813.18v.002a49 49 0 0 0-2.813-.18zm-6.506.273c-1.662.179-3.324.407-4.98.782-1.09.246-2.176.558-3.26.894.187-.058.372-.136.559-.191a43 43 0 0 1 7.084-1.46c.2-.023.398-.003.597-.025m26.243 4.306v.011-.008zm-29.799 3.612c-.466.088-.916.215-1.375.32.459-.105.91-.232 1.375-.32m-3.992 1.022c-1.083.338-2.134.752-3.176 1.191 1.042-.439 2.093-.853 3.176-1.191m-19.719 4.34c-.248.241-.488.518-.734.767.246-.249.486-.526.734-.767m29.152.753v.004c-6.81.251-13.024 2.31-18.508 5.91v-.003c5.483-3.6 11.696-5.66 18.506-5.91zm38.145 3.114v.004c0 .004.01.012.01.023l-.012-.025-.025.01.025-.012zm14.392 10.754c1.92 3.109 3.342 5.994 4.446 8.369-1.103-2.373-2.53-5.264-4.446-8.37m-89.37 1.142c-2.76 3.926-5.39 8.637-8.77 11.93 3.38-3.294 6.01-8.005 8.77-11.93m-3 2.063c-.679.468-1.37 1.055-2.044 1.488.674-.433 1.365-1.02 2.043-1.488m91.296.92v.004l-.17.66v-.004a104 104 0 0 1-1.328 4.623v.004a126 126 0 0 1-1.988 5.842c-2.651 7.225-6.284 15.293-10.219 22.72a220.782 170.428 0 0 1-.01.004c3.936-7.429 7.571-15.5 10.223-22.726 1.353-3.69 2.45-7.159 3.316-10.467l.17-.66zm6.961 7.351c.417.872.787 1.571 1.145 2.12-.356-.545-.731-1.256-1.145-2.12m-.017 6.701c.424.888.801 1.603 1.164 2.159-.361-.553-.742-1.277-1.164-2.159m6.268 5.827a220.782 170.428 0 0 1-10.584 6.127 220.782 170.428 0 0 0 10.584-6.127m-75.252 6.662a41.314 66.848 11.895 0 0-.104 24.443 41.314 66.848 11.895 0 1 .104-24.443m-5.565 4.718c-.454 4.617-.485 9.259-.346 13.713-.141-4.467-.11-9.082.346-13.713m-161.414 9.985c1.132 1.995 2.14 3.987 3.338 5.937-1.188-1.934-2.215-3.958-3.338-5.937m161.227 7.767c.062.871.13 1.73.213 2.57-.037-.376-.12-.663-.153-1.046-.042-.484-.026-1.03-.06-1.524m5.972 4.106a41.314 66.848 11.895 0 0 2.649 11.334 41.314 66.848 11.895 0 1-2.649-11.334" style="fill:#ede197;fill-opacity:1;stroke-width:.136944;stroke-linecap:round;stroke-linejoin:round"/><path d="M929.444 527.576 420.253 354.904-10.66 676.474l6.872-537.629-438.99-310.45 513.44-159.603 159.6-513.438 310.451 438.99 537.63-6.872-321.57 430.911Z" style="fill:url(#z);stroke:none;stroke-linecap:round;stroke-linejoin:round" transform="rotate(7.674 -3312.427 5815.655)scale(.59143)"/><path d="M929.444 527.576 420.253 354.904-10.66 676.474l6.872-537.629-438.99-310.45 513.44-159.603 159.6-513.438 310.451 438.99 537.63-6.872-321.57 430.911Z" style="fill:#f7e059;fill-opacity:1;stroke:none;stroke-linecap:round;stroke-linejoin:round" transform="rotate(7.674 -3301.201 6007.732)scale(.51983)"/><path d="M960.234 270.697v.006c-27.73 0-55.467 5.92-81.183 17.79-10.96 5.058-20.698 11.053-29.291 17.794h.004l.125.02v.002c-4.4 3.449-8.5 7.09-12.31 10.904v.002l-5.456 11.727-5.71.964c-13.535 17.522-22.044 37.613-26.161 58.428-2.244 11.345-3.052 22.878-2.793 34.313.021.928.094 1.85.13 2.777.373 9.373 1.745 18.557 3.62 27.564-.469-2.266-1.135-4.457-1.521-6.751 1.066 6.327 2.42 12.567 4.193 18.619.186.634.414 1.247.633 1.865a143 143 0 0 0 3.013 8.783 129 129 0 0 0-6.765-3.687v.008c-.218-.112-.565-.246-.787-.358-1.288-.65-3.135-1.393-4.559-2.07-5.162-2.457-10.982-4.955-17.703-7.572-2.695-1.05-5.62-2.076-8.525-3.116-18.667-6.68-40.915-13-64.74-16.199v.002c-.045-.01-.086-.01-.13-.017l-.037.298h.004l.006.004.01.01c-.65 5.241.19 11.426 2.493 20.192 21.987 64.441 80.159 112.71 132.24 160.203v-.006l.004-.033.01-.088.008-.082.01-.063c-.005.051-.013.094-.018.145a216 216 0 0 0-.467 5.406c-.759 10.898-1.205 27.715.51 43.424s5.588 30.393 11.815 44.742c1.158 2.669 2.748 5.205 4.06 7.842a220.782 170.428 0 0 1-.508-.2c5.677 11.47 12.711 22.542 20.229 32.346l28.592-15.886a220.782 170.428 0 0 1-47.745-16.035 220.782 170.428 0 0 0 47.76 16.027l61.301-34.06 55.895 27.753 5.38 2.672 48.18 23.924a89 89 0 0 0 4.367-3.89c7.408-7.048 14.394-16.09 19.58-25.694a99 99 0 0 0 .498-.934v-.004c3.591-6.827 6.305-13.959 8.338-21.398a220.782 170.428 0 0 1-.332.193c.78-2.823 1.713-5.577 2.305-8.49 2.197-10.828 3.156-22.243 2.68-33.248-.478-11.006-2.396-21.701-4.198-31.908s-3.466-19.828-4.979-26.504q-.25-1.11-.498-2.115c43.872-45.554 93.037-92.022 111.66-154.235.992-4.294 1.59-7.85 1.985-11.144.207-1.722.415-3.44.437-4.963.016-1.067.011-2.116-.07-3.106 0 .037.01.071.012.108 0-.044-.01-.086-.012-.13 0-.033-.01-.066-.012-.1a27 27 0 0 0-.24-1.96l-.566.086c0 .01-.01.02-.014.03v.006-.006c-10.811 1.605-20.45 3.607-29.342 5.927 4.679-1.22 10.278-2.083 15.426-3.113-43.386 8.507-68.868 23.612-91.725 49.887 6.62-15.027 10.874-31.734 12.598-48.951.06-.723.119-1.444.203-2.163.384-3.27.832-6.528.922-9.845q.014-.427.023-.856c.247-11.385-.692-22.881-2.926-34.176-4.545-22.982-14.395-45.119-30.476-63.869l-10.237-1.246-8.896-17.021c-8.567-6.708-18.273-12.67-29.19-17.71-25.68-11.852-53.4-17.786-81.13-17.79zm254.752 160.926v-.002zm.908 5.072c0 .226.022.427.015.657q.016-.527.018-1.04c0 .117-.031.266-.032.383m.034-.382v-.028zm-.02 1.039c-.042 1.315-.275 2.844-.45 4.306-.087.715-.067 1.305-.182 2.06.352-2.301.568-4.407.633-6.366m-109.074 271.757v-.004zM887.148 326.66h.004q.002 0 .004.003h-.004zm.137.146c2.591 2.562 5.032 5.33 7.397 8.19-.414-.505-.823-1.014-1.243-1.51.604.713 1.174 1.464 1.764 2.193-2.516-3.11-5.128-6.115-7.918-8.873m10.2 11.71a149 149 0 0 1 11.421 17.247l.004.004c8.583 15.159 15.719 34.47 19.1 48.156q.017.101.039.191c.702 3.485 1.324 8.451 1.654 11.657l-.004-.002v-.002c-.33-3.21-.953-8.184-1.656-11.668a3 3 0 0 1-.037-.18c-3.381-13.685-10.517-32.997-19.1-48.156a149 149 0 0 0-11.422-17.246m70.37 39.051c.281.017.564.023.844.051-.28-.028-.562-.034-.844-.05m-4.138.127c-.254.035-.512.093-.768.137.256-.044.514-.102.768-.137m7.63.336c2.85.822 5.525 1.986 8.055 3.412-2.53-1.426-5.205-2.59-8.054-3.412m-13.195 1.317c-.406.168-.805.351-1.205.533.4-.181.798-.366 1.205-.533m-2.892 1.369c-3.383 1.742-6.516 3.941-9.448 6.45 2.937-2.503 6.06-4.714 9.448-6.45m44.447.879c2.16 4.606 3.706 9.099 4.625 12.97-.919-3.871-2.464-8.364-4.625-12.97m-58.936 10.275c-.366.36-.79.802-1.17 1.184.385-.405.78-.786 1.17-1.184m64.473 8.059c0 .03.01.06.01.09.025.285.017.521.031.79-.015-.297-.01-.564-.039-.88zm.09 2.21c0 .227-.039.403-.053.614.013-.211.05-.387.053-.613m-76.802 2.663.033.008zm.206.008q-.06.009-.119.006.057.003.12-.006m125.639 6.224c-.377.076-.745.292-1.084.641.34-.35.707-.566 1.084-.64m-49.842 4.143a.45.45 0 0 1 .266.08c-.269-.18-.652-.028-1.14.371.344-.28.639-.448.874-.451m-75.88.002q.115.005.247.055a.8.8 0 0 0-.244-.051c-.32-.01-.539.268-.648.894-.616 3.526.588 10.316 3.57 17.903-2.983-7.589-4.19-14.38-3.574-17.907.11-.626.328-.9.648-.894m74.992.46c-.946.777-2.287 2.468-3.977 4.493.93-1.114 1.754-2.128 2.465-2.943v-.01c.583-.669 1.086-1.191 1.512-1.54m80.755 6.208c-.12.837-.382 1.806-.767 2.908.385-1.102.647-2.071.767-2.908m-90.957 5.26c-.435.456-.898.872-1.341 1.32.442-.447.907-.865 1.341-1.32m222.13 4.404c0 .025.01.05.011.076 0-.025-.01-.051-.01-.076zm-.59.121-.025.047q.014-.023.024-.047zm-269.944.47c.98.864 1.943 1.753 2.97 2.546-1.028-.794-1.988-1.682-2.97-2.545m42.545.542c-1.163 1-2.333 1.981-3.56 2.879 1.226-.897 2.398-1.88 3.56-2.88m224.338 4.699v.002c-6.886 1.742-13.627 3.609-22.674 6.58-9.284 3.05-20.971 7.246-32.931 14.276s-24.193 16.89-33.778 24.025a416 416 0 0 1-9.132 6.592v.006c-3.797 2.672-7.008 4.873-9.69 6.85v-.005c4.614-3.4 10.789-7.464 18.824-13.445 9.585-7.134 21.818-16.996 33.778-24.025 11.96-7.03 23.647-11.226 32.931-14.276 9.048-2.972 15.79-4.838 22.676-6.58zm-258.969.684c.461.273.917.554 1.387.81-.47-.256-.926-.537-1.387-.81m3.784 1.986c.42.194.83.41 1.26.588-.43-.179-.84-.394-1.26-.588m19.517.1c-.374.17-.744.348-1.125.505.381-.157.75-.336 1.125-.505m-271.406 3.115c29.661 22.624 76.046 39.053 100.078 39.219.808 1.893 1.56 3.568 2.176 4.863h.004c8.766 18.414 27.87 43.596 43.016 62.346l-.002.002c-15.146-18.75-34.248-43.929-43.014-62.342h-.004a134 134 0 0 1-2.176-4.864c-24.032-.165-70.417-16.592-100.078-39.216v-.006zm496.02 14.726c-3.335 6.093-6.873 13.145-10.202 18.627 3.363-5.535 6.832-12.468 10.202-18.627m-391.692 21.713a165 165 0 0 0 1.951 4.531l-.033-.07q-.436-.975-.861-1.957h-.006l.006-.002q-.523-1.207-1.028-2.428zm367.04 18.022c-3.104 4.368-6.064 9.205-9.415 13.494 3.4-4.347 6.27-9.065 9.414-13.494M952.95 529.684c12.875-.327 25.932.233 38.918 1.246-12.968-1.01-26.061-1.573-38.918-1.246m48.697 2.164c13.122 1.409 26.078 3.31 38.3 6.38-12.207-3.067-25.195-4.97-38.3-6.38m-86.44 1.558c-16.91 2.051-32.785 4.801-46.125 8.438 13.342-3.637 29.206-6.39 46.125-8.438m-46.505 8.53c-4.922 1.352-9.52 2.814-13.641 4.43 4.115-1.618 8.72-3.078 13.64-4.43m197.296 4.672c.01.002.01.006.016.008v.002-.002c0-.002-.01-.006-.012-.008zm3.977 2.365v.002zm-238.69 26.587a83.329 52.578 0 0 0 6.129 5.441 83.329 52.578 0 0 0 15.273 9.201 83.329 52.578 0 0 0 49.445 10.256 83.329 52.578 0 0 0 30.647-3.73 83.329 52.578 0 0 0 33.468-15.403 83.329 52.578 0 0 0 6.133-5.345 83.329 52.578 0 0 0 6.133 5.345 83.329 52.578 0 0 0 33.469 15.403 83.329 52.578 0 0 0 30.646 3.73 83.329 52.578 0 0 0 30.96-3.765 83.329 52.578 0 0 0 9.54-2.866 83.329 52.578 0 0 0 8.891-3.603v.002a83.329 52.578 0 0 1-8.89 3.601 83.329 52.578 0 0 1-9.542 2.866 83.329 52.578 0 0 1-30.959 3.767 83.329 52.578 0 0 1-30.646-3.732 83.329 52.578 0 0 1-33.469-15.403 83.329 52.578 0 0 1-6.133-5.343 83.329 52.578 0 0 1-6.133 5.343 83.329 52.578 0 0 1-33.468 15.403 83.329 52.578 0 0 1-30.647 3.732 83.329 52.578 0 0 1-49.445-10.258 83.329 52.578 0 0 1-15.273-9.2 83.329 52.578 0 0 1-6.13-5.442m-.721 3.64c-.031.226-.042.458-.068.686.015-.133.018-.27.035-.402q.018-.142.033-.284m-.252 3.348c-.007.436.013.877.027 1.318-.007-.182-.024-.367-.027-.548l.002.23-.006-.293c0 .02.004.042.004.063q-.005-.213-.006-.424v-.004c0-.115.005-.228.006-.342m.143 3.232c.093.883.206 1.77.394 2.668a26 26 0 0 1-.353-2.207c-.02-.155-.029-.307-.041-.46m.54 3.34.073.31-.024-.087c-.018-.074-.031-.148-.048-.223m261.057 1.09v.002a83.329 52.578 0 0 1-.029.012 83.329 52.578 0 0 0 .03-.014m-.451 1.61q-.036.13-.076.26c-.026.078-.06.154-.088.232q.085-.246.164-.492m-.787 2.107c-.043.107-.081.216-.129.322-.022.048-.05.095-.072.143.071-.154.134-.31.201-.465m-.604 1.27c-.065.125-.123.253-.19.378-.131.253-.248.51-.39.76q-.531.941-1.146 1.87a29 29 0 0 0 1.726-3.009m-118.11.25.026.001q-.078.001-.156.008c.043-.003.086-.01.129-.01m18.493.019c9.207 4.779 18.471 8.33 27.305 10.924-8.834-2.594-18.098-6.145-27.305-10.924m-18.103.04q.035.007.07.017c-.023-.008-.047-.011-.07-.018m-17.385.71c-3.671 2.063-8.09 4.137-12.81 6.174 4.707-2.033 9.148-4.116 12.81-6.174m-17.076 7.9c-2.75 1.104-5.586 2.075-8.547 3.104 2.915-1.015 5.837-2.016 8.547-3.104m52.783 2.707c4.244 2.194 8.495 4.09 12.715 5.79-4.222-1.7-8.469-3.594-12.715-5.79m16.943 7.338c2.579.95 5.14 1.849 7.668 2.635-2.54-.79-5.076-1.68-7.668-2.635M840.032 616.8c-.152.617-.26 1.352-.381 2.041.022-.2.036-.437.066-.592q.145-.754.315-1.449m194.34 4.656c2.803.509 5.64 1.046 8.242 1.377-2.197-.28-4.474-.619-6.817-1.023v-.002c-.445-.077-.976-.27-1.425-.352m8.244 1.377c8.122 1.035 14.853 1.455 20.562 1.055a46 46 0 0 0 5.383-.682q1.249.964 2.38 2.059a29 29 0 0 0-2.382-2.057c-1.69.323-3.478.547-5.38.68-5.71.4-12.442-.02-20.563-1.055m30.466 4.737a28.34 28.34 0 0 1 6.565 17.81v-.002a28.33 28.33 0 0 0-6.563-17.808zm1.412 13.632c.09.038.18.084.27.125-.09-.041-.18-.087-.27-.125m-6.478.248v.002a9 9 0 0 0-.445.665c0 .004 0 .006-.01.01a32 32 0 0 0-1.285 3.05l.04-.117a32 32 0 0 1 1.247-2.943q.21-.348.439-.658v-.008zm8.252.756q.12.082.238.168-.119-.086-.238-.168m.615.471c.144.115.29.22.434.344.089.076.173.186.262.265-.232-.207-.462-.422-.696-.609m-14.027 1.639q.036.06.066.127c.01.017.014.036.022.054a1.4 1.4 0 0 0-.088-.181m.16.412q.024.106.033.22c-.01-.075-.017-.15-.033-.22m2.365 3.176c-.073.235-.148.463-.219.703.023-.08.043-.166.066-.244.048-.16.103-.303.153-.46zm17.764 2.076h.014v.002h-.014zm.244.355v.008c1.231 1.783 2.372 3.546 3.375 5.389h.017l.113.21v.007l.084.154v.004c.361.68.669 1.402.989 2.113-.379-.842-.754-1.684-1.19-2.484a1.3 1.3 0 0 0-.58.176c.126-.076.298-.152.563-.178-1.003-1.842-2.145-3.604-3.375-5.387v-.002zm-5.805 2.338a41.314 66.848 11.895 0 1 4.62.543 41.314 66.848 11.895 0 1 .44.098v.002a41.314 66.848 11.895 0 0-.44-.098 41.314 66.848 11.895 0 0-4.62-.543zm-9.523 1.406a41.314 66.848 11.895 0 0-4.783 1.93v.002a41.314 66.848 11.895 0 0-.01 0c.01-.028.012-.055.02-.082-.01.027-.011.055-.018.082a41.314 66.848 11.895 0 1 .01-.002 41.314 66.848 11.895 0 1 4.779-1.93zm18.137 1.832c-.076.046-.134.095-.184.131a2 2 0 0 0-.309.28 3 3 0 0 0-.18.214c.057-.071.112-.144.18-.218q.054-.059.125-.125v-.002a2 2 0 0 1 .184-.153c.05-.036.108-.081.184-.127m-22.92.026c0 .012-.01.023-.012.035 0-.012.01-.023.012-.035m-1.06.613c-.244 1.602-.513 3.203-.774 4.807-.282 1.722-.754 6.128-1 7.789.246-1.659.716-6.063.998-7.785.26-1.605.53-3.208.773-4.81zm23.26.045a6 6 0 0 0-.146.205c-.234.34-.488.764-.787 1.285-.597 1.042-1.345 2.458-2.166 4.082-1.641 3.25-3.554 7.305-4.963 10.635-.873 2.066-1.416 3.004-2.129 4.502.716-1.507 1.253-2.433 2.13-4.506 1.408-3.33 3.32-7.386 4.962-10.635a95 95 0 0 1 2.166-4.082c.299-.52.553-.946.787-1.285q.073-.104.147-.201m2.95 2.607a31 31 0 0 1 1.236 3.633v.002c1.367 5.048 1.69 11.362.971 18.127v-.002c.72-6.765.396-13.079-.97-18.127a31 31 0 0 0-1.237-3.633m-46.678.649q1.41.05 2.813.18v.002a49 49 0 0 0-2.813-.18zm-6.506.273c-1.662.179-3.324.407-4.98.782-1.09.246-2.176.558-3.26.894.187-.058.372-.136.559-.191a43 43 0 0 1 7.084-1.46c.2-.023.398-.003.597-.025m26.243 4.306v.011-.008zm-29.799 3.612c-.466.088-.916.215-1.375.32.459-.105.91-.232 1.375-.32m-3.992 1.022c-1.083.338-2.134.752-3.176 1.191 1.042-.439 2.093-.853 3.176-1.191m-19.719 4.34c-.248.241-.488.518-.734.767.246-.249.486-.526.734-.767m29.152.753v.004c-6.81.251-13.024 2.31-18.508 5.91v-.003c5.483-3.6 11.696-5.66 18.506-5.91zm38.145 3.114v.004c0 .004.01.012.01.023l-.012-.025-.025.01.025-.012zm14.392 10.754c1.92 3.109 3.342 5.994 4.446 8.369-1.103-2.373-2.53-5.264-4.446-8.37m-89.37 1.142c-2.76 3.926-5.39 8.637-8.77 11.93 3.38-3.294 6.01-8.005 8.77-11.93m-3 2.063c-.679.468-1.37 1.055-2.044 1.488.674-.433 1.365-1.02 2.043-1.488m91.296.92v.004l-.17.66v-.004a104 104 0 0 1-1.328 4.623v.004a126 126 0 0 1-1.988 5.842c-2.651 7.225-6.284 15.293-10.219 22.72a220.782 170.428 0 0 1-.01.004c3.936-7.429 7.571-15.5 10.223-22.726 1.353-3.69 2.45-7.159 3.316-10.467l.17-.66zm6.961 7.351c.417.872.787 1.571 1.145 2.12-.356-.545-.731-1.256-1.145-2.12m-.017 6.701c.424.888.801 1.603 1.164 2.159-.361-.553-.742-1.277-1.164-2.159m6.268 5.827a220.782 170.428 0 0 1-10.584 6.127 220.782 170.428 0 0 0 10.584-6.127" style="fill:#f4d51f;fill-opacity:1;stroke-width:.136944;stroke-linecap:round;stroke-linejoin:round"/><g transform="translate(678.655 203.368)scale(2.19111)"><path d="m100.07 257.754-.086.01q.098.72.153 1.469v.035c.206 2.942-.123 6.072.564 10.16.69 4.103 2.416 9.23 4.637 13.846s4.946 8.746 7.152 11.402 3.869 3.828 5.448 4.533c1.578.705 2.916.9 4.222.117s2.696-2.732 3.799-4.707 1.93-3.915 2.436-6.453c.504-2.537.682-5.688.58-8.945s-.482-6.627-1.055-10.387c-.39-2.558-.83-5.181-2.633-7.51h-.014c-.313 0-.42.096-.556.174a3 3 0 0 0-.405.282 7.5 7.5 0 0 0-.859.818c-1.61 1.778-4.37 2.532-7.781 2.176-3.41-.357-7.413-1.833-11.31-4.377l-3.884-2.535a.68.68 0 0 0-.408-.108" style="opacity:1;fill:url(#A);fill-opacity:1;stroke:none;stroke-width:.5;stroke-linecap:round;stroke-linejoin:round;stroke-dasharray:none;stroke-opacity:1"/><path d="m121.092 286.57.006.014-.004-.014zm.006.014c.216.648.794 2.733 1.06 3.52.238.703.478 1.403.707 2.107.55 1.687 1.031 3.388 1.239 5.16q.003.042.002.082v.004c.325-.414.644-.867.95-1.34q-.12-.23-.237-.47c-.11-.227-.208-.485-.317-.72a56 56 0 0 1-1.11-2.525c-.003-.01-.01-.017-.013-.027-.844-2.087-1.615-4.215-2.281-5.79" style="stroke-width:.0625;stroke-linecap:round;stroke-linejoin:round"/><path d="M11.713 102.998c-.33 2.42.058 5.28 1.129 9.357 10.035 29.41 36.584 51.44 60.353 73.116.484-4.759 1.307-6.115 5.68-9.016.996-2.285 1.898-4.166 2.895-5.754 2.302-3.67 4.72-6.257 8.869-9.834.908-.782 1.492-1.311 1.636-1.918.145-.606-.086-1.485-1.199-3.056-2.835-4.002-4.795-5.663-7.812-8.872s-7.047-7.921-13.938-17.949c-2.547-3.706-4.753-6.784-7.888-9.267-5.02-3.976-26.26-13.668-49.725-16.807" style="baseline-shift:baseline;display:inline;overflow:visible;vector-effect:none;fill:url(#B);stroke-width:1.11081;stroke-linecap:round;stroke-linejoin:round;stop-color:#000"/><path d="M55.729 116.385c.95 2.668 2.141 5.485 2.894 7.066v.002l.002.002c4.166 8.752 13.45 20.853 20.48 29.5 1.957-.785 2.926-3.909 5.249-4.6l.146-.039c-.394-.407-.804-.835-1.236-1.294-3.018-3.209-7.047-7.922-13.938-17.95-2.547-3.706-4.753-6.784-7.888-9.267-.366-.29-.82-.61-1.352-.955-1.115-.724-2.584-1.56-4.357-2.465" style="baseline-shift:baseline;display:inline;overflow:visible;vector-effect:none;fill:#92c1db;fill-opacity:.490196;stroke-width:1.11081;stroke-linecap:round;stroke-linejoin:round;stop-color:#000"/><path d="M87.8 151.775c-4.47 1.744-8.582 4.115-12.054 7.414-1.42 1.39-3.436 3.662-4.848 6.457s-2.222 6.083-1.324 9.614c.779 3.06 2.18 5.445 4.076 7.285.634-2.579 1.91-3.89 5.225-6.09.996-2.285 1.898-4.166 2.895-5.754 2.302-3.67 4.72-6.257 8.869-9.834.908-.782 1.492-1.311 1.636-1.918.145-.606-.086-1.485-1.199-3.056a44 44 0 0 0-3.275-4.118" style="baseline-shift:baseline;display:inline;overflow:visible;vector-effect:none;fill:#8ebedc;fill-opacity:.571758;stroke-width:1.11081;stroke-linecap:round;stroke-linejoin:round;stop-color:#000"/><path d="M69.273 170.885a12.2 12.2 0 0 0 .301 4.375c.779 3.06 2.183 5.445 4.078 7.285.5-2.03 1.395-3.274 3.37-4.783l-1.155-1.024a2364 2364 0 0 1-6.594-5.853" style="baseline-shift:baseline;display:inline;overflow:visible;vector-effect:none;fill:#7298c9;fill-opacity:.507969;stroke-width:1.11081;stroke-linecap:round;stroke-linejoin:round;stop-color:#000"/><path d="m11.713 102.998-.018.137c15.874 12.24 42.558 20.574 50.657 17.431q-.445-.39-.915-.761c-5.019-3.976-26.258-13.668-49.724-16.807" style="baseline-shift:baseline;display:inline;overflow:visible;vector-effect:none;fill:url(#C);fill-opacity:1;stroke-width:1.11081;stroke-linecap:round;stroke-linejoin:round;stop-color:#000"/><path d="M11.713 102.998c-.33 2.42.058 5.28 1.129 9.357 10.035 29.41 36.584 51.44 60.353 73.116.406-3.99 1.05-5.587 3.826-7.71l-1.154-1.023c-34.928-30.904-46.48-42.312-64.096-73.732z" style="baseline-shift:baseline;display:inline;overflow:visible;vector-effect:none;fill:url(#D);stroke-width:1.11081;stroke-linecap:round;stroke-linejoin:round;stop-color:#000"/><path d="M191.376 179.917c20.448-21.379 43.961-42.99 52.71-72.214.972-4.213 1.372-7.184.96-9.718-37.238 5.462-47.056 19.53-67.859 51.157-1.932 3.107-1.083 3.9.445 5.4 6.973 6.847 8.15 9.562 13.744 25.375" style="baseline-shift:baseline;display:inline;overflow:visible;vector-effect:none;fill:url(#E);stroke-linecap:round;stroke-linejoin:round;stop-color:#000"/><path d="M201.535 116.834c-5.098 4.917-9.752 10.86-14.754 18.016-2.99 4.85-5.921 9.745-9.388 13.98l-.205.313c-.386.62-.661 1.147-.842 1.607.75.272 1.54.56 2.25.846 5.616-6.907 12.154-14.86 16.056-20.826 2.639-4.034 5.169-9.133 6.883-13.936" style="baseline-shift:baseline;display:inline;overflow:visible;vector-effect:none;fill:#92c1db;fill-opacity:.49;stroke-linecap:round;stroke-linejoin:round;stop-color:#000"/><path d="M245.045 97.984c-28.657 4.203-41.075 13.505-54.758 31.983.656-.198 1.494-.982 2.567-1.832 2.19-1.736 5.356-3.748 9.73-7.004s9.958-7.757 15.416-10.965 10.792-5.124 15.03-6.516a147 147 0 0 1 10.607-3.072c.528-.133 1.059-.264 1.57-.414.003-.77-.05-1.491-.162-2.18" style="baseline-shift:baseline;display:inline;overflow:visible;vector-effect:none;fill:url(#F);fill-opacity:1;stroke-linecap:round;stroke-linejoin:round;stop-color:#000"/><path d="m245.044 97.985-.26.039c-15.016 30.62-24.697 41.531-54.343 71.41-.747.753-1.443 1.454-2.088 2.12.877 2.32 1.853 5.055 3.023 8.362 20.448-21.379 43.961-42.99 52.71-72.213.971-4.213 1.37-7.185.958-9.718" style="baseline-shift:baseline;display:inline;overflow:visible;vector-effect:none;fill:url(#G);fill-opacity:1;stroke-linecap:round;stroke-linejoin:round;stop-color:#000"/><path d="M148.01 158.809c-7.531-.128-15.219.793-25.348 3.347-13.505 3.406-33.114 9.012-42.281 13.324-6.482 4.125-6.822 4.984-7.393 12.4-.346 4.975-.55 12.65.233 19.82.783 7.169 2.55 13.87 5.392 20.42 2.842 6.548 6.766 12.953 11.018 18.464s8.837 10.131 12.918 13.172c4.08 3.04 7.667 4.523 10.844 5.226s5.907.595 7.716-.107 2.912-2.055 4.323-3.508c1.41-1.453 3.014-2.843 5.007-4.035 1.994-1.192 4.339-2.17 6.569-2.834s4.392-1.021 6.763-.846c2.372.176 4.854.856 7.856 1.54 3.002.683 6.517 1.37 9.947 1.25s6.857-1.043 10.381-2.672 7.111-3.952 10.492-7.168 6.569-7.344 8.936-11.727 3.93-9.043 4.933-13.984 1.44-10.151 1.223-15.174c-.218-5.023-1.094-9.904-1.916-14.563-.822-4.658-1.581-9.049-2.271-12.095a46 46 0 0 0-.594-2.358c-2.389-6.716-3.952-10.868-5.631-14.03l-.098-.18a10.5 10.5 0 0 0-1.496-.71c-6.284-2.412-19.721-1.503-29.96-2.517a92 92 0 0 0-7.563-.455" style="baseline-shift:baseline;display:inline;overflow:visible;vector-effect:none;fill:#b5e3ef;stroke-linecap:round;stroke-linejoin:round;stop-color:#000"/><path d="M170.021 182.774c-7.173 0-12.988 5.815-12.988 12.989 0 2.578.768 5.097 2.205 7.238a20.3 20.3 0 0 1 6.475-.803c2.901.1 5.768.78 8.475 1.871a32 32 0 0 1 3.896 1.875 12.99 12.99 0 0 0 4.926-10.181c0-7.174-5.815-12.989-12.989-12.989m0 25.977c1.453 0 2.895-.244 4.266-.72zm21.174 12.973" style="opacity:1;fill:url(#H);fill-opacity:1;stroke:none;stroke-width:1;stroke-linecap:round;stroke-linejoin:round;stroke-dasharray:none;stroke-opacity:1"/><path d="M125.14 145.569c-16.063 1.901-36.88 1.727-49.394 13.621-1.42 1.389-3.436 3.661-4.848 6.457s-2.222 6.082-1.324 9.613c1.33 5.23 4.486 8.486 8.807 10.424 4.32 1.938 9.825 2.498 15.662 2.113 11.675-.77 24.661-5.309 32.125-9.503 3.275-1.841 5.255-3.556 7.293-5.319a.7.7 0 0 1 .861-.04c2.259 1.597 4.474 3.164 8.043 5.017 8.404 4.362 16.912 6.481 23.742 7.351 11.225 1.43 16.633.286 20.88-6.02 1.735-2.577 2.444-5.272 1.449-8.81-.996-3.538-3.817-8.138-6.858-11.34-7.508-7.907-36.058-14.087-56.437-13.564" style="baseline-shift:baseline;display:inline;overflow:visible;vector-effect:none;fill:url(#I);stroke-linecap:round;stroke-linejoin:round;stop-color:#000"/><path d="M195.418 224.68a100.763 77.782 0 0 1-64.006 17.709 100.763 77.782 0 0 1-51.178-10.78c2.633 5.318 5.904 10.448 9.397 14.975 4.252 5.51 8.837 10.131 12.918 13.172 4.08 3.04 7.667 4.523 10.844 5.226s5.907.595 7.716-.107 2.912-2.055 4.323-3.508c1.41-1.453 3.014-2.843 5.007-4.035 1.994-1.192 4.339-2.17 6.569-2.834s4.392-1.021 6.763-.846c2.372.176 4.854.856 7.856 1.54 3.002.683 6.517 1.37 9.947 1.25s6.857-1.043 10.381-2.672 7.111-3.952 10.492-7.168 6.569-7.344 8.936-11.727c1.753-3.246 3.065-6.644 4.035-10.195" style="baseline-shift:baseline;display:inline;overflow:visible;vector-effect:none;fill:url(#J);fill-opacity:1;stroke-linecap:round;stroke-linejoin:round;stop-color:#000"/><path d="M164.572 205.641c-3.49-.062-6.656.895-9.416 2.708-2.76 1.812-5.113 4.478-7.39 6.431q-.489.42-.973.797c-1.602 2.278-3.108 5.138-5.344 6.508 2.08-1.173 4.164-2.381 6.317-4.227 2.277-1.953 4.63-4.619 7.39-6.431s5.927-2.77 9.416-2.707c3.49.062 7.303 1.144 11.032 3.013 3.728 1.87 7.371 4.525 9.93 6.81 2.557 2.287 4.029 4.205 4.843 5.2q.106.13.2.242.137.254.267.44c-.844-1.215-1.868-4.663-4.696-8.397a39 39 0 0 0-.615-.562c-2.558-2.286-6.201-4.942-9.93-6.81-3.728-1.87-7.541-2.952-11.03-3.015m26.623 19.161" style="baseline-shift:baseline;display:inline;overflow:visible;vector-effect:none;fill:url(#K);stroke-linejoin:round;stop-color:#000"/><path d="M165.713 202.198c-6.383-.221-12.937 2.358-18.338 9.51l-.004.004c-1.831 2.361-3.42 5.762-5.922 7.295 2.08-1.173 4.164-2.381 6.317-4.227 2.277-1.953 4.63-4.619 7.39-6.431s5.927-2.77 9.416-2.707c3.49.062 7.303 1.144 11.031 3.013 3.729 1.87 7.372 4.525 9.93 6.81 2.558 2.287 4.03 4.205 4.844 5.2q.106.13.2.242.137.254.267.44c-1.555-2.24-3.722-12.063-16.657-17.278-2.706-1.09-5.573-1.77-8.474-1.87m25.482 19.526" style="baseline-shift:baseline;display:inline;overflow:visible;vector-effect:none;fill:url(#L);stroke-linejoin:round;stop-color:#000"/><path d="M184.605 197.693a.2.2 0 0 0-.091.13l-.338 1.347c-.35 1.396-.418 1.652-.655 2.467a84 84 0 0 1-1.345 4.215c-.336.965-.585 1.72-.875 2.636-.119.375-.244.77-.338 1.075-.047.151-.085.28-.113.373l-.044.144-.004.016-.002.011-.004.041.012.07.2-.07.08.198.054-.034.03-.029.01-.014.013-.021.018-.031.052-.102c.043-.083.1-.198.163-.324a28 28 0 0 0 .814-1.754 80 80 0 0 1 2.02-4.334c.738-1.478 1.251-2.417 1.51-2.785.183-.263.321-.36.437-.385q.038-.008.07-.017l.04-.014.034-.018c-.51-.96-1.104-1.865-1.748-2.79z" style="opacity:1;fill:#0a1d38;fill-opacity:1;stroke:none;stroke-width:.015625;stroke-linecap:round;stroke-linejoin:round;stroke-dasharray:none;stroke-opacity:1"/><path d="M177.703 193.8c-.79.274-1.62.69-2.451 1.18l.002.004.002.002.002.002q.029.03.053.065v.002a.7.7 0 0 1 .101.217l.008.03.002.015.012.082c.085 1.782-.113 3.538-.379 5.293-.111.731-.234 1.463-.353 2.195-.135.825-.366 3-.473 3.658.401-1.665.815-3.896 1.308-6.1l.008-.029c.207-.921.44-1.795.682-2.672.069-.249.123-.52.195-.761.128-.426.264-.826.403-1.22.036-.102.068-.217.105-.318.18-.481.368-.933.569-1.341l.033-.053a4 4 0 0 1 .172-.25z" style="opacity:1;fill:#0a1d38;fill-opacity:1;stroke-width:.0625;stroke-linecap:round;stroke-linejoin:round"/><path d="M179.363 193.46c-.522.018-1.081.14-1.662.34q-.105.144-.203.304c-1.573 3.2-2.439 8.994-3.27 12.44.107-.656.338-2.832.473-3.657.405-2.488.853-4.963.733-7.489a.68.68 0 0 0-.182-.418 25 25 0 0 0-.518.315c-1.981 1.235-3.885 2.724-5.058 3.658-1.174.935-1.497 1.18-3.155 4.174-1.657 2.993-4.549 8.633-6.587 13.725-2.04 5.092-3.234 9.645-3.698 14.353s-.19 9.592.555 13.043 1.95 5.482 3.178 6.87c1.227 1.386 2.382 2.04 3.674 1.976s2.85-.897 4.521-2.496c1.67-1.6 3.454-3.956 5.47-6.784 2.017-2.827 4.254-6.102 6.366-9.89s4.105-8.105 5.5-11.908c1.395-3.804 2.195-7.096 2.523-10.184s.18-5.97-.443-8.273a14.8 14.8 0 0 0-1.316-3.24c-.2.017-.289.095-.35.14a1 1 0 0 0-.14.127 2 2 0 0 0-.17.219 9 9 0 0 0-.36.586 43 43 0 0 0-.988 1.863 85 85 0 0 0-2.266 4.853c-.432 1.023-.683 1.434-1.053 2.229.453-1.48.958-3.086 1.422-4.395.628-1.766 1.43-4.375 1.805-5.877l.553-2.209-.166-.24c-1.302-1.866-2.761-3.673-4.291-4.064a3.2 3.2 0 0 0-.897-.09" style="opacity:1;fill:url(#M);stroke-width:.25;stroke-linecap:round;stroke-linejoin:round"/><path d="M125.14 140.432c-16.063 1.9-36.88 1.727-49.394 13.62-1.42 1.39-3.436 3.662-4.848 6.458-1.411 2.795-2.222 6.082-1.324 9.613 1.33 5.23 4.486 8.486 8.807 10.424 4.32 1.938 9.825 2.498 15.662 2.113 11.675-.77 24.661-5.31 32.125-9.504 3.275-1.84 5.255-3.556 7.293-5.318a.7.7 0 0 1 .861-.041c2.259 1.597 4.474 3.165 8.043 5.017 8.404 4.363 16.912 6.482 23.742 7.352 11.225 1.43 16.633.286 20.88-6.02 1.735-2.577 2.444-5.272 1.449-8.81-.996-3.538-3.817-8.138-6.858-11.34-7.508-7.907-36.058-14.087-56.437-13.564" style="baseline-shift:baseline;display:inline;overflow:visible;vector-effect:none;fill:url(#N);stroke-linecap:round;stroke-linejoin:round;stop-color:#000"/><path d="M69.654 163.727c-.53 1.99-.653 4.143-.08 6.396 1.33 5.23 4.486 8.486 8.807 10.424 4.32 1.938 9.825 2.498 15.662 2.113 11.675-.77 24.661-5.31 32.125-9.504 3.275-1.84 5.255-3.556 7.293-5.318a.7.7 0 0 1 .861-.041c2.259 1.597 4.474 3.165 8.043 5.017 8.404 4.363 16.912 6.482 23.742 7.352 11.225 1.43 16.633.286 20.88-6.02.804-1.194 1.387-2.413 1.683-3.73a38.03 23.996 0 0 1-22.557 4.678 38.03 23.996 0 0 1-32.06-11.172 38.03 23.996 0 0 1-32.06 11.172 38.03 23.996 0 0 1-32.339-11.367" style="baseline-shift:baseline;display:inline;overflow:visible;vector-effect:none;fill:url(#O);fill-opacity:1;stroke-linecap:round;stroke-linejoin:round;stop-color:#000"/><g transform="translate(0 2.359)"><path d="M128.51 22.234a88.4 88.4 0 0 0-37.051 8.12c-21.09 9.733-32.3 27.047-35.963 45.568s.298 38.234 9.621 52.488c3.902 5.965 9.473 12.842 15.088 19.748 10.672-4.28 27.213-7.272 44.936-7.726 17.809-.457 36.667 1.676 51.646 7.728 5.616-6.907 11.19-13.784 15.092-19.75 9.323-14.254 13.284-33.967 9.621-52.488-3.663-18.52-14.873-35.835-35.963-45.568a88.4 88.4 0 0 0-37.027-8.12" style="baseline-shift:baseline;display:inline;overflow:visible;vector-effect:none;fill:url(#P);stroke-linecap:round;stroke-linejoin:round;stop-color:#000"/><path d="M202.836 91.52c-29.23 48.805-117.613 50.991-148.615.062.01.424.043.845.06 1.268.097 2.445.314 4.873.645 7.275.102.742.188 1.487.312 2.223.487 2.887 1.105 5.736 1.914 8.498.124.423.29.824.422 1.244a69 69 0 0 0 2.596 6.94c.301.693.605 1.384.928 2.062 1.212 2.547 2.52 5.025 4.02 7.318 3.9 5.965 9.472 12.842 15.087 19.748 7.415-2.974 18.1-4.933 29.61-6.244 4.915-.76 9.995-1.346 15.326-1.482 17.809-.457 36.667 1.676 51.646 7.728 5.616-6.907 11.19-13.784 15.092-19.75 4.319-9.274 8.797-19.344 10.36-30.224.232-2.087.53-4.162.587-6.276z" style="baseline-shift:baseline;display:inline;overflow:visible;vector-effect:none;fill:url(#Q);fill-opacity:1;stroke-linecap:round;stroke-linejoin:round;stop-color:#000"/><path d="M128.51 22.234a88.4 88.4 0 0 0-37.051 8.12c-5.003 2.309-9.45 5.044-13.371 8.12l.004.003c8.929 1.427 16.328 7.44 22.082 15.056l3.62-.353c2.593.012 25.277 2.394 61.757-3.787 4.175-4.521 9.045-8.111 14.582-9.932-4.214-3.48-9.065-6.555-14.596-9.107a88.4 88.4 0 0 0-37.027-8.12" style="fill:url(#R);stroke-width:.660968;stroke-linecap:round;stroke-linejoin:round"/><path d="m104.89-4.998 11.43 23.558 23.828-3.367c-3.759 3.807-6.985 8.432-9.656 13.283-3.81 6.919-6.977 15.732-8.478 21.978l-17.123-2.222-17.17.361c-1.531-6.095-4.226-13.45-7.896-20.117-2.65-4.813-5.846-9.403-9.567-13.193l23.2 3.277z" style="display:inline;fill:url(#S);stroke-width:7;stroke-linecap:round;stroke-linejoin:round" transform="matrix(-1.02832 0 0 1 239.274 32.582)"/><path d="M131.314 70.908q-.402.016-.806.069c-1.435.185-2.865.69-4.367 1.449-3.06 1.545-5.51 3.682-10.004 8.637-1.019 1.122-1.865 1.068-2.334 1.973.354 1.72.665 4.292.806 5.747.32.403.696.817 1.123 1.266l1.862 3.753c.404.424 1.075.44 1.498.035l2.276-2.18c4.386-4.203 9.263-6.925 14.456-4.366 1.492.735 3.796 2.37 4.805 3.387.59.595 1.176 2.264 1.624 2.668q.333.303.584.502c.083.066.16.123.252.183.046.03.094.06.171.098s.159.106.46.117c.651.024.63-.161.73-.23.1-.07.173-.131.252-.202.158-.14.33-.31.527-.517.395-.413.861-2.09 1.369-2.697.392-.47.733-.927 1.023-1.38.146-1.731.976-5.84 1.436-7.965-.072-.15-.68 1.846-.78 1.696-.674-1.021-1.83-2.181-4.107-4.508-2.734-2.794-5.02-4.77-7.203-6.015-1.91-1.09-3.774-1.596-5.653-1.52" style="fill:#000;fill-opacity:1;stroke-width:3.27162;stroke-linecap:round;stroke-linejoin:round"/><ellipse cx="181.955" cy="76.299" rx="4.586" ry="9.172" style="opacity:.3;fill:#fff;fill-opacity:1;stroke:none;stroke-width:3.0319;stroke-linecap:round;stroke-linejoin:round;stroke-dasharray:none;stroke-opacity:1"/><path d="M184.926 90.34c.38.68.076 2.058-.475 3.703s-1.35 3.56-2.327 5.123c-.978 1.563-2.134 2.775-3.325 3.676s-2.417 1.495-3.615 1.426-2.368-.799-3.394-1.976-1.908-2.803-2.293-4.854-.275-4.53-.11-6.48c.165-1.948.385-3.366.812-4.172s1.06-.998 1.59-.447c1.515 1.573 1.027 6.034 1.867 8.166.537 1.363 1.638 2.258 2.726 2.361s2.162-.585 3.119-1.77c1.629-1.762 2.4-7.056 5.425-4.757" style="opacity:.3;fill:#fff;fill-opacity:1;stroke:none;stroke-width:2.64567;stroke-linecap:round;stroke-linejoin:round;stroke-dasharray:none;stroke-opacity:1"/><g transform="scale(-1 1)rotate(-5.166 -829.287 4346.988)"><path d="M292.827 151.278c-7.431 10.895-7.836 29.892-.745 34.86 7.724 5.41 16.612-3.669 18.674-19.073 2.724-15.465-9.036-28.827-17.93-15.787" style="fill:#000"/><ellipse cx="303.92" cy="158.067" rx="4.586" ry="9.172" style="fill:#fff;fill-opacity:1;stroke:none;stroke-width:3.0319;stroke-linecap:round;stroke-linejoin:round;stroke-dasharray:none;stroke-opacity:1"/><path d="M293.377 168.39c-.397-.084-.799.18-1.097.748-.424.807-.64 2.226-.8 4.175-.158 1.949-.26 4.428.132 6.479 1.296 6.776 6.052 8.033 10.529 2.784 1.354-1.588 2.491-3.795 3.316-5.567.826-1.773 1.34-3.113 1.37-4.024.022-.684-.227-1.126-.663-1.214a1.04 1.04 0 0 0-.494.035c-2.096.612-3.891 4.725-5.68 6.157-2.551 2.043-3.776.02-4.229-1.118-.846-2.129-.373-6.591-1.893-8.16a1 1 0 0 0-.412-.274q-.04-.013-.08-.021" style="fill:url(#T);fill-opacity:1;stroke:none;stroke-width:2.64567;stroke-linecap:round;stroke-linejoin:round;stroke-dasharray:none;stroke-opacity:1"/></g><path d="M128.75 60.563c-10.58 3.902-15.69 17.999-14.947 22.062.198 1.083 1.177-.27 2.771-2.072 3.473-3.902 7.362-7.695 12.51-9.115 1.483-.316 2.883-.3 4.291 0 5.148 1.42 9.037 5.213 12.51 9.115 1.594 1.802 2.573 3.155 2.771 2.072.743-4.063-4.367-18.16-14.947-22.062-1.949-.72-3-.723-4.959 0" style="display:inline;opacity:1;fill:url(#U);fill-opacity:1;stroke:none;stroke-width:1.13386;stroke-linecap:round;stroke-linejoin:round;stroke-dasharray:none;stroke-opacity:1" transform="matrix(1.01055 0 0 1.05626 -1.2 -4.238)"/><path d="M117.506 94.842c0-.481-.004-1.443.756-2.736s2.28-2.919 3.79-4.169 3.01-2.125 5.115-2.604c2.104-.479 4.813-.562 7.594.47 2.781 1.03 5.635 3.176 7.338 5.027 1.702 1.852 2.253 3.408 2.087 5.377-.167 1.969-1.051 4.35-3.723 6.707s-7.13 4.69-10.858 4.753c-3.73.062-6.73-2.146-8.624-4.582s-2.684-5.099-3.079-6.43c-.394-1.332-.395-1.332-.396-1.813" style="opacity:1;fill:url(#V);fill-opacity:1;stroke:none;stroke-width:1.13386;stroke-linecap:round;stroke-linejoin:round;stroke-dasharray:none;stroke-opacity:1"/><path d="M128.908 111.887c-10.691-4.122-15.855-19.012-15.105-23.304.2-1.144 1.19.286 2.801 2.19 3.51 4.12 7.44 8.127 12.642 9.627a9.76 9.76 0 0 0 4.336 0c5.202-1.5 9.133-5.507 12.642-9.628 1.61-1.903 2.6-3.333 2.8-2.189.75 4.292-4.413 19.182-15.104 23.304-1.97.76-3.032.763-5.012 0" style="display:inline;opacity:1;fill:url(#W);fill-opacity:1;stroke:none;stroke-width:1.17145;stroke-linecap:round;stroke-linejoin:round;stroke-dasharray:none;stroke-opacity:1"/><g transform="rotate(-.102 -45754.349 68247.219)"><path d="M292.827 151.278c-7.431 10.895-7.836 29.892-.745 34.86 7.724 5.41 16.612-3.669 18.674-19.073 2.724-15.465-9.036-28.827-17.93-15.787" style="fill:#000"/><ellipse cx="303.92" cy="158.067" rx="4.586" ry="9.172" style="fill:#fff;fill-opacity:1;stroke:none;stroke-width:3.0319;stroke-linecap:round;stroke-linejoin:round;stroke-dasharray:none;stroke-opacity:1"/><path d="M293.377 168.39c-.397-.084-.799.18-1.097.748-.424.807-.64 2.226-.8 4.175-.158 1.949-.26 4.428.132 6.479 1.296 6.776 6.052 8.033 10.529 2.784 1.354-1.588 2.491-3.795 3.316-5.567.826-1.773 1.34-3.113 1.37-4.024.022-.684-.227-1.126-.663-1.214a1.04 1.04 0 0 0-.494.035c-2.096.612-3.891 4.725-5.68 6.157-2.551 2.043-3.776.02-4.229-1.118-.846-2.129-.373-6.591-1.893-8.16a1 1 0 0 0-.412-.274q-.04-.013-.08-.021" style="fill:url(#X);fill-opacity:1;stroke:none;stroke-width:2.64567;stroke-linecap:round;stroke-linejoin:round;stroke-dasharray:none;stroke-opacity:1"/></g></g><circle cx="102.427" cy="203.332" r="12.988" style="opacity:1;fill:url(#Y);fill-opacity:1;stroke:none;stroke-width:1;stroke-linecap:round;stroke-linejoin:round;stroke-dasharray:none;stroke-opacity:1"/><path d="M179.363 193.46c-.522.018-1.081.14-1.662.34a4 4 0 0 0-.203.304c-.81 1.65-1.433 3.99-1.96 6.341a18.855 30.509 11.895 0 1 8.638-1.275 18.855 30.509 11.895 0 1 .2.045l.34-1.36-.165-.24c-1.302-1.866-2.761-3.673-4.291-4.064a3.2 3.2 0 0 0-.897-.09m-4.111 1.52q-.259.154-.518.315c-1.981 1.235-3.885 2.724-5.058 3.658-1.174.935-1.497 1.18-3.155 4.174-1.657 2.993-4.549 8.633-6.587 13.725-2.04 5.092-3.234 9.645-3.698 14.353s-.19 9.592.555 13.043 1.95 5.482 3.178 6.87c1.127 1.274 2.194 1.93 3.361 1.978a18.855 30.509 11.895 0 1-3.893-27.96 18.855 30.509 11.895 0 1 15.618-24.445c.266-1.753.463-3.51.379-5.293a.68.68 0 0 0-.182-.418" style="opacity:1;fill:url(#Z);fill-opacity:.411886;stroke-width:.25;stroke-linecap:round;stroke-linejoin:round"/><path d="M115.457 286.88c.107.658.338 2.834.473 3.66.119.731.242 1.463.353 2.194.266 1.754.464 3.511.38 5.293q-.005.043-.013.082l-.002.012v.002l-.008.031a.6.6 0 0 1-.054.14 1 1 0 0 1-.047.077v.002l-.045.057a10.7 10.7 0 0 0 2.404 1.15 4 4 0 0 1-.138-.205l-.034-.053c-.2-.408-.39-.86-.568-1.342-.037-.1-.07-.215-.105-.318a26 26 0 0 1-.403-1.219c-.072-.24-.126-.512-.195-.761a56 56 0 0 1-.682-2.672l-.008-.03c-.494-2.203-.907-4.434-1.308-6.1" style="stroke-width:.0625;stroke-linecap:round;stroke-linejoin:round"/></g><path d="M99.764 0 83.831 9.063a10.53 10.53 0 0 0-5.324 9.154 5.99 5.99 0 0 0 6.113 5.456l8.161.527-.614 9.634-5.828.156a17.9 17.9 0 0 0-10.212 3.535 4.025 4.025 0 0 0 .516 6.408 16.3 16.3 0 0 0 9.697 3.162l5.05.076v4.962l-2.985.12a4.73 4.73 0 0 0-4.54 4.818 4.564 4.564 0 0 0 4.7 4.12l2.503.109.323 5.883-15.842-7.435-1.698 16.908-4.963-2.327 1.183-2.37a5.09 5.09 0 0 0-1.864-6.593 4.12 4.12 0 0 0-5.475 2.047l-1.765 2.874-4.817-2.941 2.355-4.205a20.54 20.54 0 0 0 2.612-10.61 3.88 3.88 0 0 0-5.428-3.295l-.145.057a16.1 16.1 0 0 0-8.097 6.981l-2.613 4.557-9.004-4.188 3.356-6.379a6.45 6.45 0 0 0-2.416-8.547 9.9 9.9 0 0 0-9.985.278l-15.478 8.894-.23 18.253a10.26 10.26 0 0 0 5.278 9.098 6.106 6.106 0 0 0 7.837-2.63l4.186-6.244 8.697 4.801-3.043 5.21a17.8 17.8 0 0 0-2.357 10.54 3.966 3.966 0 0 0 5.714 2.722 15.1 15.1 0 0 0 7.927-7.018l2.622-4.923 5.431 2.78-1.94 3.19a4.53 4.53 0 0 0 1.6 6.277 4.29 4.29 0 0 0 5.893-1.934l1.576-3.022 5.594 3.249L51.187 102.1l14.905 10.863-5.594 3.266-1.58-3.036a4.42 4.42 0 0 0-6.142-1.782 4.44 4.44 0 0 0-1.382 6.16l1.975 3.313-5.43 2.635-2.623-4.923a15.15 15.15 0 0 0-7.957-7.028 4.268 4.268 0 0 0-5.764 3.63 16.36 16.36 0 0 0 2.44 9.64l3.04 5.196-8.697 4.817-4.186-6.244a6.577 6.577 0 0 0-8.729-2.047 9.58 9.58 0 0 0-4.385 8.678l.23 18.075 15.479 8.907a10.61 10.61 0 0 0 10.61-.014 6.023 6.023 0 0 0 1.816-8.121l-3.383-6.512 9.004-4.186 2.613 4.556a16.1 16.1 0 0 0 8.097 6.982l.145.057a3.986 3.986 0 0 0 5.436-3.6 20 20 0 0 0-2.616-10.29l-2.359-4.22 4.817-2.958 1.769 2.888a4.597 4.597 0 0 0 6.35 1.502 4.55 4.55 0 0 0 .985-6.045l-1.183-2.37 4.963-2.328 1.698 16.909 15.842-7.453-.323 6.062-2.5.057a4.827 4.827 0 0 0-4.715 4.736 4.36 4.36 0 0 0 4.555 4.148l2.983.063v4.963l-5.05.069a17.1 17.1 0 0 0-10.168 3.521 4.066 4.066 0 0 0 .512 6.471 16.85 16.85 0 0 0 9.654 3.128l5.828.164.614 9.619-8.166.62a6.61 6.61 0 0 0-6.108 6.588 9.5 9.5 0 0 0 5.32 7.918l15.937 9.09 15.937-9.09a10.55 10.55 0 0 0 5.322-9.16 5.97 5.97 0 0 0-6.108-5.347l-8.167-.62.614-9.618 5.828-.164a17.95 17.95 0 0 0 10.212-3.543 4.03 4.03 0 0 0-.512-6.413 16.23 16.23 0 0 0-9.701-3.164l-5.05-.069v-4.963l2.983-.063a4.644 4.644 0 0 0 4.544-4.728 4.534 4.534 0 0 0-4.706-4.156l-2.498-.057-.324-6.062 15.843 7.453 1.697-16.909 4.963 2.327-1.183 2.37a5.09 5.09 0 0 0 1.865 6.593 4.116 4.116 0 0 0 5.47-2.049l1.77-2.888 4.816 2.958-2.359 4.22a20.57 20.57 0 0 0-2.607 10.612 3.876 3.876 0 0 0 5.427 3.278l.146-.057a16.1 16.1 0 0 0 8.097-6.982l2.612-4.556 9.005 4.186-3.384 6.512a6.41 6.41 0 0 0 2.477 8.504 9.96 9.96 0 0 0 9.95-.369l15.479-8.907.23-18.075a10.41 10.41 0 0 0-5.24-9.166 6.07 6.07 0 0 0-7.874 2.535l-4.187 6.244-8.697-4.817 3.04-5.195a17.76 17.76 0 0 0 2.36-10.538 3.966 3.966 0 0 0-5.714-2.722 15.1 15.1 0 0 0-7.927 7.017l-2.622 4.923-5.431-2.635 1.975-3.312a4.58 4.58 0 0 0-1.631-6.305 4.285 4.285 0 0 0-5.893 1.926l-1.58 3.036-5.594-3.266 14.905-10.863-14.905-10.863 5.594-3.25 1.576 3.023a4.43 4.43 0 0 0 6.15 1.785 4.39 4.39 0 0 0 1.343-6.129l-1.94-3.188 5.43-2.781 2.623 4.923a15.15 15.15 0 0 0 7.957 7.029 4.268 4.268 0 0 0 5.764-3.63 16.4 16.4 0 0 0-2.437-9.643l-3.043-5.21 8.697-4.8 4.186 6.243a6.66 6.66 0 0 0 8.767 2.114 9.38 9.38 0 0 0 4.348-8.582l-.23-18.253-15.478-8.895a10.49 10.49 0 0 0-10.578.075 6.095 6.095 0 0 0-1.823 8.195l3.357 6.38-9.005 4.187-2.612-4.557a16.1 16.1 0 0 0-8.097-6.981l-.146-.057a3.985 3.985 0 0 0-5.436 3.6 20 20 0 0 0 2.62 10.305l2.355 4.205-4.817 2.941-1.764-2.874a4.6 4.6 0 0 0-6.355-1.5 4.55 4.55 0 0 0-.985 6.046l1.183 2.37-4.963 2.327-1.697-16.908-15.843 7.435.324-5.883 2.502-.108a4.93 4.93 0 0 0 4.714-4.83 4.384 4.384 0 0 0-4.554-4.108l-2.986-.12V47.17l5.05-.076a17.2 17.2 0 0 0 10.173-3.525 4.058 4.058 0 0 0-.516-6.46 16.8 16.8 0 0 0-9.655-3.12l-5.828-.156-.614-9.634 8.162-.527a6.534 6.534 0 0 0 6.113-6.52 9.63 9.63 0 0 0-5.325-8.09zm0 1080-15.933-9.063a10.53 10.53 0 0 1-5.324-9.154 5.99 5.99 0 0 1 6.113-5.456l8.161-.527-.614-9.634-5.828-.156a17.9 17.9 0 0 1-10.212-3.535 4.025 4.025 0 0 1 .516-6.408 16.3 16.3 0 0 1 9.697-3.162l5.05-.076v-4.962l-2.985-.12a4.73 4.73 0 0 1-4.54-4.818 4.564 4.564 0 0 1 4.7-4.12l2.503-.108.323-5.884-15.842 7.436-1.698-16.909-4.963 2.327 1.183 2.37a5.09 5.09 0 0 1-1.864 6.593 4.12 4.12 0 0 1-5.475-2.046l-1.765-2.875-4.817 2.942 2.355 4.205a20.54 20.54 0 0 1 2.612 10.61 3.88 3.88 0 0 1-5.428 3.294l-.145-.057a16.1 16.1 0 0 1-8.097-6.981l-2.613-4.556-9.004 4.187 3.356 6.38a6.45 6.45 0 0 1-2.416 8.547 9.9 9.9 0 0 1-9.985-.278l-15.478-8.895-.23-18.252a10.26 10.26 0 0 1 5.278-9.1 6.106 6.106 0 0 1 7.837 2.631l4.186 6.244 8.697-4.8-3.043-5.21a17.8 17.8 0 0 1-2.357-10.54 3.966 3.966 0 0 1 5.714-2.722 15.1 15.1 0 0 1 7.927 7.017l2.622 4.924 5.431-2.781-1.94-3.189a4.53 4.53 0 0 1 1.6-6.278 4.29 4.29 0 0 1 5.893 1.934l1.576 3.023 5.594-3.25L51.187 977.9l14.905-10.863-5.594-3.265-1.58 3.036a4.42 4.42 0 0 1-6.142 1.78 4.44 4.44 0 0 1-1.382-6.16l1.975-3.312-5.43-2.635-2.623 4.923a15.15 15.15 0 0 1-7.957 7.029 4.268 4.268 0 0 1-5.764-3.63 16.36 16.36 0 0 1 2.44-9.641l3.04-5.195-8.697-4.818-4.186 6.244a6.577 6.577 0 0 1-8.729 2.047 9.58 9.58 0 0 1-4.385-8.678l.23-18.074 15.479-8.908a10.61 10.61 0 0 1 10.61.014 6.023 6.023 0 0 1 1.816 8.122l-3.383 6.51 9.004 4.188 2.613-4.557a16.1 16.1 0 0 1 8.097-6.981l.145-.057a3.986 3.986 0 0 1 5.436 3.6 20 20 0 0 1-2.616 10.29l-2.359 4.22 4.817 2.958 1.769-2.889a4.597 4.597 0 0 1 6.35-1.501 4.55 4.55 0 0 1 .985 6.045l-1.183 2.37 4.963 2.327 1.698-16.908 15.842 7.452-.323-6.062-2.5-.057a4.827 4.827 0 0 1-4.715-4.736 4.36 4.36 0 0 1 4.555-4.148l2.983-.063v-4.963l-5.05-.069a17.1 17.1 0 0 1-10.168-3.52 4.066 4.066 0 0 1 .512-6.472 16.85 16.85 0 0 1 9.654-3.128l5.828-.164.614-9.618-8.166-.62a6.61 6.61 0 0 1-6.108-6.589 9.5 9.5 0 0 1 5.32-7.918l15.937-9.09 15.937 9.09a10.55 10.55 0 0 1 5.322 9.16 5.97 5.97 0 0 1-6.108 5.347l-8.167.62.614 9.618 5.828.164a17.95 17.95 0 0 1 10.212 3.543 4.03 4.03 0 0 1-.512 6.413 16.23 16.23 0 0 1-9.701 3.164l-5.05.069v4.963l2.983.063a4.644 4.644 0 0 1 4.544 4.729 4.534 4.534 0 0 1-4.706 4.155l-2.498.057-.324 6.062 15.843-7.452 1.697 16.908 4.963-2.327-1.183-2.37a5.09 5.09 0 0 1 1.865-6.593 4.116 4.116 0 0 1 5.47 2.05l1.77 2.888 4.816-2.959-2.359-4.22a20.57 20.57 0 0 1-2.607-10.611 3.876 3.876 0 0 1 5.427-3.278l.146.057a16.1 16.1 0 0 1 8.097 6.981l2.612 4.557 9.005-4.187-3.384-6.511a6.41 6.41 0 0 1 2.477-8.504 9.96 9.96 0 0 1 9.95.368l15.479 8.908.23 18.074a10.41 10.41 0 0 1-5.24 9.167 6.07 6.07 0 0 1-7.874-2.535l-4.187-6.245-8.697 4.818 3.04 5.195a17.76 17.76 0 0 1 2.36 10.537 3.966 3.966 0 0 1-5.714 2.722 15.1 15.1 0 0 1-7.927-7.017l-2.622-4.923-5.431 2.635 1.975 3.313a4.58 4.58 0 0 1-1.631 6.305 4.285 4.285 0 0 1-5.893-1.926l-1.58-3.036-5.594 3.265 14.905 10.863-14.905 10.864 5.594 3.249 1.576-3.023a4.43 4.43 0 0 1 6.15-1.785 4.39 4.39 0 0 1 1.343 6.13l-1.94 3.188 5.43 2.78 2.623-4.923a15.15 15.15 0 0 1 7.957-7.029 4.268 4.268 0 0 1 5.764 3.63 16.4 16.4 0 0 1-2.437 9.643l-3.043 5.21 8.697 4.801 4.186-6.244a6.66 6.66 0 0 1 8.767-2.114 9.38 9.38 0 0 1 4.348 8.583l-.23 18.252-15.478 8.895a10.49 10.49 0 0 1-10.578-.074 6.095 6.095 0 0 1-1.823-8.195l3.357-6.38-9.005-4.187-2.612 4.556a16.1 16.1 0 0 1-8.097 6.982l-.146.057a3.985 3.985 0 0 1-5.436-3.6 20 20 0 0 1 2.62-10.305l2.355-4.205-4.817-2.941-1.764 2.874a4.6 4.6 0 0 1-6.355 1.499 4.55 4.55 0 0 1-.985-6.045l1.183-2.37-4.963-2.328-1.697 16.909-15.843-7.436.324 5.884 2.502.108a4.93 4.93 0 0 1 4.714 4.83 4.384 4.384 0 0 1-4.554 4.108l-2.986.12v4.963l5.05.076a17.2 17.2 0 0 1 10.173 3.524 4.058 4.058 0 0 1-.516 6.46 16.8 16.8 0 0 1-9.655 3.12l-5.828.156-.614 9.635 8.162.527a6.534 6.534 0 0 1 6.113 6.52 9.63 9.63 0 0 1-5.325 8.089zm1720.472 0 15.933-9.063a10.53 10.53 0 0 0 5.324-9.154 5.99 5.99 0 0 0-6.113-5.456l-8.162-.527.615-9.634 5.828-.156a17.9 17.9 0 0 0 10.212-3.535 4.025 4.025 0 0 0-.516-6.408 16.3 16.3 0 0 0-9.698-3.162l-5.05-.076v-4.962l2.986-.12a4.73 4.73 0 0 0 4.54-4.818 4.564 4.564 0 0 0-4.7-4.12l-2.503-.108-.323-5.884 15.842 7.436 1.698-16.909 4.963 2.327-1.183 2.37a5.09 5.09 0 0 0 1.864 6.593 4.12 4.12 0 0 0 5.475-2.046l1.765-2.875 4.816 2.942-2.354 4.205a20.54 20.54 0 0 0-2.612 10.61 3.88 3.88 0 0 0 5.428 3.294l.145-.057a16.1 16.1 0 0 0 8.097-6.981l2.613-4.556 9.004 4.187-3.356 6.38a6.45 6.45 0 0 0 2.416 8.547 9.9 9.9 0 0 0 9.985-.278l15.478-8.895.23-18.252a10.26 10.26 0 0 0-5.278-9.1 6.106 6.106 0 0 0-7.837 2.631l-4.186 6.244-8.697-4.8 3.043-5.21a17.8 17.8 0 0 0 2.357-10.54 3.966 3.966 0 0 0-5.714-2.722 15.1 15.1 0 0 0-7.927 7.017l-2.623 4.924-5.43-2.781 1.94-3.189a4.53 4.53 0 0 0-1.6-6.278 4.29 4.29 0 0 0-5.893 1.934l-1.576 3.023-5.594-3.25 14.904-10.863-14.904-10.863 5.594-3.265 1.58 3.036a4.42 4.42 0 0 0 6.142 1.78 4.44 4.44 0 0 0 1.382-6.16l-1.975-3.312 5.43-2.635 2.623 4.923a15.15 15.15 0 0 0 7.957 7.029 4.268 4.268 0 0 0 5.763-3.63 16.36 16.36 0 0 0-2.44-9.641l-3.039-5.195 8.697-4.818 4.186 6.244a6.577 6.577 0 0 0 8.729 2.047 9.58 9.58 0 0 0 4.385-8.678l-.23-18.074-15.479-8.908a10.61 10.61 0 0 0-10.61.014 6.023 6.023 0 0 0-1.816 8.122l3.383 6.51-9.004 4.188-2.613-4.557a16.1 16.1 0 0 0-8.097-6.981l-.145-.057a3.986 3.986 0 0 0-5.436 3.6 20 20 0 0 0 2.616 10.29l2.358 4.22-4.816 2.958-1.769-2.889a4.597 4.597 0 0 0-6.35-1.501 4.55 4.55 0 0 0-.985 6.045l1.183 2.37-4.963 2.327-1.698-16.908-15.842 7.452.323-6.062 2.5-.057a4.827 4.827 0 0 0 4.715-4.736 4.36 4.36 0 0 0-4.555-4.148l-2.983-.063v-4.963l5.05-.069a17.1 17.1 0 0 0 10.168-3.52 4.066 4.066 0 0 0-.512-6.472 16.85 16.85 0 0 0-9.654-3.128l-5.828-.164-.615-9.618 8.167-.62a6.61 6.61 0 0 0 6.108-6.589 9.5 9.5 0 0 0-5.32-7.918l-15.937-9.09-15.938 9.09a10.55 10.55 0 0 0-5.32 9.16 5.97 5.97 0 0 0 6.107 5.347l8.167.62-.614 9.618-5.828.164a17.95 17.95 0 0 0-10.212 3.543 4.03 4.03 0 0 0 .512 6.413 16.23 16.23 0 0 0 9.701 3.164l5.05.069v4.963l-2.983.063a4.644 4.644 0 0 0-4.544 4.729 4.534 4.534 0 0 0 4.706 4.155l2.498.057.324 6.062-15.843-7.452-1.697 16.908-4.963-2.327 1.182-2.37a5.09 5.09 0 0 0-1.864-6.593 4.116 4.116 0 0 0-5.47 2.05l-1.77 2.888-4.816-2.959 2.359-4.22a20.57 20.57 0 0 0 2.607-10.611 3.876 3.876 0 0 0-5.427-3.278l-.146.057a16.1 16.1 0 0 0-8.097 6.981l-2.612 4.557-9.005-4.187 3.384-6.511a6.41 6.41 0 0 0-2.477-8.504 9.96 9.96 0 0 0-9.95.368l-15.479 8.908-.23 18.074a10.41 10.41 0 0 0 5.24 9.167 6.07 6.07 0 0 0 7.874-2.535l4.187-6.245 8.697 4.818-3.04 5.195a17.76 17.76 0 0 0-2.36 10.537 3.966 3.966 0 0 0 5.714 2.722 15.1 15.1 0 0 0 7.927-7.017l2.622-4.923 5.431 2.635-1.976 3.313a4.58 4.58 0 0 0 1.632 6.305 4.285 4.285 0 0 0 5.893-1.926l1.58-3.036 5.594 3.265-14.905 10.863 14.905 10.864-5.594 3.249-1.576-3.023a4.43 4.43 0 0 0-6.15-1.785 4.39 4.39 0 0 0-1.343 6.13l1.94 3.188-5.43 2.78-2.623-4.923a15.15 15.15 0 0 0-7.957-7.029 4.268 4.268 0 0 0-5.764 3.63 16.4 16.4 0 0 0 2.437 9.643l3.043 5.21-8.697 4.801-4.187-6.244a6.66 6.66 0 0 0-8.766-2.114 9.38 9.38 0 0 0-4.348 8.583l.23 18.252 15.478 8.895a10.49 10.49 0 0 0 10.578-.074 6.095 6.095 0 0 0 1.823-8.195l-3.357-6.38 9.005-4.187 2.612 4.556a16.1 16.1 0 0 0 8.097 6.982l.146.057a3.985 3.985 0 0 0 5.436-3.6 20 20 0 0 0-2.62-10.305l-2.355-4.205 4.817-2.941 1.764 2.874a4.6 4.6 0 0 0 6.355 1.499 4.55 4.55 0 0 0 .984-6.045l-1.182-2.37 4.963-2.328 1.697 16.909 15.843-7.436-.324 5.884-2.502.108a4.93 4.93 0 0 0-4.714 4.83 4.384 4.384 0 0 0 4.554 4.108l2.986.12v4.963l-5.05.076a17.2 17.2 0 0 0-10.173 3.524 4.058 4.058 0 0 0 .516 6.46 16.8 16.8 0 0 0 9.655 3.12l5.828.156.614 9.635-8.162.527a6.534 6.534 0 0 0-6.113 6.52 9.63 9.63 0 0 0 5.325 8.089zm0-1080 15.933 9.063a10.53 10.53 0 0 1 5.324 9.154 5.99 5.99 0 0 1-6.113 5.456l-8.162.527.615 9.634 5.828.156a17.9 17.9 0 0 1 10.212 3.535 4.025 4.025 0 0 1-.516 6.408 16.3 16.3 0 0 1-9.698 3.162l-5.05.076v4.962l2.986.12a4.73 4.73 0 0 1 4.54 4.818 4.564 4.564 0 0 1-4.7 4.12l-2.503.108-.323 5.884 15.842-7.436 1.698 16.909 4.963-2.327-1.183-2.37a5.09 5.09 0 0 1 1.864-6.593 4.12 4.12 0 0 1 5.475 2.046l1.765 2.875 4.816-2.942-2.354-4.205a20.54 20.54 0 0 1-2.612-10.61 3.88 3.88 0 0 1 5.428-3.294l.145.057a16.1 16.1 0 0 1 8.097 6.981l2.613 4.556 9.004-4.187-3.356-6.38a6.45 6.45 0 0 1 2.416-8.547 9.9 9.9 0 0 1 9.985.278l15.478 8.895.23 18.252a10.26 10.26 0 0 1-5.278 9.1 6.106 6.106 0 0 1-7.837-2.631l-4.186-6.244-8.697 4.8 3.043 5.21a17.8 17.8 0 0 1 2.357 10.54 3.966 3.966 0 0 1-5.714 2.722 15.1 15.1 0 0 1-7.927-7.017l-2.623-4.924-5.43 2.781 1.94 3.189a4.53 4.53 0 0 1-1.6 6.278 4.29 4.29 0 0 1-5.893-1.934l-1.576-3.023-5.594 3.25 14.904 10.863-14.904 10.863 5.594 3.265 1.58-3.036a4.42 4.42 0 0 1 6.142-1.78 4.44 4.44 0 0 1 1.382 6.16l-1.975 3.312 5.43 2.635 2.623-4.923a15.15 15.15 0 0 1 7.957-7.029 4.268 4.268 0 0 1 5.763 3.63 16.36 16.36 0 0 1-2.44 9.641l-3.039 5.195 8.697 4.818 4.186-6.244a6.577 6.577 0 0 1 8.729-2.047 9.58 9.58 0 0 1 4.385 8.678l-.23 18.074-15.479 8.908a10.61 10.61 0 0 1-10.61-.014 6.023 6.023 0 0 1-1.816-8.122l3.383-6.51-9.004-4.188-2.613 4.557a16.1 16.1 0 0 1-8.097 6.981l-.145.057a3.986 3.986 0 0 1-5.436-3.6 20 20 0 0 1 2.616-10.29l2.358-4.22-4.816-2.958-1.769 2.889a4.597 4.597 0 0 1-6.35 1.501 4.55 4.55 0 0 1-.985-6.045l1.183-2.37-4.963-2.327-1.698 16.908-15.842-7.452.323 6.062 2.5.057a4.827 4.827 0 0 1 4.715 4.736 4.36 4.36 0 0 1-4.555 4.148l-2.983.063v4.963l5.05.069a17.1 17.1 0 0 1 10.168 3.52 4.066 4.066 0 0 1-.512 6.472 16.85 16.85 0 0 1-9.654 3.128l-5.828.164-.615 9.618 8.167.62a6.61 6.61 0 0 1 6.108 6.589 9.5 9.5 0 0 1-5.32 7.918l-15.937 9.09-15.938-9.09a10.55 10.55 0 0 1-5.32-9.16 5.97 5.97 0 0 1 6.107-5.347l8.167-.62-.614-9.618-5.828-.164a17.95 17.95 0 0 1-10.212-3.543 4.03 4.03 0 0 1 .512-6.413 16.23 16.23 0 0 1 9.701-3.164l5.05-.069v-4.963l-2.983-.063a4.644 4.644 0 0 1-4.544-4.729 4.534 4.534 0 0 1 4.706-4.155l2.498-.057.324-6.062-15.843 7.452-1.697-16.908-4.963 2.327 1.182 2.37a5.09 5.09 0 0 1-1.864 6.593 4.116 4.116 0 0 1-5.47-2.05l-1.77-2.888-4.816 2.959 2.359 4.22a20.57 20.57 0 0 1 2.607 10.611 3.876 3.876 0 0 1-5.427 3.278l-.146-.057a16.1 16.1 0 0 1-8.097-6.981l-2.612-4.557-9.005 4.187 3.384 6.511a6.41 6.41 0 0 1-2.477 8.504 9.96 9.96 0 0 1-9.95-.368l-15.479-8.908-.23-18.074a10.41 10.41 0 0 1 5.24-9.167 6.07 6.07 0 0 1 7.874 2.535l4.187 6.245 8.697-4.818-3.04-5.195a17.76 17.76 0 0 1-2.36-10.537 3.966 3.966 0 0 1 5.714-2.722 15.1 15.1 0 0 1 7.927 7.017l2.622 4.923 5.431-2.635-1.976-3.313a4.58 4.58 0 0 1 1.632-6.305 4.285 4.285 0 0 1 5.893 1.926l1.58 3.036 5.594-3.265-14.905-10.863 14.905-10.864-5.594-3.249-1.576 3.023a4.43 4.43 0 0 1-6.15 1.785 4.39 4.39 0 0 1-1.343-6.13l1.94-3.188-5.43-2.78-2.623 4.923a15.15 15.15 0 0 1-7.957 7.028 4.268 4.268 0 0 1-5.764-3.63 16.4 16.4 0 0 1 2.437-9.642l3.043-5.21-8.697-4.801-4.187 6.244a6.66 6.66 0 0 1-8.766 2.114 9.38 9.38 0 0 1-4.348-8.583l.23-18.252 15.478-8.895a10.49 10.49 0 0 1 10.578.074 6.095 6.095 0 0 1 1.823 8.195l-3.357 6.38 9.005 4.187 2.612-4.556a16.1 16.1 0 0 1 8.097-6.982l.146-.057a3.985 3.985 0 0 1 5.436 3.6 20 20 0 0 1-2.62 10.305l-2.355 4.205 4.817 2.941 1.764-2.874a4.6 4.6 0 0 1 6.355-1.499 4.55 4.55 0 0 1 .984 6.045l-1.182 2.37 4.963 2.328 1.697-16.909 15.843 7.436-.324-5.884-2.502-.108a4.93 4.93 0 0 1-4.714-4.83 4.384 4.384 0 0 1 4.554-4.108l2.986-.12V47.17l-5.05-.076a17.2 17.2 0 0 1-10.173-3.524 4.058 4.058 0 0 1 .516-6.46 16.8 16.8 0 0 1 9.655-3.12l5.828-.156.614-9.635-8.162-.527a6.534 6.534 0 0 1-6.113-6.52 9.63 9.63 0 0 1 5.325-8.089z" style="font-style:normal;font-variant:normal;font-weight:400;font-stretch:normal;letter-spacing:normal;word-spacing:normal;text-anchor:start;display:inline;fill:#fff;fill-opacity:1;stroke:#1e1916;stroke-width:0;stroke-linecap:round;stroke-linejoin:round;stroke-miterlimit:10.433;stroke-dasharray:none;stroke-dashoffset:0;stroke-opacity:1"/></svg>