<svg xmlns="http://www.w3.org/2000/svg" xml:space="preserve" width="1000" height="500"><path d="m460.137 39.813-2.366 6.003-6.134 1.084c-42.966 7.614-88.625 7.34-127.602 29.075-11.008 6.438-11.709 7.357-12.568 16.529l-.729 7.79c-21.577 19.62-35.97 44.574-43.363 72.706-1.887 8.081-2.65 15.107-3.314 30.5-.765 17.728-1.38 22.556-5.407 42.5-8.811 43.64-23.811 148.46 8.586 248.744 13.016 40.29 50.624 45.675 69.614 17.238 9.507-14.237 29.596-75.17 46.591-141.324 2.521-9.813 4.988-18.588 5.483-19.5 2.124-3.913 8.21-11.213 23.664-9.699 24.156 2.367 52.81 1.744 70.963 19.059 10.193 10.192 12.614 16.39 17.373 44.482 33.253 196.28 53.4 269.317 98.572 268.723 45.172.594 65.32-72.442 98.572-268.723 4.76-28.092 7.18-34.29 17.373-44.482 18.152-17.315 46.807-16.692 70.963-19.059 15.454-1.514 21.54 5.786 23.664 9.7.495.91 2.962 9.686 5.483 19.5 16.995 66.153 37.084 127.086 46.591 141.323 18.99 28.437 56.598 23.051 69.614-17.238C964.157 394.46 949.157 289.641 940.346 246c-4.027-19.944-4.642-24.772-5.407-42.5-.663-15.393-1.426-22.419-3.314-30.5-7.393-28.132-21.786-53.086-43.363-72.705l-.729-7.791c-.86-9.172-1.56-10.091-12.568-16.53-38.977-21.735-84.636-21.46-127.602-29.074l-6.134-1.084-2.366-6.004c-19.885-50.498-258.841-50.498-278.726 0" style="display:inline;fill:#000" transform="translate(111.043 30.814)scale(.6488)"/><g transform="translate(111.043 30.814)scale(.6488)"><circle cx="599.5" cy="375.702" r="33.957" style="font-variation-settings:normal;vector-effect:none;fill:#dfdfe7;fill-opacity:1;fill-rule:evenodd;stroke-width:33.4852;stroke-linecap:butt;stroke-linejoin:miter;stroke-miterlimit:4;stroke-dasharray:none;stroke-dashoffset:0;stroke-opacity:1;-inkscape-stroke:none;stop-color:#000"/><circle cx="599.5" cy="236.887" r="26.516" style="font-variation-settings:normal;vector-effect:none;fill:#dfdfe7;fill-opacity:1;fill-rule:evenodd;stroke-width:53.0128;stroke-linecap:butt;stroke-linejoin:miter;stroke-miterlimit:4;stroke-dasharray:none;stroke-dashoffset:0;stroke-opacity:1;-inkscape-stroke:none;stop-color:#000"/><g transform="translate(22.483 -1492.289)scale(.95257)"><circle cx="809.338" cy="1765.779" r="22.338" style="font-variation-settings:normal;vector-effect:none;fill:#dfdfe7;fill-opacity:1;fill-rule:evenodd;stroke-width:44.661;stroke-linecap:butt;stroke-linejoin:miter;stroke-miterlimit:4;stroke-dasharray:none;stroke-dashoffset:0;stroke-opacity:1;-inkscape-stroke:none;stop-color:#000"/><circle cx="-896.219" cy="1765.779" r="22.338" style="font-variation-settings:normal;vector-effect:none;fill:#dfdfe7;fill-opacity:1;fill-rule:evenodd;stroke-width:44.661;stroke-linecap:butt;stroke-linejoin:miter;stroke-miterlimit:4;stroke-dasharray:none;stroke-dashoffset:0;stroke-opacity:1;-inkscape-stroke:none;stop-color:#000" transform="scale(-1 1)"/><circle cx="1722.338" cy="-852.778" r="22.338" style="font-variation-settings:normal;vector-effect:none;fill:#dfdfe7;fill-opacity:1;fill-rule:evenodd;stroke-width:44.661;stroke-linecap:butt;stroke-linejoin:miter;stroke-miterlimit:4;stroke-dasharray:none;stroke-dashoffset:0;stroke-opacity:1;-inkscape-stroke:none;stop-color:#000" transform="rotate(90)"/><circle cx="-1809.219" cy="-852.778" r="22.338" style="font-variation-settings:normal;vector-effect:none;fill:#dfdfe7;fill-opacity:1;fill-rule:evenodd;stroke-width:44.661;stroke-linecap:butt;stroke-linejoin:miter;stroke-miterlimit:4;stroke-dasharray:none;stroke-dashoffset:0;stroke-opacity:1;-inkscape-stroke:none;stop-color:#000" transform="scale(1 -1)rotate(90)"/></g><path d="M369.913 156.469a9.13 9.13 0 0 0-9.15 9.153v24.554a3.223 3.223 0 0 1-3.227 3.226h-24.554a9.13 9.13 0 0 0-9.152 9.15v23.89a9.13 9.13 0 0 0 9.152 9.15h24.554a3.223 3.223 0 0 1 3.226 3.224v24.555a9.13 9.13 0 0 0 9.151 9.152h23.892a9.13 9.13 0 0 0 9.149-9.152v-24.555a3.223 3.223 0 0 1 3.224-3.225h24.56a9.13 9.13 0 0 0 9.147-9.15v-23.889a9.13 9.13 0 0 0-9.15-9.15h-24.558a3.223 3.223 0 0 1-3.226-3.226v-24.555a9.13 9.13 0 0 0-9.146-9.151z" style="fill:#dfdfe7;fill-opacity:1;fill-rule:evenodd;stroke:none;stroke-width:3.88086;stroke-miterlimit:7;paint-order:stroke markers fill"/><g transform="translate(95.218 -557.792)scale(.87428)"><circle cx="732.553" cy="907.528" r="28.158" style="font-variation-settings:normal;vector-effect:none;fill:#dfdfe7;fill-opacity:1;fill-rule:evenodd;stroke-width:56.2971;stroke-linecap:butt;stroke-linejoin:miter;stroke-miterlimit:4;stroke-dasharray:none;stroke-dashoffset:0;stroke-opacity:1;-inkscape-stroke:none;stop-color:#000"/><circle cx="-957.097" cy="-782.245" r="28.158" style="font-variation-settings:normal;vector-effect:none;fill:#dfdfe7;fill-opacity:1;fill-rule:evenodd;stroke-width:56.2971;stroke-linecap:butt;stroke-linejoin:miter;stroke-miterlimit:4;stroke-dasharray:none;stroke-dashoffset:0;stroke-opacity:1;-inkscape-stroke:none;stop-color:#000" transform="scale(1 -1)rotate(90)"/></g></g></svg>