<svg xmlns="http://www.w3.org/2000/svg" xml:space="preserve" width="1000" height="1000"><rect width="1000.43" height="1003.482" x="-.43" y="-1.741" fill="#0f1976" fill-rule="evenodd" ry=".076" style="fill:#0f1976;fill-opacity:1"/><path fill="#2248a6" d="M884.782 591.507c-7.7-.78-15.852 1.867-20.29 8.579-.972 1.47-2.066 3.491-2.434 5.765s-.322 4.53-.297 8.61c.082 13.569 2.246 23.987 8.574 30.503 1.19 1.225 2.382 2.38 4.158 3.207 1.776.828 3.614.973 5.166.973 5.556 0 10.067-2.876 14.354-6.328s8.098-7.583 9.844-12.705c.747-2.193 1.438-4.176 1.238-6.676s-1.104-4.283-2.203-6.625c-.859-1.83-1.568-4.521-1.885-7.924-.337-3.61-.75-6.47-2.223-9.213s-3.97-4.639-6.482-5.959c-2.384-1.253-4.95-1.946-7.52-2.207m-63.901-115.814c-3.873.074-7.576 1.203-10.668 3.25-3.044 2.014-4.982 4.67-7.512 7.894-2.56 3.263-5.08 6.82-6.752 9.916-2.184 4.041-2.907 8.84-3.256 14.743-.35 5.919-.128 12.936.65 20.757 1.636 16.437 7.85 27.586 20.793 37.182 2.999 2.223 5.444 4.779 9.594 10.332 7.02 9.393 11.918 14.35 18.334 16.414 3.163 1.017 6.628 1.254 10.143 1.068 5.302-.279 10.484-1.864 14.361-5.716 3.827-3.802 6.223-8.892 8.963-16.002 6.204-16.101 7.905-27.273 8.027-52.328.04-8.253.03-13.141-.943-17.465-.99-4.4-3.415-7.721-6.135-10.506-6.623-6.781-16.349-10.864-30.152-13.838-3.56-.767-9.82-2.44-13.188-3.521-4.455-1.432-8.414-2.254-12.26-2.18"/><path fill="#f2f2f2" d="m760.52 173.784-2.678 4.847c-1.77 2.048-3.747 5.355-4.395 7.35s-4.68 13.924-8.645 22.724c-12.797 28.4-15.814 45.735-15.521 70.41.143 12.08 9.85 35.176 10.01 24.139.148-10.121 6.73-36.93 8.984-43.466 2.372-6.876 2.359-9.172 7.943-10.735 9.342-2.616-3.952 14.365 4.645 22.406 10.481 9.804 30.69-5.014 29.926 14.128-.748 18.722-12.526 7.38-21.648 12.735-7.86 4.614-12.565 20-22.096 10.754-14.185-13.76-9.925-.76-.713 7.894 5.007 4.704 16.01 14.757 23.511 19.05 6.16 3.523 20.114 8.373 30.325 10.538 19.618 4.16 54.405.042 76-8.994 3.3-1.381 6.787-2.753 7.75-3.05 2.32-.718 2.218-2.022-.786-10-3.211-8.533-10.256-21.892-18.521-35.126-7.25-11.608-30.834-43.536-42.018-56.883-17.887-22.248-40.16-40.703-62.072-58.721"/><path fill="#010101" d="M157.15 530.203a16.895 16.895 0 0 0-13.065 16.685l.147 10.375v.002c.278 19.525 1.159 42.103 2.302 58.672.426 6.17.716 10.284.918 12.986.101 1.352.18 2.343.25 3.135.07.793-.167.271.405 3.053.323 1.573 1.858 5.294 4.545 8.393.005.013.002.01.008.025.217.549.297 1.108 1.61 3.12.658 1.004 1.213 2.597 5.18 5.087a16.7 16.7 0 0 0 3.899 1.8c1.642.519 5.905.766 5.906.766l6.496-1.646c.001 0 3.495-2.143 4.637-3.285 0 0 1.804-2.079 2.346-2.938s.902-1.587 1.178-2.215a15.6 15.6 0 0 0 .947-2.802c.333-1.369.38-2.062.426-2.612.092-1.099.064-1.531.054-1.906-.019-.749-.054-1.053-.082-1.36a36 36 0 0 0-.174-1.534c-.128-.987-.293-2.1-.49-3.327-.773-4.808-1.395-9.319-2.166-15.779-1.779-14.9-2.792-28.345-3.039-38.928s.682-18.94 1.045-20.285c.154-.57.282-1.074.418-1.681.068-.304.135-.586.242-1.23.054-.323.129-.665.2-1.679.035-.506.11-1.114-.022-2.654-.066-.77-.143-1.771-.695-3.555-.277-.891-1.486-3.41-1.487-3.41l-4.248-4.9c-.003-.002.001-.002-.002-.004-2.14-1.674-2.068-1.387-2.351-1.541-.285-.155-.42-.22-.534-.278a18 18 0 0 0-.433-.21l-.223-.102a16.9 16.9 0 0 0-14.148-4.238m-5.76 108.904c.053.244.124.487.178.719-.245-.664-.221-.918-.178-.719"/><path fill="#e6c4a1" fill-rule="evenodd" d="M789.47 392.14c18.656 48.436 10.38 178.893-14.182 177.524l-613.59-34.207s22.948-69.215 39.156-122.224c48.751-159.443 497.28-91.516 588.616-21.094"/><path fill="#e6c4a1" d="m185.152 571.63-1.073.342-.76.588s-.314.392-.408.557a2.6 2.6 0 0 0-.279.69v.001a6 6 0 0 1-.557.705c-2.713 2.97-4.523 7.434-5.91 13.192-1.302 5.405-1.1 12.137.05 18.748 1.147 6.61 3.23 13.033 6.278 17.715.236.361.454.727.586.966.05.09.066.126.082.159.139.464.323.74.446.92.189.277.346.456.511.636.33.36.68.686 1.063 1.018.765.663 1.486 1.274 2.539 1.793.8.395 1.368.843 2.912.699.772-.072 2.079-.675 2.637-1.738.558-1.064.402-1.924.267-2.48-1.395-5.773-4.02-27.23-4.851-40.218l.861-.369.701-.675s.27-.42.344-.59c.297-.68.246-.944.25-1.145.008-.4-.03-.503-.049-.617-.218-1.282-.779-3.298-1.346-5.313a94 94 0 0 0-.775-2.636c-.11-.347-.195-.613-.309-.905-.056-.145.01-.17-.386-.751-.1-.146-.202-.348-.656-.696a3 3 0 0 0-.44-.28c-.185-.095-.71-.26-.71-.26zm-2.153 52.706c0 .478.086.675.156.923l-.011-.033c-.035-.1-.145-.177-.145-.89"/><path fill="#feddbb" d="M180.494 538.897c-.328.014-.655.064-.655.064s-1.728.496-1.316.404c-1.657.414-4.396 1.704-6.922 3.332a45 45 0 0 0-3.506 2.526c-.991.789-1.561 1.765-1.976 2.392-.345.522-1.27 1.398-1.552 2.466-.281 1.068-.68 2.412-.933 3.906-.507 2.988-.804 6.618-1 10.107-1.166 20.637 4.087 69.172 8.916 87.234.36 1.347 4.983 12.443 8.772 14.698 6.822 4.06 10.754 6.15 17.553 4.658 3.679-.808 5.696-.962 7.164-.082s2.623 2.98 4.289 7c8.027 19.38 26.077 47.62 47.875 69.994 10.899 11.187 25.342 19.147 35.54 26.842 10.199 7.694 19.289 12.342 25.537 15.342 2.979 1.43 24.943 5.148 48.276 10.717 23.342 5.57 49.67 10.64 58.018 13.205 27.438 8.43 92.285 4.292 120.511-3.25 50.34-13.45 98.846-32.498 141.555-56.211 19.456-10.803 31.378-21.849 46.99-37.498l21.497-21.55a.54.54 0 0 0 .158-.372l.334-18.055c.083-4.497 1.026-15.222 1.027-15.17.064-.354.081-.731.14-1.086 1.088-7.552 2.013-13.19 4.68-27.797 1.654-9.057 2.731-15.193 2.725-15.523a.1.1 0 0 0-.01-.055h-.02c-.033.01-.1.073-.229.215-.506.559-2.397 3.493-4.773 7.406-5.967 9.828-11.684 17.44-18.752 24.969-1.38 1.47-4.993 5.057-6.043 6-.199.178-65.439 36.92-104.309 35.279-63.709-2.69-104.62-48.973-105.021-119.422-.049-8.561-4.592-14.7-5.821-17.336-.615-1.317-3.625-4.281-4.947-4.851s-4.935-2.058-7.12-2.495c-13.57-2.714-35.483 1.927-49.544 5.468-6.163 1.552-7.287 8.114-9.068 10.212-.89 1.049-1.34 2.38-1.568 4.121-.229 1.742-.25 3.92-.26 6.785-.056 15.606-7.104 44.515-14.291 58.602-9.5 18.623-35.424 27.219-56.108 37.413-25.48 12.557-47.407 18.097-79.275 9.355-48.569-13.325-73.759-32.54-93.197-71.056-2.17-4.413-3.82-13.84-5.697-18.386-1.435-3.548.3-4.024-2.05-10.959-1.029-3.038-6.28-4.317-6.658-4.147l-4.359 1.96.234 2.459c.101 2.398.491 9.537.624 11.402.806 11.353 3.596 33.415 4.775 37.443.065.195.127.465.25.643q-.134.065-.3.096c-.437.08-1.148-.07-1.999-.56-1.599-.837-6.748-9.737-7.943-13.606-1.81-5.858-2.607-10.987-2.625-16.857-.014-4.284.092-5.258.97-8.887 1.193-4.926 3.218-9.338 4.9-11.02l1.114-1.113c.531.21 4.977-2.302 4.47-2.815l-.673-1.255c-.003-.886-.846-2.8-1.092-4.19-1.44-8.138-.542-10.364-.78-16.04-.098-2.313.9-6.87.689-9.252s-5.81-.7-6.01-1.493c-.16-.637-.114-1.893-.569-2.23-.059-.045-.167-.068-.297-.077v-.01a1.7 1.7 0 0 0-.316 0zm320.59 135.284c-.073.88-1.126-.467-1.33 1.025-.41 2.984-1.11 6.984-1.999 11.263-2.577 12.413-5.355 17.373-14.228 25.39-6.001 5.42-11.04 2.228-16.32 3.163s-7.602-.666-13.62-3.941c-4.2-2.286-6.39-3.344-10.224-9.955s-6.355-8.018-5.792-11.84c.47-3.197-3.379-4.34-1.702-5.31.838-.486-.44-.25 0 0 .438.249 0-1.436 0 0 0 .694 2.671-2.01 3.127-.985s1.102 2.228 1.898 3.545c1.592 2.633 3.779 5.717 6.185 8.636 3.236 3.926 6.077 6.81 8.852 8.594 2.775 1.785 8.406 6.695 11.276 6.108 5.74-1.174 10.426-9.745 19.416-20.729 3.922-4.792 9.8-7.497 12.617-10.579 1.409-1.54-.38-2.506.513-3.36.542-3.64 1.377-1.588 1.33-1.025"/><path fill="#ffe8d1" d="M676.746 427.843c-17.833.01-19.348.12-27.249 1.941-16.663 3.84-35.632 10.843-47.35 17.512-3.371 1.919-11.71 6.58-18.513 10.347-23.47 12.996-32.55 20.551-38.172 31.979-14.996 30.487-21.718 83.35-14.35 113.369 6.703 27.302 15.499 52.494 34.388 64.956 11.35 7.488 33.903 20.564 44.147 20.564h.002c2.433.48 11.91-1.645 18.075-1.643 6.165 0 12.628-.202 16.223-.64 19.008-2.317 50.693-13.407 66.177-22.776 13.38-8.095 27.572-22.467 36.996-35.663 6.118-8.569 12.26-26.696 15.636-36.881 6.283-18.956 6.654-32.647 6.038-57.202-.422-16.84-1.686-25.224-5.987-40.53-9.528-33.911-30.531-55.288-60.104-63.398-3.38-.927-5.377-1.43-8.752-1.68s-8.118-.26-17.205-.255M646.53 447.27c8.386-.203 18.755.614 24.1 2.04 13.624 3.632 13.79 3.647 24.202 3.06 5.657-.319 11.967-.48 17.057-.482 2.545 0 4.787.038 6.479.115.845.039-3.009 1.9-2.479 1.955.228.024-3.075 1.474.395.064-.377.596 3.312-.154 1.777 1.517-4.372 4.76-8.853 2.937-12.747 4.125-1.438.439-4.318 1.444-4.978 2.23-.33.394-1.626 4.81-1.344 5.318.282.507 5.152.428 5.614.654 1.846.9 5.442 1.51 11.369 2.205 4.945.579 10.937 1.741 12.924 2.441 1.14.402 2.324.763 3.334 1.03 1.01.266 1.742.452 2.4.452.23 0 .442.19.612.319-.135.133-.28.281-.653.53-.974.647-2.74 1.577-5.44 2.87-1.983.95-5.912-3.025-7.508-2.292-1.597.732-2.33 1.77-2.661 1.892-.42.154-4.035.572-4.382 1.242s4.326 5.504 4.64 6.166c.627 1.325 2.038 3.309 4.812 7.238 8.198 11.613 13.092 19.326 15.92 25.961 2.828 6.636 3.63 12.206 3.635 19.782.002 2.855-.174 4.824-.445 5.78-.1.352-.147.379-.174.428-.1-.062-.192-.126-.344-.193-.204-.09-.631-.262-1.129.023s-.575.744-.603 1.02c-.03.275-.012.531.023.861.14 1.32.651 3.813 1.678 8.893 4.53 22.429 2.355 44.769-5.979 62.062-2.97 6.163-6.587 9.824-10.619 11.094-1.547.487-7.373 2.678-13.215 4.951-5.822 2.266-14.735 5.61-19.775 7.422-5.125 1.842-15.449 6.192-23.06 9.709-17.283 7.985-22.908 10.062-29.688 11.006h-.004c-18.209 2.532-47.153-2.06-59.475-9.282-8.888-5.208-19.811-21.045-24.695-36.294-6.82-21.292-6.412-48.038 1.115-71.163a139 139 0 0 0 1.44-4.695c.388-1.36.648-2.298.72-2.924.154-1.337 1.185-4.876 2.56-8.748s3.1-8.182 4.637-11.447c7.63-16.198 20.685-34.407 29.514-41.4 1.227-.972 2.147-1.83 2.799-2.653.651-.822 1.066-1.644 1.066-2.531 0-1.982 1.214-4.256 3.881-6.72 2.667-2.466 6.73-5.067 12.102-7.678 9.28-4.512 14.606-6.215 23.115-7.41 2.1-.296 4.681-.474 7.477-.542z"/><path fill="#feddbb" d="M379.566 380.345c-.114.01-4.668 5.926-6.537 8.496-4.581 6.298-16.859 24.445-20.932 30.937-1.308 2.085-1.666 2.714-1.666 2.928 0 .07-.685 10.924 3.664 13.102 4.348 2.177 7.18-3.548 10.46 1.241 3.462 5.053 3.222 2.573 5.766 3.852 13.539 6.81 21.19 5.658 29.235 11.473 2.913 2.105 6.21 4.774 8.264 6.69.576.537 24.461 24.736 30.006 45.595 2.137 8.04 4.466 18.67 5.173 23.62.708 4.95 2.514 23.014 3.543 21.202 2.879-5.066 36.591 3.807 52.026-3.39 10.247-4.778 22.686 7.701 24.207 8.155 2.008.6 8.054-16.524 10.619-28.143 7.674-34.772 9.934-49.692 28.923-64.596 10.507-8.247 58.301-15.858 66.831-29.727l10.603-8.417-22.757-3.296c-5.5-.868-38.509-2.578-73.354-3.8l-63.355-2.223-11.116 7.38c-14.98 9.947-25.428 11.776-37.175 6.512q-.449-.2-.932-.396.203.014.37.092c.515.236.792.336.849.328h.008-.002c-.036-.068-.483-.338-1.268-.732-1.68-.844-3.266-1.846-4.357-2.754-.91-.758-1.44-1.037-2.475-1.305-1.984-.514-5.273-.73-15.38-1.004-6.908-.187-9.85-.318-12.67-.568-.816-.07-3.073-.297-3.102-.268-10.415-2.155-11.582-6.988-10.56-21.265q.226-3.15.308-5.68.038.166.031.353c-.065 1.54-.093 2.824-.062 2.854h.02c.02-.024.035-.115.035-.233 0-1.148 1.21-5.43 2.572-9.097l.291-.781-3.016-3.563c-1.658-1.96-3.047-3.56-3.087-3.56z"/><path fill="#f2f2f2" d="M270.288 190.074c-2.617-.43-5.284.96-7.361 3.83-.92 1.27-1.14 2.01-1.14 3.85 0 4.339 2.114 7.918 5.517 9.13.938.335 1.547.523 2.21.473.665-.05 1.295-.324 2.33-.807 3.232-1.504 5.012-4.373 5.202-7.36.19-2.989-1.206-6.098-4.21-8.089-.817-.54-1.675-.884-2.548-1.027"/><path d="M766.176 322.563c-12.632-3.334-24.43-12.612-28.337-22.282-2.53-6.263-2.712-20.818-.457-36.494 1.481-10.295 3.434-15.33 7.665-19.767 2.763-2.897 5.245-4.448 8.73-5.454 4.572-1.32 11.676-.111 17.957 3.056 13.935 7.026 21.135 21.415 21.135 42.236 0 15.412-3.558 27.387-10.076 33.913-4.925 4.93-10.26 6.47-16.617 4.792m4.165-58.475c3.165-1.326 4.831-3.962 4.84-7.655.009-3.244-.482-4.674-2.11-6.144-1.993-1.8-3.669-2.425-6.068-2.26-2.7.184-4.512 1.401-5.734 3.854-1.564 3.138-1.192 6.272 1.106 9.323 2.184 2.9 5.264 4.015 7.966 2.882m-492.744-89.256a21 21 0 0 0-3.555.381c-10.379 2.018-26.02 10.238-30.779 19.69-3.944 7.831-11.685 25.868-11.68 37.61.01 20.017 16.557 36.702 25.858 41.097 5.482 2.59 20.37-5.604 28.809-10.464 9.947-5.728 18.126-17.537 19.202-27.104 1.132-10.063-2.11-36.806-4.914-43.55-3.497-8.41-14.768-17.818-22.941-17.66m-8.258 15.24q2.512.001 5.022 2.51c4.025 4.025 3.091 10.957-1.817 13.495-2.563 1.325-4.063 1.316-6.554-.035-2.524-1.37-4.075-4.462-4.075-8.121 0-2.395.443-3.377 2.405-5.338q2.508-2.51 5.02-2.51z"/><path fill="#949494" d="m275.349 275.836-2.21 1.222c-1.199.665-3.21 1.75-4.435 2.395-.634.334-1.21.65-1.644.9-.217.125-.396.233-.549.332-.077.05-.144.094-.236.166-.047.036-.097.073-.19.168a1.4 1.4 0 0 0-.185.235 1.4 1.4 0 0 0-.141.271 3 3 0 0 0-.068.227l-.034.316c0 .704.332.975.495 1.129s.28.222.39.283c.222.122.414.189.635.244-.465-.117-.092-.024.123.121.215.146.494.357.746.567 1.994 1.665 4.17 3.158 7.346 5.06 7.896 4.73 21.777 11.914 26.761 13.78.392.146.782.278 1.116.38.167.052.318.097.463.133s.213.077.546.086h.002c.11.003.219.051.627-.07.205-.06.546-.209.811-.569s.319-.826.287-1.093c-.063-.535-.204-.633-.287-.768s-.16-.242-.254-.373c-.659-.925-1.776-1.881-3.482-3.332s-3.9-3.209-6.278-5.021c-6.54-4.986-10.651-8.529-15.049-12.967l-3.535-3.569a1.48 1.48 0 0 0-1.771-.253"/><path fill="#a0a0a0" d="M221.309 336.943c-10.09-7.593-16.647-13.6-26.692-24.449-4.406-4.76-14.513-16.38-17.004-19.55-.762-.969-1.892-2.972-1.548-3.104.324-.124 9.844-2.03 11.763-1.208 3.492 1.495 5.428 7.744 17.224 21.48 8.894 10.358 11.736 13.652 17.053 19.772 5.926 6.821 7.85 4.94 7.663 5.256-.079.134-2.825 2.49-3.509 3.236l-1.244 1.356z"/><path fill="#949494" d="M337.193 210.78c-11.894-6.953-19.159-5.05-23.934-10.051-3.183-3.333-14.054-11.555-16.936-20.022-3.87-11.37-4.996-32.014-7.772-36.841-1.566-2.725 2.885-1.868 9.265-6.27l.217 2.166c.586 5.862 14.404 15.925 19.889 25.481 5.92 10.315 11.893 23.487 17.979 30.91 1.137 1.388 4.66 3.852 6.493 5.59 1.831 1.738-1.128 8.437-1.266 8.438-.137 0-3.317.96-3.935.599"/><path fill="#fcfcfc" d="M284.872 143.638c-.989.395-23.19 15.106-34.488 23.547-13.563 10.133-21.078 16.498-31.537 26.713-6.492 6.339-9.851 9.117-11.43 9.453-5.958 1.268-17.075 17.886-30.617 45.765-5.897 12.14-13.126 39.027-12.635 39.518.417.417 20.86 1.655 27.217 3.06 5.673 1.255 8.915 1.096 24.988.838 14.832-.238 19.12-.525 24.135-1.71 16.607-3.927 21.362-5.905 35.668-13.848 5.406.481 26.863-9.808 23.37-18.76.046-.13.482-.007.53-.057.083-.085.603-1.513 1.824-2.85l1.541-2.722c1.558-1.429 3.18-2.962 2.674-6.254l3.648-5.494.526-1.613c.127-.918-.252-1.806-.217-1.848.068-.08.495-.34.49-.44 1.515-1.117 6.216-5.97 6.504-11.144.98-17.578-8.675-39.474-17.488-62.082-4.664-11.964-9.402-22.193-10.328-21.822zm-5.213 37.416c5.756.213 10.994 2.378 14.623 6.258 3.855 4.121 5.59 7.92 7.3 13.425 2.53 11.228 5.23 23.664 3.621 35.27-1.075 8.67-7.37 17.95-13.349 22.955-14.36 12.094-29.177 13.81-38.11 4.414-9.456-9.942-13.25-34.97-8.024-52.898 6.098-20.92 21.275-29.893 33.94-29.424"/><path fill="#949494" d="M360.213 295.68s-5.303-4.4-14.672-8.24c-21.159-8.672-30.582-13.494-39.528-29.934l-2.853-5.243s5.574-11.083 5.942-11.711c0 0 20.746 8.939 25.39 12.789 9.906 8.211 18.68 13.863 26.47 19.187 5.12 3.5 7.08 6.885 9.202 8.517 1.657 1.275.092 7.627.092 7.908 0 .334-6.684 6.02-6.684 6.02z"/><path fill="#a0a0a0" d="M354.23 191.615c-11.35-4.719-26.148-13.196-30.35-22.703-3.322-7.515-9.138-20.236-7.405-31.317.5-3.2 3.792-14.017 6.565-15.658 9.411-5.569 16.857-6.08 20.372-9.022.56-.468.449-.336.518-.267.068.069-.489 1.345-1.238 2.836-2.72 5.414-5.158 13.385-6.08 19.872-.248 1.75-.437 6.046-.42 9.546.034 7.435.81 12.657 2.733 18.403 3.053 9.125 7.231 14.973 14.121 19.766 1.535 1.067 7.28 4.368 7.382 4.47.427.428-4.38 4.83-6.199 4.074"/><path fill="#e3d44f" d="M405.52 264.965c-1.824.09-3.047 4.534-4.75 5.874-1.775 1.396-6.38 1.934-8.796 2.387-3.629.68-7.57 3.964-11.281 7.394s-6.3 8.148-8.576 12.8c-3.771 7.707-5.19 19.72-4.592 32.487s3.24 26.268 7.793 36.866c2.02 4.702 5.043 10.137 7.982 14.656 1.47 2.26 2.919 4.288 4.22 5.885s2.402 2.756 3.427 3.34c.003 0 .291.2.654.49s.847.69 1.434 1.185a339 339 0 0 1 4.63 3.998c3.751 3.287 8.673 7.678 13.86 12.38 5.197 4.71 10.398 9.248 14.598 12.77a202 202 0 0 0 5.425 4.42c1.478 1.152 2.544 1.93 3.25 2.311 5.728 3.085 11.633 3.413 18.426.541s15.704-7.614 25.557-17.132c6.65-6.425 16.634-11.172 20.367-13.204 7.827-4.26 25.419-6.772 32.781-6.783 2.922 0 8.237-2.798 11.305-3.65 3.269-.907 7.618-5.246 10.395-8.965 2.776-3.72 3.623-9.974 6.345-16.882 1.728-4.384 6.16-16.392 10.672-25.9 4.82-10.157 8.192-16.56 9.78-21.773s1.623-9.463.988-13.224l-1.037-7.02c-.062-.363-1.357-2.105-1.725-2.135l-11.816.114c-6.32.06-22.623-7.249-38.559-9.462-15.954-2.216-35.813-2.256-44.4-3.123-26.485-2.673-54.728-10.468-63.778-12.694-4.213-1.036-12.757 1.959-14.58 2.05"/><path fill="#feddbb" d="M207.625 412.65c-.39 0-.865.205-1.17.528-.303.323-.628.989-.866 1.546-.476 1.115-1.028 2.898-1.904 5.906-1.886 6.476-4.408 16.467-6.463 25.248-1.028 4.391-1.939 8.477-2.594 11.67-.327 1.597-.59 2.97-.773 4.051-.183 1.082-.291 1.833-.291 2.363 0 .186.005.351.027.52.023.169-3.158.47-2.963.732.098.132-5.033 2.632-2.681 2.63 1.351.81-.966 21.546.546 19.857 1.6.697 11.235-15.275 11.358-15.414.493-.557 6.592-5.034 7.553-6.784 3.572-6.505 7.418-12.14 9.293-14.511 5.604-7.09 16.75-19.585 25-25.28l-1.136-4.785c.565-.39-5.085-1.231-5.742-1.429l-2.17-.652c-2.28-.686-8.221-2.218-13.75-3.592a599 599 0 0 0-7.445-1.807 142 142 0 0 0-2.506-.568 29 29 0 0 0-.791-.16c-.208-.038-.297-.068-.532-.068z"/><path fill="#f4737e" d="M500.843 673.11a.52.52 0 0 0-.576.078l-1.207 1.076c-.222.199-.553.563-1.045 1.12-.492.556-1.122 1.287-1.846 2.142a400 400 0 0 0-5.136 6.217c-10.639 13.122-15.478 18.554-18.14 20.502-3.21 2.35-6.359 3.277-9.563 2.85s-6.506-2.234-9.936-5.497c-3.493-3.322-11.908-14.195-14.398-18.607-.463-.819-.862-1.45-1.25-1.914-.389-.465-.778-.8-1.286-.87-.507-.068-.98.214-1.328.614s-.655.95-.996 1.668c-1.253 2.64-1.07 6.415.178 10.67s3.59 9 6.818 13.543c4.363 6.141 11.583 11.988 17.362 13.984 11.229 3.88 25.657-3.221 34.66-16.785 4.163-6.271 6.715-14.964 7.6-25.709l.376-4.574a.52.52 0 0 0-.287-.508"/><path fill="#515151" d="M255.406 513.675c-1.108.108-2.103.689-2.932 1.517-1.383 1.383-1.778 3.454-1.285 5.707s1.752 4.87 3.762 8.139c1.32 2.15 2.097 3.518 2.466 4.373s.345 1.027.274 1.312c.044-.175-.083.163-1.08.506s-2.627.667-4.836.92c-2.004.23-3.973.478-4.717.621-.116.022-.042.01.01.024s.007.018-.17-.138c-.354-.314-1.092-1.18-2.324-2.746-1.725-2.192-4.208-4.968-6.512-7.366a88 88 0 0 0-3.201-3.185c-.945-.885-1.674-1.532-2.338-1.942l-1.316-.814a1.34 1.34 0 0 0-1.743.295l-.703.869c-.777.96-1.004 2.218-1.004 3.873 0 3.365.98 6.564 3.2 10.781.506.962.968 1.94 1.295 2.71.163.384.293.719.373.956-15.625 3.903-8.841 4.472 3.15 5.008 2.176.089 5.68-.502 12.762.336 10.103 1.195 14.958 1.572 32.428 2.512 46.699 2.511 66.192 6.005 104.5 18.724a528 528 0 0 0 9.28 2.99c2.667.829 4.6 1.407 5.51 1.602 1.655.355 2.526.548 3.303.59.777.04 1.506-.224 1.993-.485.994-.531 1.443-1.581 1.443-2.617 0-1.768-1.095-3.319-2.766-4.84-1.67-1.52-4.027-3.063-7.066-4.681-6.078-3.236-14.883-6.746-26.102-10.387-25.432-8.253-50.272-12.3-85.935-14.017l-11.07-.534-1.319-1.279c-2.684-2.605-6.105-7.108-8.201-10.82-1.587-2.812-3.031-4.908-4.47-6.354-1.44-1.445-2.998-2.324-4.66-2.162z"/><path fill="#fff" d="M651.524 463.26c-14.164-.016-19.846-6.436-34.384-.282-11.353 4.806-11.107 6.543-13.523 5.442-2.365-1.077-7.326 5.585-13.379 11.957-10.628 11.188-20.238 26.752-26.007 41.243-1.445 3.63-5.015 14.616-4.85 14.78.164.164 8.202-7.05 11.473-9.248 11.368-7.64 18.264-8.942 30.413-8.374 11.067.517 19.567 2.79 30.438 10.916 14.687 10.98 22.231 22.34 27.013 40.678 1.885 7.227 1.975 8.32 1.938 23.143-.038 15.097-3.966 14.99-6.098 22.999-3.432 12.896-8.612 24.96-14.788 32.869-1.367 1.75-1.382 6.931-3.74 9.362l-5.31 5.003 5.424-.015c9.215-.025 13.977-1.94 35.781-11.964 7.097-3.263 17.256-7.623 22.7-9.635 35.05-12.955 38.372-14.137 41.205-18.225 2.265-3.27 5.386-11.087 7.838-19.79 1.587-5.631 2.43-8.869 2.725-20.039.635-24.006 1.06-40.295-7.168-50.395-1.7-2.088-9.01-8.314-11.988-12.937-20.927-32.484-33.414-44.78-47.716-51.482-9.551-4.476-14.4-5.99-27.997-6.006"/><path fill="#fff" d="M620.058 548.731c-2.357-.265-4.037.262-5.756 1.815-3.36 3.036-4.37 8.614-2.717 13.412.496 1.438 1.438 2.854 2.508 4.039s2.184 2.164 3.545 2.48c2.477.576 4.884-.018 6.688-1.572s3.03-3.97 3.625-6.994c.606-3.084.01-6.171-1.41-8.605-1.418-2.435-3.71-4.262-6.483-4.575"/><path fill="#515151" d="M598.867 517.745c-3.304 0-6.588.256-9.426.838-5.826 1.195-12.206 4.32-17.862 8.082-5.655 3.761-10.519 7.902-12.92 12.658-3.906 7.739-6.283 19.708-7.44 32.447-1.159 12.74-.989 26.04 1.107 36.073 3.848 18.428 14.517 38.303 26.29 46.705 8.28 5.907 19.906 9.276 37.276 11.414 5.524.68 9.834.392 13.379-1.686 2.57-1.505 5.037-4.028 7.896-7.111s5.725-6.545 7.686-9.522c7.215-10.95 12.289-23.954 14.924-38.074 1.243-6.66 1.586-20.329.73-27.275-1.79-14.525-6.059-27.192-12.539-35.996-9.473-12.87-26.315-24.991-39.676-27.721-2.843-.583-6.128-.838-9.431-.838zm20.26 31.8c1.258.015 2.642.424 4.107 1.42 2.5 1.702 3.96 4.987 3.949 8.604-.011 3.618-1.523 7.202-4.191 9.237-.316.24-1.606.759-2.942.857-1.335.098-2.695-.222-3.057-.42-2.943-1.615-4.874-5.187-5.171-9.057s1.056-7.542 3.656-9.425c1.207-.874 2.389-1.23 3.648-1.215"/><path fill="#4994ca" d="M600.983 971.88c.016.204.399-.108.522.395.362 1.478.468 2.245.431 3.06-.015.347-.028.514-.066.613-.038.1-.11.171-.293.342-.16.15-.254.223-.34.26s-.18.047-.361.047c-.566-.002-1.398-.19-3.055-.701a51 51 0 0 0-3.84-1.012 27 27 0 0 0-1.57-.305c-.436-.069-1.533-.343-1.736-.323-.037.004-.07.007-.108.017a.18.18 0 0 0-.129.11c-.03.077.006.141.034.178a.6.6 0 0 0 .103.101c.173.143 1.302.61 1.98 1.046 2.906 1.863 6.545 3.95 7.89 4.516.796.335.996.515 1.364 1.228.081.157.16.3.223.405a2 2 0 0 0 .121.175.2.2 0 0 0 .055.041l.025.01.035.004c.143.001.26-.109.301-.232a.7.7 0 0 0-.01-.416c.003.009-.007-.039-.014-.1l-.019-.248a36 36 0 0 1-.045-.816c-.03-.666-.059-1.548-.08-2.482a130 130 0 0 0-.082-2.6c-.031-.738-.063-1.278-.092-1.482a27 27 0 0 0-.435-2.245c-.023-.09-.357.493-.376.432-.126-.41-.466-.44-.433-.018"/><path fill="#cdced1" d="M602.032 981.856c0-.572-.181-2.153-.16-3.926.04-3.195-.07-4.45-.456-6.032-.102-.42-.72-1.128-.72-1.144 0-.015.989.18 1.102.18.297 0 .62-.853.999-1.042.755-.378 1.334-1.653 2.84-2.954 1.172-1.012 3.203-1.348 4.273-1.709.365-.123 2.75.084 2.796.13.043.034.748 1.322.528 1.768-1.236 2.506-3.327 6.042-4.45 7.455-1.003 1.262-2.36 2.498-3.203 4.095-.63 1.195-2.985 3.267-3.224 3.466-.086.07-.325-.103-.325-.286z"/><path fill="#a0a0a0" d="M571.749 927.74s-1.246.471-1.47.638c-.428.321-1.538.64-1.538 1.005 0 .27 1.966 2.674 2.793 3.88.341.499.643.906.67.906h.008c.015-.029.002-.155-.036-.302-.122-.488.581-.977 1.316-1.84.994-1.17 1.55-2.295 1.754-3.556.093-.576 1.45-.728 1.554-.932.048-.092.567-2.126.567-2.126z"/><path fill="#f1f1f1" d="M639.609 918.736c-4.906-.161-10.458-.14-16.924.023-16.35.414-26.708 1.46-36.83 3.752-3.6.815-6 1.49-7.815 2.484s-3.02 2.637-3.367 4.367a5.6 5.6 0 0 1-.42 1.225c-.18.372-.485.633-.31.488a8 8 0 0 0-.881.84c-.35.386-.75 1.029-.846 1.772-.191 1.485.481 2.533 1.457 3.931 1.952 2.797 6.076 7.442 14.516 17.051 3.049 3.471 5.748 6.77 7.752 9.432s3.351 4.963 3.472 5.322c.251.741 1.36 1.573 2.15 1.602.792.028 1.228-.21 1.651-.434.847-.447 1.637-1.092 2.66-2.014 1.602-1.442 3.479-2.38 4.567-2.554.723-.117 1.234-.214 1.931-.334-.34.71-.684 1.427-1.127 2.253-1.213 2.264-2.758 4.76-3.365 5.487-1.107 1.326-2.416 3.333-3.209 4.908-.612 1.217-1.752 2.955-2.029 3.271-.604.69-1.215 1.921-1.197 3.127.018 1.207.326 2.421.845 4.489.594 2.364 1.09 5.822 1.09 6.955v2.861c0 1.11.9 2.01 2.01 2.01h77.049a2.01 2.01 0 0 0 1.974-1.629l.307-1.591h-.002c.157-.811.275-2.128.47-4.225.196-2.096.422-4.76.634-7.492.753-9.756 2.313-17.251 3.832-20.246 1.053-2.077 4.47-4.603 10.984-7.053l6.084-2.289a2.01 2.01 0 0 0 .715-3.3l-7.71-7.725c-8.386-8.405-15.984-13.88-26.677-19.225-9.724-4.86-18.723-7.056-33.441-7.54m70.543 62.183a36 36 0 0 0-2.842.109c-2.072.172-7.053.716-8.7.977l-.331.052a3.37 3.37 0 0 0-2.844 3.328v6.873a3.37 3.37 0 0 0 4.054 3.3l.245-.052.006-.002c-.075.016 1.918-.279 3.671-.484 1.754-.205 3.678-.4 4.307-.44 2.24-.139 3.424-.205 4.46-.372.517-.084 1.06-.158 1.83-.602.769-.444 1.503-1.495 1.693-1.979.424-1.081.273-1.1.308-1.468q.051-.551.076-1.19a33 33 0 0 0 .004-2.672c-.037-.856-.01-1.54-.443-2.632-.434-1.093-1.972-2.295-2.86-2.536-.789-.214-.969-.163-1.36-.183q-.59-.03-1.274-.027m6.871-2.524a.27.27 0 0 0-.192.274l.04.562v.002c.053.747.166 1.29.806 3.858.731 2.932 1.297 4.69 2.154 6.697l.307.719a.267.267 0 0 0 .514-.098l.017-.563c.03-.919-.22-2.777-.592-4.543-.196-.931-1.003-3.728-1.293-4.46a4 4 0 0 0-.632-1.047 7.5 7.5 0 0 1-.598-.862l-.223-.41a.27.27 0 0 0-.308-.129"/><path fill="#111b77" d="M722.728 998.086c-.114-.297-2.553-2.239-2.515-5.256.04-3.225 2.106-5.068 2.215-5.177.097-.097.18-.881.432.112.382 1.508.922 3.42.923 5.149 0 1.717-.436 3.781-.436 3.781l-.166.81s-.43.641-.453.58"/><path fill="#3d4e88" d="M700.362 956.417a.6.6 0 0 0-.164.027l-2.115.647c-6.743 2.056-9.866 3.374-13.148 5.558-2.914 1.94-3.988 3.444-4.778 6.706-1.491 6.158-3.454 23.377-3.46 30.29l-.003.926a.63.63 0 0 0 .635.635l22.4-.045 22.403-.045c.31 0 .574-.226.623-.533l.213-1.326c.14-.87.215-1.388.213-1.752-.001-.091.03-.148-.069-.373-.05-.113-.237-.37-.555-.39-.196-.014-.239.066-.324.128-.086-1.045-.063-3.353.026-5.344.044-.996.104-1.922.168-2.58.026-.266.051-.446.076-.603.02-.01.029-.01.05-.02.128-.082.307-.31.307-.558 0-.224-.033-.255-.064-.375q-.048-.18-.123-.426c-.1-.327-.234-.732-.377-1.149-.287-.832-.577-1.644-.785-2.054a16 16 0 0 0-.82-1.405 8 8 0 0 0-.374-.53 1.6 1.6 0 0 0-.181-.202c-.039-.036-.076-.078-.19-.133-.489-.237-1.177-1.056-1.824-1.944-.364-.5-1.34-1.81-1.351-1.798-.002 0-.118.175-.097.23.013.033.227.09.245.146-.123-.376-.317-.738-.615-1.191-.769-1.166-1.63-2.248-3.252-4.094-2.26-2.572-3.481-4.483-4.205-6.513-.066-.185-.12-.33-.17-.45s-.056-.189-.196-.357a.6.6 0 0 0-.183-.158.7.7 0 0 0-.504-.065c-.158.044-.23.139-.295.217a37 37 0 0 1-.969-1.203 140 140 0 0 1-3.312-4.498c-.83-1.171-1.655-2.311-1.934-2.656h-.002l-.408-.506a.63.63 0 0 0-.512-.233zm16.565 21.73.023.073c.04.131.076.146.16.326 1.11 2.379.974.466 2.009 4.094.074.262.169.607.287.978.472 1.49.85 3.656 1.011 5.41.06.641.055 1.117.055 1.59-.052-.105-.088-.152-.143-.27-.426-.917-.925-2.205-1.396-3.585-.258-.755-.454-1.517-.682-2.293-.434-2.007-1.109-4.207-1.134-5-.018-.538-.068-.94-.19-1.323m-6.89 6.104c.71-.01 1.262.023 1.642.082.376.059.57.174.56.164.028.027.304.457.363.67.026.094.08.483.108.941.027.46.042 1.014.04 1.569 0 .555-.015 1.11-.044 1.57s-.084.85-.111.947c-.068.243-.127.372-.176.436-.05.064-.097.109-.291.176-.389.134-1.306.23-2.963.314-1.628.082-3.207.18-3.715.246-.39.052-1.946.255-3.451.45h-.002c-1.435.185-2.72.359-3.178.431v-6.88c.054-.01.153-.023.377-.053.286-.038.676-.087 1.14-.145.93-.115 2.16-.264 3.464-.416 2.75-.32 4.814-.484 6.236-.5z"/><path fill="#e6c4a1" d="M748.34 703.477c0-.063.857-1.276 1.906-2.696l1.906-2.582-.162-7.601c-.338-15.832.304-21.553 5.893-52.503 2.574-14.256 2.863-15.952 2.796-16.423-.067-.468-.968.776-3.414 4.715-.952 1.533-1.766 2.752-1.809 2.709s.61-1.28 1.452-2.748c3.674-6.41 7.635-14.953 10.455-22.547.614-1.653 1.119-2.912 1.122-2.799.004.114-.477 1.984-1.069 4.155-5.652 20.737-8.504 35.759-10.584 55.743-1.172 11.26-1.554 17.284-1.744 27.486-.116 6.263.54 6.372.197 6.435-.548.1-1.596.605-1.718 1.254-.136.726-1.4 2.686-3.509 5.439-1.53 1.998-1.718 2.214-1.718 1.963"/><path fill="#2a2a2c" d="M755.375 693.808c-.135 0 .13.29.033.393-59.28 52.308-114.536 92.676-192.691 119.086-13.139 4.44-35.57 8.592-48.99 10.09l-8.772.98a.49.49 0 0 0-.433.419l-.967 6.449c-1.882 12.551.493 32.772 6.07 52.142s-1.087 48.757 11.508 49.977l12.162 2.975c.104.12 4.699-.937 4.858-.953l8.443-1.087c4.88-.628 9.182-1.174 12.818-2.095v.01h.004c.122 0 5.143-1.4 6.178-1.746.545-.183 1.32-.461 1.723-.62.92-.362 2.357-1.067 2.96-1.45 1.855-1.181 2.934-2.511 3.598-4.555.099-.304.237-.83.338-1.141s.16-.446.195-.531c.021-.05 2.458-1.874 3.422-3.006.612-.719 1.06-1.235 1.375-1.547-.003.152 0 .28-.02.5-.06.687-.196 1.693-.378 3.033-.123.996-.152 1.75-.492 2.989s-.668 2.242-.752 2.713c-.082.454-.035.676.156.736.145.045.393 0 .838-.168.546-.202 1.02-.345 1.719-.521q1.693-.428 4.316-.87l.252-.043c.208-.172 13.145-1.644 16.639-1.957 6.816-.391 13.649-1.249 20.486-1.154.036 0 .457-.016.934-.033l4.773-.172c2.148-.077 3.91-.14 3.916-.15.02-.023 1.42-2.147 1.42-2.157 0 0-.005-.01-.014-.018.672-.751 1.327-1.73 2.145-2.992.89-1.375 1.782-2.544 2.478-3.3.267-.29.463-.451.649-.602-.044.2-.09.414-.203.705a14 14 0 0 1-.97 1.95c-.184.225-.348.435-.458.59-.35.49-.865 1.258-1.154 1.726a363 363 0 0 0-2.41 4.05c-.003.011 2.218.29 4.933.622h.002c2.715.33 4.977.601 5.025.601h.024c.001 0 .003 0 .004-.01.003 0 .007-.01.01-.014 1.023.174 2.101.348 3.207.52 12.555 1.945 21.841 5.425 30.657 11.468 8.545 5.858 19.069 15.673 25.59 23.871l5.273 6.633a.493.493 0 0 0 .875-.265l.639-7.692c.174-2.101.429-4.11.695-5.638.133-.765.27-1.41.398-1.877.064-.234.125-.425.178-.555.04-.098.083-.164.086-.174.435-.431.71-.483.969-.4.26.084.619.416.941 1.07.645 1.307 1.106 3.743 1.106 6.836 0 4.573.876 8.09 2.693 10.334.627.774 1.137 1.382 1.725 1.84.587.458 1.259.744 2.093.847 1.67.207 3.992-.219 8.42-1.054 5.39-1.017 8.019-1.448 10.22-2.774 2.203-1.325 3.837-3.458 7.3-7.767 1.754-2.183 3.211-3.715 4.293-4.615.54-.45.99-.742 1.3-.875.274-.118.385-.093.399-.092.008.014.068.108.06.398-.007.337-.109.861-.326 1.53-.433 1.335-1.316 3.256-2.691 5.693l-4.305 7.627a.493.493 0 0 0 .205.681l6.008 3.078c3.351 1.718 8.91 3.898 12.463 4.887 3.304.92 5.862 1.557 7.814 1.83 1.953.273 3.342.217 4.272-.478.465-.348.768-.86.904-1.457.137-.598.126-1.285.014-2.086-.225-1.603-.869-3.68-1.816-6.366-.58-1.643-1.004-3.232-1.22-4.445-.107-.607-.16-1.122-.16-1.482.001-.26.072-.427.071-.463.07-.062.076-.06.2.018.143.089.367.352.517.771.943 2.643 3.439 6.439 6.027 9.678 1.294 1.62 2.61 3.091 3.774 4.191.581.55 1.126 1.006 1.62 1.346.496.34.93.575 1.387.633 1.014.128 2.458-.31 4.22-1.027 1.76-.718 3.778-1.751 5.651-2.936 3.943-2.493 6.19-4.528 6.758-7.287s-.553-6.009-2.955-10.953c-.84-1.729-1.49-3.416-1.857-4.715-.183-.65-.295-1.205-.326-1.598-.024-.29.035-.48.035-.523a.5.5 0 0 1 .408-.153c.188.01.46.094.787.293.652.4 1.49 1.227 2.375 2.387 1.768 2.32 3.753 5.955 5.385 10.168 2.51 6.479 4.45 9.098 8.344 11.186 3.11 1.668 6.624 2.534 9.822 2.588s6.098-.693 7.949-2.368c.87-.787 1.54-1.514 1.982-2.324s.636-1.702.561-2.722c-.15-2.041-1.279-4.606-3.406-8.805-.987-1.947-1.64-3.495-1.983-4.59-.17-.548-.262-.984-.285-1.277-.017-.216.006-.26.008-.28h.012c.16.063.454.251.816.569.725.634 1.743 1.773 2.99 3.424 4.767 6.305 7.843 9.756 11.602 10.935 3.743 1.174 14.926-2.521 14.926-2.521.186.01.21-.062.412.043a1 1 0 0 0 .232.088h.002a.5.5 0 0 0 .143.012c.078 0 .103-.01.146-.023a.47.47 0 0 0 .284-.34q.024-.116.027-.233c0-.01.048-.088.101-.173 3.101-1.085 5.265-1.544 6.231-2.518.552-.556.716-1.021.783-1.768.068-.746.118-2.126-.043-3.173-.39-2.54-3.11-8.514-5.236-13.524-4.785-11.276-5.941-29.383-3.176-51.142q.69-5.367 1.246-10.75c.138-1.381.236-2.5.285-3.284q.039-.585.037-.922a2 2 0 0 0-.017-.296c-.007-.047-.012-.095-.045-.178-.017-.041-.039-.095-.106-.166a.55.55 0 0 0-.369-.16c-.104 0-.12.014-.152.024s-.061.013-.094.023q-.097.03-.238.08-.287.1-.773.285c-.648.245-1.551.596-2.649 1.031-2.195.87-5.164 2.07-8.379 3.389-6.381 2.618-17.055 5.894-23.617 7.252-3.304.683-6.274 1.283-8.52 1.799q-1.404.31-2.785.71c-.72.218-1.185.355-1.539.672h-.002c-.315.283-1.124.576-2.248.72-1.123.142-2.554.164-4.14.077-3.173-.173-6.976-.781-10.323-1.697-7.735-2.116-17.588-11.082-24.11-24.692-1.473-3.076-2.815-6.811-3.99-10.166-1.174-3.354-2.167-6.31-3.023-7.947-.851-1.627-2.467-3.767-4.197-6.14-1.73-2.374-3.569-4.969-4.838-7.4-5.41-10.37-6.048-18.826-2.437-32.76 1.108-4.28 3.621-9.62 6.142-14.046 1.26-2.212 2.524-4.2 3.61-5.712 1.085-1.513 2.056-2.57 2.468-2.825.288-.177 9.313-2.72 9.323-2.89s-.007-.34-.04-.54c-.063-.403-.191-.923-.373-1.573-.362-1.3-.942-3.104-1.648-5.299-1.412-4.39-3.33-10.333-5.014-16.783-3.372-12.916-7.515-31.544-9.199-41.342l-3.07-17.867a.49.49 0 0 0-.34-.387v.012a.5.5 0 0 0-.135-.024zM579.252 926.455q.023.015.045.025c-.01 0-.021-.01-.031-.012h-.014z"/><path fill="#fcdbb9" d="M372.911 856.184c-.492.053 1.035-13.457.654-12.807s-2.728 15.486-3.218 17.041c-.98 3.11-2.383 8.459-4.87 17.578-3.747 13.75-8.754 26.677-15.324 39.561-1.6 3.139-2.77 5.69-3.466 7.545-.349.928-.58 1.678-.688 2.262a3 3 0 0 0-.062.761c.015.22.066.43.226.59.25.25.074 1.086.739 1.448s1.535.796 2.568 1.287c2.066.982 3.644 2.611 6.59 3.863 5.892 2.503 12.731 5.2 17.285 6.717 9.272 3.087 30.235 8.497 43.308 10.087 4.948.602 10.138 1.284 11.487 1.506.225.037.63.057 1.277.08.648.023 1.517.044 2.582.06a696 696 0 0 0 8.533.065c6.98.02 16.261-.012 26.162-.096 33.983-.288 36.365-2.959 50.057-5.476a4693 4693 0 0 1 17.748-3.238c.912-.161 1.74-.387 2.358-.627a4 4 0 0 0 .761-.377c.199-.135.399-.281.399-.584 0-.111-.024-.162-.05-.227a2 2 0 0 0-.097-.209 9 9 0 0 0-.33-.576 45 45 0 0 0-1.176-1.795 160 160 0 0 0-3.845-5.346c-10.315-13.786-14.949-27.352-20.83-51.285-.944-3.839-5.028-39.596-5.844-42.25-.408-1.327-.921 22.767-1.227 21.969a11 11 0 0 0-.412-.967c-.123-.245-.18-.41-.404-.549-.185-.114-.35-.134-.635-.187a19 19 0 0 0-1.11-.164 89 89 0 0 0-3.622-.352c-2.959-.239-6.89-.477-11.08-.658-22.225-.958-38.972-2.973-74.91-9.412-6.352-1.138-8.792-1.17-12.64-.158-4.322 1.136-15.3 7.043-24.765 5.312-.87-.159-1.472-.463-2.129-.392"/><path fill="#2248a6" d="M806.724 594.709c-6.807-.064-12.448 3.46-17.078 7.537-2.951 2.597-5.943 6.354-7.387 10.693s-1.648 8.51-1.713 13.772c-.08 6.546.269 11.062 1.727 15.298 3.93 11.423 13.224 19.014 24.343 23.043 8.57 3.106 16.836 2.385 24.848-1.695 4.9-2.495 9.945-6.914 12.2-12.713s2.284-11.572 1.945-18.902c-.282-6.078.025-10.013-2.53-15.252-1.277-2.62-3.496-4.966-5.468-6.383-1.973-1.417-3.684-2.233-5.51-3.143-2.379-1.184-6.942-4.044-8.069-4.92-5.124-3.981-10.501-7.272-17.308-7.335"/><path d="M756.107 694.313c.236 0-.392.01-.506.04-.226.066-.368.018-.437.063-.138.09-.184.158-.24.212-.113.107-.283.22-.396.349-.226.256-.67.463-1.016.894-.692.864-1.745 1.535-2.999 2.63-1.607 1.402-2.967 2.064-3.56 3.1-.592 1.036.42 3.685.672 4.8 3.988 18.411 9.237 43.307 15.105 64.953l2.099 10.175-2.016 2.133c-2.966 3.136-6.162 8.529-8.205 14.483-3.37 9.821-3.87 21.416-2.948 27.668.854 5.789 4.779 15.14 8.558 20.549 4.759 6.809 5.581 8.27 6.72 12.002 2.201 7.217 9.569 21.106 14.905 28.209 3.703 4.927 10.602 9.288 17.053 10.855 2.505.608 7.103-.565 10.584-.678 1.74-.057 3.221-.17 4.248-.385.257-.054.484-.11.724-.205s.548-.147.88-.69c.165-.27.257-.74.156-1.103a1.43 1.43 0 0 0-.455-.713c-.309-.272-.542-.348-.807-.443-.373-.135-.821-.242-1.461-.393a69 69 0 0 0-2.162-.47c-6.318-1.273-13.274-3.858-19.248-9.889-4.72-4.764-7.707-9.237-12.113-18.201-2.684-5.46-4.398-8.232-6.781-10.898-3.948-4.416-4.868-6.367-6.46-13.649-.756-3.465-2.37-9.141-3.632-12.79-2.871-8.306-3.25-12.635-1.711-18.735 1.628-6.448 6.433-15.13 11.643-20.922l2.445-2.719c.321-.357.417-.863.248-1.312l-1.658-4.407c-7.085-18.825-12.45-41.921-14.926-71.233a791 791 0 0 0-.76-8.505c-.105-1.101-.197-2-.267-2.637a31 31 0 0 0-.092-.76 5 5 0 0 0-.04-.256 1.3 1.3 0 0 0-.082-.299c-.014-.037-.03-.084-.068-.152a1.3 1.3 0 0 0-.224-.3l-.381-.264c-.001 0-.506-.108-.389-.108z"/><path fill="#a0a0a0" d="M750.604 315.441a5.4 5.4 0 0 0-3.372.857l-6.522 4.248v.002c-8.996 5.863-19.427 12.292-25.74 15.877-3.532 2.006-6.893 4.06-9.496 5.778-1.302.859-2.406 1.625-3.319 2.324-.456.35-.857.673-1.285 1.072-.427.4-.926.339-1.746 2.475-.4 1.043-.716 2.328-.111 4.115.604 1.787 3.19 3.856 5.365 3.856 1.209 0 1.387-.158 1.7-.245.312-.086.558-.17.82-.263a40 40 0 0 0 1.793-.696 223 223 0 0 0 5.746-2.482c4.905-2.181 12.027-5.44 21.468-9.822 10.165-4.718 20.054-9.252 20.774-9.56l2.42-1.038a5.396 5.396 0 0 0 1.498-8.957l-3.399-3.08-3.398-3.08a5.4 5.4 0 0 0-3.195-1.38m-20.658-58.536c-.773.024-1.123.124-1.418.195-.592.143-.872.258-1.172.373-.6.23-1.131.472-1.768.772-1.273.6-2.877 1.413-4.74 2.39a356 356 0 0 0-12.79 7.077c-13.575 7.889-32.148 19.912-47.638 30.505-7.745 5.297-14.7 10.225-19.896 14.13-2.598 1.952-4.748 3.637-6.416 5.066a32 32 0 0 0-2.2 2.03c-.656.677-1.297.909-2.17 3.183-.249.649-.657 1.522-.457 3.343s2.156 4.621 4.079 5.403c3.845 1.562 4.607.266 5.552-.078 1.891-.69 3.496-1.6 6.11-3.077 6.26-3.536 15.52-8.465 31.3-16.65 21.071-10.929 32.121-16.778 43.725-23.146a656 656 0 0 1 7.584-4.102c1.03-.547 1.9-1.003 2.523-1.322s1.5-.667.645-.342c.468-.178 1.779-.642 3.021-1.934 1.243-1.291 1.785-2.839 2.024-3.873.478-2.067.458-3.529.633-6.59.103-1.818.166-3.493.185-4.82.01-.663.011-1.225-.01-1.777-.01-.276-.02-.532-.07-.948-.025-.207-.05-.443-.164-.898-.113-.455.25-1.073-1.705-3.03-2.294-2.293-3.995-1.904-4.768-1.88zM714.48 145.644c-.263-.188-4.504.473-4.858 1.328-.332.8-6.796-2.932-8.904-.33-2.108 2.603-26.107 7.745-35.342 19.26s1.02 35.545.561 35.922c-.458.378-1.231 8.178-1.231 8.421 0 .244 16.75.504 22.043-3.932 19.777-16.575 26.82-25.798 37.509-39.16 4.683-5.855 7.486-12.657 3.003-15.348-.497-.3-11.983-5.592-12.781-6.161m37.787 40.026a2.5 2.5 0 0 0-.979.156c-.411.146-.554.263-.69.355-.27.185-.407.313-.571.463a23 23 0 0 0-1.135 1.145c-.905.96-2.165 2.368-3.793 4.23-3.257 3.724-7.97 9.256-14 16.434-20.187 24.029-31.166 36.967-34.904 41.146-3.072 3.433-5.274 5.942-6.739 7.69a44 44 0 0 0-1.683 2.105 9 9 0 0 0-.535.795c-.164.279-.475.331-.489 1.611-.005.525.157 1.594 1.09 2.323s1.903.636 2.404.535c1.003-.203 1.394-.523 2.051-.934 1.314-.821 3.164-2.188 6.11-4.433 8.478-6.462 20.124-16.272 30.289-25.502 4.797-4.356 9.72-8.744 10.46-9.356 1.025-.847 1.926-2.01 2.846-3.717.92-1.705 1.972-4.058 3.565-7.777 2.138-4.994 4.86-11.719 6.117-15.125 1.212-3.287 2.522-6.725 2.67-7.076v-.002c.197-.467.342-.903.443-1.381.05-.239.097-.478.1-.844.003-.365.252-.995-.815-2.062-.542-.542-1.324-.767-1.812-.78"/><path fill="#949494" d="M889.251 370.504c-1.05.14-2.068.553-2.382.694-.968.432-1.756.94-2.485 1.433-1.53 1.038-3.332 2.439-5.691 4.37-4.725 3.865-11.606 9.836-21.16 18.322-7.43 6.599-14.87 13.177-16.184 14.314a34 34 0 0 0-2.275 2.131c-.238.249-.72.758-1.157 1.389.592-.856-.9 1.381-1.183 2.722-.195.922-.355 3.409 1.094 5.53 1.7 2.489 3.664 3.036 5.63 3.115l.096.004c.778.02 1.508.069 2.678-.365.15-.056.185-.106.33-.178.335-.126.634-.253.9-.371a56 56 0 0 0 2.03-.965c1.54-.762 3.49-1.77 5.615-2.894 4.25-2.25 9.12-4.922 12.398-6.872 4.66-2.77 10.963-7.25 16.455-11.43 2.748-2.09 5.261-4.087 7.246-5.786.989-.847 1.852-1.619 2.612-2.375.244-.244 1.325-3.538 2.1-5.45.607-1.499.757-2.82.886-3.758.158-1.14.273-2.36.352-3.55.078-1.187.122-2.348.101-3.444a16 16 0 0 0-.119-1.774 10 10 0 0 0-.283-1.365c.158.544-.819-3.65-1.338-5.38-.87-2.903-4.874 1.75-6.266 1.934m9.674 45.148c-.877 0-1.756.098-2.609.438s-1.321.672-.762.392c-.453.227-.84.46-1.166.666a42 42 0 0 0-2.271 1.57c-1.743 1.271-4.082 3.07-7.127 5.473-6.092 4.807-14.973 12.008-26.85 21.764-9.055 7.439-18.852 15.4-21.38 17.385a467 467 0 0 0-3.805 3.017c-1.031.828-1.668 1.317-2.342 1.938-.216.2-.66.603-1.088 1.127.22-.268-.782.993-1.17 1.998-.11.286-.668 2.13-.344 3.809.267 1.382.828 2.228 1.442 2.988.613.76 1.248 1.418 2.47 1.974 1.06.482 2.23.784 3.414.676s2.314-.554 1.204-.275c.504-.127.999-.32 1.173-.393a15 15 0 0 0 1.309-.629c1.65-.87 4.092-2.33 8.135-4.779 22.512-13.639 35.574-22.395 46.74-31.422a876 876 0 0 1 5.97-4.783c1.692-1.342 3.212-2.51 3.042-2.387 1.008-.73 2.87-1.917 3.826-3.894.885-1.831.99-3.592 1.039-4.744.039-.917.09-2.264-.303-3.768-.144-.55-.594-1.525-1.256-2.494-.014-.062.001-.042-.015-.108-.07-.274-.833-1.578-1.324-2.404-.49-.823-2.63-3.135-5.952-3.135m-15.962-73.155c-.96.031-1.581.234-1.844.316-.682.214-1.07.424-1.275.53-.527.27-.91.512-1.315.77a71 71 0 0 0-2.972 2.044c-2.337 1.672-5.407 3.971-8.739 6.558-12.727 9.884-22.396 17.018-28.508 21.075-1.145.76-2.236 1.503-3.115 2.12-.439.309-.821.583-1.16.835-.193.143-.445.229-1.277 1.07-.04.04-.297.233-.59.59-.294.357-.597.852-.934 1.619a6.64 6.64 0 0 0-.24 4.82c.404 1.233 1.188 2.199 2.012 2.916.823.718 1.667 1.196 2.443 1.43 1.182.356 1.984.44 2.625.367s1.063-.28.988-.263h.002c.514-.116.874-.24 1.172-.346 1.42-.505 1.523-.68 2.227-1.041.799-.411 1.823-.95 3.033-1.594 2.418-1.289 5.567-2.994 8.93-4.832 6.724-3.675 14.25-7.85 18.418-10.262 3.574-2.067 8.179-4.733 10.228-5.916h.004c.77-.445 1.678-.893 2.299-1.154.07-.03.404-.091.568-.111h.309c2.62 0 7.573-.033 7.845-2.639.257-2.454-1.27-6.843-3.087-8.7-.038-1.019-.128-1.986-.344-2.866-.325-1.325-.547-2.97-2.49-5.125-1.893-2.1-4.244-2.243-5.213-2.211"/><path fill="#a0a0a0" d="m835.472 345.351-4 .29c-2.04.147-7.264.291-11.344.302l-7.5.02a2.25 2.25 0 0 0-1.006.24l-12.5 6.297c-6.915 3.483-16.805 8.719-22.093 11.699-5.217 2.939-10.507 5.862-11.32 6.277l-1.903.969a2.25 2.25 0 0 0 .185 4.096l5.655 2.255c2.145.856 3.618 1.402 4.771 1.713.577.156 1.064.268 1.662.276s1.568-.133 2.27-.96c-.42.494-.334.307-.264.262s.221-.132.418-.24c.394-.216.98-.52 1.688-.87a165 165 0 0 1 5.369-2.528c4.406-1.988 15.238-7.306 25.613-12.498s20.014-10.095 22.611-11.639l3-1.783a2.25 2.25 0 0 0-1.312-4.178"/><path fill="#010101" d="M572.348 340.598c-2.343-.225-3.3-.228-4.083.07a3.04 3.04 0 0 0-1.22.892c-.364.431-.699.987-1.089 1.768-.78 1.561-1.777 4.045-3.383 8.21-6.446 16.727-9.722 22.935-13.933 26.817-1.554 1.432-2.62 2.17-4.698 2.752s-5.191.954-10.539 1.426c-14.598 1.288-24.31 3.864-34.064 9.068-7.259 3.874-12.875 8.253-20.559 16.016l-4.547 4.594a.893.893 0 0 0 .635 1.521h2.57c1.721 0 3.027-.152 4.588-1s3.386-2.314 6.608-4.978c6.318-5.226 10.286-7.742 20.308-12.871l7.5-3.84 8.717-.239c9.217-.253 14.749-.596 18.805-1.626s6.595-2.809 9.51-5.67c7.01-6.882 15.683-23.236 17.74-33.385.146-.721.23-1.235.303-1.436s-.069-.073.105-.117c.348-.089 2.062.062 5.582.475 14.08 1.65 43.746 7.145 81.572 15.12 3.256.687 6.254 1.312 8.463 1.764 1.105.227 2.012.41 2.658.538q.485.096.768.146l.232.041c.063.01.008.025.24.025.495 0 .66-.257.753-.37a1.4 1.4 0 0 0 .18-.286c.086-.174.153-.355.23-.58.153-.45.326-1.062.521-1.824.39-1.525.862-3.645 1.35-6.1.058-.293.065-.572.014-.854-.051-.281-.1-.626-.57-.918h-.003c-.318-.196-.348-.148-.513-.191s-.371-.09-.625-.142a80 80 0 0 0-2.09-.397 496 496 0 0 0-7.272-1.225c-6.067-.986-14.355-2.28-23.52-3.673-18.328-2.79-40.164-5.985-54.765-7.952-6.362-.857-10.135-1.343-12.478-1.568zm106.235 15.857a.96.96 0 0 0-1.043.93l-.154 4.965c-.077 2.465-.159 3.644.054 4.574.107.465.443 1.003.91 1.213.468.21.81.168 1.135.168-.024 0 .329.027.784.096.454.068 1.069.17 1.818.303 1.498.264 3.534.647 5.943 1.113 4.82.932 11.137 2.201 17.684 3.547 13.093 2.691 27.142 5.698 31.9 6.908 5.107 1.298 13.175 3.62 17.864 5.137a3073 3073 0 0 1 28.001 9.228 1408 1408 0 0 1 10.58 3.582 266 266 0 0 1 3.18 1.113c.382.138.683.25.893.33.007 0 .009 0 .015.01.025.132.053.294.073.602.049.761.054 2.033.004 3.963-.1 3.86-.418 10.372-.992 21.07-1.676 31.217-2.708 47.218-3.92 60.817-.927 10.393-1.022 17.286-.336 24.592l.379 4.025a.962.962 0 0 0 1.875.197l.754-2.416c.272-.874.482-2.396.705-4.414s.424-4.454.552-6.838c.362-6.725.978-11.096 2.914-20.709 4.777-23.714 4.784-23.837 4.045-41.883-.65-15.906-.4-28.932.592-34.496.289-1.618 1.18-5.033 1.943-7.414.396-1.232.722-2.383.934-3.27q.16-.661.229-1.124a3 3 0 0 0 .039-.448c0-.078 0-.16-.024-.28-.023-.121-.042-.305-.287-.55-.228-.228-.236-.18-.3-.214a4 4 0 0 0-.208-.104 20 20 0 0 0-.601-.268 113 113 0 0 0-2.01-.834 429 429 0 0 0-6.344-2.503c-4.849-1.875-13.16-5.224-18.441-7.432-18.894-7.902-26.874-10.399-44.35-13.873-5.169-1.028-17.902-3.25-29.847-5.262a2059 2059 0 0 0-16.264-2.68c-4.52-.722-7.706-1.21-8.799-1.304h-.002zm-286.338 32.734c-.307.25-.248.87.547 2.37 2.356 4.451 8.086 11.685 15.077 18.707 6.607 6.637 7.812 7.282 11.571 7.317 1.122.01 2.358.372 2.653.499.471.192 1.044-.04 1.54 0h1.287l-3.475-3.282c-4.884-5.005-12.713-12.2-18.819-17.116-3.115-2.508-6.139-5.518-6.95-6.36-2.369-2.455-3.123-2.393-3.43-2.143z"/><path fill="#2a2a2c" d="M678.585 367.356c-.102 0-.197.01-.313.029s-.263-.001-.525.261c-.272.272-.246.413-.271.537a3 3 0 0 0-.043.366c-.016.253-.014.557-.002.93.023.744.094 1.752.2 2.97.214 2.436.575 5.7 1.01 9.219.872 7.037 2.04 15.071 2.946 19.506.525 2.573.831 5.495.889 7.853.028 1.18-.005 2.22-.096 2.986s-.378 1.279-.26 1.16a3 3 0 0 0-.898 2.145c0 .33.282.806.591.986.31.18.621.25 1.065.323.887.145 2.32.239 4.834.32 5.029.162 14.341.251 31.584.387 10.245.08 20.345.217 28.363.37 8.019.155 14 .333 15.84.48 4.617.368 9.059.8 12.422 1.19 1.681.196 3.094.382 4.115.542.51.08.924.154 1.213.217.185.04.175.034.22.047.04.101.087.232.145.431.138.471.309 1.174.498 2.063.38 1.777.842 4.302 1.354 7.344 1.023 6.084 2.246 14.247 3.43 22.773 2.366 17.052 4.662 38.596 4.814 44.733.015.61.032 1.007.067 1.29.009.072.015.132.043.231.013.05.29 1.257.09.22a.7.7 0 0 0 .185.223c.053.045.214.13.215.131l.314.062.311-.059c.001 0 .153-.08.205-.12a.8.8 0 0 0 .186-.206c.067-.105.081-.16.097-.209.033-.096.132.594.057-.228.104-.57.102-4.71.243-6.85.215-3.248.662-9.304.99-13.443.946-11.894 2.135-31.393 3.018-49.534.447-9.172.99-19.353 1.205-22.586.11-1.628.21-3.159.284-4.312.074-1.152.12-1.83.126-2.078.01-.351-.14-.5-.214-.584a1 1 0 0 0-.174-.158 2 2 0 0 0-.264-.16 9 9 0 0 0-.69-.317 56 56 0 0 0-2.345-.906c-1.963-.72-4.66-1.649-7.627-2.615l-26.367-8.627c-22.876-7.51-25.503-8.135-80.54-19.02a19 19 0 0 0-1.855-.281 6 6 0 0 0-.685-.033zm-107.267-19.701a.3.3 0 0 0-.33.232l-.835 3.662c-1.12 4.927-3.959 11.545-7.308 17.629-3.35 6.084-7.223 11.644-10.354 14.459-2.787 2.506-5.071 3.975-8.601 4.896-3.53.922-8.32 1.283-16.036 1.508l-11.3.328a.3.3 0 0 0-.127.031l-7.803 3.928c-10.378 5.224-13.445 7.161-20.451 12.908l-5.904 4.844a.301.301 0 0 0 .189.533l38.307.332c10.637.092 20.93.243 29.011.412 8.082.17 13.974.361 15.727.526 3.552.333 11.907 1.108 18.566 1.72 6.658.613 20.34 1.92 30.403 2.905 12.526 1.226 21.758 1.826 28.16 1.8 3.2-.012 5.694-.182 7.549-.513 1.854-.332 3.084-.81 3.744-1.545.297-.33.572-.941.885-1.75.312-.809.627-1.793.877-2.768.477-1.867 2.78-8.557 5.087-14.767 3.07-8.26 5.854-16.226 7.8-22.201.972-2.988 1.734-5.479 2.22-7.264.243-.893.417-1.607.514-2.129q.063-.32.084-.644.008-.12-.008-.24a.42.42 0 0 0-.123-.264c-.103-.103-.114-.077-.149-.09l-.115-.04a13 13 0 0 0-.358-.095q-.45-.115-1.27-.303a369 369 0 0 0-4.55-.998c-3.818-.819-9.063-1.916-14.857-3.108-11.588-2.383-25.37-5.15-34.328-6.859-17.7-3.375-31.27-5.675-36.62-6.205q-2.733-.272-5.46-.596zm-179.737 42.099a.54.54 0 0 0-.477.396l-.322 1.19c-.864 3.183-2.215 9.733-2.842 13.76-.786 5.053-.99 6.052-1.564 7.672a8.9 8.9 0 0 0-.447 2.619c0 1.213.504 2.236 1.584 2.834 1.079.597 2.645.875 4.966 1.055.713.055 2.721.069 5.458.064 2.736 0 6.156-.032 9.53-.072 3.375-.04 6.706-.093 9.26-.153 1.278-.029 2.361-.06 3.163-.092.4-.015.73-.03.982-.047.252-.016.387-.019.557-.057.236-.052.373-.074.56-.16.047-.021.101-.038.196-.133a.54.54 0 0 0 .146-.256.6.6 0 0 0-.059-.418c-.127-.215-.24-.226-.304-.25-.065-.024-.11-.03-.155-.039-.361-.066-.906-.065-1.996-.078-3.246-.039-4.254-.389-6.535-2.267-3.402-2.802-8.042-7.624-12.088-12.352s-7.524-9.426-8.574-11.771l-.506-1.13a.54.54 0 0 0-.533-.315m-32.115-51.574c-.855.012-2.039.054-3.473.125-2.868.14-6.729.391-10.898.715-9.747.756-34.308 1.346-57.584 1.595-11.638.125-22.961.163-31.96.096-8.998-.067-15.709-.247-17.988-.539q-2.507-.321-5.005-.707c-1.445-.225-2.575-.43-2.932-.527-.355-.097-.709-.136-1.057-.043-.347.093-.659.315-.94.637-.56.644-1.076 1.71-1.839 3.486-6.894 16.044-44.95 80.873-54.334 92.588-2.415 3.015-3.82 5.163-4.463 7.559s-.512 4.984.053 8.863c.205 1.411.413 6.757.555 14.267.141 7.51.227 17.243.232 27.635l-.046 39.166c0 .29.293.487.561.377l4.375-1.799c1.19-.49 2.47-.938 3.56-1.264 1.094-.325 2.034-.52 2.396-.523.642-.01 1.253-.135 1.754-.572.5-.438.866-1.125 1.205-2.188.678-2.125 1.322-8.361 2.242-14.981.87-6.26 2.585-15.68 3.803-20.89 1.225-5.242 3.78-17.09 5.681-26.345 2.43-11.832 5.596-25.322 8.408-36.248 1.406-5.464 2.723-10.286 3.817-13.938a99 99 0 0 1 1.453-4.53c.416-1.17.773-1.993.982-2.32-.033.052-.03.013.108-.016.137-.029.376-.045.703-.033.654.023 1.664.153 3.086.407 2.843.507 7.34 1.507 14.115 3.111 9.738 2.306 15.28 3.51 19.793 3.828s7.974-.263 13.461-1.5c21.905-4.939 45.703-3.237 72.395 5.2l10.964 3.464a.41.41 0 0 0 .403-.092l1.779-1.672c.56-.526 1.643-1.913 3.229-4.047 1.585-2.133 3.632-4.98 5.974-8.302 4.684-6.644 10.541-15.18 16.2-23.666l7.04-10.559a.41.41 0 0 0 .03-.402l-7.688-16.156a499 499 0 0 1-5.426-11.754 138 138 0 0 1-1.646-3.844 27 27 0 0 1-.443-1.152 5 5 0 0 1-.108-.338c-.022-.082-.025-.147-.025-.1 0-.392-.083-.781-.219-1.121s-.312-.642-.617-.83c-.163-.1-.216-.08-.309-.092a4 4 0 0 0-.328-.023 24 24 0 0 0-1.03-.01z"/><path fill="#ffe8d1" d="M256.644 428.064c-6.59 0-14.937 4.214-23.078 10.44s-15.997 14.536-21.09 23.108c-17.583 29.596-23.196 77.102-13.668 114.658 9.208 36.291 31.445 65.901 62.186 82.709 14.523 7.94 40.432 16.432 58.943 19.35 22.104 3.483 37.817.784 59.627-10.215 10.964-5.53 16.175-9.075 24.074-16.389 14.933-13.825 25.496-35.338 29.828-60.44 5.03-29.14-2.349-77.46-16.152-106.158-3.069-6.38-4.942-8.638-11.502-13.851-4.212-3.348-10.129-7.676-13.307-9.72-4.163-2.68-14.828-8.646-24.896-14.089-5.034-2.721-9.904-5.301-13.705-7.252-1.9-.975-3.534-1.792-4.795-2.394s-1.991-.967-2.715-1.149c-2.111-.53-4.318.163-6.45 1.739-1.43 1.057-1.562 1.325-3.92 1.388-2.36.063-6.743-.32-15.446-1.105-17.567-1.586-30.62-3.74-49.453-8.164a148 148 0 0 0-8.508-1.733c-2.599-.445-4.683-.732-5.973-.732m-.969 85.952c.629.115 1.593.7 2.893 2.166s2.898 3.73 4.902 6.856a137 137 0 0 0 4.12 6.066c1.257 1.74 2.179 2.976 2.955 3.678 1.095.991 2.666 1.433 5.404 1.859s6.717.778 12.68 1.176c22.185 1.481 40.554 3.676 54.584 6.511 13.11 2.65 37.577 10.391 47.865 15.124 6.137 2.823 10.586 5.741 12.97 8.246 1.193 1.252 1.844 2.387 2.041 3.246.198.859.072 1.433-.505 2.129-.34.41-.562.587-.809.693-.247.107-.604.178-1.305.115-1.401-.126-3.981-.857-8.39-2.312-44.62-14.728-61.261-18.19-100.834-20.975-12.093-.85-30.094-2.217-39.983-3.035-9.9-.82-21.262-1.754-25.254-2.076-1.004-.081-1.693-.223-2.554-.34.61-.146 1.2-.272 1.824-.445l3.764-1.045a1.37 1.37 0 0 0 .814-2.014l-2.514-4.287c-1.974-3.37-2.324-4.983-2.324-10.756 0-1.938.069-3.703.174-4.943.006-.073.013-.093.02-.162.208.143.358.23.601.41 1.087.808 2.476 1.959 3.916 3.238 2.88 2.559 6.004 5.683 7.441 7.566a43 43 0 0 0 3.077 3.6c.997 1.04 1.769 1.808 2.646 2.277.866.464 1.809.585 2.861.647 1.053.06 2.193.014 3.278-.115 1.084-.13 2.1-.333 2.953-.643.426-.155.813-.328 1.19-.615.375-.288.843-.805.843-1.569 0-.377-.065-.51-.123-.695a7 7 0 0 0-.213-.582 26 26 0 0 0-.681-1.506 76 76 0 0 0-2.159-4.09c-1.736-3.077-2.606-5.609-2.72-7.539s.401-3.237 1.65-4.4c1.364-1.271 2.148-1.597 2.902-1.459"/><path fill="#525151" d="M649.581 446.727c-13.109-.017-14.987.246-23.479 3.172-8.79 3.029-16.757 7.343-21.826 11.322-2.534 1.99-4.364 3.842-5.226 5.717-.431.937-.628 1.975-.27 2.96.358.987 1.23 1.697 2.272 2.097 1.273.488 2.798.377 5.42-.42 2.621-.798 6.55-2.31 13.05-4.914 22.728-9.105 39.684-9.07 58.928.045 6.953 3.292 9.622 5.298 17.227 12.94 9.96 10.012 17.04 19.172 26.404 34.17 3.396 5.44 8.904 13.538 12.316 18.106a281 281 0 0 0 4.467 5.838c.597.755 1.094 1.37 1.47 1.813.19.221.345.398.485.545.07.073.133.137.223.214.045.04.093.082.183.141.09.06.178.173.608.219.447.047.893-.195 1.084-.385.19-.19.248-.329.293-.432.09-.206.102-.309.12-.414.038-.21.05-.394.062-.62q.031-.683.008-1.782a123 123 0 0 0-.272-5.664c-.785-11.456-5.654-21.124-21.783-43.727l-4.205-5.894 2.902-.656c2.817-.638 6.765-2.052 9.143-3.29l4-2.082a1.312 1.312 0 0 0-.096-2.373l-3.5-1.478c-1.194-.504-3.122-.971-5.516-1.45a103 103 0 0 0-7.841-1.24 128 128 0 0 1-7.416-1.091c-2.177-.392-3.977-.832-4.426-1.012-1.254-.502-2.176-1.348-2.467-1.844-.054-.09-.032-.033-.047-.08.73-.228 2.769-.857 4.693-1.447 2.229-.684 5.148-2.58 7.737-4.566 1.294-.994 2.473-2.005 3.369-2.92.448-.458.824-.889 1.123-1.323s.594-.832.594-1.576c0-.405-.2-.75-.364-.931a1.4 1.4 0 0 0-.416-.323 2.2 2.2 0 0 0-.56-.209 9 9 0 0 0-1.205-.199c-.96-.11-2.29-.194-3.963-.258-3.347-.128-8.049-.17-13.568-.11-17.088.19-19.178.03-26.881-2.134-7.166-2.014-11.14-2.44-22.854-2.455"/><path fill="#2b4248" d="M442.607 217.927a18 18 0 0 0-5.262.16c-2.56.45-5.227 1.433-7.635 2.608s-4.423 2.171-6.027 4.371c-2.321 3.183-3.607 6.93-3.074 10.69.548 3.87 2.486 7.678 5.242 10.484 1.765 1.797 3.906 3.08 6.69 4.146 2.38.912 4.801 1.076 6.892.508 5.167-1.402 9.387-5.349 11.959-10.57 2.838-5.762 3.53-12.17.248-16.94a12.85 12.85 0 0 0-4.22-3.93c-1.488-.87-3.115-1.32-4.813-1.527m99.789 3.803c-3.566-.351-7.037.592-10.29 2.184-2.65 1.297-5.217 3.383-6.763 6.154s-2.063 5.778-2.232 9.012c-.454 8.638 2.484 17.085 9.705 21.261 5.17 2.991 11.458 2.89 16.054-1.513 2.225-2.132 3.198-4.132 4.535-6.657 1.338-2.524 2.552-5.174 3.311-7.755.97-3.295 1.421-6.645.58-9.995s-2.95-6.147-5.42-8.32c-2.632-2.317-5.916-4.02-9.48-4.37"/><path fill="#a0ccdc" d="M498.042 190.195c-6.386 0-13.247.166-20.623.49-24.309 1.069-40.17 3.638-55.777 9.063-19.627 6.821-37.786 19.005-45.045 30.533-3.888 6.174-4.502 8.472-4.496 16.973.007 9.511 1.397 14.79 5.236 19.275 1.452 1.696 3.724 3.509 5.953 4.955 1.115.723 2.213 1.348 3.205 1.807s1.833.778 2.688.783c.201 0 .378.055.42.076s-.194-.083-.194-.467c0 .467.376.9.64 1.041.262.142.464.17.663.193.4.047.81.026 1.297-.023.975-.098 2.213-.333 3.508-.638a40 40 0 0 0 3.78-1.08c1.143-.397 2.04-.733 2.708-1.293.876-.734 2.165-2.02 3.008-2.996l1.008-1.164 4.285 1.33c8.003 2.484 15.511 3.873 29.152 5.408 1.12.126 4.481.584 7.39 1.01 2.946.43 6.206.801 7.556.822 1.017.016 2.946.303 3.98.597.685.195 1.878.375 3.588.608s3.865.493 6.193.75c4.656.513 9.99 1.014 13.768 1.254 1.9.12 6.848.562 10.922.978 4.086.418 8.36.838 9.564.938 1.08.09 2.586.41 2.887.531.547.22 1.212.333 2.158.488.947.156 2.097.312 3.285.45 2.376.275 4.841.485 6.21.44.36-.011.8.037 1.163.12s.667.246.643.227c.256.204.402.238.592.306s.402.13.646.194c.49.128 1.11.26 1.836.398 1.453.276 3.324.566 5.29.807 3.885.477 7.89.986 8.818 1.119 1.012.145 5.571.739 10.207 1.33 2.308.294 4.568.612 6.34.887 1.771.274 3.202.56 3.32.597.463.147.888.172 1.652.25s1.76.16 2.926.243c2.332.163 5.343.326 8.48.449 12.55.491 17.316-.18 27.67-3.897 11.066-3.971 18.25-8.857 21.608-15.4 3.357-6.544 2.719-14.528-1.342-24.283-2.769-6.65-6.668-11.874-14.735-19.819-16.204-15.96-34.65-26.156-58.207-32.191-11.77-3.015-26.665-4.471-45.824-4.467zm-56.25 31.178c3.014.28 5.345 1.615 6.998 4.097 2.04 3.062 1.792 7.967-.144 12.412s-5.498 8.296-9.45 9.393c-1.64.455-2.275.637-2.722.621s-1.06-.241-2.652-.81c-3.997-1.429-6.281-3.438-8.13-7.147-2.163-4.341-2.213-7.078-.24-10.992 1.233-2.444 2.026-3.156 5.49-4.916 4.126-2.096 7.836-2.939 10.85-2.658m98.967 6.052c5.627-.03 11.285 5.372 11.285 10.635 0 2.17-1.113 5.942-2.687 9.383-1.575 3.44-3.674 6.638-5.15 7.799-1.944 1.528-6.162 1.603-8.72-.035-3.426-2.196-5.798-6.715-6.55-11.473s.133-9.659 2.72-12.568c.783-.88 2.32-1.866 4.03-2.574 1.71-.709 3.607-1.158 5.072-1.166z"/><path fill="#fcdbb9" d="M675.042 365.981c-.182 0-.288.112-.37.217-.08.105-.155.24-.245.43-.182.38-.418.98-.756 1.918-.678 1.876-1.759 5.103-3.55 10.529-3.52 10.673-7.14 22.79-9.13 30.57-.549 2.147-.874 3.528-1.02 4.418-.072.446-.102.766-.085 1.02.017.253.091.48.285.603.274.174.645.213 1.226.26.582.047 1.348.068 2.272.062 1.849-.01 4.332-.125 7.203-.34 2.863-.214 4.997-.44 6.477-.69.74-.124 1.313-.251 1.742-.394.428-.142.724-.274.892-.539.123-.193.147-.4.188-.72s.072-.731.094-1.22c.044-.976.05-2.26.027-3.699-.048-2.877-.224-6.371-.51-9.224-.295-2.943-1.169-9.72-1.943-15.08-.774-5.354-1.604-11.576-1.84-13.803a51 51 0 0 0-.381-2.893 12 12 0 0 0-.178-.896 2 2 0 0 0-.084-.273.5.5 0 0 0-.062-.12c-.032-.044-.092-.136-.252-.136m42.978 54.953-3.974.08a.144.144 0 0 0-.055.278l3.475 1.474c7.633 3.243 13.018 6.27 18.662 10.487 7.523 5.621 14.142 12.475 19.91 20.615 9.179 12.953 15.353 27.89 19.924 48.222 2.281 10.148 3.418 18.122 3.775 26.45.108 2.518.245 4.58.4 6.088q.117 1.132.247 1.836c.086.467.167.78.283.968a.46.46 0 0 0 .19.186c.083.04.187.038.275 0 .175-.07.32-.233.513-.504.385-.543.923-1.542 1.746-3.184 1.698-3.383 2.577-5.24 2.999-8.43.421-3.189.392-7.702.298-16.445-.133-12.492-.237-14.9-1.062-24.787-1.418-16.985-3.962-33.693-6.28-41.2-1.497-4.852-1.803-6.055-2.29-8.983a26 26 0 0 0-.46-2.184c-.164-.632-.312-1.102-.462-1.332-.278-.424-.703-.793-1.45-1.146-.746-.354-1.817-.7-3.421-1.09-3.208-.783-8.545-1.748-17.62-3.29-18.753-3.184-28.087-4.264-35.623-4.113z"/><path fill="#4994ca" d="M338.737 914.992a.63.63 0 0 0-.775.172l-.928 1.176c-1.027 1.3-1.669 2.032-1.674 2.996-.002.482.205.923.5 1.322.296.4-3.434 2.637-2.925 3.143 2.144 2.128 11.044 3.006 17.289 5.922s13.928 5.974 21.728 8.562c6.728 2.233 11.958 3.533 22.078 5.488l21.977 4.248c7.078 1.37 22.76 3.832 31.29 4.915 5.021.636 12.497.234 21.977-1.145 13.056-1.9 22.071-2.794 37.891-3.76 14.986-.915 19.24-1.383 27.334-3.013 7.934-1.598 17.076-4.465 24.186-7.303 3.555-1.42 6.598-2.83 8.748-4.086 1.075-.628 1.926-1.215 2.525-1.78.3-.282 1.243.654 1.413.35.168-.304-.625-1.82-.704-2.191-.047-.224-.106-.495-.351-.738-.246-.243-.607-.318-.918-.307-.622.022-1.18.203-2.604.635-4.744 1.436-14.04 3.442-19.504 4.205-2.777.387-7.836 1.279-11.29 1.99-27.888 5.743-43.83 7.392-71.374 7.379-17.029-.01-26.744-.52-41.68-2.19-18.036-2.016-36.196-5.747-48.255-9.906-3.55-1.224-9.153-3.488-14.315-5.72-5.162-2.233-9.927-4.461-11.682-5.518a39 39 0 0 0-1.972-1.12 8 8 0 0 0-.639-.308c-.087-.036-.155-.065-.27-.09-.04-.01-.122-.01-.205-.01-.022-.01-.02-.01-.052-.018a13 13 0 0 1-.729-.3q-1.266-.57-2.504-1.198zm6.588 3.424c-.024.013-.043.017-.068.035.003 0 .003-.01.006-.012.03-.021.037-.01.062-.023"/><path fill="#e7c5a2" d="M707.572 733.503c-.263-.284-23.651 18.244-34.901 24.015-39.723 20.376-83.584 37.693-123.209 47.135-61.524 14.659-111.094 13.6-184.378-6.462-22.08-6.044-55.213-13.013-55.135-12.889-1.058 1.058 34.971 16.18 51.884 21.995l17.076 5.871-.818 6.088c-.45 3.349-2.21 12.811-3.912 21.028-1.703 8.216-2.625 15.408-2.051 15.982s9.719 1.106 20.322 1.182c12.26.088 25.653 1.286 36.783 3.289 17.711 3.187 43.412 6.167 60.122 6.972 5.022.242 10.747.569 12.72.727 2.484.2 7.403-.307 7.176-1.84-1.651-11.13-.397-14.453-5.213-38.596l10.924-1.05c39.173-1.433 86.328-17.99 126.6-44.928 17.32-11.586 67.265-47.165 66.01-48.52"/><path fill="#4994ca" d="M308.167 965.18a.686.686 0 0 0-.857.259l-.215.335a335 335 0 0 1-4.746 7.198 136 136 0 0 1-1.8 2.592c-.236.33-.437.604-.59.802-.15.14-1.57 3.47-.75 3.871l.232.069s.124.004.17-.002a.7.7 0 0 0 .181-.049c.155-.065.163-.092.207-.125.087-.066.187-.15.373-.305.99-.827 2.22-1.6 4.496-2.793 2.893-1.516 4.703-2.716 6.309-4.205 1.366-1.266 2.372-2.663 2.525-3.968v-.004l.026-.225a.69.69 0 0 0-.25-.61l-.348-.28-.002-.003c-.793-.638-1.496-1.018-3.502-1.908z"/><path fill="#cdced1" d="M293.03 962.993c-.515.162-.86.648-.842 1.188l.092 2.74c.137 4.084.572 5.802 2.371 9.353 1.052 2.077 1.455 3.46 1.467 4.584l-.002-.002.008.797c.008 1.325 1.84 1.664 2.322.43l.504-1.277c.258-.652.602-1.576.705-1.75.128-.217.23-.411.313-.635.041-.112.09-.209.107-.467.01-.129.037-.317-.123-.646-.117-.234-.141-.805-.277-1.721-.546-3.673-1.714-6.612-4.016-10.156l-1.261-1.946a1.2 1.2 0 0 0-1.368-.492"/><path fill="#47a5e9" d="M335.01 919.09a.95.95 0 0 0-.734.433l-4.91 7.455c-2.538 3.985-8.03 13.099-12.236 20.303a1090 1090 0 0 1-5.777 9.79c-1.623 2.711-2.86 4.72-3.147 5.13l-1.332 1.902a.945.945 0 0 0 .39 1.405l3.202 1.416c.819.362 1.57.803 2.074 1.183.25.188.436.362.531.473-.043.864-.671 2.117-2.037 3.47-1.413 1.402-3.516 2.88-6.117 4.212-3.29 1.686-5.369 2.989-6.941 5.15s-2.58 5.03-4.035 9.852a555 555 0 0 0-1.422 4.779 143 143 0 0 0-.436 1.516 24 24 0 0 0-.158.603c-.01.048-.035-.017-.035.266l.535.851s.156.06.193.068c.074.018.1.02.127.024.054.01.088.01.131.012.085.01.19.01.326.014q.408.016 1.18.027c1.029.018 2.54.036 4.484.055 3.89.037 9.512.075 16.45.114 13.875.076 33.012.148 54.062.199 42.1.1 112.104.262 155.564.357l79.018.174a.945.945 0 0 0 .947-.945l.002-3.006c0-2.685-.561-6.392-1.283-9.553-.36-1.58-.76-3.015-1.168-4.123-.203-.554-.406-1.026-.63-1.418-.226-.392-.399-.775-1.022-.992-.408-.142-1.47-.664-2.692-1.342a108 108 0 0 1-4.011-2.357 84 84 0 0 1-3.223-2.08c.273.027.435.015.74.057 1.845.25 4.193.759 6.004 1.369a22 22 0 0 0 2.154.615c.302.066.562.112.803.135.12.01.235.018.381.01.146-.013.39.047.729-.291.395-.722.26-1.52.128-2.311-.152-.925-.3-2.237-.66-3.434-.72-2.393-1.713-4.986-2.71-6.527-.628-.97-2.127-2.857-4.137-5.285a356 356 0 0 0-6.996-8.172c-4.968-5.63-10.607-12.234-12.458-14.584l-3.443-4.373a.945.945 0 0 0-1.24-.219l-3.33 2.063c-3.97 2.459-16.127 7.079-24.82 9.338-11.22 2.915-18.406 3.92-33.215 4.644-15.96.78-29.824 2.187-42.887 4.35-6.54 1.083-10.212 1.333-14.55 1.008-7.896-.593-27.936-3.62-38.003-5.748-8.069-1.706-18.807-3.78-27.387-5.293-7.042-1.242-18.29-5.047-28.255-9.192-4.984-2.072-9.656-4.23-13.34-6.19-3.684-1.958-6.416-3.807-7.309-4.868l-1.283-2.18a.95.95 0 0 0-.785-.334zm201.698 64.832c-.71.502-1.17.874-1.973 1.418-4.015 2.722-7.666 5.328-9.43 6.687.408-.47.733-.896 1.276-1.431 1.428-1.408 5.235-3.951 8.768-5.967.499-.285.876-.445 1.36-.707"/><path fill="#f1f1f1" d="M245.557 903.068c-13.428-1.612-24.849 1.182-35.809 7.424-4.918 2.76-11.587 7.684-18.562 13.703-40.23 34.71-58.201 72.649-56.09 74.763.162.162 13.269.417 29.128.567s51.353.318 78.876.375l50.043.103 1.823-5.875c3.423-11.04 3.485-12.568.758-18.396-1.277-2.728-1.63-4.202-1.782-7.44l-.191-4.039 1.082 1.246c1.577 1.818 3.376 5.579 4.22 8.82.407 1.56.82 2.915.919 3.014.282.283 9.226-13.323 14.185-21.58 10.248-17.064 19.112-32.087 19.697-33.386.545-1.208 2.472-1.313 1.506-3.031-.61-1.085-4.471-2.265-4.667-3.442-.303-1.82-.632-2.276-2.197-3.043-3.225-1.58-21.025-6.986-31.939-8.682-5.686-.883-36.036-1.539-51-1.101"/><path fill="#a0a0a0" d="M331.985 925.707c-.055 0-.17-1.048.178-1.782.88-1.853.87-2.563-.065-4.177-.884-1.526-1.384-2.827-1.533-3.989-.23-1.794-.298-2.027-.738-2.55-.248-.295-.401-.536-.341-.536.36 0 2.647.461 3.34 1.108 1.113 1.038 1.611 1.584 3.009 1.753.65.078 1.093.7 1.2.806.249.25-.116 3.127-1.175 4.318-.417.47-.83 1.115-.919 1.434-.17.617-2.608 3.615-2.956 3.615"/><path fill="#2a2a2c" d="M170.65 651.11c-.292.011-.163 1.065.253 3.258.765 4.034 1.485 17.438 2.301 42.91.423 13.197.986 25.52 1.25 27.385.815 5.747 3.826 11.819 8.74 17.623 4.006 4.732 4.445 6.072 4.655 14.229.219 8.537-.567 17.01-1.971 21.236-1.589 4.783-6.026 13.457-10.504 20.535-2.262 3.575-5.068 8.525-6.234 11-3.744 7.942-6.545 11.012-14.069 15.416-7.585 4.44-10.428 5.515-15.19 5.742-4.998.24-10.828-.776-15.886-2.77-3.55-1.398-6.059-2.92-6.059-3.673 0-.256 1.407-.491 3.125-.523 1.72-.032 2.806-4.35 2.256-4.461-6.657-1.357-9.078-1.31-9.293-1.096-.93-.9-5.31-.933-5.343-.9-.1.1 1.847 3.898 3.406 6.642 2.034 2.106 11.887 24.553 12.164 25.373l1.435 4.25 1.362 10.76c1.119 8.836-.329 16.137-.881 21.25-.971 8.987-3.992 21.784-4.996 25.12-1.436 4.772 1.864.29 7.748-8.577 2.447-3.689 5.266-8.357 6.264-10.375.997-2.018 2.012-3.668 2.253-3.668 2.435 0-.636 9.503-5.945 18.4-2.875 4.818-4.6 8.892-4.63 10.934-.01.596.325 1.721.743 2.5s.974 2.03 1.235 2.781c.422 1.218.65 1.332 2.113 1.053 7.179-1.369 11.059-6.965 21.309-30.736 4.86-11.273 5.655-12.932 6.185-12.932.23 0 .277.619.106 1.375-1.066 4.702-2.09 8.482-4.705 17.375-3.266 11.106-4.224 15.767-4.985 24.25-.282 3.153-.36 6.019-.515 6.035.16 0 2.824-.02 5.873-.35 3.23-.348 10.63-1.136 16.443-1.75l10.57-1.117.305-2.228c.168-1.226.32-5.855.336-10.285.024-6.337.223-8.642.93-10.805.559-1.711 1.012-2.467 1.199-2 .165.412.877 5.556 1.582 11.43 1.271 10.591 1.73 12.576 2.902 12.564.334-.003 2.183-1.279 4.108-2.834 4.062-3.282 12.446-8.88 14.431-9.635 1.88-.714 2.558-2.617 4.043-11.334 1.655-9.711 2.11-11.296 3.182-11.091 1.165.222 1.328 5.294.432 13.4-.38 3.437-.555 5.223-.457 5.338.003.004.013.01.013.01.163.058 1.035-.526 2.314-1.045 6.744-2.732 9.619-3.487 20.205-4.48l8.8.449.5-3.471c.139-1.128.393-3.85.564-6.05.57-7.327 2.305-14.625 3.682-15.475.564-.35.899 2.101 1.257 9.224.26 5.146 1.166 10.633 2.558 13.965l.7 1.672 13.779.083c7.662.198 16.353.27 19.103.52l4.86.26 1.354-2.054c.727-.842 1.596-2.58 1.93-3.864s.714-2.738.845-3.234c.415-1.567 1.397-.604 1.555 1.523.083 1.124-.042 3.491-.28 5.262l-.354 2.912 7.323 1.499c6.114 1.35 12.734 3.478 17.52 4.828.994.28 1.556-.68 3.154-4.188 1.683-3.694 3.416-6.184 4.301-6.184.474 0-.43 2.575-2.521 7.19-1.068 2.354-1.404 3.626-1.067 4.033.271.326 3.762 2.131 7.758 4.012 7.105 3.343 19.538 8.148 20.527 7.253 2.458-2.224 18.74-22.988 22.8-34.998 4.722-13.972 15.856-70.072 6.753-74.22l-9.59-4.371-4.441-1.381c-5.405-1.68-18.79-6.617-28.942-10.676-34.332-13.728-62.025-31.9-87.773-57.598-21.493-21.45-33.775-38.566-47.723-66.504-2.951-5.912-5.406-10.797-5.455-10.853-.048-.056-2.093.59-4.545 1.435-5.248 1.81-8.104 1.747-12.521-.275-3.361-1.539-8.098-5.954-10.762-10.031-.951-1.456-1.508-2.21-1.758-2.201z"/><path fill="#010101" d="M165.851 632.396c-.564-.095-1.167.158-1.447.389-.281.231-.38.415-.456.55-.3.542-.26.684-.318.956-.107.5-.054.417-.062.613-.01.196-.016.446-.024.76-.016.628-.03 1.505-.045 2.61-.03 2.208-.057 5.324-.082 9.124-.049 7.6-.084 17.934-.095 29.17l-.043 40.848a1.77 1.77 0 0 0 .867 1.523l1.082.639c1.692 1 2.857 2.254 3.834 4.332s1.701 4.999 2.219 9.054c.747 5.86 1.517 7.92 4.748 12.711 2.887 4.283 3.963 6.69 4.757 10.534 1.105 5.349.66 9.045-2.293 18.09-3.994 12.24-10.438 26.51-14.228 31.878-1.25 1.771-3.925 4.765-6.565 7.42-2.639 2.655-5.464 5.104-6.375 5.64-1.998 1.18-2.452 1.545-4.597 1.825s-5.976.337-13.762.442a691 691 0 0 0-10.123.2c-1.314.039-2.388.076-3.158.114-.385.019-.69.038-.934.059-.121.01-.224.019-.345.037-.061.009-.125.017-.237.045s-.187-.192-.855.478a2.04 2.04 0 0 0-.545 1.166c-.038.427.073.76.18.99.213.46.426.632.619.805.386.345.782.59 1.287.875 1.01.572 2.414 1.225 4.152 1.941 3.661 1.508 6.806 2.373 11.006 3.03 5.886.92 10.65.153 16.07-2.573 6.365-3.2 10.815-6.12 13.979-9.292 2.71-2.718 3.42-3.759 5.894-8.825 1.424-2.913 3.933-7.442 5.461-9.86 5.896-9.322 8.998-15.133 11.256-21.163 1.792-4.783 2.301-7.854 2.803-16.838.334-5.994.333-9.966-.397-13.244-.729-3.278-2.26-5.753-4.566-8.338-3.412-3.825-7.02-10.308-8.016-14.201-.632-2.473-1.119-9.658-1.728-30.074-.674-22.586-1.114-32.215-1.787-38.862-.544-5.37-.923-7.118-3.313-15.154-.767-2.58-1.63-5.899-1.863-7.084a40 40 0 0 0-.275-1.32c-.082-.347-.1-.55-.325-.995-.112-.223-.228-.835-1.355-1.025"/><path fill="#949494" d="M167.107 443.34c.109-1.238.044-1.48-.644-2.422-5.04-1.02-36.818-37.14-37.833-37.205l-1.755-.112c1.528-.98 3.142-4.354 4.378-5.659l6.443 2.48c4.208 1.621 7.711 12.337 12.43 17.852 5.102 5.961 10.546 12.908 16.226 20.703l1.277 2.486-.544 1.377-.1 1.875z"/><path fill="#2248a6" d="M126.478 487.642a26 26 0 0 0-4.416.36c-7.969 1.274-14.703 5.47-23.407 11.955-3.598 2.681-5.956 4.08-9.167 7.77-3.212 3.688-4.863 8.437-5.594 10.77-1.418 4.526-2.64 10.224-3.758 15.99-1.646 8.484-2.178 14.486-2.232 25.1-.038 7.39-.092 12.506 1.302 18.463s5.841 12.436 9.45 15.604c3.335 2.928 12.529 6.387 16.962 6.387 8.131 0 16.253-4.11 21.56-9.342 5.309-5.233 8.96-11.383 12.542-18.772 5.266-10.864 9-22.496 11.07-33.443s3.533-20.49-.709-31.658c-1.856-4.888-4.072-8.896-8.76-13.012-1.499-1.316-3.735-3.555-8.396-5.123-2.33-.784-4.558-1.034-6.447-1.049M85.834 598.173c-2.066.207-3.95 1.383-4.723 3.418-1.123 2.953.31 6.709 3.517 10.258a24 24 0 0 0 2.004 1.99c.3.26.57.477.814.641.245.164.371.334.844.334.38 0 .539-.124.766-.252q.339-.193.736-.494c.531-.4 1.142-.933 1.733-1.523.912-.912 1.521-1.667 1.863-2.64.342-.972.408-2.075.408-3.735 0-1.55-.075-2.638-.35-3.551-.273-.913-.773-1.616-1.462-2.26-1.797-1.677-4.085-2.392-6.15-2.186m38.927 13.272c-4.505.465-7.987 3.316-10.498 7.076-1.754 2.626-3.022 4.546-3.7 7.106-.676 2.56-.238 5.2.4 7.318 1.541 5.124 4.307 10.206 8.08 13.703 1.891 1.755 4.778 3.206 7.722 3.072s5.294-1.376 7.654-2.94c5.163-3.42 8.535-8.768 8.535-14.556 0-4.422-1.697-8.448-4.049-11.982-2.35-3.535-5.355-6.646-9.517-8.215a10.2 10.2 0 0 0-4.627-.582"/><path fill="#29292b" d="M79.938 745.728c-2.552-10.17-4.994-32.01-5.308-47.474-.096-4.725-.06-7.43.105-7.724.316-.564.585.892 1.312 7.1 1.26 10.742 4.602 29.034 6.66 36.443.49 1.762.949 3.878 1.02 4.703.117 1.368.05 1.648-.774 3.192-.827 1.553-2.636 4.433-2.783 4.433-.035 0-.139-.303-.232-.673"/><path fill="#949494" d="M194.12 386.385s-35.741-15.918-42.857-33.39c-1.279-3.142-4.195-7.017-5.176-8.066-1.532-3.06 1.434-6.498 2.439-9.548l.236-.53.015.819c.011.645.161 1.04.708 1.856 3.176 4.744 20.735 21.518 40.495 38.685 5.746 4.992 7.425 6.474 7.425 6.556 0 .23-2.642.791-2.642.791z"/><path fill="#f2f2f2" d="M884.422 332.5a3 3 0 0 0-.57.113q-.598.167-1.456.514c-1.145.459-2.633 1.142-4.219 1.95-3.67 1.874-10.945 4.393-17.976 6.403S846.218 345 843.547 345c-1.382 0-2.637.14-3.614.392-.488.126-.906.272-1.275.496-.248.15-.48.414-.64.742a4 4 0 0 1-.255.19c-.273.19-.716.467-1.289.807-1.145.678-2.823 1.611-4.882 2.722-4.119 2.222-9.776 5.161-15.897 8.27-12.242 6.217-26.359 13.122-33.744 16.351l-4.82 2.108c-.75.326-.728 1.396.033 1.693l14.797 9.791c7.108 2.774 12.042.783 13.937 1.943.948.58 1.33 1.02 1.453 1.295.123.276.11.533-.074 1.106-2.742 8.54-5.188 15.215-5.219 39.314-.028 22.023-2.475 27.998-5.43 43.674-1.747 9.273.815 18.752.382 23.526a39 39 0 0 0-.18 2.939c-.005.38.002.706.027.988s.04.504.193.819c.077.157.21.39.545.533.335.142.752.042.952-.084.398-.252.46-.47.591-.727.264-.514-.002.825.328-.265.247-.816 1.713-4.742 2.985-6.827a84 84 0 0 1 4.508-6.619c2.196-2.909 4.002-5.088 5.775-6.605s3.49-2.388 5.674-2.774c4.37-.77 10.76.558 22.234 3.6a494 494 0 0 1 14.41 4.055c4.22 1.262 7.556 2.355 8.801 2.885 5.54 2.356 12.153 8.733 13.979 13.31.146.368.354 1.35.508 2.662.154 1.313.28 2.989.377 4.92.191 3.862.264 8.745.222 13.861-.084 10.233-.633 21.443-1.562 27.286-1.748 10.988-7.441 26.142-11.848 31.92-3.808 4.992-9.35 7.218-15.125 6.843-5.775-.374-11.773-3.385-16.322-8.998-2.94-3.627-10.494-11.668-16.9-18.008-7.545-7.464-12.533-13.808-14.33-18.002-3.46-8.072-4.359-33.458-3.456-42.357.05-.485.075-.852.07-1.152a2 2 0 0 0-.044-.451 1 1 0 0 0-.13-.334 1 1 0 0 0-.62-.46 1.01 1.01 0 0 0-1.025.406 2 2 0 0 0-.223.388c-.122.26-.43-.24-.567.175-.547 1.658-.666 16.987-1.956 21.197-14.373 46.915-34.622 78.51-39.768 140.61-2.846 34.35 6.314 73.852 17.18 109.756l3.704 12.24a.916.916 0 0 0 1.412.479l6.692-4.807c17.33-12.45 35.816-15.887 48.242-9.356 3.497 1.839 8.699 3.288 12.045 3.288 3.938 0 6.284.927 9.607 3.822 2.63 2.29 6.737 5.148 9.358 6.49 2.17 1.112 6.253 5.015 8.572 8.385 1.22 1.773 2.446 3.381 3.46 4.568.509.594.96 1.08 1.355 1.444.196.181.377.334.57.462.192.129.364.284.81.284.531 0 .778-.232 1.028-.44.249-.208.484-.46.742-.771.516-.622 1.11-1.472 1.785-2.528 1.352-2.11 3.014-5.03 4.79-8.375 3.548-6.687 7.533-15.05 10.232-21.861 12.053-30.426 20.077-74.916 29.293-162.006 1.61-15.213 3.29-41.935 3.74-59.47.924-36.024-.261-43.796-10.31-67.965-5.828-14.016-6.982-18.508-9.188-35.764-.439-3.431-.567-6.583-1.124-8.875-.279-1.146-.553-2.08-.832-2.781-.14-.35-.275-.64-.455-.903-.18-.262-.434-.65-1.074-.65-.674 0-.967.243-1.512.543s-1.63.745-2.37 1.25c-1.48 1.01-3.297 2.385-5.122 3.9-7.987 6.635-23.88 17.447-38.214 26.455-7.168 4.505-13.952 8.564-19.17 11.438-2.61 1.437-4.83 2.578-6.49 3.322-.548.246-.926.375-1.34.53.19-.202.218-.285.466-.522 1.496-1.423 4.014-3.451 7.29-5.824 6.486-4.7 22.247-17.294 36.51-28.961 7.13-5.834 13.88-11.432 18.892-15.682 2.506-2.125 4.576-3.912 6.049-5.23a56 56 0 0 0 1.746-1.616c.212-.208.385-.385.523-.54s.239-.192.377-.563c.166-.446.085-.624.05-.899a9 9 0 0 0-.19-.949 40 40 0 0 0-.809-2.763c-.714-2.201-1.754-5.05-2.951-8.04a108 108 0 0 1-3.03-8.593c-.775-2.568-1.176-4.739-1.232-5.399l-.322-3.835c0-.772-.948-1.136-1.547-.649l-5.635 5.13c-7.972 7.26-23.929 16.612-35.86 22.6-3.78 1.898-6.652 3.254-8.589 4.041-.436.178-.634.218-.973.336.259-.269.39-.447.75-.787 1.536-1.449 3.976-3.514 7.287-6.183 4.71-3.798 16.674-14.142 26.659-23.047 8.05-7.18 12.561-11.316 15.035-14.139 1.237-1.411 1.98-2.504 2.367-3.545s.998-2.18.774-3.072a195 195 0 0 1-1.688-7.553c-.235-1.177-.559-2.243-.918-3.066-.18-.412-.363-.762-.59-1.063s-.505-.686-1.168-.686c-.328 0-.369.058-.49.102a6 6 0 0 0-.398.162q-.449.198-1.153.55c-.939.47-2.86 1.297-4.396 2.124a562 562 0 0 0-11.565 6.438c-10.913 6.227-20.692 11.479-27.974 15.084-3.641 1.802-6.66 3.193-8.866 4.082-.658.265-1.081.39-1.586.562.09-.076.103-.104.2-.183 1.541-1.259 3.941-2.96 6.785-4.762 11.364-7.199 36.242-25.503 42.556-31.355 1.767-1.638 2.852-2.742 3.24-4.254.39-1.512.014-3.084-.677-5.614a94 94 0 0 0-1.186-4.015 30 30 0 0 0-.468-1.358 8 8 0 0 0-.19-.463c-.062-.133-.067-.216-.277-.441a.96.96 0 0 0-.604-.31 1.4 1.4 0 0 0-.351-.01zm-46.407 14.136c-.076.16-.175.302-.175.514 0-.362.124-.448.16-.494.022-.03.015-.02.016-.02zm77.108 148.69c.278 0 .498.22.498.498s-.22.498-.498.498a.494.494 0 0 1-.498-.498c0-.279.22-.498.498-.498m-34.444 101.006c4.493-.361 9.091.894 12.258 3.802 2.23 2.048 2.897 3.959 2.93 8.725.013 1.86.266 3.838.666 5.576s.902 3.209 1.643 4.188c2.044 2.703 2.377 5.995 1.115 9.605s-4.175 7.48-8.594 10.98c-2.945 2.333-7.488 4.688-9.531 5.096-2.046.41-3.873-.018-5.6-1.22-1.727-1.203-3.33-3.223-4.678-5.97-2.694-5.492-4.345-13.849-4.345-23.956 0-5.861.7-8.632 2.654-11.117 2.655-3.376 6.99-5.348 11.482-5.71m-74.705 8.324c3.59-.248 7.27 1.315 11.364 4.91 2.707 2.377 7.426 5.27 10.787 6.615 1.67.668 2.911 1.205 3.812 1.77s1.466 1.129 1.932 1.984c.932 1.71 1.367 4.78 1.97 10.703.611 5.99.347 10.848-.745 14.58-1.093 3.733-2.973 6.331-5.686 7.998-9.745 5.99-20.327 4.599-30.2-4.091-3.791-3.338-6.118-6.354-7.456-10.086s-1.69-8.249-1.334-14.553c.235-4.156.52-6.67 1.12-8.504.602-1.834 1.503-3.066 3.188-4.824 3.992-4.167 7.659-6.255 11.248-6.502"/><path fill="#f1f1f1" d="M195.643 383.358c-6.59-4.774-43.265-21.982-46.367-42.41l-.75-4.939.236-1.159c.253-1.24 1.257-5.94 6.466-20.643 2.42-6.835 8.598-25.528 8.937-25.573 16.378-2.184 17.292 6.626 30.452 23.86 12.546 13.726 19.22 15.366 32.062 24.711 5.125 3.73-8.348 9.083-8.637 9.496-.175.25 2.663 6.994.95 8.817-6.577 7-9.4 10.418-15.64 18.939-2.992 4.085-4.964 6.507-5.285 6.492-.091 0-2.012 2.708-2.424 2.41"/><path fill="#f2f2f2" d="M755.29 371.357c-7.429-2.724-27.255-7.332-70.469-14.134-28.886-4.547-114.726-16.555-116.556-16.555-.222 0-2.357-14.22 1.236-21.804 5.717-12.068-3.749-16.811 3.432-21.41l-.772-15.93 15.873-4.895c15.164-4.677 17.973-5.223 20.159-13.93 3.683-14.677-6.14-15.37-27.833-30.752-26.313-18.658-40.067-41.586-84.069-41.58-41.704.01-64.27 4.029-88.34 15.75-17.507 8.524-30.811 20.509-33.697 30.356-4.098 13.98-.309 28.66 9.037 35.01l9.468-.373-8.356 7.04c-10.33 8.7-16.098 23.994-16.098 38.36l.124 12.25-6.01.033c-28.357.151-102.266 8.167-109.876 9.383-5.257.84-17.85 1.475-20.675 1.747-7.768-8.741-15.563-14.439-23.725-23.818-7.777-9.022-15.864-18.39-17.97-20.817-2.107-2.428-3.633-4.61-3.393-4.851s10.45-.47 16.204.356c17.926 2.572 48.116-1.25 60.295-7.63 3.127-1.638 3.919-1.51 6.753 1.1 4.257 3.922 34.633 19.8 34.633 18.105 0-.728-4.296-4.535-9.546-8.46s-11.66-9.34-14.246-12.036l-4.7-4.9 5.009-3.094c2.754-1.703 8.826-7.262 13.493-12.355l8.485-9.26 5.349 4.151c7.742 6.01 19.932 13.048 39.621 22.877 24.488 12.224 26.959 11.353 6.455-2.274-5.6-3.722-18.124-13.449-27.832-21.616l-17.651-14.85.963-7.07c1.314-9.64 1.212-26.545-.22-36.594l-.506-7.959 7.576 5.96c9.549 7.51 20.442 13.844 23.1 13.844 1.027 0-1.919-3.978-6.547-8.839-12.81-13.455-35.797-53.124-35.853-61.872-.013-2.026 25.381-17.495 26.645-16.232.327.327-.289 3.636-1.369 7.353s-1.902 11.85-1.827 18.072c.154 12.85 3.52 21.822 10.989 29.291 4.585 4.585 19.649 12.425 23.877 12.427 4.225 0 2.734-2.281-3.251-4.98-13.053-5.886-20.566-22.24-19.389-42.203.866-14.687 5.233-26.631 10.64-29.101 8.952-4.09 34.27-13.106 49.606-17.665 35.795-10.64 64.896-14.313 104.17-13.145 64.136 1.907 131.71 20.54 201.878 55.667 8.362 4.186 15.203 7.994 15.203 8.463 0 1.06-30.285 39.114-40.665 51.095-4.21 4.86-7.44 9.482-7.177 10.27.745 2.236 31.496-24.746 46.654-40.936l13.662-14.592 8.966 5.383c15.85 9.517 25.229 16.247 25.229 18.103 0 .994-4.045 6.3-8.99 11.79-4.943 5.489-18.44 21.356-29.991 35.26-11.552 13.905-24.152 28.63-28 32.722-3.85 4.092-6.65 7.79-6.223 8.216.999.998 25.684-18.851 39.558-31.809 5.896-5.505 11.037-10.01 11.426-10.01s-.814 4.787-2.672 10.639-3.78 14.957-4.27 20.235l-.892 9.597-7.954 4.15c-28.312 14.768-92.552 58.23-88.21 59.678.95.316 3.485-.65 5.636-2.145 2.15-1.496 17.274-9.581 33.608-17.967s35.183-18.348 41.887-22.14c6.704-3.79 12.59-6.893 13.082-6.893.49 0 .892 1.14.892 2.532 0 4.39 4.317 19.368 5.724 19.86.741.26 1.348 1.532 1.348 2.828 0 1.297 2.878 6.022 6.395 10.501l6.393 8.144-12.405 8.031c-6.822 4.417-17.14 10.661-22.926 13.875-5.787 3.214-10.772 6.596-11.078 7.514-.738 2.212.097 1.88 29.492-11.756l24.863-11.532 4.835 3.333c11.79 8.128 35.495 15.933 48.463 15.957 4.849.01 2.795 1.323-18.796 12.03-13.332 6.612-27.066 15.58-28.784 15.525s-8.577-2.1-8.577-2.1m-627.333 31.858a2.03 2.03 0 0 0-1.47.756l-3.413 4.242c-2.834 3.52-7.462 12.277-12.45 22.557s-10.12 21.85-13.216 30.248c-7.275 19.732-15.622 53.348-19.319 77.717-2.85 18.794-3.123 26.275-3.26 91.365-.155 74.362.278 81.034 7.145 113.21.654 3.066 1.37 5.85 2.02 7.925.324 1.037.625 1.89.933 2.578.154.344.3.642.53.972.115.166.245.344.5.559.254.215.7.535 1.433.535 1.253 0 1.534-.458 1.983-.805.448-.346.888-.762 1.378-1.265.98-1.006 2.134-2.355 3.399-3.947 2.53-3.185 5.481-7.324 7.982-11.327 3.801-6.082 13.927-13.086 22.832-15.462 3.198-.854 4.583-1.147 6.203-.872 1.62.276 3.868 1.282 8.225 3.43a54.5 54.5 0 0 1 6.842 4.04c1.971 1.378 3.502 2.841 3.75 3.22 1.771 2.703 4.678 4.665 7.527 5.775 1.425.555 2.837.898 4.227.875s2.995-.506 3.886-1.91c.547-.86.55-1.381.684-2.193s.241-1.805.336-3c.19-2.39.324-5.577.41-9.403.172-7.652.151-17.854-.035-29.091-.373-22.475-1.407-49.067-2.908-67.54-2.149-26.438-3.116-53.24-3.643-101.173 3.167-23.546-2.575-51.337 3.043-73.18l3.596-8.71a2.03 2.03 0 0 0-.424-2.276l-18.42-18.664-18.764-18.6a2.03 2.03 0 0 0-1.543-.586m-1.272 101.111c1.668.198 3.024.89 4.371 2.3s2.625 3.583 3.752 6.558c2.373 6.263.882 20.512-3.238 34.209s-10.815 27.111-16.942 32.49c-3.276 2.877-5.181 3.643-8.863 3.643-3.087 0-5.303-.951-7.135-2.92-1.832-1.97-3.254-5.112-4.047-9.506-1.584-8.788-.59-22.372 3.252-40.098.698-3.218 1.463-6.269 2.121-8.553q.392-1.39.877-2.751c.116-.315.216-.55.282-.69.12-.097 1.488-1.209 3.35-2.642a751 751 0 0 1 7.115-5.403c6.73-5.05 11.77-7.032 15.105-6.637m-38.72 94.092c1.799.281 3.46 1.177 4.4 2.399 1.005 1.307 1.602 4.002 1.375 6.547s-1.318 4.779-2.26 5.439c-2.105 1.474-3.018 1.746-3.607 1.621-.59-.124-1.829-1.026-3.838-3.414-2.046-2.431-3.03-4.96-3.11-7.004s.595-3.558 2.149-4.646c1.246-.874 3.091-1.222 4.89-.942m37.374 17.76c2.825-.198 6.051 1.513 9.198 6.053 2.64 3.81 3.829 7.265 3.808 10.242-.02 2.977-1.162 5.58-3.695 8.03-3.024 2.923-5.524 4.3-7.453 4.538s-3.592-.415-5.674-2.531c-1.72-1.748-4.416-6.31-5.387-9.303-.905-2.79-1.233-4.2-1.164-5.24.07-1.039.533-2.146 1.772-4.44 2.682-4.968 5.77-7.15 8.595-7.349"/><path fill="#f1f1f1" d="M165.474 439.091c-.403-.515-1.783-2.456-3.067-4.312-6.782-9.806-16.623-21.443-23.052-27.26-1.274-1.153-3.694-3.46-5.378-5.127-3.49-3.456-3.423-3.28-2.582-6.753.265-1.092.837-3.56 1.273-5.485 3.145-13.907 12.364-47.914 13.3-49.06.436-.533 1.597.386 3.553 2.81 8.44 10.459 26.662 26.679 41.019 36.512 3.417 2.34 5.375 3.972 5.375 4.48 0 .373-1.63 3.561-4.926 9.633-2.095 3.86-15.754 29.617-22.305 42.062-.996 1.89-1.96 3.438-2.144 3.438-.183 0-.663-.422-1.066-.938"/><path fill="#010101" d="m367.365 326.404-14.088.34c-7.758.187-16.429.54-19.387.799-2.79.243-14.322.7-25.453.998-28.34.758-42.032 1.115-49.653 1.45-7.62.337-9.217.66-13.18 1.325-4.079.685-9.081 1.259-10.876 1.271l-3.526.025a.77.77 0 0 0-.568.254l-7.91 8.678c-17.57 19.273-17.716 19.483-45.617 71.723l-16.315 30.545a.8.8 0 0 0-.092.396l.305 7.955c.164 4.287.036 20.403-.293 35.658-.33 15.272-.441 32.051-.244 37.409-.082 3.546.11 5.975.412 7.545.077.734-.17 1.624-.039 2.022.065.2.122.391.363.61a.96.96 0 0 0 .535.236c.191.014 2.394.089 2.559-.008.852-.5 2.47-.368 2.47-.368.635-.758 1.21-1.57 1.64-2.408l-.18-35.02c.013-19.01-.22-37.188-.565-43.418-.346-6.275-.484-9.481-.082-11.594.403-2.112 1.304-3.27 3.315-5.748 4.696-5.786 15.362-22.748 26.277-41.133 10.915-18.384 22.016-38.114 27.4-49.269 1.029-2.13 1.976-4.085 2.674-5.516.35-.715.637-1.3.84-1.709l.106-.21c.195.025.413.057.72.109.764.129 1.815.331 2.955.572 3.751.791 8.034.922 33.584 1.086 31.683.204 63.952-.458 82.414-1.693 3.187-.214 6.205-.388 8.497-.498 1.145-.055 2.11-.095 2.818-.116.354-.01.645-.014.857-.014s.38.014.336.01c.191.03.29.072.494.342s.45.776.705 1.545c.836 2.52 4.416 10.418 7.918 17.842a468 468 0 0 0 4.805 9.922 99 99 0 0 0 1.658 3.185c.214.387.391.691.541.922.075.116.14.21.221.307.04.048.082.097.16.16s.183.195.531.195c.518 0 1.117-.356 1.329-.85.211-.492.187-.993.091-1.577-.19-1.17-.766-2.736-1.72-4.846-4.01-8.867-5.718-15.27-7.362-27.608-.568-4.265-1.154-8.483-1.316-9.476l-.277-1.703a.78.78 0 0 0-.787-.653z"/><path fill="#a76258" d="M287.513 412.126c-11.89-.226-23.277.702-31.709 2.947-34.004 9.054-60.438 41.534-67.86 82.68-2.027 11.243-4.12 22.652-4.622 25.213-.201 1.022-.863 2.125-2.52 3.46-1.657 1.336-4.26 2.801-7.865 4.352-4.354 1.873-7.199 3.304-9.19 5.11-1.99 1.805-2.876 4.216-2.876 6.648 0 1.617.036 2.877.308 4.037.136.58.326 1.166.78 1.758.452.592 1.297 1.118 2.109 1.213 1.624.189 2.57-.543 3.654-1.324 1.085-.782 2.297-1.854 3.809-3.262 2.4-2.237 5.396-3.432 7.73-3.568s3.622.524 4.129 1.845c.194.506.569 2.232.8 4.193a58 58 0 0 1 .391 6.329c.053 13.092 5.888 34.41 13.856 51.505 18.197 39.041 46.008 62.584 90.305 76.545 23.234 7.323 46.316 10.182 63.132 7.62 17.09-2.605 44.908-15.92 58.346-27.868 20.288-18.038 33.817-48.686 36.361-81.683.375-4.854 1.01-9.428 1.737-12.918.363-1.746.75-3.222 1.115-4.29.366-1.066.854-1.753.713-1.613 1.098-1.098 4.213-2.604 8.445-3.712s9.584-1.958 15.37-2.461c11.57-1.008 24.916-.626 34.788 1.492l8.899 1.908 1.113 22.611c1.407 28.559 7.255 48.357 20.106 67.717 12.718 19.16 37.118 36.721 61.58 44.49 24.704 7.846 65.404 1.321 101.394-15.564 16.895-7.926 23.458-12.606 37.297-26.604 9.7-9.81 19.53-22.252 23.695-30.207 3.563-6.803 7.999-18.61 11.622-29.882 1.81-5.637 3.408-11.123 4.56-15.752 1.153-4.63 1.887-8.282 1.887-10.829 0-1.472 1.484-5.224 2.992-6.89 1.11-1.226 1.896-2.311 2.305-3.588.204-.638.406-1.443-.072-2.457-.29-.616-.872-.999-1.479-1.256-.041-.072-.048-.072-.121-.244-.255-.602-.593-1.712-.91-3.127-.635-2.83-1.237-6.933-1.64-11.615-4.57-53.011-22.527-88.915-53.376-105.028-25.366-13.248-32.83-14.723-60.25-11.943-19.654 1.993-28.622 4.116-43.092 10.219-36.566 15.422-60.308 29.02-74.863 43.139-12.22 11.854-14.81 15.954-19.82 31.37-3.113 9.58-6.752 23.239-8.164 30.71l-2.14 11.34-24.395-1.053c-21.494-.929-28.926-.417-38.368 2.719-3.052 1.013-5.92 1.848-8.023 2.363-.767.187-1.279.278-1.795.373-.034-.123-.052-.174-.088-.31-.312-1.176-.726-2.87-1.203-4.93-.953-4.12-2.166-9.717-3.4-15.776-3.968-19.468-7.422-32.226-12.612-42.467s-12.103-17.815-22.568-26.748c-16.046-13.696-63.206-37.136-85.807-42.767-10.253-2.555-22.61-3.947-34.5-4.172zm-4.992 14.066c32.183.147 56.995 6.352 85.088 21.276 24.563 13.048 39.543 23.423 45.33 30.78 8.88 11.29 16.135 35.397 19.46 60.702 3.327 25.305 2.836 51.97-2.575 68.453-2.454 7.476-6.41 17.424-8.573 21.664-9.66 18.936-34.046 38.21-58.175 45.662-27.062 8.359-63.657 2.545-100.164-16.379-44.474-23.053-70.581-74.583-66.854-132.716 3.02-47.09 19.806-78.192 49.35-92.7 13.657-6.706 14.609-6.844 37.113-6.742m397.15 4.428c29.512.15 42.144 4.793 58.85 21.537 12.625 12.654 20.88 27.771 26.734 49.174 4.946 18.081 4.832 64.061-.203 82.139-10.161 36.48-34.707 67.344-65.375 82.427-9.588 4.716-24.874 10.675-33.502 13.082-10.104 2.819-22.426 4.673-33.595 5.328s-21.304.035-26.53-1.691c-17.304-5.715-39.475-19.229-48.578-29.353-10.486-11.663-20.224-30.79-24.357-48.006-5.546-23.098-2.61-63.658 6.996-93.524 4.846-15.068 8.796-23.885 16.81-31.906s20.369-15.367 41.99-26.742c33.067-17.397 51.874-22.613 80.76-22.465M446.757 549.407c.013 0 .055.044.068.047l-.283.027c-.01 0 .044-.096.215-.074"/><path fill="#4895cd" d="M522.667 994.86c0-.561 1.11-2.173 2.425-3.524 3.007-3.088 7.392-5.933 13.891-9.013 4.021-1.905 4.378-1.89 1.495.06-.778.526-2.489 1.627-3.801 2.445-5.33 3.323-9.128 6.038-11.756 8.401-1.31 1.18-1.772 1.563-2.055 1.71-.175.09-.199.082-.199-.08z"/><path fill="#4894ca" stroke="#4894ca" stroke-width=".063" d="M372.254 978.033c-1.288-.52-4.93-2.46-7.188-3.83-4.346-2.637-9.548-6.277-10.594-7.413-.256-.279-.27-.307-.146-.325.16-.023.592.189 1.863.91 2.089 1.186 3.603 2.14 10.721 6.755 4.835 3.134 5.99 3.907 6.091 4.07q.112.18-.747-.167z"/><path fill="#a0a0a0" d="M613.884 1044.706c-.585.185-1.246.472-1.469.639-.429.32-.781.883-.781 1.246 0 .271 1.209 2.433 2.035 3.639.341.498.643.906.67.906h.008c.015-.03.002-.156-.035-.303-.123-.487.15-1.087.884-1.951.995-1.17 1.55-2.294 1.754-3.555.093-.576.256-1.214.362-1.418.047-.092-2.446.491-3.428.801z"/><path fill="#44b9de" d="M128.334 697.163c-.482-.018-.998.018-1.601.076-2.84.274-7.407 2.042-12.027 4.297-4.621 2.256-9.202 4.985-11.829 7.326-1.963 1.75-3.923 4.34-6.054 7.932-1.754 2.957-4.293 6.502-6.633 9.408-1.17 1.453-2.292 2.75-3.234 3.727s-1.777 1.644-2.051 1.773c-.764.358-1.383 1.075-2.197 2.371s-1.834 3.223-3.29 6.139c-2.056 4.118-4.59 8.896-5.564 10.512a19 19 0 0 0-1.367 2.715c-.34.847-.569 1.546-.553 2.212.013.534-.343 2.135-.777 3.127-.75 1.71-.978 3.978-1.102 9.508-.075 3.376-.101 5.233.045 6.615s.494 2.276 1.06 3.479c.676 1.434 1.534 3.956 2.163 6.182a40 40 0 0 1 .73 2.956c.079.4.13.74.153.98.021.238-.041.424.027.247-.126.329-.065.456-.041.611s.06.311.111.487c.1.351.253.778.447 1.275.389.994.95 2.256 1.596 3.57 1.821 3.703 2.912 5.256 4.658 6.512 2.092 1.505 3.543 2.465 4.772 3.068s2.264.836 3.334.836c.478 0 .953.052 1.29.127.17.038.305.084.372.114s.041.075-.07-.106c.193.313.407.402.609.492.202.091.415.154.65.207.47.107 1.024.166 1.602.166 1.008 0 2.267.407 3.314 1.118.535.363 1.09.688 1.579.933q.365.185.68.303c.21.078.373.146.663.146-.37 0-.246-.059-.175-.014.07.045.195.135.35.256.307.243.738.612 1.243 1.073a90 90 0 0 1 3.703 3.613c2.426 2.493 3.72 3.812 4.938 4.685 1.217.874 2.312 1.236 4.098 1.762 5.671 1.673 8.764 2.178 15.853 2.59 1.786.104 3.468.205 4.734.285.634.04 1.164.075 1.551.102s.688.054.66.05c.653.086 1.56.04 2.69-.06s2.444-.264 3.748-.463a59 59 0 0 0 3.67-.668c1.076-.237 1.89-.442 2.46-.735 1.594-.817 3.893-2.613 6.346-4.796s5.017-4.738 6.965-7.026c5.97-7.01 9.231-13.749 15.545-32.025l2.9-8.397a.8.8 0 0 0 .044-.25v-7.5c0-3.577-.013-5.498-.205-6.953-.193-1.454-.587-2.41-1.252-3.83-.82-1.75-2.7-4.618-4.29-6.584-2.929-3.625-3.473-5.073-3.492-9.287-.018-4.12-1.34-9.4-3.148-12.107-.893-1.338-2.559-2.94-3.951-3.811a12 12 0 0 1-1.506-1.1 4 4 0 0 1-.402-.398c-.074-.09-.007-.184-.006.146-.001-.416-.223-.603-.358-.718a2 2 0 0 0-.408-.26 7.4 7.4 0 0 0-1.063-.414c-.854-.275-2.009-.56-3.328-.817-2.88-.559-4.559-1-5.687-1.613s-1.804-1.401-2.776-2.916c-.959-1.494-2.614-3.396-3.87-4.426-1.088-.89-2.837-1.949-4.499-2.822a29 29 0 0 0-2.322-1.105c-.687-.284-1.179-.491-1.75-.496.177 0 .132.02.084 0a3 3 0 0 1-.24-.108 15 15 0 0 1-.871-.469 49 49 0 0 1-2.555-1.591c-1.613-1.072-2.55-1.676-3.49-1.996a4.8 4.8 0 0 0-1.403-.25zm676.836 195.36c-8.466-2.549-19.114-13.496-26.264-27.002-2.75-5.194-6.688-11.397-8.75-13.784s-3.75-4.498-3.75-4.69c0-2.635-3.337-16.333-5-20.528-5.028-12.679-.364-28.203 12.405-41.29 5.466-5.602 8.416-7.581 19.207-12.882 12.401-6.093 12.967-6.265 20.818-6.296 7.007-.028 9.014.396 15.238 3.218 4.29 1.946 8.787 3.25 11.203 3.25 4.953 0 8.627 1.585 10.58 4.565.812 1.24 3.92 3.374 6.905 4.74 4.287 1.963 6.27 3.715 9.438 8.34 2.206 3.22 5.899 7.655 8.206 9.855 5.04 4.806 11.374 13.843 13.419 19.146 1.494 3.873 3.443 12.7 4.309 19.516.838 6.594-3.256 17.21-9.428 24.45-4.571 5.36-15.979 12.712-27.527 17.74-14.705 6.4-19.33 7.948-31.726 10.614-9.947 2.14-14.763 2.4-19.283 1.038"/></svg>