<svg xmlns="http://www.w3.org/2000/svg" xmlns:xlink="http://www.w3.org/1999/xlink" xml:space="preserve" width="3000" height="3600"><defs><linearGradient id="M"><stop offset="0" stop-color="#48b6ea"/><stop offset="1" stop-color="#1899d6"/></linearGradient><linearGradient id="K"><stop offset="0" stop-color="#9ccff0"/><stop offset="1" stop-color="#9ccff0" stop-opacity="0"/></linearGradient><linearGradient id="aa"><stop offset="0" stop-color="#f7d3cd"/><stop offset="1" stop-color="#f7d3cd" stop-opacity="0"/></linearGradient><linearGradient id="J"><stop offset="0" stop-color="#c64e56"/><stop offset=".5" stop-color="#c95860"/><stop offset="1" stop-color="#ce6870"/></linearGradient><linearGradient id="Z"><stop offset="0" stop-color="#fcd9d8" stop-opacity=".733"/><stop offset="1" stop-color="#fcd9d8" stop-opacity="0"/></linearGradient><linearGradient id="Y"><stop offset="0" stop-color="#f7c7c9"/><stop offset="1" stop-color="#f7c7c9" stop-opacity="0"/></linearGradient><linearGradient id="I"><stop offset="0" stop-color="#e98e99"/><stop offset="1" stop-color="#e98e99" stop-opacity="0"/></linearGradient><linearGradient id="H"><stop offset="0" stop-color="#be536a"/><stop offset="1" stop-color="#be536a" stop-opacity="0"/></linearGradient><linearGradient id="X"><stop offset="0" stop-color="#9cc075"/><stop offset="1" stop-color="#658b40" stop-opacity="0"/></linearGradient><linearGradient id="G"><stop offset="0" stop-color="#538f39"/><stop offset="1" stop-color="#538f39" stop-opacity="0"/></linearGradient><linearGradient id="F"><stop offset="0" stop-color="#1d3e2c"/><stop offset="1" stop-color="#1d3e2c" stop-opacity="0"/></linearGradient><linearGradient id="C"><stop offset="0" stop-color="#c5d596"/><stop offset="1" stop-color="#c5d596" stop-opacity="0"/></linearGradient><linearGradient id="B"><stop offset="0" stop-color="#c5d596"/><stop offset="1" stop-color="#c5d596" stop-opacity="0"/></linearGradient><linearGradient id="W"><stop offset="0" stop-color="#90b768"/><stop offset="1" stop-color="#90b768" stop-opacity="0"/></linearGradient><linearGradient id="A"><stop offset="0" stop-color="#85845e"/><stop offset="1" stop-color="#85845e" stop-opacity="0"/></linearGradient><linearGradient id="x"><stop offset="0" stop-color="#165a32"/><stop offset="1" stop-color="#165a33"/></linearGradient><linearGradient id="w"><stop offset="0" stop-color="#1d3e2c"/><stop offset="1" stop-color="#1d3e2c" stop-opacity="0"/></linearGradient><linearGradient id="u"><stop offset="0" stop-color="#1d3e2c"/><stop offset="1" stop-color="#1d3e2c" stop-opacity="0"/></linearGradient><linearGradient id="s"><stop offset="0" stop-color="#538f39"/><stop offset="1" stop-color="#538f39" stop-opacity="0"/></linearGradient><linearGradient id="r"><stop offset="0" stop-color="#a3ba54"/><stop offset="1" stop-color="#a3ba54" stop-opacity="0"/></linearGradient><linearGradient id="q"><stop offset="0" stop-color="#8d3635"/><stop offset="1" stop-color="#8d3635" stop-opacity="0"/></linearGradient><linearGradient id="p"><stop offset="0" stop-color="#c64e5b"/><stop offset=".5" stop-color="#cf6a75"/><stop offset="1" stop-color="#c64e5b"/></linearGradient><linearGradient id="o"><stop offset="0" stop-color="#5b1c2f"/><stop offset="1" stop-color="#952e4d"/></linearGradient><linearGradient id="n"><stop offset="0" stop-color="#c6434b"/><stop offset="1" stop-color="#c6434b" stop-opacity="0"/></linearGradient><linearGradient id="m"><stop offset="0" stop-color="#8f3433"/><stop offset="1" stop-color="#8f3433" stop-opacity="0"/></linearGradient><linearGradient id="V"><stop offset="0" stop-color="#e29ba4"/><stop offset="1" stop-color="#e29ba4" stop-opacity="0"/></linearGradient><linearGradient id="l"><stop offset="0" stop-color="#fafafd"/><stop offset="1" stop-color="#fafafd"/></linearGradient><linearGradient id="T"><stop offset="0" stop-color="#f4c2be"/><stop offset="1" stop-color="#f4c2be" stop-opacity="0"/></linearGradient><linearGradient id="j"><stop offset="0" stop-color="#ac425d"/><stop offset="1" stop-color="#ac425d" stop-opacity="0"/></linearGradient><linearGradient id="i"><stop offset="0" stop-color="#511121"/><stop offset="1" stop-color="#511121" stop-opacity="0"/></linearGradient><linearGradient id="h"><stop offset="0" stop-color="#511121"/><stop offset="1" stop-color="#511121" stop-opacity="0"/></linearGradient><linearGradient id="g"><stop offset="0" stop-color="#c46d7d"/><stop offset="1" stop-color="#c46d7d" stop-opacity="0"/></linearGradient><linearGradient id="S"><stop offset="0" stop-color="#f7d3cd"/><stop offset="1" stop-color="#f7d3cd" stop-opacity="0"/></linearGradient><linearGradient id="R"><stop offset="0" stop-color="#f7d3cd"/><stop offset="1" stop-color="#f7d3cd" stop-opacity="0"/></linearGradient><linearGradient id="f"><stop offset="0" stop-color="#ab4759"/><stop offset="1" stop-color="#b74c63"/></linearGradient><linearGradient id="e"><stop offset="0" stop-color="#fce4df"/><stop offset="1" stop-color="#fce4df" stop-opacity="0"/></linearGradient><linearGradient id="d"><stop offset="0" stop-color="#fce4df"/><stop offset="1" stop-color="#fce4df" stop-opacity="0"/></linearGradient><linearGradient id="P"><stop offset="0" stop-color="#f2c6c8"/><stop offset="1" stop-color="#f2c6c8" stop-opacity="0"/></linearGradient><linearGradient id="O"><stop offset="0" stop-color="#e58b8e"/><stop offset="1" stop-color="#e58b8e" stop-opacity="0"/></linearGradient><linearGradient id="c"><stop offset="0" stop-color="#edb5b4"/><stop offset="1" stop-color="#edb5b4" stop-opacity="0"/></linearGradient><linearGradient id="N"><stop offset="0" stop-color="#eda6ac" stop-opacity=".458"/><stop offset="1" stop-color="#eda6ac" stop-opacity="0"/></linearGradient><linearGradient id="b"><stop offset="0" stop-color="#ea979e"/><stop offset="1" stop-color="#ea979e" stop-opacity="0"/></linearGradient><linearGradient id="a"><stop offset="0" stop-color="#e36f78"/><stop offset="1" stop-color="#a23e5a"/></linearGradient><linearGradient xlink:href="#a" id="au" x1="412.714" x2="674.87" y1="418.204" y2="578.219" gradientUnits="userSpaceOnUse"/><linearGradient xlink:href="#a" id="aw" x1="412.714" x2="674.87" y1="418.204" y2="578.219" gradientUnits="userSpaceOnUse"/><linearGradient xlink:href="#b" id="ax" x1="403.804" x2="425.793" y1="457.341" y2="491.878" gradientUnits="userSpaceOnUse"/><linearGradient xlink:href="#c" id="az" x1="352.765" x2="430.217" y1="240.111" y2="416.325" gradientUnits="userSpaceOnUse"/><linearGradient xlink:href="#d" id="aO" x1="262.046" x2="356.308" y1="254.525" y2="360.131" gradientUnits="userSpaceOnUse"/><linearGradient xlink:href="#e" id="aR" x1="358.234" x2="323.766" y1="321.286" y2="321.286" gradientUnits="userSpaceOnUse"/><linearGradient xlink:href="#f" id="aG" x1="397.198" x2="368.392" y1="365.885" y2="319.95" gradientUnits="userSpaceOnUse"/><linearGradient xlink:href="#g" id="aT" x1="381.267" x2="374.621" y1="579.846" y2="538.545" gradientUnits="userSpaceOnUse"/><linearGradient xlink:href="#h" id="aU" x1="433.941" x2="465.461" y1="1369.545" y2="1373.934" gradientUnits="userSpaceOnUse"/><linearGradient xlink:href="#i" id="aV" x1="433.924" x2="463.121" y1="1388.556" y2="1388.556" gradientUnits="userSpaceOnUse"/><linearGradient xlink:href="#j" id="aY" x1="452.13" x2="447.028" y1="1405.606" y2="1373.907" gradientUnits="userSpaceOnUse"/><linearGradient xlink:href="#l" id="aZ" x1="441.679" x2="453.467" y1="1363.633" y2="1382.715" gradientUnits="userSpaceOnUse"/><linearGradient xlink:href="#i" id="aI" x1="433.941" x2="465.461" y1="1369.545" y2="1373.934" gradientUnits="userSpaceOnUse"/><linearGradient xlink:href="#i" id="aJ" x1="433.924" x2="463.121" y1="1388.556" y2="1388.556" gradientUnits="userSpaceOnUse"/><linearGradient xlink:href="#j" id="aM" x1="452.13" x2="447.028" y1="1405.606" y2="1373.907" gradientUnits="userSpaceOnUse"/><linearGradient xlink:href="#l" id="aN" x1="441.679" x2="453.467" y1="1363.633" y2="1382.715" gradientUnits="userSpaceOnUse"/><linearGradient xlink:href="#m" id="aC" x1="354.427" x2="382.773" y1="1693.216" y2="1711.493" gradientTransform="translate(0 -1280.049)" gradientUnits="userSpaceOnUse"/><linearGradient xlink:href="#n" id="aD" x1="420.051" x2="393.578" y1="1738.04" y2="1711.372" gradientTransform="translate(0 -1280.049)" gradientUnits="userSpaceOnUse"/><linearGradient xlink:href="#o" id="aA" x1="386.894" x2="347.044" y1="1714.566" y2="1691.482" gradientTransform="translate(0 -1280.049)" gradientUnits="userSpaceOnUse"/><linearGradient xlink:href="#p" id="aB" x1="340.978" x2="428.332" y1="1703.111" y2="1727.02" gradientTransform="translate(0 -1280.049)" gradientUnits="userSpaceOnUse"/><linearGradient xlink:href="#q" id="aE" x1="374.134" x2="391.319" y1="389.238" y2="427.597" gradientUnits="userSpaceOnUse"/><linearGradient xlink:href="#r" id="aj" x1="226.8" x2="450.126" y1="186.867" y2="257.412" gradientUnits="userSpaceOnUse"/><linearGradient xlink:href="#s" id="aq" x1="696.502" x2="522.671" y1="233.504" y2="235.803" gradientUnits="userSpaceOnUse"/><linearGradient xlink:href="#u" id="al" x1="504.795" x2="516.229" y1="1431.585" y2="1430.102" gradientUnits="userSpaceOnUse"/><linearGradient xlink:href="#w" id="ai" x1="468.36" x2="483.777" y1="249.416" y2="278.952" gradientUnits="userSpaceOnUse"/><linearGradient xlink:href="#x" id="ag" x1="453.59" x2="501.009" y1="1295.213" y2="1294.109" gradientUnits="userSpaceOnUse"/><linearGradient xlink:href="#A" id="ah" x1="451.176" x2="482.526" y1="323.464" y2="293.252" gradientUnits="userSpaceOnUse"/><linearGradient xlink:href="#r" id="an" x1="107.157" x2="446.3" y1="180.365" y2="261.722" gradientUnits="userSpaceOnUse"/><linearGradient xlink:href="#B" id="ap" x1="260.825" x2="336.905" y1="104.164" y2="184.403" gradientUnits="userSpaceOnUse"/><linearGradient xlink:href="#C" id="ar" x1="718.533" x2="638.209" y1="166.8" y2="221.42" gradientUnits="userSpaceOnUse"/><linearGradient xlink:href="#F" id="af" x1="514.278" x2="533.108" y1="255.801" y2="288.064" gradientUnits="userSpaceOnUse"/><linearGradient xlink:href="#G" id="as" x1="569.826" x2="527.32" y1="325.501" y2="299.191" gradientUnits="userSpaceOnUse"/><linearGradient xlink:href="#H" id="bb" x1="653.043" x2="613.489" y1="450.968" y2="346.688" gradientUnits="userSpaceOnUse"/><linearGradient xlink:href="#I" id="bc" x1="561.903" x2="626.443" y1="234.957" y2="330.708" gradientUnits="userSpaceOnUse"/><linearGradient xlink:href="#J" id="be" x1="634.637" x2="619.812" y1="345.428" y2="340.571" gradientUnits="userSpaceOnUse"/><linearGradient xlink:href="#s" id="ak" x1="696.502" x2="522.671" y1="233.504" y2="235.803" gradientUnits="userSpaceOnUse"/><linearGradient xlink:href="#s" id="ao" x1="696.502" x2="522.671" y1="233.504" y2="235.803" gradientUnits="userSpaceOnUse"/><linearGradient xlink:href="#d" id="aH" x1="262.046" x2="356.308" y1="254.525" y2="360.131" gradientUnits="userSpaceOnUse"/><linearGradient xlink:href="#K" id="ac" x1="-208.076" x2="1207.076" y1="-17.139" y2="1169.61" gradientUnits="userSpaceOnUse"/><linearGradient xlink:href="#M" id="ab" x1="457.767" x2="3249.691" y1="551.421" y2="4432.304" gradientUnits="userSpaceOnUse"/><radialGradient xlink:href="#N" id="ay" cx="419.254" cy="477.895" r="27.492" fx="419.254" fy="477.895" gradientTransform="matrix(1.09198 .02365 -.02835 1.30894 -31.649 -157.828)" gradientUnits="userSpaceOnUse"/><radialGradient xlink:href="#O" id="aF" cx="410.3" cy="384.291" r="134.599" fx="410.3" fy="384.291" gradientTransform="translate(-257.64 -327.986)scale(1.57525)" gradientUnits="userSpaceOnUse"/><radialGradient xlink:href="#P" id="av" cx="328.288" cy="308.058" r="191.272" fx="328.288" fy="308.058" gradientTransform="translate(-71.836 -101.928)scale(1.2547)" gradientUnits="userSpaceOnUse"/><radialGradient xlink:href="#R" id="aQ" cx="370.113" cy="304.649" r="131.23" fx="370.113" fy="304.649" gradientTransform="translate(-54.62 -26.66)" gradientUnits="userSpaceOnUse"/><radialGradient xlink:href="#S" id="aS" cx="414.52" cy="442.823" r="65.512" fx="414.52" fy="442.823" gradientTransform="translate(-485.376 -548.304)scale(2.08431)" gradientUnits="userSpaceOnUse"/><radialGradient xlink:href="#T" id="aW" cx="438.972" cy="1356.498" r="24.221" fx="438.972" fy="1356.498" gradientTransform="translate(-106.98 -322.21)scale(1.2349)" gradientUnits="userSpaceOnUse"/><radialGradient xlink:href="#V" id="aX" cx="434.269" cy="1374.765" r="21.495" fx="434.269" fy="1374.765" gradientTransform="translate(6.015 -5.364)" gradientUnits="userSpaceOnUse"/><radialGradient xlink:href="#T" id="aK" cx="438.972" cy="1356.498" r="24.221" fx="438.972" fy="1356.498" gradientTransform="translate(-106.98 -322.21)scale(1.2349)" gradientUnits="userSpaceOnUse"/><radialGradient xlink:href="#V" id="aL" cx="434.269" cy="1374.765" r="21.495" fx="434.269" fy="1374.765" gradientTransform="translate(6.015 -5.364)" gradientUnits="userSpaceOnUse"/><radialGradient xlink:href="#W" id="am" cx="366.91" cy="110.349" r="155.408" fx="366.91" fy="110.349" gradientTransform="translate(-197.42 -54.556)scale(1.195)" gradientUnits="userSpaceOnUse"/><radialGradient xlink:href="#X" id="at" cx="442.162" cy="102.58" r="200.742" fx="442.162" fy="102.58" gradientTransform="translate(-341.911 -171.521)scale(1.58346)" gradientUnits="userSpaceOnUse"/><radialGradient xlink:href="#Y" id="ba" cx="658.513" cy="676.427" r="257.464" fx="658.513" fy="676.427" gradientTransform="translate(-160.989 -517.463)" gradientUnits="userSpaceOnUse"/><radialGradient xlink:href="#Z" id="bd" cx="585.749" cy="278.102" r="115.733" fx="585.749" fy="278.102" gradientTransform="translate(-36.778 6.818)" gradientUnits="userSpaceOnUse"/><radialGradient xlink:href="#aa" id="bf" cx="590.47" cy="132.803" r="218.896" fx="590.47" fy="132.803" gradientTransform="translate(-52.32 68.393)" gradientUnits="userSpaceOnUse"/><radialGradient xlink:href="#R" id="aP" cx="370.113" cy="304.649" r="131.23" fx="370.113" fy="304.649" gradientTransform="translate(-54.62 -26.66)" gradientUnits="userSpaceOnUse"/></defs><rect width="3000" height="3600" fill="url(#ab)" ry=".02"/><path fill="#1c8bbf" d="M1131.143 549.875c-.065.002-.13.012-.195.014-.06.002-.118-.004-.176-.002-3.941.115-7.888.521-11.834.832-10.03.524-20.061.995-30.094 2.117q-.42.041-.84.088-.8.09-1.6.19l-.044.005c-.01 0-.012.001-.018.002-7.982.985-15.949 2.507-23.922 3.828-2.726.452-5.449.612-8.172 1.11-1.764.322-3.52.664-5.283 1.006-4.433.859-8.823 2.291-13.247 3.273-4.178.928-8.387 1.254-12.558 2.293-.108.027-.214.069-.322.096-3.734.933-7.403 2.525-11.13 3.549-4.067 1.117-8.169 1.796-12.228 3.023-3.68 1.112-7.315 2.573-10.986 3.775-.212.07-.43.153-.643.223h-.021a500 500 0 0 0-11.899 4.09c-1.885.673-3.752 1.481-5.635 2.174-3.22 1.193-6.501 1.843-9.712 3.11-.015.005-.03.015-.045.02-.136.054-.269.132-.405.186-2.48.98-4.892 2.42-7.367 3.443-.886.365-1.78.656-2.666 1.028-5.295 2.225-10.547 4.638-15.812 7.064-7.352 3.387-14.694 6.782-21.98 10.567-2.092 1.086-4.16 2.294-6.233 3.478-2.298 1.233-4.67 2.024-6.961 3.297l-.002.002c-.171.095-.335.227-.506.322-2.368 1.32-4.644 3.094-7.004 4.457-2.142 1.18-4.293 2.308-6.42 3.577-15.431 9.203-30.73 19.061-45.758 30.17l-1.23.914h-.002a539 539 0 0 0-14.363 11.033c-4.141 3.285-10.746 9.296-15.803 13.523-5.937 4.941-9.795 8.115-16.817 14.36-3.028 2.686-4.925 4.047-8.125 6.974-.202.185-.328.279-.53.465-1.184 1.084-2.676 2.757-3.88 3.873-1.761 1.63-2.73 2.238-4.535 3.938-7.167 6.747-15.364 15.65-23.09 23.472-7.504 7.598-14.587 14.224-22.375 22.676l-.047.05-.011.013q-.522.565-1.047 1.142v.008c-6.118 6.72-12.408 15.17-18.627 22.473-10.368 12.17-20.72 23.705-31.047 37.453v.012c-2.109 2.807-4.007 6.292-6.104 9.164-2.06 2.818-4.17 4.82-6.216 7.7v.003c-11.403 16.056-22.409 33.29-33.03 51.21-.788 1.33-1.698 2.385-2.48 3.725v.006c-2.385 4.085-4.355 8.728-6.68 12.905-7.025 12.62-13.786 25.479-20.146 38.927-3.427 7.243-6.557 14.66-9.75 22.137-5.576 13.054-10.667 26.43-15.414 40.182l-.004.012c-2.76 7.99-5.45 15.937-7.89 24.158-4.42 14.895-7.968 30.28-11.206 45.912-1.206 5.818-3.15 11.191-4.176 17.11-.308 1.78-.255 3.736-.547 5.525-3.814 23.407-6.493 47.4-7.127 72.297l-.004.035c-.004.15-.039.285-.043.435l.002.066a532 532 0 0 0-.111 5.877h.002c-.176 13.186 1.095 26.933 1.932 40.514.481 7.819.274 15.373 1.113 23.32a566 566 0 0 0 11.687 69.232q.002.017.006.032c.061.26.068.506.13.767a84 84 0 0 0 1.146 6.738c.44 2.04.937 3.87 1.49 5.516a31 31 0 0 0 1.635 3.916c.165.333.328.678.5.988.002 0 .004.01.006.012q.207.374.422.725c.269.441.547.852.832 1.242.002 0 .004.01.006.01.142.194.28.4.425.582.41.511.831.983 1.27 1.399.39.369.793.697 1.205.994l.233.164h.006q.574.392 1.177.697.087.042.174.08h.002q.567.27 1.158.469c.066.022.131.048.198.068h.002c.427.133.864.234 1.31.312q.053.016.106.025h.002c.047.01.097.01.144.014h.008c.456.07.92.12 1.395.135h.004c.604.02 1.228-.017 1.861-.082.202-.02.41-.057.615-.086q.67-.093 1.36-.242h.016q.337-.074.68-.162.733-.187 1.488-.432c.192-.062.381-.118.576-.185.238-.083.486-.192.728-.284.005 0 .01 0 .016-.01h.002c.72-.272 1.467-.611 2.215-.953.704-.321 1.444-.72 2.172-1.1a76 76 0 0 0 7.199-4.253c4.736-3.165 10.068-7.392 15.48-11.652.218-.172.406-.298.625-.471 1.091-.86 1.997-1.46 3.112-2.344h.004c51.177-40.555 92.198-69.474 127.455-90.941 3.14-1.912 6.491-4.093 9.529-5.873 15.872-9.303 30.813-17.407 44.236-23.375h.002c.029-.013.054-.02.082-.033 6.97-3.097 13.185-5.069 19.61-7.358 2.756-.982 5.745-2.314 8.412-3.156 3.334-1.053 6.672-2.113 9.877-2.955 1.696-.446 3.413-.927 5.076-1.317 5.606-1.312 11.084-2.405 16.353-3.107q.1-.014.2-.025c5.282-.697 10.373-1.02 15.386-1.158 1.526-.042 3.023-.014 4.528-.01 3.647.014 7.243.157 10.789.44 1.459.115 2.927.206 4.373.364 4.671.513 9.293 1.176 13.863 2.1.07.014.141.021.211.035h.004c.047.01.093.024.14.033 3.832.783 7.632 1.823 11.436 2.86 7.368 2.008 14.736 4.446 22.217 7.236 9.59 3.574 19.307 7.567 29.613 12.002 25.688 13.651 52.833 25.362 80.516 35.976.548.21 1.101.396 1.648.606 4.278 1.628 8.207 3.852 12.524 5.392 7.474 2.668 15.151 4.764 22.734 7.153 3.375 1.09 6.734 2.22 10.15 3.23.212.063.431.098.643.16 4.659 1.374 9.21 3.046 13.904 4.305 8.457 2.27 17.087 3.834 25.645 5.713 2.05.45 4.089.942 6.144 1.37.365.075.718.194 1.082.269 3.672.755 7.262 1.79 10.95 2.468.19.035.387.035.578.07 1.513.277 2.996.684 4.512.948 8.96 1.558 18.047 2.298 27.085 3.38 7.575.907 15.087 2.234 22.706 2.788 9.51.69 19.096.442 28.658.55 7.242.082 14.447.651 21.709.381 10.44-.388 20.905-1.848 31.365-3.002 3.219-.355 6.433-.493 9.652-.924 1.075-.137 2.147-.154 3.223-.306.023 0 .046-.01.068-.01 2.1-.298 4.198-.295 6.299-.625 15.875-2.497 31.733-6.11 47.547-10.563.991-.279 1.99-.375 2.98-.662l.244-.066c40.732-11.831 81.095-30.455 120.348-57.21 3.433 2.545 6.712 5.411 9.847 8.517a119 119 0 0 1 8.973 9.998c2.422 3.016 4.742 6.168 6.904 9.502 6.487 10 11.56 21.62 13.752 36.013l.04.274c.065.44.121.89.181 1.334.594 4.39.921 9.027.854 13.93-.035 2.534-.407 5.278-.664 7.953-.124 1.282-.14 2.5-.32 3.814a98 98 0 0 1-.311 2.104c-.18 1.13-.519 2.345-.742 3.5-.187.963-.448 1.964-.666 2.945-.515 2.304-.867 4.525-1.57 6.922-.055.152-.11.305-.155.453l-.029.103.059-.024c-1.38 4.611-3.126 9.395-5.291 14.354-.172.393-.44.825-.617 1.22-2.062 4.606-4.392 9.323-7.223 14.233-11.8 20.462-30.669 43.6-44.352 63.37a632 632 0 0 0-54.646-18.221c-3.253-.923-6.67-1.46-9.945-2.332l.101-.374c-3.14-.835-6.5-1.12-9.66-1.91h.053c.961.043 1.92.1 2.88.159-4.083-1.04-8.427-1.413-12.542-2.374a639 639 0 0 0-50.664-9.7c-4.44-.666-8.697-1.8-13.168-2.376-3.287-.422-6.679-.478-9.982-.851h-.01c-24.058-2.718-48.392-4.565-73.22-4.565h-.554q-5.646-.002-11.25.088h-.01c-21.27.345-42.078 1.62-62.4 3.776-60.969 6.469-117.61 20.866-169.495 41.861a590 590 0 0 0-45.066 20.47 580.8 580.8 0 0 0-119.373 80.35h.002a586 586 0 0 0-37.988 36.21c-84.535 88.112-140.063 200.793-161.344 321.404h.004a642.4 642.4 0 0 0-6.322 178.01c1.713 16.471 4.455 33.112 7.99 49.831 1.169 5.53 2.91 11.09 4.277 16.637 2.843 11.534 5.695 23.06 9.39 34.631 1.03 3.225 2.23 6.437 3.325 9.662 2.17 6.387 4.16 12.774 6.588 19.158 1.104 2.903 2.882 5.758 4.04 8.658 9.433 23.655 19.974 47.258 32.923 70.573h.006a656 656 0 0 0 16.338 27.775c34.015 54.72 77.806 107.49 125.15 153.85h.002c19.751 19.34 40.122 37.565 60.658 54.351a884 884 0 0 0 10.772 8.664c66.272 52.463 132.585 89.799 167.957 108.75 37.29 19.98 40.186 19.525 50.633 7.325 10.447-12.201 28.443-36.144 42.322-56.504 4.446-6.523 7.574-11.814 11.182-17.565.094.02.205.064.298.084a452 452 0 0 0 7.725-12.691c.676.055 1.356.033 2.031.084h-.022c16.702 1.302 33.449 2.031 50.207 2.033 328.422 0 595.902-244.793 613.036-552.625l.834-.732c.543-10.064.82-20.195.82-30.387 0-1.38-.215-2.709-.225-4.086l.205-.182c-.01-.844-.144-1.656-.154-2.5l.127-.183c-.13-10.515-1.344-20.759-2.05-31.133-.575-8.416-.622-16.96-1.567-25.275-.097-.85-.167-1.706-.268-2.555-1.35-11.408-3.737-22.492-5.77-33.691-1.396-7.697-2.26-15.559-3.97-23.149-.122-.54-.226-1.084-.35-1.623-2.817-12.326-6.672-24.257-10.295-36.28-1.928-6.4-3.33-13.005-5.48-19.314-.091-.266-.175-.534-.266-.8a562 562 0 0 0-21.654-53.954 570 570 0 0 0-21.394-41.62c-53.823-94.928-134.512-174.082-232.4-228.286 34.156-21.025 68.276-42.9 102.253-68.232 13.794-10.285 27.564-21.14 41.938-32.325 4.416 17.105 10.67 31.979 18.418 44.838l.01.01c7.462 12.387 16.311 22.905 26.24 31.75q1.467 1.308 2.965 2.567c10.199 8.568 21.464 15.464 33.476 20.883a167 167 0 0 0 18.543 7.045c4.719 1.484 9.592 2.59 14.46 3.705 1.675.383 3.287.934 4.978 1.275a217 217 0 0 0 20.095 3.062 247 247 0 0 0 20.526 1.295c13.772.307 27.673-.465 41.39-2.12a326.63 324.692 0 0 0-8.398 41.81 326.63 324.692 0 0 0-2.817 42.543 326.63 324.692 0 0 0 .948 24.707 326.63 324.692 0 0 0 2.836 24.566 326.63 324.692 0 0 0 .525 2.367 326.63 324.692 0 0 0 1.086 4.909 326.63 324.692 0 0 0 7.43 33.525 326.63 324.692 0 0 0 5.591 15.45 326.63 324.692 0 0 0 8.643 23.849 326.63 324.692 0 0 0 8.385 16.254 326.63 324.692 0 0 0 10.822 20.931 326.63 324.692 0 0 0 10.225 14.778 326.63 324.692 0 0 0 13.619 19.633 326.63 324.692 0 0 0 15.482 17.15 326.63 324.692 0 0 0 12.66 13.99 326.63 324.692 0 0 0 18.381 15.713 326.63 324.692 0 0 0 13.44 11.49 326.63 324.692 0 0 0 .123.082 326.63 324.692 0 0 0 20.258 13.227 326.63 324.692 0 0 0 14.85 9.695 326.63 324.692 0 0 0 .113.055 326.63 324.692 0 0 0 22.017 10.627 326.63 324.692 0 0 0 15.879 7.65 326.63 324.692 0 0 0 24.486 8.145 326.63 324.692 0 0 0 15.46 5.133 326.63 324.692 0 0 0 26.906 5.246 326.63 324.692 0 0 0 14.435 2.81 326.63 324.692 0 0 0 42.03 2.702 326.63 324.692 0 0 0 38.798-2.301l.021-.01a326.63 324.692 0 0 0 2.092-.356 326.63 324.692 0 0 0 13.314-2.402 326.63 324.692 0 0 0 23.233-4.193l.016-.01a326.63 324.692 0 0 0 3.394-1.07 326.63 324.692 0 0 0 23.196-7.315 326.63 324.692 0 0 0 18.136-6.123 326.63 324.692 0 0 0 22.534-10.615 326.63 324.692 0 0 0 16.623-8.155 326.63 324.692 0 0 0 21.9-14.203 326.63 324.692 0 0 0 13.313-8.635 326.63 324.692 0 0 0 .205-.177 326.63 324.692 0 0 0 .88-.758 326.63 324.692 0 0 0 22.006-18.934 326.63 324.692 0 0 0 10.33-8.888 326.63 324.692 0 0 0 .471-.534 326.63 324.692 0 0 0 28.737-32.445l.012-.01a326.63 324.692 0 0 0 23.699-35.289 326.63 324.692 0 0 0 .01-.01 326.63 324.692 0 0 0 32.59-78.262 326.63 324.692 0 0 0 0-.01 326.63 324.692 0 0 0 8.324-41.627 326.63 324.692 0 0 0 2.793-42.355 326.63 324.692 0 0 0-1.004-25.441 326.63 324.692 0 0 0-3.006-25.282 326.63 324.692 0 0 0-.029-.125 326.63 324.692 0 0 0-6.775-32.004 326.63 324.692 0 0 0-2.487-7.75 326.63 324.692 0 0 0-3.523-10.99 326.63 324.692 0 0 0-11.824-30.4 326.63 324.692 0 0 0-2.414-6.203 326.63 324.692 0 0 0-1.33-2.364 326.63 324.692 0 0 0-1.612-3.687 326.63 324.692 0 0 0-10.547-17.903 326.63 324.692 0 0 0-10.841-18.404 326.63 324.692 0 0 0-1.502-2.55 326.63 324.692 0 0 0-13.354-16.805 326.63 324.692 0 0 0-.018-.023 326.63 324.692 0 0 0-13.123-16.516 326.63 324.692 0 0 0-17.82-17.44 326.63 324.692 0 0 0-14.945-14.218 326.63 324.692 0 0 0-20.514-15.063 326.63 324.692 0 0 0-16.399-11.752 326.63 324.692 0 0 0-23.017-12.347 326.63 324.692 0 0 0-2.994-1.606 326.63 324.692 0 0 0-14.295-7.469 326.63 324.692 0 0 0-25.815-9.468 326.63 324.692 0 0 0-17.119-6.155 326.63 324.692 0 0 0-29.99-6.418 326.63 324.692 0 0 0-14.723-3.091 326.63 324.692 0 0 0-45.61-3.211 326.63 324.692 0 0 0-244.72 109.644 326.63 324.692 0 0 0-50.576 76.276c-10.102-12.28-18.912-24.612-28.068-36.912-5.837-7.84-12.207-15.569-17.434-23.604-3.884-5.971-7.365-12.111-10.828-18.26-1.859-3.3-3.937-6.504-5.658-9.869-5.069-9.907-9.596-20.073-13.281-30.695a212.6 212.6 0 0 1-8.325-31.531c102.513-53.314 212.127-80.747 321.653-81.852a662 662 0 0 1 55.918 1.787c7.071.527 14.144.98 21.203 1.736h.01c24.352 2.612 48.654 6.115 72.748 11.479 70.833 15.77 134.689 43.818 163.642 55.451 17.195 6.909 26.726 8.983 31.688 4.38q.371-.347.709-.743c.01-.013.026-.026.037-.04q.354-.417.672-.892.318-.474.601-1.006.284-.532.533-1.12.25-.591.467-1.239c1.168-3.47 1.668-8.21 1.733-14.36.93-88.442-71.61-258.2-199.723-359.886-15.416-12.236-31.72-23.343-48.715-33.348-14.312-8.426-29.232-15.812-44.623-22.316-1.446-.611-2.738-1.505-4.193-2.098-1.327-.54-2.734-.91-4.069-1.435l-.08-.033-.06-.022c-5.688-2.233-11.51-4.166-17.337-6.107l-.08-.028-.08-.029-.03-.012-.028-.01c-4.325-1.438-8.602-2.966-13.003-4.236-6.191-1.786-12.538-3.19-18.877-4.629-4.341-.985-8.61-2.134-13.02-2.95-7.12-1.316-14.422-2.15-21.719-3.005-3.814-.447-7.536-1.135-11.398-1.451a334 334 0 0 0-33.748-1.08c-.186.004-.363-.022-.549-.018h-.01c-11.291.235-22.157 1.727-33.082 3.047-5.853.691-11.865.904-17.61 1.867-.044.008-.092.008-.138.016h-.01c-.399.067-.768.192-1.164.265-.937.16-1.926.18-2.86.348-6.992 1.253-13.566 3.335-20.386 4.953-6.629 1.573-13.505 2.656-19.961 4.537l-.727.211.01.149v.16c-1.804.53-3.747.805-5.537 1.357-15.048 4.643-29.595 10.062-43.594 16.024-5.67 2.414-10.832 5.228-16.316 7.806l-.029.014-.158.068c-.048.023-.09.05-.137.073-7.933 3.736-16.065 7.314-23.59 11.314-4.515 2.4-7.847 5.06-12.209 7.528-18.178 10.219-34.854 20.587-50.187 31.093-2.177 1.504-4.907 2.936-7.022 4.43-11.258 7.95-19.317 14.577-28.715 21.865-7.336 5.689-16.374 12.18-22.494 17.13a1921 1921 0 0 0-7.633 6.187c-.41.334-.674.542-1.078.87-7.374 6.008-13.762 11.235-18.695 14.985 0 .003-.012.01-.016.012-.01.006-.023.019-.031.025-.015.012-.042.036-.057.047 0 .001-.01 0-.01.002h-.01c-2.617 1.987-4.868 3.602-6.754 4.791a29 29 0 0 1-2.545 1.453l-.01.01a14 14 0 0 1-1.058.473c-.216.084-.405.138-.6.197-.098.03-.21.076-.303.1l-.066.013-.02.004q-.199.047-.392.077s-.01 0-.014.002c-.928.13-1.782-.062-2.641-.633l-.059-.041a6 6 0 0 1-.281-.21c-.095-.073-.192-.168-.287-.251a8 8 0 0 1-.873-.887c-.04-.045-.081-.101-.122-.148-.163-.194-.335-.436-.503-.658-.203-.27-.42-.605-.63-.916-.385-.57-.78-1.18-1.198-1.899-.172-.294-.36-.633-.538-.953-2.763-4.932-6.51-13.215-12.37-25.45l-.427-.884a572 572 0 0 0-7.076-13.957c-.101-.195-.195-.393-.297-.588-5.428-10.361-11.388-20.473-17.449-30.53-1.358-2.253-2.515-4.607-3.904-6.845l.047.094-.057-.092c.653 1.298 1.082 2.71 1.719 4.02-5.918-9.69-12.212-19.1-18.688-28.475l.383-.846c-2.225-3.216-4.824-6.19-7.113-9.367-2.934-4.073-6.05-7.96-9.086-11.967-2.244-2.962-4.442-5.951-6.74-8.877-2.86-3.638-5.432-7.447-8.373-11.027-13.19-16.05-27.257-31.408-42-46.186-19.188-19.232-39.616-37.236-61.098-54.021-5.343-4.175-11.046-7.776-16.516-11.787-16.745-12.28-33.912-23.847-51.736-34.492-7.815-4.67-15.706-9.008-23.705-13.342-17.093-9.262-34.541-17.6-52.371-25.248-7.727-3.315-15.286-6.85-23.133-9.846-25.433-9.71-51.274-18.221-77.713-24.361-.048-.011-.093-.034-.14-.045-8.907-2.066-17.951-3.41-26.942-5.045l.133-.5c-2.474-.45-5.01-.46-7.488-.877l-.133-.026c-4.55-.764-9.036-1.895-13.604-2.546-.032-.005-.065-.005-.098-.01-1.176-.168-2.371-.186-3.549-.346-14.936-2.029-29.94-3.596-45.017-4.377h-.082s0-.002-.01-.002h-.01l-.13-.006c-1.7-.087-3.414.016-5.116-.055-12.286-.513-24.594-.787-36.928-.433zm97.877 1970.484q10.078-.002 20.08-.308v-.01a614.688 583.74 0 0 1-20.08.318"/><path fill="url(#ac)" d="M.014 0 .012.002H.01v.002H.008L.006.006.004.008V.01H.002v.002L0 .014V2504.25A2299.24 2299.24 0 0 0 2299.24 205.008 2299 2299 0 0 0 2290.082 0H.016Z"/><path fill="#186438" d="M1781.257 1179.428c-9.885 111.956 57.336 174.773 121.355 254.794-114.957 33.992-281.157 17.528-262.456-199.543 2.543-32.766 1.078-59.821 19.909-85.593 18.825-25.777 57.946-50.27 80.793-54.473 22.852-4.208 29.431 11.879 33.634 27.785s6.035 31.62 6.765 57.03"/><path fill="url(#af)" d="M525.838 244.918a8 8 0 0 0-1.643.14c-4.79.882-12.989 6.016-16.935 11.419-3.947 5.402-3.64 11.071-4.172 17.939-1.133 13.152.971 22.792 5.119 29.678a49.74 49.74 0 0 0 21.516 4.892 49.7 49.7 0 0 0 19.248-3.875c-9.9-12.217-17.904-24.186-16.307-42.275-.153-5.326-.537-8.622-1.418-11.955-.771-2.917-1.923-5.862-5.408-5.963" transform="translate(-759.976 -74.51)scale(4.7708)"/><path fill="url(#ag)" d="M458.945 1273.42c2.758 1.111 5.134 3.18 7.165 5.709s3.716 5.517 4.33 9.54c.612 4.024.153 9.081-3.45 15.327-3.6 6.245-10.344 13.679-12.298 18.391-1.954 4.713.88 6.706 6.858 5.71s15.096-4.982 22.721-10.078 13.756-11.303 17.549-17.855 5.249-13.448 3.027-20.958c-2.223-7.51-8.123-15.633-16.744-19.12s-19.963-2.337-27.97.69c-8.009 3.027-12.683 7.931-13.833 10.115-1.149 2.184 1.227 1.648 3.985 1.456 2.76-.191 5.9-.038 8.66 1.073" transform="translate(-759.976 -4889.057)scale(4.7708)"/><path fill="url(#ah)" d="M466.99 250.305a45 45 0 0 0-3.187.113c-1.281.351-2.51.751-3.67 1.19-8.008 3.026-12.683 7.93-13.832 10.115-1.15 2.184 1.225 1.646 3.984 1.455 2.759-.192 5.902-.039 8.66 1.072s5.134 3.18 7.164 5.709c2.031 2.529 3.717 5.518 4.33 9.541s.153 9.08-3.449 15.326-10.345 13.68-12.299 18.393.882 6.705 6.86 5.709c5.977-.996 15.096-4.982 22.72-10.078 7.625-5.096 13.756-11.304 17.55-17.856 3.401-5.876 4.922-12.028 3.597-18.652a44.52 44.52 0 0 0-38.428-22.037" transform="translate(-759.976 -74.51)scale(4.7708)"/><path fill="url(#ai)" d="M477.576 248.805c-6.131-.249-12.438.91-17.443 2.802-8.008 3.027-12.683 7.932-13.832 10.116s1.225 1.646 3.984 1.455c2.759-.192 5.902-.039 8.66 1.072s5.134 3.18 7.164 5.709c2.031 2.529 3.717 5.518 4.33 9.541.611 4.008.157 9.044-3.408 15.258a46 46 0 0 0 3.385.125 45.77 45.77 0 0 0 35.459-16.83c.107-2.599-.214-5.266-1.027-8.016-2.223-7.51-8.123-15.632-16.744-19.119-3.233-1.308-6.85-1.964-10.528-2.113" transform="translate(-759.976 -74.51)scale(4.7708)"/><path fill="#186438" d="M578.606 1307.748c-27.404 21.717-47.828 37.484-53-1.841C440 941.165 748.452 692.768 801.96 653.194c309.067-230.105 713.387-45.451 856.97 248.693 12.666 26.368 15.252 34.12 20.418 32.828 19.909-4.976 159.789-159.55 344.724-163.4 89.605-1.866 167.555 31.96 231.613 82.802 128.11 101.685 200.65 271.444 199.72 359.89-.258 24.593-7.49 26.659-36.45 15.028s-92.805-39.684-163.638-55.451c-165.675-36.888-339.327-8.206-494.95 79.539-66.334 37.403-111.113 77.048-156.144 110.625-45.032 33.572-90.312 61.07-135.596 88.57 50.217-45.5 110.444-87.816 138.415-123.664s28.71-63.633 23.954-86.667-14.985-41.315-32.718-55.57-42.956-24.493-68.365-24.126-51 11.33-78.05 27.785c-172.036 121.9-366.398 84.987-519.86 3.426-90.073-38.763-141.412-53.743-353.397 114.246"/><path fill="url(#aj)" d="M397.66 130.98c-23.771-1.23-48.179 5.11-70.265 21.553-11.216 8.295-75.87 60.362-57.926 136.815 1.084 8.243 5.365 4.936 11.11.384 44.433-35.212 55.193-32.07 74.073-23.945 24.421 12.978 53.783 20.562 82.286 12.283a321.2 321.2 0 0 0 60.585-89.595c-22.393-32.365-60.244-55.443-99.863-57.495" transform="translate(-759.976 -74.51)scale(4.7708)"/><path fill="url(#ak)" d="M482.742 170.668a151.28 151.28 0 0 0 30.375 117.396c4.505-3.259 9.455-6.56 15.168-9.78 32.62-18.393 69.02-24.404 103.746-16.673 14.848 3.306 28.232 9.185 34.301 11.623 6.069 2.439 7.585 2.005 7.639-3.15.195-18.538-15.01-54.121-41.864-75.436-13.426-10.657-29.765-17.747-48.547-17.356-38.764.806-68.087 33.208-72.257 34.251-1.084.27-1.624-1.356-4.28-6.883-6.072-12.44-14.37-23.946-24.28-33.992" transform="translate(-759.976 -74.51)scale(4.7708)"/><path fill="url(#al)" d="M501.002 1405.777c8.46 16.822 15.71 35.632 16.828 50.926 5.267-12.183 2.863-25.278.008-37.975-3.349 2.728-5.589 4.577-6.535 4.815-1.084.27-1.624-1.356-4.28-6.883a123 123 0 0 0-6.02-10.883z" transform="translate(-759.976 -5856.723)scale(4.7708)"/><path fill="url(#am)" d="M388.723 130.879c-20.899.614-42.003 7.266-61.328 21.654-9.784 7.236-60.228 47.777-61.043 108.756A185.71 185.71 0 0 0 417.93 133.857a116.3 116.3 0 0 0-20.27-2.877q-4.458-.231-8.937-.101" style="mix-blend-mode:overlay" transform="translate(-759.976 -74.51)scale(4.7708)"/><path fill="url(#an)" d="M397.66 130.98c-23.771-1.23-48.179 5.11-70.265 21.553-11.216 8.295-75.87 60.362-57.926 136.815 1.084 8.243 5.365 4.936 11.11.384 44.433-35.212 55.193-32.07 74.073-23.945 24.421 12.978 53.783 20.562 82.286 12.283a321.2 321.2 0 0 0 60.585-89.595c-22.393-32.365-60.244-55.443-99.863-57.495" transform="translate(-759.976 -74.51)scale(4.7708)"/><path fill="url(#ao)" d="M482.742 170.668a151.28 151.28 0 0 0 30.375 117.396c4.505-3.259 9.455-6.56 15.168-9.78 32.62-18.393 69.02-24.404 103.746-16.673 14.848 3.306 28.232 9.185 34.301 11.623 6.069 2.439 7.585 2.005 7.639-3.15.195-18.538-15.01-54.121-41.864-75.436-13.426-10.657-29.765-17.747-48.547-17.356-38.764.806-68.087 33.208-72.257 34.251-1.084.27-1.624-1.356-4.28-6.883-6.072-12.44-14.37-23.946-24.28-33.992" transform="translate(-759.976 -74.51)scale(4.7708)"/><path fill="url(#ap)" d="M388.723 130.879c-20.899.614-42.003 7.266-61.328 21.654-9.717 7.187-59.542 47.224-61.02 107.51a172.23 172.23 0 0 0 145.936-127.348c-4.84-.88-9.731-1.46-14.65-1.715q-4.46-.231-8.938-.101" transform="translate(-759.976 -74.51)scale(4.7708)"/><path fill="url(#aq)" d="M482.742 170.668a151.28 151.28 0 0 0 30.375 117.396c4.505-3.259 9.455-6.56 15.168-9.78 32.62-18.393 69.02-24.404 103.746-16.673 14.848 3.306 28.232 9.185 34.301 11.623 6.069 2.439 7.585 2.005 7.639-3.15.195-18.538-15.01-54.121-41.864-75.436-13.426-10.657-29.765-17.747-48.547-17.356-38.764.806-68.087 33.208-72.257 34.251-1.084.27-1.624-1.356-4.28-6.883-6.072-12.44-14.37-23.946-24.28-33.992" transform="translate(-759.976 -74.51)scale(4.7708)"/><path fill="url(#ar)" d="M583.56 177.291c-7.046.147-13.78 1.339-20.109 3.195a105.34 105.34 0 0 0 34.424 77.893c11.437-.34 22.885.723 34.156 3.232 14.848 3.306 28.232 9.185 34.301 11.623 6.069 2.439 7.585 2.005 7.639-3.15.195-18.538-15.01-54.121-41.864-75.436-13.426-10.657-29.765-17.748-48.546-17.357" transform="translate(-759.976 -74.51)scale(4.7708)"/><path fill="url(#as)" d="M534.94 282.232a49.25 49.25 0 0 0-21.231 28.518c11.492 10.238 29.889 9.782 44.393 5.494-9.228-11.535-18.774-21.365-23.163-34.012" transform="translate(-759.976 -74.51)scale(4.7708)"/><path fill="url(#at)" d="M388.723 130.879c-1.04.03-2.08.16-3.12.22-1.153.068-2.303.142-3.457.247-.796.072-1.592.08-2.388.17-1.79.203-3.576.547-5.363.843-.572.095-1.143.128-1.713.233-.37.067-.738.14-1.108.21-3.47.673-6.93 1.525-10.373 2.565-.771.233-1.533.54-2.303.791l-.134.047h-.004q-1.25.412-2.494.858a106 106 0 0 0-5.415 2.087c-1.11.467-2.21.972-3.314 1.48-1.541.71-3.08 1.422-4.607 2.216-.66.342-1.307.738-1.963 1.095l-.002.002c-.22.12-.437.246-.657.368-1.022.566-2.049 1.101-3.064 1.707-3.323 1.982-6.617 4.108-9.85 6.515-2.429 1.797-7.365 5.648-13.425 11.354-1.503 1.414-3.22 3.28-4.84 4.92-1.647 1.667-3.198 3.111-4.922 5.006v.002a174 174 0 0 0-10.412 12.56v.002a156 156 0 0 0-10.026 15.05v.003c-9.486 16.247-16.84 36.007-17.394 58.613-.228 9.302.695 19.085 3.094 29.305q.101.771.24 1.412t.312 1.156c1.16 3.45 3.484 2.889 6.55.836 1.225-.821 2.571-1.881 4.007-3.02 33.326-26.408 47.71-31.244 60.783-28.583h.002c2.179.443 4.32 1.096 6.508 1.89h.002c2.187.795 4.42 1.733 6.78 2.748 5.384 2.862 11.074 5.316 16.876 7.541 2.01.771 3.997 1.543 6.047 2.22 1.27.418 2.532.834 3.817 1.214 3.275.97 6.588 1.788 9.939 2.476.77.159 1.522.376 2.295.518a106 106 0 0 0 12.383 1.514c1.083.069 2.17.035 3.256.068a94 94 0 0 0 9.437-.174c2.087-.146 4.17-.298 6.258-.593.608-.087 1.214-.145 1.822-.245a86 86 0 0 0 9.356-2.078c.265-.074.533-.1.798-.177l.086-.096c8.508-2.481 16.942-6.308 25.141-11.897.72.534 1.407 1.134 2.064 1.786.657.65 1.285 1.353 1.881 2.095 2.031 2.53 3.717 5.518 4.33 9.541q.117.751.176 1.551v.008q.06.797.05 1.643v.013c0 .105-.014.217-.017.323a20.4 20.4 0 0 1-.353 3.293c-.022.111-.059.23-.082.343-.11.53-.228 1.065-.387 1.62-.025.086-.064.18-.09.267l-.006.022a317.87 317.87 0 0 0 142.036-105.94 27 27 0 0 0-.971-.41c-1.206-.475-2.442-.884-3.678-1.295h-.002v-.002h-.002l-.01-.004c-.902-.3-1.794-.62-2.713-.885h-.002c-1.33-.384-2.692-.687-4.054-.994-.878-.198-1.74-.431-2.631-.596-1.504-.279-3.047-.455-4.588-.635h-.006l-.006-.002h-.002l-.014-.002c-.782-.091-1.546-.232-2.338-.297h-.004a70 70 0 0 0-7.185-.23c-3.643.076-7.192.451-10.655 1.033h-.002c-1.241.209-2.408.564-3.625.828-1.954.425-3.943.781-5.828 1.334l.004.07c-2.844.836-5.566 1.833-8.238 2.903a102 102 0 0 0-5.521 2.388c-14.027 6.601-25.188 15.45-31.858 20.881-1.675 1.364-3.071 2.51-4.168 3.342h-.002c-.548.417-1.02.755-1.416 1.004a6 6 0 0 1-.533.305l-.002.002a2 2 0 0 1-.414.162 1 1 0 0 1-.197.027.7.7 0 0 1-.28-.047h-.002a1 1 0 0 1-.181-.095 1.5 1.5 0 0 1-.278-.248c-.188-.209-.387-.506-.613-.905-.602-1.063-1.401-2.851-2.729-5.615q-.748-1.534-1.543-3.049a124 124 0 0 0-4.478-7.834c.14.28.23.586.371.867-1.246-2.041-2.571-4.024-3.935-6l.085-.17c-.481-.696-1.045-1.341-1.54-2.029-.632-.876-1.301-1.713-1.956-2.574-.446-.588-.881-1.181-1.338-1.762-.588-.748-1.116-1.531-1.72-2.267a136 136 0 0 0-8.81-9.69 139 139 0 0 0-12.811-11.328c-1.117-.873-2.31-1.626-3.453-2.465-3.512-2.575-7.11-5-10.848-7.232-1.64-.98-3.298-1.89-4.977-2.799a133 133 0 0 0-10.965-5.287c-1.623-.697-3.21-1.44-4.859-2.068-5.34-2.04-10.765-3.828-16.316-5.116-1.87-.433-3.768-.715-5.655-1.058l.036-.104c-.517-.094-1.047-.096-1.565-.183h-.008c-1.178-.199-2.346-.44-3.53-.602-1.155-.158-2.32-.217-3.48-.34-2.02-.214-4.036-.484-6.068-.59-.474-.024-.951.003-1.426-.015-1.04-.04-2.082-.024-3.125-.035-1.462-.016-2.921-.094-4.387-.051z" style="mix-blend-mode:overlay" transform="translate(-759.976 -74.51)scale(4.7708)"/><g transform="translate(-759.976 -74.51)scale(4.7708)"><path fill="url(#au)" d="M409.316 299.191c-85.672 0-136.086 71.565-128.656 142.99 1.7 16.333 7.687 33.408 17.791 49.663 10.105 16.255 24.324 31.688 38.947 43.64s29.647 20.424 37.463 24.612 8.424 4.092 10.614 1.535c2.19-2.558 5.962-7.576 8.87-11.844a109 109 0 0 0 4.026-6.324c3.64.295 7.292.443 10.945.443 71.16 0 128.845-54.781 128.844-122.357 0-67.576-57.685-122.358-128.844-122.358"/><path fill="#a33d56" d="M374.621 538.545s12.896 5.607 22.13 7.578a95 95 0 0 0 1.62-2.66c.142.011.284.007.426.017-12.522-1.038-24.176-4.935-24.176-4.935" opacity=".3"/><path fill="url(#av)" d="M409.316 299.191c-85.672 0-136.086 71.565-128.656 142.99 1.7 16.333 7.687 33.408 17.791 49.663 7.13 11.47 16.309 22.53 26.233 32.248a240 240 0 0 0 15.386.494 239.99 239.99 0 0 0 198.08-104.494c-.821-66.905-58.187-120.9-128.834-120.9"/><path fill="#d0606e" fill-opacity=".615" d="M420.162 476.977c-3.199.126-5.652.955-7.54 2.379-5.038 3.797-6.06 11.817-6.499 21.973-.288 6.649.607 11.7 1.31 15.792.69 4.006 2.54 6.7 5.172 8.329-1.94-1.658-3.304-4.072-3.873-7.381-.703-4.092-1.598-9.142-1.31-15.791.44-10.155 1.461-18.176 6.498-21.973 1.889-1.424 4.342-2.255 7.54-2.38 5.332-.21 12.732 1.536 23.042 5.747 5.454 2.228 10.253 4.929 13.672 7.33-3.442-2.616-8.784-5.75-14.97-8.277-10.31-4.212-17.71-5.958-23.042-5.748"/><path fill="url(#aw)" d="M421.462 476.194c-3.199.126-5.652.957-7.541 2.38-5.037 3.798-6.059 11.818-6.498 21.973-.288 6.65.607 11.7 1.31 15.791 4.912 28.574 69.074-9.63 52.682-24.517-3.133-2.846-9.4-6.81-16.912-9.88-10.31-4.21-17.71-5.957-23.041-5.747"/><path fill="url(#ax)" d="M421.46 476.193c-3.198.126-5.651.957-7.54 2.381-5.037 3.797-6.059 11.818-6.498 21.973a59 59 0 0 0 .103 6.83 34.6 34.6 0 0 0 9.092 1.215 34.625 34.625 0 0 0 33.055-24.313 78 78 0 0 0-5.17-2.338c-10.31-4.211-17.71-5.957-23.041-5.748" style="mix-blend-mode:overlay"/><path fill="url(#ay)" d="M421.46 476.193c-3.198.126-5.651.957-7.54 2.381-5.037 3.797-6.059 11.818-6.498 21.973-.248 5.724.381 10.263 1.01 14.025a36 36 0 0 0 11.218 1.793 35.994 35.994 0 0 0 35.342-29.166 76 76 0 0 0-10.49-5.258c-10.31-4.211-17.71-5.957-23.041-5.748" style="mix-blend-mode:overlay"/><path fill="url(#az)" d="M409.316 299.191c-85.672 0-136.086 71.565-128.656 142.99 1.497 14.393 6.325 29.364 14.365 43.84a279.6 279.6 0 0 0 56.762 5.823 279.55 279.55 0 0 0 186.37-71.19c-.506-67.164-57.996-121.463-128.84-121.463"/><ellipse cx="460.013" cy="106.161" fill="#fce4df" rx="2.713" ry="3.907" transform="rotate(34.8)"/><path fill="url(#aA)" d="M418.372 407.4c1.671.251 1.727 1.76 1.671 7.042-.055 5.28-.222 14.334-2.367 21.85-6.254 21.916-31.027 31.476-46.158 17.465-8.08-7.481-11.665-19.618-14.077-29.214-.369-1.467-.68-3.752.647-4.056 17.257-3.952 46.119-11.937 60.284-13.087"/><path fill="url(#aB)" d="M418.373 407.4c-10.638.865-29.565 5.583-45.64 9.553-5.914 5.237-9.998 11.994-10.745 21.147q-.051.385-.09.75c2.259 5.567 5.296 10.903 9.62 14.906 15.13 14.01 39.904 4.453 46.158-17.463 2.145-7.516 2.311-16.57 2.367-21.851.056-5.282.001-6.79-1.67-7.041"/><path fill="url(#aC)" d="M408.06 408.871c-10.424 1.908-23.63 5.194-35.328 8.082-5.913 5.237-9.997 11.994-10.744 21.147q-.051.386-.09.75c1.934 4.766 4.437 9.361 7.83 13.098a42.99 42.99 0 0 0 38.333-42.737z"/><path fill="url(#aD)" d="M405.533 410.59a36.093 36.093 0 0 0-36.094 36.094 36 36 0 0 0 .405 5.39 29 29 0 0 0 1.674 1.682c15.13 14.01 39.904 4.453 46.158-17.463 2.145-7.516 2.311-16.57 2.367-21.851l.008-.803a36.1 36.1 0 0 0-14.518-3.049"/><path fill="url(#aE)" d="M418.373 407.4c-10.638.865-29.565 5.583-45.64 9.553-5.914 5.237-9.998 11.994-10.745 21.147q-.051.385-.09.75c2.259 5.567 5.296 10.902 9.62 14.906q.8.741 1.634 1.394a65.75 65.75 0 0 0 46.797-36.046c.06-1.74.08-3.323.094-4.663.056-5.281.001-6.79-1.67-7.04"/><path fill="url(#aF)" d="M409.316 299.191c-85.672 0-136.086 71.565-128.656 142.99.685 6.587 2.068 13.294 4.137 20.02a212 212 0 0 0 103.89 27.197 212.03 212.03 0 0 0 149.301-61.48q.172-3.165.172-6.37c0-67.575-57.685-122.357-128.844-122.357" style="mix-blend-mode:overlay"/><path fill="url(#aG)" fill-opacity=".697" d="M409.316 299.191q-1.241 0-2.474.02c-18.238 7.689-29.295 24.486-34.824 41.068-3.75 11.247-4.085 22.722-3.247 30.86 1.577 15.301 10.572 15.944 9.842 3.539-2.54-43.207 18.226-73.394 63.55-71.356l.603.033c-10.667-2.715-21.88-4.164-33.45-4.164" style="mix-blend-mode:normal"/><path fill="url(#aH)" d="M409.316 299.191c-85.672 0-136.086 71.565-128.656 142.99.93 8.94 3.145 18.104 6.617 27.233a164.5 164.5 0 0 0 81.98 21.883 164.495 164.495 0 0 0 158.063-118.95c-19.943-43.076-65.274-73.156-118.004-73.156"/><g transform="translate(-65.813 -843.47)scale(.89056)"><ellipse cx="448.523" cy="1379.108" fill="#561c26" rx="14.598" ry="19.211"/><path fill="url(#aI)" d="M448.523 1359.898a14.598 19.21 0 0 0-14.582 18.842 14.598 19.21 0 0 0 .024.451 14.598 19.21 0 0 1 14.558-18.394 14.598 19.21 0 0 1 14.557 18.394 14.598 19.21 0 0 0 .023-.45 14.598 19.21 0 0 0-14.58-18.843"/><path fill="url(#aJ)" d="M433.94 1378.793a14.598 19.21 0 0 0-.016.314 14.598 19.21 0 0 0 14.6 19.211 14.598 19.21 0 0 0 14.597-19.21 14.598 19.21 0 0 0-.015-.315 14.598 19.21 0 0 1-14.583 18.895 14.598 19.21 0 0 1-14.584-18.895"/><path fill="url(#aK)" d="M448.523 1359.898a14.598 19.21 0 0 0-14.6 19.21 14.598 19.21 0 0 0 3.26 12.101 30 30 0 0 0 2.866.137 29.91 29.91 0 0 0 23.033-10.828 14.598 19.21 0 0 0 .04-1.41 14.598 19.21 0 0 0-14.599-19.21"/><path fill="url(#aL)" d="M448.523 1359.898a14.598 19.21 0 0 0-14.6 19.21 14.598 19.21 0 0 0 2.911 11.51 21.5 21.5 0 0 0 3.45.277 21.495 21.495 0 0 0 21.443-19.98 14.598 19.21 0 0 0-13.204-11.017" style="mix-blend-mode:overlay"/><path fill="url(#aM)" d="M448.523 1359.898a14.598 19.21 0 0 0-14.6 19.21 14.598 19.21 0 0 0 14.6 19.21 14.598 19.21 0 0 0 14.598-19.21 14.598 19.21 0 0 0-14.598-19.21"/><path fill="url(#aN)" d="M450.17 1376.327c-1.691 1.101-3.821 1.406-5.875.698-5.391-1.857-5.888-6.305-4.099-9.749 1.79-3.444 5.867-5.884 9.623-3.729 5 2.868 5.218 9.61.35 12.78z"/></g><path fill="url(#aO)" d="M409.316 299.191c-85.672 0-136.086 71.565-128.656 142.99.93 8.94 3.145 18.104 6.617 27.233a164.5 164.5 0 0 0 81.98 21.883 164.495 164.495 0 0 0 158.063-118.95c-19.943-43.076-65.274-73.156-118.004-73.156"/><path fill="url(#aP)" d="M358.234 308.777c-12.951 5.241-24.49 12.443-34.468 21.133 1.63 1.317 3.286 2.424 4.988 3.072 11.83 3.905 22.778-7 26.285-17.265 1.232-3.228 1.697-5.323 3.195-6.94" style="mix-blend-mode:overlay"/><path fill="url(#aQ)" d="M409.316 299.191c-70.603 0-117.261 48.604-127.332 105.678a131.2 131.2 0 0 0 33.508 4.35 131.23 131.23 0 0 0 128.684-105.496c-11.087-2.952-22.78-4.532-34.86-4.532" style="mix-blend-mode:overlay"/><path fill="url(#aR)" d="M358.234 308.777c-12.951 5.241-24.49 12.443-34.468 21.133 1.63 1.317 3.286 2.424 4.988 3.072 11.83 3.905 22.778-7 26.285-17.265 1.232-3.228 1.697-5.323 3.195-6.94"/><path fill="url(#aS)" d="M421.46 476.193c-3.198.126-5.651.957-7.54 2.381-5.037 3.797-6.059 11.818-6.498 21.973-.248 5.724.381 10.263 1.01 14.025a36 36 0 0 0 11.218 1.793 35.994 35.994 0 0 0 35.342-29.166 76 76 0 0 0-10.49-5.258c-10.31-4.211-17.71-5.957-23.041-5.748" style="mix-blend-mode:color-dodge"/><path fill="url(#aT)" d="M347.074 528.682a42 42 0 0 0-7.418 8.619c13.891 10.996 27.791 18.822 35.205 22.795 7.816 4.187 8.424 4.092 10.614 1.535 2.19-2.558 5.962-7.576 8.87-11.844a110 110 0 0 0 4.026-6.324 128.844 122.357 0 0 1-51.297-14.781m66.451 15.158a128.844 122.357 0 0 1-4.209.066q2.113 0 4.21-.064z"/><g transform="translate(34.96 -897.599)scale(.92205)"><ellipse cx="448.523" cy="1379.108" fill="#561c26" rx="14.598" ry="19.211"/><path fill="url(#aU)" d="M448.523 1359.898a14.598 19.21 0 0 0-14.582 18.842 14.598 19.21 0 0 0 .024.451 14.598 19.21 0 0 1 14.558-18.394 14.598 19.21 0 0 1 14.557 18.394 14.598 19.21 0 0 0 .023-.45 14.598 19.21 0 0 0-14.58-18.843"/><path fill="url(#aV)" d="M433.94 1378.793a14.598 19.21 0 0 0-.016.314 14.598 19.21 0 0 0 14.6 19.211 14.598 19.21 0 0 0 14.597-19.21 14.598 19.21 0 0 0-.015-.315 14.598 19.21 0 0 1-14.583 18.895 14.598 19.21 0 0 1-14.584-18.895"/><path fill="url(#aW)" d="M448.523 1359.898a14.598 19.21 0 0 0-14.6 19.21 14.598 19.21 0 0 0 3.26 12.101 30 30 0 0 0 2.866.137 29.91 29.91 0 0 0 23.033-10.828 14.598 19.21 0 0 0 .04-1.41 14.598 19.21 0 0 0-14.599-19.21"/><path fill="url(#aX)" d="M448.523 1359.898a14.598 19.21 0 0 0-14.6 19.21 14.598 19.21 0 0 0 2.911 11.51 21.5 21.5 0 0 0 3.45.277 21.495 21.495 0 0 0 21.443-19.98 14.598 19.21 0 0 0-13.204-11.017" style="mix-blend-mode:overlay"/><path fill="url(#aY)" d="M448.523 1359.898a14.598 19.21 0 0 0-14.6 19.21 14.598 19.21 0 0 0 14.6 19.21 14.598 19.21 0 0 0 14.598-19.21 14.598 19.21 0 0 0-14.598-19.21"/><path fill="url(#aZ)" d="M450.17 1376.327c-1.691 1.101-3.821 1.406-5.875.698-5.391-1.857-5.888-6.305-4.099-9.749 1.79-3.444 5.867-5.884 9.623-3.729 5 2.868 5.218 9.61.35 12.78z"/></g></g><path fill="#e36f78" d="M2162.678 1205.386a326.633 324.691 0 0 0-326.633 324.691 326.633 324.691 0 0 0 326.633 324.686 326.633 324.691 0 0 0 326.633-324.686 326.633 324.691 0 0 0-326.633-324.691"/><path fill="#3b0815" d="M1985.476 1725.985a3.34 3.34 0 0 1-.281-1.713c.095-.906.467-1.822 1.035-2.805 2.271-3.936 7.705-8.936 15.372-18.62 24.607-31.64 46.5-65.9 55.384-105.292h-.01c2.734-11.35 3.402-19.56 4.785-24.86.807-3.092 2.243-5.248 4.141-6.317s4.199-.859 6.088.425c3.769 2.571 6.379 8.926 5.749 18.544-.983 15.142-8.173 36.158-18.482 57.512-10.305 21.359-23.745 43.018-37.356 59.239-12.638 15.066-22.976 21.85-29.063 24.302a14.3 14.3 0 0 1-3.879 1.069c-1.088.1-2.066-.014-2.83-.625a2.4 2.4 0 0 1-.662-.84z" overflow="visible"/><path fill="url(#ba)" d="M612.613 268.277a68.465 68.058 0 0 0-68.464 68.058 68.465 68.058 0 0 0 68.464 68.057 68.465 68.058 0 0 0 68.465-68.057 68.465 68.058 0 0 0-68.465-68.058" transform="translate(-759.976 -74.51)scale(4.7708)"/><path fill="url(#bb)" d="M622.928 288.064a81.19 81.19 0 0 0-77.987 58.6 68.465 68.058 0 0 0 67.672 57.729 68.465 68.058 0 0 0 68.465-68.057 68.465 68.058 0 0 0-7.127-30.236 81.2 81.2 0 0 0-51.023-18.036" transform="translate(-759.976 -74.51)scale(4.7708)"/><path fill="#3b0815" d="M2253.214 1291.275a3.2 3.2 0 0 0-1.68.434c-.792.458-1.474 1.169-2.142 2.09-2.671 3.673-5.019 10.676-10.744 21.625-18.868 35.362-41.238 69.31-73.594 93.47l-.02.01c-9.254 7.122-16.477 11.068-20.757 14.498-2.495 1.994-3.879 4.184-4.084 6.355-.2 2.17.93 4.188 2.872 5.386 3.884 2.39 10.754 2.185 19.274-2.304 13.43-7.07 29.694-22.194 45.003-40.309s29.613-39.206 38.882-58.247c8.612-17.68 10.592-29.884 10.353-36.444a14.3 14.3 0 0 0-.606-3.979c-.348-1.035-.859-1.88-1.722-2.328a2.4 2.4 0 0 0-1.035-.262" overflow="visible"/><path fill="url(#bc)" d="M612.613 268.277a68.465 68.058 0 0 0-68.465 68.059 68.465 68.058 0 0 0 14.665 42.09 164.648 162.4 0 0 0 121.425-52.723 68.465 68.058 0 0 0-67.625-57.426" transform="translate(-759.976 -74.51)scale(4.7708)"/><g fill="#f6cacb" transform="translate(-759.976 -4777.494)scale(4.7708)"><path d="M580.12 1275.997c2.764-1.748 6.205-2.046 8.467-1.22 2.262.827 3.346 2.778 3.387 5.541s-.962 6.34-3.238 8.887-5.825 4.064-8.63 3.793c-8.629-.834-8.086-11.879.015-17.001"/><ellipse cx="576.667" cy="1302.226" rx="3.135" ry="2.992"/></g><path fill="url(#bd)" d="M612.613 268.277a68.465 68.058 0 0 0-68.465 68.059 68.465 68.058 0 0 0 68.465 68.057 68.465 68.058 0 0 0 16.237-1.942 115.7 115.7 0 0 0 38.097-24.707 68.465 68.058 0 0 0 14.131-41.408 68.465 68.058 0 0 0-68.465-68.059" style="mix-blend-mode:overlay" transform="translate(-759.976 -74.51)scale(4.7708)"/><path fill="#992742" d="M2232.732 1504.958c-12.7 24.06-56.375 120.273-59.347 137.62-1.144 6.69 1.33 7.323 8.098 5.769 79.684-18.342 102.721-124.229 68.864-159.48-3.64-3.788-6.67-4.655-17.616 16.087"/><path fill="url(#be)" d="M633.986 331.838a23.695 24.374 0 0 0-13.941 22.213 23.695 24.374 0 0 0 .498 4.967c11.122-4.93 15.957-18.879 13.443-27.18" transform="rotate(-4.044 1542.707 12365.558)scale(4.7708)"/><path fill="url(#bf)" d="M612.613 268.277a68.465 68.058 0 0 0-68.465 68.059 68.465 68.058 0 0 0 68.465 68.057 68.465 68.058 0 0 0 8.133-.483 219 219 0 0 0 44.295-24.35 116 116 0 0 0 1.906-1.816 68.465 68.058 0 0 0 14.131-41.408 68.465 68.058 0 0 0-68.465-68.059" style="mix-blend-mode:overlay" transform="translate(-759.976 -74.51)scale(4.7708)"/><g fill="#fff" stroke-linecap="round" stroke-linejoin="round" stroke-width=".362" font-family="'Magic Bubble'" font-size="241.363" text-anchor="middle"><text xml:space="preserve" x="1503.439" y="3012.315" fill="#1d83b3" style="line-height:1;-inkscape-font-specification:&quot;Magic Bubble&quot;;text-align:center"><tspan x="1503.439" y="3012.315"><tspan x="1503.439" y="3012.315"> Que Te Mejores Pronto,</tspan></tspan><tspan x="1503.439" y="3256.035">Cereza Preciosa!</tspan></text><text xml:space="preserve" x="1503.439" y="2993.714" style="line-height:1;-inkscape-font-specification:&quot;Magic Bubble&quot;;text-align:center"><tspan x="1503.439" y="2993.714"><tspan x="1503.439" y="2993.714"> Que Te Mejores Pronto,</tspan></tspan><tspan x="1503.439" y="3237.434">Cereza Preciosa!</tspan></text></g><text xml:space="preserve" x="1477.333" y="465.239" fill="#1d98d3" stroke-linecap="round" stroke-linejoin="round" stroke-width=".5" font-family="Magic Bubble" font-size="333.333" style="line-height:1;-inkscape-font-specification:&quot;Magic Bubble&quot;;text-align:center" text-anchor="middle"><tspan x="1477.333" y="465.239">Para: Robotta</tspan></text><text xml:space="preserve" x="1477.333" y="445.624" fill="#fff" stroke-linecap="round" stroke-linejoin="round" stroke-width=".5" font-family="Magic Bubble" font-size="333.333" style="line-height:1;-inkscape-font-specification:&quot;Magic Bubble&quot;;text-align:center" text-anchor="middle"><tspan x="1477.333" y="445.624">Para: Robotta</tspan></text></svg>