<svg xmlns="http://www.w3.org/2000/svg" xmlns:xlink="http://www.w3.org/1999/xlink" xml:space="preserve" width="2400" height="2900"><defs><radialGradient xlink:href="#a" id="f" cx="510.323" cy="622.365" r="155.01" fx="510.323" fy="622.365" gradientTransform="matrix(1.4837 0 0 1.49298 -252.5 -282.772)" gradientUnits="userSpaceOnUse"/><radialGradient xlink:href="#b" id="e" cx="501.959" cy="582.047" r="364.236" fx="501.959" fy="582.047" gradientTransform="matrix(1.27387 0 0 1.37918 -137.471 -220.703)" gradientUnits="userSpaceOnUse"/><radialGradient xlink:href="#c" id="d" cx="484.076" cy="592.366" r="364.236" fx="484.076" fy="592.366" gradientTransform="matrix(1.84105 .01151 -.01305 2.08683 83.466 -220.09)" gradientUnits="userSpaceOnUse"/><linearGradient id="c"><stop offset="0" stop-color="#c3bcdf" stop-opacity=".317"/><stop offset="1" stop-color="#c0b7dc" stop-opacity="0"/></linearGradient><linearGradient id="b"><stop offset="0" stop-color="#c3bcdf" stop-opacity=".558"/><stop offset="1" stop-color="#c0b7dc" stop-opacity="0"/></linearGradient><linearGradient id="a"><stop offset="0" stop-color="#faf3e1"/><stop offset="1" stop-color="#f8ebd1" stop-opacity="0"/></linearGradient></defs><path fill="url(#d)" d="M968.133 191.176C176.758 195.92-188.1 1953.32 1105.387 1800c1174.36-139.2 498.03-1612.634-137.254-1608.824" transform="translate(-405.635 -156.154)scale(1.60563)"/><g transform="translate(220.533 314.257)scale(1.95129)"><path fill="#dedff3" d="M927.865 134.019c-58.837-.492-219.56 196.031-215.43 223.482 1.083-1.248 42.9 54.832 43.048 54.832 221.72-27.223 246.593-277.69 172.382-278.313z"/><path fill="url(#e)" d="M482.175 79.703c-491.31 2.946-717.825 1093.995 85.211 998.809 729.08-86.42 309.194-1001.174-85.21-998.809"/><path fill="#dedff3" d="M70.748 211.198c-25.14 1.39-35.398 122.313 137.145 210.5 9.322-9.374 19.547-34.24 22.357-35.958-38.39-73.638-142.066-174.443-159.502-174.542"/><path fill="#fff" fill-rule="evenodd" d="M425.283 236.736a26 26 0 0 0-6.03.07c-7.96.99-16.52 3.68-23.839 7.057-7.32 3.377-13.387 6.88-16.531 12.26-2.625 4.49-3.065 9.735-.791 14.477 2.278 4.752 7.165 7.652 12.767 8.574 1.862.306 3.311.226 5.172.164 5.444-.18 10.664-1.301 18.11-3.764 8.925-2.951 15.114-5.608 19.552-9.35 4.439-3.74 6.616-9.02 6.639-14.458.01-2.538-.467-4.718-1.295-6.4-2.535-5.156-7.93-8-13.754-8.63"/><path fill="#787ce1" d="M487.281 209.355c-364.506 2.186-532.558 811.641 63.219 741.022 540.908-64.115 229.392-742.776-63.219-741.022m-65.238 31.823c.762-.028 1.472-.02 2.117.027 6.734.545 12.682 4.457 11.596 11.984-.81 8.436-6.708 12.842-25.018 18.692-29.695 9.488-31.628-6.328-28.24-12.879 4.58-8.858 28.113-17.406 39.545-17.824"/><circle cx="513.361" cy="643.817" r="207.813" fill="#a79fdf" fill-rule="evenodd" style="font-variation-settings:normal;-inkscape-stroke:none"/><path fill="#f0d399" fill-rule="evenodd" d="M665.334 622.365a155.01 155.98 0 0 1-155.01 155.98 155.01 155.98 0 0 1-155.01-155.98 155.01 155.98 0 0 1 155.01-155.98 155.01 155.98 0 0 1 155.01 155.98"/><path fill="url(#f)" fill-rule="evenodd" d="M734.655 646.407a229.989 231.427 0 0 1-229.988 231.427 229.989 231.427 0 0 1-229.989-231.427A229.989 231.427 0 0 1 504.667 414.98a229.989 231.427 0 0 1 229.988 231.427"/><path fill="#fff" fill-rule="evenodd" d="M270.697 396.484c-2.253-.168-4.51.114-6.57 1.082-5.66 2.66-8.854 8.853-8.854 15.606 0 9.282 4.941 17.537 12.983 19.533 5.027 1.248 10.424-.578 14.146-4.3 2.492-2.492 4.186-5.526 5.082-9.026 2.08-8.12-2.44-16.856-10.181-20.983a16.7 16.7 0 0 0-6.606-1.912"/><path d="M268.238 390.021c-16.244.882-32.57 27.32-34.869 58.979-1.532 21.108 5.642 38.337 17.186 41.273 37.257 9.48 57.71-102.425 17.683-100.252m1.03 9.557c11.295-.363 21.457 15.113 11.373 26.117-6.03 6.58-16.133 5.144-19.89-2.828-5.61-11.907-.426-23.001 8.517-23.289"/><path fill="#fff" fill-rule="evenodd" d="M631.97 337.688c-.948.039-1.89.177-2.73.412-2.508.7-5.102 2.278-6.933 4.193-2.655 2.774-4.045 6.583-3.846 10.469.222 4.325 2.088 8.535 5.166 11.713 1.41 1.455 2.692 2.434 4.3 3.261 1.725.887 3.313 1.357 5.321 1.59 2.769.321 5.954-.547 8.654-2.144 4.22-2.497 6.589-6.586 6.612-11.442.013-2.852-.659-5.526-2.045-8.283-2.51-4.99-6.865-8.673-11.737-9.588a12.4 12.4 0 0 0-2.761-.182"/><path d="M620.834 331.084c-24.21 13.788-11.57 63.183-4.84 84.168 13.944 31.523 49.025 18.536 49-10.022-.02-24.027-15.595-88.719-44.16-74.146m11.537 8.312c11.47-.131 20.518 18.55 9.326 25.883-15.704 10.29-30.923-15.978-14.336-24.586 1.686-.874 3.372-1.278 5.01-1.297"/><path fill="#aaace5" d="M460.976 107.715c-.514 3.312-5.325 40.918 39.187 51.857 16.156 3.97 19.699 7.297 25.288 23.752 11.274 33.196 19.746 107.767 25.363 114.727 5.725 7.094 14.657 4.465 17.224-5.069 7.259-26.954-15.064-123.13-18.011-173.482-3.669-70.932-81.384-61.202-89.051-11.785m-265.912 26.67c-70.947 6.016-49.903 98.076 3.918 89.547 30.849-4.89 29.3-32.081 43.668-31.91 12.446.147 45.286 32.82 72.353 71.984 11.513 12.788 23.305 45.023 37.928 52.594 8.417 3.795 16.04-2.689 16.063-13.663.04-19.599-43.63-91.5-84.495-128.65-36.2-31.302-71.88-41.393-89.435-39.902"/><path d="M405.514 554.915c-16.584-2.786-24.653-5.389-39.592-12.768-41.385-20.445-28.253-34.06-27.832-34.482 4.989-4.989 10.393-1.912 20.76 11.337 21.588 27.592 100.62 49.27 144.417-5.009 5.592-6.93 10.073-9.652 14.831-7.989 4.641 1.623 5.051 9.403.872 16.535-3.992 6.811-9.476 10.999-23.955 18.291-40.802 20.55-80.294 15.631-89.5 14.085"/></g></svg>