<svg xmlns="http://www.w3.org/2000/svg" xmlns:xlink="http://www.w3.org/1999/xlink" xml:space="preserve" width="2400" height="2900"><defs><radialGradient xlink:href="#a" id="f" cx="510.323" cy="622.365" r="155.01" fx="510.323" fy="622.365" gradientTransform="matrix(1.4837 0 0 1.49298 -252.5 -282.772)" gradientUnits="userSpaceOnUse"/><radialGradient xlink:href="#b" id="e" cx="501.959" cy="582.047" r="364.236" fx="501.959" fy="582.047" gradientTransform="matrix(1.27387 0 0 1.37918 -137.471 -220.703)" gradientUnits="userSpaceOnUse"/><radialGradient xlink:href="#c" id="d" cx="484.076" cy="592.366" r="364.236" fx="484.076" fy="592.366" gradientTransform="matrix(1.84105 .01151 -.01305 2.08683 83.466 -220.09)" gradientUnits="userSpaceOnUse"/><linearGradient id="c"><stop offset="0" stop-color="#c3bcdf" stop-opacity=".317"/><stop offset="1" stop-color="#c0b7dc" stop-opacity="0"/></linearGradient><linearGradient id="b"><stop offset="0" stop-color="#c3bcdf" stop-opacity=".558"/><stop offset="1" stop-color="#c0b7dc" stop-opacity="0"/></linearGradient><linearGradient id="a"><stop offset="0" stop-color="#faf3e1"/><stop offset="1" stop-color="#f8ebd1" stop-opacity="0"/></linearGradient></defs><path fill="url(#d)" d="M968.133 191.176C176.758 195.92-188.1 1953.32 1105.387 1800c1174.36-139.2 498.03-1612.634-137.254-1608.824" transform="translate(-405.635 -156.154)scale(1.60563)"/><g transform="translate(220.533 314.257)scale(1.95129)"><path fill="#dedff3" d="M927.865 134.019c-58.837-.492-219.56 196.031-215.43 223.482 1.083-1.248 42.9 54.832 43.048 54.832 221.72-27.223 246.593-277.69 172.382-278.313z"/><path fill="url(#e)" d="M482.175 79.703c-491.31 2.946-717.825 1093.995 85.211 998.809 729.08-86.42 309.194-1001.174-85.21-998.809"/><path fill="#dedff3" d="M70.748 211.198c-25.14 1.39-35.398 122.313 137.145 210.5 9.322-9.374 19.547-34.24 22.357-35.958-38.39-73.638-142.066-174.443-159.502-174.542"/><path fill="#fff" fill-rule="evenodd" d="M425.283 236.736a26 26 0 0 0-6.03.07c-7.96.99-16.52 3.68-23.839 7.057-7.32 3.377-13.387 6.88-16.531 12.26-2.625 4.49-3.065 9.735-.791 14.477 2.278 4.752 7.165 7.652 12.767 8.574 1.862.306 3.311.226 5.172.164 5.444-.18 10.664-1.301 18.11-3.764 8.925-2.951 15.114-5.608 19.552-9.35 4.439-3.74 6.616-9.02 6.639-14.458.01-2.538-.467-4.718-1.295-6.4-2.535-5.156-7.93-8-13.754-8.63"/><path fill="#787ce1" d="M487.281 209.355c-364.506 2.186-532.558 811.641 63.219 741.022 540.908-64.115 229.392-742.776-63.219-741.022m-65.238 31.823c.762-.028 1.472-.02 2.117.027 6.734.545 12.682 4.457 11.596 11.984-.81 8.436-6.708 12.842-25.018 18.692-29.695 9.488-31.628-6.328-28.24-12.879 4.58-8.858 28.113-17.406 39.545-17.824"/><circle cx="513.361" cy="643.817" r="207.813" fill="#a79fdf" fill-rule="evenodd" style="font-variation-settings:normal;-inkscape-stroke:none"/><path fill="#f0d399" fill-rule="evenodd" d="M665.334 622.365a155.01 155.98 0 0 1-155.01 155.98 155.01 155.98 0 0 1-155.01-155.98 155.01 155.98 0 0 1 155.01-155.98 155.01 155.98 0 0 1 155.01 155.98"/><path fill="url(#f)" fill-rule="evenodd" d="M734.655 646.407a229.989 231.427 0 0 1-229.988 231.427 229.989 231.427 0 0 1-229.989-231.427A229.989 231.427 0 0 1 504.667 414.98a229.989 231.427 0 0 1 229.988 231.427"/><path fill="#aaace5" d="M460.976 107.715c-.514 3.312-5.325 40.918 39.187 51.857 16.156 3.97 19.699 7.297 25.288 23.752 11.274 33.196 19.746 107.767 25.363 114.727 5.725 7.094 14.657 4.465 17.224-5.069 7.259-26.954-15.064-123.13-18.011-173.482-3.669-70.932-81.384-61.202-89.051-11.785m-265.912 26.67c-70.947 6.016-49.903 98.076 3.918 89.547 30.849-4.89 29.3-32.081 43.668-31.91 12.446.147 45.286 32.82 72.353 71.984 11.513 12.788 23.305 45.023 37.928 52.594 8.417 3.795 16.04-2.689 16.063-13.663.04-19.599-43.63-91.5-84.495-128.65-36.2-31.302-71.88-41.393-89.435-39.902"/><path d="M405.514 554.915c-16.584-2.786-24.653-5.389-39.592-12.768-41.385-20.445-28.253-34.06-27.832-34.482 4.989-4.989 10.393-1.912 20.76 11.337 21.588 27.592 100.62 49.27 144.417-5.009 5.592-6.93 10.073-9.652 14.831-7.989 4.641 1.623 5.051 9.403.872 16.535-3.992 6.811-9.476 10.999-23.955 18.291-40.802 20.55-80.294 15.631-89.5 14.085"/></g><path fill="#fff" fill-rule="evenodd" d="M771.117 1127.208c-1.554-.142-3.055-.053-4.472.324-3.176.847-5.71 3.406-6.372 6.569-.275 1.307-.218 2.72.16 4.317 1.245 5.285 5.438 11.115 10.8 16.875s11.926 11.225 18.268 14.679c2.478 1.348 5.038 2.331 7.465 2.804h.002c1.312.255 2.82.341 4.193.268 1.895-.099 3.587-.413 5.102-1.24 1.514-.825 2.684-2.187 3.414-3.69.64-1.32.934-2.781.924-4.59-.009-1.751-.268-3.162-.866-4.66-1.907-4.765-5.59-9.657-11.124-15.195-4.53-4.534-6.902-6.513-11.521-9.597-3.357-2.239-8.097-4.8-11.07-5.781-1.729-.57-3.347-.94-4.903-1.083"/><path d="M812.384 1234.862c-3.474-1.512-7.88-6.61-21.804-25.227-12.882-16.256-25.966-34.863-48.428-34.678-37.53.426-67.082 49.42-81.678 34.825-7.705-7.706-.777-50.873 34.138-74.895 41.385-28.473 109.447-16.748 130.75 45.815 5.257 15.446 6.714 62.736-12.978 54.16m-5.89-66.667c2.865-4.093 1.636-8.886-4.231-16.496-7.146-9.265-18.169-17.717-27.175-20.832-6.99-2.418-12.29-.287-12.29 4.945 0 8.652 17.28 27.256 30.766 33.12 5.063 2.201 11.112 1.857 12.93-.737m566.674-12.03c3.474-1.512 7.88-6.61 21.804-25.227 12.882-16.256 25.966-34.863 48.428-34.678 37.53.426 67.082 49.42 81.678 34.825 7.705-7.706.777-50.873-34.138-74.895-41.385-28.473-109.447-16.748-130.75 45.815-5.257 15.446-6.714 62.736 12.978 54.16"/><path fill="#fff" fill-rule="evenodd" d="M1470.394 1053.382c1.48.057 3.12.379 4.868.983 9.006 3.116 20.029 11.567 27.175 20.833 5.867 7.61 7.097 12.404 4.23 16.497-1.817 2.594-7.863 2.938-12.926.735-13.485-5.864-30.769-24.466-30.769-33.12 0-3.923 2.982-6.104 7.42-5.929"/></svg>