<svg xmlns="http://www.w3.org/2000/svg" width="1000" height="500"><path d="M6729.31-2598.635c-2.644.033-4.69.15-5.606.21h-.074c-27.05 2.928-42.96 9.011-52.186 14.491-4.612 2.74-7.55 5.33-9.351 7.281-1.338 1.45-2.176 2.663-2.748 3.848v6.316c-1.217.275-3.412.791-6.04 1.223-2.728.448-4.386 2.54-5.57 4.26a22 22 0 0 0-1.841 3.261c-47.434 89.624-66.258 211.881-66.258 211.881l-.01.057-.01.06c-9.207 94.867.66 145.318 13.088 172.273 6.214 13.477 13.09 21.07 18.51 25.285 5.418 4.215 9.62 5.088 9.62 5.088l.025.01 48.038 7.967.431-.124c8.849-2.512 12.498-13.018 12.606-13.331l43.75-100.192.01-.025c13.62-33.74 32.208-45.182 47.363-48.56 9.009-1.915 18.401-1.558 27.107 1.49 10.796 3.018 22.634 1.347 23.041 1.289 33.891.198 67.79-.11 101.688-.305 33.898.195 67.796.503 101.687.305.408.058 12.246 1.729 23.041-1.29 8.706-3.047 18.099-3.404 27.108-1.49 15.154 3.38 33.744 14.821 47.363 48.561l.01.025 43.75 100.192c.107.313 3.757 10.819 12.606 13.332l.431.123 48.037-7.967.025-.01s4.203-.873 9.621-5.088c5.42-4.215 12.296-11.808 18.51-25.285 12.428-26.955 22.295-77.406 13.088-172.274l-.01-.059-.01-.057s-18.824-122.257-66.258-211.88a22 22 0 0 0-1.842-3.262c-1.183-1.72-2.841-3.812-5.57-4.26-2.628-.432-4.822-.948-6.039-1.223v-6.316c-.572-1.185-1.41-2.399-2.748-3.848-1.802-1.952-4.739-4.541-9.352-7.281-9.225-5.48-25.136-11.563-52.185-14.49h-.074c-.917-.061-2.962-.178-5.606-.211-7.929-.1-21.23.55-25.513 5.693l-.305.367-2.146 9.325c-51.778-7.303-111.016-11.082-167.62-11.485-56.603.403-115.841 4.182-167.619 11.485l-2.146-9.325-.305-.367c-4.283-5.143-17.584-5.793-25.514-5.693z" style="fill:#000;fill-rule:evenodd;stroke-width:3.06595;stroke-linecap:round;stroke-miterlimit:7;paint-order:stroke markers fill" transform="translate(-6011.616 2475.629)scale(.94032)"/><g transform="translate(103.953 42.493)scale(.78688)"><circle cx="465.022" cy="195.876" r="4.786" style="font-variation-settings:normal;opacity:1;vector-effect:none;fill:#fff;fill-opacity:1;fill-rule:evenodd;stroke-width:26.4567;stroke-linecap:butt;stroke-linejoin:miter;stroke-miterlimit:4;stroke-dasharray:none;stroke-dashoffset:0;stroke-opacity:1;-inkscape-stroke:none;stop-color:#000;stop-opacity:1"/><circle cx="474.595" cy="205.449" r="4.786" style="font-variation-settings:normal;opacity:1;vector-effect:none;fill:#fff;fill-opacity:1;fill-rule:evenodd;stroke-width:26.4567;stroke-linecap:butt;stroke-linejoin:miter;stroke-miterlimit:4;stroke-dasharray:none;stroke-dashoffset:0;stroke-opacity:1;-inkscape-stroke:none;stop-color:#000;stop-opacity:1"/><circle cx="484.168" cy="195.876" r="4.786" style="font-variation-settings:normal;opacity:1;vector-effect:none;fill:#fff;fill-opacity:1;fill-rule:evenodd;stroke-width:26.4567;stroke-linecap:butt;stroke-linejoin:miter;stroke-miterlimit:4;stroke-dasharray:none;stroke-dashoffset:0;stroke-opacity:1;-inkscape-stroke:none;stop-color:#000;stop-opacity:1"/><circle cx="493.741" cy="205.449" r="4.786" style="font-variation-settings:normal;opacity:1;vector-effect:none;fill:#fff;fill-opacity:1;fill-rule:evenodd;stroke-width:26.4567;stroke-linecap:butt;stroke-linejoin:miter;stroke-miterlimit:4;stroke-dasharray:none;stroke-dashoffset:0;stroke-opacity:1;-inkscape-stroke:none;stop-color:#000;stop-opacity:1"/><circle cx="503.314" cy="195.876" r="4.786" style="font-variation-settings:normal;opacity:1;vector-effect:none;fill:#fff;fill-opacity:1;fill-rule:evenodd;stroke-width:26.4567;stroke-linecap:butt;stroke-linejoin:miter;stroke-miterlimit:4;stroke-dasharray:none;stroke-dashoffset:0;stroke-opacity:1;-inkscape-stroke:none;stop-color:#000;stop-opacity:1"/><circle cx="512.887" cy="205.449" r="4.786" style="font-variation-settings:normal;opacity:1;vector-effect:none;fill:#fff;fill-opacity:1;fill-rule:evenodd;stroke-width:26.4567;stroke-linecap:butt;stroke-linejoin:miter;stroke-miterlimit:4;stroke-dasharray:none;stroke-dashoffset:0;stroke-opacity:1;-inkscape-stroke:none;stop-color:#000;stop-opacity:1"/><circle cx="522.459" cy="195.876" r="4.786" style="font-variation-settings:normal;opacity:1;vector-effect:none;fill:#fff;fill-opacity:1;fill-rule:evenodd;stroke-width:26.4567;stroke-linecap:butt;stroke-linejoin:miter;stroke-miterlimit:4;stroke-dasharray:none;stroke-dashoffset:0;stroke-opacity:1;-inkscape-stroke:none;stop-color:#000;stop-opacity:1"/><circle cx="532.032" cy="205.449" r="4.786" style="font-variation-settings:normal;opacity:1;vector-effect:none;fill:#fff;fill-opacity:1;fill-rule:evenodd;stroke-width:26.4567;stroke-linecap:butt;stroke-linejoin:miter;stroke-miterlimit:4;stroke-dasharray:none;stroke-dashoffset:0;stroke-opacity:1;-inkscape-stroke:none;stop-color:#000;stop-opacity:1"/><circle cx="541.605" cy="195.876" r="4.786" style="font-variation-settings:normal;opacity:1;vector-effect:none;fill:#fff;fill-opacity:1;fill-rule:evenodd;stroke-width:26.4567;stroke-linecap:butt;stroke-linejoin:miter;stroke-miterlimit:4;stroke-dasharray:none;stroke-dashoffset:0;stroke-opacity:1;-inkscape-stroke:none;stop-color:#000;stop-opacity:1"/></g><g transform="translate(-6011.616 2475.629)scale(.94032)"><path fill="none" stroke="#747474" stroke-width="3" d="M6805.408-2472.923s6.951 27.57 35.968 28.22l166.584.059s33.6 1.166 38.809-40.954l15.317-73.826s5.863-27.7-12.753-30.052c0 0-141.785-15.909-243.924.62 0 0-21.185 3.325-18.9 25.648s18.899 90.285 18.899 90.285z" data-name="路径 3247" style="opacity:1;stroke:#fff"/><g fill="none"><g style="opacity:1;stroke:#fff;stroke-opacity:1"><rect width="14.338" height="29.716" x="1" y="1" stroke="#747474" stroke-width="2" data-name="矩形 709" rx="7.169" style="stroke:#fff;stroke-opacity:1" transform="rotate(-169 3424.588 -1603.206)"/></g><rect width="14.338" height="29.716" x="7115.687" y="-1218.508" rx="7.169" style="opacity:1;stroke:#fff;stroke-width:2;stroke-opacity:1" transform="rotate(-11)"/></g><g fill="none" stroke="#747474" stroke-width="2" style="fill:#fff;stroke:#fff"><path d="M6733.682-2156.324h22.444a7.5 7.5 0 0 1 7.5 7.5v19.613a7.5 7.5 0 0 1-2.2 5.3l-10.877 10.872a7.5 7.5 0 0 1-10.6 0l-11.237-11.235a7.5 7.5 0 0 1-2.194-5.172l-.328-19.254a7.5 7.5 0 0 1 7.493-7.624z" data-name="路径 11" style="fill:#fff;fill-opacity:1;stroke:#fff;stroke-opacity:1" transform="translate(-36.946 -364.61)"/><path d="M6800.308-2111.267v22.443a7.5 7.5 0 0 1-7.5 7.5h-19.61a7.5 7.5 0 0 1-5.3-2.2l-10.876-10.877a7.5 7.5 0 0 1 0-10.6l11.237-11.237a7.5 7.5 0 0 1 5.17-2.194l19.26-.33a7.5 7.5 0 0 1 7.62 7.495z" data-name="路径 12" style="fill:#fff;fill-opacity:1;stroke:#fff;stroke-opacity:1" transform="translate(-36.946 -364.61)"/><path d="M6689.298-2088.824v-22.442a7.5 7.5 0 0 1 7.5-7.495h19.613a7.5 7.5 0 0 1 5.3 2.2l10.878 10.878a7.5 7.5 0 0 1 0 10.6l-11.237 11.236a7.5 7.5 0 0 1-5.17 2.195l-19.255.328a7.5 7.5 0 0 1-7.63-7.5z" data-name="路径 13" style="fill:#fff;fill-opacity:1;stroke:#fff;stroke-opacity:1" transform="translate(-36.946 -364.61)"/><path d="M6756.126-2043.885h-22.444a7.5 7.5 0 0 1-7.5-7.495v-19.613a7.5 7.5 0 0 1 2.2-5.3l10.88-10.877a7.5 7.5 0 0 1 10.6 0l11.235 11.237a7.5 7.5 0 0 1 2.194 5.172l.328 19.254a7.5 7.5 0 0 1-7.494 7.622z" data-name="路径 14" style="fill:#fff;fill-opacity:1;stroke:#fff;stroke-opacity:1" transform="translate(-36.946 -364.61)"/></g><rect width="39.757" height="9.198" x="6905.015" y="-2332.97" rx="5.298" style="opacity:1;fill:#fff;fill-rule:evenodd;stroke:#fff;stroke-width:1.99533;stroke-linecap:round;stroke-miterlimit:7;paint-order:stroke markers fill"/><path d="M7139.695-2539.468c-12.874 0-23.344 10.47-23.344 23.344s10.47 23.342 23.344 23.342 23.342-10.467 23.342-23.342-10.468-23.343-23.342-23.343m-50.627 50.22c-12.874 0-23.344 10.469-23.344 23.343s10.47 23.344 23.344 23.344 23.342-10.47 23.342-23.344-10.468-23.344-23.342-23.344m102.887 0c-12.875 0-23.344 10.469-23.344 23.343s10.47 23.344 23.344 23.344 23.34-10.47 23.34-23.344-10.466-23.344-23.34-23.344m-50.22 52.601c-12.873 0-23.343 10.47-23.343 23.344s10.47 23.342 23.344 23.342 23.342-10.468 23.342-23.342-10.468-23.344-23.342-23.344" style="baseline-shift:baseline;display:inline;overflow:visible;vector-effect:none;fill:#fff;stop-color:#000"/><g fill="none"><g stroke="#747474" stroke-width="2" data-name="椭圆 2165" style="opacity:1;stroke:#fff;stroke-opacity:1" transform="translate(7012.684 -2394.597)"><circle cx="24.027" cy="24.027" r="24.027" stroke="none" style="stroke:#fff;stroke-opacity:1"/><circle cx="24.027" cy="24.027" r="23.027" style="stroke:#fff;stroke-opacity:1"/></g><circle cx="7037.129" cy="-2370.228" r="45.453" style="opacity:1;stroke:#fff;stroke-width:4;stroke-opacity:1"/><g transform="matrix(-1 0 0 1 13849.786 0)"><g stroke="#747474" stroke-width="2" data-name="椭圆 2165" style="opacity:1;stroke:#fff;stroke-opacity:1" transform="translate(7012.684 -2394.597)"><circle cx="24.027" cy="24.027" r="24.027" stroke="none" style="stroke:#fff;stroke-opacity:1"/><circle cx="24.027" cy="24.027" r="23.027" style="stroke:#fff;stroke-opacity:1"/></g><circle cx="7037.129" cy="-2370.228" r="45.453" style="opacity:1;stroke:#fff;stroke-width:4;stroke-opacity:1"/></g></g></g></svg>