<?xml version="1.0" encoding="UTF-8" standalone="no"?>
<svg
   xml:space="preserve"
   width="1000"
   height="500"
   version="1.1"
   id="svg12"
   sodipodi:docname="xbox-controller-light-mode.svg"
   inkscape:version="1.4.2 (ebf0e940d0, 2025-05-08)"
   xmlns:inkscape="http://www.inkscape.org/namespaces/inkscape"
   xmlns:sodipodi="http://sodipodi.sourceforge.net/DTD/sodipodi-0.dtd"
   xmlns="http://www.w3.org/2000/svg"
   xmlns:svg="http://www.w3.org/2000/svg"><defs
     id="defs12" /><sodipodi:namedview
     id="namedview12"
     pagecolor="#ffffff"
     bordercolor="#000000"
     borderopacity="0.25"
     inkscape:showpageshadow="2"
     inkscape:pageopacity="0.0"
     inkscape:pagecheckerboard="0"
     inkscape:deskcolor="#d1d1d1"
     inkscape:zoom="0.681"
     inkscape:cx="534.50808"
     inkscape:cy="220.99853"
     inkscape:window-width="1536"
     inkscape:window-height="888"
     inkscape:window-x="0"
     inkscape:window-y="0"
     inkscape:window-maximized="1"
     inkscape:current-layer="svg12" /><path
     d="M264.271 416.652c-.746-.021-1.498.149-2.078.518l-13.44 8.55-2.714-3.115c-.903-1.036-2.62-1.355-3.826-.695-56.991 31.181-78.113 77.304-88.381 107.627-34.25 101.15-64.352 319.824 47.775 320.508 23.079-32.255 75.551-92.041 75.551-92.041s1.794.04 14.072 6.584c71.54 38.126 153.333 38.09 224.805 0 12.278-6.544 14.072-6.584 14.072-6.584s52.473 59.786 75.551 92.04c112.128-.683 82.026-219.357 47.776-320.507-10.268-30.323-31.39-76.446-88.381-107.627-1.207-.66-2.923-.341-3.826.695l-2.715 3.116-13.44-8.551c-1.16-.738-3.004-.682-4.125.115-2.694 1.917-7.516 5.292-10.914 7.356-3.19 1.937-3.772 2.02-4.87.697-.687-.827-2.074-1.504-3.081-1.504-1.72 0-2.978.427-10.424 3.533-34.26 14.293-119.263 40.38-216.05 0-7.447-3.106-8.703-3.533-10.424-3.533-1.007 0-2.394.677-3.08 1.504-1.1 1.324-1.68 1.24-4.872-.697-3.398-2.064-8.219-5.439-10.914-7.356-.56-.398-1.3-.611-2.047-.633"
     style="display:inline;fill:#000;fill-opacity:1;stroke-width:7.29184;stroke-linecap:round;stroke-linejoin:round"
     transform="translate(94.074 -386.946)scale(1.00568)"
     id="path1" /><path
     d="M379.216 227.633c-30.362 0-55.026 24.663-55.026 55.024s24.663 55.025 55.024 55.025 55.027-24.663 55.027-55.025-24.664-55.024-55.025-55.024"
     style="fill:#dfdfe7;fill-opacity:1;fill-rule:evenodd;stroke:none;stroke-width:3.02025;stroke-miterlimit:7;paint-order:stroke markers fill"
     id="path2" /><g
     transform="rotate(-22.374 -833.768 -460.458)scale(.96001)"
     id="g5"><ellipse
       cx="333.176"
       cy="719.671"
       rx="17.198"
       ry="24.588"
       style="opacity:1;fill:#dfdfe7;fill-opacity:1;stroke-width:7.50496;stroke-linecap:round;stroke-linejoin:round"
       id="ellipse2" /><ellipse
       cx="313.494"
       cy="767.689"
       rx="17.198"
       ry="24.588"
       style="opacity:1;fill:#dfdfe7;fill-opacity:1;stroke-width:7.50496;stroke-linecap:round;stroke-linejoin:round"
       id="ellipse3" /><ellipse
       cx="280.502"
       cy="729.501"
       rx="17.198"
       ry="24.588"
       style="opacity:1;fill:#dfdfe7;fill-opacity:1;stroke-width:7.50496;stroke-linecap:round;stroke-linejoin:round"
       id="ellipse4" /><ellipse
       cx="300.877"
       cy="682.827"
       rx="17.198"
       ry="24.588"
       style="opacity:1;fill:#dfdfe7;fill-opacity:1;stroke-width:7.50496;stroke-linecap:round;stroke-linejoin:round"
       id="ellipse5" /></g><g
     transform="rotate(-22.374 -833.768 -460.458)scale(.96001)"
     id="g7"><ellipse
       cx="369.224"
       cy="686.375"
       rx="12.782"
       ry="18.274"
       style="opacity:1;fill:#dfdfe7;fill-opacity:1;stroke-width:5.57756;stroke-linecap:round;stroke-linejoin:round"
       id="ellipse6" /><ellipse
       cx="336.235"
       cy="647.989"
       rx="12.782"
       ry="18.274"
       style="opacity:1;fill:#dfdfe7;fill-opacity:1;stroke-width:5.57756;stroke-linecap:round;stroke-linejoin:round"
       id="ellipse7" /></g><g
     transform="rotate(-89.618 -120.945 -232.653)scale(.96001)"
     id="g9"><ellipse
       cx="-703.588"
       cy="443.802"
       rx="12.782"
       ry="18.274"
       style="opacity:1;fill:#dfdfe7;fill-opacity:1;stroke-width:5.57756;stroke-linecap:round;stroke-linejoin:round"
       id="ellipse8" /><ellipse
       cx="-704.061"
       cy="372.86"
       rx="12.782"
       ry="18.274"
       style="opacity:1;fill:#dfdfe7;fill-opacity:1;stroke-width:5.57756;stroke-linecap:round;stroke-linejoin:round"
       id="ellipse9" /></g><g
     style="fill:#dfdfe7;fill-opacity:1"
     id="g10"><path
       d="M 704.621,563 C 680,563 660,583 660,607.621 c 0,24.621 20,44.621 44.62,44.621 24.622,0 44.622,-20 44.622,-44.62 0,-24.622 -20,-44.622 -44.621,-44.622"
       style="baseline-shift:baseline;display:inline;overflow:visible;vector-effect:none;fill:#dfdfe7;fill-opacity:1;stop-color:#000000"
       transform="matrix(0.98983,0,0,0.98983,-71.612,-318.78)"
       id="path10"
       sodipodi:nodetypes="csssc" /></g><g
     style="fill:#dfdfe7;fill-opacity:1"
     id="g12"><path
       d="M 704.621,563 C 680,563 660,583 660,607.621 c 0,24.621 20,44.621 44.62,44.621 24.622,0 44.622,-20 44.622,-44.62 0,-24.622 -20,-44.622 -44.621,-44.622"
       style="baseline-shift:baseline;display:inline;overflow:visible;vector-effect:none;fill:#dfdfe7;fill-opacity:1;stop-color:#000000"
       transform="matrix(0.98983,0,0,0.98983,-356.466,-434.286)"
       id="path12"
       sodipodi:nodetypes="csssc" /></g></svg>
