<svg xmlns="http://www.w3.org/2000/svg" xmlns:xlink="http://www.w3.org/1999/xlink" xml:space="preserve" width="330" height="260" viewBox="0 0 87.313 68.792"><defs><linearGradient id="a"><stop offset="0" style="stop-color:#59f051;stop-opacity:1"/><stop offset=".5" style="stop-color:#4ce53b;stop-opacity:1"/><stop offset="1" style="stop-color:#30ce0d;stop-opacity:1"/></linearGradient><linearGradient xlink:href="#a" id="b" x1="45.139" x2="45.139" y1="9.592" y2="65.215" gradientUnits="userSpaceOnUse"/></defs><path d="M195.234 25.016c-4.754-.169-8.77 2.48-11.86 5.273-1.838 1.66-5.412 5.334-11.089 11.174a4601 4601 0 0 0-21.068 21.851c-16.029 16.719-34.597 36.25-47.166 49.688-14.487 15.488-48.457 52.572-53.022 57.902-2.282 2.666-3.73 4.49-4.836 6.323-1.106 1.832-1.879 4.26-1.879 6.134 0 3.777 1.229 4.76 2.276 6.403s2.356 3.355 3.963 5.297c3.213 3.882 7.601 8.606 12.865 13.918 10.527 10.623 24.51 23.526 38.783 35.513 3.034 2.548 5.645 4.564 7.936 6.078 2.29 1.514 3.32 3.018 7.761 3.08 3.388.048 5.641-1.451 7.674-3.005 2.033-1.555 4.09-3.55 6.742-6.313 25.474-26.532 77.397-82.568 97.28-104.088 9.941-10.76 18.37-20.012 24.5-26.908 3.065-3.448 5.552-6.302 7.398-8.502s2.687-2.825 3.987-5.338c.79-1.53 1.749-4.322 1.417-6.904-.33-2.583-1.194-4.226-2.265-6.512-8.85-18.888-34.304-43.597-56.113-56.025-4.95-2.821-8.53-4.871-13.284-5.04" style="fill:#fff;stroke-width:2;stroke-linecap:round;stroke-linejoin:round" transform="translate(5.46 4.301)scale(.2315)"/><path d="M48.893 1.064a13.5 13.5 0 0 0-1.605 1.178c-1.196 1.034-5.053 4.807-8.575 8.384-8.795 8.992-17.245 18.32-25.774 27.569-2.525 2.731-2.52 2.733-2.087 15.918.238 7.276.161 12.492 1.226 13.495 1.066 1.002 6.268.608 13.545.404 13.187-.37 13.189-.365 15.762-3.052 8.712-9.075 17.51-18.077 25.95-27.402 3.356-3.733 6.888-7.812 7.848-9.07.397-.52.77-1.11 1.078-1.672 2.355-4.309-5.887-14.025-9.45-17.377S53.052-1.548 48.894 1.064m18.943 21.07c1.68 2.807 1.68 2.81-.271 5.137-7.068 7.882-24.115 26.102-28.293 30.165-.608.592-1.6.682-2.199.201-6.998-5.622-11.184-9.666-16.562-15.584-.516-.568-.486-1.564.068-2.207 3.8-4.417 20.95-22.54 28.388-30.074 2.205-2.089 2.207-2.09 5.111-.583 4.772 2.476 10.999 8.337 13.758 12.945m-50.63 26.242c.072-.01 3.41 3.224 6.805 6.55 3.526 3.186 6.958 6.322 6.952 6.395v.008l-.004.004-.003.003c-4.047 1.002-7.308-.661-9.984-3.18-2.677-2.517-4.535-5.672-3.781-9.773l.003-.003.004-.004z" style="display:inline;fill:url(#b);stroke-width:2.64023" transform="translate(5.46 4.301)scale(.87496)"/></svg>