<?xml version="1.0" encoding="UTF-8" standalone="no"?>
<svg
   xml:space="preserve"
   width="330"
   height="260"
   viewBox="0 0 87.313 68.792"
   version="1.1"
   id="svg5"
   xmlns:xlink="http://www.w3.org/1999/xlink"
   xmlns="http://www.w3.org/2000/svg"
   xmlns:svg="http://www.w3.org/2000/svg"><defs
     id="defs4"><linearGradient
       id="a"><stop
         offset="0"
         style="stop-color:#72faa8;stop-opacity:.97647059"
         id="stop1" /><stop
         offset=".509"
         style="stop-color:#3dd6d6;stop-opacity:1"
         id="stop2" /><stop
         offset="1"
         style="stop-color:#11b7fc;stop-opacity:1"
         id="stop3" /></linearGradient><linearGradient
       xlink:href="#a"
       id="c"
       x1="43.655998"
       x2="43.655998"
       y1="-8.5620003"
       y2="68.792"
       gradientTransform="matrix(0.78835,0,0,1.00004,-80.736,15.565)"
       gradientUnits="userSpaceOnUse" /></defs><g
     transform="matrix(0.87496,0,0,0.87495,84.185,-10.193)"
     id="g5"><path
       d="m -46.322,23.142 c -12.065,-0.015 -24.56,1.354 -27.63,18.206 a 52,52 0 0 0 -0.73,8.614 c 0,2.874 0.247,5.722 0.73,8.613 3.07,16.853 15.565,18.222 27.63,18.207 12.065,0.015 24.563,-1.355 27.634,-18.207 0.49,-2.94 0.73,-5.788 0.73,-8.613 0,-2.825 -0.24,-5.674 -0.73,-8.614 -3.071,-16.851 -15.569,-18.221 -27.634,-18.206"
       style="fill:#ffffff;stroke-width:0.374157;stroke-linecap:round"
       id="path4" /><path
       d="m -56.464,16.451 c -10.808,0.92 -20.316,5.783 -22.775,21.694 -0.374,2.21 -0.887,6.284 -0.923,11.334 h -0.022 l -0.003,0.483 0.003,0.483 h 0.022 c 0.036,5.05 0.549,9.124 0.923,11.334 2.46,15.91 11.967,20.775 22.775,21.694 5.59,0.475 14.693,0.475 20.282,0 10.808,-0.92 20.321,-5.785 22.78,-21.694 0.376,-2.22 0.914,-6.256 0.947,-11.334 a 100,100 0 0 0 0,-0.966 c -0.033,-5.079 -0.571,-9.114 -0.946,-11.334 -2.46,-15.91 -11.973,-20.775 -22.781,-21.694 -5.589,-0.475 -14.693,-0.475 -20.282,0 m 10.143,6.69 c 12.064,-0.014 24.562,1.356 27.633,18.207 0.491,2.94 0.73,5.79 0.73,8.614 0,2.824 -0.239,5.674 -0.73,8.613 -0.74,4.062 -2.028,7.224 -3.725,9.685 -0.217,-8.944 -0.046,-18.3 -4.686,-26.379 l -0.006,-0.006 -0.005,-0.009 c -2.519,-4.1 -6.427,-6.041 -10.385,-6.13 -6.594,-0.149 -13.394,4.767 -14.7,12.937 a 1.4,1.4 0 0 1 -0.044,0.173 l -0.03,-0.007 c -0.308,-0.061 -1.093,-0.41 -2.246,-0.831 -1.721,-0.63 -4.102,-0.506 -5.51,-0.235 h -0.02 l -0.014,0.005 c -3.42,0.858 -5.818,2.797 -7.443,5.2 -1.625,2.403 -2.495,5.25 -2.998,7.998 -0.377,2.061 -0.545,4.075 -0.649,5.806 -1.245,-2.215 -2.204,-4.916 -2.803,-8.207 a 52,52 0 0 1 -0.731,-8.613 c 0,-2.874 0.248,-5.722 0.731,-8.614 3.07,-16.852 15.565,-18.221 27.63,-18.206 m 8.209,18.97 c 3.86,-0.104 6.166,1.971 7.675,5.402 1.51,3.432 2.076,8.207 2.102,13.125 0.03,4.432 0.066,10.168 0.096,12.9 -5.17,2.871 -11.687,3.252 -18.082,3.244 -7.007,0.009 -14.159,-0.45 -19.526,-4.136 0.029,-5.293 0.29,-12.659 2.451,-16.655 1.198,-1.936 3.008,-2.874 4.82,-2.873 1.82,0 3.641,0.94 4.837,2.888 0.685,1.114 1.149,2.579 1.59,3.82 0.22,0.62 0.43,1.187 0.708,1.655 0.278,0.468 0.683,0.919 1.28,0.963 0.351,0.025 0.715,-0.133 0.95,-0.37 0.237,-0.237 0.385,-0.524 0.505,-0.842 0.237,-0.636 0.37,-1.438 0.498,-2.388 0.253,-1.904 0.446,-4.394 0.942,-6.876 0.494,-2.482 1.294,-4.932 2.697,-6.744 1.404,-1.813 3.374,-3.028 6.457,-3.112"
       style="baseline-shift:baseline;display:inline;overflow:visible;vector-effect:none;fill:url(#c);fill-opacity:1;stroke-width:2.47672;enable-background:accumulate;stop-color:#000000"
       id="path5" /></g></svg>
