<svg xmlns="http://www.w3.org/2000/svg" xml:space="preserve" width="1000" height="500"><path d="M284.876 32.088c-15.748.245-28.537 3.601-41.183 12.053v4.261a30.7 30.7 0 0 0-6.625 5.854c-12.247 14.289-47.273 74.292-66.125 179.623-19.748 110.336-27.253 163.084-7.377 195.875 32.972 47.877 79.598 37.144 79.598 37.144 16.92-3.757 43.888-15.017 53.16-49.38 0 0 22.67-92.43 33.854-99.141 12.248-7.35 11.656-8.85 15.433-8.033s18.78 13.064 36.95 13.574c18.168.51 32.457-2.245 40.011-7.043s12.35-11.127 14.086-11.229c.809-.047 125.712-.057 126.68 0 1.736.102 6.532 6.431 14.086 11.229s21.842 7.553 40.011 7.043 33.173-12.757 36.95-13.574c3.777-.816 3.185.683 15.433 8.033 11.183 6.711 33.854 99.14 33.854 99.14 9.272 34.364 36.24 45.624 53.16 49.381 0 0 46.626 10.733 79.598-37.144 19.876-32.79 12.37-85.54-7.377-195.875-18.852-105.331-53.878-165.334-66.125-179.623a30.7 30.7 0 0 0-6.625-5.854v-4.261c-12.646-8.452-25.435-11.808-41.184-12.053h-.002c-9.966-.156-29.159.544-44.295 7.125V50.72c-35.14 11.613-58.738 0-58.738 0l-.049.111a17.87 17.87 0 0 0-15.488-9.047H403.449a17.87 17.87 0 0 0-15.488 9.047l-.049-.111s-23.597 11.613-58.738 0V39.213c-15.136-6.581-34.329-7.28-44.295-7.125z" style="fill:#dfdfe7;fill-opacity:1"/><g fill="none" stroke="#747474" stroke-width="2" style="fill:#000;stroke:#000"><path d="M266.95 96.607h22.444a7.5 7.5 0 0 1 7.5 7.5v19.613a7.5 7.5 0 0 1-2.2 5.3l-10.877 10.872a7.5 7.5 0 0 1-10.6 0l-11.237-11.235a7.5 7.5 0 0 1-2.194-5.172l-.328-19.254a7.5 7.5 0 0 1 7.493-7.624z" data-name="路径 11" style="fill:#000;fill-opacity:1;stroke:#000;stroke-opacity:1"/><path d="M333.576 141.664v22.443a7.5 7.5 0 0 1-7.5 7.5h-19.61a7.5 7.5 0 0 1-5.3-2.2L290.29 158.53a7.5 7.5 0 0 1 0-10.6l11.237-11.237a7.5 7.5 0 0 1 5.17-2.194l19.26-.329a7.5 7.5 0 0 1 7.62 7.494z" data-name="路径 12" style="fill:#000;fill-opacity:1;stroke:#000;stroke-opacity:1"/><path d="M222.566 164.107v-22.442a7.5 7.5 0 0 1 7.5-7.495h19.613a7.5 7.5 0 0 1 5.3 2.2l10.878 10.878a7.5 7.5 0 0 1 0 10.6l-11.237 11.236a7.5 7.5 0 0 1-5.171 2.195l-19.254.328a7.5 7.5 0 0 1-7.63-7.5z" data-name="路径 13" style="fill:#000;fill-opacity:1;stroke:#000;stroke-opacity:1"/><path d="M289.394 209.046H266.95a7.5 7.5 0 0 1-7.5-7.495v-19.613a7.5 7.5 0 0 1 2.2-5.3l10.879-10.877a7.5 7.5 0 0 1 10.6 0l11.236 11.237a7.5 7.5 0 0 1 2.194 5.172l.328 19.254a7.5 7.5 0 0 1-7.494 7.622z" data-name="路径 14" style="fill:#000;fill-opacity:1;stroke:#000;stroke-opacity:1"/></g><path d="M721.025 77.958c-12.874 0-23.344 10.47-23.344 23.344s10.47 23.342 23.344 23.342 23.342-10.467 23.342-23.342-10.468-23.343-23.342-23.343m-50.627 50.22c-12.874 0-23.344 10.469-23.344 23.343s10.47 23.344 23.344 23.344 23.342-10.47 23.342-23.344-10.468-23.344-23.342-23.344m102.887 0c-12.875 0-23.344 10.469-23.344 23.343s10.47 23.344 23.344 23.344 23.34-10.47 23.34-23.344-10.466-23.344-23.34-23.344m-50.22 52.601c-12.873 0-23.343 10.47-23.343 23.344s10.47 23.342 23.344 23.342 23.342-10.468 23.342-23.342-10.468-23.344-23.342-23.344" style="baseline-shift:baseline;display:inline;overflow:visible;vector-effect:none;fill:#000;stop-color:#000"/><circle cx="499.996" cy="253.374" r="14.551" fill="none" stroke="#747474" stroke-width="1.455" data-name="椭圆 2218" style="fill:#000;fill-opacity:1;stroke:#000;stroke-opacity:1"/><g fill="none" stroke="#747474" stroke-width="2" style="fill:#000;stroke:#000"><rect width="23.408" height="39.467" x="635.363" y="63.128" data-name="矩形 23" rx="11.704" style="fill:#000;fill-opacity:1;stroke:#000;stroke-opacity:1"/><rect width="23.408" height="39.467" x="349.107" y="65.831" data-name="矩形 742" rx="11.704" style="fill:#000;fill-opacity:1;stroke:#000;stroke-opacity:1"/></g><path fill="none" stroke="#747474" stroke-width="3" d="M403.449 41.785h193.894a17.867 17.867 0 0 1 17.822 17.91v91.155a17.867 17.867 0 0 1-17.822 17.91H403.449a17.867 17.867 0 0 1-17.822-17.91V59.696a17.867 17.867 0 0 1 17.822-17.911z" data-name="路径 3398" style="stroke:#000;stroke-opacity:1"/><g style="fill:#000" transform="translate(79.212 33.525)scale(.83682)"><circle cx="465.022" cy="195.876" r="4.786" style="font-variation-settings:normal;opacity:1;vector-effect:none;fill:#000;fill-opacity:1;fill-rule:evenodd;stroke-width:26.4567;stroke-linecap:butt;stroke-linejoin:miter;stroke-miterlimit:4;stroke-dasharray:none;stroke-dashoffset:0;stroke-opacity:1;-inkscape-stroke:none;stop-color:#000;stop-opacity:1"/><circle cx="474.595" cy="205.449" r="4.786" style="font-variation-settings:normal;opacity:1;vector-effect:none;fill:#000;fill-opacity:1;fill-rule:evenodd;stroke-width:26.4567;stroke-linecap:butt;stroke-linejoin:miter;stroke-miterlimit:4;stroke-dasharray:none;stroke-dashoffset:0;stroke-opacity:1;-inkscape-stroke:none;stop-color:#000;stop-opacity:1"/><circle cx="484.168" cy="195.876" r="4.786" style="font-variation-settings:normal;opacity:1;vector-effect:none;fill:#000;fill-opacity:1;fill-rule:evenodd;stroke-width:26.4567;stroke-linecap:butt;stroke-linejoin:miter;stroke-miterlimit:4;stroke-dasharray:none;stroke-dashoffset:0;stroke-opacity:1;-inkscape-stroke:none;stop-color:#000;stop-opacity:1"/><circle cx="493.741" cy="205.449" r="4.786" style="font-variation-settings:normal;opacity:1;vector-effect:none;fill:#000;fill-opacity:1;fill-rule:evenodd;stroke-width:26.4567;stroke-linecap:butt;stroke-linejoin:miter;stroke-miterlimit:4;stroke-dasharray:none;stroke-dashoffset:0;stroke-opacity:1;-inkscape-stroke:none;stop-color:#000;stop-opacity:1"/><circle cx="503.314" cy="195.876" r="4.786" style="font-variation-settings:normal;opacity:1;vector-effect:none;fill:#000;fill-opacity:1;fill-rule:evenodd;stroke-width:26.4567;stroke-linecap:butt;stroke-linejoin:miter;stroke-miterlimit:4;stroke-dasharray:none;stroke-dashoffset:0;stroke-opacity:1;-inkscape-stroke:none;stop-color:#000;stop-opacity:1"/><circle cx="512.887" cy="205.449" r="4.786" style="font-variation-settings:normal;opacity:1;vector-effect:none;fill:#000;fill-opacity:1;fill-rule:evenodd;stroke-width:26.4567;stroke-linecap:butt;stroke-linejoin:miter;stroke-miterlimit:4;stroke-dasharray:none;stroke-dashoffset:0;stroke-opacity:1;-inkscape-stroke:none;stop-color:#000;stop-opacity:1"/><circle cx="522.459" cy="195.876" r="4.786" style="font-variation-settings:normal;opacity:1;vector-effect:none;fill:#000;fill-opacity:1;fill-rule:evenodd;stroke-width:26.4567;stroke-linecap:butt;stroke-linejoin:miter;stroke-miterlimit:4;stroke-dasharray:none;stroke-dashoffset:0;stroke-opacity:1;-inkscape-stroke:none;stop-color:#000;stop-opacity:1"/><circle cx="532.032" cy="205.449" r="4.786" style="font-variation-settings:normal;opacity:1;vector-effect:none;fill:#000;fill-opacity:1;fill-rule:evenodd;stroke-width:26.4567;stroke-linecap:butt;stroke-linejoin:miter;stroke-miterlimit:4;stroke-dasharray:none;stroke-dashoffset:0;stroke-opacity:1;-inkscape-stroke:none;stop-color:#000;stop-opacity:1"/><circle cx="541.605" cy="195.876" r="4.786" style="font-variation-settings:normal;opacity:1;vector-effect:none;fill:#000;fill-opacity:1;fill-rule:evenodd;stroke-width:26.4567;stroke-linecap:butt;stroke-linejoin:miter;stroke-miterlimit:4;stroke-dasharray:none;stroke-dashoffset:0;stroke-opacity:1;-inkscape-stroke:none;stop-color:#000;stop-opacity:1"/><circle cx="484.168" cy="215.022" r="4.786" style="font-variation-settings:normal;opacity:1;vector-effect:none;fill:#000;fill-opacity:1;fill-rule:evenodd;stroke-width:26.4567;stroke-linecap:butt;stroke-linejoin:miter;stroke-miterlimit:4;stroke-dasharray:none;stroke-dashoffset:0;stroke-opacity:1;-inkscape-stroke:none;stop-color:#000;stop-opacity:1"/><circle cx="503.314" cy="215.022" r="4.786" style="font-variation-settings:normal;opacity:1;vector-effect:none;fill:#000;fill-opacity:1;fill-rule:evenodd;stroke-width:26.4567;stroke-linecap:butt;stroke-linejoin:miter;stroke-miterlimit:4;stroke-dasharray:none;stroke-dashoffset:0;stroke-opacity:1;-inkscape-stroke:none;stop-color:#000;stop-opacity:1"/><circle cx="522.459" cy="215.022" r="4.786" style="font-variation-settings:normal;opacity:1;vector-effect:none;fill:#000;fill-opacity:1;fill-rule:evenodd;stroke-width:26.4567;stroke-linecap:butt;stroke-linejoin:miter;stroke-miterlimit:4;stroke-dasharray:none;stroke-dashoffset:0;stroke-opacity:1;-inkscape-stroke:none;stop-color:#000;stop-opacity:1"/></g><g style="fill:#000;fill-opacity:1"><path d="M548.62 429.088c-12.985 0-23.532 10.547-23.532 23.533s10.547 23.533 23.533 23.533 23.533-10.547 23.533-23.533-10.547-23.533-23.533-23.533m.393 3.142c11.45 0 20.712 9.26 20.712 20.71s-9.262 20.714-20.712 20.714-20.713-9.262-20.713-20.713c0-11.45 9.262-20.71 20.713-20.71" style="baseline-shift:baseline;display:inline;overflow:visible;vector-effect:none;fill:#000;fill-opacity:1;stop-color:#000" transform="translate(-.36 -256.52)scale(1.11521)"/><path d="M548.621 408C524.001 408 504 428 504 452.621s20 44.621 44.621 44.621 44.621-20 44.621-44.62c0-24.622-20-44.622-44.62-44.622m0 3.762c22.588 0 40.86 18.27 40.86 40.86 0 22.587-18.272 40.858-40.86 40.858s-40.86-18.27-40.86-40.859c0-22.588 18.272-40.86 40.86-40.86" style="baseline-shift:baseline;display:inline;overflow:visible;opacity:1;vector-effect:none;fill:#000;fill-opacity:1;stop-color:#000;stop-opacity:1" transform="translate(-.36 -256.52)scale(1.11521)"/></g><g style="fill:#000;fill-opacity:1"><path d="M548.62 429.088c-12.985 0-23.532 10.547-23.532 23.533s10.547 23.533 23.533 23.533 23.533-10.547 23.533-23.533-10.547-23.533-23.533-23.533m.393 3.142c11.45 0 20.712 9.26 20.712 20.71s-9.262 20.714-20.712 20.714-20.713-9.262-20.713-20.713c0-11.45 9.262-20.71 20.713-20.71" style="baseline-shift:baseline;display:inline;overflow:visible;vector-effect:none;fill:#000;fill-opacity:1;stop-color:#000" transform="matrix(-1.11521 0 0 1.11521 1000.355 -256.52)"/><path d="M548.621 408C524.001 408 504 428 504 452.621s20 44.621 44.621 44.621 44.621-20 44.621-44.62c0-24.622-20-44.622-44.62-44.622m0 3.762c22.588 0 40.86 18.27 40.86 40.86 0 22.587-18.272 40.858-40.86 40.858s-40.86-18.27-40.86-40.859c0-22.588 18.272-40.86 40.86-40.86" style="baseline-shift:baseline;display:inline;overflow:visible;opacity:1;vector-effect:none;fill:#000;fill-opacity:1;stop-color:#000;stop-opacity:1" transform="matrix(-1.11521 0 0 1.11521 1000.355 -256.52)"/></g></svg>