<svg xmlns="http://www.w3.org/2000/svg" xml:space="preserve" width="1000" height="500"><path d="M715.12 32.088c15.748.245 28.537 3.601 41.183 12.053v4.261a30.7 30.7 0 0 1 6.625 5.854c12.247 14.289 47.273 74.292 66.125 179.623 19.748 110.336 27.253 163.084 7.377 195.875-32.972 47.877-79.598 37.144-79.598 37.144-16.92-3.757-43.888-15.017-53.16-49.38 0 0-22.67-92.43-33.854-99.141-12.248-7.35-11.656-8.85-15.433-8.033s-18.78 13.064-36.95 13.574c-18.168.51-32.457-2.245-40.011-7.043s-12.35-11.127-14.086-11.229c-.809-.047-125.712-.057-126.68 0-1.736.102-6.532 6.431-14.086 11.229s-21.842 7.553-40.011 7.043-33.173-12.757-36.95-13.574c-3.777-.816-3.185.683-15.433 8.033-11.183 6.711-33.854 99.14-33.854 99.14-9.272 34.364-36.24 45.624-53.16 49.381 0 0-46.626 10.733-79.598-37.144-19.876-32.79-12.37-85.54 7.377-195.875 18.852-105.331 53.878-165.334 66.125-179.623a30.7 30.7 0 0 1 6.625-5.854v-4.261c12.646-8.452 25.435-11.808 41.184-12.053h.002c9.966-.156 29.159.544 44.295 7.125V50.72c35.14 11.613 58.738 0 58.738 0l.049.111a17.87 17.87 0 0 1 15.488-9.047h193.098a17.87 17.87 0 0 1 15.488 9.047l.049-.111s23.597 11.613 58.738 0V39.213c15.136-6.581 34.329-7.28 44.295-7.125z" style="fill:#000" transform="matrix(-1 0 0 1 999.996 0)"/><path d="M721.025 77.958c-12.874 0-23.344 10.47-23.344 23.344s10.47 23.342 23.344 23.342 23.342-10.467 23.342-23.342-10.468-23.343-23.342-23.343m-50.627 50.22c-12.874 0-23.344 10.469-23.344 23.343s10.47 23.344 23.344 23.344 23.342-10.47 23.342-23.344-10.468-23.344-23.342-23.344m102.887 0c-12.875 0-23.344 10.469-23.344 23.343s10.47 23.344 23.344 23.344 23.34-10.47 23.34-23.344-10.466-23.344-23.34-23.344m-50.22 52.601c-12.873 0-23.343 10.47-23.343 23.344s10.47 23.342 23.344 23.342 23.342-10.468 23.342-23.342-10.468-23.344-23.342-23.344" style="baseline-shift:baseline;display:inline;overflow:visible;vector-effect:none;fill:#dfdfe7;stop-color:#000;fill-opacity:1"/><path fill="none" stroke="#747474" stroke-width="2" d="M266.95 96.607h22.444a7.5 7.5 0 0 1 7.5 7.5v19.613a7.5 7.5 0 0 1-2.2 5.3l-10.877 10.872a7.5 7.5 0 0 1-10.6 0l-11.237-11.235a7.5 7.5 0 0 1-2.194-5.172l-.328-19.254a7.5 7.5 0 0 1 7.493-7.624z" data-name="路径 11" style="fill:#dfdfe7;fill-opacity:1;stroke:#dfdfe7;stroke-opacity:1"/><path fill="none" stroke="#747474" stroke-width="2" d="M333.576 141.664v22.443a7.5 7.5 0 0 1-7.5 7.5h-19.61a7.5 7.5 0 0 1-5.3-2.2L290.29 158.53a7.5 7.5 0 0 1 0-10.6l11.237-11.237a7.5 7.5 0 0 1 5.17-2.194l19.26-.329a7.5 7.5 0 0 1 7.62 7.494z" data-name="路径 12" style="fill:#dfdfe7;fill-opacity:1;stroke:#dfdfe7;stroke-opacity:1"/><path fill="none" stroke="#747474" stroke-width="2" d="M222.566 164.107v-22.442a7.5 7.5 0 0 1 7.5-7.495h19.613a7.5 7.5 0 0 1 5.3 2.2l10.878 10.878a7.5 7.5 0 0 1 0 10.6l-11.237 11.236a7.5 7.5 0 0 1-5.171 2.195l-19.254.328a7.5 7.5 0 0 1-7.63-7.5z" data-name="路径 13" style="fill:#dfdfe7;fill-opacity:1;stroke:#dfdfe7;stroke-opacity:1"/><path fill="none" stroke="#747474" stroke-width="2" d="M289.394 209.046H266.95a7.5 7.5 0 0 1-7.5-7.495v-19.613a7.5 7.5 0 0 1 2.2-5.3l10.879-10.877a7.5 7.5 0 0 1 10.6 0l11.236 11.237a7.5 7.5 0 0 1 2.194 5.172l.328 19.254a7.5 7.5 0 0 1-7.494 7.622z" data-name="路径 14" style="fill:#dfdfe7;fill-opacity:1;stroke:#dfdfe7;stroke-opacity:1"/><rect width="23.408" height="39.467" x="635.363" y="63.128" fill="none" stroke="#747474" stroke-width="2" data-name="矩形 23" rx="11.704" style="fill:#dfdfe7;fill-opacity:1;stroke:#dfdfe7;stroke-opacity:1"/><circle cx="499.996" cy="253.374" r="14.551" fill="none" stroke="#747474" stroke-width="1.455" data-name="椭圆 2218" style="fill:#dfdfe7;fill-opacity:1;stroke:#dfdfe7;stroke-opacity:1"/><rect width="23.408" height="39.467" x="349.107" y="65.831" fill="none" stroke="#747474" stroke-width="2" data-name="矩形 742" rx="11.704" style="fill:#dfdfe7;fill-opacity:1;stroke:#dfdfe7;stroke-opacity:1"/><path d="M389.094 219.28c-15.811 0-28.65 12.839-28.65 28.65s12.839 28.65 28.65 28.65 28.648-12.84 28.648-28.65c0-15.811-12.837-28.65-28.648-28.65m0 2c14.73 0 26.648 11.92 26.648 26.65s-11.918 26.65-26.648 26.65-26.65-11.92-26.65-26.65 11.92-26.65 26.65-26.65" style="baseline-shift:baseline;display:inline;overflow:visible;vector-effect:none;fill:#dfdfe7;stop-color:#000;stop-opacity:1;opacity:1;fill-opacity:1"/><path d="M387.586 198.486c-27.46 0-49.762 22.303-49.762 49.762s22.303 49.762 49.762 49.762 49.762-22.303 49.762-49.762-22.303-49.762-49.762-49.762m0 6c24.192 0 43.762 19.57 43.762 43.762s-19.57 43.762-43.762 43.762-43.762-19.57-43.762-43.762 19.569-43.762 43.762-43.762" style="baseline-shift:baseline;display:inline;overflow:visible;vector-effect:none;fill:#dfdfe7;stroke:none;stroke-width:4;stroke-opacity:1;stop-color:#000;fill-opacity:1"/><path d="M612.15 219.28c-15.81 0-28.648 12.839-28.648 28.65s12.837 28.65 28.648 28.65 28.65-12.84 28.65-28.65c0-15.811-12.838-28.65-28.65-28.65m0 2c14.73 0 26.65 11.92 26.65 26.65s-11.92 26.65-26.65 26.65-26.648-11.92-26.648-26.65 11.918-26.65 26.648-26.65" style="baseline-shift:baseline;display:inline;overflow:visible;vector-effect:none;fill:#dfdfe7;stop-color:#000;stop-opacity:1;opacity:1;fill-opacity:1"/><path d="M611.47 198.486c-27.46 0-49.763 22.303-49.763 49.762s22.305 49.762 49.764 49.762 49.76-22.303 49.76-49.762-22.301-49.762-49.76-49.762m0 6c24.193 0 43.76 19.57 43.76 43.762s-19.567 43.762-43.76 43.762c-24.191 0-43.763-19.57-43.763-43.762s19.57-43.762 43.764-43.762" style="baseline-shift:baseline;display:inline;overflow:visible;vector-effect:none;fill:#dfdfe7;stroke:none;stroke-width:4;stroke-opacity:1;stop-color:#000;fill-opacity:1"/><path fill="none" stroke="#747474" stroke-width="3" d="M403.449 41.785h193.894a17.867 17.867 0 0 1 17.822 17.91v91.155a17.867 17.867 0 0 1-17.822 17.91H403.449a17.867 17.867 0 0 1-17.822-17.91V59.696a17.867 17.867 0 0 1 17.822-17.911z" data-name="路径 3398" style="stroke:#dfdfe7;stroke-opacity:1"/><circle cx="468.352" cy="197.438" r="4.005" style="font-variation-settings:normal;vector-effect:none;fill:#dfdfe7;fill-opacity:1;fill-rule:evenodd;stroke-width:22.1395;stroke-linecap:butt;stroke-linejoin:miter;stroke-miterlimit:4;stroke-dasharray:none;stroke-dashoffset:0;stroke-opacity:1;-inkscape-stroke:none;stop-color:#000"/><circle cx="476.363" cy="205.449" r="4.005" style="font-variation-settings:normal;vector-effect:none;fill:#dfdfe7;fill-opacity:1;fill-rule:evenodd;stroke-width:22.1395;stroke-linecap:butt;stroke-linejoin:miter;stroke-miterlimit:4;stroke-dasharray:none;stroke-dashoffset:0;stroke-opacity:1;-inkscape-stroke:none;stop-color:#000"/><circle cx="484.373" cy="197.438" r="4.005" style="font-variation-settings:normal;vector-effect:none;fill:#dfdfe7;fill-opacity:1;fill-rule:evenodd;stroke-width:22.1395;stroke-linecap:butt;stroke-linejoin:miter;stroke-miterlimit:4;stroke-dasharray:none;stroke-dashoffset:0;stroke-opacity:1;-inkscape-stroke:none;stop-color:#000"/><circle cx="492.384" cy="205.449" r="4.005" style="font-variation-settings:normal;vector-effect:none;fill:#dfdfe7;fill-opacity:1;fill-rule:evenodd;stroke-width:22.1395;stroke-linecap:butt;stroke-linejoin:miter;stroke-miterlimit:4;stroke-dasharray:none;stroke-dashoffset:0;stroke-opacity:1;-inkscape-stroke:none;stop-color:#000"/><circle cx="500.395" cy="197.438" r="4.005" style="font-variation-settings:normal;vector-effect:none;fill:#dfdfe7;fill-opacity:1;fill-rule:evenodd;stroke-width:22.1395;stroke-linecap:butt;stroke-linejoin:miter;stroke-miterlimit:4;stroke-dasharray:none;stroke-dashoffset:0;stroke-opacity:1;-inkscape-stroke:none;stop-color:#000"/><circle cx="508.406" cy="205.449" r="4.005" style="font-variation-settings:normal;vector-effect:none;fill:#dfdfe7;fill-opacity:1;fill-rule:evenodd;stroke-width:22.1395;stroke-linecap:butt;stroke-linejoin:miter;stroke-miterlimit:4;stroke-dasharray:none;stroke-dashoffset:0;stroke-opacity:1;-inkscape-stroke:none;stop-color:#000"/><circle cx="516.416" cy="197.438" r="4.005" style="font-variation-settings:normal;vector-effect:none;fill:#dfdfe7;fill-opacity:1;fill-rule:evenodd;stroke-width:22.1395;stroke-linecap:butt;stroke-linejoin:miter;stroke-miterlimit:4;stroke-dasharray:none;stroke-dashoffset:0;stroke-opacity:1;-inkscape-stroke:none;stop-color:#000"/><circle cx="524.427" cy="205.449" r="4.005" style="font-variation-settings:normal;vector-effect:none;fill:#dfdfe7;fill-opacity:1;fill-rule:evenodd;stroke-width:22.1395;stroke-linecap:butt;stroke-linejoin:miter;stroke-miterlimit:4;stroke-dasharray:none;stroke-dashoffset:0;stroke-opacity:1;-inkscape-stroke:none;stop-color:#000"/><circle cx="532.438" cy="197.438" r="4.005" style="font-variation-settings:normal;vector-effect:none;fill:#dfdfe7;fill-opacity:1;fill-rule:evenodd;stroke-width:22.1395;stroke-linecap:butt;stroke-linejoin:miter;stroke-miterlimit:4;stroke-dasharray:none;stroke-dashoffset:0;stroke-opacity:1;-inkscape-stroke:none;stop-color:#000"/><circle cx="484.373" cy="213.46" r="4.005" style="font-variation-settings:normal;vector-effect:none;fill:#dfdfe7;fill-opacity:1;fill-rule:evenodd;stroke-width:22.1395;stroke-linecap:butt;stroke-linejoin:miter;stroke-miterlimit:4;stroke-dasharray:none;stroke-dashoffset:0;stroke-opacity:1;-inkscape-stroke:none;stop-color:#000"/><circle cx="500.395" cy="213.46" r="4.005" style="font-variation-settings:normal;vector-effect:none;fill:#dfdfe7;fill-opacity:1;fill-rule:evenodd;stroke-width:22.1395;stroke-linecap:butt;stroke-linejoin:miter;stroke-miterlimit:4;stroke-dasharray:none;stroke-dashoffset:0;stroke-opacity:1;-inkscape-stroke:none;stop-color:#000"/><circle cx="516.416" cy="213.46" r="4.005" style="font-variation-settings:normal;vector-effect:none;fill:#dfdfe7;fill-opacity:1;fill-rule:evenodd;stroke-width:22.1395;stroke-linecap:butt;stroke-linejoin:miter;stroke-miterlimit:4;stroke-dasharray:none;stroke-dashoffset:0;stroke-opacity:1;-inkscape-stroke:none;stop-color:#000"/></svg>