<svg xmlns="http://www.w3.org/2000/svg" xml:space="preserve" width="410" height="410" style="clip-rule:evenodd;fill-rule:evenodd;stroke-linejoin:round;stroke-miterlimit:2"><path d="M82.6 1C37.534 1 1 37.534 1 82.6v22.847h104.447V1Zm75.072 0v104.447h109.496c45.884 0 83.08 37.198 83.08 83.082 0 89.315-72.404 161.72-161.719 161.72-45.884 0-83.082-37.197-83.082-83.081V157.672H1V205c0 112.666 91.334 204 204 204s204-91.334 204-204S317.666 1 205 1Zm0 156.672v109.496c0 17.042 13.815 30.855 30.857 30.855 60.472 0 109.494-49.022 109.494-109.494 0-17.042-13.813-30.857-30.855-30.857z" style="fill:#fff;fill-rule:nonzero"/><path d="M157.672 51.592c0-14.421-11.691-26.112-26.112-26.112s-26.112 11.691-26.112 26.112v53.856H51.592c-14.421 0-26.112 11.691-26.112 26.112s11.691 26.112 26.112 26.112h53.856v53.856c0 14.421 11.691 26.112 26.112 26.112s26.112-11.691 26.112-26.112v-53.856h53.856c14.421 0 26.112-11.691 26.112-26.112s-11.691-26.112-26.112-26.112h-53.856z" style="fill:#fff;fill-opacity:.7;fill-rule:nonzero"/><path d="M213.82 127.23c3.333 1.924 3.333 6.736 0 8.66l-14.376 8.3c-3.334 1.925-7.5-.481-7.5-4.33v-16.6c0-3.849 4.166-6.255 7.5-4.33zm-77.93 86.59c-1.924 3.333-6.736 3.333-8.66 0l-8.3-14.376c-1.925-3.333.481-7.5 4.33-7.5h16.6c3.849 0 6.255 4.167 4.33 7.5zM127.23 49.3c1.924-3.333 6.736-3.333 8.66 0l8.3 14.376c1.925 3.333-.481 7.5-4.33 7.5h-16.6c-3.849 0-6.255-4.167-4.33-7.5zM49.3 135.89c-3.334-1.924-3.334-6.736 0-8.66l14.376-8.3c3.333-1.925 7.5.481 7.5 4.33v16.6c0 3.849-4.167 6.255-7.5 4.33z" style="fill:#fff;fill-rule:nonzero"/></svg>