<svg xmlns="http://www.w3.org/2000/svg" xml:space="preserve" width="2068" height="1133" viewBox="0 0 2068 1133"><path d="M904.469.371a9 9 0 0 0-1.012.024c-3.682.301-3.294 1.926-.63 8.285 1.527 3.647 3.641 8.278 5.554 12.959l48.13 117.802 55.055 134.754s-161.53 25.416-426.416 66.545c-28.522 4.429-29.619 15.916-2.449 25.668l221.27 79.418 262.416.022-193.584-68.96c-4.548-1.62-12.745-4.64-13.916-9.136-1.26-5.457 6.528-6.7 10.474-7.38l267.94-41.558a.622.622 0 0 0 .48-.849l-66.539-163.524c-2.463-6.053-.251-7.743 4.942-3.775 33.005 25.221 144.736 110.58 203.064 154.89.59.449 1.668.801 2.408.79l131.188-2.067a9.407 9.407 0 0 1 9.484 8.258l14.883 120.906c3.947 3.34 13.363 10.237 16.443 12.481.549.4 1.384.332 1.865-.15l21.776-21.813 8.664.008c.751 0 2.23.149 2.56-.484.164-.313.016-1.238-.071-1.985l-18.42-156.697c-1-8.441-8.215-14.764-16.715-14.648l-212.967 2.916a1.67 1.67 0 0 1-1.031-.342L917.383 6.806c-5.694-4.35-8.886-6.305-12.914-6.435m887.099 714.481c26.692 22.682 43.697 37.337 40.82 42.481-.244.437-.684.756-1.374.91-1.012.227-2.31.079-4.97-.667-58.033-16.28-175.552-42.525-175.552-42.525" style="fill:#000;fill-opacity:1;stroke-width:10.0028;stroke-linecap:round"/><path d="M1232.366 715.31a.25.25 0 0 1 .22-.373l110.504-.051c.495 0 1.085.354 1.317.791 24.822 46.701 51.926 94.963 65.439 118.922 2.737 3.878 8.39 19.986 15.504 16.025 4.362-3.384 3.624-17.561 3.977-22.049 1.853-25.52 4.28-100.471 4.654-112.205a1.61 1.61 0 0 1 1.608-1.55l61.842.123c.86.002 1.521.7 1.476 1.559-1.173 22.152-14.577 275.327-21.409 404.651-.25 4.747-3.537 7.845-7.337 8.717-3.8.871-8.673-.404-10.974-4.565" style="fill:#000;fill-opacity:1;stroke-width:9.96024;stroke-linecap:round"/><path d="m1528.019 912.829 14.076 9.443 13.78-9.856a.327.327 0 0 1 .506.35l-4.437 16.583 13.458 10.342a.334.334 0 0 1-.188.6l-16.81.797-5.772 15.67a.369.369 0 0 1-.683.022l-6.839-15.513-16.412-.61a.323.323 0 0 1-.182-.58l12.93-10.552-3.922-16.331a.327.327 0 0 1 .495-.365" style="fill:#000;fill-opacity:1;stroke-width:4.59057;stroke-linecap:round"/><path d="m1586.713 925.645-18.686 43.376-45.601 2.647 35.543 29.572-12.276 46.567 41.02-25.454 39.469 26.1-10.725-47.213 35.478-28.603-45.537-3.616z" style="display:inline;fill:#000;fill-opacity:1;stroke-width:12.0979;stroke-linecap:round"/><path d="m760.194 237.679 13.914 9.681 13.945-9.621a.327.327 0 0 1 .5.359l-4.717 16.505 13.28 10.569a.334.334 0 0 1-.198.596l-16.821.512-6.037 15.57a.369.369 0 0 1-.684.01l-6.574-15.626-16.4-.888a.323.323 0 0 1-.171-.584l13.107-10.33-3.645-16.396a.327.327 0 0 1 .501-.357" style="fill:#000;fill-opacity:1;stroke-width:4.59057;stroke-linecap:round"/><path d="m699.957 161.656 17.988 43.67 45.553 3.378-36.012 28.999 11.527 46.757-40.606-26.108-39.883 25.464 11.48-47.035-35.014-29.169 45.589-2.884z" style="display:inline;fill:#000;fill-opacity:1;stroke-width:12.0979;stroke-linecap:round"/><path d="M1776.557 460h-51l30-31h105l-16 16-16 15zM1806.557 617h-115l30-31h126l41-42h-124l73-73 230-1-31 32h-126l-9 10h124l-105 105zM1372.557 617h-52l166-167h105l-19 20 50 1h73l-72 73h-104v-1l42-41h-22l-114 115zM1187.557 617h-115l146-146 231-1-105 105h-126l-10 11h124l-30 31zm73-73h10l41-42h-20l-41 42zM938.557 617h-115l104-105h126l9-10h-124l31-31 230-1-146 147zm31-31h10l41-42h-20l-41 42zM501.557 617h-52l166-167h105l-19 20h251l-147 147h-105l115-115h-21l-115 115h-105l115-115h-21l-114 115zM345.557 471l-146 146h229l146-145v-1h-104l-115 115h-21l115-115zM125.557 617h-52l177-178-83-84h105l83 84-177 178zM1806.557 690h-43l-61-62h207l-61 62z" style="fill:#000"/><path d="M1693.557 690h-53l-72-73 146-146 104-1v1l-146 145 73 74zM811.557 690h-811l61-62h1499l62 62z" style="fill:#000"/></svg>