<svg xmlns="http://www.w3.org/2000/svg" xml:space="preserve" width="1000" height="500" viewBox="0 0 1000 500"><path d="M500.002 32.071c-216.185-.04-224.299 16.205-240.673 53.53-34.312 83.759-59.685 171.612-65.225 255.366-2.882 43.56 5.379 73.955 26.095 96.017 25.075 26.704 54.645 31.93 68.259 30.805 11.582-.958 20.175-4.14 29.81-14.777 22.94-25.323 50.439-94.366 64.714-109.167 7.18-7.444 12.928-8.8 26.813-9.892 12.447-.98 168.396-.946 180.414 0 13.884 1.093 19.633 2.448 26.813 9.892 14.275 14.801 41.774 83.844 64.714 109.167 9.635 10.637 18.228 13.82 29.81 14.777 13.613 1.125 43.184-4.101 68.259-30.805 20.716-22.061 28.976-52.456 26.095-96.017-5.54-83.754-30.912-171.607-65.225-255.366-16.374-37.325-24.487-53.572-240.673-53.53" style="display:inline;fill:#000;fill-opacity:1;stroke-width:.690014"/><g transform="translate(-257.992 555.923)scale(.8051)"><circle cx="990.697" cy="-389.816" r="22.338" style="font-variation-settings:normal;vector-effect:none;fill:#dfdfe7;fill-opacity:1;fill-rule:evenodd;stroke-width:44.661;stroke-linecap:butt;stroke-linejoin:miter;stroke-miterlimit:4;stroke-dasharray:none;stroke-dashoffset:0;stroke-opacity:1;-inkscape-stroke:none;stop-color:#000"/><circle cx="-1077.578" cy="-389.816" r="22.338" style="font-variation-settings:normal;vector-effect:none;fill:#dfdfe7;fill-opacity:1;fill-rule:evenodd;stroke-width:44.661;stroke-linecap:butt;stroke-linejoin:miter;stroke-miterlimit:4;stroke-dasharray:none;stroke-dashoffset:0;stroke-opacity:1;-inkscape-stroke:none;stop-color:#000" transform="scale(-1 1)"/><circle cx="-433.257" cy="-1034.137" r="22.338" style="font-variation-settings:normal;vector-effect:none;fill:#dfdfe7;fill-opacity:1;fill-rule:evenodd;stroke-width:44.661;stroke-linecap:butt;stroke-linejoin:miter;stroke-miterlimit:4;stroke-dasharray:none;stroke-dashoffset:0;stroke-opacity:1;-inkscape-stroke:none;stop-color:#000" transform="rotate(90)"/><circle cx="346.376" cy="-1034.137" r="22.338" style="font-variation-settings:normal;vector-effect:none;fill:#dfdfe7;fill-opacity:1;fill-rule:evenodd;stroke-width:44.661;stroke-linecap:butt;stroke-linejoin:miter;stroke-miterlimit:4;stroke-dasharray:none;stroke-dashoffset:0;stroke-opacity:1;-inkscape-stroke:none;stop-color:#000" transform="rotate(90)scale(-1 1)"/></g><circle cx="426.163" cy="240.586" r="39.169" style="font-variation-settings:normal;vector-effect:none;fill:#dfdfe7;fill-opacity:1;fill-rule:evenodd;stroke-width:38.6248;stroke-linecap:butt;stroke-linejoin:miter;stroke-miterlimit:4;stroke-dasharray:none;stroke-dashoffset:0;stroke-opacity:1;-inkscape-stroke:none;stop-color:#000"/><circle cx="671.867" cy="151.786" r="78.702" style="font-variation-settings:normal;vector-effect:none;fill:#dfdfe7;fill-opacity:1;fill-rule:evenodd;stroke-width:77.608;stroke-linecap:butt;stroke-linejoin:miter;stroke-miterlimit:4;stroke-dasharray:none;stroke-dashoffset:0;stroke-opacity:1;-inkscape-stroke:none;stop-color:#000"/><circle cx="-328.136" cy="151.786" r="78.702" style="font-variation-settings:normal;vector-effect:none;fill:#dfdfe7;fill-opacity:1;fill-rule:evenodd;stroke-width:77.608;stroke-linecap:butt;stroke-linejoin:miter;stroke-miterlimit:4;stroke-dasharray:none;stroke-dashoffset:0;stroke-opacity:1;-inkscape-stroke:none;stop-color:#000" transform="scale(-1 1)"/></svg>