<svg xmlns="http://www.w3.org/2000/svg" width="1000" height="500"><path d="M316.089 32.08c-2.486.031-4.41.141-5.271.198h-.07c-25.435 2.753-40.396 8.473-49.07 13.626-4.338 2.576-7.1 5.011-8.794 6.847-1.258 1.362-2.046 2.504-2.584 3.618v5.939c-1.145.258-3.208.744-5.679 1.15-2.566.42-4.125 2.389-5.238 4.005a20.6 20.6 0 0 0-1.732 3.067c-44.602 84.275-62.303 199.236-62.303 199.236l-.01.054-.008.055c-8.658 89.207.62 136.646 12.307 161.992 5.843 12.674 12.31 19.813 17.405 23.777 5.095 3.963 9.046 4.784 9.046 4.784l.024.009 45.17 7.491.406-.116c8.32-2.362 11.752-12.242 11.853-12.536l41.14-94.212.008-.023c12.807-31.727 30.287-42.486 44.537-45.663 8.471-1.8 17.303-1.465 25.49 1.401 10.151 2.838 21.282 1.267 21.665 1.213 31.869.186 63.744-.104 95.62-.287 31.875.183 63.75.473 95.618.287.383.054 11.514 1.625 21.666-1.213 8.187-2.866 17.018-3.201 25.49-1.4 14.25 3.176 31.73 13.935 44.536 45.662l.01.023 41.138 94.212c.101.294 3.533 10.174 11.854 12.536l.405.116 45.17-7.491.024-.01s3.952-.82 9.047-4.783 11.562-11.103 17.405-23.777c11.687-25.346 20.964-72.785 12.307-161.992l-.009-.055-.009-.054S806.952 154.805 762.349 70.53a20.6 20.6 0 0 0-1.731-3.067c-1.114-1.616-2.672-3.584-5.238-4.005-2.471-.406-4.535-.892-5.679-1.15v-5.94c-.538-1.113-1.326-2.255-2.584-3.617-1.695-1.836-4.456-4.27-8.794-6.847-8.674-5.153-23.635-10.873-49.07-13.626h-.07c-.862-.057-2.786-.167-5.271-.198-7.456-.093-19.963.517-23.991 5.354l-.287.345-2.018 8.768c-48.688-6.867-104.39-10.42-157.616-10.8-53.226.38-108.929 3.933-157.616 10.8l-2.018-8.768-.287-.345c-4.028-4.837-16.535-5.448-23.991-5.354z" style="fill:#dfdfe7;fill-rule:evenodd;stroke-width:2.88297;stroke-linecap:round;stroke-miterlimit:7;paint-order:stroke markers fill;fill-opacity:1"/><g style="fill:#000" transform="translate(103.953 42.493)scale(.78688)"><circle cx="465.022" cy="195.876" r="4.786" style="font-variation-settings:normal;opacity:1;vector-effect:none;fill:#000;fill-opacity:1;fill-rule:evenodd;stroke-width:26.4567;stroke-linecap:butt;stroke-linejoin:miter;stroke-miterlimit:4;stroke-dasharray:none;stroke-dashoffset:0;stroke-opacity:1;-inkscape-stroke:none;stop-color:#000;stop-opacity:1"/><circle cx="474.595" cy="205.449" r="4.786" style="font-variation-settings:normal;opacity:1;vector-effect:none;fill:#000;fill-opacity:1;fill-rule:evenodd;stroke-width:26.4567;stroke-linecap:butt;stroke-linejoin:miter;stroke-miterlimit:4;stroke-dasharray:none;stroke-dashoffset:0;stroke-opacity:1;-inkscape-stroke:none;stop-color:#000;stop-opacity:1"/><circle cx="484.168" cy="195.876" r="4.786" style="font-variation-settings:normal;opacity:1;vector-effect:none;fill:#000;fill-opacity:1;fill-rule:evenodd;stroke-width:26.4567;stroke-linecap:butt;stroke-linejoin:miter;stroke-miterlimit:4;stroke-dasharray:none;stroke-dashoffset:0;stroke-opacity:1;-inkscape-stroke:none;stop-color:#000;stop-opacity:1"/><circle cx="493.741" cy="205.449" r="4.786" style="font-variation-settings:normal;opacity:1;vector-effect:none;fill:#000;fill-opacity:1;fill-rule:evenodd;stroke-width:26.4567;stroke-linecap:butt;stroke-linejoin:miter;stroke-miterlimit:4;stroke-dasharray:none;stroke-dashoffset:0;stroke-opacity:1;-inkscape-stroke:none;stop-color:#000;stop-opacity:1"/><circle cx="503.314" cy="195.876" r="4.786" style="font-variation-settings:normal;opacity:1;vector-effect:none;fill:#000;fill-opacity:1;fill-rule:evenodd;stroke-width:26.4567;stroke-linecap:butt;stroke-linejoin:miter;stroke-miterlimit:4;stroke-dasharray:none;stroke-dashoffset:0;stroke-opacity:1;-inkscape-stroke:none;stop-color:#000;stop-opacity:1"/><circle cx="512.887" cy="205.449" r="4.786" style="font-variation-settings:normal;opacity:1;vector-effect:none;fill:#000;fill-opacity:1;fill-rule:evenodd;stroke-width:26.4567;stroke-linecap:butt;stroke-linejoin:miter;stroke-miterlimit:4;stroke-dasharray:none;stroke-dashoffset:0;stroke-opacity:1;-inkscape-stroke:none;stop-color:#000;stop-opacity:1"/><circle cx="522.459" cy="195.876" r="4.786" style="font-variation-settings:normal;opacity:1;vector-effect:none;fill:#000;fill-opacity:1;fill-rule:evenodd;stroke-width:26.4567;stroke-linecap:butt;stroke-linejoin:miter;stroke-miterlimit:4;stroke-dasharray:none;stroke-dashoffset:0;stroke-opacity:1;-inkscape-stroke:none;stop-color:#000;stop-opacity:1"/><circle cx="532.032" cy="205.449" r="4.786" style="font-variation-settings:normal;opacity:1;vector-effect:none;fill:#000;fill-opacity:1;fill-rule:evenodd;stroke-width:26.4567;stroke-linecap:butt;stroke-linejoin:miter;stroke-miterlimit:4;stroke-dasharray:none;stroke-dashoffset:0;stroke-opacity:1;-inkscape-stroke:none;stop-color:#000;stop-opacity:1"/><circle cx="541.605" cy="195.876" r="4.786" style="font-variation-settings:normal;opacity:1;vector-effect:none;fill:#000;fill-opacity:1;fill-rule:evenodd;stroke-width:26.4567;stroke-linecap:butt;stroke-linejoin:miter;stroke-miterlimit:4;stroke-dasharray:none;stroke-dashoffset:0;stroke-opacity:1;-inkscape-stroke:none;stop-color:#000;stop-opacity:1"/></g><path d="M502.473 32.842c-37.56-.353-78.901 1.192-115.045 7.04 0 0-5.288.817-10.3 4.438-5.01 3.622-9.775 10.275-8.655 21.217 1.094 10.695 5.54 31.869 9.716 50.484a2099 2099 0 0 0 8.086 34.604l.002.01.002.004.258 1.062h.12c.4 1.396 1.98 6.549 6.55 12.489 5.229 6.797 14.142 13.73 28.229 14.047h.015l156.61.054s8.284.29 17.138-4.576c8.837-4.855 18.266-14.965 20.783-35.056l14.403-69.416s1.434-6.678.59-13.758c-.423-3.54-1.41-7.227-3.551-10.258s-5.508-5.337-10.234-5.934h-.01l-.01-.002s-52.095-5.86-114.698-6.449zm-.094 2.84c62.39.588 114.42 6.406 114.457 6.41h.002c4.024.509 6.533 2.29 8.281 4.763 1.749 2.475 2.665 5.715 3.053 8.963.775 6.496-.547 12.84-.547 12.84v.004l-14.416 69.479-.006.056c-2.403 19.435-11.196 28.557-19.363 33.045s-15.682 4.229-15.682 4.229h-.023l-156.637-.055c-13.199-.296-21.194-6.63-26.055-12.947-4.86-6.319-6.43-12.524-6.43-12.524l-.003-.017c-.006-.025-3.901-15.953-8.069-34.524-4.17-18.585-8.61-39.86-9.664-50.154-1.028-10.05 3.092-15.456 7.504-18.645s9.084-3.935 9.084-3.935l.004-.002h.004c35.887-5.808 77.059-7.34 114.506-6.987z" style="baseline-shift:baseline;display:inline;overflow:visible;vector-effect:none;fill:#000;fill-opacity:1;stop-color:#000"/><g fill="none" style="stroke:#000"><g style="opacity:1;stroke:#000;stroke-opacity:1"><path stroke="none" d="M8.17 0C3.662 0 0 3.662 0 8.17v15.377c0 4.508 3.662 8.17 8.17 8.17s8.168-3.662 8.168-8.17V8.17c0-4.508-3.66-8.17-8.168-8.17" style="baseline-shift:baseline;display:inline;overflow:visible;opacity:1;vector-effect:none;fill:#000;stroke:none;stop-color:#000;stop-opacity:1" transform="rotate(191 333.589 19.714)scale(.94032)"/></g><path stroke="none" d="M7122.856-1219.508a8.17 8.17 0 0 0-8.169 8.168v15.38a8.17 8.17 0 0 0 8.169 8.167c4.508 0 8.17-3.66 8.17-8.168v-15.379c0-4.508-3.662-8.168-8.17-8.168" style="baseline-shift:baseline;display:inline;overflow:visible;opacity:1;vector-effect:none;fill:#000;stroke:none;stop-color:#000;stop-opacity:1" transform="rotate(-11 9849.387 32454.325)scale(.94032)"/></g><path d="M295.688 167.174a7.97 7.97 0 0 0-5.649 2.332l-10.228 10.226a8 8 0 0 0-2.346 5.649v18.445c0 4.401 3.591 7.987 7.992 7.987h21.104c4.45 0 8.058-3.673 7.986-8.124l-.309-18.105a8 8 0 0 0-2.338-5.512l-10.566-10.566a7.97 7.97 0 0 0-5.645-2.332zm45.24-27.651-18.112.311a8 8 0 0 0-5.51 2.338L306.74 152.74c-3.109 3.113-3.109 8.184 0 11.297l10.227 10.227a8 8 0 0 0 5.648 2.343h18.442c4.403 0 7.992-3.589 7.992-7.992v-21.104c0-4.45-3.669-8.059-8.12-7.988zm-71.708-.002-18.445.002c-4.4 0-7.989 3.588-7.992 7.989v21.101c0 4.457 3.675 8.07 8.131 7.993l18.106-.31a8 8 0 0 0 5.51-2.339l10.568-10.566c3.108-3.113 3.108-8.183 0-11.295l-10.23-10.229a8 8 0 0 0-5.647-2.345m16.238-35.321-.002.002c-4.452 0-8.058 3.674-7.984 8.125l.308 18.106a8 8 0 0 0 2.338 5.51l10.566 10.564c3.113 3.109 8.185 3.109 11.297 0l10.229-10.223a8 8 0 0 0 2.346-5.648v-18.444c0-4.403-3.591-7.992-7.995-7.992z" style="baseline-shift:baseline;display:inline;overflow:visible;vector-effect:none;fill:#000;fill-opacity:1;stroke:none;stroke-width:1.88064;stop-color:#000"/><path d="M486.29 280.951c-3.198 0-5.92 2.288-5.92 5.264s2.722 5.262 5.92 5.262h27.42c3.198 0 5.92-2.286 5.92-5.262s-2.722-5.264-5.92-5.264z" style="baseline-shift:baseline;display:inline;overflow:visible;vector-effect:none;fill-rule:evenodd;stroke-linecap:round;stroke-miterlimit:7;paint-order:stroke markers fill;stop-color:#000"/><path d="M605.537 202.236c-24.62 0-44.621 19.998-44.621 44.62 0 24.62 20 44.62 44.621 44.62s44.621-20 44.621-44.62c0-24.622-20-44.62-44.62-44.62m-211.075 0c-24.62 0-44.621 19.998-44.621 44.62 0 24.62 20 44.62 44.621 44.62s44.621-20 44.621-44.62c0-24.622-20-44.62-44.62-44.62" style="baseline-shift:baseline;display:inline;overflow:visible;vector-effect:none;stop-color:#000"/><g style="fill:#000;fill-opacity:1"><g style="fill:#000;fill-opacity:1"><path d="M703.901 184.399c-12.105 0-21.95 9.846-21.95 21.952 0 12.104 9.845 21.948 21.95 21.948 12.107 0 21.95-9.844 21.95-21.95s-9.843-21.949-21.95-21.949" style="baseline-shift:baseline;display:inline;overflow:visible;vector-effect:none;fill:#000;fill-opacity:1;stroke-width:.940309;stop-color:#000"/><path d="M701.983 87.716c-12.106 0-21.951 9.845-21.951 21.951s9.845 21.949 21.95 21.949c12.106 0 21.95-9.842 21.95-21.95 0-12.106-9.844-21.949-21.95-21.949" style="baseline-shift:baseline;display:inline;overflow:visible;vector-effect:none;fill:#000;fill-opacity:1;stroke-width:.94032;stop-color:#000"/></g><g style="fill:#000;fill-opacity:1"><path d="M703.901 184.399c-12.105 0-21.95 9.846-21.95 21.952 0 12.104 9.845 21.948 21.95 21.948 12.107 0 21.95-9.844 21.95-21.95s-9.843-21.949-21.95-21.949" style="baseline-shift:baseline;display:inline;overflow:visible;vector-effect:none;fill:#000;fill-opacity:1;stroke-width:.940309;stop-color:#000" transform="rotate(90 702.942 158.007)"/><path d="M701.983 87.716c-12.106 0-21.951 9.845-21.951 21.951s9.845 21.949 21.95 21.949c12.106 0 21.95-9.842 21.95-21.95 0-12.106-9.844-21.949-21.95-21.949" style="baseline-shift:baseline;display:inline;overflow:visible;vector-effect:none;fill:#000;fill-opacity:1;stroke-width:.94032;stop-color:#000" transform="rotate(90 702.942 158.007)"/></g></g></svg>