<svg xmlns="http://www.w3.org/2000/svg" xml:space="preserve" width="1000" height="500" data-name="图层 2"><path d="M78.02 10.432c-5.185.1-10.337.619-15.366 2.066-5.05 1.584-8.728 3.738-8.908 4.315-.096.888-.048 1.792-.058 2.685-12.433 7.842-19.76 23.362-17.13 40.912l.003.006c6.167 28.155 33.19 33.078 45.712 30.072h.006c4.02-.899 7.163-2.44 7.293-2.42 9.174 3.826 19.12 2.392 25.21-6.1 6.938-.268 17.887-.232 23.894 0 6.088 8.492 16.035 9.926 25.209 6.1.13-.02 3.272 1.521 7.293 2.42h.006c12.522 3.006 39.545-1.917 45.713-30.072l.002-.006c2.63-17.55-4.697-33.07-17.13-40.912-.01-.893.038-1.797-.058-2.686-.18-.576-3.858-2.73-8.908-4.314-5.029-1.447-10.18-1.966-15.365-2.066s-10.404.218-15.569.445c-.488.083-.837.632-.837 1.053l-.018 1.373h-64.57l-.018-1.373c0-.421-.35-.97-.838-1.053-5.164-.227-10.384-.546-15.568-.445" style="display:inline;fill:#000;fill-opacity:1;stroke-width:2.27165;stroke-linecap:round;stroke-linejoin:round" transform="translate(-109.763 5.398)scale(4.81156)"/><path d="M226.724 138.778a11.634 11.634 0 0 0-11.662 11.665v31.293a4.107 4.107 0 0 1-4.112 4.111h-31.293a11.634 11.634 0 0 0-11.664 11.661v30.446a11.634 11.634 0 0 0 11.664 11.66h31.293a4.107 4.107 0 0 1 4.112 4.11v31.295a11.634 11.634 0 0 0 11.662 11.664h30.448a11.634 11.634 0 0 0 11.66-11.664v-31.294a4.107 4.107 0 0 1 4.11-4.11h31.298a11.634 11.634 0 0 0 11.658-11.661v-30.446a11.634 11.634 0 0 0-11.66-11.66H272.94a4.107 4.107 0 0 1-4.111-4.112v-31.294a11.634 11.634 0 0 0-11.657-11.663z" style="fill:#dfdfe7;fill-opacity:1;fill-rule:evenodd;stroke:none;stroke-width:4.9459;stroke-miterlimit:7;paint-order:stroke markers fill"/><circle cx="632.193" cy="349.565" r="60.564" style="font-variation-settings:normal;vector-effect:none;fill:#dfdfe7;fill-opacity:1;fill-rule:evenodd;stroke-width:59.7226;stroke-linecap:butt;stroke-linejoin:miter;stroke-miterlimit:4;stroke-dasharray:none;stroke-dashoffset:0;stroke-opacity:1;-inkscape-stroke:none;stop-color:#000"/><circle cx="-367.807" cy="349.565" r="60.564" style="font-variation-settings:normal;vector-effect:none;fill:#dfdfe7;fill-opacity:1;fill-rule:evenodd;stroke-width:59.7226;stroke-linecap:butt;stroke-linejoin:miter;stroke-miterlimit:4;stroke-dasharray:none;stroke-dashoffset:0;stroke-opacity:1;-inkscape-stroke:none;stop-color:#000" transform="scale(-1 1)"/><g transform="translate(305.011 -20.397)scale(1.44999)"><circle cx="269.338" cy="160.779" r="22.338" style="font-variation-settings:normal;vector-effect:none;fill:#dfdfe7;fill-opacity:1;fill-rule:evenodd;stroke-width:44.661;stroke-linecap:butt;stroke-linejoin:miter;stroke-miterlimit:4;stroke-dasharray:none;stroke-dashoffset:0;stroke-opacity:1;-inkscape-stroke:none;stop-color:#000"/><circle cx="-356.219" cy="160.779" r="22.338" style="font-variation-settings:normal;vector-effect:none;fill:#dfdfe7;fill-opacity:1;fill-rule:evenodd;stroke-width:44.661;stroke-linecap:butt;stroke-linejoin:miter;stroke-miterlimit:4;stroke-dasharray:none;stroke-dashoffset:0;stroke-opacity:1;-inkscape-stroke:none;stop-color:#000" transform="scale(-1 1)"/><circle cx="117.338" cy="-312.778" r="22.338" style="font-variation-settings:normal;vector-effect:none;fill:#dfdfe7;fill-opacity:1;fill-rule:evenodd;stroke-width:44.661;stroke-linecap:butt;stroke-linejoin:miter;stroke-miterlimit:4;stroke-dasharray:none;stroke-dashoffset:0;stroke-opacity:1;-inkscape-stroke:none;stop-color:#000" transform="rotate(90)"/><circle cx="-204.219" cy="-312.778" r="22.338" style="font-variation-settings:normal;vector-effect:none;fill:#dfdfe7;fill-opacity:1;fill-rule:evenodd;stroke-width:44.661;stroke-linecap:butt;stroke-linejoin:miter;stroke-miterlimit:4;stroke-dasharray:none;stroke-dashoffset:0;stroke-opacity:1;-inkscape-stroke:none;stop-color:#000" transform="scale(1 -1)rotate(90)"/></g><circle cx="757.748" cy="365.087" r="27.276" style="font-variation-settings:normal;vector-effect:none;fill:#dfdfe7;fill-opacity:1;fill-rule:evenodd;stroke-width:71.5638;stroke-linecap:butt;stroke-linejoin:miter;stroke-miterlimit:4;stroke-dasharray:none;stroke-dashoffset:0;stroke-opacity:1;-inkscape-stroke:none;stop-color:#000"/><circle cx="-242.252" cy="365.087" r="27.276" style="font-variation-settings:normal;vector-effect:none;fill:#dfdfe7;fill-opacity:1;fill-rule:evenodd;stroke-width:71.5638;stroke-linecap:butt;stroke-linejoin:miter;stroke-miterlimit:4;stroke-dasharray:none;stroke-dashoffset:0;stroke-opacity:1;-inkscape-stroke:none;stop-color:#000" transform="scale(-1 1)"/><rect width="71.603" height="26.113" x="507.517" y="196.878" ry="13.057" style="fill:#dfdfe7;fill-opacity:1;stroke-width:44.5961;stroke-linecap:round;stroke-linejoin:round"/><rect width="71.603" height="26.113" x="420.88" y="196.878" ry="13.057" style="fill:#dfdfe7;fill-opacity:1;stroke-width:44.5961;stroke-linecap:round;stroke-linejoin:round"/></svg>