<?xml version="1.0" encoding="UTF-8" standalone="no"?>
<svg
   xml:space="preserve"
   width="1365.333"
   height="1365.333"
   version="1.1"
   id="svg16"
   xmlns:xlink="http://www.w3.org/1999/xlink"
   xmlns="http://www.w3.org/2000/svg"
   xmlns:svg="http://www.w3.org/2000/svg"><defs
     id="defs8"><linearGradient
       id="a"><stop
         offset="0"
         stop-color="#9b59d0"
         id="stop6"
         style="stop-color:#e50000;stop-opacity:1;" /><stop
         offset="0.17235231"
         stop-color="#9b59d0"
         id="stop5"
         style="stop-color:#e50000;stop-opacity:1;" /><stop
         offset="0.17235231"
         stop-color="#e5e5e5"
         id="stop4"
         style="stop-color:#ff8d00;stop-opacity:1;" /><stop
         offset="0.34401333"
         stop-color="#e5e5e5"
         id="stop21"
         style="stop-color:#ff8d00;stop-opacity:1;" /><stop
         offset="0.34401333"
         stop-color="#e5e5e5"
         id="stop20"
         style="stop-color:#ffee00;stop-opacity:1;" /><stop
         offset="0.50354618"
         stop-color="#e5e5e5"
         id="stop19"
         style="stop-color:#ffee00;stop-opacity:1;" /><stop
         offset="0.50354618"
         stop-color="#e5e5e5"
         id="stop18"
         style="stop-color:#028121;stop-opacity:1;" /><stop
         offset="0.67806226"
         stop-color="#e5e5e5"
         id="stop3"
         style="stop-color:#028121;stop-opacity:1;" /><stop
         offset="0.67806226"
         stop-color="#fff433"
         id="stop2"
         style="stop-color:#004cff;stop-opacity:1;" /><stop
         offset="0.82675654"
         stop-color="#fff433"
         id="stop17"
         style="stop-color:#004cff;stop-opacity:1;" /><stop
         offset="0.82675654"
         stop-color="#fff433"
         id="stop16"
         style="stop-color:#770088;stop-opacity:1;" /><stop
         offset="1"
         stop-color="#fff433"
         id="stop1"
         style="stop-color:#770088;stop-opacity:1;" /></linearGradient><linearGradient
       xlink:href="#a"
       id="b"
       x1="682.65997"
       x2="676.09399"
       y1="112.039"
       y2="1222.765"
       gradientUnits="userSpaceOnUse" /></defs><path
     fill="#383838"
     d="m 685.44,141.56 a 692,692 0 0 0 -21.555,0.042 c -9.2,0.165 -17.534,0.543 -24.54,1.265 C 496.644,157.58 398.27,251.157 369.599,398.2 c -8.318,42.658 -11.106,98.366 -5.87,134.018 4.023,27.387 13.685,54.482 28.03,73.607 1.693,2.258 2.912,3.902 5.394,6.162 1.241,1.13 1.743,2.815 8.221,4.729 3.239,0.957 39.75,22.071 46.117,17.512 6.367,-4.559 -21.614,-31.39 -21.369,-34.573 0.49,-6.366 -0.775,-7.473 -1.346,-9.008 -0.57,-1.534 -1.105,-2.616 -1.675,-3.707 -1.142,-2.18 -2.443,-4.267 -4.07,-6.632 -19.344,-28.114 -25.242,-76.222 -11.348,-128.823 11.8,-44.68 35.63,-90.178 60.173,-116.935 51.49,-56.135 109.465,-81.126 197.073,-83.805 71.781,-2.195 128.793,12.955 178.099,46.255 5.973,4.035 17.882,14.235 30.527,26.863 16.013,15.993 21.1,22.02 29.89,35.291 34.725,52.42 53.701,122.598 48.051,167.485 -3.232,25.677 -13.164,48.924 -27.523,65.992 -2.75,3.27 -5.097,6.213 -6.957,8.754 -0.93,1.27 -1.686,2.298 -2.68,4 -0.497,0.85 -1.084,1.461 -2.06,4.594 -0.489,1.566 -1.852,3.668 -0.426,10.03 0.712,3.182 -12.819,15.346 -8.78,18.473 4.04,3.128 24.49,-3.486 27.496,-3.486 7.495,0 8.662,-1.947 10.079,-2.767 a 23,23 0 0 0 2.908,-1.975 c 1.442,-1.118 2.507,-2.09 3.664,-3.176 2.314,-2.172 4.785,-4.708 7.37,-7.484 5.173,-5.553 10.284,-11.286 14.173,-17.008 23.023,-33.879 30.826,-78.338 27.66,-137.988 -1.582,-29.802 -3.236,-42.981 -8.906,-70.994 -6.068,-29.977 -16.844,-62.323 -29.506,-88.211 -16.984,-34.725 -33.816,-58.204 -60.069,-83.645 -41.95,-40.655 -92.655,-64.962 -156.943,-76.023 -14.736,-2.536 -37.468,-3.867 -59.557,-4.164"
     id="path8" /><path
     fill="#2d2d2d"
     d="m 682.667,231.591 q -4.186,0.01 -8.366,0.107 c -34.191,0.795 -67.957,5.904 -97.37,15.233 -31.958,10.136 -60.059,25.09 -86.07,45.799 -9.632,7.67 -29.081,27.203 -37.007,37.17 -27.778,34.931 -47.249,75.534 -59.144,123.334 -12.813,51.484 -16.882,134.133 65.168,184.718 21.817,9.602 46.73,15.56 81.83,19.567 12.416,1.417 14.934,2.248 18.693,6.17 4.942,5.155 -7.665,13.103 -11.057,22.66 -2.932,8.261 -1.443,31.323 0.582,37.992 2.286,7.525 18.534,-2.252 25.342,1.994 5.58,3.48 19.264,6.22 28.951,5.797 5.343,-0.234 6.736,-0.572 11.278,-2.729 6.505,-3.089 12.009,-8.409 14.99,-14.49 1.847,-3.766 2.574,-7.063 5.56,-25.213 3.779,-22.962 4.253,-24.373 8.067,-23.99 1.236,0.124 -3.638,4.603 -2.908,5.621 1.148,1.603 3.975,7.158 2.746,26.072 -1.668,25.66 -5.088,30.184 -3.395,35.662 3.322,10.756 19.152,11.098 30.305,13.524 2.592,0.564 7.145,0.864 11.805,0.898 4.66,-0.034 9.213,-0.334 11.804,-0.898 11.154,-2.426 25.391,-4.848 28.713,-15.604 1.692,-5.478 2.946,-11.036 1.278,-36.697 -1.23,-18.914 -2.358,-15.354 -1.21,-16.957 0.73,-1.018 -3.269,-11.497 -2.033,-11.62 3.814,-0.384 4.288,1.027 8.067,23.99 2.986,18.149 3.714,21.446 5.56,25.212 2.982,6.081 8.486,11.401 14.99,14.49 4.542,2.157 5.935,2.495 11.278,2.729 9.687,0.424 23.371,-2.316 28.951,-5.797 6.808,-4.246 26.302,0.772 28.588,-6.754 2.025,-6.669 0.445,-20.905 -2.487,-29.166 -3.392,-9.557 -16.176,-21.57 -11.234,-26.726 3.76,-3.922 6.278,-4.753 18.694,-6.17 35.1,-4.008 60.013,-9.965 81.83,-19.567 82.05,-50.585 77.98,-133.234 65.168,-184.718 -11.896,-47.8 -31.367,-88.403 -59.145,-123.334 -7.925,-9.967 -27.374,-29.5 -37.008,-37.17 -26.01,-20.71 -54.11,-35.663 -86.068,-45.8 -29.413,-9.328 -63.18,-14.437 -97.371,-15.232 q -4.18,-0.096 -8.365,-0.107 m 0,345.998 c 1.636,0.064 3.206,0.466 3.898,1.158 1.621,1.622 26.832,54.959 26.832,56.766 0,3.292 -1.803,5.194 -6.957,7.34 -2.747,1.143 -7.33,2.67 -10.186,3.392 -3.984,1.008 -6.402,1.237 -13.587,1.108 -7.186,0.13 -9.604,-0.1 -13.588,-1.108 -2.855,-0.722 -7.439,-2.249 -10.186,-3.392 -5.154,-2.146 -6.957,-4.048 -6.957,-7.34 0,-1.807 25.211,-55.144 26.832,-56.766 0.692,-0.692 2.263,-1.094 3.899,-1.158"
     id="path9" /><path
     fill="#383838"
     d="m 1011.87,775.762 a 17.26,17.26 0 0 0 -17.259,17.258 v 83.488 a 17.26,17.26 0 0 0 -6.363,12.68 v 94.044 a 17.26,17.26 0 0 0 17.258,17.258 h 83.439 a 17.26,17.26 0 0 0 12.02,-5.705 17.26,17.26 0 0 0 12.021,5.705 h 83.438 a 17.26,17.26 0 0 0 17.258,-17.258 V 901.87 a 17.26,17.26 0 0 0 6.365,-12.682 V 793.02 a 17.26,17.26 0 0 0 -17.258,-17.258 h -83.44 a 17.26,17.26 0 0 0 -12.02,5.703 17.26,17.26 0 0 0 -12.02,-5.703 h -41.72 z m -379.009,12.236 a 6.436,6.436 0 0 0 -6.435,6.436 v 51.619 a 6.436,6.436 0 0 0 6.435,6.435 h 37.405 v 36.699 a 6.436,6.436 0 0 0 6.435,6.436 h 5.586 v 87.609 a 6.436,6.436 0 0 0 6.436,6.436 h 83.438 a 6.436,6.436 0 0 0 6.435,-6.436 v -94.044 a 6.436,6.436 0 0 0 -6.436,-6.436 h -4.877 v -30.263 h 37.405 a 6.436,6.436 0 0 0 6.435,-6.436 v -51.619 a 6.436,6.436 0 0 0 -6.435,-6.436 h -85.915 z m 238.815,1.916 -1.139,1.139 -1.303,1.3 h -3.373 a 0.67,0.67 0 0 0 -0.47,0.196 l -19.274,19.263 -19.273,19.266 a 0.67,0.67 0 0 0 -0.196,0.47 v 56.973 h -4.99 a 0.665,0.665 0 0 0 -0.666,0.667 v 56.98 c 0,0.183 0.076,0.359 0.21,0.484 l 19.622,18.487 19.621,18.486 a 0.67,0.67 0 0 0 0.457,0.182 l 64.17,0.047 64.17,0.044 a 0.665,0.665 0 0 0 0.666,-0.666 v -55.861 c 0,-0.368 -0.125,-3.457 -0.493,-3.456 l -36.81,-2.79 -37.09,2.79 -3.216,-3.277 -6.535,-3.763 v -27.021 h 4.283 a 0.665,0.665 0 0 0 0.666,-0.667 v -29.744 l 4.56,-4.595 4.559,-4.594 h 73.652 a 0.665,0.665 0 0 0 0.666,-0.666 V 793.02 a 0.665,0.665 0 0 0 -0.666,-0.666 h -6.047 l -0.023,-1.229 v -1.21 H 877.147 Z M 524.34,776.008 a 17.013,17.013 0 0 0 -12.041,29.027 l 9.36,9.38 4.388,4.397 v 70.376 a 17.01,17.01 0 0 0 10.605,15.294 v 78.75 a 17.013,17.013 0 0 0 17.012,17.012 h 83.44 a 17.013,17.013 0 0 0 17.011,-17.012 V 889.188 A 17.01,17.01 0 0 0 643.508,873.893 V 793.02 A 17.013,17.013 0 0 0 626.496,776.008 H 575.418 Z M 203.072,728.87 a 8.13,8.13 0 0 0 -5.738,2.368 l -19.537,19.463 -0.002,0.002 -19.535,19.463 a 8.13,8.13 0 0 0 -2.39,5.76 V 944.41 a 8.13,8.13 0 0 0 2.415,5.783 l 19.5,19.27 v 0.002 l 19.5,19.268 a 8.13,8.13 0 0 0 5.713,2.345 l 85.5,0.028 85.5,0.025 A 8.133,8.133 0 0 0 382.131,983 V 833 A 8.133,8.133 0 0 0 374,824.87 H 262 a 8.133,8.133 0 0 0 -7.87,7.497 v -19.736 l 3.614,-3.87 3.393,-3.63 H 372 A 8.133,8.133 0 0 0 380.13,797 V 737 A 8.133,8.133 0 0 0 372,728.87 H 287.535 Z M 254.2,883.796 a 8.13,8.13 0 0 0 7.8,7.334 h 21.87 v 21.739 h -10.241 c -7.965,0 -12.492,-0.223 -14.508,-0.604 -2.016,-0.381 -1.444,-0.15 -2.924,-1.54 -1.122,-1.054 -0.812,-0.739 -0.828,-0.775 -0.016,-0.036 -0.42,-1.197 -0.678,-4.295 -0.315,-3.8 -0.431,-11.597 -0.492,-21.86 m 136.123,-105.52 a 15.806,15.806 0 0 0 -15.804,15.805 v 189.506 a 15.806,15.806 0 0 0 15.804,15.805 H 537.4 a 15.806,15.806 0 0 0 15.805,-15.805 V 927.018 A 15.806,15.806 0 0 0 537.4,911.213 H 489.566 V 795.91 a 15.806,15.806 0 0 0 -14.474,-15.748 l -10.819,-0.914 h -0.002 c -8.008,-0.677 -25.799,-0.973 -43.048,-0.973 z"
     id="path10" /><path
     fill="#db5dc9"
     d="m 704.148,159.875 c 61.556,3.292 115.035,19.36 156.811,49.156 76.195,54.343 118.713,145.779 123.1,264.72 1.935,52.475 -5.665,89.262 -24.178,117.013 -24.467,36.677 -65.443,56.033 -134.966,63.925 v 0.055 l -0.934,0.106 c -12.884,1.435 -15.656,2.343 -18.908,6.2 -1.706,2.024 -2.817,3.975 -3.358,6.19 a 13.6,13.6 0 0 0 -0.351,2.317 c -0.216,3.238 0.57,7.145 2.306,12.515 1.997,6.177 2.42,8.463 2.42,13.092 0,14.239 -8.555,26.573 -21.53,31.037 -6.116,2.104 -16.718,3.554 -23.722,3.244 l -0.908,-0.04 -0.117,-0.3 c 0.403,0.02 0.74,0.019 1.035,0.002 2.075,-0.116 2.208,-1.073 9.908,-2.542 11.406,-2.177 19.782,-8.069 24.293,-17.086 a 45,45 0 0 0 1.496,-3.295 c 0.863,-2.139 1.457,-4.182 1.784,-6.258 0.817,-5.19 -0.03,-10.583 -2.483,-18.166 -1.237,-3.826 -1.99,-6.751 -2.24,-9.24 -0.125,-1.245 -0.123,-2.38 0.006,-3.465 0.129,-1.085 0.384,-2.118 0.771,-3.158 0.516,-1.388 1.264,-2.788 2.248,-4.338 3.087,-4.861 7.176,-6.647 17.723,-7.735 74.82,-7.72 117.15,-28.67 141.49,-70.027 14.17,-24.075 20.893,-54.598 20.903,-94.883 0.018,-74.244 -17.704,-144.536 -49.985,-198.25 -12.615,-20.99 -22.927,-34.096 -41.29,-52.476 -45.338,-47.455 -105.46,-65.137 -168.927,-76.182 z"
     id="path11" /><path
     fill="#ffffff"
     d="m 683.191,576.834 h -2.034 c -1.132,0 -2.445,0.8 -2.933,1.82 -4.736,9.902 -26.886,56.333 -26.886,58.004 0,5.26 17.74,9.587 17.74,9.587 0,0 10.455,2.142 15.682,2.142 5.227,0 15.682,-2.142 15.682,-2.142 0,0 16.44,-5.956 16.44,-9.587 0,-2.206 -23.63,-48.216 -28.67,-58.004 -0.517,-1.006 -1.855,-1.82 -2.986,-1.82 z m 67.128,-168.127 -16.026,15.48 c -17.709,17.107 -18.614,18.365 -16.362,22.76 0.64,1.25 12.261,13.12 25.826,26.378 15.078,14.74 24.674,24.608 24.693,25.394 0.02,0.83 -9,10.182 -25.362,26.293 -17.918,17.643 -25.518,25.562 -25.81,26.89 -0.494,2.247 0.522,5.204 2.533,7.38 0.804,0.871 7.993,7.877 15.975,15.57 l 14.511,13.986 h 6.251 l 25.639,-25.112 c 14.102,-13.81 26.161,-25.111 26.798,-25.111 0.637,0 12.698,11.3 26.8,25.111 l 25.642,25.112 h 6.262 l 15.789,-15.234 c 9.11,-8.79 16.168,-16.138 16.683,-17.37 1.876,-4.483 1.757,-4.628 -25.296,-31.242 -14.979,-14.736 -25.356,-25.445 -25.356,-26.167 0,-0.72 10.406,-11.485 25.372,-26.245 15.983,-15.763 25.533,-25.668 25.81,-26.77 0.946,-3.767 -0.591,-5.72 -17.023,-21.61 l -16.02,-15.493 h -6.18 l -25.47,24.942 c -18.574,18.192 -25.884,24.945 -27.007,24.945 -1.122,0 -8.445,-6.758 -27.026,-24.945 l -25.486,-24.942 h -3.08 z"
     id="path12" /><path
     fill="#da5cc8"
     d="m 368.081,905.248 v -75.333 h 6.667 V 980.58 h -6.667 z m 163.334,47 v -28.333 h 7.333 v 56.666 h -7.333 z m 99.333,-19 v -47.333 h 6.667 v 94.666 h -6.667 z m 135.333,0 v -47.333 h 6.667 v 94.666 h -6.667 z m 216.667,19 v -28.333 h 6.667 v 56.666 h -6.667 z m 99.333,-8.333 v -36.667 h 7.334 v 73.333 h -7.334 z m 108,-10.334 v -47 h 6.667 v -96.666 h 6.667 v 96.666 h -6.667 v 94 h -6.667 z m -722.666,-76 v -66.333 h 6.666 v 132.667 h -6.666 z m 436.165,61.039 -4.833,-5.26 v -26.78 h 5.333 v -30.366 l 4.85,-4.817 c 4.707,-4.676 4.945,-4.817 8.15,-4.817 h 3.3 l -4.816,4.85 -4.817,4.848 v 30.302 h -5.333 v 27.036 l 4.666,4.63 c 2.567,2.548 4.583,4.8 4.81,5.03 0.199,0.204 -1.568,0.63 -3.31,0.62 -3.095,-0.016 -3.276,-0.136 -8,-5.278 m -658.016,-5.553 -4.817,-4.85 V 805.614 l 4.817,-4.85 4.816,-4.848 h 7.336 l -5.151,5.181 -5.151,5.181 v 101.94 l 4.816,4.849 4.817,4.849 h -3.333 c -3.253,0 -3.45,-0.117 -8.15,-4.85 M 620.08,837.915 v -48 h 6.667 v 96 h -6.667 z m 134,26.666 v -21.333 h 7.334 v 42.667 h -7.334 z m 334.667,-42 v -32.666 h 6.667 v 65.333 h -6.667 z m -101.333,-4.333 v -28.333 h 6.666 v 56.666 h -6.666 z m -189.334,-1 v -26 h 7.334 v 52 h -7.334 z m -432,-52.333 v -31 h 6.667 v 62 h -6.667 z m 78.834,25.855 c 1.008,-0.152 2.658,-0.152 3.666,0 1.009,0.153 0.184,0.278 -1.833,0.278 -2.017,0 -2.842,-0.125 -1.833,-0.278 m -24,-0.666 c 1.008,-0.153 2.658,-0.153 3.666,0 1.008,0.153 0.184,0.278 -1.833,0.278 -2.017,0 -2.842,-0.125 -1.833,-0.278"
     id="path13" /><path
     fill="#5dbee9"
     d="M 182.712,961.839 163.351,943.096 V 772.9 l 19.167,-19.556 19.166,-19.556 3.105,0.23 3.104,0.23 -18.908,19.333 -18.91,19.334 -0.028,85.041 -0.03,85.042 6.5,6.31 c 3.576,3.47 12.319,11.926 19.43,18.791 l 12.929,12.482 h -6.802 z m 207.306,-76.591 v -95.333 h 6.666 V 980.58 h -6.666 z M 553.35,933.58 v -47 h 6.667 v 94 h -6.667 z m 135.333,0 v -47 h 6.667 v 94 h -6.667 z m 152.52,28.5 -19.74,-18.5 -0.056,-28.833 -0.057,-28.833 h 5.333 v -57.676 l 19.17,-19.162 19.172,-19.162 h 6.649 l -19.162,19.17 -19.162,19.171 v 57.659 h -5.334 v 57.182 l 16.834,15.853 c 9.258,8.718 18.179,17.152 19.824,18.742 l 2.991,2.89 h -6.723 z m 164.147,-28.833 v -47.333 h 6 v -96 h 6.667 v 96 h -6 v 94.666 h -6.667 z m 107.333,10.667 v -36.667 h 6.667 v 73.333 h -6.667 z m -820.666,-44 v -18 h 7.333 v 36 h -7.333 z M 542.683,847.755 V 808.93 l -9.491,-9.508 -9.492,-9.508 h 6.667 l 9.492,9.508 9.49,9.508 v 77.65 h -6.666 z m 134,17.159 v -21.667 h 7.334 v 43.333 h -7.334 z m -416,-9 v -26 h 6.667 v 52 h -6.667 z M 1119.35,822.58 v -32.666 h 6.667 v 65.333 h -6.667 z m -486.667,-5.333 v -26 h 7.334 v 52 h -7.334 z"
     id="path14" /><circle
     cx="552.68402"
     cy="491.85901"
     r="101.55"
     fill="#ffffff"
     id="circle14" /><path
     fill="#5ebfea"
     d="m 661.584,159.875 c -61.556,3.292 -115.035,19.36 -156.81,49.156 -76.196,54.343 -118.714,145.779 -123.1,264.72 -1.936,52.475 5.664,89.262 24.177,117.013 24.467,36.677 65.443,56.033 134.966,63.925 v 0.055 l 0.934,0.106 c 12.884,1.435 15.656,2.343 18.908,6.2 1.706,2.024 2.817,3.975 3.358,6.19 0.184,0.76 0.301,1.536 0.351,2.317 0.216,3.238 -0.57,7.145 -2.306,12.515 -1.997,6.177 -2.42,8.463 -2.42,13.092 0,14.239 8.555,26.573 21.53,31.037 6.116,2.104 16.718,3.554 23.722,3.244 l 0.908,-0.04 0.117,-0.3 c -0.403,0.02 -0.74,0.019 -1.035,0.002 -2.075,-0.116 -2.208,-1.073 -9.908,-2.542 -11.406,-2.177 -19.782,-8.069 -24.293,-17.086 a 45,45 0 0 1 -1.496,-3.295 c -0.863,-2.139 -1.457,-4.182 -1.784,-6.258 -0.817,-5.19 0.03,-10.583 2.483,-18.166 1.237,-3.826 1.99,-6.751 2.24,-9.24 0.125,-1.245 0.123,-2.38 -0.006,-3.465 a 13.5,13.5 0 0 0 -0.77,-3.158 c -0.517,-1.388 -1.265,-2.788 -2.249,-4.338 -3.087,-4.861 -7.176,-6.647 -17.723,-7.735 -74.82,-7.72 -117.15,-28.67 -141.49,-70.027 -14.17,-24.075 -20.893,-54.598 -20.903,-94.883 -0.018,-74.244 17.704,-144.536 49.985,-198.25 12.615,-20.99 22.927,-34.096 41.29,-52.476 45.339,-47.455 105.461,-65.137 168.927,-76.182 z"
     id="path15" /><path
     fill="url(#b)"
     d="m 682.66,112.039 c -16.165,0.122 -33.255,0.666 -41.346,1.5 -60.916,6.277 -111.553,23.26 -155.668,52.209 -17.972,11.793 -32.97,24.209 -49.035,40.59 -11.562,11.79 -18.462,19.824 -27.83,32.408 l -6.328,8.5 h -34.1 v -0.04 l -26.322,0.005 -99.213,0.014 c -110.198,0.014 -146.033,0.122 -155.89,0.609 -1.947,0.095 -2.887,0.205 -3.19,0.332 -3.68,1.537 -6.318,6.018 -6.297,10.13 v 0.034 a 8.6,8.6 0 0 0 0.147,1.703 v 0.002 a 1,1 0 0 0 0.029,0.1 q 0.017,0.045 0.041,0.102 l 0.018,0.044 0.002,0.004 q 0.02,0.093 0.044,0.184 c 0.045,0.168 0.49,0.976 1.295,2.361 l 0.01,0.018 c 3.612,6.443 13.654,23.035 25.91,42.75 l 15.815,25.437 0.146,0.237 0.026,0.04 c 3.523,5.692 7.17,11.576 10.912,17.6 l -21.156,0.164 -1.413,0.012 c -12.427,0.096 -22.595,0.365 -22.595,0.596 0,0.231 4.532,7.724 10.07,16.652 l 10.068,16.235 44.043,0.171 6.881,0.028 h 0.024 c 3.81,0.062 9.641,0.162 16.257,0.162 l 20.88,-0.02 13.257,21.334 13.256,21.334 -3.42,0.03 c -3.18,-0.013 -8.255,-0.042 -13.82,0.017 -16.804,0.178 -22.81,0.413 -23.414,0.914 v 0.006 c 0,0.007 0,0.02 0.01,0.033 l -0.041,0.028 q -0.052,0.042 -0.051,0.088 c 0,0.219 3.616,6.21 8.184,13.693 0.488,0.8 0.339,0.59 0.865,1.45 0.08,0.131 0.053,0.09 0.135,0.224 1.78,2.975 3.107,5.183 3.107,5.183 h 0.074 c 3.275,5.322 7.011,11.36 10.969,17.723 12.834,20.632 23.334,37.682 23.334,37.887 0,0.08 -1.543,0.168 -4.156,0.25 -0.476,0.015 -1.578,0.02 -2.121,0.035 -5.865,0.096 -14.719,0.182 -24.137,0.262 -2.646,0.022 -5.074,0.07 -7.113,0.125 l -6.153,0.049 -0.394,0.004 h -0.004 l 31.916,51.332 31.916,51.334 22.568,0.334 22.568,0.332 8.092,13 8.09,13 10.963,0.203 10.965,0.203 13,20.982 c 7.15,11.54 13.098,21.275 13.22,21.631 0.137,0.401 -3.759,0.649 -10.236,0.649 -8.095,0 -10.39,0.187 -10.14,0.832 q 0.028,0.074 0.152,0.296 a 0.5,0.5 0 0 0 -0.143,-0.023 h -0.002 v 0.008 l 0.002,0.002 a 0.8,0.8 0 0 0 0.153,0.092 l 0.052,0.033 c 0.773,1.373 3.46,5.76 6.524,10.63 3.529,5.614 6.418,10.338 6.418,10.5 0,0.164 -34.926,0.296 -77.613,0.296 h -77.61 l -29.057,29.49 -29.054,29.49 0.01,100.01 0.01,100.01 29.158,28.162 29.16,28.16 175.668,0.01 175.666,0.01 39.672,63.83 39.674,63.83 9.66,0.192 9.66,0.191 7.834,12.574 c 4.31,6.916 7.834,12.757 7.834,12.977 0,0.22 -4.05,0.4 -9,0.4 -4.853,0 -8.842,0.225 -8.996,0.502 l -0.004,0.01 v 0.01 c 0,1.298 32.531,52.516 34.082,53.66 0.961,0.71 2.761,1.517 4,1.795 l -0.006,-0.01 c 3.582,0.804 7.374,-0.13 10.072,-2.482 0.635,-0.554 30.036,-47.466 65.334,-104.246 l 64.178,-103.24 h 405 V 907.246 h 12.668 v -152 h -128.057 c -78.4,0 -127.968,-0.24 -127.832,-0.617 0.078,-0.22 2.076,-3.53 5.006,-8.31 h 0.006 c 1.62,-2.645 3.525,-5.74 5.549,-9.01 l 10.334,-16.704 38,-0.03 38,-0.032 39.334,-63.336 c 21.634,-34.835 39.43,-63.625 39.552,-63.977 0.138,-0.402 -13.73,-0.704 -37.388,-0.812 l -37.612,-0.172 18.955,-30.5 18.955,-30.5 h 50.4 l 12.335,-19.834 12.334,-19.832 -41.6,-0.174 c -22.879,-0.094 -41.597,-0.344 -41.597,-0.556 0,-0.212 6.046,-10.11 13.439,-21.995 l 13.44,-21.609 h 33.472 l 57.293,-92.166 c 31.511,-50.692 57.586,-93.267 57.945,-94.611 1.222,-4.571 -1.671,-10.488 -6.015,-12.303 -1.848,-0.772 -27.474,-0.92 -160.457,-0.92 H 962.873 l -6.328,-8.5 c -9.368,-12.584 -16.268,-20.618 -27.83,-32.408 -16.064,-16.381 -31.064,-28.797 -49.036,-40.59 -44.115,-28.948 -94.751,-45.932 -155.667,-52.209 -8.091,-0.833 -25.181,-1.378 -41.346,-1.5 z m 0,47.219 c 56.402,0.21 105.897,11.204 148.018,32.886 68.656,35.34 117.129,100.53 138.877,186.772 7.967,31.589 11.767,59.213 13.093,95.17 1.936,52.473 -5.667,89.26 -24.18,117.012 -24.264,36.374 -65.322,55.628 -135.232,63.417 -13.046,1.454 -15.528,2.294 -19.203,6.479 -4.954,5.642 -5.331,10.415 -1.709,21.592 2.339,7.22 2.465,8.048 2.193,14.33 -0.35,8.062 -1.93,12.627 -6.404,18.502 -3.678,4.828 -8.922,8.627 -14.435,10.457 -5.325,1.766 -12.969,3.023 -19.29,3.258 h -3.966 c -5.381,-0.235 -6.756,-0.568 -11.336,-2.743 -6.5,-3.087 -12.085,-8.545 -15.008,-14.67 -1.726,-3.615 -2.551,-7.44 -5.441,-25.2 -2.826,-17.362 -3.646,-21.194 -4.8,-22.438 -1.626,-1.755 -3.602,-1.916 -5.677,-0.463 -1.85,1.296 -1.879,3.115 -0.424,26.389 0.581,9.299 0.952,20.079 0.826,23.955 -0.215,6.594 -0.393,7.378 -2.767,12.181 a 36,36 0 0 1 -1.655,2.989 h -0.002 a 33,33 0 0 1 -3.968,5.205 c -4.405,4.702 -10.083,7.873 -16.744,9.285 -2.424,0.514 -6.504,0.799 -10.782,0.857 -4.267,-0.06 -8.332,-0.345 -10.75,-0.857 -9.999,-2.12 -17.785,-8.203 -22.369,-17.479 -2.374,-4.803 -2.552,-5.587 -2.767,-12.181 -0.126,-3.876 0.245,-14.656 0.826,-23.955 1.455,-23.274 1.426,-25.093 -0.424,-26.389 -2.075,-1.453 -4.05,-1.292 -5.678,0.463 -1.153,1.244 -1.973,5.076 -4.799,22.437 -2.89,17.76 -3.715,21.586 -5.441,25.202 -2.923,6.124 -8.508,11.582 -15.008,14.67 -4.58,2.174 -5.955,2.507 -11.336,2.742 -1.009,0.044 -2.124,0.027 -3.252,0 h -0.715 c -6.32,-0.235 -13.964,-1.492 -19.289,-3.258 -5.513,-1.83 -10.757,-5.63 -14.435,-10.457 -4.474,-5.875 -6.055,-10.44 -6.405,-18.502 -0.272,-6.282 -0.145,-7.11 2.194,-14.33 3.622,-11.177 3.245,-15.95 -1.71,-21.592 -3.674,-4.185 -6.156,-5.025 -19.202,-6.479 -69.91,-7.79 -110.968,-27.043 -135.233,-63.417 -18.512,-27.751 -26.115,-64.54 -24.18,-117.012 1.327,-35.957 5.127,-63.581 13.094,-95.17 21.748,-86.242 70.221,-151.432 138.877,-186.772 42.12,-21.682 91.616,-32.676 148.018,-32.886 M 201.455,733.916 H 371.22 l 1.455,2.351 v 59.649 H 257.644 l -5.15,5.182 -5.15,5.18 V 908.28 l 4.847,4.818 4.85,4.817 h 34.969 v -36 h -31.334 v -52 h 114 V 980.581 H 202.064 L 182.703,961.839 163.342,943.097 V 772.91 l 19.056,-19.498 z m 199.389,55.986 c 5.958,-0.008 24.858,0.351 42,0.795 l 31.166,0.809 v 132.41 h 64.666 V 980.58 H 390.01 V 789.916 Z m 122.851,0.014 h 102.98 v 96 h 10.669 v 94.666 h -84 v -94 h -10.666 v -77.65 l -9.493,-9.508 z m 341.322,0 H 994.01 v 56.666 h -73.637 l -4.848,4.816 -4.85,4.817 v 30.367 h -5.333 l 0.013,13.5 0.01,13.5 5.07,5.166 5.073,5.168 h 73.836 v 56.666 H 860.936 l -19.739,-18.5 -19.74,-18.5 -0.057,-28.834 -0.056,-28.832 h 5.332 V 828.24 l 19.172,-19.162 z m 146.327,0 h 84 v 65.332 h 24 v -65.332 h 84 v 96.666 h -6.668 v 94 h -84 v -73.334 h -23.332 v 73.334 h -84 v -94.666 h 6 z m -378.666,1.332 h 172.666 v 52 h -44 v 42.668 h 11.332 v 47.332 l 0.002,47.334 h -84 v -94 h -12 v -43.334 h -44 z"
     id="path16"
     style="fill:url(#b)" /></svg>
