<svg xmlns="http://www.w3.org/2000/svg" xml:space="preserve" width="1000" height="500" viewBox="0 0 1000 500"><path d="M193.687 54.678c-9.708-.386-56.783-.385-103.995 31.92-4.432 3.48-4.024 8.593-3.556 13.637 0 0-4.339 3.292-6.118 4.888-5.582 5.007-5.162 1.519-9.177 76.597-1.2 22.445-2.802 50.769-3.559 62.942-6.179 99.372-6.982 118.738-5.39 130.186 4.463 32.09 27.349 57.891 60.164 67.827 7.494 2.27 20.174 2.506 377.944 2.72 357.77-.214 370.45-.45 377.944-2.72 32.815-9.936 55.7-35.737 60.164-67.827 1.592-11.448.789-30.814-5.39-130.186-.757-12.173-2.358-40.497-3.559-62.942-4.015-75.078-3.595-71.59-9.177-76.597-1.78-1.596-6.118-4.888-6.118-4.888.468-5.044.876-10.158-3.556-13.638-47.212-32.304-94.287-32.305-103.995-31.92-1.467.06-2.656 1.3-2.656 2.769v5.313l-303.618-.349h-.077l-303.619.349v-5.313c0-1.469-1.19-2.71-2.656-2.768" style="display:inline;fill:#dfdfe7;fill-opacity:1;stroke-width:1.03751"/><path d="M124.326 165.439a6.957 6.957 0 0 0-6.974 6.976v18.713a2.456 2.456 0 0 1-2.459 2.459H96.18a6.957 6.957 0 0 0-6.975 6.973v18.206a6.957 6.957 0 0 0 6.975 6.974h18.713a2.456 2.456 0 0 1 2.459 2.458v18.713a6.957 6.957 0 0 0 6.974 6.976h18.208a6.957 6.957 0 0 0 6.973-6.976v-18.713a2.456 2.456 0 0 1 2.457-2.458h18.717a6.957 6.957 0 0 0 6.972-6.974V200.56a6.957 6.957 0 0 0-6.973-6.973h-18.716a2.456 2.456 0 0 1-2.46-2.459v-18.714a6.957 6.957 0 0 0-6.97-6.974z" style="fill:#000;fill-opacity:1;fill-rule:evenodd;stroke:none;stroke-width:2.95768;stroke-miterlimit:7;paint-order:stroke markers fill"/><path d="M852.465 209.624c0-9.258-7.53-16.789-16.789-16.789s-16.786 7.53-16.786 16.788c0 9.26 7.527 16.787 16.786 16.787s16.789-7.527 16.789-16.787" style="baseline-shift:baseline;display:inline;overflow:visible;vector-effect:none;fill:#000;fill-opacity:1;stroke-width:.719163;stop-color:#000"/><path d="M914.701 209.706c0-9.259-7.529-16.79-16.789-16.79-9.258 0-16.786 7.531-16.786 16.788 0 9.26 7.528 16.787 16.787 16.787s16.788-7.527 16.788-16.787" style="baseline-shift:baseline;display:inline;overflow:visible;vector-effect:none;fill:#000;fill-opacity:1;stroke-width:.719164;stop-color:#000"/><path d="M866.757 223.994c-9.258 0-16.788 7.528-16.788 16.788 0 9.259 7.53 16.787 16.787 16.787 9.26 0 16.788-7.528 16.788-16.787s-7.527-16.788-16.788-16.788M866.84 161.757c-9.26 0-16.79 7.529-16.79 16.789 0 9.258 7.53 16.786 16.788 16.786 9.26 0 16.787-7.528 16.787-16.786 0-9.26-7.527-16.79-16.787-16.79" style="baseline-shift:baseline;display:inline;overflow:visible;vector-effect:none;fill:#000;fill-opacity:1;stroke-width:.719171;stop-color:#000"/><g style="fill:#000"><path d="M186.643 589.669c-15.589 0-28.251 12.66-28.251 28.248s12.663 28.25 28.25 28.25 28.25-12.662 28.25-28.25-12.662-28.25-28.25-28.25" style="baseline-shift:baseline;display:inline;overflow:visible;opacity:1;vector-effect:none;fill:#000;fill-opacity:1;stroke-width:.878347;stop-color:#000" transform="translate(-57.797 -299.686)scale(1.03751)"/><g style="fill:#000"><path d="M214.946 410.004c-5.242 0-9.505 4.262-9.505 9.504s4.263 9.503 9.504 9.503c5.242 0 9.503-4.261 9.503-9.503s-4.26-9.504-9.503-9.504" style="baseline-shift:baseline;display:inline;overflow:visible;opacity:1;vector-effect:none;fill:#000;fill-opacity:1;stroke-width:.407139;stop-color:#000" transform="translate(-57.797 -299.686)scale(1.03751)"/><path d="M214.946 536.114c-6.954 0-12.609 5.655-12.609 12.609s5.655 12.606 12.608 12.606 12.607-5.653 12.607-12.606c0-6.955-5.653-12.609-12.607-12.609" style="baseline-shift:baseline;display:inline;overflow:visible;opacity:1;vector-effect:none;fill:#000;fill-opacity:1;stroke-width:.540103;stop-color:#000" transform="translate(-57.797 -299.686)scale(1.03751)"/></g></g><g style="fill:#000"><path d="M186.643 589.669c-15.589 0-28.251 12.66-28.251 28.248s12.663 28.25 28.25 28.25 28.25-12.662 28.25-28.25-12.662-28.25-28.25-28.25" style="baseline-shift:baseline;display:inline;overflow:visible;opacity:1;vector-effect:none;fill:#000;fill-opacity:1;stroke-width:.878347;stop-color:#000" transform="matrix(-1.03751 0 0 1.03751 1057.797 -299.686)"/><g style="fill:#000"><path d="M214.946 410.004c-5.242 0-9.505 4.262-9.505 9.504s4.263 9.503 9.504 9.503c5.242 0 9.503-4.261 9.503-9.503s-4.26-9.504-9.503-9.504" style="baseline-shift:baseline;display:inline;overflow:visible;opacity:1;vector-effect:none;fill:#000;fill-opacity:1;stroke-width:.407139;stop-color:#000" transform="matrix(-1.03751 0 0 1.03751 1057.797 -299.686)"/><path d="M214.946 536.114c-6.954 0-12.609 5.655-12.609 12.609s5.655 12.606 12.608 12.606 12.607-5.653 12.607-12.606c0-6.955-5.653-12.609-12.607-12.609" style="baseline-shift:baseline;display:inline;overflow:visible;opacity:1;vector-effect:none;fill:#000;fill-opacity:1;stroke-width:.540103;stop-color:#000" transform="matrix(-1.03751 0 0 1.03751 1057.797 -299.686)"/></g></g><path d="M233.676 82.358a20.087 20.087 0 0 0-20.13 20.13v306.29a20.087 20.087 0 0 0 20.13 20.13h532.648a20.087 20.087 0 0 0 20.13-20.13v-306.29a20.087 20.087 0 0 0-20.13-20.13H499.999Z" style="display:inline;fill:#000;fill-opacity:1;stroke-width:5.84378;stroke-linecap:round"/></svg>