<svg xmlns="http://www.w3.org/2000/svg" xml:space="preserve" width="1000" height="500" viewBox="0 0 1000 500"><path d="M196.45 54.608q-.745-.007-1.568.101c-9.429 1.251-31.41 6.976-47.07 12.333-6.454 2.208-10.486 3.114-14.204 3.193-15.855.596-31.31 8.222-39.015 22.603-.955 1.972-2.622 4.417-3.703 5.434-2.412 2.265-3.814 6.276-3.493 9.992.208 2.423-.298 3.344-3.841 6.99-1.953 2.033-4.195 4.105-5.219 6.785-2.505 8.13-16.899 63.34-23.766 125.218-1.477 13.303-5.257 51.472-.034 87.402 8.296 57.074 36.617 81.573 48.718 89.098 30.443 18.93 60.628 21.698 108.098 21.635h577.294c47.47.063 77.655-2.705 108.098-21.635 12.101-7.525 40.422-32.024 48.718-89.098 5.223-35.93 1.443-74.1-.034-87.402-6.868-61.877-21.261-117.088-23.766-125.218-1.024-2.68-3.266-4.752-5.219-6.784-3.543-3.647-4.05-4.568-3.84-6.991.32-3.716-1.082-7.727-3.494-9.992-1.081-1.017-2.748-3.462-3.703-5.434-7.705-14.381-23.16-22.007-39.015-22.603-3.718-.079-7.75-.985-14.205-3.193-15.659-5.357-37.64-11.082-47.069-12.333-2.195-.29-3.976.04-5.245.983s-2.175 2.498-2.175 4.654v2.796H688.393v-2.665c0-1.926-15.053-4.333-18.324 0v2.665h-17.794v-2.665c-3.989-4.4-18.323-2.05-18.323 0v2.665h-431.65v-2.796c0-2.156-.906-3.71-2.175-4.654-.952-.707-2.19-1.07-3.677-1.084" style="display:inline;fill:#000;stroke-width:.798763"/><path d="M147.467 130.417c-15.286 0-27.703 12.417-27.703 27.702s12.418 27.703 27.703 27.703 27.702-12.417 27.702-27.703-12.416-27.702-27.702-27.702" style="baseline-shift:baseline;display:inline;overflow:visible;vector-effect:none;fill:#dfdfe7;fill-opacity:1;stroke-width:.861346;stop-color:#000"/><path d="M171.75 208.15c-21.756 0-39.427 17.672-39.427 39.426s17.673 39.427 39.427 39.427 39.425-17.673 39.425-39.427c0-21.756-17.67-39.425-39.425-39.425" style="baseline-shift:baseline;display:inline;overflow:visible;vector-effect:none;fill:#dfdfe7;fill-opacity:1;stroke-width:1.22587;stop-color:#000"/><g style="fill:#dfdfe7;fill-opacity:1"><g style="fill:#dfdfe7;fill-opacity:1"><path d="M893.549 156.918c-6.868 0-12.452 5.585-12.452 12.452s5.584 12.45 12.452 12.45c6.867 0 12.45-5.583 12.45-12.45s-5.583-12.452-12.45-12.452m-1.089-54.843c-6.867 0-12.452 5.584-12.452 12.452 0 6.867 5.585 12.45 12.452 12.45 6.868 0 12.45-5.583 12.45-12.45 0-6.868-5.582-12.452-12.45-12.452" style="baseline-shift:baseline;display:inline;overflow:visible;vector-effect:none;fill:#dfdfe7;fill-opacity:1;stroke-width:.533401;stop-color:#000" transform="translate(-116.65 2.415)scale(1.09214)"/></g><g style="fill:#dfdfe7;fill-opacity:1"><path d="M893.549 156.918c-6.868 0-12.452 5.585-12.452 12.452s5.584 12.45 12.452 12.45c6.867 0 12.45-5.583 12.45-12.45s-5.583-12.452-12.45-12.452m-1.089-54.843c-6.867 0-12.452 5.584-12.452 12.452 0 6.867 5.585 12.45 12.452 12.45 6.868 0 12.45-5.583 12.45-12.45 0-6.868-5.582-12.452-12.45-12.452" style="baseline-shift:baseline;display:inline;overflow:visible;vector-effect:none;fill:#dfdfe7;fill-opacity:1;stroke-width:.533401;stop-color:#000" transform="rotate(90 915.753 97.909)scale(1.09214)"/></g></g><path d="M813.428 221.3c-15.286 0-27.703 12.416-27.703 27.702 0 15.285 12.418 27.703 27.703 27.703s27.702-12.418 27.702-27.703c0-15.287-12.416-27.702-27.702-27.702" style="baseline-shift:baseline;display:inline;overflow:visible;vector-effect:none;fill:#dfdfe7;fill-opacity:1;stroke-width:.861346;stop-color:#000"/><path d="M231.373 71.259c-1.267 0-2.289 1.366-2.289 3.062v360.066c0 1.697 1.022 3.063 2.289 3.063h537.254c1.267 0 2.289-1.366 2.289-3.063V74.321c0-1.696-1.022-3.062-2.289-3.062H500.001Z" style="display:inline;fill:#dfdfe7;fill-opacity:1;stroke:none;stroke-width:2.55039;stroke-linecap:round"/></svg>