<svg xmlns="http://www.w3.org/2000/svg" xml:space="preserve" width="1000" height="500"><path fill="#dfdfe7" d="m436.082 32.073-4.765.021-4.77.024c-.254 0-.51.102-.719.263a1.2 1.2 0 0 0-.437.63 24 24 0 0 1-.35 1.236c-.096.289-.175.453-.252.492h-.01l-.004.002-.004.002h-.008l-.006.004-.004.002h-.04l-.002-.002-.002-.004-.002-.002-.004-.002c-.057-.052-.151-.293-.246-.58s-.19-.62-.254-.85a.4.4 0 0 0-.14-.203.4.4 0 0 0-.233-.084H230.104a3.92 3.92 0 0 0-2.772 1.147 3.92 3.92 0 0 0-1.158 2.765 989 989 0 0 1-.027 4.096 115 115 0 0 1-.047 2.766c-.066 1.547-.98 2.676-1.938 2.716-.957.04-1.956-1.009-2.193-3.816a41 41 0 0 1-.113-2.242c-.022-.815-.031-1.68-.034-2.54-.003-.777-.061-1.647-.519-2.423s-1.315-1.458-2.914-1.86c-.202-.05-.616-.075-1.225-.091-.609-.017-1.412-.024-2.394-.037-14.756-.202-31.028-1.042-47.637-1.213s-33.556.327-49.664 2.802c-45.809 7.04-67.387 28.774-77.28 49.293-9.891 20.52-8.097 39.825-7.16 42.006.181.36.39.702.65 1.01.262.308.576.583.966.812.363.267.706.543.908.803s.264.507.062.711c-.304.309-1.133.537-1.886.861-.753.325-1.43.747-1.432 1.442-.067 21.31-.664 70.14-1.115 117.346-.451 47.205-.756 92.785-.24 107.6.243 7.002 1.78 26.532 11.045 46.655s26.259 40.841 57.42 50.217c4.084 1.059 9.216 1.708 19.08 2.094s24.459.508 47.466.508h56.516c6.734.027 2.623 5.92 4.592 9.074.683 1.094 1.937 1.75 3.486 2.13 1.983.488 5.326.434 7.371.413 179.09-1.858 349.511-1.812 524.162 0 2.045.021 5.389.075 7.371-.412 1.55-.38 2.804-1.037 3.487-2.131 1.969-3.154-2.142-9.047 4.592-9.074h56.515c23.008 0 37.603-.122 47.467-.508s14.995-1.035 19.08-2.094c31.16-9.376 48.155-30.093 57.42-50.217s10.801-39.653 11.045-46.656c.515-14.814.21-60.394-.24-107.6-.451-47.205-1.048-96.035-1.116-117.345-.002-.695-.678-1.117-1.431-1.442s-1.582-.552-1.887-.86c-.202-.205-.14-.451.063-.712.202-.26.545-.536.908-.803.39-.229.704-.504.965-.812.26-.308.47-.65.65-1.01.938-2.181 2.732-21.486-7.16-42.006s-31.47-42.254-77.28-49.293c-16.108-2.475-33.054-2.973-49.664-2.802s-32.88 1.01-47.636 1.213c-.983.013-1.786.02-2.395.037s-1.023.04-1.224.091c-1.6.402-2.457 1.084-2.914 1.86s-.517 1.646-.52 2.424c-.002.86-.011 1.724-.033 2.539a41 41 0 0 1-.113 2.242c-.237 2.807-1.237 3.856-2.194 3.816s-1.872-1.17-1.937-2.716c-.02-.46-.035-1.502-.047-2.766s-.02-2.75-.028-4.096a3.92 3.92 0 0 0-1.158-2.765 3.92 3.92 0 0 0-2.771-1.147H576.166a.4.4 0 0 0-.232.084.4.4 0 0 0-.14.203c-.064.23-.16.563-.255.85-.094.287-.188.528-.246.58l-.004.002-.002.002-.002.004-.002.002h-.038l-.006-.002-.006-.004h-.008l-.004-.002-.004-.002h-.01c-.076-.039-.156-.203-.252-.492a24 24 0 0 1-.35-1.237 1.2 1.2 0 0 0-.437-.629 1.2 1.2 0 0 0-.719-.263l-4.77-.024-4.765-.021h-.002a.92.92 0 0 0-.73.353c-.101.129-.152.335-.178.551s-.027.443-.03.61l-.044 3.222-.045 3.22H437.112l-.045-3.22-.043-3.222c-.002-.167-.004-.394-.03-.61s-.076-.422-.177-.55a.92.92 0 0 0-.73-.354z"/><g fill-rule="evenodd" transform="translate(201.946 501.446)scale(1.32823)"><circle cx="405.791" cy="-185.793" r="22.338" style="font-variation-settings:normal;-inkscape-stroke:none"/><circle cx="-492.672" cy="-185.793" r="22.338" style="font-variation-settings:normal;-inkscape-stroke:none" transform="scale(-1 1)"/><circle cx="-229.234" cy="-449.231" r="22.338" style="font-variation-settings:normal;-inkscape-stroke:none" transform="rotate(90)"/><circle cx="142.353" cy="-449.231" r="22.338" style="font-variation-settings:normal;-inkscape-stroke:none" transform="scale(1 -1)rotate(90)"/></g><circle cx="628.622" cy="324.886" r="54.649" fill-rule="evenodd" style="font-variation-settings:normal;-inkscape-stroke:none"/><rect width="111.805" height="39.221" x="337.494" y="167.696" ry="19.611"/><path fill-rule="evenodd" d="M185.305 176.312a12.326 12.326 0 0 0-12.357 12.36v33.157a4.35 4.35 0 0 1-4.356 4.356h-33.157a12.326 12.326 0 0 0-12.358 12.356v32.258a12.326 12.326 0 0 0 12.358 12.355h33.157a4.35 4.35 0 0 1 4.356 4.355v33.158a12.326 12.326 0 0 0 12.357 12.359h32.261a12.326 12.326 0 0 0 12.354-12.359v-33.158a4.35 4.35 0 0 1 4.355-4.355h33.163A12.326 12.326 0 0 0 279.79 270.8v-32.26a12.326 12.326 0 0 0-12.354-12.356h-33.162a4.35 4.35 0 0 1-4.357-4.356V188.67a12.326 12.326 0 0 0-12.35-12.357z" paint-order="stroke markers fill"/><g fill-rule="evenodd" transform="matrix(-1 0 0 1 -2.284 0)"><circle cx="-886.27" cy="368.116" r="20.531" style="font-variation-settings:normal;-inkscape-stroke:none"/><circle cx="-826.057" cy="395.947" r="20.531" style="font-variation-settings:normal;-inkscape-stroke:none"/></g><circle cx="-366.81" cy="324.886" r="54.649" fill-rule="evenodd" style="font-variation-settings:normal;-inkscape-stroke:none" transform="scale(-1 1)"/></svg>