<svg xmlns="http://www.w3.org/2000/svg" xmlns:xlink="http://www.w3.org/1999/xlink" xml:space="preserve" width="256" height="256" viewBox="0 0 67.733 67.733"><defs><linearGradient id="a"><stop offset="0" style="stop-color:#ff790c;stop-opacity:1"/><stop offset=".485" style="stop-color:#ff394c;stop-opacity:1"/><stop offset="1" style="stop-color:#ff0c79;stop-opacity:1"/></linearGradient><linearGradient xlink:href="#a" id="c" x1="72.916" x2="171.882" y1="-100.388" y2="-100.388" gradientUnits="userSpaceOnUse"/><filter id="b" width="1.054" height="1.104" x="-.027" y="-.036" style="color-interpolation-filters:sRGB"><feFlood flood-color="#000" flood-opacity=".596" result="flood"/><feGaussianBlur in="SourceGraphic" result="blur" stdDeviation="1.6"/><feOffset dy="3.5" in="blur" result="offset"/><feComposite in="flood" in2="offset" operator="in" result="comp1"/><feComposite in="SourceGraphic" in2="comp1" result="comp2"/></filter></defs><g style="filter:url(#b)" transform="translate(-11.32 -20.11)scale(.45012)"><path d="M378.77 275.59c-30.275.077-51.215 5.423-85.075 21.502-26.146 12.416-22.496 11.513-50.685 12.734-15.642.678-25.663 1.167-33.739 3.385-23.657 6.499-42.644 21.53-54.417 43.115s-16.962 49.107-16.958 82.506c.005 36.57 5.707 72.644 16.678 104.658 8.913 26.006 24.889 48.706 45.238 62.235 8.98 5.97 15.205 8.846 24.524 11.341 17.152 4.593 35.616-.033 49.693-11.345 12.974-10.426 22.939-28.021 29.698-46.903 4.27-11.93 10.695-22.31 12.195-23.802 6.317-6.284 31.645-14.931 63.498-14.938h.002c30.618-.007 54.404 7.07 63.084 14.264-.505-.418 2.375 2.778 5.031 7.681 2.657 4.904 5.707 11.641 8.697 19.479 9.898 25.945 23.85 44.254 43.67 53.23 13.319 6.033 27.899 5.252 41.465.3 20.639-7.536 39.047-24.93 51.781-46.528 12.395-21.02 21.3-55.046 25.862-91.863 2.378-19.196 2.872-52.551.53-69.338-5.886-42.166-24.402-74.658-54.933-88.778-12.393-5.732-23.646-7.652-48.857-8.72-16.066-.681-26.106-2.131-26.934-2.381.022.007-4.353-1.637-9.045-3.67a534 534 0 0 1-15.865-7.211c-33.184-15.74-54.478-21.031-85.138-20.953" style="fill:#fff;fill-opacity:1;stroke-width:3.08367;stroke-linecap:round" transform="scale(.26458)"/><path d="M117.67-150.285a6.115 6.115 0 0 1-6.115 6.115 6.115 6.115 0 0 1-6.115-6.115 6.115 6.115 0 0 1 6.115-6.114 6.115 6.115 0 0 1 6.114 6.114m0 30.391a6.115 6.115 0 0 1-6.115 6.115 6.115 6.115 0 0 1-6.115-6.115 6.115 6.115 0 0 1 6.115-6.114 6.115 6.115 0 0 1 6.114 6.114m-21.31-21.31a6.115 6.115 0 0 1 6.114 6.115 6.115 6.115 0 0 1-6.115 6.114 6.115 6.115 0 0 1-6.115-6.114 6.115 6.115 0 0 1 6.115-6.115m30.39 0a6.115 6.115 0 0 1 6.115 6.115 6.115 6.115 0 0 1-6.115 6.114 6.115 6.115 0 0 1-6.115-6.114 6.115 6.115 0 0 1 6.115-6.115m-15.656 57.2h.921a3.225 3.225 0 0 1 3.231 3.231v27.945c0 1.79-1.44 3.231-3.23 3.231h-.922c-1.79 0-3.23-1.44-3.23-3.23v-27.946c0-1.79 1.44-3.23 3.23-3.23M94.352-66.338v-.922c0-1.79 1.44-3.23 3.23-3.23h27.945c1.79 0 3.23 1.44 3.23 3.23v.922c0 1.79-1.44 3.23-3.23 3.23H97.582c-1.79 0-3.23-1.44-3.23-3.23M64.458-98.784c.348 21.189 9.17 21.68 9.267 38.535.052 9.12 1.486 13.767 5.986 19.45 8.555 10.8 23.896 11.76 38.957 11.81 19.361-.034 40.293-3.076 50.528-22.12 3.293-6.608 3.595-16.48.703-22.846-2.306-5.078-8.553-10.182-16.286-13.305-5.614-2.267-5.852-2.517-7.141-7.608-1.081-4.273-1.08-6.77 0-11.039 1.289-5.091 1.527-5.34 7.14-7.608 7.734-3.123 13.98-8.227 16.287-13.305 2.892-6.367 2.59-16.238-.703-22.846-10.235-19.045-31.167-22.086-50.528-22.12-15.06.05-30.402 1.01-38.957 11.81-4.5 5.683-5.934 10.33-5.986 19.45-.097 16.856-8.919 17.346-9.267 38.535a223 223 0 0 0 0 3.207m16.633-21.592c4.16-8.194 4.345-8.945 4.348-17.834.007-32.84 51.994-22.31 62.709-16.098 12.377 7.176 15.853 18.582 7.79 25.593-2.076 1.805-6.136 4.052-9.02 4.988-2.885.937-6.247 2.607-7.465 3.714-7.217 6.565-7.217 32.686 0 39.25 1.218 1.108 4.58 2.778 7.464 3.715s6.945 3.183 9.02 4.988c8.064 7.011 4.588 18.417-7.79 25.593-10.714 6.213-62.699 16.741-62.708-16.098-.003-8.889-.187-9.64-4.348-17.834-6.461-12.727-6.464-27.245 0-39.977" style="fill:url(#c);stroke-width:3.0058;stroke-linecap:round" transform="rotate(90)"/></g></svg>