<svg xmlns="http://www.w3.org/2000/svg" xmlns:xlink="http://www.w3.org/1999/xlink" xml:space="preserve" width="128" height="128"><defs><linearGradient xlink:href="#a" id="b" x1="2689.252" x2="2918.07" y1="-1106.803" y2="-1106.803" gradientTransform="matrix(.45451 0 0 .45552 -1222.292 604.173)" gradientUnits="userSpaceOnUse"/><linearGradient id="a"><stop offset="0" style="stop-color:#62a0ea;stop-opacity:1"/><stop offset=".058" style="stop-color:#afd4ff;stop-opacity:1"/><stop offset=".122" style="stop-color:#62a0ea;stop-opacity:1"/><stop offset=".873" style="stop-color:#62a0ea;stop-opacity:1"/><stop offset=".956" style="stop-color:#c0d5ea;stop-opacity:1"/><stop offset="1" style="stop-color:#62a0ea;stop-opacity:1"/></linearGradient></defs><path d="M9.978 0C4.451 0 0 4.46 0 10v86.033c0 5.54 4.45 10 9.978 10h84.043c5.528 0 9.979-4.46 9.979-10V23.945a11.973 12 0 0 0-11.973-12H46a6.492 6.507 0 0 1-5.799-3.581L38.698 5.37A9.738 9.76 0 0 0 30 0Z" style="fill:#438de6;fill-opacity:1;stroke-width:4;stroke-linecap:round;stop-color:#000" transform="translate(12 10.984)"/><path d="M53.979 24a9.94 9.94 0 0 0-7.03 2.89C44.677 29.145 41.566 32 38.318 32H9.978C4.451 32 0 36.46 0 42v54.033c0 5.54 4.45 10 9.978 10h84.043c5.528 0 9.979-4.46 9.979-10V34c0-5.54-4.45-10-9.979-10z" style="fill:url(#b);fill-opacity:1;stroke-width:4;stroke-linecap:round;stop-color:#000" transform="translate(12 10.984)"/><path d="M53.979 20a9.94 9.94 0 0 0-7.03 2.89C44.677 25.145 41.566 28 38.318 28H9.978C4.451 28 0 32.46 0 38v55.978c0 5.54 4.45 10 9.978 10h84.043c5.528 0 9.979-4.46 9.979-10V30c0-5.54-4.45-10-9.979-10z" style="fill:#a4caee;fill-opacity:1;stroke-width:4;stroke-linecap:round;stop-color:#000" transform="translate(12 10.984)"/><g fill="#222" style="fill:#438de6;fill-opacity:1"><path d="M6.57.063c-3.578 0-6.5 2.925-6.5 6.5 0 3.578 2.922 6.5 6.5 6.5 1.43 0 2.758-.465 3.832-1.254l2.973 2.972c.957.938 2.363-.5 1.406-1.437l-2.957-2.957a6.48 6.48 0 0 0 1.246-3.825c0-3.574-2.922-6.5-6.5-6.5m0 2c2.496 0 4.5 2.003 4.5 4.5 0 2.5-2.004 4.5-4.5 4.5s-4.5-2-4.5-4.5c0-2.497 2.004-4.5 4.5-4.5m0 0" style="fill:#438de6;fill-opacity:1" transform="translate(47.843 56.84)scale(2.12997)"/><path d="M4.75 4c-.46 0-.918.184-1.242.508A1.72 1.72 0 0 0 3 5.75c.008.473.223.934.578 1.246L6.5 9.54l3-2.656c.305-.293.488-.711.5-1.133a1.7 1.7 0 0 0-.5-1.246 1.78 1.78 0 0 0-2.324-.133 1.8 1.8 0 0 0-.63.945l-.046.079-.04-.079a1.8 1.8 0 0 0-.632-.945A1.77 1.77 0 0 0 4.75 4m0 0" style="fill:#438de6;fill-opacity:1" transform="translate(47.843 56.84)scale(2.12997)"/></g></svg>