<svg xmlns="http://www.w3.org/2000/svg" xmlns:xlink="http://www.w3.org/1999/xlink" xml:space="preserve" width="128" height="128"><defs><linearGradient xlink:href="#a" id="b" x1="2689.252" x2="2918.07" y1="-1106.803" y2="-1106.803" gradientTransform="matrix(.45451 0 0 .45552 -1210.292 615.156)" gradientUnits="userSpaceOnUse"/><linearGradient id="a"><stop offset="0" style="stop-color:#62a0ea;stop-opacity:1"/><stop offset=".058" style="stop-color:#afd4ff;stop-opacity:1"/><stop offset=".122" style="stop-color:#62a0ea;stop-opacity:1"/><stop offset=".873" style="stop-color:#62a0ea;stop-opacity:1"/><stop offset=".956" style="stop-color:#c0d5ea;stop-opacity:1"/><stop offset="1" style="stop-color:#62a0ea;stop-opacity:1"/></linearGradient></defs><path d="M21.979 10.984c-5.528 0-9.979 4.46-9.979 10v86.032c0 5.54 4.45 10 9.979 10h84.042c5.528 0 9.979-4.46 9.979-10V34.928a11.973 12 0 0 0-11.973-12H58a6.492 6.507 0 0 1-5.799-3.58l-1.503-2.993A9.738 9.76 0 0 0 42 10.984Z" style="fill:#438de6;fill-opacity:1;stroke-width:4;stroke-linecap:round;stop-color:#000"/><path d="M65.979 34.984a9.94 9.94 0 0 0-7.03 2.889c-2.273 2.257-5.384 5.11-8.632 5.11H21.979c-5.528 0-9.979 4.46-9.979 10v54.034c0 5.54 4.45 10 9.979 10h84.042c5.528 0 9.979-4.46 9.979-10V44.984c0-5.54-4.45-10-9.979-10z" style="fill:url(#b);fill-opacity:1;stroke-width:4;stroke-linecap:round;stop-color:#000"/><path d="M65.979 30.984a9.94 9.94 0 0 0-7.03 2.889c-2.273 2.257-5.384 5.11-8.632 5.11H21.979c-5.528 0-9.979 4.46-9.979 10v55.978c0 5.54 4.45 10 9.979 10h84.042c5.528 0 9.979-4.46 9.979-10V40.984c0-5.54-4.45-10-9.979-10z" style="fill:#a4caee;fill-opacity:1;stroke-width:4;stroke-linecap:round;stop-color:#000"/><g fill="#222" style="fill:#438de6;fill-opacity:1"><path d="M0 0v15h2v-1h12v1h2V0h-2v1H2V0Zm2 3h12v9H2Zm0 0" style="fill:#438de6;fill-opacity:1" transform="translate(46.933 56.972)scale(2.13333)"/><path d="M13 11v-1h-1v1zm-9 0v-1H3v1zm9-2V8h-1v1ZM4 9V8H3v1Zm9-2V6h-1v1ZM4 7V6H3v1Zm9-2V4h-1v1ZM4 5V4H3v1zm0 0" style="fill:#438de6;fill-opacity:1" transform="translate(46.933 56.972)scale(2.13333)"/></g><path fill="#222" d="M63.582 68.789a2.523 2.523 0 0 0-2.51 2.51v1.193l-2.775-2.87h-.572v6.693h.54l2.807-2.925v1.255a2.523 2.523 0 0 0 2.51 2.51h4.183a2.523 2.523 0 0 0 2.51-2.51V71.3a2.523 2.523 0 0 0-2.51-2.51zm0 1.673h4.183c.477 0 .836.36.836.837v3.346c0 .48-.359.837-.836.837h-4.183a.816.816 0 0 1-.837-.837V71.3c0-.477.36-.837.837-.837m0 0" style="fill:#438de6;fill-opacity:1;stroke-width:.836622"/><path d="M74.667 80.439v-2.133h-2.134v2.133zm-19.2 0v-2.133h-2.134v2.133zm19.2-4.267V74.04h-2.134v2.133zm-19.2 0V74.04h-2.134v2.133zm19.2-4.266v-2.134h-2.134v2.134zm-19.2 0v-2.134h-2.134v2.134zm19.2-4.267v-2.133h-2.134v2.133zm-19.2 0v-2.133h-2.134v2.133zm0 0" style="fill:#438de6;fill-opacity:1;stroke-width:2.13333"/></svg>