<svg xmlns="http://www.w3.org/2000/svg" xmlns:xlink="http://www.w3.org/1999/xlink" xml:space="preserve" width="128" height="128"><defs><linearGradient xlink:href="#a" id="b" x1="2689.252" x2="2918.07" y1="-1106.803" y2="-1106.803" gradientTransform="matrix(.45451 0 0 .45552 -1222.292 604.173)" gradientUnits="userSpaceOnUse"/><linearGradient id="a"><stop offset="0" style="stop-color:#62a0ea;stop-opacity:1"/><stop offset=".058" style="stop-color:#afd4ff;stop-opacity:1"/><stop offset=".122" style="stop-color:#62a0ea;stop-opacity:1"/><stop offset=".873" style="stop-color:#62a0ea;stop-opacity:1"/><stop offset=".956" style="stop-color:#c0d5ea;stop-opacity:1"/><stop offset="1" style="stop-color:#62a0ea;stop-opacity:1"/></linearGradient></defs><path d="M9.978 0C4.451 0 0 4.46 0 10v86.033c0 5.54 4.45 10 9.978 10h84.043c5.528 0 9.979-4.46 9.979-10V23.945a11.973 12 0 0 0-11.973-12H46a6.492 6.507 0 0 1-5.799-3.581L38.698 5.37A9.738 9.76 0 0 0 30 0Z" style="fill:#438de6;fill-opacity:1;stroke-width:4;stroke-linecap:round;stop-color:#000" transform="translate(12 10.984)"/><path d="M53.979 24a9.94 9.94 0 0 0-7.03 2.89C44.677 29.145 41.566 32 38.318 32H9.978C4.451 32 0 36.46 0 42v54.033c0 5.54 4.45 10 9.978 10h84.043c5.528 0 9.979-4.46 9.979-10V34c0-5.54-4.45-10-9.979-10z" style="fill:url(#b);fill-opacity:1;stroke-width:4;stroke-linecap:round;stop-color:#000" transform="translate(12 10.984)"/><path d="M53.979 20a9.94 9.94 0 0 0-7.03 2.89C44.677 25.145 41.566 28 38.318 28H9.978C4.451 28 0 32.46 0 38v55.978c0 5.54 4.45 10 9.978 10h84.043c5.528 0 9.979-4.46 9.979-10V30c0-5.54-4.45-10-9.979-10z" style="fill:#a4caee;fill-opacity:1;stroke-width:4;stroke-linecap:round;stop-color:#000" transform="translate(12 10.984)"/><path d="M52 45.989a16 16 0 0 0-16 16 16 16 0 0 0 16 16 16 16 0 0 0 16-16 16 16 0 0 0-16-16m-.14 2.58a12.787 12.787 0 0 1 12.787 12.786 12.79 12.79 0 0 1-8.99 12.21 7 7 0 0 1 .269-.28c.882-.875 1.765-2.14 2.342-3.354.228-.479.337-.65.34-.53q0 .094.012.108l.001.001h.001v.001h.004c.016-.007.044-.065.095-.181.06-.136.164-.517.231-.848.094-.46.134-.562.173-.437.028.09.087.15.13.135.127-.042.174-.413.253-1.989.041-.812.09-1.494.11-1.513q.004-.004.008-.004h.004c.014.007.024.047.025.104.002.138.15.383.232.383h.002l.002-.001c.023-.028.041-.33.041-.697 0-.569-.038-.828-.209-1.41-.255-.87-.266-1.013-.064-.78l.144.167-.038-.388a2.3 2.3 0 0 0-.285-.848 50 50 0 0 1-.722-1.45 35 35 0 0 0-.769-1.51q-.43-.766-.12-.508a.36.36 0 0 0 .251.063c.146-.023.145-.028-.044-.273a4 4 0 0 0-.537-.53l-.344-.28.305-.022.305-.023-.28-.175c-.36-.226-1.142-.593-1.265-.593-.12 0-.127-.14-.008-.143.049-.001.026-.051-.052-.113-.112-.089-.261-.103-.758-.072-.533.032-.6.024-.489-.059.072-.053.108-.118.08-.146s-.404-.053-.837-.054c-.612-.002-.883.03-1.223.144l-.436.146V55.4c0-.253-.044-.255-.294-.013l-.197.19.045-.226c.029-.142.03-.21-.03-.212-.053-.001-.153.049-.326.148-.248.142-.282.193-.3.458-.025.337.022.315-.921.44-1.417.189-3.311.736-4.189 1.21-.375.202-.485.309-.721.698-.226.372-.285.541-.308.892-.029.412-.012.468.373 1.23.473.936.712 1.238 1.026 1.296.124.022.618.014 1.098-.02.987-.067 1.07-.034 1.033.413-.025.302.094.35.277.114.077-.099.155-.18.174-.18.07 0 .207.431.252.793.048.388.082.414.406.31.14-.045.165-.012.267.36.062.225.125.45.141.5.022.071.066.067.197-.02.162-.108.17-.104.245.115.112.326.1.408-.06.366-.089-.024-.156.005-.183.077-.058.154-.143.144-.546-.063q-.591-.304-.503-.07c.057.151-.062.134-.76-.11-.34-.12-.949-.297-1.354-.393a40 40 0 0 1-1.69-.458c-.832-.247-1.025-.28-1.535-.261l-.582.02.244.16.244.158-.348.006c-.663.01-1.168.268-.799.406.17.063-.18.155-2.202.58a61 61 0 0 0-1.224.273 12.8 12.8 0 0 1-.415-3.232A12.787 12.787 0 0 1 51.86 48.569" style="fill:#438de6;fill-opacity:1;fill-rule:evenodd;stroke-width:.219931" transform="translate(12 10.984)"/></svg>