<svg xmlns="http://www.w3.org/2000/svg" xmlns:xlink="http://www.w3.org/1999/xlink" xml:space="preserve" width="128" height="128"><defs><linearGradient xlink:href="#a" id="b" x1="2689.252" x2="2918.07" y1="-1106.803" y2="-1106.803" gradientTransform="matrix(.45451 0 0 .45552 -1222.292 604.173)" gradientUnits="userSpaceOnUse"/><linearGradient id="a"><stop offset="0" style="stop-color:#62a0ea;stop-opacity:1"/><stop offset=".058" style="stop-color:#afd4ff;stop-opacity:1"/><stop offset=".122" style="stop-color:#62a0ea;stop-opacity:1"/><stop offset=".873" style="stop-color:#62a0ea;stop-opacity:1"/><stop offset=".956" style="stop-color:#c0d5ea;stop-opacity:1"/><stop offset="1" style="stop-color:#62a0ea;stop-opacity:1"/></linearGradient></defs><path d="M9.978 0C4.451 0 0 4.46 0 10v86.033c0 5.54 4.45 10 9.978 10h84.043c5.528 0 9.979-4.46 9.979-10V23.945a11.973 12 0 0 0-11.973-12H46a6.492 6.507 0 0 1-5.799-3.581L38.698 5.37A9.738 9.76 0 0 0 30 0Z" style="fill:#438de6;fill-opacity:1;stroke-width:4;stroke-linecap:round;stop-color:#000" transform="translate(12 10.984)"/><path d="M53.979 24a9.94 9.94 0 0 0-7.03 2.89C44.677 29.145 41.566 32 38.318 32H9.978C4.451 32 0 36.46 0 42v54.033c0 5.54 4.45 10 9.978 10h84.043c5.528 0 9.979-4.46 9.979-10V34c0-5.54-4.45-10-9.979-10z" style="fill:url(#b);fill-opacity:1;stroke-width:4;stroke-linecap:round;stop-color:#000" transform="translate(12 10.984)"/><path d="M53.979 20a9.94 9.94 0 0 0-7.03 2.89C44.677 25.145 41.566 28 38.318 28H9.978C4.451 28 0 32.46 0 38v55.978c0 5.54 4.45 10 9.978 10h84.043c5.528 0 9.979-4.46 9.979-10V30c0-5.54-4.45-10-9.979-10z" style="fill:#a4caee;fill-opacity:1;stroke-width:4;stroke-linecap:round;stop-color:#000" transform="translate(12 10.984)"/><g fill="#222" style="fill:#438de6;fill-opacity:1"><path d="M0 0v16h2v-2h12v2h2V0h-2v2H2V0Zm2 4h12v8H2Zm0 0" style="fill:#438de6;fill-opacity:1" transform="matrix(2 0 0 2 48 56.972)"/><path d="M7 5c.195 0 .387.059.555.168l3 2c.59.395.59 1.27 0 1.664l-3 2c-.168.11-.36.168-.555.168 0 0-1.004 0-1-1V6c-.004-1 1-1 1-1m0 0" style="fill:#438de6;fill-opacity:1" transform="matrix(2 0 0 2 48 56.972)"/></g></svg>