<svg xmlns="http://www.w3.org/2000/svg" xmlns:xlink="http://www.w3.org/1999/xlink" xml:space="preserve" width="128" height="128"><defs><linearGradient xlink:href="#a" id="b" x1="2689.252" x2="2918.07" y1="-1106.803" y2="-1106.803" gradientTransform="matrix(.45451 0 0 .45552 -1210.292 615.156)" gradientUnits="userSpaceOnUse"/><linearGradient id="a"><stop offset="0" style="stop-color:#62a0ea;stop-opacity:1"/><stop offset=".058" style="stop-color:#afd4ff;stop-opacity:1"/><stop offset=".122" style="stop-color:#62a0ea;stop-opacity:1"/><stop offset=".873" style="stop-color:#62a0ea;stop-opacity:1"/><stop offset=".956" style="stop-color:#c0d5ea;stop-opacity:1"/><stop offset="1" style="stop-color:#62a0ea;stop-opacity:1"/></linearGradient></defs><path d="M21.979 10.984c-5.528 0-9.979 4.46-9.979 10v86.032c0 5.54 4.45 10 9.979 10h84.042c5.528 0 9.979-4.46 9.979-10V34.928a11.973 12 0 0 0-11.973-12H58a6.492 6.507 0 0 1-5.799-3.58l-1.503-2.993A9.738 9.76 0 0 0 42 10.984Z" style="fill:#438de6;fill-opacity:1;stroke-width:4;stroke-linecap:round;stop-color:#000"/><path d="M65.979 34.984a9.94 9.94 0 0 0-7.03 2.889c-2.273 2.257-5.384 5.11-8.632 5.11H21.979c-5.528 0-9.979 4.46-9.979 10v54.034c0 5.54 4.45 10 9.979 10h84.042c5.528 0 9.979-4.46 9.979-10V44.984c0-5.54-4.45-10-9.979-10z" style="fill:url(#b);fill-opacity:1;stroke-width:4;stroke-linecap:round;stop-color:#000"/><path d="M65.979 30.984a9.94 9.94 0 0 0-7.03 2.889c-2.273 2.257-5.384 5.11-8.632 5.11H21.979c-5.528 0-9.979 4.46-9.979 10v55.978c0 5.54 4.45 10 9.979 10h84.042c5.528 0 9.979-4.46 9.979-10V40.984c0-5.54-4.45-10-9.979-10z" style="fill:#a4caee;fill-opacity:1;stroke-width:4;stroke-linecap:round;stop-color:#000"/><path d="M56.28 56.972c-8.185 0-8.539.003-8.737.064-.837.256-1.429.955-1.667 1.97-.052.221-.057 1.166-.057 11.511v11.27l.078.304c.109.428.265.782.495 1.126.343.513.908.986 1.375 1.15.085.03.922.28 1.86.553l7.566 2.221c6.648 1.954 6.099 1.797 6.393 1.831h16.4a1 1 0 0 0 .17-.02c.964-.198 1.713-.922 1.964-1.901.057-.218.06-.925.06-11.433 0-12.675.03-11.428-.284-12.056-.13-.261-.214-.373-.473-.631-.269-.27-.36-.337-.64-.471-.19-.091-2.34-.847-5.151-1.812l-7.6-2.608a159 159 0 0 0-2.998-1.01c-.207-.053-.882-.058-8.755-.058m8.557 6.474q.472-.015.937.02c.528.043.756.07 1.879.23.498.071.786.092 1.316.096l.678.004.018.31c.01.17.044.845.073 1.5.054 1.19.137 2.619.171 2.95l.018.176-.18.022c-.315.038-.682.027-.696-.02-.568-1.94-.91-2.65-1.603-3.336a2.95 2.95 0 0 0-1.61-.86c-.431-.087-1.2-.096-1.642-.019-1.136.198-1.971.762-2.4 1.62-.36.722-.408 1.791-.11 2.498.43 1.025 1.444 1.74 4.054 2.863 2.309.992 3.383 1.724 4.118 2.808.522.77.759 1.592.759 2.634 0 1.58-.542 2.863-1.64 3.892-.863.808-2.007 1.338-3.444 1.594-.332.06-.582.076-1.275.085-1.12.014-1.544-.025-3.326-.308a21 21 0 0 0-1.103-.14l-.747-.075-.178-.018-.019-.248c-.01-.136-.027-.604-.038-1.04-.02-.833-.052-1.5-.14-3.028-.03-.508-.045-.934-.034-.945s.196-.028.411-.036l.39-.015.097.392c.128.52.388 1.279.577 1.684.694 1.492 1.76 2.412 3.11 2.685.932.19 2.012.1 2.812-.234 1.317-.548 2.065-1.66 2.065-3.072 0-1.055-.437-1.907-1.338-2.611-.604-.472-1.268-.823-2.815-1.488-1.062-.457-2.15-.982-2.594-1.253-1.82-1.11-2.575-2.483-2.451-4.46.122-1.955 1.316-3.541 3.263-4.334.765-.312 1.696-.494 2.637-.524z" style="fill:#438de6;fill-opacity:1;stroke-width:.500695"/></svg>