<svg xmlns="http://www.w3.org/2000/svg" xmlns:xlink="http://www.w3.org/1999/xlink" xml:space="preserve" width="128" height="128"><defs><linearGradient xlink:href="#a" id="b" x1="2689.252" x2="2918.07" y1="-1106.803" y2="-1106.803" gradientTransform="matrix(.45451 0 0 .45552 -1222.292 604.173)" gradientUnits="userSpaceOnUse"/><linearGradient id="a"><stop offset="0" style="stop-color:#62a0ea;stop-opacity:1"/><stop offset=".058" style="stop-color:#afd4ff;stop-opacity:1"/><stop offset=".122" style="stop-color:#62a0ea;stop-opacity:1"/><stop offset=".873" style="stop-color:#62a0ea;stop-opacity:1"/><stop offset=".956" style="stop-color:#c0d5ea;stop-opacity:1"/><stop offset="1" style="stop-color:#62a0ea;stop-opacity:1"/></linearGradient></defs><path d="M9.978 0C4.451 0 0 4.46 0 10v86.033c0 5.54 4.45 10 9.978 10h84.043c5.528 0 9.979-4.46 9.979-10V23.945a11.973 12 0 0 0-11.973-12H46a6.492 6.507 0 0 1-5.799-3.581L38.698 5.37A9.738 9.76 0 0 0 30 0Z" style="fill:#438de6;fill-opacity:1;stroke-width:4;stroke-linecap:round;stop-color:#000" transform="translate(12 10.983)"/><path d="M53.979 24a9.94 9.94 0 0 0-7.03 2.89C44.677 29.145 41.566 32 38.318 32H9.978C4.451 32 0 36.46 0 42v54.033c0 5.54 4.45 10 9.978 10h84.043c5.528 0 9.979-4.46 9.979-10V34c0-5.54-4.45-10-9.979-10z" style="fill:url(#b);fill-opacity:1;stroke-width:4;stroke-linecap:round;stop-color:#000" transform="translate(12 10.983)"/><path d="M53.979 20a9.94 9.94 0 0 0-7.03 2.89C44.677 25.145 41.566 28 38.318 28H9.978C4.451 28 0 32.46 0 38v55.978c0 5.54 4.45 10 9.978 10h84.043c5.528 0 9.979-4.46 9.979-10V30c0-5.54-4.45-10-9.979-10z" style="fill:#a4caee;fill-opacity:1;stroke-width:4;stroke-linecap:round;stop-color:#000" transform="translate(12 10.983)"/><g style="fill:#438de6;fill-opacity:1"><g style="font-variation-settings:normal;vector-effect:none;fill:#438de6;fill-opacity:1;stroke:none;stroke-width:1.37239;stroke-linecap:butt;stroke-linejoin:miter;stroke-miterlimit:4;stroke-dasharray:none;stroke-dashoffset:0;stroke-opacity:1;-inkscape-stroke:none;stop-color:#000"><path d="M48.934 55.946a1.85 1.85 0 0 0-1.492.675L23.459 85.794l6.949-2.599L47.019 62.97v7.375l3.706-2.072V57.795a1.853 1.853 0 0 0-1.79-1.85m1.79 16.764a95 95 0 0 1-3.043 1.683l-.662.35v8.452h3.706z" style="font-variation-settings:normal;baseline-shift:baseline;display:inline;overflow:visible;opacity:1;vector-effect:none;fill:#438de6;fill-opacity:1;stroke:none;stroke-width:1.37239;stroke-linecap:butt;stroke-linejoin:miter;stroke-miterlimit:4;stroke-dasharray:none;stroke-dashoffset:0;stroke-opacity:1;-inkscape-stroke:none;stop-color:#000;stop-opacity:1" transform="matrix(1.07117 0 0 1.07203 18.871 -3.866)"/><path d="M31.95 77.607c-.008-.197-.46-.723-.053-1.18.725-.813 3.773-1.945 8.006-3.724 2.892-1.217 5.91-2.561 8.667-4.044q1.05-.565 1.98-1.12c1.664-.996 3.398-2.12 4.85-3.298.86-.697 1.594-1.392 2.154-2.071.536-.65.883-1.248 1.052-1.792a5 5 0 0 0 .176-.804 2.7 2.7 0 0 0 .016-.588 1.6 1.6 0 0 0-.098-.438 1.3 1.3 0 0 0-.218-.372c-.202-.246-.507-.452-.903-.612a5.5 5.5 0 0 0-1.389-.33 11.4 11.4 0 0 0-2.237-.015 17 17 0 0 0-.737.082c-1.122.147-1.436.227-1.446.198-.004-.013.185-.167 1.38-.513.22-.064.467-.13.732-.196.554-.137 1.415-.333 2.32-.407a7.2 7.2 0 0 1 1.674.04c.527.08 1.087.25 1.582.592.242.166.468.374.663.63q.293.378.466.875.171.493.206 1.072.034.581-.067 1.237c-.154.972-.595 1.916-1.193 2.801-.628.93-1.448 1.824-2.358 2.66-1.536 1.41-3.373 2.7-5.097 3.764q-.97.6-2.045 1.223a96 96 0 0 1-8.798 4.498c-4.28 1.912-7.528 2.957-8.588 2.787-.608-.098-.584-.8-.697-.955" style="font-variation-settings:normal;display:inline;vector-effect:none;fill:#438de6;fill-opacity:1;fill-rule:nonzero;stroke:none;stroke-width:1.37239;stroke-linecap:butt;stroke-linejoin:miter;stroke-miterlimit:4;stroke-dasharray:none;stroke-dashoffset:0;stroke-opacity:1;-inkscape-stroke:none;stop-color:#000;stop-opacity:1" transform="matrix(1.07117 0 0 1.07203 18.871 -3.866)"/></g></g></svg>