<svg xmlns="http://www.w3.org/2000/svg" xmlns:xlink="http://www.w3.org/1999/xlink" xml:space="preserve" width="128" height="128"><defs><linearGradient xlink:href="#a" id="b" x1="2689.252" x2="2918.07" y1="-1106.803" y2="-1106.803" gradientTransform="matrix(.45451 0 0 .45552 -1222.292 604.173)" gradientUnits="userSpaceOnUse"/><linearGradient id="a"><stop offset="0" style="stop-color:#62a0ea;stop-opacity:1"/><stop offset=".058" style="stop-color:#afd4ff;stop-opacity:1"/><stop offset=".122" style="stop-color:#62a0ea;stop-opacity:1"/><stop offset=".873" style="stop-color:#62a0ea;stop-opacity:1"/><stop offset=".956" style="stop-color:#c0d5ea;stop-opacity:1"/><stop offset="1" style="stop-color:#62a0ea;stop-opacity:1"/></linearGradient></defs><path d="M9.978 0C4.451 0 0 4.46 0 10v86.033c0 5.54 4.45 10 9.978 10h84.043c5.528 0 9.979-4.46 9.979-10V23.945a11.973 12 0 0 0-11.973-12H46a6.492 6.507 0 0 1-5.799-3.581L38.698 5.37A9.738 9.76 0 0 0 30 0Z" style="fill:#438de6;fill-opacity:1;stroke-width:4;stroke-linecap:round;stop-color:#000" transform="translate(12 10.984)"/><path d="M53.979 24a9.94 9.94 0 0 0-7.03 2.89C44.677 29.145 41.566 32 38.318 32H9.978C4.451 32 0 36.46 0 42v54.033c0 5.54 4.45 10 9.978 10h84.043c5.528 0 9.979-4.46 9.979-10V34c0-5.54-4.45-10-9.979-10z" style="fill:url(#b);fill-opacity:1;stroke-width:4;stroke-linecap:round;stop-color:#000" transform="translate(12 10.984)"/><path d="M53.979 20a9.94 9.94 0 0 0-7.03 2.89C44.677 25.145 41.566 28 38.318 28H9.978C4.451 28 0 32.46 0 38v55.978c0 5.54 4.45 10 9.978 10h84.043c5.528 0 9.979-4.46 9.979-10V30c0-5.54-4.45-10-9.979-10z" style="fill:#a4caee;fill-opacity:1;stroke-width:4;stroke-linecap:round;stop-color:#000" transform="translate(12 10.984)"/><path d="M39.243 45.989A3.243 3.243 0 0 0 36 49.232v15.784c0 7.165 5.808 12.973 12.973 12.973H68V49.232a3.243 3.243 0 0 0-3.243-3.243zm4.45 6h1.695v11.004a5.623 5.623 0 0 0 5.63 5.617h7.595V51.988H62v20H51.018c-4.98 0-9.018-4.027-9.018-8.995v-9.315c0-.933.758-1.69 1.694-1.69" style="fill:#438de6;fill-opacity:1;stroke-width:.108108" transform="translate(12 10.984)"/></svg>