<svg xmlns="http://www.w3.org/2000/svg" xmlns:xlink="http://www.w3.org/1999/xlink" xml:space="preserve" width="128" height="128"><defs><linearGradient xlink:href="#a" id="b" x1="2689.252" x2="2918.07" y1="-1106.803" y2="-1106.803" gradientTransform="matrix(.45451 0 0 .45552 -1222.292 604.173)" gradientUnits="userSpaceOnUse"/><linearGradient id="a"><stop offset="0" style="stop-color:#62a0ea;stop-opacity:1"/><stop offset=".058" style="stop-color:#afd4ff;stop-opacity:1"/><stop offset=".122" style="stop-color:#62a0ea;stop-opacity:1"/><stop offset=".873" style="stop-color:#62a0ea;stop-opacity:1"/><stop offset=".956" style="stop-color:#c0d5ea;stop-opacity:1"/><stop offset="1" style="stop-color:#62a0ea;stop-opacity:1"/></linearGradient></defs><g transform="translate(12 10.984)"><path d="M9.978 0C4.451 0 0 4.46 0 10v86.033c0 5.54 4.45 10 9.978 10h84.043c5.528 0 9.979-4.46 9.979-10V23.945a11.973 12 0 0 0-11.973-12H46a6.492 6.507 0 0 1-5.799-3.581L38.698 5.37A9.738 9.76 0 0 0 30 0Z" style="fill:#438de6;fill-opacity:1;stroke-width:4;stroke-linecap:round;stop-color:#000"/><path d="M53.979 24a9.94 9.94 0 0 0-7.03 2.89C44.677 29.145 41.566 32 38.318 32H9.978C4.451 32 0 36.46 0 42v54.033c0 5.54 4.45 10 9.978 10h84.043c5.528 0 9.979-4.46 9.979-10V34c0-5.54-4.45-10-9.979-10z" style="fill:url(#b);fill-opacity:1;stroke-width:4;stroke-linecap:round;stop-color:#000"/><path d="M53.979 20a9.94 9.94 0 0 0-7.03 2.89C44.677 25.145 41.566 28 38.318 28H9.978C4.451 28 0 32.46 0 38v55.978c0 5.54 4.45 10 9.978 10h84.043c5.528 0 9.979-4.46 9.979-10V30c0-5.54-4.45-10-9.979-10z" style="fill:#a4caee;fill-opacity:1;stroke-width:4;stroke-linecap:round;stop-color:#000"/><path d="m52.076 62.588-2.44 1.203-2.195 11.791 4.635 2.407 4.636-2.407-2.196-11.791-2.258-1.114zm-.833 1.684h1.708v.602c0 .223-.09.437-.25.595a.86.86 0 0 1-.603.247h-.001a.86.86 0 0 1-.604-.247.84.84 0 0 1-.25-.595z" style="fill:#438de6;fill-opacity:1;stroke-width:.547176"/><ellipse cx="55.206" cy="60.829" fill="#353535" rx=".689" ry=".68" style="fill:#438de6;fill-opacity:1;stroke-width:.547176"/><path fill="#a78347" fill-rule="evenodd" d="M50.643 60.056a.433.433 0 0 0-.436-.43h-2.056a.433.433 0 0 0-.436.43v1.332a.65.65 0 0 0 .654.645h.748c.405 0 .793-.159 1.08-.441.285-.282.446-.665.446-1.064z" clip-rule="evenodd" style="fill:#438de6;fill-opacity:1;stroke-width:.547176"/><path fill="#e3b261" fill-rule="evenodd" d="m59.154 48.468 4.843-2.48-2.654 9.85-2.19 2.189zm-14.308 0-4.843-2.48 2.654 9.85 2.189 2.189z" clip-rule="evenodd" style="fill:#438de6;fill-opacity:1;stroke-width:.547176"/><path fill="#e3b261" fill-rule="evenodd" d="M59.396 52.962s-3.66-2.407-7.32-2.407-7.319 2.407-7.319 2.407v7.219l.976 1.925c.7-2.66 3.87-3.769 6.076-2.125l.267.2.268-.2c2.206-1.644 5.376-.536 6.076 2.125l.976-1.925z" clip-rule="evenodd" style="fill:#438de6;fill-opacity:1;stroke-width:.547176"/><path d="m59.396 60.18-2.44 4.815s1.803 7.034 1.944 7.216h.002l.002.002h.004l2.44-4.812zm-2.44 4.815-2.44-1.204L56.469 75.1l2.69-1.924zM44.757 60.18l2.442 4.815s-1.804 7.034-1.946 7.216h-.002l-.002.002h-.004l-2.44-4.812zm2.442 4.815 2.439-1.204L47.685 75.1l-2.69-1.924z" style="fill:#438de6;fill-opacity:1;stroke-width:.547176"/></g></svg>