<svg xmlns="http://www.w3.org/2000/svg" xml:space="preserve" width="1000" height="500"><path d="M352.486 32.225c-11.78-.447-18.489.054-25.686 1.922-36.091 9.362-55.686 19.366-58.424 29.83-.864 3.3-3.16 7.904-5.104 10.23-60.412 72.3-165.82 546.88 58.197 343.4 34.301-31.157 39.613-35.523 59.305-48.718 35.127-21.686 78.742-22.5 119.226-22.829 40.483.329 84.098 1.143 119.225 22.83 19.692 13.194 25.004 17.56 59.305 48.717 224.016 203.48 118.61-271.1 58.197-343.4-1.943-2.326-4.24-6.93-5.104-10.23-2.738-10.464-22.333-20.468-58.424-29.83-7.197-1.867-13.905-2.37-25.686-1.922-15.585.593-16.036.71-20.098 5.239-2.285 2.548-5.923 5.058-8.082 5.578s-14.174 5.593-26.699 11.275C565.376 66.684 561.062 67.574 500 67.572c-61.063.001-65.377-.888-92.635-13.255-12.525-5.682-24.54-10.755-26.699-11.275s-5.797-3.03-8.082-5.578c-4.062-4.53-4.514-4.646-20.098-5.239" style="fill:#000;fill-opacity:1;fill-rule:evenodd;stroke:none;stroke-width:3.33003;stroke-linecap:round;stroke-miterlimit:7;stroke-opacity:1;paint-order:stroke markers fill"/><circle cx="594.621" cy="155.488" r="20.64" style="opacity:.5;fill:none;stroke-width:2.82213"/><circle cx="523.07" cy="155.488" r="15.136" style="opacity:.5;fill:none;stroke-width:1.88142"/><circle cx="433.631" cy="155.488" r="15.136" style="opacity:.5;fill:none;stroke-width:1.88142"/><circle cx="560.22" cy="247.678" r="44.031" style="opacity:.5;fill:none;stroke-width:3.76284"/><circle cx="322.177" cy="155.487" r="44.031" style="opacity:.5;fill:none;stroke-width:3.76284"/><circle cx="635.901" cy="114.209" r="20.64" style="opacity:.5;fill:none;stroke-width:2.82213"/><circle cx="677.18" cy="155.488" r="20.64" style="opacity:.5;fill:none;stroke-width:2.82213"/><circle cx="635.901" cy="196.767" r="20.64" style="opacity:.5;fill:none;stroke-width:2.82213"/><path d="M385.103 302.718a3.763 3.763 0 0 1-3.763-3.763v-29.256h-29.256a3.763 3.763 0 0 1-3.763-3.763v-24.131a3.763 3.763 0 0 1 3.763-3.763h29.256v-29.256a3.763 3.763 0 0 1 3.763-3.763h24.126a3.763 3.763 0 0 1 3.763 3.763v29.256h29.256a3.763 3.763 0 0 1 3.763 3.763v24.126a3.763 3.763 0 0 1-3.763 3.763h-29.256v29.256a3.763 3.763 0 0 1-3.763 3.763z" style="opacity:.5;fill:none;stroke-width:.94071"/><path d="M560.22 199.532c-26.566 0-48.147 21.58-48.147 48.145s21.58 48.144 48.146 48.144c26.565 0 48.146-21.578 48.146-48.144 0-26.567-21.58-48.145-48.145-48.145m0 4.113c24.34 0 44.03 19.69 44.03 44.033 0 24.341-19.688 44.03-44.03 44.03s-44.03-19.689-44.03-44.03 19.687-44.033 44.03-44.033" style="baseline-shift:baseline;display:inline;overflow:visible;vector-effect:none;fill:#dfdfe7;stroke-width:1.09345;stop-color:#000;fill-opacity:1"/><path d="M560.48 219.034c-15.95 0-28.902 12.953-28.902 28.902s12.952 28.902 28.901 28.902 28.902-12.953 28.902-28.902-12.951-28.902-28.902-28.902m0 2.059c14.838 0 26.845 12.006 26.845 26.844s-12.007 26.842-26.845 26.842-26.844-12.006-26.844-26.843 12.006-26.843 26.844-26.843" style="baseline-shift:baseline;display:inline;overflow:visible;vector-effect:none;fill:#dfdfe7;stroke-width:1.09345;stop-color:#000;fill-opacity:1"/><circle cx="479.726" cy="94.256" r="24.079" style="opacity:.5;fill:none;stroke-width:1.88142"/><circle cx="675.956" cy="107.81" r="22.21" style="fill:#dfdfe7;stroke:#dfdfe7;stroke-width:3.25959;fill-opacity:1;stroke-opacity:1"/><circle cx="675.956" cy="203.166" r="22.21" style="fill:#dfdfe7;stroke:#dfdfe7;stroke-width:3.25959;fill-opacity:1;stroke-opacity:1"/><circle cx="-155.677" cy="628.089" r="22.21" style="fill:#dfdfe7;stroke:#dfdfe7;stroke-width:3.25959;fill-opacity:1;stroke-opacity:1" transform="rotate(-90)"/><circle cx="-155.677" cy="723.444" r="22.21" style="fill:#dfdfe7;stroke:#dfdfe7;stroke-width:3.25959;fill-opacity:1;stroke-opacity:1" transform="rotate(-90)"/><path d="M385.836 200.248a7.46 7.46 0 0 0-7.48 7.481V227.8a2.637 2.637 0 0 1-2.636 2.636h-20.07a7.46 7.46 0 0 0-7.48 7.48v19.525a7.46 7.46 0 0 0 7.48 7.48h20.07a2.637 2.637 0 0 1 2.636 2.636v20.07a7.46 7.46 0 0 0 7.48 7.48h19.527a7.46 7.46 0 0 0 7.478-7.48v-20.07a2.637 2.637 0 0 1 2.637-2.637h20.073a7.46 7.46 0 0 0 7.477-7.479v-19.526a7.46 7.46 0 0 0-7.478-7.479h-20.073a2.637 2.637 0 0 1-2.637-2.636v-20.07a7.46 7.46 0 0 0-7.477-7.48z" style="fill:#dfdfe7;fill-rule:evenodd;stroke:none;stroke-width:3.17206;stroke-miterlimit:7;paint-order:stroke markers fill;fill-opacity:1"/><path d="M395.599 189.888c-31.888 0-57.791 25.903-57.791 57.79 0 31.888 25.903 57.79 57.79 57.79 31.888 0 57.792-25.902 57.792-57.79s-25.904-57.79-57.791-57.79m0 4.938c29.218 0 52.85 23.634 52.85 52.853 0 29.218-23.632 52.85-52.85 52.85-29.219 0-52.851-23.632-52.851-52.85 0-29.219 23.632-52.853 52.85-52.853" style="baseline-shift:baseline;display:inline;overflow:visible;vector-effect:none;fill:#dfdfe7;fill-opacity:1;stroke-width:1.31249;stop-color:#000"/><path d="M500.002 111.578c-14.402 0-26.1 11.697-26.1 26.098s11.698 26.099 26.1 26.099c14.4 0 26.095-11.698 26.095-26.099s-11.695-26.098-26.096-26.098" style="baseline-shift:baseline;display:inline;overflow:visible;vector-effect:none;fill:#dfdfe7;fill-opacity:1;stroke-width:1.08382;stop-color:#000"/><path d="M553.343 122.54c-8.348 0-15.137 6.789-15.137 15.137s6.789 15.135 15.137 15.135 15.137-6.787 15.137-15.135-6.789-15.137-15.137-15.137m-106.686 0c8.348 0 15.137 6.789 15.137 15.137s-6.789 15.135-15.137 15.135-15.137-6.787-15.137-15.135 6.789-15.137 15.137-15.137" style="baseline-shift:baseline;display:inline;overflow:visible;vector-effect:none;fill:#dfdfe7;fill-opacity:1;stop-color:#000"/><path d="M322.176 89.531c-26.566 0-48.147 21.58-48.147 48.145s21.58 48.144 48.146 48.144c26.565 0 48.146-21.578 48.146-48.144 0-26.567-21.58-48.145-48.145-48.145m0 4.113c24.34 0 44.03 19.69 44.03 44.033 0 24.341-19.688 44.03-44.03 44.03s-44.03-19.689-44.03-44.03 19.687-44.033 44.03-44.033" style="baseline-shift:baseline;display:inline;overflow:visible;vector-effect:none;fill:#dfdfe7;stroke-width:1.09345;stop-color:#000;fill-opacity:1"/><path d="M322.435 109.033c-15.949 0-28.9 12.953-28.9 28.902s12.951 28.902 28.9 28.902c15.95 0 28.902-12.953 28.902-28.902s-12.951-28.902-28.902-28.902m0 2.059c14.838 0 26.845 12.006 26.845 26.844s-12.007 26.842-26.845 26.842-26.844-12.006-26.844-26.843 12.006-26.843 26.844-26.843" style="baseline-shift:baseline;display:inline;overflow:visible;vector-effect:none;fill:#dfdfe7;stroke-width:1.09345;stop-color:#000;fill-opacity:1"/></svg>