<svg xmlns="http://www.w3.org/2000/svg" xmlns:xlink="http://www.w3.org/1999/xlink" xml:space="preserve" width="3600" height="5600"><defs><linearGradient id="b"><stop offset="0" style="stop-color:#54471a;stop-opacity:1"/><stop offset=".5" style="stop-color:#5f501d;stop-opacity:1"/><stop offset="1" style="stop-color:#54471a;stop-opacity:1"/></linearGradient><linearGradient id="a"><stop offset="0" style="stop-color:#6d5b21;stop-opacity:1"/><stop offset="1" style="stop-color:#514419;stop-opacity:1"/></linearGradient><linearGradient xlink:href="#a" id="d" x1="266.404" x2="239.057" y1="500.442" y2="587.324" gradientTransform="translate(448.22 617.869)scale(2.10065)" gradientUnits="userSpaceOnUse"/><linearGradient xlink:href="#a" id="f" x1="266.404" x2="239.057" y1="500.442" y2="587.324" gradientUnits="userSpaceOnUse"/><linearGradient xlink:href="#a" id="c" x1="266.404" x2="239.057" y1="500.442" y2="587.324" gradientTransform="translate(448.22 617.869)scale(2.10065)" gradientUnits="userSpaceOnUse"/><linearGradient xlink:href="#b" id="e" x1="229.456" x2="232.879" y1="476.261" y2="502.297" gradientTransform="translate(448.22 617.869)scale(2.10065)" gradientUnits="userSpaceOnUse"/></defs><path d="M0 0h3600v5600H0z" style="fill:#fffff7;fill-opacity:1;fill-rule:evenodd;stroke-width:11.225;stroke-miterlimit:7;paint-order:stroke markers fill"/><text xml:space="preserve" x="1796.111" y="4398.083" style="font-size:414.268px;line-height:.8;font-family:&quot;Magic Bubble&quot;;-inkscape-font-specification:&quot;Magic Bubble&quot;;text-align:center;text-decoration-color:#000;text-anchor:middle;fill:#f2f2ed;fill-opacity:1;stroke-width:12.0346;stroke-linecap:round;stroke-linejoin:bevel;stroke-miterlimit:7;stroke-dashoffset:3.3;-inkscape-stroke:none;stop-color:#000"><tspan x="1796.111" y="4398.083" style="fill:#f2f2ed;fill-opacity:1;stroke-width:12.0346">You&apos;re the only</tspan><tspan x="1796.111" y="4733.543" style="fill:#f2f2ed;fill-opacity:1;stroke-width:12.0346">man I&apos;d like to</tspan><tspan x="1796.111" y="5069.003" style="fill:#f2f2ed;fill-opacity:1;stroke-width:12.0346">have for dessert!</tspan></text><text xml:space="preserve" x="1821.792" y="548.217" style="font-size:527.015px;line-height:.8;font-family:&quot;Magic Bubble&quot;;-inkscape-font-specification:&quot;Magic Bubble&quot;;text-align:center;text-decoration-color:#000;text-anchor:middle;fill:#f2f2ed;fill-opacity:1;stroke-width:10.9795;stroke-linecap:round;stroke-linejoin:bevel;stroke-miterlimit:7;stroke-dashoffset:3.3;-inkscape-stroke:none;stop-color:#000"><tspan x="1821.792" y="548.217">To Anthony:</tspan></text><path d="M1453.473 834.288c-51.572.433-100.282 5.712-144.916 14.377-71.415 13.865-132.427 36.362-178.404 61.887-27.035 15.009-90.727 55.148-94.045 101.771-.246 3.45.198 7.613 2.265 11.418 2.067 3.806 5.483 6.615 8.854 8.342 6.741 3.454 13.891 4.312 24.058 5.201 10.168.89 23.288 1.4 40.598 2.04 60.207 2.22 102.338 16.293 129.867 37.02 84.43 63.57 41.084 199.311-50.646 298.507l.222-.227c-70.161 71.828-104.405 138.025-120.59 186.746-6.82 20.53-10.44 37.94-12.226 51.426a569 569 0 0 0-12.383-3.486c-40.002-10.775-74.597-15.503-92.998-15.489h-.01c-67.233.143-115.527 41.428-139.787 107.399-22.653 61.6-25.297 144.787-5.935 238.603-21.282 24.654-40.343 50.873-53.338 81.123-65.588 132.476-13.849 227.304-8.48 236.504 25.919 44.518 58.497 79.767 104.19 106.178 1.747.673-1.863 5.376-8.025 10.453-65.262 53.772-141.592 143.565-171.924 230.115-.023-.051-.05-.094-.074-.146l-.084.643c-9.46 27.147-14.514 53.98-13.103 79.26 4.749 71.003 23.9 33.414-10.325 101.939-43.775 94.625-61.54 252.425 93.526 352.209 59.496 35.087 113.38 47.527 181.152 46.916 59.334-2.585 46.162 10.522 113.92 20.703 54.513 5.768 102.944-3.18 145.998-20.107.075-.026.164-.04.238-.066.463-.162.94-.444 1.403-.61 160.808-64.253 241.52-246.215 241.52-246.215 8.323 5.398 14.706 13.222 21.993 19.85-11.903 34.504-25.16 68.728-32.236 104.644-4.764 4.488-9.652 10.802-14.476 15.471-1.008.896-1.92 1.768-2.575 2.531l-2.252 2.63c-148.519 145.085-317.134 370.885-206.59 586.747 1.254 2.447 1.772 3.893 2.856 6.11-10.294-2.06-21.527-2.904-33.447-2.584-25.84.693-54.571 6.107-78.684 17.058-21.5 9.766-50.042 28.396-68.369 44.487-37.697 33.099-54.599 38.784-115.105 38.804-36.776 0-66.919 4.948-89.858 16.204-20.315 9.967-35.089 22.83-43.021 37.488s-8.213 31.836.767 45.687 25.74 24.038 49.623 29.936 55.257 7.558 95.125 3.273c74.081-7.963 79.674-5.484 134.143 15.883 97.298 38.169 155.843 23.014 212.44 8.522 56.579-14.488 111.567-28.413 213.365 9.185 127.966 49.483 244.428 7.434 368.425-10.59 135.58 19.94 265.184 44.367 403.576 11.324l.087-.02.085-.02c100.778-26.065 138.95-26.154 228.446-8.208 91.446 18.339 128.697 18.625 201.166-10.21 61.269-24.38 95.285-22.661 126.97-18.307s62.274 12.038 108.877-1.942c11.976-3.592 22.438-9.42 30.01-18.306 7.085-8.316 13.47-19.372 14.942-31.887 2.758-23.463-9.833-43.972-28.942-55.955-33.756-21.169-70.515-18.81-106.496-20.197s-71.467-5.673-108.619-36.87c-34.91-29.313-105.686-78.09-182.967-63.257 2.22-4.991 3.728-8.788 6.52-14.695l.123-.26.107-.27c47.096-117.844 29.84-224.818-16.83-321.758-42.691-88.672-176.198-237.133-214.709-276.003-8.555-43.425-26.215-91.459-52.824-149.73 5.47-6.776 10.911-13.987 14.724-19.636 6.92-10.25 13.325-18.64 14.233-18.64s12.26 10.427 25.228 23.166c54.097 51.53 116.406 89.871 183.229 111.236 50.42 16.002 107.137 14.339 155.018-4.543 25.421-10.025 55.302-26.63 55.302-26.63 17.478 2.241 34.081 3.182 49.836 2.935h.032c278.622-4.39 291.332-380.808 162.093-520.26-3.497-3.773-7.668-12.03-9.27-18.35-35.808-141.968-142.313-211.212-262.922-280.61-5.281-3.108 22.96-16.365 43.93-82.392 24.605-77.58 16.345-147.884-16.904-221.27-15.24-33.06-28.63-47.054-36.635-57.087 2.379-6.89 4.502-14.216 6.34-22 24.09-102.03 22.78-192.757-1.48-258.729-24.26-65.97-72.555-107.257-139.788-107.4h-.01c-18.4-.014-52.997 4.714-93 15.488-34.279 9.233-72.346 22.91-106.77 42.063-3.445-10.9-8.262-24.863-14.618-41.307-15.574-40.292-40.373-95.44-76.7-156.17-72.653-121.458-191.537-265.408-374.94-356.074l-.063-.031-.066-.033c-128.2-61.392-255.504-83.876-368.963-82.923Zm-30.086 12.375c.604-.027 1.27.048 1.875.022-.974.017-1.87.054-2.836.072.335-.016.637-.074.973-.09zm-353.445 767.89c.437.754.912 1.486 1.422 2.188l-1.633-.521q.1-.822.21-1.666m435.92 1046.532c8.222.258 40.234 14.025 40.265 15.719.02 1.018-5.95 4.749-13.267 8.29-7.318 3.543-18.864 11.532-25.657 17.755l-12.35 11.314 1.82-11.203c.998-6.162 1.845-16.872 1.886-23.805.076-13.047.811-18.274 7.303-18.07m-140.01 366.383c-14.182 19.724-30.681 40.046-49.563 59.465 17.334-18.544 34.005-38.618 49.563-59.465m-149.469 686.502c.036.099.078.608.043.68a.8.8 0 0 1-.07-.194c.001-.306.014-.447.027-.486" style="fill:#d5d5d5;fill-opacity:.318383;fill-rule:evenodd;stroke-width:42.0131;stroke-miterlimit:7;paint-order:stroke markers fill"/><path d="M1836.67 2939.398c-11.152-.048-20.05-7.796-30.476-.735-10.426 7.062-23.149 28.57-41.373 45.443-26.106 24.17-70.335 55.422-95.551 67.804-40.953 20.11-55.252 22.984-113.39 22.984-39.678 0-64.438-3.345-82.061-12.518s-29.761-24.537-43.999-52.352l-12.845-45.375c-2.963-5.786-16.048 3.402-20.277 8.339l-41.43 48.352c-106.949 124.818-163.214 222.301-185.752 323.607-17.998 80.894-10.551 140.263 26.754 213.11 5.505 10.749 9.299 19.207 12.571 26.873-5.013-3.241-10.938-5.35-17.531-6.843-9.915-2.247-21.453-3.08-33.791-2.75-24.677.663-52.458 5.967-75.029 16.22-20.17 9.16-48.713 27.764-66.043 42.98-38.504 33.807-60.077 41.135-121.337 41.156-35.908 0-64.759 4.96-85.696 15.234-20.938 10.273-43.407 24.382-43.407 45.174 0 10.617 10.98 23.371 16.193 31.475 5.212 8.104 13.602 13.882 24.186 17.453 21.168 7.143 52.287 9.564 100.347 4.399 74.424-8 84.068-4.912 138.602 16.48 71.48 28.041 105.68 31.227 195.812 9.729 90.958-21.696 145.152-23.377 229.915 7.947 87.052 32.17 156.655 28.78 230.485 10.953 30.986-7.482 134.49-22.274 134.49-22.274s116.73 12.434 147.715 19.916c76.36 18.438 155.153 17.277 253.744-8.222 101.37-26.217 142.62-26.379 232.672-8.32 91.042 18.256 124.313 18.722 195.812-9.728 53.157-21.152 60.279-24.373 138.602-16.481 45.772 4.611 76.53 2.41 98.025-4.038 10.748-3.223 19.416-8.207 25.528-15.381s11.6-17.075 12.75-26.862c2.313-19.665-7.826-36.338-24.574-46.841s-41.01-15.593-74.454-17.741c-46.743-3.002-73.61-5.689-92.532-11.123s-30.592-13.359-49.189-28.974c-20.677-17.363-51.81-37.881-71.836-47.043-22.443-10.268-50.11-15.524-74.725-16.116-12.307-.296-23.827.577-33.738 2.868-4.862 1.124-9.388 2.553-13.453 4.521 3.705-9.024 8.5-20.045 14.84-33.459 24.738-52.343 23.197-69.16 27.444-133.407 7.977-120.678-54.538-236.243-178.572-379.201l-59.316-62.227c-4.652-5.45-11.068-8.128-13.247-1.301l-7.873 24.67c-3.547 11.116-16.655 32.816-27.194 44.13-30.278 32.504-80.508 44.017-137.47 34.915-56.96-9.102-130.001-29.706-172.864-87.09-31.219-41.795-46.742-59.38-89.959-47.868-9.903 2.638-18.072-2.43-25.503-2.462m-620.32 666.838c.226.872 0-1.474 0 0" style="fill:#fbf7da;fill-rule:evenodd;stroke-width:42.0131;stroke-miterlimit:7;paint-order:stroke markers fill"/><path d="M1355.267 3021.34c-106.948 124.818-163.213 222.301-185.751 323.607-17.998 80.894-10.551 140.263 26.754 213.11 5.505 10.749 9.299 19.207 12.571 26.873-5.013-3.241-10.938-5.35-17.531-6.844-9.915-2.246-21.453-3.08-33.791-2.748-24.677.661-52.458 5.966-75.029 16.218-20.17 9.161-48.713 27.765-66.043 42.981-38.504 33.807-60.077 41.135-121.337 41.156-35.908 0-64.759 4.96-85.696 15.234-20.938 10.273-43.408 24.38-43.408 45.172 0 10.617 10.981 23.373 16.194 31.477s13.602 13.882 24.186 17.453c21.168 7.143 52.287 9.564 100.347 4.399 74.424-8 84.068-4.912 138.602 16.48 71.48 28.041 105.68 31.227 195.812 9.728 90.958-21.695 145.152-23.376 229.915 7.948 87.052 32.17 156.655 28.782 230.485 10.954 30.986-7.482 134.49-22.274 134.49-22.274s116.73 12.433 147.715 19.915c76.36 18.438 155.153 17.277 253.744-8.222 101.37-26.217 142.62-26.379 232.672-8.32 91.042 18.256 124.313 18.722 195.812-9.728 53.157-21.152 60.279-24.373 138.602-16.481 45.772 4.611 76.53 2.41 98.025-4.038 10.748-3.223 19.416-8.207 25.528-15.381s11.601-17.074 12.752-26.861c2.312-19.665-7.828-36.34-24.576-46.842-16.749-10.504-41.01-15.593-74.454-17.741-46.743-3.002-73.61-5.689-92.532-11.123s-30.592-13.359-49.189-28.974c-20.677-17.363-51.81-37.881-71.836-47.043-22.443-10.268-50.11-15.524-74.725-16.116-12.307-.296-23.827.576-33.738 2.868-4.862 1.124-9.388 2.553-13.453 4.521 2.836-6.908 6.313-14.987 10.63-24.412a581 581 0 0 1-22.799 6.638c-298.7 71.555-1054.675 116.982-1138.948-543.584m-138.885 584.395c.037.086.081.613.045.686a.8.8 0 0 1-.07-.194c.001-.322.015-.461.03-.492z" style="fill:#f9e3d6;fill-opacity:1;fill-rule:evenodd;stroke-width:42.0131;stroke-miterlimit:7;paint-order:stroke markers fill"/><path d="M2181.653 3265.787c0 208.71-479.012 127.468-479.011-40.635 0-114.694 479.01-143.07 479.01 40.635" style="vector-effect:none;fill:#faf9e4;fill-opacity:1;fill-rule:evenodd;stroke-width:72.2608;stop-color:#000"/><path d="M1948.086 2971.99c-580.435 333.921-394.259 666.885-353.238 653.189 2.139-.714 3.217-16.96 3.402-51.228 1.71-316.638 395.498-590.605 370.646-606.334-5.636-3.567-8.17-3.005-20.81 4.374" style="display:inline;fill:#f6ccd6;fill-opacity:1;stroke-width:2.10065"/><path d="M1887.139 2900.835c-44.667 7.543-65.654 8.583-86.64 9.621l-46.867 79.226c20.993 16.047 41.986 32.093 82.439 45.903s100.36 25.383 145.687 33.725 76.073 13.453 109.087 14.532c12.376.405 25.073.24 36.314-2.162-3.817-.474-7.413-1.061-10.688-1.764-58.713-12.598-123.904-53.178-178.22-110.494-24.125-25.458-41.581-48.68-51.112-68.587" style="fill:#f9e3d6;fill-opacity:1;fill-rule:evenodd;stroke:none;stroke-width:10.5033;stroke-miterlimit:7;stroke-dasharray:none;stroke-opacity:1;paint-order:stroke markers fill"/><path d="M1914.16 2036.523c-4.27 0-7.025 2.545-8.12 3.902s-1.39 2.188-1.649 2.835c-.518 1.295-.62 1.954-.755 2.638-.269 1.369-.404 2.6-.545 4.12-.283 3.037-.504 7.015-.686 11.902-.362 9.773-.55 23.05-.488 37.668.174 40.159-.972 55.85-4.37 68.6-6.587 24.72-14.901 37.877-22.257 42.493-4.032 2.53-12.971 4.463-23.284 3.77s-21.905-3.697-31.612-8.608c-16.17-8.18-53.42-39.847-81.4-71.11l-20.195-22.566c-4.903-5.479-13.804-4.193-16.957 2.45l-7.89 16.624c-12.304 25.922-26.24 35.432-41.356 34.8-15.117-.63-35.35-13.209-56.447-41.372l-15.931-21.27c-4.27-5.7-12.903-5.44-16.822.51l-16.998 25.81c-22.93 34.818-44.68 59.508-75.447 85.676-12.801 10.887-19.437 16.267-23.965 22.204-2.263 2.969-4.156 6.883-4.324 10.938s1.016 6.96 1.863 9.17c.09.236 2.965 9.724 6.133 21.376 3.17 11.652 7.128 26.654 11.09 42.14 14.599 57.059 24.802 117.5 27.855 164.446 1.716 26.392 1.762 38.672 5.543 48.935 1.89 5.13 5.629 9.711 9.666 12.419s7.893 4.148 12.542 6.22c11.466 5.11 25.555 9.774 40.643 14.159-1.451.496-2.853.932-4.44 1.538-5.267 2.014-11.091 4.706-16.993 7.771-11.805 6.13-23.608 13.365-31.362 20.625-7.078 6.626-12.774 14.096-17.532 26.467-4.758 12.372-9.377 29.987-17.014 60.702-8.242 33.146-20.39 72.272-29.024 93.795-4.431 11.046-8.136 21.326-10.675 29.47-1.27 4.073-2.253 7.588-2.905 10.61-.327 1.511-.575 2.886-.718 4.35s-.536 2.748.488 5.973c1.622 5.11 3.942 7.164 6.725 10.18s6.152 6.157 9.871 9.313c7.438 6.311 16.05 12.563 23.928 16.6 2.218 1.137 4.293 2.307 7.393 3.126 3.1.82 6.97 1.06 8.879-1.879 6.29-9.688 10.543-10.626 18.7-16.1 44.623-37.372 68.886-55.501 101.16-94.258 9.484-11.39 19.582-22.946 28.125-32.302s16.205-16.752 18.257-18.647c15.662-14.46 28.432-19.634 37.336-18.68 7.267.778 12.927 4.718 19.398 19.07l5.45 12.078c1.824 4.043 7.146 2.1 11.56 2.52l16.839 1.6c28.421-2.973 43.372-4.382 51.802-4.263s10.506-3.361 17.45 0c12.198 5.905 21.055 9.792 23.907 21.773s2.57 38.175-3.364 64.489l-11.172 27.678a10.3 10.3 0 0 0 .951 7.094l6.934 13.026c9.175 17.232 8.681 31.027-1.879 48.135-2.768 4.484-5.271 8.845-7.168 12.444-.948 1.799-1.738 3.389-2.387 4.866a26 26 0 0 0-.899 2.277c-.282.837-.734 1.43-.734 4.14 0 5.851 2.807 7.669 4.267 8.985 1.459 1.315 2.763 2.126 4.184 2.95 2.844 1.646 6.145 3.133 9.979 4.656 16.723 8.346 33.926 8.566 51.97 8.71 4.037.116 8.547 2.702 11.804 2.24 1.629-.23 3.074-.29 5.765-1.727 1.345-.717 3.445-1.909 4.96-5.165s.76-7.97-.59-10.196c-18.285-30.093-27.067-45.332-29.373-53.78-1.153-4.223-1.127-6.59-.287-10.306s2.877-8.79 5.928-16.038c3.627-8.618 6.11-14.15 6.511-21.24.403-7.09-1.22-13.288-3.733-24.306-2.452-10.747-15.716-31.855-13.587-44.592 3.13-18.724 10.218-44.019 32.312-47.05 7.892-1.083 18.49.586 32.84 2.012 13.702 1.362 30.473 2.565 38.677 2.7 6.598.109 12.41.569 18.372-3.402 5.963-3.97 7.897-9.019 11.336-15.783 4.528-8.904 9.153-13.151 13.495-14.816 4.341-1.664 9.75-1.524 18.196 2.417 16.891 7.882 42.407 31.625 74.405 71.693 13.202 16.532 35.654 40.782 51.105 55.2l29.175 21.523c3.719 3.468 7.247 7.374 11.234 4.218l10.983-8.698c14.606-11.569 33.774-35.712 42.587-53.14 2.967-5.867 5.35-10.321 7.082-14.976 1.732-4.654 2.688-10.07 1.629-15.365-2.119-10.59-8.791-17.635-20.096-32.507-42.204-55.52-83.944-138.609-99.31-197.092a2732 2732 0 0 0-6.625-24.81 657 657 0 0 0-2.167-7.766 114 114 0 0 0-.697-2.355c-.1-.32-.187-.595-.316-.96-.065-.183-.131-.375-.287-.743s.701-.217-2.015-3.106c0 0-1.516-1.369-2.252-1.805-.737-.436-1.42-.72-2.019-.92a9.8 9.8 0 0 0-2.745-.512c-.729-.035-.943.051-1.35.1l2.663-2.352a10.29 10.29 0 0 0 3.246-9.88l-4.48-20.768c-9.353-43.34-13.23-77.815-14.947-133.346-.792-25.603-.289-57.973 1.013-85.795.651-13.91 1.5-26.7 2.47-36.893.97-10.191 2.278-18.24 2.954-20.542.65-2.213 1.042-5.208.238-8.3s-2.725-5.725-4.644-7.468c-3.839-3.486-7.726-4.954-13.088-7.003-22.822-8.723-62.502-29.157-97.997-49.612-17.747-10.227-34.542-20.49-47.847-29.302s-23.512-16.827-26.176-19.78c-1.917-2.125-3.877-3.997-5.85-5.576-.988-.789-1.957-1.501-3.172-2.207s-2.13-1.887-6.458-1.887z" style="fill:#fbf7da;fill-rule:evenodd;stroke-width:14.8539;stroke-miterlimit:7;paint-order:stroke markers fill"/><path d="M1680.078 2763.686c-48.841 39.913-114.66 84.026-155.519 100.7-40.858 16.676-56.753 5.913-68.797-5.603s-20.233-23.785-27.165-48.163-12.605-60.864-1.352-96.997 39.43-71.912 57.812-92.393c18.38-20.482 26.963-25.665 37.488-32.087 10.525-6.421 22.99-14.081 30.304-18.03 7.314-3.947 9.477-4.182 15.014-3.186s14.45 3.224 34.926 6.734c180.21 30.894 255.706-4.242 260.325 2.229-50.924 66.653-118.617 132.879-183.037 186.796" style="fill:#f8e1d3;fill-opacity:1;fill-rule:evenodd;stroke:none;stroke-width:10.5033;stroke-miterlimit:7;stroke-dasharray:none;stroke-opacity:1;paint-order:stroke markers fill"/><path d="M1685.825 2685.85c-5.452-.254-11.454 1.476-18.139 4.863-7.021 3.556-17.433 12.906-29.799 25.531-12.365 12.626-26.317 28.427-38.899 44.393-24.762 31.422-41.468 48.05-72.608 72.268-12.951 10.072-32.237 25.302-42.911 33.885a200 200 0 0 1-11.033 8.259l2.134-2.536a3.227 3.227 0 0 0-.89-4.89l-8.3-4.665c-2.44-1.371-4.86-2.47-6.955-3.188-1.047-.359-2.002-.625-2.954-.767s-1.902-.492-3.561.533c-1.722 1.064-2.028 2.015-2.831 3.373-.804 1.357-1.675 3.06-2.626 5.075-1.902 4.03-4.105 9.292-6.339 15.053-4.468 11.522-9.028 24.958-11.283 34.288-5.202 21.526-6.1 52.622-1.842 70.814 10.57 45.154 43.934 78.375 90.706 90.5 20.578 5.336 53.667 5.744 76.645 1.047 67.003-13.697 134.2-57.34 193.243-125.07 25.405-29.143 36.69-46.758 43.092-67.681 2.602-8.504 3.761-15.356 3.164-21.31-.598-5.954-3.15-10.941-7.34-14.877-2.257-2.12-4.994-6.656-5.375-8.173.103.41-.049-1.182.16-3.135s.605-4.57 1.161-7.64c1.113-6.137 2.856-14.092 4.993-22.52 10.006-39.455 11.622-57.432 5.268-71.795-3.672-8.302-7.45-12.183-15.073-15.472-14.413-6.217-26.953-6.989-58.36-3.828-21.378 2.152-34.47 2.339-42.078.123-3.804-1.108-6.214-2.676-8.127-4.956s-3.351-5.431-4.546-9.76c-1.468-5.315-3.684-9.616-6.852-12.707s-7.302-4.822-11.845-5.034" style="fill:#fbf7da;fill-opacity:1;fill-rule:evenodd;stroke:none;stroke-width:10.5033;stroke-miterlimit:7;stroke-dasharray:none;stroke-opacity:1;paint-order:stroke markers fill"/><path d="m2126.236 2477.234-109.69 52.434c161.748 49.392 144.678 167.42 115.487 251.053 20.146 21.074 44.176 43.872 61.912 58.387a230 230 0 0 0 4.64-3.16c33.114-23.133 49.346-48.165 62.659-78.831s23.382-69.29 8.985-114.687-53.258-97.562-81.335-126.223-45.368-33.817-62.658-38.973" style="fill:#f9e3d6;fill-opacity:1;fill-rule:evenodd;stroke:none;stroke-width:10.5033;stroke-miterlimit:7;stroke-dasharray:none;stroke-opacity:1;paint-order:stroke markers fill"/><path d="M2131.22 2545.677c-79 125.744-224.375 215.261-255.782 265.085 109.387-1.884 294.605-154.076 306.614-183.91 1.42-3.524-20.058-88.55-22.998-98.399q-2.548-8.578-4.915-16.764z" style="fill:#f6ccd6;fill-opacity:1;stroke-width:2.10065"/><path d="M1963.168 2965.488c-3.229-.057-7.182 1.89-15.082 6.503-38.248 22.004-73.168 44.003-105.02 65.9 15.288 4.872 32.843 9.449 51.084 13.683 49.333-48.853 82.52-79.037 74.746-83.957-2.114-1.338-3.79-2.095-5.728-2.13" style="display:inline;fill:#f6bcce;fill-opacity:1;stroke-width:2.10065"/><path d="M2029.376 2685.695c-5.588 0-10.156.863-13.745 3.713s-5.717 7.153-7.68 13.063c-.864 2.602-2.118 5.452-3.389 7.812s-2.727 4.31-3.2 4.739c-2.34 2.118-6.847 3.803-14.844 4.394-7.998.591-19.282.12-34.645-1.407-17.802-1.77-32.078-2.076-43.436-.242-11.36 1.833-20 5.951-25.495 13.108s-7.582 16.878-7.193 29.208 3.231 27.46 8.05 46.1c2.027 7.84 3.872 15.595 5.202 21.736.666 3.071 1.203 5.74 1.568 7.792.364 2.051.533 3.675.533 3.811 0 .613-.47 2.512-1.49 4.534-1.018 2.022-2.507 4.26-4.188 6.175-3.085 3.513-5.152 6.097-6.13 9.58s-.791 7.144-.398 13.137c1.612 24.548 22.849 57.95 59.356 96.474 54.315 57.316 119.506 97.896 178.219 110.494 21.745 4.666 57.681 4.286 77.954-.899 38.888-9.946 77.283-37.318 90.562-65.653 8.552-18.248 11.625-36.417 8.177-60.041-3.449-23.625-13.238-52.785-30.214-94.128l-19.053-46.394a3.42 3.42 0 0 0-5.518-1.178l-15.435 14.676-15.435 14.676a3.42 3.42 0 0 0 .226 5.153l7.754 6.175c5.38 4.285 13.345 11.788 19.845 18.442.98 1.004 1.568 1.714 2.47 2.667-.998-.797-1.123-.728-2.26-1.67-6.812-5.643-22.173-17.668-34.312-26.874-26.583-20.157-75.436-68.222-97.164-95.616-15.267-19.25-29.9-34.945-42.612-45.936s-23.161-17.621-32.08-17.621" style="fill:#fbf7da;fill-opacity:1;fill-rule:evenodd;stroke:none;stroke-width:10.5033;stroke-miterlimit:7;stroke-dasharray:none;stroke-opacity:1;paint-order:stroke markers fill"/><path d="M2132.033 2780.72c-59.859 88.136-160.331 195.178-193.781 188.702 54.17 56.915 119.765 97.951 178.219 110.494 21.744 4.666 57.681 4.286 77.954-.899 38.888-9.946 77.283-37.318 90.562-65.653 2.793-5.96 5.001-11.913 6.589-18.049.694-3.316 1.326-6.47 1.904-9.3q.42-2.788.677-5.655c.555-13.815-4.466-38.668-10.918-67.114-5.012-15.492-11.738-33.226-20.289-54.05l-19.053-46.395c-.915-2.223-3.776-2.834-5.518-1.178l-15.435 14.676-15.435 14.676a3.42 3.42 0 0 0 .225 5.153l7.755 6.175c5.38 4.285 13.345 11.788 19.845 18.442.98 1.004 1.567 1.714 2.47 2.667-.998-.797-1.123-.728-2.26-1.67-6.812-5.643-22.173-17.668-34.313-26.874-17.86-13.543-46.213-40.142-69.198-64.147" style="fill:#f9e3d6;fill-opacity:1;fill-rule:evenodd;stroke:none;stroke-width:10.5033;stroke-miterlimit:7;stroke-dasharray:none;stroke-opacity:1;paint-order:stroke markers fill"/><path d="m2154.14 2511.69-22.92 33.987c-7.19 11.444-14.929 22.589-23.082 33.43 25.973 24.782 38.075 53.875 41.714 83.936 17.754-16.261 29.464-29.398 32.199-36.191 1.419-3.525-20.057-88.55-22.997-98.398q-2.548-8.579-4.915-16.765" style="fill:#f6bcce;fill-opacity:1;stroke-width:2.10065"/><path d="M2627.22 2061.222c-6.605-.293-11.88 2.696-18.138 7.467-15.458 11.786-58.232 30.642-87.025 37.931-100.484 25.439-221.017 13.042-337.233-34.985-9.227-3.813-15.906-6.866-21.351-8.632-2.722-.883-5.16-1.468-7.586-1.518s-4.913-5.108-6.946-3.714c-4.067 2.786-5.954 13.144-8.03 19.859-2.075 6.714-4.204 15.813-7.376 28.157-17.972 69.935-24.463 89.242-23.305 212.138.054 5.7 4.742 21.976 4.8 33.409.228 44.468 19.193 133.893 43.38 206.22 9.504 28.42 35.28 84.382 50.21 108.972 17.411 28.674 54.368 73.85 85.8 105.045 69.511 68.987 129.862 107.447 190.888 121.03 15.435 3.435 32.859 4.422 61.87 3.64 43.53-1.176 77.87-8.372 117.264-24.59 8.88-3.655 13.893-5.449 21.24-6.383s17.24-.959 35.117-.69c76.964 1.159 128.279-18.372 177.968-67.893 40.798-40.66 66.568-93.454 77.339-158.038 5.087-30.506 3.585-89.512-3.04-121.243-10.083-48.283-35.07-106.3-59.004-136.18l-6.905-8.62c-2.204-2.748-6.628-1.473-7.032 2.026l-2.125 18.63c-.183 1.597-.45 2.693-.665 4.198-.906-7.08-1.71-15.382-1.735-23.546-.129-40.167-20.454-92.601-54.457-142.373-42.24-61.826-121.64-129.766-188.805-161.54-11.512-5.447-18.511-8.483-25.117-8.777" style="fill:#fbf7da;fill-rule:evenodd;stroke-width:14.8539;stroke-miterlimit:7;paint-order:stroke markers fill"/><path d="M2149.724 2057.53c-.267 0-.529.068-.783.242-4.067 2.786-5.954 13.143-8.03 19.858s-4.204 15.813-7.376 28.157c-17.972 69.935-24.463 89.242-23.305 212.138.054 5.7 4.742 21.976 4.8 33.409.228 44.468 19.192 133.893 43.38 206.22 9.504 28.42 35.28 84.382 50.21 108.972 17.411 28.674 54.368 73.85 85.8 105.045 14.153 14.047 27.928 26.827 41.405 38.39 22.481 18.205 46.522 35.714 60.402 43.429 38.462 21.377 80.23 36.117 120.628 42.879 8.618.314 18.51.29 30.324-.03 138.577-3.74 93.33-42.908 196.04-23.094 43.614.32 71.457-21.982 99.692-34.768 4.203-1.903 10.04-5.153 16.21-8.895 13.61-9.002 26.683-19.879 39.646-32.798 40.798-40.66 66.568-93.454 77.339-158.037 5.087-30.507 3.585-89.513-3.04-121.243-10.083-48.283-35.07-106.3-59.004-136.181l-6.905-8.62c-2.204-2.747-6.628-1.472-7.032 2.026L2898 2393.26c-.183 1.596-.45 2.693-.665 4.198-.906-7.08-1.71-15.383-1.735-23.547-.063-20.073-5.173-43.21-14.512-67.549 26.815 140.068-309.894 29.169-384.243-186.252-.92-2.666-1.985-5.326-2.782-7.467-31.438 5.61-64.508 7.778-98.534 6.564 2.468 5.004 5.84 12.852 9.215 21.635 55.65 144.771 180.28 237.769 340.889 294.768-197.924 271.68-569.052-43.323-498.745-341.808-20.733-6.26-41.467-13.655-62.064-22.167-9.227-3.813-15.906-6.867-21.351-8.633-2.722-.882-5.16-1.467-7.586-1.518-2.123-.044-4.291-3.92-6.163-3.955z" style="fill:#f9e3d6;fill-opacity:1;fill-rule:evenodd;stroke-width:14.8539;stroke-miterlimit:7;paint-order:stroke markers fill"/><path d="M1398.885 2162.46c-2.837-1.058-5.14-4.635-7.912-3.417l-75.015 36.293c-130.373 57.349-209.928 77.059-313.268 77.987-25.151.225-51.233-.408-72.797-1.605-21.563-1.196-39.522-3.315-44.663-4.69-6.963-1.86-13.142-3.484-20.129-3.433-6.986.05-14.251 2.272-21.072 6.433-13.641 8.323-27.89 23.427-55.675 52.336-59.931 62.355-101.777 135.953-119.475 199.414-8.849 31.73-11.775 60.985-7.024 85.676 2.826 14.686 8.853 27.888 17.925 38.238-.675.063-1.32-8.316-2-8.224-6.177.845-13.017 11.878-17.582 16.873-9.284 10.158-13.501 23.029-22.652 47.552-28.446 76.232-25.36 158.728 4.577 218.209 43.308 86.047 133.077 143.793 266.821 155.551 23.047 2.026 23.381-6.302 44.693-3.636 21.313 2.666 63.609 16.258 71.82 18.098 42.716 9.576 107.9 3.838 155.612-12.8 88.098-30.721 187.613-144.747 243.92-251.107 60.183-113.683 68.402-178.032 67.514-301.029-.908-125.86-17.29-209.661-58.338-296.097l-28.83-60.71a11.64 11.64 0 0 0-6.45-5.912" style="fill:#fbf7da;fill-rule:evenodd;stroke-width:42.0131;stroke-miterlimit:7;paint-order:stroke markers fill"/><path d="M1460.73 737.553c-144.742.045-199.207 10.4-300.885 57.214-27.051 12.455-56.329 32.347-79.414 52.028-11.543 9.84-21.5 19.592-28.893 28.646-7.391 9.054-13.161 16.624-13.161 27.267 0 3.52 1.604 6.181 2.888 7.689s2.424 2.291 3.467 2.946c2.086 1.31 3.954 2.037 6.093 2.786 4.277 1.497 9.537 2.783 15.94 4.061 12.804 2.556 29.955 4.917 48.847 6.59 64.462 5.706 109.258 20.883 136.604 44.844 27.347 23.96 39.053 56.886 36.368 104.003-3.68 64.554-30.568 118.304-105.669 207.607-56.67 67.387-102.134 144.445-114.69 197.663-1.204 5.1-2.125 9.835-1.654 15.094s2.938 10.84 6.75 14.89c7.622 8.098 21.972 6.554 36.482 19.758 29.756 27.079 61.667 27.483 145.031 17.597 46.135-5.47 72.255.768 91.038 3.783s31.172 8.26 53.062 19.009c185.758 91.22 212.463 364.834 49.427 531.826l-45.8 46.912a10.63 10.63 0 0 0-1.662 12.636l18.2 32.38c7.235 12.872 12.565 21.364 19.838 27.144 3.636 2.89 1.532 13.21 6.387 13.496 4.855.284 15.998-9.391 19.703-11.403 12.03-6.533 25.22-19.142 40.35-36.245s31.65-38.63 47.619-62.363l18.598-27.64 15.36 21.203c7.002 9.665 15.092 19.286 22.71 27.267 7.618 7.982 14.02 14.138 20.945 17.844 14.706 7.87 31.912 4.614 44.799-4.834 12.887-9.447 22.693-24.808 26.787-43.449.89-4.05 1.897-6.915 2.889-10.166 1.823 1.752 3.156 2.951 5.387 5.173 9.113 9.078 21.271 21.73 34.148 35.638 26.469 28.59 49.505 49.129 69.924 61.751s39.375 17.991 55.93 11.579c16.555-6.413 26.48-23.291 31.699-46.01s6.369-52.68 4-90.648c-1.211-19.414-1.947-37.077-2.158-49.714-.015-.846.017-1.156.01-1.957.79.544 1.179.78 2.018 1.362 9.991 6.933 23.437 16.567 37.816 27.161 52.17 38.436 111.288 72.153 148.798 83.747 4.364 1.35 18.502 8.393 23.665 7.808s.738-9.74 3.955-13.864c6.435-8.247 8.652-18.56 12.875-36.256 4.735-19.844 11.213-34.076 7.79-46.029-1.712-5.977-8.407-7.944-12.771-12.265-4.364-4.32-9.605-8.357-16.309-13.56-14.066-10.915-39.091-33.695-54.17-49.385-15.588-16.222-52.35-54.326-81.736-84.72-108.242-111.953-134.82-240.863-76.21-363.043 51.586-107.542 180.877-171.265 304.693-149.401 18.3 3.232 32.417 5.307 43.998 4.936 5.791-.186 11.07-.95 16.034-3.192 4.964-2.244 16.863-1.841 19.17-6.998 4.617-10.312-5.05-25.751-9.319-39.496-4.268-13.745-11.45-30.87-21.216-52.91-69.46-156.775-191.692-311.034-321.289-405.09-60.792-44.12-182.498-100.06-266.627-122.941-60.896-16.563-94.278-19.794-204.456-19.76zm429.81 1285.012c.107.06.618.36.767.452-.58-.198-.672-.408-.767-.452" style="fill:#fbf7da;fill-rule:evenodd;stroke-width:42.0131;stroke-miterlimit:7;paint-order:stroke markers fill"/><path d="M2157.163 1376.59c-122.077-.53-228.689 72.06-272.273 190.392-17.094 46.413-21.017 109.223-9.982 158.825 19.716 88.617 87.5 176.35 164.352 212.068 1.515.704 2.192 1.215 3.54 1.887l-4.127-.907c-7.589-3.297-11.272 2.27-6.339 8.698l7.853 13.49c5.646 9.702 16.87 21.835 30.718 34.604s30.236 25.884 45.857 36.252c58.454 38.8 150.738 71.567 237.969 84.835 31.367 4.77 114.665-.816 148.58-9.7 74.38-19.481 128.935-61.562 158.337-117.8s33.534-126.32 8.583-201.207c-7.456-22.378-19.916-50.235-28.819-63.73l-14.9-22.59c-2.486-3.767-8.113-3.444-10.151.583l-9.055 17.876c-4.278 8.44-17.419 24.865-27.826 34.23-23.208 20.884-51.667 31.254-85.815 31.235s-73.962-10.654-118.69-32.277c-82.655-39.958-141.507-100.82-175.024-180.792-8.999-21.471-10.601-30.832-10.618-61.92-.017-33.055.897-38.109 10.967-57.284 6.093-11.603 17.99-28.934 25.38-37.114 4.077-4.512 7.773-8.855 10.52-12.313 1.374-1.729 2.505-3.222 3.38-4.505a21 21 0 0 0 1.166-1.87c.354-.653 11.096-1.445 11.096-4.235 0-2.487-11.31-3.116-11.978-3.774a7 7 0 0 0-1.592-1.194c-.878-.507-1.61-.795-2.458-1.108-1.695-.627-3.766-1.23-6.29-1.879-5.045-1.298-11.799-2.72-19.242-4.017-17.925-3.121-35.68-4.683-53.12-4.759" style="fill:#fbf7da;fill-rule:evenodd;stroke-width:21.0065;stroke-miterlimit:7;paint-order:stroke markers fill"/><path d="M2039.067 1400.682a280.4 280.4 0 0 0-44.483 24.482c-3.959 7.023-16.686 17.283-32.93 26.02-33.271 30.588-59.794 69.725-76.764 115.798-17.094 46.413-21.017 109.223-9.982 158.825 19.716 88.618 87.5 176.35 164.352 212.068 1.515.704 2.192 1.215 3.54 1.887l-4.127-.907c-7.589-3.297-11.272 2.27-6.339 8.698l7.853 13.49c5.646 9.702 16.87 21.835 30.718 34.604s30.236 25.884 45.857 36.252c58.454 38.8 150.738 71.567 237.969 84.835 31.367 4.77 114.665-.816 148.58-9.7 74.38-19.481 128.935-61.562 158.337-117.8s33.534-126.32 8.583-201.207c-7.456-22.378-19.916-50.235-28.819-63.73l-14.9-22.59c-2.486-3.767-8.113-3.444-10.151.583l-.747 1.473c8.627 4.248 20.51 19.835 36.692 57.526 20.608 48.003 28.216 79.158 28.186 115.42-.029 36.96-7.626 80.416-14.056 80.416-1.343 0-.542-4.547 1.78-10.105s3.633-10.694 2.913-11.414-1.264 1.393-2.945 3.848c-256.508 189.613-602.034-24.976-699.21-421.291 108.054 194.462 291.503 174.831 322.832 181.25-37.86-26.84-52.96-56.971-76.753-95.24-226.757-55.227-278.747-114.339-217.536-167.5zm560.099 331.821c-4.718 6.224-10.562 13.014-16.047 18.446 7.561-4.953 13.089-11.098 16.047-18.446" style="fill:#f9e3d6;fill-opacity:1;fill-rule:evenodd;stroke-width:21.0065;stroke-miterlimit:7;paint-order:stroke markers fill"/><path d="M1260.693 1543.92c-30.752.176-54.667 1.544-66.134 4.48l-15.689 4.017a5.883 5.883 0 0 0-2.154 10.34l16.612 12.944c44.407 34.594 66.182 84.771 59.094 134.897-15.28 108.05-133.756 221.716-263.312 250.466-44.642 9.906-81.174 5.05-110.502-13.938-28.263-18.298-44.426-40.72-57.977-81.109l-7.931-23.64a5.883 5.883 0 0 0-10.528-1.305l-14.926 23.296c-42.31 66.053-62.56 125.318-62.302 183.947.217 49.027 15.036 92.147 45.398 132.28 36.232 47.891 99.74 84.03 165.628 94.718 12.234 1.984 24.609 4.072 26.545 4.451 8.62 1.689 26.148 1.681 46.534 1.087 20.387-.594 42.74-2 58.158-4.02 108.388-14.209 223.14-56.362 308.152-113.292 33.015-22.11 76.784-63.752 101.476-96.503 21.72-28.81 50.853-86.907 59.897-119.667 34.938-126.565 6.063-252.984-76.596-331.501-35.6-33.816-70.996-52.64-123.167-65.63-21.905-5.453-35.213-6.557-76.276-6.322z" style="fill:#fbf7da;fill-opacity:1;fill-rule:evenodd;stroke:none;stroke-width:14.8539;stroke-miterlimit:7;stroke-dasharray:none;stroke-opacity:1;paint-order:stroke markers fill"/><path d="M770.342 2180.599c12.409 23.734 51.463 43.674 72.432 61.73 28.459 16.139 60.534 27.69 93.196 32.988 12.234 1.984 24.609 4.072 26.545 4.451 8.62 1.689 26.148 1.681 46.534 1.087 20.387-.594 42.74-2 58.158-4.02 108.388-14.209 223.14-56.362 308.152-113.292 13.696-9.172 29.244-21.706 44.512-35.572-1.241-.047-2.722.248-4.39.973l-4.128.906c1.349-.672 2.025-1.178 3.541-1.883a219 219 0 0 0 10.877-5.432c19.424-18.164 37.939-38.086 51.063-55.495 21.72-28.81 50.854-86.907 59.898-119.667 33.106-119.928 8.916-239.726-64.037-318.762-6.258-4.818-10.856-9.446-13.023-13.182l-.402-.378c298.439 222.55-505.91 686.96-688.928 565.547" style="fill:#f9e3d6;fill-opacity:1;fill-rule:evenodd;stroke:none;stroke-width:14.8539;stroke-miterlimit:7;stroke-dasharray:none;stroke-opacity:1;paint-order:stroke markers fill"/><path d="M1354.193 2268.982c-2.275 2.706-4.077 8.914-5.12 18.918-58.815 563.54-827.845 773.83-694.36 385.995 3.083-8.96 7.588-16.853 7.91-18.393.217-1.045-22.658 42.846-37.464 87.587-12.996 56.218-9.24 113.319 8.226 160.502 5.428 12.42 10.457 24.929 18.418 36.771 27.072 40.27 61.51 70.718 103.835 91.805 50.92 25.37 80.488 42.746 153.306 43.486 29.27.298 52.041-10.156 54.002-8.9 7.489 4.801 57.237 23.748 80.023 26.307 25.86 2.904 85.098-1.198 106.294-6.79 48.632-12.847 81.324-38.428 114.638-60.376 5.957-3.924 15.089-11.216 24.9-19.636 53.084-49.683 102.408-116.245 136.186-180.05 60.184-113.683 68.404-178.032 67.516-301.029-.675-93.53-9.894-163.835-31.432-229.254-1.414 130.383-57.442 296.143-96.018 375.685-.906 1.866 1.812-21.46 5.752-43.413 34.173-199.228 7.188-342.727-10.483-359.215zm-648.49 692.263q1.38-.03 2.908.057c99.624 5.743 281.279 168.948 28.1 42.678-9.842-4.91-42.437-32.362-42.013-35.818.573-4.666 4.56-6.776 11.004-6.917z" style="fill:#f8e1d3;fill-opacity:1;fill-rule:evenodd;stroke-width:42.0131;stroke-miterlimit:7;paint-order:stroke markers fill"/><path d="M1371.215 2432.825c-2.093-.063-4.432 2.813-6.938 9.112-67.256 259.91-183.895 478.178-421.082 622.191l17.293 11.443c28.365 12.841 28.938 4.505 42.703 4.505 88.85 0 283.768-177.185 343.71-354.789 42.148-124.878 40.086-291.992 24.314-292.462" style="display:inline;fill:#f1b7c5;fill-opacity:1;stroke-width:2.10065"/><path d="m1013.521 2475.182 4.636-91.216c-26 34.22-51.998 68.438-89.92 93.213-63.5 30.376-215.906 114.872-258.49 18.64-4.914 36.77-26.78 146.307 28.395 156.955 55.924-1.308 316.726-153.806 315.379-177.592" style="fill:#f8e1d3;fill-opacity:1;fill-rule:evenodd;stroke:none;stroke-width:18.9059;stroke-miterlimit:7;stroke-dasharray:none;stroke-opacity:1;paint-order:stroke markers fill"/><path d="M869.586 2005.05c-2.116.021-4.44 4.238-5.613 12.063-7.357 49.062 7.816 179.157 165.427 236.557 0 0 37.811 16.587 37.811 25.216 0 78.59-191.926 269.212-173.226 279.272 3.795.836 36.01-7.362 87.801-53.074 83.002-75.294 146.488-154.044 193.002-245.904 7.374-14.562 9.957-9.243 23.296-16.448l13.777-4.567c-159.297 6.211-326.727-142.365-338.357-225.245-.751-5.355-2.272-7.883-3.918-7.87" style="display:inline;fill:#f6ccd6;fill-opacity:1;stroke-width:2.10065"/><path d="M2296.383 2411.382c-12.548 2.495 8.254 136.399 58.733 230.59 65.962 123.083 222.99 230.575 303.163 237.962a313 313 0 0 0 11.277-6.708c6.609-4.116 10.377-6.224 16.126-7.958 5.75-1.735 20.785 1.497 35.117-.69 3.138-.478 8.012-.924 11.033-1.463-208.673-83.347-340.056-246.752-428.676-445.371-2.85-4.7-5.107-6.686-6.772-6.354z" style="fill:#f1b7c5;fill-opacity:1;fill-rule:evenodd;stroke-width:12.0438;stroke-miterlimit:7;paint-order:stroke markers fill"/><path d="M2497.038 2108.524c-24.515 5.302-66.059 9.159-99.9 9.847 1.349 1.95 2.425 3.836 3.036 5.567 80.963 223.32 273.32 285.368 299.946 289.21 9.962 1.437 15.734 1.623 17.2.635 1.464-.987-1.378-3.146-8.645-6.4-85.113-38.107-216.385-258.915-211.637-298.86" style="fill:#f6ccd6;fill-opacity:1;stroke-width:2.10065"/><path d="M1265.698 3248.854c-2.52.112-8.13 4.866-18.08 15.05-57.596 58.944-77.942 145.5-72.9 221.898.726 10.999-.528 27.768 2.974 34.68 9.729 19.199 18.578 33.897 18.578 37.574 0 4.712 29.913 46.485 29.913 46.485s2.787 5.707-5.03-25.644c-37.948-152.187 58.566-330.66 44.545-330.043" style="fill:#f1b7c5;fill-opacity:1;stroke-width:2.10065"/><path d="M2110.846 2157.636c-3.412-1.022-7.668-2.715-101.965 26.978-91.729 31.012-462.96 151.846-462.96 151.846 80.584 121.535 368.764 227.668 527.487 165.838 90.397-1.045-157.678 59.83-268.584 92.64-39.454 4.621-114.55 14.833-163.393 6.439s-78.673-25.182-99.884-37.71c-21.212-12.529-33.804-20.796-46.397-29.063-16.053-99.002-32.106-198.003-48.15-260.027-16.045-62.025-46.18-99.72-55.47-114.745 58.163-51.545 103.593-131.072 145.637-179.664 139.263 50.376 347.407-57.602 407.271-105.238 58.316 33.1 45.9 50.678 70.296 51.728 15.034 16.375 24.848 31.696 42.885 50.93s44.292 42.379 60.883 56.395c16.59 14.016 23.515 18.902 22.052 38.276s-11.312 53.237-17.52 69.993-8.776 16.406-12.188 15.384" style="fill:#f8e1d3;fill-opacity:1;fill-rule:evenodd;stroke-width:10.5033;stroke-miterlimit:7;paint-order:stroke markers fill"/><path d="M1608.774 2579.132c-35.695 19.037-100.925 90.983-101.743 140.091-.51 30.64 101.163-79.78 194.668-124.505a50 50 0 0 0 4.57-2.465c-1.895-.084-3.51-.185-4.825-.308-31.916-2.988-66.524-7.773-92.67-12.813" style="fill:#f1b7c5;fill-opacity:1;stroke-width:2.10065"/><path d="M1460.524 1797.634c-67.48 67.647-224.291 173.317-447.74 156.765-1.536 6.44 545.768 143.74 510.56-248.32-3.028-2.392-31.076 59.733-62.82 91.555" style="fill:#f9e3d6;fill-opacity:1;stroke-width:2.42497"/><path d="M1473.113 1781.934c-49.2 66.6-183.873 172.359-363.844 188.226.508 22.833 480.352 72.577 406.325-275.206-2.832-1.751-19.338 55.653-42.48 86.98" style="fill:#f6ccd6;fill-opacity:1;stroke-width:2.10065"/><path d="M869.586 2005.05c-2.116.021-4.44 4.238-5.613 12.063-7.357 49.062 7.816 179.157 165.427 236.557 0 0 32.559 14.285 37.25 23.239l.557-.075c36.753-4.817 74.239-12.848 111.048-23.578 5.117-7.176 8.79-4.561 19.829-10.524l13.777-4.567c-159.297 6.211-326.727-142.365-338.357-225.246-.751-5.354-2.272-7.882-3.918-7.869" style="display:inline;fill:#f1b7c5;fill-opacity:1;stroke-width:2.10065"/><path d="M1453.957 2858.83c-.564.023-1.218.194-2.047.706-1.722 1.064-2.027 2.015-2.831 3.373-.804 1.357-1.675 3.06-2.626 5.075-1.902 4.03-4.105 9.292-6.339 15.053-4.467 11.522-9.028 24.958-11.283 34.288-5.202 21.526-6.1 52.622-1.842 70.814 10.57 45.154 43.934 78.375 90.706 90.5 20.578 5.336 53.667 5.744 76.645 1.047 36.279-7.416 72.615-23.613 107.683-47.659-43.757.897-86.747.375-121.863-14.745-38.899-16.749-68.134-51.407-82.446-79.6-14.312-28.191-13.702-49.916-13.092-71.639l-.132-.073c-.347.28-.69.554-1.021.82a200 200 0 0 1-11.033 8.26l2.134-2.536a3.227 3.227 0 0 0-.89-4.89l-8.3-4.665c-2.44-1.371-4.86-2.47-6.955-3.188-1.047-.359-2.002-.625-2.954-.767-.476-.072-.95-.196-1.514-.173z" style="fill:#f8e1d3;fill-opacity:1;fill-rule:evenodd;stroke:none;stroke-width:10.5033;stroke-miterlimit:7;stroke-dasharray:none;stroke-opacity:1;paint-order:stroke markers fill"/><path d="M1577.626 2304.112c-54.696-4.75-104.797 66.058-95.789 94.197 3.427 10.704 10.698 5.381 20.832-15.253 21.798-44.385 55.598-62.858 88.087-48.133 33.85 15.343 34.61 56.273 47.682 56.24 15.994-.041-.73-51.374-22.882-70.239-12.442-10.596-25.307-15.716-37.93-16.813m448.197-60.391c-4.847.01-9.695.541-14.487 1.683-12.325 2.935-24.298 9.886-35.05 22.192-19.146 21.91-28.16 75.144-12.334 72.838 12.935-1.886 7.682-42.484 38.915-62.626 29.978-19.332 66.124-6.02 94.197 34.69 6.157 8.927 11.184 14.581 14.968 16.895-.957-4.91-1.78-9.1-1.802-11.467-.078-8.338-.12-16.2-.127-23.633-16.373-24.754-50.355-50.611-84.28-50.571" style="fill:#e15f5f;fill-opacity:1;stroke-width:2.61092"/><path d="M1453.473 726.057c-51.572.433-100.282 5.71-144.916 14.376-71.415 13.864-132.426 36.362-178.404 61.887-27.035 15.009-90.728 55.147-94.045 101.77-.246 3.451.197 7.614 2.264 11.42 2.068 3.805 5.484 6.613 8.854 8.34 6.742 3.454 13.892 4.314 24.06 5.203s23.287 1.4 40.597 2.039c60.207 2.221 102.338 16.292 129.867 37.02 84.43 63.568 41.085 199.31-50.645 298.506l.221-.226c-70.162 71.828-104.406 138.024-120.59 186.745-8.093 24.36-11.682 44.329-13.043 58.56-.607 6.343-.777 11.523-.681 15.59-10.145-4.55-46.251-18.185-111.409-16.362-31.574.883-37.836 1.883-50.383 8.021-26.03 12.736-41.959 30.314-58.596 64.67-17.254 35.625-19.56 43.42-27.112 91.681-6.986 44.642-7.428 100.019-1.03 129.137l4.554 20.715c-23.535 26.535-44.845 54.667-58.978 87.567-65.588 132.476-13.848 227.304-8.48 236.504 25.92 44.518 58.498 79.766 104.191 106.177 1.747.674-1.863 5.377-8.025 10.454-85.861 70.743-191.101 203.854-185.186 309.871 4.75 71.004 23.902 33.415-10.322 101.94-43.776 94.625-61.542 252.423 93.524 352.207 59.496 35.088 113.38 47.528 181.152 46.916 59.334-2.585 46.162 10.523 113.92 20.703 259.52 27.458 389.158-266.996 389.158-266.996 8.324 5.398 14.708 13.222 21.995 19.85-11.903 34.503-25.16 68.726-32.236 104.642-152.553 143.685-341.242 382.138-225.894 607.38 1.253 2.447 1.772 3.893 2.856 6.11-10.295-2.06-21.527-2.905-33.447-2.585-25.84.693-54.572 6.108-78.684 17.06-21.5 9.765-50.043 28.395-68.37 44.486-37.697 33.099-54.598 38.784-115.104 38.805-36.776 0-66.917 4.947-89.857 16.202-20.315 9.968-35.09 22.83-43.022 37.488s-8.213 31.838.767 45.689 25.741 24.036 49.624 29.934 55.256 7.56 95.124 3.274c74.081-7.963 79.674-5.485 134.142 15.882 97.299 38.17 155.844 23.014 212.441 8.522 56.58-14.488 111.567-28.412 213.364 9.186 127.967 49.483 244.43 7.435 368.427-10.59 135.58 19.941 265.183 44.367 403.575 11.325l.087-.021.085-.021c100.778-26.065 138.951-26.153 228.446-8.206 91.447 18.338 128.698 18.623 201.167-10.212 61.269-24.38 95.284-22.66 126.97-18.307s62.273 12.04 108.877-1.94c11.976-3.593 22.437-9.42 30.008-18.307 7.086-8.316 13.472-19.373 14.943-31.888 2.759-23.462-9.833-43.97-28.942-55.954-33.756-21.169-70.515-18.812-106.497-20.198-35.981-1.387-71.466-5.672-108.618-36.868-34.91-29.314-105.686-78.09-182.966-63.258 2.22-4.991 3.727-8.788 6.519-14.696l.123-.259.107-.27c47.096-117.845 29.84-224.818-16.83-321.757-42.691-88.673-176.2-237.135-214.71-276.005-8.555-43.425-26.214-91.457-52.824-149.73 5.47-6.774 10.912-13.987 14.725-19.636 6.92-10.25 13.325-18.639 14.233-18.639s12.26 10.427 25.228 23.165c54.097 51.53 116.406 89.871 183.23 111.236 50.42 16.001 107.136 14.34 155.017-4.542 25.421-10.025 55.302-26.631 55.302-26.631 326.597 41.899 348.511-369.982 211.96-517.323-3.496-3.773-7.666-12.028-9.268-18.348-35.808-141.969-142.313-211.212-262.922-280.61-5.282-3.108 22.959-16.366 43.929-82.393 24.604-77.58 16.346-147.884-16.903-221.27-28.577-61.99-50.643-56.945-42.916-84.448 10.285-36.05 15.454-88.453 14.052-142.422-1.214-46.73-4.59-74.719-11.997-99.428-3.75-12.512-12.332-29.41-14.934-29.41-1.255 0-2.281-1.932-2.281-4.291s-1.89-5.013-4.201-5.9-4.202-3.236-4.202-5.223c0-3.211-4.763-7.84-27.136-26.385-10.824-8.972-41.691-19.586-60.189-20.695-20.124-1.206-56.436 2.075-75.127 6.79-18.33 4.625-37.242 10.917-40.544 13.486-1.578 1.229-6.564 3.119-11.082 4.202-4.517 1.082-13.341 4.488-19.607 7.57-6.266 3.08-16.977 7.537-23.805 9.904s-20.827 8.396-31.107 13.4l-9.322 4.537c.102-.884.08-1.402.066-1.858a17 17 0 0 0-.23-2.347c-.206-1.352-.496-2.728-.894-4.435-.796-3.415-2.03-8.008-3.767-13.823-3.474-11.63-8.952-28.05-16.74-48.196-15.573-40.292-40.37-95.44-76.698-156.17-72.653-121.459-191.537-265.407-374.942-356.073l-.062-.033-.065-.033c-128.199-61.395-255.505-83.88-368.964-82.926m-30.086 12.374c119.159-5.472 256.055 14.883 394.057 80.973 361.65 178.783 471.86 572.308 468.831 575.337-.685.686-14.741-3.46-27.92-7.344-227.578-71.297-455.279 110.23-382.187 362.867 41.024 131.972 115.69 159.971 142.856 191.964 4.31 7.732 10.224 18.052 13.437 22.397 26.77 37.57 105.546 90.562 105.546 90.562l-23.128 91.982s-124.679-45.96-202.75-119.697c-10.128-9.565-19.82-15.972-19.82-15.972 44.516 245.722-48.642 268.378-187.57 80.174-33.954 129.08-93.295 61.26-133.113-6.122-8.393 3.708-35.463 81.812-125.395 145.228-4.861-9.93-10.49-19.959-16.436-29.93-9.196-16.494-22.732-39.271-28.56-46.464a423 423 0 0 0 25.849-21.274c214.929-182.813 170.574-532.813-88.417-589.926-25.478-5.738-53.2-8.536-83.18-7.906-18.079.323-36.916 1.867-56.5 4.73-3.548.519-7.774 1.294-12.326 2.236-19.33 3.403-39.43 8.079-60.3 14.126-18.27-8.709-36.004-21.474-56.844-22.495-.01 0-.022-.013-.033-.021-2.946-2.123-7.193-118.82 130.117-259.39 131.301-141.986 159.92-345.796-87.28-354.916-69.178-2.552-70.368-3.162-59.88-30.681 23.038-60.452 172.36-141.315 370.958-150.435zm742.905 642.057c18.29.722 37.088 3.098 56.295 7.278v.017l1.03.21q10.997 2.425 22.163 5.653c10.482 3.034 20.763 5.728 25.996 6.848q1 .24 1.936.455c1.628.376 3.086.693 4.431.948 1.179 1.404-3.24 4.835-15.878 13.223-42.823 28.425-61.765 74.899-49.837 122.281 7.781 30.911 15.358 48 33.295 75.131 17.824 26.962 56.124 68.545 77.679 84.33 45.132 33.053 104.86 57.678 156.232 64.415 22.512 2.952 26.533 2.702 47.613-2.946 34.22-9.169 54.449-23.479 70.926-50.174 5.672-9.19 11.193-16.71 12.267-16.71 6.315 0 33.954 39.595 43.99 63.02 124.798 291.252-167.862 461.124-496.992 296.753-17.337-8.547-41.894-23.357-54.572-32.909-14.593-10.994-29.858-24.439-42.571-36.99-10.15-11.626-19.912-24.923-28.544-40.036 4.152-3.022 19.473 5.042 22.078 5.042 32.286 0-34.55-5.28-94.636-70.901-194.347-212.25-40.293-504.71 207.099-494.938m-902.35 166.226c51.342.021 95.264 10.586 132.136 28.708 65.73 32.304 109.73 88.956 132.834 155.793 44.006 127.304 10.687 289.803-115.495 398.184-7.251 6.053-14.269 12.202-22.102 18.012l-.041.033-.021.013c-37.682 27.94-82.143 52.947-133.835 73.78-105.406 42.484-227.349 68.193-323.164 49.924-95.814-18.268-159.493-71.603-190.125-143.968-30.632-72.366-20.345-173.827 69.797-293.636 0 0 1.699 5.357 5.166 16.14 36.02 100.546 87.547 123.735 192.103 95.17 63.053-20.134 113.019-50.303 159.933-96.569 25.411-25.06 55.695-64.123 55.753-71.914.01-1.271 2.034-6.091 4.5-10.713 27.58-51.673 16.947-110.261-26.532-146.225-7.065-5.844-19.182-16.313-26.927-23.267s-18.807-15.562-24.584-19.132-10.504-7.42-10.504-8.554c0-1.684 10.254-5.173 22.915-8.727 14.873-3.275 30.421-7.632 44.364-9.449 18.777-2.446 36.715-3.609 53.829-3.602zm643.645 492.185c78.935 72.669 204.104 119.409 204.104 119.409s-24.707 136.853 6.195 283.703l5.95 26.541c-14.885 13.946-32.444 24.313-50.428 33.746-72.314 37.109-122.428 55.333-161.734 61.748-6.162 1.005-18.135 3.435-26.607 5.403-8.473 1.968-24.6 5.209-35.839 7.2-28.456 5.043-29.627 9.652-1.813 7.131 172.142-15.599 277.605-101.542 279.908-99.24 19.263 80.198 55.774 167.824 107.178 232.024 3.551 3.851 10.824 13.31 16.161 21.02l9.704 14.015-5.314 13.994c-8.815 23.224-28.989 47.479-56.467 70.356-31.463-26.207-64.786-59.656-81.006-81.556-28.997-39.151-96.165-117.816-120.784-53.354-4.693 12.29-5.277 12.744-16.473 12.744-33.212-.943-68.942-18.69-96.371 9.416-16.643 16.643-18.784 37.57-5.999 84.892 5.543 20.515 4.964 32.101-2.01 40.179-14.784 17.122-7.027 40.283 5.933 60.541 4.67 7.3 15.361 25.085 22.172 35.15-30.5-.842-58.828-6.688-82.861-18.804-.327-.6 3.742-7.874 9.161-16.346 12.966-20.268 20.713-43.423 5.933-60.541-6.974-8.078-7.553-19.664-2.01-40.18 12.785-47.32 10.645-68.248-5.999-84.891-27.429-28.105-63.158-10.36-96.371-9.416-11.196 0-11.78-.455-16.473-12.744-25.07-65.643-93.625 16.684-120.784 53.354-17.516 23.65-54.98 60.772-88.506 87.694l-24.638 19.784c-22.088-11.095-45.908-26.4-46.046-40.873-.049-5.174 2.74-11.76 8.32-23.969 43.606-95.372 37.15-173.21 70.164-196.768 9.448-6.742 25.03-15.97 34.627-20.51 17.226-8.146 17.658-8.2 33.439-4.185 89.556 28.971 227.453 14.486 227.453 8.752 0-1.703-5.65-2.085-14.647-.99-65.828 8.019-207.584-5.911-283.92-42.135-9.298-4.412-9.531-4.935-9.585-21.708-.048-14.922-3.763-53.037-9.867-101.213-7.63-60.215-37.644-162.148-41.677-173.214q4.992-4.89 9.794-9.637c42.608-31.422 70.862-65.82 89.507-93.13 9.8-14.355 16.973-26.788 22.086-35.605.37-.637.525-.858.874-1.457 7.882 11.412 16.314 25.265 26.73 37.861 5.47 6.617 66.645 77.43 106.427-14.154 2.179-5.207 3.267-9.326 4.764-13.954 17.036 19.443 38.83 45.503 64.722 68.804 16.248 14.623 33.485 27.412 51.733 34.743 54.659 20.087 73.188-9.1 81.95-58.514 3.434-21.59 3.98-45.303 3.282-67.496-.639-20.306-2.361-38.889-4.03-53.62zm242.765 20.924c230.077 105.82 408.593 57.28 471.523 2.433 11.583-10.096 274.676 128.39 272.633 332.794-.117 11.874.733 21.004 1.892 20.288s2.992-10.747 4.074-22.29c1.082-11.544 3.282-21.852 3.95-20.99 79.37 102.198 91.275 234.168 50.51 335.558-40.763 101.39-134.195 172.199-265.498 152.076-167.63 70.386-267.403 38.876-408.975-103.666-14.964-16.478-31.846-36.825-37.516-45.214s-15.272-21.421-21.335-28.962c-31.878-39.648-76.323-151.58-95.543-255.176-38.317-210.497 23.319-366.895 24.285-366.85m-759.747 101.886c9.797.577 102.574 217.39 97.734 371.401-.223 27.729-1.126 56.088-2.01 63.02-9.807 69.203-26.542 137.123-53.555 201.662-4.652 15.976-133.3 334.209-414.575 286.026-54.449-12.595-60.13-23.716-75.004-19.69-120.84 32.707-409.21-88.076-295.921-366.584 1.571-3.89 19.437-65.429 31.92-51.015 6.779 7.828 26.716 9.438 38.681 6.897-26.62-2.375-35.583-2.631-43.4-23.353-53.6-142.108 164.088-383.372 202.447-362.962 152.457 81.12 454-54.53 513.367-105.328a.56.56 0 0 1 .316-.074m115.257 391.144c8.223.258 40.234 14.025 40.265 15.718.02 1.018-5.951 4.75-13.268 8.292s-18.863 11.53-25.655 17.753l-12.35 11.315 1.818-11.204c.998-6.162 1.847-16.873 1.887-23.805.076-13.047.812-18.273 7.303-18.069m177.645 134.626c36.77.61-7.246 45.013 71.627 33.586 79.44-11.507 92.862 10.961 68.271 94.932-6.836 23.343-6.667 28.486 1.161 35.292 6.067 5.275 7.279 8.703 7.246 20.531-.048 17.51-16.105 48.884-35.945 70.236-7.167 7.713-17.445 19.577-22.836 26.361-207.451 217.348-425.29 88.179-319.468-109.423l9.187 5.108c5.053 2.81 9.63 5.342 10.17 5.625s-1.65 3.343-4.87 6.799c-9.463 10.157-4.191 9.71 7.316-.62 5.817-5.222 25.073-20.47 42.788-33.889 41.952-31.776 55.315-44.822 84.047-82.036 28.553-36.985 61.413-72.831 81.306-72.502m345.196 0c19.893-.33 52.753 35.517 81.306 72.502 34.01 47.54 83.671 78.242 126.835 115.925 11.507 10.33 16.778 10.777 7.315.62-9.804-13.305-23.867-22.875-36.802-33.397 10.548-8.448 19.21-16.367 25.717-23.272 2.281-2.42 4.897-5.386 7.63-8.624 35.596 93.445 106.53 200.558-24.313 258.077-148.705 65.37-337.784-143.164-335.993-197.49.39-11.822 1.18-15.256 7.245-20.53 7.829-6.807 7.997-11.95 1.161-35.293-24.59-83.971-11.167-106.438 68.272-94.932 78.873 11.427 34.857-32.976 71.627-33.586m-212.084 251.291c.777 0 1.571.116 2.413.361 30.358 8.09 60.638 11.693 90.262 11.833 156.748 190.492 372.528 161.042 387.538 34.312.9-7.607 2.47-13.831 3.487-13.831 3.12 2.444 163.375 178.514 207.328 269.81 58.567 117.46 41.922 238.422-14.7 351.4-5.746 9.09-7.726 12.596-7.245 13.885.21.556.88.697 1.907.697.857 0 3.363-2.399 6.319-5.916 8.855-5.764 17.61-11.49 28.039-13.937 69.292-16.02 138.21 29.868 172.09 58.317 16.238 13.636 32.565 22.602 48.675 28.687 0 0 .025.021.034.021.078.032.191.055.271.086 24.607 9.239 48.691 11.635 71.07 12.498 37.118 1.43 69.293-.168 97.183 17.322 14.389 9.023 22.072 21.863 20.207 37.73-.83 7.06-5.418 15.803-10.557 21.835-4.652 5.46-11.528 9.6-21.047 12.456-42.716 12.813-67.864 5.857-100.873 1.321s-72.644-5.954-136.534 19.468c-70.53 28.065-99.821 27.42-190.458 9.244-90.553-18.16-134.894-17.93-236.725 8.394h-.021c-95.977 22.91-188.303 17.242-283.067 4.82a2758 2758 0 0 1-34.259-4.73c-26.557-3.82-53.36-7.957-80.539-11.947l-1.358-.202-1.362.198c-107.813 15.52-204.818 46.593-305.977 26.976-5.778-1.25-11.915-2.65-17.716-4.009-12.113-3.073-24.242-6.355-36.524-11.106l-.065-.025-.066-.029c-105.47-38.976-167.954-24.333-224.704-9.802-56.75 14.532-107.407 28.85-200.85-7.807-54.599-21.418-68.294-25.117-143.062-17.08-38.287 4.115-67.665 2.332-88.572-2.831s-32.974-13.656-38.296-21.864c-5.321-8.208-5.38-16.47-.004-26.406s16.999-20.818 34.726-29.516c18.935-9.29 46.495-14.266 81.532-14.266h.004c62.013-.02 88.26-8.991 127.57-43.506 16.334-14.341 44.876-32.918 63.717-41.476 21.03-9.551 47.859-14.746 71.373-15.377 11.755-.315 22.583.51 31.448 2.519 15.181 3.572 27.586 14.03 40.454 22.348l-12.14-28.441c-3.323-7.783-7.231-16.497-12.85-27.469-32.48-63.423-45.494-132.59-24.543-217.38 39.207-133.99 132.915-265.755 231.748-364.91 1.018 0 2.587 6.223 3.488 13.83 15.083 127.354 232.918 156.47 389.847-37.139 5.007-6.709 8.03-9.323 11.394-9.366z" style="baseline-shift:baseline;display:inline;overflow:visible;vector-effect:none;fill:#dfa7b5;fill-opacity:1;fill-rule:evenodd;stroke-width:2.10065;stroke-miterlimit:7;paint-order:stroke markers fill;stop-color:#000"/><path d="M953.13 1490.843c69.856-.054 412.842 74.448 262.684 311.101-64.312 99.193-164.36 148.913-242.951 161.726-53.601 8.738-130.871-7.15-155.9-113.158-47.838-202.613 5.913-359.392 136.168-359.669" style="baseline-shift:baseline;display:inline;overflow:visible;vector-effect:none;fill:#e15f5f;stroke-width:2.10065;stop-color:#000"/><path d="M822.305 1584.559c-27.55 65.12-30.554 159.172-5.342 265.954 25.029 106.008 102.299 121.895 155.9 113.156 78.59-12.813 178.637-62.533 242.949-161.726 5.99-9.439 11.196-18.617 15.665-27.546-27.54 28.42-65.832 41.097-118.273 56.87-154.691 39.066-269.48-137.684-290.9-246.708" style="baseline-shift:baseline;display:inline;overflow:visible;vector-effect:none;fill:#c94c50;fill-opacity:1;stroke-width:2.10065;stop-color:#000"/><path d="M953.132 1490.842c-45.474.096-107.384 52.807-107.384 52.807 83.504 65.218 177.453 62.646 271.694 8.202 9.076-6.347 15.457-12.555 14.18-13.794l-.09-.082c-69.572-33.69-148.689-47.156-178.4-47.133" style="baseline-shift:baseline;display:inline;overflow:visible;vector-effect:none;fill:#e67f7b;fill-opacity:1;stroke-width:2.10065;stop-color:#000"/><path d="M953.12 1485.59c-67.233.143-115.528 41.429-139.788 107.4s-25.571 156.7-1.481 258.73c12.778 54.122 39.346 86.14 69.805 102.997s64.357 18.65 92.052 14.134c80.021-13.046 181.282-63.441 246.51-164.048l.018-.025.013-.02c38.09-60.033 45.344-110.883 32.72-152.786s-44.661-74.26-83.169-98.776c-38.508-24.517-83.67-41.344-123.672-52.119s-74.598-15.502-92.999-15.488h-.004zm.016 10.503h.004c16.529-.013 50.995 4.553 90.255 15.128 39.262 10.575 83.562 27.154 120.763 50.838 37.2 23.684 67.117 54.323 78.754 92.946 11.633 38.615 5.458 85.813-31.51 144.091-63.396 97.774-162.227 146.812-239.384 159.391-25.906 4.224-57.445 2.443-85.278-12.96-27.833-15.405-52.415-44.335-64.665-96.22-23.748-100.584-22.103-189.553 1.116-252.694s66.926-100.384 129.945-100.52" style="baseline-shift:baseline;display:inline;overflow:visible;vector-effect:none;fill:#854035;fill-opacity:1;stroke-width:2.10065;stop-color:#000"/><path d="M945.915 1808.635c-14.842.125-3.029 37.738 4.48 42.998 10.837 7.59 21.59 4.296 21.59-6.614 0-10.449-16.722-35.161-24.548-36.277a10 10 0 0 0-1.522-.107" style="fill:url(#c);fill-opacity:1;stroke-width:2.10065"/><path d="M1111.949 1701.72c-3.222.08-5.733 1.931-6.922 5.678-2.32 7.313 8.914 27.329 18.163 32.363 16.663 9.07 24.17-4.953 5.531-27.452-5.837-7.046-12.064-10.707-16.772-10.59" style="fill:url(#d);fill-opacity:1;stroke-width:2.10065"/><path d="M924.33 1615.556c-4.282-.127-7.301 4.306-7.828 9.748-.87 8.983 4.794 23.215 12.932 32.49 12.685 14.458 19.076-7.639 8.333-28.81-4.898-9.652-9.66-13.316-13.437-13.428" style="fill:url(#e);fill-opacity:1;stroke-width:2.10065"/><path d="M918.589 1517.88c-15.317 6.98-6.16 20.47 8.567 20.47 10.068 0 16.642-5.502 16.642-13.921 0-7.754-14.714-11.33-25.21-6.549" style="fill:#ea9993;fill-opacity:1;stroke-width:2.49652"/><path d="M1943.5 2076.01c-5.122-.2-10.678 1.668-15.838 6.45-19.99 18.526 7.535 48.465 27.727 28.273 14.92-14.919 3.473-34.124-11.89-34.723m-362.887 60.348c-5.121-.2-10.677 1.667-15.837 6.45-19.99 18.525 7.535 48.464 27.727 28.272 14.918-14.919 3.473-34.124-11.89-34.722" style="fill:#e15f5f;fill-opacity:1;stroke:none;stroke-width:2.10065;stroke-opacity:1"/><path d="M1997.517 1436.672c-1.599-.02-3.77 1.853-7.684 6.076-63.372 68.379 10.974 234.526 220.133 254.425 12.493 1.189 35.208.596 43.492-.174-90.27-41.284-171.821-79.859-224.677-168.846-12.065-25.844-21.974-52.731-26.119-81.113-.024-2.372-1.21-6.156-2.634-8.407-.799-1.263-1.551-1.952-2.51-1.96" style="fill:#f6ccd6;fill-opacity:1;stroke-width:2.10065"/><path d="M1589.081 926.935c525.734 439.676 30.571 679.059 49.525 743.952 3.34 11.437 73.903-1.556 276.149-239.018 75.188-148.656 75.183-372.461-228.981-491.684-31.63-12.398-96.693-13.25-96.693-13.25" style="fill:#f9e3d6;fill-opacity:1;stroke-width:2.39869"/><path d="M1645.757 931.297c503.426 379.6-26.772 687.788-26.772 756.973 0 6.509 29.016-2.394 65.408-20.07 105.471-49.233 170.138-123.212 235.437-214.074 109.797-153.865 55.372-398.993-196.144-510.221-25.64-11.34-77.93-12.608-77.93-12.608m693.109 2350.175c-8.428-.29-13.893 4.65-18.852 16.054-65.011 147.691-144.94 266.385-293.16 338.21-10.163 7.751-13.21 16.571-6.643 19.221 6.061 2.446 12.33 1.492 30.636-2.256 294.875-60.37 381.053-347.18 294.358-370.208-2.29-.608-4.394-.954-6.339-1.021" style="fill:#f6ccd6;fill-opacity:1;stroke-width:2.10065"/><path d="M1212.643 846.337c-13.749-2.508-21.157.467-21.202 6.222-.113 14.582 107.726 7.148 214.892 163.083 111.184 161.78 49.318 341.529 62.458 415.017 1.142 6.381 4.049 12.042 6.46 12.578 8.7 1.935 85.998-154.748 93.192-168.922 89.619-176.596-144.468-389.418-355.8-427.978" style="fill:#f9e3d6;fill-opacity:1;stroke-width:2.42859"/><path d="M1197.616 846.442c-12.078.5-18.71 3.23-17.667 8.099 2.643 12.333 94.765-7.295 214.53 104.245 124.254 115.722 105.768 279.108 130.662 338.69 2.162 5.173 5.68 9.407 7.816 9.407 7.71 0 29.637-20.126 35.486-32.568 93.604-199.135-184.228-435.596-370.827-427.873" style="fill:#f6ccd6;fill-opacity:1;stroke-width:2.10065"/><path d="M1542.205 3409.886c-30.512 134.018 31.094 222.488 52.644 215.293 2.138-.714 3.216-16.96 3.4-51.228.198-36.59 5.632-72.61 15.05-107.728-24.952-16.865-48.74-35.59-71.094-56.337" style="display:inline;fill:#f6bcce;fill-opacity:1;stroke-width:2.10065"/><path d="M2085.605 3602.621c-18.327 11.936-37.86 22.99-58.752 33.114-10.163 7.752-13.21 16.572-6.643 19.222 6.061 2.446 12.33 1.492 30.636-2.256 51.022-10.446 95.796-27.67 134.508-49.136-32.577.787-65.96.552-99.749-.944" style="fill:#f6bcce;fill-opacity:1;stroke-width:2.10065"/><path d="M2535.518 1820.267c-12.552-.204-76.71 160.796-426.383 108.224-10.013-1.505-26.395-3.148-36.408-3.647-21.287-.584-66.625-21.668-2.967 15.328 299.41 182.523 516.595-51.31 466.936-119.224-.332-.454-.72-.674-1.178-.681" style="fill:#f6ccd6;fill-opacity:1;stroke-width:2.10065"/><path d="m1156.192 2516.803 4.545-46.769c-70.766 67.643-534.593 226.436-298.23 328.067 129.652 34.436 281.123-152.043 293.685-281.298" style="fill:#faf9e4;fill-opacity:1;fill-rule:evenodd;stroke:none;stroke-width:30.3477;stroke-miterlimit:7;stroke-dasharray:none;stroke-opacity:1;paint-order:stroke markers fill"/><path d="M2038.386 1918.337c-4.356-.088 1.535 4.493 31.374 21.835 116.338 70.921 220.264 78.98 300.943 58.338-45.498-11.56-90.175-31.692-132.526-59.47-37.988-.107-80.798-3.295-129.042-10.549-10.013-1.505-26.395-3.148-36.409-3.647-11.308-.31-29.404-6.407-34.34-6.507" style="fill:#f6bcce;fill-opacity:1;stroke-width:2.10065"/><path d="M240.359 415.573c33.254-.026 196.53 35.44 125.048 148.097-30.615 47.22-78.242 70.889-115.655 76.988-25.516 4.16-62.3-3.403-74.215-53.867-22.773-96.453 2.815-171.086 64.822-171.218" style="baseline-shift:baseline;display:inline;overflow:visible;vector-effect:none;fill:#e15f5f;stop-color:#000" transform="matrix(-2.10065 0 0 2.10065 2993.502 437.326)"/><path d="M178.08 460.186c-13.115 31-14.545 75.772-2.543 126.605 11.915 50.464 48.699 58.027 74.215 53.867 37.412-6.1 85.039-29.768 115.654-76.988 2.851-4.494 5.33-8.863 7.457-13.113-13.11 13.529-31.338 19.564-56.302 27.072-73.64 18.597-128.285-65.543-138.48-117.443" style="baseline-shift:baseline;display:inline;overflow:visible;vector-effect:none;fill:#c94c50;fill-opacity:1;stop-color:#000" transform="matrix(-2.10065 0 0 2.10065 2993.502 437.326)"/><path d="M240.36 415.572c-21.648.046-38.858 9.174-51.12 25.139 35.11 33.175 87.536 26.87 129.338 3.904 4.32-3.021 7.358-5.977 6.75-6.566l-.043-.04c-33.119-16.038-70.782-22.448-84.926-22.437" style="baseline-shift:baseline;display:inline;overflow:visible;vector-effect:none;fill:#e67f7b;fill-opacity:1;stop-color:#000" transform="matrix(-2.10065 0 0 2.10065 2993.502 437.326)"/><path d="M240.354 413.072c-32.006.068-54.997 19.722-66.545 51.127-11.55 31.405-12.173 74.596-.705 123.166 6.083 25.765 18.73 41.007 33.23 49.031s30.636 8.878 43.82 6.729c38.094-6.21 86.298-30.2 117.35-78.094l.008-.011.006-.01c18.133-28.578 21.586-52.785 15.576-72.733s-21.26-35.35-39.592-47.021-39.83-19.682-58.873-24.81c-19.043-5.13-35.512-7.38-44.271-7.374h-.002zm.008 5h.002c7.868-.006 24.275 2.168 42.964 7.201 18.69 5.035 39.78 12.927 57.489 24.202 17.709 11.274 31.95 25.86 37.49 44.246 5.538 18.382 2.599 40.85-15 68.593-30.18 46.545-77.227 69.89-113.957 75.877-12.332 2.011-27.346 1.163-40.596-6.17-13.25-7.332-24.951-21.105-30.783-45.804-11.305-47.882-10.522-90.235.531-120.293 11.053-30.057 31.86-47.787 61.86-47.852" style="baseline-shift:baseline;display:inline;overflow:visible;vector-effect:none;fill:#854035;fill-opacity:1;stop-color:#000" transform="matrix(-2.10065 0 0 2.10065 2993.502 437.326)"/><path d="M226.648 474.941c-2.038-.06-3.475 2.05-3.726 4.641-.414 4.276 2.282 11.051 6.156 15.467 6.039 6.882 9.081-3.637 3.967-13.715-2.332-4.595-4.598-6.34-6.397-6.393m89.315 41.018c-1.534.038-2.729.92-3.295 2.703-1.105 3.481 4.243 13.01 8.646 15.406 7.932 4.318 11.506-2.357 2.633-13.068-2.778-3.354-5.742-5.097-7.984-5.041m-79.04 50.896c-7.065.06-1.441 17.965 2.134 20.47 5.158 3.613 10.277 2.044 10.277-3.15 0-4.973-7.96-16.738-11.686-17.269a5 5 0 0 0-.724-.05" style="fill:url(#f);fill-opacity:1" transform="matrix(-2.10065 0 0 2.10065 2993.502 437.326)"/><path d="M223.915 428.444c-7.291 3.322-2.932 9.744 4.079 9.744 4.793 0 7.922-2.619 7.922-6.627 0-3.691-7.005-5.393-12-3.117" style="fill:#ea9993;fill-opacity:1;stroke-width:1.18845" transform="matrix(-2.10065 0 0 2.10065 2993.502 437.326)"/><path d="M869.586 2005.05c-2.116.021-4.44 4.238-5.613 12.063-5.315 35.443 1.127 113.179 64.538 175.244 24.566-4.832 50.545-11.712 77.367-20.366-72.904-48.583-126.005-113.68-132.374-159.071-.751-5.355-2.272-7.883-3.918-7.87" style="display:inline;fill:#f6ccd6;fill-opacity:1;stroke-width:2.10065"/><path d="M1572.513 2303.885c-52.658-.138-99.404 67.163-90.677 94.422 3.427 10.704 10.7 5.384 20.834-15.25 16.2-32.984 39.025-51.659 63.016-53.033 10.819-3.524 25.642-8.354 43.358-14.13-10.387-7.223-20.988-10.878-31.42-11.784a61 61 0 0 0-5.111-.225" style="fill:#dd4a4a;fill-opacity:1;stroke-width:2.61092"/><text xml:space="preserve" x="1796.111" y="4365.472" style="font-size:414.268px;line-height:.8;font-family:&quot;Magic Bubble&quot;;-inkscape-font-specification:&quot;Magic Bubble&quot;;text-align:center;text-decoration-color:#000;text-anchor:middle;fill:#f5a9b8;fill-opacity:1;stroke-width:12.0346;stroke-linecap:round;stroke-linejoin:bevel;stroke-miterlimit:7;stroke-dashoffset:3.3;-inkscape-stroke:none;stop-color:#000"><tspan x="1796.111" y="4365.472" style="stroke-width:12.0346">You&apos;re the only</tspan><tspan x="1796.111" y="4700.932" style="stroke-width:12.0346">man I&apos;d like to</tspan><tspan x="1796.111" y="5036.392" style="stroke-width:12.0346">have for dessert!</tspan></text><text xml:space="preserve" x="1821.792" y="507.229" style="font-size:527.015px;line-height:.8;font-family:&quot;Magic Bubble&quot;;-inkscape-font-specification:&quot;Magic Bubble&quot;;text-align:center;text-decoration-color:#000;text-anchor:middle;fill:#f5a9b8;fill-opacity:1;stroke-width:10.9795;stroke-linecap:round;stroke-linejoin:bevel;stroke-miterlimit:7;stroke-dashoffset:3.3;-inkscape-stroke:none;stop-color:#000"><tspan x="1821.792" y="507.229">To Anthony:</tspan></text><path d="M1703.717 2568.63c-.218-.01-.473.134-.785.393-.805.668-1.364 3.05-1.354 5.766.075 20.73 29.968 21.87 40.168 15.873 3.881-2.058 6.515-5.337 8.996-8.81 2.48 3.473 5.115 6.752 8.996 8.81 10.2 5.996 40.093 4.856 40.168-15.873.01-2.716-.55-5.098-1.353-5.766-1.111-.922-1.497-.345-2.04 3.05-1.994 12.473-30.728 27.64-45.77-2.446-15.044 30.086-43.778 14.919-45.772 2.445-.39-2.44-.699-3.423-1.254-3.441" style="display:inline;fill:#e15f5f;fill-opacity:1" transform="rotate(-6.404 -20202.861 18022.495)scale(1.947)"/><path d="M1702.14 2570.449c-.355 1.098-.568 2.654-.562 4.34.075 20.729 29.968 21.87 40.168 15.873a357 357 0 0 1-9.317-4.204c-13.03 3.34-26.094-6.083-27.452-14.346a344 344 0 0 1-2.838-1.663" style="display:inline;fill:#dd4a4a;fill-opacity:1" transform="rotate(-6.404 -20202.861 18022.495)scale(1.947)"/><ellipse cx="1645.99" cy="2675.194" rx="87.328" ry="35.355" style="font-variation-settings:normal;opacity:1;vector-effect:none;fill:#f6bcce;fill-opacity:1;fill-rule:evenodd;stroke-width:26.4567;stroke-linecap:butt;stroke-linejoin:miter;stroke-miterlimit:4;stroke-dasharray:none;stroke-dashoffset:0;stroke-opacity:1;-inkscape-stroke:none;stop-color:#000;stop-opacity:1" transform="rotate(-8.333)"/><ellipse cx="-1246.554" cy="2636.683" rx="87.328" ry="35.355" style="font-variation-settings:normal;opacity:1;vector-effect:none;fill:#f6bcce;fill-opacity:1;fill-rule:evenodd;stroke-width:26.4567;stroke-linecap:butt;stroke-linejoin:miter;stroke-miterlimit:4;stroke-dasharray:none;stroke-dashoffset:0;stroke-opacity:1;-inkscape-stroke:none;stop-color:#000;stop-opacity:1" transform="scale(-1 1)rotate(7.657)"/><path d="M-1277.298 2603.592a87.328 35.355 0 0 1 30.744-2.263 87.328 35.355 0 0 1 87.327 35.355 87.328 35.355 0 0 1-87.327 35.355 87.328 35.355 0 0 1-86.014-29.245c16.455-12.06 31.8-24.618 45.714-37.476a87.328 35.355 0 0 1 9.556-1.726" style="font-variation-settings:normal;opacity:1;vector-effect:none;fill:#f2a1ba;fill-opacity:1;fill-rule:evenodd;stroke-width:26.4567;stroke-linecap:butt;stroke-linejoin:miter;stroke-miterlimit:4;stroke-dasharray:none;stroke-dashoffset:0;stroke-opacity:1;-inkscape-stroke:none;stop-color:#000;stop-opacity:1" transform="scale(-1 1)rotate(7.657)"/></svg>