<?xml version="1.0" encoding="UTF-8" standalone="no"?>
<svg
   xml:space="preserve"
   width="1000"
   height="500"
   version="1.1"
   id="svg15"
   sodipodi:docname="wii-u-gamepad-controller-dark-mode.svg"
   inkscape:version="1.4.2 (ebf0e940d0, 2025-05-08)"
   xmlns:inkscape="http://www.inkscape.org/namespaces/inkscape"
   xmlns:sodipodi="http://sodipodi.sourceforge.net/DTD/sodipodi-0.dtd"
   xmlns="http://www.w3.org/2000/svg"
   xmlns:svg="http://www.w3.org/2000/svg"><defs
     id="defs15" /><sodipodi:namedview
     id="namedview15"
     pagecolor="#ffffff"
     bordercolor="#000000"
     borderopacity="0.25"
     inkscape:showpageshadow="2"
     inkscape:pageopacity="0.0"
     inkscape:pagecheckerboard="0"
     inkscape:deskcolor="#d1d1d1"
     inkscape:zoom="0.3405"
     inkscape:cx="371.51248"
     inkscape:cy="13.215859"
     inkscape:window-width="1536"
     inkscape:window-height="888"
     inkscape:window-x="0"
     inkscape:window-y="0"
     inkscape:window-maximized="1"
     inkscape:current-layer="svg15" /><path
     d="M182.856 35.694c-42.038 4.197-86.113 44.3-86.113 62.51 0 7.104-8.215 16.628-12.08 41.963-2.69 17.618-2.695 203.904-.012 221.731 7.422 49.233 44.31 88.957 94.042 102.141 4.018 1.065 10.695 1.813 14.852 1.909 72.354 1.664 462.114 3.468 612.91 0 4.156-.096 10.833-.844 14.851-1.909 49.733-13.184 86.62-52.908 94.042-102.141 2.683-17.827 2.68-204.113-.01-221.731-3.866-25.335-12.08-34.859-12.08-41.962 0-18.212-44.078-58.314-86.116-62.511-48.742-4.867-586.283-4.793-634.287 0z"
     style="display:inline;fill:#dfdfe7;fill-opacity:1;stroke-width:4.63319;stroke-linecap:round"
     id="path1" /><g
     style="fill:#000"
     transform="translate(-85.752 -786.246)scale(.76303)"
     id="g4"><circle
       cx="1129.338"
       cy="1331.779"
       r="22.338"
       style="font-variation-settings:normal;vector-effect:none;fill:#000;fill-opacity:1;fill-rule:evenodd;stroke-width:44.661;stroke-linecap:butt;stroke-linejoin:miter;stroke-miterlimit:4;stroke-dasharray:none;stroke-dashoffset:0;stroke-opacity:1;-inkscape-stroke:none;stop-color:#000"
       id="circle1" /><circle
       cx="-1216.219"
       cy="1331.779"
       r="22.338"
       style="font-variation-settings:normal;vector-effect:none;fill:#000;fill-opacity:1;fill-rule:evenodd;stroke-width:44.661;stroke-linecap:butt;stroke-linejoin:miter;stroke-miterlimit:4;stroke-dasharray:none;stroke-dashoffset:0;stroke-opacity:1;-inkscape-stroke:none;stop-color:#000"
       transform="scale(-1 1)"
       id="circle2" /><circle
       cx="1288.338"
       cy="-1172.778"
       r="22.338"
       style="font-variation-settings:normal;vector-effect:none;fill:#000;fill-opacity:1;fill-rule:evenodd;stroke-width:44.661;stroke-linecap:butt;stroke-linejoin:miter;stroke-miterlimit:4;stroke-dasharray:none;stroke-dashoffset:0;stroke-opacity:1;-inkscape-stroke:none;stop-color:#000"
       transform="rotate(90)"
       id="circle3" /><circle
       cx="-1375.219"
       cy="-1172.778"
       r="22.338"
       style="font-variation-settings:normal;vector-effect:none;fill:#000;fill-opacity:1;fill-rule:evenodd;stroke-width:44.661;stroke-linecap:butt;stroke-linejoin:miter;stroke-miterlimit:4;stroke-dasharray:none;stroke-dashoffset:0;stroke-opacity:1;-inkscape-stroke:none;stop-color:#000"
       transform="scale(1 -1)rotate(90)"
       id="circle4" /></g><circle
     cx="500"
     cy="425.123"
     r="19.787"
     style="font-variation-settings:normal;vector-effect:none;fill:#000;fill-opacity:1;fill-rule:evenodd;stroke-width:51.9137;stroke-linecap:butt;stroke-linejoin:miter;stroke-miterlimit:4;stroke-dasharray:none;stroke-dashoffset:0;stroke-opacity:1;-inkscape-stroke:none;stop-color:#000"
     id="circle5" /><path
     d="M187.883 190.827a6.11 6.11 0 0 0-6.126 6.127v16.436a2.157 2.157 0 0 1-2.16 2.16h-16.435a6.11 6.11 0 0 0-6.127 6.125v15.99a6.11 6.11 0 0 0 6.127 6.125h16.436a2.157 2.157 0 0 1 2.16 2.16v16.436a6.11 6.11 0 0 0 6.125 6.126h15.992a6.11 6.11 0 0 0 6.124-6.126v-16.437a2.157 2.157 0 0 1 2.16-2.159h16.438a6.11 6.11 0 0 0 6.124-6.124v-15.991a6.11 6.11 0 0 0-6.124-6.125h-16.44a2.157 2.157 0 0 1-2.16-2.16v-16.437a6.11 6.11 0 0 0-6.122-6.125z"
     style="fill:#000;fill-opacity:1;fill-rule:evenodd;stroke:none;stroke-width:2.59779;stroke-miterlimit:7;paint-order:stroke markers fill"
     id="path5" /><path
     d="M397.4 50.94c-10.769 0-19.502 8.732-19.502 19.501s8.733 19.502 19.502 19.502h205.2c10.769 0 19.502-8.733 19.502-19.502S613.369 50.94 602.6 50.94zm0 4.066h205.2a15.357 15.357 0 0 1 15.435 15.435c0 8.587-6.848 15.438-15.435 15.438H397.4c-8.587 0-15.435-6.85-15.435-15.438A15.357 15.357 0 0 1 397.4 55.006"
     style="baseline-shift:baseline;display:inline;overflow:visible;opacity:1;vector-effect:none;fill:#000;stroke-linecap:round;stop-color:#000;stop-opacity:1"
     id="path6" /><g
     style="fill:#000"
     id="g8"><path
       d="M625.832 1091.885c-3.635 0-6.61 2.974-6.61 6.61 0 3.634 2.975 6.61 6.61 6.61s6.611-2.976 6.611-6.61c0-3.636-2.976-6.61-6.611-6.61m0 2.644a3.945 3.945 0 0 1 3.965 3.965 3.945 3.945 0 0 1-3.965 3.965 3.945 3.945 0 0 1-3.965-3.965 3.945 3.945 0 0 1 3.965-3.965"
       style="baseline-shift:baseline;display:inline;overflow:visible;opacity:1;vector-effect:none;fill:#000;stroke-linecap:round;stop-color:#000;stop-opacity:1"
       transform="translate(-209.128 -1174.257)scale(1.1331)"
       id="path7" /><path
       d="M625.832 1087.436c-6.092 0-11.059 4.966-11.059 11.058s4.967 11.06 11.059 11.06 11.06-4.968 11.06-11.06-4.968-11.058-11.06-11.058m0 2.646a8.393 8.393 0 0 1 8.414 8.412 8.395 8.395 0 0 1-8.414 8.414 8.393 8.393 0 0 1-8.412-8.414 8.39 8.39 0 0 1 8.412-8.412"
       style="baseline-shift:baseline;display:inline;overflow:visible;opacity:1;vector-effect:none;fill:#000;stroke-linecap:round;stop-color:#000;stop-opacity:1"
       transform="translate(-209.128 -1174.257)scale(1.1331)"
       id="path8" /></g><g
     style="fill:#000"
     transform="translate(-94.669 -973.003)scale(.9498)"
     id="g9"><circle
       cx="913.54"
       cy="1354.649"
       r="14.125"
       style="font-variation-settings:normal;vector-effect:none;fill:#000;fill-opacity:1;fill-rule:evenodd;stroke-width:37.0595;stroke-linecap:butt;stroke-linejoin:miter;stroke-miterlimit:4;stroke-dasharray:none;stroke-dashoffset:0;stroke-opacity:1;-inkscape-stroke:none;stop-color:#000"
       id="circle8" /><circle
       cx="913.54"
       cy="1399.009"
       r="14.125"
       style="font-variation-settings:normal;vector-effect:none;fill:#000;fill-opacity:1;fill-rule:evenodd;stroke-width:37.0595;stroke-linecap:butt;stroke-linejoin:miter;stroke-miterlimit:4;stroke-dasharray:none;stroke-dashoffset:0;stroke-opacity:1;-inkscape-stroke:none;stop-color:#000"
       id="circle9" /></g><rect
     width="19.969"
     height="10.629"
     x="762.865"
     y="419.737"
     ry="5.315"
     style="fill:#000;fill-opacity:1;stroke:none;stroke-width:3.18564;stroke-linecap:round;stroke-dasharray:none;stroke-opacity:1"
     id="rect9" /><rect
     width="19.969"
     height="10.629"
     x="-237.135"
     y="419.737"
     ry="5.315"
     style="fill:#000;fill-opacity:1;stroke:none;stroke-width:3.18564;stroke-linecap:round;stroke-dasharray:none;stroke-opacity:1"
     transform="scale(-1 1)"
     id="rect10" /><g
     style="fill:#000"
     id="g11"><path
       d="m 984.53,1135.065 c -17.7,0 -32.075,14.376 -32.075,32.075 0,17.699 14.377,32.075 32.077,32.075 17.7,0 32.074,-14.376 32.074,-32.075 0,-17.699 -14.375,-32.075 -32.074,-32.075"
       style="baseline-shift:baseline;display:inline;overflow:visible;vector-effect:none;fill:#000000;fill-opacity:1;stroke:none;stroke-width:2.5783;stroke-opacity:1;stop-color:#000000"
       transform="matrix(0.9814,0,0,0.9814,-127.211,-1009.883)"
       id="path11"
       sodipodi:nodetypes="csssc" /></g><path
     d="m 160.99326,104.06979 c 17.37078,0 31.4784,14.10861 31.4784,31.47841 0,17.36979 -14.10958,31.4784 -31.48036,31.4784 -17.37078,0 -31.47743,-14.10861 -31.47743,-31.4784 0,-17.3698 14.10763,-31.47841 31.47743,-31.47841"
     style="baseline-shift:baseline;display:inline;overflow:visible;vector-effect:none;fill:#000000;fill-opacity:1;stroke:none;stroke-width:2.53034;stroke-opacity:1;stop-color:#000000"
     id="path13"
     sodipodi:nodetypes="csssc" /><g
     style="fill:#000"
     transform="translate(-94.669 -973.003)scale(.9498)"
     id="g14"><circle
       cx="854.484"
       cy="1472.202"
       r="11.839"
       style="font-variation-settings:normal;vector-effect:none;fill:#000;fill-opacity:1;fill-rule:evenodd;stroke-width:31.0603;stroke-linecap:butt;stroke-linejoin:miter;stroke-miterlimit:4;stroke-dasharray:none;stroke-dashoffset:0;stroke-opacity:1;-inkscape-stroke:none;stop-color:#000"
       id="circle13" /><rect
       width="23.628"
       height="23.628"
       x="798.171"
       y="1460.388"
       ry="3.788"
       style="fill:#000;fill-opacity:1;stroke:none;stroke-width:4.65999;stroke-linecap:round;stroke-dasharray:none;stroke-opacity:1"
       id="rect13" /></g><path
     d="M292.387 121.373c-10.862 0-19.68 8.816-19.68 19.678v217.898c0 10.862 8.818 19.678 19.68 19.678h415.226c10.862 0 19.68-8.816 19.68-19.678V141.051c0-10.862-8.818-19.678-19.68-19.678z"
     style="baseline-shift:baseline;display:inline;overflow:visible;vector-effect:none;fill:#000;fill-rule:evenodd;stroke-linecap:square;stroke-linejoin:round;stroke-miterlimit:7;paint-order:stroke markers fill;stop-color:#000"
     id="path14" /><path
     d="M282.432 109.61c-11.41 0-20.672 9.261-20.672 20.671V369.72c0 11.41 9.262 20.672 20.672 20.672h435.136c11.41 0 20.672-9.262 20.672-20.672V130.28c0-11.41-9.262-20.672-20.672-20.672zm0 4.927h435.136c8.765 0 15.745 6.98 15.745 15.744V369.72c0 8.765-6.98 15.744-15.745 15.744H282.432c-8.765 0-15.744-6.98-15.744-15.744V130.28c0-8.765 6.979-15.744 15.744-15.744"
     style="baseline-shift:baseline;display:inline;overflow:visible;opacity:1;vector-effect:none;fill:#000;fill-rule:evenodd;stroke-linecap:square;stroke-linejoin:round;stroke-miterlimit:7;paint-order:stroke markers fill;stop-color:#000;stop-opacity:1"
     id="path15" /></svg>
