<?xml version="1.0" encoding="UTF-8" standalone="no"?>
<!-- Created with Inkscape (http://www.inkscape.org/) -->

<svg
   version="1.1"
   id="svg1"
   width="3000"
   height="3600"
   viewBox="0 0 3000 3600"
   xml:space="preserve"
   xmlns:xlink="http://www.w3.org/1999/xlink"
   xmlns="http://www.w3.org/2000/svg"
   xmlns:svg="http://www.w3.org/2000/svg"><defs
     id="defs1"><linearGradient
       id="linearGradient120"><stop
         style="stop-color:#d3e1fd;stop-opacity:1;"
         offset="0"
         id="stop120" /><stop
         style="stop-color:#d3e1fd;stop-opacity:0;"
         offset="1"
         id="stop121" /></linearGradient><linearGradient
       id="linearGradient118"><stop
         style="stop-color:#d3e1fd;stop-opacity:1;"
         offset="0"
         id="stop118" /><stop
         style="stop-color:#d3e1fd;stop-opacity:0;"
         offset="1"
         id="stop119" /></linearGradient><linearGradient
       id="linearGradient115"><stop
         style="stop-color:#3295ea;stop-opacity:1;"
         offset="0"
         id="stop116" /><stop
         style="stop-color:#3295ea;stop-opacity:0;"
         offset="1"
         id="stop117" /></linearGradient><linearGradient
       id="linearGradient114"><stop
         style="stop-color:#2a90e8;stop-opacity:1;"
         offset="0"
         id="stop114" /><stop
         style="stop-color:#2a90e8;stop-opacity:0;"
         offset="1"
         id="stop115" /></linearGradient><linearGradient
       id="linearGradient108"><stop
         style="stop-color:#2eaaef;stop-opacity:1;"
         offset="0"
         id="stop108" /><stop
         style="stop-color:#2eaaef;stop-opacity:0;"
         offset="1"
         id="stop109" /></linearGradient><linearGradient
       id="linearGradient102"><stop
         style="stop-color:#2a4867;stop-opacity:1;"
         offset="0"
         id="stop102" /><stop
         style="stop-color:#2a4867;stop-opacity:0;"
         offset="1"
         id="stop103" /></linearGradient><linearGradient
       id="linearGradient97"><stop
         style="stop-color:#2fb0f2;stop-opacity:1;"
         offset="0"
         id="stop97" /><stop
         style="stop-color:#2fb0f2;stop-opacity:0;"
         offset="1"
         id="stop98" /></linearGradient><linearGradient
       id="linearGradient95"><stop
         style="stop-color:#273147;stop-opacity:1;"
         offset="0"
         id="stop95" /><stop
         style="stop-color:#425378;stop-opacity:1;"
         offset="1"
         id="stop96" /></linearGradient><linearGradient
       id="linearGradient93"><stop
         style="stop-color:#273147;stop-opacity:1;"
         offset="0"
         id="stop93" /><stop
         style="stop-color:#415376;stop-opacity:1;"
         offset="1"
         id="stop94" /></linearGradient><linearGradient
       id="linearGradient91"><stop
         style="stop-color:#273147;stop-opacity:1;"
         offset="0"
         id="stop91" /><stop
         style="stop-color:#3a496a;stop-opacity:1;"
         offset="1"
         id="stop92" /></linearGradient><linearGradient
       id="linearGradient78"><stop
         style="stop-color:#fef9b0;stop-opacity:1;"
         offset="0"
         id="stop78" /><stop
         style="stop-color:#fef9b0;stop-opacity:0;"
         offset="1"
         id="stop79" /></linearGradient><linearGradient
       id="linearGradient74"><stop
         style="stop-color:#fef9b0;stop-opacity:1;"
         offset="0"
         id="stop75" /><stop
         style="stop-color:#fef9b0;stop-opacity:0;"
         offset="1"
         id="stop76" /></linearGradient><linearGradient
       id="linearGradient72"><stop
         style="stop-color:#fdf182;stop-opacity:0.41568604;"
         offset="0"
         id="stop73" /><stop
         style="stop-color:#fdf182;stop-opacity:0;"
         offset="1"
         id="stop74" /></linearGradient><linearGradient
       id="linearGradient71"><stop
         style="stop-color:#fef182;stop-opacity:1;"
         offset="0"
         id="stop71" /><stop
         style="stop-color:#fef182;stop-opacity:0;"
         offset="1"
         id="stop72" /></linearGradient><linearGradient
       id="linearGradient66"><stop
         style="stop-color:#fffce0;stop-opacity:1;"
         offset="0"
         id="stop67" /><stop
         style="stop-color:#fffce0;stop-opacity:0;"
         offset="1"
         id="stop68" /></linearGradient><linearGradient
       id="linearGradient65"><stop
         style="stop-color:#fef182;stop-opacity:1;"
         offset="0"
         id="stop65" /><stop
         style="stop-color:#fef182;stop-opacity:0;"
         offset="1"
         id="stop66" /></linearGradient><linearGradient
       id="linearGradient60"><stop
         style="stop-color:#fdea40;stop-opacity:1;"
         offset="0"
         id="stop60" /><stop
         style="stop-color:#fdea40;stop-opacity:0;"
         offset="1"
         id="stop61" /></linearGradient><linearGradient
       id="linearGradient52"><stop
         style="stop-color:#5daae8;stop-opacity:1;"
         offset="0"
         id="stop52" /><stop
         style="stop-color:#5daae8;stop-opacity:0;"
         offset="1"
         id="stop53" /></linearGradient><linearGradient
       id="linearGradient46"><stop
         style="stop-color:#2ec5f8;stop-opacity:0;"
         offset="0"
         id="stop46" /><stop
         style="stop-color:#2acafa;stop-opacity:0.58229125;"
         offset="0.60915899"
         id="stop48" /><stop
         style="stop-color:#5edcfc;stop-opacity:1;"
         offset="1"
         id="stop47" /></linearGradient><linearGradient
       id="linearGradient43"><stop
         style="stop-color:#309cea;stop-opacity:1;"
         offset="0"
         id="stop44" /><stop
         style="stop-color:#1581cf;stop-opacity:1;"
         offset="1"
         id="stop45" /></linearGradient><linearGradient
       id="linearGradient41"><stop
         style="stop-color:#3ac2f7;stop-opacity:0.66303593;"
         offset="0"
         id="stop42" /><stop
         style="stop-color:#3ac2f7;stop-opacity:0;"
         offset="1"
         id="stop43" /></linearGradient><linearGradient
       id="linearGradient4"><stop
         style="stop-color:#2f79ee;stop-opacity:1;"
         offset="0"
         id="stop32" /><stop
         style="stop-color:#2f79ee;stop-opacity:0;"
         offset="1"
         id="stop41" /></linearGradient><linearGradient
       id="linearGradient38"><stop
         style="stop-color:#309cea;stop-opacity:1;"
         offset="0"
         id="stop39" /><stop
         style="stop-color:#309cea;stop-opacity:0;"
         offset="1"
         id="stop40" /></linearGradient><linearGradient
       id="linearGradient36"><stop
         style="stop-color:#1e51ab;stop-opacity:1;"
         offset="0"
         id="stop37" /><stop
         style="stop-color:#1e51ab;stop-opacity:0;"
         offset="1"
         id="stop38" /></linearGradient><linearGradient
       id="linearGradient34"><stop
         style="stop-color:#2fa0ec;stop-opacity:1;"
         offset="0"
         id="stop35" /><stop
         style="stop-color:#2fa0ec;stop-opacity:0;"
         offset="1"
         id="stop36" /></linearGradient><linearGradient
       id="linearGradient33"><stop
         style="stop-color:#2460c9;stop-opacity:1;"
         offset="0"
         id="stop33" /><stop
         style="stop-color:#2460c9;stop-opacity:0;"
         offset="1"
         id="stop34" /></linearGradient><linearGradient
       id="linearGradient29"><stop
         style="stop-color:#113292;stop-opacity:0.72681618;"
         offset="0"
         id="stop30" /><stop
         style="stop-color:#113292;stop-opacity:0;"
         offset="1"
         id="stop31" /></linearGradient><linearGradient
       id="linearGradient27"><stop
         style="stop-color:#73bcf1;stop-opacity:1;"
         offset="0"
         id="stop28" /><stop
         style="stop-color:#73bcf1;stop-opacity:0;"
         offset="1"
         id="stop29" /></linearGradient><linearGradient
       id="linearGradient25"><stop
         style="stop-color:#73bcf1;stop-opacity:1;"
         offset="0"
         id="stop26" /><stop
         style="stop-color:#73bcf1;stop-opacity:0;"
         offset="1"
         id="stop27" /></linearGradient><linearGradient
       id="linearGradient23"><stop
         style="stop-color:#7053f0;stop-opacity:1;"
         offset="0"
         id="stop24" /><stop
         style="stop-color:#7053f0;stop-opacity:0;"
         offset="1"
         id="stop25" /></linearGradient><linearGradient
       id="linearGradient21"><stop
         style="stop-color:#153e93;stop-opacity:1;"
         offset="0"
         id="stop22" /><stop
         style="stop-color:#153e93;stop-opacity:0;"
         offset="1"
         id="stop23" /></linearGradient><linearGradient
       id="linearGradient20"><stop
         style="stop-color:#215bc6;stop-opacity:1;"
         offset="0"
         id="stop20" /><stop
         style="stop-color:#215bc6;stop-opacity:0;"
         offset="1"
         id="stop21" /></linearGradient><linearGradient
       id="linearGradient18"><stop
         style="stop-color:#1d4fa7;stop-opacity:1;"
         offset="0"
         id="stop18" /><stop
         style="stop-color:#19438e;stop-opacity:1;"
         offset="1"
         id="stop19" /></linearGradient><linearGradient
       id="linearGradient16"><stop
         style="stop-color:#1e4fa7;stop-opacity:1;"
         offset="0"
         id="stop16" /><stop
         style="stop-color:#1e4fa7;stop-opacity:0;"
         offset="1"
         id="stop17" /></linearGradient><linearGradient
       id="linearGradient6"><stop
         style="stop-color:#215bc6;stop-opacity:1;"
         offset="0"
         id="stop6" /><stop
         style="stop-color:#215bc6;stop-opacity:0;"
         offset="1"
         id="stop15" /></linearGradient><linearGradient
       id="linearGradient3"><stop
         style="stop-color:#1a4aab;stop-opacity:0.62352037;"
         offset="0"
         id="stop4" /><stop
         style="stop-color:#1a4aab;stop-opacity:0;"
         offset="1"
         id="stop5" /></linearGradient><linearGradient
       id="linearGradient13"><stop
         style="stop-color:#1e4fa7;stop-opacity:1;"
         offset="0"
         id="stop13" /><stop
         style="stop-color:#1e4fa7;stop-opacity:0;"
         offset="1"
         id="stop14" /></linearGradient><linearGradient
       id="linearGradient10"><stop
         style="stop-color:#537cfd;stop-opacity:1;"
         offset="0"
         id="stop11" /><stop
         style="stop-color:#537cfd;stop-opacity:0;"
         offset="1"
         id="stop12" /></linearGradient><linearGradient
       id="linearGradient9"><stop
         style="stop-color:#1e4fa7;stop-opacity:1;"
         offset="0"
         id="stop9" /><stop
         style="stop-color:#1e4fa7;stop-opacity:0;"
         offset="1"
         id="stop10" /></linearGradient><linearGradient
       id="linearGradient7"><stop
         style="stop-color:#2ca6ef;stop-opacity:1;"
         offset="0"
         id="stop7" /><stop
         style="stop-color:#2ca6ef;stop-opacity:0;"
         offset="1"
         id="stop8" /></linearGradient><linearGradient
       id="linearGradient2"><stop
         style="stop-color:#5cb1ee;stop-opacity:1;"
         offset="0"
         id="stop2" /><stop
         style="stop-color:#5cb1ee;stop-opacity:0;"
         offset="1"
         id="stop3" /></linearGradient><radialGradient
       xlink:href="#linearGradient2"
       id="radialGradient3"
       cx="87.309288"
       cy="192"
       fx="87.309288"
       fy="192"
       r="104.69071"
       gradientUnits="userSpaceOnUse"
       gradientTransform="matrix(1.4570004,0,0,1.4570004,-47.862956,-107.71208)" /><radialGradient
       xlink:href="#linearGradient7"
       id="radialGradient8"
       cx="137.52628"
       cy="105.45886"
       fx="137.52628"
       fy="105.45886"
       r="52.223999"
       gradientUnits="userSpaceOnUse"
       gradientTransform="translate(12.941649,1.8623645)" /><radialGradient
       xlink:href="#linearGradient9"
       id="radialGradient10"
       cx="422.77258"
       cy="245.13165"
       fx="422.77258"
       fy="245.13165"
       r="148.94226"
       gradientUnits="userSpaceOnUse"
       gradientTransform="matrix(1.4073525,0,0,1.4073525,-120.19297,-232.78581)" /><linearGradient
       xlink:href="#linearGradient10"
       id="linearGradient12"
       x1="460.51755"
       y1="165.4045"
       x2="264.94266"
       y2="217.80862"
       gradientUnits="userSpaceOnUse" /><radialGradient
       xlink:href="#linearGradient13"
       id="radialGradient14"
       cx="171.26401"
       cy="23.040001"
       fx="171.26401"
       fy="23.040001"
       r="99.071999"
       gradientUnits="userSpaceOnUse"
       gradientTransform="translate(191.43761,44.319376)" /><radialGradient
       xlink:href="#linearGradient3"
       id="radialGradient5"
       cx="230.39694"
       cy="150.51562"
       fx="230.39694"
       fy="150.51562"
       r="89.262474"
       gradientUnits="userSpaceOnUse" /><radialGradient
       xlink:href="#linearGradient6"
       id="radialGradient15"
       cx="374.16599"
       cy="155.46391"
       fx="374.16599"
       fy="155.46391"
       r="143.08099"
       gradientUnits="userSpaceOnUse"
       gradientTransform="translate(-282.43531,-10.713564)" /><linearGradient
       xlink:href="#linearGradient16"
       id="linearGradient17"
       x1="328.80014"
       y1="48.385674"
       x2="267.74606"
       y2="95.62204"
       gradientUnits="userSpaceOnUse" /><linearGradient
       xlink:href="#linearGradient18"
       id="linearGradient19"
       x1="303.21127"
       y1="273.99368"
       x2="338.08578"
       y2="312.78354"
       gradientUnits="userSpaceOnUse" /><radialGradient
       xlink:href="#linearGradient20"
       id="radialGradient21"
       cx="8.7976999"
       cy="227.14061"
       fx="8.7976999"
       fy="227.14061"
       r="95.974907"
       gradientUnits="userSpaceOnUse"
       gradientTransform="translate(37.990067,8.7976999)" /><radialGradient
       xlink:href="#linearGradient21"
       id="radialGradient23"
       cx="124.41827"
       cy="280.22388"
       fx="124.41827"
       fy="280.22388"
       r="53.726067"
       gradientUnits="userSpaceOnUse"
       gradientTransform="translate(-3.3932253,-15.552283)" /><radialGradient
       xlink:href="#linearGradient23"
       id="radialGradient25"
       cx="299.44345"
       cy="357.06723"
       fx="299.44345"
       fy="357.06723"
       r="155.95923"
       gradientUnits="userSpaceOnUse"
       gradientTransform="matrix(1.4931617,0,0,1.4931617,-138.4204,-38.613165)" /><radialGradient
       xlink:href="#linearGradient25"
       id="radialGradient27"
       cx="81.437408"
       cy="217.16643"
       fx="81.437408"
       fy="217.16643"
       r="199.06921"
       gradientUnits="userSpaceOnUse"
       gradientTransform="matrix(1.2812357,0,0,1.2812357,-137.73767,-117.11311)" /><radialGradient
       xlink:href="#linearGradient27"
       id="radialGradient29"
       cx="211.0462"
       cy="269.86389"
       fx="211.0462"
       fy="269.86389"
       r="150.43298"
       gradientUnits="userSpaceOnUse"
       gradientTransform="matrix(1.6691729,0,0,1.6691729,-300.24517,-76.011668)" /><linearGradient
       xlink:href="#linearGradient29"
       id="linearGradient31"
       x1="256.91867"
       y1="207.86043"
       x2="221.15472"
       y2="110.02242"
       gradientUnits="userSpaceOnUse" /><radialGradient
       xlink:href="#linearGradient33"
       id="radialGradient34"
       cx="277.52744"
       cy="250.33455"
       fx="277.52744"
       fy="250.33455"
       r="68.782013"
       gradientUnits="userSpaceOnUse"
       gradientTransform="matrix(1.2466652,0,0,1.2466652,-89.38124,-56.658975)" /><radialGradient
       xlink:href="#linearGradient34"
       id="radialGradient36"
       cx="267.53003"
       cy="259.13226"
       fx="267.53003"
       fy="259.13226"
       r="90.376373"
       gradientUnits="userSpaceOnUse"
       gradientTransform="translate(-22.621502,-35.063328)" /><radialGradient
       xlink:href="#linearGradient36"
       id="radialGradient38"
       cx="351.19882"
       cy="281.07217"
       fx="351.19882"
       fy="281.07217"
       r="50.89838"
       gradientUnits="userSpaceOnUse"
       gradientTransform="matrix(2.7109195,0,0,2.7109195,-533.94822,-386.46374)" /><radialGradient
       xlink:href="#linearGradient38"
       id="radialGradient40"
       cx="338.94611"
       cy="186.58623"
       fx="338.94611"
       fy="186.58623"
       r="77.478645"
       gradientUnits="userSpaceOnUse"
       gradientTransform="matrix(1.4890511,0,0,1.4890511,-444.47727,-192.96072)" /><radialGradient
       xlink:href="#linearGradient4"
       id="radialGradient41"
       cx="83.973724"
       cy="224.68217"
       fx="83.973724"
       fy="224.68217"
       r="184.75601"
       gradientUnits="userSpaceOnUse"
       gradientTransform="matrix(1.5368955,0,0,1.5368955,294.59895,-363.00159)" /><radialGradient
       xlink:href="#linearGradient41"
       id="radialGradient43"
       cx="-141.38438"
       cy="216.60088"
       fx="-141.38438"
       fy="216.60088"
       r="167.39912"
       gradientUnits="userSpaceOnUse"
       gradientTransform="matrix(0.77925424,0,0,0.77925424,251.02984,118.76289)" /><linearGradient
       xlink:href="#linearGradient43"
       id="linearGradient45"
       x1="251.09428"
       y1="217.80862"
       x2="384"
       y2="217.80862"
       gradientUnits="userSpaceOnUse" /><linearGradient
       xlink:href="#linearGradient46"
       id="linearGradient47"
       x1="155.24805"
       y1="213.58791"
       x2="103.79858"
       y2="173.7981"
       gradientUnits="userSpaceOnUse" /><linearGradient
       xlink:href="#linearGradient52"
       id="linearGradient53"
       x1="151.83981"
       y1="166.30112"
       x2="133.03569"
       y2="182.25812"
       gradientUnits="userSpaceOnUse" /><linearGradient
       xlink:href="#linearGradient52"
       id="linearGradient57"
       gradientUnits="userSpaceOnUse"
       x1="120.28117"
       y1="219.67628"
       x2="140.13383"
       y2="197.65408" /><filter
       style="color-interpolation-filters:sRGB"
       id="filter59"
       x="-0.16387198"
       y="-0.16387629"
       width="1.327744"
       height="1.3277526"><feGaussianBlur
         stdDeviation="5.0787242"
         id="feGaussianBlur59" /></filter><radialGradient
       xlink:href="#linearGradient60"
       id="radialGradient61"
       cx="44.923847"
       cy="171.9442"
       fx="44.923847"
       fy="171.9442"
       r="49.484535"
       gradientUnits="userSpaceOnUse"
       gradientTransform="matrix(1.3565316,0,0,1.3565316,59.022196,-28.239936)" /><radialGradient
       xlink:href="#linearGradient65"
       id="radialGradient66"
       cx="55.985352"
       cy="170.35547"
       fx="55.985352"
       fy="170.35547"
       r="37.19043"
       gradientTransform="matrix(1.8094333,0,0,1.8093857,-82.264449,-155.55819)"
       gradientUnits="userSpaceOnUse" /><radialGradient
       xlink:href="#linearGradient66"
       id="radialGradient68"
       cx="56.985088"
       cy="169.20241"
       fx="56.985088"
       fy="169.20241"
       r="24.268326"
       gradientTransform="matrix(1.2091888,0,0,1.2091571,-11.920645,-35.389902)"
       gradientUnits="userSpaceOnUse" /><filter
       style="color-interpolation-filters:sRGB"
       id="filter71"
       x="-0.33541856"
       y="-0.10173352"
       width="1.6708371"
       height="1.203467"><feGaussianBlur
         stdDeviation="1.339947"
         id="feGaussianBlur71" /></filter><radialGradient
       xlink:href="#linearGradient71"
       id="radialGradient72"
       cx="55.985348"
       cy="170.35547"
       fx="55.985348"
       fy="170.35547"
       r="40.4063"
       gradientTransform="matrix(1,0,0,0.99997587,0,0.00411146)"
       gradientUnits="userSpaceOnUse" /><radialGradient
       xlink:href="#linearGradient72"
       id="radialGradient74"
       cx="-46.374081"
       cy="90.486008"
       fx="-46.374081"
       fy="90.486008"
       r="122.15611"
       gradientUnits="userSpaceOnUse"
       gradientTransform="translate(-20.432713,27.225545)" /><radialGradient
       xlink:href="#linearGradient74"
       id="radialGradient76"
       cx="-124.76738"
       cy="179.15315"
       fx="-124.76738"
       fy="179.15315"
       r="179.15315"
       gradientUnits="userSpaceOnUse"
       gradientTransform="translate(48.537785,-52.963661)" /><radialGradient
       xlink:href="#linearGradient78"
       id="radialGradient79"
       cx="47.490238"
       cy="160.82034"
       fx="47.490238"
       fy="160.82034"
       r="93.358154"
       gradientUnits="userSpaceOnUse"
       gradientTransform="matrix(0.84837107,0,0,0.84837107,16.695748,32.7671)" /><linearGradient
       xlink:href="#linearGradient91"
       id="linearGradient92"
       x1="221.71301"
       y1="261.51282"
       x2="179.82831"
       y2="262.26282"
       gradientUnits="userSpaceOnUse"
       gradientTransform="matrix(0.95498442,0.0462457,-0.0462457,0.95498442,19.71483,3.980198)" /><linearGradient
       xlink:href="#linearGradient93"
       id="linearGradient94"
       x1="116.51357"
       y1="258.42758"
       x2="90.814262"
       y2="259.67209"
       gradientUnits="userSpaceOnUse"
       gradientTransform="matrix(0.95498442,0.0462457,-0.0462457,0.95498442,17.71483,0.480198)" /><linearGradient
       xlink:href="#linearGradient95"
       id="linearGradient96"
       x1="172.41602"
       y1="291.90823"
       x2="137.91907"
       y2="291.90823"
       gradientUnits="userSpaceOnUse"
       gradientTransform="matrix(0.95498442,0.0462457,-0.0462457,0.95498442,19.71483,3.980198)" /><radialGradient
       xlink:href="#linearGradient97"
       id="radialGradient98"
       cx="130.4612"
       cy="252.08357"
       fx="130.4612"
       fy="252.08357"
       r="77.428192"
       gradientUnits="userSpaceOnUse"
       gradientTransform="matrix(0.95498442,0.0462457,-0.0462457,0.95498442,42.925186,-7.0792975)" /><radialGradient
       xlink:href="#linearGradient102"
       id="radialGradient103"
       cx="119"
       cy="287.5"
       fx="119"
       fy="287.5"
       r="78.5"
       gradientUnits="userSpaceOnUse"
       gradientTransform="matrix(1.656051,0,0,1.656051,-74.070063,-71.61465)" /><radialGradient
       xlink:href="#linearGradient97"
       id="radialGradient104"
       gradientUnits="userSpaceOnUse"
       gradientTransform="matrix(0.95498442,0.0462457,-0.0462457,0.95498442,40.925186,-10.579297)"
       cx="130.4612"
       cy="252.08357"
       fx="130.4612"
       fy="252.08357"
       r="77.428192" /><radialGradient
       xlink:href="#linearGradient108"
       id="radialGradient109"
       cx="60.104076"
       cy="241.12341"
       fx="60.104076"
       fy="241.12341"
       r="145.664"
       gradientUnits="userSpaceOnUse"
       gradientTransform="translate(-22.627417,-130.10765)" /><radialGradient
       xlink:href="#linearGradient108"
       id="radialGradient109-3"
       cx="60.104076"
       cy="241.12341"
       fx="60.104076"
       fy="241.12341"
       r="145.664"
       gradientUnits="userSpaceOnUse"
       gradientTransform="translate(-31.230445,-95.7401)" /><radialGradient
       xlink:href="#linearGradient108"
       id="radialGradient113"
       gradientUnits="userSpaceOnUse"
       gradientTransform="matrix(0.60194176,0,0,0.60194176,-24.629637,-1.5267106)"
       cx="60.104076"
       cy="277.67181"
       fx="60.104076"
       fy="277.67181"
       r="145.664" /><radialGradient
       xlink:href="#linearGradient114"
       id="radialGradient115"
       cx="238.29498"
       cy="639.93164"
       fx="238.29498"
       fy="639.93164"
       r="149.90663"
       gradientUnits="userSpaceOnUse"
       gradientTransform="translate(-184.55487,-563.5641)" /><radialGradient
       xlink:href="#linearGradient115"
       id="radialGradient117"
       cx="274"
       cy="331.5"
       fx="274"
       fy="331.5"
       r="30.5"
       gradientUnits="userSpaceOnUse"
       gradientTransform="matrix(1.1043272,0,0,1.1043272,-11.084768,-40.948438)" /><radialGradient
       xlink:href="#linearGradient118"
       id="radialGradient119"
       cx="174.60506"
       cy="252.27133"
       fx="174.60506"
       fy="252.27133"
       r="37.476658"
       gradientUnits="userSpaceOnUse"
       gradientTransform="translate(-13.788582,-10.960155)" /><radialGradient
       xlink:href="#linearGradient97"
       id="radialGradient120"
       gradientUnits="userSpaceOnUse"
       gradientTransform="matrix(0.86594332,0.07135986,-0.07852352,0.95287353,62.678302,-9.8235996)"
       cx="130.4612"
       cy="252.08357"
       fx="130.4612"
       fy="252.08357"
       r="77.428192" /><radialGradient
       xlink:href="#linearGradient120"
       id="radialGradient121"
       cx="146.31804"
       cy="247.78571"
       fx="146.31804"
       fy="247.78571"
       r="15.75"
       gradientUnits="userSpaceOnUse"
       gradientTransform="matrix(1.9989286,0,0,1.9989286,-149.34545,-255.29641)" /><linearGradient
       xlink:href="#linearGradient10"
       id="linearGradient124"
       gradientUnits="userSpaceOnUse"
       x1="460.51755"
       y1="165.4045"
       x2="264.94266"
       y2="217.80862" /><radialGradient
       xlink:href="#linearGradient115"
       id="radialGradient124"
       gradientUnits="userSpaceOnUse"
       gradientTransform="matrix(1.1043272,0,0,1.1043272,-11.084768,-40.948438)"
       cx="274"
       cy="331.5"
       fx="274"
       fy="331.5"
       r="30.5" /><radialGradient
       xlink:href="#linearGradient66"
       id="radialGradient125"
       gradientUnits="userSpaceOnUse"
       gradientTransform="matrix(1.2091888,0,0,1.2091571,-11.920645,-35.389902)"
       cx="56.985088"
       cy="169.20241"
       fx="56.985088"
       fy="169.20241"
       r="24.268326" /></defs><g
     id="g125"
     transform="matrix(6.6491815,0,0,6.6491815,108.79159,535.60179)"><path
       id="path59"
       style="fill:#fef182;fill-opacity:1;stroke-width:1.72617;stroke-linecap:round;filter:url(#filter59)"
       d="m 55.986328,133.16602 c -20.539741,-6.2e-4 -37.190949,16.64971 -37.191406,37.18945 4.57e-4,20.53974 16.651665,37.19007 37.191406,37.18945 24.260629,0.004 37.189217,-19.61185 37.189453,-37.18945 -4.57e-4,-20.53898 -16.650475,-37.18899 -37.189453,-37.18945 z" /><path
       style="fill:#153e93;fill-opacity:1;stroke-width:1.7;stroke-linecap:round"
       d="m 76.02943,240.04881 c -7.555144,0.75815 -14.997164,4.86759 -18.539245,11.35869 -3.542081,6.49111 -3.184223,15.36389 4.860389,25.64872 2.950879,3.77262 7.924275,8.36783 13.729218,12.84451 5.804944,4.47668 12.441436,8.83484 18.718506,12.13337 3.004451,1.57881 6.132562,3.05156 9.169362,3.27833 3.0368,0.22677 5.98229,-0.79242 8.62148,-4.19751 20.00743,-25.81359 -5.26246,-64.20664 -36.55971,-61.06611 z"
       id="path19" /><path
       id="path21"
       style="mix-blend-mode:multiply;fill:url(#radialGradient23);stroke-width:1.7;stroke-linecap:round"
       d="m 78.945312,239.875 c -0.965068,0.0187 -1.937976,0.0757 -2.916015,0.17383 -1.674508,0.16803 -3.342693,0.5015 -4.964844,0.98828 a 53.726067,53.726067 0 0 0 -3.199219,18.26172 53.726067,53.726067 0 0 0 11.208985,32.8457 c 5.033276,3.66827 10.503328,7.14495 15.724609,9.88867 3.004451,1.57881 6.131172,3.05253 9.167972,3.2793 3.0368,0.22677 5.98385,-0.79218 8.62304,-4.19727 19.3822,-25.00691 -3.72739,-61.81908 -33.644528,-61.24023 z" /><path
       id="path20"
       style="fill:url(#radialGradient21);stroke-width:1.7;stroke-linecap:round"
       d="m 78.945312,239.875 c -0.965069,0.0187 -1.937976,0.0757 -2.916015,0.17383 -7.555144,0.75815 -14.996982,4.86827 -18.539063,11.35937 -3.542081,6.49111 -3.185237,15.36361 4.859375,25.64844 2.950879,3.77262 7.925526,8.36707 13.730469,12.84375 5.804944,4.47668 12.44168,8.83428 18.71875,12.13281 3.004451,1.57881 6.131172,3.05253 9.167972,3.2793 3.0368,0.22677 5.98385,-0.79218 8.62304,-4.19727 19.3822,-25.00691 -3.72739,-61.81908 -33.644528,-61.24023 z" /><path
       style="fill:#153e93;fill-opacity:1;stroke-width:1.7;stroke-linecap:round"
       d="m 355.86803,244.63072 c 2.35038,2.93153 5.84798,11.37992 -3.27696,14.43365 -4.18231,1.39963 -11.28031,1.6329 -15.79582,-0.29997 -4.5155,-1.93287 -6.44829,-6.03171 -6.91483,-9.58081 -0.46653,-3.54911 0.53319,-6.54826 2.05673,-8.16395 2.06108,-2.18576 16.72053,-5.382 23.93088,3.61108 z"
       id="path18" /><path
       style="fill:url(#linearGradient45);fill-opacity:1;stroke-width:1.7;stroke-linecap:round"
       d="m 330.33107,278.51894 c -47.81613,54.05089 -122.31154,57.50555 -139.26523,57.56608 -21.45026,0.0765 -43.76447,-2.98952 -63.33413,-12.06044 -24.80334,-11.49688 -43.502327,-30.83974 -46.659708,-62.58464 -2.296944,-23.09387 4.418823,-48.46406 15.423811,-73.13766 7.833157,-17.56223 33.041847,-65.35117 83.368277,-83.61157 23.71874,-8.606088 45.23613,-5.733926 64.78159,3.35862 1.21278,0.56419 20.40057,9.64318 41.43515,28.93288 45.13594,41.39178 70.84013,111.47981 44.25024,141.53673 z"
       id="path1" /><path
       id="path27"
       style="fill:url(#radialGradient29);stroke-width:2.83759;stroke-linecap:round"
       d="m 165.7168,110.88867 c -40.97594,21.18329 -62.15914,61.58176 -69.220706,77.41406 -11.004988,24.6736 -17.720772,50.04285 -15.423828,73.13672 3.157381,31.7449 21.856814,51.08906 46.660154,62.58594 19.56966,9.07092 41.88373,12.13705 63.33399,12.06055 12.64514,-0.0451 57.30006,-1.97942 99.02148,-25.38672 A 251.09868,251.09868 0 0 0 165.7168,110.88867 Z" /><path
       id="path23"
       style="mix-blend-mode:multiply;fill:url(#radialGradient25);stroke-width:2.53837;stroke-linecap:round"
       d="M 253.2832,205.00781 A 232.87233,232.87233 0 0 0 84.306641,277.64062 c 6.967118,22.35682 23.158739,36.99056 43.425779,46.38477 19.56966,9.07092 41.88373,12.13705 63.33399,12.06055 16.95369,-0.0605 91.44949,-3.51552 139.26562,-57.56641 11.80178,-13.3406 13.30157,-34.56845 7.37305,-57.67187 A 232.87233,232.87233 0 0 0 253.2832,205.00781 Z" /><path
       style="fill:#ffffff;fill-opacity:1;stroke-width:1.7;stroke-linecap:round"
       d="m 279.01035,151.75992 c -8.70007,5.94143 -26.63229,-5.78076 -24.70361,-17.98867 0.78164,-4.94756 5.48763,-7.62911 11.02268,-6.9736 5.87207,0.69542 11.64624,5.32845 14.77542,10.59139 3.12917,5.26294 3.61337,11.1558 -1.09449,14.37088 z"
       id="path15" /><path
       id="path9"
       style="fill:url(#radialGradient10);fill-opacity:1;stroke-width:2.3925;stroke-linecap:round"
       d="m 205.63086,99.574219 c -8.2875,0.276295 -16.87305,1.889901 -25.76758,5.117191 -8.99226,3.26274 -17.18263,7.46806 -24.61523,12.27539 a 209.61426,209.61426 0 0 0 151.81836,182.78906 c 8.17151,-6.0282 16.02515,-13.05177 23.26562,-21.23633 26.58989,-30.05692 0.88399,-100.14533 -44.25195,-141.53711 -21.03458,-19.2897 -40.22082,-28.3694 -41.4336,-28.93359 -12.21591,-5.68284 -25.20313,-8.935104 -39.01562,-8.474611 z" /><path
       style="fill:url(#linearGradient124);fill-opacity:1;stroke-width:1.7;stroke-linecap:round"
       d="m 330.33107,278.51894 c -47.81613,54.05089 -122.31154,57.50555 -139.26523,57.56608 -21.45026,0.0765 -43.76447,-2.98952 -63.33413,-12.06044 -24.80334,-11.49688 -43.502327,-30.83974 -46.659708,-62.58464 -2.296944,-23.09387 4.418823,-48.46406 15.423811,-73.13766 7.833157,-17.56223 33.041847,-65.35117 83.368277,-83.61157 23.71874,-8.606088 45.23613,-5.733926 64.78159,3.35862 1.21278,0.56419 20.40057,9.64318 41.43515,28.93288 45.13594,41.39178 70.84013,111.47981 44.25024,141.53673 z"
       id="path10" /><path
       id="path2"
       style="mix-blend-mode:overlay;fill:url(#radialGradient3);stroke-width:2.4769;stroke-linecap:round"
       d="m 205.50195,99.578125 c -8.24756,0.288673 -16.7903,1.902745 -25.63867,5.113285 -50.32643,18.2604 -75.53403,66.04909 -83.367186,83.61132 -11.004988,24.6736 -17.720772,50.04285 -15.423828,73.13672 2.765728,27.80716 17.455619,46.09834 37.728514,57.93555 A 152.53441,152.53441 0 0 0 231.88086,172.03125 152.53441,152.53441 0 0 0 213.65234,99.720703 c -2.68419,-0.187986 -5.4012,-0.238802 -8.15039,-0.142578 z" /><path
       id="path7"
       style="mix-blend-mode:multiply;fill:url(#radialGradient8);stroke-width:1.7;stroke-linecap:round"
       d="m 192.25977,101.16992 c -4.06365,0.83332 -8.19604,1.9974 -12.39649,3.52149 -29.77136,10.80221 -50.75261,31.93635 -64.54687,51.03515 a 52.223999,52.223999 0 0 0 25.49804,6.64844 52.223999,52.223999 0 0 0 52.22266,-52.22461 52.223999,52.223999 0 0 0 -0.77734,-8.98047 z" /><path
       id="path25"
       style="mix-blend-mode:overlay;fill:url(#radialGradient27);stroke-width:2.1781;stroke-linecap:round"
       d="m 205.89648,99.566406 c -8.36931,0.250505 -17.04399,1.863364 -26.0332,5.125004 -50.32643,18.2604 -75.53403,66.04909 -83.367186,83.61132 -11.004988,24.6736 -17.720772,50.04285 -15.423828,73.13672 3.157381,31.7449 21.856814,51.08906 46.660154,62.58594 8.7206,4.04217 17.98528,6.89018 27.47656,8.80078 A 255.05458,255.05458 0 0 0 221.6582,161.12891 255.05458,255.05458 0 0 0 214.16406,99.757812 c -2.72274,-0.208665 -5.4778,-0.274907 -8.26758,-0.191406 z" /><path
       id="path4"
       style="mix-blend-mode:multiply;fill:url(#radialGradient41);stroke-width:2.61272;stroke-linecap:round"
       d="m 205.63086,99.574219 c -8.2875,0.276295 -16.87305,1.889901 -25.76758,5.117191 -3.56831,1.29472 -7.0096,2.73632 -10.32812,4.30664 A 283.95068,283.95068 0 0 0 340.60742,253.8457 c 4.17286,-34.59823 -19.23814,-84.50142 -54.52734,-116.86328 -21.03458,-19.2897 -40.22082,-28.3694 -41.4336,-28.93359 -12.21591,-5.68284 -25.20313,-8.935104 -39.01562,-8.474611 z" /><path
       id="path107-1"
       style="mix-blend-mode:overlay;fill:url(#radialGradient109-3);stroke:none;stroke-width:1;stroke-linecap:round;stroke-dasharray:none;stroke-opacity:1"
       d="m 169.87891,108.83789 c -43.71108,20.5157 -66.08593,63.10495 -73.382816,79.46484 -11.004988,24.6736 -17.720772,50.04285 -15.423828,73.13672 0.661221,6.64805 2.003642,12.75342 3.941406,18.35547 a 145.664,145.664 0 0 0 89.523438,-134.41211 145.664,145.664 0 0 0 -4.6582,-36.54492 z" /><path
       id="path5"
       style="fill:#1e4fa7;fill-opacity:1;stroke-width:1.7;stroke-linecap:round"
       d="m 206.94336,49.4082 c -27.00511,9.59423 -43.052,28.51382 -52.55219,48.61509 -8.42864,17.83398 -13.33942,41.81373 -13.5366,59.08023 -0.19717,17.2665 4.31926,27.81977 14.74504,18.80078 2.81668,-2.43662 6.70372,-7.90372 12.26562,-14.69727 5.56191,-6.79354 12.52582,-15.19662 18.67774,-21.29883 36.47619,-34.03747 65.27837,-33.35478 99.53711,-2.92578 4.61835,4.23525 9.03467,8.7707 13.21094,13.5332 13.51036,-13.76496 13.58314,-30.86968 7.38281,-44.49496 -8.82516,-19.39337 -25.37406,-24.72671 -32.00781,-23.45035 0.61683,-6.16202 -2.71727,-13.68147 -3.4336,-15.21093 -6.30096,-13.45339 -16.36523,-20.07568 -27.85825,-22.26737 -11.49303,-2.19169 -24.41481,0.0472 -36.43081,4.31619 z" /><path
       id="path12"
       style="mix-blend-mode:overlay;fill:url(#radialGradient14);stroke-width:1.7;stroke-linecap:round"
       d="m 264.2168,56.587891 a 99.071999,99.071999 0 0 0 -0.58789,10.771484 99.071999,99.071999 0 0 0 39.27539,78.990235 c 9.85021,-12.94102 9.3581,-28.04718 3.76953,-40.32813 -8.82516,-19.393366 -25.37406,-24.727528 -32.00781,-23.451168 0.61683,-6.162019 -2.71727,-13.681477 -3.4336,-15.210937 -1.98827,-4.245224 -4.35126,-7.811211 -7.01562,-10.771484 z" /><path
       id="path3"
       style="mix-blend-mode:multiply;fill:url(#radialGradient5);fill-opacity:1;stroke-width:2.2026;stroke-linecap:round"
       d="m 230.39648,61.253906 a 89.262474,89.262474 0 0 0 -84.10937,59.375004 c -2.73195,10.1856 -4.49755,20.6619 -5.15234,29.88671 a 89.262474,89.262474 0 0 0 4.25976,27.24805 c 2.38932,2.27285 5.76054,1.98545 10.20508,-1.85937 2.81668,-2.43662 6.70372,-7.90372 12.26562,-14.69727 5.56191,-6.79354 12.52582,-15.19662 18.67774,-21.29883 36.47619,-34.03747 65.27837,-33.35478 99.53711,-2.92578 4.61835,4.23525 9.03467,8.77071 13.21094,13.5332 13.51036,-13.76496 13.58314,-30.86886 7.38281,-44.49414 -8.82516,-19.393366 -25.37406,-24.727528 -32.00781,-23.451168 0.34914,-3.487906 -0.5673,-7.410295 -1.5586,-10.435546 a 89.262474,89.262474 0 0 0 -42.71094,-10.88086 z" /><path
       id="path6"
       style="fill:url(#radialGradient15);stroke-width:1.7;stroke-linecap:round"
       d="m 229.70312,44.386719 c -7.56496,0.521503 -15.33572,2.383905 -22.75976,5.021484 -27.00511,9.59423 -43.05255,28.513964 -52.55274,48.615235 -8.42864,17.833982 -13.33797,41.813582 -13.53515,59.080082 -0.19717,17.2665 4.31836,27.81977 14.74414,18.80078 2.81668,-2.43662 6.70372,-7.90372 12.26562,-14.69727 5.56191,-6.79354 12.52582,-15.19662 18.67774,-21.29883 21.0277,-19.62183 39.50457,-27.70525 57.94726,-25.20312 a 143.08099,143.08099 0 0 0 0.15625,-6.65625 143.08099,143.08099 0 0 0 -14.94336,-63.662111 z" /><path
       id="path117"
       style="mix-blend-mode:multiply;fill:url(#radialGradient124);stroke:none;stroke-width:1.10433;stroke-linecap:round;stroke-dasharray:none;stroke-opacity:1"
       d="m 291.5,291.45312 a 33.68198,33.68198 0 0 0 -33.67969,33.40821 c 17.31438,-5.76982 35.71782,-14.48147 52.56055,-27.61914 A 33.68198,33.68198 0 0 0 291.5,291.45312 Z" /><path
       style="fill:url(#linearGradient12);fill-opacity:1;stroke-width:1.7;stroke-linecap:round"
       d="m 330.33107,278.51894 c -47.81613,54.05089 -122.31154,57.50555 -139.26523,57.56608 -21.45026,0.0765 -43.76447,-2.98952 -63.33413,-12.06044 -24.80334,-11.49688 -43.502327,-30.83974 -46.659708,-62.58464 -2.296944,-23.09387 4.418823,-48.46406 15.423811,-73.13766 7.833157,-17.56223 33.041847,-65.35117 83.368277,-83.61157 23.71874,-8.606088 45.23613,-5.733926 64.78159,3.35862 1.21278,0.56419 20.40057,9.64318 41.43515,28.93288 45.13594,41.39178 70.84013,111.47981 44.25024,141.53673 z"
       id="path40" /><path
       id="path115"
       style="mix-blend-mode:multiply;fill:url(#radialGradient117);stroke:none;stroke-width:1.10433;stroke-linecap:round;stroke-dasharray:none;stroke-opacity:1"
       d="m 291.5,291.45312 a 33.68198,33.68198 0 0 0 -33.67969,33.40821 c 17.31438,-5.76982 35.71782,-14.48147 52.56055,-27.61914 A 33.68198,33.68198 0 0 0 291.5,291.45312 Z" /><path
       id="path16"
       style="mix-blend-mode:multiply;fill:url(#linearGradient17);fill-opacity:1;stroke-width:1.7;stroke-linecap:round"
       d="m 206.94336,49.4082 c -27.00511,9.59423 -43.052,28.51382 -52.55219,48.61509 -8.42864,17.83398 -13.33942,41.81373 -13.5366,59.08023 -0.19717,17.2665 4.31926,27.81977 14.74504,18.80078 2.81668,-2.43662 6.70372,-7.90372 12.26562,-14.69727 5.56191,-6.79354 12.52582,-15.19662 18.67774,-21.29883 36.47619,-34.03747 65.27837,-33.35478 99.53711,-2.92578 4.61835,4.23525 9.03467,8.7707 13.21094,13.5332 13.51036,-13.76496 13.58314,-30.86968 7.38281,-44.49496 -8.82516,-19.39337 -25.37406,-24.72671 -32.00781,-23.45035 0.61683,-6.16202 -2.71727,-13.68147 -3.4336,-15.21093 -6.30096,-13.45339 -16.36523,-20.07568 -27.85825,-22.26737 -11.49303,-2.19169 -24.41481,0.0472 -36.43081,4.31619 z" /><path
       style="fill:url(#linearGradient19);fill-opacity:1;stroke-width:1.7;stroke-linecap:round"
       d="m 264.20465,305.71366 c 1.1494,-0.92489 4.84721,-3.90038 10.12562,-8.44931 25.44482,-21.92837 30.72715,-32.00315 39.66788,-38.73854 7.0344,-5.29929 14.50346,-9.28975 21.06151,-10.83056 29.83086,-7.00873 37.72511,22.92999 21.66807,41.62983 -10.04125,11.69386 -34.57701,26.42302 -63.33753,31.13917 -6.62718,1.08672 -14.4519,1.79785 -20.95038,1.6442 -4.03552,-0.0954 -7.34651,-1.07941 -9.64524,-3.0564 -2.29873,-1.97699 -3.5852,-4.94698 -3.57169,-9.0144 1.64643,-1.4584 3.2689,-2.94352 4.98176,-4.32399 z"
       id="path17" /><path
       id="path29"
       style="mix-blend-mode:multiply;fill:url(#linearGradient31);fill-opacity:1;stroke-width:1.7;stroke-linecap:round"
       d="m 206.94336,49.4082 c -27.00511,9.59423 -43.052,28.51382 -52.55219,48.61509 -8.42864,17.83398 -13.33942,41.81373 -13.5366,59.08023 -0.19717,17.2665 4.31926,27.81977 14.74504,18.80078 2.81668,-2.43662 6.70372,-7.90372 12.26562,-14.69727 5.56191,-6.79354 12.52582,-15.19662 18.67774,-21.29883 36.47619,-34.03747 65.27837,-33.35478 99.53711,-2.92578 4.61835,4.23525 9.03467,8.7707 13.21094,13.5332 13.51036,-13.76496 13.58314,-30.86968 7.38281,-44.49496 -8.82516,-19.39337 -25.37406,-24.72671 -32.00781,-23.45035 0.61683,-6.16202 -2.71727,-13.68147 -3.4336,-15.21093 -6.30096,-13.45339 -16.36523,-20.07568 -27.85825,-22.26737 -11.49303,-2.19169 -24.41481,0.0472 -36.43081,4.31619 z" /><path
       id="path31"
       style="fill:url(#radialGradient34);fill-opacity:1;stroke-width:2.11933;stroke-linecap:round"
       d="m 341.9043,246.69141 c -2.13578,0.10699 -4.4164,0.4336 -6.84375,1.0039 -6.55805,1.54081 -14.0281,5.53079 -21.0625,10.83008 -8.94073,6.73539 -14.22315,16.80991 -39.66797,38.73828 -5.27841,4.54893 -8.9756,7.52433 -10.125,8.44922 -1.71286,1.38047 -3.33599,2.86582 -4.98242,4.32422 -0.0135,4.06742 1.27353,7.03863 3.57226,9.01562 2.29873,1.97699 5.60901,2.96125 9.64453,3.05665 6.49848,0.15364 14.32399,-0.55782 20.95117,-1.64454 9.51438,-1.56016 18.56533,-4.21672 26.78321,-7.49609 a 85.748138,85.748138 0 0 0 22.17773,-57.54492 85.748138,85.748138 0 0 0 -0.44726,-8.73242 z" /><path
       id="path34"
       style="mix-blend-mode:overlay;fill:url(#radialGradient36);stroke-width:1.7;stroke-linecap:round"
       d="m 341.48242,246.7168 c -2.01351,0.1269 -4.15387,0.44565 -6.42187,0.97851 -6.55805,1.54081 -14.0281,5.53079 -21.0625,10.83008 -8.94073,6.73539 -14.22315,16.80991 -39.66797,38.73828 -5.27841,4.54893 -8.9756,7.52433 -10.125,8.44922 -1.71286,1.38047 -3.33599,2.86582 -4.98242,4.32422 -0.0135,4.06742 1.27353,7.03863 3.57226,9.01562 0.60207,0.51781 1.27399,0.96617 2.00977,1.34961 a 90.376373,90.376373 0 0 0 76.67773,-73.68554 z" /><path
       id="path36"
       style="mix-blend-mode:multiply;fill:url(#radialGradient38);stroke-width:4.60856;stroke-linecap:round"
       d="m 357.75391,251.42578 a 137.98141,137.98141 0 0 0 -66.29102,69.33789 c 0.65184,-0.0964 1.2955,-0.19515 1.92773,-0.29883 28.76053,-4.71615 53.29665,-19.44676 63.3379,-31.14062 10.61457,-12.3616 10.76189,-29.63408 1.02539,-37.89844 z" /><path
       id="path38"
       style="fill:url(#radialGradient40);stroke-width:2.53139;stroke-linecap:round"
       d="m 198.13086,53.039062 c -21.76563,10.290367 -35.32264,27.173737 -43.74024,44.984376 -8.42864,17.833982 -13.33797,41.813582 -13.53515,59.080082 -0.19717,17.2665 4.31836,27.81977 14.74414,18.80078 2.81668,-2.43662 6.70372,-7.90372 12.26562,-14.69727 5.56191,-6.79354 12.52582,-15.19662 18.67774,-21.29883 3.98704,-3.72047 7.88231,-7.0265 11.70312,-9.92382 a 115.36966,115.36966 0 0 0 6.54688,-38.310552 115.36966,115.36966 0 0 0 -6.66211,-38.634766 z" /><path
       id="path41"
       style="mix-blend-mode:overlay;fill:url(#radialGradient43);stroke-width:1.32473;stroke-linecap:round"
       d="m 140.85547,157.10352 a 130.44649,130.44649 0 0 0 -28.74219,3.20507 c -7.70825,11.39386 -12.792153,21.66032 -15.617186,27.99414 -11.004988,24.6736 -17.720772,50.04285 -15.423828,73.13672 3.157381,31.7449 21.856814,51.08906 46.660154,62.58594 19.56966,9.07092 41.88373,12.13705 63.33399,12.06055 10.29716,-0.0368 41.82028,-1.32642 75.70117,-14.44336 a 130.44649,130.44649 0 0 0 4.53515,-34.0918 130.44649,130.44649 0 0 0 -130.44726,-130.44726 z" /><path
       style="fill:url(#linearGradient47);fill-opacity:1;stroke-width:1.7;stroke-linecap:round"
       d="m 86.71576,154.75835 c 3.513766,9.66287 3.288188,13.74261 1.790868,24.22386 0.377025,0.0471 0.754043,0.0942 1.578802,0.0471 9.244983,-0.52796 31.29283,10.18432 42.50959,19.34612 3.08692,2.52139 5.86743,5.20764 7.49433,6.83017 1.6269,1.62254 2.10012,2.18127 2.95325,2.56062 0.85313,0.37935 2.08612,0.5793 2.9359,0.66261 2.54014,0.249 5.04166,-2.9907 5.23455,-3.24599 0.72804,-0.96358 0.82229,-1.74117 0.28031,-3.72058 -2.42933,-9.10459 -7.15992,-16.88951 -13.83213,-23.44625 -13.66496,-12.7784 -32.10768,-24.04186 -51.330315,-25.33545 -0.369206,0.004 -0.369206,0.004 0.384845,2.07777 z"
       id="path45" /><path
       style="fill:url(#linearGradient94);fill-opacity:1;stroke-width:0.360283"
       d="m 122.19445,254.17013 c 3.91029,4.89876 5.0094,7.86187 4.01201,8.78864 -3.2777,3.04568 -11.28925,-9.55774 -23.84827,-8.94244 -3.87254,0.18973 -6.252367,1.40494 -7.369515,-0.42111 -3.689226,-6.03252 11.667565,-18.70811 27.206085,0.57477"
       id="path86" /><path
       style="fill:url(#radialGradient104);fill-opacity:1;stroke:none;stroke-width:0.956104;stroke-linecap:round;stroke-dasharray:none;stroke-opacity:1"
       d="m 105.78569,243.92393 c -7.968404,-0.46399 -13.103557,5.90159 -10.797791,9.67192 1.117148,1.82604 3.497541,0.61019 7.370081,0.42046 12.55902,-0.6153 20.57137,11.98738 23.84907,8.9417 0.99739,-0.92678 -0.10249,-3.89002 -4.01278,-8.78878 -5.82695,-7.23107 -11.62755,-9.96691 -16.40858,-10.2453 z"
       id="path97" /><g
       id="g106"><path
         id="path89"
         style="baseline-shift:baseline;display:inline;overflow:visible;vector-effect:none;fill:url(#linearGradient96);stroke-width:0.956104;enable-background:accumulate;stop-color:#000000"
         d="m 127.46772,285.62464 c 0.40833,1.61108 2.05991,3.70679 6.75371,6.31531 3.37017,1.87268 5.28192,2.59245 9.0831,3.42183 2.15378,0.46982 11.2696,2.06009 21.01176,-2.26921 3.07297,-1.28264 6.4046,-3.10242 6.76411,-6.71701 -0.004,-0.81902 -0.34875,-1.60559 -1.08931,-1.9055 -0.65584,-0.26548 -1.37057,-0.21507 -2.03199,0.11098 -0.66143,0.32607 -1.29774,0.89443 -1.99969,1.68301 -5.21792,5.86223 -12.17823,7.35014 -18.45332,6.57535 -6.27509,-0.77478 -11.83169,-3.8817 -14.02925,-6.9892 -1.12989,-1.59757 -1.99576,-2.61726 -2.84851,-3.14235 -1.87955,-1.15741 -3.7116,0.74289 -3.16061,2.91679 z" /><g
         id="g105"><path
           style="fill:url(#radialGradient98);fill-opacity:1;stroke:none;stroke-width:0.956104;stroke-linecap:round;stroke-dasharray:none;stroke-opacity:1"
           d="m 129.59072,282.36034 c -1.44594,-0.0883 -2.57068,1.498 -2.123,3.2643 0.40833,1.61108 2.05991,3.70679 6.75371,6.31531 3.37017,1.87268 5.28192,2.59245 9.0831,3.42183 2.15378,0.46982 11.2696,2.06009 21.01176,-2.26921 3.07297,-1.28264 6.4046,-3.10242 6.76411,-6.71701 -0.004,-0.81902 -0.34875,-1.60561 -1.08931,-1.9055 -0.65584,-0.26548 -1.37057,-0.21507 -2.03199,0.11098 -0.66143,0.32607 -1.29774,0.89443 -1.99969,1.68301 -5.21792,5.86223 -12.17823,7.35014 -18.45332,6.57535 -6.27509,-0.77478 -11.83169,-3.8817 -14.02925,-6.9892 -1.12989,-1.59757 -1.99576,-2.61726 -2.84851,-3.14235 -0.35241,-0.21702 -0.70393,-0.32714 -1.03761,-0.34751 z"
           id="path104" /><path
           id="path102"
           style="mix-blend-mode:multiply;fill:url(#radialGradient103);stroke:none;stroke-width:1.65605;stroke-linecap:round;stroke-dasharray:none;stroke-opacity:1"
           d="m 129.58984,282.35938 c -1.44594,-0.0883 -2.57072,1.49932 -2.12304,3.26562 0.40833,1.61108 2.0601,3.70593 6.7539,6.31445 3.37017,1.87268 5.28281,2.5925 9.08399,3.42188 2.15378,0.46982 11.26956,2.05977 21.01172,-2.26953 3.07297,-1.28264 6.40416,-3.10221 6.76367,-6.7168 -0.004,-0.81902 -0.34929,-1.60441 -1.08985,-1.9043 -0.65584,-0.26548 -1.36983,-0.21667 -2.03125,0.10938 -0.66143,0.32607 -1.29805,0.89501 -2,1.68359 -5.21792,5.86223 -12.17803,7.35096 -18.45312,6.57617 -6.27509,-0.77478 -11.83174,-3.88273 -14.0293,-6.99023 -1.12989,-1.59757 -1.9949,-2.61749 -2.84765,-3.14258 -0.35241,-0.21702 -0.70539,-0.32729 -1.03907,-0.34765 z" /></g></g><circle
       style="fill:url(#radialGradient79);stroke-width:1.90425;stroke-linecap:round"
       id="path77"
       cx="56.985088"
       cy="169.20241"
       r="79.202354" /><path
       style="fill:url(#linearGradient53);fill-opacity:1;stroke-width:1.7;stroke-linecap:round"
       d="m 86.71576,154.75835 c 3.513766,9.66287 3.288188,13.74261 1.790868,24.22386 0.377025,0.0471 0.754043,0.0942 1.578802,0.0471 9.244983,-0.52796 31.29283,10.18432 42.50959,19.34612 3.08692,2.52139 5.86743,5.20764 7.49433,6.83017 1.6269,1.62254 2.10012,2.18127 2.95325,2.56062 0.85313,0.37935 2.08612,0.5793 2.9359,0.66261 2.54014,0.249 5.04166,-2.9907 5.23455,-3.24599 0.72804,-0.96358 0.82229,-1.74117 0.28031,-3.72058 -2.42933,-9.10459 -7.15992,-16.88951 -13.83213,-23.44625 -13.66496,-12.7784 -32.10768,-24.04186 -51.330315,-25.33545 -0.369206,0.004 -0.369206,0.004 0.384845,2.07777 z"
       id="path52" /><path
       style="fill:url(#linearGradient57);fill-opacity:1;stroke-width:1.7;stroke-linecap:round"
       d="m 86.71576,154.75835 c 3.513766,9.66287 3.288188,13.74261 1.790868,24.22386 0.377025,0.0471 0.754043,0.0942 1.578802,0.0471 9.244983,-0.52796 31.29283,10.18432 42.50959,19.34612 3.08692,2.52139 5.86743,5.20764 7.49433,6.83017 1.6269,1.62254 2.10012,2.18127 2.95325,2.56062 0.85313,0.37935 2.08612,0.5793 2.9359,0.66261 2.54014,0.249 5.04166,-2.9907 5.23455,-3.24599 0.72804,-0.96358 0.82229,-1.74117 0.28031,-3.72058 -2.42933,-9.10459 -7.15992,-16.88951 -13.83213,-23.44625 -13.66496,-12.7784 -32.10768,-24.04186 -51.330315,-25.33545 -0.369206,0.004 -0.369206,0.004 0.384845,2.07777 z"
       id="path57" /><path
       id="path107"
       style="mix-blend-mode:overlay;fill:url(#radialGradient109);stroke:none;stroke-width:1;stroke-linecap:round;stroke-dasharray:none;stroke-opacity:1"
       d="m 86.330078,152.67969 c -0.369206,0.004 -0.369285,0.004 0.384766,2.07812 3.513766,9.66287 3.288335,13.74336 1.791015,24.22461 0.377025,0.0471 0.75532,0.094 1.580079,0.0469 9.244983,-0.52796 31.293002,10.1839 42.509762,19.3457 3.08692,2.52139 5.86724,5.20755 7.49414,6.83008 1.6269,1.62254 2.1,2.18119 2.95313,2.56054 0.79294,0.35259 1.91344,0.55152 2.75,0.64454 a 145.664,145.664 0 0 0 5.74219,-6.79297 c -0.0135,-0.0509 -0.0266,-0.10175 -0.041,-0.1543 -2.42933,-9.10459 -7.15982,-16.89052 -13.83203,-23.44727 -13.66496,-12.7784 -32.1094,-24.04234 -51.332032,-25.33593 z" /><path
       id="path54"
       style="fill:#fef182;fill-opacity:1;stroke-width:1.72617;stroke-linecap:round"
       d="m 55.986328,133.16602 c -20.539741,-6.2e-4 -37.190949,16.64971 -37.191406,37.18945 4.57e-4,20.53974 16.651665,37.19007 37.191406,37.18945 24.260629,0.004 37.189217,-19.61185 37.189453,-37.18945 -4.57e-4,-20.53898 -16.650475,-37.18899 -37.189453,-37.18945 z" /><path
       id="path60"
       style="mix-blend-mode:multiply;fill:url(#radialGradient61);stroke-width:2.3061;stroke-linecap:round"
       d="m 55.986328,133.16602 c -10.814885,-3.3e-4 -20.55185,4.615 -27.347656,11.98437 a 67.127335,67.127335 0 0 0 -0.6875,9.58008 67.127335,67.127335 0 0 0 25.595703,52.73633 c 0.806562,0.0522 1.619691,0.0781 2.439453,0.0781 24.260629,0.004 37.189217,-19.61185 37.189453,-37.18945 C 93.175324,149.81647 76.525306,133.16646 55.986328,133.166 Z" /><path
       id="path65"
       style="mix-blend-mode:overlay;fill:url(#radialGradient66);stroke-width:3.12339;stroke-linecap:round"
       d="m 55.986328,133.16602 c -20.539741,-6.2e-4 -37.190949,16.64971 -37.191406,37.18945 4.57e-4,20.53974 16.651665,37.19007 37.191406,37.18945 1.071381,1.8e-4 2.121394,-0.0388 3.148438,-0.11328 17.889371,-13.16174 27.195043,-34.69045 27.195312,-54.75195 -3e-5,-1.34061 -0.03788,-2.67098 -0.115234,-3.99219 -6.749381,-9.39888 -17.774259,-15.52121 -30.228516,-15.52148 z" /><path
       id="path58"
       style="fill:url(#radialGradient125);stroke-width:1.36203;stroke-linecap:round"
       d="m 56.98586,139.85819 c -16.206817,-4.8e-4 -29.345397,13.13741 -29.345759,29.34422 3.62e-4,16.20681 13.138942,29.3447 29.345759,29.34422 19.142771,0.004 29.344031,-15.47468 29.344218,-29.34422 C 86.329716,152.9962 73.192074,139.85856 56.98586,139.85819 Z" /><path
       id="path71"
       style="mix-blend-mode:multiply;fill:url(#radialGradient72);fill-opacity:1;stroke-width:1.72617;stroke-linecap:round;filter:url(#filter71)"
       d="m 20.618956,158.81948 c -1.183891,3.63168 -1.823531,7.50947 -1.823621,11.5363 1.65e-4,7.3942 2.157374,14.28373 5.877884,20.07445 2.453308,-4.12255 3.709697,-8.84141 3.709757,-13.36257 -1.59e-4,-7.16802 -2.978015,-13.64069 -7.76402,-18.24818 z"
       transform="matrix(1.4683617,0,0,1.4683617,51.499306,-89.643899)" /><path
       id="path72"
       style="mix-blend-mode:overlay;fill:url(#radialGradient74);stroke-width:1.7;stroke-linecap:round"
       d="m 54.363281,133.20117 c -19.78678,0.84903 -35.567914,17.15836 -35.568359,37.1543 2.08e-4,9.35672 3.455723,17.90728 9.160156,24.44336 a 122.15611,122.15611 0 0 0 26.408203,-61.59766 z" /><path
       id="path74"
       style="mix-blend-mode:overlay;fill:url(#radialGradient76);stroke-width:1.7;stroke-linecap:round"
       d="m 55.986328,133.16602 c -20.539741,-6.2e-4 -37.190949,16.64971 -37.191406,37.18945 4.57e-4,20.53974 16.651665,37.19007 37.191406,37.18945 24.260629,0.004 37.189217,-19.61185 37.189453,-37.18945 -4.57e-4,-20.53898 -16.650475,-37.18899 -37.189453,-37.18945 z" /><path
       id="path69"
       style="fill:url(#radialGradient68);stroke-width:1.36203;stroke-linecap:round"
       d="m 56.98586,139.85819 c -16.206817,-4.8e-4 -29.345397,13.13741 -29.345759,29.34422 3.62e-4,16.20681 13.138942,29.3447 29.345759,29.34422 19.142771,0.004 29.344031,-15.47468 29.344218,-29.34422 C 86.329716,152.9962 73.192074,139.85856 56.98586,139.85819 Z" /><path
       id="circle113"
       style="display:inline;mix-blend-mode:overlay;fill:url(#radialGradient113);stroke:none;stroke-width:0.601942;stroke-linecap:round;stroke-dasharray:none;stroke-opacity:1"
       d="m 55.986328,133.16602 c -20.539741,-6.2e-4 -37.190949,16.64971 -37.191406,37.18945 4.57e-4,20.53974 16.651665,37.19007 37.191406,37.18945 9.001289,0.001 16.44235,-2.69815 22.242188,-6.99219 a 87.681244,87.681244 0 0 0 14.300781,-23.31835 c 0.42942,-2.2956 0.646454,-4.60465 0.646484,-6.87891 -4.57e-4,-20.53898 -16.650475,-37.18899 -37.189453,-37.18945 z" /><path
       id="path114"
       style="mix-blend-mode:overlay;fill:url(#radialGradient115);stroke:none;stroke-width:1;stroke-linecap:round;stroke-dasharray:none;stroke-opacity:1"
       d="m 201.57031,51.498047 c -23.78967,10.089844 -38.32742,27.795048 -47.17969,46.525391 -8.42864,17.833982 -13.33797,41.813582 -13.53515,59.080082 -0.19717,17.2665 4.31836,27.81977 14.74414,18.80078 2.81668,-2.43662 6.70372,-7.90372 12.26562,-14.69727 5.56191,-6.79354 12.52582,-15.19662 18.67774,-21.29883 1.67334,-1.56146 3.33034,-3.04903 4.97265,-4.46484 a 149.90663,149.90663 0 0 0 12.13086,-59.076172 149.90663,149.90663 0 0 0 -2.07617,-24.869141 z" /><g
       id="g120"><g
         id="g107"><path
           style="fill:url(#linearGradient92);fill-opacity:1;stroke-width:0.385714"
           d="m 186.96012,262.65479 c -4.96658,4.17437 -6.65362,6.85219 -5.90701,7.957 2.46666,3.65016 13.64012,-7.36078 27.51238,-4.10134 4.55399,1.07001 7.04186,2.96913 9.06367,1.18441 6.9725,-6.1569 -7.98921,-23.93298 -30.66932,-5.04024"
           id="path90-8" /><path
           style="fill:url(#radialGradient120);fill-opacity:1;stroke:none;stroke-width:0.956104;stroke-linecap:round;stroke-dasharray:none;stroke-opacity:1"
           d="m 207.03462,254.20812 c -5.39478,-0.21012 -12.27884,1.95241 -20.07513,8.44679 -4.96658,4.17437 -6.6528,6.85215 -5.90619,7.95696 2.46666,3.65016 13.63899,-7.36018 27.51124,-4.10075 4.55399,1.07001 7.04258,2.96777 9.06439,1.18305 4.5757,-4.04047 -0.29518,-13.08496 -10.59431,-13.48605 z"
           id="path103" /></g><path
         id="path118"
         style="fill:url(#radialGradient119);stroke:none;stroke-width:1;stroke-linecap:round;stroke-dasharray:none;stroke-opacity:1"
         d="m 205.29102,254.22266 c -0.63793,0.0345 -1.2939,0.1013 -1.9668,0.20312 -1.34578,0.2036 -2.76035,0.547 -4.23633,1.05274 -3.68968,1.26448 -7.76703,3.54252 -12.12891,7.17578 -4.96658,4.17437 -6.65286,6.85222 -5.90625,7.95703 0.14704,0.21758 0.32558,0.38438 0.53321,0.5039 0.0831,0.0478 0.1712,0.0876 0.26367,0.1211 0.60101,0.21771 1.39829,0.14181 2.37109,-0.1211 0.29934,-0.0809 0.6155,-0.1799 0.94727,-0.29296 3.31754,-1.13062 8.22416,-3.71313 14.06836,-4.60938 a 37.476658,37.476658 0 0 0 6.05469,-11.99023 z" /></g><path
       id="path120"
       style="fill:url(#radialGradient121);fill-opacity:1;stroke:none;stroke-width:1.99893;stroke-linecap:round;stroke-dasharray:none;stroke-opacity:1"
       d="m 105.78516,243.92383 c -0.71531,-0.0417 -1.40791,-0.0284 -2.07422,0.0332 a 31.483126,31.483126 0 0 0 -0.19141,3.47656 31.483126,31.483126 0 0 0 0.69531,6.58594 c 11.4942,0.60732 18.87909,11.83219 21.99219,8.93945 0.99739,-0.92678 -0.10338,-3.8903 -4.01367,-8.78906 -5.82695,-7.23107 -11.62717,-9.9677 -16.4082,-10.24609 z" /></g></svg>
