<svg xmlns="http://www.w3.org/2000/svg" xmlns:xlink="http://www.w3.org/1999/xlink" width="1920" height="1080" viewBox="0 0 508 285.75"><defs><linearGradient id="b"><stop offset="0" style="stop-color:#fff;stop-opacity:1"/><stop offset="1" style="stop-color:#fff;stop-opacity:0"/></linearGradient><linearGradient id="a"><stop offset="0" style="stop-color:#f5be39;stop-opacity:1"/><stop offset=".447" style="stop-color:#ffd699;stop-opacity:1"/><stop offset=".638" style="stop-color:#9a5f00;stop-opacity:1"/><stop offset=".879" style="stop-color:#cfa344;stop-opacity:1"/><stop offset="1" style="stop-color:#ffd587;stop-opacity:1"/></linearGradient><linearGradient xlink:href="#a" id="aV" x1="252.191" x2="252.191" y1="187.305" y2="116.396" gradientTransform="translate(2.305 38.775)" gradientUnits="userSpaceOnUse"/><linearGradient xlink:href="#a" id="aW" x1="252.571" x2="252.571" y1="155.171" y2="226.08" gradientTransform="translate(1.925)" gradientUnits="userSpaceOnUse"/><linearGradient xlink:href="#a" id="aX" x1="252.191" x2="252.191" y1="187.305" y2="116.396" gradientTransform="translate(-.208 38.775)" gradientUnits="userSpaceOnUse"/><linearGradient xlink:href="#a" id="aY" x1="252.571" x2="252.571" y1="155.171" y2="226.08" gradientTransform="translate(-.589)" gradientUnits="userSpaceOnUse"/><linearGradient xlink:href="#a" id="aZ" x1="252.191" x2="252.191" y1="187.305" y2="116.396" gradientTransform="translate(-10.06 38.775)" gradientUnits="userSpaceOnUse"/><linearGradient xlink:href="#a" id="ba" x1="252.571" x2="252.571" y1="155.171" y2="226.08" gradientTransform="translate(-10.44)" gradientUnits="userSpaceOnUse"/><linearGradient xlink:href="#a" id="bb" x1="252.191" x2="252.191" y1="187.305" y2="116.396" gradientTransform="translate(-8.137 38.775)" gradientUnits="userSpaceOnUse"/><linearGradient xlink:href="#a" id="bc" x1="252.571" x2="252.571" y1="155.171" y2="226.08" gradientTransform="translate(-8.518)" gradientUnits="userSpaceOnUse"/><linearGradient xlink:href="#a" id="bd" x1="252.191" x2="252.191" y1="187.305" y2="116.396" gradientTransform="translate(-6.08 38.775)" gradientUnits="userSpaceOnUse"/><linearGradient xlink:href="#a" id="be" x1="252.571" x2="252.571" y1="155.171" y2="226.08" gradientTransform="translate(-6.46)" gradientUnits="userSpaceOnUse"/><linearGradient xlink:href="#a" id="bf" x1="252.191" x2="252.191" y1="187.305" y2="116.396" gradientTransform="translate(-1.964 38.775)" gradientUnits="userSpaceOnUse"/><linearGradient xlink:href="#a" id="bg" x1="252.571" x2="252.571" y1="155.171" y2="226.08" gradientTransform="translate(-2.344)" gradientUnits="userSpaceOnUse"/><linearGradient xlink:href="#a" id="bh" x1="252.191" x2="252.191" y1="187.305" y2="116.396" gradientTransform="translate(243.85 38.775)" gradientUnits="userSpaceOnUse"/><linearGradient xlink:href="#a" id="bi" x1="252.571" x2="252.571" y1="155.171" y2="226.08" gradientTransform="translate(243.47)" gradientUnits="userSpaceOnUse"/><linearGradient xlink:href="#a" id="bj" x1="252.191" x2="252.191" y1="187.305" y2="116.396" gradientTransform="translate(247.697 38.775)" gradientUnits="userSpaceOnUse"/><linearGradient xlink:href="#a" id="bk" x1="252.571" x2="252.571" y1="155.171" y2="226.08" gradientTransform="translate(247.317)" gradientUnits="userSpaceOnUse"/><linearGradient xlink:href="#b" id="bm" x1="234.369" x2="234.369" y1="219.2" y2="168.412" gradientUnits="userSpaceOnUse"/><linearGradient xlink:href="#a" id="aJ" x1="252.191" x2="252.191" y1="187.305" y2="116.396" gradientTransform="translate(3.748 38.775)" gradientUnits="userSpaceOnUse"/><linearGradient xlink:href="#a" id="aK" x1="252.571" x2="252.571" y1="155.171" y2="226.08" gradientTransform="translate(3.368)" gradientUnits="userSpaceOnUse"/><linearGradient xlink:href="#a" id="aL" x1="252.191" x2="252.191" y1="187.305" y2="116.396" gradientTransform="translate(5.151 38.775)" gradientUnits="userSpaceOnUse"/><linearGradient xlink:href="#a" id="aM" x1="252.571" x2="252.571" y1="155.171" y2="226.08" gradientTransform="translate(4.77)" gradientUnits="userSpaceOnUse"/><linearGradient xlink:href="#a" id="aN" x1="252.191" x2="252.191" y1="187.305" y2="116.396" gradientTransform="translate(8.884 38.775)" gradientUnits="userSpaceOnUse"/><linearGradient xlink:href="#a" id="aO" x1="252.571" x2="252.571" y1="155.171" y2="226.08" gradientTransform="translate(8.503)" gradientUnits="userSpaceOnUse"/><linearGradient xlink:href="#a" id="aP" x1="252.191" x2="252.191" y1="187.305" y2="116.396" gradientTransform="translate(8.884 38.775)" gradientUnits="userSpaceOnUse"/><linearGradient xlink:href="#a" id="aQ" x1="252.571" x2="252.571" y1="155.171" y2="226.08" gradientTransform="translate(8.503)" gradientUnits="userSpaceOnUse"/><linearGradient xlink:href="#a" id="aR" x1="252.191" x2="252.191" y1="187.305" y2="116.396" gradientTransform="translate(11.377 38.775)" gradientUnits="userSpaceOnUse"/><linearGradient xlink:href="#a" id="aS" x1="252.571" x2="252.571" y1="155.171" y2="226.08" gradientTransform="translate(10.996)" gradientUnits="userSpaceOnUse"/><linearGradient xlink:href="#a" id="aT" x1="252.191" x2="252.191" y1="187.305" y2="116.396" gradientTransform="translate(15.223 38.775)" gradientUnits="userSpaceOnUse"/><linearGradient xlink:href="#a" id="aU" x1="252.571" x2="252.571" y1="155.171" y2="226.08" gradientTransform="translate(14.843)" gradientUnits="userSpaceOnUse"/><linearGradient xlink:href="#a" id="bl" x1="252.191" x2="252.191" y1="187.305" y2="116.396" gradientTransform="translate(3.748 38.775)" gradientUnits="userSpaceOnUse"/><linearGradient xlink:href="#c" id="bn" x1="239.344" x2="239.344" y1="71.809" y2="183.611" gradientTransform="matrix(.94545 0 0 1.13468 27.713 -39.123)" gradientUnits="userSpaceOnUse"/><linearGradient id="c"><stop offset="0" style="stop-color:#000;stop-opacity:1"/><stop offset="1" style="stop-color:#000;stop-opacity:0"/></linearGradient><filter id="aI" width="1.019" height="1.093" x="-.009" y="-.047" style="color-interpolation-filters:sRGB"><feGaussianBlur stdDeviation="1.388"/></filter></defs><rect width="508" height="285.75" rx="15.71" ry=".102" style="opacity:1;fill:#000;stroke:none;stroke-width:1.79154;stroke-linecap:butt;stroke-linejoin:miter;stroke-dasharray:none;paint-order:normal"/><path d="M136.481 157.173q-.342.016-.818.432a89 89 0 0 1-3.07 2.434 39 39 0 0 1-1.905 1.482q-.846.635-1.27 1.058v.953h.53q.528 0 .74.106.635.21.847.846.105.318 0 .53v58.419q0 1.165-.212 1.905-.21.741-2.01.741v1.693h2.328q.528-.105.952-.317.847-.423 1.905-.423 1.164 0 2.117.423a3.16 3.16 0 0 0 1.799.317h1.482v-1.799a4.8 4.8 0 0 1-1.694-.317q-.847-.423-.847-2.223v-64.876q0-.634-.423-1.164a.53.53 0 0 0-.45-.22m-47.713.22q-.952 0-1.905.212-3.598.635-5.292 2.752-1.587 2.116-2.222 4.022a20 20 0 0 1-.424 1.481 8.4 8.4 0 0 0-.106 1.376v51.435q0 2.223.847 4.021a9.8 9.8 0 0 0 2.223 3.07 12 12 0 0 0 3.28 2.01q1.8.635 3.81.635 3.6 0 6.033-1.693 1.482-1.059 2.328-2.434.847-1.376 1.27-2.646a22 22 0 0 0 .636-2.963v-24.342q0-1.164.317-1.8.317-.74 2.117-.74v-1.693h-2.54a2.1 2.1 0 0 0-.953.212q-.741.423-1.905.423t-2.01-.423a3.16 3.16 0 0 0-1.8-.318q-.846.105-1.376.106v1.693q.847 0 1.588.424.846.317.847 2.116v27.2q0 2.963-1.27 4.55-.952.847-1.905 1.059-.953.105-1.482.105-.53 0-1.482-.317-.953-.318-1.693-1.27-.847-1.165-.953-2.434a42 42 0 0 1-.106-3.175v-56.092q.105-1.482 1.27-2.857 1.271-1.376 2.752-1.482 3.07-.212 4.763 1.482 1.799 1.693 2.857 4.339.53 1.27.847 3.386.423 2.01.635 4.34.212 2.222.317 4.445.105 2.116 0 3.704h1.799v-23.39h-1.905q0 .424-.106.847-.105.318-.317.741-.106.318-.529.53-.741.316-1.482-.213-.74-.528-1.164-.74-1.8-1.059-3.704-1.482a8.8 8.8 0 0 0-1.905-.212m232.473 0q-.953 0-1.904.212-3.6.635-5.292 2.752-1.588 2.116-2.223 4.022a20 20 0 0 1-.423 1.481q-.106.635-.106 1.376v51.435q0 2.223.847 4.021a9.8 9.8 0 0 0 2.222 3.07 12 12 0 0 0 3.281 2.01q1.8.635 3.81.635 3.6 0 6.032-1.693 1.483-1.059 2.329-2.434t1.27-2.646q.423-1.482.635-2.963v-24.342q0-1.164.318-1.8.317-.74 2.116-.74v-1.693h-2.54a2.1 2.1 0 0 0-.953.212q-.74.423-1.904.423-1.165 0-2.011-.423a3.16 3.16 0 0 0-1.8-.318q-.846.105-1.375.106v1.693q.847 0 1.587.424.847.317.847 2.116v27.2q0 2.963-1.27 4.55-.952.847-1.905 1.059-.952.105-1.482.105-.528 0-1.481-.317-.953-.318-1.694-1.27-.846-1.165-.952-2.434a42 42 0 0 1-.106-3.175v-56.092q.106-1.482 1.27-2.857 1.27-1.376 2.751-1.482 3.07-.212 4.763 1.482 1.8 1.693 2.858 4.339.528 1.27.846 3.386.423 2.01.635 4.34.212 2.222.317 4.445.107 2.116 0 3.704h1.8v-23.39h-1.905q0 .424-.106.847-.106.318-.318.741-.106.318-.529.53-.741.316-1.481-.213-.74-.528-1.165-.74-1.799-1.059-3.703-1.482a8.8 8.8 0 0 0-1.906-.212m-157.158.31q-.369.015-.904.432-1.8 1.48-2.963 2.433a39 39 0 0 1-1.905 1.482q-.848.635-1.376 1.058v.953h.529q.53 0 .74.106.636.21.847.846.105.318 0 .53v23.811q-.634-1.163-1.693-1.798a3.97 3.97 0 0 0-2.328-.741h-.423q-2.33 0-4.022.635-1.588.635-2.752 1.694a7.4 7.4 0 0 0-1.693 2.222 11.7 11.7 0 0 0-.952 2.222q-.424 1.27-.424 2.223v22.966a13 13 0 0 0 .53 2.963q.423 1.27 1.27 2.646.846 1.269 2.328 2.328 2.221 1.693 5.609 1.693h.316q2.118 0 3.388-1.163 1.27-1.166 2.01-2.858l.53 1.058q.317.423.318.53.423.528 1.163 1.058a8.3 8.3 0 0 0 1.694.635q.424.105.952.105h1.164q.53 0 1.165-.105v-1.588q-1.8 0-2.011-.74-.212-.742-.212-1.906v-64.346q0-.635-.423-1.164a.55.55 0 0 0-.472-.22m244.07 0q-.37.015-.905.432-1.8 1.48-2.963 2.433a39 39 0 0 1-1.905 1.482q-.846.635-1.376 1.058v.953h.53q.529 0 .74.106.634.21.847.846.105.318 0 .53v23.811q-.636-1.163-1.693-1.798a3.97 3.97 0 0 0-2.329-.741h-.423q-2.328 0-4.022.635-1.587.635-2.751 1.694a7.4 7.4 0 0 0-1.694 2.222 11.7 11.7 0 0 0-.952 2.222q-.423 1.27-.424 2.223v22.966a13 13 0 0 0 .53 2.963q.422 1.27 1.27 2.646.846 1.269 2.328 2.328 2.223 1.693 5.609 1.693h.317q2.117 0 3.387-1.163 1.27-1.166 2.01-2.858l.53 1.058q.318.423.318.53.423.528 1.164 1.058a8.3 8.3 0 0 0 1.693.635q.424.105.952.105h1.165q.528 0 1.164-.105v-1.588q-1.8 0-2.01-.74-.213-.742-.213-1.906v-64.346q0-.635-.423-1.164a.55.55 0 0 0-.472-.22m-177.152.22v1.058q1.377 0 2.434.212 1.059.105 1.059 1.481v64.558q-.211 1.375-1.482 1.482-1.164.105-2.01 0v1.058h21.483V210.31h-1.693q0 1.481-.211 4.022a39 39 0 0 1-.741 4.868q-.53 2.434-1.482 4.445-.953 2.01-2.54 2.434-1.165.318-2.434.423-1.27.106-2.858.106v-33.866h4.974q1.482.423 1.588 1.799.211 1.376.212 2.963h1.693q0-.846-.106-1.587l-.212-1.27v-1.164q-.21-.848-.211-1.376 0-.636.211-2.011.212-.848.212-1.905.106-1.164.106-1.693l-1.8-.106v1.164q.106.741-.105 1.482-.105.635-.53 1.164-.316.53-1.27.529h-4.762v-31.644q1.165 0 2.222.106 1.165.105 2.329.423 1.8.635 2.752 2.646 1.059 2.01 1.481 4.445.53 2.433.635 4.868.106 2.434.106 3.916 1.165 0 1.693-.106v-17.462zm30.902 27.88q-.342.006-.819.483a57 57 0 0 1-2.646 2.328 21 21 0 0 0-1.693 1.482 28 28 0 0 0-1.27 1.164v.953h.847a.94.94 0 0 1 .423.105q.53.318.741.847.105.318.106.53v29.95q0 1.164-.212 1.905-.21.635-2.01.635v1.693h1.27q.529 0 1.057-.106.53 0 .953-.211 1.588-.848 3.493.106a3.85 3.85 0 0 0 1.799.211h1.482v-1.799a4.8 4.8 0 0 1-1.694-.318q-.846-.317-.846-2.116v-22.543q0-1.376.211-2.645.212-1.27.423-2.223.318-1.164.635-2.117.424-1.799 1.588-3.598a9.7 9.7 0 0 1 1.376-1.693q.847-.952 1.905-1.27.53-.105 1.587-.106a.94.94 0 0 0 .424.106q.317 0 .529.106 1.587.529 2.222 1.376.635.74.741.846-2.433 1.693-3.28 3.175-.741 1.483-.742 2.434 0 2.011.953 2.858.953.846 1.693 1.058 2.116.53 3.598-.423 1.588-1.059 1.588-3.598a53 53 0 0 0-.317-1.905q-.212-1.27-.741-2.858.635-.741 1.27-1.164.74-.423 1.27-.635 1.27-.53 3.175-.53h.211q.213 0 .318.106h.212q1.164.318 2.328 1.377 1.27.953 1.27 2.645v.53q.106.21.106.529v5.82q-1.27 1.376-2.54 2.117-1.164.74-3.281 2.011a98 98 0 0 0-3.175 2.01 48 48 0 0 0-2.117 1.482 23 23 0 0 0-1.27 1.165q-.423.528-.846 1.164a10.7 10.7 0 0 0-1.482 4.021q-.211 2.117-.106 3.81.106 4.022 1.588 6.774 1.587 2.751 4.233 3.915.846.424 2.54.424 1.693.105 3.07-.953 2.115-1.481 2.75-2.645.636-1.27.954-2.117 0 2.435 1.375 4.127 1.482 1.588 4.128 1.376 1.27 0 2.116-.317.847-.423 1.376-.847.529-.423.953-1.164l-.847-.847q-.212.424-.53.741-.529.741-1.693.635-.634-.105-.952-.424a7 7 0 0 1-.423-.74q-.212-.423-.212-1.058V198.88q0-.211-.106-.847 0-.74-.106-1.587 0-.847-.106-1.588-.105-.74-.211-1.058a11.7 11.7 0 0 0-.953-2.223 6.8 6.8 0 0 0-1.799-2.222q-1.058-1.059-2.752-1.693-1.587-.741-3.916-.741-1.692 0-3.069.423-.846.212-1.798.635-.953.212-2.117.953 0-.106-.106-.106v-.106q-.212-.106-.53-.423-.316-.318-.528-.424a1.3 1.3 0 0 0-.53-.317 3.5 3.5 0 0 1-.529-.423 30 30 0 0 0-1.905-.635h-.211q0-.105-.106-.106h-.318a6.1 6.1 0 0 0-2.751.212q-1.377.316-2.223 1.27-2.223 2.328-2.752 4.021l-.74 2.963v-7.514q0-.74-.53-1.27-.185-.278-.451-.272m160.636.904q-3.415.174-6.1 2.86-1.59 1.587-2.118 3.492-.529 1.8-.529 3.598 0 1.694.318 3.175.318 1.376.53 1.906.528 1.164 1.375 2.222.952.953 1.905 1.799a52 52 0 0 0 2.328 1.8q.318.21 1.27.952 1.059.635 2.223 1.481a28 28 0 0 1 2.222 1.8q1.059.846 1.588 1.481a13.8 13.8 0 0 1 1.905 3.281q.846 1.694.635 4.128-.213 2.01-1.693 4.127-1.376 2.01-4.34 2.01-2.328-.105-3.916-1.587-1.587-1.481-2.328-2.54-.847-1.164-1.27-2.857-.423-1.8-.53-3.175h-2.01l.106 11.218h1.482q-.105-.211 0-.53.211-.74.635-.951a1.35 1.35 0 0 1 1.27 0l1.058.529q1.164.528 2.434 1.058 1.377.53 3.175.53 1.482 0 3.07-.53 1.692-.53 3.28-1.693a7.6 7.6 0 0 0 2.328-2.646 15 15 0 0 0 1.27-3.175q.424-1.694.424-3.387.105-1.693-.106-2.963-.211-1.695-.847-2.963-.529-1.377-2.01-3.493-.53-.74-1.694-1.693a31 31 0 0 0-2.434-1.8 39 39 0 0 0-2.434-1.693q-1.163-.846-1.694-1.164-3.28-2.222-4.762-4.022-1.375-1.8-1.693-3.704-.106-.635.105-1.481a4.7 4.7 0 0 1 .847-1.8q.741-.846 1.905-1.375 1.27-.636 3.281-.635 1.8-.106 3.175.952 1.482 1.058 2.328 2.223 1.482 2.222 1.693 4.127.318 1.8.318 3.704h2.011v-12.276h-.318a.94.94 0 0 0-.423-.106q-.317 0-.53-.106v.53q0 .528-.422.952-.53.528-1.165.317a22 22 0 0 1-.846-.529q-.952-.53-2.223-.847-1.164-.423-3.069-.529a10 10 0 0 0-.99-.002zm-307.35.108q-3.386 0-5.609 1.693-1.481 1.059-2.328 2.434-.847 1.377-1.27 2.54a22 22 0 0 0-.635 2.964v22.965q0 .636.53 2.223.316 1.059.952 2.223a9.8 9.8 0 0 0 1.693 2.222q1.165.953 2.752 1.693 1.694.635 4.021.635h.424q3.28 0 5.503-1.693 1.482-1.059 2.328-2.328.847-1.376 1.27-2.646.424-1.376.635-2.963V195.81q0-1.059-.529-2.223a11.7 11.7 0 0 0-.952-2.222 6.8 6.8 0 0 0-1.8-2.223q-1.058-1.058-2.751-1.693-1.588-.635-3.916-.635h-.212zm64.154 0q-3.387 0-5.61 1.693-1.48 1.059-2.327 2.434-.847 1.377-1.27 2.54a22 22 0 0 0-.636 2.964v20.849q0 .952.106 1.8.105.74.106 1.48.105.742.317 1.059.318 1.059.953 2.223a13 13 0 0 0 1.8 2.222q1.163.953 2.751 1.693 1.588.635 3.916.635h.423q2.964 0 5.292-1.693 2.328-1.8 3.492-4.974a7.4 7.4 0 0 0 .423-1.693q.213-.953.424-1.694.105-.847.212-1.587h-.953q-.635-.105-.846 0l-.212 1.27q-.105.529-.317 1.164l-.212 1.058q-.741 2.33-2.646 4.234-1.905 1.8-5.186 1.587-1.693-.21-2.964-1.587-1.163-1.483-1.163-3.916V210.31q0-.211.105-.318.212-.528.635-.846.53-.423 1.164-.847l.636-.317a10.5 10.5 0 0 1 1.587-.53 25 25 0 0 1 1.799-.529l1.587-.317q.213-.105 1.165-.424.952-.317 2.116-.952.53-.317.847-.53.318-.21 1.164-1.058.848-.846 1.694-3.28.953-2.54 0-6.245-.213-1.058-.953-2.328a8.2 8.2 0 0 0-2.01-2.434q-1.166-1.058-2.964-1.799-1.695-.741-4.022-.741h-.212zm26.325 0q-1.375 0-2.434.741-1.058.635-1.693 1.799v-.847q0-.74-.424-1.27-.423-.53-1.27.212a89 89 0 0 1-3.069 2.434q-1.163.953-1.905 1.482-.846.635-1.376 1.058v1.059h1.376q.53.316.74.846.107.317.107.53v28.68q0 1.164-.317 1.905-.212.635-2.012.635v1.693h2.329q.53-.105.952-.317.847-.423 2.011-.423t2.117.423a3.16 3.16 0 0 0 1.799.317q.953-.211 1.482-.211v-1.588a4.8 4.8 0 0 1-1.694-.317q-.846-.317-.846-2.117v-31.538q.105-.105.106-.212.317-1.693 1.164-2.646.846-.846 1.799-1.058 1.058-.212 1.587-.212.53 0 1.165.212.634.211 1.375.847l.106.106q.105 0 .317.211.636.847.847 1.693.318.848.53 1.376v31.115q0 2.434 1.587 3.705 1.694 1.164 4.233.952 1.27 0 2.117-.318.846-.423 1.376-.846.528-.423.952-1.165l-.846-.846q-.212.424-.53.741-.528.74-1.693.635-1.059-.106-1.482-1.164-.21-.423-.106-1.059v-28.257q0-1.059-.529-2.223-.529-1.8-2.116-3.81-1.482-2.01-4.763-2.751-.529-.105-1.481-.106a15 15 0 0 0-1.588-.106m141.995 0q-3.387 0-5.61 1.693-1.48 1.059-2.327 2.434-.847 1.377-1.27 2.54a22 22 0 0 0-.635 2.964v22.965q0 .636.529 2.223.318 1.059.952 2.223a9.8 9.8 0 0 0 1.694 2.222q1.164.953 2.751 1.693 1.694.635 4.022.635h.423q3.281 0 5.503-1.693 1.482-1.059 2.329-2.328.847-1.376 1.27-2.646a18.3 18.3 0 0 0 .635-2.963V195.81q0-1.059-.53-2.223a11.7 11.7 0 0 0-.952-2.222 6.8 6.8 0 0 0-1.799-2.223q-1.058-1.058-2.752-1.693-1.587-.635-3.916-.635h-.211zm25.448 0q-3.386 0-5.609 1.693-1.482 1.059-2.328 2.434-.847 1.377-1.27 2.54a22 22 0 0 0-.635 2.964v22.965q0 .636.529 2.223.318 1.059.952 2.223a9.8 9.8 0 0 0 1.694 2.222q1.164.953 2.752 1.693 1.692.635 4.021.635h.423q3.28 0 5.504-1.693 1.481-1.059 2.328-2.328.847-1.376 1.27-2.646.423-1.376.635-2.963V195.81q0-1.059-.53-2.223a11.7 11.7 0 0 0-.951-2.222 6.8 6.8 0 0 0-1.8-2.223q-1.058-1.058-2.752-1.693-1.587-.635-3.915-.635h-.212zm-257.498 1.058q.529 0 1.164.318.741.212 1.587 1.058.741.847.953 1.693.318.848.424 1.376a2 2 0 0 1 .105.636v28.786q-.105.423-.105.846.105.424 0 .953-.318 1.588-1.165 2.54-.952.847-1.905 1.059-.953.21-1.482.21-1.164 0-2.75-1.269a6.9 6.9 0 0 1-.954-1.693q-.316-.953-.423-1.482v-30.268q0-.423.106-.847.318-1.693 1.164-2.645.847-.848 1.799-1.059.953-.211 1.482-.212m38.888 0q.528 0 1.481.212t1.8 1.058q.952.952 1.27 2.646v30.057l.105.106q0 .634-.106.952-.105.53-.423 1.482-.211.846-.952 1.693-1.588 1.27-2.752 1.27-.53 0-1.482-.211-.952-.212-1.8-1.059a3 3 0 0 1-.74-1.164 33 33 0 0 1-.423-1.376 5 5 0 0 1-.106-.953v-28.469q-.106-.105-.106-.317v-.846q0-.318.106-.636.105-.528.318-1.376.317-.846 1.058-1.693.846-.846 1.481-1.058.742-.318 1.27-.318m25.371 0q.529 0 1.376.424.846.318 1.376.952a6.9 6.9 0 0 1 1.27 2.011q.528.952.635 1.482.105 1.164.212 2.54.21 1.376.105 2.857-.105 1.376-.53 2.752a5.9 5.9 0 0 1-1.057 2.222 10.2 10.2 0 0 1-2.117 1.8q-1.164.635-2.328 1.164l-2.117 1.058q-.953.53-1.481 1.27v-15.769q0-.423.105-.847.318-1.693 1.164-2.646.848-.846 1.8-1.058 1.058-.212 1.587-.212m168.214 0q.53 0 1.165.318.74.212 1.587 1.058.74.847.952 1.693.318.848.424 1.376a2 2 0 0 1 .106.636v28.786q-.106.423-.106.846.105.424 0 .953-.318 1.588-1.165 2.54-.953.847-1.904 1.059-.953.21-1.482.21-1.164 0-2.752-1.269a6.8 6.8 0 0 1-.952-1.693q-.318-.953-.423-1.482v-30.268q0-.423.105-.847.318-1.693 1.164-2.645.848-.848 1.8-1.059t1.481-.212m25.448 0q.53 0 1.165.318.74.212 1.587 1.058.74.847.952 1.693.319.848.424 1.376.106.318.106.636v28.786q-.106.423-.106.846.105.424 0 .953-.317 1.588-1.164 2.54-.952.847-1.905 1.059-.953.21-1.482.21-1.164 0-2.752-1.269a6.8 6.8 0 0 1-.952-1.693q-.318-.953-.423-1.482v-30.268q0-.423.106-.847.317-1.693 1.164-2.645.846-.848 1.799-1.059t1.481-.212m25.036 0q.53 0 1.482.212t1.799 1.058q.952.952 1.27 2.646v30.057l.106.106q0 .634-.106.952-.106.53-.424 1.482-.21.846-.952 1.693-1.588 1.27-2.752 1.27-.529 0-1.481-.211-.953-.212-1.8-1.059a3 3 0 0 1-.74-1.164 33 33 0 0 1-.423-1.376 5 5 0 0 1-.106-.953v-28.469q-.106-.105-.106-.317v-.846q0-.318.106-.636.105-.528.317-1.376.318-.846 1.058-1.693.847-.846 1.482-1.058.74-.318 1.27-.318m-123.092 3.493q.211 1.164.317 2.117.212.952.212 1.27.106 1.163-.423 1.799-.53.635-1.482.423-1.059-.211-1.164-.952-.105-.848 0-1.482.105-.318.634-1.27.53-1.058 1.906-1.905m11.959 9.313v19.05q0 2.116-1.059 3.598t-2.222 2.329q-.848.74-1.905.952-1.058.212-1.905-.317-1.164-.741-1.482-2.222a26 26 0 0 1-.211-3.387v-5.927q0-2.434.74-5.186t2.329-4.127q2.116-1.694 3.492-2.646 1.482-.952 2.223-2.117" style="font-stretch:condensed;font-size:105.833px;font-family:Ayres;-inkscape-font-specification:&quot;Ayres Condensed&quot;;text-align:center;text-anchor:middle;opacity:.576;fill:#000;stroke-width:.264583;stroke-linecap:round;stroke-linejoin:round;filter:url(#aI)" transform="translate(-51.23 -86.43)scale(1.18908)"/><path d="M220.273 224.068q-.423.741-.952 1.164-.53.424-1.376.847-.847.317-2.117.317-2.54.212-4.233-.952-1.588-1.27-1.588-3.704v-31.116q-.211-.528-.529-1.375-.212-.847-.847-1.693-.211-.212-.317-.212l-.106-.106q-.74-.635-1.376-.846-.635-.212-1.164-.212-.53 0-1.587.212-.953.211-1.8 1.058-.846.952-1.164 2.646 0 .106-.106.211v31.539q0 1.799.847 2.116t1.693.318v1.587q-.529 0-1.481.212-.953.106-1.8-.318-.952-.423-2.116-.423t-2.01.423q-.424.212-.953.318h-2.329v-1.693q1.8 0 2.011-.635.318-.741.318-1.905v-28.681q0-.212-.106-.53-.212-.528-.741-.846h-1.376v-1.058q.53-.424 1.376-1.059.74-.529 1.905-1.481 1.27-.953 3.07-2.434.846-.741 1.27-.212.422.53.422 1.27v.847q.635-1.165 1.694-1.8 1.058-.74 2.434-.74.635 0 1.587.105.953 0 1.482.106 3.28.741 4.763 2.752 1.587 2.01 2.116 3.81.53 1.164.53 2.222v28.257q-.106.636.105 1.06.424 1.057 1.482 1.163 1.164.106 1.693-.635.318-.317.53-.74z" style="font-stretch:condensed;font-size:105.833px;font-family:Ayres;-inkscape-font-specification:&quot;Ayres Condensed&quot;;text-align:center;text-anchor:middle;fill:url(#aJ);stroke:url(#aK);stroke-width:1.19062;stroke-linecap:butt;stroke-linejoin:miter;paint-order:normal" transform="translate(-51.23 -86.43)scale(1.18908)"/><path d="M185.481 203.537q-1.164.635-2.116.952-.953.318-1.165.423l-1.587.318q-.847.212-1.8.529-.846.212-1.587.53l-.635.317q-.635.423-1.164.846-.423.318-.635.847-.106.106-.106.318v10.265q0 2.434 1.164 3.916 1.27 1.376 2.964 1.588 3.28.211 5.186-1.588 1.905-1.905 2.645-4.233l.212-1.059q.212-.635.318-1.164l.211-1.27q.212-.106.847 0h.952q-.105.741-.211 1.588-.212.74-.424 1.693-.105.847-.423 1.693-1.164 3.175-3.492 4.975-2.329 1.693-5.292 1.693h-.423q-2.329 0-3.916-.635-1.588-.74-2.752-1.693-1.058-1.059-1.799-2.223-.635-1.164-.952-2.222-.212-.318-.318-1.059 0-.74-.106-1.481-.106-.847-.106-1.8v-20.849q.212-1.481.635-2.963.424-1.164 1.27-2.54t2.329-2.434q2.222-1.693 5.609-1.693h.423q2.328 0 4.022.74 1.799.741 2.963 1.8 1.27 1.058 2.01 2.434.742 1.27.953 2.328.953 3.704 0 6.244-.846 2.434-1.693 3.281t-1.164 1.058q-.318.212-.847.53zm-10.795 3.175q.53-.741 1.482-1.27l2.117-1.059q1.164-.529 2.328-1.164 1.164-.74 2.117-1.8.74-.952 1.058-2.222.423-1.375.53-2.751.105-1.482-.107-2.858-.106-1.376-.211-2.54-.106-.529-.635-1.481-.424-1.059-1.27-2.011-.53-.635-1.376-.953-.847-.423-1.376-.423-.53 0-1.588.212-.952.211-1.799 1.058-.846.952-1.164 2.646-.106.423-.106.846v.953z" style="font-stretch:condensed;font-size:105.833px;font-family:Ayres;-inkscape-font-specification:&quot;Ayres Condensed&quot;;text-align:center;text-anchor:middle;fill:url(#aL);stroke:url(#aM);stroke-width:1.19062;stroke-linecap:butt;stroke-linejoin:miter;paint-order:normal" transform="translate(-51.23 -86.43)scale(1.18908)"/><path d="M164.449 221.74q0 1.164.212 1.905.211.74 2.01.74v1.588q-.635.106-1.164.106h-1.164q-.529 0-.952-.106-.847-.212-1.694-.635-.74-.529-1.164-1.058 0-.106-.317-.53l-.53-1.058q-.74 1.694-2.01 2.858t-3.387 1.164h-.317q-3.387 0-5.61-1.693-1.481-1.059-2.328-2.329-.847-1.376-1.27-2.646-.423-1.375-.53-2.963v-22.966q0-.952.424-2.222.318-1.058.953-2.223.635-1.27 1.693-2.222 1.164-1.058 2.752-1.693 1.693-.635 4.021-.635h.424q1.27 0 2.328.74 1.058.635 1.693 1.8v-23.813q.106-.212 0-.529-.211-.635-.846-.847-.212-.105-.741-.105h-.53v-.953q.53-.423 1.376-1.058.741-.53 1.905-1.482t2.964-2.434q.952-.741 1.376-.212.423.53.423 1.164v9.208zm-5.927-.53q.106-.317.106-.952l-.106-.106v-30.057q-.317-1.693-1.27-2.645-.846-.847-1.799-1.058-.952-.212-1.481-.212t-1.27.317q-.635.212-1.482 1.059-.741.846-1.058 1.693-.212.847-.318 1.376-.106.317-.106.635v.847q0 .211.106.317v28.469q0 .423.106.953.212.74.423 1.375.212.635.741 1.165.847.846 1.8 1.058.952.212 1.48.212 1.165 0 2.752-1.27.741-.847.953-1.694.317-.952.423-1.481z" style="font-stretch:condensed;font-size:105.833px;font-family:Ayres;-inkscape-font-specification:&quot;Ayres Condensed&quot;;text-align:center;text-anchor:middle;fill:url(#aN);stroke:url(#aO);stroke-width:1.19062;stroke-linecap:butt;stroke-linejoin:miter;paint-order:normal" transform="translate(-51.23 -86.43)scale(1.18908)"/><path d="M136.826 219.623v2.117q0 1.799.847 2.222.847.318 1.693.318v1.799h-1.481q-.953.106-1.8-.318-.952-.423-2.116-.423-1.058 0-1.905.423-.423.212-.953.318h-2.328v-1.693q1.8 0 2.011-.741t.212-1.905v-58.42q.105-.212 0-.53-.212-.634-.847-.846-.212-.106-.74-.106h-.53v-.952q.423-.424 1.27-1.058.74-.53 1.905-1.482 1.27-.953 3.07-2.434.846-.741 1.27-.212.422.53.422 1.164z" style="font-stretch:condensed;font-size:105.833px;font-family:Ayres;-inkscape-font-specification:&quot;Ayres Condensed&quot;;text-align:center;text-anchor:middle;fill:url(#aP);stroke:url(#aQ);stroke-width:1.19062;stroke-linecap:butt;stroke-linejoin:miter;paint-order:normal" transform="translate(-51.23 -86.43)scale(1.18908)"/><path d="M124.397 191.895q.53 1.164.53 2.222v22.966q-.213 1.588-.636 2.963-.423 1.27-1.27 2.646-.847 1.27-2.328 2.329-2.223 1.693-5.503 1.693h-.424q-2.328 0-4.021-.635-1.588-.74-2.752-1.693-1.058-1.059-1.693-2.223t-.953-2.222q-.53-1.588-.53-2.223v-22.966q.213-1.481.636-2.963.423-1.164 1.27-2.54t2.328-2.434q2.223-1.693 5.61-1.693h.317q2.328 0 3.916.635 1.693.635 2.751 1.693 1.164.952 1.8 2.222.634 1.165.952 2.223zm-5.08-.212v-.423q0-.318-.106-.635-.106-.53-.423-1.376-.212-.847-.953-1.693-.846-.847-1.587-1.059-.635-.317-1.164-.317-.53 0-1.482.212-.952.211-1.8 1.058-.846.952-1.163 2.646-.106.423-.106.846v30.269q.106.529.423 1.481.318.847.953 1.694 1.587 1.27 2.751 1.27.53 0 1.482-.212.953-.212 1.905-1.058.847-.953 1.164-2.54.106-.53 0-.953 0-.423.106-.847v-27.622z" style="font-stretch:condensed;font-size:105.833px;font-family:Ayres;-inkscape-font-specification:&quot;Ayres Condensed&quot;;text-align:center;text-anchor:middle;fill:url(#aR);stroke:url(#aS);stroke-width:1.19062;stroke-linecap:butt;stroke-linejoin:miter;paint-order:normal" transform="translate(-51.23 -86.43)scale(1.18908)"/><path d="M97.658 188.614q.423-.212.952-.212h2.54v1.694q-1.799 0-2.116.74-.318.636-.318 1.8v24.341q-.211 1.482-.635 2.964-.423 1.27-1.27 2.645-.846 1.376-2.328 2.435-2.434 1.693-6.033 1.693-2.01 0-3.81-.635-1.799-.74-3.28-2.01-1.376-1.27-2.223-3.07-.846-1.8-.846-4.022v-51.435q0-.74.105-1.375.212-.635.424-1.482.635-1.905 2.222-4.022 1.694-2.116 5.292-2.751 1.905-.424 3.81 0 1.905.423 3.704 1.481.423.212 1.164.741.741.53 1.482.212.423-.212.529-.53.212-.423.317-.74.106-.423.106-.847h1.905v23.39h-1.799q.106-1.588 0-3.705-.106-2.222-.317-4.445-.212-2.328-.635-4.339-.318-2.117-.847-3.387-1.058-2.646-2.858-4.339-1.693-1.693-4.762-1.481-1.482.105-2.752 1.481-1.164 1.376-1.27 2.858v56.091q0 1.8.106 3.175.106 1.27.953 2.434.74.953 1.693 1.27t1.482.318 1.481-.106q.953-.212 1.905-1.058 1.27-1.588 1.27-4.551v-27.2q0-1.798-.846-2.116-.741-.423-1.588-.423v-1.694q.53 0 1.376-.105.952-.106 1.8.317.846.423 2.01.423t1.905-.423z" style="font-stretch:condensed;font-size:105.833px;font-family:Ayres;-inkscape-font-specification:&quot;Ayres Condensed&quot;;text-align:center;text-anchor:middle;fill:url(#aT);stroke:url(#aU);stroke-width:1.19062;stroke-linecap:butt;stroke-linejoin:miter;paint-order:normal" transform="translate(-51.23 -86.43)scale(1.18908)"/><path d="M251.956 208.617v17.462h-21.484v-1.058q.847.105 2.01 0 1.27-.106 1.483-1.482v-64.558q0-1.376-1.059-1.482-1.058-.211-2.434-.211v-1.059h20.743v17.463q-.529.105-1.693.105 0-1.481-.106-3.915t-.635-4.869q-.423-2.434-1.481-4.445-.953-2.01-2.752-2.645-1.164-.318-2.328-.424-1.059-.106-2.223-.106v31.75-.106h4.763q.952 0 1.27-.529.423-.529.529-1.164.211-.74.106-1.482v-1.164l1.799.106q0 .53-.106 1.693 0 1.059-.212 1.905-.211 1.376-.211 2.011 0 .53.211 1.376v1.164l.212 1.27q.106.741.106 1.588h-1.694q0-1.588-.211-2.964-.106-1.375-1.588-1.799h-4.974v33.867q1.588 0 2.858-.106t2.434-.423q1.587-.424 2.54-2.435.952-2.01 1.481-4.445.53-2.434.741-4.868.212-2.54.212-4.021z" style="font-stretch:condensed;font-size:105.833px;font-family:Ayres;-inkscape-font-specification:&quot;Ayres Condensed&quot;;text-align:center;text-anchor:middle;fill:url(#aV);stroke:url(#aW);stroke-width:1.19062;stroke-linecap:butt;stroke-linejoin:miter;paint-order:normal" transform="translate(-51.23 -86.43)scale(1.18908)"/><path d="M297.173 223.962q-.423.741-.952 1.164-.53.424-1.376.847-.847.318-2.117.318-2.645.211-4.127-1.376-1.376-1.694-1.376-4.128-.317.847-.952 2.117-.635 1.164-2.752 2.646-1.376 1.058-3.07.952-1.693 0-2.54-.423-2.645-1.164-4.233-3.916-1.481-2.752-1.587-6.773-.106-1.693.106-3.81.317-2.117 1.481-4.022.424-.635.847-1.164.53-.53 1.27-1.164.847-.635 2.117-1.482 1.27-.846 3.175-2.01 2.116-1.27 3.28-2.011 1.27-.741 2.54-2.117v-5.82q0-.318-.105-.53v-.53q0-1.693-1.27-2.645-1.164-1.058-2.329-1.376h-.211q-.106-.106-.318-.106h-.211q-1.905 0-3.175.53-.53.211-1.27.634-.635.424-1.27 1.165.529 1.587.74 2.857.212 1.164.318 1.905 0 2.54-1.588 3.598-1.481.953-3.598.424-.74-.212-1.693-1.059-.953-.846-.953-2.857 0-.953.741-2.434.847-1.482 3.281-3.175-.106-.106-.74-.847-.636-.847-2.223-1.376-.212-.106-.53-.106-.211 0-.423-.105-1.058 0-1.587.105-1.059.318-1.905 1.27-.847.847-1.376 1.694-1.164 1.799-1.588 3.598-.317.953-.635 2.117-.211.952-.423 2.222t-.212 2.646v22.542q0 1.8.847 2.117.847.318 1.693.318v1.799h-1.481q-.953.106-1.8-.212-1.904-.952-3.492-.106-.423.212-.952.212-.53.106-1.059.106h-1.27v-1.694q1.8 0 2.011-.635.212-.74.212-1.905v-29.95q0-.212-.106-.53-.212-.529-.741-.846-.212-.106-.423-.106h-.847v-.952q.423-.424 1.27-1.165.635-.635 1.693-1.481 1.165-.953 2.646-2.329.847-.846 1.27-.211.53.529.53 1.27v7.514l.74-2.963q.53-1.694 2.752-4.022.847-.953 2.222-1.27 1.376-.423 2.752-.212h.317q.106 0 .106.106h.212q.74.212 1.905.635.212.212.53.423.317.106.528.318.212.106.53.423.317.318.529.424v.105q.105 0 .105.106 1.165-.74 2.117-.952.953-.424 1.8-.635 1.375-.424 3.068-.424 2.329 0 3.916.741 1.694.635 2.752 1.694 1.164.952 1.8 2.222.634 1.164.952 2.223.105.317.211 1.058.106.74.106 1.587.106.847.106 1.588.106.635.106.847v25.082q0 .635.211 1.058.212.424.424.741.317.318.952.423 1.164.106 1.694-.635.317-.317.529-.74zm-23.6-28.68q.952.211 1.481-.424t.424-1.799q0-.317-.212-1.27-.106-.952-.318-2.117-1.375.847-1.905 1.905-.529.953-.635 1.27-.105.635 0 1.482.106.74 1.165.953zm13.335 3.704q-.741 1.164-2.223 2.116-1.376.953-3.492 2.646-1.588 1.376-2.329 4.128-.74 2.751-.74 5.186v5.926q0 1.8.211 3.387.318 1.481 1.482 2.222.846.53 1.905.318 1.058-.212 1.905-.953 1.164-.846 2.222-2.328t1.059-3.598z" style="font-stretch:condensed;font-size:105.833px;font-family:Ayres;-inkscape-font-specification:&quot;Ayres Condensed&quot;;text-align:center;text-anchor:middle;fill:url(#aX);stroke:url(#aY);stroke-width:1.19062;stroke-linecap:butt;stroke-linejoin:miter;paint-order:normal" transform="translate(-51.23 -86.43)scale(1.18908)"/><path d="M433.9 212.427q.212 1.27.107 2.963 0 1.693-.424 3.386-.423 1.588-1.27 3.175-.846 1.588-2.328 2.646-1.588 1.164-3.28 1.694-1.588.529-3.07.529-1.8 0-3.175-.53-1.27-.529-2.434-1.058l-1.058-.529q-.635-.317-1.27 0-.424.212-.635.953-.106.317 0 .529h-1.482l-.106-11.218h2.01q.107 1.375.53 3.174.423 1.694 1.27 2.858.74 1.058 2.328 2.54t3.916 1.587q2.963 0 4.34-2.01 1.481-2.117 1.693-4.128.211-2.434-.635-4.127-.741-1.8-1.905-3.281-.53-.635-1.588-1.482-1.058-.952-2.222-1.799-1.165-.847-2.223-1.482-.952-.74-1.27-.952-1.164-.847-2.328-1.8-.953-.846-1.905-1.798-.847-1.059-1.376-2.223-.212-.53-.53-1.905-.317-1.482-.317-3.175 0-1.8.53-3.598.529-1.905 2.116-3.493 3.07-3.069 7.091-2.857 1.905.106 3.07.529 1.27.317 2.222.847.317.211.846.529.635.211 1.164-.318.424-.423.424-.952v-.53q.211.106.529.106.212 0 .423.106h.318v12.277h-2.011q0-1.905-.318-3.704-.211-1.905-1.693-4.128-.847-1.164-2.328-2.222-1.376-1.059-3.175-.953-2.011 0-3.281.635-1.164.53-1.905 1.376-.635.847-.847 1.8-.211.846-.105 1.48.317 1.906 1.693 3.705 1.481 1.8 4.762 4.022.53.317 1.694 1.164 1.164.74 2.434 1.693 1.27.847 2.434 1.8 1.164.952 1.693 1.693 1.482 2.116 2.011 3.492.635 1.27.847 2.964z" style="font-stretch:condensed;font-size:105.833px;font-family:Ayres;-inkscape-font-specification:&quot;Ayres Condensed&quot;;text-align:center;text-anchor:middle;fill:url(#aZ);stroke:url(#ba);stroke-width:1.19062;stroke-linecap:butt;stroke-linejoin:miter;paint-order:normal" transform="translate(-51.23 -86.43)scale(1.18908)"/><path d="M408.518 221.74q0 1.164.212 1.905.212.74 2.01.74v1.588q-.634.106-1.163.106h-1.165q-.529 0-.952-.106-.847-.212-1.693-.635-.741-.529-1.165-1.058 0-.106-.317-.53l-.53-1.058q-.74 1.694-2.01 2.858t-3.387 1.164h-.317q-3.387 0-5.61-1.693-1.481-1.059-2.328-2.329-.846-1.376-1.27-2.646-.423-1.375-.529-2.963v-22.966q0-.952.423-2.222.318-1.058.953-2.223.635-1.27 1.693-2.222 1.164-1.058 2.752-1.693 1.693-.635 4.022-.635h.423q1.27 0 2.328.74 1.059.635 1.694 1.8v-23.813q.105-.212 0-.529-.212-.635-.847-.847-.212-.105-.74-.105h-.53v-.953q.53-.423 1.376-1.058.74-.53 1.905-1.482 1.164-.952 2.963-2.434.953-.741 1.376-.212.423.53.423 1.164v9.208zm-5.926-.53q.105-.317.105-.952l-.105-.106v-30.057q-.318-1.693-1.27-2.645-.847-.847-1.8-1.058-.952-.212-1.481-.212t-1.27.317q-.635.212-1.482 1.059-.74.846-1.058 1.693-.212.847-.318 1.376-.106.317-.106.635v.847q0 .211.106.317v28.469q0 .423.106.953.212.74.423 1.375.212.635.741 1.165.847.846 1.8 1.058.952.212 1.481.212 1.164 0 2.752-1.27.74-.847.952-1.694.318-.952.424-1.481z" style="font-stretch:condensed;font-size:105.833px;font-family:Ayres;-inkscape-font-specification:&quot;Ayres Condensed&quot;;text-align:center;text-anchor:middle;fill:url(#bb);stroke:url(#bc);stroke-width:1.19062;stroke-linecap:butt;stroke-linejoin:miter;paint-order:normal" transform="translate(-51.23 -86.43)scale(1.18908)"/><path d="M382.319 191.895q.529 1.164.529 2.222v22.966q-.212 1.588-.635 2.963-.423 1.27-1.27 2.646-.847 1.27-2.328 2.329-2.223 1.693-5.504 1.693h-.423q-2.328 0-4.022-.635-1.587-.74-2.751-1.693-1.059-1.059-1.694-2.223t-.952-2.222q-.53-1.588-.53-2.223v-22.966q.212-1.481.636-2.963.423-1.164 1.27-2.54.846-1.376 2.328-2.434 2.222-1.693 5.609-1.693h.318q2.328 0 3.915.635 1.694.635 2.752 1.693 1.164.952 1.8 2.222.634 1.165.952 2.223zm-5.08-.212v-.423q0-.318-.106-.635-.106-.53-.423-1.376-.212-.847-.953-1.693-.847-.847-1.587-1.059-.635-.317-1.165-.317-.529 0-1.481.212-.953.211-1.8 1.058-.846.952-1.164 2.646-.105.423-.105.846v30.269q.105.529.423 1.481.317.847.952 1.694 1.588 1.27 2.752 1.27.53 0 1.482-.212t1.905-1.058q.846-.953 1.164-2.54.106-.53 0-.953 0-.423.106-.847v-27.622z" style="font-stretch:condensed;font-size:105.833px;font-family:Ayres;-inkscape-font-specification:&quot;Ayres Condensed&quot;;text-align:center;text-anchor:middle;fill:url(#bd);stroke:url(#be);stroke-width:1.19062;stroke-linecap:butt;stroke-linejoin:miter;paint-order:normal" transform="translate(-51.23 -86.43)scale(1.18908)"/><path d="M330.131 188.614q.424-.212.953-.212h2.54v1.694q-1.8 0-2.117.74-.317.636-.317 1.8v24.341q-.212 1.482-.635 2.964-.424 1.27-1.27 2.645t-2.329 2.435q-2.434 1.693-6.032 1.693-2.01 0-3.81-.635-1.8-.74-3.28-2.01-1.377-1.27-2.223-3.07-.847-1.8-.847-4.022v-51.435q0-.74.106-1.375.211-.635.423-1.482.635-1.905 2.223-4.022 1.693-2.116 5.291-2.751 1.905-.424 3.81 0 1.905.423 3.704 1.481.424.212 1.165.741.74.53 1.481.212.424-.212.53-.53.211-.423.317-.74.106-.423.106-.847h1.905v23.39h-1.799q.105-1.588 0-3.705-.106-2.222-.318-4.445-.212-2.328-.635-4.339-.317-2.117-.847-3.387-1.058-2.646-2.857-4.339-1.693-1.693-4.763-1.481-1.481.105-2.751 1.481-1.164 1.376-1.27 2.858v56.091q0 1.8.106 3.175.105 1.27.952 2.434.74.953 1.693 1.27t1.482.318q.53 0 1.482-.106.952-.212 1.905-1.058 1.27-1.588 1.27-4.551v-27.2q0-1.798-.847-2.116-.74-.423-1.587-.423v-1.694q.529 0 1.375-.105.953-.106 1.8.317.846.423 2.01.423 1.165 0 1.905-.423z" style="font-stretch:condensed;font-size:105.833px;font-family:Ayres;-inkscape-font-specification:&quot;Ayres Condensed&quot;;text-align:center;text-anchor:middle;fill:url(#bf);stroke:url(#bg);stroke-width:1.19062;stroke-linecap:butt;stroke-linejoin:miter;paint-order:normal" transform="translate(-51.23 -86.43)scale(1.18908)"/><path d="M356.87 191.895q.53 1.164.53 2.222v22.966q-.212 1.588-.635 2.963-.424 1.27-1.27 2.646-.847 1.27-2.329 2.329-2.222 1.693-5.503 1.693h-.423q-2.329 0-4.022-.635-1.588-.74-2.752-1.693-1.058-1.059-1.693-2.223t-.953-2.222q-.529-1.588-.529-2.223v-22.966q.212-1.481.635-2.963.424-1.164 1.27-2.54t2.329-2.434q2.222-1.693 5.609-1.693h.317q2.329 0 3.916.635 1.693.635 2.752 1.693 1.164.952 1.799 2.222.635 1.165.952 2.223zm-5.08-.212v-.423q0-.318-.105-.635-.106-.53-.424-1.376-.211-.847-.952-1.693-.847-.847-1.588-1.059-.635-.317-1.164-.317t-1.482.212q-.952.211-1.799 1.058-.846.952-1.164 2.646-.106.423-.106.846v30.269q.106.529.424 1.481.317.847.952 1.694 1.588 1.27 2.752 1.27.529 0 1.481-.212t1.905-1.058q.847-.953 1.165-2.54.105-.53 0-.953 0-.423.105-.847v-27.622z" style="font-stretch:condensed;font-size:105.833px;font-family:Ayres;-inkscape-font-specification:&quot;Ayres Condensed&quot;;text-align:center;text-anchor:middle;fill:url(#bh);stroke:url(#bi);stroke-width:1.19062;stroke-linecap:butt;stroke-linejoin:miter;paint-order:normal" transform="translate(-51.23 -86.43)scale(1.18908)"/><path d="M330.131 188.614q.424-.212.953-.212h2.54v1.694q-1.8 0-2.117.74-.317.636-.317 1.8v24.341q-.212 1.482-.635 2.964-.424 1.27-1.27 2.645t-2.329 2.435q-2.434 1.693-6.032 1.693-2.01 0-3.81-.635-1.8-.74-3.28-2.01-1.377-1.27-2.223-3.07-.847-1.8-.847-4.022v-51.435q0-.74.106-1.375.211-.635.423-1.482.635-1.905 2.223-4.022 1.693-2.116 5.291-2.751 1.905-.424 3.81 0 1.905.423 3.704 1.481.424.212 1.165.741.74.53 1.481.212.424-.212.53-.53.211-.423.317-.74.106-.423.106-.847h1.905v23.39h-1.799q.105-1.588 0-3.705-.106-2.222-.318-4.445-.212-2.328-.635-4.339-.317-2.117-.847-3.387-1.058-2.646-2.857-4.339-1.693-1.693-4.763-1.481-1.481.105-2.751 1.481-1.164 1.376-1.27 2.858v56.091q0 1.8.106 3.175.105 1.27.952 2.434.74.953 1.693 1.27t1.482.318q.53 0 1.482-.106.952-.212 1.905-1.058 1.27-1.588 1.27-4.551v-27.2q0-1.798-.847-2.116-.74-.423-1.587-.423v-1.694q.529 0 1.375-.105.953-.106 1.8.317.846.423 2.01.423 1.165 0 1.905-.423z" style="font-stretch:condensed;font-size:105.833px;font-family:Ayres;-inkscape-font-specification:&quot;Ayres Condensed&quot;;text-align:center;text-anchor:middle;fill:url(#bj);stroke:url(#bk);stroke-width:1.19062;stroke-linecap:butt;stroke-linejoin:miter;paint-order:normal" transform="translate(-51.23 -86.43)scale(1.18908)"/><path d="M135.952 155.48q-.342.015-.819.432a89 89 0 0 1-3.07 2.434 39 39 0 0 1-1.904 1.481q-.846.636-1.27 1.059v.952h.529q.53 0 .741.106.635.211.846.847.106.317 0 .529v58.42q0 1.163-.21 1.905-.213.74-2.012.74v1.694h2.328q.529-.105.953-.318.847-.423 1.905-.423 1.164 0 2.117.423a3.16 3.16 0 0 0 1.799.318h1.482v-1.8a4.8 4.8 0 0 1-1.694-.316q-.846-.424-.847-2.223v-64.876q0-.635-.423-1.164a.53.53 0 0 0-.451-.22m-47.713.22q-.953 0-1.905.212-3.6.635-5.292 2.751-1.588 2.117-2.223 4.022a20 20 0 0 1-.423 1.482 8.4 8.4 0 0 0-.106 1.375v51.435q0 2.222.847 4.022a9.8 9.8 0 0 0 2.223 3.069 12 12 0 0 0 3.28 2.01q1.8.636 3.81.636 3.6 0 6.033-1.694 1.482-1.057 2.328-2.434.847-1.376 1.27-2.645a22 22 0 0 0 .635-2.964v-24.341q0-1.164.318-1.8.317-.74 2.116-.74v-1.694h-2.539a2.1 2.1 0 0 0-.953.212q-.742.424-1.905.424t-2.01-.424a3.16 3.16 0 0 0-1.8-.317q-.846.105-1.376.105v1.694q.847 0 1.588.423.847.318.847 2.117v27.199q0 2.963-1.27 4.55-.953.847-1.905 1.06-.953.105-1.483.105-.528 0-1.481-.318-.953-.316-1.694-1.27-.846-1.164-.952-2.434a42 42 0 0 1-.106-3.175v-56.092q.105-1.481 1.27-2.857 1.27-1.375 2.752-1.481 3.07-.212 4.763 1.481 1.799 1.695 2.857 4.34.53 1.27.847 3.386.423 2.01.635 4.34.212 2.221.317 4.444.105 2.117 0 3.704h1.799V156.23h-1.905q0 .423-.106.847-.105.317-.317.74-.105.318-.53.53-.74.317-1.48-.212-.742-.53-1.165-.74-1.8-1.059-3.704-1.482a8.8 8.8 0 0 0-1.905-.212m232.473 0q-.952 0-1.905.212-3.597.635-5.291 2.751-1.589 2.117-2.223 4.022a20 20 0 0 1-.423 1.482q-.106.634-.106 1.375v51.435q0 2.222.846 4.022a9.8 9.8 0 0 0 2.223 3.069 12 12 0 0 0 3.281 2.01q1.8.636 3.81.636 3.599 0 6.032-1.694 1.482-1.057 2.329-2.434.846-1.376 1.27-2.645.423-1.482.635-2.964v-24.341q0-1.164.317-1.8.318-.74 2.117-.74v-1.694h-2.54a2.1 2.1 0 0 0-.953.212q-.74.424-1.905.424-1.164 0-2.01-.424a3.16 3.16 0 0 0-1.8-.317q-.846.105-1.375.105v1.694q.846 0 1.587.423.847.318.847 2.117v27.199q0 2.963-1.27 4.55-.952.847-1.905 1.06-.953.105-1.482.105t-1.481-.318q-.953-.316-1.694-1.27-.847-1.164-.952-2.434a42 42 0 0 1-.106-3.175v-56.092q.106-1.481 1.27-2.857 1.27-1.375 2.751-1.481 3.07-.212 4.763 1.481 1.8 1.695 2.857 4.34.53 1.27.847 3.386.423 2.01.635 4.34.212 2.221.317 4.444.105 2.117 0 3.704h1.8V156.23h-1.905q0 .423-.106.847-.106.317-.318.74-.106.318-.529.53-.741.317-1.482-.212-.74-.53-1.164-.74-1.799-1.059-3.703-1.482a8.8 8.8 0 0 0-1.906-.212m-157.158.31q-.369.014-.904.431-1.8 1.483-2.964 2.434a39 39 0 0 1-1.904 1.482q-.847.635-1.377 1.058v.952h.53q.529 0 .74.106.636.211.847.847.105.317 0 .529v23.812q-.634-1.164-1.693-1.798a3.97 3.97 0 0 0-2.328-.741h-.424q-2.328 0-4.022.635-1.587.635-2.75 1.693a7.4 7.4 0 0 0-1.694 2.223 11.7 11.7 0 0 0-.953 2.222q-.423 1.27-.423 2.222v22.966a13 13 0 0 0 .53 2.964q.423 1.27 1.269 2.645.846 1.27 2.329 2.328 2.221 1.694 5.608 1.694h.318q2.116 0 3.387-1.164 1.269-1.164 2.01-2.858l.53 1.059q.317.423.317.529.424.529 1.164 1.058a8.3 8.3 0 0 0 1.694.635q.424.105.952.106h1.164q.53 0 1.164-.106v-1.587q-1.8 0-2.01-.741-.212-.741-.212-1.905v-64.347q0-.635-.423-1.164a.55.55 0 0 0-.472-.22m244.07 0q-.37.014-.905.431-1.8 1.483-2.963 2.434a39 39 0 0 1-1.905 1.482q-.847.635-1.376 1.058v.952h.529q.53 0 .741.106.635.211.846.847.107.317 0 .529v23.812q-.635-1.164-1.692-1.798a3.97 3.97 0 0 0-2.329-.741h-.423q-2.328 0-4.022.635-1.588.635-2.751 1.693a7.4 7.4 0 0 0-1.694 2.223 11.7 11.7 0 0 0-.952 2.222q-.424 1.27-.424 2.222v22.966a13 13 0 0 0 .53 2.964q.422 1.27 1.27 2.645.846 1.27 2.328 2.328 2.223 1.694 5.609 1.694h.317q2.117 0 3.387-1.164t2.01-2.858l.53 1.059q.318.423.318.529.423.529 1.163 1.058a8.3 8.3 0 0 0 1.694.635q.423.105.952.106h1.165q.528 0 1.164-.106v-1.587q-1.8 0-2.01-.741-.213-.741-.213-1.905v-64.347q0-.635-.423-1.164a.55.55 0 0 0-.472-.22m-177.152.22v1.058q1.376 0 2.434.211 1.059.106 1.059 1.482v64.558q-.212 1.375-1.482 1.481-1.164.106-2.01 0v1.059h21.483v-17.462h-1.693q0 1.481-.212 4.021a39 39 0 0 1-.74 4.869q-.53 2.434-1.482 4.444-.953 2.011-2.54 2.435-1.164.317-2.435.423-1.269.106-2.857.106v-33.867h4.974q1.482.424 1.588 1.8.21 1.374.211 2.963h1.694q0-.847-.106-1.588l-.212-1.27v-1.164q-.211-.846-.211-1.376 0-.634.211-2.01.212-.848.212-1.905.106-1.164.106-1.694l-1.8-.106v1.165q.106.74-.105 1.481-.105.635-.53 1.164-.316.53-1.27.53h-4.762v-31.645q1.164 0 2.222.106 1.165.106 2.329.424 1.8.635 2.752 2.645 1.058 2.011 1.481 4.445.53 2.434.635 4.869.106 2.433.106 3.916 1.164 0 1.693-.106v-17.463zm30.902 27.879q-.342.007-.819.483a57 57 0 0 1-2.646 2.329 21 21 0 0 0-1.693 1.481 28 28 0 0 0-1.27 1.165v.952h.847a.94.94 0 0 1 .423.106q.53.318.74.847.108.317.107.529v29.95q0 1.165-.212 1.906-.212.635-2.01.635v1.693h1.269q.53 0 1.058-.106.53 0 .953-.212 1.589-.846 3.492.106a3.85 3.85 0 0 0 1.8.212h1.481v-1.8a4.8 4.8 0 0 1-1.693-.317q-.846-.317-.846-2.117V199.41q0-1.376.21-2.646.213-1.27.424-2.222.318-1.165.635-2.117.423-1.8 1.588-3.598a9.7 9.7 0 0 1 1.376-1.694q.847-.952 1.905-1.27.529-.105 1.587-.105a.94.94 0 0 0 .423.106q.317 0 .53.105 1.587.53 2.222 1.376.635.74.741.847-2.434 1.692-3.28 3.175-.742 1.482-.742 2.434 0 2.01.953 2.857t1.693 1.059q2.116.528 3.598-.424 1.588-1.058 1.588-3.598a53 53 0 0 0-.318-1.905q-.211-1.27-.74-2.857.634-.74 1.27-1.165.74-.423 1.27-.635 1.27-.53 3.175-.529h.211q.212 0 .318.106h.211q1.164.317 2.329 1.376 1.27.952 1.27 2.646v.53q.105.21.106.528v5.82q-1.27 1.377-2.54 2.117-1.164.741-3.281 2.012a98 98 0 0 0-3.175 2.01 48 48 0 0 0-2.117 1.482 23 23 0 0 0-1.27 1.164q-.423.53-.847 1.164a10.7 10.7 0 0 0-1.481 4.022q-.212 2.117-.106 3.81.106 4.022 1.587 6.773 1.588 2.752 4.234 3.916.846.423 2.54.423 1.693.107 3.07-.952 2.115-1.482 2.75-2.646.636-1.27.953-2.116 0 2.433 1.376 4.127 1.482 1.587 4.127 1.376 1.27 0 2.117-.318.847-.423 1.376-.847.528-.423.953-1.163l-.847-.847q-.212.423-.53.74-.528.742-1.693.636-.634-.105-.952-.424a7 7 0 0 1-.424-.74q-.21-.424-.211-1.059v-25.083q0-.21-.106-.846 0-.74-.106-1.588 0-.846-.106-1.587-.105-.741-.212-1.058a11.7 11.7 0 0 0-.952-2.223 6.8 6.8 0 0 0-1.799-2.223q-1.058-1.058-2.752-1.693-1.587-.74-3.916-.74-1.694 0-3.069.423-.846.211-1.799.635-.952.21-2.116.952 0-.106-.106-.106v-.105q-.212-.105-.53-.424-.316-.318-.529-.423a1.3 1.3 0 0 0-.529-.317 3.5 3.5 0 0 1-.529-.424 30 30 0 0 0-1.905-.635h-.212q0-.105-.106-.106h-.317a6.1 6.1 0 0 0-2.752.212q-1.376.318-2.222 1.27-2.224 2.328-2.752 4.022l-.74 2.963v-7.514q0-.74-.53-1.27-.185-.278-.451-.272m160.635.905q-3.414.174-6.1 2.86-1.587 1.587-2.117 3.492-.528 1.798-.529 3.598 0 1.693.318 3.175.317 1.375.53 1.905.528 1.164 1.375 2.223.953.952 1.905 1.799a52 52 0 0 0 2.328 1.799q.318.211 1.27.952 1.059.635 2.223 1.482a28 28 0 0 1 2.222 1.8q1.059.846 1.587 1.48a13.8 13.8 0 0 1 1.906 3.282q.846 1.693.634 4.127-.21 2.01-1.693 4.128-1.375 2.01-4.339 2.01-2.329-.106-3.916-1.587-1.587-1.482-2.328-2.54-.846-1.164-1.27-2.857-.423-1.8-.53-3.175h-2.01l.106 11.218h1.482q-.107-.212 0-.53.21-.74.635-.952a1.35 1.35 0 0 1 1.27 0l1.058.53q1.164.528 2.434 1.058 1.376.528 3.175.529 1.481 0 3.07-.53 1.692-.529 3.28-1.693a7.6 7.6 0 0 0 2.328-2.646 15 15 0 0 0 1.27-3.175q.424-1.693.424-3.386.105-1.693-.106-2.964-.211-1.693-.847-2.963-.53-1.376-2.01-3.492-.53-.741-1.694-1.694a31 31 0 0 0-2.434-1.799 39 39 0 0 0-2.434-1.693q-1.165-.847-1.694-1.164-3.281-2.223-4.762-4.022-1.377-1.8-1.693-3.704-.106-.635.105-1.482a4.7 4.7 0 0 1 .847-1.799q.741-.846 1.905-1.376 1.27-.635 3.28-.635 1.8-.106 3.176.953 1.481 1.058 2.328 2.222 1.482 2.223 1.693 4.127.318 1.8.318 3.705h2.01v-12.277h-.317a.94.94 0 0 0-.423-.106q-.317 0-.53-.105v.529q0 .528-.423.952-.528.53-1.164.318a22 22 0 0 1-.846-.53q-.952-.529-2.223-.846-1.164-.423-3.069-.53a10 10 0 0 0-.99-.001zm-307.349.108q-3.386 0-5.609 1.693-1.482 1.059-2.328 2.434-.847 1.376-1.27 2.54a22 22 0 0 0-.635 2.963v22.966q0 .635.53 2.223.316 1.058.951 2.222a9.8 9.8 0 0 0 1.694 2.223q1.164.952 2.752 1.693 1.693.635 4.021.635h.423q3.281 0 5.504-1.694 1.481-1.058 2.328-2.328.847-1.376 1.27-2.645.423-1.376.635-2.964v-22.966q0-1.058-.529-2.222a11.7 11.7 0 0 0-.952-2.222 6.8 6.8 0 0 0-1.8-2.223q-1.058-1.059-2.751-1.693-1.588-.636-3.916-.635h-.212zm64.154 0q-3.387 0-5.61 1.693-1.48 1.059-2.328 2.434-.846 1.376-1.27 2.54a22 22 0 0 0-.635 2.963v20.85q0 .951.106 1.799.106.74.106 1.481.105.741.317 1.059.318 1.058.953 2.222a13 13 0 0 0 1.799 2.223q1.164.952 2.752 1.693 1.588.635 3.916.635h.423q2.964 0 5.292-1.694 2.328-1.8 3.492-4.973a7.4 7.4 0 0 0 .423-1.694q.212-.953.424-1.693.105-.847.211-1.588h-.952q-.634-.105-.847 0l-.211 1.27q-.107.53-.318 1.165l-.212 1.058q-.74 2.328-2.645 4.233-1.905 1.8-5.186 1.588-1.693-.211-2.964-1.588-1.164-1.481-1.164-3.916v-10.265q0-.212.106-.318.212-.53.635-.847.53-.423 1.164-.847l.635-.317a10.5 10.5 0 0 1 1.588-.529 25 25 0 0 1 1.799-.53l1.587-.316q.212-.107 1.165-.424.952-.318 2.116-.953.53-.317.847-.529.318-.211 1.164-1.058t1.693-3.281q.952-2.54 0-6.244-.21-1.058-.952-2.328a8.2 8.2 0 0 0-2.01-2.435q-1.165-1.058-2.964-1.798-1.695-.741-4.022-.741h-.212zm26.325 0q-1.376 0-2.434.74-1.059.635-1.693 1.8v-.847q0-.74-.424-1.27-.423-.53-1.27.212a89 89 0 0 1-3.069 2.434q-1.163.952-1.905 1.482-.846.635-1.376 1.058v1.058h1.376q.53.318.74.847.107.317.107.529v28.681q0 1.163-.318 1.905-.21.635-2.01.635v1.693h2.328q.529-.105.952-.318.847-.423 2.01-.423 1.165 0 2.117.423a3.16 3.16 0 0 0 1.8.318q.953-.212 1.481-.212v-1.587a4.8 4.8 0 0 1-1.693-.317q-.846-.318-.846-2.117v-31.539q.105-.105.105-.211.318-1.693 1.165-2.646.846-.846 1.799-1.058 1.058-.212 1.587-.212.53 0 1.164.212.636.21 1.376.846l.106.106q.105 0 .317.212.636.846.847 1.693.317.846.53 1.376v31.115q0 2.434 1.587 3.704 1.693 1.164 4.233.953 1.27 0 2.117-.318.846-.424 1.375-.847t.953-1.164l-.847-.846q-.21.423-.529.74-.53.741-1.693.635-1.059-.105-1.482-1.164-.21-.423-.106-1.058v-28.258q0-1.058-.529-2.222-.529-1.8-2.117-3.81-1.481-2.01-4.762-2.752-.53-.105-1.482-.106a15 15 0 0 0-1.587-.105m141.995 0q-3.387 0-5.61 1.693-1.48 1.059-2.328 2.434t-1.27 2.54a22 22 0 0 0-.634 2.963v22.966q0 .635.529 2.223.317 1.058.952 2.222a9.8 9.8 0 0 0 1.694 2.223q1.163.952 2.75 1.693 1.694.635 4.023.635h.423q3.28 0 5.503-1.694 1.482-1.058 2.329-2.328.847-1.376 1.27-2.645a18.3 18.3 0 0 0 .634-2.964v-22.966q0-1.058-.529-2.222a11.7 11.7 0 0 0-.952-2.222 6.8 6.8 0 0 0-1.799-2.223q-1.059-1.059-2.752-1.693-1.587-.636-3.916-.635h-.211zm25.448 0q-3.387 0-5.609 1.693-1.482 1.059-2.329 2.434-.846 1.376-1.27 2.54a22 22 0 0 0-.634 2.963v22.966q0 .635.529 2.223.317 1.058.952 2.222a9.8 9.8 0 0 0 1.694 2.223q1.164.952 2.751 1.693 1.695.635 4.022.635h.423q3.28 0 5.504-1.694 1.48-1.058 2.328-2.328.846-1.376 1.27-2.645.423-1.376.635-2.964v-22.966q0-1.058-.53-2.222a11.7 11.7 0 0 0-.952-2.222 6.8 6.8 0 0 0-1.799-2.223q-1.059-1.059-2.752-1.693-1.587-.636-3.915-.635h-.212zm-257.498 1.058q.529 0 1.164.318.741.211 1.587 1.058.741.846.953 1.693.318.846.423 1.376a2 2 0 0 1 .106.635v28.787q-.105.423-.106.846.105.423 0 .953-.317 1.587-1.164 2.54-.952.846-1.905 1.058-.953.211-1.482.211-1.164 0-2.751-1.27a6.9 6.9 0 0 1-.953-1.693q-.318-.952-.423-1.481v-30.269q0-.423.106-.846.317-1.693 1.164-2.646.846-.846 1.799-1.058t1.482-.212m38.887 0q.53 0 1.482.212.952.211 1.8 1.058.95.952 1.27 2.646v30.056l.105.106q0 .636-.106.953-.105.529-.423 1.481-.212.848-.953 1.694-1.587 1.27-2.751 1.27-.53 0-1.482-.212t-1.8-1.058a3 3 0 0 1-.74-1.164 33 33 0 0 1-.423-1.376 5 5 0 0 1-.106-.953v-28.469q-.106-.105-.106-.317v-.847q0-.317.106-.635.105-.53.317-1.376.318-.847 1.059-1.693.846-.846 1.481-1.058.742-.318 1.27-.318m25.372 0q.529 0 1.376.423.846.318 1.376.953a6.9 6.9 0 0 1 1.27 2.01q.528.954.635 1.482.105 1.164.211 2.54.212 1.376.106 2.858-.105 1.376-.53 2.751a5.9 5.9 0 0 1-1.058 2.223 10.2 10.2 0 0 1-2.116 1.8q-1.164.633-2.328 1.163l-2.117 1.059q-.952.529-1.482 1.27v-15.77q0-.423.106-.846.318-1.693 1.164-2.646.847-.846 1.8-1.058 1.058-.212 1.587-.212m168.214 0q.53 0 1.164.318.74.211 1.588 1.058.74.846.952 1.693.318.846.423 1.376a2 2 0 0 1 .106.635v28.787q-.106.423-.106.846.107.423 0 .953-.317 1.587-1.164 2.54-.952.846-1.905 1.058-.952.211-1.481.211-1.164 0-2.752-1.27a6.8 6.8 0 0 1-.952-1.693q-.318-.952-.424-1.481v-30.269q0-.423.106-.846.318-1.693 1.164-2.646.848-.846 1.8-1.058t1.481-.212m25.448 0q.53 0 1.164.318.74.211 1.588 1.058.74.846.952 1.693.319.846.424 1.376.105.318.105.635v28.787q-.105.423-.105.846.105.423 0 .953-.318 1.587-1.164 2.54-.952.846-1.906 1.058-.952.211-1.481.211-1.165 0-2.752-1.27a6.8 6.8 0 0 1-.952-1.693q-.318-.952-.423-1.481v-30.269q0-.423.105-.846.318-1.693 1.165-2.646.846-.846 1.799-1.058.952-.212 1.481-.212m25.036 0q.529 0 1.481.212.952.211 1.8 1.058.952.952 1.27 2.646v30.056l.105.106q0 .636-.106.953-.105.529-.423 1.481-.21.848-.952 1.694-1.588 1.27-2.752 1.27-.53 0-1.482-.212t-1.799-1.058a3 3 0 0 1-.74-1.164 33 33 0 0 1-.424-1.376 5 5 0 0 1-.106-.953v-28.469q-.106-.105-.106-.317v-.847q0-.317.106-.635.107-.53.318-1.376.317-.847 1.058-1.693.847-.846 1.482-1.058.74-.318 1.27-.318m-123.092 3.493q.21 1.164.317 2.116.212.952.212 1.27.106 1.164-.423 1.8-.53.635-1.483.423-1.058-.212-1.163-.953-.105-.847 0-1.482.105-.318.634-1.27.53-1.058 1.906-1.904m11.959 9.313v19.05q0 2.115-1.059 3.598t-2.222 2.329q-.848.74-1.905.952-1.058.212-1.905-.318-1.164-.74-1.482-2.222a26 26 0 0 1-.211-3.387v-5.927q0-2.433.74-5.185t2.329-4.128q2.116-1.693 3.492-2.646 1.482-.952 2.223-2.116" style="font-stretch:condensed;font-size:105.833px;font-family:Ayres;-inkscape-font-specification:&quot;Ayres Condensed&quot;;text-align:center;text-anchor:middle;fill:url(#bl);stroke-width:.264583;stroke-linecap:round;stroke-linejoin:round" transform="translate(-51.23 -86.43)scale(1.18908)"/><path d="M136.003 155.884q-.013 0-.034.002v-.001c-1.967 1.263-7.498 5.61-5.576 4.274-.498.373-.842.67-1.1.917v.358h.125c.371 0 .645.021.902.145.508.181.9.57 1.07 1.083.08.241.103.502.02.739v36.508a237.902 61.842 0 0 0 5.012.762v-43.805a1.4 1.4 0 0 0-.336-.914c-.047-.058-.056-.068-.083-.068zm-4.593 7.516v-.08l-.043.182a1 1 0 0 0 .043-.102m-43.171-7.297zc-1.076-.01-2.19.286-1.833.207-4.056 1.4-2.612-.145-5.046 2.606-1.034 1.381-1.75 2.685-2.154 3.898q-.204.812-.412 1.438a8 8 0 0 0-.098 1.29v23.174a237.902 61.842 0 0 0 5.012 1.377v-27.86c.077-1.084.547-2.123 1.365-3.09l.012-.014c.897-.971 1.916-1.533 3.02-1.611h.002c2.12-.147 3.847.376 5.068 1.591 1.247 1.174 2.23 2.675 2.953 4.485.371.892.659 2.045.873 3.474q.425 2.028.637 4.363.214 2.232.32 4.463c.063 1.26.05 2.331 0 3.321h.991v-22.582h-1.15c-.018.18-.02.362-.065.541l-.008.031a6 6 0 0 1-.319.744c-.114.338-.39.588-.73.758l-.021.012c-.614.263-1.3.158-1.878-.254-.485-.347-.866-.589-1.11-.711l-.024-.012a12.3 12.3 0 0 0-3.587-1.435 8.4 8.4 0 0 0-1.817-.204zm232.474 0c-1.078-.01-2.194.286-1.836.207-4.055 1.399-2.612-.145-5.045 2.606-1.035 1.381-1.75 2.685-2.154 3.898a21 21 0 0 1-.412 1.438 8 8 0 0 0-.098 1.29v41.397a237.902 61.842 0 0 0 5.012-.338v-44.368c.077-1.085.548-2.124 1.366-3.09l.012-.014c.897-.97 1.914-1.533 3.018-1.611h.002c2.12-.147 3.847.376 5.068 1.591 1.247 1.174 2.232 2.675 2.956 4.485.371.893.656 2.045.87 3.474a38 38 0 0 1 .639 4.363q.213 2.232.318 4.463c.063 1.26.05 2.331 0 3.321h.991v-22.582h-1.147c-.019.18-.022.362-.066.54l-.008.032a6 6 0 0 1-.32.744c-.115.338-.39.587-.731.758l-.022.012c-.613.262-1.298.158-1.874-.254-.485-.347-.868-.588-1.114-.711l-.023-.012a12.3 12.3 0 0 0-3.586-1.436 8.4 8.4 0 0 0-1.817-.203zm-157.096.31-.047.001c-.1.004-.348.096-.671.347-1.195.984-2.184 1.794-2.957 2.427q-1.168.957-1.926 1.5c-.496.371-.878.666-1.205.925v.35h.125c.371 0 .645.021.902.144.508.182.897.572 1.068 1.085.08.24.102.5.02.737v23.733a.405.405 0 0 1-.76.194c-.393-.721-.903-1.26-1.545-1.645l-.023-.016a3.55 3.55 0 0 0-2.098-.67h-.422c-1.515 0-2.809.208-3.88.61-1.015.407-1.885.944-2.621 1.613v.002a7 7 0 0 0-1.604 2.103l-.006.012a11.3 11.3 0 0 0-.92 2.146l-.004.012c-.272.818-.404 1.52-.404 2.094v7.712a237.902 61.842 0 0 0 4.8.629v-9.904a.93.93 0 0 1-.105-.446v-.848q0-.387.125-.764c.072-.358.173-.798.31-1.346l.015-.045q.35-.928 1.13-1.816l.018-.02c.583-.583 1.106-.97 1.627-1.148.518-.22.983-.346 1.412-.346 1.12.042 3.658 1.807 3.726 1.623 1.414 2.123 1.223 1.927 1.23 3.227v12.973a237.902 61.842 0 0 0 5.118.562v-46.768c0-.332-.103-.62-.336-.911-.043-.054-.054-.067-.091-.068zm-14.178 36.141q.046.086.117.157l-.117-.287zm9.487-28.624v-.08l-.043.181a1 1 0 0 0 .043-.101m248.76-7.517-.047.001c-.102.004-.349.096-.672.347q-1.793 1.476-2.956 2.427c-.78.638-1.419 1.138-1.925 1.5-.496.371-.88.666-1.207.925v.35h.125c.371 0 .645.021.902.144.508.182.9.571 1.07 1.085.08.24.103.5.02.737v23.733a.405.405 0 0 1-.76.194c-.393-.72-.904-1.26-1.546-1.645l-.024-.016a3.54 3.54 0 0 0-2.096-.67h-.423c-1.516 0-2.807.208-3.88.61q-1.52.61-2.622 1.613v.002a7 7 0 0 0-1.604 2.103l-.006.012a11.3 11.3 0 0 0-.918 2.146l-.004.012c-.272.818-.404 1.52-.404 2.094v3.765a237.902 61.842 0 0 0 4.801-.88v-4.448a.9.9 0 0 1-.107-.446v-.848q0-.391.126-.764c.072-.356.172-.797.31-1.346l.013-.045c.232-.62.614-1.223 1.132-1.816l.018-.02c.583-.583 1.106-.97 1.627-1.148.518-.22.983-.346 1.412-.346 1.12.042 3.656 1.805 3.726 1.623 1.414 2.123 1.223 1.927 1.23 3.227v4.495a237.902 61.842 0 0 0 5.116-1.099v-36.628a1.4 1.4 0 0 0-.334-.912c-.042-.053-.055-.066-.093-.068zm-14.176 36.141q.046.086.117.157l-.117-.287zm9.486-28.624v-.08l-.043.181a1 1 0 0 0 .043-.101m-172.12-7.297v.285c.751.02 1.47.063 2.083.184.434.046.827.246 1.07.586.246.343.34.782.34 1.292v49.56a237.902 61.842 0 0 0 5.225.098v-17.59a.405.405 0 0 1 .404-.403h4.973a.4.4 0 0 1 .111.015c1.093.312 1.793 1.094 1.879 2.147.123.809.167 1.69.184 2.6h.888c-.014-.39-.026-.78-.076-1.128l-.209-1.26a.4.4 0 0 1-.006-.066v-1.145c-.131-.542-.21-1.01-.21-1.394 0-.468.071-1.147.214-2.074l.008-.035a7.5 7.5 0 0 0 .199-1.807l.002-.037c.054-.594.07-.943.082-1.275l-.969-.057v.707a3.9 3.9 0 0 1-.119 1.592 2.9 2.9 0 0 1-.592 1.305c-.308.49-.898.709-1.597.709h-4.762a.405.405 0 0 1-.404-.405v-31.644a.405.405 0 0 1 .404-.405q1.18.001 2.257.11 1.202.108 2.4.434l.028.01c1.304.46 2.307 1.437 2.977 2.849v.001h.001v.001h.001v.001h.001v.001q1.085 2.066 1.516 4.55.534 2.458.641 4.919c.063 1.45.087 2.556.094 3.505a10 10 0 0 0 .896-.054v-16.681zm16.192 29.203-.004-.03.004.057zm14.336-1.323h-.021c-2.496 1.936-1.75 1.597-3.221 2.723-2.941 2.562-1.255 1.048-2.812 2.51v.369h.443c.208 0 .415.054.605.149l.028.013c.417.25.732.608.906 1.043l.01.022c.08.238.125.45.125.658v16.745a237.902 61.842 0 0 0 4.484-.029v-9.308q0-1.406.217-2.711.212-1.277.426-2.244l.004-.02q.318-1.166.638-2.125.443-1.861 1.631-3.697l.002-.002.002-.003a10 10 0 0 1 1.414-1.743l.004-.004c.604-.678 1.304-1.15 2.086-1.385l.037-.008c.403-.08.948-.115 1.668-.115a.4.4 0 0 1 .181.043.5.5 0 0 0 .243.065c.255 0 .495.042.709.148h.001c1.074.365 1.879.845 2.366 1.494.405.472.683.783.703.803a.405.405 0 0 1-.056.619c-1.594 1.108-2.642 2.14-3.157 3.039-.472.948-.691 1.712-.691 2.239 0 1.277.3 2.095.816 2.554.606.539 1.129.851 1.53.967 1.33.33 2.39.198 3.273-.37H276c.925-.619 1.396-1.646 1.4-3.238a53 53 0 0 0-.31-1.853v-.006q-.206-1.23-.727-2.795a.4.4 0 0 1 .078-.392c.442-.516.89-.929 1.352-1.237l.023-.015c.503-.288.937-.505 1.315-.657l.006-.002c.912-.379 2.02-.558 3.325-.558h.211c.149 0 .309.028.45.105h.08a.4.4 0 0 1 .107.014c.85.232 1.674.728 2.48 1.459.927.704 1.415 1.732 1.415 2.953v.444c.075.187.107.394.107.615v5.82a.4.4 0 0 1-.107.275q-1.301 1.412-2.635 2.192c-.78.497-1.868 1.165-3.275 2.01a98 98 0 0 0-3.159 1.998 48 48 0 0 0-2.09 1.462c-.477.41-.884.788-1.222 1.125a16 16 0 0 0-.8 1.099q-.235.381-.432.772a237.902 61.842 0 0 0 4.712-.114q.079-.327.168-.658c.508-1.888 1.32-3.344 2.455-4.328l.014-.01c1.416-1.133 2.584-2.019 3.514-2.663l.011-.008c.951-.61 1.645-1.277 2.1-1.992a.405.405 0 0 1 .455-.172.405.405 0 0 1 .291.39v9.155a237.902 61.842 0 0 0 4.799-.19v-10.767c0-.074-.03-.363-.1-.779a.4.4 0 0 1-.006-.067q0-.711-.104-1.537l-.002-.05q0-.823-.101-1.532c-.07-.483-.142-.824-.196-.984l-.004-.012a11.3 11.3 0 0 0-.92-2.146l-.006-.012a6.35 6.35 0 0 0-1.693-2.092l-.032-.025c-.657-.658-1.521-1.195-2.607-1.602l-.03-.012c-.989-.462-2.234-.705-3.743-.705q-1.64.002-2.95.407l-.021.006a10.7 10.7 0 0 0-1.732.61.4.4 0 0 1-.077.026c-.57.127-1.239.424-1.988.9a.405.405 0 0 1-.488-.117c.066.044.14.074.166.074a.4.4 0 0 1-.195-.157c-.014-.01-.027-.025-.04-.032a.4.4 0 0 1-.064-.11c0 .015.03.059.039.09a2.6 2.6 0 0 1-.557-.437c-.196-.196-.355-.316-.423-.35a.4.4 0 0 1-.106-.074.9.9 0 0 0-.37-.219.4.4 0 0 1-.097-.048 4 4 0 0 1-.496-.397 30 30 0 0 0-1.78-.594h-.146a.4.4 0 0 1-.105-.105h-.318a.4.4 0 0 1-.063-.004 5.66 5.66 0 0 0-2.568.197l-.028.008c-.848.196-1.504.575-2.011 1.145l-.01.01c-1.46 1.528-2.338 2.838-2.659 3.863l-.734 2.94a.405.405 0 0 1-.797-.098v-7.513c0-.398-.126-.697-.412-.983a.4.4 0 0 1-.049-.062c-.053-.08-.067-.093-.085-.093zm9.734.59c.321-.08-.471-.845 0 0m4.145 2.276.013.01-.052-.087a.4.4 0 0 0 .039.077zm11.922 3.794a1 1 0 0 0-.043-.095l.043.181zm-4.082-4.87h-.131l.287.118a.7.7 0 0 0-.156-.117m-19.887 6.005-.006.024.01-.037q-.001.006-.004.013m-59.392-6.997c-1.376.04-2.873.767-3.35 1.465-.772-2.41-5.225 3.207-6.778 4.609h.628a.4.4 0 0 1 .209.057c.418.25.732.61.906 1.044l.01.022c.079.235.127.444.127.656v13.695a237.902 61.842 0 0 0 5.011.314v-16.866a.4.4 0 0 1 .11-.27l.002-.015c.221-1.18.633-2.136 1.26-2.842l.015-.017c.607-.607 1.277-1.004 1.998-1.165l.008-.002c.718-.143 1.26-.22 1.668-.22q.612.002 1.293.232c.494.165.99.478 1.51.924l.02.017.077.079c.03.016.08.018.106.035.086.059.162.125.244.207a.4.4 0 0 1 .037.045c.442.59.75 1.192.91 1.81q.31.833.518 1.35a.4.4 0 0 1 .03.15v17.08a237.902 61.842 0 0 0 4.8.219v-13.807c0-.638-.161-1.32-.495-2.054a.4.4 0 0 1-.019-.055c-.333-1.133-1.011-2.36-2.047-3.672l-.008-.01c-.915-1.242-2.4-2.115-4.517-2.595h-.004c-.309-.062-.779-.1-1.397-.1l-.045-.002a15 15 0 0 0-1.542-.103c-.39-.165-.836-.228-1.295-.215m6.02 3.814-.006-.02.013.046zm-16.148 2.26h-.343v-.455c-.37.921-.174.922.343.455m228.314-5.967c-2.176.111-4.103 1.01-5.835 2.742-1.017 1.017-1.679 2.115-2.011 3.313l-.003.006q-.18.612-.297 1.224a237.902 61.842 0 0 0 2.094-.5 7 7 0 0 1-.044-.242c-.082-.494-.038-1.039.111-1.639a5.1 5.1 0 0 1 .916-1.95l.02-.024c.531-.609 1.213-1.099 2.027-1.471.92-.46 2.072-.675 3.449-.676 1.28-.073 2.448.276 3.435 1.035q1.238.883 2.063 1.86a237.902 61.842 0 0 0 3.637-1.038v-2.34a.4.4 0 0 1-.096-.023.5.5 0 0 0-.242-.064c-.044 0-.08-.023-.123-.025v.045c0 .46-.199.898-.54 1.24-.43.43-1.03.597-1.58.414a.4.4 0 0 1-.081-.038 23 23 0 0 1-.836-.52q-.897-.501-2.123-.81l-.04-.011c-.72-.262-1.707-.437-2.952-.506a9 9 0 0 0-.947-.002zm-243.005.107h-.21c-4.3.736-1.856-.836-5.375 1.62-1.368.918-3.276 4.74-3.545 5.121a22 22 0 0 0-.52 2.525v9.915a237.902 61.842 0 0 0 4.906.47v-14.234q0-.471.118-.938v-.006c.222-1.168.633-2.118 1.255-2.818l.016-.018c.606-.606 1.277-1.004 1.998-1.164l.008-.002c.718-.143 1.26-.22 1.668-.22.458 0 .957.17 1.545.462a3.64 3.64 0 0 1 1.516 1.057l.002.002a7.3 7.3 0 0 1 1.324 2.101c.35.637.58 1.145.666 1.57l.006.044q.105 1.163.212 2.534v.011q.214 1.41.106 2.919v.002a13 13 0 0 1-.545 2.827 6.3 6.3 0 0 1-1.127 2.364l-.02.023a10.6 10.6 0 0 1-2.199 1.87l-.023.013q-1.175.642-2.354 1.178l-1.358.679a237.902 61.842 0 0 0 1.053.092q.264-.08.54-.15a25 25 0 0 1 1.827-.536l.018-.004 1.574-.316c.219-.102.536-.216 1.129-.414.6-.2 1.282-.504 2.035-.914l.004-.002q.524-.313.829-.516c.142-.095.542-.45 1.1-1.01.476-.474 1.043-1.53 1.599-3.126l.004-.01c.596-1.592.607-3.584-.014-6l-.004-.022c-.13-.647-.429-1.386-.907-2.205l-.008-.012a7.8 7.8 0 0 0-1.912-2.314l-.011-.012q-1.1-1.002-2.848-1.723l-.008-.004c-1.067-.466-2.35-.709-3.86-.709zm-.338 19.849-.002.001.031-.008zm-8.792-13.108q.045-.172.095-.344c-.093.24-.133.355-.126.373v.001h.004a.1.1 0 0 0 .027-.03m-55.13-6.74h-.105c-4.3.735-1.856-.837-5.375 1.619-1.369.92-3.278 4.75-3.543 5.123a22 22 0 0 0-.52 2.523v.375a237.902 61.842 0 0 0 4.907.995v-5.22q0-.47.117-.937v-.007c.222-1.168.631-2.118 1.254-2.819l.016-.017c.606-.607 1.276-1.004 1.997-1.164.65-.144 1.163-.223 1.57-.223.426 0 .865.132 1.318.354.577.175 1.142.56 1.722 1.14l.018.02c.525.6.88 1.22 1.04 1.861q.304.814.418 1.37.12.365.122.74v6.699a237.902 61.842 0 0 0 4.8.831v-4.673c0-.638-.16-1.32-.493-2.055l-.02-.05a11.3 11.3 0 0 0-.918-2.147l-.006-.011a6.4 6.4 0 0 0-1.695-2.092l-.031-.025c-.658-.658-1.522-1.195-2.608-1.602l-.008-.004c-.995-.398-2.248-.606-3.763-.606zm-9.023 6.742q.046-.173.096-.346c-.094.24-.133.357-.126.373v.001h.002v.001h.002a.1.1 0 0 0 .026-.03m241.498-6.743h-.105c-4.3.736-1.859-.835-5.377 1.62-1.366.918-3.272 4.735-3.542 5.12q-.34 1.264-.52 2.526v10.007a237.902 61.842 0 0 0 4.905-.496v-13.361q0-.47.118-.937v-.006c.222-1.168.63-2.119 1.253-2.82l.016-.017c.607-.606 1.28-1.003 2-1.163.65-.145 1.16-.223 1.569-.223.424 0 .864.131 1.316.353.578.176 1.142.56 1.723 1.141l.017.02c.525.6.881 1.219 1.042 1.86q.302.815.417 1.37c.078.241.124.49.124.74v11.978a237.902 61.842 0 0 0 4.798-.582v-8.539c0-.638-.158-1.32-.492-2.054l-.02-.05a11.3 11.3 0 0 0-.92-2.147l-.005-.012a6.35 6.35 0 0 0-1.694-2.092l-.03-.025c-.658-.658-1.523-1.195-2.608-1.602l-.008-.004c-.995-.398-2.25-.606-3.766-.606zm-9.024 6.74q.045-.172.095-.343c-.094.24-.133.356-.127.373h.001v.001h.003a.1.1 0 0 0 .028-.03m34.471-6.74h-.105c-4.3.736-1.856-.836-5.375 1.62-1.37.92-3.278 4.75-3.543 5.123a22 22 0 0 0-.52 2.523v7.068a237.902 61.842 0 0 0 4.906-.677V190.94q0-.47.118-.937v-.007c.222-1.168.631-2.118 1.254-2.819l.015-.017c.607-.607 1.277-1.004 1.998-1.164.65-.144 1.163-.223 1.57-.223.426 0 .865.132 1.317.354.578.175 1.142.56 1.723 1.14l.017.02c.526.6.88 1.22 1.04 1.861q.303.813.42 1.37.118.366.12.74v8.483a237.902 61.842 0 0 0 4.801-.78v-4.846c0-.638-.16-1.32-.494-2.055l-.02-.05a11.3 11.3 0 0 0-.917-2.147l-.006-.011a6.4 6.4 0 0 0-1.695-2.092l-.032-.025c-.657-.658-1.52-1.195-2.607-1.602l-.008-.004c-.995-.398-2.248-.606-3.763-.606zm-9.023 6.743q.046-.173.096-.346c-.094.24-.133.357-.126.373v.001h.002v.001h.001a.1.1 0 0 0 .027-.03m-271.259-3.586a3 3 0 0 0-.411.017h-.006c-.41.051-.709.062-1.017.077v.968c.466.053.92.173 1.338.405.393.152.688.486.857.908.161.403.232.891.24 1.478a237.902 61.842 0 0 0 4.906 1.135v-1.033c0-.808.103-1.461.356-1.973.163-.367.504-.62.92-.765.311-.11.735-.13 1.158-.154v-.938h-2.134c-.292 0-.539.056-.758.162l-.014.007c-.57.32-1.273.465-2.088.465-.825 0-1.56-.149-2.191-.465a2.7 2.7 0 0 0-1.156-.295zm232.473 0a3 3 0 0 0-.411.017h-.006c-.409.051-.707.062-1.015.077v.968c.466.053.92.173 1.337.405.394.152.687.486.856.908.17.426.24.949.24 1.58v13.224a237.902 61.842 0 0 0 4.907-.42v-12.804c0-.809.104-1.462.357-1.973.163-.367.505-.62.92-.765.312-.11.735-.13 1.158-.154v-.938h-2.137c-.291 0-.538.056-.757.162l-.014.007c-.57.32-1.27.465-2.086.465-.825 0-1.562-.149-2.193-.465a2.7 2.7 0 0 0-1.155-.295zm-49.928.585a.4.4 0 0 1 .163.036c.677.598.863 3.188.555 2.441.133.601.209 1.005.21 1.297.073.834-.078 1.554-.513 2.076-.443.532-1.144.72-1.877.559-.394-.08-.729-.209-.992-.424a1.37 1.37 0 0 1-.488-.865l-.002-.006q-.113-.89.004-1.6a.4.4 0 0 1 .014-.063c.095-.285.309-.693.658-1.322.396-.792 1.092-1.479 2.054-2.07a.4.4 0 0 1 .214-.06z" style="font-stretch:condensed;font-size:105.833px;font-family:Ayres;-inkscape-font-specification:&quot;Ayres Condensed&quot;;text-align:center;text-anchor:middle;fill:url(#bm);stroke-width:.264583;stroke-linecap:round;stroke-linejoin:round" transform="translate(-51.23 -86.43)scale(1.18908)"/><rect width="508" height="290.491" rx="15.251" ry=".06" style="mix-blend-mode:overlay;fill:url(#bn);stroke-width:1.34887"/></svg>