<svg xmlns="http://www.w3.org/2000/svg" xmlns:xlink="http://www.w3.org/1999/xlink" xml:space="preserve" width="160" height="160" viewBox="0 0 160 160"><defs><linearGradient id="e"><stop offset="0" style="stop-color:#a7e2e0;stop-opacity:1"/><stop offset="1" style="stop-color:#81d8d0;stop-opacity:1"/></linearGradient><linearGradient id="d"><stop offset="0" style="stop-color:#81d8d0;stop-opacity:1"/><stop offset="1" style="stop-color:#82d7d0;stop-opacity:1"/></linearGradient><linearGradient id="c"><stop offset="0" style="stop-color:#71a8a4;stop-opacity:.41189134"/><stop offset="1" style="stop-color:#71a8a4;stop-opacity:0"/></linearGradient><linearGradient id="b"><stop offset="0" style="stop-color:#71a8a4;stop-opacity:1"/><stop offset="1" style="stop-color:#71a8a4;stop-opacity:0"/></linearGradient><linearGradient id="a"><stop offset="0" style="stop-color:#f1f8fc;stop-opacity:1"/><stop offset="1" style="stop-color:#81d8d0;stop-opacity:0"/></linearGradient><linearGradient xlink:href="#a" id="q" x1="80" x2="80" y1="17.979" y2="47.134" gradientUnits="userSpaceOnUse"/><linearGradient xlink:href="#c" id="n" x1="-9.35" x2="65.406" y1="147.477" y2="109.263" gradientTransform="translate(.348)" gradientUnits="userSpaceOnUse"/><linearGradient xlink:href="#c" id="o" x1="-9.35" x2="66.026" y1="147.477" y2="106.472" gradientTransform="matrix(-1 0 0 1 159.652 0)" gradientUnits="userSpaceOnUse"/><linearGradient id="k"><stop offset="0" style="stop-color:#fdea84;stop-opacity:1"/><stop offset="1" style="stop-color:#fef5c5;stop-opacity:0"/></linearGradient><linearGradient id="j"><stop offset="0" style="stop-color:#fcdc5a;stop-opacity:1"/><stop offset="1" style="stop-color:#fcdc5a;stop-opacity:0"/></linearGradient><linearGradient id="i"><stop offset="0" style="stop-color:#fcd948;stop-opacity:1"/><stop offset="1" style="stop-color:#ee9422;stop-opacity:1"/></linearGradient><linearGradient id="h"><stop offset="0" style="stop-color:#ed831e;stop-opacity:1"/><stop offset="1" style="stop-color:#ed831e;stop-opacity:0"/></linearGradient><linearGradient id="g"><stop offset="0" style="stop-color:#f2a858;stop-opacity:1"/><stop offset="1" style="stop-color:#f2a858;stop-opacity:0"/></linearGradient><linearGradient id="f"><stop offset="0" style="stop-color:#fef5c5;stop-opacity:1"/><stop offset="1" style="stop-color:#fcd948;stop-opacity:0"/></linearGradient><linearGradient xlink:href="#f" id="y" x1="80" x2="80" y1="17.979" y2="47.134" gradientTransform="translate(0 -.213)" gradientUnits="userSpaceOnUse"/><linearGradient xlink:href="#j" id="x" x1="83.413" x2="83.413" y1="42.461" y2="114.613" gradientUnits="userSpaceOnUse"/><radialGradient xlink:href="#b" id="m" cx="78.412" cy="-25.756" r="74.093" fx="78.412" fy="-25.756" gradientTransform="matrix(1.35154 0 0 1.00326 -27.217 -.267)" gradientUnits="userSpaceOnUse"/><radialGradient xlink:href="#d" id="p" cx="80" cy="82.504" r="67.133" fx="80" fy="82.504" gradientTransform="matrix(1 0 0 1.01187 0 -.98)" gradientUnits="userSpaceOnUse"/><radialGradient xlink:href="#e" id="l" cx="79.652" cy="81.8" r="74.093" fx="79.652" fy="81.8" gradientTransform="matrix(1 0 0 1.00326 .348 -.267)" gradientUnits="userSpaceOnUse"/><radialGradient xlink:href="#g" id="s" cx="80" cy="26.743" r="74.093" fx="80" fy="26.743" gradientTransform="matrix(1 0 0 1.00326 0 -.266)" gradientUnits="userSpaceOnUse"/><radialGradient xlink:href="#h" id="t" cx="143.48" cy="131.253" r="74.093" fx="143.48" fy="131.253" gradientTransform="matrix(1 0 0 1.00326 0 -.266)" gradientUnits="userSpaceOnUse"/><radialGradient xlink:href="#h" id="z" cx="143.48" cy="131.253" r="74.093" fx="143.48" fy="131.253" gradientTransform="matrix(-1 0 0 1.00326 160 -.266)" gradientUnits="userSpaceOnUse"/><radialGradient xlink:href="#i" id="v" cx="60.394" cy="94.012" r="67.133" fx="60.394" fy="94.012" gradientTransform="rotate(78.03 129.19 136.977)scale(1.0168 2.15816)" gradientUnits="userSpaceOnUse"/><radialGradient xlink:href="#h" id="u" cx="118.382" cy="165.41" r="74.093" fx="118.382" fy="165.41" gradientTransform="matrix(-1 0 0 1.00326 160 -.266)" gradientUnits="userSpaceOnUse"/><radialGradient xlink:href="#h" id="w" cx="118.382" cy="165.41" r="74.093" fx="118.382" fy="165.41" gradientTransform="matrix(1 0 0 1.00326 0 -.266)" gradientUnits="userSpaceOnUse"/><radialGradient xlink:href="#k" id="r" cx="64.676" cy="36.682" r="105.219" fx="64.676" fy="36.682" gradientTransform="matrix(.65826 0 0 .64676 37.427 56.276)" gradientUnits="userSpaceOnUse"/></defs><g style="opacity:1"><path d="M40.66 7.479c-24.838.695-60.083 34.264-7.353 98.31C43.27 117.89 78.454 155.397 80 156.135c1.546-.738 36.73-38.245 46.693-50.346 52.73-64.046 17.485-97.615-7.353-98.31-11.144-.312-23.203 4.837-33.291 17.378-2.969 3.691-4.292 6.076-5.447 7.284a.89.89 0 0 1-.602.254.89.89 0 0 1-.602-.254c-1.155-1.208-2.478-3.593-5.447-7.284C63.863 12.316 51.804 7.167 40.661 7.48" style="display:inline;fill:url(#l);fill-opacity:1;stroke-width:25;stroke-linecap:round;stroke-linejoin:round" transform="translate(1.392 50.548)scale(.67833)"/><path d="M40.66 7.479c-24.838.695-60.083 34.264-7.353 98.31C43.27 117.89 78.454 155.397 80 156.135c1.546-.738 36.73-38.245 46.693-50.346 52.73-64.046 17.485-97.615-7.353-98.31-11.144-.312-23.203 4.837-33.291 17.378-2.969 3.691-4.292 6.076-5.447 7.284a.89.89 0 0 1-.602.254.89.89 0 0 1-.602-.254c-1.155-1.208-2.478-3.593-5.447-7.284C63.863 12.316 51.804 7.167 40.661 7.48" style="display:inline;mix-blend-mode:multiply;fill:url(#m);stroke-width:25;stroke-linecap:round;stroke-linejoin:round" transform="translate(1.392 50.548)scale(.67833)"/><path d="M40.66 7.479c-24.838.695-60.083 34.264-7.353 98.31C43.27 117.89 78.454 155.397 80 156.135c1.546-.738 36.73-38.245 46.693-50.346 52.73-64.046 17.485-97.615-7.353-98.31-11.144-.312-23.203 4.837-33.291 17.378-2.969 3.691-4.292 6.076-5.447 7.284a.89.89 0 0 1-.602.254.89.89 0 0 1-.602-.254c-1.155-1.208-2.478-3.593-5.447-7.284C63.863 12.316 51.804 7.167 40.661 7.48" style="display:inline;mix-blend-mode:multiply;fill:url(#n);stroke-width:25;stroke-linecap:round;stroke-linejoin:round" transform="translate(1.392 50.548)scale(.67833)"/><path d="M119.34 7.479c24.838.695 60.083 34.264 7.353 98.31C116.73 117.89 81.546 155.397 80 156.135c-1.546-.738-36.73-38.245-46.693-50.346-52.73-64.046-17.485-97.615 7.353-98.31 11.144-.312 23.203 4.837 33.291 17.378 2.969 3.691 4.292 6.076 5.447 7.284.153.16.376.244.602.254a.89.89 0 0 0 .602-.254c1.155-1.208 2.478-3.593 5.447-7.284 10.088-12.541 22.147-17.69 33.29-17.378" style="display:inline;mix-blend-mode:multiply;fill:url(#o);stroke-width:25;stroke-linecap:round;stroke-linejoin:round" transform="translate(1.392 50.548)scale(.67833)"/><path d="M42.156 14.576c-27.456.31-47.498 39.392-3.734 91.049 9.156 10.807 40.15 44.152 41.578 44.809 1.428-.657 32.422-34.002 41.578-44.809 43.764-51.657 23.722-90.739-3.734-91.049-10.744-.121-22.624 5.694-32.26 19.016-2.507 3.466-3.962 5.408-5.03 6.482A.83.83 0 0 1 80 40.3a.83.83 0 0 1-.555-.225c-1.067-1.074-2.522-3.016-5.029-6.482C64.78 20.27 52.9 14.455 42.156 14.576" style="display:inline;fill:url(#p);fill-opacity:1;stroke-width:22.6631;stroke-linecap:round;stroke-linejoin:round" transform="translate(1.392 50.548)scale(.67833)"/><path d="M42.156 14.576c-27.456.31-47.498 39.392-3.734 91.049 9.156 10.807 40.15 44.152 41.578 44.809 1.428-.657 32.422-34.002 41.578-44.809 43.764-51.657 23.722-90.739-3.734-91.049-10.744-.121-22.624 5.694-32.26 19.016-2.507 3.466-3.962 5.408-5.03 6.482A.83.83 0 0 1 80 40.3a.83.83 0 0 1-.555-.225c-1.067-1.074-2.522-3.016-5.029-6.482C64.78 20.27 52.9 14.455 42.156 14.576" style="display:inline;fill:url(#q);fill-opacity:1;stroke-width:22.6631;stroke-linecap:round;stroke-linejoin:round" transform="translate(1.392 50.548)scale(.67833)"/></g><g style="opacity:1" transform="translate(85.205 5.537)scale(.43406)"><path d="M40.66 7.266c-24.838.695-60.083 34.264-7.353 98.31C43.27 117.678 78.454 155.185 80 155.922c1.546-.737 36.73-38.244 46.693-50.346 52.73-64.046 17.485-97.615-7.353-98.31-11.144-.312-23.203 4.837-33.291 17.379-2.969 3.69-4.292 6.075-5.447 7.283a.89.89 0 0 1-.602.254.89.89 0 0 1-.602-.254c-1.155-1.208-2.478-3.593-5.447-7.283-10.088-12.542-22.147-17.691-33.29-17.38" style="display:inline;fill:#f7c135;fill-opacity:1;stroke-width:25;stroke-linecap:round;stroke-linejoin:round"/><ellipse cx="80" cy="80" rx="69.261" ry="68.051" style="mix-blend-mode:overlay;fill:url(#r);stroke-width:16.3121;stroke-linecap:round;stroke-linejoin:round"/><path d="M40.66 7.266c-24.838.695-60.083 34.264-7.353 98.31C43.27 117.678 78.454 155.185 80 155.922c1.546-.737 36.73-38.244 46.693-50.346 52.73-64.046 17.485-97.615-7.353-98.31-11.144-.312-23.203 4.837-33.291 17.379-2.969 3.69-4.292 6.075-5.447 7.283a.89.89 0 0 1-.602.254.89.89 0 0 1-.602-.254c-1.155-1.208-2.478-3.593-5.447-7.283-10.088-12.542-22.147-17.691-33.29-17.38" style="display:inline;mix-blend-mode:multiply;fill:url(#s);fill-opacity:1;stroke-width:25;stroke-linecap:round;stroke-linejoin:round"/><path d="M119.34 7.266c24.838.695 60.083 34.264 7.353 98.31-9.963 12.102-45.147 49.609-46.693 50.346-1.546-.737-36.73-38.244-46.693-50.346-52.73-64.046-17.485-97.615 7.353-98.31 11.144-.312 23.203 4.837 33.291 17.379 2.969 3.69 4.292 6.075 5.447 7.283.153.16.376.244.602.254a.89.89 0 0 0 .602-.254c1.155-1.208 2.478-3.593 5.447-7.283 10.088-12.542 22.147-17.691 33.29-17.38" style="display:inline;mix-blend-mode:multiply;fill:url(#t);fill-opacity:1;stroke-width:25;stroke-linecap:round;stroke-linejoin:round"/><path d="M40.66 7.266c-24.838.695-60.083 34.264-7.353 98.31C43.27 117.678 78.454 155.185 80 155.922c1.546-.737 36.73-38.244 46.693-50.346 52.73-64.046 17.485-97.615-7.353-98.31-11.144-.312-23.203 4.837-33.291 17.379-2.969 3.69-4.292 6.075-5.447 7.283a.89.89 0 0 1-.602.254.89.89 0 0 1-.602-.254c-1.155-1.208-2.478-3.593-5.447-7.283-10.088-12.542-22.147-17.691-33.29-17.38" style="display:inline;mix-blend-mode:multiply;fill:url(#u);fill-opacity:1;stroke-width:25;stroke-linecap:round;stroke-linejoin:round"/><path d="M42.156 14.363c-27.456.31-47.498 39.392-3.734 91.05C47.578 116.22 78.572 149.564 80 150.22c1.428-.656 32.422-34.001 41.578-44.809 43.764-51.657 23.722-90.739-3.734-91.049-10.744-.121-22.624 5.695-32.26 19.016-2.507 3.466-3.962 5.408-5.03 6.482a.83.83 0 0 1-.554.225.83.83 0 0 1-.555-.225c-1.067-1.074-2.522-3.016-5.029-6.482C64.78 20.058 52.9 14.242 42.156 14.363" style="display:inline;fill:url(#v);fill-opacity:1;stroke-width:22.6631;stroke-linecap:round;stroke-linejoin:round"/><path d="M119.34 7.266c24.838.695 60.083 34.264 7.353 98.31-9.963 12.102-45.147 49.609-46.693 50.346-1.546-.737-36.73-38.244-46.693-50.346-52.73-64.046-17.485-97.615 7.353-98.31 11.144-.312 23.203 4.837 33.291 17.379 2.969 3.69 4.292 6.075 5.447 7.283.153.16.376.244.602.254a.89.89 0 0 0 .602-.254c1.155-1.208 2.478-3.593 5.447-7.283 10.088-12.542 22.147-17.691 33.29-17.38" style="display:inline;mix-blend-mode:multiply;fill:url(#w);fill-opacity:1;stroke-width:25;stroke-linecap:round;stroke-linejoin:round"/><path d="M42.156 14.363c-27.456.31-47.498 39.392-3.734 91.05C47.578 116.22 78.572 149.564 80 150.22c1.428-.656 32.422-34.001 41.578-44.809 43.764-51.657 23.722-90.739-3.734-91.049-10.744-.121-22.624 5.695-32.26 19.016-2.507 3.466-3.962 5.408-5.03 6.482a.83.83 0 0 1-.554.225.83.83 0 0 1-.555-.225c-1.067-1.074-2.522-3.016-5.029-6.482C64.78 20.058 52.9 14.242 42.156 14.363" style="display:inline;fill:url(#x);fill-opacity:1;stroke-width:22.6631;stroke-linecap:round;stroke-linejoin:round"/><path d="M42.156 14.363c-27.456.31-47.498 39.392-3.734 91.05C47.578 116.22 78.572 149.564 80 150.22c1.428-.656 32.422-34.001 41.578-44.809 43.764-51.657 23.722-90.739-3.734-91.049-10.744-.121-22.624 5.695-32.26 19.016-2.507 3.466-3.962 5.408-5.03 6.482a.83.83 0 0 1-.554.225.83.83 0 0 1-.555-.225c-1.067-1.074-2.522-3.016-5.029-6.482C64.78 20.058 52.9 14.242 42.156 14.363" style="display:inline;fill:url(#y);fill-opacity:1;stroke-width:22.6631;stroke-linecap:round;stroke-linejoin:round"/><path d="M40.66 7.266c-24.838.695-60.083 34.264-7.353 98.31C43.27 117.678 78.454 155.185 80 155.922c1.546-.737 36.73-38.244 46.693-50.346 52.73-64.046 17.485-97.615-7.353-98.31-11.144-.312-23.203 4.837-33.291 17.379-2.969 3.69-4.292 6.075-5.447 7.283a.89.89 0 0 1-.602.254.89.89 0 0 1-.602-.254c-1.155-1.208-2.478-3.593-5.447-7.283-10.088-12.542-22.147-17.691-33.29-17.38" style="display:inline;mix-blend-mode:multiply;fill:url(#z);fill-opacity:1;stroke-width:25;stroke-linecap:round;stroke-linejoin:round"/></g></svg>