<svg xmlns="http://www.w3.org/2000/svg" xmlns:xlink="http://www.w3.org/1999/xlink" xml:space="preserve" width="3600" height="3600"><defs><linearGradient id="i"><stop offset="0" style="stop-color:#cfcfcf;stop-opacity:1"/><stop offset="1" style="stop-color:#cfcfcf;stop-opacity:.4914971"/></linearGradient><linearGradient id="h"><stop offset="0" style="stop-color:#d7d7d7;stop-opacity:1"/><stop offset="1" style="stop-color:#f3f3f3;stop-opacity:1"/></linearGradient><linearGradient id="g"><stop offset="0" style="stop-color:#fff;stop-opacity:1"/><stop offset="1" style="stop-color:#fbe9da;stop-opacity:1"/></linearGradient><linearGradient id="f"><stop offset="0" style="stop-color:#fff;stop-opacity:1"/><stop offset="1" style="stop-color:#fff;stop-opacity:1"/></linearGradient><linearGradient id="e"><stop offset="0" style="stop-color:#f891af;stop-opacity:1"/><stop offset="1" style="stop-color:#f56e96;stop-opacity:1"/></linearGradient><linearGradient id="d"><stop offset="0" style="stop-color:#5b3111;stop-opacity:1"/><stop offset="1" style="stop-color:#4a280e;stop-opacity:1"/></linearGradient><linearGradient id="c"><stop offset="0" style="stop-color:#86e2d1;stop-opacity:1"/><stop offset="1" style="stop-color:#2cb69d;stop-opacity:1"/></linearGradient><linearGradient id="b"><stop offset="0" style="stop-color:#f67da1;stop-opacity:1"/><stop offset="1" style="stop-color:#f4608c;stop-opacity:1"/></linearGradient><linearGradient id="a"><stop offset="0" style="stop-color:#b0624a;stop-opacity:1"/><stop offset=".5" style="stop-color:#95533f;stop-opacity:1"/><stop offset="1" style="stop-color:#7d4635;stop-opacity:1"/></linearGradient><linearGradient xlink:href="#a" id="n" x1="331.395" x2="433.474" y1="214.978" y2="391.785" gradientTransform="translate(-8.231 14.051)scale(1.43132)" gradientUnits="userSpaceOnUse"/><linearGradient xlink:href="#b" id="r" x1="90.65" x2="115.141" y1="464.677" y2="480.082" gradientUnits="userSpaceOnUse"/><linearGradient xlink:href="#b" id="s" x1="90.65" x2="115.141" y1="464.677" y2="480.082" gradientUnits="userSpaceOnUse"/><linearGradient xlink:href="#c" id="q" x1="70.881" x2="63.661" y1="345.849" y2="373.308" gradientUnits="userSpaceOnUse"/><linearGradient xlink:href="#b" id="t" x1="90.65" x2="115.141" y1="464.677" y2="480.082" gradientUnits="userSpaceOnUse"/><linearGradient xlink:href="#c" id="p" x1="70.881" x2="63.661" y1="345.849" y2="373.308" gradientUnits="userSpaceOnUse"/><linearGradient xlink:href="#d" id="u" x1="-67.246" x2="-67.246" y1="584.86" y2="655.417" gradientTransform="matrix(1.03461 0 0 .98161 534.841 -92.473)" gradientUnits="userSpaceOnUse"/><linearGradient xlink:href="#e" id="v" x1="-66.34" x2="-66.34" y1="602.28" y2="641.146" gradientTransform="matrix(1.03461 0 0 .98161 534.841 -92.473)" gradientUnits="userSpaceOnUse"/><linearGradient xlink:href="#f" id="k" x1="-59.378" x2="300.914" y1="637.659" y2="637.659" gradientTransform="translate(1061.47 -1684.652)scale(6.1153)" gradientUnits="userSpaceOnUse"/><linearGradient xlink:href="#g" id="o" x1="334.495" x2="334.495" y1="213.08" y2="254.958" gradientTransform="translate(-8.231 14.051)scale(1.43132)" gradientUnits="userSpaceOnUse"/><linearGradient xlink:href="#h" id="l" x1="-18.477" x2="260.013" y1="637.659" y2="637.659" gradientTransform="translate(1061.47 -1684.652)scale(6.1153)" gradientUnits="userSpaceOnUse"/><linearGradient xlink:href="#i" id="m" x1="529.7" x2="650.333" y1="552.824" y2="552.824" gradientTransform="translate(-48.145 10.621)scale(3.96512)" gradientUnits="userSpaceOnUse"/></defs><g transform="translate(-817.646 -817.646)scale(1.45425)"><ellipse cx="1800" cy="2214.829" rx="1101.648" ry="367.216" style="fill:url(#k);fill-opacity:1;stroke:none;stroke-width:6.93389;stroke-linecap:butt;stroke-linejoin:bevel;stroke-dasharray:none;stroke-opacity:1"/><ellipse cx="1800" cy="2214.829" rx="851.525" ry="283.842" style="fill:url(#l);fill-opacity:1;stroke:none;stroke-width:5.35962;stroke-linecap:butt;stroke-linejoin:bevel;stroke-dasharray:none;stroke-opacity:1"/><path d="M1799.997 1930.987c-236.936 0-463.158 32.907-624.29 90.81-13.475 73.956-16.515 123.405-16.635 125.413-3.867 64.845 9.818 105.298 41.944 141.885 216.811 246.923 1070.095 246.922 1286.906 0 259.54-295.585-545.049-358.108-687.925-358.108" style="fill:url(#m);fill-opacity:1;stroke:none;stroke-width:5.35962;stroke-linecap:butt;stroke-linejoin:bevel;stroke-dasharray:none;stroke-opacity:1"/><path d="M436.677 324.432C304.525 349.406 293.36 530.717 293.243 532.678c-.975 16.354 2.477 26.556 10.579 35.783 54.68 62.274 269.877 62.274 324.557 0 8.102-9.227 11.554-19.43 10.578-35.783-.117-1.961-11.282-183.272-143.433-208.246-19.162-3.62-40.207-3.522-58.847 0" style="display:inline;fill:url(#n);fill-opacity:1;stroke-width:16.6803;stroke-linecap:round" transform="translate(-48.145 10.621)scale(3.96512)"/><path d="M465.905 321.755c-9.987.013-19.908.917-29.228 2.678-42.64 8.058-72.682 32.39-93.824 61.723-.59 2.335-1.013 4.46-1.247 6.354-1.857 15.07 8.332 15.458 17.453 12.658s17.174-8.785 23.265-7.03c6.09 1.754 10.218 11.248 17.237 14.964s16.929 1.653 23.122-3.198 8.67-12.491 12.077-11.356c3.406 1.136 7.739 11.046 14.964 16.517 7.226 5.47 17.343 6.503 25.188 2.787s13.418-12.182 18.372-11.356 9.289 10.944 16.927 13.008c7.639 2.064 18.58-3.924 24.05-10.014s5.47-12.282 9.29-10.217 11.46 12.386 18.272 14.553 12.798-3.82 15.792-8.258 2.994-7.328 4.336-6.399 4.025 5.676 7.419 7.157c3.278 1.43 7.22-.19 10.321-4.3-21.312-36.146-54.033-68.119-104.167-77.593-9.581-1.81-19.633-2.69-29.62-2.678" style="display:inline;fill:url(#o);fill-opacity:1;stroke-width:16.6803;stroke-linecap:round" transform="translate(-48.145 10.621)scale(3.96512)"/><path d="M87.657 387.727c-5.257-5.82-15.03-11.76-19.02-11.499-1.555.102-2.856.867-4.156 1.632-6.65-7.162-11.87-11.029-26.466-9.944l-19.122-18.969c16.564-.38 18.619-1.021 28.684-7.343 9.847 3.96 19.728 5.742 30.213 2.754 4.091 6.463 15.922 16.435 21.876 15.91 1.037 7.35 1.087 7.48 7.267 20.04-.714.433-1.428.867-3.098 2.142s-4.296 3.39-6.922 5.507c-2.187-1.4-7.512-2.439-9.256-.23" style="fill:url(#p);stroke-width:11.3386;stroke-linecap:round" transform="scale(-5.67536 5.67536)rotate(10.628 704.75 -2050.02)"/><path d="M55.19 356.45c3.93.612 7.812 1.22 12.392 2.841s9.875 4.267 15.97 8.365c6.065 4.078 12.937 9.605 19.821 15.149l.463-.356.473-.36c-6.92-5.571-13.963-11.232-20.123-15.374s-11.54-6.835-16.227-8.494c-4.687-1.66-12.77-1.772-12.77-1.772" style="fill:#002807;fill-opacity:1;stroke-width:11.3386;stroke-linecap:round" transform="scale(-5.67536 5.67536)rotate(10.628 704.75 -2050.02)"/><path d="M87.657 387.727c-5.257-5.82-15.03-11.76-19.02-11.499-1.555.102-2.856.867-4.156 1.632-6.65-7.162-11.87-11.029-26.466-9.944l-19.122-18.969c16.564-.38 18.619-1.021 28.684-7.343 9.847 3.96 19.728 5.742 30.213 2.754 4.091 6.463 15.922 16.435 21.876 15.91 1.037 7.35 1.087 7.48 7.267 20.04-.714.433-1.428.867-3.098 2.142s-4.296 3.39-6.922 5.507c-2.187-1.4-7.512-2.439-9.256-.23" style="fill:url(#q);stroke-width:11.3386;stroke-linecap:round" transform="rotate(10.628 5799.736 7716.605)scale(5.67536)"/><path d="M55.19 356.45c3.93.612 7.812 1.22 12.392 2.841s9.875 4.267 15.97 8.365c6.065 4.078 12.937 9.605 19.821 15.149l.463-.356.473-.36c-6.92-5.571-13.963-11.232-20.123-15.374s-11.54-6.835-16.227-8.494c-4.687-1.66-12.77-1.772-12.77-1.772" style="fill:#002807;fill-opacity:1;stroke-width:11.3386;stroke-linecap:round" transform="rotate(10.628 5799.736 7716.605)scale(5.67536)"/><g transform="translate(1114.601 -1339.543)scale(5.67536)"><circle cx="104.721" cy="470.626" r="14.071" style="fill:url(#r);fill-opacity:1;stroke-width:10.028;stroke-linecap:round"/><ellipse cx="-139.012" cy="451.375" rx="2.561" ry="1.649" style="fill:#fcd3df;fill-opacity:1;stroke-width:12.8679;stroke-linecap:round" transform="rotate(-29.204)"/></g><g transform="translate(1205.671 -1339.543)scale(5.67536)"><circle cx="104.721" cy="470.626" r="14.071" style="fill:url(#s);fill-opacity:1;stroke-width:10.028;stroke-linecap:round"/><ellipse cx="-139.012" cy="451.375" rx="2.561" ry="1.649" style="fill:#fcd3df;fill-opacity:1;stroke-width:12.8679;stroke-linecap:round" transform="rotate(-29.204)"/></g><g transform="translate(1296.742 -1339.543)scale(5.67536)"><circle cx="104.721" cy="470.626" r="14.071" style="fill:url(#t);fill-opacity:1;stroke-width:10.028;stroke-linecap:round"/><ellipse cx="-139.012" cy="451.375" rx="2.561" ry="1.649" style="fill:#fcd3df;fill-opacity:1;stroke-width:12.8679;stroke-linecap:round" transform="rotate(-29.204)"/></g><path d="M517.725 458.598c-5.597 5.6-6.483 7.068-5.338 8.845 1.088 1.69 1.767 1.489 7.184-2.13 15.275-10.204 27.12-8.459 28.576-8.193 2.41.44 3.956.088 5.084-1.159 1.663-1.837 1.52-4.751-.32-6.507-2.93-2.796-18.694-7.361-35.186 9.144m-103.249 0c5.597 5.6 6.482 7.068 5.338 8.845-1.089 1.69-1.767 1.489-7.184-2.13-15.275-10.204-27.12-8.459-28.576-8.193-2.411.44-3.956.088-5.084-1.159-1.663-1.837-1.52-4.751.32-6.507 2.93-2.796 18.694-7.361 35.186 9.144" style="fill:#4a280e;fill-opacity:1;stroke-width:.328942" transform="translate(-48.145 10.621)scale(3.96512)"/><path d="M434.947 481.632c-.595-.005-1.277.428-2.474 1.294-4.256 3.08-8.613 10.126-10.277 16.62-5.924 23.128 22.083 37.305 43.071 37.348 20.99-.043 48.996-14.22 43.071-37.348-1.663-6.494-6.02-13.54-10.276-16.62-1.197-.866-1.879-1.299-2.474-1.294s-1.103.444-1.963 1.325c-6.825 6.998-21.273 7.083-27.793 4.52a1.6 1.6 0 0 0-.565-.092c-.203 0-.407.03-.564.093-6.52 2.562-20.968 2.477-27.794-4.52-.86-.882-1.367-1.321-1.962-1.326" style="display:inline;fill:url(#u);fill-opacity:1;stroke-width:.558167" transform="translate(-48.145 10.621)scale(3.96512)"/><path d="M466.204 507.094a31.86 16.313 0 0 0-31.858 16.312 31.86 16.313 0 0 0 1.52 4.982c8.635 5.483 19.76 8.486 29.401 8.506 10.742-.022 23.32-3.746 32.25-10.477a31.86 16.313 0 0 0 .548-3.011 31.86 16.313 0 0 0-31.861-16.312" style="display:inline;fill:url(#v);fill-opacity:1;stroke-width:.558167" transform="translate(-48.145 10.621)scale(3.96512)"/><g transform="translate(1114.601 -1334.21)scale(5.67536)"><circle cx="15.541" cy="616.004" r="5.041" style="fill:#703928;fill-opacity:1;stroke-width:8.30231;stroke-linecap:round"/><circle cx="21.508" cy="630.996" r="3.664" style="fill:#703928;fill-opacity:1;stroke-width:6.03459;stroke-linecap:round"/><ellipse cx="52.019" cy="617.826" rx="5.353" ry="5.237" style="fill:#5d2f21;fill-opacity:1;stroke:none;stroke-width:.992618;stroke-linecap:butt;stroke-linejoin:bevel;stroke-dasharray:none;stroke-opacity:1"/><ellipse cx="44.106" cy="585.242" rx="5.353" ry="5.237" style="fill:#5d2f21;fill-opacity:1;stroke:none;stroke-width:.992618;stroke-linecap:butt;stroke-linejoin:bevel;stroke-dasharray:none;stroke-opacity:1"/></g><g transform="matrix(-5.67536 0 0 5.67536 2485.399 -1334.21)"><circle cx="15.541" cy="616.004" r="5.041" style="fill:#703928;fill-opacity:1;stroke-width:8.30231;stroke-linecap:round"/><circle cx="21.508" cy="630.996" r="3.664" style="fill:#703928;fill-opacity:1;stroke-width:6.03459;stroke-linecap:round"/><ellipse cx="52.019" cy="617.826" rx="5.353" ry="5.237" style="fill:#5d2f21;fill-opacity:1;stroke:none;stroke-width:.992618;stroke-linecap:butt;stroke-linejoin:bevel;stroke-dasharray:none;stroke-opacity:1"/><ellipse cx="44.106" cy="585.242" rx="5.353" ry="5.237" style="fill:#5d2f21;fill-opacity:1;stroke:none;stroke-width:.992618;stroke-linecap:butt;stroke-linejoin:bevel;stroke-dasharray:none;stroke-opacity:1"/></g></g></svg>