<svg xmlns="http://www.w3.org/2000/svg" xml:space="preserve" width="3000" height="3600" viewBox="0 0 3000 3600"><rect width="3000" height="3600" rx="50.957" ry="1.526" style="opacity:1;fill:#fc1aa2;fill-opacity:1;stroke-width:5.66929;stroke-linecap:round;stroke-linejoin:round"/><rect width="2846.286" height="3415.544" x="76.857" y="92.228" rx="48.346" ry="1.448" style="opacity:1;fill:#fe8dd1;fill-opacity:1;stroke-width:5.37881;stroke-linecap:round;stroke-linejoin:round"/><path d="M2065.429 1535.815c30.18-42.935 27.94-69.679-29.637-84.634-6.063-1.429-9.548-2.24-11.47.111-1.922 2.35-2.281 7.863-3.433 12.53-1.152 4.668-3.096 8.493-4.232 11.149-1.135 2.655-1.463 4.143 1.162 8.531 5.332 8.913 9.101 11.259 31.687 47.347 4.436 7.09 6.573 10.62 8.315 11.797s3.089 0 7.608-6.83" style="fill:#f7ec27;fill-opacity:1;stroke-width:14.2334;stroke-linecap:round;stroke-linejoin:round" transform="translate(-308.773 -451.456)scale(1.24588)"/><path d="M2207.85 1603.592c18.854 5.533 35.85 20.504 34.93 41.225-1.641 21.086-24.43 37.813-41.141 23.307-18.181-15.781 2.226-64.882 6.211-64.532" style="fill:#009fd9;fill-opacity:1;stroke-width:14.062;stroke-linecap:round;stroke-linejoin:round" transform="translate(-308.773 -451.456)scale(1.24588)"/><path d="M2433.12 1458.026c18.523 5.43 36.675 33.494 29.24 50.184-2.31 5.188-16.205 23.578-22.994 19.775-10.893-8.693-20.954-18.499-31.423-27.739-5.336-4.705-8.136-7.129-8.045-10.047s3.073-6.33 7.308-11.748c4.236-5.418 9.725-12.84 13.986-16.932s7.297-4.85 11.928-3.493z" style="fill:#fe15a6;fill-opacity:1;stroke-width:13.6653;stroke-linecap:round;stroke-linejoin:round" transform="translate(-308.773 -451.456)scale(1.24588)"/><g transform="translate(-308.773 -451.456)scale(1.24588)"><path d="M734.812 2506.22c-7.26 2.499-14.137 7.933-19.333 17.75-8.098 14.98-9.89 30.385 1.039 43.303 1.031 1.22 2.066 2.4 2.982 3.643 8.9 11.086-18.745 7.157-28.295-5.422-1.77-2.33-2.39-4.412-3.891-6.644-5.146-7.647-12.98-6.886-17.559-3.92-14.238 9.228 1.104 28.701 2.703 30.346 21.44 22.044 58.122 23.474 78.598 11.225 3.386-2.025 5.245-3.772 6.754-4.7 1.51-.928 2.672-1.04 4.016-.727 20.794 6.58 73.229-2.387 64.632-23.915-2.303-5.766-8.361-5.631-15.078-3.84-6.716 1.79-14.09 5.238-19.023 6.086-3.455.594-7.022.68-10.731 1.037-3.298.317-4.892.569-5.914.339s-1.473-.934-.424-3.303c18.216-29.303 2.408-60.798-27.277-62.894-4.349-.307-8.844.136-13.2 1.636m9.216 26.52c4.134-1.425 8.449.751 11.31 4.91 6.372 9.267 2.304 21.943-2.31 25.707-1.556 1.27-3.286 1.668-6.321.282-9.697-4.426-12.324-11.013-11.768-16.955.557-5.943 4.298-11.243 7.334-13.107a9 9 0 0 1 1.755-.837M1478.012 2148.39c2.051-5.387 3.677-11.63 2.927-16.924-1.601-11.306-21.903-21.773-28.805 5.761-6.67 26.609 3.027 45.647-3.567 54.861-.432.604-62.872 52.419-102.12 107.181-12.492 17.43 2.244 24.967 12.718 17.925 9.484-6.377 64.41-55.006 108.274-103.89 4.743-5.287 10.703-6.213 17.022-5.71 6.319.502 12.997 2.432 19.178 2.86 27.527 1.902 25.529-22.531 4.875-23.8-11.165-.687-9.847-3.368-4.869-6.33 4.978-2.96 13.614-6.201 17.086-8.006 11.672-6.07 23.585-18.486 7.162-25.395-2.558-.81-5.126-1.131-8.657-.483-10.554 1.937-37.06 18.327-42.697 23.424-2.393 1.463-3.567 1.298-4.077.318s-.356-2.775-.093-4.57c.333-2.276 4.339-13.792 5.644-17.221z" style="fill:#feb0df;fill-opacity:1;stroke-width:15.5316;stroke-linecap:round;stroke-linejoin:round"/><path d="M408.233 783.27c-10.766 10.674-21.58 21.305-32.292 32.034-3.87 3.887-5.3 5.454-7.055 6.325-5.067 2.519-11.131-1.613-5.604-8.63 3.794-4.818 15.38-15.18 31.79-33.883 3.945-4.496 5.389-6.198 8.708-8.533 7.568-5.326 13.01.773 11.794 4.387-.699 2.076-3.185 4.274-7.34 8.3" style="fill:#feb0df;fill-opacity:1;stroke-width:5.66929;stroke-linecap:round;stroke-linejoin:round" transform="rotate(-16.65 2816.96 2820.488)scale(2.7396)"/><path d="M380.831 865.888c-.134 6.293-2.923 10.308-6.227 10.763-3.303.455-7.12-2.65-9.312-10.6-1.407-5.106-2.495-12.231-3.35-20.425-.854-8.195-1.475-17.458-1.947-26.84-.28-5.273 7.945-9.998 10.293-.757 2.253 8.867 4.047 15.86 5.47 21.467 4.251 16.761 5.184 21.182 5.073 26.392" style="fill:#020202;fill-opacity:1;stroke-width:5.87264;stroke-linecap:round;stroke-linejoin:round" transform="rotate(-16.65 2816.96 2820.488)scale(2.7396)"/><path d="M506.996 795.849c-.75 15.143-1.566 30.284-2.24 45.431-.235 5.48-.235 7.602-.942 9.428-2.043 5.277-9.307 6.316-9.959-2.592-.447-6.117 1.12-21.581.622-46.458-.12-5.98-.201-8.21.675-12.173 1.996-9.036 10.127-8.203 11.667-4.714.884 2.003.53 5.303.177 11.078" style="opacity:1;fill:#feb0df;fill-opacity:1;stroke-width:5.66929;stroke-linecap:round;stroke-linejoin:round" transform="rotate(-16.65 2825.611 2859.786)scale(2.7396)"/><path d="M541.83 874.844c4.162 4.722 4.829 9.565 2.706 12.137-2.122 2.571-7.035 2.871-14.03-1.495-4.493-2.804-10.118-7.31-16.296-12.762-6.177-5.451-12.906-11.848-19.606-18.431-3.777-3.692-.924-12.738 7.061-7.527 7.662 5 13.717 8.93 18.561 12.093 14.478 9.455 18.159 12.077 21.604 15.985" style="fill:#020202;fill-opacity:1;stroke-width:5.87264;stroke-linecap:round;stroke-linejoin:round" transform="rotate(-16.65 2825.611 2859.786)scale(2.7396)"/><path d="M419.355 624.95c-18.665 8.483-41.645 47.18-45.633 54.077-13.907 24.05-25.778 54.583-26.946 58.102-.975 2.94-1.197 4.16-.586 5.147 1.083 1.75 5.376 2.925 8.294 3.813 72.225 20.188 145.125 40.246 219.399 51.628 1.96.133 3.113-.095 3.85-.525.738-.429 1.06-1.06 1.359-1.731 1.064-5.94 1.666-11.994 2.08-18.058 5.016-73.513-5.368-105.488-20.082-127.942-29.406-33.453-100.111-42.322-141.735-24.512" style="opacity:1;fill:#e33641;fill-opacity:1;stroke-width:5.66929;stroke-linecap:round;stroke-linejoin:round" transform="rotate(-16.65 2352.147 2952.656)scale(2.75417 2.9862)"/><path d="M572.05 782.532c-.06 1.482-.246 2.525-.844 3.118-.599.592-1.608.735-3.31.417-113.616-21.204-165.293-39.187-207.242-50.322-3.918-1.04-3.467-2.78-2.622-4.803 4.792-11.467 36.247-84.08 71.8-102.56 45.424-22.62 100.604-2.185 112.077 10.253 16.044 17.395 24.02 42.265 27.764 68.339s3.257 53.35 2.376 75.558" style="opacity:1;fill:#ea575f;fill-opacity:1;stroke-width:5.66929;stroke-linecap:round;stroke-linejoin:round" transform="rotate(-16.65 2352.147 2952.656)scale(2.75417 2.9862)"/><path d="M1202.542 1625.113c-45.646 15.615-104.586 39.8-138.108 57.15-18.353 9.5-32.559 17.792-56.5 28.677a3220 3220 0 0 1-4.65 5.462c-22.95 26.906-53.01 61.316-84.278 96.13s-63.739 70.022-91.553 98.546c-7.382 7.57-14.39 14.65-20.963 21.131-34.24 97.846-1.844 189.74 16.021 225.628 84.067 168.872 287.742 174.897 422.19 56.388 150.394-132.564 46.22-263.235 20.75-291.08-9.087 4.514-17.018 6.768-23.094 6.182-11.285-1.09-5.661-10.12-4.594-11.327 2.622-2.96 7.907-5.506 14.258-9.34l.072-.04c-2.388-3.249-4.295-6.777-4.29-9.769 0-2.024.838-3.495 2.105-4.5 6.585-4.119 12.369-.108 17.136 4.503 33.554-24.952 73.324-72.824 99.66-113.123-11.881 8.853-26.202 12.231-41.412 11.062-38.983-2.997-83.806-35.866-108.35-82.975-19.623-37.662-21.573-72.014-14.4-88.705z" style="fill:#feb0df;stroke-width:15.5316;stroke-linecap:round;stroke-linejoin:round"/><path d="M1035.124 1647.83c7.543 2.813 6.845 7.943 3.925 12.917-10.942 18.643-230.605 271.883-279.915 302.98-4.532 2.857-6.67 3.958-9.641.592-8.946-10.138-174.912-358.757-193.956-444.195-1.915-8.592-2.78-19.702-2.78-19.702 157.515 50.807 326.79 89.403 482.367 147.409" style="baseline-shift:baseline;display:inline;overflow:visible;vector-effect:none;fill:#ff3131;stroke-width:2.73961;stroke-linecap:round;stroke-linejoin:round;stop-color:#000"/><circle cx="282.352" cy="1890.776" r="54.066" style="fill:#fbee04;fill-opacity:1;stroke:none;stroke-width:8.62834;stroke-linecap:round;stroke-linejoin:round;stroke-dasharray:none;stroke-opacity:1;paint-order:normal" transform="rotate(-16.65)"/><path d="M548.151 1494.588a7.43 7.43 0 0 0-2.802 6.412c2.357 30.3 17.8 70.814 40.394 125.963 18.432 44.992 41.27 96.959 63.79 146.567 22.52 49.607 44.723 96.846 61.868 132.352 8.573 17.753 15.879 32.57 21.35 43.316 2.735 5.373 5.008 9.72 6.78 12.962s2.221 4.618 4.39 7.076c2.336 2.647 6.946 5.037 10.866 4.474 3.92-.564 5.962-2.217 8.31-3.698 14.071-8.873 36.542-30.41 64.356-58.934s60.285-63.732 91.553-98.546 61.327-69.224 84.279-96.13c11.475-13.453 21.169-25.026 28.374-33.864 7.206-8.838 11.543-14.184 13.799-18.028 1.893-3.226 3.777-7.243 2.866-12.34-.912-5.097-5.374-9.351-10.601-11.3-156.219-58.245-325.601-96.854-482.682-147.521a7.43 7.43 0 0 0-6.89 1.24m13.569 16.31c154.752 49.208 319.497 87.482 470.807 143.897 2.316.863 1.275.576 1.17-.01 0-.014-.023.058-.025.047-.095-.505-.028.44-1.032 2.151-.48.817-5.402 7.463-12.496 16.164s-16.738 20.216-28.165 33.612c-22.854 26.792-52.85 61.13-84.03 95.843-31.178 34.714-63.551 69.81-91.134 98.097s-51.06 50.07-61.643 56.744c-.79.497-.414.31-.905.56-.345-.586-.575-.916-1.698-2.97-1.652-3.021-3.88-7.281-6.577-12.577-5.392-10.593-12.666-25.343-21.209-43.034-17.084-35.381-39.248-82.54-61.717-132.034s-45.25-101.336-63.57-146.057c-26.132-63.783-35.607-93.757-37.776-110.433z" style="baseline-shift:baseline;display:inline;overflow:visible;vector-effect:none;fill:#ca2932;stroke-width:2.73961;stroke-linecap:round;stroke-linejoin:round;stop-color:#000"/><path d="M548.364 1465.868c6.551-56.405 41.046-57.424 37.92-41.817-2.741 13.678-20.992 30.529-24.11 49.197-2.622 23.608 5.932 41.339-25.327 39.078-10.703-.849-24.916-2.489-43.756 1.128-10.137 1.947-26.49 11.767-33.722.555-3.687-8.567 1.18-14.209 8.732-17.08 20.642-7.845 43.67-4.493 49.27-6.525.555-.771-.21-2.114-3.044-4.109-14.66-10.065-31.83-14.109-49.125-16.87-39.677-6.935-26.994-27.05-4.601-24.592 10.977 1.204 27.998 6.244 55.184 17.626 2.695 1.129 3.927 1.607 4.11 1.008-3.525-10.05-23.61-71.337 3.055-64.282 3.959 1.693 7.814 6.942 8.384 20.21.402 9.359.642 23.004 7.41 45.63.596 1.995 6.683 20.178 9.62.844z" style="fill:#ca2932;fill-opacity:1;stroke:none;stroke-width:15.5316;stroke-linecap:round;stroke-linejoin:round;stroke-dasharray:none;stroke-opacity:1;paint-order:normal"/><path d="M1269.422 1901.26c171.43 181.535 17.45 365.3-161.1 407.247-90.195 21.189-189.265 5.79-262.043-74.915-55.901-61.99-79.434-147.685-74.237-219.625 4.062-45.179 9.516-93.863 43.304-127.273 6.315-4.446 4.885 9.08 1.784 19.584-50.692 107.172-14.056 212.516 5.38 251.561 84.067 168.873 287.742 174.893 422.19 56.385 155.29-136.88 39.17-271.74 18.527-293.468-1.665-1.752-3.24-3.292-4.754-4.817-3.997-4.026-10.678-11.491-10.67-17.087 0-2.023.837-3.496 2.104-4.5 7.723-4.83 14.344 1.52 19.515 6.907" style="fill:#ec8fc5;fill-opacity:1;stroke:none;stroke-width:15.5316;stroke-linecap:round;stroke-linejoin:round;stroke-dasharray:none;stroke-opacity:1;paint-order:normal"/><path d="M805.355 1847.74a54.066 54.066 0 0 0-36.306 67.29 54.1 54.1 0 0 0 11.861 20.948c10.375-9.628 22.667-21.703 35.905-35.279 12.445-12.762 25.866-26.91 39.711-41.784a54.07 54.07 0 0 0-51.171-11.174M965.824 1672.98a54.066 54.066 0 0 0-36.31 67.295 54.07 54.07 0 0 0 13.61 22.777c18.06-20.505 34.807-39.824 48.855-56.292a2470 2470 0 0 0 21.458-25.469 54.07 54.07 0 0 0-47.613-8.312M626.273 1659.605a54 54 0 0 0-9.188 3.697c13.655 31.96 28.642 65.805 43.568 98.764a54.066 54.066 0 0 0 32.91-66.15 54.066 54.066 0 0 0-67.29-36.311M646.769 1536.766a54 54 0 0 0 2.245 17.01 54.066 54.066 0 0 0 67.289 36.306 54.07 54.07 0 0 0 31.15-24.452c-33.67-9.552-67.306-19.08-100.684-28.864M802.748 1581.385a54.1 54.1 0 0 0 2.162 18.879 54.066 54.066 0 0 0 67.289 36.305 54.07 54.07 0 0 0 31.59-25.22c-33.441-10.35-67.196-20.247-101.04-29.964M561.734 1511.023c1.938 14.71 9.534 39.727 29.133 88.968a54.07 54.07 0 0 0 12.96-45.479 54.07 54.07 0 0 0-33.139-40.778q-3.859-1.213-7.71-2.436a54 54 0 0 0-1.244-.275" style="fill:#fbee04;fill-opacity:1;stroke:none;stroke-width:8.62834;stroke-linecap:round;stroke-linejoin:round;stroke-dasharray:none;stroke-opacity:1;paint-order:normal"/><path d="M1392.232 1665.275c12.707 42.484 1.704 103.25-40.78 115.956s-107.225-22.504-119.932-64.988c-12.706-42.484-33.635-98.416 8.85-111.123 42.484-12.706 139.156 17.67 151.862 60.155" style="fill:#feb0df;stroke-width:15.5316;stroke-linecap:round;stroke-linejoin:round"/><path d="M1248.06 1587.446a124 124 0 0 0-16.985 5.677c-6.547 2.984-9.64 5.792-12.31 7.446-8.086 5.008-101.534 31.701-153.585 58.59-31.877 15.211-60.817 26.357-77.556 60.62 37.317-15.6 53.804-25.608 76.81-37.515 33.522-17.35 92.462-41.535 138.108-57.15-7.173 16.691-5.222 51.043 14.4 88.705 24.544 47.108 69.368 79.977 108.35 82.975 15.21 1.169 29.53-2.21 41.411-11.062-30.4 46.52-78.704 103.13-114.682 122.928-6.351 3.834-11.636 6.38-14.258 9.34-1.067 1.206-6.692 10.237 4.594 11.327 13.508 1.304 36.194-11.44 60.339-31.808 70.893-59.802 111.767-146.75 115.196-174.111 8.42-83.603-84.268-157.819-169.833-135.962m-15.664 28.169c8.857-2.543 16.434-4.388 22.199-5.327 108.36-20.448 148.608 73.246 138.869 111.8-10.87 43.025-36.69 55.535-64.26 52.353-27.568-3.182-56.884-22.057-74.743-41.802-25.413-29.851-57.14-82.94-22.065-117.024" style="fill:#ec8fc5;fill-opacity:1;stroke:none;stroke-width:15.5316;stroke-linecap:round;stroke-linejoin:round;stroke-dasharray:none;stroke-opacity:1;paint-order:normal"/><path d="M1346.255 1689.154c-5.142 4.028-12.95 4.317-18.829.896-6.884-4.006-9.57-10.943-9.443-17.527.197-10.224 6.51-16.693 13.656-17.873 17.429-2.879 26.406 25.269 14.616 34.504" style="fill:#c97ca3;fill-opacity:1;stroke:none;stroke-width:15.5316;stroke-linecap:round;stroke-linejoin:round;stroke-dasharray:none;stroke-opacity:1;paint-order:normal"/><path d="M548.151 1494.588a7.43 7.43 0 0 0-2.802 6.412c2.357 30.3 17.8 70.814 40.394 125.963 18.432 44.992 41.27 96.959 63.79 146.567 22.52 49.607 44.723 96.846 61.868 132.352 8.573 17.753 15.879 32.57 21.35 43.316 2.735 5.373 5.008 9.72 6.78 12.962s2.221 4.618 4.39 7.076c2.336 2.647 6.946 5.037 10.866 4.474 3.92-.564 5.962-2.217 8.31-3.698 14.071-8.873 36.542-30.41 64.356-58.934s60.285-63.732 91.553-98.546 61.327-69.224 84.279-96.13c11.475-13.453 21.169-25.026 28.374-33.864 7.206-8.838 11.543-14.184 13.799-18.028 1.893-3.226 3.777-7.243 2.866-12.34-.912-5.097-5.374-9.351-10.601-11.3-156.219-58.245-325.601-96.854-482.682-147.521a7.43 7.43 0 0 0-6.89 1.24m13.569 16.31c154.752 49.208 319.497 87.482 470.807 143.897 2.316.863 1.275.576 1.17-.01 0-.014-.023.058-.025.047-.095-.505-.028.44-1.032 2.151-.48.817-5.402 7.463-12.496 16.164s-16.738 20.216-28.165 33.612c-22.854 26.792-52.85 61.13-84.03 95.843-31.178 34.714-63.551 69.81-91.134 98.097s-51.06 50.07-61.643 56.744c-.79.497-.414.31-.905.56-.345-.586-.575-.916-1.698-2.97-1.652-3.021-3.88-7.281-6.577-12.577-5.392-10.593-12.666-25.343-21.209-43.034-17.084-35.381-39.248-82.54-61.717-132.034s-45.25-101.336-63.57-146.057c-26.132-63.783-35.607-93.757-37.776-110.433z" style="baseline-shift:baseline;display:inline;overflow:visible;vector-effect:none;fill:#ca2932;stroke-width:2.73961;stroke-linecap:round;stroke-linejoin:round;stop-color:#000"/><path d="M1294.066 1714.51c-5.142 4.029-12.95 4.318-18.828.898-6.885-4.007-9.57-10.944-9.444-17.528.197-10.224 6.51-16.693 13.656-17.873 17.429-2.879 26.406 25.269 14.616 34.504" style="fill:#c97ca3;fill-opacity:1;stroke:none;stroke-width:15.5316;stroke-linecap:round;stroke-linejoin:round;stroke-dasharray:none;stroke-opacity:1;paint-order:normal"/><path d="M890.495 2133.166c-36.153-17.338-65.275-59.119-53.396-103.854 11.457-43.147 56.698-53.987 95.077-40.988 52.13 17.656 65.639 65.342 54.15 102.876s-47.974 64.916-95.83 41.966" style="fill:#ff8dd1;fill-opacity:1;stroke-width:15.5316;stroke-linecap:round;stroke-linejoin:round"/><path d="M1237.332 2007.46c-.586-3.22-1.128-5.754-.993-7.466.184-2.324 3.082-5.432 6.468-6.263 3.387-.832 7.261.613 9.397 7.395 16.445 52.205-15.015 100.983-60.645 126.093-43.051 23.69-82.827 20.078-110.327 8.765-13.75-5.656-24.43-13.237-30.916-20.294-16.668-18.133 1.378-22.163 4.486-21.83 2.785.3 4.857 2.294 8.846 5.064 34.128 23.7 65.087 26.736 89.789 21.862 47.758-9.423 94.825-53.248 83.895-113.325" style="fill:#d64790;fill-opacity:1;stroke-width:15.5316;stroke-linecap:round;stroke-linejoin:round"/><path d="M1154.528 1767.889c-8.684 20.476-28.594 36.882-52.875 39.423-28.288 2.96-49.279-19.6-54.849-45.842-6.197-29.194 7.437-52.15 27.514-63.448 47.138-26.525 101.374 19.96 80.21 69.867" style="fill:#ed90c6;fill-opacity:1;stroke-width:15.5316;stroke-linecap:round;stroke-linejoin:round"/><path d="M1062.697 1751.482c-1.412-40.864 45.032-48.977 67.135-26.284 25.269 25.946-9.388 69.636-42.132 60.695-13.587-3.71-24.361-15.85-25.003-34.41" style="fill:#fff;fill-opacity:1;stroke-width:15.5316;stroke-linecap:round;stroke-linejoin:round"/><path d="M1103.845 1771.252c-4.082 3.922-10.153 5.591-16.226 3.396-9.033-3.266-14.348-11.353-14.531-18.783-.418-16.916 26.404-21.06 34.028-4.016 2.847 6.365 2.187 14.159-3.271 19.403" style="fill:#020202;fill-opacity:1;stroke-width:15.5316;stroke-linecap:round;stroke-linejoin:round"/><path d="M961.76 1894.159c-37.465-20.538-34.598-66.002-14.923-95.252 19.676-29.25 56.161-42.288 85.934 2.026 20.67 30.764 14.77 60.569-2.223 79.433s-45.08 26.789-68.787 13.793" style="fill:#ed90c6;fill-opacity:1;stroke-width:15.5316;stroke-linecap:round;stroke-linejoin:round"/><path d="M1017.646 1867.57c-7.029 8.677-19.73 14.344-32.614 13.237-35.721-3.07-49.017-53.414-19.984-78.177 16.601-14.16 38.145-8.287 51.342 6.306s18.045 37.908 1.256 58.634" style="fill:#fff;fill-opacity:1;stroke-width:15.5316;stroke-linecap:round;stroke-linejoin:round"/><path d="M991.723 1853.139c-4.082 3.922-10.154 5.592-16.226 3.396-9.033-3.266-14.348-11.353-14.532-18.783-.417-16.915 26.404-21.06 34.029-4.015 2.847 6.364 2.187 14.158-3.271 19.402" style="fill:#020202;fill-opacity:1;stroke-width:15.5316;stroke-linecap:round;stroke-linejoin:round"/><path d="M710.095 2192.038c-2.6-5.146-4.865-11.186-4.67-16.529.418-11.412 19.522-23.932 29.249 2.736 9.399 25.771 1.732 45.714 9.249 54.194.492.555 67.979 45.6 112.706 95.987 14.236 16.038.363 25.064-10.786 19.149-10.095-5.356-69.779-48.014-118.485-92.075-5.267-4.765-11.29-5.066-17.523-3.91s-12.674 3.77-18.777 4.838c-27.18 4.753-27.732-19.756-7.322-23.165 11.033-1.843 9.443-4.373 4.184-6.8-5.258-2.428-14.185-4.753-17.825-6.188-12.24-4.824-25.38-15.935-9.763-24.513 2.46-1.072 4.98-1.658 8.56-1.38 10.698.83 38.765 14.375 44.9 18.86 2.532 1.206 3.683.92 4.088-.108s.066-2.797-.382-4.555c-.568-2.229-5.748-13.266-7.403-16.541" style="fill:#feb0df;fill-opacity:1;stroke-width:15.5316;stroke-linecap:round;stroke-linejoin:round"/></g><path d="M1592.728 1676.142c2.417 40.563-10.283 75.58-28.528 118.983-14.123 34.617-28.763 68.917-44.472 102.858-11.711 26.94-20.509 55.514-26.25 84.349-5.725 29.865-6.879 58.357-4.295 87.893 5.958 68.083-5.19 72.168-8.672 122.063-2.275 32.604-.813 58.697 3.51 83.246 4.204 26.58 13.37 51.963 20.615 77.8 5.124 18.275 12.968 36.926 21.78 57.274.905 2.09 33.603 77.628 41.095 104.936.35 1.276-.105 3.218-1.322 3.699-1.098.433-2.562.504-4.112-.812-1.538-1.305-2.68-4.477-3.261-6.42-13.968-46.665-35.449-90.583-52.104-136.276-3.074-8.727-5.017-15.223-7.823-24.746-20.24-53.938-27.556-109.125-22.729-166.419 1.469-28.345 9.35-43.13 10.39-72.023 1.622-45.081-12.153-52.564 1.263-127.046 11.398-70.238 47.503-132.266 73.81-197.44 30.757-78.484 26.016-109.737 28.277-118.276.593-2.242 1.784-2.766 2.313-2.124s.396 2.45.33 3.355-.066.905.185 5.126" style="fill:#91c9bd;fill-opacity:1;stroke-width:15.5316;stroke-linecap:round;stroke-linejoin:round" transform="translate(-308.773 -451.456)scale(1.24588)"/><path d="M1927.008 1784.074c-22.458 33.865-53.66 54.209-94.337 77.92-32.098 19.17-64.42 37.774-97.38 55.448-25.555 14.484-49.766 32.027-71.69 51.616-22.533 20.421-40.586 42.494-56.28 67.648-36.176 57.984-47.54 54.544-80.322 92.32-21.422 24.684-35.943 46.412-47.249 68.628-12.623 23.766-20.56 49.56-30.307 74.56-6.894 17.684-11.84 37.303-17.034 58.86-.533 2.214-19.825 82.233-30.258 108.559-.487 1.23-2.018 2.508-3.28 2.16-1.138-.314-2.35-1.138-2.798-3.121-.443-1.967.551-5.188 1.255-7.09 16.897-45.687 26.14-93.695 40.305-140.22 2.791-8.822 5.145-15.18 8.628-24.477 16.258-55.269 43.595-103.764 81.902-146.642 18.216-21.767 33.404-28.842 51.607-51.303 28.402-35.047 21.894-49.309 77.398-100.757 51.34-49.27 117.484-77.124 177.693-113.383 71.765-44.22 86.769-72.042 93.71-77.506 1.821-1.435 3.088-1.138 3.125-.307s-1.157 2.197-1.754 2.88-.597.682-2.934 4.207" style="fill:#91c9bd;fill-opacity:1;stroke-width:15.5316;stroke-linecap:round;stroke-linejoin:round" transform="translate(-308.773 -451.456)scale(1.24588)"/><path d="M1756.96 1574.477c-9.012 39.622-30.99 69.697-60.636 106.274-23.232 29.293-46.872 58.136-71.439 86.336-18.771 22.594-35.202 47.573-48.77 73.656-13.843 27.076-22.911 54.111-28.682 83.192-13.302 67.037-25.148 67.844-42.43 114.78-11.295 30.67-17.182 56.131-19.889 80.911-3.39 26.696-1.681 53.63-1.944 80.461-.186 18.98 2.135 39.078 4.91 61.078.285 2.26 10.576 83.926 10.14 112.24-.02 1.322-1 3.06-2.302 3.181-1.176.11-2.602-.231-3.722-1.928-1.112-1.683-1.322-5.047-1.338-7.076-.373-48.709-8.728-96.88-11.954-145.406-.512-9.239-.563-16.018-.596-25.947-4.365-57.444 4.03-112.477 24.673-166.141 9.33-26.806 21.028-38.8 30.1-66.252 14.152-42.832 3.016-53.866 36.708-121.634 30.569-64.255 82.566-113.726 126.036-168.954 51.46-66.765 55.64-98.098 60.196-105.665 1.196-1.987 2.486-2.158 2.815-1.393s-.305 2.464-.621 3.314c-.317.85-.317.85-1.255 4.973z" style="fill:#91c9bd;fill-opacity:1;stroke-width:15.5316;stroke-linecap:round;stroke-linejoin:round" transform="translate(-308.773 -451.456)scale(1.24588)"/><path d="M806.323 465.833c-.319-.473-.996-.75-2.582-1.604-2.54-1.366-7.111-1.629-9.647-.591-2.536 1.037-4.082 4.151-4.082 4.151s-.122 2.805-.48 3.11c-.358.307-.741.296-3.851.216s-8.947-.234-12.03-.294c-5.759-.112-4.072 3.027-2.826 4.647.714.927 2.514 2.913 12.322 12.764 5.411 5.435 11.002 10.814 13.544 12.73.692.522 2.354 1.42 3.92-.435.759-.9 1.42-2.247 2.059-5.606 1.65-9.208 3.139-18.59 3.972-27.865-.06-.588-.126-.94-.319-1.223m-6.673 10.676c.152.21.25.487.317.854.256 1.415-.25 6.04-.991 10.148-.787 4.36-1.191 6.321-2.07 6.586s-2.23-1.166-4.915-3.591c-5.536-5.002-9.586-8.867-13.17-12.564-.87-.897-.808-1.485.434-1.756 1.232-.267 7.192-.328 17.139-.327 1.883 0 2.802.02 3.256.65" style="fill:#a72204;fill-opacity:1;stroke-width:3.85297;stroke-linecap:round;stroke-linejoin:round" transform="rotate(-4.75 875.728 11702.612)scale(3.41324)"/><path d="M799.968 477.364c.256 1.414-.252 6.04-.992 10.147-.787 4.359-1.19 6.32-2.07 6.586-.878.265-2.23-1.166-4.915-3.59-5.536-5.002-9.586-8.869-13.17-12.565-.87-.898-.809-1.486.434-1.756 1.231-.268 7.191-.329 17.138-.328 2.512 0 3.308.037 3.575 1.506" style="opacity:.77;fill:#ff1a26;fill-opacity:1;stroke-width:3.85297;stroke-linecap:round;stroke-linejoin:round" transform="rotate(-4.75 875.728 11702.612)scale(3.41324)"/><path d="M1999.27 1209.53c-11.383-26.564-28.058-51.14-50.917-72.167-114.51-105.337-266.278-21.221-300.611 148.881-16.498 81.738-.927 164.666 37.536 221.823 58.26 86.575 159.323 97.027 236.929 32.555 76.4-63.47 126.393-215.98 77.063-331.092m-13.663 7.235c20.582 46.958 25.954 107.649 5.595 178.306-26.419 91.692-91.617 170.536-169.302 175.037-52.651 3.05-102.895-30.074-136.846-90.72-36.555-65.297-39.004-149.514-16.136-220.986 22.869-71.473 71.055-130.2 135.772-144.515 70.069-15.497 146.615 24.615 180.917 102.878" style="fill:#a72204;fill-opacity:1;stroke-width:10.5556;stroke-linecap:round;stroke-linejoin:round" transform="translate(-308.773 -451.456)scale(1.24588)"/><path d="M1821.899 1570.11c-52.651 3.05-102.894-30.075-136.845-90.721-36.555-65.297-39.005-149.515-16.137-220.988 22.869-71.472 71.055-130.2 135.772-144.513 112.11-24.796 240.804 92.763 186.515 281.183-26.42 91.691-91.62 170.537-169.305 175.038" style="opacity:.730986;fill:#ff1a26;fill-opacity:1;stroke-width:10.5556;stroke-linecap:round;stroke-linejoin:round" transform="translate(-308.773 -451.456)scale(1.24588)"/><path d="M1654.421 1340.293c-1.779 42.584 5.271 85.53 22.657 123.393l19.043-32.743 51.996 7.788-35.058-39.182 23.473-47.042-48.091 21.236z" style="fill:#f8c4b3;fill-opacity:1;stroke-width:2.08403;stroke-linecap:round;stroke-linejoin:round" transform="translate(-308.773 -451.456)scale(1.24588)"/><path d="M1571.246 1228.924c-24.528-15.285-52.26-25.913-83.037-30.094-154.174-20.946-230.591 134.841-161.498 294.026 33.2 76.491 93.39 135.624 157.627 160.523 97.3 37.716 186.187-11.494 212.993-108.76 26.39-95.756-19.796-249.46-126.085-315.695m-7.073 13.748c43.735 26.757 82.844 73.477 106.541 143.085 30.752 90.331 22.344 192.294-38.817 240.405-41.45 32.607-101.611 34.16-164.141 3.817-67.325-32.67-117.487-100.362-139.591-172.074s-16.152-147.445 28.759-196.192c48.624-52.777 134.359-63.635 207.25-19.041" style="fill:#dc720a;fill-opacity:1;stroke-width:10.5556;stroke-linecap:round;stroke-linejoin:round" transform="translate(-308.773 -451.456)scale(1.24588)"/><path d="M1561.883 1660.982s3.093 7.042 2.583 8.227-1.466 1.622-9.209 5.186-22.276 10.244-29.926 13.824c-14.293 6.69-6.35 12.366-1.329 14.84 2.877 1.418 9.703 4.122 45.727 16.479 19.873 6.817 40.121 13.279 48.69 14.916 2.33.446 7.501.644 9.108-5.809.779-3.13.775-7.244-1.718-16.272-7.079-24.631-13.538-45.396-22.705-69.203zm34.238 9.78c.626.333 1.205.895 1.813 1.718 2.34 3.167 6.688 15.152 9.833 26.145 3.339 11.668 4.717 16.978 2.878 18.693s-6.895-.17-16.426-2.886c-19.657-5.6-34.287-10.205-47.57-14.957-3.224-1.154-3.782-2.675-1.055-4.842 2.704-2.148 17.282-9.505 41.736-21.53 4.63-2.277 6.913-3.34 8.79-2.341" style="fill:#dc720a;fill-opacity:1;stroke-width:10.5556;stroke-linecap:round;stroke-linejoin:round" transform="translate(-308.773 -451.456)scale(1.24588)"/><path d="M1631.898 1626.164c-41.452 32.607-101.611 34.158-164.141 3.816-67.325-32.67-117.489-100.362-139.593-172.075-22.105-71.712-16.151-147.444 28.76-196.19 77.798-84.445 250.598-61.582 313.791 124.041 30.752 90.33 22.343 192.296-38.817 240.408M1597.935 1672.48c2.34 3.168 6.686 15.15 9.832 26.144 3.338 11.667 4.717 16.977 2.878 18.692s-6.895-.167-16.425-2.882c-19.657-5.6-34.289-10.209-47.571-14.961-3.225-1.154-3.784-2.675-1.056-4.84 2.704-2.149 17.281-9.506 41.735-21.531 6.174-3.036 8.176-3.912 10.607-.622" style="opacity:.77;fill:#e49b18;fill-opacity:1;stroke-width:10.5556;stroke-linecap:round;stroke-linejoin:round" transform="translate(-308.773 -451.456)scale(1.24588)"/><path d="m1741.944 1451.797 5.334 52.306-32.595 16.953c4.286 4.72 8.705 9.12 13.246 13.195h.01l24.09 5.2 2.345 14.06c7.267 4.165 14.734 7.583 22.348 10.221l10.393-17.875 51.996 7.789-35.058-39.182 23.473-47.042-48.091 21.236z" style="fill:#f8c4b3;fill-opacity:1;stroke-width:2.08403;stroke-linecap:round;stroke-linejoin:round" transform="translate(-308.773 -451.456)scale(1.24588)"/><path d="m-157.648 614.352-129.44-60.829-104.307 97.85 17.852-141.9-125.294-68.966 140.473-26.871 26.871-140.473 68.965 125.294 141.902-17.852-97.85 104.307z" style="fill:#f8c4b3;fill-opacity:1;stroke-width:5.66929;stroke-linecap:round;stroke-linejoin:round" transform="rotate(-16.65 4485.865 -6839.175)scale(.45799)"/><path d="M2150.158 1415.106c-12.16-26.218-29.551-50.293-53.019-70.638-117.56-101.922-266.787-13.376-296.1 157.663-14.085 82.188 3.92 164.622 44.048 220.622 60.783 84.823 162.109 92.297 237.784 25.569 74.5-65.692 119.983-219.606 67.287-333.217m-13.444 7.633c21.954 46.332 29.11 106.84 10.84 178.065-23.71 92.43-86.56 173.158-164.079 179.943-52.538 4.598-103.735-27.034-139.456-86.655-38.46-64.192-43.386-148.3-22.631-220.415s67.192-132.235 131.46-148.447c69.582-17.552 147.275 20.29 183.866 97.51" style="fill:#2f75dc;fill-opacity:1;stroke-width:10.5556;stroke-linecap:round;stroke-linejoin:round" transform="translate(-308.773 -451.456)scale(1.24588)"/><path d="M1847.867 1778.06c-9.409 2.572-4.732 9.156-1.33 12.678 2.229 2.307 7.74 7.161 37.467 30.967 16.399 13.133 33.27 26.058 40.781 30.495 2.043 1.207 6.842 3.144 10.535-2.386 1.791-2.682 3.18-6.556 3.886-15.895 1.159-17.81 2.08-35.828 2.336-53.74q-.734.265-1.51.497c-5.849 1.75-11.09 1.372-11.753-.847l-2.046-6.838c-10.265 2.781-18.567 3.445-19.175 1.412l-3.467-11.591-7.179 1.13s.531 7.674-.35 8.617c-.88.942-1.926 1.033-10.417 1.77-8.491.736-24.428 2.112-32.839 2.896-1.964.183-3.595.467-4.939.834m21.84 12.05c3.27-1.108 19.478-3.105 46.557-6.157 5.128-.578 7.636-.807 9.066.768.476.525.832 1.253 1.125 2.233 1.131 3.772 1.172 16.52.417 27.929-.802 12.109-1.297 17.573-3.607 18.565s-6.434-2.49-14.486-8.267c-16.607-11.916-28.82-21.198-39.715-30.16-2.645-2.176-2.657-3.795.642-4.912" style="fill:#2f75dc;fill-opacity:1;stroke-width:10.5556;stroke-linecap:round;stroke-linejoin:round" transform="translate(-308.773 -451.456)scale(1.24588)"/><path d="M1926.457 1786.952c1.13 3.772 1.171 16.519.416 27.928-.802 12.109-1.3 17.572-3.61 18.565-2.31.992-6.432-2.487-14.484-8.264-16.607-11.916-28.82-21.199-39.714-30.161-2.645-2.176-2.657-3.796.642-4.913 3.271-1.108 19.478-3.104 46.557-6.156 6.837-.77 9.017-.917 10.193 3M1983.474 1780.748c-52.538 4.599-103.733-27.033-139.455-86.654-38.46-64.193-43.387-148.302-22.632-220.417s67.192-132.234 131.46-148.446c111.332-28.084 243.43 85.637 194.708 275.572-23.71 92.43-86.561 173.16-164.08 179.945" style="opacity:.77;fill:#32c2dd;fill-opacity:1;stroke-width:10.5556;stroke-linecap:round;stroke-linejoin:round" transform="translate(-308.773 -451.456)scale(1.24588)"/><path d="m-157.648 614.352-129.44-60.829-104.307 97.85 17.852-141.9-125.294-68.966 140.473-26.871 26.871-140.473 68.965 125.294 141.902-17.852-97.85 104.307z" style="fill:#c8e9ea;fill-opacity:1;stroke-width:5.66929;stroke-linecap:round;stroke-linejoin:round" transform="rotate(-16.65 5083.185 -7003.735)scale(.45799)"/><path d="m1832.146 1612.593 5.334 52.305-6.67 3.47c3.858 8.86 8.252 17.455 13.206 25.723 6.905 11.525 14.394 22.007 22.354 31.381l10.943-18.816 51.997 7.789-35.057-39.177 23.473-47.042-48.093 21.23z" style="fill:#c8e9ea;fill-opacity:1;stroke-width:2.08403;stroke-linecap:round;stroke-linejoin:round" transform="translate(-308.773 -451.456)scale(1.24588)"/><path d="m-157.648 614.352-129.44-60.829-104.307 97.85 17.852-141.9-125.294-68.966 140.473-26.871 26.871-140.473 68.965 125.294 141.902-17.852-97.85 104.307z" style="fill:#c8e9ea;fill-opacity:1;stroke-width:5.66929;stroke-linecap:round;stroke-linejoin:round" transform="rotate(-16.65 5883.285 -7061.86)scale(.45799)"/><path d="m2100.353 1450.166 5.332 52.3-46.645 24.26 51.393 11.092 8.657 51.859 26.43-45.447 11.448 1.714c1.964-23.67.952-45.81-2.522-66.249l-16.612 7.331zM1952.846 1325.23a141 141 0 0 0-12.705 3.85h-.01l-35.871 18.66h-.01a164 164 0 0 0-5.045 3.692l49.942 10.777 8.657 51.859 26.43-45.447 51.996 7.788-35.058-39.182 7.313-14.652c-18.514-2.748-37.363-1.96-55.649 2.653zM1825.25 1461.28a298 298 0 0 0-3.86 12.397c-5.961 20.71-9.808 42.41-11.346 64.343v.01l5.874 35.16 26.423-45.451 51.997 7.788-35.057-39.177 23.473-47.042-48.093 21.23zM2067.734 1344.424l3.025 29.667-46.64 24.26 51.388 11.092 8.662 51.857 26.43-45.447 24.563 3.679c-16.273-32.83-40.068-58.296-67.428-75.108" style="fill:#c8e9ea;fill-opacity:1;stroke-width:2.08403;stroke-linecap:round;stroke-linejoin:round" transform="translate(-308.773 -451.456)scale(1.24588)"/><path d="m-157.648 614.352-129.44-60.829-104.307 97.85 17.852-141.9-125.294-68.966 140.473-26.871 26.871-140.473 68.965 125.294 141.902-17.852-97.85 104.307z" style="fill:#f8c5b4;fill-opacity:1;stroke-width:5.66929;stroke-linecap:round;stroke-linejoin:round" transform="rotate(-16.65 4025.635 -6402.557)scale(.45799)"/><path d="m1907.275 1129.462 3.897 38.242-46.644 24.26 51.392 11.092 8.656 51.853 26.43-45.447 33.59 5.034c-17.45-38.521-45.22-67.58-77.321-85.034M1790.779 1117.72c-13.64 4.52-26.455 11.061-38.353 19.29l34.091 7.357 8.656 51.854 26.43-45.447 51.996 7.788-35.057-39.177 4.274-8.566c-12.729-.706-25.533.284-38.126 3.07a141 141 0 0 0-13.912 3.83M1714.912 1200.856l-26.981 11.912c-7.536 14.34-13.905 29.672-19.013 45.636-5.203 16.263-9.096 33.182-11.574 50.392l17.157-29.504 51.997 7.788-35.059-39.182z" style="fill:#f8c4b3;fill-opacity:1;stroke-width:2.08403;stroke-linecap:round;stroke-linejoin:round" transform="translate(-308.773 -451.456)scale(1.24588)"/><path d="m-157.648 614.352-129.44-60.829-104.307 97.85 17.852-141.9-125.294-68.966 140.473-26.871 26.871-140.473 68.965 125.294 141.902-17.852-97.85 104.307z" style="fill:#f7deb0;fill-opacity:1;stroke-width:5.66929;stroke-linecap:round;stroke-linejoin:round" transform="rotate(-16.65 4305.38 -5020.024)scale(.45799)"/><path d="m1479.783 1215.212.994 9.728-46.645 24.26 51.393 11.091 8.656 51.854 26.43-45.447 51.996 7.788-35.058-39.182 2.585-5.174c-19.904-8.683-40.332-13.57-60.35-14.918M1607.213 1512.825l5.333 52.305-46.645 24.26 51.393 11.092 5.378 32.23a115 115 0 0 0 9.228-6.551c16.56-13.028 29.254-30.002 38.349-49.627l-.931-1.04 7.117-14.258v-.012c3.226-9.224 5.762-18.9 7.632-28.918l-39.37 17.382zM1344.505 1480.59l2.474 24.275c12.766 25.632 29.134 49.732 48.528 70.662l46.161 6.915-35.058-39.182 23.473-47.043-48.091 21.236zM1334.78 1293.53c-10.977 21.34-17.006 45.485-18.626 70.904v.01l5.166 40.856 28.21-44.365 51.644 9.837-33.48-40.536 25.32-46.076-48.895 19.315zM1625.071 1344.977l5.334 52.306-46.645 24.26 51.393 11.091 8.656 51.854 26.43-45.447 14.172 2.122c-2.906-18.584-7.507-37.23-13.695-55.406a364 364 0 0 0-2.287-6.51l-5.87 2.594z" style="fill:#f7deb0;fill-opacity:1;stroke-width:2.08403;stroke-linecap:round;stroke-linejoin:round" transform="translate(-308.773 -451.456)scale(1.24588)"/><path d="m-157.648 614.352-129.44-60.829-104.307 97.85 17.852-141.9-125.294-68.966 140.473-26.871 26.871-140.473 68.965 125.294 141.902-17.852-97.85 104.307z" style="fill:#f7deb0;fill-opacity:1;stroke-width:5.66929;stroke-linecap:round;stroke-linejoin:round" transform="rotate(-16.65 4999.452 -4965.38)scale(.45799)"/><path d="M1825.54 2195.78c18.087-49.267 9.024-74.528-50.461-74.129-6.227.183-9.803.299-11.054 3.066s-.176 8.185-.085 12.991c.09 4.808-.801 9.004-1.214 11.863s-.345 4.38 3.323 7.943c7.45 7.236 11.697 8.53 42.825 37.574 6.115 5.705 9.09 8.564 11.076 9.253 1.987.688 2.985-.794 5.59-8.562z" style="fill:#fe15a6;fill-opacity:1;stroke-width:14.2334;stroke-linecap:round;stroke-linejoin:round" transform="translate(-308.773 -451.456)scale(1.24588)"/><path d="M1980.623 2224.533c19.643.483 39.925 10.564 44.38 30.821 3.852 20.796-13.85 42.835-33.739 33.13-21.635-10.56-14.582-63.262-10.64-63.951" style="fill:#009fd9;fill-opacity:1;stroke-width:14.062;stroke-linecap:round;stroke-linejoin:round" transform="translate(-308.773 -451.456)scale(1.24588)"/><path d="M2160.73 2025.793c19.298.469 44.073 22.903 41.195 40.945-.895 5.609-9.577 26.96-17.117 25.037-12.767-5.59-25.017-12.469-37.514-18.697-6.369-3.17-9.7-4.789-10.364-7.632s1.336-6.908 4.031-13.235 6.084-14.915 9.146-19.967 5.799-6.568 10.623-6.45z" style="fill:#f7ec27;fill-opacity:1;stroke-width:13.6653;stroke-linecap:round;stroke-linejoin:round" transform="translate(-308.773 -451.456)scale(1.24588)"/><path d="M979.934 1302.966c5.497-52.192-9.465-74.472-67.048-59.546-5.993 1.7-9.433 2.685-9.97 5.674-.536 2.988 1.83 7.98 3.094 12.618 1.263 4.64 1.423 8.927 1.722 11.8s.736 4.332 5.164 6.89c8.992 5.196 13.427 5.413 50.71 25.967 7.323 4.038 10.906 6.084 13.001 6.266 2.095.181 2.7-1.5 3.327-9.669" style="fill:#f7ec27;fill-opacity:1;stroke-width:14.2334;stroke-linecap:round;stroke-linejoin:round" transform="translate(-308.773 -451.456)scale(1.24588)"/><path d="M1137.342 1292.944c19.165-4.332 41.296.486 50.566 19.04 8.819 19.223-2.96 44.92-24.618 40.37-23.56-4.95-29.601-57.778-25.948-59.41" style="fill:#009fd9;fill-opacity:1;stroke-width:14.062;stroke-linecap:round;stroke-linejoin:round" transform="translate(-308.773 -451.456)scale(1.24588)"/><path d="M1263.413 1056.212c18.826-4.262 48.333 11.436 49.952 29.634.503 5.658-2.697 28.483-10.478 28.461-13.746-2.3-27.306-5.976-40.946-8.96-6.95-1.517-10.576-2.273-11.916-4.868-1.339-2.594-.392-7.026.675-13.82 1.067-6.793 2.254-15.948 3.988-21.596 1.735-5.647 4.018-7.786 8.725-8.851z" style="fill:#fe15a6;fill-opacity:1;stroke-width:13.6653;stroke-linecap:round;stroke-linejoin:round" transform="translate(-308.773 -451.456)scale(1.24588)"/><path d="M1802.796 766.253c52.323-4.084 71.511-22.847 46.364-76.757-2.76-5.585-4.355-8.788-7.392-8.772s-7.514 3.25-11.845 5.336c-4.333 2.085-8.52 3.023-11.29 3.839-2.77.817-4.126 1.511-5.837 6.33-3.474 9.787-2.881 14.187-16.314 54.586-2.64 7.935-4 11.83-3.797 13.924s1.965 2.382 10.111 1.514" style="fill:#009fd9;fill-opacity:1;stroke-width:14.2334;stroke-linecap:round;stroke-linejoin:round" transform="translate(-308.773 -451.456)scale(1.24588)"/><path d="M1841.27 919.215c7.744 18.058 7.03 40.696-9.53 53.185-17.299 12.167-44.71 5.255-44.172-16.868.584-24.067 51.433-39.613 53.702-36.317" style="fill:#fe15a6;fill-opacity:1;stroke-width:14.062;stroke-linecap:round;stroke-linejoin:round" transform="translate(-308.773 -451.456)scale(1.24588)"/><path d="M2096.978 1000.144c7.613 17.738-2.458 49.608-20.06 54.508-5.47 1.523-28.498 2.526-29.89-5.13-.239-13.934.911-27.936 1.366-41.892.228-7.11.313-10.813 2.62-12.602s6.837-1.663 13.712-1.85c6.874-.185 16.093-.682 21.961-.003 5.869.679 8.387 2.535 10.29 6.97z" style="fill:#f7ec27;fill-opacity:1;stroke-width:13.6653;stroke-linecap:round;stroke-linejoin:round" transform="translate(-308.773 -451.456)scale(1.24588)"/></svg>