<svg xmlns="http://www.w3.org/2000/svg" xmlns:xlink="http://www.w3.org/1999/xlink" xml:space="preserve" width="406" height="560" viewBox="0 0 406 560"><defs><linearGradient id="t"><stop offset="0" style="stop-color:#f2d3a0;stop-opacity:1"/><stop offset="1" style="stop-color:#f2d3a0;stop-opacity:0"/></linearGradient><linearGradient id="s"><stop offset="0" style="stop-color:#f4dbae;stop-opacity:.6044755"/><stop offset="1" style="stop-color:#f4dbae;stop-opacity:0"/></linearGradient><linearGradient id="r"><stop offset="0" style="stop-color:#da89c0;stop-opacity:1"/><stop offset="1" style="stop-color:#922e72;stop-opacity:0"/></linearGradient><linearGradient id="q"><stop offset="0" style="stop-color:#8b2a6b;stop-opacity:1"/><stop offset="1" style="stop-color:#8b2a6b;stop-opacity:0"/></linearGradient><linearGradient id="p"><stop offset="0" style="stop-color:#8b2a6b;stop-opacity:1"/><stop offset="1" style="stop-color:#8b2a6b;stop-opacity:0"/></linearGradient><linearGradient id="o"><stop offset="0" style="stop-color:#d05bb3;stop-opacity:1"/><stop offset="1" style="stop-color:#d05bb3;stop-opacity:0"/></linearGradient><linearGradient id="n"><stop offset="0" style="stop-color:#f5dcb1;stop-opacity:1"/><stop offset="1" style="stop-color:#f5dcb1;stop-opacity:0"/></linearGradient><linearGradient id="j"><stop offset="0" style="stop-color:#6f746c;stop-opacity:1"/><stop offset="1" style="stop-color:#93978f;stop-opacity:1"/></linearGradient><linearGradient id="m"><stop offset="0" style="stop-color:#f5dcb1;stop-opacity:1"/><stop offset="1" style="stop-color:#f5dcb1;stop-opacity:0"/></linearGradient><linearGradient id="l"><stop offset="0" style="stop-color:#751c56;stop-opacity:1"/><stop offset="1" style="stop-color:#54143d;stop-opacity:1"/></linearGradient><linearGradient id="k"><stop offset="0" style="stop-color:#969a92;stop-opacity:1"/><stop offset="1" style="stop-color:#969a92;stop-opacity:0"/></linearGradient><linearGradient id="i"><stop offset="0" style="stop-color:#d4c1bb;stop-opacity:1"/><stop offset="1" style="stop-color:#e6dbd1;stop-opacity:1"/></linearGradient><linearGradient id="h"><stop offset="0" style="stop-color:#b0308f;stop-opacity:1"/><stop offset="1" style="stop-color:#d25bb4;stop-opacity:0"/></linearGradient><linearGradient id="g"><stop offset="0" style="stop-color:#923677;stop-opacity:1"/><stop offset="1" style="stop-color:#923677;stop-opacity:0"/></linearGradient><linearGradient id="f"><stop offset="0" style="stop-color:#923677;stop-opacity:.64648438"/><stop offset="1" style="stop-color:#923677;stop-opacity:0"/></linearGradient><linearGradient id="e"><stop offset="0" style="stop-color:#d87bc7;stop-opacity:1"/><stop offset="1" style="stop-color:#d87bc7;stop-opacity:0"/></linearGradient><linearGradient id="d"><stop offset="0" style="stop-color:#913677;stop-opacity:1"/><stop offset="1" style="stop-color:#913677;stop-opacity:0"/></linearGradient><linearGradient id="c"><stop offset="0" style="stop-color:#fb59db;stop-opacity:.36527044"/><stop offset="1" style="stop-color:#fb59db;stop-opacity:0"/></linearGradient><linearGradient id="b"><stop offset="0" style="stop-color:#e1d0cc;stop-opacity:1"/><stop offset="1" style="stop-color:#e1d0cc;stop-opacity:0"/></linearGradient><linearGradient id="a"><stop offset="0" style="stop-color:#cf5ebb;stop-opacity:1"/><stop offset="1" style="stop-color:#cf5ebb;stop-opacity:0"/></linearGradient><linearGradient xlink:href="#a" id="E" x1="173.352" x2="294.253" y1="86.844" y2="55.732" gradientTransform="matrix(1.01237 -.05769 .0585 .99833 -8.13 6.8)" gradientUnits="userSpaceOnUse"/><linearGradient xlink:href="#c" id="B" x1="67.069" x2="202.49" y1="114.33" y2="96.148" gradientUnits="userSpaceOnUse"/><linearGradient xlink:href="#d" id="F" x1="341.898" x2="244.338" y1="142.78" y2="129.575" gradientUnits="userSpaceOnUse"/><linearGradient xlink:href="#d" id="G" x1="406" x2="274.658" y1="129.511" y2="113.362" gradientUnits="userSpaceOnUse"/><linearGradient xlink:href="#e" id="H" x1="114.221" x2="120.17" y1="29.695" y2="38.546" gradientUnits="userSpaceOnUse"/><linearGradient xlink:href="#f" id="D" x1="207.733" x2="195.541" y1="156.015" y2="91.034" gradientUnits="userSpaceOnUse"/><linearGradient xlink:href="#g" id="w" x1="230.297" x2="243.778" y1="198.856" y2="216.427" gradientUnits="userSpaceOnUse"/><linearGradient xlink:href="#i" id="J" x1="-254.864" x2="-285.446" y1="249.09" y2="269.186" gradientUnits="userSpaceOnUse"/><linearGradient xlink:href="#j" id="K" x1="-272.159" x2="-268.581" y1="246.324" y2="267.512" gradientUnits="userSpaceOnUse"/><linearGradient xlink:href="#k" id="L" x1="-266.933" x2="-275.164" y1="247.502" y2="264.17" gradientUnits="userSpaceOnUse"/><linearGradient xlink:href="#l" id="M" x1="159.628" x2="159.628" y1="114.835" y2="168.609" gradientTransform="matrix(-.94703 .0522 .0522 .94703 110.2 264.267)" gradientUnits="userSpaceOnUse"/><linearGradient xlink:href="#l" id="N" x1="159.628" x2="159.628" y1="114.835" y2="168.609" gradientTransform="rotate(3.154 -40.084 284.897)scale(.94847)" gradientUnits="userSpaceOnUse"/><linearGradient xlink:href="#i" id="P" x1="-254.864" x2="-285.446" y1="249.09" y2="269.186" gradientUnits="userSpaceOnUse"/><linearGradient xlink:href="#j" id="Q" x1="-272.159" x2="-268.581" y1="246.324" y2="267.512" gradientUnits="userSpaceOnUse"/><linearGradient xlink:href="#k" id="R" x1="-266.933" x2="-275.164" y1="247.502" y2="264.17" gradientUnits="userSpaceOnUse"/><linearGradient xlink:href="#l" id="S" x1="159.628" x2="159.628" y1="114.835" y2="168.609" gradientTransform="matrix(-.94703 .0522 .0522 .94703 110.2 264.267)" gradientUnits="userSpaceOnUse"/><linearGradient xlink:href="#g" id="u" x1="230.297" x2="243.778" y1="198.856" y2="216.427" gradientUnits="userSpaceOnUse"/><radialGradient xlink:href="#b" id="C" cx="138.593" cy="236.174" r="181.019" fx="138.593" fy="236.174" gradientTransform="translate(95.297 -226.524)scale(.77344)" gradientUnits="userSpaceOnUse"/><radialGradient xlink:href="#h" id="I" cx="314.399" cy="194.491" r="168.414" fx="314.399" fy="194.491" gradientTransform="translate(206.26 34.607)scale(.47438)" gradientUnits="userSpaceOnUse"/><radialGradient xlink:href="#m" id="O" cx="150.967" cy="251.023" r="93.338" fx="150.967" fy="251.023" gradientTransform="translate(136.839 -3.16)" gradientUnits="userSpaceOnUse"/><radialGradient xlink:href="#n" id="z" cx="109.164" cy="237.332" r="69.65" fx="109.164" fy="237.332" gradientTransform="translate(16.995 -7.673)" gradientUnits="userSpaceOnUse"/><radialGradient xlink:href="#o" id="T" cx="67.882" cy="12.728" r="36.416" fx="67.882" fy="12.728" gradientTransform="translate(8.616 79.227)" gradientUnits="userSpaceOnUse"/><radialGradient xlink:href="#p" id="U" cx="315.899" cy="46.963" r="45.5" fx="315.899" fy="46.963" gradientTransform="translate(-236.063 43.505)scale(1.93372)" gradientUnits="userSpaceOnUse"/><radialGradient xlink:href="#q" id="V" cx="328.945" cy="208.094" r="59.988" fx="328.945" fy="208.094" gradientTransform="matrix(1 0 0 1.01071 -18.838 -9.42)" gradientUnits="userSpaceOnUse"/><radialGradient xlink:href="#r" id="x" cx="252" cy="236.25" r="37.75" fx="252" fy="236.25" gradientTransform="translate(-1.373 2.313)" gradientUnits="userSpaceOnUse"/><radialGradient xlink:href="#r" id="v" cx="252" cy="236.25" r="37.75" fx="252" fy="236.25" gradientTransform="translate(-1.373 2.313)" gradientUnits="userSpaceOnUse"/><radialGradient xlink:href="#s" id="A" cx="64.247" cy="322.115" r="64.247" fx="64.247" fy="322.115" gradientTransform="translate(129.603 -214.056)scale(1.11123)" gradientUnits="userSpaceOnUse"/><radialGradient xlink:href="#t" id="y" cx="315.158" cy="54.809" r="79.268" fx="315.158" fy="54.809" gradientTransform="translate(-104.422 2.77)scale(1.26314)" gradientUnits="userSpaceOnUse"/></defs><g transform="translate(-95.38 83.054)scale(1.45741)"><g style="fill:#a03b83;fill-opacity:1"><path d="M256.754 192.901c2.568 11.73-.201 23.65-3.048 35.078-2.657-5.945-9.12-15.848-11.469-18.52-2.428-2.764-5.476-5.14-8.653-11.108-3.177-5.966-6.483-15.524-3.384-23.247 3.1-7.723 12.606-13.612 17.462-13.302s5.062 6.819 5.89 13.276c.826 6.458 2.272 12.864 3.202 17.823" style="fill:#6d1c51;fill-opacity:1;stroke-width:5.5;stroke-linecap:round" transform="matrix(-1 0 0 1 400.936 4.164)"/><path d="M242.65 207.986c-3.372 9.01-2.516 14.758-1.962 21.078 0 0-5.126-5.692-8.499-11.727-2.454-4.391-5.192-10.126-4.546-14.362s4.675-6.974 8.188-8.266 6.51-1.136 7.517 1.421.026 7.517-.697 11.856" style="fill:#6d1c51;fill-opacity:1;stroke-width:5.5;stroke-linecap:round" transform="matrix(-1 0 0 1 400.936 4.164)"/></g><path d="M247.662 161.8c-4.856-.31-14.361 5.58-17.46 13.304-2.767 6.893-.432 15.246 2.36 21.205-2.4 1.513-4.472 3.73-4.92 6.666-.645 4.236 2.094 9.97 4.547 14.36 3.373 6.036 8.499 11.73 8.499 11.73-.525-5.991-1.32-11.469 1.47-19.698l.08.092c2.348 2.673 8.81 12.574 11.467 18.52 2.847-11.428 5.617-23.348 3.049-35.079-.93-4.959-2.377-11.364-3.203-17.822s-1.033-12.967-5.889-13.277" style="mix-blend-mode:multiply;fill:url(#u);fill-opacity:1;stroke-width:5.5;stroke-linecap:round" transform="matrix(-1 0 0 1 400.936 4.164)"/><path d="M250.627 200.813a37.75 37.75 0 0 0-22.475 7.42c.862 3.097 2.505 6.361 4.037 9.103 3.373 6.035 8.499 11.728 8.499 11.728-.132-1.497-.28-2.964-.385-4.449a47 47 0 0 1-.123-4.56c.084-3.147.583-6.572 1.978-10.686l.08.09c1.174 1.336 3.376 4.479 5.617 8.031v.002c2.241 3.552 4.521 7.512 5.85 10.485 2.135-8.57 4.228-17.416 4.057-26.252v-.002q-.002-.116-.006-.23a37.8 37.8 0 0 0-7.13-.68z" style="mix-blend-mode:overlay;fill:url(#v);fill-opacity:1;stroke-width:5.5;stroke-linecap:round" transform="matrix(-1 0 0 1 400.936 4.164)"/><path d="m148.943 169.91-.017.053.058.056zm-3.974 23.131c-.283 1.415.123 3.07-.112 4.322 1.66 2.46 2.37 3.82 3.274 4.455 0 0-1.346-3.793-3.162-8.777" style="fill:#3c0724;fill-opacity:1;stroke-width:6.65278;stroke-linecap:round"/><path d="M153.273 165.965q-.682.045-1.248.246-.376.133-.707.33h-.002a4 4 0 0 0-.617.453 4 4 0 0 0-.28.27 5 5 0 0 0-.497.617v.002c-1.078 1.564-1.581 3.938-1.951 6.603v.002c-.212 1.523-.38 3.14-.586 4.754-.58 4.532-1.466 9.039-2.264 13.037q1.181 2.442 2.436 4.873c4.293 11.032 12.947 16.342 21.878 23.091 1.921-3.496 3.539-7.026 3.897-10.669a30 30 0 0 0-.207-3.244c-.394-1.487-1.213-2.772-2.26-3.857q-.37-.384-.775-.733a14 14 0 0 0-1.717-1.267q.252-.539.498-1.102a15 15 0 0 0-.777-.525c2.094-4.468 3.931-10.284 3.552-15.82v-.003c-.008-.113-.037-.222-.046-.335q-.039-.45-.096-.899a15.9 15.9 0 0 0-1.422-3.945l-.002-.002c-.723-1.402-1.648-2.729-2.7-3.953v-.002c-.346-.404-.74-.759-1.113-1.139-.38-.39-.739-.802-1.14-1.164-.353-.32-.732-.584-1.098-.88-1.276-1.038-2.595-1.978-3.914-2.702-.848-.465-1.69-.86-2.5-1.174l-.002-.002c-1.217-.472-2.365-.764-3.377-.848a6.6 6.6 0 0 0-.963-.013z" style="opacity:1;fill:#2d0217;fill-opacity:.643434;stroke:none;stroke-width:5.5;stroke-linecap:round"/><g style="fill:#a03b83;fill-opacity:1"><path d="M256.754 192.901c2.568 11.73-.201 23.65-3.048 35.078-2.657-5.945-9.12-15.848-11.469-18.52-2.428-2.764-5.476-5.14-8.653-11.108-3.177-5.966-6.483-15.524-3.384-23.247 3.1-7.723 12.606-13.612 17.462-13.302s5.062 6.819 5.89 13.276c.826 6.458 2.272 12.864 3.202 17.823" style="fill:#6d1c51;fill-opacity:1;stroke-width:5.5;stroke-linecap:round"/><path d="M242.65 207.986c-3.372 9.01-2.516 14.758-1.962 21.078 0 0-5.126-5.692-8.499-11.727-2.454-4.391-5.192-10.126-4.546-14.362s4.675-6.974 8.188-8.266 6.51-1.136 7.517 1.421.026 7.517-.697 11.856" style="fill:#6d1c51;fill-opacity:1;stroke-width:5.5;stroke-linecap:round"/></g><path d="M247.662 161.8c-4.856-.31-14.361 5.58-17.46 13.304-2.767 6.893-.432 15.246 2.36 21.205-2.4 1.513-4.472 3.73-4.92 6.666-.645 4.236 2.094 9.97 4.547 14.36 3.373 6.036 8.499 11.73 8.499 11.73-.525-5.991-1.32-11.469 1.47-19.698l.08.092c2.348 2.673 8.81 12.574 11.467 18.52 2.847-11.428 5.617-23.348 3.049-35.079-.93-4.959-2.377-11.364-3.203-17.822s-1.033-12.967-5.889-13.277" style="mix-blend-mode:multiply;fill:url(#w);fill-opacity:1;stroke-width:5.5;stroke-linecap:round"/><path d="M250.627 200.813a37.75 37.75 0 0 0-22.475 7.42c.862 3.097 2.505 6.361 4.037 9.103 3.373 6.035 8.499 11.728 8.499 11.728-.132-1.497-.28-2.964-.385-4.449a47 47 0 0 1-.123-4.56c.084-3.147.583-6.572 1.978-10.686l.08.09c1.174 1.336 3.376 4.479 5.617 8.031v.002c2.241 3.552 4.521 7.512 5.85 10.485 2.135-8.57 4.228-17.416 4.057-26.252v-.002q-.002-.116-.006-.23a37.8 37.8 0 0 0-7.13-.68z" style="mix-blend-mode:overlay;fill:url(#x);fill-opacity:1;stroke-width:5.5;stroke-linecap:round"/><path d="M247.662 161.8c-.607-.038-1.287.02-2.017.167-.46.092-.944.23-1.438.39a19.7 19.7 0 0 0-3.387 1.48c-2.545 1.398-5.161 3.436-7.265 5.886l-.002.002c-1.403 1.633-2.577 3.448-3.352 5.379q-.26.646-.46 1.308c-.37 1.215-.576 2.47-.684 3.738-.01.113-.04.223-.047.336v.002c-.38 5.537 1.458 11.352 3.552 15.82-.599.379-1.18.802-1.718 1.268q-.406.35-.776.733-.369.382-.697.799v.002c-.874 1.11-1.505 2.397-1.728 3.865-.16 1.05-.113 2.193.087 3.385v.002c.608 3.612 2.615 7.673 4.46 10.974a52 52 0 0 0 2.099 3.418 96 96 0 0 0 6.555-6.558 39 39 0 0 1 1.314-4.827l.08.09c.348.396.786.95 1.287 1.625 2.647-3.228 5.039-6.648 7.102-10.271 1.414-2.576 1.812-3.672 4.889-10.157l.568-1.193c-.861-4.319-1.887-9.336-2.533-14.385-.569-4.44-.843-8.904-2.537-11.361a4.7 4.7 0 0 0-1.077-1.129 4 4 0 0 0-1.027-.541 4.4 4.4 0 0 0-.807-.2 5 5 0 0 0-.44-.046z" style="mix-blend-mode:multiply;fill:#6d1c51;fill-opacity:1;stroke-width:5.5;stroke-linecap:round"/><path d="M255.195 184.97c-.98 1.943-1.828 3.688-2.445 5.225-1.293 3.283-3.025 8.598 2.504 7.157a38 38 0 0 0 2.146-.688 43 43 0 0 0-.646-3.764c-.443-2.364-1.004-5.058-1.559-7.93" style="opacity:1;fill:#260214;fill-opacity:1;stroke-width:5.5;stroke-linecap:round"/><path d="M271.609 53.65c1.163 5.963 1.709 17.916-9.804 25.727l-4.878 3.31 3.091.425c42.905 5.888 58.286 43.708 44.858 67.662-.537-10.213-5.08-16.013-14.304-22.028-5.446-3.147-5.592-3.053-2.07 1.318 7.628 9.468 7.242 20.171 6.014 29.76-2.095 16.358-12.905 22.022-26.054 23.582 8.058-7.434 14.413-28.692 13.564-47.136s-8.902-34.073-29.66-30.25c-.803-6.425-6.156-5.656-5.28-12.034 2.756-20.094-17.146-14.548-.17-27.328 6.903.55 11.51-.557 16.683-3.818 4.713-3.164 6.413-6.398 6.967-8.828a93 93 0 0 1 1.043-.363" style="fill:#bc4a9b;fill-opacity:1;stroke-width:.689602;stroke-linecap:round;stroke-linejoin:round"/><path d="M229.652 220.54c-.9 2.43-1.045 5.102-1.118 8.407s-.073 7.241.024 9.72c.098 2.478.292 3.499.608 4.957s.753 3.353 1.895 6.463 2.989 7.436 2.066 11.98c-.924 4.544-4.617 9.306-11.567 12.854s-17.155 5.88-26.923 3.596c-9.769-2.284-19.1-9.185-23.862-14.093-4.763-4.909-4.957-7.824-4.204-10.74s2.454-5.832 3.402-10.109 1.142-9.914 1.215-15.163c.073-5.248.024-10.108 1.19-13.291 1.167-3.183 3.548-4.69 8.894-6.342 5.346-1.653 13.656-3.45 21.724-3.5 8.067-.048 15.891 1.653 20.994 3.354 5.103 1.7 7.484 3.402 7.849 5.346.364 1.944-1.288 4.13-2.187 6.56" style="fill:#f5dcb1;fill-opacity:1;stroke-width:5.5;stroke-linecap:round"/><path d="M202.996 205.28c-8.067.048-16.379 1.847-21.725 3.5-5.345 1.652-7.726 3.158-8.892 6.341-.795 2.17-.949 2.797-1.038 6.119 9.018 8.533 21.39 17.772 25.811 19.149 2.562.797 3.334 1.11 5.7.392 2.365-.717 6.238-2.221 11.22-5.017 4.966-2.982 9.888-6.258 14.58-9.856.13-1.98.394-3.73 1-5.369.342-.922.79-1.81 1.198-2.662.169-1.093.416-2.122.783-3.113q.111-.3.234-.596a3 3 0 0 0-.03-.19c-.364-1.943-2.744-3.644-7.847-5.345s-12.926-3.402-20.994-3.354" style="mix-blend-mode:multiply;fill:#f5dcb1;fill-opacity:.629876;stroke:none;stroke-width:5.7372;stroke-linecap:round"/><path d="M250.627 197.503c-8.635 15.164-23.018 26.76-37.81 35.641-4.776 2.68-8.487 4.124-10.755 4.811s-3.093.619-5.464-.378c-6.184-2.599-31.515-19.891-39.897-28.677-3.574-3.745-6.117-7.663-8.866-13.161-9.545-18.538-16.217-37.488-14.433-58.591 1.169-10.55 4.192-24.364 11.34-34.227 15.054-20.771 74.803-40.089 101.169-25.464 22.05 12.232 26.259 41.65 26.529 60.55.137 9.622-1.1 14.364-4.596 22.673s-9.252 20.183-12.329 26.668-3.474 7.58-4.888 10.155" style="fill:#f5dcb1;fill-opacity:1;stroke:none;stroke-width:5.5;stroke-linecap:round"/><path d="M221.098 72.346c-28.633.237-65.065 14.997-76.356 30.576-7.148 9.862-10.171 23.676-11.34 34.226-1.784 21.104 4.888 40.053 14.434 58.59 2.75 5.499 5.291 9.417 8.865 13.162 4.925 5.162 15.7 13.26 25.006 19.59a100 100 0 0 0 8.738.383 100.1 100.1 0 0 0 40.633-8.615c7.738-6.516 14.591-14.047 19.549-22.754 1.414-2.576 1.812-3.671 4.889-10.156s8.831-18.36 12.328-26.668c3.496-8.31 4.733-13.05 4.595-22.672-.27-18.9-4.478-48.32-26.529-60.551-6.591-3.656-15.268-5.19-24.812-5.111" style="mix-blend-mode:multiply;fill:url(#y);stroke-width:6.94727;stroke-linecap:round"/><path d="M128.332 149.26c-.15-.806-.45-2.416-.724-3.33-.274-.913-.524-1.129-.906-1.255s-.897-.163-1.39-.096-.963.238-1.841 1.176c-.879.938-2.165 2.642-3.312 5.013a31.4 31.4 0 0 0-2.632 8.374c-.474 2.966-.415 5.862-.071 8.623s.973 5.387 2.175 7.95c1.203 2.563 2.98 5.063 4.907 7.434s3.972 4.652 6.316 6.82c14.026 12.969 23.092 6.095 14.941.376-3.258-2.286-4.49-9.41-7.078-15.491-2.588-6.082-5.257-11.947-6.789-15.434s-1.927-4.597-2.312-5.76-.76-2.379-.947-2.987c-.188-.608-.188-.608-.337-1.413" style="opacity:1;fill:#f5dcb1;fill-opacity:1;stroke-width:5.5;stroke-linecap:round"/><path d="M141.799 156.73a70 70 0 0 0-7.64.42c2.112 13.406 7.242 26.09 13.677 38.588 2.75 5.499 5.291 9.417 8.865 13.162 8.382 8.786 33.713 26.08 39.897 28.678 2.37.997 3.196 1.064 5.465.377 1.974-.598 5.042-1.768 8.955-3.83a70 70 0 0 0 .431-7.746 69.65 69.65 0 0 0-69.65-69.649" style="mix-blend-mode:multiply;fill:url(#z);stroke-width:5.5;stroke-linecap:round"/><circle cx="200.996" cy="143.887" r="71.393" style="mix-blend-mode:overlay;fill:url(#A);stroke-width:6.11175;stroke-linecap:round"/><path d="M223.098 65.827c-28.633.237-65.065 14.998-76.356 30.577-7.148 9.862-10.171 23.676-11.34 34.226-1.105 13.071 1.034 25.316 5.09 37.149-1.256-6.074-1.937-12.22-1.63-18.323 5.396 12.514 13.117 19.893 13.117 19.893-9.8-26.048-.181-37.209 7.392-48.621-.4 4.75-.106 9.7.963 14.717 0 0 6.495-13.843 7.703-16.233 1.53-3.025.611 1.797-.195 5.922s-1.502 7.551-2.258 10.516c-.748 2.935-2.37 7.89-2.37 7.89l.018.032s1.423-1.546 3.893-4.711c2.494-3.197 6.766-8.811 9.61-12.782s4.261-6.296 5.122-8.164c.862-1.867 1.166-3.273 1.319-2.44 11.694 17.13 22.23 19.386 36.719 29.274-1.355-2.126-2.71-4.253-4.65-7.07-6.94-10.021-11.819-19.158-10.243-32.26 0 0 10.113 16.065 24.63 19.822-1.893-3.08-3.789-6.159-4.316-7.328-.526-1.168.315-.426 2.002.801 5.36 3.835 11.22 7.293 17.02 10.861-6.278-11.275-10.63-22.009-15.195-30.593 2.453.914 4.588 2.134 6.298 3.715 11.905 7.788 21.63 15.645 25.633 28.562 3.36 15.085 1.693 32.283-.572 43.303 3.038-6.38 6.791-14.339 9.342-20.4 3.496-8.31 4.733-13.05 4.595-22.672-.27-18.9-4.478-48.32-26.529-60.551-6.591-3.656-15.268-5.19-24.812-5.112" style="fill:#eec98e;fill-opacity:1;stroke-width:6.65278;stroke-linecap:round"/><path d="M193.9 78.14c-25.327 3.389-41.192 27.93-35.566 54.34 0 0 6.495-13.843 7.704-16.233 1.53-3.025.609 1.799-.197 5.924s-1.5 7.55-2.256 10.515c-.749 2.935-2.37 7.89-2.37 7.89l.017.032s1.424-1.545 3.894-4.711c2.494-3.197 6.765-8.811 9.609-12.781 2.843-3.97 4.261-6.297 5.123-8.164.86-1.867 1.165-3.274 1.317-2.44 11.694 17.13 22.23 19.384 36.719 29.273-1.355-2.126-2.708-4.253-4.65-7.07-6.939-10.022-11.818-19.157-10.243-32.26 0 0 10.113 16.065 24.631 19.823-1.894-3.08-3.79-6.16-4.316-7.328-.527-1.17.315-.427 2.002.8 5.358 3.836 11.22 7.293 17.02 10.86-16.508-29.648-19.711-55.557-48.438-48.47z" style="fill:#bc4a9b;fill-opacity:1;stroke-width:6.65278;stroke-linecap:round"/><path d="M125.684 144.547a4 4 0 0 0-.372.031c-.492.067-.963.238-1.841 1.176-.879.938-2.165 2.643-3.313 5.014a31 31 0 0 0-1.908 5.105 50 50 0 0 0 5.172 7.46c.016-5.175.113-10.27.656-15.218 3.805 19.843 14.826 41.15 20.78 49.248a6.6 6.6 0 0 0 1.613-.156c-.77-2.14-1.854-5.142-3.055-8.41-1.438-4.033-2.841-8.172-4.066-12.375a47 47 0 0 0-.633-1.569c-2.588-6.08-5.257-11.946-6.79-15.433-1.531-3.488-1.927-4.597-2.312-5.76s-.76-2.378-.947-2.986-.186-.609-.336-1.414c-.15-.806-.45-2.417-.725-3.33s-.524-1.128-.906-1.254a3 3 0 0 0-1.017-.13" style="fill:#eec98e;fill-opacity:1;stroke-width:6.65278;stroke-linecap:round"/><path d="M116.72 117.188c-5.974 3.252-6.07 26.87 8.194 43.871.047-14.713.744-28.775 10.498-40.644-11-9.647-7.853-11.152-18.692-3.227m18.743 3.281c-.06 1.477-.494 16.654 6.652 27.58a28.21 28.21 0 0 0-6.652-27.58" style="fill:#bc4a9b;fill-opacity:1;stroke-width:6.65278;stroke-linecap:round"/><path d="M164.352 101.274c-2.34 20.966-28.48 27.608-14.373 65.11 0 0-24.789-23.686-16.576-58.158 2.788-11.701 4.31-20.34 18.348-27.72 9.664-5.08 16.574-6.102 19.219-3.735s.7 7.519-.805 11.062-4.852 4.835-5.813 13.441" style="fill:#bc4a9b;fill-opacity:1;stroke-width:3.03263;stroke-linecap:round"/><path d="M222.014-9.156v.002h-.002v.002h-.002v.002l-.002.002v.002l-.002.005q0 .05.118.207c-.067-.149-.103-.217-.106-.222h-.002zm.11.222c.42.948 2.07 5.15 4.252 17.043 2.953 16.094-4.044 29.387-5.726 29.608-27.91-32.03-50.03-7.687-82.027-1.354-7.497.977-11.938.024-17.054-3.66-7.85-6.006-6.072-12.044-6.15-12.326l-.002-.004v-.002l-.002-.002h-.002s-5.72 17.556 7.898 28.08l4.19 3.238c-12.915 1.697-41.669 16.6-39.85 63.78 1.076-10.29 5.949-18.633 15.574-22.627 0 0-.464 1.218-1.932 3.261-12.634 17.589-17.866 47.32 14.114 52.268-12.57-13.201-1.837-23.414 10.26-29.924 12.095-6.51 29.171-10.522 36.525-13.728 4.401-3.721 55.616-19.439 71.249-4.985 14.541 9.514 25.831 19.13 27.414 37.946l14.818 8.93c.857.97 2.1 2.721 3.176 5.134 1.075 2.413 1.984 5.486 2.351 8.469.15 1.218.21 2.421.197 3.605 3.55-30.98 8.911-61.148 6.512-68.804 8.388-11.3 28.38 21.262 28.38 21.262s-1.41-9.417-4.941-19.659c-3.532-10.242-9.187-21.31-17.681-24.613 0 0 4.38-1.603 11.136 1.209 6.616 2.851 12.016 7.105 17.095 12.234-9.84-16.863-21.235-42.014-54.141-39.678 7.704-6.795 6.8-19.095 5.135-31.042-1.67 9.738-17.017 22.033-28.689 25.318l-2.029.57c12.284-17-17.925-46.677-20.05-49.547" style="fill:#bc4a9b;fill-opacity:1;stroke-width:.619563;stroke-linecap:round;stroke-linejoin:round"/><path d="M144.908 186.521c2.325 6.329 4.217 11.663 4.217 11.663-6.48-4.554-37.49-62.078-19.172-84.324 3.441-4.18 11.288 6.613 11.933 8.395.646 1.783-1.265 6.639-2.634 11.056-5.778 17.62-.362 36.337 5.656 53.21" style="fill:#bc4a9b;fill-opacity:1;stroke-width:5.5;stroke-linecap:round"/><path d="M222.014-9.156v.002h-.002v.002h-.002v.002l-.002.002v.003l-.002.002v.002q0 .05.117.207c-.066-.149-.103-.217-.106-.222h-.002zm.109.222c.421.948 2.072 5.15 4.254 17.043 2.953 16.094-4.044 29.387-5.727 29.608-27.91-32.03-50.03-7.687-82.027-1.354-7.497.977-11.939.024-17.055-3.66-7.85-6.006-6.07-12.044-6.148-12.326h-.002v-.006l-.002-.002h-.002s-5.721 17.556 7.896 28.08l4.19 3.239c-12.914 1.696-41.669 16.6-39.85 63.779 1.076-10.29 5.95-18.633 15.575-22.627 0 0-.464 1.218-1.932 3.262-12.635 17.588-17.866 47.32 14.113 52.267-7.376-7.747-6.726-14.465-2.486-20.01-.143 9.19 3.19 22.205 11.994 32.7.016-5.177.113-10.271.656-15.22 4.534 23.641 19.31 49.361 23.555 52.345 0 0-1.892-5.334-4.217-11.663-4.535-12.715-8.728-26.478-8.047-40.029 5.397 12.514 13.118 19.893 13.118 19.893-9.8-26.048-.181-37.209 7.392-48.621-.4 4.75-.106 9.7.963 14.716 0 0 6.495-13.842 7.703-16.232 1.53-3.025.611 1.797-.195 5.922s-1.502 7.551-2.258 10.516c-.748 2.935-2.37 7.89-2.37 7.89l.018.031s1.423-1.545 3.893-4.71c2.494-3.197 6.766-8.812 9.61-12.782s4.261-6.296 5.122-8.164c.862-1.867 1.166-3.274 1.319-2.44 11.694 17.13 22.23 19.386 36.719 29.274-1.355-2.126-2.71-4.253-4.65-7.07-6.94-10.022-11.819-19.158-10.243-32.26 0 0 10.113 16.065 24.63 19.822-1.893-3.08-3.789-6.159-4.316-7.328s.315-.426 2.002.8c5.36 3.836 11.22 7.294 17.02 10.862-6.278-11.275-10.63-22.009-15.195-30.593 2.453.914 4.588 2.133 6.298 3.714 14.542 9.514 25.832 19.13 27.414 37.946l14.817 8.93c.857.97 2.102 2.721 3.178 5.134a31 31 0 0 1 2.35 8.469c.15 1.218.21 2.421.196 3.605 3.55-30.98 8.912-61.148 6.512-68.804 8.389-11.3 28.381 21.261 28.381 21.261s-1.41-9.416-4.941-19.658c-3.532-10.242-9.188-21.31-17.682-24.613 0 0 4.381-1.603 11.137 1.209 6.616 2.852 12.016 7.105 17.095 12.234-9.84-16.863-21.236-42.014-54.142-39.677 7.705-6.796 6.802-19.096 5.137-31.043-1.67 9.738-17.018 22.033-28.69 25.318l-2.03.57c12.285-17-17.925-46.677-20.05-49.547" style="fill:url(#B);fill-opacity:1;stroke-width:.619563;stroke-linecap:round;stroke-linejoin:round"/><path d="M271.21 149.768c.465-2.056.747-3.287 1.171-3.96.325-.514 1.866-1.61 3.82.644.843.97 2.063 2.723 3.118 5.136a31.4 31.4 0 0 1 2.31 8.468c1.196 8.985-2.14 17.043-7.926 23.722a73 73 0 0 1-6.573 6.573c-3.56 3.043-7.289 4.979-11.876 6.303-5.53 1.44-3.796-3.874-2.503-7.157 1.482-3.693 4.283-8.574 7.101-14.552 2.82-5.978 5.71-11.736 7.375-15.163s2.102-4.52 2.531-5.666c.43-1.148.85-2.348 1.061-2.949.183-.452.285-.926.391-1.4" style="opacity:1;fill:#f5dcb1;fill-opacity:1;stroke-width:5.5;stroke-linecap:round"/><path d="M273.941 145.088c-.81-.042-1.377.43-1.56.72-.27.428-.228.158-.467 1.108 6.072.565 11.328 15.77 5.184 28.715-2.595 4.433-5.87 7.665-8.56 10.076a35 35 0 0 0 4.085-.728q.548-.595 1.08-1.202c5.32-6.141 8.523-13.46 8.08-21.582l.031-.261a28 28 0 0 0-.185-1.877 31.4 31.4 0 0 0-2.309-8.47l-.072-.16-.002.009c-1.04-2.33-2.222-4.036-3.045-4.985-.855-.986-1.63-1.33-2.26-1.363z" style="fill:#eec98e;fill-opacity:1;stroke-width:.689602;stroke-linecap:round;stroke-linejoin:round"/><path d="M273.842 145.086c-.757-.001-1.286.445-1.461.723-.425.671-.706 1.903-1.17 3.959-.107.473-.21.948-.393 1.4-.21.6-.63 1.8-1.06 2.947s-.867 2.242-2.531 5.668-4.557 9.185-7.375 15.162q-.263.559-.526 1.106c-3.113 11.023-6.52 14.624-7.89 18.525.17.043.17.909.279 1.358q.073.142.168.265c4.596-7.395 19.533-31.097 23.54-50.496-.59-.456-1.127-.616-1.581-.617" style="fill:#eec98e;fill-opacity:1;stroke-width:5.5;stroke-linecap:round"/><path d="M281.846 146.04c5.889 22.378-4.544 33.616-11.3 39.668 13.148-1.56 21.875-9.526 23.97-25.884.189-1.477-3.026-8.354-3.065-9.884-4.288-5.143-2.98-2.933-9.605-3.9" style="fill:#bc4a9b;fill-opacity:1;stroke-width:.689602;stroke-linecap:round;stroke-linejoin:round"/><path d="M267.035 113.365c-2.828-.152-5.499 5.556-6.023 7.004-.495 1.365-1.034 5.622-.645 9.526l-1.293-1.6c3.98 17.869.905 38.704-1.86 48.72-3.814 13.818-6.029 16.598-7.394 21.84 0 0 19.155-29.045 23.576-52.818l.028.027-.026-.03c2.28-12.263 1.83-23.933-4.404-31.503-.645-.783-1.306-1.13-1.959-1.166" style="fill:#bc4a9b;fill-opacity:1;stroke-width:5.5;stroke-linecap:round"/><path d="M214.812 207.612c-4.32 2.765-9.358 3.385-14.389 3.634-5.993.22-9.417-.514-11.472-1.25-2.056-.736-3.264-1.265-3.264-1.265 3.75 3.646 10.173 4.31 16.056 3.663s11.227-2.605 12.816-4.204c.256-.404.253-.578.253-.578" style="fill:#f1b452;fill-opacity:1;stroke-width:1.0313"/><path d="M198.256 184.203c-.325 2.324-.562 4.672.19 6.931.384 1.04.908 2.026 1.32 3.428-.182-.258-.364-.516-.668-.972a23 23 0 0 1-1.23-2.049c-.5-.94-1.077-2.17-1.198-3.878-.198-2.783.776-6.494.705-9.812-.076-3.558-3.05-8.573-4.075-9.79 4.81 3.517 5.763 10.6 4.956 16.142" style="fill:#f1ac40;fill-opacity:1;stroke:none;stroke-width:4.57042;stroke-linecap:round;stroke-opacity:1"/><path d="M222.014-9.156v.002h-.002v.002h-.002v.002l-.002.002v.003l-.002.002v.002q0 .05.117.207c-.066-.149-.103-.217-.106-.222h-.002zm.109.222c.421.948 2.072 5.15 4.254 17.043 2.953 16.094-4.044 29.387-5.727 29.608-27.91-32.03-50.03-7.687-82.027-1.354-7.497.977-11.939.024-17.055-3.66-7.85-6.006-6.07-12.044-6.148-12.326h-.002v-.006l-.002-.002h-.002s-5.721 17.556 7.896 28.08l4.19 3.239c-4.835.635-11.889 3.127-18.729 8.466a140 140 0 0 0 93.72 35.994 140 140 0 0 0 98.224-40.238 45 45 0 0 0-3.729-2.863 65.026 117.194 82.686 0 0 .024-.024c-.101-.07-.219-.122-.32-.191a42 42 0 0 0-4.198-2.504c-.23-.119-.484-.213-.719-.328a41 41 0 0 0-3.941-1.68c-.513-.188-1.044-.353-1.572-.523a42 42 0 0 0-3.754-1.012c-.548-.122-1.086-.254-1.65-.357-3.957-.723-8.285-1.002-13.1-.66 7.705-6.796 6.802-19.096 5.137-31.043-1.67 9.738-17.018 22.033-28.69 25.318l-2.03.57c12.285-17-17.925-46.677-20.05-49.547" style="opacity:1;mix-blend-mode:overlay;fill:url(#C);stroke:none;stroke-width:4.25391;stroke-linecap:round;stroke-opacity:1"/><path d="M222.014-9.156v.002h-.002v.002h-.002v.002l-.002.002v.003l-.002.002v.002c-.001.032.04.104.117.207-.066-.149-.103-.217-.106-.222h-.002zm.109.222c.421.949 2.072 5.15 4.254 17.043 2.929 15.967-3.935 29.179-5.686 29.6l-.04.008c-27.91-32.03-50.03-7.687-82.028-1.354-7.497.977-11.939.024-17.055-3.66-7.85-6.006-6.07-12.044-6.148-12.326h-.002v-.006l-.002-.002h-.002s-.068.21-.172.598c-.104.387-.244.952-.387 1.664v.002a33 33 0 0 0-.404 2.537c-.578 4.852-.409 12.543 4.61 19.05a23 23 0 0 0 1.917 2.178c.707.707 1.48 1.393 2.332 2.051l4.19 3.239c-5.65.742-14.333 4.013-22.16 11.408a50 50 0 0 0-6.408 7.384c-7.022 9.883-12.077 24.346-11.282 44.987q.203-1.93.584-3.764c1.785-8.544 6.57-15.368 14.99-18.863-.002.008-.468 1.225-1.931 3.262v.002c-3.159 4.397-5.856 9.554-7.623 14.892-.884 2.669-1.535 5.383-1.897 8.07-1.805 13.439 3.648 26.21 23.633 29.303a28 28 0 0 1-2.398-2.857c-4.759-6.552-3.798-12.301-.088-17.153-.143 9.19 3.19 22.205 11.994 32.7.016-5.176.113-10.27.656-15.217 4.534 23.64 19.31 49.358 23.555 52.342 0 0-1.892-5.334-4.217-11.662-4.535-12.716-8.728-26.48-8.047-40.03a69 69 0 0 0 4.326 8.387v.002c2.965 4.902 5.884 8.38 7.5 10.154v.002c.802.88 1.285 1.34 1.292 1.346-1.225-3.256-2.147-6.28-2.807-9.1a55 55 0 0 1-.799-4.08v-.002c-2.658-17.06 4.845-26.165 10.998-35.437-.4 4.75-.106 9.7.963 14.717.007-.015 6.495-13.844 7.703-16.233.454-.898.692-1.105.781-.844v.002c.21.624-.41 3.866-.976 6.764-.806 4.125-1.502 7.551-2.258 10.516-.748 2.935-2.37 7.89-2.37 7.89l.018.032s1.423-1.546 3.893-4.711c2.494-3.197 6.766-8.812 9.61-12.782s4.261-6.296 5.122-8.164c.7-1.517 1.031-2.73 1.213-2.683q.003 0 .006.002.003 0 .006.002l.014.011q.008.007.016.018a.6.6 0 0 1 .064.21c1.561 2.288 3.097 4.23 4.629 6.04.717.847 1.436 1.726 2.15 2.486.824.876 1.647 1.652 2.471 2.428a57 57 0 0 0 4.592 3.887 77 77 0 0 0 6.138 4.226h.002c5.126 3.176 10.574 6.002 16.737 10.207-1.355-2.126-2.71-4.253-4.65-7.07-6.94-10.021-11.818-19.158-10.243-32.26 0 0 .635 1.007 1.813 2.574.37.493 1.115 1.274 1.59 1.864 1.034 1.285 1.984 2.532 3.474 4.07l.002.002a56 56 0 0 0 3.578 3.389c.819.707 1.743 1.364 2.639 2.037.53.398 1.007.827 1.562 1.205l.002.002h.002a36.6 36.6 0 0 0 4.743 2.748c.215.103.442.183.66.281.625.283 1.25.568 1.896.809q1.309.488 2.67.842c-1.893-3.08-3.79-6.16-4.316-7.328-.264-.585-.186-.691.17-.499h.002c.355.194.987.686 1.83 1.3 5.359 3.835 11.22 7.292 17.02 10.86-6.278-11.274-10.631-22.009-15.196-30.593 2.454.914 4.589 2.134 6.299 3.715 8.928 5.84 16.63 11.722 21.613 19.746a37.8 37.8 0 0 1 4.02 8.816c3.98 17.869.905 38.705-1.86 48.72-1.846 6.69-3.318 10.793-4.5 13.84q-.248.641-.48 1.225c-.372.938-.71 1.773-1.022 2.578-.54 1.397-1.009 2.725-1.392 4.198 0 0 2.051-3.112 4.967-8.131 2.423-4.105 5.605-9.854 9.078-17.252v-.002c4.063-8.657 7.855-18.424 9.531-27.434l.021.02-.019-.024q.067-.359.13-.716l.038-.211a2 2 0 0 1 .268-.02c.647-.002 1.462.322 2.367 1.365.842.971 2.063 2.724 3.119 5.137a31.4 31.4 0 0 1 2.308 8.469q.06.442.104.88.199 1.971.115 3.878v.004q0 .022-.002.043a27 27 0 0 1-.387 3.363c-.018.113-.018.23-.039.342-.037.202-.11.394-.152.596a28 28 0 0 1-.629 2.445c-.057.186-.085.381-.146.566-.039.117-.097.226-.137.342a30 30 0 0 1-1.25 3.115l-.002.004a35 35 0 0 1-2.053 3.104 39 39 0 0 1-2.19 2.69c-1.479 1.663-2.97 3.073-4.316 4.279l.56-.07c1.027-.138 1.976-.384 2.946-.602.751-.17 1.522-.31 2.238-.528q.483-.148.954-.31c.324-.112.648-.223.964-.346.358-.138.706-.289 1.053-.441.313-.138.627-.275.932-.424.343-.168.677-.35 1.01-.531.29-.16.582-.316.865-.487.325-.196.639-.408.953-.619.273-.184.548-.365.812-.56.301-.222.59-.46.88-.698.259-.212.522-.42.773-.644.279-.25.544-.518.812-.783.235-.233.475-.46.701-.704.277-.298.538-.617.801-.933.2-.24.404-.471.596-.72.249-.325.48-.673.717-1.015.19-.277.388-.545.57-.834.23-.363.442-.75.658-1.132.16-.282.325-.554.477-.846.228-.44.438-.907.648-1.371.116-.255.24-.498.35-.76.435-1.034.772-2.197 1.12-3.344.166-.542.379-1.024.524-1.591a46 46 0 0 0 1.057-5.59l.002-.016v-.002c.307-2.395.561-4.86.65-7.357v-.002c.045-1.25.048-2.507-.004-3.768-.103-2.522-.429-5.06-1.086-7.574a30 30 0 0 0-1.246-3.748l-.002-.002a29.2 29.2 0 0 0-4.328-7.291c-1.472-1.827-2.304-2.906-2.375-3.315l.018-.136q.053-.075.236-.043a2.4 2.4 0 0 1 .498.166l.002.002c.706.302 1.918.983 3.692 2.007 9.224 6.015 13.767 11.815 14.304 22.028a36 36 0 0 0 1.59-3.225c.162-.372.289-.757.438-1.135.29-.731.578-1.463.82-2.212.156-.484.276-.978.412-1.467.183-.657.367-1.313.514-1.98.12-.546.21-1.098.306-1.65.11-.623.216-1.248.295-1.878.076-.606.127-1.217.174-1.828.045-.568.083-1.137.104-1.71a41 41 0 0 0-.034-3.538 42 42 0 0 0-.173-2.27c-.043-.41-.1-.821-.155-1.232a43 43 0 0 0-.402-2.504c-.06-.305-.133-.608-.2-.912a44 44 0 0 0-.693-2.819c-.032-.115-.073-.228-.107-.343-2.386-8.058-7.13-15.824-14.21-22.196l-.009-.007c-.147-.132-.283-.27-.432-.4l-.013-.013c-1.36-1.195-2.777-2.355-4.305-3.44a6 6 0 0 1 .451-.376c.068-.05.138-.094.207-.14q.097-.067.196-.127.043-.03.087-.057.101-.06.204-.111.048-.026.097-.05.104-.052.21-.099l.01-.006q.089-.04.179-.076.12-.046.244-.084.108-.037.217-.068l.078-.024q.21-.053.424-.09.044-.01.092-.02a5 5 0 0 1 .533-.05c.068-.003.138-.001.207-.002l.101.002q.097 0 .194.002h.04c.048.002.097.014.145.018q.35.023.707.086c.017.003.033.002.049.006q.089.016.178.037c.042.009.085.025.127.035q.316.07.638.17c.051.015.1.024.15.04.044.015.088.038.132.053.196.069.396.158.595.24.165.07.328.122.494.2.105.05.212.111.317.164.127.064.255.137.383.205.147.08.292.152.441.238.644.374 1.296.83 1.951 1.315.978.722 1.955 1.566 2.932 2.476a58 58 0 0 1 4.047 4.168v.002c2.874 3.279 5.473 6.811 7.36 9.53l.005.01a112 112 0 0 1 3.07 4.642c0-.008-.354-2.364-1.148-5.998-.794-3.633-2.029-8.543-3.793-13.66-.65-1.885-1.453-3.784-2.252-5.672-.147-.347-.262-.696-.414-1.04q0-.003-.002-.005c-.348-.79-.729-1.526-1.105-2.299l-.012-.023a55 55 0 0 0-2.43-4.461c-.66-1.092-1.313-2.172-2.043-3.164l-.006-.008c-.251-.342-.49-.7-.75-1.027-.247-.312-.503-.602-.758-.899l-.011-.013a28 28 0 0 0-1.578-1.698l-.004-.004c-.404-.398-.806-.797-1.227-1.158h-.002c-.125-.107-.248-.218-.375-.322a19.4 19.4 0 0 0-2.855-1.936c-.136-.074-.27-.154-.407-.224q0-.001-.002-.002a16 16 0 0 0-1.449-.658c.001 0 .077-.027.215-.067.203-.058.592-.14 1.064-.217.158-.025.286-.054.471-.076.116-.013.268-.016.395-.027.288-.026.57-.056.912-.065.481-.011 1.012 0 1.593.043.322.024.692.087 1.041.133.294.039.563.057.875.114.678.122 1.4.29 2.163.515s1.567.506 2.408.856c4.961 2.138 9.24 5.066 13.213 8.56a78 78 0 0 1 3.882 3.674c-2.361-4.048-4.835-8.568-7.652-13.076-.518-.83-1.084-1.618-1.629-2.444-.928-1.406-1.862-2.798-2.88-4.167-.676-.909-1.422-1.76-2.143-2.641-1.208-1.477-2.416-2.948-3.772-4.315-.257-.26-.504-.524-.767-.779a51 51 0 0 0-1.809-1.642c-.443-.39-.878-.786-1.338-1.16-.655-.534-1.347-1.032-2.037-1.532-.456-.33-.895-.677-1.367-.992-.803-.535-1.653-1.02-2.504-1.506-.41-.234-.797-.493-1.219-.715a41 41 0 0 0-4.015-1.843l-.01-.004c-.242-.096-.51-.161-.756-.252q-.046-.016-.094-.032a41 41 0 0 0-3.54-1.152c-.536-.144-1.112-.238-1.663-.363l-.03-.006c-1.008-.23-2.018-.457-3.081-.621-.574-.088-1.187-.13-1.778-.197q-.18-.02-.361-.04c-.797-.085-1.561-.213-2.389-.261h-.002l-.361.025c-2.214-.115-4.503-.136-6.945.037q.722-.637 1.345-1.338a16.3 16.3 0 0 0 2.133-3.027 19.4 19.4 0 0 0 1.463-3.44c.58-1.811.942-3.753 1.14-5.785.53-5.417-.112-11.48-.945-17.453-.417 2.435-1.69 5.028-3.547 7.602v.002a38 38 0 0 1-3.187 3.82 50 50 0 0 1-3.86 3.656c-5.504 4.702-12.26 8.596-18.095 10.239l-2.03.57c12.283-17.001-17.925-46.678-20.05-49.548" style="display:inline;mix-blend-mode:multiply;fill:url(#D);fill-opacity:1;stroke-width:.689602;stroke-linecap:round;stroke-linejoin:round"/><path d="M275.078 45.705a65.026 117.194 82.686 0 1-75.732 26.922 65.026 117.194 82.686 0 1-91.828-11.467c-4.283 3.582-8.42 8.317-11.807 14.455a65.026 117.194 82.686 0 0 106.78 20.533 65.026 117.194 82.686 0 0 94.519-43.125c-5.863-4.028-12.992-6.795-21.932-7.318" style="opacity:1;fill:url(#E);fill-opacity:1;stroke:none;stroke-width:6.06592;stroke-linecap:round;stroke-opacity:1"/><path d="M275.064 45.705a90.29 90.29 0 0 0-88.712 73.559c9.75 11.221 19.216 14.109 31.543 22.521-1.355-2.126-2.71-4.253-4.65-7.07-6.94-10.022-11.819-19.158-10.243-32.26 0 0 .635 1.007 1.812 2.574.37.493 1.116 1.274 1.59 1.864 1.035 1.285 1.985 2.532 3.475 4.07l.002.002a56 56 0 0 0 3.578 3.389c.818.707 1.742 1.364 2.639 2.037.53.398 1.006.827 1.562 1.205l.002.002h.002a36.6 36.6 0 0 0 4.742 2.748c.216.103.443.183.66.281.626.283 1.25.568 1.897.809q1.309.488 2.67.841c-1.894-3.08-3.79-6.159-4.316-7.328-.527-1.169.315-.426 2.002.801 5.358 3.835 11.22 7.293 17.019 10.861-6.278-11.275-10.63-22.009-15.195-30.593 2.453.914 4.589 2.134 6.299 3.715 11.904 7.788 21.628 15.645 25.632 28.562 3.98 17.869.906 38.704-1.859 48.72a167 167 0 0 1-2.43 8.079c-1.358 4.104-2.446 6.702-3.322 8.924-.645 1.638-1.2 3.141-1.643 4.838 0 0 .704-1.068 1.874-2.961 4.93-7.983 18.129-30.643 21.703-49.858l.027.027-.025-.03q.067-.36.13-.717l.038-.211a2 2 0 0 1 .267-.02c.648-.002 1.463.322 2.367 1.365.842.971 2.064 2.724 3.12 5.137a31.4 31.4 0 0 1 2.308 8.469q.06.441.104.88.197 1.971.115 3.878v.004c-.012.289-.076.564-.098.851-.073.975-.154 1.949-.33 2.897a28 28 0 0 1-.928 3.607 30 30 0 0 1-1.386 3.457l-.002.004c-2.594 4.431-5.868 7.662-8.559 10.072q.818-.096 1.613-.226c3.062-.502 5.864-1.377 8.377-2.65q.944-.48 1.832-1.032a22.6 22.6 0 0 0 3.323-2.523 23 23 0 0 0 2.855-3.153q.653-.869 1.244-1.82c1.576-2.536 2.816-5.512 3.692-8.957a46 46 0 0 0 1.035-5.521q0-.007.002-.016v-.002c1.226-9.584 1.608-20.28-6.016-29.742-1.472-1.827-2.304-2.907-2.375-3.315l.018-.136c.189-.27 1.587.491 4.427 2.132 9.224 6.015 13.768 11.815 14.305 22.028 9.79-17.467 4.264-42.304-16.08-56.76 4.414-4.069 11.287 1.494 17.057 8.076v.002c5.768 6.582 10.434 14.18 10.435 14.182 0-.008-.354-2.365-1.148-5.998s-2.029-8.544-3.793-13.66c-3.532-10.242-9.188-21.31-17.682-24.614.011-.004 4.39-1.6 11.137 1.21 4.962 2.138 9.241 5.066 13.213 8.56a78 78 0 0 1 3.883 3.674c-9.074-15.55-19.471-38.146-46.834-39.74Z" style="opacity:1;fill:url(#F);fill-opacity:1;stroke:none;stroke-width:5.5;stroke-linecap:round;stroke-opacity:1"/><path d="M275.064 45.705a90.29 90.29 0 0 0-88.712 73.559c9.75 11.221 19.216 14.109 31.543 22.521-1.355-2.126-2.71-4.253-4.65-7.07-6.94-10.022-11.819-19.158-10.243-32.26 0 0 .635 1.007 1.812 2.574.37.493 1.116 1.274 1.59 1.864 1.035 1.285 1.985 2.532 3.475 4.07l.002.002a56 56 0 0 0 3.578 3.389c.818.707 1.742 1.364 2.639 2.037.53.398 1.006.827 1.562 1.205l.002.002h.002a36.6 36.6 0 0 0 4.742 2.748c.216.103.443.183.66.281.626.283 1.25.568 1.897.809q1.309.488 2.67.841c-1.894-3.08-3.79-6.159-4.316-7.328-.527-1.169.315-.426 2.002.801 5.358 3.835 11.22 7.293 17.019 10.861-6.278-11.275-10.63-22.009-15.195-30.593 2.453.914 4.589 2.134 6.299 3.715 11.904 7.788 21.628 15.645 25.632 28.562 3.98 17.869.906 38.704-1.859 48.72a167 167 0 0 1-2.43 8.079c-1.358 4.104-2.446 6.702-3.322 8.924-.645 1.638-1.2 3.141-1.643 4.838 0 0 .704-1.068 1.874-2.961 4.93-7.983 18.129-30.643 21.703-49.858l.027.027-.025-.03q.067-.36.13-.717l.038-.211a2 2 0 0 1 .267-.02c.648-.002 1.463.322 2.367 1.365.842.971 2.064 2.724 3.12 5.137a31.4 31.4 0 0 1 2.308 8.469q.06.441.104.88.197 1.971.115 3.878v.004c-.012.289-.076.564-.098.851-.073.975-.154 1.949-.33 2.897a28 28 0 0 1-.928 3.607 30 30 0 0 1-1.386 3.457l-.002.004c-2.594 4.431-5.868 7.662-8.559 10.072q.818-.096 1.613-.226c3.062-.502 5.864-1.377 8.377-2.65q.944-.48 1.832-1.032a22.6 22.6 0 0 0 3.323-2.523 23 23 0 0 0 2.855-3.153q.653-.869 1.244-1.82c1.576-2.536 2.816-5.512 3.692-8.957a46 46 0 0 0 1.035-5.521q0-.007.002-.016v-.002c1.226-9.584 1.608-20.28-6.016-29.742-1.472-1.827-2.304-2.907-2.375-3.315l.018-.136c.189-.27 1.587.491 4.427 2.132 9.224 6.015 13.768 11.815 14.305 22.028 9.79-17.467 4.264-42.304-16.08-56.76 4.414-4.069 11.287 1.494 17.057 8.076v.002c5.768 6.582 10.434 14.18 10.435 14.182 0-.008-.354-2.365-1.148-5.998s-2.029-8.544-3.793-13.66c-3.532-10.242-9.188-21.31-17.682-24.614.011-.004 4.39-1.6 11.137 1.21 4.962 2.138 9.241 5.066 13.213 8.56a78 78 0 0 1 3.883 3.674c-9.074-15.55-19.471-38.146-46.834-39.74Z" style="opacity:1;mix-blend-mode:multiply;fill:url(#G);fill-opacity:1;stroke:none;stroke-width:5.5;stroke-linecap:round;stroke-opacity:1"/><path d="M115.414 20.37s-3.083 9.458.662 18.651a17.84 17.84 0 0 0 10.596-3.486c-1.72-.652-3.374-1.586-5.104-2.832-7.85-6.006-6.07-12.044-6.148-12.326h-.002v-.006l-.002-.002z" style="opacity:1;fill:url(#H);fill-opacity:1;stroke:none;stroke-width:5.5;stroke-linecap:round;stroke-opacity:1"/><path d="M297.414 53.352a79.89 79.89 0 0 0-36.402 67.017 79.9 79.9 0 0 0 9.267 37.35c1.324-3.935 2.41-7.876 3.117-11.682l.028.027-.026-.03q.068-.36.131-.718l.037-.21a2 2 0 0 1 .268-.02c.648-.002 1.463.322 2.367 1.365.842.971 2.063 2.724 3.12 5.137a31.4 31.4 0 0 1 2.308 8.469q.06.441.103.88.198 1.97.116 3.877v.004c-.013.29-.076.565-.098.852-.073.975-.154 1.949-.33 2.897a28 28 0 0 1-1.043 3.949 80 80 0 0 0 5.926 6.176 23 23 0 0 0 2.242-2.569q.653-.869 1.244-1.82c1.576-2.536 2.816-5.512 3.691-8.957a46 46 0 0 0 1.036-5.522q0-.007.002-.015v-.002c1.226-9.584 1.608-20.28-6.016-29.742-1.472-1.828-2.304-2.907-2.375-3.315l.018-.137c.189-.268 1.587.492 4.427 2.133 9.224 6.015 13.768 11.815 14.305 22.028 8.973-16.007 5.042-38.182-11.33-52.907l.035-.025c-.146-.131-.319-.245-.467-.375-1.364-1.2-2.785-2.364-4.318-3.453q.222-.203.451-.375c.068-.051.138-.094.207-.14q.14-.099.283-.184.101-.059.203-.112.157-.083.317-.154.09-.04.18-.076.166-.064.337-.115.1-.033.202-.061.21-.055.423-.09c.031-.005.061-.015.092-.02q.263-.038.533-.05.104-.002.207-.002.168-.003.336.004.444.022.9.11.09.017.178.036.453.094.917.246.603.201 1.22.493c.105.049.211.11.317.164q.409.204.824.443c2.96 1.716 6.08 4.707 8.93 7.959v.002c5.768 6.581 10.434 14.18 10.435 14.182 0-.008-.354-2.365-1.148-5.999s-2.029-8.543-3.793-13.66c-.65-1.885-1.454-3.784-2.252-5.672l.076-.025c-.148-.35-.34-.672-.492-1.02-.352-.798-.737-1.54-1.117-2.322a55 55 0 0 0-2.428-4.459c-.663-1.095-1.318-2.178-2.051-3.174-.252-.341-.49-.7-.75-1.027-.25-.316-.51-.61-.77-.912a28 28 0 0 0-1.578-1.697c-.405-.4-.809-.8-1.232-1.162-.125-.107-.248-.219-.375-.323a19.4 19.4 0 0 0-2.856-1.935c-.136-.075-.27-.156-.408-.227a16 16 0 0 0-1.449-.658c.01-.004 4.39-1.6 11.137 1.209 4.961 2.139 9.24 5.067 13.213 8.56a78 78 0 0 1 3.882 3.674c-2.361-4.047-4.835-8.568-7.652-13.076-.518-.83-1.084-1.617-1.629-2.443-.928-1.406-1.862-2.798-2.88-4.168-.676-.909-1.422-1.76-2.143-2.64-1.208-1.477-2.417-2.948-3.772-4.315-.257-.26-.504-.525-.767-.78a51 51 0 0 0-1.809-1.642c-.443-.39-.878-.786-1.338-1.16-.655-.534-1.347-1.031-2.037-1.531q-.23-.168-.457-.338z" style="mix-blend-mode:multiply;fill:url(#I);stroke-width:2.6733;stroke-linecap:round"/><path d="M-287.373 263.348c3.913 6.61 12.422 7.59 16.248 7.902 3.2.26 9.701-1.082 14.048-4.435 2.902-2.24 5.23-5.569 6.982-8.574 1.753-3.005 2.932-5.686 2.74-7.395s-1.753-2.445-5.274-2.74-9-.147-14.039.663-9.634 2.283-12.698 3.882c-3.064 1.598-4.596 3.322-5.716 4.721s-1.827 2.475-2.232 3.248-.508 1.245-.53 1.55.036.442.471 1.178" style="opacity:1;fill:url(#J);fill-opacity:1;stroke:none;stroke-width:5.5;stroke-linecap:round;stroke-opacity:1" transform="rotate(3.216 1848.165 9240.56)scale(1.02545)"/><path d="M-256.729 247.967c-.975.005-2.057.076-3.115.13-2.226.117-4.558.308-6.824.673-5.038.81-9.633 2.282-12.697 3.88-1.149.6-2.03 1.216-2.807 1.827-.259.203-.555.408-.781.609a16 16 0 0 0-1.193 1.182c-.35.383-.654.753-.934 1.103.25-.107.36-.104.371-.103-.063.01-1.985 2.519-3.1 5.253q.015.044.036.09c2.86-5.615 9.172-8.36 15.62-9.986 7.18-1.811 15.923-1.75 21.702.693 1.552.657 1.805 1.835-.928 6.842.418-.646.916-1.287 1.283-1.918.876-1.502 1.61-2.924 2.1-4.183v-.002q.184-.473.32-.912c.181-.587.296-1.128.33-1.614a3.7 3.7 0 0 0-.01-.685 2.5 2.5 0 0 0-.136-.596 2.15 2.15 0 0 0-.461-.736l-.002-.002a2.6 2.6 0 0 0-.377-.317c-.037-.026-.07-.053-.11-.078h-.002a4 4 0 0 0-.3-.172c-.855-.434-2.125-.692-3.885-.84a47 47 0 0 0-4.1-.138z" style="opacity:1;mix-blend-mode:multiply;fill:#ddcec8;fill-opacity:1;stroke:none;stroke-width:5.5;stroke-linecap:round;stroke-opacity:1" transform="rotate(3.216 1848.165 9240.56)scale(1.02545)"/><path d="M-261.434 248.636c.981 3.132 1.164 6.342.472 9.294-2.02 8.616-12.013 13.84-18.275 9.003-2.08-1.606-3.614-4.177-4.254-7.417-.353-1.79-.295-3.529-.236-5.267 1.415-1.09 2.829-2.18 4.45-3.197s3.446-1.959 5.649-2.548c2.202-.59 4.78-.825 6.695-1.002s3.167-.295 4.42-.412" style="opacity:1;fill:url(#K);fill-opacity:1;stroke-width:5.5;stroke-linecap:round" transform="rotate(3.216 1848.165 9240.56)scale(1.02545)"/><path d="M-271.372 247.432v.87a6.642 7.684 0 0 1 4.7 7.348 6.642 7.684 0 0 1-6.641 7.684 6.642 7.684 0 0 1-6.642-7.684 6.642 7.684 0 0 1 1.81-5.273h-.953a7.364 8.52 0 0 0-1.58 5.273 7.364 8.52 0 0 0 7.365 8.52 7.364 8.52 0 0 0 7.364-8.52 7.364 8.52 0 0 0-5.423-8.218" style="opacity:1;fill:#b8b7b2;fill-opacity:1;stroke-width:5.73117;stroke-linecap:round" transform="rotate(3.216 1848.165 9240.56)scale(1.02545)"/><path d="M-249.553 262.335c-5.368 7.077-13.185 9.324-21.572 8.915.792 0 1.583 0 2.938-.146 7.495-.807 13.73-7.035 16.447-12.229 3.228-5.725 2.924-6.856 1.289-7.547-5.78-2.443-14.52-2.506-21.701-.695-7.651 1.93-14.345 6.487-16.348 14.117-.768-3.587 3.728-9.501 3.792-9.474 0 0-.822-.07-3.573 2.599 1.01-1.675 1.7-2.6 3.46-4.095 1.24-1.053 2.847-2.17 4.593-3.289 11.27-7.219 23.357-5.541 25.228-5.224 3.88.656 14.326 1.636 14.326 1.636s-4.36 9.557-8.879 15.432" style="opacity:1;fill:#030000;fill-opacity:1;stroke:none;stroke-width:5.5;stroke-linecap:round;stroke-opacity:1" transform="rotate(3.216 1848.165 9240.56)scale(1.02545)"/><path d="M-273.089 256.338c1.19 0 1.087-3.276 0-3.276s-1.19 3.276 0 3.276" style="display:inline;fill:#30352e;fill-opacity:1;stroke-width:6.49083;stroke-linecap:round" transform="rotate(3.216 1848.165 9240.56)scale(1.02545)"/><path d="M-261.434 248.636c.981 3.132 1.164 6.342.472 9.294-2.02 8.616-12.013 13.84-18.275 9.003-2.08-1.606-3.614-4.177-4.254-7.417-.353-1.79-.295-3.529-.236-5.267 1.415-1.09 2.829-2.18 4.45-3.197s3.446-1.959 5.649-2.548c2.202-.59 4.78-.825 6.695-1.002s3.167-.295 4.42-.412" style="opacity:1;mix-blend-mode:multiply;fill:url(#L);fill-opacity:1;stroke-width:5.5;stroke-linecap:round" transform="rotate(3.216 1848.165 9240.56)scale(1.02545)"/><path d="M-261.684 248.28c-1.658.119-3.33.223-4.984.49-5.038.81-9.633 2.282-12.697 3.88-1.149.6-2.03 1.216-2.807 1.827-.259.203-.555.408-.781.609q-.443.396-.817.781c-.007.627.003 1.255.05 1.889 3.175-2.52 7.342-4.065 11.568-5.131 3.588-.905 7.565-1.342 11.369-1.248a20 20 0 0 0-.65-2.74z" style="opacity:1;mix-blend-mode:multiply;fill:#989c94;fill-opacity:1;stroke:none;stroke-width:5.5;stroke-linecap:round;stroke-opacity:1" transform="rotate(3.216 1848.165 9240.56)scale(1.02545)"/><path d="M-26.361 402.085c6.024-.63 12.036-.528 18.142 1.387-.315.03-.63.061-1.793-.064-21.134-2.27-42.79 5.663-48.784 9.21 7.983-7.55 21.785-9.269 32.435-10.533" style="fill:url(#M);fill-opacity:1;stroke-width:5.21656;stroke-linecap:round" transform="translate(268.7 -261.63)"/><path d="M152.178 140.456c-6.024-.63-12.036-.529-18.142 1.386.315.03.63.061 1.793-.064 21.135-2.269 42.79 5.664 48.784 9.21-7.983-7.55-21.785-9.269-32.435-10.532" style="fill:url(#N);fill-opacity:1;stroke-width:5.21656;stroke-linecap:round"/><path d="M201.186 146.04a93.34 93.34 0 0 0-63.717 25.13c2.605 8.363 6.215 16.505 10.367 24.568 2.75 5.499 5.291 9.417 8.865 13.162 8.382 8.786 33.713 26.08 39.897 28.678 2.37.997 3.196 1.064 5.464.377s5.98-2.13 10.756-4.81c14.791-8.881 29.175-20.477 37.809-35.641 1.414-2.576 1.812-3.671 4.889-10.156 2.03-4.278 5.224-10.9 8.168-17.297a93.34 93.34 0 0 0-62.498-24.012" style="opacity:1;mix-blend-mode:multiply;fill:url(#O);stroke-width:5.5;stroke-linecap:round"/><path d="M-287.373 263.348c3.913 6.61 12.422 7.59 16.248 7.902 3.2.26 9.701-1.082 14.048-4.435 2.902-2.24 5.23-5.569 6.982-8.574 1.753-3.005 2.932-5.686 2.74-7.395s-1.753-2.445-5.274-2.74-9-.147-14.039.663-9.634 2.283-12.698 3.882c-3.064 1.598-4.596 3.322-5.716 4.721s-1.827 2.475-2.232 3.248-.508 1.245-.53 1.55.036.442.471 1.178" style="opacity:1;fill:url(#P);fill-opacity:1;stroke:none;stroke-width:5.5;stroke-linecap:round;stroke-opacity:1" transform="rotate(176.784 -62.11 -46.339)scale(1.02545 -1.02545)"/><path d="M-256.729 247.967c-.975.005-2.057.076-3.115.13-2.226.117-4.558.308-6.824.673-5.038.81-9.633 2.282-12.697 3.88-1.149.6-2.03 1.216-2.807 1.827-.259.203-.555.408-.781.609a16 16 0 0 0-1.193 1.182c-.35.383-.654.753-.934 1.103.25-.107.36-.104.371-.103-.063.01-1.985 2.519-3.1 5.253q.015.044.036.09c2.86-5.615 9.172-8.36 15.62-9.986 7.18-1.811 15.923-1.75 21.702.693 1.552.657 1.805 1.835-.928 6.842.418-.646.916-1.287 1.283-1.918.876-1.502 1.61-2.924 2.1-4.183v-.002q.184-.473.32-.912c.181-.587.296-1.128.33-1.614a3.7 3.7 0 0 0-.01-.685 2.5 2.5 0 0 0-.136-.596 2.15 2.15 0 0 0-.461-.736l-.002-.002a2.6 2.6 0 0 0-.377-.317c-.037-.026-.07-.053-.11-.078h-.002a4 4 0 0 0-.3-.172c-.855-.434-2.125-.692-3.885-.84a47 47 0 0 0-4.1-.138z" style="opacity:1;mix-blend-mode:multiply;fill:#ddcec8;fill-opacity:1;stroke:none;stroke-width:5.5;stroke-linecap:round;stroke-opacity:1" transform="rotate(176.784 -62.11 -46.339)scale(1.02545 -1.02545)"/><path d="M-261.434 248.636c.981 3.132 1.164 6.342.472 9.294-2.02 8.616-12.013 13.84-18.275 9.003-2.08-1.606-3.614-4.177-4.254-7.417-.353-1.79-.295-3.529-.236-5.267 1.415-1.09 2.829-2.18 4.45-3.197s3.446-1.959 5.649-2.548c2.202-.59 4.78-.825 6.695-1.002s3.167-.295 4.42-.412" style="opacity:1;fill:url(#Q);fill-opacity:1;stroke-width:5.5;stroke-linecap:round" transform="rotate(176.784 -62.11 -46.339)scale(1.02545 -1.02545)"/><path d="M-271.372 247.432v.87a6.642 7.684 0 0 1 4.7 7.348 6.642 7.684 0 0 1-6.641 7.684 6.642 7.684 0 0 1-6.642-7.684 6.642 7.684 0 0 1 1.81-5.273h-.953a7.364 8.52 0 0 0-1.58 5.273 7.364 8.52 0 0 0 7.365 8.52 7.364 8.52 0 0 0 7.364-8.52 7.364 8.52 0 0 0-5.423-8.218" style="opacity:1;fill:#b8b7b2;fill-opacity:1;stroke-width:5.73117;stroke-linecap:round" transform="rotate(176.784 -62.11 -46.339)scale(1.02545 -1.02545)"/><path d="M-249.553 262.335c-5.368 7.077-13.185 9.324-21.572 8.915.792 0 1.583 0 2.938-.146 7.495-.807 13.73-7.035 16.447-12.229 3.228-5.725 2.924-6.856 1.289-7.547-5.78-2.443-14.52-2.506-21.701-.695-7.651 1.93-14.345 6.487-16.348 14.117-.768-3.587 3.728-9.501 3.792-9.474 0 0-.822-.07-3.573 2.599 1.01-1.675 1.7-2.6 3.46-4.095 1.24-1.053 2.847-2.17 4.593-3.289 11.27-7.219 23.357-5.541 25.228-5.224 3.88.656 14.326 1.636 14.326 1.636s-4.36 9.557-8.879 15.432" style="opacity:1;fill:#030000;fill-opacity:1;stroke:none;stroke-width:5.5;stroke-linecap:round;stroke-opacity:1" transform="rotate(176.784 -62.11 -46.339)scale(1.02545 -1.02545)"/><path d="M-273.089 256.338c1.19 0 1.087-3.276 0-3.276s-1.19 3.276 0 3.276" style="display:inline;fill:#30352e;fill-opacity:1;stroke-width:6.49083;stroke-linecap:round" transform="rotate(176.784 -62.11 -46.339)scale(1.02545 -1.02545)"/><path d="M-261.434 248.636c.981 3.132 1.164 6.342.472 9.294-2.02 8.616-12.013 13.84-18.275 9.003-2.08-1.606-3.614-4.177-4.254-7.417-.353-1.79-.295-3.529-.236-5.267 1.415-1.09 2.829-2.18 4.45-3.197s3.446-1.959 5.649-2.548c2.202-.59 4.78-.825 6.695-1.002s3.167-.295 4.42-.412" style="opacity:1;mix-blend-mode:multiply;fill:url(#R);fill-opacity:1;stroke-width:5.5;stroke-linecap:round" transform="rotate(176.784 -62.11 -46.339)scale(1.02545 -1.02545)"/><path d="M-261.684 248.28c-1.658.119-3.33.223-4.984.49-5.038.81-9.633 2.282-12.697 3.88-1.149.6-2.03 1.216-2.807 1.827-.259.203-.555.408-.781.609q-.443.396-.817.781c-.007.627.003 1.255.05 1.889 3.175-2.52 7.342-4.065 11.568-5.131 3.588-.905 7.565-1.342 11.369-1.248a20 20 0 0 0-.65-2.74z" style="opacity:1;mix-blend-mode:multiply;fill:#989c94;fill-opacity:1;stroke:none;stroke-width:5.5;stroke-linecap:round;stroke-opacity:1" transform="rotate(176.784 -62.11 -46.339)scale(1.02545 -1.02545)"/><path d="M-26.361 402.085c6.024-.63 12.036-.528 18.142 1.387-.315.03-.63.061-1.793-.064-21.134-2.27-42.79 5.663-48.784 9.21 7.983-7.55 21.785-9.269 32.435-10.533" style="fill:url(#S);fill-opacity:1;stroke-width:5.21656;stroke-linecap:round" transform="matrix(-1 0 0 1 125.817 -261.63)"/><path d="M102.291 66.248c-8.69 9.82-15.559 25.409-14.64 49.219q.2-1.93.583-3.764c1.785-8.544 6.57-15.368 14.99-18.863-.001.006-.467 1.223-1.931 3.262-5.944 8.275-10.25 19.239-9.813 29.044a36.42 36.42 0 0 0 21.434-33.19 36.42 36.42 0 0 0-10.623-25.708" style="mix-blend-mode:overlay;fill:url(#T);stroke-width:5.5;stroke-linecap:round"/><path d="M307.377 62.852a88 88 0 0 0-9.383 8.72c1.81.1 4.121.52 6.809 1.639 4.961 2.139 9.24 5.067 13.213 8.56a78 78 0 0 1 3.882 3.674c-2.361-4.047-4.835-8.568-7.652-13.076-.518-.83-1.084-1.617-1.629-2.443-.928-1.406-1.863-2.798-2.88-4.168-.676-.909-1.422-1.76-2.143-2.64zM296.36 73.379a87.98 87.98 0 0 0-21.922 58.111 88 88 0 0 0 1.182 14.377q.283.244.58.584c.842.971 2.063 2.724 3.12 5.137a31.4 31.4 0 0 1 2.308 8.469q.06.441.103.88.198 1.97.116 3.877v.004c-.013.29-.076.565-.098.852q-.03.395-.063.79a88 88 0 0 0 5.74 11.038q.58-.66 1.118-1.375.653-.87 1.244-1.82c1.576-2.536 2.816-5.512 3.691-8.957a46 46 0 0 0 1.036-5.522q0-.007.002-.015v-.002c1.226-9.584 1.608-20.28-6.016-29.742-1.472-1.828-2.304-2.907-2.375-3.315l.018-.137c.189-.268 1.587.492 4.427 2.133 9.224 6.015 13.768 11.815 14.305 22.028 8.973-16.007 5.042-38.182-11.33-52.907l.035-.025c-.146-.131-.32-.245-.467-.375-1.364-1.2-2.785-2.364-4.318-3.453q.222-.203.451-.375c.068-.051.138-.094.207-.14q.14-.099.283-.184.101-.059.203-.112.157-.083.317-.154.09-.04.18-.076c.11-.044.224-.08.337-.116q.1-.031.202-.06.21-.055.423-.09c.031-.005.061-.015.092-.02q.263-.038.533-.05.104-.003.207-.002.168-.003.336.004.444.022.9.11.09.017.178.036.454.094.916.246c.402.133.81.3 1.221.492.105.05.211.112.317.165q.409.204.824.443c2.96 1.716 6.08 4.707 8.93 7.959v.002c5.768 6.581 10.434 14.18 10.435 14.181-.001-.008-.354-2.364-1.148-5.998-.794-3.633-2.029-8.543-3.793-13.66-.65-1.885-1.454-3.784-2.252-5.672l.076-.025c-.148-.35-.34-.672-.492-1.02-.352-.798-.737-1.54-1.118-2.322a55 55 0 0 0-2.427-4.459c-.663-1.095-1.318-2.178-2.051-3.174-.252-.341-.49-.7-.75-1.027-.25-.316-.51-.61-.77-.912a28 28 0 0 0-1.578-1.697c-.405-.4-.809-.8-1.232-1.162-.125-.108-.248-.22-.375-.323a19 19 0 0 0-2.018-1.443" style="mix-blend-mode:multiply;fill:url(#U);stroke-width:10.6355;stroke-linecap:round"/><path d="M289.729 115.781a59.988 60.63 0 0 0-31.833 9.24 38 38 0 0 1 1.178 3.274c3.98 17.869.906 38.704-1.86 48.72-1.846 6.69-3.317 10.793-4.5 13.84-.459 1.184-.875 2.208-1.251 3.163l-.25.64c-.54 1.397-1.01 2.724-1.393 4.197 0 0 .704-1.067 1.873-2.96.092-.149.329-.627.426-.786 2.41-3.849 6.78-11.056 11.746-21.636v-.002c4.064-8.657 7.856-18.424 9.531-27.434l.028.027-.026-.03q.068-.36.131-.718l.037-.21a2 2 0 0 1 .268-.02c.648-.002 1.463.322 2.367 1.365.842.971 2.063 2.724 3.12 5.137a31.4 31.4 0 0 1 2.308 8.469q.06.442.103.88.198 1.97.116 3.877v.004c-.013.29-.076.565-.098.852-.073.975-.154 1.949-.33 2.897a28 28 0 0 1-.928 3.607 30 30 0 0 1-1.387 3.457v.002l-.002.002c-2.593 4.431-5.867 7.662-8.558 10.072q.818-.096 1.613-.226c3.061-.502 5.864-1.377 8.377-2.65q.943-.48 1.832-1.032a22.6 22.6 0 0 0 3.322-2.523 23 23 0 0 0 2.856-3.153q.653-.869 1.244-1.82c1.576-2.536 2.816-5.512 3.691-8.957a46 46 0 0 0 1.036-5.522q0-.007.002-.015v-.002c1.226-9.584 1.608-20.28-6.016-29.742-1.472-1.828-2.304-2.907-2.375-3.315l.018-.137c.188-.268 1.587.492 4.427 2.133 9.224 6.015 13.768 11.815 14.305 22.028 5.354-9.551 6.114-21.298 2.379-32.348a59.988 60.63 0 0 0-17.527-2.645z" style="mix-blend-mode:multiply;fill:url(#V);stroke-width:5.5;stroke-linecap:round"/><path d="M270.951 169.334c5 4.882-1.149 7.243-4.647 8.645-.65.25-1.134.51-1.076.577 1.5 1.725 12.395-3.016 7.593-9.862-.933-1.33-1.985-1.98-2.512-1.891-.526.087-.527.912.642 2.531M128.083 171.914c-4.999 4.883 1.15 7.243 4.647 8.645.65.251 1.135.51 1.077.577-1.5 1.725-12.396-3.016-7.593-9.862.932-1.33 1.985-1.979 2.511-1.891.527.087.528.912-.642 2.531" style="fill:#eec98e;fill-opacity:1;stroke-width:.152337"/></g></svg>