<svg xmlns="http://www.w3.org/2000/svg" xml:space="preserve" width="1840" height="3400"><path fill="#fff" stroke="#000" stroke-width="1.298" d="M.704.704h1838.591V3400H.704z"/><path d="M920 62.283c-.032.004-.258.032-.795.106-43.037 5.842-83.522 25.922-111.34 56.879l-.01.011-.012.01c-27.127 32.25-41.805 69.336-45.876 115.854-.833 9.53-.863 23.39-.342 35.797.26 6.203.657 12.037 1.164 16.785s1.091 8.362 1.853 10.348c.163.426.067.88-.605 1.593-.673.715-1.904 1.536-3.615 2.305-7.596 3.418-12.4 10.264-13.61 19.287-1.553 11.58 6.663 26.867 23.451 44.703 12.646 13.435 14.085 15.71 19.452 30.871 10.336 33.82 27.411 59.976 49.5 81.452 5.914 14.254 9.437 32.484 9.437 49.632 0 16.592-2.035 27.592-8.469 36.696s-17.393 16.427-35.447 25.353c-.238.118-1.108.474-2.432.977-.342.116-5.353 2.076-5.7 2.193-16.002 5.4-37.08 12.258-58.714 18.746-32.688 6.395-65.705 21.118-88.257 46.496-22.555 25.38-34.563 61.43-25.25 110.149.862 8.534 2.66 22.99 4.001 32.166 1.368 9.354 2.045 13.896 1.805 22.365-.24 8.47-1.406 20.878-3.746 45.803-3.398 36.195-5.289 61.412-6.482 86.535-.559 11.757-.464 39.712-.114 66.11.35 26.388.95 51.096 1.44 56.618l-.024 2.604-4.136 5.92c-14.26 20.196-17.796 19.771-36.43 54.414-10.143 18.857-14.1 36.874-15.982 61.354-3.935 51.14-8.421 83.697-17.905 129.882-1.072 5.223-1.597 8.486-1.642 10.067-2.446 10.351-6.21 26.556-7.912 33.101-7.05 27.127-10.073 35.95-16.627 48.52-5.7 9.165-9.314 15.8-11.41 21.513-2.101 5.726-2.663 10.541-2.262 15.93.603 8.116-1.687 16.651-10.203 37.615-3.7 9.108-13.443 38.739-21.723 66.02-8.587 28.292-12.741 40.78-13.494 48.777-.377 3.999.132 6.903 1.373 9.922 1.24 3.019 3.176 6.157 5.683 10.865 11.137 20.908 15.511 32.475 18.647 49.307.862 4.628 1.567 9.106 2.018 12.58.225 1.737.385 3.225.466 4.346s.035 1.977.024 2.015c-.267 1.015.082 2.097.709 3.182s1.578 2.185 2.76 3.156c4.622 3.798 14.972 11.602 24.71 18.762 4.87 3.58 9.584 6.996 13.344 9.662s6.505 4.552 7.674 5.19c2.548 1.39 5.755 2.892 7.361 3.416 5.4 2.003 9.113 2.225 11.664 1.162 2.555-1.065 3.726-3.44 4.012-6s-.214-5.393-.931-7.836-1.624-4.455-2.358-5.496c-1.759-2.495-2.59-3.94-2.658-4.424-.034-.242-.048-.193.125-.34s.613-.366 1.262-.613c.735-.28 1.48-.69 2.017-1.524.537-.832.89-1.996 1.22-3.887.663-3.78 1.204-10.545 2.173-23.386l2.033-26.965 4.6-15.045c-6.479 49.218-5.718 85.513 3.287 159.563 1.476 12.144 3.415 29.444 4.308 38.445 4.196 42.288 11.934 75.474 19.444 108.75 2.995 13.27 18.418 74.196 35.464 128.974 0 0 14.06 49.891 22.776 75.561a6706 6706 0 0 0 5.94 17.738c12.584 53.506 33.123 111.301 37.626 166.973.67 8.284-22.957 144.562-19.87 185.416 6.756 58.327 31.263 108.805 45.642 164.951 2.52 7.988 9.124 80.238 10.31 94.701 7.127 86.857.115 121.832.172 177.16h-.125q.07 1.503.125 2.934c-.01 5.293-.043 10.557-.101 15.809h.134c-2.15 36.905-4.762 62.365-8.572 83.562-8.406 46.78-15.236 153.383-11.422 178.266 4.933 32.182 21.042 59.633 42.123 71.783 12.23 7.048 32.885 12.564 55.32 14.775 15.975 1.575 39.493-.942 55.778-5.97 14.894-4.597 31.916-18.402 39.36-31.922 5.179-9.406 5.302-10.69 3.279-33.858-1.272-14.568-4.535-32.813-8.258-46.19-3.384-12.16-8.713-35.456-11.844-51.77-3.13-16.317-7.268-37.071-9.193-46.122-1.926-9.05-5.079-31.003-7.012-48.785-2.664-24.514-5.18-37.351-10.406-53.082-14.729-44.334-16.162-58.997-12.139-124.092 6.225-63.874 15.642-114.712 23.938-169.486 2.28-15.058 4.476-30.413 6.498-46.418 2.647-20.956 4.995-43.027 6.843-67.004l1.817-12.447v-.01c.164-1.057.312-2.077.449-3.084l1.15-13.768c.296-7 .42-16.496.598-32.056.482-41.868-.167-54.252-4.31-78.291.594-29.9.998-43.175 2.953-54.39 2.88-9.285 5.826-19.992 5.857-22.005q.375-1.184.78-2.433c12.107-33.02 10.955-59.198 6.14-94.918-1.47-12.194-3.378-27.16-4.242-33.258-.864-6.097-2.3-21.776-3.194-34.842-5.233-76.58-1.764-178.944-.537-194.803.645-8.13 2.084-19.768 3.196-25.867 11.039-59.007 16.335-114.127 15.373-174.467l-.573-11.342 3.366-3.97q1.15-1.353 2.287-2.715 1.137 1.362 2.287 2.715l3.365 3.97-.572 11.342c-.962 60.34 4.334 115.46 15.373 174.467 1.112 6.099 2.55 17.737 3.195 25.867 1.227 15.86 4.697 118.223-.537 194.803-.893 13.066-2.33 28.745-3.193 34.842-.864 6.098-2.773 21.064-4.242 33.258-4.815 35.72-5.968 61.899 6.14 94.918q.404 1.25.78 2.433c.03 2.013 2.977 12.72 5.857 22.004 1.955 11.216 2.358 24.492 2.953 54.39-4.144 24.04-4.793 36.424-4.31 78.292.178 15.56.301 25.055.597 32.056l1.15 13.768c.137 1.007.286 2.027.45 3.084v.01l1.816 12.447c1.849 23.977 4.197 46.048 6.844 67.004 2.022 16.005 4.217 31.36 6.498 46.418 8.296 54.774 17.712 105.612 23.937 169.486 4.023 65.095 2.59 79.758-12.138 124.092-5.226 15.73-7.742 28.568-10.407 53.082-1.933 17.782-5.086 39.735-7.011 48.785-1.926 9.05-6.064 29.805-9.194 46.121-3.13 16.315-8.46 39.612-11.843 51.772-3.724 13.376-6.986 31.621-8.258 46.19-2.024 23.167-1.9 24.451 3.28 33.857 7.442 13.52 24.465 27.325 39.359 31.922 16.285 5.028 39.803 7.545 55.777 5.97 22.435-2.21 43.09-7.727 55.32-14.775 21.081-12.15 37.19-39.601 42.123-71.783 3.815-24.883-3.015-131.486-11.422-178.266-3.81-21.197-6.422-46.657-8.572-83.562h.135a1677 1677 0 0 1-.102-15.809q.057-1.432.125-2.934h-.125c.057-55.328-6.954-90.303.172-177.16 1.187-14.463 7.791-86.713 10.31-94.7 14.38-56.147 38.887-106.625 45.643-164.952 3.086-40.854-20.54-177.132-19.87-185.416 4.502-55.672 25.041-113.467 37.626-166.973a6706 6706 0 0 0 5.94-17.738c8.715-25.67 22.775-75.56 22.775-75.56 17.046-54.779 32.47-115.705 35.465-128.975 7.51-33.276 15.247-66.462 19.443-108.75.893-9.001 2.833-26.301 4.309-38.445 9.004-74.05 9.765-110.345 3.287-159.563l4.6 15.045 2.033 26.965c.968 12.841 1.51 19.607 2.172 23.386.33 1.89.684 3.055 1.22 3.887.537.833 1.283 1.243 2.018 1.524.649.247 1.089.466 1.262.613s.159.098.125.34c-.07.484-.9 1.93-2.659 4.424-.734 1.04-1.64 3.052-2.357 5.496-.718 2.443-1.218 5.275-.932 7.836.287 2.56 1.457 4.935 4.012 6 2.552 1.063 6.265.841 11.664-1.162 1.606-.524 4.814-2.026 7.362-3.416 1.168-.638 3.913-2.524 7.673-5.19a999 999 0 0 0 13.344-9.662c9.739-7.16 20.088-14.964 24.711-18.762 1.182-.97 2.133-2.072 2.76-3.156s.976-2.167.709-3.182c-.011-.039-.06-.895.024-2.015a82 82 0 0 1 .467-4.346c.45-3.474 1.155-7.952 2.017-12.58 3.136-16.832 7.51-28.4 18.647-49.307 2.507-4.708 4.443-7.846 5.683-10.865s1.75-5.923 1.373-9.922c-.753-7.997-4.907-20.485-13.494-48.777-8.28-27.281-18.023-56.912-21.723-66.02-8.516-20.964-10.806-29.5-10.203-37.615.401-5.389-.16-10.204-2.261-15.93-2.097-5.714-5.71-12.348-11.41-21.513-6.555-12.57-9.578-21.393-16.628-48.52-1.701-6.545-5.466-22.75-7.912-33.101-.045-1.581-.57-4.843-1.642-10.067-9.484-46.185-13.97-78.742-17.905-129.882-1.883-24.48-5.84-42.497-15.982-61.354-18.634-34.643-22.17-34.218-36.43-54.414l-4.136-5.92-.023-2.604c.49-5.522 1.089-30.23 1.439-56.619.35-26.397.445-54.352-.113-66.11-1.194-25.122-3.085-50.339-6.483-86.534-2.34-24.925-3.506-37.334-3.746-45.803-.24-8.47.437-13.011 1.805-22.365 1.341-9.176 3.14-23.632 4.002-32.166 9.313-48.718-2.696-84.769-25.25-110.149-22.553-25.378-55.57-40.101-88.258-46.496-21.633-6.488-42.711-13.346-58.713-18.746-.347-.117-5.358-2.077-5.701-2.193-1.323-.503-2.193-.859-2.432-.977-18.054-8.926-29.013-16.25-35.447-25.353-6.433-9.104-8.469-20.103-8.469-36.696 0-17.148 3.523-35.378 9.438-49.632 22.088-21.476 39.164-47.631 49.5-81.452 5.366-15.16 6.805-17.436 19.451-30.87 16.788-17.837 25.005-33.125 23.451-44.704-1.21-9.023-6.014-15.87-13.61-19.287-1.71-.77-2.941-1.59-3.614-2.305-.673-.713-.768-1.167-.606-1.593.762-1.986 1.347-5.6 1.854-10.348s.903-10.582 1.164-16.785c.52-12.407.49-26.267-.342-35.797-4.071-46.518-18.75-83.604-45.877-115.854l-.012-.01-.01-.011c-27.818-30.957-68.302-51.037-111.34-56.88-.556-.075-.72-.097-.795-.105m0 6.344q.264.045.528.098c11.894 2.17 41.521 8.254 58.912 17.39 20.21 10.617 35.206 22.34 47.15 36.844 29.523 35.85 44.61 81.558 44.61 135.293 0 18.257-2.922 34.305-5.569 46.387-1.323 6.04-2.578 11.089-3.367 14.947-.394 1.93-.672 3.56-.781 4.895-.098 1.192-.096 2.145.2 2.941-.761 3.576-9.532 44.518-15.7 63.652-6.65 20.63-18.218 45.617-26.758 57.881-15.11 21.7-54.31 51.258-98.936 74.633l-.289.152-.293-.152c-44.625-23.375-83.826-52.933-98.935-74.633-8.54-12.264-20.109-37.252-26.758-57.88-6.168-19.135-14.94-60.077-15.701-63.653.297-.796.298-1.75.2-2.941-.109-1.335-.386-2.966-.78-4.895-.789-3.858-2.044-8.906-3.367-14.947-2.648-12.082-5.569-28.13-5.569-46.387 0-53.735 15.086-99.443 44.61-135.293 11.944-14.504 26.94-26.227 47.15-36.844 17.39-9.136 47.018-15.22 58.912-17.39.175-.035.356-.067.531-.098M764.114 307.625c.708-.025 1.102.149 1.445.703 0 .006.18.39.367.922.187.533.417 1.258.688 2.145a265 265 0 0 1 2.023 7.084c1.579 5.777 3.555 13.425 5.547 21.543a5345 5345 0 0 0 5.361 21.664c1.296 5.184 2.034 8.056 2.41 9.427-.279-.217-.374-.241-.73-.564-1.713-1.554-4.248-4.22-7.014-7.344-5.532-6.248-12.025-14.377-15-19.265-3.716-6.11-5.881-10.744-6.719-14.74-.837-3.997-.394-7.367 1.192-11.163 1.19-2.848 3.098-5.468 5.082-7.361s4.083-3.005 5.346-3.05zm311.52 0q.117-.005.251 0c1.262.046 3.362 1.158 5.346 3.051s3.892 4.513 5.082 7.361c1.586 3.796 2.029 7.166 1.191 11.162s-3.002 8.632-6.719 14.74c-2.974 4.889-9.468 13.018-15 19.266-2.765 3.124-5.3 5.79-7.013 7.344-.356.323-.451.347-.73.564.376-1.371 1.113-4.243 2.41-9.427a5347 5347 0 0 0 5.36-21.664c1.993-8.118 3.969-15.766 5.548-21.543a265 265 0 0 1 2.023-7.084c.27-.887.5-1.612.688-2.145.186-.532.367-.916.367-.922.3-.485.638-.679 1.193-.703zM854.12 491.498c19.014 15.426 40.904 28.349 64.827 40.223l1.054.531 1.05-.531c23.924-11.874 45.813-24.797 64.827-40.223-1.984 18.603-5.348 37.308-1.308 55.871 3.487 20.5 9.469 40.282 21.58 59.715 2.386 3.828 4.63 7.306 6.332 9.836a89 89 0 0 0 2.101 3.018c2.305 3.119 2.874.744 2.266-.787a46 46 0 0 0-1.02-2.442c-.886-1.99-2.155-4.658-3.629-7.58-3.017-5.982-7.612-16.628-10.158-23.556l-3.605-9.81 9.754 7.386.022.013c2.574 1.844 8.856 4.73 17.486 8.381 2.151.91 4.687 1.936 7.094 2.924a.7.7 0 0 0 .18.102l1.232.482c1.208.493 2.237.933 3.494 1.441v-.068c5.92 2.323 11.861 4.661 17.54 6.904v.819l.093.035v-.817c10.225 4.04 19.59 7.766 26.424 10.534-27.772 4.124-53.329 8.291-73.457 11.93-20.827 3.764-35.947 6.944-42.291 8.978-6.028 1.933-12.31 4.586-17.53 7.275-5.218 2.69-9.345 5.35-11.212 7.596-.254.306-.46.569-.621.809-.162.24-.291.427-.356.75a.93.93 0 0 0 .102.654c.146.253.43.394.62.428.384.067.594-.028.874-.125 1.119-.386 3.07-1.492 6.431-3.495 9.294-5.535 24.759-11.027 37.143-13.75 11.869-2.608 85.492-14.977 107.346-17.4 71.184 7.238 103.582 39.614 116.9 76.395 13.323 36.795 7.427 78.115 1.494 102.91l-.016.02v.023c-1.817 10.389-2.01 22.552-.54 34.052.524 4.101 2.082 22.31 3.718 42.78 1.635 20.47 3.36 43.264 4.234 56.728 2.223 34.25 1.668 90.006 1.291 136.2a652 652 0 0 0 0 11.384v.048c.231 2.51.213 4.15.213 5.305 0 1.156-.046 1.927.446 2.621 5.073 7.173 22.247 28.542 31.623 44.295 14.944 25.11 23.783 54.712 25.13 84.152 2.008 43.863 6.853 82.718 16.172 117.635.746 2.786 1.388 5.045 1.942 6.817v.012c5.768 28.888 4.965 67.445 25.14 89.347 9.8 12.721 14.416 30.255 11.422 45.99l-.043.225 8.62 19.875c9.978 23.01 12.971 31.906 28.13 83.643l11.25 38.39-2.254 4.326c-.646 1.241-1.255 2.166-1.754 2.754-.416.491-.65.576-.72.625-.01-.049-.012-.028-.022-.103-.058-.452 0-1.333.275-2.537.305-1.34.536-2.155.14-2.979-.197-.412-.685-.707-1.103-.752s-.8.037-1.25.16c-.567.155-.987.573-1.304 1.078s-.558 1.13-.758 1.88c-.402 1.498-.632 3.503-.684 5.937-.09 4.182-1.513 9.903-3.17 12.918-1.488 2.708-2.76 4.393-3.48 5.086 0-.29-.034-.4.101-1.018.197-.895.248-2.28.223-3.949a56 56 0 0 0-.35-5.361c-.401-3.473-.717-7.527-.707-8.805.01-.94-.188-1.755-.771-2.3-.583-.547-1.446-.63-2.28-.401-.517.142-1.01.42-1.341.867-.33.448-.478 1.005-.512 1.639-.067 1.266.277 2.938.96 5.43 2.66 9.772 2.106 15.966-2.823 31.154-2.523 7.772-5.148 19.729-5.867 26.755-.354 3.46-.731 6.866-1.053 9.563s-.602 4.751-.713 5.275c-.152.718-.374 1.3-.996 2.13-.623.83-1.659 1.883-3.387 3.359-3.456 2.95-9.654 7.593-20.785 15.795-16.183 11.924-20.813 14.141-27.957 16.72-4.306 1.555-6.89 1.313-8.209.364-1.319-.95-1.71-2.782-1.266-5.108s1.752-5.01 3.575-7.252c1.822-2.242 4.153-4.03 6.58-4.695 5.504-1.507 10.882-5.818 13.015-10.526.298-.657 1.249-2.189 2.48-3.97a120 120 0 0 1 4.278-5.78c4.312-5.472 6.404-10.336 8.738-20.257l3.075-13.084-3.916-15.987c-1.613-6.582-2.718-10.672-3.791-13.474-1.074-2.803-2.16-4.355-3.614-5.639-1.975-1.745-3.144-3.362-3.529-4.596s-.163-2.005.826-2.732c1.257-.923 1.922-2.104 1.742-3.225a1.77 1.77 0 0 0-1.03-1.33c-.556-.238-1.203-.208-1.901.02-.628.204-1.085.662-1.586 1.27-.502.61-1.018 1.394-1.555 2.325-1.074 1.862-2.22 4.31-3.307 6.996-2.174 5.374-4.11 11.677-4.625 16.135-.544 4.712-.237 15.39.653 24.002.44 4.26.7 8.667.767 12.318s-.093 6.624-.375 7.693c-.74 2.813-.82 8.05-.25 12.01.725 5.041-.358 9.02-2.453 11.326s-5.186 3.083-9.031 1.618c-.749-.286-1.168-.477-1.5-.86s-.65-1.063-.932-2.433c-.562-2.742-.957-8.07-1.68-18.46-1.35-19.406-2.158-23.786-9.224-49.81-5.127-18.884-8.649-34.995-10.492-47.982-1.532-10.79-3.422-24.029-4.201-29.422-1.178-8.159-.544-13.991 4.1-37.475 5.964-30.166 6.563-40.498 3.066-53.328-2.586-9.487-5.555-14.6-7.823-18.799-2.267-4.198-3.822-7.409-3.822-13.504v-.028c-.316-14.598-12-27.402-19.912-39.302l-17.918-26.715c-34.524-51.474-24.126-57.586-51.058-113.824-3.348-5.8-6.14-10.634-8.483-14.88-3.595-8.406-6.784-15.68-9.658-22.013-.636-2.327-3.399-7.361-3.399-7.361-6.9-14.675-11.88-23.415-16.562-29.688-7.951-10.655-10.706-17.605-13.24-33.435-1.718-10.726-2.02-16.426-1.778-33.37.263-18.385-.326-20.75-.535-27.847-.02-3.956-.064-8.547-.215-11.25-.173-1.885.1-7.64-.183-9.524h.308l-.203-.912c-4.599-20.767-9.053-43.744-9.635-64.994-.13-4.755-2.124-8.548-3.574-12.97-1.44-4.397-2.407-9.445-.738-16.905.11-.2.434-.602.988-1.105.577-.524 1.367-1.16 2.328-1.895 1.923-1.47 4.535-3.35 7.592-5.66 6.113-4.62 14.007-10.97 21.809-19.334 15.604-16.726 30.858-41.545 30.79-76.611-.02-10.12-5.198-31.526-11.044-45.998-7.214-17.855-11.45-24.807-31.977-52.448-6.32-8.512-12.79-17.825-14.232-20.418-.788-1.415-1.833-3.281-2.684-4.67.136-1.976-.073-5.827-.111-11.976-.041-6.597-.382-13.928-.805-16.565l-.72-4.5-1.485.026-.558 4.537c-.855 6.943-.144 21.226.896 27.201-.01 1.079.386 2.442 1.117 4.236.732 1.795 1.818 3.991 3.246 6.563 2.857 5.143 7.095 11.784 12.653 19.592 6.184 8.687 12.534 18.017 13.988 20.525 1.535 2.645 4.644 7.715 6.934 11.301 14.78 23.14 20.583 40.875 20.418 62.232v.01c-1.145 25.945-9.795 53.897-28.452 72.453-5.004 4.98-12.478 11.222-16.431 13.754-4.07 2.605-9.275 6.047-11.606 7.666-15.029 10.447-41.928 13.279-68.851 8.49s-53.844-17.151-69.086-36.65c-5.939-7.597-12.1-17.517-12.213-25.369-.01-.558-.025-.987-.061-1.33a2.6 2.6 0 0 0-.084-.48c-.047-.16-.092-.373-.387-.575a.9.9 0 0 0-.55-.144.9.9 0 0 0-.407.136c-.19.118-.278.234-.375.356-.193.244-.372.544-.605.945-.575.987-.624 2.408-.412 4.364s.765 4.414 1.72 7.246c1.912 5.662 5.449 12.805 11.2 20.191 11.497 14.767 31.852 30.485 65.593 37.102 3.001.72 11.355 1.963 21.8 2.373s22.926-.023 34.026-2.733c2.87-.7 5.572-1.247 7.594-1.562 1.011-.158 1.857-.257 2.445-.29.263-.011.45-.01.586 0 0 .01-.01.04 0 .102.035.247.045.62.022 1.059-.048.866-.221 2.003-.51 3.15 0 .013-.02.067-.034.112l-.104.304-.387 1.121c-.333.963-.813 2.34-1.41 4.059a5883 5883 0 0 0-4.758 13.742c-3.801 11.03-8.557 24.961-12.43 36.776-3.684 11.245-7.093 22.622-12.062 33.298l-.016.021-.016.025c-4.29 11.24-8.57 20.788-8.7 26.707-.053 2.492-.03 4.828.05 6.6.04.886.096 1.628.166 2.195.035.284.075.521.125.729.05.204.02.36.31.656.01.05.184.38.27.777.103.48.174 1.093.174 1.678 0 .725.347 1.326.871 2.158.523.832 1.272 1.835 2.22 3.014 1.899 2.358 4.61 5.415 7.932 9.05 6.646 7.271 15.251 17.297 25.502 27.604 31.436 31.61 62.75 84.077 88.078 156.836 1.157 3.324 2.6 6.323 3.784 9.174 1.55 5.108 3.12 10.265 4.838 15.465 3.094 9.46 10.838 47.051 13.505 67.61 1.487 11.456 7.373 25.455 8.237 31.263.864 5.806 2.045 14.19 2.625 18.63 1.182 9.075 3.248 14.785 9.342 28.575 6.629 15.051 22.52 70.896 29.767 107.912 6.354 29.478 16.94 49.803 15.436 82.348.235 17.13-.06 50.153-.657 73.38-3.13 95.369-23.691 183.775-46.181 275.87-7.247 32.405-11.588 48.334-21.494 78.89-21.122 67.406-41.47 135.578-57.526 204.303-.812 5.796-1.008 3.585-1.258-14.254-.37-26.5-1.777-17.345-1.947 12.67-.065 11.415-4.865 30.237-2.045 48.04q.418 2.625 1.018 5.41c-.138.73.689 5.455 1.875 10.69 1.217 5.374 4.112 22.526 6.435 38.12 32.437 217.742-27.91 151.575-47.213 386.066-7.157 89.282 2.195 122.576 2.405 174.196h-.057c-.192 2.715-.14 4.29-.254 6.597.026 3.12-.609 9.093-.557 12.145h.096c.06 5.917.484 10.901 1.205 16.672 1.339 12.024 23.114 210.977 21.537 233.207-1.022 14.414-8.966 39.175-16.468 51.31-15.454 25-31.27 34.772-65.526 40.49-17.247 2.88-48.947.534-60.715-4.496-10.14-4.335-22.377-14.802-29.084-24.88-12.166-18.28-12.02-44.49.53-96.9 12.16-50.79 18.774-86.792 24.238-131.917 3.656-30.198 6.515-45.618 10.56-56.937 12.579-35.203 14.704-51.609 13.116-101.174-4.25-47.166-28.733-222.51-31.936-248.135 1.758 7.19 4.928 24.995 5.985 34.795.657 6.097 1.613 13.936 2.125 17.42.344 2.337.557 3.65.654 3.783h.019c.096-.15 0-2.352-.234-6.95-.77-14.896-7.503-69.29-10.456-84.466-5.15-26.463-10.203-58.709-10.335-92.719-.076-19.484 3.742-35.178 7.025-43.033 2.605-6.233 4.07-20.68 3.283-32.38-1.008-49.969-44.657-109.832-18.404-180.294 1.197-7.147.1 14.126-1.188 23.026-.52 3.594-.89 10.34-.82 14.984l.127 8.447.83-9.41c.458-5.175 1.58-15.152 2.496-22.172s2.627-25.829 3.797-41.799 2.83-38.062 3.69-49.095c.858-11.032 2.032-29.7 2.609-41.483s1.277-23.424 1.555-25.869c.187-1.67.268-2.585.2-2.672h-.021c-.118.093-.463 1.398-1.114 4.032l-1.433 5.806-.117-12.892c-.065-7.091-.594-17.544-1.174-23.229s-1.769-22.212-2.643-36.73c-2.768-45.967-3.648-56.683-5.775-70.213-1.142-7.26-3.07-23.89-4.283-36.955-1.212-13.065-3.153-31.831-4.311-41.703-1.925-16.423-3.598-40.71-4.871-70.743-.508-15.768 1.487-31.434.197-46.984.87-6.097 2.072-13.462 2.668-16.365.595-2.904 1.5-11.622 2.01-19.375 2.585-37.31 33.594-43.975 55.207-75.34 23.28-30.462 16.532-31.321 28.217-42.543 37.597-36.111 60.14-59.145 68.717-70.213 19.337-24.956 30.13-39.94 37.261-51.736 16.1-26.627 35.86-49.261 36.66-59.131.622-1.16.663-2.223.102-2.57a.35.35 0 0 0-.185-.062c-1.033-.047-3.62 3.623-11.446 16.097-10.012 14.626-19.24 28.815-28.334 44.07-8.674 14.495-26.395 39.942-37.506 53.858-10.939 13.699-44.947 48.09-62.847 63.555-15.042 12.994-18.704 17.125-29.776 33.58-10.59 15.74-19.958 26.963-35.3 42.295-17.706 17.695-28.232 24.86-37.963 25.709-9.731-.848-20.258-8.014-37.963-25.71-15.342-15.331-24.711-26.553-35.301-42.294-11.072-16.455-14.733-20.586-29.775-33.58-17.9-15.465-51.91-49.856-62.848-63.555-11.111-13.916-28.831-39.363-37.506-53.857-9.094-15.256-18.322-29.445-28.334-44.07-7.825-12.475-10.412-16.146-11.445-16.098a.35.35 0 0 0-.186.062c-.56.347-.52 1.41.102 2.57.8 9.87 20.56 32.504 36.66 59.13 7.132 11.797 17.925 26.781 37.262 51.737 8.576 11.068 31.12 34.102 68.716 70.213 11.685 11.222 4.938 12.081 28.217 42.543 21.613 31.365 52.622 38.03 55.207 75.34.51 7.753 1.415 16.47 2.01 19.375.596 2.903 1.798 10.268 2.668 16.365-1.29 15.55.705 31.216.197 46.984-1.273 30.032-2.946 54.32-4.87 70.743-1.159 9.872-3.1 28.638-4.311 41.703-1.214 13.066-3.142 29.696-4.284 36.955-2.127 13.53-3.007 24.246-5.775 70.213-.874 14.518-2.062 31.046-2.643 36.73-.58 5.685-1.108 16.138-1.173 23.229l-.118 12.892-1.433-5.806c-.65-2.634-.995-3.938-1.113-4.032h-.022c-.067.087.014 1.002.2 2.672.279 2.445.978 14.087 1.555 25.87.577 11.781 1.751 30.45 2.61 41.482.86 11.033 2.52 33.126 3.69 49.096s2.88 34.778 3.796 41.798 2.038 16.997 2.496 22.172l.83 9.41.127-8.447c.07-4.645-.3-11.39-.82-14.984-1.287-8.9-2.385-30.173-1.188-23.026 26.253 70.462-17.396 130.325-18.404 180.293-.786 11.7.678 26.148 3.283 32.381 3.283 7.855 7.102 23.549 7.026 43.033-.133 34.01-5.186 66.256-10.336 92.72-2.953 15.175-9.685 69.569-10.455 84.466-.237 4.597-.33 6.8-.235 6.95h.02c.096-.135.31-1.447.654-3.784.512-3.484 1.468-11.323 2.125-17.42 1.057-9.8 4.226-27.605 5.984-34.795-3.202 25.626-27.685 200.97-31.935 248.135-1.59 49.565.536 65.971 13.115 101.174 4.046 11.319 6.904 26.74 10.56 56.937 5.464 45.125 12.077 81.128 24.239 131.916 12.549 52.411 12.695 78.621.529 96.9-6.707 10.079-18.944 20.546-29.084 24.882-11.768 5.03-43.468 7.376-60.715 4.496-34.256-5.72-50.072-15.49-65.525-40.49-7.503-12.136-15.447-36.897-16.47-51.311-1.575-22.23 20.2-221.183 21.538-233.207.721-5.771 1.145-10.755 1.205-16.672h.096c.052-3.052-.583-9.025-.557-12.145-.114-2.307-.062-3.882-.253-6.597h-.057c.209-51.62 9.561-84.914 2.404-174.196-19.303-234.491-79.65-168.323-47.213-386.066 2.323-15.594 5.218-32.746 6.435-38.12 1.186-5.235 2.013-9.96 1.875-10.69q.6-2.785 1.018-5.41c2.82-17.803-1.98-36.625-2.045-48.04-.17-30.015-1.577-39.17-1.947-12.67-.25 17.84-.446 20.05-1.258 14.254-16.055-68.725-36.404-136.896-57.525-204.302-9.906-30.556-14.247-46.486-21.494-78.891-22.49-92.095-43.052-180.501-46.182-275.87-.597-23.227-.891-56.25-.656-73.38-1.504-32.545 9.081-52.87 15.435-82.348 7.248-37.016 23.139-92.861 29.768-107.912 6.094-13.79 8.16-19.5 9.342-28.574.58-4.44 1.76-12.825 2.625-18.631.864-5.808 6.749-19.807 8.236-31.264 2.667-20.558 10.412-58.15 13.506-67.61 1.717-5.199 3.287-10.356 4.838-15.464 1.184-2.85 2.626-5.85 3.783-9.174 25.327-72.759 56.642-125.226 88.078-156.836 10.251-10.307 18.856-20.333 25.502-27.603 3.323-3.635 6.033-6.693 7.932-9.051.949-1.18 1.697-2.182 2.22-3.014s.871-1.433.871-2.158c0-.585.071-1.198.174-1.678.086-.397.262-.727.27-.777.291-.295.261-.452.31-.656.05-.208.09-.445.125-.729.07-.567.126-1.309.166-2.195.081-1.772.103-4.108.051-6.6-.13-5.919-4.412-15.468-8.701-26.707l-.016-.025-.016-.02c-4.968-10.677-8.377-22.054-12.062-33.3-3.873-11.814-8.628-25.745-12.43-36.775a5741 5741 0 0 0-4.758-13.742l-1.41-4.059-.49-1.425-.035-.112c-.289-1.147-.462-2.283-.51-3.15a6 6 0 0 1 .02-1.059c.01-.063 0-.092 0-.101.138-.01.324-.012.587 0 .588.032 1.434.131 2.445.289 2.022.315 4.724.862 7.594 1.562 11.1 2.71 23.583 3.142 34.027 2.733 10.445-.41 18.798-1.652 21.799-2.373 33.741-6.617 54.096-22.335 65.594-37.102 5.75-7.386 9.288-14.529 11.199-20.191.956-2.832 1.509-5.29 1.72-7.246.213-1.956.163-3.377-.411-4.364-.234-.4-.413-.7-.606-.945-.097-.122-.185-.238-.375-.355a.9.9 0 0 0-.406-.137.9.9 0 0 0-.55.144c-.296.202-.341.415-.388.575s-.066.308-.084.48a15 15 0 0 0-.06 1.33c-.114 7.853-6.275 17.772-12.213 25.37-15.242 19.498-42.164 31.862-69.086 36.65-26.923 4.788-53.823 1.956-68.852-8.49-2.331-1.62-7.536-5.062-11.605-7.667-3.953-2.532-11.428-8.774-16.432-13.753-18.657-18.557-27.307-46.509-28.451-72.454v-.01c-.166-21.357 5.638-39.092 20.418-62.232 2.29-3.586 5.398-8.656 6.933-11.3 1.454-2.51 7.804-11.84 13.989-20.526 5.557-7.808 9.795-14.449 12.652-19.592 1.428-2.572 2.515-4.768 3.246-6.562s1.127-3.158 1.117-4.237c1.04-5.975 1.752-20.258.897-27.201l-.559-4.537-1.484-.025-.721 4.5c-.423 2.636-.763 9.967-.805 16.564-.038 6.15-.247 10-.111 11.977-.85 1.388-1.896 3.254-2.684 4.67-1.442 2.592-7.911 11.905-14.232 20.417-20.526 27.641-24.763 34.593-31.976 52.448-5.847 14.472-11.025 35.877-11.045 45.998-.067 35.066 15.186 59.885 30.79 76.611 7.803 8.363 15.696 14.713 21.81 19.334 3.056 2.31 5.668 4.19 7.59 5.66.962.736 1.753 1.371 2.33 1.895.554.503.878.906.987 1.105 1.67 7.46.703 12.508-.738 16.905-1.45 4.422-3.444 8.215-3.574 12.97-.582 21.25-5.036 44.227-9.635 64.994l-.203.912h.309c-.285 1.885-.01 7.639-.184 9.524-.151 2.704-.195 7.294-.215 11.25-.208 7.098-.798 9.462-.535 27.848.242 16.943-.06 22.644-1.777 33.369-2.534 15.83-5.29 22.78-13.24 33.435-4.682 6.274-9.662 15.013-16.563 29.688 0 0-2.762 5.034-3.399 7.361-2.874 6.334-6.062 13.607-9.658 22.014-2.343 4.245-5.135 9.08-8.482 14.879-26.932 56.238-16.535 62.35-51.059 113.824l-17.918 26.715c-7.91 11.9-19.595 24.704-19.912 39.302v.028c0 6.095-1.555 9.306-3.822 13.504s-5.236 9.312-7.822 18.8c-3.498 12.829-2.899 23.16 3.066 53.327 4.643 23.484 5.278 29.316 4.1 37.475-.78 5.393-2.67 18.631-4.201 29.422-1.844 12.987-5.365 29.098-10.493 47.982-7.066 26.024-7.874 30.404-9.224 49.81-.723 10.39-1.118 15.718-1.68 18.46-.281 1.37-.6 2.05-.932 2.433-.332.384-.75.574-1.5.86-3.845 1.465-6.936.688-9.03-1.617-2.095-2.306-3.179-6.285-2.454-11.327.57-3.96.49-9.197-.25-12.01-.282-1.07-.442-4.042-.375-7.693s.328-8.058.768-12.318c.889-8.612 1.197-19.29.652-24.002-.515-4.457-2.45-10.761-4.625-16.135-1.087-2.687-2.233-5.134-3.307-6.996-.537-.931-1.053-1.716-1.554-2.324-.502-.609-.96-1.067-1.586-1.272-.699-.227-1.345-.258-1.9-.019a1.77 1.77 0 0 0-1.032 1.33c-.18 1.122.486 2.302 1.742 3.225.99.727 1.211 1.498.826 2.732-.384 1.234-1.554 2.851-3.529 4.596-1.454 1.284-2.54 2.836-3.613 5.639-1.073 2.802-2.18 6.892-3.791 13.474l-3.916 15.987 3.074 13.084c2.334 9.922 4.426 14.785 8.738 20.258a120 120 0 0 1 4.278 5.779c1.231 1.781 2.182 3.313 2.48 3.97 2.134 4.709 7.512 9.02 13.016 10.526 2.426.664 4.757 2.453 6.58 4.695s3.13 4.927 3.574 7.252.053 4.157-1.266 5.108-3.903 1.191-8.209-.364c-7.144-2.579-11.773-4.796-27.957-16.72-11.13-8.202-17.328-12.845-20.785-15.795-1.728-1.476-2.764-2.53-3.387-3.36-.622-.83-.844-1.41-.996-2.129-.11-.524-.391-2.578-.712-5.275a598 598 0 0 1-1.053-9.562c-.72-7.027-3.345-18.984-5.867-26.756-4.93-15.188-5.483-21.382-2.823-31.155.683-2.491 1.026-4.163.96-5.43-.035-.633-.182-1.19-.512-1.638s-.824-.725-1.342-.867c-.834-.228-1.696-.146-2.28.4s-.778 1.361-.771 2.3c.01 1.28-.305 5.333-.707 8.806a56 56 0 0 0-.35 5.361c-.025 1.67.026 3.054.223 3.95.136.616.098.727.102 1.017-.72-.693-1.992-2.378-3.48-5.086-1.658-3.015-3.081-8.736-3.17-12.918-.053-2.434-.283-4.439-.684-5.938-.201-.75-.441-1.373-.758-1.879-.317-.505-.738-.922-1.305-1.078-.449-.123-.832-.205-1.25-.16s-.906.34-1.103.752c-.395.824-.165 1.64.14 2.979.275 1.204.333 2.086.276 2.537-.01.076-.012.055-.022.103-.07-.049-.304-.134-.72-.625-.5-.587-1.108-1.513-1.754-2.754l-2.254-4.326 11.25-38.39c15.159-51.737 18.151-60.634 28.13-83.643l8.62-19.875-.043-.225c-2.994-15.735 1.621-33.269 11.422-45.99 20.175-21.902 19.372-60.46 25.14-89.347v-.012c.554-1.772 1.196-4.031 1.942-6.817 9.319-34.917 14.164-73.772 16.171-117.635 1.348-29.44 10.187-59.042 25.131-84.152 9.376-15.753 26.55-37.122 31.623-44.295.491-.694.447-1.465.446-2.621 0-1.156-.018-2.794.213-5.305v-.048c.033-3.26.033-7.085 0-11.385-.378-46.193-.933-101.95 1.29-136.199.875-13.464 2.6-36.258 4.235-56.728s3.194-38.679 3.719-42.78c1.47-11.5 1.276-23.663-.541-34.052v-.024l-.016-.02c-5.933-24.794-11.83-66.114 1.494-102.91 13.318-36.78 45.716-69.154 116.9-76.392 21.855 2.423 95.477 14.79 107.346 17.398 12.384 2.723 27.85 8.215 37.143 13.75 3.362 2.003 5.313 3.109 6.431 3.495.28.097.49.192.874.125a.95.95 0 0 0 .62-.426.94.94 0 0 0 .102-.656c-.065-.323-.194-.509-.355-.748-.161-.24-.367-.505-.621-.811-1.867-2.246-5.994-4.906-11.213-7.596-5.22-2.69-11.501-5.342-17.53-7.275-6.344-2.034-21.464-5.212-42.29-8.977-20.13-3.638-45.686-7.807-73.458-11.931 6.834-2.768 16.2-6.494 26.424-10.534v.817l.094-.035v-.819a8343 8343 0 0 1 17.54-6.904v.068c1.257-.508 2.286-.948 3.493-1.441l1.233-.482a.7.7 0 0 0 .18-.102c2.406-.988 4.942-2.013 7.093-2.924 8.63-3.651 14.912-6.537 17.487-8.38l.02-.014 9.755-7.385-3.606 9.809c-2.546 6.928-7.14 17.574-10.158 23.556-1.474 2.922-2.743 5.59-3.63 7.58a46 46 0 0 0-1.019 2.442c-.607 1.531-.039 3.906 2.266.787a89 89 0 0 0 2.102-3.018c1.701-2.53 3.946-6.008 6.332-9.836 12.11-19.433 18.092-39.215 21.58-59.715 4.04-18.563.676-37.268-1.309-55.87zm-104.715 520.385c.081.22.166.453.278.777.284.822.658 1.955 1.094 3.31.87 2.713 1.99 6.321 3.144 10.167 5.178 17.249 13.273 34.134 21.83 52.156.741 3.416 3.136 7.022 5.15 11.92 2.032 4.941 3.718 11.156 3.038 19.633l-.537 6.695c-7.647 8-22.137 24.354-35.047 38.7-3.634 4.037-6.405 7-9.584 10.468-2.805 2.956-7.888 8.784-9.295 10.01-1.382 1.424-2.853 2.96-3.79 3.836-.355.334-.561.49-.841.73.04-.122.05-.176.098-.31.44-1.272 1.11-3.083 1.859-5.317 1.499-4.467 3.326-10.64 4.355-17.761 1.335-9.252 1.309-30.778-.054-41.815-.902-7.348-.319-24.066 1.166-36.922 3.868-16.125 6.6-31 8.242-51.68.294-4.1 2.428-7.827 4.643-10.534a25 25 0 0 1 3.128-3.207c.444-.373.83-.659 1.123-.85zm341.188 0v.01c.293.192.68.477 1.123.85a25 25 0 0 1 3.129 3.207c2.215 2.707 4.349 6.433 4.643 10.535 1.641 20.679 4.374 35.554 8.242 51.68 1.484 12.855 2.067 29.573 1.166 36.921-1.363 11.037-1.39 32.563-.055 41.815 1.03 7.121 2.856 13.294 4.355 17.761.75 2.234 1.42 4.045 1.86 5.317.047.134.057.188.098.31-.28-.24-.486-.396-.842-.73-.936-.876-2.408-2.412-3.79-3.836-1.406-1.225-6.49-7.054-9.294-10.01-3.18-3.469-5.95-6.431-9.584-10.469-12.91-14.345-27.4-30.7-35.047-38.699l-.537-6.695c-.68-8.477 1.005-14.692 3.037-19.633 2.014-4.898 4.41-8.504 5.15-11.92 8.558-18.022 16.653-34.907 21.83-52.156a580 580 0 0 1 3.145-10.166c.436-1.356.81-2.49 1.094-3.31.112-.325.196-.558.277-.778zm-469.229 4.668c.046 3.93.04 5.637.106 9.643-.035-2.018-.091-2.494-.121-4.72-.03-2.005.019-3.128.015-4.923m597.27 0c0 1.795.045 2.918.016 4.924-.03 2.225-.086 2.7-.121 4.719.066-4.006.06-5.714.105-9.643m-298.646 234.98a3 3 0 0 0-.78.113 3 3 0 0 0-.304.116c-1.247.57-1.954 1.712-2.692 3.111-2.518 4.774-3.132 20.862-.926 24.229.967 1.475 2.41 2.32 3.922 2.54q.389.055.78.055h.01v-30.164zm.014 0v30.165h.01q.39 0 .779-.055c1.512-.22 2.955-1.066 3.922-2.542 2.206-3.366 1.592-19.454-.926-24.228-.738-1.399-1.444-2.541-2.691-3.111a3 3 0 0 0-.305-.116 2.8 2.8 0 0 0-.78-.113zm-278.239 108.493c-4.342 19.26-7.86 37.378-9.32 48.545-1.177 9-3.302 20.403-4.723 25.34-1.42 4.935-5.906 22.04-9.966 38.01-4.967 19.54-12.217 43.537-22.165 73.38-4.522 13.568-8.094 24.635-10.992 34.229.381-2.219.763-4.42 1.147-6.594.832-4.72 1.184-8 .754-12.678s-1.624-10.747-3.856-21.213c-5.658-26.53-7.076-40.782-5.287-52.314 3.667-14.25 10.24-25.613 13.918-40.05.898-2.838 3.655-8.574 7.33-15.356 3.676-6.783 8.278-14.656 12.91-21.967 3.994-6.304 19.957-31.829 30.25-49.332m556.473 0c10.293 17.503 26.256 43.028 30.25 49.332 4.632 7.311 9.235 15.185 12.91 21.967s6.432 12.518 7.33 15.357c3.678 14.436 10.251 25.8 13.918 40.049 1.79 11.532.372 25.784-5.287 52.314-2.232 10.467-3.426 16.534-3.855 21.213-.43 4.679-.078 7.958.754 12.678q.575 3.264 1.146 6.594c-2.897-9.594-6.47-20.66-10.992-34.229-9.948-29.843-17.197-53.84-22.164-73.38-4.06-15.97-8.546-33.075-9.967-38.01-1.421-4.937-3.546-16.34-4.723-25.34-1.459-11.167-4.978-29.285-9.32-48.545M534.495 1636.78h.043c.036.013.176.085.373.538.203.466.408 1.25.592 2.337.366 2.173.666 5.56 1.05 10.36.37 4.62.517 10.34.46 15.334-.059 4.993-.351 9.345-.745 10.906-.13.514-.39.88-.625 1.057-.234.175-.382.19-.572.107-1.014-.446-4.81-1.83-8.652-3.178l-6.313-2.212 3.893-14.221c2.922-10.675 4.995-15.766 7.064-18.012.916-.994 1.675-1.785 2.276-2.305s1.048-.71 1.156-.714zm771.012 0c.108.01.556.195 1.156.715s1.36 1.311 2.275 2.305c2.069 2.245 4.142 7.336 7.065 18.012l3.892 14.22-6.312 2.213c-3.843 1.347-7.64 2.732-8.653 3.178-.19.083-.338.068-.572-.107-.235-.176-.496-.543-.625-1.057-.393-1.561-.686-5.913-.744-10.906s.089-10.715.459-15.334c.384-4.8.684-8.187 1.05-10.36.184-1.086.39-1.871.593-2.338.196-.452.337-.524.373-.537h.042zm-782.899 39.26h.01c.337 0 .867.082 1.535.229 7.778 1.701 10.615 4.214 11.557 6.832.855 2.377.146 5.113-.38 7.777l-4.651-1.273c-2.35-.643-3.615-1.162-4.522-2.069-.906-.906-1.563-2.333-2.453-4.933-1.006-2.942-1.56-4.846-1.629-5.809-.035-.481.054-.649.072-.67.018-.02.09-.086.461-.084m794.776 0h.01c.37 0 .442.063.46.084s.108.189.072.67c-.069.963-.622 2.867-1.629 5.809-.89 2.6-1.546 4.027-2.453 4.933-.906.907-2.172 1.426-4.521 2.069l-4.653 1.273c-.525-2.664-1.234-5.4-.378-7.777.941-2.618 3.778-5.13 11.556-6.832.668-.147 1.198-.229 1.535-.229m-792.12 16.68h.032c.04 0 .13.01.26.037.546.114 1.565.516 3.056 1.197l.03.014.03.014c4.424 1.581 7.14 3.17 8.631 4.57s1.757 2.508 1.559 3.416c-.199.91-.975 1.755-1.988 2.33-1.014.576-2.238.84-3.032.739a2.6 2.6 0 0 1-.644-.36 11 11 0 0 1-1.219-1.085c-.91-.92-1.961-2.176-2.953-3.499s-1.927-2.716-2.62-3.912c-.691-1.195-1.12-2.273-1.151-2.591-.048-.48-.017-.772.01-.868zm789.442 0h.03c.027.096.059.387.01.867-.031.318-.46 1.396-1.152 2.592-.692 1.195-1.627 2.59-2.619 3.912-.991 1.323-2.042 2.578-2.953 3.498-.455.46-.875.834-1.219 1.086-.332.244-.608.35-.644.36-.794.101-2.018-.164-3.031-.739s-1.79-1.421-1.989-2.33c-.198-.909.067-2.016 1.559-3.416s4.207-2.99 8.63-4.57l.032-.014.029-.014q2.236-1.024 3.056-1.198c.13-.026.22-.037.26-.037zm-404.715 59.506c.982-.017 2.414.284 4.178.89 2.91 1.017 5.395 1.066 5.832 1.067h.01c.45-.001 2.923-.054 5.822-1.067 1.764-.606 3.196-.907 4.178-.89.588.01 1.015.135 1.258.377 1.605 1.606.318 31.065-1.91 43.709-1.888 10.704-3.764 14.084-4.485 8.09-.17-1.407-.882-3.705-1.584-5.106-1.006-2.013-1-2.642.043-2.992.726-.244 1.32-1.405 1.32-2.58 0-1.621-.443-1.954-1.845-1.377-1.114.458-2.025.8-2.807 1.014-.782-.214-1.693-.556-2.807-1.014-1.402-.577-1.845-.244-1.845 1.377 0 1.175.594 2.336 1.32 2.58 1.042.35 1.049.98.043 2.992-.702 1.401-1.414 3.7-1.584 5.105-.721 5.995-2.597 2.615-4.484-8.09-2.23-12.643-3.516-42.102-1.91-43.708.242-.242.67-.366 1.257-.377" overflow="visible"/></svg>