<svg xmlns="http://www.w3.org/2000/svg" xml:space="preserve" width="1840" height="2350"><path fill="#fff" d="M0 0h1840v2350H0Z"/><path d="M716.674 328.607c-2.492-.055-5.177.244-9.528.86-9.476 1.34-16.794 3.775-16.794 5.586 0 6.565 4.448 16.87 3.994 29.506-2.812 15.806-2.915 18.023-1.627 35.005.989 13.02.03 20.74-.914 32.946-2.09 26.983-5.09 32.06-21.627 60.71-12.432 21.54-19.055 37.216-24.526 58.071-7.737 29.494-15.226 64.656-17.539 82.355-1.177 9.001-3.301 20.404-4.722 25.34s-5.907 22.04-9.967 38.01c-4.967 19.54-12.216 43.537-22.164 73.38-15.4 46.199-20.107 64.093-24.442 92.913-8.585 57.064-8.262 92.18 1.596 173.248 1.476 12.144 3.416 29.444 4.309 38.445 4.196 42.288 11.933 75.474 19.443 108.75 2.995 13.27 18.419 74.197 35.465 128.975 0 0 14.06 49.89 22.775 75.56a6670 6670 0 0 0 5.94 17.739c12.585 53.506 33.124 111.3 37.627 166.972.67 8.284-22.957 144.563-19.871 185.417 2.213 59.376 27.144 109.754 45.642 164.95 9.142 28.98 22.581 69.681 28.574 79.184 19.23 23.53 50.81 34.235 78.235 23.88 17.086-5.526 28.57-18.861 32.232-32.116 15.416-41.744 18.203-75.417 21.131-118.834.964-13.34 2.97-30.156 4.916-41.178 3.201-18.15 3.297-19.65 3.738-58.004.482-41.868-.166-54.254-4.31-78.293.595-29.899.998-43.172 2.953-54.388 2.88-9.284 5.826-19.991 5.857-22.004q.376-1.184.78-2.434c12.108-33.019 10.955-59.2 6.14-94.92-1.469-12.194-3.378-27.16-4.242-33.258-.864-6.097-2.3-21.775-3.193-34.841-5.234-76.58-1.764-178.942-.537-194.801.645-8.13 2.083-19.771 3.195-25.87 11.039-59.007 16.335-114.126 15.373-174.466l-.572-11.342 3.365-3.969a394 394 0 0 0 2.992-3.564c.683.827 1.797 2.154 2.992 3.564l3.366 3.97-.573 11.341c-.962 60.34 4.334 115.459 15.373 174.467 1.112 6.097 2.55 17.739 3.196 25.869 1.227 15.859 4.697 118.222-.538 194.8-.893 13.067-2.329 28.745-3.193 34.842-.864 6.099-2.773 21.064-4.242 33.258-4.815 35.72-5.967 61.901 6.14 94.92q.404 1.25.78 2.434c.03 2.013 2.977 12.72 5.857 22.004 1.955 11.216 2.358 24.49 2.953 54.388-4.144 24.04-4.792 36.425-4.31 78.293.44 38.353.537 39.854 3.738 58.004 1.946 11.023 3.952 27.838 4.916 41.178 2.928 43.417 5.715 77.09 21.131 118.834 3.663 13.255 15.146 26.59 32.232 32.115 27.425 10.356 59.005-.35 78.235-23.879 5.993-9.503 19.432-50.203 28.574-79.183 18.498-55.197 43.43-105.575 45.643-164.951 3.086-40.854-20.541-177.133-19.871-185.417 4.502-55.672 25.04-113.466 37.627-166.972q2.982-8.865 5.939-17.738c8.716-25.67 22.775-75.561 22.775-75.561 17.046-54.778 32.47-115.705 35.465-128.975 7.51-33.276 15.247-66.462 19.444-108.75.892-9 2.832-26.3 4.308-38.445 9.858-81.069 10.18-116.184 1.596-173.248-4.335-28.82-9.043-46.714-24.442-92.912-9.948-29.844-17.197-53.84-22.164-73.38-4.06-15.97-8.545-33.075-9.966-38.01-1.422-4.937-3.546-16.34-4.723-25.34-2.313-17.7-9.802-52.862-17.54-82.356-5.47-20.855-12.092-36.53-24.524-58.07-16.538-28.65-19.539-33.728-21.628-60.711-.944-12.206-1.903-19.926-.914-32.946 1.288-16.982 1.186-19.2-1.626-35.005-.455-12.635 3.994-22.94 3.994-29.506 0-1.811-7.32-4.245-16.795-5.586-4.351-.616-7.036-.915-9.528-.86s-4.79.463-8.367 1.254c-8.296 1.836-39.173 9.986-47.988 12.744-1.355.115-7.63 1.089-13.467 2.221-21.927 4.253-32.968 5.095-58.894 4.483-24.49-.578-32.935-1.645-56.899-7.182-9.7-2.242-9.963-2.378-7.285-3.781 2.367-1.241 3.128-1.855 2.332-1.832h-.002c-.623.02-2.188.426-4.676 1.222-1.958.625-3.256.987-4.45 1.08-1.195-.093-2.494-.455-4.452-1.08-2.488-.796-4.053-1.203-4.676-1.222h-.002c-.796-.023-.035.59 2.332 1.832 2.678 1.403 2.416 1.539-7.285 3.781-23.964 5.537-32.408 6.604-56.898 7.182-25.926.612-36.968-.23-58.895-4.483-5.837-1.132-12.111-2.106-13.467-2.22-8.815-2.759-39.692-10.909-47.988-12.745-3.576-.791-5.875-1.199-8.367-1.254m.205 1.715c5.1.305 10.616 1.32 15.705 2.996 4.936 1.626 9.75 3.1 10.695 3.274.948.173 7.362 1.511 14.254 2.974 6.79 1.442 16.294 3.625 17.283 3.909l.04.011.033.004c5.604 1.66 22.135 5.16 30.547 6.313 5.792.794 19.4 1.343 32.203 1.3 23.356-.075 36.091-1.408 60.18-6.296 7.903-1.603 13.233-2.41 18.552-2.412 5.32.003 10.65.809 18.553 2.412 24.088 4.888 36.824 6.22 60.18 6.297 12.803.042 26.41-.507 32.203-1.301 8.411-1.153 24.942-4.652 30.546-6.313l.034-.004.039-.011c.989-.284 10.493-2.467 17.283-3.909 6.892-1.463 13.306-2.801 14.254-2.974.946-.174 5.76-1.648 10.695-3.274 10.177-3.352 22.064-4.061 28.918-1.724l4.106 1.4c2.47 21.506.706 43.027.884 64.674 0 39.132.358 43.248 5.79 66.518 1.437 6.158 6.625 18.54 13.193 27.609 16.608 22.934 21.575 47.79 30.127 73.693 3.094 9.46 10.839 47.052 13.506 67.61 1.487 11.457 7.37 25.456 8.234 31.263s2.045 14.191 2.625 18.631c1.182 9.073 3.25 14.784 9.344 28.574 6.63 15.051 22.52 70.897 29.767 107.913 6.354 29.477 16.94 49.803 15.436 82.347.235 17.13-.06 50.153-.656 73.381-3.13 95.368-23.691 183.775-46.182 275.87-7.247 32.405-11.588 48.334-21.494 78.89-21.122 67.406-41.47 135.578-57.526 204.303-.812 5.796-1.007 3.584-1.257-14.254-.37-26.5-1.78-17.347-1.95 12.67-.065 11.414-4.862 30.237-2.043 48.039a100 100 0 0 0 1.018 5.41c-.138.732.689 5.455 1.875 10.691 1.217 5.373 4.113 22.526 6.436 38.12 2.323 15.592 5.646 36.23 7.386 45.863 20.088 121.526-46.195 226.202-60.232 300.216-1.662 8.766-5.575 13.756-16.318 20.815-19.938 13.1-50.524 28.068-73.93 16.592-13.5-6.62-21.632-18.798-22.25-33.323-.906-21.289-4.565-7.48-7.31-41.705-.373-4.645-2.105-18.546-3.848-30.892s-2.993-23.274-2.778-24.284c.563-2.649 5.733 24.681 7.143 37.756.657 6.097 1.613 13.936 2.125 17.42.344 2.337.557 3.65.654 3.784h.022c.096-.15.002-2.353-.235-6.95-.77-14.898-7.502-69.292-10.455-84.466-5.15-26.463-8.078-59.96-8.21-93.97-.077-19.484 1.617-33.928 4.9-41.782 2.605-6.235 4.069-20.68 3.283-32.381-1.008-49.968-44.657-109.831-18.404-180.293 1.197-7.147.1 14.125-1.188 23.025-.52 3.594-.89 10.34-.82 14.984l.127 8.448.83-9.41c.458-5.175 1.58-15.152 2.496-22.172.917-7.02 2.627-25.83 3.797-41.8s2.83-38.062 3.69-49.095c.858-11.033 2.03-29.7 2.609-41.482.577-11.782 1.277-23.424 1.554-25.87.188-1.67.268-2.584.201-2.671h-.021c-.118.093-.463 1.397-1.113 4.031l-1.434 5.807-.12-12.893c-.064-7.091-.59-17.544-1.17-23.228-.581-5.685-1.771-22.213-2.645-36.73-2.768-45.968-3.649-56.685-5.776-70.214-1.14-7.259-3.068-23.889-4.281-36.955s-3.153-31.831-4.31-41.703c-1.926-16.423-3.599-40.71-4.872-70.742-.508-15.768 1.488-31.435.198-46.985.87-6.097 2.07-13.462 2.666-16.365.595-2.904 1.5-11.622 2.011-19.375 2.585-37.31 33.592-43.975 55.205-75.34 23.278-30.462 16.534-31.32 28.22-42.543 37.597-36.11 60.14-59.145 68.716-70.213 19.337-24.957 30.13-39.94 37.262-51.736 16.1-26.627 35.86-49.26 36.66-59.13.62-1.16.66-2.224.1-2.571a.36.36 0 0 0-.186-.059c-1.033-.047-3.62 3.624-11.446 16.098-10.011 14.626-19.24 28.814-28.333 44.07-8.676 14.494-26.395 39.942-37.506 53.858-10.94 13.699-44.948 48.09-62.848 63.554-15.042 12.995-18.703 17.126-29.775 33.58-10.59 15.742-19.96 26.963-35.301 42.295-18.176 18.165-28.724 25.237-38.678 25.766-9.954-.529-20.502-7.6-38.678-25.766-15.342-15.332-24.71-26.553-35.3-42.294-11.072-16.455-14.734-20.586-29.776-33.58-17.9-15.465-51.908-49.856-62.847-63.555-11.111-13.916-28.831-39.364-37.506-53.858-9.094-15.256-18.322-29.444-28.334-44.07-7.825-12.474-10.413-16.145-11.446-16.098a.36.36 0 0 0-.185.059c-.561.347-.52 1.41.1 2.57.8 9.87 20.56 32.504 36.66 59.131 7.132 11.796 17.924 26.78 37.261 51.736 8.576 11.068 31.12 34.102 68.717 70.213 11.685 11.222 4.94 12.081 28.219 42.543 21.613 31.365 52.62 38.03 55.205 75.34.51 7.753 1.417 16.471 2.012 19.375.596 2.903 1.796 10.268 2.666 16.365-1.29 15.55.705 31.217.197 46.985-1.273 30.032-2.946 54.319-4.871 70.742-1.158 9.872-3.098 28.638-4.31 41.703-1.214 13.066-3.14 29.696-4.282 36.955-2.127 13.53-3.007 24.246-5.775 70.213-.874 14.518-2.065 31.046-2.645 36.73-.58 5.685-1.107 16.138-1.172 23.229l-.119 12.893-1.433-5.807c-.65-2.634-.996-3.938-1.114-4.031h-.021c-.067.087.013 1.002.2 2.672.278 2.445.979 14.087 1.556 25.869s1.75 30.45 2.609 41.482c.86 11.033 2.52 33.126 3.69 49.096s2.88 34.779 3.796 41.799 2.038 16.997 2.496 22.172l.83 9.41.127-8.448c.07-4.645-.3-11.39-.82-14.984-1.287-8.9-2.384-30.172-1.187-23.025 26.253 70.462-17.397 130.325-18.405 180.293-.786 11.7.679 26.147 3.284 32.38 3.283 7.855 4.976 22.299 4.9 41.784-.133 34.01-3.061 67.505-8.211 93.968-2.953 15.176-9.685 69.57-10.455 84.467-.237 4.597-.33 6.8-.234 6.95h.021c.097-.134.31-1.447.654-3.784.512-3.484 1.468-11.323 2.125-17.42 1.41-13.075 6.58-40.404 7.143-37.755.215 1.01-1.034 11.937-2.777 24.283s-3.476 26.247-3.848 30.892c-2.746 34.225-6.405 20.416-7.31 41.705-.619 14.525-8.75 26.704-22.25 33.323-23.407 11.476-53.993-3.493-73.93-16.592-10.743-7.06-14.657-12.049-16.319-20.815-14.037-74.014-80.32-178.69-60.232-300.216 1.74-9.632 5.064-30.27 7.387-45.864s5.218-32.746 6.435-38.119c1.186-5.236 2.013-9.96 1.875-10.691q.6-2.784 1.018-5.41c2.82-17.802-1.978-36.625-2.043-48.04-.17-30.015-1.58-39.17-1.95-12.67-.25 17.839-.445 20.051-1.257 14.255-16.055-68.725-36.404-136.897-57.526-204.303-9.906-30.556-14.247-46.485-21.494-78.89-22.49-92.095-43.051-180.502-46.181-275.87-.597-23.228-.892-56.25-.657-73.38-1.504-32.545 9.082-52.87 15.436-82.348 7.248-37.016 23.138-92.862 29.767-107.913 6.094-13.79 8.162-19.5 9.344-28.574.58-4.44 1.761-12.824 2.625-18.63.864-5.808 6.748-19.807 8.235-31.264 2.667-20.558 10.411-58.15 13.505-67.61 8.553-25.903 13.52-50.759 30.127-73.693 6.568-9.07 11.757-21.451 13.194-27.61 5.432-23.27 5.789-27.385 5.789-66.517.178-21.647-1.585-43.168.885-64.674l4.105-1.4c3.427-1.169 8.112-1.576 13.213-1.272M916.37 561.008c-.384 0-.769.077-1.103.23-1.247.57-1.952 1.713-2.69 3.112-2.518 4.774-3.132 20.861-.926 24.228 1.136 1.734 2.928 2.6 4.72 2.6 1.79 0 3.582-.866 4.718-2.6 2.206-3.367 1.592-19.454-.926-24.228-.738-1.4-1.443-2.541-2.69-3.112a2.7 2.7 0 0 0-1.103-.23m-10.707 416.316c.982-.017 2.413.283 4.178.89 2.433.839 5.371 1.278 6.53.975 1.157.303 4.095-.136 6.528-.974 1.765-.608 3.196-.908 4.178-.89.59.01 1.017.134 1.26.376 1.605 1.606.319 31.065-1.91 43.71-1.887 10.703-3.762 14.084-4.483 8.089-.17-1.406-.882-3.704-1.584-5.105-1.007-2.012-.999-2.643.043-2.993.726-.244 1.32-1.405 1.32-2.58 0-1.62-.445-1.954-1.847-1.377-1.461.602-2.574 1.001-3.506 1.174-.932-.173-2.044-.572-3.506-1.174-1.402-.577-1.847-.244-1.847 1.377 0 1.175.594 2.336 1.32 2.58 1.042.35 1.05.98.043 2.993-.702 1.401-1.414 3.699-1.584 5.105-.721 5.995-2.596 2.614-4.483-8.09-2.229-12.644-3.515-42.103-1.91-43.709.243-.242.671-.366 1.26-.377"/></svg>