<svg xmlns="http://www.w3.org/2000/svg" xml:space="preserve" width="2400" height="2000"><path fill="#fbce8a" fill-rule="evenodd" d="M312.288 1003.784a8.31 8.31 0 0 0-7.92 3.08l-10.6 13.574c-18.517 23.711-42.058 64.956-71.723 124.914-67.07 135.545-99.66 234.681-108.652 331.894-4.868 52.647 1.195 97.984 17.803 133.69 16.612 35.708 44.1 61.617 80.448 74.179 31.626 10.93 74.48 4.663 168.41-21.076 55.903-15.32 127.94-36.417 186.07-54.13 29.067-8.859 54.646-16.87 73.032-22.904 9.192-3.016 16.572-5.53 21.795-7.454 2.611-.964 4.658-1.76 6.305-2.497.826-.368 1.518-.687 2.398-1.216.438-.265.92-.54 1.698-1.251s2.836-1.825 2.829-6.342c-.005-4.405-.955-3.918-1.227-4.376-.272-.454-.442-.68-.608-.904a25 25 0 0 0-.969-1.227c-.7-.84-1.592-1.876-2.734-3.16a771 771 0 0 0-9.484-10.39 3157 3157 0 0 0-30.889-32.807c-71.56-75.04-122.246-138.095-171.398-213.185-57.735-88.201-90.065-153.4-121.74-245.409l-16.359-47.512a8.31 8.31 0 0 0-6.485-5.49"/><path fill="#fbce8a" fill-rule="evenodd" d="M759.037 505.77c-5-.24-14.752 1.437-19.524 3.4-27.052 11.12-55.683 34.948-91.398 58.465-7.102 4.677-25.254 12.173-27.306 13.76-.19.149-.6.972-1.088 2.203-5.451-3.891-13.073-7.533-20-7.493-15.578.084-19.277 5.406-24.783 9.15-5.508 3.742-11.595 8.442-20.371 15.305-66.324 51.859-138.838 119.874-171.947 163.665-40.57 53.661-68.1 128.989-68.203 191.906-.153 93.034 60.373 228.802 151.98 366.375 85.262 128.039 177.652 227.959 260.436 275.224 22.456 12.821 39.823 18.717 64.714 21.966 43.112 5.624 109.485 2.433 160.172-6.64 26.636-4.767 62.425-14.718 84.844-26.466v-.005l6.94-3.635a29.737 29.737 0 0 0 8.998-45.423l-15.65-18.698a11830 11830 0 0 0-34.784-41.294c-74.028-87.437-163.116-282.038-209.674-466.796-23.215-92.125-37.448-196.564-37.448-271.358 0-8.225-.081-15.681-.222-21.343a220 220 0 0 0-.27-7.268c-.062-1.054-.109-1.946-.297-3.528-.098-.791-.14-1.585-.702-3.902-.282-1.16-.47-2.566-2.188-6.099-.34-.702-1.607-2.136-2.163-3.075a29.74 29.74 0 0 0 7.563-15.576l2.942-23.33v-.005c.853-6.794 1.513-13.047 1.918-18.107.206-2.53.346-4.69.403-6.992.025-1.15.062-2.24-.069-4.21-.064-.987-.119-2.131-.583-4.426-.465-2.291 1.384-5.74-8.198-15.323-2.141-2.14-3.852-3.659-5.237-4.73.73-2.635 1.479-8.328 2.974-14.512 2.606-10.764 6.208-25.375 9.828-36.473 7.19-22.048 9.733-31.062 6.742-36.696l-2.579-4.858-2.72-2.223c-.247-.566-1.384-.855-3.05-.937M2089.15 997.905c-9.058.003-10.16 3.901-11.199 5.083-1.04 1.18-1.367 1.778-1.669 2.275-.603.994-.83 1.508-1.087 2.052a59 59 0 0 0-1.422 3.33 334 334 0 0 0-3.671 9.76c-2.905 8.02-6.685 18.923-10.7 30.924-17.356 51.88-32.948 88.846-58.287 138.19-35.705 69.53-79.936 137.963-131.827 203.887-35.722 45.378-62.309 75.377-122.266 137.906a1115 1115 0 0 0-18.444 19.647 265 265 0 0 0-5.71 6.428 46 46 0 0 0-1.976 2.438c-.334.447-.665.85-1.308 1.97-.321.561-.756 1.177-1.357 3.095-.3.96-.732 2.26-.685 4.752a14.9 14.9 0 0 0 2.29 7.66c.625.993 2.314 2.83 2.316 2.833 4.5 4.289 3.95 2.736 4.559 3.008.606.272 1.046.44 1.53.628.97.371 2.042.757 3.37 1.222 2.655.927 6.242 2.13 10.648 3.577 8.811 2.893 20.839 6.744 34.34 11.009 27.007 8.53 59.861 18.683 84.23 25.934 140.735 41.876 221.183 63.439 264.132 70.262 3.864.616 6.173.554 10.771.725 4.599.173 10.213.301 15.872.363 18.268.196 26.19-.974 39.611-5.644 19.912-6.932 35.364-16.154 50.55-30.224 40.316-37.35 56.67-97.044 52.161-175.121-5.533-95.751-43.559-212.772-112.234-349.553-26.335-52.45-48.264-90.822-65.79-114.237a430 430 0 0 0-10.374-13.36 116 116 0 0 0-3.814-4.495 28 28 0 0 0-1.904-1.96c-.405-.381-.84-.799-1.817-1.498-.977-.698-1.177-2.873-8.838-2.868"/><path fill="#fabd62" fill-rule="evenodd" d="M2089.136 998.548a8.3 8.3 0 0 1 6.808 3.194l10.602 13.573.593.764q.133 1.632.264 3.315c42.313 255.926-102.275 472.213-316.451 572.029a2510 2510 0 0 1-29.791-9.54c-9.195-3.017-16.575-5.531-21.798-7.457-2.611-.962-4.658-1.76-6.305-2.497a20 20 0 0 1-2.398-1.216c-.438-.265-.92-.54-1.698-1.249s-2.836-1.824-2.831-6.341c.005-4.406.957-3.919 1.229-4.376.272-.455.442-.68.608-.907.329-.45.618-.804.969-1.227.7-.84 1.592-1.874 2.734-3.157a771 771 0 0 1 9.484-10.39 3157 3157 0 0 1 30.889-32.808c71.557-75.041 122.246-138.097 171.398-213.185 57.735-88.2 90.065-153.4 121.74-245.408l16.359-47.515a8.31 8.31 0 0 1 7.595-5.6"/><path fill="#fbce8a" fill-rule="evenodd" d="M1639.361 497.318c-1.523.06-3.37.403-5.548 1.392-3.27 1.486-6.252 4.92-7.4 7.72s-1.2 4.874-1.19 6.55c.022 3.347.578 5.696 1.312 8.811 1.474 6.23 4.09 14.982 8.262 29.01 3.813 12.819 8.176 28.085 9.45 32.97l2.583 9.929a13.2 13.2 0 0 0 13.12 9.87l35.448-.916c19.007-.494 34.033.314 46.43 1.635-7.734.976-16.911 1.958-28.293 2.942-12.772 1.102-24.466 2.175-33.08 3.026-4.301.425-7.827.79-10.398 1.087-1.286.149-2.316.267-3.214.396-.445.064-.84.121-1.397.227-.282.052-.578.11-1.174.27s-.53-1.11-5.021 2.559c-.003.002-2.161 2.168-2.715 3.016a12.4 12.4 0 0 0-1.112 2.084c-.47 1.113-.618 1.788-.737 2.317-.235 1.06-.257 1.547-.29 1.96-.066.828-.056 1.224-.054 1.632.008.818.045 1.513.092 2.344.099 1.656.264 3.735.48 6.207.43 4.945 1.062 11.375 1.742 17.843s1.405 12.95 2.023 17.988c.309 2.517.593 4.66.845 6.369.126.853.24 1.575.386 2.341.074.383.146.761.297 1.342.148.581-.416.65 1.713 4.023l2.109 2.564s1.08.924 1.483 1.206c.806.566 1.315.818 1.718 1.019.806.4 1.19.526 1.503.638.626.222.883.284 1.125.346.485.13.767.19 1.09.262.648.143 1.353.284 2.23.455a546 546 0 0 0 7.103 1.312 2274 2274 0 0 0 22.716 3.931c17.395 2.93 30.733 6.277 41.82 9.617-2.919-.148-5.186-.19-8.388-.4-16.015-1.046-34.846-2.789-49.213-4.712h-.005l-10.116-1.353a13.2 13.2 0 0 0-14.945 12.666l-1.558 49.05c-4.554 143.204-41.131 304.97-105.111 463.515-51.01 126.408-98.882 210.597-158.733 280.125a1951 1951 0 0 0-20.082 23.694c-5.719 6.868-9.61 11.57-11.89 14.772l-5.117 7.184a13.202 13.202 0 0 0 6.057 19.996l19.185 7.306h.007c39.322 14.957 66.361 21.222 111.537 25.867 16.602 1.706 43.497 1.953 69.133 1.343s47.73-1.501 60.382-4.646c39.278-9.76 90.19-47.347 144.542-101.66 39.631-39.599 64.725-68.742 103.737-120.445 56.277-74.576 104.783-155.605 139.373-229.855 34.587-74.247 55.581-141.19 55.47-190.655-.136-60.417-28.08-137.355-67.335-186.55-55.695-69.795-172.847-169.8-264.615-226.508-13.247-8.184-31.957-18.384-49.238-27.17s-31.604-15.799-41.228-18.624c-.885-.26-1.906-.609-3.689-.91-.89-.149-2.094-.378-3.617-.322m130.717 207.407c1.115-.6-.761 1.88-.257.46.06-.054.208-.425.257-.46"/><path fill="#fbce8a" fill-rule="evenodd" d="M1430.647 306.11c-8.37-.114-16.597 1.053-24.475 3.655-19.23 6.345-36.956 22.645-56.07 45.046s-38.652 51.277-56.092 83.59v.008l-7.58 14.048h-172.334l-17.268-30.114c-19.269-33.607-38.537-60.567-57.54-80.213s-37.774-32.649-58.084-35.372a82 82 0 0 0-16.702-.518c-39.002 2.745-75.031 31.628-106.25 78.503-25.988 39.02-68.402 124.994-84.104 170.363l-12.097 34.963a14.86 14.86 0 0 0 9.45 18.999l22.95 7.458c.525.167.35.16.853.328l-28.967 1.706a14.86 14.86 0 0 0-13.72 12.028l-3.699 19.22-3.71 19.229a14.86 14.86 0 0 0 13.297 17.621l22.936 2.007c3.357.29 3.864.644 6.643.962-.968.115-1.458.287-2.482.388-8.206.829-15.863 1.804-21.86 2.752-3 .475-5.551.933-7.796 1.444-1.126.251-2.15.5-3.395.909-1.248.402-2.073-.752-6.898 4.073-3.937 3.94-3.455 5.195-3.811 6.276a21 21 0 0 0-.654 2.486c-.294 1.391-.483 2.646-.678 4.118-.385 2.944-.742 6.605-1.098 10.986-.713 8.769-1.392 20.327-1.899 32.813-7.14 176.047 52.375 386.134 165.073 587.54 55.36 98.943 103.711 163.527 148.803 192.463 25.401 16.3 58.854 26.275 97.202 30.082 39.53 3.923 103.84 1.535 138.245-5.513 36.91-7.56 70.196-26.586 102.851-60.228s65.347-81.793 103.887-149.734c69.437-122.406 121.567-255.256 148.321-378.425 16.157-74.385 20.803-129.224 19.796-232.464l-.293-30.013a14.86 14.86 0 0 0-13.563-14.66l-42.33-3.702c-5.895-.514-8.433-1.06-13.073-1.591 5.766-.5 11.101-1.143 18.276-1.147 8.342-.007 15.898-.343 21.873-.951 2.986-.304 5.496-.626 8.14-1.255 1.32-.315 2.611-.598 4.79-1.668 1.083-.531 2.46-1.21 4.324-3.052s4.57-5.755 4.57-10.87c0-3.13-.245-3.311-.472-4.857a224 224 0 0 0-.902-5.503 633 633 0 0 0-2.846-15.034v-.01l-3.934-19.563a14.86 14.86 0 0 0-14.803-11.93l-37.27.599c5.523-1.248 12.635-2.864 12.341-2.86 4.538-.06 8.95.07 14.807-2.518 5.856-2.594 11.524-10.544 12.325-16.785 1.608-12.482-2.612-21.034-8.357-38.163-11.978-35.711-34.036-82.024-57.025-123.347-22.995-41.323-45.092-76.36-64.063-93.013-22.051-19.362-48.449-31.246-73.563-31.59"/><path fill="#fac26d" d="M663.646 596.882c-70.643.15-85.664 23.039-16.693 27.504l112.652 9.402v-31.603c-31.907-4.532-68.613-5.36-95.959-5.303m75.224 84.994c-29.202 2.032-60.388 7.133-84.215 11.585-69.442 12.972-80.06 38.204-11.425 30.078l95.64-9.528zm909.438 7.078v32.328l85.203 8.49c68.633 8.128 58.017-17.106-11.425-30.078-21.007-3.924-47.732-8.352-73.778-10.74m68.485-86.307c-21.563-.045-48.941.455-75.202 2.893v32.275l91.9-7.669c68.969-4.465 53.945-27.348-16.698-27.5"/><path fill="#fabd62" fill-rule="evenodd" d="M322.348 1000.758a8.3 8.3 0 0 0-6.809 3.192l-10.598 13.573q-.297.38-.594.766-.138 1.627-.267 3.315c-9.592 327.405 135.264 541.726 316.452 572.03 11.23-3.531 21.282-6.75 29.794-9.544 9.192-3.016 16.574-5.53 21.795-7.454 2.613-.964 4.66-1.76 6.307-2.497.823-.368 1.518-.687 2.396-1.216.44-.265.92-.54 1.698-1.251s2.838-1.825 2.83-6.339c-.004-4.408-.953-3.919-1.225-4.376-.272-.455-.445-.682-.609-.907a25 25 0 0 0-.971-1.227 127 127 0 0 0-2.732-3.157 771 771 0 0 0-9.484-10.393 3157 3157 0 0 0-30.888-32.807c-71.56-75.039-122.247-138.094-171.401-213.185-57.733-88.199-90.065-153.4-121.74-245.406l-16.36-47.515a8.31 8.31 0 0 0-7.594-5.602m-156.352 277.617c127.236 312.769 174.113 273.823 259.54 383.234-67.152 18.819-111.611 29.68-139.852 34.166-3.864.616-6.173.554-10.774.725a618 618 0 0 1-15.872.363c-18.265.196-26.187-.974-39.609-5.644-19.911-6.932-35.365-16.154-50.55-30.224-40.316-37.35-56.67-97.044-52.16-175.121 3.51-60.737 20.09-130.03 49.277-207.499"/><path fill="#fabd62" fill-rule="evenodd" d="M414.888 726.657c-12.816 13.651-23.823 26.399-32.266 37.568-40.57 53.661-68.101 128.989-68.205 191.906-.153 93.034 60.373 228.802 151.98 366.375 85.262 128.039 177.652 227.959 260.436 275.224 22.456 12.821 39.823 18.717 64.714 21.966 13.061 1.706 28.253 2.598 44.501 2.769-24.07-43.965-59.97-95.23-95.845-147.165-194.858-203.1-237.707-460.368-316.185-718.766a907 907 0 0 0-9.13-29.877m1829.757 551.718c-127.239 312.769-174.116 273.823-259.54 383.234 67.15 18.819 111.608 29.68 139.852 34.166 3.864.616 6.173.554 10.771.725 4.599.173 10.213.301 15.872.363 18.268.196 26.19-.974 39.611-5.644 19.912-6.932 35.364-16.154 50.55-30.224 40.316-37.35 56.67-97.044 52.161-175.121-3.51-60.737-20.09-130.03-49.277-207.499m-276.038-551.718c12.814 13.651 23.82 26.399 32.263 37.568 40.57 53.661 68.102 128.989 68.206 191.906.153 93.034-60.373 228.802-151.981 366.375-85.262 128.039-177.648 227.959-260.435 275.224-22.456 12.821-39.821 18.717-64.715 21.966-13.06 1.706-28.253 2.598-44.5 2.769 24.07-43.965 59.972-95.23 95.845-147.165 85.041-123.125 169.92-250.032 220.186-372.778 50.269-122.749 65.92-241.329 95.999-345.99a907 907 0 0 1 9.132-29.875m-329.246-229.34c-1.523.06-3.37.401-5.548 1.393-3.27 1.486-6.252 4.92-7.4 7.72s-1.2 4.874-1.19 6.55c.022 3.347.578 5.696 1.312 8.811 1.474 6.23 4.09 14.982 8.262 29.01 3.813 12.819 8.176 28.085 9.45 32.97l2.583 9.929a13.2 13.2 0 0 0 13.12 9.87l35.448-.916c19.007-.494 34.033.314 46.43 1.635-7.734.976-16.911 1.958-28.293 2.942-12.772 1.102-24.466 2.175-33.08 3.026-4.301.425-7.827.79-10.398 1.087-1.286.149-2.316.267-3.214.396-.445.064-.84.121-1.397.227-.282.052-.578.11-1.174.27s-.53-1.11-5.021 2.559c-.003.002-2.161 2.168-2.715 3.016a12.4 12.4 0 0 0-1.112 2.084c-.47 1.113-.618 1.788-.737 2.317-.235 1.06-.257 1.547-.29 1.96-.066.828-.056 1.224-.054 1.632.008.818.045 1.513.092 2.344.099 1.656.264 3.735.48 6.207.43 4.945 1.062 11.375 1.742 17.843s1.405 12.95 2.023 17.988c.309 2.517.593 4.66.845 6.369.126.853.24 1.575.386 2.341.074.383.146.761.297 1.342.148.581-.416.65 1.713 4.023l2.109 2.564s1.08.924 1.483 1.206c.806.566 1.315.818 1.718 1.019.806.4 1.19.526 1.503.638.626.222.883.284 1.125.346.485.13.767.19 1.09.262.648.143 1.353.284 2.23.455a546 546 0 0 0 7.103 1.312 2274 2274 0 0 0 22.716 3.931c17.395 2.93 30.733 6.277 41.82 9.617-2.919-.148-5.186-.19-8.388-.4-16.015-1.046-34.846-2.789-49.213-4.712h-.005l-10.116-1.353a13.2 13.2 0 0 0-14.945 12.666l-1.558 49.05c-4.554 143.204-41.131 304.97-105.111 463.515-51.01 126.408-98.882 210.597-158.733 280.125a1951 1951 0 0 0-20.082 23.694c-5.719 6.868-9.61 11.57-11.89 14.772l-5.117 7.184a13.202 13.202 0 0 0 6.057 19.996l19.185 7.306h.007c20.686 7.869 37.974 13.335 56.294 17.422 61.303-90.676 131.879-202.831 193.397-319.345 116.61-220.858 200.665-457.369 195.72-613.535-.643-20.335-2.798-39.31-6.185-56.984-29.722-22.792-59.503-43.673-87.002-60.667-13.247-8.184-31.957-18.384-49.238-27.17s-31.604-15.799-41.228-18.624c-.885-.26-1.906-.609-3.689-.91-.89-.149-2.094-.378-3.617-.322m130.982 207.311q.034 0 .059.015l.015.01.005.005.01.014c.086.193-.47.942-.648.957h-.005l-.015-.005h-.005l-.005-.005-.005-.005-.005-.005c-.024-.049-.01-.18.077-.425l.005-.005c.057-.066.19-.383.247-.45l.005-.005a.7.7 0 0 1 .265-.096M758.745 492.329c1.523.057 3.37.398 5.548 1.39 3.268 1.485 6.25 4.92 7.397 7.72s1.204 4.873 1.192 6.55c-.023 3.347-.577 5.695-1.31 8.81-1.474 6.23-4.092 14.983-8.266 29.01-3.812 12.819-8.175 28.085-9.449 32.97l-2.583 9.93a13.2 13.2 0 0 1-13.118 9.869l-35.448-.918c-19.007-.492-34.036.317-46.43 1.637 7.734.977 16.909 1.958 28.294 2.942 12.771 1.103 24.465 2.176 33.076 3.026 4.305.425 7.83.791 10.401 1.088 1.286.148 2.317.267 3.212.395.445.065.84.122 1.399.228.28.052.576.109 1.174.27.594.16.527-1.11 5.019 2.558.005.003 2.16 2.168 2.715 3.016.556.85.875 1.528 1.112 2.085.47 1.112.618 1.787.74 2.316.234 1.06.254 1.548.289 1.96.064.826.056 1.224.052 1.632a45 45 0 0 1-.092 2.344 240 240 0 0 1-.477 6.208c-.43 4.944-1.063 11.375-1.743 17.842a1098 1098 0 0 1-2.025 17.986 265 265 0 0 1-.845 6.371c-.124.853-.24 1.575-.386 2.341-.074.384-.143.762-.294 1.343s.413.65-1.714 4.022l-2.11 2.564s-1.079.925-1.484 1.207a12.4 12.4 0 0 1-1.718 1.018c-.806.4-1.187.527-1.501.638-.626.222-.883.284-1.125.346-.485.131-.766.19-1.093.262-.648.144-1.35.284-2.23.455a546 546 0 0 1-7.103 1.313 2272 2272 0 0 1-22.712 3.93c-17.395 2.93-30.736 6.278-41.824 9.618 2.92-.148 5.187-.19 8.388-.4 16.018-1.046 34.847-2.79 49.214-4.713h.005l10.116-1.352a13.2 13.2 0 0 1 14.945 12.665l1.558 49.05c4.554 143.205 41.133 304.971 105.114 463.516 51.01 126.408 98.878 210.596 158.732 280.124a1951 1951 0 0 1 20.083 23.694c5.716 6.868 9.61 11.57 11.886 14.772l5.118 7.185c5.014 7.04 2.022 16.917-6.055 19.995l-19.187 7.306h-.005c-20.688 7.87-37.974 13.336-56.294 17.422-61.305-90.676-144.712-196.912-193.396-319.344-98.852-248.576-199.958-458.475-195.723-613.536a353 353 0 0 1 6.185-56.984c29.724-22.792 59.503-43.672 87.005-60.667 13.244-8.183 31.954-18.384 49.238-27.17s31.6-15.798 41.227-18.624c.883-.26 1.904-.608 3.69-.91.89-.148 2.093-.378 3.616-.321M627.764 699.637a.3.3 0 0 0-.06.015l-.015.01-.005.005-.01.014c-.086.193.468.942.648.957h.005l.015-.005h.005l.005-.005.005-.005.005-.005c.025-.049.01-.18-.08-.425l-.004-.005c-.057-.066-.19-.383-.247-.45l-.003-.005a.7.7 0 0 0-.267-.096z"/><path fill="#fabd62" fill-rule="evenodd" d="M1427.95 311.474c.11 6.91-1.145 14.228.716 21.244 117.775 444.511-79.795 836.54-197.27 1238.576 17.85-1.251 34.377-3.202 46.923-5.77 36.914-7.563 70.198-26.585 102.857-60.23 32.656-33.643 65.342-81.793 103.885-149.736 69.434-122.403 121.567-255.256 148.32-378.422 16.156-74.386 20.804-129.227 19.798-232.464l-.297-30.013a14.86 14.86 0 0 0-13.56-14.661l-42.333-3.704c-5.894-.516-8.43-1.058-13.069-1.59 5.766-.499 11.1-1.144 18.273-1.149 8.344-.007 15.897-.336 21.875-.944 2.986-.307 5.496-.626 8.14-1.256 1.321-.317 2.612-.598 4.785-1.666 1.088-.535 2.467-1.214 4.331-3.056 1.867-1.842 4.569-5.753 4.569-10.87 0-3.13-.245-3.314-.475-4.859a225 225 0 0 0-.902-5.498 641 641 0 0 0-2.843-15.042v-.005l-3.936-19.565a14.86 14.86 0 0 0-14.804-11.929l-37.275.6c5.53-1.25 12.639-2.862 12.35-2.86 4.536-.059 8.947.072 14.803-2.521 5.857-2.589 11.524-10.542 12.327-16.782 1.607-12.483-2.613-21.034-8.356-38.162-11.978-35.712-34.036-82.026-57.028-123.347s-45.095-76.36-64.062-93.015c-20.354-17.872-44.412-29.37-67.74-31.304m-467.466 0a626 626 0 0 1-.715 21.244c-5.827 116.544-42.914 274.96 9.64 537.143 43.403 216.552 147.958 503.888 187.63 701.433-17.85-1.251-34.376-3.202-46.923-5.77-36.914-7.563-70.2-26.585-102.857-60.23-32.659-33.643-65.342-81.793-103.885-149.736-69.437-122.403-121.57-255.256-148.322-378.422-16.156-74.386-20.802-129.227-19.796-232.464l.295-30.013a14.86 14.86 0 0 1 13.562-14.661l42.333-3.704c5.894-.516 8.428-1.058 13.066-1.59-5.763-.499-11.1-1.144-18.27-1.149-8.344-.007-15.897-.336-21.875-.944-2.989-.307-5.495-.626-8.14-1.256-1.323-.317-2.612-.598-4.787-1.666a14.6 14.6 0 0 1-4.332-3.056c-1.864-1.842-4.566-5.753-4.566-10.87 0-3.13.242-3.314.472-4.859q.346-2.319.903-5.498a641 641 0 0 1 2.843-15.042v-.005l3.938-19.565a14.86 14.86 0 0 1 14.804-11.929l37.272.6c-5.528-1.25-12.638-2.862-12.346-2.86-4.537-.059-8.95.072-14.804-2.521-5.86-2.589-11.526-10.542-12.33-16.782-1.607-12.483 2.616-21.034 8.36-38.162 11.977-35.712 34.035-82.026 57.027-123.347s45.092-76.36 64.062-93.015c20.352-17.872 44.41-29.37 67.74-31.304"/><path fill="#4a280c" d="M965.833 280.608c-8.89.017-17.81 1.777-28.421 5.278-73.447 24.24-148.841 181.134-156.038 181.26-4.057.07-41.136 17.128-82.396 37.913-140.302 70.682-265.125 173.363-326.873 268.9-33.717 52.165-65.384 127.572-65.384 155.687 0 9.246-22.607 53.61-50.244 98.587C124.11 1243.628 59.142 1472.563 95.19 1596.56c14.287 49.144 51.003 93.687 92.053 111.673 13.597 5.958 41.445 10.977 61.896 11.155 36.27.317 272.668-62.012 394.007-103.885l60.413-20.839 42.585 19.103c74.853 33.589 204.025 22.394 305.225-26.458 23.079-11.14 36.09-13.177 46.973-7.352 15.818 8.465 59.513 13.187 101.658 13.152 42.145.035 85.838-4.687 101.66-13.152 10.88-5.825 23.892-3.788 46.973 7.352 101.198 48.852 230.37 60.047 305.223 26.458l42.585-19.103 60.41 20.841c121.342 41.871 357.74 104.2 394.01 103.886 20.45-.178 48.299-5.2 61.894-11.158 41.052-17.986 77.768-62.529 92.055-111.673 36.046-123.997-28.923-352.932-161.287-568.327-27.64-44.976-50.244-89.339-50.244-98.587 0-28.115-31.67-103.522-65.384-155.687-61.748-95.537-186.57-198.218-326.873-268.9-41.262-20.785-78.339-37.844-82.396-37.913-7.194-.126-82.591-157.02-156.038-181.26-10.61-3.5-19.53-5.26-28.421-5.278s-17.751 1.706-28.243 5.167c-32.84 10.838-86.802 66.393-111.475 114.758l-17.24 33.781-76.04-.066h-2.338l-76.043.066-17.237-33.78c-24.673-48.366-78.635-103.92-111.475-114.76-10.492-3.46-19.353-5.184-28.243-5.166m8.977 38.35c31.472 0 70.101 37.331 107.878 104.266l24.861 44.046h184.9l24.863-44.046c37.777-66.935 76.406-104.266 107.878-104.266 59.686 0 95.47 38.565 161.331 173.885 199.424 414.698-129.56 900.155-171.25 958.93-63.636 83.06-104.933 103.142-212.136 103.142l-3.135-.005-3.135.005c-107.203 0-148.502-20.083-212.136-103.141-41.69-58.776-370.674-544.233-171.25-958.93 65.861-135.321 101.645-173.886 161.33-173.886m-212.363 189.51c2.581 0-.986 16.688-7.936 37.08-103.186 302.86 101.074 815.382 235.173 961.553 24.013 26.176 42.363 48.934 41.263 51.193l-.008.005c-.007.008-.017.025-.025.03v.015l-.02.02-.02.014c-1.75 1.63-21.726 9.395-44.384 17.237-58.057 20.1-189.125 24.847-225.88 8.19-157.496-71.381-395.607-418.68-417.776-609.37-5.565-47.867 16.268-123.49 51.963-180.036 57.1-81.755 257.816-253.435 367.648-285.931m875.108 0c109.833 32.496 310.55 204.176 367.652 285.931 35.695 56.544 57.525 132.169 51.96 180.037-22.169 190.687-260.281 537.988-417.778 609.367-36.755 16.659-167.82 11.91-225.88-8.188-22.658-7.844-42.634-15.61-44.385-17.239l-.02-.015-.02-.02v-.014l-.024-.028-.005-.005c-1.1-2.26 17.247-25.02 41.262-51.193 134.097-146.171 338.357-658.695 235.171-961.554-6.95-20.394-10.517-37.08-7.936-37.08zM311.935 1008.922l18.557 56.52c47.616 145.055 154.666 312.361 287.533 449.365l53.013 54.657-52.387 17.217c-28.807 9.469-111.708 34.207-184.217 54.991-166.72 47.79-195.72 51.3-239.579 28.938-94.258-48.056-101.307-199.857-18.938-407.691 33.574-84.725 93.648-201.684 120.84-235.267zm1776.13 0 15.178 18.73c27.195 33.583 87.264 150.544 120.84 235.267 82.369 207.834 75.32 359.635-18.938 407.691-43.858 22.36-72.858 18.851-239.579-28.938-72.51-20.784-155.407-45.522-184.22-54.99l-52.387-17.218 53.016-54.657c132.87-137.004 239.915-304.31 287.533-449.364Z"/><path fill="#4a280c" d="M1601.595 674.939c-34.81 1.83-46.558 5.565-46.558 14.806 0 9.405 12.304 12.938 51.497 14.804l126.977 12.651c68.633 8.129 58.017-17.103-11.425-30.075-34.211-6.391-83.59-14.124-120.491-12.189m-826.451.003c34.81 1.83 46.558 5.565 46.558 14.806 0 9.405-12.305 12.938-51.498 14.804L643.228 717.2c-68.633 8.129-58.017-17.103 11.424-30.075 34.212-6.391 83.59-14.124 120.492-12.189m9.204-74.717c33.895 8.12 44.773 13.927 43.094 23.012-1.706 9.249-14.448 10.49-53.327 5.212l-127.164-10.614c-68.97-4.465-53.948-27.348 16.695-27.501 34.803-.075 84.765 1.285 120.702 9.891m811.746 0c-33.898 8.12-44.773 13.927-43.097 23.012 1.706 9.249 14.45 10.49 53.33 5.212l127.161-10.614c68.97-4.465 53.948-27.348-16.692-27.501-34.803-.075-84.768 1.285-120.702 9.891M1200 632.78c-10.571-.01-21.145 12.107-24.167 36.395 0 0-1.53 37.69-21.464 29.252h-.005l-.005-.005c-3.748-1.593-7.377-4.428-10.455-8.639-4.554-6.23-10.31-9.14-15.538-9.174-7.64-.05-14.152 6.037-14.152 16.866 0 18.71 31.11 58.528 75.128 38.407 8.48-3.88 12.848-3.872 21.314 0 44.021 20.124 75.13-19.697 75.13-38.407 0-10.829-6.512-16.918-14.154-16.866-5.227.034-10.982 2.944-15.538 9.174-3.078 4.21-6.705 7.046-10.453 8.639l-.005.005h-.005c-3.14 1.075-3.716 1.154-3.704 1.179-12.435 3.54-17.76-30.431-17.76-30.431-3.022-24.288-13.596-36.405-24.167-36.392z"/><path fill="#4b290d" d="M988.867 637.855c-8.262.272-15.756 1.17-21.523 2.769-11.815 3.28-17.366 11.973-14.621 22.908 2.72 10.84 9.698 13.063 31.358 9.993 15.766-2.238 22.196-1.832 37.972 2.368 24.64 6.564 31.225 6.784 37.341 1.254 7.3-6.611 6.646-21.766-1.162-26.874-12.868-8.42-44.58-13.24-69.365-12.418m439.13 0c8.262.272 15.755 1.17 21.523 2.769 11.815 3.28 17.363 11.973 14.618 22.908-2.72 10.84-9.696 13.063-31.356 9.993-15.768-2.238-22.196-1.832-37.971 2.368-24.641 6.564-31.228 6.784-37.342 1.254-7.3-6.611-6.648-21.766 1.162-26.874 12.866-8.42 44.578-13.24 69.365-12.418"/></svg>