<svg xmlns="http://www.w3.org/2000/svg" xml:space="preserve" width="1000" height="500" viewBox="0 0 1000 500"><path d="M429.706 32.073c-1.347-.002-2.899.382-5.263 1.099-31.373 9.12-63.813 16.783-92.41 33.123-15.567 8.775-24.004 26.83-23.776 41.187 0 0-.291.59-1.16 3.156-1.56 4.342-4.16 8.445-6.19 12.619-.306.627-.535 1.708-.53 2.405.388 54.771-.855 109.568.996 164.322.923 21.56 1.813 33.1 3.731 48.395 5.274 30.741 13.303 70.573 39.718 91.473 2.825 2.133 6.305 3.766 12.394 6.371 24.525 10.366 49.265 20.219 74.016 30.025 4.41 1.992 9.34 3.092 9.447-1.885.82-38.411-.031-76.883-.031-115.314.213-.156 3.089-2.132 3.995 3.946.042.28.298.507.581.507h3.494c.283 0 .512-.23.512-.512V240.51h1.555c.963 0 1.738-.775 1.738-1.738v-.248c0-.962-.775-1.737-1.738-1.737h-1.555v-6.57h1.555c.963 0 1.738-.775 1.738-1.737v-.248c0-.963-.775-1.737-1.738-1.737h-1.555v-6.818h1.555c.963 0 1.738-.775 1.738-1.737v-.248c0-.963-.775-1.738-1.738-1.738h-1.555v-6.569h1.555c.963 0 1.738-.775 1.738-1.737v-.248c0-.963-.775-1.738-1.738-1.738h-1.555v-6.57h1.555c.963 0 1.738-.774 1.738-1.736v-.249c0-.962-.775-1.737-1.738-1.737h-1.555v-52.35a1.51 1.51 0 0 0-1.509-1.509h-6.771V51.489a.674.674 0 0 0-.674-.674h-.385v-9.4c0-1.143-.824-1.142-1.214-.888v-3.33a1.78 1.78 0 0 0-.87-1.53c-2.576-1.432-5.043-3.475-8.101-3.594" style="fill:#000;fill-opacity:1;stroke-width:.437963"/><path d="M565.585 32.073c-3.058.12-5.526 2.162-8.1 3.595-.54.32-.872.9-.872 1.528v3.331c-.389-.254-1.213-.255-1.213.887v9.401h-.385a.674.674 0 0 0-.674.674v90.022h-6.772a1.51 1.51 0 0 0-1.509 1.509v52.35h-1.555c-.962 0-1.738.775-1.738 1.737v.249c0 .962.776 1.737 1.738 1.737h1.555v6.57h-1.555c-.962 0-1.738.774-1.738 1.737v.248c0 .962.776 1.737 1.738 1.737h1.555v6.57h-1.555c-.962 0-1.738.774-1.738 1.737v.248c0 .962.776 1.737 1.738 1.737h1.555v6.818h-1.555c-.962 0-1.738.774-1.738 1.737v.248c0 .962.776 1.737 1.738 1.737h1.555v6.57h-1.555c-.962 0-1.738.775-1.738 1.737v.248c0 .963.776 1.737 1.738 1.737h1.555v112.48c0 .284.23.513.513.513h3.493c.283 0 .54-.227.581-.507.907-6.078 3.782-4.102 3.996-3.946 0 38.43-.851 76.903-.031 115.314.106 4.977 5.037 3.877 9.447 1.885 24.751-9.806 49.49-19.66 74.016-30.025 6.088-2.605 9.57-4.238 12.394-6.37 26.415-20.901 34.444-60.733 39.717-91.474.293-2.334.562-4.58.81-6.789h.57c.865-8.457 1.333-16.79 1.516-24.772.294-4.974.563-10.467.835-16.834l.008-.218h2.63a3.123 3.123 0 0 0 3.122-3.123v-58.6a2.603 2.603 0 0 0-2.444-2.599l-.532-.032a2.6 2.6 0 0 0 .406-1.383v-9.315c0-1.168-.786-2.19-1.915-2.49l-.224-.062v-.006h1.586a3.123 3.123 0 0 0 3.123-3.117v-58.6a2.605 2.605 0 0 0-2.444-2.601l-2.398-.15v-.387h.409a2.05 2.05 0 0 0 2.055-2.055v-18.274a9.06 9.06 0 0 0-2.653-6.404l-1.484-1.484c-2.497-2.46-3.733-5.193-4.968-8.446-.869-2.566-1.16-3.156-1.16-3.156.228-14.358-8.21-32.412-23.776-41.187-28.597-16.34-61.037-24.004-92.41-33.123-2.364-.717-3.916-1.101-5.263-1.1z" style="fill:#000;fill-opacity:1;stroke:none;stroke-width:14.255;stroke-linecap:round"/><g style="fill:#dfdfe7;fill-opacity:1"><g style="fill:#dfdfe7;fill-opacity:1" transform="matrix(-1.92201 -.00751 -.0067 2.15275 279.745 -529.92)"><rect width="13.285" height="5.299" x="-65.983" y="384.896" rx="2.498" style="fill:#dfdfe7;fill-opacity:1;fill-rule:evenodd;stroke:none;stroke-width:.927752;stroke-linecap:round;stroke-miterlimit:7;paint-order:stroke markers fill"/><rect width="13.285" height="5.299" x="-66.047" y="403.425" rx="2.498" style="fill:#dfdfe7;fill-opacity:1;fill-rule:evenodd;stroke:none;stroke-width:.927752;stroke-linecap:round;stroke-miterlimit:7;paint-order:stroke markers fill"/></g><path d="M360.315 104.959c-16.653 0-30.177 13.526-30.177 30.178 0 16.649 13.524 30.175 30.177 30.175 16.65 0 30.177-13.526 30.177-30.175s-13.525-30.178-30.177-30.178" style="baseline-shift:baseline;display:inline;overflow:visible;vector-effect:none;fill:#dfdfe7;fill-opacity:1;stroke-width:.938274;stop-color:#000"/><path d="M391.196 186.552c-22.128 0-40.106 17.975-40.106 40.106 0 22.13 17.978 40.108 40.106 40.108s40.109-17.978 40.109-40.108-17.978-40.106-40.109-40.106" style="baseline-shift:baseline;display:inline;overflow:visible;vector-effect:none;fill:#dfdfe7;fill-opacity:1;stroke-width:1.24702;stop-color:#000"/><g style="fill:#dfdfe7;fill-opacity:1" transform="rotate(44.606 664.974 1560.05)scale(-2.52272 2.52272)"><rect width="9.526" height="3.799" x="212.782" y="266.729" rx="1.792" style="opacity:1;fill:#dfdfe7;fill-opacity:1;fill-rule:evenodd;stroke:none;stroke-width:.665244;stroke-linecap:round;stroke-miterlimit:7;paint-order:stroke markers fill"/><rect width="9.526" height="3.799" x="204.033" y="275.599" rx="1.792" style="opacity:1;fill:#dfdfe7;fill-opacity:1;fill-rule:evenodd;stroke:none;stroke-width:.665244;stroke-linecap:round;stroke-miterlimit:7;paint-order:stroke markers fill"/></g><path d="M572.716 272.607a8.5 8.5 0 0 0-8.489 8.49v62.758a8.5 8.5 0 0 0 8.49 8.484h62.758a8.49 8.49 0 0 0 8.484-8.484v-62.759a8.5 8.5 0 0 0-8.481-8.489zm0 2.695h62.76a5.753 5.753 0 0 1 5.796 5.794v62.76a5.753 5.753 0 0 1-5.794 5.796h-62.762a5.753 5.753 0 0 1-5.796-5.797v-62.759a5.753 5.753 0 0 1 5.796-5.796" style="baseline-shift:baseline;display:inline;overflow:visible;vector-effect:none;fill:#dfdfe7;fill-opacity:1;fill-rule:evenodd;stroke-width:2.59122;stroke-linecap:round;stroke-miterlimit:7;paint-order:stroke markers fill;stop-color:#000"/><path d="M604.093 196.482c16.653 0 30.177 13.526 30.177 30.178 0 16.65-13.524 30.176-30.177 30.176-16.65 0-30.177-13.527-30.177-30.176s13.525-30.178 30.177-30.178" style="baseline-shift:baseline;display:inline;overflow:visible;vector-effect:none;fill:#dfdfe7;fill-opacity:1;stroke-width:.938274;stop-color:#000"/><g style="fill:#dfdfe7;fill-opacity:1" transform="rotate(-44.606 -167.329 346.846)scale(2.52272)"><rect width="9.526" height="3.799" x="212.782" y="266.729" rx="1.792" style="opacity:1;fill:#dfdfe7;fill-opacity:1;fill-rule:evenodd;stroke:none;stroke-width:.665244;stroke-linecap:round;stroke-miterlimit:7;paint-order:stroke markers fill"/><rect width="9.526" height="3.799" x="204.033" y="275.599" rx="1.792" style="opacity:1;fill:#dfdfe7;fill-opacity:1;fill-rule:evenodd;stroke:none;stroke-width:.665244;stroke-linecap:round;stroke-miterlimit:7;paint-order:stroke markers fill"/></g><g style="fill:#dfdfe7;fill-opacity:1"><g style="fill:#dfdfe7;fill-opacity:1"><path d="M649.786 143.8c-7.512 0-13.62 6.11-13.62 13.621s6.108 13.618 13.62 13.618 13.62-6.107 13.62-13.619c0-7.51-6.108-13.619-13.62-13.619" style="baseline-shift:baseline;display:inline;overflow:visible;vector-effect:none;fill:#dfdfe7;fill-opacity:1;stroke-width:.583447;stop-color:#000" transform="translate(-85.473 -9.239)scale(1.11596)"/><path d="M648.597 83.807c-7.512 0-13.621 6.109-13.621 13.621 0 7.51 6.109 13.618 13.62 13.618 7.513 0 13.619-6.108 13.619-13.619s-6.106-13.619-13.62-13.619" style="baseline-shift:baseline;display:inline;overflow:visible;vector-effect:none;fill:#dfdfe7;fill-opacity:1;stroke-width:.583458;stop-color:#000" transform="translate(-85.473 -9.239)scale(1.11596)"/></g><g style="fill:#dfdfe7;fill-opacity:1"><path d="M649.786 143.8c-7.512 0-13.62 6.11-13.62 13.621s6.108 13.618 13.62 13.618 13.62-6.107 13.62-13.619c0-7.51-6.108-13.619-13.62-13.619" style="baseline-shift:baseline;display:inline;overflow:visible;vector-effect:none;fill:#dfdfe7;fill-opacity:1;stroke-width:.583447;stop-color:#000" transform="rotate(90 686.351 94.843)scale(1.11596)"/><path d="M648.597 83.807c-7.512 0-13.621 6.109-13.621 13.621 0 7.51 6.109 13.618 13.62 13.618 7.513 0 13.619-6.108 13.619-13.619s-6.106-13.619-13.62-13.619" style="baseline-shift:baseline;display:inline;overflow:visible;vector-effect:none;fill:#dfdfe7;fill-opacity:1;stroke-width:.583458;stop-color:#000" transform="rotate(90 686.351 94.843)scale(1.11596)"/></g></g></g></svg>