<svg xmlns="http://www.w3.org/2000/svg" xmlns:xlink="http://www.w3.org/1999/xlink" xml:space="preserve" width="1800" height="2000"><defs><linearGradient id="d"><stop offset="0" stop-color="#fff"/><stop offset="1" stop-color="#fff" stop-opacity="0"/></linearGradient><linearGradient id="c"><stop offset="0" stop-color="#32ab98"/><stop offset="1" stop-color="#40c7b2"/></linearGradient><linearGradient id="b"><stop offset="0" stop-color="#32ab98"/><stop offset="1" stop-color="#32ab98" stop-opacity="0"/></linearGradient><linearGradient id="a"><stop offset="0" stop-color="#298e7e"/><stop offset="1" stop-color="#40c7b2"/></linearGradient><linearGradient xlink:href="#a" id="h" x1="827.349" x2="774.179" y1="1175.109" y2="1232.208" gradientUnits="userSpaceOnUse"/><linearGradient xlink:href="#a" id="i" x1="827.349" x2="774.179" y1="1175.109" y2="1232.208" gradientTransform="matrix(-1 0 0 1 1106.316 -.116)" gradientUnits="userSpaceOnUse"/><linearGradient xlink:href="#b" id="j" x1="534.34" x2="506.111" y1="796.184" y2="715.592" gradientTransform="translate(216.217 376.575)scale(1.3645)" gradientUnits="userSpaceOnUse"/><linearGradient xlink:href="#c" id="g" x1="554.883" x2="553.621" y1="1148.914" y2="1180.81" gradientUnits="userSpaceOnUse"/><linearGradient xlink:href="#d" id="k" x1="733.917" x2="744.062" y1="963.977" y2="1146.727" gradientTransform="matrix(-1 0 0 1 1662.362 19.5)" gradientUnits="userSpaceOnUse"/><linearGradient xlink:href="#d" id="l" x1="733.917" x2="744.062" y1="963.977" y2="1146.727" gradientTransform="matrix(-1.38425 0 0 1 2067.36 32)" gradientUnits="userSpaceOnUse"/><linearGradient xlink:href="#d" id="m" x1="733.917" x2="744.062" y1="963.977" y2="1146.727" gradientTransform="matrix(1.38425 0 0 1 -245.193 34)" gradientUnits="userSpaceOnUse"/><linearGradient xlink:href="#e" id="n" x1="2" x2="112" y1="74" y2="74" gradientTransform="matrix(-1 0 0 1 1485.635 131.16)" gradientUnits="userSpaceOnUse"/><linearGradient id="e" x1="2" x2="112" y1="74" y2="74" gradientUnits="userSpaceOnUse"><stop offset="0" stop-color="#ef939a"/><stop offset=".046" stop-color="#c01c28"/><stop offset=".436" stop-color="#c01c28"/><stop offset=".545" stop-color="#eb7981"/><stop offset=".618" stop-color="#c01c28"/><stop offset=".936" stop-color="#c01c28"/><stop offset="1" stop-color="#650e14"/></linearGradient><linearGradient xlink:href="#f" id="o" x1="68" x2="73.75" y1="125.75" y2="64" gradientTransform="matrix(-1 0 0 1 1485.635 131.16)" gradientUnits="userSpaceOnUse"/><linearGradient id="f" x1="68" x2="73.75" y1="125.75" y2="64" gradientUnits="userSpaceOnUse"><stop offset="0" stop-color="#ff7800"/><stop offset="1" stop-color="#f66151"/></linearGradient></defs><path fill="#f4a1a1" fill-rule="evenodd" d="M0 0h1800v2000H0z"/><path fill="#855b52" d="M660.397 472.05c-3.055-.162-5.46-.242-8.48.216s-7.925 2.079-11.212 6.127c-2.626 3.234-2.568 4.042-3.355 5.754-.788 1.712-1.598 3.647-2.484 5.863-1.774 4.431-3.82 9.938-5.903 15.817-4.165 11.76-8.394 24.651-10.573 33.265-2.304 9.112-5.077 22.807-6.489 32.05-3.284 21.501-3.954 54.211-.589 72.711 4.333 23.827 14.638 48.967 32.007 79.885l4.787 8.52-.261.6v.003c-5.388 12.441-9.983 30.417-13.358 49.943-4.541 26.278-5.455 71.582-2.105 99.012 6.931 56.76 23.437 98.41 52.73 124.594.962.86.746.73 1.45 1.4a119 119 0 0 1-7.744 3.984c-19.62 9.25-38.596 20.373-64.934 37.945-17.691 11.802-30.96 21.063-40.043 27.993-4.54 3.465-7.993 6.276-10.804 9-1.405 1.363-2.654 2.61-4.07 4.686-1.415 2.076-5.38 5.981-2.011 14.705 4.524 11.715 20.002 71.652 21.608 83.486.435 3.21.917 6.19 1.394 8.659.238 1.234.463 2.314.76 3.456.147.571.296 1.136.604 1.999.309.863-.686 1.434 3.523 5.663 3.061 3.075 4.367 3.042 5.285 3.38.919.337 1.426.453 1.85.551.847.197 1.303.256 1.756.32.906.127 1.668.199 2.57.274 1.8.152 4.033.287 6.731.424 5.396.274 12.562.535 20.361.725 9.488.232 13.031.45 16.814.672-.05.166-.03.284-.09.455-1.433 4.061-1.836 7.02-2.647 11.668a308 308 0 0 0-2.268 15.452c-2.036 16.824-2.162 26.318-.837 68.77 3.272 104.852 9.122 163.23 22.498 222.265l4.278 18.876a14.33 14.33 0 0 0 13.973 11.162h4.98c3.216 0 22.416 2.031 40.704 4.72 18.288 2.687 37.774 6.102 45.463 8.027l8.406 2.102c3.269.818 6.722.458 9.751-1.018l10.016-4.877c37.084-18.067 129.211-23.976 188.606-9.293 19.834 4.904 27.17 7.89 33.38 12.275 2.755 1.947 5.445 3.607 8.07 4.963 1.311.678 2.567 1.281 4.186 1.857 1.62.576 2.503 2.396 9.578.701 2.183-.523 2.238-.658 3.36-1.05a274 274 0 0 0 4.086-1.468 840 840 0 0 0 11.407-4.288c18.736-7.189 42.302-12.85 54.162-13.648 3.367-.227 6.42-.463 8.739-.669 1.159-.103 2.11-.194 2.974-.296.432-.05.8-.092 1.447-.202.323-.056.646-.093 1.588-.355.471-.13 1.03-.228 2.5-.946.735-.359 1.733-.798 3.363-2.281.408-.37.854-.817 1.33-1.383s1.476-2.116 1.477-2.116l1.887-7.108s-.097 1.67-.131 1.916c-.033.247-.054.362-.07.453-.03.182-.041.242-.05.288.014-.063.035-.155.069-.315.083-.387.214-.996.386-1.777a12924 12924 0 0 1 6.308-28.268c18.371-81.87 27.533-130.896 33.162-177.842 2.43-20.264 3.085-34.092 3.155-65.982.041-18.562.035-28.69-.413-36.263-.448-7.574-1.58-12.895-3.11-18.517-.116-.425-.041-.16-.144-.554.428.08 1.072.099 1.367.181 4.374 1.215 9.884 2.159 15.146 2.878l8.464 1.16c7.515 1.027 14.529-3.98 15.998-11.42l1.503-7.612c7.312-36.998 18.027-66.08 33.873-92.706.85-1.429 2.316-3.057 3.452-7.497 1.135-4.44-.366-11.264-2.607-14.674-4.481-6.82-8.63-9.071-17.123-16.158-26.234-21.888-57.374-39.996-84.173-48.102-8.867-2.681-13.581-4.254-15.572-5.055-.655-.924-1.54-1.99-3.115-3.26-3.404-2.742-9.688-3.775-12.875-3.19-6.375 1.171-7.356 2.772-10.892 4.768-.391.22-1.42.593-2.082.885.322-.442.424-.649.76-1.103 28.382-38.487 44.945-95.404 47.782-157.95 1.68-37.06-.225-72.73-5.674-99.74-3.032-15.03-3.713-21.56-3.604-22.219.055-.329-.158-.106.92-1.644s3.46-4.338 6.94-8.41c20.425-23.904 34.352-50.833 47.211-90.144 13.24-40.47 18.176-72.168 15.575-104.004-.743-9.097-1.561-17.92-2.316-22.642v-.003l-.858-5.37a14.33 14.33 0 0 0-13.723-12.06l-13.138-.388c-58.62-1.734-112.632 14.451-165.263 49.143-23.774 15.67-31.592 24.38-42.91 47.398l-5.229 10.634-3.113-.077c-7.286-.182-37.91-.566-69.033-.882-26.529-.27-40.793-.473-47.846-.848-.935-.05-.59-.048-1.27-.11-.184-.319-.082-.141-.254-.458a388 388 0 0 1-5.215-9.99c-22.053-43.733-57.643-77.807-105.56-101.82-14.885-7.458-26.345-10.434-51.89-13.564-14.307-1.754-22.89-2.735-29-3.06zm510.11 748.574c-.604.17-.782.027-.765.024.016 0 .508-.01.765-.024"/><path fill="#feeaca" fill-rule="evenodd" d="M882.93 901.256c-20.905-14.59-56.05-43.642-58.418-41.16-7.75 8.129-.387 74.355 22.23 86.116 22.53 11.716 49.178-4.218 56.325-12.882 7.146-8.664.767-17.483-20.137-32.074m55.953 0c20.905-14.59 56.05-43.642 58.418-41.16 7.75 8.129.387 74.355-22.23 86.116-22.53 11.716-49.178-4.218-56.325-12.882-7.146-8.664-.767-17.483 20.137-32.074"/><path fill="#ec7979" d="M928.171 878.967c-1.983.498-3.271 1.908-4.235 3.497-.963 1.588-1.6 3.485-1.807 5.524a13.4 13.4 0 0 0 .262 4.19c.837 3.748 2.914 7.102 6.516 7.992 1.075.266 1.394.278 2.502-.01h.003c1.519-.396 2.67-1.498 3.4-2.738.732-1.24 1.151-2.673 1.384-4.299.14-.984.2-1.738.23-2.942.078-3.31-.478-6.172-1.994-8.443-.769-1.15-1.633-2.036-3.076-2.582a5.5 5.5 0 0 0-3.185-.19zm-39.203.141c-1.054-.264-2.222-.117-3.19.36-2.617 1.29-3.889 4.187-4.299 7.547-.206 1.69-.165 4.324.142 6.013h.003c.276 1.521.668 2.809 1.324 3.907s1.673 2.018 2.905 2.404c.402.125.588.199 1.197.21 1.286.027 1.926-.283 2.835-.818 1.174-.69 1.994-1.571 2.716-2.644.773-1.148 1.396-2.568 1.759-3.941.259-.98.336-1.603.341-3.148.005-1.531-.065-2.17-.304-3.089-.53-2.037-1.398-3.832-2.707-5.156-.764-.773-1.666-1.38-2.721-1.645z"/><path fill="#ffd4b1" d="M908.007 833.845c-26.218.08-47.325 16.9-53.887 42.769-4.356 17.17-1.005 35.024 9.405 47.707 8.887 10.826 22.632 17.94 38.155 20.217 9.995 1.466 20.142.439 29.575-3.004 21.261-7.76 33.15-27.242 33.15-52.88 0-21.763-10.838-39.551-29.894-48.754-8.988-4.341-16.616-6.085-26.504-6.055m-19.87 42.505c2.449-.271 4.85.738 6.702 4.36 1.793 3.504 1.49 2.319 1.49 8.528 0 2.923-.08 4.534-.226 5.41s-.275 1.212-.92 2.49c-.477.943-2.526 3.417-2.844 3.67-.602.477-1.939 1.048-3.262 1.214-1.322.167-2.562-.114-2.864-.272-3.326-1.733-5.959-6.332-5.866-13.455.07-5.436.59-6.772 3.006-9.315 1.66-1.748 3.312-2.467 4.784-2.63m40.343.162c1.207.025 2.686.442 4.483 1.743 2.608 1.89 3.945 4.52 3.952 10.064v.003c.011 8.021-2.39 12.006-6.097 13.69-1.54.7-2.42.745-3.29.557s-1.98-.74-3.466-2.225c-2.32-2.32-3.321-4.841-3.321-10.828 0-4.65 1.256-8.144 2.806-10.226s3.125-2.815 4.933-2.777z"/><path fill="#543731" d="M1201.215 496.938c-4.831-1.296-46.381-3.786-61.521-2.266-58.11 5.838-110.214 41.925-139.51 82.368l6.655-5.085c46.825-35.79 92.407-55.558 141.77-61.48 12.247-1.47 22.475-1.848 33.039-1.229l20.201 1.224c-1.863-4.816 1.26-13.024-.634-13.532M641.48 460.271c-6.749-.177-3.604 20.673-9.732 39.35-5.245 15.983-9.607 30.933-13.115 45.03-3.256 13.091-4.575 24.427-6.38 36.195-3.203 25.36-3.564 58.991-.07 75.791 2.69 12.922 8.895 30.629 13.603 38.809 4.11 7.14 13.547 19.179 19.316 24.641 6.52 6.173 7.795 8.377 4.97 16.998.021 2.617-.98 5.53-2.768 9.623-2.242 5.132-4.491 11.896-6.506 19.373-9.517 39.487-9.288 89.527.795 147.084 1.71 9.765 7.967 32.253 11.83 42.516 7.06 18.757 14.26 31.336 24.676 43.11 4.735 5.353 5.533 10.72 2.82 14.988.827 4.585-5.191-3.624-11.418-1.355-3.243 1.182-11.085 7.355-18.59 10.08-19.223 6.977-42.159 28.742-64.48 43.803-10.506 7.09-20.84 14.334-22.962 16.097l-1.508 1.253a25 25 0 0 0 1.298 4.008c1.538 3.682-8.882 22-7.711 21.075 39.109-30.857 97.866-72.146 134.174-86.711 15.68-6.29 17.57-16.21 7.925-22.895-17.372-12.038-34.39-40.628-43.004-72.244-9.11-33.443-13.029-74.349-10.484-109.451 2.326-32.088 8.495-62.205 16.4-80.077l2.668-6.034-9.604-16.878c-13.096-23.009-21.014-41.21-26.038-59.86-13.887-51.55 4.53-115.387 6.772-122.805 4.24-14.029 15.368-43.848 17.024-45.623 1.88-2.014 45.016 2.404 70.511 8.092-16.988-7.076-26.964-20.32-46.354-24.272-6.665-1.358-16.704-6.296-19.77-6.377z"/><path fill="#f4b1b1" d="M1255.882 1110.406c-2.273 0-2.716.908-3.203 1.362s-.83.876-1.194 1.353c-.73.956-1.485 2.122-2.343 3.542-1.716 2.841-3.789 6.658-5.98 10.948-4.382 8.581-9.194 18.982-12.142 26.798-5.92 15.696-12.1 39.372-14.098 54.159l-.341 2.516a3.955 3.955 0 0 0 4.427 4.453l2.771-.36c9.318-1.206 17.684-2.472 21.318-3.294l3.638-.82a3.955 3.955 0 0 0 3.083-3.902l-.24-20.51c-.175-15.045-.24-21.929 1.477-27.094 1.717-5.164 5.568-9.829 14.255-20.377 1.654-2.008 3.128-3.9 4.219-5.4.545-.749.99-1.39 1.354-1.976.182-.294.343-.56.522-.944.09-.192.188-.403.296-.791.108-.39.446-.94-.056-2.426-.335-.992-.53-1.094-.73-1.38a15 15 0 0 0-.637-.832 55 55 0 0 0-1.69-1.966 193 193 0 0 0-4.712-5.05 183 183 0 0 0-4.789-4.814 45 45 0 0 0-1.82-1.67 11 11 0 0 0-.813-.646 5 5 0 0 0-.615-.384c-.293-.154-.56-.495-1.957-.495m-139.692 450.658c-.97-.023-1.956.088-3.354.088-9.453 0-23.752 3.273-40.701 8.824-10.043 3.289-15.756 5.218-19.285 6.804-1.764.793-3.056 1.242-4.495 3.038-.72.898-1.395 2.514-1.245 4.05.15 1.538.856 2.555 1.375 3.18 1.096 1.32 1.474 1.343 2.21 1.829a53 53 0 0 0 2.614 1.599 140 140 0 0 0 7.196 3.85c3.32 1.663 5.914 2.848 8.085 3.628s3.707 1.655 6.703.727c2.55-.79 5.682-2.334 9.418-4.304 3.737-1.97 7.81-4.31 11.196-6.492 5.237-3.376 8.073-5.042 9.653-5.634s2.148-.55 4.965-.256l5.32.555a4.663 4.663 0 0 0 5.087-3.905l.629-3.947c.326-2.053.878-4.891 1.069-5.655.147-.592.48-1.27.269-2.905-.212-1.635-2.091-3.824-3.436-4.36-1.344-.535-2.303-.69-3.275-.714z"/><path fill="#704d45" d="M1172.533 478.995c-47.391-.058-77.474 13.228-114.662 29.782-4.131 1.84-9.458 6.778-13.4 9.118l-2.454 13.65c17.904-13.637 38.097-29.143 61.552-28.348 24.696.837 60.545-10.344 80.89-8.283l13.341 2.084c10.665 55.387 7.895 84.997-9.389 139.348-13.533 40.686-28.46 68.545-46.649 87.067-5.498 5.599-9.268 10.7-9.845 13.325-.606 2.761.29 9.397 2.55 18.9 6.205 26.084 8.167 45.71 8.15 81.509-.01 22.973-.708 38.004-2.34 50.356-7.234 54.792-23.253 99.608-45.793 128.117-10.582 13.385-12.395 16.255-12.395 19.615 0 2.116 1.075 3.654 3.094 4.421 5.43 2.065 24.147-2.31 32.058-7.494 20.32-13.952 21.233 1.163 31.296-22.389 5.475-9.357 15.719-32.736 20.137-47.712 17.691-59.97 26.956-142.64 16.505-200.682l-3.121-15.857 7.454-11.787c28.493-43.524 48.662-109.864 44.258-163.701-.812-9.939-2.767-24.742-4.34-32.895-3.483-18.03-13.768-49.38-17.39-53.003-4.162-4.161-11.427-5.105-39.507-5.14"/><path fill="#f4b1b1" d="M677.032 1562.842c-.64 0-1.823.287-2.606 1.183a3.45 3.45 0 0 0-.853 2.417c.042 1.068.279 1.263.394 1.492.232.459.367.615.523.821.312.413.66.809 1.08 1.253 1.895 2.009 3.15 4.743 3.517 7.968.07.61.14 1.17.21 1.629.036.229.07.426.112.637.022.105.04.207.088.38.025.088.052.192.126.38.073.187 0 .41.778 1.19h.003l.845.622s.458.2.631.25c.347.1.566.12.736.13.34.024.492 0 .618-.013.252-.027.354-.053.453-.075.198-.044.325-.082.475-.126.298-.087.637-.194 1.047-.33.82-.272 1.897-.648 3.07-1.074a139 139 0 0 1 7.644-2.534c2.19-.649 4.325-1.005 3.912-.99.624-.023-.336-.296.629.286 1.56.94 5.74 4.38 10.593 9.024 9.666 9.246 14.284 13.482 17.672 15.417.38.217.746.407 1.112.573.183.083.36.16.589.24s.298.236 1.31.245c1.88.017 2.185-.413 3.215-.837 1.031-.424 2.247-.991 3.614-1.673 2.734-1.364 6.056-3.185 9.29-5.125 4.399-2.638 9.528-5.974 13.55-8.736 2.01-1.381 3.735-2.612 4.994-3.577.629-.482 1.129-.882 1.577-1.298.225-.207.428-.382.739-.8.155-.208.369-.445.583-1.13.215-.684.202-2.555-.97-3.626-.734-.671-.878-.599-1.066-.68a6 6 0 0 0-.466-.178c-.283-.097-.568-.18-.901-.275a70 70 0 0 0-2.447-.632c-1.89-.458-4.2-.97-6.19-1.353-13.98-2.696-47.037-7.38-71.304-10.122a1827 1827 0 0 0-7.814-.864l-.554-.056c-.071-.01-.132-.014-.192-.019-.06-.01.073-.019-.365-.019z"/><path fill="#6f4941" d="M645.908 1245.572c-2.477-3.912-3.53 26.696-3.52 102.189.013 69.616.314 80.404 3.15 111.207 1.726 18.762 4.427 42.71 6 53.216 1.575 10.507 3.228 21.862 3.673 25.233.72 5.451.338 19.699 3.978 20.475 9.509 2.026 24.677 23.723 22.5 16.182-23.55-74.926-29.148-147.987-32.477-225.63-1.129-27.018-2.062-60.79-2.076-75.049-.013-14.259-.567-26.78-1.228-27.823"/><path fill="#f4b1b1" d="M556.23 1105.697a4.16 4.16 0 0 0-4.013 1.388l-10.772 12.755c-5.9 6.986-12.385 14.438-13.821 15.948l-3.214 3.379a4.156 4.156 0 0 0 .584 6.239l4.503 3.24h.003c2.591 1.863 6.154 4.247 8.3 5.536 1.457.875 3.761 3.094 3.645 2.929.02.03.694 1.918.555 5.106-.14 3.188-.833 7.594-2.124 12.923a171 171 0 0 0-1.695 7.755c-.44 2.29-.76 3.673-.76 5.41 0 1.458.407 3.24 1.428 4.667 1.022 1.427 2.416 2.37 3.931 3.091 3.03 1.444 6.931 2.32 13.067 3.5 5.335 1.025 10.745 2.095 11.49 2.257 1.684.367 3.79.54 5.78.607h.003l3.169.107a4.156 4.156 0 0 0 4.272-4.576l-.624-6.074c-1.457-14.223-8.216-42.64-16.27-69.168l-4.299-14.157a4.16 4.16 0 0 0-3.137-2.862z"/><path fill="#543731" fill-rule="evenodd" d="M924.546 1101.95c-138.299-1.956-238.583 14.028-305.531 35.314-9.97 3.17-21.332 7.6-21.332 7.6l-9.751-5.29h-.003l-4.72-2.558c-10.525-5.709-20.294-8.19-29.783-7.48-4.083.167-8.473.747-11.138 1.42-7.548 1.907-13.053 5.589-15.707 10.5-3.933 7.28-1.088 19.313 7.015 31.443 3.462 5.182 6.2 9.265 11.168 14.455 8.619 9.006 17.466 15.815 29.285 22.855h636.67c11.688-6.985 20.467-13.759 29.022-22.698 4.967-5.19 7.706-9.27 11.168-14.452 8.102-12.13 10.947-24.164 7.014-31.443-2.254-4.172-6.663-7.381-12.537-9.445a34 34 0 0 0-3.17-1.055c-4.467-1.239-9.564-1.738-14.93-1.444-.86.03-1.668.09-2.396.18-.01.002-.014 0-.023 0-7.669.75-15.766 3.088-23.277 7.162l-4.863 2.638-.152.08-9.46 5.133s-11.677-4.308-21.33-7.6a267 267 0 0 0-15.91-5.094c-51.811-15.561-127.165-28.833-225.328-30.221zm302.77 49.538a6 6 0 0 1 .625 0q.679.033 1.178.234c1.519.619 2.123 1.427 1.449 2.774-1.954 3.908-18.472 21.623-26.454 28.663-.546.445-2.363 2.358-2.577 2.441-.136.03-.173-.178-.312-.623-.349-1.12-.138-8.741.284-12.678.96-8.959 2.85-10.842 10.585-14.938 6.29-3.33 11.933-5.719 15.222-5.873m-669.3.28c2.405.08 6.938 1.676 14.395 5.433 17.322 8.728 10.48 27.259 9.624 26.486-2.665-2.27-12.051-11.132-18.847-18.96-1.885-2.292-3.964-4.767-5-6.313-2.078-3.06-3.056-5.453-1.818-6.303q.31-.18.742-.285.389-.074.904-.059zm62.182 26.93q.006.213.032.389l-.398-.181z"/><path fill="#fff" d="M550.46 1095.575c-4.347.076-30.886 32.909-30.886 38.615 0 2.279 4.75 9.144 6.327 9.144.216 0 9.218-10.217 16.468-18.867l13.179-15.727-1.72-6.14c-.945-3.377-2.298-6.5-3.008-6.94a.65.65 0 0 0-.36-.085m117.98 468.368c-5.863 0-4.534 2.332-3.636 5.91.508 2.021 1.8 5.773 2.87 8.335 2.06 4.932 3.292 12.847 12.249 9.442 3.169-1.205 2.957-9.339 1.767-13.556-.828-2.934-1.972-7.626-2-7.645 0 0-7.702-2.486-11.25-2.486m307.03-345.27c-.272.038-.683 2.288.307 5.437 1.056 3.362 4.032 8.679 5.458 12.28 4.937 12.479 13.236 27.861 14.762 27.84.843-.014 2.106-1.146 3.169-1.06 4.46.358-.223-9.485-8.195-22.48-8.065-13.147-14.847-22.111-15.501-22.017m-130.468-71.914c-.558 0-17.625 24.27-23.82 34.213-10.88 17.463-21.95 37.912-30.612 48.295-3.745 4.488-9.849 10.912-9.492 11.489 1.593 2.577 9.454-1.686 13.938-6.924 8.708-10.174 20.893-28.248 31.129-48.455 5.735-11.321 19.45-38.617 18.857-38.618"/><path fill="#6f4941" d="M1164.762 1234.144c9.135 102.981-19.925 211.797-42.14 314.62 7.842-.08 15.37.52 22.618 1.792 7.06 1.238 10.175 1.321 10.535.285 7.326-21.108 19.172-69.03 22.37-115.86 1.787-26.183-2.31-101.803-4.12-128.043-1.877-27.226-5.46-55.191-9.263-72.794"/><path fill="#33211e" d="M721.567 1619.817c-3.112-1.455-10.173-6.93-15.691-12.17l-10.034-9.524-6.14 2.394c-10.932 4.26-25.119 7.343-29.148 6.332-3.119-.783-4.705-2.859-8.557-11.196-11.291-24.438-18.273-63.371-25.673-143.163-4.118-44.402-4.242-164.713-.205-197.854 1.097-9.006 2.428-19.905 2.957-24.22l.963-7.846h-18.662c-40.461 0-75.545-6.788-86.383-16.713-5.07-4.643-6.58-15.103-4.004-27.738l2.193-10.755-8.896-8.029c-19.573-17.666-19.815-31.392-.986-55.876 8.105-10.538 24.425-26.794 38.204-38.053 24.5-20.02 65.535-44.42 92.486-54.995 5.253-2.061 9.956-3.986 10.451-4.277s-2.46-6.964-6.568-14.83c-17.915-34.303-28.656-78.02-31.948-130.032-2.612-41.26 1.99-86.05 11.697-113.834l3.356-9.605-8.092-10.059c-40.706-50.6-43.45-128.001-8.29-233.852 15.532-46.76 13.82-44.73 35.04-41.574 34.38 5.113 65.178 14.45 93.947 28.48 49.222 24.006 90.078 62.315 109.014 102.22l4.75 10.008 25.679-.614c22.809-.546 71.563 1.465 80.925 3.338 3.182.636 3.866-.119 7.81-8.622 32.418-69.883 117.531-113.35 213.591-109.078 11.066.493 21.658 1.48 23.537 2.194 4.605 1.751 7.83 7.437 12.915 22.772 18.88 56.936 18.17 116.488-2.098 176.285-6.821 20.124-17.36 42.222-26.973 56.553l-6.247 9.314 2.559 12.519c3.947 19.315 5.525 39.68 5.51 71.088-.034 69.602-11.146 128.028-32.778 172.34-4.479 9.176-8.143 16.956-8.143 17.288s3.223 1.672 7.163 2.976c19.558 6.47 44.487 20.343 67.08 37.331 31.806 23.915 67.666 61.986 67.666 71.838 0 2.642-7.366 12.418-24.413 32.4-1.788 2.096-2.072 6.454-1.776 27.29.4 28.155-.034 29.848-8.883 34.73-10.693 5.899-40.64 9.456-61.808 7.342-6.38-.637-11.723-1.079-11.875-.981s.932 7.524 2.407 16.503c5.762 35.075 7.28 59.856 7.352 120.028.073 61.375-1.128 82.926-6.885 123.488-7.664 54.004-21.26 96.362-36.64 114.148-4.234 4.896-4.994 5.228-11.373 4.965-3.977-.164-12.283-2.366-19.86-5.267l-13.024-4.985-3.91 2.785c-7.84 5.581-23.746 12.677-30.108 13.43-5.009.594-8.25.043-13.964-2.376-10.48-4.435-29.224-16.169-42.361-26.52-12.83-10.109-22.584-13.731-51.726-19.212-49.685-9.344-114.073-6.778-154.268 6.148-10.602 3.41-13.284 4.965-21.373 12.395-18.745 17.22-46.28 33.87-57.869 34.994-4.05.393-7.776-.27-11.62-2.066m24.054-26.085c6.23-3.744 13.504-8.469 16.167-10.5l4.84-3.692-4.009-1.083c-13.79-3.728-96.701-14.627-98.393-12.935-.951.95 5.137 18.643 6.415 18.643.713 0 6.982-2.145 13.931-4.766 6.95-2.622 13.932-4.77 15.518-4.776 1.822-.01 7.704 4.764 15.974 12.953 7.225 7.155 14.241 12.963 15.66 12.963 1.414 0 7.668-3.063 13.897-6.807m336.081-2.22c3.916-1.963 10.496-5.84 14.624-8.616 11.254-7.57 11.286-7.572 24.388-1.569 19.032 8.721 18.14 8.825 23.956-2.801l4.98-9.953-3.125-1.278c-1.718-.703-11.106-1.546-20.863-1.873-14.437-.485-20.15-.072-30.701 2.219-13.955 3.03-45.029 13.64-45.029 15.374 0 1.537 19.346 12.026 22.219 12.048 1.338.01 5.636-1.588 9.551-3.551m-33.816-25.723c37.819-15.118 69.635-20.097 97.353-15.235 7.061 1.239 7.525-.09 7.885-1.127 7.326-21.107 17.756-69.914 20.953-116.744 1.788-26.183 1.757-99.506-.053-125.746-2.07-30.026-6.217-60.951-10.443-77.884l-3.66-14.666 2.793-3.754c3.492-4.696 7.033-5.242 16.711-2.58 4.202 1.157 11.325 2.502 15.83 2.99l8.19.887 3.195-16.853c5.618-29.62 17.074-60.374 31.417-84.334l6.088-10.17-8.072-7.373c-29.461-26.91-68.393-49.253-96.853-55.584-10.65-2.37-15.605-6.132-15.605-11.85 0-1.47 3.38-7.753 7.51-13.96 22.836-34.322 36.148-84.396 41.729-156.971 2.663-34.635-.548-81.549-6.987-102.087-1.455-4.641-2.648-9.36-2.652-10.485 0-1.126 3.764-7.266 8.37-13.645 15.574-21.563 30.123-56.82 36.653-88.824 7.97-39.059 6.973-81.09-2.777-117.069-4.473-16.508-6.758-21.65-10.006-22.52-4.831-1.297-37.793-.926-52.933.595-65.83 6.613-122.011 40.814-148.513 90.411-2.887 5.404-6.006 12.413-6.93 15.576-.925 3.163-3.08 7.064-4.79 8.67-3.101 2.914-3.162 2.916-26.065.942-28.32-2.44-86.817-3.015-97.845-.96-12.91 2.404-13.55 1.948-21.799-15.538-14.84-31.463-34.009-54.301-64.326-76.64-31.496-23.21-67.06-38.637-108.565-47.095-21.326-4.346-18.684-6.34-27.598 20.826-20.42 62.232-27.46 108.773-22.758 150.438 3.47 30.744 13.928 54.464 32.239 73.12 10.037 10.227 10.724 12.89 6.076 23.53-4.748 10.868-9.527 29.054-12.044 45.827-3.565 23.766-3.22 73.058.708 101.087 6.752 48.175 20.232 86.631 37.786 107.797 10.023 12.083 9.761 18.423-.92 22.316-3.244 1.182-12.038 4.378-19.542 7.102-19.223 6.978-44.54 20.41-66.861 35.47-10.507 7.09-20.84 14.333-22.962 16.096l-3.859 3.205 7.537 23.743c11.512 36.263 21.293 76.012 21.351 86.764.043 7.893.138 7.918 30.065 7.926 27.213.01 27.488.037 30.073 3.228 2.962 3.658 3.24 6.538 1.16 12.01-3.734 9.822-5.45 22.505-8.926 65.957-1.716 21.447-.833 115.382 1.41 150.096 2.999 46.394 7.893 91.518 11.834 109.103 1.654 7.379 2.758 8.197 11.105 8.224 19.17.062 77.522 8.11 99.52 13.727 10.987 2.805 11.036 2.806 13.921.117 1.593-1.485 7.177-4.305 12.41-6.268 50.683-19.008 133.118-21.675 193.602-6.262 21.029 5.358 29.711 8.889 37.319 15.175 3.592 2.97 7.147 5.123 7.9 4.788.753-.336 6.896-2.82 13.65-5.52zm194.58-357.027 6.277-1.376-.659-22.81c-.769-26.647-.773-26.635 13.849-44.473l8.877-10.83-6.918-7.986c-3.804-4.391-7.556-7.772-8.336-7.511-2.276.758-14.099 23.647-20.123 38.957-5.91 15.024-12.77 39.91-14.296 51.873l-.93 7.28 7.99-.874c4.395-.48 10.816-1.493 14.268-2.25m-665.758-10.104c.947-.946-2.057-19.446-5.707-35.154-6.07-26.126-18.849-67.833-20.782-67.833-4.249 0-29.716 32.224-29.716 37.6 0 3.14 10.68 13.379 17.682 16.951 9.051 4.618 9.89 8.35 5.547 24.682-4.098 15.41-3.863 16.88 3.038 18.982 3.19.972 10.711 2.543 16.715 3.492a4340 4340 0 0 1 11.712 1.86c.438.074 1.118-.187 1.511-.58"/><path fill="#33211e" d="M1053.856 879.377c10.671-4.256 13.584-7.956 8.791-11.168-1.89-1.267-4.148-.93-10.032 1.5-17.55 7.248-9.999 14.15 1.24 9.667m-19.462-9.748c12.75-7.533 15.91-11.244 12.803-15.034-1.04-1.272-2.194-1.403-4.406-.503-22.58 9.19-25.472 25.63-8.397 15.538m-15.001-8.88c6.671-8.519 8.195-13.478 4.683-15.242-2.452-1.231-8.318 3.801-14.992 12.862-6.38 8.666-1.78 17.815 10.309 2.38m-260.784 9.553c-10.197-5.29-12.731-9.26-7.644-11.983 2.006-1.074 4.222-.514 9.835 2.485 16.748 8.948 8.55 15.07-2.191 9.497m20.33-7.775c-11.94-8.758-14.717-12.762-11.252-16.227 1.162-1.162 2.322-1.179 4.434-.064 21.56 11.377 22.813 28.023 6.819 16.292m15.806-7.353c-5.796-9.137-6.822-14.222-3.152-15.63 2.561-.983 7.9 4.605 13.645 14.282 5.494 9.254.01 17.903-10.493 1.348"/><path fill="#f09b9e" d="M1119.112 1565.259q-1.474 7.043-2.881 14.042c1.31.573 2.786 1.248 4.482 2.025 19.033 8.721 18.14 8.826 23.957-2.8l4.978-9.952-3.123-1.28c-1.719-.702-11.106-1.545-20.863-1.873a324 324 0 0 0-6.55-.162"/><path fill="#543731" fill-rule="evenodd" d="M633.522 1353.006c1.99 23.75 7.593 33.237 22.161 50.745 87.866 105.6 407.456 101.797 500.804.925 16.77-18.121 22.176-35.259 23.612-51.67z"/><path fill="#48322e" d="M896.323 903.99c6.984-6.023 7.292-21.964.564-29.126-6.908-7.353-19.105-2.415-21.165 8.57-3.22 17.16 9.65 30 20.601 20.556m-12.938-14.786c0-8.28 5.501-11.052 8.367-4.763 4.584 10.061-8.367 21.038-8.367 4.763"/><path d="M985.695 839.248c-7.488-7.489-4.379-20.484 5.619-23.48 14.973-4.486 25.322 13.976 13.438 23.975-5.974 5.027-13.737 4.825-19.057-.495m-150.708-4.576c7.489-7.489 4.379-20.484-5.618-23.48-14.974-4.486-25.322 13.976-13.439 23.975 5.974 5.027 13.737 4.825 19.057-.495"/><path fill="#33211e" d="M1123.529 673.25c-1.938-2.334-1.46-4.653 4.154-20.18 1.592-4.401 2.701-8.196 2.465-8.433-.237-.236-3.706 2.291-7.71 5.616-11.968 9.939-17.568 7.734-15.98-6.293l.93-8.227-5.19 2.318c-7.632 3.407-13.275 3.27-13.79-.333-.491-3.443 5.26-8.68 14.89-13.56 10.83-5.489 17.589-4.075 17.589 3.679 0 5.428 1.783 5.72 6.272 1.028 2.179-2.278 5.973-5.386 8.432-6.908 4.184-2.59 4.687-2.625 7.846-.555 1.856 1.216 3.375 2.934 3.375 3.818 0 1.01.472 1.124 1.271.31 1.506-1.537 5.493-27.44 5.688-36.95.196-9.597 1.551-13.401 4.95-13.894 9.218-1.337 6.932 40.783-3.715 68.415-8.67 22.503-24.912 38.06-31.477 30.15m-415.664-4.168c-.47-1.224-.18-6.578.643-11.898 1.655-10.692 4.108-13.79 10.007-12.64 3.478.679 3.588.482 4.33-7.704.806-8.886 3.48-12.645 8.133-11.437 7.577 1.967-3.914-18.306-21-37.05-10.079-11.056-12.147-16.655-6.153-16.655 6.48 0 22.22 14.6 31.673 29.378 6.272 9.805 10.606 19.475 16.46 36.728 5.58 16.444 5.832 20.722 1.343 22.768-4.29 1.954-6.475.593-12.375-7.704l-4.83-6.795v6.204c0 3.412-.738 6.94-1.638 7.841-2.01 2.011-7.191 2.12-10.729.228-2.297-1.23-3.02-.618-5.64 4.776-2.289 4.71-3.764 6.185-6.187 6.185-1.75 0-3.567-1.001-4.037-2.225"/><path fill="#48322e" d="M920.99 904.298c-6.984-6.022-7.292-21.964-.564-29.125 6.908-7.354 19.105-2.415 21.165 8.57 3.22 17.16-9.65 30-20.601 20.555m12.938-14.785c0-8.28-5.501-11.053-8.367-4.763-4.584 10.06 8.367 21.038 8.367 4.763"/><path fill="#33211e" d="M890.285 952.972c-26.272-6.914-43.81-26.019-47.814-52.085-13.169-85.753 122.803-113.414 131.919-15.338 4.942 53.177-43.615 78.078-84.105 67.423m68.376-51.465c13.168-71.467-86.824-87.182-100.609-21.068-3.638 17.447 1.405 34.45 13.534 45.63 24.24 22.345 78.586 21.506 87.075-24.562"/><g transform="translate(152.576 -458.662)scale(1.3645)"><path fill="#c7eee8" fill-rule="evenodd" d="M767.309 1251.291c-.478-.102-.757.043-.975.025-.435-.035-.657-.016-.865 0-.417.025-.72.069-1.069.121a49 49 0 0 0-2.482.455c-1.946.399-4.491.981-7.252 1.668-32.93 8.19-79.998 15.753-122.602 19.666-33.634 3.09-44.846 3.512-92.187 3.512-47.592 0-58.18-.426-88.414-3.53-3.01-.308-5.88-.56-8.129-.718a90 90 0 0 0-2.877-.166c-.787-.03-.662-.266-2.486.107-.265.054-.601.121-1.16.387-.56.266-1.548.76-2.286 2.232-.737 1.473-.439 3.57.082 4.526.522.955.988 1.286 1.305 1.533 1.268.989 1.403.795 1.76.92.714.25 1.392.424 2.314.652 1.845.456 4.46 1.026 7.614 1.67a667 667 0 0 0 22.537 4.164c79.11 13.181 180.725 9.921 268.375-8.517 9.354-1.968 14.913-3.061 17.886-3.463.058-.01.034 0 .09-.01.06.594.13 1.054.172 1.816.15 2.746.154 6.414.016 10.334-.276 7.84-1.157 16.86-2.285 21.961-5.206 23.532-15.855 37.149-42.604 53.822a247 247 0 0 0-5.48 3.506c-.717.475-1.305.873-1.778 1.211-.236.17-.434.313-.681.514-.124.1-.251.199-.495.443-.121.123-.273.267-.527.62-.254.351-.926.735-.926 2.86 0 .415-.088 1.316.733 2.673.82 1.356 2.743 2.282 3.795 2.388 2.104.214 2.378-.256 3.01-.494 1.263-.475 2.804-1.196 5.822-2.592 19.836-9.17 37.055-22.161 45.896-35.46 4.446-6.689 6.974-14.956 8.883-27.526 1.078-7.1 1.308-13.327 1.264-32.566-.015-6.485-.07-12.418-.145-16.78a278 278 0 0 0-.129-5.26 49 49 0 0 0-.078-1.607c-.016-.221-.03-.412-.066-.683-.018-.136-.036-.282-.104-.573-.067-.29.6-.47-1.312-2.383-1.006-1.006-1.683-1.355-2.16-1.457z"/><path fill="#fdea99" fill-rule="evenodd" d="M517.004 1182.656c-59.71.422-110.81 5.364-148.102 14.676-6.98 1.743-13.962 3.74-19.23 5.44-2.634.85-4.835 1.622-6.43 2.269-.797.324-1.435.609-1.957.899a4.3 4.3 0 0 0-.746.498c-.255.216-.773.495-.773 1.552 0 .698.276.99.427 1.178s.27.287.383.379c.228.185.443.318.694.467.501.296 1.137.62 1.914.986 1.552.732 3.642 1.618 5.945 2.502 30.248 11.616 90.965 19.207 167.326 21.172 15.675.403 30.763.796 33.496.875 4.804.137 23.089-.318 42.3-.928 19.213-.61 39.15-1.377 46.866-1.9 54.52-3.698 95.019-10.258 118.51-19.362l9-3.488a1.734 1.734 0 0 0-.125-3.277l-5.5-1.664c-21.416-6.48-76.982-14.256-128.373-18.094-40.878-3.053-79.799-4.433-115.625-4.18"/><ellipse cx="552.121" cy="1210.847" fill="none" stroke="#d26c16" stroke-width="2.229" rx="89.033" ry="17.995" style="font-variation-settings:normal"/><ellipse cx="552.121" cy="1210.847" fill="none" stroke="#e57618" stroke-width="3.687" rx="147.272" ry="29.766" style="font-variation-settings:normal"/><ellipse cx="553.621" cy="1210.347" fill="none" stroke="#ea8b3a" stroke-width="4.145" rx="187.543" ry="29.537" style="font-variation-settings:normal"/><path fill="#40c7b2" d="M614.72 1156.717c-23.28-1.351-199.197-4.561-275.882 20.97l-16.733 5.57-11.351-5.753c-12.752-6.462-24.086-7.28-35.383-2.56-26.023 10.873 8.61 44.5 29.37 55.558 6.46 3.442 15.583 10.511 20.27 15.709l8.524 9.45.149 32.185c.17 36.964 2.927 43.929 18.556 61.931 70.437 81.134 326.634 78.212 401.465.711 43.665-45.222-8.767-82.475 45.711-118.52 25.027-12.617 44.209-35.433 40.787-48.517-3.19-12.198-26.035-15.258-44.41-5.947l-11.354 5.754-16.73-5.57c-35.14-11.7-84.55-16.997-152.988-20.971m70.739 31.924c33.75 3.973 65.088 10.781 75.764 16.457l5.845 3.107-8.047 3.402c-72.365 30.597-342.581 29.125-410.91.247l-8.632-3.649 6.498-3.45c50.675-26.902 258.366-25.772 339.482-16.114m130.941-.717c1.53.069 2.393.636 2.393 1.73 0 .996-4.949 6.687-10.998 12.645-6.05 5.958-11.509 10.832-12.13 10.832-.623 0-.751-3.99-.286-8.87.714-7.483 2.082-9.46 8.76-12.644 5.318-2.536 9.713-3.808 12.261-3.693m-524.709.27c6.83-.244 19.05 6.207 19.082 10.453.018 2.277.656 6.467 1.418 9.312 2.204 8.224-2.261 6.091-14.353-6.855-8.536-9.14-10.321-12.207-7.436-12.77a8.4 8.4 0 0 1 1.29-.14m474.727 66.848c.655 25.135 2.708 51.828-5.18 76.135-5.727 12.946-21.698 27.221-41.814 37.373-20.06 10.123-22.334 9.95-5.094-.387 34.053-20.42 46.99-43.212 46.99-82.774 0-14.245-.217-14.822-5.172-13.677-91.132 21.057-191.53 26.07-276.37 13.797-25.923-3.75-60.549-11.357-41.448-9.106 88.688 10.454 197.698 6.001 286.21-11.687 20.802-4.158 33.495-6.946 41.878-9.674"/><path fill="url(#g)" fill-rule="evenodd" d="M329.032 1197.98c-4.452-6.316-6.927-14.722-6.927-14.722s8.913-3.248 16.733-5.57c52.512-15.6 131.173-27.315 239.651-25.882 85.283 1.127 148.617 12.94 189.22 25.881 7.57 2.414 16.73 5.57 16.73 5.57s-5.47 5.789-9.445 12.146c-4.947 7.912-5.204 12.585-7.523 12.903 5.324-6.423-299.455-49.769-427.992-.1-.903.348-5.996-3.91-10.447-10.226"/><g fill-rule="evenodd" transform="translate(-9.9)"><ellipse cx="497.328" cy="1208.007" fill="#dc9801" rx="21.436" ry="11.25" style="font-variation-settings:normal;-inkscape-stroke:none"/><ellipse cx="497.328" cy="1207" fill="#feb920" rx="21.436" ry="11.5" style="font-variation-settings:normal;-inkscape-stroke:none"/></g><g fill-rule="evenodd" transform="translate(4.675 7.134)"><ellipse cx="552.679" cy="1208.455" fill="#92aa0b" rx="28.186" ry="12.47" style="font-variation-settings:normal;-inkscape-stroke:none"/><ellipse cx="552.679" cy="1206.802" fill="#a4bf0c" rx="28.186" ry="11.939" style="font-variation-settings:normal;-inkscape-stroke:none"/></g><g fill-rule="evenodd" transform="translate(187.7 147.006)scale(.88337)"><ellipse cx="497.328" cy="1208.257" fill="#db5701" rx="21.436" ry="11.5" style="font-variation-settings:normal;-inkscape-stroke:none"/><ellipse cx="497.328" cy="1207" fill="#fe7820" rx="21.436" ry="11.5" style="font-variation-settings:normal;-inkscape-stroke:none"/></g><g fill-rule="evenodd" transform="translate(-9.05 140.506)scale(.88337)"><ellipse cx="497.328" cy="1208.257" fill="#db5701" rx="21.436" ry="11.5" style="font-variation-settings:normal;-inkscape-stroke:none"/><ellipse cx="497.328" cy="1207" fill="#fe7820" rx="21.436" ry="11.5" style="font-variation-settings:normal;-inkscape-stroke:none"/></g><g fill-rule="evenodd" transform="translate(191.35 3.5)"><ellipse cx="497.328" cy="1208.007" fill="#dc9801" rx="21.436" ry="11.25" style="font-variation-settings:normal;-inkscape-stroke:none"/><ellipse cx="497.328" cy="1207" fill="#feb920" rx="21.436" ry="11.5" style="font-variation-settings:normal;-inkscape-stroke:none"/></g><path fill="url(#h)" fill-rule="evenodd" d="m777.692 1224.36-10.624-16.155 2.225-3.507c4.217-6.649 6.08-12.009 12.522-18.732l2.624-2.708 7.421-3.761c9.842-4.988 14.881-6.38 22.209-7.242 3.804-.448 10.336.156 13.59.925 5.921 1.397 10.24 4.095 12.322 7.695 3.085 5.335.852 14.154-5.503 23.043-2.716 3.798-4.863 6.789-8.76 10.593-7.052 6.886-14.3 12.02-24.187 17.421-9.372 5.121-14.02 9.457-14.02 9.457s-4.587-7.74-9.819-17.03m19.355-12.316c5.985-4.763 19.894-18.77 21.477-21.727.528-.987.055-1.58-1.137-2.034-2.08-.791-7.341 1.158-13.354 4.133-6.068 3.001-7.55 4.381-8.303 10.947-.332 2.885-.496 8.47-.222 9.291.259.776.06.567 1.54-.61"/><path fill="url(#i)" fill-rule="evenodd" d="m328.624 1224.243 10.624-16.154-2.224-3.507c-4.218-6.65-6.081-12.01-12.522-18.732l-2.397-2.592-7.649-3.878c-9.841-4.988-14.881-6.38-22.209-7.242-3.804-.447-10.336.157-13.59.925-5.92 1.398-10.24 4.096-12.322 7.695-3.085 5.335-.852 14.154 5.503 23.043 2.716 3.799 4.863 6.79 8.76 10.593 7.053 6.886 14.3 12.02 24.187 17.422 9.372 5.12 14.134 8.616 14.134 8.616s4.473-6.9 9.705-16.189m-18.792-12.534c-4.867-3.871-38.675-34.062-7.548-19.41 13.586 6.396 8.219 19.976 7.548 19.41"/></g><path fill="url(#j)" fill-rule="evenodd" d="M865.081 1463.333c-57.924-3.928-101.589-11.911-141.833-25.93-17.412-6.066-46.49-19.124-45.333-20.485 66.709-21.58 109.362-97.732 176.251-113.21 5.366-1.43 10.477-1.43 38.896 0 85.39 4.308 183.157-3.806 272.797-22.64 11.799-2.48 22.073-4.27 22.832-3.978 3.11 1.194 3.162 27.817.09 46.62-4.389 26.851-15.237 48.275-34.328 64.925-22.266 18.468-47.533 33.453-71.315 49.928-29.188 8.474-68.712 19.784-137.809 24.407-13.14.88-68.893 1.129-80.247.359z"/><text xml:space="preserve" x="897.639" y="175.197" fill="#fff" fill-rule="evenodd" stroke-width="2.809" font-family="Magic Bubble" font-size="188.853" style="-inkscape-font-specification:&quot;Magic Bubble&quot;;text-align:center" text-anchor="middle"><tspan x="897.639" y="175.197">Get Well Soon,</tspan><tspan x="897.639" y="413.108">Alice!</tspan></text><text xml:space="preserve" x="914.505" y="1885.018" fill="#fff" fill-rule="evenodd" stroke-width="3.161" font-family="Magic Bubble" font-size="250.356" style="-inkscape-font-specification:&quot;Magic Bubble&quot;;text-align:center" text-anchor="middle"><tspan x="914.505" y="1885.018">You&apos;re tuskrific!</tspan></text><path fill="url(#k)" fill-rule="evenodd" d="M944.02 1002.506c-1.53 9.175-8.254 18.583-14.426 28.228-6.171 9.644-11.789 19.435-12.103 28.41-.314 8.974 4.591 18.184 10.26 27.487s12.085 18.612 13.682 28.3c3.194 19.379-13.64 36.751-29.507 53.572l-5.842-3.522c15.867-16.821 30.764-33.09 28.095-49.285-1.335-8.097-7.25-17.055-13.006-26.503s-11.372-19.47-10.996-30.213c.376-10.742 6.658-21.15 12.903-30.91 6.246-9.762 12.458-18.967 13.687-26.337s-1.976-13.741-7.89-20.1c-5.915-6.359-14.532-12.477-23.327-18.682 17.968 6.258 40.88 16.944 38.47 39.555" overflow="visible"/><path fill="url(#l)" fill-rule="evenodd" d="M1072.999 1015.006c-2.118 9.175-11.425 18.583-19.968 28.228-8.543 9.644-16.319 19.435-16.753 28.41-.435 8.974 6.354 18.184 14.201 27.487s16.728 18.612 18.94 28.3c4.421 19.379-18.882 36.751-40.845 53.572l-8.087-3.522c21.964-16.821 42.585-33.09 38.89-49.285-1.848-8.097-10.035-17.055-18.004-26.503s-15.74-19.47-15.22-30.213c.52-10.742 9.216-21.15 17.861-30.91 8.646-9.762 17.244-18.967 18.945-26.337s-2.734-13.741-10.921-20.1-20.115-12.477-32.29-18.682c24.872 6.258 56.589 16.944 53.251 39.555" overflow="visible"/><path fill="url(#m)" fill-rule="evenodd" d="M749.169 1017.006c2.118 9.175 11.425 18.583 19.968 28.228 8.542 9.644 16.318 19.435 16.753 28.41.435 8.974-6.355 18.184-14.201 27.487-7.847 9.302-16.729 18.612-18.94 28.3-4.422 19.379 18.881 36.751 40.844 53.572l8.087-3.522c-21.963-16.821-42.585-33.09-38.89-49.285 1.849-8.097 10.036-17.055 18.004-26.503 7.97-9.448 15.741-19.47 15.22-30.213-.52-10.742-9.215-21.15-17.86-30.91-8.646-9.762-17.244-18.967-18.946-26.337-1.701-7.37 2.735-13.741 10.922-20.1s20.115-12.477 32.29-18.682c-24.872 6.258-56.59 16.944-53.251 39.555" overflow="visible"/><path fill="url(#n)" d="M1382.479 151.718a22 22 0 0 1 15.445-6.445l29.988-.164a24.23 24.23 0 0 1 17.246 7.09l36.274 36.277c3.945 3.945 3.945 10.34 0 14.285l-47.95 47.945a10.097 10.097 0 0 1-14.285.004l-36.273-36.273a24.2 24.2 0 0 1-7.082-17.25l.18-30.028a22 22 0 0 1 6.456-15.441m6.578 6.605a8.278 8.278 0 1 0 11.703 11.705 8.278 8.278 0 0 0-11.703-11.705m0 0" transform="translate(-91.953 354.898)scale(.93282)"/><path fill="url(#o)" d="M1382.479 149.718a22 22 0 0 1 15.445-6.445l29.988-.164a24.23 24.23 0 0 1 17.246 7.09l36.274 36.277c3.945 3.945 3.945 10.34 0 14.285l-47.95 47.945a10.097 10.097 0 0 1-14.285.004l-36.273-36.273a24.2 24.2 0 0 1-7.082-17.25l.18-30.028a22 22 0 0 1 6.456-15.441m6.578 6.605a8.278 8.278 0 1 0 11.703 11.705 8.278 8.278 0 0 0-11.703-11.705m0 0" transform="translate(-91.953 354.898)scale(.93282)"/><path fill="#5e5c64" d="M1196.538 485.093c2.801.082 5.565 1.423 7.287 3.997l8.185 12.281c.535.798.317 1.88-.48 2.416a1.747 1.747 0 0 1-2.416-.485l-8.184-12.277a5.528 5.528 0 0 0-9.1-.253l-1.514 2.016a6.144 6.144 0 0 0 2.651 9.454l13.6 5.438a1.74 1.74 0 0 1 .971 2.261 1.744 1.744 0 0 1-2.262.975l-13.6-5.443c-5.864-2.348-7.936-9.721-4.142-14.774l1.509-2.017c1.858-2.48 4.695-3.666 7.495-3.59m0 0"/><path fill="#9a9996" d="M1196.506 485.414c2.439.069 4.846 1.242 6.355 3.499l8.184 12.282a.58.58 0 0 1-.965.644l-8.185-12.282c-2.593-3.88-8.193-4.033-10.994-.304l-1.514 2.017c-2.91 3.88-1.355 9.426 3.15 11.225l13.6 5.443a.59.59 0 0 1 .33.752.58.58 0 0 1-.757.327l-13.6-5.443c-5.185-2.071-6.998-8.534-3.648-13.002l1.513-2.017c1.627-2.17 4.097-3.209 6.534-3.14zm0 0"/><path fill="#d42539" d="M1249.982 544.54c1.425 1.424 3.01 2.39 4.748 2.89q2.634.73 5.323-.02c1.808-.517 3.506-1.562 5.087-3.147l.594-.594q2.395-2.394 3.145-5.083.774-2.712.04-5.346-.731-2.629-2.868-4.766-2.16-2.158-4.788-2.89-2.634-.734-5.345.04-2.712.733-5.105 3.127l-.594.594q-2.373 2.372-3.127 5.105-.75 2.69-.018 5.32c.499 1.742 1.472 3.334 2.908 4.77m4.511-4.511q-1.006-1.011-.87-2.376.14-1.404 1.821-3.087l.594-.594q1.7-1.7 3.126-1.858 1.406-.18 2.413.83.991.99.812 2.395-.174 1.403-1.88 3.108l-.594.594c-1.119 1.119-2.143 1.734-3.064 1.84q-1.367.136-2.358-.852m-40.286-2.533q2.136 2.136 4.748 2.89 2.634.731 5.323-.022 2.71-.772 5.087-3.145l.59-.594c1.6-1.596 2.646-3.29 3.149-5.087q.771-2.709.04-5.341-.733-2.631-2.871-4.77-2.154-2.155-4.788-2.89-2.63-.728-5.342.04-2.712.733-5.105 3.127l-.594.594q-2.378 2.377-3.126 5.105c-.503 1.796-.507 3.57-.022 5.323q.753 2.611 2.911 4.77m4.511-4.511q-1.01-1.01-.87-2.376.137-1.404 1.821-3.086l.59-.594q1.705-1.7 3.13-1.858 1.404-.18 2.413.83.989.99.812 2.394-.18 1.405-1.88 3.105l-.594.594q-1.682 1.682-3.068 1.84-1.365.141-2.354-.849m19.312 27.387 9.223-49.75-5.065-5.064-9.223 49.745zm0 0"/><path fill="#ffbe6f" d="M1249.282 546.638q2.14 2.139 4.748 2.89 2.635.73 5.324-.018c1.807-.518 3.505-1.563 5.087-3.149l.594-.593q2.395-2.393 3.144-5.084.775-2.71.04-5.345-.732-2.629-2.867-4.766-2.16-2.158-4.788-2.89-2.636-.734-5.346.04-2.71.732-5.105 3.127l-.594.594q-2.371 2.372-3.126 5.105-.75 2.69-.019 5.32c.5 1.741 1.472 3.334 2.908 4.77zm4.511-4.51q-1.006-1.011-.87-2.376.14-1.404 1.821-3.087l.594-.594q1.7-1.7 3.127-1.858 1.405-.18 2.412.83.992.99.813 2.395-.176 1.403-1.88 3.108l-.595.594c-1.118 1.119-2.142 1.734-3.064 1.84q-1.367.137-2.358-.853m-40.286-2.533q2.137 2.136 4.748 2.89 2.635.732 5.324-.022 2.71-.772 5.087-3.145l.59-.594c1.6-1.596 2.645-3.29 3.148-5.087q.772-2.709.04-5.342c-.488-1.752-1.446-3.345-2.871-4.77q-2.154-2.154-4.788-2.889c-1.753-.484-3.534-.474-5.342.04q-2.71.733-5.105 3.127l-.594.594q-2.377 2.377-3.126 5.105c-.503 1.796-.507 3.57-.022 5.323q.754 2.611 2.912 4.77zm4.511-4.511q-1.01-1.01-.87-2.376.138-1.404 1.821-3.086l.59-.594q1.706-1.7 3.13-1.859 1.404-.18 2.413.831.99.99.813 2.394-.18 1.405-1.88 3.105l-.595.594c-1.122 1.122-2.142 1.734-3.068 1.84q-1.364.141-2.354-.85m19.313 27.387 9.222-49.75-5.065-5.064-9.222 49.745zm0 0"/></svg>