<?xml version="1.0" encoding="UTF-8" standalone="no"?>
<svg
   xml:space="preserve"
   width="1800"
   height="2000"
   version="1.1"
   id="svg32"
   sodipodi:docname="hamtaro-message-eva.svg"
   inkscape:version="1.4.2 (ebf0e940d0, 2025-05-08)"
   xmlns:inkscape="http://www.inkscape.org/namespaces/inkscape"
   xmlns:sodipodi="http://sodipodi.sourceforge.net/DTD/sodipodi-0.dtd"
   xmlns:xlink="http://www.w3.org/1999/xlink"
   xmlns="http://www.w3.org/2000/svg"
   xmlns:svg="http://www.w3.org/2000/svg"><sodipodi:namedview
     id="namedview32"
     pagecolor="#ffffff"
     bordercolor="#000000"
     borderopacity="0.25"
     inkscape:showpageshadow="2"
     inkscape:pageopacity="0.0"
     inkscape:pagecheckerboard="0"
     inkscape:deskcolor="#d1d1d1"
     inkscape:zoom="0.24006275"
     inkscape:cx="914.34426"
     inkscape:cy="893.51637"
     inkscape:window-width="1536"
     inkscape:window-height="888"
     inkscape:window-x="0"
     inkscape:window-y="0"
     inkscape:window-maximized="1"
     inkscape:current-layer="svg32" /><defs
     id="defs3"><linearGradient
       id="a"><stop
         offset="0"
         stop-color="#1f93db"
         id="stop1" /><stop
         offset=".5"
         stop-color="#56b6e7"
         id="stop2" /><stop
         offset=".75"
         stop-color="#8ac9e9"
         id="stop3" /></linearGradient><linearGradient
       xlink:href="#a"
       id="b"
       x1="3205.007"
       x2="3205.007"
       y1="134.021"
       y2="2148.159"
       gradientTransform="matrix(.8972 0 0 .68009 -1979.042 223.958)"
       gradientUnits="userSpaceOnUse" /></defs><rect
     width="1807.069"
     height="2000"
     x="-7.069"
     fill="url(#b)"
     fill-rule="evenodd"
     ry="1.275"
     id="rect3" /><path
     id="path32"
     d="m 1227.9219,396.24493 c -7.3763,0.19304 -14.482,0.69918 -20.8574,1.53711 -47.3412,6.17629 -89.0525,27.55268 -114.7657,61.24414 -0.6699,-0.63522 -1.3663,-1.25875 -2.0879,-1.86914 v 0 c -5.2374,6.4627 -8.2381,13.28668 -9.623,20.17968 -2.3318,4.4193 -4.4223,9.00056 -6.252,13.73828 -4.9121,-9.91218 -12.7055,-18.50633 -24.875,-23.95507 -3.2671,8.78777 -3.574,17.44367 -1.9043,25.61132 -0.9163,4.29927 -1.1716,8.5449 -0.8808,12.69336 -7.9725,-9.02009 -18.5932,-15.9439 -32.7559,-18.19531 -0.3658,7.07711 0.8437,13.6516 3.1934,19.67578 -1.0443,-0.22615 -2.1099,-0.42527 -3.1953,-0.59765 -0.2702,5.22286 0.3169,10.17342 1.5879,14.83007 -8.2979,-3.94956 -17.66064,-6.11552 -27.89458,-5.38671 -13.63424,-3.11938 -44.67475,3.79713 -56.36719,9.84375 -6.158,3.184 -6.26118,2.76906 -1.61718,-6.33594 4.019,-7.88 4.62873,-16.07544 1.42773,-19.27344 -4.949,-4.951 -14.16578,-1.22136 -28.55078,11.55664 -5.122,4.551 -14.15903,11.83922 -20.08203,16.19922 -10.601,7.805 -10.78405,7.86128 -11.74805,3.73828 -0.807,-3.448 -2.29908,-4.28433 -8.45508,-4.73633 -8.652,-0.632 -18.69317,3.33796 -33.82617,13.37696 -7.209,4.782 -12.20064,6.80468 -16.80664,6.80468 -6.514,0 -6.55308,-0.0468 -7.70508,-8.92382 -2.19,-16.858 -6.50887,-30.37404 -15.67187,-49.08204 -13.76,-28.1 -54.70938,-85.34043 -158.98438,-81.64843 -29.86,1.057 -47.49073,5.48576 -74.17773,18.63476 -54.723,26.955 -99.73017,81.66835 -115.70117,140.65235 -4.00366,14.78685 -4.71661,19.67162 -4.75977,41.75781 -0.0245,0.64745 -0.0483,1.32125 -0.0723,2.02148 -0.127,3.71522 -0.0897,7.58854 0.10351,11.58008 0.14624,22.70483 0.87177,27.99902 4.85352,42.80469 6.548,24.344 22.82703,56.94581 37.58203,75.25781 26.892,33.376 63.13464,55.05788 103.93164,62.17188 8.445,1.473 16.16044,2.67578 17.14844,2.67578 2.45991,0 1.13874,17.59491 -2.53516,43.85547 -0.36594,2.89418 -1.27901,7.38987 -1.67773,10.30468 -4.1102,27.41146 -10.00699,61.35437 -17.5879,97.54883 -2.82943,10.11628 -4.51515,20.29792 -5.53906,30.56836 -22.8344,-0.37219 -58.36563,-0.33597 -67.14648,2.45508 -0.384,1.165 11.0589,1.56144 32.8789,1.14844 11.35062,-0.64724 22.69028,-0.81485 33.9668,-0.36328 -0.5775,6.67403 -0.89772,13.38676 -1.09375,20.14456 -0.632,21.7699 2.54941,45.8456 8.31641,62.9316 1.12848,3.4939 2.36031,6.9068 3.67773,10.2363 -23.79942,10.8713 -49.68945,25.3692 -49.68945,25.3692 0,0 5.50984,0.4718 15.71484,-5.4082 11.48051,-5.9325 23.32451,-11.4774 35.4375,-16.3809 15.9938,37.9564 42.68536,64.3793 52.51758,73.2637 l 12.85547,11.6191 c -2.406,19.854 -4.98738,39.7121 -10.73438,58.9531 -3.56171,12.7615 -6.03371,25.9653 -9.40234,38.9239 -2.92044,8.5523 -5.34013,18.9772 -8.72656,34.9628 -0.20036,0.9459 -0.27478,2.1168 -0.46485,3.086 -6.47699,33.8976 -9.61676,68.1181 -1.89453,102.6172 6.097,22.274 15.45964,39.4376 28.80664,52.8086 l 11.63282,11.6582 -9.33203,9.3125 c -17.06501,17.032 -20.56136,29.6112 -11.19336,40.2812 2.945,3.355 5.35546,7.3528 5.35546,8.8848 0,1.533 1.80763,4.0885 4.01563,5.6855 3.037,2.195 6.19045,2.634 12.93945,1.793 4.908,-0.612 13.15989,-1.0251 18.33789,-0.9141 7.532,0.16 11.39316,-0.9254 19.28516,-5.4414 10.87,-6.218 36.37955,-24.5801 43.93555,-31.6211 l 4.82031,-4.4863 54.9707,-0.4414 c 31.182,-0.252 69.2681,-1.6741 87.9961,-3.2871 40.842,-3.52 69.15017,-3.5614 132.07617,-0.1934 26.995,1.445 65.1216,3.1586 84.7246,3.8086 l 35.6426,1.1797 14.3321,12.2793 c 23.315,19.968 47.588,30.1744 57.039,23.9824 3.225,-2.113 6.5715,-2.5874 12.5195,-1.7714 7.848,1.076 8.3955,0.8369 16.3985,-7.1661 7.985,-7.987 8.2427,-8.5679 7.1777,-16.3359 -1.376,-10.05 -4.4947,-16.1488 -13.6797,-26.7598 l -7.2089,-8.3281 6.7402,-4.8965 c 11.933,-8.672 26.8648,-26.4928 33.3808,-39.8398 9.005,-18.444 11.9355,-31.2448 12.9805,-56.6738 0.9667,-50.9149 -11.5486,-100.1549 -23.9004,-149.3086 -0.1754,-0.8234 -0.3601,-1.6261 -0.5527,-2.4004 -4.7711,-19.1817 -9.4887,-38.9267 -11.6231,-48.5547 -0.3241,-1.5056 -0.6443,-3.0111 -0.9589,-4.5176 l -2.1485,-11.1289 15.0801,-15.8496 c 8.295,-8.718 17.4327,-19.5672 20.3047,-24.1152 2.431,-2.9706 4.5979,-6.0817 6.5996,-9.2852 15.9779,8.5872 31.9196,19.5309 44.8809,33.2598 9.837,10.42 15.3203,9.1601 15.3203,9.1601 0,0 -32.2342,-29.9898 -48.8672,-39.5058 -3.1294,-2.2108 -6.2917,-4.1531 -9.5059,-5.9375 3.4553,-5.8994 6.4685,-12.0605 9.6231,-18.209 11.321,-22.071 20.7569,-49.7488 23.7519,-69.6758 1.9018,-7.6504 2.8897,-15.1439 3.2871,-22.65624 6.3517,0.0722 12.7077,0.34486 19.0723,0.53321 6.2392,0.15576 11.9853,0.0972 15.6738,-0.11719 v 0.004 c 2.0764,-0.11988 3.5011,-0.29312 3.9942,-0.50391 0.034,-0.0146 0.064,-0.0299 0.09,-0.0449 v -0.002 c 0.012,-0.007 0.023,-0.0142 0.033,-0.0215 v -0.002 c 0.01,-0.007 0.018,-0.0142 0.025,-0.0215 v -0.002 c 0.062,-0.0621 0.1162,-0.12173 0.164,-0.18164 0.036,-0.0455 0.068,-0.0905 0.096,-0.13477 0.071,-0.11256 0.1138,-0.22094 0.127,-0.32617 v -0.002 c 0.039,-0.32361 -0.2116,-0.61433 -0.793,-0.88281 -0.1154,-0.0532 -0.2561,-0.10671 -0.3984,-0.15821 -0.105,-0.038 -0.2374,-0.0742 -0.3574,-0.11133 -0.2689,-0.0832 -0.6449,-0.16066 -0.9922,-0.24023 -0.3126,-0.0716 -0.7126,-0.14554 -1.0918,-0.21484 -0.3212,-0.0584 -0.5319,-0.12062 -0.9024,-0.17774 v 0.0899 c -3.2878,-0.55055 -8.2642,-1.04608 -16.7871,-1.62305 -6.0158,-0.0818 -11.9267,-0.0283 -17.8008,0.12305 0.1681,-6.40413 -0.05,-12.84436 -0.4531,-19.43165 -0.61,-9.98 -3.4771,-29.39176 -6.3691,-43.13476 -12.922,-61.411 -12.0536,-94.22102 -16.3946,-122.04102 -0.976,-6.259 -1.5418,-11.54037 -1.2578,-11.73437 0.286,-0.196 8.9489,-2.5163 19.2559,-5.1543 65.947,-16.879 107.2576,-60.22344 121.8926,-127.89844 5.094,-23.552 5.4027,-72.61175 0.5957,-94.59375 -17.178,-78.565 -75.7471,-142.94123 -150.3321,-165.24023 -14.4815,-4.32987 -39.0317,-6.54466 -61.1582,-5.96484 z M 990.8418,529.2918 c 0.40044,0.68074 0.81451,1.34755 1.24414,2.00195 -1.13751,-0.1576 -1.7793,-0.37425 -1.7793,-0.6914 0,-0.17497 0.20368,-0.65891 0.53516,-1.31055 z m -190.50391,17.09961 c -0.0976,1.92279 -0.70925,2.97424 -2.14844,4.06836 0.89469,-1.3015 1.60945,-2.63839 2.14844,-4.06836 z m 8.95508,5.00195 c 1.237,0.0559 1.62803,0.48212 0.95508,1.66602 -0.17714,-0.55781 -0.52131,-1.17184 -0.95508,-1.66602 z m 628.47073,68.97266 c 0.1894,0.0649 0.3835,0.11102 0.5801,0.13867 -0.1033,0.31967 -0.2177,0.48828 -0.3418,0.48828 v 0 0 -0.002 c -0.028,-0.0254 -0.1035,-0.24052 -0.2324,-0.625 z m -18.8535,87.19141 -0.1797,0.32031 c -0.069,0.0541 -0.142,0.11228 -0.2188,0.17578 z m -153.4903,31.31054 c 0.025,0.05 0.1118,0.16926 0.1367,0.21875 0.021,0.0419 0.1011,0.27189 0.1231,0.31641 -0.092,-0.17731 -0.1678,-0.35804 -0.2598,-0.53516 z m -205.3047,77.5918 c -0.017,0.0376 -0.035,0.0757 -0.053,0.11328 a 4.776,4.776 0 0 0 -0.062,-0.0664 3.21,3.21 0 0 0 0.1152,-0.0469 z M 575.89258,985.73125 c 0.11307,0.12577 0.23041,0.24641 0.35156,0.36133 0.49899,0.47396 1.05318,0.83854 1.63867,1.14649 -0.69708,-0.0155 -1.41544,-0.0299 -2.15429,-0.0449 0.0538,-0.48644 0.10804,-0.97486 0.16406,-1.46289 z m 10.68554,100.02145 c -0.0163,0.028 -0.0329,0.056 -0.0488,0.084 -0.008,-0.019 -0.0157,-0.038 -0.0234,-0.057 0.0238,-0.01 0.0484,-0.018 0.0723,-0.027 z m 691.99218,20.6934 c 0,0 0.01,0.01 0.014,0.01 0,0 0,0 -0.01,0.01 0,0 -0.01,-0.01 -0.01,-0.014 z"
     style="fill:#3ca9e3;fill-opacity:1" /><g
     id="g32"><path
       fill="#f5c4ac"
       fill-rule="evenodd"
       d="M661.786 1453.752a1.4 1.4 0 0 0-1.65.296l-1.802 1.922c-.987 1.053-4.11 4.37-6.934 7.36-8.21 8.691-11.924 13.444-14.582 18.775-1.802 3.616-2.58 7.032-2.18 10.254s1.982 6.166 4.597 8.785c.553.553 1.076 1.003 1.742 1.29.667.287 1.594.309 2.288-.066 1.387-.751 1.856-2.099 2.547-4.051.41-1.157 1.365-3.192 1.981-4.221 1.706-2.856 4.209-6.119 6.47-8.617 1.13-1.25 2.204-2.315 3.057-3.027a8.4 8.4 0 0 1 1.055-.773c.259-.152.427-.132.186-.132.283 0 .08-.104.214.096.057.091.16.739-.459 2.004s-1.838 2.954-3.584 4.82c-4.396 4.699-7.682 10.915-8.895 16.882-.545 2.68-.468 5.049.39 7.016.857 1.968 2.533 3.427 4.707 4.176 2.62.905 6.506.81 10.245.022 2.713-.573 4.408-.964 5.65-2.067.622-.553 1.034-1.348 1.154-2.135s.026-1.55-.129-2.397c-.717-3.89-.277-6.898 1.656-11.023 1.259-2.688 3.16-5.354 4.898-7.139.87-.892 1.704-1.563 2.311-1.904.321-.18.225-.148.316-.17-.025.154-.01.198-.118.491-.392 1.062-1.411 2.865-3.08 5.35-2.285 3.403-3.638 6.383-3.941 9.14-.302 2.76.592 5.29 2.517 7.217 2.959 2.959 7.704 3.844 12.03 2.454 5.992-1.926 15.827-7.746 29.305-17.134 8.612-5.997 15.421-10.971 19.855-14.475 2.216-1.754 3.824-3.123 4.831-4.143.503-.508.857-.853 1.137-1.456.14-.303.37-.867-.029-1.56-.398-.69-1.103-.794-1.456-.794.343 0 .095.002-.025-.018l-.502-.09a91 91 0 0 1-1.549-.31c-1.44-.301-5.645-.814-9.809-1.242-12.717-1.308-19.665-2.493-29.217-4.978-9.995-2.598-16.747-5.197-27.527-10.589zm561.99-.007s-.303.025-.374.039c-.075.014-.122.029-.157.038l-.136.042c-.06.022-.09.034-.116.045l-.143.062q-.14.065-.348.165l-1.144.558c-.95.464-2.238 1.107-3.643 1.808-16.27 8.146-33.28 13.035-58.953 16.886-2.29.345-4.491.686-6.195.957-1.705.268-2.738.427-3.299.55h-.003l-1.055.233a1.935 1.935 0 0 0-.946 3.263l3.173 3.152c9.719 9.656 23.376 19.749 34.05 25.116 4.709 2.368 10.145 4.269 14.682 5.11 1.398.26 3.186.167 5.146.039a44 44 0 0 0 2.779-.268c.833-.112 1.437-.178 2.168-.471 1.048-.42 2.142-1.228 2.713-2.367.57-1.138.746-2.368.92-4.08.592-5.847-.618-9.804-4.962-16.432-1.435-2.192-2.29-3.802-2.792-4.989.829.925 2.431 3.06 4.104 6.06 1.886 3.385 3.787 7.373 4.931 10.53.768 2.111 1.46 3.678 2.347 4.958a8.9 8.9 0 0 0 3.288 2.875c2.677 1.376 6.634 2.1 9.648 1.778 2.04-.218 3.89-.742 5.007-2.3 1.115-1.559 1.17-3.413 1.046-5.766-.222-4.122-1.764-8.45-5.244-15.324-1.057-2.088-1.29-2.907-1.796-4.155.45.598.852 1.023 1.332 1.794 1.852 2.972 3.801 7.04 5.149 11.066.84 2.513 1.376 4.032 1.986 5.161.307.566.643 1.071 1.19 1.496s1.32.642 1.89.642c1.46 0 2.212-.75 2.944-1.495a9.4 9.4 0 0 0 1.85-2.734c.738-1.646.94-3.638.915-5.87a29 29 0 0 0-.94-6.944c-1.61-6.055-5.355-13.47-9.601-19.142-.914-1.22-3.258-3.964-5.508-6.546a237 237 0 0 0-3.04-3.43 52 52 0 0 0-1.038-1.116 9 9 0 0 0-.375-.373 2 2 0 0 0-.222-.191 2 2 0 0 0-.248-.164 1.8 1.8 0 0 0-.546-.216 5 5 0 0 0-.434-.048z"
       id="path3" /><path
       fill="#db812e"
       fill-rule="evenodd"
       d="M1248.382 376.006c-16.237-.952-33.02.071-50.264 3.077-52.434 9.143-90.851 34.134-111.132 72.821-10.97 20.925-15.85 40.498-17.862 71.196-.607 9.269-1.218 15.333-1.883 18.644-.19.946-.286 1.062-.443 1.51-7.098-2.442-19.702-5.244-30.258-6.788.745-.03 1.057-.142 1.88-.153 4.683-.063 13.26 2.943 15.477 2.295.556-.16 1.178-.27 2.033-1.156.429-.445.893-1.221.977-2.106a3.64 3.64 0 0 0-.505-2.169c-.597-.982-1.13-1.237-1.605-1.526a11 11 0 0 0-1.474-.739c-1.71-.735-9.078-3.818-11.518-4.083-2.441-.268-5.568-.504-9.207-.709-7.279-.41-16.592-.689-26.246-.735-2.411-.013-2.793-.113-4.904-.136 1.417-.082 2.347-.24 3.817-.303 8.585-.379 15.33-.891 19.811-1.485 2.24-.298 11.84.492 13.212.014.685-.24-.707-2.542.315-4.275.513-.865-5.274-1.215-5.795-2.118-.523-.903-1.074-1.196-1.485-1.428-2.518-1.408-5.79-2.088-10.043-2.713-4.255-.626-9.377-1.048-14.924-1.264-11.095-.432-23.85-.042-34.393 1.36-8.846 1.178-10.258 1.243-15.87 1.957 3.328-.62 3.753-.814 8.084-1.594 10.798-1.944 18.2-3.87 22.61-6.194 1.101-.581 2.044-1.185 2.868-2.047s1.628-2.225 1.503-3.837c-.125-1.614-1.108-2.824-2.052-3.57-.946-.747-1.989-1.24-3.215-1.695-7.34-2.715-18.533-.985-31.983 2.73s-28.821 9.81-42.74 17.367c-2.784 1.513-4.943 2.613-7.369 3.88 1.553-1.285 2.031-2.02 4.016-3.486 13.218-9.763 21.882-20.364 21.882-30.283 0-2.14-.571-4.644-2.785-5.96-2.214-1.318-4.515-.792-6.678.054-4.33 1.696-9.799 5.592-17.81 12.025-13.642 10.95-29.753 22.31-43.304 30.884-6.775 4.287-12.916 7.882-17.74 10.364-1.052.543-1.75.803-2.665 1.235 1.599-1.081 3.22-2.18 5.372-3.385 9.702-5.433 15.831-9.151 19.531-12.184 1.85-1.517 3.191-2.807 3.96-4.688s.108-4.584-1.21-5.903c-1.436-1.436-3.353-1.927-5.17-1.993s-3.705.255-5.78.826c-4.147 1.142-9.036 3.33-14.492 6.336-10.905 6.015-23.982 15.325-36.063 26.181-.26.232-.356.232-.604.447.148-.157.14-.215.293-.377 2.802-2.927 4.408-4.665 5.354-6.71.236-.511.504-1.072.472-2.096s-1.004-2.677-2.135-3.172-1.865-.337-2.443-.23a7.7 7.7 0 0 0-1.54.471c-3.949 1.59-10.213 5.961-19.484 13.215-3.021 2.365-3.205 2.31-5.383 3.96 1.817-1.63 3.254-3.09 5.346-4.786 8.861-7.191 14.066-11.552 15.995-17.991 1.931-6.44.21-13.374-2.873-25.452-18.434-72.195-83.916-113.026-174.013-109.349-23.748.97-30.845 2.335-47.722 9.147-62.045 25.04-111.246 76.582-130.94 137.35-1.767 5.456-3.073 9.671-3.893 12.9s-1.445 5.201-.76 7.739c.343 1.269-2.545 11.44-.95 11.696s7.011-8.717 7.998-9.196c1.976-.958 4.002-2.51 6.708-4.665 16.89-13.443 32.79-19.704 52.812-20.866 22.84-1.324 39.613 2.115 61.99 12.747 36.083 17.147 69.974 51.729 91.031 93.179 2.147 4.225 4.29 8.058 6.063 10.909.887 1.424 1.67 2.595 2.388 3.516.357.462.686.858 1.107 1.256.423.396.67 1.182 2.71 1.182 2.29 0 4.247-.994 6.309-2.438 2.063-1.442 4.262-3.452 6.757-6.094 4.988-5.279 11.133-13.09 18.767-23.737 11.387-15.885 20.124-25.23 27.061-29.557l9.026-5.627 30.045 29.48c51.866 50.898 91.362 82.25 140.177 111.226 43.94 26.082 99.549 51.724 136.39 62.813l10.863 3.27a3.21 3.21 0 0 0 3.53-1.193l10.775-14.856c26.186-36.107 69.115-46.353 109.969-26.162 22.45 11.096 46.833 36.224 56.813 58.497l7.247 16.176a3.22 3.22 0 0 0 2.81 1.899l21.748.844c5.965.232 11.712.496 16.151.739 2.219.121 4.114.237 5.533.339s2.542.225 2.502.218c1.182.207 2.786-.115 3.827-1.004s1.481-1.98 1.737-2.987c.508-2.017.396-4.159.039-6.941-1.955-15.182-3.472-27.861-4.421-36.78-.475-4.46-.807-7.981-.98-10.37-.046-.647-.05-.97-.071-1.44 1.181-.38 2.812-.887 4.836-1.495a1121 1121 0 0 1 15.965-4.645c25.077-7.114 48.28-17.855 62.822-29.317 3.309-2.605 5.593-4.597 7.077-6.148.74-.775.73-2.752 1.777-2.345 5.644 2.193 33.919-40.07 32.05-42.21-.928-1.061-33.146 34.597-34.024 34.453-1.752-.291-2.795 2.736-3.68 3.084s-1.869.83-3.036 1.462c-2.336 1.262-5.378 3.13-9.127 5.654-19.883 13.38-35.638 18.2-64.48 19.633l-23.602 1.174-2.017-4.883c-10.896-26.417-26.303-54.074-41.129-73.76-4.64-6.16-8.863-12.123-11.894-16.712-1.517-2.293-2.736-4.251-3.539-5.668-.179-.316-.248-.478-.382-.735.309-.15.41-.245.926-.418 2.024-.682 5.465-1.37 10.018-1.9a94 94 0 0 0 11.744-2.13c3.499-.882 6.09-1.57 8.21-3.12.986-.72 1.803-1.303 2.588-2.297.393-.498.809-1.155.982-2.078a4.46 4.46 0 0 0-.464-2.795c-.846-1.52-1.883-2.007-3-2.605s-2.456-1.175-4.162-1.882c-6.104-2.527-11.182-2.666-17.449-.481-1.486.517-2.382.481-3.748.833 2.706-1.26 5.176-2.474 8.503-3.834 5.35-2.188 10.56-4.61 14.721-6.79a77 77 0 0 0 5.369-3.055c1.47-.935 2.532-1.608 3.514-2.791 1.042-1.258 2.07-3.102 1.296-5.23-.771-2.127-2.624-2.82-4.04-3.144-2.833-.65-6.157-.334-10.283.351-8.257 1.375-19.126 4.685-28.038 9.281a134 134 0 0 1-10 4.676c.06-.114.054-.151.118-.27 1.646-3.114 4.416-7.411 7.864-12.191 6.896-9.558 16.529-21.123 25.626-30.219 31.552-31.555 58.197-44.803 93.738-46.865 43.058-2.499 76.47 17.3 94.38 55.877l4.908 10.575c1.515 3.266 6.43 1.96 6.126-1.628l-1.535-18.123c-4.798-56.653-23.863-98.651-63.247-139.298-36.454-37.625-80.19-58.327-128.894-61.183M479.818 711.23c-.325-.1-.719-.116-1.285.074-.483.16-.956.737-1.06 1.142s-.045.64-.007.817c.077.352.175.527.282.729.214.403.498.82.857 1.317.722.996 1.754 2.261 2.946 3.598 4.494 5.03 15.235 15.408 21.168 20.463 24.26 20.668 52.652 34.013 80.57 37.802 1.413.19 4.863.574 7.77.867 4.207.421 7.382.839 9.437 1.223 1.026.192 1.781.387 2.172.526.082.03.055.022.1.041.06.107-.016.141.094.268.249.293.816.605 1.35.566a1.6 1.6 0 0 0 1.046-.477c.183-.184.171-.196.208-.248s.072-.098.108-.153q.11-.165.267-.407c.214-.329.496-.773.825-1.294a498 498 0 0 0 5.361-8.723c.09-.155.161-.278.22-.387.028-.053.053-.096.09-.17a2 2 0 0 0 .07-.178c.018-.052.047-.11.072-.271.014-.08.016-.384.016-.384l-.394-.917-.3-.257s-.175-.106-.248-.136a2 2 0 0 0-.33-.102c-.165-.032-.247-.028-.318-.028a2 2 0 0 0-.286.018 5 5 0 0 0-.39.073c-.268.06-.58.143-.922.244-1.12.332-2.47.33-3.475.018-.958-.296-2.398-.482-3.83-.61-7.864-.693-23.16-3.888-35.798-7.52-21.332-6.127-39.669-14.514-56.887-26.011-6.668-4.452-9.84-6.799-18.608-13.756-3.553-2.82-6.068-4.744-7.832-5.968-.883-.61-1.574-1.048-2.172-1.351-.3-.154-.56-.338-.885-.438z"
       id="path4" /><path
       fill="#f0d4e4"
       fill-rule="evenodd"
       d="M1345.46 528.856c-9.232-.16-18.62.428-25.847 1.924-27.53 5.703-51.613 19.292-74.683 41.986-5.203 5.119-12.051 12.825-17.68 19.618-2.815 3.397-5.315 6.554-7.157 9.067a50 50 0 0 0-2.253 3.291 14 14 0 0 0-.755 1.376c-.22.475-.517.844-.517 2.1 0 1.011.63 2.2 1.272 2.748a3.46 3.46 0 0 0 1.539.783c.75.188 1.133.147 1.526.125.785-.043 1.494-.175 2.35-.362 1.714-.375 3.879-1 6.27-1.813 4.978-1.692 10.714-3.07 15.832-3.886s9.757-1.007 11.858-.667c2.01.326 3.828 1.197 4.98 2.161 1.154.964 1.493 1.878 1.493 2.256 0-.639 0-.036-.52.739-.517.774-1.39 1.81-2.464 2.875-2.149 2.135-5.135 4.423-7.85 5.885l-4.072 2.193a3.49 3.49 0 0 0-.652 5.695l5.35 4.71c2.594 2.283 3.683 4.202 3.888 5.234s.11 1.477-1.163 2.62c-2.553 2.284-10.547 4.98-22.81 5.877a146 146 0 0 0-7.22.687c-.947.12-1.724.234-2.377.362-.327.065-.607.12-.996.249-.196.064-.41.12-.826.365-.21.122-.482.282-.855.691s-.928 1.232-.928 2.381c0 1.364.285 1.414.392 1.631s.184.343.26.466c.156.248.304.459.483.702q.526.724 1.356 1.76a188 188 0 0 0 4.234 5.086c10.983 12.792 32.17 44.04 38.639 56.887 2.099 4.17 8.808 21.177 12.297 31.436.453 1.331 1.826 2.515 2.958 2.945 1.13.432 2.165.542 3.471.614 2.611.146 6.345 0 12.413-.341 36.476-2.042 59.384-9.394 81.726-26.455 17.855-13.635 41.772-41.935 50.639-60.144 14.114-28.985 12.158-65.491-4.971-93.015-11.607-18.65-32.555-34.19-53.906-40.008-6.518-1.776-15.492-2.672-24.723-2.834"
       id="path5" /><path
       fill="#fff"
       fill-rule="evenodd"
       d="M1192.523 887.081c-5.47-.687-10.723.179-15.69 2.578-4.794 2.315-8.425 5.727-11.075 10.394-2.652 4.67-3.94 10.486-4.105 16.244s.767 11.46 3.254 15.949c3.212 5.8 9.991 10.834 17.837 14.08 2.272.939 3.92 1.232 6.21 1.123 2.182-.106 3.944-.532 6.642-1.598 4.855-1.913 8.507-4.569 12.324-8.888 3.565-4.035 6.683-9.299 8.185-14.003 2.972-9.303 1.523-18.744-4.242-25.7-4.576-5.52-11.762-9.227-19.34-10.179m29.501-40.457c-2.41 0-4.25.323-6.233 1.13-4.603 1.873-8.215 5.834-9.282 10.43-.463 1.988-.42 4.405.089 6.393 1.722 6.707 7.805 11.87 14.69 12.452 3.472.291 7.027-.276 9.5-1.977 1.51-1.04 2.917-2.724 3.915-4.407 2.67-4.505 3.846-9.645 2.499-13.709-.736-2.222-1.83-3.97-3.534-5.65-3.16-3.115-7.068-4.662-11.644-4.662m-85.737-96.465a44.6 44.6 0 0 0-8.567.151c-30.7 3.54-57.868 33.496-65.725 70.473-1.919 9.031-2.11 23.574-.26 31.93 2.84 12.85 7.956 22.21 16.814 30.597 5.776 5.467 11.933 9.531 18.967 12.487 5.67 2.382 14.14 4.849 19.581 5.632 7.514 1.084 19.314.904 26.165-.512 32.655-6.74 53.982-37.53 52.22-74.267-.666-13.907-3.648-25.383-9.897-38.123-10.905-22.232-29.395-36.803-49.298-38.368M692.42 873.926c-3.623 0-4.573.1-6.532.632-2.785.753-5.928 2.204-8.282 3.83-3.49 2.415-6.937 6.479-8.958 10.489-4.337 8.613-3.309 19.469 2.476 28.209 1.672 2.527 4.65 5.602 7.018 7.15 3.045 1.992 6.782 3.428 10.27 3.932 13.31 1.918 26.454-8.118 29.49-22.171.601-2.788.696-7.61.114-10.307-.971-4.502-2.724-8.521-5.187-11.79-3.478-4.618-8.31-7.775-14.34-9.455-1.503-.418-2.687-.517-6.069-.517m-22.722-42.029c-10.379-.014-19.828 7.428-19.786 17.741.033 8.281 6.009 15.215 13.996 17.712 10.896 3.406 22.139-4.665 23.056-16.102.41-5.119-1.062-10.061-4.225-13.661s-7.944-5.681-13.041-5.69m94.253-83.019c-23 .054-46.044 12.994-58.47 37.928-21.578 43.3-6.684 96.608 34.556 113.574 5.418 2.229 8.019 1.772 12.86 1.999s10.512.22 16.178-.063c15.958-.792 26.972-4.437 37.931-12.797 25.26-19.267 35.214-52.86 26.058-84.79-10.155-35.405-39.542-55.914-69.113-55.848"
       id="path6" /><path
       fill="#fffde9"
       fill-rule="evenodd"
       d="M737.725 586.946c-52.312 34.757-56.367 78.86-69.16 64.592-39.912-44.502-142.046-60.608-49.904 29.98 28.887 28.399 2.492 71.379-17.062 101.858a4.8 4.8 0 0 0-.607 1.856l-2.847 25.373c-3.395 30.26-7.61 56.133-17.154 105.27a1473 1473 0 0 0-5.061 27.331c-.65 3.743-1.178 6.93-1.548 9.367-.37 2.436-.619 3.612-.617 5.292.002 1.831.903 4.305 2.479 5.8 1.156 1.098 2.608 1.607 4.06 2.192l-4.733-.021a4.776 4.776 0 0 0-4.794 4.962l1.192 30.807c.736 18.987 2.588 35.789 5.405 44.666 1.96 6.183 2.302 9.483 5.611 12.605 1.633 1.542 4.444 2.157 6.32 1.904-.294.209-.65.357-.933.596-1.014.857-2.531 2.07-2.531 4.901 0 3.695 1.403 5.874 3.203 9.436s4.255 7.78 7.115 12.298c5.718 9.038 13.016 19.222 19.74 27.063 17.78 20.727 31.185 32.32 49.553 42.712 7.234 4.092 13.163 7.96 17.098 11.033 1.789 1.396 3.016 2.558 3.859 3.463-.079.094-.1.127-.184.228-1.356 1.646-3.382 4.005-5.884 6.865-5.003 5.716-11.935 13.44-19.56 21.758-30.552 33.333-31.721 35.614-41.42 81.398-6.982 32.961-7.735 80.66-1.05 104.785 7.058 25.462 18.746 45.284 35.89 59.516 17.142 14.234 39.515 22.75 67.476 26.46 4.918.651 15.779.866 30.725.912s33.526-.152 52.173-.609c91.482-5.765 211.827-4.444 284.84.407 55.875 3.713 63.128 1.642 84.96-2.896 54.684-11.37 88.826-40.787 101.068-87.784 7.546-28.97 2.906-87.17-10.013-140.47-5.617-23.178-14.046-36.427-40.108-63.286l-18.897-19.473 9.45-7.246c31.67-24.291 40.415-32.244 51.222-46.62 3.111-4.141 5.936-8.107 8.025-11.232a79 79 0 0 0 2.552-4.03c.325-.563.601-1.059.85-1.589.25-.534.678-.614.678-2.7 0-2.381-1.021-3.204-1.59-3.823a10.4 10.4 0 0 0-1.653-1.428c-.095-.072-.245-.14-.343-.207.892.24 1.653.487 2.884.487 2.338 0 3.734-1.04 4.835-1.965 1.101-.926 2-1.981 2.92-3.207 1.842-2.454 3.713-5.626 5.708-9.442 3.99-7.628 8.397-17.78 12.56-28.608 4.162-10.827 8.06-22.307 10.94-32.512 2.885-10.206 4.816-18.914 4.816-25.309v-5.947a4.78 4.78 0 0 0-3.07-4.044 4.78 4.78 0 0 0 3.07-3.377v-12.547c0-7.912-2.231-25.54-4.951-40.854-2.67-15.046-6.693-39.53-8.91-54.256l-4.046-26.904a4.776 4.776 0 0 0-4.155-4.03c-15.487-2.433-37.518-2.3-53.155-2.328-2.641-.005 1.631 1.455 1.631 4.096v25.973c0 24.923.091 24.707-8.47 42.637-19.369 40.561-50.937 58.148-93.611 52.348-35.004-4.757-60.912-22.972-76.418-53.624-12.865-25.428-17.174-61.931-10.504-86.977l3.304-12.414a4.776 4.776 0 0 0-3.015-5.729c-107.445-33.565-199.357-90.998-279.82-169.649L743.795 587.6a4.776 4.776 0 0 0-6.069-.653m11.564 152.065c4.094-.107 8.256.012 12.476.375 22.381 1.92 34.859 7.073 49.117 20.104 26.606 24.316 35.46 66.682 21.588 107.23-12.531 36.632-47.624 66.277-85.764 72.467-24.212 3.927-38.714 1.906-59.39-8.21-27.431-13.422-41.536-35.923-43.104-69.322-3.203-68.28 43.67-121.04 105.077-122.646"
       id="path7" /><path
       fill="#f0d4e4"
       fill-rule="evenodd"
       d="M519.57 530.209c-27.976-1.126-55.097 10.218-75.36 31.416-3.932 4.114-6.413 6.938-7.823 10.798-1.408 3.862-1.628 8.174-1.878 15.485-.863 25.246 5.867 57.802 17.465 85.026 6.446 15.135 11.538 21.99 25.792 34.745 27.784 24.858 51.795 39.194 82.045 48.914 8.466 2.72 15.54 4.54 30.288 7.801 9.126 2.017 13.34 3.104 14.304 3.529 13.598 6.282 27.264-30.733 42.001-58.003 4.054-7.508 9.4-17.317 11.857-21.756 1.235-2.231 2.372-4.284 3.207-5.797l1.003-1.815c.243-.441.28-.506.423-.771.13-.245.313-.902.313-.904l-.008-1.104s-.2-.691-.348-.952a3 3 0 0 0-.46-.617c-.598-.62-.946-.68-1.182-.768-.47-.171-.633-.167-.812-.19-.357-.047-.623-.054-.948-.063a34 34 0 0 0-2.35.04c-3.513.172-10.586-1.297-17.3-3.638s-13.333-5.608-16.422-8.157c-3.616-2.982-4.61-5.849-4.284-7.15.22-.878 2.453-3.15 7.755-4.894a50 50 0 0 0 2.183-.77 13 13 0 0 0 .803-.334c.127-.061.248-.113.464-.245.111-.066.241-.14.49-.359.124-.11.285-.25.5-.558.106-.154.333-.632.333-.634l.214-1.115s-.025-.398-.05-.538a3 3 0 0 0-.223-.724c-.082-.182-.134-.268-.178-.343a4 4 0 0 0-.188-.286c-.096-.133-.178-.228-.268-.34a32 32 0 0 0-.67-.798 116 116 0 0 0-2.05-2.304c-4.333-4.766-6.202-8.885-6.202-10.627 0-.544 1.208-3.616 1.646-4.082 1.17-1.248 1.622-1.442 4.854-1.442 5.034 0 10.495 2.213 20.593 9.07a187 187 0 0 0 4.298 2.843 39 39 0 0 0 1.42.875c.192.112.35.207.565.312.107.052.207.107.466.195.13.045.285.105.666.15.19.021.44.05.854-.018.207-.034.75-.223.75-.223l.928-.636.634-.922s.185-.532.22-.732c.067-.403.046-.648.028-.834-.04-.37-.097-.522-.138-.651a3.4 3.4 0 0 0-.187-.485 11 11 0 0 0-.332-.648q-.375-.682-1.003-1.74a316 316 0 0 0-3.32-5.444 527 527 0 0 0-8.27-12.917c-33.605-50.367-81.075-82.017-127.109-83.871"
       id="path8" /><path
       fill="#db812e"
       d="M692.122 1172.09 677.515 1188c-15.15 16.505-38.72 39.007-44.134 51.788-.559 1.32 2.62-12.934 4.4-23.248 4.042-23.426 10.287-47.81 11.02-54.001l2.394-14.845c15.006 5.158 27.434 16.274 40.927 24.395m509.029-12.436 15.727 14.803c16.313 15.356 35.964 37.306 42.295 49.658.653 1.275-.404-13.914-2.931-24.071-5.738-23.069-11.398-46.953-12.581-53.073l-3.47-14.632c-14.59 6.238-26.176 18.232-39.04 27.313"
       id="path9" /><path
       fill="#f5dbc3"
       d="M909.796 1106.134q-3.42 3.164-6.777 7.274c-22.438 27.492-47.943 89.437-59.648 144.862-23.488 111.238-4.483 179.042 56.16 200.347 39.672 10.565 79.144 6.03 107.764-24.152 13.603-14.492 16.537-19.268 21.99-35.792 16.913-51.247 4.366-140.851-31.453-224.64-22.4-52.391-53.928-99.45-88.036-67.9"
       id="path10" /><path
       fill="#e8bcd5"
       fill-rule="evenodd"
       d="M1308.826 542.147a105.187 113.73 0 0 0-31.766 5.314c-11.066 6.65-21.703 15.046-32.13 25.305-5.205 5.119-12.051 12.825-17.682 19.618-2.815 3.397-5.315 6.554-7.157 9.067a50 50 0 0 0-2.25 3.291 14 14 0 0 0-.758 1.376c-.217.475-.515.844-.515 2.1 0 1.011.628 2.2 1.272 2.748a3.45 3.45 0 0 0 1.537.783c.751.188 1.135.147 1.528.125.785-.043 1.492-.175 2.349-.362 1.713-.375 3.878-1 6.271-1.813 4.978-1.692 10.714-3.07 15.83-3.886s9.759-1.007 11.86-.666c2.01.325 3.826 1.196 4.98 2.16.954.798 1.352 1.562 1.461 2.017l.01-.022v-.003h.004v-.004h.007v.004q.011.03.011.264a1 1 0 0 0-.032-.241c-.048.107-.175.514-.487.982-.518.772-1.39 1.808-2.465 2.873-2.149 2.135-5.135 4.423-7.85 5.885l-4.072 2.193a3.49 3.49 0 0 0-.652 5.695l5.35 4.71c2.594 2.283 3.683 4.202 3.888 5.234s.11 1.477-1.163 2.62c-2.553 2.284-10.547 4.98-22.81 5.877a146 146 0 0 0-7.22.687c-.947.12-1.724.234-2.377.362-.327.065-.607.12-.996.249-.196.064-.41.12-.826.365-.21.122-.482.282-.855.691s-.928 1.232-.928 2.381c0 1.364.285 1.414.392 1.631s.184.343.26.466c.156.248.304.459.483.702q.526.724 1.356 1.76a188 188 0 0 0 4.234 5.086c10.983 12.792 32.17 44.04 38.639 56.887 2.099 4.17 8.808 21.177 12.297 31.436.453 1.331 1.826 2.515 2.958 2.945 1.13.432 2.165.542 3.471.614 2.611.146 6.345 0 12.413-.341 36.476-2.042 59.384-9.394 81.726-26.455 8.908-6.803 19.328-17.259 28.632-28.289a105.187 113.73 0 0 0 6.96-40.688 105.187 113.73 0 0 0-105.186-113.73zM600.99 575.621a122.023 104.807 0 0 0-122.02 104.807 122.023 104.807 0 0 0 6.62 34.054c24.576 20.74 46.845 33.315 74.222 42.111 8.466 2.72 15.54 4.54 30.288 7.801 9.126 2.017 13.34 3.106 14.304 3.529 13.598 6.282 27.264-30.733 42.001-58.003 4.054-7.508 9.4-17.317 11.857-21.756 1.235-2.231 2.372-4.284 3.207-5.797l1.003-1.815c.243-.441.28-.506.423-.771.13-.245.313-.902.313-.904l-.008-1.104s-.2-.691-.348-.952a3 3 0 0 0-.46-.617c-.598-.62-.946-.68-1.182-.768-.47-.171-.633-.167-.812-.19-.357-.047-.623-.054-.948-.063a34 34 0 0 0-2.35.04c-3.513.172-10.586-1.297-17.3-3.638s-13.333-5.608-16.422-8.157c-3.616-2.982-4.61-5.849-4.284-7.15.22-.878 2.453-3.15 7.755-4.894a50 50 0 0 0 2.183-.77 13 13 0 0 0 .803-.334c.127-.061.248-.113.464-.245.111-.066.241-.14.49-.359.124-.11.285-.25.5-.558.106-.154.333-.632.333-.634l.214-1.115s-.025-.398-.05-.538a3 3 0 0 0-.223-.724c-.082-.182-.134-.268-.178-.343a4 4 0 0 0-.188-.286c-.096-.133-.178-.228-.268-.34a32 32 0 0 0-.67-.798 116 116 0 0 0-2.05-2.304c-4.333-4.766-6.202-8.885-6.202-10.627 0-.544 1.208-3.616 1.646-4.082 1.17-1.248 1.622-1.442 4.854-1.442 5.034 0 10.495 2.213 20.593 9.07a187 187 0 0 0 4.298 2.843 39 39 0 0 0 1.42.875c.192.112.35.207.565.312.107.052.207.107.466.195.13.045.285.105.666.15.19.021.44.05.854-.018.207-.034.75-.223.75-.223l.928-.636.634-.922s.185-.532.22-.732c.067-.403.046-.648.028-.834-.04-.37-.097-.522-.138-.651a3.4 3.4 0 0 0-.187-.485 11 11 0 0 0-.332-.648q-.375-.682-1.003-1.74a316 316 0 0 0-3.32-5.444 527 527 0 0 0-8.27-12.917c-9.426-14.126-19.942-26.782-31.211-37.721a122.023 104.807 0 0 0-14.477-.74z"
       id="path11" /><path
       fill="#9c591b"
       d="M1227.923 373.816c-7.377.193-14.482.7-20.858 1.538-84.192 10.984-150.583 70.04-140.838 160.948 1.615 5.092-2.508 4.052-4.92-1.24-2.052-4.509-13.021-11.459-18.084-11.459-1.405 0-3.036-1.927-3.629-4.283-3.248-12.949-49.287-8.46-49.287-11.146 0-.375.93-2.17 2.067-3.991 12.632-20.229-44.3-9.722-61.133-1.017-6.158 3.184-6.261 2.77-1.617-6.335 4.019-7.88 4.628-16.077 1.427-19.275-4.949-4.951-14.166-1.22-28.551 11.558-5.122 4.551-14.16 11.839-20.083 16.199-10.601 7.805-10.783 7.86-11.747 3.737-.807-3.448-2.299-4.283-8.455-4.735-8.652-.632-18.694 3.338-33.827 13.377-7.209 4.782-12.2 6.804-16.806 6.804-6.514 0-6.554-.047-7.706-8.924-2.19-16.858-6.508-30.374-15.671-49.082-13.76-28.1-54.71-85.34-158.985-81.648-29.86 1.057-47.491 5.485-74.178 18.634-54.723 26.955-99.73 81.669-115.701 140.653-4.412 16.295-4.828 20.566-4.755 49.082.072 28.14.555 33 4.88 49.082 6.548 24.344 22.827 56.945 37.582 75.257 26.892 33.376 63.136 55.058 103.933 62.172 8.445 1.473 16.16 2.677 17.148 2.677 5.128 0-5.465 73.713-21.801 151.708-4.962 17.741-6.404 35.682-6.934 53.953-.632 21.77 2.55 45.846 8.317 62.932 14.643 45.336 46.673 77.154 57.658 87.08l12.856 11.62c-2.406 19.854-4.987 39.711-10.734 58.952-16.25 58.223-34.12 118.698-20.49 179.59 6.097 22.274 15.46 39.437 28.807 52.808l11.634 11.659-9.333 9.313c-17.065 17.032-20.561 29.61-11.193 40.28 2.945 3.355 5.355 7.354 5.355 8.886 0 1.533 1.808 4.089 4.016 5.686 3.037 2.195 6.191 2.633 12.94 1.792 4.908-.612 13.16-1.025 18.338-.914 7.532.16 11.393-.926 19.285-5.442 10.87-6.218 36.38-24.58 43.936-31.621l4.82-4.485 54.971-.443c31.182-.252 69.268-1.674 87.996-3.287 40.842-3.52 69.149-3.561 132.075-.193 26.995 1.445 65.122 3.16 84.725 3.81l35.642 1.178 14.332 12.28c23.315 19.968 47.588 30.174 57.039 23.982 3.225-2.113 6.572-2.588 12.52-1.772 7.848 1.076 8.396.837 16.399-7.166 7.985-7.987 8.242-8.567 7.177-16.335-1.376-10.05-4.494-16.149-13.679-26.76l-7.209-8.327 6.74-4.898c11.933-8.672 26.864-26.493 33.38-39.84 9.005-18.444 11.937-31.245 12.982-56.674 1.33-70.052-22.864-136.93-37.035-204.781l-2.15-11.128 15.08-15.85c8.295-8.718 17.433-19.568 20.305-24.116 7.592-9.277 12.611-19.913 18.051-30.516 11.321-22.071 20.757-49.75 23.752-69.677 3.859-15.524 3.954-30.399 2.992-46.105-.61-9.98-3.477-29.392-6.369-43.135-12.922-61.411-12.054-94.22-16.395-122.04-.976-6.259-1.542-11.542-1.258-11.736.286-.196 8.949-2.515 19.256-5.153 65.947-16.879 107.258-60.224 121.893-127.899 5.094-23.552 5.403-72.612.596-94.594-17.178-78.565-75.747-142.941-150.332-165.24-14.482-4.33-39.033-6.545-61.16-5.965m22.966 4.062c53.93 3.425 105.803 32.209 141.704 78.628 30.673 39.665 44.386 76.866 46.267 125.55.352 9.08-.036 16.509-.857 16.509-.242 0-6.512-23.85-23.725-42.443-7.446-8.04-14.048-12.957-24.262-18.069-64.152-32.108-135.13 8.428-173.513 66.065-12.77 19.177-13.56 23.314-3.017 15.806 20.097-14.31 55.085-18.603 46.212-7.802-5.95 7.245-42.72 18.876-42.72 20.636 0 2.315 3.896 1.812 14.65-1.888 9.614-3.31 10.039-3.31 17.235-.09 4.058 1.82 7.38 4.13 7.38 5.137 0 4.052-9.028 7.39-22.888 8.457-18.64 1.436-17.488 4.9 1.262 3.789 14.183-.84 23.934-4.473 25.92-9.652 3.36-8.753-18.08-11.81-8.17-15.976 6.037-2.54 14.585-10.188 14.585-13.052 0-4.828-10.058-14.407-47.19.797-5.435 2.226 10.287-19.088 25.19-34.15 72.856-73.64 172.31-51.574 188.857 26.897 3.336 15.815 3.345 22.574.047 38.255-3.49 16.583-6.38 23.169-16.406 37.376-33.483 47.442-65.524 67.008-113.522 69.34-11.566.56-21.454 1.704-21.97 2.54-1.558 2.521 34.974 1.645 48.197-1.157 29.587-6.269 57.85-25.846 83.729-58.006l5.027-6.247-3.997 7.139c-6.758 12.069-22.816 31.01-33.442 39.448-20.365 16.165-45.598 27.575-74.93 33.875-13.468 2.893-14.756 3.534-13.857 6.879 3.41 12.686 5.312 70.787 17.907 133.406 3.577 17.784 6.43 37.731 6.722 46.973l.505 16.063c-1.053 3.073-.893 6.161-.893 9.356 0 10-5.46 34.323-11.831 52.723-.357 1.026-22.103 58.43-57.631 93.13-7.643 7.467-9.069 9.889-9.069 15.404 0 29.35 53.358 166.71 33.71 244.353-13.611 53.781-56.953 83.232-130.09 88.389-10.52.742-44.048-.297-88.347-2.736-185.317-10.206-278.484 11.75-345.359-1.632-55.21-11.048-84.858-45.696-91.032-106.386-3.592-35.32 1.473-70.702 18.784-131.242 7.555-26.9 15.906-54.361 15.135-82.576-15.82-16.223-32.207-32.103-45.82-50.277-30.006-42.86-35.46-85.466-29.142-136.98.241-1.922 3.982-23.313 8.847-47.5s10.472-55.219 12.458-68.962c3.925-27.12 7.425-63.421 6.294-65.252-.39-.629-6.658-1.646-13.93-2.26-32.752-2.768-66.185-18.772-93.66-44.829-20.124-19.085-23.68-25.57-6.24-11.374 25.739 20.95 50.135 33.293 82.463 41.728 20.044 5.23 37.692 7.563 34.954 4.616-1.008-1.083-9.656-3.579-19.215-5.545-45.202-9.301-76.399-25.59-111.902-58.42-10.716-9.91-14.385-14.797-19.849-26.446-13.052-27.818-21.05-67.178-18.954-93.286.901-11.209 1.212-11.808 11.38-22.13 13.514-13.721 33.456-23.85 52.696-26.768 51.26-7.773 109.42 27.332 147.724 89.17l9.167 14.802-9.122-6.276c-28.575-19.654-35.942-2.058-25.1 10.079l5.182 5.797-5.453 1.815c-12.563 4.189-9.615 14.143 6.386 21.56 12.144 5.632 27.707 8.905 30.247 6.363 2.122-2.12 2.929-1.793-15.483-6.225-33.244-8.001-32.433-24.466-.193-15.419 24.238 6.8 23.149 2.383-1.562-6.327-10.596-3.736-18.78-10.855-19.388-16.872-.842-8.331 12.97-8.424 33.872 12.662 5.137 5.18 9.915 8.84 10.62 8.135 1.849-1.848-8.85-22.823-20.572-40.331-47.104-70.36-116.096-95.8-164.783-78.974-12.476 4.31-34.906 18.812-39.716 25.68-2.784 3.974-2.813 3.976-2.813.248 0-2.07 1.964-10.54 4.36-18.818 16.617-57.336 60.145-108.569 114.33-134.565 30.29-14.53 44.093-17.592 78.53-17.435 34.442.157 146.567 9.921 162.09 129.28.972 7.471.663 8.378-3.767 11.014-5.99 3.564-27.818 22.374-28.628 24.671-1.422 4.034 4.334 1.06 12.83-6.627 11.558-10.459 23.974-18.458 28.652-18.458 2.94 0 2.056 1.569-4.81 8.54-10.53 10.691-11.269 16.36-.826 6.349 27.482-26.35 61.308-43.655 63.44-32.455.825 4.328-4.968 8.933-21.992 17.485-8.317 4.179-15.122 8.371-15.122 9.315 0 6.982 47.77-21.537 72.284-43.153 14.33-12.636 21.978-16.766 25.548-13.803 2.95 2.447 1.519 8.68-4.29 18.66-2.95 5.065-8.45 10.155-16.833 15.578-6.852 4.431-12.456 8.879-12.456 9.879 0 2.805 1.697 2.248 10.61-3.472 21.971-14.098 54.089-25.05 73.457-25.05 11.905 0 14.275 2.142 8.812 7.959-3.129 3.33-7.073 4.528-20.477 6.214-16.278 2.05-34.304 6.037-36.296 8.025-2.845 2.847 2.7 2.575 19.45-.946 25.704-5.408 70.79-6.698 80.98-.744l7.272 4.25-25.12.344c-27.255 1.306-38.372 2.918-38.372 5.561 0 1.068 5.516 1.16 14.724.247 31.873-3.163 60.312-.684 65.627 5.72 1.974 2.38.468 2.557-12.922 1.528-9.896-.76-15.563-.514-16.318.71-.75 1.214 3.727 2.315 12.684 3.116 7.614.682 17.954 2.597 22.976 4.257l9.133 3.02.976-24.184c5.999-148.71 154.478-145.634 179.764-144.028m105.844 592.54v3.028c2.373-.137 3.894-.343 4.147-.596 1.048-1.048.102-1.778-4.147-2.433M660.36 988.155c4.783 1.688 6.853 1.695 6.068 0zm.773 466.677 11.285 5.695c13.868 7.002 33.474 12.158 52.134 13.714 7.755.647 14.09 1.664 14.084 2.26-.027 2.12-34.984 27.095-45.805 32.724-9.26 4.82-11.821 5.447-16.064 3.964-7.008-2.45-7.615-9.554-1.502-17.57 5.265-6.901 3.435-10.244-2.272-4.15-4.959 5.293-7.759 13.098-6.497 18.12.807 3.222.143 4.33-3.122 5.205-14.201 3.801-19.775-1.382-14.978-13.938 1.589-4.162 4.876-9.434 7.305-11.715 4.414-4.148 5.887-8.883 2.762-8.883-2.472 0-12.592 12.79-13.77 17.402-1.335 5.233-3.427 5.078-7.1-.527-4.687-7.151-.875-16.532 12.42-30.568zm562.661.544 6.331 7.005c12.078 13.369 17.668 31.934 11.226 37.28-1.902 1.577-2.821.603-4.435-4.693-2.766-9.077-8.893-18.699-11.053-17.362-1.055.651-.052 4.105 2.488 8.563 5.297 9.304 7.078 18.136 4.148 20.568-1.226 1.018-4.807 1.262-8.233.56-4.996-1.02-6.485-2.444-8.437-8.083-2.927-8.46-9.292-18.956-11.493-18.956-2.746 0-1.86 3.088 2.908 10.113 3.209 4.73 4.39 8.561 4.016 13.02-.505 6-.89 6.338-7.67 6.782-10.917.718-29.724-9.599-48.598-26.663-4.15-3.752-6.96-6.825-6.247-6.829s8.574-1.187 17.466-2.629c18.89-3.062 37.553-8.547 49.266-14.473z"
       id="path12" /><path
       d="M1296.694 970.151c-30.086 1.767-92.88 11.718-99.415 15.757-6.002 3.708 1.223 3.46 21.752-.75 25.205-5.169 55.375-9.322 80.546-11.092 13.809-1.723 27.627-.916 41.482-.506 10.254.256 19.174-.064 19.822-.71 1.873-1.874-2.618-2.724-20.935-3.964-14.718-.2-28.816.418-43.252 1.265m-94.07 81.753c-1.106 0-1.716.882-1.36 1.956.36 1.075 10.885 5.988 23.8 9.572 24.985 6.934 72.544 23.83 103.312 56.42 9.837 10.42 15.321 9.16 15.321 9.16s-32.233-29.99-48.866-39.506c-9.263-6.544-18.824-10.744-29.12-15.42-13.494-6.176-59.013-22.182-63.086-22.182M503.642 967.13c-.384 1.165 11.06 1.563 32.88 1.15 38.985-2.223 77.835 1.199 114.475 16.009 12.916 5.829 18.003 6.718 14.532 2.536-5.842-7.04-48.256-19.195-75.464-21.63-6.612-.414-73.867-2.056-86.423 1.935m101.735 84.489c14.337-4.473 40.239-9.485 41.488-8.028 1.706 1.986-1.428 3.301-12.465 5.222-30.213 6.307-59.63 18.24-86.986 32.376-10.205 5.88-15.715 5.408-15.715 5.408s48.395-27.098 73.676-34.98"
       id="path13" /><path
       fill="#ba6b24"
       d="M841.886 982.11c-7.65.103-19.199 58.684 24.063 74.012 30.467 10.796 60.392-8.88 70.423-26.63 1.81-3.201 2.666-2.682 11.071 6.722 50.738 56.762 123.803-6.975 97.075-47.768-4.485-6.842-6.166-3.28-2.386 5.047 12.786 28.168-12.78 60.196-48.05 60.196-37.695 0-50.939-33.911-55.68-33.911-1.671 0-12.07 21.053-31.117 30.425-12.106 5.958-32.183 6.14-43.048.391-22-11.646-30.89-34.402-22.76-58.261 1.584-4.646 2.342-8.981 1.69-9.634-.406-.406-.84-.597-1.28-.59"
       id="path14" /><path
       fill="#e7aebd"
       fill-rule="evenodd"
       d="M935.372 938.337c-3.676-.389-7.289-2.261-11.256-5.836-.975-.878-5.803-5.635-5.72-5.635.032 0 .346-.051.697-.114 2.51-.446 7.773-.708 11.334-.566 4.84.193 9.184.796 13.396 1.864 3.811.964 6.685 2.179 8.043 3.4.207.185.376.382.376.434s-.142.137-.32.189c-1.063.316-3.462 1.59-5.74 3.05-1.593 1.017-2.532 1.54-3.613 2.002-2.438 1.046-4.873 1.457-7.197 1.21"
       id="path15" /><path
       fill="#ca8d51"
       d="M916.595 925.505a.9.9 0 0 0-.657.278c-2.044 2.044 1.162 6.493 8.517 11.82 4.12 2.985 9.415 5.428 11.77 5.428 5.03 0 13.196-3.93 16.539-7.958 4.126-4.972.631-4.967-6.895.018-15.706 10.22-25.585-9.585-29.276-9.586z"
       id="path16" /><path
       d="M1141.2 739.275c-40.687.01-76.098 29.346-87.533 72.738-10.751 40.8 4.792 132.204 90.775 143.414 90.954 11.86 148.12-103.993 71.65-181.206-24.17-24.403-50.48-34.953-74.893-34.946m-8.938 14.393c6.034-.057 12.145 1.106 18.19 3.707 34.745 14.946 55.808 73.353 30.123 113.96-5.14 8.124-22.985 30.87-59.68 26.807-25.934-2.87-46.077-17.016-53.127-37.302-16.158-46.498 22.25-106.765 64.494-107.172m90.004 94.853c5.979.102 11.772 3.682 13.284 9.704 1.305 5.199-2.695 14.203-7.05 15.876-14.36 5.51-27.165-11.59-16.317-21.784 2.838-2.666 6.494-3.859 10.083-3.796m-32.273 41.402c14.423.571 28.7 12.48 23.595 30.966-2.438 8.83-10.23 18.478-17.312 21.437-6.59 2.754-8.74 2.985-13.315.8-11.915-5.692-18.093-11.292-18.27-24.957-.263-20.423 12.575-28.748 25.302-28.246M752.928 735.318c-30.898.045-56.492 10.729-78.549 32.787-20.054 20.054-29.777 41.391-34.054 74.73-12.24 95.442 98.959 135.598 167.825 68.07 50.663-49.68 38.687-122.466 7.605-152.113-17.63-16.817-35.553-23.513-62.827-23.474m11.009 21.523c15.883-.13 31.512 6.033 42.118 17.263 47.433 50.224 13.573 137.64-62.267 117.764-28.36-9.468-44.334-40.461-39.28-76.21 5.783-40.9 32.959-58.603 59.429-58.817m-95.016 80.495q.763-.043 1.523 0c2.702.148 5.336 1.092 7.498 3.048 4.74 4.29 4.753 14.032.025 18.762-7.068 7.068-19.965 2.838-22.366-7.336-1.813-7.682 5.698-14.075 13.32-14.474m23.47 38.18c10.938.016 21.641 7.448 23.938 21.043 3.113 18.424-15.706 36.262-34.086 27.952-12.315-5.569-18.235-22.887-11.958-34.988 4.95-9.549 13.6-14.02 22.107-14.007"
       id="path17" /><path
       fill="#c87222"
       fill-rule="evenodd"
       d="M371.973 48.893c-6.424 7.925-6.848 16.82-4.9 24.97.962 3.913 2.439 7.69 4.019 11.339l-1.858 2.049-1.736-1.004c-.407-4.138-.995-8.332-2.002-11.992-2.298-8.144-7.036-15.607-16.355-19.78-3.362 9.045-1.132 17.84 3.287 25.149 1.767 2.88 3.923 5.645 6.191 8.275l-1.57-.554-1.055 2.744c-1.448-3.376-3.083-6.698-4.982-9.637-4.706-7.177-11.616-13.094-21.785-14.709-.496 9.589 4.167 17.534 10.56 23.447 2.793 2.55 6.037 4.866 9.352 6.985l-.07.378-4.27.127c-1.93-2.254-3.98-4.414-6.162-6.32-6.609-5.697-15.248-9.634-25.34-8.53 2.313 9.632 8.996 15.823 16.883 19.82 2.774 1.383 5.85 2.563 8.996 3.603l.554 2.926-.917.388c-3.01-2.043-6.16-3.975-9.413-5.504-7.995-3.697-17.322-5.285-26.957-1.24 5.026 8.741 13.335 12.702 22.2 14.23 2.911.484 6.147.727 9.43.842l-1.61 1.065.998 1.601c-2.978-.814-6.016-1.516-9.115-1.947-8.844-1.174-18.376.014-26.584 7.139l.113.103c7.963 6.873 17.417 7.843 26.266 6.485 3.402-.544 6.74-1.411 10.01-2.391l.851.928-1.412 1.992c-3.198.187-6.349.497-9.197 1.03-8.927 1.722-17.379 5.875-22.702 14.777 9.544 3.87 18.959 2.066 27.092-1.83 2.057-1.002 4.077-2.158 6.051-3.399l2.754 1.361c-2.814 1.019-5.557 2.155-8.065 3.446-8.033 4.197-14.934 10.59-17.558 20.382 10.125.9 18.934-3.276 25.738-9.181a61 61 0 0 0 4.5-4.426l-.125 2 .961.086a59 59 0 0 0-4.21 3.496c-6.595 6.12-11.517 14.276-11.296 24.01 10.304-1.867 17.429-8.032 22.356-15.414 1.267-1.926 2.43-4.004 3.506-6.15l.859 2.704a57 57 0 0 0-2.96 4.254c-4.64 7.512-7.122 16.506-3.968 25.653 9.52-4.462 14.485-12.168 16.998-20.492.618-2.095 1.106-4.354 1.506-6.674v-.002l1.027-.514 1.092 1.357c-.784 2.03-1.485 4.096-2.045 6.198-2.157 8.323-1.943 17.375 4.358 25.326 3.045-2.62 5.31-5.609 6.877-8.805 2.431-5.062 3.094-10.376 2.845-15.584a56 56 0 0 0-.584-5.445l2.121-2.338c-.107 2.666-.106 5.269.092 7.63.777 8.564 4.095 16.737 12.649 22.06 4.999-8.834 4.131-17.747 1.015-25.561a53 53 0 0 0-2.271-4.82l.941.332.733-1.907c.617 2.007 1.31 3.952 2.1 5.762 3.437 7.739 9.185 14.45 18.81 17.242 1.951-9.434-1.384-17.842-6.672-24.474-1.66-2.054-3.55-4.012-5.543-5.875l3.129-.094c1.16 1.741 2.387 3.412 3.691 4.955 5.524 6.445 13.23 11.363 22.989 11.54-.81-9.49-6.303-16.658-13.22-21.618-2.566-1.816-5.453-3.443-8.423-4.92h-.002l-.273-1.447 2.22-.938c2.354 2.183 4.834 4.258 7.436 6.014 7.086 4.716 15.839 7.438 25.25 4.959-3.458-9.094-10.615-14.188-18.676-17.024-2.934-1.01-6.207-1.785-9.533-2.414l.57-.377-2.39-3.841c3.838 1.976 7.849 3.875 11.894 5.16 8.105 2.517 17.142 2.827 25.654-2.506-5.928-7.836-14.383-10.492-23.09-10.713-4.103-.078-8.964.444-13.61 1.068l-.995-1.086 2.537-3.58c4.17.444 8.426.761 12.088.614 8.712-.405 17.198-3.237 23.205-11.184-8.437-5.132-17.455-4.63-25.576-1.951-4.023 1.355-8.026 3.312-11.863 5.348l.638-1.39-3.773-1.866c4.945-.865 10.086-1.95 14.478-3.547 8.08-2.995 15.279-8.21 18.829-17.305-9.336-2.254-18.081.631-25.206 5.46-3.763 2.584-7.29 5.819-10.554 9.083l-2.205-.621.193-3.098c4.07-1.937 8.14-4.116 11.633-6.625 6.957-5.064 12.519-12.272 13.45-21.654-9.691.383-17.418 5.399-23.013 11.885-2.8 3.29-5.27 7.15-7.484 11.015L403.078 93l-3.639.345c3.627-3.046 7.241-6.362 10.164-9.947 5.363-6.664 8.805-15.021 7.018-24.252-9.583 2.947-15.4 9.672-18.955 17.371-1.767 3.894-3.094 8.397-4.193 12.81l-2.196.632-1.418-2.645c2.37-3.651 4.668-7.485 6.327-11.39 3.238-7.766 4.262-16.546-.522-25.098-8.57 5.397-12.026 13.492-12.977 21.934-.42 3.973-.287 8.629-.017 13.107l-1.803-2.242-2.02 1.533c.988-4.1 1.903-8.295 2.225-12.514.367-5.265-.216-10.614-2.668-15.64-1.477-2.96-3.595-5.711-6.431-8.11"
       style="font-variation-settings:normal"
       transform="translate(426.31 366.541)scale(1.7848)"
       id="path18" /><path
       fill="#ffc84e"
       fill-rule="evenodd"
       stroke="#8a5f00"
       stroke-width=".579"
       d="M-267.614-34.51c-3.433-4.538-8.328-6.076-13.37-6.204-4.504-.086-10.582 1.077-14.412 1.527 3.832 1.852 8.343 4.671 12.928 6.128 4.693 1.457 9.925 1.636 14.854-1.452zm-4.354 12.16c-2.002-5.265-6.146-8.215-10.813-9.857-4.39-1.513-10.092-2.105-14.248-2.716 2.95 3.017 6.448 7.006 10.44 9.702 4.104 2.73 9.172 4.307 14.621 2.871zm-7.52 10.393c-.47-5.495-3.65-9.645-7.654-12.517-3.884-2.747-9.03-4.743-13.003-6.418 1.945 3.759 4.278 8.625 7.346 12.254 3.199 3.731 7.66 6.58 13.311 6.681zm-10.188 8.077c1.13-5.463-.8-10.332-3.862-14.172-3.013-3.727-7.344-6.905-10.655-9.586.855 4.049 1.78 9.542 3.627 13.774 1.99 4.48 5.317 8.367 10.89 9.984zm-12.348 5.183c2.894-5.114 2.392-10.276.588-14.8-1.794-4.412-4.99-8.629-7.179-12.218-.267 3.843-1.108 9.786-.733 14.245.45 4.958 2.37 9.69 7.324 12.773zm-13.897 1.437c1.764-1.517 3.074-3.247 3.982-5.098 1.408-2.931 1.792-6.008 1.648-9.024-.164-3.009-.839-5.981-1.48-8.853-.429-1.873-.8-3.456-1.123-5.158-1.689 4.16-4.267 8.648-5.55 13.468-1.25 4.82-1.125 10.061 2.523 14.665zM-329.2-.27c5.512-2.584 8.388-7.046 9.842-11.866 1.315-4.458 1.623-10.205 2.057-14.257-2.958 3.22-6.958 7.05-9.602 11.27-2.686 4.348-4.123 9.556-2.297 14.852zm-11.46-6.397c5.965-1.081 10.091-4.65 12.944-8.925 2.692-4.089 4.566-9.375 6.135-13.403-3.844 2.277-8.83 5.025-12.54 8.425-3.818 3.545-6.668 8.267-6.54 13.903zm-9.015-9.256c5.863.52 10.963-1.897 14.903-5.316 3.795-3.335 6.964-7.91 9.602-11.429-4.253 1.23-9.926 2.673-14.338 4.944-4.652 2.43-8.648 6.131-10.167 11.801zm-5.948-11.557c5.526 2.241 10.977 1.197 15.686-1.06 4.575-2.225 8.84-5.782 12.438-8.333-4.146.126-10.273-.042-14.98.837-5.168.997-10.062 3.402-13.144 8.556zm-2.275-13.273.065.06c4.61 3.98 10.085 4.541 15.208 3.754 5.122-.818 9.996-2.901 14.552-4.111l.065-.018c-4.541-1.113-9.378-3.107-14.498-3.818-5.121-.68-10.64.007-15.392 4.133zm2.71-13.277c2.91 5.061 7.721 7.355 12.854 8.24 4.679.777 10.802.478 14.944.515-3.526-2.47-7.688-5.92-12.19-8.037-4.629-2.14-10.03-3.06-15.608-.718zm6.284-11.576c1.34 5.577 5.21 9.162 9.776 11.475 4.338 2.164 9.958 3.477 14.173 4.608-2.544-3.444-5.586-7.92-9.276-11.144-3.827-3.3-8.829-5.578-14.673-4.939zm9.224-9.315c-.287 5.553 2.413 10.153 6.115 13.577 3.605 3.29 8.502 5.909 12.278 8.088-1.467-3.966-3.205-9.165-5.78-13.148-2.724-4.156-6.725-7.581-12.613-8.517zm11.53-6.524c-1.947 5.237-.655 10.33 1.904 14.561 2.523 4.113 6.413 7.82 9.284 10.952-.341-4.007-.516-9.69-1.718-14.06-1.33-4.715-4.074-9.037-9.47-11.453zm13.22-3.232c-3.719 4.589-3.964 9.739-2.837 14.458 1.164 4.73 3.627 9.114 5.215 13.205.343-1.618.73-3.144 1.177-4.918.716-2.922 1.483-5.948 1.715-8.994.213-3.048-.125-6.145-1.545-9.055-.855-1.714-2.082-3.307-3.724-4.696zm13.718 1.119c-4.962 3.125-6.963 7.812-7.514 12.7-.466 4.407.246 10.263.432 14.071 2.255-3.604 5.518-7.845 7.385-12.24 1.875-4.496 2.467-9.58-.303-14.531zm12.135 4.817c-5.549 1.707-8.917 5.6-10.975 10.058-1.914 4.22-2.94 9.676-3.87 13.714 3.352-2.732 7.722-5.977 10.782-9.73 3.105-3.858 5.098-8.697 4.063-14.042zm9.987 7.725c-5.61.221-10.085 3.126-13.324 6.882-3.115 3.658-5.523 8.534-7.53 12.312 3.992-1.752 9.156-3.847 13.067-6.656 4.028-2.932 7.248-7.106 7.787-12.538zm7.348 10.107c-5.406-1.305-10.47.365-14.595 3.16-4.02 2.762-7.573 6.804-10.571 9.873 4.158-.7 9.861-1.413 14.264-3.013 4.679-1.734 8.847-4.754 10.902-10.02zm4.208 11.992c-4.886-2.971-10.107-2.682-14.81-1.13-4.598 1.549-9.15 4.457-13.012 6.387 3.817.366 9.88 1.4 14.385 1.219 5.045-.234 9.958-1.875 13.437-6.476z"
       style="font-variation-settings:normal"
       transform="translate(2060.97 695.743)scale(3.08247)"
       id="path19" /><path
       fill="#563c31"
       fill-rule="evenodd"
       d="m1160.335 608.939 1.737 9.159-9.107 1.989.024 9.324-9.319.28-1.689 9.168-9.21-1.436-3.346 8.702-8.79-3.104-4.887 7.939-8.071-4.666-6.262 6.905-7.077-6.069-7.424 5.636-5.84-7.265-8.334 4.176-4.406-8.216-8.959 2.575-2.82-8.886-9.28.884-1.141-9.252-9.285-.835.58-9.304-8.973-2.528 2.278-9.04-8.355-4.135 3.902-8.466-7.454-5.597 5.39-7.606-6.297-6.874 6.696-6.485-4.93-7.913 7.775-5.144-3.388-8.685 8.587-3.628-1.738-9.159 9.109-1.989-.024-9.324 9.317-.28 1.69-9.168 9.211 1.436 3.344-8.702 8.79 3.104 4.887-7.939 8.072 4.666 6.263-6.905 7.075 6.069 7.425-5.636 5.839 7.265 8.335-4.176 4.405 8.215 8.96-2.574 2.82 8.886 9.281-.884 1.14 9.252 9.284.835-.58 9.306 8.973 2.526-2.278 9.04 8.355 4.135-3.902 8.466 7.454 5.597-5.39 7.606 6.299 6.874-6.698 6.485 4.93 7.913-7.775 5.144 3.39 8.685z"
       id="path20" /><path
       fill="#341b12"
       fill-rule="evenodd"
       d="m1143.657 600.005 1.284 6.765-6.728 1.47.018 6.887-6.884.208-1.248 6.772-6.804-1.06-2.471 6.428-6.493-2.293-3.611 5.864-5.963-3.446-4.625 5.1-5.228-4.483-5.485 4.163-4.313-5.366-6.157 3.085-3.255-6.07-6.618 1.903-2.084-6.565-6.855.653-.843-6.834-6.858-.618.427-6.872-6.628-1.868 1.683-6.678-6.172-3.054 2.882-6.254-5.506-4.136 3.982-5.618-4.652-5.078 4.947-4.79-3.642-5.846 5.744-3.8-2.503-6.416 6.343-2.68-1.284-6.766 6.729-1.469-.018-6.888 6.883-.208 1.248-6.772 6.805 1.061 2.47-6.428 6.493 2.293 3.611-5.865 5.962 3.447 4.627-5.1 5.227 4.482 5.484-4.163 4.314 5.367 6.157-3.085 3.254 6.069 6.62-1.902 2.083 6.564 6.856-.653.841 6.835 6.86.617-.429 6.874 6.629 1.867-1.684 6.677 6.173 3.055-2.883 6.254 5.507 4.135-3.983 5.619 4.654 5.077-4.948 4.791 3.642 5.845-5.744 3.8 2.505 6.416z"
       id="path21" /><path
       fill="#d4c8bc"
       d="M909.796 1091.205q-3.42 3.169-6.777 7.277c-22.438 27.49-47.943 89.436-59.648 144.86-23.488 111.24-4.483 179.044 56.16 200.349 39.672 10.562 79.144 6.03 107.764-24.152 13.603-14.492 16.537-19.269 21.99-35.792 16.913-51.247 4.366-140.851-31.453-224.64-22.4-52.392-53.928-99.45-88.036-67.902"
       id="path22" /><path
       fill="#43403a"
       d="M909.796 1091.205q-3.42 3.169-6.777 7.277c-22.438 27.49-47.943 89.436-59.648 144.86-23.488 111.24-4.483 179.044 56.16 200.349 18.668 6.56 53.4 5.983 74.186-1.228 16.336-5.667 19.235-7.644 33.578-22.924 13.603-14.492 16.537-19.269 21.99-35.792 16.913-51.247 4.366-140.851-31.453-224.64-10.263-24.003-28.968-55.472-38.998-65.603-16.176-16.345-33.076-17.062-49.038-2.299m13.897 9.856c.326-.325.592-.382.815-.13.825.937-.708 16.925-3.409 35.528-9.552 65.757-15.85 176.192-12.982 227.534 1.046 18.694 4.403 41.186 7.464 49.983 5.94 17.068 5.386 23.243-1.132 12.642-22.524-36.637-25.483-152.588-6.675-261.506 5.462-31.617 12.822-60.85 15.919-64.05m11.2 1.779c.303-.364.88 3.066 1.69 8.174 8.824 55.548 14.257 208.525 9.93 279.6-1.19 19.561-2.636 36.067-3.216 36.675s-1.2-27.266-1.374-61.937-1.955-106.428-3.957-159.46c-2.954-78.304-3.825-102.155-3.074-103.052m-40.604 41.725c.164-.161.314-.234.432-.234.921.003-.928 8.15-4.109 18.103-25.726 80.52-33.72 174.173-19.052 223.209 2.691 8.995 7.416 20.448 10.494 25.453 4.534 7.368 4.61 8.281.41 4.812-16.937-13.998-25.504-30.756-30.116-58.92-6.034-36.856.518-93.972 17.02-148.299 8.103-26.683 21.5-60.976 24.921-64.124m46.985-40.342c1.169-1.36 4.414 4.872 7.985 17.851 26.094 94.809 33.603 239.924 15.035 290.507-4.737 12.906-8.756 19.695-10.573 17.866-.42-.421 1.278-8.003 3.771-16.845 9.06-32.127 6.827-120.622-5.779-229.054-3.15-27.088-7.289-56.685-9.197-65.765-1.86-8.847-2.07-13.598-1.242-14.56m28.896 36.354c.88-1.097 7.876 13.104 17.573 37.396 29.819 74.692 40.585 160.394 25.42 202.35-4.823 13.344-9.153 20.543-16.987 28.233l-10.516 10.325 6.256-12.76c10.225-20.856 14.1-40.659 14.33-73.21.348-49.439-12.736-123.69-30.547-173.343-4.437-12.369-6.048-18.343-5.53-18.99"
       id="path23" /><path
       fill="#3a3833"
       d="M1017.097 1211.715c-4.503 7.448-10.027 11.82-11.395 21.382a473 473 0 0 1 8.13 35.698c5.324 8.658 11.67 9.031 19.65 15.92-3.269-26.977-6.95-43.62-16.387-73"
       id="path24" /><path
       fill="#f5c4ac"
       fill-rule="evenodd"
       d="M1075.364 1201.834c-20.41-9.821-47.663-.9-56.9 18.903-1.368 2.93-2.204 5.518-2.258 8.44s.605 5.987 1.793 10.307c.785 2.85 1.09 7.781.777 9.556-1.325 7.565 3.476 15.888 11.123 21.673 2.478 1.877 6.25 5.76 7.712 7.87 1.868 2.695 3.867 5.297 5.664 6.754 6.921 5.602 16.888 7.181 26.297 5.859s18.479-5.576 23.397-12.885c2.265-3.364 3.94-8.53 5.236-14.348 1.295-5.817 2.097-12.174 1.989-17.562-.367-18.284-10.868-37.851-24.83-44.567"
       id="path25" /><path
       fill="#9c591b"
       d="M1076.407 1199.447c-9.402-4.957-20.55-5.531-33.088-1.54-13.057 4.159-21.409 10.726-26.058 20.494l-.181.388c-6.028 10.853-.726 21.137-.575 32.275.02 6.785 1.29 10.441 5.227 15.042 2.862 3.343 6.69 6.79 8.504 7.663 1.814.87 3.715 2.726 4.225 4.128s3.281 4.87 6.155 7.706c11.533 11.375 33.91 11.866 47.776 1.047 13.371-10.434 18.643-39.872 10.634-59.381-5.556-13.528-13.215-22.866-22.617-27.823m21.987 45.163c.46 13.221-3.62 28.842-9.266 35.463-4.908 5.76-16.818 10.123-26.526 9.722-9.96-.412-19.232-5.078-22.348-11.246-1.41-2.787-5.41-6.995-8.89-9.35-7.357-4.98-12.717-15.13-10.5-19.883 3.13-6.709-6.554-15.504-.782-27.877 6.757-14.485 26.517-24.026 44.278-21.38 25.506 3.795 33.68 34.36 34.034 44.551"
       id="path26" /><path
       fill="#3a3833"
       d="M852.78 1211.283c4.504 7.45 9.053 10.077 10.42 19.638-3.221 12.012-5.697 26.048-7.883 37.767-5.324 8.656-10.94 8.71-18.922 15.595 3.268-26.977 6.95-43.62 16.386-73"
       id="path27" /><path
       fill="#f5c4ac"
       fill-rule="evenodd"
       d="M798.607 1201.437c20.41-9.822 47.662-.9 56.9 18.902 1.368 2.93 2.205 5.518 2.258 8.44s-.604 5.987-1.793 10.307c-.784 2.85-1.089 7.781-.777 9.556 1.325 7.565-3.475 15.888-11.122 21.673-2.478 1.877-6.25 5.76-7.712 7.87-1.868 2.695-3.866 5.297-5.664 6.755-6.921 5.601-16.888 7.181-26.297 5.859s-18.479-5.575-23.397-12.884c-2.265-3.365-3.94-8.531-5.236-14.349-1.296-5.816-2.097-12.174-1.99-17.561.367-18.284 10.868-37.852 24.83-44.568"
       id="path28" /><path
       fill="#9c591b"
       d="M797.564 1199.05c9.402-4.957 20.549-5.532 33.088-1.54 13.057 4.158 21.409 10.725 26.058 20.493l.181.388c6.028 10.853.726 21.137.576 32.276-.02 6.784-1.29 10.44-5.227 15.04-2.862 3.345-6.69 6.792-8.504 7.664-1.814.87-3.715 2.726-4.225 4.128s-3.281 4.871-6.155 7.707c-11.533 11.375-33.909 11.866-47.776 1.047-13.371-10.433-18.644-39.871-10.635-59.38 5.555-13.529 13.215-22.867 22.617-27.824m-21.987 45.164c-.46 13.22 3.621 28.841 9.267 35.462 4.908 5.76 16.819 10.123 26.526 9.722 9.96-.412 19.232-5.078 22.348-11.246 1.41-2.787 5.41-6.995 8.89-9.351 7.357-4.98 12.717-15.13 10.5-19.882-3.13-6.71 6.553-15.505.78-27.878-6.757-14.484-26.516-24.025-44.278-21.38-25.506 3.797-33.679 34.361-34.033 44.553"
       id="path29" /></g><text
     xml:space="preserve"
     x="898.653"
     y="290.149"
     fill="#fff"
     fill-rule="evenodd"
     stroke-width="2.339"
     font-family="Magic Bubble"
     font-size="224.53"
     style="line-height:1;-inkscape-font-specification:&quot;Magic Bubble&quot;;text-align:center"
     text-anchor="middle"
     id="text29"><tspan
       x="898.653"
       y="290.149"
       id="tspan29">TO EVA</tspan></text><text
     xml:space="preserve"
     x="909.378"
     y="1626.871"
     fill="#fff"
     fill-rule="evenodd"
     stroke-width="1.597"
     font-family="Magic Bubble"
     font-size="153.263"
     style="line-height:1;-inkscape-font-specification:&quot;Magic Bubble&quot;;text-align:center"
     text-anchor="middle"
     id="text32"><tspan
       x="909.378"
       y="1626.871"
       id="tspan30">A sunflower seed</tspan><tspan
       x="909.378"
       y="1780.134"
       id="tspan31">for the girl</tspan><tspan
       x="909.378"
       y="1934.894"
       id="tspan32">who brightens my day!</tspan></text></svg>
