<svg xmlns="http://www.w3.org/2000/svg" xmlns:xlink="http://www.w3.org/1999/xlink" xml:space="preserve" width="3000" height="3600"><defs><linearGradient id="o"><stop offset="0" style="stop-color:#f9f0c1;stop-opacity:.72808242"/><stop offset="1" style="stop-color:#f9f0c1;stop-opacity:0"/></linearGradient><linearGradient id="n"><stop offset="0" style="stop-color:#f5e595;stop-opacity:.53333336"/><stop offset="1" style="stop-color:#f5e595;stop-opacity:0"/></linearGradient><linearGradient id="m"><stop offset="0" style="stop-color:#f7ecb0;stop-opacity:1"/><stop offset="1" style="stop-color:#f7ecb0;stop-opacity:0"/></linearGradient><linearGradient id="l"><stop offset="0" style="stop-color:#f5e595;stop-opacity:.53333336"/><stop offset="1" style="stop-color:#f5e595;stop-opacity:0"/></linearGradient><linearGradient id="k"><stop offset="0" style="stop-color:#f5e595;stop-opacity:.53333336"/><stop offset="1" style="stop-color:#f5e595;stop-opacity:0"/></linearGradient><linearGradient id="j"><stop offset="0" style="stop-color:#f5e595;stop-opacity:.53305084"/><stop offset="1" style="stop-color:#f5e595;stop-opacity:0"/></linearGradient><linearGradient id="i"><stop offset="0" style="stop-color:#ebbec6;stop-opacity:1"/><stop offset="1" style="stop-color:#e09aa5;stop-opacity:1"/></linearGradient><linearGradient id="h"><stop offset="0" style="stop-color:#9e4b3f;stop-opacity:1"/><stop offset="1" style="stop-color:#bc6458;stop-opacity:1"/></linearGradient><linearGradient id="g"><stop offset="0" style="stop-color:#feacb7;stop-opacity:.77894425"/><stop offset="1" style="stop-color:#b4031b;stop-opacity:0"/></linearGradient><linearGradient id="f"><stop offset="0" style="stop-color:#1c1d16;stop-opacity:1"/><stop offset="1" style="stop-color:#161712;stop-opacity:1"/></linearGradient><linearGradient id="e"><stop offset="0" style="stop-color:#f2f2f5;stop-opacity:1"/><stop offset="1" style="stop-color:#c5c1d0;stop-opacity:1"/></linearGradient><linearGradient id="d"><stop offset="0" style="stop-color:#60605a;stop-opacity:.39696375"/><stop offset="1" style="stop-color:#60605a;stop-opacity:0"/></linearGradient><linearGradient id="c"><stop offset="0" style="stop-color:#a8a8a2;stop-opacity:1"/><stop offset="1" style="stop-color:#1f1f1d;stop-opacity:0"/></linearGradient><linearGradient id="b"><stop offset="0" style="stop-color:#f5e595;stop-opacity:1"/><stop offset=".5" style="stop-color:#f5e595;stop-opacity:1"/><stop offset="1" style="stop-color:#faf3ce;stop-opacity:1"/></linearGradient><linearGradient id="a"><stop offset="0" style="stop-color:#e1c353;stop-opacity:1"/><stop offset="1" style="stop-color:#e1c353;stop-opacity:0"/></linearGradient><linearGradient xlink:href="#a" id="t" x1="1081.787" x2="1070.512" y1="474.396" y2="487.975" gradientUnits="userSpaceOnUse"/><linearGradient xlink:href="#a" id="u" x1="1081.787" x2="1070.512" y1="474.396" y2="487.975" gradientTransform="matrix(-1 0 0 1 1600 0)" gradientUnits="userSpaceOnUse"/><linearGradient xlink:href="#b" id="q" x1="1073.057" x2="1248.255" y1="483.106" y2="232.052" gradientUnits="userSpaceOnUse"/><linearGradient xlink:href="#c" id="w" x1="1266.648" x2="1238.255" y1="135.967" y2="177.747" gradientUnits="userSpaceOnUse"/><linearGradient xlink:href="#d" id="v" x1="1268.398" x2="1238.697" y1="130.217" y2="178.757" gradientUnits="userSpaceOnUse"/><linearGradient xlink:href="#d" id="x" x1="1268.398" x2="1238.697" y1="130.217" y2="178.757" gradientUnits="userSpaceOnUse"/><linearGradient xlink:href="#c" id="y" x1="1266.648" x2="1238.255" y1="135.967" y2="177.747" gradientUnits="userSpaceOnUse"/><linearGradient xlink:href="#b" id="p" x1="1073.057" x2="1248.255" y1="483.106" y2="232.052" gradientTransform="matrix(-1 0 0 1 1600 0)" gradientUnits="userSpaceOnUse"/><linearGradient xlink:href="#e" id="A" x1="665.832" x2="641.718" y1="609.577" y2="641.122" gradientUnits="userSpaceOnUse"/><linearGradient xlink:href="#f" id="z" x1="667.657" x2="599.045" y1="598.412" y2="693.525" gradientUnits="userSpaceOnUse"/><linearGradient xlink:href="#g" id="C" x1="986.06" x2="1021.913" y1="743.168" y2="782.894" gradientUnits="userSpaceOnUse"/><linearGradient xlink:href="#h" id="r" x1="798.393" x2="798.393" y1="735.189" y2="807.619" gradientUnits="userSpaceOnUse"/><linearGradient xlink:href="#i" id="s" x1="798.394" x2="798.394" y1="800" y2="915.696" gradientUnits="userSpaceOnUse"/><linearGradient xlink:href="#j" id="D" x1="800" x2="800" y1="392.373" y2="441.6" gradientUnits="userSpaceOnUse"/><linearGradient xlink:href="#k" id="E" x1="800" x2="800" y1="1483.48" y2="1309.658" gradientUnits="userSpaceOnUse"/><linearGradient xlink:href="#g" id="F" x1="986.06" x2="1021.913" y1="743.168" y2="782.894" gradientUnits="userSpaceOnUse"/><linearGradient xlink:href="#g" id="G" x1="986.06" x2="1021.913" y1="743.168" y2="782.894" gradientUnits="userSpaceOnUse"/><linearGradient xlink:href="#l" id="H" x1="1292.723" x2="1187.643" y1="710.635" y2="747.388" gradientUnits="userSpaceOnUse"/><linearGradient xlink:href="#l" id="I" x1="1292.723" x2="1187.643" y1="710.635" y2="747.388" gradientTransform="matrix(-1 0 0 1 1600 0)" gradientUnits="userSpaceOnUse"/><linearGradient xlink:href="#m" id="J" x1="923.268" x2="1026.92" y1="1177.131" y2="1093.404" gradientUnits="userSpaceOnUse"/><linearGradient xlink:href="#m" id="K" x1="923.268" x2="1026.92" y1="1177.131" y2="1093.404" gradientUnits="userSpaceOnUse"/><linearGradient xlink:href="#n" id="L" x1="1410.318" x2="1157.957" y1="1327.188" y2="1220.192" gradientUnits="userSpaceOnUse"/><linearGradient xlink:href="#n" id="M" x1="1410.318" x2="1157.957" y1="1327.188" y2="1220.192" gradientTransform="matrix(-1 0 0 1 1600 0)" gradientUnits="userSpaceOnUse"/><linearGradient xlink:href="#g" id="B" x1="986.06" x2="1021.913" y1="743.168" y2="782.894" gradientUnits="userSpaceOnUse"/><radialGradient xlink:href="#o" id="N" cx="800" cy="724.191" r="210" fx="800" fy="724.191" gradientTransform="translate(-80.75 -73.098)scale(1.10094)" gradientUnits="userSpaceOnUse"/></defs><g transform="translate(55.615 343.239)scale(1.80548)"><path d="M331.602 130.217c42.63 2.63 86.208 25.941 114.248 57.95C565.838 318.658 582.902 446.19 590.684 446.19c.785 0-130.835 106.17-131.037 105.695-8.206-19.236-114.564-134.64-114.467-196.601 0-1.232-2.383-8.36-5.297-15.838-17.032-43.703-51.374-209.393-8.281-209.229" style="display:inline;fill:url(#p);fill-opacity:1"/><path d="M1268.398 130.217c-42.63 2.63-86.208 25.941-114.248 57.95-119.988 130.492-137.052 258.023-144.834 258.023-.785 0 130.835 106.17 131.037 105.695 8.206-19.236 114.564-134.64 114.467-196.601 0-1.232 2.383-8.36 5.297-15.838 17.032-43.703 51.374-209.393 8.281-209.229" style="display:inline;fill:url(#q);fill-opacity:1"/><path d="M795.258 392.352c-138.043 1.973-255.193 55.64-343.035 165.373C346.296 686.757 318.89 875.547 313.29 926c-5.54 49.915-6.08 61.47-6.068 130-2.098 116.445 13.243 221.067 96.562 310.742 78.546 78.617 237.787 117.53 396.215 116.739 158.428.792 317.669-38.122 396.215-116.739 83.32-89.675 98.66-194.297 96.562-310.742.011-68.53-.529-80.085-6.068-130-5.6-50.453-33.005-239.243-138.932-368.275-87.843-109.732-204.992-163.4-343.035-165.373q-2.385 0-4.742.021-2.355-.02-4.742-.021" style="display:inline;fill:#f5e595;fill-opacity:1"/><path d="M756.154 775.043c-12.492 2.416-24.159 1.237-35.826.059-5.068 36.043 29.52 130.306 78.065 125.502 48.543 4.804 83.134-89.46 78.066-125.502-11.667 1.179-23.334 2.358-35.826-.059-44.15-11.458-40.861-9.51-84.479 0" style="baseline-shift:baseline;display:inline;overflow:visible;vector-effect:none;fill:url(#r);fill-opacity:1;stroke-linecap:round;stroke-linejoin:round;stop-color:#000"/><path d="M798.395 800a73.46 73.46 0 0 0-65.307 39.824c13.76 33.119 37.192 63.561 65.305 60.78 28.112 2.781 51.545-27.66 65.306-60.78A73.46 73.46 0 0 0 798.395 800" style="baseline-shift:baseline;display:inline;overflow:visible;vector-effect:none;fill:url(#s);fill-opacity:1;stroke-linecap:round;stroke-linejoin:round;stop-color:#000"/><path d="M718.745 775.003c-1.826.071-1.904-2.235-2.16-.425-2.762 19.645 4.917 52.245 19.308 80.318 7.195 14.037 16.112 26.86 26.625 36.042 21.437 18.722 50.328 18.71 71.752 0 10.512-9.181 19.429-22.005 26.625-36.042 14.39-28.073 22.069-60.673 19.306-80.318-.283-2.01-1.723.321-3.742.524-4.222.426-12.92 4.837-12.92 4.837 3.171-.195 6.3-.482 9.398-.785 1.04 17.202-5.882 47.148-18.771 72.291-6.887 13.435-15.401 25.528-24.87 33.797-18.673 16.309-43.166 16.281-61.808 0-9.467-8.269-17.982-20.362-24.869-33.797-12.888-25.143-19.81-55.09-18.77-72.29a355 355 0 0 0 5.64.513l-1.437-3.825c-2.91-.234-5.832-.527-8.781-.825a4 4 0 0 0-.526-.015" style="baseline-shift:baseline;display:inline;overflow:visible;vector-effect:none;fill:#191a14;fill-opacity:1;stroke-linecap:round;stroke-linejoin:round;stop-color:#000"/><path d="M1010.422 442.328c11.289 9.578 105.442 85.55 125.984 101.693-37.264-43.307-79.456-77.102-125.984-101.693" style="display:inline;fill:url(#t);fill-opacity:1"/><path d="M589.578 442.328c-11.289 9.578-105.442 85.55-125.984 101.693 37.264-43.307 79.456-77.102 125.984-101.693" style="display:inline;fill:url(#u);fill-opacity:1"/><path d="M908.488 659.055c-5.086 6.397-5.273 7.201-2.412 10.363 6.213 6.866 11.042-9.075 29.669-19.42 14.651-8.139 39.21-15.24 63.046 7.67 6.62 6.362 10.014 8.266 11.228 6.3 2.175-3.518-13.803-20.404-24.697-26.1-19.871-10.391-54.209-7.27-76.834 21.187" style="fill:#1f1f1d;fill-opacity:1"/><path d="M331.602 130.217c-43.093-.164-8.75 165.526 8.28 209.228 2.915 7.48 5.298 14.607 5.298 15.838q-.003 3.343.392 6.883c12.006-109.145 79.037-173.816 97.334-176.582q.277-.043.559-.08c-28.088-30.633-70.424-52.731-111.863-55.287" style="opacity:1;fill:#1f1f1d;fill-opacity:1;stroke-width:7.55906;stroke-linecap:round;stroke-linejoin:round"/><path d="M1268.398 130.217c43.093-.164 8.75 165.526-8.28 209.228-2.915 7.48-5.298 14.607-5.298 15.838q0 3.343-.392 6.883c-12.006-109.145-79.037-173.816-97.334-176.582a28 28 0 0 0-.559-.08c28.088-30.633 70.424-52.731 111.863-55.287" style="fill:#1f1f1d;fill-opacity:1;stroke-width:7.55906;stroke-linecap:round;stroke-linejoin:round"/><path d="M1268.398 130.217c-28.355 1.749-57.13 12.649-81.474 29.172a73.78 73.78 0 0 0 71.576 55.888 73.8 73.8 0 0 0 29.254-6.047c4.008-42.97.776-79.09-19.356-79.013" style="opacity:1;mix-blend-mode:normal;fill:url(#v);fill-opacity:1;stroke-width:8.4499;stroke-linecap:round;stroke-linejoin:round"/><path d="M1268.398 130.217c-28.355 1.749-57.13 12.649-81.474 29.172a73.78 73.78 0 0 0 71.576 55.888 73.8 73.8 0 0 0 29.254-6.047c4.008-42.97.776-79.09-19.356-79.013" style="opacity:1;mix-blend-mode:overlay;fill:url(#w);fill-opacity:1;stroke-width:8.4499;stroke-linecap:round;stroke-linejoin:round"/><path d="M1268.398 130.217c-28.355 1.749-57.13 12.649-81.474 29.172a73.78 73.78 0 0 0 71.576 55.888 73.8 73.8 0 0 0 29.254-6.047c4.008-42.97.776-79.09-19.356-79.013" style="opacity:1;mix-blend-mode:normal;fill:url(#x);fill-opacity:1;stroke-width:8.4499;stroke-linecap:round;stroke-linejoin:round" transform="matrix(-1 0 0 1 1600 0)"/><path d="M1268.398 130.217c-28.355 1.749-57.13 12.649-81.474 29.172a73.78 73.78 0 0 0 71.576 55.888 73.8 73.8 0 0 0 29.254-6.047c4.008-42.97.776-79.09-19.356-79.013" style="opacity:1;mix-blend-mode:overlay;fill:url(#y);fill-opacity:1;stroke-width:8.4499;stroke-linecap:round;stroke-linejoin:round" transform="matrix(-1 0 0 1 1600 0)"/><path d="M579.19 648.762c-7.244 68 108.403 79.79 116.178 3.531 2.237-21.938-7.443-45.129-33.245-56.667-23.834-10.66-77.375.954-82.934 53.136" style="fill:url(#z);fill-opacity:1"/><ellipse cx="651.896" cy="624.177" rx="21.337" ry="19.28" style="opacity:1;fill:url(#A);fill-opacity:1;stroke-width:8.17692;stroke-linecap:round;stroke-linejoin:round"/><path d="M975.762 842.596c14.364 23.62 35.875 32.573 55.815 33.97 76.697 5.368 108.135-100.462 34.177-143.154-71.94-37.39-127.84 46.947-89.992 109.184" style="fill:#aa0319;fill-opacity:1"/><path d="M1031.197 724.191c-46.883-.381-78.318 51.018-64.248 98.57a90 90 0 0 0 9.002.454 89.803 89.803 0 0 0 89.803-89.803c-12.095-6.287-23.737-9.133-34.557-9.22" style="opacity:1;fill:url(#B);fill-opacity:.398403;stroke-width:7.55906;stroke-linecap:round;stroke-linejoin:round"/><path d="M1031.197 724.191c-46.883-.381-78.318 51.018-64.248 98.57a90 90 0 0 0 9.002.454 89.803 89.803 0 0 0 89.803-89.803c-12.095-6.287-23.737-9.133-34.557-9.22" style="opacity:1;mix-blend-mode:overlay;fill:url(#C);fill-opacity:.398403;stroke-width:7.55906;stroke-linecap:round;stroke-linejoin:round"/><path d="M800.361 2771.111c-2.42.255-5.141 1.815-10.306 4.721-27.625 14.179-59.484 16.825-87.348 2.008-2.285 0-7.528 6.583-6.53 8.2.73 1.18 5.63 3.579 17.663 8.647 39.212 11.203 54.707 3.232 86.521-10.656 31.815 13.888 47.308 21.86 86.52 10.656 12.033-5.068 16.932-7.467 17.662-8.648.999-1.616-4.244-8.2-6.53-8.2-27.863 14.818-59.722 12.172-87.347-2.007-5.165-2.906-7.884-4.466-10.305-4.72" style="display:inline;fill:#191a14;fill-opacity:1" transform="translate(-.36 -2013.84)"/><path d="M799.923 710.764c-13.137.065-17.71 1.163-18.395 4.636-.681 3.456 11.126 10.446 18.395 10.446 7.268 0 19.076-6.99 18.394-10.446-.686-3.473-5.258-4.57-18.395-4.636" style="fill:#191a14;fill-opacity:1;stroke-width:1.22085"/><path d="M795.258 392.352c-66.234.947-127.657 13.794-183.342 39.025A209.31 209.31 0 0 0 800 548.844a209.31 209.31 0 0 0 188.084-117.467c-55.685-25.231-117.108-38.078-183.342-39.025q-2.385 0-4.742.021-2.355-.02-4.742-.021" style="opacity:1;mix-blend-mode:multiply;fill:url(#D);fill-opacity:.533051;stroke:none;stroke-width:9.8888;stroke-linecap:round;stroke-linejoin:round;stroke-opacity:1"/><path d="M800 1031.647a673.102 416 0 0 0-488.14 129.574c9.405 74.916 34.544 143.763 91.925 205.521 78.546 78.617 237.787 117.53 396.215 116.739 158.428.792 317.669-38.122 396.215-116.739 57.381-61.758 82.52-130.605 91.926-205.521A673.102 416 0 0 0 800 1031.647" style="display:inline;mix-blend-mode:multiply;fill:url(#E);fill-opacity:1"/><path d="M975.762 842.596c14.364 23.62 35.875 32.573 55.815 33.97 76.697 5.368 108.135-100.462 34.177-143.154-71.94-37.39-127.84 46.947-89.992 109.184" style="fill:#aa0319;fill-opacity:1" transform="matrix(-1 0 0 1 1600 0)"/><path d="M1031.197 724.191c-46.883-.381-78.318 51.018-64.248 98.57a90 90 0 0 0 9.002.454 89.803 89.803 0 0 0 89.803-89.803c-12.095-6.287-23.737-9.133-34.557-9.22" style="opacity:1;fill:url(#F);fill-opacity:.398403;stroke-width:7.55906;stroke-linecap:round;stroke-linejoin:round" transform="matrix(-1 0 0 1 1600 0)"/><path d="M1031.197 724.191c-46.883-.381-78.318 51.018-64.248 98.57a90 90 0 0 0 9.002.454 89.803 89.803 0 0 0 89.803-89.803c-12.095-6.287-23.737-9.133-34.557-9.22" style="opacity:1;mix-blend-mode:overlay;fill:url(#G);fill-opacity:.398403;stroke-width:7.55906;stroke-linecap:round;stroke-linejoin:round" transform="matrix(-1 0 0 1 1600 0)"/><path d="M1135.205 542.63c-132.502 169.888 140.175 476.509 157.518 484.628-.233-44.43-1.355-59.277-6.014-101.258-5.6-50.453-33.005-239.243-138.932-368.275a501 501 0 0 0-12.572-15.094" style="display:inline;mix-blend-mode:multiply;fill:url(#H);fill-opacity:1"/><path d="M464.795 542.63c132.502 169.888-140.175 476.509-157.518 484.628.233-44.43 1.355-59.277 6.014-101.258 5.6-50.453 33.005-239.243 138.932-368.275a501 501 0 0 1 12.572-15.094" style="display:inline;mix-blend-mode:multiply;fill:url(#I);fill-opacity:1"/><path d="M1082.69 1125.005c-3.495 5.12-3.677 7.709-10.483 15.36s-18.581 19.097-33.394 30.778c-74.002 55.144-144.947 18.634-125.328-60.206 15.542-60.832 48.796-113.638 95.307-157.181 11.388-11.746 18.187-19.007 24.986-26.27 117.138 20.716 87.716 122.702 48.912 197.519" style="fill:#f5e595;fill-opacity:1;stroke:none;stroke-width:4.17036;stroke-linecap:round;stroke-linejoin:round;stroke-dasharray:none;stroke-opacity:1"/><path d="M939.635 1043.22c-11.256 21.292-20.063 43.889-26.15 67.718-19.414 78.016 49.853 114.58 123.01 61.904a101 101 0 0 0 4.14-28.621 101 101 0 0 0-101-101" style="fill:url(#J);fill-opacity:1;stroke:none;stroke-width:4.17036;stroke-linecap:round;stroke-linejoin:round;stroke-dasharray:none;stroke-opacity:1"/><path d="M1033.778 927.487c-6.8 7.262-13.597 14.523-24.986 26.269-46.511 43.543-79.765 96.348-95.307 157.181-19.619 78.84 51.326 115.35 125.328 60.206 14.813-11.681 26.588-23.128 33.394-30.779s8.645-11.505 10.483-15.36" style="fill:none;fill-opacity:1;stroke:#d1b53b;stroke-width:4.17036;stroke-linecap:round;stroke-linejoin:round;stroke-dasharray:none;stroke-opacity:1"/><path d="M1082.69 1125.005c-3.495 5.12-3.677 7.709-10.483 15.36s-18.581 19.097-33.394 30.778c-74.002 55.144-144.947 18.634-125.328-60.206 15.542-60.832 48.796-113.638 95.307-157.181 11.388-11.746 18.187-19.007 24.986-26.27 117.138 20.716 87.716 122.702 48.912 197.519" style="fill:#f5e595;fill-opacity:1;stroke:none;stroke-width:4.17036;stroke-linecap:round;stroke-linejoin:round;stroke-dasharray:none;stroke-opacity:1" transform="matrix(-1 0 0 1 1600 0)"/><path d="M939.635 1043.22c-11.256 21.292-20.063 43.889-26.15 67.718-19.414 78.016 49.853 114.58 123.01 61.904a101 101 0 0 0 4.14-28.621 101 101 0 0 0-101-101" style="fill:url(#K);fill-opacity:1;stroke:none;stroke-width:4.17036;stroke-linecap:round;stroke-linejoin:round;stroke-dasharray:none;stroke-opacity:1" transform="matrix(-1 0 0 1 1600 0)"/><path d="M1033.778 927.487c-6.8 7.262-13.597 14.523-24.986 26.269-46.511 43.543-79.765 96.348-95.307 157.181-19.619 78.84 51.326 115.35 125.328 60.206 14.813-11.681 26.588-23.128 33.394-30.779s8.645-11.505 10.483-15.36" style="fill:none;fill-opacity:1;stroke:#d1b53b;stroke-width:4.17036;stroke-linecap:round;stroke-linejoin:round;stroke-dasharray:none;stroke-opacity:1" transform="matrix(-1 0 0 1 1600 0)"/><path d="M1292.137 991.754a239.65 239.65 0 0 0-193.123 235.088 239.65 239.65 0 0 0 66.582 165.767c11.216-8.083 21.465-16.705 30.619-25.867 83.32-89.675 98.66-194.297 96.562-310.742 0-29.386-.092-48.296-.64-64.246" style="display:inline;mix-blend-mode:multiply;fill:url(#L);fill-opacity:1"/><path d="M307.863 991.754a239.65 239.65 0 0 1 193.123 235.088 239.65 239.65 0 0 1-66.582 165.767c-11.216-8.083-21.465-16.705-30.619-25.867-83.32-89.675-98.66-194.297-96.562-310.742 0-29.386.092-48.296.64-64.246" style="display:inline;mix-blend-mode:multiply;fill:url(#M);fill-opacity:1"/><circle cx="800" cy="724.191" r="231.197" style="opacity:1;mix-blend-mode:overlay;fill:url(#N);stroke:none;stroke-width:8.32205;stroke-linecap:round;stroke-linejoin:round;stroke-opacity:1"/></g></svg>