<?xml version="1.0" encoding="UTF-8" standalone="no"?>
<svg
   width="1000"
   height="500"
   version="1.1"
   id="svg18"
   sodipodi:docname="dualsense-controller-light-mode.svg"
   inkscape:version="1.4.2 (ebf0e940d0, 2025-05-08)"
   xmlns:inkscape="http://www.inkscape.org/namespaces/inkscape"
   xmlns:sodipodi="http://sodipodi.sourceforge.net/DTD/sodipodi-0.dtd"
   xmlns="http://www.w3.org/2000/svg"
   xmlns:svg="http://www.w3.org/2000/svg">
  <defs
     id="defs18" />
  <sodipodi:namedview
     id="namedview18"
     pagecolor="#ffffff"
     bordercolor="#000000"
     borderopacity="0.25"
     inkscape:showpageshadow="2"
     inkscape:pageopacity="0.0"
     inkscape:pagecheckerboard="0"
     inkscape:deskcolor="#d1d1d1"
     inkscape:zoom="0.681"
     inkscape:cx="374.44934"
     inkscape:cy="234.21439"
     inkscape:window-width="1536"
     inkscape:window-height="888"
     inkscape:window-x="0"
     inkscape:window-y="0"
     inkscape:window-maximized="1"
     inkscape:current-layer="svg18" />
  <path
     d="M6729.31-2598.635c-2.644.033-4.69.15-5.606.21h-.074c-27.05 2.928-42.96 9.011-52.186 14.491-4.612 2.74-7.55 5.33-9.351 7.281-1.338 1.45-2.176 2.663-2.748 3.848v6.316c-1.217.275-3.412.791-6.04 1.223-2.728.448-4.386 2.54-5.57 4.26a22 22 0 0 0-1.841 3.261c-47.434 89.624-66.258 211.881-66.258 211.881l-.01.057-.01.06c-9.207 94.867.66 145.318 13.088 172.273 6.214 13.477 13.09 21.07 18.51 25.285 5.418 4.215 9.62 5.088 9.62 5.088l.025.01 48.038 7.967.431-.124c8.849-2.512 12.498-13.018 12.606-13.331l43.75-100.192.01-.025c13.62-33.74 32.208-45.182 47.363-48.56 9.009-1.915 18.401-1.558 27.107 1.49 10.796 3.018 22.634 1.347 23.041 1.289 33.891.198 67.79-.11 101.688-.305 33.898.195 67.796.503 101.687.305.408.058 12.246 1.729 23.041-1.29 8.706-3.047 18.099-3.404 27.108-1.49 15.154 3.38 33.744 14.821 47.363 48.561l.01.025 43.75 100.192c.107.313 3.757 10.819 12.606 13.332l.431.123 48.037-7.967.025-.01s4.203-.873 9.621-5.088c5.42-4.215 12.296-11.808 18.51-25.285 12.428-26.955 22.295-77.406 13.088-172.274l-.01-.059-.01-.057s-18.824-122.257-66.258-211.88a22 22 0 0 0-1.842-3.262c-1.183-1.72-2.841-3.812-5.57-4.26-2.628-.432-4.822-.948-6.039-1.223v-6.316c-.572-1.185-1.41-2.399-2.748-3.848-1.802-1.952-4.739-4.541-9.352-7.281-9.225-5.48-25.136-11.563-52.185-14.49h-.074c-.917-.061-2.962-.178-5.606-.211-7.929-.1-21.23.55-25.513 5.693l-.305.367-2.146 9.325c-51.778-7.303-111.016-11.082-167.62-11.485-56.603.403-115.841 4.182-167.619 11.485l-2.146-9.325-.305-.367c-4.283-5.143-17.584-5.793-25.514-5.693z"
     style="fill:#000;fill-rule:evenodd;stroke-width:3.06595;stroke-linecap:round;stroke-miterlimit:7;paint-order:stroke markers fill"
     transform="translate(-6011.616 2475.629)scale(.94032)"
     id="path1" />
  <circle
     cx="469.87"
     cy="196.624"
     r="3.766"
     style="font-variation-settings:normal;vector-effect:none;fill:#dfdfe7;fill-opacity:1;fill-rule:evenodd;stroke-width:20.8182;stroke-linecap:butt;stroke-linejoin:miter;stroke-miterlimit:4;stroke-dasharray:none;stroke-dashoffset:0;stroke-opacity:1;-inkscape-stroke:none;stop-color:#000"
     id="circle1" />
  <circle
     cx="477.402"
     cy="204.157"
     r="3.766"
     style="font-variation-settings:normal;vector-effect:none;fill:#dfdfe7;fill-opacity:1;fill-rule:evenodd;stroke-width:20.8182;stroke-linecap:butt;stroke-linejoin:miter;stroke-miterlimit:4;stroke-dasharray:none;stroke-dashoffset:0;stroke-opacity:1;-inkscape-stroke:none;stop-color:#000"
     id="circle2" />
  <circle
     cx="484.935"
     cy="196.624"
     r="3.766"
     style="font-variation-settings:normal;vector-effect:none;fill:#dfdfe7;fill-opacity:1;fill-rule:evenodd;stroke-width:20.8182;stroke-linecap:butt;stroke-linejoin:miter;stroke-miterlimit:4;stroke-dasharray:none;stroke-dashoffset:0;stroke-opacity:1;-inkscape-stroke:none;stop-color:#000"
     id="circle3" />
  <circle
     cx="492.468"
     cy="204.157"
     r="3.766"
     style="font-variation-settings:normal;vector-effect:none;fill:#dfdfe7;fill-opacity:1;fill-rule:evenodd;stroke-width:20.8182;stroke-linecap:butt;stroke-linejoin:miter;stroke-miterlimit:4;stroke-dasharray:none;stroke-dashoffset:0;stroke-opacity:1;-inkscape-stroke:none;stop-color:#000"
     id="circle4" />
  <circle
     cx="500.001"
     cy="196.624"
     r="3.766"
     style="font-variation-settings:normal;vector-effect:none;fill:#dfdfe7;fill-opacity:1;fill-rule:evenodd;stroke-width:20.8182;stroke-linecap:butt;stroke-linejoin:miter;stroke-miterlimit:4;stroke-dasharray:none;stroke-dashoffset:0;stroke-opacity:1;-inkscape-stroke:none;stop-color:#000"
     id="circle5" />
  <circle
     cx="507.534"
     cy="204.157"
     r="3.766"
     style="font-variation-settings:normal;vector-effect:none;fill:#dfdfe7;fill-opacity:1;fill-rule:evenodd;stroke-width:20.8182;stroke-linecap:butt;stroke-linejoin:miter;stroke-miterlimit:4;stroke-dasharray:none;stroke-dashoffset:0;stroke-opacity:1;-inkscape-stroke:none;stop-color:#000"
     id="circle6" />
  <circle
     cx="515.066"
     cy="196.624"
     r="3.766"
     style="font-variation-settings:normal;vector-effect:none;fill:#dfdfe7;fill-opacity:1;fill-rule:evenodd;stroke-width:20.8182;stroke-linecap:butt;stroke-linejoin:miter;stroke-miterlimit:4;stroke-dasharray:none;stroke-dashoffset:0;stroke-opacity:1;-inkscape-stroke:none;stop-color:#000"
     id="circle7" />
  <circle
     cx="522.598"
     cy="204.157"
     r="3.766"
     style="font-variation-settings:normal;vector-effect:none;fill:#dfdfe7;fill-opacity:1;fill-rule:evenodd;stroke-width:20.8182;stroke-linecap:butt;stroke-linejoin:miter;stroke-miterlimit:4;stroke-dasharray:none;stroke-dashoffset:0;stroke-opacity:1;-inkscape-stroke:none;stop-color:#000"
     id="circle8" />
  <circle
     cx="530.131"
     cy="196.624"
     r="3.766"
     style="font-variation-settings:normal;vector-effect:none;fill:#dfdfe7;fill-opacity:1;fill-rule:evenodd;stroke-width:20.8182;stroke-linecap:butt;stroke-linejoin:miter;stroke-miterlimit:4;stroke-dasharray:none;stroke-dashoffset:0;stroke-opacity:1;-inkscape-stroke:none;stop-color:#000"
     id="circle9" />
  <path
     fill="none"
     stroke="#747474"
     stroke-width="2.821"
     d="M387.645 150.29s6.536 25.925 33.822 26.536l156.642.055s31.595 1.097 36.493-38.51l14.403-69.42s5.513-26.046-11.992-28.258c0 0-133.323-14.96-229.367.583 0 0-19.92 3.127-17.772 24.117s17.771 84.897 17.771 84.897z"
     data-name="路径 3247"
     style="stroke:#dfdfe7;stroke-opacity:1"
     id="path9" />
  <g
     style="fill:none;stroke:#dfdfe7;stroke-opacity:1"
     transform="translate(-6011.616 2475.629)scale(.94032)"
     id="g9">
    <rect
       width="14.338"
       height="29.716"
       x="1"
       y="1"
       stroke="#747474"
       stroke-width="2"
       data-name="矩形 709"
       rx="7.169"
       style="stroke:#dfdfe7;stroke-opacity:1"
       transform="rotate(-169 3424.588 -1603.206)"
       id="rect9" />
  </g>
  <rect
     width="13.482"
     height="27.943"
     x="317.485"
     y="137.287"
     rx="6.741"
     style="fill:none;stroke:#dfdfe7;stroke-width:1.88064;stroke-opacity:1"
     transform="rotate(-11)"
     id="rect10" />
  <path
     d="M285.459 105.144h21.104a7.05 7.05 0 0 1 7.053 7.053v18.442a7.05 7.05 0 0 1-2.069 4.984l-10.228 10.223a7.05 7.05 0 0 1-9.967 0l-10.567-10.564a7.05 7.05 0 0 1-2.063-4.864l-.308-18.105a7.05 7.05 0 0 1 7.046-7.169z"
     data-name="路径 11"
     style="fill:#dfdfe7;fill-opacity:1;stroke:#dfdfe7;stroke-width:1.88064;stroke-opacity:1"
     id="path10" />
  <path
     d="M348.109 147.512v21.104a7.05 7.05 0 0 1-7.053 7.052h-18.44a7.05 7.05 0 0 1-4.983-2.068l-10.227-10.228a7.05 7.05 0 0 1 0-9.968l10.566-10.566a7.05 7.05 0 0 1 4.862-2.063l18.11-.31a7.05 7.05 0 0 1 7.165 7.047z"
     data-name="路径 12"
     style="fill:#dfdfe7;fill-opacity:1;stroke:#dfdfe7;stroke-width:1.88064;stroke-opacity:1"
     id="path11" />
  <path
     d="M243.724 168.616v-21.103a7.05 7.05 0 0 1 7.052-7.047h18.442a7.05 7.05 0 0 1 4.984 2.068l10.229 10.23a7.05 7.05 0 0 1 0 9.966l-10.566 10.566a7.05 7.05 0 0 1-4.862 2.064l-18.106.308a7.05 7.05 0 0 1-7.174-7.052z"
     data-name="路径 13"
     style="fill:#dfdfe7;fill-opacity:1;stroke:#dfdfe7;stroke-width:1.88064;stroke-opacity:1"
     id="path12" />
  <path
     d="M306.563 210.873H285.46a7.05 7.05 0 0 1-7.053-7.048v-18.442a7.05 7.05 0 0 1 2.07-4.984l10.23-10.228a7.05 7.05 0 0 1 9.967 0l10.565 10.567a7.05 7.05 0 0 1 2.063 4.863l.308 18.105a7.05 7.05 0 0 1-7.047 7.167z"
     data-name="路径 14"
     style="fill:#dfdfe7;fill-opacity:1;stroke:#dfdfe7;stroke-width:1.88064;stroke-opacity:1"
     id="path13" />
  <rect
     width="37.384"
     height="8.649"
     x="481.308"
     y="281.891"
     rx="4.982"
     style="fill:#dfdfe7;fill-rule:evenodd;stroke:#dfdfe7;stroke-width:1.87625;stroke-linecap:round;stroke-miterlimit:7;paint-order:stroke markers fill;fill-opacity:1;stroke-opacity:1"
     id="rect13" />
  <path
     d="M701.982 87.716c-12.106 0-21.95 9.846-21.95 21.951s9.844 21.95 21.95 21.95 21.949-9.843 21.949-21.95-9.843-21.95-21.949-21.95m-47.606 47.223c-12.105 0-21.95 9.844-21.95 21.95s9.845 21.951 21.95 21.951c12.106 0 21.95-9.845 21.95-21.95 0-12.107-9.844-21.952-21.95-21.952m96.747 0c-12.106 0-21.95 9.845-21.95 21.95 0 12.106 9.844 21.951 21.95 21.951s21.947-9.845 21.947-21.95c0-12.106-9.841-21.952-21.947-21.952M703.9 184.4c-12.104 0-21.95 9.845-21.95 21.951s9.846 21.949 21.951 21.949 21.95-9.843 21.95-21.949-9.844-21.95-21.95-21.95"
     style="baseline-shift:baseline;display:inline;overflow:visible;vector-effect:none;fill:#dfdfe7;stroke-width:.94032;stop-color:#000;fill-opacity:1"
     id="path14" />
  <path
     style="baseline-shift:baseline;display:inline;overflow:visible;opacity:1;vector-effect:none;fill:#dfdfe7;enable-background:accumulate;stop-color:#000000;stop-opacity:1"
     d="m 605.53711,202.23633 c -24.62103,0 -44.62109,19.99811 -44.62109,44.61914 0,24.62102 20.00006,44.62109 44.62109,44.62109 24.62102,0 44.62109,-20.00007 44.62109,-44.62109 0,-24.62103 -20.00007,-44.61914 -44.62109,-44.61914 z"
     id="circle15"
     sodipodi:nodetypes="sssss" />
  <g
     stroke="#747474"
     stroke-width="2"
     data-name="椭圆 2165"
     style="fill:none;stroke:#dfdfe7;stroke-opacity:1"
     transform="matrix(-.94032 0 0 .94032 417.448 223.942)"
     id="g17" />
  <g
     transform="translate(-211.075)"
     id="g18">
    <path
       style="baseline-shift:baseline;display:inline;overflow:visible;opacity:1;vector-effect:none;fill:#dfdfe7;enable-background:accumulate;stop-color:#000000;stop-opacity:1"
       d="m 605.53711,202.23633 c -24.62103,0 -44.62109,19.99811 -44.62109,44.61914 0,24.62102 20.00006,44.62109 44.62109,44.62109 24.62102,0 44.62109,-20.00007 44.62109,-44.62109 0,-24.62103 -20.00007,-44.61914 -44.62109,-44.61914 z"
       id="circle18"
       sodipodi:nodetypes="sssss" />
  </g>
</svg>
