<svg xmlns="http://www.w3.org/2000/svg" xml:space="preserve" viewBox="0 0 256 256"><path fill="#87af34" d="m222.026 73.41-7.545 95.577a4.58 4.58 0 0 1-1.776 3.265l-81.932 62.708a4.55 4.55 0 0 1-5.546 0L43.29 172.253a4.6 4.6 0 0 1-1.775-3.266L33.974 73.41a4.56 4.56 0 0 1 2.717-4.537l89.482-39.182a4.58 4.58 0 0 1 3.66 0l89.478 39.183a4.56 4.56 0 0 1 2.716 4.536"/><path fill="#4c7c26" d="M160.84 62.488c8.87-.114 17.424.197 20.691 1.814 10.348 5.122 12.387 12.417 9.295 33.285-1.713 11.566-1.675 18.498.137 25.227 1.552 5.763 1.95 16.55 1.05 28.48-.867 11.48-.477 23.46.973 29.786.364 1.585.663 3.502.887 5.587v.002l-22.133 16.936a159 159 0 0 0-1.052-5.846c-1.625-8.089-1.797-16.469-.5-24.254 1.094-6.57 1.165-18.356.16-26.332-1.14-9.044-.87-21.083.72-32.215 2.243-15.71 2.064-19.187-1.566-29.98-3.765-11.194-13.82-7.837-24.484-12.937-6.397-3.06-11.646-6.456-11.664-7.55-.014-.822 1.898-1.21 4.912-1.267 4.52-.083 13.704-.622 22.574-.736"/><path fill="#4c7c26" d="m96.174 42.825-4.622 2.026 30.744 21.717.002.002c1.819.379 3.416.563 4.705.512 4.404-.177 8.207-1.3 8.453-2.496.245-1.197-8.014-5.712-18.354-10.032-10.7-4.47-17.266-7.587-20.927-11.728m78.392 6.456 44.743 19.592a4.56 4.56 0 0 1 2.716 4.537l-7.543 95.577a4.6 4.6 0 0 1-.843 2.302c-.959-7.088-1.463-19.947-1.133-30.197.364-11.317.413-30.767.107-43.223-.734-29.928-2.737-32.413-30.545-37.861-10.996-2.154-19.994-4.919-19.994-6.14s3.5-3.085 7.78-4.143c1.252-.31 2.852-.45 4.71-.444zm-93.135-.001L36.69 68.873a4.56 4.56 0 0 0-2.717 4.537l7.543 95.576a4.6 4.6 0 0 0 .844 2.303c.958-7.088 1.463-19.947 1.133-30.197-.365-11.317-.413-30.767-.108-43.223.734-29.928 2.737-32.413 30.545-37.861 10.997-2.155 19.994-4.919 19.994-6.14 0-1.223-3.5-3.085-7.779-4.143-1.252-.31-2.853-.45-4.71-.444z"/><path fill="#4c7c26" d="M127.892 61.12c-.827-.028-14.032 10.139-14.16 10.236 5.64 7.51 2.061 147.27 0 154.807.128.097 13.333 10.616 14.16 10.589 5.504-2.859 10.205-7.398 15.108-11.15-1.144-68.426 2-154.246 2-154.246s-11.604-7.377-17.108-10.236"/><path fill="#4c7c26" d="M95.16 62.488c-8.87-.114-17.424.198-20.691 1.815-10.348 5.122-12.387 12.417-9.295 33.285 1.713 11.566 1.675 18.497-.137 25.226-1.552 5.763-1.949 16.55-1.049 28.48.866 11.48.476 23.46-.974 29.786-.364 1.585-.663 3.503-.887 5.588v.002l22.133 16.936a159 159 0 0 1 1.052-5.846c1.626-8.09 1.798-16.47.5-24.254-1.093-6.57-1.165-18.356-.16-26.332 1.14-9.044.87-21.083-.72-32.215-2.243-15.71-2.064-19.187 1.566-29.98 3.765-11.194 13.821-7.838 24.484-12.938 6.397-3.059 11.646-6.456 11.664-7.549.014-.823-1.898-1.211-4.912-1.267-4.52-.083-13.704-.623-22.574-.737"/><path fill="#4c7c26" d="m159.855 42.825 4.623 2.026-30.744 21.717-.002.002c-1.82.379-3.416.563-4.705.512-4.405-.177-8.208-1.3-8.453-2.496-.246-1.197 8.014-5.712 18.353-10.032 10.701-4.47 17.267-7.587 20.928-11.728"/><g transform="translate(-25.461 -263.388)scale(.88263)"><path d="M197.71 320.223q.69.03 1.299.264c6.916 2.654 6.16 13.522-.94 13.522-9.627 0-16.724 17.33-14.742 35.998.365 3.435-17.717 5.236-17.717 5.236.257-.723.44-2.028.5-3.796.505-14.926 6.805-29.909 17.296-41.156 6.49-6.957 11.08-10.201 14.304-10.068m-33.293 54.823q.043.105.085.197s-1.047-2.58-.085-.197"/><ellipse cx="175.332" cy="378.432" fill-rule="evenodd" rx="19.7" ry="11.159"/></g></svg>