<svg xmlns="http://www.w3.org/2000/svg" xml:space="preserve" width="1000" height="500" viewBox="0 0 1000 500"><path d="M241.776 54.612c-4.288.062-8.557.721-8.882 1.568-.064.167-.24.316-.561.446-22.368.06-37.182.17-38.799.36a8 8 0 0 0-2.16.544c-2.15.896-3.26 2.853-3.073 3.554a.17.17 0 0 1-.122.02c-.192-.047-.401-.466-.797-.943-1.3-1.756-2.574-2.175-4.238-2.267-3.302-1.235-3.623-2.099-5.704-2.19-.239-.012-.89-.025-1.478.098-11.57 2.426-77.222 15.202-82.785 16.896-31.031 7.621-44.413 39.983-40.632 52.467.195.646.503 1.16.988 1.692 1.593 1.75.975 9.892.975 120.563 0 83.404.978 115.069 2.036 127.377 1.14 13.269 12.245 28.276 24.584 33.287 30.654 12.448 62.166 23.942 94.175 35.414 0 0 7.157 2.752 11.627.818.872-.377 2.625-1.411 3.186-.725.217.264.33.715.706 1.164.21.251.693.46 1.02.48 1.864.12 609.594.277 614.66.018.5-.026 1.22-.34 1.61-.655 1.224-.988 2.63-2.053 4.252-.954 2.684 1.82 1.093 2.627 37.778-10.539 22.37-8.985 45.945-15.27 67.651-25.832 10.396-5.27 18.356-14.968 23.023-27.168 5.166-13.506 2.202-58.911 2.688-97.056.018-1.438-.001-3.778.206-5.2.135-.923.343-1.392.612-1.804.17-.261.5-.646.693-.892q.254-.327.468-.676c2.201-3.573 1.837-10.819 1.895-15.055l.575-42.338c.042-3.091.376-8.036-.56-11.36-.389-1.375-1.382-2.287-2.42-3.176-3.67-3.287-.603-4.99 2.476-7.617.36-.307.638-.95.63-1.425-.058-3.698-.283-18.722-.298-32.945-.04-39.188-.812-45.866-6.662-57.755-15.625-30.134-46.424-32.783-76.63-39.071-22.25-4.541-42.95-7.894-44.534-7.431-.637.186-1.487.913-2.072 1.242-3.234 1.814-6.632 1.938-10.072.191-.558-.323-1.484-.728-2.127-.757-171.873-.242-343.753-.327-515.63-.407-1.23-.144-1.86-.36-1.809-.647.15-.843-4.159-1.377-8.447-1.314-4.289.062-8.558.721-8.882 1.568-.056.145-.197.277-.445.395-6.355.003-12.472.007-18.29.014-1.328-.144-2.01-.365-1.957-.663.15-.843-4.16-1.377-8.448-1.314" style="display:inline;fill:#dfdfe7;fill-opacity:1;stroke-width:1.01217"/><path d="M851.603 194.065c-13.139 0-23.812 10.673-23.812 23.812s10.673 23.813 23.812 23.813 23.813-10.674 23.813-23.813-10.674-23.812-23.813-23.812M98.477 117.188c-13.14 0-23.813 10.673-23.813 23.812s10.674 23.813 23.813 23.813 23.812-10.674 23.812-23.813c0-13.14-10.673-23.812-23.812-23.812" style="baseline-shift:baseline;display:inline;overflow:visible;vector-effect:none;fill:#000;stroke-width:.740388;stop-color:#000"/><rect width="85.689" height="85.689" x="818.387" y="265.657" rx="7.941" style="fill:none;fill-rule:evenodd;stroke:#000;stroke-width:2.99075;stroke-linecap:round;stroke-miterlimit:7;stroke-opacity:1;paint-order:stroke markers fill"/><path d="M134.47 182.73a5.53 5.53 0 0 0-5.543 5.543v14.873a1.953 1.953 0 0 1-1.953 1.953h-14.873a5.53 5.53 0 0 0-5.543 5.544v14.468a5.53 5.53 0 0 0 5.545 5.543h14.871a1.953 1.953 0 0 1 1.953 1.953v14.873a5.53 5.53 0 0 0 5.544 5.544h14.47a5.53 5.53 0 0 0 5.542-5.544v-14.872a1.953 1.953 0 0 1 1.953-1.953h14.875a5.53 5.53 0 0 0 5.54-5.544v-14.468a5.53 5.53 0 0 0-5.541-5.543h-14.875a1.953 1.953 0 0 1-1.953-1.952v-14.875a5.53 5.53 0 0 0-5.541-5.542z" style="fill:#000;fill-opacity:1;fill-rule:evenodd;stroke:none;stroke-width:2.35061;stroke-miterlimit:7;paint-order:stroke markers fill"/><path d="M892.46 102.075c-6.867 0-12.452 5.584-12.452 12.452 0 6.867 5.585 12.45 12.451 12.45 6.868 0 12.45-5.583 12.45-12.45 0-6.868-5.582-12.452-12.45-12.452m-27.003 26.787c-6.867 0-12.452 5.584-12.452 12.451s5.585 12.452 12.452 12.452 12.45-5.585 12.45-12.452-5.583-12.451-12.45-12.451m54.879 0c-6.868 0-12.452 5.583-12.452 12.45 0 6.868 5.585 12.452 12.452 12.452s12.448-5.584 12.448-12.452c0-6.867-5.582-12.451-12.448-12.451m-26.787 28.057c-6.867 0-12.451 5.585-12.451 12.452s5.584 12.45 12.451 12.45 12.45-5.583 12.45-12.45-5.583-12.452-12.45-12.452" style="baseline-shift:baseline;display:inline;overflow:visible;vector-effect:none;fill:#000;fill-opacity:1;stroke-width:.53339;stop-color:#000"/><rect width="30.872" height="12.313" x="517.468" y="658.054" rx="5.806" style="fill:#000;fill-opacity:1;fill-rule:evenodd;stroke:none;stroke-width:2.15592;stroke-linecap:round;stroke-miterlimit:7;paint-order:stroke markers fill" transform="rotate(-44.606)"/><rect width="30.872" height="12.313" x="-195.109" y="-44.789" rx="5.806" style="fill:#000;fill-opacity:1;fill-rule:evenodd;stroke:none;stroke-width:2.15592;stroke-linecap:round;stroke-miterlimit:7;paint-order:stroke markers fill" transform="rotate(44.606)scale(-1 1)"/><rect width="30.872" height="12.313" x="-157.435" y="296.71" rx="5.806" style="fill:#000;fill-opacity:1;fill-rule:evenodd;stroke:none;stroke-width:2.15592;stroke-linecap:round;stroke-miterlimit:7;paint-order:stroke markers fill" transform="rotate(.2)scale(-1 1)"/><rect width="30.872" height="12.313" x="-157.585" y="339.768" rx="5.806" style="fill:#000;fill-opacity:1;fill-rule:evenodd;stroke:none;stroke-width:2.15592;stroke-linecap:round;stroke-miterlimit:7;paint-order:stroke markers fill" transform="rotate(.2)scale(-1 1)"/><path d="M220.812 70.623a6.525 6.525 0 0 0-6.54 6.54v345.672a6.526 6.526 0 0 0 6.54 6.542h558.376a6.526 6.526 0 0 0 6.54-6.542V77.163a6.525 6.525 0 0 0-6.54-6.54H500Z" style="display:inline;fill:#000;fill-opacity:1;fill-rule:evenodd;stroke:none;stroke-width:6.18663;stroke-linecap:square;stroke-linejoin:round;stroke-miterlimit:7;stroke-opacity:1;paint-order:stroke markers fill"/></svg>