<svg xmlns="http://www.w3.org/2000/svg" xmlns:xlink="http://www.w3.org/1999/xlink" xml:space="preserve" width="3000" height="3600"><defs><linearGradient id="v"><stop offset="0" style="stop-color:#95aed7;stop-opacity:.46342791"/><stop offset="1" style="stop-color:#95aed7;stop-opacity:0"/></linearGradient><linearGradient id="u"><stop offset="0" style="stop-color:#678ac5;stop-opacity:1"/><stop offset="1" style="stop-color:#678ac5;stop-opacity:0"/></linearGradient><linearGradient id="t"><stop offset="0" style="stop-color:#678ac5;stop-opacity:1"/><stop offset="1" style="stop-color:#678ac5;stop-opacity:0"/></linearGradient><linearGradient id="s"><stop offset="0" style="stop-color:#eaeaea;stop-opacity:1"/><stop offset="1" style="stop-color:#d7d7d7;stop-opacity:1"/></linearGradient><linearGradient id="r"><stop offset="0" style="stop-color:#e3e3e3;stop-opacity:1"/><stop offset="1" style="stop-color:#d5d5d5;stop-opacity:1"/></linearGradient><linearGradient id="q"><stop offset="0" style="stop-color:#fff;stop-opacity:1"/><stop offset="1" style="stop-color:#e1e1e1;stop-opacity:1"/></linearGradient><linearGradient id="p"><stop offset="0" style="stop-color:#88a3d2;stop-opacity:1"/><stop offset="1" style="stop-color:#88a3d2;stop-opacity:0"/></linearGradient><linearGradient id="o"><stop offset="0" style="stop-color:#c1cfe9;stop-opacity:1"/><stop offset="1" style="stop-color:#c1cfe9;stop-opacity:0"/></linearGradient><linearGradient id="n"><stop offset="0" style="stop-color:#4c7cbc;stop-opacity:1"/><stop offset="1" style="stop-color:#4c7cbc;stop-opacity:0"/></linearGradient><linearGradient id="m"><stop offset="0" style="stop-color:#4c7cbc;stop-opacity:1"/><stop offset="1" style="stop-color:#4c7cbc;stop-opacity:0"/></linearGradient><linearGradient id="l"><stop offset="0" style="stop-color:#819ed0;stop-opacity:1"/><stop offset="1" style="stop-color:#819ed0;stop-opacity:.34701365"/></linearGradient><linearGradient id="k"><stop offset="0" style="stop-color:#92abd6;stop-opacity:1"/><stop offset="1" style="stop-color:#92abd6;stop-opacity:0"/></linearGradient><linearGradient id="j"><stop offset="0" style="stop-color:#688dc6;stop-opacity:1"/><stop offset="1" style="stop-color:#688dc6;stop-opacity:0"/></linearGradient><linearGradient id="i"><stop offset="0" style="stop-color:#92aad5;stop-opacity:1"/><stop offset="1" style="stop-color:#92aad5;stop-opacity:0"/></linearGradient><linearGradient id="h"><stop offset="0" style="stop-color:#557dbe;stop-opacity:1"/><stop offset="1" style="stop-color:#557dbe;stop-opacity:0"/></linearGradient><linearGradient id="g"><stop offset="0" style="stop-color:#f3f2f2;stop-opacity:1"/><stop offset="1" style="stop-color:#f3f2f2;stop-opacity:0"/></linearGradient><linearGradient id="f"><stop offset="0" style="stop-color:#ddcba7;stop-opacity:.37552275"/><stop offset="1" style="stop-color:#ddcba7;stop-opacity:0"/></linearGradient><linearGradient id="e"><stop offset="0" style="stop-color:#f9f2e2;stop-opacity:1"/><stop offset="1" style="stop-color:#f9f2e2;stop-opacity:0"/></linearGradient><linearGradient id="d"><stop offset="0" style="stop-color:#f9f2e2;stop-opacity:1"/><stop offset="1" style="stop-color:#ecdeb9;stop-opacity:1"/></linearGradient><linearGradient id="c"><stop offset="0" style="stop-color:#688ec8;stop-opacity:.37536356"/><stop offset="1" style="stop-color:#688ec8;stop-opacity:0"/></linearGradient><linearGradient id="b"><stop offset="0" style="stop-color:#85a3d2;stop-opacity:1"/><stop offset="1" style="stop-color:#5a82c2;stop-opacity:1"/></linearGradient><linearGradient id="a"><stop offset="0" style="stop-color:#d1dcee;stop-opacity:1"/><stop offset="1" style="stop-color:#85a3d2;stop-opacity:0"/></linearGradient><linearGradient xlink:href="#a" id="B" x1="60.674" x2="63.569" y1="29.471" y2="33.34" gradientUnits="userSpaceOnUse"/><linearGradient xlink:href="#b" id="x" x1="57.28" x2="88.371" y1="310.782" y2="314.132" gradientUnits="userSpaceOnUse"/><linearGradient xlink:href="#c" id="C" x1="61.246" x2="64.619" y1="31.303" y2="38.795" gradientUnits="userSpaceOnUse"/><linearGradient xlink:href="#d" id="D" x1="33.278" x2="72.877" y1="122.088" y2="197.056" gradientUnits="userSpaceOnUse"/><linearGradient xlink:href="#e" id="E" x1="184.998" x2="170.866" y1="248.261" y2="231.183" gradientUnits="userSpaceOnUse"/><linearGradient xlink:href="#f" id="w" x1="11.35" x2="15.313" y1="222.286" y2="217.906" gradientUnits="userSpaceOnUse"/><linearGradient xlink:href="#g" id="F" x1="-9.36" x2="28.612" y1="138.312" y2="141.561" gradientUnits="userSpaceOnUse"/><linearGradient xlink:href="#h" id="G" x1="59.654" x2="63.982" y1="83.011" y2="81.227" gradientUnits="userSpaceOnUse"/><linearGradient xlink:href="#i" id="z" x1="-14.934" x2="150.867" y1="62.726" y2="104.229" gradientUnits="userSpaceOnUse"/><linearGradient xlink:href="#j" id="I" x1="152.426" x2="141.84" y1="327.252" y2="326.61" gradientUnits="userSpaceOnUse"/><linearGradient xlink:href="#k" id="y" x1="1.604" x2="182.307" y1="122.269" y2="122.269" gradientUnits="userSpaceOnUse"/><linearGradient xlink:href="#l" id="H" x1="129.083" x2="125.98" y1="332.451" y2="338.855" gradientUnits="userSpaceOnUse"/><linearGradient xlink:href="#m" id="K" x1="228.99" x2="221.041" y1="235.091" y2="204.944" gradientUnits="userSpaceOnUse"/><linearGradient xlink:href="#n" id="L" x1="245.98" x2="191.251" y1="95.016" y2="118.619" gradientUnits="userSpaceOnUse"/><linearGradient xlink:href="#o" id="M" x1="36.064" x2="50.736" y1="23.713" y2="51.463" gradientUnits="userSpaceOnUse"/><linearGradient xlink:href="#p" id="N" x1="256.087" x2="233.775" y1="148.693" y2="170.871" gradientUnits="userSpaceOnUse"/><linearGradient xlink:href="#q" id="O" x1="162.36" x2="184.974" y1="83.326" y2="104.607" gradientUnits="userSpaceOnUse"/><linearGradient xlink:href="#r" id="P" x1="177.108" x2="185.542" y1="127.071" y2="139.052" gradientUnits="userSpaceOnUse"/><linearGradient xlink:href="#s" id="J" x1="199.343" x2="208.436" y1="145.598" y2="167.426" gradientUnits="userSpaceOnUse"/><linearGradient xlink:href="#t" id="Q" x1="71.948" x2="72.583" y1="120.013" y2="93.5" gradientUnits="userSpaceOnUse"/><linearGradient xlink:href="#u" id="R" x1="22.135" x2="29.633" y1="97.959" y2="80.547" gradientUnits="userSpaceOnUse"/><linearGradient xlink:href="#a" id="A" x1="60.674" x2="63.569" y1="29.471" y2="33.34" gradientUnits="userSpaceOnUse"/><radialGradient xlink:href="#v" id="S" cx="68.439" cy="67.825" r="53.917" fx="68.439" fy="67.825" gradientTransform="translate(3.336 13.173)" gradientUnits="userSpaceOnUse"/></defs><rect width="3000" height="3600" ry=".019" style="opacity:1;fill:#fcfaf3;fill-opacity:1;stroke:none;stroke-width:3;stroke-linecap:round;stroke-linejoin:round;stroke-opacity:1"/><path d="M1011.159 777.729c-8.535.445-17.354 1.985-26.303 4.113-6.221 1.394-12.143 3.034-17.556 4.988q-1.478.539-2.961 1.111c-3.561 1.375-6.439 2.985-9.623 4.504-2.53 1.207-5.292 2.293-7.582 3.55-3.375 1.848-6.08 3.672-8.928 5.528-1.82 1.186-3.917 2.352-5.52 3.5-2.684 1.923-4.639 3.57-6.71 5.276-1.114.917-2.544 1.943-3.48 2.765-1.802 1.584-2.831 2.623-3.968 3.737-.519.509-1.449 1.333-1.826 1.719-3.105 3.173-9.53 10.292-15.93 20.066-.877 1.337-1.65 2.854-2.517 4.291-1.459 2.417-2.956 4.684-4.32 7.361l.261.045c-6.198 12.082-11.169 26.391-10.808 42.26-.355.182-.638.425-.993.607-11.925 6.131-23.598 12.498-34.953 19.127a172.162 106.402 0 0 0 2.262.926c-20.658 12.054-42.004 23.6-60.572 37.15-17.734 13.3-37.78 27.959-54.55 43.38l-.007.005a289 289 0 0 0-4.996 4.698l.006.004c-14.447 13.934-26.024 27.933-32.78 37.113-6.108 8.3-8.273 12.656-11.351 14.928a9.6 9.6 0 0 1-2.338 1.262c-2.313.867-5.396 1.11-9.08 1.15s-7.967-.122-12.68-.064c-15.784.191-43.712 4.852-71.086 16.93-20.276 8.945-40.25 21.957-54.756 40.234a105 105 0 0 0-5.865 8.16h-.002c-4.286 6.612-7.707 13.959-10.418 21.826-.433 1.259-1.018 2.404-1.406 3.695-.254.849-.356 1.804-.59 2.667l-.015.066c-4.922 18.182-5.413 39.501.898 64.646.392 1.56 1.066 3.276 1.51 4.865.37 1.324.85 2.709 1.256 4.053.173.575.356 1.154.537 1.732 3.169 10.165 7.029 20.706 12.414 32.041.717 4.196-19.946 38.65-42.574 97.534h-.002c-45.197 117.612-98.23 332.688-4.358 598.754h.006q.621 1.761 1.252 3.525h.002a559 559 0 0 0 29.563 68.227c10.749 20.912 22.355 40.402 34.693 59.685v.014c21.182 33.103 43.556 63.556 66.887 91.559-15.489 8.862-30.11 26.963-44.744 40.693-10.496 10.359-20.037 22.625-30.124 38.436-9.73 15.252-19.665 33.551-25.638 47.2a183.39 158.447 0 0 1-.147-.1c-.27.615-.524 1.208-.777 1.801l-.016.03c-3.296 7.743-5.083 13.719-4.318 18.775a13.8 13.8 0 0 0 .898 3.244 14.5 14.5 0 0 0 1.725 3.027c1.08 1.47 2.494 2.878 4.283 4.258 9.541 7.36 29.71 13.906 52.473 17.45s48.113 4.09 71.557 3.681c23.443-.41 44.977-1.774 65.013-5.727 20.037-3.952 38.58-10.492 52.346-16.898 6.477-3.014 11.898-5.998 16.262-8.98 311.72 219.755 687.108 156.352 732.469 148.146 22.028-3.985 35.905-7.114 47.2-8.258 8.08-.813 14.838-.606 22.311 1.02.04.01.1.012.143.017 5.914 1.3 14.263 4.635 24.607 9.346 27.095 12.338 67.88 34.114 114.48 53.462 60.27 25.025 130.258 45.987 192.928 37.227 93.52-13.073 123.824-38.734 119.358-75.207s-43.695-83.747-89.227-140.002a374 374 0 0 0-5.3-6.754c-4.703-6.33-5.24-8.678-2.66-10.258l.04-.029h.01q.32-.191.7-.369.38-.176.818-.336c4.093-1.49 11.892-1.828 20.836.438q3.71 1.085 7.426 2.123c.02.01.043.01.064.014a628 628 0 0 0 14.3 3.808c.13.032.262.047.393.08.044-.2.054-.51.094-.724 70.698 17.88 142.271 23.621 214.463 19.693 25.744-1.4 51.562-3.936 77.433-7.422 98.044-11.975 209.33-74.553 263.198-122.66 5.04-4.5 12.732-11.651 21.683-20.736 2.65-2.688 5.69-6.43 8.531-9.453 6.572-6.99 13.113-13.749 20.098-22.268.125-.152.244-.33.37-.482.313-.384.617-.817.93-1.203 1.643-2.023 3.194-4.14 4.827-6.233 2.546-3.263 5.121-6.41 7.61-9.83l-.04-.133c.963-1.322 1.934-2.564 2.883-3.908 3.01-4.26 5.75-8.755 8.576-13.207 1.962-3.089 4.05-6.05 5.891-9.217 2.947-5.068 5.421-10.319 7.975-15.55 1.361-2.79 2.977-5.486 4.203-8.311.14-.321.245-.645.383-.967 3.296-7.708 6.104-15.525 8.158-23.396 5.724-21.945 2.177-36.934-5.729-50.836-7.905-13.903-20.166-26.712-34.205-39.116-17.235-14.692-35.817-27.177-55.379-37.693a351 351 0 0 0-30.029-14.328 384 384 0 0 0-31.22-11.55 15 15 0 0 0-.442-.151c-12.504-4.013-25.363-6.895-38.215-9.748-3.884-.863-7.64-2.195-11.547-2.957-.028-.01-.056-.01-.084-.012-16.96-3.305-34.11-5.69-51.287-7.248-.01 0-.02-.01-.03-.01q-.466-.12-.915-.245h-.01c-4.848-1.349-8.412-3.426-11.588-6.056-1.588-1.315-3.079-2.768-4.586-4.338s-3.029-3.259-4.68-5.041a160 160 0 0 0-10.019-9.926c-7.367-6.674-16.196-13.382-27.01-19.64-5.406-3.13-11.31-6.145-17.773-8.989-1.601-.704-3.566-1.286-5.236-1.969-5.077-2.072-10.152-4.15-15.91-5.984-5.465-1.74-11.658-3.199-17.786-4.68-2.455-.593-4.56-1.328-7.127-1.875-17.933-3.819-38.635-6.464-62.623-7.457h-.057c-9.41-.388-14.316-17.237-14.318-17.244-2.409-88.65-12.161-183.269-29.203-277.998-9.22-51.348-19.358-102.326-34.473-152.648-10.81-35.99-23.674-71.223-37.992-105.819-4.127-9.971-8.888-19.542-13.328-29.359a912 912 0 0 0-37.744-74.283c-7.983-14.074-15.783-28.2-24.563-41.772-3.586-5.543-7.11-11.1-10.834-16.552-15.736-23.045-32.502-45.38-50.795-66.614-.76-.882-1.346-1.89-2.111-2.77-6.561-7.54-13.82-14.548-20.723-21.831-6.29-6.637-12.302-13.48-18.88-19.89-8.713-8.492-18.122-16.417-27.354-24.491-6.555-5.732-12.768-11.739-19.59-17.25-1.216-.982-2.44-1.955-3.664-2.93l-.039-.16c-9.457-7.527-19.707-14.378-29.684-21.465-6.156-4.372-11.907-9.089-18.265-13.287-.52-.343-1.027-.698-1.549-1.04-15.37-10.089-31.568-19.45-48.145-28.466-1.104-.6-2.098-1.3-3.209-1.896-1.244-.668-2.338-1.47-3.59-2.131l-.01.004c-54.446-28.795-115.408-51.676-183.609-67.36-34.1-7.841-70.012-13.883-107.824-17.964-37.812-4.082-77.525-6.203-119.23-6.203q-10.056.002-20.108.236a938.6 938.6 0 0 0-158.098 9.87l-.014-.005a929 929 0 0 0-34.755 5.82c-28.86-20.704-65.714-37.53-107.897-35.33z" style="fill:#ecdfba;fill-opacity:.490881;stroke-width:24.1673;stroke-linecap:round;stroke-linejoin:round"/><path d="M18.946 205.165c-1.303 1.286-2.487 2.809-3.74 4.771-1.251 1.963-2.571 4.366-3.299 6.075-.727 1.708-.863 2.724.322 3.637 1.184.914 3.688 1.726 6.514 2.166s5.972.507 8.883.457c2.91-.051 5.583-.22 8.07-.71 2.487-.492 4.788-1.304 6.497-2.099 1.71-.795 2.826-1.573 3.35-2.369.525-.795.457-1.607-2.96-5.059-3.418-3.451-10.186-9.542-13.74-11.894-3.662-2.43-6.778 2.098-9.897 5.025" style="fill:#ecdfba;fill-opacity:1;stroke-width:3;stroke-linecap:round;stroke-linejoin:round" transform="translate(384.968 554.986)scale(8.05576)"/><path d="M44.404 213.984a22.765 19.669 0 0 1-17.222 6.807 22.765 19.669 0 0 1-15.176-5.008l-.098.227c-.727 1.709-.864 2.725.32 3.638 1.185.914 3.689 1.727 6.514 2.166 2.826.44 5.973.508 8.883.457s5.583-.22 8.07-.71c2.488-.491 4.79-1.303 6.498-2.098 1.71-.795 2.825-1.574 3.35-2.37.407-.617.458-1.244-1.139-3.109" style="fill:url(#w);fill-opacity:.375523;stroke-width:3;stroke-linecap:round;stroke-linejoin:round" transform="translate(384.968 554.986)scale(8.05576)"/><path d="M61.418 308.503c.594-.607 2.601-2.518 5.913-3.797 7.733-2.985 14.451-.325 19.314 3.196-.254.136-.508.271-3.3 1.168s-8.12 2.555-12.977 4.187c-4.856 1.633-13.063 4.893-13.063 4.893-.35-4.74 3.157-8.67 4.113-9.647" style="fill:url(#x);fill-opacity:1;stroke-width:3;stroke-linecap:round;stroke-linejoin:round" transform="translate(384.968 -1672.701)scale(8.05576)"/><path d="M112.975 29.314q-1.25 0-2.496.03c-24.946-.554-48.427 6.97-64.897 18.99-2.201 1.651-4.69 3.47-6.771 5.385-2.082 1.914-3.757 3.923-4.69 5.191s-1.125 1.795-1.7 2.01c-.573.215-1.53.12-2.7.135-5.867.07-25.247 5.119-15.83 24.941.268 1.564-23.452 37.076-5.67 86.871 2.214 6.202 4.913 11.091 7.976 15.88 39.35 61.497 111.827 49.278 118.94 47.991 4.702-.85 6.413-1.387 8.646-.896 5.144 1.13 25.124 14.667 41.215 12.418 11.61-1.623 15.37-4.809 14.816-9.336s-5.424-10.396-11.076-17.38c-1.173-1.45-1.405-1.86-.982-2.114s1.506-.355 2.775-.034c12.791 3.744 25.838 3.956 39 2.182 12.17-1.486 25.985-9.255 32.672-15.226 2.56-2.286 10.574-9.944 12.672-17.987.71-2.724.27-4.584-.71-6.31-.982-1.726-2.504-3.316-4.247-4.856-7.601-6.48-17.315-9.502-27.088-10.388-1.286-.322-1.861-1.034-2.707-1.948-2.998-3.237-8.378-7.021-20.303-7.513-1.168-.049-1.723-.165-1.777-2.141-1.462-53.817-19.41-125.894-105.068-125.895" style="fill:#688ec8;fill-opacity:1;stroke-width:3;stroke-linecap:round;stroke-linejoin:round" transform="translate(384.968 554.986)scale(8.05576)"/><path d="M112.975 29.314q-1.25 0-2.496.03c-24.946-.554-48.427 6.97-64.897 18.99-2.201 1.651-4.69 3.47-6.771 5.385-2.082 1.914-3.757 3.923-4.69 5.191s-1.125 1.795-1.7 2.01c-.573.215-1.53.12-2.7.135-5.867.07-25.247 5.119-15.83 24.941.268 1.564-23.452 37.076-5.67 86.871 2.214 6.202 4.913 11.091 7.976 15.88 6.796 10.62 14.58 19.043 22.846 25.702a129 129 0 0 0 14.105.774A129.157 129.157 0 0 0 182.307 86.066a129.2 129.2 0 0 0-5.389-36.914c-15.306-12.182-36.029-19.837-63.943-19.838" style="opacity:1;fill:url(#y);fill-opacity:1;stroke:none;stroke-width:3;stroke-linecap:round;stroke-linejoin:round;stroke-opacity:1" transform="translate(384.968 554.986)scale(8.05576)"/><path d="M112.975 29.314q-1.25 0-2.496.03c-24.946-.554-48.427 6.97-64.897 18.99-2.201 1.651-4.69 3.47-6.771 5.385-2.082 1.914-3.757 3.923-4.69 5.191s-1.125 1.795-1.7 2.01c-.573.215-1.53.12-2.7.135-5.867.07-25.247 5.119-15.83 24.941.268 1.564-23.452 37.076-5.67 86.871 2.214 6.202 4.913 11.091 7.976 15.88 7.837 12.246 16.986 21.57 26.672 28.638a124.5 124.5 0 0 0 26.06 2.76A124.45 124.45 0 0 0 193.382 95.693a124.5 124.5 0 0 0-5.26-35.797c-15.887-18.26-39.728-30.581-75.146-30.582" style="opacity:1;fill:url(#z);fill-opacity:1;stroke:none;stroke-width:3;stroke-linecap:round;stroke-linejoin:round;stroke-opacity:1" transform="translate(384.968 554.986)scale(8.05576)"/><path d="M130.467 36.236c-2.762-.145-11.592-.318-13.88 3.229a25 25 0 0 1 2.436-1.04c8.911-3.282 28.58-1.784 26.893 13.03a21.2 21.2 0 0 1-2.291 7.479c-1.25 2.375-3 4.584-5.271 5.918-.919.539-1.92.933-3.112 1.068 2.066.213 3.61-.27 4.969-1.068 2.27-1.334 4.02-3.543 5.27-5.918a21.2 21.2 0 0 0 2.292-7.479c1.529-11.162-8.43-14.75-17.306-15.219" style="fill:#658bc6;fill-opacity:1;stroke:none;stroke-width:3;stroke-linecap:round;stroke-linejoin:round;stroke-opacity:1" transform="translate(384.968 554.986)scale(8.05576)"/><path d="M71.775 27.082c-5.982.687-9.533 4.044-10.357 4.887a16.8 16.8 0 0 0-2.826 3.937 11 11 0 0 0 2.424.274 10.91 10.91 0 0 0 10.76-9.098" style="fill:url(#A);fill-opacity:1;stroke-width:3;stroke-linecap:round;stroke-linejoin:round" transform="translate(384.968 554.986)scale(8.05576)"/><path d="M71.775 27.082c-5.982.687-9.533 4.044-10.357 4.887a16.8 16.8 0 0 0-2.826 3.937 11 11 0 0 0 2.424.274 10.91 10.91 0 0 0 10.76-9.098" style="fill:url(#B);fill-opacity:1;stroke-width:3;stroke-linecap:round;stroke-linejoin:round" transform="translate(384.968 554.986)scale(8.05576)"/><path d="M86.928 31.303C74.33 33.57 62.678 37.852 52.82 43.607a21.371 13.208 0 0 0 12.934 2.694 21.371 13.208 0 0 0 21.371-13.21 21.371 13.208 0 0 0-.197-1.788" style="mix-blend-mode:multiply;fill:url(#C);fill-opacity:.449865;stroke-width:3;stroke-linecap:round;stroke-linejoin:round" transform="translate(384.968 554.986)scale(8.05576)"/><path d="M192.7 539.11q-.13.03-.257.067a3 3 0 0 0-.285.146c-1.636.946-3.99 2.45-4.408 3.998l.006-.004c.423-.254 1.506-.354 2.775-.033q1.35.396 2.705.738l.05.01c.28-1.29-.1-4.914-.575-4.921z" style="fill:#4372b8;fill-opacity:1;stroke-width:3;stroke-linecap:round;stroke-linejoin:round" transform="translate(384.968 -2054.177)scale(8.05576)"/><path d="M13.89 362.53c.27 1.564-23.451 37.075-5.67 86.87 2.215 6.202 4.914 11.092 7.977 15.88 39.35 61.497 111.827 49.278 118.94 47.992 4.702-.851 6.413-1.388 8.646-.897 5.144 1.13 25.124 14.667 41.215 12.418 11.61-1.623 15.37-4.808 14.816-9.336-.554-4.527-5.424-10.396-11.076-17.379-3.19-4.162-7.373-8.197-12.7-10.392-.456-.682-.095-1.377.228-3.41s.609-5.408.8-8.579c.418-6.915.57-23.711-5.629-41.988-10.743-28.834-33.386-50.252-62.996-58.232-1.89-.622-2.656-.981-3.134-1.053-.479-.072-.67.142-1.245.644-.574.503-1.531 1.294-3.697 2.622-18.999 11.65-35.994 5.482-49.174-5.29-2.09-1.708-3.697-3.283-4.738-4.171-1.04-.889-1.514-1.091-2.123-1.05-.609.043-1.355.331-2.43.763-1.074.431-2.478 1.007-4.187 1.345-3.021.599-15.106 1.882-23.822-6.758" style="opacity:1;fill:#ecdeb9;fill-opacity:1;stroke-width:3;stroke-linecap:round;stroke-linejoin:round" transform="translate(384.968 -1672.701)scale(8.05576)"/><path d="M13.89 85.996c.269 1.565-23.451 37.077-5.67 86.871 2.215 6.202 4.914 11.091 7.977 15.88v.001c6.782 10.599 14.55 19.007 22.795 25.66 10.095 2.466 20.923 2.241 31.326 2.246 42.89.001 81.743-25.304 99.082-64.533a99 99 0 0 0-4.755-9.521 96 96 0 0 0-5.67-8.817c-12.223-16.892-29.644-29.21-50.534-34.84-1.89-.622-2.656-.98-3.134-1.052-.479-.072-.67.142-1.244.644-.575.503-1.532 1.293-3.698 2.621-18.999 11.651-35.994 5.483-49.174-5.289-2.09-1.709-3.697-3.283-4.738-4.172-1.04-.888-1.514-1.09-2.123-1.048s-1.355.33-2.43.761c-1.074.432-2.478 1.008-4.187 1.346-1.51.3-5.287.77-9.775.086-2.245-.342-4.667-.973-7.073-2.059a23.7 23.7 0 0 1-6.974-4.785" style="fill:url(#D);stroke-width:3;stroke-linecap:round;stroke-linejoin:round" transform="translate(384.968 554.986)scale(8.05576)"/><path d="M44.553 90.643a2 2 0 0 0-.223.003c-.609.043-1.355.33-2.43.762-1.074.432-2.478 1.008-4.187 1.346-1.666.33-6.087.867-11.18-.164a45.79 32.08 0 0 0 41.877 19.105 45.79 32.08 0 0 0 37.477-13.646 3.5 3.5 0 0 0-.58-.158c-.479-.072-.67.142-1.245.644-.574.503-1.531 1.293-3.697 2.621-18.999 11.651-35.994 5.483-49.174-5.289-2.09-1.709-3.697-3.283-4.738-4.172-.91-.777-1.387-1.03-1.9-1.052" style="display:inline;opacity:1;fill:#ecdeb9;fill-opacity:.429208;stroke-width:3.58421;stroke-linecap:round;stroke-linejoin:round" transform="translate(384.968 554.986)scale(8.05576)"/><path d="M65 104.379c-.709 4.971.31 10.128 1.662 14.928.44 1.42.948 2.334 1.777 2.435 1.868.229 11.66-8.628 14.237-14.431-6.249.547-12.168-.63-17.676-2.932" style="fill:#f6f7f9;fill-opacity:1;stroke-width:3;stroke-linecap:round;stroke-linejoin:round" transform="translate(384.968 554.986)scale(8.05576)"/><path d="M16.3 88.084c-.568 4.688.026 9.549.89 14.137.333 1.564.772 2.583 1.591 2.75 1.575.32 9.399-6.107 13.524-11.782-4.45-.047-10.612-1.04-16.004-5.105" style="fill:#f6f7f9;fill-opacity:1;stroke-width:3.12034;stroke-linecap:round;stroke-linejoin:round" transform="translate(384.968 554.986)scale(8.05576)"/><path d="M65 104.379a23 23 0 0 0-.205 2.21c5.173 2.194 10.71 3.398 16.545 3.112.545-.83 1.001-1.636 1.336-2.39-6.249.547-12.168-.63-17.676-2.932" style="display:inline;opacity:1;fill:#dce3f2;fill-opacity:.509804;stroke-width:3;stroke-linecap:round;stroke-linejoin:round" transform="translate(384.968 554.986)scale(8.05576)"/><path d="M16.3 88.084a30 30 0 0 0-.18 2.158c4.752 3.657 10.13 4.893 14.413 5.178a36 36 0 0 0 1.772-2.23c-4.45-.048-10.612-1.041-16.004-5.106" style="display:inline;opacity:1;fill:#dce3f2;fill-opacity:.510746;stroke-width:3;stroke-linecap:round;stroke-linejoin:round" transform="translate(384.968 554.986)scale(8.05576)"/><path d="M132.887 501.293c2.076 3.71 3.782 8.26 6.914 11.115 1.588-.257 2.693-.311 3.965-.035l.017.002c.734.161 1.77.576 3.055 1.16-2.095-1.65-4.19-3.3-6.016-4.818a94 94 0 0 1-4.658-4.121c-1.278-1.216-2.277-2.26-3.277-3.303" style="fill:#ddcba7;fill-opacity:1;stroke-width:3;stroke-linecap:round;stroke-linejoin:round" transform="translate(384.968 -1672.701)scale(8.05576)"/><path d="M187.05 219.598a30.05 30.05 0 0 0-26.001 24.04c7.481 3.107 16.17 5.71 23.95 4.622 11.608-1.623 15.37-4.809 14.815-9.336s-5.424-10.396-11.076-17.38a79 79 0 0 0-1.687-1.946" style="opacity:1;fill:url(#E);fill-opacity:1;stroke-width:3;stroke-linecap:round;stroke-linejoin:round" transform="translate(384.968 554.986)scale(8.05576)"/><path d="M242.713 467.755c-3.794-.105-7.109.603-9.656 2.416-1.867 1.328-2.966 3.218-3.887 5.228s-1.663 4.14-2.764 6.4c-1.1 2.262-2.561 4.655-3.842 6.174-1.28 1.52-2.379 2.165-2.93 2.715-.55.55-.551 1.006-.3 1.03.251.023.756-.383 1.533-.946.778-.562 1.83-1.279 2.895-2.344s2.141-2.477 2.87-3.59 1.114-1.926 1.772-3.517 1.592-3.96 2.477-5.707 1.722-2.87 2.894-3.768 2.68-1.567 5.278-1.95c2.597-.385 6.282-.484 10.36-.16 2.177.172 4.458.466 6.384.68-.14-.045-.273-.107-.412-.152-4.061-1.303-8.302-2.092-12.555-2.478z" style="opacity:1;fill:#4372b8;fill-opacity:1;stroke-width:3;stroke-linecap:round;stroke-linejoin:round" transform="translate(384.968 -1869.6)scale(8.05576)"/><path d="M213.406 473.443c-1.303 3.688-2.791 7.343-4.314 11.1-1.523 3.755 11.845-23.933 10.728-23.98-1.168-.048-1.777-2.14-1.777-2.14s-.663 3.768-4.637 15.02" style="fill:#4372b8;fill-opacity:1;stroke-width:3;stroke-linecap:round;stroke-linejoin:round" transform="translate(384.968 -1887.634)scale(8.05576)"/><path d="M8.605 98.104c-5.61 14.6-12.193 41.298-.54 74.326a37.77 37.77 0 0 0 31.308-37.213A37.77 37.77 0 0 0 8.605 98.104" style="opacity:.3;fill:url(#F);fill-opacity:1;stroke-width:3;stroke-linecap:round;stroke-linejoin:round" transform="translate(384.968 554.986)scale(8.05576)"/><path d="m64.088 80.504-.016.045a.66.66 0 0 1-.367.365c-.248.11-.475.12-.775.12a3 3 0 0 0-.637.185 9 9 0 0 0-1.027.5c-.35.196-.682.41-.928.595-.2.152-.337.327-.363.344l-.002.002h-.002c-.132.301-.407.42-.623.473a1.7 1.7 0 0 1-.752.012c2.391 1.025 5.491-.315 5.492-2.641" style="opacity:1;fill:url(#G);fill-opacity:1;stroke-width:3.34951;stroke-linecap:round;stroke-linejoin:round" transform="translate(384.968 554.986)scale(8.05576)"/><path d="M62.877 79.52c-.898.014-2.09.384-3.139.859-.524.237-1.001.501-1.377.787-.375.285-.728.577-.728 1.107 0 .349.247.578.445.692.199.113.405.167.62.195.213.028.43.027.65-.027.216-.054.491-.173.623-.477v.004h.002l.002-.002c.026-.017.163-.192.363-.344.246-.186.579-.4.928-.595a9 9 0 0 1 1.027-.5 3 3 0 0 1 .637-.186c.3 0 .528-.009.775-.119a.66.66 0 0 0 .367-.365.68.68 0 0 0-.062-.57.93.93 0 0 0-.537-.39 1.9 1.9 0 0 0-.596-.07z" style="baseline-shift:baseline;display:inline;overflow:visible;vector-effect:none;fill:#253f66;fill-opacity:1;stop-color:#000" transform="translate(384.968 554.986)scale(8.05576)"/><path d="M35.19 78.072h-.014c-.378-.017-.575-.28-.766-.556a5.2 5.2 0 0 1-.515-1.008c-.304-.763-.527-1.625-.508-2.266v-.002c.004-.147.02-.287.068-.422a.7.7 0 0 1 .182-.287 2.44 2.046 86.718 0 0-1.385 2.444 2.44 2.046 86.718 0 0 2.182 2.32 2.44 2.046 86.718 0 0 .755-.223" style="opacity:.3;fill:#557dbe;fill-opacity:1;stroke-width:3.27671;stroke-linecap:round;stroke-linejoin:round" transform="translate(384.968 554.986)scale(8.05576)"/><path d="M33.386 74.24c-.02.642.205 1.505.509 2.268.152.382.325.731.516 1.008.19.277.387.539.766.557.248.011.42-.157.507-.295a1.2 1.2 0 0 0 .16-.435c.027-.152.034-.306.002-.465-.03-.157-.107-.357-.319-.46h.002v-.002c-.012-.02-.132-.124-.234-.271a6 6 0 0 1-.394-.682 7 7 0 0 1-.322-.749 2 2 0 0 1-.112-.46c.01-.214.011-.377-.059-.557a.47.47 0 0 0-.248-.274.48.48 0 0 0-.41.025.67.67 0 0 0-.294.37 1.4 1.4 0 0 0-.07.423z" style="baseline-shift:baseline;display:inline;overflow:visible;vector-effect:none;fill:#253f66;fill-opacity:1;stroke-width:.714023;stop-color:#000" transform="translate(384.968 554.986)scale(8.05576)"/><path d="M111.342 319.403c1.541-2.438 4.537-4.17 7.681-5.328 8.91-3.283 28.58-1.785 26.894 13.03a21.2 21.2 0 0 1-2.292 7.478c-1.25 2.375-3 4.584-5.27 5.917-2.272 1.333-5.063 1.792-9.938-.417s-11.834-7.083-15.27-11.092c-3.434-4.008-3.347-7.15-1.805-9.588" style="fill:url(#H);fill-opacity:1;stroke:none;stroke-width:3;stroke-linecap:round;stroke-linejoin:round;stroke-opacity:1" transform="translate(384.968 -1665.578)scale(8.05576)"/><path d="M122.114 48.544c-.342.002-.636.022-.914.207-.344.23-.414.627-.323.937a.68.68 0 0 0 .323.425c.19.105.465.081.642-.028a.4.4 0 0 0-.05.033h-.002v.002l.002.002h.002c.016.001.096-.017.203.001.172.03.417.1.689.199a9.6 9.6 0 0 1 1.772.88l.022.013.023.012c.903.434 1.462 1.127 1.922 1.979s.8 1.853 1.247 2.814l.363.782.746-1.417c.868-1.657-.125-4.33-3.073-5.908-1.072-.575-2.564-.939-3.592-.932z" style="baseline-shift:baseline;display:inline;overflow:visible;vector-effect:none;fill:#253f66;fill-opacity:1;stroke-width:.853547;stop-color:#000" transform="translate(384.968 554.986)scale(8.05576)"/><path d="M137.998 314.356a21.46 21.46 0 0 1 3.842 12.254 21.46 21.46 0 0 1-5.98 14.863 7.9 7.9 0 0 0 2.494-.972c2.27-1.334 4.021-3.543 5.271-5.918s2-4.916 2.291-7.479c.766-6.733-2.877-10.715-7.918-12.748" style="fill:url(#I);fill-opacity:1;stroke:none;stroke-width:3;stroke-linecap:round;stroke-linejoin:round;stroke-opacity:1" transform="translate(384.968 -1665.578)scale(8.05576)"/><path d="M208.436 167.426c-2.688 2.463-5.999 2.602-8.436-2.561-1.146-2.428-1.98-5.865-2.23-9.146s.084-6.406.72-8.334c.89-2.697 2.785-4.135 4.863-3.339 5.512 2.11 11.469 17.528 5.083 23.38" style="fill:url(#J);fill-opacity:1;stroke:none;stroke-width:3;stroke-linecap:round;stroke-linejoin:round;stroke-opacity:1" transform="translate(384.968 554.986)scale(8.05576)"/><path d="M230.88 174.639a48.39 48.39 0 0 0-40.165 21.402 41 41 0 0 0-1.393 10.586 40.9 40.9 0 0 0 2.131 13.033c12.496 3.489 25.232 3.65 38.078 1.918 12.17-1.486 25.985-9.255 32.672-15.226 1.52-1.358 4.965-4.612 7.951-8.715a41 41 0 0 0-1.341-4.655 48.39 48.39 0 0 0-37.932-18.343" style="opacity:1;fill:url(#K);fill-opacity:1;stroke:none;stroke-width:3;stroke-linecap:round;stroke-linejoin:round;stroke-opacity:1" transform="translate(384.968 554.986)scale(8.05576)"/><path d="M163.953 40.676a59.89 59.89 0 0 0-34.59 54.287 60 60 0 0 0 1.494 13.295c11.077 6.44 20.585 15.115 28.118 25.525a96 96 0 0 1 5.67 8.817 99 99 0 0 1 4.416 8.748 59.9 59.9 0 0 0 20.195 3.507 59.9 59.9 0 0 0 28.474-7.2c-2.201-39.387-13.96-85.921-53.777-106.98" style="opacity:1;fill:url(#L);fill-opacity:1;stroke:none;stroke-width:3;stroke-linecap:round;stroke-linejoin:round;stroke-opacity:1" transform="translate(384.968 554.986)scale(8.05576)"/><path d="M81.111 32.443c-13.536 3.22-25.765 8.765-35.529 15.891-2.201 1.651-4.69 3.47-6.771 5.385q-.319.291-.622.584a29 29 0 0 0 14.137 3.68 28.99 28.99 0 0 0 28.785-25.54" style="opacity:1;fill:url(#M);fill-opacity:1;stroke:none;stroke-width:3;stroke-linecap:round;stroke-linejoin:round;stroke-opacity:1" transform="translate(384.968 554.986)scale(8.05576)"/><path d="M213.594 158.393c0 23.795 19.29 43.085 43.086 43.086 3.98 0 7.94-.552 11.77-1.64 2.675-3.262 5.34-7.316 6.425-11.474.71-2.724.27-4.585-.71-6.31-.982-1.726-2.504-3.316-4.247-4.856-7.601-6.48-17.315-9.502-27.088-10.388-1.286-.322-1.861-1.034-2.707-1.948-2.998-3.237-8.378-7.021-20.303-7.513-1.168-.049-1.723-.165-1.777-2.141z" style="opacity:1;fill:url(#N);fill-opacity:1;stroke:none;stroke-width:3;stroke-linecap:round;stroke-linejoin:round;stroke-opacity:1" transform="translate(384.968 554.986)scale(8.05576)"/><path d="M185.685 97.042c.308 2.995.308 5.465-.71 7.565-1.02 2.1-3.057 3.828-5.59 3.797-4.033-.049-9.346-5.317-13.032-11.42-15.195-25.162 16.251-27.396 19.332.058" style="fill:url(#O);fill-opacity:1;stroke:none;stroke-width:3.14396;stroke-linecap:round;stroke-linejoin:round;stroke-opacity:1" transform="translate(384.968 554.986)scale(8.05576)"/><path d="M181.063 140.146c-.5-.313-.75-.48-1.428-1.24s-1.78-2.114-2.53-3.844c-4.53-10.44 7.467-14.756 8.958-.968.208 1.927.041 3.76-.521 4.958s-1.521 1.76-2.375 1.813-1.604-.407-2.104-.72" style="fill:url(#P);fill-opacity:1;stroke:none;stroke-width:3;stroke-linecap:round;stroke-linejoin:round;stroke-opacity:1" transform="translate(384.968 554.986)scale(8.05576)"/><path d="M74.777 59.75a30.76 30.76 0 0 0-30.76 30.76v.178q.163-.03.313-.042c.61-.042 1.083.161 2.123 1.05 1.04.888 2.647 2.462 4.738 4.171 13.18 10.772 30.176 16.94 49.174 5.29 2.166-1.329 3.123-2.12 3.698-2.622.218-.19.38-.34.525-.447a30.8 30.8 0 0 0 .947-7.578 30.76 30.76 0 0 0-30.758-30.76" style="opacity:1;fill:url(#Q);fill-opacity:1;stroke:none;stroke-width:3;stroke-linecap:round;stroke-linejoin:round;stroke-opacity:1" transform="translate(384.968 554.986)scale(8.05576)"/><path d="M25.5 65.25a20.75 20.75 0 0 0-12.129 3.914c-2.469 3.808-3.09 9.235.52 16.832 8.716 8.64 20.8 7.356 23.822 6.758 1.709-.338 3.113-.914 4.187-1.346.898-.36 1.567-.62 2.118-.72v-.178a30.8 30.8 0 0 1 1.57-9.705A20.75 20.75 0 0 0 25.5 65.25" style="opacity:1;fill:url(#R);fill-opacity:1;stroke:none;stroke-width:3;stroke-linecap:round;stroke-linejoin:round;stroke-opacity:1" transform="translate(384.968 554.986)scale(8.05576)"/><path d="M86.992 72.194c.537.87 1.284.782 2.883-.338 3.528-2.47 8.26-1.894 11.945 1.46 4.328 3.936 5.93 3.868 2.203-.095-9.58-10.188-18.699-3.725-17.031-1.027" style="fill:#000" transform="translate(384.968 554.986)scale(8.05576)"/><path d="M50.143 62.014c-.602.434-1.107.108-1.938-1.235-1.766-2.857-4.94-3.906-7.986-2.798-3.437 1.248-4.308.732-1.265-.707 8.349-3.948 13.078 3.379 11.19 4.74" style="fill:#000;stroke-width:.746266" transform="translate(384.968 554.986)scale(8.05576)"/><path d="M90.852 30.568c-17.397 2.575-33.213 8.966-45.27 17.766-2.201 1.651-4.69 3.47-6.771 5.385-2.082 1.914-3.757 3.923-4.69 5.191s-1.125 1.795-1.7 2.01c-.573.215-1.53.12-2.7.135-1.96.023-5.426.602-8.825 2.101a53.9 53.9 0 0 0-3.037 17.842 53.917 53.917 0 0 0 53.916 53.918 53.917 53.917 0 0 0 53.916-53.918 53.92 53.92 0 0 0-34.84-50.43" style="opacity:1;mix-blend-mode:overlay;fill:url(#S);stroke:none;stroke-width:3;stroke-linecap:round;stroke-linejoin:round;stroke-opacity:1" transform="translate(384.968 554.986)scale(8.05576)"/><path d="M1011.715 399.643q1.726 2.502 2.512 6.824.298 1.516.574 3.87.224 2.24.275 4.7.05 2.46-.065 4.859-.055 2.233-.43 3.789-.56 2.332-2.472 5.022-1.497 1.807-2.635 2.617l-1.922.902q-1.13.53-2.933 1.1l-5.413 1.989-8.386 2.417q-6.19 1.801-12.222 3.942-5.972 1.974-11.739 4.68-2.487 1.168-2.275 1.62.106.226 1.601.766 1.45.148 2.684 2.19.477 1.018.782 2.255.417 1.183.435 2.692.178 1.849.62 4.262.39 2.3.88 5.107l1.083 5.837q.542 2.92 1.077 6.117.648 3.146 1.19 6.064l1.084 5.838q.655 2.866 1.045 5.167.502 2.247.906 3.99l-.226.105.8 3.764q1.72 7.195 3.674 14.004 2.067 6.756 4.307 13.293 4.652 12.855 9.827 22.706 1.44 2.774 2.78 5.042t2.914 4.151q1.52 1.77 3.546 3.441 1.972 1.558 4.783 3.136 1.993.72 3.036 1.473 1.534 1.211 1.64 1.438.584 1.243-1.214 3.88-2.536 3.122-6.228 5.545-3.579 2.369-7.197 4.067-3.505 1.645-7.329 2.61-3.77 1.08-7.686 1.262-3.75.242-7.471-.633-3.669-.762-7.137-2.86-8.636-5.467-19.16-22.602-1.128-1.816-2.044-3.18-.856-1.53-1.44-2.774-.696-1.19-1.227-2.321l-1.114-2.375-1.168-2.487q-.636-1.357-1.213-2.88-4.457-9.498-7.882-20.031-3.366-10.7-6.187-20.828-1.231-4.388-2.41-8.664-1.232-4.389-2.357-8.552-1.179-4.275-2.152-7.82-.913-3.71-1.562-6.855-3.699 2.701-6.712 4.805-3.014 2.105-5.236 3.837-2.275 1.62-4.325 3.133-2.049 1.514-4.045 3.14-1.883 1.574-3.08 2.55-1.138.81-1.65 1.188-1.936 1.46-2.236 2.29-1.597 1.302-3.3 2.377-.799.65-1.477.969l-1.13.53q-3.054 1.433-6.072 1.47t-5.902-.818q-2.824-1.02-5.408-2.705-2.524-1.85-4.59-4.193-4.069-4.85-5.757-11.094-.23-1.962-.688-3.817-.396-2.021-.627-3.982 2.046-10.342 7.478-17.582 5.38-7.353 13.31-13.972 10.101-8.465 24.75-17.822l10.19-5.334q5.094-2.667 10.296-5.108 5.2-2.44 10.508-4.655l10.615-4.429q3.325-1.146 8.897-2.796 5.573-1.649 12.149-3.217 6.69-1.622 13.704-2.844t13.164-1.348q6.262-.18 11.034 1.169 4.831 1.181 6.981 4.587M897.22 444.956q1.29-.192.971-.87-.205-.732-1.202-1.092-1.11-.307-3.937 1.02-5.155 2.833-10.624 7.055-5.355 4.169-9.488 8.592-4.18 4.03-4.92 6.861-.742 2.831 1.524 3.838 1.103.586 2.3-.39 1.085-.923 5.126-6.13 1.092-1.202 2.243-2.57 1.099-1.482 2.31-3.016 2.31-3.016 4.193-4.589 2.749-2.67 6.62-5.59 3.7-2.702 4.884-3.12m211.43 15.145q.577 1.253 1.37 3.49.911 2.195 2.121 5.609.71 2.001 1.26 3.926.626 1.766 1.05 3.338 1.207 5.27 1.304 10.404.055 5.016-.318 10.317-.563 3.645-1.285 7.214t-2.477 6.841q-4.822 10.323-11.97 16.7-2.92 2.228-6.368 3.716-3.33 1.446-6.744 2.656-3.179 1.127-5.928 1.969-2.673.683-4.841.921-2.95.649-7.052 1.043-3.983.352-8.209.392-4.268-.077-8.266-.514-4.04-.556-6.944-1.646-8.429-2.843-14.04-7.082t-10.139-11.777q-2.083-3.634-3.806-6.999-1.605-3.406-2.732-6.585-4.132-11.654-2.39-23.933.183-2.848.72-5.82.611-3.133 1.668-5.76.38-.798.718-1.713.414-1.074.904-2.308 3.294-7.529 8.391-13.709 5.098-6.18 12.173-10.146 1.017-.493 2.783-1.12 1.842-.785 4.432-1.703 3.69-1.176 6.641-1.825 3.068-.69 5.909-.902 2.916-.371 6-.272 3.04-.018 6.88.344l-.085-.235q15.002 1.572 23.28 11.093.764.657 1.409 1.356 1.082.81 1.36.843 4.927 1.566 7.827 4.513 3.018 2.906 5.394 7.364m-71.299-5.995q4.65-4.829 1.787-5.802-.638-.304-1.58.03-1.648.584-3.509 2.437-1.743 1.81-3.361 3.974t-2.918 4.48q-1.34 2.198-2.025 3.633-4.232 10.115-.891 11.315.923.733 1.295-.459l1.296-4.567q.517-1.906 1.664-3.903 1.105-2.115 2.412-4.036 1.383-2.08 2.89-3.807 1.585-1.887 2.94-3.295m53.271 19.808-1.697.071.236-.083q-2.917.371-5.316-1.163-2.282-1.577-4.058-3.597-.486-.623-.778-1.447l-.626-1.766q-.39-1.85-.436-4.219-.276-4.142-1.152-6.614-.877-2.472-2.38-2.602-2.404.322-5.17 4.483-2.689 4.001-4.019 8.846-1.365 9.23-.153 19.004 1.17 9.656 4.26 18.367l1.293 3.65q.5 1.412.869 2.077.25.706.736 1.33.604.58 1.367 1.237 1.442 1.08 2.6 1.729 1.158.65 2.15.828 1.787.559 3.823-.428.664-.368 1.211-.695l1.33-.736q1.48-1.055 2.18-1.7l-.085-.236q4.11-4.107 5.55-9.388 1.517-5.441 1.647-11.053l.084.235-1.003-9.185zm310.004-66.859q.266 3.746.484 6.238.188 1.36.184 2.244l.154 1.113.248-.034q.742-.103 2.286-1.703 1.527-1.724 3.07-3.325 1.528-1.724 3.072-3.324 1.543-1.6 2.905-1.789.99-.136 2.047.222 1.059.358 2.044 1.104 1.11.73 1.742 1.65.755.905.892 1.895.376 2.722-.715 5.772-.985 2.91-2.853 5.816-1.76 2.766-4.068 5.228-2.184 2.445-4.116 3.973l-1.668 1.618 1.935 5.785q1.114 3.502 2.267 6.369 1.26 2.726 2.732 5.17t3.44 4.82 4.588 4.914q3.764 3.514 4.038 5.493.393 2.846-2.32 5.112-2.571 2.373-6.377 4.034-3.788 1.785-7.802 2.844-4.014 1.06-6.365 1.384-5.939.821-11.361.814-5.3-.024-10.061-1.635-4.621-1.505-8.599-4.737-3.87-3.374-6.935-9.129l-3.429-7.47q-.281-.212-.456-.566-.052-.372-.367-.832-.385-.956-1.034-2l.248-.035-3.63-9.837-7.15-.651q-2.437-.294-4.608-.498-2.313-.31-2.684-.26l-.196.406.035.248-8.17-1.645q-2.437-.293-4.344-.408-1.784-.132-3.179-.191-2.543-.153-4.15.07-.496.068-1.438 1.459-.516.828-1.07 2.291-.572 1.34-1.305 3.333t-1.7 5.026q-.985 2.91-2.222 6.738-1.236 3.827-2.689 8.82-1.453 4.991-3.354 11.306-6.309 20.038-10.144 20.568-1.114.154-2.278-.064-.653-.162-1.553-.29-.883-.003-2.031-.097-4.783-.852-10.445-2.59-5.645-1.616-10.826-4.43-5.04-2.708-8.748-6.734-3.726-4.15-4.513-9.842-.359-2.598-.147-6.536.205-2.171.32-4.079.097-2.03.318-4.078.238-1.925.549-4.237.294-2.436.783-5.278l-.035-.247 3.888-12.012q.29-1.553.306-1.429-.17-1.237-3.652-.882-1.766-.008-4.117.317l-5.072.701q-3.712.513-6.417 1.013t-4.65 1.021q-2.423.714-4.548 1.764-2.141.926-4.355 2.24-1.292.684-4.138 1.077-2.227.308-3.546-1.023-1.425-1.19-2.007-5.396-.552-6.732 1.806-12.48 2.481-5.765 6.81-10.02 4.436-4.395 10.225-7.213t11.974-3.673q1.98-.273 5.124-.33 3.128-.18 5.918-.061l13.742-.01 9.312-20.2q1.535-3.49 3.94-7.983 2.511-4.634 5.735-10.502 5.987-11.419 12.677-22.304 6.674-11.01 13.63-21.806 1.44-2.343 3.36-4.878 1.902-2.658 3.945-5.21 2.166-2.57 4.384-4.767 2.325-2.339 4.645-3.794 1.753-1 3.558-1.627 1.787-.751 3.643-1.008 1.361-.188 2.773-.005 1.52.042 3.09.456 3.016.843 4.006.707.866-.12 2.38-2.851 1.654-2.624 4.747-3.052 5.568-.77 11.23.97 5.645 1.615 10.292 5.133 4.63 3.395 7.84 8.373 3.193 4.854 3.98 10.545.273 1.98.453 5.107.287 2.986.391 7.385t.152 9.31q.155 4.77.255 10.051l.2 10.564q.223 5.265.322 10.546.096 6.165.44 12.296.466 6.114 1.321 12.3.15 1.997.283 3.87zm-51.304-13.586q-.15-5.653-.48-10.777-.348-5.247-1.015-10.072-.12-.867-.367-.832-.371.051-1.497 2.854l-2.034 4.442q-1.249 2.82-3.266 7.387l-1.087 2.167q-.354.175-1.318 2.326-.856 2.01-1.875 4.672-1.036 2.54-1.966 4.937l-1.074 3.175q-.767 1.745-1.18 3.315-.431 1.447-.879 2.77l-1.343 3.967 2.471.542q2.982.596 5.841 1.21 2.859.613 5.824 1.086 5.7 1.103 6.443 1 .124-.017.623-.968-.839-6.063-1.254-11.805-.433-5.866-.567-11.396m-12.981-66.544q5.458-7.941 5.356-8.684-.274-1.98-2.501-1.672-.866.12-3.246 2.97-1.19 1.426-2.452 3.24-1.28 1.69-2.755 3.785-4.55 6.303-8.802 12.943t-7.569 13.655q-1.8 3.4-1.68 4.267-.145.776-.025 1.642.068.495.316.461.619-.085 2.29-2.586.82-1.374 1.762-2.765.925-1.515 1.957-3.17 5.92-8.258 10.257-14.28 4.337-6.02 7.092-9.806m182.37 80.631q.716-4.377 2.187-8.01v.25q2.308-8.76 2.164-11.258t-2.262-1.856q-.871.38-2.609 1.893-.992.882-1.984 1.888l-2.107 2.14q-3.223 3.271-6.189 7.54-2.965 4.269-5.678 8.91-2.59 4.517-4.927 9.28-2.337 4.764-4.178 9.15-1.964 4.51-1.95 6.51.01.873-.24 1.125.247-.252-.728 3.003-.973 3.505-1.951 6.26 0 .25-.238 1.5-.369.878-.364 1.502-.606 2.503-1.21 5.13-.48 2.627-1.211 5.13-.245.627-.366 1.127-.122.376-.37.627-.123.251-.245.627l-.246.501q-1.734 2.012-4.603 2.533-2.62.394-5.366.54l-5.246.04q-3.872.028-6.496-.077-2.498-.106-3.874-.346-3.754-.97-6.516-2.823-2.763-1.978-4.78-4.586-1.894-2.609-3.166-5.722-1.274-3.238-2.05-6.729-.51-1.495-.773-3.242-.256-.872-.388-1.745-.01-1-.14-1.998-.01-1.124-.143-2.372l-.021-2.872-.06-7.869q-.056-7.493.395-13.992.45-6.498 1.654-12.627 1.328-6.13 3.53-12.142 2.203-6.137 5.527-12.657 1.23-2.507 3.207-5.395 2.101-2.888 4.463-4.405 1.366-1.01 3.363-1.274 1.995-.39 3.744-.403 3.247-.024 7.625.817 4.503.84 8.638 2.683 4.136 1.843 7.405 4.69 3.268 2.724 4.17 6.464 1.03 3.99-.298 10.245-.49 1.377-.977 2.88-.365 1.376-.977 3.005-.487 1.627-.977 3.005-.49 1.252-1.106 2.381 1.113-1.507 1.854-2.637l.99-1.256q.494-.753 1.238-1.383 2.226-3.015 5.197-6.534 2.971-3.52 6.445-6.669 3.598-3.274 7.326-5.8 3.727-2.65 7.465-3.803l-.25.002q2.99-1.147 4.238-1.156 1.374-.01 3.38 1.099 2.755.853 5.391 2.582t4.902 4.085 4.035 5.09q1.77 2.735 2.54 5.477.254.623.383 1.247.13.623.384 1.246.266 2.121.405 3.994.139 1.872.155 3.995l.037 4.996q.018 2.373-.215 4.623-.234 2.125-.466 4.5-1.328 6.13-2.401 12.883-1.075 6.628-1.526 13.001-.578 6.25.804 7.363 1.261 1.615 3.135 1.6 1.498-.01 3.363-1.149 1.865-1.263 3.602-2.775 1.736-1.636 3.223-3.271 1.485-1.76 2.226-2.89 3.955-5.65 6.405-12.038 2.575-6.39 3.523-13.142 1.198-6.878.396-13.867 1.066-7.752 3.314-7.769 2.248-.016 6.14 2.702 1.259 1.24 2.397 3.105 1.137 1.74 2.027 3.857 1.014 1.99 1.654 3.984t.902 3.74q.269 2.496.044 5.87-.587 5-1.548 10.004-.837 5.002-2.425 9.76-1.719 4.01-3.564 7.771-1.72 3.76-3.442 7.395-3.443 7.146-8.793 9.934t-13.094 2.846q-9.741.073-18.889-3.855-6.398-3.824-9.933-8.794-3.41-5.095-5.212-12.076-1.16-4.738-1.18-7.61l-.033-4.372q.242-1.125.234-2.125l.233-2.25q-.014-1.998.598-3.501.24-1.251.602-3.003.362-1.75.72-4.002zm-51.596-34.71q.735-1.88.357-2.376-.759-1.243-2.133-1.233-1.372.26-2.486 1.518-.99 1.38-2.092 4.262-.978 2.755-1.953 6.01-.976 3.13-1.702 6.258-.727 3.003-.961 5.003-.723 3.503-.091 4.497.502.371.867-.88.245-.627.734-2.13.488-1.502 1.345-3.881.727-3.004 2.079-5.887 1.476-3.008 3.205-5.644 1.11-1.882 1.724-3.26.739-1.38 1.107-2.257m101.05-32.965q4.463 4.08 11.315 4.578 2.366.172 4.76-.03l1.647-.256 3.186-7.658q1.66-3.887 2.873-6.804t2.24-4.972q1.15-2.045 2.443-4.33t2.987-4.918q.81-.818 1.63-1.76.83-1.067 1.8-2.374 1.097-1.298 2.041-2.23.953-1.059 2.013-1.858 1.898-1.991 3.875-3.35 1.987-1.484 4.657-2.042 1.664-.505 3.782-.351 2.51-.068 3.604.387 4.065.921 8.441 2.742 4.385 1.696 7.987 3.835l-.25-.018q.96.571 2.614 1.943 1.663 1.248 3.307 2.745 1.77 1.506 3.165 2.985 1.404 1.354 1.706 2.378 1.497 5.243-3.56 14.518-2.29 3.966-2.57 6.075-.339 1.228-.536 2.215-.072.997-.366 1.601l2.49.181q1.131-.043 2.51-.068l.997.073q3.275-.263 6.523-.153 3.381-.005 6.62.23 2.616.19 4.351.442 1.744.126 2.732.323l1.957.643q.978.322 1.93 1.017 3.725 2.149 5.057 4.5 1.341 2.226.776 6.568-.94 4.315-3.062 7.667-.846 1.316-2.307 2.462-.793.569-1.327 1.03-.526.338-.793.57-2.226 1.34-2.706 1.055-.854-.312-2.596-2.192-1.617-1.87-4.26-1.687l-7.636-.054.25.018-20.611 1.008q-6.14 15.584-11.783 31.203t-9.71 31.98q-2.656 10.701-3.344 20.168-.126 1.744.254 3.4.515 1.54 2.632 1.694 1.246.09 3.062-.78 4.088-2.833 7.732-6.45 3.778-3.734 6.932-7.512.713-1.2 1.409-2.152.829-1.067 1.524-2.018 1.257-1.787 1.63-1.76.277-.356 2.113-3.228.98-1.431 1.846-2.996.998-1.681 2.13-3.477 1.98-3.112 3.852-6.483 1.873-3.37 3.506-6.883 3.014-5.291 4.99-6.65.669-.578 1.79-.497 1.993.145 3.486 2.007 1.626 1.746 2.122 3.535.585 2.296.064 6.015-.414 3.978-2.725 9.946-2.303 5.844-5.39 12.131-3.086 6.288-6.51 12.05-3.415 5.638-6.302 9.185-1.925 2.365-3.69 4.24-1.754 1.751-3.242 3.271-2.69 2.56-5.424 3.99-2.609 1.438-5.413 2.11-2.68.683-5.82.83-3.008.033-6.39.037l-4.235-.307q-1.735-.251-2.98-.342-2.225-.412-4.787-1.35-2.437-.927-4.971-2.239-2.41-1.302-4.678-2.844-2.143-1.533-3.92-2.914-5.539-4.785-8.85-10.911-3.304-6.251-5.058-13.14-1.744-7.015-2.34-14.322-.473-7.297-.473-14.185.013-3.63.239-6.745.235-3.238.568-6.094.082-1.122.314-2.607.233-1.486.636-3.586 1.057-5.934 2.105-11.744 1.173-5.8 2.96-11.43-.205-.642-.178-1.015l.054-.748q.054-.747-2.962-.59l-8.97-.652-3.843-.53q-.747-.054-1.094-.455-2.242-.162-5.017-1.616-2.765-1.579-4.41-3.075-6.123-7.082-1.157-15.112 2.435-4.206 6.468-6.292 4.043-2.211 8.901-1.859 2.491.181 3.701.77 1.085.58 2.96 2.344m30.22 1.192q-.689 2.58-.039 2.252.784-.444 2.238-3.219 1.48-3.148 2.613-4.945 1.177-2.419 2.72-4.686 1.666-2.258 3.2-4.401 1.915-2.24 3.706-4.49l3.85-4.729q.722-1.325.564-2.589.145-1.993-2.089-2.28-1.218-.464-2.136.095-.792.569-2.27 1.964-1.774 2-3.79 5.61-1.775 3.754-3.416 7.391t-3.177 7.534q-1.66 3.886-1.975 6.493zm115.573 68.71q.168-1.112.916-1.883.217-.599.397-.95.322-.457.625-.79-.37-.057-3.828 3.589-1.8 1.875-3.476 3.768-1.658 1.77-3.296 3.417-2.586 2.893-4.943 5.947t-4.61 6.25q-1.25 1.58-2.375 3.177-.984 1.494-1.826 2.882-1.721 3.024-1.975 3.87-1.194 1.208-1.77 2.51l-.86 1.513q-.427.314-1.239 2.339-.52.932-1.096 2.234-.557 1.179-1.134 2.481-.7 1.284-1.294 2.71t-1.227 3.098q-1.332 2.956-1.934 5.265-.236.723-.793 1.902-.434 1.197-1.01 2.5-.558 1.178-1.239 2.338-.538 1.056-1.002 1.617l.037-.247q-1.59 2.16-4.378 3.885-2.645 1.62-5.16 2.377-2.372.651-5.164.734-2.65-.022-5.12-.396-2.84-.43-4.048-1.624l-.247-.037-2.474-2.017q-2.69-1.418-5.034-4.299-2.2-2.986-3.413-5.822-2.946-8.91.046-28.668l.822-5.434.43-2.84q.225-1.482.696-2.927 1.328-4.599 2.33-10.384.696-2.927 1.07-5.396.497-2.452 1.062-4.514 1.537-8.483 4.148-16.551 2.734-8.05 6.333-15.969 1.549-3.555 3.475-7.937 2.07-4.487 4.658-9.906 1.53-3.432 2.985-6.37 1.598-3.042 3.016-5.733 1.833-3.764 5.002-8.843 3.169-5.078 6.974-10.187t7.763-9.562q4.082-4.435 7.637-7.055 1.83-1.238 3.547-1.736 1.026-.098 2.384.108l3.828.58q3.952.598 6.186 1.694 2.377.991 4.663 4.243l1.363 1.848q.876.89 1.714 2.028 3.23 4.531 4.495 9.523 1.39 5.01.548 10.568-.467 3.087-1.41 5.976-.943 2.89-2.36 5.58-1.53 3.432-3.184 6.845-1.512 3.308-3.27 6.579-.935 2.005-1.994 3.993-.935 2.006-1.89 4.135-1.219 2.215-2.21 4.592-.558 1.179-1.096 2.234l-1.078 2.11.037-.246q-.718 1.407-1.313 2.833-.576 1.302-1.418 2.69-.7 1.284-1.276 2.586-.557 1.18-1.22 2.216-.538 1.055-1.058 1.987-.378.827-.737 1.53-.557 1.18-.483.685l-4.833 11.9-.737 1.531q.786-1.018 1.298-1.066 2.264-2.437 6.024-6.415 3.884-3.96 8.28-7.968 4.397-4.008 8.681-7.276 4.285-3.267 7.35-4.319 3.348-1.261 6.01-.48 2.82.554 7.7 4.198 3.691 2.327 7.014 6.24 3.324 3.915 4.578 8.147.535 1.47.483 3.484.071 2.032-.302 4.501-.356 2.347-1.07 5.397-.572 2.945-1.646 6.698-1.215 3.859-2.76 9.057-1.545 5.197-3.703 11.945-1.47 4.704-2.581 8.704-.988 4.02-1.474 7.23-1.645 10.867 1.921 13.176l.667.606 4.351-2.878-.037.247q3.27-2.41 6.017-5.532 2.888-3.226 5.197-6.792 2.45-3.672 4.302-7.56 1.976-3.87 3.296-7.586.8-2.784 1.512-3.308.568-.42 2.297-.157 2.223.336 4.03 1.747 1.77 1.657 2.658 3.307.621 1.737.54 3.114.115.902-.09 2.26l-.45 2.964q-.579 3.828-1.956 7.915-1.376 4.086-3.352 7.956-1.956 3.746-4.493 7.151-2.537 3.406-5.579 5.977-3.846 3.713-7.603 5.165-4.64 1.445-9.785 2.056-5.022.63-9.838-.1-6.051-.916-11.549-4.654-5.479-3.86-9.042-8.695-5.326-7.375-7.621-18.081-.591-1.1-.464-3.607l.201-3.001.449-2.964q-.067-.39.045-1.13.366-5.756 2.24-12.293 2.035-6.766 5.465-13.574.823-1.265 1.134-2.48m15.316-27.747q-2.312 1.924-1.646 2.53.808.502 3.256-.644 2.058-1.078 2.226-2.19.206-1.358-1.104-1.05-1.538.145-2.732 1.354m-24.29-67.343q.909-1 .762-2.537-.325-1.187-2.301-1.486-1.729-.261-3.944 2.688-2.35 2.17-5.066 5.928-.786 1.018-2.555 3.529t-3.596 5.393-3.367 5.553q-1.4 2.568-1.586 3.803-.449 2.963.662 3.132.248.037 1.695-2.018l1.61-2.282q.822-1.265 1.911-2.616t2.196-2.826q1.25-1.58 2.66-3.387 1.553-1.912 2.642-3.263 1.231-1.456 2.282-2.56zm169.505 137.874q-.211 1.363-.785 3.666-.453 2.332-1.33 5.847-.513 2.06-1.118 3.969-.453 1.818-.967 3.363-1.906 5.06-4.66 9.393-2.723 4.213-5.962 8.425-2.482 2.728-5.056 5.305t-5.843 4.335q-9.72 5.943-19.201 7.312-3.665.245-7.361-.42-3.575-.633-7.09-1.51-3.272-.815-6.029-1.631-2.606-.908-4.545-1.906-2.818-1.089-6.454-3.025-3.515-1.907-7.06-4.207-3.516-2.42-6.608-4.994-3.06-2.694-4.88-5.207-5.457-7.024-7.793-13.657t-1.949-15.418q.27-4.18.692-7.937.543-3.726 1.359-6.998 2.991-11.998 11.225-21.272 1.725-2.273 3.814-4.456 2.24-2.273 4.572-3.88.757-.455 1.544-1.03.939-.668 2.029-1.426 6.904-4.457 14.566-6.794t15.751-1.737q1.121.151 2.94.604 1.968.363 4.635 1.028 3.726 1.057 6.544 2.146 2.939 1.12 5.424 2.511 2.636 1.301 5.152 3.087 2.545 1.664 5.545 4.086l.06-.243q11.639 9.596 13.282 22.106.273.969.425 1.908.456 1.272.668 1.453 3.244 4.027 4.034 8.086.911 4.089.43 9.118m-56.129-44.374q6.542-1.458 4.693-3.85-.364-.606-1.333-.848-1.697-.423-4.272.094-2.453.547-4.997 1.457t-4.906 2.124q-2.332 1.092-3.695 1.91-9.114 6.095-6.992 8.94.365 1.121 1.334.333l3.603-3.092q1.483-1.303 3.542-2.335 2.09-1.152 4.24-2.032 2.302-.97 4.512-1.578 2.363-.698 4.271-1.123m33.471 45.933-1.454-.878.242.06q-2.636-1.3-3.789-3.905-1.032-2.574-1.397-5.24-.06-.787.15-1.636l.454-1.817q.696-1.758 1.967-3.758 2.057-3.606 2.692-6.15.634-2.546-.548-3.484-2.181-1.059-6.784.883-4.452 1.85-8.237 5.154-6.236 6.941-10.623 15.759-4.356 8.697-6.593 17.664l-.936 3.757q-.363 1.455-.423 2.212-.181.727-.12 1.515.182.817.455 1.787.607 1.696 1.214 2.877.606 1.18 1.334 1.877 1.182 1.453 3.424 1.755.757.06 1.393.09l1.515.12q1.818-.062 2.757-.214l.06-.242q5.694-1.155 9.811-4.762 4.27-3.698 7.477-8.305l-.06.243 4.236-8.212zm116.482 37.658q2.167-3.87 4.79-6.783l-.084.236q5.158-7.447 5.875-9.844t-1.493-2.517q-.95.061-3.098.89-1.234.49-2.51 1.098l-2.71 1.291q-4.147 1.976-8.39 4.977-4.245 3-8.38 6.438-3.974 3.361-7.796 7.042t-7.05 7.174q-3.386 3.57-4.053 5.454-.292.824-.611.976.319-.152-1.708 2.575-2.11 2.962-3.97 5.218-.085.235-.737 1.329-.645.699-.854 1.287-1.423 2.146-2.888 4.41-1.348 2.305-2.889 4.409-.444.505-.728.934-.243.311-.562.463-.201.194-.444.505l-.403.388q-2.315 1.3-5.19.81-2.597-.523-5.229-1.324l-4.944-1.753q-3.65-1.293-6.08-2.288-2.312-.952-3.524-1.647-3.197-2.193-5.161-4.877-1.922-2.802-2.93-5.942-.889-3.098-1.022-6.458-.092-3.478.37-7.025.03-1.58.379-3.311.056-.908.23-1.773.335-.942.55-1.926.377-1.06.676-2.278l.96-2.708 2.63-7.416q2.504-7.063 5.145-13.017 2.64-5.955 5.863-11.306 3.34-5.309 7.462-10.208 4.164-5.017 9.513-10.012 2.012-1.937 4.855-3.976 2.961-1.999 5.699-2.618 1.629-.483 3.596-.05 2.008.314 3.657.898 3.06 1.086 6.888 3.37 3.946 2.327 7.205 5.47t5.36 6.936q2.142 3.675 1.714 7.498-.394 4.101-3.776 9.528-.93 1.128-1.902 2.374-.812 1.17-1.943 2.491-1.013 1.364-1.943 2.492-.889 1.01-1.853 1.86 1.56-1.036 2.642-1.845l1.36-.844q.72-.54 1.636-.877 3.12-2.074 7.114-4.369t8.333-4.069q4.5-1.85 8.866-2.952 4.408-1.22 8.315-1.028l-.235-.083q3.2-.058 4.378.36 1.295.458 2.802 2.186 2.298 1.742 4.186 4.266t3.214 5.513 2.056 6.162.518 6.014q.027.672-.064 1.303t-.064 1.302q-.475 2.085-.983 3.892-.508 1.808-1.218 3.809l-1.67 4.709q-.792 2.236-1.779 4.272-.945 1.918-1.973 4.07-3.34 5.31-6.653 11.291-3.272 5.864-5.871 11.7-2.676 5.678-1.756 7.196.634 1.948 2.4 2.574 1.413.5 3.554.067 2.183-.55 4.332-1.38 2.191-.945 4.146-1.975 1.997-1.147 3.079-1.956 5.645-3.962 10.128-9.13 4.6-5.128 7.796-11.15 3.473-6.058 5.104-12.9 3.647-6.924 5.766-6.172 2.119.75 4.85 4.634.76 1.595 1.193 3.736.475 2.024.59 4.317.274 2.218.194 4.31-.079 2.092-.428 3.824-.599 2.438-1.961 5.533-2.258 4.5-4.87 8.874-2.493 4.417-5.61 8.348-2.983 3.183-6 6.088-2.9 2.947-5.76 5.777-5.674 5.541-11.654 6.336-5.98.796-13.279-1.792-9.182-3.255-16.44-10.07-4.71-5.777-6.337-11.654-1.467-5.954-.778-13.13.527-4.85 1.487-7.557l1.46-4.12q.612-.976.945-1.918l.987-2.035q.668-1.884 1.757-3.088.653-1.093 1.59-2.616t2.042-3.517zm-36.655-50.232q1.332-1.516 1.146-2.112-.289-1.427-1.584-1.886-1.378-.224-2.855.578-1.4.96-3.42 3.292-1.86 2.256-3.887 4.983-1.985 2.61-3.735 5.302-1.708 2.575-2.611 4.375-1.875 3.045-1.62 4.196.345.52 1.116-.532.444-.505 1.416-1.75.971-1.247 2.588-3.191 1.708-2.575 3.963-4.823 2.414-2.325 4.939-4.213 1.685-1.39 2.733-2.476 1.166-1.044 1.81-1.743m126.25 33.282q.845.259 1.637.63.844.26 1.748.684 4.862 2.283 9.485 6.248 4.79 3.905 8.077 8.07 3.513 4.272.858 9.925-.902 1.922-2.575 4.31-1.56 2.44-3.779 5.4-4.549 5.867-10.898 13.51-2.066 2.342-4.835 5.595-2.657 3.306-5.306 6.891t-5.02 7.164q-2.317 3.465-3.645 6.291-1.38 2.94-.441 4.76.3.831 1.09 1.203 1.584.743 4.567-.615 3.15-1.419 6.34-3.509 3.242-2.203 5.926-4.392 2.85-2.25 3.833-3.167 7.985-7.013 15.338-14.737 7.519-7.784 14.36-15.886 2.065-2.342 4.35-4.856 2.338-2.628 5.022-4.817t5.667-3.548q3.037-1.471 6.44-1.667l-.105.226q2.24.225 4.547.894 1.07.365 2.201.896 1.297.47 2.654 1.108 1.809.85 4.303 2.297 2.66 1.387 5.108 3.226 2.447 1.84 4.23 3.92 1.897 2.132 2.23 4.358.268 1.782-1.06 4.608-1.38 2.94-3.166 5.274-1.673 2.388-3.852 4.676-1.202 1.092-2.45 2.575-1.25 1.483-2.71 3.419-3.36 4.217-6.608 8.488-3.194 4.157-6.382 8.594-3.3 4.383-5.87 8.972-2.568 4.589-5.017 9.51-1.593 3.392-3.458 7.07l-3.664 7.8-6.583 14.018-2.495 5.314q-1.115 2.374-2.184 4.356-3.146 6.112-7.224 10.682t-9.28 8.888l.226.107q-16.549 13.202-45.496 8.438-4.262-.621-8.265-2.087-3.943-1.3-7.9-3.158-6.896-3.24-12.717-8.18-5.82-4.942-9.94-11.154-4.007-6.16-6.253-13.423-2.133-7.211-1.82-14.93.24-8.442 3.134-13.43 1.4-2.102 3.367-3.938 2.026-1.67 4.292-2.676 2.38-.953 4.892-1.015t5 1.107q3.844 1.805 6.76 6.762 1.258 3.489 1.129 7.291-.07 3.969-1.158 7.46-.928 3.152-1.224 7.014t.51 7.14q1.32 3.655 6.52 6.097 3.279 1.54 6.955 1.058 3.675-.482 7.21-2.133 3.596-1.485 6.778-3.854 3.243-2.203 5.594-4.273l2.08-1.783-.107.226 10.647-12.386q4.103-5.8 8.38-11.38 4.277-5.582 8.72-11.222.969-1.477 1.4-2.102.598-.685.704-.911l-3.447 2.934-5.05 3.7-4.943 3.474q-4.777 3.414-7.82 4.606-5.463 2.817-11.923 3.646-6.461.83-12.227-1.878-2.6-1.221-5.115-3.506l-6.226-5.546q-1.618-2.14-3.022-4.73-1.352-2.705-2.371-5.53-1.02-2.824-1.593-5.716-.521-3.004-.53-5.63.082-5.757 1.1-12.04 1.185-6.342 3.68-11.656 4.301-9.157 9.813-16.78 5.565-7.735 13.051-14.568 16.58-16.5 25.802-14.1m-5.182 11.917q.977-1.197 1.01-2.148-.308-1.11-1.099-1.481-1.357-.638-4.486 1.618-1.588 1.325-3.826 3.447t-4.47 4.524-4.298 4.743q-1.952 2.395-3.247 4.27-2.006 2.508-2.257 3.632-.504 2.247.054 2.234.665-.24 2.073-2.063 1.129-1.816 3.035-3.818 1.96-2.116 4.145-4.125t4.43-3.852q2.36-1.79 4.06-3.062 1.807-1.497 3.07-2.422t1.806-1.497m46.25 35.795q-2.324 3.186-2.47 4.083-.032.95.307 1.11.791.372 3.335-2.987 2.43-3.412 5.266-6.22 2.89-2.92 6.178-5.516 1.043-.752 1.754-1.384.877-.692 1.528-1.49 1.422-1.264 1.634-1.717.478-1.017-.32-1.668-.799-.65-2.022-.397-.83.3-2.956 2.475-2.072 2.062-4.576 4.75-2.338 2.628-4.51 5.196t-3.148 3.765" aria-label="To Anthony" style="font-size:253.333px;line-height:1;font-family:&quot;Magic Bubble&quot;;-inkscape-font-specification:&quot;Magic Bubble&quot;;text-align:center;text-anchor:middle;fill:#ede2b9;fill-opacity:1;stroke-width:2.95813;stroke-linecap:round;stroke-linejoin:round"/><path d="M1011.715 380.53q1.726 2.502 2.512 6.824.298 1.516.574 3.87.224 2.24.275 4.7.05 2.46-.065 4.86-.055 2.233-.43 3.788-.56 2.333-2.472 5.023-1.497 1.806-2.635 2.616l-1.922.902q-1.13.53-2.933 1.1l-5.413 1.989-8.386 2.417q-6.19 1.802-12.222 3.942-5.972 1.975-11.739 4.68-2.487 1.168-2.275 1.62.106.226 1.601.766 1.45.148 2.684 2.19.477 1.018.782 2.255.417 1.184.435 2.693.178 1.848.62 4.261.39 2.301.88 5.107l1.083 5.838q.542 2.919 1.077 6.117.648 3.145 1.19 6.064l1.084 5.838q.655 2.865 1.045 5.166.502 2.247.906 3.99l-.226.106.8 3.763q1.72 7.195 3.674 14.004 2.067 6.756 4.307 13.294 4.652 12.855 9.827 22.705 1.44 2.774 2.78 5.042 1.34 2.269 2.914 4.152 1.52 1.77 3.546 3.44 1.972 1.558 4.783 3.137 1.993.72 3.036 1.472 1.534 1.212 1.64 1.438.584 1.244-1.214 3.88-2.536 3.122-6.228 5.545-3.579 2.37-7.197 4.067-3.505 1.645-7.329 2.611-3.77 1.08-7.686 1.262-3.75.241-7.471-.633-3.669-.762-7.137-2.86-8.636-5.467-19.16-22.603-1.128-1.816-2.044-3.18-.856-1.53-1.44-2.774-.696-1.19-1.227-2.32l-1.114-2.375-1.168-2.488q-.636-1.357-1.213-2.88-4.457-9.497-7.882-20.031-3.366-10.7-6.187-20.827-1.231-4.39-2.41-8.665-1.232-4.389-2.357-8.551-1.179-4.276-2.152-7.82-.913-3.71-1.562-6.856-3.699 2.702-6.712 4.806t-5.236 3.836q-2.275 1.62-4.325 3.133-2.049 1.514-4.045 3.14-1.883 1.574-3.08 2.55-1.138.81-1.65 1.188-1.936 1.46-2.236 2.29-1.597 1.302-3.3 2.377-.799.65-1.477.97l-1.13.53q-3.054 1.432-6.072 1.469t-5.902-.818q-2.824-1.02-5.408-2.704-2.524-1.851-4.59-4.193-4.069-4.851-5.757-11.095-.23-1.961-.688-3.817-.396-2.02-.627-3.982 2.046-10.342 7.478-17.582 5.38-7.353 13.31-13.972 10.101-8.465 24.75-17.822l10.19-5.334q5.094-2.667 10.296-5.107 5.2-2.441 10.508-4.656l10.615-4.429q3.325-1.146 8.897-2.795 5.573-1.65 12.149-3.218 6.69-1.621 13.704-2.843 7.015-1.223 13.164-1.349 6.262-.18 11.034 1.169 4.831 1.182 6.981 4.588M897.22 425.844q1.29-.191.971-.87-.205-.731-1.202-1.091-1.11-.307-3.937 1.02-5.155 2.832-10.624 7.054-5.355 4.169-9.488 8.592-4.18 4.03-4.92 6.862-.742 2.83 1.524 3.837 1.103.586 2.3-.39 1.085-.923 5.126-6.13 1.092-1.202 2.243-2.57 1.099-1.481 2.31-3.016 2.31-3.015 4.193-4.589 2.749-2.67 6.62-5.59 3.7-2.701 4.884-3.119m211.43 15.145q.577 1.254 1.37 3.49.911 2.195 2.121 5.609.71 2.001 1.26 3.927.626 1.765 1.05 3.337 1.207 5.271 1.304 10.405.055 5.015-.318 10.316-.563 3.645-1.285 7.214t-2.477 6.842q-4.822 10.322-11.97 16.7-2.92 2.228-6.368 3.715-3.33 1.446-6.744 2.656-3.179 1.127-5.928 1.97-2.673.682-4.841.92-2.95.65-7.052 1.043-3.983.352-8.209.393-4.268-.077-8.266-.515-4.04-.556-6.944-1.646-8.429-2.842-14.04-7.081t-10.139-11.778q-2.083-3.634-3.806-6.999-1.605-3.406-2.732-6.584-4.132-11.655-2.39-23.934.183-2.847.72-5.82.611-3.133 1.668-5.76.38-.797.718-1.712.414-1.075.904-2.309 3.294-7.528 8.391-13.709 5.098-6.18 12.173-10.146 1.017-.493 2.783-1.12 1.842-.785 4.432-1.703 3.69-1.176 6.641-1.824 3.068-.69 5.909-.902 2.916-.372 6-.272 3.04-.018 6.88.343l-.085-.235q15.002 1.572 23.28 11.093.764.657 1.409 1.356 1.082.81 1.36.844 4.927 1.565 7.827 4.513 3.018 2.905 5.394 7.363m-71.299-5.995q4.65-4.829 1.787-5.801-.638-.304-1.58.03-1.648.584-3.509 2.436-1.743 1.81-3.361 3.975t-2.918 4.48q-1.34 2.198-2.025 3.633-4.232 10.114-.891 11.315.923.733 1.295-.46l1.296-4.567q.517-1.906 1.664-3.903 1.105-2.115 2.412-4.035 1.383-2.08 2.89-3.808 1.585-1.887 2.94-3.295m53.271 19.808-1.697.072.236-.084q-2.917.372-5.316-1.163-2.282-1.576-4.058-3.597-.486-.623-.778-1.447l-.626-1.766q-.39-1.849-.436-4.218-.276-4.143-1.152-6.615-.877-2.472-2.38-2.602-2.404.323-5.17 4.483-2.689 4.002-4.019 8.846-1.365 9.23-.153 19.004 1.17 9.657 4.26 18.368l1.293 3.65q.5 1.412.869 2.076.25.707.736 1.33.604.58 1.367 1.238 1.442 1.078 2.6 1.728t2.15.828q1.787.559 3.823-.428.664-.368 1.211-.694l1.33-.737q1.48-1.055 2.18-1.7l-.085-.235q4.11-4.108 5.55-9.389 1.517-5.44 1.647-11.053l.084.236-1.003-9.186zm310.004-66.859q.266 3.746.484 6.238.188 1.36.184 2.244l.154 1.113.248-.034q.742-.102 2.286-1.703 1.527-1.724 3.07-3.324 1.528-1.724 3.072-3.325 1.543-1.6 2.905-1.788.99-.137 2.047.221 1.059.358 2.044 1.104 1.11.73 1.742 1.651.755.904.892 1.894.376 2.722-.715 5.773-.985 2.91-2.853 5.816-1.76 2.765-4.068 5.227-2.184 2.446-4.116 3.974l-1.668 1.617 1.935 5.785q1.114 3.502 2.267 6.37 1.26 2.725 2.732 5.17 1.473 2.443 3.44 4.82 1.968 2.375 4.588 4.913 3.764 3.514 4.038 5.494.393 2.845-2.32 5.112-2.571 2.373-6.377 4.033-3.788 1.785-7.802 2.844-4.014 1.06-6.365 1.384-5.939.821-11.361.815-5.3-.024-10.061-1.636-4.621-1.504-8.599-4.737-3.87-3.374-6.935-9.128l-3.429-7.47q-.281-.213-.456-.567-.052-.371-.367-.832-.385-.955-1.034-2l.248-.035-3.63-9.837-7.15-.65q-2.437-.294-4.608-.499-2.313-.31-2.684-.259l-.196.405.035.248-8.17-1.645q-2.437-.293-4.344-.408-1.784-.131-3.179-.19-2.543-.154-4.15.069-.496.068-1.438 1.46-.516.827-1.07 2.29-.572 1.34-1.305 3.333t-1.7 5.027q-.985 2.91-2.222 6.737-1.236 3.827-2.689 8.82-1.453 4.992-3.354 11.307-6.309 20.037-10.144 20.567-1.114.154-2.278-.063-.653-.162-1.553-.29-.883-.004-2.031-.097-4.783-.852-10.445-2.591-5.645-1.616-10.826-4.43-5.04-2.708-8.748-6.734-3.726-4.15-4.513-9.841-.359-2.598-.147-6.536.205-2.172.32-4.08.097-2.03.318-4.078.238-1.924.549-4.237.294-2.436.783-5.278l-.035-.247 3.888-12.011q.29-1.553.306-1.43-.17-1.237-3.652-.882-1.766-.008-4.117.317l-5.072.701q-3.712.514-6.417 1.014t-4.65 1.02q-2.423.714-4.548 1.764-2.141.926-4.355 2.241-1.292.683-4.138 1.077-2.227.307-3.546-1.023-1.425-1.19-2.007-5.397-.552-6.732 1.806-12.48 2.481-5.764 6.81-10.02 4.436-4.395 10.225-7.213 5.788-2.817 11.974-3.672 1.98-.274 5.124-.33 3.128-.18 5.918-.062l13.742-.01 9.312-20.2q1.535-3.49 3.94-7.983 2.511-4.634 5.735-10.501 5.987-11.42 12.677-22.305 6.674-11.01 13.63-21.806 1.44-2.342 3.36-4.877 1.902-2.659 3.945-5.21 2.166-2.57 4.384-4.768 2.325-2.339 4.645-3.794 1.753-.999 3.558-1.627 1.787-.751 3.643-1.008 1.361-.188 2.773-.005 1.52.043 3.09.456 3.016.844 4.006.707.866-.12 2.38-2.85 1.654-2.625 4.747-3.053 5.568-.77 11.23.97 5.645 1.615 10.292 5.133 4.63 3.395 7.84 8.373 3.193 4.854 3.98 10.545.273 1.98.453 5.107.287 2.987.391 7.385.104 4.4.152 9.31.155 4.77.255 10.051l.2 10.564q.223 5.265.322 10.547.096 6.165.44 12.295.466 6.114 1.321 12.3.15 1.997.283 3.87zm-51.304-13.585q-.15-5.653-.48-10.777-.348-5.248-1.015-10.073-.12-.866-.367-.832-.371.051-1.497 2.855l-2.034 4.442q-1.249 2.82-3.266 7.386l-1.087 2.168q-.354.175-1.318 2.325-.856 2.01-1.875 4.673-1.036 2.538-1.966 4.936l-1.074 3.175q-.767 1.745-1.18 3.315-.431 1.447-.879 2.77l-1.343 3.968 2.471.54q2.982.597 5.841 1.21 2.859.614 5.824 1.087 5.7 1.103 6.443 1 .124-.016.623-.968-.839-6.062-1.254-11.805-.433-5.866-.567-11.395m-12.981-66.545q5.458-7.941 5.356-8.684-.274-1.98-2.501-1.671-.866.12-3.246 2.97-1.19 1.426-2.452 3.24-1.28 1.69-2.755 3.784-4.55 6.303-8.802 12.943t-7.569 13.655q-1.8 3.401-1.68 4.267-.145.777-.025 1.643.068.495.316.46.619-.085 2.29-2.586.82-1.374 1.762-2.765.925-1.515 1.957-3.17 5.92-8.258 10.257-14.28 4.337-6.02 7.092-9.806m182.37 80.631q.716-4.377 2.187-8.01v.25q2.308-8.76 2.164-11.257t-2.262-1.857q-.871.381-2.609 1.893-.992.882-1.984 1.889l-2.107 2.139q-3.223 3.271-6.189 7.54-2.965 4.27-5.678 8.91-2.59 4.517-4.927 9.28-2.337 4.765-4.178 9.15-1.964 4.511-1.95 6.51.01.874-.24 1.125.247-.251-.728 3.003-.973 3.505-1.951 6.26 0 .25-.238 1.5-.369.878-.364 1.502-.606 2.503-1.21 5.13-.48 2.627-1.211 5.13-.245.627-.366 1.127-.122.376-.37.628-.123.25-.245.626l-.246.502q-1.734 2.011-4.603 2.532-2.62.394-5.366.54l-5.246.04q-3.872.028-6.496-.077-2.498-.106-3.874-.345-3.754-.971-6.516-2.824-2.763-1.978-4.78-4.586-1.894-2.608-3.166-5.721-1.274-3.238-2.05-6.73-.51-1.495-.773-3.241-.256-.873-.388-1.746-.01-1-.14-1.997-.01-1.125-.143-2.373l-.021-2.872-.06-7.869q-.056-7.493.395-13.991.45-6.499 1.654-12.628 1.328-6.13 3.53-12.142 2.203-6.137 5.527-12.657 1.23-2.507 3.207-5.394 2.101-2.889 4.463-4.406 1.366-1.009 3.363-1.274 1.995-.39 3.744-.403 3.247-.024 7.625.817 4.503.84 8.638 2.683 4.136 1.843 7.405 4.691 3.268 2.723 4.17 6.464 1.03 3.989-.298 10.244-.49 1.378-.977 2.88-.365 1.377-.977 3.005-.487 1.627-.977 3.005-.49 1.253-1.106 2.381 1.113-1.507 1.854-2.636l.99-1.257q.494-.753 1.238-1.383 2.226-3.014 5.197-6.534t6.445-6.668q3.598-3.275 7.326-5.8 3.727-2.652 7.465-3.804l-.25.002q2.99-1.146 4.238-1.156 1.374-.01 3.38 1.099 2.755.854 5.391 2.582 2.636 1.73 4.902 4.085 2.266 2.357 4.035 5.091t2.54 5.477q.254.622.383 1.246.13.623.384 1.246.266 2.121.405 3.994.139 1.872.155 3.996l.037 4.995q.018 2.373-.215 4.623-.234 2.125-.466 4.5-1.328 6.13-2.401 12.883-1.075 6.628-1.526 13.002-.578 6.249.804 7.363 1.261 1.614 3.135 1.6 1.498-.011 3.363-1.15 1.865-1.262 3.602-2.774 1.736-1.637 3.223-3.272 1.485-1.76 2.226-2.89 3.955-5.65 6.405-12.038 2.575-6.39 3.523-13.141 1.198-6.879.396-13.867 1.066-7.752 3.314-7.77 2.248-.016 6.14 2.703 1.259 1.24 2.397 3.104 1.137 1.74 2.027 3.857 1.014 1.99 1.654 3.984t.902 3.74q.269 2.497.044 5.87-.587 5.001-1.548 10.004-.837 5.003-2.425 9.761-1.719 4.01-3.564 7.77-1.72 3.76-3.442 7.396-3.443 7.145-8.793 9.933t-13.094 2.846q-9.741.073-18.889-3.855-6.398-3.824-9.933-8.793-3.41-5.096-5.212-12.077-1.16-4.737-1.18-7.61l-.033-4.371q.242-1.126.234-2.125l.233-2.25q-.014-1.999.598-3.502.24-1.25.602-3.002t.72-4.003zm-51.596-34.71q.735-1.879.357-2.376-.759-1.243-2.133-1.233-1.372.26-2.486 1.518-.99 1.381-2.092 4.262-.978 2.755-1.953 6.01-.976 3.13-1.702 6.258-.727 3.003-.961 5.003-.723 3.503-.091 4.498.502.37.867-.881.245-.627.734-2.13.488-1.502 1.345-3.881.727-3.003 2.079-5.886 1.476-3.009 3.205-5.645 1.11-1.882 1.724-3.26.739-1.38 1.107-2.257m101.05-32.965q4.463 4.081 11.315 4.579 2.366.171 4.76-.03l1.647-.257 3.186-7.658q1.66-3.886 2.873-6.804 1.214-2.917 2.24-4.971 1.15-2.046 2.443-4.331t2.987-4.918q.81-.817 1.63-1.76.83-1.066 1.8-2.373 1.097-1.298 2.041-2.232.953-1.057 2.013-1.857 1.898-1.991 3.875-3.35 1.987-1.484 4.657-2.041 1.664-.506 3.782-.352 2.51-.068 3.604.387 4.065.921 8.441 2.742 4.385 1.696 7.987 3.836l-.25-.018q.96.57 2.614 1.943 1.663 1.248 3.307 2.744 1.77 1.506 3.165 2.985 1.404 1.354 1.706 2.378 1.497 5.243-3.56 14.519-2.29 3.966-2.57 6.074-.339 1.228-.536 2.215-.072.997-.366 1.602l2.49.18q1.131-.042 2.51-.067l.997.072q3.275-.263 6.523-.153 3.381-.005 6.62.23 2.616.19 4.351.442 1.744.127 2.732.323l1.957.643q.978.322 1.93 1.017 3.725 2.15 5.057 4.5 1.341 2.226.776 6.568-.94 4.315-3.062 7.667-.846 1.316-2.307 2.462-.793.569-1.327 1.031-.526.338-.793.569-2.226 1.34-2.706 1.055-.854-.312-2.596-2.192-1.617-1.87-4.26-1.687l-7.636-.053.25.018-20.611 1.008q-6.14 15.583-11.783 31.202t-9.71 31.98q-2.656 10.701-3.344 20.169-.126 1.744.254 3.4.515 1.54 2.632 1.693 1.246.09 3.062-.78 4.088-2.833 7.732-6.45 3.778-3.734 6.932-7.512.713-1.2 1.409-2.152.829-1.066 1.524-2.018 1.257-1.787 1.63-1.76.277-.355 2.113-3.227.98-1.432 1.846-2.997.998-1.68 2.13-3.477 1.98-3.112 3.852-6.483 1.873-3.37 3.506-6.883 3.014-5.291 4.99-6.65.669-.578 1.79-.497 1.993.145 3.486 2.007 1.626 1.746 2.122 3.535.585 2.297.064 6.016-.414 3.977-2.725 9.945-2.303 5.844-5.39 12.132t-6.51 12.05q-3.415 5.637-6.302 9.184-1.925 2.365-3.69 4.24-1.754 1.752-3.242 3.272-2.69 2.56-5.424 3.989-2.609 1.438-5.413 2.111-2.68.682-5.82.83-3.008.032-6.39.037l-4.235-.308q-1.735-.251-2.98-.341-2.225-.412-4.787-1.35-2.437-.928-4.971-2.24-2.41-1.301-4.678-2.843-2.143-1.533-3.92-2.915-5.539-4.785-8.85-10.911-3.304-6.25-5.058-13.14-1.744-7.015-2.34-14.321-.473-7.298-.473-14.185.013-3.63.239-6.745.235-3.239.568-6.095.082-1.121.314-2.607.233-1.486.636-3.585 1.057-5.935 2.105-11.744 1.173-5.8 2.96-11.431-.205-.641-.178-1.015l.054-.748q.054-.747-2.962-.59l-8.97-.652-3.843-.53q-.747-.053-1.094-.454-2.242-.163-5.017-1.617-2.765-1.578-4.41-3.075-6.123-7.082-1.157-15.111 2.435-4.207 6.468-6.293 4.043-2.211 8.901-1.858 2.491.18 3.701.77 1.085.58 2.96 2.343m30.22 1.193q-.689 2.58-.039 2.251.784-.444 2.238-3.219 1.48-3.148 2.613-4.944 1.177-2.42 2.72-4.687 1.666-2.258 3.2-4.4 1.915-2.24 3.706-4.49l3.85-4.73q.722-1.325.564-2.589.145-1.993-2.089-2.28-1.218-.464-2.136.095-.792.569-2.27 1.964-1.774 2-3.79 5.61-1.775 3.754-3.416 7.392-1.642 3.637-3.177 7.533-1.66 3.887-1.975 6.494zm115.573 68.708q.168-1.111.916-1.882.217-.599.397-.95.322-.457.625-.79-.37-.056-3.828 3.589-1.8 1.875-3.476 3.769-1.658 1.77-3.296 3.417-2.586 2.893-4.943 5.947-2.357 3.053-4.61 6.25-1.25 1.579-2.375 3.177-.984 1.493-1.826 2.881-1.721 3.024-1.975 3.87-1.194 1.209-1.77 2.511l-.86 1.512q-.427.314-1.239 2.339-.52.932-1.096 2.234-.557 1.179-1.134 2.481-.7 1.284-1.294 2.71t-1.227 3.098q-1.332 2.957-1.934 5.266-.236.722-.793 1.9-.434 1.198-1.01 2.5-.558 1.18-1.239 2.34-.538 1.055-1.002 1.616l.037-.247q-1.59 2.16-4.378 3.885-2.645 1.62-5.16 2.377-2.372.652-5.164.734-2.65-.022-5.12-.396-2.84-.43-4.048-1.623l-.247-.038-2.474-2.016q-2.69-1.418-5.034-4.3-2.2-2.985-3.413-5.822-2.946-8.91.046-28.668l.822-5.434.43-2.84q.225-1.482.696-2.926 1.328-4.6 2.33-10.385.696-2.926 1.07-5.396.497-2.451 1.062-4.513 1.537-8.484 4.148-16.552 2.734-8.05 6.333-15.968 1.549-3.556 3.475-7.938 2.07-4.487 4.658-9.906 1.53-3.431 2.985-6.37 1.598-3.042 3.016-5.732 1.833-3.765 5.002-8.844t6.974-10.186 7.763-9.562q4.082-4.435 7.637-7.055 1.83-1.24 3.547-1.737 1.026-.097 2.384.108l3.828.58q3.952.598 6.186 1.694 2.377.991 4.663 4.243l1.363 1.848q.876.89 1.714 2.028 3.23 4.532 4.495 9.524 1.39 5.01.548 10.567-.467 3.087-1.41 5.976-.943 2.89-2.36 5.58-1.53 3.432-3.184 6.845-1.512 3.308-3.27 6.579-.935 2.006-1.994 3.993-.935 2.006-1.89 4.135-1.219 2.216-2.21 4.592-.558 1.179-1.096 2.234l-1.078 2.11.037-.246q-.718 1.407-1.313 2.833-.576 1.302-1.418 2.69-.7 1.284-1.276 2.587-.557 1.178-1.22 2.215-.538 1.055-1.058 1.987-.378.827-.737 1.53-.557 1.18-.483.686l-4.833 11.9-.737 1.53q.786-1.017 1.298-1.066 2.264-2.436 6.024-6.415 3.884-3.96 8.28-7.968 4.397-4.008 8.681-7.275 4.285-3.268 7.35-4.32 3.348-1.261 6.01-.48 2.82.554 7.7 4.198 3.691 2.327 7.014 6.241t4.578 8.146q.535 1.47.483 3.484.071 2.032-.302 4.502-.356 2.346-1.07 5.396-.572 2.945-1.646 6.699-1.215 3.858-2.76 9.056t-3.703 11.945q-1.47 4.704-2.581 8.704-.988 4.02-1.474 7.23-1.645 10.868 1.921 13.176l.667.606 4.351-2.878-.037.247q3.27-2.41 6.017-5.532 2.888-3.226 5.197-6.792 2.45-3.671 4.302-7.56 1.976-3.87 3.296-7.585.8-2.785 1.512-3.309.568-.419 2.297-.157 2.223.336 4.03 1.747 1.77 1.658 2.658 3.308.621 1.736.54 3.113.115.902-.09 2.26l-.45 2.964q-.579 3.828-1.956 7.915-1.376 4.086-3.352 7.956-1.956 3.746-4.493 7.152-2.537 3.405-5.579 5.977-3.846 3.712-7.603 5.165-4.64 1.445-9.785 2.055-5.022.63-9.838-.1-6.051-.916-11.549-4.653-5.479-3.861-9.042-8.696-5.326-7.375-7.621-18.08-.591-1.1-.464-3.608l.201-3.001.449-2.964q-.067-.39.045-1.13.366-5.755 2.24-12.293 2.035-6.766 5.465-13.573.823-1.265 1.134-2.482m15.316-27.745q-2.312 1.923-1.646 2.53.808.5 3.256-.645 2.058-1.078 2.226-2.189.206-1.358-1.104-1.051-1.538.146-2.732 1.355m-24.29-67.344q.909-.999.762-2.537-.325-1.186-2.301-1.485-1.729-.262-3.944 2.687-2.35 2.17-5.066 5.928-.786 1.018-2.555 3.53-1.77 2.51-3.596 5.392t-3.367 5.554q-1.4 2.567-1.586 3.802-.449 2.964.662 3.132.248.037 1.695-2.017l1.61-2.283q.822-1.265 1.911-2.616t2.196-2.826q1.25-1.579 2.66-3.387 1.553-1.912 2.642-3.263 1.231-1.456 2.282-2.56zm169.505 137.874q-.211 1.363-.785 3.666-.453 2.333-1.33 5.847-.513 2.06-1.118 3.97-.453 1.817-.967 3.362-1.906 5.06-4.66 9.394-2.723 4.212-5.962 8.425-2.482 2.727-5.056 5.304-2.573 2.576-5.843 4.335-9.72 5.944-19.201 7.313-3.665.244-7.361-.42-3.575-.634-7.09-1.51-3.272-.816-6.029-1.632-2.606-.907-4.545-1.906-2.818-1.089-6.454-3.025-3.515-1.906-7.06-4.206-3.516-2.421-6.608-4.994-3.06-2.695-4.88-5.208-5.457-7.024-7.793-13.657-2.337-6.632-1.949-15.417.27-4.18.692-7.937.543-3.727 1.359-6.999 2.991-11.997 11.225-21.272 1.725-2.273 3.814-4.455 2.24-2.274 4.572-3.88.757-.455 1.544-1.031.939-.667 2.029-1.425 6.904-4.458 14.566-6.795t15.751-1.736q1.121.15 2.94.604 1.968.362 4.635 1.027 3.726 1.058 6.544 2.147 2.939 1.119 5.424 2.51 2.636 1.301 5.152 3.087 2.545 1.665 5.545 4.086l.06-.242q11.639 9.595 13.282 22.105.273.97.425 1.908.456 1.272.668 1.454 3.244 4.027 4.034 8.085.911 4.09.43 9.118m-56.129-44.374q6.542-1.458 4.693-3.85-.364-.606-1.333-.847-1.697-.423-4.272.093-2.453.547-4.997 1.457t-4.906 2.124q-2.332 1.092-3.695 1.91-9.114 6.095-6.992 8.941.365 1.12 1.334.333l3.603-3.093q1.483-1.303 3.542-2.334 2.09-1.153 4.24-2.032 2.302-.971 4.512-1.578 2.363-.699 4.271-1.124m33.471 45.933-1.454-.878.242.06q-2.636-1.3-3.789-3.905-1.032-2.574-1.397-5.24-.06-.787.15-1.635l.454-1.818q.696-1.757 1.967-3.757 2.057-3.607 2.692-6.152.634-2.544-.548-3.483-2.181-1.059-6.784.883-4.452 1.85-8.237 5.155-6.236 6.94-10.623 15.758-4.356 8.697-6.593 17.665l-.936 3.757q-.363 1.454-.423 2.211-.181.727-.12 1.515.182.818.455 1.787.607 1.696 1.214 2.877.606 1.18 1.334 1.877 1.182 1.454 3.424 1.755.757.06 1.393.09l1.515.12q1.818-.061 2.757-.213l.06-.243q5.694-1.154 9.811-4.762 4.27-3.698 7.477-8.305l-.06.243 4.236-8.212zm116.482 37.659q2.167-3.87 4.79-6.783l-.084.235q5.158-7.447 5.875-9.843t-1.493-2.517q-.95.06-3.098.89-1.234.49-2.51 1.097l-2.71 1.292q-4.147 1.975-8.39 4.976-4.245 3-8.38 6.438-3.974 3.362-7.796 7.042t-7.05 7.175q-3.386 3.57-4.053 5.453-.292.824-.611.976.319-.152-1.708 2.575-2.11 2.962-3.97 5.218-.085.236-.737 1.33-.645.698-.854 1.287-1.423 2.145-2.888 4.409-1.348 2.305-2.889 4.409-.444.505-.728.934-.243.312-.562.464-.201.193-.444.505l-.403.387q-2.315 1.3-5.19.81-2.597-.523-5.229-1.323l-4.944-1.753q-3.65-1.294-6.08-2.288-2.312-.953-3.524-1.647-3.197-2.194-5.161-4.878-1.922-2.802-2.93-5.942-.889-3.098-1.022-6.458-.092-3.478.37-7.025.03-1.58.379-3.31.056-.908.23-1.774.335-.942.55-1.925.377-1.06.676-2.279l.96-2.707 2.63-7.417q2.504-7.063 5.145-13.017 2.64-5.955 5.863-11.305 3.34-5.31 7.462-10.209 4.164-5.017 9.513-10.011 2.012-1.937 4.855-3.977 2.961-1.998 5.699-2.618 1.629-.483 3.596-.05 2.008.314 3.657.899 3.06 1.085 6.888 3.37 3.946 2.326 7.205 5.47 3.258 3.142 5.36 6.935 2.142 3.675 1.714 7.499-.394 4.1-3.776 9.527-.93 1.128-1.902 2.374-.812 1.17-1.943 2.491-1.013 1.364-1.943 2.492-.889 1.01-1.853 1.86 1.56-1.036 2.642-1.845l1.36-.843q.72-.54 1.636-.878 3.12-2.074 7.114-4.369t8.333-4.068q4.5-1.85 8.866-2.953 4.408-1.22 8.315-1.027l-.235-.084q3.2-.058 4.378.36 1.295.459 2.802 2.186 2.298 1.742 4.186 4.267 1.888 2.524 3.214 5.512t2.056 6.162.518 6.015q.027.672-.064 1.302t-.064 1.302q-.475 2.085-.983 3.893t-1.218 3.808l-1.67 4.709q-.792 2.237-1.779 4.272-.945 1.918-1.973 4.071-3.34 5.31-6.653 11.29-3.272 5.864-5.871 11.7-2.676 5.678-1.756 7.196.634 1.948 2.4 2.574 1.413.501 3.554.068 2.183-.552 4.332-1.38 2.191-.946 4.146-1.975 1.997-1.148 3.079-1.957 5.645-3.961 10.128-9.13 4.6-5.128 7.796-11.15 3.473-6.058 5.104-12.9 3.647-6.923 5.766-6.172t4.85 4.635q.76 1.594 1.193 3.736.475 2.023.59 4.317.274 2.217.194 4.31-.079 2.091-.428 3.823-.599 2.438-1.961 5.533-2.258 4.5-4.87 8.875-2.493 4.416-5.61 8.347-2.983 3.183-6 6.088-2.9 2.948-5.76 5.777-5.674 5.542-11.654 6.337t-13.279-1.793q-9.182-3.255-16.44-10.069-4.71-5.778-6.337-11.655-1.467-5.953-.778-13.13.527-4.849 1.487-7.556l1.46-4.12q.612-.977.945-1.918l.987-2.036q.668-1.883 1.757-3.087.653-1.094 1.59-2.617t2.042-3.516zm-36.655-50.233q1.332-1.515 1.146-2.111-.289-1.428-1.584-1.887-1.378-.224-2.855.578-1.4.96-3.42 3.293-1.86 2.256-3.887 4.982-1.985 2.61-3.735 5.302-1.708 2.575-2.611 4.375-1.875 3.046-1.62 4.196.345.52 1.116-.532.444-.505 1.416-1.75.971-1.246 2.588-3.19 1.708-2.576 3.963-4.824 2.414-2.324 4.939-4.212 1.685-1.39 2.733-2.477 1.166-1.044 1.81-1.743m126.25 33.283q.845.258 1.637.63.844.259 1.748.683 4.862 2.283 9.485 6.248 4.79 3.905 8.077 8.07 3.513 4.272.858 9.925-.902 1.922-2.575 4.31-1.56 2.44-3.779 5.4-4.549 5.868-10.898 13.51-2.066 2.342-4.835 5.595-2.657 3.306-5.306 6.891t-5.02 7.164q-2.317 3.465-3.645 6.292-1.38 2.939-.441 4.76.3.83 1.09 1.202 1.584.743 4.567-.615 3.15-1.419 6.34-3.508 3.242-2.203 5.926-4.393 2.85-2.249 3.833-3.167 7.985-7.013 15.338-14.737 7.519-7.783 14.36-15.886 2.065-2.341 4.35-4.856 2.338-2.628 5.022-4.817t5.667-3.548q3.037-1.471 6.44-1.667l-.105.227q2.24.224 4.547.893 1.07.365 2.201.896 1.297.471 2.654 1.108 1.809.85 4.303 2.297 2.66 1.387 5.108 3.227t4.23 3.918q1.897 2.133 2.23 4.36.268 1.78-1.06 4.607-1.38 2.94-3.166 5.274-1.673 2.388-3.852 4.677-1.202 1.09-2.45 2.574-1.25 1.484-2.71 3.42-3.36 4.217-6.608 8.487-3.194 4.157-6.382 8.594-3.3 4.383-5.87 8.972-2.568 4.59-5.017 9.51-1.593 3.392-3.458 7.07l-3.664 7.8-6.583 14.019-2.495 5.313q-1.115 2.374-2.184 4.356-3.146 6.112-7.224 10.682t-9.28 8.889l.226.106q-16.549 13.202-45.496 8.438-4.262-.621-8.265-2.087-3.943-1.3-7.9-3.158-6.896-3.239-12.717-8.18-5.82-4.941-9.94-11.154-4.007-6.159-6.253-13.423-2.133-7.211-1.82-14.93.24-8.442 3.134-13.43 1.4-2.102 3.367-3.938 2.026-1.67 4.292-2.676 2.38-.952 4.892-1.014t5 1.106q3.844 1.805 6.76 6.762 1.258 3.489 1.129 7.292-.07 3.968-1.158 7.46-.928 3.15-1.224 7.013t.51 7.14q1.32 3.655 6.52 6.097 3.279 1.54 6.955 1.058 3.675-.481 7.21-2.133 3.596-1.485 6.778-3.854 3.243-2.203 5.594-4.272l2.08-1.784-.107.227 10.647-12.387q4.103-5.8 8.38-11.38t8.72-11.222q.969-1.477 1.4-2.102.598-.685.704-.911l-3.447 2.934-5.05 3.7-4.943 3.474q-4.777 3.414-7.82 4.607-5.463 2.816-11.923 3.645-6.461.83-12.227-1.878-2.6-1.221-5.115-3.506l-6.226-5.546q-1.618-2.14-3.022-4.73-1.352-2.705-2.371-5.53-1.02-2.824-1.593-5.715-.521-3.005-.53-5.63.082-5.757 1.1-12.04 1.185-6.343 3.68-11.657 4.301-9.157 9.813-16.78 5.565-7.735 13.051-14.568 16.58-16.5 25.802-14.1m-5.182 11.916q.977-1.197 1.01-2.148-.308-1.11-1.099-1.481-1.357-.637-4.486 1.619-1.588 1.324-3.826 3.446-2.239 2.123-4.47 4.524-2.232 2.402-4.298 4.743-1.952 2.395-3.247 4.27-2.006 2.509-2.257 3.632-.504 2.248.054 2.234.665-.24 2.073-2.063 1.129-1.815 3.035-3.818 1.96-2.115 4.145-4.125t4.43-3.852q2.36-1.79 4.06-3.061 1.807-1.497 3.07-2.422t1.806-1.498m46.25 35.795q-2.324 3.186-2.47 4.084-.032.95.307 1.11.791.371 3.335-2.988 2.43-3.412 5.266-6.22 2.89-2.92 6.178-5.516 1.043-.752 1.754-1.384.877-.692 1.528-1.49 1.422-1.264 1.634-1.716.478-1.018-.32-1.669-.799-.65-2.022-.397-.83.3-2.956 2.475-2.072 2.063-4.576 4.75-2.338 2.628-4.51 5.196t-3.148 3.765" aria-label="To Anthony" style="font-size:253.333px;line-height:1;font-family:&quot;Magic Bubble&quot;;-inkscape-font-specification:&quot;Magic Bubble&quot;;text-align:center;text-anchor:middle;fill:#416fb3;stroke-width:2.95813;stroke-linecap:round;stroke-linejoin:round"/><text xml:space="preserve" x="1492.923" y="2967.939" style="font-size:216.09px;line-height:1;font-family:&quot;Magic Bubble&quot;;-inkscape-font-specification:&quot;Magic Bubble&quot;;text-align:center;writing-mode:lr-tb;direction:ltr;text-anchor:middle;opacity:1;fill:#ede2b9;fill-opacity:1;stroke:none;stroke-width:2.55896;stroke-linecap:round;stroke-linejoin:round;stroke-opacity:1"><tspan x="1492.923" y="2967.939" style="fill:#ede2b9;fill-opacity:1;stroke-width:2.55896">A Spheal To</tspan><tspan x="1492.923" y="3184.029" style="fill:#ede2b9;fill-opacity:1;stroke-width:2.55896">Show You How</tspan><tspan x="1492.923" y="3402.229" style="fill:#ede2b9;fill-opacity:1;stroke-width:2.55896">I feel!</tspan></text><text xml:space="preserve" x="1492.923" y="2953.312" style="font-size:216.09px;line-height:1;font-family:&quot;Magic Bubble&quot;;-inkscape-font-specification:&quot;Magic Bubble&quot;;text-align:center;writing-mode:lr-tb;direction:ltr;text-anchor:middle;opacity:1;fill:#416fb3;fill-opacity:1;stroke:none;stroke-width:2.55896;stroke-linecap:round;stroke-linejoin:round;stroke-opacity:1"><tspan x="1492.923" y="2953.312" style="stroke-width:2.55896">A Spheal To</tspan><tspan x="1492.923" y="3169.402" style="stroke-width:2.55896">Show You How</tspan><tspan x="1492.923" y="3387.602" style="stroke-width:2.55896">I feel!</tspan></text></svg>