<?xml version="1.0" encoding="UTF-8" standalone="no"?>
<svg
   width="1000"
   height="500"
   version="1.1"
   id="svg13"
   sodipodi:docname="joy-con-controller-light-mode.svg"
   inkscape:version="1.4.2 (ebf0e940d0, 2025-05-08)"
   xmlns:inkscape="http://www.inkscape.org/namespaces/inkscape"
   xmlns:sodipodi="http://sodipodi.sourceforge.net/DTD/sodipodi-0.dtd"
   xmlns="http://www.w3.org/2000/svg"
   xmlns:svg="http://www.w3.org/2000/svg">
  <defs
     id="defs13" />
  <sodipodi:namedview
     id="namedview13"
     pagecolor="#ffffff"
     bordercolor="#000000"
     borderopacity="0.25"
     inkscape:showpageshadow="2"
     inkscape:pageopacity="0.0"
     inkscape:pagecheckerboard="0"
     inkscape:deskcolor="#d1d1d1"
     inkscape:zoom="0.96307944"
     inkscape:cx="612.61821"
     inkscape:cy="293.32991"
     inkscape:window-width="1536"
     inkscape:window-height="888"
     inkscape:window-x="0"
     inkscape:window-y="0"
     inkscape:window-maximized="1"
     inkscape:current-layer="svg13" />
  <path
     d="M519.24.168c12.494-.449 25 .003 37.429 1.353l.039.004.039.006c.765.109 1.34.303 1.666.377l.008.002.008.002c11.555 2.696 27.727 6.461 43.806 16.787l.016.01.017.012a128.2 128.2 0 0 1 28.725 26.2l.006.009c5.433 6.595 9.72 12.987 12.563 18.187 1.423 2.603 2.486 4.9 3.158 6.852s1.214 3.427.547 5.36l-.004.015-.006.013c-.35.971-.931 1.415-1.41 1.754a7.6 7.6 0 0 1-1.45.79c4.905 12.78 7.613 26.678 7.655 41.208v309.93c-.179 62.81-50.197 113.778-111.956 113.961h-56.414c-4.809-.075-8.715-4.049-8.707-8.857v-49.604a6.8 6.8 0 0 1-1.935 3.719 6.87 6.87 0 0 1-4.875 2.01h-3.56a4.84 4.84 0 0 1-3.427-1.428 4.87 4.87 0 0 1-1.426-3.395v-90.732l.577-.701a16.4 16.4 0 0 0 2.326-4.598c-1.38-.513-2.377-1.67-2.776-2.574a6.4 6.4 0 0 1-.537-2.281l-.002-.045-.025-38.616v-.002c0-1.37.558-2.684 1.37-3.53.692-.72 1.477-1.133 2.2-1.393l-.002-.268a59 59 0 0 0-1.205-3.938l-.004-.01a35 35 0 0 0-1.603-3.728l-.319-.578V181.98l.022-.16c.258-1.935 1.017-3.77 1.79-4.768s1.098-1.563 1.288-2.096c-1.48-.474-2.552-1.693-2.97-2.639-.53-1.196-.54-2.281-.54-2.281l-.002-.043-.025-38.617v-.002c0-1.371.558-2.683 1.37-3.53.777-.807 1.671-1.228 2.464-1.482a9 9 0 0 0-.196-1.033 2 2 0 0 0-.08-.254v-.002a15 15 0 0 1-2.933-5.25l-.188-.387V39.199a5.8 5.8 0 0 1 1.75-4.149 5.8 5.8 0 0 1 4.125-1.713h9.348V14.003c-.006-4.807 3.9-8.78 8.707-8.853h19.463l.076-1.024.037-.167c.23-1.042.861-1.936 1.725-2.555.745-.603 1.63-1.013 2.584-1.127l.143-.017.146.002c3.773.008 7.56-.043 11.385-.094m-13.646 1.814-.199.15c.037-.023.085-.024.12-.052.034-.025.047-.07.08-.098m-33.166 485.66-.008.005-.002.002-.002.002-.002.002-.004.01z"
     style="baseline-shift:baseline;display:inline;overflow:visible;opacity:1;vector-effect:none;fill:#000;stop-color:#000;stop-opacity:1"
     transform="translate(175.494 32.071)scale(.80268)"
     id="path1" />
  <path
     d="M502.15 43.592c-2.028.016-3.727 1.685-3.779 3.713v6.084h-6.037c-2.439-.015-3.804 2.14-3.787 3.8v6.66c-.017 1.66 1.348 3.816 3.787 3.801h6.037v6.084c.052 2.028 1.751 3.697 3.78 3.713h6.757c2.029-.016 3.727-1.685 3.78-3.713V67.65h6.037c2.439.015 3.803-2.14 3.787-3.8v-6.66c.016-1.66-1.348-3.816-3.787-3.801h-6.038v-6.084c-.052-2.028-1.75-3.697-3.779-3.713z"
     style="baseline-shift:baseline;display:inline;overflow:visible;opacity:1;vector-effect:none;fill:#dfdfe7;fill-opacity:1;stop-color:#000;stop-opacity:1"
     transform="translate(175.494 32.071)scale(.80268)"
     id="path2" />
  <path
     d="M529.226 365.783c-12.91.004-23.427 10.666-23.427 23.752 0 13.087 10.517 23.748 23.427 23.752h.64c12.914.002 23.436-10.66 23.437-23.75 0-13.091-10.522-23.756-23.437-23.754z"
     style="baseline-shift:baseline;display:inline;overflow:visible;opacity:1;vector-effect:none;fill:#dfdfe7;fill-opacity:1;stroke-width:.993265;stop-color:#000;stop-opacity:1"
     transform="translate(175.494 32.071)scale(.80268)"
     id="path3" />
  <g
     transform="translate(79.797 21.563)scale(.80268)"
     id="g6">
    <circle
       cx="634.792"
       cy="154.829"
       r="22.338"
       style="font-variation-settings:normal;vector-effect:none;fill:#dfdfe7;fill-opacity:1;fill-rule:evenodd;stroke-width:44.661;stroke-linecap:butt;stroke-linejoin:miter;stroke-miterlimit:4;stroke-dasharray:none;stroke-dashoffset:0;stroke-opacity:1;-inkscape-stroke:none;stop-color:#000"
       id="circle3" />
    <circle
       cx="-721.673"
       cy="154.829"
       r="22.338"
       style="font-variation-settings:normal;vector-effect:none;fill:#dfdfe7;fill-opacity:1;fill-rule:evenodd;stroke-width:44.661;stroke-linecap:butt;stroke-linejoin:miter;stroke-miterlimit:4;stroke-dasharray:none;stroke-dashoffset:0;stroke-opacity:1;-inkscape-stroke:none;stop-color:#000"
       transform="scale(-1 1)"
       id="circle4" />
    <circle
       cx="111.388"
       cy="-678.232"
       r="22.338"
       style="font-variation-settings:normal;vector-effect:none;fill:#dfdfe7;fill-opacity:1;fill-rule:evenodd;stroke-width:44.661;stroke-linecap:butt;stroke-linejoin:miter;stroke-miterlimit:4;stroke-dasharray:none;stroke-dashoffset:0;stroke-opacity:1;-inkscape-stroke:none;stop-color:#000"
       transform="rotate(90)"
       id="circle5" />
    <circle
       cx="-198.269"
       cy="-678.232"
       r="22.338"
       style="font-variation-settings:normal;vector-effect:none;fill:#dfdfe7;fill-opacity:1;fill-rule:evenodd;stroke-width:44.661;stroke-linecap:butt;stroke-linejoin:miter;stroke-miterlimit:4;stroke-dasharray:none;stroke-dashoffset:0;stroke-opacity:1;-inkscape-stroke:none;stop-color:#000"
       transform="scale(1 -1)rotate(90)"
       id="circle6" />
  </g>
  <path
     d="M407.72 32.206a209 209 0 0 0-30.043 1.086l-.032.003-.03.005c-.615.087-1.077.243-1.338.302l-.006.002-.006.002c-9.276 2.164-22.257 5.186-35.163 13.474l-.012.008-.014.01a102.9 102.9 0 0 0-23.057 21.03l-.005.007c-4.361 5.294-7.802 10.425-10.084 14.599-1.142 2.089-1.996 3.933-2.534 5.5-.54 1.566-.976 2.75-.44 4.302l.004.012.005.01c.28.78.746 1.136 1.131 1.408a6 6 0 0 0 1.164.634c-3.938 10.259-6.111 21.414-6.144 33.077v248.775c.143 50.416 40.291 91.327 89.864 91.474h45.282c3.86-.06 6.995-3.25 6.989-7.11v-39.815a5.46 5.46 0 0 0 1.554 2.985 5.5 5.5 0 0 0 3.913 1.613h2.856a3.9 3.9 0 0 0 2.752-1.146 3.9 3.9 0 0 0 1.144-2.725v-72.829l-.462-.563a13.2 13.2 0 0 1-1.867-3.69c1.108-.412 1.907-1.34 2.227-2.066a5.1 5.1 0 0 0 .431-1.831l.002-.036.02-30.997v-.002c0-1.1-.447-2.154-1.1-2.833a4.5 4.5 0 0 0-1.765-1.118l.002-.215c.303-1.107.619-2.168.967-3.161l.003-.008a28 28 0 0 1 1.288-2.993l.255-.464v-120.78l-.017-.128c-.207-1.553-.816-3.026-1.438-3.827-.62-.801-.881-1.254-1.034-1.682 1.188-.38 2.05-1.36 2.385-2.119.426-.96.434-1.83.434-1.83v-.035l.021-30.997v-.002c0-1.1-.447-2.154-1.1-2.834-.623-.647-1.34-.985-1.977-1.19a7 7 0 0 1 .156-.828c.039-.145.059-.193.065-.204v-.002a12 12 0 0 0 2.355-4.214l.15-.31V63.534a4.66 4.66 0 0 0-1.405-3.33 4.66 4.66 0 0 0-3.31-1.375h-7.504V43.31c.005-3.858-3.13-7.047-6.99-7.105H420.64l-.061-.822-.03-.134c-.185-.837-.691-1.554-1.385-2.051a4.1 4.1 0 0 0-2.074-.905l-.114-.013-.118.001c-3.028.007-6.068-.034-9.137-.075m10.953 1.456.16.12c-.03-.018-.068-.019-.096-.041-.027-.02-.038-.057-.064-.08m26.622 389.83.006.004.002.002.002.002.002.002.003.008z"
     style="baseline-shift:baseline;display:inline;overflow:visible;vector-effect:none;fill:#000;stroke-width:.80268;stop-color:#000"
     id="path6" />
  <path
     d="M388.581 329.892a3.92 3.92 0 0 0-2.735 1.143l-.01.008-.007.01a3.9 3.9 0 0 0-1.109 2.753v21.879a3.9 3.9 0 0 0 1.108 2.751l.01.011.011.01a3.92 3.92 0 0 0 2.732 1.137h22.315a3.88 3.88 0 0 0 2.737-1.135 3.82 3.82 0 0 0 1.159-2.782V333.81a3.82 3.82 0 0 0-1.159-2.777 3.9 3.9 0 0 0-2.737-1.14H388.59z"
     style="baseline-shift:baseline;display:inline;overflow:visible;vector-effect:none;fill:#dfdfe7;fill-opacity:1;stroke-width:.80268;stop-color:#000"
     id="path7" />
  <rect
     width="27.23"
     height="12.124"
     x="405.466"
     y="74.587"
     ry="3.289"
     style="fill:#dfdfe7;fill-opacity:1;stroke-width:1.34437;stroke-linecap:round;stroke-linejoin:round"
     id="rect7" />
  <g
     transform="translate(-167.278 140.979)scale(.80268)"
     id="g10">
    <circle
       cx="634.792"
       cy="154.829"
       r="22.338"
       style="font-variation-settings:normal;vector-effect:none;fill:#dfdfe7;fill-opacity:1;fill-rule:evenodd;stroke-width:44.661;stroke-linecap:butt;stroke-linejoin:miter;stroke-miterlimit:4;stroke-dasharray:none;stroke-dashoffset:0;stroke-opacity:1;-inkscape-stroke:none;stop-color:#000"
       id="circle7" />
    <circle
       cx="-721.673"
       cy="154.829"
       r="22.338"
       style="font-variation-settings:normal;vector-effect:none;fill:#dfdfe7;fill-opacity:1;fill-rule:evenodd;stroke-width:44.661;stroke-linecap:butt;stroke-linejoin:miter;stroke-miterlimit:4;stroke-dasharray:none;stroke-dashoffset:0;stroke-opacity:1;-inkscape-stroke:none;stop-color:#000"
       transform="scale(-1 1)"
       id="circle8" />
    <circle
       cx="111.388"
       cy="-678.232"
       r="22.338"
       style="font-variation-settings:normal;vector-effect:none;fill:#dfdfe7;fill-opacity:1;fill-rule:evenodd;stroke-width:44.661;stroke-linecap:butt;stroke-linejoin:miter;stroke-miterlimit:4;stroke-dasharray:none;stroke-dashoffset:0;stroke-opacity:1;-inkscape-stroke:none;stop-color:#000"
       transform="rotate(90)"
       id="circle9" />
    <circle
       cx="-198.269"
       cy="-678.232"
       r="22.338"
       style="font-variation-settings:normal;vector-effect:none;fill:#dfdfe7;fill-opacity:1;fill-rule:evenodd;stroke-width:44.661;stroke-linecap:butt;stroke-linejoin:miter;stroke-miterlimit:4;stroke-dasharray:none;stroke-dashoffset:0;stroke-opacity:1;-inkscape-stroke:none;stop-color:#000"
       transform="scale(1 -1)rotate(90)"
       id="circle10" />
  </g>
  <g
     style="fill:#dfdfe7;fill-opacity:1"
     id="g11">
    <path
       d="M 704.621,563 C 680,563 660,583 660,607.621 c 0,24.621 20,44.621 44.62,44.621 24.622,0 44.622,-20 44.622,-44.62 0,-24.622 -20,-44.622 -44.621,-44.622"
       style="baseline-shift:baseline;display:inline;overflow:visible;vector-effect:none;fill:#dfdfe7;fill-opacity:1;stop-color:#000000"
       transform="matrix(0.77614,0,0,0.77614,77.523,-207.506)"
       id="path11"
       sodipodi:nodetypes="csssc" />
  </g>
  <g
     style="fill:#dfdfe7;fill-opacity:1"
     id="g13">
    <path
       d="M 704.621,563 C 680,563 660,583 660,607.621 c 0,24.621 20,44.621 44.62,44.621 24.622,0 44.622,-20 44.622,-44.62 0,-24.622 -20,-44.622 -44.621,-44.622"
       style="baseline-shift:baseline;display:inline;overflow:visible;vector-effect:none;fill:#dfdfe7;fill-opacity:1;stop-color:#000000"
       transform="matrix(0.77614,0,0,0.77614,-170.315,-324.317)"
       id="path13"
       sodipodi:nodetypes="csssc" />
  </g>
</svg>
