<?xml version="1.0" encoding="UTF-8" standalone="no"?>
<svg
   xml:space="preserve"
   width="1000"
   height="500"
   version="1.1"
   id="svg10"
   sodipodi:docname="switch-pro-controller-dark-mode.svg"
   inkscape:version="1.4.2 (ebf0e940d0, 2025-05-08)"
   xmlns:inkscape="http://www.inkscape.org/namespaces/inkscape"
   xmlns:sodipodi="http://sodipodi.sourceforge.net/DTD/sodipodi-0.dtd"
   xmlns="http://www.w3.org/2000/svg"
   xmlns:svg="http://www.w3.org/2000/svg"><defs
     id="defs10" /><sodipodi:namedview
     id="namedview10"
     pagecolor="#ffffff"
     bordercolor="#000000"
     borderopacity="0.25"
     inkscape:showpageshadow="2"
     inkscape:pageopacity="0.0"
     inkscape:pagecheckerboard="0"
     inkscape:deskcolor="#d1d1d1"
     inkscape:zoom="0.96307944"
     inkscape:cx="444.40779"
     inkscape:cy="248.68146"
     inkscape:window-width="1536"
     inkscape:window-height="888"
     inkscape:window-x="0"
     inkscape:window-y="0"
     inkscape:window-maximized="1"
     inkscape:current-layer="svg10" /><path
     d="M356.384 32.234c-18.84.924-37.743 5.63-53.615 9.992-31.592 8.682-45.027 37.442-45.852 39.26a134 134 0 0 0-17.502 10.535l-.018.013-.019.013c-1.807 1.356-3.052 3.626-4.46 6.72-5.234 11.502-10.889 35.334-12.587 42.538-32.993 139.972-39.164 253.953-39.172 254.14-.704 18.266 6.26 36.203 17.438 49.684 11.176 13.482 26.64 22.579 43.057 22.795 16.603.22 31.12-11.023 43.771-27.606 12.651-16.582 23.607-38.69 33.139-61.112 9.402-22.118 19.118-32.455 26.282-37.284 3.582-2.414 6.534-3.46 8.55-3.92 74.11-.595 214.723-.598 289.208 0 2.016.46 4.968 1.506 8.55 3.92 7.163 4.829 16.88 15.166 26.282 37.284 9.532 22.422 20.488 44.53 33.139 61.112s27.168 27.825 43.771 27.606c16.417-.216 31.88-9.313 43.057-22.795 11.177-13.481 18.142-31.418 17.438-49.684-.008-.187-6.18-114.168-39.172-254.14-1.699-7.204-7.353-31.036-12.588-42.538-1.408-3.094-2.652-5.364-4.46-6.72l-.018-.013-.018-.013a134 134 0 0 0-17.502-10.535c-.825-1.818-14.26-30.578-45.853-39.26-15.872-4.362-34.775-9.068-53.614-9.992-18.625-.914-37.176 1.9-52.68 12.366-48.175-.268-124.162-.322-181.873 0-15.503-10.466-34.054-13.28-52.68-12.366z"
     style="baseline-shift:baseline;display:inline;overflow:visible;vector-effect:none;fill:#dfdfe7;stroke-width:.942348;stop-color:#000;fill-opacity:1"
     id="path1" /><path
     d="M444.572 144.156a4.13 4.13 0 0 0-2.884 1.205l-.01.008-.008.01a4.1 4.1 0 0 0-1.168 2.903v23.062a4.1 4.1 0 0 0 1.167 2.9l.01.013.013.01a4.13 4.13 0 0 0 2.88 1.199h23.522a4.1 4.1 0 0 0 2.885-1.197 4.03 4.03 0 0 0 1.221-2.932v-23.051a4.03 4.03 0 0 0-1.22-2.928 4.1 4.1 0 0 0-2.886-1.201H444.58z"
     style="baseline-shift:baseline;display:inline;overflow:visible;vector-effect:none;fill:#000;fill-opacity:1;stroke-width:.846119;stop-color:#000"
     id="path2" /><path
     d="M406.022 200.526a7.425 7.425 0 0 0-7.444 7.445v19.974a2.623 2.623 0 0 1-2.623 2.624H375.98a7.425 7.425 0 0 0-7.444 7.443v19.432a7.425 7.425 0 0 0 7.444 7.443h19.973a2.623 2.623 0 0 1 2.623 2.624v19.972a7.425 7.425 0 0 0 7.445 7.445h19.433a7.425 7.425 0 0 0 7.442-7.445v-19.972a2.623 2.623 0 0 1 2.623-2.624h19.976a7.425 7.425 0 0 0 7.442-7.443v-19.432a7.425 7.425 0 0 0-7.442-7.443h-19.977a2.623 2.623 0 0 1-2.624-2.624v-19.974a7.425 7.425 0 0 0-7.44-7.443z"
     style="fill:#000;fill-opacity:1;fill-rule:evenodd;stroke:none;stroke-width:3.15677;stroke-miterlimit:7;paint-order:stroke markers fill"
     id="path3" /><g
     style="fill:#000"
     transform="translate(-767.944 -220.588)scale(1.26794)"
     id="g6"><circle
       cx="1096.93"
       cy="299.799"
       r="17.93"
       style="font-variation-settings:normal;vector-effect:none;fill:#000;fill-opacity:1;fill-rule:evenodd;stroke-width:35.8485;stroke-linecap:butt;stroke-linejoin:miter;stroke-miterlimit:4;stroke-dasharray:none;stroke-dashoffset:0;stroke-opacity:1;-inkscape-stroke:none;stop-color:#000"
       id="circle3" /><circle
       cx="-1166.668"
       cy="299.799"
       r="17.93"
       style="font-variation-settings:normal;vector-effect:none;fill:#000;fill-opacity:1;fill-rule:evenodd;stroke-width:35.8485;stroke-linecap:butt;stroke-linejoin:miter;stroke-miterlimit:4;stroke-dasharray:none;stroke-dashoffset:0;stroke-opacity:1;-inkscape-stroke:none;stop-color:#000"
       transform="scale(-1 1)"
       id="circle4" /><circle
       cx="264.93"
       cy="-1131.799"
       r="17.93"
       style="font-variation-settings:normal;vector-effect:none;fill:#000;fill-opacity:1;fill-rule:evenodd;stroke-width:35.8485;stroke-linecap:butt;stroke-linejoin:miter;stroke-miterlimit:4;stroke-dasharray:none;stroke-dashoffset:0;stroke-opacity:1;-inkscape-stroke:none;stop-color:#000"
       transform="rotate(90)"
       id="circle5" /><circle
       cx="-334.668"
       cy="-1131.799"
       r="17.93"
       style="font-variation-settings:normal;vector-effect:none;fill:#000;fill-opacity:1;fill-rule:evenodd;stroke-width:35.8485;stroke-linecap:butt;stroke-linejoin:miter;stroke-miterlimit:4;stroke-dasharray:none;stroke-dashoffset:0;stroke-opacity:1;-inkscape-stroke:none;stop-color:#000"
       transform="scale(1 -1)rotate(90)"
       id="circle6" /></g><path
     d="M543.435 144.156c-8.509.003-15.44 7.03-15.44 15.655s6.931 15.653 15.44 15.655h.422c8.512.002 15.447-7.026 15.448-15.654 0-8.628-6.936-15.657-15.448-15.656zM422.108 96.682c-8.51.003-15.441 7.03-15.441 15.655s6.932 15.653 15.441 15.656h.422c8.512.002 15.447-7.027 15.447-15.654 0-8.629-6.935-15.658-15.447-15.657zm155.784 0c8.51.003 15.441 7.03 15.441 15.655s-6.932 15.653-15.441 15.656h-.422c-8.512.002-15.447-7.027-15.447-15.654 0-8.629 6.935-15.658 15.447-15.657z"
     style="baseline-shift:baseline;display:inline;overflow:visible;vector-effect:none;fill:#000;fill-opacity:1;stroke-width:.654673;stop-color:#000"
     id="path6" /><g
     style="fill:#000;fill-opacity:1"
     id="g8"><path
       d="M 704.621,563 C 680,563 660,583 660,607.621 c 0,24.621 20,44.621 44.62,44.621 24.622,0 44.622,-20 44.622,-44.62 0,-24.622 -20,-44.622 -44.621,-44.622"
       style="baseline-shift:baseline;display:inline;overflow:visible;vector-effect:none;fill:#000000;fill-opacity:1;stop-color:#000000"
       transform="matrix(1.00362,0,0,1.00362,-122.905,-362.09)"
       id="path8"
       sodipodi:nodetypes="csssc" /></g><g
     style="fill:#000;fill-opacity:1"
     id="g10"><path
       d="M 704.621,563 C 680,563 660,583 660,607.621 c 0,24.621 20,44.621 44.62,44.621 24.622,0 44.622,-20 44.622,-44.62 0,-24.622 -20,-44.622 -44.621,-44.622"
       style="baseline-shift:baseline;display:inline;overflow:visible;vector-effect:none;fill:#000000;fill-opacity:1;stop-color:#000000"
       transform="matrix(1.00362,0,0,1.00362,-380.405,-450.255)"
       id="path10"
       sodipodi:nodetypes="csssc" /></g></svg>
