<svg xmlns="http://www.w3.org/2000/svg" xmlns:xlink="http://www.w3.org/1999/xlink" xml:space="preserve" width="3000" height="3600"><defs><linearGradient id="Y"><stop offset="0" stop-color="#f7d3cd"/><stop offset="1" stop-color="#f7d3cd" stop-opacity="0"/></linearGradient><linearGradient id="L"><stop offset="0" stop-color="#c64e56"/><stop offset=".5" stop-color="#c95860"/><stop offset="1" stop-color="#ce6870"/></linearGradient><linearGradient id="X"><stop offset="0" stop-color="#fcd9d8" stop-opacity=".733"/><stop offset="1" stop-color="#fcd9d8" stop-opacity="0"/></linearGradient><linearGradient id="W"><stop offset="0" stop-color="#f7c7c9"/><stop offset="1" stop-color="#f7c7c9" stop-opacity="0"/></linearGradient><linearGradient id="J"><stop offset="0" stop-color="#e98e99"/><stop offset="1" stop-color="#e98e99" stop-opacity="0"/></linearGradient><linearGradient id="I"><stop offset="0" stop-color="#be536a"/><stop offset="1" stop-color="#be536a" stop-opacity="0"/></linearGradient><linearGradient id="V"><stop offset="0" stop-color="#9cc075"/><stop offset="1" stop-color="#658b40" stop-opacity="0"/></linearGradient><linearGradient id="H"><stop offset="0" stop-color="#538f39"/><stop offset="1" stop-color="#538f39" stop-opacity="0"/></linearGradient><linearGradient id="G"><stop offset="0" stop-color="#1d3e2c"/><stop offset="1" stop-color="#1d3e2c" stop-opacity="0"/></linearGradient><linearGradient id="E"><stop offset="0" stop-color="#c5d596"/><stop offset="1" stop-color="#c5d596" stop-opacity="0"/></linearGradient><linearGradient id="D"><stop offset="0" stop-color="#c5d596"/><stop offset="1" stop-color="#c5d596" stop-opacity="0"/></linearGradient><linearGradient id="U"><stop offset="0" stop-color="#90b768"/><stop offset="1" stop-color="#90b768" stop-opacity="0"/></linearGradient><linearGradient id="C"><stop offset="0" stop-color="#85845e"/><stop offset="1" stop-color="#85845e" stop-opacity="0"/></linearGradient><linearGradient id="B"><stop offset="0" stop-color="#165a32"/><stop offset="1" stop-color="#165a33"/></linearGradient><linearGradient id="A"><stop offset="0" stop-color="#1d3e2c"/><stop offset="1" stop-color="#1d3e2c" stop-opacity="0"/></linearGradient><linearGradient id="z"><stop offset="0" stop-color="#1d3e2c"/><stop offset="1" stop-color="#1d3e2c" stop-opacity="0"/></linearGradient><linearGradient id="y"><stop offset="0" stop-color="#538f39"/><stop offset="1" stop-color="#538f39" stop-opacity="0"/></linearGradient><linearGradient id="x"><stop offset="0" stop-color="#a3ba54"/><stop offset="1" stop-color="#a3ba54" stop-opacity="0"/></linearGradient><linearGradient id="w"><stop offset="0" stop-color="#8d3635"/><stop offset="1" stop-color="#8d3635" stop-opacity="0"/></linearGradient><linearGradient id="v"><stop offset="0" stop-color="#c64e5b"/><stop offset=".5" stop-color="#cf6a75"/><stop offset="1" stop-color="#c64e5b"/></linearGradient><linearGradient id="u"><stop offset="0" stop-color="#5b1c2f"/><stop offset="1" stop-color="#952e4d"/></linearGradient><linearGradient id="s"><stop offset="0" stop-color="#c6434b"/><stop offset="1" stop-color="#c6434b" stop-opacity="0"/></linearGradient><linearGradient id="q"><stop offset="0" stop-color="#8f3433"/><stop offset="1" stop-color="#8f3433" stop-opacity="0"/></linearGradient><linearGradient id="T"><stop offset="0" stop-color="#e29ba4"/><stop offset="1" stop-color="#e29ba4" stop-opacity="0"/></linearGradient><linearGradient id="p"><stop offset="0" stop-color="#fafafd"/><stop offset="1" stop-color="#fafafd"/></linearGradient><linearGradient id="S"><stop offset="0" stop-color="#f4c2be"/><stop offset="1" stop-color="#f4c2be" stop-opacity="0"/></linearGradient><linearGradient id="m"><stop offset="0" stop-color="#ac425d"/><stop offset="1" stop-color="#ac425d" stop-opacity="0"/></linearGradient><linearGradient id="l"><stop offset="0" stop-color="#511121"/><stop offset="1" stop-color="#511121" stop-opacity="0"/></linearGradient><linearGradient id="k"><stop offset="0" stop-color="#511121"/><stop offset="1" stop-color="#511121" stop-opacity="0"/></linearGradient><linearGradient id="h"><stop offset="0" stop-color="#c46d7d"/><stop offset="1" stop-color="#c46d7d" stop-opacity="0"/></linearGradient><linearGradient id="R"><stop offset="0" stop-color="#f7d3cd"/><stop offset="1" stop-color="#f7d3cd" stop-opacity="0"/></linearGradient><linearGradient id="Q"><stop offset="0" stop-color="#f7d3cd"/><stop offset="1" stop-color="#f7d3cd" stop-opacity="0"/></linearGradient><linearGradient id="g"><stop offset="0" stop-color="#ab4759"/><stop offset="1" stop-color="#b74c63"/></linearGradient><linearGradient id="f"><stop offset="0" stop-color="#fce4df"/><stop offset="1" stop-color="#fce4df" stop-opacity="0"/></linearGradient><linearGradient id="d"><stop offset="0" stop-color="#fce4df"/><stop offset="1" stop-color="#fce4df" stop-opacity="0"/></linearGradient><linearGradient id="P"><stop offset="0" stop-color="#f2c6c8"/><stop offset="1" stop-color="#f2c6c8" stop-opacity="0"/></linearGradient><linearGradient id="N"><stop offset="0" stop-color="#e58b8e"/><stop offset="1" stop-color="#e58b8e" stop-opacity="0"/></linearGradient><linearGradient id="c"><stop offset="0" stop-color="#edb5b4"/><stop offset="1" stop-color="#edb5b4" stop-opacity="0"/></linearGradient><linearGradient id="M"><stop offset="0" stop-color="#eda6ac" stop-opacity=".458"/><stop offset="1" stop-color="#eda6ac" stop-opacity="0"/></linearGradient><linearGradient id="b"><stop offset="0" stop-color="#ea979e"/><stop offset="1" stop-color="#ea979e" stop-opacity="0"/></linearGradient><linearGradient id="a"><stop offset="0" stop-color="#e36f78"/><stop offset="1" stop-color="#a23e5a"/></linearGradient><linearGradient xlink:href="#a" id="ao" x1="412.714" x2="674.87" y1="418.204" y2="578.219" gradientUnits="userSpaceOnUse"/><linearGradient xlink:href="#a" id="aq" x1="412.714" x2="674.87" y1="418.204" y2="578.219" gradientUnits="userSpaceOnUse"/><linearGradient xlink:href="#b" id="ar" x1="403.804" x2="425.793" y1="457.341" y2="491.878" gradientUnits="userSpaceOnUse"/><linearGradient xlink:href="#c" id="at" x1="352.765" x2="430.217" y1="240.111" y2="416.325" gradientUnits="userSpaceOnUse"/><linearGradient xlink:href="#d" id="aI" x1="262.046" x2="356.308" y1="254.525" y2="360.131" gradientUnits="userSpaceOnUse"/><linearGradient xlink:href="#f" id="aL" x1="358.234" x2="323.766" y1="321.286" y2="321.286" gradientUnits="userSpaceOnUse"/><linearGradient xlink:href="#g" id="aA" x1="397.198" x2="368.392" y1="365.885" y2="319.95" gradientUnits="userSpaceOnUse"/><linearGradient xlink:href="#h" id="aN" x1="381.267" x2="374.621" y1="579.846" y2="538.545" gradientUnits="userSpaceOnUse"/><linearGradient xlink:href="#k" id="aO" x1="433.941" x2="465.461" y1="1369.545" y2="1373.934" gradientUnits="userSpaceOnUse"/><linearGradient xlink:href="#l" id="aP" x1="433.924" x2="463.121" y1="1388.556" y2="1388.556" gradientUnits="userSpaceOnUse"/><linearGradient xlink:href="#m" id="aS" x1="452.13" x2="447.028" y1="1405.606" y2="1373.907" gradientUnits="userSpaceOnUse"/><linearGradient xlink:href="#p" id="aT" x1="441.679" x2="453.467" y1="1363.633" y2="1382.715" gradientUnits="userSpaceOnUse"/><linearGradient xlink:href="#l" id="aC" x1="433.941" x2="465.461" y1="1369.545" y2="1373.934" gradientUnits="userSpaceOnUse"/><linearGradient xlink:href="#l" id="aD" x1="433.924" x2="463.121" y1="1388.556" y2="1388.556" gradientUnits="userSpaceOnUse"/><linearGradient xlink:href="#m" id="aG" x1="452.13" x2="447.028" y1="1405.606" y2="1373.907" gradientUnits="userSpaceOnUse"/><linearGradient xlink:href="#p" id="aH" x1="441.679" x2="453.467" y1="1363.633" y2="1382.715" gradientUnits="userSpaceOnUse"/><linearGradient xlink:href="#q" id="aw" x1="354.427" x2="382.773" y1="1693.216" y2="1711.493" gradientTransform="translate(0 -1280.049)" gradientUnits="userSpaceOnUse"/><linearGradient xlink:href="#s" id="ax" x1="420.051" x2="393.578" y1="1738.04" y2="1711.372" gradientTransform="translate(0 -1280.049)" gradientUnits="userSpaceOnUse"/><linearGradient xlink:href="#u" id="au" x1="386.894" x2="347.044" y1="1714.566" y2="1691.482" gradientTransform="translate(0 -1280.049)" gradientUnits="userSpaceOnUse"/><linearGradient xlink:href="#v" id="av" x1="340.978" x2="428.332" y1="1703.111" y2="1727.02" gradientTransform="translate(0 -1280.049)" gradientUnits="userSpaceOnUse"/><linearGradient xlink:href="#w" id="ay" x1="374.134" x2="391.319" y1="389.238" y2="427.597" gradientUnits="userSpaceOnUse"/><linearGradient xlink:href="#x" id="ad" x1="226.8" x2="450.126" y1="186.867" y2="257.412" gradientUnits="userSpaceOnUse"/><linearGradient xlink:href="#y" id="ak" x1="696.502" x2="522.671" y1="233.504" y2="235.803" gradientUnits="userSpaceOnUse"/><linearGradient xlink:href="#z" id="af" x1="504.795" x2="516.229" y1="1431.585" y2="1430.102" gradientUnits="userSpaceOnUse"/><linearGradient xlink:href="#A" id="ac" x1="468.36" x2="483.777" y1="249.416" y2="278.952" gradientUnits="userSpaceOnUse"/><linearGradient xlink:href="#B" id="aa" x1="453.59" x2="501.009" y1="1295.213" y2="1294.109" gradientUnits="userSpaceOnUse"/><linearGradient xlink:href="#C" id="ab" x1="451.176" x2="482.526" y1="323.464" y2="293.252" gradientUnits="userSpaceOnUse"/><linearGradient xlink:href="#x" id="ah" x1="107.157" x2="446.3" y1="180.365" y2="261.722" gradientUnits="userSpaceOnUse"/><linearGradient xlink:href="#D" id="aj" x1="260.825" x2="336.905" y1="104.164" y2="184.403" gradientUnits="userSpaceOnUse"/><linearGradient xlink:href="#E" id="al" x1="718.533" x2="638.209" y1="166.8" y2="221.42" gradientUnits="userSpaceOnUse"/><linearGradient xlink:href="#G" id="Z" x1="514.278" x2="533.108" y1="255.801" y2="288.064" gradientUnits="userSpaceOnUse"/><linearGradient xlink:href="#H" id="am" x1="569.826" x2="527.32" y1="325.501" y2="299.191" gradientUnits="userSpaceOnUse"/><linearGradient xlink:href="#I" id="aV" x1="653.043" x2="613.489" y1="450.968" y2="346.688" gradientUnits="userSpaceOnUse"/><linearGradient xlink:href="#J" id="aW" x1="561.903" x2="626.443" y1="234.957" y2="330.708" gradientUnits="userSpaceOnUse"/><linearGradient xlink:href="#L" id="aY" x1="634.637" x2="619.812" y1="345.428" y2="340.571" gradientUnits="userSpaceOnUse"/><linearGradient xlink:href="#y" id="ae" x1="696.502" x2="522.671" y1="233.504" y2="235.803" gradientUnits="userSpaceOnUse"/><linearGradient xlink:href="#y" id="ai" x1="696.502" x2="522.671" y1="233.504" y2="235.803" gradientUnits="userSpaceOnUse"/><linearGradient xlink:href="#d" id="aB" x1="262.046" x2="356.308" y1="254.525" y2="360.131" gradientUnits="userSpaceOnUse"/><radialGradient xlink:href="#M" id="as" cx="419.254" cy="477.895" r="27.492" fx="419.254" fy="477.895" gradientTransform="matrix(1.09198 .02365 -.02835 1.30894 -31.649 -157.828)" gradientUnits="userSpaceOnUse"/><radialGradient xlink:href="#N" id="az" cx="410.3" cy="384.291" r="134.599" fx="410.3" fy="384.291" gradientTransform="translate(-257.64 -327.986)scale(1.57525)" gradientUnits="userSpaceOnUse"/><radialGradient xlink:href="#P" id="ap" cx="328.288" cy="308.058" r="191.272" fx="328.288" fy="308.058" gradientTransform="translate(-71.836 -101.928)scale(1.2547)" gradientUnits="userSpaceOnUse"/><radialGradient xlink:href="#Q" id="aK" cx="370.113" cy="304.649" r="131.23" fx="370.113" fy="304.649" gradientTransform="translate(-54.62 -26.66)" gradientUnits="userSpaceOnUse"/><radialGradient xlink:href="#R" id="aM" cx="414.52" cy="442.823" r="65.512" fx="414.52" fy="442.823" gradientTransform="translate(-485.376 -548.304)scale(2.08431)" gradientUnits="userSpaceOnUse"/><radialGradient xlink:href="#S" id="aQ" cx="438.972" cy="1356.498" r="24.221" fx="438.972" fy="1356.498" gradientTransform="translate(-106.98 -322.21)scale(1.2349)" gradientUnits="userSpaceOnUse"/><radialGradient xlink:href="#T" id="aR" cx="434.269" cy="1374.765" r="21.495" fx="434.269" fy="1374.765" gradientTransform="translate(6.015 -5.364)" gradientUnits="userSpaceOnUse"/><radialGradient xlink:href="#S" id="aE" cx="438.972" cy="1356.498" r="24.221" fx="438.972" fy="1356.498" gradientTransform="translate(-106.98 -322.21)scale(1.2349)" gradientUnits="userSpaceOnUse"/><radialGradient xlink:href="#T" id="aF" cx="434.269" cy="1374.765" r="21.495" fx="434.269" fy="1374.765" gradientTransform="translate(6.015 -5.364)" gradientUnits="userSpaceOnUse"/><radialGradient xlink:href="#U" id="ag" cx="366.91" cy="110.349" r="155.408" fx="366.91" fy="110.349" gradientTransform="translate(-197.42 -54.556)scale(1.195)" gradientUnits="userSpaceOnUse"/><radialGradient xlink:href="#V" id="an" cx="442.162" cy="102.58" r="200.742" fx="442.162" fy="102.58" gradientTransform="translate(-341.911 -171.521)scale(1.58346)" gradientUnits="userSpaceOnUse"/><radialGradient xlink:href="#W" id="aU" cx="658.513" cy="676.427" r="257.464" fx="658.513" fy="676.427" gradientTransform="translate(-160.989 -517.463)" gradientUnits="userSpaceOnUse"/><radialGradient xlink:href="#X" id="aX" cx="585.749" cy="278.102" r="115.733" fx="585.749" fy="278.102" gradientTransform="translate(-36.778 6.818)" gradientUnits="userSpaceOnUse"/><radialGradient xlink:href="#Y" id="aZ" cx="590.47" cy="132.803" r="218.896" fx="590.47" fy="132.803" gradientTransform="translate(-52.32 68.393)" gradientUnits="userSpaceOnUse"/><radialGradient xlink:href="#Q" id="aJ" cx="370.113" cy="304.649" r="131.23" fx="370.113" fy="304.649" gradientTransform="translate(-54.62 -26.66)" gradientUnits="userSpaceOnUse"/></defs><path fill="#186438" d="M1864.916 1278.253c-12.825 145.257 74.39 226.758 157.45 330.58-149.15 44.103-364.785 22.742-340.52-258.896 3.298-42.511 1.398-77.614 25.83-111.052 24.425-33.443 75.181-65.222 104.824-70.675 29.65-5.46 38.185 15.413 43.639 36.05s7.83 41.026 8.777 73.993"/><path fill="url(#Z)" d="M525.838 244.918a8 8 0 0 0-1.643.14c-4.79.882-12.989 6.016-16.935 11.419-3.947 5.402-3.64 11.071-4.172 17.939-1.133 13.152.971 22.792 5.119 29.678a49.74 49.74 0 0 0 21.516 4.892 49.7 49.7 0 0 0 19.248-3.875c-9.9-12.217-17.904-24.186-16.307-42.275-.153-5.326-.537-8.622-1.418-11.955-.771-2.917-1.923-5.862-5.408-5.963" transform="translate(-1432.189 -348.66)scale(6.18984)"/><path fill="url(#aa)" d="M458.945 1273.42c2.758 1.111 5.134 3.18 7.165 5.709s3.716 5.517 4.33 9.54c.612 4.024.153 9.081-3.45 15.327-3.6 6.245-10.344 13.679-12.298 18.391-1.954 4.713.88 6.706 6.858 5.71s15.096-4.982 22.721-10.078 13.756-11.303 17.549-17.855 5.249-13.448 3.027-20.958c-2.223-7.51-8.123-15.633-16.744-19.12s-19.963-2.337-27.97.69c-8.009 3.027-12.683 7.931-13.833 10.115-1.149 2.184 1.227 1.648 3.985 1.456 2.76-.191 5.9-.038 8.66 1.073" transform="translate(-1432.189 -6595.256)scale(6.18984)"/><path fill="url(#ab)" d="M466.99 250.305a45 45 0 0 0-3.187.113c-1.281.351-2.51.751-3.67 1.19-8.008 3.026-12.683 7.93-13.832 10.115-1.15 2.184 1.225 1.646 3.984 1.455 2.759-.192 5.902-.039 8.66 1.072s5.134 3.18 7.164 5.709c2.031 2.529 3.717 5.518 4.33 9.541s.153 9.08-3.449 15.326-10.345 13.68-12.299 18.393.882 6.705 6.86 5.709c5.977-.996 15.096-4.982 22.72-10.078 7.625-5.096 13.756-11.304 17.55-17.856 3.401-5.876 4.922-12.028 3.597-18.652a44.52 44.52 0 0 0-38.428-22.037" transform="translate(-1432.189 -348.66)scale(6.18984)"/><path fill="url(#ac)" d="M477.576 248.805c-6.131-.249-12.438.91-17.443 2.802-8.008 3.027-12.683 7.932-13.832 10.116s1.225 1.646 3.984 1.455c2.759-.192 5.902-.039 8.66 1.072s5.134 3.18 7.164 5.709c2.031 2.529 3.717 5.518 4.33 9.541.611 4.008.157 9.044-3.408 15.258a46 46 0 0 0 3.385.125 45.77 45.77 0 0 0 35.459-16.83c.107-2.599-.214-5.266-1.027-8.016-2.223-7.51-8.123-15.632-16.744-19.119-3.233-1.308-6.85-1.964-10.528-2.113" transform="translate(-1432.189 -348.66)scale(6.18984)"/><path fill="#186438" d="M304.544 1444.74c-35.555 28.177-62.053 48.634-68.763-2.388C124.711 969.12 524.908 646.84 594.334 595.495c400.996-298.548 925.579-58.97 1111.868 322.664 16.434 34.211 19.79 44.27 26.493 42.592 25.83-6.456 207.316-207.007 447.259-212.002 116.258-2.42 217.393 41.466 300.504 107.431 166.216 131.93 260.333 352.183 259.126 466.937-.335 31.908-9.718 34.589-47.29 19.498s-120.412-51.487-212.312-71.945c-214.955-47.86-440.259-10.646-642.171 103.197-86.064 48.529-144.162 99.966-202.588 143.53-58.426 43.558-117.173 79.236-175.927 114.915 65.154-59.033 143.295-113.937 179.586-160.447s37.25-82.56 31.079-112.445-19.443-53.604-42.45-72.1-55.734-31.778-88.7-31.301-66.17 14.7-101.266 36.05c-223.206 158.156-475.38 110.265-674.489 4.444-116.864-50.293-183.473-69.729-458.512 148.228"/><path fill="url(#ad)" d="M397.66 130.98c-23.771-1.23-48.179 5.11-70.265 21.553-11.216 8.295-75.87 60.362-57.926 136.815 1.084 8.243 5.365 4.936 11.11.384 44.433-35.212 55.193-32.07 74.073-23.945 24.421 12.978 53.783 20.562 82.286 12.283a321.2 321.2 0 0 0 60.585-89.595c-22.393-32.365-60.244-55.443-99.863-57.495" transform="translate(-1432.189 -348.66)scale(6.18984)"/><path fill="url(#ae)" d="M482.742 170.668a151.28 151.28 0 0 0 30.375 117.396c4.505-3.259 9.455-6.56 15.168-9.78 32.62-18.393 69.02-24.404 103.746-16.673 14.848 3.306 28.232 9.185 34.301 11.623 6.069 2.439 7.585 2.005 7.639-3.15.195-18.538-15.01-54.121-41.864-75.436-13.426-10.657-29.765-17.747-48.547-17.356-38.764.806-68.087 33.208-72.257 34.251-1.084.27-1.624-1.356-4.28-6.883-6.072-12.44-14.37-23.946-24.28-33.992" transform="translate(-1432.189 -348.66)scale(6.18984)"/><path fill="url(#af)" d="M501.002 1405.777c8.46 16.822 15.71 35.632 16.828 50.926 5.267-12.183 2.863-25.278.008-37.975-3.349 2.728-5.589 4.577-6.535 4.815-1.084.27-1.624-1.356-4.28-6.883a123 123 0 0 0-6.02-10.883z" transform="translate(-1432.189 -7850.747)scale(6.18984)"/><path fill="url(#ag)" d="M388.723 130.879c-20.899.614-42.003 7.266-61.328 21.654-9.784 7.236-60.228 47.777-61.043 108.756A185.71 185.71 0 0 0 417.93 133.857a116.3 116.3 0 0 0-20.27-2.877q-4.458-.231-8.937-.101" style="mix-blend-mode:overlay" transform="translate(-1432.189 -348.66)scale(6.18984)"/><path fill="url(#ah)" d="M397.66 130.98c-23.771-1.23-48.179 5.11-70.265 21.553-11.216 8.295-75.87 60.362-57.926 136.815 1.084 8.243 5.365 4.936 11.11.384 44.433-35.212 55.193-32.07 74.073-23.945 24.421 12.978 53.783 20.562 82.286 12.283a321.2 321.2 0 0 0 60.585-89.595c-22.393-32.365-60.244-55.443-99.863-57.495" transform="translate(-1432.189 -348.66)scale(6.18984)"/><path fill="url(#ai)" d="M482.742 170.668a151.28 151.28 0 0 0 30.375 117.396c4.505-3.259 9.455-6.56 15.168-9.78 32.62-18.393 69.02-24.404 103.746-16.673 14.848 3.306 28.232 9.185 34.301 11.623 6.069 2.439 7.585 2.005 7.639-3.15.195-18.538-15.01-54.121-41.864-75.436-13.426-10.657-29.765-17.747-48.547-17.356-38.764.806-68.087 33.208-72.257 34.251-1.084.27-1.624-1.356-4.28-6.883-6.072-12.44-14.37-23.946-24.28-33.992" transform="translate(-1432.189 -348.66)scale(6.18984)"/><path fill="url(#aj)" d="M388.723 130.879c-20.899.614-42.003 7.266-61.328 21.654-9.717 7.187-59.542 47.224-61.02 107.51a172.23 172.23 0 0 0 145.936-127.348c-4.84-.88-9.731-1.46-14.65-1.715q-4.46-.231-8.938-.101" transform="translate(-1432.189 -348.66)scale(6.18984)"/><path fill="url(#ak)" d="M482.742 170.668a151.28 151.28 0 0 0 30.375 117.396c4.505-3.259 9.455-6.56 15.168-9.78 32.62-18.393 69.02-24.404 103.746-16.673 14.848 3.306 28.232 9.185 34.301 11.623 6.069 2.439 7.585 2.005 7.639-3.15.195-18.538-15.01-54.121-41.864-75.436-13.426-10.657-29.765-17.747-48.547-17.356-38.764.806-68.087 33.208-72.257 34.251-1.084.27-1.624-1.356-4.28-6.883-6.072-12.44-14.37-23.946-24.28-33.992" transform="translate(-1432.189 -348.66)scale(6.18984)"/><path fill="url(#al)" d="M583.56 177.291c-7.046.147-13.78 1.339-20.109 3.195a105.34 105.34 0 0 0 34.424 77.893c11.437-.34 22.885.723 34.156 3.232 14.848 3.306 28.232 9.185 34.301 11.623 6.069 2.439 7.585 2.005 7.639-3.15.195-18.538-15.01-54.121-41.864-75.436-13.426-10.657-29.765-17.748-48.546-17.357" transform="translate(-1432.189 -348.66)scale(6.18984)"/><path fill="url(#am)" d="M534.94 282.232a49.25 49.25 0 0 0-21.231 28.518c11.492 10.238 29.889 9.782 44.393 5.494-9.228-11.535-18.774-21.365-23.163-34.012" transform="translate(-1432.189 -348.66)scale(6.18984)"/><path fill="url(#an)" d="M388.723 130.879c-1.04.03-2.08.16-3.12.22-1.153.068-2.303.142-3.457.247-.796.072-1.592.08-2.388.17-1.79.203-3.576.547-5.363.843-.572.095-1.143.128-1.713.233-.37.067-.738.14-1.108.21-3.47.673-6.93 1.525-10.373 2.565-.771.233-1.533.54-2.303.791l-.134.047h-.004q-1.25.412-2.494.858a106 106 0 0 0-5.415 2.087c-1.11.467-2.21.972-3.314 1.48-1.541.71-3.08 1.422-4.607 2.216-.66.342-1.307.738-1.963 1.095l-.002.002c-.22.12-.437.246-.657.368-1.022.566-2.049 1.101-3.064 1.707-3.323 1.982-6.617 4.108-9.85 6.515-2.429 1.797-7.365 5.648-13.425 11.354-1.503 1.414-3.22 3.28-4.84 4.92-1.647 1.667-3.198 3.111-4.922 5.006v.002a174 174 0 0 0-10.412 12.56v.002a156 156 0 0 0-10.026 15.05v.003c-9.486 16.247-16.84 36.007-17.394 58.613-.228 9.302.695 19.085 3.094 29.305q.101.771.24 1.412t.312 1.156c1.16 3.45 3.484 2.889 6.55.836 1.225-.821 2.571-1.881 4.007-3.02 33.326-26.408 47.71-31.244 60.783-28.583h.002c2.179.443 4.32 1.096 6.508 1.89h.002c2.187.795 4.42 1.733 6.78 2.748 5.384 2.862 11.074 5.316 16.876 7.541 2.01.771 3.997 1.543 6.047 2.22 1.27.418 2.532.834 3.817 1.214 3.275.97 6.588 1.788 9.939 2.476.77.159 1.522.376 2.295.518a106 106 0 0 0 12.383 1.514c1.083.069 2.17.035 3.256.068a94 94 0 0 0 9.437-.174c2.087-.146 4.17-.298 6.258-.593.608-.087 1.214-.145 1.822-.245a86 86 0 0 0 9.356-2.078c.265-.074.533-.1.798-.177l.086-.096c8.508-2.481 16.942-6.308 25.141-11.897.72.534 1.407 1.134 2.064 1.786.657.65 1.285 1.353 1.881 2.095 2.031 2.53 3.717 5.518 4.33 9.541q.117.751.176 1.551v.008q.06.797.05 1.643v.013c0 .105-.014.217-.017.323a20.4 20.4 0 0 1-.353 3.293c-.022.111-.059.23-.082.343-.11.53-.228 1.065-.387 1.62-.025.086-.064.18-.09.267l-.006.022a317.87 317.87 0 0 0 142.036-105.94 27 27 0 0 0-.971-.41c-1.206-.475-2.442-.884-3.678-1.295h-.002v-.002h-.002l-.01-.004c-.902-.3-1.794-.62-2.713-.885h-.002c-1.33-.384-2.692-.687-4.054-.994-.878-.198-1.74-.431-2.631-.596-1.504-.279-3.047-.455-4.588-.635h-.006l-.006-.002h-.002l-.014-.002c-.782-.091-1.546-.232-2.338-.297h-.004a70 70 0 0 0-7.185-.23c-3.643.076-7.192.451-10.655 1.033h-.002c-1.241.209-2.408.564-3.625.828-1.954.425-3.943.781-5.828 1.334l.004.07c-2.844.836-5.566 1.833-8.238 2.903a102 102 0 0 0-5.521 2.388c-14.027 6.601-25.188 15.45-31.858 20.881-1.675 1.364-3.071 2.51-4.168 3.342h-.002c-.548.417-1.02.755-1.416 1.004a6 6 0 0 1-.533.305l-.002.002a2 2 0 0 1-.414.162 1 1 0 0 1-.197.027.7.7 0 0 1-.28-.047h-.002a1 1 0 0 1-.181-.095 1.5 1.5 0 0 1-.278-.248c-.188-.209-.387-.506-.613-.905-.602-1.063-1.401-2.851-2.729-5.615q-.748-1.534-1.543-3.049a124 124 0 0 0-4.478-7.834c.14.28.23.586.371.867-1.246-2.041-2.571-4.024-3.935-6l.085-.17c-.481-.696-1.045-1.341-1.54-2.029-.632-.876-1.301-1.713-1.956-2.574-.446-.588-.881-1.181-1.338-1.762-.588-.748-1.116-1.531-1.72-2.267a136 136 0 0 0-8.81-9.69 139 139 0 0 0-12.811-11.328c-1.117-.873-2.31-1.626-3.453-2.465-3.512-2.575-7.11-5-10.848-7.232-1.64-.98-3.298-1.89-4.977-2.799a133 133 0 0 0-10.965-5.287c-1.623-.697-3.21-1.44-4.859-2.068-5.34-2.04-10.765-3.828-16.316-5.116-1.87-.433-3.768-.715-5.655-1.058l.036-.104c-.517-.094-1.047-.096-1.565-.183h-.008c-1.178-.199-2.346-.44-3.53-.602-1.155-.158-2.32-.217-3.48-.34-2.02-.214-4.036-.484-6.068-.59-.474-.024-.951.003-1.426-.015-1.04-.04-2.082-.024-3.125-.035-1.462-.016-2.921-.094-4.387-.051z" style="mix-blend-mode:overlay" transform="translate(-1432.189 -348.66)scale(6.18984)"/><g transform="translate(-1432.189 -348.66)scale(6.18984)"><path fill="url(#ao)" d="M409.316 299.191c-85.672 0-136.086 71.565-128.656 142.99 1.7 16.333 7.687 33.408 17.791 49.663 10.105 16.255 24.324 31.688 38.947 43.64s29.647 20.424 37.463 24.612 8.424 4.092 10.614 1.535c2.19-2.558 5.962-7.576 8.87-11.844a109 109 0 0 0 4.026-6.324c3.64.295 7.292.443 10.945.443 71.16 0 128.845-54.781 128.844-122.357 0-67.576-57.685-122.358-128.844-122.358"/><path fill="#a33d56" d="M374.621 538.545s12.896 5.607 22.13 7.578a95 95 0 0 0 1.62-2.66c.142.011.284.007.426.017-12.522-1.038-24.176-4.935-24.176-4.935" opacity=".3"/><path fill="url(#ap)" d="M409.316 299.191c-85.672 0-136.086 71.565-128.656 142.99 1.7 16.333 7.687 33.408 17.791 49.663 7.13 11.47 16.309 22.53 26.233 32.248a240 240 0 0 0 15.386.494 239.99 239.99 0 0 0 198.08-104.494c-.821-66.905-58.187-120.9-128.834-120.9"/><path fill="#d0606e" fill-opacity=".615" d="M420.162 476.977c-3.199.126-5.652.955-7.54 2.379-5.038 3.797-6.06 11.817-6.499 21.973-.288 6.649.607 11.7 1.31 15.792.69 4.006 2.54 6.7 5.172 8.329-1.94-1.658-3.304-4.072-3.873-7.381-.703-4.092-1.598-9.142-1.31-15.791.44-10.155 1.461-18.176 6.498-21.973 1.889-1.424 4.342-2.255 7.54-2.38 5.332-.21 12.732 1.536 23.042 5.747 5.454 2.228 10.253 4.929 13.672 7.33-3.442-2.616-8.784-5.75-14.97-8.277-10.31-4.212-17.71-5.958-23.042-5.748"/><path fill="url(#aq)" d="M421.462 476.194c-3.199.126-5.652.957-7.541 2.38-5.037 3.798-6.059 11.818-6.498 21.973-.288 6.65.607 11.7 1.31 15.791 4.912 28.574 69.074-9.63 52.682-24.517-3.133-2.846-9.4-6.81-16.912-9.88-10.31-4.21-17.71-5.957-23.041-5.747"/><path fill="url(#ar)" d="M421.46 476.193c-3.198.126-5.651.957-7.54 2.381-5.037 3.797-6.059 11.818-6.498 21.973a59 59 0 0 0 .103 6.83 34.6 34.6 0 0 0 9.092 1.215 34.625 34.625 0 0 0 33.055-24.313 78 78 0 0 0-5.17-2.338c-10.31-4.211-17.71-5.957-23.041-5.748" style="mix-blend-mode:overlay"/><path fill="url(#as)" d="M421.46 476.193c-3.198.126-5.651.957-7.54 2.381-5.037 3.797-6.059 11.818-6.498 21.973-.248 5.724.381 10.263 1.01 14.025a36 36 0 0 0 11.218 1.793 35.994 35.994 0 0 0 35.342-29.166 76 76 0 0 0-10.49-5.258c-10.31-4.211-17.71-5.957-23.041-5.748" style="mix-blend-mode:overlay"/><path fill="url(#at)" d="M409.316 299.191c-85.672 0-136.086 71.565-128.656 142.99 1.497 14.393 6.325 29.364 14.365 43.84a279.6 279.6 0 0 0 56.762 5.823 279.55 279.55 0 0 0 186.37-71.19c-.506-67.164-57.996-121.463-128.84-121.463"/><ellipse cx="460.013" cy="106.161" fill="#fce4df" rx="2.713" ry="3.907" transform="rotate(34.8)"/><path fill="url(#au)" d="M418.372 407.4c1.671.251 1.727 1.76 1.671 7.042-.055 5.28-.222 14.334-2.367 21.85-6.254 21.916-31.027 31.476-46.158 17.465-8.08-7.481-11.665-19.618-14.077-29.214-.369-1.467-.68-3.752.647-4.056 17.257-3.952 46.119-11.937 60.284-13.087"/><path fill="url(#av)" d="M418.373 407.4c-10.638.865-29.565 5.583-45.64 9.553-5.914 5.237-9.998 11.994-10.745 21.147q-.051.385-.09.75c2.259 5.567 5.296 10.903 9.62 14.906 15.13 14.01 39.904 4.453 46.158-17.463 2.145-7.516 2.311-16.57 2.367-21.851.056-5.282.001-6.79-1.67-7.041"/><path fill="url(#aw)" d="M408.06 408.871c-10.424 1.908-23.63 5.194-35.328 8.082-5.913 5.237-9.997 11.994-10.744 21.147q-.051.386-.09.75c1.934 4.766 4.437 9.361 7.83 13.098a42.99 42.99 0 0 0 38.333-42.737z"/><path fill="url(#ax)" d="M405.533 410.59a36.093 36.093 0 0 0-36.094 36.094 36 36 0 0 0 .405 5.39 29 29 0 0 0 1.674 1.682c15.13 14.01 39.904 4.453 46.158-17.463 2.145-7.516 2.311-16.57 2.367-21.851l.008-.803a36.1 36.1 0 0 0-14.518-3.049"/><path fill="url(#ay)" d="M418.373 407.4c-10.638.865-29.565 5.583-45.64 9.553-5.914 5.237-9.998 11.994-10.745 21.147q-.051.385-.09.75c2.259 5.567 5.296 10.902 9.62 14.906q.8.741 1.634 1.394a65.75 65.75 0 0 0 46.797-36.046c.06-1.74.08-3.323.094-4.663.056-5.281.001-6.79-1.67-7.04"/><path fill="url(#az)" d="M409.316 299.191c-85.672 0-136.086 71.565-128.656 142.99.685 6.587 2.068 13.294 4.137 20.02a212 212 0 0 0 103.89 27.197 212.03 212.03 0 0 0 149.301-61.48q.172-3.165.172-6.37c0-67.575-57.685-122.357-128.844-122.357" style="mix-blend-mode:overlay"/><path fill="url(#aA)" fill-opacity=".697" d="M409.316 299.191q-1.241 0-2.474.02c-18.238 7.689-29.295 24.486-34.824 41.068-3.75 11.247-4.085 22.722-3.247 30.86 1.577 15.301 10.572 15.944 9.842 3.539-2.54-43.207 18.226-73.394 63.55-71.356l.603.033c-10.667-2.715-21.88-4.164-33.45-4.164" style="mix-blend-mode:normal"/><path fill="url(#aB)" d="M409.316 299.191c-85.672 0-136.086 71.565-128.656 142.99.93 8.94 3.145 18.104 6.617 27.233a164.5 164.5 0 0 0 81.98 21.883 164.495 164.495 0 0 0 158.063-118.95c-19.943-43.076-65.274-73.156-118.004-73.156"/><g transform="translate(-65.813 -843.47)scale(.89056)"><ellipse cx="448.523" cy="1379.108" fill="#561c26" rx="14.598" ry="19.211"/><path fill="url(#aC)" d="M448.523 1359.898a14.598 19.21 0 0 0-14.582 18.842 14.598 19.21 0 0 0 .024.451 14.598 19.21 0 0 1 14.558-18.394 14.598 19.21 0 0 1 14.557 18.394 14.598 19.21 0 0 0 .023-.45 14.598 19.21 0 0 0-14.58-18.843"/><path fill="url(#aD)" d="M433.94 1378.793a14.598 19.21 0 0 0-.016.314 14.598 19.21 0 0 0 14.6 19.211 14.598 19.21 0 0 0 14.597-19.21 14.598 19.21 0 0 0-.015-.315 14.598 19.21 0 0 1-14.583 18.895 14.598 19.21 0 0 1-14.584-18.895"/><path fill="url(#aE)" d="M448.523 1359.898a14.598 19.21 0 0 0-14.6 19.21 14.598 19.21 0 0 0 3.26 12.101 30 30 0 0 0 2.866.137 29.91 29.91 0 0 0 23.033-10.828 14.598 19.21 0 0 0 .04-1.41 14.598 19.21 0 0 0-14.599-19.21"/><path fill="url(#aF)" d="M448.523 1359.898a14.598 19.21 0 0 0-14.6 19.21 14.598 19.21 0 0 0 2.911 11.51 21.5 21.5 0 0 0 3.45.277 21.495 21.495 0 0 0 21.443-19.98 14.598 19.21 0 0 0-13.204-11.017" style="mix-blend-mode:overlay"/><path fill="url(#aG)" d="M448.523 1359.898a14.598 19.21 0 0 0-14.6 19.21 14.598 19.21 0 0 0 14.6 19.21 14.598 19.21 0 0 0 14.598-19.21 14.598 19.21 0 0 0-14.598-19.21"/><path fill="url(#aH)" d="M450.17 1376.327c-1.691 1.101-3.821 1.406-5.875.698-5.391-1.857-5.888-6.305-4.099-9.749 1.79-3.444 5.867-5.884 9.623-3.729 5 2.868 5.218 9.61.35 12.78z"/></g><path fill="url(#aI)" d="M409.316 299.191c-85.672 0-136.086 71.565-128.656 142.99.93 8.94 3.145 18.104 6.617 27.233a164.5 164.5 0 0 0 81.98 21.883 164.495 164.495 0 0 0 158.063-118.95c-19.943-43.076-65.274-73.156-118.004-73.156"/><path fill="url(#aJ)" d="M358.234 308.777c-12.951 5.241-24.49 12.443-34.468 21.133 1.63 1.317 3.286 2.424 4.988 3.072 11.83 3.905 22.778-7 26.285-17.265 1.232-3.228 1.697-5.323 3.195-6.94" style="mix-blend-mode:overlay"/><path fill="url(#aK)" d="M409.316 299.191c-70.603 0-117.261 48.604-127.332 105.678a131.2 131.2 0 0 0 33.508 4.35 131.23 131.23 0 0 0 128.684-105.496c-11.087-2.952-22.78-4.532-34.86-4.532" style="mix-blend-mode:overlay"/><path fill="url(#aL)" d="M358.234 308.777c-12.951 5.241-24.49 12.443-34.468 21.133 1.63 1.317 3.286 2.424 4.988 3.072 11.83 3.905 22.778-7 26.285-17.265 1.232-3.228 1.697-5.323 3.195-6.94"/><path fill="url(#aM)" d="M421.46 476.193c-3.198.126-5.651.957-7.54 2.381-5.037 3.797-6.059 11.818-6.498 21.973-.248 5.724.381 10.263 1.01 14.025a36 36 0 0 0 11.218 1.793 35.994 35.994 0 0 0 35.342-29.166 76 76 0 0 0-10.49-5.258c-10.31-4.211-17.71-5.957-23.041-5.748" style="mix-blend-mode:color-dodge"/><path fill="url(#aN)" d="M347.074 528.682a42 42 0 0 0-7.418 8.619c13.891 10.996 27.791 18.822 35.205 22.795 7.816 4.187 8.424 4.092 10.614 1.535 2.19-2.558 5.962-7.576 8.87-11.844a110 110 0 0 0 4.026-6.324 128.844 122.357 0 0 1-51.297-14.781m66.451 15.158a128.844 122.357 0 0 1-4.209.066q2.113 0 4.21-.064z"/><g transform="translate(34.96 -897.599)scale(.92205)"><ellipse cx="448.523" cy="1379.108" fill="#561c26" rx="14.598" ry="19.211"/><path fill="url(#aO)" d="M448.523 1359.898a14.598 19.21 0 0 0-14.582 18.842 14.598 19.21 0 0 0 .024.451 14.598 19.21 0 0 1 14.558-18.394 14.598 19.21 0 0 1 14.557 18.394 14.598 19.21 0 0 0 .023-.45 14.598 19.21 0 0 0-14.58-18.843"/><path fill="url(#aP)" d="M433.94 1378.793a14.598 19.21 0 0 0-.016.314 14.598 19.21 0 0 0 14.6 19.211 14.598 19.21 0 0 0 14.597-19.21 14.598 19.21 0 0 0-.015-.315 14.598 19.21 0 0 1-14.583 18.895 14.598 19.21 0 0 1-14.584-18.895"/><path fill="url(#aQ)" d="M448.523 1359.898a14.598 19.21 0 0 0-14.6 19.21 14.598 19.21 0 0 0 3.26 12.101 30 30 0 0 0 2.866.137 29.91 29.91 0 0 0 23.033-10.828 14.598 19.21 0 0 0 .04-1.41 14.598 19.21 0 0 0-14.599-19.21"/><path fill="url(#aR)" d="M448.523 1359.898a14.598 19.21 0 0 0-14.6 19.21 14.598 19.21 0 0 0 2.911 11.51 21.5 21.5 0 0 0 3.45.277 21.495 21.495 0 0 0 21.443-19.98 14.598 19.21 0 0 0-13.204-11.017" style="mix-blend-mode:overlay"/><path fill="url(#aS)" d="M448.523 1359.898a14.598 19.21 0 0 0-14.6 19.21 14.598 19.21 0 0 0 14.6 19.21 14.598 19.21 0 0 0 14.598-19.21 14.598 19.21 0 0 0-14.598-19.21"/><path fill="url(#aT)" d="M450.17 1376.327c-1.691 1.101-3.821 1.406-5.875.698-5.391-1.857-5.888-6.305-4.099-9.749 1.79-3.444 5.867-5.884 9.623-3.729 5 2.868 5.218 9.61.35 12.78z"/></g></g><path fill="#e36f78" d="M2359.787 1311.932A423.787 421.268 0 0 0 1936 1733.2a423.787 421.268 0 0 0 423.787 421.262 423.787 421.268 0 0 0 423.788-421.262 423.787 421.268 0 0 0-423.788-421.268"/><path fill="#3b0815" d="M2129.878 1987.38a4.33 4.33 0 0 1-.365-2.223c.124-1.176.607-2.364 1.343-3.64 2.947-5.106 9.997-11.593 19.944-24.158 31.927-41.051 60.332-85.5 71.858-136.61h-.013c3.547-14.726 4.414-25.378 6.209-32.255 1.046-4.011 2.909-6.81 5.373-8.196s5.447-1.114 7.898.551c4.89 3.337 8.276 11.581 7.459 24.06-1.276 19.647-10.604 46.913-23.98 74.619-13.37 27.712-30.807 55.813-48.466 76.859-16.397 19.547-29.81 28.35-37.709 31.53a18.6 18.6 0 0 1-5.032 1.387c-1.411.13-2.68-.018-3.67-.81a3.1 3.1 0 0 1-.861-1.09z" overflow="visible"/><path fill="url(#aU)" d="M612.613 268.277a68.465 68.058 0 0 0-68.464 68.058 68.465 68.058 0 0 0 68.464 68.057 68.465 68.058 0 0 0 68.465-68.057 68.465 68.058 0 0 0-68.465-68.058" transform="translate(-1432.189 -348.66)scale(6.18984)"/><path fill="url(#aV)" d="M622.928 288.064a81.19 81.19 0 0 0-77.987 58.6 68.465 68.058 0 0 0 67.672 57.729 68.465 68.058 0 0 0 68.465-68.057 68.465 68.058 0 0 0-7.127-30.236 81.2 81.2 0 0 0-51.023-18.036" transform="translate(-1432.189 -348.66)scale(6.18984)"/><path fill="#3b0815" d="M2477.252 1423.367a4.15 4.15 0 0 0-2.179.564c-1.027.594-1.912 1.516-2.779 2.71-3.466 4.767-6.512 13.854-13.94 28.06-24.48 45.878-53.505 89.925-95.484 121.27l-.025.013c-12.008 9.242-21.38 14.36-26.932 18.811-3.237 2.587-5.032 5.429-5.298 8.245-.26 2.816 1.207 5.435 3.726 6.988 5.039 3.101 13.952 2.835 25.007-2.99 17.424-9.173 38.526-28.795 58.389-52.297s38.42-50.869 50.447-75.572c11.173-22.94 13.741-38.773 13.432-47.284a18.6 18.6 0 0 0-.786-5.163c-.452-1.343-1.114-2.439-2.235-3.02a3.1 3.1 0 0 0-1.343-.34" overflow="visible"/><path fill="url(#aW)" d="M612.613 268.277a68.465 68.058 0 0 0-68.465 68.059 68.465 68.058 0 0 0 14.665 42.09 164.648 162.4 0 0 0 121.425-52.723 68.465 68.058 0 0 0-67.625-57.426" transform="translate(-1432.189 -348.66)scale(6.18984)"/><g fill="#f6cacb" transform="translate(-1432.189 -6450.509)scale(6.18984)"><path d="M580.12 1275.997c2.764-1.748 6.205-2.046 8.467-1.22 2.262.827 3.346 2.778 3.387 5.541s-.962 6.34-3.238 8.887-5.825 4.064-8.63 3.793c-8.629-.834-8.086-11.879.015-17.001"/><ellipse cx="576.667" cy="1302.226" rx="3.135" ry="2.992"/></g><path fill="url(#aX)" d="M612.613 268.277a68.465 68.058 0 0 0-68.465 68.059 68.465 68.058 0 0 0 68.465 68.057 68.465 68.058 0 0 0 16.237-1.942 115.7 115.7 0 0 0 38.097-24.707 68.465 68.058 0 0 0 14.131-41.408 68.465 68.058 0 0 0-68.465-68.059" style="mix-blend-mode:overlay" transform="translate(-1432.189 -348.66)scale(6.18984)"/><path fill="#992742" d="M2450.407 1700.578c-16.477 31.218-73.14 156.048-76.997 178.555-1.483 8.68 1.727 9.502 10.508 7.485 103.385-23.799 133.272-161.181 89.343-206.917-4.722-4.916-8.655-6.04-22.855 20.871"/><path fill="url(#aY)" d="M633.986 331.838a23.695 24.374 0 0 0-13.941 22.213 23.695 24.374 0 0 0 .498 4.967c11.122-4.93 15.957-18.879 13.443-27.18" transform="rotate(-4.045 -1789.56 22235.064)scale(6.18984)"/><path fill="url(#aZ)" d="M612.613 268.277a68.465 68.058 0 0 0-68.465 68.059 68.465 68.058 0 0 0 68.465 68.057 68.465 68.058 0 0 0 8.133-.483 219 219 0 0 0 44.295-24.35 116 116 0 0 0 1.906-1.816 68.465 68.058 0 0 0 14.131-41.408 68.465 68.058 0 0 0-68.465-68.059" style="mix-blend-mode:overlay" transform="translate(-1432.189 -348.66)scale(6.18984)"/></svg>