<?xml version="1.0" encoding="UTF-8" standalone="no"?>
<!-- Created with Inkscape (http://www.inkscape.org/) -->

<svg
   version="1.1"
   id="svg1"
   width="1000"
   height="500"
   viewBox="0 0 1000 500"
   xml:space="preserve"
   sodipodi:docname="gamecube-controller.svg"
   inkscape:version="1.4.3 (0d15f75042, 2025-12-25)"
   xmlns:inkscape="http://www.inkscape.org/namespaces/inkscape"
   xmlns:sodipodi="http://sodipodi.sourceforge.net/DTD/sodipodi-0.dtd"
   xmlns="http://www.w3.org/2000/svg"
   xmlns:svg="http://www.w3.org/2000/svg"><sodipodi:namedview
     id="namedview1"
     pagecolor="#ffffff"
     bordercolor="#000000"
     borderopacity="0.25"
     inkscape:showpageshadow="2"
     inkscape:pageopacity="0.0"
     inkscape:pagecheckerboard="0"
     inkscape:deskcolor="#d1d1d1"
     inkscape:zoom="0.46598337"
     inkscape:cx="527.91584"
     inkscape:cy="335.8489"
     inkscape:window-width="1536"
     inkscape:window-height="888"
     inkscape:window-x="0"
     inkscape:window-y="0"
     inkscape:window-maximized="1"
     inkscape:current-layer="svg1" /><defs
     id="defs1" /><g
     id="g1"><g
       id="g19"
       transform="matrix(0.40336999,0,0,0.40336999,165.04849,9.152288)"><path
         id="path1"
         style="fill:#000000"
         d="M 830.38281,56.820312 C 581.34296,56.548794 488.41927,112.20997 448.91016,117.68164 c -2.71322,0.37576 -5.39831,-0.34787 -11,-2.96875 -51.53393,-24.111336 -122.36095,-9.68633 -157.23047,47.5 -5.93452,7.45707 -19.28484,29.66956 -21.74805,36.18555 -1.71536,4.53766 -2.7791,5.65417 -9.62695,10.10156 -17.16748,11.14956 -65.41664,46.93076 -93.60938,112.5 -13.8155,32.13132 -19.70915,60.01054 -21.66797,102.5 -2.78323,60.37201 -0.64624,-13.66387 -13.92968,190 -17.00231,261.32967 -10.48664,385.29387 23.01367,453.8125 55.94575,112.0352 131.02738,66.6535 157.39258,21.6816 52.35356,-89.30086 50.53565,-254.90133 76.29297,-329.9941 3.86561,-11.26979 9.84477,-23 11.72265,-23 1.97724,0 9.64734,12.05088 15.59375,24.5 2.62711,5.5 7.28362,17.425 10.34766,26.5 22.53716,69.15244 66.13176,115.18104 137.32812,134.08008 C 670.3196,950.47615 780.92182,857.39177 780.40039,739.5 780.0829,667.68272 743.1956,626.5473 714.5,601.14258 698.85517,587.56048 675.63819,560.51709 671,540.65234 c 52.22469,-25.24076 266.54554,-25.23853 318.76562,0 -4.63819,19.86475 -27.85517,46.90814 -43.5,60.49024 C 917.57003,626.5473 880.68272,667.68272 880.36523,739.5 879.8438,857.39177 990.44598,950.47615 1108.9766,921.08008 1180.1729,902.18104 1223.7675,856.15244 1246.3047,787 c 3.064,-9.075 7.7205,-21 10.3476,-26.5 5.9465,-12.44912 13.6166,-24.5 15.5938,-24.5 1.8779,0 7.857,11.73021 11.7227,23 25.7572,75.09277 23.9394,240.69324 76.2929,329.9941 26.3652,44.9719 101.4468,90.3536 157.3926,-21.6816 33.5003,-68.51863 40.016,-192.48283 23.0137,-453.8125 -13.2835,-203.66387 -11.1465,-129.62799 -13.9297,-190 -1.9588,-42.48946 -7.8525,-70.36868 -21.668,-102.5 -24.9702,-58.07449 -65.6733,-92.78102 -86.5801,-107.70312 1.4497,-2.87524 3.0463,-5.77101 3.9477,-8.87062 3.1113,-14.41419 -34.2647,-36.92792 -44.5082,-45.62743 -32.336,-49.40425 -92.3207,-64.944099 -140.8965,-49.60547 -33.6806,-4.20158 -39.4258,-1.11775 -45.3867,3.4707 C 1143.0069,97.612491 1044.2737,56.587116 830.38281,56.820312 Z" /><g
         id="g18"><circle
           cx="830.38281"
           cy="424.55237"
           r="34.651733"
           style="font-variation-settings:normal;vector-effect:none;fill:#dfdfe7;fill-opacity:1;fill-rule:evenodd;stroke-width:69.2795;stroke-linecap:butt;stroke-linejoin:miter;stroke-miterlimit:4;stroke-dasharray:none;stroke-dashoffset:0;stroke-opacity:1;-inkscape-stroke:none;stop-color:#000000"
           id="circle11-2" /><path
           d="m 567.50387,638.88657 a 15.030229,15.030229 0 0 0 -15.06773,15.0716 v 40.4293 a 5.3063308,5.3063308 0 0 1 -5.31195,5.3119 h -40.42936 a 15.030229,15.030229 0 0 0 -15.06961,15.066 v 39.3343 a 15.030229,15.030229 0 0 0 15.06961,15.0658 h 40.42936 a 5.3063308,5.3063308 0 0 1 5.31195,5.3102 v 40.4312 a 15.030229,15.030229 0 0 0 15.06773,15.0696 h 39.3381 a 15.030229,15.030229 0 0 0 15.06399,-15.0696 v -40.4312 a 5.3063308,5.3063308 0 0 1 5.31007,-5.3102 h 40.43687 a 15.030229,15.030229 0 0 0 15.0621,-15.0658 v -39.3343 a 15.030229,15.030229 0 0 0 -15.06397,-15.066 h -40.43688 a 5.3063308,5.3063308 0 0 1 -5.31195,-5.3119 v -40.4313 a 15.030229,15.030229 0 0 0 -15.06023,-15.0676 z"
           style="fill:#dfdfe7;fill-opacity:1;fill-rule:evenodd;stroke:none;stroke-width:6.39003;stroke-miterlimit:7;paint-order:stroke markers fill"
           id="path2-5" /><circle
           cx="417.11511"
           cy="-1263.9554"
           r="88.643387"
           style="font-variation-settings:normal;vector-effect:none;fill:#dfdfe7;fill-opacity:1;fill-rule:evenodd;stroke-width:177.227;stroke-linecap:butt;stroke-linejoin:miter;stroke-miterlimit:4;stroke-dasharray:none;stroke-dashoffset:0;stroke-opacity:1;-inkscape-stroke:none;stop-color:#000000"
           transform="rotate(90)"
           id="circle9-0" /><circle
           cx="1101.875"
           cy="499.10522"
           r="55.728584"
           style="font-variation-settings:normal;vector-effect:none;fill:#dfdfe7;fill-opacity:1;fill-rule:evenodd;stroke-width:111.419;stroke-linecap:butt;stroke-linejoin:miter;stroke-miterlimit:4;stroke-dasharray:none;stroke-dashoffset:0;stroke-opacity:1;-inkscape-stroke:none;stop-color:#000000"
           id="circle7-1" /><circle
           cx="1062.6909"
           cy="734.43152"
           r="114.01749"
           style="font-variation-settings:normal;vector-effect:none;fill:#dfdfe7;fill-opacity:1;fill-rule:evenodd;stroke-width:112.433;stroke-linecap:butt;stroke-linejoin:miter;stroke-miterlimit:4;stroke-dasharray:none;stroke-dashoffset:0;stroke-opacity:1;-inkscape-stroke:none;stop-color:#000000"
           id="circle5-6" /><circle
           cx="389.96875"
           cy="417.11511"
           r="114.01749"
           style="font-variation-settings:normal;vector-effect:none;fill:#dfdfe7;fill-opacity:1;fill-rule:evenodd;stroke-width:112.433;stroke-linecap:butt;stroke-linejoin:miter;stroke-miterlimit:4;stroke-dasharray:none;stroke-dashoffset:0;stroke-opacity:1;-inkscape-stroke:none;stop-color:#000000"
           id="circle15" /><path
           id="path17"
           style="baseline-shift:baseline;clip-rule:evenodd;display:inline;overflow:visible;vector-effect:none;fill:#dfdfe7;fill-opacity:1;fill-rule:evenodd;image-rendering:optimizeQuality;shape-rendering:geometricPrecision;text-rendering:geometricPrecision;enable-background:accumulate;stop-color:#000000"
           d="m 1727.3928,1437.1367 c -24.6943,6.8649 -65.7258,24.9137 -53.2023,65.555 6.9055,22.4094 32.4124,34.7987 54.75,27.6601 21.3749,-6.828 45.4069,-6.7917 66.668,0 22.3376,7.1386 47.8445,-5.2507 54.75,-27.6601 12.5224,-40.6375 -28.4984,-58.6874 -53.1892,-65.5514 -24.6909,-6.8639 -45.0821,-6.8685 -69.7765,0 z"
           transform="matrix(0.22806509,0.8647066,-0.85115053,0.23169744,2283.914,-1485.1875)" /><path
           id="path18"
           style="baseline-shift:baseline;clip-rule:evenodd;display:inline;overflow:visible;vector-effect:none;fill:#dfdfe7;fill-opacity:1;fill-rule:evenodd;stroke-width:0.888165;image-rendering:optimizeQuality;shape-rendering:geometricPrecision;text-rendering:geometricPrecision;enable-background:accumulate;stop-color:#000000"
           d="m 1148.7986,301.0231 c 11.5038,17.277 36.5181,21.5162 53.9575,10.0021 16.6886,-11.0152 37.367,-16.8712 57.3396,-16.3303 20.9846,0.571 39.8461,-16.1638 40.2209,-36.8238 0.6793,-37.465 -39.0839,-42.6953 -62.0232,-42.45815 -22.9393,0.23715 -40.4786,5.22815 -60.0139,17.0886 -19.5354,11.86045 -50.344,37.18835 -29.4809,68.52155 z" /></g></g></g></svg>
