<svg xmlns="http://www.w3.org/2000/svg" xml:space="preserve" width="1000" height="500" viewBox="0 0 1000 500"><path d="M129.472 54.674c-24.983.589-48.87 5.507-62.26 30.388-2.346 4.84-3.077 14.708-3.077 14.708s-9.228 6.58-12.497 11.809c-3.171 5.074-3.667 8.145-7.717 47.81-7.093 69.46-9.738 125.493-8.08 171.2.73 20.11 1.342 25.047 4.146 33.392 2.95 8.783 17.326 50.007 19.862 56.956 3.77 10.334 9.805 18.26 16.504 21.679 6.315 3.22 13.508 3.507 38.898 1.544 4.834-.373 15.275-1.186 23.202-1.804s21.69-1.402 30.584-1.741c18.056-.69 637.77-.922 661.926 0 8.894.34 22.657 1.123 30.584 1.74 7.927.62 18.368 1.432 23.202 1.805 25.39 1.963 32.583 1.677 38.898-1.544 6.699-3.418 12.734-11.345 16.504-21.68 2.536-6.948 16.912-48.172 19.862-56.955 2.804-8.345 3.417-13.282 4.146-33.391 1.658-45.708-.987-101.741-8.08-171.202-4.05-39.664-4.546-42.735-7.717-47.81-3.269-5.229-12.497-11.808-12.497-11.808s-.731-9.868-3.077-14.708c-17.852-33.174-54.369-30.861-87.26-30.114-.17.004-.45.007-.601.077a.76.76 0 0 0-.443.67v.469h-26.03c-.612 0-1.214.16-1.745.465l-4.655 2.674c-6.22 3.571-6.725 4.052-6.741 6.4l-.013 1.584H592.818c-.313-.326-1.423-1.391-2.182-2.116-.163-.157-.433-.41-.631-.511a2 2 0 0 0-.482-.172c-.13-.026-.343-.026-.474-.026h-27.317c-.399 0-.79.102-1.143.294l-1.766.964h-11.27l-1.837-.964a2.56 2.56 0 0 0-1.188-.294h-28.41c-.137 0-.36 0-.494.026a2 2 0 0 0-.5.172c-.207.101-.487.354-.657.51-.79.726-1.943 1.791-2.269 2.117H194.7l-.013-1.585c-.016-2.347-.522-2.828-6.74-6.399l-4.656-2.674a3.5 3.5 0 0 0-1.745-.465h-26.03v-.468a.76.76 0 0 0-.443-.67c-.152-.071-.432-.074-.6-.078-8.223-.186-16.673-.47-25-.274" style="display:inline;fill:#000;fill-opacity:1;stroke-width:.703086"/><path d="M106.054 112.22c-16.598 0-30.08 13.482-30.08 30.08s13.483 30.08 30.08 30.08c16.598 0 30.08-13.483 30.08-30.08 0-16.6-13.482-30.08-30.08-30.08" style="baseline-shift:baseline;display:inline;overflow:visible;vector-effect:none;fill:#dfdfe7;stroke-width:.935267;stop-color:#000"/><path d="M163.366 178.019c-21.747 0-39.412 17.664-39.412 39.41s17.666 39.411 39.412 39.411 39.41-17.666 39.41-39.411c0-21.748-17.665-39.41-39.41-39.41" style="baseline-shift:baseline;display:inline;overflow:visible;vector-effect:none;fill:#dfdfe7;stroke-width:1.22538;stop-color:#000"/><path d="M844.035 200.574c-16.599 0-30.081 13.482-30.081 30.08s13.483 30.08 30.08 30.08c16.598 0 30.08-13.483 30.08-30.08 0-16.6-13.482-30.08-30.08-30.08" style="baseline-shift:baseline;display:inline;overflow:visible;vector-effect:none;fill:#dfdfe7;stroke-width:.935267;stop-color:#000"/><path d="M1286.676 511.41c-14.258 0-25.853 11.594-25.853 25.853 0 14.257 11.595 25.849 25.85 25.849 14.26 0 25.85-11.592 25.85-25.849 0-14.26-11.59-25.853-25.85-25.853M1286.55 607.245c-14.257 0-25.852 11.593-25.852 25.853 0 14.257 11.595 25.849 25.85 25.849 14.26 0 25.85-11.592 25.85-25.85s-11.59-25.852-25.85-25.852M1360.379 585.244c0-14.257-11.594-25.853-25.854-25.853-14.257 0-25.849 11.596-25.849 25.85 0 14.26 11.592 25.85 25.85 25.85s25.852-11.59 25.852-25.85M1264.544 585.119c0-14.257-11.594-25.853-25.853-25.853-14.258 0-25.85 11.596-25.85 25.85 0 14.26 11.592 25.85 25.85 25.85 14.26 0 25.853-11.59 25.853-25.85" style="baseline-shift:baseline;display:inline;overflow:visible;opacity:1;vector-effect:none;fill:#dfdfe7;fill-opacity:1;stroke-width:1.10743;stop-color:#000" transform="translate(-16.608 -277.225)scale(.70309)"/><path d="M223.594 73.275c-1.601 0-2.89 1.29-2.89 2.891v354.176a2.883 2.883 0 0 0 2.89 2.89h552.812c1.601 0 2.89-1.289 2.89-2.89V76.166a2.883 2.883 0 0 0-2.89-2.89z" style="display:inline;fill:#dfdfe7;fill-opacity:1;stroke-width:2.98095;stroke-linecap:round"/></svg>