<?xml version="1.0" encoding="UTF-8" standalone="no"?>
<!-- Created with Inkscape (http://www.inkscape.org/) -->

<svg
   version="1.1"
   id="svg1"
   width="3000"
   height="3600"
   viewBox="0 0 3000 3600"
   xml:space="preserve"
   xmlns:xlink="http://www.w3.org/1999/xlink"
   xmlns="http://www.w3.org/2000/svg"
   xmlns:svg="http://www.w3.org/2000/svg"><defs
     id="defs1"><linearGradient
       id="linearGradient140"><stop
         style="stop-color:#f8c9d9;stop-opacity:1;"
         offset="0"
         id="stop140" /><stop
         style="stop-color:#f8c9d9;stop-opacity:0;"
         offset="1"
         id="stop141" /></linearGradient><linearGradient
       id="linearGradient138"><stop
         style="stop-color:#f8c9d9;stop-opacity:1;"
         offset="0"
         id="stop138" /><stop
         style="stop-color:#f8c9d9;stop-opacity:0;"
         offset="1"
         id="stop139" /></linearGradient><linearGradient
       id="linearGradient133"><stop
         style="stop-color:#fccbd1;stop-opacity:0.79684712;"
         offset="0"
         id="stop133" /><stop
         style="stop-color:#fccbd1;stop-opacity:0;"
         offset="1"
         id="stop134" /></linearGradient><linearGradient
       id="linearGradient130"><stop
         style="stop-color:#d16e7c;stop-opacity:1;"
         offset="0"
         id="stop130" /><stop
         style="stop-color:#d16e7c;stop-opacity:0;"
         offset="1"
         id="stop131" /></linearGradient><linearGradient
       id="linearGradient125"><stop
         style="stop-color:#5d353a;stop-opacity:1;"
         offset="0"
         id="stop125" /><stop
         style="stop-color:#5d353a;stop-opacity:0;"
         offset="1"
         id="stop126" /></linearGradient><linearGradient
       id="linearGradient123"><stop
         style="stop-color:#5d353a;stop-opacity:1;"
         offset="0"
         id="stop123" /><stop
         style="stop-color:#5d353a;stop-opacity:0;"
         offset="1"
         id="stop124" /></linearGradient><linearGradient
       id="linearGradient121"><stop
         style="stop-color:#e89c9a;stop-opacity:1;"
         offset="0"
         id="stop121" /><stop
         style="stop-color:#e89c9a;stop-opacity:0;"
         offset="1"
         id="stop122" /></linearGradient><linearGradient
       id="linearGradient119"><stop
         style="stop-color:#6d3e44;stop-opacity:1;"
         offset="0"
         id="stop119" /><stop
         style="stop-color:#9a5761;stop-opacity:1;"
         offset="1"
         id="stop120" /></linearGradient><linearGradient
       id="linearGradient75"><stop
         style="stop-color:#f596ae;stop-opacity:1;"
         offset="0"
         id="stop75" /><stop
         style="stop-color:#f596ae;stop-opacity:0;"
         offset="1"
         id="stop76" /></linearGradient><linearGradient
       id="linearGradient66"><stop
         style="stop-color:#ffffff;stop-opacity:1;"
         offset="0"
         id="stop66" /><stop
         style="stop-color:#ffffff;stop-opacity:0;"
         offset="1"
         id="stop71" /></linearGradient><linearGradient
       id="linearGradient36"><stop
         style="stop-color:#ffffff;stop-opacity:1;"
         offset="0"
         id="stop36" /><stop
         style="stop-color:#ffffff;stop-opacity:0;"
         offset="1"
         id="stop37" /></linearGradient><linearGradient
       id="linearGradient32"><stop
         style="stop-color:#ffffff;stop-opacity:0.67950594;"
         offset="0"
         id="stop32" /><stop
         style="stop-color:#ffffff;stop-opacity:0;"
         offset="1"
         id="stop33" /></linearGradient><linearGradient
       id="linearGradient24"><stop
         style="stop-color:#d0d1e0;stop-opacity:0.70385116;"
         offset="0"
         id="stop24" /><stop
         style="stop-color:#d0d1e0;stop-opacity:0;"
         offset="1"
         id="stop27" /></linearGradient><linearGradient
       id="linearGradient106"><stop
         style="stop-color:#f6a8c7;stop-opacity:0.82480854;"
         offset="0"
         id="stop106" /><stop
         style="stop-color:#f6a8c7;stop-opacity:0;"
         offset="1"
         id="stop107" /></linearGradient><linearGradient
       id="linearGradient103"><stop
         style="stop-color:#fab8c4;stop-opacity:1;"
         offset="0"
         id="stop103" /><stop
         style="stop-color:#fab8c4;stop-opacity:0;"
         offset="1"
         id="stop104" /></linearGradient><linearGradient
       id="linearGradient101"><stop
         style="stop-color:#fab8c4;stop-opacity:1;"
         offset="0"
         id="stop101" /><stop
         style="stop-color:#fab8c4;stop-opacity:0;"
         offset="1"
         id="stop102" /></linearGradient><linearGradient
       id="linearGradient99"><stop
         style="stop-color:#f45e78;stop-opacity:0.59438574;"
         offset="0"
         id="stop99" /><stop
         style="stop-color:#f45e78;stop-opacity:0;"
         offset="1"
         id="stop100" /></linearGradient><linearGradient
       id="linearGradient94"><stop
         style="stop-color:#f47188;stop-opacity:0.59813881;"
         offset="0"
         id="stop94" /><stop
         style="stop-color:#f4657e;stop-opacity:0;"
         offset="1"
         id="stop95" /></linearGradient><linearGradient
       id="linearGradient92"><stop
         style="stop-color:#f48094;stop-opacity:0.79710478;"
         offset="0"
         id="stop92" /><stop
         style="stop-color:#f4657e;stop-opacity:0;"
         offset="1"
         id="stop93" /></linearGradient><linearGradient
       id="linearGradient85"><stop
         style="stop-color:#eb6895;stop-opacity:0.42999998;"
         offset="0"
         id="stop85" /><stop
         style="stop-color:#eb6895;stop-opacity:0;"
         offset="1"
         id="stop86" /></linearGradient><linearGradient
       id="linearGradient77"><stop
         style="stop-color:#f596ae;stop-opacity:1;"
         offset="0"
         id="stop77" /><stop
         style="stop-color:#f596ae;stop-opacity:0;"
         offset="1"
         id="stop78" /></linearGradient><linearGradient
       id="linearGradient72"><stop
         style="stop-color:#fadbe6;stop-opacity:0.48141083;"
         offset="0"
         id="stop72" /><stop
         style="stop-color:#fadbe6;stop-opacity:0;"
         offset="1"
         id="stop73" /></linearGradient><linearGradient
       id="linearGradient69"><stop
         style="stop-color:#f5b4cb;stop-opacity:1;"
         offset="0"
         id="stop69" /><stop
         style="stop-color:#f6bcd0;stop-opacity:1;"
         offset="1"
         id="stop70" /></linearGradient><linearGradient
       id="linearGradient67"><stop
         style="stop-color:#db99b5;stop-opacity:1;"
         offset="0"
         id="stop67" /><stop
         style="stop-color:#db99b5;stop-opacity:0;"
         offset="1"
         id="stop68" /></linearGradient><linearGradient
       id="linearGradient34"><stop
         style="stop-color:#f2a0bc;stop-opacity:0.59892949;"
         offset="0"
         id="stop34" /><stop
         style="stop-color:#f2a0bc;stop-opacity:0;"
         offset="1"
         id="stop35" /></linearGradient><linearGradient
       id="linearGradient30"><stop
         style="stop-color:#f596ae;stop-opacity:1;"
         offset="0"
         id="stop30" /><stop
         style="stop-color:#f596ae;stop-opacity:0;"
         offset="1"
         id="stop31" /></linearGradient><linearGradient
       id="linearGradient28"><stop
         style="stop-color:#f596ae;stop-opacity:1;"
         offset="0"
         id="stop28" /><stop
         style="stop-color:#f596ae;stop-opacity:0;"
         offset="1"
         id="stop29" /></linearGradient><linearGradient
       id="linearGradient25"><stop
         style="stop-color:#f89bac;stop-opacity:1;"
         offset="0"
         id="stop25" /><stop
         style="stop-color:#f89bac;stop-opacity:0;"
         offset="1"
         id="stop26" /></linearGradient><linearGradient
       id="linearGradient21"><stop
         style="stop-color:#fbc1ca;stop-opacity:0.76791513;"
         offset="0"
         id="stop21" /><stop
         style="stop-color:#fbc1ca;stop-opacity:0;"
         offset="1"
         id="stop22" /></linearGradient><linearGradient
       id="linearGradient19"><stop
         style="stop-color:#f596ae;stop-opacity:1;"
         offset="0"
         id="stop19" /><stop
         style="stop-color:#f596ae;stop-opacity:0;"
         offset="1"
         id="stop20" /></linearGradient><linearGradient
       id="linearGradient16"><stop
         style="stop-color:#f78d9c;stop-opacity:1;"
         offset="0"
         id="stop16" /><stop
         style="stop-color:#f78d9c;stop-opacity:0;"
         offset="1"
         id="stop17" /></linearGradient><linearGradient
       id="linearGradient10"><stop
         style="stop-color:#fbc1ca;stop-opacity:1;"
         offset="0"
         id="stop10" /><stop
         style="stop-color:#fbc1ca;stop-opacity:0;"
         offset="1"
         id="stop11" /></linearGradient><linearGradient
       id="linearGradient7"><stop
         style="stop-color:#f98c9c;stop-opacity:1;"
         offset="0"
         id="stop7" /><stop
         style="stop-color:#f98c9c;stop-opacity:0;"
         offset="1"
         id="stop8" /></linearGradient><linearGradient
       id="linearGradient5"><stop
         style="stop-color:#fad7e3;stop-opacity:1;"
         offset="0"
         id="stop5" /><stop
         style="stop-color:#fad7e3;stop-opacity:0;"
         offset="1"
         id="stop6" /></linearGradient><linearGradient
       id="linearGradient3"><stop
         style="stop-color:#f6bcd0;stop-opacity:1;"
         offset="0"
         id="stop3" /><stop
         style="stop-color:#f88e9d;stop-opacity:1;"
         offset="1"
         id="stop4" /></linearGradient><linearGradient
       xlink:href="#linearGradient3"
       id="linearGradient4"
       x1="903.0979"
       y1="434.9014"
       x2="1071.0303"
       y2="490.48489"
       gradientUnits="userSpaceOnUse"
       gradientTransform="translate(-2.1474242,0.19978658)" /><linearGradient
       xlink:href="#linearGradient5"
       id="linearGradient6"
       x1="671.33685"
       y1="249.90782"
       x2="666.91986"
       y2="369.45676"
       gradientUnits="userSpaceOnUse" /><linearGradient
       xlink:href="#linearGradient7"
       id="linearGradient8"
       x1="1069.1191"
       y1="1558.8934"
       x2="930.55731"
       y2="1558.8934"
       gradientUnits="userSpaceOnUse"
       gradientTransform="translate(0,-1080)" /><linearGradient
       xlink:href="#linearGradient7"
       id="linearGradient9"
       gradientUnits="userSpaceOnUse"
       x1="1069.1191"
       y1="1558.8934"
       x2="978.41791"
       y2="1555.2936"
       gradientTransform="translate(0,-1080)" /><linearGradient
       xlink:href="#linearGradient10"
       id="linearGradient11"
       x1="1114.8882"
       y1="497.14468"
       x2="1024.3125"
       y2="494.05911"
       gradientUnits="userSpaceOnUse" /><linearGradient
       xlink:href="#linearGradient3"
       id="linearGradient12"
       gradientUnits="userSpaceOnUse"
       gradientTransform="rotate(11.169805,786.73249,357.01426)"
       x1="927.25763"
       y1="458.93414"
       x2="1071.0303"
       y2="490.48489" /><linearGradient
       xlink:href="#linearGradient16"
       id="linearGradient17"
       x1="1014.9708"
       y1="1610.5389"
       x2="908.86115"
       y2="1565.6934"
       gradientUnits="userSpaceOnUse"
       gradientTransform="rotate(-4.3915536,-12893.39,753.14082)" /><linearGradient
       xlink:href="#linearGradient19"
       id="linearGradient20"
       x1="905.28381"
       y1="484.38086"
       x2="917.00055"
       y2="464.65524"
       gradientUnits="userSpaceOnUse" /><linearGradient
       xlink:href="#linearGradient21"
       id="linearGradient22"
       x1="1078.8943"
       y1="560.45941"
       x2="1006.3204"
       y2="536.54633"
       gradientUnits="userSpaceOnUse" /><linearGradient
       xlink:href="#linearGradient3"
       id="linearGradient23"
       gradientUnits="userSpaceOnUse"
       gradientTransform="rotate(22.311615,808.19489,323.67761)"
       x1="942.35687"
       y1="480.63"
       x2="1073.3606"
       y2="493.71198" /><linearGradient
       xlink:href="#linearGradient25"
       id="linearGradient26"
       x1="988.02539"
       y1="1657.7812"
       x2="886.27344"
       y2="1589.9082"
       gradientUnits="userSpaceOnUse" /><linearGradient
       xlink:href="#linearGradient28"
       id="linearGradient29"
       x1="888.44141"
       y1="518.80273"
       x2="907.4071"
       y2="501.00784"
       gradientUnits="userSpaceOnUse" /><linearGradient
       xlink:href="#linearGradient30"
       id="linearGradient31"
       x1="820.6261"
       y1="515.91266"
       x2="861.69568"
       y2="491.99496"
       gradientUnits="userSpaceOnUse" /><linearGradient
       xlink:href="#linearGradient34"
       id="linearGradient35"
       x1="888.44141"
       y1="540.63641"
       x2="831.29858"
       y2="449.41901"
       gradientUnits="userSpaceOnUse" /><linearGradient
       xlink:href="#linearGradient34"
       id="linearGradient51"
       gradientUnits="userSpaceOnUse"
       x1="888.44141"
       y1="540.63641"
       x2="831.29858"
       y2="449.41901"
       gradientTransform="matrix(-0.98637768,-0.16449644,-0.16449644,0.98637768,1493.8844,141.88656)" /><linearGradient
       xlink:href="#linearGradient3"
       id="linearGradient52"
       gradientUnits="userSpaceOnUse"
       gradientTransform="matrix(-0.98637768,-0.16449644,-0.16449644,0.98637768,1495.9697,142.43687)"
       x1="903.0979"
       y1="434.9014"
       x2="1071.0303"
       y2="490.48489" /><linearGradient
       xlink:href="#linearGradient19"
       id="linearGradient53"
       gradientUnits="userSpaceOnUse"
       x1="905.28381"
       y1="484.38086"
       x2="917.00055"
       y2="464.65524"
       gradientTransform="matrix(-0.98637768,-0.16449644,-0.16449644,0.98637768,1493.8844,141.88656)" /><linearGradient
       xlink:href="#linearGradient7"
       id="linearGradient54"
       gradientUnits="userSpaceOnUse"
       x1="1069.1191"
       y1="1558.8934"
       x2="930.55731"
       y2="1558.8934"
       gradientTransform="matrix(-0.98637768,-0.16449644,-0.16449644,0.98637768,1671.5405,-923.40135)" /><linearGradient
       xlink:href="#linearGradient3"
       id="linearGradient55"
       gradientUnits="userSpaceOnUse"
       gradientTransform="matrix(-0.99955892,0.02969803,0.02969803,0.99955892,1434.9242,-15.598439)"
       x1="927.25763"
       y1="458.93414"
       x2="1071.0303"
       y2="490.48489" /><linearGradient
       xlink:href="#linearGradient7"
       id="linearGradient56"
       gradientUnits="userSpaceOnUse"
       x1="1069.1191"
       y1="1558.8934"
       x2="978.41791"
       y2="1555.2936"
       gradientTransform="matrix(-0.98637768,-0.16449644,-0.16449644,0.98637768,1671.5405,-923.40135)" /><linearGradient
       xlink:href="#linearGradient10"
       id="linearGradient57"
       gradientUnits="userSpaceOnUse"
       x1="1114.8882"
       y1="497.14468"
       x2="1024.3125"
       y2="494.05911"
       gradientTransform="matrix(-0.98637768,-0.16449644,-0.16449644,0.98637768,1493.8844,141.88656)" /><linearGradient
       xlink:href="#linearGradient3"
       id="linearGradient58"
       gradientUnits="userSpaceOnUse"
       gradientTransform="matrix(-0.99955892,0.02969803,0.02969803,0.99955892,1434.9242,-15.598439)"
       x1="927.25763"
       y1="458.93414"
       x2="1071.0303"
       y2="490.48489" /><linearGradient
       xlink:href="#linearGradient16"
       id="linearGradient59"
       gradientUnits="userSpaceOnUse"
       x1="1014.9708"
       y1="1610.5389"
       x2="908.86115"
       y2="1565.6934"
       gradientTransform="matrix(-0.9708859,-0.23954245,-0.23954245,0.9708859,1750.1462,-814.04333)" /><linearGradient
       xlink:href="#linearGradient16"
       id="linearGradient60"
       gradientUnits="userSpaceOnUse"
       x1="1014.9708"
       y1="1610.5389"
       x2="908.86115"
       y2="1565.6934"
       gradientTransform="matrix(-0.9708859,-0.23954245,-0.23954245,0.9708859,1750.1462,-814.04333)" /><linearGradient
       xlink:href="#linearGradient21"
       id="linearGradient61"
       gradientUnits="userSpaceOnUse"
       x1="1078.8943"
       y1="560.45941"
       x2="1006.3204"
       y2="536.54633"
       gradientTransform="matrix(-0.98637768,-0.16449644,-0.16449644,0.98637768,1493.8844,141.88656)" /><linearGradient
       xlink:href="#linearGradient28"
       id="linearGradient62"
       gradientUnits="userSpaceOnUse"
       x1="888.44141"
       y1="518.80273"
       x2="907.4071"
       y2="501.00784"
       gradientTransform="matrix(-0.98637768,-0.16449644,-0.16449644,0.98637768,1493.8844,141.88656)" /><linearGradient
       xlink:href="#linearGradient3"
       id="linearGradient63"
       gradientUnits="userSpaceOnUse"
       gradientTransform="rotate(22.311615,808.19489,323.67761)"
       x1="942.35687"
       y1="480.63"
       x2="1073.3606"
       y2="493.71198" /><linearGradient
       xlink:href="#linearGradient25"
       id="linearGradient64"
       gradientUnits="userSpaceOnUse"
       x1="988.02539"
       y1="1657.7812"
       x2="886.27344"
       y2="1589.9082" /><linearGradient
       xlink:href="#linearGradient30"
       id="linearGradient65"
       gradientUnits="userSpaceOnUse"
       x1="820.6261"
       y1="515.91266"
       x2="861.69568"
       y2="491.99496"
       gradientTransform="matrix(-0.98637768,-0.16449644,-0.16449644,0.98637768,1493.8844,141.88656)" /><linearGradient
       xlink:href="#linearGradient67"
       id="linearGradient68"
       x1="978.41791"
       y1="928.45422"
       x2="864.78802"
       y2="798.38208"
       gradientUnits="userSpaceOnUse" /><linearGradient
       xlink:href="#linearGradient69"
       id="linearGradient70"
       x1="708.35724"
       y1="1620.0789"
       x2="791.86108"
       y2="1746.7462"
       gradientUnits="userSpaceOnUse"
       gradientTransform="matrix(1.0877996,-0.11563677,0.11563677,1.0877996,-265.96024,-1199.371)" /><linearGradient
       xlink:href="#linearGradient72"
       id="linearGradient73"
       x1="738.1861"
       y1="1635.5715"
       x2="756.55286"
       y2="1673.1038"
       gradientUnits="userSpaceOnUse"
       gradientTransform="matrix(1.0877996,-0.11563677,0.11563677,1.0877996,-265.96024,-1199.371)" /><linearGradient
       xlink:href="#linearGradient77"
       id="linearGradient78"
       x1="814.35394"
       y1="524.28937"
       x2="785.24646"
       y2="551.43079"
       gradientUnits="userSpaceOnUse" /><radialGradient
       xlink:href="#linearGradient85"
       id="radialGradient86"
       cx="713.58539"
       cy="607.32532"
       fx="713.58539"
       fy="607.32532"
       r="146.0497"
       gradientUnits="userSpaceOnUse"
       gradientTransform="translate(-7.6470683,-15.911767)" /><linearGradient
       xlink:href="#linearGradient92"
       id="linearGradient93"
       x1="786.24084"
       y1="759.14996"
       x2="780.91748"
       y2="762.52747"
       gradientUnits="userSpaceOnUse" /><linearGradient
       xlink:href="#linearGradient94"
       id="linearGradient95"
       x1="595.47443"
       y1="734.30573"
       x2="596.70581"
       y2="738.75"
       gradientUnits="userSpaceOnUse" /><linearGradient
       xlink:href="#linearGradient99"
       id="linearGradient100"
       x1="686.10443"
       y1="878.63068"
       x2="691.02399"
       y2="822.99432"
       gradientUnits="userSpaceOnUse" /><linearGradient
       xlink:href="#linearGradient101"
       id="linearGradient102"
       x1="590.66968"
       y1="712.74445"
       x2="622.35016"
       y2="789.28479"
       gradientUnits="userSpaceOnUse" /><linearGradient
       xlink:href="#linearGradient103"
       id="linearGradient104"
       x1="825.53082"
       y1="748.0459"
       x2="769.09943"
       y2="790.95496"
       gradientUnits="userSpaceOnUse" /><radialGradient
       xlink:href="#linearGradient106"
       id="radialGradient107"
       cx="706.80402"
       cy="573.83301"
       fx="706.80402"
       fy="573.83301"
       r="78.737106"
       gradientTransform="matrix(1,0,0,0.87221665,0,73.326301)"
       gradientUnits="userSpaceOnUse" /><linearGradient
       xlink:href="#linearGradient3"
       id="linearGradient2"
       gradientUnits="userSpaceOnUse"
       gradientTransform="rotate(11.169805,786.73249,357.01426)"
       x1="927.25763"
       y1="458.93414"
       x2="1071.0303"
       y2="490.48489" /><linearGradient
       xlink:href="#linearGradient16"
       id="linearGradient13"
       gradientUnits="userSpaceOnUse"
       x1="1014.9708"
       y1="1610.5389"
       x2="908.86115"
       y2="1565.6934"
       gradientTransform="rotate(-4.3915536,-12893.39,753.14082)" /><linearGradient
       xlink:href="#linearGradient24"
       id="linearGradient27"
       x1="688.16388"
       y1="802.85968"
       x2="695.96313"
       y2="732.2113"
       gradientUnits="userSpaceOnUse" /><linearGradient
       xlink:href="#linearGradient32"
       id="linearGradient33"
       x1="704.2464"
       y1="592.81641"
       x2="697.03925"
       y2="667.34613"
       gradientUnits="userSpaceOnUse" /><linearGradient
       xlink:href="#linearGradient36"
       id="linearGradient37"
       x1="565.93066"
       y1="648.26367"
       x2="649.21619"
       y2="699.95062"
       gradientUnits="userSpaceOnUse" /><linearGradient
       xlink:href="#linearGradient66"
       id="linearGradient71"
       x1="810.47125"
       y1="685.34406"
       x2="748.30701"
       y2="708.9668"
       gradientUnits="userSpaceOnUse" /><linearGradient
       xlink:href="#linearGradient77"
       id="linearGradient74"
       gradientUnits="userSpaceOnUse"
       x1="814.35394"
       y1="524.28937"
       x2="783.06451"
       y2="555.0307" /><linearGradient
       xlink:href="#linearGradient75"
       id="linearGradient76"
       x1="388.42941"
       y1="835.98004"
       x2="419.76428"
       y2="841.71478"
       gradientUnits="userSpaceOnUse" /><linearGradient
       xlink:href="#linearGradient69"
       id="linearGradient105"
       gradientUnits="userSpaceOnUse"
       gradientTransform="matrix(1.0877996,-0.11563677,0.11563677,1.0877996,-265.96024,-1199.371)"
       x1="708.35724"
       y1="1620.0789"
       x2="791.86108"
       y2="1746.7462" /><linearGradient
       xlink:href="#linearGradient72"
       id="linearGradient107"
       gradientUnits="userSpaceOnUse"
       gradientTransform="matrix(1.0877996,-0.11563677,0.11563677,1.0877996,-265.96024,-1199.371)"
       x1="738.1861"
       y1="1635.5715"
       x2="756.55286"
       y2="1673.1038" /><linearGradient
       xlink:href="#linearGradient77"
       id="linearGradient108"
       gradientUnits="userSpaceOnUse"
       x1="814.35394"
       y1="524.28937"
       x2="783.06451"
       y2="555.0307" /><linearGradient
       xlink:href="#linearGradient77"
       id="linearGradient109"
       gradientUnits="userSpaceOnUse"
       x1="814.35394"
       y1="524.28937"
       x2="785.24646"
       y2="551.43079" /><linearGradient
       xlink:href="#linearGradient75"
       id="linearGradient110"
       gradientUnits="userSpaceOnUse"
       x1="388.42941"
       y1="835.98004"
       x2="419.76428"
       y2="841.71478" /><linearGradient
       xlink:href="#linearGradient119"
       id="linearGradient120"
       x1="784.58752"
       y1="1519.6677"
       x2="786.22583"
       y2="1537.5437"
       gradientUnits="userSpaceOnUse" /><linearGradient
       xlink:href="#linearGradient121"
       id="linearGradient122"
       x1="728.30585"
       y1="1504.637"
       x2="728.01294"
       y2="1517.8846"
       gradientUnits="userSpaceOnUse" /><linearGradient
       xlink:href="#linearGradient123"
       id="linearGradient124"
       x1="754.56024"
       y1="1505.274"
       x2="748.84766"
       y2="1509.4866"
       gradientUnits="userSpaceOnUse" /><linearGradient
       xlink:href="#linearGradient125"
       id="linearGradient126"
       x1="708.51758"
       y1="1499.2108"
       x2="714.13232"
       y2="1505.9197"
       gradientUnits="userSpaceOnUse" /><linearGradient
       xlink:href="#linearGradient130"
       id="linearGradient131"
       x1="780.37622"
       y1="910.28467"
       x2="824.34485"
       y2="941.76837"
       gradientUnits="userSpaceOnUse" /><linearGradient
       xlink:href="#linearGradient133"
       id="linearGradient134"
       x1="906.33783"
       y1="965.02423"
       x2="867.78186"
       y2="949.3634"
       gradientUnits="userSpaceOnUse" /><linearGradient
       xlink:href="#linearGradient130"
       id="linearGradient136"
       gradientUnits="userSpaceOnUse"
       x1="780.37622"
       y1="910.28467"
       x2="824.34485"
       y2="941.76837" /><linearGradient
       xlink:href="#linearGradient133"
       id="linearGradient137"
       gradientUnits="userSpaceOnUse"
       x1="906.33783"
       y1="965.02423"
       x2="867.78186"
       y2="949.3634" /><linearGradient
       xlink:href="#linearGradient138"
       id="linearGradient139"
       x1="346.91583"
       y1="686.46552"
       x2="536.59668"
       y2="694.31537"
       gradientUnits="userSpaceOnUse" /><linearGradient
       xlink:href="#linearGradient140"
       id="linearGradient141"
       x1="1067.0088"
       y1="716.25494"
       x2="866.41199"
       y2="714.01215"
       gradientUnits="userSpaceOnUse" /></defs><g
     id="g1"
     style="display:none"><circle
       style="mix-blend-mode:overlay;fill:url(#radialGradient86);stroke-width:0.755906;stroke-linecap:round;stroke-linejoin:round"
       id="path83"
       cx="705.93835"
       cy="591.41357"
       r="146.0497" /><path
       id="path104"
       style="fill:url(#radialGradient107);fill-opacity:0.345383;stroke-width:0.755906;stroke-linecap:round;stroke-linejoin:round"
       d="m 785.30278,585.89638 c 3.58001,52.02955 -33.55074,56.61241 -85.70332,56.61241 -52.15258,10e-6 -72.07093,-7.00818 -71.52151,-59.15787 0.51455,-48.83969 26.40256,-75.53144 78.06697,-78.06695 49.20482,-2.41481 75.66499,29.84933 79.15786,80.61241 z" /></g><g
     id="g141"
     transform="matrix(3.2575628,0,0,3.2575628,-865.69654,-275.11721)"><g
       id="g136"
       transform="matrix(-0.9974105,-0.07191873,-0.07191873,0.9974105,1447.1794,45.4649)"><path
         style="fill:#f98f9e;fill-opacity:1;stroke-width:0.755906;stroke-linecap:round;stroke-linejoin:round"
         d="m 840.49141,1989.1817 c 2.9904,3.9249 7.10225,6.8219 13.83076,11.4477 9.24269,7.1913 41.68962,25.5635 38.9686,40.3237 -0.65418,1.8691 -2.61659,2.6167 -8.97131,2.3363 -6.35471,-0.2804 -17.10127,-1.5887 -29.20321,-3.6446 -9.97282,-1.6942 -73.44685,-13.3541 -91.06715,-38.4081 -5.98086,-8.5041 -9.90572,-21.1197 -1.21462,-28.4555 8.69109,-7.3359 29.99732,-9.3918 43.92146,-8.0834 13.92415,1.3083 20.46556,5.9808 24.67082,10.7935 4.20526,4.8127 6.07424,9.7655 9.06465,13.6904 z"
         id="path134"
         transform="translate(0,-1080)" /><path
         id="path135"
         style="fill:url(#linearGradient136);fill-opacity:1;stroke-width:0.755906;stroke-linecap:round;stroke-linejoin:round"
         d="m 795.24023,884.37695 c -12.27401,0.37011 -25.88793,2.90237 -32.40625,8.4043 -8.6911,7.3358 -4.76601,19.95098 1.21485,28.45508 8.32293,11.83424 26.8761,20.6797 45.18945,26.89844 a 86.694359,86.694359 0 0 0 42.37891,-29.375 c -5.16524,-3.59788 -8.55808,-6.20905 -11.125,-9.57813 -2.99041,-3.9249 -4.8592,-8.87675 -9.06446,-13.68945 -4.20526,-4.8127 -10.74772,-9.48662 -24.67187,-10.79492 -3.48104,-0.3271 -7.42429,-0.44369 -11.51563,-0.32032 z" /><path
         id="path136"
         style="mix-blend-mode:overlay;fill:url(#linearGradient137);fill-opacity:0.796847;stroke-width:0.755906;stroke-linecap:round;stroke-linejoin:round"
         d="m 862.90039,926.6582 a 31.622887,31.622887 0 0 0 -12.36523,25.08203 31.622887,31.622887 0 0 0 0.83984,7.23633 c 1.60701,0.2995 2.87648,0.5209 3.74219,0.66797 12.10194,2.0559 22.84841,3.36413 29.20312,3.64453 6.35472,0.2804 8.31653,-0.46684 8.97071,-2.33594 2.13712,-11.59286 -17.42075,-25.41294 -30.39063,-34.29492 z" /></g><g
       id="g134"><path
         style="fill:#f98f9e;fill-opacity:1;stroke-width:0.755906;stroke-linecap:round;stroke-linejoin:round"
         d="m 840.49141,1989.1817 c 2.9904,3.9249 7.10225,6.8219 13.83076,11.4477 9.24269,7.1913 41.68962,25.5635 38.9686,40.3237 -0.65418,1.8691 -2.61659,2.6167 -8.97131,2.3363 -6.35471,-0.2804 -17.10127,-1.5887 -29.20321,-3.6446 -9.97282,-1.6942 -73.44685,-13.3541 -91.06715,-38.4081 -5.98086,-8.5041 -9.90572,-21.1197 -1.21462,-28.4555 8.69109,-7.3359 29.99732,-9.3918 43.92146,-8.0834 13.92415,1.3083 20.46556,5.9808 24.67082,10.7935 4.20526,4.8127 6.07424,9.7655 9.06465,13.6904 z"
         id="path128"
         transform="translate(0,-1080)" /><path
         id="path129"
         style="fill:url(#linearGradient131);fill-opacity:1;stroke-width:0.755906;stroke-linecap:round;stroke-linejoin:round"
         d="m 795.24023,884.37695 c -12.27401,0.37011 -25.88793,2.90237 -32.40625,8.4043 -8.6911,7.3358 -4.76601,19.95098 1.21485,28.45508 8.32293,11.83424 26.8761,20.6797 45.18945,26.89844 a 86.694359,86.694359 0 0 0 42.37891,-29.375 c -5.16524,-3.59788 -8.55808,-6.20905 -11.125,-9.57813 -2.99041,-3.9249 -4.8592,-8.87675 -9.06446,-13.68945 -4.20526,-4.8127 -10.74772,-9.48662 -24.67187,-10.79492 -3.48104,-0.3271 -7.42429,-0.44369 -11.51563,-0.32032 z" /><path
         id="path131"
         style="mix-blend-mode:overlay;fill:url(#linearGradient134);fill-opacity:0.796847;stroke-width:0.755906;stroke-linecap:round;stroke-linejoin:round"
         d="m 862.90039,926.6582 a 31.622887,31.622887 0 0 0 -12.36523,25.08203 31.622887,31.622887 0 0 0 0.83984,7.23633 c 1.60701,0.2995 2.87648,0.5209 3.74219,0.66797 12.10194,2.0559 22.84841,3.36413 29.20312,3.64453 6.35472,0.2804 8.31653,-0.46684 8.97071,-2.33594 2.13712,-11.59286 -17.42075,-25.41294 -30.39063,-34.29492 z" /></g><path
       id="path2"
       style="display:inline;fill:#f6bcd0;fill-opacity:1;stroke-width:0.755906;stroke-linecap:round;stroke-linejoin:round"
       d="m 614.12429,348.09943 c -72.03791,50.67063 -121.66308,138.08227 -151.7864,217.15838 -8.87103,23.74183 -13.84236,41.91139 -17.74219,59.35352 -3.89983,17.44214 -6.72788,34.15582 -8.69922,52.45508 -1.97134,18.29927 -2.88565,38.17794 -2.57226,54.89648 1.77528,94.70779 56.48204,144.79639 122.78369,170.63176 100.03462,38.9799 246.57332,31.50518 323.44678,-6.45403 13.79944,-6.81398 26.99902,-15.38583 37.71289,-23.91406 10.71387,-8.52822 18.94102,-17.01309 26.18359,-27.12695 7.24257,-10.11385 13.49913,-21.85551 18.3418,-33.68359 4.84268,-11.82809 8.27103,-23.74071 11.05664,-36.46875 2.78561,-12.72804 4.92908,-26.27081 5.44336,-42.98438 0.51428,-16.71357 -0.60093,-36.59721 -2.57227,-54.89648 -10.40048,-96.54406 -58.72647,-195.43153 -64.4287,-206.81772 -6.1865,-12.35316 -12.8188,-24.43135 -19.94204,-36.1241 -3.56162,-5.84637 -7.24598,-11.59638 -11.05873,-17.23621 -3.81275,-5.63982 -7.75388,-11.16946 -11.82904,-16.57512 -16.30064,-21.62261 -34.74575,-41.26131 -55.69657,-58.03201 -64.34046,-44.62971 -130.65066,-41.34345 -198.64133,5.81818 z" /><path
       id="path139"
       style="mix-blend-mode:overlay;fill:url(#linearGradient141);fill-opacity:1;stroke-width:0.755906;stroke-linecap:round;stroke-linejoin:round"
       d="m 911.85938,471.39062 a 202.63783,210.15799 0 0 0 -165.4375,206.58594 202.63783,210.15799 0 0 0 156.53124,204.64453 c 5.10285,-3.38954 9.91834,-6.89522 14.31446,-10.39453 10.71387,-8.52822 18.94102,-17.01309 26.18359,-27.12695 7.24257,-10.11385 13.49913,-21.85551 18.3418,-33.68359 4.84268,-11.82809 8.27103,-23.74071 11.05664,-36.46875 2.78561,-12.72804 4.92908,-26.27081 5.44336,-42.98438 0.51428,-16.71357 -0.60093,-36.59721 -2.57227,-54.89648 -10.1133,-93.87833 -56.08743,-189.97192 -63.86132,-205.67579 z" /><path
       id="path137"
       style="mix-blend-mode:overlay;fill:url(#linearGradient139);stroke-width:0.755906;stroke-linecap:round;stroke-linejoin:round"
       d="m 510.125,465.72266 c -19.42652,32.46586 -35.28599,66.71871 -47.78711,99.53515 -8.87103,23.74183 -13.84236,41.91139 -17.74219,59.35352 -3.89983,17.44214 -6.72788,34.15582 -8.69922,52.45508 -1.97134,18.29927 -2.88565,38.17794 -2.57226,54.89648 1.16912,62.37065 25.29488,105.39015 60.57031,134.875 A 225.19824,225.19824 0 0 0 625.1875,662.15234 225.19824,225.19824 0 0 0 510.125,465.72266 Z" /><path
       id="path32"
       style="fill:url(#linearGradient35);fill-opacity:0.598929;stroke-width:0.755906;stroke-linecap:round;stroke-linejoin:round"
       d="m 842.53711,441.97266 c -2.69165,-0.0248 -6.36563,-0.32799 -8.83008,1.16211 -2.46448,1.4901 -2.73755,3.75912 -1.80375,8.82092 0.93377,5.0618 3.07397,12.91531 7.53617,21.23181 4.46219,8.3164 10.26493,18.10892 16.65039,28.51172 6.38547,10.4026 13.35321,21.41473 18.08399,28.17383 7.89596,11.10345 18.67746,21.37064 30.54687,30.4082 0.0748,0.15712 0.11615,0.27991 0.19336,0.43945 0.96229,0.72905 2.04004,1.26059 3.01758,1.97071 17.2481,12.66307 27.15525,17.62186 49.16317,21.58325 -5.25805,-17.80926 -11.00541,-30.95761 -16.62215,-45.97388 -2.57562,-2.03062 -5.34043,-4.28181 -8.43946,-6.9082 h -0.002 c -6.88965,-5.83885 -15.4221,-13.52864 -23.9668,-21.64649 h -0.002 c -4.83778,-4.59613 -9.67833,-9.32987 -14.22656,-13.94336 -29.04896,-29.4662 -44.91353,-53.77107 -51.29883,-53.83007 z" /><path
       style="fill:url(#linearGradient4);stroke-width:0.755906;stroke-linecap:round;stroke-linejoin:round"
       d="m 938.45884,444.56348 c 16.48505,7.0303 35.39374,14.0605 48.8484,18.4242 13.45456,4.3636 21.45436,6.0606 31.99996,8.7879 10.5456,2.7273 23.6362,6.4848 32.1211,8.9091 8.4849,2.4242 12.3636,3.5151 14.7879,4.909 2.4242,1.394 3.3939,3.091 2.6666,5.091 -0.7273,2 -3.1515,4.303 -7.3334,6.7272 -27.892,16.16935 -90.44961,10.06579 -128.34467,-13.8634 -6.94263,-4.4569 -17.57043,-11.9993 -27.42716,-19.199 -9.85673,-7.1997 -18.94177,-14.0563 -26.22717,-20.0561 -7.2854,-5.9997 -12.77072,-11.1422 -15.5563,-15.4706 -2.78557,-4.3284 -2.87128,-7.8424 -1.15704,-10.1566 1.71424,-2.3142 5.22828,-3.4284 7.72783,-4.4273 5.92952,-2.36986 29.83317,14.09277 67.89395,30.3246 z"
       id="path3" /><path
       id="path4"
       style="fill:url(#linearGradient6);fill-opacity:1;stroke-width:0.755906;stroke-linecap:round;stroke-linejoin:round"
       d="m 714.81445,310.76953 c -33.11894,1.13806 -66.69412,13.74926 -100.68945,37.33008 -43.98526,30.93872 -79.61642,75.57557 -107.55273,123.64844 A 184.23988,184.23988 0 0 0 663.57422,559.57617 184.23988,184.23988 0 0 0 847.81445,375.33594 C 836.97986,363.41406 825.3227,352.33293 812.76562,342.28125 780.5954,319.9664 747.93339,309.63148 714.81445,310.76953 Z" /><path
       id="path18"
       style="fill:url(#linearGradient20);fill-opacity:1;stroke-width:0.755906;stroke-linecap:round;stroke-linejoin:round"
       d="m 872.12109,414.01172 c -3.78612,3.71236 -6.91805,8.03751 -9.26367,12.79297 0.31159,0.65077 0.68992,1.32331 1.13672,2.01758 2.78558,4.3284 8.27124,9.471 15.55664,15.4707 7.2854,5.9998 16.36983,12.85694 26.22656,20.05664 9.85673,7.1997 20.48511,14.74232 27.42774,19.19922 0.44287,0.27965 0.88838,0.55725 1.33789,0.83203 45.80065,19.55095 16.84772,-20.82262 17.57031,-34.20508 -4.62455,-1.83651 -9.22678,-3.72315 -13.6543,-5.61133 -35.3243,-15.0648 -58.45423,-30.33035 -66.33789,-30.55273 z" /><path
       id="path6"
       style="fill:url(#linearGradient8);fill-opacity:1;stroke-width:0.755906;stroke-linecap:round;stroke-linejoin:round"
       d="m 955.08008,451.3457 c 0.48527,1.1872 1.28968,2.259 1.88867,3.1699 1.45456,2.2122 1.69727,3.4853 0.69727,3.5156 -1.00001,0.03 -3.24128,-1.1837 -5.1504,-2.0624 -1.90911,-0.8788 -3.48553,-1.4238 -2.27343,-0.4844 1.21209,0.9393 5.21243,3.3645 7.63672,5.0312 2.42428,1.6667 3.27189,2.5748 2.84765,2.9688 -0.42424,0.3939 -2.12077,0.2732 -5.42383,-0.4844 -3.30305,-0.7576 -8.21224,-2.1516 -10.81835,-2.8789 -2.60612,-0.7273 -2.90935,-0.7885 -1.69727,0.666 1.21208,1.4545 3.9401,4.4252 6.27344,7.0313 2.33333,2.606 4.27187,4.8485 4.84765,5.9394 0.57578,1.091 -0.21091,1.0303 -4.21093,0 -4.00003,-1.0303 -11.21214,-3.0314 -15.23829,-4.0801 -4.02614,-1.0487 -4.86647,-1.1454 -2.84375,1.4629 2.02273,2.6084 6.90917,7.9224 10.23829,13.6074 0.99803,1.7044 1.85485,3.4428 2.87695,5.1875 38.04453,18.5082 91.60023,22.0959 116.81833,7.4766 4.1819,-2.4242 6.6067,-4.7266 7.334,-6.7266 0.7273,-2 -0.2418,-3.6977 -2.666,-5.0917 -2.4243,-1.394 -6.3042,-2.4841 -14.7891,-4.9083 -8.4849,-2.4243 -21.5755,-6.1828 -32.1211,-8.9101 -10.5456,-2.7273 -18.5454,-4.4235 -31.99996,-8.7871 -9.06847,-2.9412 -20.61481,-7.0952 -32.22656,-11.6426 z" /><path
       style="fill:url(#linearGradient2);stroke-width:0.755906;stroke-linecap:round;stroke-linejoin:round"
       d="m 920.77039,472.5171 c 14.81089,10.0905 31.99952,20.6505 44.35399,27.5379 12.35434,6.8874 19.87388,10.1019 29.6914,14.8204 9.81762,4.7185 21.93232,10.9407 29.78682,14.9627 7.8546,4.022 11.4485,5.8437 13.5569,7.6808 2.1082,1.8371 2.7308,3.6899 1.6298,5.5111 -1.1009,1.8212 -3.9253,3.611 -8.4976,5.1791 -30.496,10.46 -90.68625,-7.6465 -123.22798,-38.4633 -5.94773,-5.7175 -14.91312,-15.1757 -23.18843,-24.1484 -8.27532,-8.9728 -15.86001,-17.4595 -21.84514,-24.7569 -5.98515,-7.2974 -10.37038,-13.4051 -12.2647,-18.1911 -1.89433,-4.786 -1.29769,-8.25 0.83239,-10.1883 2.13005,-1.9383 5.79337,-2.3507 8.43908,-2.8465 6.27629,-1.1763 26.53804,19.6051 60.73347,42.9025 z"
       id="path11" /><path
       id="path8"
       style="fill:url(#linearGradient9);fill-opacity:1;stroke-width:0.755906;stroke-linecap:round;stroke-linejoin:round"
       d="m 955.08008,451.3457 c 0.48527,1.1872 1.28968,2.259 1.88867,3.1699 1.45456,2.2122 1.69727,3.4853 0.69727,3.5156 -1.00001,0.03 -3.24128,-1.1837 -5.1504,-2.0624 -1.90911,-0.8788 -3.48553,-1.4238 -2.27343,-0.4844 1.21209,0.9393 5.21243,3.3645 7.63672,5.0312 2.42428,1.6667 3.27189,2.5748 2.84765,2.9688 -0.42424,0.3939 -2.12077,0.2732 -5.42383,-0.4844 -3.30305,-0.7576 -8.21224,-2.1516 -10.81835,-2.8789 -2.60612,-0.7273 -2.90935,-0.7885 -1.69727,0.666 1.21208,1.4545 3.9401,4.4252 6.27344,7.0313 2.33333,2.606 4.27187,4.8485 4.84765,5.9394 0.57578,1.091 -0.21091,1.0303 -4.21093,0 -4.00003,-1.0303 -11.21214,-3.0314 -15.23829,-4.0801 -4.02614,-1.0487 -4.86647,-1.1454 -2.84375,1.4629 2.02273,2.6084 6.90917,7.9224 10.23829,13.6074 0.99803,1.7044 1.85485,3.4428 2.87695,5.1875 38.04453,18.5082 91.60023,22.0959 116.81833,7.4766 4.1819,-2.4242 6.6067,-4.7266 7.334,-6.7266 0.7273,-2 -0.2418,-3.6977 -2.666,-5.0917 -2.4243,-1.394 -6.3042,-2.4841 -14.7891,-4.9083 -8.4849,-2.4243 -21.5755,-6.1828 -32.1211,-8.9101 -10.5456,-2.7273 -18.5454,-4.4235 -31.99996,-8.7871 -9.06847,-2.9412 -20.61481,-7.0952 -32.22656,-11.6426 z" /><path
       id="path9"
       style="mix-blend-mode:overlay;fill:url(#linearGradient11);fill-opacity:1;stroke-width:0.755906;stroke-linecap:round;stroke-linejoin:round"
       d="m 1009.627,469.33398 a 43.315319,43.315319 0 0 0 -1.5137,11.35157 43.315319,43.315319 0 0 0 8.4824,25.74609 c 17.9124,0.2081 34.0709,-2.71094 44.9531,-9.01953 4.1819,-2.4242 6.6067,-4.72656 7.334,-6.72656 0.7273,-2 -0.2418,-3.6978 -2.666,-5.0918 -2.4243,-1.394 -6.3042,-2.484 -14.7891,-4.9082 -8.4849,-2.4243 -21.5755,-6.18286 -32.1211,-8.91016 -3.402,-0.87983 -6.5389,-1.65202 -9.6796,-2.44141 z" /><path
       id="path23"
       style="fill:#f3a3be;fill-opacity:1;stroke-width:0.755906;stroke-linecap:round;stroke-linejoin:round"
       d="m 919.60156,487.77734 a 31.15958,31.024616 0 0 0 -31.16015,31.02539 31.15958,31.024616 0 0 0 31.16015,31.02539 31.15958,31.024616 0 0 0 21.84766,-8.90429 c -8.15411,-22.03494 -16.08766,-40.47743 -21.84766,-53.14649 z" /><path
       style="fill:url(#linearGradient12);stroke-width:0.755906;stroke-linecap:round;stroke-linejoin:round"
       d="m 920.77039,472.5171 c 14.81089,10.0905 31.99952,20.6505 44.35399,27.5379 12.35434,6.8874 19.87388,10.1019 29.6914,14.8204 9.81762,4.7185 21.93232,10.9407 29.78682,14.9627 7.8546,4.022 11.4485,5.8437 13.5569,7.6808 2.1082,1.8371 2.7308,3.6899 1.6298,5.5111 -1.1009,1.8212 -3.9253,3.611 -8.4976,5.1791 -30.496,10.46 -90.68625,-7.6465 -123.22798,-38.4633 -5.94773,-5.7175 -14.91312,-15.1757 -23.18843,-24.1484 -8.27532,-8.9728 -15.86001,-17.4595 -21.84514,-24.7569 -5.98515,-7.2974 -10.37038,-13.4051 -12.2647,-18.1911 -1.89433,-4.786 -1.29769,-8.25 0.83239,-10.1883 2.13005,-1.9383 5.79337,-2.3507 8.43908,-2.8465 6.27629,-1.1763 26.53804,19.6051 60.73347,42.9025 z"
       id="path15" /><path
       id="path14"
       style="fill:url(#linearGradient13);fill-opacity:1;stroke-width:0.755906;stroke-linecap:round;stroke-linejoin:round"
       d="m 942.93554,498.91407 c -0.74664,0.0724 -0.96951,0.33292 -0.79297,1.0488 0.3531,1.43177 2.30505,4.68586 2.79298,5.89454 0.48792,1.20869 -0.48686,0.37177 -1.19336,-0.12108 -0.70651,-0.49284 -1.1436,-0.64161 -0.18164,1.19923 0.96196,1.84085 3.32149,5.67162 2.70313,7.11722 -0.61838,1.44549 -4.21473,0.50661 -8.25391,-1.03713 -4.03919,-1.54374 -8.52051,-3.69321 -11.35352,-4.96492 -2.83301,-1.2716 -4.01896,-1.66615 -1.97656,2.37112 2.04239,4.03726 7.31244,12.50719 9.88281,17.69731 0.21007,0.42416 0.40284,0.82638 0.58008,1.21093 32.36358,18.21895 72.89112,26.85603 96.14842,18.87885 4.5724,-1.56802 7.3972,-3.35847 8.498,-5.17962 1.1011,-1.82126 0.4793,-3.67268 -1.6288,-5.50975 -2.1084,-1.83715 -5.7021,-3.65972 -13.5566,-7.68169 -7.8546,-4.02197 -19.9696,-10.24437 -29.7872,-14.96287 -9.81752,-4.71851 -17.33706,-7.93296 -29.6914,-14.82028 -0.0516,-0.0291 -0.10448,-0.0572 -0.15627,-0.0863 -10.74734,-1.05575 -15.17422,-0.92299 -18.09766,-0.97659 -1.91744,-0.0351 -3.18892,-0.15066 -3.93555,-0.0781 z" /><path
       id="path17"
       style="fill:url(#linearGradient17);fill-opacity:1;stroke-width:0.755906;stroke-linecap:round;stroke-linejoin:round"
       d="m 942.93554,498.91407 c -0.74664,0.0724 -0.96951,0.33292 -0.79297,1.0488 0.3531,1.43177 2.30505,4.68586 2.79298,5.89454 0.48792,1.20869 -0.48686,0.37177 -1.19336,-0.12108 -0.70651,-0.49284 -1.1436,-0.64161 -0.18164,1.19923 0.96196,1.84085 3.32149,5.67162 2.70313,7.11722 -0.61838,1.44549 -4.21473,0.50661 -8.25391,-1.03713 -4.03919,-1.54374 -8.52051,-3.69321 -11.35352,-4.96492 -2.83301,-1.2716 -4.01896,-1.66615 -1.97656,2.37112 2.04239,4.03726 7.31244,12.50719 9.88281,17.69731 0.21007,0.42416 0.40284,0.82638 0.58008,1.21093 32.36358,18.21895 72.89112,26.85603 96.14842,18.87885 4.5724,-1.56802 7.3972,-3.35847 8.498,-5.17962 1.1011,-1.82126 0.4793,-3.67268 -1.6288,-5.50975 -2.1084,-1.83715 -5.7021,-3.65972 -13.5566,-7.68169 -7.8546,-4.02197 -19.9696,-10.24437 -29.7872,-14.96287 -9.81752,-4.71851 -17.33706,-7.93296 -29.6914,-14.82028 -0.0516,-0.0291 -0.10448,-0.0572 -0.15627,-0.0863 -10.74734,-1.05575 -15.17422,-0.92299 -18.09766,-0.97659 -1.91744,-0.0351 -3.18892,-0.15066 -3.93555,-0.0781 z" /><path
       id="path20"
       style="fill:url(#linearGradient22);fill-opacity:1;stroke-width:0.755906;stroke-linecap:round;stroke-linejoin:round"
       d="m 999.75391,517.27734 a 33.044128,33.044128 0 0 0 -19.14649,29.97852 c 19.32692,4.68117 37.69768,5.40726 50.68358,0.95312 4.5724,-1.56801 7.3972,-3.35854 8.4981,-5.17968 1.101,-1.82126 0.4792,-3.6727 -1.6289,-5.50977 -2.1084,-1.83715 -5.7022,-3.65967 -13.5567,-7.68164 -6.5789,-3.36878 -16.1463,-8.28105 -24.84959,-12.56055 z" /><path
       id="path27"
       style="fill:url(#linearGradient29);fill-opacity:1;stroke-width:0.755906;stroke-linecap:round;stroke-linejoin:round"
       d="m 886.60156,447.14844 a 47.840481,47.840481 0 0 0 -20.38672,17.51172 c 5.3975,6.37594 11.79115,13.48954 18.66016,20.9375 8.27531,8.9727 17.24172,18.43093 23.18945,24.14843 7.64471,7.23949 16.81461,13.77719 26.76758,19.40821 a 47.840481,47.840481 0 0 0 19.24414,-35.47461 c -10.51092,-6.24105 -22.53753,-13.82524 -33.30664,-21.16211 -13.59248,-9.26058 -24.98182,-18.12466 -34.16797,-25.36914 z" /><g
       id="g27"
       transform="translate(9.33716,6.654)"><path
         style="fill:url(#linearGradient23);stroke-width:0.755906;stroke-linecap:round;stroke-linejoin:round"
         d="m 884.87529,485.5974 c 12.58187,12.7624 27.40594,26.4448 38.19664,35.5897 10.79058,9.1449 17.54723,13.7519 26.26791,20.2786 8.72079,6.5267 19.40478,14.9727 26.33403,20.4366 6.92936,5.464 10.1035,7.9459 11.81717,10.1558 1.71347,2.2098 1.9663,4.148 0.53413,5.7222 -1.43207,1.5741 -4.54911,2.7844 -9.33824,3.4394 -31.94248,4.3699 -87.49941,-25.0264 -113.47281,-61.5507 -4.73078,-6.7591 -11.69951,-17.7715 -18.08498,-28.1741 -6.38546,-10.4028 -12.18724,-20.1952 -16.64943,-28.5116 -4.4622,-8.3165 -7.58453,-15.1565 -8.51831,-20.2183 -0.93379,-5.0618 0.32098,-8.3453 2.78546,-9.8354 2.46445,-1.4901 6.13842,-1.1869 8.83007,-1.1621 6.3853,0.059 22.2494,24.3637 51.29836,53.8299 z"
         id="path22" /><path
         id="path24"
         style="fill:url(#linearGradient26);fill-opacity:1;stroke-width:0.755906;stroke-linecap:round;stroke-linejoin:round"
         d="m 896.96289,1579.1211 c -0.21003,0.013 -0.31532,0.076 -0.35742,0.1816 -0.18183,0.4546 0.78775,1.6679 2.12109,3.7891 1.33334,2.1212 3.03161,5.1499 3.66797,6.6953 0.63637,1.5455 0.21137,1.6072 -2.21289,-0.2109 -2.42426,-1.8182 -6.84802,-5.5146 -9.42383,-7.545 -2.57581,-2.0303 -3.3026,-2.3941 -3.42383,-1.7578 -0.12122,0.6364 0.36386,2.2718 1.75782,4.9082 1.39395,2.6364 3.69589,6.2732 5.08984,8.5762 1.39396,2.3031 1.87933,3.2733 0.45508,2.4551 -1.42425,-0.8182 -4.75719,-3.4259 -8.36328,-6.3047 -3.60609,-2.8788 -7.4858,-6.0284 -9.97071,-7.877 -2.4849,-1.8485 -3.57614,-2.3953 -3.57617,-1.5468 -2e-5,0.8484 1.09232,3.0906 3.54688,7.2422 2.45456,4.1515 6.27186,10.2123 8.84765,14.6972 2.5758,4.4849 3.90844,7.3948 5.31641,12.5332 0.99056,3.6151 2.01926,8.3335 5.51562,15.5586 27.11429,20.5421 60.59598,33.7318 82.73438,30.7032 4.78913,-0.655 7.90582,-1.8634 9.33789,-3.4376 1.43217,-1.5742 1.17831,-3.5128 -0.53516,-5.7226 -1.71367,-2.2099 -4.88704,-4.6923 -11.8164,-10.1563 -6.92925,-5.4639 -17.6132,-13.9108 -26.33399,-20.4375 -8.72068,-6.5267 -15.47699,-11.1324 -26.26757,-20.2773 -6.88989,-5.839 -15.42375,-13.5283 -23.96875,-21.6465 -1.1457,-0.319 -1.79058,-0.4412 -2.14063,-0.4199 z"
         transform="translate(0,-1080)" /></g><path
       id="path29"
       style="fill:url(#linearGradient31);fill-opacity:1;stroke-width:0.755906;stroke-linecap:round;stroke-linejoin:round"
       d="m 842.91406,438.42188 c -2.69165,-0.0248 -6.36563,-0.328 -8.83008,1.1621 -2.46448,1.4901 -3.71894,4.77414 -2.78515,9.83594 0.93378,5.0618 4.05538,11.9003 8.51758,20.2168 4.46219,8.3164 10.26493,18.10892 16.65039,28.51172 6.38547,10.4026 13.3532,21.41473 18.08398,28.17383 0.13992,0.19675 0.28025,0.39351 0.42188,0.58984 a 62.362701,62.362701 0 0 0 28.15625,-25.81836 c -3.03963,-2.95222 -6.03608,-5.92054 -8.91602,-8.8418 -29.04896,-29.4662 -44.91353,-53.77107 -51.29883,-53.83007 z" /><g
       id="g65"
       transform="rotate(6.9756641,933.28112,616.5888)"><path
         id="path36"
         style="fill:url(#linearGradient51);fill-opacity:0.598929;stroke-width:0.755906;stroke-linecap:round;stroke-linejoin:round"
         d="m 590.12163,439.24416 c 2.65906,0.41831 6.33287,0.7236 8.51863,2.5988 2.18579,1.8752 2.0819,4.15823 0.32817,8.99747 -1.7537,4.83925 -5.15662,12.23371 -10.92607,19.70291 -5.76943,7.4691 -13.10395,16.17369 -21.11365,25.38439 -8.00967,9.21051 -16.69395,18.92646 -22.47214,24.81529 -9.61487,9.65334 -21.93842,18.00714 -35.13279,24.96912 -0.0996,0.14267 -0.16061,0.25699 -0.26302,0.40165 -1.0691,0.56083 -2.21961,0.90784 -3.30064,1.44749 -19.09617,9.65332 -29.68406,12.91487 -52.04382,13.20207 8.11597,-16.70173 15.94791,-28.72554 23.95825,-42.61333 2.87457,-1.57928 5.97203,-3.345 9.46087,-5.42583 l 0.002,3.3e-4 c 7.75627,-4.62598 17.43743,-10.80747 27.20109,-17.40916 l 0.002,3.3e-4 c 5.52793,-3.73773 11.08122,-7.61073 16.3264,-11.4132 33.50033,-24.28635 53.14685,-45.65047 59.45487,-44.65831 z" /><path
         style="fill:url(#linearGradient52);stroke-width:0.755906;stroke-linecap:round;stroke-linejoin:round"
         d="m 495.08039,426.02091 c -17.41694,4.2228 -37.22449,8.04682 -51.21368,10.13783 -13.98908,2.09093 -22.15905,2.44887 -33.00963,3.40431 -10.85057,0.95543 -24.38094,2.50839 -33.14905,3.50393 -8.76808,0.99545 -12.7734,1.43345 -15.39396,2.40957 -2.62049,0.97624 -3.85613,2.49061 -3.46774,4.583 0.3884,2.0924 2.40075,4.76279 6.12691,7.84188 24.85224,20.53723 87.56169,24.80731 128.8768,7.43769 7.5812,-3.25415 19.30491,-8.94557 30.2117,-14.42579 10.90679,-5.48023 20.99595,-10.74896 29.16906,-15.46862 8.17308,-4.71954 14.4296,-8.88967 17.88924,-12.7009 3.45963,-3.81121 4.12221,-7.26324 2.81201,-9.82791 -1.31022,-2.56466 -4.59311,-4.24172 -6.89429,-5.63819 -5.45892,-3.31296 -31.74498,8.99335 -71.95737,18.7432 z"
         id="path37" /><path
         id="path38"
         style="fill:url(#linearGradient53);fill-opacity:1;stroke-width:0.755906;stroke-linecap:round;stroke-linejoin:round"
         d="m 565.54013,406.79766 c 3.12387,4.28459 5.50166,9.06602 7.03308,14.14254 -0.4144,0.59065 -0.8982,1.1918 -1.45312,1.80311 -3.45964,3.81122 -9.71652,7.98139 -17.8896,12.70094 -8.1731,4.71964 -18.26176,9.98902 -29.16854,15.46924 -10.90679,5.48023 -22.63112,11.17178 -30.21232,14.42593 -0.48284,0.20298 -0.96794,0.40351 -1.45653,0.60061 -48.3928,11.75058 -13.19297,-23.31036 -11.70435,-36.62938 4.86366,-1.05077 9.71354,-2.15466 14.39134,-3.28881 37.32122,-9.04885 62.64719,-20.30167 70.46004,-19.22418 z" /><path
         id="path39"
         style="fill:url(#linearGradient54);fill-opacity:1;stroke-width:0.755906;stroke-linecap:round;stroke-linejoin:round"
         d="m 477.56988,429.97659 c -0.67395,1.0912 -1.64371,2.01608 -2.38437,2.81604 -1.79866,1.94279 -2.24748,3.15863 -1.26608,3.35301 0.98145,0.19409 3.39184,-0.63439 5.41949,-1.18708 2.02767,-0.55279 3.67226,-0.83105 2.32215,-0.10383 -1.35009,0.72712 -5.69487,2.46124 -8.3603,3.70645 -2.66543,1.24521 -3.65087,2.00151 -3.29723,2.45993 0.35367,0.45832 2.04695,0.61834 5.42964,0.41438 3.38267,-0.20394 8.45429,-0.77141 11.14455,-1.0601 2.69025,-0.2887 2.99941,-0.29919 1.56459,0.93612 -1.43483,1.23531 -4.61436,3.71679 -7.34461,5.90355 -2.73022,2.18668 -5.01124,4.07975 -5.75862,5.06108 -0.7474,0.98143 0.0386,1.05096 4.15356,0.69268 4.11503,-0.35827 11.55806,-1.14575 15.70188,-1.51788 4.1438,-0.37212 4.98859,-0.32928 2.56437,1.91076 -2.42425,2.24014 -8.11826,6.67795 -12.33719,11.73787 -1.26481,1.51702 -2.39592,3.09079 -3.69109,4.6436 -40.57081,11.99788 -93.98712,6.72699 -116.45687,-11.84145 -3.72616,-3.07909 -5.73919,-5.749 -6.12758,-7.84139 -0.3884,-2.09239 0.84676,-3.60756 3.46725,-4.5838 2.62058,-0.97621 6.62694,-1.41323 15.39503,-2.40868 8.76811,-0.99554 22.29864,-2.54948 33.14922,-3.50492 10.85057,-0.95543 19.02041,-1.31258 33.00948,-3.40351 9.42876,-1.40941 21.50113,-3.60749 33.70273,-6.18285 z" /><path
         style="fill:url(#linearGradient55);stroke-width:0.755906;stroke-linecap:round;stroke-linejoin:round"
         d="m 507.92961,456.50343 c -16.26898,7.5167 -34.96054,15.10538 -48.27967,19.86668 -13.31899,4.76134 -21.26488,6.69512 -31.72483,9.7344 -10.46006,3.03925 -23.43326,7.18386 -31.84237,9.85904 -8.40921,2.67516 -12.25381,3.88085 -14.63568,5.34611 -2.38169,1.46528 -3.30058,3.19042 -2.51416,5.16792 0.78632,1.97749 3.27783,4.20752 7.5299,6.50638 28.35994,15.33399 90.70871,7.37523 127.8764,-17.66878 6.80722,-4.66123 17.20632,-12.51581 26.84488,-20.00503 9.63858,-7.4893 18.51598,-14.61274 25.61998,-20.8262 7.10402,-6.21345 12.4342,-11.5166 15.09,-15.9258 2.6558,-4.40919 2.63711,-7.92415 0.85488,-10.18643 -1.78219,-2.26229 -5.32777,-3.27167 -7.85587,-4.19592 -5.9973,-2.19271 -29.4015,14.97261 -66.96346,32.32763 z"
         id="path40" /><path
         id="path41"
         style="fill:url(#linearGradient56);fill-opacity:1;stroke-width:0.755906;stroke-linecap:round;stroke-linejoin:round"
         d="m 477.56988,429.97659 c -0.67395,1.0912 -1.64371,2.01608 -2.38437,2.81604 -1.79866,1.94279 -2.24748,3.15863 -1.26608,3.35301 0.98145,0.19409 3.39184,-0.63439 5.41949,-1.18708 2.02767,-0.55279 3.67226,-0.83105 2.32215,-0.10383 -1.35009,0.72712 -5.69487,2.46124 -8.3603,3.70645 -2.66543,1.24521 -3.65087,2.00151 -3.29723,2.45993 0.35367,0.45832 2.04695,0.61834 5.42964,0.41438 3.38267,-0.20394 8.45429,-0.77141 11.14455,-1.0601 2.69025,-0.2887 2.99941,-0.29919 1.56459,0.93612 -1.43483,1.23531 -4.61436,3.71679 -7.34461,5.90355 -2.73022,2.18668 -5.01124,4.07975 -5.75862,5.06108 -0.7474,0.98143 0.0386,1.05096 4.15356,0.69268 4.11503,-0.35827 11.55806,-1.14575 15.70188,-1.51788 4.1438,-0.37212 4.98859,-0.32928 2.56437,1.91076 -2.42425,2.24014 -8.11826,6.67795 -12.33719,11.73787 -1.26481,1.51702 -2.39592,3.09079 -3.69109,4.6436 -40.57081,11.99788 -93.98712,6.72699 -116.45687,-11.84145 -3.72616,-3.07909 -5.73919,-5.749 -6.12758,-7.84139 -0.3884,-2.09239 0.84676,-3.60756 3.46725,-4.5838 2.62058,-0.97621 6.62694,-1.41323 15.39503,-2.40868 8.76811,-0.99554 22.29864,-2.54948 33.14922,-3.50492 10.85057,-0.95543 19.02041,-1.31258 33.00948,-3.40351 9.42876,-1.40941 21.50113,-3.60749 33.70273,-6.18285 z" /><path
         id="path42"
         style="mix-blend-mode:overlay;fill:url(#linearGradient57);fill-opacity:1;stroke-width:0.755906;stroke-linecap:round;stroke-linejoin:round"
         d="m 420.80705,438.74707 a 43.315319,43.315319 0 0 1 -0.37422,11.44594 43.315319,43.315319 0 0 1 -12.60199,24.00003 c -17.70262,-2.74126 -33.16083,-8.27855 -42.85705,-16.29128 -3.72616,-3.07909 -5.7392,-5.74896 -6.1276,-7.84134 -0.3884,-2.0924 0.84678,-3.60766 3.46727,-4.58389 2.62058,-0.97623 6.62693,-1.41315 15.39502,-2.40859 8.7681,-0.99554 22.29865,-2.54954 33.14923,-3.50498 3.50038,-0.30823 6.72157,-0.55389 9.94934,-0.81589 z" /><path
         id="path43"
         style="fill:#f3a3be;fill-opacity:1;stroke-width:0.755906;stroke-linecap:round;stroke-linejoin:round"
         d="m 506.57227,471.74805 a 31.15958,31.024616 9.467983 0 1 25.63211,35.72849 31.15958,31.024616 9.467983 0 1 -35.83925,25.47702 31.15958,31.024616 9.467983 0 1 -20.08531,-12.37686 c 11.6677,-20.39345 22.5269,-37.27967 30.29245,-48.82865 z" /><path
         style="fill:url(#linearGradient58);stroke-width:0.755906;stroke-linecap:round;stroke-linejoin:round"
         d="m 507.92961,456.50343 c -16.26898,7.5167 -34.96054,15.10538 -48.27967,19.86668 -13.31899,4.76134 -21.26488,6.69512 -31.72483,9.7344 -10.46006,3.03925 -23.43326,7.18386 -31.84237,9.85904 -8.40921,2.67516 -12.25381,3.88085 -14.63568,5.34611 -2.38169,1.46528 -3.30058,3.19042 -2.51416,5.16792 0.78632,1.97749 3.27783,4.20752 7.5299,6.50638 28.35994,15.33399 90.70871,7.37523 127.8764,-17.66878 6.80722,-4.66123 17.20632,-12.51581 26.84488,-20.00503 9.63858,-7.4893 18.51598,-14.61274 25.61998,-20.8262 7.10402,-6.21345 12.4342,-11.5166 15.09,-15.9258 2.6558,-4.40919 2.63711,-7.92415 0.85488,-10.18643 -1.78219,-2.26229 -5.32777,-3.27167 -7.85587,-4.19592 -5.9973,-2.19271 -29.4015,14.97261 -66.96346,32.32763 z"
         id="path44" /><path
         id="path45"
         style="fill:url(#linearGradient59);fill-opacity:1;stroke-width:0.755906;stroke-linecap:round;stroke-linejoin:round"
         d="m 481.7242,478.89471 c 0.72456,0.19422 0.90154,0.48787 0.60964,1.16495 -0.58381,1.35419 -3.04445,4.24286 -3.72456,5.35481 -0.6801,1.11196 0.41908,0.4468 1.19706,0.0764 0.77795,-0.36991 1.23356,-0.44476 -0.0182,1.21277 -1.25167,1.65753 -4.2092,5.04798 -3.83706,6.5756 0.37217,1.52753 4.07397,1.19302 8.31208,0.33474 4.2381,-0.85828 9.01196,-2.2413 12.01557,-3.02967 3.00358,-0.78825 4.23828,-0.98235 1.55959,2.66395 -2.67868,3.6463 -9.27021,11.13395 -12.65933,15.83054 -0.27698,0.38383 -0.53329,0.74887 -0.77137,1.09904 -34.91966,12.64706 -76.31585,14.49985 -97.94416,2.80559 -4.25214,-2.2988 -6.74393,-4.52953 -7.53024,-6.50695 -0.78649,-1.97758 0.13139,-3.7015 2.51302,-5.16675 2.38185,-1.46531 6.22641,-2.6719 14.63555,-5.34705 8.40913,-2.67513 21.38266,-6.81989 31.84272,-9.85916 10.45995,-3.03928 18.40583,-4.973 31.72481,-9.73426 0.0557,-0.0202 0.11246,-0.0392 0.16834,-0.0594 10.7746,0.72654 15.11934,1.58569 18.01177,2.01371 1.89709,0.28081 3.17026,0.37595 3.89478,0.57037 z" /><path
         id="path46"
         style="fill:url(#linearGradient60);fill-opacity:1;stroke-width:0.755906;stroke-linecap:round;stroke-linejoin:round"
         d="m 481.7242,478.89471 c 0.72456,0.19422 0.90154,0.48787 0.60964,1.16495 -0.58381,1.35419 -3.04445,4.24286 -3.72456,5.35481 -0.6801,1.11196 0.41908,0.4468 1.19706,0.0764 0.77795,-0.36991 1.23356,-0.44476 -0.0182,1.21277 -1.25167,1.65753 -4.2092,5.04798 -3.83706,6.5756 0.37217,1.52753 4.07397,1.19302 8.31208,0.33474 4.2381,-0.85828 9.01196,-2.2413 12.01557,-3.02967 3.00358,-0.78825 4.23828,-0.98235 1.55959,2.66395 -2.67868,3.6463 -9.27021,11.13395 -12.65933,15.83054 -0.27698,0.38383 -0.53329,0.74887 -0.77137,1.09904 -34.91966,12.64706 -76.31585,14.49985 -97.94416,2.80559 -4.25214,-2.2988 -6.74393,-4.52953 -7.53024,-6.50695 -0.78649,-1.97758 0.13139,-3.7015 2.51302,-5.16675 2.38185,-1.46531 6.22641,-2.6719 14.63555,-5.34705 8.40913,-2.67513 21.38266,-6.81989 31.84272,-9.85916 10.45995,-3.03928 18.40583,-4.973 31.72481,-9.73426 0.0557,-0.0202 0.11246,-0.0392 0.16834,-0.0594 10.7746,0.72654 15.11934,1.58569 18.01177,2.01371 1.89709,0.28081 3.17026,0.37595 3.89478,0.57037 z" /><path
         id="path47"
         style="fill:url(#linearGradient61);fill-opacity:1;stroke-width:0.755906;stroke-linecap:round;stroke-linejoin:round"
         d="m 422.65913,487.66142 a 33.044128,33.044128 0 0 1 13.95431,32.71967 c -19.83367,1.43819 -38.07362,-0.86754 -50.14993,-7.39713 -4.25218,-2.2988 -6.74397,-4.5296 -7.5303,-6.50704 -0.78641,-1.97756 0.13147,-3.70149 2.51305,-5.16675 2.38188,-1.46531 6.22652,-2.67184 14.63563,-5.34697 7.04343,-2.24069 17.28855,-5.51224 26.57724,-8.30178 z" /><path
         id="path48"
         style="fill:url(#linearGradient62);fill-opacity:1;stroke-width:0.755906;stroke-linecap:round;stroke-linejoin:round"
         d="m 545.80604,437.10099 a 47.840481,47.840481 0 0 1 17.22839,20.62672 c -6.37279,5.40121 -13.84951,11.36617 -21.8501,17.58275 -9.63856,7.48922 -20.03868,15.34365 -26.8459,20.00489 -8.73144,5.88335 -18.85185,10.82357 -29.59552,14.74066 a 47.840481,47.840481 0 0 1 -13.14655,-38.15697 c 11.39437,-4.42701 24.50473,-9.92955 36.33403,-15.395 14.93064,-6.89852 27.62295,-13.76834 37.87565,-19.40305 z" /><g
         id="g50"
         transform="matrix(-0.98637768,-0.16449644,-0.16449644,0.98637768,1483.5799,146.91399)"><path
           style="fill:url(#linearGradient63);stroke-width:0.755906;stroke-linecap:round;stroke-linejoin:round"
           d="m 884.87529,485.5974 c 12.58187,12.7624 27.40594,26.4448 38.19664,35.5897 10.79058,9.1449 17.54723,13.7519 26.26791,20.2786 8.72079,6.5267 19.40478,14.9727 26.33403,20.4366 6.92936,5.464 10.1035,7.9459 11.81717,10.1558 1.71347,2.2098 1.9663,4.148 0.53413,5.7222 -1.43207,1.5741 -4.54911,2.7844 -9.33824,3.4394 -31.94248,4.3699 -87.49941,-25.0264 -113.47281,-61.5507 -4.73078,-6.7591 -11.69951,-17.7715 -18.08498,-28.1741 -6.38546,-10.4028 -12.18724,-20.1952 -16.64943,-28.5116 -4.4622,-8.3165 -7.58453,-15.1565 -8.51831,-20.2183 -0.93379,-5.0618 0.32098,-8.3453 2.78546,-9.8354 2.46445,-1.4901 6.13842,-1.1869 8.83007,-1.1621 6.3853,0.059 22.2494,24.3637 51.29836,53.8299 z"
           id="path49" /><path
           id="path50"
           style="fill:url(#linearGradient64);fill-opacity:1;stroke-width:0.755906;stroke-linecap:round;stroke-linejoin:round"
           d="m 896.96289,1579.1211 c -0.21003,0.013 -0.31532,0.076 -0.35742,0.1816 -0.18183,0.4546 0.78775,1.6679 2.12109,3.7891 1.33334,2.1212 3.03161,5.1499 3.66797,6.6953 0.63637,1.5455 0.21137,1.6072 -2.21289,-0.2109 -2.42426,-1.8182 -6.84802,-5.5146 -9.42383,-7.545 -2.57581,-2.0303 -3.3026,-2.3941 -3.42383,-1.7578 -0.12122,0.6364 0.36386,2.2718 1.75782,4.9082 1.39395,2.6364 3.69589,6.2732 5.08984,8.5762 1.39396,2.3031 1.87933,3.2733 0.45508,2.4551 -1.42425,-0.8182 -4.75719,-3.4259 -8.36328,-6.3047 -3.60609,-2.8788 -7.4858,-6.0284 -9.97071,-7.877 -2.4849,-1.8485 -3.57614,-2.3953 -3.57617,-1.5468 -2e-5,0.8484 1.09232,3.0906 3.54688,7.2422 2.45456,4.1515 6.27186,10.2123 8.84765,14.6972 2.5758,4.4849 3.90844,7.3948 5.31641,12.5332 0.99056,3.6151 2.01926,8.3335 5.51562,15.5586 27.11429,20.5421 60.59598,33.7318 82.73438,30.7032 4.78913,-0.655 7.90582,-1.8634 9.33789,-3.4376 1.43217,-1.5742 1.17831,-3.5128 -0.53516,-5.7226 -1.71367,-2.2099 -4.88704,-4.6923 -11.8164,-10.1563 -6.92925,-5.4639 -17.6132,-13.9108 -26.33399,-20.4375 -8.72068,-6.5267 -15.47699,-11.1324 -26.26757,-20.2773 -6.88989,-5.839 -15.42375,-13.5283 -23.96875,-21.6465 -1.1457,-0.319 -1.79058,-0.4412 -2.14063,-0.4199 z"
           transform="translate(0,-1080)" /></g><path
         id="path51"
         style="fill:url(#linearGradient65);fill-opacity:1;stroke-width:0.755906;stroke-linecap:round;stroke-linejoin:round"
         d="m 590.3339,435.67975 c 2.65907,0.41831 6.33288,0.72359 8.51864,2.59878 2.18579,1.87521 2.88294,5.32086 1.12923,10.16011 -1.75371,4.83924 -5.9577,11.07109 -11.72714,18.54029 -5.76943,7.46909 -13.10396,16.17368 -21.11365,25.38438 -8.00968,9.21051 -16.69394,18.92646 -22.47213,24.81529 -0.17038,0.17106 -0.34117,0.34205 -0.51317,0.51241 a 62.362701,62.362701 0 0 1 -23.52566,-30.09826 c 3.48385,-2.41199 6.92776,-4.84697 10.24901,-7.25469 33.50033,-24.28636 53.14686,-45.65047 59.45487,-44.65831 z" /></g><path
       id="path67"
       style="display:inline;fill:url(#linearGradient68);fill-opacity:1;stroke-width:0.755906;stroke-linecap:round;stroke-linejoin:round"
       d="M 971.56836,648.26367 C 924.36274,779.88377 805.7783,899.6465 520.69141,854.73828 c -15.75787,-2.48225 -31.46758,-5.03309 -47.01563,-7.82812 21.85804,25.54254 50.82727,43.3685 82.43164,55.68359 100.03462,38.9799 246.57381,31.50609 323.44727,-6.45313 13.79944,-6.81398 26.99902,-15.38583 37.71289,-23.91406 10.71387,-8.52822 18.94102,-17.01309 26.18359,-27.12695 7.24257,-10.11385 13.49913,-21.85551 18.3418,-33.68359 4.84268,-11.82809 8.27103,-23.74071 11.05664,-36.46875 2.78561,-12.72804 4.92908,-26.27081 5.44336,-42.98438 0.51428,-16.71357 -0.60093,-36.59721 -2.57227,-54.89648 -1.03494,-9.60706 -2.44568,-19.2378 -4.15234,-28.80274 z" /><g
       id="g99"
       transform="matrix(-1.0881013,0,0,1.0881013,1490.6657,-50.608963)"><path
         style="mix-blend-mode:multiply;fill:#f5b2c9;fill-opacity:0.356682;stroke-width:0.777266;stroke-linecap:round;stroke-linejoin:round"
         d="m 809.971,587.67338 c -8.50363,-9.56415 -22.60655,-23.84087 -32.66538,-35.09106 -10.05882,-11.2501 -16.07334,-19.47337 -23.2032,-26.51489 -7.12987,-7.04141 -13.36579,-21.56975 -18.07964,-20.89141 -4.71384,0.67844 -7.90535,16.56352 -7.63582,27.43636 0.13751,32.27739 25.46143,111.48001 57.86392,104.55708 6.36584,-1.42878 13.844,-3.09076 20.94856,-9.36101 7.10455,-6.27024 12.09418,-13.56883 13.13685,-19.64409 1.04268,-6.07524 -1.86166,-10.92683 -10.36529,-20.49098 z"
         id="path92" /><path
         style="fill:url(#linearGradient105);stroke-width:0.826907;stroke-linecap:round;stroke-linejoin:round"
         d="m 815.41666,583.71925 c -9.04674,-10.17498 -24.05035,-25.36349 -34.7516,-37.33219 -10.70123,-11.96859 -17.09987,-20.71706 -24.68509,-28.20828 -7.58522,-7.49112 -16.35649,-13.72448 -21.3714,-13.00282 -5.0149,0.72176 -6.27316,8.39852 -5.98641,19.96576 0.28674,11.56713 2.11844,27.02409 5.80988,39.89406 3.69145,12.87008 9.24239,23.15253 14.52842,33.09418 5.28601,9.94165 10.30683,19.54197 14.44992,25.90209 4.14311,6.36024 7.40824,9.47997 10.90922,12.30809 3.50097,2.82822 14.00985,3.84439 14.00985,3.84439 0,0 16.58033,-7.09623 24.13864,-13.76694 7.55829,-6.6707 12.86658,-14.43543 13.97585,-20.89868 1.10926,-6.46325 -1.98056,-11.62469 -11.02728,-21.79966 z"
         id="path94" /><path
         id="path95"
         style="fill:url(#linearGradient107);fill-opacity:1;stroke-width:0.826907;stroke-linecap:round;stroke-linejoin:round"
         d="m 735.59185,505.12149 c -0.34155,-0.008 -0.66938,0.0106 -0.98277,0.0561 -5.0149,0.72177 -6.27345,8.39691 -5.9867,19.96415 0.25623,10.33673 1.74568,23.77928 4.69406,35.70658 a 66.945015,66.945015 0 0 0 37.99266,-25.29286 c -5.68177,-6.75431 -10.23884,-12.34876 -15.32996,-17.37678 -7.11114,-7.02292 -15.26366,-12.93901 -20.38723,-13.05661 z" /><path
         id="path96"
         style="fill:url(#linearGradient108);fill-opacity:1;stroke-width:0.755906;stroke-linecap:round;stroke-linejoin:round"
         d="m 735.50195,505.11914 a 61.1777,61.1777 0 0 0 -6.35156,8.26758 c -0.51286,3.17569 -0.6413,7.15897 -0.52734,11.75586 0.28674,11.56713 2.11715,27.02261 5.80859,39.89258 3.69145,12.87008 9.24327,23.15405 14.5293,33.0957 0.15071,0.28346 0.3009,0.56482 0.45117,0.84766 a 61.1777,61.1777 0 0 0 31.25195,8.58593 61.1777,61.1777 0 0 0 41.24414,-15.99218 c -1.67652,-2.28974 -3.82555,-4.85432 -6.49218,-7.85352 -9.04674,-10.17498 -24.04875,-25.36333 -34.75,-37.33203 -10.70123,-11.96859 -17.10033,-20.71581 -24.68555,-28.20703 -7.15268,-7.06395 -15.36076,-13.01055 -20.47852,-13.06055 z" /><path
         id="path97"
         style="fill:url(#linearGradient109);fill-opacity:1;stroke-width:0.755906;stroke-linecap:round;stroke-linejoin:round"
         d="m 735.50195,505.11914 a 61.1777,61.1777 0 0 0 -6.35156,8.26758 c -0.51286,3.17569 -0.6413,7.15897 -0.52734,11.75586 0.28674,11.56713 2.11715,27.02261 5.80859,39.89258 3.69145,12.87008 9.24327,23.15405 14.5293,33.0957 0.15071,0.28346 0.3009,0.56482 0.45117,0.84766 a 61.1777,61.1777 0 0 0 31.25195,8.58593 61.1777,61.1777 0 0 0 41.24414,-15.99218 c -1.67652,-2.28974 -3.82555,-4.85432 -6.49218,-7.85352 -9.04674,-10.17498 -24.04875,-25.36333 -34.75,-37.33203 -10.70123,-11.96859 -17.10033,-20.71581 -24.68555,-28.20703 -7.15268,-7.06395 -15.36076,-13.01055 -20.47852,-13.06055 z" /><path
         id="path99"
         style="fill:url(#linearGradient110);fill-opacity:1;stroke-width:0.755906;stroke-linecap:round;stroke-linejoin:round"
         d="m 429.66026,783.5152 c -1.18515,2.07186 -2.37996,4.47135 -3.59457,7.13915 -4.79447,10.53061 -9.89869,25.2333 -12.19948,38.42304 -2.30083,13.18985 -1.79855,24.86591 -1.38585,36.11794 0.0118,0.32082 0.024,0.63952 0.0356,0.95959 a 61.1777,61.1777 0 0 0 24.36287,21.37413 61.1777,61.1777 0 0 0 1.86543,0.8667 49.148586,79.524078 0 0 0 8.29226,-44.20666 49.148586,79.524078 0 0 0 -17.37627,-60.67389 z"
         transform="rotate(-25.899248)" /></g><path
       id="path16"
       style="fill:#f1f1ef;fill-opacity:1;stroke-width:0.98071;stroke-linecap:round;stroke-linejoin:round"
       d="m 780.3457,744.98184 c -4.52678,62.40483 -47.62239,109.18385 -93.78009,105.24007 -143.8053,-12.28692 -95.7092,-237.02906 16.70721,-227.42403 46.15768,3.94376 81.59961,59.77922 77.07288,122.18396 z" /><path
       id="path19"
       style="fill:url(#linearGradient27);fill-opacity:1;stroke-width:0.755906;stroke-linecap:round;stroke-linejoin:round"
       d="m 685.73828,666.67383 a 95.319237,95.319237 0 0 0 -85.41601,53.01172 c -11.90171,58.95633 10.67601,124.08046 86.24414,130.53711 45.33689,3.87365 87.71938,-41.18742 93.50195,-101.92578 a 95.319237,95.319237 0 0 0 -94.33008,-81.62305 z" /><path
       id="path33"
       style="fill:url(#linearGradient37);fill-opacity:1;stroke-width:0.919503;stroke-linecap:round;stroke-linejoin:round"
       d="m 666.98828,628.20117 c -44.7156,18.0639 -72.19853,75.90764 -69.47266,128.0918 a 75.02565,75.02565 0 0 0 19,2.44531 75.02565,75.02565 0 0 0 75.0254,-75.02734 75.02565,75.02565 0 0 0 -24.55274,-55.50977 z" /><path
       style="fill:#f89bab;fill-opacity:1;stroke-width:0.755906;stroke-linecap:round;stroke-linejoin:round"
       d="m 598.512,741.4107 c -0.20898,-1.5319 0.27587,-3.8349 0.0334,-5.1077 -0.24243,-1.2727 -1.21211,-1.5151 -2.30303,-0.7272 -1.09092,0.7879 -2.303,2.606 -3.03029,9.2122 -8.40456,76.34201 57.55002,143.96177 131.93833,112.03014 28.76577,-12.34789 51.72384,-39.43314 58.12227,-78.09094 1.45453,-8.7879 0.72728,-13.7575 -0.54545,-16.8484 -1.27273,-3.0909 -3.09088,-4.303 -3.87877,-3.8182 -2.03444,1.25208 -2.72251,1.3442 -6.18192,8.7273 -1.46241,3.1211 -111.11807,21.72341 -171.49867,-22.0399 -1.50959,-1.09413 -2.44693,-1.8054 -2.65591,-3.3373 z"
       id="path88" /><path
       id="path91"
       style="fill:url(#linearGradient93);fill-opacity:1;stroke-width:0.755906;stroke-linecap:round;stroke-linejoin:round"
       d="m 779.18945,757.95898 c -0.1276,0.007 -0.24331,0.041 -0.34179,0.10157 -1.86476,1.14765 1.17885,6.01844 -4.42578,8.20312 a 6.9697237,6.9697237 0 0 0 4.92578,2.03906 6.9697237,6.9697237 0 0 0 4.54101,-1.68164 c -0.22962,-1.96523 -0.65237,-3.50426 -1.16211,-4.74218 -1.11364,-2.70454 -2.64388,-3.97044 -3.53711,-3.91993 z" /><path
       id="path93"
       style="fill:url(#linearGradient95);fill-opacity:1;stroke-width:0.755906;stroke-linecap:round;stroke-linejoin:round"
       d="m 597.38672,735.125 c -0.34304,0.006 -0.73544,0.15571 -1.14453,0.45117 -0.79228,0.57221 -1.64796,1.68673 -2.33594,4.78516 a 4.0497932,4.0497932 0 0 0 1.60547,0.33203 4.0497932,4.0497932 0 0 0 2.98828,-1.31445 c 0.0707,-1.13613 0.19309,-2.2984 0.0449,-3.07618 -0.15152,-0.79543 -0.58647,-1.18721 -1.1582,-1.17773 z" /><path
       id="path98"
       style="fill:url(#linearGradient100);fill-opacity:1;stroke-width:1.01058;stroke-linecap:round;stroke-linejoin:round"
       d="m 672.36328,773.79297 a 88.479141,88.479141 0 0 0 -69.16797,33.30469 c 20.79662,45.00412 69.25965,72.34053 121.95508,49.7207 11.62851,-4.99161 22.30804,-12.39103 31.32813,-21.99024 a 88.479141,88.479141 0 0 0 -84.11524,-61.03515 z" /><path
       id="path100"
       style="fill:url(#linearGradient102);fill-opacity:1;stroke-width:0.831345;stroke-linecap:round;stroke-linejoin:round"
       d="m 597.38672,735.125 c -0.34304,0.006 -0.73544,0.15571 -1.14453,0.45117 -1.09092,0.7879 -2.30201,2.60474 -3.0293,9.21094 -1.86963,16.98258 -0.061,33.53485 4.70313,48.6543 a 80.019135,59.81818 0 0 0 54.75195,16.19531 80.019135,59.81818 0 0 0 73.70898,-36.53516 c -37.53636,1.52012 -89.83048,-2.7115 -125.20898,-28.35351 -1.50959,-1.09413 -2.44727,-1.80599 -2.65625,-3.33789 -0.20898,-1.5319 0.27567,-3.83463 0.0332,-5.10743 -0.15152,-0.79543 -0.58647,-1.18721 -1.1582,-1.17773 z" /><path
       id="path102"
       style="fill:url(#linearGradient104);fill-opacity:1;stroke-width:0.755906;stroke-linecap:round;stroke-linejoin:round"
       d="m 779.18945,757.95898 c -0.1276,0.007 -0.24331,0.041 -0.34179,0.10157 -2.03444,1.25208 -2.72223,1.34346 -6.18164,8.72656 -1.00621,2.14746 -53.23115,11.62369 -105.38477,3.07227 A 94.062431,58.133778 0 0 0 756,808.67969 a 94.062431,58.133778 0 0 0 18.64453,-1.1543 c 3.94832,-8.70887 6.89609,-18.32956 8.62891,-28.79883 1.45453,-8.7879 0.72585,-13.75675 -0.54688,-16.84765 -1.11364,-2.70454 -2.64388,-3.97044 -3.53711,-3.91993 z" /><path
       id="path28"
       style="fill:url(#linearGradient33);fill-opacity:1;stroke-width:0.869227;stroke-linecap:round;stroke-linejoin:round"
       d="m 691.38672,622.65039 c -27.12472,1.68658 -49.87291,17.23897 -66.19922,39.50195 a 83.173904,83.173904 0 0 0 79.61328,59.09961 83.173904,83.173904 0 0 0 67.77734,-34.96289 c -12.60007,-35.24597 -38.57816,-60.86493 -69.30468,-63.49023 -4.04769,-0.34584 -8.01176,-0.38938 -11.88672,-0.14844 z" /><path
       id="path52"
       style="fill:url(#linearGradient71);fill-opacity:1;stroke-width:0.779442;stroke-linecap:round;stroke-linejoin:round"
       d="m 732.8418,633.06055 a 68.595062,68.595062 0 0 0 -41.30078,62.93164 68.595062,68.595062 0 0 0 68.5957,68.5957 68.595062,68.595062 0 0 0 17.92578,-2.38477 c 1.08442,-5.58164 1.85599,-11.3312 2.2832,-17.2207 3.49404,-48.16816 -16.82528,-92.42344 -47.5039,-111.92187 z" /><g
       id="g76"
       transform="matrix(1.088101,0,0,1.088101,-68.499891,-50.451193)"><path
         style="mix-blend-mode:multiply;fill:#f5b2c9;fill-opacity:0.356682;stroke-width:0.777266;stroke-linecap:round;stroke-linejoin:round"
         d="m 809.971,587.67338 c -8.50363,-9.56415 -22.60655,-23.84087 -32.66538,-35.09106 -10.05882,-11.2501 -16.07334,-19.47337 -23.2032,-26.51489 -7.12987,-7.04141 -13.36579,-21.56975 -18.07964,-20.89141 -4.71384,0.67844 -7.90535,16.56352 -7.63582,27.43636 0.13751,32.27739 25.46143,111.48001 57.86392,104.55708 6.36584,-1.42878 13.844,-3.09076 20.94856,-9.36101 7.10455,-6.27024 12.09418,-13.56883 13.13685,-19.64409 1.04268,-6.07524 -1.86166,-10.92683 -10.36529,-20.49098 z"
         id="path70" /><path
         style="fill:url(#linearGradient70);stroke-width:0.826907;stroke-linecap:round;stroke-linejoin:round"
         d="m 815.41666,583.71925 c -9.04674,-10.17498 -24.05035,-25.36349 -34.7516,-37.33219 -10.70123,-11.96859 -17.09987,-20.71706 -24.68509,-28.20828 -7.58522,-7.49112 -16.35649,-13.72448 -21.3714,-13.00282 -5.0149,0.72176 -6.27316,8.39852 -5.98641,19.96576 0.28674,11.56713 2.11844,27.02409 5.80988,39.89406 3.69145,12.87008 9.24239,23.15253 14.52842,33.09418 5.28601,9.94165 10.30683,19.54197 14.44992,25.90209 4.14311,6.36024 7.40824,9.47997 10.90922,12.30809 3.50097,2.82822 14.00985,3.84439 14.00985,3.84439 0,0 16.58033,-7.09623 24.13864,-13.76694 7.55829,-6.6707 12.86658,-14.43543 13.97585,-20.89868 1.10926,-6.46325 -1.98056,-11.62469 -11.02728,-21.79966 z"
         id="path68" /><path
         id="path72"
         style="fill:url(#linearGradient73);fill-opacity:1;stroke-width:0.826907;stroke-linecap:round;stroke-linejoin:round"
         d="m 735.59185,505.12149 c -0.34155,-0.008 -0.66938,0.0106 -0.98277,0.0561 -5.0149,0.72177 -6.27345,8.39691 -5.9867,19.96415 0.25623,10.33673 1.74568,23.77928 4.69406,35.70658 a 66.945015,66.945015 0 0 0 37.99266,-25.29286 c -5.68177,-6.75431 -10.23884,-12.34876 -15.32996,-17.37678 -7.11114,-7.02292 -15.26366,-12.93901 -20.38723,-13.05661 z" /><path
         id="path76"
         style="fill:url(#linearGradient74);fill-opacity:1;stroke-width:0.755906;stroke-linecap:round;stroke-linejoin:round"
         d="m 735.50195,505.11914 a 61.1777,61.1777 0 0 0 -6.35156,8.26758 c -0.51286,3.17569 -0.6413,7.15897 -0.52734,11.75586 0.28674,11.56713 2.11715,27.02261 5.80859,39.89258 3.69145,12.87008 9.24327,23.15405 14.5293,33.0957 0.15071,0.28346 0.3009,0.56482 0.45117,0.84766 a 61.1777,61.1777 0 0 0 31.25195,8.58593 61.1777,61.1777 0 0 0 41.24414,-15.99218 c -1.67652,-2.28974 -3.82555,-4.85432 -6.49218,-7.85352 -9.04674,-10.17498 -24.04875,-25.36333 -34.75,-37.33203 -10.70123,-11.96859 -17.10033,-20.71581 -24.68555,-28.20703 -7.15268,-7.06395 -15.36076,-13.01055 -20.47852,-13.06055 z" /><path
         id="path73"
         style="fill:url(#linearGradient78);fill-opacity:1;stroke-width:0.755906;stroke-linecap:round;stroke-linejoin:round"
         d="m 735.50195,505.11914 a 61.1777,61.1777 0 0 0 -6.35156,8.26758 c -0.51286,3.17569 -0.6413,7.15897 -0.52734,11.75586 0.28674,11.56713 2.11715,27.02261 5.80859,39.89258 3.69145,12.87008 9.24327,23.15405 14.5293,33.0957 0.15071,0.28346 0.3009,0.56482 0.45117,0.84766 a 61.1777,61.1777 0 0 0 31.25195,8.58593 61.1777,61.1777 0 0 0 41.24414,-15.99218 c -1.67652,-2.28974 -3.82555,-4.85432 -6.49218,-7.85352 -9.04674,-10.17498 -24.04875,-25.36333 -34.75,-37.33203 -10.70123,-11.96859 -17.10033,-20.71581 -24.68555,-28.20703 -7.15268,-7.06395 -15.36076,-13.01055 -20.47852,-13.06055 z" /><path
         id="path71"
         style="fill:url(#linearGradient76);fill-opacity:1;stroke-width:0.755906;stroke-linecap:round;stroke-linejoin:round"
         d="m 429.66026,783.5152 c -1.18515,2.07186 -2.37996,4.47135 -3.59457,7.13915 -4.79447,10.53061 -9.89869,25.2333 -12.19948,38.42304 -2.30083,13.18985 -1.79855,24.86591 -1.38585,36.11794 0.0118,0.32082 0.024,0.63952 0.0356,0.95959 a 61.1777,61.1777 0 0 0 24.36287,21.37413 61.1777,61.1777 0 0 0 1.86543,0.8667 49.148586,79.524078 0 0 0 8.29226,-44.20666 49.148586,79.524078 0 0 0 -17.37627,-60.67389 z"
         transform="rotate(-25.899248)" /></g><g
       id="g126"
       transform="rotate(-2.1896804,-27515.459,1226.5385)"><path
         id="path117"
         style="display:inline;fill:url(#linearGradient120);fill-opacity:1;stroke-width:0.755906;stroke-linecap:round;stroke-linejoin:round"
         d="m 768.46289,1516.166 c -0.68516,0.027 -1.11634,0.7621 -1.50977,2.709 -0.41961,2.0767 -0.79831,5.5315 -0.44531,9.3203 2.76813,29.7105 36.47993,29.7103 39.24805,0 0.353,-3.7888 -0.0257,-7.2436 -0.44531,-9.3203 -0.39343,-1.9469 -0.82461,-2.6816 -1.50977,-2.709 -0.0457,0 -0.0906,-4e-4 -0.13867,0 -11.51813,5.3061 -23.47617,4.2043 -35.06055,0 -0.0481,-4e-4 -0.093,0 -0.13867,0 z"
         transform="matrix(1.1157372,0.15288193,-0.18055609,0.94472618,129.02881,-50.628945)" /><path
         id="path118"
         style="fill:#e38784;fill-opacity:1;stroke-width:0.755906;stroke-linecap:round;stroke-linejoin:round"
         d="m 729.73633,1508.8438 a 19.792084,19.792084 0 0 0 -19.10352,14.623 c 7.16872,14.1648 28.48842,15.3469 38.21485,0.02 a 19.792084,19.792084 0 0 0 -19.11133,-14.6425 z" /><path
         id="path120"
         style="fill:url(#linearGradient122);fill-opacity:1;stroke-width:0.810406;stroke-linecap:round;stroke-linejoin:round"
         d="m 729.73633,1508.8438 a 19.792084,19.792084 0 0 0 -15.95899,8.0878 16.014168,13.932671 0 0 0 15.03321,9.1329 16.014168,13.932671 0 0 0 15.58398,-10.7286 19.792084,19.792084 0 0 0 -14.6582,-6.4921 z" /><path
         id="path122"
         style="fill:url(#linearGradient124);fill-opacity:1;stroke-width:0.755906;stroke-linecap:round;stroke-linejoin:round"
         d="m 751.95117,1504.5977 c -3.03034,0.7136 -6.02733,1.1326 -8.99023,1.291 a 9.0837259,9.0837259 0 0 0 8.99023,7.7929 9.0837259,9.0837259 0 0 0 0.82813,-0.037 c 0.49827,-2.4963 0.59093,-4.7248 0.52148,-6.2343 -0.0874,-1.8995 -0.4358,-2.6604 -1.19531,-2.7911 -0.051,-0.01 -0.10059,-0.014 -0.1543,-0.021 z" /><path
         id="path122-9"
         style="fill:url(#linearGradient126);fill-opacity:1;stroke-width:0.755906;stroke-linecap:round;stroke-linejoin:round"
         d="m 712.53516,1499.2109 c -0.70425,0.01 -1.29017,0.6661 -2.03125,2.334 -0.7092,1.5963 -1.5605,4.1178 -1.98633,7.041 a 9.0837259,9.0837259 0 0 0 2.14648,0.2579 9.0837259,9.0837259 0 0 0 8.79492,-6.8165 c -2.23887,-0.8252 -4.44697,-1.7609 -6.625,-2.789 -0.0536,-0.01 -0.10529,-0.014 -0.15625,-0.022 -0.0481,0 -0.0956,-0.01 -0.14257,-0.01 z" /></g><g
       id="g127"
       transform="translate(-9.531924,-959.36014)"><path
         style="fill:#49473e;fill-opacity:1;stroke-width:0.754714"
         d="m 696.33164,1341.1893 c -10.89425,-1.6101 -18.21411,7.0415 -17.90142,8.5312 1.08404,5.1638 8.93925,-8.9959 21.90964,-0.333 3.9678,2.6499 6.22093,2.8889 6.57344,0.6977 0.28245,-1.7558 -1.42244,-4.3311 -4.30496,-6.5019 -1.64733,-1.2406 -3.89022,-2.0412 -6.27672,-2.3938 z"
         id="path111" /><path
         style="fill:#49473e;fill-opacity:1;stroke-width:0.754714"
         d="m 779.9138,1350.6866 c 10.92469,1.3887 15.63915,11.6942 14.93618,13.0443 -2.43693,4.6799 -6.18094,-11.0739 -21.00745,-6.2314 -4.53557,1.4812 -6.76965,1.1036 -6.51795,-1.1015 0.20169,-1.7669 2.53814,-3.7868 5.8994,-5.0994 1.92094,-0.7502 4.29665,-0.9161 6.68979,-0.6118 z"
         id="path115" /></g><path
       style="fill:#49473e;fill-opacity:1;stroke-width:1.05515"
       d="m 706.42901,459.00527 c 1.1808,1.17428 5.34461,2.28617 9.42293,2.91844 4.07831,0.63225 8.07117,0.78489 8.91009,0.0406 0.9039,-0.65267 -3.94258,-0.76807 -8.98006,-1.57168 -5.03748,-0.80359 -10.26596,-2.29538 -9.35295,-1.38739 z"
       id="path114" /></g></svg>
