<svg xmlns="http://www.w3.org/2000/svg" xmlns:xlink="http://www.w3.org/1999/xlink" xml:space="preserve" width="3000" height="3600"><defs><linearGradient id="o"><stop offset="0" style="stop-color:#f9f0c1;stop-opacity:.72808242"/><stop offset="1" style="stop-color:#f9f0c1;stop-opacity:0"/></linearGradient><linearGradient id="n"><stop offset="0" style="stop-color:#f5e595;stop-opacity:.53333336"/><stop offset="1" style="stop-color:#f5e595;stop-opacity:0"/></linearGradient><linearGradient id="m"><stop offset="0" style="stop-color:#f7ecb0;stop-opacity:1"/><stop offset="1" style="stop-color:#f7ecb0;stop-opacity:0"/></linearGradient><linearGradient id="l"><stop offset="0" style="stop-color:#f5e595;stop-opacity:.53333336"/><stop offset="1" style="stop-color:#f5e595;stop-opacity:0"/></linearGradient><linearGradient id="k"><stop offset="0" style="stop-color:#f5e595;stop-opacity:.53333336"/><stop offset="1" style="stop-color:#f5e595;stop-opacity:0"/></linearGradient><linearGradient id="j"><stop offset="0" style="stop-color:#f5e595;stop-opacity:.53305084"/><stop offset="1" style="stop-color:#f5e595;stop-opacity:0"/></linearGradient><linearGradient id="i"><stop offset="0" style="stop-color:#ebbec6;stop-opacity:1"/><stop offset="1" style="stop-color:#e09aa5;stop-opacity:1"/></linearGradient><linearGradient id="h"><stop offset="0" style="stop-color:#9e4b3f;stop-opacity:1"/><stop offset="1" style="stop-color:#bc6458;stop-opacity:1"/></linearGradient><linearGradient id="g"><stop offset="0" style="stop-color:#feacb7;stop-opacity:.77894425"/><stop offset="1" style="stop-color:#b4031b;stop-opacity:0"/></linearGradient><linearGradient id="f"><stop offset="0" style="stop-color:#1c1d16;stop-opacity:1"/><stop offset="1" style="stop-color:#161712;stop-opacity:1"/></linearGradient><linearGradient id="e"><stop offset="0" style="stop-color:#f2f2f5;stop-opacity:1"/><stop offset="1" style="stop-color:#c5c1d0;stop-opacity:1"/></linearGradient><linearGradient id="d"><stop offset="0" style="stop-color:#60605a;stop-opacity:.39696375"/><stop offset="1" style="stop-color:#60605a;stop-opacity:0"/></linearGradient><linearGradient id="c"><stop offset="0" style="stop-color:#a8a8a2;stop-opacity:1"/><stop offset="1" style="stop-color:#1f1f1d;stop-opacity:0"/></linearGradient><linearGradient id="b"><stop offset="0" style="stop-color:#f5e595;stop-opacity:1"/><stop offset=".5" style="stop-color:#f5e595;stop-opacity:1"/><stop offset="1" style="stop-color:#faf3ce;stop-opacity:1"/></linearGradient><linearGradient id="a"><stop offset="0" style="stop-color:#e1c353;stop-opacity:1"/><stop offset="1" style="stop-color:#e1c353;stop-opacity:0"/></linearGradient><linearGradient xlink:href="#a" id="t" x1="1081.787" x2="1070.512" y1="474.396" y2="487.975" gradientUnits="userSpaceOnUse"/><linearGradient xlink:href="#a" id="u" x1="1081.787" x2="1070.512" y1="474.396" y2="487.975" gradientTransform="matrix(-1 0 0 1 1600 0)" gradientUnits="userSpaceOnUse"/><linearGradient xlink:href="#b" id="q" x1="1073.057" x2="1248.255" y1="483.106" y2="232.052" gradientUnits="userSpaceOnUse"/><linearGradient xlink:href="#c" id="w" x1="1266.648" x2="1238.255" y1="135.967" y2="177.747" gradientUnits="userSpaceOnUse"/><linearGradient xlink:href="#d" id="v" x1="1268.398" x2="1238.697" y1="130.217" y2="178.757" gradientUnits="userSpaceOnUse"/><linearGradient xlink:href="#d" id="x" x1="1268.398" x2="1238.697" y1="130.217" y2="178.757" gradientUnits="userSpaceOnUse"/><linearGradient xlink:href="#c" id="y" x1="1266.648" x2="1238.255" y1="135.967" y2="177.747" gradientUnits="userSpaceOnUse"/><linearGradient xlink:href="#b" id="p" x1="1073.057" x2="1248.255" y1="483.106" y2="232.052" gradientTransform="matrix(-1 0 0 1 1600 0)" gradientUnits="userSpaceOnUse"/><linearGradient xlink:href="#e" id="A" x1="665.832" x2="641.718" y1="609.577" y2="641.122" gradientUnits="userSpaceOnUse"/><linearGradient xlink:href="#f" id="z" x1="667.657" x2="599.045" y1="598.412" y2="693.525" gradientUnits="userSpaceOnUse"/><linearGradient xlink:href="#g" id="C" x1="986.06" x2="1021.913" y1="743.168" y2="782.894" gradientUnits="userSpaceOnUse"/><linearGradient xlink:href="#h" id="r" x1="798.393" x2="798.393" y1="735.189" y2="807.619" gradientUnits="userSpaceOnUse"/><linearGradient xlink:href="#i" id="s" x1="798.394" x2="798.394" y1="800" y2="915.696" gradientUnits="userSpaceOnUse"/><linearGradient xlink:href="#j" id="D" x1="800" x2="800" y1="392.373" y2="441.6" gradientUnits="userSpaceOnUse"/><linearGradient xlink:href="#k" id="E" x1="800" x2="800" y1="1483.48" y2="1309.658" gradientUnits="userSpaceOnUse"/><linearGradient xlink:href="#g" id="F" x1="986.06" x2="1021.913" y1="743.168" y2="782.894" gradientUnits="userSpaceOnUse"/><linearGradient xlink:href="#g" id="G" x1="986.06" x2="1021.913" y1="743.168" y2="782.894" gradientUnits="userSpaceOnUse"/><linearGradient xlink:href="#l" id="H" x1="1292.723" x2="1187.643" y1="710.635" y2="747.388" gradientUnits="userSpaceOnUse"/><linearGradient xlink:href="#l" id="I" x1="1292.723" x2="1187.643" y1="710.635" y2="747.388" gradientTransform="matrix(-1 0 0 1 1600 0)" gradientUnits="userSpaceOnUse"/><linearGradient xlink:href="#m" id="J" x1="923.268" x2="1026.92" y1="1177.131" y2="1093.404" gradientUnits="userSpaceOnUse"/><linearGradient xlink:href="#m" id="K" x1="923.268" x2="1026.92" y1="1177.131" y2="1093.404" gradientUnits="userSpaceOnUse"/><linearGradient xlink:href="#n" id="L" x1="1410.318" x2="1157.957" y1="1327.188" y2="1220.192" gradientUnits="userSpaceOnUse"/><linearGradient xlink:href="#n" id="M" x1="1410.318" x2="1157.957" y1="1327.188" y2="1220.192" gradientTransform="matrix(-1 0 0 1 1600 0)" gradientUnits="userSpaceOnUse"/><linearGradient xlink:href="#g" id="B" x1="986.06" x2="1021.913" y1="743.168" y2="782.894" gradientUnits="userSpaceOnUse"/><radialGradient xlink:href="#o" id="N" cx="800" cy="724.191" r="210" fx="800" fy="724.191" gradientTransform="translate(-80.75 -73.098)scale(1.10094)" gradientUnits="userSpaceOnUse"/></defs><rect width="3000" height="3600" ry=".019" style="fill:#f6e2df;fill-opacity:1;stroke:none;stroke-width:7.55906;stroke-linecap:round;stroke-linejoin:round;stroke-opacity:1"/><path d="M836.872 613.893c-5.922-.023-10.912 1.951-15.07 5.619q-1.04.916-2.012 1.972a31 31 0 0 0-1.873 2.246c-2.41 3.176-4.464 7.058-6.193 11.56-3.458 8.999-5.613 20.47-6.703 33.69-.545 6.611-.825 13.659-.867 21.055-.085 14.792.777 30.975 2.35 47.83 7.172 76.897 29.124 167.774 43.363 204.31 4.572 11.735 8.31 22.918 8.31 24.85a97 97 0 0 0 .615 10.8c10.683 96.122 156.935 257.998 177.399 294.519a796 796 0 0 0-10.063 12.316c-166.2 202.454-209.2 498.668-217.986 577.83-4.965 44.735-7.37 69.833-8.516 103.17-.082 2.403-.158 4.849-.228 7.348-.39 13.88-.59 29.403-.69 48.357h.002c-.068 13.175-.088 28.007-.088 45.098-1.024 56.842 1.21 111.652 7.872 164.756a1056.11 652.712 0 0 0-.598.338c.46 3.658 1.496 7.11 2.004 10.75a706 706 0 0 0 11.885 63.724c1.16 4.942 1.96 10.015 3.238 14.918 6.506 24.985 14.802 49.426 24.69 73.412l.001.01c6.71 16.276 13.91 32.425 22.395 48.227 1.196 2.227 2.653 4.391 3.887 6.61l.004.01c8.226 14.793 17.437 29.347 27.408 43.712 3.024 4.358 6.093 8.71 9.287 13.028.003 0 .007.01.01.014 12.038 16.27 24.843 32.364 39.426 48.058 7.456 7.463 15.42 14.675 23.775 21.682 2.772 2.325 5.825 4.497 8.691 6.771 0 0 .01 0 .01.01 5.134 4.073 10.139 8.215 15.567 12.127l.105-.125c133.41 96.175 353.884 143.802 573.522 142.703 217.504 1.088 435.987-45.522 569.77-139.828 1.31-.924 2.456-1.94 3.751-2.873l.106.123c5.391-3.885 10.36-8 15.46-12.045 2.62-2.077 5.481-4.023 8.022-6.142.281-.235.517-.492.797-.727 8.35-7.003 16.309-14.212 23.762-21.672l.01-.01c14.587-15.7 27.398-31.801 39.44-48.08 1.445-1.954 3.323-3.807 4.734-5.77 1.702-2.367 2.887-4.86 4.539-7.24 9.97-14.363 19.176-28.914 27.402-43.707.949-1.706 2.235-3.328 3.162-5.04.282-.52.457-1.068.737-1.588 8.485-15.804 15.685-31.952 22.394-48.229 9.23-22.391 17.323-45.1 23.59-68.361.446-1.656.663-3.386 1.096-5.045 1.278-4.908 2.08-9.985 3.24-14.93 3.275-13.954 6.733-27.845 9.138-42.096.508-3.008.69-6.14 1.163-9.162.641-4.109 1.005-8.325 1.582-12.459.507-3.636 1.543-7.083 2.002-10.738a1056.11 652.712 0 0 0-.598-.338c1.308-10.432 3.033-20.704 3.97-31.285 3.837-43.28 4.724-87.794 3.901-133.469 0-17.09-.019-31.923-.088-45.097-.099-18.976-.301-34.51-.691-48.403-.07-2.483-.145-4.914-.227-7.302-1.146-33.337-3.551-58.436-8.516-103.17-2.196-19.791-6.532-53.15-14.396-95.215-23.591-126.197-78.94-330.774-203.59-482.613a795 795 0 0 0-10.062-12.317c20.463-36.52 166.715-198.396 177.398-294.52.412-3.7.615-7.303.615-10.798 0-1.933 3.738-13.115 8.31-24.85 14.24-36.536 36.191-127.414 43.364-204.31 1.572-16.856 2.434-33.038 2.35-47.83-.042-7.397-.322-14.444-.867-21.055-1.091-13.221-3.246-24.692-6.704-33.692-1.729-4.5-3.783-8.383-6.193-11.558a31 31 0 0 0-1.873-2.246c-4.53-4.927-10.17-7.618-17.08-7.592-9.995.616-20 2.187-29.975 4.19-1.13.226-2.27.23-3.398.474-1.733.374-3.414 1.075-5.143 1.488a252 252 0 0 0-22.644 6.559c-1.691.576-3.437.871-5.12 1.482-.845.308-1.637.768-2.48 1.084-9.604 3.6-19.051 7.675-28.244 12.354-1.551.79-3.008 1.723-4.545 2.54a285 285 0 0 0-22.484 13.343v.002c-1.23.807-2.584 1.43-3.801 2.256-1.428.969-2.68 2.131-4.088 3.125-5.618 3.963-11.02 8.122-16.291 12.45-2.273 1.867-4.591 3.657-6.793 5.587-7.216 6.324-14.149 12.88-20.506 19.812a247 247 0 0 0-3.744 4.178c-170.935 185.9-208.74 367.968-223.39 399.91q-1.06-.564-2.122-1.125l.23.193c-11.597-6.136-23.34-11.967-35.278-17.376-87.37-39.589-183.744-59.747-287.666-61.233q-3.746.002-7.442.035a873 873 0 0 0-7.441-.035c-103.922 1.486-200.296 21.644-287.666 61.233-11.939 5.409-23.681 11.24-35.28 17.376l.23-.193q-1.06.56-2.12 1.125c-14.65-31.942-52.456-214.01-223.39-399.91a247 247 0 0 0-3.745-4.178c-6.357-6.933-13.29-13.488-20.506-19.812-2.202-1.93-4.52-3.72-6.793-5.586-5.27-4.329-10.673-8.488-16.29-12.451a283 283 0 0 0-7.888-5.38 285 285 0 0 0-22.488-13.345c-1.537-.818-2.993-1.752-4.545-2.541-9.192-4.679-18.64-8.753-28.244-12.354-2.518-.944-5.055-1.7-7.594-2.564a252 252 0 0 0-22.65-6.56c-2.851-.683-5.67-1.387-8.531-1.962l-.01-.002h-.004c-9.974-2.002-19.978-3.573-29.971-4.189z" style="display:inline;fill:#f3d7d3;fill-opacity:1;stroke-width:1.56902"/><g transform="translate(244.785 409.58)scale(1.56902)"><path d="M331.602 130.217c42.63 2.63 86.208 25.941 114.248 57.95C565.838 318.658 582.902 446.19 590.684 446.19c.785 0-130.835 106.17-131.037 105.695-8.206-19.236-114.564-134.64-114.467-196.601 0-1.232-2.383-8.36-5.297-15.838-17.032-43.703-51.374-209.393-8.281-209.229" style="display:inline;fill:url(#p);fill-opacity:1"/><path d="M1268.398 130.217c-42.63 2.63-86.208 25.941-114.248 57.95-119.988 130.492-137.052 258.023-144.834 258.023-.785 0 130.835 106.17 131.037 105.695 8.206-19.236 114.564-134.64 114.467-196.601 0-1.232 2.383-8.36 5.297-15.838 17.032-43.703 51.374-209.393 8.281-209.229" style="display:inline;fill:url(#q);fill-opacity:1"/><path d="M795.258 392.352c-138.043 1.973-255.193 55.64-343.035 165.373C346.296 686.757 318.89 875.547 313.29 926c-5.54 49.915-6.08 61.47-6.068 130-2.098 116.445 13.243 221.067 96.562 310.742 78.546 78.617 237.787 117.53 396.215 116.739 158.428.792 317.669-38.122 396.215-116.739 83.32-89.675 98.66-194.297 96.562-310.742.011-68.53-.529-80.085-6.068-130-5.6-50.453-33.005-239.243-138.932-368.275-87.843-109.732-204.992-163.4-343.035-165.373q-2.385 0-4.742.021-2.355-.02-4.742-.021" style="display:inline;fill:#f5e595;fill-opacity:1"/><path d="M756.154 775.043c-12.492 2.416-24.159 1.237-35.826.059-5.068 36.043 29.52 130.306 78.065 125.502 48.543 4.804 83.134-89.46 78.066-125.502-11.667 1.179-23.334 2.358-35.826-.059-44.15-11.458-40.861-9.51-84.479 0" style="baseline-shift:baseline;display:inline;overflow:visible;vector-effect:none;fill:url(#r);fill-opacity:1;stroke-linecap:round;stroke-linejoin:round;stop-color:#000"/><path d="M798.395 800a73.46 73.46 0 0 0-65.307 39.824c13.76 33.119 37.192 63.561 65.305 60.78 28.112 2.781 51.545-27.66 65.306-60.78A73.46 73.46 0 0 0 798.395 800" style="baseline-shift:baseline;display:inline;overflow:visible;vector-effect:none;fill:url(#s);fill-opacity:1;stroke-linecap:round;stroke-linejoin:round;stop-color:#000"/><path d="M718.745 775.003c-1.826.071-1.904-2.235-2.16-.425-2.762 19.645 4.917 52.245 19.308 80.318 7.195 14.037 16.112 26.86 26.625 36.042 21.437 18.722 50.328 18.71 71.752 0 10.512-9.181 19.429-22.005 26.625-36.042 14.39-28.073 22.069-60.673 19.306-80.318-.283-2.01-1.723.321-3.742.524-4.222.426-12.92 4.837-12.92 4.837 3.171-.195 6.3-.482 9.398-.785 1.04 17.202-5.882 47.148-18.771 72.291-6.887 13.435-15.401 25.528-24.87 33.797-18.673 16.309-43.166 16.281-61.808 0-9.467-8.269-17.982-20.362-24.869-33.797-12.888-25.143-19.81-55.09-18.77-72.29a355 355 0 0 0 5.64.513l-1.437-3.825c-2.91-.234-5.832-.527-8.781-.825a4 4 0 0 0-.526-.015" style="baseline-shift:baseline;display:inline;overflow:visible;vector-effect:none;fill:#191a14;fill-opacity:1;stroke-linecap:round;stroke-linejoin:round;stop-color:#000"/><path d="M1010.422 442.328c11.289 9.578 105.442 85.55 125.984 101.693-37.264-43.307-79.456-77.102-125.984-101.693" style="display:inline;fill:url(#t);fill-opacity:1"/><path d="M589.578 442.328c-11.289 9.578-105.442 85.55-125.984 101.693 37.264-43.307 79.456-77.102 125.984-101.693" style="display:inline;fill:url(#u);fill-opacity:1"/><path d="M908.488 659.055c-5.086 6.397-5.273 7.201-2.412 10.363 6.213 6.866 11.042-9.075 29.669-19.42 14.651-8.139 39.21-15.24 63.046 7.67 6.62 6.362 10.014 8.266 11.228 6.3 2.175-3.518-13.803-20.404-24.697-26.1-19.871-10.391-54.209-7.27-76.834 21.187" style="fill:#1f1f1d;fill-opacity:1"/><path d="M331.602 130.217c-43.093-.164-8.75 165.526 8.28 209.228 2.915 7.48 5.298 14.607 5.298 15.838q-.003 3.343.392 6.883c12.006-109.145 79.037-173.816 97.334-176.582q.277-.043.559-.08c-28.088-30.633-70.424-52.731-111.863-55.287" style="opacity:1;fill:#1f1f1d;fill-opacity:1;stroke-width:7.55906;stroke-linecap:round;stroke-linejoin:round"/><path d="M1268.398 130.217c43.093-.164 8.75 165.526-8.28 209.228-2.915 7.48-5.298 14.607-5.298 15.838q0 3.343-.392 6.883c-12.006-109.145-79.037-173.816-97.334-176.582a28 28 0 0 0-.559-.08c28.088-30.633 70.424-52.731 111.863-55.287" style="fill:#1f1f1d;fill-opacity:1;stroke-width:7.55906;stroke-linecap:round;stroke-linejoin:round"/><path d="M1268.398 130.217c-28.355 1.749-57.13 12.649-81.474 29.172a73.78 73.78 0 0 0 71.576 55.888 73.8 73.8 0 0 0 29.254-6.047c4.008-42.97.776-79.09-19.356-79.013" style="opacity:1;mix-blend-mode:normal;fill:url(#v);fill-opacity:1;stroke-width:8.4499;stroke-linecap:round;stroke-linejoin:round"/><path d="M1268.398 130.217c-28.355 1.749-57.13 12.649-81.474 29.172a73.78 73.78 0 0 0 71.576 55.888 73.8 73.8 0 0 0 29.254-6.047c4.008-42.97.776-79.09-19.356-79.013" style="opacity:1;mix-blend-mode:overlay;fill:url(#w);fill-opacity:1;stroke-width:8.4499;stroke-linecap:round;stroke-linejoin:round"/><path d="M1268.398 130.217c-28.355 1.749-57.13 12.649-81.474 29.172a73.78 73.78 0 0 0 71.576 55.888 73.8 73.8 0 0 0 29.254-6.047c4.008-42.97.776-79.09-19.356-79.013" style="opacity:1;mix-blend-mode:normal;fill:url(#x);fill-opacity:1;stroke-width:8.4499;stroke-linecap:round;stroke-linejoin:round" transform="matrix(-1 0 0 1 1600 0)"/><path d="M1268.398 130.217c-28.355 1.749-57.13 12.649-81.474 29.172a73.78 73.78 0 0 0 71.576 55.888 73.8 73.8 0 0 0 29.254-6.047c4.008-42.97.776-79.09-19.356-79.013" style="opacity:1;mix-blend-mode:overlay;fill:url(#y);fill-opacity:1;stroke-width:8.4499;stroke-linecap:round;stroke-linejoin:round" transform="matrix(-1 0 0 1 1600 0)"/><path d="M579.19 648.762c-7.244 68 108.403 79.79 116.178 3.531 2.237-21.938-7.443-45.129-33.245-56.667-23.834-10.66-77.375.954-82.934 53.136" style="fill:url(#z);fill-opacity:1"/><ellipse cx="651.896" cy="624.177" rx="21.337" ry="19.28" style="opacity:1;fill:url(#A);fill-opacity:1;stroke-width:8.17692;stroke-linecap:round;stroke-linejoin:round"/><path d="M975.762 842.596c14.364 23.62 35.875 32.573 55.815 33.97 76.697 5.368 108.135-100.462 34.177-143.154-71.94-37.39-127.84 46.947-89.992 109.184" style="fill:#aa0319;fill-opacity:1"/><path d="M1031.197 724.191c-46.883-.381-78.318 51.018-64.248 98.57a90 90 0 0 0 9.002.454 89.803 89.803 0 0 0 89.803-89.803c-12.095-6.287-23.737-9.133-34.557-9.22" style="opacity:1;fill:url(#B);fill-opacity:.398403;stroke-width:7.55906;stroke-linecap:round;stroke-linejoin:round"/><path d="M1031.197 724.191c-46.883-.381-78.318 51.018-64.248 98.57a90 90 0 0 0 9.002.454 89.803 89.803 0 0 0 89.803-89.803c-12.095-6.287-23.737-9.133-34.557-9.22" style="opacity:1;mix-blend-mode:overlay;fill:url(#C);fill-opacity:.398403;stroke-width:7.55906;stroke-linecap:round;stroke-linejoin:round"/><path d="M800.361 2771.111c-2.42.255-5.141 1.815-10.306 4.721-27.625 14.179-59.484 16.825-87.348 2.008-2.285 0-7.528 6.583-6.53 8.2.73 1.18 5.63 3.579 17.663 8.647 39.212 11.203 54.707 3.232 86.521-10.656 31.815 13.888 47.308 21.86 86.52 10.656 12.033-5.068 16.932-7.467 17.662-8.648.999-1.616-4.244-8.2-6.53-8.2-27.863 14.818-59.722 12.172-87.347-2.007-5.165-2.906-7.884-4.466-10.305-4.72" style="display:inline;fill:#191a14;fill-opacity:1" transform="translate(-.36 -2013.84)"/><path d="M799.923 710.764c-13.137.065-17.71 1.163-18.395 4.636-.681 3.456 11.126 10.446 18.395 10.446 7.268 0 19.076-6.99 18.394-10.446-.686-3.473-5.258-4.57-18.395-4.636" style="fill:#191a14;fill-opacity:1;stroke-width:1.22085"/><path d="M795.258 392.352c-66.234.947-127.657 13.794-183.342 39.025A209.31 209.31 0 0 0 800 548.844a209.31 209.31 0 0 0 188.084-117.467c-55.685-25.231-117.108-38.078-183.342-39.025q-2.385 0-4.742.021-2.355-.02-4.742-.021" style="opacity:1;mix-blend-mode:multiply;fill:url(#D);fill-opacity:.533051;stroke:none;stroke-width:9.8888;stroke-linecap:round;stroke-linejoin:round;stroke-opacity:1"/><path d="M800 1031.647a673.102 416 0 0 0-488.14 129.574c9.405 74.916 34.544 143.763 91.925 205.521 78.546 78.617 237.787 117.53 396.215 116.739 158.428.792 317.669-38.122 396.215-116.739 57.381-61.758 82.52-130.605 91.926-205.521A673.102 416 0 0 0 800 1031.647" style="display:inline;mix-blend-mode:multiply;fill:url(#E);fill-opacity:1"/><path d="M975.762 842.596c14.364 23.62 35.875 32.573 55.815 33.97 76.697 5.368 108.135-100.462 34.177-143.154-71.94-37.39-127.84 46.947-89.992 109.184" style="fill:#aa0319;fill-opacity:1" transform="matrix(-1 0 0 1 1600 0)"/><path d="M1031.197 724.191c-46.883-.381-78.318 51.018-64.248 98.57a90 90 0 0 0 9.002.454 89.803 89.803 0 0 0 89.803-89.803c-12.095-6.287-23.737-9.133-34.557-9.22" style="opacity:1;fill:url(#F);fill-opacity:.398403;stroke-width:7.55906;stroke-linecap:round;stroke-linejoin:round" transform="matrix(-1 0 0 1 1600 0)"/><path d="M1031.197 724.191c-46.883-.381-78.318 51.018-64.248 98.57a90 90 0 0 0 9.002.454 89.803 89.803 0 0 0 89.803-89.803c-12.095-6.287-23.737-9.133-34.557-9.22" style="opacity:1;mix-blend-mode:overlay;fill:url(#G);fill-opacity:.398403;stroke-width:7.55906;stroke-linecap:round;stroke-linejoin:round" transform="matrix(-1 0 0 1 1600 0)"/><path d="M1135.205 542.63c-132.502 169.888 140.175 476.509 157.518 484.628-.233-44.43-1.355-59.277-6.014-101.258-5.6-50.453-33.005-239.243-138.932-368.275a501 501 0 0 0-12.572-15.094" style="display:inline;mix-blend-mode:multiply;fill:url(#H);fill-opacity:1"/><path d="M464.795 542.63c132.502 169.888-140.175 476.509-157.518 484.628.233-44.43 1.355-59.277 6.014-101.258 5.6-50.453 33.005-239.243 138.932-368.275a501 501 0 0 1 12.572-15.094" style="display:inline;mix-blend-mode:multiply;fill:url(#I);fill-opacity:1"/><path d="M1082.69 1125.005c-3.495 5.12-3.677 7.709-10.483 15.36s-18.581 19.097-33.394 30.778c-74.002 55.144-144.947 18.634-125.328-60.206 15.542-60.832 48.796-113.638 95.307-157.181 11.388-11.746 18.187-19.007 24.986-26.27 117.138 20.716 87.716 122.702 48.912 197.519" style="fill:#f5e595;fill-opacity:1;stroke:none;stroke-width:4.17036;stroke-linecap:round;stroke-linejoin:round;stroke-dasharray:none;stroke-opacity:1"/><path d="M939.635 1043.22c-11.256 21.292-20.063 43.889-26.15 67.718-19.414 78.016 49.853 114.58 123.01 61.904a101 101 0 0 0 4.14-28.621 101 101 0 0 0-101-101" style="fill:url(#J);fill-opacity:1;stroke:none;stroke-width:4.17036;stroke-linecap:round;stroke-linejoin:round;stroke-dasharray:none;stroke-opacity:1"/><path d="M1033.778 927.487c-6.8 7.262-13.597 14.523-24.986 26.269-46.511 43.543-79.765 96.348-95.307 157.181-19.619 78.84 51.326 115.35 125.328 60.206 14.813-11.681 26.588-23.128 33.394-30.779s8.645-11.505 10.483-15.36" style="fill:none;fill-opacity:1;stroke:#d1b53b;stroke-width:4.17036;stroke-linecap:round;stroke-linejoin:round;stroke-dasharray:none;stroke-opacity:1"/><path d="M1082.69 1125.005c-3.495 5.12-3.677 7.709-10.483 15.36s-18.581 19.097-33.394 30.778c-74.002 55.144-144.947 18.634-125.328-60.206 15.542-60.832 48.796-113.638 95.307-157.181 11.388-11.746 18.187-19.007 24.986-26.27 117.138 20.716 87.716 122.702 48.912 197.519" style="fill:#f5e595;fill-opacity:1;stroke:none;stroke-width:4.17036;stroke-linecap:round;stroke-linejoin:round;stroke-dasharray:none;stroke-opacity:1" transform="matrix(-1 0 0 1 1600 0)"/><path d="M939.635 1043.22c-11.256 21.292-20.063 43.889-26.15 67.718-19.414 78.016 49.853 114.58 123.01 61.904a101 101 0 0 0 4.14-28.621 101 101 0 0 0-101-101" style="fill:url(#K);fill-opacity:1;stroke:none;stroke-width:4.17036;stroke-linecap:round;stroke-linejoin:round;stroke-dasharray:none;stroke-opacity:1" transform="matrix(-1 0 0 1 1600 0)"/><path d="M1033.778 927.487c-6.8 7.262-13.597 14.523-24.986 26.269-46.511 43.543-79.765 96.348-95.307 157.181-19.619 78.84 51.326 115.35 125.328 60.206 14.813-11.681 26.588-23.128 33.394-30.779s8.645-11.505 10.483-15.36" style="fill:none;fill-opacity:1;stroke:#d1b53b;stroke-width:4.17036;stroke-linecap:round;stroke-linejoin:round;stroke-dasharray:none;stroke-opacity:1" transform="matrix(-1 0 0 1 1600 0)"/><path d="M1292.137 991.754a239.65 239.65 0 0 0-193.123 235.088 239.65 239.65 0 0 0 66.582 165.767c11.216-8.083 21.465-16.705 30.619-25.867 83.32-89.675 98.66-194.297 96.562-310.742 0-29.386-.092-48.296-.64-64.246" style="display:inline;mix-blend-mode:multiply;fill:url(#L);fill-opacity:1"/><path d="M307.863 991.754a239.65 239.65 0 0 1 193.123 235.088 239.65 239.65 0 0 1-66.582 165.767c-11.216-8.083-21.465-16.705-30.619-25.867-83.32-89.675-98.66-194.297-96.562-310.742 0-29.386.092-48.296.64-64.246" style="display:inline;mix-blend-mode:multiply;fill:url(#M);fill-opacity:1"/><circle cx="800" cy="724.191" r="231.197" style="opacity:1;mix-blend-mode:overlay;fill:url(#N);stroke:none;stroke-width:8.32205;stroke-linecap:round;stroke-linejoin:round;stroke-opacity:1"/></g><path d="M1088.039 279.919q2.409 4.295 3.03 11.387.252 2.491.345 6.33.024 3.65-.263 7.626t-.835 7.832q-.425 3.596-1.262 6.05-1.255 3.68-4.743 7.734-2.687 2.69-4.645 3.826l-3.237 1.167q-1.904.687-4.898 1.335l-9.034 2.396-13.894 2.642q-10.26 1.978-20.315 4.527-9.933 2.29-19.644 5.79-4.19 1.51-3.915 2.273.137.38 2.469 1.476 2.316.456 4.001 3.937.618 1.714.923 3.755.496 1.973.3 4.411.01 3.01.36 6.97.284 3.771.652 8.372l.873 9.583q.436 4.792.819 10.033.574 5.172 1.01 9.964l.873 9.583q.627 4.723.91 8.494.474 3.702.864 6.574l-.381.137.726 6.193q1.697 11.868 3.827 23.15 2.321 11.212 4.954 22.097 5.578 21.443 12.45 38.115 1.906 4.692 3.729 8.554 1.822 3.861 4.078 7.136 2.188 3.085 5.206 6.085 2.95 2.81 7.247 5.779 3.11 1.46 4.68 2.831 2.293 2.186 2.43 2.567.756 2.094-2.541 6.08-4.561 4.657-10.883 8.011-6.131 3.286-12.224 5.483-5.903 2.128-12.218 3.114-6.247 1.176-12.593.881-6.086-.172-11.96-2.143-5.807-1.78-11.088-5.686-13.115-10.118-27.526-39.35-1.548-3.1-2.82-5.438-1.152-2.597-1.907-4.692-.946-2.026-1.632-3.93l-1.442-3.999-1.51-4.189q-.824-2.285-1.526-4.83-5.766-15.994-9.712-33.506-3.825-17.772-6.857-34.538-1.328-7.267-2.588-14.343-1.33-7.267-2.52-14.153-1.26-7.077-2.3-12.942-.916-6.125-1.49-11.297-6.375 3.804-11.553 6.747-5.18 2.943-9.025 5.405-3.915 2.272-7.449 4.406t-6.999 4.46q-3.275 2.256-5.354 3.651-1.957 1.136-2.84 1.67-3.344 2.066-3.953 3.361-2.772 1.86-5.681 3.34-1.386.93-2.529 1.341l-1.904.687q-5.142 1.853-10.017 1.46-4.876-.395-9.402-2.206-4.404-2.07-8.321-5.176-3.795-3.366-6.776-7.455-5.839-8.438-7.626-18.768-.078-3.2-.536-6.262-.337-3.32-.414-6.52 4.853-16.381 14.706-27.249 9.784-11.058 23.576-20.549 17.57-12.143 42.612-25.044l17.244-7.077q8.622-3.538 17.381-6.696t17.656-5.935l17.793-5.553q5.538-1.351 14.778-3.176t20.087-3.368q11.038-1.613 22.54-2.532 11.504-.92 21.446-.2 10.132.65 17.63 3.542 7.618 2.633 10.577 8.452M896.478 335.85q2.11-.115 1.698-1.258-.221-1.21-1.776-1.942-1.745-.662-6.505 1.055-8.744 3.797-18.203 9.79-9.268 5.922-16.602 12.44-7.349 5.876-8.97 10.333-1.62 4.457 1.885 6.421 1.692 1.112 3.771-.283 1.889-1.327 9.191-9.123 1.942-1.776 4.005-3.81 1.995-2.226 4.18-4.52 4.181-4.52 7.456-6.776 4.835-3.895 11.522-8.027 6.375-3.804 8.348-4.3m344.407 61.439q.668 2.133 1.481 5.892 1.01 3.716 2.251 9.454.728 3.363 1.214 6.572.642 2.967 1 5.582.85 8.721-.053 16.993-.946 8.074-2.641 16.518-1.658 5.742-3.556 11.33t-5.395 10.486q-9.882 15.598-22.688 24.372-5.155 2.979-11.004 4.658-5.652 1.636-11.39 2.876-5.342 1.155-9.935 1.942-4.438.545-7.972.48-4.877.434-11.55.22-6.476-.257-13.277-1.064-6.845-1.005-13.18-2.534-6.38-1.728-10.824-4.08-12.961-6.31-21.105-14.282t-13.865-21.025q-2.599-6.273-4.673-12.037-1.877-5.807-3.032-11.148-4.235-19.587 1.101-38.965.882-4.54 2.358-9.208 1.631-4.909 3.871-8.914.776-1.203 1.508-2.604.888-1.641 1.93-3.523 6.85-11.422 16.32-20.304t21.661-13.795q1.738-.583 4.706-1.225 3.122-.882 7.475-1.823 6.176-1.129 11.053-1.562 5.074-.476 9.683-.23 4.765.005 9.7.802 4.893.6 10.988 1.973l-.086-.395q23.79 5.625 35.131 22.64 1.09 1.213 1.984 2.47 1.572 1.524 2.01 1.636 7.599 3.535 11.652 8.87 4.25 5.295 7.149 12.952m-113.37-24.361q8.47-6.802 4.069-8.957-.962-.62-2.545-.278-2.77.599-6.144 3.192-3.176 2.55-6.224 5.695-3.048 3.144-5.615 6.598-2.609 3.257-4.005 5.422-8.892 15.384-3.77 18.004 1.332 1.37 2.177-.47l3.026-7.075q1.225-2.957 3.481-5.93 2.214-3.17 4.711-5.988 2.652-3.059 5.433-5.524 2.936-2.706 5.406-4.69m81.539 42.84-2.743-.235.395-.085q-4.764-.005-8.304-2.968-3.342-3.005-5.78-6.62-.653-1.101-.952-2.486l-.642-2.968q-.246-3.053.171-6.87.412-6.717-.486-10.872-.899-4.154-3.289-4.673-3.93.021-9.234 6.139-5.15 5.876-8.288 13.389-4.101 14.555-4.17 30.516-.113 15.763 3.052 30.404l1.327 6.133q.513 2.374.967 3.518.257 1.187.91 2.289.85 1.059 1.94 2.273 2.097 2.031 3.824 3.315t3.283 1.775q2.759 1.267 6.235.102 1.144-.455 2.09-.867l2.289-.909q2.599-1.39 3.855-2.283l-.085-.396q7.454-5.753 10.86-13.945 3.561-8.433 4.93-17.426l.085.395.284-14.972zm328.522-79.019q1.03-.355 3.294-1.055 2.263-.7 4.729-1.391 2.465-.69 4.516-1.199 2.254-.498 3.265-.449.01-.202-2.195-.715-2.012-.3-5.833-.892-5.015-1.055-9.424-2.08-4.206-1.015-8.2-2.223-7.392-2.184-12.077-5.857-4.473-3.866-7.067-8.856-2.392-4.98-3.108-11.094-.716-6.115-.381-12.989.827-16.983 9.169-30.154 8.544-13.162 21.177-22.883t27.938-16.068q15.316-6.55 30.06-9.683 24.585-5.49 50.868-4.21 34.572 1.683 47.04 12.017 12.466 10.334 11.305 34.191-.178 3.64-1.203 8.048-.813 4.216-2.445 8.595-1.42 4.187-3.446 8.344-1.814 3.965-3.984 6.899-2.854 4.522-7.1 4.315-1.82-.088-3.876-3.634-2.25-3.757-6.293-3.954l-.404-.02q-2.022-.098-2.416-.32l-3.235-.157-3.215-.562q-1.203-.261-3.427-.37l-4.853-.236q-2.83-.138-6.287.1-3.447.034-7.53.646-6.316.706-13.26 1.786-6.74 1.09-13.712 2.778-6.76 1.495-13.55 3.596-6.579 1.909-12.57 4.252-5.971 1.938-12.81 5.05t-12.263 6.294q-2.9 1.277-2.92 1.681-.038.81 4.957 2.268 5.794 1.7 11.396 3.19l11.628 2.592q2.81.542 4.408 1.026 1.81.29 2.406.522l2.629.128q1.597.483 4.004 1.006 2.609.532 6.238.911 5.641.68 12.698 1.429 7.056.749 12.466 2.026 1.607.28 2.8.744 1.396.473 2.387.927 2.155 1.523 3.078 3.392.557 1.04 1.297 2.495.942 1.464 2.056 3.545 1.806 4.547 3.177 9.68t1.135 9.985q-.384 7.885-4.318 13.773-1.11 1.973-2.16 2.732-1.07 1.164-3.343 2.067-1.869.922-6.386 2.12-2.263.701-5.133 1.372-2.87.67-6.366 1.717-9.852 2.56-22.17 5.81-12.317 3.251-24.694 7.715-12.366 4.262-23.58 9.796-11.212 5.533-19.057 12.65-6.572 5.962-13.658 14.129-6.612 6.77-6.858 11.825-.177 3.64 4.902 7.534 5.07 4.098 18.01 4.728 10.513.511 21.519-.777t21.869-3.799q11.065-2.5 21.775-6.032 10.72-3.734 20.246-7.932 7.476-3.689 7.554-5.306l9.96-4.784q2.678-.883 5.79-2.353 1.666-.932 3.737-1.845 2.283-1.104 4.99-2.594l24.122-12.606q3.747-2.047 6.859-3.517 3.314-1.46 6.193-2.333 2.687-1.085 5.133-1.37 2.658-.48 5.084-.361 2.83.137 5.168 2.075 2.55 1.746 4.241 4.462 1.702 2.515 2.565 5.597 1.066 3.092.938 5.72-.355 7.278-7.026 15.262-6.459 7.792-16.769 15.6-10.3 7.604-23.017 14.888-12.717 7.285-25.384 13.558-12.658 6.072-24.245 10.98-11.376 4.715-19.004 7.383-15.67 5.52-32.436 8.554-16.564 3.044-33.344 2.227-17.185-.837-32.265-7.448t-26.092-17.686-17.178-25.965q-5.963-14.882-5.107-32.471 2.53-51.96 85.898-78.502m15.54-90.236q1.04-.557 4.15-2.027 3.122-1.672 7.274-3.699 4.364-2.22 9.132-4.419 4.778-2.402 8.718-4.236l7.041-3.103q2.9-1.277 3.506-1.248.049-1.01-2.579-1.139-6.065-.295-13.664 1.767t-15.266 5.54q-7.658 3.274-14.758 7.59-6.898 4.325-11.563 8.556-6.34 5.366-6.45 7.59-.107 2.224 1.712 2.312 3.437.168 8.95-4.833 2.322-1.914 5.665-3.98 3.546-2.057 8.131-4.67m358.688 145.26q-.378-4.21-3.646-1.366l.08-.397q-.477.316-1.24 2.02-.761 1.703-2.362 4.474-1.641 2.97-3.364 6.336-1.524 3.407-3.607 7.526-4.573 10.22-10.056 19.842-5.244 9.463-10.686 18.886-2.882 4.989-5.682 9.58-2.8 4.593-5.32 8.829-4.04 6.61-9.712 14.127-5.473 7.557-12.055 14.474t-14.11 12.4q-7.488 5.284-15.516 7.153-4.967 1.049-11.709-.332l-8.527-1.746q-4.123-1.052-8.085-2.896-7.485-3.806-14.686-9-6.962-5.351-11.454-12.676-11.415-20.934-10.23-53.957-.12-8.496 2.438-20.988l.731-3.57q.564-1.744.97-3.727.645-2.14 1.092-4.322.645-2.14 1.173-4.718 1.58-6.702 3.2-13.602 1.66-7.098 3.874-13.876 2.255-6.977 5.223-13.394 3.007-6.615 6.885-12.433 1.758-2.533 3.674-4.826 2.115-2.253 4.189-4.308 8.727-7.304 21.815-4.623 3.57.73 9.356 2.742 5.985 2.053 11.568 5.056 5.782 3.043 9.932 6.993 4.348 3.99 4.644 8.596.017 4.962-4.082 15.9-.884 2.298-1.89 5.191-.965 2.695-2.052 5.985-3.018 8.68-5.4 17.283-2.183 8.644-4.01 17.568l-3.169 15.467q-2.216 15.869-2.575 24.68-.2 9.05 2.277 14.103.825 2.029 2.014 2.272 1.785.366 5.18-4.104 5.672-7.517 10.708-14.957 5.275-7.597 10.037-15.713 1.88-3.128 3.44-5.7 1.6-2.772 2.764-5.427 5.32-8.828 9.848-17.818 4.766-9.148 8.937-18.418l5.452-11.487 12.058-23.564q10.906-14.916 25.58-11.91 18.046 3.695 23.283 21.504 2.948 14.86-7.267 26.405-2.435 2.807-6.339 5.727-3.705 2.96-7.87 2.107-4.164-.853-5.722-7.37zm-118.93-43.78q1.6-2.77 1.763-3.564.162-.793-.504-2.582-.743-2.425-3.01-1.443-1.988.626-4.428 4.465-1.483 3.209-3.368 7.368-1.646 4.002-3.694 8.955-4.176 10.302-5.872 16.566-2.17 5.548-1.859 7.058.113 1.47.946 1.433 1.988-.626 3.969-8.278 2.814-7.689 6.9-15.53 4.125-8.04 9.157-14.447m113.097 8.7q2.196-2.649.813-3.965-1.663-.96-3.376.341-1.993 1.658-2.358 3.443-.569 2.776 1.099 2.705 1.19.243 3.822-2.523m22.593 98.56q4.738-12.924 12.648-23.88 7.977-11.149 18.217-19.574 10.499-8.55 22.745-14.128 12.438-5.512 26.098-7.164 16.87-2.245 32.536 3.239 11.654 4.079 21.197 12.351 9.734 8.34 17.338 17.864l1.385 1.557q2.484-3.42 4.824-5.817 2.598-2.522 5.369-3.697t5.97-1.127q3.391.114 7.594 1.585 2.866 1.003 4.519 1.796 1.843.86 3.171 1.968 1.519 1.175 2.904 2.732t3.143 3.888l-.573-.2q10.336 10.909 12.045 20.729 1.91 9.247-.23 15.36-.534 1.529-1.92 4.26-1.193 2.8-3.496 6.927-2.11 4.193-4.422 8.96t-5.016 10.04q-2.512 5.34-5.091 10.87-2.58 5.531-5.417 11.186-5.359 11.635-8.368 20.233-2.876 8.215-4.834 15.035-1.767 6.888-2.426 12.447-1.768 11.177 3.39 12.982 3.057 1.07 6.907.488 3.917-.774 7.843-2.188 4.184-1.538 7.862-3.467t6.133-3.43q8.788-5.502 16.392-13.134 7.67-7.824 12.734-16.774 3.82-7.241 6.352-9.572 2.207-2.016 6.983-.344 3.63 1.27 5.187 4.175t1.634 6.362q.334 3.334-.488 6.906-.63 3.64-1.633 6.506-1.94 5.54-5.35 10.995t-7.776 10.574q-4.365 5.12-9.361 9.59-4.738 4.347-9.4 7.863-12.743 8.836-27.072 12.399-14.071 3.438-29.164-1.844l-2.102-.736q-1.146-.401-2.417-1.06l-4.384-2.178q-8.378-4.863-15.122-11.941t-11.74-15.476q-4.996-8.396-7.928-17.787-2.933-9.39-3.496-18.809l-.698-4.747q-5.512 4.718-12.628 9.734-6.86 4.89-14.721 8.358-7.604 3.343-15.752 4.566-7.89 1.098-15.342-1.51-10.508-3.678-19.506-9.83-8.999-6.151-15.724-14.51t-10.545-18.274q-3.754-10.107-3.84-21.503-.21-7.365 1.05-14.644 1.329-7.47 3.745-14.988zm168.442-26.611q-3.172 2.321-4.175 5.187l.248.516q.765.267 2.245-.287 1.739-.678 3.353-1.614 1.806-.87 3.105-2.13 1.49-1.194 1.758-1.959.468-1.337-1.06-1.872-2.293-.802-5.474 2.159m-98.154 61.078q-1.127 2.608-2.455 5.789t-2.856 6.935l-2.943 8.406q-.946 3.315-1.089 4.337-.544 2.169.946 5.264l1.165-.88q1.548-.744 2.388-1.308.583-.44 1.548-.745t2.254-.926q8.626-3.2 16.526-9.228t14.864-13.67 12.916-16.067 10.613-16.23q5.254-8.884 8.387-12.934.717-.821 1.108-1.328.459-.697.726-1.461l.803-2.293q.87-2.483-.85-3.085t-4.48-.067q-2.694.344-5.656 1.452-2.894.917-5.664 2.092-2.58 1.241-4.127 1.987-6.39 3.553-12.791 7.747-6.143 4.069-11.53 9.046l.382.134q-4.156 3.906-8.254 8.262-4.031 4.165-6.859 9.18-1.442 2.283-2.693 4.633-1.06 2.417-2.38 4.958m-22.62-71.396q-.735 2.101.984 2.703.764.268 3.086-.85 1.098-.688 3.161-1.681 2.255-.927 5.675-2.732 2.837-1.366 5.731-2.283 3.153-1.041 6.43-1.825 5.396-1.327 10.66-2.273 5.33-1.137 10.594-2.082 3.974-.325 4.308-1.28.401-1.147-.802-1.997-.946-.974-5.531-2.58-2.866-1.002-6.391-.735-3.458.077-7.183.917-3.726.84-7.203 2.197-3.22 1.232-5.799 2.474l-4.126 1.987q-2.647 1.433-5.617 3.181-2.78 1.815-5.178 3.764-2.33 1.757-2.799 3.095" aria-label="To Eva" style="font-size:404.832px;line-height:1;font-family:&quot;Magic Bubble&quot;;-inkscape-font-specification:&quot;Magic Bubble&quot;;text-align:center;text-anchor:middle;fill:#eec6c4;fill-opacity:1;stroke-width:15.3007;stroke-linecap:round;stroke-linejoin:round"/><path d="M1088.039 267.919q2.409 4.295 3.03 11.387.252 2.491.345 6.33.024 3.65-.263 7.626t-.835 7.832q-.425 3.596-1.262 6.05-1.255 3.68-4.743 7.734-2.687 2.69-4.645 3.826l-3.237 1.167q-1.904.687-4.898 1.335l-9.034 2.396-13.894 2.642q-10.26 1.978-20.315 4.527-9.933 2.29-19.644 5.79-4.19 1.51-3.915 2.273.137.38 2.469 1.476 2.316.456 4.001 3.937.618 1.714.923 3.755.496 1.973.3 4.411.01 3.01.36 6.97.284 3.771.652 8.372l.873 9.583q.436 4.792.819 10.033.574 5.172 1.01 9.964l.873 9.583q.627 4.723.91 8.494.474 3.702.864 6.574l-.381.137.726 6.193q1.697 11.868 3.827 23.15 2.321 11.212 4.954 22.097 5.578 21.443 12.45 38.115 1.906 4.692 3.729 8.554 1.822 3.861 4.078 7.136 2.188 3.085 5.206 6.085 2.95 2.81 7.247 5.779 3.11 1.46 4.68 2.831 2.293 2.186 2.43 2.567.756 2.094-2.541 6.08-4.561 4.657-10.883 8.011-6.131 3.286-12.224 5.483-5.903 2.128-12.218 3.114-6.247 1.176-12.593.881-6.086-.172-11.96-2.143-5.807-1.78-11.088-5.686-13.115-10.118-27.526-39.35-1.548-3.1-2.82-5.438-1.152-2.597-1.907-4.692-.946-2.026-1.632-3.93l-1.442-3.999-1.51-4.189q-.824-2.285-1.526-4.83-5.766-15.994-9.712-33.506-3.825-17.772-6.857-34.538-1.328-7.267-2.588-14.343-1.33-7.267-2.52-14.153-1.26-7.077-2.3-12.942-.916-6.125-1.49-11.297-6.375 3.804-11.553 6.747-5.18 2.943-9.025 5.405-3.915 2.272-7.449 4.406t-6.999 4.46q-3.275 2.256-5.354 3.651-1.957 1.136-2.84 1.67-3.344 2.066-3.953 3.361-2.772 1.86-5.681 3.34-1.386.93-2.529 1.341l-1.904.687q-5.142 1.853-10.017 1.46-4.876-.395-9.402-2.206-4.404-2.07-8.321-5.176-3.795-3.366-6.776-7.455-5.839-8.438-7.626-18.768-.078-3.2-.536-6.262-.337-3.32-.414-6.52 4.853-16.381 14.706-27.249 9.784-11.058 23.576-20.549 17.57-12.143 42.612-25.044l17.244-7.077q8.622-3.538 17.381-6.696t17.656-5.935l17.793-5.553q5.538-1.351 14.778-3.176t20.087-3.368q11.038-1.613 22.54-2.532 11.504-.92 21.446-.2 10.132.65 17.63 3.542 7.618 2.633 10.577 8.452M896.478 323.85q2.11-.115 1.698-1.258-.221-1.21-1.776-1.942-1.745-.662-6.505 1.055-8.744 3.797-18.203 9.79-9.268 5.922-16.602 12.44-7.349 5.876-8.97 10.333-1.62 4.457 1.885 6.421 1.692 1.112 3.771-.283 1.889-1.327 9.191-9.123 1.942-1.776 4.005-3.81 1.995-2.226 4.18-4.52 4.181-4.52 7.456-6.776 4.835-3.895 11.522-8.027 6.375-3.804 8.348-4.3m344.407 61.439q.668 2.133 1.481 5.892 1.01 3.716 2.251 9.454.728 3.363 1.214 6.572.642 2.967 1 5.582.85 8.721-.053 16.993-.946 8.074-2.641 16.518-1.658 5.742-3.556 11.33t-5.395 10.486q-9.882 15.598-22.688 24.372-5.155 2.979-11.004 4.658-5.652 1.636-11.39 2.876-5.342 1.155-9.935 1.942-4.438.545-7.972.48-4.877.434-11.55.22-6.476-.257-13.277-1.064-6.845-1.005-13.18-2.534-6.38-1.728-10.824-4.08-12.961-6.31-21.105-14.282t-13.865-21.025q-2.599-6.273-4.673-12.037-1.877-5.807-3.032-11.149-4.235-19.586 1.101-38.964.882-4.54 2.358-9.208 1.631-4.909 3.871-8.914.776-1.203 1.508-2.604.888-1.641 1.93-3.523 6.85-11.422 16.32-20.304t21.661-13.795q1.738-.583 4.706-1.225 3.122-.882 7.475-1.823 6.176-1.129 11.053-1.562 5.074-.476 9.683-.23 4.765.005 9.7.802 4.893.6 10.988 1.973l-.086-.395q23.79 5.625 35.131 22.64 1.09 1.213 1.984 2.47 1.572 1.524 2.01 1.636 7.599 3.534 11.652 8.87 4.25 5.295 7.149 12.952m-113.37-24.361q8.47-6.802 4.069-8.957-.962-.62-2.545-.278-2.77.599-6.144 3.192-3.176 2.55-6.224 5.695-3.048 3.144-5.615 6.598-2.609 3.257-4.005 5.422-8.892 15.384-3.77 18.004 1.332 1.37 2.177-.47l3.026-7.075q1.225-2.957 3.481-5.93 2.214-3.17 4.711-5.988 2.652-3.059 5.433-5.524 2.936-2.706 5.406-4.69m81.539 42.84-2.743-.235.395-.085q-4.764-.005-8.304-2.968-3.342-3.005-5.78-6.62-.653-1.101-.952-2.486l-.642-2.968q-.246-3.053.171-6.87.412-6.717-.486-10.872-.899-4.154-3.289-4.673-3.93.021-9.234 6.139-5.15 5.876-8.288 13.389-4.101 14.555-4.17 30.516-.113 15.763 3.052 30.404l1.327 6.133q.513 2.374.967 3.518.257 1.187.91 2.289.85 1.059 1.94 2.273 2.097 2.031 3.824 3.315t3.283 1.775q2.759 1.267 6.235.102 1.144-.455 2.09-.867l2.289-.909q2.599-1.39 3.855-2.283l-.085-.396q7.454-5.753 10.86-13.945 3.561-8.433 4.93-17.426l.085.395.284-14.972zm328.522-79.019q1.03-.355 3.294-1.055 2.263-.7 4.729-1.391 2.465-.69 4.516-1.199 2.254-.498 3.265-.449.01-.202-2.195-.715-2.012-.3-5.833-.892-5.015-1.055-9.424-2.08-4.206-1.015-8.2-2.223-7.392-2.184-12.077-5.857-4.473-3.866-7.067-8.856-2.392-4.98-3.108-11.094-.716-6.115-.381-12.989.827-16.983 9.169-30.154 8.544-13.162 21.177-22.883t27.938-16.068q15.316-6.55 30.06-9.683 24.585-5.49 50.868-4.21 34.572 1.683 47.04 12.017 12.466 10.334 11.305 34.191-.178 3.64-1.203 8.048-.813 4.216-2.445 8.595-1.42 4.187-3.446 8.344-1.814 3.965-3.984 6.899-2.854 4.522-7.1 4.315-1.82-.088-3.876-3.634-2.25-3.757-6.293-3.954l-.404-.02q-2.022-.098-2.416-.32l-3.235-.157-3.215-.562q-1.203-.261-3.427-.37l-4.853-.236q-2.83-.138-6.287.1-3.447.034-7.53.646-6.316.706-13.26 1.786-6.74 1.09-13.712 2.778-6.76 1.495-13.55 3.596-6.579 1.909-12.57 4.252-5.971 1.938-12.81 5.05t-12.263 6.294q-2.9 1.277-2.92 1.681-.038.81 4.957 2.268 5.794 1.7 11.396 3.19l11.628 2.592q2.81.542 4.408 1.026 1.81.29 2.406.522l2.629.128q1.597.483 4.004 1.006 2.609.532 6.238.911 5.641.68 12.698 1.429 7.056.749 12.466 2.026 1.607.28 2.8.744 1.396.473 2.387.927 2.155 1.523 3.078 3.392.557 1.04 1.297 2.495.942 1.464 2.056 3.545 1.806 4.547 3.177 9.68t1.135 9.985q-.384 7.885-4.318 13.773-1.11 1.973-2.16 2.732-1.07 1.164-3.343 2.067-1.869.922-6.386 2.12-2.263.701-5.133 1.372-2.87.67-6.366 1.717-9.852 2.56-22.17 5.81-12.317 3.251-24.694 7.715-12.366 4.262-23.58 9.796-11.212 5.533-19.057 12.65-6.572 5.962-13.658 14.129-6.612 6.77-6.858 11.825-.177 3.64 4.902 7.534 5.07 4.098 18.01 4.728 10.513.511 21.519-.777t21.869-3.799q11.065-2.5 21.775-6.032 10.72-3.734 20.246-7.932 7.476-3.689 7.554-5.306l9.96-4.784q2.678-.883 5.79-2.353 1.666-.932 3.737-1.845 2.283-1.104 4.99-2.594l24.122-12.606q3.747-2.047 6.859-3.517 3.314-1.46 6.193-2.333 2.687-1.085 5.133-1.37 2.658-.48 5.084-.361 2.83.137 5.168 2.075 2.55 1.746 4.241 4.462 1.702 2.515 2.565 5.597 1.066 3.092.938 5.72-.355 7.278-7.026 15.262-6.459 7.792-16.769 15.6-10.3 7.604-23.017 14.888-12.717 7.285-25.384 13.558-12.658 6.072-24.245 10.98-11.376 4.715-19.004 7.383-15.67 5.52-32.436 8.554-16.564 3.044-33.344 2.227-17.185-.837-32.265-7.448t-26.092-17.686-17.178-25.965q-5.963-14.882-5.107-32.471 2.53-51.96 85.898-78.502m15.54-90.236q1.04-.557 4.15-2.027 3.122-1.672 7.274-3.699 4.364-2.22 9.132-4.419 4.778-2.402 8.718-4.236l7.041-3.103q2.9-1.277 3.506-1.248.049-1.01-2.579-1.139-6.065-.295-13.664 1.767t-15.266 5.54q-7.658 3.274-14.758 7.59-6.898 4.325-11.563 8.556-6.34 5.366-6.45 7.59-.107 2.224 1.712 2.312 3.437.168 8.95-4.833 2.322-1.914 5.665-3.98 3.546-2.057 8.131-4.67m358.688 145.26q-.378-4.21-3.646-1.366l.08-.397q-.477.316-1.24 2.02-.761 1.703-2.362 4.474-1.641 2.97-3.364 6.336-1.524 3.407-3.607 7.526-4.573 10.22-10.056 19.842-5.244 9.463-10.686 18.886-2.882 4.989-5.682 9.58-2.8 4.593-5.32 8.829-4.04 6.61-9.712 14.127-5.473 7.557-12.055 14.474t-14.11 12.4q-7.488 5.284-15.516 7.153-4.967 1.049-11.709-.332l-8.527-1.746q-4.123-1.052-8.085-2.896-7.485-3.806-14.686-9-6.962-5.351-11.454-12.676-11.415-20.934-10.23-53.957-.12-8.496 2.438-20.988l.731-3.57q.564-1.744.97-3.727.645-2.14 1.092-4.322.645-2.14 1.173-4.718 1.58-6.702 3.2-13.602 1.66-7.098 3.874-13.876 2.255-6.977 5.223-13.394 3.007-6.615 6.885-12.433 1.758-2.533 3.674-4.826 2.115-2.253 4.189-4.308 8.727-7.304 21.815-4.623 3.57.73 9.356 2.742 5.985 2.053 11.568 5.056 5.782 3.043 9.932 6.993 4.348 3.99 4.644 8.596.017 4.962-4.082 15.9-.884 2.298-1.89 5.191-.965 2.695-2.052 5.985-3.018 8.68-5.4 17.283-2.183 8.644-4.01 17.568l-3.169 15.467q-2.216 15.869-2.575 24.68-.2 9.05 2.277 14.103.825 2.029 2.014 2.272 1.785.366 5.18-4.104 5.672-7.517 10.708-14.957 5.275-7.597 10.037-15.713 1.88-3.128 3.44-5.7 1.6-2.772 2.764-5.427 5.32-8.828 9.848-17.818 4.766-9.148 8.937-18.418l5.452-11.487 12.058-23.564q10.906-14.916 25.58-11.91 18.046 3.695 23.283 21.504 2.948 14.86-7.267 26.405-2.435 2.807-6.339 5.727-3.705 2.96-7.87 2.107-4.164-.853-5.722-7.37zm-118.93-43.78q1.6-2.77 1.763-3.564.162-.793-.504-2.582-.743-2.425-3.01-1.443-1.988.626-4.428 4.465-1.483 3.209-3.368 7.368-1.646 4.002-3.694 8.955-4.176 10.302-5.872 16.566-2.17 5.548-1.859 7.058.113 1.47.946 1.433 1.988-.626 3.969-8.278 2.814-7.689 6.9-15.53 4.125-8.04 9.157-14.447m113.097 8.7q2.196-2.649.813-3.965-1.663-.96-3.376.341-1.993 1.658-2.358 3.443-.569 2.776 1.099 2.705 1.19.243 3.822-2.523m22.593 98.56q4.738-12.924 12.648-23.88 7.977-11.149 18.217-19.574 10.499-8.55 22.745-14.128 12.438-5.512 26.098-7.164 16.87-2.245 32.536 3.239 11.654 4.079 21.197 12.351 9.734 8.34 17.338 17.864l1.385 1.557q2.484-3.42 4.824-5.817 2.598-2.522 5.369-3.697t5.97-1.127q3.391.114 7.594 1.585 2.866 1.003 4.519 1.796 1.843.86 3.171 1.968 1.519 1.175 2.904 2.732t3.143 3.888l-.573-.2q10.336 10.909 12.045 20.729 1.91 9.247-.23 15.36-.534 1.529-1.92 4.26-1.193 2.8-3.496 6.927-2.11 4.193-4.422 8.96t-5.016 10.04q-2.512 5.34-5.091 10.87-2.58 5.531-5.417 11.186-5.359 11.635-8.368 20.233-2.876 8.215-4.834 15.035-1.767 6.888-2.426 12.447-1.768 11.177 3.39 12.982 3.057 1.07 6.907.488 3.917-.774 7.843-2.188 4.184-1.538 7.862-3.467t6.133-3.43q8.788-5.502 16.392-13.134 7.67-7.824 12.734-16.774 3.82-7.241 6.352-9.572 2.207-2.016 6.983-.344 3.63 1.27 5.187 4.175t1.634 6.362q.334 3.334-.488 6.906-.63 3.64-1.633 6.506-1.94 5.54-5.35 10.995t-7.776 10.574q-4.365 5.12-9.361 9.59-4.738 4.347-9.4 7.863-12.743 8.836-27.072 12.399-14.071 3.438-29.164-1.844l-2.102-.736q-1.146-.401-2.417-1.06l-4.384-2.178q-8.378-4.863-15.122-11.941t-11.74-15.476q-4.996-8.396-7.928-17.787-2.933-9.39-3.496-18.809l-.698-4.747q-5.512 4.718-12.628 9.734-6.86 4.89-14.721 8.358-7.604 3.343-15.752 4.566-7.89 1.098-15.342-1.51-10.508-3.678-19.506-9.83-8.999-6.151-15.724-14.51t-10.545-18.274q-3.754-10.107-3.84-21.503-.21-7.365 1.05-14.644 1.329-7.47 3.745-14.988zm168.442-26.611q-3.172 2.321-4.175 5.187l.248.516q.765.267 2.245-.287 1.739-.678 3.353-1.614 1.806-.87 3.105-2.13 1.49-1.194 1.758-1.959.468-1.337-1.06-1.872-2.293-.802-5.474 2.159m-98.154 61.078q-1.127 2.608-2.455 5.789t-2.856 6.935l-2.943 8.406q-.946 3.315-1.089 4.337-.544 2.169.946 5.264l1.165-.88q1.548-.744 2.388-1.308.583-.44 1.548-.745t2.254-.926q8.626-3.2 16.526-9.228t14.864-13.67 12.916-16.067 10.613-16.23q5.254-8.884 8.387-12.934.717-.821 1.108-1.328.459-.697.726-1.461l.803-2.293q.87-2.483-.85-3.085t-4.48-.067q-2.694.344-5.656 1.452-2.894.917-5.664 2.092-2.58 1.241-4.127 1.987-6.39 3.553-12.791 7.747-6.143 4.069-11.53 9.046l.382.134q-4.156 3.906-8.254 8.262-4.031 4.165-6.859 9.18-1.442 2.283-2.693 4.633-1.06 2.417-2.38 4.958m-22.62-71.396q-.735 2.101.984 2.703.764.268 3.086-.85 1.098-.688 3.161-1.681 2.255-.927 5.675-2.732 2.837-1.366 5.731-2.283 3.153-1.041 6.43-1.825 5.396-1.327 10.66-2.273 5.33-1.137 10.594-2.082 3.974-.325 4.308-1.28.401-1.147-.802-1.997-.946-.974-5.531-2.58-2.866-1.002-6.391-.735-3.458.077-7.183.917-3.726.84-7.203 2.197-3.22 1.232-5.799 2.474l-4.126 1.987q-2.647 1.433-5.617 3.181-2.78 1.815-5.178 3.764-2.33 1.757-2.799 3.095" aria-label="To Eva" style="font-size:404.832px;line-height:1;font-family:&quot;Magic Bubble&quot;;-inkscape-font-specification:&quot;Magic Bubble&quot;;text-align:center;text-anchor:middle;fill:#fff;stroke-width:15.3007;stroke-linecap:round;stroke-linejoin:round"/><text xml:space="preserve" x="1490.6" y="3043.75" style="font-size:200px;line-height:1;font-family:&quot;Magic Bubble&quot;;-inkscape-font-specification:&quot;Magic Bubble&quot;;text-align:center;writing-mode:lr-tb;direction:ltr;text-anchor:middle;fill:#eec6c4;fill-opacity:1;stroke:none;stroke-width:7.55906;stroke-linecap:round;stroke-linejoin:round;stroke-opacity:1"><tspan x="1490.6" y="3043.75">A Silly Electric Mouse</tspan><tspan x="1490.6" y="3243.75">To Help Brigthen</tspan><tspan x="1490.6" y="3445.703">Your Day!</tspan></text><text xml:space="preserve" x="1490.6" y="3034.75" style="font-size:200px;line-height:1;font-family:&quot;Magic Bubble&quot;;-inkscape-font-specification:&quot;Magic Bubble&quot;;text-align:center;writing-mode:lr-tb;direction:ltr;text-anchor:middle;display:inline;fill:#fff;fill-opacity:1;stroke:none;stroke-width:7.55906;stroke-linecap:round;stroke-linejoin:round;stroke-opacity:1"><tspan x="1490.6" y="3034.75">A Silly Electric Mouse</tspan><tspan x="1490.6" y="3234.75">To Help Brigthen</tspan><tspan x="1490.6" y="3436.703">Your Day!</tspan></text></svg>