<?xml version="1.0" encoding="UTF-8" standalone="no"?>
<!-- Created with Inkscape (http://www.inkscape.org/) -->

<svg
   version="1.1"
   id="svg1"
   width="160"
   height="160"
   viewBox="0 0 160 160"
   xml:space="preserve"
   xmlns:xlink="http://www.w3.org/1999/xlink"
   xmlns="http://www.w3.org/2000/svg"
   xmlns:svg="http://www.w3.org/2000/svg"><defs
     id="defs1"><linearGradient
       id="linearGradient26"><stop
         style="stop-color:#fdea84;stop-opacity:1;"
         offset="0"
         id="stop26" /><stop
         style="stop-color:#fef5c5;stop-opacity:0;"
         offset="1"
         id="stop27" /></linearGradient><linearGradient
       id="linearGradient21"><stop
         style="stop-color:#fcdc5a;stop-opacity:1;"
         offset="0"
         id="stop22" /><stop
         style="stop-color:#fcdc5a;stop-opacity:0;"
         offset="1"
         id="stop23" /></linearGradient><linearGradient
       id="linearGradient20"><stop
         style="stop-color:#fcd948;stop-opacity:1;"
         offset="0"
         id="stop20" /><stop
         style="stop-color:#ee9422;stop-opacity:1;"
         offset="1"
         id="stop21" /></linearGradient><linearGradient
       id="linearGradient4"><stop
         style="stop-color:#ed831e;stop-opacity:1;"
         offset="0"
         id="stop5" /><stop
         style="stop-color:#ed831e;stop-opacity:0;"
         offset="1"
         id="stop6" /></linearGradient><linearGradient
       id="linearGradient2"><stop
         style="stop-color:#f2a858;stop-opacity:1;"
         offset="0"
         id="stop3" /><stop
         style="stop-color:#f2a858;stop-opacity:0;"
         offset="1"
         id="stop4" /></linearGradient><linearGradient
       id="linearGradient7"><stop
         style="stop-color:#fef5c5;stop-opacity:1;"
         offset="0"
         id="stop7" /><stop
         style="stop-color:#fcd948;stop-opacity:0;"
         offset="1"
         id="stop8" /></linearGradient><linearGradient
       xlink:href="#linearGradient7"
       id="linearGradient8"
       x1="80"
       y1="17.979149"
       x2="80"
       y2="47.133579"
       gradientUnits="userSpaceOnUse"
       gradientTransform="translate(-2e-6,-0.21286631)" /><radialGradient
       xlink:href="#linearGradient2"
       id="radialGradient4"
       cx="80"
       cy="26.743372"
       fx="80"
       fy="26.743372"
       r="74.093117"
       gradientTransform="matrix(1,0,0,1.0032617,0,-0.26610999)"
       gradientUnits="userSpaceOnUse" /><radialGradient
       xlink:href="#linearGradient4"
       id="radialGradient6"
       cx="143.47963"
       cy="131.25322"
       fx="143.47963"
       fy="131.25322"
       r="74.093117"
       gradientTransform="matrix(1,0,0,1.0032617,0,-0.26611157)"
       gradientUnits="userSpaceOnUse" /><radialGradient
       xlink:href="#linearGradient4"
       id="radialGradient7"
       gradientUnits="userSpaceOnUse"
       gradientTransform="matrix(-1,0,0,1.0032617,160,-0.26611157)"
       cx="143.47963"
       cy="131.25322"
       fx="143.47963"
       fy="131.25322"
       r="74.093117" /><radialGradient
       xlink:href="#linearGradient20"
       id="radialGradient21"
       cx="60.39362"
       cy="94.012451"
       fx="60.39362"
       fy="94.012451"
       r="67.132927"
       gradientTransform="matrix(0.2108735,0.99469966,-2.1112433,0.44757753,236.39695,-17.812564)"
       gradientUnits="userSpaceOnUse" /><linearGradient
       xlink:href="#linearGradient21"
       id="linearGradient23"
       x1="83.41288"
       y1="42.46122"
       x2="83.41288"
       y2="114.6126"
       gradientUnits="userSpaceOnUse" /><radialGradient
       xlink:href="#linearGradient4"
       id="radialGradient24"
       gradientUnits="userSpaceOnUse"
       gradientTransform="matrix(-1,0,0,1.0032617,160,-0.26611157)"
       cx="118.38159"
       cy="165.41029"
       fx="118.38159"
       fy="165.41029"
       r="74.093117" /><radialGradient
       xlink:href="#linearGradient4"
       id="radialGradient25"
       gradientUnits="userSpaceOnUse"
       gradientTransform="matrix(1,0,0,1.0032617,2.2450853e-6,-0.26611157)"
       cx="118.38159"
       cy="165.41029"
       fx="118.38159"
       fy="165.41029"
       r="74.093117" /><radialGradient
       xlink:href="#linearGradient26"
       id="radialGradient27"
       cx="64.675713"
       cy="36.681751"
       fx="64.675713"
       fy="36.681751"
       r="105.2187"
       gradientUnits="userSpaceOnUse"
       gradientTransform="matrix(0.65825686,0,0,0.646761,37.426765,56.275668)" /></defs><g
     id="g1"><g
       id="g27"><path
         id="path8"
         style="display:inline;fill:#f7c135;fill-opacity:1;stroke-width:25;stroke-linecap:round;stroke-linejoin:round"
         d="M 40.660154,7.2656493 C 15.821813,7.960989 -19.423132,41.530138 33.306638,105.57619 c 9.963229,12.10142 45.146876,49.60842 46.69336,50.34571 1.546484,-0.73729 36.730132,-38.24429 46.693362,-50.34571 C 179.42313,41.530139 144.1782,7.960989 119.33985,7.2656493 108.1964,6.9536927 96.136553,12.103082 86.048826,24.644556 c -2.968579,3.690665 -4.291532,6.07578 -5.447266,7.283203 -0.152972,0.159816 -0.375281,0.243906 -0.601562,0.253906 -0.226281,-0.01 -0.448591,-0.09409 -0.601563,-0.253906 C 78.242701,30.720336 76.919749,28.335221 73.95117,24.644556 63.863443,12.103082 51.803607,6.9536927 40.660154,7.2656493 Z" /><ellipse
         style="mix-blend-mode:overlay;fill:url(#radialGradient27);stroke-width:16.3121;stroke-linecap:round;stroke-linejoin:round"
         id="path26"
         cx="80"
         cy="80"
         rx="69.260925"
         ry="68.051346" /><path
         id="path4"
         style="display:inline;mix-blend-mode:multiply;fill:url(#radialGradient4);fill-opacity:1;stroke-width:25;stroke-linecap:round;stroke-linejoin:round"
         d="M 40.660154,7.2656493 C 15.821813,7.960989 -19.423132,41.530138 33.306638,105.57619 c 9.963229,12.10142 45.146876,49.60842 46.69336,50.34571 1.546484,-0.73729 36.730132,-38.24429 46.693362,-50.34571 C 179.42313,41.530139 144.1782,7.960989 119.33985,7.2656493 108.1964,6.9536927 96.136553,12.103082 86.048826,24.644556 c -2.968579,3.690665 -4.291532,6.07578 -5.447266,7.283203 -0.152972,0.159816 -0.375281,0.243906 -0.601562,0.253906 -0.226281,-0.01 -0.448591,-0.09409 -0.601563,-0.253906 C 78.242701,30.720336 76.919749,28.335221 73.95117,24.644556 63.863443,12.103082 51.803607,6.9536927 40.660154,7.2656493 Z" /><path
         id="path12"
         style="display:inline;mix-blend-mode:multiply;fill:url(#radialGradient6);fill-opacity:1;stroke-width:25;stroke-linecap:round;stroke-linejoin:round"
         d="M 119.33984,7.2656493 C 144.17819,7.960989 179.42313,41.530138 126.69336,105.57619 116.73013,117.67761 81.546482,155.18461 79.999998,155.9219 78.453514,155.18461 43.269872,117.67761 33.306642,105.57619 -19.423128,41.530139 15.821802,7.960989 40.660152,7.2656493 51.803602,6.9536927 63.863443,12.103082 73.95117,24.644556 c 2.968579,3.690665 4.291532,6.07578 5.447266,7.283203 0.152972,0.159816 0.375281,0.243906 0.601562,0.253906 0.226281,-0.01 0.448591,-0.09409 0.601563,-0.253906 1.155734,-1.207423 2.478686,-3.592538 5.447265,-7.283203 C 96.136553,12.103082 108.19639,6.9536927 119.33984,7.2656493 Z" /><path
         id="path6"
         style="display:inline;mix-blend-mode:multiply;fill:url(#radialGradient24);fill-opacity:1;stroke-width:25;stroke-linecap:round;stroke-linejoin:round"
         d="m 40.660159,7.2656493 c -24.83835,0.6953397 -60.08329,34.2644887 -7.35352,98.3105407 9.96323,12.10142 45.146878,49.60842 46.693362,50.34571 1.546484,-0.73729 36.730129,-38.24429 46.693359,-50.34571 C 179.42313,41.530139 144.1782,7.960989 119.33985,7.2656493 108.1964,6.9536927 96.136556,12.103082 86.048829,24.644556 c -2.968579,3.690665 -4.291532,6.07578 -5.447266,7.283203 -0.152972,0.159816 -0.375281,0.243906 -0.601562,0.253906 -0.226281,-0.01 -0.448591,-0.09409 -0.601563,-0.253906 C 78.242704,30.720336 76.919752,28.335221 73.951173,24.644556 63.863446,12.103082 51.803609,6.9536927 40.660159,7.2656493 Z" /><path
         id="path5"
         style="display:inline;fill:url(#radialGradient21);fill-opacity:1;stroke-width:22.6631;stroke-linecap:round;stroke-linejoin:round"
         d="m 42.156243,14.363306 c -27.456403,0.309875 -47.4986049,39.391376 -3.734375,91.048824 9.156069,10.80744 40.15024,44.15238 41.578125,44.80859 1.427885,-0.65621 32.422067,-34.00115 41.578137,-44.80859 43.76423,-51.657448 23.72203,-90.738949 -3.73438,-91.048824 -10.74381,-0.121256 -22.624207,5.69426 -32.259773,19.015625 -2.507333,3.466438 -3.962195,5.407763 -5.029297,6.482422 -0.14124,0.142249 -0.345759,0.215709 -0.554687,0.224609 -0.208928,-0.0089 -0.413448,-0.08236 -0.554688,-0.224609 C 78.378203,38.786694 76.923341,36.845369 74.416008,33.378931 64.780442,20.057566 52.900052,14.24205 42.156243,14.363306 Z" /><path
         id="path25"
         style="display:inline;mix-blend-mode:multiply;fill:url(#radialGradient25);fill-opacity:1;stroke-width:25;stroke-linecap:round;stroke-linejoin:round"
         d="m 119.33984,7.2656493 c 24.83835,0.6953397 60.08329,34.2644887 7.35352,98.3105407 -9.96323,12.10142 -45.146875,49.60842 -46.693359,50.34571 -1.546484,-0.73729 -36.730129,-38.24429 -46.693359,-50.34571 -52.72977,-64.046051 -17.48484,-97.615201 7.35351,-98.3105407 11.14345,-0.3119566 23.203294,4.8374327 33.291021,17.3789067 2.968579,3.690665 4.291532,6.07578 5.447266,7.283203 0.152972,0.159816 0.375281,0.243906 0.601562,0.253906 0.226281,-0.01 0.448591,-0.09409 0.601563,-0.253906 1.155734,-1.207423 2.478686,-3.592538 5.447265,-7.283203 C 96.136556,12.103082 108.19639,6.9536927 119.33984,7.2656493 Z" /><path
         id="path21"
         style="display:inline;fill:url(#linearGradient23);fill-opacity:1;stroke-width:22.6631;stroke-linecap:round;stroke-linejoin:round"
         d="m 42.156243,14.363306 c -27.456403,0.309875 -47.4986049,39.391376 -3.734375,91.048824 9.156069,10.80744 40.15024,44.15238 41.578125,44.80859 1.427885,-0.65621 32.422067,-34.00115 41.578137,-44.80859 43.76423,-51.657448 23.72203,-90.738949 -3.73438,-91.048824 -10.74381,-0.121256 -22.624207,5.69426 -32.259773,19.015625 -2.507333,3.466438 -3.962195,5.407763 -5.029297,6.482422 -0.14124,0.142249 -0.345759,0.215709 -0.554687,0.224609 -0.208928,-0.0089 -0.413448,-0.08236 -0.554688,-0.224609 C 78.378203,38.786694 76.923341,36.845369 74.416008,33.378931 64.780442,20.057566 52.900052,14.24205 42.156243,14.363306 Z" /><path
         id="path7"
         style="display:inline;fill:url(#linearGradient8);fill-opacity:1;stroke-width:22.6631;stroke-linecap:round;stroke-linejoin:round"
         d="m 42.156243,14.363306 c -27.456403,0.309875 -47.4986049,39.391376 -3.734375,91.048824 9.156069,10.80744 40.15024,44.15238 41.578125,44.80859 1.427885,-0.65621 32.422067,-34.00115 41.578137,-44.80859 43.76423,-51.657448 23.72203,-90.738949 -3.73438,-91.048824 -10.74381,-0.121256 -22.624207,5.69426 -32.259773,19.015625 -2.507333,3.466438 -3.962195,5.407763 -5.029297,6.482422 -0.14124,0.142249 -0.345759,0.215709 -0.554687,0.224609 -0.208928,-0.0089 -0.413448,-0.08236 -0.554688,-0.224609 C 78.378203,38.786694 76.923341,36.845369 74.416008,33.378931 64.780442,20.057566 52.900052,14.24205 42.156243,14.363306 Z" /><path
         id="path23"
         style="display:inline;mix-blend-mode:multiply;fill:url(#radialGradient7);fill-opacity:1;stroke-width:25;stroke-linecap:round;stroke-linejoin:round"
         d="m 40.660159,7.2656493 c -24.83835,0.6953397 -60.08329,34.2644887 -7.35352,98.3105407 9.96323,12.10142 45.146878,49.60842 46.693362,50.34571 1.546484,-0.73729 36.730129,-38.24429 46.693359,-50.34571 C 179.42313,41.530139 144.1782,7.960989 119.33985,7.2656493 108.1964,6.9536927 96.136556,12.103082 86.048829,24.644556 c -2.968579,3.690665 -4.291532,6.07578 -5.447266,7.283203 -0.152972,0.159816 -0.375281,0.243906 -0.601562,0.253906 -0.226281,-0.01 -0.448591,-0.09409 -0.601563,-0.253906 C 78.242704,30.720336 76.919752,28.335221 73.951173,24.644556 63.863446,12.103082 51.803609,6.9536927 40.660159,7.2656493 Z" /></g></g></svg>
