<svg xmlns="http://www.w3.org/2000/svg" xml:space="preserve" width="3000" height="3600" viewBox="0 0 3000 3600"><rect width="3000" height="3600" rx="50.957" ry="1.526" style="opacity:1;fill:#fc1aa2;fill-opacity:1;stroke-width:5.66929;stroke-linecap:round;stroke-linejoin:round"/><rect width="2846.286" height="3415.544" x="76.857" y="92.228" rx="48.346" ry="1.448" style="opacity:1;fill:#fe8dd1;fill-opacity:1;stroke-width:5.37881;stroke-linecap:round;stroke-linejoin:round"/><path d="M2065.429 1535.815c30.18-42.935 27.94-69.679-29.637-84.634-6.063-1.429-9.548-2.24-11.47.111-1.922 2.35-2.281 7.863-3.433 12.53-1.152 4.668-3.096 8.493-4.232 11.149-1.135 2.655-1.463 4.143 1.162 8.531 5.332 8.913 9.101 11.259 31.687 47.347 4.436 7.09 6.573 10.62 8.315 11.797s3.089 0 7.608-6.83" style="fill:#f7ec27;fill-opacity:1;stroke-width:14.2334;stroke-linecap:round;stroke-linejoin:round" transform="translate(48.202 -7.115)"/><path d="M2207.85 1603.592c18.854 5.533 35.85 20.504 34.93 41.225-1.641 21.086-24.43 37.813-41.141 23.307-18.181-15.781 2.226-64.882 6.211-64.532" style="fill:#009fd9;fill-opacity:1;stroke-width:14.062;stroke-linecap:round;stroke-linejoin:round" transform="translate(48.202 -7.115)"/><path d="M2433.12 1458.026c18.523 5.43 36.675 33.494 29.24 50.184-2.31 5.188-16.205 23.578-22.994 19.775-10.893-8.693-20.954-18.499-31.423-27.739-5.336-4.705-8.136-7.129-8.045-10.047s3.073-6.33 7.308-11.748c4.236-5.418 9.725-12.84 13.986-16.932s7.297-4.85 11.928-3.493z" style="fill:#fe15a6;fill-opacity:1;stroke-width:13.6653;stroke-linecap:round;stroke-linejoin:round" transform="translate(48.202 -7.115)"/><g transform="translate(48.202 -7.115)"><path d="M734.812 2506.22c-7.26 2.499-14.137 7.933-19.333 17.75-8.098 14.98-9.89 30.385 1.039 43.303 1.031 1.22 2.066 2.4 2.982 3.643 8.9 11.086-18.745 7.157-28.295-5.422-1.77-2.33-2.39-4.412-3.891-6.644-5.146-7.647-12.98-6.886-17.559-3.92-14.238 9.228 1.104 28.701 2.703 30.346 21.44 22.044 58.122 23.474 78.598 11.225 3.386-2.025 5.245-3.772 6.754-4.7 1.51-.928 2.672-1.04 4.016-.727 20.794 6.58 73.229-2.387 64.632-23.915-2.303-5.766-8.361-5.631-15.078-3.84-6.716 1.79-14.09 5.238-19.023 6.086-3.455.594-7.022.68-10.731 1.037-3.298.317-4.892.569-5.914.339s-1.473-.934-.424-3.303c18.216-29.303 2.408-60.798-27.277-62.894-4.349-.307-8.844.136-13.2 1.636m9.216 26.52c4.134-1.425 8.449.751 11.31 4.91 6.372 9.267 2.304 21.943-2.31 25.707-1.556 1.27-3.286 1.668-6.321.282-9.697-4.426-12.324-11.013-11.768-16.955.557-5.943 4.298-11.243 7.334-13.107a9 9 0 0 1 1.755-.837M1478.012 2148.39c2.051-5.387 3.677-11.63 2.927-16.924-1.601-11.306-21.903-21.773-28.805 5.761-6.67 26.609 3.027 45.647-3.567 54.861-.432.604-62.872 52.419-102.12 107.181-12.492 17.43 2.244 24.967 12.718 17.925 9.484-6.377 64.41-55.006 108.274-103.89 4.743-5.287 10.703-6.213 17.022-5.71 6.319.502 12.997 2.432 19.178 2.86 27.527 1.902 25.529-22.531 4.875-23.8-11.165-.687-9.847-3.368-4.869-6.33 4.978-2.96 13.614-6.201 17.086-8.006 11.672-6.07 23.585-18.486 7.162-25.395-2.558-.81-5.126-1.131-8.657-.483-10.554 1.937-37.06 18.327-42.697 23.424-2.393 1.463-3.567 1.298-4.077.318s-.356-2.775-.093-4.57c.333-2.276 4.339-13.792 5.644-17.221z" style="fill:#feb0df;fill-opacity:1;stroke-width:15.5316;stroke-linecap:round;stroke-linejoin:round"/><path d="M408.233 783.27c-10.766 10.674-21.58 21.305-32.292 32.034-3.87 3.887-5.3 5.454-7.055 6.325-5.067 2.519-11.131-1.613-5.604-8.63 3.794-4.818 15.38-15.18 31.79-33.883 3.945-4.496 5.389-6.198 8.708-8.533 7.568-5.326 13.01.773 11.794 4.387-.699 2.076-3.185 4.274-7.34 8.3" style="fill:#feb0df;fill-opacity:1;stroke-width:5.66929;stroke-linecap:round;stroke-linejoin:round" transform="rotate(-16.65 2816.96 2820.488)scale(2.7396)"/><path d="M380.831 865.888c-.134 6.293-2.923 10.308-6.227 10.763-3.303.455-7.12-2.65-9.312-10.6-1.407-5.106-2.495-12.231-3.35-20.425-.854-8.195-1.475-17.458-1.947-26.84-.28-5.273 7.945-9.998 10.293-.757 2.253 8.867 4.047 15.86 5.47 21.467 4.251 16.761 5.184 21.182 5.073 26.392" style="fill:#020202;fill-opacity:1;stroke-width:5.87264;stroke-linecap:round;stroke-linejoin:round" transform="rotate(-16.65 2816.96 2820.488)scale(2.7396)"/><path d="M506.996 795.849c-.75 15.143-1.566 30.284-2.24 45.431-.235 5.48-.235 7.602-.942 9.428-2.043 5.277-9.307 6.316-9.959-2.592-.447-6.117 1.12-21.581.622-46.458-.12-5.98-.201-8.21.675-12.173 1.996-9.036 10.127-8.203 11.667-4.714.884 2.003.53 5.303.177 11.078" style="opacity:1;fill:#feb0df;fill-opacity:1;stroke-width:5.66929;stroke-linecap:round;stroke-linejoin:round" transform="rotate(-16.65 2825.611 2859.786)scale(2.7396)"/><path d="M541.83 874.844c4.162 4.722 4.829 9.565 2.706 12.137-2.122 2.571-7.035 2.871-14.03-1.495-4.493-2.804-10.118-7.31-16.296-12.762-6.177-5.451-12.906-11.848-19.606-18.431-3.777-3.692-.924-12.738 7.061-7.527 7.662 5 13.717 8.93 18.561 12.093 14.478 9.455 18.159 12.077 21.604 15.985" style="fill:#020202;fill-opacity:1;stroke-width:5.87264;stroke-linecap:round;stroke-linejoin:round" transform="rotate(-16.65 2825.611 2859.786)scale(2.7396)"/><path d="M419.355 624.95c-18.665 8.483-41.645 47.18-45.633 54.077-13.907 24.05-25.778 54.583-26.946 58.102-.975 2.94-1.197 4.16-.586 5.147 1.083 1.75 5.376 2.925 8.294 3.813 72.225 20.188 145.125 40.246 219.399 51.628 1.96.133 3.113-.095 3.85-.525.738-.429 1.06-1.06 1.359-1.731 1.064-5.94 1.666-11.994 2.08-18.058 5.016-73.513-5.368-105.488-20.082-127.942-29.406-33.453-100.111-42.322-141.735-24.512" style="opacity:1;fill:#e33641;fill-opacity:1;stroke-width:5.66929;stroke-linecap:round;stroke-linejoin:round" transform="rotate(-16.65 2352.147 2952.656)scale(2.75417 2.9862)"/><path d="M572.05 782.532c-.06 1.482-.246 2.525-.844 3.118-.599.592-1.608.735-3.31.417-113.616-21.204-165.293-39.187-207.242-50.322-3.918-1.04-3.467-2.78-2.622-4.803 4.792-11.467 36.247-84.08 71.8-102.56 45.424-22.62 100.604-2.185 112.077 10.253 16.044 17.395 24.02 42.265 27.764 68.339s3.257 53.35 2.376 75.558" style="opacity:1;fill:#ea575f;fill-opacity:1;stroke-width:5.66929;stroke-linecap:round;stroke-linejoin:round" transform="rotate(-16.65 2352.147 2952.656)scale(2.75417 2.9862)"/><path d="M1202.542 1625.113c-45.646 15.615-104.586 39.8-138.108 57.15-18.353 9.5-32.559 17.792-56.5 28.677a3220 3220 0 0 1-4.65 5.462c-22.95 26.906-53.01 61.316-84.278 96.13s-63.739 70.022-91.553 98.546c-7.382 7.57-14.39 14.65-20.963 21.131-34.24 97.846-1.844 189.74 16.021 225.628 84.067 168.872 287.742 174.897 422.19 56.388 150.394-132.564 46.22-263.235 20.75-291.08-9.087 4.514-17.018 6.768-23.094 6.182-11.285-1.09-5.661-10.12-4.594-11.327 2.622-2.96 7.907-5.506 14.258-9.34l.072-.04c-2.388-3.249-4.295-6.777-4.29-9.769 0-2.024.838-3.495 2.105-4.5 6.585-4.119 12.369-.108 17.136 4.503 33.554-24.952 73.324-72.824 99.66-113.123-11.881 8.853-26.202 12.231-41.412 11.062-38.983-2.997-83.806-35.866-108.35-82.975-19.623-37.662-21.573-72.014-14.4-88.705z" style="fill:#feb0df;stroke-width:15.5316;stroke-linecap:round;stroke-linejoin:round"/><path d="M1035.124 1647.83c7.543 2.813 6.845 7.943 3.925 12.917-10.942 18.643-230.605 271.883-279.915 302.98-4.532 2.857-6.67 3.958-9.641.592-8.946-10.138-174.912-358.757-193.956-444.195-1.915-8.592-2.78-19.702-2.78-19.702 157.515 50.807 326.79 89.403 482.367 147.409" style="baseline-shift:baseline;display:inline;overflow:visible;vector-effect:none;fill:#ff3131;stroke-width:2.73961;stroke-linecap:round;stroke-linejoin:round;stop-color:#000"/><circle cx="282.352" cy="1890.776" r="54.066" style="fill:#fbee04;fill-opacity:1;stroke:none;stroke-width:8.62834;stroke-linecap:round;stroke-linejoin:round;stroke-dasharray:none;stroke-opacity:1;paint-order:normal" transform="rotate(-16.65)"/><path d="M548.151 1494.588a7.43 7.43 0 0 0-2.802 6.412c2.357 30.3 17.8 70.814 40.394 125.963 18.432 44.992 41.27 96.959 63.79 146.567 22.52 49.607 44.723 96.846 61.868 132.352 8.573 17.753 15.879 32.57 21.35 43.316 2.735 5.373 5.008 9.72 6.78 12.962s2.221 4.618 4.39 7.076c2.336 2.647 6.946 5.037 10.866 4.474 3.92-.564 5.962-2.217 8.31-3.698 14.071-8.873 36.542-30.41 64.356-58.934s60.285-63.732 91.553-98.546 61.327-69.224 84.279-96.13c11.475-13.453 21.169-25.026 28.374-33.864 7.206-8.838 11.543-14.184 13.799-18.028 1.893-3.226 3.777-7.243 2.866-12.34-.912-5.097-5.374-9.351-10.601-11.3-156.219-58.245-325.601-96.854-482.682-147.521a7.43 7.43 0 0 0-6.89 1.24m13.569 16.31c154.752 49.208 319.497 87.482 470.807 143.897 2.316.863 1.275.576 1.17-.01 0-.014-.023.058-.025.047-.095-.505-.028.44-1.032 2.151-.48.817-5.402 7.463-12.496 16.164s-16.738 20.216-28.165 33.612c-22.854 26.792-52.85 61.13-84.03 95.843-31.178 34.714-63.551 69.81-91.134 98.097s-51.06 50.07-61.643 56.744c-.79.497-.414.31-.905.56-.345-.586-.575-.916-1.698-2.97-1.652-3.021-3.88-7.281-6.577-12.577-5.392-10.593-12.666-25.343-21.209-43.034-17.084-35.381-39.248-82.54-61.717-132.034s-45.25-101.336-63.57-146.057c-26.132-63.783-35.607-93.757-37.776-110.433z" style="baseline-shift:baseline;display:inline;overflow:visible;vector-effect:none;fill:#ca2932;stroke-width:2.73961;stroke-linecap:round;stroke-linejoin:round;stop-color:#000"/><path d="M548.364 1465.868c6.551-56.405 41.046-57.424 37.92-41.817-2.741 13.678-20.992 30.529-24.11 49.197-2.622 23.608 5.932 41.339-25.327 39.078-10.703-.849-24.916-2.489-43.756 1.128-10.137 1.947-26.49 11.767-33.722.555-3.687-8.567 1.18-14.209 8.732-17.08 20.642-7.845 43.67-4.493 49.27-6.525.555-.771-.21-2.114-3.044-4.109-14.66-10.065-31.83-14.109-49.125-16.87-39.677-6.935-26.994-27.05-4.601-24.592 10.977 1.204 27.998 6.244 55.184 17.626 2.695 1.129 3.927 1.607 4.11 1.008-3.525-10.05-23.61-71.337 3.055-64.282 3.959 1.693 7.814 6.942 8.384 20.21.402 9.359.642 23.004 7.41 45.63.596 1.995 6.683 20.178 9.62.844z" style="fill:#ca2932;fill-opacity:1;stroke:none;stroke-width:15.5316;stroke-linecap:round;stroke-linejoin:round;stroke-dasharray:none;stroke-opacity:1;paint-order:normal"/><path d="M1269.422 1901.26c171.43 181.535 17.45 365.3-161.1 407.247-90.195 21.189-189.265 5.79-262.043-74.915-55.901-61.99-79.434-147.685-74.237-219.625 4.062-45.179 9.516-93.863 43.304-127.273 6.315-4.446 4.885 9.08 1.784 19.584-50.692 107.172-14.056 212.516 5.38 251.561 84.067 168.873 287.742 174.893 422.19 56.385 155.29-136.88 39.17-271.74 18.527-293.468-1.665-1.752-3.24-3.292-4.754-4.817-3.997-4.026-10.678-11.491-10.67-17.087 0-2.023.837-3.496 2.104-4.5 7.723-4.83 14.344 1.52 19.515 6.907" style="fill:#ec8fc5;fill-opacity:1;stroke:none;stroke-width:15.5316;stroke-linecap:round;stroke-linejoin:round;stroke-dasharray:none;stroke-opacity:1;paint-order:normal"/><path d="M805.355 1847.74a54.066 54.066 0 0 0-36.306 67.29 54.1 54.1 0 0 0 11.861 20.948c10.375-9.628 22.667-21.703 35.905-35.279 12.445-12.762 25.866-26.91 39.711-41.784a54.07 54.07 0 0 0-51.171-11.174M965.824 1672.98a54.066 54.066 0 0 0-36.31 67.295 54.07 54.07 0 0 0 13.61 22.777c18.06-20.505 34.807-39.824 48.855-56.292a2470 2470 0 0 0 21.458-25.469 54.07 54.07 0 0 0-47.613-8.312M626.273 1659.605a54 54 0 0 0-9.188 3.697c13.655 31.96 28.642 65.805 43.568 98.764a54.066 54.066 0 0 0 32.91-66.15 54.066 54.066 0 0 0-67.29-36.311M646.769 1536.766a54 54 0 0 0 2.245 17.01 54.066 54.066 0 0 0 67.289 36.306 54.07 54.07 0 0 0 31.15-24.452c-33.67-9.552-67.306-19.08-100.684-28.864M802.748 1581.385a54.1 54.1 0 0 0 2.162 18.879 54.066 54.066 0 0 0 67.289 36.305 54.07 54.07 0 0 0 31.59-25.22c-33.441-10.35-67.196-20.247-101.04-29.964M561.734 1511.023c1.938 14.71 9.534 39.727 29.133 88.968a54.07 54.07 0 0 0 12.96-45.479 54.07 54.07 0 0 0-33.139-40.778q-3.859-1.213-7.71-2.436a54 54 0 0 0-1.244-.275" style="fill:#fbee04;fill-opacity:1;stroke:none;stroke-width:8.62834;stroke-linecap:round;stroke-linejoin:round;stroke-dasharray:none;stroke-opacity:1;paint-order:normal"/><path d="M1392.232 1665.275c12.707 42.484 1.704 103.25-40.78 115.956s-107.225-22.504-119.932-64.988c-12.706-42.484-33.635-98.416 8.85-111.123 42.484-12.706 139.156 17.67 151.862 60.155" style="fill:#feb0df;stroke-width:15.5316;stroke-linecap:round;stroke-linejoin:round"/><path d="M1248.06 1587.446a124 124 0 0 0-16.985 5.677c-6.547 2.984-9.64 5.792-12.31 7.446-8.086 5.008-101.534 31.701-153.585 58.59-31.877 15.211-60.817 26.357-77.556 60.62 37.317-15.6 53.804-25.608 76.81-37.515 33.522-17.35 92.462-41.535 138.108-57.15-7.173 16.691-5.222 51.043 14.4 88.705 24.544 47.108 69.368 79.977 108.35 82.975 15.21 1.169 29.53-2.21 41.411-11.062-30.4 46.52-78.704 103.13-114.682 122.928-6.351 3.834-11.636 6.38-14.258 9.34-1.067 1.206-6.692 10.237 4.594 11.327 13.508 1.304 36.194-11.44 60.339-31.808 70.893-59.802 111.767-146.75 115.196-174.111 8.42-83.603-84.268-157.819-169.833-135.962m-15.664 28.169c8.857-2.543 16.434-4.388 22.199-5.327 108.36-20.448 148.608 73.246 138.869 111.8-10.87 43.025-36.69 55.535-64.26 52.353-27.568-3.182-56.884-22.057-74.743-41.802-25.413-29.851-57.14-82.94-22.065-117.024" style="fill:#ec8fc5;fill-opacity:1;stroke:none;stroke-width:15.5316;stroke-linecap:round;stroke-linejoin:round;stroke-dasharray:none;stroke-opacity:1;paint-order:normal"/><path d="M1346.255 1689.154c-5.142 4.028-12.95 4.317-18.829.896-6.884-4.006-9.57-10.943-9.443-17.527.197-10.224 6.51-16.693 13.656-17.873 17.429-2.879 26.406 25.269 14.616 34.504" style="fill:#c97ca3;fill-opacity:1;stroke:none;stroke-width:15.5316;stroke-linecap:round;stroke-linejoin:round;stroke-dasharray:none;stroke-opacity:1;paint-order:normal"/><path d="M548.151 1494.588a7.43 7.43 0 0 0-2.802 6.412c2.357 30.3 17.8 70.814 40.394 125.963 18.432 44.992 41.27 96.959 63.79 146.567 22.52 49.607 44.723 96.846 61.868 132.352 8.573 17.753 15.879 32.57 21.35 43.316 2.735 5.373 5.008 9.72 6.78 12.962s2.221 4.618 4.39 7.076c2.336 2.647 6.946 5.037 10.866 4.474 3.92-.564 5.962-2.217 8.31-3.698 14.071-8.873 36.542-30.41 64.356-58.934s60.285-63.732 91.553-98.546 61.327-69.224 84.279-96.13c11.475-13.453 21.169-25.026 28.374-33.864 7.206-8.838 11.543-14.184 13.799-18.028 1.893-3.226 3.777-7.243 2.866-12.34-.912-5.097-5.374-9.351-10.601-11.3-156.219-58.245-325.601-96.854-482.682-147.521a7.43 7.43 0 0 0-6.89 1.24m13.569 16.31c154.752 49.208 319.497 87.482 470.807 143.897 2.316.863 1.275.576 1.17-.01 0-.014-.023.058-.025.047-.095-.505-.028.44-1.032 2.151-.48.817-5.402 7.463-12.496 16.164s-16.738 20.216-28.165 33.612c-22.854 26.792-52.85 61.13-84.03 95.843-31.178 34.714-63.551 69.81-91.134 98.097s-51.06 50.07-61.643 56.744c-.79.497-.414.31-.905.56-.345-.586-.575-.916-1.698-2.97-1.652-3.021-3.88-7.281-6.577-12.577-5.392-10.593-12.666-25.343-21.209-43.034-17.084-35.381-39.248-82.54-61.717-132.034s-45.25-101.336-63.57-146.057c-26.132-63.783-35.607-93.757-37.776-110.433z" style="baseline-shift:baseline;display:inline;overflow:visible;vector-effect:none;fill:#ca2932;stroke-width:2.73961;stroke-linecap:round;stroke-linejoin:round;stop-color:#000"/><path d="M1294.066 1714.51c-5.142 4.029-12.95 4.318-18.828.898-6.885-4.007-9.57-10.944-9.444-17.528.197-10.224 6.51-16.693 13.656-17.873 17.429-2.879 26.406 25.269 14.616 34.504" style="fill:#c97ca3;fill-opacity:1;stroke:none;stroke-width:15.5316;stroke-linecap:round;stroke-linejoin:round;stroke-dasharray:none;stroke-opacity:1;paint-order:normal"/><path d="M890.495 2133.166c-36.153-17.338-65.275-59.119-53.396-103.854 11.457-43.147 56.698-53.987 95.077-40.988 52.13 17.656 65.639 65.342 54.15 102.876s-47.974 64.916-95.83 41.966" style="fill:#ff8dd1;fill-opacity:1;stroke-width:15.5316;stroke-linecap:round;stroke-linejoin:round"/><path d="M1237.332 2007.46c-.586-3.22-1.128-5.754-.993-7.466.184-2.324 3.082-5.432 6.468-6.263 3.387-.832 7.261.613 9.397 7.395 16.445 52.205-15.015 100.983-60.645 126.093-43.051 23.69-82.827 20.078-110.327 8.765-13.75-5.656-24.43-13.237-30.916-20.294-16.668-18.133 1.378-22.163 4.486-21.83 2.785.3 4.857 2.294 8.846 5.064 34.128 23.7 65.087 26.736 89.789 21.862 47.758-9.423 94.825-53.248 83.895-113.325" style="fill:#d64790;fill-opacity:1;stroke-width:15.5316;stroke-linecap:round;stroke-linejoin:round"/><path d="M1154.528 1767.889c-8.684 20.476-28.594 36.882-52.875 39.423-28.288 2.96-49.279-19.6-54.849-45.842-6.197-29.194 7.437-52.15 27.514-63.448 47.138-26.525 101.374 19.96 80.21 69.867" style="fill:#ed90c6;fill-opacity:1;stroke-width:15.5316;stroke-linecap:round;stroke-linejoin:round"/><path d="M1062.697 1751.482c-1.412-40.864 45.032-48.977 67.135-26.284 25.269 25.946-9.388 69.636-42.132 60.695-13.587-3.71-24.361-15.85-25.003-34.41" style="fill:#fff;fill-opacity:1;stroke-width:15.5316;stroke-linecap:round;stroke-linejoin:round"/><path d="M1103.845 1771.252c-4.082 3.922-10.153 5.591-16.226 3.396-9.033-3.266-14.348-11.353-14.531-18.783-.418-16.916 26.404-21.06 34.028-4.016 2.847 6.365 2.187 14.159-3.271 19.403" style="fill:#020202;fill-opacity:1;stroke-width:15.5316;stroke-linecap:round;stroke-linejoin:round"/><path d="M961.76 1894.159c-37.465-20.538-34.598-66.002-14.923-95.252 19.676-29.25 56.161-42.288 85.934 2.026 20.67 30.764 14.77 60.569-2.223 79.433s-45.08 26.789-68.787 13.793" style="fill:#ed90c6;fill-opacity:1;stroke-width:15.5316;stroke-linecap:round;stroke-linejoin:round"/><path d="M1017.646 1867.57c-7.029 8.677-19.73 14.344-32.614 13.237-35.721-3.07-49.017-53.414-19.984-78.177 16.601-14.16 38.145-8.287 51.342 6.306s18.045 37.908 1.256 58.634" style="fill:#fff;fill-opacity:1;stroke-width:15.5316;stroke-linecap:round;stroke-linejoin:round"/><path d="M991.723 1853.139c-4.082 3.922-10.154 5.592-16.226 3.396-9.033-3.266-14.348-11.353-14.532-18.783-.417-16.915 26.404-21.06 34.029-4.015 2.847 6.364 2.187 14.158-3.271 19.402" style="fill:#020202;fill-opacity:1;stroke-width:15.5316;stroke-linecap:round;stroke-linejoin:round"/><path d="M710.095 2192.038c-2.6-5.146-4.865-11.186-4.67-16.529.418-11.412 19.522-23.932 29.249 2.736 9.399 25.771 1.732 45.714 9.249 54.194.492.555 67.979 45.6 112.706 95.987 14.236 16.038.363 25.064-10.786 19.149-10.095-5.356-69.779-48.014-118.485-92.075-5.267-4.765-11.29-5.066-17.523-3.91s-12.674 3.77-18.777 4.838c-27.18 4.753-27.732-19.756-7.322-23.165 11.033-1.843 9.443-4.373 4.184-6.8-5.258-2.428-14.185-4.753-17.825-6.188-12.24-4.824-25.38-15.935-9.763-24.513 2.46-1.072 4.98-1.658 8.56-1.38 10.698.83 38.765 14.375 44.9 18.86 2.532 1.206 3.683.92 4.088-.108s.066-2.797-.382-4.555c-.568-2.229-5.748-13.266-7.403-16.541" style="fill:#feb0df;fill-opacity:1;stroke-width:15.5316;stroke-linecap:round;stroke-linejoin:round"/></g><path d="M1592.728 1676.142c2.417 40.563-10.283 75.58-28.528 118.983-14.123 34.617-28.763 68.917-44.472 102.858-11.711 26.94-20.509 55.514-26.25 84.349-5.725 29.865-6.879 58.357-4.295 87.893 5.958 68.083-5.19 72.168-8.672 122.063-2.275 32.604-.813 58.697 3.51 83.246 4.204 26.58 13.37 51.963 20.615 77.8 5.124 18.275 12.968 36.926 21.78 57.274.905 2.09 33.603 77.628 41.095 104.936.35 1.276-.105 3.218-1.322 3.699-1.098.433-2.562.504-4.112-.812-1.538-1.305-2.68-4.477-3.261-6.42-13.968-46.665-35.449-90.583-52.104-136.276-3.074-8.727-5.017-15.223-7.823-24.746-20.24-53.938-27.556-109.125-22.729-166.419 1.469-28.345 9.35-43.13 10.39-72.023 1.622-45.081-12.153-52.564 1.263-127.046 11.398-70.238 47.503-132.266 73.81-197.44 30.757-78.484 26.016-109.737 28.277-118.276.593-2.242 1.784-2.766 2.313-2.124s.396 2.45.33 3.355-.066.905.185 5.126" style="fill:#91c9bd;fill-opacity:1;stroke-width:15.5316;stroke-linecap:round;stroke-linejoin:round" transform="translate(48.202 -7.115)"/><path d="M1927.008 1784.074c-22.458 33.865-53.66 54.209-94.337 77.92-32.098 19.17-64.42 37.774-97.38 55.448-25.555 14.484-49.766 32.027-71.69 51.616-22.533 20.421-40.586 42.494-56.28 67.648-36.176 57.984-47.54 54.544-80.322 92.32-21.422 24.684-35.943 46.412-47.249 68.628-12.623 23.766-20.56 49.56-30.307 74.56-6.894 17.684-11.84 37.303-17.034 58.86-.533 2.214-19.825 82.233-30.258 108.559-.487 1.23-2.018 2.508-3.28 2.16-1.138-.314-2.35-1.138-2.798-3.121-.443-1.967.551-5.188 1.255-7.09 16.897-45.687 26.14-93.695 40.305-140.22 2.791-8.822 5.145-15.18 8.628-24.477 16.258-55.269 43.595-103.764 81.902-146.642 18.216-21.767 33.404-28.842 51.607-51.303 28.402-35.047 21.894-49.309 77.398-100.757 51.34-49.27 117.484-77.124 177.693-113.383 71.765-44.22 86.769-72.042 93.71-77.506 1.821-1.435 3.088-1.138 3.125-.307s-1.157 2.197-1.754 2.88-.597.682-2.934 4.207" style="fill:#91c9bd;fill-opacity:1;stroke-width:15.5316;stroke-linecap:round;stroke-linejoin:round" transform="translate(48.202 -7.115)"/><path d="M1756.96 1574.477c-9.012 39.622-30.99 69.697-60.636 106.274-23.232 29.293-46.872 58.136-71.439 86.336-18.771 22.594-35.202 47.573-48.77 73.656-13.843 27.076-22.911 54.111-28.682 83.192-13.302 67.037-25.148 67.844-42.43 114.78-11.295 30.67-17.182 56.131-19.889 80.911-3.39 26.696-1.681 53.63-1.944 80.461-.186 18.98 2.135 39.078 4.91 61.078.285 2.26 10.576 83.926 10.14 112.24-.02 1.322-1 3.06-2.302 3.181-1.176.11-2.602-.231-3.722-1.928-1.112-1.683-1.322-5.047-1.338-7.076-.373-48.709-8.728-96.88-11.954-145.406-.512-9.239-.563-16.018-.596-25.947-4.365-57.444 4.03-112.477 24.673-166.141 9.33-26.806 21.028-38.8 30.1-66.252 14.152-42.832 3.016-53.866 36.708-121.634 30.569-64.255 82.566-113.726 126.036-168.954 51.46-66.765 55.64-98.098 60.196-105.665 1.196-1.987 2.486-2.158 2.815-1.393s-.305 2.464-.621 3.314c-.317.85-.317.85-1.255 4.973z" style="fill:#91c9bd;fill-opacity:1;stroke-width:15.5316;stroke-linecap:round;stroke-linejoin:round" transform="translate(48.202 -7.115)"/><path d="M806.323 465.833c-.319-.473-.996-.75-2.582-1.604-2.54-1.366-7.111-1.629-9.647-.591-2.536 1.037-4.082 4.151-4.082 4.151s-.122 2.805-.48 3.11c-.358.307-.741.296-3.851.216s-8.947-.234-12.03-.294c-5.759-.112-4.072 3.027-2.826 4.647.714.927 2.514 2.913 12.322 12.764 5.411 5.435 11.002 10.814 13.544 12.73.692.522 2.354 1.42 3.92-.435.759-.9 1.42-2.247 2.059-5.606 1.65-9.208 3.139-18.59 3.972-27.865-.06-.588-.126-.94-.319-1.223m-6.673 10.676c.152.21.25.487.317.854.256 1.415-.25 6.04-.991 10.148-.787 4.36-1.191 6.321-2.07 6.586s-2.23-1.166-4.915-3.591c-5.536-5.002-9.586-8.867-13.17-12.564-.87-.897-.808-1.485.434-1.756 1.232-.267 7.192-.328 17.139-.327 1.883 0 2.802.02 3.256.65" style="fill:#a72204;fill-opacity:1;stroke-width:3.85297;stroke-linecap:round;stroke-linejoin:round" transform="rotate(-4.75 5133.047 6002.193)scale(2.7396)"/><path d="M799.968 477.364c.256 1.414-.252 6.04-.992 10.147-.787 4.359-1.19 6.32-2.07 6.586-.878.265-2.23-1.166-4.915-3.59-5.536-5.002-9.586-8.869-13.17-12.565-.87-.898-.809-1.486.434-1.756 1.231-.268 7.191-.329 17.138-.328 2.512 0 3.308.037 3.575 1.506" style="opacity:.77;fill:#ff1a26;fill-opacity:1;stroke-width:3.85297;stroke-linecap:round;stroke-linejoin:round" transform="rotate(-4.75 5133.047 6002.193)scale(2.7396)"/><path d="M1999.27 1209.53c-11.383-26.564-28.058-51.14-50.917-72.167-114.51-105.337-266.278-21.221-300.611 148.881-16.498 81.738-.927 164.666 37.536 221.823 58.26 86.575 159.323 97.027 236.929 32.555 76.4-63.47 126.393-215.98 77.063-331.092m-13.663 7.235c20.582 46.958 25.954 107.649 5.595 178.306-26.419 91.692-91.617 170.536-169.302 175.037-52.651 3.05-102.895-30.074-136.846-90.72-36.555-65.297-39.004-149.514-16.136-220.986 22.869-71.473 71.055-130.2 135.772-144.515 70.069-15.497 146.615 24.615 180.917 102.878" style="fill:#a72204;fill-opacity:1;stroke-width:10.5556;stroke-linecap:round;stroke-linejoin:round" transform="translate(48.202 -7.115)"/><path d="M1821.899 1570.11c-52.651 3.05-102.894-30.075-136.845-90.721-36.555-65.297-39.005-149.515-16.137-220.988 22.869-71.472 71.055-130.2 135.772-144.513 112.11-24.796 240.804 92.763 186.515 281.183-26.42 91.691-91.62 170.537-169.305 175.038" style="opacity:.730986;fill:#ff1a26;fill-opacity:1;stroke-width:10.5556;stroke-linecap:round;stroke-linejoin:round" transform="translate(48.202 -7.115)"/><path d="M1654.421 1340.293c-1.779 42.584 5.271 85.53 22.657 123.393l19.043-32.743 51.996 7.788-35.058-39.182 23.473-47.042-48.091 21.236z" style="fill:#f8c4b3;fill-opacity:1;stroke-width:2.08403;stroke-linecap:round;stroke-linejoin:round" transform="translate(48.202 -7.115)"/><path d="M1571.246 1228.924c-24.528-15.285-52.26-25.913-83.037-30.094-154.174-20.946-230.591 134.841-161.498 294.026 33.2 76.491 93.39 135.624 157.627 160.523 97.3 37.716 186.187-11.494 212.993-108.76 26.39-95.756-19.796-249.46-126.085-315.695m-7.073 13.748c43.735 26.757 82.844 73.477 106.541 143.085 30.752 90.331 22.344 192.294-38.817 240.405-41.45 32.607-101.611 34.16-164.141 3.817-67.325-32.67-117.487-100.362-139.591-172.074s-16.152-147.445 28.759-196.192c48.624-52.777 134.359-63.635 207.25-19.041" style="fill:#dc720a;fill-opacity:1;stroke-width:10.5556;stroke-linecap:round;stroke-linejoin:round" transform="translate(48.202 -7.115)"/><path d="M1561.883 1660.982s3.093 7.042 2.583 8.227-1.466 1.622-9.209 5.186-22.276 10.244-29.926 13.824c-14.293 6.69-6.35 12.366-1.329 14.84 2.877 1.418 9.703 4.122 45.727 16.479 19.873 6.817 40.121 13.279 48.69 14.916 2.33.446 7.501.644 9.108-5.809.779-3.13.775-7.244-1.718-16.272-7.079-24.631-13.538-45.396-22.705-69.203zm34.238 9.78c.626.333 1.205.895 1.813 1.718 2.34 3.167 6.688 15.152 9.833 26.145 3.339 11.668 4.717 16.978 2.878 18.693s-6.895-.17-16.426-2.886c-19.657-5.6-34.287-10.205-47.57-14.957-3.224-1.154-3.782-2.675-1.055-4.842 2.704-2.148 17.282-9.505 41.736-21.53 4.63-2.277 6.913-3.34 8.79-2.341" style="fill:#dc720a;fill-opacity:1;stroke-width:10.5556;stroke-linecap:round;stroke-linejoin:round" transform="translate(48.202 -7.115)"/><path d="M1631.898 1626.164c-41.452 32.607-101.611 34.158-164.141 3.816-67.325-32.67-117.489-100.362-139.593-172.075-22.105-71.712-16.151-147.444 28.76-196.19 77.798-84.445 250.598-61.582 313.791 124.041 30.752 90.33 22.343 192.296-38.817 240.408M1597.935 1672.48c2.34 3.168 6.686 15.15 9.832 26.144 3.338 11.667 4.717 16.977 2.878 18.692s-6.895-.167-16.425-2.882c-19.657-5.6-34.289-10.209-47.571-14.961-3.225-1.154-3.784-2.675-1.056-4.84 2.704-2.149 17.281-9.506 41.735-21.531 6.174-3.036 8.176-3.912 10.607-.622" style="opacity:.77;fill:#e49b18;fill-opacity:1;stroke-width:10.5556;stroke-linecap:round;stroke-linejoin:round" transform="translate(48.202 -7.115)"/><path d="m1741.944 1451.797 5.334 52.306-32.595 16.953c4.286 4.72 8.705 9.12 13.246 13.195h.01l24.09 5.2 2.345 14.06c7.267 4.165 14.734 7.583 22.348 10.221l10.393-17.875 51.996 7.789-35.058-39.182 23.473-47.042-48.091 21.236z" style="fill:#f8c4b3;fill-opacity:1;stroke-width:2.08403;stroke-linecap:round;stroke-linejoin:round" transform="translate(48.202 -7.115)"/><path d="m-157.648 614.352-129.44-60.829-104.307 97.85 17.852-141.9-125.294-68.966 140.473-26.871 26.871-140.473 68.965 125.294 141.902-17.852-97.85 104.307z" style="fill:#f8c4b3;fill-opacity:1;stroke-width:5.66929;stroke-linecap:round;stroke-linejoin:round" transform="rotate(-16.65 4962.34 -6323.27)scale(.3676)"/><path d="M2150.158 1415.106c-12.16-26.218-29.551-50.293-53.019-70.638-117.56-101.922-266.787-13.376-296.1 157.663-14.085 82.188 3.92 164.622 44.048 220.622 60.783 84.823 162.109 92.297 237.784 25.569 74.5-65.692 119.983-219.606 67.287-333.217m-13.444 7.633c21.954 46.332 29.11 106.84 10.84 178.065-23.71 92.43-86.56 173.158-164.079 179.943-52.538 4.598-103.735-27.034-139.456-86.655-38.46-64.192-43.386-148.3-22.631-220.415s67.192-132.235 131.46-148.447c69.582-17.552 147.275 20.29 183.866 97.51" style="fill:#2f75dc;fill-opacity:1;stroke-width:10.5556;stroke-linecap:round;stroke-linejoin:round" transform="translate(48.202 -7.115)"/><path d="M1847.867 1778.06c-9.409 2.572-4.732 9.156-1.33 12.678 2.229 2.307 7.74 7.161 37.467 30.967 16.399 13.133 33.27 26.058 40.781 30.495 2.043 1.207 6.842 3.144 10.535-2.386 1.791-2.682 3.18-6.556 3.886-15.895 1.159-17.81 2.08-35.828 2.336-53.74q-.734.265-1.51.497c-5.849 1.75-11.09 1.372-11.753-.847l-2.046-6.838c-10.265 2.781-18.567 3.445-19.175 1.412l-3.467-11.591-7.179 1.13s.531 7.674-.35 8.617c-.88.942-1.926 1.033-10.417 1.77-8.491.736-24.428 2.112-32.839 2.896-1.964.183-3.595.467-4.939.834m21.84 12.05c3.27-1.108 19.478-3.105 46.557-6.157 5.128-.578 7.636-.807 9.066.768.476.525.832 1.253 1.125 2.233 1.131 3.772 1.172 16.52.417 27.929-.802 12.109-1.297 17.573-3.607 18.565s-6.434-2.49-14.486-8.267c-16.607-11.916-28.82-21.198-39.715-30.16-2.645-2.176-2.657-3.795.642-4.912" style="fill:#2f75dc;fill-opacity:1;stroke-width:10.5556;stroke-linecap:round;stroke-linejoin:round" transform="translate(48.202 -7.115)"/><path d="M1926.457 1786.952c1.13 3.772 1.171 16.519.416 27.928-.802 12.109-1.3 17.572-3.61 18.565-2.31.992-6.432-2.487-14.484-8.264-16.607-11.916-28.82-21.199-39.714-30.161-2.645-2.176-2.657-3.796.642-4.913 3.271-1.108 19.478-3.104 46.557-6.156 6.837-.77 9.017-.917 10.193 3M1983.474 1780.748c-52.538 4.599-103.733-27.033-139.455-86.654-38.46-64.193-43.387-148.302-22.632-220.417s67.192-132.234 131.46-148.446c111.332-28.084 243.43 85.637 194.708 275.572-23.71 92.43-86.561 173.16-164.08 179.945" style="opacity:.77;fill:#32c2dd;fill-opacity:1;stroke-width:10.5556;stroke-linecap:round;stroke-linejoin:round" transform="translate(48.202 -7.115)"/><path d="m-157.648 614.352-129.44-60.829-104.307 97.85 17.852-141.9-125.294-68.966 140.473-26.871 26.871-140.473 68.965 125.294 141.902-17.852-97.85 104.307z" style="fill:#c8e9ea;fill-opacity:1;stroke-width:5.66929;stroke-linecap:round;stroke-linejoin:round" transform="rotate(-16.65 5441.774 -6455.354)scale(.3676)"/><path d="m1832.146 1612.593 5.334 52.305-6.67 3.47c3.858 8.86 8.252 17.455 13.206 25.723 6.905 11.525 14.394 22.007 22.354 31.381l10.943-18.816 51.997 7.789-35.057-39.177 23.473-47.042-48.093 21.23z" style="fill:#c8e9ea;fill-opacity:1;stroke-width:2.08403;stroke-linecap:round;stroke-linejoin:round" transform="translate(48.202 -7.115)"/><path d="m-157.648 614.352-129.44-60.829-104.307 97.85 17.852-141.9-125.294-68.966 140.473-26.871 26.871-140.473 68.965 125.294 141.902-17.852-97.85 104.307z" style="fill:#c8e9ea;fill-opacity:1;stroke-width:5.66929;stroke-linecap:round;stroke-linejoin:round" transform="rotate(-16.65 6083.968 -6502.007)scale(.3676)"/><path d="m2100.353 1450.166 5.332 52.3-46.645 24.26 51.393 11.092 8.657 51.859 26.43-45.447 11.448 1.714c1.964-23.67.952-45.81-2.522-66.249l-16.612 7.331zM1952.846 1325.23a141 141 0 0 0-12.705 3.85h-.01l-35.871 18.66h-.01a164 164 0 0 0-5.045 3.692l49.942 10.777 8.657 51.859 26.43-45.447 51.996 7.788-35.058-39.182 7.313-14.652c-18.514-2.748-37.363-1.96-55.649 2.653zM1825.25 1461.28a298 298 0 0 0-3.86 12.397c-5.961 20.71-9.808 42.41-11.346 64.343v.01l5.874 35.16 26.423-45.451 51.997 7.788-35.057-39.177 23.473-47.042-48.093 21.23zM2067.734 1344.424l3.025 29.667-46.64 24.26 51.388 11.092 8.662 51.857 26.43-45.447 24.563 3.679c-16.273-32.83-40.068-58.296-67.428-75.108" style="fill:#c8e9ea;fill-opacity:1;stroke-width:2.08403;stroke-linecap:round;stroke-linejoin:round" transform="translate(48.202 -7.115)"/><path d="m-157.648 614.352-129.44-60.829-104.307 97.85 17.852-141.9-125.294-68.966 140.473-26.871 26.871-140.473 68.965 125.294 141.902-17.852-97.85 104.307z" style="fill:#f8c5b4;fill-opacity:1;stroke-width:5.66929;stroke-linecap:round;stroke-linejoin:round" transform="rotate(-16.65 4592.94 -5972.823)scale(.3676)"/><path d="m1907.275 1129.462 3.897 38.242-46.644 24.26 51.392 11.092 8.656 51.853 26.43-45.447 33.59 5.034c-17.45-38.521-45.22-67.58-77.321-85.034M1790.779 1117.72c-13.64 4.52-26.455 11.061-38.353 19.29l34.091 7.357 8.656 51.854 26.43-45.447 51.996 7.788-35.057-39.177 4.274-8.566c-12.729-.706-25.533.284-38.126 3.07a141 141 0 0 0-13.912 3.83M1714.912 1200.856l-26.981 11.912c-7.536 14.34-13.905 29.672-19.013 45.636-5.203 16.263-9.096 33.182-11.574 50.392l17.157-29.504 51.997 7.788-35.059-39.182z" style="fill:#f8c4b3;fill-opacity:1;stroke-width:2.08403;stroke-linecap:round;stroke-linejoin:round" transform="translate(48.202 -7.115)"/><path d="m-157.648 614.352-129.44-60.829-104.307 97.85 17.852-141.9-125.294-68.966 140.473-26.871 26.871-140.473 68.965 125.294 141.902-17.852-97.85 104.307z" style="fill:#f7deb0;fill-opacity:1;stroke-width:5.66929;stroke-linecap:round;stroke-linejoin:round" transform="rotate(-16.65 4817.475 -4863.142)scale(.3676)"/><path d="m1479.783 1215.212.994 9.728-46.645 24.26 51.393 11.091 8.656 51.854 26.43-45.447 51.996 7.788-35.058-39.182 2.585-5.174c-19.904-8.683-40.332-13.57-60.35-14.918M1607.213 1512.825l5.333 52.305-46.645 24.26 51.393 11.092 5.378 32.23a115 115 0 0 0 9.228-6.551c16.56-13.028 29.254-30.002 38.349-49.627l-.931-1.04 7.117-14.258v-.012c3.226-9.224 5.762-18.9 7.632-28.918l-39.37 17.382zM1344.505 1480.59l2.474 24.275c12.766 25.632 29.134 49.732 48.528 70.662l46.161 6.915-35.058-39.182 23.473-47.043-48.091 21.236zM1334.78 1293.53c-10.977 21.34-17.006 45.485-18.626 70.904v.01l5.166 40.856 28.21-44.365 51.644 9.837-33.48-40.536 25.32-46.076-48.895 19.315zM1625.071 1344.977l5.334 52.306-46.645 24.26 51.393 11.091 8.656 51.854 26.43-45.447 14.172 2.122c-2.906-18.584-7.507-37.23-13.695-55.406a364 364 0 0 0-2.287-6.51l-5.87 2.594z" style="fill:#f7deb0;fill-opacity:1;stroke-width:2.08403;stroke-linecap:round;stroke-linejoin:round" transform="translate(48.202 -7.115)"/><path d="m-157.648 614.352-129.44-60.829-104.307 97.85 17.852-141.9-125.294-68.966 140.473-26.871 26.871-140.473 68.965 125.294 141.902-17.852-97.85 104.307z" style="fill:#f7deb0;fill-opacity:1;stroke-width:5.66929;stroke-linecap:round;stroke-linejoin:round" transform="rotate(-16.65 5374.566 -4819.284)scale(.3676)"/><path d="M1825.54 2195.78c18.087-49.267 9.024-74.528-50.461-74.129-6.227.183-9.803.299-11.054 3.066s-.176 8.185-.085 12.991c.09 4.808-.801 9.004-1.214 11.863s-.345 4.38 3.323 7.943c7.45 7.236 11.697 8.53 42.825 37.574 6.115 5.705 9.09 8.564 11.076 9.253 1.987.688 2.985-.794 5.59-8.562z" style="fill:#fe15a6;fill-opacity:1;stroke-width:14.2334;stroke-linecap:round;stroke-linejoin:round" transform="translate(48.202 -7.115)"/><path d="M1980.623 2224.533c19.643.483 39.925 10.564 44.38 30.821 3.852 20.796-13.85 42.835-33.739 33.13-21.635-10.56-14.582-63.262-10.64-63.951" style="fill:#009fd9;fill-opacity:1;stroke-width:14.062;stroke-linecap:round;stroke-linejoin:round" transform="translate(48.202 -7.115)"/><path d="M2160.73 2025.793c19.298.469 44.073 22.903 41.195 40.945-.895 5.609-9.577 26.96-17.117 25.037-12.767-5.59-25.017-12.469-37.514-18.697-6.369-3.17-9.7-4.789-10.364-7.632s1.336-6.908 4.031-13.235 6.084-14.915 9.146-19.967 5.799-6.568 10.623-6.45z" style="fill:#f7ec27;fill-opacity:1;stroke-width:13.6653;stroke-linecap:round;stroke-linejoin:round" transform="translate(48.202 -7.115)"/><path d="M979.934 1302.966c5.497-52.192-9.465-74.472-67.048-59.546-5.993 1.7-9.433 2.685-9.97 5.674-.536 2.988 1.83 7.98 3.094 12.618 1.263 4.64 1.423 8.927 1.722 11.8s.736 4.332 5.164 6.89c8.992 5.196 13.427 5.413 50.71 25.967 7.323 4.038 10.906 6.084 13.001 6.266 2.095.181 2.7-1.5 3.327-9.669" style="fill:#f7ec27;fill-opacity:1;stroke-width:14.2334;stroke-linecap:round;stroke-linejoin:round" transform="translate(48.202 -7.115)"/><path d="M1137.342 1292.944c19.165-4.332 41.296.486 50.566 19.04 8.819 19.223-2.96 44.92-24.618 40.37-23.56-4.95-29.601-57.778-25.948-59.41" style="fill:#009fd9;fill-opacity:1;stroke-width:14.062;stroke-linecap:round;stroke-linejoin:round" transform="translate(48.202 -7.115)"/><path d="M1263.413 1056.212c18.826-4.262 48.333 11.436 49.952 29.634.503 5.658-2.697 28.483-10.478 28.461-13.746-2.3-27.306-5.976-40.946-8.96-6.95-1.517-10.576-2.273-11.916-4.868-1.339-2.594-.392-7.026.675-13.82 1.067-6.793 2.254-15.948 3.988-21.596 1.735-5.647 4.018-7.786 8.725-8.851z" style="fill:#fe15a6;fill-opacity:1;stroke-width:13.6653;stroke-linecap:round;stroke-linejoin:round" transform="translate(48.202 -7.115)"/><path d="M1802.796 766.253c52.323-4.084 71.511-22.847 46.364-76.757-2.76-5.585-4.355-8.788-7.392-8.772s-7.514 3.25-11.845 5.336c-4.333 2.085-8.52 3.023-11.29 3.839-2.77.817-4.126 1.511-5.837 6.33-3.474 9.787-2.881 14.187-16.314 54.586-2.64 7.935-4 11.83-3.797 13.924s1.965 2.382 10.111 1.514" style="fill:#009fd9;fill-opacity:1;stroke-width:14.2334;stroke-linecap:round;stroke-linejoin:round" transform="translate(48.202 -7.115)"/><path d="M1841.27 919.215c7.744 18.058 7.03 40.696-9.53 53.185-17.299 12.167-44.71 5.255-44.172-16.868.584-24.067 51.433-39.613 53.702-36.317" style="fill:#fe15a6;fill-opacity:1;stroke-width:14.062;stroke-linecap:round;stroke-linejoin:round" transform="translate(48.202 -7.115)"/><path d="M2096.978 1000.144c7.613 17.738-2.458 49.608-20.06 54.508-5.47 1.523-28.498 2.526-29.89-5.13-.239-13.934.911-27.936 1.366-41.892.228-7.11.313-10.813 2.62-12.602s6.837-1.663 13.712-1.85c6.874-.185 16.093-.682 21.961-.003 5.869.679 8.387 2.535 10.29 6.97z" style="fill:#f7ec27;fill-opacity:1;stroke-width:13.6653;stroke-linecap:round;stroke-linejoin:round" transform="translate(48.202 -7.115)"/><g aria-label="Happy Birthday, Raya!" style="font-size:234.818px;font-family:&quot;Magic Bubble&quot;;-inkscape-font-specification:&quot;Magic Bubble&quot;;text-align:center;text-anchor:middle;fill:#fff;stroke-width:6.9336;stroke-linecap:round;stroke-linejoin:round"><path d="M371.304 901.712q2.275 3.09 1.951 3.469.569.486 1.782-.935.567-.663.796-1.123.228-.46 1.28-1.691l3.56-4.168-7.69-9.027q-3.79-4.385-8.395-10.12-4.523-5.83-9.196-12.442-4.768-6.694-9.307-13.848-4.538-7.154-8.104-14.296-3.485-7.237-5.619-14.138-2.228-6.982-2.44-13.062-.204-8.202 3.437-12.464 1.457-1.705 4.642-3.9t6.925-4.079q3.82-1.98 7.601-3.337 3.687-1.438 6.146-1.632 2.985-.235 6.244.746 3.001 1.09 6.885 4.407 5.304 4.531 9.449 10.037 4.225 5.411 8.126 11.201 1.897 2.767 4.2 6.209 2.208 3.36 4.917 7.477 9.335 14.2 19.587 27.708 10.238 13.332 21.826 25.852 6.47 7.002 10.828 10.724 3.505 2.994 4.395 1.952 1.78-2.084-.109-8.121-1.902-6.213-4.819-12.964-1.506-3.416-2.998-6.656-1.41-3.335-2.808-6.495-2.794-6.319-3.447-9.007-.07-.878.726-2 .687-1.38 2.143-3.085 2.023-2.368 3.71-3.385 1.593-1.097 3.187-1.046 1.595.052 3.272 1.157 1.759 1.01 4.032 2.952 2.747 2.347 5.755 6.882 2.912 4.454 5.719 9.8 2.711 5.265 5.071 10.558 2.266 5.212 3.704 8.898 2.714 6.414 3.56 11.56.928 5.053.138 9.621t-3.443 9.019q-2.574 4.355-6.943 9.47-7.606 8.904-17.34 13.204-9.56 4.287-21.373 2.388l-4.744-.776.122.433q-.744-.472-1.853-1.092-1.11-.62-2.597-1.563-5.721-3.084-11.673-6.858-5.966-3.948-10.986-8.237l-5.968-5.097-4.314 5.817q-.781 1.299-1.577 2.422-.809.947-1.361 1.786-1.214 1.42-1.172 1.948-.148.365 1.409 2.186 1.557 1.822 4.333 5.668 1.49 2.092 3.454 4.588 2.044 2.402 4.59 5.56 2.45 3.076 5.308 6.828 2.939 3.656 6.378 8.07 2.56 3.332 4.808 6.071 2.247 2.74 4.022 5.074 2.816 3.225 5.2 6.572 2.559 3.333 4.079 6.925 1.695 3.577 1.999 7.441.398 3.945-1.013 8.474-1.129 3.624-3.475 6.37l-1.052 1.232q-.486.568-1.066 1.056-.985.961-1.579 1.273-10.147 8.043-19.539 7.722-9.297-.241-19.053-8.575-9.662-8.253-18.3-18.089-8.556-9.93-16.168-20.2-1.368-1.66-2.058-2.578-.786-.998-1.07-1.24-.663-.567-.906-.283l-6.87 4.782q-8.177 6.121-17.427 9.853-9.344 3.65-18.748 4.302-9.403.65-18.637-2.157-9.233-2.809-17.285-9.686-5.968-5.098-9.98-12.293-3.93-7.29-6.188-15.772t-2.895-17.71.063-18.295q.782-9.163 2.767-17.625 1.986-8.462 4.973-15.413.417-1.446 1.413-3.38.983-2.11 2.035-3.341.39-.65.957-1.312.472-.744 1.038-1.408.472-.744 1.2-1.596.634-.933 1.524-1.975 3.398-3.979 7.663-7.053 4.345-3.17 9.206-5.408 4.86-2.237 10.047-3.706 5.186-1.468 10.36-1.963 5.62-.442 9.121.255 1.001.363 1.907.645.81.201 1.446.416 1.542.498 2.854 1.455 1.664.93 3.653 2.628 9.756 8.334 18.434 17.548 8.663 9.039 17.111 18.713 2.532 2.982 4.685 5.64t3.927 4.993 3.25 4.25 2.655 3.415m-111.642-1.647q.663.566 1.068.093.809-.948.748-5.096-.018-2.473 1.488-6.92.617-2.258 1.33-4.435.793-2.271 1.492-4.624.617-2.257 1.263-4.164.55-1.987 1.115-3.799.967-3.433.304-4-1.232-1.052-2.85.843-.81.947-1.845 3.503-1.131 2.474-2.112 5.733-1.075 3.177-1.934 6.867-.777 3.596-1.137 6.893-.454 3.217-.26 5.676.193 2.459 1.33 3.43m39.19-5.026q-3.033-3.738-5.442-6.288-2.329-2.644-4.129-4.181-2.178-1.861-3.313-1.684-1.054.083-2.106 1.315-2.67 3.125-4.175 7.574-1.506 4.448-2.173 9.448-.681 4.825-.74 9.69.021 4.77.42 8.715.493 4.026 1.407 8.902.819 4.795 2.421 9.44 1.602 4.646 3.88 8.885 2.263 4.064 5.484 6.815 2.936 2.508 5.938 3.597 2.907 1.009 6.001 1.03 3-.059 6.2-.929 3.202-.87 6.55-2.105 3.916-1.899 7.709-4.23 3.874-2.425 7.383-4.998 2.186-1.41 2.753-2.072.485-.569-.83-2.674-.69-.918-2.194-3.185-1.503-2.268-3.901-5.79l-9.67-12.848q-.637-1.363-3.943-6.317-3.779-5.358-7.218-9.77-3.36-4.508-6.311-8.34m51.133-54.299q.813 1.35 1.76 2.159 1.042.89 1.609.227.809-.947-2.31-6.887-1.937-3.294-3.459-8.034l-3.015-9.13q-1.508-4.564-2.84-9.142-1.276-3.876-1.56-4.12-.758-.646-2.055-.28-1.216.273-1.782.936-.728.853-.142 3.81.667 2.864 1.821 6.308 1.141 3.268 2.443 6.347 1.208 2.997 1.832 4.185 1.18 2.647 2.522 5.104 1.423 2.362 2.75 4.643.8 1.174 1.41 2.187.515.931 1.016 1.687m121.722-18.349q-5.534-6.414-9.061-13.946-3.61-7.625-5.078-15.654-1.458-8.204-.795-16.46.756-8.338 3.953-16.18 3.84-9.745 11.475-16.53 5.68-5.049 12.985-7.707 7.397-2.74 14.794-3.981l1.252-.28q-1.096-2.358-1.686-4.335-.579-2.151-.382-3.993.197-1.841 1.18-3.548 1.076-1.79 3.125-3.61 1.396-1.242 2.317-1.894 1.014-.734 2.007-1.117 1.087-.465 2.339-.744 1.251-.28 3.03-.528l-.279.249q8.96-2.296 14.753-.278 5.545 1.738 8.194 4.718.662.745 1.717 2.307 1.148 1.48 2.679 3.953 1.624 2.39 3.496 5.059t3.9 5.7q2.12 2.95 4.324 5.991 2.203 3.042 4.396 6.26 4.655 6.363 8.379 10.553 3.558 4.004 6.64 7.098 3.177 3.01 5.97 5.029 5.482 4.294 7.997 2.06 1.49-1.325 2.328-3.57.755-2.338 1.17-4.873.424-2.71.486-5.265.062-2.556-.01-4.325-.33-6.373-2.16-12.746-1.914-6.466-5.213-11.867-2.752-4.221-3.248-6.28-.424-1.79 1.904-3.859 1.769-1.572 3.797-1.54 2.027.03 3.91 1.024 1.893.818 3.57 2.328 1.768 1.428 3.01 2.825 2.4 2.7 4.313 6.166 1.914 3.466 3.361 7.346t2.358 7.904q.92 3.849 1.417 7.408.94 9.497-1.43 18.27-2.36 8.597-9.716 15.134l-1.024.91q-.559.497-1.293.983l-2.483 1.707q-5.122 3.052-10.946 4.562-5.825 1.51-11.836 1.685-6.01.175-11.939-1.057-5.927-1.232-11.162-3.746l-2.762-1.045q.889 4.376 1.458 9.704.578 5.152.092 10.418-.477 5.09-2.257 9.838-1.77 4.573-5.401 7.8-5.122 4.552-11.122 7.552-6.001 3-12.509 4.116-6.507 1.116-12.983.205-6.56-1.004-12.715-4.367-4.024-2.09-7.562-4.946-3.62-2.949-6.94-6.497zm36.075-98.558q.3 2.4 1.541 3.797l.352.02q.372-.33.517-1.293.155-1.138.135-2.286.072-1.231-.217-2.307-.197-1.159-.528-1.531-.579-.652-1.324.01-1.117.993-.476 3.59zm3.49 71.064q1.065 1.386 2.379 3.052 1.313 1.666 2.875 3.611l3.641 4.097q1.5 1.5 2.007 1.883 1.004.942 3.114 1.066l-.124-.89q.062-1.055.01-1.675-.061-.445.063-1.056.124-.61.176-1.49.86-5.596-.02-11.649-.878-6.052-2.905-12.083t-4.779-11.754q-2.751-5.72-5.554-10.563-3.207-5.483-4.448-8.38-.228-.631-.383-.994-.238-.455-.569-.827l-.993-1.118q-1.076-1.21-1.914-.465t-1.376 2.39q-.62 1.551-.91 3.475-.373 1.831-.57 3.673l-.166 2.814q0 4.5.34 9.197.352 4.521 1.417 8.908l.186-.166q.859 3.404 1.976 6.911 1.034 3.415 2.885 6.436.797 1.458 1.686 2.835.983 1.293 1.955 2.762m-45.168-9.192q.91 1.025 1.748.28.372-.331.466-1.914-.042-.797.041-2.204.176-1.49.228-3.869.114-1.934.487-3.765.383-2.007.942-4.004.9-3.3 1.966-6.414.983-3.207 2.05-6.321 1.013-2.235.6-2.7-.497-.559-1.314-.166-.807.217-3.042 2.203-1.397 1.242-2.308 3.218-.993 1.882-1.655 4.138-.663 2.255-.973 4.53-.3 2.101-.404 3.86l-.166 2.814q-.02 1.852.03 3.972.145 2.039.476 3.911.248 1.78.828 2.431m106.57-84.79q-.913-2.107-2.448-5.919-1.609-3.912-3.089-8.072-1.553-4.26-2.639-8.09-1.16-3.93-1.148-6.248.666-7.564 5.909-11.37 2.52-1.83 7.157-3.5 2.18-.814 5.937-2.001 3.756-1.187 7.878-1.87t7.832-.45 5.722 2.157l.512.706.202-.147q.128-.247.184-.595.156-.421.413-.915.239-.944 1.211-2.573 1.073-1.703 2.32-3.378 1.275-1.848 2.495-3.35 1.146-1.601 1.807-2.388 1.907-2.462 3.905-4.375 1.999-1.912 4.015-3.376 5.142-3.732 11.152-5.631 5.937-2 12.092-2.004 6.082-.104 12.034 1.733 5.878 1.737 11.077 5.506 4.732 3.339 9.58 10.442 5.506 8.01 8.254 17.098 2.675 8.988 2.3 18.65-.452 3.407-.977 6.713t-1.325 6.657q-.35 1.64-.92 2.976-.467 1.264-1.009 2.427l.202-.147q-1.846 4.88-5.413 9.933-3.467 4.979-7.702 8.053-2.62 1.902-6.488 3.785-3.766 1.81-7.971 3.015t-8.345 1.44q-4.04.16-7.308-1.161.694 1.805 1.645 3.115l3.466 6.26-.22-.303q.97 1.76 1.82 3.143.85 1.384 1.555 2.566 1.29 1.989 1.837 3.592l.659.908q.457 1.053 1.307 2.437 1.025 1.412 2.314 3.4 1.318 1.815 2.754 4.005 1.509 2.292 3.164 4.784t2.945 4.482 2.314 3.4q.924 1.485 1.802 2.695l1.537 2.117 1.17 1.613q.586.807 1.053 1.237.731 1.009 2.114 1.853 3.743 2.824 3.998 4.024t-1.35 5.137q-.542 1.163-1.633 2.417t-2.43 2.379q-1.265 1.226-2.676 2.25-1.339 1.126-2.448 1.93-2.318 1.684-4.582 3.019t-4.847 2.44q-1.127.357-2.153.64l-1.906.767.146.202q-1.576.374-2.647.382-.999.11-2.043-.057-.943-.239-1.932-.752-.915-.413-2.224-1.157-2.646-1.312-5.053-3.567-10.139-9.728-18.912-20.754-8.7-10.926-16.896-22.218-8.928-12.3-17.049-25.185-8.02-12.959-14.006-26.932m51.237-59.202q-2.144 1.71-1.413 2.719.659.907 3.565-1.664.66-.787 1.366-1.299l1.411-1.024 1.31-.952q.606-.439 1.357-.676 2.31-1.06 2.64-1.454.503-.366-.513-.706-.247-.128-1.576.374-1.154.53-2.758 1.078-3.592 1.838-5.389 3.604m-3.155 44.007q1.042 1.86 2.067 3.271.951 1.311 1.784 2.246l3.257 3.64q1.153 1.164 2.846 2.86 1.62 1.595 3.514 3.144 1.995 1.477 3.945 2.679 2.05 1.128 3.717 1.304 2.39.112 3.5-.693.935-.833 1.597-3.314.552-3.48-.277-7.804-.802-4.498-2.4-9.033-1.672-4.636-3.775-8.806-2.176-4.27-4.298-7.194-9.293-12.804-16.956-7.242-.504.366-1.036.906-.604.439-1.136.979-1.091 1.253-1.303 2.023-1.385 2.545-1.25 5.063.054 1.347.766 3.6.74 2.08 1.7 4.463.959 2.382 1.946 4.59 1.088 2.135 1.792 3.318m-37.357 16.185q2.075 4.344 2.953 5.553.805 1.11 1.914.305.706-.513-1.086-3.83-1.363-2.09-2.615-4.875-1.151-2.859-2.275-5.892-1.023-3.105-1.973-6.11t-1.634-5.433q-1.963-6.734-3.27-9.172-1.262-2.162-2.445-1.458-1.21.878-1.029 3.671 1.514 6.752 4.915 13.982 3.327 7.129 6.545 13.26m104.847-82.997q-.71-2.185-1.874-6.126-1.228-4.048-2.305-8.33-1.14-4.389-1.857-8.304-.78-4.023-.547-6.329 1.384-7.467 6.966-10.755 2.683-1.581 7.457-2.803 2.248-.602 6.1-1.426 3.853-.824 8.022-1.11 4.168-.288 7.839.297 3.67.585 5.49 2.693l.443.752.215-.127q.151-.234.24-.575.195-.404.498-.872.327-.916 1.45-2.445 1.231-1.593 2.632-3.141 1.446-1.72 2.803-3.097 1.294-1.485 2.026-2.206 2.133-2.269 4.305-3.982t4.318-2.978q5.474-3.225 11.638-4.543 6.1-1.426 12.228-.843 6.064.476 11.813 2.873 5.686 2.288 10.502 6.536 4.393 3.774 8.542 11.307 4.717 8.498 6.587 17.807 1.807 9.202.512 18.784-.774 3.349-1.612 6.59t-1.954 6.5q-.504 1.599-1.198 2.875-.586 1.213-1.236 2.319l.214-.126q-2.302 4.682-6.335 9.371-3.925 4.626-8.433 7.282-2.79 1.644-6.82 3.15-3.921 1.443-8.222 2.242-4.3.799-8.444.638-4.037-.225-7.164-1.852.519 1.863 1.34 3.258l2.854 6.56-.19-.321q.798 1.843 1.512 3.302.715 1.459 1.303 2.702 1.094 2.103 1.487 3.751l.57.966q.354 1.093 1.069 2.551.885 1.503 1.98 3.606 1.137 1.932 2.358 4.249 1.284 2.424 2.694 5.064 1.41 2.639 2.505 4.742 1.094 2.102 1.98 3.605.777 1.566 1.536 2.854l1.328 2.254 1.012 1.717q.506.859.93 1.332.632 1.073 1.927 2.045 3.457 3.169 3.597 4.388t-1.834 4.984q-.65 1.106-1.856 2.25t-2.645 2.137q-1.376 1.1-2.879 1.985-1.44.993-2.62 1.689-2.468 1.454-4.849 2.567-2.38 1.114-5.058 1.968-1.156.248-2.204.431l-1.97.583.126.215q-1.604.222-2.672.128-1.004.013-2.027-.252-.916-.327-1.852-.933-.872-.498-2.104-1.363-2.509-1.558-4.69-4.033-9.165-10.65-16.848-22.462-7.62-11.705-14.702-23.726-7.715-13.095-14.571-26.695-6.75-13.664-11.376-28.144m56.645-54.05q-2.298 1.498-1.666 2.571.57.966 3.707-1.316.732-.72 1.483-1.163l1.503-.886 1.395-.822q.644-.379 1.415-.544 2.4-.835 2.766-1.196.536-.316-.443-.75-.234-.152-1.604.221-1.2.418-2.848.81-3.751 1.488-5.708 3.074m-7.335 43.505q.86 1.951 1.746 3.454.822 1.395 1.562 2.405l2.895 3.933q1.037 1.27 2.56 3.119 1.46 1.742 3.199 3.465 1.846 1.66 3.672 3.042 1.934 1.319 3.576 1.653 2.369.34 3.55-.357 1.01-.74 1.905-3.146.882-3.412.468-7.795-.37-4.554-1.528-9.22-1.223-4.775-2.918-9.126-1.76-4.458-3.593-7.57-8.032-13.632-16.189-8.826-.537.316-1.117.803-.644.38-1.225.866-1.206 1.144-1.49 1.89-1.621 2.401-1.727 4.921-.075 1.346.42 3.657.538 2.141 1.266 4.604t1.5 4.755q.88 2.23 1.468 3.473m-38.73 12.552q1.653 4.521 2.411 5.81.696 1.18 1.877.485.751-.443-.717-3.916-1.157-2.21-2.138-5.102-.874-2.956-1.703-6.082-.723-3.189-1.382-6.27-.659-3.083-1.109-5.565-1.312-6.89-2.381-9.44-1.05-2.274-2.294-1.686-1.288.76-1.375 3.557.864 6.865 3.56 14.386 2.633 7.414 5.252 13.823m116.527-108.32q.736-.484 1.525-.855.736-.485 1.637-.91 4.847-2.282 10.834-3.311 6.046-1.195 11.338-1.07 5.516.017 8.17 5.653.902 1.916 1.672 4.72.883 2.752 1.746 6.338 1.613 7.227 3.446 16.967.485 3.077 1.222 7.273.85 4.144 1.92 8.46 1.068 4.317 2.309 8.414 1.188 3.985 2.515 6.802 1.38 2.93 3.376 3.368.829.298 1.618-.074 1.578-.743 2.432-3.9.914-3.321 1.337-7.101.37-3.892.396-7.347.085-3.62.005-4.96-.308-10.595-1.564-21.157-1.197-10.728-3.07-21.138-.484-3.076-.963-6.431-.531-3.468-.506-6.922.026-3.455.88-6.611.802-3.27 2.817-6.008l.106.225q1.597-1.578 3.58-2.925.96-.59 2.088-1.121 1.186-.697 2.539-1.334 1.803-.849 4.501-1.844 2.758-1.161 5.729-1.872 2.97-.71 5.702-.757 2.844-.1 4.768 1.06 1.538.927 2.865 3.745 1.38 2.93 2.037 5.788.77 2.804 1.142 5.934.074 1.618.42 3.52.345 1.903.902 4.257 1.102 5.264 2.317 10.476 1.162 5.098 2.543 10.37 1.268 5.323 3.159 10.216t4.114 9.905q1.592 3.381 3.23 7.153l3.663 7.777 6.582 13.975 2.494 5.297q1.115 2.367 1.958 4.449 2.694 6.305 3.61 12.345.917 6.04.926 12.784l.225-.107q-.385 21.112-22.46 40.32-3.188 2.88-6.86 5.022-3.507 2.203-7.452 4.06-6.875 3.238-14.374 4.566t-14.892.542q-7.28-.84-14.29-3.736-6.897-2.949-12.627-8.099-6.334-5.554-8.325-10.951-.723-2.414-.883-5.092.007-2.62.675-5 .782-2.434 2.333-4.403 1.55-1.97 4.03-3.138 3.832-1.804 9.495-.89 3.481 1.251 6.32 3.77 3.004 2.579 4.994 5.635 1.831 2.718 4.61 5.402t5.81 4.15q3.647 1.311 8.831-1.13 3.269-1.54 5.237-4.67 1.969-3.13 2.949-6.897 1.146-3.706 1.35-7.658.37-3.893.277-7.016l-.047-2.731.106.225-2.743-16.058q-1.846-6.843-3.412-13.678-1.567-6.836-3.074-13.837-.518-1.684-.724-2.414-.146-.895-.252-1.12l.06 4.515-.369 6.233-.475 6.008q-.416 5.841-1.437 8.938-1.31 5.988-4.784 11.479-3.472 5.491-9.22 8.198-2.593 1.22-5.947 1.7l-8.222 1.255q-2.672-.119-5.557-.688-2.937-.682-5.755-1.696t-5.405-2.412q-2.64-1.511-4.662-3.175-4.37-3.725-8.55-8.504-4.119-4.946-6.613-10.243-4.3-9.129-6.65-18.212-2.402-9.196-2.89-19.294-2.128-23.233 5.582-28.792zm5.858 11.562q-.299-1.511-1.008-2.141-1.048-.47-1.837-.099-1.353.637-1.61 4.476.007 2.062.214 5.132.206 3.07.631 6.312t.91 6.319q.598 3.023 1.216 5.211.65 3.136 1.353 4.045 1.407 1.816 1.751 1.378.239-.663-.266-2.904-.677-2.022-1.002-4.76-.38-2.851-.533-5.809-.153-2.957-.14-5.854.125-2.951.23-5.066 0-2.34.092-3.899.092-1.558 0-2.34m56.92-12.76q.97 3.812 1.566 4.495.71.63 1.048.47.789-.371-.174-4.462-1.075-4.038-1.428-8.003-.405-4.077-.307-8.255.086-1.28.052-2.227.026-1.114-.173-2.122-.067-1.896-.279-2.347-.478-1.015-1.485-.815t-1.591 1.3q-.298.829.02 3.845.267 2.904.739 6.538.531 3.468 1.122 6.77t.89 4.813m252.903-70.392-2.435 2.373 5.356.167q4.396.438 8.551 1.85 4.275 1.38 7.829 3.869 3.673 2.455 6.318 5.85 2.764 3.36 4.02 7.795 2.886 10.188 1.291 19.185-1.51 8.844-6.198 16.516-4.604 7.519-11.754 13.817t-15.58 11.275q-8.277 5.063-17.201 8.756t-17.195 6.035q-3.236.917-4.263.949-.547-.104-2.293.131-1.199.34-3.766.42-3.765.419-7.784-.515-3.866-.847-7.268-2.344l-3.18-1.17-3.18-1.171q-3.18-1.171-5.713-.972-5.973.397-10.524-.127-4.584-.643-8.002-2.653-3.332-2.164-5.839-5.986-2.386-3.856-4.05-9.729-12.527-44.23 2.701-88.292.346-1.522.828-2.565.328-1.128.26-1.368-.72.204-1.902 1.056-1.063.82-2.178 1.912t-2.11 2.151-1.458 1.708q-1.08 1.213-2.042 2.391-.875 1.025-1.664 1.896-1.664 1.895-2.144 2.031-4.58-2.457-8.134-4.947-3.587-2.61-7.24-6.365-3.26-3.738-4.38-7.693-1.8-6.353-1-11.759.8-5.405 3.343-10.14 2.663-4.768 6.677-8.882 4.013-4.115 8.522-7.852 6.156-5.24 13.338-10.51 7.302-5.306 15.047-9.96 7.831-4.807 15.968-8.536 8.103-3.849 16.014-6.09 7.311-2.07 14.825-2.515 7.633-.479 14.988.805 7.355 1.283 14.107 4.55 6.838 3.113 12.506 8.499 8.248 7.634 12.084 21.178 2.648 9.35 3.432 18.061.87 8.558-.722 16.649-1.507 7.936-5.563 15.559-4.09 7.503-11.243 14.707m-78.908-72.428q-.17-.6-1.642-.312l-1.678.475q-.873.118-1.952.424-2.996.848-6.133 3.032-1.748 1.142-4.764 3.291t-6.531 4.828q-3.548 2.559-7.234 5.545-3.566 2.952-6.38 5.82-2.727 2.715-4.34 5.244-1.53 2.375-1.054 4.053.51 1.798 1.828 1.424.48-.135 1.868-1.176l1.492-1.588q1.115-1.093 2.521-2.527 7.754-8.281 16.155-15.192 8.52-6.945 17.844-13.341m71.58 104.154q-1.086-3.835-4.197-5.673t-7.147-2.378q-3.917-.574-8.043-.053-4.039.367-6.915 1.182-4.435 1.256-8.719 3.505-4.317 2.13-8.206 4.396l-3.958 2.027.55 6.06q.15 1.9.368 4.039.218 2.14.657 4.604t.93 4.657q.577 2.037 1.274 4.041l.815 2.877q.46 1.165.783 1.85l.883 3.116 14.85-6.537q5.449-2.708 10.693-6.135 5.33-3.582 9.482-8.124 1.114-1.093 2.333-2.732 1.339-1.674 2.25-3.486.91-1.812 1.309-3.608.483-1.95.01-3.628zm-11.901-70.82q-1.336-7.001-7.904-8.249-6.329-1.315-15.558 1.3-1.438.407-3.082 1.002l-3.716 1.052-3.768 1.326-3.596 1.019-3.288 1.19q-1.558.442-2.809 1.055-1.284.493-2.09.85l-.838.238-2.33.919 3.248 1.41q4.257 1.773 7.451 4.364 3.314 2.557 4.604 7.112l.082 1.66q-.174 1.215-.366 2.823t-.402 3.61q-.49 4.67-.74 9.273t-.38 9.17q.373 1.32 1.931.878 1.319-.373 2.963-.969 1.73-.749 3.34-1.464 1.696-.868 3.272-1.703 1.577-.835 2.64-1.654 2.844-1.842 6.085-4.572t6.105-5.873q2.95-3.295 5.32-6.815t3.473-6.94q.843-2.051 1.155-3.693.278-1.762.35-3.336zm111.147-67.252q1.323 6.596.01 13.34-1.315 6.744-2.973 13.048-.682 2.297-1.488 3.984-.707 1.54-1.61 2.737-2.368 3.397-4.322 4.424t-6.986 2.545q-3.396.809-5.863 1.177-3.91.148-8.111.102-4.08-.07-7.966-1.07-1.76-.537-3.323-1.367-1.564-.83-2.836-2.099-1.833-2.173-2.47-3.443-.757-1.246-1.81-6.498-1.372-5.57-1.422-7.72.095-3.958.703-8.527.584-4.691 1.852-9.138 1.39-4.472 3.66-8.358 2.245-4.008 5.713-6.356 2.466-1.638 7.108-1.934 4.056-.051 9.26.557 5.204.607 9.994 2.315t8.31 4.686q3.642 2.954 4.573 7.596zm-35.499 1.023q1.927-5.596-.492-6.89-.978-.439-1.589-.316-2.076.416-3.124 4.692-1.634 5.792-.14 13.242.81 4.031 1.42 3.909.733-.147.464-1.491-.172-.855.218-2.712t1-3.885 1.267-3.812q.635-1.906.976-2.737m-11.013 51.508q2.076-1.687 5.007-2.275 4.52-.907 9.724.336 5.18 1.121 9.31 2.707.856.464 1.833.903 1.075.292 2.2.83 4.35 2.049 8.211 4.197l1.32.878q.562.269.855.464 1.418 1.367 1.666 7.67.1 3.03-.118 7.013-.12 3.835-.655 8.77-.754 5.743-1.386 11.46-.656 5.595-.775 11.337l.345 5.521.149 3.274q.196 1.612.295 3.371.32 2.859.883 5.668l1.103 5.496q.343 1.71.832 2.883l-.244.049q.317.317.928.195 1.1-.22 2.906-1.98 1.93-1.785 3.76-4.059 1.831-2.273 3.272-4.595 1.562-2.346 2.074-3.592l.073.366 1.05-3.006q.976-1.466 1.024-1.857l2.123-4.619q.854-2.077 1.659-5.034l.877-3.225q.415-1.735.927-3.617 1.072-3.518 1.877-7.11.78-3.714 1.583-7.306l.244-1.32q.244-.684.439-1.612.414-1.735.731-2.688l.318.317 1.098-2.761q.341-1.466 1.734-.856l2.517 1.146-.244.05q4.618 1.487 5.28 4.785.71 3.542.127 9.504-.46 5.937-1.703 12.412-1.266 6.353-2.973 12.413-1.731 5.938-3.537 9.604-1.318 2.932-3.27 6.5-1.83 3.544-4.174 7.064-2.368 3.397-5.053 6.477-2.71 2.958-5.421 4.645-.684.391-1.515.685t-1.905.636q-.953.318-2.174.564l-2.32.465q-11.482 2.303-21.281-.305t-17.451-11.62q-4.523-6.08-7.728-13.823-3.23-7.865-4.7-15.194-1.299-6.474-1.816-13.485-.517-7.012-.033-14.097.485-7.086 2.044-13.879 1.682-6.817 4.66-12.878.756-1.295 1.586-2.224.806-1.051 1.782-1.882zm2.84 9.722q-.854 1.442-1.464 4.106-1 3.885-1.24 8.38-.242 4.496.542 8.404.563 2.81.979 2.98.537.147.34-2.736.048-1.026.219-2.077.146-1.173.609-2.663.366-1.344 1.146-3.788.878-2.59 2.024-6.378 2.147-5.767 1.364-7.134-.88-1.221-2.346-.927t-2.173 1.833m138.654 20.131q1.381-4.828 1.21-10.962-.156-3.12-.494-5.714t-1.106-4.63q-1.047-2.25-2.035-2.122-.494.064-.924.623-6.542 4.747-13.451 24.995-.656 1.718-1.166 4.549-.51 2.83-.85 6.015-.354 3.061-.462 6.09t-.205 5.178q-.129 1.901-.199 3.292.053 1.375-.064 2.396.08.618-.01.88-.076.387.01 1.005l-.168 9.319q-.242 6.815-.801 9.275-.543 2.583-1.945 3.394-.215.28-2.513.956-.973.252-2.068.52-.972.253-2.3.677-1.202.408-2.298.677-1.096.268-2.299.676-1.095.269-1.82.489l-1.236.16q-.37.05-.988.13-.51-.06-1.128.02-1.762-.02-2.782-.139-2.396-.065-4.297-.194-1.794-.269-3.496-.8-1.703-.532-3.33-1.451-1.52-1.058-3.459-2.439-1.88-1.89-3.388-3.83-1.51-1.939-2.927-4.14-3.018-6.768-4.601-14.1-1.477-7.471-2.443-14.883-.466-3.582-.686-7.197-.113-3.754-.085-7.401-.043-5.146-.22-9.394-.052-4.264-.133-7.772.054-4.404.737-9.77t2-10.687q1.3-5.446 3.298-10.355 2.106-5.048 4.9-8.679.966-1.256 2.599-2.223 1.262-.918 3.641-.977 1.112-.145 2.487-.199 1.499-.07 3.244-.171 2.643.032 5.983.602 3.325.446 6.483 1.542 3.281 1.08 6.133 2.718 2.852 1.639 4.41 3.949 1.23 1.724 2.023 5.892.623 3.813.419 6.101-.183.526-.14 2.782-.113 2.025-.113 4.915-.07 1.39-.016 2.766.054 1.375-.016 2.766-.07 1.39-.05 2.519 0 1.004-.144 1.777.306-.542.365-1.052.398-.806.72-1.225 2.326-4.323 4.915-8.555 2.713-4.248 5.721-8.158 3.132-3.926 6.575-7.39 3.566-3.48 7.6-6.267 3.078-2.41 4.544-2.728 1.682-.596 5.388-1.079l8.287.93q2.604 1.671 5.37 4.577 2.89 2.89 3.91 5.898 2.233 4.608 2.942 10.044.934 7.164.503 13.502-.307 6.322-2.66 11.402-2.229 5.065-6.752 8.92-4.538 3.733-11.913 5.95-1.977.258-3.937.639-1.853.241-3.813.623-3.706.483-4.625-.78-.918-1.262.146-4.667zm9.915-51.167q-1.09 1.272-1.026 1.766.177 1.36 2.562-.585 1.17-.655 1.66-1.724.242-1.036-1.117-.86-1.112.146-2.079 1.403m-62.217 1.7q.344-2.18-1.509-1.938-.988.129-2.105 2.159-.994 2.014-1.967 5.156-.865 3.002-1.757 6.761-.768 3.744-1.306 7.332-.414 3.571-.645 6.616-.247 2.922-.038 4.528.242 1.853.72 1.665.494-.064.886-1.874-.01-1.005.096-2.149.086-1.267.264-2.798.301-1.547.478-3.077.285-1.67.694-3.357.601-3.094 1.466-6.096t2.117-5.93q2.477-5.096 2.606-6.997zm98.505-27.314q4.942 3.458 11.782 3.063 2.363-.136 4.705-.646l1.595-.466 2.159-7.987q1.138-4.059 1.96-7.1.823-3.043 1.572-5.208.872-2.172 1.855-4.6t2.317-5.25q.696-.913 1.385-1.951.682-1.163 1.473-2.58.916-1.426 1.73-2.472.805-1.17 1.75-2.097 1.619-2.215 3.398-3.815 1.772-1.725 4.341-2.622 1.58-.715 3.695-.838 2.473-.392 3.614-.084 4.14.385 8.704 1.619 4.556 1.11 8.395 2.76l-.249.014q1.024.44 2.837 1.583 1.806 1.019 3.626 2.286 1.945 1.26 3.516 2.542 1.564 1.158 1.995 2.131 2.16 4.992-1.64 14.82-1.752 4.219-1.755 6.34-.177 1.258-.243 2.26.057.995-.156 1.632l2.488-.144q1.112-.19 2.473-.393l.995-.057q3.205-.684 6.43-.996 3.345-.442 6.578-.63 2.612-.15 4.36-.126 1.742-.1 2.744-.034l2.018.383q1.01.19 2.04.755 3.964 1.643 5.586 3.795 1.614 2.029 1.617 6.396-.37 4.389-2.035 7.979-.667 1.411-1.963 2.734-.71.665-1.18 1.19-.475.403-.71.666-2.028 1.614-2.54 1.394-.885-.198-2.85-1.831-1.842-1.641-4.433-1.117l-7.558.936.25-.015-20.254 3.666q-4.055 16.207-7.613 32.385-3.557 16.178-5.462 32.884-1.24 10.928-.694 20.38.1 1.742.691 3.33.708 1.456 2.822 1.334 1.244-.072 2.928-1.167 3.676-3.332 6.81-7.382 3.253-4.18 5.884-8.326.55-1.28 1.114-2.31.682-1.163 1.246-2.194 1.012-1.93 1.385-1.952.227-.387 1.671-3.465.785-1.543 1.438-3.203.77-1.791 1.657-3.714 1.554-3.335 2.97-6.91 1.415-3.576 2.575-7.262 2.296-5.623 4.075-7.223.586-.658 1.705-.723 1.99-.115 3.708 1.533 1.834 1.516 2.557 3.222.875 2.195.842 5.94.106 3.988-1.408 10.19-1.52 6.077-3.759 12.695t-4.878 12.76q-2.647 6.018-5.043 9.9-1.598 2.588-3.1 4.672-1.509 1.959-2.783 3.654-2.33 2.88-4.848 4.648-2.394 1.76-5.08 2.79-2.561 1.02-5.65 1.573-2.97.421-6.313.864l-4.229.244q-1.748-.023-2.992.049-2.253-.12-4.908-.715-2.53-.603-5.207-1.571-2.552-.976-4.994-2.207-2.318-1.24-4.255-2.375-6.097-4.015-10.166-9.645-4.075-5.754-6.702-12.341-2.634-6.711-4.17-13.86-1.412-7.156-2.304-13.967-.457-3.593-.637-6.702-.187-3.234-.228-6.101-.065-1.12-.026-2.62.038-1.499.164-3.628.277-6.005.562-11.887.408-5.888 1.446-11.688-.285-.608-.306-.98l-.044-.747q-.043-.746-3.006-.2l-8.955.517-3.87-.026q-.746.043-1.14-.309-2.24.13-5.172-.949-2.94-1.203-4.76-2.47-6.972-6.21-3.1-14.795 1.862-4.475 5.581-7.061 3.712-2.71 8.563-2.99 2.487-.144 3.76.282 1.148.432 3.23 1.934zm30.04-2.733q-.346 2.64.254 2.231.717-.54 1.796-3.473 1.057-3.305 1.944-5.228.851-2.545 2.083-4.987 1.356-2.45 2.594-4.767 1.605-2.464 3.085-4.92l3.195-5.176q.543-1.404.223-2.634-.115-1.99-2.361-1.985-1.265-.3-2.1.371-.71.665-1.992 2.237-1.495 2.207-3.02 6.04-1.27 3.94-2.423 7.75-1.152 3.811-2.166 7.863-1.138 4.059-1.112 6.678m122.549 52.488q.013-1.12.646-1.985.132-.622.261-.994.255-.495.509-.866-.374-.004-3.288 4.073-1.52 2.1-2.915 4.201-1.393 1.977-2.786 3.83-2.156 3.213-4.064 6.555t-3.693 6.808q-1.017 1.733-1.91 3.466-.766 1.61-1.406 3.098-1.284 3.224-1.42 4.095-1.012 1.358-1.402 2.724l-.642 1.612q-.378.37-.901 2.481-.386.993-.775 2.358-.389 1.242-.779 2.608-.514 1.364-.905 2.854-.392 1.49-.786 3.23-.909 3.104-1.186 5.468-.133.746-.521 1.987-.264 1.243-.654 2.609-.388 1.241-.901 2.481-.387 1.117-.768 1.735v-.249q-1.274 2.352-3.79 4.44-2.39 1.966-4.77 3.059-2.255.97-5.001 1.436-2.62.343-5.112.313-2.865-.033-4.223-1.046l-.25-.003-2.72-1.652q-2.854-1.03-5.565-3.554-2.585-2.647-4.174-5.282-4.137-8.396-3.902-28.327l.065-5.48.034-2.866q.018-1.495.284-2.986.679-4.727.872-10.58.284-2.987.314-5.478.154-2.49.428-4.605.35-8.592 1.819-16.922 1.593-8.328 4.058-16.647 1.041-3.725 2.341-8.32 1.426-4.717 3.237-10.426 1.04-3.601 2.073-6.704 1.16-3.225 2.19-6.078 1.292-3.972 3.724-9.425 2.431-5.453 5.487-11.024t6.353-10.514q3.422-4.944 6.573-8.021 1.637-1.476 3.265-2.204 1-.238 2.37-.221l3.861.045q3.987.047 6.345.822 2.484.653 5.19 3.55.74.756 1.6 1.638.988.76 1.973 1.768 3.815 4.032 5.752 8.789 2.062 4.758 1.996 10.364-.037 3.114-.57 6.098-.534 2.984-1.564 5.837-1.04 3.6-2.203 7.2-1.037 3.476-2.324 6.95-.648 2.11-1.42 4.219-.648 2.11-1.297 4.345-.9 2.356-1.553 4.84-.388 1.242-.775 2.358l-.774 2.234v-.25q-.516 1.49-.907 2.98-.39 1.366-1.03 2.853-.515 1.365-.904 2.73-.389 1.242-.9 2.357-.387 1.117-.773 2.109-.26.869-.517 1.614-.388 1.24-.383.743l-3.136 12.421-.517 1.614q.636-1.114 1.135-1.233 1.901-2.718 5.068-7.166 3.292-4.446 7.083-9.011t7.574-8.383 6.665-5.279q3.135-1.707 5.871-1.3 2.864.158 8.187 3.086 3.965 1.79 7.787 5.2 3.822 3.408 5.644 7.417.731 1.379.957 3.375.35 1.997.32 4.489-.027 2.366-.313 5.478-.16 2.988-.704 6.844-.67 3.978-1.48 9.326t-2.014 12.31q-.805 4.85-1.351 8.955-.423 4.106-.46 7.345-.13 10.962 3.711 12.751l.742.507 3.902-3.442v.25q2.9-2.832 5.183-6.294 2.409-3.584 4.199-7.425 1.915-3.965 3.21-8.06 1.418-4.095 2.21-7.948.408-2.86 1.038-3.476.505-.493 2.249-.472 2.242.026 4.222 1.171 1.977 1.394 3.08 2.902.853 1.63.961 3.001.24.875.223 2.245l-.035 2.99q-.046 3.862-.843 8.088-.797 4.227-2.216 8.321-1.417 3.97-3.454 7.684t-4.688 6.672q-3.29 4.197-6.8 6.15-4.385 2.066-9.384 3.377-4.875 1.313-9.733 1.256-6.104-.072-12.05-3.008-5.943-3.06-10.129-7.345-6.276-6.552-10.018-16.813-.735-1.005-.955-3.5l-.214-2.992.035-2.99q-.12-.375-.111-1.122-.431-5.736.52-12.452 1.079-6.965 3.531-14.162.639-1.363.778-2.607zm11.311-29.518q-2.02 2.22-1.278 2.726.868.384 3.128-1.084 1.884-1.348 1.898-2.47.016-1.37-1.236-.886-1.499.356-2.512 1.714m-33.267-63.183q.76-1.112.405-2.612-.486-1.127-2.479-1.15-1.744-.02-3.526 3.198-2.022 2.467-4.188 6.553-.636 1.114-2.039 3.838-1.402 2.725-2.81 5.823-1.406 3.098-2.561 5.95-1.03 2.729-1.044 3.974-.035 2.99 1.086 3.003.25.003 1.397-2.226l1.275-2.477q.639-1.363 1.528-2.847.89-1.485 1.781-3.094 1.017-1.732 2.162-3.712 1.27-2.103 2.16-3.587 1.016-1.608 1.902-2.843zm220.796 84.711.026-.248-5.533 13.065q-.87 2.287-1.48 4.477-.381 1.212-.872 2.287l-.734 2.177q-3.02 8.321-5.435 16.833-2.4 8.388-4.32 16.953-1.273 4.875-1.512 7.105-.41 3.84.324 5.172.61 1.318 3.517 2.255l4.287-1.42-.027.247q1.814-.557 4.295-2.672 2.619-2.226 5.153-4.836 2.672-2.721 4.835-5.371 2.3-2.761 3.503-4.637l8.461-13.503q4.277-7.185 8.241-6.76 1.982.211 3.544 2.007 1.947 1.712 2.288 4.38.478 2.557.226 4.91-.597 5.574-4.201 12.33-3.468 6.645-8.408 13.007-4.804 6.252-10.258 11.557t-10.023 8.199q-12.116 7.85-25.932 6.997l-3.468-.371q-1.61-.172-3.208-.468-2.973-.319-5.136-1.177-3.278-.977-7.083-2.887-3.668-2.022-7.021-4.636-3.354-2.614-6.022-5.78-2.668-3.168-3.673-6.658-1.376-3.53-2.045-8.99l-.433-1.8q-1.628 2.332-3.862 4.473-2.11 2.155-4.07 4.075-1.247 1.12-2.48 2.115l-2.221 2.018-1.92 1.548q-.823.664-1.495 1.093-4.406 2.536-7.21 2.987-2.57.602-7.402.085-5.202-.556-10.63-2.515-5.305-1.946-10.243-4.98-4.813-3.021-8.764-7.077-3.938-4.18-6.31-8.945-2.372-4.764-3.385-10.51-.877-5.857-.41-12.573.61-12.714 6.505-24.487 3.644-7.127 9.191-13.3 5.547-6.171 12.27-10.463 6.861-4.403 14.599-6.457 7.874-2.164 16.173-1.276 9.91 1.06 21.979 8.867l1.549 1.92q.663.823 1.08 1.619.052-.496.326-.717.15-.234.465-.827.314-.593.805-1.668.367-1.088 1.375-3.486 1.022-2.522 2.437-6.38l3.68-8.627q4.793-12.016 11.131-23.24t14.897-20.958q2.933-2.818 6.777-4.787 3.968-1.956 8.18-1.505 5.945.636 14.621 6.2 13.176 9.178 11.717 22.803-.251 2.354-.888 4.792-.394 1.336-.774 2.548t-.774 2.548q-1.932 5.18-4.1 10.21-2.03 4.92-4.32 9.937-.204.73-.982 2.15-.327.717-.641 1.31-.19.606-.505 1.199zm-88.723-10.371q4.924-.35 5.597-.78.632-.057.667-1.557-.239-1.278-.694-1.703-.235-.15-.965-.354-.606-.19-1.708-.433-2.105-.225-3.632-.013-1.91.297-4.534 1.395-2.486.986-5.273 2.442-2.65 1.345-5.065 2.841-2.291 1.509-3.8 2.726-1.37 1.106-1.968 3.172-.336 1.968.903 2.101 1.115.12 1.221-.872.066-.619.902-1.407.973-.898 2.168-1.522 1.207-.747 2.402-1.371 1.194-.624 1.716-.819 2.65-1.345 5.892-2.376 3.256-1.155 6.171-1.47m28.767 16.86q.407-1.46.65-2.562t.322-1.844q-1.734-.186-4.41 1.407-2.663 1.47-5.392 3.558t-5.087 4.216q-2.234 2.142-3.357 3.274-3.083 3.053-5.547 6.172-2.464 3.12-4.335 6.553l-.093.867q-.3.469-.805 1.668-.38 1.212-.91 2.658-.394 1.337-.775 2.549-.256 1.225-.446 1.831-.69 2.933-1.42 6.238-.433 1.708-.729 3.305-.283 1.473-.442 2.96-1.503 9.36-.454 10.1.318.534 1.225.256.907-.28 3.278-2.531 1.92-1.549 4.153-3.69 2.247-2.266 4.384-4.668 2.15-2.526 4.038-4.955 1.902-2.553 3.008-4.69.274-.221.738-1.049.164-.358.314-.592l.301-.47q1.53-2.592 2.473-4.37 1.065-1.766 1.543-2.717.602-.938.955-1.902.491-1.075.845-2.04.354-.964.747-2.3.518-1.323 1.088-3.141t1.017-3.65l1.141-3.637q.57-1.818 1.004-3.526.557-1.694.977-3.278zm52.435-76.704q.818-1.791-.55-3.065-.8-.712-1.543-.792-1.24-.132-2.5 1.11-1.247 1.12-2.424 2.748-1.052 1.642-1.994 3.42-.805 1.668-1.283 2.62l-1.583 3.087-1.336 3.115q-.681 1.681-1.212 3.128l-1.034 2.645q-1.035 2.646-.717 3.181.323 1.664 1.42.779.85-.912 3.733-5.615 1.681-2.827 3.335-5.406 1.792-2.69 3.83-5.353 3.176-3.92 3.858-5.602m23.485 118.126q1.896-8.257 5.881-15.558 4.011-7.421 9.614-13.356 5.751-6.03 12.799-10.38 7.17-4.325 15.383-6.387 10.128-2.672 20.116-.531 7.43 1.592 13.896 5.907 6.586 4.342 11.964 9.57l.965.845q1.253-2.28 2.497-3.925 1.393-1.74 2.993-2.67 1.601-.932 3.559-1.15 2.08-.191 4.76.383 1.827.392 2.897.748 1.192.383 2.088.957 1.018.6 1.984 1.445.966.844 2.219 2.131l-.366-.078q7.152 5.864 8.954 11.729 1.88 5.498 1.044 9.396-.209.975-.844 2.75-.513 1.801-1.6 4.498-.966 2.724-2.01 5.813t-2.288 6.517q-1.123 3.454-2.271 7.03t-2.445 7.248q-2.375 7.517-3.55 12.999-1.122 5.238-1.791 9.554-.548 4.341-.522 7.787-.218 6.96 3.071 7.665 1.95.418 4.255-.235 2.332-.774 4.62-1.94 2.436-1.262 4.533-2.724t3.48-2.567q4.943-4.037 8.997-9.284 4.08-5.368 6.482-11.224 1.775-4.716 3.14-6.334 1.192-1.401 4.238-.749 2.314.496 3.489 2.15 1.175 1.652 1.488 3.758.461 2.01.235 4.255-.104 2.27-.496 4.098-.757 3.532-2.418 7.126-1.662 3.593-3.933 7.056t-4.977 6.578q-2.558 3.02-5.133 5.526-7.1 6.378-15.574 9.658-8.327 3.185-17.95 1.123l-1.34-.287q-.73-.157-1.558-.461l-2.845-.992q-5.49-2.323-10.154-6.125t-8.362-8.544-6.212-10.25-3.585-11.215l-.792-2.845q-3.002 3.306-6.96 6.917-3.812 3.516-8.345 6.24-4.385 2.627-9.266 4.002-4.733 1.279-9.484.261-6.7-1.435-12.668-4.498-5.97-3.062-10.72-7.647t-7.849-10.346q-3.071-5.881-4.003-12.833-.696-4.481-.487-9.023.235-4.664 1.13-9.44zm100.798-29.238q-1.757 1.662-2.149 3.489l.192.296q.487.104 1.348-.348 1.01-.549 1.923-1.245 1.036-.67 1.732-1.54.818-.844.922-1.331.183-.853-.792-1.061-1.462-.314-3.176 1.74m-55.223 44.863q-.487 1.68-1.052 3.724t-1.21 4.455l-1.148 5.36q-.322 2.097-.33 2.732-.166 1.366.983 3.14l.644-.626q.887-.574 1.357-.983.322-.313.887-.574.566-.261 1.306-.74 5.02-2.619 9.379-6.909t8.022-9.492 6.647-10.807 5.229-10.728q2.523-5.83 4.124-8.545.374-.557.574-.896.226-.461.33-.948l.314-1.462q.339-1.584-.757-1.819t-2.741.305q-1.618.418-3.341 1.323-1.697.783-3.298 1.714l-2.366 1.531q-3.628 2.663-7.213 5.717-3.437 2.958-6.343 6.413l.244.052q-2.236 2.706-4.403 5.682-2.14 2.854-3.48 6.134-.705 1.505-1.287 3.036-.462 1.558-1.07 3.211m-19.317-41.85q-.287 1.34.81 1.574.487.105 1.818-.757.618-.504 1.801-1.27 1.305-.74 3.254-2.106 1.627-1.053 3.324-1.836 1.844-.879 3.785-1.61 3.193-1.226 6.334-2.21 3.167-1.105 6.308-2.088 2.401-.505 2.532-1.114.156-.73-.644-1.157-.653-.522-3.576-1.148-1.827-.392-3.96.043-2.105.313-4.315 1.114-2.21.8-4.228 1.897-1.871 1-3.35 1.958l-2.367 1.531q-1.505 1.08-3.184 2.376-1.558 1.322-2.871 2.697-1.288 1.253-1.47 2.106m158.774 12.43q.869.144 1.7.407.87.144 1.82.445 5.106 1.617 10.2 4.928 5.25 3.23 9.048 6.915 4.036 3.76 2.157 9.7-.64 2.018-1.98 4.6-1.22 2.618-3.024 5.837-3.724 6.4-8.995 14.793-1.733 2.587-4.043 6.168-2.191 3.619-4.338 7.512-2.148 3.894-4.02 7.744-1.835 3.731-2.774 6.7-.978 3.089.19 4.765.406.782 1.237 1.045 1.663.527 4.434-1.21 2.927-1.817 5.805-4.303 2.916-2.606 5.28-5.124 2.522-2.599 3.373-3.636 6.971-7.986 13.224-16.59 6.408-8.687 12.104-17.599 1.734-2.587 3.662-5.374 1.965-2.906 4.33-5.424t5.136-4.254q2.809-1.855 6.148-2.497l-.075.238q2.244-.074 4.614.284 1.106.22 2.294.596 1.344.295 2.77.746 1.9.602 4.556 1.704 2.813 1.021 5.475 2.517 2.663 1.496 4.7 3.317 2.155 1.859 2.78 4.016.498 1.726-.442 4.696-.977 3.088-2.436 5.631-1.34 2.581-3.192 5.131-1.045 1.237-2.084 2.868-1.04 1.632-2.229 3.738-2.767 4.612-5.415 9.262-2.61 4.531-5.177 9.337-2.686 4.769-4.621 9.644-1.936 4.876-3.709 10.064-1.128 3.563-2.487 7.445l-2.595 8.195-4.662 14.727-1.767 5.582q-.79 2.494-1.585 4.594-2.306 6.457-5.736 11.513t-8.003 10.01l.237.076q-14.623 15.233-43.87 14.337-4.296-.053-8.447-.975-4.07-.766-8.226-2.082-7.245-2.294-13.65-6.412t-11.298-9.718q-4.773-5.562-7.95-12.448-3.06-6.849-3.767-14.52-.875-8.38 1.33-13.692 1.108-2.263 2.81-4.338 1.783-1.918 3.891-3.21 2.227-1.256 4.703-1.648t5.09.435q4.037 1.279 7.573 5.795 1.704 3.284 2.077 7.06.453 3.934-.162 7.528-.502 3.239-.286 7.097t1.445 6.99q1.786 3.44 7.25 5.17 3.444 1.09 7.014.13t6.849-3.058q3.359-1.942 6.193-4.704 2.916-2.605 4.968-4.96l1.82-2.038-.074.238 8.894-13.649q3.293-6.275 6.786-12.356t7.143-12.243q.764-1.588 1.108-2.263.501-.756.576-.994l-3.022 3.356-4.505 4.323-4.43 4.086q-4.273 4.005-7.125 5.585-5.03 3.504-11.308 5.175t-12.336-.247q-2.731-.864-5.518-2.792l-6.887-4.663q-1.88-1.902-3.611-4.28-1.693-2.495-3.072-5.153-1.38-2.659-2.329-5.442-.91-2.901-1.265-5.496-.678-5.703-.498-12.049.336-6.427 2.103-12.01 3.046-9.62 7.49-17.882 4.483-8.381 10.985-16.123 14.219-18.497 23.653-17.34zm-3.554 12.464q.807-1.313.714-2.257-.45-1.057-1.28-1.32-1.426-.451-4.222 2.192-1.396 1.518-3.33 3.911-1.933 2.394-3.823 5.062t-3.624 5.256q-1.615 2.624-2.648 4.65-1.653 2.743-1.754 3.887-.201 2.288.349 2.201.625-.324 1.777-2.312.877-1.944 2.498-4.175 1.658-2.35 3.555-4.624 1.896-2.274 3.873-4.393 2.096-2.08 3.61-3.56 1.59-1.719 2.716-2.8t1.589-1.718m50.442 29.297q-1.878 3.456-1.904 4.363.093.944.45 1.057.83.263 2.903-3.393 1.953-3.694 4.388-6.844 2.472-3.268 5.381-6.267.932-.88 1.552-1.6.776-.8 1.314-1.674 1.24-1.437 1.39-1.912.338-1.07-.537-1.608t-2.05-.126q-.783.406-2.598 2.837-1.777 2.312-3.899 5.299-1.965 2.906-3.774 5.73t-2.616 4.138m23.47 105.327q.942-.702 1.768-1.45l1.794-1.173q1.677-1.218 1.813-1.566.09-.233.155-.742.11-.626.15-1.413t-.083-1.503q-.077-.832-.2-1.548l-.295-1.987q-.103-1.11-.276-2.38-.218-1.155-.32-2.264.013-1.065-.18-1.942-.674-5.477 1.831-9.849 2.209-3.952 6.054-5.93 3.962-1.933 8.426-2.066 2.729-.14 4.818.674 2.67 1.04 5.041 4.906t3.942 8.755q1.617 4.774 2.007 9.606.552 4.76-.579 7.663-2.08 5.34-12.553 11.287-1.658.824-3.432 1.604-1.775.779-3.594 1.674-1.084.38-3.574 1.282-2.536 1.018-5.375 1.783-2.722.811-5.31 1.274-2.47.508-3.515.101-.696-.271-1.611-1.697t-1.579-3.155q-.708-1.613-1.094-3.368-.315-1.594-.044-2.29.679-1.741 5.815-4.286zm12.25-24.24q-.813 2.09.095 2.845.793.71 2.142-1.037 1.33-1.354 1.873-2.747.471-1.554-.109-1.78-2.554-.995-4 2.72zM2326.37 596.316q-.265.71-.7 1.466-.264.71-.591 1.528l-.932 1.62q-.327.817-.886 1.79-1.615 2.807-3.508 5.598t-3.832 5.413q-2.453 3.763-5.69 6.643t-7 5.172q-20.76 13.352-46.943 10.65-3.445-.258-6.671-1.395-2.038-.454-2.009-.006-.033.557 1.447 1.982.37.357.785.884.416.526 1.156 1.239.677.82 1.247 1.58l1.355 1.642q.291.742.645 1.377.461.696.815 1.33.291.743.52 1.594.4.805.675 1.825.383 1.083.75 2.444l.826 3.062q.396 1.809.885 3.958.596 2.211 1.16 4.979.855 3.51 1.48 6.17.626 2.659 1.13 4.53l.872 3.232q.475 1.423.983 2.29.969 1.563 2.235 1.86t3.445.258q3.075-.1 4.37.646.973.56 1.186 1.688.226 1.855-1.664 3.642-1.675 1.91-4.537 3.139-2.754 1.29-5.924 2.053-3.062.826-6.215 1.31-3.092.378-5.61.51-1.902.056-4.172-.244-2.225-.13-4.541-.6-2.209-.408-4.4-1.095-2.085-.624-3.705-1.555-2.483-1.43-5.658-4.405-1.31-1.472-2.51-2.882-1.093-1.347-2.079-2.632-.907-1.672-1.765-4.178-.75-2.443-1.375-5.103-.564-2.767-.912-5.41-.24-2.582-.296-4.482-.234-4.59.015-5.022l-.091-.34q-.23-.851.035-1.561l.514-6.89q.114-1.947-.048-4.914.01-3.013-.306-6.213-.315-3.199-1.095-6.09-.61-2.938-1.687-4.564-1.152-2.244-4.405-4.834l-3.007-2.017-8.267 10.622-3.073 4.843-3.643 4.084-1.929 4.352-1.118 1.944q-.451 1.034-1.259 2.438-.7 1.466-1.383 2.654-.513 1.142-.794 2.13-2.085 5.124-3.665 6.37-1.858 1.231-6.585.955-.727.013-1.283-.02-.618.076-.958.168-.557-.032-1.329-.19-.772-.156-1.744-.715-.602-.203-1.466-.7l-2.051-1.18-5.184-2.982q-2.7-1.553-2.99-2.295l-.956-.837q-.478-.419-1.064-.9-.523-.588-1.171-.961l-1.188-.683q-.416-.527-.894-.946-.54-.31-.847-.775-.956-.837-1.031-1.455.033-.556-.459-1.701-.491-1.145-1.212-3.14-1.12-2.8-1.7-5.29-.593-3.216.374-6.396.968-3.18 2.197-6.066.902-2.068 2.069-4.846t2.644-6.096q1.726-3.75 5.591-9.719 4.503-7.326 9.313-14.188 4.98-6.908 10.284-13.63 2.838-3.685 5.552-7.154 2.822-3.407 5.566-6.427 3.195-4.055 4.189-5.783.99-.723 1.534-1.417.713-.74 1.363-1.371.481-.586.73-1.018.418-.478.542-.693.403-.2 2.371-2.373 2.156-2.497 4.356-4.824 2.263-2.435 4.742-4.746 1.613-1.803 1.505-1.865-.432-.248-3.894-.227-3.29-.025-7.432.179-4.034.266-7.852.657-3.648.345-5.07.82l-.851.23q-.448.029-.789.12-.51.138-1.252.43-.743.29-1.888.782l-2.46 1.028q-2.276 1.709-3.464 1.025-.54-.31-.94-1.115-.337-.912-.612-1.933t-.442-1.98q-.06-.896-.197-1.406-1.844-14.283 2.805-24.112 4.649-9.83 14.985-14.806 4.936-2.335 11.243-3.305t12.952-1.03q6.644-.057 13.194.55 6.55.605 11.91 1.532 9.605 1.79 19.486 4.6 9.943 2.702 18.677 7.007l13.066 7.517q1.234.853 2.36 1.644 1.295.746 2.359 1.645 11.489 7.76 18.998 18.69t9.663 24.674q1.659 8.859.801 16.845-.687 7.94-3.416 16.431-.343 1.096-.84 1.96-.327.818-.546 1.698zm-81.815-91.62q3.644.66 4.08-.096.418-.478-.446-.975-1.512-.87-4.94-1.405-3.367-.643-7.199-.979-3.83-.336-7.616-.501-3.677-.103-5.856-.063-1.067.105-4.312.25-3.137.207-6.677.614-3.37.361-6.307.97-2.768.564-3.327 1.536-1.304 2.268.208 3.138 1.511.87 6.072.187 9.074-1.534 18.117-2.512 9.042-.979 18.203-.164m41.775 93.018q.853-1.234 1.429-2.483.575-1.25.86-3.243.453-2.038.521-4.155.238-2.163.028-4.296-.102-2.07-.64-3.385-.269-3.03-2.282-6.775t-3.814-6.362q-.877-1.223-1.709-2.276-.83-1.053-1.616-1.936-.77-1.161-3.84-3.07-1.387-1.087-2.898-1.956-1.342-.916-2.622-1.94l-7.218-4.44 1.1 4.083q1.376 5.103-.163 8.529-1.71 3.472-8.402 9.108-1.874 1.509-4.415 3.927-1.41 1.201-2.711 2.465-1.24 1.155-2.65 2.356-2.54 2.419-4.911 4.792-1.178 1.047-1.953 1.894-.605.802-1.131 1.218l-2.015 2.003q-1.177 1.047-2.139 2.219-.915 1.341-1.814 2.405l-1.491 2.592 4.335 2.206 2.068.903q1.034.45 2.346.918 1.312.467 2.408.81 1.204.406 2.193.687 5.418 1.823 11.225 2.72 5.87.79 11.542.173 5.781-.555 10.995-2.873t9.384-6.818zm18.485 61.052q5.138-6.736 11.783-11.737 6.72-5.102 14.274-8.191 7.728-3.115 15.944-4.165 8.315-.976 16.647.54 10.327 1.75 18.539 7.827 6.109 4.52 10.213 11.12 4.204 6.675 6.94 13.659l.532 1.168q2.082-1.559 3.895-2.542 1.987-1.01 3.83-1.196 1.842-.187 3.714.424 1.973.685 4.176 2.315 1.503 1.111 2.33 1.878.927.841 1.506 1.735.68.967 1.21 2.134.53 1.168 1.14 2.858l-.3-.222q4.09 8.295 3.307 14.38-.56 5.784-2.931 8.989-.593.801-1.905 2.155-1.211 1.428-3.316 3.435-2.005 2.081-4.232 4.463-2.226 2.381-4.776 4.99-2.449 2.681-4.972 5.463t-5.221 5.59q-5.27 5.865-8.603 10.372-3.186 4.306-5.58 7.96-2.292 3.727-3.692 6.875-3.074 6.25-.37 8.25 1.602 1.185 3.972 1.544 2.443.258 5.009.141 2.74-.142 5.253-.607t4.23-.9q6.168-1.634 12.028-4.737 5.934-3.203 10.54-7.544 3.565-3.56 5.478-4.47 1.664-.783 4.168 1.069 1.903 1.408 2.29 3.398.386 1.991-.199 4.038-.41 2.021-1.543 3.972-1.034 2.025-2.145 3.527-2.149 2.904-5.147 5.49t-6.497 4.801-7.25 3.935q-3.576 1.692-6.957 2.91-9.1 2.875-18.173 2.361-8.899-.54-16.81-6.394l-1.102-.815q-.6-.444-1.228-1.063l-2.181-2.079q-4.04-4.384-6.716-9.773-2.677-5.39-4.085-11.235-1.408-5.846-1.423-11.9t1.369-11.695l.454-2.918q-4.1 1.77-9.196 3.423-4.923 1.627-10.176 2.234-5.08.581-10.092-.183-4.84-.791-8.745-3.68-5.508-4.076-9.678-9.331t-6.603-11.393-2.873-12.664q-.367-6.625 1.658-13.34 1.217-4.37 3.283-8.419 2.141-4.15 4.93-8.13zm103.873 15.02q-2.287.788-3.399 2.29l.052.348q.4.297 1.372.24 1.146-.082 2.265-.338 1.22-.182 2.213-.687 1.094-.43 1.39-.831.519-.701-.282-1.294-1.202-.89-3.611.272zm-68.825 18.04q-1.138 1.327-2.498 2.956-1.36 1.628-2.941 3.557l-3.26 4.407q-1.16 1.776-1.43 2.351-.715 1.176-.403 3.267l.845-.305q1.046-.156 1.643-.334.422-.153 1.045-.157t1.494-.134q5.654-.311 11.396-2.416t11.227-5.33 10.518-7.096 9.195-7.61q4.706-4.266 7.285-6.076.571-.353.894-.58.396-.326.693-.726l.889-1.202q.963-1.302.061-1.969t-2.622-.855q-1.646-.288-3.589-.176-1.868.013-3.71.199l-2.789.417q-4.404.925-8.93 2.226-4.352 1.274-8.426 3.219l.2.148q-3.154 1.54-6.356 3.355-3.128 1.715-5.704 4.149-1.263 1.08-2.427 2.233-1.063 1.228-2.3 2.482zm-.3-46.093q-.816 1.102.085 1.768.4.297 1.97.062.77-.204 2.164-.412 1.494-.135 3.833-.573 1.917-.287 3.786-.3 2.043-.037 4.112.099 3.414.202 6.68.604 3.342.302 6.608.704 2.396.533 2.766.032.445-.6-.108-1.32-.379-.745-2.782-2.523-1.502-1.111-3.623-1.596-2.047-.585-4.39-.769-2.344-.184-4.635-.02-2.117.14-3.86.4l-2.787.416q-1.817.361-3.882.848-1.965.56-3.729 1.27-1.69.609-2.209 1.31zm139.452 76.918q.732.49 1.38 1.074.732.49 1.473 1.157 3.983 3.582 7.253 8.702 3.446 5.11 5.383 10.036 2.122 5.092-2.044 9.723-1.416 1.575-3.703 3.372-2.194 1.88-5.165 4.067-6.036 4.289-14.304 9.754-2.648 1.64-6.23 3.947-3.49 2.39-7.055 5.049-3.564 2.658-6.86 5.39-3.212 2.64-5.295 4.956-2.166 2.409-1.795 4.418.047.88.695 1.463 1.297 1.166 4.538.73 3.416-.446 7.064-1.52 3.732-1.169 6.926-2.485 3.37-1.325 4.574-1.918 9.647-4.392 18.896-9.645 9.425-5.262 18.294-11.024 2.648-1.64 5.555-3.382 2.99-1.834 6.184-3.15t6.435-1.752q3.324-.529 6.63.266l-.166.186q2.074.86 4.084 2.165.917.657 1.843 1.49 1.102.824 2.214 1.824 1.482 1.333 3.445 3.434 2.14 2.092 3.946 4.555t2.91 4.962q1.195 2.583.871 4.806-.258 1.778-2.341 4.093-2.166 2.409-4.545 4.122-2.287 1.797-5.027 3.354-1.463.695-3.083 1.75-1.62 1.057-3.574 2.484-4.425 3.057-8.758 6.197-4.25 3.048-8.573 6.364-4.415 3.233-8.192 6.873t-7.535 7.632q-2.5 2.78-5.342 5.752l-5.748 6.391-10.33 11.486-3.916 4.353q-1.75 1.945-3.342 3.529-4.767 4.927-9.98 8.114-5.212 3.187-11.424 5.81l.185.166q-19.61 7.83-45.874-5.07-3.89-1.823-7.289-4.377-3.39-2.379-6.632-5.295-5.65-5.082-9.781-11.479t-6.273-13.517q-2.049-7.037-2.097-14.62.044-7.501 2.57-14.78 2.664-7.992 6.867-11.92 1.944-1.602 4.35-2.788 2.417-1.01 4.871-1.316 2.547-.223 4.964.443 2.417.665 4.454 2.498 3.15 2.833 4.503 8.407.196 3.694-1.026 7.288-1.212 3.769-3.257 6.788-1.796 2.741-3.193 6.344-1.397 3.602-1.572 6.964.205 3.87 4.466 7.702 2.686 2.416 6.334 3.017 3.649.601 7.5.044 3.862-.38 7.584-1.724 3.731-1.168 6.574-2.465l2.5-1.103-.167.185 13.739-8.754q5.591-4.354 11.285-8.449 5.693-4.094 11.563-8.198 1.351-1.13 1.944-1.603.768-.481.935-.667l-4.139 1.807-5.888 2.076-5.722 1.891q-5.546 1.881-8.796 2.142-6.028 1.113-12.436.04t-11.132-5.32q-2.13-1.917-3.872-4.824l-4.345-7.092q-.927-2.509-1.52-5.388-.51-2.972-.669-5.963-.158-2.991.128-5.917.37-3.02 1.119-5.529 1.739-5.473 4.524-11.178 2.962-5.714 6.878-10.067 6.748-7.502 14.21-13.19 7.544-5.78 16.664-10.145 20.59-10.97 28.703-6.018m-8.386 9.883q1.277-.862 1.583-1.76.027-1.148-.621-1.731-1.112-1-4.75.251-1.898.806-4.648 2.187t-5.574 3.03-5.471 3.288q-2.555 1.723-4.333 3.14-2.638 1.816-3.203 2.817-1.129 2-.592 2.148.704-.037 2.574-1.371 1.602-1.408 4-2.77 2.48-1.455 5.147-2.742 2.666-1.288 5.342-2.4 2.769-1.029 4.76-1.752 2.156-.908 3.629-1.427t2.157-.908m33.83 47.52q-3.138 2.372-3.536 3.187-.305.898-.027 1.148.648.583 4.046-1.89 3.305-2.557 6.823-4.42 3.601-1.954 7.49-3.483 1.213-.417 2.074-.816 1.037-.408 1.889-.982 1.722-.797 2.055-1.167.75-.834.175-1.686-.574-.851-1.815-.962-.88.046-3.537 1.51-2.573 1.372-5.74 3.215-2.99 1.835-5.804 3.66t-4.092 2.686zm15.507 55.658q6.325-5.637 13.798-9.286 7.566-3.733 15.57-5.331 8.179-1.591 16.444-1.062 8.35.62 16.242 3.69 9.806 3.682 16.715 11.206 5.14 5.598 7.916 12.858 2.86 7.352 4.22 14.728l.3 1.247q2.34-1.134 4.307-1.756 2.142-.614 3.987-.447 1.844.167 3.567 1.122 1.807 1.047 3.66 3.066 1.264 1.377 1.93 2.287.751 1.002 1.15 1.989.483 1.078.783 2.325t.576 3.023l-.253-.276q2.441 8.922.517 14.747-1.648 5.572-4.585 8.268-.734.675-2.279 1.755-1.46 1.172-3.908 2.743-2.364 1.662-5.002 3.577t-5.637 3.992q-2.914 2.168-5.92 4.42-3.005 2.253-6.187 4.498-6.287 4.757-10.416 8.548-3.946 3.623-6.99 6.756-2.958 3.224-4.93 6.05-4.205 5.551-1.93 8.029 1.348 1.468 3.606 2.27 2.35.717 4.891 1.09 2.717.38 5.273.401t4.324-.08q6.367-.433 12.71-2.367 6.433-2.018 11.78-5.405 4.176-2.82 6.227-3.349 1.782-.453 3.889 1.841 1.6 1.744 1.602 3.772 0 2.028-.961 3.926-.787 1.907-2.27 3.607-1.399 1.792-2.775 3.055-2.662 2.444-6.096 4.413t-7.29 3.48-7.865 2.486q-3.834.983-7.384 1.537-9.48 1.094-18.29-1.133-8.635-2.22-15.291-9.47l-.927-1.01q-.505-.55-1.003-1.276l-1.747-2.456q-3.134-5.07-4.738-10.87t-1.877-11.807q-.273-6.007.863-11.954 1.135-5.947 3.565-11.222l1-2.779q-4.362.96-9.68 1.615-5.142.662-10.415.261-5.097-.394-9.873-2.096-4.601-1.696-7.887-5.274-4.634-5.048-7.73-10.999t-4.319-12.44q-1.222-6.488-.416-12.978.898-6.575 4.16-12.784 2.025-4.057 4.823-7.641 2.89-3.668 6.385-7.046zm99.13 34.472q-2.394.339-3.77 1.603l-.016.352q.337.367 1.302.496 1.14.137 2.288.098 1.232.052 2.303-.255 1.156-.215 1.523-.552.642-.59-.032-1.324-1.011-1.101-3.597-.418zm-70.997 4.641q-1.37 1.088-3.014 2.429t-3.563 2.934l-4.038 3.707q-1.476 1.524-1.85 2.037-.926 1.018-1.016 3.13l.888-.138q1.056.045 1.676-.016.444-.07 1.056.045.612.114 1.492.152 5.61.768 11.648-.209t12.035-3.101 11.674-4.969 10.472-5.725q5.43-3.295 8.307-4.583.627-.237.987-.398.451-.246.818-.583l1.101-1.01q1.193-1.096.435-1.922t-2.412-1.337q-1.561-.596-3.49-.854-1.837-.343-3.681-.51l-2.817-.12q-4.5.072-9.19.49-4.515.424-8.884 1.56l.169.183q-3.39.914-6.878 2.087-3.397 1.09-6.388 2.99-1.446.82-2.807 1.732-1.277 1.003-2.73 2m8.458-45.31q-1.01.926-.252 1.752.337.367 1.922.435.795-.054 2.204.006 1.492.152 3.872.165 1.936.083 3.773.426 2.013.35 4.018.877 3.315.847 6.446 1.862 3.222.93 6.353 1.946 2.25.978 2.71.557.55-.506.144-1.317-.23-.803-2.252-3.005-1.264-1.377-3.255-2.255-1.898-.963-4.164-1.589t-4.547-.9q-2.104-.265-3.864-.34l-2.817-.12q-1.852.009-3.971.094-2.036.178-3.903.54-1.775.276-2.417.866zm60.233 156.5 15.067 19.567-24.484 18.852-15.067-19.568zm119.432-91.96 15.067 19.567-63.138 48.615-35.897 24.57-12.024-15.617 32.854-28.52z"/></g><path d="M599.895 3184.179q0 2.592-1.248 6.144t-3.456 6.816q-2.112 3.264-4.896 5.568-2.784 2.208-5.952 2.208h-1.248q-.768-.096-1.824-.192-1.056-.192-2.208-.288-1.056-.096-2.208-.288t-2.208-.288-2.016-.192-1.536-.192-.768-.192h-.576q-1.344-.288-3.264-.576-2.016-.288-4.32-.576-1.152-.192-2.304-.288t-2.304-.288q-1.152-.096-2.208-.096-.96-.096-1.92-.096-4.032 0-4.032.384 0 .864.864 1.44.864.384.864 2.4 0 .48-1.056 3.36-.576 1.344-1.152 2.784t-1.152 3.072q-.192.48-.768 1.824t-1.152 2.88q-.576 1.44-1.056 2.784-.384 1.248-.384 1.728v.192q0-.288-.576.768-.192.576-.48 1.248l-.672 1.344-.576 1.536q-.288.768-.672 1.632-.576 1.824-.576 3.072 1.92 0 4.8.096t6.048.48q3.264.288 6.528 1.056t5.856 2.112q2.592 1.248 4.224 3.264 1.632 1.92 1.632 4.704 0 6.816-2.112 9.024-2.016 2.304-2.688 2.304-.576 0-1.056-1.056-.864-1.44-3.936-2.208-2.976-.864-6.72-1.248-3.648-.384-7.104-.48t-5.184-.096q-1.536 0-3.264.288l-2.88.384-1.248 4.992q-1.536 6.432-2.496 12.864t-1.728 12.96q-.192 1.92-.288 3.552-.096 1.536-.096 2.688 0 2.304.768 4.8.768 1.92 1.632 3.744t1.92 3.648q.864 1.44.864 2.016-.288 1.536-2.208 2.496t-4.416 1.44q-2.4.48-4.8.672-2.304.192-3.456.192-9.984 0-15.456-4.128-5.472-4.032-7.2-13.728-1.152-6.336-1.152-15.552 0-2.688.096-5.376.192-2.688.576-5.376.192-1.152.288-2.112.192-.96.384-1.728.288-1.632.288-2.016 0-.576-.384-.576l-1.152.384q-.768.192-1.824.48t-2.688.576q-3.648.96-6.144 1.92-.96.288-1.824.48t-1.632.192q-1.056 0-1.728-.384-.576-.384-1.344-1.248-.48-.768-.864-1.536t-.672-1.728q-.672-1.632-.96-3.648-.288-2.112-.288-3.84 0-6.336 5.088-9.12 5.088-2.88 16.896-4.704l3.936-.48 4.032-16.512q.192-.48.288-.864.192-.384.288-.768.096-.768.672-1.344l1.824-5.856.864-1.728q.384-.768.576-1.44.192-.768.288-1.056.192-.384.192-.576h-.192q-.768 0-3.072.672-1.248.288-2.592.576-1.248.288-2.784.48l-10.176 1.824q-1.248.384-1.536.672l-6.24 1.44q-3.168.864-5.856.864-3.072 0-5.376-1.248-2.304-1.344-3.84-3.456-1.44-2.112-2.208-4.8t-.768-5.376q0-7.104 3.744-12.192t9.792-8.64q6.048-3.648 13.728-5.856t15.456-3.456q7.872-1.248 15.264-1.632 7.392-.48 12.768-.48 11.136 0 22.752 1.44 11.712 1.344 22.272 4.992 1.824.576 4.896 1.824t5.952 2.976q2.976 1.728 5.088 3.936 2.112 2.112 2.112 4.512m-93.6-8.736q0-.672-4.224-.672-2.304 0-5.376.768-2.976.672-6.144 1.824-3.168 1.056-6.144 2.4-2.88 1.344-4.896 2.688-2.976 1.824-2.976 2.976 0 1.248 1.056 1.248 1.248 0 3.552-1.44.96-.48 2.496-1.152 1.536-.768 3.648-1.536 4.704-1.92 9.408-3.648 4.704-1.824 9.6-3.456m132.48 81.216q1.536-3.552 2.016-8.256.192-2.4.192-4.416t-.384-3.648q-.576-1.824-1.344-1.824-.384 0-.768.384-5.472 2.976-12.768 17.76-.672 1.248-1.344 3.36t-1.248 4.512q-.576 2.304-.96 4.608t-.672 3.936q-.288 1.44-.48 2.496-.096 1.056-.288 1.824 0 .48-.096.672-.096.288-.096.768l-1.056 7.104q-.864 5.184-1.536 7.008-.672 1.92-1.824 2.4-.192.192-2.016.48-.768.096-1.632.192-.768.096-1.824.288-.96.192-1.824.288t-1.824.288q-.864.096-1.44.192h-1.728q-.384-.096-.864-.096-1.344-.192-2.112-.384-1.824-.288-3.264-.576-1.344-.384-2.592-.96t-2.4-1.44q-1.056-.96-2.4-2.208-1.248-1.632-2.208-3.264t-1.824-3.456q-1.632-5.472-2.112-11.232-.384-5.856-.384-11.616 0-2.784.192-5.568.288-2.88.672-5.664.48-3.936.768-7.2.384-3.264.672-5.952.48-3.36 1.536-7.392t2.592-7.968q1.536-4.032 3.552-7.584 2.112-3.648 4.608-6.144.864-.864 2.208-1.44 1.056-.576 2.88-.384.864 0 1.92.096 1.152.096 2.496.192 2.016.288 4.512 1.056 2.496.672 4.8 1.824 2.4 1.152 4.416 2.688t2.976 3.456q.768 1.44.96 4.704.096 2.976-.288 4.704-.192.384-.384 2.112-.288 1.536-.576 3.744-.192 1.056-.288 2.112t-.288 2.112-.288 1.92q-.096.768-.288 1.344.288-.384.384-.768.384-.576.672-.864 2.208-3.072 4.608-6.048 2.496-2.976 5.184-5.664 2.784-2.688 5.76-4.992 3.072-2.304 6.432-4.032 2.592-1.536 3.744-1.632 1.344-.288 4.224-.288l6.24 1.536q1.824 1.536 3.648 4.032 1.92 2.496 2.4 4.896 1.248 3.744 1.248 7.968 0 5.568-.96 10.368-.864 4.8-3.168 8.448-2.208 3.648-6.048 6.144-3.84 2.4-9.696 3.36-1.536 0-3.072.096-1.44 0-2.976.096-2.88 0-3.456-1.056t.576-3.552m12.672-38.112q-.96.864-.96 1.248 0 1.056 2.016-.192.96-.384 1.44-1.152.288-.768-.768-.768-.864 0-1.728.864m-47.712-4.896q.48-1.632-.96-1.632-.768 0-1.824 1.44-.96 1.44-2.016 3.744-.96 2.208-2.016 4.992-.96 2.784-1.728 5.472-.672 2.688-1.152 4.992-.48 2.208-.48 3.456 0 1.44.384 1.344.384 0 .864-1.344.096-.768.288-1.632.192-.96.48-2.112.384-1.152.672-2.304.384-1.248.864-2.496.768-2.304 1.728-4.512t2.208-4.32q2.4-3.648 2.688-5.088m153.696 35.52q.096 1.056.096 2.88.096 1.824.096 4.608 0 1.632-.096 3.168 0 1.44-.096 2.688-.48 4.128-1.728 7.872-1.248 3.648-2.88 7.392-1.344 2.496-2.784 4.896t-3.552 4.32q-6.144 6.24-12.96 9.024-2.688.864-5.568 1.056-2.784.192-5.568.192-2.592 0-4.8-.096-2.112-.192-3.744-.576-2.304-.288-5.376-1.056-2.976-.768-6.048-1.824-3.072-1.152-5.856-2.496-2.784-1.44-4.608-2.976-5.376-4.224-8.352-8.736t-4.32-11.136q-.576-3.168-.96-6.048-.288-2.88-.288-5.472 0-9.504 4.416-17.952.864-2.016 2.016-4.032 1.248-2.112 2.688-3.744.48-.48.96-1.056.576-.672 1.248-1.44 4.32-4.608 9.6-7.776t11.424-4.224q.864-.096 2.304-.096 1.536-.096 3.648-.096 2.976.096 5.28.384 2.4.288 4.512.864 2.208.48 4.416 1.344 2.208.768 4.896 2.016v-.192q10.464 4.992 14.016 14.016.384.672.672 1.344.576.864.768.96 3.168 2.4 4.512 5.28 1.44 2.88 2.016 6.72m-50.112-22.656q4.608-2.304 2.784-3.744-.384-.384-1.152-.384-1.344 0-3.168.864-1.728.864-3.456 2.016t-3.264 2.496q-1.536 1.248-2.4 2.112-5.664 6.24-3.552 7.968.48.768 1.056 0l2.112-2.976q.864-1.248 2.208-2.4 1.344-1.248 2.784-2.304 1.536-1.152 3.072-2.016 1.632-.96 2.976-1.632m33.504 28.032-1.248-.384h.192q-2.208-.48-3.552-2.208-1.248-1.728-2.016-3.648-.192-.576-.192-1.248v-1.44q.192-1.44.768-3.168.864-3.072.864-5.088t-1.056-2.496q-1.824-.384-4.896 1.92-2.976 2.208-5.184 5.376-3.36 6.336-4.992 13.728-1.632 7.296-1.632 14.4v2.976q0 1.152.096 1.728 0 .576.192 1.152.288.576.672 1.248.768 1.152 1.44 1.92t1.344 1.152q1.152.864 2.88.672.576-.096 1.056-.192l1.152-.192q1.344-.384 2.016-.672v-.192q4.032-1.92 6.432-5.376 2.496-3.552 4.032-7.584v.192l1.632-6.912zm140.16 5.28q-.96 4.704-1.535 8.256-.48 3.456-.672 5.952-.288 4.896.96 6.432.672.672 1.248.672.48 0 1.536-.96l1.056-1.056q.576-.576 1.248-1.344l1.152-1.536q.672-.768 1.248-1.728.576-.864 1.056-1.728l1.152-1.92q1.728-3.36 3.072-7.2 1.44-3.936 1.92-7.68.384-2.304.96-2.688.384-.384 1.728-.384 1.44 0 3.168.864 1.728 1.056 2.688 2.208 1.056 1.92.96 6.336-.192 6.816-2.688 13.248-2.496 6.336-6.816 11.616-3.744 3.936-8.736 5.952t-10.368 2.016q-7.776 0-12.96-4.224-3.744-3.456-5.376-9.312-.864-2.88-1.248-6.528-.288-3.744-.096-8.352 0-4.992.576-9.888.576-4.992 1.344-9.888.384-2.784.864-4.128.192-.864.288-1.536.192-.768.384-1.44.48-1.248.192-1.248-.576 0-1.536 1.248-2.592 3.072-4.512 6.72t-3.36 7.584q-1.344 3.84-2.4 7.872-1.056 3.936-2.016 7.776-.672 2.496-1.536 4.608-.768 2.016-2.016 3.552t-3.072 2.592-4.512 1.632q-1.152.192-2.016.384-.864.096-1.536.096-1.248.096-3.552-.864h.192q-3.648-1.056-6.24-3.744-2.496-2.784-2.496-6.72v-1.056q0-.288-.192-.864 0-.192-.096-.48v-.576q.288-.48.288-2.496 0-.672.096-1.056v-.672q.096-.384.096-.768.096-1.344.288-2.976.192-1.728.384-3.936.288-2.208.48-4.128.288-2.016.48-3.84.384-2.976.864-5.568.384-2.208.768-2.784-.576 0-1.632 1.632-.96 1.632-2.016 3.744-1.056 2.016-1.92 3.936-.864 1.824-1.056 2.4-.576 1.344-1.632 3.648-.96 2.208-1.92 4.608t-1.728 4.704q-.672 2.208-.768 3.552 0 .192-.576 1.92-.192.768-.48 1.824-.288.96-.576 2.112-.384 2.208-1.152 4.704-.288 1.248-.48 2.208-.192.864-.288 1.632-2.112 10.464-4.032 12.384-.96.96-2.496 1.536-1.536.48-3.168.768t-3.36.384h-2.88q-5.664 0-9.408-1.248h-.192q-2.592-.96-4.32-2.304-1.728-1.44-2.88-3.264-1.056-1.92-1.728-4.128-.576-2.208-.864-4.704-.384-2.784-.576-5.856-.096-3.072-.096-6.528 0-4.8.192-10.56.288-5.76 1.056-11.616t2.112-11.424q1.44-5.568 3.744-9.888 1.248-2.688 2.592-4.512t2.88-2.976q3.264-2.208 7.68-2.208t8.064 1.248q3.744 1.152 7.392 3.744 4.224 3.072 5.472 5.952.384 1.344.096 4.512-.192 1.536-.576 3.36-.288 1.824-.768 4.032 1.728-2.784 4.512-6.816 2.88-4.032 6.24-7.68 3.456-3.744 7.2-6.336t7.392-2.592q1.728 0 3.744.768 2.016.672 3.84 1.92 1.92 1.152 3.36 2.688 1.536 1.536 2.208 3.168h-.192q.288.864.48 2.208.288 1.344.384 2.784t.096 2.784q.096 1.344.096 2.304.864-1.248 2.112-2.784 1.248-1.632 2.592-3.168 1.344-1.632 2.688-2.976 1.44-1.344 2.688-2.208 1.824-1.056 3.936-1.056 2.304 0 5.184 1.344 2.88 1.248 5.568 3.264 2.784 1.92 4.896 4.32 2.208 2.4 3.072 4.704.48 1.536.672 3.936v2.496q.096 1.344.096 2.976 0 3.648-.384 7.2t-1.344 7.104m-94.367-31.68q2.016-4.608.384-5.184-1.44-.576-3.168 2.88-1.92 3.648-2.88 9.024-.48 1.728-.576 3.264-.288 1.632-.672 2.4-.48 1.824-.192 2.976.192 1.248 1.056.768.192 0 1.056-2.112.096-.96.768-3.072.384-.96.672-1.92.288-1.056.768-2.112.672-1.824 1.344-3.456.672-1.728 1.44-3.456m47.712-5.376q.384 0 .384-.864 0-.768-.672-.768-.48 0-2.016.768-.864.384-1.728 1.248-.768.864-.768 1.92 0 .576.384.576.576 0 2.304-1.44 1.44-1.44 2.112-1.44m31.776 6.048q1.152-.576.96-1.152 0-.576-1.152-.288-.864 0-1.248 1.056-.192 1.248 1.44.384m116.868 50.971h19.78v23.813h-19.78zm0-75.468h19.78v23.812h-19.78z" aria-label="From :" style="font-size:192px;font-family:&quot;Magic Bubble&quot;;-inkscape-font-specification:&quot;Magic Bubble&quot;;fill:#fff;stroke-width:5.66929;stroke-linecap:round;stroke-linejoin:round"/><text xml:space="preserve" x="1885.678" y="3306.196" style="font-size:192px;font-family:&quot;Magic Bubble&quot;;-inkscape-font-specification:&quot;Magic Bubble&quot;;text-align:center;writing-mode:lr-tb;direction:ltr;text-anchor:middle;opacity:1;fill:#fff;fill-opacity:1;stroke-width:5.66929;stroke-linecap:round;stroke-linejoin:round"><tspan x="1885.678" y="3306.196">Dylan and Family</tspan></text></svg>