<svg xmlns="http://www.w3.org/2000/svg" xml:space="preserve" width="1000" height="500" viewBox="0 0 1000 500"><path d="M187.29 54.62c-1.037.026-2.074.082-2.864.119-13.108.599-41.363 3.281-53.028 5.25-30.432 5.14-43.322 9.629-57.309 21.175-.726.6-12.25 11.646-15.231 27.57-6.069 2.23-6.328 2.582-8.654 8.7-11.088 29.165-15.186 55.297-17.47 111.387-1.016 24.993-1.017 72.067 0 92.512 1.748 35.122 7.663 94.285 27.592 114.38 16.271 16.406 54.333 14.525 74.356-25.757l4.245-8.1c6.012 13.269 16.758 23.346 30.758 28.087a32.8 32.8 0 0 0 11.145 2.145h638.34a32.8 32.8 0 0 0 11.145-2.145c14-4.741 24.746-14.818 30.758-28.088l4.245 8.1c20.023 40.283 58.085 42.164 74.356 25.757 19.929-20.094 25.844-79.257 27.592-114.379 1.017-20.445 1.016-67.519 0-92.512-2.284-56.09-6.382-82.222-17.47-111.386-2.326-6.12-2.585-6.471-8.654-8.7-2.982-15.925-14.505-26.971-15.231-27.57-13.987-11.547-26.877-16.036-57.309-21.175-11.665-1.97-39.92-4.652-53.028-5.251-1.58-.073-4.152-.226-5.723-.058-1.504.161-2.985.498-4.485.81-1.555.324-2.392 1.299-3.42 3.993l-1.364 3.566a670531 670531 0 0 1-355.285.028v-.042h-7.155l-2.575-2.462a2.1 2.1 0 0 0-1.454-.586h-26.476c-.312 0-.612.12-.842.335l-1.375 1.29H391.2l-1.375-1.29a1.23 1.23 0 0 0-.842-.335h-26.476c-.54 0-1.06.21-1.454.586l-2.575 2.462h-7.155v.03q-75.954-.011-151.906-.016l-1.363-3.566c-1.03-2.694-1.866-3.669-3.421-3.993-1.5-.312-2.981-.649-4.485-.81-.786-.084-1.822-.087-2.859-.061" style="display:inline;fill:#dfdfe7;fill-opacity:1;stroke-width:.789385"/><g style="fill:#000"><path d="M1220.769 541.878c-12.198 0-22.117 9.918-22.117 22.117 0 12.197 9.92 22.114 22.114 22.114 12.2 0 22.115-9.917 22.115-22.114 0-12.2-9.915-22.117-22.115-22.117m-.105 81.986c-12.197 0-22.116 9.918-22.116 22.117 0 12.197 9.92 22.114 22.115 22.114 12.199 0 22.114-9.917 22.114-22.115s-9.915-22.116-22.114-22.116m63.161-18.822c0-12.196-9.918-22.117-22.117-22.117-12.197 0-22.114 9.92-22.114 22.115 0 12.2 9.917 22.114 22.114 22.114s22.117-9.915 22.117-22.114m-81.986-.105c0-12.196-9.918-22.117-22.117-22.117-12.197 0-22.114 9.92-22.114 22.115 0 12.2 9.917 22.114 22.114 22.114 12.2 0 22.117-9.915 22.117-22.114" style="baseline-shift:baseline;display:inline;overflow:visible;opacity:1;vector-effect:none;fill:#000;fill-opacity:1;stroke-width:.947399;stop-color:#000" transform="translate(-80.24 -336.379)scale(.78938)"/><path d="M1148.933 662.674c-21.267 0-38.54 17.273-38.54 38.538s17.275 38.54 38.54 38.54 38.537-17.275 38.537-38.54-17.273-38.538-38.537-38.538m-909.59-71.569c-21.266 0-38.54 17.273-38.54 38.538s17.276 38.54 38.54 38.54c21.266 0 38.538-17.275 38.538-38.54s-17.273-38.538-38.538-38.538" style="baseline-shift:baseline;display:inline;overflow:visible;vector-effect:none;fill:#000;stroke-width:1.19826;stop-color:#000" transform="translate(-80.24 -336.379)scale(.78938)"/><path d="M329.873 663.421c-27.528 0-49.887 22.359-49.887 49.884 0 27.526 22.362 49.887 49.887 49.887s49.883-22.36 49.883-49.887c0-27.526-22.358-49.884-49.883-49.884" style="baseline-shift:baseline;display:inline;overflow:visible;opacity:1;vector-effect:none;fill:#000;fill-opacity:1;stroke-width:1.55105;stop-color:#000" transform="translate(-80.24 -336.379)scale(.78938)"/><g style="fill:#000"><g style="fill:#000"><path d="M1090.708 555.28q.263-.009.518.077l19.76 6.749c1.74.595 2.944 2.226 3.03 4.102-.136 5.377.036 10.756 0 16.13-.085 1.88-1.289 3.508-3.03 4.104l-19.76 6.749a1.52 1.52 0 0 1-1.988-1.467v-34.9a1.52 1.52 0 0 1 1.47-1.543" style="display:inline;opacity:1;fill:#000;fill-opacity:1;stroke-width:5.24874;stroke-linecap:round" transform="translate(-80.418 -336.379)scale(.78938)"/><path d="m1091.498 604.682 19.55-7.352a1.99 1.99 0 0 1 2.69 1.816l.626 26.782a3.84 3.84 0 0 1-2.585 3.717l-20.019 6.915a2.013 2.013 0 0 1-2.67-1.889l-.195-26.198a4.02 4.02 0 0 1 2.603-3.79" style="opacity:1;fill:#000;fill-opacity:1;stroke-width:4.34454;stroke-linecap:round" transform="translate(-80.418 -336.379)scale(.78938)"/></g><path d="M379.4 555.28q-.263-.009-.518.077l-19.76 6.749c-1.74.595-2.945 2.226-3.031 4.102.136 5.377-.035 10.756 0 16.13.086 1.88 1.29 3.508 3.031 4.104l19.76 6.749a1.52 1.52 0 0 0 1.987-1.467v-34.9a1.52 1.52 0 0 0-1.47-1.543" style="display:inline;fill:#000;fill-opacity:1;stroke-width:5.24874;stroke-linecap:round" transform="translate(-80.418 -336.379)scale(.78938)"/></g><path d="m378.61 604.682-19.552-7.352a1.99 1.99 0 0 0-2.689 1.816l-.625 26.782a3.84 3.84 0 0 0 2.584 3.717l20.02 6.915a2.013 2.013 0 0 0 2.67-1.889l.194-26.198a4.02 4.02 0 0 0-2.603-3.79" style="fill:#000;fill-opacity:1;stroke-width:4.34454;stroke-linecap:round" transform="translate(-80.24 -336.379)scale(.78938)"/><path d="M335.04 572.275c-.464.005-.93.097-1.373.276l-29.995 12.127a3.92 3.92 0 0 0-2.463 3.658c.093 5.155.042 10.31 0 15.465a3.92 3.92 0 0 0 2.463 3.658l29.995 12.127a3.77 3.77 0 0 0 3.567-.397l1.32-.918a4 4 0 0 0 1.723-3.183c.685-12.684.313-25.354 0-38.04a4 4 0 0 0-1.723-3.183l-1.32-.918a3.77 3.77 0 0 0-2.194-.672" style="opacity:1;fill:#000;fill-opacity:1;stroke-width:5.53128;stroke-linecap:round" transform="translate(-80.24 -336.379)scale(.78938)"/><path d="M392.031 512.258a4.8 4.8 0 0 0-4.808 4.81v438.936a4.8 4.8 0 0 0 4.808 4.812h686.045a4.8 4.8 0 0 0 4.809-4.812V517.068a4.797 4.797 0 0 0-4.809-4.81H735.053z" style="display:inline;opacity:1;fill:#000;fill-opacity:1;stroke-width:4.11737;stroke-linecap:round" transform="translate(-80.24 -336.379)scale(.78938)"/></g></svg>