<svg xmlns="http://www.w3.org/2000/svg" xml:space="preserve" width="1000" height="500" viewBox="0 0 1000 500"><path d="M187.29 54.62c-1.037.026-2.074.082-2.864.119-13.108.599-41.363 3.281-53.028 5.25-30.432 5.14-43.322 9.629-57.309 21.175-.726.6-12.25 11.646-15.231 27.57-6.069 2.23-6.328 2.582-8.654 8.7-11.088 29.165-15.186 55.297-17.47 111.387-1.016 24.993-1.017 72.067 0 92.512 1.748 35.122 7.663 94.285 27.592 114.38 16.271 16.406 54.333 14.525 74.356-25.757l4.245-8.1c6.012 13.269 16.758 23.346 30.758 28.087a32.8 32.8 0 0 0 11.145 2.145h638.34a32.8 32.8 0 0 0 11.145-2.145c14-4.741 24.746-14.818 30.758-28.088l4.245 8.1c20.023 40.283 58.085 42.164 74.356 25.757 19.929-20.094 25.844-79.257 27.592-114.379 1.017-20.445 1.016-67.519 0-92.512-2.284-56.09-6.382-82.222-17.47-111.386-2.326-6.12-2.585-6.471-8.654-8.7-2.982-15.925-14.505-26.971-15.231-27.57-13.987-11.547-26.877-16.036-57.309-21.175-11.665-1.97-39.92-4.652-53.028-5.251-1.58-.073-4.152-.226-5.723-.058-1.504.161-2.985.498-4.485.81-1.555.324-2.392 1.299-3.42 3.993l-1.364 3.566a670531 670531 0 0 1-355.285.028v-.042h-7.155l-2.575-2.462a2.1 2.1 0 0 0-1.454-.586h-26.476c-.312 0-.612.12-.842.335l-1.375 1.29H391.2l-1.375-1.29a1.23 1.23 0 0 0-.842-.335h-26.476c-.54 0-1.06.21-1.454.586l-2.575 2.462h-7.155v.03q-75.954-.011-151.906-.016l-1.363-3.566c-1.03-2.694-1.866-3.669-3.421-3.993-1.5-.312-2.981-.649-4.485-.81-.786-.084-1.822-.087-2.859-.061" style="display:inline;fill:#000;fill-opacity:1;stroke-width:.789385"/><g style="fill:#dfdfe7;fill-opacity:1"><path d="M826.705 186.723c-16.788 0-30.423 13.635-30.423 30.42 0 16.787 13.637 30.423 30.423 30.423s30.42-13.636 30.42-30.422-13.635-30.421-30.42-30.421m-718.012-56.496c-16.787 0-30.423 13.635-30.423 30.422s13.637 30.422 30.423 30.422c16.787 0 30.42-13.636 30.42-30.422s-13.634-30.422-30.42-30.422" style="baseline-shift:baseline;display:inline;overflow:visible;vector-effect:none;fill:#dfdfe7;fill-opacity:1;stroke-width:.945882;stop-color:#000"/><path d="M180.155 187.312c-21.73 0-39.38 17.65-39.38 39.378s17.652 39.38 39.38 39.38 39.377-17.651 39.377-39.38-17.65-39.378-39.377-39.378" style="baseline-shift:baseline;display:inline;overflow:visible;vector-effect:none;fill:#dfdfe7;fill-opacity:1;stroke-width:1.22437;stop-color:#000"/><g style="fill:#dfdfe7;fill-opacity:1"><g style="fill:#dfdfe7;fill-opacity:1"><path d="M1090.708 555.28q.263-.009.518.077l19.76 6.749c1.74.595 2.944 2.226 3.03 4.102-.136 5.377.036 10.756 0 16.13-.085 1.88-1.289 3.508-3.03 4.104l-19.76 6.749a1.52 1.52 0 0 1-1.988-1.467v-34.9a1.52 1.52 0 0 1 1.47-1.543" style="display:inline;opacity:1;fill:#dfdfe7;fill-opacity:1;stroke-width:5.24874;stroke-linecap:round" transform="translate(-80.418 -336.379)scale(.78938)"/><path d="m1091.498 604.682 19.55-7.352a1.99 1.99 0 0 1 2.69 1.816l.626 26.782a3.84 3.84 0 0 1-2.585 3.717l-20.019 6.915a2.013 2.013 0 0 1-2.67-1.889l-.195-26.198a4.02 4.02 0 0 1 2.603-3.79" style="opacity:1;fill:#dfdfe7;fill-opacity:1;stroke-width:4.34454;stroke-linecap:round" transform="translate(-80.418 -336.379)scale(.78938)"/></g><path d="M379.4 555.28q-.263-.009-.518.077l-19.76 6.749c-1.74.595-2.945 2.226-3.031 4.102.136 5.377-.035 10.756 0 16.13.086 1.88 1.29 3.508 3.031 4.104l19.76 6.749a1.52 1.52 0 0 0 1.987-1.467v-34.9a1.52 1.52 0 0 0-1.47-1.543" style="display:inline;fill:#dfdfe7;fill-opacity:1;stroke-width:5.24874;stroke-linecap:round" transform="translate(-80.418 -336.379)scale(.78938)"/></g><path d="m218.627 140.945-15.434-5.804a1.57 1.57 0 0 0-2.122 1.434l-.494 21.141a3.03 3.03 0 0 0 2.04 2.934l15.803 5.459a1.59 1.59 0 0 0 2.108-1.491l.153-20.68a3.17 3.17 0 0 0-2.055-2.992" style="fill:#dfdfe7;fill-opacity:1;stroke-width:3.42949;stroke-linecap:round"/><path d="M184.234 115.363a3 3 0 0 0-1.084.218l-23.677 9.573a3.09 3.09 0 0 0-1.945 2.888c.074 4.069.034 8.138 0 12.207a3.09 3.09 0 0 0 1.945 2.888l23.677 9.573a2.98 2.98 0 0 0 2.816-.314l1.042-.724a3.16 3.16 0 0 0 1.36-2.513c.54-10.012.247-20.014 0-30.028a3.16 3.16 0 0 0-1.36-2.512l-1.042-.725a3 3 0 0 0-1.732-.53" style="fill:#dfdfe7;fill-opacity:1;stroke-width:4.36628;stroke-linecap:round"/><path d="M229.221 67.987a3.79 3.79 0 0 0-3.795 3.797v346.487a3.79 3.79 0 0 0 3.795 3.799h541.55a3.79 3.79 0 0 0 3.797-3.799V71.784a3.787 3.787 0 0 0-3.796-3.797H499.996Z" style="display:inline;fill:#dfdfe7;fill-opacity:1;stroke-width:3.25017;stroke-linecap:round"/><g style="fill:#dfdfe7;fill-opacity:1"><g style="fill:#dfdfe7;fill-opacity:1"><path d="M883.325 156.087c-9.628 0-17.458 7.828-17.458 17.457 0 9.628 7.83 17.456 17.458 17.456 9.63 0 17.455-7.828 17.455-17.456s-7.827-17.457-17.455-17.457" style="baseline-shift:baseline;display:inline;overflow:visible;vector-effect:none;fill:#dfdfe7;fill-opacity:1;stroke-width:.747825;stop-color:#000"/><path d="M883.41 91.369c-9.628 0-17.458 7.828-17.458 17.457 0 9.628 7.83 17.456 17.456 17.456 9.63 0 17.457-7.828 17.457-17.456 0-9.63-7.827-17.457-17.457-17.457" style="baseline-shift:baseline;display:inline;overflow:visible;vector-effect:none;fill:#dfdfe7;fill-opacity:1;stroke-width:.747831;stop-color:#000"/></g><g style="fill:#dfdfe7;fill-opacity:1"><path d="M883.325 156.087c-9.628 0-17.458 7.828-17.458 17.457 0 9.628 7.83 17.456 17.458 17.456 9.63 0 17.455-7.828 17.455-17.456s-7.827-17.457-17.455-17.457" style="baseline-shift:baseline;display:inline;overflow:visible;vector-effect:none;fill:#dfdfe7;fill-opacity:1;stroke-width:.747825;stop-color:#000" transform="rotate(90 883.366 141.185)"/><path d="M883.41 91.369c-9.628 0-17.458 7.828-17.458 17.457 0 9.628 7.83 17.456 17.456 17.456 9.63 0 17.457-7.828 17.457-17.456 0-9.63-7.827-17.457-17.457-17.457" style="baseline-shift:baseline;display:inline;overflow:visible;vector-effect:none;fill:#dfdfe7;fill-opacity:1;stroke-width:.747831;stop-color:#000" transform="rotate(90 883.366 141.185)"/></g></g></g></svg>