<?xml version="1.0" encoding="UTF-8" standalone="no"?>
<svg
   xml:space="preserve"
   width="1400"
   height="1200"
   version="1.1"
   id="svg41"
   xmlns:xlink="http://www.w3.org/1999/xlink"
   xmlns="http://www.w3.org/2000/svg"
   xmlns:svg="http://www.w3.org/2000/svg"><defs
     id="defs18"><linearGradient
       id="g"><stop
         offset="0"
         stop-color="#2c2d2b"
         id="stop1" /><stop
         offset="1"
         stop-color="#373733"
         id="stop2" /></linearGradient><linearGradient
       id="f"><stop
         offset=".105"
         stop-color="#292928"
         id="stop3" /><stop
         offset="1"
         stop-color="#373733"
         id="stop4" /></linearGradient><linearGradient
       id="e"><stop
         offset="0"
         stop-color="#2c2d2b"
         id="stop5" /><stop
         offset="1"
         stop-color="#373733"
         id="stop6" /></linearGradient><linearGradient
       id="d"><stop
         offset=".319"
         stop-color="#252525"
         id="stop7" /><stop
         offset=".712"
         stop-color="#2c2d2b"
         id="stop8" /></linearGradient><linearGradient
       id="c"><stop
         offset=".736"
         stop-color="#252626"
         id="stop9" /><stop
         offset="1"
         stop-color="#363632"
         id="stop10" /></linearGradient><linearGradient
       id="b"><stop
         offset=".273"
         stop-color="#282827"
         id="stop11" /><stop
         offset=".343"
         stop-color="#373632"
         id="stop12" /><stop
         offset=".765"
         stop-color="#373632"
         id="stop13" /><stop
         offset=".818"
         stop-color="#282827"
         id="stop14" /></linearGradient><linearGradient
       id="a"><stop
         offset=".251"
         stop-color="#282827"
         id="stop15" /><stop
         offset=".319"
         stop-color="#373632"
         id="stop16" /><stop
         offset=".729"
         stop-color="#373632"
         id="stop17" /><stop
         offset=".762"
         stop-color="#282827"
         id="stop18" /></linearGradient><linearGradient
       xlink:href="#a"
       id="m"
       x1="410.11301"
       x2="408.495"
       y1="949.14099"
       y2="1019.832"
       gradientUnits="userSpaceOnUse" /><linearGradient
       xlink:href="#b"
       id="n"
       x1="410.11301"
       x2="412.32999"
       y1="949.14099"
       y2="1017.203"
       gradientTransform="matrix(-0.9882977,0.15253738,0.15253738,0.9882977,753.45412,-53.684973)"
       gradientUnits="userSpaceOnUse" /><linearGradient
       xlink:href="#c"
       id="j"
       x1="568.35999"
       x2="604.40601"
       y1="39.859001"
       y2="201.896"
       gradientUnits="userSpaceOnUse" /><linearGradient
       xlink:href="#d"
       id="h"
       x1="957.89899"
       x2="1033.726"
       y1="501.091"
       y2="681.87097"
       gradientUnits="userSpaceOnUse" /><linearGradient
       xlink:href="#e"
       id="l"
       x1="607.591"
       x2="624.44299"
       y1="1332.65"
       y2="1347.645"
       gradientUnits="userSpaceOnUse"
       gradientTransform="translate(-0.628,-1204.923)" /><linearGradient
       xlink:href="#f"
       id="i"
       x1="987.78101"
       x2="987.435"
       y1="1808.053"
       y2="1835.335"
       gradientUnits="userSpaceOnUse"
       gradientTransform="translate(1.357,-1202.202)" /><linearGradient
       xlink:href="#g"
       id="k"
       x1="575.099"
       x2="567.56799"
       y1="1277.339"
       y2="1277.208"
       gradientUnits="userSpaceOnUse"
       gradientTransform="translate(1.353,-1204.044)" /><linearGradient
       id="a-2"
       gradientUnits="userSpaceOnUse"
       x1="2"
       x2="112"
       y1="74"
       y2="74"><stop
         offset="0"
         stop-color="#ef939a"
         id="stop1-6" /><stop
         offset="0.0456911"
         stop-color="#c01c28"
         id="stop2-1" /><stop
         offset="0.436364"
         stop-color="#c01c28"
         id="stop3-8" /><stop
         offset="0.545455"
         stop-color="#eb7981"
         id="stop4-7" /><stop
         offset="0.618182"
         stop-color="#c01c28"
         id="stop5-9" /><stop
         offset="0.936003"
         stop-color="#c01c28"
         id="stop6-2" /><stop
         offset="1"
         stop-color="#650e14"
         id="stop7-0" /></linearGradient><linearGradient
       id="b-2"
       gradientUnits="userSpaceOnUse"
       x1="68"
       x2="73.75"
       y1="125.75"
       y2="64"><stop
         offset="0"
         stop-color="#ff7800"
         id="stop8-3" /><stop
         offset="1"
         stop-color="#f66151"
         id="stop9-7" /></linearGradient><radialGradient
       id="c-5"
       cx="114.88728"
       cy="211.31992"
       gradientTransform="matrix(1.059669,3.416391,-0.790565,0.245211,159.82582,-432.29878)"
       gradientUnits="userSpaceOnUse"
       r="17.152082"><stop
         offset="0"
         stop-color="#9a9996"
         id="stop10-9" /><stop
         offset="1"
         stop-color="#5e5c64"
         stop-opacity="0"
         id="stop11-2" /></radialGradient></defs><path
     fill="#ffffff"
     d="m 2.1825,0 v 1200.135 h 1395.635 V 0 Z"
     id="path18"
     style="fill:#490049;fill-opacity:1;stroke-width:1.08041" /><g
     id="g50"
     transform="translate(97.105187)"><path
       id="path49"
       style="fill:#fbd602;stroke:none;stroke-width:2.77105"
       d="m 345.86521,180.25147 c -79.8125,0 -159.62549,30.58601 -220.78153,91.74223 -122.3127475,122.31242 -122.3127475,319.23807 0,441.55042 l 33.11336,33.12573 441.5629,441.56265 441.56256,-441.56264 33.1132,-33.12573 c 122.3127,-122.31236 122.3127,-319.23801 0,-441.55043 -122.31201,-122.31242 -319.24964,-122.31242 -441.56239,0 l -33.11337,33.1135 -33.11386,-33.1135 C 505.49004,210.83747 425.67704,180.25147 345.86521,180.25147 Z" /><g
       id="g49"
       transform="translate(99.997685,-0.06715248)"><g
         id="g20"
         transform="translate(390.43615,142.53236)"><path
           d="m 106.50781,15.1875 c -2.38672,2.113281 -4.79687,5.085938 -7.253904,7.179688 -1.230468,1.046874 -2.453125,1.855468 -3.585937,2.265624 -1.136719,0.40625 -2.136719,0.457032 -3.257813,0.02734 -0.773437,-0.292968 -1.640625,0.09375 -1.9375,0.867188 -0.292968,0.773437 0.09375,1.640625 0.867188,1.933594 1.820312,0.695312 3.6875,0.585937 5.34375,-0.0078 1.652344,-0.59375 3.128906,-1.625 4.515626,-2.804687 2.76953,-2.355469 5.23047,-5.382813 7.29297,-7.214844 0.62109,-0.546875 0.67969,-1.496094 0.13281,-2.117188 -0.55078,-0.617187 -1.5,-0.675781 -2.11719,-0.128906 z m 0,0"
           fill="#434248"
           id="path11" /><path
           d="m 108.38281,17.25 c -1.96875,1.746094 -5.42578,3.472656 -8.449216,5.632812 -3.023438,2.15625 -5.828125,5.027344 -5.683594,9.105469 0.01563,0.398438 0.183594,0.777344 0.476562,1.046875 0.292969,0.273438 0.679688,0.417969 1.074219,0.402344 0.398438,-0.01563 0.777344,-0.183594 1.046875,-0.476562 0.273438,-0.292969 0.417969,-0.679688 0.402344,-1.074219 -0.09375,-2.675781 1.691406,-4.613281 4.42578,-6.5625 2.73438,-1.949219 6.21094,-3.625 8.69141,-5.824219 C 110.98828,18.949219 111.04688,18 110.5,17.382812 109.94922,16.761719 109,16.703125 108.38281,17.25 Z m 0,0"
           fill="#434248"
           id="path12" /><path
           d="M 103.15625,20.558594 C 99.058594,16.460938 93.507812,14.144531 87.710938,14.113281 L 57.722656,13.949219 C 51.257812,13.917969 45.050781,16.46875 40.476562,21.039062 L 4.203125,57.316406 c -3.945313,3.945313 -3.945313,10.339844 0,14.285156 l 47.949219,47.945318 c 3.945312,3.94921 10.339844,3.94921 14.285156,0.004 l 36.27344,-36.273436 c 4.57031,-4.574219 7.12109,-10.785156 7.08203,-17.25 L 109.61328,36 c -0.0352,-5.796875 -2.35547,-11.34375 -6.45703,-15.441406 z m -6.578125,6.605468 c 3.234375,3.230469 3.234375,8.472657 0,11.707032 -3.230469,3.230468 -8.472656,3.230468 -11.703125,0 -3.234375,-3.234375 -3.234375,-8.476563 0,-11.707032 3.230469,-3.234374 8.472656,-3.234374 11.703125,0 z m 0,0"
           fill="url(#a)"
           id="path13"
           style="fill:url(#a-2)" /><path
           d="M 103.15625,18.558594 C 99.058594,14.460938 93.507812,12.144531 87.710938,12.113281 L 57.722656,11.949219 C 51.257812,11.917969 45.050781,14.46875 40.476562,19.039062 L 4.203125,55.316406 c -3.945313,3.945313 -3.945313,10.339844 0,14.285156 l 47.949219,47.945318 c 3.945312,3.94921 10.339844,3.94921 14.285156,0.004 l 36.27344,-36.273436 c 4.57031,-4.574219 7.12109,-10.785156 7.08203,-17.25 L 109.61328,34 c -0.0352,-5.796875 -2.35547,-11.34375 -6.45703,-15.441406 z m -6.578125,6.605468 c 3.234375,3.230469 3.234375,8.472657 0,11.707032 -3.230469,3.230468 -8.472656,3.230468 -11.703125,0 -3.234375,-3.234375 -3.234375,-8.476563 0,-11.707032 3.230469,-3.234374 8.472656,-3.234374 11.703125,0 z m 0,0"
           fill="url(#b)"
           id="path14"
           style="fill:url(#b-2)" /><path
           d="m 103.83984,11.136719 c -2.41406,0.07031 -4.796871,1.226562 -6.281246,3.445312 L 90.503906,25.167969 C 90.042969,25.855469 90.230469,26.789062 90.917969,27.25 91.609375,27.707031 92.539062,27.519531 93,26.832031 L 100.05469,16.25 c 1.86719,-2.800781 5.82812,-2.910156 7.84375,-0.21875 l 1.30469,1.738281 c 2.1289,2.835938 1.00781,6.832031 -2.28516,8.148438 l -11.722658,4.6875 c -0.769531,0.308593 -1.144531,1.183593 -0.835937,1.949219 0.308594,0.769531 1.179687,1.144531 1.949219,0.839843 l 11.722656,-4.691406 c 5.05469,-2.023437 6.83984,-8.378906 3.57031,-12.734375 l -1.30078,-1.738281 c -1.60156,-2.136719 -4.04687,-3.160157 -6.46094,-3.09375 z m 0,0"
           fill="#5e5c64"
           id="path15" /><path
           d="m 103.86719,11.414062 c -2.10156,0.05859 -4.175784,1.070313 -5.476565,3.015626 l -7.054687,10.585937 c -0.152344,0.230469 -0.08984,0.539063 0.136718,0.691406 0.230469,0.15625 0.542969,0.09375 0.695313,-0.136719 l 7.054687,-10.585937 c 2.234374,-3.34375 7.062504,-3.476563 9.476564,-0.261719 l 1.30469,1.738282 c 2.50781,3.34375 1.16797,8.125 -2.71485,9.675781 l -11.722654,4.691406 c -0.125,0.05078 -0.222656,0.144531 -0.273437,0.265625 -0.05469,0.125 -0.05469,0.261719 -0.0078,0.382812 0.05078,0.125 0.148438,0.222657 0.269532,0.277344 0.121093,0.05078 0.257812,0.05469 0.382812,0.0039 L 107.66017,27.0664 c 4.46875,-1.785156 6.03125,-7.355468 3.14453,-11.207031 L 109.5,14.121094 C 108.09766,12.25 105.96875,11.355469 103.86719,11.414062 Z m 0,0"
           fill="#9a9996"
           id="path16" /><path
           d="m 115.91016,5.660156 c -1.85938,0.097656 -3.67578,1.015625 -4.8086,2.714844 l -4.52734,6.792969 c -0.46094,0.6875 -0.27344,1.621093 0.41406,2.082031 0.47656,0.3125 1.08985,0.332031 1.58203,0.04687 -0.25,0.414063 -0.28515,0.925781 -0.0898,1.371094 0.37109,0.742187 1.26953,1.042969 2.01172,0.675781 l 5.23828,-2.621094 c 1.60156,-0.800781 2.87109,-0.203125 3.67187,0.882813 0.80079,1.082031 1,2.472656 -0.23828,3.769531 l -6.83593,7.164062 c -1.07813,1.085938 -2.1211,2.203126 -3.13282,3.347657 0.26953,1.355469 0.40625,2.730469 0.41407,4.113281 v 0.01953 c 1.53125,-1.855469 3.14843,-3.652343 4.85156,-5.375 l 0.0117,-0.0078 6.86718,-7.191407 c 2.19532,-2.300781 2.01954,-5.539062 0.48047,-7.621093 -1.54297,-2.085938 -4.58203,-3.207031 -7.42968,-1.785157 l -5.1875,2.59375 4.39843,-6.589843 c 0.59766,-0.902344 1.51953,-1.382813 2.46875,-1.4375 0.94532,-0.046875 1.91407,0.332031 2.60547,1.164062 l 1.98828,2.378907 c 2.19922,2.644531 2.98047,6.191406 2.09375,9.515624 l -2.63672,9.886719 c -2.52343,9.46875 -2.60156,19.425781 -0.22656,28.929688 l 1.59766,6.382812 c 2.35547,9.417969 3.18927,21.585606 -6.47479,22.550449 -2.53125,0.253907 -4.92969,-0.191406 -7.02735,-1.164062 -0.004,0 -0.004,0.0039 -0.004,0 l -2.20704,2.207031 c 2.78907,1.535157 6.0625,2.289063 9.53907,1.941407 11.42578,-1.144532 11.86932,-15.120762 9.08416,-26.261387 l -1.59375,-6.382813 c -2.2539,-9.011718 -2.17968,-18.449218 0.21094,-27.429687 l 2.64063,-9.886719 c 1.13672,-4.265625 0.13281,-8.816406 -2.69532,-12.207031 L 120.98438,7.851562 C 119.67578,6.28125 117.76953,5.5625 115.91016,5.660156 Z"
           fill="#5e5c64"
           id="path17" /><path
           d="m 115.96484,5.933594 c -1.55859,0.085937 -3.07421,0.859375 -4.03125,2.292968 l -4.52734,6.789063 c -0.15234,0.230469 -0.0898,0.539063 0.14063,0.691406 0.22656,0.15625 0.53906,0.09375 0.6914,-0.136719 l 4.52735,-6.792968 c 1.55468,-2.332032 4.88671,-2.507813 6.67968,-0.355469 l 1.98438,2.378906 c 2.41015,2.894531 3.26562,6.773438 2.29687,10.414063 l -2.63672,9.886718 c -2.48437,9.304688 -2.55859,19.085938 -0.22265,28.429688 l 1.59765,6.382812 c 2.4961,9.992188 -4.4414,19.855469 -14.6914,20.882813 -3.19922,0.316406 -6.19922,-0.410156 -8.714846,-1.871094 l -0.722656,0.726563 c 2.738282,1.652344 6.027342,2.488281 9.535152,2.136718 10.83594,-1.082031 18.20313,-11.550781 15.5625,-22.117187 l -1.59765,-6.382813 c -2.29297,-9.175781 -2.21875,-18.785156 0.21875,-27.929687 l 2.63672,-9.886719 c 1.05468,-3.953125 0.125,-8.167968 -2.4961,-11.308594 l -1.98047,-2.378906 c -1.10156,-1.324218 -2.69531,-1.933594 -4.25,-1.851562 z m 1.1211,7.746094 c -0.72656,0 -1.48828,0.167968 -2.2461,0.546874 l -5.23828,2.621094 c -0.24609,0.121094 -0.34765,0.421875 -0.22265,0.667969 0.12109,0.246094 0.42187,0.347656 0.66797,0.222656 l 5.23828,-2.617187 c 2.01562,-1.007813 3.875,-0.238282 4.92187,1.179687 1.05078,1.421875 1.23828,3.425781 -0.3164,5.054688 l -6.85547,7.183593 c -1.20703,1.222657 -2.375,2.480469 -3.4961,3.769532 0.0391,0.484375 0.0625,0.96875 0.0703,1.449218 1.32031,-1.554687 2.69921,-3.0625 4.14062,-4.523437 h 0.004 l 6.85937,-7.1875 c 1.875,-1.964844 1.69531,-4.585937 0.40235,-6.339844 -0.89063,-1.203125 -2.32813,-2.023437 -3.92969,-2.027343 z m 0,0"
           fill="url(#c)"
           id="path18-2"
           style="fill:url(#c-5)" /><path
           d="m 47.050781,72.140625 c -1.527343,1.527344 -3.226562,2.5625 -5.089843,3.097656 -1.882813,0.523438 -3.785157,0.515625 -5.707032,-0.01953 -1.9375,-0.554688 -3.757812,-1.675781 -5.453125,-3.375 l -0.636719,-0.636719 c -1.710937,-1.710937 -2.835937,-3.527343 -3.371093,-5.449219 -0.554688,-1.9375 -0.566407,-3.847656 -0.04297,-5.730468 0.523438,-1.878906 1.546875,-3.582032 3.074219,-5.109375 1.542969,-1.542969 3.253906,-2.574219 5.132812,-3.097657 1.882813,-0.523437 3.792969,-0.511718 5.730469,0.04297 1.9375,0.523438 3.761719,1.640625 5.472656,3.351563 l 0.636719,0.636718 c 1.695313,1.695313 2.8125,3.519532 3.351563,5.472657 0.535156,1.921875 0.542968,3.824219 0.01953,5.703125 -0.535157,1.867187 -1.578125,3.574218 -3.117188,5.113281 z m -4.835937,-4.835937 c 0.71875,-0.722657 1.03125,-1.570313 0.933594,-2.546876 -0.101563,-1.003906 -0.75,-2.105468 -1.953126,-3.308593 L 40.558594,60.8125 c -1.214844,-1.214844 -2.332032,-1.878906 -3.351563,-1.992188 -1.003906,-0.128906 -1.867187,0.167969 -2.585937,0.890626 -0.707032,0.707031 -1,1.5625 -0.871094,2.566406 0.125,1.003906 0.796875,2.113281 2.015625,3.332031 l 0.636719,0.636719 c 1.199218,1.199218 2.296875,1.859375 3.285156,1.972656 0.976562,0.09766 1.820312,-0.207031 2.527344,-0.914062 z m 43.1875,-2.714844 C 83.875,66.117188 82.179688,67.148438 80.3125,67.6875 c -1.882812,0.523438 -3.785156,0.515625 -5.707031,-0.02344 -1.9375,-0.550781 -3.753907,-1.675781 -5.453125,-3.371093 L 68.519531,63.65625 c -1.714843,-1.710938 -2.835937,-3.527344 -3.375,-5.453125 -0.550781,-1.9375 -0.566406,-3.84375 -0.04297,-5.726563 0.523438,-1.878906 1.550782,-3.585937 3.078126,-5.113281 1.539062,-1.539062 3.25,-2.574219 5.132812,-3.097656 1.878906,-0.519531 3.789062,-0.507813 5.726562,0.04297 1.9375,0.523437 3.761719,1.640625 5.472657,3.351562 l 0.636719,0.636719 c 1.699218,1.699219 2.816406,3.523437 3.351562,5.472656 0.539062,1.925781 0.542969,3.828125 0.02344,5.707031 -0.539063,1.867188 -1.578126,3.570313 -3.121094,5.113282 z M 80.566406,59.753906 C 81.289062,59.03125 81.597656,58.183594 81.5,57.207031 81.402344,56.203125 80.75,55.101562 79.546875,53.898438 l -0.632813,-0.636719 c -1.21875,-1.214844 -2.335937,-1.878907 -3.355468,-1.992188 -1.003906,-0.128906 -1.863282,0.167969 -2.585938,0.890625 -0.707031,0.707032 -0.996094,1.5625 -0.871094,2.566406 0.128907,1.003907 0.800782,2.113282 2.015626,3.328126 l 0.636718,0.636718 c 1.203125,1.203125 2.296875,1.859375 3.289063,1.972656 0.976562,0.101563 1.816406,-0.203124 2.523437,-0.910156 z M 59.863281,89.113281 49.976562,35.78125 55.40625,30.351562 65.292969,83.679688 Z m 0,0"
           fill="#d42539"
           id="path19-8" /><path
           d="m 47.800781,74.390625 c -1.527343,1.527344 -3.226562,2.5625 -5.089843,3.097656 -1.882813,0.523438 -3.785157,0.515625 -5.707032,-0.01953 -1.9375,-0.554688 -3.757812,-1.675781 -5.453125,-3.375 l -0.636719,-0.636719 c -1.710937,-1.710937 -2.835937,-3.527343 -3.371093,-5.449219 -0.554688,-1.9375 -0.566407,-3.847656 -0.04297,-5.730468 0.523438,-1.878906 1.546875,-3.582032 3.074219,-5.109375 1.542969,-1.542969 3.253906,-2.574219 5.132812,-3.097657 1.882813,-0.523437 3.792969,-0.511718 5.730469,0.04297 1.9375,0.523438 3.761719,1.640625 5.472656,3.351563 l 0.636719,0.636718 c 1.695313,1.695313 2.8125,3.519532 3.351563,5.472657 0.535156,1.921875 0.542968,3.824219 0.01953,5.703125 -0.535157,1.867187 -1.578125,3.574218 -3.117188,5.113281 z m -4.835937,-4.835937 c 0.71875,-0.722657 1.03125,-1.570313 0.933594,-2.546876 -0.101563,-1.003906 -0.75,-2.105468 -1.953126,-3.308593 L 41.308594,63.0625 c -1.214844,-1.214844 -2.332032,-1.878906 -3.351563,-1.992188 -1.003906,-0.128906 -1.867187,0.167969 -2.585937,0.890626 -0.707032,0.707031 -1,1.5625 -0.871094,2.566406 0.125,1.003906 0.796875,2.113281 2.015625,3.332031 l 0.636719,0.636719 c 1.199218,1.199218 2.296875,1.859375 3.285156,1.972656 0.976562,0.09766 1.820312,-0.207031 2.527344,-0.914062 z m 43.1875,-2.714844 C 84.625,68.367188 82.929688,69.398438 81.0625,69.9375 c -1.882812,0.523438 -3.785156,0.515625 -5.707031,-0.02344 -1.9375,-0.550781 -3.753907,-1.675781 -5.453125,-3.371093 L 69.269531,65.90625 c -1.714843,-1.710938 -2.835937,-3.527344 -3.375,-5.453125 -0.550781,-1.9375 -0.566406,-3.84375 -0.04297,-5.726563 0.523438,-1.878906 1.550782,-3.585937 3.078126,-5.113281 1.539062,-1.539062 3.25,-2.574219 5.132812,-3.097656 1.878906,-0.519531 3.789062,-0.507813 5.726562,0.04297 1.9375,0.523437 3.761719,1.640625 5.472657,3.351562 l 0.636719,0.636719 c 1.699218,1.699219 2.816406,3.523437 3.351562,5.472656 0.539062,1.925781 0.542969,3.828125 0.02344,5.707031 -0.539063,1.867188 -1.578126,3.570313 -3.121094,5.113282 z M 81.316406,62.003906 C 82.039062,61.28125 82.347656,60.433594 82.25,59.457031 82.152344,58.453125 81.5,57.351562 80.296875,56.148438 l -0.632813,-0.636719 c -1.21875,-1.214844 -2.335937,-1.878907 -3.355468,-1.992188 -1.003906,-0.128906 -1.863282,0.167969 -2.585938,0.890625 -0.707031,0.707032 -0.996094,1.5625 -0.871094,2.566406 0.128907,1.003907 0.800782,2.113282 2.015626,3.328126 l 0.636718,0.636718 c 1.203125,1.203125 2.296875,1.859375 3.289063,1.972656 0.976562,0.101563 1.816406,-0.203124 2.523437,-0.910156 z M 60.613281,91.363281 50.726562,38.03125 56.15625,32.601562 66.042969,85.929688 Z m 0,0"
           fill="#ffbe6f"
           id="path20-9" /></g><path
         fill="#d7cfac"
         d="m 467.357,893.006 c -30.263,-0.927 -61.856,3.023 -90.447,12.002 -29.993,9.42 -58.076,23.508 -90.317,50.365 -12.254,10.206 -13.366,11.84 -17.87,26.084 -6.443,20.378 -13.22,58.572 -18.784,84.53 -2.659,12.407 -4.759,20.302 -6.964,25.288 -2.205,4.986 -4.336,6.99 -7.47,8.215 -0.459,0.18 -2.062,0.484 -4.364,0.686 -2.303,0.201 -5.378,0.354 -9.15,0.453 -7.546,0.197 -24.182,-1.433 -36.842,-1.676 -12.381,-0.24 -22.198,-0.27 -28.865,-0.102 -3.333,0.084 -5.871,0.215 -7.596,0.402 -0.862,0.093 -1.504,0.19 -2.045,0.35 -0.27,0.08 -0.514,0.139 -0.861,0.424 -0.173,0.142 -0.403,0.38 -0.508,0.775 -0.104,0.396 0.01,0.866 0.172,1.129 0.556,0.9 1.425,1.54 2.647,2.336 1.22,0.797 2.798,1.67 4.705,2.625 3.813,1.908 8.938,4.13 14.978,6.516 12.08,4.77 31.804,12.589 47.816,17.322 9.538,2.82 21.087,4.823 28.299,7.048 7.21,2.224 12.5,3.93 13.713,4.41 2.54,1.005 4.521,2.732 6.964,6.941 2.444,4.21 5.22,10.836 9.06,21.192 1.405,3.785 2.608,10.31 3.794,13.1 a 83,83 0 0 0 1.565,3.494 c 0.44,0.913 0.65,1.437 1.152,1.994 0.376,0.418 0.745,0.484 1.02,0.53 0.274,0.046 0.514,0.045 0.77,0.03 0.514,-0.026 1.09,-0.12 1.784,-0.267 1.388,-0.293 3.221,-0.804 5.416,-1.498 4.39,-1.387 10.437,-6.414 16.666,-8.934 14.292,-5.783 29.748,-11.35 42.53,-15.463 6.39,-2.057 12.114,-3.751 16.677,-4.926 4.563,-1.175 8.052,-1.812 9.576,-1.812 0.358,0 2.039,0.334 4.225,1.007 2.186,0.674 5.015,1.656 8.271,2.873 6.512,2.434 14.736,5.8 23.076,9.502 16.245,7.21 27.68,12.062 35.825,15.123 8.143,3.062 15.008,6.538 18.308,6.538 1.219,0 2.074,-0.569 3.375,-1.375 1.301,-0.805 2.874,-1.941 4.67,-3.355 3.592,-2.828 7.979,-6.859 12.778,-11.309 l 15.269,-14.158 21.125,9.054 c 23.662,8 56.617,11.97 103.81,21.475 8.13,1.637 14.654,4.031 17.67,4.184 1.508,0.076 2.637,-0.014 3.603,-0.395 0.966,-0.38 1.669,-1.098 2.125,-1.836 0.331,-0.536 0.322,-0.89 0.352,-1.324 0.03,-0.433 0.023,-0.92 -0.01,-1.484 -0.066,-1.13 -0.238,-2.568 -0.498,-4.249 -0.522,-3.36 -3.258,-9.219 -4.375,-13.738 -1.098,-4.448 -1.97,-8.834 -2.482,-12.283 -0.256,-1.725 -0.423,-3.217 -0.486,-4.342 -0.063,-1.126 0.079,-1.997 0.047,-1.912 0.18,-0.472 0.23,-0.587 0.802,-0.846 0.572,-0.259 1.742,-0.512 3.737,-0.633 3.988,-0.242 11.21,-0.027 24.056,0.512 39.161,1.643 64.788,4 80,4.17 15.21,0.168 22.447,-0.838 25.773,-2.216 1.806,-0.748 3.294,-1.673 4.36,-2.738 1.066,-1.065 1.814,-2.386 1.531,-3.83 -0.227,-1.159 -0.975,-2 -2.012,-2.983 -1.037,-0.982 -2.435,-2.049 -4.187,-3.228 -3.505,-2.36 -10.137,-7.895 -16.24,-11.023 -12.205,-6.256 -28.666,-13.709 -48.149,-21.488 -10.428,-4.163 -21.633,-6.54 -29.253,-9.768 a 491,491 0 0 1 -9.45,-4.1 c -2.41,-1.083 -4.102,-1.928 -4.433,-2.142 -3.67,-2.373 -6.365,-5.388 -9.026,-10.926 -2.66,-5.537 -5.215,-13.577 -8.379,-25.685 -7.36,-28.17 -11.127,-51.937 -19.511,-71.67 C 622.491,966.238 612,948.84 604.21,941.801 593.181,931.838 565.62,917.517 549.839,910.332 526.553,899.73 497.619,893.933 467.356,893.006 Z m 26.674,53.672 c 1.147,0.066 3.144,1.578 5.121,4.63 1.978,3.053 3.964,7.442 5.659,12.577 3.39,10.27 5.634,23.542 4.873,35.4 -0.231,3.596 -0.702,7.188 -1.264,10.035 -0.281,1.424 -0.586,2.662 -0.885,3.602 -0.299,0.94 -0.656,1.606 -0.73,1.695 -0.763,0.919 -1.397,1.536 -1.856,1.836 -0.459,0.3 -0.644,0.322 -0.937,0.262 -0.587,-0.122 -2.004,-1.269 -4.086,-3.916 -1.492,-1.896 -3.27,-6.265 -4.795,-11.742 -1.525,-5.477 -2.875,-12.107 -3.879,-18.784 -1.004,-6.677 -1.663,-13.408 -1.816,-19.087 -0.153,-5.679 0.263,-10.374 1.13,-12.616 0.614,-1.584 1.288,-2.629 1.887,-3.205 0.6,-0.576 1.05,-0.718 1.578,-0.687 m -84.508,2.353 c 0.62,0.137 1.838,1.148 3.295,3.371 0.833,1.272 1.928,5.413 2.639,10.682 0.711,5.269 1.19,11.784 1.395,18.383 0.205,6.599 0.138,13.285 -0.235,18.906 -0.373,5.621 -1.111,10.246 -1.996,12.361 -0.977,2.337 -1.928,3.912 -2.82,4.825 -0.893,0.912 -1.64,1.216 -2.668,1.216 -1.366,0 -2.404,-0.462 -3.447,-1.632 -1.044,-1.171 -2.015,-3.115 -2.793,-5.899 -1.557,-5.567 -2.353,-14.407 -2.403,-26.775 -0.037,-9.192 0.093,-14.925 0.596,-19.03 0.503,-4.104 1.34,-6.557 2.828,-9.492 1.406,-2.773 2.617,-4.72 3.604,-5.804 0.986,-1.085 1.49,-1.226 2.005,-1.112"
         id="path19" /><path
         fill="#b8ab8a"
         d="m 665.612,1081.549 c -8.424,-0.72 -8.862,6.538 -5.838,12.488 3.024,5.95 11.697,23.177 18.55,25.14 6.854,1.962 17.261,2.153 28.298,3.517 11.039,1.364 25.938,1.01 27.498,-0.126 1.56,-1.136 -9.345,-5.78 -24.168,-11.394 -22.022,-8.34 -38.393,-29.117 -44.34,-29.625"
         id="path20" /><path
         fill="#b4a785"
         d="m 322.814,917.775 c -11.329,6.934 -25.405,18.308 -35.203,28.444 -9.388,9.712 -9.597,10.036 -14.234,22.013 a 340,340 0 0 0 -3.037,8.157 h 0.709 q 0.318,-0.714 0.637,-1.38 c 3.951,-8.223 24.777,-25.986 54.455,-46.448 59.846,-38.675 153.715,-46.874 221.409,-19.52 22.742,10.796 52.87,30.911 59.834,39.948 3.31,4.294 5.18,6.117 -0.078,-2 -7.759,-11.975 -19.543,-22.52 -36.256,-32.44 -97.125,-83.436 -227.605,-9.4 -248.236,3.226"
         id="path21" /><path
         fill="#847263"
         d="m 922.392,711.44 c -4.062,0.022 -9.215,1.926 -19.338,6.377 -13.106,5.764 -43.048,20.88 -50.873,25.684 a 525,525 0 0 1 -10.5,6.236 c -4.567,2.63 -26.054,16.605 -29.5,19.188 -10.359,7.764 -27.695,21.545 -33.5,26.629 -12.898,11.296 -39.514,37.654 -48.607,48.134 -2.14,2.468 -5.153,5.843 -6.693,7.5 -11.183,12.036 -30.072,38.161 -31.391,43.418 -1.635,6.516 5.931,24.853 15.68,38 3.306,4.46 6.011,9.027 6.011,10.15 0,1.301 -6.64,8.84 -18.275,20.745 -21.033,21.522 -30.729,33.001 -30.719,36.373 0.01,3.028 2.016,5.821 10.301,14.334 8.882,9.126 19.416,22.544 20.223,25.758 0.36,1.434 0.058,3.637 -0.696,5.06 -2.265,4.283 -33.878,35.956 -33.605,36.371 0.328,0.483 0.702,0.935 1.094,1.368 -3.522,4.654 12.308,15.55 20.382,13.963 0.525,0.13 1.046,0.267 1.573,0.386 0.555,0.134 1.118,0.228 1.681,0.322 0.442,0.071 0.214,-0.251 0.657,-0.181 0.137,0.02 57.867,-43.638 61.101,-48.452 3.98,-5.924 3.035,-13.043 -3.59,-27.015 -1.673,-3.528 -2.844,-6.733 -2.603,-7.123 0.714,-1.157 33.114,-15.963 34.93,-15.963 1.868,0 9.804,-4.348 12.068,-6.612 2.388,-2.388 2.543,-3.05 1.93,-8.242 -1.203,-10.17 -6.062,-22.863 -14.356,-37.508 -1.203,-2.124 -2.043,-4.299 -1.865,-4.832 0.177,-0.533 8.187,-3.582 17.797,-6.773 62.05,-20.608 105.267,-41.581 141.677,-68.76 24.53,-18.31 25.934,-22.068 24.965,-66.773 -0.77,-35.532 -2.535,-44.792 -12.584,-66.02 -5.654,-11.943 -9.45,-16.547 -16.404,-19.892 -2.489,-1.198 -4.534,-1.863 -6.97,-1.85 z"
         id="path22" /><path
         fill="#b5a886"
         d="m 727.944,714.19 c -32.557,-34.656 -87.958,-44.932 -168.493,-53.27 -19.311,-2 -80.201,-12.115 -104.144,-10.678 -52.363,3.143 -104.365,15.212 -134.173,24.474 -13.427,4.171 -13.514,-1.566 -15.71,-6.765 l -1.934,-4.578 11.227,-4.134 c 27.492,-10.125 57.572,-17.476 89.824,-21.953 42.725,-5.93 99.651,-20.065 145.778,-15.292 91.436,9.462 168.953,50.125 191.48,82.833 l 3.43,4.98 -3.428,14.952 c -0.672,2.93 -6.11,-3.1 -6.429,-3.163 -0.318,-0.064 -3.66,-3.397 -7.428,-7.406"
         id="path23" /><path
         fill="#373632"
         d="m 672.482,1154.688 c -6.646,-0.12 -12.913,-0.01 -17.746,0.304 -2.416,0.156 -4.468,0.36 -6.084,0.627 -0.808,0.134 -1.503,0.28 -2.13,0.473 -0.628,0.192 -1.185,0.308 -1.91,1.033 -0.828,0.828 -0.815,1.474 -0.874,2.012 a 8.4,8.4 0 0 0 0,1.603 c 0.088,1.114 0.314,2.399 0.633,3.803 0.639,2.808 1.65,6.029 2.844,8.607 0.967,2.087 2.22,3.864 4.252,5.166 2.032,1.302 4.64,2.221 8.787,3.52 7.394,2.316 14.038,3.708 27.455,5.773 5.734,0.883 10.079,1.372 13.334,1.457 3.255,0.085 5.452,0.076 7.309,-1.464 1.62,-1.345 2.277,-3.188 2.82,-5.245 0.543,-2.057 0.796,-4.308 0.517,-6.406 -0.341,-2.576 -1.238,-6.171 -2.21,-9.416 a 64,64 0 0 0 -1.467,-4.38 c -0.476,-1.242 -0.64,-2.011 -1.573,-3.042 -0.812,-0.897 -1.71,-1.241 -2.793,-1.595 -1.081,-0.354 -2.384,-0.64 -4,-0.907 -3.23,-0.532 -7.701,-0.97 -13.699,-1.369 -4.44,-0.295 -9.034,-0.475 -13.465,-0.554 m -170.623,6.688 c 0,0.596 -1.068,-0.065 -1.484,0.039 -0.63,0.157 -1.32,0.63 -2.217,1.324 -0.897,0.694 -1.948,1.618 -3.067,2.683 -2.237,2.13 -5.193,6.532 -7.171,9.043 l -2.13,2.705 a 0.513,0.513 0 0 0 0.169,0.775 l 3.373,1.71 c 1.525,0.772 6.54,2.858 11.969,5.04 5.429,2.182 12.132,7.174 15.081,8.207 1.216,0.426 3.712,0.729 5.791,0.758 1.63,0.023 2.679,-0.021 3.61,-0.323 0.93,-0.3 1.674,-0.85 2.673,-1.728 1.269,-1.114 4.944,-7.2 6.517,-9.53 a 46,46 0 0 0 2.064,-3.327 c 0.555,-1.003 0.947,-1.811 1.064,-2.447 0.069,-0.369 -0.058,-0.795 -0.332,-1.116 -0.273,-0.32 -0.665,-0.593 -1.232,-0.906 -1.134,-0.625 -5.782,-0.363 -8.767,-1.504 a 2172,2172 0 0 1 -16.606,-6.453 c -3.438,-1.354 -5.394,-3.948 -7.137,-4.454 -0.872,-0.254 -2.168,-1.092 -2.168,-0.496 m -124.755,-4.765 -5.012,1.035 c -2.766,0.572 -6.429,1.543 -9.737,2.524 -3.308,0.98 -5.839,1.716 -7.724,2.71 -0.377,0.2 -0.948,0.416 -1.668,1.302 -0.72,0.885 -1.024,2.591 -0.815,3.537 0.42,1.89 1.069,2.354 1.956,3.637 1.494,2.16 3.856,4.794 6.289,7.269 2.433,2.475 4.593,4.574 6.681,5.848 1.759,1.072 3.315,1.783 5.676,1.783 1.415,0 1.795,-0.281 2.58,-0.555 a 42,42 0 0 0 2.668,-1.058 c 1.99,-0.853 4.391,-1.984 6.83,-3.2 a 161,161 0 0 0 6.996,-3.69 c 2.093,-1.178 3.7,-2.113 4.957,-3.163 0.82,-0.684 1.498,-1.385 2.07,-2.21 0.287,-0.411 0.559,-0.84 0.786,-1.515 0.227,-0.675 0.59,-1.91 -0.34,-3.416 -0.596,-0.964 -0.971,-1.142 -1.389,-1.468 -0.417,-0.327 -0.86,-0.629 -1.361,-0.95 -1.002,-0.641 -2.227,-1.343 -3.598,-2.078 -2.741,-1.47 -6.03,-3.048 -8.916,-4.203 l -4.892,-1.959 a 3.55,3.55 0 0 0 -2.037,-0.18 m -161.512,-25.881 -13.338,2.813 c -17.397,3.668 -25.771,5.778 -33.932,8.59 -8.105,2.792 -22.892,9.855 -29.584,14.174 a 57.5,57.5 0 0 0 -6.62,5.002 c -0.936,0.825 -1.742,1.598 -2.417,2.369 a 9,9 0 0 0 -0.95,1.25 c -0.303,0.488 -0.774,0.992 -0.774,2.513 0,1.316 0.778,2.419 1.318,2.891 0.54,0.472 0.917,0.615 1.207,0.728 0.58,0.227 0.895,0.261 1.219,0.31 0.647,0.095 1.251,0.124 2.004,0.144 1.505,0.04 3.51,0 6.007,-0.086 4.996,-0.182 11.903,-0.595 19.795,-1.168 15.786,-1.147 35.479,-2.935 51.309,-4.803 8.145,-0.961 10.348,-0.857 13.187,0.195 0.11,0.551 0.195,2.324 -0.044,5.442 a 54,54 0 0 0 -0.174,4.174 18,18 0 0 0 0.062,1.617 c 0.024,0.257 0.051,0.507 0.131,0.863 0.08,0.356 -0.156,0.782 1.088,2.025 1.317,1.317 1.877,1.155 2.523,1.305 0.646,0.15 1.274,0.223 1.971,0.223 0.958,0 1.108,-0.112 1.56,-0.211 0.454,-0.1 0.968,-0.23 1.571,-0.389 1.206,-0.318 2.753,-0.758 4.547,-1.287 a 659,659 0 0 0 12.685,-3.91 641,641 0 0 0 12.495,-4.098 c 1.73,-0.592 3.196,-1.112 4.312,-1.533 a 32,32 0 0 0 1.434,-0.57 c 0.205,-0.09 0.393,-0.175 0.613,-0.29 0.22,-0.115 0.395,-0.111 1.043,-0.722 1.342,-1.266 1.173,-2.215 1.185,-2.654 0.012,-0.439 -0.033,-0.64 -0.062,-0.807 -0.06,-0.333 -0.109,-0.478 -0.156,-0.629 -0.095,-0.3 -0.188,-0.539 -0.301,-0.824 a 58,58 0 0 0 -0.912,-2.137 241,241 0 0 0 -3.035,-6.492 l -4.327,-8.945 a 3.76,3.76 0 0 0 -2.207,-1.932 l -7.537,-2.482 c -4.258,-1.403 -13.786,-4.324 -21.357,-6.553 l -13.703,-4.037 a 3.76,3.76 0 0 0 -1.836,-0.07 z"
         id="path24" /><path
         fill="#252626"
         d="m 232.577,1135.669 c -0.846,0.801 -7.926,-3.9 -8.293,-2.853 -1.922,5.495 9.823,18.246 18.26,21.523 8.437,3.277 19.935,1.43 21.856,-4.064 0.608,-1.74 -2.594,-3.673 -3.397,-5.698 z"
         id="path25" /><path
         fill="#d7cfac"
         d="m 310.988,674.68 c -0.143,0.064 -0.167,0.325 -0.146,0.664 0.393,0.586 0.882,1.265 0.967,1.535 0.28,0.903 0.715,2.023 1.277,3.353 1.124,2.662 2.763,6.139 4.666,9.936 3.805,7.594 8.642,16.434 12.441,22.353 7.556,11.773 17.983,24.825 29.588,37.055 a 230,230 0 0 1 7.08,7.813 c 2.042,2.368 3.646,4.4 4.092,5.117 1.634,2.623 5.038,5.144 11.918,9.121 6.88,3.977 17.283,9.318 32.912,17.014 64.168,31.595 116.615,46.478 173.715,49.244 21.288,1.031 27.532,0.69 39.217,-2.139 29.864,-7.23 50.508,-18.77 65.502,-36.79 10.892,-13.092 28,-39.408 37.592,-57.784 l 8.254,-15.813 c -90.394,-115.18 -381.62,-71.917 -429.075,-50.68"
         id="path26" /><path
         fill="#a49576"
         d="m 358.293,747.814 c 3.75,4.246 7.008,7.905 7.61,8.54 1.992,2.107 2.335,3.827 -1.362,9.316 -12.611,18.726 -40.136,74.86 -58.518,119.338 -12.47,30.176 -32.46,86.427 -31.148,83.04 4.637,-11.977 9.044,-12.785 18.432,-22.497 9.797,-10.136 23.874,-21.51 35.203,-28.443 81.318,-49.408 159.826,-50.263 243.826,-0.64 16.594,9.85 28.33,20.315 36.09,32.184 -18.084,-30.116 -41.972,-59.991 -57.176,-71.082 -6.72,-4.901 -6.727,-5.945 -1.902,-4.9 2.242,0.485 3.536,-0.126 7,-3.305 2.549,-2.339 2.652,-7.014 2.652,-8.343 0,-3.32 -19.499,-22.014 -22.96,-22.014 -2.98,1.428 -30.401,-8.574 -5.04,-3.011 20.645,4.528 56.68,8.766 76.532,5.52 7.3,-1.194 15.016,-2.793 22.078,-4.504 -92.645,4.937 -166.824,-22.653 -247.524,-66.679 -7.364,-4.21 -11.513,-7.315 -11.562,-11.26 -7.454,-7.406 -10.994,-10.685 -12.23,-11.26 m -9.238,38.608 c -1.996,3.38 -3.273,5.214 -4.655,7.863 -4.64,8.868 -8.366,16.601 -13.619,27.281 -5.072,10.409 -8.59,21.044 -13.242,31.52 11.158,-24.578 21.975,-49.557 31.516,-66.664 m -62.23,139.767 c -0.026,0.07 -0.063,0.14 -0.089,0.21 -2.175,6.033 -4.793,11.986 -6.847,18.023 -3.003,8.8 1.504,-3.117 6.935,-18.233 m 321.978,23.11 c 3.23,5.01 6.033,11.084 9,16.715 -2.031,-3.969 -3.52,-7.24 -4.572,-9.108 a 343,343 0 0 0 -4.428,-7.607"
         id="path27" /><path
         fill="#a49677"
         d="m 569.146,190.563 c -2.935,-0.081 -5.654,0.102 -8.119,0.72 -1.86,0.467 -2.783,1.19 -4.316,2.197 -1.533,1.007 -3.324,2.313 -5.324,3.858 -4,3.09 -8.807,7.134 -13.545,11.453 -8.012,7.304 -12.348,11.08 -15.36,12.922 -3.012,1.842 -4.799,2.123 -9.535,2.66 -8.06,0.914 -12.235,1.08 -15.896,3.205 -1.83,1.063 -3.293,3.08 -3.805,4.953 -0.512,1.873 -0.488,3.54 -0.5,5.469 -0.038,6.41 -4.585,17.711 -12.68,28.814 -13.78,18.903 -20.279,36.204 -36.474,96.528 -2.077,7.736 -4.201,15.055 -5.934,20.568 -0.866,2.757 -1.636,5.066 -2.236,6.707 -0.3,0.82 -0.56,1.478 -0.742,1.897 -0.049,0.11 -0.086,0.158 -0.135,0.24 -0.037,0.027 0.019,-0.03 -0.274,0.203 -0.451,0.36 -1.118,0.867 -1.947,1.477 a 307,307 0 0 1 -6.75,4.785 c -5.554,3.846 -12.96,8.828 -20.847,13.996 -51.938,34.032 -90.544,65.692 -111.694,91.982 -8.784,10.92 -13.53,16.711 -16.049,23.791 -2.519,7.08 -2.437,14.43 -2.404,28.1 0.051,20.912 0.882,27.306 5.969,46.1 2.873,10.614 7.865,25.188 12.465,37.234 2.3,6.023 4.493,11.393 6.304,15.355 0.906,1.981 1.703,3.598 2.452,4.875 0.374,0.64 0.716,1.186 1.2,1.766 0.243,0.29 0.513,0.595 0.995,0.955 0.482,0.36 1.365,1.452 2.697,0.906 166.513,-68.239 412.396,-13.72 438.701,51.44 0,0 1.338,-1.812 1.84,-2.846 0.503,-1.034 1.028,-2.274 1.606,-3.742 1.154,-2.937 2.501,-6.774 3.964,-11.254 2.927,-8.96 6.308,-20.467 9.327,-32.022 l 0.045,-0.168 c 0.212,0.326 0.298,0.632 0.664,0.967 0.752,0.69 2.066,1.272 3.273,1.246 1.419,-0.03 1.9,-0.328 2.768,-0.658 0.868,-0.33 1.898,-0.779 3.232,-1.4 2.669,-1.243 6.532,-3.172 12.156,-6.072 11.249,-5.8 29.507,-15.472 58.748,-31.063 18.058,-9.628 38.5,-20.279 45.116,-23.518 l 12.363,-6.052 a 4.02,4.02 0 0 0 2.24,-3.91 l -1.182,-15.666 c -0.705,-9.347 -0.5,-14.59 1.268,-18.989 1.768,-4.399 5.414,-8.647 12.62,-15.441 l 9.958,-9.39 a 4.02,4.02 0 0 0 0.365,-5.454 L 914.107,515.934 902.48,501.58 a 4.02,4.02 0 0 0 -3.205,-1.486 l -21.248,0.449 h -0.002 c -15.783,0.334 -30.365,2.214 -53.578,6.867 -36.01,7.219 -69.799,11.86 -84.814,11.86 -3.286,0 -6.16,0.197 -8.453,0.593 -1.147,0.199 -2.128,0.418 -3.164,0.86 -0.518,0.22 -1.068,0.477 -1.723,1.066 -0.439,0.394 -0.885,1.142 -1.195,2.018 C 698.101,483.329 652.642,433.953 612.771,402.42 l -11.789,-9.322 0.838,-10.854 c 0.537,-6.956 2.25,-22.713 3.783,-34.703 3.03,-23.689 5.149,-51.317 6.094,-75.867 0.945,-24.55 0.773,-45.817 -1.01,-57.606 -0.593,-3.925 -1.19,-7.049 -3.45,-9.71 -2.261,-2.663 -5.22,-4.125 -9.98,-6.551 -8.51,-4.34 -19.303,-7.002 -28.11,-7.245"
         id="path28" /><path
         fill="#b2a482"
         d="m 605.08,327.788 c -1.56,2.816 -5.875,11.16 -8.12,18.999 -2.246,7.838 -3.147,20.176 -4.25,26.53 -1.104,6.356 3.147,14.862 4.86,17.297 1.712,2.436 -0.649,-4.025 1.71,-9.124 2.359,-5.099 3.882,-16.971 4.947,-26.98 1.066,-10.007 1.675,-18.15 1.446,-22.488 -0.228,-4.337 0.967,-7.05 -0.593,-4.234 m 132.805,196.964 c 4.186,0.685 10.274,1.674 14.878,2.321 4.604,0.647 7.725,0.952 12.976,0.571 5.251,-0.38 12.633,-1.446 19.939,-2.74 7.306,-1.293 14.536,-2.815 22.527,-5.099 7.99,-2.283 16.742,-5.327 23.173,-7.952 6.431,-2.625 10.54,-4.833 13.432,-6.317 2.892,-1.484 4.567,-2.245 -5.06,-0.647 -9.628,1.598 -30.556,5.556 -47.984,8.524 -17.428,2.968 -31.354,4.947 -41.21,6.43 -9.855,1.485 -19.15,1.532 -20.9,2.217 -1.75,0.685 4.043,2.007 8.229,2.692 m 43.807,130.668 c 7.246,-7.179 17.9,-18.442 26.729,-27.27 8.828,-8.828 15.829,-15.22 24.885,-20.015 9.056,-4.795 20.168,-7.991 30.898,-10.274 10.73,-2.283 29.307,-5.182 36.521,-5.209 7.214,-0.027 3.068,2.818 -0.758,6.329 -3.826,3.511 -15.558,9.214 -29.04,15.955 -13.482,6.741 -28.713,14.519 -42.974,22.268 -14.261,7.749 -27.55,15.47 -37.584,20.729 -10.035,5.26 -16.815,8.057 -18.287,7.91 -1.472,-0.15 2.365,-3.244 9.61,-10.423 M 493.637,249.535 c 0.27,5.005 -8.16,31.341 -12.465,41.243 -4.306,9.902 -9.794,17.866 -14.853,27.176 -5.059,9.31 -9.686,19.965 -10.386,17.22 -0.7,-2.745 2.53,-18.888 7.319,-33.203 4.79,-14.314 11.14,-26.799 16.144,-33.956 5.004,-7.157 13.972,-23.484 14.241,-18.48"
         id="path29" /><path
         fill="url(#h)"
         d="m 910.085,499.468 c -2.585,0.512 -9.495,2.724 -8.67,3.75 0.704,0.875 4.572,5.921 8.597,11.214 4.025,5.293 7.743,9.887 8.264,10.21 0.52,0.321 1.845,2.342 2.941,4.491 l 3.407,4.393 -3.733,4.576 c -4.116,5.046 -16.745,13.586 -18.446,21.355 -2.033,9.28 -4.958,14.178 -2.305,25.825 2.08,15.56 -3.485,11.046 14.16,7.81 4.777,-1.069 6.37,-1.005 11.413,0.461 12.109,3.52 23.298,10.24 49.983,30.02 8.25,6.115 19.5,14.213 25,17.994 12.254,8.425 23.738,17.72 33,26.705 13.784,13.375 23.947,18.402 30.549,17.857 3.328,-0.274 1.097,-1.915 2.722,-5.379 4.763,-10.15 3.91,-24.696 -1.425,-40.839 -2.316,-7.008 -2.402,-7.969 -8.89,-14.931 -10.263,-11.016 -30.904,-33.576 -33.733,-37.79 -1.293,-1.926 -8.804,-14.21 -16.1,-25.724 -35.274,-55.666 -50.837,-71.083 -96.734,-61.998"
         id="path30"
         style="fill:url(#h)" /><path
         fill="url(#i)"
         d="m 902.62,594.108 c 0.229,-1.599 -0.919,-0.938 1.72,-2.76 45.581,-31.498 93.525,17.852 124.072,56.526 12.082,16.66 22.237,18.13 40.601,14.916 2.36,0 2.74,2.892 2.283,6.774 -0.457,3.881 -2.758,11.568 -3.9,14.422 -1.142,2.854 -2.13,3.691 -6.735,1.94 -4.604,-1.75 -11.815,-8.904 -18.97,-14.27 -7.153,-5.365 -13.241,-11.758 -21.917,-18.683 -8.676,-6.925 -19.939,-14.383 -32.23,-23.173 -12.291,-8.79 -25.609,-18.912 -35.045,-25.343 -9.437,-6.43 -14.993,-9.17 -19.902,-10.997 -4.908,-1.826 -9.17,-2.74 -13.965,-2.435 -4.794,0.304 -11.674,4.985 -14.147,5.29 -2.473,0.305 -2.093,-0.61 -1.865,-2.208"
         id="path31"
         style="fill:url(#i)" /><path
         fill="url(#j)"
         d="m 574.902,35.506 c -1.695,1.695 -3.655,5.129 -4.356,7.63 -1.538,5.496 -5.051,20.28 -3.848,34.029 1.052,12.032 3.126,16.67 -6.216,26.681 -3.454,3.702 -9.661,11.006 -13.793,16.23 -4.13,5.226 -14.044,15.794 -22.169,24.044 -10.194,10.352 -15.635,16.704 -17.558,20.5 -4.675,9.227 -9.828,23.45 -11.242,42.016 -0.335,4.4 -1.034,10.7 -1.555,14 -0.465,2.952 3.066,9.904 3.292,9.54 0.783,-1.269 6.502,-2.268 14.603,-2.55 4.762,-0.166 8.853,-0.91 11,-2.004 1.88,-0.957 9.045,-7.255 15.92,-13.994 6.875,-6.739 14.525,-13.545 17,-15.123 4.147,-2.644 5.206,-2.86 13.5,-2.758 13.608,0.169 26.576,4.258 33.973,10.71 l 3.646,3.179 c 0,0 6.169,-28.018 6.832,-32.5 1.469,-9.921 7.135,-26.047 10.803,-30.742 1.615,-2.067 4.13,-5.823 5.59,-8.346 5.113,-8.836 4.209,-21.043 -6.229,-34.16 -13.033,-16.379 -17.983,-23.143 -11.236,-30.933 1.457,-1.681 2.263,-5.969 3.084,-8.719 0.821,-2.75 3.776,-5.5 4.47,-6.6 0.695,-1.1 1.845,-3.8 2.555,-6 0.71,-2.2 4.162,-9.748 7.67,-16.773 5.99,-11.994 6.945,-20.042 6.945,-24.879 0,-15.188 -62.358,27.199 -62.681,27.522"
         id="path32"
         style="fill:url(#j)" /><path
         fill="url(#k)"
         d="m 571.786,87.75 c 1.05,-0.727 4.428,-5.79 4.63,-9.14 0.202,-3.35 -0.471,-6.768 -1.13,-9.835 -0.66,-3.067 -1.306,-5.785 -1.682,-7.695 -0.377,-1.91 -0.485,-3.014 -1.036,-4.588 -0.552,-1.574 -1.547,-3.619 -2.14,-2.677 -0.591,0.942 -0.78,4.87 -0.766,8.287 0.013,3.417 0.229,6.323 0.484,9.727 0.256,3.404 -1.75,9.086 -1.091,11.952 0.66,2.866 1.682,4.695 2.731,3.969"
         id="path33"
         style="fill:url(#k)" /><path
         fill="url(#l)"
         d="m 611.434,167.357 c -1.065,-0.61 -1.826,-3.882 -3.386,-7.155 -1.56,-3.272 -4.49,-11.853 -6.24,-14.44 -1.751,-2.588 -2.893,-4.49 -1.56,-7.953 1.331,-3.463 5.136,-8.485 8.523,-12.1 3.387,-3.615 4.756,-5.822 6.925,-8.105 6.109,-6.43 5.056,-13.1 7.763,-11.15 1.636,1.18 4.3,6.203 5.403,10.122 1.104,3.92 3.31,8.108 1.675,12.027 -1.637,3.92 -7.116,7.57 -9.78,12.973 -2.664,5.403 -3.006,16.496 -4.947,20.415 -1.94,3.92 -3.31,5.974 -4.376,5.365"
         id="path34"
         style="fill:url(#l)" /><path
         fill="#c27717"
         d="m 626.043,703.989 c -3.354,0.07 -6.911,0.376 -10.72,0.91 -8.182,1.147 -25.194,9.163 -26.485,12.479 -0.998,2.564 0.447,5.298 3.547,6.71 5.016,2.286 2.513,3.815 -10.346,6.323 -3.82,0.745 -6.68,4.43 -5.74,7.392 0.353,1.113 1.817,2.947 3.254,4.077 3.558,2.799 2.107,3.902 -6.158,4.673 -5.005,0.468 -7.508,1.242 -9.537,2.95 -2.782,2.34 -4.833,4.15 6.142,0.447 25.136,-8.483 24.212,-8.359 28.52,-3.822 8.994,9.472 3.56,15.071 -24.577,25.336 -13.37,4.877 -29.091,4.687 -27.806,5.01 2.081,0.522 2.327,4.912 2.262,9.472 -0.065,4.491 0.282,5.402 2.822,7.428 2.945,2.35 9.03,3.824 29.105,7.05 17.527,2.817 17.527,3.794 0,4.893 -6.05,0.38 -12.012,0.935 -13.25,1.234 -3.36,0.813 -2.724,3.133 0.998,3.653 1.789,0.249 10.224,0.391 18.748,0.314 17.251,-0.155 20.704,-1.184 24.004,-7.152 1.56,-2.82 2.096,-3.025 9.574,-3.631 7.522,-0.61 14.61,-2.734 15.858,-4.752 2.067,-3.345 -5,-7.247 -17.274,-9.539 -14.184,-2.649 -13.499,-3.878 3.356,-6.023 21.653,-2.757 32.028,-5.094 35.975,-8.104 1.968,-1.501 3.413,-3.226 3.212,-3.834 -0.407,-1.232 -4.234,-2.026 -16.562,-3.435 -5.371,-0.615 -8.945,-1.544 -10,-2.6 -2.528,-2.529 0.033,-3.537 9.031,-3.555 10.21,-0.02 17.632,-1.788 19.504,-4.644 2.255,-3.442 0.282,-5.927 -6.392,-8.051 -5.009,-1.594 -5.84,-2.231 -6.66,-5.113 -1.281,-4.497 0.097,-5.582 7.335,-5.768 10.778,-0.278 14.014,-4.945 7.54,-10.875 -1.926,-1.763 -3.5,-3.676 -3.5,-4.25 0,-2.232 -4.301,-6.328 -9.774,-9.309 -7.715,-4.2 -15.944,-6.106 -26.006,-5.894 m -0.963,17.183 c 0.781,0.021 1.56,0.077 2.32,0.172 3.846,0.48 5.836,1.281 6.877,2.768 0.806,1.15 1.232,2.47 0.948,2.93 -1.236,1.999 -16.987,-0.35 -19.553,-2.916 -1.556,-1.557 3.94,-3.1 9.408,-2.954 m -22.082,23.874 c 0.879,0.015 2.061,0.124 3.578,0.312 5.868,0.726 8.66,2.047 7.68,3.633 -1.063,1.72 -10.015,1.004 -11.775,-0.942 -2.017,-2.228 -2.118,-3.049 0.517,-3.003 m -0.994,15.068 c 3.298,-0.058 7.822,1.808 7.822,3.887 0,0.482 -1.912,0.825 -4.25,0.761 -7.564,-0.206 -9.346,-1.315 -6.248,-3.886 0.615,-0.51 1.577,-0.743 2.676,-0.762 m -11.785,27.406 c 4.975,0.026 13.435,1.195 15.83,2.477 2.467,1.32 2.222,3.528 -0.473,4.25 -3.5,0.938 -17.224,-0.309 -19.607,-1.782 -1.759,-1.086 -1.358,-3.403 0.789,-4.552 0.53,-0.284 1.802,-0.401 3.46,-0.393"
         id="path35" /><path
         fill="url(#m)"
         d="m 410.113,949.14 c -7.557,0 -13.652,29.3 -10.05,49.426 1.5,8.387 5.25,17.278 7.515,19.71 2.437,2.615 1.744,1.715 4.752,-1.073 4.46,-4.133 5.167,-10.222 5.12,-30.703 -0.043,-18.408 -1.181,-25.367 -3.378,-31.084 -1.501,-3.908 -1.846,-6.275 -3.959,-6.275"
         id="path36"
         style="fill:url(#m)" /><path
         fill="#5e4c3e"
         d="m 924.795,716.593 c -4.46,-0.201 -10.171,0.915 -16.31,3.295 -18.227,7.064 -59.176,29.276 -81.985,44.47 -24.943,16.616 -43.56,31.899 -68.36,56.118 -29.721,29.026 -60.395,66.156 -61.798,74.806 -1.065,6.558 6.736,23.872 15.64,34.717 2.032,2.475 4.916,6.441 6.408,8.813 l 2.713,4.312 -19.816,20.188 a 1604,1604 0 0 0 -8.97,9.205 c 0.715,0.89 2.162,1.06 2.78,1.06 1.7,0 12.954,8.177 17.561,12.76 1.925,1.915 5.3,4.28 7.5,5.254 2.2,0.975 6.642,3.847 9.871,6.38 7.962,6.25 9.716,6.135 27.264,-1.759 7.773,-3.497 15.186,-7.095 16.472,-7.996 2.28,-1.597 10.501,-2.223 11.737,-1.068 0.365,-0.881 0.498,-1.839 0.498,-2.946 0,-6.803 -9.386,-31.222 -15.127,-39.357 -2.297,-3.255 -2.415,-6.478 -0.422,-8.106 -0.21,-0.103 -0.348,-0.162 -0.387,-0.162 -2.654,0 9.062,-6.67 28.594,-16.279 12.375,-6.088 24.75,-12.403 27.5,-14.033 2.75,-1.63 14,-7.477 25,-12.994 20.712,-10.389 41.06,-22.335 63.219,-37.117 7.07,-4.717 13.513,-8.57 14.318,-8.57 0.626,0 2.864,-1.146 4.604,-1.255 a 7,7 0 0 1 -0.25,-0.273 c -2.761,-3.183 -2.58,-3.62 0.496,-1.2 4.886,3.844 14.066,0.664 17.695,-6.128 2.21,-4.135 2.26,-4.92 2.225,-35.229 -0.03,-24.89 -0.37,-32.726 -1.729,-39.758 -3.313,-17.142 -14.088,-41.04 -20.447,-45.351 -1.595,-1.081 -3.819,-1.676 -6.494,-1.797 m -7.248,6.635 h 0.02 c 0.155,0.155 -0.345,3.203 -1.11,6.773 -0.765,3.57 -1.406,10.878 -1.425,16.24 -0.034,9.47 -1.25,12.73 -2.657,7.125 -1.215,-4.84 0.367,-19.584 2.698,-25.148 1.167,-2.787 2.25,-4.97 2.47,-4.998 z m -3.93,50.158 c 0.282,-0.01 0.495,0.532 0.71,1.666 2.44,12.837 5.011,27.83 6.767,39.447 1.163,7.7 2.723,15.783 3.466,17.961 1.64,4.803 1.292,5.489 -1.003,1.985 -1.738,-2.652 -5.872,-17.616 -6.893,-24.946 -0.306,-2.2 -1.217,-8.275 -2.022,-13.5 -2.081,-13.515 -2.591,-20.463 -1.62,-22.033 0.234,-0.379 0.426,-0.577 0.595,-0.58 m -68.875,50.777 c 0.204,-0.01 0.386,0 0.537,0.022 1.848,0.264 1.4,0.811 -2.79,3.418 -37.443,23.287 -44.964,28.304 -61.99,41.358 -15.539,11.914 -19.5,14.387 -19.5,12.175 0,-0.805 4.92,-5.574 13.046,-12.644 12.856,-11.188 52.12,-37.138 64.427,-42.582 2.218,-0.98 4.839,-1.698 6.27,-1.746 z m -18.637,40.87 c 1.943,0.045 -2.55,3.646 -8.095,6.486 -2.48,1.27 -9.646,5.722 -15.924,9.894 -11.366,7.553 -13.086,8.428 -13.086,6.653 0,-3.44 31.768,-23.16 37.105,-23.034 M 700.933,908.97 h 0.008 c 0.577,-0.125 7.885,11.916 11.131,18.357 2.547,5.055 1.065,3.846 -3.468,-2.83 -4.24,-6.241 -8.449,-14.749 -7.68,-15.517 h 0.008 z"
         id="path37" /><path
         fill="#955c2d"
         d="m 342.176,512.492 q -0.57,0.029 -1.04,0.32 c -2.61,1.622 -6.178,7.515 -5.618,9.28 0.285,0.898 0.708,5.745 0.94,10.771 0.491,10.682 -0.185,11.01 -5.43,2.64 -1.925,-3.073 -4.85,-7.127 -6.5,-9.01 l -3,-3.426 -4,2.125 c -6.934,3.682 -6.924,3.648 -3.645,12.505 4.606,12.442 5.111,13.209 12.073,18.39 3.615,2.69 8.22,6.612 10.236,8.714 3.545,3.698 13.101,18.617 16.53,25.805 3.635,7.624 11.33,1.364 11.286,-9.184 -0.019,-4.641 -0.638,-6.375 -11.677,-32.64 -1.35,-3.213 -2.165,-6.13 -1.81,-6.485 1.095,-1.096 4.341,3.841 10.515,15.996 3.26,6.42 6.954,12.39 8.209,13.27 2.108,1.476 2.383,1.462 3.619,-0.172 2.667,-3.528 0.824,-12.52 -4.9,-23.899 -2.88,-5.722 -4.982,-10.657 -4.67,-10.968 0.522,-0.523 10.325,12.6 11.414,15.279 0.567,1.396 6.188,3.52 7.375,2.787 0.806,-0.499 -1.813,-9.277 -3.971,-13.309 -1.676,-3.131 0.407,-3.535 3.492,-0.675 1.493,1.384 3.331,2.517 4.082,2.517 2.063,0 0.703,-7.22 -2.846,-15.103 -2.266,-5.036 -3.74,-6.97 -6.205,-8.145 -3.498,-1.668 -6.607,-0.823 -6.607,1.797 0,2.064 -1.755,1.798 -2.443,-0.371 -0.966,-3.042 -6.651,-8.178 -9.053,-8.178 -3.27,0 -4.529,2.07 -3.84,6.313 0.779,4.798 -0.756,4.768 -4.244,-0.084 -3.253,-4.526 -6.22,-6.959 -8.272,-6.86 m -34.01,21.631 c -0.45,0.04 -1.723,1.298 -2.857,2.832 -1.739,2.352 -2.14,4.517 -2.36,12.75 -0.145,5.455 0.103,12.33 0.552,15.28 0.777,5.117 0.726,5.315 -1.133,4.32 -2.267,-1.213 -3.576,-0.567 -5.24,2.594 -1.004,1.906 -0.597,4.507 2.496,16 3.938,14.633 5.428,18.402 8.695,21.974 1.72,1.882 3.098,2.25 8.414,2.25 4.392,0 6.518,-0.415 6.873,-1.342 0.283,-0.737 -1.983,-6.471 -5.033,-12.744 -3.05,-6.273 -5.545,-11.745 -5.545,-12.16 0,-2.003 2.016,-0.248 5.46,4.754 2.087,3.03 5.283,6.814 7.1,8.41 3.342,2.934 5.277,3.166 18.165,2.176 0.673,-0.052 1.928,-1.46 2.79,-3.127 1.464,-2.83 1.42,-3.439 -0.656,-9.13 -2.672,-7.33 -9.892,-16.536 -14.468,-18.448 -1.825,-0.762 -4.905,-2.78 -6.846,-4.484 -3.937,-3.457 -11.435,-17.572 -13.975,-26.31 -0.894,-3.077 -1.979,-5.595 -2.41,-5.595 z"
         id="path38" /><path
         d="m 634.5,1196.934 c -4.95,-0.994 -11.925,-2.316 -15.5,-2.937 -3.575,-0.621 -8.525,-1.544 -11,-2.052 a 8001,8001 0 0 0 -20,-4.033 c -8.525,-1.71 -21.575,-4.686 -29,-6.611 -18.029,-4.676 -18.607,-4.767 -19.274,-3.03 -1.459,3.802 -11.227,15.817 -13.278,16.331 -4.882,1.226 -18.779,-2.966 -35.328,-10.655 l -9.207,-4.278 -4.207,3.978 c -7.23,6.837 -11.3,9.353 -15.127,9.353 -4.519,0 -20.476,-5.091 -30.422,-9.706 -11.648,-5.405 -22.358,-9.903 -25.308,-10.63 -2.07,-0.51 -5.963,0.987 -17.795,6.842 -8.33,4.122 -16.047,7.494 -17.15,7.494 -4.937,0 -9.86,-4.506 -21.377,-19.571 -0.837,-1.095 -3.34,-0.545 -13.527,2.968 -13.618,4.697 -28.052,10.213 -35.052,13.394 -13.135,5.97 -16.495,7.209 -19.56,7.209 -2.807,0 -3.746,-0.62 -5.68,-3.75 -1.275,-2.062 -3.152,-6.562 -4.171,-10 -1.612,-5.434 -2.17,-6.25 -4.274,-6.25 -1.33,0 -9.922,2.506 -19.091,5.57 -24.044,8.031 -26.593,7.686 -26.012,-3.517 l 0.34,-6.553 -9,0.064 c -4.95,0.035 -18,1.008 -29,2.162 -21.386,2.242 -52.152,3.728 -54.953,2.653 -2.498,-0.958 -3.893,-5.258 -2.32,-7.153 2.504,-3.017 11.756,-9.243 20.933,-14.085 11.574,-6.107 26.504,-11.22 42.84,-14.671 16.873,-3.565 17.642,-3.913 12,-5.421 -9.529,-2.548 -31.655,-10.351 -36.996,-13.047 -7.279,-3.675 -16.888,-10.113 -19.836,-13.292 -1.42,-1.53 -2.203,-3.434 -2,-4.862 0.313,-2.211 0.711,-2.338 6.832,-2.17 3.575,0.1 22.486,0.494 42.024,0.879 34.765,0.684 35.623,0.654 40.151,-1.41 5.817,-2.65 8.163,-7.146 10.25,-19.647 7.824,-46.885 29.553,-120.977 52.348,-178.5 16.074,-40.562 40.844,-92.955 56.733,-120 9.056,-15.415 9.48,-16.231 9.488,-18.235 0.003,-0.954 -3.64,-5.679 -8.098,-10.5 -15.877,-17.174 -31.118,-38.99 -40.353,-57.765 -20.503,-41.68 -31.6,-70.258 -35.531,-91.5 -0.662,-3.575 -1.813,-7.966 -2.56,-9.758 -1.868,-4.487 -4.806,-37.054 -4.178,-46.32 0.432,-6.385 1.237,-9.058 5.119,-17 7.555,-15.457 22.61,-33.67 41.601,-50.33 6.328,-5.55 12.08,-10.635 12.782,-11.298 2.245,-2.118 24.44,-19.733 32.724,-25.97 8.86,-6.671 26.67,-18.659 42,-28.27 18.342,-11.499 27.23,-18.283 28.89,-22.054 1.435,-3.26 2.756,-8.115 11.976,-44 12.208,-47.513 16.085,-57.202 33.28,-83.173 l 10.403,-15.715 1.574,-15.306 c 0.865,-8.418 1.777,-17.781 2.025,-20.806 1.696,-20.631 5.175,-36.748 9.986,-46.257 1.454,-2.874 8.295,-10.788 17.288,-20 8.185,-8.384 18.978,-20.193 23.985,-26.243 5.007,-6.05 11.59,-13.916 14.63,-17.48 3.038,-3.564 5.858,-7.765 6.265,-9.335 0.407,-1.57 0.36,-7.655 -0.104,-13.52 -1.145,-14.46 -0.332,-32.696 1.662,-37.306 0.866,-2.002 3.277,-4.974 5.358,-6.604 15.825,-12.4 55.582,-33.15 60.939,-31.805 1.275,0.32 3.028,1.665 3.896,2.99 1.442,2.201 1.432,2.997 -0.12,9.234 -0.935,3.754 -4.565,12.557 -8.066,19.561 -3.502,7.005 -7.09,14.655 -7.974,17 A 2581,2581 0 0 0 618.015,62 c -1.525,4.125 -3.502,9.173 -4.394,11.218 C 612.73,75.262 612,78.135 612,79.6 c 0,2.915 5.47,14.281 10.297,21.399 a 558,558 0 0 1 4.677,7 c 2.857,4.396 6.026,14.044 6.026,18.347 0,4.564 -3.254,11.668 -8.266,18.047 -3.631,4.621 -8.1,15.708 -10.411,25.825 -1.446,6.329 -1.639,13.754 -1.475,56.78 0.191,50.208 -0.282,61.567 -4.48,107.5 -0.493,5.405 -2.932,23.01 -5.401,39 -0.51,3.3 -0.936,8.836 -0.947,12.3 -0.018,5.79 0.243,6.56 3.23,9.53 1.788,1.777 5.95,5.215 9.25,7.642 20.87,15.345 47.976,41.267 70.771,67.682 11.136,12.904 28.175,34.539 33.745,42.847 1.844,2.75 3.832,5.337 4.418,5.749 0.586,0.412 3.541,0.53 6.566,0.262 3.025,-0.267 12.025,-0.945 20,-1.506 26.4,-1.857 41.827,-4.267 79.59,-12.432 3.9,-0.844 8.85,-1.786 11,-2.095 2.15,-0.309 6.835,-1.283 10.41,-2.166 4.935,-1.218 10.956,-1.566 25,-1.447 12.405,0.106 25.089,-0.51 38.5,-1.867 13.675,-1.384 22.775,-1.816 28.775,-1.366 7.915,0.594 9.348,1.03 14.624,4.459 6.826,4.435 19.526,16.797 30.128,29.324 6.836,8.077 25.941,36.497 34.342,51.085 3.479,6.04 16.137,21.337 33.264,40.196 10.381,11.431 11.2,12.747 14.509,23.304 2.014,6.426 2.342,9.504 2.297,21.5 -0.057,15.15 -1.33,20.301 -5.585,22.578 -5.187,2.776 -18.054,-4.858 -34.923,-20.72 -13.7,-12.881 -17.363,-15.832 -34.527,-27.816 -7.91,-5.523 -22.6,-15.972 -32.643,-23.218 -11.45,-8.262 -21.99,-14.975 -28.26,-18 -9.302,-4.488 -10.528,-4.821 -17.57,-4.78 -6.385,0.037 -8.578,0.533 -14,3.167 -3.537,1.718 -11.606,5.625 -17.931,8.682 -16.58,8.014 -44.423,22.717 -69,36.437 -7.425,4.146 -16.65,9.28 -20.5,11.41 -7.55,4.176 -19.968,10.24 -28,13.673 -2.75,1.175 -5.648,2.495 -6.44,2.933 -1.41,0.779 -3.097,5.442 -8.565,23.654 -7.984,26.593 -22.7,55.769 -45.393,89.988 -14.44,21.775 -32.96,47.821 -97.19,57.525 -14.621,2.209 -41.202,2.685 -55.85,1.001 -4.642,-0.533 -8.599,-0.81 -8.794,-0.616 -0.194,0.194 2.636,3.222 6.29,6.728 10.978,10.533 11.783,13.928 4.946,20.87 l -4.497,4.565 5.928,5.218 c 5.481,4.825 19.827,20.228 26.343,28.286 5.713,7.065 25.804,37.846 31.94,48.935 10.781,19.483 20.568,43.065 26.93,64.89 2.203,7.555 10.233,39.124 11.857,46.61 0.596,2.75 1.55,6.758 2.12,8.907 l 1.037,3.908 16.01,-15.908 c 18.636,-18.517 21.434,-22.23 19.957,-26.468 -1.267,-3.634 -11.949,-16.957 -22.082,-27.543 -9.157,-9.565 -10.12,-12.252 -6.239,-17.396 5.087,-6.742 17.753,-20.61 30.225,-33.099 C 711.6,947.32 715,943.427 715,941.485 c 0,-0.684 -2.062,-3.886 -4.582,-7.115 C 700.363,921.489 693,905.532 693,896.625 c 0,-15.184 59.919,-81.802 104.962,-116.696 14.537,-11.262 37.703,-26.826 54.22,-36.428 23.571,-13.703 61.535,-31.389 69.17,-32.223 7.873,-0.86 16.791,6.12 22.65,17.727 10.686,21.168 13.823,36.79 14.586,72.629 0.518,24.327 -0.45,34.34 -4.025,41.648 -6.503,13.291 -35.65,34.708 -73.063,53.685 -29.16,14.79 -41.397,19.84 -82.205,33.915 -13.863,4.782 -25.502,8.991 -25.865,9.354 -0.363,0.363 0.588,2.82 2.113,5.462 8.653,14.987 13.245,27.131 14.144,37.4 0.576,6.584 0.57,6.603 -2.805,9.17 -1.86,1.415 -6.307,3.677 -9.882,5.027 -14.547,5.495 -36,15.549 -36,16.871 0,0.469 1.866,5.22 4.147,10.559 7.77,18.186 7.032,20.631 -10.647,35.247 -4.95,4.092 -9.225,7.73 -9.5,8.082 -1.237,1.586 -25.425,20.075 -31.862,24.354 -3.935,2.616 -6.93,5.12 -6.656,5.563 0.275,0.444 1.694,1.107 3.154,1.474 1.46,0.366 5.926,2.218 9.924,4.115 3.998,1.897 13.494,5.887 21.104,8.866 22.886,8.96 25.1,9.987 43.867,20.372 53.573,29.646 -19.13,29.464 -42.64,27.11 -6.565,-0.658 -12.168,-0.965 -12.45,-0.682 -0.282,0.283 0.437,2.928 1.6,5.878 2.258,5.73 3.642,17.038 2.595,21.209 -0.991,3.951 -5.99,5.088 -19.083,4.34 -12.011,-0.686 -19.094,-2.11 -33.245,-6.683 -5.056,-1.634 -9.556,-2.971 -10,-2.973 -0.445,0 -0.657,3.184 -0.473,7.078 0.268,5.65 -0.016,7.467 -1.405,9.002 -2.04,2.254 -3.035,2.245 -14.93,-0.144 z m 12.305,-7.758 c 0.216,-3.775 -0.729,-9.042 -3.25,-18.114 -3.92,-14.107 -4.19,-16.29 -2.21,-17.934 6.67,-5.535 111.412,9.031 131.924,1.437 4.998,-1.85 7.145,-4.322 6.107,-7.027 -1.735,-4.521 -27.33,-18.49 -51.376,-28.04 -7.425,-2.95 -17.325,-6.943 -22,-8.874 -4.675,-1.931 -12.775,-5.137 -18,-7.122 a 2791,2791 0 0 1 -13.87,-5.305 c -5.482,-2.128 -13.192,-8.916 -16.429,-14.462 -1.359,-2.33 -3.446,-8.51 -4.639,-13.735 -6.672,-29.233 -17.518,-65.36 -23.65,-78.78 -1.326,-2.903 -2.412,-5.556 -2.412,-5.894 0,-0.686 -10.602,-21.802 -13.77,-27.427 -18.447,-32.75 -45.385,-67.231 -61.98,-79.336 -6.72,-4.902 -8.326,-8.171 -3.5,-7.127 2.241,0.485 3.536,-0.126 7,-3.305 2.549,-2.339 4.25,-4.787 4.25,-6.116 0,-3.32 -19.498,-22.015 -22.96,-22.015 -2.036,0 -12.111,-3.236 -17.04,-5.473 l -3.5,-1.589 3.5,0.597 c 1.925,0.329 7.325,1.436 12,2.462 20.645,4.528 59.648,5.763 79.5,2.517 61.082,-9.986 77.388,-29.836 98.304,-60.514 27.206,-39.904 42.863,-76.442 52.764,-123.13 l 3.471,-16.37 -0.603,10.298 c -0.332,5.664 -1.008,11.709 -1.502,13.434 -0.495,1.724 -0.699,3.337 -0.453,3.583 1.477,1.476 24.446,-9.837 58.519,-28.824 14.025,-7.816 37.525,-20.123 52.222,-27.35 15.727,-7.735 26.96,-13.839 27.3,-14.837 0.318,-0.933 -0.344,-5.581 -1.472,-10.33 -2.993,-12.601 -2.734,-17.623 1.34,-26.002 3.62,-7.448 11.653,-16.115 19.33,-20.854 3.406,-2.102 4.08,-2.986 3.491,-4.576 -1.264,-3.417 -21.165,-28.835 -23.597,-30.14 -1.844,-0.987 -44.9,0.764 -47.86,1.948 -1.512,0.604 -7.812,1.99 -14,3.082 -6.19,1.09 -19.579,3.774 -29.754,5.963 -22.254,4.788 -57.773,9.11 -74.833,9.106 -4.034,0 -7.184,0.342 -7,0.761 0.183,0.42 3.216,6.5 6.74,13.51 7.307,14.543 7.744,18.308 0.583,5.027 C 716.618,511.012 668.138,453.4 633,422.882 c -4.675,-4.06 -8.725,-7.609 -9,-7.886 -0.753,-0.759 -13.73,-10.937 -20.142,-15.796 -4.927,-3.735 -5.724,-4.823 -6.289,-8.586 -0.355,-2.37 -0.216,-6.29 0.308,-8.712 0.525,-2.42 1.237,-6.596 1.584,-9.278 0.346,-2.681 1.263,-9.206 2.038,-14.5 1.939,-13.242 5.177,-46.964 6.59,-68.624 1.104,-16.929 0.582,-78.75 -0.692,-81.804 -0.75,-1.8 -8.364,-7.044 -12.897,-8.884 -8.653,-3.513 -15.521,-4.919 -24.618,-5.039 -8.787,-0.116 -9.684,0.066 -14.145,2.859 -2.619,1.64 -10.269,8.405 -17,15.033 -6.731,6.628 -13.774,12.84 -15.653,13.805 -2.085,1.07 -6.24,1.866 -10.661,2.043 -8.204,0.327 -13.342,1.25 -15.173,2.725 -0.727,0.586 -1.259,3.36 -1.271,6.634 -0.037,9.945 -4.807,20.7 -14.408,32.488 -7.139,8.765 -14.531,23.864 -19.897,40.64 -4.376,13.682 -6.133,20.06 -16.217,58.866 -3.235,12.448 -6.732,23.721 -7.885,25.422 -1.207,1.78 -6.875,5.93 -13.572,9.939 -29.837,17.86 -67.911,44.862 -86.973,61.68 -4.11,3.626 -9.06,7.943 -11,9.593 -17.647,15.009 -37.87,37.78 -43.979,49.525 -4.886,9.39 -6.073,16.498 -5.471,32.753 0.585,15.798 1.068,19.58 4.437,34.722 5.527,24.847 10.271,38.44 24.602,70.5 18.265,40.863 27.593,55.86 51.884,83.423 4.4,4.992 8.563,9.672 9.25,10.398 1.992,2.106 1.488,4.352 -2.208,9.841 -12.611,18.727 -40.136,74.86 -58.518,119.338 -24.733,59.846 -45.485,127.653 -57.02,186.314 -3.278,16.665 -5.914,23.13 -10.73,26.318 -2.702,1.79 -5.049,2.194 -14.5,2.502 -23.356,0.759 -51.667,0.289 -62.584,-1.04 -12.905,-1.569 -15.232,-0.857 -9.986,3.057 13.177,9.83 28.356,15.751 72.296,28.199 12.65,3.584 26.6,7.783 31,9.333 l 8,2.817 4.337,9 c 2.386,4.95 5.918,13.72 7.848,19.49 1.931,5.768 4.175,11.772 4.985,13.34 1.84,3.557 2.63,3.394 18.263,-3.759 17.352,-7.94 48.688,-19.03 68.067,-24.089 10.81,-2.822 13.09,-2.378 30.14,5.88 8.448,4.092 24.81,11.384 36.36,16.204 16.383,6.837 22.326,8.86 27.03,9.202 5.8,0.42 6.224,0.285 11.066,-3.543 2.77,-2.189 9.463,-8.721 14.874,-14.516 5.411,-5.795 10.874,-11.09 12.14,-11.767 1.965,-1.053 3.431,-0.79 10.095,1.804 20.385,7.94 34.313,12.4 55.795,17.874 11.801,3.006 44.992,9.812 58.284,11.95 5.144,0.829 11.684,2.144 14.534,2.924 2.85,0.78 6.307,1.325 7.682,1.212 2.285,-0.188 2.526,-0.664 2.805,-5.53 M 405.712,1017.683 c -9.117,-13.914 -8.443,-59.011 0.665,-67.568 13.725,-12.893 12.332,54.08 9.307,61.835 -3.128,8.018 -7.012,10.25 -9.972,5.732 m 7.464,-8.05 c 2.592,-9.001 0.828,-62.2 -4.688,-57.623 -6.819,5.659 -9.225,51.895 -0.264,62.752 1.543,1.87 3.528,-0.185 4.952,-5.128 M 537.5,778.136 c -11.515,-4.542 -24.414,-27.958 -29.5,-38.201 0,-0.337 -1.163,-1.143 -2.584,-1.79 -11.19,-5.099 -36.711,-5.894 -39.788,-10.59 -1.478,-2.255 -3.336,-6.584 -9.248,-21.554 -2.064,-5.225 -5.131,-12.195 -6.816,-15.49 l -3.064,-5.989 c -23.491,-3.015 -47.34,0.233 -70.794,-2.944 -5.492,-1.603 -9.238,-12.971 -12.18,-36.966 -1.728,-14.085 -2.06,-42.752 -0.569,-49.111 1.383,-5.897 4.927,-8.5 11.573,-8.5 17.404,0 3.32,37.748 14.035,73.75 1.145,3.846 61.34,-1.349 71.067,4.15 7.809,5.79 16.773,28.852 19.887,38.6 2.292,7.602 2.717,8.119 7.246,8.813 17.205,2.638 28.195,5.106 32.399,7.275 9.273,4.784 16.63,35.412 23.145,35.412 11.2,0 26.755,-4.713 47.954,-11.651 6.032,-1.975 8.71,-1.283 12.722,3.286 7.501,7.988 -2.77,13.808 -9.485,17.19 -18.959,9.38 -48.13,16.834 -56,14.31 m 99.358,-99.384 c -3.464,-1.64 -8.547,-6.254 -12.696,-11.522 -5.118,-6.5 -6.01,-4.445 -1.92,4.426 1.105,2.394 0.344,4.345 -1.693,4.345 -0.733,0 -3.598,-2.037 -6.367,-4.527 -6.61,-5.943 -11.69,-16.148 -13.687,-27.495 -2.432,-13.817 -1.726,-20.738 3.975,-38.978 7.835,-21.775 28.587,-44.057 52.468,-45.96 15.319,-1.357 16.45,-1.116 30.597,6.521 10.854,5.86 15.768,12.48 17.694,23.84 1.433,8.453 1.388,10.512 -0.517,23.599 -2.53,17.387 -2.7,18.186 -4.81,22.627 -2.702,5.686 -14.839,24.039 -18.99,28.716 -1.877,2.114 -6.112,5.16 -9.412,6.77 -3.3,1.61 -7.865,4.05 -10.144,5.423 -3.33,2.006 -5.885,2.592 -13,2.982 -5.951,0.326 -9.722,0.074 -11.498,-0.767 m 17.925,-6.158 c 4.533,-2.312 11.59,-8.594 9.654,-8.592 -0.515,0 -3.412,0.966 -6.437,2.147 -3.607,1.408 -8.253,2.241 -13.5,2.421 -4.4,0.151 -8.393,0.31 -8.872,0.353 -1.549,0.139 1.78,3.345 4.872,4.692 4.526,1.973 9.05,1.65 14.283,-1.02 M 641,658.105 c 1.905,-0.53 2.5,-1.36 2.5,-3.493 0,-2.37 -0.613,-3.008 -4,-4.167 -3.773,-1.292 -6.823,-3.929 -7.758,-6.708 -0.666,-1.977 -3.742,1.095 -3.742,3.736 0,2.614 1.867,8.486 3.268,10.277 1.041,1.332 5.619,1.5 9.732,0.355 m 41.169,-9.855 c 6.701,-7.03 11.124,-17.132 14.818,-33.842 2.727,-12.331 2.594,-19.299 -0.515,-27.07 -2.933,-7.331 -9.08,-13.794 -14.585,-15.332 -1.987,-0.555 -5.362,-2.246 -7.5,-3.758 -3.633,-2.568 -4.466,-2.73 -12.738,-2.467 -9.383,0.298 -12.481,1.372 -21.649,7.501 -10.185,6.81 -10.744,11.14 -0.75,5.805 22.844,-12.194 39.14,-9.818 46.978,6.85 2.922,6.214 3.008,6.798 2.5,17 -0.67,13.413 -2.711,23.007 -7.736,36.34 -5.405,14.343 -5.228,15.692 1.177,8.973 m -50.996,-15.175 c 0.546,-1.416 2.052,-6.636 3.347,-11.599 1.296,-4.963 3.959,-12.824 5.918,-17.47 1.959,-4.646 3.562,-8.641 3.562,-8.88 0,-0.239 -0.967,0.421 -2.148,1.469 -3.986,3.536 -12.466,15.859 -15.677,22.782 -3.082,6.646 -3.152,7.091 -2.086,13.21 l 1.103,6.334 2.495,-1.635 c 1.372,-0.9 2.941,-2.794 3.486,-4.21 m 29.117,-1.21 c 2.315,-1.173 4.54,-2.636 4.945,-3.25 1.092,-1.658 0.919,-9.615 -0.21,-9.615 -1.688,0 -15.025,12.024 -15.025,13.547 0,2.173 5.359,1.818 10.29,-0.681 M 612.156,622 c 0.663,-3.025 3.332,-9.325 5.932,-14 3.833,-6.894 4.816,-9.68 5.204,-14.75 0.502,-6.55 0.027,-7.395 -2.525,-4.5 -6.435,7.3 -14.635,33.939 -12.311,39.995 0.936,2.44 2.186,0.163 3.7,-6.745 m 45.995,-5.97 c 6.175,-5.434 7.473,-9.105 3.49,-9.864 -2.371,-0.452 -9.76,2.353 -13.083,4.967 -2.238,1.76 -2.558,2.765 -2.558,8.038 v 6.025 l 3.096,-1.96 c 1.703,-1.078 5.778,-4.32 9.055,-7.206 M 656.5,599.747 c 9.933,-2.428 13.234,-5.347 14.202,-12.562 0.5,-3.732 0.39,-3.917 -2.715,-4.538 -5.933,-1.186 -7.757,-0.75 -10.16,2.43 -1.28,1.692 -3.392,4.24 -4.693,5.662 -2.234,2.44 -4.134,7.087 -4.134,10.111 0,0.916 0.575,1.12 1.75,0.62 0.963,-0.41 3.55,-1.185 5.75,-1.723 m -13.113,-15.354 c 1.587,-0.991 2.38,-1.97 1.76,-2.177 -1.02,-0.34 -6.569,3.786 -12.755,9.489 -1.316,1.212 -2.374,3.012 -2.353,4 0.027,1.255 1.606,0.096 5.25,-3.858 2.866,-3.108 6.51,-6.463 8.098,-7.454 M 434.372,568.027 c -5.687,-0.65 -6.783,-1.223 -15.211,-7.953 -4.996,-3.99 -9.354,-8.225 -9.685,-9.413 A 53,53 0 0 0 408.093,546.5 C 406.044,541.253 404,534.009 404,531.993 c 0,-1.819 -0.266,-2.017 -1.419,-1.06 -1.757,1.458 -3.997,14.142 -3.05,17.27 0.383,1.263 2.519,6.01 4.747,10.55 2.228,4.538 3.745,8.558 3.37,8.932 -1.114,1.115 -6.018,-3.104 -7.872,-6.773 -4.212,-8.333 -6.03,-16.743 -5.562,-25.733 0.391,-7.494 0.96,-9.703 4.17,-16.179 4.312,-8.701 6.082,-10.188 33.847,-28.448 15.09,-9.925 38.86,-15.307 47.698,-10.8 6.473,3.3 7.55,5.95 7.746,19.07 0.225,14.945 -1.317,21.993 -7.2,32.918 -6.23,11.567 -10.773,17.664 -15.826,21.234 -2.282,1.613 -6.624,5.27 -9.649,8.126 -5.28,4.985 -10.502,8.053 -13.218,7.763 -0.705,-0.075 -4.04,-0.452 -7.41,-0.836 m -0.637,-9.842 c 0.68,-0.431 1.496,-2.112 1.815,-3.735 0.508,-2.581 -0.058,-3.551 -4.53,-7.756 -5.259,-4.943 -7.02,-8.02 -7.02,-12.26 0,-2.957 -0.557,-3.001 -4.843,-0.388 l -3.344,2.038 0.714,6.208 c 0.884,7.691 3.016,10.803 9.676,14.122 5.759,2.87 5.79,2.877 7.532,1.771 m 18.522,-3.256 c 1.293,-0.59 2.9,-1.95 3.57,-3.023 1.689,-2.705 -0.505,-3.416 -7.06,-2.286 -5.573,0.96 -6.737,2.268 -4.24,4.764 1.877,1.877 4.414,2.056 7.73,0.545 m -0.892,-21.002 c 1.775,-1.395 2.635,-3.028 2.635,-5 0,-2.455 -0.403,-2.927 -2.5,-2.927 -1.375,0 -2.5,0.449 -2.5,0.997 0,0.549 -1.627,2.799 -3.616,5 L 441.767,536 h 3.482 c 2.008,0 4.597,-0.877 6.116,-2.073 m -12.615,-4.703 c 4.044,-3.297 5.526,-6.224 3.15,-6.224 -2.342,0 -12.9,7.346 -12.9,8.975 0,3.907 2.421,3.224 9.75,-2.75 M 419.738,515.5 c 1.403,-2.2 3.847,-5.654 5.431,-7.676 1.585,-2.021 2.512,-3.903 2.062,-4.181 -1.488,-0.92 -9.047,3.142 -10.275,5.522 -0.663,1.284 -2.08,3.296 -3.147,4.47 -1.241,1.365 -2.097,4.068 -2.374,7.5 L 411,526.5 414.093,523 c 1.702,-1.925 4.241,-5.3 5.644,-7.5 m 55.93,3.16 c 0.496,-3.06 0.335,-3.598 -0.935,-3.11 -1.656,0.634 -2.697,3.475 -2.72,7.414 -0.012,2.215 0.143,2.31 1.52,0.931 0.844,-0.843 1.804,-3.199 2.135,-5.234 m -42.968,1.742 c 2.186,-2.026 2.453,-4.41 0.491,-4.397 -1.37,0.009 -7.213,6.15 -6.676,7.018 0.74,1.2 3.177,0.167 6.185,-2.62 m 28.312,-6.529 c 4.451,-2.502 4.81,-3.636 2.181,-6.883 -1.646,-2.032 -2.35,-2.168 -7.895,-1.525 -6.778,0.787 -10.562,3.637 -11.875,8.942 l -0.719,2.908 7.16,-0.6 c 4.656,-0.39 8.555,-1.384 11.148,-2.842 m 19.381,-4.455 c 1.197,-3.12 0.672,-9.418 -0.786,-9.418 -1.725,0 -2.607,2.17 -2.607,6.415 0,4.49 2.107,6.355 3.393,3.003 m -1.62,-15.857 c 0.9,-0.901 -2.05,-4.653 -4.764,-6.056 -5.034,-2.603 -10.232,-2.21 -14.364,1.087 -2.005,1.6 -3.645,3.445 -3.645,4.1 0,0.667 1.873,1.388 4.25,1.635 4.444,0.462 17.849,-0.092 18.523,-0.766 m 49.42,694.689 c 3.894,-4.173 8.083,-11.378 7.142,-12.285 -0.46,-0.443 -6.685,-2.916 -13.835,-5.495 -7.15,-2.579 -14.215,-5.316 -15.7,-6.08 -5.136,-2.644 -7.236,-1.84 -13.468,5.16 -3.207,3.602 -5.973,6.951 -6.146,7.441 -0.421,1.198 3.357,3.064 16.913,8.35 14.954,5.833 13.82,5.49 18.464,5.58 3.203,0.062 4.606,-0.503 6.63,-2.671 M 710,1178.605 c 0,-4.212 -3.008,-15.588 -4.891,-18.495 -2.342,-3.617 -58.444,-5.006 -59.797,-1.48 -0.277,0.72 0.58,4.811 1.904,9.09 2.226,7.193 2.705,7.922 6.346,9.663 5.93,2.835 20.313,6.444 30.696,7.703 5.083,0.616 11.042,1.475 13.242,1.908 6.409,1.261 12.5,0.201 12.5,-8.389 m -313.666,-7.422 c 1.78,-1.967 1.666,-2.073 -7.012,-6.586 -4.852,-2.522 -10.135,-4.589 -11.739,-4.592 -4.63,-0.01 -22.583,5.146 -22.583,6.484 0,2.573 11.572,15.008 15.013,16.133 3.19,1.044 4.172,0.752 13.972,-4.159 5.797,-2.904 11.354,-6.18 12.35,-7.28 m -128.757,-5.427 c -1.956,-6.454 -5.532,-12.51 -8.601,-18.54 -13.077,-4.51 -18.216,-6.121 -29.045,-9.22 l -13.57,-3.883 -14.224,2.928 c -24.92,5.128 -34.348,8.023 -48.637,14.934 -14.838,7.176 -25.024,14.967 -21.232,16.238 7.468,2.505 88.501,-9.97 94.354,-5.112 1.245,1.033 1.412,2.577 0.868,7.999 -0.605,6.029 -0.486,6.756 1.168,7.089 1.68,0.338 37.634,-11.148 38.92,-12.433 m 422.954,-75.506 c 11.456,-8.21 42.903,-33.709 49.853,-40.424 5.83,-5.633 5.88,-5.729 5.42,-10.505 -0.257,-2.652 -2.342,-9.097 -4.635,-14.323 -5.264,-11.998 -5.308,-13.633 -0.419,-15.639 2.063,-0.846 6.675,-3.014 10.25,-4.818 3.575,-1.804 11.9,-5.405 18.5,-8.003 13.881,-5.464 16.5,-7.422 16.5,-12.336 0,-6.803 -9.385,-31.221 -15.127,-39.356 -2.57,-3.641 -2.412,-7.243 0.377,-8.615 1.238,-0.609 11.7,-4.243 23.25,-8.075 30.76,-10.206 64.007,-23.743 87,-35.422 29.003,-14.732 44.338,-24.797 56.9,-37.344 l 5.896,-5.89 -4.6,-0.54 c -3.13,-0.369 -5.252,-1.295 -6.647,-2.904 -2.76,-3.183 -2.58,-3.619 0.497,-1.199 4.885,3.843 14.065,0.664 17.694,-6.128 2.21,-4.135 2.26,-4.92 2.224,-35.229 -0.03,-24.89 -0.37,-32.726 -1.729,-39.757 -3.312,-17.142 -14.087,-41.042 -20.446,-45.353 -4.252,-2.882 -12.982,-2.308 -22.805,1.5 -18.226,7.064 -59.174,29.274 -81.984,44.469 -24.943,16.615 -43.56,31.898 -68.36,56.117 -29.721,29.026 -60.395,66.156 -61.798,74.806 -1.065,6.558 6.736,23.873 15.64,34.718 2.032,2.475 4.916,6.44 6.408,8.812 l 2.714,4.312 -19.817,20.188 C 678.34,986.69 669,997.284 669,999.935 c 0,1.036 2.756,4.512 6.124,7.724 11.776,11.233 26.876,30.496 26.876,34.291 0,1.537 -6.113,8.334 -20.12,22.369 l -20.12,20.16 4.826,4.246 c 4.416,3.886 10.653,7 14.417,7.197 0.827,0.043 5.115,-2.508 9.528,-5.671 M 789,888.067 c 0,-3.44 31.768,-23.161 37.105,-23.034 1.942,0.047 -2.55,3.647 -8.095,6.487 -2.48,1.27 -9.646,5.723 -15.924,9.895 C 790.72,888.967 789,889.842 789,888.067 m -28,-6.93 c 0,-0.805 4.92,-5.574 13.044,-12.644 12.856,-11.188 52.122,-37.14 64.428,-42.584 2.534,-1.12 5.597,-1.896 6.806,-1.723 1.848,0.264 1.402,0.81 -2.79,3.417 -37.441,23.287 -44.963,28.305 -61.988,41.359 -15.54,11.914 -19.5,14.387 -19.5,12.175 m 162.556,-46.692 c -1.737,-2.651 -5.872,-17.615 -6.893,-24.945 -0.306,-2.2 -1.215,-8.275 -2.02,-13.5 -2.081,-13.515 -2.593,-20.463 -1.622,-22.033 0.624,-1.01 0.962,-0.73 1.307,1.085 2.439,12.837 5.01,27.83 6.765,39.448 1.163,7.7 2.723,15.782 3.467,17.96 1.639,4.804 1.292,5.49 -1.004,1.985 m -11.177,-81.07 c -1.215,-4.84 0.367,-19.584 2.698,-25.149 1.215,-2.9 2.337,-5.146 2.492,-4.99 0.156,0.156 -0.343,3.204 -1.108,6.774 -0.765,3.57 -1.407,10.878 -1.426,16.24 -0.034,9.47 -1.249,12.73 -2.656,7.125 m 154.588,-72.625 c 2.333,-7.722 2.354,-15.625 0.075,-27.61 -2.3,-12.098 -4.263,-16.26 -11.151,-23.64 -2.053,-2.2 -5.456,-6.297 -7.562,-9.105 -2.106,-2.807 -7.183,-8.795 -11.283,-13.305 -8.728,-9.602 -14.833,-17.694 -21.192,-28.09 -18.251,-29.843 -22.694,-36.102 -38.22,-53.851 -10.698,-12.23 -18.624,-19.187 -25.41,-22.303 -5.058,-2.321 -16.412,-2.617 -33.724,-0.878 -16.019,1.61 -15.493,1.072 -8.66,8.853 3.227,3.674 8.407,10.05 11.513,14.172 6.765,8.977 7.28,12.115 2.397,14.63 -8.69,4.475 -16.472,12.234 -19.731,19.672 a 546,546 0 0 1 -3.349,7.51 c -1.542,3.331 3.248,26.85 5.368,26.35 11.13,-2.62 14.587,-2.971 19.79,-2.01 11.22,2.075 27.468,11.854 61.384,36.949 6.992,5.173 16.576,12.106 21.297,15.406 11.802,8.25 25.704,19.65 27.73,22.741 1.823,2.783 17.36,14.813 22.246,17.225 5.273,2.603 7.047,2.035 8.482,-2.716 M 521.217,222.705 c 1.495,-0.663 8.695,-7.08 16,-14.262 18.174,-17.866 18.386,-17.98 32.97,-17.793 9.096,0.117 13.087,0.632 18,2.32 7.301,2.51 13.498,5.92 16.22,8.926 1.046,1.157 2.283,2.104 2.748,2.104 0.465,0 0.852,-6.187 0.86,-13.75 0.016,-14.76 1.22,-21.947 5.626,-33.567 2.943,-7.76 9.571,-20.207 12.346,-23.183 4.588,-4.92 2.85,-13.898 -5.027,-25.964 -4.627,-7.088 -6.205,-9.773 -11.7,-19.906 -2.976,-5.488 -2.897,-11.32 0.24,-17.822 1.375,-2.85 2.5,-5.783 2.5,-6.517 0,-0.734 1.35,-4.312 3,-7.951 1.65,-3.64 3,-7.08 3,-7.646 0,-0.567 3.6,-8.189 8,-16.938 6.497,-12.918 8,-16.763 8,-20.457 V 5.75 l -3.25,0.619 c -3.734,0.71 -27.35,12.054 -36.25,17.412 -11.018,6.632 -20.24,14.155 -22.097,18.024 -2.058,4.288 -2.488,20.843 -1.046,40.195 l 0.858,11.5 -4.687,6 c -2.578,3.3 -5.889,7.159 -7.358,8.576 -1.468,1.416 -3.345,3.45 -4.17,4.52 -6.111,7.924 -22.33,26.534 -29.982,34.404 -15.269,15.703 -17.111,18.342 -20.947,30 -2.102,6.389 -3.388,13.624 -4.532,25.5 -1.32,13.705 -1.714,17.111 -2.221,19.25 -0.529,2.225 -0.42,2.25 9.824,2.205 5.806,-0.025 11.552,-0.575 13.076,-1.25"
         id="path39" /><path
         fill="url(#n)"
         d="m 492.919,946.906 c 7.469,-1.153 17.962,26.874 17.472,47.314 -0.203,8.518 -2.553,17.877 -4.42,20.625 -2.01,2.957 -1.463,1.961 -4.86,-0.335 -5.039,-3.405 -6.666,-9.314 -9.743,-29.563 -2.766,-18.2 -2.703,-25.25 -1.404,-31.235 0.887,-4.091 0.867,-6.484 2.955,-6.806"
         id="path40"
         style="fill:url(#n)" /><path
         d="m 493.334,946.166 c 0.956,-0.13 2.092,0.218 3.426,1.133 10.307,7.067 17.853,51.533 10.965,66.674 -2.237,4.917 -6.416,3.305 -10.73,-4.142 -3.815,-6.584 -13.829,-62.275 -3.66,-63.665 m 0.965,3.15 c -4.991,0.557 1.04,49.672 4.82,57.842 2.162,4.668 4.436,6.397 5.676,4.313 7.2,-12.097 -2.23,-57.424 -9.832,-61.977 q -0.36,-0.214 -0.664,-0.178"
         id="path41" /><g
         id="g45"
         transform="matrix(1.1359723,0,0,1.1359723,-63.168726,-67.214887)"><path
           id="path44"
           style="fill:#f3f3f3;fill-opacity:1;stroke-width:2.12645"
           d="m 436.7692,354.60067 c -3.47056,0.0836 -6.88796,2.72692 -9.04986,8.96683 -0.7492,3.07708 -0.88716,3.09197 -4.5561,0.39871 -7.00828,-5.14455 -16.96976,-3.60254 -15.96086,8.9668 l 0.34886,4.34014 -3.4887,-0.35718 c -7.23256,-0.74084 -11.88115,2.03148 -12.49291,7.45919 -0.35903,3.18503 0.59287,5.74183 3.67559,9.85977 1.5356,2.05129 1.56981,2.24579 0.43195,2.60408 -4.03488,1.27051 -7.92242,4.26864 -9.51922,7.33875 -2.21604,4.26069 1.05243,9.93885 7.25986,12.60921 3.10779,1.33694 3.32922,1.57993 2.56253,2.80758 -2.42174,2.94994 -4.34805,6.11823 -4.59346,10.20866 0,5.11531 5.74417,8.6987 12.65074,7.88697 l 3.80435,-0.44856 -0.47347,2.79097 c -0.73078,4.32545 0.16012,8.45959 2.32166,10.77349 3.46699,3.71145 7.8898,3.6256 13.67243,-0.26581 l 3.45964,-2.32997 0.6562,1.71945 c 2.36919,7.22905 8.62609,12.07098 14.77719,8.04065 1.94671,-1.27553 5.60687,-6.88344 5.60687,-8.58887 0,-1.60437 -0.0279,-1.61128 4.04525,1.12967 5.82438,3.91953 10.2386,4.01526 13.71395,0.29488 2.1615,-2.3139 3.05244,-6.44804 2.32166,-10.77349 l -0.46931,-2.79097 3.71298,0.4361 c 6.13939,0.72157 11.39699,-1.94645 12.50123,-6.34615 0.65659,-2.616 -0.87365,-7.6178 -3.23538,-10.57411 l -2.04337,-2.5584 2.93217,-1.25841 c 5.95796,-2.55387 9.45227,-7.25287 8.4269,-11.33831 -0.67094,-2.67328 -4.21789,-6.16091 -7.85376,-7.72503 -5.0071,-2.42677 -1.50493,-3.48506 0.34889,-7.23492 4.0917,-8.36315 -0.54612,-14.48044 -10.41216,-13.73472 l -4.24876,0.32395 0.41948,-3.57593 c 1.31704,-11.20607 -7.49713,-16.30864 -16.41356,-9.50259 l -3.09416,2.35902 -0.66452,-1.75266 c -2.0694,-6.1442 -6.61865,-10.26626 -11.08082,-10.15879 z M 437.658,383.91 c 5.10695,0.0213 7.13569,0.33366 9.67287,1.48271 4.53203,2.05248 9.14645,6.56113 11.62904,11.36324 1.90843,3.69148 2.12533,4.72953 2.14723,10.24602 0.0221,5.57871 -0.17522,6.55054 -2.18875,10.64056 -2.49903,5.07627 -6.02325,8.52055 -11.40062,11.15144 -6.3702,3.11666 -14.54652,2.88205 -21.24793,-0.61053 -14.1249,-7.3615 -16.61651,-27.22426 -4.80113,-38.27616 5.11174,-4.78144 8.48026,-6.02939 16.18929,-5.99728 z" /><circle
           style="fill:#fbd602;fill-opacity:1;stroke:none;stroke-width:1.64771"
           id="path45"
           cx="437.98251"
           cy="407.00198"
           r="24.577579" /></g></g></g></svg>
