<svg xmlns="http://www.w3.org/2000/svg" width="936" height="936"><path d="M1425.947 1574.78c-1.04-.121-1.633-.044-2.785.02-9.592.517-19.756 5.39-30.234 13.77-9.024 7.219-20.198 18.473-26.471 26.725-6.826 8.98-11.367 18.747-13.447 29.075-6.017 29.869 2.026 54.903 24.748 77.443 5.523 5.48 10.876 10.018 18.998 16.133 1.058.796 2.04 1.517 2.799 2.058.379.271.695.493.972.678.139.093.26.173.428.274.084.05.174.103.355.193.182.09-.115.426 1.8.426.37 0 .967 0 1.816-.426.849-.425 1.778-1.518 2.054-2.467.552-1.897-.039-2.447-.203-2.822-.328-.75-.503-.921-.785-1.328-.563-.814-1.472-2.04-3.137-4.276-11.686-15.69-16.98-28.682-19.923-48.984-.764-5.27-.957-7.904-.948-13.27.014-14.904 3.513-29.84 10.403-44.208 4.09-8.53 8.77-15.361 16.574-24.1 5.364-6.007 10.22-10.34 14.836-13.355 1.703-1.113 2.96-1.998 3.978-2.909.51-.455.972-.889 1.453-1.633s1.228-2.271.51-4.142c-.162-.424-.68-1.416-1.568-2.047-.889-.632-1.701-.764-2.223-.824z" style="opacity:1;fill:#fff;fill-opacity:1;stroke:none;stroke-width:.485941;stroke-linecap:round;stroke-linejoin:round;stroke-opacity:1" transform="translate(-841.101 -1053.871)"/><path d="M1433.904 1591.438c-3.944.37-7.459 2.576-10.219 5.71-4.66 5.295-6.049 12.788-3.105 19.08 2.674 5.718 8.281 9.704 15.19 11.938 2.601.841 5.446 1.12 8.253 1.12s5.321-.119 7.938-1.308c4.228-1.92 7.112-5.164 8.451-9.632.603-2.011.76-4.05.732-6.098-.027-2.048-.139-3.907-1.01-5.99a17.67 17.67 0 0 0-13.05-10.553c.083.016-1.6-.655-1.793-.785-3.584-2.433-7.442-3.854-11.387-3.485zm-273.556-17.956c-4.124-.102-8.204 1.24-11.707 3.561-3.702 2.452-6.305 5.822-8.309 9.518-2.004 3.695-3.41 7.698-3.41 12.15 0 9.367 6.504 17.094 15.234 20.414 3.177 1.208 5.491 1.135 8.479 1.049 6.223-.178 12.191-2.92 16.918-7.461 1.981-1.904 3.703-3.767 4.949-6.277s1.634-5.325 1.621-7.743c-.026-4.91-2.316-9.724-6.406-15.136-4.41-5.837-10.496-9.904-17.37-10.075" style="opacity:1;fill:#fff;fill-opacity:1;stroke:none;stroke-width:.971882;stroke-linecap:round;stroke-linejoin:round;stroke-opacity:1" transform="translate(-841.101 -1053.871)"/><path d="M1271.227 1018.664c-2.042-.245-4.255-.216-6.645.055-13.941 1.581-26.353 9.89-36.416 23.365-9.315 12.476-15.32 28.078-17.633 45.256-.395 2.934-.496 5.656-.496 11.98 0 8.6.314 12.207 1.617 18.676 4.472 22.198 17.851 41.086 37.19 52.416.555.326 1.062.603 1.6.858.268.127.515.245.984.408.234.081.492.186 1.134.29.322.051.735.124 1.518.056.783-.069 2.23-.224 3.758-1.752.489-.489 1.624-2.08 1.773-3.797.15-1.716-.367-2.779-.66-3.353-.585-1.149-.834-1.286-1.127-1.629-.585-.686-1.337-1.49-2.826-3.098-8.742-9.438-15.293-22.06-18.87-36.797-3.787-15.61-3.523-30.8.411-42.953 4.915-15.184 16.432-31.448 28.568-40.515.974-.728 3.661-2.507 5.303-3.48 2.06-1.223 3.487-2.099 4.633-2.905.573-.403 1.07-.76 1.693-1.371.623-.612 2.096-1.352 2.096-4.756 0-2.083-1.162-3.875-2.082-4.732s-1.665-1.187-2.295-1.444c-1.26-.514-2.207-.654-3.228-.777z" style="opacity:1;fill:#fff;fill-opacity:1;stroke:none;stroke-width:.485941;stroke-linecap:round;stroke-linejoin:round;stroke-opacity:1" transform="translate(-967.394 -507.61)"/><path d="M1740.52 1219.324c-.977-.09-2.798-.029-4.38 1.006-1.58 1.035-1.968 2.025-2.074 2.19-1.085 1.695-.908 1.817-1.3 2.834a91 91 0 0 0-1.26 3.49c-2.503 7.38-4.49 11.086-10.363 19.228-2.324 3.221-3.48 4.795-4.293 6.106-.407.655-1.009.917-1.229 3.3-.11 1.192.44 3.325 1.504 4.485s1.894 1.384 2.186 1.502c2.432.985 4.217.628 7.62.248 12.706-1.42 25.386-4.772 37.36-9.873 5.523-2.353 12.022-6.308 17.727-10.354 2.852-2.022 5.475-4.056 7.64-5.972s3.841-3.348 5.186-5.953a11 11 0 0 0 .71-1.666c.105-.316.217-.637.307-1.272.045-.317.105-.709.037-1.422-.067-.713-.155-2.011-1.642-3.498-1.903-1.903-2.684-1.521-3.154-1.594-.472-.072-.698-.069-.891-.07-.386 0-.584.02-.79.037-.409.037-.767.087-1.185.15a65 65 0 0 0-2.949.528c-7.923 1.59-28.275.687-38.728-2.05-2.918-.765-4.087-1.198-6.04-1.38z" style="opacity:1;fill:#fb59db;fill-opacity:1;stroke:none;stroke-width:.687225;stroke-linecap:round;stroke-linejoin:round;stroke-opacity:1" transform="translate(-967.394 -507.61)"/><path d="M1702.059 1156.234c-2.32-.01-4.91.783-6.82 2.34s-3.074 3.577-3.866 5.653c-1.126 2.949-1.878 6.142-.715 9.507 1.046 3.025 3.487 4.949 5.965 6.268-.024-.01-.022-.017-.047-.024-1.116-.303-3.095-.262-4.59.662-1.827 1.13-1.9 1.809-2.195 2.324a9.4 9.4 0 0 0-.631 1.338 16 16 0 0 0-.756 2.573c.042-.198-.387 1.347-.934 2.935a157 157 0 0 1-1.972 5.377c-3.366 8.685-9.82 18.338-17.733 26.244-14.166 14.155-24.562 19.013-46.843 21.758l-9.832 1.21a5.708 5.708 0 0 0-2.952 10.054l4.545 3.779c12.198 10.14 29.24 17.724 44.616 19.789 9.71 1.304 21.392-1.107 31.8-5.984 3.278-1.537 5.55-2.677 7.512-4.094 1.963-1.417 3.673-3.525 4.46-5.578-1.026 2.679-1.137 1.407-.194 1.125 6.329-1.897 10.673-6.949 15.637-13.225 4.963-6.276 9.685-13.917 12.796-21.414l2.27-5.467a5.7 5.7 0 0 0 .435-2.199l-.025-13.057c-.029-15.237-1.271-22.736-5.39-31.4-4.68-9.842-11.464-17.19-20.11-19.78-1.426-.427-2.885-.708-4.431-.714m-1.932 26.313c2.317 2.13 4.996 5.522 6.992 9.54 2.85 5.739 4.422 12.5 4.012 16.894-.736 7.878-6.533 17.465-17.113 25.85-7.509 5.949-12.5 8.036-19.487 8.437 9.055-3.68 16.768-8.169 22.567-13.483 8.61-7.89 13.402-18.12 11.23-28.484-.735-3.509-2.487-7.547-4.3-11.516-.908-1.985-1.802-3.804-2.64-5.281a17 17 0 0 0-1.261-1.957m-359.744-253.082c-2.79-.326-4.062.464-6.193 1.332-2.132.867-4.86 2.148-8.688 4.006-17.49 8.487-32.976 20.072-50.191 37.396-5.275 5.309-10.225 10.702-13.829 14.975-1.801 2.136-3.255 3.97-4.326 5.513-.535.773-.971 1.434-1.383 2.3-.205.432-.432.887-.591 1.779-.16.892-.367 2.942 1.453 4.761 1.875 1.876 2.738 1.668 3.85 1.951 1.11.284 2.36.507 3.927.735 3.133.456 7.492.905 13.426 1.41 16.707 1.421 17.7 1.53 23.324 3.025 3.79 1.008 13.628 4.68 22.166 8.21 4.27 1.764 8.294 3.513 11.242 4.892 1.474.69 2.688 1.292 3.452 1.71.381.21.656.381.72.425.227.258.282.46.666.76.933.726 3.191 1.58 5.188.867s2.724-2.03 3.12-2.813c.398-.782.543-1.36.67-1.928.514-2.271.555-4.677.55-8.365-.015-9.87-.96-19.198-2.955-29.287-1.21-6.116-1.393-8.888-1.354-20.642v-.002c.025-7.617.402-16.983.705-19.682.202-1.794.34-3.52.406-4.953.033-.717.05-1.353.037-1.957-.012-.605.32-.634-.423-2.573-.602-1.566-3.099-3.627-4.97-3.845" style="fill:#f0b983;fill-opacity:1;stroke-width:1.37445;stroke-linecap:round;stroke-linejoin:round" transform="translate(-967.394 -507.61)"/><path d="M1503.316 960.627a4.97 4.97 0 0 0-3.545 2.498l-15.744 28.445c-25.67 46.38-36.129 75.632-44.76 125.242-4.912 28.239-6.156 44.687-4.208 58.21-.268-.36-.55-.537-.791-.932-2.106-3.431-3.547-7.854-3.547-9.924 0-2.3-.35-4.551-.946-6.629s-1.18-3.932-3.074-5.828c.52.52-.516-.722-1.435-2.291-.92-1.569-2.102-3.729-3.436-6.27-2.668-5.08-5.957-11.703-9.24-18.564-6.567-13.722-13.247-28.92-14.72-33.662-1.415-4.55-2.888-16.543-3.007-27.592-.059-5.492-.267-9.938-.662-13.463s-.668-5.96-2.24-8.564c-.786-1.302-2.528-3.107-5.07-3.268s-4.218 1.17-5.229 2.201c-2.02 2.065-3.073 4.408-4.478 7.772-2.872 6.873-3.305 14.225-2.58 32.894.518 13.365 1.339 20.821 3.328 28.606a4.97 4.97 0 0 0-8.12 1.613l-4.193 14.543c-5.276 18.292-13.937 32.362-28.178 45.727-16.313 15.309-25.949 18.918-50.67 18.918-21.682 0-30.688-2.771-50.459-15.55l-11.769-7.607a4.97 4.97 0 0 0-6.924 1.56l-3.916 6.335c-1.839 2.976-2.556 3.944-4.732 5.396-2.177 1.453-6.169 3.291-13.524 6.356-4.735 1.973-10.307 4.964-13.732 7.57l-4.86 3.697a4.97 4.97 0 0 0-.57 7.403l8.746 9.08c14.183 14.724 42.432 37.756 62.074 50.685 44.042 28.992 91.178 46.371 137.729 50.627 46.942 4.292 93.573-4.37 155.086-28.494 17.045-6.685 31.23-12.77 41.902-17.949 10.672-5.178 17.526-8.847 21.44-13.172.804-.889 1.657-1.562 2.398-3.525.37-.982.604-2.552.115-4.03-.488-1.477-1.487-2.484-2.296-3.074-1.619-1.18-2.89-1.474-4.565-1.941-1.674-.468-3.717-.935-6.361-1.524-13.73-3.056-25.63-7.411-33.006-11.486-3.688-2.037-6.22-4.104-7.108-5.228-.15-.19-.067-.054-.126-.16.727-1.01 1.477-2.348 1.185-4.47-.37-2.686-2.37-4.196-3.727-4.92-2.711-1.446-5.614-1.997-10.705-3.077-34.98-7.424-61.034-33.47-67.699-67.479-3.01-15.36-1.198-43.674 3.686-58.152 4.29-12.715 11.632-26.008 19.879-36.862 8.246-10.854 17.565-19.223 24.664-22.363 3.374-1.493 14.224-4.202 22.117-5.182 4.231-.525 8.152-1.081 11.123-1.566a86 86 0 0 0 3.71-.672 19 19 0 0 0 1.362-.326c.223-.064.447-.13.774-.26.326-.13.673-.03 1.828-1.185 1.095-1.096 1.451-2.59 1.465-3.465.013-.875-.151-1.36-.272-1.715-.242-.712-.43-.96-.578-1.193-.296-.467-.495-.699-.723-.971a36 36 0 0 0-1.662-1.82c-1.357-1.413-3.273-3.31-5.662-5.62-4.778-4.617-11.419-10.842-18.814-17.607l-26.793-24.508a4.97 4.97 0 0 0-4.157-1.238zm-96.248 270.639c3.338-.081 7.14 1.593 12.541 6.687 2.2 2.075 3.565 3.762 4.207 4.885s.611 1.48.567 1.793c-.071.499-.056.37-.112.506-.776-.119-3.394-.881-7.166-3.377l-7.77-5.14a4.97 4.97 0 0 0-5.534.032l-7.395 5.024c-2.521 1.713-5.529 2.846-8.07 3.5.656-.902 1.176-1.724 2.031-2.715 2.95-3.42 6.917-7.015 9.766-8.776 2.75-1.699 4.934-2.373 6.935-2.422z" style="fill:#f0b983;fill-opacity:1;stroke-width:3.88753;stroke-linecap:round;stroke-linejoin:round" transform="translate(-967.394 -507.61)"/><path d="M1556.596 645.908c-1.18.053-3.137.564-4.602 2.028-2.144 2.143-1.863 3.225-1.965 3.855-.101.63-.096.95-.096 1.22 0 .544.034.837.066 1.141.066.61.156 1.161.27 1.805.228 1.287.557 2.858.955 4.563 2.034 8.708 3.068 25.03 2.139 35.718-1.37 15.75-6.384 33.898-12.73 48.56-6.347 14.664-15.172 25.663-18.62 27.3-2.558 1.214-2.26.975-2.363.943s-2.08-1.189-5.592-4.566c-29.705-28.564-53.047-47.018-72.635-56.79-12.332-6.152-20.367-8.116-32.758-7.976-13.511.152-26.219 3.328-53.257 12.889-36.765 13-54.437 17.692-75.114 20.093-15.114 1.756-38.004 1.01-45.554-.847-10.866-2.672-24.164-10.347-30.584-17.313-1.283-1.391-2.425-2.529-3.569-3.484-.572-.478-.974-.888-2.244-1.52-.635-.316-1.36-1.099-4.2-.74-1.418.18-3.567 1.165-4.769 2.791a6.92 6.92 0 0 0-1.379 4.203c0 2.935.365 2.43.579 3.088s.467 1.358.77 2.152a128 128 0 0 0 2.274 5.532c10.214 23.382 29.19 40.976 52.692 50.263-6.742-.694-16.005-1.19-21.928-1.127-46.712.496-91.353 30.266-125.974 81.91-4.048 6.038-8.96 14.065-12.85 20.782-1.945 3.359-3.623 6.369-4.836 8.71-.606 1.172-1.09 2.148-1.494 3.102-.202.477-.386.908-.59 1.668-.102.38-.235.817-.273 1.739-.038.921-.368 2.973 2.14 5.394 2.167 2.091 4.101 1.972 5.018 1.95.917-.024 1.34-.154 1.68-.245.677-.182.936-.314 1.189-.426.505-.223.815-.394 1.178-.593a60 60 0 0 0 2.51-1.487 243 243 0 0 0 7.251-4.699c12.378-8.3 18.738-10.635 50.694-18.676 12.044-3.03 19.85-4.745 25.941-5.898-21.508 6.19-36.279 15.473-53.412 33.492-11.05 11.62-17.457 20.794-23.707 34.01-13.593 28.74-15.117 54.748-3.744 78.543 3.082 6.449 6.702 11.03 15.89 20.345 5.346 5.42 7.675 7.971 10.3 9.924.655.489 1.23 1.078 3.132 1.59.95.256 2.462.487 4.262-.123s3.368-2.183 4.033-3.426c1.33-2.485.92-3.513.879-4.273s-.125-1.253-.2-1.729c-2.472-15.82-1.844-20.046 5.135-34.584 3.677-7.658 6.836-12.93 9.207-15.808.968-1.174 1.543-1.635 2.053-2.037.524 1.894 1.229 5.354 1.912 11.334 2.472 21.61 4.282 28.156 19.368 68.515 6.113 16.357 9.539 25.983 11.267 32.346s1.87 9.147 1.604 13.8c-.52 9.109-2.359 11.923-10.436 16.013-7.81 3.955-12.09 4.865-26.803 5.501l-14.447.625c-5.718.248-8.691 6.924-5.05 11.34l4.41 5.346c10.271 12.452 28.289 23.392 44.853 27.629 5.103 1.305 8.794 2.107 12.566 2.002s7.615-1.751 10.137-3.873c5.513-4.64 8.736-11.514 11.315-18.43 1.289-3.458 2.263-6.838 2.707-10.076.221-1.619.332-3.2.125-4.965s-.665-3.992-2.766-6.094c1.093 1.093.711.923.547.59a26 26 0 0 1-.766-1.783c-.634-1.611-1.429-3.893-2.222-6.406-1.588-5.027-3.206-11.09-3.963-15.112-1.77-9.392-1.28-20.647 2.097-37.478 5.69-28.355 13.043-43.275 30.424-62.035 5.186-5.598 10.773-11.974 13.303-15.364l9.41-12.603c19.258-25.793 55.553-53.66 77.674-60.799 2.487-.802 5.934-1.346 8.639-1.424 1.352-.039 2.536.04 3.193.147s.753.538-.5-.502c1.18.98 2.53 1.82 4.516 2.205 1.985.384 5.284-.015 7.45-2.356 1.34-1.445 1.066-1.449 1.274-1.83.208-.38.398-.757.611-1.193.347-.707.781-1.653 1.231-2.639-.884 2.983-1.864 5.745-2.672 8.909-9.248 36.205-11.628 69.221-6.34 95.544 1.107 5.511 3.708 14.512 6.246 22.56 1.27 4.023 2.508 7.736 3.55 10.571.52 1.418.977 2.593 1.45 3.637.237.522.449.989.866 1.66.208.336.433.72 1.044 1.36.612.639 1.68 2.285 5.268 2.216 3.726-.072 4.663-1.838 5.215-2.486s.73-1.007.894-1.309c.33-.602.462-.954.61-1.334.295-.758-1.605-2.292-1.327-3.204a120 120 0 0 0 1.85-6.744c1.054-4.37 6.086-12.995 8.336-19.098 1.48-4.015 3.116-9.38 4.643-14.801l.297 17.22c.59 34.264 1.57 41.091 8.814 63.42 4.266 13.15 15.097 29.14 19.777 39.504l2.414 5.346c2.89 6.39 9.642 10.374 10.49 3.412l.532-4.373c7.087-58.216 16.043-90.886 30.86-115.416 7.952-13.166 30.208-53.194 37.498-60.77l3.832-3.983c.27-.42.494-.868.668-1.336 1.688 1.025 6.508 7.383 8.568 8.76 14.585 9.748 25.775 18.748 44.219 35.612 18.026 16.484 24.78 21.863 32.806 25.412 12.493 5.525 30.05 20.623 38.64 33.567 9.093 13.7 16.435 31.21 19.782 47.156 3.641 17.348 1.815 40.162-2.922 50.322-2.804 6.016-8.819 15.44-15.07 23.815-6.252 8.374-13.238 16.078-16.238 18.344-8.967 6.77-22.215 13.129-31.91 15.455-1.62.388-3.12.829-4.448 1.312-.664.242-1.273.482-1.967.828-.693.347-1.398-.252-3.386 2.965-1.205 1.951-1.1 5.087-.41 6.596.689 1.51 1.387 2.06 1.86 2.467.948.814 1.4.974 1.829 1.183.858.42 1.501.64 2.275.903 1.55.523 3.442 1.06 5.592 1.617 4.3 1.114 9.472 2.26 13.639 2.9 9.198 1.412 25.844 1.126 34.701-1.027 22.296-5.42 40.37-21.988 51.934-46.338 3.383-7.125 4.25-10.844 4.851-22.172.36-6.79.99-10.224 1.418-11.178.429-.953.457-1.034 3.65-2.666 6.09-3.111 17.123-.808 23.522 6.461.982 1.116 4.452 6.413 7.023 11.11 1.286 2.348 2.45 4.647 3.229 6.37.39.862.683 1.588.826 1.999.143.41 0 .828 0-.674 0 .663.01 1.372.27 2.445s.769 2.93 3.035 4.488c2.266 1.56 5.465 1.318 6.928.727 1.462-.591 2.103-1.208 2.67-1.729 2.267-2.082 3.377-4.024 5.535-7.392 7.257-11.33 16.783-30.98 19.627-41.541 3.21-11.924 3.314-30.026.529-42.867-5.21-24.02-17.144-48.69-32.113-66.004-3.542-4.096-14.918-15.989-26.221-27.53-13.223-13.5-20.397-20.933-23.916-25.062-1.709-2.005-2.433-3.14-2.64-3.535.147-.06.567-.326 2.081-.149 3.492.408 12.838 4.274 23.516 10.957s23.212 16.006 35.734 26.82c2.927 2.528 5.74 4.788 8.06 6.493 1.16.853 2.179 1.56 3.177 2.164.498.302.973.577 1.652.877s1.066 1.188 4.435.633c3.743-.617 5.716-3.602 6.504-5.447.789-1.846 1.086-3.5 1.358-5.487.544-3.972.742-9.215.787-16.629.3-49.221-14.72-88.193-46.596-120.039-23.82-23.796-52.464-39.418-91.558-50.277-8.136-2.26-12.205-3.475-14.489-4.305.324-.083.206-.062.537-.136 2.32-.523 5.258-1.102 8.133-1.586 17.577-2.961 29.342-8.498 38.912-18.881 8.004-8.684 13.836-22.596 16.116-36.27v-.002l.722-4.338c1.08-6.496-6.654-10.698-11.517-6.258l-5.403 4.938c-9.456 8.643-25.842 17.867-42.607 24.424s-34.218 10.45-44.791 9.916c-3.495-.177-5.599-.761-6.428-1.182-.145-.074-.15-.095-.244-.142.178-.302.065-.164.43-.67 1.886-2.619 6.201-7.614 13.789-16.035 16.057-17.823 21.789-29.875 21.789-46.756 0-11.13-2.584-19.868-9.606-33.28-6.783-12.956-14.945-24.038-26.697-36.373a369 369 0 0 0-7.008-7.181 88 88 0 0 0-2.347-2.262 17 17 0 0 0-.989-.855c-.2-.159-.382-.325-.947-.66-.283-.168-.605-.402-1.58-.698-.488-.148-1.16-.348-2.34-.295zm-160.848 214.627-.426.543c.183-.409.377-.456.426-.543" style="fill:#fb59db;stroke-width:1.94376;stroke-linecap:round;stroke-linejoin:round" transform="translate(-967.394 -507.61)"/><path d="m1540.883 625.485-.01.002c-1.965-.096-3.348.919-4.723 3.017-1.986 3.031-1.868 3.732 1.976 11.955 6.088 13.02 8.217 22.434 9.041 39.963 2.387 50.755-25.27 88.862-30.648 88.862-1.069 0-4.206-3.45-6.973-7.666-13.303-20.274-48.723-49.219-72.177-58.983-52.65-21.918-102.365 29.374-177.836 29.291-23.958-.026-37.492-4.758-51.98-18.172-13.066-12.096-18.896-27.043-14.137-36.246 1.966-3.802 1.974-4.224.09-4.224-3.917 0-8.33 6.069-9.793 13.47-6.373 32.217.04 53.862 22.576 76.198l11.77 11.666h-8.383c-57.269 0-125.942 75.055-138.178 127.341-1.544 6.595-4.268 15.694-6.053 20.22-3.598 9.119-4.177 20.636-1.422 28.25l1.621 4.478 2.448-10.479c1.346-5.763 3.508-12.578 4.806-15.144 5.869-11.605 22.56-25.866 38.84-33.19 15.638-7.034 15.992-6.703 5.027 4.693-23.75 24.685-37.499 55.228-37.732 83.83-.291 35.64 19.571 61.67 45.855 68.65 3.288.874 7.178 2.66 8.645 3.97 3.324 2.968 7.842 5.33 13.05 6.824l4.012 1.15-3.095-3.297c-2.172-2.312-2.531-3.307-1.2-3.332 1.045-.02.288-1.034-1.681-2.256-5.752-3.568-8.42-11.278-8.42-24.332 0-9.52.57-12.574 3.494-18.71 3.162-6.638 3.565-7.018 4.238-4 .41 1.833 1.95 8.81 3.426 15.503 1.476 6.694 7.85 25.467 14.162 41.717 13.305 34.248 16.3 44.805 14.496 51.092-2.335 8.142-14.257 13.021-31.816 13.021-16.258 0-28.652-4.153-38.336-12.843-5.733-5.145-6.032-5.216-10.033-2.414-4.482 3.14-3.635 7.107 2.812 13.164 3.178 2.984 11.275 11.853 17.994 19.707 14.467 16.658 30.701 32.531 52.688 38.472l6.076 1.532-3.836 3.226c-4.923 4.143-6.096 9.491-3.465 15.79 6.06 14.503 56.686 56.623 94.282 78.44 33.154 19.24 74.33 33.162 112.613 38.075 62.711 8.045 124.978-10.56 149.41-19.172 30.129-10.263 58.52-25.35 80.797-48.184l6.17 6.6c30.557 32.68 83.511 15.296 91.54 9.84 4.436-3.014 5.756-3.24 15.257-2.588 17.835 1.223 42.482-5.122 59.754-15.383 30.412-18.067 42.778-51.38 15.341-41.328-15.938 5.84-52.388 2.703-52.388-4.508 0-1.556 4.717-10.688 10.482-20.295 44.751-70.823 27.657-124.1-30.232-183.793-8.092-7.879-13.644-13.752-12.336-13.052 4.412 2.361 24.535 17.692 30.668 23.365 16.983 15.71 24.81 18.744 31.386 12.168 5.074-5.074 6.507-12.888 6.497-35.486-.01-23.414-2.343-39.278-8.465-57.553-14.96-44.654-43.96-76.788-89.438-99.108-8.138-3.994-18.945-8.598-24.013-10.23s-9.212-3.3-9.202-3.705 3.574-2.395 7.926-4.42c14.541-6.765 25.682-20.824 31.182-39.35 1.148-3.867 3.071-14.066 4.275-22.666s3.008-18.512 4.008-22.027c2.09-7.342.915-12.2-3.215-13.28-4.029-1.053-7.97 2.471-8.994 8.044-1.748 9.508-15.028 24.436-30.598 34.396-17.31 11.073-43.93 21.458-61.322 23.922l-6.61.936 8.206-8.48c31.659-32.727 31.363-66.156-.965-109.058-8.913-11.828-32.123-34.593-41.023-40.238-3.7-2.346-6.245-3.553-8.21-3.648m15.322 26.453c1.728-.044 11.978 10.213 20.736 21.033 10.01 12.365 18.211 26.42 22.332 38.27 2.652 7.627 3.138 11.155 2.662 19.369-.873 15.09-6.243 24.94-23.377 42.88-7.525 7.88-13.683 15.443-13.683 16.805 0 21.264 75.799.854 107.103-28.84l5.104-4.84-.95 5.335c-5.69 31.967-21.15 47.17-51.576 50.722-13.406 1.566-17.593 4.824-13.746 10.696 1.41 2.15 4.252 3.504 9.696 4.617 12.941 2.644 41.728 12.61 53.703 18.592 59.438 29.685 90.64 79.773 90.662 145.539.01 18.375-.851 25.183-3.162 25.136-.825-.017-6.258-4.293-12.073-9.502-23.678-21.21-53.612-39.755-64.22-39.789-5.576-.017-9.153 4.005-7.944 8.934.596 2.425 10.306 13.005 27.887 30.387 17.41 17.211 29.469 30.34 34.008 37.023 31.23 49.245 33.529 81.955 6.191 130.145-5.852 10.146-8.683 13.121-8.683 9.129 0-3.568-9.132-20.558-13.28-24.706-8.532-8.533-20.479-11.677-29.71-7.82-7.901 3.301-10.502 8.852-10.104 21.563.326 10.415.183 10.955-6.045 22.916-12.968 24.907-31.205 37.846-56.344 39.974-10.174.861-26.855-1.082-38.191-4.449l-6.992-2.076 9.545-2.426c13.474-3.423 28.644-11.314 37.972-19.756 8.18-7.402 25.547-31.988 30.338-42.95 3.701-8.465 5.901-25.3 4.856-37.167-4.093-46.46-31.502-88.038-67.377-102.207-3.969-1.567-11.418-7.448-22-17.37-21.917-20.545-34.898-31.208-51.127-41.991-14.148-9.401-18.113-11.03-16.635-6.832 1.739 4.935 7.701 11.377 22.781 24.61 17.554 15.406 36.553 33.263 35.989 33.827-.205.205-7.617.943-16.471 1.64-24.165 1.906-35.367 8.03-51.44 28.118-19.27 24.086-28.91 53.686-27.396 84.139 1.995 40.166 25.678 71.563 62.965 83.474 5.866 1.874 13.74 3.737 17.498 4.137 6.676.711 6.775.783 4.334 3.224-3.14 3.14-3.124 4.01.166 8.192 4.294 5.459 29.73 14.883 47.668 17.662 8.647 1.34 7.556 4.53-4 11.691-10.548 6.537-36.962 18.24-65.446 28.891-55.213 20.645-171.977 62.756-310.898-48.812-17.874-14.355-38.003-33.706-38.002-36.536 0-3.065 15.327-13.115 21.506-14.103 7.802-1.248 13.39-5.585 17.168-13.324l3.338-6.84 5.994 5.234c8.454 7.382 30.601 18.082 42.662 20.611 46.676 9.79 89.9-22.093 101.207-74.656l2.268-10.535 9.2 15.463c5.061 8.505 9.379 15.286 9.596 15.068s-1.919-6.088-4.75-13.045c-7.673-18.858-10.003-30.781-9.99-51.129.014-23.026 3.217-34 9.92-34 3.208 0 4.297 4.148 3.197 12.14-2.91 21.165 3.057 46.959 15.418 66.642 2.954 4.703 7.477 13.002 10.053 18.441 2.576 5.44 5.854 11.532 7.283 13.54 1.521 2.135 2.598 5.833 2.598 8.911 0 9.734 5.126 19.248 12.531 23.26 2.328 1.261 2.449 1.013 1.524-3.113-.554-2.467-1.153-5.387-1.332-6.487s-.771-4.19-1.315-6.865c-1.915-9.428 6.1-61.72 14.069-91.781 7.09-26.752 20.518-57.138 39.83-90.139 5.892-10.068 10.52-18.499 10.285-18.734-.797-.797-26.236 32.098-35.717 46.185-12.281 18.247-16.443 26.599-22.568 45.27-7.036 21.448-14.98 62.038-16.256 83.063-.208 3.428-.558 6.244-.783 6.332h-.01c-1.073 0-10.547-22.577-16.307-38.866-10.935-30.92-12.62-40.972-12.598-75.132l.017-29.334 5.647-14.514c3.105-7.983 5.616-14.884 5.58-15.334v-.042h-.01c-.235 0-1.94 3.098-3.96 7.223-4.545 9.287-5.001 8.305-1.392-2.994 3.551-11.116 7.95-21.2 12.532-28.74 2.139-3.52 3.592-6.697 3.23-7.059s-3.327 2.01-6.59 5.274c-10.883 10.883-19.992 32.306-25.004 58.808-1.391 7.358-4.665 18.478-7.275 24.711-2.61 6.234-5.762 16.008-7.004 21.723l-2.258 10.388-3.857-10.388c-10.079-27.149-12.86-47.008-10.418-74.39 4.264-47.825 19.346-91.051 37.69-108.034 4.419-4.092 7.782-7.692 7.474-8s-2.872.077-5.697.857c-14.872 4.106-26.872 19.69-38.678 50.229-2.536 6.558-4.759 10.603-5.324 9.687-4.544-7.351-24.336-2.108-46.43 12.3-23.951 15.617-45.658 36.677-59.588 57.81-3.45 5.233-10.269 13.252-15.152 17.82-9.884 9.246-18.777 22.544-24.725 36.969-8.029 19.47-13.096 47.933-11.457 64.361.905 9.069 6.1 26.54 9.412 31.65 1.722 2.657 1.63 3.9-.846 11.335-3.066 9.209-8.353 17.77-12.267 19.865-6.58 3.521-39.466-4.914-57.95-27.914l-4.165-5.184 13.56.08c22.306.133 38.492-6.597 44.055-18.32 2.978-6.276 2.726-17.439-.64-28.371-1.549-5.028-7.479-21.14-13.178-35.807-11.905-30.633-15.579-44.184-16.811-62-.941-13.608-2.655-17.334-7.973-17.334-4.14 0-9.88 7.295-17.353 22.053-6.927 13.679-8.79 24.9-5.987 36.037.864 3.43 1.28 6.525.926 6.879s-5.696-4.37-11.87-10.496c-8.22-8.155-12.32-13.46-15.304-19.805-8.689-18.477-9.086-37.04-1.28-59.838 6.646-19.413 15.197-32.978 30.337-48.129 16.178-16.188 29.456-24.247 47.184-28.637 6.927-1.715 13.238-3.517 14.025-4.003s1.432-2.662 1.432-4.834c0-7.168-3.958-7.582-24.967-2.616-50.74 11.994-58.51 14.722-74.426 26.141l-9.9 7.103 4.508-8.927c11.07-21.92 65.564-118.882 157.125-105.114 13.099 1.97 24.295.924 32.414-3.025l4.894-2.379-9.824-.795c-28.711-2.32-57.98-22.177-70.187-47.615-2.992-6.233-5.808-13.132-6.26-15.332l-.823-4 2.551 4.08c3.604 5.768 12.951 13.51 21.668 17.943 12.806 6.515 22.608 8.47 42.56 8.49 77.111.077 127.972-48.45 171.333-30.792 11.855 4.827 25.667 13.374 39.668 24.545 11.428 9.118 41.034 35.898 43.408 39.263 3.442 4.88 11.3 2.137 19.324-6.744 9.913-10.972 37.808-65.424 22.74-118.119-.13-.455-.057-.671.19-.678zM1339.7 934.002c2.053.065 1.602 2.6.97 8.276-1.66 14.94-1.305 35.734.72 41.959 1.021 3.142 2.245 12.764 2.72 21.38.815 14.796.343 17.377-2.644 14.409-1.488-1.478-16.819-8.054-31.934-13.696-8.595-3.208-13.904-4.195-27.334-5.082-15.811-1.044-22.666-2.131-22.666-3.597 0-.36 2.955-4.34 6.566-8.844 15.914-19.847 42.26-41.22 61.864-50.188 6.31-2.886 9.753-4.54 11.533-4.615q.107-.005.205-.002m-72.125 90.432q1.305-.034 2.623.037c.684.037 1.267.126 1.725.271 2.095.665 1.253 1.56-4.578 4.874-16.877 9.587-33.135 32.094-37.926 52.501-6.195 26.386 2.961 61.046 21.176 80.166 5.224 5.485 4.55 5.445-3.88-.232-8.387-5.648-32.62-25.6-30.91-66.666 1.515-36.37 24.786-70.258 51.77-70.951m283.635 7.814-.01.01h.01c2.67.166 1.386 1.813-3.85 5.026-7.868 4.827-21.377 19.653-27.875 30.592-11.632 19.58-17.075 43.716-14.521 64.408 2.86 23.185 9.065 38.549 22.61 56 1.481 1.907 2.526 3.49 2.429 3.656h-.01c-.245 0-4.046-2.78-8.446-6.178-29.754-22.977-42.282-46.275-40.154-74.668 1.724-22.996 8.879-36.535 30.04-56.845 13.978-13.417 24.829-19.99 35.78-21.672q2.656-.409 3.996-.328zm-265.108 1.907c2.541-.022 5.473.732 8.52 3.076 1.964 1.511 3.63 3.663 4.996 5.65s2.435 3.81 3.055 5.197c.619 1.388.79 2.34.875 3.57.085 1.233.085 2.744-.48 4.348-.567 1.605-1.699 3.303-3.407 5-4.936 4.905-10.092 6.647-14.756 6.262s-8.835-2.897-11.797-6.5c-1.761-2.143-2.722-4.585-2.914-7.162s.384-5.29 1.238-7.566c.855-2.278 1.987-4.12 3.407-5.87s3.127-3.405 5.091-4.42c1.48-.764 3.631-1.563 6.172-1.585m275.93 15.154c2.721.086 5.368 1.313 7.76 3.441.902.587 1.705.645 2.65.817s2.032.458 3.278 1.031 2.648 1.43 4.066 2.92 2.848 3.608 3.35 6.242c.5 2.634.073 5.785-.944 8.248s-2.622 4.237-4.383 5.297c-1.76 1.06-3.678 1.403-6.127 1.518s-5.425 0-8.775-1.075c-3.35-1.073-7.074-3.107-9.508-5.54-2.434-2.435-3.579-5.27-3.78-8.147s.544-5.798 1.704-7.988 2.736-3.65 4.31-4.782c2.122-1.425 4.282-2.05 6.399-1.982m-349.594 107.974c.134 0 1.54 1.822 3.125 4.047 2.369 3.327 2.583 4.41 1.201 6.075-.924 1.114-2.8 2.623-4.168 3.355-2.235 1.196-2.383.953-1.474-2.406.556-2.055 1.026-5.386 1.043-7.403.017-1.908.133-3.493.258-3.658zm489.428 4.292c4.866-.211 11.53 3.797 15.95 10.289 25.674 37.718-7.238 86.753-19.052 86.753-2.06 0-2.914.608-2.472 1.76 2.745 7.154-45.178 24.93-79.52-5.547l-5.83-5.172 9.295-.95c22.939-2.347 36.468-8.508 51.34-23.38 10.635-10.634 17.39-21.642 21.238-34.605l2.196-7.397 4.261 8.526c14.25 28.213-15.9 45.097-39.431 50.916-4.486.926-7.909 2.086-7.606 2.576 1.107 1.79 16.724 4.27 23.059 3.662 12.681-1.218 54.424-22.776 36.799-59.297-3.433-7.113-11.156-15.092-14.608-15.092-2.757 0-2.557-8.538.266-11.36 1.072-1.073 2.493-1.612 4.115-1.682m38.19 62.941q.329.013.703.16c10.068 3.997 35.1 5.861 45.683 3.402 4.645-1.079 4.826-.997 3.334 1.47-2.514 4.156-16.839 14.46-25.808 18.568-4.528 2.072-12.53 4.96-17.782 6.416-10.182 2.821-25.32 4.976-25.32 3.603 0-.455 2.134-3.624 4.742-7.04 5.673-7.433 9.027-13.804 11.336-21.532 1.096-3.667 1.92-5.077 3.111-5.047m-332.653 2.516c-4.742-.147-9.383 2.497-15.281 7.888-7.336 6.704-10.707 12.018-9.188 14.477 1.668 2.698 7.927.927 15.502-4.387 8.91-6.25 7.397-6.42 19.719 2.193 6.4 4.474 9.741 3.69 10.473-2.455.336-2.823-.815-4.735-5.334-8.869-6.305-5.767-11.149-8.701-15.89-8.847" style="fill:#000;fill-opacity:1" transform="translate(-967.394 -507.61)"/><path d="M871.518 2378.815c6.053 1.846 12.83 4.21 17.182 6.125 4.353 1.914 6.282 3.377 7.533 4.945 1.25 1.568 1.824 3.24 1.845 4.362s-.512 1.692-.758 2.284c-.246.59-.205 1.203-.164 1.835s.082 1.285.348 1.917.758 1.244.799 3.487c.23 12.623-6.073 23.459-19.823 32.2-4.587 2.916-9.175 5.037-13.598 6.138s-8.683 1.183-13.065.877-8.888-1-14.028-3.263-10.915-6.097-15.297-10.319c-4.382-4.221-7.372-8.83-9.01-14.274-1.639-5.445-1.925-11.726-.471-17.049s4.648-9.686 8.437-13.132c15.554-14.15 34.874-10.767 50.07-6.133" style="opacity:1;fill:#645656;fill-opacity:1;stroke:none;stroke-width:2.01856;stroke-linecap:round;stroke-linejoin:round;stroke-opacity:1" transform="translate(-249.06 -1754.129)"/><path d="M383.938 1554.918c1.312 10.23-5.099 21.774-20.883 29.85-5.598 2.865-12.341 4.954-18.183 5.756-5.841.802-10.766.344-15.033-.658s-7.874-2.549-11.31-5.126-6.7-6.185-8.848-10.251-3.179-8.59-2.75-13.2c.43-4.61 2.32-9.307 5.186-13.202 18.3-24.875 68.452-19.42 71.82 6.83" style="fill:#645656;fill-opacity:1;stroke-width:2;stroke-linecap:round;stroke-linejoin:round" transform="translate(-11.37 -923.732)"/></svg>