<?xml version="1.0" encoding="UTF-8" standalone="no"?>
<svg
   xml:space="preserve"
   width="2229.313"
   height="1438.783"
   version="1.1"
   id="svg15"
   sodipodi:docname="puppy-croissant-04.svg"
   inkscape:version="1.4.2 (ebf0e940d0, 2025-05-08)"
   xmlns:inkscape="http://www.inkscape.org/namespaces/inkscape"
   xmlns:sodipodi="http://sodipodi.sourceforge.net/DTD/sodipodi-0.dtd"
   xmlns="http://www.w3.org/2000/svg"
   xmlns:svg="http://www.w3.org/2000/svg"><defs
     id="defs15" /><sodipodi:namedview
     id="namedview15"
     pagecolor="#ffffff"
     bordercolor="#000000"
     borderopacity="0.25"
     inkscape:showpageshadow="2"
     inkscape:pageopacity="0.0"
     inkscape:pagecheckerboard="0"
     inkscape:deskcolor="#d1d1d1"
     inkscape:zoom="0.66740505"
     inkscape:cx="1210.6591"
     inkscape:cy="162.56994"
     inkscape:window-width="1536"
     inkscape:window-height="888"
     inkscape:window-x="0"
     inkscape:window-y="0"
     inkscape:window-maximized="1"
     inkscape:current-layer="svg15" /><path
     fill="#fbce8a"
     fill-rule="evenodd"
     d="M226.946 715.606a8.31 8.31 0 0 1-7.92-3.08l-10.6-13.574c-18.517-23.711-42.058-64.956-71.723-124.914-67.07-135.545-99.66-234.681-108.652-331.894-4.868-52.647 1.195-97.984 17.803-133.69 16.612-35.708 44.1-61.617 80.448-74.18 31.626-10.93 74.48-4.662 168.41 21.077 55.903 15.32 127.94 36.417 186.07 54.13 29.067 8.859 54.646 16.87 73.032 22.904 9.192 3.016 16.572 5.53 21.795 7.454 2.611.964 4.658 1.76 6.305 2.497.826.368 1.518.687 2.398 1.216.438.265.92.54 1.698 1.25.778.712 2.836 1.826 2.83 6.343-.006 4.405-.956 3.918-1.228 4.376-.272.454-.442.68-.608.904a25 25 0 0 1-.969 1.227c-.7.84-1.592 1.876-2.734 3.16a771 771 0 0 1-9.484 10.39 3157 3157 0 0 1-30.889 32.807c-71.56 75.04-122.246 138.095-171.398 213.185-57.735 88.2-90.065 153.4-121.74 245.409l-16.359 47.512a8.31 8.31 0 0 1-6.485 5.49"
     id="path1" /><path
     fill="#fbce8a"
     fill-rule="evenodd"
     d="M673.695 1213.62c-5 .24-14.752-1.437-19.524-3.4-27.052-11.12-55.683-34.948-91.398-58.465-7.102-4.677-25.254-12.173-27.306-13.76-.19-.15-.6-.972-1.088-2.203-5.45 3.89-13.073 7.533-20 7.493-15.578-.084-19.277-5.406-24.783-9.15-5.508-3.742-11.595-8.442-20.37-15.305-66.325-51.86-138.839-119.874-171.948-163.665-40.57-53.661-68.1-128.99-68.203-191.906-.153-93.034 60.373-228.802 151.98-366.375 85.262-128.04 177.652-227.96 260.436-275.224 22.456-12.821 39.823-18.717 64.714-21.966 43.112-5.624 109.485-2.433 160.172 6.64 26.636 4.767 62.425 14.718 84.844 26.466l6.94 3.635a29.737 29.737 0 0 1 8.998 45.423l-15.65 18.698a11830 11830 0 0 1-34.784 41.294c-74.028 87.442-163.116 282.043-209.674 466.8-23.215 92.126-37.448 196.565-37.448 271.359 0 8.225-.08 15.68-.222 21.343a220 220 0 0 1-.27 7.268c-.062 1.054-.109 1.946-.297 3.528-.098.79-.14 1.585-.702 3.902-.282 1.16-.47 2.566-2.188 6.099-.34.702-1.607 2.136-2.163 3.075a29.74 29.74 0 0 1 7.563 15.576l2.942 23.33v.01c.853 6.794 1.513 13.047 1.918 18.107.206 2.53.346 4.69.403 6.992.025 1.15.062 2.24-.069 4.21-.064.987-.119 2.13-.583 4.426-.465 2.29 1.384 5.74-8.198 15.323-2.14 2.14-3.852 3.659-5.237 4.73.73 2.635 1.48 8.328 2.974 14.512 2.606 10.764 6.208 25.375 9.828 36.473 7.19 22.048 9.733 31.062 6.742 36.696l-2.579 4.858-2.72 2.223c-.247.566-1.384.855-3.05.937M2003.808 721.49c-9.058 0-10.16-3.901-11.199-5.083-1.04-1.18-1.367-1.778-1.669-2.275-.603-.994-.83-1.508-1.087-2.052a59 59 0 0 1-1.422-3.33 334 334 0 0 1-3.67-9.76c-2.906-8.02-6.686-18.923-10.7-30.924-17.357-51.88-32.949-88.846-58.288-138.19-35.705-69.53-79.936-137.963-131.827-203.887-35.722-45.378-62.309-75.377-122.266-137.906a1115 1115 0 0 1-18.444-19.647 265 265 0 0 1-5.71-6.428 46 46 0 0 1-1.976-2.438c-.334-.447-.665-.85-1.308-1.97-.32-.561-.756-1.177-1.357-3.095-.3-.96-.732-2.26-.685-4.752a14.9 14.9 0 0 1 2.29-7.66c.625-.993 2.314-2.83 2.316-2.833 4.5-4.29 3.95-2.736 4.56-3.008.605-.272 1.045-.44 1.53-.628.97-.371 2.041-.757 3.37-1.222 2.654-.927 6.241-2.13 10.647-3.577 8.811-2.893 20.84-6.744 34.34-11.01 27.007-8.53 59.861-18.682 84.23-25.933 140.735-41.876 221.183-63.44 264.132-70.262 3.864-.616 6.173-.554 10.771-.725a620 620 0 0 1 15.872-.363c18.268-.196 26.19.974 39.611 5.644 19.912 6.932 35.364 16.154 50.55 30.224 40.316 37.35 56.67 97.044 52.161 175.12-5.533 95.752-43.559 212.773-112.234 349.554-26.335 52.45-48.264 90.822-65.79 114.237a430 430 0 0 1-10.374 13.36 116 116 0 0 1-3.814 4.495 28 28 0 0 1-1.904 1.96c-.405.38-.84.799-1.817 1.498-.977.698-1.177 2.873-8.838 2.868"
     id="path2" /><path
     fill="#fabd62"
     fill-rule="evenodd"
     d="M2003.794 720.842a8.3 8.3 0 0 0 6.808-3.194l10.602-13.573.593-.764q.133-1.632.264-3.315c42.313-255.926-102.275-472.213-316.45-572.03a2510 2510 0 0 0-29.792 9.54c-9.195 3.018-16.575 5.532-21.798 7.458-2.61.962-4.658 1.76-6.305 2.497a20 20 0 0 0-2.398 1.216c-.438.265-.92.54-1.698 1.249s-2.836 1.824-2.83 6.34c0 4.407.956 3.92 1.228 4.377.272.455.442.68.608.907.33.45.618.804.97 1.227.7.84 1.591 1.874 2.733 3.157a771 771 0 0 0 9.484 10.39 3157 3157 0 0 0 30.89 32.808c71.556 75.04 122.245 138.097 171.397 213.185 57.735 88.2 90.065 153.4 121.74 245.408l16.36 47.515a8.31 8.31 0 0 0 7.594 5.6"
     id="path3" /><path
     fill="#fbce8a"
     fill-rule="evenodd"
     d="M1554.02 1222.072c-1.524-.06-3.37-.403-5.549-1.392-3.27-1.486-6.252-4.92-7.4-7.72s-1.2-4.874-1.19-6.55c.022-3.347.578-5.696 1.312-8.811 1.474-6.23 4.09-14.982 8.262-29.01 3.813-12.82 8.176-28.085 9.45-32.97l2.583-9.93a13.2 13.2 0 0 1 13.12-9.87l35.448.917c19.007.494 34.033-.314 46.43-1.635-7.734-.976-16.91-1.958-28.293-2.942-12.772-1.102-24.466-2.175-33.08-3.026-4.3-.425-7.827-.79-10.398-1.087-1.286-.15-2.316-.267-3.214-.396-.445-.064-.84-.121-1.397-.227-.282-.052-.578-.11-1.174-.27s-.53 1.11-5.02-2.56c0 0-2.162-2.167-2.716-3.015a12.4 12.4 0 0 1-1.112-2.084c-.47-1.113-.618-1.788-.737-2.317-.235-1.06-.257-1.547-.29-1.96-.066-.828-.056-1.224-.054-1.632.01-.818.045-1.513.092-2.344.1-1.656.264-3.735.48-6.207.43-4.945 1.062-11.375 1.742-17.843a1108 1108 0 0 1 2.023-17.988c.31-2.517.593-4.66.845-6.37.126-.852.24-1.574.386-2.34.074-.383.146-.761.297-1.342.148-.581-.416-.65 1.713-4.023l2.11-2.564s1.08-.924 1.482-1.206c.806-.566 1.315-.818 1.718-1.02.806-.4 1.19-.525 1.503-.637.626-.222.883-.284 1.125-.346.485-.13.767-.19 1.09-.262a94 94 0 0 1 2.23-.455 546 546 0 0 1 7.103-1.312 2274 2274 0 0 1 22.716-3.931c17.395-2.93 30.733-6.277 41.82-9.617-2.919.148-5.186.19-8.388.4-16.015 1.046-34.846 2.789-49.213 4.712h-.01l-10.116 1.353a13.2 13.2 0 0 1-14.945-12.666l-1.558-49.05c-4.554-143.204-41.13-304.97-105.11-463.515-51.01-126.408-98.883-210.597-158.734-280.125a1951 1951 0 0 1-20.082-23.694c-5.719-6.868-9.61-11.57-11.89-14.772l-5.117-7.184a13.202 13.202 0 0 1 6.057-19.996l19.185-7.306h.01c39.322-14.957 66.361-21.222 111.537-25.867 16.602-1.706 43.497-1.953 69.133-1.343s47.73 1.5 60.382 4.646c39.278 9.76 90.19 47.347 144.542 101.66 39.631 39.599 64.725 68.742 103.737 120.445 56.277 74.576 104.783 155.605 139.373 229.855 34.587 74.247 55.581 141.19 55.47 190.655-.136 60.417-28.08 137.355-67.335 186.55-55.695 69.795-172.847 169.8-264.615 226.508-13.247 8.184-31.957 18.384-49.238 27.17s-31.604 15.799-41.228 18.624c-.885.26-1.906.609-3.689.91-.89.149-2.094.378-3.617.322m130.717-207.407c1.115.6-.76-1.88-.257-.46.06.054.208.425.257.46"
     id="path4" /><path
     d="M1006.04 164.974c-14.839 4.843-28.273 11.018-39.993 18.539-45.092 28.936-93.443 93.52-148.803 192.463-112.698 201.406-70.322 919.648-44.334 958.668 31.22 46.875 67.248 75.759 106.25 78.504a82 82 0 0 0 16.702-.518c20.31-2.723 39.08-15.727 58.084-35.373 19.003-19.646 38.272-46.606 57.54-80.213l17.268-30.113h172.334l7.58 14.047v.012c17.44 32.313 36.978 61.189 56.092 83.59 19.114 22.4 36.84 38.7 56.07 45.045 7.878 2.602 16.105 3.77 24.475 3.656 25.114-.344 51.511-12.23 73.562-31.592 18.971-16.653 41.07-51.689 64.065-93.012 22.989-41.323 89.782-466.959 73.625-541.344-26.754-123.169-78.883-256.02-148.32-378.425-38.54-67.941-71.232-116.093-103.887-149.735-21.143-21.781-42.55-37.435-65.033-47.818v10.289c0 .648-.811.63-1.17 1.168-38.952 58.45-129.912 188.944-245.11.736-.337-.552-1.578-.665-1.169-1.168z"
     style="fill:#fbce8a;fill-opacity:1"
     id="path5" /><path
     fill="#fac26d"
     d="M578.304 1122.508c-70.643-.15-85.664-23.04-16.693-27.504l112.652-9.402v31.603c-31.907 4.532-68.613 5.36-95.959 5.303m75.224-84.994c-29.202-2.032-60.388-7.133-84.215-11.585-69.442-12.972-80.06-38.204-11.425-30.078l95.64 9.528zm909.438-7.078v-32.328l85.203-8.49c68.633-8.128 58.017 17.106-11.425 30.078-21.007 3.924-47.732 8.352-73.778 10.74m68.485 86.307c-21.563.045-48.94-.455-75.202-2.893v-32.275l91.9 7.669c68.97 4.465 53.945 27.348-16.698 27.5"
     id="path6" /><path
     fill="#fabd62"
     fill-rule="evenodd"
     d="M237.006 718.632a8.3 8.3 0 0 1-6.809-3.192L219.6 701.867q-.297-.38-.594-.766-.138-1.627-.267-3.315C209.146 370.38 354.002 156.06 535.19 125.756c11.23 3.53 21.282 6.75 29.794 9.544 9.192 3.016 16.574 5.53 21.795 7.454 2.613.964 4.66 1.76 6.307 2.497.823.368 1.518.687 2.396 1.216.44.265.92.54 1.698 1.25.778.712 2.838 1.826 2.83 6.34-.004 4.408-.953 3.919-1.225 4.376-.272.455-.445.682-.609.907a25 25 0 0 1-.97 1.227 127 127 0 0 1-2.733 3.157 771 771 0 0 1-9.484 10.393 3157 3157 0 0 1-30.888 32.807c-71.56 75.039-122.247 138.094-171.4 213.185-57.734 88.199-90.066 153.4-121.74 245.406L244.6 713.03a8.31 8.31 0 0 1-7.595 5.602M80.654 441.015C207.89 128.245 254.767 167.192 340.194 57.78c-67.152-18.82-111.61-29.68-139.852-34.166-3.864-.616-6.173-.554-10.774-.725a618 618 0 0 0-15.872-.363c-18.265-.196-26.187.974-39.609 5.644-19.91 6.932-35.365 16.154-50.55 30.224-40.316 37.35-56.67 97.044-52.16 175.12 3.51 60.738 20.09 130.03 49.277 207.5"
     id="path7" /><path
     fill="#fabd62"
     fill-rule="evenodd"
     d="M329.546 992.733c-12.816-13.651-23.823-26.4-32.266-37.568-40.57-53.661-68.1-128.99-68.205-191.906-.153-93.034 60.373-228.802 151.98-366.375 85.262-128.04 177.652-227.96 260.436-275.224 22.456-12.821 39.823-18.717 64.714-21.966 13.061-1.706 28.253-2.598 44.501-2.77-24.07 43.966-59.97 95.23-95.845 147.166-194.858 203.1-237.707 460.368-316.185 718.766a907 907 0 0 1-9.13 29.877m1829.757-551.718c-127.239-312.77-174.116-273.823-259.54-383.234 67.15-18.82 111.608-29.68 139.852-34.166 3.864-.616 6.173-.554 10.771-.725a620 620 0 0 1 15.872-.363c18.268-.196 26.19.974 39.611 5.644 19.912 6.932 35.364 16.154 50.55 30.224 40.316 37.35 56.67 97.044 52.161 175.12-3.51 60.738-20.09 130.03-49.277 207.5m-276.038 551.718c12.814-13.651 23.82-26.4 32.263-37.568 40.57-53.661 68.102-128.99 68.206-191.906.153-93.034-60.373-228.802-151.98-366.375-85.263-128.04-177.649-227.96-260.436-275.224-22.456-12.821-39.82-18.717-64.715-21.966-13.06-1.706-28.253-2.598-44.5-2.77 24.07 43.966 59.972 95.23 95.845 147.166 85.041 123.125 169.92 250.032 220.186 372.778 50.27 122.749 65.92 241.329 96 345.99a907 907 0 0 0 9.131 29.875m-329.246 229.34c-1.523-.06-3.37-.401-5.548-1.393-3.27-1.486-6.252-4.92-7.4-7.72s-1.2-4.874-1.19-6.55c.022-3.347.578-5.696 1.312-8.811 1.474-6.23 4.09-14.982 8.262-29.01 3.813-12.82 8.176-28.085 9.45-32.97l2.583-9.93a13.2 13.2 0 0 1 13.12-9.87c21.598-5.353 24.73-5.04 5.496-8.396-.282-.052-.578-.11-1.174-.27s-.53 1.11-5.02-2.56c0 0-2.162-2.167-2.716-3.015a12.4 12.4 0 0 1-1.112-2.084c-.47-1.113-.618-1.788-.737-2.317-.235-1.06-.257-1.547-.29-1.96-.066-.828-.056-1.224-.054-1.632.01-.818.045-1.513.092-2.344.1-1.656.264-3.735.48-6.207.43-4.945 1.062-11.375 1.742-17.843a1108 1108 0 0 1 2.023-17.988c.31-2.517.593-4.66.845-6.37.126-.852 2.869-27.441 2.621-35.256l-1.558-49.05c-4.554-143.204-41.13-304.97-105.11-463.515-51.01-126.408-98.883-210.597-158.734-280.125a1950 1950 0 0 1-20.082-23.694c-5.719-6.868-9.61-11.57-11.89-14.772l-5.117-7.184c-5.013-7.041-2.02-16.921 6.057-19.996l19.185-7.306h.01c20.686-7.87 37.974-13.335 56.294-17.422 61.303 90.676 131.88 202.83 193.397 319.345 116.61 220.858 200.665 457.369 195.72 613.535-.643 20.335-2.798 39.31-6.185 56.984-29.722 22.792-59.503 43.673-87.002 60.667-13.247 8.184-31.957 18.384-49.238 27.17s-31.604 15.799-41.228 18.624c-.885.26-1.906.609-3.689.91-.89.149-2.094.378-3.617.322m-880.614 4.99c1.523-.056 3.37-.397 5.548-1.39 3.268-1.484 6.25-4.92 7.397-7.72s1.204-4.872 1.192-6.55c-.023-3.346-.577-5.694-1.31-8.81-1.474-6.23-4.092-14.982-8.266-29.01-3.812-12.818-8.175-28.084-9.449-32.97 0 0-11.728-61.96-12.408-68.427q-.937-9.002-2.025-17.986c-.255-2.127-1.913-90.678-1.913-90.678 4.554-143.205 41.133-304.971 105.114-463.516 51.01-126.408 98.878-210.596 158.732-280.124a1951 1951 0 0 0 20.083-23.694c5.716-6.868 9.61-11.57 11.886-14.772l5.118-7.185c5.014-7.04 2.022-16.917-6.055-19.995l-19.187-7.306c-20.688-7.87-37.974-13.336-56.294-17.422-61.31 90.676-144.717 196.912-193.4 319.344-98.853 248.576-199.959 458.475-195.724 613.536a353 353 0 0 0 6.185 56.984c29.724 22.792 59.503 43.672 87.005 60.667 13.244 8.183 31.954 18.384 49.238 27.17s31.6 15.798 41.227 18.624c.883.26 1.904.608 3.69.91.89.148 2.093.378 3.616.32"
     id="path8" /><path
     d="M993.543 163.404C968.635 173.68 945.12 190.2 921.92 214.1c-32.659 33.643-65.342 81.793-103.885 149.736-69.437 122.403-121.57 255.256-148.322 378.422-21.51 70.378-8.627 386.281 16.602 417.996 11.977 35.712 34.035 82.025 57.027 123.346s45.09 76.36 64.06 93.016c20.353 17.872 44.41 29.37 67.74 31.304h.003a626 626 0 0 0-.715-21.244c-5.827-116.544-42.915-274.96 9.639-537.143 37.398-186.594 120.2-425.745 167.773-614.72h-12.672c-.648 0-1.168-.52-1.168-1.168V221.56h-12.086c-.647 0-1.17-.522-1.17-1.17v-17.608h-15.767a1.166 1.166 0 0 1-1.168-1.17v-6.826h-13.1a1.166 1.166 0 0 1-1.168-1.17v-4.685a1.17 1.17 0 0 1-.277-.758v-16.07c0-.29.105-.554.277-.758zm253.58 11.453v.006zm0 .006v18.754c0 .647-.522 1.17-1.17 1.17l-31.773 6.996v6.826c0 .647-.522 1.17-1.17 1.17h-7.852l-6.627 10.611c-.343.55-.52 1.17-1.167 1.17l-4.356 6.627-8.836 5.459c-.55.34-.52 1.168-1.168 1.168h-.857v6.932c0 .647-.52 1.167-1.168 1.167h-5.875c117.586 369.283 276.722 734.25 168.22 1143.758-1.86 7.016-.606 14.334-.716 21.244v.01c23.328-1.934 47.386-13.432 67.74-31.304 18.967-16.655 41.07-51.695 64.063-93.016 22.992-41.321 45.049-87.634 57.027-123.346 5.743-17.128 9.964-25.679 8.357-38.162-.803-6.24 16.453-24.375 16.453-24.375 7.166.114-5.268-2.091-3.855-9.117l3.937-19.564v-.01a641 641 0 0 0 2.842-15.043q.486-2.745.903-5.498c.23-1.545.474-1.73.474-4.86 0-5.117 24.709-12.084 22.842-13.925-24.464-23.292-26.311 8.546-15.852-24.971l.297-30.012c1.006-103.237-3.643-158.079-19.799-232.465-26.753-123.166-78.886-256.019-148.32-378.422-38.543-67.943-71.229-116.093-103.885-149.736-15.97-16.452-32.088-29.407-48.709-39.236"
     style="fill:#fabd62;fill-opacity:1"
     id="path9" /><path
     d="M1079.96 649.635a34.706 29.368 0 0 0-.01.584 34.706 29.368 0 0 0 34.706 29.367 34.706 29.368 0 0 0 34.705-29.367 34.706 29.368 0 0 0-.01-.584z"
     style="font-variation-settings:normal;opacity:1;vector-effect:none;fill:#fa84a1;fill-opacity:1;fill-rule:evenodd;stroke-width:28.7604;stroke-linecap:butt;stroke-linejoin:miter;stroke-miterlimit:4;stroke-dasharray:none;stroke-dashoffset:0;stroke-opacity:1;-inkscape-stroke:none;stop-color:#000;stop-opacity:1"
     id="path10" /><path
     fill="#4b290d"
     d="M900.432 489.213c-8.262.272-15.756 1.17-21.523 2.769-11.815 3.28-17.366 11.973-14.62 22.908 2.72 10.84 9.697 13.063 31.357 9.993 15.766-2.238 22.196-1.832 37.972 2.368 24.64 6.564 31.225 6.784 37.341 1.254 7.3-6.611 6.646-21.766-1.162-26.874-12.868-8.42-44.58-13.24-69.365-12.418m439.13 0c8.262.272 15.755 1.17 21.523 2.769 11.815 3.28 17.363 11.973 14.618 22.908-2.72 10.84-9.696 13.063-31.356 9.993-15.768-2.238-22.196-1.832-37.97 2.368-24.642 6.564-31.229 6.784-37.343 1.254-7.3-6.611-6.648-21.766 1.162-26.874 12.866-8.42 44.578-13.24 69.365-12.418"
     id="path11" /><path
     d="M1094.133 555.504c-6.452 0-12.904 2.198-17.847 6.596-9.888 8.797-9.888 22.96 0 31.756l2.677 2.382 3.22 2.864a47.119 44.066 0 0 0 64.95 0l3.22-2.864 2.676-2.382c9.888-8.796 9.888-22.96 0-31.756s-25.807-8.796-35.694 0l-2.677 2.383-2.678-2.383c-4.943-4.398-11.395-6.596-17.847-6.596"
     style="fill:#4b290d;fill-rule:evenodd;stroke:none;stroke-width:.137835;stroke-linecap:round;stroke-miterlimit:7;paint-order:stroke markers fill"
     id="path12" /><path
     d="M1114.657 592.626c-17.55-.013 7.431 44.372-24.653 39.3.01-.016-.333-.062-2.18-.694l-.01-.002c-2.204-.937-4.338-2.606-6.148-5.082-2.68-3.664-6.063-5.375-9.137-5.395-4.494-.03-8.324 3.551-8.324 9.92 0 11.004 18.296 34.423 44.186 22.588 4.969-2.273 7.553-2.278 12.533 0 25.89 11.835 44.186-11.584 44.186-22.588 0-6.369-3.83-9.95-8.325-9.92-3.074.02-6.457 1.73-9.136 5.395-1.81 2.476-3.945 4.145-6.149 5.082l-.01.002c-1.847.632-2.187.678-2.18.693-32.084 5.073-7.105-39.312-24.654-39.299z"
     style="display:inline;fill:#4a280c;stroke-width:.588126"
     id="path13" /><path
     d="m 163.797,0.001 c -20.45,0.178 -48.3,5.198 -61.896,11.156 C 60.85,29.143 24.135,73.685 9.848,122.83 -26.2,246.826 38.768,475.762 171.135,691.158 c 27.637,44.977 50.244,89.34 50.244,98.585 0,28.115 31.668,103.523 65.385,155.688 61.748,95.537 186.571,198.218 326.873,268.9 41.26,20.785 78.338,37.842 82.395,37.912 7.197,0.126 82.592,157.02 156.039,181.26 10.61,3.501 19.53,5.263 28.42,5.28 8.89,0.017 17.752,-1.706 28.244,-5.166 32.84,-10.84 86.801,-66.396 111.474,-114.762 l 17.237,-33.78 76.043,0.066 h 2.336 l 76.042,-0.066 17.237,33.78 c 24.673,48.366 78.634,103.922 111.474,114.762 10.492,3.46 19.354,5.184 28.244,5.166 8.89,-0.018 17.81,-1.779 28.42,-5.28 73.447,-24.24 148.842,-181.134 156.04,-181.26 4.056,-0.07 41.134,-17.127 82.394,-37.912 140.302,-70.682 265.125,-173.363 326.873,-268.9 33.717,-52.165 65.385,-127.573 65.385,-155.688 0,-9.246 22.607,-53.608 50.244,-98.585 C 2190.545,475.762 2255.513,246.826 2219.465,122.829 2205.178,73.685 2168.462,29.143 2127.412,11.157 2113.815,5.2 2085.967,0.18 2065.516,0.001 c -36.27,-0.317 -272.669,62.012 -394.008,103.885 l -60.412,20.84 -42.586,-19.104 c -74.853,-33.589 -245.429,-2.405 -305.225,26.46 -47.047,22.71 -47.506,51.97 -50.25,62.411 -15.46,13.26 -31.232,31.714 -40.39,48.637 l -10.514,19.424 -46.38,-0.04 h -2.186 l -46.381,0.04 -10.514,-19.424 c -9.158,-16.923 -24.93,-35.377 -40.39,-48.637 -2.744,-10.442 -3.203,-39.701 -50.25,-62.412 C 906.234,103.217 735.658,72.033 660.805,105.622 l -42.586,19.104 -60.412,-20.84 C 436.466,62.013 200.067,-0.316 163.797,0.001 m -3.166,35.512 c 33.857,-0.23 84.26,12.34 188.46,42.209 72.508,20.784 155.409,45.523 184.216,54.992 l 52.387,17.217 -53.012,54.656 C 399.815,341.591 292.765,508.897 245.149,653.952 l -18.557,56.52 -15.178,-18.729 C 184.222,658.16 124.147,541.201 90.573,456.476 8.203,248.642 15.254,96.84 109.512,48.784 c 16.447,-8.385 30.805,-13.133 51.12,-13.271 m 1908.053,0 c 20.314,0.138 34.672,4.886 51.119,13.271 94.258,48.056 101.309,199.858 18.94,407.692 -33.575,84.725 -93.65,201.684 -120.842,235.267 l -15.178,18.729 -18.557,-56.52 C 1936.551,508.897 1829.501,341.592 1696.634,204.587 l -53.012,-54.656 52.387,-17.217 c 28.807,-9.469 111.708,-34.208 184.217,-54.992 104.2,-29.869 154.602,-42.44 188.459,-42.21 m -1288.468,90.39 c 44.619,1.617 91.9,7.829 120.928,17.879 22.658,7.842 42.635,15.606 44.385,17.236 0,0 -26.86306,34.6718 -41.191,51.272 -134.1,146.17 -338.36,658.692 -235.174,961.553 6.95,20.391 10.517,37.08 7.936,37.08 l -0.004,0.01 C 567.265,1178.434 366.55,1006.754 309.45,925 273.755,868.454 251.92,792.832 257.485,744.965 c 22.17,-190.69 260.282,-537.99 417.778,-609.371 18.377,-8.329 60.332,-11.305 104.95,-9.688 z m 668.881,0 v 0.004 c 44.619,-1.618 86.574,1.359 104.951,9.687 157.496,71.381 395.609,418.681 417.778,609.371 5.564,47.867 -16.27,123.49 -51.965,180.035 -57.1,81.755 -257.815,253.436 -367.647,285.932 v -0.01 c -2.58,0 0.986,-16.688 7.936,-37.08 103.186,-302.86 -101.075,-815.382 -235.174,-961.553 -24.013,-26.176 -42.362,-48.934 -41.262,-51.193 14.4082,-6.76185 29.4486,-12.03302 44.445,-17.315 29.028,-10.05 76.31,-16.262 120.928,-17.88 z m -472.176,70.326 c 19.196,0 42.758,21.464 65.799,59.951 l 15.162,25.326 h 113.547 l 15.162,-25.326 c 23.041,-38.487 46.603,-59.951 65.799,-59.951 22.1408,0 32.2557,12.28814 77.535,71.388 4.908,6.92 13.799,19.753 25.34,37.688 0.3413,0.72333 0.6803,1.44667 1.017,2.17 l 0.438,0.1 c 87.637,136.82 319.423,555.13 144.455,918.972 -65.861,135.321 -101.645,173.885 -161.33,173.885 -31.472,0 -70.1,-37.33 -107.877,-104.266 l -24.861,-44.045 h -184.899 l -24.861,44.045 c -37.777,66.935 -76.405,104.266 -107.877,104.266 h -0.002 c -59.685,0 -95.47,-38.564 -161.33,-173.885 -174.968,-363.842 56.818,-782.152 144.455,-918.973 0.14533,-0.032 0.29133,-0.0653 0.438,-0.1 0.33533,-0.72267 0.67433,-1.44567 1.017,-2.169 11.54,-17.935 20.432,-30.768 25.34,-37.688 45.32965,-59.16561 55.41418,-71.388 77.535,-71.388 z"
     style="fill:#4b290d;fill-opacity:1"
     id="path14"
     sodipodi:nodetypes="ccccsccccsccccccccsccccscsccccccccccccccccccccccccccccccccccccccccccccccccccsccccccccccccccccsccsscccccsccccssccccccc" /><rect
     width="160.356"
     height="99.46"
     x="1240.732"
     y="604.635"
     ry="49.733"
     style="fill:#fa84a1;fill-opacity:1;fill-rule:evenodd;stroke:none;stroke-width:17.9285;stroke-miterlimit:7;paint-order:stroke markers fill"
     id="rect14" /><rect
     width="160.356"
     height="99.46"
     x="-988.581"
     y="604.635"
     ry="49.733"
     style="fill:#fa84a1;fill-opacity:1;fill-rule:evenodd;stroke:none;stroke-width:17.9285;stroke-miterlimit:7;paint-order:stroke markers fill"
     transform="scale(-1 1)"
     id="rect15" /></svg>
