<?xml version="1.0" encoding="UTF-8" standalone="no"?>
<svg
   xml:space="preserve"
   width="2229.3149"
   height="1438.7843"
   version="1.1"
   id="svg12"
   xmlns="http://www.w3.org/2000/svg"
   xmlns:svg="http://www.w3.org/2000/svg"><defs
     id="defs12" /><g
     id="g12"
     transform="matrix(1,0,0,-1,-85.342079,1719.3922)"><path
       fill="#fbce8a"
       fill-rule="evenodd"
       d="m 312.288,1003.784 a 8.31,8.31 0 0 0 -7.92,3.08 l -10.6,13.574 c -18.517,23.711 -42.058,64.956 -71.723,124.914 -67.07,135.545 -99.66,234.681 -108.652,331.894 -4.868,52.647 1.195,97.984 17.803,133.69 16.612,35.708 44.1,61.617 80.448,74.179 31.626,10.93 74.48,4.663 168.41,-21.076 55.903,-15.32 127.94,-36.417 186.07,-54.13 29.067,-8.859 54.646,-16.87 73.032,-22.904 9.192,-3.016 16.572,-5.53 21.795,-7.454 2.611,-0.964 4.658,-1.76 6.305,-2.497 0.826,-0.368 1.518,-0.687 2.398,-1.216 0.438,-0.265 0.92,-0.54 1.698,-1.251 0.778,-0.711 2.836,-1.825 2.829,-6.342 -0.005,-4.405 -0.955,-3.918 -1.227,-4.376 -0.272,-0.454 -0.442,-0.68 -0.608,-0.904 a 25,25 0 0 0 -0.969,-1.227 c -0.7,-0.84 -1.592,-1.876 -2.734,-3.16 a 771,771 0 0 0 -9.484,-10.39 3157,3157 0 0 0 -30.889,-32.807 c -71.56,-75.04 -122.246,-138.095 -171.398,-213.185 -57.735,-88.201 -90.065,-153.4 -121.74,-245.409 l -16.359,-47.512 a 8.31,8.31 0 0 0 -6.485,-5.49"
       id="path1" /><path
       fill="#fbce8a"
       fill-rule="evenodd"
       d="m 759.037,505.77 c -5,-0.24 -14.752,1.437 -19.524,3.4 -27.052,11.12 -55.683,34.948 -91.398,58.465 -7.102,4.677 -25.254,12.173 -27.306,13.76 -0.19,0.149 -0.6,0.972 -1.088,2.203 -5.451,-3.891 -13.073,-7.533 -20,-7.493 -15.578,0.084 -19.277,5.406 -24.783,9.15 -5.508,3.742 -11.595,8.442 -20.371,15.305 -66.324,51.859 -138.838,119.874 -171.947,163.665 -40.57,53.661 -68.1,128.989 -68.203,191.906 -0.153,93.034 60.373,228.802 151.98,366.375 85.262,128.039 177.652,227.959 260.436,275.224 22.456,12.821 39.823,18.717 64.714,21.966 43.112,5.624 109.485,2.433 160.172,-6.64 26.636,-4.767 62.425,-14.718 84.844,-26.466 v 0 l 6.94,-3.635 a 29.737,29.737 0 0 0 8.998,-45.423 l -15.65,-18.698 a 11830,11830 0 0 0 -34.784,-41.294 C 928.039,1390.098 838.951,1195.497 792.393,1010.739 769.178,918.614 754.945,814.175 754.945,739.381 c 0,-8.225 -0.081,-15.681 -0.222,-21.343 a 220,220 0 0 0 -0.27,-7.268 c -0.062,-1.054 -0.109,-1.946 -0.297,-3.528 -0.098,-0.791 -0.14,-1.585 -0.702,-3.902 -0.282,-1.16 -0.47,-2.566 -2.188,-6.099 -0.34,-0.702 -1.607,-2.136 -2.163,-3.075 a 29.74,29.74 0 0 0 7.563,-15.576 l 2.942,-23.33 v -0.005 c 0.853,-6.794 1.513,-13.047 1.918,-18.107 0.206,-2.53 0.346,-4.69 0.403,-6.992 0.025,-1.15 0.062,-2.24 -0.069,-4.21 -0.064,-0.987 -0.119,-2.131 -0.583,-4.426 -0.465,-2.291 1.384,-5.74 -8.198,-15.323 -2.141,-2.14 -3.852,-3.659 -5.237,-4.73 0.73,-2.635 1.479,-8.328 2.974,-14.512 2.606,-10.764 6.208,-25.375 9.828,-36.473 7.19,-22.048 9.733,-31.062 6.742,-36.696 l -2.579,-4.858 -2.72,-2.223 c -0.247,-0.566 -1.384,-0.855 -3.05,-0.937 M 2089.15,997.905 c -9.058,0.003 -10.16,3.901 -11.199,5.083 -1.04,1.18 -1.367,1.778 -1.669,2.275 -0.603,0.994 -0.83,1.508 -1.087,2.052 a 59,59 0 0 0 -1.422,3.33 334,334 0 0 0 -3.671,9.76 c -2.905,8.02 -6.685,18.923 -10.7,30.924 -17.356,51.88 -32.948,88.846 -58.287,138.19 -35.705,69.53 -79.936,137.963 -131.827,203.887 -35.722,45.378 -62.309,75.377 -122.266,137.906 a 1115,1115 0 0 0 -18.444,19.647 265,265 0 0 0 -5.71,6.428 46,46 0 0 0 -1.976,2.438 c -0.334,0.447 -0.665,0.85 -1.308,1.97 -0.321,0.561 -0.756,1.177 -1.357,3.095 -0.3,0.96 -0.732,2.26 -0.685,4.752 a 14.9,14.9 0 0 0 2.29,7.66 c 0.625,0.993 2.314,2.83 2.316,2.833 4.5,4.289 3.95,2.736 4.559,3.008 0.606,0.272 1.046,0.44 1.53,0.628 0.97,0.371 2.042,0.757 3.37,1.222 2.655,0.927 6.242,2.13 10.648,3.577 8.811,2.893 20.839,6.744 34.34,11.009 27.007,8.53 59.861,18.683 84.23,25.934 140.735,41.876 221.183,63.439 264.132,70.262 3.864,0.616 6.173,0.554 10.771,0.725 4.599,0.173 10.213,0.301 15.872,0.363 18.268,0.196 26.19,-0.974 39.611,-5.644 19.912,-6.932 35.364,-16.154 50.55,-30.224 40.316,-37.35 56.67,-97.044 52.161,-175.121 -5.533,-95.751 -43.559,-212.772 -112.234,-349.553 -26.335,-52.45 -48.264,-90.822 -65.79,-114.237 a 430,430 0 0 0 -10.374,-13.36 116,116 0 0 0 -3.814,-4.495 28,28 0 0 0 -1.904,-1.96 c -0.405,-0.381 -0.84,-0.799 -1.817,-1.498 -0.977,-0.698 -1.177,-2.873 -8.838,-2.868"
       id="path2" /><path
       fill="#fabd62"
       fill-rule="evenodd"
       d="m 2089.136,998.548 a 8.3,8.3 0 0 1 6.808,3.194 l 10.602,13.573 0.593,0.764 q 0.133,1.632 0.264,3.315 c 42.313,255.926 -102.275,472.213 -316.451,572.029 a 2510,2510 0 0 1 -29.791,-9.54 c -9.195,-3.017 -16.575,-5.531 -21.798,-7.457 -2.611,-0.962 -4.658,-1.76 -6.305,-2.497 a 20,20 0 0 1 -2.398,-1.216 c -0.438,-0.265 -0.92,-0.54 -1.698,-1.249 -0.778,-0.709 -2.836,-1.824 -2.831,-6.341 0,-4.406 0.957,-3.919 1.229,-4.376 0.272,-0.455 0.442,-0.68 0.608,-0.907 0.329,-0.45 0.618,-0.804 0.969,-1.227 0.7,-0.84 1.592,-1.874 2.734,-3.157 a 771,771 0 0 1 9.484,-10.39 3157,3157 0 0 1 30.889,-32.808 c 71.557,-75.041 122.246,-138.097 171.398,-213.185 57.735,-88.2 90.065,-153.4 121.74,-245.408 l 16.359,-47.515 a 8.31,8.31 0 0 1 7.595,-5.6"
       id="path3" /><path
       fill="#fbce8a"
       fill-rule="evenodd"
       d="m 1639.361,497.318 c -1.523,0.06 -3.37,0.403 -5.548,1.392 -3.27,1.486 -6.252,4.92 -7.4,7.72 -1.148,2.8 -1.2,4.874 -1.19,6.55 0.022,3.347 0.578,5.696 1.312,8.811 1.474,6.23 4.09,14.982 8.262,29.01 3.813,12.819 8.176,28.085 9.45,32.97 l 2.583,9.929 a 13.2,13.2 0 0 0 13.12,9.87 l 35.448,-0.916 c 19.007,-0.494 34.033,0.314 46.43,1.635 -7.734,0.976 -16.911,1.958 -28.293,2.942 -12.772,1.102 -24.466,2.175 -33.08,3.026 -4.301,0.425 -7.827,0.79 -10.398,1.087 -1.286,0.149 -2.316,0.267 -3.214,0.396 -0.445,0.064 -0.84,0.121 -1.397,0.227 -0.282,0.052 -0.578,0.11 -1.174,0.27 -0.596,0.16 -0.53,-1.11 -5.021,2.559 0,0.002 -2.161,2.168 -2.715,3.016 a 12.4,12.4 0 0 0 -1.112,2.084 c -0.47,1.113 -0.618,1.788 -0.737,2.317 -0.235,1.06 -0.257,1.547 -0.29,1.96 -0.066,0.828 -0.056,1.224 -0.054,1.632 0.01,0.818 0.045,1.513 0.092,2.344 0.099,1.656 0.264,3.735 0.48,6.207 0.43,4.945 1.062,11.375 1.742,17.843 0.68,6.468 1.405,12.95 2.023,17.988 0.309,2.517 0.593,4.66 0.845,6.369 0.126,0.853 0.24,1.575 0.386,2.341 0.074,0.383 0.146,0.761 0.297,1.342 0.148,0.581 -0.416,0.65 1.713,4.023 l 2.109,2.564 c 0,0 1.08,0.924 1.483,1.206 0.806,0.566 1.315,0.818 1.718,1.019 0.806,0.4 1.19,0.526 1.503,0.638 0.626,0.222 0.883,0.284 1.125,0.346 0.485,0.13 0.767,0.19 1.09,0.262 0.648,0.143 1.353,0.284 2.23,0.455 a 546,546 0 0 0 7.103,1.312 2274,2274 0 0 0 22.716,3.931 c 17.395,2.93 30.733,6.277 41.82,9.617 -2.919,-0.148 -5.186,-0.19 -8.388,-0.4 -16.015,-1.046 -34.846,-2.789 -49.213,-4.712 h -0.01 l -10.116,-1.353 a 13.2,13.2 0 0 0 -14.945,12.666 l -1.558,49.05 c -4.554,143.204 -41.131,304.97 -105.111,463.515 -51.01,126.408 -98.882,210.597 -158.733,280.125 a 1951,1951 0 0 0 -20.082,23.694 c -5.719,6.868 -9.61,11.57 -11.89,14.772 l -5.117,7.184 a 13.202,13.202 0 0 0 6.057,19.996 l 19.185,7.306 h 0.01 c 39.322,14.957 66.361,21.222 111.537,25.867 16.602,1.706 43.497,1.953 69.133,1.343 25.636,-0.61 47.73,-1.501 60.382,-4.646 39.278,-9.76 90.19,-47.347 144.542,-101.66 39.631,-39.599 64.725,-68.742 103.737,-120.445 56.277,-74.576 104.783,-155.605 139.373,-229.855 34.587,-74.247 55.581,-141.19 55.47,-190.655 -0.136,-60.417 -28.08,-137.355 -67.335,-186.55 -55.695,-69.795 -172.847,-169.8 -264.615,-226.508 -13.247,-8.184 -31.957,-18.384 -49.238,-27.17 -17.281,-8.786 -31.604,-15.799 -41.228,-18.624 -0.885,-0.26 -1.906,-0.609 -3.689,-0.91 -0.89,-0.149 -2.094,-0.378 -3.617,-0.322 m 130.717,207.407 c 1.115,-0.6 -0.761,1.88 -0.257,0.46 0.06,-0.054 0.208,-0.425 0.257,-0.46"
       id="path4" /><path
       fill="#fbce8a"
       fill-rule="evenodd"
       d="m 1430.647,306.11 c -8.37,-0.114 -16.597,1.053 -24.475,3.655 -19.23,6.345 -36.956,22.645 -56.07,45.046 -19.114,22.401 -38.652,51.277 -56.092,83.59 v 0.008 l -7.58,14.048 h -172.334 l -17.268,-30.114 c -19.269,-33.607 -38.537,-60.567 -57.54,-80.213 -19.003,-19.646 -37.774,-32.649 -58.084,-35.372 -5.53517,-0.74095 -11.13155,-0.91452 -16.702,-0.518 -39.002,2.745 -75.031,31.628 -106.25,78.503 -25.988,39.02 -68.364,757.263 44.334,958.669 55.36,98.943 103.711,163.527 148.803,192.463 25.401,16.3 58.854,26.275 97.202,30.082 39.53,3.923 103.84,1.535 138.245,-5.513 36.91,-7.56 70.196,-26.586 102.851,-60.228 32.655,-33.642 65.347,-81.793 103.887,-149.734 69.437,-122.406 121.567,-255.256 148.321,-378.425 16.157,-74.385 -50.637,-500.021 -73.626,-541.344 -22.995,-41.323 -45.092,-76.36 -64.063,-93.013 -22.051,-19.362 -48.449,-31.246 -73.563,-31.59"
       id="path5" /><path
       fill="#fac26d"
       d="m 663.646,596.882 c -70.643,0.15 -85.664,23.039 -16.693,27.504 l 112.652,9.402 v -31.603 c -31.907,-4.532 -68.613,-5.36 -95.959,-5.303 m 75.224,84.994 c -29.202,2.032 -60.388,7.133 -84.215,11.585 -69.442,12.972 -80.06,38.204 -11.425,30.078 l 95.64,-9.528 z m 909.438,7.078 v 32.328 l 85.203,8.49 c 68.633,8.128 58.017,-17.106 -11.425,-30.078 -21.007,-3.924 -47.732,-8.352 -73.778,-10.74 m 68.485,-86.307 c -21.563,-0.045 -48.941,0.455 -75.202,2.893 v 32.275 l 91.9,-7.669 c 68.969,-4.465 53.945,-27.348 -16.698,-27.5"
       id="path6" /><path
       fill="#fabd62"
       fill-rule="evenodd"
       d="m 322.348,1000.758 a 8.3,8.3 0 0 0 -6.809,3.192 l -10.598,13.573 q -0.297,0.38 -0.594,0.766 -0.138,1.627 -0.267,3.315 c -9.592,327.405 135.264,541.726 316.452,572.03 11.23,-3.531 21.282,-6.75 29.794,-9.544 9.192,-3.016 16.574,-5.53 21.795,-7.454 2.613,-0.964 4.66,-1.76 6.307,-2.497 0.823,-0.368 1.518,-0.687 2.396,-1.216 0.44,-0.265 0.92,-0.54 1.698,-1.251 0.778,-0.711 2.838,-1.825 2.83,-6.339 -0.004,-4.408 -0.953,-3.919 -1.225,-4.376 -0.272,-0.455 -0.445,-0.682 -0.609,-0.907 a 25,25 0 0 0 -0.971,-1.227 127,127 0 0 0 -2.732,-3.157 771,771 0 0 0 -9.484,-10.393 3157,3157 0 0 0 -30.888,-32.807 c -71.56,-75.039 -122.247,-138.094 -171.401,-213.185 -57.733,-88.199 -90.065,-153.4 -121.74,-245.406 l -16.36,-47.515 a 8.31,8.31 0 0 0 -7.594,-5.602 m -156.352,277.617 c 127.236,312.769 174.113,273.823 259.54,383.234 -67.152,18.819 -111.611,29.68 -139.852,34.166 -3.864,0.616 -6.173,0.554 -10.774,0.725 a 618,618 0 0 1 -15.872,0.363 c -18.265,0.196 -26.187,-0.974 -39.609,-5.644 -19.911,-6.932 -35.365,-16.154 -50.55,-30.224 -40.316,-37.35 -56.67,-97.044 -52.16,-175.121 3.51,-60.737 20.09,-130.03 49.277,-207.499"
       id="path7" /><path
       fill="#fabd62"
       fill-rule="evenodd"
       d="m 414.888,726.657 c -12.816,13.651 -23.823,26.399 -32.266,37.568 -40.57,53.661 -68.101,128.989 -68.205,191.906 -0.153,93.034 60.373,228.802 151.98,366.375 85.262,128.039 177.652,227.959 260.436,275.224 22.456,12.821 39.823,18.717 64.714,21.966 13.061,1.706 28.253,2.598 44.501,2.769 -24.07,-43.965 -59.97,-95.23 -95.845,-147.165 -194.858,-203.1 -237.707,-460.368 -316.185,-718.766 -2.87158,-10.01068 -5.91536,-19.97116 -9.13,-29.877 m 1829.757,551.718 c -127.239,312.769 -174.116,273.823 -259.54,383.234 67.15,18.819 111.608,29.68 139.852,34.166 3.864,0.616 6.173,0.554 10.771,0.725 4.599,0.173 10.213,0.301 15.872,0.363 18.268,0.196 26.19,-0.974 39.611,-5.644 19.912,-6.932 35.364,-16.154 50.55,-30.224 40.316,-37.35 56.67,-97.044 52.161,-175.121 -3.51,-60.737 -20.09,-130.03 -49.277,-207.499 M 1968.607,726.657 c 12.814,13.651 23.82,26.399 32.263,37.568 40.57,53.661 68.102,128.989 68.206,191.906 0.153,93.034 -60.373,228.802 -151.981,366.375 -85.262,128.039 -177.648,227.959 -260.435,275.224 -22.456,12.821 -39.821,18.717 -64.715,21.966 -13.06,1.706 -28.253,2.598 -44.5,2.769 24.07,-43.965 59.972,-95.23 95.845,-147.165 85.041,-123.125 169.92,-250.032 220.186,-372.778 50.269,-122.749 65.92,-241.329 95.999,-345.99 2.8723,-10.01002 5.9167,-19.96983 9.132,-29.875 m -329.246,-229.34 c -1.523,0.06 -3.37,0.401 -5.548,1.393 -3.27,1.486 -6.252,4.92 -7.4,7.72 -1.148,2.8 -1.2,4.874 -1.19,6.55 0.022,3.347 0.578,5.696 1.312,8.811 1.474,6.23 4.09,14.982 8.262,29.01 3.813,12.819 8.176,28.085 9.45,32.97 l 2.583,9.929 c 1.5464,5.94039 6.9837,10.03079 13.12,9.87 21.5977,5.35321 24.7289,5.04001 5.496,8.397 -0.282,0.052 -0.578,0.11 -1.174,0.27 -0.596,0.16 -0.53,-1.11 -5.021,2.559 0,0.002 -2.161,2.168 -2.715,3.016 -0.4361,0.6577 -0.8085,1.35553 -1.112,2.084 -0.47,1.113 -0.618,1.788 -0.737,2.317 -0.235,1.06 -0.257,1.547 -0.29,1.96 -0.066,0.828 -0.056,1.224 -0.054,1.632 0.01,0.818 0.045,1.513 0.092,2.344 0.099,1.656 0.264,3.735 0.48,6.207 0.43,4.945 1.062,11.375 1.742,17.843 0.68,6.468 1.405,12.95 2.023,17.988 0.309,2.517 0.593,4.66 0.845,6.369 0.126,0.853 2.8682,27.442 2.621,35.257 l -1.558,49.05 c -4.554,143.204 -41.131,304.97 -105.111,463.515 -51.01,126.408 -98.882,210.597 -158.733,280.125 -6.7568,7.8446 -13.451,15.7428 -20.082,23.694 -5.719,6.868 -9.61,11.57 -11.89,14.772 l -5.117,7.184 c -5.0138,7.041 -2.0211,16.9207 6.057,19.996 l 19.185,7.306 h 0.01 c 20.686,7.869 37.974,13.335 56.294,17.422 61.303,-90.676 131.879,-202.831 193.397,-319.345 116.61,-220.858 200.665,-457.369 195.72,-613.535 -0.643,-20.335 -2.798,-39.31 -6.185,-56.984 -29.722,-22.792 -59.503,-43.673 -87.002,-60.667 -13.247,-8.184 -31.957,-18.384 -49.238,-27.17 -17.281,-8.786 -31.604,-15.799 -41.228,-18.624 -0.885,-0.26 -1.906,-0.609 -3.689,-0.91 -0.89,-0.149 -2.094,-0.378 -3.617,-0.322 m -880.614,-4.991 c 1.523,0.057 3.37,0.398 5.548,1.39 3.268,1.485 6.25,4.92 7.397,7.72 1.147,2.8 1.204,4.873 1.192,6.55 -0.023,3.347 -0.577,5.695 -1.31,8.81 -1.474,6.23 -4.092,14.983 -8.266,29.01 -3.812,12.819 -8.175,28.085 -9.449,32.97 0,0 -11.728,61.961 -12.408,68.428 -0.62557,6.0008 -1.3006,11.99633 -2.025,17.986 -0.2559,2.127 -1.913,90.678 -1.913,90.678 4.554,143.205 41.133,304.971 105.114,463.516 51.01,126.408 98.878,210.596 158.732,280.124 6.7571,7.8446 13.4516,15.7428 20.083,23.694 5.716,6.868 9.61,11.57 11.886,14.772 l 5.118,7.185 c 5.014,7.04 2.022,16.917 -6.055,19.995 l -19.187,7.306 v 0 c -20.688,7.87 -37.974,13.336 -56.294,17.422 -61.31,-90.676 -144.717,-196.912 -193.401,-319.344 -98.852,-248.576 -199.958,-458.475 -195.723,-613.536 0.51357,-19.13092 2.58205,-38.1884 6.185,-56.984 29.724,-22.792 59.503,-43.672 87.005,-60.667 13.244,-8.183 31.954,-18.384 49.238,-27.17 17.284,-8.786 31.6,-15.798 41.227,-18.624 0.883,-0.26 1.904,-0.608 3.69,-0.91 0.89,-0.148 2.093,-0.378 3.616,-0.321"
       id="path8" /><path
       fill="#fabd62"
       fill-rule="evenodd"
       d="m 1427.95,311.474 c 0.11,6.91 -1.145,14.228 0.716,21.244 117.775,444.511 -79.795,836.54 -197.27,1238.576 17.85,-1.251 34.377,-3.202 46.923,-5.77 36.914,-7.563 70.198,-26.585 102.857,-60.23 32.656,-33.643 65.342,-81.793 103.885,-149.736 69.434,-122.403 121.567,-255.256 148.32,-378.422 16.156,-74.386 20.804,-129.227 19.798,-232.464 l -0.297,-30.013 c -10.4595,-33.51762 -8.6115,-1.6791 15.852,-24.97 1.867,-1.842 -22.841,-8.809 -22.841,-13.926 0,-3.13 -0.245,-3.314 -0.475,-4.859 -0.278,-1.83632 -0.5787,-3.66913 -0.902,-5.498 -0.8878,-5.02514 -1.8355,-10.0395 -2.843,-15.042 v -0.005 l -3.936,-19.565 c -1.4126,-7.02585 11.0196,-9.2301 3.854,-9.1165 0,0 -17.256,-18.1355 -16.453,-24.3755 1.607,-12.483 -2.613,-21.034 -8.356,-38.162 -11.978,-35.712 -34.036,-82.026 -57.028,-123.347 -22.992,-41.321 -45.095,-76.36 -64.062,-93.015 -20.354,-17.872 -44.412,-29.37 -67.74,-31.304 m -467.466,0 c -0.11808,7.08487 -0.35645,14.16722 -0.715,21.244 -5.827,116.544 -42.914,274.96 9.64,537.143 43.403,216.552 147.958,503.888 187.63,701.433 -17.85,-1.251 -34.376,-3.202 -46.923,-5.77 -36.914,-7.563 -70.2,-26.585 -102.857,-60.23 -32.659,-33.643 -65.342,-81.793 -103.885,-149.736 -69.437,-122.403 -121.57,-255.256 -148.322,-378.422 -21.51013,-70.37779 -8.62696,-386.28116 16.602,-417.996 11.977,-35.712 34.035,-82.026 57.027,-123.347 22.992,-41.321 45.092,-76.36 64.062,-93.015 20.352,-17.872 44.41,-29.37 67.74,-31.304"
       id="path9" /><path
       fill="#4a280c"
       d="m 965.833,280.608 c -8.89,0.017 -17.81,1.777 -28.421,5.278 -73.447,24.24 -148.841,181.134 -156.038,181.26 -4.057,0.07 -41.136,17.128 -82.396,37.913 -140.302,70.682 -265.125,173.363 -326.873,268.9 -33.717,52.165 -65.384,127.572 -65.384,155.687 0,9.246 -22.607,53.61 -50.244,98.587 -132.367,215.395 -197.335,444.33 -161.287,568.327 14.287,49.144 51.003,93.687 92.053,111.673 13.597,5.958 41.445,10.977 61.896,11.155 36.27,0.317 272.668,-62.012 394.007,-103.885 l 60.413,-20.839 42.585,19.103 c 74.853,33.589 204.025,22.394 305.225,-26.458 23.079,-11.14 36.09,-13.177 46.973,-7.352 15.818,8.465 59.513,13.187 101.658,13.152 42.145,0.035 85.838,-4.687 101.66,-13.152 10.88,-5.825 23.892,-3.788 46.973,7.352 101.198,48.852 230.37,60.047 305.223,26.458 l 42.585,-19.103 60.41,20.841 c 121.342,41.871 357.74,104.2 394.01,103.886 20.45,-0.178 48.299,-5.2 61.894,-11.158 41.052,-17.986 77.768,-62.529 92.055,-111.673 36.046,-123.997 -28.923,-352.932 -161.287,-568.327 -27.64,-44.976 -50.244,-89.339 -50.244,-98.587 0,-28.115 -31.67,-103.522 -65.384,-155.687 -61.748,-95.537 -186.57,-198.218 -326.873,-268.9 -41.262,-20.785 -78.339,-37.844 -82.396,-37.913 -7.194,-0.126 -82.591,-157.02 -156.038,-181.26 -10.61,-3.5 -19.53,-5.26 -28.421,-5.278 -8.891,-0.018 -17.751,1.706 -28.243,5.167 -32.84,10.838 -86.802,66.393 -111.475,114.758 l -17.24,33.781 -76.04,-0.066 h -2.338 l -76.043,0.066 -17.237,-33.78 c -24.673,-48.366 -78.635,-103.92 -111.475,-114.76 -10.492,-3.46 -19.353,-5.184 -28.243,-5.166 m 8.977,38.35 c 31.472,0 70.101,37.331 107.878,104.266 l 24.861,44.046 h 184.9 l 24.863,-44.046 c 37.777,-66.935 76.406,-104.266 107.878,-104.266 59.686,0 95.47,38.565 161.331,173.885 199.424,414.698 -129.56,900.155 -171.25,958.93 -63.636,83.06 -104.933,103.142 -212.136,103.142 h -3.135 -3.135 c -107.203,0 -148.502,-20.083 -212.136,-103.141 -41.69,-58.776 -370.674,-544.233 -171.25,-958.93 65.861,-135.321 101.645,-173.886 161.33,-173.886 m -212.363,189.51 c 2.581,0 -0.986,16.688 -7.936,37.08 -103.186,302.86 101.074,815.382 235.173,961.553 24.013,26.176 42.363,48.934 41.263,51.193 h -0.01 c -0.01,0.01 -0.017,0.025 -0.025,0.03 v 0.015 l -0.02,0.02 -0.02,0.014 c -1.75,1.63 -21.726,9.395 -44.384,17.237 -58.057,20.1 -189.125,24.847 -225.88,8.19 C 603.111,1512.419 365,1165.12 342.831,974.43 337.266,926.563 359.099,850.94 394.794,794.394 451.894,712.639 652.61,540.959 762.442,508.463 m 875.108,0 c 109.833,32.496 310.55,204.176 367.652,285.931 35.695,56.544 57.525,132.169 51.96,180.037 -22.169,190.687 -260.281,537.988 -417.778,609.367 -36.755,16.659 -167.82,11.91 -225.88,-8.188 -22.658,-7.844 -42.634,-15.61 -44.385,-17.239 l -0.02,-0.015 -0.02,-0.02 v -0.014 l -0.024,-0.028 h -0.01 c -1.1,-2.26 17.247,-25.02 41.262,-51.193 134.097,-146.171 338.357,-658.695 235.171,-961.554 -6.95,-20.394 -10.517,-37.08 -7.936,-37.08 z m -1325.617,500.454 18.557,56.52 c 47.616,145.055 154.666,312.361 287.533,449.365 l 53.013,54.657 -52.387,17.217 c -28.807,9.469 -111.708,34.207 -184.217,54.991 -166.72,47.79 -195.72,51.3 -239.579,28.938 -94.258,-48.056 -101.307,-199.857 -18.938,-407.691 33.574,-84.725 93.648,-201.684 120.84,-235.267 z m 1776.13,0 15.178,18.73 c 27.195,33.583 87.264,150.544 120.84,235.267 82.369,207.834 75.32,359.635 -18.938,407.691 -43.858,22.36 -72.858,18.851 -239.579,-28.938 -72.51,-20.784 -155.407,-45.522 -184.22,-54.99 l -52.387,-17.218 53.016,-54.657 c 132.87,-137.004 239.915,-304.31 287.533,-449.364 z"
       id="path10" /></g><path
     id="path22"
     style="font-variation-settings:normal;opacity:1;vector-effect:none;fill:#fa84a1;fill-opacity:1;fill-rule:evenodd;stroke-width:28.7604;stroke-linecap:butt;stroke-linejoin:miter;stroke-miterlimit:4;stroke-dasharray:none;stroke-dashoffset:0;stroke-opacity:1;-inkscape-stroke:none;stop-color:#000000;stop-opacity:1"
     d="m 1079.9587,649.63757 a 34.705574,29.368425 0 0 0 -0.01,0.58398 34.705574,29.368425 0 0 0 34.707,29.36712 34.705574,29.368425 0 0 0 34.7051,-29.36712 34.705574,29.368425 0 0 0 -0.01,-0.58398 z" /><path
     fill="#4b290d"
     d="m 900.43184,489.21543 c -8.262,0.272 -15.756,1.17 -21.523,2.769 -11.815,3.28 -17.366,11.973 -14.621,22.908 2.72,10.84 9.698,13.063 31.358,9.993 15.766,-2.238 22.19598,-1.832 37.97198,2.368 24.64,6.564 31.225,6.784 37.341,1.254 7.3,-6.611 6.646,-21.766 -1.162,-26.874 -12.868,-8.42 -44.58,-13.24 -69.36498,-12.418 m 439.12996,0 c 8.262,0.272 15.755,1.17 21.523,2.769 11.815,3.28 17.363,11.973 14.618,22.908 -2.72,10.84 -9.696,13.063 -31.356,9.993 -15.768,-2.238 -22.196,-1.832 -37.971,2.368 -24.641,6.564 -31.228,6.784 -37.342,1.254 -7.3,-6.611 -6.648,-21.766 1.162,-26.874 12.866,-8.42 44.578,-13.24 69.365,-12.418"
     id="path12" /><path
     id="path21"
     style="fill:#4b290d;fill-rule:evenodd;stroke:none;stroke-width:0.137835;stroke-linecap:round;stroke-miterlimit:7;paint-order:stroke markers fill"
     d="m 1094.1323,555.50603 c -6.4518,0 -12.9037,2.19872 -17.8473,6.59682 -9.8874,8.79621 -9.8874,22.95917 0,31.75538 l 2.6778,2.38223 3.2191,2.86385 a 47.118615,44.06641 0 0 0 64.951,3e-5 l 3.2192,-2.86388 2.6767,-2.38223 c 9.8874,-8.79621 9.8874,-22.95917 0,-31.75538 -9.8873,-8.79618 -25.8072,-8.79618 -35.6946,0 l -2.6768,2.38227 -2.6778,-2.38227 c -4.9437,-4.3981 -11.3955,-6.59682 -17.8473,-6.59682 z" /><path
     id="path24"
     style="display:inline;fill:#4a280c;stroke-width:0.588126"
     d="m 1199.998,921.14062 c -17.549,-0.0132 7.4319,44.37215 -24.6523,39.29883 0.01,-0.0147 -0.3329,-0.0611 -2.1797,-0.69336 l -0.01,-0.002 c -2.2043,-0.93689 -4.3382,-2.60601 -6.1484,-5.08203 -2.6796,-3.66402 -6.0627,-5.37453 -9.1367,-5.39453 -4.4945,-0.0306 -8.3242,3.5511 -8.3242,9.91992 0,11.00384 18.2956,34.42337 44.1855,22.58789 4.9693,-2.27272 7.5528,-2.27779 12.5332,0 25.8899,11.83548 44.1856,-11.58405 44.1856,-22.58789 0,-6.36882 -3.8297,-9.9505 -8.3242,-9.91992 -3.074,0.02 -6.4572,1.73051 -9.1368,5.39453 -1.8102,2.47602 -3.9441,4.14514 -6.1484,5.08203 l -0.01,0.002 c -1.8468,0.63224 -2.1867,0.67866 -2.1797,0.69336 -32.0842,5.07332 -7.1052,-39.31202 -24.6543,-39.29883 z"
     transform="translate(-85.342079,-328.51193)" /></svg>
