<?xml version="1.0" encoding="UTF-8" standalone="no"?>
<!-- Created with Inkscape (http://www.inkscape.org/) -->

<svg
   version="1.1"
   id="svg1"
   width="230"
   height="219"
   viewBox="0 0 230 219"
   xmlns="http://www.w3.org/2000/svg"
   xmlns:svg="http://www.w3.org/2000/svg">
  <defs
     id="defs1" />
  <g
     id="g1">
    <rect
       style="fill:#ffffff;fill-rule:evenodd;stroke-width:0.732418"
       id="rect6"
       width="230"
       height="219.91306"
       x="0"
       y="0"
       ry="19.779139" />
    <path
       id="path1"
       style="fill:#000000;stroke-width:1.22551"
       d="m 121.90234,15.119141 c -0.73605,0.0099 -1.29216,0.0658 -1.62304,0.173828 -0.67404,0.220114 -5.47036,0.318073 -10.66016,0.216797 C 86.329453,15.055257 62.409463,25.701252 38.890625,46.992188 l -7.857422,7.115234 2.037109,5.976562 c 2.701955,7.9298 2.684295,7.994141 -2.152343,7.994141 -6.742795,0 -7.96365,0.905395 -7.240235,5.363281 0.368499,2.270786 -0.191281,5.935323 -1.318359,8.632813 -1.49585,3.58007 -1.958984,8.983882 -1.958984,22.886721 v 18.20312 l 3.982421,2.13086 3.984376,2.12891 -4.761719,1.22265 -4.759766,1.22071 0.757813,15.98242 c 0.417352,8.78988 1.128921,30.81888 1.580078,48.95312 0.271515,10.9135 0.416495,18.2977 0.408203,23.19727 h 2.058594 c -0.20301,-6.91592 -0.46331,-15.25551 -0.748047,-23.69336 -0.625494,-18.53585 -1.29837,-40.30545 -1.492188,-48.375 l -0.351562,-14.66992 5.1875,-1.02539 c 2.851997,-0.564 5.183594,-1.44288 5.183594,-1.95313 0,-0.51024 -2.278596,-2.20965 -5.064454,-3.77539 l -5.064453,-2.8457 0.873047,-18.39453 c 0.48158,-10.117239 1.384706,-19.730767 2.003906,-21.359377 0.6192,-1.62862 1.125,-4.834942 1.125,-7.126953 0,-4.073941 0.136449,-4.183966 6.111328,-4.976562 6.615693,-0.877603 6.756896,-1.279765 3.513672,-10.076172 C 33.048485,54.631537 33.752209,53.53423 44.84375,44.302734 76.141201,18.253852 105.29353,10.97075 130.69727,22.851562 l 7.96484,3.72461 -5.16016,4.818359 c -6.22574,5.813857 -8.5133,5.988626 -30.02734,2.275391 -8.11212,-1.400117 -16.02348,-2.224666 -17.580079,-1.833984 -1.556601,0.390682 -4.019017,2.378473 -5.472656,4.419921 L 77.779297,39.96875 82.484375,36.75 c 4.02895,-2.755623 5.574878,-3.118315 10.740234,-2.521484 7.759461,0.896566 9.059611,2.276121 4.783203,5.078125 -1.871549,1.226293 -6.023158,4.681191 -9.224609,7.675781 l -5.818359,5.443359 -7.691406,-1.484375 c -5.436015,-1.050091 -8.58815,-1.115607 -10.753907,-0.21875 -2.7751,1.149191 -2.544009,1.27788 2.451172,1.365235 3.033139,0.05304 6.340516,0.637392 7.351563,1.296875 1.52765,0.996452 1.162128,1.736823 -2.167969,4.378906 -2.203959,1.748612 -4.840436,4.79131 -5.859375,6.761719 -1.380964,2.670492 -0.186993,1.862778 4.689453,-3.171875 4.852924,-5.010368 7.423457,-6.75586 9.958984,-6.75586 1.879893,0 5.020884,-1.139243 6.978516,-2.533203 l 3.558594,-2.535156 v 5.193359 c 0,3.50509 1.19415,7.309817 3.675781,11.707032 2.022094,3.58295 3.735028,8.038549 3.804688,9.902343 0.0494,1.321051 0.10589,2.041125 0.24414,2.087891 h 0.002 0.002 0.002 c 0.0015,1.37e-4 0.0084,0.0013 0.01172,0.002 0.18155,-0.03125 0.499648,-1.089412 1.085932,-3.296875 0.92854,-3.496015 1.85047,-4.597949 3.85547,-4.613281 2.0478,-0.01566 1.54845,-0.638266 -2.24218,-2.785157 -5.805873,-3.288248 -7.946306,-7.034098 -7.970706,-13.947265 -0.02341,-6.621109 0.946718,-8.984375 3.693359,-8.984375 1.22423,0 3.871907,-1.386382 5.884767,-3.080078 3.4854,-2.932776 4.16009,-3.041504 14.12695,-2.275391 l 10.46484,0.804688 7.86524,-4.929688 7.86328,-4.931641 4.14844,3.119141 c 12.09766,9.100918 17.96334,17.618673 27.86718,40.453125 l 4.7168,10.869141 0.86719,23.796874 c 0.73776,20.18608 0.58068,24.49059 -1.04297,28.35547 -2.37563,5.65484 -2.38933,10.64218 -0.0371,13.75196 1.49696,1.97917 1.79883,9.12043 1.79883,42.49804 V 218 h 5.18164 c -0.17211,-6.81312 -0.2793,-16.32809 -0.2793,-26.81641 0,-31.49483 -0.30268,-38.02612 -1.9082,-41.13086 -1.61139,-3.1161 -1.66905,-4.39414 -0.36523,-8.21093 1.09641,-3.20954 1.44878,-11.98604 1.21289,-30.25782 -0.32233,-24.966633 -0.43772,-26.009115 -3.83985,-34.925777 -5.13295,-13.453023 -15.37904,-31.692919 -21.24023,-37.8125 -2.81101,-2.934936 -8.96929,-8.09911 -13.6875,-11.474609 -4.71822,-3.375498 -7.20071,-5.726963 -5.51563,-5.228516 15.4899,4.581935 28.93198,11.622853 41.97266,21.988281 6.66601,5.298498 7.04687,5.892931 7.04687,11.003907 0,3.906086 0.81199,6.364852 2.92579,8.876953 1.60808,1.91109 4.09056,7.392642 5.51562,12.177734 2.25509,7.572172 2.58984,11.82556 2.58984,32.810547 0,18.65968 -0.4172,25.1049 -1.83984,28.50977 -2.45286,5.87051 -2.31651,8.18832 0.63281,10.85742 2.38093,2.1547 2.45771,3.48795 2.14453,37.18554 L 202.41406,218 h 4.63477 l -0.27149,-33.38477 c -0.23624,-28.81577 -0.64715,-36.57756 -2.04882,-38.71679 -1.52576,-2.3286 -1.51446,-3.35481 0.0976,-7.92383 1.41143,-4.00042 1.85169,-10.97475 1.85156,-29.30078 -1.5e-4,-21.830609 -0.26804,-24.917507 -2.90234,-33.45508 -1.59615,-5.172993 -4.0787,-10.899839 -5.51562,-12.726562 -1.74048,-2.212668 -2.61133,-5.070389 -2.61133,-8.558594 0,-4.731586 -0.58965,-5.767583 -6.12696,-10.746094 -11.65636,-10.48007 -27.30384,-19.42349 -41.81054,-23.898438 -6.7189,-2.07261 -20.65625,-4.239469 -25.8086,-4.169921 z M 6.96875,217.92383 c -0.015505,10e-4 -0.030971,0.008 -0.039063,0.0156 -8.896e-4,0.001 -0.00314,0.005 -0.00391,0.006 -0.00321,0.006 -0.00586,0.0133 -0.00586,0.0215 0,0.009 -1.539e-4,0.0203 0.00195,0.0332 h 0.3222656 c -0.13059,-0.0544 -0.2237206,-0.0813 -0.2753906,-0.0762 z" />
    <text
       xml:space="preserve"
       style="font-size:15.4061px;line-height:1.25;font-family:'Ubuntu Mono';-inkscape-font-specification:'Ubuntu Mono';stroke-width:0.32096"
       x="40.53096"
       y="104.13411"
       id="text1"><tspan
         x="40.53096"
         y="104.13411"
         id="tspan2"
         style="font-style:normal;font-variant:normal;font-weight:bold;font-stretch:normal;font-family:'Ubuntu Mono';-inkscape-font-specification:'Ubuntu Mono Bold';stroke-width:0.32096">HERE LIES </tspan><tspan
         x="40.53096"
         y="123.39173"
         style="font-style:normal;font-variant:normal;font-weight:bold;font-stretch:normal;font-family:'Ubuntu Mono';-inkscape-font-specification:'Ubuntu Mono Bold';stroke-width:0.32096"
         id="tspan3">THE GOD OF SVG</tspan></text>
    <rect
       style="fill:none;fill-rule:evenodd;stroke:#000000;stroke-width:1.0584"
       id="rect3"
       width="142.15808"
       height="55.374226"
       x="30.017345"
       y="138.61078"
       ry="26.971552" />
    <text
       xml:space="preserve"
       style="font-size:12.419px;line-height:1.25;font-family:'Ubuntu Mono';-inkscape-font-specification:'Ubuntu Mono';stroke-width:0.25873"
       x="45.917404"
       y="163.03627"
       id="text4"><tspan
         x="45.917404"
         y="163.03627"
         style="font-style:normal;font-variant:normal;font-weight:bold;font-stretch:normal;font-family:'Ubuntu Mono';-inkscape-font-specification:'Ubuntu Mono Bold';stroke-width:0.25873"
         id="tspan5">September 4 2001-</tspan><tspan
         x="45.917404"
         y="178.56001"
         style="font-style:normal;font-variant:normal;font-weight:bold;font-stretch:normal;font-family:'Ubuntu Mono';-inkscape-font-specification:'Ubuntu Mono Bold';stroke-width:0.25873"
         id="tspan6">September 1 2025</tspan></text>
  </g>
</svg>
