<svg xmlns="http://www.w3.org/2000/svg" xml:space="preserve" width="200" height="100" viewBox="14.8 13.8 200 100"><rect width="200" height="100" x="14.8" y="13.8" ry=".293" style="fill:#4d4435;fill-opacity:1;fill-rule:evenodd;stroke-width:.646721"/><path fill="#78298b" stroke="#65067c" stroke-linejoin="round" stroke-width="1.034" d="M77.333 67.886c.362-.56 3.89-6.587 3.89-6.587l67.876-.14 4.25 7.256z" style="fill:#420a17;fill-opacity:1;stroke:#414143;stroke-opacity:1"/><path fill="#d7d8da" stroke="#000" stroke-linecap="round" stroke-linejoin="round" stroke-width="1.034" d="M99.39 73.552c7.078-.282 13.093-4.395 14.602-7.205 3.401-6.335 4.996-18.416 9.104-24.74 3.187-4.904 6.731-7.78 13.055-8.641 7.55-1.03 14.632 1.543 18.05 8.857 2.006 4.292 2.91 8.46 1.954 16.259-.42 3.421-2.155 11.961-7.739 17.234-5.583 5.272-19.01 13.503-28.33 14.702z" style="fill:#98ae6f;fill-opacity:1"/><path fill="#f1f1f1" d="M129.142 85.838s-3.038-1.454-3.768-5.438c-.747-4.067.835-10.728 2.362-13.775 1.486-2.965 6.739-8.247 11.915-8.108 6.44.169 9.228 4.97 10.092 7.192 1.518 3.91-1.577 8.993-2.32 9.785-1.552 1.66-10.586 7.206-13.895 8.504-1.433.561-4.387 1.84-4.387 1.84" style="fill:#99989e;fill-opacity:1;stroke-width:.82992"/><ellipse cx="-106.517" cy="91.406" stroke="#892ca0" stroke-linecap="square" stroke-width=".957" rx="2.101" ry="2.183" transform="matrix(-.93107 .36483 .36485 .93107 0 0)"/><ellipse cx="107.157" cy="90.791" fill="#fff" rx="1.033" ry="1.087" style="stroke-width:.82992" transform="rotate(-21.397)skewX(.001)"/><ellipse cx="122.357" cy="96.227" stroke="#892ca0" stroke-linecap="square" stroke-width=".957" rx="2.101" ry="2.183" transform="rotate(-20.838)skewX(.001)"/><ellipse cx="-121.717" cy="95.613" fill="#fff" rx="1.033" ry="1.087" style="stroke-width:.82992" transform="matrix(-.93459 .35573 .35575 .93458 0 0)"/><path fill="none" stroke="#000" stroke-linecap="square" stroke-width=".772" d="M130.155 40.385a2.03 2.03 0 0 1 .916-1.451 2.03 2.03 0 0 1 1.606-.24m18.553 2.136a2.03 2.03 0 0 0-.978-1.41 2.03 2.03 0 0 0-1.614-.172"/><ellipse cx="100.54" cy="94.639" fill="#f1f1f1" rx="1.545" ry="1.62" style="fill:#d6d6d6;fill-opacity:1;stroke-width:.82992" transform="rotate(-21.397)"/><ellipse cx="122.741" cy="103.039" fill="#f1f1f1" rx="1.369" ry="1.436" style="fill:#d6d6d6;fill-opacity:1;stroke-width:.82992" transform="rotate(-21.397)"/><path fill="#d7d8da" stroke="#000" stroke-linecap="square" stroke-width="1.034" d="M100.816 72.33c-.526-.01-5.558-5.206-6.246-6.664-1.196-2.533-3.275-6.24-3.434-8.3-.162-2.089-.734-6.35-1.859-7.784-1.07-1.366-4.771-1.516-6.04.33-1.267 1.846-.109 5.854-.109 5.854s-6.298-1.622-8.27-.177c-1.97 1.447-2.478 3.993-.711 5.332 3.768 2.426 7.953.515 9.962 1.773 1.83 1.143 1.682 8 2.84 9.964" style="fill:#98ae6f;fill-opacity:1"/><path fill="#9232a9" stroke="#8708a8" stroke-width=".221" d="m77.468 68.466 76.228-.038.022 44.617-76.228.037z" class="fills" color="#000" style="fill:#420a17;fill-opacity:1"/><g class="strokes"><path fill="none" d="m77.468 68.466 76.228-.038.022 44.617-76.228.037z" class="stroke-shape" color="#000"/></g><path fill="#65067c" stroke="#892ca0" stroke-width=".221" d="M76.732 67.73v.736l.022 45.352 77.698-.037-.022-46.09zm1.47 1.473 74.758-.037.021 43.142-74.758.036z" class="fills" color="#000" style="fill:#414143;fill-opacity:1;stroke:#424144;stroke-opacity:1"/><path fill="#772b89" d="M94.33 72.715c-.824 0-1.493.669-1.494 1.495l.016 33.347a1.494 1.494 0 0 0 1.495 1.498 1.496 1.496 0 0 0 1.49-1.5l-.016-33.345a1.496 1.496 0 0 0-1.491-1.494" class="fills" color="#000" style="fill:#590e1f;fill-opacity:1;stroke-width:.82992"/><path fill="#af68d9" d="M82.226 72.72a1.494 1.494 0 0 0-1.491 1.496l.016 33.347c0 .827.668 1.496 1.492 1.498l12.104-.006a1.496 1.496 0 0 0 1.49-1.5c0-.825-.667-1.496-1.492-1.498l-10.608.005-.016-31.848a1.496 1.496 0 0 0-1.496-1.494" class="fills" color="#000" style="fill:#620f22;fill-opacity:1;stroke-width:.82992"/><path fill="#65067c" d="M82.226 72.72a1.496 1.496 0 0 0 .001 2.993l12.104-.005a1.496 1.496 0 0 0-.001-2.993z" class="fills" color="#000" style="fill:#310711;fill-opacity:1;stroke-width:.82992"/><path fill="#772b89" d="M112.485 72.706a1.494 1.494 0 0 0-1.494 1.495l.015 33.347a1.494 1.494 0 0 0 1.496 1.498 1.496 1.496 0 0 0 1.49-1.5l-.016-33.346a1.494 1.494 0 0 0-1.492-1.493" class="fills" color="#000" style="fill:#590e1f;fill-opacity:1;stroke-width:.82992"/><path fill="#af68d9" d="M100.38 72.712a1.494 1.494 0 0 0-1.494 1.494l.017 33.348a1.5 1.5 0 0 0 1.494 1.498l12.105-.006a1.496 1.496 0 0 0 1.49-1.5c0-.825-.667-1.496-1.491-1.497l-10.61.005-.016-31.849a1.494 1.494 0 0 0-1.495-1.494" class="fills" color="#000" style="fill:#620f22;fill-opacity:1;stroke-width:.82992"/><path fill="#65067c" d="M100.38 72.712a1.496 1.496 0 0 0 .002 2.993l12.104-.006a1.497 1.497 0 0 0-.002-2.993z" class="fills" color="#000" style="fill:#310711;fill-opacity:1;stroke-width:.82992"/><path fill="#772b89" d="M130.635 72.697a1.494 1.494 0 0 0-1.491 1.495l.017 33.347a1.492 1.492 0 0 0 2.548 1.06 1.5 1.5 0 0 0 .438-1.06l-.017-33.349a1.494 1.494 0 0 0-1.495-1.493" class="fills" color="#000" style="fill:#590e1f;fill-opacity:1;stroke-width:.82992"/><path fill="#af68d9" d="M118.535 72.703a1.494 1.494 0 0 0-1.494 1.495l.017 33.348a1.5 1.5 0 0 0 1.494 1.497l12.1-.006c.397 0 .777-.158 1.057-.44a1.5 1.5 0 0 0-1.058-2.557l-10.605.005-.016-31.848a1.494 1.494 0 0 0-1.496-1.494" class="fills" color="#000" style="fill:#620f22;fill-opacity:1;stroke-width:.82992"/><path fill="#65067c" d="M118.535 72.703a1.496 1.496 0 0 0 .001 2.993l12.1-.006a1.5 1.5 0 0 0 1.494-1.499 1.494 1.494 0 0 0-1.495-1.494z" class="fills" color="#000" style="fill:#310711;fill-opacity:1;stroke-width:.82992"/><path fill="#772b89" d="M148.789 72.688c-.824 0-1.493.67-1.494 1.495l.017 33.348c0 .398.157.778.437 1.06a1.494 1.494 0 0 0 2.115-.002 1.5 1.5 0 0 0 .437-1.06l-.016-33.346a1.494 1.494 0 0 0-1.496-1.494" class="fills" color="#000" style="fill:#590e1f;fill-opacity:1;stroke-width:.82992"/><path fill="#af68d9" d="M136.689 72.694c-.824 0-1.494.669-1.494 1.496l.017 33.346a1.5 1.5 0 0 0 1.494 1.499l12.1-.006a1.5 1.5 0 0 0-.002-2.996l-10.604.004-.016-31.85a1.494 1.494 0 0 0-1.496-1.493" class="fills" color="#000" style="fill:#620f22;fill-opacity:1;stroke-width:.82992"/><path fill="#65067c" d="M136.689 72.694a1.496 1.496 0 0 0 .002 2.993l12.1-.006a1.5 1.5 0 0 0 1.494-1.499 1.494 1.494 0 0 0-1.496-1.494z" class="fills" color="#000" style="fill:#310711;fill-opacity:1;stroke-width:.82992"/><path d="M175.065 29.712a1.2 1.2 0 0 0-.372-.034c-.366.026-2.118 1.385-3.893 3.02-5.87 5.406-35.867 33.451-38.285 35.789l3.788 1.155c7.278-6.452 39.855-37.388 39.95-38.027.12-.811-.39-1.624-1.068-1.866a1 1 0 0 0-.12-.037z" style="fill:#fff;stroke:#0f0;stroke-width:.405982"/><path d="M137.629 68.796c-.56.357-1.687 1.528-1.687 1.528s-.966.445-1.49 1.083c-.523.638-2.703 2.813-4.842 4.834-2.14 2.022-4.176 3.66-4.526 3.642-.848-.043-2.431-1.726-2.39-2.54.019-.357 1.471-1.938 3.228-3.514s3.21-3.158 3.229-3.515c.05-.989 1.911-2.138 2.818-2.125.843.013 3.992-3.31 3.992-3.31 1.342 1.711 1.418 2.15 1.668 3.917" style="fill:#000;stroke-width:.405982"/><path fill="#b4b5b6" stroke="#000" stroke-linejoin="round" stroke-width=".851" d="M122.315 63.311s1.792 8.202 3.124 9.555c1.393 1.413 3.056 2.276 4.44 1.731a4.27 4.27 0 0 0 2.346-2.239c.409-.93.459-2.497-.317-3.66-.865-1.3-4.508-6.006-4.921-7.222m27.67 2.997s-1.793 8.202-3.126 9.555c-1.393 1.413-3.056 2.275-4.44 1.731a4.27 4.27 0 0 1-2.346-2.24c-.408-.929-.458-2.497.317-3.66.866-1.3 4.508-6.005 4.921-7.222" style="fill:#635e2c;fill-opacity:1"/><circle cx="115.534" cy="90.715" r="11.544" fill="none" stroke="#65067c" stroke-width="2.345" paint-order="stroke fill markers" style="stroke:#414143;stroke-opacity:1"/><path fill="#d6a1e3" d="M127.078 90.715a11.544 11.544 0 0 1-11.544 11.544 11.544 11.544 0 0 1-11.544-11.544 11.544 11.544 0 0 1 11.544-11.544 11.544 11.544 0 0 1 11.544 11.544" style="fill:#aaa9ad;fill-opacity:1;stroke-width:.82992"/><path fill="none" stroke="#772b89" stroke-linecap="round" stroke-linejoin="round" stroke-width="3.907" d="M121.479 87.337a6.85 6.85 0 0 1-1.532 8.677 6.87 6.87 0 0 1-8.826 0 6.85 6.85 0 0 1-1.532-8.677m5.945-4.548v3.937" paint-order="stroke fill markers" style="stroke:#310711;stroke-opacity:1"/><g transform="translate(-33.963 9.763)scale(.84917)"><ellipse cx="-166.937" cy="111.132" stroke="#892ca0" stroke-linecap="square" stroke-width="1.489" rx="3.269" ry="3.397" transform="matrix(-.72082 .28245 .28246 .72082 44.39 9.984)"/><ellipse cx="167.934" cy="110.176" fill="#fff" rx="1.608" ry="1.692" style="stroke-width:1.29168" transform="matrix(.72082 -.28244 .28246 .72082 44.39 9.984)"/><path d="M193.605 42.423c-.082.481-.03.98.15 1.44.53 1.352 2.015 2.035 3.316 1.525 1.155-.452 1.39.384 1.112-.873z" style="baseline-shift:baseline;display:inline;overflow:visible;vector-effect:none;fill:#635e2c;stroke:none;stroke-linecap:square;stroke-opacity:1;stop-color:#000"/><path d="M194.94 39.954c1.604-.628 3.425.22 4.064 1.852s-.12 3.492-1.723 4.12-3.424-.221-4.063-1.853c-.64-1.631.12-3.491 1.723-4.12m.421 1.073c-1 .391-1.49 1.552-1.069 2.625.42 1.073 1.568 1.59 2.568 1.199 1-.392 1.492-1.551 1.071-2.625-.42-1.073-1.57-1.591-2.57-1.2" style="baseline-shift:baseline;display:inline;overflow:visible;vector-effect:none;fill:#635e2c;stroke:none;stroke-linecap:square;stroke-opacity:1;stop-color:#000"/></g><g transform="translate(3.667 18.211)scale(.65742)"><ellipse cx="207.594" cy="53.048" fill="#fff" stroke="#60605b" stroke-dashoffset="6" stroke-linecap="square" stroke-width="1.228" rx="6.966" ry="6.155" style="fill:#99989e;fill-opacity:1;stroke:#60605b;stroke-width:.755215;stroke-dasharray:none;stroke-opacity:1" transform="matrix(.99957 -.02944 .03446 .9994 0 0)"/><path d="M203.774 46.807q-.003 0-.008.003a.6.6 0 0 0-.21.078c-.313.168-.726.869-.726 1.231 0 .124.13.355.29.515.302.301.879.363 1.383.146a.4.4 0 0 0 .12-.07l.004-.003.003-.003v-.013l-.003-.002-.003-.003-.003-.003-.003-.002c-.037-.024-.17-.034-.416-.038-.84-.015-1.144-.273-1.015-.863.057-.258.229-.548.381-.643.195-.122.284-.243.27-.298l-.003-.003-.003-.007-.003-.003-.003-.002-.003-.003-.003-.003-.008-.005a.1.1 0 0 0-.032-.005l-.01-.002zm11.256 0q.003 0 .008.003.071.006.21.078c.313.168.726.869.726 1.231 0 .124-.13.355-.29.515-.302.301-.879.363-1.383.146a.4.4 0 0 1-.12-.07l-.004-.003-.003-.003v-.013l.003-.002.003-.003.003-.003.003-.002c.037-.024.17-.034.416-.038.84-.015 1.144-.273 1.015-.863-.057-.258-.229-.548-.381-.643-.195-.122-.284-.243-.27-.298l.003-.003.003-.007.003-.003.003-.002.003-.003.003-.003.008-.005a.1.1 0 0 1 .032-.005l.01-.002z" style="fill:#000;stroke:#000;stroke-width:.145481;stroke-opacity:1"/><path fill="gray" stroke="#000" stroke-linecap="square" stroke-width="1.058" d="M211.769 44.634c-.188-.48-.188-1.443-.746-1.441-.558.001-1.074-.36-1.623-.36-.55.002-1.066.361-1.624.362s-.558.964-.743 1.446c-.19.481 2.37 2.042 2.37 2.042s2.552-1.567 2.366-2.047z"/><path fill="none" stroke="#60605b" stroke-width=".769" d="M216.745 47.641c3.303-.008 5.934 1.065 7.996 2.411m-9.224.378c3.103 1.2 4.636 3.707 5.807 6.106m-19.378-8.614c-3.287.327-5.796 1.66-7.71 3.21m9.214-.561c-2.965 1.51-4.236 4.16-5.157 6.664" style="stroke-width:.47663;stroke-dasharray:none"/><path d="M209.345 46.906v1.41l-.727-.358c-.4-.198-.729-.448-.729-.553a.36.36 0 0 0-.141-.28.1.1 0 0 0-.06-.015h-.004l-.003.003h-.003l-.003.002-.003.003-.003.003q-.023.036.023.156c.069.18.022.229-.184.19-.152-.03-.487-.41-.747-.846-.207-.347-.388-.585-.452-.608h-.015v.003h-.003v.002h-.003v.003l-.003.002v.018c.001.117.132.409.29.649.16.24.288.477.288.527v.005l-.003.003v.002l-.003.003c-.04.05-.265.122-.537.166-.42.07-.593.031-.744-.164a1 1 0 0 0-.142-.159l-.003-.002h-.006v.002h-.003v.006h-.005c-.005.023.02.099.058.23.072.239.035.327-.128.327-.283 0-1.222.446-1.252.59v.008l.005.003v.002h.003v.003h.006l.003.005.003.003c.071.02.379-.062.742-.2.92-.349 2.543-.432 2.725-.138.067.11.19.159.272.108.296-.183.612.087.633.542q.013.33.026.349h.006v-.005c.01-.02.026-.123.053-.3.047-.318.116-.389.305-.311.585.242.757.204 1.627-.358 1.313-.849 2.668-1.145 3.855-.845l.436.113-.363-.214c-.213-.126-.745-.217-1.284-.22-.87-.005-.913-.022-.82-.315.037-.116.04-.192.023-.222v-.003l-.003-.005v-.002h-.003l-.003-.003h-.006l-.003-.002h-.008a.14.14 0 0 0-.063.025.4.4 0 0 0-.162.308c0 .173-.848.665-.986.575v-.003h-.005v-.005c-.01-.044.036-.22.11-.416.057-.147.076-.263.061-.306q0-.002-.003-.005l-.003-.002-.003-.003h-.003l-.003-.002h-.015l-.02.007c-.074.046-.205.296-.292.555-.092.272-.405.642-.74.878l-.577.411v-.643c0-.354-.041-.944-.091-1.31-.052-.378-.185.623-.185.623zm2.653 2.914-.003.002h-.003l-.003.003-.003.002-.003.003q-.052.072-.053.525c0 1.209-.92 1.892-2.546 1.892-1.569 0-2.464-.65-2.482-1.801q-.005-.379-.033-.44l-.003-.002v-.003h-.003L206.86 50h-.009l-.008.003a.7.7 0 0 0-.09.187c-.19.47.063 1.337.511 1.758.334.313.862.518 1.481.59h1.047l.15-.02c.507-.07.981-.162 1.054-.207.448.144.411-.117.754-.6.314-.352.5-1.484.303-1.837a.2.2 0 0 0-.043-.053l-.003-.002h-.014z" style="fill:#000;stroke:#000;stroke-width:.145481;stroke-opacity:1"/></g><g transform="translate(3.323 18.24)scale(.65742)"><ellipse cx="191.285" cy="118.627" stroke="#892ca0" stroke-linecap="square" stroke-width="1.489" rx="3.269" ry="3.397" style="stroke:#635e2c;stroke-opacity:1" transform="rotate(-20.838)skewX(.001)"/><ellipse cx="-190.289" cy="117.672" fill="#fff" rx="1.608" ry="1.692" style="stroke-width:1.29168" transform="matrix(-.93459 .35573 .35575 .93458 0 0)"/><path d="m223.83 42.917-5.326 1.434c.796 1.518 2.137 2.231 3.678 1.644 1.25-.476 1.644-1.695 1.649-3.078z" style="fill:#635e2c;stroke:#635e2c;stroke-width:1.48931;stroke-linecap:square"/></g><rect width="37.256" height="11.897" x="92.433" y="18.837" ry=".454" style="fill:#1f202f;fill-opacity:1;fill-rule:evenodd;stroke:#373745;stroke-width:.5;stroke-dasharray:none;stroke-opacity:1"/><path d="M24.393 20.036v9.233h4.132c.794 0 1.696 0 2.37-.498.645-.47 1.13-1.184 1.13-1.992 0-1.198-.781-2.073-1.925-2.301v-.027c.97-.243 1.669-.942 1.669-1.992 0-.875-.39-1.548-1.13-2.02-.633-.403-1.387-.403-2.114-.403zm2.154 1.642h1.305c.364 0 .929-.04 1.239.135a.96.96 0 0 1 .457.834c0 .31-.134.646-.39.835-.323.242-.767.215-1.144.215h-1.467zm0 3.661h1.588c.35 0 .78 0 1.09.175s.525.538.525.888c0 .377-.175.754-.484.956-.337.229-.835.202-1.225.202h-1.494zm12.719.848c.013-.929-.135-1.898-.7-2.678-.565-.781-1.548-1.212-2.503-1.212-2.127 0-3.325 1.629-3.325 3.648 0 2.032 1.333 3.459 3.378 3.459 2.315 0 3.11-2.02 3.11-2.356l-1.831-.134c0 .632-.606 1.076-1.211 1.076-.862 0-1.32-.659-1.32-1.467l.014-.336zm-4.401-1.171c.067-.78.403-1.427 1.278-1.427.862 0 1.104.687 1.144 1.427zm5.343-.579c0 .821.471 1.387 1.211 1.67-.686.282-1.372.672-1.372 1.52 0 .606.35.97.874 1.225-.619.134-1.184.538-1.184 1.238 0 1.548 2.436 1.588 3.526 1.588.808 0 1.777-.053 2.517-.363.78-.323 1.44-.942 1.44-1.857 0-1.494-1.346-1.75-2.543-1.817l-.862-.04c-.39-.014-1.117-.041-1.467-.135-.256-.081-.39-.243-.39-.525 0-.23.148-.39.336-.498.35.053.767.094 1.144.094 1.306 0 3.042-.471 3.042-2.086 0-.58-.161-.916-.538-1.333.054-.417.417-.592.794-.592.175 0 .35.04.525.067v-1.278a2.6 2.6 0 0 0-.552-.054c-1.023 0-1.413.296-1.548 1.332a5.6 5.6 0 0 0-1.817-.296c-1.332 0-3.136.485-3.136 2.14m3.11-1.05c.618 0 1.184.323 1.184 1.01 0 .7-.539 1.05-1.185 1.05-.66 0-1.09-.364-1.09-1.037 0-.646.458-1.023 1.09-1.023m2.018 6.42c0 .7-1.373.66-1.857.66-.431 0-1.05-.013-1.48-.135-.284-.08-.499-.228-.499-.551 0-.27.189-.458.43-.552.903.067 2.208.067 2.68.107.282.027.726.108.726.472m8.412-.538v-6.837H51.77v3.674c0 .35.027.74-.108 1.05-.175.404-.552.66-.996.66-.7 0-.754-.525-.754-1.077v-4.307h-1.978v4.307c0 .66-.04 1.305.336 1.898.39.619.983.767 1.67.767.928 0 1.628-.444 1.95-1.306h.028v1.171zm1.4 0h1.978v-3.674c0-.431.027-.821.23-1.212a.95.95 0 0 1 .834-.511c.996 0 .902 1.023.902 1.723v3.674h1.978v-4.226c0-.62 0-1.48-.377-1.992-.404-.552-1.036-.754-1.682-.754-.996 0-1.561.417-1.965 1.292h-.027v-1.157h-1.871zm9.664-2.1h-2.113v2.1h1.05l-1.05 2.154h.753l1.36-2.356zm8.964-4.75h-1.467v-2.14l-1.723.134-.175 2.005h-1.198v1.575h1.117v3.015c0 .673 0 1.494.552 1.952.444.363 1.198.444 1.763.444.364 0 .848-.054 1.238-.148v-1.494a7 7 0 0 1-.66.054c-.847 0-.914-.202-.914-1.104v-2.719h1.467zm7.052 2.503c0-.66.04-1.346-.376-1.885-.404-.524-1.077-.74-1.71-.74-.74 0-1.52.39-1.776 1.077h-.027v-3.338H74.96v9.233h1.979v-3.688c0-.404 0-.834.175-1.198.161-.336.578-.511.942-.511.861 0 .794 1.117.794 1.71v3.687h1.978zm7.565 1.265c.013-.929-.135-1.898-.7-2.678-.566-.781-1.548-1.212-2.504-1.212-2.126 0-3.324 1.629-3.324 3.648 0 2.032 1.332 3.459 3.378 3.459 2.315 0 3.11-2.02 3.11-2.356l-1.831-.134c0 .632-.606 1.076-1.212 1.076-.86 0-1.319-.659-1.319-1.467l.014-.336zm-4.402-1.171c.068-.78.404-1.427 1.28-1.427.86 0 1.103.687 1.143 1.427zm16.233-3.19v-1.79h-6.569v9.233h2.154v-3.607h3.513v-1.736h-3.513v-2.1zm2.907 3.796h1.574l1.414 3.647h2.395l-1.709-4.078c.996-.363 1.602-1.333 1.602-2.382 0-.902-.417-1.804-1.171-2.302-.714-.458-1.548-.471-2.369-.471h-3.89v9.233h2.154zm0-3.944h1.13c.404 0 1.023-.054 1.387.175.31.188.525.579.525.942 0 .404-.189.835-.539 1.05-.39.229-.875.188-1.319.188h-1.184zm10.121 7.726c1.252 0 2.342-.512 3.055-1.562.593-.874.875-2.153.875-3.203 0-1.117-.336-2.423-.996-3.324-.74-1.01-1.709-1.414-2.934-1.414-2.732 0-3.957 2.288-3.957 4.738 0 1.158.296 2.355.97 3.311.726 1.023 1.735 1.454 2.987 1.454m0-7.74c.673 0 1.064.283 1.333.902.269.62.336 1.414.336 2.087 0 .605-.067 1.372-.282 1.938-.243.686-.647 1.05-1.387 1.05-1.52 0-1.696-1.844-1.696-3.002 0-.579.081-1.373.296-1.925.256-.673.66-1.05 1.4-1.05m13.19.081h.054v7.524h2.154v-9.233h-3.379l-1.695 5.532-1.616-5.532h-3.378v9.233h1.817v-7.524h.027l2.248 7.524h1.48zm17.04.687h-1.561l-1.144 4.2h-.027l-.983-4.2h-1.817l-1.036 4.186h-.027l-1.09-4.186h-2.113l2.113 6.837h1.696l1.063-4.388h.027l1.063 4.388h1.777zm6.622 6.837c-.108-.336-.135-.673-.135-1.023v-3.19c0-.82.068-1.574-.632-2.14-.552-.457-1.467-.619-2.167-.619-1.44 0-3.055.485-3.257 2.14l1.87.175c0-.673.552-.996 1.185-.996.296 0 .633.094.808.323.201.256.174.606.174.902v.162c-.834.08-1.924.134-2.705.43-.902.337-1.534 1.023-1.534 2.033 0 1.292.942 1.938 2.153 1.938 1.023 0 1.615-.39 2.18-1.198-.013.35.014.713.095 1.063zm-2.154-3.001c0 .484.014.888-.269 1.319-.228.35-.592.565-.996.565-.552 0-.875-.363-.875-.902 0-.996 1.387-1.17 2.14-1.251zm3.42-3.836v6.837h1.978v-2.611c0-1.211.188-2.436 1.696-2.355v-1.979l-.337-.027c-.861-.067-1.265.687-1.467 1.413h-.027v-1.278zm10 1.655c-.472-1.278-1.346-1.79-2.692-1.79-1.454 0-2.921.606-2.921 2.288 0 .862.538 1.562 1.346 1.844.43.148 1.561.35 2.032.404.364.04.767.121.767.579 0 .511-.82.646-1.197.646-.633 0-1.373-.216-1.508-.915l-1.71.242c.364 1.534 1.697 2.019 3.123 2.019.754 0 1.508-.135 2.127-.566.579-.417.915-1.05.915-1.763 0-3.082-4.105-1.628-4.105-2.907 0-.498.62-.606 1.023-.606.646 0 1.157.27 1.332.916zm11.319.835c0-.66.04-1.346-.377-1.885-.404-.524-1.077-.74-1.71-.74-.74 0-1.52.39-1.776 1.077h-.027v-3.338h-1.978v9.233h1.978v-3.688c0-.404 0-.834.175-1.198.162-.336.579-.511.942-.511.862 0 .794 1.117.794 1.71v3.687h1.979zm7.497 4.347c-.108-.336-.135-.673-.135-1.023v-3.19c0-.82.067-1.574-.632-2.14-.552-.457-1.467-.619-2.167-.619-1.44 0-3.056.485-3.258 2.14l1.871.175c0-.673.552-.996 1.185-.996.296 0 .632.094.807.323.202.256.175.606.175.902v.162c-.834.08-1.924.134-2.705.43-.902.337-1.534 1.023-1.534 2.033 0 1.292.942 1.938 2.153 1.938 1.023 0 1.615-.39 2.18-1.198-.013.35.014.713.095 1.063zm-2.154-3.001c0 .484.014.888-.269 1.319-.229.35-.592.565-.996.565-.552 0-.875-.363-.875-.902 0-.996 1.387-1.17 2.14-1.251zm8.641-3.836h-1.494l-1.332 4.334-1.32-4.334h-2.099l2.342 6.837h1.575zm6.972 3.755c.014-.929-.134-1.898-.7-2.678-.565-.781-1.548-1.212-2.503-1.212-2.127 0-3.325 1.629-3.325 3.648 0 2.032 1.333 3.459 3.379 3.459 2.315 0 3.109-2.02 3.109-2.356l-1.83-.134c0 .632-.606 1.076-1.212 1.076-.861 0-1.319-.659-1.319-1.467l.013-.336zm-4.401-1.171c.067-.78.404-1.427 1.279-1.427.861 0 1.103.687 1.144 1.427zm7.887 4.253v-2.086h-2.113v2.086zm4.038 0v-2.086h-2.113v2.086zm4.038 0v-2.086h-2.113v2.086z" aria-label="Begun, the FROM wars have..." style="font-weight:600;font-size:13.4594px;line-height:1.25;font-family:&quot;ITC Franklin Gothic&quot;;-inkscape-font-specification:&quot;ITC Franklin Gothic Semi-Bold&quot;;fill:#fff;stroke-width:.280405"/></svg>