<svg xmlns="http://www.w3.org/2000/svg" xml:space="preserve" width="200" height="100" viewBox="14.8 13.8 200 100"><rect width="200" height="100" x="14.8" y="13.8" ry=".293" style="fill:#4d4435;fill-opacity:1;fill-rule:evenodd;stroke-width:.646721"/><g transform="translate(42.058 -94.651)scale(.82992)"><path fill="#78298b" stroke="#65067c" stroke-linejoin="round" stroke-width="1.246" d="M42.504 195.846c.436-.674 4.687-7.936 4.687-7.936l81.787-.17 5.12 8.744z" style="fill:#420a17;fill-opacity:1;stroke:#414143;stroke-opacity:1"/><path fill="#d7d8da" stroke="#000" stroke-linecap="round" stroke-linejoin="round" stroke-width="1.246" d="M69.082 202.674c8.528-.34 15.776-5.296 17.594-8.682 4.098-7.633 6.02-22.19 10.97-29.809 3.84-5.91 8.11-9.376 15.73-10.413 9.097-1.24 17.63 1.86 21.748 10.672 2.418 5.172 3.507 10.193 2.356 19.591-.506 4.123-2.597 14.413-9.325 20.766s-22.907 16.27-34.137 17.715z" style="fill:#98ae6f;fill-opacity:1"/><path fill="#f1f1f1" d="M104.93 217.478s-3.66-1.752-4.54-6.553c-.9-4.9 1.006-12.926 2.846-16.598 1.791-3.573 8.12-9.937 14.357-9.77 7.76.204 11.12 5.99 12.16 8.667 1.83 4.71-1.9 10.835-2.795 11.79-1.87 2-12.756 8.682-16.743 10.246-1.726.677-5.286 2.218-5.286 2.218" style="fill:#99989e;fill-opacity:1"/><ellipse cx="-39.552" cy="197.836" stroke="#892ca0" stroke-linecap="square" stroke-width="1.153" rx="2.531" ry="2.63" transform="matrix(-.93107 .36483 .36485 .93107 0 0)"/><ellipse cx="40.324" cy="197.096" fill="#fff" rx="1.245" ry="1.31" transform="rotate(-21.397)skewX(.001)"/><ellipse cx="59.498" cy="204.508" stroke="#892ca0" stroke-linecap="square" stroke-width="1.153" rx="2.531" ry="2.63" transform="rotate(-20.838)skewX(.001)"/><ellipse cx="-58.726" cy="203.769" fill="#fff" rx="1.245" ry="1.31" transform="matrix(-.93459 .35573 .35575 .93458 0 0)"/><path fill="none" stroke="#000" stroke-linecap="square" stroke-width=".93" d="M106.151 162.71a2.45 2.45 0 0 1 1.104-1.749 2.45 2.45 0 0 1 1.935-.29m22.355 2.575a2.45 2.45 0 0 0-1.178-1.7 2.45 2.45 0 0 0-1.945-.206"/><ellipse cx="32.352" cy="201.733" fill="#f1f1f1" rx="1.862" ry="1.952" style="fill:#d6d6d6;fill-opacity:1" transform="rotate(-21.397)"/><ellipse cx="59.103" cy="211.854" fill="#f1f1f1" rx="1.65" ry="1.73" style="fill:#d6d6d6;fill-opacity:1" transform="rotate(-21.397)"/><path fill="#d7d8da" stroke="#000" stroke-linecap="square" stroke-width="1.246" d="M70.8 201.202c-.634-.013-6.698-6.274-7.527-8.03-1.44-3.053-3.945-7.52-4.137-10.002-.195-2.516-.884-7.65-2.24-9.379-1.29-1.645-5.749-1.826-7.277.398s-.132 7.054-.132 7.054-7.589-1.955-9.964-.213c-2.375 1.743-2.987 4.811-.858 6.424 4.54 2.923 9.583.621 12.004 2.136 2.204 1.378 2.027 9.641 3.422 12.007" style="fill:#98ae6f;fill-opacity:1"/><path fill="#9232a9" stroke="#8708a8" stroke-width=".266" d="m42.667 196.546 91.85-.046.026 53.76-91.85.045z" class="fills" color="#000" style="fill:#420a17;fill-opacity:1"/><g class="strokes"><path fill="none" d="m42.667 196.546 91.85-.046.026 53.76-91.85.045z" class="stroke-shape" color="#000"/></g><path fill="#65067c" stroke="#892ca0" stroke-width=".266" d="M41.78 195.658v.888l.026 54.646 93.622-.045-.027-55.535zm1.772 1.775 90.078-.044.025 51.983-90.078.044z" class="fills" color="#000" style="fill:#414143;fill-opacity:1;stroke:#424144;stroke-opacity:1"/><path fill="#772b89" d="M62.984 201.665c-.993 0-1.799.806-1.8 1.802l.02 40.18a1.8 1.8 0 0 0 1.801 1.806 1.803 1.803 0 0 0 1.796-1.807l-.02-40.18a1.803 1.803 0 0 0-1.797-1.8" class="fills" color="#000" style="fill:#590e1f;fill-opacity:1"/><path fill="#af68d9" d="M48.4 201.672a1.8 1.8 0 0 0-1.797 1.802l.02 40.181c0 .996.804 1.803 1.797 1.805l14.585-.007a1.803 1.803 0 0 0 1.796-1.807c0-.995-.804-1.803-1.798-1.805l-12.783.006-.019-38.375a1.803 1.803 0 0 0-1.802-1.8" class="fills" color="#000" style="fill:#620f22;fill-opacity:1"/><path fill="#65067c" d="M48.4 201.672a1.803 1.803 0 0 0 .001 3.606l14.585-.007a1.803 1.803 0 0 0-.002-3.606z" class="fills" color="#000" style="fill:#310711;fill-opacity:1"/><path fill="#772b89" d="M84.86 201.654a1.8 1.8 0 0 0-1.8 1.802l.018 40.181a1.8 1.8 0 0 0 1.803 1.805 1.803 1.803 0 0 0 1.795-1.807l-.02-40.18a1.8 1.8 0 0 0-1.797-1.8" class="fills" color="#000" style="fill:#590e1f;fill-opacity:1"/><path fill="#af68d9" d="M70.274 201.662a1.8 1.8 0 0 0-1.8 1.8l.02 40.182a1.806 1.806 0 0 0 1.801 1.805l14.585-.007a1.803 1.803 0 0 0 1.796-1.807c0-.995-.804-1.803-1.797-1.804l-12.784.006-.019-38.376a1.8 1.8 0 0 0-1.802-1.8" class="fills" color="#000" style="fill:#620f22;fill-opacity:1"/><path fill="#65067c" d="M70.274 201.662a1.803 1.803 0 0 0 .002 3.606l14.585-.007a1.804 1.804 0 0 0-.002-3.607z" class="fills" color="#000" style="fill:#310711;fill-opacity:1"/><path fill="#772b89" d="M106.73 201.644a1.8 1.8 0 0 0-1.797 1.801l.02 40.181a1.798 1.798 0 0 0 3.071 1.276c.338-.339.527-.798.527-1.277l-.02-40.182a1.8 1.8 0 0 0-1.802-1.8" class="fills" color="#000" style="fill:#590e1f;fill-opacity:1"/><path fill="#af68d9" d="M92.15 201.651a1.8 1.8 0 0 0-1.8 1.801l.02 40.182a1.806 1.806 0 0 0 1.8 1.804l14.58-.007c.478 0 .936-.19 1.274-.529a1.807 1.807 0 0 0-1.275-3.082l-12.779.006-.019-38.375a1.8 1.8 0 0 0-1.802-1.8" class="fills" color="#000" style="fill:#620f22;fill-opacity:1"/><path fill="#65067c" d="M92.15 201.651a1.803 1.803 0 0 0 .001 3.606l14.58-.007a1.806 1.806 0 0 0 1.8-1.806 1.8 1.8 0 0 0-1.802-1.8z" class="fills" color="#000" style="fill:#310711;fill-opacity:1"/><path fill="#772b89" d="M128.604 201.633c-.993 0-1.799.806-1.8 1.801l.02 40.182c0 .48.19.938.527 1.277a1.8 1.8 0 0 0 2.548-.002c.338-.338.527-.798.527-1.277l-.02-40.18a1.8 1.8 0 0 0-1.802-1.8" class="fills" color="#000" style="fill:#590e1f;fill-opacity:1"/><path fill="#af68d9" d="M114.024 201.64c-.993 0-1.8.806-1.8 1.802l.02 40.18a1.806 1.806 0 0 0 1.801 1.806l14.58-.007a1.807 1.807 0 0 0-.002-3.61l-12.778.005-.019-38.376a1.8 1.8 0 0 0-1.802-1.8" class="fills" color="#000" style="fill:#620f22;fill-opacity:1"/><path fill="#65067c" d="M114.024 201.64a1.803 1.803 0 0 0 .002 3.606l14.58-.007a1.805 1.805 0 0 0 1.8-1.806 1.8 1.8 0 0 0-1.802-1.8z" class="fills" color="#000" style="fill:#310711;fill-opacity:1"/><path fill="#b4b5b6" stroke="#000" stroke-linejoin="round" stroke-width="1.025" d="M96.704 190.334s2.16 9.883 3.765 11.513c1.678 1.703 3.682 2.743 5.35 2.086a5.14 5.14 0 0 0 2.827-2.698c.492-1.12.552-3.009-.382-4.41-1.043-1.566-5.432-7.237-5.93-8.702m33.34 3.611s-2.16 9.883-3.766 11.513c-1.678 1.703-3.682 2.742-5.35 2.086a5.14 5.14 0 0 1-2.827-2.698c-.492-1.12-.552-3.01.382-4.41 1.044-1.567 5.432-7.237 5.93-8.703" style="fill:#635e2c;fill-opacity:1"/><circle cx="88.534" cy="223.354" r="13.91" fill="none" stroke="#65067c" stroke-width="2.825" paint-order="stroke fill markers" style="stroke:#414143;stroke-opacity:1"/><path fill="#d6a1e3" d="M102.444 223.354a13.91 13.91 0 0 1-13.91 13.91 13.91 13.91 0 0 1-13.91-13.91 13.91 13.91 0 0 1 13.91-13.91 13.91 13.91 0 0 1 13.91 13.91" style="fill:#aaa9ad;fill-opacity:1"/><path fill="none" stroke="#772b89" stroke-linecap="round" stroke-linejoin="round" stroke-width="4.708" d="M95.697 219.284a8.25 8.25 0 0 1-1.846 10.455 8.28 8.28 0 0 1-10.634 0 8.25 8.25 0 0 1-1.846-10.455m7.163-5.48v4.743" paint-order="stroke fill markers" style="stroke:#310711;stroke-opacity:1"/><g transform="translate(-91.6 125.812)scale(1.0232)"><ellipse cx="-166.937" cy="111.132" stroke="#892ca0" stroke-linecap="square" stroke-width="1.489" rx="3.269" ry="3.397" transform="matrix(-.72082 .28245 .28246 .72082 44.39 9.984)"/><ellipse cx="167.934" cy="110.176" fill="#fff" rx="1.608" ry="1.692" style="stroke-width:1.29168" transform="matrix(.72082 -.28244 .28246 .72082 44.39 9.984)"/><path d="M193.605 42.423c-.082.481-.03.98.15 1.44.53 1.352 2.015 2.035 3.316 1.525 1.155-.452 1.39.384 1.112-.873z" style="baseline-shift:baseline;display:inline;overflow:visible;vector-effect:none;fill:#635e2c;stroke:none;stroke-linecap:square;stroke-opacity:1;stop-color:#000"/><path d="M194.94 39.954c1.604-.628 3.425.22 4.064 1.852s-.12 3.492-1.723 4.12-3.424-.221-4.063-1.853c-.64-1.631.12-3.491 1.723-4.12m.421 1.073c-1 .391-1.49 1.552-1.069 2.625.42 1.073 1.568 1.59 2.568 1.199 1-.392 1.492-1.551 1.071-2.625-.42-1.073-1.57-1.591-2.57-1.2" style="baseline-shift:baseline;display:inline;overflow:visible;vector-effect:none;fill:#635e2c;stroke:none;stroke-linecap:square;stroke-opacity:1;stop-color:#000"/></g><g transform="translate(-46.259 135.992)scale(.79215)"><ellipse cx="207.594" cy="53.048" fill="#fff" stroke="#60605b" stroke-dashoffset="6" stroke-linecap="square" stroke-width="1.228" rx="6.966" ry="6.155" style="fill:#99989e;fill-opacity:1;stroke:#60605b;stroke-width:.755215;stroke-dasharray:none;stroke-opacity:1" transform="matrix(.99957 -.02944 .03446 .9994 0 0)"/><path d="M203.774 46.807q-.003 0-.008.003a.6.6 0 0 0-.21.078c-.313.168-.726.869-.726 1.231 0 .124.13.355.29.515.302.301.879.363 1.383.146a.4.4 0 0 0 .12-.07l.004-.003.003-.003v-.013l-.003-.002-.003-.003-.003-.003-.003-.002c-.037-.024-.17-.034-.416-.038-.84-.015-1.144-.273-1.015-.863.057-.258.229-.548.381-.643.195-.122.284-.243.27-.298l-.003-.003-.003-.007-.003-.003-.003-.002-.003-.003-.003-.003-.008-.005a.1.1 0 0 0-.032-.005l-.01-.002zm11.256 0q.003 0 .008.003.071.006.21.078c.313.168.726.869.726 1.231 0 .124-.13.355-.29.515-.302.301-.879.363-1.383.146a.4.4 0 0 1-.12-.07l-.004-.003-.003-.003v-.013l.003-.002.003-.003.003-.003.003-.002c.037-.024.17-.034.416-.038.84-.015 1.144-.273 1.015-.863-.057-.258-.229-.548-.381-.643-.195-.122-.284-.243-.27-.298l.003-.003.003-.007.003-.003.003-.002.003-.003.003-.003.008-.005a.1.1 0 0 1 .032-.005l.01-.002z" style="fill:#000;stroke:#000;stroke-width:.145481;stroke-opacity:1"/><path fill="gray" stroke="#000" stroke-linecap="square" stroke-width="1.058" d="M211.769 44.634c-.188-.48-.188-1.443-.746-1.441-.558.001-1.074-.36-1.623-.36-.55.002-1.066.361-1.624.362s-.558.964-.743 1.446c-.19.481 2.37 2.042 2.37 2.042s2.552-1.567 2.366-2.047z"/><path fill="none" stroke="#60605b" stroke-width=".769" d="M216.745 47.641c3.303-.008 5.934 1.065 7.996 2.411m-9.224.378c3.103 1.2 4.636 3.707 5.807 6.106m-19.378-8.614c-3.287.327-5.796 1.66-7.71 3.21m9.214-.561c-2.965 1.51-4.236 4.16-5.157 6.664" style="stroke-width:.47663;stroke-dasharray:none"/><path d="M209.345 46.906v1.41l-.727-.358c-.4-.198-.729-.448-.729-.553s-.062-.23-.141-.28a.1.1 0 0 0-.06-.015h-.004l-.003.003h-.003l-.003.002-.003.003-.003.003q-.023.036.023.156c.069.18.022.229-.184.19-.152-.03-.487-.41-.747-.846-.207-.347-.388-.585-.452-.608h-.015v.003h-.003v.002h-.003v.003l-.003.002v.018c.001.117.132.409.29.649.16.24.288.477.288.527v.005l-.003.003v.002l-.003.003c-.04.05-.265.122-.537.166-.42.07-.593.031-.744-.164a1 1 0 0 0-.142-.159l-.003-.002h-.006v.002h-.003v.006h-.005c-.005.023.02.099.058.23.072.239.035.327-.128.327-.283 0-1.222.446-1.252.59v.008l.005.003v.002h.003v.003h.006l.003.005.003.003c.071.02.379-.062.742-.2.92-.349 2.543-.432 2.725-.138.067.11.19.159.272.108.296-.183.612.087.633.542q.013.33.026.349h.006v-.005c.01-.02.026-.123.053-.3.047-.318.116-.389.305-.311.585.242.757.204 1.627-.358 1.313-.849 2.668-1.145 3.855-.845l.436.113-.363-.214c-.213-.126-.745-.217-1.284-.22-.87-.005-.913-.022-.82-.315.037-.116.04-.192.023-.222v-.003l-.003-.005v-.002h-.003l-.003-.003h-.006l-.003-.002h-.008a.14.14 0 0 0-.063.025.4.4 0 0 0-.162.308c0 .173-.848.665-.986.575v-.003h-.005v-.005c-.01-.044.036-.22.11-.416.057-.147.076-.263.061-.306q0-.002-.003-.005l-.003-.002-.003-.003h-.003l-.003-.002h-.015l-.02.007c-.074.046-.205.296-.292.555-.092.272-.405.642-.74.878l-.577.411v-.643c0-.354-.041-.944-.091-1.31-.052-.378-.185.623-.185.623zm2.653 2.914-.003.002h-.003l-.003.003-.003.002-.003.003q-.052.072-.053.525c0 1.209-.92 1.892-2.546 1.892-1.569 0-2.464-.65-2.482-1.801q-.005-.379-.033-.44l-.003-.002v-.003h-.003L206.86 50h-.009l-.008.003a.7.7 0 0 0-.09.187c-.19.47.063 1.337.511 1.758.334.313.862.518 1.481.59h1.047l.15-.02c.507-.07.981-.162 1.054-.207.448.144.411-.117.754-.6.314-.352.5-1.484.303-1.837a.2.2 0 0 0-.043-.053l-.003-.002h-.014z" style="fill:#000;stroke:#000;stroke-width:.145481;stroke-opacity:1"/></g><g transform="translate(-46.673 136.026)scale(.79215)"><ellipse cx="191.285" cy="118.627" stroke="#892ca0" stroke-linecap="square" stroke-width="1.489" rx="3.269" ry="3.397" style="stroke:#635e2c;stroke-opacity:1" transform="rotate(-20.838)skewX(.001)"/><ellipse cx="-190.289" cy="117.672" fill="#fff" rx="1.608" ry="1.692" style="stroke-width:1.29168" transform="matrix(-.93459 .35573 .35575 .93458 0 0)"/><path d="m223.83 42.917-5.326 1.434c.796 1.518 2.137 2.231 3.678 1.644 1.25-.476 1.644-1.695 1.649-3.078z" style="fill:#635e2c;stroke:#635e2c;stroke-width:1.48931;stroke-linecap:square"/></g></g><rect width="37.256" height="11.897" x="92.433" y="18.837" ry=".454" style="fill:#1f202f;fill-opacity:1;fill-rule:evenodd;stroke:#373745;stroke-width:.5;stroke-dasharray:none;stroke-opacity:1"/><path d="M24.393 20.036v9.233h4.132c.794 0 1.696 0 2.37-.498.645-.47 1.13-1.184 1.13-1.992 0-1.198-.781-2.073-1.925-2.301v-.027c.97-.243 1.669-.942 1.669-1.992 0-.875-.39-1.548-1.13-2.02-.633-.403-1.387-.403-2.114-.403zm2.154 1.642h1.305c.364 0 .929-.04 1.239.135a.96.96 0 0 1 .457.834c0 .31-.134.646-.39.835-.323.242-.767.215-1.144.215h-1.467zm0 3.661h1.588c.35 0 .78 0 1.09.175s.525.538.525.888c0 .377-.175.754-.484.956-.337.229-.835.202-1.225.202h-1.494zm12.719.848c.013-.929-.135-1.898-.7-2.678-.565-.781-1.548-1.212-2.503-1.212-2.127 0-3.325 1.629-3.325 3.648 0 2.032 1.333 3.459 3.378 3.459 2.315 0 3.11-2.02 3.11-2.356l-1.831-.134c0 .632-.606 1.076-1.211 1.076-.862 0-1.32-.659-1.32-1.467l.014-.336zm-4.401-1.171c.067-.78.403-1.427 1.278-1.427.862 0 1.104.687 1.144 1.427zm5.343-.579c0 .821.471 1.387 1.211 1.67-.686.282-1.372.672-1.372 1.52 0 .606.35.97.874 1.225-.619.134-1.184.538-1.184 1.238 0 1.548 2.436 1.588 3.526 1.588.808 0 1.777-.053 2.517-.363.78-.323 1.44-.942 1.44-1.857 0-1.494-1.346-1.75-2.543-1.817l-.862-.04c-.39-.014-1.117-.041-1.467-.135-.256-.081-.39-.243-.39-.525 0-.23.148-.39.336-.498.35.053.767.094 1.144.094 1.306 0 3.042-.471 3.042-2.086 0-.58-.161-.916-.538-1.333.054-.417.417-.592.794-.592.175 0 .35.04.525.067v-1.278a2.6 2.6 0 0 0-.552-.054c-1.023 0-1.413.296-1.548 1.332a5.6 5.6 0 0 0-1.817-.296c-1.332 0-3.136.485-3.136 2.14m3.11-1.05c.618 0 1.184.323 1.184 1.01 0 .7-.539 1.05-1.185 1.05-.66 0-1.09-.364-1.09-1.037 0-.646.458-1.023 1.09-1.023m2.018 6.42c0 .7-1.373.66-1.857.66-.431 0-1.05-.013-1.48-.135-.284-.08-.499-.228-.499-.551 0-.27.189-.458.43-.552.903.067 2.208.067 2.68.107.282.027.726.108.726.472m8.412-.538v-6.837H51.77v3.674c0 .35.027.74-.108 1.05-.175.404-.552.66-.996.66-.7 0-.754-.525-.754-1.077v-4.307h-1.978v4.307c0 .66-.04 1.305.336 1.898.39.619.983.767 1.67.767.928 0 1.628-.444 1.95-1.306h.028v1.171zm1.4 0h1.978v-3.674c0-.431.027-.821.23-1.212a.95.95 0 0 1 .834-.511c.996 0 .902 1.023.902 1.723v3.674h1.978v-4.226c0-.62 0-1.48-.377-1.992-.404-.552-1.036-.754-1.682-.754-.996 0-1.561.417-1.965 1.292h-.027v-1.157h-1.871zm9.664-2.1h-2.113v2.1h1.05l-1.05 2.154h.753l1.36-2.356zm8.964-4.75h-1.467v-2.14l-1.723.134-.175 2.005h-1.198v1.575h1.117v3.015c0 .673 0 1.494.552 1.952.444.363 1.198.444 1.763.444.364 0 .848-.054 1.238-.148v-1.494a7 7 0 0 1-.66.054c-.847 0-.914-.202-.914-1.104v-2.719h1.467zm7.052 2.503c0-.66.04-1.346-.376-1.885-.404-.524-1.077-.74-1.71-.74-.74 0-1.52.39-1.776 1.077h-.027v-3.338H74.96v9.233h1.979v-3.688c0-.404 0-.834.175-1.198.161-.336.578-.511.942-.511.861 0 .794 1.117.794 1.71v3.687h1.978zm7.565 1.265c.013-.929-.135-1.898-.7-2.678-.566-.781-1.548-1.212-2.504-1.212-2.126 0-3.324 1.629-3.324 3.648 0 2.032 1.332 3.459 3.378 3.459 2.315 0 3.11-2.02 3.11-2.356l-1.831-.134c0 .632-.606 1.076-1.212 1.076-.86 0-1.319-.659-1.319-1.467l.014-.336zm-4.402-1.171c.068-.78.404-1.427 1.28-1.427.86 0 1.103.687 1.143 1.427zm16.233-3.19v-1.79h-6.569v9.233h2.154v-3.607h3.513v-1.736h-3.513v-2.1zm2.907 3.796h1.574l1.414 3.647h2.395l-1.709-4.078c.996-.363 1.602-1.333 1.602-2.382 0-.902-.417-1.804-1.171-2.302-.714-.458-1.548-.471-2.369-.471h-3.89v9.233h2.154zm0-3.944h1.13c.404 0 1.023-.054 1.387.175.31.188.525.579.525.942 0 .404-.189.835-.539 1.05-.39.229-.875.188-1.319.188h-1.184zm10.121 7.726c1.252 0 2.342-.512 3.055-1.562.593-.874.875-2.153.875-3.203 0-1.117-.336-2.423-.996-3.324-.74-1.01-1.709-1.414-2.934-1.414-2.732 0-3.957 2.288-3.957 4.738 0 1.158.296 2.355.97 3.311.726 1.023 1.735 1.454 2.987 1.454m0-7.74c.673 0 1.064.283 1.333.902.269.62.336 1.414.336 2.087 0 .605-.067 1.372-.282 1.938-.243.686-.647 1.05-1.387 1.05-1.52 0-1.696-1.844-1.696-3.002 0-.579.081-1.373.296-1.925.256-.673.66-1.05 1.4-1.05m13.19.081h.054v7.524h2.154v-9.233h-3.379l-1.695 5.532-1.616-5.532h-3.378v9.233h1.817v-7.524h.027l2.248 7.524h1.48zm17.04.687h-1.561l-1.144 4.2h-.027l-.983-4.2h-1.817l-1.036 4.186h-.027l-1.09-4.186h-2.113l2.113 6.837h1.696l1.063-4.388h.027l1.063 4.388h1.777zm6.622 6.837c-.108-.336-.135-.673-.135-1.023v-3.19c0-.82.068-1.574-.632-2.14-.552-.457-1.467-.619-2.167-.619-1.44 0-3.055.485-3.257 2.14l1.87.175c0-.673.552-.996 1.185-.996.296 0 .633.094.808.323.201.256.174.606.174.902v.162c-.834.08-1.924.134-2.705.43-.902.337-1.534 1.023-1.534 2.033 0 1.292.942 1.938 2.153 1.938 1.023 0 1.615-.39 2.18-1.198-.013.35.014.713.095 1.063zm-2.154-3.001c0 .484.014.888-.269 1.319-.228.35-.592.565-.996.565-.552 0-.875-.363-.875-.902 0-.996 1.387-1.17 2.14-1.251zm3.42-3.836v6.837h1.978v-2.611c0-1.211.188-2.436 1.696-2.355v-1.979l-.337-.027c-.861-.067-1.265.687-1.467 1.413h-.027v-1.278zm10 1.655c-.472-1.278-1.346-1.79-2.692-1.79-1.454 0-2.921.606-2.921 2.288 0 .862.538 1.562 1.346 1.844.43.148 1.561.35 2.032.404.364.04.767.121.767.579 0 .511-.82.646-1.197.646-.633 0-1.373-.216-1.508-.915l-1.71.242c.364 1.534 1.697 2.019 3.123 2.019.754 0 1.508-.135 2.127-.566.579-.417.915-1.05.915-1.763 0-3.082-4.105-1.628-4.105-2.907 0-.498.62-.606 1.023-.606.646 0 1.157.27 1.332.916zm11.319.835c0-.66.04-1.346-.377-1.885-.404-.524-1.077-.74-1.71-.74-.74 0-1.52.39-1.776 1.077h-.027v-3.338h-1.978v9.233h1.978v-3.688c0-.404 0-.834.175-1.198.162-.336.579-.511.942-.511.862 0 .794 1.117.794 1.71v3.687h1.979zm7.497 4.347c-.108-.336-.135-.673-.135-1.023v-3.19c0-.82.067-1.574-.632-2.14-.552-.457-1.467-.619-2.167-.619-1.44 0-3.056.485-3.258 2.14l1.871.175c0-.673.552-.996 1.185-.996.296 0 .632.094.807.323.202.256.175.606.175.902v.162c-.834.08-1.924.134-2.705.43-.902.337-1.534 1.023-1.534 2.033 0 1.292.942 1.938 2.153 1.938 1.023 0 1.615-.39 2.18-1.198-.013.35.014.713.095 1.063zm-2.154-3.001c0 .484.014.888-.269 1.319-.229.35-.592.565-.996.565-.552 0-.875-.363-.875-.902 0-.996 1.387-1.17 2.14-1.251zm8.641-3.836h-1.494l-1.332 4.334-1.32-4.334h-2.099l2.342 6.837h1.575zm6.972 3.755c.014-.929-.134-1.898-.7-2.678-.565-.781-1.548-1.212-2.503-1.212-2.127 0-3.325 1.629-3.325 3.648 0 2.032 1.333 3.459 3.379 3.459 2.315 0 3.109-2.02 3.109-2.356l-1.83-.134c0 .632-.606 1.076-1.212 1.076-.861 0-1.319-.659-1.319-1.467l.013-.336zm-4.401-1.171c.067-.78.404-1.427 1.279-1.427.861 0 1.103.687 1.144 1.427zm7.887 4.253v-2.086h-2.113v2.086zm4.038 0v-2.086h-2.113v2.086zm4.038 0v-2.086h-2.113v2.086z" aria-label="Begun, the FROM wars have..." style="font-weight:600;font-size:13.4594px;line-height:1.25;font-family:&quot;ITC Franklin Gothic&quot;;-inkscape-font-specification:&quot;ITC Franklin Gothic Semi-Bold&quot;;fill:#fff;stroke-width:.280405"/></svg>