<svg xmlns="http://www.w3.org/2000/svg" xmlns:xlink="http://www.w3.org/1999/xlink" xml:space="preserve" width="1122.52" height="793.701"><defs><linearGradient id="a"><stop offset="0" style="stop-color:#5bcefa;stop-opacity:1"/><stop offset=".337" style="stop-color:#5bcefa;stop-opacity:1"/><stop offset=".337" style="stop-color:#f5a9b8;stop-opacity:1"/><stop offset=".433" style="stop-color:#f5a9b8;stop-opacity:1"/><stop offset=".433" style="stop-color:#fff;stop-opacity:1"/><stop offset=".543" style="stop-color:#fff;stop-opacity:1"/><stop offset=".543" style="stop-color:#f5a9b8;stop-opacity:1"/><stop offset=".64" style="stop-color:#f5a9b8;stop-opacity:1"/><stop offset=".64" style="stop-color:#5bcefa;stop-opacity:1"/><stop offset="1" style="stop-color:#5bcefa;stop-opacity:1"/></linearGradient><linearGradient xlink:href="#a" id="b" x1="46.548" x2="46.548" y1="471.537" y2="194.441" gradientTransform="matrix(3.69336 0 0 3.06204 390.666 -426.666)" gradientUnits="userSpaceOnUse"/></defs><rect width="1122.52" height="794.333" ry=".422" style="fill:#fff;fill-rule:evenodd;stroke-width:.95432"/><path d="M515.078 502.6c-9.764.005-17.005 16.614-7.715 22.023 5.882 3.423 7.744 3.436 13.955.115 8.248-4.414 6.256-18.116-3.144-21.574a8.9 8.9 0 0 0-3.096-.559zm34.984 32.755v29.498l12.48-1.877c6.865-1.028 13.368-2.415 14.452-3.08s1.973-6.461 1.973-12.88v-11.661h-14.453Zm-48.586 56.494c-8.444 0-11.056 1.278-14.228 6.929-3.487 6.212-3.43 7.628.61 13.795 9.82 14.986 32.406 3.282 26.434-13.7-2.112-6.004-3.968-7.024-12.816-7.024" style="fill:#000;stroke-width:8.21264"/><path d="M688.784 342.095c2.96.03 5.855-.819 8.15-2.724 5.883-4.882 6.407-21.576.756-23.856-15.035-6.067-27.345 2.002-23.916 15.666 1.647 6.562 8.499 10.85 15.01 10.914m131.468-53.339c2.773-.091 10.928-5.092 19.661-12.206l18.151-14.791-15.05-18.449-15.029-18.469-14.254 13.996c-7.838 7.693-14.254 15.975-14.254 18.41 0 3.673 9.977 19.321 19.92 31.25.163.195.459.273.855.26zm-89.6-6.52c2.938.102 6.09-.534 9.224-2.028 11.014-5.254 14.174-21.59 5.805-29.96-11.886-11.886-30.874-3.036-30.874 14.394 0 10.317 7.031 17.284 15.845 17.593" style="fill:#000;stroke-width:10.1787"/><path d="M70.136 785.14c19.8-9.414 34.985-11.2 54.925-6.458l11.35 2.698-3.729-11.58c-3.078-9.56-2.56-13.06 2.97-20.057l6.7-8.476 5.359 8.481c4.976 7.874 6.516 8.337 21.526 6.47 10.07-1.251 19.287-.624 24.44 1.662 6.619 2.937 8.604 2.852 9.92-.421.905-2.251 5.697-7.452 10.65-11.558 7.858-6.515 11.43-7.27 28.077-5.933 10.49.843 21.152.909 23.69.147 6.718-2.017 5.665-11.666-2.77-25.372-4.062-6.602-7.386-17.784-7.386-24.849 0-11.023 2.116-14.512 14.93-24.618 15.927-12.561 24.502-15.286 20.188-6.415-1.433 2.947-3.475 10.42-4.537 16.608-1.586 9.24-.231 12.66 7.583 19.138 5.233 4.338 13.625 7.888 18.648 7.888 8.802 0 9.065-.586 7.21-16.076-1.15-9.59-.064-19.781 2.69-25.262l4.615-9.186 2.566 11.638c3.4 15.425 11.091 22.191 10.96 9.643-.052-4.968-5.87-16.547-12.927-25.732-9.589-12.479-12.832-20.062-12.832-30.007 0-14.317 10.94-36.435 14.004-28.314 5.168 13.695 21.542 19.482 30.318 10.716 3.73-3.726 3.116-7.453-3.241-19.706-4.313-8.31-7.832-18.3-7.82-22.198.039-13.485 7.866-30.42 18.566-40.167l10.744-9.788.108 20.807c.093 17.943 1.356 21.843 9.174 28.324 15.826 13.122 38.948 8.758 38.948-7.35 0-7.316.197-7.37 7.366-1.99 9.717 7.29 14.771 23.29 11.323 35.843-1.526 5.556-7.286 20.906-12.799 34.11-10.911 26.135-10.502 36.14 2.02 49.338 5.358 5.647 10.892 7.799 20.058 7.799 13.807 0 15.828-3.925 7.001-13.6-7.34-8.046-6.847-30.439.935-42.435 5.915-9.116 6.448-9.319 7.645-2.903.708 3.793 4.495 8.32 8.416 10.06 15.33 6.801 32.01-10.43 27.301-28.205-3.249-12.263 3.048-10.723 14.424 3.528 11.171 13.996 12.84 31.759 3.97 42.258-10.188 12.06.305 17.517 12.615 6.562l7.15-6.362 4.218 10.596c3.356 8.43 3.112 13.016-1.191 22.438-7.883 17.256-6.171 29.971 4.199 31.192 7.045.83 8.31-.43 8.31-8.276 0-19.016 6.349-24.856 38.645-35.55 30.025-9.942 33.245-17.713 19.904-48.045-6.717-15.275-7.299-19.782-3.8-29.463 2.272-6.286 6.282-13.87 8.913-16.852 4.213-4.777 4.83-3.926 5.18 7.142 1.094 34.615 56.732 42.688 56.732 8.233 0-10.8-4.99-18.871-20.638-33.383-13.758-12.759-18.856-28.649-13.268-41.356 2.077-4.721 3.907-6.359 4.067-3.639.484 8.197 15.047 21.082 23.828 21.082 26.189 0 22.335-29.92-6.572-51.028-14.491-10.582-17.043-21.76-9.216-40.376 4.589-10.914 4.634-10.934 13.973-6.098 15.07 7.803 28.478-7.44 25.147-28.588-3.785-24.034 17.95-1.913 23.77 24.194 2.166 9.713 5.5 20.078 7.407 23.033 5.691 8.817 17.735 6.565 23.27-4.35l4.932-9.724 5.97 9.572c7.585 12.16 7.572 24.341-.044 39.357-9.762 19.252-9.566 39.829.472 49.503 7.407 7.139 9.783 7.775 18.998 5.088 5.793-1.689 12.81-7.01 15.594-11.826 4.394-7.6 4.21-11.088-1.392-26.428-4.577-12.533-5.603-21.097-3.528-29.449l2.926-11.776 2.458 11.219c1.353 6.17 5.292 14.438 8.755 18.372a11604 11604 0 0 1 15.406 17.558c11.66 13.315 12.371 38.46 1.643 58.06-4.018 7.342-7.305 17.967-7.305 23.612 0 17.785 21.575 28.14 40.831 19.597 16.602-7.366 23.643-36.125 12.722-51.964-6.98-10.123-6.932-31.754.095-43.02 7.033-11.276 10.595-11.614 8.094-.769-2.683 11.635 2.902 21.957 19.551 36.134 27.95 23.799 31.455 42.286 16.183 85.325-10.704 30.164-9.236 38.94 7.579 45.291 7.328 2.768 10.978 2.45 18.444-1.605 14.908-8.098 21.835-22.457 21.155-43.853-.646-20.34 2.839-31.052 13.89-42.701l6.97-7.346-1.99 12.304c-1.615 9.979-.086 14.69 8.087 24.93 21.68 27.16 32.218 68.614 23.047 90.66l-5.393 12.966 10.712-5.246c11.643-5.703 26.056-21.446 32.952-35.995l4.354-9.186 5.418 10.604c18.147 35.52 12.581 79.997-12.753 101.925l-9.73 8.421-495.142-.024-495.142-.03zm465.232-175.92c-6.13-12.286-5.64-29.207.844-29.207 4.022 0 11.422 19.365 11.422 29.892 0 14.335-4.91 14.06-12.266-.685zm413.39-55.485c-3.678-7.947-2.548-25.707 2.093-32.867 2.384-3.679 5.47-10.822 6.86-15.875l2.523-9.186 4.503 9.186c4.954 10.11 3.588 24.492-4 42.103-5.365 12.451-8.488 14.182-11.979 6.64zm-549.782-42.599c-11.416-14.68-12.879-28.11-4.522-41.508 6.444-10.332 9.293-11.717 6.611-3.214-1.01 3.201 1.64 12.333 5.886 20.292 7.655 14.348 10.281 33.508 4.952 36.13-1.524.749-7.34-4.516-12.927-11.7zm430.07-31.478c-11.202-14.229-13.554-25.276-8.23-38.65 5.8-14.573 9.678-15.973 10.1-3.648.19 5.537 3.008 14.34 6.265 19.56 6.099 9.778 8.061 29.834 3.151 32.212-1.523.738-6.602-3.525-11.285-9.474z" style="fill:url(#b);stroke:#000;stroke-width:3.363;stroke-dasharray:none;stroke-opacity:1"/><path d="M780.166 543.857c-.291-.563-.725-1.657-.629-1.812.097-.156-3.657-3.674-2.72-3.798s4.915-5.783 6.597-6.332c7.506-2.453 8.442-2.612 14.75-5.408l7.067-7.023 7.594-5.72c3.5-2.637 7.302-4.696 9.42-6.021 3.674-2.3 18.943.828 19.402 1.439.727.968-10.36 7.6-10.364 8.09-.006.793-14.345 12.375-26.153 18.956-9.7 5.406-21.791 9.01-23.25 9.01-.176 0-1.424-.82-1.715-1.381" style="fill:#fff;stroke:none;stroke-width:.337517"/><path d="M12.708-68.408c.037-.058 3.285-4.824 4.726-6.935 1.827-2.675 3.861-5.659 7.392-10.842 1.618-2.376 2.988-4.364 3.043-4.42a1.32 1.32 0 0 1 1.58-.203c.205.118.36.27.474.465.167.286.148.135.483 3.876.169 1.883.313 3.423.32 3.422.02-.002.68-.498 1.111-.836 1.255-.984 2.174-1.839 2.855-2.656.91-1.091 1.25-1.94 1.14-2.835-.032-.27-.038-.29-.136-.45-.171-.28-.456-.46-.921-.58-.463-.12-.964-.144-1.683-.08-.563.05-.848.1-1.626.282-.308.073-.583.134-.611.136-.052.004-.052.003-.01-.035.102-.093.68-.345 1.29-.562.79-.281 1.394-.434 2.024-.513.998-.125 1.735.022 2.28.455.528.418.8.973.87 1.78.09 1.01-.169 1.937-.846 3.036-.742 1.204-1.94 2.478-3.625 3.856-1.911 1.562-5.036 3.66-7.82 5.25-1.88 1.073-3.89 2.064-4.93 2.432l-.168.059-1.219 1.79-1.25 1.834c-.017.025-1.02.52-2.342 1.154-2.566 1.231-2.433 1.17-2.401 1.12m10.565-10.136a90 90 0 0 0 4.384-2.458c.303-.183.555-.347.56-.364.004-.018-.09-1.037-.21-2.265l-.215-2.233-1.251 1.835-2.614 3.833a170 170 0 0 0-1.362 2.011c0 .008.014.008.03 0zm5.539 3.883-.26-2.98.388-.254.644-.42c.326-.211.8-.533 1.15-.778.15-.105.282-.192.294-.193s.155 1.494.351 3.684l.33 3.686-1.318.118-1.318.118z" style="fill:#000;fill-opacity:1;stroke-width:.0702634" transform="matrix(5.77109 .341 -.341 5.77109 326.947 815.463)"/><path d="M29.189-18.274c-8.9-1.154-17.459-5.028-23.52-10.647-1.64-1.52-1.877-1.846-1.12-1.539.622.253 2.762.384 6.08.374 18.423-.06 56.255-12.112 63.627-20.271.617-.683 1.2-1.163 1.297-1.067.263.264 4.456-2.296 7.777-4.748 1.617-1.195 5.145-4.379 7.84-7.076 10.958-10.969 18.714-18.43 25.64-19.402.66-.093 1.2-.045 1.2.106 0 .587-3.3 5.208-6.458 6.89-6.065 3.231-12.455 7.94-20.404 15.037-4.951 4.42-8.81 7.103-14.472 10.061l-1.793.937-.892 2.742c-2.504 7.695-8.074 15.325-15.004 20.554-3.097 2.336-9.296 5.406-13.158 6.515-5.137 1.475-12.124 2.119-16.64 1.534M5.73-29.641c-8.227-2.085 12.28-14.843 37.953-21.24 3.996-.996 19.49-3.658 23.562-3.674 3.602-.014 4.58.085 5.541.562 1.502.744 3.882 2.744 2.834 3.989-4.52 5.371-26.37 16.837-46.048 20.856-8.225 1.68-20.944.241-23.842-.493m.419-22.293c-3.267-2.276-5.39-2.552-12.44-1.618-5.445.721-5.607.725-8.39.178-1.562-.307-3.812-.967-5.002-1.467-2.528-1.062-6.082-3.619-7.443-5.355l-.956-1.218 1.673 1.44c5.388 4.64 11.839 6.495 18.478 5.314 3.637-.647 7.164-.654 9.613-.02 2.102.544 4.944 2.115 5.534 3.06.475.76.475.76-1.067-.314m67.877-.35c0-.206-.558-.583-.85-.906-.293-.323-.677-.364-.605-.412.072-.049 3.285-2.555 4.785-3.536 4.297-2.81 6.807-5.14 10.953-10.163 5.083-6.16 11.564-12.622 14.734-14.69 3.694-2.41 5.58-3.034 8.706-2.875 4.045.206 8.176 2.433 5.095 2.747-3.056.312-7.854 2.457-12.135 5.427-3.959 2.747-7.517 5.818-13.44 11.6-6.34 6.19-7.205 6.911-11.652 9.728-3.304 2.092-5.59 3.803-5.59 3.08m33.971-28.934c1.184-.595 2.768-1.267 3.52-1.493 1.9-.569 1.525-1.106-.758-1.088-1.39.01-2.377.25-3.73.903-2.34 1.13-2.954 1.71-2.452 2.316.543.654 1.036.563 3.42-.638M-5.506-70.419c-.052-.749-2.948-3.584-4.318-4.229-.781-.367-2.907-1.032-4.724-1.479-1.817-.446-4.239-1.266-5.383-1.823-3.62-1.76-7.609-6.407-8.466-9.864-.11-.44.203-.017.694.94 1.26 2.46 4.921 6.114 7.34 7.329 1.083.544 3.417 1.347 5.187 1.785 3.42.846 4.558 1.326 6.605 2.789 1.467 1.048 3.51 3.866 3.26 4.494-.1.25-.18.274-.195.058m60.597-5.049c.31-4.103 3.087-7.859 8.658-11.706 1.862-1.286 4.098-3.118 4.97-4.071 2.96-3.239 4.908-7.79 5.42-12.656l.243-2.313.043 2.429c.082 4.56-1.846 9.78-4.96 13.427-1.716 2.01-2.737 2.85-7.071 5.805-4.352 2.968-5.913 5.015-6.973 9.142l-.473 1.837zM10.088-97.317c-.708-2.433-2.146-4.069-5.971-6.792-1.698-1.21-3.474-2.61-3.947-3.112-1.408-1.498-3.128-4.614-3.77-6.833-.769-2.648-1.108-5.44-.662-5.44.182 0 .331.406.331.902 0 1.273.876 4.07 1.922 6.138 1.233 2.437 3.193 4.558 6.087 6.585 4.304 3.017 6.882 6.608 6.65 9.264-.097 1.117-.113 1.099-.64-.712m28.178-.636c-.235-.671-.427-2.373-.427-3.781-.001-3.464.944-6.095 3.66-10.186 2.677-4.035 2.963-4.593 3.886-7.574.586-1.893.743-3.144.745-5.92.002-3.209-.183-4.399-1.241-8-.104-.352.098-.049.448.674 1.1 2.274 1.612 4.906 1.607 8.273-.008 5.459-.935 8.234-4.538 13.586-1.254 1.863-2.625 4.137-3.046 5.054-.902 1.963-1.259 5.374-.779 7.444.418 1.802.246 2.037-.315.43" style="fill:#000" transform="matrix(5.77109 .341 -.341 5.77109 326.947 815.463)"/><path fill="#4285f4" d="M39.271-51.491q-1.05 0-1.846-.684-.795-.68-.795-1.731 0-.961.495-1.59.491-.623 1.275-.994.78-.368 2.08-.772l2.703-12.77q.448-2.148 1.576-2.976 1.131-.827 2.498-.827 1.051 0 1.843.683.795.68.795 1.732 0 .515-.067.919h-1.052q.044-.492.044-.604 0-.359-.247-.56-.244-.203-.6-.203-.472 0-.92.415-.448.413-.648 1.42l-.38 1.767h1.632l-.156.896h-1.655l-2.572 12.079q-.447 2.168-1.543 2.983-1.096.816-2.46.816m-.515-1.988q.896 0 1.276-1.747l.288-1.296q-1.184.403-1.82.927-.64.525-.64 1.375 0 .269.269.505.268.235.627.235" style="fill:#000;fill-opacity:1;stroke-width:.1885" transform="matrix(5.77109 .341 -.341 5.77109 326.947 815.463)"/><path fill="none" d="M-137.882-380.988H49.421v35.443h-187.3Z" style="stroke-width:.685349" transform="rotate(3.38 -11183.967 8984.08)scale(.37377)"/><path fill="url(#paint0_linear_1016_57)" d="M-324.834-531.717c0-30.886 25.038-55.924 55.924-55.924h83.887c77.216 0 139.811 62.595 139.811 139.81s-62.595 139.812-139.811 139.812-139.811-62.596-139.811-139.811z" style="fill:#000;fill-opacity:1;stroke-width:.685349" transform="rotate(3.38 -11183.967 8984.08)scale(.37377)"/><path fill="#fff" fill-opacity=".5" fill-rule="evenodd" d="M-253.25-587.641h35.79v71.583h75.043c31.447 0 56.94 25.493 56.94 56.94 0 61.211-49.622 110.833-110.834 110.833-31.447 0-56.94-25.492-56.94-56.939v-75.042h-71.583v-35.792h71.583zm35.79 107.375v75.042c0 11.68 9.469 21.148 21.149 21.148 41.444 0 75.042-33.598 75.042-75.043 0-11.68-9.468-21.147-21.148-21.147z" clip-rule="evenodd" style="stroke-width:.685349" transform="rotate(3.38 -11183.967 8984.08)scale(.37377)"/><path fill="#fff" fill-opacity=".7" d="M-217.46-552.968c0-9.884-8.012-17.896-17.895-17.896-9.884 0-17.896 8.012-17.896 17.896v36.91h-36.91c-9.884 0-17.896 8.012-17.896 17.896 0 9.883 8.012 17.896 17.896 17.896h36.91v36.91c0 9.883 8.012 17.896 17.896 17.896 9.883 0 17.896-8.013 17.896-17.896v-36.91h36.91c9.883 0 17.896-8.013 17.896-17.896s-8.013-17.896-17.896-17.896h-36.91z" style="stroke-width:.685349" transform="rotate(3.38 -11183.967 8984.08)scale(.37377)"/><path fill="#fff" d="M-178.978-501.13c2.284 1.319 2.284 4.617 0 5.935l-9.853 5.689c-2.285 1.319-5.14-.33-5.14-2.968v-11.377c0-2.638 2.855-4.286 5.14-2.967zm-53.41 59.345c-1.318 2.284-4.616 2.284-5.935 0l-5.688-9.853c-1.32-2.284.33-5.14 2.968-5.14h11.376c2.638 0 4.287 2.856 2.968 5.14zm-5.935-112.755c1.319-2.283 4.617-2.283 5.935 0l5.689 9.854c1.32 2.284-.33 5.14-2.968 5.14h-11.377c-2.637 0-4.286-2.856-2.967-5.14zm-53.409 59.345c-2.285-1.318-2.285-4.616 0-5.935l9.853-5.688c2.284-1.32 5.14.33 5.14 2.967v11.377c0 2.638-2.856 4.287-5.14 2.968z" style="stroke-width:.685349" transform="rotate(3.38 -11183.967 8984.08)scale(.37377)"/><path d="M311.116 424.665c-9.765.005-17.005 16.613-7.716 22.023 5.883 3.423 7.745 3.436 13.955.115 8.249-4.415 6.256-18.117-3.143-21.575a8.9 8.9 0 0 0-3.096-.558zm-60.761 5.887c-2.261 0-6.233 1.196-12.544 3.737-7.654 3.08-14.85 6.408-15.992 7.378-1.787 1.521 1.145 20.865 4.684 30.862.64 1.807 2.183 3.272 3.417 3.272 3.799 0 28-8.454 30.396-10.618 1.243-1.124.274-8.355-2.165-16.073-2.44-7.719-4.893-15.473-5.438-17.227-.27-.868-1.001-1.323-2.358-1.331m95.745 26.867v29.498l12.479-1.877c6.866-1.027 13.368-2.415 14.452-3.08s1.973-6.46 1.973-12.88v-11.66h-14.452zm-48.586 56.494c-8.444 0-11.057 1.279-14.228 6.93-3.487 6.211-3.43 7.628.61 13.794 9.819 14.986 32.405 3.283 26.434-13.699-2.112-6.005-3.969-7.025-12.817-7.025z" style="fill:#000;stroke-width:8.21264"/><path d="M496.764 194.948c-2.959-.03-5.855.818-8.15 2.723-5.883 4.883-6.407 21.576-.756 23.857 15.035 6.066 27.346-2.002 23.916-15.666-1.647-6.563-8.499-10.851-15.01-10.914m-131.468 53.338c-2.773.092-10.927 5.092-19.661 12.207l-18.15 14.79 15.049 18.45 15.03 18.468 14.253-13.995c7.838-7.693 14.254-15.976 14.254-18.41 0-3.673-9.976-19.322-19.92-31.251-.162-.195-.459-.272-.855-.259m89.6 6.521c-2.937-.103-6.09.533-9.224 2.028-11.013 5.253-14.174 21.59-5.805 29.96 11.887 11.886 30.874 3.036 30.874-14.394 0-10.317-7.03-17.285-15.844-17.594" style="fill:#000;stroke-width:10.1787"/><path d="M832.449 510.735c-.702-1.312-1.097-2.528-.877-2.703s3.836-2.919 8.036-6.097 14.296-11.456 22.434-18.395c35.648-30.394 43.909-37.3 55.098-46.066 18.156-14.223 43.525-31.298 44.722-30.1.279.279-1.768 2.152-4.55 4.162-15.95 11.527-37.745 29.65-73.313 60.964-22.08 19.44-47.837 40.62-49.395 40.62-.483 0-1.453-1.073-2.155-2.385z" style="fill:#fff;stroke:#fff;stroke-width:.954642"/></svg>