<svg xmlns="http://www.w3.org/2000/svg" xmlns:xlink="http://www.w3.org/1999/xlink" xml:space="preserve" width="1000" height="1400.667"><defs><linearGradient id="c"><stop offset="0" stop-color="#fee7cd"/><stop offset=".5" stop-color="#feebd0"/><stop offset=".75" stop-color="#feebd3"/><stop offset=".994" stop-color="#fff7de"/></linearGradient><linearGradient id="b"><stop offset="0" stop-color="#feebd2"/><stop offset=".5" stop-color="#feecd2"/><stop offset="1" stop-color="#ffe9d1"/></linearGradient><linearGradient id="a"><stop offset="0" stop-color="#feebd2"/><stop offset=".5" stop-color="#ffe3c1"/><stop offset="1" stop-color="#ffe3c1"/></linearGradient><linearGradient id="f"><stop offset=".208" stop-color="#e59890" stop-opacity=".315"/><stop offset="1" stop-color="#ffead2" stop-opacity=".363"/></linearGradient><linearGradient id="d"><stop offset="0" stop-color="#f9a798" stop-opacity=".64"/><stop offset="1" stop-color="#fbcabd" stop-opacity="0"/></linearGradient><linearGradient xlink:href="#a" id="h" x1="517.725" x2="506.73" y1="515.18" y2="623.145" gradientUnits="userSpaceOnUse"/><linearGradient xlink:href="#b" id="i" x1="263.156" x2="242.169" y1="549.002" y2="746.516" gradientUnits="userSpaceOnUse"/><linearGradient xlink:href="#c" id="g" x1="379.196" x2="385.177" y1="537.746" y2="618.807" gradientUnits="userSpaceOnUse"/><radialGradient xlink:href="#d" id="m" cx="999.015" cy="450.781" r="63.91" fx="999.015" fy="450.781" gradientTransform="matrix(.99526 .09727 -.05229 .53499 28.804 118.309)" gradientUnits="userSpaceOnUse"/><radialGradient xlink:href="#f" id="n" cx="355.622" cy="454.839" r="78.231" fx="355.622" fy="454.839" gradientTransform="matrix(-.10773 .40117 -.75417 -.20252 711.664 374.51)" gradientUnits="userSpaceOnUse"/></defs><path fill="#faabbc" d="M646.67 723.274c-1.887 0-4.184.119-6.75 1.419s-4.681 3.932-5.639 6.279c-1.915 4.693-1.715 8.748-1.722 15.338-.025 20.607-6.605 36.554-16.002 45.793-9.398 9.238-21.23 12.533-35.7 7.757-18.202-6.007-39.735-30.334-44.996-52.222-.526-2.189-1.041-4.248-2.213-6.514-1.17-2.266-3.36-4.691-5.906-6.025-5.092-2.668-9.497-2.293-16.29-2.293-6.485 0-9.86-.62-14.92 1.683-2.53 1.152-5.698 5.005-5.964 8.284-.265 3.278.655 5.032 1.34 6.65 12.406 29.271 16.373 66.445 10.43 97.885-2.197 11.622-4.6 27.392-5.45 35.988-.702 7.115-2.004 11.243.798 17.086 1.4 2.921 4.363 5.2 6.738 6.19s4.405 1.35 6.736 1.816c4.494.899 10.76 4.31 15.688 8.75s8.396 9.994 9.07 13.062c1.247 5.677.921 7.067-4.762 15.655l-8.013 12.107a7.954 7.954 0 0 0 1.123 10.127l11.173 10.732c13.985 13.431 19.687 25.094 25.553 53.493a1315 1315 0 0 1 3.53 17.632c.45 2.352.812 4.318 1.054 5.707.121.695.213 1.25.264 1.592s.015.998.015-.295c0 3.475 2.296 5.938 3.616 6.868 1.32.929 2.21 1.185 2.994 1.42 1.569.468 2.792.595 4.185.705 2.786.22 6.029.163 9.623-.137l11.803-.987a7.954 7.954 0 0 0 7.287-8.181l-.935-29.07c-.645-19.991.671-33.441 4.324-46.46 5.05-17.996 18.375-41.023 34.367-60.814 15.993-19.79 34.932-36.474 49.16-42.885l15.705-7.076a7.95 7.95 0 0 0 4.666-7.799l-1.45-20.95c-1.744-25.194-10.562-46.556-35.425-87.718-5.76-9.537-10.363-16.447-14.48-21.386-4.117-4.94-7.545-9.205-14.625-9.205"/><path fill="#fec2cc" fill-opacity=".14" d="M650.677 727.339c-.932-.038-2.148.097-3.803.377l-9.033-1.615-1.04 11.548c1.413 19.94-1.967 46.7-12.984 56.604-8.595 7.727-20.48 12.877-29.722 12.877-12.29 0-28.925-7.112-39.997-17.101-12.3-11.099-24.263-38.946-24.386-49.678-.045-4.013-1.997-.596-10.23-.785-4.538-.105-11.53-.599-15.538-1.1l-7.287-.912-7.724 1.124c3.582 6.07 10.931 32.064 12.967 43.28 2.11 11.62 6.269 49.227 4.196 61.669-.917 5.5-1.753 14.564-3.924 21.356-4.09 12.803-.758 23.99 1.481 34.815l1.104 5.332.154-4.506.152-4.504 8.295.938c8.371.947 22.251 7.683 22.334 10.84.021.789 1.479 2.788 3.24 4.443 3.338 3.135 6.131 11.682 6.131 18.758 0 5.475-5.95 17.01-11.468 22.232l-8.7 8.213 11.083 12.283c9.248 9.324 11.915 15.077 16.758 24.558 6.79 13.289 8.114 17.149 11.327 37.895 1.192 7.7 1.148 17.623 1.513 19.373.638 3.053 11.091 4.083 18.883 3.268 4.469-.467 12.898 2.179 15.435 2.179 3.818 0 4.923-8.166 4.194-10.066-.485-1.263-1.09-9.649-2.133-17.556-2.949-22.356-1.672-47.104 6.734-68.13 9.169-22.932 27.536-52.827 46.868-72.03 11.114-11.041 41.248-9.31 44.575-19.447l9.535-10.949 2.106-13.06c5.388-33.411-14.787-52.213-46.895-102.884-5.398-8.518-10.432-16.544-11.188-17.834-.696-1.19-1.46-1.74-3.013-1.805m-1.243 8.047c3.272-.107 12.823 14.978 33.588 53.002 10.292 18.845 15.131 33.364 16.203 48.617 1.116 15.873.335 18.948-5.529 21.744-2.547 1.215-4.633 2.997-4.633 3.961-5.155 5.403-12.558 13.11-20.325 15.157-9.25 1.26-30.278 12.327-55.93 12.672-41.198.555-47.113 14.258-78.038-7.181l-20.204-14.007.728-15.344c.722-15.224 4.934-41.349 3.347-57.662-1.79-18.404-4.176-27.85-10.28-40.715-2.547-5.366-6.034-11.113-6.034-12.257 0-2.898 4.474-3.355 11.086-2.342 8.656 1.324 11.435 4.232 14.164 14.818 2.83 10.978 5.298 16.076 12.56 25.95 15.316 20.82 42.147 34.263 60.07 30.097 9.616-2.235 23.343-10.1 29.475-16.889 8.964-9.922 15.327-27.75 16.543-46.36.686-10.483 1.244-12.897 3.059-13.243a1 1 0 0 1 .15-.018M543.452 943.458c.336-.01.759.097 1.28.301 13.47 5.272 22.806 7.325 39.665 8.72 10.267.85 23.133 1.678 23.326 1.87 0 0-1.426 3.884-3.281 7.935-.605 1.32-13.124 31.32-9.126 64.983 1.886 15.883 3.008 18.984.615 20.513-1.634 1.043-11.394 2.092-15.137 1.106-2.803-.738-2.991-1.355-6.39-21.092-5.087-29.527-11.201-42.758-26.929-58.273-5.78-5.702-10.412-11.404-10.412-12.819 0-1.401 1.202-4.075 2.668-5.939s2.666-4.41 2.666-5.656c0-1.112.317-1.641 1.055-1.653z"/><path fill="#fefefe" d="M539.314 945.301c.795 2.018 4.906 4.473 7.918 5.466 3.011.993 7.248 2.582 10.557 3.74s5.693 1.887 10.128 2.548c4.435.662 10.921 1.258 18.302 1.655 7.38.398 15.654.596 23.928.795l81.775-88.634c-4.819.553-9.638 1.105-15.424 1.844s-12.537 1.667-20.745 2.46c-8.207.795-17.871 1.457-26.08 1.854-8.207.397-14.959.53-23.365.331-8.407-.198-18.468-.728-28.066-1.257-9.597-.53-18.732-1.06-25.02-1.589-6.288-.53-9.73-1.06-16.151-1.986s-15.82-2.25-22.505-3.177a2497 2497 0 0 0-14.629-1.986l-4.368 27.404c2.515 3.839 5.03 7.678 9.068 9.796s9.598 2.515 15.357 5.23c5.758 2.713 11.716 7.744 15.29 12.84 3.574 5.097 4.766 10.26 5.262 14.662.497 4.402-2.026 5.985-1.232 8.004"/><path fill="url(#g)" d="M397.021 535.096c-.888.093-1.617.337-2.343.613-5.134 1.952-19.56 2.833-31.739 1.285-4.521-.575-6.301-1.078-8.593-.705-1.146.186-2.81 1.386-3.276 2.496s-.412 1.666-.504 2.238c-.789 4.935-7.198 13.12-14.798 17.311-4.046 2.231-6.662 3.612-8.213 6.361-.776 1.375-.993 3.078-.76 4.53.232 1.45.768 2.737 1.434 4.166 1.001 2.151 2.662 4.249 5.99 6.38.11.071.484.247.6.319-.65.699-.85 1.53-.874 2.031-.024.52.055.828.121 1.072.133.488.272.741.41 1.004.277.526.59 1 .981 1.555.78 1.112 1.85 2.481 3.107 4.008 2.515 3.053 5.743 6.679 8.567 9.496 10.147 10.124 20.824 17.291 31.297 20.764 5.942 1.97 13.127 1.848 18.83-.387 11.401-4.469 18.467-13.63 24.64-30.988.623-1.752 1.19-3.36 1.602-4.551.206-.596.375-1.085.496-1.446a27 27 0 0 0 .21-.654l.042-.168c.02-.084.086-.002.086-.724l-.21-1.123-.42-.708c.821-.836 1.492-1.807 1.818-2.75.451-1.31.68-2.583 1.117-4.306.856-3.375 1.497-6.79 1.857-9.729s.596-5.13.049-7.31c-.246-.981-1.264-2.585-2.469-3.219s-2.243-.792-3.789-1.08c-6.1-1.134-15.533-7.099-18.603-11.523-.852-1.227-1.545-2.194-2.598-3.04-1.053-.845-2.733-1.358-4.065-1.218" transform="translate(205.25 175.214)"/><path fill="url(#h)" d="M517.725 515.18c-4.107-.012-8.241.614-13.395 2.738s-11.687 5.615-22.767 11.709c-6.095 3.352-15.416 8.284-20.477 10.838-4.215 2.126-6.504 3.27-8.31 4.447-.904.589-1.89.972-3.028 3.041-.569 1.035-.968 2.75-.719 4.207a6.46 6.46 0 0 0 1.303 2.938c.732.95 1.286 1.538 2.553 2.994a976 976 0 0 0 4.619 5.263c11.312 12.804 13.67 15.635 19.078 22.916 6.359 8.562 10.327 14.751 16.14 25.184 2.468 4.429 5.278 9.233 6.835 11.543l2.19 3.25a5.956 5.956 0 0 0 8.671 1.313l2.07-1.666c3.678-2.957 13.15-11.764 26.307-24.25l11.246-10.672a5.96 5.96 0 0 0 1.855-4.43l-.287-15.725v-.002c-.307-16.895-.964-22.006-3.75-29.716-3.095-8.57-6.455-14.988-11.486-19.495-5.031-4.506-11.574-6.406-18.648-6.425" transform="translate(205.25 175.214)"/><path fill="url(#i)" d="M228.434 545.701c-10.341.707-19.546 3.507-26.069 9.52-9.081 8.37-13.119 18.691-14.533 35.513-1.106 13.16-.75 17.04 1.67 24.473 1.608 4.938 4.916 12.852 7.783 18.813 2.495 5.186 5.535 13.162 6.201 15.732 3.21 12.386 6.116 34.839 7.381 58.697l1.301 24.526a7.31 7.31 0 0 0 4.021 6.146l8.497 4.26c15.61 7.825 31.313 12.766 52.046 16.484 6.564 1.177 11.31 1.884 14.944 2.106 1.816.11 3.278.18 5.226-.21.975-.194 2.161-.444 3.711-1.581s3.252-3.927 3.252-6.375c0-1.357-.123-1.447-.193-1.805s-.145-.677-.23-1.03a78 78 0 0 0-.653-2.458 234 234 0 0 0-2.002-6.721c-3.626-11.582-9.177-36.107-11.605-51.525-.62-3.94-1.497-9.114-2.348-14.28 1.52.165 3.081.086 4.225-.465 2.028-.975 2.778-2.139 3.308-2.95 1.06-1.624 1.291-2.643 1.613-3.8.645-2.313 1.06-4.934 1.438-8.119.755-6.37 1.21-14.72 1.148-23.222-.129-17.785-2.029-35.634-5.02-50.272-1.494-7.319-3.252-13.826-5.304-19.25s-4.076-9.793-7.928-13.213c-3.267-2.9-4.833-2.697-7.544-3.474-2.712-.777-5.97-1.516-9.614-2.219-7.286-1.406-16.04-2.64-23.998-3.24a75 75 0 0 0-10.724-.06" transform="translate(205.25 175.214)"/><path fill="#e4a092" d="M481.66 797.312c7.87-11.145 7.706-9.658 13.622-15.723 0 0 6.376 34.56 5.185 46.84-1.192 12.278-4.676 29.192-8.383 22.771s-7.636-36.176-8.53-45.608-1.894-8.28-1.894-8.28"/><path fill="#5bcfff" d="M516.55 1222.17c-14.503-.793-17.685 13.863-26.985 10.605-7.367-2.581-31.32 3.123-38.094-1.953-6.681-5.007-25.71-7.627-31.058-14.289-10.38-12.933-37.64-23.446-39.918-61.941l-7.91-66.48-1.436-17.704c-.985-12.158 2.392-29.499 2.712-32.615.69-6.717 6.818-32.91 8.74-39.307.741-2.47 2.378-6.906 4-11.069s1.771-10.938 1.927-11.894c.423-2.612-2.283-8.819-6.79-17.715-7.727-15.255-9.41-20.996-3.046-27.89 1.913-2.07 4.924-6.141 7.863-6.141 1.728 0 4.676 4.398 4.845 4.124.17-.274-4.157-2.72-6.336-5.922-13.14-19.303-19.977-32.078-19.977-35.154 0-7.724 12.537-25.84 25.24-31.182 4.07-1.712 11.677-.96 14.663-.4 2.538.477 9.536 4.267 10.656 9.337 1.198 5.42 3.756 24.013 3.4 30.002l-.5 8.39-4.805-.661c-4.419-.609-9.376-8.58-14.042-15.09-4.097-5.712-4.047-8.468-4.047-5.675 0 2.074 1.666 4.594 3.873 8.965 5.108 10.12 20.073 20.834 31.57 27.554 10.95 6.4 32.364 14.745 44.657 15.952 7.37.723 29.544-1.543 34.078-2.47 5.737-1.171 10.231.955 9.128.547-.58-.215-1.515 2.426-6.398 2.197-8.328-.39-8.419-1.39-8.871-2.51-.454-1.125-3.037-29.695-2.696-30.036.397-.397 6.966-.484 11.063 2.208 9.164 6.021 21.7 15.053 25.012 21.702 2.226 4.469 3.626 11.51.175 18.38-3.594 7.155-9.705 13.4-12.04 14.006-3.545.919-3.115.264 6.285 10.727 11.601 12.91 15.795 18.59 19.41 25.783 14.73 29.32 21.147 73.73 11.86 126.708-3.403 19.418-11.853 39.967-16.867 53.827-4.992 13.796-12.299 25.668-17.826 34.282l-4.866 7.583-2.552 2c-1.752-.058-2.244 3.32-4.098 3.22"/><path fill="#e4a092" d="M445.972 879.667c12.689 11.763 28.338 25.351 39.23 35.626 10.894 10.275 13.92 14.989 14.95 17.516-18.816-2.527-39.628-7.241-52.733-11.08-13.106-3.837-20.501-8.986-27.896-14.134l1.404-51.111c9.806 5.284 16.882 15.534 25.045 23.183"/><path fill="#5ccfff" d="M769.086 733.302c-.722.24-.772.515-.9.691a4 4 0 0 0-.305.504c-.178.343-.35.742-.535 1.215a42 42 0 0 0-1.166 3.502c-1.491 5.164-4.544 12.84-7.752 19.871s-6.663 13.526-8.63 16.08c-5.632 7.318-22.967 21.007-33.429 26.258a65 65 0 0 0-2.95 1.566 17 17 0 0 0-.964.586 4 4 0 0 0-.375.276c-.067.056-.14.117-.248.246-.109.129-.387.273-.387 1.035 0 .545.062.457.092.56s.063.206.104.325q.122.359.322.888c.264.705.622 1.62 1.017 2.594 3.025 7.444 4.915 22.43 4.518 37.461-.07 2.675-.18 5.21-.299 7.123-.059.957-.12 1.76-.178 2.332a14 14 0 0 1-.08.662c-.022.145-.105.293.026-.004-.123.28-.246.615-.254 1.067a2.3 2.3 0 0 0 .486 1.398c.63.761 1.345.912 2.201 1.096 1.712.368 4.425.553 9.23.822 4.789.269 13.38.751 19.095 1.074 5.667.32 12.152.994 13.798 1.354 5.581 1.22 13.755 4.36 20.155 7.418 2.322 1.11 3.964 2.099 5.615 3.078-16.583-4.362-45.099-6.7-59.168-4.754-9.67 1.337-30.401 7.376-37.736 11.068-16.246 8.179-41.065 29.898-53.854 47.01-11.213 15.004-22.895 40.39-28.103 60.975-3.342 13.207-5.2 28.857-4.52 38.68 1.321 19.062 8.12 39.206 18.05 53.31 4.772 6.776 14.086 16.055 21.052 20.982 9.263 6.553 24.953 14.026 33.615 15.883 1.664.357 4.983.834 7.625 1.11 10.19 1.063 25.26-.227 33.703-2.952 25.388-8.191 52.836-35.157 69.523-67.804 9.378-18.347 18.141-43.185 23.625-66.908.99-4.283 1.55-6.285 2.159-8.534-.19 2.005-.315 3.846-.797 6.582-.449 2.545-.737 4.448-.838 5.809-.05.68-.073 1.203.025 1.764.05.28.106.594.408.994.303.4 1.092.765 1.655.681 1.125-.166 1.286-.685 1.635-1.132s.699-1 1.109-1.705c.82-1.411 1.857-3.424 3.168-6.09 5.915-12.031 9.856-23.928 12.32-37.19 1.836-9.879 1.992-31.104.322-41.525-3.788-23.65-15.194-53.162-29.584-76.668-16.289-26.61-23.942-40.941-26.742-49.78a50 50 0 0 0-1.234-3.476 16 16 0 0 0-.54-1.217 5 5 0 0 0-.27-.482c-.105-.16-.136-.332-.62-.631-.472-.292-.783-.266-1.013-.262s-.406.036-.58.074a7 7 0 0 0-1.06.334 20 20 0 0 0-2.523 1.22c-.487.274-.925.475-1.386.702.176-.44.155-.52.449-1.142 1.495-3.172 4.524-8.792 9.725-18.196 2.351-4.253 2.811-9.005.47-12.166-.914-1.235-2.393-2.562-3.832-3.681-.719-.56-1.415-1.05-2.045-1.416a6 6 0 0 0-.935-.461c-.328-.122-.666-.35-1.465-.084"/><path fill="#e09f8d" d="m545.602 686.574 13.547 27.34c17.97 2.266 30.708 4.4 47.356-2.24 18.075 16.475 2.573-6.072 2.932-14.224l1.588-9.26z"/><path fill="#ffead2" d="M567.969 471.446a7.06 7.06 0 0 0-3.737 1.696l-5.43 4.767c-1.895 1.665-10.817 7.937-18.029 12.344-3.827 2.339-7.496 4.701-10.406 6.682a100 100 0 0 0-3.76 2.666c-1.044.785-1.585.974-2.957 2.627-.858 1.034-1.625 2.315-2.162 3.996-.91-1.244-2.315-2.666-4.43-3.362-2.31-.76-4.635-.323-6.06.23-4.479 1.743-19.24 3.64-33.107 3.18l-16.121-.533c-5.201-.17-8.792 5.154-6.686 9.913l3.604 8.14c4.506 10.184 12.37 36.182 15.431 51.543 1.631 8.187 2.7 22.181 2.986 41.957.12 8.242.344 15.92.616 21.723.136 2.902.281 5.323.441 7.193.08.935.16 1.72.268 2.465.053.372.109.728.215 1.19.105.46-.027.822.984 2.456 1.583 2.562 2.4 2.64 3.453 3.374 1.054.734 2.23 1.452 3.592 2.234 2.723 1.564 6.155 3.346 9.963 5.203 7.615 3.713 16.625 7.679 23.802 10.258 7.035 2.527 17.667 5.431 24.907 6.799 8.994 1.698 20.82 2.227 36.572 1.853 27.524-.652 44.637-4.788 68.863-16.652 18.914-9.262 33.502-20.368 49.79-37.791 20.986-22.451 35.502-49.878 41.368-78.434 1.43-6.954 2.7-16.742 3.487-25.062.393-4.16.662-7.905.74-10.826.04-1.461.046-2.67-.064-3.928-.056-.629-.087-1.218-.428-2.319-.17-.55-.366-1.26-1.2-2.37-.833-1.11-3.05-2.895-5.765-2.895-3.117 0-2.545.416-3.1.617-.554.201-1.092.422-1.691.68a82 82 0 0 0-4.07 1.902c.21-.105-2.82.958-6.155 1.676a130 130 0 0 1-11.246 1.875c-7.777.94-12.22 1.26-16.705 3.58-2.242 1.16-4.524 3.408-5.555 5.853-1.03 2.446-1.079 4.533-1.091 6.397-.008 1.176-1.891 5.586-5.137 8.851s-7.614 5.108-8.652 5.108c.774 0-4.167-1.386-7.762-3.799s-6.7-6.503-6.35-5.617c-.766-1.94-1.733-3.958-2.648-5.883.868-.658 1.779-1.678 2.435-4.328.532-2.145-.237-5.07-1.324-6.545s-2.09-2.078-2.96-2.594c-3.482-2.062-7.459.195-15.03-2.264-7.86-2.552-28.61-7.928-43.451-15.26l-26.201-19.896a7.06 7.06 0 0 0-4.047-.67m-25.084 42.903c1.637-.123 3.043.08 4.455.531 2.823.902 6.231 3.24 10.627 8.105 2.404 2.662 3.222 3.899 3.521 4.64.3.74.494 1.845.494 5.073 0 3.471-.17 4.285-.43 4.84-.259.555-1.382 2.032-4.509 5.158-3.734 3.735-6.53 5.4-8.674 5.975s-4.148.452-7.703-1.033c-9.593-4.009-13.97-10.449-13.793-17.633.105-4.243-.668-9.442-1.762-14.092.255.17.501.436.756.545 5.105 2.195 7.599.598 11.176-.695 2.338-.845 4.205-1.292 5.842-1.414m149.521 52.064c.004-.018.056.073-.045.354.014-.084.043-.343.045-.354m-11.986.572c.01.044.032.253.045.32-.172-.376-.081-.475-.045-.32m-50.758 6.842c.153.135.056.047.254.229 5.946 5.464 12.697 9.339 19.727 10.994-.034.127-.085.237-.118.365-4.365 16.992-8.282 28.51-12.181 35.854-3.9 7.344-7.278 10.365-11.852 12.322-5.476 2.343-6.37 2.318-11.64-.28-3.274-1.613-7.774-6.532-11.268-13.954s-6.1-17.107-6.99-27.42c-.368-4.26-.633-7.064-1.59-9.979 8.766-.215 18.71-2.397 30.121-6.346 4.067-1.407 5.435-1.672 5.537-1.785m67.281 8.55c.003.052.073.354.073.394 0 .179-.172.056-.073-.395m-4.377 1.421c.204.457.094.597.07.492-.01-.051-.048-.37-.07-.492"/><path fill="url(#m)" d="M1035.522 416.227c-13.013-.126-13.954.054-18.381 3.512-10.514 8.21-20.428 9.85-32 5.289-3.721-1.467-7.699-2.668-8.838-2.668-2.099 0-15.162 12.657-15.162 14.69 0 .981-10.811 9.771-22.291 11.29-.444-.036 11.467 7.8-1.352-.106l20.645 16.67-11.291 10.78c-7.828-4.712 6.313-7.158 0-10.738l3.827 26.163c20.812-2.27 23.813 9.633 24.056 9.628 1.013.91 16.309 3.262 17.746 3.582 9.77 2.173 10.15 2.161 14.347-.451 13.926-8.668 36.659-41.976 42.828-62.752 4.405-21.241 6.245-24.595-14.134-24.889" transform="translate(-320.09 137.353)"/><path fill="url(#n)" d="M423.255 374.108c-2.477 2.582-4.387 4.912-4.387 5.69 0 .981-23.63 1.866-35.11 3.384-5.04-.402-11.105-.785-13.558-1.12-1.466-.2-3.296-.757-4.068-1.24-2.727-1.704-13.303-5.006-16.098-5.025-1.558-.01-5.392.883-8.521 1.987-8.604 3.035-21.783 2.757-32.41-.686-10.92-3.538-12.446-3.622-23.569-1.289-28.278 8.619-16.458 29.433-15.388 33.541s-1.123 15.842-.41 27.105c.71 11.263 5.336 22.334 5.816 23.573 1.193 3.08 7.108 4.146 14.13 2.545 3.219-.734 17.627-7.22 27.894-7.62 24.837-.963 25.906 3.878 35.09-.656 4.288-2.117 8.326-3.524 8.972-3.125.16.099 42.479-4.578 61.617-6.683zm-45.326 11.14-.686 1.727c.063-1.036.212-1.711.686-1.727m-1.248 8.116 27.898 25.068c-17.39-10.469-35.786-20.138-34.11-20.152 3.936-.095 5.54-2.326 6.212-4.916" transform="translate(205.25 175.214)"/><path fill="#5b2a32" d="M625.76 577.898c-2.867-.081-5.881.332-10.09 1.181-3.824.772-9.772 1.672-13.12 1.987-3.404.32-7.272.726-8.667.914l-2.46.332a.765.765 0 0 0-.66.836l.356 3.464c.723 7.04 6.761 26.293 10.703 34.305 3.155 6.412 9.187 12.035 15.34 14.233 1.67.596 2.921.89 4.234.593s2.536-1.11 4.37-2.488c4.217-3.17 8.375-7.736 11.84-12.98 1.631-2.47 4.11-7.18 6.351-11.82s4.21-9.117 4.807-11.307c.555-2.041 1.255-5.395 1.785-8.303.265-1.454.485-2.793.623-3.8q.105-.76.14-1.25c.012-.164.016-.3.01-.438a1.3 1.3 0 0 0-.027-.229c-.02-.092-.014-.223-.23-.44-.192-.19-.256-.178-.323-.203a2 2 0 0 0-.18-.054 6 6 0 0 0-.408-.09 29 29 0 0 0-1.253-.201c-1.021-.146-2.384-.31-3.854-.463-2.846-.295-7.515-1.233-10.207-2.05-3.526-1.072-6.213-1.648-9.08-1.73z"/><path fill="#301d22" d="m779.06 480.544-10.687 8.386-10.69 8.385a3.7 3.7 0 0 0-1.37 2.309l-4.499 26.931c-7.176 42.963-13.901 62.236-29.691 85.506-9.097 13.406-25.033 30.996-34.512 38.309-3.348 2.583-5.552 4.42-7.066 6.236-.758.908-6.182 2.925-6.439 4.547s5.576 2.754 6.79 3.559c3.119 2.065 6.781 1.68 12.047.44 5.266-1.238 12.555-3.664 23.291-7.577 54.997-20.048 100.592-41.544 115.212-72.952 3.617-7.771-.001-23.165-1.288-31.929s-.64-21.603-6.927-33.715c-1.791-3.45-7.844-3.548-9.012-6.076a73 73 0 0 1-1.354-3.078c-.15-.372-.256-.667-.305-.815s.026-.377.041.498c-.039-2.21-.627-2.162-.941-2.617a16 16 0 0 0-1.05-1.334c-.804-.934-1.86-2.05-3.147-3.345-2.575-2.592-6.057-5.87-9.889-9.28l-13.756-12.24a3.71 3.71 0 0 0-4.758-.148"/><path fill="#e39b8e" d="M476.988 585.817c2.937-8.341 5.874-16.683 7.389-24.646 1.515-7.962 1.609-15.544.392-22.752s-3.745-14.042-6.272-20.875c3.464.468 6.927.936 11.748 1.357s11 .796 19.845-1.123c8.847-1.92 20.36-6.132 28.739-9.97 8.378-3.838 13.62-7.301 17.598-10.671 3.979-3.37 6.693-6.646 8.612-8.659s3.043-2.761 4.587-2.387c1.545.375 3.51 1.872 7.442 4.493s9.83 6.366 15.024 9.736c5.196 3.37 9.69 6.365 14.931 8.94 5.242 2.574 11.233 4.727 17.927 6.459s14.088 3.042 19.05 3.884c4.96.843 7.488 1.217 14.65 1.498 7.16.28 18.955.468 26.678.89 7.723.42 11.373 1.076 15.024 1.263a40.2 40.2 0 0 0 11.187-.983c3.884-.89 8.003-2.387 11.373-3.978s5.991-3.277 8.612-4.962c1.779-3.276 3.557-6.552-17.13-13.152-20.689-6.6-63.842-16.522-92.347-24.947s-42.358-15.352-71.565-13.573c-29.206 1.779-73.764 12.263-118.322 22.747z"/><path fill="#cd5e74" d="M596.274 584.479c-10.494 0-8.168 3.58-2.083 22.535 4.28 13.333 12.608 25.402 19.084 29.35 5.684 3.466 12.687.97 16.766-1.888 6.41-4.49 11.979-17.3 11.969-22.093-.017-8.18-9.753-18.986-24.602-26.797-6.635-3.49-13.812-1.107-21.134-1.107"/><path fill="#301d22" d="M581.515 243.13c-31.07 1.02-68.123 10.247-90.502 23.89-32.715 19.945-72.827 58.894-94.841 91.979-1.425 2.14-2.742 4.554-4.127 6.808 2.423-5.112 4.276-9.268 5.132-12.683.63-2.514-1.655.293-2.304-2.231-.65-2.524-3.293-9.734-4.248-11.191-1.961-2.993-5.328-3.453-8.188-5.62s-2.997-4.049-6.316-5.655c-9.184-4.447-14.456-7.336-30.477-6.495-11.998.63-21.78 2.545-31.181 7.473s-18.09 12.485-29.328 23.88c-30.143 30.565-44.232 71.822-41.493 119.837.737 12.917 2.921 27.063 5.971 35.738 7.325 20.833 21.705 48.167 33.018 61.824.052.064.101.145.154.21-2.468-.23-2.063 4.008-3.625 5.932l-7.393 3.194c-9.148 12.848-14.066 31.473-12.447 47.16 1.848 17.907 9.363 37.056 20.697 47.09 19.808 17.535 34.829 23.675 68.317 28.006 9.477 1.226 18.105 1.9 25.25 1.99s12.362 0 17.318-1.949c1.24-.488 10.647-3.058 12.676-5.309 1.014-1.126-5.925-.828-5.836-2.931.09-2.103-.634-3.79-1.291-4.875-2.63-4.34-4.776-4.802-8.639-7.381-20.217-13.502-37.55-39.091-43.662-65.024-.863-3.66-1.517-8.848-1.996-14.742.565 2.69 1.234 5.375 2.01 8.088 10.34 36.157 28.3 61.272 55.012 75.25 12.136 6.351 23.024 9.75 33.388 9.317 10.364-.435 19.744-5.11 27.344-12.883 11.636-11.902 15.85-29.438 17.383-62.094 1.385-29.5-2.035-49.436-10.029-81.31-2.842-11.334-6.937-22.047-9.98-27.966-.74-1.442 1.402-.742.499-1.984 5.042-.453 9.908-.908 16.13-1.373 38.377-2.865 46.696-5.35 79.016-23.515 5.108-2.871 9.841-5.206 14.266-7.348.058 1 1.73-2.02 2.437-.733.889 1.619 6.096 5.275 7.726 5.875-.52-.191 2.017-.466 3.395.152s1.868.975 4.097 1.996c4.456 2.04 11.451 7.927 17.615 10.804l22.248 5.112c.923.43 5.79 4.034 6.808 4.06l25.405 3.03c14.998.397 23.86.529 29.931.106 3.036-.21 5.424-.53 7.764-1.322 1.86-.63 3.6-1.815 5.004-3.115.179.567.152.96.498 1.66.813 1.647 2.643 3.49 4.53 4.295 1.885.805 3.489.84 4.81.767 5.283-.288 9.576-2.21 19.504-5.587 22.654-7.706 37.335-17.52 56.302-37.487 10.833-11.403 17.564-19.256 21.57-28.426s4.715-18.693 4.69-32.136c-.036-19.456-1.32-25.705-7.918-39.71-13.764-29.216-45.49-54.452-81.428-66.097-16.666-5.4-37.404-8.204-57.205-8.613-8.942-.185-17.556.164-25.627.996 1.788-1.91-1.83-3.725-2.556-6.237l-5.444-11.702c-3.534-9.372-4.173-16.789-11.352-21.797-7.178-5.009-15.01-8.28-25.585-8.877-4.14-.234-8.457-.267-12.897-.121M335.838 403.737c1.31 0 2.52.122 3.646.365-2.463-.582-5.527-.133-7.285.809-1.892 1.013-2.896 2.018-3.982 3.002-3.91 3.538-7.063 8.955-6.254 14.634.34 2.394 1.225 4.462 2.37 6.413l-.6-.473-.003-.002c-2.924-2.3-3.896-3.869-4.238-5s-.39-2.596.789-5.715c3.448-9.125 10.33-14.033 15.557-14.033m6.017 1.195c.369.158.752.298 1.102.489-.316-.18-.745-.324-1.102-.489m2.254 1.278c1.333.928 2.58 2.038 3.701 3.527.059.078.103.188.16.268-1.211-1.414-2.454-2.769-3.86-3.795m-12.914 31.002c1.312 1.373 2.356 2.626 2.787 3.273-.604.492-1.3 1.072-2.904 1.936-.609.327-1.032.66-1.608.992a7.42 7.42 0 0 0 1.725-6.201m-9.027 11.228c-.415.405-.846.844-1.371 1.602-.527.759-1.485 1.79-1.485 4.609 0 2.849 1.82 5.12 2.955 6.002s1.879 1.108 2.46 1.3c1.16.386 1.809.437 2.501.51 1.052.112 2.172.103 3.326.102-5.857.083-9.29-.736-10.31-1.408-1.195-.787-1.815-1.502-1.815-6.5 0-3.452.402-4.455.291-4.256-.11.199-.006-.175 2.575-1.51h.002zm35.996 12.443c.933-.032-.361-.2-.637.004.161.003.518-.009.637-.004m-23.487 1.502c-1.76.173-.47.092-1.798.123.514-.015 1.247-.097 1.798-.123m10.264 75.164c-.912 4.801-1.758 9.465-2.41 13.715.383-3.642.824-7.017 1.389-9.681.27-1.277.697-2.702 1.021-4.034"/><path fill="#b0716b" d="M536.617 749.388c-.193.29-.303.632-.418.957-.215.566-.286 1.163-.291 1.764-.001.662.17 1.305.35 1.937.16.573.382 1.126.622 1.668.149.333.315.658.471.987q.178.414.461.763c.204.247.42.48.678.67.266.199.585.303.898.399.353.102.717.16 1.08.21q.625.075 1.25.145.178.021.356.035c-.937-1.344-1.378-2.267-1.108-2.537.265-.264 4.443 2.005 9.286 5.041 8.357 5.24 24.472 11.424 25.941 9.955.376-.376-8.09-4.872-18.814-9.992-12.004-5.731-17.695-8.806-20.762-12.002"/><path fill="#b0726b" fill-opacity=".58" d="M630.541 751.289c-2.146 2.195-6.529 2.86-18.191 4.502-6.082.857-10.55 2.064-9.932 2.682 1.407 1.407 20.732-.956 24.555-3.002 2.461-1.317 2.75-1.293 2.16 2.012q.202-.078.396-.172a9 9 0 0 0 1.045-.586c.188-.132.362-.274.508-.453.177-.194.353-.391.508-.604a2.6 2.6 0 0 0 .324-.652c.083-.237.165-.486.11-.738-.105-.461-.395-.866-.577-1.297a46 46 0 0 0-.906-1.692"/><path fill="#60729e" d="M417.294 1209.999c14.393 13.266 48.235 25.02 48.235 25.02s29.83-1.495 43.677-8.479c9.08-4.579 17.018-13.885 17.018-13.885l-7.251.306-13.52-.797c-33.561-1.98-52.646-10.824-75.9-35.172-13.857-14.51-23.222-29.673-39.158-61.133l-14.202-28.036c-19.422 46.349 6.997 89.4 41.101 122.177m384.151-401.287-3.122 4.318c1.38 2.26 5.615 4.976 7.078 7.286 5.004 7.903 3.165 13.222 3.165 13.878 0 1.997-13.646 10.69-20.303 14.57-24.499 14.278-70.434 13.011-69.634 5.204.157-1.532-7.175 9.835-21.707 18.533-2.536 1.563-2.164 2.013-4.52 3.619l5.81-8.08c4.255-1.484 17.293-.182 21.48-1.31 27.3-6.837 49.202 2.582 73.708 13.43 10.862 4.539 19.549 44.542 19.549 74.971 0 7.89-1.553 36.118-1.553 36.118 6.01-7.902 18.415-30.383 21.166-40.776 3.125-11.806 9.432-51.61 6.301-64.281-6.435-26.04-17.21-48.51-37.418-77.48"/><path fill="#e59890" d="M527.469 546.154c.64.543 1.313 1.044 2.013 1.494 11.217 7.212 19.993 7.677 29.043 1.535a54 54 0 0 1 2.971-1.88v-1.149Zm158.949 17.172c-.266-.306-.484 5.243-.484 12.332 0 7.107.558 12.889 1.246 12.889 1.141 0 .42-23.863-.762-25.221m12.697 1.22c-2.102 0-.807 10.164 2.38 18.669.575 1.536.9 1.595 1.398.255.923-2.483-2.359-18.923-3.778-18.923M535.844 574.79q-.163.019-.414.426c-.68 1.1-1.588 5.6-2.018 10-.907 9.284.95 5.065 2.358-5.36.455-3.37.476-5.114.074-5.066m12.277 8.01h-.027c-.549.084-.796 2.44-.807 7.414-.011 5.124.553 9 1.313 9 1.708 0 1.708-13.357 0-16q-.27-.417-.479-.416z"/><path fill="#211116" d="M277.967 361.109c-14.015 17.437-23.134 33.64-29.133 56.146-3.841 14.413-5.163 14.287-5.206 33.166-.042 18.141-1.88 23.808 1.278 36.293 6.955 27.501 10.225 48.278 26.84 67.985l12.84 16.897-10.853 10.46c-12.747 12.285-11.402 13.272-14.11 29.999-2.14 13.225-7.954 11.653-5.827 23.455 1.242 6.898 3.885 15.832 5.873 19.853 4.563 9.231 19.12 24.67 28.703 30.445 9.738 5.87 25.814 11.782 38.726 14.245 19.33 3.686 54.084 4.694 73.015-.969 7.16-2.141 6.832-5.104 11.661-4.217 3.397.624 11.277 1.103 17.51 1.066 23.592-.139 36.077-9.753 48.855-37.625h.01c.236-.135 3.244 1.488 6.801 3.676 3.14 1.932 6.562 3.8 10.22 5.584l-6.318-11.364c-1.6-.871-23.67-5.036-14.29-7.739 8.22-2.368 7.47-6.594 7.898-9.25.28-1.736.566-13.358.635-25.825.106-19.186-6.016-22.255-8.976-38.055-3.744-19.986-8.94-48.237-16.836-64.878-2.694-5.677.043-4.886.37-5.213s2.217.024 4.2.777c1.982.754 11.012 1.37 20.066 1.37 12.7 0 18.393-.605 24.914-2.649 4.649-1.457 22.21-6.948 31.865-12.062 11.336-6.005 27.92-17.976 27.92-20.153 0-.637.212-.995.85-.996 1.403 0 2.113 5.548 9.888 9.848 5.625 3.112 36.896 20.118 71.103 27.13 34.208 7.013 71.353 4.031 86.45-4.84 1.994-1.173 4.058-1.7 4.586-1.173 2.01 2.01 1.077 42.991-3.093 56.039-13.545 42.371-34.324 80.572-73.25 99.693-8.375 4.113-21.645 10.717-30.759 13.546 0 0 15.826-1.134 27.84-7.192 7.385-3.723 7.922-3.798 17.63-2.447 11.323 1.575 20.712.347 36.087-4.719 5.134-1.692 15.613-5 23.287-7.353 32.38-9.928 59.487-25.932 79.17-46.745 17.78-18.8 23.58-31.047 23.633-49.921.046-16.255-6.075-31.891-18.387-46.965-6.689-8.19-23.314-22.353-32.097-27.346l-7.063-4.014 8.496-8.838c10.122-10.528 18.093-23.543 23.83-38.914 3.617-9.69 4.286-13.486 4.817-27.277.586-15.25-4.302-14.892-8.306-26.93-2.21-6.653-2.84-9.287-5.856-14.868l-13.06-5.064c4.298 7.004 7.37 14.233 8.946 21.313 1.174 5.276 1.288 8.061.354 8.666-.758.49-2.132 3.291-3.055 6.225-3.342 10.614-21.829 35.825-38.672 52.74-18.856 18.936-43.932 27.14-82.703 27.053-22.852-.051-63.306-5.746-74-10.416-2.2-.961-5.258-2.126-6.797-2.588-4.945-1.486-9.81-15.64-9.897-28.79l-.056-8.665-3.465 4c-22.814 26.343-25.673 29.147-38.709 37.978-7.475 5.064-15.276 10.066-17.334 11.115-7.918 4.037-43.394 11.659-60.254 12.946-15.782 1.204-35.12 5.129-36.53 7.41-1.178 1.905 4.262 7.524 10.562 10.908 6.015 3.23 11.68 2.828 15.943 14.684 6.095 16.954 12.532 53.53 13.486 76.625.416 10.083.493 18.334.17 18.334s-1.155-.551-1.852-1.223c-.696-.672-7.839-3.124-15.873-5.451-19.443-5.632-27.767-10.109-37.601-20.22-8.963-9.217-21.01-26.282-26.965-38.198-5.589-11.182-11-28.747-15.625-50.729-1.605-7.628-.631-21.232 2.02-28.209 2.93-7.71 4.705-1.493 0 0-9.763 3.1-27.396 40.514-32.794 68.487-1.132 5.867-4.276 8.355-4.419 8.557-.577.82-21.08-10.908-26.647-15.464-29.742-24.34-43.314-44.944-55.476-84.218-2.523-8.148-2.366-26.214.322-36.912 2.56-10.19 12.834-30.862 21.092-42.44 2.7-3.787 6.93-8.601 11.703-13.518zm519.65 138.281c5.42.022 17.7 16.73 23.663 32.192 9.75 25.283 13.265 45.687-9.292 69.468-9.028 9.516-24.135 24.595-36.25 31.537-3.3 1.89-7.07 4.292-9.82 4.795l-13.968-8.368v-5.605c0-7.294 6.583-33.482 13.914-55.36 5.833-17.407 22.287-54.006 27.367-60.878 1.496-2.024 2.719-4.603 2.719-5.733s.751-2.048 1.668-2.048"/><path d="M460.6 1241.14c-28.99-5.37-58.042-28.491-72.984-58.082-7.924-15.691-16.003-41.512-18.981-60.667-1.792-11.523-1.743-62.432.074-75.57 2.168-15.683 8.516-41.143 13.128-52.652 2.253-5.622 6.132-16.893 6.132-17.766 0-.9.914-1.237 2.109-.778 1.16.445 1.42 3.951 1.694 3.951s-2.314 6.865-4.379 11.815-4.468 12.9-5.34 17.667-2.606 13.467-3.853 19.333c-1.788 8.415-2.245 17.282-2.166 42 .09 28.395.44 33.078 3.723 49.935 1.993 10.231 5.126 23.075 6.96 28.543 4.338 12.92 13.96 32.057 21.299 42.36 19.167 26.908 49.848 41.672 78.46 37.755 34.594-4.737 54.776-34.642 67.886-100.593 11.854-59.633 8.731-107.409-8.996-137.648-2.478-4.227-9.364-12.877-15.302-19.223-5.939-6.346-10.797-12.196-10.797-13s1.17-1.462 2.601-1.462c2.737 0 11.015-13.152 12.775-20.299 1.991-8.08-17.763-27.03-29.731-32.324-8.433-3.73-7.683-5.687 1.738-4.531 16.44 2.016 36.617 18.457 36.617 34.657 0 4.917-5.476 14.71-11.713 20.946-3.219 3.22-5.35 6.277-4.736 6.796s4.62 3.872 8.906 7.45c19.482 16.272 28.905 37.287 34.662 77.305l1.726 12 13.617-.15c7.489-.083 13.93-.465 14.315-.85s-.231-6.016-1.368-12.516c-3.68-21.035-2.006-48.596 4.12-67.817 10.334-32.434 40.373-74.274 67.403-93.886 15.16-10.998 19.142-13.245 28.012-15.8l8.038-2.314-.642-18.667c-.566-16.478-1.142-20.152-4.907-31.333-5.073-15.065-11.77-28.55-24.5-49.334-18.662-30.466-22.093-36.144-22.51-37.247-.233-.617-3.573-.813-7.423-.434l-7 .687v14.857c0 30.598-9.577 50.325-29.183 60.115-13.106 6.543-24.542 5.797-41.544-2.713-18.101-9.06-36.527-34.719-39.206-54.598l-.899-6.667-14.25-.325c-7.839-.178-15.963-.69-18.054-1.135l-3.803-.811 3.507 5.984c10.421 17.782 15.432 40.62 15.432 70.338 0 25.421-1.585 37.858-6.958 54.616-4.38 13.664-4.315 11.668-1.65 50l1.088 13.447-2.876-9.48c-1.143-3.77-3.278-9.986-4.195-14a4717 4717 0 0 0-4.795-20.634c-1.72-7.333-3.497-16.933-3.949-21.333s-1.956-13.4-3.344-20c-3.07-14.61-5.366-35.42-5.294-48 .082-14.195 2.861-6.615 6.601 18 2.495 16.421 5.771 29.422 7.289 28.923.779-.256 2.192-5.518 3.14-11.694 2.785-18.132.052-56.644-5.545-78.143-3.577-13.74-7.646-21.363-12.36-23.155-1.747-.664-11.5-2.424-21.675-3.91-16.996-2.483-19.318-2.546-28.582-.773-11.818 2.26-15.731 4.521-20.695 11.955-6.243 9.348-7.242 12.95-7.902 28.515-.634 14.96-.607 15.13 4.461 28 2.805 7.122 5.815 13.549 6.69 14.282 5.14 4.31 12.55 50.835 12.55 78.8v17.67l7 3.959c18.336 10.366 48.952 18.23 77.667 19.947l16 .957-7.153 2.334c-5.453 1.778-11.672 2.333-26.164 2.333-17.988 0-19.864-.258-34.847-4.786-8.71-2.632-19.872-6.9-24.806-9.483-15.972-8.363-31.466-24.911-35.651-38.076-2.642-8.31-.952-8.267 4.473.115 4.784 7.393 16.224 18.598 17.592 17.23.683-.682-2.668-25.93-4.866-36.667-1.53-7.47-2.033-7.788-11.244-7.105-13.63 1.01-34 18.35-34 28.941 0 3.242 7.753 16.919 16.508 29.12 4.12 5.743 7.492 10.849 7.492 11.346s-1.65.668-3.667.381c-3.163-.45-4.262.395-8 6.151-4.996 7.693 2.364 19.018 6.05 26.247 3.653 7.165 7.15 18.077 6.122 19.104-1.364 1.364-9.913-3.815-14.023-8.497-2.071-2.358-4.791-7.378-6.046-11.154-2.225-6.7-9.964-13.884-7.064-21.639 2.742-7.331 6.165-11.452 12.782-15.39 2.323-1.381 1.995-2.043-4.352-8.776-16.61-17.622-18.239-34.182-4.737-48.177 9.802-10.16 24.972-15.145 37.427-12.297l4.491 1.027-.52-17.83c-.454-15.513-.902-18.434-3.447-22.474-13.517-21.463-18.304-36.75-17.317-55.311 1.437-27.044 12.233-39.951 38.018-45.452 10.47-2.234 11.84-2.239 26.125-.104 8.29 1.24 22.518 4.388 31.616 6.998 17.266 4.951 38.208 7.251 48.48 5.324 5.79-1.086 16.728-10.439 16.728-14.303 0-1.391-2.1-6.7-4.666-11.795-5.295-10.516-6.482-11.339-24-16.648-13.625-4.128-25.997-9.482-35.669-15.433-3.642-2.24-6.706-3.89-6.81-3.664-12.685 27.669-25.472 37.511-48.855 37.603-6.233.025-14.406-.458-18.162-1.073-5.458-.893-8.537-.567-15.334 1.622-17.18 5.534-48.383 7.224-67.837 3.673-19.663-3.589-64.177-16.637-73.619-61.88-9.758-46.756 21.378-68.521 25.039-70.57 1.944-1.088 1.143-2.571-5.953-11.021-20.468-24.378-30.87-46.315-37.53-79.144-12.682-62.519 25.37-138.203 81.044-161.192 13.686-5.65 36.285-7.09 51.686.43 11.023 5.38 22.585 16.188 23.945 22.382 1.15 5.235 2.73 5.388 5.253.509 3.782-7.314 20.595-27.79 33.222-40.46 33.62-33.735 67.142-53.6 106.57-63.152 18.655-4.52 47.95-4.772 61.87-.533 21.746 6.623 31.045 16.745 37.444 40.759 2.292 8.604 2.339 8.661 6.336 7.804 18.944-4.062 32.586-4.222 53.52-.627 22.55 3.872 31.584 6.282 44.774 11.943 18.37 7.885 31.072 16.556 45.815 31.276 15.59 15.565 22.577 26.463 28.665 44.707 4.021 12.05 4.191 13.401 3.604 28.667-.53 13.791-1.2 17.587-4.818 27.277-5.727 15.343-13.753 28.403-23.758 38.657-4.61 4.725-8.24 8.734-8.064 8.91.175.174 5.06 3.413 10.855 7.196 20.845 13.608 39.536 36.673 44.187 54.528 2.22 8.527 2.445 23.498.481 32.12-4.91 21.549-39.212 55.365-70.729 69.726-11.129 5.07-26.584 10.552-49.555 17.576-22.47 6.871-28.608 7.8-40.06 6.065l-9.635-1.461-13.294 6.253c-7.312 3.44-19.895 8.41-27.962 11.047l-14.666 4.793-.396 8.285c-.65 13.626 4.997 19.049 19.838 19.049 12.137 0 29.06-6.341 51.995-19.483 29.236-16.752 41.505-18.84 55.492-9.441 13.266 8.913 18.314 22.492 17.531 47.156-.264 8.305-.04 15.1.496 15.1s10.957-20 10.957-20-.98 1.629-.54 4.48c.697 4.511-11.382 33.6-17.004 41.26-5.494 7.483-22.175 21.199-31.94 26.26-3.536 1.834-6.658 3.463-6.937 3.62-.28.157.405 2.257 1.52 4.667 4.144 8.946 6.352 39.442 3.544 48.927-1.04 3.516 31.28 1.054 45.622 4.728 9.352 2.396 26.988 10.298 28.522 12.78.766 1.239.448 1.493-1.115.893-7.677-2.946-32.662-6.52-46.252-6.618-12.635-.09-17.766.528-29.156 3.51-7.602 1.991-17.058 4.941-21.013 6.557-17.024 6.954-47.404 33.447-59.632 52.004-21.412 32.49-32.967 73.31-28.949 102.266 5.629 40.562 27.834 67.446 66.75 80.813 10.77 3.699 33.538 3.345 45.333-.706 27.485-9.438 55.509-38.274 72.019-74.107 7.723-16.761 16.41-42.71 19.986-59.7 1.663-7.9 3.542-14.686 4.176-15.078 1.573-.972 1.448 4.603-.284 12.681-2.618 12.207-.606 12.079 5.27-.335 19.615-41.44 17.808-82.202-5.85-131.973-4.029-8.477-10.365-20.002-14.079-25.61-10.177-15.368-22.234-37.857-24.117-44.985-1.848-6.992-2.392-7.309-7.168-4.18-1.807 1.185-3.286 1.782-3.286 1.327 0-1.451 6.03-13.284 9.744-19.12 5.725-8.996 4.634-14.587-5.703-19.881-2.593-1.329-.096-4.678.539-4.48 10.014 3.133 19.42 7.395 19.42 16.084 0 3.88-7.524 16.902-10.769 18.638-1.41.755-2.564 2.411-2.564 3.68 0 3.467 8.746 17.62 22.412 36.266 8.29 10.41 14.822 21.926 21.555 33.333 3.128 5.106 8.752 17.636 12.27 27.333 8.91 24.56 11.517 45.831 8.538 69.689-2.832 22.687-9.129 37.738-24.117 57.645-7.456 9.903-7.223 9.412-10.007 21.053-11.518 48.145-43.592 92.766-76.975 107.088-9.243 3.965-26.565 7.84-35.01 7.834-10.909-.01-31.773-5.696-43.733-11.917-5.777-3.006-14.485-8.75-19.352-12.764-9.707-8.006-21.407-23.51-23.82-31.563-.846-2.826-1.889-4.942-2.317-4.7-8.572 4.832-14.455 6.544-20.49 5.964-4.257-.409-7.087-1.422-7.868-2.817-2.22-3.966-3.753-2.265-3.753 4.163 0 7.017-2.859 33.254-6.019 55.237-2.944 20.486-11.436 48.404-20.203 66.422-6.5 13.358-8.855 16.724-18.286 26.13-9.654 9.63-12.052 11.27-22.159 15.162-9.706 3.738-13.343 4.427-25.333 4.8-7.7.239-16.7-.065-20-.677M732.313 780.2l18.954-18.19v-16.884c0-13.44-.55-18.5-2.696-24.81-5.795-17.04-11.494-23.22-22.383-24.266-8.906-.855-13.873.95-34.642 12.6-9.746 5.466-20.996 11.438-25 13.27-4.004 1.834-7.28 3.633-7.28 4s4.56 5.65 10.134 11.739c14.547 15.894 24.751 30.006 33.528 46.367 4.22 7.866 8.293 14.316 9.052 14.333.758.018 9.908-8.154 20.333-18.159m-128.224 10.988c7.61-3.543 12.137-8.725 17.05-19.52 4.762-10.46 10.128-29.935 10.128-36.76 0-5.174-.347-5.852-3-5.863-5.532-.024-16.381-6.155-20.829-11.77-5.986-7.559-7.061-12.109-4.864-20.581.994-3.831 1.677-7.096 1.519-7.254-.159-.16-4.314.338-9.234 1.104-4.92.765-16.741 1.195-26.27.953-9.53-.241-17.325-.277-17.324-.08 0 .199 1.572 2.848 3.492 5.889 9.27 14.685 3.948 30.18-13.471 39.221-8.653 4.491-8.755 5.618-1.607 17.757 8.958 15.215 26.136 30.808 40.522 36.783 9.81 4.074 15.339 4.102 23.888.121m-216.858-94.08c1.246-.787 2.272-.746 2.803.113.46.745 3.13 1.163 5.931.93l5.094-.426-13.745-8.588c-20.894-13.054-35.705-31.53-44.901-56.014-8.41-22.388-10.568-49.334-6.547-81.745 3.079-24.821 16.303-60.01 28.744-76.489 4.73-6.264 9.777-9.822 11.495-8.104.351.351-2.36 5.232-6.026 10.846-10.52 16.116-11.792 20.227-20.233 65.427-6.536 35.002-6.622 41.94-.777 62.752 10.514 37.439 21.996 55.017 46.137 70.634 18.473 11.95 34.464 15.259 48.35 10.005 19.908-7.53 28.355-30.882 28.236-78.058-.052-20.971-.595-26.977-4.301-47.59-2.605-14.489-6.11-28.793-9.083-37.071-4.787-13.326-4.917-13.518-11.458-16.832-3.638-1.844-6.404-3.564-6.146-3.822.259-.259 13.368-1.147 29.133-1.975s32.863-2.374 37.996-3.437c10.78-2.23 25.833-9.136 41.976-19.256 17.77-11.139 32.098-17.267 31.996-13.683-.016.55-2.416 2.688-5.333 4.753s-5.305 4.28-5.305 4.924c0 1.743 5.577 5.323 8.292 5.323 1.301 0 11.218 4.447 22.037 9.882 19.518 9.806 19.78 9.892 33.67 10.999 7.7.613 18.5.897 24 .63 18.313-.89 27.302-.82 30.684.238 2.904.908 3.546.526 4.83-2.874 1.068-2.83 2.678-4.185 5.782-4.867 5.816-1.277 7.233.523 4.586 5.829-1.188 2.38-1.926 4.562-1.64 4.848.719.72 25.318-6.879 35.303-10.905 18.157-7.32 35.547-21.516 52.808-43.11 14.647-18.323 17.822-31.832 13.792-58.67-4.117-27.418-19.171-49.447-45.981-67.286-32.004-21.295-60.011-28.237-109.497-27.138-21.995.488-22.002.489-33.828 5.516-6.506 2.766-12.104 4.753-12.441 4.416-.338-.338-.007-1.746.734-3.131 1.8-3.363 12.341-8.945 22.202-11.756 4.4-1.255 8.184-2.441 8.408-2.637.7-.611-3.865-17.025-5.728-20.592-3.352-6.418-12.024-14.65-18.345-17.414-5.861-2.563-8.139-2.72-30.667-2.117-27.463.734-39.239 3.058-65.438 12.913-14.653 5.512-30.23 13.7-30.23 15.89 0 .66-6.29 5.483-13.979 10.717-33.027 22.48-73.449 71.099-87.44 105.168-2.285 5.565-5.652 13.339-7.482 17.276s-3.032 8.287-2.671 9.666c.36 1.38.25 2.509-.247 2.509-.496 0-2.257 4.35-3.912 9.666-4.044 12.988-6.044 15.733-5.1 7 3.798-35.179 9.32-53.418 23.68-78.232 2.833-4.895 5.151-10.355 5.151-12.134 0-5.504-7.1-13.664-15.438-17.743-6.641-3.25-9.587-3.81-22.679-4.31-26.626-1.02-38.105 3.482-58.95 23.116-32.713 30.813-46.1 63.438-46.217 112.637-.064 26.737 3.077 39.582 16.983 69.46 7.26 15.599 13.006 24.723 22.134 35.15 10.304 11.769 19.217 28.723 15.1 28.723-.747 0-5.569-4.645-10.716-10.322l-9.36-10.322-3.555 3.322c-5.323 4.973-9.405 12.825-12.514 24.074-3.454 12.494-3.515 20.656-.251 33.368 7.314 31.865 30.9 50.183 62.3 55.95 26.992 4.684 53.766 6.527 57.794 3.98M320.6 467.848c-10.01-4.055-15.855-19.174.556-25.457 6.454-2.47 7.444-4.815 2.515-5.954-10.07-2.326-15.523-20.228-.592-34.533 7.613-7.293 19.74-7.054 27.58.544 4.471 4.334 7.461 12.907 9.28 26.61.91 6.846.822 6.783-7.91-5.652-6.319-9-12.185-14.348-15.736-14.348-3.078 0-7.409 5.63-8.38 10.893-.864 4.68-.538 5.246 7.476 13.016 5.167 5.008 7.9 8.593 7.128 9.349-.687.674-4.847 3.24-9.242 5.703-4.46 2.498-8.203 5.574-8.47 6.958-.444 2.308.252 2.419 9.992 1.591 5.758-.489 13.62-1.371 17.47-1.96 3.85-.59 7-.66 7-.158 0 2.225-6.023 8.233-11.43 11.402-7.77 4.554-18.907 5.37-27.237 1.995M597.35 675.8c13.108-1.507 33.669-7.502 47.625-13.884 39.632-18.126 71.717-53.913 86.445-96.42 4.031-11.633 6.847-27.01 8.567-46.772 1.035-11.896.265-13.143-5.586-9.044-3.864 2.706-13.762 4.862-26.924 5.864l-11.124.846-.404 6.496c-.463 7.435-3.062 11.559-11.243 17.838-6.967 5.347-11.14 5.46-18.94.514-7.267-4.609-11.833-10.12-11.833-14.282 0-1.691-.601-3.447-1.337-3.901-1.079-.667-1.695-1.626-1.695-1.626s4.442-4.437 6.33-4.91c4.708-1.182 4.236-3.569-.517-2.618-8.103 1.62-52.869-17.099-83.716-35.007-4.207-2.443-4.306-2.438-6.868.311-5.63 6.043-14.736 12.56-26.197 18.746-10.139 5.473-12.065 7.043-12.422 10.125-.493 4.268 1.155 4.598 8.217 1.648 9.268-3.873 14.754-2.572 24.205 5.743 6.584 5.79 8.53 9.81 8.607 17.779.053 5.49-.613 6.938-5.897 12.815-7.765 8.636-15.245 11.106-23.722 7.832-7.564-2.922-16.453-11.365-17.636-16.75-.518-2.362-.556-6.355-.084-8.874.59-3.14.21-5.506-1.204-7.526-1.135-1.62-2.064-5.213-2.064-7.983s-.45-5.029-1-5.02-4.803 1.21-9.452 2.667c-9.403 2.948-35.74 3.747-44.135 1.34-2.513-.721-4.878-1.002-5.256-.624-1.697 1.696 13.387 21.754 20.714 61.934 5.469 23.537 7.845 47.936 3.944 72-.796 3.041.005 3.83 9.136 9.005 32.307 18.312 69.18 25.912 105.466 21.738m10.148-39.076c-2.965-2.384-7.284-7.82-9.598-12.08-4.533-8.344-9.253-27.967-9.282-38.587-.016-5.766-.3-6.333-3.172-6.333-3.06 0-10.921-5.036-9.726-6.231.326-.327 3.948.381 8.048 1.573 7.094 2.062 8.148 2.03 21.81-.688 7.895-1.57 16.725-4.063 19.621-5.539 4.52-2.303 5.465-2.41 6.673-.759.773 1.059 4.732 4.052 8.797 6.652 6.773 4.333 8.11 4.697 15.994 4.36 4.732-.202 6.69-.109 4.35.208-4 .54-4.346 1.032-5.752 8.166-3.133 15.886-10.724 36.098-16.123 42.928-6.412 8.112-11.116 10.663-19.66 10.663-5.44 0-7.53-.756-11.98-4.333m23.091-8.264c9.84-10.079 13.038-21.212 14.53-23.514 1.687-2.506 3.452-7.256 3.923-10.556.47-3.3 1.233-7.35 1.695-9 .77-2.747.396-3-4.44-3-2.903 0-8.637-1.155-12.74-2.566-7.031-2.42-7.982-2.448-16.542-.497-4.995 1.139-12.595 2.257-16.89 2.485-4.293.229-8.16.769-8.592 1.2-1.265 1.265 2.36 16.696 5.895 25.094 3.23 11.575 8.806 25.065 23.62 27.61 1.348.005 5.64-3.26 9.541-7.256m-29.069-6.07q-737.38-666 0 0m107.752 34.665c7.3-2.97 17.484-6.646 22.633-8.17 5.149-1.522 16.862-7.041 26.028-12.264 39.28-22.377 62.693-45.31 68.841-67.424 1.949-7.01 2.035-9.362.629-17.23-1.88-10.515-8.369-26.225-14.535-35.188-4.387-6.375-5.27-8.499-2.935-7.055.734.453 1.334.283 1.334-.379 0-.66-2.836-3.546-6.303-6.412-10.857-8.975-16.91-14.436-19.444-17.543-1.346-1.65-3.03-3-3.742-3-1.104 0-8.613 5.75-20.845 15.96-1.891 1.58-3 3.987-3 6.518 0 7.65-7.88 50.26-11.95 64.604-11.366 40.076-44.421 74.106-58.6 84.675l-10.116 7.54 4.666.9c7.371 1.418 13.11.257 27.34-5.532M824.6 526.882c0-2.583-5.087-11.157-6.62-11.157-.943 0 1.717 9.46 3.45 12.263 1.15 1.862 3.17 1.157 3.17-1.106M252.111 314.117c-10.647-6.347-22.286-16.69-25.729-22.866-1.255-2.252-2.026-2.335-8.58-.921-4.74 1.022-18.775 1.412-41.06 1.14l-33.86-.412-2.452-12c-3.187-15.596-3.475-58.396-.507-75.333 4.093-23.358 4.75-25.334 8.424-25.334h3.322l-.93 13c-.513 7.15-1.483 28.3-2.156 47s-1.64 37.245-2.148 41.21c-.919 7.177-.908 7.206 2.288 6.143 5.33-1.773 56.436-2.383 68.292-.814 8.396 1.11 11.341 2.062 12.748 4.12 1.006 1.47 2.575 2.675 3.487 2.675s3.224 1.232 5.14 2.74c4.434 3.487 24.46 14.593 26.314 14.593 2.018 0 .942-23.71-2.027-44.667-2.166-15.294-2.274-19.607-.92-36.666.845-10.634 1.53-22.285 1.523-25.891-.007-3.607.648-10.357 1.457-15 1.199-6.885 1.937-8.443 4-8.443 2.227 0 2.562 1.158 2.799 9.667.148 5.317.229 11.467.179 13.667-1.066 47.064-.703 65.931 1.439 74.666 3.038 12.395 5.04 31.961 3.989 39l-.846 5.667h-6.271c-5.18 0-8.3-1.21-17.915-6.94m-41.729-55.969c-3.125-1.512-4.432-4.821-4.378-11.091l.034-4 1.883 4.333c1.76 4.05 2.314 4.334 8.474 4.334 5.432 0 7.317-.68 10.73-3.869 5.093-4.757 5.92-12.72 1.468-14.134-4.167-1.322-10.66-7.321-10.66-9.85 0-2.964 2.571-5.48 5.6-5.48 1.32 0 2.4-.827 2.4-1.838 0-1.01.939-2.615 2.086-3.567 2.914-2.419 1.422-7.216-4.049-13.014-4.747-5.032-5.928-5.03-12.973.028-4.75 3.41-4.154-.704.753-5.2 4.373-4.009 5.817-4.602 9.674-3.976 6.463 1.049 12.424 5.763 15.302 12.101 3.254 7.166 3.166 10.656-.433 17.06-2.703 4.809-2.773 5.401-.774 6.52 1.209.676 3.236 3.947 4.504 7.268 2.899 7.59 1.148 14.778-4.822 19.801-6.589 5.544-18.337 7.71-24.819 4.574m-28.906-11.831c-6.623-5.21-2.976-15.759 5.49-15.882 6.203-.091 6.811 12.854.792 16.85-2.398 1.592-3.18 1.472-6.282-.968m1.79-28.852c-6.074-2.171-7.178-10.763-1.914-14.904 7.97-6.27 16.367 6.054 9.644 14.155-1.432 1.726-4.236 1.998-7.73.749"/><path fill="#d20b58" stroke="#b60b4c" stroke-width="2.5" d="M347.9 766.081a14 14 0 0 0-2.005.037c-3.71.365-4.87 1.417-7.825 7.095-1.908 3.667-3.529 6.825-3.6 7.018l-.001.01h-.004c-.174.143-2.507-.657-5.274-1.813-5.317-2.222-21.983-2.268-24.183-.068-.588.588-.961 3.796-.832 7.131.338 8.739 5.941 14.138 19.056 18.363 14.408 4.642 16.308 4.433 21.908-2.402 5.912-7.215 11.635-19.558 12.46-26.875.585-5.191.349-5.702-3.36-7.238-1.646-.682-4.17-1.162-6.34-1.26z"/><path fill="#d20b58" stroke="#b60b4c" stroke-width="3" d="M853.824 268.598c-3.58.16-8.016 2.796-12.521 8.15-2.513 2.987-4.117 3.915-5.258 3.047-13.842-10.533-20.827-12.768-28.295-9.052-7.212 3.588-8.06 5.702-5.246 13.07 3.45 9.035 13.76 18.69 26.574 24.887 5.893 2.85 11.979 5.181 13.524 5.181 6.82 0 17.817-17.873 18.996-30.875.87-9.588-2.54-14.642-7.774-14.408z"/><path d="M201.244 158.778c-31.79-.082-46.409.346-48.935 1.436-5.069 2.185-7.3 7.315-11.315 26.011-3.036 14.141-3.582 20.356-4.084 46.479-.556 28.932.392 40.47 4.512 54.845.616 2.149 3.491 2.33 36.246 2.301 19.567-.018 37.884-.568 40.705-1.222 5.112-1.187 5.157-1.16 13.906 8.115 8.41 8.914 21.421 17.909 31.112 21.562h12.968q.49-.303.885-.67c2.282-2.113 1.153-26.24-1.92-41.039-3.305-15.915-3.4-18.379-2.79-72.447.277-24.681-.046-40.225-.854-41.033-2.744-2.744-26.792-4.225-70.436-4.338m-48.254 8.145 13.461.802c15.421.92 52.955 2.941 79.793 4.297 14.434.73 18.334 1.325 18.334 2.803 0 1.032-.577 5.893-1.281 10.8-.704 4.909-1.99 20.323-2.86 34.257-1.416 22.72-1.333 26.984.811 41.334 1.315 8.8 2.657 22.149 2.982 29.665.326 7.517.086 13.608-.53 13.536-3.319-.39-30.31-17.251-33.122-20.69-.733-.897-5.648-2.278-10.922-3.07-11.248-1.69-58.46-1.83-66.906-.2l-5.826 1.126.912-6.184c.502-3.401 1.455-20.883 2.121-38.85.666-17.966 1.622-40.982 2.123-51.146zm66.004 18.423a5.3 5.3 0 0 0-1.111.157c-3.438.899-12.42 10.576-11.38 12.26 1.346 2.176 3.987 1.764 7.772-1.214 1.865-1.466 4.003-2.668 4.752-2.668.75 0 3.208 2.735 5.463 6.077 4.709 6.976 4.323 8.727-3.181 14.45-2.602 1.985-4.73 4.71-4.73 6.054 0 2.47 9.55 12.087 12.003 12.087 2.866 0 1.195 7.007-2.568 10.77-3.145 3.145-5.048 3.897-9.858 3.897-6.143 0-7.578-1.284-7.578-6.776 0-1.407-.536-2.558-1.191-2.558-3.011 0-3.89 11.47-1.143 14.914.917 1.149 2.867 2.744 4.334 3.546 1.467.803 4.696 1.478 7.178 1.5 12.382.112 23.36-7.675 24.826-17.609.895-6.07-1.5-13.832-5.22-16.92-1.816-1.507-1.752-2.253.59-6.842 3.133-6.143 3.293-10 .675-16.267-2.996-7.171-13.73-15.091-19.633-14.858m-33.781 9.584c-1.166.03-2.226.949-4.494 3.02-6.563 5.994-5.307 14.772 2.525 17.652 5.007 1.841 7.965.886 10.113-3.27 2.938-5.68.855-12.894-4.61-15.974-1.656-.933-2.627-1.45-3.534-1.428m2.107 30.952c-9.794 0-14.034 10.418-7.16 17.593 5.802 6.056 9.877 4.604 12.473-4.449.85-2.962.795-5.899-.16-8.795-1.164-3.525-2.139-4.35-5.153-4.35"/></svg>