<svg xmlns="http://www.w3.org/2000/svg" xml:space="preserve" width="1000" height="500"><path d="M92.236 1.373c1.893.001 3.041.733 3.434 2.191.223.828.495 1.194 1.04 1.395 1.35.497 5.768 3.626 6.136 4.346.616 1.205 3.294 4.658 5.154 8.572 2.067 4.35 4.213 11.178 5.865 18.441 1.065 4.68 2.11 12.393 2.84 17.135 1.89 12.27 4.145 29.778-8.305 30.127-7.197-.565-14.674-15.082-28.228-20.178-6.709-2.328-31.2-2.327-37.906 0-13.555 5.096-21.03 19.613-28.229 20.178-12.45-.349-10.195-17.858-8.305-30.127.731-4.742 1.776-12.456 2.84-17.135 1.653-7.263 3.799-14.092 5.866-18.441 1.86-3.914 4.537-7.367 5.154-8.572.368-.72 4.785-3.85 6.135-4.346.546-.201.818-.567 1.04-1.395.393-1.458 1.541-2.19 3.434-2.191 1.993-.001 3.224.732 3.496 2.086.201.998.325 1.108 1.924 1.723 20.506 8.388 30.706 8.38 51.195 0 1.6-.615 1.723-.725 1.924-1.723.273-1.354 1.503-2.087 3.496-2.086" style="display:inline;fill:#000" transform="matrix(-5.30194 0 0 5.30194 824.578 24.792)"/><path d="M381.7 221.5a7.05 7.05 0 0 0-7.078 7.083v19.002a2.49 2.49 0 0 1-2.497 2.492h-19.002a7.05 7.05 0 0 0-7.084 7.083v18.483a7.05 7.05 0 0 0 7.084 7.083h19.002a2.49 2.49 0 0 1 2.492 2.492v19.002a7.05 7.05 0 0 0 7.083 7.084h18.488a7.05 7.05 0 0 0 7.078-7.084v-18.997a2.49 2.49 0 0 1 2.492-2.492h19.008a7.05 7.05 0 0 0 7.078-7.083v-18.483a7.05 7.05 0 0 0-7.078-7.083h-19.003a2.49 2.49 0 0 1-2.497-2.492v-19.002a7.05 7.05 0 0 0-7.078-7.083z" style="fill:#dfdfe7;fill-opacity:1;fill-rule:evenodd;stroke:none;stroke-width:3.00303;stroke-miterlimit:7;paint-order:stroke markers fill"/><circle cx="500.002" cy="267.138" r="14.225" style="font-variation-settings:normal;vector-effect:none;fill:#dfdfe7;fill-opacity:1;fill-rule:evenodd;stroke-width:37.3205;stroke-linecap:butt;stroke-linejoin:miter;stroke-miterlimit:4;stroke-dasharray:none;stroke-dashoffset:0;stroke-opacity:1;-inkscape-stroke:none;stop-color:#000"/><g style="fill:#dfdfe7;fill-opacity:1" transform="translate(175.423 24.792)scale(5.30194)"><circle cx="61.219" cy="31.906" r="2.683" style="font-variation-settings:normal;opacity:1;vector-effect:none;fill:#dfdfe7;fill-opacity:1;fill-rule:evenodd;stroke-width:7.03902;stroke-linecap:butt;stroke-linejoin:miter;stroke-miterlimit:4;stroke-dasharray:none;stroke-dashoffset:0;stroke-opacity:1;-inkscape-stroke:none;stop-color:#000"/><circle cx="70.738" cy="31.906" r="2.683" style="font-variation-settings:normal;opacity:1;vector-effect:none;fill:#dfdfe7;fill-opacity:1;fill-rule:evenodd;stroke-width:7.03902;stroke-linecap:butt;stroke-linejoin:miter;stroke-miterlimit:4;stroke-dasharray:none;stroke-dashoffset:0;stroke-opacity:1;-inkscape-stroke:none;stop-color:#000"/><circle cx="-51.699" cy="31.906" r="2.683" style="font-variation-settings:normal;opacity:1;vector-effect:none;fill:#dfdfe7;fill-opacity:1;fill-rule:evenodd;stroke-width:7.03902;stroke-linecap:butt;stroke-linejoin:miter;stroke-miterlimit:4;stroke-dasharray:none;stroke-dashoffset:0;stroke-opacity:1;-inkscape-stroke:none;stop-color:#000" transform="scale(-1 1)"/></g><g style="fill:#dfdfe7;fill-opacity:1" transform="translate(559.755 209.246)scale(.91162)"><circle cx="15.096" cy="63.884" r="22.338" style="font-variation-settings:normal;vector-effect:none;fill:#dfdfe7;fill-opacity:1;fill-rule:evenodd;stroke-width:44.661;stroke-linecap:butt;stroke-linejoin:miter;stroke-miterlimit:4;stroke-dasharray:none;stroke-dashoffset:0;stroke-opacity:1;-inkscape-stroke:none;stop-color:#000"/><circle cx="-101.977" cy="63.884" r="22.338" style="font-variation-settings:normal;vector-effect:none;fill:#dfdfe7;fill-opacity:1;fill-rule:evenodd;stroke-width:44.661;stroke-linecap:butt;stroke-linejoin:miter;stroke-miterlimit:4;stroke-dasharray:none;stroke-dashoffset:0;stroke-opacity:1;-inkscape-stroke:none;stop-color:#000" transform="scale(-1 1)"/><circle cx="20.443" cy="-58.536" r="22.338" style="font-variation-settings:normal;vector-effect:none;fill:#dfdfe7;fill-opacity:1;fill-rule:evenodd;stroke-width:44.661;stroke-linecap:butt;stroke-linejoin:miter;stroke-miterlimit:4;stroke-dasharray:none;stroke-dashoffset:0;stroke-opacity:1;-inkscape-stroke:none;stop-color:#000" transform="rotate(90)"/><circle cx="-107.324" cy="-58.536" r="22.338" style="font-variation-settings:normal;vector-effect:none;fill:#dfdfe7;fill-opacity:1;fill-rule:evenodd;stroke-width:44.661;stroke-linecap:butt;stroke-linejoin:miter;stroke-miterlimit:4;stroke-dasharray:none;stroke-dashoffset:0;stroke-opacity:1;-inkscape-stroke:none;stop-color:#000" transform="scale(1 -1)rotate(90)"/></g><g style="fill:#dfdfe7;fill-opacity:1" transform="translate(175.423 24.792)scale(5.30194)"><rect width="1.148" height="1.215" x="53.669" y="58.59" ry=".177" style="opacity:1;fill:#dfdfe7;fill-opacity:1"/><rect width="1.148" height="1.215" x="58.319" y="58.59" ry=".177" style="opacity:1;fill:#dfdfe7;fill-opacity:1"/><rect width="1.148" height="1.215" x="62.969" y="58.59" ry=".177" style="opacity:1;fill:#dfdfe7;fill-opacity:1"/><rect width="1.148" height="1.215" x="67.62" y="58.59" ry=".177" style="opacity:1;fill:#dfdfe7;fill-opacity:1"/></g><g style="fill:#dfdfe7;fill-opacity:1"><path d="M704.621 584.088c-12.986 0-23.533 10.547-23.533 23.533s10.547 23.533 23.533 23.533 23.533-10.547 23.533-23.533-10.547-23.533-23.533-23.533m.393 3.142c11.45 0 20.712 9.26 20.712 20.71s-9.262 20.714-20.712 20.714-20.713-9.262-20.713-20.713c0-11.45 9.262-20.71 20.713-20.71" style="baseline-shift:baseline;display:inline;overflow:visible;vector-effect:none;fill:#dfdfe7;fill-opacity:1;stop-color:#000" transform="translate(45.858 -372.28)scale(.8978)"/><path d="M704.621 563C680 563 660 583 660 607.621s20 44.621 44.62 44.621c24.622 0 44.622-20 44.622-44.62 0-24.622-20-44.622-44.621-44.622m0 3.762c22.588 0 40.86 18.27 40.86 40.86 0 22.587-18.272 40.858-40.86 40.858s-40.86-18.27-40.86-40.859c0-22.588 18.272-40.86 40.86-40.86" style="baseline-shift:baseline;display:inline;overflow:visible;vector-effect:none;fill:#dfdfe7;fill-opacity:1;stop-color:#000" transform="translate(45.858 -372.28)scale(.8978)"/></g><g style="fill:#dfdfe7;fill-opacity:1"><path d="M704.621 584.088c-12.986 0-23.533 10.547-23.533 23.533s10.547 23.533 23.533 23.533 23.533-10.547 23.533-23.533-10.547-23.533-23.533-23.533m.393 3.142c11.45 0 20.712 9.26 20.712 20.71s-9.262 20.714-20.712 20.714-20.713-9.262-20.713-20.713c0-11.45 9.262-20.71 20.713-20.71" style="baseline-shift:baseline;display:inline;overflow:visible;vector-effect:none;fill:#dfdfe7;fill-opacity:1;stop-color:#000" transform="translate(-311.068 -372.28)scale(.8978)"/><path d="M704.621 563C680 563 660 583 660 607.621s20 44.621 44.62 44.621c24.622 0 44.622-20 44.622-44.62 0-24.622-20-44.622-44.621-44.622m0 3.762c22.588 0 40.86 18.27 40.86 40.86 0 22.587-18.272 40.858-40.86 40.858s-40.86-18.27-40.86-40.859c0-22.588 18.272-40.86 40.86-40.86" style="baseline-shift:baseline;display:inline;overflow:visible;vector-effect:none;fill:#dfdfe7;fill-opacity:1;stop-color:#000" transform="translate(-311.068 -372.28)scale(.8978)"/></g></svg>