<?xml version="1.0" encoding="UTF-8" standalone="no"?>
<svg
   xml:space="preserve"
   width="1925.333"
   height="2900.667"
   version="1.1"
   id="svg13"
   sodipodi:docname="ice-cream-ghost.svg"
   inkscape:version="1.4.2 (ebf0e940d0, 2025-05-08)"
   xmlns:inkscape="http://www.inkscape.org/namespaces/inkscape"
   xmlns:sodipodi="http://sodipodi.sourceforge.net/DTD/sodipodi-0.dtd"
   xmlns:xlink="http://www.w3.org/1999/xlink"
   xmlns="http://www.w3.org/2000/svg"
   xmlns:svg="http://www.w3.org/2000/svg"><sodipodi:namedview
     id="namedview13"
     pagecolor="#ffffff"
     bordercolor="#000000"
     borderopacity="0.25"
     inkscape:showpageshadow="2"
     inkscape:pageopacity="0.0"
     inkscape:pagecheckerboard="0"
     inkscape:deskcolor="#d1d1d1"
     inkscape:zoom="0.23408409"
     inkscape:cx="888.56956"
     inkscape:cy="1851.8986"
     inkscape:window-width="1536"
     inkscape:window-height="888"
     inkscape:window-x="0"
     inkscape:window-y="0"
     inkscape:window-maximized="1"
     inkscape:current-layer="svg13" /><defs
     id="defs2"><linearGradient
       id="a"><stop
         offset="0"
         stop-color="#87cce6"
         id="stop1" /><stop
         offset="1"
         stop-color="#87cce6"
         stop-opacity="0"
         id="stop2" /></linearGradient><linearGradient
       xlink:href="#a"
       id="b"
       x1="961.679"
       x2="961.958"
       y1="1901.323"
       y2="1726.068"
       gradientTransform="translate(-392.265 -553.88)scale(1.4248)"
       gradientUnits="userSpaceOnUse" /></defs><path
     fill="#ebcda4"
     fill-rule="evenodd"
     d="M1121.553 180.214c-18.022 0-36.518 3.304-54.591 14.152-18.074 10.848-35.494 28.178-56.511 55.302-42.035 54.248-99.179 149.075-198.24 318.657C701.785 757.364 685.49 783.984 539.85 1013.658c-21.263 33.532-40.58 64.86-54.662 88.441-7.041 11.79-12.749 21.618-16.83 28.99-2.041 3.686-3.68 6.73-4.955 9.34-.637 1.305-1.18 2.476-1.73 3.864s-1.66 1.433-1.66 8.012c0 2.875-.023 6.827 3.177 12.089 3.2 5.261-29.694 45.25-24.386 45.505 10.615.511 54.762-38.884 60.274-42.21 11.025-6.653 26.294-18.369 52.079-38.638 50.979-40.075 143.12-83.36 215.211-100.53 67.451-16.064 209.746-12.27 283.67 8.107 100.687 27.753 219.683 98.72 304.861 182.57 11.824 11.64 22.856 21.448 31.787 28.374 4.466 3.463 8.215 6.179 12.422 8.415 2.103 1.118 4.078 2.297 8.391 3.034 2.156.37 16.33 31.278 20.63 29.896 4.299-1.382-1.709-36.296.301-40.846 3.4-7.698 2.728-11.557 2.774-17.542.049-5.984-.308-13.067-.995-21.523-1.374-16.912-4.098-39.213-7.941-66.159-7.688-53.891-19.916-126.235-35.083-208.408-30.333-164.346-72.394-367.853-113.117-539.795-14.011-59.16-35.779-111.02-61.489-149.219-25.71-38.197-55.7-65.21-91.024-65.21z"
     id="path2" /><path
     fill="#d9b07c"
     d="M1136.107 176.185c-2.838 3.262-6.71 5.958-11.947 8.77-10.466 5.622-23.847 8.889-29.725 7.23-13.937-3.932-81.985 32.09-74.294 45.37 3.947 6.818 62.01 8.82 86.146 5.69 19.973-2.592 38.545-.798 41.293 3.982 5.924 10.304 21.16 179.63 17.755 197.338-.202.93.135 4.76.83 10.596-57.817-2.831-146.797 20.34-166.594 6.163-5.9-4.225-9.154-20.722-7.017-36.623 3.376-25.12 10.92-158.276-27.236-110.51-4.178-1.115-14.104-6.86-14.104-1.635 0 17.52-18.809 81.237-19.153 131.772-.169 24.1-3.7 31.413-19.224 39.752-10.466 5.622-48.121 6.4-53.999 4.74-13.937-3.932-33.86 31.26-26.17 44.541 3.948 6.818 38.16 12.14 62.296 9.008 19.972-2.591 38.544-.797 41.293 3.982 5.923 10.305 21.136 179.632 17.73 197.339-8.142 37.616-55.15 31.862-90.574 47.764-13.99 6.116-34.27 12.198-48.95 14.886-7.62.665-15.258 1.062-22.921 1.09-5.286-1.491-13.958-107.328-21.097-153.153-19.501.713-39.057 65.637-58.573 65.637 3.26 39.417 5.294 75.658 3.816 83.344-120.94 17.44-95.218 82.979-10.01 75.727 28.414 11.808 12.956 206.347 74.035 208.843 10.696-1.87 21.068-8.145 23.04-13.914 1.974-5.77-1.41-52.071-7.513-102.924-6.104-50.853-7.818-96.255-3.817-100.886 46.965-5.737 107.595-49.17 166.215-42.596 6.073 4.349 12.241 26.296 13.725 48.783 12.614 36.033-9.926 174.48 51.154 176.977 10.695-1.87 21.044-8.145 23.017-13.915s-5.868-77.103-11.971-127.956c-6.104-50.853-7.817-96.255-3.817-100.885 52.692-19.41 112.16-24.234 168.183-32.689l3.816 33.47c2.105 18.42 5.475 39.77 7.467 47.433s4.288 19.924 5.12 27.26c14.907 131.428 39.048 271.794 53.453 285.068 11.069 10.2 16.556 9.313 30.46-4.835 14.9-15.164 15.334-26.561 3.603-93.798-7.344-42.094-32.899-198.007-32.309-199.733s-.844-18.671-3.2-37.666c-6.828-55.078 34.79-72.402 74.296-82.684 61.445-15.993 19.115-59.574-42.674-46.291-15.71 3.377-32.12 5.118-36.481 3.887-2.858-.806-6.326-10.628-9.435-23.846-1.273-19.229-3.802-45.828-7.158-73.792.63-1.844.335-3.859-.687-5.926-5.535-48.41-6.974-90.51-3.129-94.96 19.785-7.288 40.52-12.521 61.679-16.664V442.29c-20.415 3.677-40.903 6.37-61.56 6.447-11.6-3.273-39.498-194.37-31.74-217.44l-44.659-44.634c-10.954 0-20.965-3.938-28.682-10.477zm36.979 328.944c4.301 29.684 8.915 61.289 9.624 72.038 2.61 7.454 3.517 18.214 3.864 30.626.26 9.343.206 19.632.308 30.128.175 17.98.835 36.59 4.385 52.292.014.036.014.085.024.121l2.845 32.167c-54.661 6.053-108.871 25.157-164.271 25.364-11.6-3.273-39.498-194.37-31.74-217.44 1.822-5.432 23.88-8.67 134.285-19.698 15.9-1.589 29.428-3.441 40.676-5.595z"
     id="path3" /><path
     fill="#947156"
     d="M1142.535 154.069c-84.976-2.715-165.875 88.328-306.758 334.077-77.906 135.895-187.33 320.813-243.173 410.948-86.234 139.186-167.225 306.919-191.143 360.615l19.345-4.768c10.61-15.106 37.084-77.612 48.423-100.53 52.295-105.706 155.779-227.652 393.246-647.369 96.449-170.47 172.823-281.013 207.227-299.845 130.83-71.615 186.807 149.608 203.614 238.227 69.194 279.936 115.718 561.954 154.18 847.325l30.046 25.967c-42.21-35.024-77.701-1146.073-315.007-1164.647"
     id="path4" /><path
     fill="#a0d7eb"
     fill-rule="evenodd"
     d="m 878.75,1032.29 c -23.989,0.859 -47.93,3.25 -71.682,7.23 -87.606,14.681 -191.405,57.392 -268.404,110.13 -174.209,119.318 -271.17,293.213 -271.107,488.925 0.025,98.36 18.325,173.045 62.438,253.992 33.902,62.211 52.231,99.182 60.256,125.728 8.025,26.546 7.187,42.862 1.612,72.44 -15.727,83.437 -12.712,144.7 16.214,188.52 13.37,20.256 33.60299,27.4711 56.36499,30.2021 22.761,2.73 43.64101,2.8599 71.18801,-10.9301 22.349,-11.188 52.66,-32.152 75.758,-51.794 30.28,-25.749 51.302,-40.456 65.424,-46.484 14.122,-6.028 19.836,-5.547 31.409,-0.711 9.709,4.056 13.338,6.024 19.082,11.401 5.743,5.378 13.712,15.183 26.928,32.997 18.833,25.386 42.10625,37.5069 61.86025,47.6939 19.754,10.187 35.72493,6.3741 57.32093,0.04 11.147,-3.27 21.70982,0.69 33.82982,-9.072 12.12,-9.762 26.327,-23.866 50.158,-48.073 29.202,-29.662 49.275,-47.592 64.24,-57.198 14.963,-9.607 23.71,-11.697 37.594,-11.592 17.003,0.128 27.453,2.323 47.575,14.104 20.121,11.781 48.504,33.784 93.324,71.28 66.553,55.675 102.163,79.495 138.67,86.354 39.447,7.411 77.57,-5.97 105.152,-33.802 27.582,-27.832 45.848,-68.931 53.62,-119.02 5.918,-38.148 2.493,-78.317 -10.028,-128.596 -6.398,-25.696 -8.2,-39.788 -5.546,-55.491 2.654,-15.703 10.705,-35.14 27.189,-67.724 46.37,-91.658 62.718,-164.7 58.62,-262.596 -6.676,-159.486 -83.387,-315.586 -216.515,-444.527 C 1216.99,1095.636 1046.653,1026.276 878.749,1032.289 Z M 593.325,1457.9 c 7.923,-0.748 16.398,0.302 23.443,2.964 7.949,3.003 17.291,10.45 23.918,19.65 6.627,9.202 10.24,19.881 10.24,27 0,-1.585 -1.57,4.659 -8.012,10.69 -6.44,6.032 -16.246,11.922 -25.624,14.745 -30.505,9.18 -45.646,5.275 -60.517,-11.663 -7.098,-8.084 -8.816,-16.442 -6.495,-26.383 2.32,-9.94 9.64,-21.283 23.04,-30.389 4.861,-3.303 12.074,-5.864 20.007,-6.613 m 533.418,0.073 c 8.958,0.036 17.49,2.429 21.358,4.788 16.613,10.13 24.568,25.33 25.458,38.211 0.89,12.881 -3.404,22.549 -16.38,28.706 -26.971,12.799 -61.583,6.083 -77.892,-12.492 -5.413,-6.165 -6.76,-8.76 -6.78,-8.818 -0.023,-0.061 -0.36,-0.513 0.475,-6.732 1.305,-9.727 15.997,-31.039 30.034,-38.567 5.475,-2.936 14.777,-5.133 23.728,-5.096 z"
     id="path5"
     sodipodi:nodetypes="cccccssccsssccsscscccccssccscssccccccccccscccscsccscc" /><path
     fill="url(#b)"
     fill-rule="evenodd"
     d="m 373.881,1905.436 c 9.902,20.478 16.534,36.445 20.565,49.782 8.025,26.545 18.068,48.796 12.493,78.374 -15.727,83.438 -23.591,138.765 5.334,182.585 13.37,20.256 31.735,35.484 54.496,38.214 22.761,2.73 45.509,-5.15 73.055,-18.94 22.35,-11.188 52.662,-32.152 75.76,-51.794 30.279,-25.749 51.301,-40.457 65.424,-46.484 14.123,-6.027 19.834,-5.548 31.407,-0.713 9.71,4.057 13.34,6.024 19.085,11.401 5.743,5.378 13.71,15.183 26.926,32.997 18.834,25.386 34.932,42.981 54.686,53.168 19.754,10.187 42.144,10.152 63.74,3.818 11.146,-3.269 22.465,-8.562 34.585,-18.325 12.12,-9.763 26.327,-23.864 50.158,-48.07 29.202,-29.662 49.275,-47.592 64.239,-57.198 14.964,-9.606 23.713,-11.7 37.596,-11.594 17.002,0.129 27.454,2.325 47.575,14.106 20.121,11.782 48.503,33.782 93.322,71.277 66.553,55.676 102.164,79.498 138.671,86.357 39.447,7.411 77.57,-5.972 105.152,-33.803 27.583,-27.832 62.3151,-69.082 53.62,-119.02 -6.5479,-37.606 -8.1687,-77.8544 -10.027,-128.596 -6.398,-25.696 -8.2,-39.789 -5.546,-55.493 1.506,-8.91 4.748,-19.018 10.283,-32.05 z"
     id="path6"
     sodipodi:nodetypes="ccscscssscsssssscccssscscc" /><path
     fill="#437e95"
     d="M659.2 1048.954c-232.82 102.577-555.502 457.255-298.556 922.098 81.15 146.807-26.967 131.019 25.6 278.55 60.142 147.244 215.295 12.347 303.936-44.473 97.516 92.625 158.113 146.976 274.995 33.26 189.223-198.338 301.162 224.914 479.088 85.122 51.508-51.503 73.38-145.105 57.128-244.32-9.282-56.66-6.366-110.305 7.206-132.934C1791.092 1475.26 1189.139 815.47 659.2 1048.954m235.633.863c431.018-5.557 813.035 508.72 591.363 887.67-28.52 48.755-31.726 74.643-15.55 125.965 11.196 35.52 14.558 93.565 7.443 128.998-27.578 137.353-125.134 169.607-229.078 75.76-112.013-89.342-181.979-189.403-292.298-58.74-76.013 91.165-131.45 109.179-188.141 23.064-48.445-73.587-90.722-71.607-161.711-5.855-60.047 55.617-123.26 84.29-154.6 70.33-44.827-19.966-65.252-106.583-44.184-187.287C451.434 1943.63 284.969 1915 284.98 1638.575c.013-356.289 333.546-585.195 609.853-588.758"
     id="path7" /><path
     d="M912.56 1593.404c-4.485.11-6.288 6.102-6.4 19.248-.526 61.42-71.344 71.644-90.48 13.061-5.812-17.79-14.845-27.95-21.5-24.131-17.591 10.098-10.145 42.459 15.385 66.822 31.936 30.477 54.114 34.91 85.24 17.044 30.39-17.44 46.26-75.069 24.606-89.318-1.801-1.187-3.375-2.007-4.765-2.418-.754-.222-1.445-.323-2.086-.308"
     id="path8" /><path
     fill="#437e95"
     d="M763.07 2374.075c-4.463-15.755 6.408-16.66 48.69-4.055 94.416 28.144 161.46 4.98 191.567-10.174 35.393-17.815 38.861-.617 4.135 20.503-101.312 61.612-241.129 5.253-244.393-6.274m120.378 133.997c-2.934-12.272 4.214-12.977 32.015-3.16 62.081 21.922 106.163 3.88 125.96-7.923 23.272-13.876 25.552-.481 2.719 15.969-66.615 47.989-158.548 4.091-160.694-4.887"
     id="path9" /><path
     fill="#624f45"
     d="M916.593 1688.757c16.71-13.523 31.519-31.89 42.581-53.597 49.548-79.627-19.286-24.27-190.654-56.357-49.44-9.257 38.121 141.55 94.097 134.507 18.66-2.347 37.267-11.03 53.976-24.553"
     id="path10" /><ellipse
     cx="1296.462"
     cy="1665.17"
     fill="#b7e0f0"
     fill-rule="evenodd"
     rx="131.574"
     ry="111.838"
     style="font-variation-settings:normal;-inkscape-stroke:none"
     id="ellipse10" /><ellipse
     cx="-462.33"
     cy="1689.002"
     fill="#c7e7f4"
     fill-opacity=".603"
     fill-rule="evenodd"
     rx="131.574"
     ry="111.838"
     style="font-variation-settings:normal;-inkscape-stroke:none"
     transform="scale(-1 1)"
     id="ellipse11" /><path
     fill="#947156"
     d="M1077.56 1531.488c19.97 46.372 70.514 62.286 113.021 35.582 36.904-23.184 43.834-45.258 28.127-89.62-46.783-132.135-188.03-54.82-141.147 54.038m-412.954-27.196c-2.232 50.44-43.848 83.24-93.062 73.342-42.727-8.593-57.033-26.776-58.076-73.825-3.105-140.138 156.378-117.926 151.138.483"
     id="path11" /><path
     fill="#fff"
     d="M1147.581 1433.591c-18.158-4.67-38.549 6.144-47.928 28.632-8.042 19.28-1.703 42.572 13.951 51.264 7.87 4.368 20.643 5.112 30.83 1.79 27.461-8.953 39.51-52 20.072-71.717-5.066-5.138-10.872-8.412-16.925-9.969m36.526 93.869c-7.752-1.88-17.157 3.3-17.3 14.313-.086 6.59 1.915 9.022 8.943 10.884 12.501 3.31 20.109-2.524 18.167-13.93-1.102-6.475-5.158-10.14-9.81-11.268m-598.961-100.187c-18.159-4.67-38.55 6.144-47.929 28.632-8.041 19.28-1.703 42.572 13.952 51.263 7.87 4.369 20.643 5.113 30.829 1.79 27.462-8.953 39.511-52 20.073-71.716-5.066-5.139-10.873-8.413-16.925-9.97zm36.526 93.868c-7.752-1.879-17.157 3.3-17.3 14.313-.086 6.59 1.915 9.023 8.943 10.884 12.5 3.311 20.109-2.523 18.167-13.93-1.102-6.474-5.159-10.14-9.81-11.267"
     id="path12" /><path
     fill="#437e95"
     d="M986.63 2596.892c-2.055-8.594 2.951-9.088 22.422-2.212 43.48 15.353 74.354 2.717 88.22-5.55 16.298-9.718 17.895-.337 1.903 11.185-46.655 33.61-111.042 2.865-112.545-3.423"
     id="path13" /></svg>
