<?xml version="1.0" encoding="UTF-8" standalone="no"?>
<!-- Created with Inkscape (http://www.inkscape.org/) -->

<svg
   version="1.1"
   id="svg1"
   width="3000"
   height="3600"
   viewBox="0 0 3000 3600"
   xml:space="preserve"
   xmlns:xlink="http://www.w3.org/1999/xlink"
   xmlns="http://www.w3.org/2000/svg"
   xmlns:svg="http://www.w3.org/2000/svg"><defs
     id="defs1"><linearGradient
       id="linearGradient168"><stop
         style="stop-color:#a7bd93;stop-opacity:1;"
         offset="0"
         id="stop168" /><stop
         style="stop-color:#a7bd93;stop-opacity:0;"
         offset="1"
         id="stop169" /></linearGradient><linearGradient
       id="linearGradient164"><stop
         style="stop-color:#e1ead9;stop-opacity:0.67935574;"
         offset="0"
         id="stop164" /><stop
         style="stop-color:#eef3e9;stop-opacity:0;"
         offset="1"
         id="stop165" /></linearGradient><linearGradient
       id="linearGradient161"><stop
         style="stop-color:#eaf0e2;stop-opacity:1;"
         offset="0"
         id="stop161" /><stop
         style="stop-color:#e3ebd8;stop-opacity:1;"
         offset="1"
         id="stop162" /></linearGradient><linearGradient
       id="linearGradient158"><stop
         style="stop-color:#554639;stop-opacity:1;"
         offset="0"
         id="stop158" /><stop
         style="stop-color:#1e1914;stop-opacity:1;"
         offset="1"
         id="stop159" /></linearGradient><linearGradient
       id="linearGradient89"><stop
         style="stop-color:#dae3d9;stop-opacity:1;"
         offset="0"
         id="stop89" /><stop
         style="stop-color:#dae3d9;stop-opacity:0;"
         offset="1"
         id="stop90" /></linearGradient><linearGradient
       id="linearGradient81"><stop
         style="stop-color:#dae3d9;stop-opacity:1;"
         offset="0"
         id="stop81" /><stop
         style="stop-color:#dae3d9;stop-opacity:0;"
         offset="1"
         id="stop82" /></linearGradient><linearGradient
       id="linearGradient77"><stop
         style="stop-color:#dae3d9;stop-opacity:1;"
         offset="0"
         id="stop77" /><stop
         style="stop-color:#dae3d9;stop-opacity:0;"
         offset="1"
         id="stop78" /></linearGradient><linearGradient
       id="linearGradient73"><stop
         style="stop-color:#eef5eb;stop-opacity:1;"
         offset="0"
         id="stop73" /><stop
         style="stop-color:#e6ebe0;stop-opacity:1;"
         offset="1"
         id="stop74" /></linearGradient><linearGradient
       id="linearGradient71"><stop
         style="stop-color:#dae3d9;stop-opacity:1;"
         offset="0"
         id="stop71" /><stop
         style="stop-color:#dae3d9;stop-opacity:0;"
         offset="1"
         id="stop72" /></linearGradient><linearGradient
       id="linearGradient67"><stop
         style="stop-color:#dae3d9;stop-opacity:1;"
         offset="0"
         id="stop67" /><stop
         style="stop-color:#dae3d9;stop-opacity:0;"
         offset="1"
         id="stop68" /></linearGradient><linearGradient
       id="linearGradient44"><stop
         style="stop-color:#dae3d9;stop-opacity:1;"
         offset="0"
         id="stop44" /><stop
         style="stop-color:#dae3d9;stop-opacity:0;"
         offset="1"
         id="stop45" /></linearGradient><linearGradient
       id="linearGradient38"><stop
         style="stop-color:#d7e3cd;stop-opacity:1;"
         offset="0"
         id="stop40" /><stop
         style="stop-color:#d7e3cd;stop-opacity:0;"
         offset="1"
         id="stop41" /></linearGradient><linearGradient
       id="linearGradient35"><stop
         style="stop-color:#d7e3cd;stop-opacity:1;"
         offset="0"
         id="stop35" /><stop
         style="stop-color:#d7e3cd;stop-opacity:0;"
         offset="1"
         id="stop36" /></linearGradient><linearGradient
       id="linearGradient120"><stop
         style="stop-color:#a4d152;stop-opacity:1;"
         offset="0"
         id="stop121" /><stop
         style="stop-color:#84b32f;stop-opacity:1;"
         offset="1"
         id="stop122" /></linearGradient><linearGradient
       id="linearGradient119"><stop
         style="stop-color:#e9ede5;stop-opacity:0.16778646;"
         offset="0"
         id="stop119" /><stop
         style="stop-color:#e9ede5;stop-opacity:0;"
         offset="1"
         id="stop120" /></linearGradient><linearGradient
       id="linearGradient115"><stop
         style="stop-color:#d6dbd5;stop-opacity:1;"
         offset="0"
         id="stop115" /><stop
         style="stop-color:#d6dbd5;stop-opacity:0;"
         offset="1"
         id="stop116" /></linearGradient><linearGradient
       id="linearGradient111"><stop
         style="stop-color:#bbdc80;stop-opacity:1;"
         offset="0"
         id="stop111" /><stop
         style="stop-color:#bbdc80;stop-opacity:0;"
         offset="1"
         id="stop112" /></linearGradient><linearGradient
       id="linearGradient109"><stop
         style="stop-color:#95608a;stop-opacity:0.46226561;"
         offset="0"
         id="stop109" /><stop
         style="stop-color:#95608a;stop-opacity:0;"
         offset="1"
         id="stop110" /></linearGradient><linearGradient
       id="linearGradient107"><stop
         style="stop-color:#cdb2c8;stop-opacity:1;"
         offset="0"
         id="stop108" /><stop
         style="stop-color:#b892b1;stop-opacity:1;"
         offset="1"
         id="stop107" /></linearGradient><linearGradient
       id="linearGradient105"><stop
         style="stop-color:#759e2c;stop-opacity:1;"
         offset="0"
         id="stop105" /><stop
         style="stop-color:#759e2c;stop-opacity:0;"
         offset="1"
         id="stop106" /></linearGradient><linearGradient
       id="linearGradient100"><stop
         style="stop-color:#759e2c;stop-opacity:1;"
         offset="0"
         id="stop100" /><stop
         style="stop-color:#a4d152;stop-opacity:0;"
         offset="1"
         id="stop101" /></linearGradient><linearGradient
       id="linearGradient97"><stop
         style="stop-color:#90c334;stop-opacity:1;"
         offset="0"
         id="stop97" /><stop
         style="stop-color:#90c334;stop-opacity:0;"
         offset="1"
         id="stop98" /></linearGradient><linearGradient
       id="linearGradient95"><stop
         style="stop-color:#c1e08a;stop-opacity:0.65990883;"
         offset="0"
         id="stop95" /><stop
         style="stop-color:#c1e08a;stop-opacity:0;"
         offset="1"
         id="stop96" /></linearGradient><linearGradient
       id="linearGradient87"><stop
         style="stop-color:#9eb18d;stop-opacity:0.64067698;"
         offset="0"
         id="stop87" /><stop
         style="stop-color:#a9ba9a;stop-opacity:1;"
         offset="1"
         id="stop88" /></linearGradient><linearGradient
       id="linearGradient85"><stop
         style="stop-color:#789f33;stop-opacity:1;"
         offset="0"
         id="stop85" /><stop
         style="stop-color:#789f33;stop-opacity:0;"
         offset="1"
         id="stop86" /></linearGradient><linearGradient
       id="linearGradient60"><stop
         style="stop-color:#92c13d;stop-opacity:1;"
         offset="0"
         id="stop60" /><stop
         style="stop-color:#92c13d;stop-opacity:0;"
         offset="1"
         id="stop61" /></linearGradient><linearGradient
       id="linearGradient57"><stop
         style="stop-color:#678339;stop-opacity:0;"
         offset="0"
         id="stop57" /><stop
         style="stop-color:#678339;stop-opacity:1;"
         offset="0.5"
         id="stop59" /><stop
         style="stop-color:#678339;stop-opacity:0;"
         offset="1"
         id="stop58" /></linearGradient><linearGradient
       id="linearGradient55"><stop
         style="stop-color:#aacf68;stop-opacity:1;"
         offset="0"
         id="stop55" /><stop
         style="stop-color:#99c64a;stop-opacity:1;"
         offset="1"
         id="stop56" /></linearGradient><linearGradient
       id="linearGradient53"><stop
         style="stop-color:#eaf0e2;stop-opacity:1;"
         offset="0"
         id="stop53" /><stop
         style="stop-color:#d6dbd5;stop-opacity:1;"
         offset="1"
         id="stop54" /></linearGradient><linearGradient
       id="linearGradient50"><stop
         style="stop-color:#576e30;stop-opacity:1;"
         offset="0"
         id="stop50" /><stop
         style="stop-color:#678339;stop-opacity:0;"
         offset="1"
         id="stop51" /></linearGradient><linearGradient
       id="linearGradient48"><stop
         style="stop-color:#bdda8b;stop-opacity:1;"
         offset="0"
         id="stop48" /><stop
         style="stop-color:#bdda8b;stop-opacity:0;"
         offset="1"
         id="stop49" /></linearGradient><linearGradient
       id="linearGradient39"><stop
         style="stop-color:#c9d5c6;stop-opacity:0.8309375;"
         offset="0"
         id="stop38" /><stop
         style="stop-color:#c9d5c6;stop-opacity:0;"
         offset="1"
         id="stop39" /></linearGradient><linearGradient
       id="linearGradient33"><stop
         style="stop-color:#c9d5c6;stop-opacity:1;"
         offset="0"
         id="stop33" /><stop
         style="stop-color:#c9d5c6;stop-opacity:0;"
         offset="1"
         id="stop34" /></linearGradient><linearGradient
       id="linearGradient21"><stop
         style="stop-color:#e4efdf;stop-opacity:1;"
         offset="0"
         id="stop21" /><stop
         style="stop-color:#ecf4eb;stop-opacity:1;"
         offset="1"
         id="stop22" /></linearGradient><linearGradient
       id="linearGradient19"><stop
         style="stop-color:#bcdd83;stop-opacity:1;"
         offset="0"
         id="stop19" /><stop
         style="stop-color:#bcdd83;stop-opacity:0;"
         offset="1"
         id="stop20" /></linearGradient><linearGradient
       id="linearGradient16"><stop
         style="stop-color:#d4e6cc;stop-opacity:1;"
         offset="0"
         id="stop16" /><stop
         style="stop-color:#d4e6cc;stop-opacity:0;"
         offset="1"
         id="stop17" /></linearGradient><linearGradient
       id="linearGradient14"><stop
         style="stop-color:#648725;stop-opacity:1;"
         offset="0"
         id="stop14" /><stop
         style="stop-color:#648725;stop-opacity:0;"
         offset="1"
         id="stop15" /></linearGradient><linearGradient
       id="linearGradient12"><stop
         style="stop-color:#648725;stop-opacity:1;"
         offset="0"
         id="stop12" /><stop
         style="stop-color:#648725;stop-opacity:0;"
         offset="1"
         id="stop13" /></linearGradient><linearGradient
       xlink:href="#linearGradient12"
       id="linearGradient13"
       x1="335.28922"
       y1="469.2923"
       x2="520.31049"
       y2="377.53033"
       gradientUnits="userSpaceOnUse" /><linearGradient
       xlink:href="#linearGradient14"
       id="linearGradient15"
       x1="767.83209"
       y1="357.09961"
       x2="567.22156"
       y2="344.58252"
       gradientUnits="userSpaceOnUse" /><linearGradient
       xlink:href="#linearGradient16"
       id="linearGradient17"
       x1="609.60468"
       y1="515.7923"
       x2="523.70453"
       y2="357.09961"
       gradientUnits="userSpaceOnUse" /><linearGradient
       xlink:href="#linearGradient19"
       id="linearGradient20"
       x1="420.09329"
       y1="116.07602"
       x2="445.08771"
       y2="194.34357"
       gradientUnits="userSpaceOnUse" /><linearGradient
       xlink:href="#linearGradient21"
       id="linearGradient22"
       x1="563.03717"
       y1="468.85327"
       x2="479.07877"
       y2="237.15414"
       gradientUnits="userSpaceOnUse" /><linearGradient
       xlink:href="#linearGradient12"
       id="linearGradient28"
       gradientUnits="userSpaceOnUse"
       x1="335.28922"
       y1="469.2923"
       x2="520.31049"
       y2="377.53033" /><linearGradient
       xlink:href="#linearGradient14"
       id="linearGradient29"
       gradientUnits="userSpaceOnUse"
       x1="767.83209"
       y1="357.09961"
       x2="567.22156"
       y2="344.58252" /><linearGradient
       xlink:href="#linearGradient21"
       id="linearGradient30"
       gradientUnits="userSpaceOnUse"
       x1="563.03717"
       y1="468.85327"
       x2="479.07877"
       y2="237.15414" /><linearGradient
       xlink:href="#linearGradient16"
       id="linearGradient31"
       gradientUnits="userSpaceOnUse"
       x1="609.60468"
       y1="515.7923"
       x2="523.70453"
       y2="357.09961" /><linearGradient
       xlink:href="#linearGradient19"
       id="linearGradient32"
       gradientUnits="userSpaceOnUse"
       x1="420.09329"
       y1="116.07602"
       x2="445.08771"
       y2="194.34357" /><linearGradient
       xlink:href="#linearGradient33"
       id="linearGradient34"
       x1="793.07617"
       y1="176.50781"
       x2="793.07617"
       y2="441.84381"
       gradientUnits="userSpaceOnUse"
       gradientTransform="matrix(1.3831303,0,0,1.3831303,403.00962,626.12397)" /><linearGradient
       xlink:href="#linearGradient39"
       id="linearGradient36"
       x1="112.88479"
       y1="1293.7458"
       x2="433.62167"
       y2="1164.1996"
       gradientUnits="userSpaceOnUse" /><linearGradient
       xlink:href="#linearGradient39"
       id="linearGradient41"
       gradientUnits="userSpaceOnUse"
       x1="112.88479"
       y1="1293.7458"
       x2="433.62167"
       y2="1164.1996" /><linearGradient
       xlink:href="#linearGradient48"
       id="linearGradient49"
       x1="422.47043"
       y1="931.55786"
       x2="547.39825"
       y2="984.25482"
       gradientUnits="userSpaceOnUse" /><linearGradient
       xlink:href="#linearGradient53"
       id="linearGradient54"
       x1="806.95508"
       y1="893.02783"
       x2="806.95508"
       y2="1050.8064"
       gradientUnits="userSpaceOnUse"
       gradientTransform="matrix(1.5839695,0,0,1.5839695,221.74507,424.58328)" /><linearGradient
       xlink:href="#linearGradient55"
       id="linearGradient56"
       x1="840.57031"
       y1="2324.5649"
       x2="840.57031"
       y2="2660.595"
       gradientUnits="userSpaceOnUse"
       gradientTransform="matrix(1.3831303,0,0,1.3831303,337.31905,-1375.7195)" /><linearGradient
       xlink:href="#linearGradient60"
       id="linearGradient61"
       x1="511.96527"
       y1="1156.3837"
       x2="591.78009"
       y2="1094.4727"
       gradientUnits="userSpaceOnUse" /><linearGradient
       xlink:href="#linearGradient48"
       id="linearGradient65"
       gradientUnits="userSpaceOnUse"
       x1="422.47043"
       y1="931.55786"
       x2="547.39825"
       y2="984.25482" /><linearGradient
       xlink:href="#linearGradient60"
       id="linearGradient66"
       gradientUnits="userSpaceOnUse"
       x1="511.96527"
       y1="1156.3837"
       x2="591.78009"
       y2="1094.4727" /><linearGradient
       xlink:href="#linearGradient57"
       id="linearGradient69"
       gradientUnits="userSpaceOnUse"
       x1="635.58655"
       y1="1125.8877"
       x2="750.69476"
       y2="1158.5494" /><linearGradient
       xlink:href="#linearGradient50"
       id="linearGradient70"
       gradientUnits="userSpaceOnUse"
       x1="587.5097"
       y1="1056.5656"
       x2="500.65625"
       y2="1023.4908" /><linearGradient
       xlink:href="#linearGradient57"
       id="linearGradient78"
       gradientUnits="userSpaceOnUse"
       x1="635.58655"
       y1="1125.8877"
       x2="750.69476"
       y2="1158.5494" /><linearGradient
       xlink:href="#linearGradient50"
       id="linearGradient79"
       gradientUnits="userSpaceOnUse"
       x1="587.5097"
       y1="1056.5656"
       x2="500.65625"
       y2="1023.4908" /><linearGradient
       xlink:href="#linearGradient85"
       id="linearGradient86"
       x1="793.07617"
       y1="1330.3185"
       x2="793.07617"
       y2="1057.6766"
       gradientUnits="userSpaceOnUse"
       gradientTransform="matrix(1.3831303,0,0,1.3831303,403.00962,626.12397)" /><linearGradient
       xlink:href="#linearGradient87"
       id="linearGradient88"
       x1="1113.9764"
       y1="997.05066"
       x2="463.35388"
       y2="1048.875"
       gradientUnits="userSpaceOnUse"
       gradientTransform="matrix(1.3831303,0,0,1.3831303,403.00962,626.12397)" /><linearGradient
       xlink:href="#linearGradient95"
       id="linearGradient96"
       x1="587.21094"
       y1="423.41211"
       x2="641.24799"
       y2="548.55273"
       gradientUnits="userSpaceOnUse" /><linearGradient
       xlink:href="#linearGradient97"
       id="linearGradient98"
       x1="414.42966"
       y1="741.89355"
       x2="613.08331"
       y2="661.05292"
       gradientUnits="userSpaceOnUse" /><linearGradient
       xlink:href="#linearGradient100"
       id="linearGradient101"
       x1="793.07617"
       y1="338.24139"
       x2="793.07617"
       y2="579.1842"
       gradientUnits="userSpaceOnUse"
       gradientTransform="matrix(1.3831303,0,0,1.3831303,403.00952,626.12391)" /><linearGradient
       xlink:href="#linearGradient95"
       id="linearGradient103"
       gradientUnits="userSpaceOnUse"
       x1="587.21094"
       y1="423.41211"
       x2="641.24799"
       y2="548.55273" /><linearGradient
       xlink:href="#linearGradient97"
       id="linearGradient104"
       gradientUnits="userSpaceOnUse"
       x1="414.42966"
       y1="741.89355"
       x2="613.08331"
       y2="661.05292" /><linearGradient
       xlink:href="#linearGradient105"
       id="linearGradient106"
       x1="793.07617"
       y1="954.99036"
       x2="793.07617"
       y2="800.60962"
       gradientUnits="userSpaceOnUse"
       gradientTransform="matrix(1.3831303,0,0,1.3831303,403.00962,626.12397)" /><linearGradient
       xlink:href="#linearGradient107"
       id="linearGradient108"
       x1="814.32434"
       y1="2510.6802"
       x2="819.02649"
       y2="2544.7708"
       gradientUnits="userSpaceOnUse"
       gradientTransform="matrix(1.5692848,0.08057988,-0.08057988,1.5692848,421.29317,-2364.2971)" /><linearGradient
       xlink:href="#linearGradient109"
       id="linearGradient110"
       x1="793.07617"
       y1="775.38501"
       x2="793.07617"
       y2="756.7027"
       gradientUnits="userSpaceOnUse"
       gradientTransform="matrix(1.3831303,0,0,1.3831303,403.00962,626.12397)" /><linearGradient
       xlink:href="#linearGradient111"
       id="linearGradient112"
       x1="699.48883"
       y1="865.02307"
       x2="730.04022"
       y2="783.29718"
       gradientUnits="userSpaceOnUse"
       gradientTransform="matrix(1.3831303,0,0,1.3831303,403.00962,626.12397)" /><linearGradient
       xlink:href="#linearGradient111"
       id="linearGradient113"
       gradientUnits="userSpaceOnUse"
       x1="699.48883"
       y1="865.02307"
       x2="730.04022"
       y2="783.29718"
       gradientTransform="matrix(-1.3831303,0,0,1.3831303,2596.8649,626.12397)" /><linearGradient
       xlink:href="#linearGradient115"
       id="linearGradient116"
       x1="1518.1113"
       y1="669.61523"
       x2="1243.5865"
       y2="838.14215"
       gradientUnits="userSpaceOnUse"
       gradientTransform="matrix(1.3831303,0,0,1.3831303,403.00962,626.12397)" /><linearGradient
       xlink:href="#linearGradient115"
       id="linearGradient117"
       gradientUnits="userSpaceOnUse"
       x1="1518.1113"
       y1="669.61523"
       x2="1243.5865"
       y2="838.14215"
       gradientTransform="matrix(-1.3831303,0,0,1.3831303,2596.8649,626.12397)" /><radialGradient
       xlink:href="#linearGradient119"
       id="radialGradient120"
       cx="764"
       cy="988"
       fx="764"
       fy="988"
       r="168.8683"
       gradientUnits="userSpaceOnUse"
       gradientTransform="matrix(2.1320521,0,0,2.1320521,-144.61064,-192.9551)" /><linearGradient
       xlink:href="#linearGradient120"
       id="linearGradient122"
       x1="814.75195"
       y1="1914.6792"
       x2="814.75195"
       y2="2393.1729"
       gradientUnits="userSpaceOnUse"
       gradientTransform="matrix(1.4081625,0,0,1.4081625,352.63418,-1609.0605)" /><linearGradient
       xlink:href="#linearGradient35"
       id="linearGradient37"
       x1="1209.6841"
       y1="2104.9451"
       x2="1287.1213"
       y2="2155.7124"
       gradientUnits="userSpaceOnUse" /><linearGradient
       xlink:href="#linearGradient38"
       id="linearGradient42"
       x1="1224.5576"
       y1="2190.7974"
       x2="1271.9294"
       y2="2205.1057"
       gradientUnits="userSpaceOnUse" /><linearGradient
       xlink:href="#linearGradient44"
       id="linearGradient45"
       x1="1421.6526"
       y1="2067.4434"
       x2="1363.9894"
       y2="2144.3169"
       gradientUnits="userSpaceOnUse" /><linearGradient
       xlink:href="#linearGradient67"
       id="linearGradient68"
       x1="1504.5677"
       y1="2309.9006"
       x2="1398.8782"
       y2="2304.4377"
       gradientUnits="userSpaceOnUse" /><linearGradient
       xlink:href="#linearGradient71"
       id="linearGradient72"
       x1="1470.9915"
       y1="2448.2534"
       x2="1377.6338"
       y2="2428.8301"
       gradientUnits="userSpaceOnUse" /><linearGradient
       xlink:href="#linearGradient73"
       id="linearGradient74"
       x1="1412.37"
       y1="2295.2566"
       x2="1276.1583"
       y2="2322.3372"
       gradientUnits="userSpaceOnUse" /><linearGradient
       xlink:href="#linearGradient77"
       id="linearGradient80"
       x1="1404.8313"
       y1="2500.7515"
       x2="1340.4875"
       y2="2398.446"
       gradientUnits="userSpaceOnUse" /><linearGradient
       xlink:href="#linearGradient81"
       id="linearGradient82"
       x1="1249.451"
       y1="2388.6394"
       x2="1291.3223"
       y2="2379.7817"
       gradientUnits="userSpaceOnUse" /><linearGradient
       xlink:href="#linearGradient89"
       id="linearGradient90"
       x1="1446.3123"
       y1="2178.2671"
       x2="1390.9028"
       y2="2174.3218"
       gradientUnits="userSpaceOnUse" /><linearGradient
       xlink:href="#linearGradient73"
       id="linearGradient140"
       gradientUnits="userSpaceOnUse"
       x1="1412.37"
       y1="2295.2566"
       x2="1276.1583"
       y2="2322.3372" /><linearGradient
       xlink:href="#linearGradient35"
       id="linearGradient141"
       gradientUnits="userSpaceOnUse"
       x1="1209.6841"
       y1="2104.9451"
       x2="1287.1213"
       y2="2155.7124" /><linearGradient
       xlink:href="#linearGradient38"
       id="linearGradient142"
       gradientUnits="userSpaceOnUse"
       x1="1224.5576"
       y1="2190.7974"
       x2="1271.9294"
       y2="2205.1057" /><linearGradient
       xlink:href="#linearGradient44"
       id="linearGradient143"
       gradientUnits="userSpaceOnUse"
       x1="1421.6526"
       y1="2067.4434"
       x2="1363.9894"
       y2="2144.3169" /><linearGradient
       xlink:href="#linearGradient67"
       id="linearGradient144"
       gradientUnits="userSpaceOnUse"
       x1="1504.5677"
       y1="2309.9006"
       x2="1398.8782"
       y2="2304.4377" /><linearGradient
       xlink:href="#linearGradient71"
       id="linearGradient145"
       gradientUnits="userSpaceOnUse"
       x1="1470.9915"
       y1="2448.2534"
       x2="1377.6338"
       y2="2428.8301" /><linearGradient
       xlink:href="#linearGradient77"
       id="linearGradient146"
       gradientUnits="userSpaceOnUse"
       x1="1404.8313"
       y1="2500.7515"
       x2="1340.4875"
       y2="2398.446" /><linearGradient
       xlink:href="#linearGradient81"
       id="linearGradient147"
       gradientUnits="userSpaceOnUse"
       x1="1249.451"
       y1="2388.6394"
       x2="1291.3223"
       y2="2379.7817" /><linearGradient
       xlink:href="#linearGradient89"
       id="linearGradient148"
       gradientUnits="userSpaceOnUse"
       x1="1446.3123"
       y1="2178.2671"
       x2="1390.9028"
       y2="2174.3218" /><linearGradient
       xlink:href="#linearGradient158"
       id="linearGradient159"
       x1="979.01306"
       y1="514.83582"
       x2="952.31659"
       y2="648.86816"
       gradientUnits="userSpaceOnUse"
       gradientTransform="matrix(1.3831303,0,0,1.3831303,403.00962,626.12397)" /><linearGradient
       xlink:href="#linearGradient158"
       id="linearGradient160"
       gradientUnits="userSpaceOnUse"
       x1="979.01306"
       y1="514.83582"
       x2="952.31659"
       y2="648.86816"
       gradientTransform="matrix(-1.3831303,0,0,1.3831303,2596.8649,626.12397)" /><linearGradient
       xlink:href="#linearGradient161"
       id="linearGradient162"
       x1="793.07617"
       y1="339.85043"
       x2="793.07617"
       y2="1670.9891"
       gradientUnits="userSpaceOnUse"
       gradientTransform="matrix(1.3831303,0,0,1.3831303,403.00962,626.12397)" /><radialGradient
       xlink:href="#linearGradient164"
       id="radialGradient165"
       cx="800"
       cy="800"
       fx="800"
       fy="800"
       r="509.86343"
       gradientUnits="userSpaceOnUse"
       gradientTransform="matrix(1.3831303,0,0,1.3831303,386.38772,979.93302)" /><linearGradient
       xlink:href="#linearGradient168"
       id="linearGradient169"
       x1="1499.8965"
       y1="2879.2842"
       x2="1499.8965"
       y2="2298.0044"
       gradientUnits="userSpaceOnUse" /></defs><g
     id="g169"
     transform="matrix(1.236967,0,0,1.236967,-355.45056,-426.54069)"><g
       id="g27"
       transform="matrix(-1.3831303,0,0,1.3831303,2596.8649,626.12397)"><path
         style="fill:#a0ce4e;fill-opacity:1;stroke-width:0.755906;stroke-linecap:round;stroke-linejoin:round"
         d="m 610.57965,233.7149 c -19.33858,-19.4658 -34.85995,-34.9872 -48.47335,-44.6564 -13.6133,-9.6693 -25.3179,-13.486 -32.6316,-17.4087 -7.3137,-3.9226 -10.2362,-7.951 -17.815,-14.4635 -7.5789,-6.5124 -19.8136,-15.5085 -32.7684,-20.7264 -12.9548,-5.2178 -26.6288,-6.6572 -36.3448,-1.4392 -9.7161,5.2179 -15.4736,17.0927 -22.3108,38.3242 -38.2107,104.7 -62.0882,331.316 -48.9019,397.7777 18.3524,-16.1933 56.4588,-53.0409 83.8079,-72.2931 27.349,-19.2523 63.6932,-41.5626 103.0973,-61.4445 39.40409,-19.8819 81.86562,-37.3343 113.36377,-49.1401 31.49815,-11.8057 72.5648,-24.1228 72.5648,-24.1228 0,0 -90.26056,-86.7711 -133.58792,-130.4072 z"
         id="path22" /><path
         id="path23"
         style="fill:url(#linearGradient28);fill-opacity:1;stroke-width:0.755906;stroke-linecap:round;stroke-linejoin:round"
         d="m 424.82812,160.1875 c -1.51436,3.91582 -3.02464,8.29175 -4.59179,13.1582 -38.2107,104.7 -62.08865,331.31565 -48.90235,397.77735 18.3524,-16.1933 56.4595,-53.04077 83.8086,-72.29297 27.349,-19.2523 63.6916,-41.56341 103.0957,-61.44531 9.54422,-4.81568 19.26893,-9.48777 28.97266,-13.97266 A 256.93347,256.93347 0 0 0 588.32227,399.5293 256.93347,256.93347 0 0 0 424.82812,160.1875 Z" /><path
         id="path24"
         style="fill:url(#linearGradient29);fill-opacity:1;stroke-width:0.755906;stroke-linecap:round;stroke-linejoin:round"
         d="m 551.125,182.1543 a 196.47853,196.47853 0 0 0 -57.94922,139.33203 196.47853,196.47853 0 0 0 45.70703,125.98242 c 6.34973,-3.41166 12.80966,-6.7812 19.35547,-10.08398 39.40409,-19.8819 81.86709,-37.33483 113.36524,-49.14063 31.49815,-11.8057 72.56445,-24.12109 72.56445,-24.12109 0,0 -90.26053,-86.77211 -133.58789,-130.40821 -19.33858,-19.4658 -34.86121,-34.98705 -48.47461,-44.65625 -3.83007,-2.72043 -7.50785,-4.9777 -10.98047,-6.90429 z" /><path
         style="fill:url(#linearGradient30);fill-opacity:1;stroke-width:0.578042;stroke-linecap:round;stroke-linejoin:round"
         d="m 603.0622,313.10647 c -37.8353,-38.0841 -68.3601,-57.81075 -90.2255,-67.58701 -41.6079,-18.60324 -46.7813,-5.12671 -55.3308,21.42199 -29.2198,80.06423 -47.4789,253.3578 -37.3954,304.18115 14.0342,-12.38304 43.1742,-40.56045 64.0881,-55.28263 20.9138,-14.72226 48.7062,-31.78298 78.8386,-46.9867 30.13239,-15.20371 62.60278,-28.54959 86.68946,-37.5775 24.08668,-9.02783 55.49041,-18.44674 55.49041,-18.44674 0,0 -69.02238,-66.35398 -102.15487,-99.72256 z"
         id="path25" /><path
         id="path26"
         style="fill:url(#linearGradient31);fill-opacity:1;stroke-width:0.862603;stroke-linecap:round;stroke-linejoin:round"
         d="M 547.08398,293.26367 A 148.08836,148.08836 0 0 0 437.86914,341.33984 C 426.58508,397.80788 419.11077,464.009 417.59766,513.20703 a 148.08836,148.08836 0 0 0 27.31836,35.3457 c 12.90105,-11.67384 27.4168,-24.35962 39.2832,-32.71289 20.9138,-14.72226 48.70549,-31.7826 78.83789,-46.98632 30.13239,-15.20371 62.60277,-28.55022 86.68945,-37.57813 14.65016,-5.49096 32.00794,-11.12622 43.35938,-14.69922 a 148.08836,148.08836 0 0 0 -4.89649,-20.16211 c -22.61573,-21.8433 -62.35101,-60.3684 -85.12695,-83.30664 -4.88606,-4.91819 -9.64974,-9.53147 -14.28906,-13.85547 a 148.08836,148.08836 0 0 0 -41.68946,-5.98828 z" /><path
         id="path27"
         style="fill:url(#linearGradient32);fill-opacity:1;stroke-width:0.755906;stroke-linecap:round;stroke-linejoin:round"
         d="m 454.90039,131.80664 c -4.51004,0.23618 -8.71001,1.25809 -12.35351,3.21484 -9.7161,5.2179 -15.47335,17.09272 -22.31055,38.32422 -4.58545,12.56445 -8.96432,26.88425 -13.09766,42.47266 a 102.01769,102.01769 0 0 0 36.01758,6.57031 102.01769,102.01769 0 0 0 87.75586,-49.99609 c -0.49641,-0.24845 -0.97551,-0.4944 -1.4375,-0.74219 -7.3137,-3.9226 -10.23565,-7.95234 -17.81445,-14.46484 -7.5789,-6.5124 -19.81473,-15.50867 -32.76954,-20.72657 -8.09674,-3.26112 -16.4735,-5.04597 -23.99023,-4.65234 z" /></g><g
       id="g22"
       transform="matrix(1.3831303,0,0,1.3831303,403.00962,626.12397)"><path
         style="fill:#a0ce4e;fill-opacity:1;stroke-width:0.755906;stroke-linecap:round;stroke-linejoin:round"
         d="m 610.57965,233.7149 c -19.33858,-19.4658 -34.85995,-34.9872 -48.47335,-44.6564 -13.6133,-9.6693 -25.3179,-13.486 -32.6316,-17.4087 -7.3137,-3.9226 -10.2362,-7.951 -17.815,-14.4635 -7.5789,-6.5124 -19.8136,-15.5085 -32.7684,-20.7264 -12.9548,-5.2178 -26.6288,-6.6572 -36.3448,-1.4392 -9.7161,5.2179 -15.4736,17.0927 -22.3108,38.3242 -38.2107,104.7 -62.0882,331.316 -48.9019,397.7777 18.3524,-16.1933 56.4588,-53.0409 83.8079,-72.2931 27.349,-19.2523 63.6932,-41.5626 103.0973,-61.4445 39.40409,-19.8819 81.86562,-37.3343 113.36377,-49.1401 31.49815,-11.8057 72.5648,-24.1228 72.5648,-24.1228 0,0 -90.26056,-86.7711 -133.58792,-130.4072 z"
         id="path6" /><path
         id="path10"
         style="fill:url(#linearGradient13);fill-opacity:1;stroke-width:0.755906;stroke-linecap:round;stroke-linejoin:round"
         d="m 424.82812,160.1875 c -1.51436,3.91582 -3.02464,8.29175 -4.59179,13.1582 -38.2107,104.7 -62.08865,331.31565 -48.90235,397.77735 18.3524,-16.1933 56.4595,-53.04077 83.8086,-72.29297 27.349,-19.2523 63.6916,-41.56341 103.0957,-61.44531 9.54422,-4.81568 19.26893,-9.48777 28.97266,-13.97266 A 256.93347,256.93347 0 0 0 588.32227,399.5293 256.93347,256.93347 0 0 0 424.82812,160.1875 Z" /><path
         id="path13"
         style="fill:url(#linearGradient15);fill-opacity:1;stroke-width:0.755906;stroke-linecap:round;stroke-linejoin:round"
         d="m 551.125,182.1543 a 196.47853,196.47853 0 0 0 -57.94922,139.33203 196.47853,196.47853 0 0 0 45.70703,125.98242 c 6.34973,-3.41166 12.80966,-6.7812 19.35547,-10.08398 39.40409,-19.8819 81.86709,-37.33483 113.36524,-49.14063 31.49815,-11.8057 72.56445,-24.12109 72.56445,-24.12109 0,0 -90.26053,-86.77211 -133.58789,-130.40821 -19.33858,-19.4658 -34.86121,-34.98705 -48.47461,-44.65625 -3.83007,-2.72043 -7.50785,-4.9777 -10.98047,-6.90429 z" /><path
         style="fill:url(#linearGradient22);fill-opacity:1;stroke-width:0.578042;stroke-linecap:round;stroke-linejoin:round"
         d="m 603.0622,313.10647 c -37.8353,-38.0841 -68.3601,-57.81075 -90.2255,-67.58701 -41.6079,-18.60324 -46.7813,-5.12671 -55.3308,21.42199 -29.2198,80.06423 -47.4789,253.3578 -37.3954,304.18115 14.0342,-12.38304 43.1742,-40.56045 64.0881,-55.28263 20.9138,-14.72226 48.7062,-31.78298 78.8386,-46.9867 30.13239,-15.20371 62.60278,-28.54959 86.68946,-37.5775 24.08668,-9.02783 55.49041,-18.44674 55.49041,-18.44674 0,0 -69.02238,-66.35398 -102.15487,-99.72256 z"
         id="path7" /><path
         id="path15"
         style="fill:url(#linearGradient17);fill-opacity:1;stroke-width:0.862603;stroke-linecap:round;stroke-linejoin:round"
         d="M 547.08398,293.26367 A 148.08836,148.08836 0 0 0 437.86914,341.33984 C 426.58508,397.80788 419.11077,464.009 417.59766,513.20703 a 148.08836,148.08836 0 0 0 27.31836,35.3457 c 12.90105,-11.67384 27.4168,-24.35962 39.2832,-32.71289 20.9138,-14.72226 48.70549,-31.7826 78.83789,-46.98632 30.13239,-15.20371 62.60277,-28.55022 86.68945,-37.57813 14.65016,-5.49096 32.00794,-11.12622 43.35938,-14.69922 a 148.08836,148.08836 0 0 0 -4.89649,-20.16211 c -22.61573,-21.8433 -62.35101,-60.3684 -85.12695,-83.30664 -4.88606,-4.91819 -9.64974,-9.53147 -14.28906,-13.85547 a 148.08836,148.08836 0 0 0 -41.68946,-5.98828 z" /><path
         id="path17"
         style="fill:url(#linearGradient20);fill-opacity:1;stroke-width:0.755906;stroke-linecap:round;stroke-linejoin:round"
         d="m 454.90039,131.80664 c -4.51004,0.23618 -8.71001,1.25809 -12.35351,3.21484 -9.7161,5.2179 -15.47335,17.09272 -22.31055,38.32422 -4.58545,12.56445 -8.96432,26.88425 -13.09766,42.47266 a 102.01769,102.01769 0 0 0 36.01758,6.57031 102.01769,102.01769 0 0 0 87.75586,-49.99609 c -0.49641,-0.24845 -0.97551,-0.4944 -1.4375,-0.74219 -7.3137,-3.9226 -10.23565,-7.95234 -17.81445,-14.46484 -7.5789,-6.5124 -19.81473,-15.50867 -32.76954,-20.72657 -8.09674,-3.26112 -16.4735,-5.04597 -23.99023,-4.65234 z" /></g><path
       id="path2"
       style="display:inline;fill:url(#linearGradient162);fill-opacity:1;stroke-width:1.04552;stroke-linecap:round;stroke-linejoin:round"
       d="m 1499.9373,1120.0393 c -291.9412,3.8802 -563.72394,175.2719 -660.92556,444.7844 -21.89989,60.7222 -46.78448,155.2886 -68.18671,236.418 -21.40224,81.1294 -39.32001,148.8163 -46.786,225.9635 -7.466,77.1474 -4.48021,163.7512 18.91268,249.8577 47.30217,190.1497 158.99201,303.6736 351.39069,331.9782 105.7182,13.6671 261.1025,19.5424 405.5949,22.3463 144.4924,-2.8039 299.8765,-8.6792 405.5948,-22.3463 197.9554,-14.0862 298.6614,-153.4071 351.3908,-331.9782 23.3929,-86.1065 26.3786,-172.7103 18.9126,-249.8577 -7.466,-77.1472 -25.3836,-144.8341 -46.7859,-225.9635 -21.4022,-81.1294 -46.287,-175.6958 -68.1868,-236.418 -97.2017,-269.5125 -368.9843,-440.9042 -660.9255,-444.7844 z" /><path
       id="path82"
       style="display:inline;fill:url(#linearGradient88);fill-opacity:0.640677;stroke-width:1.07193;stroke-linecap:round;stroke-linejoin:round"
       d="m 1488.3644,1865.7734 v 0.5349 c -72.7701,2.7972 -147.0391,16.5619 -234.3271,41.3129 -112.2085,18.8588 -161.041,-10.6764 -187.5574,-2.877 -37.5193,11.0357 -48.9223,140.5017 134.269,189.6347 10.0315,3.6104 10.8853,7.6747 6.5402,13.2559 -4.345,5.5814 -13.888,12.6792 -27.2277,21.263 -13.34,8.5837 -28.9702,-2.5297 -38.833,7.5099 -28.6724,14.5339 -1.6949,76.4261 84.7464,82.2287 82.7805,5.5573 149.6235,-44.1328 173.1507,-44.0899 10.8469,0.019 18.6472,0.3593 25.9499,13.472 7.3028,13.1123 14.1087,32.6167 23.5267,54.9983 9.4182,22.3819 21.4489,15.9106 35.675,30.5315 1.326,1.3628 2.69,2.6291 4.0873,3.7983 v 10.5895 h 0.068 c 4.6524,0 9.303,-0.8209 13.8205,-2.4664 v 0 c 4.5174,1.6455 9.168,2.4664 13.8205,2.4664 h 0.067 v -10.5895 c 1.3972,-1.1692 2.7613,-2.4355 4.0873,-3.7983 14.2262,-14.6209 26.2569,-8.1496 35.675,-30.5315 9.418,-22.3816 16.224,-41.886 23.5268,-54.9983 7.3027,-13.1127 15.103,-13.4521 25.9499,-13.472 23.5272,-0.043 90.3701,49.6472 173.1506,44.0899 86.4414,-5.8026 113.4189,-67.6948 84.7465,-82.2287 -9.8629,-10.0396 -25.4931,1.0738 -38.8331,-7.5099 -13.3397,-8.5838 -22.8826,-15.6816 -27.2276,-21.263 -4.3451,-5.5812 -3.4913,-9.6455 6.5401,-13.2559 183.1914,-49.133 171.7884,-178.599 134.2691,-189.6347 -26.5164,-7.7994 -75.3489,21.7358 -187.5574,2.877 -87.288,-24.751 -161.5572,-38.5157 -234.3272,-41.3129 v -0.5349 c -4.6283,10e-5 -9.2564,0.046 -13.888,0.1351 v 0 c -4.6316,-0.089 -9.2596,-0.135 -13.888,-0.1351 z" /><path
       id="path73"
       style="display:inline;fill:#7ea146;fill-opacity:1;stroke-width:1.04552;stroke-linecap:round;stroke-linejoin:round"
       d="m 1244.2284,1896.1104 c -109.4436,18.3941 -157.0749,-10.414 -182.9379,-2.8068 -36.5949,10.7638 -47.7152,137.0417 130.9624,184.964 9.7843,3.5215 10.6162,7.4853 6.3781,12.929 -4.2379,5.4438 -13.5466,12.3665 -26.5577,20.7389 -13.0113,8.3722 -29.7238,18.1945 -39.3436,27.9868 -25.8151,13.0855 3.9067,45.2047 26.7036,54.8038 106.1874,44.7122 198.1191,-38.3169 226.3066,-38.2657 10.5796,0.019 18.1895,0.3502 25.3124,13.1398 7.1228,12.7892 13.76,31.8119 22.9459,53.6422 9.186,21.8303 20.9215,46.4673 34.7971,60.728 9.104,9.3566 20.0593,14.0339 31.015,14.0339 h 0.062 0.065 c 10.9557,0 21.9112,-4.6773 31.0151,-14.0339 13.8757,-14.2607 25.611,-38.8977 34.7971,-60.728 9.1859,-21.8303 15.823,-40.853 22.9459,-53.6422 7.1228,-12.7896 14.7328,-13.1204 25.3123,-13.1398 28.1876,-0.051 120.1192,82.9779 226.3067,38.2657 22.7969,-9.5991 52.5187,-41.7183 26.7035,-54.8038 -9.6198,-9.7923 -26.3323,-19.6146 -39.3435,-27.9868 -13.0112,-8.3724 -22.3199,-15.2951 -26.5578,-20.7389 -4.2381,-5.4437 -3.4061,-9.4075 6.3782,-12.929 178.6776,-47.9223 167.5572,-174.2002 130.9623,-184.964 -25.863,-7.6072 -73.4942,21.2009 -182.9378,2.8068 -192.0531,-54.4578 -319.4859,-54.3874 -511.2909,0 z" /><g
       id="g76"
       transform="matrix(-1.3831303,0,0,1.3831303,2596.8649,626.12397)"><path
         id="path75"
         style="fill:url(#linearGradient78);fill-opacity:1;stroke-width:0.755906;stroke-linecap:round;stroke-linejoin:round"
         d="m 697.92964,1027.5918 c 42.03349,-5e-4 78.9252,35.1071 78.92578,77.1406 2.9e-4,22.5557 -10.00418,43.9495 -27.31445,58.4102 -0.41694,-0.9716 -0.82706,-1.9378 -1.23047,-2.8965 -6.6414,-15.7832 -11.44004,-29.5366 -16.58984,-38.7832 -10e-4,0 -0.003,0 -0.004,-0.01 -0.93456,-1.9841 -1.86784,-3.8312 -2.8125,-5.5273 -5.1494,-9.2461 -10.65074,-9.486 -18.29883,-9.5 h -0.002 c -0.59852,0 -1.24802,0.063 -1.92383,0.1582 -0.0707,0.01 -0.13933,0.018 -0.21093,0.029 -0.46832,0.072 -0.98837,0.2044 -1.49219,0.3183 -0.30372,0.071 -0.60336,0.1349 -0.91992,0.2207 -1.19775,0.3149 -2.62565,0.8655 -4.00196,1.3711 -0.51993,0.1971 -1.01777,0.3602 -1.5625,0.5821 -15.19783,6.0073 -39.84682,21.0857 -70.48047,28.9355 -5.38442,-10.6483 -8.18973,-22.4135 -8.18945,-34.3457 5.7e-4,-42.0327 34.07469,-76.1068 76.10742,-76.1074 z"
         transform="matrix(-1,0,0,1,1586.1523,0)" /><path
         id="path76"
         style="fill:url(#linearGradient79);stroke-width:0.755906;stroke-linecap:round;stroke-linejoin:round"
         d="m 547.89644,1003.8164 c 43.84576,3e-4 79.38938,35.5448 79.38867,79.3906 l -99.60742,11.2657 c 6.9551,-7.0798 19.03821,-14.1813 28.44531,-20.2344 9.407,-6.0532 16.13718,-11.0583 19.20117,-14.9942 2.10622,-2.7054 2.48036,-4.9058 0.21094,-6.8437 -0.61927,-0.5286 -1.4356,-1.0386 -2.46679,-1.5332 -0.68747,-0.3297 -1.47122,-0.6525 -2.35547,-0.9707 h -0.002 c -29.79843,-7.9923 -52.29549,-19.0003 -68.94922,-31.3008 13.45326,-9.6064 29.58109,-14.7795 46.13477,-14.7793 z"
         transform="matrix(-1,0,0,1,1586.1523,0)" /></g><path
       id="path9"
       style="display:inline;fill:url(#linearGradient122);fill-opacity:1;stroke-width:1.06444;stroke-linecap:round;stroke-linejoin:round"
       d="m 1269.7302,1253.3212 c -8.6143,0.3484 -15.5507,1.7106 -21.4414,3.8009 -44.3842,17.4594 -36.4893,120.6828 -14.8215,145.3049 -51.9702,16.273 -112.8423,31.8839 -148.9764,75.5016 -6.0808,8.8678 -5.321,14.9489 -1.9637,30.6578 3.3571,15.7089 9.3117,41.0453 20.2065,66.2552 56.4219,130.5572 141.4535,127.3327 222.8775,103.7804 0.4479,2.8665 0.8958,5.7328 1.8812,11.3314 15.5359,88.2732 113.9219,83.5039 172.5786,43.427 52.4106,36.9503 156.2021,48.1027 172.3112,-43.427 0.9854,-5.5986 1.4333,-8.4649 1.8812,-11.3314 81.424,23.5523 166.4557,26.7768 222.8774,-103.7804 10.8948,-25.2099 16.8495,-50.5463 20.2066,-66.2552 1.6787,-7.8544 2.7079,-13.3019 2.5574,-17.8944 -0.1503,-4.5923 -1.4806,-8.3295 -4.521,-12.7634 -36.1342,-43.6177 -97.0063,-59.2286 -148.9765,-75.5016 21.6679,-24.6221 29.5627,-127.8455 -14.8215,-145.3049 -5.8907,-2.0903 -12.8271,-3.4525 -21.4414,-3.8009 -14.7924,-0.5982 -115.2412,5.8456 -188.7241,72.0831 -16.4882,14.8626 -29.1458,30.15 -41.483,45.4738 -12.3371,-15.3238 -24.9948,-30.6112 -41.483,-45.4738 -73.4829,-66.2375 -173.9317,-72.6813 -188.7241,-72.0831 z" /><path
       id="path32"
       style="fill:url(#linearGradient34);fill-opacity:1;stroke-width:1.04552;stroke-linecap:round;stroke-linejoin:round"
       d="m 1499.9373,1120.0393 c -116.7,1.551 -230.1794,29.8691 -330.5735,80.5214 a 418.08524,209.04262 0 0 0 330.5735,81.0617 418.08524,209.04262 0 0 0 330.5736,-81.0617 c -100.3941,-50.6523 -213.8736,-78.9704 -330.5736,-80.5214 z" /><g
       id="g67"
       transform="matrix(-1.3831303,0,0,1.3831303,2596.8649,626.12397)"><path
         id="path66"
         style="fill:url(#linearGradient69);fill-opacity:1;stroke-width:0.755906;stroke-linecap:round;stroke-linejoin:round"
         d="m 697.92964,1027.5918 c 42.03349,-5e-4 78.9252,35.1071 78.92578,77.1406 2.9e-4,22.5557 -10.00418,43.9495 -27.31445,58.4102 -0.41694,-0.9716 -0.82706,-1.9378 -1.23047,-2.8965 -6.6414,-15.7832 -11.44004,-29.5366 -16.58984,-38.7832 -10e-4,0 -0.003,0 -0.004,-0.01 -0.93456,-1.9841 -1.86784,-3.8312 -2.8125,-5.5273 -5.1494,-9.2461 -10.65074,-9.486 -18.29883,-9.5 h -0.002 c -0.59852,0 -1.24802,0.063 -1.92383,0.1582 -0.0707,0.01 -0.13933,0.018 -0.21093,0.029 -0.46832,0.072 -0.98837,0.2044 -1.49219,0.3183 -0.30372,0.071 -0.60336,0.1349 -0.91992,0.2207 -1.19775,0.3149 -2.62565,0.8655 -4.00196,1.3711 -0.51993,0.1971 -1.01777,0.3602 -1.5625,0.5821 -15.19783,6.0073 -39.84682,21.0857 -70.48047,28.9355 -5.38442,-10.6483 -8.18973,-22.4135 -8.18945,-34.3457 5.7e-4,-42.0327 34.07469,-76.1068 76.10742,-76.1074 z" /><path
         id="path67"
         style="fill:url(#linearGradient70);stroke-width:0.755906;stroke-linecap:round;stroke-linejoin:round"
         d="m 547.89644,1003.8164 c 43.84576,3e-4 79.38938,35.5448 79.38867,79.3906 l -99.60742,11.2657 c 6.9551,-7.0798 19.03821,-14.1813 28.44531,-20.2344 9.407,-6.0532 16.13718,-11.0583 19.20117,-14.9942 2.10622,-2.7054 2.48036,-4.9058 0.21094,-6.8437 -0.61927,-0.5286 -1.4356,-1.0386 -2.46679,-1.5332 -0.68747,-0.3297 -1.47122,-0.6525 -2.35547,-0.9707 h -0.002 c -29.79843,-7.9923 -52.29549,-19.0003 -68.94922,-31.3008 13.45326,-9.6064 29.58109,-14.7795 46.13477,-14.7793 z" /></g><g
       id="g46"
       style="display:inline"
       transform="matrix(1.3831303,0,0,1.3831303,403.00962,626.12397)"><path
         id="path34"
         style="fill:url(#linearGradient36);fill-opacity:1;stroke-width:0.755906;stroke-linecap:round;stroke-linejoin:round"
         d="m 315.22852,678.67773 c -15.83357,43.90198 -33.82507,112.27333 -49.29883,170.92969 -15.47377,58.65636 -28.42828,107.59383 -33.82617,163.37108 -5.3979,55.7774 -3.23918,118.3917 13.67382,180.6465 34.19936,137.4778 114.95086,219.5553 254.05469,240.0195 50.03629,6.4687 115.4601,10.5235 183.99024,13.1211 A 472.4855,472.4855 0 0 0 787.71484,1151.1641 472.4855,472.4855 0 0 0 315.22852,678.67773 Z" /><g
         id="g40"
         transform="matrix(-1,0,0,1,1586.1523,0)"><path
           id="path39"
           style="fill:url(#linearGradient41);fill-opacity:1;stroke-width:0.755906;stroke-linecap:round;stroke-linejoin:round"
           d="m 315.22852,678.67773 c -15.83357,43.90198 -33.82507,112.27333 -49.29883,170.92969 -15.47377,58.65636 -28.42828,107.59383 -33.82617,163.37108 -5.3979,55.7774 -3.23918,118.3917 13.67382,180.6465 34.19936,137.4778 114.95086,219.5553 254.05469,240.0195 50.03629,6.4687 115.4601,10.5235 183.99024,13.1211 A 472.4855,472.4855 0 0 0 787.71484,1151.1641 472.4855,472.4855 0 0 0 315.22852,678.67773 Z" /></g></g><path
       id="path43"
       style="display:inline;fill:url(#linearGradient56);fill-opacity:1;stroke-width:1.04552;stroke-linecap:round;stroke-linejoin:round"
       d="m 1244.3554,1889.8836 c -109.4437,18.3941 -159.3749,-15.9046 -182.9379,-2.8068 -36.8511,20.4835 -47.7772,139.3938 130.9624,184.964 9.7843,3.5214 10.6161,7.4853 6.3781,12.9291 -4.2379,5.4438 -13.5466,12.3664 -26.5577,20.7388 -13.0113,8.3722 -29.7238,18.1945 -39.3436,27.9868 -9.6198,9.7921 -12.1474,19.553 -7.5856,29.0375 4.5621,9.4844 16.2132,18.691 34.2892,25.7662 107.2903,41.9967 198.1191,-38.3168 226.3066,-38.2656 10.5796,0.019 18.1895,6.5743 25.3124,19.3638 7.1228,12.7892 13.7599,31.812 22.9459,53.6422 9.186,21.8304 20.9214,46.4675 34.797,60.7281 18.2074,18.7127 43.8207,18.7148 62.0302,0 13.8757,-14.2606 25.611,-38.8977 34.7971,-60.7281 9.1859,-21.8302 15.823,-40.853 22.9459,-53.6422 7.1228,-12.7895 14.7328,-19.3445 25.3123,-19.3638 28.1876,-0.051 119.0164,80.2623 226.3067,38.2656 18.076,-7.0751 29.727,-16.2818 34.2892,-25.7662 4.5618,-9.4845 2.0341,-19.2454 -7.5856,-29.0375 -9.6199,-9.7923 -26.3324,-19.6146 -39.3436,-27.9868 -13.0112,-8.3724 -22.3198,-15.295 -26.5577,-20.7388 -4.238,-5.4438 -3.4062,-9.4077 6.3781,-12.9291 178.7395,-45.5702 167.8134,-164.4805 130.9623,-184.964 -23.563,-13.0978 -73.4941,21.2009 -182.9378,2.8068 -165.289,-65.324 -344.5148,-47.2543 -511.1639,0 z" /><path
       id="path45"
       style="display:inline;fill:url(#linearGradient54);stroke-width:1.19733;stroke-linecap:round;stroke-linejoin:round"
       d="m 1460.5887,1822.7083 c -23.0714,0.5734 -43.9478,2.8269 -60.9148,6.3297 -17.6248,3.6385 -149.5639,52.3375 -198.1973,118.9183 -11.9698,16.3875 -19.9509,32.6313 -22.5158,40.4686 -2.565,7.8375 0.2863,7.2667 12.8264,5.1293 129.7688,-22.1206 219.4509,-85.4153 219.4509,-70.4464 -2.0584,63.8545 33.6546,131.7019 88.6992,165.9209 56.0821,-38.0004 88.6406,-99.7716 88.6992,-165.9209 0,-14.9689 89.6822,48.3258 219.4509,70.4464 12.5402,2.1374 15.3914,2.7082 12.8265,-5.1293 -2.5649,-7.8373 -10.5461,-24.0811 -22.5158,-40.4686 -48.6335,-66.5808 -180.5725,-115.2798 -198.1974,-118.9183 -16.9669,-3.5028 -37.8434,-5.7563 -60.9147,-6.3297 -12.5583,-0.3121 -25.7668,-0.1265 -39.3487,0.628 -13.5819,-0.7544 -26.7904,-0.9401 -39.3486,-0.628 z" /><g
       id="g62"
       transform="matrix(1.3831303,0,0,1.3831303,403.00962,626.12397)"><path
         id="path47"
         style="fill:url(#linearGradient49);fill-opacity:1;stroke-width:0.755906;stroke-linecap:round;stroke-linejoin:round"
         d="m 627.19727,908.53125 c -6.32522,1.66018 -12.62771,3.38374 -18.90625,5.16406 -79.1275,13.2989 -115.22768,-11.49899 -132.26368,-2.02929 -22.68232,12.60785 -31.77957,76.79139 45.75391,115.92578 a 114.97232,114.97232 0 0 0 105.50391,-114.58008 114.97232,114.97232 0 0 0 -0.0879,-4.48047 z" /><path
         id="path59"
         style="fill:url(#linearGradient61);fill-opacity:1;stroke-width:0.863792;stroke-linecap:round;stroke-linejoin:round"
         d="m 593.17773,1003.8164 a 92.522232,92.522232 0 0 0 -65.12109,26.7988 c 12.18882,5.6057 26.32758,10.6163 42.65625,14.7793 7.074,2.546 7.67543,5.4119 4.61133,9.3477 -3.064,3.9359 -9.79417,8.9409 -19.20117,14.9941 -9.4071,6.0531 -21.49023,13.1546 -28.44532,20.2344 -6.95511,7.0797 -8.78257,14.1368 -5.48437,20.9941 3.2984,6.8572 11.72212,13.5135 24.79102,18.629 56.33799,22.0524 106.39737,-2.5414 137.38867,-17.6426 a 92.522232,92.522232 0 0 0 1.32812,-15.6133 92.522232,92.522232 0 0 0 -92.52344,-92.5215 z" /></g><g
       id="g63"
       transform="matrix(-1.3831303,0,0,1.3831303,2596.8649,626.12397)"><path
         id="path62"
         style="fill:url(#linearGradient65);fill-opacity:1;stroke-width:0.755906;stroke-linecap:round;stroke-linejoin:round"
         d="m 627.19727,908.53125 c -6.32522,1.66018 -12.62771,3.38374 -18.90625,5.16406 -79.1275,13.2989 -115.22768,-11.49899 -132.26368,-2.02929 -22.68232,12.60785 -31.77957,76.79139 45.75391,115.92578 a 114.97232,114.97232 0 0 0 105.50391,-114.58008 114.97232,114.97232 0 0 0 -0.0879,-4.48047 z" /><path
         id="path63"
         style="fill:url(#linearGradient66);fill-opacity:1;stroke-width:0.863792;stroke-linecap:round;stroke-linejoin:round"
         d="m 593.17773,1003.8164 a 92.522232,92.522232 0 0 0 -65.12109,26.7988 c 12.18882,5.6057 26.32758,10.6163 42.65625,14.7793 7.074,2.546 7.67543,5.4119 4.61133,9.3477 -3.064,3.9359 -9.79417,8.9409 -19.20117,14.9941 -9.4071,6.0531 -21.49023,13.1546 -28.44532,20.2344 -6.95511,7.0797 -8.78257,14.1368 -5.48437,20.9941 3.2984,6.8572 11.72212,13.5135 24.79102,18.629 56.33799,22.0524 106.39737,-2.5414 137.38867,-17.6426 a 92.522232,92.522232 0 0 0 1.32812,-15.6133 92.522232,92.522232 0 0 0 -92.52344,-92.5215 z" /></g><path
       id="path83"
       style="fill:url(#linearGradient86);fill-opacity:1;stroke-width:1.12384;stroke-linecap:round;stroke-linejoin:round"
       d="m 1500.4479,1847.6658 c -86.2987,2.2587 -172.768,18.5907 -256.0925,42.2178 -23.8901,4.0152 -44.9445,5.5195 -63.5079,5.5542 a 400.52766,340.05462 0 0 0 -74.3378,141.7871 c 21.8954,13.6265 50.0808,25.6914 85.8702,34.8159 9.7843,3.5214 10.6161,7.4853 6.3781,12.9291 -4.2379,5.4438 -13.5466,12.3664 -26.5577,20.7388 -13.0113,8.3722 -29.7238,18.1945 -39.3436,27.9868 -9.6198,9.7921 -12.1475,19.553 -7.5856,29.0375 4.5621,9.4844 16.2132,18.6911 34.2892,25.7664 107.2903,41.9965 198.1191,-38.317 226.3066,-38.2658 10.5795,0.019 18.1895,6.5743 25.3123,19.3638 7.1229,12.7892 13.76,31.812 22.946,53.6422 9.186,21.8304 20.9213,46.4675 34.797,60.7281 18.2074,18.7127 43.8207,18.7148 62.0302,0 13.8757,-14.2606 25.611,-38.8977 34.797,-60.7281 9.186,-21.8302 15.8231,-40.853 22.946,-53.6422 7.1228,-12.7895 14.7328,-19.3445 25.3123,-19.3638 28.1875,-0.051 119.0163,80.2625 226.3067,38.2658 18.076,-7.0751 29.727,-16.282 34.2892,-25.7664 4.5618,-9.4845 2.034,-19.2454 -7.5857,-29.0375 -9.6199,-9.7923 -26.3323,-19.6146 -39.3435,-27.9868 -13.0112,-8.3724 -22.3199,-15.295 -26.5578,-20.7388 -4.2381,-5.4438 -3.4061,-9.4077 6.3782,-12.9291 35.7893,-9.1245 63.9747,-21.1894 85.8701,-34.8159 a 400.52766,340.05462 0 0 0 -74.3379,-141.7871 c -18.5632,-0.035 -39.6177,-1.539 -63.5077,-5.5542 -82.6446,-32.662 -168.7727,-44.4765 -255.0714,-42.2178 z" /><path
       id="path98"
       style="fill:url(#linearGradient101);fill-opacity:1;stroke-width:1.63646;stroke-linecap:round;stroke-linejoin:round"
       d="m 1269.7297,1253.3222 c -8.6143,0.3484 -15.5504,1.7106 -21.4412,3.8009 -13.2432,5.2095 -21.8326,18.0534 -26.79,34.1676 a 283.20127,283.20127 0 0 0 -4.7626,51.7215 283.20127,283.20127 0 0 0 0.059,5.7595 c 2.0941,23.259 8.3735,44.2243 16.6732,53.6557 -3.2224,1.009 -6.48,2.0148 -9.7629,3.0256 a 283.20127,283.20127 0 0 0 276.2316,220.7606 283.20127,283.20127 0 0 0 276.2317,-220.7606 c -3.283,-1.0108 -6.5405,-2.0166 -9.763,-3.0256 8.2997,-9.4313 14.5791,-30.3968 16.6732,-53.6557 a 283.20127,283.20127 0 0 0 0.06,-5.7595 283.20127,283.20127 0 0 0 -4.7626,-51.7215 c -4.9575,-16.1142 -13.5469,-28.9581 -26.7901,-34.1676 -5.8907,-2.0903 -12.8269,-3.4525 -21.4412,-3.8009 -14.7924,-0.5982 -115.2415,5.8446 -188.7244,72.0821 -16.4882,14.8626 -29.1459,30.1494 -41.4831,45.4732 -12.3372,-15.3238 -24.9949,-30.6106 -41.4831,-45.4732 -73.4829,-66.2375 -173.932,-72.6803 -188.7244,-72.0821 z" /><g
       id="g101"
       transform="matrix(1.3831303,0,0,1.3831303,403.00962,626.12397)"><path
         id="path94"
         style="fill:url(#linearGradient96);fill-opacity:1;stroke-width:0.755906;stroke-linecap:round;stroke-linejoin:round"
         d="m 626.63672,453.46289 c -6.22815,0.25188 -11.24294,1.23678 -15.50195,2.74805 -32.08967,12.62309 -26.38063,87.25293 -10.71485,105.05468 -13.58778,4.25464 -28.01775,8.44701 -42.13867,13.55665 a 123.22967,123.22967 0 0 0 68.49414,20.78906 123.22967,123.22967 0 0 0 121.39649,-102.05078 C 697.26298,456.88357 636.35929,453.06972 626.63672,453.46289 Z" /><path
         id="path96"
         style="fill:url(#linearGradient98);fill-opacity:1;stroke-width:0.755906;stroke-linecap:round;stroke-linejoin:round"
         d="m 595.26953,562.86523 c -36.37989,11.23105 -77.62038,22.8829 -102.56055,52.98829 -4.39635,6.41137 -3.84717,10.80656 -1.41992,22.16406 2.42725,11.35749 6.73245,29.67564 14.60938,47.90234 40.79285,94.39257 102.27124,92.06141 161.14062,75.0332 0.32383,2.07245 0.64696,4.14561 1.35938,8.19336 2.79338,15.87166 9.29134,27.58245 18.13086,35.7754 A 176,176 0 0 0 705.2168,726 176,176 0 0 0 595.26953,562.86523 Z" /></g><g
       id="g102"
       transform="matrix(-1.3831303,0,0,1.3831303,2596.8644,626.12397)"><path
         id="path101"
         style="fill:url(#linearGradient103);fill-opacity:1;stroke-width:0.755906;stroke-linecap:round;stroke-linejoin:round"
         d="m 626.63672,453.46289 c -6.22815,0.25188 -11.24294,1.23678 -15.50195,2.74805 -32.08967,12.62309 -26.38063,87.25293 -10.71485,105.05468 -13.58778,4.25464 -28.01775,8.44701 -42.13867,13.55665 a 123.22967,123.22967 0 0 0 68.49414,20.78906 123.22967,123.22967 0 0 0 121.39649,-102.05078 C 697.26298,456.88357 636.35929,453.06972 626.63672,453.46289 Z" /><path
         id="path102"
         style="fill:url(#linearGradient104);fill-opacity:1;stroke-width:0.755906;stroke-linecap:round;stroke-linejoin:round"
         d="m 595.26953,562.86523 c -36.37989,11.23105 -77.62038,22.8829 -102.56055,52.98829 -4.39635,6.41137 -3.84717,10.80656 -1.41992,22.16406 2.42725,11.35749 6.73245,29.67564 14.60938,47.90234 40.79285,94.39257 102.27124,92.06141 161.14062,75.0332 0.32383,2.07245 0.64696,4.14561 1.35938,8.19336 2.79338,15.87166 9.29134,27.58245 18.13086,35.7754 A 176,176 0 0 0 705.2168,726 176,176 0 0 0 595.26953,562.86523 Z" /></g><path
       id="path104"
       style="fill:url(#linearGradient106);fill-opacity:1;stroke-width:1.18067;stroke-linecap:round;stroke-linejoin:round"
       d="m 1499.9373,1449.932 a 229.54289,229.54289 0 0 0 -229.5429,229.5429 229.54289,229.54289 0 0 0 0.2458,10.6464 c 18.2624,-1.9572 36.7084,-6.2174 54.9714,-11.5 0.4479,2.8665 0.8948,5.7339 1.8802,11.3325 15.5359,88.2732 113.9238,83.5023 172.5806,43.4254 52.4106,36.9503 156.2014,48.1043 172.3105,-43.4254 0.9853,-5.5986 1.4322,-8.466 1.8801,-11.3325 18.263,5.2826 36.709,9.5428 54.9714,11.5 a 229.54289,229.54289 0 0 0 0.2458,-10.6464 229.54289,229.54289 0 0 0 -229.5429,-229.5429 z" /><path
       id="path93"
       style="display:inline;fill:url(#linearGradient108);fill-opacity:1;stroke-width:1.18779;stroke-linecap:round;stroke-linejoin:round"
       d="m 1496.8897,1641.2933 c -16.6359,0.3568 -32.4267,3.6432 -31.559,11.7237 0.6768,6.3029 18.488,33.513 33.4127,34.7202 l -3e-4,0.016 c 0.6696,0.061 1.7069,0.048 2.3877,-1e-4 l 3e-4,-0.016 c 14.9244,-1.2072 32.7359,-28.4164 33.4128,-34.7201 0.8677,-8.0806 -14.9201,-11.3669 -31.556,-11.7237 -2.0321,-0.06 -4.0657,-0.022 -6.0982,0 z" /><path
       id="path108"
       style="fill:url(#linearGradient110);fill-opacity:1;stroke-width:1.04552;stroke-linecap:round;stroke-linejoin:round"
       d="m 1499.9373,1654.4354 a 36.797295,36.797295 0 0 0 -27.4681,12.3104 c 6.7022,9.5442 17.0404,20.2432 26.2741,20.9901 v 0.016 c 0.6696,0.061 1.7072,0.048 2.388,0 v -0.016 c 9.2336,-0.7469 19.5719,-11.4459 26.2741,-20.9901 a 36.797295,36.797295 0 0 0 -27.4681,-12.3104 z" /><path
       id="path110"
       style="fill:url(#linearGradient112);fill-opacity:1;stroke-width:1.04552;stroke-linecap:round;stroke-linejoin:round"
       d="m 1399.6739,1630.752 a 99.143097,99.143097 0 0 0 -86.8833,51.3865 c 4.2805,-1.1058 8.5556,-2.2834 12.821,-3.5172 0.4479,2.8665 0.8948,5.7339 1.8802,11.3325 15.4171,87.5986 112.4232,83.5703 171.2272,44.3385 a 99.143097,99.143097 0 0 0 0.097,-4.3979 99.143097,99.143097 0 0 0 -99.1423,-99.1424 z" /><path
       id="path113"
       style="fill:url(#linearGradient113);fill-opacity:1;stroke-width:1.04552;stroke-linecap:round;stroke-linejoin:round"
       d="m 1600.2007,1630.752 a 99.143097,99.143097 0 0 1 86.8833,51.3865 c -4.2805,-1.1058 -8.5557,-2.2834 -12.821,-3.5172 -0.4479,2.8665 -0.8948,5.7339 -1.8802,11.3325 -15.4172,87.5986 -112.4232,83.5703 -171.2272,44.3385 a 99.143097,99.143097 0 0 1 -0.097,-4.3979 99.143097,99.143097 0 0 1 99.1423,-99.1424 z" /><path
       id="path114"
       style="fill:url(#linearGradient116);fill-opacity:1;stroke-width:1.04552;stroke-linecap:round;stroke-linejoin:round"
       d="m 1862.3147,1217.604 a 492.94108,492.94108 0 0 0 -133.0668,336.8733 492.94108,492.94108 0 0 0 492.94,492.94 492.94108,492.94108 0 0 0 55.1172,-3.0904 c -0.4311,-5.7552 -0.922,-11.4641 -1.4696,-17.1217 -7.466,-77.1472 -25.3836,-144.8341 -46.7859,-225.9635 -21.4022,-81.1294 -46.287,-175.6958 -68.1868,-236.418 -54.1835,-150.2355 -162.6164,-269.9823 -298.5481,-347.2197 z" /><path
       id="path116"
       style="fill:url(#linearGradient117);fill-opacity:1;stroke-width:1.04552;stroke-linecap:round;stroke-linejoin:round"
       d="m 1137.5598,1217.604 a 492.94108,492.94108 0 0 1 133.0669,336.8733 492.94108,492.94108 0 0 1 -492.94008,492.94 492.94108,492.94108 0 0 1 -55.11719,-3.0904 c 0.43112,-5.7552 0.92199,-11.4641 1.46957,-17.1217 7.466,-77.1472 25.38363,-144.8341 46.78591,-225.9635 21.40228,-81.1294 46.28701,-175.6958 68.1868,-236.418 54.18358,-150.2355 162.61639,-269.9823 298.54809,-347.2197 z" /><circle
       style="display:inline;mix-blend-mode:overlay;fill:url(#radialGradient120);stroke-width:1.61164;stroke-linecap:round;stroke-linejoin:round"
       id="path119"
       cx="1484.2771"
       cy="1913.5123"
       r="360.03601" /><g
       id="g128"
       transform="matrix(1.3831303,0,0,1.3831303,403.00962,626.12397)"><path
         id="path91"
         style="fill:#c9d4c6;fill-opacity:0.601267;stroke-width:0.755906;stroke-linecap:round;stroke-linejoin:round"
         d="m 1275.8711,692.95898 c -9e-4,0.88252 0.1167,1.76064 0.3652,2.62891 0.8398,2.27806 1.8609,4.93216 3.0176,7.71484 -1.1344,-3.54048 -2.2629,-6.99162 -3.3828,-10.34375 z m 5.1836,16.01954 c -0.529,5.28743 -9.5774,10.29608 -7.4043,18.71289 1.1956,4.63232 2.252,9.4789 3.0625,14.36914 2.5001,15.0835 2.6673,30.58251 5.334,51.16601 v 0.002 c 3.0528,23.56468 29.0579,95.87842 55.3105,123.57812 -5.0818,-21.53441 -10.8987,-43.56215 -17.125,-67.16406 0,-0.0115 -0.01,-0.0236 -0.01,-0.0352 -0.014,-0.0522 -0.027,-0.10407 -0.041,-0.15625 -12.2413,-46.40333 -26.0542,-98.86442 -39.1269,-140.47265 z" /><g
         id="g90"
         transform="translate(2.6945447,-1574.4089)"><path
           style="fill:url(#linearGradient74);fill-opacity:1;stroke-width:0.755906;stroke-linecap:round;stroke-linejoin:round"
           d="m 1274.5001,2202.5831 c 22.3854,-25.9706 37.4788,-49.138 16.8332,-80.25 -5.1668,-7.6667 -12.5,-17.4999 -16.4167,-25.75 -3.9166,-8.25 -4.4166,-14.9165 -3.2499,-19.6666 1.1667,-4.75 4,-7.5833 10.0834,-8.8333 6.0834,-1.25 15.4166,-0.9166 29.3335,3.2501 63.2477,18.9366 98.1663,66.7179 100.4997,94.0834 0.9166,10.75 -3.0833,19.4165 -9.1667,32.25 -6.0834,12.8335 -14.2499,29.8332 -17.9166,39.1665 -3.6667,9.3334 -2.8333,11 0.6667,13.5834 3.5001,2.5834 9.6666,6.0833 23.8335,11.0834 14.1669,5 36.3331,11.4999 49.5832,17.0833 13.25,5.5834 17.5833,10.2499 19.2499,15.5 8.3637,26.3451 -68.5678,31.4061 -84.4167,41.3333 -7.5833,4.7501 -9.7499,12.4166 -8.0832,21.5 13.6754,47.2538 35.4283,82.0504 1.1665,129.0834 -8.5001,10.8333 -17.9999,14.6666 -26.6666,14.7499 -8.6668,0.083 -16.5,-3.5833 -20.6666,-11.5835 -4.1667,-8.0001 -4.6667,-20.3332 -9.0834,-32.5833 -4.4168,-12.2501 -12.75,-24.4165 -21.0834,-32.4166 -8.44,-9.9549 -23.4022,-16.4509 -26.9688,-29.8872 -2.8199,-12.926 -8.9978,-42.0015 -11.0311,-57.6962 -2.6667,-20.5835 -2.8333,-36.0832 -5.3334,-51.1667 -2.5,-15.0835 -7.3333,-29.7498 -11.4166,-38.9999 -1.7465,-3.9564 -3.2672,-7.8578 -4.4357,-11.0275 -3.337,-11.6615 17.2213,-24.8191 24.6858,-32.8059 z"
           id="path122" /><path
           id="path28"
           style="fill:url(#linearGradient37);fill-opacity:1;stroke-width:0.817498;stroke-linecap:round;stroke-linejoin:round"
           d="m 1286.9434,2067.4785 c -1.948,0.079 -3.6726,0.293 -5.1934,0.6055 -6.0834,1.25 -8.9173,4.082 -10.084,8.832 -1.1667,4.7501 -0.6666,11.418 3.25,19.668 3.9167,8.2501 11.2512,18.0833 16.418,25.75 7.3045,11.0075 10.1351,21.0211 9.7519,30.5156 a 77.255974,77.255974 0 0 0 53.6016,-42.5742 88.619118,88.619118 0 0 0 -22.9668,-31.3633 c -6.5021,-2.8563 -13.383,-5.4063 -20.6367,-7.5781 -10.4377,-3.125 -18.2969,-4.0937 -24.1406,-3.8555 z" /><path
           id="path37"
           style="fill:url(#linearGradient42);fill-opacity:1;stroke-width:0.755906;stroke-linecap:round;stroke-linejoin:round"
           d="m 1294.1172,2126.8574 c 16.3627,28.8687 1.6698,51.0303 -19.6172,75.7266 -7.4645,7.9868 -28.0225,21.1432 -24.6855,32.8047 1.1685,3.1697 2.689,7.0709 4.4355,11.0273 2.7595,6.2512 5.8606,14.9755 8.3535,24.6309 a 75.539177,75.539177 0 0 0 75.5391,-75.5391 75.539177,75.539177 0 0 0 -44.0254,-68.6504 z" /><path
           id="path42"
           style="fill:url(#linearGradient45);fill-opacity:1;stroke-width:0.755906;stroke-linecap:round;stroke-linejoin:round"
           d="m 1307.6797,2070.3652 a 96.34417,96.34417 0 0 0 -14.4805,50.7989 96.34417,96.34417 0 0 0 0.096,4.2793 c 7.0498,11.7998 8.9245,22.4708 7.2559,32.6308 a 96.34417,96.34417 0 0 0 88.9922,59.4336 96.34417,96.34417 0 0 0 3.5293,-0.064 c 3.1159,-6.6891 6.463,-13.7003 9.3437,-19.7774 6.0834,-12.8335 10.0846,-21.5 9.168,-32.25 -2.3334,-27.3655 -37.2523,-75.1454 -100.5,-94.082 -1.1664,-0.3492 -2.3015,-0.6721 -3.4043,-0.9688 z" /><path
           id="path64"
           style="fill:url(#linearGradient68);fill-opacity:1;stroke-width:0.755906;stroke-linecap:round;stroke-linejoin:round"
           d="m 1389.6777,2253.2852 a 95.828362,95.828362 0 0 0 -21.1484,60.0507 95.828362,95.828362 0 0 0 22.4883,61.6778 c -1.937,-5.8536 -3.8806,-11.8676 -5.6836,-18.0977 -1.6667,-9.0834 0.4987,-16.7499 8.082,-21.5 15.8489,-9.9272 92.7817,-14.9869 84.418,-41.332 -1.6666,-5.2501 -6,-9.9166 -19.25,-15.5 -13.2501,-5.5834 -35.4171,-12.084 -49.584,-17.084 -9.5047,-3.3546 -15.409,-6.0345 -19.3223,-8.2148 z" /><path
           id="path68"
           style="fill:url(#linearGradient72);fill-opacity:1;stroke-width:0.755906;stroke-linecap:round;stroke-linejoin:round"
           d="m 1393.416,2335.416 a 73.444611,73.444611 0 0 0 -73.4453,73.4453 73.444611,73.444611 0 0 0 69.2051,73.3223 c 30.4058,-45.1209 9.461,-79.3011 -3.8418,-125.2676 -1.6667,-9.0834 0.4987,-16.7499 8.082,-21.5 z" /><path
           id="path74"
           style="fill:url(#linearGradient80);fill-opacity:1;stroke-width:0.755906;stroke-linecap:round;stroke-linejoin:round"
           d="m 1375.6387,2349.5547 a 89.833084,89.833084 0 0 0 -84.3164,58.8398 c 5.7701,5.4372 12.8088,10.0286 17.6777,15.7715 8.3334,8.0001 16.6672,20.1679 21.084,32.418 4.4167,12.2501 4.9153,24.5819 9.082,32.582 4.1666,8.0002 12.0012,11.667 20.668,11.584 8.6667,-0.083 18.1659,-3.9167 26.666,-14.75 34.2618,-47.033 12.5094,-81.8302 -1.166,-129.084 -0.4412,-2.4045 -0.6137,-4.7085 -0.4883,-6.8867 a 89.833084,89.833084 0 0 0 -9.207,-0.4746 z" /><path
           id="path80"
           style="fill:url(#linearGradient82);fill-opacity:1;stroke-width:0.755906;stroke-linecap:round;stroke-linejoin:round"
           d="m 1271.0176,2261.002 a 106.82853,106.82853 0 0 0 -11.1289,0.58 c 2.2928,7.25 4.3924,15.4782 5.7773,23.834 2.5001,15.0835 2.6673,30.5845 5.334,51.168 2.0333,15.6947 8.2114,44.7693 11.0312,57.6953 3.5667,13.4363 18.5288,19.9318 26.9688,29.8867 8.3334,8.0001 16.6672,20.1679 21.084,32.418 0.025,0.07 0.049,0.1387 0.074,0.209 a 106.82853,106.82853 0 0 0 47.6875,-88.9629 106.82853,106.82853 0 0 0 -106.8281,-106.8281 z" /><path
           id="path84"
           style="fill:url(#linearGradient90);fill-opacity:1;stroke-width:0.755906;stroke-linecap:round;stroke-linejoin:round"
           d="m 1394.0391,2126.7441 c -0.3023,0.4565 -0.6173,0.9341 -0.9473,1.4336 -6.748,10.2139 -19.4963,29.6381 -24.7012,50.4532 -5.2049,20.815 -2.8668,43.0194 1.4649,56.3125 3.0049,9.2214 6.9694,14.1535 14.5371,14.8769 -2.8289,-2.2966 -3.2714,-4.3858 0.1074,-12.9863 3.6667,-9.3333 11.8326,-26.3345 17.916,-39.168 6.0834,-12.8335 10.0846,-21.5 9.168,-32.25 -0.9157,-10.7391 -6.85,-24.6217 -17.5449,-38.6719 z" /></g></g><g
       id="g139"
       transform="matrix(-1.3831303,0,0,1.3831303,2596.9904,626.12564)"><path
         id="path129"
         style="fill:#c9d4c6;fill-opacity:0.379827;stroke-width:0.755906;stroke-linecap:round;stroke-linejoin:round"
         d="m 1275.8711,692.95898 c -9e-4,0.88252 0.1167,1.76064 0.3652,2.62891 0.8398,2.27806 1.8609,4.93216 3.0176,7.71484 -1.1344,-3.54048 -2.2629,-6.99162 -3.3828,-10.34375 z m 5.1836,16.01954 c -0.529,5.28743 -9.5774,10.29608 -7.4043,18.71289 1.1956,4.63232 2.252,9.4789 3.0625,14.36914 2.5001,15.0835 2.6673,30.58251 5.334,51.16601 v 0.002 c 3.0528,23.56468 29.0579,95.87842 55.3105,123.57812 -5.0818,-21.53441 -10.8987,-43.56215 -17.125,-67.16406 0,-0.0115 -0.01,-0.0236 -0.01,-0.0352 -0.014,-0.0522 -0.027,-0.10407 -0.041,-0.15625 -12.2413,-46.40333 -26.0542,-98.86442 -39.1269,-140.47265 z" /><g
         id="g138"
         transform="translate(2.6945447,-1574.4089)"><path
           style="fill:url(#linearGradient140);fill-opacity:1;stroke-width:0.755906;stroke-linecap:round;stroke-linejoin:round"
           d="m 1274.5001,2202.5831 c 22.3854,-25.9706 37.4788,-49.138 16.8332,-80.25 -5.1668,-7.6667 -12.5,-17.4999 -16.4167,-25.75 -3.9166,-8.25 -4.4166,-14.9165 -3.2499,-19.6666 1.1667,-4.75 4,-7.5833 10.0834,-8.8333 6.0834,-1.25 15.4166,-0.9166 29.3335,3.2501 63.2477,18.9366 98.1663,66.7179 100.4997,94.0834 0.9166,10.75 -3.0833,19.4165 -9.1667,32.25 -6.0834,12.8335 -14.2499,29.8332 -17.9166,39.1665 -3.6667,9.3334 -2.8333,11 0.6667,13.5834 3.5001,2.5834 9.6666,6.0833 23.8335,11.0834 14.1669,5 36.3331,11.4999 49.5832,17.0833 13.25,5.5834 17.5833,10.2499 19.2499,15.5 8.3637,26.3451 -68.5678,31.4061 -84.4167,41.3333 -7.5833,4.7501 -9.7499,12.4166 -8.0832,21.5 13.6754,47.2538 35.4283,82.0504 1.1665,129.0834 -8.5001,10.8333 -17.9999,14.6666 -26.6666,14.7499 -8.6668,0.083 -16.5,-3.5833 -20.6666,-11.5835 -4.1667,-8.0001 -4.6667,-20.3332 -9.0834,-32.5833 -4.4168,-12.2501 -12.75,-24.4165 -21.0834,-32.4166 -8.44,-9.9549 -23.4022,-16.4509 -26.9688,-29.8872 -2.8199,-12.926 -8.9978,-42.0015 -11.0311,-57.6962 -2.6667,-20.5835 -2.8333,-36.0832 -5.3334,-51.1667 -2.5,-15.0835 -7.3333,-29.7498 -11.4166,-38.9999 -1.7465,-3.9564 -3.2672,-7.8578 -4.4357,-11.0275 -3.337,-11.6615 17.2213,-24.8191 24.6858,-32.8059 z"
           id="path130" /><path
           id="path131"
           style="fill:url(#linearGradient141);fill-opacity:1;stroke-width:0.817498;stroke-linecap:round;stroke-linejoin:round"
           d="m 1286.9434,2067.4785 c -1.948,0.079 -3.6726,0.293 -5.1934,0.6055 -6.0834,1.25 -8.9173,4.082 -10.084,8.832 -1.1667,4.7501 -0.6666,11.418 3.25,19.668 3.9167,8.2501 11.2512,18.0833 16.418,25.75 7.3045,11.0075 10.1351,21.0211 9.7519,30.5156 a 77.255974,77.255974 0 0 0 53.6016,-42.5742 88.619118,88.619118 0 0 0 -22.9668,-31.3633 c -6.5021,-2.8563 -13.383,-5.4063 -20.6367,-7.5781 -10.4377,-3.125 -18.2969,-4.0937 -24.1406,-3.8555 z" /><path
           id="path132"
           style="fill:url(#linearGradient142);fill-opacity:1;stroke-width:0.755906;stroke-linecap:round;stroke-linejoin:round"
           d="m 1294.1172,2126.8574 c 16.3627,28.8687 1.6698,51.0303 -19.6172,75.7266 -7.4645,7.9868 -28.0225,21.1432 -24.6855,32.8047 1.1685,3.1697 2.689,7.0709 4.4355,11.0273 2.7595,6.2512 5.8606,14.9755 8.3535,24.6309 a 75.539177,75.539177 0 0 0 75.5391,-75.5391 75.539177,75.539177 0 0 0 -44.0254,-68.6504 z" /><path
           id="path133"
           style="fill:url(#linearGradient143);fill-opacity:1;stroke-width:0.755906;stroke-linecap:round;stroke-linejoin:round"
           d="m 1307.6797,2070.3652 a 96.34417,96.34417 0 0 0 -14.4805,50.7989 96.34417,96.34417 0 0 0 0.096,4.2793 c 7.0498,11.7998 8.9245,22.4708 7.2559,32.6308 a 96.34417,96.34417 0 0 0 88.9922,59.4336 96.34417,96.34417 0 0 0 3.5293,-0.064 c 3.1159,-6.6891 6.463,-13.7003 9.3437,-19.7774 6.0834,-12.8335 10.0846,-21.5 9.168,-32.25 -2.3334,-27.3655 -37.2523,-75.1454 -100.5,-94.082 -1.1664,-0.3492 -2.3015,-0.6721 -3.4043,-0.9688 z" /><path
           id="path134"
           style="fill:url(#linearGradient144);fill-opacity:1;stroke-width:0.755906;stroke-linecap:round;stroke-linejoin:round"
           d="m 1389.6777,2253.2852 a 95.828362,95.828362 0 0 0 -21.1484,60.0507 95.828362,95.828362 0 0 0 22.4883,61.6778 c -1.937,-5.8536 -3.8806,-11.8676 -5.6836,-18.0977 -1.6667,-9.0834 0.4987,-16.7499 8.082,-21.5 15.8489,-9.9272 92.7817,-14.9869 84.418,-41.332 -1.6666,-5.2501 -6,-9.9166 -19.25,-15.5 -13.2501,-5.5834 -35.4171,-12.084 -49.584,-17.084 -9.5047,-3.3546 -15.409,-6.0345 -19.3223,-8.2148 z" /><path
           id="path135"
           style="fill:url(#linearGradient145);fill-opacity:1;stroke-width:0.755906;stroke-linecap:round;stroke-linejoin:round"
           d="m 1393.416,2335.416 a 73.444611,73.444611 0 0 0 -73.4453,73.4453 73.444611,73.444611 0 0 0 69.2051,73.3223 c 30.4058,-45.1209 9.461,-79.3011 -3.8418,-125.2676 -1.6667,-9.0834 0.4987,-16.7499 8.082,-21.5 z" /><path
           id="path136"
           style="fill:url(#linearGradient146);fill-opacity:1;stroke-width:0.755906;stroke-linecap:round;stroke-linejoin:round"
           d="m 1375.6387,2349.5547 a 89.833084,89.833084 0 0 0 -84.3164,58.8398 c 5.7701,5.4372 12.8088,10.0286 17.6777,15.7715 8.3334,8.0001 16.6672,20.1679 21.084,32.418 4.4167,12.2501 4.9153,24.5819 9.082,32.582 4.1666,8.0002 12.0012,11.667 20.668,11.584 8.6667,-0.083 18.1659,-3.9167 26.666,-14.75 34.2618,-47.033 12.5094,-81.8302 -1.166,-129.084 -0.4412,-2.4045 -0.6137,-4.7085 -0.4883,-6.8867 a 89.833084,89.833084 0 0 0 -9.207,-0.4746 z" /><path
           id="path137"
           style="fill:url(#linearGradient147);fill-opacity:1;stroke-width:0.755906;stroke-linecap:round;stroke-linejoin:round"
           d="m 1271.0176,2261.002 a 106.82853,106.82853 0 0 0 -11.1289,0.58 c 2.2928,7.25 4.3924,15.4782 5.7773,23.834 2.5001,15.0835 2.6673,30.5845 5.334,51.168 2.0333,15.6947 8.2114,44.7693 11.0312,57.6953 3.5667,13.4363 18.5288,19.9318 26.9688,29.8867 8.3334,8.0001 16.6672,20.1679 21.084,32.418 0.025,0.07 0.049,0.1387 0.074,0.209 a 106.82853,106.82853 0 0 0 47.6875,-88.9629 106.82853,106.82853 0 0 0 -106.8281,-106.8281 z" /><path
           id="path138"
           style="fill:url(#linearGradient148);fill-opacity:1;stroke-width:0.755906;stroke-linecap:round;stroke-linejoin:round"
           d="m 1394.0391,2126.7441 c -0.3023,0.4565 -0.6173,0.9341 -0.9473,1.4336 -6.748,10.2139 -19.4963,29.6381 -24.7012,50.4532 -5.2049,20.815 -2.8668,43.0194 1.4649,56.3125 3.0049,9.2214 6.9694,14.1535 14.5371,14.8769 -2.8289,-2.2966 -3.2714,-4.3858 0.1074,-12.9863 3.6667,-9.3333 11.8326,-26.3345 17.916,-39.168 6.0834,-12.8335 10.0846,-21.5 9.168,-32.25 -0.9157,-10.7391 -6.85,-24.6217 -17.5449,-38.6719 z" /></g></g><path
       id="path151"
       style="display:inline;fill:#000000;stroke:#000000;stroke-width:4.60536;stroke-dasharray:none;stroke-opacity:1"
       d="m 820.07226,2181.4074 c -0.31558,0 -0.63125,0.062 -0.96094,0.1836 -0.44573,0.1643 -0.91717,0.4381 -1.44921,0.8242 -34.00481,24.6797 -71.15692,12.5911 -83.76758,7.2579 -2.496,-1.0556 -5.56738,-0.4317 -6.94727,1.5878 -1.52934,2.2381 -0.95132,5.2987 1.43555,6.5801 11.37736,6.1082 45.07841,19.612 91.68945,-2.4062 46.61104,22.0182 80.31209,8.5144 91.68945,2.4062 5.09022,-2.7327 1.00891,-10.9256 -5.51171,-8.1679 -12.61066,5.3332 -49.76277,17.4218 -83.76758,-7.2579 -0.53204,-0.3861 -1.00349,-0.6599 -1.44922,-0.8242 -0.32969,-0.1212 -0.64533,-0.1836 -0.96094,-0.1836 z"
       transform="matrix(1.4166322,0,0,1.5917743,341.34478,-1754.1236)" /><path
       style="fill:url(#linearGradient159);fill-opacity:1;fill-rule:evenodd;stroke-width:3.80492;stroke-miterlimit:7;paint-order:stroke markers fill"
       d="m 1627.9104,1551.4211 c -5.1922,3.2781 -8.2652,2.4237 -7.4957,-3.4646 0.3205,-2.4177 20.3751,-79.1109 101.8702,-77.245 69.2567,1.2742 92.3735,65.8963 89.2377,74.9569 -1.0523,3.0203 -3.8309,4.6586 -7.9929,2.0076 -26.0911,-24.543 -49.5957,-42.8847 -87.6057,-44.0279 -43.5601,-0.065 -58.1506,27.3914 -88.0136,47.773"
       id="path31" /><path
       style="fill:url(#linearGradient160);fill-opacity:1;fill-rule:evenodd;stroke-width:3.80492;stroke-miterlimit:7;paint-order:stroke markers fill"
       d="m 1371.9641,1551.4211 c 5.1923,3.2781 8.2652,2.4237 7.4958,-3.4646 -0.3206,-2.4177 -20.3751,-79.1109 -101.8703,-77.245 -69.2567,1.2742 -92.3735,65.8963 -89.2376,74.9569 1.0523,3.0203 3.8308,4.6586 7.9928,2.0076 26.0911,-24.543 49.5958,-42.8847 87.6057,-44.0279 43.5602,-0.065 58.1506,27.3914 88.0136,47.773"
       id="path159" /><circle
       style="mix-blend-mode:overlay;fill:url(#radialGradient165);fill-opacity:0.40529;stroke:none;stroke-width:5.00789;stroke-linecap:round;stroke-linejoin:round;stroke-dasharray:none;stroke-opacity:1"
       id="path162"
       cx="1492.892"
       cy="2086.4373"
       r="705.20758" /><path
       id="path167"
       style="fill:url(#linearGradient169);fill-opacity:1;stroke:none;stroke-width:5;stroke-linecap:round;stroke-linejoin:round;stroke-dasharray:none;stroke-opacity:1"
       d="m 1500,1692.7637 a 717.62219,717.62219 0 0 0 -717.3125,696.5156 c 59.47685,122.9238 160.73603,197.5595 311.6543,219.7617 105.7182,13.6671 261.1033,19.5418 405.5957,22.3457 144.4924,-2.8039 299.8755,-8.6786 405.5937,-22.3457 156.5652,-11.1409 252.2984,-100.6212 311.5743,-225.9004 A 717.62219,717.62219 0 0 0 1500,1692.7637 Z" /></g></svg>
