<svg xmlns="http://www.w3.org/2000/svg" xml:space="preserve" width="1000" height="500"><path d="M343.44 56.838c-2.363-2.362-112.814-1.44-127.674 1.537-21.687 4.347-41.504 10.932-60.943 20.817-3.616 1.839-4.116 2.832-4.82 9.575-.4 3.83-.692 4.423-2.7 5.507-1.237.669-3.275 2.064-4.528 3.1-59.005 45.977-76.6 77.652-84.448 139.842-2.382 18.882-.909 41.05 4.246 63.887 8.27 36.64 56.334 145.982 190.258 143.35 11.166-.25 22.306-.229 33.064-3.536 29.15-7.284 50.169-21.34 74.847-33.642 18.386-8.916 260.135-8.914 278.516 0 24.678 12.302 45.698 26.358 74.847 33.642 10.758 3.307 21.898 3.286 33.064 3.537 133.924 2.631 181.988-106.71 190.258-143.351 5.155-22.837 6.628-45.005 4.246-63.887-7.848-62.19-25.443-93.865-84.448-139.842-1.253-1.036-3.29-2.431-4.528-3.1-2.008-1.084-2.299-1.677-2.7-5.507-.704-6.743-1.204-7.736-4.82-9.575-19.438-9.885-39.256-16.47-60.943-20.817-14.86-2.977-125.311-3.9-127.673-1.537-.818.818-1.696 2.744-1.952 4.281-.402 2.413-.5 4.433-1.212 4.283q-.01 0-.014-.003H346.617l-.013.003c-.712.15-.81-1.87-1.212-4.283-.256-1.537-1.135-3.463-1.952-4.281" style="display:inline;fill:#dfdfe7;stroke-width:.73433;fill-opacity:1"/><path d="M227.2 180.165a11.87 11.87 0 0 0-11.901 11.9v31.933a4.194 4.194 0 0 1-4.194 4.194h-31.93a11.87 11.87 0 0 0-11.902 11.899v31.065a11.87 11.87 0 0 0 11.901 11.899h31.93a4.194 4.194 0 0 1 4.195 4.194v31.93a11.87 11.87 0 0 0 11.9 11.901h31.067a11.87 11.87 0 0 0 11.897-11.9v-31.931a4.194 4.194 0 0 1 4.194-4.194h31.937a11.87 11.87 0 0 0 11.895-11.9v-31.064a11.87 11.87 0 0 0-11.897-11.9h-31.936a4.194 4.194 0 0 1-4.194-4.193v-31.932a11.87 11.87 0 0 0-11.896-11.9z" style="fill:#000;fill-opacity:1;fill-rule:evenodd;stroke:none;stroke-width:5.04661;stroke-miterlimit:7;paint-order:stroke markers fill"/><rect width="74.97" height="25.121" x="108.405" y="472.46" rx="0" ry="12.561" style="fill:#000;fill-opacity:1;fill-rule:evenodd;stroke-width:1.664;stroke-linecap:square;stroke-miterlimit:7;paint-order:stroke markers fill" transform="matrix(.7747 -.63233 .6286 .77773 0 0)"/><rect width="74.97" height="25.121" x="185.216" y="534.912" rx="0" ry="12.561" style="fill:#000;fill-opacity:1;fill-rule:evenodd;stroke-width:1.664;stroke-linecap:square;stroke-miterlimit:7;paint-order:stroke markers fill" transform="matrix(.7747 -.63233 .6286 .77773 0 0)"/><circle cx="756.269" cy="318.729" r="34.469" style="font-variation-settings:normal;vector-effect:none;fill:#000;fill-opacity:1;fill-rule:evenodd;stroke-width:68.9143;stroke-linecap:butt;stroke-linejoin:miter;stroke-miterlimit:4;stroke-dasharray:none;stroke-dashoffset:0;stroke-opacity:1;-inkscape-stroke:none;stop-color:#000" transform="rotate(.527)"/><circle cx="840.159" cy="249.406" r="34.469" style="font-variation-settings:normal;vector-effect:none;fill:#000;fill-opacity:1;fill-rule:evenodd;stroke-width:68.9143;stroke-linecap:butt;stroke-linejoin:miter;stroke-miterlimit:4;stroke-dasharray:none;stroke-dashoffset:0;stroke-opacity:1;-inkscape-stroke:none;stop-color:#000" transform="rotate(.527)"/><circle cx="-757.378" cy="-178.618" r="34.469" style="font-variation-settings:normal;vector-effect:none;fill:#000;fill-opacity:1;fill-rule:evenodd;stroke-width:68.9143;stroke-linecap:butt;stroke-linejoin:miter;stroke-miterlimit:4;stroke-dasharray:none;stroke-dashoffset:0;stroke-opacity:1;-inkscape-stroke:none;stop-color:#000" transform="rotate(-179.473)"/><circle cx="-673.488" cy="-247.941" r="34.469" style="font-variation-settings:normal;vector-effect:none;fill:#000;fill-opacity:1;fill-rule:evenodd;stroke-width:68.9143;stroke-linecap:butt;stroke-linejoin:miter;stroke-miterlimit:4;stroke-dasharray:none;stroke-dashoffset:0;stroke-opacity:1;-inkscape-stroke:none;stop-color:#000" transform="rotate(-179.473)"/></svg>