<svg xmlns="http://www.w3.org/2000/svg" xml:space="preserve" width="1000" height="500"><path d="M399.12 32.082c-13.966-.676-103.24 30.14-111.999 46.506-.937 1.75-3.549 4.13-5.8 5.285-3.371 1.729-5.071 4.247-9.628 14.23-20.179 44.22-39.922 104.959-52.15 158.835-22.032 97.074-4.564 181.036 20.035 203.26 25.654 23.175 89.932-6.274 113.51-81.585 2.1-6.71 4.85-14.816 4.85-14.816 71.948-30.399 212.376-30.398 284.324 0 0 0 2.749 8.107 4.85 14.816 23.577 75.31 87.855 104.76 113.51 81.584 24.598-22.223 42.066-106.185 20.034-203.26-12.227-53.875-31.97-114.614-52.15-158.833-4.557-9.984-6.256-12.502-9.627-14.23-2.252-1.156-4.864-3.536-5.8-5.286-8.76-16.367-98.033-47.182-111.999-46.506-18.239.882-35.524 17.838-100.879 17.838h-.203c-65.355 0-82.64-16.956-100.879-17.838" style="opacity:1;fill:#dfdfe7;fill-opacity:1;stroke-width:1.21992" transform="translate(-.1 .001)"/><g style="fill:#000" transform="translate(205.663 -81.906)scale(1.21992)"><g style="fill:#000" transform="translate(6.863)"><circle cx="170.388" cy="283.153" r="42.052" style="font-variation-settings:normal;vector-effect:none;fill:#000;fill-opacity:1;fill-rule:evenodd;stroke-width:41.4677;stroke-linecap:butt;stroke-linejoin:miter;stroke-miterlimit:4;stroke-dasharray:none;stroke-dashoffset:0;stroke-opacity:1;-inkscape-stroke:none;stop-color:#000"/><circle cx="304.918" cy="283.153" r="33.957" style="font-variation-settings:normal;vector-effect:none;fill:#000;fill-opacity:1;fill-rule:evenodd;stroke-width:33.4852;stroke-linecap:butt;stroke-linejoin:miter;stroke-miterlimit:4;stroke-dasharray:none;stroke-dashoffset:0;stroke-opacity:1;-inkscape-stroke:none;stop-color:#000"/></g><g style="fill:#000" transform="rotate(46.888)"><circle cx="482.128" cy="-120.521" r="15.483" style="font-variation-settings:normal;vector-effect:none;fill:#000;fill-opacity:1;fill-rule:evenodd;stroke-width:40.621;stroke-linecap:butt;stroke-linejoin:miter;stroke-miterlimit:4;stroke-dasharray:none;stroke-dashoffset:0;stroke-opacity:1;-inkscape-stroke:none;stop-color:#000"/><circle cx="479.079" cy="-73.274" r="15.483" style="font-variation-settings:normal;vector-effect:none;fill:#000;fill-opacity:1;fill-rule:evenodd;stroke-width:40.621;stroke-linecap:butt;stroke-linejoin:miter;stroke-miterlimit:4;stroke-dasharray:none;stroke-dashoffset:0;stroke-opacity:1;-inkscape-stroke:none;stop-color:#000"/></g><circle cx="105.702" cy="202.369" r="33.957" style="font-variation-settings:normal;vector-effect:none;fill:#000;fill-opacity:1;fill-rule:evenodd;stroke-width:33.4852;stroke-linecap:butt;stroke-linejoin:miter;stroke-miterlimit:4;stroke-dasharray:none;stroke-dashoffset:0;stroke-opacity:1;-inkscape-stroke:none;stop-color:#000"/><g style="fill:#000" transform="translate(-74.684 -263.343)scale(.73136)"><circle cx="573.338" cy="636.779" r="22.338" style="font-variation-settings:normal;vector-effect:none;fill:#000;fill-opacity:1;fill-rule:evenodd;stroke-width:44.661;stroke-linecap:butt;stroke-linejoin:miter;stroke-miterlimit:4;stroke-dasharray:none;stroke-dashoffset:0;stroke-opacity:1;-inkscape-stroke:none;stop-color:#000"/><circle cx="-660.219" cy="636.779" r="22.338" style="font-variation-settings:normal;vector-effect:none;fill:#000;fill-opacity:1;fill-rule:evenodd;stroke-width:44.661;stroke-linecap:butt;stroke-linejoin:miter;stroke-miterlimit:4;stroke-dasharray:none;stroke-dashoffset:0;stroke-opacity:1;-inkscape-stroke:none;stop-color:#000" transform="scale(-1 1)"/><circle cx="593.338" cy="-616.778" r="22.338" style="font-variation-settings:normal;vector-effect:none;fill:#000;fill-opacity:1;fill-rule:evenodd;stroke-width:44.661;stroke-linecap:butt;stroke-linejoin:miter;stroke-miterlimit:4;stroke-dasharray:none;stroke-dashoffset:0;stroke-opacity:1;-inkscape-stroke:none;stop-color:#000" transform="rotate(90)"/><circle cx="-680.219" cy="-616.778" r="22.338" style="font-variation-settings:normal;vector-effect:none;fill:#000;fill-opacity:1;fill-rule:evenodd;stroke-width:44.661;stroke-linecap:butt;stroke-linejoin:miter;stroke-miterlimit:4;stroke-dasharray:none;stroke-dashoffset:0;stroke-opacity:1;-inkscape-stroke:none;stop-color:#000" transform="scale(1 -1)rotate(90)"/></g><g style="fill:#000" transform="scale(-1 1)rotate(47 -240.469 -554.524)"><circle cx="482.128" cy="-120.521" r="15.483" style="font-variation-settings:normal;vector-effect:none;fill:#000;fill-opacity:1;fill-rule:evenodd;stroke-width:40.621;stroke-linecap:butt;stroke-linejoin:miter;stroke-miterlimit:4;stroke-dasharray:none;stroke-dashoffset:0;stroke-opacity:1;-inkscape-stroke:none;stop-color:#000"/><circle cx="479.079" cy="-73.274" r="15.483" style="font-variation-settings:normal;vector-effect:none;fill:#000;fill-opacity:1;fill-rule:evenodd;stroke-width:40.621;stroke-linecap:butt;stroke-linejoin:miter;stroke-miterlimit:4;stroke-dasharray:none;stroke-dashoffset:0;stroke-opacity:1;-inkscape-stroke:none;stop-color:#000"/></g></g></svg>