<svg xmlns="http://www.w3.org/2000/svg" xmlns:xlink="http://www.w3.org/1999/xlink" xml:space="preserve" width="2000" height="3600"><defs><linearGradient id="d"><stop offset="0" style="stop-color:#ffe00f;stop-opacity:1"/><stop offset="1" style="stop-color:#ffeb60;stop-opacity:1"/></linearGradient><linearGradient id="c"><stop offset="0" style="stop-color:#d681eb;stop-opacity:1"/><stop offset="1" style="stop-color:#d989ed;stop-opacity:0"/></linearGradient><linearGradient id="b"><stop offset="0" style="stop-color:#eebafa;stop-opacity:1"/><stop offset="1" style="stop-color:#c150de;stop-opacity:1"/></linearGradient><linearGradient id="a"><stop offset="0" style="stop-color:#fff;stop-opacity:1"/><stop offset="1" style="stop-color:#d1d1d1;stop-opacity:1"/></linearGradient><linearGradient xlink:href="#a" id="e" x1="1006.279" x2="1006.279" y1="959.499" y2="1867.678" gradientUnits="userSpaceOnUse"/><linearGradient xlink:href="#b" id="g" x1="1006.279" x2="1006.279" y1="463.41" y2="1867.678" gradientUnits="userSpaceOnUse"/><linearGradient xlink:href="#c" id="h" x1="1606.986" x2="1668.056" y1="1097.448" y2="1086.094" gradientUnits="userSpaceOnUse"/><linearGradient xlink:href="#c" id="i" x1="1606.986" x2="1668.056" y1="1097.448" y2="1086.094" gradientTransform="matrix(-1 0 0 1 2012.559 0)" gradientUnits="userSpaceOnUse"/><linearGradient xlink:href="#d" id="f" x1="1288.704" x2="1443.65" y1="-135.587" y2="21.753" gradientUnits="userSpaceOnUse"/></defs><g transform="translate(-2.442 780.49)scale(.99619)"><path d="M1006.28 113.088q-14.07-.15-28.11.238C557.633 124.938 162.017 497.425 162.014 1185.5c-.001 114.68 7.405 199.132 24.511 279.5 97.83 440.982 555.297 461.86 734.975 467.916 13.075.44 43.332 1.25 84.78.647 41.447.603 71.704-.206 84.779-.647 179.89-6.063 637.164-27.022 734.974-467.916 17.107-80.368 24.513-164.82 24.512-279.5 0-688.075-395.62-1060.562-816.156-1072.174a735 735 0 0 0-28.11-.238" style="fill:url(#e);fill-opacity:1"/><rect width="226.734" height="226.734" x="1246.828" y="-176.266" ry="16.723" style="fill:url(#f);fill-opacity:1;fill-rule:evenodd;stroke-width:3;stroke-miterlimit:7;paint-order:stroke markers fill" transform="rotate(45)"/><path d="M1006.28 113.088q-14.07-.15-28.11.238C557.633 124.938 162.017 497.425 162.014 1185.5c-.001 114.68 7.405 199.132 24.511 279.5 41.547 187.275 147.954 298.785 270.4 365.568-151.593-215.728-220.391-454.42-16.777-680.023 25.726-30.948 38.2-68.002 8.934-99.838-18.015-23.192-59.13-58.397-81.465-102.268-76.593-150.452-.127-321.88 98.744-421.043 67.188-67.385 133.147-94.314 191.85-91.93 112.07 4.553 197.696 115.943 214.945 256.645 12.272 100.09 72.698 150.135 133.123 150.135 60.426 0 120.851-50.045 133.123-150.135 17.25-140.702 102.876-252.092 214.946-256.644 58.703-2.385 124.662 24.544 191.85 91.93 98.87 99.162 175.337 270.59 98.743 421.042-22.333 43.871-63.449 79.076-81.464 102.268-29.267 31.836-16.792 68.89 8.933 99.838 203.616 225.603 134.815 464.297-16.78 680.025 122.453-66.784 228.857-178.293 270.403-365.57 17.107-80.368 24.513-164.82 24.512-279.5 0-688.075-395.62-1060.562-816.156-1072.174a735 735 0 0 0-28.11-.238M457.02 1830.615c22.814 12.438 46.218 23.032 69.829 32.567-23.6-9.531-47.026-20.135-69.829-32.567m93.516 41.15c14.408 5.255 28.647 10.163 43.084 14.516-14.378-4.338-28.735-9.283-43.084-14.515m154.139 40.715c7.413 1.299 14.173 2.362 21.459 3.489-7.12-1.103-14.218-2.222-21.46-3.489m552.816 8.188c-150.853 15.666-331.672 15.418-484.713.857 57.349 6.559 110.433 10.1 148.721 11.391 13.075.44 43.332 1.25 84.78.647 41.447.603 71.704-.206 84.779-.647 42.692-1.439 101.007-3.717 166.433-12.248" style="fill:url(#g);fill-opacity:1"/><path d="M1456.712 809.715c4.512 1.763 6.768.635 5.287-3.807-.609-1.827-27.657-58.173-90.454-44.487-53.414 11.387-61.607 64.881-57.811 71.419 1.269 2.185 3.666 3.031 6.486.352 16.511-22.913 31.943-40.643 61.196-47.236 33.709-6.592 49.122 12.47 75.296 23.76m-900.865-.001c-4.512 1.763-6.768.635-5.288-3.807.61-1.827 27.658-58.173 90.454-44.487 53.414 11.387 61.608 64.881 57.812 71.419-1.27 2.185-3.666 3.031-6.486.352-16.512-22.913-31.944-40.643-61.196-47.236-33.71-6.592-49.122 12.47-75.296 23.76" style="fill:#000;fill-opacity:1;fill-rule:evenodd;stroke-width:3;stroke-miterlimit:7;paint-order:stroke markers fill"/><path d="M1626.666 977.836c-22.076 30.328-49.4 55.119-63.19 72.871-29.266 31.836-16.791 68.89 8.934 99.838 32.71 36.241 58.389 72.82 77.824 109.588a142.13 142.13 0 0 0 118.565-140.164 142.13 142.13 0 0 0-142.133-142.133" style="fill:url(#h);fill-opacity:1"/><path d="M385.893 977.836c22.075 30.328 49.4 55.119 63.189 72.871 29.266 31.836 16.792 68.89-8.934 99.838-32.709 36.241-58.388 72.82-77.824 109.588a142.13 142.13 0 0 1-118.564-140.164 142.13 142.13 0 0 1 142.133-142.133" style="fill:url(#i);fill-opacity:1"/></g></svg>