<svg xmlns="http://www.w3.org/2000/svg" xmlns:xlink="http://www.w3.org/1999/xlink" xml:space="preserve" width="3000" height="3600"><defs><linearGradient id="B"><stop offset="0" style="stop-color:#fde5c1;stop-opacity:1"/><stop offset="1" style="stop-color:#fde5c1;stop-opacity:0"/></linearGradient><linearGradient id="A"><stop offset="0" style="stop-color:#fef7ec;stop-opacity:.65230316"/><stop offset="1" style="stop-color:#fef7ec;stop-opacity:0"/></linearGradient><linearGradient id="z"><stop offset="0" style="stop-color:#fee7c7;stop-opacity:.56788212"/><stop offset="1" style="stop-color:#fee7c7;stop-opacity:0"/></linearGradient><linearGradient id="v"><stop offset="0" style="stop-color:#fccc8b;stop-opacity:1"/><stop offset="1" style="stop-color:#fccc8b;stop-opacity:0"/></linearGradient><linearGradient id="t"><stop offset="0" style="stop-color:#fccc8b;stop-opacity:.65102363"/><stop offset="1" style="stop-color:#fccc8b;stop-opacity:0"/></linearGradient><linearGradient id="s"><stop offset="0" style="stop-color:#fccc8b;stop-opacity:1"/><stop offset="1" style="stop-color:#fccc8b;stop-opacity:0"/></linearGradient><linearGradient id="y"><stop offset="0" style="stop-color:#fee7c7;stop-opacity:1"/><stop offset="1" style="stop-color:#fee7c7;stop-opacity:0"/></linearGradient><linearGradient id="q"><stop offset="0" style="stop-color:#fccc8b;stop-opacity:1"/><stop offset="1" style="stop-color:#fccc8b;stop-opacity:0"/></linearGradient><linearGradient id="p"><stop offset="0" style="stop-color:#fccc8b;stop-opacity:1"/><stop offset="1" style="stop-color:#fccc8b;stop-opacity:0"/></linearGradient><linearGradient id="x"><stop offset="0" style="stop-color:#d4b7a3;stop-opacity:.50061172"/><stop offset="1" style="stop-color:#d4b7a3;stop-opacity:0"/></linearGradient><linearGradient id="n"><stop offset="0" style="stop-color:#8d6244;stop-opacity:1"/><stop offset="1" style="stop-color:#8d6244;stop-opacity:0"/></linearGradient><linearGradient id="m"><stop offset="0" style="stop-color:#8e6245;stop-opacity:1"/><stop offset="1" style="stop-color:#8e6245;stop-opacity:0"/></linearGradient><linearGradient id="w"><stop offset="0" style="stop-color:#d4b7a3;stop-opacity:.18784341"/><stop offset="1" style="stop-color:#d4b7a3;stop-opacity:0"/></linearGradient><linearGradient id="l"><stop offset="0" style="stop-color:#4a280c;stop-opacity:1"/><stop offset="1" style="stop-color:#4a280c;stop-opacity:0"/></linearGradient><linearGradient id="k"><stop offset="0" style="stop-color:#4a280c;stop-opacity:1"/><stop offset="1" style="stop-color:#4a280c;stop-opacity:0"/></linearGradient><linearGradient id="j"><stop offset="0" style="stop-color:#4a280c;stop-opacity:1"/><stop offset="1" style="stop-color:#4a280c;stop-opacity:0"/></linearGradient><linearGradient id="i"><stop offset="0" style="stop-color:#4a280c;stop-opacity:1"/><stop offset="1" style="stop-color:#e18b44;stop-opacity:1"/></linearGradient><linearGradient id="h"><stop offset="0" style="stop-color:#4a280c;stop-opacity:1"/><stop offset="1" style="stop-color:#804515;stop-opacity:1"/></linearGradient><linearGradient id="g"><stop offset="0" style="stop-color:#fba2b7;stop-opacity:1"/><stop offset="1" style="stop-color:#f73c68;stop-opacity:1"/></linearGradient><linearGradient id="f"><stop offset="0" style="stop-color:#8d6243;stop-opacity:1"/><stop offset="1" style="stop-color:#8d6243;stop-opacity:0"/></linearGradient><linearGradient id="e"><stop offset="0" style="stop-color:#d3b5a1;stop-opacity:1"/><stop offset="1" style="stop-color:#d3b5a1;stop-opacity:0"/></linearGradient><linearGradient id="d"><stop offset="0" style="stop-color:#7c553a;stop-opacity:1"/><stop offset="1" style="stop-color:#7c553a;stop-opacity:0"/></linearGradient><linearGradient id="c"><stop offset="0" style="stop-color:#fccc8b;stop-opacity:1"/><stop offset="1" style="stop-color:#fccc8b;stop-opacity:0"/></linearGradient><linearGradient id="b"><stop offset="0" style="stop-color:#fccc8b;stop-opacity:1"/><stop offset="1" style="stop-color:#fccc8b;stop-opacity:0"/></linearGradient><linearGradient id="a"><stop offset="0" style="stop-color:#fccc8b;stop-opacity:1"/><stop offset="1" style="stop-color:#fccc8b;stop-opacity:0"/></linearGradient><linearGradient xlink:href="#a" id="Q" x1="152.952" x2="252.978" y1="684.923" y2="755.852" gradientUnits="userSpaceOnUse"/><linearGradient xlink:href="#b" id="R" x1="336.641" x2="311.711" y1="966.613" y2="848.932" gradientUnits="userSpaceOnUse"/><linearGradient xlink:href="#c" id="S" x1="488.268" x2="372.148" y1="718.033" y2="770.924" gradientUnits="userSpaceOnUse"/><linearGradient xlink:href="#d" id="Y" x1="395.969" x2="372.244" y1="728.297" y2="715.884" gradientUnits="userSpaceOnUse"/><linearGradient xlink:href="#e" id="X" x1="377.58" x2="372.18" y1="687.441" y2="714.69" gradientUnits="userSpaceOnUse"/><linearGradient xlink:href="#f" id="Z" x1="343.666" x2="352.549" y1="702.496" y2="709.598" gradientUnits="userSpaceOnUse"/><linearGradient xlink:href="#e" id="T" x1="382.962" x2="367.799" y1="687.264" y2="710.235" gradientUnits="userSpaceOnUse"/><linearGradient xlink:href="#d" id="U" x1="395.969" x2="372.244" y1="728.297" y2="715.884" gradientUnits="userSpaceOnUse"/><linearGradient xlink:href="#f" id="V" x1="343.666" x2="352.549" y1="702.496" y2="709.598" gradientUnits="userSpaceOnUse"/><linearGradient xlink:href="#g" id="aa" x1="264.837" x2="272.024" y1="1775.339" y2="1786.404" gradientUnits="userSpaceOnUse"/><linearGradient xlink:href="#h" id="ab" x1="339.168" x2="334.558" y1="1805.549" y2="1788.738" gradientUnits="userSpaceOnUse"/><linearGradient xlink:href="#i" id="ac" x1="365.887" x2="366.123" y1="755.43" y2="734.073" gradientUnits="userSpaceOnUse"/><linearGradient xlink:href="#j" id="ad" x1="345.827" x2="346.791" y1="803.401" y2="772.165" gradientUnits="userSpaceOnUse"/><linearGradient xlink:href="#k" id="ae" x1="342.439" x2="341.432" y1="733.113" y2="754.354" gradientUnits="userSpaceOnUse"/><linearGradient xlink:href="#l" id="af" x1="383.984" x2="351.354" y1="768.034" y2="765.433" gradientUnits="userSpaceOnUse"/><linearGradient xlink:href="#m" id="ah" x1="344.78" x2="354.677" y1="729.466" y2="718.035" gradientUnits="userSpaceOnUse"/><linearGradient xlink:href="#n" id="W" x1="346.325" x2="355.375" y1="735.485" y2="719.234" gradientUnits="userSpaceOnUse"/><linearGradient xlink:href="#p" id="P" x1="181.726" x2="194.067" y1="747.928" y2="734.123" gradientUnits="userSpaceOnUse"/><linearGradient xlink:href="#q" id="aj" x1="219.842" x2="208.569" y1="691.76" y2="709.061" gradientUnits="userSpaceOnUse"/><linearGradient xlink:href="#s" id="O" x1="228.053" x2="219.933" y1="710.664" y2="714.351" gradientUnits="userSpaceOnUse"/><linearGradient xlink:href="#t" id="M" x1="329.203" x2="331.963" y1="894.062" y2="903.06" gradientUnits="userSpaceOnUse"/><linearGradient xlink:href="#v" id="N" x1="340.47" x2="336.712" y1="923.528" y2="909.26" gradientUnits="userSpaceOnUse"/><linearGradient xlink:href="#t" id="J" x1="329.203" x2="331.963" y1="894.062" y2="903.06" gradientUnits="userSpaceOnUse"/><linearGradient xlink:href="#v" id="K" x1="340.47" x2="336.712" y1="923.528" y2="909.26" gradientUnits="userSpaceOnUse"/><linearGradient xlink:href="#t" id="G" x1="329.203" x2="331.963" y1="894.062" y2="903.06" gradientUnits="userSpaceOnUse"/><linearGradient xlink:href="#v" id="H" x1="340.47" x2="336.712" y1="923.528" y2="909.26" gradientUnits="userSpaceOnUse"/><linearGradient xlink:href="#t" id="D" x1="329.203" x2="331.963" y1="894.062" y2="903.06" gradientUnits="userSpaceOnUse"/><linearGradient xlink:href="#v" id="E" x1="340.47" x2="336.712" y1="923.528" y2="909.26" gradientUnits="userSpaceOnUse"/><radialGradient xlink:href="#w" id="ag" cx="339.675" cy="766.852" r="32.778" fx="339.675" fy="766.852" gradientUnits="userSpaceOnUse"/><radialGradient xlink:href="#x" id="ai" cx="376.831" cy="715.334" r="17.25" fx="376.831" fy="715.334" gradientTransform="translate(-92.388 -183.792)scale(1.25693)" gradientUnits="userSpaceOnUse"/><radialGradient xlink:href="#y" id="ak" cx="213.75" cy="730.17" r="17.562" fx="213.75" fy="730.17" gradientTransform="matrix(1 0 0 .55316 0 321.015)" gradientUnits="userSpaceOnUse"/><radialGradient xlink:href="#z" id="L" cx="329.125" cy="899.157" r="11.55" fx="329.125" fy="899.157" gradientTransform="translate(-729.29 -1935.053)scale(3.16727)" gradientUnits="userSpaceOnUse"/><radialGradient xlink:href="#z" id="I" cx="329.125" cy="899.157" r="11.55" fx="329.125" fy="899.157" gradientTransform="translate(-729.29 -1935.053)scale(3.16727)" gradientUnits="userSpaceOnUse"/><radialGradient xlink:href="#z" id="C" cx="329.125" cy="899.157" r="11.55" fx="329.125" fy="899.157" gradientTransform="translate(-729.29 -1935.053)scale(3.16727)" gradientUnits="userSpaceOnUse"/><radialGradient xlink:href="#z" id="F" cx="329.125" cy="899.157" r="11.55" fx="329.125" fy="899.157" gradientTransform="translate(-729.29 -1935.053)scale(3.16727)" gradientUnits="userSpaceOnUse"/><radialGradient xlink:href="#A" id="al" cx="306.464" cy="785.008" r="286.798" fx="306.464" fy="785.008" gradientTransform="translate(10.43 -129.79)" gradientUnits="userSpaceOnUse"/><radialGradient xlink:href="#B" id="am" cx="1457.285" cy="1371.623" r="869.665" fx="1457.285" fy="1371.623" gradientTransform="translate(0 -542.337)" gradientUnits="userSpaceOnUse"/></defs><g transform="translate(-884.2 -1007.396)scale(1.58947)"><ellipse cx="1500" cy="2457.804" rx="392.119" ry="98.03" style="fill:#e1e1e1;fill-opacity:1;stroke-width:3.76722;stroke-linecap:round;stroke-linejoin:round"/><path d="M315.868 899.535c5.131 14.117 13.589 17.691 19.745 15.35s10.01-10.596 5.935-20.14c-1.555-3.64-4.59-6.554-9.616-7.901-5.026-1.348-12.043-1.13-15.192 1.31-3.148 2.44-2.427 7.102-.872 11.38" style="fill:#fde1bb;fill-opacity:1;stroke-width:9.32389;stroke-linecap:round;stroke-linejoin:round" transform="matrix(-5.75904 0 0 5.75904 2955.745 -3118.133)"/><path d="M325.746 886.023c-3.56-.05-7.038.606-9.006 2.131-3.148 2.44-2.428 7.102-.873 11.381 5.131 14.118 13.59 17.69 19.746 15.35s10.011-10.596 5.936-20.139c-1.555-3.642-4.591-6.555-9.617-7.902-1.885-.506-4.05-.79-6.186-.82" style="mix-blend-mode:overlay;fill:url(#C);stroke-width:27.1285;stroke-linecap:round;stroke-linejoin:round" transform="matrix(-5.75904 0 0 5.75904 2955.745 -3118.133)"/><path d="M325.746 886.023c-3.56-.05-7.038.606-9.006 2.131-3.148 2.44-2.428 7.102-.873 11.381 1.003 2.76 2.133 5.115 3.348 7.104a70 70 0 0 0 24.015-4.244c-.016-2.38-.534-4.963-1.681-7.649-1.555-3.642-4.591-6.555-9.617-7.902-1.885-.506-4.05-.79-6.186-.82" style="mix-blend-mode:multiply;fill:url(#D);fill-opacity:1;stroke-width:8.56526;stroke-linecap:round;stroke-linejoin:round" transform="matrix(-5.75904 0 0 5.75904 2955.745 -3118.133)"/><path d="M334.324 898.191a12.803 12.803 0 0 0-12.758 11.733c4.56 5.4 9.841 6.56 14.047 4.96 4.572-1.737 7.874-6.736 7.602-13.103a12.8 12.8 0 0 0-8.89-3.59" style="fill:url(#E);fill-opacity:1;stroke-width:8.56526;stroke-linecap:round;stroke-linejoin:round" transform="matrix(-5.75904 0 0 5.75904 2955.745 -3118.133)"/><path d="M315.868 899.535c5.131 14.117 13.589 17.691 19.745 15.35s10.01-10.596 5.935-20.14c-1.555-3.64-4.59-6.554-9.616-7.901-5.026-1.348-12.043-1.13-15.192 1.31-3.148 2.44-2.427 7.102-.872 11.38" style="fill:#fde1bb;fill-opacity:1;stroke-width:9.32389;stroke-linecap:round;stroke-linejoin:round" transform="matrix(-5.75904 0 0 5.75904 3114.094 -3061.824)"/><path d="M325.746 886.023c-3.56-.05-7.038.606-9.006 2.131-3.148 2.44-2.428 7.102-.873 11.381 5.131 14.118 13.59 17.69 19.746 15.35s10.011-10.596 5.936-20.139c-1.555-3.642-4.591-6.555-9.617-7.902-1.885-.506-4.05-.79-6.186-.82" style="mix-blend-mode:overlay;fill:url(#F);stroke-width:27.1285;stroke-linecap:round;stroke-linejoin:round" transform="matrix(-5.75904 0 0 5.75904 3114.094 -3061.824)"/><path d="M325.746 886.023c-3.56-.05-7.038.606-9.006 2.131-3.148 2.44-2.428 7.102-.873 11.381 1.003 2.76 2.133 5.115 3.348 7.104a70 70 0 0 0 24.015-4.244c-.016-2.38-.534-4.963-1.681-7.649-1.555-3.642-4.591-6.555-9.617-7.902-1.885-.506-4.05-.79-6.186-.82" style="mix-blend-mode:multiply;fill:url(#G);fill-opacity:1;stroke-width:8.56526;stroke-linecap:round;stroke-linejoin:round" transform="matrix(-5.75904 0 0 5.75904 3114.094 -3061.824)"/><path d="M334.324 898.191a12.803 12.803 0 0 0-12.758 11.733c4.56 5.4 9.841 6.56 14.047 4.96 4.572-1.737 7.874-6.736 7.602-13.103a12.8 12.8 0 0 0-8.89-3.59" style="fill:url(#H);fill-opacity:1;stroke-width:8.56526;stroke-linecap:round;stroke-linejoin:round" transform="matrix(-5.75904 0 0 5.75904 3114.094 -3061.824)"/><path d="M315.868 899.535c5.131 14.117 13.589 17.691 19.745 15.35s10.01-10.596 5.935-20.14c-1.555-3.64-4.59-6.554-9.616-7.901-5.026-1.348-12.043-1.13-15.192 1.31-3.148 2.44-2.427 7.102-.872 11.38" style="fill:#fde1bb;fill-opacity:1;stroke-width:9.32389;stroke-linecap:round;stroke-linejoin:round" transform="rotate(-3.364 -50286.745 2973.623)scale(5.75904)"/><path d="M325.746 886.023c-3.56-.05-7.038.606-9.006 2.131-3.148 2.44-2.428 7.102-.873 11.381 5.131 14.118 13.59 17.69 19.746 15.35s10.011-10.596 5.936-20.139c-1.555-3.642-4.591-6.555-9.617-7.902-1.885-.506-4.05-.79-6.186-.82" style="mix-blend-mode:overlay;fill:url(#I);stroke-width:27.1285;stroke-linecap:round;stroke-linejoin:round" transform="rotate(-3.364 -50286.745 2973.623)scale(5.75904)"/><path d="M325.746 886.023c-3.56-.05-7.038.606-9.006 2.131-3.148 2.44-2.428 7.102-.873 11.381 1.003 2.76 2.133 5.115 3.348 7.104a70 70 0 0 0 24.015-4.244c-.016-2.38-.534-4.963-1.681-7.649-1.555-3.642-4.591-6.555-9.617-7.902-1.885-.506-4.05-.79-6.186-.82" style="mix-blend-mode:multiply;fill:url(#J);fill-opacity:1;stroke-width:8.56526;stroke-linecap:round;stroke-linejoin:round" transform="rotate(-3.364 -50286.745 2973.623)scale(5.75904)"/><path d="M334.324 898.191a12.803 12.803 0 0 0-12.758 11.733c4.56 5.4 9.841 6.56 14.047 4.96 4.572-1.737 7.874-6.736 7.602-13.103a12.8 12.8 0 0 0-8.89-3.59" style="fill:url(#K);fill-opacity:1;stroke-width:8.56526;stroke-linecap:round;stroke-linejoin:round" transform="rotate(-3.364 -50286.745 2973.623)scale(5.75904)"/><path d="M315.868 899.535c5.131 14.117 13.589 17.691 19.745 15.35s10.01-10.596 5.935-20.14c-1.555-3.64-4.59-6.554-9.616-7.901-5.026-1.348-12.043-1.13-15.192 1.31-3.148 2.44-2.427 7.102-.872 11.38" style="fill:#fde1bb;fill-opacity:1;stroke-width:9.32389;stroke-linecap:round;stroke-linejoin:round" transform="rotate(-3.364 -49248.828 5641.567)scale(5.75904)"/><path d="M325.746 886.023c-3.56-.05-7.038.606-9.006 2.131-3.148 2.44-2.428 7.102-.873 11.381 5.131 14.118 13.59 17.69 19.746 15.35s10.011-10.596 5.936-20.139c-1.555-3.642-4.591-6.555-9.617-7.902-1.885-.506-4.05-.79-6.186-.82" style="mix-blend-mode:overlay;fill:url(#L);stroke-width:27.1285;stroke-linecap:round;stroke-linejoin:round" transform="rotate(-3.364 -49248.828 5641.567)scale(5.75904)"/><path d="M325.746 886.023c-3.56-.05-7.038.606-9.006 2.131-3.148 2.44-2.428 7.102-.873 11.381 1.003 2.76 2.133 5.115 3.348 7.104a70 70 0 0 0 24.015-4.244c-.016-2.38-.534-4.963-1.681-7.649-1.555-3.642-4.591-6.555-9.617-7.902-1.885-.506-4.05-.79-6.186-.82" style="mix-blend-mode:multiply;fill:url(#M);fill-opacity:1;stroke-width:8.56526;stroke-linecap:round;stroke-linejoin:round" transform="rotate(-3.364 -49248.828 5641.567)scale(5.75904)"/><path d="M334.324 898.191a12.803 12.803 0 0 0-12.758 11.733c4.56 5.4 9.841 6.56 14.047 4.96 4.572-1.737 7.874-6.736 7.602-13.103a12.8 12.8 0 0 0-8.89-3.59" style="fill:url(#N);fill-opacity:1;stroke-width:8.56526;stroke-linecap:round;stroke-linejoin:round" transform="rotate(-3.364 -49248.828 5641.567)scale(5.75904)"/><g transform="translate(-221.299 -2980.773)scale(5.75904)"><ellipse cx="203.647" cy="725.817" rx="21.92" ry="24.218" style="fill:#fde1bb;fill-opacity:1;stroke-width:7.97415;stroke-linecap:round;stroke-linejoin:round"/><path d="M205.168 708.705c-8.67 2.03-6.744 5.679-6.046 9.861.347 2.078-.144 5.578.401 7.62 2.305 8.636 13.587 11.52 19.805 6.826a16.3 16.3 0 0 0 2.117-8.028c0-8.99-7.287-16.278-16.277-16.279" style="mix-blend-mode:multiply;fill:#fa970d;fill-opacity:.146924;stroke-width:8.56526;stroke-linecap:round;stroke-linejoin:round"/><path d="M215.068 705.146a10.05 10.05 0 0 0-3.175 7.333 10.05 10.05 0 0 0 10.05 10.052 10 10 0 0 0 3.344-.572 21.92 24.218 0 0 0-10.219-16.813" style="fill:url(#O);fill-opacity:1;stroke-width:8.56526;stroke-linecap:round;stroke-linejoin:round"/><path d="M193.041 718.42a20 20 0 0 0-10.998 3.3 21.92 24.218 0 0 0-.316 4.096 21.92 24.218 0 0 0 21.92 24.22 21.92 24.218 0 0 0 6.318-1.028 20 20 0 0 0 3.05-10.612 19.976 19.976 0 0 0-19.974-19.976" style="fill:url(#P);fill-opacity:1;stroke-width:8.56526;stroke-linecap:round;stroke-linejoin:round"/><path d="M415.892 795.537c3.354 72.638-48.573 105.858-115.63 105.858-95.689 0-111.373-63.131-111.373-104.52 0-60.587 50.787-109.702 111.374-109.702s115.63 47.777 115.63 108.364" style="fill:#fde1bb;fill-opacity:1;stroke-width:8.56526;stroke-linecap:round;stroke-linejoin:round"/><path d="M300.264 687.172c-60.587 0-111.375 49.116-111.375 109.703 0 5.725.3 11.866 1.07 18.2A121.05 121.05 0 0 0 305.465 694.15a121 121 0 0 0-.195-6.869q-2.496-.109-5.006-.11" style="fill:url(#Q);fill-opacity:1;stroke-width:8.56526;stroke-linecap:round;stroke-linejoin:round"/><path d="M317.951 758.994a129.06 129.06 0 0 0-121.072 84.358c11.96 30.576 40.269 58.043 103.385 58.043 64.341 0 114.753-30.585 115.767-97.229a129.06 129.06 0 0 0-98.08-45.172" style="fill:url(#R);fill-opacity:1;stroke-width:8.56526;stroke-linecap:round;stroke-linejoin:round"/><path d="M308.139 687.441a117.7 117.7 0 0 0-8.672 44.34 117.694 117.694 0 0 0 106.379 117.15c7.344-14.584 11.02-32.332 10.047-53.394 0-57.95-50.356-104.18-107.754-108.096" style="fill:url(#S);fill-opacity:1;stroke-width:8.56526;stroke-linecap:round;stroke-linejoin:round"/><path d="M361.002 703.98a38 38 0 0 0-3.545.75l4.248 21.207c.025-1.213.022-2.736-.096-3.931.78 1.616 1.56 3.231 3.705 5.6 8.45 9.328 18.539 8.84 23.723-1.44-8.033-9.018-17.497-15.945-28.035-22.186" style="fill:#fbc986;fill-opacity:1;stroke-width:8.56526;stroke-linecap:round;stroke-linejoin:round" transform="scale(-1.06789 1.06789)rotate(34.42 80.687 -315.178)"/><path d="M342.44 723.497s4.81-17.038 15.017-19.728c6.203-1.634 14.012-1.864 20.476.31s11.583 6.753 12.403 14.737c.418 4.068-.864 7.913-3.79 10.615-1.704 1.575-10.712 8.826-21.231-2.786-2.146-2.368-2.926-3.984-3.706-5.6.232 2.367.02 6.016.02 6.016-4.638 1.719-11.347 5.892-19.19-3.564" style="fill:#b17c58;fill-opacity:1;stroke-width:8.56526;stroke-linecap:round;stroke-linejoin:round" transform="scale(-1.06789 1.06789)rotate(34.42 80.687 -315.178)"/><path d="M367.598 702.496c-3.536-.01-7.04.457-10.141 1.274-2.061.543-3.903 1.672-5.53 3.126a22.8 22.8 0 0 0 9.753 15.157c-.017-.351-.04-.691-.07-1.008.226.468.45.937.71 1.424a22.8 22.8 0 0 0 12.088 3.468 22.8 22.8 0 0 0 15.977-6.537 15 15 0 0 0-.049-.584c-.82-7.984-5.938-12.564-12.402-14.738-3.232-1.087-6.8-1.572-10.336-1.582" style="fill:url(#T);fill-opacity:1;stroke-width:8.56526;stroke-linecap:round;stroke-linejoin:round" transform="scale(-1.06789 1.06789)rotate(34.42 80.687 -315.178)"/><path d="M374.408 703.148a20.1 20.1 0 0 0-9.138 16.85 20.1 20.1 0 0 0 1.89 8.51c9.712 8.913 17.783 2.405 19.387.924 2.926-2.703 4.207-6.547 3.789-10.616-.82-7.984-5.938-12.564-12.402-14.738a28 28 0 0 0-3.526-.93" style="fill:url(#U);fill-opacity:1;stroke-width:8.56526;stroke-linecap:round;stroke-linejoin:round" transform="scale(-1.06789 1.06789)rotate(34.42 80.687 -315.178)"/><path d="M361.44 702.951a38 38 0 0 0-3.983.819c-6.377 1.68-10.648 8.96-12.955 14.187a15 15 0 0 0 1.559.078 15.38 15.38 0 0 0 15.378-15.084" style="fill:url(#V);fill-opacity:1;stroke-width:8.56526;stroke-linecap:round;stroke-linejoin:round" transform="scale(-1.06789 1.06789)rotate(34.42 80.687 -315.178)"/><path d="M347.782 711.843a12.71 12.71 0 0 1 11.379 5.494c1.253 1.829 2.208 3.85 2.553 5.955.022 1.917-.087 3.763-.087 3.77-.82.303-1.704.683-2.649 1.052-4.353 1.631-10.06 2.82-16.118-4.121a28 28 0 0 1-.421-.496s.434-1.541 1.319-3.766l.002-.001c.885-2.227 2.22-5.14 4.023-7.887z" style="fill:url(#W);fill-opacity:1;stroke-width:8.56526;stroke-linecap:round;stroke-linejoin:round" transform="scale(-1.06789 1.06789)rotate(34.42 80.687 -315.178)"/><path d="M361.002 703.98a38 38 0 0 0-3.545.75l4.248 21.207c.025-1.213.022-2.736-.096-3.931.78 1.616 1.56 3.231 3.705 5.6 10.52 11.611 19.529 4.36 21.233 2.787a11.8 11.8 0 0 0 2.539-3.364c-8.033-9.017-17.546-16.808-28.084-23.049" style="fill:#fbc986;fill-opacity:1;stroke-width:8.56526;stroke-linecap:round;stroke-linejoin:round"/><path d="M342.44 723.497s4.81-17.038 15.017-19.728c6.203-1.634 14.012-1.864 20.476.31s11.583 6.753 12.403 14.737c.418 4.068-.864 7.913-3.79 10.615-1.704 1.575-10.712 8.826-21.231-2.786-2.146-2.368-2.926-3.984-3.706-5.6.232 2.367.02 6.016.02 6.016s-9.536 7.313-19.19-3.564" style="fill:#b17c58;fill-opacity:1;stroke-width:8.56526;stroke-linecap:round;stroke-linejoin:round"/><path d="M367.598 702.496c-3.536-.01-7.04.457-10.141 1.274-2.061.543-3.903 1.672-5.53 3.126a22.8 22.8 0 0 0 9.753 15.157c-.017-.351-.04-.691-.07-1.008.226.468.45.937.71 1.424a22.8 22.8 0 0 0 12.088 3.468 22.8 22.8 0 0 0 15.977-6.537 15 15 0 0 0-.049-.584c-.82-7.984-5.938-12.564-12.402-14.738-3.232-1.087-6.8-1.572-10.336-1.582" style="fill:url(#X);fill-opacity:1;stroke-width:8.56526;stroke-linecap:round;stroke-linejoin:round"/><path d="M374.408 703.148a20.1 20.1 0 0 0-9.138 16.85 20.1 20.1 0 0 0 1.89 8.51c9.712 8.913 17.783 2.405 19.387.924 2.926-2.703 4.207-6.547 3.789-10.616-.82-7.984-5.938-12.564-12.402-14.738a28 28 0 0 0-3.526-.93" style="fill:url(#Y);fill-opacity:1;stroke-width:8.56526;stroke-linecap:round;stroke-linejoin:round"/><path d="M361.44 702.951a38 38 0 0 0-3.983.819c-6.377 1.68-10.648 8.96-12.955 14.187a15 15 0 0 0 1.559.078 15.38 15.38 0 0 0 15.378-15.084" style="fill:url(#Z);fill-opacity:1;stroke-width:8.56526;stroke-linecap:round;stroke-linejoin:round"/><ellipse cx="339.687" cy="766.852" rx="18.646" ry="17.352" style="fill:#b27f5b;fill-opacity:1;stroke-width:7.99554;stroke-linecap:round;stroke-linejoin:round"/><g transform="translate(1.05 -1033.78)"><ellipse cx="265.888" cy="1778.383" rx="5.638" ry="5.767" style="fill:url(#aa);fill-opacity:1;stroke-width:7.8917;stroke-linecap:round;stroke-linejoin:round" transform="matrix(.99421 .10745 .04261 .9991 0 0)"/><path d="M338.586 1790.135a7.7 7.7 0 0 0-1.291.156c-6.678 1.357-8.534 5.554-3.719 8.408.011.01 1.593.83 2.623 1.367-.248 1.008-1.101 1.817-3.05 2.225 0 0-.076.012-.55.033a3.8 3.8 0 0 1-1.84-.621c-.917-.599-1.838-.703-2.536-.438-1.027.38-1.588 1.526-1.04 2.97.95 2.495 7.126 6.235 11.985 1.314.928-.942 1.518-1.168 2.838-1.08 6.901.45 9.033-6.447 8.084-8.944-.549-1.443-1.727-1.922-2.748-1.527-.692.263-1.313.946-1.606 2.012a3.8 3.8 0 0 1-.957 1.683l-.437.344c-1.478.847-2.552.94-3.365.58.034-1.18.638-3.23.812-3.766.958-2.948-.392-4.799-3.203-4.716" style="fill:url(#ab);fill-opacity:1"/></g><circle cx="308.419" cy="773.886" r="6.088" style="fill:#4a280c;fill-opacity:1;stroke-width:9.58937;stroke-linecap:round;stroke-linejoin:round"/><circle cx="367.601" cy="753.657" r="6.088" style="fill:url(#ac);fill-opacity:1;stroke-width:9.58937;stroke-linecap:round;stroke-linejoin:round"/><path d="M341.432 754.354a22.97 22.97 0 0 0-20.391 12.394 18.646 17.352 0 0 0 0 .104 18.646 17.352 0 0 0 18.647 17.351 18.646 17.352 0 0 0 18.644-17.351 18.646 17.352 0 0 0-1.314-6.399 22.97 22.97 0 0 0-15.586-6.1" style="fill:url(#ad);fill-opacity:1;stroke-width:8.56526;stroke-linecap:round;stroke-linejoin:round"/><path d="M339.688 749.5a18.646 17.352 0 0 0-15.387 7.55 19.86 19.86 0 0 0 16.982 9.565 19.86 19.86 0 0 0 15.27-7.162 18.646 17.352 0 0 0-16.865-9.953" style="fill:url(#ae);fill-opacity:1;stroke-width:8.56526;stroke-linecap:round;stroke-linejoin:round"/><path d="M349.01 751.826a18.645 17.352 0 0 0-9.322 15.026 18.645 17.352 0 0 0 9.322 15.025 18.646 17.352 0 0 0 9.322-15.025 18.646 17.352 0 0 0-9.322-15.026" style="fill:url(#af);fill-opacity:1;stroke-width:8.56526;stroke-linecap:round;stroke-linejoin:round"/><path d="M339.688 749.5a18.646 17.352 0 0 0-18.647 17.352 18.646 17.352 0 0 0 18.647 17.351 18.646 17.352 0 0 0 18.644-17.351 18.646 17.352 0 0 0-18.644-17.352" style="mix-blend-mode:overlay;fill:url(#ag);fill-opacity:1;stroke-width:15.0478;stroke-linecap:round;stroke-linejoin:round"/><path d="M353.191 705.87c-7.287 5.358-10.752 17.626-10.752 17.626 9.655 10.878 19.19 3.565 19.19 3.565s.213-3.648-.02-6.016c.631 1.307 1.262 2.615 2.616 4.32a14.3 14.3 0 0 0 1.045-5.367 14.304 14.304 0 0 0-12.079-14.129" style="fill:url(#ah);fill-opacity:1;stroke-width:8.56526;stroke-linecap:round;stroke-linejoin:round"/><path d="M367.598 702.496c-.244 0-.474.05-.717.053-1.087.016-2.17.06-3.236.148a21.7 21.7 0 0 0-4.065 12.637 21.7 21.7 0 0 0 2.137 9.385l-.002-.428c.006-.687 0-1.427-.03-2.129.757 1.565 1.553 3.151 3.63 5.443 10.518 11.612 19.528 4.362 21.232 2.788a11.8 11.8 0 0 0 2.539-3.364l-.324-.361c.93-1.608 1.47-3.42 1.613-5.33a14 14 0 0 0-.033-2.453l-.006-.069a19 19 0 0 0-.504-2.838q-.173-.669-.39-1.3a15.4 15.4 0 0 0-1.686-3.459v-.002a15 15 0 0 0-.717-1.008c-2.259-2.923-5.47-4.908-9.105-6.131a28 28 0 0 0-3.176-.838c-.12-.025-.23-.068-.35-.092l-.027.02-.043-.008c-.255-.05-.505-.1-.762-.145-.588-.1-1.184-.143-1.781-.213a37 37 0 0 0-3.375-.246c-.276-.007-.547-.06-.822-.06" style="mix-blend-mode:overlay;fill:url(#ai);stroke-width:10.7659;stroke-linecap:round;stroke-linejoin:round"/><path d="M220.781 720.37a112 112 0 0 0-12.111 14.43c3.7.95 7.737.416 10.658-1.788a16.3 16.3 0 0 0 2.117-8.028c0-1.603-.232-3.152-.664-4.615" style="fill:#fbc986;fill-opacity:.347647;stroke-width:8.56526;stroke-linecap:round;stroke-linejoin:round"/><path d="M200.042 1960.104c-.605 16.42 27.213 18.446 24.103-1.637-.73-4.709-4.312-9.338-8.166-12.215s-7.979-4.002-11.833-3.856-7.438 1.562-10.438 3.583-5.416 4.646-6.208 7.083.042 4.688 1.792 6.105c1.75 1.416 4.416 2 6 1.541 1.583-.458 2.083-1.958 2.77-2.5.688-.541 1.563-.125 1.98 1.896" style="fill:#fde1bb;fill-opacity:1;stroke-width:8.56526;stroke-linecap:round;stroke-linejoin:round" transform="translate(0 -1238.851)"/><path d="M203.646 701.6a21.92 24.218 0 0 0-8.18 1.748 18.625 18.625 0 0 0 18.284 15.072 18.6 18.6 0 0 0 9.787-2.78 21.92 24.218 0 0 0-19.89-14.04" style="fill:url(#aj);fill-opacity:1;stroke-width:8.56526;stroke-linecap:round;stroke-linejoin:round"/><path d="M204.426 703.537a17.56 17.56 0 0 0-8.238 14.883 17.6 17.6 0 0 0 .23 2.832c.76-.636 1.154-1.508 1.644-1.895.688-.541 1.562-.124 1.979 1.897-.605 16.42 27.214 18.444 24.104-1.639-.73-4.708-4.312-9.338-8.166-12.215-3.761-2.807-7.78-3.945-11.553-3.863" style="fill:url(#ak);fill-opacity:1;stroke-width:8.56526;stroke-linecap:round;stroke-linejoin:round"/></g><path d="M300.264 687.172a111.2 111.2 0 0 0-41.498 8.021 113 113 0 0 0-34.65 21.957 21.92 24.218 0 0 0-.62-1.484l.041-.025a21.92 24.218 0 0 0-.36-.739 21.92 24.218 0 0 0-.282-.668 21.92 24.218 0 0 0-.29-.51 21.92 24.218 0 0 0-.832-1.453 21.92 24.218 0 0 0-.435-.746 21.92 24.218 0 0 0-.256-.347 21.92 24.218 0 0 0-1.03-1.36 21.92 24.218 0 0 0-.58-.748 21.92 24.218 0 0 0-.206-.224 21.92 24.218 0 0 0-1.246-1.258 21.92 24.218 0 0 0-.688-.68 21.92 24.218 0 0 0-.123-.113 21.92 24.218 0 0 0-2.256-1.715 21.92 24.218 0 0 0-1.615-.926 21.92 24.218 0 0 0-1.02-.57 21.92 24.218 0 0 0-1.896-.748 21.92 24.218 0 0 0-.897-.344 21.92 24.218 0 0 0-2.011-.465 21.92 24.218 0 0 0-.91-.203 21.92 24.218 0 0 0-2.958-.224 21.92 24.218 0 0 0-8.18 1.748 21.92 24.218 0 0 0-13.378 18.347l-.045.026a21.92 24.218 0 0 0-.07.605 21.92 24.218 0 0 0-.077.658 21.92 24.218 0 0 0-.17 2.832 21.92 24.218 0 0 0 .213 3.372 21.92 24.218 0 0 1 0 .002 21.92 24.218 0 0 0 .637 3.304 21.92 24.218 0 0 1 0 .002 21.92 24.218 0 0 0 4.283 8.893 21.92 24.218 0 0 1 0 .002 21.92 24.218 0 0 0 12.995 8.28c-7.014 14.297-10.965 30.304-10.965 47.204 0 5.726.3 11.867 1.07 18.2 1.119 9.197 3.377 18.778 7.002 28.095l-.082.182c.131.336.33.656.465.992a93 93 0 0 0 4.445 9.476c.37.685.789 1.346 1.18 2.024a84 84 0 0 0 5.443 8.273c.467.626.88 1.272 1.367 1.889.455.575.952 1.129 1.426 1.695a81 81 0 0 0 3.836 4.27 80 80 0 0 0 1.846 1.857 81 81 0 0 0 4.71 4.207c.495.41.953.837 1.462 1.239a84 84 0 0 0 6.923 4.918c.579.369 1.21.704 1.805 1.064a91 91 0 0 0 6.072 3.37c.89.45 1.802.884 2.723 1.314 1.347.628 2.791 1.19 4.207 1.773 4.18 1.724 8.603 3.284 13.406 4.58.435.117.816.271 1.256.385 5.165 1.333 10.81 2.32 16.73 3.103 1.428.19 2.886.352 4.358.506 6.208.652 12.674 1.108 19.725 1.108 7.216 0 14.178-.52 20.994-1.297 1.982-.226 3.893-.547 5.836-.84a149 149 0 0 0 14.672-2.959c2.153-.55 4.353-1.018 6.44-1.662 1.144-.353 2.264-.73 3.388-1.111 3.945-1.34 7.775-2.83 11.441-4.524.459-.212.949-.382 1.403-.6 3.996-1.914 7.76-4.104 11.378-6.455 1.644-1.067 3.265-2.155 4.825-3.314.551-.41 1.125-.795 1.666-1.217q3.465-2.697 6.625-5.707c.466-.445.895-.925 1.351-1.38a84 84 0 0 0 6.418-7.188 82 82 0 0 0 4.149-5.729c.343-.518.716-1.009 1.048-1.537a84 84 0 0 0 3.948-6.943c.117-.234.198-.5.314-.735.864-1.756 1.589-3.629 2.346-5.476.58-1.415 1.22-2.776 1.736-4.244.71-2.022 1.258-4.172 1.842-6.295.393-1.43.865-2.796 1.2-4.272.56-2.473.935-5.09 1.327-7.695.19-1.258.47-2.444.62-3.732.458-3.963.736-8.062.8-12.317q.064-4.218-.138-8.629c0-26.163-10.265-49.938-26.807-68.508l-.324-.36c.278-.482.51-.987.718-1.5.064-.158.117-.318.174-.477q.206-.575.354-1.172c.042-.17.088-.338.123-.51.112-.548.202-1.103.244-1.67v-.002a14 14 0 0 0-.033-2.453l-.006-.069-.045-.394c-.038-.311-.105-.6-.156-.9-.042-.246-.065-.506-.115-.745l-.002-.01c-.01-.05-.029-.093-.04-.142-.031-.146-.07-.285-.105-.428-.017-.07-.023-.15-.04-.219-.078-.297-.17-.58-.26-.867-.033-.103-.062-.21-.096-.312-.012-.034-.018-.07-.03-.104l-.006-.017a16 16 0 0 0-.568-1.407c-.018-.039-.03-.082-.049-.12l-.025-.05c-.048-.102-.105-.197-.155-.298-.083-.168-.158-.343-.246-.506q-.301-.557-.642-1.078v-.002a15 15 0 0 0-.717-1.008c-.035-.045-.074-.086-.11-.131-.115-.147-.24-.284-.36-.426-.196-.23-.393-.457-.6-.674q-.211-.217-.43-.425l-.014-.014-.002-.002q-.242-.235-.494-.46l-.002-.001a17.5 17.5 0 0 0-1.78-1.381c-.54-.37-1.118-.691-1.7-1.008-.281-.153-.545-.328-.834-.469a24 24 0 0 0-2.78-1.14c-.28-.094-.57-.163-.855-.246a29 29 0 0 0-2.316-.594c-.115-.024-.222-.063-.336-.086l-.018-.004c-.184-.036-.375-.049-.56-.082q-.135-.027-.272-.05c-.453-.078-.907-.127-1.365-.186-1.527-.197-3.068-.33-4.614-.334-.243-.001-.474.049-.716.052l-.028.002c-1.078.017-2.151.06-3.209.147l-.06.096c-.711.07-1.451.053-2.145.158q-.86.13-1.695.295h-.002c-4.172-2.404-8.52-4.519-12.975-6.42-1.467-.627-2.996-1.099-4.49-1.668-3.062-1.167-6.135-2.288-9.297-3.205-1.794-.52-3.62-.909-5.443-1.346-2.962-.71-5.933-1.352-8.957-1.834-1.96-.313-3.926-.54-5.908-.754-1.518-.164-3.005-.474-4.534-.578l-.095.262c-.923-.063-1.841-.15-2.768-.19l-.006-.232q-2.495-.109-5.006-.11z" style="mix-blend-mode:overlay;fill:url(#al);stroke-width:8.56526;stroke-linecap:round;stroke-linejoin:round" transform="translate(-221.299 -2980.773)scale(5.75904)"/><path d="M1507.928 976.668v.006c-28.084 0-55.616 2.475-82.846 6.027a637 637 0 0 0-20.209 2.955c-47.041 7.672-92.692 19.855-135.924 37.211a647 647 0 0 0-54.353 24.797 650 650 0 0 0-51.582 29.53c-5 3.174-9.616 6.868-14.522 10.173-11.48 7.735-23.036 15.373-33.978 23.805a651 651 0 0 0-45.114 38.143 147 147 0 0 0-3.562-8.547l.232-.147a145 145 0 0 0-2.088-4.297 147 147 0 0 0-1.603-3.789 143 143 0 0 0-1.658-2.922 142 142 0 0 0-4.823-8.423 142 142 0 0 0-2.478-4.252q-.756-1.047-1.53-2.077a137 137 0 0 0-5.798-7.652l-.09-.12-.145-.187a137 137 0 0 0-3.185-4.119q-.591-.647-1.188-1.285a132 132 0 0 0-7.328-7.39 131 131 0 0 0-3.807-3.764l-.016-.014-.055-.051-.63-.584a127 127 0 0 0-11.874-9.14q-.238-.187-.478-.372l-.62-.355-.042-.03-.031-.017a122 122 0 0 0-8.526-4.903 122 122 0 0 0-6.564-3.67 119 119 0 0 0-9.352-3.707 118 118 0 0 0-6.681-2.568l-.104-.039h-.004a116 116 0 0 0-9.765-2.27 116 116 0 0 0-6.801-1.529q-4.073-.48-8.166-.67a115 115 0 0 0-9.065-.672h-.054a115 115 0 0 0-31.836 4.508 118 118 0 0 0-15.272 5.563q-2.043 1.035-4.052 2.152c-38.469 18.893-65.881 57.73-73.094 103.553l-.162.107q-.106.865-.202 1.73a153 153 0 0 0-.384 3.313c-.551 4.53-.9 9.086-1.047 13.653q-.135 2.446-.192 4.896c.093 4.265.363 8.523.809 12.76q.138 3.33.42 6.648v.014a152 152 0 0 0 2.228 11.567q.627 3.758 1.438 7.472a149 149 0 0 0 2 6.06c4.946 16.483 12.633 31.8 22.668 45.163a134 134 0 0 0 12.242 13.992 129 129 0 0 0 13.889 11.98 124 124 0 0 0 5.537 3.53 124 124 0 0 0 9.725 6.197 119.6 119.6 0 0 0 16.341 7.283 116.5 116.5 0 0 0 17.098 4.7c-20.195 41.17-35.981 84.801-46.719 130.306a613 613 0 0 0-2.892 12.871 869.67 869.67 0 0 0 577.22 219.178 869.67 869.67 0 0 0 672.483-318.226c-26.567-63.964-64.206-122.745-110.315-174.504q-.93-1.045-1.863-2.084.21-.364.414-.73c.725-1.29 1.315-2.646 1.953-3.977.434-.904.93-1.776 1.324-2.698.196-.457.338-.936.524-1.398.318-.793.581-1.605.871-2.41.156-.435.325-.865.473-1.303.24-.71.548-1.392.765-2.111.37-1.222.613-2.49.918-3.735.198-.807.423-1.6.594-2.416.096-.459.239-.901.326-1.363.153-.807.211-1.64.338-2.455.265-1.704.558-3.4.709-5.135q.043-.474.078-.951v-.01a82 82 0 0 0 .059-11.158 65 65 0 0 0-.092-1.242v-.06c-.024-.304-.055-.608-.082-.913-.032-.357-.061-.715-.098-1.074v-.01c0-.018 0-.035-.01-.053v-.01q-.042-.394-.086-.787c0-.02 0-.04-.01-.06l-.066-.577q-.597-5.176-1.606-10.022c-.01-.037-.014-.073-.022-.109v-.027l-.033-.16c0-.017-.01-.035-.011-.06l-.027-.112a104 104 0 0 0-1.03-4.383c0-.016-.01-.031-.014-.047-.443-1.715-.977-3.347-1.496-4.994-.01-.02-.012-.038-.018-.057-.21-.668-.387-1.366-.611-2.024-.01-.026-.013-.05-.02-.076-.012-.036-.02-.076-.031-.111v-.02l-.033-.107-.033-.096v-.01l-.094-.266c-.413-1.181-.896-2.304-1.356-3.445-.597-1.52-1.202-3.032-1.867-4.493-.08-.196-.15-.403-.238-.593-.046-.097-.102-.185-.147-.282-.229-.488-.488-.949-.734-1.421-.203-.415-.399-.835-.607-1.245-.312-.664-.622-1.33-.965-1.966a87 87 0 0 0-2.637-4.54l-.074-.117-.078-.125q-.247-.391-.498-.779-.205-.326-.414-.65v-.012a88 88 0 0 0-4.127-5.805l-.064-.082c-.184-.228-.384-.441-.566-.672-.057-.072-.12-.135-.178-.207-1.354-1.701-2.74-3.373-4.205-4.963l-.149-.17-.029-.029c-.597-.645-1.254-1.228-1.869-1.855l-.072-.072c-1.063-1.081-2.115-2.174-3.228-3.201-.135-.124-.256-.264-.391-.387l-.031-.033-.012-.01c-1.255-1.143-2.72-2.048-4.035-3.125-2.537-2.078-5.04-4.193-7.781-6.03-.233-.155-.429-.353-.663-.507l-.01-.01h-.01c-1.577-1.039-3.342-1.833-4.98-2.795-2.586-1.518-5.129-3.083-7.852-4.414-.107-.054-.205-.123-.314-.176h-.01c-.279-.135-.527-.316-.807-.449-1.466-.698-3.063-1.192-4.564-1.838-3.476-1.513-6.945-3.037-10.596-4.265h-.01c-.012 0-.023-.01-.035-.014h-.02l-.088-.03q-.043-.015-.088-.028c-2.105-.703-4.292-1.239-6.45-1.836-3.758-1.078-7.549-2.068-11.423-2.887-.02 0-.039-.01-.059-.014-.335-.071-.652-.183-.988-.252a16 16 0 0 0-.883-.229l-.121-.027h-.01c-.018 0-.035-.01-.053-.012-.024-.01-.051-.01-.074-.016l-.15-.029c-.984-.194-2.007-.259-2.997-.437a96 96 0 0 0-1.642-.299c-2.453-.419-4.917-.693-7.397-1.017-8.497-1.115-17.075-1.888-25.683-1.963-.38 0-.76-.01-1.139-.01h-.371c-1.465 0-2.857.291-4.318.316-4.549.074-9.084.225-13.579.504a228 228 0 0 0-4.708.338l-.025.04q-.172.24-.342.481c-3.734.366-7.615.29-11.264.825-.172.02-.356.016-.527.039-.028 0-.056.01-.084.012q-.23.03-.457.064a223 223 0 0 0-9.48 1.644l-.286.053a700 700 0 0 0-69.143-34.885c-1.813-.792-3.753-1.303-5.574-2.08-1.538-.656-3.149-1.141-4.707-1.748-7.527-3.15-15.335-5.656-22.982-8.545-13.228-4.996-26.197-10.586-39.75-14.779-3.862-1.195-7.917-1.81-11.803-2.938-.054-.016-.104-.039-.158-.055-8.622-2.5-17.393-4.419-26.149-6.464-12.676-3.146-25.128-6.997-38.013-9.42-6.145-1.156-12.491-1.42-18.678-2.408l-.092-.018c-6.14-.98-12.336-1.606-18.504-2.361-13.677-1.798-27.2-4.314-41.04-5.27l-.589-.04a669 669 0 0 0-16.525-.923 666 666 0 0 0-28.828-.63z" style="mix-blend-mode:overlay;fill:url(#am);stroke-width:8.56526;stroke-linecap:round;stroke-linejoin:round"/></g></svg>