<?xml version="1.0" encoding="UTF-8" standalone="no"?>
<!-- Created with Inkscape (http://www.inkscape.org/) -->

<svg
   version="1.1"
   id="svg1"
   width="406"
   height="560"
   viewBox="0 0 406 560"
   xml:space="preserve"
   xmlns:xlink="http://www.w3.org/1999/xlink"
   xmlns="http://www.w3.org/2000/svg"
   xmlns:svg="http://www.w3.org/2000/svg"><defs
     id="defs1"><linearGradient
       id="linearGradient124"><stop
         style="stop-color:#f2d3a0;stop-opacity:1;"
         offset="0"
         id="stop125" /><stop
         style="stop-color:#f2d3a0;stop-opacity:0;"
         offset="1"
         id="stop128" /></linearGradient><linearGradient
       id="linearGradient122"><stop
         style="stop-color:#f4dbae;stop-opacity:0.6044755;"
         offset="0"
         id="stop123" /><stop
         style="stop-color:#f4dbae;stop-opacity:0;"
         offset="1"
         id="stop124" /></linearGradient><linearGradient
       id="linearGradient107"><stop
         style="stop-color:#da89c0;stop-opacity:1;"
         offset="0"
         id="stop107" /><stop
         style="stop-color:#922e72;stop-opacity:0;"
         offset="1"
         id="stop108" /></linearGradient><linearGradient
       id="linearGradient89"><stop
         style="stop-color:#8b2a6b;stop-opacity:1;"
         offset="0"
         id="stop90" /><stop
         style="stop-color:#8b2a6b;stop-opacity:0;"
         offset="1"
         id="stop93" /></linearGradient><linearGradient
       id="linearGradient85"><stop
         style="stop-color:#8b2a6b;stop-opacity:1;"
         offset="0"
         id="stop86" /><stop
         style="stop-color:#8b2a6b;stop-opacity:0;"
         offset="1"
         id="stop87" /></linearGradient><linearGradient
       id="linearGradient83"><stop
         style="stop-color:#d05bb3;stop-opacity:1;"
         offset="0"
         id="stop84" /><stop
         style="stop-color:#d05bb3;stop-opacity:0;"
         offset="1"
         id="stop85" /></linearGradient><linearGradient
       id="linearGradient82"><stop
         style="stop-color:#f5dcb1;stop-opacity:1;"
         offset="0"
         id="stop82" /><stop
         style="stop-color:#f5dcb1;stop-opacity:0;"
         offset="1"
         id="stop83" /></linearGradient><linearGradient
       id="linearGradient14"><stop
         style="stop-color:#6f746c;stop-opacity:1;"
         offset="0"
         id="stop13" /><stop
         style="stop-color:#93978f;stop-opacity:1;"
         offset="1"
         id="stop14" /></linearGradient><linearGradient
       id="linearGradient121"><stop
         style="stop-color:#f5dcb1;stop-opacity:1;"
         offset="0"
         id="stop121" /><stop
         style="stop-color:#f5dcb1;stop-opacity:0;"
         offset="1"
         id="stop122" /></linearGradient><linearGradient
       id="linearGradient91"><stop
         style="stop-color:#751c56;stop-opacity:1;"
         offset="0"
         id="stop91" /><stop
         style="stop-color:#54143d;stop-opacity:1;"
         offset="1"
         id="stop92" /></linearGradient><linearGradient
       id="linearGradient69"><stop
         style="stop-color:#969a92;stop-opacity:1;"
         offset="0"
         id="stop69" /><stop
         style="stop-color:#969a92;stop-opacity:0;"
         offset="1"
         id="stop70" /></linearGradient><linearGradient
       id="linearGradient11"><stop
         style="stop-color:#d4c1bb;stop-opacity:1;"
         offset="0"
         id="stop11" /><stop
         style="stop-color:#e6dbd1;stop-opacity:1;"
         offset="1"
         id="stop12" /></linearGradient><linearGradient
       id="linearGradient75"><stop
         style="stop-color:#b0308f;stop-opacity:1;"
         offset="0"
         id="stop75" /><stop
         style="stop-color:#d25bb4;stop-opacity:0;"
         offset="1"
         id="stop76" /></linearGradient><linearGradient
       id="linearGradient49"><stop
         style="stop-color:#923677;stop-opacity:1;"
         offset="0"
         id="stop49" /><stop
         style="stop-color:#923677;stop-opacity:0;"
         offset="1"
         id="stop50" /></linearGradient><linearGradient
       id="linearGradient136"><stop
         style="stop-color:#923677;stop-opacity:0.64648438;"
         offset="0"
         id="stop136" /><stop
         style="stop-color:#923677;stop-opacity:0;"
         offset="1"
         id="stop137" /></linearGradient><linearGradient
       id="linearGradient131"><stop
         style="stop-color:#d87bc7;stop-opacity:1;"
         offset="0"
         id="stop131" /><stop
         style="stop-color:#d87bc7;stop-opacity:0;"
         offset="1"
         id="stop132" /></linearGradient><linearGradient
       id="linearGradient126"><stop
         style="stop-color:#913677;stop-opacity:1;"
         offset="0"
         id="stop126" /><stop
         style="stop-color:#913677;stop-opacity:0;"
         offset="1"
         id="stop127" /></linearGradient><linearGradient
       id="linearGradient114"><stop
         style="stop-color:#fb59db;stop-opacity:0.36527044;"
         offset="0"
         id="stop114" /><stop
         style="stop-color:#fb59db;stop-opacity:0;"
         offset="1"
         id="stop115" /></linearGradient><linearGradient
       id="linearGradient88"><stop
         style="stop-color:#e1d0cc;stop-opacity:1;"
         offset="0"
         id="stop88" /><stop
         style="stop-color:#e1d0cc;stop-opacity:0;"
         offset="1"
         id="stop89" /></linearGradient><linearGradient
       id="linearGradient73"><stop
         style="stop-color:#cf5ebb;stop-opacity:1;"
         offset="0"
         id="stop73" /><stop
         style="stop-color:#cf5ebb;stop-opacity:0;"
         offset="1"
         id="stop74" /></linearGradient><linearGradient
       xlink:href="#linearGradient73"
       id="linearGradient74"
       x1="173.35191"
       y1="86.8442"
       x2="294.25299"
       y2="55.731503"
       gradientUnits="userSpaceOnUse"
       gradientTransform="matrix(1.0123697,-0.05768767,0.05849867,0.99833468,-8.1307315,6.8000489)" /><radialGradient
       xlink:href="#linearGradient88"
       id="radialGradient89"
       cx="138.59293"
       cy="236.17366"
       fx="138.59293"
       fy="236.17366"
       r="181.01933"
       gradientUnits="userSpaceOnUse"
       gradientTransform="matrix(0.7734375,0,0,0.7734375,95.297261,-226.52427)" /><linearGradient
       xlink:href="#linearGradient114"
       id="linearGradient115"
       x1="67.068665"
       y1="114.33002"
       x2="202.49023"
       y2="96.148438"
       gradientUnits="userSpaceOnUse" /><linearGradient
       xlink:href="#linearGradient126"
       id="linearGradient127"
       x1="341.89844"
       y1="142.78027"
       x2="244.33791"
       y2="129.57547"
       gradientUnits="userSpaceOnUse" /><linearGradient
       xlink:href="#linearGradient126"
       id="linearGradient128"
       gradientUnits="userSpaceOnUse"
       x1="406"
       y1="129.51073"
       x2="274.65814"
       y2="113.36224" /><linearGradient
       xlink:href="#linearGradient131"
       id="linearGradient132"
       x1="114.22092"
       y1="29.695312"
       x2="120.17049"
       y2="38.545616"
       gradientUnits="userSpaceOnUse" /><linearGradient
       xlink:href="#linearGradient136"
       id="linearGradient137"
       x1="207.73329"
       y1="156.01503"
       x2="195.54091"
       y2="91.0336"
       gradientUnits="userSpaceOnUse" /><linearGradient
       xlink:href="#linearGradient49"
       id="linearGradient50"
       x1="230.29671"
       y1="198.85567"
       x2="243.77849"
       y2="216.42677"
       gradientUnits="userSpaceOnUse" /><radialGradient
       xlink:href="#linearGradient75"
       id="radialGradient76"
       cx="314.39853"
       cy="194.49129"
       fx="314.39853"
       fy="194.49129"
       r="168.41406"
       gradientTransform="matrix(0.47437543,0,0,0.47437543,206.26031,34.60726)"
       gradientUnits="userSpaceOnUse" /><linearGradient
       xlink:href="#linearGradient11"
       id="linearGradient12"
       x1="-254.86351"
       y1="249.08957"
       x2="-285.44586"
       y2="269.18579"
       gradientUnits="userSpaceOnUse" /><linearGradient
       xlink:href="#linearGradient14"
       id="linearGradient65"
       x1="-272.15894"
       y1="246.3239"
       x2="-268.58054"
       y2="267.51193"
       gradientUnits="userSpaceOnUse" /><linearGradient
       xlink:href="#linearGradient69"
       id="linearGradient70"
       x1="-266.9328"
       y1="247.50211"
       x2="-275.16415"
       y2="264.16992"
       gradientUnits="userSpaceOnUse" /><linearGradient
       xlink:href="#linearGradient91"
       id="linearGradient93"
       gradientUnits="userSpaceOnUse"
       x1="159.62831"
       y1="114.83536"
       x2="159.62831"
       y2="168.60925"
       gradientTransform="matrix(-0.94702924,0.05219161,0.05219161,0.94702924,110.20061,264.26689)" /><linearGradient
       xlink:href="#linearGradient91"
       id="linearGradient120"
       gradientUnits="userSpaceOnUse"
       gradientTransform="matrix(0.94702924,0.05219161,-0.05219161,0.94702924,15.61641,2.63737)"
       x1="159.62831"
       y1="114.83536"
       x2="159.62831"
       y2="168.60925" /><radialGradient
       xlink:href="#linearGradient121"
       id="radialGradient122"
       cx="150.9673"
       cy="251.0229"
       fx="150.9673"
       fy="251.0229"
       r="93.338097"
       gradientUnits="userSpaceOnUse"
       gradientTransform="translate(136.839,-3.1604716)" /><linearGradient
       xlink:href="#linearGradient11"
       id="linearGradient76"
       gradientUnits="userSpaceOnUse"
       x1="-254.86351"
       y1="249.08957"
       x2="-285.44586"
       y2="269.18579" /><linearGradient
       xlink:href="#linearGradient14"
       id="linearGradient77"
       gradientUnits="userSpaceOnUse"
       x1="-272.15894"
       y1="246.3239"
       x2="-268.58054"
       y2="267.51193" /><linearGradient
       xlink:href="#linearGradient69"
       id="linearGradient78"
       gradientUnits="userSpaceOnUse"
       x1="-266.9328"
       y1="247.50211"
       x2="-275.16415"
       y2="264.16992" /><linearGradient
       xlink:href="#linearGradient91"
       id="linearGradient79"
       gradientUnits="userSpaceOnUse"
       gradientTransform="matrix(-0.94702924,0.05219161,0.05219161,0.94702924,110.20061,264.26689)"
       x1="159.62831"
       y1="114.83536"
       x2="159.62831"
       y2="168.60925" /><radialGradient
       xlink:href="#linearGradient82"
       id="radialGradient83"
       cx="109.16352"
       cy="237.33191"
       fx="109.16352"
       fy="237.33191"
       r="69.650017"
       gradientUnits="userSpaceOnUse"
       gradientTransform="translate(16.994678,-7.6727973)" /><radialGradient
       xlink:href="#linearGradient83"
       id="radialGradient85"
       cx="67.882248"
       cy="12.727921"
       fx="67.882248"
       fy="12.727921"
       r="36.415997"
       gradientUnits="userSpaceOnUse"
       gradientTransform="translate(8.6164053,79.22681)" /><radialGradient
       xlink:href="#linearGradient85"
       id="radialGradient87"
       cx="315.89926"
       cy="46.962685"
       fx="315.89926"
       fy="46.962685"
       r="45.5"
       gradientUnits="userSpaceOnUse"
       gradientTransform="matrix(1.9337225,0,0,1.9337225,-236.06327,43.505173)" /><radialGradient
       xlink:href="#linearGradient89"
       id="radialGradient93"
       cx="328.94489"
       cy="208.09421"
       fx="328.94489"
       fy="208.09421"
       r="59.98827"
       gradientTransform="matrix(1,0,0,1.0107119,-18.837906,-9.4206883)"
       gradientUnits="userSpaceOnUse" /><radialGradient
       xlink:href="#linearGradient107"
       id="radialGradient108"
       cx="252"
       cy="236.25"
       fx="252"
       fy="236.25"
       r="37.75"
       gradientUnits="userSpaceOnUse"
       gradientTransform="translate(-1.3730632,2.3126522)" /><linearGradient
       xlink:href="#linearGradient49"
       id="linearGradient119"
       gradientUnits="userSpaceOnUse"
       x1="230.29671"
       y1="198.85567"
       x2="243.77849"
       y2="216.42677" /><radialGradient
       xlink:href="#linearGradient107"
       id="radialGradient119"
       gradientUnits="userSpaceOnUse"
       gradientTransform="translate(-1.3730632,2.3126522)"
       cx="252"
       cy="236.25"
       fx="252"
       fy="236.25"
       r="37.75" /><radialGradient
       xlink:href="#linearGradient122"
       id="radialGradient124"
       cx="64.246864"
       cy="322.11523"
       fx="64.246864"
       fy="322.11523"
       r="64.246864"
       gradientUnits="userSpaceOnUse"
       gradientTransform="matrix(1.1112259,0,0,1.1112259,129.60285,-214.05587)" /><radialGradient
       xlink:href="#linearGradient124"
       id="radialGradient128"
       cx="315.15775"
       cy="54.809254"
       fx="315.15775"
       fy="54.809254"
       r="79.267662"
       gradientUnits="userSpaceOnUse"
       gradientTransform="matrix(1.2631401,0,0,1.2631401,-104.42238,2.7701886)" /></defs><g
     id="g160"
     transform="matrix(1.4574099,0,0,1.4574099,-95.380298,83.053741)"><g
       id="g119"
       transform="matrix(-1,0,0,1,400.93557,4.16406)"><g
         id="g117"><g
           id="g115"><g
             id="g113"
             style="fill:#a03b83;fill-opacity:1"><path
               style="fill:#6d1c51;fill-opacity:1;stroke-width:5.5;stroke-linecap:round"
               d="m 256.75402,192.90132 c 2.56836,11.73018 -0.20105,23.65048 -3.04798,35.07765 -2.65746,-5.94508 -9.1206,-15.84756 -11.46872,-18.52041 -2.42809,-2.76387 -5.47601,-5.14022 -8.65319,-11.10713 -3.17717,-5.96692 -6.48339,-15.52397 -3.38365,-23.24731 3.09974,-7.72334 12.60514,-13.61256 17.46125,-13.30253 4.85612,0.31003 5.06276,6.81916 5.88934,13.27682 0.82659,6.45766 2.27306,12.86347 3.20295,17.82291 z"
               id="path112" /><path
               style="fill:#6d1c51;fill-opacity:1;stroke-width:5.5;stroke-linecap:round"
               d="m 242.65063,207.98626 c -3.37265,9.01039 -2.51674,14.75757 -1.96311,21.07759 0,0 -5.12587,-5.69231 -8.49822,-11.72705 -2.45391,-4.39122 -5.19188,-10.12545 -4.54608,-14.36166 0.6458,-4.23622 4.67526,-6.97418 8.18822,-8.2657 3.51296,-1.29152 6.50923,-1.13654 7.5166,1.42072 1.00738,2.55726 0.0258,7.51659 -0.69741,11.8561 z"
               id="path113" /></g><path
             id="path115"
             style="mix-blend-mode:multiply;fill:url(#linearGradient119);fill-opacity:1;stroke-width:5.5;stroke-linecap:round"
             d="m 247.66211,161.80078 c -4.85611,-0.31003 -14.3612,5.5794 -17.46094,13.30274 -2.7665,6.89303 -0.43163,15.24665 2.36133,21.20507 -2.39963,1.51388 -4.47237,3.73021 -4.91992,6.66602 -0.6458,4.23621 2.09296,9.97011 4.54687,14.36133 3.37235,6.03474 8.49805,11.72851 8.49805,11.72851 -0.5248,-5.99087 -1.32044,-11.46847 1.4707,-19.69726 0.0267,0.0301 0.0535,0.0616 0.0801,0.0918 2.34812,2.67285 8.80934,12.57446 11.4668,18.51954 2.84693,-11.42717 5.61719,-23.34795 3.04883,-35.07813 -0.92989,-4.95944 -2.37654,-11.3646 -3.20313,-17.82227 -0.82658,-6.45765 -1.03255,-12.96731 -5.88867,-13.27734 z" /></g><path
           id="path117"
           style="mix-blend-mode:overlay;fill:url(#radialGradient119);fill-opacity:1;stroke-width:5.5;stroke-linecap:round"
           d="m 250.62695,200.8125 a 37.75,37.75 0 0 0 -22.47461,7.41992 c 0.86129,3.09724 2.50508,6.36196 4.03711,9.10352 3.37235,6.03474 8.49805,11.72851 8.49805,11.72851 -0.13119,-1.49757 -0.28,-2.96478 -0.38477,-4.44922 -0.10485,-1.48443 -0.16514,-2.98729 -0.12304,-4.56054 0.0844,-3.14658 0.58324,-6.57165 1.97851,-10.68555 0.0264,0.0298 0.0538,0.06 0.0801,0.0898 1.17396,1.33632 3.3759,4.47876 5.61719,8.03125 v 0.002 c 2.24098,3.5521 4.52086,7.51217 5.84961,10.48437 2.13504,-8.5698 4.22781,-17.41568 4.05664,-26.25195 v -0.002 c -10e-4,-0.0769 -0.004,-0.15361 -0.006,-0.23047 a 37.75,37.75 0 0 0 -7.12891,-0.67969 z" /></g></g><path
       id="path59-9"
       style="fill:#3c0724;fill-opacity:1;stroke-width:6.65278;stroke-linecap:round"
       d="m 148.94336,169.91016 c -0.006,0.0171 -0.0118,0.0355 -0.0176,0.0527 0.0382,0.0375 0.0586,0.0566 0.0586,0.0566 -0.0135,-0.036 -0.0276,-0.0735 -0.041,-0.10937 z m -3.97461,23.13086 c -0.28254,1.41507 0.12373,3.06919 -0.11133,4.32226 1.65979,2.4601 2.36889,3.81942 3.27344,4.45508 0,0 -1.34621,-3.79327 -3.16211,-8.77734 z" /><path
       id="path63"
       style="opacity:1;fill:#2d0217;fill-opacity:0.643434;stroke:none;stroke-width:5.5;stroke-linecap:round"
       d="m 153.27344,165.96484 c -0.45526,0.0291 -0.87019,0.11321 -1.24805,0.2461 -0.25135,0.0884 -0.48673,0.19953 -0.70703,0.33008 h -0.002 c -0.22073,0.13092 -0.42507,0.28292 -0.61719,0.45312 -0.0964,0.0854 -0.18959,0.17479 -0.2793,0.26953 -0.17839,0.1884 -0.34431,0.39422 -0.49804,0.61719 v 0.002 c -1.07758,1.56377 -1.58129,3.93863 -1.95118,6.60352 v 0.002 c -0.2113,1.52269 -0.37937,3.14015 -0.58593,4.75391 -0.5801,4.53199 -1.46573,9.03841 -2.26368,13.03711 0.78714,1.62852 1.60075,3.25185 2.43555,4.87304 4.29356,11.03115 12.9474,16.34129 21.87861,23.09095 1.9212,-3.4963 3.5385,-7.02602 3.89678,-10.66907 -0.0105,-1.13629 -0.0849,-2.23173 -0.20703,-3.24414 -0.39408,-1.48715 -1.21309,-2.77267 -2.25977,-3.85742 -0.24648,-0.25539 -0.50601,-0.49915 -0.77539,-0.73243 -0.53875,-0.46653 -1.11689,-0.8891 -1.71679,-1.26757 0.16812,-0.35867 0.33425,-0.72637 0.49804,-1.10157 -0.25416,-0.1837 -0.51324,-0.35877 -0.77734,-0.52539 2.09447,-4.4683 3.93168,-10.28413 3.55273,-15.82031 v -0.002 c -0.008,-0.11327 -0.0372,-0.22291 -0.0469,-0.33594 -0.0256,-0.30029 -0.0574,-0.60002 -0.0957,-0.89844 -0.18754,-0.85741 -0.43992,-1.7002 -0.76953,-2.52148 -0.19342,-0.48191 -0.41174,-0.95726 -0.65235,-1.42383 l -0.002,-0.002 c -0.723,-1.40149 -1.64749,-2.72842 -2.69922,-3.95313 v -0.002 c -0.34666,-0.40362 -0.74143,-0.75841 -1.11328,-1.13867 -0.38063,-0.38918 -0.73914,-0.80154 -1.14063,-1.16407 -0.35326,-0.31903 -0.7323,-0.58407 -1.09765,-0.88086 -1.27628,-1.03677 -2.59468,-1.97704 -3.91407,-2.70117 -0.84774,-0.46527 -1.68949,-0.85935 -2.5,-1.17383 l -0.002,-0.002 c -1.21682,-0.47191 -2.36557,-0.76368 -3.37695,-0.84765 -0.33713,-0.028 -0.65939,-0.0331 -0.96289,-0.0137 z" /><g
       id="g112"><g
         id="g111"><g
           id="g50"><g
             id="g39"
             style="fill:#a03b83;fill-opacity:1"><path
               style="fill:#6d1c51;fill-opacity:1;stroke-width:5.5;stroke-linecap:round"
               d="m 256.75402,192.90132 c 2.56836,11.73018 -0.20105,23.65048 -3.04798,35.07765 -2.65746,-5.94508 -9.1206,-15.84756 -11.46872,-18.52041 -2.42809,-2.76387 -5.47601,-5.14022 -8.65319,-11.10713 -3.17717,-5.96692 -6.48339,-15.52397 -3.38365,-23.24731 3.09974,-7.72334 12.60514,-13.61256 17.46125,-13.30253 4.85612,0.31003 5.06276,6.81916 5.88934,13.27682 0.82659,6.45766 2.27306,12.86347 3.20295,17.82291 z"
               id="path38" /><path
               style="fill:#6d1c51;fill-opacity:1;stroke-width:5.5;stroke-linecap:round"
               d="m 242.65063,207.98626 c -3.37265,9.01039 -2.51674,14.75757 -1.96311,21.07759 0,0 -5.12587,-5.69231 -8.49822,-11.72705 -2.45391,-4.39122 -5.19188,-10.12545 -4.54608,-14.36166 0.6458,-4.23622 4.67526,-6.97418 8.18822,-8.2657 3.51296,-1.29152 6.50923,-1.13654 7.5166,1.42072 1.00738,2.55726 0.0258,7.51659 -0.69741,11.8561 z"
               id="path39" /></g><path
             id="path7"
             style="mix-blend-mode:multiply;fill:url(#linearGradient50);fill-opacity:1;stroke-width:5.5;stroke-linecap:round"
             d="m 247.66211,161.80078 c -4.85611,-0.31003 -14.3612,5.5794 -17.46094,13.30274 -2.7665,6.89303 -0.43163,15.24665 2.36133,21.20507 -2.39963,1.51388 -4.47237,3.73021 -4.91992,6.66602 -0.6458,4.23621 2.09296,9.97011 4.54687,14.36133 3.37235,6.03474 8.49805,11.72851 8.49805,11.72851 -0.5248,-5.99087 -1.32044,-11.46847 1.4707,-19.69726 0.0267,0.0301 0.0535,0.0616 0.0801,0.0918 2.34812,2.67285 8.80934,12.57446 11.4668,18.51954 2.84693,-11.42717 5.61719,-23.34795 3.04883,-35.07813 -0.92989,-4.95944 -2.37654,-11.3646 -3.20313,-17.82227 -0.82658,-6.45765 -1.03255,-12.96731 -5.88867,-13.27734 z" /></g><path
           id="path103"
           style="mix-blend-mode:overlay;fill:url(#radialGradient108);fill-opacity:1;stroke-width:5.5;stroke-linecap:round"
           d="m 250.62695,200.8125 a 37.75,37.75 0 0 0 -22.47461,7.41992 c 0.86129,3.09724 2.50508,6.36196 4.03711,9.10352 3.37235,6.03474 8.49805,11.72851 8.49805,11.72851 -0.13119,-1.49757 -0.28,-2.96478 -0.38477,-4.44922 -0.10485,-1.48443 -0.16514,-2.98729 -0.12304,-4.56054 0.0844,-3.14658 0.58324,-6.57165 1.97851,-10.68555 0.0264,0.0298 0.0538,0.06 0.0801,0.0898 1.17396,1.33632 3.3759,4.47876 5.61719,8.03125 v 0.002 c 2.24098,3.5521 4.52086,7.51217 5.84961,10.48437 2.13504,-8.5698 4.22781,-17.41568 4.05664,-26.25195 v -0.002 c -10e-4,-0.0769 -0.004,-0.15361 -0.006,-0.23047 a 37.75,37.75 0 0 0 -7.12891,-0.67969 z" /></g><path
         id="path55"
         style="mix-blend-mode:multiply;fill:#6d1c51;fill-opacity:1;stroke-width:5.5;stroke-linecap:round"
         d="m 247.66211,161.80078 c -0.60701,-0.0387 -1.28687,0.0196 -2.01758,0.16602 -0.4588,0.0919 -0.94379,0.23113 -1.4375,0.39062 -1.07848,0.34854 -2.22293,0.84175 -3.38672,1.48047 -2.54562,1.39712 -5.1613,3.43469 -7.26562,5.88477 l -0.002,0.002 c -1.4029,1.63336 -2.57662,3.44807 -3.35156,5.37891 -0.1729,0.43081 -0.32675,0.86731 -0.46094,1.30859 -0.36942,1.21496 -0.57549,2.47073 -0.68359,3.73828 -0.01,0.11303 -0.0391,0.22266 -0.0469,0.33594 v 0.002 c -0.37896,5.53617 1.45825,11.35202 3.55273,15.82031 -0.59947,0.3782 -1.18033,0.80145 -1.71875,1.26758 -0.26902,0.23296 -0.5292,0.4774 -0.77539,0.73242 -0.24649,0.25539 -0.47875,0.52126 -0.69727,0.79883 v 0.002 c -0.87356,1.11 -1.50482,2.39788 -1.72851,3.86523 -0.1602,1.05086 -0.11245,2.19293 0.0879,3.38477 v 0.002 c 0.60762,3.61218 2.61412,7.67326 4.45898,10.97461 0.65107,1.16506 1.36735,2.31684 2.09961,3.41797 2.29118,-2.08748 4.48593,-4.27117 6.55469,-6.5586 0.30514,-1.50816 0.73154,-3.10748 1.31445,-4.82617 0.0264,0.0298 0.0538,0.06 0.0801,0.0898 0.34739,0.39544 0.78531,0.94944 1.28711,1.625 2.64694,-3.22771 5.03833,-6.64794 7.10156,-10.27148 1.41397,-2.57615 1.81184,-3.67139 4.88867,-10.15625 0.18044,-0.38029 0.3705,-0.7778 0.56836,-1.19336 -0.861,-4.31881 -1.88694,-9.33592 -2.5332,-14.38477 -0.56827,-4.43963 -0.84277,-8.904 -2.53711,-11.36132 -0.30806,-0.44679 -0.66397,-0.82702 -1.07617,-1.12891 -0.30915,-0.22642 -0.64948,-0.40812 -1.02734,-0.54101 -0.25191,-0.0886 -0.52098,-0.15601 -0.80664,-0.19922 -0.14284,-0.0216 -0.28966,-0.0372 -0.44141,-0.0469 z" /></g><path
       id="path67"
       style="opacity:1;fill:#260214;fill-opacity:1;stroke-width:5.5;stroke-linecap:round"
       d="m 255.19531,184.9707 c -0.98043,1.94278 -1.82821,3.68694 -2.44531,5.22461 -1.29274,3.28265 -3.0255,8.59726 2.50391,7.15625 0.73673,-0.21258 1.45124,-0.44123 2.14648,-0.6875 -0.15881,-1.25619 -0.37221,-2.51098 -0.64648,-3.76367 -0.44338,-2.36468 -1.00349,-5.05868 -1.5586,-7.92969 z" /><path
       id="path14-1-6-5"
       style="fill:#bc4a9b;fill-opacity:1;stroke-width:0.689602;stroke-linecap:round;stroke-linejoin:round"
       d="m 271.60878,53.649263 c 1.16343,5.964017 1.70921,17.916751 -9.80333,25.72774 l -4.87805,3.310518 3.091,0.424233 c 42.90466,5.888571 58.28553,43.707836 44.85791,67.662156 -0.5369,-10.21252 -5.08069,-16.01299 -14.30466,-22.0277 -5.44609,-3.14741 -5.59185,-3.05319 -2.06994,1.31786 7.62867,9.46816 7.24251,20.17129 6.01407,29.7601 -2.09514,16.35767 -12.90504,22.02163 -26.05352,23.58168 8.05769,-7.43335 14.4124,-28.69178 13.5633,-47.13578 -0.84911,-18.44399 -8.90203,-34.07355 -29.65962,-30.24915 -0.80319,-6.425684 -6.15591,-5.65702 -5.28083,-12.034884 2.7571,-20.094253 -17.14469,-14.548439 -0.16872,-27.327887 6.90252,0.550173 11.50979,-0.557455 16.68224,-3.817715 4.71332,-3.164382 6.41385,-6.3982 6.96701,-8.828462 0.34682,-0.122915 0.69454,-0.243824 1.04314,-0.362709 z" /><path
       style="fill:#f5dcb1;fill-opacity:1;stroke-width:5.5;stroke-linecap:round"
       d="m 229.65176,220.53956 c -0.89907,2.42992 -1.04487,5.10283 -1.11776,8.40756 -0.0729,3.30473 -0.0729,7.24112 0.0243,9.71965 0.0972,2.47853 0.29159,3.49908 0.60748,4.95705 0.3159,1.45797 0.75327,3.35327 1.89535,6.46361 1.14208,3.11034 2.98878,7.43551 2.06538,11.97951 -0.92341,4.544 -4.61681,9.30655 -11.56649,12.85425 -6.94967,3.54771 -17.15513,5.88039 -26.92351,3.59619 -9.76837,-2.28419 -19.09907,-9.18502 -23.86172,-14.09349 -4.76265,-4.90847 -4.95704,-7.82432 -4.20374,-10.74025 0.75329,-2.91593 2.4542,-5.83178 3.40187,-10.1085 0.94767,-4.27671 1.14206,-9.91401 1.21495,-15.16269 0.0729,-5.24867 0.0243,-10.10842 1.19069,-13.29163 1.16639,-3.18321 3.54766,-4.68973 8.89357,-6.34209 5.34591,-1.65237 13.65607,-3.45047 21.72349,-3.49905 8.06741,-0.0486 15.89159,1.65233 20.99445,3.35329 5.10286,1.70096 7.48413,3.40187 7.8486,5.34582 0.36447,1.94396 -1.28784,4.13085 -2.18691,6.56077 z"
       id="path4" /><path
       id="path47"
       style="mix-blend-mode:multiply;fill:#f5dcb1;fill-opacity:0.629876;stroke:none;stroke-width:5.7372;stroke-linecap:round"
       d="m 202.99609,205.2793 c -8.06741,0.0486 -16.3787,1.84763 -21.72461,3.5 -5.34591,1.65236 -7.72619,3.15858 -8.89257,6.34179 -0.7954,2.17074 -0.94854,2.79694 -1.03775,6.11863 9.01781,8.53353 21.39063,17.77241 25.81118,19.14895 2.56168,0.7977 3.33335,1.10951 5.69922,0.39258 2.36587,-0.71692 6.23803,-2.22156 11.22071,-5.01758 4.96602,-2.9818 9.88795,-6.25719 14.58007,-9.85547 0.12978,-1.97977 0.39349,-3.72991 1,-5.36914 0.34125,-0.92228 0.79046,-1.80984 1.19727,-2.66211 0.16914,-1.09267 0.41658,-2.12243 0.7832,-3.11328 0.0741,-0.20038 0.15186,-0.39849 0.23438,-0.5957 -0.008,-0.0634 -0.0175,-0.1266 -0.0293,-0.18945 -0.36447,-1.94396 -2.7448,-3.64475 -7.84766,-5.34571 -5.10286,-1.70096 -12.92672,-3.40209 -20.99414,-3.35351 z" /><path
       style="fill:#f5dcb1;fill-opacity:1;stroke:none;stroke-width:5.5;stroke-linecap:round"
       d="m 250.62658,197.50348 c -8.63426,15.16388 -23.018,26.75991 -37.80875,35.64087 -4.77667,2.68042 -8.48793,4.12369 -10.75598,4.81097 -2.26805,0.68729 -3.09278,0.61856 -5.46395,-0.37802 -6.18396,-2.59906 -31.51472,-19.8918 -39.8969,-28.67699 -3.57391,-3.74575 -6.11681,-7.6632 -8.86598,-13.16155 -9.54549,-18.53763 -16.21726,-37.48798 -14.43293,-58.59114 1.16842,-10.54996 4.19241,-24.36411 11.34029,-34.22671 15.05386,-20.771236 74.80257,-40.088683 101.16834,-25.46378 22.051,12.231518 26.25914,41.64956 26.52913,60.54979 0.13744,9.62204 -1.09965,14.36421 -4.59601,22.67301 -3.49637,8.30879 -9.25164,20.18338 -12.32846,26.66823 -3.07683,6.48486 -3.47483,7.57917 -4.8888,10.15532 z"
       id="path1" /><path
       id="path124"
       style="mix-blend-mode:multiply;fill:url(#radialGradient128);stroke-width:6.94727;stroke-linecap:round"
       d="m 221.09766,72.345703 c -28.63304,0.236803 -65.06508,14.997745 -76.35547,30.576177 -7.14788,9.8626 -10.17143,23.6766 -11.33985,34.22656 -1.78433,21.10316 4.88811,40.05221 14.4336,58.58984 2.74917,5.49835 5.29132,9.41636 8.86523,13.16211 4.92488,5.16167 15.70045,13.26021 25.00586,19.58984 a 100.12616,100.12616 0 0 0 8.73828,0.38282 100.12616,100.12616 0 0 0 40.63281,-8.61524 c 7.73786,-6.51596 14.59093,-14.04661 19.54883,-22.7539 1.41397,-2.57615 1.81184,-3.67139 4.88867,-10.15625 3.07683,-6.48485 8.83176,-18.35918 12.32813,-26.66797 3.49636,-8.3088 4.73314,-13.04984 4.5957,-22.67188 -0.26999,-18.90023 -4.47829,-48.319261 -26.52929,-60.550779 -6.59145,-3.656226 -15.26816,-5.190262 -24.8125,-5.111328 z" /><path
       style="opacity:1;fill:#f5dcb1;fill-opacity:1;stroke-width:5.5;stroke-linecap:round"
       d="m 128.33164,149.25967 c -0.14967,-0.80529 -0.44903,-2.41588 -0.72353,-3.32913 -0.2745,-0.91324 -0.52414,-1.12914 -0.90618,-1.25555 -0.38204,-0.1264 -0.89645,-0.1633 -1.38908,-0.0962 -0.49263,0.0671 -0.96344,0.23819 -1.84194,1.17603 -0.87851,0.93785 -2.16465,2.64239 -3.3122,5.01305 -1.14755,2.37066 -2.15644,5.40731 -2.6313,8.37368 -0.47485,2.96638 -0.41564,5.86233 -0.0716,8.62336 0.34403,2.76104 0.97287,5.38702 2.17561,7.94996 1.20273,2.56294 2.97929,5.0627 4.90671,7.43456 1.92741,2.37187 3.97165,4.65181 6.31634,6.81988 14.02515,12.96871 23.09158,6.09445 14.94084,0.37552 -3.25792,-2.28591 -4.49083,-9.40998 -7.07852,-15.49122 -2.5877,-6.08124 -5.25653,-11.94656 -6.78857,-15.43401 -1.53205,-3.48744 -1.92721,-4.59683 -2.31223,-5.75961 -0.38501,-1.16277 -0.75983,-2.37886 -0.94725,-2.98692 -0.18742,-0.60805 -0.18741,-0.6081 -0.33709,-1.4134 z"
       id="path3" /><path
       id="path79"
       style="mix-blend-mode:multiply;fill:url(#radialGradient83);stroke-width:5.5;stroke-linecap:round"
       d="m 141.79883,156.73047 a 69.650017,69.650017 0 0 0 -7.64063,0.41992 c 2.11249,13.406 7.2424,26.09027 13.67774,38.58789 2.74917,5.49835 5.29132,9.41636 8.86523,13.16211 8.38218,8.78519 33.71253,26.07867 39.89649,28.67773 2.37117,0.99659 3.19679,1.06425 5.46484,0.37696 1.97444,-0.59831 5.04242,-1.76848 8.95508,-3.83008 a 69.650017,69.650017 0 0 0 0.43164,-7.74609 69.650017,69.650017 0 0 0 -69.65039,-69.64844 z" /><circle
       style="mix-blend-mode:overlay;fill:url(#radialGradient124);stroke-width:6.11175;stroke-linecap:round"
       id="path119"
       cx="200.99562"
       cy="143.8869"
       r="71.392776" /><path
       id="path53"
       style="fill:#eec98e;fill-opacity:1;stroke-width:6.65278;stroke-linecap:round"
       d="m 223.09766,65.827472 c -28.63304,0.236803 -65.06508,14.997745 -76.35547,30.576177 -7.14788,9.862601 -10.17143,23.676601 -11.33985,34.226561 -1.10521,13.07128 1.03317,25.31552 5.08985,37.14844 -1.25633,-6.07354 -1.93765,-12.21971 -1.63086,-18.32227 5.39629,12.51346 13.11719,19.89258 13.11719,19.89258 -9.79864,-26.04771 -0.18099,-37.20881 7.39257,-48.6211 -0.39975,4.7499 -0.10588,9.6997 0.96289,14.7168 0,0 6.49478,-13.8427 7.70313,-16.23242 1.52953,-3.02507 0.61091,1.79697 -0.19531,5.92187 -0.80623,4.12491 -1.50206,7.55132 -2.25782,10.51563 -0.74834,2.93534 -2.36914,7.89062 -2.36914,7.89062 l 0.0176,0.0312 c 0,0 1.42254,-1.54518 3.89258,-4.71093 2.49425,-3.1969 6.76577,-8.81109 9.60938,-12.78125 2.84373,-3.97017 4.26162,-6.29669 5.12304,-8.16407 0.86134,-1.86735 1.16556,-3.27367 1.31836,-2.43945 11.69378,17.12986 22.22929,19.38486 36.71875,29.27344 -1.35458,-2.1264 -2.70949,-4.25312 -4.65039,-7.07031 -6.93974,-10.02146 -11.81785,-19.15775 -10.24219,-32.25977 0,0 10.11258,16.06451 24.63086,19.82227 -1.89364,-3.0799 -3.78959,-6.1593 -4.3164,-7.32813 -0.52682,-1.16884 0.31499,-0.42649 2.00195,0.80078 5.35876,3.8353 11.21961,7.29314 17.01953,10.86133 -6.27763,-11.27512 -10.63047,-22.0093 -15.19531,-30.593751 2.45356,0.91423 4.58887,2.133831 6.29883,3.714841 11.90429,7.78832 21.62865,15.64562 25.63281,28.5625 3.35984,15.08456 1.69228,32.28338 -0.57227,43.30274 3.03816,-6.37995 6.79106,-14.33881 9.3418,-20.40039 3.49636,-8.3088 4.73314,-13.04984 4.5957,-22.67188 -0.26999,-18.90023 -4.47829,-48.319262 -26.52929,-60.55078 -6.59145,-3.656226 -15.26816,-5.190262 -24.8125,-5.111328 z" /><path
       id="path6-0"
       style="fill:#bc4a9b;fill-opacity:1;stroke-width:6.65278;stroke-linecap:round"
       d="m 193.89976,78.139504 c -25.32711,3.389231 -41.19213,27.929746 -35.56594,54.340466 0,0 6.49562,-13.84303 7.70397,-16.23275 1.52953,-3.02507 0.60926,1.79864 -0.19696,5.92354 -0.80623,4.12491 -1.50049,7.55076 -2.25625,10.51507 -0.74834,2.93534 -2.3689,7.89002 -2.3689,7.89002 l 0.0164,0.0317 c 0,0 1.42365,-1.54491 3.89369,-4.71066 2.49425,-3.1969 6.76531,-8.81107 9.60891,-12.78123 2.84375,-3.97017 4.26144,-6.29637 5.12286,-8.16375 0.86134,-1.86735 1.16511,-3.27421 1.31791,-2.43999 11.69378,17.12986 22.22866,19.3845 36.71812,29.27308 -1.35458,-2.1264 -2.70786,-4.25292 -4.64876,-7.07011 -6.93974,-10.02146 -11.81899,-19.157 -10.24333,-32.25902 0,0 10.11222,16.06442 24.6305,19.82218 -1.89364,-3.0799 -3.78929,-6.15954 -4.3161,-7.32837 -0.52682,-1.16884 0.31482,-0.42641 2.00178,0.80086 5.35876,3.8353 11.22008,7.29216 17.02,10.86035 -16.50773,-29.6492 -19.71068,-55.558389 -48.43733,-48.471528 z" /><path
       id="path59"
       style="fill:#eec98e;fill-opacity:1;stroke-width:6.65278;stroke-linecap:round"
       d="m 125.68359,144.54688 c -0.12347,0.004 -0.24793,0.0145 -0.37109,0.0312 -0.49263,0.0671 -0.9633,0.23795 -1.8418,1.17579 -0.87851,0.93785 -2.16495,2.64301 -3.3125,5.01367 -0.725,1.49775 -1.39359,3.26172 -1.9082,5.10547 1.45791,2.56725 3.17355,5.07911 5.17188,7.46093 0.0164,-5.1764 0.11275,-10.27062 0.65624,-15.21875 3.80515,19.84257 14.8261,41.14997 20.7793,49.24805 0.59827,0.0103 1.13814,-0.0453 1.61328,-0.15625 -0.76877,-2.13998 -1.85408,-5.14187 -3.05468,-8.41015 -1.43834,-4.0326 -2.84152,-8.1718 -4.06641,-12.375 -0.20239,-0.52817 -0.41294,-1.05165 -0.63281,-1.56836 -2.5877,-6.08124 -5.25703,-11.94615 -6.78907,-15.4336 -1.53205,-3.48744 -1.92748,-4.59698 -2.3125,-5.75976 -0.38501,-1.16277 -0.75984,-2.37827 -0.94726,-2.98633 -0.18742,-0.60805 -0.18626,-0.60876 -0.33594,-1.41406 -0.14967,-0.80529 -0.45011,-2.41683 -0.72461,-3.33008 -0.2745,-0.91324 -0.52421,-1.1275 -0.90625,-1.25391 -0.28653,-0.0948 -0.64716,-0.14091 -1.01758,-0.1289 z" /><path
       id="path6-0-2"
       style="fill:#bc4a9b;fill-opacity:1;stroke-width:6.65278;stroke-linecap:round"
       d="m 116.72039,117.18759 c -5.97482,3.25213 -6.07093,26.86967 8.19373,43.87182 0.0467,-14.71317 0.7436,-28.77576 10.49757,-40.64398 -10.99878,-9.64719 -7.85255,-11.15258 -18.6913,-3.22784 z m 18.74298,3.28168 c -0.0607,1.47675 -0.49483,16.65353 6.65196,27.57979 0.62764,-2.10037 1.00829,-4.26676 1.13425,-6.45528 0.44905,-7.81698 -2.37134,-15.46889 -7.78621,-21.12451 z" /><path
       style="fill:#bc4a9b;fill-opacity:1;stroke-width:3.03263;stroke-linecap:round"
       d="m 164.3522,101.27415 c -2.34023,20.96547 -28.48093,27.60757 -14.37324,65.11002 0,0 -24.78889,-23.68659 -16.57609,-58.15768 2.78795,-11.70152 4.3109,-20.341321 18.34775,-27.719678 9.6642,-5.079911 16.57438,-6.103116 19.21925,-3.735766 2.64486,2.367351 0.7008,7.518811 -0.80442,11.062129 -1.50519,3.543317 -4.85257,4.834456 -5.81325,13.440965 z"
       id="path35" /><path
       id="path14-1"
       style="fill:#bc4a9b;fill-opacity:1;stroke-width:0.619563;stroke-linecap:round;stroke-linejoin:round"
       d="m 222.01422,-9.15625 v 0.00195 h -0.002 v 0.00195 h -0.002 v 0.00195 l -0.002,0.00195 v 0.00195 c -2.2e-4,9.136e-4 -0.002,0.00485 -0.002,0.00586 -6.9e-4,0.031794 0.0401,0.102704 0.11735,0.2070312 -0.0663,-0.1490962 -0.10255,-0.2172143 -0.10541,-0.2226562 h -0.002 z m 0.10939,0.2226562 c 0.42125,0.9480378 2.07024,5.1490901 4.25243,17.0429688 2.95291,16.093521 -4.04362,29.386355 -5.72625,29.607422 -27.90984,-32.030322 -50.02974,-7.686943 -82.02724,-1.353516 -7.49695,0.976516 -11.93751,0.02358 -17.05347,-3.660156 -7.85041,-6.005777 -6.07252,-12.044202 -6.1499,-12.326172 -1.8e-4,-4.7e-4 -0.002,-0.0026 -0.002,-0.0039 v -0.002 l -0.002,-0.002 h -0.002 c 0,0 -5.71949,17.556223 7.89822,28.080078 l 4.18877,3.238281 c -12.91397,1.696653 -41.668103,16.599676 -39.849073,63.779298 1.075427,-10.2899 5.948865,-18.632487 15.573663,-22.626954 0,0 -0.46363,1.218605 -1.93129,3.261718 -12.634653,17.588516 -17.866018,47.319986 14.11326,52.267976 -12.56946,-13.20162 -1.83643,-23.41458 10.25961,-29.92423 12.09601,-6.50965 29.17179,-10.52196 36.5255,-13.72851 4.40116,-3.72116 55.61605,-19.438429 71.249,-4.984376 14.54132,9.513576 25.83135,19.129626 27.41401,37.945306 l 14.81786,8.92969 c 0.85739,0.97081 2.10111,2.72189 3.17639,5.13477 1.07529,2.41288 1.98346,5.48636 2.35096,8.46875 0.15009,1.21802 0.20975,2.42149 0.19691,3.60547 3.54916,-30.98047 8.91133,-61.14816 6.5119,-68.804689 8.38838,-11.299722 28.37928,21.261889 28.37928,21.261889 0,0 -1.40849,-9.41636 -4.94039,-19.658503 -3.5319,-10.242138 -9.1872,-21.310052 -17.68081,-24.613152 0,0 4.3806,-1.603363 11.13625,1.208985 6.61578,2.85163 12.01612,7.105125 17.09523,12.234374 -9.84031,-16.863724 -21.23525,-42.0145 -54.14184,-39.677734 7.70468,-6.79524 6.80102,-19.095558 5.13553,-31.042969 -1.67024,9.738268 -17.01713,22.033492 -28.68895,25.31836 l -2.02875,0.570312 C 254.45835,23.61314 224.24875,-6.0638857 222.12361,-8.9335938 Z" /><path
       style="fill:#bc4a9b;fill-opacity:1;stroke-width:5.5;stroke-linecap:round"
       d="m 144.90848,186.52125 c 2.32476,6.32849 4.21677,11.66235 4.21677,11.66235 -6.47957,-4.55342 -37.49086,-62.0772 -19.17256,-84.32328 3.44158,-4.17952 11.28785,6.61259 11.93359,8.39494 0.64574,1.78234 -1.26567,6.63836 -2.63468,11.0554 -5.77768,17.62001 -0.36155,36.33703 5.65688,53.21059 z"
       id="path5" /><path
       id="path114"
       style="fill:url(#linearGradient115);fill-opacity:1;stroke-width:0.619563;stroke-linecap:round;stroke-linejoin:round"
       d="m 222.01367,-9.15625 v 0.00195 h -0.002 v 0.00195 h -0.002 v 0.00195 l -0.002,0.00195 v 0.00195 0.00195 l -0.002,0.00195 v 0.00195 c -6.9e-4,0.031794 0.0399,0.1027041 0.11719,0.2070312 -0.0663,-0.1490962 -0.10261,-0.2172143 -0.10547,-0.2226562 h -0.002 z m 0.10938,0.2226562 c 0.42125,0.9480378 2.07171,5.1490901 4.2539,17.0429688 2.95291,16.093521 -4.04393,29.386355 -5.72656,29.607422 -27.90984,-32.0303221 -50.02984,-7.686943 -82.02734,-1.353516 -7.49695,0.976516 -11.93873,0.02358 -17.05469,-3.660156 -7.85041,-6.005777 -6.07106,-12.044202 -6.14844,-12.326172 h -0.002 v -0.002 -0.002 -0.002 l -0.002,-0.002 h -0.002 c 0,0 -5.72122,17.556223 7.89649,28.080078 L 127.5,51.6875 c -12.91397,1.696653 -41.668639,16.599675 -39.849609,63.7793 1.075427,-10.2899 5.94942,-18.632489 15.574219,-22.626956 0,0 -0.46398,1.218605 -1.93164,3.261718 -12.634654,17.588518 -17.865998,47.319588 14.11328,52.267578 -7.37637,-7.74735 -6.72622,-14.46538 -2.48633,-20.00976 -0.14319,9.19036 3.18934,22.20471 11.99414,32.69921 0.0164,-5.1764 0.11276,-10.27062 0.65625,-15.21875 4.53341,23.64024 19.30943,49.36046 23.55469,52.34375 0,0 -1.89204,-5.33362 -4.2168,-11.66211 -4.53534,-12.71551 -8.72811,-26.4784 -8.04687,-40.02929 5.39629,12.51346 13.11719,19.89258 13.11719,19.89258 -9.79864,-26.04769 -0.18098,-37.20882 7.39257,-48.6211 -0.39977,4.74976 -0.10584,9.69992 0.96289,14.7168 0,0 6.49478,-13.8427 7.70313,-16.23242 1.52953,-3.02507 0.61091,1.79697 -0.19531,5.92187 -0.80623,4.12491 -1.50206,7.55132 -2.25782,10.51563 -0.74834,2.93534 -2.36914,7.89062 -2.36914,7.89062 l 0.0176,0.0312 c 0,0 1.42254,-1.54519 3.89258,-4.71094 2.49425,-3.1969 6.76578,-8.81109 9.60938,-12.78125 2.84374,-3.97017 4.26162,-6.29668 5.12304,-8.16406 0.86134,-1.86735 1.16556,-3.27367 1.31836,-2.43945 11.69378,17.12986 22.22929,19.38486 36.71875,29.27344 -1.35458,-2.1264 -2.70949,-4.25313 -4.65039,-7.07032 -6.93974,-10.02146 -11.81785,-19.15774 -10.24219,-32.25976 0,0 10.11258,16.0645 24.63086,19.82226 -1.89364,-3.0799 -3.78959,-6.15929 -4.3164,-7.32812 -0.52682,-1.16884 0.31499,-0.42649 2.00195,0.80078 5.35876,3.8353 11.21961,7.29314 17.01953,10.86133 -6.27763,-11.27512 -10.63047,-22.0093 -15.19531,-30.593752 2.45356,0.914232 4.58887,2.133835 6.29883,3.714844 14.54132,9.513578 25.8314,19.129628 27.41406,37.945308 l 14.81641,8.92969 c 0.85739,0.97081 2.10245,2.72189 3.17773,5.13477 1.07529,2.41288 1.98211,5.48636 2.34961,8.46875 0.15009,1.21802 0.2101,2.42149 0.19726,3.60547 3.54916,-30.98047 8.91115,-61.14816 6.51172,-68.804691 8.38838,-11.299722 28.38086,21.261721 28.38086,21.261721 0,0 -1.4095,-9.41606 -4.9414,-19.658206 -3.5319,-10.242138 -9.18803,-21.310181 -17.68164,-24.613281 0,0 4.38106,-1.603364 11.13671,1.208985 6.61578,2.85163 12.0166,7.105125 17.09571,12.234374 -9.84031,-16.863724 -21.23599,-42.0145 -54.14258,-39.677734 7.70468,-6.79524 6.80221,-19.095558 5.13672,-31.042969 -1.67024,9.738268 -17.01763,22.033492 -28.68946,25.31836 l -2.02929,0.570312 C 254.45776,23.613228 224.24819,-6.0638857 222.12305,-8.9335938 Z" /><path
       style="opacity:1;fill:#f5dcb1;fill-opacity:1;stroke-width:5.5;stroke-linecap:round"
       d="m 271.21031,149.7677 c 0.46423,-2.05593 0.74629,-3.28709 1.17074,-3.95892 0.32541,-0.51505 1.86628,-1.61067 3.82068,0.64285 0.84194,0.97081 2.06184,2.72336 3.11774,5.13624 1.05591,2.41288 1.94774,5.48594 2.30862,8.46833 1.19718,8.98489 -2.13908,17.04314 -7.92517,23.72172 -2.01685,2.2963 -4.17943,4.45888 -6.57293,6.57293 -3.5596,3.04277 -7.28864,4.97891 -11.87634,6.30272 -5.52941,1.44101 -3.79552,-3.87353 -2.50278,-7.15618 1.48228,-3.69354 4.28283,-8.57465 7.10156,-14.55231 2.81874,-5.97766 5.71028,-11.73645 7.37478,-15.16265 1.66451,-3.4262 2.10188,-4.51964 2.53115,-5.66682 0.42927,-1.14717 0.8504,-2.34801 1.06097,-2.94844 0.18218,-0.45174 0.28417,-0.92645 0.39098,-1.39947 z"
       id="path2" /><path
       id="path61"
       style="fill:#eec98e;fill-opacity:1;stroke-width:0.689602;stroke-linecap:round;stroke-linejoin:round"
       d="m 273.94141,145.08789 c -0.80948,-0.0423 -1.37751,0.43099 -1.56055,0.7207 -0.27029,0.42782 -0.22781,0.15742 -0.46642,1.10741 6.07151,0.56507 11.32751,15.7694 5.18322,28.71486 -2.59417,4.43299 -5.86906,7.66559 -8.56055,10.07617 1.41408,-0.16778 2.77688,-0.4101 4.08594,-0.72851 0.36463,-0.39652 0.72495,-0.79683 1.08007,-1.20118 5.32078,-6.14149 8.52278,-13.45958 8.08008,-21.58203 0.0105,-0.087 0.0207,-0.17472 0.0312,-0.26172 -0.0401,-0.62084 -0.10159,-1.24684 -0.18554,-1.87695 -0.36089,-2.98235 -1.2527,-6.0559 -2.3086,-8.46875 -0.0234,-0.0535 -0.0487,-0.10727 -0.0723,-0.16016 -3.8e-4,0.003 -0.002,0.005 -0.002,0.008 -1.03903,-2.32895 -2.22205,-4.03556 -3.04492,-4.98438 -0.85505,-0.98591 -1.63017,-1.33038 -2.25976,-1.36328 z" /><path
       id="path129"
       style="fill:#eec98e;fill-opacity:1;stroke-width:5.5;stroke-linecap:round"
       d="m 273.8418,145.08594 c -0.7569,-0.001 -1.28542,0.44485 -1.46094,0.72265 -0.42445,0.67183 -0.70569,1.90306 -1.16992,3.95899 -0.10681,0.47302 -0.2104,0.94865 -0.39258,1.40039 -0.21057,0.60043 -0.63128,1.80009 -1.06055,2.94726 -0.42927,1.14718 -0.86674,2.24177 -2.53125,5.66797 -1.6645,3.4262 -4.55626,9.18445 -7.375,15.16211 -0.17585,0.37293 -0.35,0.74111 -0.52539,1.10547 -3.11281,11.02344 -6.5204,14.62411 -7.89062,18.52539 0.17063,0.0431 0.17059,0.90871 0.27929,1.35742 0.049,0.0941 0.10418,0.18345 0.16797,0.26563 4.59608,-7.39531 19.53331,-31.0974 23.54102,-50.4961 -0.59095,-0.45617 -1.1279,-0.61657 -1.58203,-0.61718 z" /><path
       id="path37"
       style="fill:#bc4a9b;fill-opacity:1;stroke-width:0.689602;stroke-linecap:round;stroke-linejoin:round"
       d="m 281.8457,146.03906 c 5.88934,22.37905 -4.54398,33.6171 -11.30062,39.66856 13.14848,-1.56005 21.87556,-9.52578 23.9707,-25.88345 0.18919,-1.47677 -3.02559,-8.35407 -3.06528,-9.88391 -4.28723,-5.14297 -2.97957,-2.93334 -9.6048,-3.9012 z" /><path
       id="path5-6"
       style="fill:#bc4a9b;fill-opacity:1;stroke-width:5.5;stroke-linecap:round"
       d="m 267.03516,113.36523 c -2.82848,-0.15226 -5.49878,5.55575 -6.02344,7.00391 -0.49449,1.36487 -1.03348,5.62214 -0.64453,9.52539 l -1.29297,-1.59961 c 3.97999,17.86882 0.9048,38.70372 -1.85999,48.72011 -3.81404,13.81764 -6.0292,16.59807 -7.39392,21.84044 0,0 19.15438,-29.0456 23.57617,-52.81836 0.01,0.009 0.0181,0.0169 0.0274,0.0273 l -0.0254,-0.0312 c 2.28026,-12.26252 1.82908,-23.93202 -4.4043,-31.50195 -0.6453,-0.78366 -1.30626,-1.13088 -1.95898,-1.16602 z" /><path
       id="path68-7"
       style="fill:#f1b452;fill-opacity:1;stroke-width:1.0313"
       d="m 214.81226,207.61235 c -4.32055,2.76421 -9.35872,3.3842 -14.38922,3.63397 -5.99352,0.21924 -9.41698,-0.51422 -11.47229,-1.25012 -2.05532,-0.73587 -3.26348,-1.2647 -3.26348,-1.2647 3.74922,3.64566 10.17255,4.30966 16.05584,3.66253 5.88327,-0.64715 11.22651,-2.6054 12.81556,-4.20426 0.25648,-0.40392 0.2536,-0.57735 0.2536,-0.57735 z" /><path
       style="fill:#f1ac40;fill-opacity:1;stroke:none;stroke-width:4.57042;stroke-linecap:round;stroke-opacity:1"
       d="m 198.25568,184.20274 c -0.325,2.32396 -0.56151,4.67225 0.19101,6.93134 0.38375,1.04057 0.90747,2.02585 1.3192,3.42752 -0.18214,-0.25802 -0.36428,-0.51604 -0.66783,-0.97138 -0.30357,-0.45535 -0.72854,-1.10798 -1.22942,-2.04901 -0.50087,-0.94105 -1.07762,-2.17042 -1.19903,-3.87795 -0.19794,-2.78358 0.77688,-6.49419 0.70576,-9.81246 -0.0763,-3.55825 -3.05083,-8.57276 -4.07525,-9.78969 4.81027,3.51671 5.7626,10.59953 4.95556,16.14163 z"
       id="path65" /><path
       id="path88"
       style="opacity:1;mix-blend-mode:overlay;fill:url(#radialGradient89);stroke:none;stroke-width:4.25391;stroke-linecap:round;stroke-opacity:1"
       d="m 222.01367,-9.15625 v 0.00195 h -0.002 v 0.00195 h -0.002 v 0.00195 l -0.002,0.00195 v 0.00195 0.00195 l -0.002,0.00195 v 0.00195 c -6.9e-4,0.031794 0.0399,0.1027042 0.11719,0.2070312 -0.0663,-0.1490961 -0.10261,-0.2172143 -0.10547,-0.2226562 h -0.002 z m 0.10938,0.2226562 c 0.42125,0.9480379 2.07171,5.1490901 4.2539,17.0429688 2.95291,16.093521 -4.04393,29.386355 -5.72656,29.607422 -27.90984,-32.0303222 -50.02984,-7.686943 -82.02734,-1.353516 -7.49695,0.976516 -11.93873,0.02358 -17.05469,-3.660156 -7.85041,-6.005777 -6.07106,-12.044202 -6.14844,-12.326172 h -0.002 v -0.002 -0.002 -0.002 l -0.002,-0.002 h -0.002 c 0,0 -5.72122,17.556223 7.89649,28.080078 L 127.5,51.6875 c -4.83494,0.635221 -11.88874,3.127736 -18.72852,8.466797 a 140.00714,140.00714 0 0 0 93.71875,35.994141 140.00714,140.00714 0 0 0 98.22461,-40.238282 c -1.18479,-1.009371 -2.4251,-1.967565 -3.72851,-2.863281 a 65.026122,117.19369 82.685594 0 0 0.0234,-0.02344 c -0.10117,-0.06952 -0.21839,-0.122642 -0.32032,-0.191407 -1.33539,-0.900967 -2.7252,-1.745137 -4.19726,-2.503906 C 292.2614,50.20915 292.00777,50.115159 291.77344,50 c -1.26022,-0.619244 -2.57436,-1.178877 -3.94141,-1.679688 -0.51268,-0.187873 -1.04383,-0.353531 -1.57226,-0.523437 -1.20759,-0.388177 -2.46061,-0.723512 -3.75391,-1.011719 -0.54815,-0.122203 -1.08624,-0.254273 -1.65039,-0.357422 -3.95653,-0.723126 -8.28437,-1.002096 -13.09961,-0.660156 7.70468,-6.79524 6.80221,-19.095558 5.13672,-31.042969 -1.67024,9.738268 -17.01762,22.033492 -28.68946,25.31836 l -2.02929,0.570312 C 254.45776,23.613228 224.24819,-6.0638857 222.12305,-8.9335938 Z" /><path
       id="path134"
       style="display:inline;mix-blend-mode:multiply;fill:url(#linearGradient137);fill-opacity:1;stroke-width:0.689602;stroke-linecap:round;stroke-linejoin:round"
       d="m 222.01367,-9.15625 v 0.00195 h -0.002 v 0.00195 h -0.002 v 0.00195 l -0.002,0.00195 v 0.00195 0.00195 l -0.002,0.00195 v 0.00195 c -6.9e-4,0.031671 0.0405,0.1033642 0.11719,0.2070312 -0.0663,-0.149096 -0.10261,-0.2172143 -0.10547,-0.2226562 h -0.002 z m 0.10938,0.2226562 c 0.42133,0.9482717 2.0718,5.1495899 4.2539,17.0429688 2.92896,15.966948 -3.93467,29.178262 -5.68554,29.599609 -0.0138,0.0033 -0.0279,0.0061 -0.041,0.0078 -27.90948,-32.0289889 -50.03014,-7.686884 -82.02734,-1.353516 -7.49668,0.976419 -11.93883,0.02351 -17.05469,-3.660156 -7.84986,-6.005656 -6.07106,-12.044208 -6.14844,-12.326172 h -0.002 v -0.002 -0.002 -0.002 l -0.002,-0.002 h -0.002 c 0,0 -0.0678,0.209795 -0.17187,0.597656 -0.10412,0.387861 -0.24407,0.952682 -0.38672,1.664062 -1.6e-4,7.91e-4 1.6e-4,0.0012 0,0.002 -0.14255,0.711066 -0.28878,1.56728 -0.4043,2.53711 -0.57831,4.852666 -0.40871,12.543223 4.60938,19.050781 0.57341,0.74361 1.21183,1.471053 1.91797,2.177735 0.70642,0.707056 1.48049,1.392708 2.33203,2.050781 L 127.5,51.6875 c -5.65003,0.742511 -14.33324,4.013343 -22.16016,11.408203 -2.23626,2.112816 -4.40214,4.5613 -6.408199,7.384766 -7.021188,9.882129 -12.077059,24.345668 -11.28125,44.986331 0.134444,-1.28619 0.328981,-2.54303 0.583984,-3.76368 1.785036,-8.5446 6.568696,-15.368186 14.990235,-18.863276 -0.003,0.0081 -0.46888,1.225426 -1.93164,3.261718 v 0.002 c -3.15873,4.397638 -5.855754,9.554088 -7.623048,14.892578 -0.883537,2.6689 -1.535353,5.38262 -1.896484,8.07032 -1.805622,13.43846 3.647177,26.21046 23.632812,29.30273 -0.92197,-0.96838 -1.7186,-1.92149 -2.39844,-2.85742 -4.75851,-6.55146 -3.79763,-12.30123 -0.0879,-17.15234 -0.14305,9.19032 3.18951,22.20492 11.99414,32.69921 0.0164,-5.17571 0.11296,-10.26927 0.65625,-15.21679 4.53374,23.63981 19.3095,49.35852 23.55469,52.34179 0,0 -1.89204,-5.33362 -4.2168,-11.66211 -4.53525,-12.71534 -8.7281,-26.47862 -8.04687,-40.02929 1.34897,3.12802 2.84362,5.93544 4.32617,8.38672 v 0.002 c 2.96478,4.90173 5.88376,8.37968 7.5,10.1543 v 0.002 c 0.80151,0.87995 1.28409,1.33912 1.29102,1.3457 -1.22468,-3.25575 -2.14677,-6.27945 -2.80664,-9.09961 -0.32981,-1.40945 -0.59441,-2.76832 -0.79883,-4.08008 v -0.002 c -2.65801,-17.0597 4.84466,-26.16522 10.99804,-35.4375 -0.39974,4.74969 -0.10582,9.7 0.96289,14.7168 0.007,-0.0145 6.49541,-13.84395 7.70313,-16.23242 0.45405,-0.89798 0.69171,-1.10535 0.78125,-0.84375 2e-4,5.9e-4 -2e-4,0.001 0,0.002 0.21046,0.62351 -0.41019,3.86588 -0.97656,6.76367 -0.80622,4.12483 -1.50207,7.55136 -2.25782,10.51563 -0.74835,2.93535 -2.36914,7.89062 -2.36914,7.89062 l 0.0176,0.0312 c 0,0 1.42254,-1.54519 3.89258,-4.71094 2.49425,-3.1969 6.76576,-8.81109 9.60938,-12.78125 2.84373,-3.97017 4.26162,-6.29668 5.12304,-8.16406 0.69984,-1.51722 1.03102,-2.72956 1.21289,-2.68359 0.002,4e-4 0.004,0.001 0.006,0.002 0.002,6.6e-4 0.004,0.001 0.006,0.002 0.005,0.003 0.009,0.007 0.0137,0.0117 0.005,0.005 0.011,0.0105 0.0156,0.0176 0.0246,0.0377 0.0453,0.10666 0.0644,0.21094 1.56111,2.28682 3.09695,4.22877 4.62891,6.03906 0.71706,0.84734 1.4358,1.7262 2.15039,2.48633 0.8234,0.87588 1.64701,1.65195 2.4707,2.42773 1.52233,1.43391 3.05007,2.71265 4.5918,3.88672 2.01369,1.53318 4.04433,2.92881 6.13867,4.22656 4.5e-4,2.9e-4 0.001,-2.8e-4 0.002,0 5.12562,3.17578 10.57368,6.00125 16.73633,10.20704 -1.35453,-2.12632 -2.70957,-4.25324 -4.65039,-7.07032 -6.93971,-10.02141 -11.81779,-19.15783 -10.24219,-32.25976 0,0 0.63521,1.00661 1.8125,2.57422 0.36988,0.49256 1.11525,1.27353 1.58985,1.86328 1.03425,1.28523 1.9849,2.53198 3.47461,4.07031 l 0.002,0.002 c 1.08381,1.11909 2.2796,2.26643 3.57812,3.38868 0.81821,0.70718 1.74237,1.36429 2.63868,2.0371 0.53005,0.39796 1.00667,0.82684 1.5625,1.20508 l 0.002,0.002 h 0.002 c 1.4938,1.0163 3.07756,1.94978 4.74219,2.74804 0.21514,0.10318 0.44237,0.18276 0.66016,0.28125 0.6255,0.28287 1.24994,0.56819 1.89648,0.8086 0.87159,0.32408 1.76252,0.60694 2.66992,0.84179 -1.8936,-3.07983 -3.78961,-6.15932 -4.3164,-7.32812 -0.26341,-0.58442 -0.18555,-0.69094 0.16992,-0.49805 5.8e-4,3.2e-4 0.001,-3.1e-4 0.002,0 0.35561,0.19318 0.9872,0.68563 1.83008,1.29883 5.35875,3.83529 11.21962,7.29314 17.01953,10.86133 -6.27755,-11.27501 -10.63052,-22.00935 -15.19531,-30.593756 2.45353,0.91423 4.58888,2.133847 6.29883,3.714844 8.92821,5.841242 16.63103,11.721842 21.61328,19.746102 1.66075,2.67475 3.01849,5.58718 4.01953,8.8164 3.97999,17.86882 0.90541,38.70432 -1.85938,48.7207 -1.84649,6.68957 -3.31793,10.79253 -4.5,13.83985 -0.1659,0.42741 -0.32568,0.83457 -0.48046,1.22461 -0.37173,0.93787 -0.70971,1.7726 -1.02149,2.57812 -0.53947,1.3967 -1.00906,2.72404 -1.39258,4.19727 0,0 2.05137,-3.1116 4.9668,-8.13086 2.42319,-4.10498 5.60514,-9.85357 9.07812,-17.25195 a 67.059738,67.059738 0 0 1 0,-0.002 c 4.06363,-8.65653 7.85539,-18.42365 9.53125,-27.43359 0.008,0.007 0.0148,0.0125 0.0215,0.0195 l -0.0195,-0.0234 c 0.0445,-0.23936 0.0883,-0.47797 0.13086,-0.71679 0.0125,-0.0702 0.0248,-0.14077 0.0371,-0.21094 0.0855,-0.0126 0.17502,-0.0192 0.26757,-0.0195 0.64792,-0.002 1.46255,0.32214 2.36719,1.36523 0.84194,0.97081 2.06324,2.72384 3.11914,5.13672 1.05591,2.41288 1.94772,5.48636 2.3086,8.46875 0.0392,0.2946 0.0739,0.58827 0.10351,0.88086 0.13279,1.31332 0.16932,2.60589 0.11524,3.87695 -6e-5,0.001 5e-5,0.003 0,0.004 -6e-4,0.0141 -0.001,0.029 -0.002,0.043 -0.0505,1.14155 -0.19569,2.25807 -0.38672,3.36328 -0.0183,0.11253 -0.0183,0.22993 -0.0391,0.3418 -0.0376,0.20236 -0.11019,0.39456 -0.15234,0.5957 -0.17312,0.82622 -0.38213,1.64118 -0.62891,2.44531 -0.0572,0.18627 -0.0855,0.3814 -0.14648,0.56641 -0.0383,0.11637 -0.0969,0.22591 -0.13672,0.34179 -0.36323,1.05666 -0.76814,2.09999 -1.25,3.11524 -4.8e-4,0.001 -10e-4,0.003 -0.002,0.004 -0.64846,1.10776 -1.339,2.1398 -2.05274,3.10351 -0.71373,0.96379 -1.44992,1.8579 -2.18945,2.68945 -1.4794,1.66342 -2.97074,3.07408 -4.31641,4.2793 0.1875,-0.0223 0.37485,-0.0455 0.56055,-0.0703 1.0261,-0.13736 1.97559,-0.38334 2.94531,-0.60156 0.7509,-0.169 1.52231,-0.30882 2.23828,-0.52735 0.32135,-0.0981 0.63897,-0.20236 0.95313,-0.31054 0.32438,-0.11172 0.64822,-0.22313 0.96484,-0.34571 0.35751,-0.13839 0.70526,-0.28903 1.05274,-0.4414 0.3132,-0.13735 0.6267,-0.27504 0.93164,-0.42383 0.34333,-0.16754 0.67705,-0.34906 1.00976,-0.53125 0.2908,-0.15903 0.5828,-0.31605 0.86524,-0.48633 0.32509,-0.19616 0.63905,-0.40792 0.95312,-0.61914 0.27308,-0.18377 0.5479,-0.36525 0.8125,-0.56055 0.3008,-0.22181 0.58914,-0.46049 0.87891,-0.69726 0.25964,-0.21234 0.52271,-0.42013 0.77344,-0.64453 0.27922,-0.24984 0.54455,-0.51821 0.8125,-0.78321 0.23506,-0.23236 0.47484,-0.45904 0.70117,-0.70312 0.27664,-0.29862 0.53743,-0.61725 0.80078,-0.9336 0.19933,-0.23926 0.40413,-0.47115 0.5957,-0.7207 0.24904,-0.32449 0.48093,-0.67175 0.7168,-1.01367 0.19087,-0.27698 0.38813,-0.54562 0.57031,-0.83399 0.22987,-0.36373 0.4424,-0.75059 0.6582,-1.13281 0.15904,-0.28171 0.32527,-0.55387 0.47657,-0.8457 0.22856,-0.44077 0.43772,-0.90707 0.64843,-1.37109 0.11555,-0.25454 0.23949,-0.49819 0.34961,-0.75977 0.43565,-1.03453 0.77196,-2.19744 1.1211,-3.34375 0.16515,-0.54239 0.37804,-1.02401 0.52343,-1.5918 0.44649,-1.74343 0.80205,-3.60213 1.05664,-5.58984 6.8e-4,-0.005 0.001,-0.0102 0.002,-0.0156 v -0.002 c 0.30656,-2.39539 0.56119,-4.85974 0.65039,-7.35742 2e-5,-6.5e-4 -2e-5,-0.001 0,-0.002 0.0446,-1.24918 0.0478,-2.50657 -0.004,-3.76758 -0.10352,-2.52204 -0.42926,-5.05981 -1.08594,-7.57422 -0.32813,-1.25642 -0.73795,-2.50726 -1.24609,-3.74805 -3.2e-4,-7.9e-4 -0.002,-10e-4 -0.002,-0.002 -1.01716,-2.48311 -2.42218,-4.92549 -4.32813,-7.29102 -1.47225,-1.82722 -2.30391,-2.90624 -2.375,-3.31445 0.006,-0.0451 0.0118,-0.0917 0.0176,-0.13672 0.0354,-0.0504 0.11431,-0.064 0.23633,-0.043 0.12202,0.021 0.28638,0.0756 0.49805,0.16602 9.1e-4,3.9e-4 0.001,0.002 0.002,0.002 0.70584,0.30182 1.91814,0.98301 3.69141,2.00781 9.22397,6.01471 13.76778,11.81483 14.30468,22.02735 0.58765,-1.04835 1.11245,-2.127 1.58985,-3.22461 0.16169,-0.37199 0.28848,-0.75773 0.4375,-1.13477 0.2894,-0.73167 0.57848,-1.46378 0.82031,-2.21289 0.15574,-0.48316 0.27619,-0.97715 0.41211,-1.46679 0.18277,-0.65712 0.36647,-1.31288 0.51367,-1.98047 0.11977,-0.5449 0.2106,-1.09744 0.30664,-1.64844 0.10918,-0.62366 0.21604,-1.24845 0.29492,-1.87891 0.0753,-0.60613 0.12658,-1.21675 0.17383,-1.82812 0.0445,-0.56829 0.0832,-1.13698 0.10352,-1.70899 0.0234,-0.67949 0.0283,-1.36142 0.0176,-2.04492 -0.007,-0.49743 -0.0256,-0.99519 -0.0508,-1.49414 -0.0391,-0.7558 -0.0933,-1.51174 -0.17382,-2.26953 -0.0431,-0.41074 -0.0991,-0.82151 -0.1543,-1.23242 -0.11332,-0.83501 -0.23898,-1.66995 -0.40235,-2.50391 -0.0592,-0.30456 -0.13331,-0.6079 -0.19921,-0.91211 -0.20522,-0.94114 -0.42441,-1.8829 -0.69336,-2.81836 -0.0329,-0.11498 -0.0736,-0.22888 -0.10743,-0.34375 -2.38636,-8.05724 -7.12928,-15.82357 -14.21093,-22.195314 -0.003,-0.0025 -0.005,-0.0053 -0.008,-0.0078 -0.14657,-0.13182 -0.28308,-0.269779 -0.43165,-0.400391 -0.004,-0.0039 -0.009,-0.0078 -0.0137,-0.01172 -1.36027,-1.195308 -2.77689,-2.355779 -4.30468,-3.441406 0.0518,-0.04772 0.10382,-0.09381 0.15624,-0.138672 0.0971,-0.08313 0.19548,-0.161706 0.29493,-0.236328 0.0679,-0.051 0.13807,-0.09372 0.20703,-0.140625 0.0647,-0.04404 0.12972,-0.08647 0.19531,-0.126953 0.0293,-0.01862 0.0583,-0.03918 0.0879,-0.05664 0.0669,-0.03942 0.13535,-0.0755 0.20313,-0.111328 0.0324,-0.0171 0.065,-0.03234 0.0976,-0.04883 0.0693,-0.03466 0.13887,-0.06858 0.20899,-0.09961 0.003,-0.0015 0.006,-0.0044 0.01,-0.0059 0.0599,-0.02634 0.11921,-0.05244 0.17969,-0.07617 0.0805,-0.0316 0.16231,-0.05774 0.24414,-0.08398 0.072,-0.02386 0.14402,-0.04798 0.2168,-0.06836 0.026,-0.0079 0.0519,-0.01657 0.0781,-0.02344 0.13985,-0.03665 0.28115,-0.06561 0.42383,-0.08984 0.0309,-0.0052 0.0608,-0.01486 0.0918,-0.01953 0.0519,-0.0078 0.10408,-0.01544 0.15625,-0.02148 0.12468,-0.01444 0.25006,-0.0233 0.37695,-0.0293 0.0683,-0.0032 0.13815,-0.0013 0.20703,-0.002 0.0337,-3.39e-4 0.0678,0.002 0.10156,0.002 0.0645,4.94e-4 0.12842,-6.99e-4 0.19336,0.002 0.0137,4.94e-4 0.0273,-6.56e-4 0.041,0 0.0475,0.0023 0.0968,0.01409 0.14453,0.01758 0.23344,0.01664 0.46829,0.043 0.70703,0.08594 0.0165,0.003 0.0323,0.0028 0.0488,0.0059 0.0591,0.01104 0.11831,0.02451 0.17773,0.03711 0.0419,0.0089 0.0849,0.02564 0.12696,0.03516 0.21092,0.04838 0.42429,0.102886 0.63867,0.169922 0.0506,0.01563 0.0997,0.0242 0.15039,0.04102 0.043,0.01427 0.0877,0.03771 0.13086,0.05273 0.19671,0.06827 0.39656,0.157499 0.5957,0.240235 0.16515,0.06891 0.32757,0.121148 0.49414,0.199219 0.10484,0.04915 0.21103,0.111269 0.31641,0.164062 0.1269,0.06355 0.25545,0.137084 0.38281,0.205078 0.14776,0.07953 0.29279,0.152131 0.44141,0.238281 0.64432,0.373498 1.29609,0.829637 1.95117,1.314453 0.97773,0.722299 1.95456,1.566371 2.93164,2.476563 1.37765,1.285468 2.74104,2.678244 4.04688,4.167964 v 0.002 c 2.87383,3.27869 5.47336,6.81074 7.35937,9.52929 0.002,0.003 0.004,0.007 0.006,0.01 1.89454,2.73154 3.06987,4.64186 3.07031,4.64258 -0.001,-0.008 -0.35446,-2.36456 -1.14844,-5.99805 -0.79394,-3.63333 -2.02857,-8.54359 -3.79296,-13.660155 -0.65014,-1.885299 -1.45341,-3.784166 -2.25196,-5.671875 -0.14664,-0.346628 -0.26224,-0.696445 -0.41406,-1.041015 -5.9e-4,-0.0013 -10e-4,-0.0026 -0.002,-0.0039 -0.34835,-0.79052 -0.729,-1.525906 -1.10547,-2.298829 -0.004,-0.008 -0.008,-0.01548 -0.0117,-0.02344 -0.75398,-1.550536 -1.5583,-3.023576 -2.42773,-4.458984 -4.8e-4,-7.83e-4 -10e-4,-0.0012 -0.002,-0.002 -0.6609,-1.091699 -1.31274,-2.171584 -2.04297,-3.164062 -0.002,-0.0026 -0.004,-0.0052 -0.006,-0.0078 -0.25169,-0.341818 -0.48986,-0.699584 -0.75,-1.027343 -0.24703,-0.311259 -0.50293,-0.601318 -0.75781,-0.898438 -0.004,-0.0046 -0.008,-0.009 -0.0117,-0.01367 -0.51088,-0.596157 -1.03582,-1.162215 -1.57812,-1.697265 -10e-4,-0.0013 -0.003,-0.0026 -0.004,-0.0039 -0.40354,-0.398155 -0.80527,-0.797848 -1.22656,-1.158203 -3.8e-4,-3.2e-4 -0.002,3.2e-4 -0.002,0 -0.12528,-0.107127 -0.24815,-0.218661 -0.375,-0.322265 -0.65278,-0.533143 -1.32819,-1.014457 -2.02344,-1.447266 -0.27432,-0.170767 -0.55099,-0.334418 -0.83203,-0.488281 -0.13572,-0.0743 -0.26901,-0.154276 -0.40625,-0.22461 -7.7e-4,-3.93e-4 -10e-4,-0.0016 -0.002,-0.002 -0.474,-0.242387 -0.95623,-0.466462 -1.44921,-0.658203 0.001,-5.05e-4 0.0765,-0.02681 0.21484,-0.06641 0.2031,-0.05804 0.59165,-0.140284 1.06445,-0.216797 0.15728,-0.02544 0.28548,-0.05432 0.47071,-0.07617 0.11604,-0.01373 0.26779,-0.01592 0.39453,-0.02734 0.28827,-0.02601 0.57043,-0.05621 0.91211,-0.06445 0.48162,-0.01162 1.01252,-2.33e-4 1.59375,0.04297 0.3213,0.02386 0.69106,0.08678 1.04101,0.132812 0.2933,0.03859 0.56241,0.05663 0.875,0.113282 0.67778,0.122841 1.39929,0.290934 2.16211,0.515625 0.76317,0.224794 1.56765,0.505549 2.4082,0.855469 4.96171,2.138721 9.24113,5.066739 13.21289,8.560546 1.32393,1.164602 2.61307,2.391547 3.88282,3.673828 -2.36186,-4.047663 -4.83517,-8.568368 -7.65235,-13.076171 -0.51845,-0.829986 -1.08397,-1.617576 -1.6289,-2.44336 -0.92791,-1.406225 -1.86269,-2.798102 -2.88086,-4.167969 -0.67506,-0.908438 -1.42163,-1.759306 -2.14258,-2.640624 -1.20778,-1.476546 -2.41628,-2.947378 -3.77148,-4.314454 -0.25727,-0.259531 -0.50451,-0.524606 -0.76758,-0.779296 -0.58361,-0.565015 -1.19512,-1.103654 -1.8086,-1.642579 -0.44329,-0.389447 -0.87821,-0.785736 -1.33789,-1.160156 -0.65506,-0.533531 -1.34717,-1.031137 -2.03711,-1.53125 -0.45603,-0.330593 -0.89521,-0.677433 -1.36718,-0.992187 -0.80258,-0.535215 -1.65312,-1.020287 -2.50391,-1.50586 -0.41035,-0.234211 -0.79672,-0.493015 -1.21875,-0.714844 -1.28352,-0.674621 -2.61842,-1.293807 -4.01563,-1.84375 -0.003,-0.0013 -0.007,-0.0027 -0.01,-0.0039 -0.24211,-0.09521 -0.51019,-0.160752 -0.75586,-0.251953 -0.0304,-0.01128 -0.0633,-0.02001 -0.0937,-0.03125 -1.14579,-0.423527 -2.31456,-0.821573 -3.54102,-1.152344 -0.53469,-0.143971 -1.11157,-0.237918 -1.66211,-0.363281 -0.01,-0.0022 -0.0197,-0.0037 -0.0293,-0.0059 -1.00867,-0.229705 -2.01854,-0.456898 -3.08203,-0.621094 -0.57382,-0.08811 -1.18704,-0.129161 -1.77735,-0.197266 -0.12146,-0.01185 -0.24075,-0.02607 -0.36133,-0.03906 -0.79709,-0.0859 -1.56096,-0.213477 -2.38867,-0.261719 a 90.289719,90.289719 0 0 0 -0.002,0 90.289719,90.289719 0 0 0 -0.36133,0.02539 c -2.21379,-0.114865 -4.50263,-0.136323 -6.94531,0.03711 0.4815,-0.424699 0.92952,-0.871615 1.3457,-1.33789 0.83237,-0.932552 1.53875,-1.945647 2.13282,-3.027344 0.59406,-1.081698 1.07648,-2.231494 1.46289,-3.439453 0.5796,-1.81194 0.9421,-3.753486 1.14062,-5.785157 0.52938,-5.417788 -0.11262,-11.479663 -0.94531,-17.453125 -0.4177,2.434543 -1.69077,5.028115 -3.54688,7.601563 -3.2e-4,4.52e-4 3.3e-4,0.0015 0,0.002 -0.92786,1.286333 -2.00187,2.56702 -3.1875,3.820313 -1.18627,1.254039 -2.48283,2.480492 -3.85937,3.65625 -5.50457,4.701718 -12.2599,8.595881 -18.09571,10.238281 l -2.02929,0.570312 C 254.45578,23.612805 224.24815,-6.0639382 222.12305,-8.9335938 Z" /><path
       id="ellipse69"
       style="opacity:1;fill:url(#linearGradient74);fill-opacity:1;stroke:none;stroke-width:6.06592;stroke-linecap:round;stroke-opacity:1"
       d="M 275.07812,45.705078 A 65.026122,117.19369 82.685594 0 1 199.3457,72.626953 65.026122,117.19369 82.685594 0 1 107.51758,61.160156 c -4.28218,3.581478 -8.420196,8.316682 -11.806642,14.455078 a 65.026122,117.19369 82.685594 0 0 106.779292,20.533204 65.026122,117.19369 82.685594 0 0 94.51954,-43.125 c -5.8628,-4.028774 -12.9916,-6.7951 -21.93165,-7.31836 z" /><path
       id="path118"
       style="opacity:1;fill:url(#linearGradient127);fill-opacity:1;stroke:none;stroke-width:5.5;stroke-linecap:round;stroke-opacity:1"
       d="m 275.06445,45.705078 a 90.289719,90.289719 0 0 0 -88.71289,73.558592 c 9.75091,11.22147 19.21644,14.10904 31.54297,22.52149 -1.35458,-2.1264 -2.70949,-4.25313 -4.65039,-7.07032 -6.93974,-10.02146 -11.81785,-19.15774 -10.24219,-32.25976 0,0 0.63521,1.00661 1.8125,2.57422 0.36988,0.49256 1.11525,1.27353 1.58985,1.86328 1.03425,1.28523 1.9849,2.53198 3.47461,4.07031 l 0.002,0.002 c 1.08381,1.11909 2.2796,2.26643 3.57812,3.38868 0.81821,0.70719 1.74237,1.36427 2.63868,2.0371 0.53005,0.39796 1.00667,0.82684 1.5625,1.20508 l 0.002,0.002 h 0.002 c 1.4938,1.0163 3.07756,1.94978 4.74219,2.74804 0.21514,0.10318 0.44237,0.18276 0.66016,0.28125 0.6255,0.28287 1.24994,0.56819 1.89648,0.8086 0.8716,0.32409 1.76251,0.60693 2.66992,0.84179 -1.89364,-3.0799 -3.78959,-6.15929 -4.3164,-7.32812 -0.52682,-1.16884 0.31499,-0.42649 2.00195,0.80078 5.35876,3.8353 11.21961,7.29314 17.01953,10.86133 -6.2776,-11.27509 -10.63048,-22.00932 -15.19531,-30.593752 2.45353,0.91423 4.58888,2.133847 6.29883,3.714844 11.90429,7.788318 21.62865,15.645618 25.63281,28.562498 3.97999,17.86882 0.90541,38.70432 -1.85938,48.7207 -0.895,3.24246 -1.70104,5.87683 -2.42968,8.07813 -1.35831,4.10386 -2.4461,6.70186 -3.32227,8.92383 -0.64522,1.63826 -1.20093,3.14138 -1.64258,4.83789 0,0 0.70386,-1.06773 1.87305,-2.96094 4.92988,-7.98277 18.12914,-30.64269 21.70312,-49.85742 0.01,0.009 0.0181,0.0169 0.0274,0.0273 l -0.0254,-0.0312 c 0.0445,-0.23936 0.0883,-0.47797 0.13086,-0.71679 0.0125,-0.0702 0.0248,-0.14077 0.0371,-0.21094 0.0855,-0.0126 0.17502,-0.0192 0.26757,-0.0195 0.64792,-0.002 1.46255,0.32214 2.36719,1.36523 0.84194,0.97081 2.06324,2.72384 3.11914,5.13672 1.05591,2.41288 1.94772,5.48636 2.3086,8.46875 0.0393,0.29472 0.0739,0.58815 0.10351,0.88086 0.13279,1.31332 0.16932,2.60589 0.11524,3.87695 -6e-5,0.001 5e-5,0.003 0,0.004 -0.0123,0.28896 -0.0761,0.56488 -0.0977,0.85156 -0.0734,0.97511 -0.15385,1.94856 -0.33008,2.89649 -0.2279,1.2259 -0.53964,2.42953 -0.92773,3.60742 -0.38795,1.17745 -0.85203,2.33043 -1.38672,3.45703 -6.3e-4,0.001 -0.001,0.003 -0.002,0.004 -2.59383,4.43107 -5.86786,7.66235 -8.5586,10.07226 0.54543,-0.0647 1.08323,-0.13966 1.61328,-0.22656 3.06131,-0.5019 5.86413,-1.37637 8.37696,-2.65039 0.6283,-0.31862 1.24039,-0.66222 1.83203,-1.03125 1.18327,-0.73807 2.29137,-1.57859 3.32226,-2.52344 1.03089,-0.94483 1.98458,-1.9939 2.85547,-3.15234 0.43545,-0.57922 0.85012,-1.18641 1.24414,-1.82032 1.57608,-2.53562 2.81614,-5.5123 3.69141,-8.95703 0.43764,-1.72236 0.78413,-3.56159 1.03515,-5.52148 6.8e-4,-0.005 10e-4,-0.0102 0.002,-0.0156 v -0.002 c 1.22658,-9.5841 1.60817,-20.28008 -6.01563,-29.74219 -1.47225,-1.82722 -2.30391,-2.90624 -2.375,-3.31445 0.006,-0.0451 0.0118,-0.0917 0.0176,-0.13672 0.18895,-0.26864 1.58777,0.49154 4.42774,2.13281 9.22397,6.01471 13.76778,11.81483 14.30468,22.02735 9.79074,-17.46628 4.26414,-42.30374 -16.08007,-56.759768 4.4137,-4.068774 11.28731,1.494358 17.05664,8.076168 v 0.002 c 5.76882,6.58153 10.43466,14.1802 10.43554,14.18164 -0.001,-0.008 -0.35445,-2.36456 -1.14844,-5.99805 -0.79394,-3.63333 -2.02857,-8.54359 -3.79296,-13.660156 -3.53192,-10.241975 -9.1882,-21.310243 -17.68164,-24.613281 0.0109,-0.004 4.38947,-1.599864 11.13671,1.208985 4.96171,2.138721 9.24113,5.066739 13.21289,8.560546 1.32393,1.164602 2.61307,2.391545 3.88282,3.673828 C 312.82512,69.895902 302.4276,47.300226 275.0646,45.705408 Z" /><path
       id="path128"
       style="opacity:1;mix-blend-mode:multiply;fill:url(#linearGradient128);fill-opacity:1;stroke:none;stroke-width:5.5;stroke-linecap:round;stroke-opacity:1"
       d="m 275.06445,45.705078 a 90.289719,90.289719 0 0 0 -88.71289,73.558592 c 9.75091,11.22147 19.21644,14.10904 31.54297,22.52149 -1.35458,-2.1264 -2.70949,-4.25313 -4.65039,-7.07032 -6.93974,-10.02146 -11.81785,-19.15774 -10.24219,-32.25976 0,0 0.63521,1.00661 1.8125,2.57422 0.36988,0.49256 1.11525,1.27353 1.58985,1.86328 1.03425,1.28523 1.9849,2.53198 3.47461,4.07031 l 0.002,0.002 c 1.08381,1.11909 2.2796,2.26643 3.57812,3.38868 0.81821,0.70719 1.74237,1.36427 2.63868,2.0371 0.53005,0.39796 1.00667,0.82684 1.5625,1.20508 l 0.002,0.002 h 0.002 c 1.4938,1.0163 3.07756,1.94978 4.74219,2.74804 0.21514,0.10318 0.44237,0.18276 0.66016,0.28125 0.6255,0.28287 1.24994,0.56819 1.89648,0.8086 0.8716,0.32409 1.76251,0.60693 2.66992,0.84179 -1.89364,-3.0799 -3.78959,-6.15929 -4.3164,-7.32812 -0.52682,-1.16884 0.31499,-0.42649 2.00195,0.80078 5.35876,3.8353 11.21961,7.29314 17.01953,10.86133 -6.2776,-11.27509 -10.63048,-22.00932 -15.19531,-30.593752 2.45353,0.91423 4.58888,2.133847 6.29883,3.714844 11.90429,7.788318 21.62865,15.645618 25.63281,28.562498 3.97999,17.86882 0.90541,38.70432 -1.85938,48.7207 -0.895,3.24246 -1.70104,5.87683 -2.42968,8.07813 -1.35831,4.10386 -2.4461,6.70186 -3.32227,8.92383 -0.64522,1.63826 -1.20093,3.14138 -1.64258,4.83789 0,0 0.70386,-1.06773 1.87305,-2.96094 4.92988,-7.98277 18.12914,-30.64269 21.70312,-49.85742 0.01,0.009 0.0181,0.0169 0.0274,0.0273 l -0.0254,-0.0312 c 0.0445,-0.23936 0.0883,-0.47797 0.13086,-0.71679 0.0125,-0.0702 0.0248,-0.14077 0.0371,-0.21094 0.0855,-0.0126 0.17502,-0.0192 0.26757,-0.0195 0.64792,-0.002 1.46255,0.32214 2.36719,1.36523 0.84194,0.97081 2.06324,2.72384 3.11914,5.13672 1.05591,2.41288 1.94772,5.48636 2.3086,8.46875 0.0393,0.29472 0.0739,0.58815 0.10351,0.88086 0.13279,1.31332 0.16932,2.60589 0.11524,3.87695 -6e-5,0.001 5e-5,0.003 0,0.004 -0.0123,0.28896 -0.0761,0.56488 -0.0977,0.85156 -0.0734,0.97511 -0.15385,1.94856 -0.33008,2.89649 -0.2279,1.2259 -0.53964,2.42953 -0.92773,3.60742 -0.38795,1.17745 -0.85203,2.33043 -1.38672,3.45703 -6.3e-4,0.001 -0.001,0.003 -0.002,0.004 -2.59383,4.43107 -5.86786,7.66235 -8.5586,10.07226 0.54543,-0.0647 1.08323,-0.13966 1.61328,-0.22656 3.06131,-0.5019 5.86413,-1.37637 8.37696,-2.65039 0.6283,-0.31862 1.24039,-0.66222 1.83203,-1.03125 1.18327,-0.73807 2.29137,-1.57859 3.32226,-2.52344 1.03089,-0.94483 1.98458,-1.9939 2.85547,-3.15234 0.43545,-0.57922 0.85012,-1.18641 1.24414,-1.82032 1.57608,-2.53562 2.81614,-5.5123 3.69141,-8.95703 0.43764,-1.72236 0.78413,-3.56159 1.03515,-5.52148 6.8e-4,-0.005 10e-4,-0.0102 0.002,-0.0156 v -0.002 c 1.22658,-9.5841 1.60817,-20.28008 -6.01563,-29.74219 -1.47225,-1.82722 -2.30391,-2.90624 -2.375,-3.31445 0.006,-0.0451 0.0118,-0.0917 0.0176,-0.13672 0.18895,-0.26864 1.58777,0.49154 4.42774,2.13281 9.22397,6.01471 13.76778,11.81483 14.30468,22.02735 9.79074,-17.46628 4.26414,-42.30374 -16.08007,-56.759768 4.4137,-4.068774 11.28731,1.494358 17.05664,8.076168 v 0.002 c 5.76882,6.58153 10.43466,14.1802 10.43554,14.18164 -0.001,-0.008 -0.35445,-2.36456 -1.14844,-5.99805 -0.79394,-3.63333 -2.02857,-8.54359 -3.79296,-13.660156 -3.53192,-10.241975 -9.1882,-21.310243 -17.68164,-24.613281 0.0109,-0.004 4.38947,-1.599864 11.13671,1.208985 4.96171,2.138721 9.24113,5.066739 13.21289,8.560546 1.32393,1.164602 2.61307,2.391545 3.88282,3.673828 C 312.82512,69.895902 302.4276,47.300226 275.0646,45.705408 Z" /><path
       id="path130"
       style="opacity:1;fill:url(#linearGradient132);fill-opacity:1;stroke:none;stroke-width:5.5;stroke-linecap:round;stroke-opacity:1"
       d="m 115.41406,20.369141 c 0,0 -3.08272,9.459004 0.66211,18.652343 a 17.84066,17.84066 0 0 0 10.59571,-3.486328 c -1.71994,-0.652129 -3.3736,-1.586404 -5.10352,-2.832031 -7.85041,-6.005777 -6.07106,-12.044202 -6.14844,-12.326172 h -0.002 v -0.002 -0.002 -0.002 l -0.002,-0.002 z" /><path
       id="path75"
       style="mix-blend-mode:multiply;fill:url(#radialGradient76);stroke-width:2.6733;stroke-linecap:round"
       d="m 297.41406,53.351562 a 79.891495,79.891495 0 0 0 -36.40234,67.017578 79.891495,79.891495 0 0 0 9.26758,37.34961 c 1.32382,-3.93495 2.40935,-7.87611 3.11718,-11.68164 0.01,0.009 0.0181,0.0169 0.0274,0.0273 l -0.0254,-0.0312 c 0.0445,-0.23936 0.0883,-0.47797 0.13086,-0.71679 0.0125,-0.0702 0.0248,-0.14077 0.0371,-0.21094 0.0855,-0.0126 0.17502,-0.0192 0.26757,-0.0195 0.64792,-0.002 1.46255,0.32214 2.36719,1.36523 0.84194,0.97081 2.06324,2.72384 3.11914,5.13672 1.05591,2.41288 1.94772,5.48636 2.3086,8.46875 0.0393,0.29472 0.0739,0.58815 0.10351,0.88086 0.13279,1.31332 0.16932,2.60589 0.11524,3.87695 -6e-5,0.001 5e-5,0.003 0,0.004 -0.0123,0.28896 -0.0761,0.56488 -0.0977,0.85156 -0.0734,0.97511 -0.15385,1.94856 -0.33008,2.89649 -0.2279,1.2259 -0.53964,2.42953 -0.92773,3.60742 -0.0376,0.11412 -0.0762,0.22814 -0.11524,0.34179 a 79.891495,79.891495 0 0 0 5.92578,6.17579 c 0.79807,-0.7881 1.54685,-1.64343 2.24219,-2.56836 0.43545,-0.57922 0.85012,-1.18641 1.24414,-1.82032 1.57608,-2.53562 2.81614,-5.5123 3.69141,-8.95703 0.43764,-1.72236 0.78414,-3.56159 1.03515,-5.52148 6.8e-4,-0.005 9.6e-4,-0.0102 0.002,-0.0156 v -0.002 c 1.22658,-9.5841 1.60817,-20.28008 -6.01563,-29.74219 -1.47225,-1.82722 -2.30391,-2.90624 -2.375,-3.31445 0.006,-0.0451 0.0118,-0.0917 0.0176,-0.13672 0.18895,-0.26864 1.58777,0.49154 4.42774,2.13281 9.22397,6.01471 13.76778,11.81483 14.30468,22.02735 8.97271,-16.00694 5.04195,-38.1818 -11.33007,-52.906252 a 67.059738,67.059738 0 0 1 0.0351,-0.02539 c -0.14576,-0.131072 -0.31907,-0.245118 -0.4668,-0.375 -1.36442,-1.199505 -2.78548,-2.363902 -4.31835,-3.453125 0.14771,-0.136146 0.29806,-0.260106 0.45117,-0.375 0.0679,-0.051 0.13807,-0.09372 0.20703,-0.140625 0.0938,-0.0638 0.18755,-0.127244 0.2832,-0.183594 0.0669,-0.03942 0.13535,-0.0755 0.20313,-0.111328 0.10435,-0.05515 0.21004,-0.107504 0.3164,-0.154297 0.0599,-0.02634 0.11921,-0.05244 0.17969,-0.07617 0.1113,-0.04369 0.22456,-0.0802 0.33789,-0.115234 0.0669,-0.02066 0.1336,-0.04285 0.20117,-0.06055 0.13985,-0.03665 0.28115,-0.06561 0.42383,-0.08984 0.0309,-0.0052 0.0608,-0.01486 0.0918,-0.01953 0.176,-0.02652 0.35322,-0.04228 0.5332,-0.05078 0.0683,-0.0032 0.13815,-0.0013 0.20703,-0.002 0.11134,-0.0011 0.22323,-0.0015 0.33594,0.0039 0.29583,0.01409 0.5959,0.05248 0.90039,0.109375 0.0591,0.01104 0.11831,0.02451 0.17773,0.03711 0.3016,0.06394 0.60734,0.143784 0.91602,0.246094 0.40166,0.133103 0.80921,0.299323 1.2207,0.492188 0.10484,0.04915 0.21103,0.111269 0.31641,0.164062 0.27347,0.136961 0.5476,0.283054 0.82422,0.443359 2.95958,1.715791 6.07938,4.707284 8.92969,7.958977 v 0.002 c 5.76882,6.58153 10.43466,14.1802 10.43554,14.18164 -0.001,-0.008 -0.35445,-2.36456 -1.14844,-5.99805 -0.79394,-3.63333 -2.02857,-8.54359 -3.79296,-13.660152 -0.65014,-1.885299 -1.45341,-3.784166 -2.25196,-5.671875 a 67.059738,67.059738 0 0 1 0.0762,-0.02539 c -0.14783,-0.349261 -0.33912,-0.672367 -0.49219,-1.019531 -0.35193,-0.798639 -0.73694,-1.540607 -1.11719,-2.322266 -0.75398,-1.550536 -1.5583,-3.023576 -2.42773,-4.458984 -0.6631,-1.095323 -1.31775,-2.178525 -2.05079,-3.173829 -0.25169,-0.341818 -0.48986,-0.699584 -0.75,-1.027343 -0.25082,-0.316027 -0.51078,-0.610212 -0.76953,-0.91211 -0.51088,-0.596157 -1.03582,-1.162215 -1.57812,-1.697265 -0.40521,-0.399789 -0.80936,-0.800337 -1.23242,-1.16211 -0.12528,-0.107127 -0.24815,-0.218661 -0.375,-0.322265 -0.65278,-0.533143 -1.32819,-1.014457 -2.02344,-1.447266 -0.27432,-0.170767 -0.55099,-0.334418 -0.83203,-0.488281 -0.13649,-0.07473 -0.27013,-0.155947 -0.40821,-0.226563 -0.47415,-0.242461 -0.95607,-0.466423 -1.44921,-0.658203 0.0109,-0.004 4.38947,-1.599864 11.13671,1.208985 4.96171,2.138721 9.24113,5.066739 13.21289,8.560546 1.32394,1.164602 2.61307,2.391547 3.88282,3.673828 -2.36186,-4.047663 -4.83517,-8.568368 -7.65235,-13.076171 -0.51845,-0.829986 -1.08397,-1.617576 -1.6289,-2.44336 -0.92791,-1.406225 -1.86269,-2.798102 -2.88086,-4.167969 -0.67506,-0.908438 -1.42163,-1.759306 -2.14258,-2.640624 -1.20778,-1.476546 -2.41628,-2.947378 -3.77148,-4.314454 -0.25727,-0.259531 -0.50451,-0.524607 -0.76758,-0.779296 -0.58361,-0.565016 -1.19512,-1.103654 -1.8086,-1.642579 -0.44329,-0.389447 -0.87821,-0.785736 -1.33789,-1.160156 -0.65506,-0.533531 -1.34717,-1.031137 -2.03711,-1.53125 -0.15372,-0.111442 -0.30523,-0.224608 -0.45703,-0.337891 z" /><g
       id="g106"
       transform="translate(268.70056,-261.62952)"><g
         id="g72"
         transform="matrix(1.0238369,0.05752056,-0.05752056,1.0238369,252.5392,172.50931)"><g
           id="g71"><path
             style="opacity:1;fill:url(#linearGradient12);fill-opacity:1;stroke:none;stroke-width:5.5;stroke-linecap:round;stroke-opacity:1"
             d="m -287.37293,263.34777 c 3.9127,6.60975 12.42196,7.59078 16.24793,7.90223 3.20068,0.26054 9.70125,-1.08159 14.04752,-4.43507 2.9021,-2.23921 5.22962,-5.56844 6.98267,-8.57367 1.75304,-3.00523 2.93153,-5.68629 2.74,-7.39514 -0.19152,-1.70885 -1.75302,-2.4454 -5.27387,-2.74003 -3.52086,-0.29462 -9.00083,-0.14731 -14.03901,0.66293 -5.03818,0.81024 -9.63428,2.28335 -12.69843,3.88172 -3.06414,1.59838 -4.59617,3.32191 -5.71577,4.72141 -1.11959,1.39949 -1.82669,2.47486 -2.2318,3.24827 -0.40511,0.7734 -0.50823,1.24479 -0.53061,1.5494 -0.0224,0.30461 0.0359,0.44238 0.47137,1.17795 z"
             id="path139" /><path
             id="path60"
             style="opacity:1;mix-blend-mode:multiply;fill:#ddcec8;fill-opacity:1;stroke:none;stroke-width:5.5;stroke-linecap:round;stroke-opacity:1"
             d="m -256.72852,247.9668 c -0.97541,0.005 -2.05758,0.0761 -3.11523,0.13086 -2.22584,0.11638 -4.55863,0.30752 -6.82422,0.67187 -5.03818,0.81024 -9.63311,2.28249 -12.69726,3.88086 -1.14853,0.59912 -2.02967,1.21554 -2.80665,1.82617 -0.25917,0.20364 -0.55463,0.40797 -0.78124,0.60938 -0.45243,0.40231 -0.84474,0.79872 -1.19336,1.18164 -0.34892,0.38324 -0.65373,0.75371 -0.9336,1.10351 0.25088,-0.10714 0.36021,-0.10407 0.3711,-0.10351 -0.0633,0.0113 -1.98513,2.51904 -3.09961,5.2539 0.009,0.0288 0.0218,0.0576 0.0351,0.0899 2.86099,-5.61505 9.17248,-8.35944 15.6211,-9.98633 7.18024,-1.81147 15.92201,-1.74913 21.70117,0.69336 1.55269,0.6562 1.80494,1.83465 -0.92774,6.8418 0.41825,-0.64581 0.91551,-1.28763 1.28321,-1.91797 0.87616,-1.50201 1.6098,-2.92445 2.09961,-4.1836 2.3e-4,-6e-4 -2.4e-4,-0.001 0,-0.002 0.12245,-0.31488 0.22979,-0.61875 0.32031,-0.91211 0.18106,-0.58688 0.29543,-1.12776 0.33008,-1.61328 0.0173,-0.24276 0.0142,-0.47194 -0.01,-0.68555 -0.0239,-0.2136 -0.0688,-0.41144 -0.13672,-0.5957 -0.034,-0.0921 -0.0738,-0.18044 -0.11914,-0.26562 -0.0903,-0.16958 -0.20452,-0.32713 -0.34179,-0.47071 -6.3e-4,-6.5e-4 -0.001,-10e-4 -0.002,-0.002 -0.10897,-0.11341 -0.23729,-0.21812 -0.37695,-0.31641 -0.0368,-0.0259 -0.0704,-0.0532 -0.10938,-0.0781 -4.5e-4,-3e-4 -0.001,2.9e-4 -0.002,0 -0.0939,-0.06 -0.19399,-0.11755 -0.30078,-0.17188 -0.85442,-0.43457 -2.12434,-0.69253 -3.88477,-0.83984 -1.17728,-0.0985 -2.574,-0.14724 -4.09961,-0.13867 z" /><path
             style="opacity:1;fill:url(#linearGradient65);fill-opacity:1;stroke-width:5.5;stroke-linecap:round"
             d="m -261.43351,248.63642 c 0.98077,3.13175 1.16312,6.34126 0.47132,9.29336 -2.0191,8.61612 -12.01318,13.83959 -18.27496,9.00293 -2.0794,-1.60615 -3.61375,-4.17717 -4.25374,-7.41717 -0.35356,-1.78988 -0.29463,-3.52815 -0.23571,-5.26646 1.41421,-1.09012 2.82843,-2.18025 4.4489,-3.19672 1.62047,-1.01647 3.44713,-1.95926 5.6495,-2.54852 2.20237,-0.58926 4.78031,-0.82496 6.6954,-1.00173 1.91509,-0.17678 3.16724,-0.29463 4.41941,-0.41248"
             id="path43" /><path
             id="path54"
             style="opacity:1;fill:#b8b7b2;fill-opacity:1;stroke-width:5.73117;stroke-linecap:round"
             d="m -271.37203,247.43164 v 0.87109 a 6.6420607,7.6842446 0 0 1 4.70017,7.34766 6.6420607,7.6842446 0 0 1 -6.64153,7.68359 6.6420607,7.6842446 0 0 1 -6.64153,-7.68359 6.6420607,7.6842446 0 0 1 1.81081,-5.27344 h -0.95366 a 7.3641824,8.5196724 0 0 0 -1.57996,5.27344 7.3641824,8.5196724 0 0 0 7.36434,8.51953 7.3641824,8.5196724 0 0 0 7.36434,-8.51953 7.3641824,8.5196724 0 0 0 -5.42298,-8.21875 z" /><path
             style="opacity:1;fill:#030000;fill-opacity:1;stroke:none;stroke-width:5.5;stroke-linecap:round;stroke-opacity:1"
             d="m -249.55288,262.33506 c -5.36822,7.07666 -13.18562,9.3243 -21.57212,8.91494 0.79167,0 1.58333,0 2.93752,-0.14584 7.49563,-0.80719 13.73009,-7.03508 16.4479,-12.22918 3.22803,-5.72535 2.92369,-6.85612 1.28861,-7.54714 -5.77916,-2.44249 -14.52094,-2.50595 -21.70118,-0.69448 -7.65112,1.93027 -14.34528,6.48623 -16.34785,14.11664 -0.76838,-3.58727 3.72769,-9.50138 3.79167,-9.47396 0,0 -0.82187,-0.0693 -3.57292,2.59899 1.01025,-1.67493 1.69941,-2.6008 3.45955,-4.095 1.24079,-1.05333 2.84731,-2.17037 4.59342,-3.2887 11.27113,-7.21886 23.35706,-5.54143 25.22872,-5.22481 3.87969,0.65631 14.32528,1.63637 14.32528,1.63637 0,0 -4.35955,9.55683 -8.8786,15.43217 z"
             id="path137" /><path
             id="path58-2"
             style="display:inline;fill:#30352e;fill-opacity:1;stroke-width:6.49083;stroke-linecap:round"
             d="m -273.08872,256.33796 c 1.19037,0 1.08625,-3.27581 -1.2e-4,-3.27546 -1.08629,3.5e-4 -1.19005,3.27546 1.2e-4,3.27546 z" /><path
             style="opacity:1;mix-blend-mode:multiply;fill:url(#linearGradient70);fill-opacity:1;stroke-width:5.5;stroke-linecap:round"
             d="m -261.43351,248.63642 c 0.98077,3.13175 1.16312,6.34126 0.47132,9.29336 -2.0191,8.61612 -12.01318,13.83959 -18.27496,9.00293 -2.0794,-1.60615 -3.61375,-4.17717 -4.25374,-7.41717 -0.35356,-1.78988 -0.29463,-3.52815 -0.23571,-5.26646 1.41421,-1.09012 2.82843,-2.18025 4.4489,-3.19672 1.62047,-1.01647 3.44713,-1.95926 5.6495,-2.54852 2.20237,-0.58926 4.78031,-0.82496 6.6954,-1.00173 1.91509,-0.17678 3.16724,-0.29463 4.41941,-0.41248"
             id="path69" /><path
             id="path70"
             style="opacity:1;mix-blend-mode:multiply;fill:#989c94;fill-opacity:1;stroke:none;stroke-width:5.5;stroke-linecap:round;stroke-opacity:1"
             d="m -261.68359,248.2793 c -1.65861,0.11967 -3.32962,0.22411 -4.98438,0.49023 -5.03818,0.81024 -9.63311,2.28249 -12.69726,3.88086 -1.14853,0.59912 -2.02967,1.21554 -2.80665,1.82617 -0.25917,0.20364 -0.55463,0.40797 -0.78124,0.60938 -0.29624,0.26341 -0.56712,0.52502 -0.81641,0.78125 -0.007,0.62719 0.003,1.25494 0.0488,1.88867 3.17569,-2.51941 7.34237,-4.06471 11.56836,-5.13086 3.58805,-0.90521 7.56576,-1.34184 11.36914,-1.24805 -0.1483,-0.91437 -0.36558,-1.83077 -0.65039,-2.74023 z" /></g></g><path
         style="fill:url(#linearGradient93);fill-opacity:1;stroke-width:5.21656;stroke-linecap:round"
         d="m -26.361078,402.08513 c 6.023665,-0.62964 12.035754,-0.52821 18.1416124,1.38653 -0.3146478,0.0307 -0.629324,0.0613 -1.7929914,-0.0637 -21.134039,-2.26913 -42.788635,5.66321 -48.783106,9.20928 7.982375,-7.54888 21.784975,-9.26824 32.434483,-10.53213 z"
         id="path92" /></g><path
       style="fill:url(#linearGradient120);fill-opacity:1;stroke-width:5.21656;stroke-linecap:round"
       d="m 152.1781,140.45561 c -6.02367,-0.62964 -12.03576,-0.52821 -18.14161,1.38653 0.31464,0.0307 0.62932,0.0613 1.79299,-0.0637 21.13404,-2.26913 42.78863,5.66321 48.7831,9.20928 -7.98237,-7.54888 -21.78497,-9.26824 -32.43448,-10.53213 z"
       id="path116" /><path
       id="path121"
       style="opacity:1;mix-blend-mode:multiply;fill:url(#radialGradient122);stroke-width:5.5;stroke-linecap:round"
       d="m 201.18555,146.03906 a 93.338097,93.338097 0 0 0 -63.7168,25.13086 c 2.60522,8.36313 6.21498,16.50465 10.36719,24.56836 2.74917,5.49835 5.29132,9.41636 8.86523,13.16211 8.38218,8.78519 33.71253,26.07867 39.89649,28.67773 2.37117,0.99659 3.19679,1.06425 5.46484,0.37696 2.26805,-0.68728 5.97919,-2.13013 10.75586,-4.81055 14.79075,-8.88096 29.17433,-20.47674 37.80859,-35.64062 1.41397,-2.57615 1.81184,-3.67139 4.88867,-10.15625 2.02948,-4.27743 5.22474,-10.8996 8.16797,-17.29688 a 93.338097,93.338097 0 0 0 -62.49804,-24.01172 z" /><g
       id="g75"
       transform="matrix(-1,0,0,1,125.81702,-261.62952)"><g
         id="g74"
         transform="matrix(1.0238369,0.05752056,-0.05752056,1.0238369,252.5392,172.50931)"><g
           id="g73"><path
             style="opacity:1;fill:url(#linearGradient76);fill-opacity:1;stroke:none;stroke-width:5.5;stroke-linecap:round;stroke-opacity:1"
             d="m -287.37293,263.34777 c 3.9127,6.60975 12.42196,7.59078 16.24793,7.90223 3.20068,0.26054 9.70125,-1.08159 14.04752,-4.43507 2.9021,-2.23921 5.22962,-5.56844 6.98267,-8.57367 1.75304,-3.00523 2.93153,-5.68629 2.74,-7.39514 -0.19152,-1.70885 -1.75302,-2.4454 -5.27387,-2.74003 -3.52086,-0.29462 -9.00083,-0.14731 -14.03901,0.66293 -5.03818,0.81024 -9.63428,2.28335 -12.69843,3.88172 -3.06414,1.59838 -4.59617,3.32191 -5.71577,4.72141 -1.11959,1.39949 -1.82669,2.47486 -2.2318,3.24827 -0.40511,0.7734 -0.50823,1.24479 -0.53061,1.5494 -0.0224,0.30461 0.0359,0.44238 0.47137,1.17795 z"
             id="path44" /><path
             id="path48"
             style="opacity:1;mix-blend-mode:multiply;fill:#ddcec8;fill-opacity:1;stroke:none;stroke-width:5.5;stroke-linecap:round;stroke-opacity:1"
             d="m -256.72852,247.9668 c -0.97541,0.005 -2.05758,0.0761 -3.11523,0.13086 -2.22584,0.11638 -4.55863,0.30752 -6.82422,0.67187 -5.03818,0.81024 -9.63311,2.28249 -12.69726,3.88086 -1.14853,0.59912 -2.02967,1.21554 -2.80665,1.82617 -0.25917,0.20364 -0.55463,0.40797 -0.78124,0.60938 -0.45243,0.40231 -0.84474,0.79872 -1.19336,1.18164 -0.34892,0.38324 -0.65373,0.75371 -0.9336,1.10351 0.25088,-0.10714 0.36021,-0.10407 0.3711,-0.10351 -0.0633,0.0113 -1.98513,2.51904 -3.09961,5.2539 0.009,0.0288 0.0218,0.0576 0.0351,0.0899 2.86099,-5.61505 9.17248,-8.35944 15.6211,-9.98633 7.18024,-1.81147 15.92201,-1.74913 21.70117,0.69336 1.55269,0.6562 1.80494,1.83465 -0.92774,6.8418 0.41825,-0.64581 0.91551,-1.28763 1.28321,-1.91797 0.87616,-1.50201 1.6098,-2.92445 2.09961,-4.1836 2.3e-4,-6e-4 -2.4e-4,-0.001 0,-0.002 0.12245,-0.31488 0.22979,-0.61875 0.32031,-0.91211 0.18106,-0.58688 0.29543,-1.12776 0.33008,-1.61328 0.0173,-0.24276 0.0142,-0.47194 -0.01,-0.68555 -0.0239,-0.2136 -0.0688,-0.41144 -0.13672,-0.5957 -0.034,-0.0921 -0.0738,-0.18044 -0.11914,-0.26562 -0.0903,-0.16958 -0.20452,-0.32713 -0.34179,-0.47071 -6.3e-4,-6.5e-4 -0.001,-10e-4 -0.002,-0.002 -0.10897,-0.11341 -0.23729,-0.21812 -0.37695,-0.31641 -0.0368,-0.0259 -0.0704,-0.0532 -0.10938,-0.0781 -4.5e-4,-3e-4 -0.001,2.9e-4 -0.002,0 -0.0939,-0.06 -0.19399,-0.11755 -0.30078,-0.17188 -0.85442,-0.43457 -2.12434,-0.69253 -3.88477,-0.83984 -1.17728,-0.0985 -2.574,-0.14724 -4.09961,-0.13867 z" /><path
             style="opacity:1;fill:url(#linearGradient77);fill-opacity:1;stroke-width:5.5;stroke-linecap:round"
             d="m -261.43351,248.63642 c 0.98077,3.13175 1.16312,6.34126 0.47132,9.29336 -2.0191,8.61612 -12.01318,13.83959 -18.27496,9.00293 -2.0794,-1.60615 -3.61375,-4.17717 -4.25374,-7.41717 -0.35356,-1.78988 -0.29463,-3.52815 -0.23571,-5.26646 1.41421,-1.09012 2.82843,-2.18025 4.4489,-3.19672 1.62047,-1.01647 3.44713,-1.95926 5.6495,-2.54852 2.20237,-0.58926 4.78031,-0.82496 6.6954,-1.00173 1.91509,-0.17678 3.16724,-0.29463 4.41941,-0.41248"
             id="path49" /><path
             id="path56"
             style="opacity:1;fill:#b8b7b2;fill-opacity:1;stroke-width:5.73117;stroke-linecap:round"
             d="m -271.37203,247.43164 v 0.87109 a 6.6420607,7.6842446 0 0 1 4.70017,7.34766 6.6420607,7.6842446 0 0 1 -6.64153,7.68359 6.6420607,7.6842446 0 0 1 -6.64153,-7.68359 6.6420607,7.6842446 0 0 1 1.81081,-5.27344 h -0.95366 a 7.3641824,8.5196724 0 0 0 -1.57996,5.27344 7.3641824,8.5196724 0 0 0 7.36434,8.51953 7.3641824,8.5196724 0 0 0 7.36434,-8.51953 7.3641824,8.5196724 0 0 0 -5.42298,-8.21875 z" /><path
             style="opacity:1;fill:#030000;fill-opacity:1;stroke:none;stroke-width:5.5;stroke-linecap:round;stroke-opacity:1"
             d="m -249.55288,262.33506 c -5.36822,7.07666 -13.18562,9.3243 -21.57212,8.91494 0.79167,0 1.58333,0 2.93752,-0.14584 7.49563,-0.80719 13.73009,-7.03508 16.4479,-12.22918 3.22803,-5.72535 2.92369,-6.85612 1.28861,-7.54714 -5.77916,-2.44249 -14.52094,-2.50595 -21.70118,-0.69448 -7.65112,1.93027 -14.34528,6.48623 -16.34785,14.11664 -0.76838,-3.58727 3.72769,-9.50138 3.79167,-9.47396 0,0 -0.82187,-0.0693 -3.57292,2.59899 1.01025,-1.67493 1.69941,-2.6008 3.45955,-4.095 1.24079,-1.05333 2.84731,-2.17037 4.59342,-3.2887 11.27113,-7.21886 23.35706,-5.54143 25.22872,-5.22481 3.87969,0.65631 14.32528,1.63637 14.32528,1.63637 0,0 -4.35955,9.55683 -8.8786,15.43217 z"
             id="path64" /><path
             id="path66"
             style="display:inline;fill:#30352e;fill-opacity:1;stroke-width:6.49083;stroke-linecap:round"
             d="m -273.08872,256.33796 c 1.19037,0 1.08625,-3.27581 -1.2e-4,-3.27546 -1.08629,3.5e-4 -1.19005,3.27546 1.2e-4,3.27546 z" /><path
             style="opacity:1;mix-blend-mode:multiply;fill:url(#linearGradient78);fill-opacity:1;stroke-width:5.5;stroke-linecap:round"
             d="m -261.43351,248.63642 c 0.98077,3.13175 1.16312,6.34126 0.47132,9.29336 -2.0191,8.61612 -12.01318,13.83959 -18.27496,9.00293 -2.0794,-1.60615 -3.61375,-4.17717 -4.25374,-7.41717 -0.35356,-1.78988 -0.29463,-3.52815 -0.23571,-5.26646 1.41421,-1.09012 2.82843,-2.18025 4.4489,-3.19672 1.62047,-1.01647 3.44713,-1.95926 5.6495,-2.54852 2.20237,-0.58926 4.78031,-0.82496 6.6954,-1.00173 1.91509,-0.17678 3.16724,-0.29463 4.41941,-0.41248"
             id="path71" /><path
             id="path72"
             style="opacity:1;mix-blend-mode:multiply;fill:#989c94;fill-opacity:1;stroke:none;stroke-width:5.5;stroke-linecap:round;stroke-opacity:1"
             d="m -261.68359,248.2793 c -1.65861,0.11967 -3.32962,0.22411 -4.98438,0.49023 -5.03818,0.81024 -9.63311,2.28249 -12.69726,3.88086 -1.14853,0.59912 -2.02967,1.21554 -2.80665,1.82617 -0.25917,0.20364 -0.55463,0.40797 -0.78124,0.60938 -0.29624,0.26341 -0.56712,0.52502 -0.81641,0.78125 -0.007,0.62719 0.003,1.25494 0.0488,1.88867 3.17569,-2.51941 7.34237,-4.06471 11.56836,-5.13086 3.58805,-0.90521 7.56576,-1.34184 11.36914,-1.24805 -0.1483,-0.91437 -0.36558,-1.83077 -0.65039,-2.74023 z" /></g></g><path
         style="fill:url(#linearGradient79);fill-opacity:1;stroke-width:5.21656;stroke-linecap:round"
         d="m -26.361078,402.08513 c 6.023665,-0.62964 12.035754,-0.52821 18.1416124,1.38653 -0.3146478,0.0307 -0.629324,0.0613 -1.7929914,-0.0637 -21.134039,-2.26913 -42.788635,5.66321 -48.783106,9.20928 7.982375,-7.54888 21.784975,-9.26824 32.434483,-10.53213 z"
         id="path74" /></g><path
       id="path83"
       style="mix-blend-mode:overlay;fill:url(#radialGradient85);stroke-width:5.5;stroke-linecap:round"
       d="M 102.29102,66.248047 C 93.60124,76.068222 86.732386,91.65678 87.650391,115.4668 c 0.134445,-1.2862 0.328978,-2.54301 0.583984,-3.76368 1.785036,-8.54461 6.568696,-15.368186 14.990235,-18.863276 -0.002,0.0058 -0.46746,1.223446 -1.93164,3.261718 -5.944404,8.275498 -10.250291,19.239468 -9.812501,29.044918 A 36.415997,36.415997 0 0 0 112.91406,91.955078 36.415997,36.415997 0 0 0 102.29102,66.248047 Z" /><path
       id="path85"
       style="mix-blend-mode:multiply;fill:url(#radialGradient87);stroke-width:10.6355;stroke-linecap:round"
       d="m 307.37695,62.851562 a 87.984375,87.984375 0 0 0 -9.38281,8.720704 c 1.80958,0.100115 4.12114,0.519897 6.80859,1.638672 4.96171,2.138721 9.24113,5.066739 13.21289,8.560546 1.32394,1.164602 2.61307,2.391547 3.88282,3.673828 -2.36186,-4.047663 -4.83517,-8.568368 -7.65235,-13.076171 -0.51845,-0.829986 -1.08397,-1.617576 -1.6289,-2.44336 -0.92791,-1.406225 -1.86269,-2.798102 -2.88086,-4.167969 -0.67506,-0.908438 -1.42163,-1.759306 -2.14258,-2.640624 -0.0723,-0.08844 -0.14442,-0.177247 -0.2168,-0.265626 z m -11.01562,10.527344 a 87.984375,87.984375 0 0 0 -21.92188,58.111324 87.984375,87.984375 0 0 0 1.18164,14.37696 c 0.18827,0.16336 0.38242,0.35607 0.58008,0.58398 0.84194,0.97081 2.06324,2.72384 3.11914,5.13672 1.05591,2.41288 1.94772,5.48636 2.3086,8.46875 0.0393,0.29472 0.0739,0.58815 0.10351,0.88086 0.13279,1.31332 0.16932,2.60589 0.11524,3.87695 -6e-5,0.001 5e-5,0.003 0,0.004 -0.0123,0.28896 -0.0761,0.56488 -0.0977,0.85156 -0.0198,0.26326 -0.0399,0.52652 -0.0625,0.78906 a 87.984375,87.984375 0 0 0 5.74023,11.03907 c 0.38616,-0.44015 0.7587,-0.89815 1.11719,-1.375 0.43545,-0.57922 0.85012,-1.18641 1.24414,-1.82032 1.57608,-2.53562 2.81614,-5.5123 3.69141,-8.95703 0.43764,-1.72236 0.78414,-3.56159 1.03515,-5.52148 6.8e-4,-0.005 9.6e-4,-0.0102 0.002,-0.0156 v -0.002 c 1.22658,-9.5841 1.60817,-20.28008 -6.01563,-29.74219 -1.47225,-1.82722 -2.30391,-2.90624 -2.375,-3.31445 0.006,-0.0451 0.0118,-0.0917 0.0176,-0.13672 0.18895,-0.26864 1.58777,0.49154 4.42774,2.13281 9.22397,6.01471 13.76778,11.81483 14.30468,22.02735 8.97271,-16.00694 5.04195,-38.1818 -11.33007,-52.906252 a 67.059738,67.059738 0 0 1 0.0351,-0.02539 c -0.14576,-0.131072 -0.31907,-0.245118 -0.4668,-0.375 -1.36442,-1.199505 -2.78548,-2.363902 -4.31835,-3.453125 0.14771,-0.136146 0.29806,-0.260106 0.45117,-0.375 0.0679,-0.051 0.13807,-0.09372 0.20703,-0.140625 0.0938,-0.0638 0.18755,-0.127244 0.2832,-0.183594 0.0669,-0.03942 0.13535,-0.0755 0.20313,-0.111328 0.10435,-0.05515 0.21004,-0.107504 0.3164,-0.154297 0.0599,-0.02634 0.11921,-0.05244 0.17969,-0.07617 0.1113,-0.04369 0.22456,-0.0802 0.33789,-0.115234 0.0669,-0.02066 0.1336,-0.04285 0.20117,-0.06055 0.13985,-0.03665 0.28115,-0.06561 0.42383,-0.08984 0.0309,-0.0052 0.0608,-0.01486 0.0918,-0.01953 0.176,-0.02652 0.35322,-0.04228 0.5332,-0.05078 0.0683,-0.0032 0.13815,-0.0013 0.20703,-0.002 0.11134,-0.0011 0.22323,-0.0015 0.33594,0.0039 0.29583,0.01409 0.5959,0.05248 0.90039,0.109375 0.0591,0.01104 0.11831,0.02451 0.17773,0.03711 0.3016,0.06394 0.60734,0.143784 0.91602,0.246094 0.40166,0.133103 0.80921,0.299323 1.2207,0.492188 0.10484,0.04915 0.21103,0.111269 0.31641,0.164062 0.27347,0.136961 0.5476,0.283054 0.82422,0.443359 2.95958,1.715791 6.07938,4.707284 8.92969,7.958977 v 0.002 c 5.76882,6.58153 10.43466,14.1802 10.43554,14.18164 -0.001,-0.008 -0.35445,-2.36456 -1.14844,-5.99805 -0.79394,-3.63333 -2.02857,-8.54359 -3.79296,-13.660152 -0.65014,-1.885299 -1.45341,-3.784166 -2.25196,-5.671875 a 67.059738,67.059738 0 0 1 0.0762,-0.02539 c -0.14783,-0.349261 -0.33912,-0.672367 -0.49219,-1.019531 -0.35193,-0.798639 -0.73694,-1.540607 -1.11719,-2.322266 -0.75398,-1.550536 -1.5583,-3.023576 -2.42773,-4.458984 -0.6631,-1.095323 -1.31775,-2.178525 -2.05079,-3.173829 -0.25169,-0.341818 -0.48986,-0.699584 -0.75,-1.027343 -0.25082,-0.316027 -0.51078,-0.610212 -0.76953,-0.91211 -0.51088,-0.596157 -1.03582,-1.162215 -1.57812,-1.697265 -0.40521,-0.399789 -0.80936,-0.800337 -1.23242,-1.16211 -0.12528,-0.107127 -0.24815,-0.218661 -0.375,-0.322265 -0.65121,-0.531861 -1.3241,-1.011359 -2.01758,-1.44336 z" /><path
       id="path89"
       style="mix-blend-mode:multiply;fill:url(#radialGradient93);stroke-width:5.5;stroke-linecap:round"
       d="m 289.72852,115.78125 a 59.98827,60.630856 0 0 0 -31.83204,9.24023 c 0.43487,1.05473 0.82786,2.14479 1.17774,3.27344 3.97999,17.86882 0.90541,38.70432 -1.85938,48.7207 -1.84649,6.68957 -3.31793,10.79253 -4.5,13.83985 -0.45936,1.18343 -0.87542,2.20724 -1.25195,3.16211 -0.0849,0.21562 -0.16824,0.42894 -0.25,0.64062 -0.53947,1.3967 -1.00906,2.72404 -1.39258,4.19727 0,0 0.70386,-1.06773 1.87305,-2.96094 0.0916,-0.14841 0.32852,-0.62672 0.42578,-0.78515 2.40902,-3.84925 6.77955,-11.05667 11.74609,-21.63672 a 67.059738,67.059738 0 0 1 0,-0.002 c 4.06363,-8.65653 7.85539,-18.42365 9.53125,-27.43359 0.01,0.009 0.0181,0.0169 0.0274,0.0273 l -0.0254,-0.0312 c 0.0445,-0.23936 0.0883,-0.47797 0.13086,-0.71679 0.0125,-0.0702 0.0248,-0.14077 0.0371,-0.21094 0.0855,-0.0126 0.17502,-0.0192 0.26757,-0.0195 0.64792,-0.002 1.46255,0.32214 2.36719,1.36523 0.84194,0.97081 2.06324,2.72384 3.11914,5.13672 1.05591,2.41288 1.94772,5.48636 2.3086,8.46875 0.0393,0.29472 0.0739,0.58815 0.10351,0.88086 0.13279,1.31332 0.16932,2.60589 0.11524,3.87695 -6e-5,0.001 5e-5,0.003 0,0.004 -0.0123,0.28896 -0.0761,0.56488 -0.0977,0.85156 -0.0734,0.97511 -0.15385,1.94856 -0.33008,2.89649 -0.2279,1.2259 -0.53964,2.42953 -0.92773,3.60742 -0.38795,1.17745 -0.85203,2.33043 -1.38672,3.45703 v 0.002 l -0.002,0.002 c -2.59383,4.43107 -5.86786,7.66235 -8.5586,10.07226 0.54543,-0.0647 1.08323,-0.13966 1.61328,-0.22656 3.06131,-0.5019 5.86413,-1.37637 8.37696,-2.65039 0.6283,-0.31862 1.24039,-0.66222 1.83203,-1.03125 1.18327,-0.73807 2.29137,-1.57859 3.32226,-2.52344 1.03089,-0.94483 1.98458,-1.9939 2.85547,-3.15234 0.43545,-0.57922 0.85012,-1.18641 1.24414,-1.82032 1.57608,-2.53562 2.81614,-5.5123 3.69141,-8.95703 0.43764,-1.72236 0.78414,-3.56159 1.03515,-5.52148 6.8e-4,-0.005 9.6e-4,-0.0102 0.002,-0.0156 v -0.002 c 1.22658,-9.5841 1.60817,-20.28008 -6.01563,-29.74219 -1.47225,-1.82722 -2.30391,-2.90624 -2.375,-3.31445 0.006,-0.0451 0.0118,-0.0917 0.0176,-0.13672 0.18895,-0.26864 1.58777,0.49154 4.42774,2.13281 9.22397,6.01471 13.76778,11.81483 14.30468,22.02735 5.3537,-9.55077 6.11452,-21.298 2.37891,-32.34766 a 59.98827,60.630856 0 0 0 -17.52734,-2.64453 z" /><path
       style="fill:#eec98e;fill-opacity:1;stroke-width:0.152337"
       d="m 270.95127,169.33407 c 4.99895,4.8823 -1.14909,7.24277 -4.64696,8.64504 -0.64974,0.25067 -1.13424,0.50995 -1.07666,0.5764 1.49959,1.72548 12.39559,-3.01541 7.59312,-9.8616 -0.93253,-1.32943 -1.98466,-1.97902 -2.51134,-1.89127 -0.52667,0.087 -0.52771,0.91228 0.64198,2.53141"
       id="path18-5" /><path
       style="fill:#eec98e;fill-opacity:1;stroke-width:0.152337"
       d="m 128.08339,171.91427 c -4.99895,4.8823 1.14909,7.24277 4.64696,8.64504 0.64974,0.25067 1.13424,0.50995 1.07666,0.5764 -1.49959,1.72548 -12.39559,-3.01541 -7.59312,-9.8616 0.93253,-1.32943 1.98466,-1.97902 2.51134,-1.89127 0.52667,0.087 0.52771,0.91228 -0.64198,2.53141"
       id="path18-5-2" /></g></svg>
