<svg xmlns="http://www.w3.org/2000/svg" xml:space="preserve" width="1400" height="2000.333"><path fill="#5bcefa" fill-rule="evenodd" d="M0 0h1400v1993.086H0z"/><g transform="translate(322.398 222.332)scale(2.45923)"><path fill="#fff" fill-rule="evenodd" d="M138.87 353.598a4.78 4.78 0 0 0-4.68 2.894l-3.407 7.965c-2.937 6.868-5.535 12.637-7.547 16.805-1.006 2.084-1.87 3.772-2.523 4.949-.55.99-.872 1.363-.717 1.242-.366.04-1.338.09-3.281-.006h-.002l-5.344-.266a4.78 4.78 0 0 0-4.473 2.553l-2.351 4.477c-3.126 5.949-6.25 9.074-10.58 11.13l-4.649 2.206a4.78 4.78 0 0 0-2.732 4.322v3.635c0 8.019 4.23 18.505 9.941 28.045-1.3.835-1.864 2.052-2.148 2.76-.384.957-.534 1.733-.705 2.705-.684 3.885-1.233 10.923-2.494 25.705l-.873 10.226a4.78 4.78 0 0 0 .834 3.131l2.156 3.111c5.402 7.796 15.832 12.559 27.502 14.12 11.108 1.485 22.346-.166 29.629-5.721 3.505-2.674 6.176-6.332 7.795-10.358.11.34.103.706.234 1.04 2.654 6.775 9.186 11.771 17.813 13.796 8.734 2.05 17.857 1.471 28.232-1.545 3.78-1.099 7.174-3.45 10.35-6.295 3.175-2.843 6.007-6.165 7.818-9.798 1.636-3.284 2.552-6.978 2.365-11.237-.187-4.258-1.237-9.136-3.078-16.277-1.782-6.912-2.834-10.858-4.072-13.77-.62-1.456-1.322-2.76-2.489-3.904-.527-.517-1.155-.914-1.779-1.25.187-.68.216-1.031 1.045-3.039 1.396-3.381 2.868-7.853 3.545-10.955.521-2.386.835-5.301 1.03-8.41.616.93 1.257 1.836 1.978 2.635 4.198 4.646 9.577 7.394 15.11 7.677 5.531.283 11.097-2.042 15.056-6.55 6.075-6.92 6.821-17.222 1.75-24.885-2.958-4.47-7.893-7.29-13.41-8.389-1.505-.3-1.394-.267-1.817-.379-.28-1.555-.792-3.156-1.703-4.619-1.247-2.003-2.96-4.07-5.6-7.1l-3.73-4.285a4.784 4.784 0 0 0-6.39-.75l-6.336 4.532c-10.59 7.575-25.076 13.268-37.387 14.752l-.854.103c-.165-.362-.954-2.299-1.83-4.697a332 332 0 0 1-2.97-8.522c-1.782-5.343-3.687-10.013-5.557-13.644-.935-1.816-1.851-3.368-2.848-4.7-.996-1.331-1.848-2.598-4.137-3.476-.858-.33-.98-.282-1.271-.332s-.576-.089-.896-.129a72 72 0 0 0-2.32-.24 215 215 0 0 0-6.544-.479zm77.993 33.99c.026.098.059.124.03.285zm-57.773 72.086c.406.614.57.7 1.06 1.568a44 44 0 0 0 2.358 3.719c.553.78 1.15 1.41 1.762 2.074-.18.266-.225.462-1.36 1.832-1.86 2.246-3.105 4.678-4.06 7.15-.26-.8-.484-1.617-.82-2.378-.834-1.882-1.946-3.556-3.522-5.043.294-.378.58-.75.83-1.149a25.4 25.4 0 0 0 1.867-3.613c.948-2.235 1.331-2.97 1.885-4.16m-6.086 7.506c.445.278.604.469.678.636-.262-.197-.382-.451-.678-.636"/><path fill="#fff" fill-rule="evenodd" d="M108.787 338.803c-.949.131-1.805.44-2.617.775-1.624.67-3.132 1.646-4.576 2.883-2.54 2.176-2.759 2.271-5.479 2.54-2.01.2-3.84.533-5.793 1.394-3.958 1.743-6.885 4.963-8.695 8.88-1.062 2.299-1.502 4.573-1.502 8.084 0 3.175.487 5.257 1.553 7.854-1.27.255-2.594.98-3.225 1.476-1.638 1.29-2.51 2.613-3.621 4.274-1.11 1.66-2.18 3.52-3.014 5.357-3.549 7.828-3.35 16.54 1.735 22.48v.003c2.822 3.297 6.573 5.08 10.734 5.812 7.36 1.295 15.047-1.497 19.666-7.304 3.18-4 6.103-9.624 6.95-14.563.242-1.419.495-2.793-.098-4.682 5.08-2.213 9.321-5.432 12.043-9.673 1.527-2.38 2.599-5.017 2.671-7.846.073-2.83-.781-5.5-2.087-8.27-.87-1.844-1.69-3.333-2.868-4.662-.686-.773-1.683-1.45-2.806-1.959-.084-.606-.17-1.17-.246-1.879-.26-2.409-.546-4.255-1.16-5.992-.615-1.737-1.949-3.916-4.397-4.693-1.178-.374-2.219-.42-3.168-.29m6.371 12.162c.238 0 .338.012.61.105.138.048.364.048.677.237-.438-.102-.818-.342-1.287-.342"/><path fill="#fff" fill-rule="evenodd" d="M145.68 244.674c-24.718-1.022-45.88 2.858-61.961 11.203-16.082 8.345-27.07 21.427-30.432 37.912-4.914 24.096 12.822 47.18 39.33 52.711 2.883.602 4.733 1.058 7.037.781s4.145-1.53 5.65-2.715c.723-.568 2.3-1.201 3.905-1.367 1.489-.153 2.883.125 3.592.434.067.063.144.124.228.258.232.366.456.917.516 1.191.236 1.077.517 2.4 1.486 3.809.97 1.408 2.53 2.443 4.051 3.03 3.04 1.177 6.661 1.588 13.617 2.536 16.533 2.254 57.912 2.377 71.73-.033 24.183-4.217 41.179-19.764 42.852-40.615 1.52-18.943-9.56-35.989-27.88-48.104s-44.067-19.805-73.721-21.031"/><path fill="#f6bde7" fill-rule="evenodd" d="M81.832 350.676c-.147.01-.227.028-.32.043-.703.114-1.124.403-1.805.834s-1.527 1.029-2.586 1.824c-3.68 2.764-7.097 5.786-8.732 7.828-.357.445-.635.741-.813 1.313-.177.571.022 1.25.195 1.591.383.75.979 1.345 1.743 2.05a31 31 0 0 0 2.68 2.171c1.973 1.44 4.087 2.754 5.763 3.297a23 23 0 0 0 .746.227l.102.025c.038.009.046.023.242.033.63.033.97-.235 1.228-.46.259-.227.449-.484.602-.784.73-1.43.893-3.321 1.008-7.37.145-5.127.575-8.46 1.082-9.831.133-.361.243-.648.316-1.057.013-.073.037-.144.041-.357a1.3 1.3 0 0 0-.074-.483 1.45 1.45 0 0 0-.508-.666c-.472-.32-.763-.24-.91-.228m44.766 3.871c-.934-.035-1.592-.043-2.186.025s-1.225.267-1.695.662c-.444.374-.877 1.385-.813 2.067.065.681.268 1.266.59 2.224 1.232 3.663 1.534 6.39 1.137 8.362-.282 1.402-.898 3.125-1.828 5.01-1.928 3.904-4.296 6.773-6.82 8.46-.694.464-1.396.954-1.835 1.325-.413.35-.76.737-1.043 1.148-.283.412-.591.727-.591 1.611 0 .894.608 1.582 1.146 1.918.539.336 1.106.497 1.74.596.353.055.523.04.805.037a24 24 0 0 0 .93-.027c.655-.031 1.24-.06 1.767-.158 1.227-.231 2.385-.91 3.338-1.963s1.794-2.456 2.783-4.409c1.959-3.862 5.813-12.724 7.286-16.75.632-1.729 1.053-3.16 1.253-4.388.2-1.229.23-2.296-.257-3.303-.421-.87-1.272-1.579-2.235-1.926-.962-.346-2.051-.468-3.472-.521m88.814-1.201-4.683 1.037c-8.344 1.844-15.401 2.67-29.92 3.492-3.7.21-7.27.421-8.094.482-2.146.16-3.843.297-5.053.409a51 51 0 0 0-1.457.148c-.185.022-.34.045-.484.068-.145.024-.209.01-.55.135-.541.2-1.09.883-1.212 1.34s-.074.72-.043.947c.062.456.177.82.361 1.385.37 1.13 1.045 2.953 2.233 6.111a2040 2040 0 0 0 7.15 18.666c.281.721.512 1.31.682 1.735a42 42 0 0 0 .283.69c.024.053-.013.022.137.273.357.597.769.742 1.017.836.249.094.42.12.58.142.32.044.586.045.889.037a21 21 0 0 0 2.148-.197c1.652-.22 3.71-.6 5.672-1.08 10.123-2.473 23.648-9.31 34.07-17.12a65 65 0 0 0 4.59-3.759c1.274-1.156 2.15-1.917 2.754-3.039.188-.348.454-.744.487-1.467.032-.722-.225-1.192-.385-1.527-.935-1.96-2.944-3.811-6.281-6.594l-3.319-2.767a1.84 1.84 0 0 0-1.572-.383M151.744 17.992c-9.677.146-18.984 4.986-27.19 13.028-8.205 8.041-15.481 19.368-21.429 33.345-5.894 13.85-15.73 47.888-20.662 70.955l-3.693 17.272c-.655 3.064 1.895 5.865 5.007 5.5l8.043-.946c4.697-.552 8.36.101 9.106.487 4.923 2.545 7.462 5.275 8.525 8.056 1.064 2.782.934 6.135-1.133 10.82-1.442 3.27-2.515 5.463-2.556 8.391-.042 2.929 1.031 5.148 2.388 8.16 3.028 6.723 3.11 8.573 1.02 13.159-.97 2.13-4.298 4.48-8.717 5.365s-9.491.252-12.805-1.76c-1.133-.688-2.09-1.287-3.287-1.803-1.197-.515-2.784-.887-4.316-.755-3.065.263-4.946 1.6-8.238 3.44-6.63 3.705-12.979 3.322-18.889-1.048-2.27-1.678-3.218-3.195-6.684-3.447-1.733-.126-3.63.793-4.552 1.605-.923.813-1.398 1.498-1.963 2.23-2.729 3.542-5.427 9.17-8.184 15.749s-5.344 13.884-6.914 20.021c-5.218 20.405-3.316 39.145 5.895 57.32 2.39 4.716 7.03 10.67 11.496 15.757 2.233 2.543 4.38 4.79 6.258 6.46.939.836 1.764 1.523 2.808 2.131.522.304 1.077.626 2.09.832 1.013.207 5.119 3.698 6.584 2.233 1.205-1.205-.692-5.776-.598-6.418a6.3 6.3 0 0 0 .041-1.498c-.06-.826-.206-1.525-.396-2.293-.381-1.536-.973-3.264-1.733-5.082-1.352-3.237-1.941-7.547-1.576-14.748 1.209-23.832 17.988-41.673 48.594-49.992 6.743-1.833 21.549-2.908 36.443-2.748 14.895.159 30.318 1.488 38.8 3.601 28.816 7.18 52.729 23.633 60.857 40.143 4.49 9.123 4.352 8.539 3.71 20.314-.402 7.397-2.04 14.386-2.789 15.817-.835 1.595-1.457 2.777-1.912 4.15-.227.686-.569 1.371-.338 2.978.116.804.523 1.975 1.463 2.88s2.185 1.287 3.034 1.357c1.697.14 2.38-.287 3.072-.586.692-.3 1.303-.64 1.99-1.049 1.374-.817 3.013-1.915 5.117-3.363 10.002-6.881 17.175-15.712 23.225-28.336 14.369-29.983 10.014-62.196-12.149-94.365l-7.341-10.655 1.26-17.593c1.733-24.252-.19-42.803-6.813-56.438s-18.399-21.866-33.918-24.373c-13.134-2.122-27.717 2.251-40.795 10.287-1.782 1.095-3.451 2.425-5.172 3.656 1.402-1.128 2.924-2.52 4.154-3.31 3.614-2.32 6.132-3.881 7.954-6.72 1.821-2.84 2.158-5.783 2.673-9.907.78-6.234.69-17.13.211-27.826-.24-5.349-.59-10.578-1.025-14.99-.436-4.413-.863-7.813-1.645-10.409-4.619-15.339-17.213-25.27-32.406-25.04m61.51 160.531c-.146.158-.266.345-.412.5-5.858 6.218-11.834 10.244-19.225 12.706 7.094-2.946 13.64-7.32 19.637-13.206"/><path fill="#fff" fill-rule="evenodd" d="M60.654 153.701c-4.64.004-8.405 1.38-11.633 4.33-3.298 3.015-4.79 6.63-4.798 11.455-.004 2.308.196 4.317 1.117 6.287.92 1.97 2.34 3.686 4.54 6.178 1.33 1.506 2.282 2.636 2.903 3.371l-.597.653c-3.022 3.3-5.208 6.901-6.372 10.44-1.163 3.537-1.363 7.138.213 10.187.543 1.049 1.022 1.402 1.66 2.013a34 34 0 0 0 2.204 1.91c1.618 1.3 3.34 2.555 4.888 3.338 1.059.536 2.395 1.028 3.59 1.36 2.669.74 5.137.721 8.213-.004 3.06-.722 6.562-2.387 10.055-4.618 1.442-.92 2.609-1.58 3.435-1.97.682-.322.908-.339.903-.36.276.163.696.462 1.134.85 6.32 5.594 15.502 7.043 23.094 3.582 3.626-1.653 6.19-4.399 7.3-7.998.7-2.266.81-3.999.395-6.01-.702-3.411-2.412-6.929-5.113-10.943a65 65 0 0 1-1.521-2.365c-.131-.215-.213-.362-.307-.526.01-.022-.001-.007.012-.031.26-.493.872-1.372 1.822-2.486 2.748-3.221 4.444-7.732 4.72-12.17.165-2.639-.122-4.412-.986-6.197-1.553-3.213-4.602-6.02-8.017-7.84-7.38-3.934-17.747-1.63-24.557 4.593-.432.395-.634.546-.86.723-.28-.185-.728-.471-1.407-1.053-5.35-4.582-10.258-6.703-16.03-6.699"/><ellipse cx="148.463" cy="305.028" fill-rule="evenodd" rx="12.962" ry="7.813" style="font-variation-settings:normal;-inkscape-stroke:none"/><path fill="#9d1578" d="M112.108 504.549c-14.574-3.919-21.905-11.227-21.779-21.71.041-3.395.499-14.572 1.017-24.839.845-16.738.664-19.493-1.753-26.667-1.482-4.4-3.11-10.816-3.618-14.258-.8-5.428-1.41-6.365-4.594-7.065-2.02-.443-5.407-2.618-7.527-4.832-5.8-6.275-4.815-17.77-1.277-25.12 2.42-4.565 2.415-4.629-.495-6.667-11.25-7.88-14.323-12.246-9.833-13.969 2.698-1.035 16.265-11.743 16.355-12.907.034-.45-5.487-3.516-12.27-6.812-6.784-3.295-15.79-8.856-20.014-12.355-32.671-27.07-37.954-79.087-7.164-121.946 6.208-8.64 5.104-12.15 8.917-17.504 2.365-3.321 2.393-3.738.371-5.415-15.322-12.706 3.74-39.575 23.338-26.945 1.714 1.105 3.27 1.81 3.46 1.569.188-.242 1.624-7.34 3.19-15.774 6.745-36.308 19.977-77.862 30.544-95.918 21.557-36.834 86.387-59.062 81.097 39.69l-.88 16.438 7.737-1.059c61.01-8.348 69.192 40.244 64.53 84.76l-1.542 14.73 5.38 6.807c41.453 52.442 24.943 120.08-32.527 142.115-5.19 1.99-9.738 3.862-10.104 4.16-.367.3 1.883 2.815 5 5.591 6.402 5.704 6.811 7.067 2.935 9.782-2.678 1.875-2.607 2.08 3.667 10.529 4.122 5.551 8.288 9.521 11.714 11.162 6.8 3.257 10.325 9.362 10.325 17.88 0 16.48-14.639 24.666-30.107 16.835-3.439-1.74-6.504-2.756-6.813-2.257-.309.5-.944 3.874-1.412 7.499-.797 6.177.928 15.342 7.39 39.256 1.551 5.74-.363 16.313-4.053 22.38-9.537 15.683-47.155 18.975-59.788 5.232l-3.141-3.418-4.343 4.343c-7.942 7.942-26.336 10.872-41.933 6.679m28.496-4.694c11.41-3.168 18.077-15.268 13.594-24.67-1.185-2.485-2.765-4.518-3.51-4.518-1.831 0-1.732-3.652.117-4.269.809-.27 2.459-3.47 3.666-7.11 2.753-8.301 5.264-8.47 9.218-.621 1.662 3.3 3.612 6.2 4.333 6.444 2.22.752 1.42 3.409-2.003 6.655-3.538 3.355-5.449 10.345-4.195 15.342 3.11 12.393 20.198 17.085 41.461 11.386 6.86-1.84 14.63-9.673 16.81-16.95 1.562-5.217 1.351-7.158-2.39-21.967-3.6-14.252-4.443-16.244-6.878-16.244-3.587 0-3.605-.884-.164-7.993 5.335-11.02 6.106-30.375 1.825-45.808-.715-2.576-.421-3.048 1.649-2.65 2.776.535 5.503 9.62 5.74 19.118.388 15.56 18.563 23.666 28.456 12.692 6.719-7.453 5.294-24.322-9.439-26.297-4.799-.644-5.663-1.193-5.123-3.258.428-1.635-1.266-4.6-4.953-8.672l-5.602-6.188-6.698 4.811c-12.73 9.633-27.43 14.52-43.06 15.938-6.951-10.967-6.572-26.408-15.956-35.573-1.193-.343-5.993-.81-10.667-1.038l-8.498-.415-7.556 17.333c-8.032 18.425-7.507 17.909-16.404 16.139-3.234-.644-3.892-.113-6.13 4.947-2.743 6.201-9.28 12.453-14.35 13.726-2.451.615-3.23 1.707-3.23 4.526 0 6.199 5.06 20.552 9.319 26.43 2.208 3.049 4.014 6.148 4.014 6.887 0 1.735-2.264 1.743-3.333.012-2.089-3.38-3.086-.363-3.857 11.667-.458 7.15-1.182 16.099-1.61 19.887-.726 6.446-.489 7.2 3.693 11.764 7.865 8.582 27.254 12.55 41.711 8.537m.73-33.505c-1.834-.737-6.934-1.717-11.334-2.178-8.439-.885-10.76-3.186-4-3.968 5.745-.664 18.04 2.348 18.917 4.635 1.045 2.722.257 3.054-3.584 1.51m32.71-2.279c-2.085-3.374 9.1-6.393 16.542-4.465 7.46 1.933 6.721 4.423-1.04 3.504-3.654-.433-8.483-.145-10.731.639-2.25.784-4.396.929-4.77.322m-13.375 5.7c1.886-2.579 1.038-7.447-1.172-6.723-1.623.532-2.935 8.952-1.395 8.952.515 0 1.67-1.003 2.567-2.228m-63.591-65.804c6.25-3.81 12.93-19.967 8.255-19.967-3.241 0-.854-2.25 4.29-4.041 5.918-2.062 11.71-8.8 11.71-13.621 0-4.252-4.188-11.884-6.115-11.145-3.711 1.424.099-11.48-5.267-12.248-4.567-.654-6.2 6.388-13.442 6.388-9.561 0-15.487 11.707-10.655 21.05 2.852 5.516 2.73 6.053-1.157 5.077-2.765-.694-3.836-.012-6.577 4.189-8.844 13.553-3.984 26.815 9.88 26.96 2.567.026 6.652-1.162 9.078-2.642m128.255-39.427c0-.924-2.137-3.44-4.749-5.594l-4.749-3.914-8.25 1.827c-4.539 1.006-15.902 2.214-25.252 2.686s-17 1.039-17 1.26c3.496 9.673 7.278 19.244 10.985 28.84 20.757-1.004 49.015-22.038 49.015-25.105m-98.733 7.712c6.339-14.624 6.253-16.182-.9-16.232-2.636-.018-2.822.362-1.667 3.4.715 1.881 1.3 4.905 1.3 6.72 0 5.017-4.964 13.675-9.382 16.362-4.407 2.68-3.793 4.491 1.319 3.893 2.894-.34 4.21-2.335 9.33-14.143M80.684 363c.01-4.217.58-8.865 1.268-10.328.828-1.76-1.21-.701-6.017 3.127-3.998 3.183-7.268 6.456-7.268 7.274 0 1.656 8.232 7.592 10.53 7.593.898 0 1.477-2.98 1.487-7.666m129.582-13.391c38.981-10.732 42.784-49.538 17.876-72.598-33.06-30.608-103.641-37.23-141.229-18.876-18.325 8.947-29.341 23.596-30.597 40.686-1.529 20.792 11.75 37.422 34.683 43.437 8.858 2.323 8.877 2.322 12.023-.633 5.455-5.125 14.311-2.787 14.311 3.777 0 1.543 1.182 2.823 3 3.25 22.12 5.185 72.624 5.723 89.933.957m1.354-70.681c12.063-1.213 16.979 26.579 5.73 32.395-20.285 10.49-20.527-30.907-5.73-32.395m48.994-67.203L253.27 202l1.031-9.333c.567-5.134 1.002-18.634.966-30-.176-55.974-33.49-59.384-54.279-56.056-41.8 6.692-78.584 66.05-45.586 82.722 17.118 8.65 49.074 2.437 65.522-25.9 4.21-7.254 6.612-8.858 7.968-5.323 1.21 3.153-5.195 15.121-12.353 23.083-23.191 25.794-72.024 24.043-79.3-2.842-5.665-20.938 9.988-50.8 35.427-67.586l9.333-6.159.855-7.97c2.6-24.23.438-49.505-5.183-60.572-9.086-17.888-46.845-31.08-72.587 32.888-5.789 14.384-14.097 43.676-19.074 67.252-4.276 20.252-4.279 20.085.283 18.351 18.54-7.05 34.578 9.115 24.726 25.812l-2.757 4.673 3.356 6.782c10.67 21.56-13.872 29.635-26.51 21.059l-4.596-3.12-4.542 3.113c-11.1 7.714-22.059 3.91-30.617-4.648l-2.756 3.87c-1.516 2.13-4.853 8.41-7.416 13.957-14.498 31.378-12.964 61.298 4.351 84.886 4.402 5.997 17.51 17.795 18.581 16.725.235-.235-1.195-3.704-3.177-7.71-10.518-21.252.568-52.323 29.387-66.35 30.422-14.806 82.113-14.208 117.676 1.361 33.884 14.835 50.455 37.555 45.915 62.953-.795 4.445-2.859 10.632-4.586 13.749-1.728 3.116-2.652 5.666-2.054 5.666 35.01-14.906 59.344-72.619 19.339-125.607m-186.829-2.393c7.473-4.739 7.767-4.775 10.887-1.327 5.71 6.31 19.45 6.078 23.99-.405 3.792-5.413 2.517-10.982-4.811-21.017-1.214-1.662-.83-2.829 1.898-5.772 16.096-17.368-11.324-33.348-25.104-18.122-2.314 2.557-2.413 2.538-6.801-1.315-11.09-9.737-27.177-5.065-27.177 7.894 0 4.315.956 6.449 4.797 10.7l4.796 5.31c-4.497 4.497-16.262 18.178-1.893 25.976 5.862 3.181 12.39 2.535 19.418-1.922"/><path d="M211.62 278.929c12.063-1.213 16.979 26.579 5.73 32.395-20.285 10.49-20.527-30.907-5.73-32.395M90.942 269.71c-11.762-2.94-20.634 23.853-10.342 31.23 18.56 13.307 24.77-27.624 10.342-31.23"/><ellipse cx="78.523" cy="185.052" fill-rule="evenodd" rx="14.462" ry="12.336" style="font-variation-settings:normal;-inkscape-stroke:none"/><ellipse cx="78.523" cy="185.052" fill="#fff33e" fill-rule="evenodd" rx="11.537" ry="9.84" style="font-variation-settings:normal;-inkscape-stroke:none"/><ellipse cx="148.463" cy="305.028" fill="#fff33e" fill-rule="evenodd" rx="9.542" ry="5.752" style="font-variation-settings:normal;-inkscape-stroke:none"/><path d="M134.121 330.255c-2.454.21 3.126 7.21 13.568 6.496 12.916-1.854 16.713-12.928 9.665-6.678-4.472 4.257-15.152 5.029-20.19 1.46-1.476-.97-2.476-1.326-3.043-1.278"/><ellipse cx="128.549" cy="301.381" fill="#f9d4ef" fill-opacity=".686" fill-rule="evenodd" rx="14.833" ry="7.416" style="font-variation-settings:normal;-inkscape-stroke:none" transform="rotate(7.748)"/><ellipse cx="-197.289" cy="332.39" fill="#f9d4ef" fill-opacity=".686" fill-rule="evenodd" rx="14.833" ry="7.416" style="font-variation-settings:normal;-inkscape-stroke:none" transform="scale(-1 1)rotate(2.169)"/></g><text xml:space="preserve" x="688.912" y="204.234" fill="#fff" fill-rule="evenodd" font-family="Magic Bubble" font-size="192" style="-inkscape-font-specification:&quot;Magic Bubble&quot;;text-align:center" text-anchor="middle"><tspan x="688.912" y="204.234">To Auri</tspan></text><text xml:space="preserve" x="709.414" y="1651.255" fill="#fff" fill-rule="evenodd" stroke-width=".846" font-family="Magic Bubble" font-size="162.486" style="-inkscape-font-specification:&quot;Magic Bubble&quot;;text-align:center" text-anchor="middle"><tspan x="709.414" y="1651.255">You&apos;re a cute girl!</tspan><tspan x="709.414" y="1854.362">Just like me</tspan></text></svg>