<?xml version="1.0" encoding="UTF-8" standalone="no"?>
<svg
   xml:space="preserve"
   width="500"
   height="1000"
   version="1.1"
   id="svg27"
   sodipodi:docname="wii-remote-controller-dark-mode-01.svg"
   inkscape:version="1.4.2 (ebf0e940d0, 2025-05-08)"
   xmlns:inkscape="http://www.inkscape.org/namespaces/inkscape"
   xmlns:sodipodi="http://sodipodi.sourceforge.net/DTD/sodipodi-0.dtd"
   xmlns="http://www.w3.org/2000/svg"
   xmlns:svg="http://www.w3.org/2000/svg"><defs
     id="defs27" /><sodipodi:namedview
     id="namedview27"
     pagecolor="#ffffff"
     bordercolor="#000000"
     borderopacity="0.25"
     inkscape:showpageshadow="2"
     inkscape:pageopacity="0.0"
     inkscape:pagecheckerboard="0"
     inkscape:deskcolor="#d1d1d1"
     inkscape:zoom="0.681"
     inkscape:cx="281.93833"
     inkscape:cy="442.73128"
     inkscape:window-width="1536"
     inkscape:window-height="888"
     inkscape:window-x="0"
     inkscape:window-y="0"
     inkscape:window-maximized="1"
     inkscape:current-layer="svg27" /><path
     d="M249.874 38.867c-75.448-.225-79.003-.177-83.214 1.146-12.841 4.322-22.346 12.616-26.823 25.118-.568 1.59-.932 4.28-.935 5.969-1.168 285.934-.506 571.866 0 857.8.003 1.689.367 4.38.935 5.969 4.477 12.502 13.982 20.796 26.823 25.118 4.21 1.323 7.766 1.371 83.214 1.146h.252c75.448.225 79.003.177 83.214-1.146 12.841-4.322 22.346-12.616 26.823-25.118.568-1.59.932-4.28.935-5.969 1.168-285.934.506-571.866 0-857.8-.003-1.689-.367-4.38-.935-5.969-4.477-12.502-13.982-20.796-26.823-25.118-4.21-1.323-7.766-1.371-83.214-1.146H250z"
     style="display:inline;fill:#dfdfe7;fill-opacity:1;stroke-width:.734223"
     id="path1" /><path
     d="M238.416 132.216a8.853 8.862 0 0 0-8.875 8.886v23.837a3.126 3.129 0 0 1-3.129 3.132h-23.814a8.853 8.862 0 0 0-8.876 8.883v23.191a8.853 8.862 0 0 0 8.876 8.883h23.814a3.126 3.129 0 0 1 3.129 3.13v23.839a8.853 8.862 0 0 0 8.875 8.885h23.171a8.853 8.862 0 0 0 8.873-8.885v-23.839a3.126 3.129 0 0 1 3.128-3.13h23.818a8.853 8.862 0 0 0 8.872-8.883v-23.191a8.853 8.862 0 0 0-8.873-8.883h-23.818a3.126 3.129 0 0 1-3.13-3.132v-23.838a8.853 8.862 0 0 0-8.87-8.884z"
     style="fill:#000;fill-opacity:1;fill-rule:evenodd;stroke:none;stroke-width:3.76568;stroke-miterlimit:7;paint-order:stroke markers fill"
     id="path2" /><circle
     cx="190.902"
     cy="82.104"
     r="17.865"
     style="font-variation-settings:normal;vector-effect:none;fill:#000;fill-opacity:1;fill-rule:evenodd;stroke-width:35.7178;stroke-linecap:butt;stroke-linejoin:miter;stroke-miterlimit:4;stroke-dasharray:none;stroke-dashoffset:0;stroke-opacity:1;-inkscape-stroke:none;stop-color:#000"
     id="circle2" /><circle
     cx="250"
     cy="479.468"
     r="17.803"
     style="font-variation-settings:normal;vector-effect:none;fill:#000;fill-opacity:1;fill-rule:evenodd;stroke-width:46.7085;stroke-linecap:butt;stroke-linejoin:miter;stroke-miterlimit:4;stroke-dasharray:none;stroke-dashoffset:0;stroke-opacity:1;-inkscape-stroke:none;stop-color:#000"
     id="circle3" /><circle
     cx="250"
     cy="326.074"
     r="35.282"
     style="font-variation-settings:normal;vector-effect:none;fill:#000;fill-opacity:1;fill-rule:evenodd;stroke-width:34.7918;stroke-linecap:butt;stroke-linejoin:miter;stroke-miterlimit:4;stroke-dasharray:none;stroke-dashoffset:0;stroke-opacity:1;-inkscape-stroke:none;stop-color:#000"
     id="circle4" /><circle
     cx="312.759"
     cy="479.468"
     r="17.803"
     style="font-variation-settings:normal;vector-effect:none;fill:#000;fill-opacity:1;fill-rule:evenodd;stroke-width:46.7085;stroke-linecap:butt;stroke-linejoin:miter;stroke-miterlimit:4;stroke-dasharray:none;stroke-dashoffset:0;stroke-opacity:1;-inkscape-stroke:none;stop-color:#000"
     id="circle5" /><circle
     cx="-187.241"
     cy="479.468"
     r="17.803"
     style="font-variation-settings:normal;vector-effect:none;fill:#000;fill-opacity:1;fill-rule:evenodd;stroke-width:46.7085;stroke-linecap:butt;stroke-linejoin:miter;stroke-miterlimit:4;stroke-dasharray:none;stroke-dashoffset:0;stroke-opacity:1;-inkscape-stroke:none;stop-color:#000"
     transform="scale(-1 1)"
     id="circle6" /><g
     style="fill:#000;fill-opacity:1"
     transform="translate(103.841 -51.461)scale(.73528)"
     id="g26"><circle
       cx="198.779"
       cy="1045.658"
       r="33.092"
       style="font-variation-settings:normal;opacity:1;vector-effect:none;fill:#000;fill-opacity:1;fill-rule:evenodd;stroke-width:86.8216;stroke-linecap:butt;stroke-linejoin:miter;stroke-miterlimit:4;stroke-dasharray:none;stroke-dashoffset:0;stroke-opacity:1;-inkscape-stroke:none;stop-color:#000"
       id="circle25" /><circle
       cx="198.779"
       cy="1155.952"
       r="33.092"
       style="font-variation-settings:normal;opacity:1;vector-effect:none;fill:#000;fill-opacity:1;fill-rule:evenodd;stroke-width:86.8216;stroke-linecap:butt;stroke-linejoin:miter;stroke-miterlimit:4;stroke-dasharray:none;stroke-dashoffset:0;stroke-opacity:1;-inkscape-stroke:none;stop-color:#000"
       id="circle26" /></g></svg>
