<?xml version="1.0" encoding="UTF-8" standalone="no"?>
<svg
   xml:space="preserve"
   width="500"
   height="1000"
   version="1.1"
   id="svg28"
   sodipodi:docname="wii-remote-controller-light-mode-01.svg"
   inkscape:version="1.4.2 (ebf0e940d0, 2025-05-08)"
   xmlns:inkscape="http://www.inkscape.org/namespaces/inkscape"
   xmlns:sodipodi="http://sodipodi.sourceforge.net/DTD/sodipodi-0.dtd"
   xmlns="http://www.w3.org/2000/svg"
   xmlns:svg="http://www.w3.org/2000/svg"><defs
     id="defs28" /><sodipodi:namedview
     id="namedview28"
     pagecolor="#ffffff"
     bordercolor="#000000"
     borderopacity="0.25"
     inkscape:showpageshadow="2"
     inkscape:pageopacity="0.0"
     inkscape:pagecheckerboard="0"
     inkscape:deskcolor="#d1d1d1"
     inkscape:zoom="0.681"
     inkscape:cx="171.80617"
     inkscape:cy="709.98532"
     inkscape:window-width="1536"
     inkscape:window-height="888"
     inkscape:window-x="0"
     inkscape:window-y="0"
     inkscape:window-maximized="1"
     inkscape:current-layer="svg28" /><path
     d="m 249.87349,38.866677 c -75.44708,-0.224995 -79.00363,-0.177202 -83.21458,1.145567 -12.84019,4.322711 -22.34516,12.615934 -26.82154,25.118635 -0.56911,1.58894 -0.93234,4.280065 -0.93528,5.969003 -1.16836,285.933478 -0.50734,571.864758 0,857.798238 0.003,1.68894 0.36617,4.38006 0.93528,5.969 4.47565,12.5027 13.98135,20.79593 26.82154,25.11864 4.21095,1.32277 7.76676,1.37056 83.21458,1.14556 h 0.2522 c 75.44708,0.225 79.0029,0.17721 83.21384,-1.14556 12.84093,-4.32345 22.3459,-12.61594 26.82228,-25.11864 0.56911,-1.58894 0.93234,-4.28006 0.93528,-5.969 1.16762,-285.93348 0.50661,-571.86476 0,-857.798238 -0.003,-1.688938 -0.36617,-4.380063 -0.93528,-5.969003 -4.47638,-12.502701 -13.98135,-20.795924 -26.82228,-25.118635 -4.21094,-1.322769 -7.76676,-1.370562 -83.21384,-1.145567 h -0.12647 z"
     style="display:inline;fill:#000000;fill-opacity:1;stroke-width:0.734222"
     id="path1" /><path
     d="m 238.41562,132.21562 a 8.8527712,8.8615946 0 0 0 -8.87483,8.88586 v 23.83778 a 3.12494,3.1286164 0 0 1 -3.12935,3.13155 h -23.81351 a 8.8527712,8.8615946 0 0 0 -8.8763,8.88219 v 23.19146 a 8.8527712,8.8615946 0 0 0 8.8763,8.88219 h 23.81351 a 3.12494,3.1286164 0 0 1 3.12935,3.13155 v 23.83778 a 8.8527712,8.8615946 0 0 0 8.87483,8.88512 h 23.17088 a 8.8527712,8.8615946 0 0 0 8.87336,-8.88512 V 212.1582 a 3.12494,3.1286164 0 0 1 3.12715,-3.13082 h 23.81866 a 8.8527712,8.8615946 0 0 0 8.87188,-8.88218 V 176.953 a 8.8527712,8.8615946 0 0 0 -8.87335,-8.88219 h -23.81793 a 3.12494,3.1286164 0 0 1 -3.12862,-3.13229 v -23.83778 a 8.8527712,8.8615946 0 0 0 -8.87115,-8.88365 z"
     style="fill:#dfdfe7;fill-opacity:1;fill-rule:evenodd;stroke:none;stroke-width:3.76568;stroke-miterlimit:7;paint-order:stroke markers fill"
     id="path2" /><circle
     cx="190.90182"
     cy="82.10408"
     r="17.865099"
     style="font-variation-settings:normal;vector-effect:none;fill:#dfdfe7;fill-opacity:1;fill-rule:evenodd;stroke-width:35.7177;stroke-linecap:butt;stroke-linejoin:miter;stroke-miterlimit:4;stroke-dasharray:none;stroke-dashoffset:0;stroke-opacity:1;-inkscape-stroke:none;stop-color:#000000"
     id="circle2" /><circle
     cx="249.99922"
     cy="479.46704"
     r="17.802599"
     style="font-variation-settings:normal;vector-effect:none;fill:#dfdfe7;fill-opacity:1;fill-rule:evenodd;stroke-width:46.7084;stroke-linecap:butt;stroke-linejoin:miter;stroke-miterlimit:4;stroke-dasharray:none;stroke-dashoffset:0;stroke-opacity:1;-inkscape-stroke:none;stop-color:#000000"
     id="circle3" /><circle
     cx="249.99922"
     cy="326.07294"
     r="35.281677"
     style="font-variation-settings:normal;vector-effect:none;fill:#dfdfe7;fill-opacity:1;fill-rule:evenodd;stroke-width:34.7918;stroke-linecap:butt;stroke-linejoin:miter;stroke-miterlimit:4;stroke-dasharray:none;stroke-dashoffset:0;stroke-opacity:1;-inkscape-stroke:none;stop-color:#000000"
     id="circle4" /><circle
     cx="312.7583"
     cy="479.46704"
     r="17.802599"
     style="font-variation-settings:normal;vector-effect:none;fill:#dfdfe7;fill-opacity:1;fill-rule:evenodd;stroke-width:46.7084;stroke-linecap:butt;stroke-linejoin:miter;stroke-miterlimit:4;stroke-dasharray:none;stroke-dashoffset:0;stroke-opacity:1;-inkscape-stroke:none;stop-color:#000000"
     id="circle5" /><circle
     cx="-187.24014"
     cy="479.46704"
     r="17.802599"
     style="font-variation-settings:normal;vector-effect:none;fill:#dfdfe7;fill-opacity:1;fill-rule:evenodd;stroke-width:46.7084;stroke-linecap:butt;stroke-linejoin:miter;stroke-miterlimit:4;stroke-dasharray:none;stroke-dashoffset:0;stroke-opacity:1;-inkscape-stroke:none;stop-color:#000000"
     transform="scale(-1,1)"
     id="circle6" /><g
     style="fill:#dfdfe7;fill-opacity:1"
     id="g26"
     transform="matrix(0.73528,0,0,0.73528,103.841,-51.461)"><circle
       cx="198.77901"
       cy="1045.658"
       r="33.091999"
       style="font-variation-settings:normal;opacity:1;vector-effect:none;fill:#dfdfe7;fill-opacity:1;fill-rule:evenodd;stroke-width:86.8216;stroke-linecap:butt;stroke-linejoin:miter;stroke-miterlimit:4;stroke-dasharray:none;stroke-dashoffset:0;stroke-opacity:1;-inkscape-stroke:none;stop-color:#000000"
       id="circle25" /><circle
       cx="198.77901"
       cy="1155.952"
       r="33.091999"
       style="font-variation-settings:normal;opacity:1;vector-effect:none;fill:#dfdfe7;fill-opacity:1;fill-rule:evenodd;stroke-width:86.8216;stroke-linecap:butt;stroke-linejoin:miter;stroke-miterlimit:4;stroke-dasharray:none;stroke-dashoffset:0;stroke-opacity:1;-inkscape-stroke:none;stop-color:#000000"
       id="circle26" /></g></svg>
