<svg xmlns="http://www.w3.org/2000/svg" xml:space="preserve" width="1000" height="500" viewBox="0 0 1000 500"><path d="M198.617 54.616a6 6 0 0 0-1.752.336c-4.704 1.724-12.883 4.649-19.957 6.794-59.303 17.986-84.984 28.969-85.087 64.15-.001.453-.197 1.072-.463 1.502h-.09q-.073.118-.15.214c-1.766 2.167-3.48 4.364-5.456 6.34-1.524 1.524-2.287 3.587-2.287 5.742.928 61.401.637 122.845 5.831 184.077 2.302 20.527 6.768 40.647 15.827 59.814 13.17 25.551 19.561 30.42 61.972 47.175l35.783 14.138a7 7 0 0 0 2.596.495h.404c.72-.149 1.112-.564 1.743-.999.699-.48 1.358-.667 1.979-.64.798.035 1.531.42 2.21.976.384.315 1.096.628 1.588.654.02 0 .054.005.091.005h.023l221.284-.15 64.227-.045 285.512.195h.023c.037 0 .072-.005.09-.005.493-.026 1.205-.339 1.59-.654.678-.555 1.411-.94 2.21-.975.62-.028 1.28.159 1.978.64.631.434 1.023.85 1.743.998h.404a7 7 0 0 0 2.596-.495l35.783-14.138c42.411-16.755 48.802-21.624 61.972-47.175 2.715-5.267 2.825-6.05 3.045-6.05 11.622-25.76 14.834-56.955 14.914-82.89h-.009v-8.991h3.041a2.8 2.8 0 0 0 2.8-2.8v-52.54a2.334 2.334 0 0 0-2.191-2.33l-.477-.03c.236-.371.362-.8.363-1.24v-8.351a2.31 2.31 0 0 0-1.716-2.233l-.222-.06h1.443a2.8 2.8 0 0 0 2.8-2.795v-52.54a2.335 2.335 0 0 0-2.191-2.333l-3.65-.227v-.254h1.866a1.84 1.84 0 0 0 1.843-1.843v-16.384a8.12 8.12 0 0 0-2.379-5.742l-1.33-1.33-4.126-5.01c-.34-.414-.61-1.18-.612-1.716-.103-35.181-25.784-46.164-85.087-64.15-7.074-2.145-15.253-5.07-19.957-6.794a6 6 0 0 0-1.752-.336c-1.856-.09-3.924.528-5.265 1.597a27 27 0 0 1-2.074 1.52c-.13.085-.524.165-1.167.246-.524.066-.953.536-.953 1.067v3.885c0 .21-.059.404-.159.572a4.8 4.8 0 0 0-1.842-1.398 7 7 0 0 0-1.866-.472c-.3-.094-.678-.11-1.089-.11q-18.946.045-37.894.06v-.826c0-1.418-1.181-2.56-2.646-2.56h-25.793c-1.464 0-2.642 1.142-2.642 2.56v.83l-11.074-.004v-.826c0-1.418-1.177-2.56-2.641-2.56h-25.798c-1.465 0-2.642 1.142-2.642 2.56v.803c-58.242-.06-116.484-.176-174.726-.036h-.045c-95.301-.18-190.601.164-285.902 0-.41-.001-.79.015-1.09.108-.64.07-1.268.23-1.865.473-.78.324-1.396.85-1.842 1.397a1.1 1.1 0 0 1-.16-.571v-3.886c0-.53-.428-1-.952-1.066-.643-.081-1.037-.161-1.167-.245-.66-.427-1.383-.97-2.074-1.52-1.341-1.07-3.41-1.688-5.265-1.598" style="fill:#dfdfe7;fill-opacity:1;stroke:none;stroke-width:12.781;stroke-linecap:round"/><g style="fill:#000"><path d="M357.117 83.724c-6.286 0-11.393 5.107-11.393 11.393s5.107 11.394 11.393 11.394 11.394-5.107 11.394-11.394c0-6.286-5.107-11.393-11.394-11.393" style="baseline-shift:baseline;display:inline;overflow:visible;vector-effect:none;fill:#000;fill-opacity:1;stroke-width:.354245;stop-color:#000" transform="translate(4.891 8.298)scale(2.32381)"/><path d="M345.008 113.531a3.28 3.28 0 0 0-3.276 3.276v24.22a3.28 3.28 0 0 0 3.276 3.274h24.22a3.277 3.277 0 0 0 3.274-3.274v-24.22a3.28 3.28 0 0 0-3.273-3.276zm0 1.04h24.22a2.22 2.22 0 0 1 2.237 2.236v24.22a2.22 2.22 0 0 1-2.236 2.237h-24.221a2.22 2.22 0 0 1-2.237-2.237v-24.22a2.22 2.22 0 0 1 2.237-2.237" style="baseline-shift:baseline;display:inline;overflow:visible;vector-effect:none;fill:#000;fill-opacity:1;fill-rule:evenodd;stroke-linecap:round;stroke-miterlimit:7;paint-order:stroke markers fill;stop-color:#000" transform="translate(4.891 8.298)scale(2.32381)"/><g style="fill:#000" transform="rotate(-179.8 26.815 -217.794)scale(1.89742 -1.89742)"><rect width="13.285" height="5.299" x="-65.983" y="384.896" rx="2.498" style="fill:#000;fill-opacity:1;fill-rule:evenodd;stroke:none;stroke-width:.927752;stroke-linecap:round;stroke-miterlimit:7;paint-order:stroke markers fill"/><rect width="13.285" height="5.299" x="-66.047" y="403.425" rx="2.498" style="fill:#000;fill-opacity:1;fill-rule:evenodd;stroke:none;stroke-width:.927752;stroke-linecap:round;stroke-miterlimit:7;paint-order:stroke markers fill"/></g><g style="fill:#000;fill-opacity:1"><g style="fill:#000;fill-opacity:1"><path d="M893.549 156.918c-6.868 0-12.452 5.585-12.452 12.452s5.584 12.45 12.452 12.45c6.867 0 12.45-5.583 12.45-12.45s-5.583-12.452-12.45-12.452m-1.089-54.843c-6.867 0-12.452 5.584-12.452 12.452 0 6.867 5.585 12.45 12.452 12.45 6.868 0 12.45-5.583 12.45-12.45 0-6.868-5.582-12.452-12.45-12.452" style="baseline-shift:baseline;display:inline;overflow:visible;vector-effect:none;fill:#000;fill-opacity:1;stroke-width:.533401;stop-color:#000" transform="translate(55.151 18.689)scale(.90313)"/></g><g style="fill:#000;fill-opacity:1"><path d="M893.549 156.918c-6.868 0-12.452 5.585-12.452 12.452s5.584 12.45 12.452 12.45c6.867 0 12.45-5.583 12.45-12.45s-5.583-12.452-12.45-12.452m-1.089-54.843c-6.867 0-12.452 5.584-12.452 12.452 0 6.867 5.585 12.45 12.452 12.45 6.868 0 12.45-5.583 12.45-12.45 0-6.868-5.582-12.452-12.45-12.452" style="baseline-shift:baseline;display:inline;overflow:visible;vector-effect:none;fill:#000;fill-opacity:1;stroke-width:.533401;stop-color:#000" transform="rotate(90 824.727 165.116)scale(.90313)"/></g></g><path d="M137.333 120.408c-14.61 0-26.476 11.868-26.476 26.478 0 14.607 11.866 26.475 26.476 26.475 14.608 0 26.477-11.868 26.477-26.475s-11.866-26.478-26.477-26.478" style="baseline-shift:baseline;display:inline;overflow:visible;vector-effect:none;fill:#000;fill-opacity:1;stroke-width:.823222;stop-color:#000"/><path d="M68.647 79.624c-8.548 0-15.493 6.944-15.493 15.493s6.945 15.494 15.493 15.494 15.494-6.945 15.494-15.494-6.945-15.493-15.494-15.493" style="baseline-shift:baseline;display:inline;overflow:visible;vector-effect:none;fill:#000;fill-opacity:1;stroke-width:.481724;stop-color:#000" transform="translate(4.891 8.298)scale(2.32381)"/><g style="fill:#000" transform="rotate(-44.606 12.561 -1.813)scale(2.32381)"><rect width="9.526" height="3.799" x="212.782" y="266.729" rx="1.792" style="opacity:1;fill:#000;fill-opacity:1;fill-rule:evenodd;stroke:none;stroke-width:.665244;stroke-linecap:round;stroke-miterlimit:7;paint-order:stroke markers fill"/><rect width="9.526" height="3.799" x="204.033" y="275.599" rx="1.792" style="opacity:1;fill:#000;fill-opacity:1;fill-rule:evenodd;stroke:none;stroke-width:.665244;stroke-linecap:round;stroke-miterlimit:7;paint-order:stroke markers fill"/></g><path d="M94.158 25.49H331.96a2.543 2.543 0 0 1 2.549 2.549v155.157a2.543 2.543 0 0 1-2.549 2.55H94.16a2.543 2.543 0 0 1-2.55-2.55V28.04a2.543 2.543 0 0 1 2.55-2.549" style="opacity:1;fill:#000;fill-opacity:1;stroke-width:5.09671;stroke-linecap:round" transform="translate(4.891 8.298)scale(2.32381)"/><g style="fill:#000;fill-opacity:1" transform="rotate(44.606 487.439 1217.13)scale(-2.32381 2.32381)"><rect width="9.526" height="3.799" x="212.782" y="266.729" rx="1.792" style="opacity:1;fill:#000;fill-opacity:1;fill-rule:evenodd;stroke:none;stroke-width:.665244;stroke-linecap:round;stroke-miterlimit:7;paint-order:stroke markers fill"/><rect width="9.526" height="3.799" x="204.033" y="275.599" rx="1.792" style="opacity:1;fill:#000;fill-opacity:1;fill-rule:evenodd;stroke:none;stroke-width:.665244;stroke-linecap:round;stroke-miterlimit:7;paint-order:stroke markers fill"/></g></g></svg>