<svg xmlns="http://www.w3.org/2000/svg" xmlns:xlink="http://www.w3.org/1999/xlink" xml:space="preserve" width="210mm" height="297mm" viewBox="0 0 210 297"><defs><linearGradient id="c"><stop offset="0" stop-color="#f3d9d5"/><stop offset="1" stop-color="#d59293"/></linearGradient><linearGradient id="b"><stop offset="0" stop-color="#412117"/><stop offset="1" stop-color="#331a12"/></linearGradient><linearGradient id="a"><stop offset="0" stop-color="#f3d9d5"/><stop offset="1" stop-color="#da9e9f"/></linearGradient><linearGradient xlink:href="#a" id="e" x1="346.205" x2="354.402" y1="265.989" y2="266.737" gradientTransform="translate(-237.465 -230.578)" gradientUnits="userSpaceOnUse"/><linearGradient xlink:href="#a" id="f" x1="346.205" x2="354.402" y1="265.989" y2="266.737" gradientTransform="translate(-229.895 -238.397)" gradientUnits="userSpaceOnUse"/><linearGradient xlink:href="#a" id="g" x1="346.205" x2="354.402" y1="265.989" y2="266.737" gradientTransform="translate(-222.326 -246.216)" gradientUnits="userSpaceOnUse"/><linearGradient xlink:href="#b" id="d" x1="71.717" x2="78.522" y1="80.583" y2="93.599" gradientUnits="userSpaceOnUse"/><linearGradient xlink:href="#b" id="h" x1="71.717" x2="78.522" y1="80.583" y2="93.599" gradientTransform="translate(69.316 -1.6)" gradientUnits="userSpaceOnUse"/><linearGradient xlink:href="#a" id="i" x1="346.205" x2="354.402" y1="265.989" y2="266.737" gradientTransform="translate(-237.465 -230.578)" gradientUnits="userSpaceOnUse"/><linearGradient xlink:href="#a" id="j" x1="346.205" x2="354.402" y1="265.989" y2="266.737" gradientTransform="translate(-229.895 -238.397)" gradientUnits="userSpaceOnUse"/><linearGradient xlink:href="#a" id="k" x1="346.205" x2="354.402" y1="265.989" y2="266.737" gradientTransform="translate(-222.326 -246.216)" gradientUnits="userSpaceOnUse"/><linearGradient xlink:href="#c" id="l" x1="282.477" x2="336.22" y1="233.103" y2="331.388" gradientTransform="translate(-44.293 11.644)scale(.53615)" gradientUnits="userSpaceOnUse"/></defs><path fill="#d4c7c0" d="M99.534 244.81c-2.062-.113-6.316-.444-9.451-.736-8.84-.516-18.908-2.71-26.489-4.928-3.79-1.11-10.023-3.035-13.104-4.858-2.92-1.727-3.727-2.594-7.99-5.04-1.258-.71-6.15-4.677-7.72-6.64-.793-.994-1.645-2.031-1.892-2.306-.248-.274-.924-1.247-1.504-2.163a461 461 0 0 0-1.628-2.554c-.78-1.21-2.147-4.157-3.418-7.376a487 487 0 0 0-1.523-3.815c-2.502-6.122-2.46-5.986-3.403-11.32C10.63 107.363 57.887 46.095 81.544 51.918c7.603 1.634 10.377 7.046 16.183 11.523 15.864 7.95 15.394-12.419 31.881-12.702 33.563-.577 90.36 134.891 41.589 172.037-.141.108-1.423 1.045-2.848 2.082s-2.95 2.207-3.393 2.601c-.753.67-2.301 1.65-8.535 5.397-1.41.848-3.415 1.93-4.456 2.403-2.127.97-2.256 1.094-2.87 2.754-.947 2.568-2.47 3.936-4.511 4.055-2.157.126-4.143-.324-5.408-1.225-1.344-.96-1.252-.958-4.1-.096-4.917 1.49-10.533 2.74-14.978 3.332a76 76 0 0 0-2.698.399c-2.891.56-10.944.71-17.866.332" overflow="visible"/><path fill="#b29a8e" d="M129.601 50.377c-8.392.144-12.521 5.438-16.43 9.552-1.953 2.057-3.856 3.814-6.2 4.578-2.34.76-5.157.57-9.051-1.376-2.854-2.206-4.986-4.658-7.37-6.787-2.391-2.137-5.053-3.944-8.92-4.777-6.084-1.497-13.57 1.314-21.207 7.618s-15.447 16.13-22.178 28.816c-13.46 25.371-22.591 62.188-17.19 105.12l.001.008.002.008c.941 5.332.922 5.272 3.424 11.393.255.624.941 2.343 1.52 3.812 1.277 3.23 2.63 6.166 3.45 7.439a428 428 0 0 1 1.627 2.551c.586.925 1.229 1.865 1.541 2.211.22.245 1.088 1.3 1.88 2.29.803 1.004 1.983 2.24 3.129 3.322s2.228 1.999 2.932 2.396v.001a162 162 0 0 0 7.224 4.048c.829.73 1.683 1.443 2.225 2.401.326.622.51 1.46.816 3.104.582 3.125 1.852 8.104 4.954 8.464 3.936.457 5.95-1.975 6.909-5.311.167-.584.335-1.222.499-1.882 8.427 2.942 17.185 4.696 26.882 5.058 3.138.292 7.376.623 9.445.736 6.943.378 14.952.244 17.954-.338.313-.06 1.546-.245 2.676-.396 4.472-.597 10.098-1.85 15.036-3.345 1.424-.43 2.11-.63 2.5-.62a.9.9 0 0 1 .383.08 55 55 0 0 1-.21-.79 1 1 0 0 0-.156-.012c-.612-.014-1.303.222-2.726.652-4.899 1.484-10.503 2.73-14.922 3.321-1.138.151-2.334.327-2.72.402-2.779.538-10.874.703-17.776.326-2.05-.112-6.307-.444-9.438-.735h-.01l-.01-.002c-9.68-.361-18.407-2.115-26.814-5.065-.177-.069 1.313-7.539 1.313-7.539l-.383-.068s-6.16 14.659-8.315 14.519c-.815-.095-1.573-.68-2.283-1.947-1.732-3.091-1.74-7.244-2.706-9.085-.388-.74-7.64-5.208-9.986-6.6l-.002-.002-.004-.001c-.555-.313-1.666-1.23-2.792-2.293s-2.294-2.29-3.06-3.25c-.797-.995-1.635-2.018-1.909-2.321-.182-.203-.893-1.209-1.466-2.114a457 457 0 0 0-1.63-2.558c-.74-1.146-2.119-4.105-3.386-7.313a492 492 0 0 0-1.523-3.818c-2.5-6.116-2.44-5.918-3.38-11.236-5.38-42.778 3.725-79.45 17.113-104.683 6.693-12.617 14.459-22.374 22-28.597 7.54-6.224 14.83-8.889 20.576-7.475l.005.002.004.001c3.73.802 6.255 2.515 8.602 4.611s4.501 4.58 7.438 6.845l.026.021.031.016c4.02 2.015 7.085 2.258 9.63 1.43 2.543-.828 4.527-2.691 6.5-4.768 3.945-4.154 7.824-9.188 15.919-9.327 4.074-.07 8.562 1.934 13.194 5.624 4.63 3.692 9.393 9.057 14.02 15.637 9.255 13.16 17.967 31.173 24.106 50.361 6.138 19.188 9.705 39.55 8.7 57.401s-6.574 33.165-18.656 42.367a550 550 0 0 1-2.84 2.077c-1.43 1.042-2.936 2.191-3.42 2.624-.701.624-2.25 1.612-8.482 5.357-1.398.84-3.41 1.924-4.42 2.385-1.067.485-1.664.764-2.103 1.185a2.4 2.4 0 0 0-.316.372c-.094.426-.19.925-.3 1.524a35 35 0 0 1-.33 1.574q.374-.655.667-1.449c.305-.825.469-1.204.779-1.5.31-.299.84-.567 1.9-1.05 1.07-.488 3.07-1.567 4.495-2.422 6.234-3.748 7.781-4.72 8.588-5.439.398-.354 1.946-1.545 3.366-2.578a513 513 0 0 0 2.854-2.086c12.304-9.37 17.924-24.922 18.938-42.9 1.012-17.977-2.574-38.41-8.733-57.662-6.16-19.25-14.892-37.318-24.202-50.556-4.656-6.62-9.454-12.032-14.163-15.785s-9.337-5.856-13.655-5.782" overflow="visible"/><path fill="#4a403f" d="M109.508 63.66a10.2 10.2 0 0 1-2.217 1.118 2 2 0 0 0-.007.162v14.937c0 .907.612 1.636 1.37 1.636s1.369-.73 1.369-1.636V64.94c0-.52-.2-.98-.515-1.28m-7.072 1.444v14.773c0 .907.61 1.637 1.37 1.637.758 0 1.369-.73 1.369-1.637V65.241c-.847.078-1.755.04-2.739-.137m-3.828-1.243a1.83 1.83 0 0 0-.338 1.079v14.937c0 .907.61 1.636 1.369 1.636.758 0 1.369-.73 1.369-1.636V64.94a2 2 0 0 0-.009-.178 19 19 0 0 1-2.391-.901"/><path fill="#dfb1c0" fill-rule="evenodd" d="M104.706 103.979c-.46.009-.916.106-1.392.28-.532.194-.954.484-1.204.889s-.293.91-.14 1.394c.327 1.03 1.33 1.95 2.401 2.238.576.155 1.188-.052 1.824-.478a4.3 4.3 0 0 0 1.047-1.047c.412-.615.57-1.268.348-1.842-.222-.573-.767-.969-1.498-1.21a4.1 4.1 0 0 0-1.386-.224"/><path fill="#331a12" d="M104.785 96.575c-1.676.047-1.97 1.343-2.049 2.768-.1 2.07-.311 2.427-1.557 2.63-3.025.49-2.917-2.943-4.862-2.516-1.13.248-1.992 2.717 1.45 4.936.8.516 1.113 1.012 1.153 1.82.068 1.396.487 2.367 1.432 3.32 2.82 2.422 6.045 2.423 8.866 0 .944-.953 1.364-1.924 1.432-3.32.04-.808.354-1.304 1.153-1.82 3.442-2.22 2.58-4.688 1.451-4.936-1.946-.427-1.839 3.006-4.863 2.515-1.246-.202-1.456-.56-1.557-2.629.04-1.503-.456-2.643-2.049-2.768m0 7.81c.408 0 .815.08 1.283.24 2.784.99.103 3.798-1.283 3.798s-4.068-2.807-1.283-3.798c.469-.16.876-.24 1.283-.24"/><path fill="url(#d)" stroke="#5f3b34" d="M70.026 96.138c-7.43-2.53-6.309-10.11-1.12-13.44 5.75-3.69 14.382 3.555 10.37 9.86-3.464 5.446-8.913 3.694-9.25 3.58z" transform="translate(27.869 38.622)scale(.72099)"/><path fill="#331a12" d="M151.998 99.47c-.689.357-.876.374-1.054.093-.248-.391-.304-4.546-.07-5.155.48-1.251 23.5.496 23.5 5.44 0 5.3-17.533-2.881-22.376-.377m14.872 9.031c-5.85-1.41-13.412-2.254-14.903-1.662-.733.292-1.106-.57-1.135-2.628-.021-1.484.076-2.075.416-2.517q.442-.577.55-.256c.212.635 9.631-.029 17.823 3.072 2.536.959 3.007 1.84 1.88 3.51-.51.758-.722.867-1.716.888-.624.012-1.936-.171-2.915-.407M58.18 100.62c.635.446.818.488 1.032.233.298-.353.914-4.463.765-5.097-.306-1.305-23.351-2.68-24.019 2.217-.715 5.253 17.762-.488 22.223 2.647m-15.956 6.942c5.986-.609 13.594-.423 14.99.364.688.389 1.174-.416 1.481-2.45.22-1.469.204-2.067-.073-2.55q-.36-.632-.51-.328c-.296.6-9.539-1.329-18.075.638-2.641.608-3.228 1.417-2.336 3.225.403.819.598.956 1.58 1.11.617.097 1.94.092 2.943-.01"/><g fill-rule="evenodd" transform="matrix(.51455 .50505 -.52991 .4889 27.869 38.622)"><rect width="5.21" height="13.692" x="111.727" y="29.313" fill="url(#e)" ry="3.991"/><rect width="5.21" height="13.692" x="119.296" y="21.494" fill="url(#f)" ry="3.991"/><rect width="5.21" height="13.692" x="126.866" y="13.675" fill="url(#g)" ry="3.991"/></g><path fill="url(#h)" stroke="#5f3b34" d="M139.342 94.537c-7.43-2.528-6.309-10.11-1.12-13.44 5.75-3.69 14.382 3.556 10.37 9.86-3.464 5.446-8.914 3.695-9.25 3.58z" transform="translate(27.869 38.622)scale(.72099)"/><g fill-rule="evenodd" transform="matrix(.51455 .50505 -.52991 .4889 85.946 38.622)"><rect width="5.21" height="13.692" x="111.727" y="29.313" fill="url(#i)" ry="3.991"/><rect width="5.21" height="13.692" x="119.296" y="21.494" fill="url(#j)" ry="3.991"/><rect width="5.21" height="13.692" x="126.866" y="13.675" fill="url(#k)" ry="3.991"/></g><path fill="#d4c7c0" d="M136.193 231.854c-.02.004-.036.037-.036.078 0 0 1.873 10.074 3.02 11.699 1.264 1.79 3.25 2.684 5.406 2.434 2.043-.238 3.565-2.954 4.514-8.053.612-3.297.74-3.542 2.868-5.467.207-.187.452-.421.722-.691z" overflow="visible"/><path fill="#b29a8e" d="M153.626 231.346v.29l.292-.29zm-17.496 3.08c.172.843.382 1.835.61 2.858 1.021 4.636 1.97 9.564 7.902 9.286 3.108-.361 4.376-5.354 4.954-8.465.306-1.644.317-.995.643-1.617a3.6 3.6 0 0 1 .379-.575s-1.325-.107-1.633 1.545c-.076.41-1.599 7.77-4.46 8.102-4.778.444-5.663-3.47-6.793-8.5a138 138 0 0 1-.565-2.634z" overflow="visible"/><path fill="#d4c7c0" d="M63.944 230.347c.02.005.035.041.035.087 0 0-1.84 11.138-2.967 12.934-1.242 1.98-3.194 2.97-5.314 2.692-2.006-.262-3.502-3.266-4.434-8.904-.603-3.645-.73-3.917-2.82-6.045a23 23 0 0 1-.71-.765z" overflow="visible"/><path fill="url(#l)" fill-rule="evenodd" d="M88.2 128.745a26.72 26.72 0 0 0-18.955 7.876 26.75 26.75 0 0 0 0 37.911l2.843 2.844 37.911 37.911 37.911-37.911 2.844-2.844a26.75 26.75 0 0 0 0-37.91 26.75 26.75 0 0 0-37.912 0L110 139.464l-2.843-2.844c-5.251-5.25-12.104-7.876-18.956-7.876" transform="translate(27.869 38.622)scale(.72099)"/><path fill="#d99b9b" fill-rule="evenodd" d="M132.752 152.275c-1.446-.04-2.56.027-3.53.36-.971.333-1.8.93-2.289 1.86s-.638 2.194-.176 3.558c.461 1.365 1.535 2.832 3.442 4.251 1.585 1.179 3.745 2.324 5.855 2.66l.507-.506a19.28 19.28 0 0 0 5.424-10.547c-1.079-.323-2.643-.776-4.167-1.08a31 31 0 0 0-5.066-.556"/><path fill="#d4c7c0" d="M135.172 152.275c1.446.04 3.226.19 5.066.556s3.74.951 4.773 1.264c1.031.312 1.195.353 1.33 1.65.136 1.297.245 3.85-.814 5.846-1.06 1.996-3.286 3.436-5.772 3.47-2.485.034-5.228-1.338-7.136-2.757s-2.98-2.886-3.443-4.25c-.461-1.365-.312-2.629.177-3.559s1.317-1.527 2.288-1.86 2.084-.4 3.531-.36" overflow="visible"/><path fill="#b7a595" fill-rule="evenodd" d="M140.673 165.992a.298.38 59.09 0 1-.499.183c-3.98-1.533-8-3.064-10.166-5.607-1.082-1.272-1.686-2.78-1.71-4.19-.026-1.41.563-2.776 1.896-3.576s3.208-.987 5.153-.941c1.945.045 3.958.347 5.504.665 3.09.636 4.333 1.354 5.517 2.045a.298.38 59.09 0 1 .031.437.298.38 59.09 0 1-.509.124c-1.183-.69-2.307-1.353-5.337-1.977-1.515-.311-3.5-.608-5.377-.652-1.879-.043-3.65.194-4.676.81-1.026.615-1.505 1.658-1.482 2.92.021 1.26.58 2.686 1.598 3.881 2.037 2.392 5.976 3.928 9.956 5.462a.298.38 59.09 0 1 .101.416" overflow="visible"/><path fill="#e9bab4" fill-rule="evenodd" d="M82.626 153.3c1.447-.04 2.56.027 3.531.36s1.799.93 2.288 1.86.639 2.194.176 3.559c-.461 1.365-1.534 2.831-3.442 4.25-1.584 1.179-3.744 2.324-5.855 2.66l-.506-.506a19.27 19.27 0 0 1-5.425-10.546c1.079-.325 2.644-.777 4.168-1.08 1.84-.367 3.62-.516 5.065-.557"/><path fill="#d4c7c0" d="M81.599 152.275c-1.446.04-3.226.19-5.066.556s-3.74.951-4.773 1.264c-1.031.312-1.195.353-1.33 1.65-.136 1.297-.245 3.85.814 5.846 1.06 1.996 3.286 3.436 5.772 3.47 2.485.034 5.228-1.338 7.136-2.757s2.98-2.886 3.443-4.25c.461-1.365.312-2.629-.177-3.559s-1.317-1.527-2.288-1.86-2.084-.4-3.531-.36" overflow="visible"/><path fill="#b7a595" fill-rule="evenodd" d="M76.098 165.992a.38.298 30.91 0 0 .499.183c3.98-1.533 8-3.064 10.166-5.607 1.082-1.272 1.686-2.78 1.71-4.19.026-1.41-.563-2.776-1.896-3.576s-3.208-.987-5.153-.941c-1.945.045-3.958.347-5.504.665-3.09.636-4.334 1.354-5.517 2.045a.38.298 30.91 0 0-.031.437.38.298 30.91 0 0 .509.124c1.183-.69 2.307-1.353 5.337-1.977 1.515-.311 3.5-.608 5.377-.652 1.879-.043 3.65.194 4.676.81 1.026.615 1.505 1.658 1.482 2.92-.021 1.26-.58 2.686-1.598 3.881-2.037 2.392-5.976 3.928-9.956 5.462a.38.298 30.91 0 0-.101.416" overflow="visible"/></svg>