<svg xmlns="http://www.w3.org/2000/svg" xml:space="preserve" width="1000" height="500"><path d="M290.767 32.071c-13.854.072-24.865 2.57-31.186 4.227-11.309 2.969-10.591 9.36-10.591 9.36-12.284 6.87-13.268 16.234-13.268 16.234l-9.861 37.865c-40.328 28.051-49.691 68.921-52.65 91.047-2.939 22.152-22.126 167.8-23.602 184.996-1.485 17.236-2.466 81.68 56.592 91.04 59.053 9.323 90.03-44.305 90.03-44.305l39.86-69.105c89.052 69.105 131.373-24.86 131.373-24.86h65.072s42.32 93.965 131.373 24.86l39.86 69.105s30.978 53.628 90.031 44.305c59.058-9.36 58.074-73.804 56.592-91.04-1.476-17.196-20.665-162.844-23.605-184.995-2.956-22.127-12.32-62.997-52.648-91.047l-9.861-37.865s-.985-9.365-13.268-16.235c0 0 .718-6.391-10.591-9.358-6.322-1.66-17.332-4.156-31.186-4.229h-1.23a119 119 0 0 0-3.794.081 114.1 114.1 0 0 0-32.17 5.875s-4.69 1.23-4.445 8.096c0 0-14.53 7.165-17.456 20.422-2.966 13.306-6.908 30.04-6.908 30.04H356.77s-3.942-16.734-6.908-30.04c-2.926-13.257-17.456-20.422-17.456-20.422.246-6.867-4.445-8.096-4.445-8.096a114.1 114.1 0 0 0-32.17-5.875 118 118 0 0 0-3.795-.08z" style="fill:#dfdfe7;stroke-width:1.18736;fill-opacity:1"/><path d="M499.998 238.171c-10.01 0-18.14 8.131-18.14 18.14s8.132 18.142 18.14 18.142c10.01 0 18.143-8.133 18.143-18.143s-8.133-18.139-18.143-18.139" style="baseline-shift:baseline;display:inline;overflow:visible;vector-effect:none;fill:#000;fill-opacity:1;stroke-width:1.18736;stop-color:#000"/><path d="M273.17 128.605c-5.34.006-9.665 4.408-9.577 9.747l.37 21.716a9.58 9.58 0 0 0 2.804 6.61l12.674 12.674c3.733 3.728 9.815 3.728 13.549 0l12.267-12.263a9.58 9.58 0 0 0 2.814-6.774v-22.122c0-5.281-4.306-9.587-9.588-9.587zm-41.6 42.366c-5.28 0-9.583 4.302-9.587 9.581v24.185l-.002 1.126c-.001 5.347 4.409 9.68 9.754 9.587l21.716-.368a9.6 9.6 0 0 0 6.611-2.806l12.673-12.674c3.728-3.733 3.728-9.816 0-13.549l-12.269-12.27h-.002a9.6 9.6 0 0 0-6.773-2.812zm108.134 0-21.725.37a9.58 9.58 0 0 0-6.608 2.805l-12.674 12.675h-.002c-3.728 3.735-3.728 9.816 0 13.55h.002l12.266 12.268a9.58 9.58 0 0 0 6.773 2.814h22.12c5.281 0 9.587-4.306 9.587-9.588V181.68h.002v-1.128c-.004-5.34-4.403-9.665-9.742-9.58m-54.262 33.166a9.56 9.56 0 0 0-6.776 2.795l-12.27 12.267a9.6 9.6 0 0 0-2.812 6.777v22.12c.004 5.28 4.309 9.581 9.587 9.581h25.314c5.339-.004 9.665-4.403 9.577-9.741v-.002l-.369-21.717a9.58 9.58 0 0 0-2.804-6.61l-12.674-12.675a9.56 9.56 0 0 0-6.774-2.795" style="baseline-shift:baseline;display:inline;overflow:visible;vector-effect:none;fill:#000;stroke-width:1.12787;stop-color:#000"/><path d="M422.273 179.186a5.925 5.925 0 0 0-5.92 5.923v12.289a5.91 5.91 0 0 0 5.92 5.937h25.81a5.925 5.925 0 0 0 5.917-5.937v-12.29a5.925 5.925 0 0 0-5.918-5.922z" style="fill:#000;fill-opacity:1;fill-rule:evenodd;stroke-width:.512649;stroke-linecap:round;stroke-miterlimit:7;paint-order:stroke markers fill"/><path d="M548.984 177.695c-2.976.02-5.574 2.814-5.574 5.952v15.283a5.9 5.9 0 0 0 5.936 5.895 3.3 3.3 0 0 0 1.04-.148l29.137-8.743a5.95 5.95 0 0 0 5.236-5.897 3.67 3.67 0 0 0-2.714-3.541l-31.766-8.632a4.8 4.8 0 0 0-1.295-.169" style="fill:#000;fill-opacity:1;fill-rule:evenodd;stroke:none;stroke-width:.649201;stroke-linecap:round;stroke-miterlimit:7;paint-order:stroke markers fill"/><path d="M711.407 104.383c-15.286 0-27.718 12.432-27.718 27.718s12.432 27.715 27.718 27.715 27.715-12.428 27.715-27.715c0-15.288-12.43-27.717-27.715-27.717m-60.113 59.63c-15.286 0-27.717 12.43-27.717 27.716s12.431 27.718 27.717 27.718 27.716-12.432 27.716-27.718-12.43-27.718-27.716-27.718m122.164 0c-15.287 0-27.717 12.43-27.717 27.717s12.431 27.717 27.717 27.717 27.713-12.431 27.713-27.717-12.427-27.718-27.713-27.718m-59.629 62.455c-15.285 0-27.716 12.432-27.716 27.719S698.544 281.9 713.83 281.9s27.716-12.429 27.716-27.715-12.43-27.718-27.716-27.718" style="baseline-shift:baseline;display:inline;overflow:visible;vector-effect:none;fill:#000;fill-opacity:1;stroke-width:1.18736;stop-color:#000"/><path d="M609.226 241.97c-27.024 0-48.975 21.95-48.975 48.976 0 27.025 21.95 48.975 48.975 48.975s48.975-21.95 48.975-48.975-21.95-48.975-48.975-48.975m0 5.904c23.81 0 43.07 19.26 43.07 43.07s-19.258 43.07-43.07 43.07c-23.81 0-43.07-19.258-43.07-43.07 0-23.81 19.259-43.07 43.07-43.07" style="baseline-shift:baseline;display:inline;overflow:visible;vector-effect:none;fill:#000;stroke-width:.984191;stop-color:#000"/><path d="M609.225 262.747c-15.561 0-28.197 12.638-28.197 28.2 0 15.56 12.636 28.197 28.197 28.197s28.2-12.638 28.2-28.198-12.638-28.199-28.2-28.199m0 1.969h.002c14.498 0 26.229 11.733 26.229 26.23s-11.733 26.229-26.23 26.229c-14.499 0-26.23-11.732-26.23-26.23 0-14.497 11.731-26.228 26.23-26.229" style="baseline-shift:baseline;display:inline;overflow:visible;vector-effect:none;fill:#000;stroke-width:.984191;stop-color:#000"/><path d="M609.226 241.97c-27.024 0-48.975 21.95-48.975 48.976 0 27.025 21.95 48.975 48.975 48.975s48.975-21.95 48.975-48.975-21.95-48.975-48.975-48.975m0 5.904c23.81 0 43.07 19.26 43.07 43.07s-19.258 43.07-43.07 43.07c-23.81 0-43.07-19.258-43.07-43.07 0-23.81 19.259-43.07 43.07-43.07" style="baseline-shift:baseline;display:inline;overflow:visible;vector-effect:none;fill:#000;stroke-width:.984191;stop-color:#000" transform="translate(-218.453)"/><path d="M609.225 262.747c-15.561 0-28.197 12.638-28.197 28.2 0 15.56 12.636 28.197 28.197 28.197s28.2-12.638 28.2-28.198-12.638-28.199-28.2-28.199m0 1.969h.002c14.498 0 26.229 11.733 26.229 26.23s-11.733 26.229-26.23 26.229c-14.499 0-26.23-11.732-26.23-26.23 0-14.497 11.731-26.228 26.23-26.229" style="baseline-shift:baseline;display:inline;overflow:visible;vector-effect:none;fill:#000;stroke-width:.984191;stop-color:#000" transform="translate(-218.453)"/></svg>