<svg xmlns="http://www.w3.org/2000/svg" xml:space="preserve" width="1000" height="500"><path d="M182.856 35.694c-42.038 4.197-86.113 44.3-86.113 62.51 0 7.104-8.215 16.628-12.08 41.963-2.69 17.618-2.695 203.904-.012 221.731 7.422 49.233 44.31 88.957 94.042 102.141 4.018 1.065 10.695 1.813 14.852 1.909 72.354 1.664 462.114 3.468 612.91 0 4.156-.096 10.833-.844 14.851-1.909 49.733-13.184 86.62-52.908 94.042-102.141 2.683-17.827 2.68-204.113-.01-221.731-3.866-25.335-12.08-34.859-12.08-41.962 0-18.212-44.078-58.314-86.116-62.511-48.742-4.867-586.283-4.793-634.287 0z" style="display:inline;fill:#000;fill-opacity:1;stroke-width:4.63319;stroke-linecap:round"/><g transform="translate(-85.752 -786.246)scale(.76303)"><circle cx="1129.338" cy="1331.779" r="22.338" style="font-variation-settings:normal;vector-effect:none;fill:#dfdfe7;fill-opacity:1;fill-rule:evenodd;stroke-width:44.661;stroke-linecap:butt;stroke-linejoin:miter;stroke-miterlimit:4;stroke-dasharray:none;stroke-dashoffset:0;stroke-opacity:1;-inkscape-stroke:none;stop-color:#000"/><circle cx="-1216.219" cy="1331.779" r="22.338" style="font-variation-settings:normal;vector-effect:none;fill:#dfdfe7;fill-opacity:1;fill-rule:evenodd;stroke-width:44.661;stroke-linecap:butt;stroke-linejoin:miter;stroke-miterlimit:4;stroke-dasharray:none;stroke-dashoffset:0;stroke-opacity:1;-inkscape-stroke:none;stop-color:#000" transform="scale(-1 1)"/><circle cx="1288.338" cy="-1172.778" r="22.338" style="font-variation-settings:normal;vector-effect:none;fill:#dfdfe7;fill-opacity:1;fill-rule:evenodd;stroke-width:44.661;stroke-linecap:butt;stroke-linejoin:miter;stroke-miterlimit:4;stroke-dasharray:none;stroke-dashoffset:0;stroke-opacity:1;-inkscape-stroke:none;stop-color:#000" transform="rotate(90)"/><circle cx="-1375.219" cy="-1172.778" r="22.338" style="font-variation-settings:normal;vector-effect:none;fill:#dfdfe7;fill-opacity:1;fill-rule:evenodd;stroke-width:44.661;stroke-linecap:butt;stroke-linejoin:miter;stroke-miterlimit:4;stroke-dasharray:none;stroke-dashoffset:0;stroke-opacity:1;-inkscape-stroke:none;stop-color:#000" transform="scale(1 -1)rotate(90)"/></g><path d="M187.883 190.827a6.11 6.11 0 0 0-6.126 6.127v16.436a2.157 2.157 0 0 1-2.16 2.16h-16.435a6.11 6.11 0 0 0-6.127 6.125v15.99a6.11 6.11 0 0 0 6.127 6.125h16.436a2.157 2.157 0 0 1 2.16 2.16v16.436a6.11 6.11 0 0 0 6.125 6.126h15.992a6.11 6.11 0 0 0 6.124-6.126v-16.437a2.157 2.157 0 0 1 2.16-2.159h16.438a6.11 6.11 0 0 0 6.124-6.124v-15.991a6.11 6.11 0 0 0-6.124-6.125h-16.44a2.157 2.157 0 0 1-2.16-2.16v-16.437a6.11 6.11 0 0 0-6.122-6.125z" style="fill:#dfdfe7;fill-opacity:1;fill-rule:evenodd;stroke:none;stroke-width:2.59779;stroke-miterlimit:7;paint-order:stroke markers fill"/><path d="M984.53 1135.065c-17.7 0-32.075 14.376-32.075 32.075s14.377 32.075 32.077 32.075 32.074-14.376 32.074-32.075-14.375-32.075-32.074-32.075" style="baseline-shift:baseline;display:inline;overflow:visible;vector-effect:none;fill:#dfdfe7;fill-opacity:1;stroke:none;stroke-width:2.5783;stroke-opacity:1;stop-color:#000" transform="translate(-127.211 -1009.883)scale(.9814)"/><path d="M984.53 1135.065c-17.7 0-32.075 14.376-32.075 32.075s14.377 32.075 32.077 32.075 32.074-14.376 32.074-32.075-14.375-32.075-32.074-32.075" style="baseline-shift:baseline;display:inline;overflow:visible;vector-effect:none;fill:#dfdfe7;fill-opacity:1;stroke:none;stroke-width:2.5783;stroke-opacity:1;stop-color:#000" transform="matrix(-.9814 0 0 .9814 1127.211 -1009.883)"/><path d="M292.387 121.373c-10.862 0-19.68 8.816-19.68 19.678v217.898c0 10.862 8.818 19.678 19.68 19.678h415.226c10.862 0 19.68-8.816 19.68-19.678V141.051c0-10.862-8.818-19.678-19.68-19.678z" style="baseline-shift:baseline;display:inline;overflow:visible;vector-effect:none;fill:#dfdfe7;fill-rule:evenodd;stroke-linecap:square;stroke-linejoin:round;stroke-miterlimit:7;paint-order:stroke markers fill;stop-color:#000"/><path d="M282.432 109.61c-11.41 0-20.672 9.261-20.672 20.671V369.72c0 11.41 9.262 20.672 20.672 20.672h435.136c11.41 0 20.672-9.262 20.672-20.672V130.28c0-11.41-9.262-20.672-20.672-20.672zm0 4.927h435.136c8.765 0 15.745 6.98 15.745 15.744V369.72c0 8.765-6.98 15.744-15.745 15.744H282.432c-8.765 0-15.744-6.98-15.744-15.744V130.28c0-8.765 6.979-15.744 15.744-15.744" style="baseline-shift:baseline;display:inline;overflow:visible;vector-effect:none;fill:#dfdfe7;fill-rule:evenodd;stroke-linecap:square;stroke-linejoin:round;stroke-miterlimit:7;paint-order:stroke markers fill;stop-color:#000;stop-opacity:1;opacity:1"/></svg>