<svg xmlns="http://www.w3.org/2000/svg" xmlns:xlink="http://www.w3.org/1999/xlink" xml:space="preserve" width="3000" height="3600"><defs><linearGradient id="z"><stop offset="0" style="stop-color:#f7b2e0;stop-opacity:1"/><stop offset="1" style="stop-color:#f7b2e0;stop-opacity:0"/></linearGradient><linearGradient id="D"><stop offset="0" style="stop-color:#fff;stop-opacity:.45987216"/><stop offset="1" style="stop-color:#fbdff2;stop-opacity:0"/></linearGradient><linearGradient id="y"><stop offset="0" style="stop-color:#f7b2e0;stop-opacity:1"/><stop offset="1" style="stop-color:#f7b2e0;stop-opacity:0"/></linearGradient><linearGradient id="B"><stop offset="0" style="stop-color:#f396d6;stop-opacity:.38735288"/><stop offset="1" style="stop-color:#fad3ee;stop-opacity:0"/></linearGradient><linearGradient id="x"><stop offset="0" style="stop-color:#fce5f5;stop-opacity:.62198997"/><stop offset="1" style="stop-color:#fce5f5;stop-opacity:0"/></linearGradient><linearGradient id="w"><stop offset="0" style="stop-color:#f9caea;stop-opacity:1"/><stop offset="1" style="stop-color:#f9caea;stop-opacity:0"/></linearGradient><linearGradient id="v"><stop offset="0" style="stop-color:#fea8d2;stop-opacity:.43612182"/><stop offset="1" style="stop-color:#fea8d2;stop-opacity:0"/></linearGradient><linearGradient id="u"><stop offset="0" style="stop-color:#fff;stop-opacity:1"/><stop offset="1" style="stop-color:#fff;stop-opacity:0"/></linearGradient><linearGradient id="t"><stop offset="0" style="stop-color:#f6f6f6;stop-opacity:1"/><stop offset="1" style="stop-color:#fff9fd;stop-opacity:1"/></linearGradient><linearGradient id="s"><stop offset="0" style="stop-color:#f6f6f6;stop-opacity:1"/><stop offset="1" style="stop-color:#fff9fd;stop-opacity:1"/></linearGradient><linearGradient id="r"><stop offset="0" style="stop-color:#fff;stop-opacity:1"/><stop offset="1" style="stop-color:#fff;stop-opacity:0"/></linearGradient><linearGradient id="q"><stop offset="0" style="stop-color:#f8aad0;stop-opacity:1"/><stop offset="1" style="stop-color:#f8aad0;stop-opacity:0"/></linearGradient><linearGradient id="p"><stop offset="0" style="stop-color:#f693c4;stop-opacity:1"/><stop offset="1" style="stop-color:#f693c4;stop-opacity:0"/></linearGradient><linearGradient id="o"><stop offset="0" style="stop-color:#fbc8e1;stop-opacity:1"/><stop offset="1" style="stop-color:#fab9d9;stop-opacity:0"/></linearGradient><linearGradient id="n"><stop offset="0" style="stop-color:#fbd3e7;stop-opacity:1"/><stop offset="1" style="stop-color:#fbd3e7;stop-opacity:0"/></linearGradient><linearGradient id="m"><stop offset="0" style="stop-color:#ecc0f2;stop-opacity:.49481602"/><stop offset="1" style="stop-color:#ecc0f2;stop-opacity:0"/></linearGradient><linearGradient id="l"><stop offset="0" style="stop-color:#ffbee9;stop-opacity:.50980398"/><stop offset="1" style="stop-color:#ffbee9;stop-opacity:0"/></linearGradient><linearGradient id="k"><stop offset="0" style="stop-color:#ffc1e9;stop-opacity:.48235294"/><stop offset="1" style="stop-color:#ffc1e9;stop-opacity:0"/></linearGradient><linearGradient id="j"><stop offset="0" style="stop-color:#f8e3f8;stop-opacity:1"/><stop offset="1" style="stop-color:#f8e3f8;stop-opacity:0"/></linearGradient><linearGradient id="i"><stop offset="0" style="stop-color:#ffc1e9;stop-opacity:.48188922"/><stop offset="1" style="stop-color:#ffc1e9;stop-opacity:0"/></linearGradient><linearGradient id="h"><stop offset="0" style="stop-color:#fbecfb;stop-opacity:1"/><stop offset="1" style="stop-color:#fbecfb;stop-opacity:0"/></linearGradient><linearGradient id="g"><stop offset="0" style="stop-color:#f4d5f6;stop-opacity:.84630346"/><stop offset="1" style="stop-color:#f6ddf8;stop-opacity:0"/></linearGradient><linearGradient id="f"><stop offset="0" style="stop-color:#ffe9f7;stop-opacity:1"/><stop offset="1" style="stop-color:#ffe9f7;stop-opacity:0"/></linearGradient><linearGradient id="e"><stop offset="0" style="stop-color:#ffebf8;stop-opacity:1"/><stop offset="1" style="stop-color:#ffebf8;stop-opacity:0"/></linearGradient><linearGradient id="d"><stop offset="0" style="stop-color:#fff9fd;stop-opacity:1"/><stop offset="1" style="stop-color:#fff9fd;stop-opacity:0"/></linearGradient><linearGradient id="c"><stop offset="0" style="stop-color:#ffbee9;stop-opacity:.50980392"/><stop offset="1" style="stop-color:#ffbee9;stop-opacity:0"/></linearGradient><linearGradient id="b"><stop offset="0" style="stop-color:#ffbee9;stop-opacity:.5116927"/><stop offset="1" style="stop-color:#fff9fd;stop-opacity:0"/></linearGradient><linearGradient id="a"><stop offset="0" style="stop-color:#fff9fd;stop-opacity:1"/><stop offset=".5" style="stop-color:#fff9fd;stop-opacity:1"/><stop offset="1" style="stop-color:#ffdff4;stop-opacity:1"/></linearGradient><linearGradient xlink:href="#a" id="M" x1="126.988" x2="109.473" y1="6.46" y2="78.922" gradientTransform="matrix(1 0 0 1.02186 0 -1.543)" gradientUnits="userSpaceOnUse"/><linearGradient xlink:href="#b" id="N" x1="166.668" x2="136.395" y1="139.424" y2="137.657" gradientTransform="matrix(.89288 -.45029 .4165 .90914 0 0)" gradientUnits="userSpaceOnUse"/><linearGradient xlink:href="#c" id="aa" x1="63.903" x2="72.253" y1="1.181" y2="23.118" gradientUnits="userSpaceOnUse"/><linearGradient xlink:href="#d" id="P" x1="18.62" x2="36.6" y1="64.713" y2="76.41" gradientUnits="userSpaceOnUse"/><linearGradient xlink:href="#e" id="Q" x1="215.737" x2="186.769" y1="56.639" y2="74.257" gradientUnits="userSpaceOnUse"/><linearGradient xlink:href="#f" id="R" x1="80.148" x2="106.796" y1="227.363" y2="129.099" gradientUnits="userSpaceOnUse"/><linearGradient xlink:href="#g" id="S" x1="183.855" x2="161.762" y1="170.664" y2="153.102" gradientUnits="userSpaceOnUse"/><linearGradient xlink:href="#h" id="T" x1="197.123" x2="179.557" y1="87.431" y2="87.688" gradientUnits="userSpaceOnUse"/><linearGradient xlink:href="#i" id="U" x1="149.298" x2="132.329" y1="211.753" y2="178.025" gradientUnits="userSpaceOnUse"/><linearGradient xlink:href="#j" id="V" x1="28.444" x2="44.946" y1="173.348" y2="159.742" gradientUnits="userSpaceOnUse"/><linearGradient xlink:href="#j" id="W" x1="48.367" x2="36.928" y1="177.721" y2="172.133" gradientUnits="userSpaceOnUse"/><linearGradient xlink:href="#k" id="X" x1="69.732" x2="82.367" y1="206.47" y2="176.098" gradientUnits="userSpaceOnUse"/><linearGradient xlink:href="#l" id="Z" x1="-9.12" x2="23.193" y1="135.847" y2="135.847" gradientUnits="userSpaceOnUse"/><linearGradient xlink:href="#m" id="L" x1="124.473" x2="119.02" y1="70.566" y2="38.215" gradientUnits="userSpaceOnUse"/><linearGradient xlink:href="#n" id="ab" x1="94.858" x2="99.966" y1="131.65" y2="110.868" gradientUnits="userSpaceOnUse"/><linearGradient xlink:href="#o" id="ad" x1="162.826" x2="147.34" y1="129.757" y2="122.467" gradientUnits="userSpaceOnUse"/><linearGradient xlink:href="#p" id="ac" x1="140.922" x2="126.515" y1="116.768" y2="116.768" gradientUnits="userSpaceOnUse"/><linearGradient xlink:href="#q" id="ae" x1="126.515" x2="130.053" y1="114.716" y2="114.661" gradientUnits="userSpaceOnUse"/><linearGradient xlink:href="#r" id="ah" x1="79.798" x2="80.398" y1="90.451" y2="85.325" gradientUnits="userSpaceOnUse"/><linearGradient xlink:href="#s" id="ag" x1="79.682" x2="80.732" y1="89.636" y2="82.652" gradientUnits="userSpaceOnUse"/><linearGradient xlink:href="#t" id="af" x1="121.958" x2="125.605" y1="103.268" y2="96.286" gradientUnits="userSpaceOnUse"/><linearGradient xlink:href="#u" id="ai" x1="121.035" x2="123.693" y1="102.277" y2="99.152" gradientUnits="userSpaceOnUse"/><linearGradient xlink:href="#v" id="aj" x1="196.611" x2="175.46" y1="189.689" y2="196.053" gradientUnits="userSpaceOnUse"/><linearGradient xlink:href="#w" id="K" x1="233.972" x2="210.347" y1="154.764" y2="190.928" gradientTransform="rotate(8.79 204.017 158.593)" gradientUnits="userSpaceOnUse"/><linearGradient xlink:href="#x" id="ak" x1="238.245" x2="231.527" y1="147.086" y2="165.806" gradientUnits="userSpaceOnUse"/><linearGradient xlink:href="#y" id="H" x1="53.676" x2="44.926" y1="412.824" y2="429.367" gradientUnits="userSpaceOnUse"/><linearGradient xlink:href="#y" id="E" x1="53.676" x2="44.926" y1="412.824" y2="429.367" gradientTransform="rotate(-28.039 -399.605 165.014)scale(1.04461)" gradientUnits="userSpaceOnUse"/><linearGradient xlink:href="#z" id="am" x1="130.935" x2="131.649" y1="196.956" y2="203.311" gradientUnits="userSpaceOnUse"/><linearGradient xlink:href="#c" id="O" x1="63.903" x2="72.253" y1="1.181" y2="23.118" gradientUnits="userSpaceOnUse"/><linearGradient xlink:href="#l" id="Y" x1="-9.12" x2="23.193" y1="135.847" y2="135.847" gradientUnits="userSpaceOnUse"/><radialGradient xlink:href="#B" id="al" cx="105.359" cy="93.692" r="62.933" fx="105.359" fy="93.692" gradientTransform="translate(20.593 2.167)scale(.8146)" gradientUnits="userSpaceOnUse"/><radialGradient xlink:href="#D" id="I" cx="106.728" cy="176.348" r="12.75" fx="106.728" fy="176.348" gradientTransform="matrix(1.06747 0 0 .85816 -7.2 25.013)" gradientUnits="userSpaceOnUse"/><radialGradient xlink:href="#D" id="J" cx="106.728" cy="176.348" r="12.75" fx="106.728" fy="176.348" gradientTransform="matrix(1.16867 0 0 .93952 -18.002 10.665)" gradientUnits="userSpaceOnUse"/><radialGradient xlink:href="#D" id="F" cx="106.728" cy="176.348" r="12.75" fx="106.728" fy="176.348" gradientTransform="matrix(1.11509 0 0 .89644 -23.748 78.62)" gradientUnits="userSpaceOnUse"/><radialGradient xlink:href="#D" id="G" cx="106.728" cy="176.348" r="12.75" fx="106.728" fy="176.348" gradientTransform="matrix(1.33902 -.23896 .21486 .96245 -40.122 69.259)" gradientUnits="userSpaceOnUse"/></defs><g transform="translate(232.928 628.834)scale(10.28153)"><path d="M113.555 202.475c-.277 1.281-.83 3.842-.798 6.458.136 10.752 10.9 13.78 13.54 13.833 1.198.024 2.116-.151 2.788-.003s1.096.619 2.837 1.366c5.682 2.671 11.847 3.578 17.08-.274 1.05-.874 1.292-1.665 1.75-1.822 8.143.597 12.28-8.252 11.663-15.19-.38-3.53-1.5-7.989-6.17-11.063-4.672-3.074-12.894-4.763-20.421-4.886-7.528-.123-14.361 1.32-17.955 3.182s-3.948 4.142-4.081 5.398c-.133 1.257-.045 1.489 0 1.605.044.115.044.115-.233 1.396" style="fill:#f9c8e9;fill-opacity:1;stroke-width:2.08922;stroke-linecap:round;stroke-linejoin:round"/><path d="M123.062 208.168c-.133.102-.244.868-.29 2.186-.18 5.185 4.03 10.291 4.896 12.376.559-.03 1.03-.052 1.417.034.672.148 1.097.618 2.837 1.365q.568.268 1.141.51c-4.844-3.235-8.565-8.993-9.725-15.765-.08-.466-.165-.697-.242-.715a.05.05 0 0 0-.035.01m23.451 2.612a.1.1 0 0 0-.026.012c-.123.115-.175.887-.119 2.201.15 3.54 2.342 6.889 4.041 9.295.112-.124.22-.214.344-.256q.814.059 1.574-.004c-2.526-2.853-4.48-6.477-5.508-10.555-.115-.458-.219-.68-.297-.693z" style="fill:#f49bd7;fill-opacity:1;stroke-width:1.20531"/><path d="M113.72 200.661c.008.262.043.356.067.417.044.116.045.117-.232 1.397-.083.384-.19.883-.3 1.464 2.494-.534 5.18-1.595 8.037-3.377 1.425-.888 1.76-1.23 3.668-.236 1.908.995 5.388 3.326 9.468 5.078 9.603 4.125 19.271 4.624 28.047 2.767a15 15 0 0 0-.06-1.33 24 24 0 0 0-.24-1.7c-9.084 2.158-19.188 1.806-29.22-2.503-4.08-1.752-7.56-4.083-9.468-5.078-1.908-.994-2.243-.652-3.668.236-2.13 1.329-4.168 2.257-6.1 2.865" style="fill:url(#E);fill-opacity:1;stroke-width:2.08922;stroke-linecap:round;stroke-linejoin:round"/><ellipse cx="95.263" cy="236.706" rx="14.217" ry="11.43" style="mix-blend-mode:overlay;fill:url(#F);fill-opacity:.524824;stroke-width:2.48733;stroke-linecap:round;stroke-linejoin:round" transform="rotate(-11.288)"/><path d="M131.616 203.31a12.549 17.36 82.592 0 0-8.007 13.217 12.549 17.36 82.592 0 0 4.225 6.178c.341-.006.646.006.914.06.752.147 1.227.617 3.174 1.364 2.138.899 4.338 1.598 6.538 1.983a12.549 17.36 82.592 0 0 4.96-.36 12.549 17.36 82.592 0 0 14.333-15.317 12.549 17.36 82.592 0 0-19.811-9.226 12.549 17.36 82.592 0 0-6.326 2.102" style="mix-blend-mode:overlay;fill:url(#G);fill-opacity:.524824;stroke-width:2.87994;stroke-linecap:round;stroke-linejoin:round"/><path d="M34.192 420.537c-.81.958-2.431 2.873-3.58 5.097-4.725 9.146 3.009 16.548 5.215 17.78 1.001.56 1.856.826 2.357 1.253.5.427.648 1.017 1.782 2.43 3.6 4.815 8.4 8.355 14.555 7.455 1.282-.265 1.841-.825 2.298-.751 6.612 4.168 14.09-1.447 16.69-7.587 1.268-3.153 2.328-7.425-.235-12.124s-8.75-9.826-15.056-13.317c-6.305-3.492-12.727-5.348-16.602-5.392s-5.2 1.724-5.878 2.725-.707 1.238-.721 1.356c-.015.117-.015.117-.825 1.075" style="fill:#f9c8e9;fill-opacity:1;stroke-width:2;stroke-linecap:round;stroke-linejoin:round" transform="translate(0 -242)"/><path d="M39.662 187.625c-.157.027-.596.623-1.228 1.717-2.485 4.3-1.226 10.509-1.432 12.66.485.226.892.42 1.182.666.5.427.648 1.015 1.783 2.43q.36.48.734.945c-2.638-4.914-3.19-11.454-1.123-17.697.142-.43.174-.664.117-.713a.05.05 0 0 0-.033-.008" style="fill:#f49bd7;fill-opacity:1;stroke-width:1.15384"/><path d="M35.146 419.078c-.11.225-.123.32-.13.383-.015.118-.014.119-.825 1.076-.243.287-.558.66-.912 1.102 2.348.671 5.096.983 8.31.763 1.604-.11 2.041-.248 3.206 1.452s3.056 5.234 5.715 8.55c6.258 7.807 14.202 12.58 22.453 14.96q.3-.571.547-1.151c.196-.49.388-1.005.562-1.545-8.645-2.264-17.024-7.108-23.562-15.264-2.659-3.316-4.55-6.851-5.715-8.55s-1.602-1.561-3.205-1.452c-2.398.164-4.537.032-6.444-.324" style="fill:url(#H);fill-opacity:1;stroke-width:2;stroke-linecap:round;stroke-linejoin:round" transform="translate(0 -242)"/><path d="m57.281 203.797-.004.002c-.152.049-.503.701-.974 1.873-.826 2.054-.86 4.38-.637 6.518.532-.227.862-.436 1.152-.39q.135.086.272.165a24.7 24.7 0 0 1 .205-7.44c.08-.445.079-.681.016-.722l-.014-.006z" style="fill:#f49bd7;fill-opacity:1;stroke-width:1.15384"/><ellipse cx="106.728" cy="176.348" rx="13.61" ry="10.942" style="opacity:1;mix-blend-mode:overlay;fill:url(#I);fill-opacity:.524824;stroke-width:2.38111;stroke-linecap:round;stroke-linejoin:round" transform="rotate(16.75)"/><path d="M101.026 165.282a14.9 11.979 0 0 0-9.198 11.065 14.9 11.979 0 0 0 2.39 6.508c.287.051.54.114.756.209.602.264.914.785 2.408 1.812 1.626 1.202 3.341 2.228 5.116 2.958a14.9 11.979 0 0 0 4.23.493 14.9 11.979 0 0 0 14.9-11.978 14.9 11.979 0 0 0-14.899-11.98 14.9 11.979 0 0 0-5.703.913" style="opacity:1;mix-blend-mode:overlay;fill:url(#J);fill-opacity:.524824;stroke-width:2.60686;stroke-linecap:round;stroke-linejoin:round" transform="rotate(16.75)"/><path d="M185.814 187.03c2.78-1.3 7.28-3.406 11.923-5.67 17.451-6.615 24.557-24.21 35.185-27.8 3.209-1.084 6.228-.558 8.305 1.433 2.077 1.99 3.212 5.446 3.357 9.135s-.7 7.613-3.71 11.65c-10.82 14.514-41.39 22.176-57.111 20.564-6.867-.704-7.431-4.578-9.593-6.403s-.231-3.136 1.576-3.155c1.806-.018 3.487 1.255 4.858 1.646 1.37.39 2.43-.101 5.21-1.4" style="fill:#f6ddf8;fill-opacity:1;stroke-width:2;stroke-linecap:round;stroke-linejoin:round"/><path d="M198.264 181.156q-.262.104-.528.203a815 815 0 0 1-11.922 5.67c-2.78 1.3-3.84 1.791-5.21 1.4-1.371-.39-3.051-1.663-4.858-1.644s-3.739 1.33-1.576 3.154c2.162 1.826 2.726 5.699 9.594 6.403 3.217.33 7.054.272 11.218-.155.589-.73.181-1.054-.753-1.162-1.084-.125-2.875.042-4.75.063s-3.834-.104-5.063-.188c-.749-.05-1.227-.086-1.293-.158l-.004-.006-.002-.006-.002-.006.002-.01.004-.006c.031-.04.166-.096.42-.164.854-.229 3.064-.646 5.168-1.375s4.103-1.77 5.666-3.25c1.562-1.48 2.687-3.396 3.291-5.375.355-1.163.53-2.347.598-3.389z" style="fill:#f3d0f5;fill-opacity:1;stroke-width:2;stroke-linecap:round;stroke-linejoin:round"/><path d="M237.499 153.123c-1.416-.245-2.973-.106-4.578.436-10.627 3.59-17.733 21.186-35.185 27.801-1.355.66-2.698 1.309-3.99 1.927a47.5 47.5 0 0 0 11.586 11.209c13.91-3.08 28.689-9.524 35.543-18.718 3.01-4.037 3.854-7.96 3.709-11.65s-1.28-7.143-3.357-9.134a7.07 7.07 0 0 0-3.728-1.871" style="fill:url(#K);fill-opacity:1;stroke-width:2;stroke-linecap:round;stroke-linejoin:round"/><path d="M174.698 415.02c7.614.363 20.406-6.86 20.865-6.958.687-.145.937.396 1.02 1.688.084 1.292 0 3.333-.604 5.313s-1.729 3.895-3.292 5.375-3.562 2.52-5.666 3.25c-2.104.729-4.313 1.145-5.167 1.375s-.354.27.875.354 3.188.208 5.063.187 3.666-.187 4.75-.062c1.083.125 1.458.541.395 1.541s-3.562 2.584-6.187 3.709c-11.606 4.974-24.238-3.154-27.875-5.792 2.167-3.208 4.333-6.417 6.396-8.697 2.063-2.281 4.022-3.635 5.179-3.803 1.156-.168 1.51.848 1.947 1.504s.957.95 2.301 1.015" style="fill:#f6ddf8;fill-opacity:1;stroke-width:2;stroke-linecap:round;stroke-linejoin:round" transform="translate(0 -230.517)"/><path d="M123.824 5.498c-6.816-.048-13.294 2.232-18.625 6.479-2.425 1.932-4.604 4.33-5.693 5.392-.56.546-.832.739-1.078.592a33.43 33.952 0 0 0-7.385 21.283 33.43 33.952 0 0 0 33.43 33.953 33.43 33.952 0 0 0 33.43-33.953 33.43 33.952 0 0 0-6.108-19.562c-.467-.343-.935-.882-1.717-1.697-8.164-8.518-17.49-12.425-26.254-12.487" style="opacity:.3;fill:#f0c2f4;fill-opacity:1;stroke-width:1.64625;stroke-linecap:round;stroke-linejoin:round"/><path d="M57.547 36.54c-5.793-8.717-5.706-19.575 1.25-27.722 2.52-2.772 5.813-4.632 8.867-5.779 2.598-.975 20.063-6.72 29.91 10.973.842 1.514.842 1.788 1.932.726s3.268-3.46 5.694-5.392c12.184-9.707 30.363-9.134 44.878 6.008 1.425 1.487 1.808 2.05 3.042 2.193 17.158 2.002 21.465 13.216 22.535 18.143.349 1.61.24 2.857.287 3.446.048.59.254.521.864.11s1.623-1.165 3.309-1.624 4.042-.623 6.872-.274c20.895 2.58 26.672 28.839 12.826 41.699-1.733 1.61-3.2 2.391-3.645 3.234s.13 1.747.418 3.72.288 5.016.247 7.016-.123 2.96.37 4.248c4.228 7.266 5.284 15.134 4.452 23.467-.84 6.911-3.223 13.975-7.337 19.246-.705.905-.637.864-.298 1.503 1.83 3.461 4.145 25.306-16.603 40.064-1.88 1.337-2.732 1.492-4.205 3.052-14.776 18.968-40.696 27.446-62.449 14.922-1.384-.823-1.932-1.261-2.549-1.055-.616.205-1.302 1.055-3.713 2.11-15.435 6.752-39.336 5.112-53.991-13.169-2.658-3.316-4.55-6.852-5.714-8.55-1.165-1.7-1.603-1.563-3.207-1.453-14.813 1.013-19.712-9.239-21.199-14.128-.52-1.713-.301-2.864-1.068-3.714s-2.522-1.398-4.4-2.562C-.868 147.2-1.961 124.565 9.68 112.08c2.141-2.297 4.544-3.789 5.697-5.174 1.758-2.113.781-5.151 2.413-8.77.446-.988.833-1.046.436-2.18-.397-1.133-1.58-3.343-2.345-6.182s-1.114-6.308-.707-9.815c1.6-13.795 12.573-23.844 23.43-26.85 2.344-.65 4.399-.92 5.765-1.754 1.366-.833 2.044-2.229 3.663-4.137 1.618-1.91 4.176-4.332 5.93-5.843s2.703-2.113 3.342-2.597c.64-.485.97-.853.243-2.238" style="fill:#fff9fd;fill-opacity:1;stroke-width:2;stroke-linecap:round;stroke-linejoin:round"/><path d="M150.604 103.383c-2.201.752-4.663 1.321-7.405 1.48a27 27 0 0 1-4.107-.095c-8.535 2.997-16.2 9.4-16.2 17.123-.504 4.568 4.335 8.394 7.473 10.433 3.126 2.033 7.14 3 10.71 3.436 13.879 1.697 32.07-7.521 17.73-18.531-2.785-2.139-6.35-3.621-10.225-4.594a33 33 0 0 0-4.105-.756q.735-.761 1.47-1.565c.75-.817 3.64-4.259 5.278-6.216l.492-.588q-.555-.075-1.111-.127" style="baseline-shift:baseline;display:inline;overflow:visible;vector-effect:none;fill:#f6ddf8;fill-opacity:1;stroke-width:.538487;stroke-linecap:round;stroke-linejoin:round;stop-color:#000"/><path d="M122.75 5.095c-6.642-.048-12.953 2.232-18.147 6.478-2.363 1.932-4.486 4.33-5.547 5.393-.864.864-1.025.844-1.498-.01a32.57 34.695 0 0 0-6.748 21.143 32.57 34.695 0 0 0 32.571 34.695 32.57 34.695 0 0 0 32.57-34.695 32.57 34.695 0 0 0-4.94-18.37c-.99-.198-1.408-.783-2.682-2.148-7.955-8.518-17.04-12.425-25.58-12.486" style="fill:url(#L);fill-opacity:.494816;stroke-width:1.64263;stroke-linecap:round;stroke-linejoin:round"/><path d="M123.824 2.867C117.008 2.82 110.53 5.1 105.2 9.346c-2.425 1.932-4.604 4.33-5.693 5.392-.887.865-1.052.844-1.537-.01a33.43 34.695 0 0 0-6.926 21.143 33.43 34.695 0 0 0 33.43 34.695 33.43 34.695 0 0 0 33.43-34.695 33.43 34.695 0 0 0-5.071-18.369c-1.016-.198-1.446-.784-2.754-2.148-8.164-8.518-17.49-12.425-26.254-12.487" style="fill:url(#M);fill-opacity:1;stroke-width:1.66415;stroke-linecap:round;stroke-linejoin:round"/><path d="M184.957 37.18c-1.936-.08-3.578.099-4.842.443a9.4 9.4 0 0 0-2.611 1.156 33.436 23.833 67.613 0 0 3.506 25.12 33.436 23.833 67.613 0 0 15.455 17.97c.635-.708 1.897-1.475 3.348-2.822 13.845-12.86 8.068-39.12-12.827-41.7a25 25 0 0 0-2.029-.167" style="fill:url(#N);fill-opacity:1;stroke-width:2.38015;stroke-linecap:round;stroke-linejoin:round"/><path d="M78.662 1.42c-5.372-.318-9.79 1.166-10.998 1.62-3.053 1.146-6.348 3.007-8.867 5.778-5.541 6.491-6.723 14.702-4.045 22.18a34 34 0 0 0 9.05 1.232 33.87 33.87 0 0 0 31.58-21.623c-5.023-6.75-11.348-8.87-16.72-9.187" style="fill:url(#O);fill-opacity:.509804;stroke-width:2;stroke-linecap:round;stroke-linejoin:round"/><path d="M44.018 51.55c-1.356.686-3.263.964-5.414 1.56-10.857 3.005-21.83 13.055-23.43 26.849-.407 3.508-.059 6.975.707 9.814.523 1.94 1.24 3.586 1.77 4.795a28 28 0 0 0 2.117.08 28.37 28.37 0 0 0 28.37-28.37 28.37 28.37 0 0 0-4.12-14.727" style="mix-blend-mode:multiply;fill:url(#P);fill-opacity:1;stroke-width:2;stroke-linecap:round;stroke-linejoin:round"/><path d="M184.957 37.18c-1.936-.08-3.578.099-4.842.443-1.685.46-2.7 1.212-3.31 1.623s-.816.48-.864-.11l-.008-.134a31.627 25.988 0 0 0-7.566 16.87 31.627 25.988 0 0 0 28.25 25.837c.672-.666 1.853-1.415 3.195-2.662 13.846-12.86 8.069-39.12-12.826-41.7a25 25 0 0 0-2.03-.167z" style="fill:url(#Q);fill-opacity:1;stroke-width:1.81294;stroke-linecap:round;stroke-linejoin:round"/><path d="M175.68 35.813c-.02.336-.001.561.01.689.013.168.012.167-.053.61-.436 2.962-1.09 4.145-1.26 5.214-.107.675 4.805-3.304 4.94-4.449-1.219.45-2.005 1.027-2.512 1.37-.61.41-.815.479-.863-.11-.047-.574.056-1.774-.262-3.325z" style="fill:#ffebf8;fill-opacity:1;stroke-width:2;stroke-linecap:round;stroke-linejoin:round"/><path d="M78.93 69.064a105.24 105.24 0 0 0-62.99 20.932c.766 2.733 1.899 4.857 2.286 5.961.397 1.134.01 1.191-.436 2.18-1.632 3.618-.656 6.657-2.414 8.77-1.153 1.385-3.556 2.877-5.697 5.173-11.642 12.485-10.55 35.12 5.242 44.918 1.877 1.165 3.633 1.713 4.4 2.563s.548 2 1.069 3.712c1.486 4.89 6.385 15.142 21.199 14.13 1.603-.11 2.04-.249 3.205 1.45 1.165 1.7 3.056 5.235 5.715 8.551 14.654 18.281 38.555 19.923 53.99 13.17 2.412-1.055 3.098-1.906 3.715-2.111.616-.206 1.165.234 2.549 1.057 21.753 12.523 47.67 4.046 62.447-14.922 1.473-1.56 2.327-1.716 4.207-3.053a46.4 46.4 0 0 0 6.744-5.816 105 105 0 0 0 .01-1.424A105.24 105.24 0 0 0 78.93 69.065" style="fill:url(#R);fill-opacity:1;stroke-width:2;stroke-linecap:round;stroke-linejoin:round"/><path d="M145.436 129.832c-3.914 5.907-6.022 12.908-6.047 20.084q.27-.004.539-.004c5.56 0 10.535 1.18 14.832 3.201.2.095.388.207.586.305a32 32 0 0 1 2.277 1.24c.313.189.614.39.918.588q.906.588 1.76 1.229c.292.22.584.44.867.67q.883.717 1.705 1.49c.21.197.432.384.637.586a31 31 0 0 1 2.076 2.254c.1.12.188.25.287.373q.807.999 1.523 2.052c.188.276.36.558.538.838a31 31 0 0 1 1.53 2.692c.323.64.615 1.293.89 1.95.106.256.224.507.324.764.356.923.675 1.856.937 2.801.024.084.036.17.059.254q.344 1.297.568 2.611c.05.29.082.581.123.872a28 28 0 0 1 .266 3.037q.028.987-.014 1.97c-.013.319-.017.638-.04.955a27 27 0 0 1-.358 2.838l.281.01q.36-.443.711-.894c1.473-1.56 2.327-1.716 4.207-3.053 1.266-.9 2.441-1.83 3.541-2.777.389-.335.72-.684 1.09-1.024.67-.617 1.349-1.232 1.955-1.863.411-.428.767-.865 1.15-1.299.5-.564 1.012-1.124 1.465-1.695.349-.44.65-.882.973-1.324.336-.462.706-.92 1.015-1.383l-.01-.037c8.46-12.716 6.817-26.024 5.422-28.66-.164-.312-.265-.463-.244-.64-15.414 13.619-40.156 8.373-48.34-11.01z" style="opacity:.7;fill:url(#S);fill-opacity:1;stroke-width:2.04107;stroke-linecap:round;stroke-linejoin:round"/><path d="M202.105 76.582a35 35 0 0 1-2.869 2.98q.282-.243.577-.515 1.252-1.166 2.292-2.465m-5.63 5.277a34.8 34.8 0 0 1-15.371 6.496l.01.006c.475-.05.943-.021 1.42-.021 5.505 0 10.796 3.316 14.857 9.252-.76-1.392-.593-3.041-.559-4.574.041-2.001.042-5.043-.246-7.016s-.863-2.878-.418-3.72c.075-.142.179-.28.307-.423" style="opacity:.8;fill:url(#T);fill-opacity:1;stroke-width:2;stroke-linecap:round;stroke-linejoin:round"/><path d="M138.129 141.895a37.782 34.502 0 0 0-37.781 34.501 37.782 34.502 0 0 0 8.879 22.221c.382.189.86.5 1.537.903 21.408 12.325 46.85 4.31 61.736-14.028l-.281-.01c2.48-13.25-5.43-28.203-20.283-33.543a25.4 25.4 0 0 1 9.466-2.72 37.782 34.502 0 0 0-23.273-7.325zm37.088 41.058c-.234.147-.47.322-.7.49.233-.17.462-.34.7-.49m-.967.68" style="opacity:1;fill:url(#U);fill-opacity:1;stroke-width:2.09291;stroke-linecap:round;stroke-linejoin:round"/><path d="M9.492 152.564a27 27 0 0 0 5.43 4.434c1.877 1.165 3.633 1.713 4.4 2.563s.548 2 1.069 3.712c1.486 4.89 6.385 15.142 21.199 14.13 1.594-.11 2.036-.247 3.185 1.421a37.905 34.563 0 0 1-.51-5.646 37.905 34.563 0 0 1 4.083-15.604 31.708 30.857 0 0 1-16.155 4.305 31.708 30.857 0 0 1-22.7-9.315" style="opacity:.8;fill:url(#V);fill-opacity:1;stroke-width:2;stroke-linecap:round;stroke-linejoin:round"/><path d="M9.492 152.564a27 27 0 0 0 5.43 4.434c1.877 1.165 3.633 1.713 4.4 2.563s.548 2 1.069 3.712c1.486 4.89 6.385 15.142 21.199 14.13 1.594-.11 2.036-.247 3.185 1.421a37.905 34.563 0 0 1-.51-5.646 37.905 34.563 0 0 1 4.083-15.604 31.708 30.857 0 0 1-16.155 4.305 31.708 30.857 0 0 1-22.7-9.315" style="opacity:.7;fill:url(#W);fill-opacity:1;stroke-width:2;stroke-linecap:round;stroke-linejoin:round"/><path d="M42.033 173.48q0 1.944.192 3.877c1.112-.066 1.576.046 2.57 1.497 1.165 1.699 3.056 5.234 5.715 8.55 14.654 18.281 38.555 19.923 53.99 13.17 2.412-1.055 3.098-1.906 3.715-2.111.616-.206 1.165.234 2.549 1.057-.677-.403-1.155-.714-1.537-.903-5.735-6.22-8.88-14.09-8.88-22.22 0-10.11-58.313-24.79-58.314-2.917m133.184 9.473c-.238.15-.467.32-.7.49.23-.168.466-.343.7-.49m-.967.68" style="opacity:.8;fill:url(#X);fill-opacity:.482353;stroke-width:2;stroke-linecap:round;stroke-linejoin:round"/><path d="M16.191 105.398a4.5 4.5 0 0 1-.814 1.508c-1.153 1.386-3.556 2.878-5.697 5.174-11.642 12.485-10.55 35.12 5.242 44.918 1.877 1.165 3.633 1.713 4.4 2.563.394.435.528.95.635 1.58a35.736 31.784 0 0 0 16.809-26.961 35.736 31.784 0 0 0-20.575-28.782" style="opacity:.8;fill:url(#Y);fill-opacity:.509804;stroke-width:1.80796;stroke-linecap:round;stroke-linejoin:round"/><path d="M16.191 105.398a4.5 4.5 0 0 1-.814 1.508c-1.153 1.386-3.556 2.878-5.697 5.174-11.642 12.485-10.55 35.12 5.242 44.918 1.877 1.165 3.633 1.713 4.4 2.563.394.435.528.95.635 1.58a35.736 31.784 0 0 0 16.809-26.961 35.736 31.784 0 0 0-20.575-28.782" style="opacity:.8;fill:url(#Z);fill-opacity:.509804;stroke-width:1.80796;stroke-linecap:round;stroke-linejoin:round"/><path d="M78.662 1.42c-5.372-.318-9.79 1.166-10.998 1.62-3.053 1.146-6.348 3.007-8.867 5.778-5.541 6.491-6.723 14.702-4.045 22.18a34 34 0 0 0 9.05 1.232 33.87 33.87 0 0 0 31.58-21.623c-5.023-6.75-11.348-8.87-16.72-9.187" style="fill:url(#aa);fill-opacity:.509804;stroke-width:2;stroke-linecap:round;stroke-linejoin:round"/><ellipse cx="129.458" cy="37.213" rx="5.772" ry="2.602" style="opacity:1;fill:#f9b8d8;fill-opacity:1;stroke-width:2.20316;stroke-linecap:round;stroke-linejoin:round" transform="rotate(21.111)"/><path d="M88.537 59.702c-2.842-1.445-6.383-.806-9.245.623s-5.043 3.647-5.17 5.358c-.096 1.302.919 1.046 2.907-.736 6.546-5.864 12.957-3.417 13.517 3.671.123 1.572.05 2.824.755 3.106.969.388 1.762-1.862 1.571-4.587-.19-2.725-1.365-5.925-4.335-7.434" style="fill:#f9b8d8;fill-opacity:1;stroke-width:.303307"/><path d="M140.967 77.974c-2.647-1.78-6.238-1.575-9.252-.505s-5.45 3.007-5.783 4.69c-.255 1.281.784 1.15 2.975-.377 7.21-5.026 13.276-1.818 12.97 5.287-.069 1.574-.292 2.809.373 3.174.914.503 1.975-1.635 2.116-4.363s-.635-6.046-3.4-7.905" style="fill:#f58fc1;fill-opacity:.612069;stroke-width:.303307"/><path d="M62.629 73.447c-.057.091-.08.261-.072.489q-.053.397-.088.816c-.287 3.39-.107 10.76 1.472 16.045 7.37 24.663 33.885 40.614 55.254 35.654a40 40 0 0 0 4.834-1.457c.658 1.165 1.56 2.297 2.668 3.356 3.305 3.154 8.443 5.653 14.377 6.379 13.88 1.697 32.072-7.521 17.73-18.532-2.784-2.138-6.348-3.62-10.224-4.593a33 33 0 0 0-4.105-.756q.735-.762 1.47-1.565c.75-.817 3.64-4.259 5.278-6.217l1.15-1.377c-2.628 1.069-5.672 1.94-9.174 2.143-3.039.176-6.361-.256-8.89-.959-2.53-.704-4.283-1.657-5.928-2.822-1.646-1.165-3.15-2.53-4.024-3.303-.428-.379-.778-.735-1.369-.908-.615-.18-1.194-.004-1.717.21-1.037.428-2.509 1.226-5.035 1.733-4.64.933-18.07 2.51-27.861-7.63-2.193-2.271-3.858-4.643-4.846-6.008-.49-.678-.823-1.175-1.373-1.555-.575-.398-1.275-.455-1.926-.381l-.021.002c-4.771.968-9.272-.798-13.26-3.479-1.779-1.367-3.097-3.2-4.258-5.177a1 1 0 0 0-.062-.108" style="baseline-shift:baseline;display:inline;overflow:visible;vector-effect:none;fill:#f8aad0;fill-opacity:1;stroke-width:.538487;stroke-linecap:round;stroke-linejoin:round;stop-color:#000"/><path d="M96.646 99.871a42.743 28.16 0 0 0-25.498 5.559c11.373 15.942 31.292 24.91 48.047 21.021a40 40 0 0 0 4.834-1.457c-1.301-2.305-1.64-4.733-.715-6.959 1.233-2.963 4.326-5.048 8.254-6.242a42.743 28.16 0 0 0-34.922-11.922" style="opacity:1;fill:url(#ab);fill-opacity:1;stroke-width:2.46406;stroke-linecap:round;stroke-linejoin:round"/><path d="M122.893 121.89c-.071 1.097.117 2.217.535 3.323q.3-.107.6-.219a11 11 0 0 1-.436-.861l-.022-.053a10 10 0 0 1-.302-.758c-.033-.093-.059-.187-.088-.281a9 9 0 0 1-.153-.53q-.042-.177-.076-.355c-.018-.088-.044-.177-.058-.265" style="opacity:1;fill:#f698c6;fill-opacity:1;stroke-width:2;stroke-linecap:round;stroke-linejoin:round"/><path d="M142.072 110.037c-4.502-.072-8.9.72-12.23 2.361 5.219-2.092 12.463-2.37 18.738-.794a33 33 0 0 0-4.105-.756q.303-.314.605-.635c-1-.101-2.007-.16-3.008-.176" style="fill:#f581ba;fill-opacity:.544631;stroke-width:2;stroke-linecap:round;stroke-linejoin:round"/><path d="M129.387 115.725c.832.157 7.474 1.463 10.406 3.578.528.381.795.647.95.502 1.035-.964-2.536-3.991-8.155-5.618-3.858-1.342-9.597.329-3.201 1.538" style="fill:url(#ac);fill-opacity:1;stroke-width:2;stroke-linecap:round;stroke-linejoin:round"/><path d="M154.514 113.648a17.87 17.87 0 0 0-13.977 17.44 18 18 0 0 0 .371 3.619l.166.022c13.88 1.697 32.072-7.521 17.73-18.532-1.28-.983-2.726-1.828-4.29-2.549" style="opacity:1;fill:url(#ad);fill-opacity:1;stroke-width:2;stroke-linecap:round;stroke-linejoin:round"/><path d="M129.113 113.695c-2.685.077-4.275 1.17.274 2.03l.093.017a5.2 5.2 0 0 0 .836-2.015c-.413-.035-.82-.043-1.203-.032" style="opacity:1;fill:url(#ae);fill-opacity:1;stroke-width:2;stroke-linecap:round;stroke-linejoin:round"/><path d="M122.46 95.456a2.5 2.5 0 0 0-.831.157 18 18 0 0 0-.742 2.528c-.308 1.458-.453 3.178-.166 3.986.286.807 1.003.702 1.941.26a11.9 11.9 0 0 0 2.92-2.01c.614-.592 1.042-1.191 1.172-1.74-.978-.829-1.823-1.625-2.397-2.155-.428-.396-.778-.767-1.369-.948a1.8 1.8 0 0 0-.527-.078" style="fill:url(#af);fill-opacity:1;stroke-width:2.04395;stroke-linecap:round;stroke-linejoin:round"/><path d="M80.725 81.947a4 4 0 0 0-.495.028l-.021.002a13 13 0 0 1-2.686.276c-.234.608-.268 1.451-.15 2.416.173 1.41.674 3.084 1.223 4.262s1.145 1.862 2.031 1.345c.886-.516 2.062-2.232 2.883-3.84.263-.514.49-1.019.691-1.514l-.672-.956c-.49-.697-.823-1.208-1.373-1.599-.431-.307-.933-.416-1.431-.42" style="fill:url(#ag);fill-opacity:1;stroke-width:2.50493;stroke-linecap:round;stroke-linejoin:round"/><path d="M79.533 84.133a5.5 5.5 0 0 0-2.187.457l.027.238c.173 1.372.674 3 1.223 4.145s1.145 1.81 2.03 1.308c.887-.502 2.063-2.171 2.884-3.734q.117-.223.224-.443a5.47 5.47 0 0 0-4.2-1.971" style="opacity:1;mix-blend-mode:overlay;fill:url(#ah);stroke-width:2;stroke-linecap:round;stroke-linejoin:round"/><path d="M121.71 97.139a5 5 0 0 0-.587.037q-.13.464-.236.965c-.308 1.458-.453 3.178-.166 3.986.286.807 1.003.703 1.941.262a11.9 11.9 0 0 0 2.92-2.012q.25-.24.455-.48a4.77 4.77 0 0 0-4.326-2.758" style="opacity:1;mix-blend-mode:overlay;fill:url(#ai);fill-opacity:1;stroke-width:2;stroke-linecap:round;stroke-linejoin:round"/><path d="M195.8 177.523a1 1 0 0 0-.238.022c-.458.097-13.25 7.32-20.865 6.957a7 7 0 0 1-.79-.08 19 19 0 0 0-.657 4.953 19 19 0 0 0 4.656 12.46c2.906.119 5.908-.301 8.844-1.56 2.625-1.125 5.125-2.709 6.188-3.709s.686-1.416-.397-1.54c-1.083-.126-2.875.041-4.75.062s-3.833-.104-5.062-.188c-.75-.05-1.227-.086-1.293-.158l-.004-.006-.002-.006-.002-.006c0-.002 0-.008.002-.01l.004-.006c.03-.04.166-.096.42-.164.854-.229 3.063-.646 5.167-1.375 2.105-.729 4.104-1.77 5.666-3.25s2.687-3.396 3.291-5.375.69-4.02.606-5.312c-.073-1.13-.274-1.686-.783-1.71z" style="opacity:1;mix-blend-mode:normal;fill:url(#aj);fill-opacity:1;stroke-width:2;stroke-linecap:round;stroke-linejoin:round"/><path d="M236.412 153.012c-1.11-.039-2.287.14-3.49.547-4.14 1.398-7.748 4.923-11.639 9.095a14.38 14.38 0 0 0 13.217 8.721 14.38 14.38 0 0 0 9.932-3.982 18.5 18.5 0 0 0 .152-3.266c-.145-3.69-1.28-7.142-3.357-9.133a7.07 7.07 0 0 0-3.729-1.87 8 8 0 0 0-1.086-.112" style="opacity:1;mix-blend-mode:overlay;fill:url(#ak);fill-opacity:1;stroke-width:2;stroke-linecap:round;stroke-linejoin:round"/><circle cx="106.42" cy="78.489" r="51.265" style="opacity:1;mix-blend-mode:overlay;fill:url(#al);fill-opacity:1;stroke-width:1.62921;stroke-linecap:round;stroke-linejoin:round"/><path d="M158.63 197.76c-13.372 8.327-29.89 10.529-44.83 3.361.026.095-.004.238-.245 1.354a44 44 0 0 0-.475 2.472 45.507 28.125 0 0 0 20.924 3.15 45.507 28.125 0 0 0 27.453-5.695c-.57-1.596-1.448-3.197-2.826-4.642" style="opacity:1;fill:url(#am);fill-opacity:1;stroke-width:2;stroke-linecap:round;stroke-linejoin:round"/></g></svg>