<svg xmlns="http://www.w3.org/2000/svg" xmlns:xlink="http://www.w3.org/1999/xlink" xml:space="preserve" width="8102.667" height="1920"><defs><linearGradient id="c"><stop offset="0" style="stop-color:#e50000;stop-opacity:1"/><stop offset=".165" style="stop-color:#e50000;stop-opacity:1"/><stop offset=".167" style="stop-color:#ff8d00;stop-opacity:1"/><stop offset=".332" style="stop-color:#ff8d00;stop-opacity:1"/><stop offset=".332" style="stop-color:#fe0;stop-opacity:1"/><stop offset=".498" style="stop-color:#fe0;stop-opacity:1"/><stop offset=".498" style="stop-color:#028121;stop-opacity:1"/><stop offset=".665" style="stop-color:#028121;stop-opacity:1"/><stop offset=".665" style="stop-color:#004cff;stop-opacity:1"/><stop offset=".832" style="stop-color:#004cff;stop-opacity:1"/><stop offset=".832" style="stop-color:#708;stop-opacity:1"/><stop offset="1" style="stop-color:#708;stop-opacity:1"/><stop offset="1" style="stop-color:#708;stop-opacity:1"/></linearGradient><linearGradient id="a"><stop offset="0" stop-color="#5bcefa" style="stop-color:#708;stop-opacity:1"/><stop offset=".169" stop-color="#5bcefa" style="stop-color:#708;stop-opacity:1"/><stop offset=".169" stop-color="#f5a9b8" style="stop-color:#004cff;stop-opacity:1"/><stop offset=".324" stop-color="#f5a9b8" style="stop-color:#004cff;stop-opacity:1"/><stop offset=".324" stop-color="#e5e5e5" style="stop-color:#028121;stop-opacity:1"/><stop offset=".483" stop-color="#e5e5e5" style="stop-color:#028121;stop-opacity:1"/><stop offset=".483" stop-color="#f5a9b8" style="stop-color:#fe0;stop-opacity:1"/><stop offset=".639" stop-color="#f5a9b8" style="stop-color:#fe0;stop-opacity:1"/><stop offset=".639" stop-color="#5bcefa" style="stop-color:#ff8d00;stop-opacity:1"/><stop offset=".798" stop-color="#5bcefa" style="stop-color:#ff8d00;stop-opacity:1"/><stop offset=".798" stop-color="#5bcefa" style="stop-color:#e50000;stop-opacity:1"/><stop offset="1" stop-color="#5bcefa" style="stop-color:#e50000;stop-opacity:1"/></linearGradient><linearGradient id="b"><stop offset="0" stop-color="#fff"/><stop offset="1" stop-color="#cecece"/></linearGradient><linearGradient xlink:href="#a" id="f" x1="4046.535" x2="4046.535" y1="1641.565" y2="678.781" gradientUnits="userSpaceOnUse"/><linearGradient xlink:href="#c" id="i" x1="975.17" x2="2233.9" y1="960.749" y2="960.749" gradientTransform="rotate(90 2232.785 1591.229)" gradientUnits="userSpaceOnUse"/><linearGradient xlink:href="#c" id="e" x1="975.17" x2="2233.9" y1="960.749" y2="960.749" gradientTransform="rotate(90 2232.785 1591.229)" gradientUnits="userSpaceOnUse"/><linearGradient xlink:href="#c" id="h" x1="975.17" x2="2233.9" y1="960.749" y2="960.749" gradientTransform="rotate(90 2232.785 1591.229)" gradientUnits="userSpaceOnUse"/><radialGradient xlink:href="#b" id="g" cx="0" cy="53.033" r="43" fx="0" fy="53.033" gradientTransform="matrix(5.5153 3.4012 -5.51317 8.88562 1040.7 489.518)" gradientUnits="userSpaceOnUse"/></defs><path d="m1172.69 363.225-1023.735 1020.6 174.988 174.45 1023.735-1020.6Z" style="fill:url(#e);stroke-width:4.89082;stroke-linecap:round"/><path d="M1631.387 435.742c-33.447 0-64.561 13.375-88.785 37.598-23.391 23.392-36.055 54.085-36.055 87.246s12.543 64.05 35.639 88.361l.843.838c24.312 23.097 55.197 35.64 88.358 35.64 33.16 0 63.86-12.665 87.25-36.056 24.224-24.224 37.592-55.335 37.592-88.783 0-33.24-13.394-63.955-37.614-87.19-23.24-24.245-53.971-37.654-87.228-37.654m3886.836 0c-33.447 0-64.561 13.375-88.785 37.598-23.392 23.392-36.055 54.085-36.055 87.246s12.543 64.05 35.639 88.361l.843.838c24.312 23.097 55.197 35.64 88.358 35.64 33.16 0 63.86-12.665 87.25-36.056 24.224-24.224 37.592-55.335 37.592-88.783 0-33.24-13.394-63.955-37.614-87.19-23.24-24.245-53.971-37.654-87.228-37.654M2363.065 744.246c-62.072 0-119.894 14.666-172.045 43.887-19.596 10.98-30.86 17.287-47.596 31.322-1.603-9.39-28.68-66.408-99.912-66.408-27.445 0-52.353 8.024-69.867 25.549s-25.534 42.449-25.534 69.91v655.6c0 28.279 7.819 53.65 25.534 71.375l.636.613c17.687 16.336 42.093 23.465 69.23 23.465 28.099 0 62.373-7.799 79.288-25.907 17.288-17.507 25.248-42.257 25.248-69.547V1075.84c0-40.257 11.535-63.384 35.861-88.63 25.83-25.785 54.36-40.697 100.942-50.75 46.22-9.974 99.279-9.252 159.506 2.99 14.887 3.37 29.54 4.094 43.533 1.548 14.288-2.6 28.498-9.989 39.31-19.455l.131-.113c12.573-11.111 20.616-26.578 24.37-43.64 4.417-17.413.775-46.488-7.134-62.317-7.903-15.814-22.031-27.466-38.816-38.176-34.184-23.45-81.777-33.05-142.685-33.05m4826.902 2.873c-61.084 0-117.082 14.784-165.822 44.504-6.959 4.243-13.536 8.85-19.975 13.574-4.038-7.52-9.016-14.615-15.26-20.869-19.07-19.103-45.452-28.57-73.453-28.57-27.3 0-53.16 9.566-72.746 27.879l-.102.1-.539.523-.07.068c-19.07 19.103-28.507 45.522-28.507 73.563v640.697c0 27.34 9.545 53.228 27.824 72.848l.154.16 1.055 1.062.185.18c19.586 18.313 45.445 27.88 72.746 27.88 28 0 54.385-9.467 73.454-28.57l.096-.098.517-.539.072-.076c18.279-19.62 27.83-45.506 27.83-72.847v-406.016c0-48.013 13.504-83.542 41.043-112.752 27.65-29.327 59.437-42.828 102.752-42.828 42.07 0 71.813 11.844 96.143 36.217l.016.017.252.25.066.065c22.504 21.816 35.824 57.49 35.824 113.275v411.772c0 27.34 9.55 53.23 27.83 72.85l.158.163 1.055 1.061.183.176c19.586 18.313 45.444 27.883 72.745 27.883 28 0 54.384-9.469 73.453-28.57l.096-.1.517-.538.072-.076c18.28-19.62 27.824-45.51 27.824-72.85v-406.013c0-48.092 13.195-83.793 39.768-112.908 27.614-29.212 59.364-42.674 102.596-42.674 42.072 0 71.812 11.844 96.142 36.217l.25.252.082.08c22.504 21.817 35.826 57.49 35.826 113.275v411.772c0 27.34 9.551 53.23 27.83 72.85l.155.16 1.056 1.062.186.18c19.586 18.313 45.441 27.88 72.742 27.88 28 0 54.387-9.467 73.457-28.57l.094-.098.518-.539.072-.076c18.279-19.62 27.824-45.51 27.824-72.85v-411.771c0-69.577-12.585-130.43-39.045-181.445-25.197-51.363-61.998-91.69-109.113-118.508-46.794-26.634-100.508-39.742-159.328-39.742-66.407 0-127.14 14.501-180.52 43.86l-.012.003-.203.11c-26.03 14.6-49.15 32.472-69.63 52.962-19.624-22.942-42.608-42.224-68.907-57.193-46.793-26.633-100.508-39.742-159.326-39.742zm-2346.615.387c-59.66 0-114.025 6.81-169.102 34.293a327 327 0 0 0-27.627 15.527c-9.247 5.793-18.542 12.226-27.912 19.36-3.485-9.36-8.021-17.569-13.377-24.69a89.47 89.47 0 0 0-18.293-18.162 92 92 0 0 0-10.553-6.75 97 97 0 0 0-11.262-5.256 103 103 0 0 0-11.789-3.81c-4-1.035-8.058-1.835-12.148-2.41a115 115 0 0 0-12.33-1.057 119.3 119.3 0 0 0-24.514 1.76c-4.012.708-7.966 1.619-11.836 2.724-15.474 4.421-29.576 11.956-40.447 22.11l-.543.53a102 102 0 0 0-6.41 7.048 104.3 104.3 0 0 0-10.873 15.923c-7.861 14.17-12.526 30.389-12.526 47.163v650.757c0 26.068 9.064 50.483 26.332 68.998l1.069 1.077a81 81 0 0 0 7.332 6.068c7.709 5.657 16.484 10.08 25.79 13.291a114 114 0 0 0 9.464 2.807c3.2.8 6.437 1.465 9.695 1.998a122 122 0 0 0 19.625 1.595c13.41 0 28.824-2.043 43.12-6.32s27.472-10.789 36.405-19.728l.522-.547a96 96 0 0 0 6.09-7.211 96 96 0 0 0 9.83-15.883 98 98 0 0 0 3.72-8.572c4.424-11.676 6.69-24.297 6.69-37.33v-411.47c0-3.102.152-6.412.475-9.892 2.582-27.839 16.039-66.522 49.017-96.355 20.612-18.646 48.849-33.835 86.824-40.758 15.19-2.77 31.94-4.216 50.381-4.033 9.69-.019 20.03.408 30.703 1.511 10.674 1.104 21.682 2.883 32.711 5.57a209 209 0 0 1 16.524 4.743 188 188 0 0 1 16.318 6.277c2.674 1.177 5.261 2.65 7.895 3.971 2.664 1.337 5.374 2.526 7.986 4.018a158 158 0 0 1 15.209 9.87c4.93 3.624 9.71 7.59 14.299 11.928 2.379 2.25 4.55 4.887 6.82 7.34 2.11 2.279 4.328 4.357 6.336 6.819 2.964 3.633 5.656 7.728 8.373 11.777 1.104 1.645 2.342 3.069 3.402 4.785a169 169 0 0 1 10.164 19.143c3.093 6.83 5.876 14.117 8.313 21.892 7.31 23.327 11.496 51.043 11.496 83.928v358.94c0 3.116.149 6.205.406 9.267.012.14.01.283.018.422.038.426.126.839.168 1.264a105 105 0 0 0 2.713 15.359c.175.691.286 1.405.475 2.092q1.251 4.547 2.912 8.927a97.4 97.4 0 0 0 8.242 16.74 95.6 95.6 0 0 0 11.398 14.926l1.07 1.077a54 54 0 0 0 3.684 3.134 64 64 0 0 0 4.09 2.922c2.853 1.88 5.945 3.62 9.217 5.221 19.63 9.606 45.72 14.238 65.258 14.238 16.281 0 31.881-3.588 45.61-10.597a90 90 0 0 0 8.005-4.616 88 88 0 0 0 14.428-11.662 96 96 0 0 0 12.178-14.914 96 96 0 0 0 4.857-8.21 96 96 0 0 0 4.014-8.641 98.3 98.3 0 0 0 5.423-18.356 102.6 102.6 0 0 0 1.838-19.418v-358.945c0-20.874-1.006-41.029-3.037-60.45-.332-3.18-1.116-6.036-1.504-9.177-6.71-54.393-21.252-103.152-44.847-145.264v-.002c-15.983-29.384-35.27-55.406-57.701-77.851-22.432-22.446-48.008-41.318-76.565-56.403-41.925-23.256-88.236-37.722-138.361-43.502-16.708-1.926-33.84-2.888-51.373-2.888zm-1007.014.34c-81.823.065-155.764 18.498-219.875 55.744l-.01.002v.006c-63.798 36.11-114.849 87.292-151.768 151.98l-.072.13v.003c-36.28 64.345-54.125 138.872-54.125 221.795 0 82.013 17.874 156.468 54.026 221.621v.01l.2.364.065.113c36.96 63.727 87.933 114.756 151.584 151.76l.183.109.121.068c64.212 36.293 138.184 54.193 220.102 54.193s155.882-17.9 220.094-54.193l.096-.055.213-.123.018-.012c63.702-37.037 114.284-88.185 150.295-152.053l.019-.035.074-.134.01-.01c36.152-65.153 54.025-139.61 54.025-221.623 0-82.92-18.356-157.491-55.582-221.807-35.975-64.756-86.61-116.016-150.426-152.127-72.614-42.178-149.943-55.727-219.267-55.727zm-868.664 1.773c-80 0-152.495 18.4-215.543 55.502-62.756 35.981-112.718 86.974-148.565 151.393-36.06 64.8-53.898 138.858-53.898 220.5 0 79.827 17.898 152.935 53.898 217.627l.057.1.21.357c36.837 63.34 87.545 114.47 150.906 152.219l.123.07.332.187h.01v.01l.012.01c64.879 37.006 138.706 55.399 219.676 55.399 109.457 0 203.906-34.808 278.119-103.754l.072-.068.558-.54.08-.077c18.02-17.99 28.11-42.456 25.211-67.28-2.818-25.027-16.75-47.264-37.132-64.07-17.611-14.81-40.58-21.687-63.454-19.197-22.53 1.541-43.847 11.054-62.455 26.148l-.076.061c-18.502 15.113-38.808 26.294-61.51 33.89-21.572 6.584-48.063 10.204-79.415 10.204-46.625 0-85.738-10.298-119.489-30.453-34.373-21.493-60.914-49.633-80.82-85.84-18.79-35.908-28.416-77.07-28.416-124.992 0-51.095 9.783-93.823 28.523-129.541 18.98-36.175 44.326-63.008 77.41-82.488l.052-.03.355-.212.045-.028c32.883-20.202 70.486-30.414 115.139-30.414 63.599 0 113.2 21.18 155.595 66.096l.045.047.448.465.078.078c16.498 16.47 36.165 28.139 57.88 33.24l.165.037 1.203.246.164.031c22.896 4.034 46.442-1.243 65.38-14.686 0 0 .01 0 .01-.01l.087-.055.18-.125c21.187-15.277 36.81-35.392 42.425-59.218 5.99-25.416-2.838-51.772-20.48-71.928-39.675-45.69-85.17-80.444-136.04-103.291-50.876-23.81-106.948-35.621-167.134-35.621zm3543.758 2.28c-27.31 0-53.174 9.571-72.766 27.88l-.076.075-.537.515-.096.096c-19.075 19.1-28.525 45.516-28.525 73.555v406.02c0 29.294-7.638 53.994-23.694 77.306-16.363 23.757-38.076 42.437-66.867 56.851l-.197.1-.114.055c-27.139 14-58.698 21.293-96.15 21.293-39.4 0-73.642-7.343-103.918-21.6-29.51-14.837-52.12-36.19-69.656-66.228-17.02-30.09-26.397-69.514-26.397-119.61V854.024c0-27.49-10.487-53.418-29.998-72.05-18.609-19.555-44.52-30.073-71.996-30.073-27.77 0-54.023 10.53-73.474 30.006-18.843 18.868-28.524 44.757-28.524 72.115v354.186c0 83.24 15.557 155.43 48.06 215.275l.013.021.14.258.033.06c33 58.86 78.317 104.917 134.733 136.3l.082.045.416.225.053.027c57.106 30.15 121.508 45.068 191.676 45.068 68.357 0 130.609-14.987 185.03-45.367 13.542-7.428 26.269-15.668 38.376-24.492 4.543 12.188 11.1 23.61 20.215 33.388l.168.172 1.054 1.057.172.168c19.592 18.31 45.457 27.875 72.766 27.875 28.008 0 54.395-9.466 73.469-28.565l.05-.053.524-.535.115-.119c18.285-19.617 27.834-45.508 27.834-72.846V854.02c0-28.038-9.448-54.455-28.523-73.554s-45.461-28.567-73.47-28.567zm-4880.05 2.302c-27.66 0-53.569 9.088-73.214 26.414l-.574.533c-18.97 17.927-28.516 42.824-28.516 69.733v651.012c0 26.138 9.618 50.621 27.953 69.185l1.137 1.074c19.644 17.326 45.555 26.414 73.215 26.414 28.477 0 54.826-9.019 73.797-26.945l.56-.543c18.336-18.564 27.955-43.047 27.955-69.185V850.88c0-26.91-9.544-51.806-28.515-69.733-18.97-17.926-45.32-26.947-73.797-26.947m3886.837 0c-27.66 0-53.57 9.088-73.215 26.414l-.574.533c-18.97 17.927-28.516 42.824-28.516 69.733v651.012c0 26.138 9.618 50.621 27.953 69.185l1.137 1.074c19.644 17.326 45.555 26.414 73.215 26.414 28.477 0 54.826-9.019 73.797-26.945l.56-.543c18.336-18.564 27.955-43.047 27.955-69.185V850.88c0-26.91-9.544-51.806-28.515-69.733-18.97-17.926-45.32-26.947-73.797-26.947m-1681.455 181.33c45.466 0 83.87 10.238 117.529 30.457 33.878 20.352 59.493 47.965 78.373 84.912l.061.118.287.539.035.062c19.522 35.693 29.55 77.067 29.55 125.886s-10.028 90.192-29.55 125.885l-.01.012-.193.354-.057.107c-18.831 35.994-44.47 63.277-78.498 83.719-33.66 20.22-72.065 30.459-117.532 30.459s-83.878-10.24-117.537-30.46c-34.117-20.494-60.391-47.984-80.195-84.19-19.521-35.694-29.547-77.065-29.547-125.885 0-48.814 10.022-90.184 29.54-125.873l.01-.012.046-.08.094-.17c19.85-37.153 46.089-64.975 80.055-85.38 33.658-20.22 72.069-30.457 117.535-30.458z" style="line-height:.8;-inkscape-font-specification:&quot;Comfortaa Bold&quot;;fill:url(#f)"/><path fill="url(#g)" d="m148.955 1383.824 1023.735-1020.6 174.987 174.452L323.943 1558.275Z" opacity=".547" style="mix-blend-mode:multiply;fill:url(#g)"/><path d="M748.955 1170.54c-207.458 0-414.9 67.515-587.549 202.528-56.668 44.32-58.098 127.097-9.9 176.436 50.454 51.684 131.809 50.407 190.297 8.742 244.608-174.21 569.713-174.21 814.304 0 58.504 41.665 138.009 44.822 186.19-4.533 50.47-51.667 50.891-136.325-5.778-180.645-172.648-135.03-380.105-202.529-587.564-202.529" style="fill:url(#h);stroke-width:4.89082;stroke-linecap:round"/><path d="M243.555 331.387c-33.226.172-65.14 11.726-89.239 36.386-50.454 51.667-50.874 136.324 5.795 180.66 345.28 270.028 829.816 270.028 1175.114 0 56.668-44.336 58.1-127.097 9.902-176.453-50.454-51.667-131.81-50.407-190.314-8.742-244.61 174.211-569.7 174.211-814.292 0-29.25-20.815-63.756-32.024-96.966-31.851" style="fill:url(#i);stroke-width:4.89082;stroke-linecap:round"/></svg>