<svg xmlns="http://www.w3.org/2000/svg" xmlns:xlink="http://www.w3.org/1999/xlink" xml:space="preserve" width="2000" height="1886.667"><defs><linearGradient id="a"><stop offset="0" stop-color="#fff433"/><stop offset=".265" stop-color="#fff433"/><stop offset=".265" stop-color="#fff"/><stop offset=".561" stop-color="#fff"/><stop offset=".561" stop-color="#9b59d0"/><stop offset=".847" stop-color="#9b59d0"/><stop offset=".847" stop-color="#2d2d2d"/><stop offset="1" stop-color="#2d2d2d"/></linearGradient><linearGradient xlink:href="#a" id="b" x1="1405.242" x2="1284.734" y1="291.045" y2="1476.776" gradientUnits="userSpaceOnUse"/><linearGradient xlink:href="#a" id="d" x1="1405.242" x2="1284.734" y1="291.045" y2="1476.776" gradientUnits="userSpaceOnUse"/><linearGradient xlink:href="#a" id="e" x1="1405.242" x2="1284.734" y1="291.045" y2="1476.776" gradientUnits="userSpaceOnUse"/><linearGradient xlink:href="#a" id="f" x1="1405.242" x2="1284.734" y1="291.045" y2="1476.776" gradientUnits="userSpaceOnUse"/><linearGradient xlink:href="#a" id="c" x1="1405.242" x2="1284.734" y1="291.045" y2="1476.776" gradientUnits="userSpaceOnUse"/><linearGradient xlink:href="#a" id="h" x1="1405.242" x2="1284.734" y1="291.045" y2="1476.776" gradientUnits="userSpaceOnUse"/><linearGradient xlink:href="#a" id="i" x1="1405.242" x2="1284.734" y1="291.045" y2="1476.776" gradientUnits="userSpaceOnUse"/><linearGradient xlink:href="#a" id="g" x1="1405.242" x2="1284.734" y1="291.045" y2="1476.776" gradientUnits="userSpaceOnUse"/><linearGradient xlink:href="#a" id="j" x1="1405.242" x2="1284.734" y1="291.045" y2="1476.776" gradientUnits="userSpaceOnUse"/></defs><path fill="#692e2e" d="M1469.518 1454.581c-.462-.014-3.693-1.026-5.248-1.755-1.554-.73-5.234-2.506-8.107-3.348-3.809-1.118-8.448-2.588-12.754-4.619s-8.278-4.62-8.278-4.62.292-1.271 1.38-6.403c.727-3.432 1.527-7.598 1.779-9.258.69-4.56 2.335-13.737 2.335-13.737s7.918 3.09 11.65 6.62c3.833 3.625 6.724 6.089 8.578 6.078 1.736-.01 11.116-2.329 15.162-3.766 2.255-.8 2.524-.967 3.439-2.938 4.75-10.227 5.175-11.862 6.34-21.167 0 0 .768-6.727.625-8.58-.118-1.521-2.576-1.766-6.215-1.476-4.73.377-6.37 1.057-9.637 2.056-4.57 1.398-11.428 2.654-14.59 3.128-.892.134-29.797 2.294-20.471-37.378 1.861-7.92 4.83-17.573 6.869-22.672l2.812-7.044c2.748-6.886 2.326-4.725 3.702-8.607 1.49-4.199 7.707-19.082 9.05-21.691 1.705-3.312 2.947-3.142 17.402-6.638a655 655 0 0 0 5.872-1.458c3.11-.789 10.558-1.865 12.447-1.647 5.72.662 12.482.69 16.52-.028 2.49-.442 5.648-.603 5.648-.603s-.577 1.874-1.301 4.73c-1.126 4.435-1.565 7.107-2.665 16.226-.77 6.376-3.693 22.718-3.693 22.718s-3.002-1.668-6.786-4.909c-4.953-4.243-8.116-6.328-16.567-10.715-3.416-1.774-3.312-1.554-3.691-1.48-3.124.61-8.917 3.36-10.064 5.294-1.068 1.8-1.762 4.079-3.143 7.096-.588 1.285-1.063 1.903-1.67 3.252-2.408 5.35-2.895 6.547-4.302 9.937-1.625 3.916-2.135 6.98-2.558 9.485-.452 2.674 1.121 4.303 2.105 7.208 1.292 3.813 1.917 5.81 4.099 6.086 1.77.224 4.592-1.17 9.655-3.729 4.807-2.43 6.222-2.464 10.815-2.962 1.385-.15 4.326-.458 6.53-.742 7.12-.92 8.776-1.213 12.453 1.417 1.754 1.255 6.758 3.773 7.958 5.8.22.37.28 1.087.265 1.521-.096 2.867-1.204 9.78-1.986 14.28a6272 6272 0 0 0-2.492 14.087c-3.66 24.138-4.98 27.06-8.466 31.697-8.988 11.953-17.698 29.627-21.667 33.595-2.386 2.387-8.677 1.673-9.14 1.66zM1391.24 317.124c-11.005 2.417-15.2 13.307-18.778 24.803-11.046 28.934-34.242 51.537-36.545 81.947-1.766 21.831.921 44.45 3.962 65.983s6.436 41.98 9.585 59.968c7.28 41.594 18.311 77.645 30.24 104.429 12.033 27.015 29.755 49.168 51.079 63.71 20.816 14.196 37.818 27.696 60.904 38.588 2.153 1.016 5.852 1.335 7.82.017 7.327-4.909 17.078-18.575 22.358-29.98.346-.747.88-1.97 1.208-2.725 6.88-15.855 12.801-32.111 12.801-32.111s-6.462-12.047-15.482-27.106c-9.021-15.06-20.6-33.13-28.361-45.177-2.625 17.453-3.033 34.456-7.286 50.951-.942 1.392-10.763 1.714-25.493-8.076-24.011-12.838-40.065-39.566-49.533-60.123-10.08-21.884-9.957-48.227-14.7-77.133-2.867-17.471-5.308-42.044-5.088-54.615.038-16.287 5.943-28.368 9.48-43.808 3.418-14.92 8.674-32.822 13.87-33.46 15.221-1.009 49.703 63.575 66.076 89.926-2.194-25.099-2.674-20.173-5.782-65.916-1.43-21.062-3.25-39.608-3.25-39.608-.161.024-5.339-6.43-10.758-13.249-5.692-7.162-10.802-15.716-14.78-20.12-4.522-5.008-15.434-13.786-24.806-18.887s-18.178-10.548-28.741-8.228m179.93 839.544c6.314-57.444 7.747-83.74 8.556-100.256.598-12.2-8.204-49.492-16.358-84.189-2.555-10.874-6.538-29.204-7.23-36.832-.811-8.946-3.163-24.925-6.798-34.912-2.943-8.085-4.54-16.143-6.12-24.513-3.35-17.73-9.133-54.033-9.227-54.064 7.005-3.6 14.81-2.219 22.366-2.296 10.801-.111 13.994-.632 21.846-5.6l9.428-6.206a.208.208 0 0 1 .32.149l2.377 19.62c3.637 30.021 7.074 71.688 12.677 95.423 3.093 13.104 4.84 29.845 6.141 37.082.532 4.65.781 12.038 1.916 14.552 0 0 .216-1.236.722-3.61 13.322-62.465 19.81-94.367 27.048-172.023l.94-10.085 8.685-.437c22.825-1.149 35.525-17.06 42.7-19.68.127-.046.21.028.186.16-.21 1.11-1.134 5.916-2.448 11.362-7.039 29.2-19.403 82.143-23.465 100.648-2.473 11.267-6.11 25.904-8.082 32.527-7.765 26.076-8.953 30.408-13.218 55.324-2.428 14.182-7.8 40.104-11.937 57.605-7.389 31.255-7.55 32.41-9.12 65.054-.878 18.279-2.781 41.064-3.618 50.787s-1.306 29.576-1.044 44.12l.663 27.692-6.364-.986c-8.18-1.268-16.238-1.839-33.17.491-6.467.534-14.79-.06-14.79-.06 2.554-18.811 6.418-56.847 6.418-56.847m-164.727 86.21c-.208-2.296-1.663-17.361-3.068-33.036-3.762-41.98-11.978-123.912-15.39-152.561a51365 51365 0 0 0-4.62-38.719c-5.978-49.725-8.018-70.55-12.942-106.031-8.77-63.197-16.501-105.831-16.15-107.647.61-.136 20.949 3.007 23.257 3.324 22.845 3.137 32.076 4.097 53.5 8.566 13.09 2.731 18.607 5.08 27.857 5.252 6.828.127 10.952-1.495 12.303-1.079 7.85 2.423 21.427 20.209 34.715 46.804 12.846 25.709 15.29 29.576 16.28 44.908.465 7.2.864 22.856.888 34.79.041 20.382-.107 22.172-2.43 29.5-3.082 9.714-8.39 19.542-13.042 23.052-3.437 2.594-15.189 13.349-26.5 23.156-2.94 2.549-5.603 4.918-5.603 5.512s6.507 3.658 14.345 7.444c22.546 10.892 27.569 15.116 32.66 30.086 4.034 11.858 12.777 61.143 12.777 72.593 0 11.3-8.583 52.203-12.46 59.873-7.162 14.167-24.514 24.207-49.15 28.44-11.872 2.038-26.629 5.903-36.819 9.641-4.675 1.715-12.823 4.662-18.151 6.42l-11.868 3.995zm61.69-75.163c8.127-3.661 13.347-6.78 14.896-8.621 3.12-3.707 3.014-9.185 2.75-21.222-.058-2.643-.895-6.892-1.18-11.62-.284-4.73-.143-9.934-.39-14.471-.95-17.373-.852-18.309-4.85-27.116-3.56-7.845-7.693-13.704-11.917-15.709-3.893-1.847-26.386-5.85-28.589-6.239-.096-.017-.161.048-.145.144.215 1.331 1.644 10.132 3.463 20.993 1.976 11.8 5.181 36.017 7.123 53.816 3.98 36.49 3.159 36.912 4.869 36.256.68-.26 6.967-3.056 13.97-6.211m4.294-206.478c2.703-5.297 2.498-10.316-.968-28.706-1.47-7.796-.94-8.244-2.202-13.625-1.209-5.158-4.833-14.613-7.255-19.078-1.434-2.643-2.163-6.29-5.378-6.426-2.519.004-12.942-.618-21.337-.84l-14.17-.375.503 2.25c1.95 8.736 5.12 30.983 6.388 41.407 1.204 9.898 5.48 54.354 5.524 57.657.01.697.263 1.257.263 1.257 20.519-12.487 36.368-29.085 38.632-33.52m-312.73 230.145c-1.277-10.508-3.553-31.303-5.279-45.107l-3.27-26.158-6.094-1.708c-9.462-2.652-13.386-5.519-18.51-9.706-2.055-1.678-4.281-3.817-4.733-4.255-.046-.044-.082-.028-.081.037a395 395 0 0 1-.245 17.913c-.61 16.308-4.226 57.972-4.742 63.872-.034.386-.308.503-.615.262-1.198-.94-4.16-3.244-7.096-5.35-13.405-9.62-20.317-13.259-34.699-18.275-3.078-1.074-5.03-1.636-5.978-1.888a.84.84 0 0 1-.608-.874c.565-5.383 4.238-40.297 6.07-54.742.818-6.445 2.411-20.2 3.54-30.568 3.366-30.891 9.106-72.955 14.718-107.05 4.006-24.335 8.497-55.48 10.17-70.117 2.323-20.31 5.93-41.752 7.51-47.225.765-2.646 2.118-10.9 3.008-18.34 1.568-13.109 2.177-19.842 2.316-21.466a.437.437 0 0 1 .428-.392h1.722c.218 0 .44.17.495.382 1.56 5.927 20.785 79.028 22.354 89.25 1.068 6.953 2.9 15.52 12.83 60.03 1.937 8.686 4.188 19.92 5 24.964s2.867 15.819 4.563 23.945c23.934 112.098 31.307 149.531 34.744 173.914 1.769 12.552 2.838 15.115 3.19 15.637.057.085.06.18-.028.238-1.381.914-11.522 7.522-17.248 8.422-5.748.904-18.8 3.792-20.495 4.169a.174.174 0 0 1-.211-.146 632 632 0 0 1-2.726-19.668m-26.512-208.585c-1.288-13.332-7.711-46.994-8.167-49.37-.014-.074-.032-.073-.038.002-.04.467-.164 2.238-.168 6.666 0 4.455-.758 20.133-1.868 34.839s-2.371 33.524-2.894 42.067l-.89 14.572a.18.18 0 0 0 .118.183l11.501 4.308a189 189 0 0 1 11.798 4.882c.067.031.121 0 .114-.079-.212-2.246-5.322-14.764-9.506-58.07m-811.611-40.756c-1.098.058-2.107.952-2.406 2.139-1.746 6.906-6.352 25.026-10.441 40.226-.52 1.932-1.375 5.063-1.784 7.02-3.546 16.995-5.881 47.74-5.881 66.107l2.181 2.238-2.183.555c.005 5.042.067 8.706.13 10.213.019.42.357.934.72 1.15 64.765 38.505 115.172 81.143 166.71 148.922 1.125 1.48 2.276 1.197 2.567-.64 7.292-46.908 6.098-123.379-27.564-170.008s-78.62-85.945-120.943-107.684a2.15 2.15 0 0 0-1.106-.24zm467.562-543.893c-10.944 13.634-32.96 72.642-140.975 193.25-103.566-47.923-187.312-5.252-221.928 18.347-126.254-101.15-155.895-157.552-168.45-169.76-2.213-2.152-5.194.12-5.42 3.319-3.73 52.838-8.253 116.333-2.738 175.347 5.654 60.5 43.885 109.985 68.926 157.176.528 1.18 1.567 4.41-.451 14.125-7.288 30.793-17.204 58.547-8.701 90.307 19.48 53.299 88.923 35.722 127.754 89.506 6.026 8.347 13.216 20.66 17.633 26.76 22.318 30.569 53.784 35.47 87.12 25.11 10.991-3.501 20.629-5.292 29.608-5.97 8.97-.805 18.771-.622 30.188 1.027 37.11 6.566 62.739-4.71 81.812-39.078 3.355-6.741 8.426-20.07 13-29.293 29.47-59.43 100.857-53.496 111.32-109.271 3.172-32.725-11.167-58.473-23.414-87.65-3.586-9.252-3.092-12.61-2.765-13.86 16.95-50.663 50.298-106.144 42.177-166.361-7.78-57.704-18.48-118.375-28.897-170.465-.628-3.145-3.86-4.981-5.8-2.566m-60.953 346.309c1.498 12.036-5.195 39.95-8.934 48.055-12.27 26.6-35.166 40.497-77.787 60.756-15.52 7.377-23.326 12.175-23.326 12.175-.265-.187.024-4.379 4.29-13.416 24.462-51.835 61.866-80.414 105.757-107.57m-355.746 29.41c47.755 19.58 89.342 41.63 121.986 88.744 5.691 8.214 6.664 12.302 6.434 12.53 0 0-8.486-3.451-25.008-8.18-45.369-12.984-70.237-22.932-86.709-47.156-5.018-7.38-16.205-33.82-16.703-45.938"/><path fill="#fff" d="M803.516 375.501c-10.944 13.634-32.96 72.642-140.975 193.25-103.566-47.923-187.312-5.252-221.928 18.347-126.254-101.15-155.895-157.552-168.45-169.76-2.213-2.152-5.194.12-5.42 3.319-3.73 52.838-8.253 116.333-2.738 175.347 5.654 60.5 43.885 109.985 68.926 157.176.528 1.18 1.567 4.41-.451 14.125-7.288 30.793-17.204 58.547-8.701 90.307 19.48 53.299 88.923 35.722 127.754 89.506 6.026 8.347 13.216 20.66 17.633 26.76 22.318 30.569 53.784 35.47 87.12 25.11 10.991-3.501 20.629-5.292 29.608-5.97 8.97-.805 18.771-.622 30.188 1.027 37.11 6.566 62.739-4.71 81.812-39.078 3.355-6.741 8.426-20.07 13-29.293 29.47-59.43 100.857-53.496 111.32-109.271 3.172-32.725-11.167-58.473-23.414-87.65-3.586-9.252-3.092-12.61-2.765-13.86 16.95-50.663 50.298-106.144 42.177-166.361-7.78-57.704-18.48-118.375-28.897-170.465-.628-3.145-3.86-4.981-5.8-2.566M742.562 721.81c1.498 12.036-5.195 39.95-8.934 48.055-12.27 26.6-35.166 40.497-77.787 60.756-15.52 7.377-23.326 12.175-23.326 12.175-.265-.187.024-4.379 4.29-13.416 24.462-51.835 61.866-80.414 105.757-107.57m-355.746 29.41c47.755 19.58 89.342 41.63 121.986 88.744 5.691 8.214 6.664 12.302 6.434 12.53 0 0-8.486-3.451-25.008-8.18-45.369-12.984-70.237-22.932-86.709-47.156-5.018-7.38-16.205-33.82-16.703-45.938"/><path fill="#692e2e" d="M1633.17 619.936c-12.602-5.018-24.98-7.835-38.91-9.39 4.384 33.823 18.895 139.99 19.86 143.52 0 0 .485 1.032-51.322 1.032-2.277-67.94-15.3-172.271-23.874-217.302-6.75-35.447-12.144-31.316-25.952-80.617-17.654-63.028-22.216-106.393-26.522-125.176 32.133 17.635 62.975 41.666 99.487 49.32 0 0 .562 6.405-.736 28.531-.906 15.452-.719 39.739 1.936 59.33 3.81 28.117-.01 57.786 3.849 84.382 27.21-46.794 38.583-90.633 47.58-136.9 2.88 2.264 21.522 21.514 28.34 26.439 14.095 10.16 28.008 24.861 40.218 37.133-9.441 36.13-80.742 100.242-80.916 100.137 0 0 45.528 18.72 51.974 32.577 18.613 40.009 33.948 142.54 33.948 142.54-46.207-.311-50.88 2.074-57.579 1.943-.33-122.549-21.381-137.5-21.381-137.5m-551.454 141.582c.542-3.447 6.314-79.546 6.334-83.172.01-1.184.592-8.938 1.3-17.23 2.558-29.903 1.512-48.704-.448-81.164-1.096-18.164-2.103-40.455-2.236-49.536-.314-21.32-.385-50.771-3.6-62.935-5.665-21.431-10.521-121.757-9.108-123.63 0 0 7.928 1.074 13.144 1.967 8.687 1.488 10.19 1.348 17.903-1.668 10.521-4.342 21.609-6.677 32.799-8.75-2.17 80.64-3.711 161.406-1.894 242.054.864 36.326 3.514 75.598 3.561 87.271.074 18.131.683 21.121 2.779 20.841 22.517-3.003 51.635-17.089 70.416-30.162l-.426 38.353c-.336 30.23-4.698 53.741-6.74 60.877-.943 3.293-26.104 4.441-70.13 5.848-8.198-1.201-49.592 5.96-53.654 1.036"/><path fill="#692e2e" d="M1292.053 681.554c-10.384-58.802-14.364-94.466-13.32-94.07.674 1.814-40.365-14.002-39.847-14.091 1.124-.194-1.42 13.672-3.76 29.776-2.562 17.648-4.603 36.153-7.145 42.277-18.538-10.54-35.447-26.956-57.073-30.33 1.011-6.367 54.387-257.547 63.695-269.866.297-.392 1.737-3.806 2.716-8.74 2.177-10.976 5.287-28.374 5.335-28.8.645-5.716 12.626 34.306 19.958 49.81 4.407 9.318 32.2 79.885 32.57 92.656.306 10.54 60.33 226.838 60.33 226.838.318.103-15.236 9.36-27.936 6.664-12.701-2.696-35.35-2.47-35.523-2.124m-23.621-172.394c-1.855-5.166-11.194-38.68-11.317-59.64-.094-16.015-11.392-34.658-7.922-34.04 3.433.61-9.698 72.969-12.024 86.474-.79 4.588 31.543 7.985 31.263 7.206m-324.07 236.162-17.81-.168c2.881-103.765 4.7-86.36 5.079-244.19l.049-74.95 7.752-3.82c3.568-1.759 10.625-7.066 16.153-10.955s17.804-12.124 27.28-18.3c9.477-6.175 19.653-13.678 22.613-16.674 5.675-5.741 10.188-6.813 15.89-3.773 5.785 3.084 22.958 16.875 27.633 22.693 7.386 9.19 7.855 11.622 6.815 35.346-1.519 34.66-1.893 45.037-7.937 59.28-5.528 13.023-7.966 16.165-32.113 41.378-11.236 11.732-16.89 17.919-16.89 19.83 0 .779 5.846 2.247 13.105 3.575 15.943 2.917 26.162 7.091 29.773 12.162 5.855 8.222 9.638 31.625 15.447 81.717 1.324 11.419 1.197 14.956-.84 23.335-3.519 14.48-14.438 50.404-16.48 54.218-2.888 5.397-10.32 15.525-15.046 17.976-34.984 11.071-50.259 1.605-80.473 1.32m33.368-59.631c21.3-5.903 20.133-6.876 21.106-34.89.367-10.542.963-22.397 1.325-26.345.84-9.163-2.972-24.845-8.42-31.37-4.308-5.16-8.391-4.945-20.895-5.091l-5.327-.063.373 46.934c.364 45.891.761 53.587 2.418 53.587.39 0 9.42-2.762 9.42-2.762m-1.845-162.145c9.176-9.63 22.828-29.744 25.391-34.557 2.004-3.763 1.202-25.4-.575-34.108-1.478-7.238-5.18-16.751-7.689-15.158a1361 1361 0 0 0-27.59 17.948l.633 37.837c.353 21.123-.276 37.773.321 37.773s4.806-4.8 9.51-9.735m-274.933 760.663c10.03-16.432 28.213-27.472 30.533-46.614 65.72-21.575 126.82-14.557 167.836 41.476-3.436 39.99-29.91 58.144-59.276 80.395-39.231-67.22-106.644-74.312-139.093-75.257m645.242 284.058c7.243-.255 44.272 78.59 31.748 125.368-.53 1.982-63.95 28.89-95.775 29.956-24.423.818-58.372-2.135-66.24-25.966-18.853-57.112 80.95-105.642 130.267-129.358m164.222-100.483s-36.573 22.881-67.512 42.492c.04 1.595.428 3.19.773 4.786-1.665-.49-3.273-1.412-4.921-2.153-20.996 13.328-38.384 24.525-38.182 24.93 33.074 34.411 59.648 73.395 59.648 121.326 40.383-21.626 79.48-45.143 114.981-74.877-.297-61.089-18.516-75.459-64.787-116.504m57.363-47.996c35.492 28.449 69.19 55.814 76.548 104.276 34.7-30.355 65.975-65.587 92.52-103.558-12.778-53.465-54.255-82.539-95.122-103.38zm123.993-193.521 46.957-106.858c62.206 1.522 96.967 40.16 121.072 80.715-12.292 56.394-37.907 94.399-68.532 138.84-19.292-52.077-50.335-84.69-99.497-112.697m111.738-474.203c-1.754 38.861-4.187 75.684-6.6 112.57 55.631-14.915 115.57-4.302 132.077 17.747 2.782-40.172-.122-83.407-1.613-124.479-45.969-25.22-83.574-25.886-123.864-5.838m-15.051 184.298-25.128 115.868c53.827 1.517 92.518 24.11 125.197 63.265l28.723-138.404c-35.475-36.95-83.023-46.543-128.792-40.73m-1.761-344.836c10.008 39.859 10.692 75.479 15.909 113.16 27.3-37.677 72.519-49.96 117.199-54.65-5.07-35.846-6.017-71.316-20.82-108.046-49.396-8.483-81.602 16.888-112.288 49.536m-51.696-131.593 32.562 80.406c24.31-39.355 59.14-59.69 96.442-86.18-8.796-31.647-28.72-59.449-48.226-87.695-40.826 19.915-67.375 53.666-80.778 93.469m-67.948-126.342c8.02 19.85 21.633 37.124 33.758 55.079 16.053-37.129 38.31-61.214 68.413-86.091-13.294-12.846-25.545-25.611-46.077-35.743-37.7 2.702-43.155 35.113-56.094 66.755"/><path fill="#682e2e" d="m568.488 1458.082 5.693-64.249c3.469 12.004 82.593 45.18 101.28 40.135-2.05 6.707-.89 13.77-.559 20.748 5.167 109.079-50.172 153.037-79.022 158.074-69.286 12.096-29.878-148.064-27.392-154.708m44.398-105.266 70.054-51.018c43.296 24.579 82.011 50.144 121.326 76.907-30.325 15.074-55.411 25.396-87.822 32.235-36.094-16.01-70.276-32.71-103.558-58.124"/><path fill="#692e2e" d="m720.627 1162.18 7.107 37.312c96.16-33.45 130.79-32.835 184.811-19.173l1.003-113.067c-64.436-9.954-156.586 27.873-192.921 94.928m161.629-333.168c16.44 13.418 23.86 83.52 23.753 130.605-53.56 19.03-145.472 83.306-188.76 154.492-1.565 2.575-2.958 2.26-3.095-.75-5.287-116.253 84.806-227.157 168.102-284.347m239.988-774.937c66.684 27.988 125.498 93.946 164.207 186.96 1.026 2.466 2.418 2.387 3.027-.214 15.414-65.782-14.007-161.627-21.944-169.583-6.449-6.046-99.503-27.404-145.29-17.163M915.555 95.529c34.513-14.76 96.114-23.277 145.645-33.831 57.312 39.15 77.04 122.142 59.669 200.474-3.398 15.323-7.894 14.34-13.015-.429-25.413-73.286-135.114-178.406-192.3-166.214M693.988 204.432c42.201-26.297 71.374-56.832 139.837-81.878 106.706 13.061 152.13 131.552 151.032 212.734-.076 5.592-2.95 6.376-6.166 1.8-93.988-133.695-162.96-149.018-284.702-132.656"/><path fill="#692e2e" d="M538.498 346.223c28.044-34.977 53.086-77.027 95.436-101.274 140.467-20.648 234.855 53.317 273.283 170.466 2.44 7.437-.436 9.153-6.365 4.044-102.24-88.104-238.01-80.387-362.354-73.236m285.04 117.759 4.302 42.44c33.547 23.589 36.21 26.006 49.808 37.465.64.54 1.222.3 1.23-.536.094-12.447-11.083-37.48-55.34-79.37m-385.125 63.6c12.65-47.356 31.22-93.723 66.342-139.532 101.539-9.982 199.952 10.798 247.174 45.439l-35.767 53.881c-96.402-12.682-184.694 18.803-277.749 40.212M49.867 1816.601c7.92-19.896 26.46-51.264 67.648-54.05 34.753-2.35 35.948-41.677 46.053-38.905 1.147.314 61.106 21.185 65.645 41.366-3.49.066-28.761 75.34-116.562 89.453-41.66 6.696-74.952-7.292-62.784-37.864m163.129-222.029q-7.981 40.818-23.857 75.893c31.266 6.67 51.09 23.54 79.34 39.299l25.232-67.98c-22.727-22.534-43.522-34.605-80.715-47.212m35.424-150.806c-7.217 27.06-16.944 53.835-20.383 80.896 37.31 7.62 62.39 32.35 90.881 56.482l30.268-66.818c-30.7-32.345-53.888-54.532-100.766-70.56"/><path fill="#fff" d="M223.107 1567.336q-7.98 40.818-23.859 75.89c31.266 6.67 51.092 23.541 79.342 39.3l25.232-67.981c-22.728-22.533-43.523-34.602-80.715-47.21m37.057-149.499c-7.218 27.062-16.942 53.836-20.38 80.898 37.308 7.618 62.386 32.348 90.878 56.48l30.27-66.817c-30.7-32.345-53.89-54.532-100.768-70.561M63.831 1790.65c7.92-19.895 26.46-51.264 67.647-54.049 34.753-2.35 35.95-41.678 46.054-38.906 1.147.315 61.106 21.186 65.645 41.366-3.49.066-28.761 75.34-116.562 89.453-41.66 6.696-74.952-7.292-62.784-37.863M456.297 500.64c12.65-47.356 31.22-93.722 66.341-139.531 101.54-9.982 199.953 10.797 247.175 45.438l-35.767 53.881c-96.402-12.681-184.695 18.803-277.75 40.213m380.898-62.483 4.303 42.441c33.547 23.588 36.21 26.005 49.808 37.465.64.539 1.222.3 1.229-.536.094-12.448-11.082-37.48-55.34-79.37M551.296 321.59c28.043-34.978 53.086-77.028 95.436-101.275 140.466-20.648 234.854 53.317 273.283 170.466 2.44 7.437-.437 9.153-6.366 4.044-102.24-88.104-238.009-80.387-362.353-73.236"/><path fill="#fff" d="M709.95 177.822c42.201-26.297 71.374-56.832 139.837-81.878 106.706 13.061 152.13 131.552 151.032 212.734-.076 5.592-2.95 6.376-6.166 1.8-93.988-133.695-162.96-149.018-284.702-132.656M934.45 69.368c34.513-14.76 96.114-23.277 145.645-33.831 57.312 39.15 77.04 122.142 59.669 200.474-3.398 15.323-7.894 14.34-13.015-.429-25.413-73.286-135.114-178.406-192.3-166.214m201.859-40.59c66.684 27.988 125.498 93.946 164.207 186.96 1.026 2.466 2.418 2.387 3.027-.214 15.414-65.782-14.007-161.627-21.944-169.583-6.449-6.046-99.503-27.404-145.29-17.163M895.962 799.875c16.44 13.418 23.86 83.52 23.753 130.605-53.56 19.03-145.472 83.306-188.76 154.492-1.565 2.575-2.958 2.26-3.095-.75-5.287-116.253 84.806-227.157 168.102-284.347m-162.17 336.475 7.107 37.311c96.16-33.449 130.791-32.834 184.811-19.172l1.003-113.068c-64.436-9.953-156.586 27.874-192.921 94.928M715.01 1257.93c10.03-16.433 28.212-27.472 30.532-46.614 65.72-21.575 126.82-14.558 167.836 41.475-3.436 39.99-29.91 58.145-59.276 80.395-39.231-67.22-106.644-74.311-139.093-75.257m-89.598 69.293 70.054-51.018c43.296 24.579 82.011 50.144 121.326 76.907-30.325 15.074-55.41 25.396-87.822 32.235-36.094-16.01-70.275-32.71-103.558-58.124m-41.873 107.45 5.693-64.249c3.469 12.004 82.593 45.18 101.28 40.135-2.05 6.707-.89 13.77-.559 20.748 5.167 109.079-50.172 153.037-79.022 158.074-69.286 12.096-29.878-148.064-27.392-154.708M1681.046 306.868c8.021 19.85 21.634 37.123 33.758 55.078 16.053-37.128 38.31-61.213 68.413-86.09-13.294-12.846-25.544-25.612-46.077-35.743-37.699 2.702-43.155 35.112-56.094 66.755m68.722 125.323 32.561 80.406c24.31-39.355 59.14-59.69 96.442-86.18-8.795-31.647-28.72-59.449-48.225-87.695-40.827 19.915-67.376 53.666-80.778 93.469m49.737 133.881c10.009 39.859 10.692 75.48 15.91 113.16 27.3-37.677 72.518-49.96 117.198-54.65-5.07-35.846-6.016-71.316-20.82-108.046-49.396-8.483-81.601 16.889-112.288 49.536m1.851 345.394-25.128 115.868c53.827 1.517 92.518 24.11 125.197 63.265l28.723-138.404c-35.475-36.95-83.023-46.543-128.792-40.73m16.499-184.526c-1.754 38.86-4.187 75.684-6.6 112.569 55.63-14.914 115.57-4.301 132.076 17.748 2.782-40.172-.121-83.407-1.612-124.48-45.97-25.219-83.575-25.885-123.864-5.837m-112.188 475.911 46.956-106.858c62.206 1.522 96.967 40.16 121.072 80.715-12.291 56.394-37.906 94.399-68.531 138.84-19.293-52.077-50.336-84.69-99.498-112.697m-122.675 191.33c35.49 28.45 69.189 55.815 76.547 104.277 34.7-30.356 65.975-65.587 92.52-103.558-12.778-53.465-54.255-82.539-95.122-103.38zm-58.614 49.799s-36.573 22.88-67.512 42.492c.04 1.595.429 3.19.773 4.785-1.665-.489-3.273-1.411-4.921-2.153-20.996 13.329-38.384 24.526-38.182 24.93 33.074 34.412 59.649 73.395 59.649 121.326 40.382-21.626 79.48-45.142 114.98-74.877-.297-61.088-18.516-75.458-64.787-116.504m-164.321 95.691c7.243-.256 44.271 78.59 31.747 125.368-.53 1.982-63.95 28.89-95.775 29.956-24.422.818-58.372-2.135-66.239-25.967-18.854-57.111 80.949-105.64 130.267-129.357"/><path fill="#692e2e" d="M623.793 814.06c-4.663-12.194-8.908-59.922-5.76-64.792.71-1.1 1.3-1.514 1.312-.92 2.348 9.372 5.153 46.927 14.197 48.395 2.211.359 4.723-1.992 4.723-1.992s.1 1.682-.31 3.553c-1.043 4.75-7.193 14.994-10.545 17.776-1.881 1.561-2.347 1.301-3.617-2.02m-103.201 8.685c2.415-12.83-1.916-60.55-5.88-64.781-.896-.956-1.552-1.258-1.457-.672-.64 9.64 3.295 47.094-5.342 50.15-2.112.748-5.003-1.117-5.003-1.117s.2 1.672.939 3.44c1.873 4.488 9.75 13.472 13.545 15.612 2.129 1.201 2.54.862 3.198-2.632"/><path fill="#fff" d="M335.076 915.082v.002c-1.098.058-2.107.952-2.406 2.139-1.746 6.906-6.352 25.026-10.441 40.226-.52 1.932-1.375 5.063-1.784 7.02-3.546 16.995-5.88 47.74-5.88 66.107l2.18 2.239-2.182.554c.005 5.042.065 8.706.128 10.213.02.42.358.934.721 1.15 64.765 38.505 115.171 81.143 166.71 148.922 1.124 1.48 2.276 1.197 2.567-.64 7.292-46.908 6.098-123.379-27.564-170.008s-78.62-85.945-120.943-107.684a2.15 2.15 0 0 0-1.106-.24"/><path fill="#692e2e" d="M288.928 1225.793c37.962 15.795 31.731 14.075 51.903 27.627 30.462 20.465 83.785 65.064 89.232 70.531.275.277.568.251.72-.118l23.613-57.316c.152-.369.067-.916-.19-1.221-10.193-12.12-35.087-40.01-48.614-48.917-14.061-9.258-10.824-10.987-23.906-21.54s-12.08-5.542-24.555-16.69c-12.03-10.753-42.62-30.622-61.437-33.462l-7.367 80.11c-.037.397.232.843.6.996"/><path fill="#fff" d="M302.608 1200.638c37.962 15.795 31.731 14.075 51.903 27.627 30.462 20.465 83.785 65.064 89.232 70.531.275.277.568.251.72-.118l23.613-57.316c.152-.369.067-.916-.19-1.221-10.193-12.12-35.087-40.01-48.614-48.917-14.061-9.258-10.824-10.987-23.906-21.54s-12.08-5.542-24.555-16.69c-12.03-10.753-42.62-30.622-61.437-33.462l-7.367 80.11c-.037.397.232.843.6.996"/><path fill="#692e2e" d="M1038.126 1177.627s-24.526-7.075-37.953-9.193c-13.426-2.117-16.034-.29-16.034-.29-1.68.343 5.915-55.154 1.599-100.053-3.955-41.147-1.12-77.513-4.115-111.622-7.913-90.1-9.859-101.972-9.859-101.972s-3.3.083-5.06-.154c-11.544-1.556-43.6-20.163-43.6-20.163.736-12.64-1.988-48.417-2.303-52.48-.017-.208.122-.3.309-.208 3.84 1.911 39.305 19.403 52.71 20.373 9.622.696 18.174 4.578 28.898 9.553 6.16 2.859 10.517 4.53 16.483 4.78 29.062 1.216 40.898 7.338 40.898 7.345-2.912 28.215 2.382 54.21.718 63.253l-42.375-16.498s4.178 57.62 4.19 72.066c0 5.068.846 12.884 1.174 18.72 4.796 85.47 15.522 211.577 14.32 216.543m287.156 70.523c-21.893-2.827-34.822-12.645-75.726-21.127-8.34-1.73-15.742-3.195-18.18-3.744-.47-.106-.929-.602-.997-1.079-.376-2.647-1.344-11.067-2.653-20.49-11.115-80-16.463-117.214-21.068-146.598a29676 29676 0 0 1-7.024-45.208c-7.658-49.528-10.964-70.213-13.54-84.721-6.444-36.312-7.524-42.295-9.249-51.26a2614 2614 0 0 1-3.986-21.359 1639 1639 0 0 0-4.194-22.07c-4.093-20.546-6.732-32.17-6.459-32.443.66-.66 49.007 3.24 58.536 4.722 26.127 4.063 43.358 5.168 48.4 3.638 5.314-1.612 8.732-1.348 12.361.955 6.751 4.284 16.558 15.852 29.76 36.73 17.85 28.228 27.02 43.024 30.164 52.358 2.099 6.23 4.465 33.348 6.133 70.29.511 11.33-.352 16.733-4.152 25.986-4.896 11.92-9.155 17.855-17.235 22.122-9.27 4.896-35.998 21.334-35.998 21.334s1.154 1.335 15.772 11.379c20.967 14.406 31.932 23.416 37.063 32.06 2.967 4.998 8.04 17.19 10.04 24.12 2.545 8.83 12.558 55.714 15.253 71.37.889 5.16.962 7.625.368 12.357-1.41 11.244-5.872 31.639-10.01 44.29-.86 2.628-4.745 12.838-13.992 15.575-4.838 1.431-13.378 1.589-19.387.813m-19.828-72.105c2.46-2.727 2.939-12.139 1.336-23.19-2.227-15.364-1.143-31.306-5.49-46.277-3.656-12.591-12.76-26.096-18.955-30.763-4.052-3.053-29.589-15.023-29.589-15.023s.263 1.676.736 3.936c7.145 34.202 9.197 48.254 14.41 83.56 1.617 10.965 3.317 22.018 3.776 24.563l1.454 3.744 3.554.422c1.955.232 9.064.386 15.796.534 11.906.262 11.655 0 12.972-1.506m-52.457-189.354c15.05-7.563 28.298-17.716 31.682-24.28 3.008-5.833 1.585-11.987-2.43-30.31-.953-4.358-2.253-10.633-2.885-13.944-1.321-6.922-4.439-14.401-8.975-23.209-2.131-4.137-4.832-7.285-5.521-8.058a.65.65 0 0 0-.414-.189c-1.238-.027-7.076-.182-16.93-.9-9.607-.7-17.751-1.167-19.294-1.115-.144 0-.396.057-.475.177-.259.39-.147 2.564 3.3 18.694 3.77 17.642 6.36 33.608 11.117 70.482 1.833 14.21 1.76 16.272 2.553 16.527.138.044.378.015.514-.035.942-.346 4.034-1.968 7.758-3.84m88.178 495.13s1.69-5.222 3.037-9.106 3.193-10.522 4.47-14.886c1.238-4.229 2.77-7.554 2.828-11.492.2-13.712.267-19.778-.647-41.046-.504-11.735.322-30.642.69-42.036.63-19.521.237-21.348-1.431-28.058-2.684-10.796-2.938-17.942-3.526-27.983l-.55-9.4 4.037.271c2.098.14 6.682 1.404 10.029 2.33 10.617 2.937 25.55 2.592 48.68-1.839a863 863 0 0 0 12.895-2.58s.1 5.359.51 11.412c.409 6.053.905 12.796 1.127 14.982l.515 5.082-10.514-.395c-5.584-.21-18.785.973-24.654 1.04-5.676-.2-7.708-1.047-10.736-.817-2.18.395-4.382.175-4.382.175s.773 6.198 1.094 9.833c.346 3.906.67 7.726.916 13.841l.489 12.156 1.98-.616c3.306-1.03 16.108-2.77 23.427-3.03 3.738-.134 8.66-1.53 11.058-2.272l4.269-1.433.244 3.62c.12 1.779.792 9.745.69 17.768l-.01 15.436-11.23-.037c-10.669-.035-17.222-2.7-22.493-4.788-2.41-.955-3.852-1.642-6.018-2.229-2.273-.615-6.636.027-6.636.027s.197 3.12.572 6.946c.377 3.85.884 14.956 1.117 24.352.283 11.443.759 16.58.758 16.58 0 0 4.55-1.2 8.81-2.164 4.262-.962 10.038-1.906 13.4-2.155 10.192-.395 19.172-3.252 28.128-8.186l.622 10.656c.308 5.274.572 13.424.74 18.206l.216 8.68-19.42 3.743c-15.928 3.07-19.698 4.171-32.1 8.827-7.661 2.877-12.42 4.903-14.33 5.232-1.88.323-8.948 1.726-12.082 3.01-5.239 2.145-6.589 2.343-6.589 2.343m-38.323-31.714c.947-24.258 1.026-55.976.086-67.24-.46-5.512-.746-13.18-.278-20.386.859-13.233-.454-27.29-.454-27.29-1.123 8.332-1.322 13.987-2.083 21.292-.935 8.975-1.541 14.976-2.307 19.076-.386 2.07-1.362 7.348-2.206 11.766-.844 4.417-1.745 9.613-2.002 11.546-.258 1.933-.846 5.454-1.274 7.663-1.405 7.245-2.79 19.78-2.79 19.78l-4.81 50.462-7.322-.345c-3.662-.173-9.648-.464-11.967-.843l-4.494-.732s.044-7.166-.459-16.246c-.68-12.276-1.272-20.121-2.196-26.073-1.396-8.99-2.196-14.648-2.73-19.328a884 884 0 0 0-1.02-8.534c-.261-2.07-.827-6.702-1.256-10.29-2.08-17.381-3.57-27.378-4.895-34.538-.562-3.037-1.238-7.442-1.654-9.79-1.265-7.118-1.676-8.438-1.676-8.438s-.127-.185-.683 8.77c-.842 13.572-.835 48.962-.203 63.291.76 17.27 1.54 25.026 4.354 45.055 1.676 11.93 2.271 18.006 2.271 18.006s-2.066-.184-7.25-.182c-7.027 0-16.392-.666-23.038-2.12l-3.692-.809.283-1.811c.156-.996.432-4.311.738-6.934s.881-7.254 1.278-10.291c.964-10.313 2.46-20.533 3.247-30.874.232-3.175.66-9.62 1.167-14.307 1.343-12.408 2.323-41.33 1.204-63.68-1.244-24.844-1.78-42.091-3.776-53.63-.43-2.485-.976-5.873-1.214-7.53-.239-1.657-.717-4.76-1.063-6.897-.347-2.137-.287-4.228-.287-4.228s9.037.67 12.58 1.593c1.422.37 4.886 1.803 6.968 2.765s4.732 2.003 5.889 2.315 2.523.73 2.523.73 3.745 19.352 4.865 23.163c.406 1.38 1.199 4.067 1.762 5.97.885 2.986 2.631 12.61 4.565 25.154.56 3.638 1.092 6.306 3.165 14.861 1.716 7.08 2.88 12.539 5.196 24.348 1.11 5.66 2.304 11.63 2.734 13.562.43 1.933 1.314 5.886 1.962 8.785a648 648 0 0 1 2.075 9.664c.62 3.04.897 3.899.897 3.899s.318-1.206.847-4.508c.331-2.071.898-4.996 1.259-7.067s.925-5.459 1.255-7.53c.33-2.07.774-5.553 1.141-7.623.62-3.495.868-5.21 2.201-13.636.273-1.726.845-5.848 1.27-9.162.427-3.313 1.177-7.762 1.562-9.833.383-2.07.96-5.572 1.282-7.781.32-2.209 1.011-5.754 1.375-7.825 1.683-9.568.286-2.195 2.5-15.562.98-5.928 2.519-18.841 3.19-26.82l.338-4.01 8.226-.059c5.305-.072 8.306.105 9.789.577a228 228 0 0 0 5.335 1.59l3.197.91-.142 3.615c-.56 14.283-.324 30.202 1.588 61.922.842 13.958 2.03 19.564 2.515 34.701-.102 7.834.761 15.576 1.512 23.343 1.253 13.298 2.096 25.956 3.177 33.572 1.407 9.908 2.854 18.77 2.87 24.25l.015 5.378-2.636.81c-5.387 1.659-10.419 3.192-13.837 3.78-1.933.332-5.067.922-6.964 1.311s-4.202.723-4.949.723h-1.357c2.021-13.418 1.983-16.575 2.711-35.216m-123.889 24.114-.916-18.098-.864-23.34c-6.962-.78-12.52-2.184-18.468-7.159l-1.224 9.237-1.46 7.262-5.24 21.158-5.094-3.264c-6.57-4.028-14.422-7.219-21.678-10.447l-2.306-.793 4.375-17.217 4.974-20.231 2.524-10.25 2.497-9.5 1.678-6.25 1.11-4 2.3-7.934 6.924-24.316 1.24-4.25 10.247-38.75 6.42-23.25 8.165-31.687 1.089 3.714 10.314 50.21 3.008 27.013 1.701 9.044 1.252 8 1.258 11.5.912 9.25 1.065 7.25 1.262 9.25 1.238 9.25 6.27 45.312 1.555 13.57.92 9.744.978 7.22c-7.624 2.68-14.955 4.312-24.175 4.426l-3.761.31zm-3.529-91.817c-.753-7.546-1.773-15.092-1.408-22.638l-2.653-24.66-2.1 13.098-2.284 10.75-1.214 5.75-2.485 12.2-2.048 11.521 15.509 3.332zm-98.398 58.624c-16.673-4.087-27.047-10.011-38.103-21.69-7.25-7.66-11.426-14.024-15.31-24.396-5.956-15.909-9.915-31.83-10.53-43.773-.427-8.302 1.892-48.976 2.976-53.953 1.064-4.889 4.403-10.847 11.42-21.874 13.18-20.712 18.684-26.544 31.219-33.073 7.836-4.083 10.96-3.734 17.613-.499 9.815 4.773 21.844 14.432 26.092 21.17 3.87 6.138 9.433 43.556 9.433 43.556-7.752 2.19-15.175 4.082-23.654 6.635 0 0-2.89-6.178-5.888-20.077-1.83-8.484-10.112-15.701-12.535-16.04-1.06-.147-5.318 3.035-9.86 7.51-4.565 4.497-9.03 9.944-10.636 11.836-.66.777-6.233 20.494-7.485 40.964-.558 9.119 1.606 33.93 4.619 40.64 2.083 4.64 19.25 27.017 22.055 28.786 1.496.943 2.293.66 6.851-1.537 2.805-1.352 5.935-3.357 6.956-4.456 1.81-1.95 1.513-1.673 1.895-13.18.286-8.627-.021-11.85-.021-11.85s-6.454-3.321-15.637-2.09c-4.812.646-11.565-.767-11.565-.767s.767-7.571 1.5-15.345c.734-7.772 1.867-17.197 1.52-20.258-.34-2.995.058-5.712.058-5.712s3.977 1.506 8.336 3.28c11.419 4.648 24.866 7.275 39.857 7.883l3.889.158-.055 4.242c-.157 12.106-1.877 49.642-2.5 54.557-.802 6.31-3.85 22.538-4.978 25.992-.823 2.518-7.12 7.38-12.682 10.142-4.702 2.39-9.54 4.192-14.85 3.22z"/><g fill="url(#b)"><g fill="url(#c)"><path fill="url(#d)" d="m957.829 721.039-17.81-.168c2.88-103.765 4.7-86.361 5.078-244.19l.05-74.95 7.751-3.82c3.569-1.76 10.625-7.066 16.153-10.955s17.804-12.124 27.28-18.3c9.477-6.175 19.653-13.679 22.613-16.674 5.676-5.742 10.189-6.813 15.89-3.774 5.786 3.085 22.959 16.876 27.634 22.693 7.385 9.19 7.854 11.623 6.815 35.346-1.52 34.661-1.893 45.037-7.938 59.28-5.527 13.023-7.966 16.166-32.113 41.379-11.236 11.732-16.89 17.919-16.89 19.83 0 .778 5.847 2.247 13.105 3.575 15.944 2.917 26.163 7.09 29.774 12.162 5.854 8.222 9.637 31.625 15.447 81.717 1.324 11.419 1.197 14.955-.84 23.335-3.52 14.48-14.439 50.403-16.48 54.217-2.889 5.398-10.32 15.525-15.046 17.977-34.985 11.071-50.26 1.605-80.473 1.32m33.367-59.631c21.3-5.903 20.133-6.876 21.107-34.89.366-10.542.962-22.397 1.324-26.345.84-9.163-2.972-24.845-8.42-31.371-4.307-5.159-8.39-4.944-20.895-5.09l-5.326-.063.372 46.933c.364 45.892.761 53.588 2.418 53.588.39 0 9.42-2.762 9.42-2.762m-1.844-162.145c9.176-9.63 22.827-29.744 25.39-34.557 2.005-3.763 1.202-25.4-.575-34.109-1.477-7.237-5.179-16.75-7.689-15.157a1361 1361 0 0 0-27.589 17.947l.632 37.837c.353 21.124-.275 37.774.321 37.774s4.807-4.8 9.51-9.735m105.518 236.156c.542-3.447 6.315-79.547 6.334-83.172.01-1.185.592-8.938 1.301-17.23 2.557-29.903 1.511-48.705-.448-81.165-1.097-18.163-2.103-40.454-2.237-49.536-.313-21.32-.385-50.77-3.6-62.934-5.665-21.432-10.52-121.758-9.108-123.63 0 0 7.929 1.073 13.144 1.967 8.687 1.488 10.19 1.348 17.903-1.668 10.522-4.343 21.609-6.677 32.799-8.75-2.17 80.64-3.71 161.406-1.893 242.054.864 36.326 3.513 75.598 3.56 87.27.075 18.132.683 21.122 2.78 20.842 22.517-3.004 51.635-17.09 70.415-30.162l-.426 38.352c-.336 30.23-4.697 53.742-6.74 60.877-.943 3.293-26.103 4.442-70.13 5.849-8.198-1.202-49.592 5.959-53.654 1.036m310.372-444.374c-11.004 2.417-15.2 13.307-18.777 24.803-11.046 28.934-34.242 51.537-36.545 81.947-1.767 21.83.92 44.45 3.962 65.983 3.041 21.533 6.436 41.98 9.584 59.968 7.28 41.594 18.312 77.645 30.241 104.429 12.032 27.015 29.755 49.167 51.078 63.71 20.816 14.196 37.818 27.696 60.904 38.588 2.154 1.016 5.853 1.334 7.82.017 7.328-4.909 17.079-18.575 22.359-29.98.345-.748.88-1.97 1.208-2.725 6.88-15.855 12.801-32.111 12.801-32.111s-6.462-12.047-15.483-27.106c-9.02-15.06-20.6-33.13-28.36-45.177-2.625 17.453-3.034 34.456-7.286 50.95-.942 1.393-10.763 1.715-25.493-8.075-24.012-12.838-40.066-39.566-49.533-60.123-10.08-21.884-9.957-48.227-14.7-77.133-2.868-17.471-5.308-42.044-5.088-54.615.038-16.287 5.943-28.368 9.48-43.808 3.418-14.92 8.674-32.822 13.87-33.46 15.221-1.009 49.703 63.575 66.076 89.926-2.194-25.1-2.674-20.173-5.782-65.916-1.43-21.062-3.25-39.608-3.25-39.608-.162.023-5.34-6.43-10.758-13.249-5.692-7.163-10.802-15.716-14.78-20.12-4.522-5.008-15.434-13.786-24.806-18.888-9.373-5.1-18.179-10.547-28.742-8.227"/><path fill="url(#e)" d="M1500.59 305.852c4.306 18.783 8.868 62.15 26.521 125.177 13.81 49.3 19.203 45.17 25.953 80.617 8.574 45.03 21.595 149.361 23.873 217.301 51.808 0 51.323-1.033 51.323-1.033-.965-3.53-15.476-109.695-19.86-143.52 13.93 1.555 26.306 4.374 38.909 9.391.013.01 21.05 14.988 21.38 137.498 6.7.132 11.372-2.253 57.579-1.941 0 0-15.335-102.531-33.948-142.541-6.446-13.856-51.974-32.576-51.974-32.576.174.104 71.475-64.007 80.916-100.137-12.21-12.273-26.122-26.974-40.217-37.133-6.818-4.926-25.462-24.174-28.342-26.44-8.997 46.268-20.368 90.105-47.578 136.9-3.859-26.596-.04-56.265-3.85-84.382-2.656-19.59-2.841-43.878-1.935-59.33 1.298-22.126.734-28.53.734-28.53-36.512-7.653-67.353-31.686-99.486-49.321z"/><path fill="url(#f)" d="m1256.076 282.646-.022.002h-.01c-.125.018-.21.196-.25.553-.048.426-3.158 17.826-5.334 28.801-.98 4.935-2.42 8.35-2.717 8.74-9.308 12.32-62.683 263.498-63.693 269.865 21.626 3.375 38.533 19.79 57.072 30.33 2.542-6.122 4.583-24.63 7.145-42.277 2.21-15.215 4.603-28.433 3.912-29.681 2.636 1.256 37.37 14.593 39.592 14.128-.603 2.444 3.466 37.555 13.422 93.938.174-.345 22.823-.571 35.523 2.125 12.55 2.663 27.953-3.556 28.006-3.803v-.006s-60.087-219.153-60.393-229.693c-.37-12.771-28.163-83.34-32.57-92.656-6.847-14.479-17.748-50.339-19.687-50.366zm6.764 113.35c2.332 6.535 7.359 18.357 7.422 29.016.122 20.96 9.461 54.473 11.316 59.638.28.78-32.054-2.617-31.264-7.205 1.964-11.4 11.625-64.727 12.526-81.449"/></g><g fill="url(#g)"><path fill="url(#h)" d="M1052.388 1152.675s-24.526-7.075-37.953-9.193c-13.426-2.117-16.034-.29-16.034-.29-1.68.343 5.915-55.154 1.599-100.053-3.955-41.147-1.12-77.513-4.115-111.622-7.913-90.1-9.859-101.972-9.859-101.972s-3.3.083-5.06-.154c-11.544-1.556-43.6-20.163-43.6-20.163.736-12.64-1.988-48.417-2.303-52.48-.017-.208.122-.3.309-.208 3.84 1.911 39.305 19.403 52.71 20.373 9.622.696 18.174 4.578 28.898 9.553 6.16 2.859 10.517 4.53 16.483 4.78 29.062 1.216 40.898 7.338 40.898 7.345-2.912 28.215 2.382 54.21.718 63.253l-42.375-16.498s4.178 57.62 4.19 72.066c0 5.068.846 12.884 1.174 18.72 4.796 85.47 15.522 211.577 14.32 216.543"/><path fill="url(#i)" d="M1173.782 1167.085c-1.277-10.508-3.553-31.303-5.279-45.107l-3.27-26.158-6.094-1.708c-9.462-2.652-13.386-5.519-18.51-9.706-2.055-1.678-4.281-3.817-4.733-4.255-.046-.044-.082-.028-.081.037a395 395 0 0 1-.245 17.913c-.61 16.308-4.226 57.972-4.742 63.872-.034.386-.308.503-.615.262-1.198-.94-4.16-3.244-7.096-5.35-13.405-9.62-20.317-13.259-34.699-18.275-3.078-1.074-5.03-1.636-5.978-1.888a.84.84 0 0 1-.608-.874c.565-5.383 4.238-40.297 6.07-54.742.818-6.445 2.411-20.2 3.54-30.568 3.366-30.891 9.106-72.955 14.718-107.05 4.006-24.335 8.497-55.48 10.17-70.117 2.323-20.31 5.93-41.752 7.51-47.225.765-2.646 2.118-10.9 3.008-18.34 1.568-13.109 2.177-19.842 2.316-21.466a.437.437 0 0 1 .428-.392h1.722c.218 0 .44.17.495.382 1.56 5.927 20.785 79.028 22.354 89.25 1.068 6.953 2.9 15.52 12.83 60.03 1.937 8.686 4.188 19.92 5 24.964s2.867 15.819 4.563 23.945c23.934 112.098 31.307 149.531 34.744 173.914 1.769 12.552 2.838 15.115 3.19 15.637.057.085.06.18-.028.238-1.381.914-11.522 7.522-17.248 8.422-5.748.904-18.8 3.792-20.495 4.169a.174.174 0 0 1-.211-.146 632 632 0 0 1-2.726-19.668M1147.27 958.5c-1.288-13.332-7.711-46.994-8.167-49.37-.014-.074-.032-.073-.038.002-.04.467-.164 2.238-.168 6.666 0 4.455-.758 20.133-1.868 34.839s-2.371 33.524-2.894 42.067l-.89 14.572a.18.18 57.018 0 0 .118.183l11.501 4.308a189 189 0 0 1 11.798 4.882c.067.031.121 0 .114-.079-.212-2.246-5.322-14.764-9.506-58.07m192.405 264.05c-21.893-2.827-34.822-12.645-75.726-21.127-8.34-1.73-15.742-3.196-18.18-3.745-.47-.106-.929-.602-.997-1.078-.376-2.647-1.344-11.068-2.653-20.49-11.115-80.001-16.462-117.214-21.068-146.598a29676 29676 0 0 1-7.024-45.208c-7.658-49.528-10.964-70.213-13.54-84.722-6.444-36.311-7.524-42.294-9.249-51.26a2614 2614 0 0 1-3.986-21.358 1639 1639 0 0 0-4.194-22.07c-4.093-20.546-6.732-32.17-6.459-32.443.66-.66 49.007 3.24 58.536 4.721 26.127 4.064 43.358 5.168 48.4 3.638 5.314-1.612 8.732-1.348 12.361.955 6.751 4.284 16.558 15.853 29.76 36.73 17.85 28.228 27.02 43.024 30.164 52.359 2.099 6.23 4.465 33.348 6.133 70.29.511 11.329-.352 16.732-4.152 25.986-4.896 11.919-9.155 17.855-17.235 22.122-9.27 4.896-35.998 21.334-35.998 21.334s1.154 1.334 15.772 11.378c20.967 14.406 31.932 23.417 37.063 32.06 2.967 4.998 8.04 17.19 10.04 24.12 2.545 8.831 12.558 55.715 15.253 71.371.889 5.16.962 7.625.368 12.357-1.41 11.243-5.872 31.639-10.01 44.289-.86 2.629-4.745 12.838-13.992 15.575-4.838 1.432-13.378 1.59-19.387.814m-19.828-72.105c2.46-2.727 2.939-12.14 1.336-23.191-2.227-15.363-1.143-31.305-5.49-46.277-3.656-12.59-12.76-26.095-18.955-30.763-4.052-3.053-29.589-15.022-29.589-15.022s.264 1.675.736 3.936c7.145 34.201 9.197 48.254 14.41 83.56 1.617 10.964 3.317 22.018 3.776 24.563l1.454 3.744 3.554.422c1.955.232 9.064.385 15.796.534 11.906.262 11.655 0 12.972-1.506M1267.39 961.09c15.05-7.564 28.298-17.717 31.682-24.281 3.008-5.832 1.585-11.987-2.43-30.31-.953-4.358-2.253-10.633-2.885-13.944-1.321-6.921-4.439-14.4-8.975-23.208-2.131-4.138-4.832-7.285-5.521-8.059a.65.65 0 0 0-.414-.188c-1.238-.027-7.076-.182-16.93-.9-9.607-.7-17.751-1.167-19.294-1.115-.144.005-.396.057-.475.177-.259.389-.147 2.564 3.3 18.693 3.77 17.643 6.36 33.608 11.117 70.483 1.833 14.21 1.76 16.272 2.553 16.526.138.045.378.015.514-.035.942-.346 4.034-1.968 7.758-3.839m153.085 256.507c-.208-2.296-1.663-17.361-3.068-33.036-3.762-41.98-11.978-123.912-15.39-152.561a51365 51365 0 0 0-4.62-38.719c-5.978-49.725-8.018-70.55-12.942-106.031-8.77-63.197-16.501-105.831-16.15-107.647.61-.136 20.949 3.007 23.257 3.324 22.845 3.137 32.076 4.097 53.5 8.566 13.09 2.731 18.607 5.08 27.857 5.252 6.828.127 10.952-1.495 12.303-1.079 7.85 2.423 21.427 20.209 34.715 46.804 12.846 25.709 15.29 29.576 16.28 44.908.465 7.2.864 22.856.888 34.79.041 20.382-.107 22.172-2.43 29.5-3.082 9.714-8.39 19.542-13.042 23.052-3.437 2.594-15.189 13.349-26.5 23.156-2.94 2.549-5.603 4.918-5.603 5.512s6.507 3.658 14.345 7.444c22.546 10.892 27.569 15.116 32.66 30.086 4.034 11.858 12.777 61.143 12.777 72.593 0 11.3-8.583 52.203-12.46 59.873-7.162 14.167-24.514 24.207-49.15 28.44-11.872 2.038-26.629 5.903-36.819 9.641-4.675 1.715-12.823 4.662-18.151 6.42l-11.868 3.995zm61.69-75.163c8.127-3.661 13.347-6.78 14.896-8.621 3.12-3.707 3.014-9.185 2.75-21.222-.058-2.643-.895-6.892-1.18-11.62-.284-4.73-.143-9.934-.39-14.471-.95-17.373-.852-18.309-4.85-27.116-3.56-7.845-7.693-13.704-11.917-15.709-3.893-1.847-26.386-5.85-28.589-6.239-.096-.017-.161.048-.145.144.215 1.331 1.644 10.132 3.463 20.993 1.976 11.8 5.181 36.017 7.123 53.816 3.98 36.49 3.159 36.912 4.869 36.256.68-.26 6.967-3.056 13.97-6.211m4.294-206.478c2.703-5.297 2.498-10.316-.968-28.706-1.47-7.796-.94-8.244-2.202-13.625-1.209-5.158-4.833-14.613-7.255-19.078-1.434-2.643-2.163-6.29-5.378-6.426-2.519.004-12.942-.618-21.337-.84l-14.17-.375.503 2.25c1.95 8.736 5.12 30.983 6.388 41.407 1.204 9.898 5.48 54.354 5.524 57.657.01.697.263 1.257.263 1.257 20.519-12.487 36.368-29.085 38.632-33.52m99.157 194.975c6.314-57.444 7.747-83.74 8.556-100.256.598-12.2-8.204-49.492-16.358-84.189-2.555-10.874-6.538-29.204-7.23-36.832-.811-8.946-3.163-24.925-6.798-34.912-2.943-8.085-4.54-16.143-6.12-24.513-3.35-17.73-9.133-54.033-9.227-54.064 7.005-3.6 14.81-2.219 22.366-2.296 10.801-.111 13.994-.632 21.846-5.6l9.428-6.206a.208.208 0 0 1 .32.149l2.377 19.62c3.637 30.021 7.074 71.688 12.677 95.423 3.093 13.104 4.84 29.845 6.141 37.082.532 4.65.781 12.038 1.916 14.552 0 0 .216-1.236.722-3.61 13.322-62.465 19.81-94.367 27.048-172.023l.94-10.085 8.685-.437c22.825-1.149 35.525-17.06 42.7-19.68.127-.046.21.028.186.16-.21 1.11-1.134 5.916-2.448 11.362-7.039 29.2-19.403 82.143-23.465 100.648-2.473 11.267-6.11 25.904-8.082 32.527-7.765 26.076-8.953 30.408-13.218 55.324-2.428 14.182-7.8 40.104-11.937 57.605-7.389 31.255-7.55 32.41-9.12 65.054-.878 18.279-2.781 41.064-3.618 50.787s-1.306 29.576-1.044 44.12l.663 27.692-6.364-.986c-8.18-1.268-16.238-1.839-33.17.491-6.467.534-14.79-.06-14.79-.06 2.554-18.811 6.418-56.847 6.418-56.847"/></g><path fill="url(#j)" d="M1091.003 1415.56c-16.673-4.088-27.047-10.012-38.102-21.691-7.25-7.66-11.426-14.023-15.31-24.395-5.957-15.91-9.916-31.831-10.53-43.774-.428-8.3 1.892-48.975 2.975-53.952 1.064-4.89 4.403-10.847 11.42-21.874 13.18-20.712 18.685-26.544 31.219-33.074 7.837-4.082 10.961-3.733 17.613-.498 9.815 4.773 21.844 14.432 26.092 21.17 3.87 6.137 9.433 43.555 9.433 43.555-7.752 2.19-15.175 4.083-23.654 6.636 0 0-2.89-6.178-5.888-20.077-1.83-8.484-10.112-15.701-12.535-16.04-1.06-.147-5.318 3.035-9.86 7.51-4.565 4.497-9.03 9.944-10.636 11.836-.659.777-6.233 20.493-7.485 40.964-.558 9.118 1.606 33.93 4.62 40.64 2.082 4.639 19.25 27.016 22.055 28.785 1.495.944 2.292.66 6.85-1.537 2.805-1.351 5.936-3.356 6.957-4.456 1.81-1.949 1.512-1.672 1.894-13.178.287-8.629-.02-11.851-.02-11.851s-6.455-3.322-15.638-2.09c-4.812.645-11.564-.767-11.564-.767s.766-7.572 1.5-15.345c.733-7.772 1.867-17.198 1.519-20.258-.34-2.995.058-5.712.058-5.712s3.978 1.506 8.336 3.28c11.42 4.647 24.866 7.275 39.857 7.883l3.89.157-.056 4.243c-.157 12.106-1.877 49.641-2.5 54.557-.801 6.31-3.849 22.537-4.978 25.991-.822 2.518-7.12 7.38-12.681 10.143-4.703 2.39-9.541 4.192-14.85 3.219zm102.463 33.038-.916-18.098-.863-23.34c-6.963-.78-12.52-2.184-18.469-7.159l-1.223 9.238-1.461 7.261-5.24 21.159-5.093-3.265c-6.57-4.028-14.423-7.219-21.68-10.447l-2.305-.793 4.376-17.216 4.974-20.232 2.524-10.25 2.496-9.5 1.679-6.25 1.11-4 2.3-7.933 6.923-24.317 1.24-4.25 10.247-38.75 6.42-23.25 8.165-31.687 1.09 3.714 10.314 50.21 3.008 27.013 1.7 9.044 1.252 8 1.258 11.5.912 9.25 1.066 7.25 1.261 9.25 1.238 9.25 6.27 45.313 1.555 13.57.92 9.743.978 7.22c-7.624 2.681-14.955 4.312-24.175 4.426l-3.761.31zm-3.528-91.817c-.754-7.546-1.774-15.092-1.409-22.638l-2.653-24.66-2.099 13.099-2.285 10.75-1.214 5.75-2.485 12.2-2.047 11.52 15.508 3.332zm127.114 67.533c.948-24.258 1.026-55.976.086-67.24-.46-5.512-.746-13.18-.278-20.386.859-13.233-.454-27.29-.454-27.29-1.123 8.332-1.322 13.987-2.083 21.292-.935 8.975-1.541 14.976-2.307 19.076-.386 2.07-1.362 7.348-2.206 11.766s-1.745 9.613-2.002 11.546c-.258 1.933-.846 5.454-1.274 7.663-1.405 7.246-2.79 19.78-2.79 19.78l-4.81 50.462-7.322-.345c-3.662-.172-9.648-.464-11.967-.842l-4.494-.733s.044-7.166-.459-16.246c-.68-12.276-1.272-20.121-2.196-26.073-1.396-8.989-2.196-14.648-2.73-19.327-.3-2.623-.758-6.464-1.02-8.535-.261-2.07-.827-6.701-1.256-10.29-2.08-17.381-3.57-27.378-4.895-34.538-.562-3.037-1.238-7.442-1.654-9.789-1.265-7.119-1.676-8.44-1.676-8.44s-.127-.183-.683 8.77c-.842 13.573-.835 48.963-.203 63.292.76 17.27 1.54 25.027 4.354 45.055 1.676 11.93 2.271 18.006 2.271 18.006s-2.066-.184-7.25-.181c-7.027 0-16.392-.667-23.038-2.121l-3.692-.808.283-1.812c.156-.996.432-4.311.738-6.934s.881-7.254 1.278-10.291c.964-10.313 2.46-20.532 3.247-30.874.232-3.175.66-9.62 1.167-14.307 1.343-12.408 2.323-41.33 1.204-63.68-1.244-24.844-1.78-42.091-3.776-53.63-.43-2.485-.976-5.873-1.214-7.53-.239-1.656-.717-4.76-1.063-6.897-.347-2.137-.287-4.228-.287-4.228s9.037.67 12.58 1.594c1.422.37 4.886 1.802 6.968 2.764s4.732 2.003 5.889 2.315 2.523.731 2.523.731 3.745 19.351 4.865 23.162c.406 1.38 1.199 4.067 1.762 5.97.885 2.986 2.631 12.61 4.565 25.154.56 3.638 1.092 6.306 3.165 14.862 1.716 7.079 2.88 12.538 5.196 24.347 1.11 5.66 2.304 11.63 2.734 13.562.43 1.933 1.314 5.886 1.962 8.785a648 648 0 0 1 2.075 9.664c.62 3.04.897 3.9.897 3.9s.318-1.207.847-4.51c.331-2.07.898-4.995 1.259-7.065s.925-5.46 1.255-7.53.774-5.553 1.141-7.624c.62-3.495.868-5.21 2.201-13.636.273-1.725.845-5.848 1.27-9.161.427-3.314 1.177-7.763 1.562-9.834.383-2.07.96-5.572 1.282-7.78.32-2.21 1.011-5.755 1.375-7.826 1.683-9.568.286-2.195 2.5-15.562.98-5.928 2.519-18.841 3.19-26.82l.338-4.01 8.226-.059c5.305-.072 8.306.106 9.789.577a228 228 0 0 0 5.335 1.59l3.197.91-.142 3.615c-.56 14.284-.324 30.202 1.588 61.922.842 13.958 2.03 19.564 2.515 34.701-.102 7.834.761 15.576 1.512 23.344 1.253 13.298 2.096 25.955 3.177 33.572 1.407 9.907 2.854 18.769 2.87 24.25l.015 5.377-2.636.811c-5.387 1.658-10.419 3.19-13.837 3.779-1.933.332-5.067.922-6.964 1.311-1.898.39-4.202.723-4.949.723h-1.357c2.021-13.418 1.983-16.575 2.711-35.216m38.738 31.945s1.69-5.222 3.037-9.106 3.192-10.522 4.47-14.886c1.238-4.23 2.77-7.554 2.828-11.493.2-13.712.267-19.777-.647-41.046-.504-11.734.321-30.641.69-42.036.63-19.52.237-21.348-1.431-28.057-2.685-10.796-2.939-17.942-3.526-27.983l-.55-9.4 4.037.27c2.097.141 6.681 1.404 10.028 2.33 10.617 2.938 25.551 2.592 48.68-1.838a863 863 0 0 0 12.895-2.58s.1 5.358.51 11.411c.41 6.054.905 12.797 1.127 14.983l.515 5.082-10.514-.395c-5.584-.21-18.785.972-24.654 1.04-5.676-.2-7.707-1.048-10.736-.817-2.179.395-4.381.175-4.381.175s.772 6.198 1.094 9.833c.346 3.906.67 7.726.916 13.84l.488 12.157 1.98-.616c3.307-1.03 16.109-2.77 23.428-3.031 3.737-.133 8.66-1.529 11.058-2.271l4.268-1.433.245 3.62c.12 1.778.792 9.744.69 17.767l-.01 15.436-11.23-.037c-10.67-.035-17.223-2.7-22.493-4.787-2.41-.955-3.852-1.642-6.019-2.23-2.272-.614-6.636.028-6.636.028s.198 3.12.572 6.945c.377 3.85.885 14.957 1.117 24.353.284 11.442.76 16.58.758 16.58 0 0 4.55-1.201 8.811-2.164s10.038-1.907 13.4-2.155c10.191-.396 19.171-3.252 28.128-8.186l.622 10.656c.308 5.274.571 13.424.74 18.205l.216 8.68-19.42 3.744c-15.928 3.07-19.699 4.17-32.1 8.827-7.661 2.876-12.421 4.903-14.33 5.231-1.88.324-8.949 1.727-12.082 3.01-5.24 2.145-6.59 2.344-6.59 2.344m127.891-27.44c-.461-.014-3.692-1.027-5.246-1.756s-5.234-2.505-8.107-3.348c-3.81-1.118-8.449-2.588-12.755-4.618-4.305-2.03-8.277-4.622-8.277-4.622s.29-1.27 1.378-6.402c.728-3.432 1.528-7.598 1.78-9.258.69-4.56 2.335-13.737 2.335-13.737s7.919 3.09 11.65 6.62c3.833 3.625 6.725 6.089 8.578 6.079 1.736-.01 11.116-2.33 15.163-3.767 2.254-.8 2.523-.967 3.438-2.938 4.75-10.227 5.175-11.862 6.341-21.166 0 0 .767-6.728.624-8.581-.118-1.521-2.576-1.766-6.215-1.476-4.73.377-6.37 1.057-9.637 2.056-4.57 1.398-11.428 2.654-14.59 3.128-.891.134-29.797 2.294-20.471-37.378 1.862-7.92 4.83-17.573 6.869-22.672l2.812-7.043c2.749-6.887 2.326-4.726 3.702-8.608 1.49-4.199 7.707-19.082 9.05-21.691 1.705-3.311 2.947-3.142 17.402-6.638a655 655 0 0 0 5.872-1.457c3.11-.79 10.558-1.866 12.447-1.647 5.72.661 12.483.69 16.52-.028 2.49-.443 5.648-.603 5.648-.603s-.577 1.873-1.301 4.73c-1.126 4.434-1.565 7.106-2.665 16.225-.77 6.376-3.693 22.718-3.693 22.718s-3.002-1.668-6.786-4.909c-4.953-4.242-8.116-6.327-16.566-10.715-3.417-1.774-3.312-1.553-3.692-1.48-3.123.61-8.917 3.36-10.063 5.294-1.068 1.8-1.762 4.079-3.144 7.097-.588 1.284-1.063 1.902-1.67 3.251-2.408 5.35-2.895 6.547-4.302 9.937-1.625 3.916-2.134 6.98-2.558 9.485-.452 2.674 1.121 4.303 2.105 7.208 1.292 3.813 1.917 5.81 4.1 6.086 1.77.224 4.591-1.17 9.654-3.729 4.807-2.43 6.223-2.464 10.815-2.962 1.385-.15 4.326-.457 6.53-.742 7.12-.92 8.776-1.213 12.454 1.417 1.754 1.255 6.757 3.773 7.958 5.8.219.37.279 1.087.264 1.521-.096 2.867-1.204 9.78-1.985 14.28a6272 6272 0 0 0-2.493 14.087c-3.66 24.138-4.98 27.06-8.466 31.697-8.988 11.953-17.698 29.627-21.667 33.595-2.386 2.387-8.677 1.673-9.14 1.66"/></g><path fill="#692e2e" d="M277.384 1290.367c-4.91 30.209-12.166 60.224-14.73 90.626 23.322 9.551 27.73 10.006 46.418 24.704 8.763 6.892 10.358 5.258 21.282 16.308s32.059 31.296 38.897 41.553l28.806-68.561c-14.252-23.523-18.915-37.226-42.518-57.712-19.564-16.981-48.645-35.257-78.156-46.918"/><path fill="#fff" d="M291.751 1263.852c-4.91 30.209-12.166 60.225-14.73 90.626 23.322 9.552 27.73 10.006 46.418 24.704 8.763 6.892 10.358 5.258 21.282 16.309 10.925 11.05 32.06 31.295 38.897 41.552l28.807-68.561c-14.252-23.522-18.915-37.225-42.518-57.712-19.565-16.98-48.645-35.257-78.156-46.918"/></svg>