<svg xmlns="http://www.w3.org/2000/svg" width="1000" height="500"><path d="M338.233 32.229c-28.793-1.89-65.518 13.533-67.517 28.443-.73 5.443-1.92 7.173-6.26 9.094-52.955 34.05-57.495 119.544-64.242 175.866-14.642 124.467-18.375 193.474 53.183 219.234 12.805 4.61 15.801 4.24 21.477-2.646 24.718-29.987 54.672-109.734 89.106-121.598 24.24-8.351 247.8-8.351 272.042 0 34.433 11.864 64.387 91.611 89.105 121.598 5.676 6.885 8.672 7.256 21.476 2.646 71.56-25.76 67.826-94.767 53.183-219.234-6.746-56.322-11.287-141.816-64.24-175.866-4.34-1.921-5.53-3.65-6.26-9.094-2.001-14.91-38.725-30.333-67.517-28.443-14.781.97-18.556 2.883-18.556 9.397 0 3.004-.745 4.02-2.46 3.362-11.878-4.559-269.633-4.556-281.506 0-1.715.657-2.458-.358-2.458-3.362 0-6.514-3.776-8.427-18.556-9.397" style="fill:#dfdfe7;fill-rule:evenodd;stroke:none;stroke-width:3.76817;stroke-miterlimit:7;paint-order:stroke markers fill;fill-opacity:1"/><path d="M404.544 202.4a8.016 8.016 0 0 0-8.037 8.037v21.564a2.83 2.83 0 0 1-2.832 2.832h-21.562a8.016 8.016 0 0 0-8.037 8.036v20.978a8.016 8.016 0 0 0 8.037 8.035h21.562a2.83 2.83 0 0 1 2.832 2.832v21.563a8.016 8.016 0 0 0 8.037 8.037h20.98a8.016 8.016 0 0 0 8.033-8.037v-21.563a2.83 2.83 0 0 1 2.833-2.832h21.566a8.016 8.016 0 0 0 8.033-8.035v-20.978a8.016 8.016 0 0 0-8.034-8.036h-21.567a2.83 2.83 0 0 1-2.832-2.832v-21.564a8.016 8.016 0 0 0-8.033-8.035z" style="fill:#000;fill-rule:evenodd;stroke:none;stroke-width:3.40796;stroke-miterlimit:7;paint-order:stroke markers fill"/><circle cx="500.524" cy="242.253" r="3.925" style="font-variation-settings:normal;vector-effect:none;fill:#000;fill-opacity:1;fill-rule:evenodd;stroke-width:47.7389;stroke-linecap:butt;stroke-linejoin:miter;stroke-miterlimit:4;stroke-dasharray:none;stroke-dashoffset:0;stroke-opacity:1;-inkscape-stroke:none;stop-color:#000"/><circle cx="500.524" cy="254.687" r="3.925" style="font-variation-settings:normal;vector-effect:none;fill:#000;fill-opacity:1;fill-rule:evenodd;stroke-width:47.7389;stroke-linecap:butt;stroke-linejoin:miter;stroke-miterlimit:4;stroke-dasharray:none;stroke-dashoffset:0;stroke-opacity:1;-inkscape-stroke:none;stop-color:#000"/><circle cx="500.524" cy="266.345" r="3.925" style="font-variation-settings:normal;vector-effect:none;fill:#000;fill-opacity:1;fill-rule:evenodd;stroke-width:47.7389;stroke-linecap:butt;stroke-linejoin:miter;stroke-miterlimit:4;stroke-dasharray:none;stroke-dashoffset:0;stroke-opacity:1;-inkscape-stroke:none;stop-color:#000"/><rect width="35.083" height="21.76" x="482.857" y="191.012" ry="10.881" style="fill:#000;fill-opacity:1;fill-rule:evenodd;stroke:none;stroke-width:3.92243;stroke-miterlimit:7;paint-order:stroke markers fill"/><circle cx="634.791" cy="154.829" r="22.338" style="font-variation-settings:normal;vector-effect:none;fill:#000;fill-opacity:1;fill-rule:evenodd;stroke-width:44.661;stroke-linecap:butt;stroke-linejoin:miter;stroke-miterlimit:4;stroke-dasharray:none;stroke-dashoffset:0;stroke-opacity:1;-inkscape-stroke:none;stop-color:#000"/><circle cx="-721.673" cy="154.829" r="22.338" style="font-variation-settings:normal;vector-effect:none;fill:#000;fill-opacity:1;fill-rule:evenodd;stroke-width:44.661;stroke-linecap:butt;stroke-linejoin:miter;stroke-miterlimit:4;stroke-dasharray:none;stroke-dashoffset:0;stroke-opacity:1;-inkscape-stroke:none;stop-color:#000" transform="scale(-1 1)"/><circle cx="111.388" cy="-678.232" r="22.338" style="font-variation-settings:normal;vector-effect:none;fill:#000;fill-opacity:1;fill-rule:evenodd;stroke-width:44.661;stroke-linecap:butt;stroke-linejoin:miter;stroke-miterlimit:4;stroke-dasharray:none;stroke-dashoffset:0;stroke-opacity:1;-inkscape-stroke:none;stop-color:#000" transform="rotate(90)"/><circle cx="-198.269" cy="-678.232" r="22.338" style="font-variation-settings:normal;vector-effect:none;fill:#000;fill-opacity:1;fill-rule:evenodd;stroke-width:44.661;stroke-linecap:butt;stroke-linejoin:miter;stroke-miterlimit:4;stroke-dasharray:none;stroke-dashoffset:0;stroke-opacity:1;-inkscape-stroke:none;stop-color:#000" transform="scale(1 -1)rotate(90)"/><circle cx="500" cy="101.953" r="20.784" style="font-variation-settings:normal;vector-effect:none;fill:#000;fill-opacity:1;fill-rule:evenodd;stroke-width:41.5536;stroke-linecap:butt;stroke-linejoin:miter;stroke-miterlimit:4;stroke-dasharray:none;stroke-dashoffset:0;stroke-opacity:1;-inkscape-stroke:none;stop-color:#000"/><circle cx="500" cy="155.765" r="16.869" style="font-variation-settings:normal;vector-effect:none;fill:#000;fill-opacity:1;fill-rule:evenodd;stroke-width:44.2586;stroke-linecap:butt;stroke-linejoin:miter;stroke-miterlimit:4;stroke-dasharray:none;stroke-dashoffset:0;stroke-opacity:1;-inkscape-stroke:none;stop-color:#000"/><circle cx="548.848" cy="155.765" r="16.869" style="font-variation-settings:normal;vector-effect:none;fill:#000;fill-opacity:1;fill-rule:evenodd;stroke-width:44.2586;stroke-linecap:butt;stroke-linejoin:miter;stroke-miterlimit:4;stroke-dasharray:none;stroke-dashoffset:0;stroke-opacity:1;-inkscape-stroke:none;stop-color:#000"/><circle cx="-451.153" cy="155.765" r="16.869" style="font-variation-settings:normal;vector-effect:none;fill:#000;fill-opacity:1;fill-rule:evenodd;stroke-width:44.2586;stroke-linecap:butt;stroke-linejoin:miter;stroke-miterlimit:4;stroke-dasharray:none;stroke-dashoffset:0;stroke-opacity:1;-inkscape-stroke:none;stop-color:#000" transform="scale(-1 1)"/><g style="fill:#000;fill-opacity:1"><path d="M609.717 521.088c-12.986 0-23.533 10.547-23.533 23.533s10.547 23.533 23.533 23.533 23.533-10.547 23.533-23.533-10.547-23.533-23.533-23.533m.393 3.142c11.45 0 20.712 9.26 20.712 20.71s-9.262 20.714-20.712 20.714-20.713-9.262-20.713-20.713c0-11.45 9.262-20.71 20.713-20.71" style="baseline-shift:baseline;display:inline;overflow:visible;vector-effect:none;fill:#000;fill-opacity:1;stop-color:#000" transform="translate(-25.116 -289.832)"/><path d="M609.717 500c-24.621 0-44.621 20-44.621 44.621s20 44.621 44.62 44.621c24.622 0 44.622-20 44.622-44.62 0-24.622-20-44.622-44.621-44.622m0 3.762c22.588 0 40.86 18.27 40.86 40.86 0 22.587-18.272 40.858-40.86 40.858s-40.86-18.27-40.86-40.859c0-22.588 18.272-40.86 40.86-40.86" style="baseline-shift:baseline;display:inline;overflow:visible;opacity:1;vector-effect:none;fill:#000;fill-opacity:1;stop-color:#000;stop-opacity:1" transform="translate(-25.116 -289.832)"/></g><g style="fill:#000;fill-opacity:1"><path d="M609.717 521.088c-12.986 0-23.533 10.547-23.533 23.533s10.547 23.533 23.533 23.533 23.533-10.547 23.533-23.533-10.547-23.533-23.533-23.533m.393 3.142c11.45 0 20.712 9.26 20.712 20.71s-9.262 20.714-20.712 20.714-20.713-9.262-20.713-20.713c0-11.45 9.262-20.71 20.713-20.71" style="baseline-shift:baseline;display:inline;overflow:visible;vector-effect:none;fill:#000;fill-opacity:1;stop-color:#000" transform="translate(-287.762 -388.748)"/><path d="M609.717 500c-24.621 0-44.621 20-44.621 44.621s20 44.621 44.62 44.621c24.622 0 44.622-20 44.622-44.62 0-24.622-20-44.622-44.621-44.622m0 3.762c22.588 0 40.86 18.27 40.86 40.86 0 22.587-18.272 40.858-40.86 40.858s-40.86-18.27-40.86-40.859c0-22.588 18.272-40.86 40.86-40.86" style="baseline-shift:baseline;display:inline;overflow:visible;opacity:1;vector-effect:none;fill:#000;fill-opacity:1;stop-color:#000;stop-opacity:1" transform="translate(-287.762 -388.748)"/></g></svg>