<svg xmlns="http://www.w3.org/2000/svg" xmlns:xlink="http://www.w3.org/1999/xlink" xml:space="preserve" width="3000" height="3600"><defs><linearGradient id="q"><stop offset="0" style="stop-color:#dbefd9;stop-opacity:.67000002"/><stop offset="1" style="stop-color:#dbefd9;stop-opacity:0"/></linearGradient><linearGradient id="p"><stop offset="0" style="stop-color:#fdfdae;stop-opacity:1"/><stop offset=".5" style="stop-color:#fbfb74;stop-opacity:1"/><stop offset="1" style="stop-color:#fbfb74;stop-opacity:1"/></linearGradient><linearGradient id="r"><stop offset="0" style="stop-color:#87d0ff;stop-opacity:.68558592"/><stop offset="1" style="stop-color:#87d0ff;stop-opacity:0"/></linearGradient><linearGradient id="o"><stop offset="0" style="stop-color:#fdd2e0;stop-opacity:1"/><stop offset="1" style="stop-color:#fedbe6;stop-opacity:1"/></linearGradient><linearGradient id="n"><stop offset="0" style="stop-color:#fdc4d7;stop-opacity:1"/><stop offset="1" style="stop-color:#fb96b8;stop-opacity:1"/></linearGradient><linearGradient id="m"><stop offset="0" style="stop-color:#86d0ff;stop-opacity:1"/><stop offset=".5" style="stop-color:#86d0ff;stop-opacity:1"/><stop offset="1" style="stop-color:#8cd2ff;stop-opacity:1"/></linearGradient><linearGradient id="l"><stop offset="0" style="stop-color:#9dd9ff;stop-opacity:1"/><stop offset="1" style="stop-color:#9dd9ff;stop-opacity:0"/></linearGradient><linearGradient id="k"><stop offset="0" style="stop-color:#86d0ff;stop-opacity:.35686275"/><stop offset="1" style="stop-color:#86d0ff;stop-opacity:0"/></linearGradient><linearGradient id="j"><stop offset="0" style="stop-color:#86d0ff;stop-opacity:.35838574"/><stop offset="1" style="stop-color:#86d0ff;stop-opacity:0"/></linearGradient><linearGradient id="i"><stop offset="0" style="stop-color:#9dd9ff;stop-opacity:1"/><stop offset="1" style="stop-color:#9dd9ff;stop-opacity:0"/></linearGradient><linearGradient id="h"><stop offset="0" style="stop-color:#70c7ff;stop-opacity:.62079781"/><stop offset="1" style="stop-color:#70c7ff;stop-opacity:0"/></linearGradient><linearGradient id="g"><stop offset="0" style="stop-color:#88ca82;stop-opacity:1"/><stop offset="1" style="stop-color:#88ca82;stop-opacity:0"/></linearGradient><linearGradient id="f"><stop offset="0" style="stop-color:#70c068;stop-opacity:1"/><stop offset="1" style="stop-color:#52b04a;stop-opacity:1"/></linearGradient><linearGradient id="e"><stop offset="0" style="stop-color:#8bcc84;stop-opacity:1"/><stop offset="1" style="stop-color:#8bcc84;stop-opacity:0"/></linearGradient><linearGradient id="d"><stop offset="0" style="stop-color:#8bcc84;stop-opacity:1"/><stop offset="1" style="stop-color:#8bcc84;stop-opacity:0"/></linearGradient><linearGradient id="c"><stop offset="0" style="stop-color:#8bcc84;stop-opacity:1"/><stop offset="1" style="stop-color:#8bcc84;stop-opacity:0"/></linearGradient><linearGradient id="b"><stop offset="0" style="stop-color:#8bcc84;stop-opacity:1"/><stop offset="1" style="stop-color:#8bcc84;stop-opacity:0"/></linearGradient><linearGradient id="a"><stop offset="0" style="stop-color:#dbefd9;stop-opacity:1"/><stop offset="1" style="stop-color:#dbefd9;stop-opacity:0"/></linearGradient><linearGradient xlink:href="#a" id="E" x1="269.169" x2="232.747" y1="91.842" y2="95.968" gradientTransform="translate(400.765 511.502)scale(9.11304)" gradientUnits="userSpaceOnUse"/><linearGradient xlink:href="#b" id="B" x1="138.371" x2="125.371" y1="5.753" y2="37.754" gradientTransform="translate(400.765 511.502)scale(9.11304)" gradientUnits="userSpaceOnUse"/><linearGradient xlink:href="#c" id="F" x1="43.928" x2="50.199" y1="0" y2="15.512" gradientTransform="translate(400.765 511.502)scale(9.11304)" gradientUnits="userSpaceOnUse"/><linearGradient xlink:href="#d" id="D" x1="224.054" x2="216.401" y1="33.502" y2="40.938" gradientTransform="translate(400.765 511.502)scale(9.11304)" gradientUnits="userSpaceOnUse"/><linearGradient xlink:href="#e" id="G" x1="269.016" x2="250.934" y1="123.784" y2="128.173" gradientTransform="translate(400.765 511.502)scale(9.11304)" gradientUnits="userSpaceOnUse"/><linearGradient xlink:href="#f" id="C" x1="95.047" x2="86.869" y1="346.923" y2="370.256" gradientTransform="translate(400.765 -1664.874)scale(9.11304)" gradientUnits="userSpaceOnUse"/><linearGradient xlink:href="#g" id="y" x1="127.625" x2="115.621" y1="27.763" y2="47.588" gradientTransform="translate(400.765 511.502)scale(9.11304)" gradientUnits="userSpaceOnUse"/><linearGradient xlink:href="#h" id="w" x1="96.241" x2="97.206" y1="229.109" y2="235.38" gradientTransform="translate(400.765 484.117)scale(9.11304)" gradientUnits="userSpaceOnUse"/><linearGradient xlink:href="#i" id="x" x1="92.395" x2="92" y1="280.401" y2="268.765" gradientTransform="translate(400.765 484.117)scale(9.11304)" gradientUnits="userSpaceOnUse"/><linearGradient xlink:href="#h" id="u" x1="98.389" x2="99.671" y1="228.178" y2="234.835" gradientTransform="scale(-9.11304 9.11304)rotate(-28.108 86.178 646.89)" gradientUnits="userSpaceOnUse"/><linearGradient xlink:href="#i" id="v" x1="92.395" x2="92" y1="280.401" y2="268.765" gradientTransform="scale(-9.11304 9.11304)rotate(-28.108 86.178 646.89)" gradientUnits="userSpaceOnUse"/><linearGradient xlink:href="#j" id="H" x1="0" x2="33.156" y1="177.016" y2="176.516" gradientTransform="translate(400.765 511.502)scale(9.11304)" gradientUnits="userSpaceOnUse"/><linearGradient xlink:href="#k" id="I" x1="248.581" x2="208.44" y1="104.091" y2="93.812" gradientTransform="rotate(34.988 -611.052 891.515)scale(9.11304)" gradientUnits="userSpaceOnUse"/><linearGradient xlink:href="#l" id="A" x1="97.25" x2="88.033" y1="113.697" y2="136.947" gradientTransform="translate(400.765 511.502)scale(9.11304)" gradientUnits="userSpaceOnUse"/><linearGradient xlink:href="#m" id="z" x1="76.271" x2="86.09" y1="118.502" y2="225.659" gradientTransform="translate(400.765 511.502)scale(9.11304)" gradientUnits="userSpaceOnUse"/><linearGradient xlink:href="#n" id="J" x1="66.409" x2="66.497" y1="429.994" y2="446.068" gradientTransform="translate(400.765 -1881.29)scale(9.11304)" gradientUnits="userSpaceOnUse"/><linearGradient xlink:href="#o" id="K" x1="64.205" x2="67.822" y1="186.389" y2="171.166" gradientTransform="translate(400.765 511.502)scale(9.11304)" gradientUnits="userSpaceOnUse"/><linearGradient xlink:href="#p" id="t" x1="-1701.188" x2="-107.716" y1="-64.177" y2="1430.085" gradientUnits="userSpaceOnUse"/><linearGradient xlink:href="#q" id="M" x1="2507.088" x2="2466.445" y1="1243.277" y2="1154.435" gradientUnits="userSpaceOnUse"/><radialGradient xlink:href="#r" id="L" cx="73.869" cy="139.768" r="53.202" fx="73.869" fy="139.768" gradientTransform="matrix(9.11304 0 0 5.63213 405.595 1144.612)" gradientUnits="userSpaceOnUse"/></defs><path d="m43.855 1439.973-821.336-53.578-509.764 646.222-202.85-797.693-772.12-285.122 695.966-439.423 32.569-822.436 632.98 526.114L-108.45-9.115l-304.762 764.58Z" style="opacity:1;fill:url(#t);fill-opacity:1;stroke:none;stroke-width:.3;stroke-linecap:round;stroke-linejoin:round;stroke-dasharray:none;stroke-opacity:1" transform="rotate(37.813 -1269.025 4924.79)scale(1.0913)"/><path d="m1660.037 766.736-3.236 2.307c-39.053 27.935-77.026 57.183-113.975 87.652-4.93 4.066-9.469 8.596-14.363 12.705-3.831 3.217-8.02 6.007-11.828 9.25l.617.67c-30.26 25.76-60.415 51.646-89.309 79.004v.004a2375 2375 0 0 0-48.675 47.438c-51.938 49.435-80.4 72.168-94.791 94.965a761 761 0 0 0-12.461-34.12l-170.143 202.186-208.314-20.227c17.252 116.46 65.709 193.445 132.576 255.727 5.218 4.864 10.103 9.995 15.547 14.688 12.515 10.788 25.602 21.145 39.193 31.232v.01c2.802 2.08 5.59 4.118 8.361 6.101 14.49 10.367 28.473 19.41 41 27.059 16.815 10.271 31.006 18.028 40.283 23.1 3.02 1.65 9.96 5.303 18.747 9.033a801 801 0 0 0-50.286 5.416c-30.597 4.24-56.652 9.816-75.773 15.416-.188.055-.565.095-.752.15-7.954 2.348-17.32 5.843-26.021 8.752-8.702 2.908-16.74 5.23-26.022 8.75a658 658 0 0 0-73.639 33.278c-4.421 2.336-8.776 4.972-13.203 7.459-7.737 4.345-15.435 8.694-23.127 13.517-5.116 3.208-10.102 6.758-15.17 10.186-7.234 4.892-14.408 9.824-21.486 15.18-1.861 1.408-3.812 2.558-5.66 4 .003.18.043.355.047.536-29.075 22.7-56.347 49.327-79.467 80.905a203.715 329.617 0 0 0-.367-.04c-.511.7-.893 1.539-1.4 2.243-9.673 13.427-18.715 27.561-26.702 42.748-20.143 38.305-31.7 80.241-38.304 120.197a351 351 0 0 0-4.612 49.569c-3.268 107.219 41.675 194.969 97.887 261.681 36.753 44.971 82.267 85.551 133.785 120.283-38.75 29.757-67.264 68.397-86.66 111.862l335.578-83.164 332.152 294.338c14.228-64.705 10.89-131.554-17.484-192.608l.09-.127a271 271 0 0 0-7.713-15.26c-.088-.16-.154-.327-.242-.488a793 793 0 0 0 14.186-3.388c28.563-7.1 53.657-15.355 76.607-28.233 5.97-3.35 11.477-7.023 17.121-10.601 3.47-2.2 7.178-4.235 10.527-6.518a359 359 0 0 0 25.16-18.803 351 351 0 0 0 22.766-20.34c21.596-21.054 39.73-44.183 54.797-68.709 10.044-16.35 18.726-33.322 26.162-50.714 29.748-69.57 39.573-145.866 36.998-216.04a203.715 329.617 34.988 0 0-.01 0c-2.735-74.516-19.447-142.132-41.129-187.466-6.944-14.52-15.563-29.23-26.539-45.258 8.269 3.872 16.73 7.796 25.389 11.758a1332 1332 0 0 0 6.885 3.127c42.134 19.118 89.134 38.9 145.578 56.166 59.357 18.156 165.77 45.004 277.06 45.445l405.776-238.569-762.711-309.412-85.838-388.654a1407 1407 0 0 0-22.709 10.896c2.992-26.27 5.386-52.71 7.63-79.172v-.002z" style="fill:#fafa47;fill-opacity:1;stroke-width:8.52154;stroke-linecap:round;stroke-linejoin:round" transform="translate(-141.404 -180.365)scale(1.0913)"/><path d="M836.532 2429.55c-124.885 66.882-175.08 205.135-170.641 341.703 1.85 38.13 9.632 70.29 21.543 96.435s27.94 46.285 50.778 54.824c22.828 8.539 52.464 5.495 81.653-3.564 111.79-34.711 204.241-193.196 191.155-385.235-2.069-30.328-5.359-68.621-31.668-90.584-26.31-21.962-75.657-27.621-103.296-27.166-27.64.456-33.582 7.017-39.524 13.588" style="fill:#70c7ff;fill-opacity:1;stroke-width:9.29958;stroke-linecap:round;stroke-linejoin:round"/><path d="M797.948 2454.165a181.71 181.71 0 0 0 95.778 149.263 181.7 181.7 0 0 0 116.1 18.864c2.278-23.266 2.78-45.137 2.296-64.767-56.264-20.468-115.972-48.326-167.023-75.383a620 620 0 0 1-47.151-27.977" style="display:inline;mix-blend-mode:multiply;fill:url(#u);fill-opacity:1;stroke-width:9.29958;stroke-linecap:round;stroke-linejoin:round"/><path d="M721.544 2786.381a148.087 115.052 28.108 0 0-53.812 7.318c2.496 21.352 6.99 40.553 13.077 57.63v.019q3.062 8.53 6.625 16.34v.017c8.93 19.62 20.204 35.86 34.921 46.35h.018a68.4 68.4 0 0 0 15.839 8.456c5.714 2.133 11.838 3.554 18.28 4.32q4.849.583 9.897.692c4.147.091 8.439-.182 12.75-.51 11.755-.911 24.012-3.38 36.288-6.926 1.485-.428 2.952-.683 4.428-1.139q.392-.127.766-.228c6.616-2.077 13.168-4.939 19.739-7.764a200.5 200.5 0 0 0 34.812-20.295 148.087 115.052 28.108 0 0-78.08-82.81 148.087 115.052 28.108 0 0-75.548-21.47" style="fill:url(#v);fill-opacity:1;stroke-width:10.5506;stroke-linecap:round;stroke-linejoin:round"/><path d="M1388.29 2558.273c78.646 117.831 57.786 263.421-10.47 381.809-19.593 32.752-41.62 57.457-64.439 74.909-22.819 17.451-46.449 27.649-70.617 24.423-24.167-3.226-48.864-19.867-70.343-41.61-21.48-21.753-39.733-48.6-50.477-89.946-37.382-143.904 19.866-270.311 63.363-339.917 16.112-25.771 37.053-57.995 70.617-64.976 33.563-6.98 79.739 11.282 103.906 24.697 24.168 13.432 26.31 22.026 28.46 30.62" style="fill:#70c7ff;fill-opacity:1;stroke-width:9.29958;stroke-linecap:round;stroke-linejoin:round"/><path d="M1269.028 2501.48a76.6 76.6 0 0 0-13.095 1.495c-33.564 6.98-54.514 39.186-70.626 64.976a537.7 537.7 0 0 0-40.672 78.7 181.7 181.7 0 0 0 111.298 38.056 181.71 181.71 0 0 0 154.794-86.547 301 301 0 0 0-22.446-39.878c-2.141-8.594-4.292-17.197-28.46-30.62-21.142-11.747-59.143-27.175-90.793-26.182" style="display:inline;mix-blend-mode:multiply;fill:url(#w);fill-opacity:1;stroke-width:9.29958;stroke-linecap:round;stroke-linejoin:round"/><path d="M1244.86 2910.537a148.087 115.052 0 0 0-108.572 36.817c9.978 20.55 22.39 36.543 36.133 50.45 21.48 21.743 46.176 38.393 70.343 41.61 24.159 3.226 47.798-6.963 70.626-24.423 18.2-13.907 35.878-32.443 52.236-55.99a148.087 115.052 0 0 0-120.766-48.464" style="fill:url(#x);fill-opacity:1;stroke-width:10.5506;stroke-linecap:round;stroke-linejoin:round"/><path d="M2247.678 1198.489c316.049 30.774 517.647 133.797 550.956 151.886 30.756 16.705 21.643 19.748-.383 27.722-243.027 87.987-267.969 99.04-335.66 130.572-88.853 41.382-189.096 96.47-306.044 81.862-116.957-14.608-250.609-98.903-253.27-178.642-2.651-79.74 125.687-154.922 201.244-189.852 75.565-34.94 98.348-29.618 143.156-23.549m-971.641-281.246c94.001-94.247 194.646-180.912 302.872-258.337 36.744-26.2 57.813-40.626 69.587-40.252s14.235 15.574 10.535 56.957c-35.195 205.007-12.257 430.655-122.79 614.027-68.475 105.53-196.814 226.34-269.308 207.012-72.494-19.338-89.144-178.816-97.327-280.982-17.652-208.598-31.796-166.86 106.44-298.425" style="fill:#5bb752;fill-opacity:1;stroke-width:9.29958;stroke-linecap:round;stroke-linejoin:round"/><path d="M1648.486 618.653c-11.774-.383-32.834 14.062-69.578 40.262-88.105 63.025-171.188 132.166-249.752 206.556a314.4 314.4 0 0 0 258.92 136.04 319 319 0 0 0 36.753-2.16c13.378-107.671 16.111-218.44 34.192-323.741 3.709-41.392 1.239-56.574-10.535-56.957" style="fill:url(#y);fill-opacity:1;stroke-width:9.29958;stroke-linecap:round;stroke-linejoin:round"/><path d="M1615.387 1833.513c23.776 30.638 40.162 56.017 52.054 80.878 68.22 142.655 91.377 487.475-166.313 632.08-25.043 14.052-52.427 23.056-83.603 30.802-414.461 103.023-932.173-214.52-869.73-592.256 7.2-43.597 19.82-89.363 41.801-131.164 78.646-149.545 240.165-218.622 340.719-248.294 68.402-20.185 221.866-40.07 351.836-9.204 129.98 30.857 236.465 112.455 333.236 237.158" style="fill:url(#z);stroke-width:17.3148;stroke-linecap:round;stroke-linejoin:round"/><path d="M1146.276 1580.024a4.2 4.2 0 0 0-1.96.547c-3.445 1.914-6.744 9.177-15.219 11.984-8.475 2.806-22.117 1.157-33.262-1.14-11.155-2.296-17.27-7.572-21.598-9.04-1.74-.592-3.664 1.176-5.523.292-56.446 4.283-107.133 13.67-138.4 22.901-62.323 18.39-148.068 51.908-222.977 110.359 1.996 132.85 176.83 239.9 391.806 239.9 174.496 0 322.364-70.489 373.088-167.916a1139 1139 0 0 1-24.36-11.045c-18.453-8.749-21.707-11.993-21.661-13.57s3.39-1.494 8.384-1.22c5.003.273 11.664.728 17.305.91 5.632.174 10.225.092 12.65-1.13 2.433-1.211 2.706-3.553-1.705-6.351s-13.505-6.033-24.523-9.842c-11.027-3.819-23.967-8.193-33.873-11.027a219 219 0 0 0-22.71-5.194c-5.923-1.076-10.899-1.969-8.475-3.755s12.23-4.465 22.673-7.901a328 328 0 0 0 30.21-11.519c8.657-3.882 14.9-7.445 16.941-9.678s-.127-3.126-6.816-4.146c-6.69-1.021-17.908-2.17-33.518-3.308-15.602-1.149-35.605-2.306-47.661-3.6s-16.167-2.734-14.709-5.623 8.503-7.2 7.82-9.34c-.684-2.151-9.096-2.115-18.838-.82-9.741 1.284-20.823 3.836-27.83 4.856-7.018 1.021-9.934.51-9.615-2.989.319-3.508 3.882-10.006 6.297-15.61 2.424-5.605 3.7-10.325 1.34-11.21-2.36-.892-8.348 2.024-18.472 7.31s-24.396 12.94-33.126 17.086c-8.73 4.147-11.911 4.766-10.571-2.688 1.33-7.455 7.199-22.983 12.867-35.915s11.145-23.256 11.337-26.7c.182-3.436-4.912 0-11.09 6.178-6.18 6.178-13.442 15.1-19.812 24.076-6.37 8.986-11.847 18.044-18.792 23.193-6.944 5.167-15.346 6.434-18.207 1.14-2.871-5.286-.192-17.124 1.977-27.887 2.16-10.771 3.81-20.45 3.436-26.5-.383-6.051-2.807-8.475-6.179-6.179s-7.71 9.295-11.337 15.465c-3.636 6.179-6.56 11.546-8.347 10.717-1.786-.83-2.433-7.847-2.944-14.344-.51-6.498-.884-12.485-3.435-16.43-2.552-3.947-7.263-5.87-11.41-8.54-3.362-2.178-6.333-4.857-9.177-4.757" style="fill:#9dd9ff;fill-opacity:1;stroke:none;stroke-width:9.29958;stroke-linecap:round;stroke-linejoin:round;stroke-dasharray:none"/><path d="M1083.14 1581.829c-63.162 3.627-118.624 13.642-152.825 23.739a793 793 0 0 0-56.793 19.092 350.76 350.76 0 0 0 343.48 279.788 350.76 350.76 0 0 0 303.829-175.499c-71.474-66.415-149.555-111.452-238.68-132.603-64.985-15.429-135.848-18.163-199.01-14.527" style="mix-blend-mode:overlay;fill:url(#A);fill-opacity:1;stroke-width:9.29958;stroke-linecap:round;stroke-linejoin:round"/><path d="M1648.486 618.653c-11.774-.383-32.834 14.062-69.578 40.262a2306 2306 0 0 0-152.962 119.6 214.16 214.16 0 0 0 166.349 79.283 214 214 0 0 0 46.522-5.104c4.985-59.727 10.27-119.235 20.204-177.084 3.709-41.392 1.239-56.574-10.535-56.957" style="mix-blend-mode:overlay;fill:url(#B);fill-opacity:1;stroke-width:9.29958;stroke-linecap:round;stroke-linejoin:round"/><path d="M1048.247 1572.807c-19.11-10.453-57.33-31.35-97.847-61.413-117.877-87.485-201.125-194.29-210.985-397.51-3.317-68.294 1.786-151.87 12.23-229.33 10.443-77.461 26.245-148.817 38.985-210.23 12.74-61.403 22.418-112.883 31.595-134.28 9.177-21.406 17.843-12.74 40.006 12.995 22.172 25.735 57.85 68.54 97.6 118.488 39.752 49.94 83.576 107.024 121.797 167.16 102.922 145.645 131.182 317.07 153.91 489.243 45.893-109.949 200.714-247.291 352.538-326.42 49.556-25.735 96.188-47.652 150.338-68.548 54.15-20.887 115.817-40.763 171.616-56.054s105.748-25.99 160.79-33.764c55.044-7.774 115.18-12.613 174.17-15.037 58.988-2.415 116.828-2.415 150.592 1.914s43.442 12.995 54.022 45.747c10.571 32.734 22.036 89.563 30.447 146s13.76 112.5 15.802 146.265.765 45.228-2.424 48.663c-3.19 3.445-8.284-1.139-22.418-15.41-51.89-48.19-89.855-108.08-134.673-162.321-2.032 4.675-4.073 9.34-14.262 27.43-111.598 198.081-202.382 268.115-310.754 343.707-26.118 18.226-43.952 30.711-61.787 43.196 7.71.164 15.42.328 33.327.41s46.02.082 84.842.984c31.978.739 231.654 7.245 409.631 51.188 79.63 19.657 142.847 45.456 198.154 66.507s102.704 37.364 128.95 50.36c26.245 12.994 31.33 22.681 27.257 28.796-4.074 6.115-17.324 8.658-45.356 22.673-28.032 14.016-70.836 39.496-119.508 72.631-48.664 33.126-103.196 73.889-152.644 108.036-49.429 34.146-93.764 61.667-132.75 83.074-180.757 99.241-438.865 38.23-548.878 4.584-64.976-19.876-118.478-42.813-166.386-64.72-47.907-21.909-90.2-42.814-128.193-60.384-37.983-17.579-71.647-31.823-90.11-40.571-18.463-8.749-21.689-11.993-21.652-13.579.046-1.567 3.372-1.476 8.384-1.212 4.994.274 11.665.73 17.296.912s10.225.09 12.658-1.13c2.434-1.222 2.698-3.554-1.713-6.352-4.42-2.798-13.514-6.042-24.532-9.842-11.018-3.828-23.958-8.202-33.864-11.027a219 219 0 0 0-22.71-5.185c-5.923-1.085-10.89-1.978-8.475-3.755 2.424-1.786 12.23-4.465 22.682-7.9a328 328 0 0 0 30.192-11.529c8.666-3.891 14.909-7.454 16.95-9.687 2.032-2.233-.127-3.117-6.816-4.137-6.69-1.021-17.908-2.17-33.509-3.318-15.61-1.148-35.614-2.287-47.661-3.59-12.066-1.294-16.167-2.734-14.709-5.614 1.458-2.889 8.485-7.208 7.801-9.359s-9.086-2.105-18.828-.82-20.823 3.846-27.83 4.857c-7.009 1.012-9.934.51-9.615-2.989.31-3.508 3.882-10.006 6.306-15.61 2.424-5.605 3.691-10.316 1.33-11.21-2.35-.893-8.338 2.042-18.471 7.327-10.125 5.286-24.396 12.932-33.126 17.07-8.73 4.146-11.911 4.783-10.571-2.671 3.353-18.718 23.94-57.822 24.204-62.625.191-3.435-4.903 0-11.082 6.179-18.836 18.836-27.485 39.004-38.602 47.27-6.945 5.157-15.356 6.433-18.227 1.147-4.875-8.994 6.425-38.493 5.423-54.404-.383-6.052-2.807-8.476-6.188-6.179-3.372 2.296-7.7 9.295-11.337 15.483-3.627 6.179-6.561 11.528-8.347 10.699-1.777-.82-2.415-7.838-2.926-14.335-.51-6.498-.893-12.485-3.444-16.43-1.504-2.334-17.962-15.293-22.546-12.74-3.445 1.913-6.753 9.167-15.219 11.974-26.427 8.739-71.355-14.563-80.85-19.748" style="fill:#79c472;fill-opacity:1;stroke:none;stroke-width:9.29958;stroke-linecap:round;stroke-linejoin:round;stroke-dasharray:none"/><path d="M1223.408 1242.094c-14.025 10.936-31.394 28.953-35.695 33.7-8.166 7.4-15.374 5.122-22.4 17.087-7.017 11.957-13.861 38.157-22.974 50.687s-20.505 11.391-28.479 13.87c-7.973 2.46-12.52 8.53-14.617 13.852-2.087 5.313-1.704 9.87-11.391 9.295s-29.426-6.26-39.87 4.375c-10.434 10.625-11.582 37.59-24.113 34.356-25.216-6.489-50.769-78.983-110.687-80.87 0 0-10.07 41.957-18.226 51.826-8.165 9.879-24.496-1.895-38.73-11.956-14.244-10.06-26.392-18.426-39.87-21.844a51 51 0 0 0-12.667-1.64c18.427 31.823 40.28 59.954 64.94 85.635a565 565 0 0 0 39.003 36.844 747 747 0 0 0 51.908 40.763c37.045 26.5 71.045 45.073 88.716 54.733a237 237 0 0 0 26.109 12.175c17.35 6.798 39.231 12.703 54.732 7.582a21 21 0 0 0 7.765-4.648 41 41 0 0 0 2.734-2.761c1.822-1.987 3.262-3.764 4.72-4.575 4.584-2.552 21.051 10.416 22.546 12.75q.957 1.485 1.549 3.307c1.212 3.645 1.504 8.238 1.886 13.123.383 4.866.848 10.024 1.805 12.649v.018l.246.583v.018q.264.547.565.838.155.146.328.237l.155.055h.018l.073.019h.292a2 2 0 0 0 .364-.128 3.7 3.7 0 0 0 1.094-.82c1.686-1.732 3.854-5.596 6.351-9.842 2.725-4.639 5.833-9.733 8.649-12.96q.71-.81 1.385-1.439a9 9 0 0 1 1.303-1.066 5.5 5.5 0 0 1 1.777-.802h.018a2.7 2.7 0 0 1 1.048 0q.137.018.255.055a2.7 2.7 0 0 1 .456.21 2.7 2.7 0 0 1 .638.482q.018 0 .027.018c1.066 1.076 1.768 3.2 1.96 6.215.82 12.923-6.49 34.812-6.644 47.388q-.01 1.458.109 2.734v.018q.119 1.267.392 2.324v.018a9 9 0 0 0 .729 1.914l.282.474q.155.228.32.428l.337.41a9 9 0 0 0 .783.693c2.078 1.549 5.122 1.74 8.42.875 1.769-.465 3.619-1.249 5.414-2.279a27 27 0 0 0 2.652-1.75q2.068-1.549 4.073-3.626a64 64 0 0 0 4.01-4.593c8.001-10.043 16.404-24.925 30.529-39.05 3.098-3.098 5.923-5.513 7.946-6.707 1.714-1.02 2.862-1.166 3.099-.128a1.8 1.8 0 0 1 .036.41v.247a6.4 6.4 0 0 1-.283 1.275q-.246.839-.692 2.014c-4.156 10.936-20.286 42.941-23.239 59.326q-.237 1.385-.273 2.424a9 9 0 0 0 .018.94v.017a4.6 4.6 0 0 0 .228 1.094q.064.145.146.273.437.82 1.403.948l.693.018q1.148-.064 2.852-.656 2.25-.802 5.513-2.37c8.73-4.137 22.993-11.801 33.126-17.087 6.908-3.608 11.893-6.115 15.11-7.062a9 9 0 0 1 2.369-.41 2.7 2.7 0 0 1 1.002.155l.137.055a1.8 1.8 0 0 1 .365.255h.027l.09.11c1.459 1.485.21 5.777-1.959 10.798-1.212 2.807-2.697 5.814-3.936 8.585v.018a36.5 36.5 0 0 0-2.096 5.55v.017a9 9 0 0 0-.274 1.44 4.6 4.6 0 0 0 .018 1.121 2.7 2.7 0 0 0 .52 1.185l.109.118a3.2 3.2 0 0 0 1.64.82 9 9 0 0 0 1.03.155h.018q2.278.192 6.288-.41c6.999-1.02 18.09-3.563 27.831-4.857 3.782-.501 7.373-.82 10.38-.893h.018c3.864-.082 6.762.237 7.92 1.075h.017l.155.137.164.164.055.073.018.036.073.137.036.09a1.8 1.8 0 0 1 .037.41 1.8 1.8 0 0 1-.11.457 2.7 2.7 0 0 1-.227.474l-.364.519v.018a18 18 0 0 1-2.197 2.287c-.956.893-2.004 1.823-2.907 2.707a14.6 14.6 0 0 0-1.686 1.886 4.6 4.6 0 0 0-.483.875l-.09.273a1.8 1.8 0 0 0-.056.657q0 .055.018.1.073.456.429.857h.018a2.7 2.7 0 0 0 .474.428q.392.273.947.538c2.215 1.011 6.434 1.777 13.078 2.487 12.056 1.294 32.06 2.452 47.66 3.6 15.62 1.14 26.839 2.287 33.528 3.308 3.463.529 5.714 1.03 6.798 1.686l.228.164q.547.401.52.93v.018a.9.9 0 0 1-.092.391v.018a3.7 3.7 0 0 1-.638.939c-2.041 2.233-8.293 5.796-16.95 9.687s-19.757 8.074-30.2 11.51c-10.453 3.445-20.259 6.124-22.683 7.9l-.228.183a1.8 1.8 0 0 0-.282.337l-.073.164v.018q-.036.073-.036.137-.018.273.246.538l.11.09.245.183c1.34.811 4.72 1.422 8.494 2.114 5.923 1.085 12.803 2.37 22.71 5.195 9.905 2.825 22.855 7.199 33.872 11.017 11.018 3.81 20.113 7.054 24.524 9.842q1.22.784 1.995 1.513.574.547.92 1.048c1.094 1.64.429 2.971-1.202 3.791a9.1 9.1 0 0 1-2.515.766q-1.477.273-3.345.364a82 82 0 0 1-6.798 0c-5.632-.182-12.303-.638-17.306-.911a46 46 0 0 0-6.05-.073 6.4 6.4 0 0 0-1.368.273 1.8 1.8 0 0 0-.692.401.9.9 0 0 0-.274.62q0 .246.11.547.182.465.747 1.093v.018c1.85 2.005 7.2 5.459 20.805 11.911 18.463 8.749 52.126 23.001 90.128 40.58 37.974 17.57 80.277 38.458 128.175 60.374a1640 1640 0 0 0 88.023 37.072c7.363 2.862 15.847 5.504 23.53 8.311 8.53 2.479 17.788 5.186 23.648 6.799 24.304 6.716 28.323 6.178 20.932-.265-7.39-6.443-26.163-18.79-44.69-30.2s-36.798-21.89-47.133-30.62c-10.334-8.73-12.749-15.702-7.244-17.178 5.504-1.476 18.936 2.552 27.931 4.438s13.551 1.604 16.64-3.099c3.09-4.702 4.694-13.824-2.952-23.757-7.655-9.933-24.578-20.669-38.54-31.276-13.96-10.608-24.969-21.07-22.818-24.56s17.46 0 31.822.529c14.372.547 27.786-1.878 37.984-6.972 10.206-5.103 17.196-12.895 12.758-20.012-4.42-7.108-20.258-13.551-22.546-19.593-2.278-6.042 8.986-11.692 23.621-14.508 14.636-2.816 32.625-2.816 44.836-6.98 12.212-4.156 18.664-12.486-2.816-16.103-21.479-3.627-70.872-2.552-108.463-5.104s-63.372-8.73-68.566-13.031c-5.195-4.31 10.206-6.744 33.089-12.904 22.892-6.16 53.266-16.021 72.449-23.995 19.174-7.974 27.147-14.061 26.2-18.618-.948-4.557-10.845-7.6-20.322-11.965-9.505-4.365-18.6-10.061-25.244-16.513-6.652-6.461-10.826-13.67-45.93-7.09-35.094 6.58-101.118 26.947-142.226 39.86-41.11 12.914-57.285 18.354-68.13 20.322-10.844 1.969-16.357.456-14.945-6.288 1.43-6.743 9.787-18.7 21.079-30.373 11.29-11.674 25.552-23.075 26.026-29.618.474-6.561-12.813-8.265-26.2-12.448-13.387-4.174-26.883-10.817-23.748-24.86 3.135-14.044 22.874-35.496 37.883-51.918 14.99-16.43 25.243-27.83 29.89-35.996 4.657-8.165 3.71-13.095-9.386-12.612-13.105.473-38.348 6.351-51.07 6.26-12.721-.09-12.904-6.17-6.634-15.373 6.27-9.205 18.974-21.544 25.717-32.27 6.744-10.726 7.491-19.857 15.465-33.718 7.974-13.852 23.175-32.46 14.636-38.53-8.548-6.078-40.827.383-68.549 11.018-27.722 10.626-50.887 25.425-70.817 37.965-19.94 12.53-36.635 22.782-45.173 23.548-8.548.756-8.931-7.992-12.53-10.644-3.61-2.661-10.454.756-20.14.565-9.679-.183-22.21-3.983-30.748-7.774-8.548-3.8-13.114-7.6-19.566-4.757-6.452 2.853-14.8 12.34-26.373 30.192-8.029 12.366-17.606 28.742-25.881 41.118 6.452-26.018 27.75-79.165 34.584-116.374v-.018a3900 3900 0 0 0-12.12-85.808z" style="fill:url(#C);fill-opacity:1;stroke-width:9.29958;stroke-linecap:round;stroke-linejoin:round"/><path d="M2244.98 828.107c-58.989 2.424-119.116 7.272-174.16 15.037-55.042 7.773-104.981 18.481-160.78 33.773a1932 1932 0 0 0-95.077 28.76c-86.783 76.723-98.594 121.44-98.594 121.44s41.018 3.045 60.647 1.268a702 702 0 0 0 41.018-4.849 1804 1804 0 0 0-49.42 50.979 2825 2825 0 0 0-70.08 78.226c-21.66 25.225-32.961 47.06-32.961 47.06s29.317-13.98 47.479-25.909a2114 2114 0 0 0 41.227-27.794c-5.74 25.817-14.872 14.872-84.131 94.229 123.682-23.649 158.73-39.095 158.73-39.095l-14.772 60.191s23.785-3.618 47.753-18.034c23.967-14.408 52.782-32.06 76.923-46.112 24.14-14.053 43.615-24.505 49.374-17.662 5.76 6.844 4.684 41.082 4.684 41.082s324.27-117.011 402.168-287.024c13.496-34.776 21.98-46.668 29.016-69.916 2.096-6.962 4.538-14.717 5.741-22.746-7.81-5.978-18.344-8.967-34.192-11-33.755-4.328-91.604-4.319-150.593-1.904" style="fill:#8bcc84;fill-opacity:1;stroke:none;stroke-width:9.29958;stroke-linecap:round;stroke-linejoin:round;stroke-dasharray:none"/><path d="M2311.86 826.485a76.395 76.395 0 0 0 76.423 76.413 76.6 76.6 0 0 0 14.845-1.458 775 775 0 0 0 23.921-62.315c-7.518-4.739-17.406-7.309-31.476-9.113-20.641-2.643-50.295-3.682-83.703-3.527m115.863 13.105q1.048.701 2.023 1.476l.018-.055a37 37 0 0 0-2.041-1.421" style="mix-blend-mode:overlay;fill:url(#D);fill-opacity:1;stroke-width:9.29958;stroke-linecap:round;stroke-linejoin:round"/><path d="M2427.049 839.12c-32.022 94.499-57.619 122.766-90.707 199.85 44.816 54.24 82.78 114.129 134.668 162.317 14.134 14.271 19.23 18.855 22.42 15.41 3.19-3.435 4.465-14.9 2.424-48.664s-7.392-89.828-15.803-146.265c-8.308-55.74-19.593-111.862-30.055-144.776l-.4-1.232c-2.227-6.896-4.412-12.724-6.791-17.668-4.215-8.751-9.036-14.735-15.756-18.973" style="fill:#5bb752;fill-opacity:1;stroke:none;stroke-width:9.29958;stroke-linecap:round;stroke-linejoin:round;stroke-dasharray:none"/><path d="M833.07 527.96c-4.038.255-7.4 4.046-10.845 12.075-9.177 21.397-18.855 72.877-31.595 134.29-9.687 46.686-21.142 99.104-30.665 155.596 8.775 39.086 20.86 89.663 31.093 121.23 13.333 41.119 23.567 50.004 29.563 43.342 6.005-6.67 7.783-28.888 9.569-51.124 5.768-.884 11.537-1.777 18.435 12.002 6.89 13.779 14.891 42.23 22.227 47.789s13.989-11.783 17.105-24.67c3.108-12.894 2.67-21.351 2.224-29.799 10.662 14.225 21.352 28.46 36.68 59.135s35.331 77.78 48.663 107.342c13.333 29.563 20.022 41.574 22.464 35.35 2.442-6.225.665-30.675-.893-51.562s-2.898-38.238-4.228-55.571c8 26.227 16.002 52.454 26 85.79 9.996 33.335 22.016 73.788 28.013 83.12 6.005 9.332 6.005-12.44-.884-47.115s-20.687-82.245-34.466-129.806c7.108 6.225 14.235 12.449 18.682 11.783 4.447-.665 6.224-8.22 8.001-34.228s3.554-70.453 5.322-114.916c2.67 6.671 5.34 13.342 14.453 21.562s24.67 18.007 27.34 10.443c2.67-7.554-7.564-32.442-16.677-59.335-7.29-21.506-13.852-44.289-24.487-87.767-27.95-39.606-57.102-77.17-84.332-111.389-39.751-49.94-75.429-92.752-97.6-118.488-13.853-16.084-22.437-25.498-29.163-25.079m1568.92 961.818c-34.493 3.19-45.693 5.276-56.893 7.381 27.567 16.887 55.134 33.773 57.795 42.886 2.67 9.113-19.566 10.453-50.46 13.56-30.892 3.117-70.452 7.993-103.122 9.332-32.68 1.33-58.442-.875-84.223-3.098 22.664 15.11 45.337 30.219 53.339 40.88 8 10.672 1.321 16.906-20.231 22.911s-58.014 11.765-92.68 21.771-67.564 24.24-100.462 38.457c20.896 2.224 41.774 4.438 74.663 7.108 32.898 2.661 77.807 5.787 110.477 10.68 32.68 4.885 53.12 11.547 48.008 20.66s-35.796 20.668-51.799 27.786c-16.002 7.108-17.333 9.769-18.663 12.439 14.672 3.554 29.344 7.117 44.9 12.667 15.565 5.56 31.996 13.123 60.893 24.022 28.889 10.89 70.253 25.106 129.15 32.442 37.2 4.63 81.389 6.516 141.68 2.07 40.827-28.98 83.53-60.393 122.48-86.894 48.664-33.135 91.467-58.606 119.49-72.63 28.032-14.007 41.3-16.55 45.374-22.674 4.073-6.106-1.02-15.802-27.266-28.797s-73.652-29.298-128.95-50.35c-55.316-21.05-118.515-46.859-198.145-66.516a1340 1340 0 0 0-75.364-16.093" style="fill:#88ca82;fill-opacity:1;stroke-width:9.29958;stroke-linecap:round;stroke-linejoin:round"/><path d="M1236.978 1324.558q-.739 1.686-1.44 3.372c-55.225 98.74-73.242 186.653-62.871 298.015 3.117-16.221 8.338-76.86 19.566-132.322 11.227-55.443 34.11-127.691 43.888-165.702zm752.072 99.97c-15.11 6.671-30.229 13.342-60.675 30.01-30.447 16.667-76.24 43.341-122.024 67.564-45.793 24.231-91.568 45.993-158.913 67.782-67.345 21.79-156.261 43.56-216.936 56.902s-111.042 23.867-143.494 28.761c33.336-1.002 83.703-10.981 122.598-16.531 38.894-5.559 83.785-14.007 117.795-21.343s57.139-13.55 81.361-20.221 49.566-13.78 100.244-35.122c50.668-21.325 126.67-56.902 177.576-85.572 28.861-16.257 83.084-57.548 94.64-65.623z" style="fill:#5eb856;fill-opacity:1;stroke-width:9.29958;stroke-linecap:round;stroke-linejoin:round"/><path d="M2469.443 1234.248a259.7 259.7 0 0 0-4.574 48.518 259.72 259.72 0 0 0 81.607 189.023c45.118-18.217 112.783-43.37 251.784-93.692 22.026-7.973 31.13-11.026.374-27.73-24.67-13.397-141.699-73.406-329.19-116.119" style="mix-blend-mode:overlay;fill:url(#E);fill-opacity:1;stroke-width:9.29958;stroke-linecap:round;stroke-linejoin:round"/><path d="M833.07 527.97c-4.038.254-7.4 4.036-10.845 12.065-9.177 21.406-18.855 72.877-31.595 134.29-3.199 15.437-6.598 31.513-10.052 48.144a161.3 161.3 0 0 0 55.152 9.742 161.12 161.12 0 0 0 125.031-59.527l-.93-1.148c-39.75-49.948-75.437-92.752-97.6-118.488-13.852-16.093-22.436-25.516-29.162-25.079" style="mix-blend-mode:overlay;fill:url(#F);fill-opacity:1;stroke-width:9.29958;stroke-linecap:round;stroke-linejoin:round"/><path d="M2646.455 1561.242a127.6 127.6 0 0 0-12.886 55.818 127.31 127.31 0 0 0 63.108 109.912c36.179-23.484 67.528-41.692 89.654-52.765 28.032-14.006 41.3-16.549 45.374-22.664 4.073-6.115-1.02-15.81-27.266-28.797-26.246-13.004-73.652-29.307-128.95-50.359q-14.152-5.404-29.034-11.145" style="mix-blend-mode:overlay;fill:url(#G);fill-opacity:1;stroke-width:9.29958;stroke-linecap:round;stroke-linejoin:round"/><path d="M620.262 1804.752a392 392 0 0 0-30.666 49.11c-21.98 41.801-34.584 87.558-41.792 131.155-35.723 216.116 109.675 367.392 216.526 445.864a222.313 359.71 0 0 0 73.004-266.52 222.313 359.71 0 0 0-217.072-359.6" style="mix-blend-mode:multiply;fill:url(#H);fill-opacity:.413191;stroke-width:9.29958;stroke-linecap:round;stroke-linejoin:round"/><path d="M1712.334 2118.977a222.313 359.71 34.988 0 0-249.463 187.71 222.313 359.71 34.988 0 0-92.537 280.926 848 848 0 0 0 47.182-10.326c31.173-7.748 58.557-16.757 83.606-30.805 168.323-94.458 216.816-274.342 211.2-427.503" style="mix-blend-mode:multiply;fill:url(#I);fill-opacity:.356863;stroke-width:9.29958;stroke-linecap:round;stroke-linejoin:round"/><path d="M943.93 2001.958c-6.17 12.357-10.471 38.393-14.098 67.254-3.618 28.87-6.57 60.556-2.142 85.526 8.712 49.12 31.814 64.958 58.187 55.334s56.009-44.726 77.807-97.49c10.207-24.697 18.791-53.968 22.418-71.019 3.618-17.041 2.278-21.88-4.702-24.696a2497 2497 0 0 1-105.383-21.89c-17.862-4.028-25.909-5.376-32.078 6.98" style="fill:url(#J);fill-opacity:1;stroke-width:9.29958;stroke-linecap:round;stroke-linejoin:round"/><path d="M1018.83 2071.345a119.2 119.2 0 0 0-93.19 44.89c-.474 13.652-.028 26.811 2.041 38.494 8.721 49.12 31.814 64.967 58.187 55.343 26.373-9.632 56.018-44.717 77.825-97.49 3.673-8.913 7.136-18.41 10.243-27.732a119.4 119.4 0 0 0-55.106-13.505" style="fill:url(#K);fill-opacity:1;stroke-width:9.29958;stroke-linecap:round;stroke-linejoin:round"/><path d="M1263.04 1903.61a55 55 0 0 0-4.83.456c-6.378.91-12.575 3.007-18.39 6.005-11.61 5.987-21.56 15.237-31.202 24.059a6.744 6.744 0 0 0-.401 9.523 6.744 6.744 0 0 0 9.496.41c9.641-8.822 19-17.242 28.286-22.036 9.287-4.793 18.646-6.36 28.287-3.863 20.049 5.677 31.067 20.03 36.89 39.186a6.744 6.744 0 0 0 12.959-3.737c-5.678-24.423-23.01-40.489-46.167-48.39l-.237-.091a49.2 49.2 0 0 0-14.7-1.522zm-386.028-95.231q2.05 1.303 3.974 2.788c5.103 3.937 9.46 8.804 13.031 14.28 7.154 10.936 11.255 23.895 15.283 36.325a6.744 6.744 0 0 1-4.338 8.484 6.744 6.744 0 0 1-8.475-4.328c-4.028-12.43-8.02-24.378-13.733-33.117-5.723-8.749-13.087-14.736-22.7-17.315-20.232-4.948-36.909 2.105-51.417 15.893a6.747 6.747 0 0 1-9.432-9.65c16.978-18.436 39.988-23.868 64.02-19.32l.245.046a48.8 48.8 0 0 1 13.552 5.923" style="baseline-shift:baseline;display:inline;overflow:visible;vector-effect:none;fill:#007fdd;fill-opacity:1;stroke-width:9.11304;stroke-linecap:round;stroke-linejoin:round;stop-color:#000"/><ellipse cx="1078.766" cy="1931.815" rx="484.832" ry="299.637" style="mix-blend-mode:overlay;fill:url(#L);fill-opacity:1;stroke:none;stroke-width:2.73391;stroke-linecap:round;stroke-linejoin:round;stroke-dasharray:none;stroke-opacity:1"/><path d="M2490.57 1105.617a74.01 74.01 0 0 0-67.69 44.088c15.006 18.07 30.79 35.479 48.13 51.582 14.134 14.271 19.23 18.855 22.42 15.41 3.19-3.435 4.465-14.9 2.424-48.664-.991-16.387-2.762-38.028-5.284-62.416" style="mix-blend-mode:overlay;fill:url(#M);fill-opacity:1;stroke-width:.3;stroke-linecap:round;stroke-linejoin:round"/></svg>