<svg xmlns="http://www.w3.org/2000/svg" xmlns:xlink="http://www.w3.org/1999/xlink" xml:space="preserve" width="3000" height="3600"><defs><linearGradient id="w"><stop offset="0" style="stop-color:#e6a44d;stop-opacity:1"/><stop offset=".5" style="stop-color:#e49b3c;stop-opacity:1"/><stop offset="1" style="stop-color:#e2922b;stop-opacity:1"/></linearGradient><linearGradient id="u"><stop offset="0" style="stop-color:#e9c640;stop-opacity:.4046875"/><stop offset="1" style="stop-color:#e9c640;stop-opacity:0"/></linearGradient><linearGradient id="t"><stop offset="0" style="stop-color:#d68731;stop-opacity:1"/><stop offset="1" style="stop-color:#d68731;stop-opacity:0"/></linearGradient><linearGradient id="y"><stop offset="0" style="stop-color:#fdf9e4;stop-opacity:.32446554"/><stop offset="1" style="stop-color:#e49b3c;stop-opacity:0"/></linearGradient><linearGradient id="s"><stop offset="0" style="stop-color:#f8e487;stop-opacity:.52941176"/><stop offset="1" style="stop-color:#f8e487;stop-opacity:0"/></linearGradient><linearGradient id="r"><stop offset="0" style="stop-color:#f8e487;stop-opacity:.52941179"/><stop offset="1" style="stop-color:#f8e487;stop-opacity:0"/></linearGradient><linearGradient id="q"><stop offset="0" style="stop-color:#f8e487;stop-opacity:.52999997"/><stop offset="1" style="stop-color:#f8e487;stop-opacity:0"/></linearGradient><linearGradient id="p"><stop offset="0" style="stop-color:#f6e282;stop-opacity:.65691382"/><stop offset="1" style="stop-color:#f6e282;stop-opacity:0"/></linearGradient><linearGradient id="o"><stop offset="0" style="stop-color:#d88546;stop-opacity:1"/><stop offset=".5" style="stop-color:#d3752f;stop-opacity:1"/><stop offset="1" style="stop-color:#cc6b23;stop-opacity:1"/></linearGradient><linearGradient id="n"><stop offset="0" style="stop-color:#f6da5b;stop-opacity:1"/><stop offset="1" style="stop-color:#f3cd24;stop-opacity:1"/></linearGradient><linearGradient id="m"><stop offset="0" style="stop-color:#f6e283;stop-opacity:1"/><stop offset="1" style="stop-color:#f6e283;stop-opacity:0"/></linearGradient><linearGradient id="l"><stop offset="0" style="stop-color:#d68731;stop-opacity:.64653116"/><stop offset="1" style="stop-color:#d68731;stop-opacity:0"/></linearGradient><linearGradient id="k"><stop offset="0" style="stop-color:#e49b3c;stop-opacity:.45684874"/><stop offset="1" style="stop-color:#e49b3c;stop-opacity:0"/></linearGradient><linearGradient id="i"><stop offset="0" style="stop-color:#f5e6b7;stop-opacity:.62574041"/><stop offset="1" style="stop-color:#f5e6b7;stop-opacity:0"/></linearGradient><linearGradient id="h"><stop offset="0" style="stop-color:#f5e6b7;stop-opacity:1"/><stop offset="1" style="stop-color:#f5e6b7;stop-opacity:0"/></linearGradient><linearGradient id="x"><stop offset="0" style="stop-color:#e8aa5a;stop-opacity:.46405229"/><stop offset="1" style="stop-color:#e39736;stop-opacity:0"/></linearGradient><linearGradient id="g"><stop offset="0" style="stop-color:#d88343;stop-opacity:1"/><stop offset=".5" style="stop-color:#d47630;stop-opacity:1"/><stop offset="1" style="stop-color:#cc6f2a;stop-opacity:1"/></linearGradient><linearGradient id="f"><stop offset="0" style="stop-color:#dc891f;stop-opacity:.71681815"/><stop offset="1" style="stop-color:#e39736;stop-opacity:0"/></linearGradient><linearGradient id="e"><stop offset="0" style="stop-color:#e49b3c;stop-opacity:.27984751"/><stop offset="1" style="stop-color:#e49b3c;stop-opacity:0"/></linearGradient><linearGradient id="d"><stop offset="0" style="stop-color:#f9efc9;stop-opacity:.50999999"/><stop offset="1" style="stop-color:#f9efc9;stop-opacity:0"/></linearGradient><linearGradient id="c"><stop offset="0" style="stop-color:#e2922a;stop-opacity:1"/><stop offset="1" style="stop-color:#e2922a;stop-opacity:0"/></linearGradient><linearGradient id="b"><stop offset="0" style="stop-color:#e6be23;stop-opacity:.52999997"/><stop offset="1" style="stop-color:#e6be23;stop-opacity:0"/></linearGradient><linearGradient id="a"><stop offset="0" style="stop-color:#ebcc53;stop-opacity:1"/><stop offset=".5" style="stop-color:#e8c438;stop-opacity:1"/><stop offset="1" style="stop-color:#e5bd1d;stop-opacity:1"/></linearGradient><linearGradient xlink:href="#a" id="z" x1="800" x2="800" y1="121.285" y2="649.076" gradientTransform="translate(0 8.136)" gradientUnits="userSpaceOnUse"/><linearGradient xlink:href="#b" id="C" x1="613.426" x2="626.642" y1="597.963" y2="583.856" gradientUnits="userSpaceOnUse"/><linearGradient xlink:href="#b" id="D" x1="613.426" x2="626.642" y1="597.963" y2="583.856" gradientTransform="matrix(-1 0 0 1 1600 0)" gradientUnits="userSpaceOnUse"/><linearGradient xlink:href="#c" id="J" x1="798.864" x2="798.833" y1="593.844" y2="608.187" gradientUnits="userSpaceOnUse"/><linearGradient xlink:href="#d" id="K" x1="1092.485" x2="1042.197" y1="355.844" y2="422.654" gradientUnits="userSpaceOnUse"/><linearGradient xlink:href="#e" id="L" x1="788.751" x2="788.751" y1="555.697" y2="640.47" gradientUnits="userSpaceOnUse"/><linearGradient xlink:href="#f" id="M" x1="1172.146" x2="1032.552" y1="752.089" y2="816.469" gradientUnits="userSpaceOnUse"/><linearGradient xlink:href="#f" id="N" x1="1172.146" x2="1032.552" y1="752.089" y2="816.469" gradientTransform="matrix(-1 0 0 1 1600 0)" gradientUnits="userSpaceOnUse"/><linearGradient xlink:href="#g" id="B" x1="799.999" x2="799.999" y1="427.083" y2="650.801" gradientUnits="userSpaceOnUse"/><linearGradient xlink:href="#h" id="P" x1="800" x2="800" y1="1034.576" y2="992.533" gradientUnits="userSpaceOnUse"/><linearGradient xlink:href="#i" id="Q" x1="800" x2="800" y1="882.412" y2="928.777" gradientUnits="userSpaceOnUse"/><linearGradient xlink:href="#k" id="R" x1="1247.563" x2="1221.432" y1="1096.535" y2="1103.326" gradientUnits="userSpaceOnUse"/><linearGradient xlink:href="#k" id="I" x1="1247.563" x2="1221.432" y1="1096.535" y2="1103.326" gradientTransform="matrix(-1 0 0 1 1600 0)" gradientUnits="userSpaceOnUse"/><linearGradient xlink:href="#l" id="H" x1="807.726" x2="807.726" y1="1507.568" y2="1393.563" gradientUnits="userSpaceOnUse"/><linearGradient xlink:href="#m" id="T" x1="1059.787" x2="1059.626" y1="1059.787" y2="1290.198" gradientUnits="userSpaceOnUse"/><linearGradient xlink:href="#n" id="S" x1="1102.72" x2="1136.006" y1="1145.309" y2="1249.305" gradientUnits="userSpaceOnUse"/><linearGradient xlink:href="#o" id="U" x1="965.969" x2="1006.92" y1="2687.552" y2="2749.055" gradientUnits="userSpaceOnUse"/><linearGradient xlink:href="#p" id="V" x1="1237.66" x2="1184.547" y1="999.936" y2="1043.903" gradientUnits="userSpaceOnUse"/><linearGradient xlink:href="#q" id="W" x1="1124.883" x2="1116.531" y1="1225.42" y2="1196.633" gradientUnits="userSpaceOnUse"/><linearGradient xlink:href="#r" id="X" x1="1219.914" x2="1212.113" y1="1183.246" y2="1161.957" gradientUnits="userSpaceOnUse"/><linearGradient xlink:href="#s" id="Y" x1="1022.93" x2="1021.053" y1="1229.453" y2="1211.03" gradientUnits="userSpaceOnUse"/><linearGradient xlink:href="#k" id="aa" x1="1247.563" x2="1221.432" y1="1096.535" y2="1103.326" gradientUnits="userSpaceOnUse"/><linearGradient xlink:href="#n" id="ab" x1="1102.72" x2="1136.006" y1="1145.309" y2="1249.305" gradientUnits="userSpaceOnUse"/><linearGradient xlink:href="#m" id="ac" x1="1059.787" x2="1059.626" y1="1059.787" y2="1290.198" gradientUnits="userSpaceOnUse"/><linearGradient xlink:href="#o" id="ad" x1="965.969" x2="1006.92" y1="2687.552" y2="2749.055" gradientUnits="userSpaceOnUse"/><linearGradient xlink:href="#p" id="ae" x1="1237.66" x2="1184.547" y1="999.936" y2="1043.903" gradientUnits="userSpaceOnUse"/><linearGradient xlink:href="#q" id="af" x1="1124.883" x2="1116.531" y1="1225.42" y2="1196.633" gradientUnits="userSpaceOnUse"/><linearGradient xlink:href="#r" id="ag" x1="1219.914" x2="1212.113" y1="1183.246" y2="1161.957" gradientUnits="userSpaceOnUse"/><linearGradient xlink:href="#s" id="ah" x1="1022.93" x2="1021.053" y1="1229.453" y2="1211.03" gradientUnits="userSpaceOnUse"/><linearGradient xlink:href="#t" id="G" x1="343.052" x2="479.14" y1="1271.328" y2="1276.882" gradientUnits="userSpaceOnUse"/><linearGradient xlink:href="#t" id="F" x1="343.052" x2="479.14" y1="1271.328" y2="1276.882" gradientTransform="matrix(-1 0 0 1 1600 0)" gradientUnits="userSpaceOnUse"/><linearGradient xlink:href="#u" id="A" x1="800" x2="800" y1="693.892" y2="543.892" gradientUnits="userSpaceOnUse"/><linearGradient xlink:href="#d" id="ai" x1="1092.485" x2="1042.197" y1="355.844" y2="422.654" gradientTransform="matrix(-1 0 0 1 1600 0)" gradientUnits="userSpaceOnUse"/><linearGradient xlink:href="#w" id="E" x1="800" x2="800" y1="501.474" y2="1495.979" gradientUnits="userSpaceOnUse"/><radialGradient xlink:href="#x" id="O" cx="1006.251" cy="833.316" r="206.251" fx="1006.251" fy="833.316" gradientTransform="matrix(1 0 0 1.09803 0 -81.694)" gradientUnits="userSpaceOnUse"/><radialGradient xlink:href="#y" id="Z" cx="1136" cy="941.736" r="260" fx="1136" fy="941.736" gradientTransform="matrix(.76817 -.04099 .06274 1.17587 -131.725 -120.854)" gradientUnits="userSpaceOnUse"/></defs><g transform="translate(-145.507 144.701)scale(2.05688)"><path d="M800 129.422c-42.459 0-126.233 112.401-126.928 206.715.247 30.781 2.641 52.463 9.338 84.545 4.419 21.168 4.51 22.12 2.11 22.12-2.343 0-30.805-16.364-50.84-29.23-26.537-14.475-91.374-68.448-111.313-35.55-6.776 13.67-3.22 35.14 14.783 89.257 28.9 86.87 92.531 135.425 122.905 154.451.814.51 1.582 1.346 1.582 1.346s91.705-16.89 138.363-16.955c46.658.064 138.363 16.955 138.363 16.955s.768-.835 1.582-1.346c30.374-19.026 94.005-67.582 122.905-154.45 18.003-54.118 21.56-75.588 14.783-89.259-19.939-32.897-84.776 21.076-111.313 35.551-20.035 12.866-48.497 29.23-50.84 29.23-2.4 0-2.309-.952 2.11-22.12 6.697-32.082 9.091-53.764 9.338-84.545-.695-94.314-84.47-206.715-126.928-206.715" style="display:inline;fill:url(#z)"/><path d="M800 370.707a197 197 0 0 0-119.52 40.398 675 675 0 0 0 1.93 9.577c4.419 21.168 4.51 22.12 2.11 22.12-1.403 0-12.164-5.864-24.875-13.331A197 197 0 0 0 603 567.707a197 197 0 0 0 .15 7.654c21.6 22.385 42.825 37.55 56.905 46.37.814.51 1.582 1.345 1.582 1.345s91.705-16.89 138.363-16.955c46.658.064 138.363 16.955 138.363 16.955s.768-.835 1.582-1.346c14.08-8.819 35.305-23.984 56.905-46.369a197 197 0 0 0 .15-7.654 197 197 0 0 0-56.645-138.236c-12.71 7.467-23.472 13.332-24.875 13.332-2.4 0-2.309-.953 2.11-22.121a675 675 0 0 0 1.93-9.577A197 197 0 0 0 800 370.707" style="mix-blend-mode:multiply;fill:url(#A);stroke:none;stroke-width:5;stroke-linecap:round;stroke-linejoin:round;stroke-dasharray:none"/><path d="M800 464.894c-1.917 0-3.834.748-5.584 2.244-4.367 3.734-10.48 12.223-16.777 23.746-6.298 11.524-12.78 26.08-16.69 40.053-3.909 13.972-5.244 27.357-5.449 36.77-.205 9.412.72 14.851 1.643 20.29-3.833-6.709-7.665-13.419-14.938-18.474-7.273-5.056-17.986-8.457-27.736-10.584-9.75-2.128-18.54-2.981-23.088.094s-4.856 10.078 2.625 20.892c6.285 9.086 18.067 20.86 30.728 33.065 49.608-6.583 98.505-6.224 150.532 0 12.661-12.206 24.443-23.98 30.728-33.065 7.48-10.814 7.171-17.817 2.623-20.892-4.548-3.076-13.335-2.222-23.086-.094-9.75 2.127-20.46 5.528-27.734 10.584-7.273 5.055-11.105 11.765-14.938 18.474.923-5.439 1.846-10.878 1.641-20.29-.205-9.413-1.54-22.798-5.45-36.77-3.908-13.972-10.39-28.53-16.689-40.053s-12.408-20.012-16.775-23.746c-1.75-1.497-3.669-2.244-5.586-2.244" style="display:inline;fill:url(#B)"/><path d="M608.395 527.59a63.9 63.9 0 0 0-35.594 10.834c30.138 43.46 66.477 70.292 87.254 83.306.814.51 1.582 1.346 1.582 1.346s.892-.165 2.545-.46a63.9 63.9 0 0 0 8.101-31.137 63.89 63.89 0 0 0-63.888-63.89" style="mix-blend-mode:multiply;fill:url(#C);fill-opacity:1;stroke-width:.47;stroke-linecap:round;stroke-linejoin:round"/><path d="M991.605 527.59a63.9 63.9 0 0 1 35.594 10.834c-30.138 43.46-66.477 70.292-87.254 83.306-.814.51-1.582 1.346-1.582 1.346s-.892-.165-2.545-.46a63.9 63.9 0 0 1-8.101-31.137 63.89 63.89 0 0 1 63.888-63.89" style="mix-blend-mode:multiply;fill:url(#D);fill-opacity:1;stroke-width:.47;stroke-linecap:round;stroke-linejoin:round"/><path d="M800 597.963C554.574 598.418 370.263 807.85 395.508 976c3.433 22.866 3.765 20.485-4.139 29.678-10.66 12.398-26.552 30.505-30.656 33.138-7.66 4.916-8.69 8.578-2.1 7.471 2.384-.4 5.39-1.145 6.682-1.656 7.242-2.863-19.99 35.378-18.287 38.135.45.729 2.808.94 5.285.476l4.473-.838-1.746 5.797c-.96 3.19-4.286 13.803-7.39 23.586-3.548 11.188-5.174 18.257-4.38 19.05 2.267 2.268 8.401-1.29 17.693-10.26l9.016-8.704.7 4.397c.384 2.418.533 7.397.33 11.064-4.731 85.13 8.419 217.086 115.958 301.209C540.943 1462.916 670.472 1480.1 800 1480.1s259.057-17.184 313.053-51.557c107.54-84.123 120.69-216.078 115.959-301.209-.204-3.667-.055-8.646.33-11.064l.699-4.397 9.016 8.703c9.292 8.97 15.426 12.529 17.693 10.262.794-.794-.832-7.863-4.38-19.05-3.104-9.784-6.43-20.398-7.39-23.587l-1.746-5.797 4.473.838c2.477.465 4.834.253 5.285-.476 1.704-2.757-25.53-40.998-18.287-38.135 1.292.51 4.298 1.256 6.682 1.656 6.59 1.107 5.56-2.555-2.1-7.47-4.104-2.634-19.997-20.741-30.656-33.14-7.904-9.192-7.572-6.81-4.139-29.677C1229.737 807.85 1045.426 598.418 800 597.963" style="fill:url(#E)"/><path d="M1234.705 1044.63a228 228 0 0 1 10.998.267c.31 1.33-1.09 1.932-4.316 1.39-2.383-.4-5.39-1.145-6.682-1.656m-1.062 0c-2.346 2.549 20.928 35.58 19.35 38.134-.452.73-2.81.94-5.286.476l-4.473-.838 1.746 5.797c.96 3.19 4.286 13.803 7.39 23.586 3.548 11.188 5.174 18.257 4.38 19.051-2.267 2.267-8.401-1.291-17.693-10.262l-9.016-8.703-.7 4.397c-.384 2.418-.533 7.398-.33 11.064 4.731 85.13-8.419 217.086-115.958 301.21-8.112 5.163-17.929 9.94-29.194 14.327a227.7 227.7 0 0 1-76.843-170.55 227.69 227.69 0 0 1 226.627-227.688" style="fill:url(#F);fill-opacity:.647059;stroke:none;stroke-width:5;stroke-linecap:round;stroke-linejoin:round;stroke-dasharray:none"/><path d="M365.295 1044.63a228 228 0 0 0-10.998.267c-.31 1.33 1.09 1.932 4.316 1.39 2.383-.4 5.39-1.145 6.682-1.656m1.062 0c2.345 2.549-20.928 35.58-19.35 38.134.452.73 2.81.94 5.286.476l4.473-.838-1.746 5.797c-.96 3.19-4.286 13.803-7.39 23.586-3.548 11.188-5.174 18.257-4.38 19.051 2.267 2.267 8.401-1.291 17.693-10.262l9.016-8.703.7 4.397c.384 2.418.533 7.398.33 11.064-4.731 85.13 8.419 217.086 115.958 301.21 8.112 5.163 17.929 9.94 29.194 14.327a227.7 227.7 0 0 0 76.843-170.55 227.69 227.69 0 0 0-226.627-227.688" style="fill:url(#G);stroke:none;stroke-width:5;stroke-linecap:round;stroke-linejoin:round;stroke-dasharray:none"/><path d="M800 1113.027A351.88 217.474 0 0 0 448.12 1330.5a351.88 217.474 0 0 0 35.952 95.766q1.427 1.144 2.875 2.277C540.943 1462.916 670.472 1480.1 800 1480.1s259.057-17.184 313.053-51.557a291 291 0 0 0 2.875-2.277 351.88 217.474 0 0 0 35.953-95.766A351.88 217.474 0 0 0 800 1113.027" style="fill:url(#H);fill-opacity:1;stroke:none;stroke-width:5;stroke-linecap:round;stroke-linejoin:round;stroke-dasharray:none"/><path d="M378.584 1020.336a72.46 72.46 0 0 1 14.61 43.633 72.46 72.46 0 0 1-22.507 52.488l-.029-.187-.699-4.397-9.015 8.703c-9.292 8.97-15.427 12.529-17.694 10.262-.793-.794.832-7.863 4.381-19.05 3.104-9.784 6.429-20.398 7.389-23.587l1.746-5.797-4.473.838c-2.476.465-4.834.253-5.285-.476-1.704-2.757 25.53-40.998 18.287-38.135-1.291.51-4.298 1.256-6.681 1.656-6.59 1.107-5.561-2.555 2.1-7.47 2.622-1.684 10.06-9.687 17.87-18.481" style="mix-blend-mode:multiply;fill:url(#I);fill-opacity:.456849;stroke:none;stroke-width:5;stroke-linecap:round;stroke-linejoin:round;stroke-dasharray:none"/><path d="M751.28 913.219c-7.995 3.782-15.126 6.805-22.492 10.32s-14.967 7.523-20.502 12.92-9.004 12.184-10.433 19.903-.82 16.37 4.863 24.865c16.04 23.982 57.95 35.209 97.285 36.076 39.335-.867 81.243-12.094 97.283-36.076 5.682-8.495 6.293-17.147 4.863-24.865-1.429-7.72-4.898-14.505-10.433-19.903s-13.136-9.404-20.502-12.92-14.497-6.538-22.492-10.32c-45.002-21.456-52.436-21.457-97.44 0" style="display:inline;fill:#773009;fill-opacity:.397116;stroke-width:.472099;stroke-linecap:round;stroke-linejoin:round"/><path d="M800 597.963a428 428 0 0 0-82.355 8.133 998 998 0 0 0 7.09 6.894c49.607-6.583 98.504-6.224 150.53 0a997 997 0 0 0 7.09-6.894A428 428 0 0 0 800 597.963" style="display:inline;fill:url(#J);fill-opacity:1"/><path d="M1058.973 367.58c-27.813-.733-71.921 34.684-92.653 45.992a614 614 0 0 1-5.75 3.645 104.545 104.545 0 0 0 96.805 65.068 278 278 0 0 0 5.475-15.006c18.003-54.117 21.56-75.587 14.783-89.258-4.362-7.196-10.873-10.236-18.66-10.44" style="mix-blend-mode:overlay;fill:url(#K);fill-opacity:.553794;stroke-width:.47;stroke-linecap:round;stroke-linejoin:round"/><path d="M800 597.963c-57.002.105-110.707 11.484-159.256 31A190.326 185.104 0 0 0 800 712.707a190.326 185.104 0 0 0 159.256-83.744c-48.549-19.516-102.254-30.895-159.256-31" style="mix-blend-mode:multiply;fill:url(#L);fill-opacity:.279848;stroke-width:.47;stroke-linecap:round;stroke-linejoin:round"/><path d="M1010.309 653.457a220.504 192.795 0 0 0-101.692 162.414 220.504 192.795 0 0 0 220.504 192.795 220.504 192.795 0 0 0 73.57-11.047c-1.162-3.471-.215-8.193 1.801-21.619 17.24-114.828-63.245-248.91-194.183-322.543" style="fill:url(#M);fill-opacity:1;stroke-width:.47;stroke-linecap:round;stroke-linejoin:round"/><path d="M589.691 653.457c63.358 35.432 101.692 96.656 101.692 162.414 0 106.478-98.723 192.795-220.504 192.795-25.063 0-49.943-3.736-73.57-11.047 1.162-3.471.215-8.193-1.801-21.619-17.24-114.828 63.245-248.91 194.183-322.543" style="fill:url(#N);fill-opacity:1;stroke-width:.47;stroke-linecap:round;stroke-linejoin:round"/><path d="M886.06 606.846A259.8 259.8 0 0 0 800 800a259.79 259.79 0 0 0 259.787 259.787 259.8 259.8 0 0 0 152.715-49.625 1642 1642 0 0 1-3.871-4.484c-7.904-9.193-7.572-6.812-4.139-29.678 22.194-147.823-117.568-327.554-318.431-369.154" style="mix-blend-mode:overlay;fill:url(#O);fill-opacity:.576869;stroke-width:.47;stroke-linecap:round;stroke-linejoin:round"/><path d="M776.229 908.805c-7.996 3.782-15.127 6.805-22.493 10.32s-14.967 7.522-20.502 12.92-9.004 12.184-10.433 19.902-.819 16.37 4.863 24.866c16.04 23.982 57.95 35.209 97.285 36.076 39.335-.867 81.243-12.095 97.283-36.077 5.683-8.495 6.293-17.146 4.864-24.865s-4.899-14.505-10.434-19.902-13.136-9.405-20.502-12.92-14.497-6.538-22.492-10.32c-45.002-21.456-52.436-21.457-97.44 0" style="display:inline;fill:#f5e6b7;fill-opacity:1;stroke-width:.472099;stroke-linecap:round;stroke-linejoin:round" transform="translate(-24.948)"/><path d="M800 966.99a102.774 63.518 0 0 0-81.637 24.934c20.384 13.668 51.755 20.306 81.639 20.965 29.884-.659 61.252-7.297 81.635-20.965A102.774 63.518 0 0 0 800 966.99" style="mix-blend-mode:multiply;fill:url(#P);stroke-width:.390763;stroke-linecap:round;stroke-linejoin:round"/><path d="M800 892.713c-13.11 0-26.217 5.363-48.719 16.092-5.194 2.457-10.025 4.594-14.79 6.754A70.835 43.778 0 0 0 800 939.947a70.835 43.778 0 0 0 63.51-24.388c-4.766-2.16-9.595-4.297-14.79-6.754-22.5-10.728-35.61-16.092-48.72-16.092" style="mix-blend-mode:overlay;fill:url(#Q);stroke-width:.47;stroke-linecap:round;stroke-linejoin:round"/><path d="m1202.19 993.655-2.29 3.21c-67.136 91.577-229.908 95.757-333.7 104.896-1.495-1.327-15.238.331-16.24-.598 122.515-20.924 256.518-5.526 349.94-107.919.55-.07 2.29.41 2.29.41-.833-.606-.802-.54 0 0" style="fill:#e1932f;fill-opacity:1;stroke:none;stroke-width:5;stroke-linecap:round;stroke-linejoin:round;stroke-dasharray:none"/><path d="M1221.416 1020.336a72.46 72.46 0 0 0-14.61 43.633 72.46 72.46 0 0 0 22.506 52.488l.03-.187.699-4.397 9.015 8.703c9.292 8.97 15.427 12.529 17.694 10.262.793-.794-.832-7.863-4.381-19.05-3.104-9.784-6.429-20.398-7.389-23.587l-1.746-5.797 4.473.838c2.476.465 4.834.253 5.285-.476 1.704-2.757-25.53-40.998-18.287-38.135 1.291.51 4.298 1.256 6.681 1.656 6.59 1.107 5.561-2.555-2.1-7.47-2.622-1.684-10.06-9.687-17.87-18.481" style="mix-blend-mode:multiply;fill:url(#R);fill-opacity:.456849;stroke:none;stroke-width:5;stroke-linecap:round;stroke-linejoin:round;stroke-dasharray:none"/><path d="M1202.19 1003.506c-66.243 95.487-229.918 95.733-334.829 105.182-13.454 1.213-15.883-8.434-17.4-7.524-6.346 3.808 28.098 66.396 80.02 102.314 14.77 10.218 25.493 14.668 36.216 19.12q-2.73-6.07-5.463-12.139c6.475 4.856 12.95 9.711 24.483 16.186s28.122 14.567 44.713 22.66c5.058-13.96 10.116-27.92 14.77-36.924 4.653-9.004 8.903-13.05 13.152-17.096 19.625 11.533 39.25 23.064 49.974 29.943s12.545 9.105 15.377 3.844c2.833-5.26 6.676-18.007 12.24-32.675 5.565-14.67 12.848-31.26 17.4-41.477 4.553-10.218 6.373-14.062 8.194-17.906.202 4.653.406 9.308 4.857 15.176 4.452 5.867 13.15 12.947 21.9 19.472 8.752 6.525 17.554 12.494 23.017 15.832 5.462 3.339 7.586 4.048 9.103-4.248 1.518-8.295 2.428-25.595 2.58-40.416s-.455-27.162-1.062-39.504c1.618 3.743 3.238 7.486 5.21 12.444.732 1.837 1.51 3.842 2.303 5.923.054-2.142.193-4.142.397-5.423l.699-4.397 5.973 5.766c-1.512-6.54-2.766-12.129-4.414-18.157-1.77-6.474-3.997-13.455-6.223-20.435 2.023.657 4.048 1.316 6.375 3.187 2.327 1.872 4.956 4.957 7.662 7.739s5.488 5.26 7.967 6.474q.09.045.181.088a1008 1008 0 0 1-2.582-8.334l-1.746-5.797 4.473.838c.483.091.961.155 1.422.196-2.749-6.178-6.849-14.89-11.225-25.196-5.076-11.954-10.522-26.048-16.537-35.527s-12.596-14.345-19.178-19.209" style="mix-blend-mode:multiply;fill:#b97127;fill-opacity:.224482;stroke-width:.47;stroke-linecap:round;stroke-linejoin:round"/><path d="M929.98 1193.627c14.77 10.217 25.494 14.668 36.217 19.12q-2.73-6.07-5.463-12.14c6.475 4.856 12.95 9.712 24.482 16.186s28.123 14.568 44.714 22.66c5.058-13.96 10.116-27.92 14.77-36.924s8.902-13.05 13.151-17.097c19.626 11.533 39.251 23.066 49.975 29.945 10.723 6.879 12.544 9.105 15.377 3.844 2.832-5.26 6.677-18.007 12.24-32.676 5.565-14.669 12.848-31.26 17.4-41.477 4.553-10.217 6.374-14.061 8.195-17.906.202 4.654.405 9.307 4.856 15.175s13.15 12.949 21.902 19.474c8.75 6.525 17.551 12.493 23.014 15.832 5.463 3.338 7.587 4.046 9.105-4.25 1.517-8.295 2.428-25.593 2.58-40.414.151-14.82-.456-27.162-1.063-39.504 1.619 3.743 3.238 7.486 5.21 12.443a462 462 0 0 1 6.272 16.743c1.973 5.614 3.592 10.672 5.059 12.342 1.466 1.669 2.782-.05 2.427-5.11-.354-5.058-2.377-13.454-4.046-20.637s-2.984-13.15-4.755-19.625-3.996-13.455-6.221-20.435c2.023.657 4.046 1.315 6.373 3.186 2.327 1.872 4.957 4.957 7.663 7.74 2.706 2.781 5.488 5.26 7.967 6.474s4.653 1.163 5.437-.152.177-3.895-2.478-10.091-7.36-16.009-12.436-27.963-10.523-26.048-16.538-35.527c-6.014-9.48-12.595-14.344-19.176-19.208-66.242 95.487-229.92 95.733-334.83 105.182-13.454 1.214-15.882 1.416-17.4 2.326-6.345 3.808 28.099 56.545 80.02 92.464" style="fill:url(#S);stroke-width:.47;stroke-linecap:round;stroke-linejoin:round"/><path d="M849.96 1101.164c-6.345 3.808 28.099 56.545 80.02 92.463 14.77 10.218 25.494 14.668 36.217 19.12-48.551-28.881-86.496-63.184-116.236-111.583" style="fill:#f5cd4e;fill-opacity:1;stroke-width:.47;stroke-linecap:round;stroke-linejoin:round"/><path d="M1201.617 999.94c-.493.01-1.01.049-1.56.119-67.655 92.284-225.33 90.242-329.052 99.583-.426.038-4.485-.73-4.89-.693 13.519 18.195 33.037 31.645 50.278 46.322 17.703 15.074 36.924 31.461 49.57 41.881 12.645 10.42 18.716 14.872 26.91 11.635 15.949-6.3 37.476-39.112 45.523-44.412 4.148-2.731 6.171.102 13.86 3.744 19.602 5.708 38.984 18.601 58.674 23.166 6.879 1.315 11.937-.708 18.816-15.275 6.88-14.568 15.58-41.68 20.639-55.54s6.474-14.466 10.42-11.533c3.945 2.934 10.42 9.41 20.738 16.694.165.116 29.794 21.021 40.85 23.43a461 461 0 0 0-.002-21.562c-.166-7.277-.475-14.085-.803-20.831l-.156-3.193a762 762 0 0 1 2.138 4.976c2.328 2.258 6.131 6.484 8.164 11.647-.015-1.842-2.977-27.597-6.2-37.71.146.049.493.203 1.001.446l-1.158-3.639c2.023.658 4.048 1.316 6.375 3.188 2 1.61 4.224 4.117 6.53 6.556 4.599 2.496 9.049 5.033 10.66 6.266a69 69 0 0 0 2.827 2.08c.455-.167.815-.448 1.05-.842q.08-.134.14-.287c-.41-1.56-1.208-3.68-2.463-6.61-2.656-6.196-7.36-16.008-12.436-27.962s-10.522-26.048-16.537-35.527c-4.264-6.721-8.813-11.122-13.445-14.848q-1.23-.459-2.435-.766c-1.283-.328-2.546-.537-4.026-.504" style="fill:#f5c942;fill-opacity:1;stroke:none;stroke-width:5;stroke-linecap:round;stroke-linejoin:round;stroke-dasharray:none"/><path d="M1202.19 993.654c-66.243 95.487-229.918 95.734-334.829 105.182l-.898.082c-.176.016-.174.018-.346.033 4.938 4.577 13.336 11.808 50.12 43.127 17.703 15.073 36.924 31.46 49.57 41.88 12.645 10.42 18.715 14.873 26.91 11.636 15.948-6.301 37.475-39.113 45.523-44.413 4.148-2.731 6.171.103 13.86 3.745 19.602 5.707 38.983 18.6 58.673 23.166 6.88 1.315 11.938-.708 18.817-15.276s15.58-41.68 20.639-55.539 6.474-14.467 10.42-11.533 10.419 9.41 20.738 16.693c.165.117 29.935 21.118 40.922 23.436.019-1.083.174-1.833.185-2.895.152-14.82-.455-27.162-1.062-39.504.086.07 7.101 5.699 10.146 13.43-.015-1.842-2.977-27.596-6.201-37.709.01 0 .014.01.021.01 1.992.647 3.986 1.299 6.27 3.113 6.103 3.175 14.73 7.868 17.117 9.696 1.668 1.277 3.134 2.36 4.351 3.043 0-.657-.154-1.49-.464-2.561-.439-1.51-1.2-3.494-2.333-6.139-2.655-6.196-7.36-16.009-12.435-27.963-3.26-7.678-6.676-16.241-10.295-23.896-2.015-4.261-4.092-8.24-6.242-11.629-6.015-9.48-12.597-14.345-19.178-19.209z" style="fill:url(#T);fill-opacity:1;stroke:none;stroke-width:5;stroke-linecap:round;stroke-linejoin:round;stroke-dasharray:none"/><path d="M1058.115 2676.559c-63.34 14.58-132.73 17.218-187.158 21.959.965.814 2.075 1.664 3.262 2.572 8.25 6.305 20.27 15.38 30.17 22.215s17.679 11.43 22.629 14.082c4.95 2.651 7.07 3.358 6.246-2.653-.825-6.01-4.597-18.737-6.188-25.455-1.59-6.717-1.003-7.424 2.945-5.95 3.949 1.472 11.257 5.126 22.924 12.138s27.694 17.382 37.77 23.982 14.201 9.429 16.205 9.606 1.886-2.298-1.178-12.198-9.075-27.225-10.902-35.474c-1.827-8.25.531-7.423 9.135-3.063s23.45 12.256 32.466 17.854 12.198 8.897 12.787 4.654-1.415-16.026-3.654-24.217-4.713-12.786-4.654-14.613 2.653-.885 7.072 1.295 10.665 5.598 15.32 8.72c4.656 3.124 7.719 5.954 8.19 4.952s-1.65-5.834-4.773-10.783c-1.953-3.094-4.296-6.236-8.614-9.623" style="fill:url(#U);fill-opacity:1;stroke:none;stroke-width:5;stroke-linecap:round;stroke-linejoin:round;stroke-dasharray:none" transform="translate(0 -1600)"/><path d="M1202.19 993.654c-7.892 11.376-17.168 21.4-27.561 30.248a66 66 0 0 0-1.098 11.977 65.88 65.88 0 0 0 48.186 63.46q-.141-2.939-.285-5.864c.06.049 3.618 2.903 6.765 7.324a66 66 0 0 0 2.809.424c-1.016-8.608-3.252-24.57-5.629-32.028.01 0 .014.01.021.01 1.992.648 3.986 1.3 6.27 3.114 6.103 3.174 14.73 7.867 17.117 9.695 1.668 1.277 3.134 2.36 4.351 3.043 0-.657-.154-1.49-.465-2.56-.438-1.51-1.198-3.495-2.332-6.14-2.655-6.196-7.36-16.008-12.435-27.962-3.26-7.68-6.676-16.242-10.295-23.897-2.015-4.26-4.092-8.24-6.242-11.629-6.015-9.48-12.597-14.344-19.178-19.209z" style="mix-blend-mode:multiply;fill:url(#V);fill-opacity:1;stroke:none;stroke-width:6.08961;stroke-linecap:round;stroke-linejoin:round;stroke-dasharray:none"/><path d="M1114.049 1174.352a34.01 34.01 0 0 0-32.764 24.89c10.734 6.365 20.196 12.065 26.541 16.135 10.724 6.88 12.544 9.104 15.377 3.844s6.676-18.007 12.24-32.676q.655-1.725 1.338-3.479a34 34 0 0 0-22.732-8.714" style="mix-blend-mode:overlay;fill:url(#W);fill-opacity:.580688;stroke:none;stroke-width:5;stroke-linecap:round;stroke-linejoin:round;stroke-dasharray:none"/><path d="M1210.81 1141.43a23.033 23.033 0 0 0-22.89 20.474c8.71 6.49 17.454 12.416 22.89 15.739 5.463 3.338 7.587 4.047 9.104-4.249 1.135-6.206 1.932-17.454 2.324-28.931a23.03 23.03 0 0 0-11.428-3.033" style="mix-blend-mode:overlay;fill:url(#X);stroke:none;stroke-width:5;stroke-linecap:round;stroke-linejoin:round;stroke-dasharray:none"/><path d="M1023.754 1188.107a38.54 38.54 0 0 0-37.416 29.313c11.472 6.366 27.531 14.199 43.592 22.033 5.058-13.96 10.116-27.92 14.77-36.924a67 67 0 0 1 3.353-5.797 38.54 38.54 0 0 0-24.3-8.625" style="fill:url(#Y);fill-opacity:.529412;stroke:none;stroke-width:5;stroke-linecap:round;stroke-linejoin:round;stroke-dasharray:none"/><circle cx="800" cy="914.352" r="306.162" style="mix-blend-mode:overlay;fill:url(#Z);stroke:none;stroke-width:5.88774;stroke-linecap:round;stroke-linejoin:round;stroke-dasharray:none"/><path d="m1202.19 993.655-2.29 3.21c-67.136 91.577-229.908 95.757-333.7 104.896-1.495-1.327-15.238.331-16.24-.598 122.515-20.924 256.518-5.526 349.94-107.919.55-.07 2.29.41 2.29.41-.833-.606-.802-.54 0 0" style="fill:#e1932f;fill-opacity:1;stroke:none;stroke-width:5;stroke-linecap:round;stroke-linejoin:round;stroke-dasharray:none" transform="matrix(-1 0 0 1 1600 0)"/><path d="M1221.416 1020.336a72.46 72.46 0 0 0-14.61 43.633 72.46 72.46 0 0 0 22.506 52.488l.03-.187.699-4.397 9.015 8.703c9.292 8.97 15.427 12.529 17.694 10.262.793-.794-.832-7.863-4.381-19.05-3.104-9.784-6.429-20.398-7.389-23.587l-1.746-5.797 4.473.838c2.476.465 4.834.253 5.285-.476 1.704-2.757-25.53-40.998-18.287-38.135 1.291.51 4.298 1.256 6.681 1.656 6.59 1.107 5.561-2.555-2.1-7.47-2.622-1.684-10.06-9.687-17.87-18.481" style="mix-blend-mode:multiply;fill:url(#aa);fill-opacity:.456849;stroke:none;stroke-width:5;stroke-linecap:round;stroke-linejoin:round;stroke-dasharray:none" transform="matrix(-1 0 0 1 1600 0)"/><path d="M1202.19 1003.506c-66.243 95.487-229.918 95.733-334.829 105.182-13.454 1.213-15.883-8.434-17.4-7.524-6.346 3.808 28.098 66.396 80.02 102.314 14.77 10.218 25.493 14.668 36.216 19.12q-2.73-6.07-5.463-12.139c6.475 4.856 12.95 9.711 24.483 16.186s28.122 14.567 44.713 22.66c5.058-13.96 10.116-27.92 14.77-36.924 4.653-9.004 8.903-13.05 13.152-17.096 19.625 11.533 39.25 23.064 49.974 29.943s12.545 9.105 15.377 3.844c2.833-5.26 6.676-18.007 12.24-32.675 5.565-14.67 12.848-31.26 17.4-41.477 4.553-10.218 6.373-14.062 8.194-17.906.202 4.653.406 9.308 4.857 15.176 4.452 5.867 13.15 12.947 21.9 19.472 8.752 6.525 17.554 12.494 23.017 15.832 5.462 3.339 7.586 4.048 9.103-4.248 1.518-8.295 2.428-25.595 2.58-40.416s-.455-27.162-1.062-39.504c1.618 3.743 3.238 7.486 5.21 12.444.732 1.837 1.51 3.842 2.303 5.923.054-2.142.193-4.142.397-5.423l.699-4.397 5.973 5.766c-1.512-6.54-2.766-12.129-4.414-18.157-1.77-6.474-3.997-13.455-6.223-20.435 2.023.657 4.048 1.316 6.375 3.187 2.327 1.872 4.956 4.957 7.662 7.739s5.488 5.26 7.967 6.474q.09.045.181.088a1008 1008 0 0 1-2.582-8.334l-1.746-5.797 4.473.838c.483.091.961.155 1.422.196-2.749-6.178-6.849-14.89-11.225-25.196-5.076-11.954-10.522-26.048-16.537-35.527s-12.596-14.345-19.178-19.209" style="mix-blend-mode:multiply;fill:#b97127;fill-opacity:.224482;stroke-width:.47;stroke-linecap:round;stroke-linejoin:round" transform="matrix(-1 0 0 1 1600 0)"/><path d="M929.98 1193.627c14.77 10.217 25.494 14.668 36.217 19.12q-2.73-6.07-5.463-12.14c6.475 4.856 12.95 9.712 24.482 16.186s28.123 14.568 44.714 22.66c5.058-13.96 10.116-27.92 14.77-36.924s8.902-13.05 13.151-17.097c19.626 11.533 39.251 23.066 49.975 29.945 10.723 6.879 12.544 9.105 15.377 3.844 2.832-5.26 6.677-18.007 12.24-32.676 5.565-14.669 12.848-31.26 17.4-41.477 4.553-10.217 6.374-14.061 8.195-17.906.202 4.654.405 9.307 4.856 15.175s13.15 12.949 21.902 19.474c8.75 6.525 17.551 12.493 23.014 15.832 5.463 3.338 7.587 4.046 9.105-4.25 1.517-8.295 2.428-25.593 2.58-40.414.151-14.82-.456-27.162-1.063-39.504 1.619 3.743 3.238 7.486 5.21 12.443a462 462 0 0 1 6.272 16.743c1.973 5.614 3.592 10.672 5.059 12.342 1.466 1.669 2.782-.05 2.427-5.11-.354-5.058-2.377-13.454-4.046-20.637s-2.984-13.15-4.755-19.625-3.996-13.455-6.221-20.435c2.023.657 4.046 1.315 6.373 3.186 2.327 1.872 4.957 4.957 7.663 7.74 2.706 2.781 5.488 5.26 7.967 6.474s4.653 1.163 5.437-.152.177-3.895-2.478-10.091-7.36-16.009-12.436-27.963-10.523-26.048-16.538-35.527c-6.014-9.48-12.595-14.344-19.176-19.208-66.242 95.487-229.92 95.733-334.83 105.182-13.454 1.214-15.882 1.416-17.4 2.326-6.345 3.808 28.099 56.545 80.02 92.464" style="fill:url(#ab);stroke-width:.47;stroke-linecap:round;stroke-linejoin:round" transform="matrix(-1 0 0 1 1600 0)"/><path d="M849.96 1101.164c-6.345 3.808 28.099 56.545 80.02 92.463 14.77 10.218 25.494 14.668 36.217 19.12-48.551-28.881-86.496-63.184-116.236-111.583" style="fill:#f5cd4e;fill-opacity:1;stroke-width:.47;stroke-linecap:round;stroke-linejoin:round" transform="matrix(-1 0 0 1 1600 0)"/><path d="M1201.617 999.94c-.493.01-1.01.049-1.56.119-67.655 92.284-225.33 90.242-329.052 99.583-.426.038-4.485-.73-4.89-.693 13.519 18.195 33.037 31.645 50.278 46.322 17.703 15.074 36.924 31.461 49.57 41.881 12.645 10.42 18.716 14.872 26.91 11.635 15.949-6.3 37.476-39.112 45.523-44.412 4.148-2.731 6.171.102 13.86 3.744 19.602 5.708 38.984 18.601 58.674 23.166 6.879 1.315 11.937-.708 18.816-15.275 6.88-14.568 15.58-41.68 20.639-55.54s6.474-14.466 10.42-11.533c3.945 2.934 10.42 9.41 20.738 16.694.165.116 29.794 21.021 40.85 23.43a461 461 0 0 0-.002-21.562c-.166-7.277-.475-14.085-.803-20.831l-.156-3.193a762 762 0 0 1 2.138 4.976c2.328 2.258 6.131 6.484 8.164 11.647-.015-1.842-2.977-27.597-6.2-37.71.146.049.493.203 1.001.446l-1.158-3.639c2.023.658 4.048 1.316 6.375 3.188 2 1.61 4.224 4.117 6.53 6.556 4.599 2.496 9.049 5.033 10.66 6.266a69 69 0 0 0 2.827 2.08c.455-.167.815-.448 1.05-.842q.08-.134.14-.287c-.41-1.56-1.208-3.68-2.463-6.61-2.656-6.196-7.36-16.008-12.436-27.962s-10.522-26.048-16.537-35.527c-4.264-6.721-8.813-11.122-13.445-14.848q-1.23-.459-2.435-.766c-1.283-.328-2.546-.537-4.026-.504" style="fill:#f5c942;fill-opacity:1;stroke:none;stroke-width:5;stroke-linecap:round;stroke-linejoin:round;stroke-dasharray:none" transform="matrix(-1 0 0 1 1600 0)"/><path d="M1202.19 993.654c-66.243 95.487-229.918 95.734-334.829 105.182l-.898.082c-.176.016-.174.018-.346.033 4.938 4.577 13.336 11.808 50.12 43.127 17.703 15.073 36.924 31.46 49.57 41.88 12.645 10.42 18.715 14.873 26.91 11.636 15.948-6.301 37.475-39.113 45.523-44.413 4.148-2.731 6.171.103 13.86 3.745 19.602 5.707 38.983 18.6 58.673 23.166 6.88 1.315 11.938-.708 18.817-15.276s15.58-41.68 20.639-55.539 6.474-14.467 10.42-11.533 10.419 9.41 20.738 16.693c.165.117 29.935 21.118 40.922 23.436.019-1.083.174-1.833.185-2.895.152-14.82-.455-27.162-1.062-39.504.086.07 7.101 5.699 10.146 13.43-.015-1.842-2.977-27.596-6.201-37.709.01 0 .014.01.021.01 1.992.647 3.986 1.299 6.27 3.113 6.103 3.175 14.73 7.868 17.117 9.696 1.668 1.277 3.134 2.36 4.351 3.043 0-.657-.154-1.49-.464-2.561-.439-1.51-1.2-3.494-2.333-6.139-2.655-6.196-7.36-16.009-12.435-27.963-3.26-7.678-6.676-16.241-10.295-23.896-2.015-4.261-4.092-8.24-6.242-11.629-6.015-9.48-12.597-14.345-19.178-19.209z" style="fill:url(#ac);fill-opacity:1;stroke:none;stroke-width:5;stroke-linecap:round;stroke-linejoin:round;stroke-dasharray:none" transform="matrix(-1 0 0 1 1600 0)"/><path d="M1058.115 2676.559c-63.34 14.58-132.73 17.218-187.158 21.959.965.814 2.075 1.664 3.262 2.572 8.25 6.305 20.27 15.38 30.17 22.215s17.679 11.43 22.629 14.082c4.95 2.651 7.07 3.358 6.246-2.653-.825-6.01-4.597-18.737-6.188-25.455-1.59-6.717-1.003-7.424 2.945-5.95 3.949 1.472 11.257 5.126 22.924 12.138s27.694 17.382 37.77 23.982 14.201 9.429 16.205 9.606 1.886-2.298-1.178-12.198-9.075-27.225-10.902-35.474c-1.827-8.25.531-7.423 9.135-3.063s23.45 12.256 32.466 17.854 12.198 8.897 12.787 4.654-1.415-16.026-3.654-24.217-4.713-12.786-4.654-14.613 2.653-.885 7.072 1.295 10.665 5.598 15.32 8.72c4.656 3.124 7.719 5.954 8.19 4.952s-1.65-5.834-4.773-10.783c-1.953-3.094-4.296-6.236-8.614-9.623" style="fill:url(#ad);fill-opacity:1;stroke:none;stroke-width:5;stroke-linecap:round;stroke-linejoin:round;stroke-dasharray:none" transform="matrix(-1 0 0 1 1600 -1600)"/><path d="M1202.19 993.654c-7.892 11.376-17.168 21.4-27.561 30.248a66 66 0 0 0-1.098 11.977 65.88 65.88 0 0 0 48.186 63.46q-.141-2.939-.285-5.864c.06.049 3.618 2.903 6.765 7.324a66 66 0 0 0 2.809.424c-1.016-8.608-3.252-24.57-5.629-32.028.01 0 .014.01.021.01 1.992.648 3.986 1.3 6.27 3.114 6.103 3.174 14.73 7.867 17.117 9.695 1.668 1.277 3.134 2.36 4.351 3.043 0-.657-.154-1.49-.465-2.56-.438-1.51-1.198-3.495-2.332-6.14-2.655-6.196-7.36-16.008-12.435-27.962-3.26-7.68-6.676-16.242-10.295-23.897-2.015-4.26-4.092-8.24-6.242-11.629-6.015-9.48-12.597-14.344-19.178-19.209z" style="mix-blend-mode:multiply;fill:url(#ae);fill-opacity:1;stroke:none;stroke-width:6.08961;stroke-linecap:round;stroke-linejoin:round;stroke-dasharray:none" transform="matrix(-1 0 0 1 1600 0)"/><path d="M1114.049 1174.352a34.01 34.01 0 0 0-32.764 24.89c10.734 6.365 20.196 12.065 26.541 16.135 10.724 6.88 12.544 9.104 15.377 3.844s6.676-18.007 12.24-32.676q.655-1.725 1.338-3.479a34 34 0 0 0-22.732-8.714" style="mix-blend-mode:overlay;fill:url(#af);fill-opacity:.580688;stroke:none;stroke-width:5;stroke-linecap:round;stroke-linejoin:round;stroke-dasharray:none" transform="matrix(-1 0 0 1 1600 0)"/><path d="M1210.81 1141.43a23.033 23.033 0 0 0-22.89 20.474c8.71 6.49 17.454 12.416 22.89 15.739 5.463 3.338 7.587 4.047 9.104-4.249 1.135-6.206 1.932-17.454 2.324-28.931a23.03 23.03 0 0 0-11.428-3.033" style="mix-blend-mode:overlay;fill:url(#ag);stroke:none;stroke-width:5;stroke-linecap:round;stroke-linejoin:round;stroke-dasharray:none" transform="matrix(-1 0 0 1 1600 0)"/><path d="M1023.754 1188.107a38.54 38.54 0 0 0-37.416 29.313c11.472 6.366 27.531 14.199 43.592 22.033 5.058-13.96 10.116-27.92 14.77-36.924a67 67 0 0 1 3.353-5.797 38.54 38.54 0 0 0-24.3-8.625" style="fill:url(#ah);fill-opacity:.529412;stroke:none;stroke-width:5;stroke-linecap:round;stroke-linejoin:round;stroke-dasharray:none" transform="matrix(-1 0 0 1 1600 0)"/><path d="M541.027 367.58c27.813-.733 71.921 34.684 92.653 45.992 1.853 1.19 3.779 2.41 5.75 3.645a104.545 104.545 0 0 1-96.805 65.068 278 278 0 0 1-5.475-15.006c-18.003-54.117-21.56-75.587-14.783-89.258 4.362-7.196 10.873-10.236 18.66-10.44" style="mix-blend-mode:overlay;fill:url(#ai);fill-opacity:.553794;stroke-width:.47;stroke-linecap:round;stroke-linejoin:round"/><path d="M1016.556 856.243c-34.005-3.706-66.18 39.717-60.953 57.368 1.988 6.714 6.59 3.497 13.184-9.217 14.184-27.35 35.49-38.395 55.527-28.78 20.876 10.02 20.79 35.526 28.933 35.684 11.186.217-1.172-51.185-36.69-55.055m-433.113 0c34.005-3.706 66.18 39.717 60.953 57.368-1.988 6.714-6.59 3.497-13.184-9.217-14.184-27.35-35.49-38.395-55.527-28.78-20.876 10.02-20.79 35.526-28.933 35.684-11.186.217 1.172-51.185 36.69-55.055" style="fill:#292929;fill-opacity:1;stroke-width:1.62674"/></g></svg>