<svg xmlns="http://www.w3.org/2000/svg" xmlns:xlink="http://www.w3.org/1999/xlink" xml:space="preserve" width="2000" height="3600"><defs><linearGradient id="c"><stop offset="0" style="stop-color:#fffffd;stop-opacity:1"/><stop offset="1" style="stop-color:#ffff62;stop-opacity:0"/></linearGradient><linearGradient id="b"><stop offset="0" style="stop-color:#d0d0d0;stop-opacity:1"/><stop offset=".5" style="stop-color:#f4f4f4;stop-opacity:1"/><stop offset="1" style="stop-color:#909090;stop-opacity:1"/></linearGradient><linearGradient id="a"><stop offset="0" style="stop-color:#f4f4f4;stop-opacity:1"/><stop offset="1" style="stop-color:#b8b8b8;stop-opacity:1"/></linearGradient><linearGradient xlink:href="#a" id="h" x1="361.72" x2="364.478" y1="127.972" y2="201.183" gradientUnits="userSpaceOnUse"/><linearGradient xlink:href="#b" id="i" x1="568.752" x2="567.751" y1="121.308" y2="181.721" gradientTransform="matrix(.71826 0 0 1 -252.201 0)" gradientUnits="userSpaceOnUse"/><linearGradient xlink:href="#b" id="j" x1="568.752" x2="567.751" y1="121.308" y2="181.721" gradientTransform="matrix(.71826 0 0 1 152.892 0)" gradientUnits="userSpaceOnUse"/><radialGradient xlink:href="#c" id="g" cx="1041.094" cy="1733.732" r="566.509" fx="1041.094" fy="1733.732" gradientTransform="translate(799.235 554.994)scale(.19893)" gradientUnits="userSpaceOnUse"/><radialGradient xlink:href="#c" id="k" cx="1041.094" cy="1733.732" r="566.509" fx="1041.094" fy="1733.732" gradientTransform="translate(487.083 706.157)scale(.19893)" gradientUnits="userSpaceOnUse"/><radialGradient xlink:href="#c" id="l" cx="1041.094" cy="1733.732" r="566.509" fx="1041.094" fy="1733.732" gradientTransform="translate(365.541 952.266)scale(.19893)" gradientUnits="userSpaceOnUse"/><radialGradient xlink:href="#c" id="m" cx="1041.094" cy="1733.732" r="566.509" fx="1041.094" fy="1733.732" gradientTransform="translate(487.083 706.157)scale(.19893)" gradientUnits="userSpaceOnUse"/><radialGradient xlink:href="#c" id="n" cx="1041.094" cy="1733.732" r="566.509" fx="1041.094" fy="1733.732" gradientTransform="translate(365.541 952.266)scale(.19893)" gradientUnits="userSpaceOnUse"/></defs><rect width="2000" height="3600" ry="3.006" style="fill:#3fc6f2;fill-opacity:1;fill-rule:evenodd;stroke:none;stroke-width:11.339;stroke-linecap:butt;stroke-miterlimit:7;stroke-dasharray:none;stroke-opacity:1;paint-order:stroke markers fill"/><circle cx="1006.343" cy="899.89" r="112.697" style="font-variation-settings:normal;opacity:1;vector-effect:none;fill:url(#g);fill-rule:evenodd;stroke-width:5.26311;stroke-linecap:butt;stroke-linejoin:miter;stroke-miterlimit:4;stroke-dasharray:none;stroke-dashoffset:0;stroke-opacity:1;-inkscape-stroke:none;stop-color:#000;stop-opacity:1"/><path d="m1052.947 1321.832-391.533 180.893 140.135 73.502c-1.1 8.493-2.073 15.825-2.934 22.142-49.933-8.254-98.88-1.207-146.215 17.822-70.173 23.026-90.775 28.747-133.568 37.1-32.745 6.392-99.959 7.2-123.74 1.484-67.06-16.102-121.205-7.215-150.66 24.74-17.413 18.89-23.605 34.389-25.77 64.487-3.38 47.045 15.043 93.124 51.695 129.303 35.878 35.416 76.327 49.705 140.723 49.705 56.961 0 113.336-14.063 189.975-47.377l33.634-14.621 2.104 13.595c3.52 22.761 17.42 46.713 38.347 66.086 20.802 19.261 44.64 32.043 87.86 47.12 14.586 5.085 27.068 9.666 27.736 10.175.67.515-3.433 10.879-9.119 23.031-9.227 19.718-11.14 21.847-17.791 19.795-4.099-1.262-22.544-3.11-40.984-4.11-156.82-8.501-186.373 187.29-79.573 234.532 29.447 13.027 71.795 14.88 106.797 4.67 6-1.749 7.545.068 11.221 13.196 6.07 21.67 20.437 42.737 33.55 49.203 35.36 17.416 71.29-14.081 76.23-20.389l8.09-10.34 24.792 5.326c32.29 6.932 118.027 7.194 151.629.465 23.912-4.791 24.142-4.771 34.807 3.317 16.56 12.568 42.684 23.934 55.091 23.968 25.405-.887 40.848-31.096 43.1-53.004 2.074-13.672 5.43-29.338 7.463-34.81 2.028-5.469 6.441-17.402 9.803-26.516 3.358-9.117 6.155-24.544 6.215-34.287.148-24.062-10.541-74.497-24.641-116.29-6.416-19.002-11.299-34.788-10.857-35.075.44-.287 14.685-2.3 31.658-4.479 68.185-8.758 105.2-34.888 118.97-83.982l5.293-18.86 18.573 15.954c37.124 31.885 77.152 55.03 126.922 73.377 65.86 24.286 168.51 35.785 224.431 25.144 82.954-15.782 127.637-69.454 121.858-146.363-2.776-36.935-21.472-75.33-46.278-95.055-35.86-28.504-62.251-34.661-168.031-39.217-243.438-10.482-218.265-81.675-360.51-106.707l.346-3.877 170.52-99.86z" style="baseline-shift:baseline;display:inline;overflow:visible;vector-effect:none;fill:#0fa8da;fill-opacity:1;fill-rule:evenodd;stroke-width:1.70993;stroke-linecap:round;stroke-miterlimit:7;paint-order:stroke markers fill;stop-color:#000"/><text xml:space="preserve" x="1016.507" y="2633.687" style="font-size:211.793px;line-height:.8;font-family:&quot;Magic Bubble&quot;;-inkscape-font-specification:&quot;Magic Bubble&quot;;text-align:center;text-decoration-color:#000;text-anchor:middle;fill:#0fa8da;fill-opacity:1;stroke-width:6.2287;stroke-linecap:round;stroke-linejoin:bevel;stroke-miterlimit:7;stroke-dashoffset:3.3;-inkscape-stroke:none;stop-color:#000"><tspan x="1016.507" y="2633.687" style="fill:#0fa8da;fill-opacity:1;stroke-width:6.2287">You&apos;re A</tspan><tspan x="1016.507" y="2803.121" style="fill:#0fa8da;fill-opacity:1;stroke-width:6.2287">Graduate And</tspan><tspan x="1016.507" y="2974.624" style="fill:#0fa8da;fill-opacity:1;stroke-width:6.2287">A Very Good Boy!</tspan></text><text xml:space="preserve" x="996.805" y="421.076" style="font-size:260.846px;line-height:.8;font-family:&quot;Magic Bubble&quot;;-inkscape-font-specification:&quot;Magic Bubble&quot;;text-align:center;text-decoration-color:#000;text-anchor:middle;fill:#0fa8da;fill-opacity:1;stroke-width:7.67133;stroke-linecap:round;stroke-linejoin:bevel;stroke-miterlimit:7;stroke-dashoffset:3.3;-inkscape-stroke:none;stop-color:#000"><tspan x="996.805" y="421.076" style="fill:#0fa8da;fill-opacity:1;stroke-width:7.67133">Congratulations,</tspan><tspan x="996.805" y="632.301" style="fill:#0fa8da;fill-opacity:1;stroke-width:7.67133">Anthony!</tspan></text><path d="m698.68 1504.2 330.735-152.8 319.601 204.37-260.813 152.738z" style="fill:#443f42;fill-opacity:1;fill-rule:evenodd;stroke:#272426;stroke-width:51.9914;stroke-linecap:round;stroke-miterlimit:7;stroke-dasharray:none;stroke-opacity:1;paint-order:stroke markers fill"/><path fill="#fff" d="M678.403 2050.135c-5.625.285-10.909.872-15.546 1.805-36.603 7.36-64.032 29.668-79.625 64.615-7.534 16.879-8.221 20.437-8.204 48.229.014 22.076.3 26.134 2.2 33.64 9.292 36.655 40.702 62.807 81.766 68.86l9.196 1.356c8.016 1.176 18.775.64 29.129-.773 10.352-1.41 19.823-3.437 26.025-6.902 4.829-2.694 8.8-6.9 9.692-12.397.89-5.495-.53-11.237-3.133-19.176 0 0-5.8-95.967 7.038-136.98 4.061-12.97 6.082-19.246 6.901-23.386.41-2.072.73-3.928-.174-6.241-.905-2.314-2.803-3.464-3.425-3.873-1.585-1.036-2.782-1.421-4.525-2.064a77 77 0 0 0-5.745-1.847c-9.746-2.698-21.897-4.312-33.944-4.866a183 183 0 0 0-17.622 0" style="stroke-width:1.70993"/><path fill="#fff" d="M871.95 1980.994c-13.44 1.513-27.239 9.25-50.641 26.475a428 428 0 0 1-13.647 9.626c.44-.91 1.009-1.867 1.378-2.725 1-2.353 1.963-3.468 1.963-7.3 0-2.843-1.385-6.583-4.343-8.498s-6.053-1.748-8.4-1.161c-4.693 1.176-8.34 4.143-11.519 8.373-8.953 11.913-20.579 37.995-31.685 66.42-11.106 28.427-21.022 58.155-24.165 76.197-1.445 8.32-1.963 24.053-1.578 38.121l.667 24.392a7 7 0 0 0 .643 2.73l8.447 18.376c9.447 20.546 9.613 21.015 12.09 40.56 3.062 24.166 13.892 44.53 30.9 53.679 9.587 5.159 20.821 4.124 32.486-1.823 4.708-2.407 9.434-6.18 13.502-10.025 2.035-1.922 3.845-3.836 5.336-5.74 1.486-1.91 3.345-2.865 3.335-7.832-.005-2.625-.912-3.685-1.452-4.463a11 11 0 0 0-1.474-1.725 25 25 0 0 0-3.008-2.44 70 70 0 0 0-8.014-4.829c-1.977-1.034-2.334-1.635-3.71-2.56 3.785.89 7.343 1.645 14.033 4.036 26.7 9.546 53.886 14.088 97.623 16.53 29.105 1.624 45.125 1.624 65.336-.02 32.4-2.641 51.295-7.08 81.677-19.226 4.565-1.823 8.323-3.252 12.065-4.678-.867 1.077-1.358 1.913-2.439 3.095l-9.11 9.969a7.004 7.004 0 0 0 .313 9.77l5.896 5.69c9.322 9.005 22.737 15.113 34.992 15.176 13.29.07 24.431-9.79 30.498-23.938 5.976-13.943 7.014-24.034 3.83-37.814-1.505-6.521-1.756-9.312-1.234-11.47.523-2.161 2.317-5.198 6.874-11.171 16.227-21.254 19.582-55.624 11.689-94.073-3.523-17.142-10.217-40.714-16.939-61.332-3.362-10.311-6.73-19.847-9.73-27.479-3.007-7.63-5.039-12.814-8.188-16.812-3.06-3.895-5.557-7.207-11.665-7.327-3.05-.067-7.187 2.646-8.32 5.604-.387 1.02.033 1.723-.05 2.618a198 198 0 0 1-4.843-4.044 534 534 0 0 1-16.522-14.962c-15.059-14.182-25.276-22.799-34.54-27.041-4.634-2.122-9.362-3.14-13.96-2.288-4.6.855-8.447 3.538-11.44 6.77a31.3 31.3 0 0 0-7.595 14.78c-1.438 6.753-1.624 16.327-1.22 27.501.408 11.178 1.545 23.635 3.328 34.74.435 2.702.188 2.53.448 4.698-.364-.783-.696-1.257-1.053-2.086-3.21-7.389-6.193-16.564-7.592-24.026-2.154-11.524-2.897-17.51-6.07-22.85-1.59-2.668-4.537-5.055-7.382-5.934-2.844-.885-5.181-.819-7.633-.819-1.052 0-7.815-.487-16.135-1.313s-18.751-1.971-29.25-3.232a4189 4189 0 0 0-27.836-3.248 1161 1161 0 0 0-9.056-.994 239 239 0 0 0-2.778-.275c-.719-.067-.825-.123-1.902-.123-2.89 0-4.365 1.277-5.258 2.072a10.6 10.6 0 0 0-1.853 2.14c-.924 1.352-1.618 2.727-2.364 4.361-1.484 3.268-3.016 7.481-4.524 12.431-4.916 16.123-10.721 26.88-15.44 33.185.712-2.606 1.136-4.566 2.205-7.956 5.044-15.978 8.064-31.164 8.905-44.105.838-12.939.007-23.626-5.201-31.568-1.551-2.37-3.941-5.26-7.514-6.447-3.577-1.186-6.455-.762-10.187-.345" style="stroke-width:1.70993"/><path fill="#fff" d="M918.763 1594.465c-44.304 1.265-72.224 7.78-110.81 23.036-8.824 3.488-9.836 3.37-15.508 5.224.043-2.685-.675-6.737-3.898-9.959-4.549-4.548-5.525-3.281-6.927-3.613s-2.692-.53-4.178-.722c-2.963-.388-6.58-.69-10.873-.949-8.594-.513-19.789-.827-31.779-.827h-42.871c-1.278 0-2.543.215-3.75.63l-71.658 24.636c-101.754 34.978-170.753 44.949-235.192 35.063-19.24-2.95-50.781-5.213-72.183-5.213-17.9 0-27.788-.034-36.681 1.833-8.894 1.867-15.448 5.997-23.218 11.453-26.705 18.763-39.203 45.04-39.203 80.924 0 23.946 2.645 35.72 12.82 57.194 20.433 43.134 53.32 72.878 96.159 86.927 42.838 14.05 94.998 12.876 155.557-2.486 42.835-10.867 79.409-24.166 114.755-41.774l24.571-12.236a11.54 11.54 0 0 0 5.243-5.31l14.885-30.862c-3.117 12.6-4.954 25.75-4.993 42.219-.034 15.02.25 25.212 1.459 33.692 1.208 8.48 3.642 15.384 7.074 21.554l7.157 12.851a11.535 11.535 0 0 0 14.001 3.745c-.099.698-.33 1.46-.304 2.044.048 1.675.46 3.32 1.207 4.822 1.958 4.167 3.242 4.674 4.993 6.384a180 180 0 0 0 6.638 6.06c19.823 17.443 58.579 32.54 108.772 45.69l38.99 10.216c2.722.712 5.61.404 8.122-.865l19.873-10.068c15.03-7.609 28.328-9.685 36.748-8.197 8.42 1.487 11.99 4.538 13.674 12.209.744 3.387 1.472 7.07 4.011 11.131 2.546 4.058 6.975 7.332 11.436 9.123 8.924 3.58 19.579 4.574 40.276 7.108 22.008 2.698 36.885 4.03 47.48 3.779 5.294-.134 9.497-.441 14.042-2.27 2.274-.912 4.8-2.342 6.928-4.927 2.129-2.586 3.369-6.342 3.369-9.434 0 4.275-.073 1.036 1.251-1.267 1.325-2.303 3.396-5.287 5.55-7.849 6.252-7.426 5.821-7.198 13.475-7.198 7.399 0 10.834.648 16.114 3.587s12.517 8.95 23.635 19.753l18.955 18.413a11.53 11.53 0 0 0 8.973 3.218l45.35-3.736c32.25-2.65 53.53-6.408 70.659-13.104 4.996-1.956 8.85-3.495 11.887-4.816 3.033-1.327 4.796-1.692 8.13-4.585.833-.723 1.731-1.758 2.97-3.67 6.731-10.379-4.043-4.189 17.73-15.059 4.329-2.164 6.364-1.807 7.381-2.62 1.016-.808 1.466-1.348 1.857-1.808.787-.929 1.194-1.56 1.631-2.24.88-1.368 1.693-2.827 2.622-4.576q3.355-6.407 6.299-13.013c7.07-15.71 8.86-28.862 8.827-62.617-.014-13.47-.76-21.6-1.582-30.112l.034.089c14.982 41.563 19.365 48.487 42.914 70.7 47.712 45.01 131.938 78.61 232.331 95.084 14.165 2.32 40.098 1.606 66.968.051 13.437-.776 26.748-1.853 38.015-3.127 11.272-1.276 19.979-2.48 26.62-4.624 29.038-9.377 56.017-31.449 71.02-58.08 10.686-18.962 12.862-28.429 12.722-58.995-.178-40.707-10.254-68.996-33.877-92.015-13.449-13.105-28.026-22.217-52.74-27.796-24.716-5.578-60.076-8.728-120.364-12.888-114.497-7.907-130.162-12.15-243.038-65.427-29.966-14.141-55.87-25.605-75.778-33.612-9.956-4.005-18.4-7.148-25.261-9.359-6.867-2.207-11.38-3.712-17.202-3.712-3.536 0-8.073 2.038-10.434 4.867-2.353 2.816-3.01 5.535-3.348 7.77-4.74-3.531-9.47-7.015-15.06-11.525-35.037-28.288-72.762-47.624-120.182-61.778-29.427-8.784-44.001-10.55-100.253-11.966-19.626-.496-36.247-.616-51.015-.194" style="stroke-width:1.70993"/><path d="M815.106 1930.846c-6.435.475-12.622 15.448-13.997 34.239-.995 13.596.791 25.58 4.241 31.7l13.666 3.58q.121.033.244.063 3.424-.244 6.84-.464.528-.205 1.038-.464l19.875-10.066c15.03-7.609 28.327-9.686 36.747-8.199s11.992 4.54 13.676 12.21c.332 1.514.66 3.087 1.149 4.726 13.772.21 27.484.737 41.165 1.576q-.488.729-1.055 1.546l.627.892c-.142.206-.265.4-.364.571-1.956 3.396-3.035 8.094-2.578 11.422.248 1.804.775 3.296 1.727 4.793q1.55.195 3.203.397c-.742-3.633-.525-7.854.748-13.292l.781 1.112c.677-3.045 1.243-5.333 1.787-7.13l1.002.067a907 907 0 0 1 31.423 2.688l.948.097c.25 1.79.458 4.015.668 6.9l.395-.414c.2 2.555.155 4.769-.104 7.24-.284 2.71-.514 3.75-1.212 5.508l-.354.885c-.036.09-.116.239-.217.424q1.98.182 3.85.337c.491-.472.992-.985 1.33-1.406.84-1.048 1.582-2.455 2.093-3.9.702-1.982.917-5.252.581-7.595-.34-2.374-.86-4.256-1.693-6.002l.29-.304q-.29-.588-.554-1.132a942 942 0 0 1 41.86 5.547q.044-.53.043-1.042v1.05l.32.05c.186-.67.476-1.576.933-2.369 1.325-2.303 3.396-5.286 5.55-7.848 6.252-7.426 5.822-7.197 13.476-7.197 7.399 0 10.834.648 16.114 3.587s12.517 8.948 23.635 19.75l6.87 6.677c6.538-.036 12.888-15.175 14.284-34.249 1.42-19.397-2.824-35.515-9.478-36.002a4.4 4.4 0 0 0-1.657.2c-36.353 4.358-72.298 6.153-108.59 5.084 4.388-1.017 8.572-2.172 10.4-2.933 3.346-1.393 5.48-4.109 6.208-7.898 1.127-5.868-3.031-9.633-9.378-9.969-2.885-.153-6.22.401-9.718 1.79-5.513 2.189-11.892 6.912-14.421 10.68-1.828 2.723-2.236 3.087-4.586 2.96-1.698-.157-2.351-.42-3.119-1.68-.174-.62-.46-1.23-.895-2.018-1.16-2.104-2.878-4.202-4.923-6.148-2.5-2.313-4.97-4.64-7.881-6.416-3.259-1.883-6.479-2.917-9.355-3.186-6.328-.59-10.992 2.527-10.73 8.496.168 3.856 1.887 6.855 4.996 8.72 1.88 1.13 6.554 3.157 11.228 4.943-3.446-.248-6.9-.525-10.37-.891-37.847-3.998-76.44-11.18-116.596-21.875a4.4 4.4 0 0 0-1.566-.418 4 4 0 0 0-.621 0zm122.91 9.655c.442-.026 1.053-.01 1.847.05 2.883.203 5.728 1.196 9.145 3.19q.32.188.62.374l.011.04.074.014c1.78 1.117 3.048 2.261 5.016 4.475 3.39 3.815 3.466 3.802-4.155.701-4.855-1.975-9.269-4.51-12.18-6.993-1.485-1.267-1.701-1.771-.377-1.85zm51.111 3.8a16 16 0 0 1 2.185.018c3.175.24 3.397.61 1.192 1.994-3.242 2.033-7.977 3.898-13.068 5.146-7.992 1.959-7.918 1.982-4.008-1.299 2.556-2.145 4.037-3.078 6.375-4.018 2.753-1.106 5.105-1.703 7.324-1.84z" style="fill:#c6c6c6;fill-opacity:1;stroke-width:1.70993"/><path d="M560.049 96.744c-131.124 25.82-260.123 27.751-405.095 0 12.294 2.75 11.893 26.267 11.893 52.152 0 25.068-.053 45.41-11.893 49.128 137.179-21.206 267.859-20.306 405.095 0-11.912-3.572-13.898-25.045-13.899-50.239 0-25.763 1.672-48.142 13.899-51.04" style="fill:url(#h);fill-opacity:1;fill-rule:evenodd;stroke:none;stroke-width:5;stroke-linecap:butt;stroke-miterlimit:7;stroke-dasharray:none;stroke-opacity:1;paint-order:stroke markers fill" transform="rotate(4.184 -25113.121 10688.397)scale(.6954)"/><path d="M172.326 147.384c0 27.968-7.778 50.64-17.372 50.64s-17.372-22.672-17.372-50.64c0-27.967 7.778-50.64 17.372-50.64s17.372 22.673 17.372 50.64" style="opacity:1;vector-effect:none;fill:url(#i);fill-rule:evenodd;stroke-width:22.4221;stop-color:#000;stop-opacity:1" transform="rotate(4.184 -25113.121 10688.397)scale(.6954)"/><path d="M577.42 147.384c0 27.968-7.778 50.64-17.372 50.64s-17.372-22.672-17.372-50.64c0-27.967 7.778-50.64 17.372-50.64s17.372 22.673 17.372 50.64" style="opacity:1;vector-effect:none;fill:url(#j);fill-rule:evenodd;stroke-width:22.4221;stop-color:#000;stop-opacity:1" transform="rotate(4.184 -25113.121 10688.397)scale(.6954)"/><path d="M320.708 920.935q-10.56.626-21.19.892c-.512.116-.79.125-.862.02-4.748.113-9.57-.064-14.344-.061-.01.174-.369.151-1.03-.006-6.484-.007-12.93.126-19.472-.085 3.295 1.398 10.28 3.637 15.149 4.816 2.684.65 4.873 1.254 4.865 1.342-.008.09-1.535 1.385-3.395 2.88-3.836 3.085-5.211 4.612-6.208 6.891-.953 2.182-1.264 6.543-.716 10.07 1.353 8.72 1.647 11.712.169 15.308a808 808 0 0 1 3.716-.03 12 12 0 0 1 1.194-2.338c2.09-3.18 2.287-6.205.64-9.738-.945-2.028-.991-2.836-.346-5.921.908-4.337 3.818-9.08 8.54-13.922l2.341-2.4 1.715.094 1.715-.095 2.341 2.4c4.723 4.842 7.633 9.586 8.54 13.923.646 3.085.6 3.893-.346 5.92-1.646 3.534-1.448 6.558.64 9.739.522.794.946 1.629 1.322 2.685q1.888.055 3.776.12c-1.687-3.802-1.426-6.675-.018-15.745.547-3.527.239-7.888-.715-10.07-.996-2.28-2.37-3.806-6.207-6.89-1.86-1.496-3.389-2.792-3.397-2.88-.008-.09 2.181-.693 4.865-1.343 5.465-1.323 13.598-3.981 16.184-5.287q.274-.138.534-.288zm-47.04 24.286.039.457q.01.098.008.206c-.044-.34-.062-.572-.048-.663zm33.542 16.135a.4.4 0 0 1-.023.095v.002h-.002v.002h-.004l-.002-.002-.002-.002a.3.3 0 0 1-.057-.074.3.3 0 0 0 .09-.02z" style="fill:#c9c9c9;fill-opacity:1;fill-rule:evenodd;stroke:none;stroke-width:.236193;stroke-linecap:butt;stroke-miterlimit:7;stroke-dasharray:none;stroke-opacity:1;paint-order:stroke markers fill" transform="rotate(4.184 -12130.918 10248.355)scale(1.11451)"/><path d="M275.607 964.043a.5.5 0 0 0-.312.01c-.22.073-.29.168-.416.287a7 7 0 0 0-.42.441c-.308.35-.67.805-1.04 1.295-.736.98-1.482 2.077-1.823 2.786-1.528 3.166-2.188 7.442-1.56 10.39.459 2.163 1.344 3.783 3.017 5.533.393.412.768.787 1.058 1.063q.219.207.37.336c.05.042.093.078.14.111a1 1 0 0 0 .084.051c.037.02.068.059.229.059.178 0 .353-.152.402-.245.049-.092.05-.143.055-.185a.8.8 0 0 0-.004-.193 4 4 0 0 0-.077-.405c-.074-.318-.194-.74-.343-1.203-1.442-4.49-1.205-10.127.851-18.572.1-.408.158-.682.168-.916.005-.117.024-.229-.082-.41a.55.55 0 0 0-.297-.233" style="fill:red;fill-opacity:1;fill-rule:evenodd;stroke:none;stroke-width:.94477;stroke-linecap:butt;stroke-miterlimit:7;stroke-dasharray:none;stroke-opacity:1;paint-order:stroke markers fill" transform="rotate(4.184 -12083.665 10250.082)scale(1.11451)"/><path d="M307.324 963.41c-.232.007-.604.161-.789.414a1 1 0 0 0-.2.62c0 .188.016.19.026.255.011.065.025.135.041.219.033.168.078.384.133.639.111.51.263 1.172.43 1.875 1.098 4.629 1.447 7.605 1.334 11.23-.076 2.444-.215 3.39-.725 5.008l-.258.816c-.118.375-.99 1.942-.687 2.193l.281.234c.115.095 1.22-.98 1.34-.907.06.036.121.07.203.107s.143.102.455.102c.408 0 .464-.11.543-.158s.127-.086.174-.123a4 4 0 0 0 .268-.239c.182-.177.392-.399.613-.642.442-.487.908-1.034 1.207-1.469.683-.993 1.258-2.3 1.621-3.627.498-1.819.475-4.76.021-6.834-.638-2.917-1.525-4.97-3.04-6.969-.614-.809-1.188-1.487-1.645-1.957-.229-.234-.405-.41-.654-.574-.125-.081-.226-.227-.692-.213" style="fill:red;fill-rule:evenodd;stroke-width:.668053;stroke-miterlimit:7;paint-order:stroke markers fill" transform="rotate(4.184 -12083.665 10250.082)scale(1.11451)"/><path d="M273.457 944.643c-.238.102.19.31.211.568l.04.467c.063.742-.32 1.853.27 4.845.845 4.284 1.026 5.678 1.092 8.414.021.87.05 1.72.077 2.028q.016.193.043.342c.008.049.015.093.03.15.009.029.016.058.046.121.015.032.03.072.09.14.014.018.056.057.056.057l.086.065.318.09.245-.051s.09-.047.117-.067c.053-.039.076-.066.095-.087a1 1 0 0 0 .073-.092c.032-.048.055-.089.082-.137q.081-.144.191-.363c.147-.293.333-.679.524-1.086.38-.815.759-1.65.898-2.069.338-1.016.422-1.631.42-3.062-.002-1.107-.033-1.435-.188-2.023-.235-.896-.637-1.798-1.826-4.16a61 61 0 0 0-1.275-2.428c-.345-.613-.59-1.013-.834-1.29v-.001l-.193-.217a.6.6 0 0 0-.688-.155z" style="fill:#e40000;fill-rule:evenodd;stroke-width:.334027;stroke-miterlimit:7;paint-order:stroke markers fill" transform="rotate(4.184 -12083.665 10250.082)scale(1.11451)"/><path d="M309.064 945.133c-.129.048-.162.11-.224.185a6 6 0 0 0-.473.721c-.393.67-.952 1.73-1.664 3.156-.757 1.516-1.198 2.444-1.463 3.19-.265.745-.348 1.309-.386 2.04-.107 2.011.156 3.11 1.33 5.565.247.518.417.852.543 1.06a.9.9 0 0 0 .185.245.3.3 0 0 0 .2.082.32.32 0 0 0 .242-.133c.043-.07.042-.097.05-.135q.012-.056.02-.125a5 5 0 0 0 .031-.345c.017-.274.027-.627.027-.998.003-2.7.25-4.714 1.131-9.204.318-1.616.537-2.785.672-3.593q.1-.604.14-.955c.028-.237.042-.381.022-.516a.28.28 0 0 0-.101-.193c-.082-.07-.217-.071-.282-.047" style="fill:#e40000;fill-opacity:1;fill-rule:evenodd;stroke:none;stroke-width:.472385;stroke-linecap:butt;stroke-miterlimit:7;stroke-dasharray:none;stroke-opacity:1;paint-order:stroke markers fill" transform="rotate(4.184 -12083.665 10250.082)scale(1.11451)"/><path d="M287.73 924.877a.3.3 0 0 0-.226.084l-1.371 1.328c-7.705 7.462-9.371 9.179-10.428 10.783-1.015 1.542-1.551 3.346-1.408 4.858.105 1.107.364 1.93 1.027 3.29.553 1.136.908 1.783 1.225 2.116q.098.103.205.176c.071.048.106.105.289.105a.56.56 0 0 0 .398-.199c.092-.113.149-.246.207-.42.118-.348.235-.882.405-1.746.348-1.772.68-2.882 1.232-4.143.788-1.797 2.348-4.26 4.824-7.593 1.827-2.46 2.983-3.652 4.653-4.817.227-.158.41-.328.525-.525a.9.9 0 0 0 .139-.346c.016-.136-.004-.243-.031-.424-.044-.291-.148-.578-.352-.92s-.51-.75-.98-1.345v-.002l-.12-.149a.3.3 0 0 0-.212-.111" style="fill:red;fill-opacity:1;fill-rule:evenodd;stroke:none;stroke-width:.236193;stroke-linecap:butt;stroke-miterlimit:7;stroke-dasharray:none;stroke-opacity:1;paint-order:stroke markers fill" transform="rotate(4.184 -12083.665 10250.082)scale(1.11451)"/><path d="M295.072 924.586a.72.72 0 0 0-.496.285l-.476.643c-.615.83-.993 1.405-.993 2.12 0 .349.188.724.434.987s.565.509 1.041.856c1.207.88 2.503 2.307 4.428 4.945 3.665 5.022 4.744 7.154 5.455 10.719.306 1.533.324 2.003.724 2.507.063.079.14.186.332.286a.98.98 0 0 0 .708.027c.375-.156.433-.319.595-.516.165-.2.29-.417.455-.713.166-.295.35-.645.532-1.007.362-.726.704-1.463.867-1.961.378-1.159.485-2.337.29-3.436-.4-2.258-1.422-3.862-4.302-6.87-.802-.838-2.596-2.612-4.326-4.294s-3.34-3.226-3.897-3.703h-.002l-.82-.707a.72.72 0 0 0-.549-.168" style="fill:red;fill-opacity:1;fill-rule:evenodd;stroke:none;stroke-width:.472385;stroke-linecap:butt;stroke-miterlimit:7;stroke-dasharray:none;stroke-opacity:1;paint-order:stroke markers fill" transform="rotate(4.184 -12083.665 10250.082)scale(1.11451)"/><path d="m318.717 913.805-1.158.754c-1.712 1.116-2.75 1.71-4.307 2.459-4.087 1.964-8.363 4.487-13.067 5.566-1.232.282-2.501-.395-3.12-.143-.62.253-1.078.594-1.512 1.008l-.658.63a.87.87 0 0 0 .033 1.286l.816.703c.488.42 1.093.883 1.52 1.141.44.266.78.48 1.355.48.333 0 .48-.049.828-.11.348-.063.776-.147 1.205-.24 5.105-1.097 11.934-3.64 18.065-6.704l2.35-1.176a.87.87 0 0 0 .478-.816l-.047-1.057c-.064-1.405-.38-2.26-1.137-3.07v-.002l-.535-.573a.87.87 0 0 0-1.11-.136" style="fill:#e40000;fill-opacity:1;fill-rule:evenodd;stroke-width:.472385;stroke-miterlimit:7;paint-order:stroke markers fill" transform="scale(-1.11452 1.11452)rotate(-4.185 11129.1 17166.062)"/><path d="m318.857 914.02-1.158.753c-1.716 1.12-2.77 1.722-4.336 2.475-4.106 1.974-8.908 3.636-13.63 4.719-1.23.282-1.98.472-2.57.713-.592.24-1.011.55-1.434.955l-.659.629a.613.613 0 0 0 .024.908l.816.703h.002c.476.409 1.089.874 1.484 1.113.42.254.758.446 1.223.446.261 0 .439-.046.783-.108a36 36 0 0 0 1.196-.236c5.07-1.09 11.89-3.628 18.004-6.684l2.35-1.176a.61.61 0 0 0 .337-.576l-.047-1.056c-.063-1.389-.332-2.12-1.068-2.909h.002l-.535-.574a.61.61 0 0 0-.784-.095" style="fill:#e40000;fill-opacity:1;fill-rule:evenodd;stroke:none;stroke-width:.472385;stroke-linecap:butt;stroke-miterlimit:7;stroke-dasharray:none;stroke-opacity:1;paint-order:stroke markers fill" transform="rotate(4.184 -12083.665 10250.082)scale(1.11451)"/><path d="M265.723 906.479c-2.26.189-3.662.666-4.82 1.724-.579.528-1.007 1.1-1.231 1.826-.225.727-.264 1.56-.235 2.721.012.44.032.857.053 1.184q.014.244.033.418c.006.057.013.107.022.16.009.052-.003.076.066.23.023.051.044.122.147.244a.9.9 0 0 0 .56.274c.396.01.446-.107.592-.182.188-.097.322-.202.518-.35.195-.147.414-.322.62-.5 1.836-1.574 4.028-2.234 6.909-2.029 2.833.202 5.676 1.359 9.512 3.947 2.687 1.814 4.541 2.95 7.575 6.396l1.785 2.359c.41.467 1.044.355 1.054-.266l.027-1.666c.042-2.422-.163-3.183-1.27-4.883-2.891-4.443-8.723-8.689-14.648-10.746-2.163-.752-4.84-1.065-7.27-.861" style="fill:red;fill-rule:evenodd;stroke-width:.472385;stroke-miterlimit:7;paint-order:stroke markers fill" transform="rotate(4.184 -12083.665 10250.082)scale(1.11451)"/><path d="m289.079 927.13.157 1.186a.41.41 0 0 0 .42.256l.662-.058c.856-.076 1.816-.264 2.368-.494.173-.073.368-.184.496-.368.127-.183.184-.372.271-.656.3-.97.493-2.206.563-3.533l.06-1.156a.413.413 0 0 0-.412-.436h-2.72c-3.922-.52-2.11 1.874-1.865 5.26" style="fill:#ef0000;fill-rule:evenodd;stroke-width:.472385;stroke-miterlimit:7;paint-order:stroke markers fill" transform="rotate(4.184 -12083.665 10250.082)scale(1.11451)"/><path d="M315.8 906.63c-1.256.003-2.533.09-3.384.257-3.299.645-7.006 2.444-10.252 4.736s-6.028 5.066-7.426 7.756c-.208.4-.35.695-.418 1.123s-.077.958-.097 1.977l-.041 2.083a.466.466 0 0 0 .804.333l.577-.606c.338-.356 1.386-1.525 2.367-2.639 2.325-2.642 4.193-4.27 7.05-6.146 3.776-2.48 6.828-3.567 9.883-3.57 2.632-.003 4.51.64 6.364 2.17.277.228.542.435.752.59q.155.115.271.19c.039.026.074.047.115.07.042.02.025.07.26.07.255 0 .475-.213.553-.37.077-.157.106-.306.133-.494.054-.375.074-.9.078-1.668.005-1.124-.058-1.785-.256-2.38-.529-1.592-2.115-2.797-4.067-3.23-.77-.17-2.008-.253-3.265-.251" style="fill:red;fill-opacity:1;fill-rule:evenodd;stroke:none;stroke-width:.672187;stroke-linecap:butt;stroke-miterlimit:7;stroke-dasharray:none;stroke-opacity:1;paint-order:stroke markers fill" transform="rotate(4.184 -12083.665 10250.082)scale(1.11451)"/><path d="m277.314 915.722-1.42-4.32 2.328-3.907 3.143.346-.906 8.227z" style="fill:none;fill-opacity:1;stroke-width:.0215799" transform="rotate(4.184 -12083.665 10250.082)scale(1.11451)"/><g style="stroke-miterlimit:0"><path fill="none" d="M-815.11 230.18A241.43 241.43 0 0 1-649.513 95.579c73.109-16.713 142.82-3.688 200.621 44.096" style="baseline-shift:baseline;display:inline;overflow:visible;vector-effect:none;fill-opacity:0;stop-color:#000;stop-opacity:1" transform="matrix(-.01037 -.00842 .00911 -.00649 936.434 1939.54)"/></g><path fill="none" d="M275.442 910.94c.706-.427 1.625-.535 2.565-.372a3.08 2.192 5.357 0 1 2.189 1.251" style="baseline-shift:baseline;display:inline;overflow:visible;vector-effect:none;fill-opacity:0;stroke-width:.0107639;stroke-miterlimit:0;stop-color:#000" transform="rotate(4.184 -12083.665 10250.082)scale(1.11451)"/><path d="M266.78 905.441c-5.702-.114-9.67 2.982-9.046 8.307.404 3.439 2.138 6.01 5.041 7.477 2.587 1.305 10.72 3.962 16.184 5.285 2.684.65 4.873 1.255 4.865 1.344-.008.088-1.536 1.384-3.396 2.88-3.836 3.085-5.211 4.611-6.207 6.891-.954 2.181-1.263 6.541-.715 10.068 1.855 11.951 1.72 13.144-2.242 19.877l4.095 5.002c1.042-7.095 1.74-9.68 3.225-11.94 2.09-3.18 2.287-6.205.64-9.738-.945-2.027-.99-2.834-.345-5.92.907-4.336 3.817-9.08 8.539-13.921l2.342-2.4 1.715.093 1.714-.094 2.342 2.4c4.723 4.842 7.632 9.586 8.54 13.923.645 3.085.599 3.892-.346 5.92-1.647 3.532-1.449 6.557.64 9.738 1.484 2.26 2.183 4.844 3.225 11.94l4.096-5.003c-3.963-6.733-4.098-7.926-2.243-19.877.548-3.527.239-7.887-.714-10.068-.997-2.28-2.371-3.806-6.208-6.89-1.86-1.497-3.388-2.793-3.396-2.881-.008-.09 2.181-.694 4.865-1.344 5.465-1.323 13.597-3.98 16.184-5.285 2.904-1.466 4.637-4.038 5.04-7.477.626-5.325-3.343-8.421-9.044-8.307-2.592.053-5.541.767-8.58 2.239-4.79 2.32-10.188 6.966-12.205 10.504-1.457 2.555-1.8 2.907-3.91 2.947-2.111-.04-2.454-.392-3.91-2.947-2.017-3.538-7.416-8.184-12.206-10.504-3.039-1.472-5.988-2.186-8.58-2.239m-.032 1.614c1.815-.033 3.795.174 5.303.633 5.858 1.779 12.174 6.27 15.043 10.695 1.131 1.745 1.224 2.063 1.215 4.16l-.008 2.271-.989-1.12-2.861-3.249h-.002c-3.213-3.646-8.961-7.42-12.9-8.468-3.91-1.041-7.752-.324-10.026 1.873-.57.55-1.142.893-1.273.761-.132-.131-.243-1.154-.246-2.273-.007-2.31.582-3.399 2.42-4.475.855-.5 2.508-.775 4.324-.808m49.453 0c1.816.033 3.469.307 4.324.808 1.838 1.076 2.427 2.165 2.42 4.475-.003 1.119-.114 2.142-.246 2.273-.131.132-.704-.211-1.273-.761-2.274-2.197-6.117-2.914-10.026-1.873-3.939 1.048-9.687 4.822-12.9 8.468h-.002l-2.861 3.248-.989 1.121-.008-2.271c-.009-2.097.084-2.415 1.215-4.16 2.87-4.426 9.185-8.916 15.043-10.695 1.508-.459 3.488-.666 5.303-.633m-47.869 6.084c2.592-.007 5.203.695 8.39 2.256 2.031.994 3.293 1.924 5.44 4.011 3.284 3.192 3.353 3.176-3.67.9-4.474-1.45-8.59-3.429-11.357-5.46-1.883-1.382-1.66-1.7 1.197-1.707m46.285 0c2.857.007 3.08.325 1.197 1.707-2.767 2.031-6.883 4.01-11.357 5.46-7.023 2.276-6.954 2.292-3.67-.9 2.147-2.087 3.409-3.017 5.44-4.011 3.187-1.56 5.798-2.263 8.39-2.256m-50.877 1.328 2.25 1.455c3.893 2.518 11.378 5.384 17.444 6.678 1.904.406 2.834.777 3.359 1.34l.727.777-1.254 1.09c-.69.598-1.554 1.086-1.92 1.084-.367-.002-2.075-.36-3.795-.8-4.018-1.023-11.002-3.678-15.102-5.741l-3.21-1.616.029-1.365c.019-.948.247-1.597.75-2.133zm55.469 0 .723.77c.502.535.73 1.184.75 2.132l.029 1.365-3.211 1.616c-4.1 2.063-11.084 4.718-15.102 5.742-1.72.438-3.428.797-3.794.799s-1.231-.486-1.92-1.084l-1.254-1.09.726-.778c.525-.562 1.455-.933 3.36-1.34 6.065-1.293 13.55-4.159 17.443-6.677zm-29.93 7.787h4.391l-.014 1.119c-.019 1.515-.482 3.826-.84 4.184-.471.471-2.212.471-2.683 0-.358-.358-.821-2.669-.84-4.184zm-1.56 2.885.615.797c1.046 1.357 1.115 1.995.275 2.544-1.615 1.058-2.923 2.422-4.906 5.124-4.084 5.564-5.274 7.917-5.955 11.767-.48 2.715-.721 2.68-2.22-.32-1.275-2.55-1.305-4.559-.106-6.965.846-1.697 2.561-3.55 9.316-10.07zm7.512 0 2.98 2.877c6.755 6.52 8.47 8.373 9.316 10.07 1.2 2.406 1.169 4.415-.105 6.965-1.5 3-1.74 3.035-2.22.32-.682-3.85-1.872-6.203-5.956-11.767-1.983-2.702-3.29-4.066-4.906-5.124-.84-.55-.77-1.187.275-2.544zm-21.532 20.027h.012l.002.002h.002c.21.035 1.062 1.468 2.137 3.613 1.92 3.834 2.067 4.279 2.064 6.24-.002 1.706-.2 2.528-1.023 4.272-.561 1.188-1.068 2.16-1.125 2.16s-.116-1.33-.13-2.959c-.02-2.017-.354-4.515-1.056-7.844-.565-2.685-.977-5.133-.914-5.439a.1.1 0 0 1 .01-.027l.008-.008.006-.006.006-.002zm35.54 0h.003l.01.002.006.002.006.006.008.008a.1.1 0 0 1 .01.027c.064.307-.348 2.754-.914 5.44-.7 3.329-1.036 5.826-1.054 7.844-.015 1.628-.074 2.959-.131 2.959s-.564-.973-1.125-2.16c-.824-1.745-1.022-2.566-1.024-4.272-.003-1.962.144-2.406 2.065-6.24 1.074-2.146 1.926-3.578 2.136-3.614h.002zm-33.557 18.94c.193-.028-.308 2.011-.443 2.553-1.792 6.841-2.067 13.52-.713 17.326l-1.533.355c-5.66-5.983-1.276-15.05-.975-15.654.969-1.712 2.203-3.288 3.664-4.58m31.56 0c.296 0 2.8 2.798 3.69 4.58l-3.22-2.028c-.111-.422-.629-2.435-.47-2.553" style="display:inline;fill:#d90000;fill-opacity:1" transform="rotate(4.184 -12083.665 10250.082)scale(1.11451)"/><path fill="#f8d5e7" d="M1202.609 1919.967c-20.235-1.01-40.22 3.163-51.901 12.916-13.865 11.576-15.496 29.787-1.423 41.127 11.668 9.402 25.94 13.452 65.678 18.618 62.989 13.62 59.4-38.653 41.059-54.507-12.684-10.966-33.176-17.15-53.413-18.156" style="stroke-width:1.70993"/><path d="M967.28 1582.16c-42.094-2.028-78.407 2.608-125.106 14.925-31.328 8.26-32.33 8.32-55.352 3.082-53.304-10.916-105.534-4.239-155.938 16.024-70.173 23.026-90.775 28.748-133.568 37.1-32.745 6.393-99.957 7.2-123.74 1.484-67.059-16.103-121.205-7.215-150.66 24.74-17.412 18.89-23.604 34.388-25.769 64.486-3.38 47.046 15.043 93.125 51.695 129.304 35.878 35.416 76.326 49.704 140.722 49.704 56.961 0 113.337-14.062 189.976-47.377l33.634-14.62 2.104 13.595c3.52 22.761 17.418 46.713 38.346 66.086 20.802 19.26 44.641 32.044 87.861 47.12 14.586 5.085 27.068 9.667 27.736 10.176.67.515-3.435 10.878-9.12 23.03-9.227 19.718-11.14 21.847-17.79 19.795-4.1-1.262-22.546-3.11-40.986-4.111-156.819-8.5-186.372 187.292-79.572 234.534 29.447 13.026 71.795 14.879 106.797 4.669 6-1.75 7.546.068 11.222 13.195 6.07 21.671 20.436 42.738 33.55 49.204 35.36 17.416 71.29-14.081 76.23-20.39l8.088-10.339 24.794 5.327c32.29 6.932 118.027 7.193 151.63.464 23.91-4.79 24.14-4.771 34.805 3.317 16.561 12.567 42.685 23.934 55.092 23.969 25.405-.888 40.847-31.097 43.099-53.005 2.074-13.672 5.431-29.338 7.464-34.81 2.028-5.468 6.44-17.403 9.802-26.517 3.359-9.117 6.156-24.542 6.215-34.285.15-24.062-10.54-74.498-24.64-116.292-6.416-19-11.298-34.786-10.857-35.073.44-.288 14.684-2.3 31.657-4.479 68.185-8.758 105.2-34.89 118.97-83.984l5.293-18.859 18.573 15.954c37.124 31.885 77.152 55.03 126.922 73.377 65.86 24.286 168.51 35.785 224.43 25.144 82.955-15.782 127.64-69.453 121.86-146.362-2.775-36.935-21.472-75.33-46.278-95.055-35.86-28.504-62.251-34.663-168.03-39.218-251.17-10.815-216.398-86.257-374.585-108.948-17.024-2.442-26.108-6.166-43.28-17.727-39.43-26.553-95.722-45.76-158.678-54.143-15.915-2.12-30.588-3.536-44.619-4.212m-31.064 20.201c62.45-2.041 88.35.963 139.597 16.188 52.72 15.66 88.957 36.388 125.616 71.854 15.969 15.444 19.524 14.253 12.514-4.195-2.907-7.643-2.443-8.503 4.619-8.503 16.352 0 52.162 14.12 116.592 45.964 72.106 35.64 123.73 54.286 165.442 59.751 14.586 1.913 57.843 5.038 96.13 6.95 100.802 5.034 132.295 13.255 155.764 40.68 39.68 46.355 48.074 166.295-64.894 192.925-19.837 4.675-93.451 6.493-115.727 2.853-102.759-16.778-182.721-49.006-228.222-91.966-20.808-19.652-24.732-26.57-37.642-66.447-16.061-49.594-33.952-80.946-41.75-73.15-.932.933 2.885 11.778 8.48 24.11 14.596 32.17 18.521 54.311 16.695 94.17-1.308 28.597-3.03 37.184-10.303 51.438-9.27 18.168-17.12 25.067-43.72 38.427-23.045 11.576-50.437 16.708-91.16 17.072l-34.807.317-18.779-18.859c-52.474-52.688-75.694-6.547-75.694 5.911 0 3.722-4.65 5.032-22.767 3.65 0 0-.949 10.36 7.067 13.95 8.412 3.767 13.7 14.18 14.033 22.69 3.78 28.856 17.045 56.167 23.936 49.278 1.219-1.223.438-10.85-1.74-21.391-.236-1.139-19.955-97.22 28.35-72.238 5.253 2.716 19.066 14.738 30.696 26.718 21.562 22.207 30.608 27.199 27.459 15.149-2.675-10.224 7.18-8.213 12.173 2.485 9.528 20.42 27.038 77.002 31.96 103.266 7.795 41.598 2.635 71.38-15.79 91.158-4.04 4.334-5.717 9.408-4.491 13.572 5.653 19.16 5.432 27.96-1.069 42.661-8.177 18.487-18.372 23.7-36.717 18.76-6.776-1.827-15.536-6.74-19.463-10.924l-7.14-7.602 9.842-9.29c8.173-7.71 13.244-18.673 8.643-18.673-.662 0-12.037 4.466-25.279 9.926-40.877 16.856-69.693 20.983-132.349 18.926-55.169-1.806-85.195-7.088-117.838-20.726-8.614-3.6-13.678-4.188-16.003-1.864-4.508 4.507 1.521 11.686 14.247 16.956 8.288 3.431 9.236 5.006 6.308 10.476-1.896 3.54-8.198 9.337-14.01 12.881-5.81 3.54-14.547 6.443-19.42 6.45-19.589.03-39.208-29.881-39.208-59.781 0-7.27-4.35-20.643-10.77-33.093-9.999-19.382-10.762-23.178-10.64-52.674.115-28.508 1.58-36.044 14.203-73.09 20.285-59.517 41.402-102.896 50.092-102.896 7.97 0 8.646 5.625 1.763 14.725-2.677 3.54-4.866 7.64-4.866 9.114 0 5.822 7.812 1.958 29.123-14.394 25.507-19.575 40.736-26.829 53.261-25.375 15.44 1.783 12.078 45.01 2.395 72.855-4.581 13.174-7.695 24.584-6.92 25.359 3.23 3.225 12.043-3.215 18.322-13.386 3.696-5.986 9.109-19.092 12.026-29.119 2.92-10.027 5.625-18.598 6.001-19.053.382-.451 31.478-17.4 27.506-17.904-25.107-3.187-28.344-.584-28.344-6.088 0-24.623-31.31-45.58-67.662-21.518-15.68 10.376-19.452 10.281-64.63-1.6-103.138-27.122-141.773-61.075-141.61-124.44.102-40.308 16.841-79.296 50.64-117.932 25.264-28.882 7.121-26.46-19.434 2.595-19.793 21.653-33.012 43.591-44.87 74.459-8.45 21.991-8.619 22.165-34.268 35.511-59.526 30.967-144.89 54.48-197.61 54.43-58.839-.055-96.394-13.612-129.143-46.622-54.668-55.106-60.663-147.395 4.479-178.574 48.502-23.214 105.453 16.632 220.797.678 49.761-6.88 81.26-15.15 135.459-35.567 56.92-21.441 77.465-26.4 109.719-26.491 24.31-.068 54.821 4.894 54.821 8.914 0 .841-3.11 4.636-6.906 8.432-11.705 11.702-4.211 11.268 22.633-1.322 42.256-19.823 71.137-25.824 134.252-27.887m222.144 212.646c-2.12.103-4.16.559-6.025 1.41-17.9 8.156-28.322 41.695-19.504 62.789 20.537 49.148 70.4-9.12 50.22-49.02-4.781-9.452-15.502-15.627-24.69-15.18m-249.235 61.587c-13.144 0-18.31 27.03-6.382 33.41 6.667 3.57 11.909 3.315 46.05-2.23 8.875-1.438 15.73.235 28.178 6.88 17.863 9.541 31.007 9.39 41.923-.488 10.824-9.796 4.103-34.255-9.414-34.255-5.905 0-5.626 3.163.915 10.39 6.89 7.614 3.889 15.345-7.02 18.084-5.812 1.459-14.876-.687-28.188-6.66-19.522-8.761-19.725-8.78-40.14-3.49-18.578 4.814-21 4.831-25.682.15-4.033-4.034-4.29-6.042-1.165-9.17 4.736-4.73 5.31-12.62.925-12.62m-220.678 177.87c24.341.25 51.382 5.998 51.382 10.914 0 1.587-4.325 16.114-9.609 32.281-10.434 31.942-17.965 74.12-16.3 91.318.974 10.064.28 10.898-9.813 11.872-11.966 1.151-31.784-9.148-37.247-19.357-17.319-40.111 53.448-80.964 8.429-58.655-18.086 10.243-28.277 26.27-28.277 44.472 0 30.994 24.016 54.04 56.32 54.04h18.86l4.421 13.388c5.363 16.253 1.397 21.907-18.638 26.554h-.003c-38.104 8.84-82.664-2.055-104.516-25.558-18.375-19.764-24.348-36.696-24.374-69.082-.071-87.294 65.749-112.65 109.366-112.19z" style="fill:#50a3d0;fill-opacity:1;stroke-width:1.70993"/><path fill="#3fc6f2" d="M1132.829 1879.209c-8.817-21.094 1.605-54.633 19.505-62.789 9.948-4.535 24.833 2.138 30.717 13.77 20.18 39.9-29.684 98.167-50.22 49.019m-344.519-32.622c18.038-14.046 25.434-48.381 13.847-64.277-6.44-8.833-22.683-10.333-33.523-3.09-37.17 24.846-22.348 100.095 19.678 67.367" style="stroke-width:1.70993"/><path fill="#f8d5e7" d="M727.786 1855.636c20.104 2.532 39.055 10.122 48.861 21.762 11.635 13.814 10.063 32.029-5.767 40.748-13.127 7.226-27.886 8.724-67.917 6.887-64.397 2.44-47.392-44.502-26.572-56.917 14.4-8.589 31.292-15.016 51.395-12.48" style="stroke-width:1.70993"/><path d="M391.45 454.327c110.025-25.01 185.29 4.066 229.859 27.921 1.594.853 2.75 3.016 2.59 4.817l-4.212 47.357c-29.324-7.211-165.46-40.265-241.014-23.124 0 0 1.864-8.931 7.052-50.602.356-2.861 2.913-5.73 5.725-6.37z" style="fill:#443f42;fill-opacity:1;fill-rule:evenodd;stroke:#272426;stroke-width:25.1438;stroke-linecap:round;stroke-miterlimit:7;stroke-dasharray:none;stroke-opacity:1;paint-order:stroke markers fill" transform="translate(145.038 765.646)scale(1.70993)"/><path d="m448.867 722.415 22.234 52.487" style="fill:#272426;fill-opacity:1;fill-rule:evenodd;stroke:none;stroke-width:12;stroke-linecap:butt;stroke-miterlimit:7;stroke-dasharray:none;stroke-opacity:1;paint-order:stroke markers fill" transform="translate(145.038 765.646)scale(1.70993)"/><g style="display:inline"><path d="M387.707 350.941c-1.776 0-3.155.075-4.486.471-1.332.396-2.486 1.177-3.409 2.07-.535.52-.934.823-1.38 1.608-.447.785-.46 2.053-.364 2.531.255 1.271.83 2.059 1.5 2.9.67.842 1.483 1.64 2.407 2.334 3.65 2.745 8.896 4.635 14.601 5.51 1.796.276 4.71.284 7.977.242s6.554-.168 8.554-.435c2.532-.338 4.537-.69 6.043-1.08.754-.195 1.37-.381 1.993-.684a3.8 3.8 0 0 0 1.021-.68c.388-.36.961-1.079.961-2.142 0-1.528-.652-1.793-.908-2.035a4 4 0 0 0-.637-.49 13 13 0 0 0-1.275-.711c-.972-.488-2.246-1.056-3.735-1.676a154 154 0 0 0-10.302-3.836c-7.728-2.552-13.818-3.897-18.561-3.897m68.093 29.026c-1.005 0-2.045.908-2.314 1.472-.269.565-.262.888-.273 1.157-.022.537.044.889.125 1.293.161.807.439 1.702.816 2.66 1.679 4.254 5.188 10.485 8.37 14.959 4.43 6.23 10.701 11.3 16.66 12.906 1.4.377 2.71.535 4.033.24 1.323-.294 2.74-1.332 3.24-2.763.396-1.137.371-1.824.371-2.782 0-1.294-.35-2.581-1.098-4.06-1.302-2.578-3.008-4.727-6.109-7.828-4.41-4.41-10.488-9.286-16.9-13.588a75 75 0 0 0-3.735-2.358 26 26 0 0 0-1.42-.783 8 8 0 0 0-.613-.281c-.218-.087-.292-.244-1.152-.244" style="fill:#322f31;fill-opacity:1;fill-rule:evenodd;stroke-width:4.18641;stroke-linecap:round;stroke-linejoin:round;stroke-miterlimit:7;paint-order:stroke markers fill" transform="rotate(-21.6 5301.598 -651.14)scale(.6379)"/><path d="M449.193 338.582c-2.127.076-4.174.741-5.746 2.121-1.325 1.164-2.566 3.09-4.166 5.627s-3.3 5.513-4.576 8.107c-1.417 2.882-2.3 5.005-2.672 6.96-.372 1.954-.107 3.786.64 5.376 1.785 3.791 5.678 6.599 9.952 7.358a10.94 10.94 0 0 0 5.69-.514c2.13-.797 3.744-2.567 5.738-5.572 1.87-2.819 5.363-9.819 6.984-13.863.922-2.301 1.149-3.334 1.149-4.932 0-1.515-.244-2.638-.825-3.791-1.139-2.262-3.34-4.278-5.662-5.41-2.137-1.042-4.378-1.543-6.506-1.467" style="fill:#443f42;fill-opacity:1;fill-rule:evenodd;stroke-width:4.18641;stroke-linecap:round;stroke-linejoin:round;stroke-miterlimit:7;paint-order:stroke markers fill" transform="rotate(-21.6 5301.598 -651.14)scale(.6379)"/><path d="M408.334 301.963c-1.959-.027-3.851.171-5.633.984-6.861 3.132-10.727 10.185-12.719 21.176-.724 3.999-1.818 6.954-1.935 7.133.206-.315-.195.234-.602.68a50 50 0 0 1-1.45 1.517c-2.233 2.24-4.404 5.034-6.052 7.578-.823 1.272-1.51 2.467-2.013 3.586a9.7 9.7 0 0 0-.612 1.701c-.149.606-.349 1.285.016 2.434.07.22.146.64.639 1.289.492.648 1.498 1.194 2.148 1.32 1.3.252 1.72.036 2.676-.084 3.159-.394 7.56-.196 11.422.567 7.348 1.45 14.715 3.779 22.56 7.15a168 168 0 0 0 3.916 1.625c1.156.461 1.91.77 2.67.986 1.536.437 3.395.616 5.057-.277s2.51-2.364 3.197-3.902c1.83-4.1.677-8.71-2.342-12.248.53.292 1.236.814 1.748 1.015 1.421.56 3.536.474 4.737-.24 2.058-1.224 3.156-3.415 3.498-5.615.341-2.2.042-4.56-.77-6.979-1.538-4.581-3.723-8.41-9.25-16.422-5.133-7.44-9.472-11.532-15.181-13.908-1.801-.749-3.766-1.04-5.725-1.066" style="fill:#443f42;fill-opacity:1;fill-rule:evenodd;stroke-width:5.92047;stroke-linecap:round;stroke-linejoin:round;stroke-miterlimit:7;paint-order:stroke markers fill" transform="rotate(-21.6 5301.598 -651.14)scale(.6379)"/><path d="M483.512 350.055c-6.175.228-10.93.835-14.489 2.013-1.779.59-3.289 1.313-4.527 2.434-1.238 1.12-2.15 2.84-2.146 4.607v.002c.005 2.115.86 2.39 1.392 2.934.532.545 1.13 1.031 1.832 1.547 1.242.913 2.877 1.878 4.598 2.81-1.948-.69-3.945-1.13-5.904-1.043-2.837.126-5.649 1.03-7.618 3.205-.892.987-1.717 2.054-2.087 3.55-.37 1.494.013 3.243.8 4.517 1.575 2.548 4.19 4.331 8.528 7.266 4.32 2.921 9.424 7.106 13.658 11.056s7.71 8.025 8.377 9.315c.556 1.076 1.178 2.032 1.85 2.84.335.403.674.77 1.126 1.13.453.36.958.909 2.399.909 1.637 0 2.24-.776 2.683-1.235s.74-.9 1.041-1.387c.602-.975 1.159-2.137 1.721-3.476 1.125-2.68 2.219-6.01 2.897-9.149.092-.427.792-2.031 1.962-3.794 1.17-1.764 2.778-3.81 4.606-5.797 5.064-5.51 8.253-10.166 9.32-14.858s-.563-9.291-4.06-12.789c-2.758-2.757-6.32-4.626-10.823-5.629-4.502-1.003-9.978-1.243-17.136-.978" style="fill:#443f42;fill-opacity:1;fill-rule:evenodd;stroke-width:23.6819;stroke-linecap:round;stroke-linejoin:round;stroke-miterlimit:7;paint-order:stroke markers fill" transform="rotate(-21.6 5301.598 -651.14)scale(.6379)"/><path d="M420.413 300.665c-10.194-5.498-22.185-4.885-30.949 6.402-.542.726-.99 1.434-1.322 2.106-1.086 2.2-2.604 7.412-3.374 11.585-2.024 10.97-6.085 10.544-11.773 21.862-14.618 25.112 19.543 36.249 42.655 31.925 4.78-.882 8.82-1.535 10.016-.858 1.414 4.261 14.679 12.031 18.878 10.104 1.227.62 2.924 4.343 4.842 8.81 9.221 21.628 37.436 43.875 50.223 17.783 6.262-11.01 3.655-14.154 11.66-21.922 3.045-2.956 6.54-7.11 7.768-9.234.375-.648.716-1.414 1.02-2.268 6.04-18.07-6.892-30.39-23.189-33.045-16.296-2.655-29.075 2.354-29.8-2.208s-14.549-11.291-18.879-10.104-7.119-11.485-18.367-23.572c-2.812-3.021-6.011-5.533-9.41-7.366m-5.389 5.95c4.13 2.15 8.144 6.099 11.384 11.405 9.354 12.577 12.352 21.19 8.662 24.888-1.61 1.613-3.051 1.167-8.252-2.558-11.419-8.178-12.334-.49-4.855 2.738 5.456 2.356 8.905 7.683 7.587 11.715-1.724 5.274-2.942 5.49-10.737 1.903-12.44-5.726-29.76-9.883-35.04-8.411-4.717 1.314-4.97-.569-.88-6.565 2.042-2.994 4.892-6.33 6.332-7.41 1.725-1.296 3.035-5.074 3.842-11.078 3.222-17.376 12.872-21.355 21.957-16.626m91.229 48.826c8.973 4.937 11.017 15.174-1.653 27.493-4.549 4.002-6.966 7.188-7.087 9.342-.1 1.798-1.295 6.019-2.654 9.379-2.72 6.728-4.427 7.563-5.95 2.91-1.705-5.211-14.77-17.316-26.435-24.492-7.308-4.495-7.804-5.629-4.372-9.989 2.624-3.333 8.97-3.418 13.956-.185 6.835 4.432 12.724-.593-.415-5.558-5.984-2.262-7.154-3.213-6.705-5.447 1.03-5.122 9.86-7.405 25.513-6.598 6.212-.248 11.723.901 15.802 3.145m-51.278-13.682c3.789 1.943 6.55 5.757 5.006 9.936-1.594 4.31-6.17 14.65-10 18.639-5.388 5.611-17.815-1.04-16.134-8.635 1.195-5.4 7.144-15.03 9.962-18.66 2.562-3.298 7.378-3.224 11.166-1.28m-35.517 20.948c.868.449 1.347.767 1.329.895-.313 2.197-30.795 6.304-39.37-4.665-1.437-1.838-1.253-2.811.835-4.378 6.077-4.562 31.134 5.003 37.206 8.148m37.666 20.158c5.984 3.308 27.841 18.852 27.417 26.44-.146 2.605-.854 3.298-3.18 3.122-13.884-1.051-27.374-28.692-25.72-30.17.097-.087.628.136 1.483.608" style="display:inline;fill:#272426;fill-opacity:1" transform="rotate(-21.6 5301.598 -651.14)scale(.6379)"/></g><path d="M874.379 1986.47c-10.037.366-22.113 5.989-39.553 18.46a914 914 0 0 1 53.887-1.374c-1.116-9.56-4.271-16.246-10.15-16.925a27.5 27.5 0 0 0-4.184-.16m175.007 13.179c-8.714.18-13.506 6.857-15.927 16.194 19.12 3.14 38.31 6.873 57.65 11.188l-.154-.153c-1.644-.783-2.943-2.098-3.95-3.854-9.531-9.145-19.012-17.09-23.158-19.234-5.728-2.962-10.5-4.223-14.461-4.14z" style="fill:#fff;fill-opacity:1;stroke-width:1.70993"/><path d="M146.628 181.396 52.512 83.598l-134.14 20.705L16.17 10.187l-20.705-134.14 94.116 97.797 134.14-20.705-97.798 94.116Z" style="fill:#ffff62;fill-opacity:1;fill-rule:evenodd;stroke:none;stroke-width:5;stroke-linecap:butt;stroke-miterlimit:7;stroke-dasharray:none;stroke-opacity:1;paint-order:stroke markers fill" transform="matrix(-.83602 0 0 .83602 1492.457 1278.682)"/><path d="M146.628 181.396 52.512 83.598l-134.14 20.705L16.17 10.187l-20.705-134.14 94.116 97.797 134.14-20.705-97.798 94.116Z" style="fill:#ffff62;fill-opacity:1;fill-rule:evenodd;stroke:none;stroke-width:5;stroke-linecap:butt;stroke-miterlimit:7;stroke-dasharray:none;stroke-opacity:1;paint-order:stroke markers fill" transform="matrix(-.7459 .37758 .37758 .7459 1042.15 851.8)"/><text xml:space="preserve" x="996.805" y="402.797" style="font-size:260.846px;line-height:.8;font-family:&quot;Magic Bubble&quot;;-inkscape-font-specification:&quot;Magic Bubble&quot;;text-align:center;text-decoration-color:#000;text-anchor:middle;fill:#fff;stroke-width:7.67133;stroke-linecap:round;stroke-linejoin:bevel;stroke-miterlimit:7;stroke-dashoffset:3.3;-inkscape-stroke:none;stop-color:#000"><tspan x="996.805" y="402.797" style="stroke-width:7.67133">Congratulations,</tspan><tspan x="996.805" y="614.021" style="stroke-width:7.67133">Anthony!</tspan></text><text xml:space="preserve" x="1016.507" y="2618.571" style="font-size:211.793px;line-height:.8;font-family:&quot;Magic Bubble&quot;;-inkscape-font-specification:&quot;Magic Bubble&quot;;text-align:center;text-decoration-color:#000;text-anchor:middle;fill:#fff;stroke-width:6.2287;stroke-linecap:round;stroke-linejoin:bevel;stroke-miterlimit:7;stroke-dashoffset:3.3;-inkscape-stroke:none;stop-color:#000"><tspan x="1016.507" y="2618.571" style="stroke-width:6.2287">You&apos;re A</tspan><tspan x="1016.507" y="2788.005" style="stroke-width:6.2287">Graduate And</tspan><tspan x="1016.507" y="2959.508" style="stroke-width:6.2287">A Very Good Boy!</tspan></text><text xml:space="preserve" x="1014.072" y="3330.638" style="font-size:211.793px;line-height:.8;font-family:&quot;Magic Bubble&quot;;-inkscape-font-specification:&quot;Magic Bubble&quot;;text-align:center;text-decoration-color:#000;text-anchor:middle;fill:#0fa8da;fill-opacity:1;stroke-width:10.9795;stroke-linecap:round;stroke-linejoin:bevel;stroke-miterlimit:7;stroke-dashoffset:3.3;-inkscape-stroke:none;stop-color:#000" transform="translate(-182.452 -594.498)scale(1.18245)"><tspan x="1014.072" y="3330.638">Just Like Me!</tspan></text><text xml:space="preserve" x="1014.072" y="3319.329" style="font-size:211.793px;line-height:.8;font-family:&quot;Magic Bubble&quot;;-inkscape-font-specification:&quot;Magic Bubble&quot;;text-align:center;text-decoration-color:#000;text-anchor:middle;fill:#fff;stroke-width:10.9795;stroke-linecap:round;stroke-linejoin:bevel;stroke-miterlimit:7;stroke-dashoffset:3.3;-inkscape-stroke:none;stop-color:#000" transform="translate(-182.452 -594.498)scale(1.18245)"><tspan x="1014.072" y="3319.329">Just Like Me!</tspan></text><circle cx="694.191" cy="1051.053" r="112.697" style="font-variation-settings:normal;vector-effect:none;fill:url(#k);fill-rule:evenodd;stroke-width:5.26311;stroke-linecap:butt;stroke-linejoin:miter;stroke-miterlimit:4;stroke-dasharray:none;stroke-dashoffset:0;stroke-opacity:1;-inkscape-stroke:none;stop-color:#000"/><path d="M146.628 181.396 52.512 83.598l-134.14 20.705L16.17 10.187l-20.705-134.14 94.116 97.797 134.14-20.705-97.798 94.116Z" style="fill:#ffff62;fill-opacity:1;fill-rule:evenodd;stroke:none;stroke-width:5;stroke-linecap:butt;stroke-miterlimit:7;stroke-dasharray:none;stroke-opacity:1;paint-order:stroke markers fill" transform="translate(634.2 1027.959)scale(.83602)"/><path d="M146.628 181.396 52.512 83.598l-134.14 20.705L16.17 10.187l-20.705-134.14 94.116 97.797 134.14-20.705-97.798 94.116Z" style="fill:#fff;fill-opacity:1;fill-rule:evenodd;stroke:none;stroke-width:5;stroke-linecap:butt;stroke-miterlimit:7;stroke-dasharray:none;stroke-opacity:1;paint-order:stroke markers fill" transform="translate(656.086 1036.806)scale(.52798)"/><circle cx="572.649" cy="1297.162" r="112.697" style="font-variation-settings:normal;vector-effect:none;fill:url(#l);fill-rule:evenodd;stroke-width:5.26311;stroke-linecap:butt;stroke-linejoin:miter;stroke-miterlimit:4;stroke-dasharray:none;stroke-dashoffset:0;stroke-opacity:1;-inkscape-stroke:none;stop-color:#000"/><path d="M146.628 181.396 52.512 83.598l-134.14 20.705L16.17 10.187l-20.705-134.14 94.116 97.797 134.14-20.705-97.798 94.116Z" style="fill:#ffff62;fill-opacity:1;fill-rule:evenodd;stroke:none;stroke-width:5;stroke-linecap:butt;stroke-miterlimit:7;stroke-dasharray:none;stroke-opacity:1;paint-order:stroke markers fill" transform="translate(507.546 1278.682)scale(.83602)"/><path d="M146.628 181.396 52.512 83.598l-134.14 20.705L16.17 10.187l-20.705-134.14 94.116 97.797 134.14-20.705-97.798 94.116Z" style="fill:#fff;fill-opacity:1;fill-rule:evenodd;stroke:none;stroke-width:5;stroke-linecap:butt;stroke-miterlimit:7;stroke-dasharray:none;stroke-opacity:1;paint-order:stroke markers fill" transform="translate(529.431 1287.53)scale(.52798)"/><path d="M146.628 181.396 52.512 83.598l-134.14 20.705L16.17 10.187l-20.705-134.14 94.116 97.797 134.14-20.705-97.798 94.116Z" style="fill:#fff;fill-opacity:1;fill-rule:evenodd;stroke:none;stroke-width:5;stroke-linecap:butt;stroke-miterlimit:7;stroke-dasharray:none;stroke-opacity:1;paint-order:stroke markers fill" transform="rotate(24.338 -1529.715 2691.9)scale(.52798)"/><g transform="matrix(-1 0 0 1 2000 0)"><circle cx="694.191" cy="1051.053" r="112.697" style="font-variation-settings:normal;vector-effect:none;fill:url(#m);fill-rule:evenodd;stroke-width:5.26311;stroke-linecap:butt;stroke-linejoin:miter;stroke-miterlimit:4;stroke-dasharray:none;stroke-dashoffset:0;stroke-opacity:1;-inkscape-stroke:none;stop-color:#000"/><path d="M146.628 181.396 52.512 83.598l-134.14 20.705L16.17 10.187l-20.705-134.14 94.116 97.797 134.14-20.705-97.798 94.116Z" style="fill:#ffff62;fill-opacity:1;fill-rule:evenodd;stroke:none;stroke-width:5;stroke-linecap:butt;stroke-miterlimit:7;stroke-dasharray:none;stroke-opacity:1;paint-order:stroke markers fill" transform="translate(634.2 1027.959)scale(.83602)"/><path d="M146.628 181.396 52.512 83.598l-134.14 20.705L16.17 10.187l-20.705-134.14 94.116 97.797 134.14-20.705-97.798 94.116Z" style="fill:#fff;fill-opacity:1;fill-rule:evenodd;stroke:none;stroke-width:5;stroke-linecap:butt;stroke-miterlimit:7;stroke-dasharray:none;stroke-opacity:1;paint-order:stroke markers fill" transform="translate(656.086 1036.806)scale(.52798)"/></g><g transform="matrix(-1 0 0 1 2000 0)"><circle cx="572.649" cy="1297.162" r="112.697" style="font-variation-settings:normal;vector-effect:none;fill:url(#n);fill-rule:evenodd;stroke-width:5.26311;stroke-linecap:butt;stroke-linejoin:miter;stroke-miterlimit:4;stroke-dasharray:none;stroke-dashoffset:0;stroke-opacity:1;-inkscape-stroke:none;stop-color:#000"/><path d="M146.628 181.396 52.512 83.598l-134.14 20.705L16.17 10.187l-20.705-134.14 94.116 97.797 134.14-20.705-97.798 94.116Z" style="fill:#ffff62;fill-opacity:1;fill-rule:evenodd;stroke:none;stroke-width:5;stroke-linecap:butt;stroke-miterlimit:7;stroke-dasharray:none;stroke-opacity:1;paint-order:stroke markers fill" transform="translate(507.546 1278.682)scale(.83602)"/><path d="M146.628 181.396 52.512 83.598l-134.14 20.705L16.17 10.187l-20.705-134.14 94.116 97.797 134.14-20.705-97.798 94.116Z" style="fill:#fff;fill-opacity:1;fill-rule:evenodd;stroke:none;stroke-width:5;stroke-linecap:butt;stroke-miterlimit:7;stroke-dasharray:none;stroke-opacity:1;paint-order:stroke markers fill" transform="translate(529.431 1287.53)scale(.52798)"/></g></svg>