<svg xmlns="http://www.w3.org/2000/svg" xml:space="preserve" width="1000" height="500"><path d="M153.64 72.59c-39.215-.005-46.526.458-56.751 3.596-6.925 2.125-9.911 3.886-18.77 11.059-16.37 13.254-21.641 22.623-25.04 44.496-1.03 6.625-1.219 16.493-1.144 59.552.049 28.386.46 70.548.911 93.694 1.24 63.495 3.232 79.155 12.432 97.664 3.437 6.916 7.4 12.228 14.185 19.013 16.254 16.253 31.21 21.962 64.593 24.65 9.656.778 87.598 1.018 353.813 1.096h4.261c266.216-.078 344.158-.318 353.814-1.095 33.384-2.69 48.34-8.398 64.593-24.651 6.784-6.785 10.748-12.097 14.185-19.013 9.2-18.51 11.191-34.169 12.432-97.664.452-23.146.862-65.308.911-93.694.075-43.059-.115-52.927-1.144-59.552-3.399-21.873-8.67-31.242-25.04-44.496-8.859-7.173-11.845-8.934-18.77-11.059-10.225-3.138-17.536-3.602-56.75-3.596-31.22.004-37.297.188-39.219 1.19-3.45 1.8-610.83 1.802-614.284 0-1.922-1.002-7.999-1.186-39.218-1.19" style="fill:#000;fill-opacity:1;fill-rule:evenodd;stroke:none;stroke-width:4.39766;stroke-linecap:round;stroke-miterlimit:7;paint-order:stroke markers fill"/><g style="fill:#dfdfe7;fill-opacity:1"><path d="M806.29 116.592c-17.747 0-32.163 14.416-32.163 32.162s14.416 32.162 32.162 32.162 32.162-14.416 32.162-32.162-14.416-32.162-32.162-32.162" style="baseline-shift:baseline;display:inline;overflow:visible;opacity:1;vector-effect:none;fill:#dfdfe7;fill-opacity:1;stop-color:#000;stop-opacity:1"/><path d="M779.068 199.943c-5.593 0-10.146 4.553-10.146 10.147v75.058c0 5.594 4.553 10.147 10.146 10.147h75.06c5.594 0 10.147-4.553 10.147-10.147V210.09c0-5.594-4.553-10.147-10.146-10.147zm0 3.215h75.06c3.869 0 6.93 3.064 6.93 6.932v75.058c0 3.868-3.061 6.932-6.93 6.932h-75.06c-3.867 0-6.93-3.064-6.93-6.932V210.09c0-3.868 3.063-6.932 6.93-6.932" style="baseline-shift:baseline;display:inline;overflow:visible;opacity:1;vector-effect:none;fill:#dfdfe7;fill-opacity:1;fill-rule:evenodd;stroke-linecap:round;stroke-miterlimit:7;paint-order:stroke markers fill;stop-color:#000;stop-opacity:1"/><path d="M-220.932 199.943c-5.593 0-10.146 4.553-10.146 10.147v75.058c0 5.594 4.553 10.147 10.146 10.147h75.06c5.594 0 10.147-4.553 10.147-10.147V210.09c0-5.594-4.553-10.147-10.146-10.147zm0 3.215h75.06c3.869 0 6.93 3.064 6.93 6.932v75.058c0 3.868-3.061 6.932-6.93 6.932h-75.06c-3.867 0-6.93-3.064-6.93-6.932V210.09c0-3.868 3.063-6.932 6.93-6.932" style="baseline-shift:baseline;display:inline;overflow:visible;opacity:1;vector-effect:none;fill:#dfdfe7;fill-opacity:1;fill-rule:evenodd;stroke-linecap:round;stroke-miterlimit:7;paint-order:stroke markers fill;stop-color:#000;stop-opacity:1" transform="scale(-1 1)"/><path d="M102.278 104.563a4.756 4.756 0 0 0-4.769 4.769v12.795a1.68 1.68 0 0 1-1.68 1.68H83.034a4.756 4.756 0 0 0-4.769 4.769v12.447a4.756 4.756 0 0 0 4.77 4.768h12.794a1.68 1.68 0 0 1 1.68 1.68v12.795a4.756 4.756 0 0 0 4.769 4.77h12.448a4.756 4.756 0 0 0 4.768-4.77v-12.794a1.68 1.68 0 0 1 1.68-1.68h12.797a4.756 4.756 0 0 0 4.766-4.769v-12.447a4.756 4.756 0 0 0-4.767-4.768h-12.797a1.68 1.68 0 0 1-1.68-1.68v-12.796a4.756 4.756 0 0 0-4.767-4.768z" style="fill:#dfdfe7;fill-opacity:1;fill-rule:evenodd;stroke:none;stroke-width:2.02218;stroke-miterlimit:7;paint-order:stroke markers fill"/><rect width="47.858" height="19.637" x="768.75" y="313.432" rx="9" style="fill:#dfdfe7;fill-opacity:1;fill-rule:evenodd;stroke:none;stroke-width:3.38975;stroke-linecap:round;stroke-miterlimit:7;paint-order:stroke markers fill"/><rect width="47.858" height="19.637" x="-231.25" y="313.432" rx="9" style="fill:#dfdfe7;fill-opacity:1;fill-rule:evenodd;stroke:none;stroke-width:3.38975;stroke-linecap:round;stroke-miterlimit:7;paint-order:stroke markers fill" transform="scale(-1 1)"/><g style="fill:#dfdfe7;fill-opacity:1"><path d="M795.063 368.445a2.51 2.51 0 0 0-2.506 2.506v.164a2.51 2.51 0 0 0 2.505 2.506h7.02a2.51 2.51 0 0 0 2.508-2.506v-.164a2.51 2.51 0 0 0-2.508-2.506zM781.893 368.445a2.51 2.51 0 0 0-2.506 2.506v.164a2.51 2.51 0 0 0 2.506 2.506h7.021a2.51 2.51 0 0 0 2.506-2.506v-.164a2.51 2.51 0 0 0-2.506-2.506zM768.482 368.445a2.51 2.51 0 0 0-2.505 2.506v.164a2.51 2.51 0 0 0 2.505 2.506h7.022a2.51 2.51 0 0 0 2.506-2.506v-.164a2.51 2.51 0 0 0-2.506-2.506zM801.475 359.13a2.51 2.51 0 0 0-2.506 2.507v.166a2.51 2.51 0 0 0 2.506 2.506h7.021a2.51 2.51 0 0 0 2.506-2.506v-.166a2.51 2.51 0 0 0-2.506-2.506zM788.307 359.13a2.51 2.51 0 0 0-2.506 2.507v.166a2.51 2.51 0 0 0 2.506 2.506h7.02a2.51 2.51 0 0 0 2.507-2.506v-.166a2.51 2.51 0 0 0-2.508-2.506zM807.99 349.816a2.51 2.51 0 0 0-2.506 2.506v.164a2.51 2.51 0 0 0 2.506 2.506h7.022a2.51 2.51 0 0 0 2.506-2.506v-.164a2.51 2.51 0 0 0-2.506-2.506zM794.82 349.816a2.51 2.51 0 0 0-2.506 2.506v.164a2.51 2.51 0 0 0 2.506 2.506h7.022a2.51 2.51 0 0 0 2.506-2.506v-.164a2.51 2.51 0 0 0-2.506-2.506zM781.65 349.816a2.51 2.51 0 0 0-2.505 2.506v.164a2.51 2.51 0 0 0 2.505 2.506h7.022a2.51 2.51 0 0 0 2.506-2.506v-.164a2.51 2.51 0 0 0-2.506-2.506zM768.482 349.816a2.51 2.51 0 0 0-2.505 2.506v.164a2.51 2.51 0 0 0 2.505 2.506h7.022a2.51 2.51 0 0 0 2.506-2.506v-.164a2.51 2.51 0 0 0-2.506-2.506z" style="baseline-shift:baseline;display:inline;overflow:visible;vector-effect:none;fill:#dfdfe7;fill-opacity:1;fill-rule:evenodd;stroke-linecap:round;stroke-miterlimit:7;paint-order:stroke markers fill;stop-color:#000"/><path d="M768.482 359.13a2.51 2.51 0 0 0-2.505 2.507v.164a2.51 2.51 0 0 0 2.505 2.506h13.79a2.51 2.51 0 0 0 2.507-2.506v-.164a2.51 2.51 0 0 0-2.508-2.506z" style="fill:#dfdfe7;fill-opacity:1;fill-rule:evenodd;stroke:none;stroke-width:.219966;stroke-linecap:square;stroke-miterlimit:7;stroke-opacity:1;paint-order:stroke markers fill"/></g><g style="fill:#dfdfe7;fill-opacity:1"><path d="M224.496 368.445a2.51 2.51 0 0 0-2.506 2.506v.164a2.51 2.51 0 0 0 2.506 2.506h7.022a2.51 2.51 0 0 0 2.505-2.506v-.164a2.51 2.51 0 0 0-2.505-2.506zM211.086 368.445a2.51 2.51 0 0 0-2.506 2.506v.164a2.51 2.51 0 0 0 2.506 2.506h7.021a2.51 2.51 0 0 0 2.506-2.506v-.164a2.51 2.51 0 0 0-2.506-2.506zM197.918 368.445a2.51 2.51 0 0 0-2.508 2.506v.164a2.51 2.51 0 0 0 2.508 2.506h7.02a2.51 2.51 0 0 0 2.505-2.506v-.164a2.51 2.51 0 0 0-2.505-2.506zM204.674 359.13a2.51 2.51 0 0 0-2.508 2.507v.166a2.51 2.51 0 0 0 2.508 2.506h7.02a2.51 2.51 0 0 0 2.505-2.506v-.166a2.51 2.51 0 0 0-2.506-2.506zM191.504 359.13a2.51 2.51 0 0 0-2.506 2.507v.166a2.51 2.51 0 0 0 2.506 2.506h7.021a2.51 2.51 0 0 0 2.506-2.506v-.166a2.51 2.51 0 0 0-2.506-2.506zM224.496 349.816a2.51 2.51 0 0 0-2.506 2.506v.164a2.51 2.51 0 0 0 2.506 2.506h7.022a2.51 2.51 0 0 0 2.505-2.506v-.164a2.51 2.51 0 0 0-2.505-2.506zM211.328 349.816a2.51 2.51 0 0 0-2.506 2.506v.164a2.51 2.51 0 0 0 2.506 2.506h7.022a2.51 2.51 0 0 0 2.505-2.506v-.164a2.51 2.51 0 0 0-2.505-2.506zM198.158 349.816a2.51 2.51 0 0 0-2.506 2.506v.164a2.51 2.51 0 0 0 2.506 2.506h7.022a2.51 2.51 0 0 0 2.506-2.506v-.164a2.51 2.51 0 0 0-2.506-2.506zM184.988 349.816a2.51 2.51 0 0 0-2.506 2.506v.164a2.51 2.51 0 0 0 2.506 2.506h7.022a2.51 2.51 0 0 0 2.506-2.506v-.164a2.51 2.51 0 0 0-2.506-2.506z" style="baseline-shift:baseline;display:inline;overflow:visible;vector-effect:none;fill:#dfdfe7;fill-opacity:1;fill-rule:evenodd;stroke-linecap:round;stroke-miterlimit:7;paint-order:stroke markers fill;stop-color:#000"/><path d="M217.729 359.13a2.51 2.51 0 0 0-2.508 2.507v.164a2.51 2.51 0 0 0 2.508 2.506h13.789a2.51 2.51 0 0 0 2.505-2.506v-.164a2.51 2.51 0 0 0-2.505-2.506z" style="baseline-shift:baseline;display:inline;overflow:visible;vector-effect:none;fill:#dfdfe7;fill-opacity:1;fill-rule:evenodd;stroke-width:1.19103;stroke-linecap:round;stroke-miterlimit:7;paint-order:stroke markers fill;stop-color:#000"/></g><rect width="26.593" height="11.322" x="830.047" y="92.741" rx="5.001" style="fill:#dfdfe7;fill-opacity:1;fill-rule:evenodd;stroke:none;stroke-width:1.91872;stroke-linecap:round;stroke-miterlimit:7;paint-order:stroke markers fill"/><rect width="26.593" height="11.322" x="-169.953" y="92.741" rx="5.001" style="fill:#dfdfe7;fill-opacity:1;fill-rule:evenodd;stroke:none;stroke-width:1.91872;stroke-linecap:round;stroke-miterlimit:7;paint-order:stroke markers fill" transform="scale(-1 1)"/><path d="M263.193 89.385c-12.455 0-22.568 10.111-22.568 22.566V388.05c0 12.455 10.113 22.566 22.568 22.566h473.614c12.455 0 22.568-10.111 22.568-22.566V111.95c0-12.455-10.113-22.566-22.568-22.566zm0 5.5h473.614c9.503 0 17.066 7.563 17.066 17.066V388.05c0 9.503-7.563 17.066-17.066 17.066H263.193c-9.503 0-17.068-7.563-17.068-17.066V111.95c0-9.503 7.565-17.066 17.068-17.066" style="baseline-shift:baseline;display:inline;overflow:visible;opacity:1;vector-effect:none;fill:#dfdfe7;fill-opacity:1;fill-rule:evenodd;stroke-linecap:square;stroke-linejoin:round;stroke-miterlimit:7;paint-order:stroke markers fill;stop-color:#000;stop-opacity:1"/><path d="M291.795 108.781c-10.951 0-19.844 8.893-19.844 19.844v242.748c0 10.951 8.893 19.844 19.844 19.844h416.41c10.951 0 19.844-8.893 19.844-19.844V128.625c0-10.951-8.893-19.844-19.844-19.844z" style="baseline-shift:baseline;display:inline;overflow:visible;vector-effect:none;fill:#dfdfe7;fill-opacity:1;fill-rule:evenodd;stroke-linecap:square;stroke-linejoin:round;stroke-miterlimit:7;paint-order:stroke markers fill;stop-color:#000"/><path d="M99.348 201.358c5.593 0 10.145 4.554 10.145 10.147v71.516c0 1.957-.078 5.136.13 7.08.43 3.975 1.717 7.896 3 10.997.943 2.281 2.776 5.848 4.073 7.95 1.969 3.192 4.842 7.31 9.98 14.612a11018 11018 0 0 0 30.162 42.63c10.67 14.996 19.93 27.885 25.352 35.567 5.42 7.68 7.023 10.183 8.209 12.259s2.024 3.855 2.526 5.988c.248 1.051.466 6.897.466 6.897l-3.15-.019s-.044-4.107-.447-6.14c-.413-1.756-1.068-3.169-2.189-5.13-1.12-1.962-2.64-4.345-8.044-12.001-5.404-7.657-14.67-20.555-25.344-35.557a10999 10999 0 0 1-30.17-42.642c-7.415-10.539-10.215-14.57-12.42-18.891-.366-.72-3.147-6.271-4.548-11.99-.77-3.139-.801-8.424-.801-11.665v-71.46c0-3.868-3.063-6.933-6.93-6.933h-47.37l-.013-3.215zm801.304 0c-5.593 0-10.145 4.554-10.145 10.147v71.516c0 1.957.078 5.136-.13 7.08-.43 3.975-1.717 7.896-3 10.997-.943 2.281-2.776 5.848-4.073 7.95-1.969 3.192-4.842 7.31-9.98 14.612a11018 11018 0 0 1-30.162 42.63c-10.67 14.996-19.93 27.885-25.352 35.567-5.42 7.68-7.023 10.183-8.209 12.259s-2.024 3.855-2.526 5.988c-.248 1.051-.466 6.897-.466 6.897l3.15-.019s.044-4.107.447-6.14c.413-1.756 1.068-3.169 2.189-5.13 1.12-1.962 2.64-4.345 8.044-12.001 5.404-7.657 14.67-20.555 25.344-35.557a10999 10999 0 0 0 30.17-42.642c7.416-10.539 10.215-14.57 12.42-18.891.366-.72 3.147-6.271 4.548-11.99.77-3.139.801-8.424.801-11.665v-71.46c0-3.868 3.063-6.933 6.93-6.933h47.37l.013-3.215z" style="baseline-shift:baseline;display:inline;overflow:visible;vector-effect:none;fill:#dfdfe7;fill-opacity:1;fill-rule:evenodd;stroke-width:1.19103;stroke-linecap:round;stroke-miterlimit:7;paint-order:stroke markers fill;stop-color:#000"/><path d="M806.29 116.592c-17.747 0-32.163 14.416-32.163 32.162s14.416 32.162 32.162 32.162 32.162-14.416 32.162-32.162-14.416-32.162-32.162-32.162" style="baseline-shift:baseline;display:inline;overflow:visible;opacity:1;vector-effect:none;fill:#dfdfe7;fill-opacity:1;stop-color:#000;stop-opacity:1" transform="translate(-612.577)"/><g style="fill:#dfdfe7;fill-opacity:1"><g style="fill:#dfdfe7;fill-opacity:1"><path d="M894.703 149.279c-6.642 0-12.043 5.401-12.043 12.043s5.401 12.042 12.043 12.042 12.042-5.4 12.042-12.042-5.4-12.043-12.042-12.043M893.65 96.235c-6.641 0-12.043 5.401-12.043 12.043s5.402 12.042 12.043 12.042c6.642 0 12.042-5.4 12.042-12.042s-5.4-12.043-12.042-12.043" style="baseline-shift:baseline;display:inline;overflow:visible;vector-effect:none;fill:#dfdfe7;fill-opacity:1;stroke-width:.515891;stop-color:#000"/></g><g style="fill:#dfdfe7;fill-opacity:1"><path d="M894.703 149.279c-6.642 0-12.043 5.401-12.043 12.043s5.401 12.042 12.043 12.042 12.042-5.4 12.042-12.042-5.4-12.043-12.042-12.043M893.65 96.235c-6.641 0-12.043 5.401-12.043 12.043s5.402 12.042 12.043 12.042c6.642 0 12.042-5.4 12.042-12.042s-5.4-12.043-12.042-12.043" style="baseline-shift:baseline;display:inline;overflow:visible;vector-effect:none;fill:#dfdfe7;fill-opacity:1;stroke-width:.515891;stop-color:#000" transform="rotate(90 894.176 134.8)"/></g></g></g></svg>