<svg xmlns="http://www.w3.org/2000/svg" xml:space="preserve" width="1000" height="500"><path d="M335.547 32.072c-10.036.007-16.123 3.885-18.205 11.618-1.182 4.388-2.623 6.327-5.52 7.394-7.153 2.634-30.574 19.226-32.526 23.04-3.27 6.391-17.467 24.7-27.328 45.45-10.957 23.06-22.336 59.265-31.097 97.776-5.643 24.808-11.182 65.704-15.056 90.847-10.024 65.05-21.974 157.881 44.03 159.732 14.782-1.16 21.854-6.205 47.873-31.512 31.856-29.163 61.589-60.354 101.794-75.47 35.568-12.344 165.422-12.34 200.976 0 40.205 15.116 69.938 46.307 101.794 75.47 26.02 25.307 33.091 30.351 47.872 31.512 66.005-1.85 54.055-94.683 44.031-159.732-3.874-25.143-9.413-66.04-15.056-90.847-8.761-38.511-20.14-74.716-31.097-97.776-9.86-20.75-24.058-39.059-27.328-45.45-1.952-3.814-25.373-20.406-32.526-23.04-2.897-1.067-4.338-3.006-5.52-7.394-2.082-7.733-8.17-11.611-18.205-11.618-10.566-.008-17.09 3.881-18.536 11.059-1.065 5.292-1.72 5.872-10.2 9.133-108.718 44.473-162.803 44.437-271.434 0-8.48-3.26-9.135-3.84-10.2-9.133-1.446-7.178-7.97-11.067-18.536-11.06" style="display:inline;fill:#dfdfe7;stroke-width:5.30194;fill-opacity:1"/><g style="fill:#000" transform="translate(175.423 24.792)scale(5.30194)"><path d="M38.906 37.101a1.33 1.33 0 0 0-1.335 1.336v3.584a.47.47 0 0 1-.471.47h-3.584a1.33 1.33 0 0 0-1.336 1.336v3.486a1.33 1.33 0 0 0 1.336 1.336H37.1a.47.47 0 0 1 .47.47v3.584a1.33 1.33 0 0 0 1.336 1.336h3.487a1.33 1.33 0 0 0 1.335-1.336V49.12a.47.47 0 0 1 .47-.47h3.585a1.33 1.33 0 0 0 1.335-1.336v-3.486a1.33 1.33 0 0 0-1.335-1.336h-3.584a.47.47 0 0 1-.471-.47v-3.584a1.33 1.33 0 0 0-1.335-1.336Z" style="fill:#000;fill-opacity:1;fill-rule:evenodd;stroke:none;stroke-width:.566402;stroke-miterlimit:7;paint-order:stroke markers fill"/><g style="fill:#000"><path d="M90.443 146.794c-15.81 0-28.648 12.839-28.648 28.65s12.837 28.65 28.648 28.65 28.65-12.84 28.65-28.65c0-15.811-12.838-28.65-28.65-28.65m0 2c14.73 0 26.65 11.92 26.65 26.65s-11.92 26.65-26.65 26.65-26.648-11.92-26.648-26.65 11.918-26.65 26.648-26.65" style="baseline-shift:baseline;display:inline;overflow:visible;vector-effect:none;fill:#000;fill-opacity:1;stop-color:#000" transform="translate(81.249 1.311)scale(.15184)"/><path d="M89.763 126C62.303 126 40 148.303 40 175.762s22.305 49.762 49.764 49.762 49.76-22.303 49.76-49.762S117.223 126 89.764 126m0 6c24.193 0 43.76 19.57 43.76 43.762s-19.567 43.762-43.76 43.762c-24.191 0-43.763-19.57-43.763-43.762S65.571 132 89.765 132" style="baseline-shift:baseline;display:inline;overflow:visible;vector-effect:none;fill:#000;fill-opacity:1;stroke:none;stroke-width:4;stroke-opacity:1;stop-color:#000" transform="translate(81.249 1.311)scale(.15184)"/></g><g style="fill:#000"><path d="M90.443 146.794c-15.81 0-28.648 12.839-28.648 28.65s12.837 28.65 28.648 28.65 28.65-12.84 28.65-28.65c0-15.811-12.838-28.65-28.65-28.65m0 2c14.73 0 26.65 11.92 26.65 26.65s-11.92 26.65-26.65 26.65-26.648-11.92-26.648-26.65 11.918-26.65 26.648-26.65" style="baseline-shift:baseline;display:inline;overflow:visible;vector-effect:none;fill:#000;fill-opacity:1;stop-color:#000" transform="matrix(-.15184 0 0 .15184 41.188 1.311)"/><path d="M89.763 126C62.303 126 40 148.303 40 175.762s22.305 49.762 49.764 49.762 49.76-22.303 49.76-49.762S117.223 126 89.764 126m0 6c24.193 0 43.76 19.57 43.76 43.762s-19.567 43.762-43.76 43.762c-24.191 0-43.763-19.57-43.763-43.762S65.571 132 89.765 132" style="baseline-shift:baseline;display:inline;overflow:visible;vector-effect:none;fill:#000;fill-opacity:1;stroke:none;stroke-width:4;stroke-opacity:1;stop-color:#000" transform="matrix(-.15184 0 0 .15184 41.188 1.311)"/></g><circle cx="61.219" cy="45.709" r="2.683" style="font-variation-settings:normal;vector-effect:none;fill:#000;fill-opacity:1;fill-rule:evenodd;stroke-width:7.03902;stroke-linecap:butt;stroke-linejoin:miter;stroke-miterlimit:4;stroke-dasharray:none;stroke-dashoffset:0;stroke-opacity:1;-inkscape-stroke:none;stop-color:#000"/><g style="fill:#000;fill-opacity:1"><circle cx="61.219" cy="31.906" r="2.683" style="font-variation-settings:normal;opacity:1;vector-effect:none;fill:#000;fill-opacity:1;fill-rule:evenodd;stroke-width:7.03902;stroke-linecap:butt;stroke-linejoin:miter;stroke-miterlimit:4;stroke-dasharray:none;stroke-dashoffset:0;stroke-opacity:1;-inkscape-stroke:none;stop-color:#000"/><circle cx="70.738" cy="31.906" r="2.683" style="font-variation-settings:normal;opacity:1;vector-effect:none;fill:#000;fill-opacity:1;fill-rule:evenodd;stroke-width:7.03902;stroke-linecap:butt;stroke-linejoin:miter;stroke-miterlimit:4;stroke-dasharray:none;stroke-dashoffset:0;stroke-opacity:1;-inkscape-stroke:none;stop-color:#000"/><circle cx="-51.699" cy="31.906" r="2.683" style="font-variation-settings:normal;opacity:1;vector-effect:none;fill:#000;fill-opacity:1;fill-rule:evenodd;stroke-width:7.03902;stroke-linecap:butt;stroke-linejoin:miter;stroke-miterlimit:4;stroke-dasharray:none;stroke-dashoffset:0;stroke-opacity:1;-inkscape-stroke:none;stop-color:#000" transform="scale(-1 1)"/></g><g style="fill:#000;fill-opacity:1" transform="translate(72.489 34.79)scale(.17194)"><circle cx="15.096" cy="63.884" r="22.338" style="font-variation-settings:normal;vector-effect:none;fill:#000;fill-opacity:1;fill-rule:evenodd;stroke-width:44.661;stroke-linecap:butt;stroke-linejoin:miter;stroke-miterlimit:4;stroke-dasharray:none;stroke-dashoffset:0;stroke-opacity:1;-inkscape-stroke:none;stop-color:#000"/><circle cx="-101.977" cy="63.884" r="22.338" style="font-variation-settings:normal;vector-effect:none;fill:#000;fill-opacity:1;fill-rule:evenodd;stroke-width:44.661;stroke-linecap:butt;stroke-linejoin:miter;stroke-miterlimit:4;stroke-dasharray:none;stroke-dashoffset:0;stroke-opacity:1;-inkscape-stroke:none;stop-color:#000" transform="scale(-1 1)"/><circle cx="20.443" cy="-58.536" r="22.338" style="font-variation-settings:normal;vector-effect:none;fill:#000;fill-opacity:1;fill-rule:evenodd;stroke-width:44.661;stroke-linecap:butt;stroke-linejoin:miter;stroke-miterlimit:4;stroke-dasharray:none;stroke-dashoffset:0;stroke-opacity:1;-inkscape-stroke:none;stop-color:#000" transform="rotate(90)"/><circle cx="-107.324" cy="-58.536" r="22.338" style="font-variation-settings:normal;vector-effect:none;fill:#000;fill-opacity:1;fill-rule:evenodd;stroke-width:44.661;stroke-linecap:butt;stroke-linejoin:miter;stroke-miterlimit:4;stroke-dasharray:none;stroke-dashoffset:0;stroke-opacity:1;-inkscape-stroke:none;stop-color:#000" transform="scale(1 -1)rotate(90)"/></g><g style="fill:#000;fill-opacity:1"><rect width="1.148" height="1.215" x="53.669" y="58.59" ry=".177" style="opacity:1;fill:#000;fill-opacity:1"/><rect width="1.148" height="1.215" x="58.319" y="58.59" ry=".177" style="opacity:1;fill:#000;fill-opacity:1"/><rect width="1.148" height="1.215" x="62.969" y="58.59" ry=".177" style="opacity:1;fill:#000;fill-opacity:1"/><rect width="1.148" height="1.215" x="67.62" y="58.59" ry=".177" style="opacity:1;fill:#000;fill-opacity:1"/></g></g></svg>