<?xml version="1.0" encoding="UTF-8" standalone="no"?>
<svg
   xml:space="preserve"
   width="256"
   height="144"
   version="1.1"
   id="svg2"
   sodipodi:docname="logo.svg"
   inkscape:version="1.4.2 (ebf0e940d0, 2025-05-08)"
   xmlns:inkscape="http://www.inkscape.org/namespaces/inkscape"
   xmlns:sodipodi="http://sodipodi.sourceforge.net/DTD/sodipodi-0.dtd"
   xmlns:xlink="http://www.w3.org/1999/xlink"
   xmlns="http://www.w3.org/2000/svg"
   xmlns:svg="http://www.w3.org/2000/svg"><defs
     id="defs2"><linearGradient
       id="linearGradient2"
       inkscape:collect="always"><stop
         style="stop-color:#a1a0a0;stop-opacity:1;"
         offset="0"
         id="stop2" /><stop
         style="stop-color:#9f9f9f;stop-opacity:1;"
         offset="0.51991576"
         id="stop4" /><stop
         style="stop-color:#828282;stop-opacity:1;"
         offset="0.69286346"
         id="stop5" /><stop
         style="stop-color:#656666;stop-opacity:1;"
         offset="0.94659775"
         id="stop3" /></linearGradient><linearGradient
       inkscape:collect="always"
       xlink:href="#linearGradient2"
       id="linearGradient3"
       x1="36.514"
       y1="19.321064"
       x2="122.82947"
       y2="147.64444"
       gradientUnits="userSpaceOnUse" /></defs><sodipodi:namedview
     id="namedview2"
     pagecolor="#ffffff"
     bordercolor="#000000"
     borderopacity="0.25"
     inkscape:showpageshadow="2"
     inkscape:pageopacity="0.0"
     inkscape:pagecheckerboard="0"
     inkscape:deskcolor="#d1d1d1"
     inkscape:zoom="4"
     inkscape:cx="155.25"
     inkscape:cy="94.125"
     inkscape:window-width="1536"
     inkscape:window-height="888"
     inkscape:window-x="0"
     inkscape:window-y="0"
     inkscape:window-maximized="1"
     inkscape:current-layer="svg2" /><path
     fill="#858585"
     d="M 249.598,133.549 C 241.722,119.13 227.753,98.255 220.259,89.708 207.702,75.383 188.588,59.676 172.684,50.613 144.292,34.433 103.731,28.666 79.694,37.391 c -6.817,2.474 -12.881,6.439 -14.513,9.488 -0.887,1.658 -0.51,1.648 6.236,-0.169 58.386,-15.72 109.681,39.532 109.681,56.85 0,2.221 -0.553,1.983 -8.25,-3.55 -11.042,-7.939 -30.98,-18.106 -44.144,-22.51 -13.208,-4.42 -14.994,-4.323 -15.42,0.837 -0.593,7.2 9.006,17.7 13.247,21.962 1.065,1.07 0.74,1.816 -0.756,1.608 -7.902,-1.099 -31.212,-6.052 -45.43,-27.124 l -3.205,-4.75 -6.27,0.02 c -9.564,0.03 -26.352,2.571 -35.272,5.34 -4.4,1.366 -11.178,3.484 -15.063,4.708 -4.971,1.565 -8.148,2.021 -10.72,1.538 -4.408,-0.826 -9.717,-5.045 -9.717,-7.72 0,-1.065 2.672,-4.808 5.938,-8.319 4.375,-4.702 6.104,-7.393 6.57,-10.224 3.34,-20.263 12.497,-32.473 30.992,-41.329 38.265,-18.32 83.816,-9.25 97.495,-5.853 l 8.756,2.175 4.375,-2.531 c 11.97,-6.368 28.674,-9.073 41.86,-4.456 4.606,1.775 10.014,6.165 10.014,8.13 0,1.912 -18.96,3.974 -22.965,11.457 -1.162,2.171 -1.714,1.642 13.515,12.94 11.44152,8.879161 26.867,24.908 34.77,36.78 23.782,35.723 24.525,67.73 24.481,68.251 -0.29,3.472 -0.503,3.222 -6.3,-7.391"
     id="path1"
     style="fill:url(#linearGradient3);fill-opacity:1"
     sodipodi:nodetypes="ccccccscccccscccccscccccccsccccc" /><path
     d="m 180.2,1.085 c -9.18784,0.22816 -18.50418,2.77522 -25.976,6.754 l -4.375,2.53 -8.756,-2.175 C 127.52046,4.78915 81.885863,-4.33589 43.597,14.048 c -12.470001,5.97 -20.695,13.468 -25.754,23.93 -0.22933,0.496 -0.44367,0.956 -0.643,1.38 -0.585,1.22 -1.045,2.347 -1.345,3.316 l -0.004,0.014 h -0.002 v 0.002 l -0.014,0.035 c -0.03,0.09 -0.05,0.19 -0.082,0.278 0.081,-0.158 0.667,-1.515 1.881,-3.338 19.234,-28.878 77.153,-34.196 112.758,-26.53 19.298,4.156 17.927,4.112 24.287,0.737 20.023,-10.622 44.974,-7.422 50.447,-2.902 0.379,0.311 0.676,0.567 0.897,0.755 v -0.004 c 0.01,-0.022 0.032,-0.168 0.06,-0.392 C 206.12,9.964 200.20667,0.19254 180.2,1.085 m 2.41,23.177 c -0.077,2.615 -0.641,7.074 6.319,11.983 16.25,11.463 31.252,26.291 41.437,41.449 9.841,14.646 19.628,37.51501 22.875,55.25001 1.117,6.103 1.86,9.168 2.274,9.926 l 0.02,-0.02 0.019,-0.023 0.035,-0.055 c 0.009,-0.014 0.017,-0.0297 0.025,-0.047 0.0107,-0.0227 0.0207,-0.0467 0.03,-0.072 l 0.01,-0.025 c 0.0187,-0.0507 0.036,-0.10733 0.052,-0.17 l 0.004,-0.016 c 0.021,-0.084 0.038,-0.187 0.055,-0.291 0.042,-0.25 0.074,-0.587 0.106,-0.94 0.009,-0.098 0.018,-0.165 0.027,-0.27 0.10342,-1.32972 -0.79383,-10.01198 -1.60524,-13.21211 -1.653,-9.098 -4.47376,-18.1749 -7.98876,-26.9119 -3.279,-8.167 -7.25,-15.492 -8.336,-17.379 -2.08659,-3.77345 -4.13301,-7.11773 -6.55,-10.748 -21.72025,-32.62341 -40.21264,-39.16715 -48.223,-47.248 -0.10587,-0.12064 -0.20438,-0.24753 -0.295,-0.38 -0.085,-0.12751 -0.157,-0.26318 -0.215,-0.405 -0.0213,-0.0551 -0.0377,-0.112 -0.049,-0.17 l -0.004,-0.012 c -0.009,-0.0482 -0.0149,-0.097 -0.017,-0.146 l -0.002,-0.02 z M 71.418,46.712 c -1.99,0.51 -4.312,1.097 -6.407,1.304 -0.166,0.017 -0.192,0.126 -0.033,0.133 1.147,0.053 6.109,-1.296 19.83,-1.27 60.239,0.107 87.9,43.9 93.555,53.749 1.048,1.826 1.923,3.152 2.594,3.992 0.115,-0.222 0.14,-0.584 0.14,-1.059 l -0.001,-0.06 c -0.008,-0.4767 -0.0472,-0.95237 -0.117,-1.424 -0.009,-0.0733 -0.0187,-0.14767 -0.03,-0.223 -0.032,-0.2 -0.094,-0.421 -0.136,-0.629 -1.398,-7.8 -10.01952,-18.02825 -12.83552,-21.11325 C 165.57153,77.44893 162.57128,74.38932 158.735,71.037 146.93833,60.58978 112.97405,35.51965 71.416,46.71"
     style="fill:#232323;fill-opacity:1"
     id="path2-6"
     sodipodi:nodetypes="cccccccccccccccccccccccscccccccccsccccccscccccccccccccccscccccc" /></svg>
