<svg xmlns="http://www.w3.org/2000/svg" xmlns:xlink="http://www.w3.org/1999/xlink" xml:space="preserve" width="3000" height="3600"><defs><linearGradient id="A"><stop offset="0" style="stop-color:#fff;stop-opacity:1"/><stop offset="1" style="stop-color:#fff;stop-opacity:0"/></linearGradient><linearGradient id="z"><stop offset="0" style="stop-color:#fff;stop-opacity:1"/><stop offset="1" style="stop-color:#fff;stop-opacity:0"/></linearGradient><linearGradient id="y"><stop offset="0" style="stop-color:#fff;stop-opacity:1"/><stop offset="1" style="stop-color:#fff;stop-opacity:0"/></linearGradient><linearGradient id="s"><stop offset="0" style="stop-color:#0f96a4;stop-opacity:1"/><stop offset="1" style="stop-color:#0f96a4;stop-opacity:0"/></linearGradient><linearGradient id="r"><stop offset="0" style="stop-color:#5aadbb;stop-opacity:1"/><stop offset="1" style="stop-color:#5aadbb;stop-opacity:0"/></linearGradient><linearGradient id="o"><stop offset="0" style="stop-color:#006583;stop-opacity:1"/><stop offset="1" style="stop-color:#008392;stop-opacity:1"/></linearGradient><linearGradient id="m"><stop offset="0" style="stop-color:#edbac6;stop-opacity:.33357801"/><stop offset="1" style="stop-color:#edbac6;stop-opacity:0"/></linearGradient><linearGradient id="l"><stop offset="0" style="stop-color:#eec0ca;stop-opacity:1"/><stop offset="1" style="stop-color:#eec0ca;stop-opacity:0"/></linearGradient><linearGradient id="x"><stop offset="0" style="stop-color:#eec0ca;stop-opacity:1"/><stop offset="1" style="stop-color:#eec0ca;stop-opacity:0"/></linearGradient><linearGradient id="k"><stop offset="0" style="stop-color:#e7bac2;stop-opacity:1"/><stop offset="1" style="stop-color:#e7bac2;stop-opacity:0"/></linearGradient><linearGradient id="j"><stop offset="0" style="stop-color:#f2cdd5;stop-opacity:1"/><stop offset="1" style="stop-color:#f2cdd5;stop-opacity:.07213034"/></linearGradient><linearGradient id="w"><stop offset="0" style="stop-color:#fcdee6;stop-opacity:1"/><stop offset="1" style="stop-color:#fcdee6;stop-opacity:0"/></linearGradient><linearGradient id="v"><stop offset="0" style="stop-color:#fcdee6;stop-opacity:1"/><stop offset="1" style="stop-color:#fcdee6;stop-opacity:0"/></linearGradient><linearGradient id="g"><stop offset="0" style="stop-color:#e2b2ba;stop-opacity:1"/><stop offset="1" style="stop-color:#e2b2ba;stop-opacity:0"/></linearGradient><linearGradient id="f"><stop offset="0" style="stop-color:#c695a8;stop-opacity:1"/><stop offset="1" style="stop-color:#d5a8b8;stop-opacity:0"/></linearGradient><linearGradient id="e"><stop offset="0" style="stop-color:#f7dfe4;stop-opacity:1"/><stop offset=".7" style="stop-color:#f2cdd5;stop-opacity:1"/><stop offset="1" style="stop-color:#dfacb5;stop-opacity:1"/></linearGradient><linearGradient id="d"><stop offset="0" style="stop-color:#c695a8;stop-opacity:1"/><stop offset="1" style="stop-color:#c695a8;stop-opacity:0"/></linearGradient><linearGradient id="u"><stop offset="0" style="stop-color:#f7dce5;stop-opacity:1"/><stop offset="1" style="stop-color:#f7dce5;stop-opacity:0"/></linearGradient><linearGradient id="t"><stop offset="0" style="stop-color:#fcdee6;stop-opacity:1"/><stop offset="1" style="stop-color:#fcdee6;stop-opacity:0"/></linearGradient><linearGradient id="c"><stop offset="0" style="stop-color:#f3d3d9;stop-opacity:1"/><stop offset="1" style="stop-color:#f0c7cf;stop-opacity:0"/></linearGradient><linearGradient id="b"><stop offset="0" style="stop-color:#52596b;stop-opacity:1"/><stop offset="1" style="stop-color:#454c5d;stop-opacity:0"/></linearGradient><linearGradient id="a"><stop offset="0" style="stop-color:#52596b;stop-opacity:1"/><stop offset="1" style="stop-color:#52596b;stop-opacity:0"/></linearGradient><linearGradient xlink:href="#a" id="I" x1="961.139" x2="975.663" y1="556.799" y2="479.401" gradientUnits="userSpaceOnUse"/><linearGradient xlink:href="#b" id="J" x1="254.056" x2="285.932" y1="268.828" y2="198.92" gradientUnits="userSpaceOnUse"/><linearGradient xlink:href="#c" id="K" x1="738.795" x2="775.636" y1="332.489" y2="343.132" gradientUnits="userSpaceOnUse"/><linearGradient xlink:href="#d" id="N" x1="292.176" x2="273.233" y1="909.267" y2="931.809" gradientUnits="userSpaceOnUse"/><linearGradient xlink:href="#e" id="E" x1="646.78" x2="465.485" y1="252.349" y2="995.816" gradientUnits="userSpaceOnUse"/><linearGradient xlink:href="#f" id="D" x1="643.006" x2="674.548" y1="981.047" y2="1006.596" gradientUnits="userSpaceOnUse"/><linearGradient xlink:href="#g" id="P" x1="129.926" x2="104.596" y1="719.803" y2="708.048" gradientUnits="userSpaceOnUse"/><linearGradient xlink:href="#j" id="Q" x1="738.579" x2="704.871" y1="901.86" y2="828.262" gradientTransform="rotate(-5.302 1160.475 798.252)" gradientUnits="userSpaceOnUse"/><linearGradient xlink:href="#k" id="S" x1="756.686" x2="745.28" y1="959.24" y2="942.619" gradientUnits="userSpaceOnUse"/><linearGradient xlink:href="#l" id="H" x1="324.052" x2="365.72" y1="82.802" y2="189.007" gradientUnits="userSpaceOnUse"/><linearGradient xlink:href="#m" id="T" x1="841.988" x2="834.493" y1="288.522" y2="299.282" gradientUnits="userSpaceOnUse"/><linearGradient xlink:href="#o" id="U" x1="725.092" x2="724.505" y1="535.202" y2="731.473" gradientUnits="userSpaceOnUse"/><linearGradient xlink:href="#r" id="W" x1="724.506" x2="723.217" y1="731.473" y2="684.891" gradientUnits="userSpaceOnUse"/><linearGradient xlink:href="#s" id="V" x1="727.139" x2="727.598" y1="712.68" y2="648.789" gradientUnits="userSpaceOnUse"/><linearGradient xlink:href="#o" id="Z" x1="725.092" x2="724.505" y1="535.202" y2="731.473" gradientTransform="matrix(.97608 0 0 .98476 -387.291 961.32)" gradientUnits="userSpaceOnUse"/><linearGradient xlink:href="#s" id="aa" x1="727.139" x2="727.598" y1="712.68" y2="648.789" gradientTransform="matrix(.97608 0 0 .98476 -387.291 961.32)" gradientUnits="userSpaceOnUse"/><linearGradient xlink:href="#r" id="ab" x1="724.506" x2="723.217" y1="731.473" y2="684.891" gradientTransform="matrix(.97608 0 0 .98476 -387.291 961.32)" gradientUnits="userSpaceOnUse"/><radialGradient xlink:href="#t" id="L" cx="622.951" cy="218.371" r="147.098" fx="622.951" fy="218.371" gradientTransform="matrix(1 0 0 .60279 0 86.74)" gradientUnits="userSpaceOnUse"/><radialGradient xlink:href="#u" id="M" cx="-187.451" cy="956.823" r="44.783" fx="-187.451" fy="956.823" gradientTransform="matrix(1 0 0 .5 0 478.412)" gradientUnits="userSpaceOnUse"/><radialGradient xlink:href="#u" id="C" cx="-187.451" cy="956.823" r="44.783" fx="-187.451" fy="956.823" gradientTransform="matrix(1 0 0 .5 -918.824 188.242)" gradientUnits="userSpaceOnUse"/><radialGradient xlink:href="#u" id="O" cx="-187.451" cy="956.823" r="44.783" fx="-187.451" fy="956.823" gradientTransform="matrix(.97911 -.20331 .10166 .48956 126.222 144.564)" gradientUnits="userSpaceOnUse"/><radialGradient xlink:href="#v" id="F" cx="391.056" cy="404.509" r="182.267" fx="391.056" fy="404.509" gradientUnits="userSpaceOnUse"/><radialGradient xlink:href="#w" id="R" cx="411.086" cy="1158.781" r="12.278" fx="411.086" fy="1158.781" gradientTransform="matrix(1 0 0 2.1615 -111.276 -1300.726)" gradientUnits="userSpaceOnUse"/><radialGradient xlink:href="#x" id="G" cx="1044.042" cy="493.733" r="91.945" fx="1044.042" fy="493.733" gradientTransform="matrix(1 0 0 1.29958 0 -147.913)" gradientUnits="userSpaceOnUse"/><radialGradient xlink:href="#y" id="Y" cx="763.631" cy="574.833" r="26.524" fx="763.631" fy="574.833" gradientUnits="userSpaceOnUse"/><radialGradient xlink:href="#z" id="X" cx="708.553" cy="708.182" r="30.6" fx="708.553" fy="708.182" gradientTransform="matrix(1 0 0 .76115 0 169.146)" gradientUnits="userSpaceOnUse"/><radialGradient xlink:href="#z" id="ac" cx="708.553" cy="708.182" r="30.6" fx="708.553" fy="708.182" gradientTransform="matrix(.97608 0 0 .74956 -387.291 1127.888)" gradientUnits="userSpaceOnUse"/><radialGradient xlink:href="#y" id="ad" cx="763.631" cy="574.833" r="26.524" fx="763.631" fy="574.833" gradientTransform="matrix(.97608 0 0 .98476 -387.291 961.32)" gradientUnits="userSpaceOnUse"/><radialGradient xlink:href="#A" id="B" cx="-2337.712" cy="-289.712" r="1587.807" fx="-2337.712" fy="-289.712" gradientUnits="userSpaceOnUse"/><radialGradient xlink:href="#A" id="ae" cx="-2337.712" cy="-289.712" r="1587.807" fx="-2337.712" fy="-289.712" gradientUnits="userSpaceOnUse"/><radialGradient xlink:href="#A" id="af" cx="-2337.712" cy="-289.712" r="1587.807" fx="-2337.712" fy="-289.712" gradientUnits="userSpaceOnUse"/><radialGradient xlink:href="#A" id="ag" cx="-2337.712" cy="-289.712" r="1587.807" fx="-2337.712" fy="-289.712" gradientUnits="userSpaceOnUse"/><radialGradient xlink:href="#A" id="ah" cx="-2337.712" cy="-289.712" r="1587.807" fx="-2337.712" fy="-289.712" gradientUnits="userSpaceOnUse"/></defs><rect width="3000" height="3600" ry=".398" style="fill:#caeffd;fill-opacity:1;stroke-width:4;stroke-linecap:round"/><path d="M-1060.756 987.244-2123.787 626.76l-899.607 671.335 14.346-1122.398-916.471-648.123 1071.897-333.196 333.196-1071.897 648.123 916.471 1122.398-14.346-671.335 899.607z" style="fill:url(#B);stroke-width:4;stroke-linecap:round" transform="rotate(15 -7816.178 14064.537)scale(.90493)"/><path d="M-1060.756 987.244-2123.787 626.76l-899.607 671.335 14.346-1122.398-916.471-648.123 1071.897-333.196 333.196-1071.897 648.123 916.471 1122.398-14.346-671.335 899.607z" style="fill:#fbf79e;fill-opacity:1;stroke-width:4;stroke-linecap:round" transform="rotate(15 -7545.783 12830.198)scale(.75945)"/><path d="M1080.115 1153.849q-.783-.017-1.57.036c-.149.01-.299.032-.449.045-.365.032-.73.065-1.096.117-.345.049-.69.157-1.036.225-.707.139-1.413.274-2.12.489-.437.132-.874.325-1.31.485-.61.225-1.22.437-1.83.716-.457.21-.914.472-1.372.711-.594.311-1.187.613-1.78.974-.466.283-.93.612-1.395.925-.581.391-1.162.778-1.743 1.216-.479.36-.956.762-1.434 1.154-.5.41-1.001.823-1.501 1.266-.97.86-1.934 1.944-2.902 2.926-1.19 1.207-2.379 2.38-3.564 3.766-.922 1.077-1.838 2.316-2.756 3.497-1.154 1.484-2.308 2.949-3.456 4.59-.939 1.343-1.87 2.818-2.805 4.262a164 164 0 0 0-2.956 4.697c-1.906 3.173-3.763 7.026-5.645 10.585-2.135 4.037-4.262 7.973-6.36 12.461-3.45 7.381-6.589 16.781-9.915 25.217-4.498 11.404-9.013 22.227-13.218 35.108-3.136 9.599-5.85 19.894-8.787 30.063-3.532 12.222-6.98 23.811-10.177 36.515-5.25 20.835-7.8 39.416-11.96 60.232-6.015 30.01-12.54 59.65-15.699 85.479-1.001 8.146-1.58 14.816-2.253 22.23-1.139 12.518-2.314 24.987-2.433 34.832-.023 1.834-.127 3.843-.112 5.568.033 3.867.282 7.06.51 10.346.204 2.962.315 6.192.682 8.642.045.299.037.764.084 1.055a617.93 609.156 0 0 1 .084-.083c.633 3.845 1.42 7.195 2.501 9.549 4.458 2.732-182.215 191.327-154.945 469.272-3.411-1.944-11.603-2.765-22.205-2.714a.9.9 0 0 0-.384-.031h.002c-19.698-.148-47.89 3.26-71.532 8.75a258 258 0 0 0-8.554 2.086 32.749 65.498 78.27 0 0-4.461.845c-8.218 2.517-15.397 5.288-20.802 8.208-4.665 2.462-8.006 5.092-9.564 7.852a9 9 0 0 0-.198.372l-.066.124q-.15.307-.27.616a19 19 0 0 0-.726 2.355c-.066.272-.099.556-.153.833-.106.539-.214 1.077-.277 1.631-.037.319-.043.648-.066.971-.037.531-.075 1.062-.076 1.606 0 .36.025.73.04 1.096.022.525.046 1.05.1 1.585.038.376.096.758.15 1.138.074.533.153 1.068.258 1.61.077.405.17.814.265 1.223q.15.651.329 1.312s0 .01.002.01c.241.903.603 1.845.919 2.772.39 1.147.784 2.293 1.284 3.474h.002c.366.866.802 1.751 1.225 2.635a72 72 0 0 0 1.818 3.59c.5.91 1.047 1.832 1.6 2.757a99 99 0 0 0 1.873 3h.002c1.34 2.074 3.042 4.225 4.616 6.355 1.38 1.868 2.51 3.678 4.055 5.581.376.463.97.955 1.356 1.42.74.893 1.27 1.743 2.043 2.642a32.749 65.498 78.27 0 0 .465-.022c33.805 39.341 97.968 83.608 134.848 98.561 2.857 1.166 5.563 2.176 8.058 2.973 2.565.81 4.992 1.493 7.114 1.877.012 0 .022 0 .034.01 1.047.192 2.041.335 2.97.417.946.08 1.851.123 2.667.085q.601-.025 1.155-.095c.156-.021.304-.051.454-.078a10 10 0 0 0 .924-.203c.162-.045.328-.086.48-.138l.204-.072c.28-.105.549-.218.797-.35h.016q.04.002.14.113c.019.019.047.06.068.085.09.106.235.308.379.508.202.281.411.578.717 1.04l.024.039.085.129c-.01-.012-.037-.06-.045-.072.158.24.323.495.508.78 13.188 20.403 92.212 154.316 152.765 209.431-.695.087-1.442.192-2.252.312-2.823.42-5.789 1.046-8.841 1.805-1.012.252-2.076.59-3.11.878-1.904.529-3.82 1.088-5.794 1.733-2.335.764-4.836 1.89-7.254 2.807-4.491 1.705-8.988 3.483-13.69 5.677-2.225 1.038-4.442 2.23-6.699 3.368a285 285 0 0 0-20.065 11.176c-2.069 1.26-4.072 2.401-6.134 3.724-2.949 1.89-5.658 4.046-8.575 6.052a317 317 0 0 0-27.006 20.782c-4.039 3.465-8.025 6.776-11.766 10.368-1.943 1.866-3.82 3.677-5.668 5.568-6.748 6.906-13.06 13.897-18.2 20.938a32.749 65.498 68.293 0 0-8.735 13.61c-14.712 26.779-13.118 51.884 19.559 66.335 26.766 11.838 109.534 23.043 198.717-8.127a349 349 0 0 0 40.342-17 343 343 0 0 0 40.204-23.545c7.298-4.985 17.077-13.976 20.59-18.493 79.793 35.41 166.304 53.72 253.812 53.72 73.917 0 112.55-4.976 112.55-4.976l.758.742 10.758 10.552c11.353 11.135 23.66 21.25 36.502 30.556 4.315 3.126 8.919 5.632 13.358 8.547 8.781 5.766 17.527 11.491 26.671 16.412 1.116.601 2.141 1.42 3.262 2.007-.018-.153-.01-.308-.026-.461 76.425 40.157 161.783 50.943 207.927 25.39 7.802-4.32 13.852-12.372 15.814-23.541a65.498 32.749 21.707 0 0 .155-.374 65.498 32.749 21.707 0 0 .3-12.51c-2.428-26.975-25.097-65.923-87.567-111.71-2.503-1.744-4.091-2.764-5.312-3.137a46 46 0 0 0 2.52-3.692 75 75 0 0 0 2.553-4.487v-.01c5.124-9.723 10.296-23.783 14.567-39.506v-.01c0-.012.01-.02.011-.033l.05-.146c225.512-156.53 257.371-393.1 261.871-456.42q.07-.303.163-.598c.946-2.949 3.878-5.395 12.615-10.506h.01c145.786-89.978 222.873-232.818 251.25-295.558 8.76-19.37 6.047-30.904-10.076-42.852-115.837-79.287-252.53-83.757-387.709-92.348 0 0-52.246-27.836-66.532-55.287-.22-.424-.459-.848-.661-1.272-.219-.458-.396-.917-.592-1.375l-.126-.29c-.16-.384-.343-.768-.487-1.15-.242-.644-.43-1.284-.625-1.925-.09-.298-.206-.597-.285-.895q-.377-1.405-.586-2.798c-.314-2.083-1.309-7-2.784-13.151-.489-2.071-.994-3.654-1.665-6.124-.785-2.91-1.268-5.218-2.346-8.623q-1.107-2.85-2.266-5.718c-.2-.495-.43-.918-.632-1.411-8.293-24.061-23.226-55.872-51.954-87.28-.351-.407-.677-.89-1.03-1.294l.063-.117q-1.364-1.471-2.769-2.936a45 45 0 0 0-2.105-2.168 250 250 0 0 0-3.007-3.01c-.657-.637-1.341-1.14-2.001-1.767l-.033-.027c-5.873-5.581-11.823-10.771-17.854-15.517-2.232-1.757-4.5-3.24-6.75-4.888-4.54-3.326-9.084-6.58-13.681-9.479-2.662-1.678-5.336-3.162-8.012-4.704-4.26-2.454-8.518-4.817-12.804-6.94a230 230 0 0 0-8.394-3.923 232 232 0 0 0-12.685-5.231c-2.774-1.046-5.534-2.08-8.304-3.007-4.37-1.463-8.714-2.731-13.062-3.914-2.569-.699-5.133-1.459-7.69-2.065-2.116-.502-4.178-.822-6.284-1.263-11.346-2.378-22.571-4.112-33.462-4.938-.185-.014-.374-.05-.558-.063a284 284 0 0 0-31.225-.563c-.444.016-.84.08-1.282.098-.827.034-1.69.02-2.511.062-3.52.173-6.726.617-10.13.902-4.107.343-8.265.605-12.185 1.086-2.316.283-4.457.627-6.702.951-2.404.347-4.609.71-6.926 1.097-2.55.424-5.063.794-7.5 1.258-2.862.544-4.977 1.131-7.673 1.716-8.627 1.863-16.253 3.746-22.964 5.716-.896.263-2.301.506-3.16.766-.559.187-1.103.378-1.657.566-.51.158-1.252.327-1.747.484a34 34 0 0 1-.995.452c-.01 0-.01 0-.014.01-.564.247-1.855.66-2.553.938-.484.193-1.226.444-1.77.65-2.332.885-4.317 1.69-7.584 2.786-.01 0-.014.01-.022.01-17.136 5.747-45.254 13.92-64.839 19.493h-.01c-12.838 3.654-22.008 6.19-22.008 6.19-.313-.31-4.125-3.88-4.786-4.53a617.93 609.156 0 0 1 .153-.016c-.264-.257-1.853-1.584-2.136-1.86-12.688-12.436-63.08-60.865-126.798-110.426-8.104-6.32-15.108-11.428-23.447-17.566-7.314-5.384-14.402-10.731-21.8-15.846-9.835-6.802-19.489-12.651-29.286-18.73-7.417-4.603-14.844-9.611-22.132-13.657-4.21-2.337-8.327-4.452-12.47-6.571-3.451-1.767-6.92-3.616-10.314-5.215-4.709-2.22-9.255-4.04-13.828-5.907-3.096-1.265-6.254-2.697-9.277-3.785-4.948-1.782-9.654-3.027-14.376-4.298-2.518-.678-5.163-1.637-7.608-2.158-2.236-.477-4.406-.82-6.576-1.16-1.105-.173-2.244-.421-3.33-.558-3.314-.416-6.552-.677-9.689-.74zM850.061 2224.304c-.168-.26-.318-.488-.463-.708 1.629 2.454 4.591 7.206 8.766 13.917-3.77-6.043-6.615-10.603-8.303-13.21m8.337 13.263.236.378c-.055-.088-.156-.246-.21-.334l.453.727c4.625 7.436 10.582 17.01 17.538 27.98l.017-.036-.645-1.019a4332 4332 0 0 1-17.389-27.696" style="fill:#a9eafe;fill-opacity:1;stroke-width:14.9069;stroke-linecap:round" transform="translate(62.846 -30.852)scale(.9581)"/><path d="m-2832.387-873.937-21.235 68.314-19.861 6.174c-1.125 7.775-1.729 16.748-2.674 25.017-1.474 12.895-3.125 25.2-3.896 39.526-.577 10.676-.53 21.948-.749 33.152-.262 13.468-.614 26.264-.402 40.133.34 22.746 2.826 42.448 4.275 64.876 2.073 32.34 3.522 64.44 7.368 91.72 1.209 8.606 2.443 15.587 3.787 23.353 2.265 13.114 4.48 26.188 7.056 36.289.479 1.88.924 3.964 1.412 5.725 1.093 3.945 2.224 7.142 3.357 10.44 1.02 2.974 2.02 6.247 3.067 8.652.128.293.247.771.375 1.056a644.952 654.243 75 0 1 .063-.11c1.7 3.76 3.422 6.97 5.173 9.081 5.308 1.573-133.92 245.6-29.866 522.38-4.022-1.055-12.625.35-23.453 3.308a.9.9 0 0 0-.4.073c-20.185 5.247-48.083 16.457-70.756 28.55a274 274 0 0 0-8.176 4.477 34.673 69.347 63.27 0 0-4.33 2.087c-7.714 4.826-14.298 9.628-19.025 14.096-4.096 3.795-6.793 7.4-7.63 10.65-.039.147-.069.29-.1.434l-.034.146c0 .012-.01.022-.01.034l-.064 5.012v.009q.037.445.102.893c.05.336.133.674.198 1.01.108.554.215 1.11.363 1.666.098.369.226.739.342 1.109.166.53.335 1.062.537 1.595.141.373.306.746.465 1.12.222.526.45 1.051.705 1.578a40 40 0 0 0 1.301 2.428l.001.002v.008c.496.858 1.122 1.723 1.7 2.584.713 1.066 1.431 2.13 2.265 3.2.613.785 1.3 1.571 1.975 2.358a76 76 0 0 0 2.844 3.175 93 93 0 0 0 2.39 2.38c.88.853 1.796 1.703 2.738 2.555 1.94 1.752 4.27 3.487 6.464 5.234 1.924 1.532 3.574 3.075 5.676 4.597.511.37 1.253.71 1.775 1.08 1.002.71 1.776 1.435 2.813 2.142a34.673 69.347 63.27 0 0 .47-.15c45.352 30.97 123.101 58.659 164.915 63.845 3.241.41 6.286.701 9.056.832 2.845.127 5.514.16 7.79-.028.012-.003.023-.007.039 0a34 34 0 0 0 3.15-.388c.99-.177 1.928-.382 2.751-.645.405-.128.792-.262 1.155-.412.155-.064.297-.136.444-.205q.471-.216.89-.46c.152-.09.31-.18.453-.274l.188-.128a7 7 0 0 0 .719-.577v-.005c.029-.005.088.024.172.078.024.014.065.047.093.067.122.084.326.25.527.415.284.233.58.481 1.019.87l.034.032.061.052.048.043c0 .004.01.01.014.013.143.127.3.27.456.41 2.42 2.158 6.564 6.032 12.317 11.42-5.435-5.077-9.554-8.923-12.009-11.142 19.382 17.558 136.626 132.527 213.523 172.232-.686.28-1.42.59-2.216.934-2.772 1.203-5.634 2.656-8.548 4.269-.966.535-1.961 1.174-2.94 1.751a141 141 0 0 0-5.45 3.36c-2.18 1.42-4.429 3.256-6.65 4.858-4.126 2.974-8.236 6.025-12.444 9.557-1.99 1.671-3.933 3.498-5.928 5.28-5.881 5.248-11.684 10.873-17.457 16.927-1.77 1.856-3.507 3.573-5.254 5.49-2.498 2.742-4.677 5.687-7.11 8.538a336 336 0 0 0-21.926 28.656c-3.181 4.65-6.35 9.129-9.19 13.828-1.477 2.441-2.9 4.808-4.272 7.248-5.009 8.911-9.546 17.79-12.874 26.4a34.673 69.347 53.293 0 0-5.206 16.31c-7.707 31.419.805 56.658 38.183 62.483 30.618 4.771 118.332-6.452 200.997-62.768a369 369 0 0 0 36.6-28.438 363 363 0 0 0 34.662-35.098c6.098-7.098 13.637-18.972 15.992-24.555 91.307 14.348 184.796 9.366 274.289-14.613 75.594-20.256 113.741-35.93 113.741-35.93l.978.552 13.893 7.842c14.662 8.276 30.021 15.249 45.704 21.247 5.269 2.015 10.664 3.316 16.002 5.08 10.56 3.491 21.075 6.95 31.775 9.476 1.306.309 2.579.865 3.886 1.16-.06-.152-.096-.312-.154-.464 89.163 20.125 179.413 7.766 219.602-31.012 6.795-6.556 10.776-16.45 9.722-28.41a69.347 34.673 6.707 0 0 .056-.424 69.347 34.673 6.707 0 0-3.12-12.878c-9.875-26.921-43.73-60.54-120.165-90.248-3.038-1.097-4.943-1.704-6.293-1.752a49 49 0 0 0 1.565-4.465c.492-1.63.951-3.4 1.381-5.29v-.01c2.577-11.348 4.013-27.144 4.073-44.394v-.014l-.001-.002v-.027l-.001-.004c0-.054.01-.11.012-.164 187.734-221.878 155.49-472.545 142.74-538.535q-.015-.329 0-.656c.16-3.275 2.488-6.58 10.022-14.2l.01-.004c124.438-131.969 164.132-299.172 175.96-371.111 3.651-22.21-2.284-33.264-22.046-41.065-140.192-49.343-281.214-16.456-421.813 11.8 0 0-61.059-14.15-83.19-38.31-.343-.373-.702-.74-1.025-1.119-.35-.41-.657-.829-.984-1.243l-.207-.264c-.27-.348-.56-.69-.813-1.043-.423-.591-.792-1.194-1.166-1.796-.174-.28-.376-.554-.539-.836a27 27 0 0 1-1.364-2.703c-.893-2.043-3.257-6.799-6.452-12.685-1.067-1.984-2.017-3.465-3.38-5.808-1.6-2.76-2.727-4.99-4.762-8.176a466 466 0 0 0-3.886-5.225c-.34-.452-.69-.823-1.032-1.271-15.074-22.335-39.064-50.775-77.05-75.023-.471-.32-.937-.723-1.407-1.04q.015-.07.032-.137a264 264 0 0 0-3.636-2.246 48 48 0 0 0-2.747-1.64 265 265 0 0 0-3.9-2.252c-.848-.472-1.683-.798-2.53-1.26l-.042-.018c-7.535-4.1-15.043-7.776-22.51-10.977-2.765-1.185-5.492-2.082-8.244-3.15-5.554-2.157-11.093-4.24-16.59-5.945-3.181-.987-6.322-1.77-9.481-2.614-5.03-1.342-10.033-2.592-14.997-3.588a246 246 0 0 0-9.66-1.713 246 246 0 0 0-14.406-1.875c-3.123-.31-6.23-.61-9.316-.798-4.87-.299-9.662-.406-14.432-.424-2.818-.01-5.648-.084-8.43-.004-2.301.067-4.496.304-6.771.43-12.255.677-24.21 1.98-35.576 4.12-.192.036-.397.05-.588.087a301 301 0 0 0-32.088 7.981c-.45.138-.835.312-1.283.451-.836.262-1.724.486-2.552.752-3.552 1.142-6.709 2.475-10.111 3.699-4.108 1.477-8.288 2.885-12.165 4.45-2.29.925-4.387 1.863-6.594 2.81a327 327 0 0 0-6.782 3.02c-2.492 1.133-4.96 2.198-7.326 3.341-2.777 1.34-4.78 2.52-7.378 3.857-8.311 4.27-15.594 8.285-21.917 12.139-.845.514-2.215 1.148-3.022 1.649-.52.345-1.024.688-1.539 1.033-.478.301-1.191.677-1.655.972q-.405.345-.893.736l-.01.002v.013c-.51.406-1.715 1.185-2.353 1.66-.442.33-1.133.79-1.633 1.15-2.142 1.544-3.952 2.911-6.993 4.927v.017c-15.95 10.573-42.466 26.637-60.968 37.703l-.01.003a3587 3587 0 0 1-20.813 12.36c-.404-.23-5.28-2.836-6.135-3.32a644.952 654.243 75 0 1 .152-.058c-.34-.19-2.328-1.113-2.693-1.316-16.384-9.243-81.19-44.96-159.935-78.185-10.019-4.242-18.582-7.548-28.793-11.54-8.955-3.501-17.67-7.029-26.638-10.233-11.921-4.26-23.397-7.596-35.082-11.128-8.847-2.675-17.813-5.763-26.375-7.904-4.946-1.237-9.738-2.27-14.554-3.302-4.015-.86-8.07-1.8-11.978-2.507-5.424-.98-10.573-1.596-15.76-2.253-3.514-.444-7.133-1.042-10.523-1.327-5.55-.466-10.704-.45-15.881-.457-2.761-.003-5.728-.259-8.372-.122-2.417.125-4.73.369-7.043.616-1.177.125-2.411.185-3.56.343q-2.368.325-4.658.739zm64.806 1170.252.305.287-.293-.273.649.608c6.768 6.337 15.482 14.496 25.602 23.81 0-.015.01-.03.01-.044l-.938-.864c-9.992-9.196-18.65-17.283-25.333-23.524z" style="fill:#d2f2fe;fill-opacity:1;stroke-width:4;stroke-linecap:round" transform="rotate(15 -7816.178 14064.537)scale(.90493)"/><path d="m1191.62 1199.077-79.27 125.547-121.744 4.82a556 556 0 0 0-1.668 6.451c-5.25 20.835-7.8 39.416-11.96 60.232-6.015 30.01-12.54 59.65-15.699 85.479-1.001 8.146-1.58 14.816-2.253 22.23-1.139 12.518-2.314 24.987-2.434 34.832-.022 1.834-.126 3.843-.112 5.568.033 3.866.283 7.06.51 10.346.204 2.962.316 6.192.683 8.642.045.298.037.764.084 1.055a617.93 609.156 0 0 1 .084-.083c.633 3.845 1.42 7.195 2.501 9.549 4.458 2.732-182.215 191.327-154.946 469.272-2.764-1.576-8.67-2.413-16.454-2.647l3.085 3.71-37.445 132.931c24.926 17.904 50.253 32.755 68.732 40.247 2.856 1.166 5.563 2.177 8.058 2.973 2.564.81 4.992 1.493 7.113 1.878.013 0 .023-.001.035.01 1.047.192 2.041.335 2.969.416.947.08 1.852.125 2.668.086q.601-.025 1.155-.095c.156-.02.303-.05.454-.077a10 10 0 0 0 .924-.203c.162-.045.328-.085.48-.138l.204-.072c.28-.105.549-.218.796-.35v-.002h.001v-.002c.027 0 .075.041.141.114.018.019.047.06.068.084.09.106.235.308.378.507.202.282.412.579.718 1.042l.026.038.077.118-.036-.06.275.422.162.251-.093-.14c1.677 2.554 4.513 7.103 8.463 13.453-3.77-6.042-6.612-10.6-8.301-13.208 13.188 20.404 92.211 154.317 152.763 209.432a100 100 0 0 0-2.25.312c-2.822.42-5.789 1.046-8.84 1.805-1.013.252-2.076.59-3.11.878a133 133 0 0 0-5.794 1.733c-2.336.764-4.837 1.89-7.255 2.807-4.491 1.705-8.988 3.483-13.69 5.677-2.225 1.037-4.442 2.23-6.698 3.368a285 285 0 0 0-20.066 11.175c-2.068 1.26-4.071 2.402-6.134 3.725-2.949 1.89-5.657 4.045-8.574 6.051a317 317 0 0 0-27.007 20.783c-4.039 3.465-8.024 6.775-11.766 10.368-1.943 1.866-3.82 3.677-5.667 5.568-6.749 6.905-13.06 13.897-18.201 20.938a32.749 65.498 68.293 0 0-8.735 13.609c-14.712 26.78-13.118 51.884 19.559 66.336 26.767 11.838 109.534 23.043 198.718-8.127a349 349 0 0 0 40.342-17 343 343 0 0 0 40.204-23.545c7.297-4.985 17.077-13.976 20.59-18.494 52.295 23.208 107.476 39.069 163.931 47.246l44.903-17.899 36.415 24.315q4.279.059 8.56.059c73.918 0 112.551-4.976 112.551-4.976l.757.742 10.76 10.552c11.352 11.134 23.66 21.25 36.501 30.555 4.314 3.127 8.919 5.633 13.358 8.548 8.78 5.766 17.526 11.491 26.67 16.412 1.117.601 2.142 1.42 3.262 2.007-.019-.153-.01-.308-.026-.461 76.426 40.157 161.783 50.943 207.928 25.39 7.802-4.32 13.852-12.372 15.814-23.542a65.498 32.749 21.707 0 0 .155-.373 65.498 32.749 21.707 0 0 .3-12.511c-2.429-26.974-25.097-65.922-87.567-111.709-2.503-1.744-4.091-2.764-5.312-3.138a46 46 0 0 0 2.52-3.691 75 75 0 0 0 2.553-4.487v-.01c5.124-9.723 10.296-23.783 14.567-39.506v-.01c0-.01.013-.016.01-.028.013-.049.034-.097.048-.146 225.512-156.53 257.372-393.1 261.872-456.42q.069-.304.16-.599c.946-2.949 3.878-5.395 12.614-10.506h.01c145.787-89.978 222.874-232.818 251.25-295.558 8.761-19.37 6.047-30.904-10.075-42.853-115.837-79.286-252.53-83.756-387.71-92.347 0 0-52.246-27.836-66.532-55.287-.22-.424-.458-.848-.66-1.272-.22-.459-.396-.917-.593-1.375-.04-.097-.085-.194-.125-.29-.16-.384-.343-.768-.487-1.15-.242-.644-.431-1.284-.625-1.925-.09-.298-.206-.597-.286-.895a25 25 0 0 1-.585-2.798c-.315-2.083-1.31-7-2.785-13.152-.488-2.07-.993-3.653-1.664-6.123-.786-2.91-1.268-5.219-2.346-8.623a441 441 0 0 0-2.267-5.718c-.2-.495-.43-.919-.631-1.411-8.293-24.062-23.227-55.872-51.955-87.28-.35-.407-.677-.89-1.03-1.294l.064-.117q-1.365-1.471-2.77-2.936a45 45 0 0 0-2.104-2.169 250 250 0 0 0-3.007-3.008c-.658-.638-1.342-1.14-2.002-1.768l-.033-.028c-5.872-5.581-11.823-10.771-17.853-15.518-2.232-1.756-4.501-3.24-6.75-4.888-4.54-3.325-9.084-6.58-13.682-9.478-2.662-1.678-5.335-3.162-8.012-4.704-4.26-2.454-8.518-4.817-12.803-6.94a230 230 0 0 0-8.394-3.924 232 232 0 0 0-12.685-5.23c-2.774-1.046-5.535-2.08-8.305-3.007-4.37-1.463-8.714-2.731-13.061-3.914-2.57-.699-5.133-1.459-7.69-2.065-2.117-.502-4.178-.822-6.284-1.264-11.346-2.377-22.571-4.111-33.463-4.938-.184-.014-.373-.05-.557-.064a284 284 0 0 0-31.225-.562c-.445.016-.84.08-1.283.098-.826.034-1.69.02-2.51.062-3.52.173-6.727.617-10.13.901-4.108.344-8.266.606-12.185 1.087-2.317.283-4.458.627-6.702.951-2.405.347-4.61.71-6.926 1.097-2.55.424-5.063.794-7.501 1.258-2.861.544-4.976 1.13-7.673 1.716-8.626 1.863-16.252 3.746-22.963 5.716-.897.262-2.302.506-3.16.766-.56.187-1.104.377-1.658.566-.51.158-1.251.327-1.747.484q-.453.216-.995.452h-.01v.01c-.564.247-1.854.661-2.552.939-.484.193-1.227.444-1.771.65-2.332.885-4.317 1.69-7.584 2.785v.002h-.012v.001c-17.136 5.747-45.255 13.92-64.839 19.494h-.01c-12.838 3.653-22.008 6.19-22.008 6.19-.313-.31-4.125-3.88-4.787-4.531a617.93 609.156 0 0 1 .154-.015c-.264-.256-1.854-1.584-2.136-1.859-12.689-12.437-63.08-60.865-126.799-110.426-8.103-6.32-15.107-11.428-23.447-17.566-7.313-5.384-14.401-10.732-21.8-15.847-9.197-6.361-18.237-11.89-27.383-17.552zM849.9 2224.059l-.068-.11-.233-.351zm8.734 13.886.242.393c4.626 7.436 10.583 17.01 17.539 27.98.003-.012.014-.024.018-.036l-.646-1.019a4277 4277 0 0 1-17.153-27.318" style="fill:#fbf760;fill-opacity:1;stroke-width:3.17062;stroke-linecap:round" transform="translate(62.846 -30.852)scale(.9581)"/><g transform="translate(633.437 1053.481)scale(1.40128)"><path d="M724.637 957.584a425.3 425.3 0 0 1-116.744 40.283l7.355 7.215c59.09 57.953 153.316 80.402 196.706 56.374 18.041-9.99 22.378-49.152-48.749-101.284-3.997-2.785-4.582-2.869-6.52-.932-10.224 8.64-21.733 3.47-32.048-1.656" style="fill:#f2cdd5;fill-opacity:1;stroke-width:10.1923;stroke-linecap:round"/><ellipse cx="-1106.275" cy="666.654" rx="44.783" ry="22.391" style="fill:url(#C);fill-opacity:1;stroke-width:4.37013;stroke-linecap:round" transform="scale(-1 1)rotate(-21.707)"/><path d="M724.637 957.584a425.3 425.3 0 0 1-116.744 40.283l7.355 7.215c16.147 15.836 34.917 29.02 54.557 39.33a78.3 78.3 0 0 1 .187-20.525c4.41-30.963 27.016-55.619 56.5-65.389q-.933-.456-1.855-.914" style="fill:url(#D);fill-opacity:1;stroke-width:10.1923;stroke-linecap:round"/><path d="M296.488 15.11c-46.816-.936-96.933 254.374-81.894 287.097 3.047 1.868-124.587 130.817-105.942 320.857-10.743-6.123-88.829 3.386-94.379 17.848-12.375 32.247 107.21 113.096 123.625 104.31.883-.472 60.766 104.05 105.743 144.989q-.71.09-1.54.213c-48.974 7.277-152.728 91.895-90.24 119.531 23.784 10.519 112.235 20.306 190.942-33.28 4.99-3.408 11.676-9.555 14.078-12.644 54.557 24.211 113.707 36.73 173.539 36.73 50.54 0 76.955-3.402 76.955-3.402l.518.508a425.3 425.3 0 0 0 116.744-40.283c-.324-.16.357.3 1.56 1.015 5.796 3.446 16.98 6.449 23.74 5.453 3.26-.48 6.265-1.859 8.587-4.757 5.159-6.437 9.253-17.937 14.523-34.002 154.19-107.025 175.974-268.776 179.05-312.07.51-2.21 2.365-3.865 8.737-7.592 99.682-61.521 152.39-159.188 171.793-202.086 5.99-13.244 4.135-21.131-6.889-29.3-79.201-54.211-172.664-57.267-265.09-63.141 0 0-44.728-23.816-47.789-44.438-1.052-6.966-9.16-51.727-48.199-90.137-65.996-64.068-149.206-47.205-182.719-36.64-10.045 4.783-68.23 20.87-68.23 20.87-7.044-6.981-146.398-144.234-217.223-145.65" style="fill:url(#E);fill-opacity:1;stroke-width:10.1923;stroke-linecap:round"/><circle cx="391.056" cy="404.509" r="182.267" style="fill:url(#F);fill-opacity:1;stroke-width:4.18123;stroke-linecap:round"/><path d="M243.64 890.21q-.71.09-1.538.214c-48.975 7.277-152.73 91.895-90.24 119.531 23.783 10.519 112.234 20.306 190.94-33.28 4.99-3.408 11.677-9.555 14.079-12.644-70.37-32.586-107.911-68.518-113.24-73.82M93.209 621.185c-26.308-.197-74.773 8.88-78.936 19.727C1.9 673.16 121.483 754.008 137.898 745.222h.002v-.001h.008c.075.009.367.403.86 1.142-2.189-3.948-39.158-126.245-45.559-125.178m45.559 125.178q.026.048.048.08c1.08 1.637 3.17 4.986 6.051 9.604-2.905-4.67-5-8.036-6.1-9.684m6.1 9.684c3.209 5.16 7.407 11.914 12.341 19.695l.012-.025c-4.905-7.73-9.126-14.496-12.354-19.67M108.65 623.064q-162.978-934.596 0 0" style="fill:#f2cdd5;fill-opacity:1;stroke-width:10.1923;stroke-linecap:round"/><path d="m953.951 570.8-1.853 42.423c.509-2.21 2.364-3.865 8.736-7.592 99.682-61.521 152.39-159.188 171.793-202.086 5.99-13.244 4.135-21.131-6.889-29.3-73.481 66.928-114.525 131.037-171.787 196.556" style="fill:url(#G);fill-opacity:1;stroke-width:10.1923;stroke-linecap:round"/><path d="M951.63 380.064c-20 .428-37.401 2.594-48.747 7.012 49.079 91.63 51.068 183.725 51.068 183.725 16.556 4.963 114.08-113.46 133.053-151.754 2.26-4.562 5.227-9.304 6.594-10.541 2.277-2.06 2.905-2.075 7.52-.147 5.76 2.408 7.405 2.608 7.405.897-13.487-16.112-96.888-30.474-156.892-29.192" style="fill:#181c28;fill-opacity:1;stroke-width:7.20705;stroke-linecap:round"/><path d="M296.488 15.11c-44.488-.89-91.956 229.619-83.662 280.624a422.5 416.5 0 0 1 297.717-138.082C488.184 135.885 362.537 16.43 296.488 15.11" style="fill:url(#H);fill-opacity:1;stroke-width:10.1923;stroke-linecap:round"/><path d="M292.51 56.709c-3.23 0-2.707 3.817.972 7.094l3.188 2.84-5.772 7.521c-14.923 19.453-47.722 87.3-42.646 190.23.253 5.135.224 7.865-.357 9.786 45.302-40.124 98.866-70.124 157.025-87.948-7.085-22.349-98.047-129.523-112.41-129.523" style="fill:#181c28;fill-opacity:1;stroke-width:3.60352;stroke-linecap:round"/><path d="M939.48 481.127c13.649 51.573 14.471 89.674 14.471 89.674 9.537 2.859 45.944-35.227 78.725-75.354-20.887-23.132-62.803-28.761-93.196-14.32" style="fill:url(#I);fill-opacity:1;stroke-width:7.20705;stroke-linecap:round"/><path d="M262.496 188.523a67.679 49.661 0 0 0-11.205.684c-3.03 22.351-4.405 47.5-3.04 75.188.254 5.134.225 7.864-.356 9.785a422.7 422.7 0 0 1 77.45-54.418 67.679 49.661 0 0 0-62.849-31.239" style="fill:url(#J);fill-opacity:1;stroke-width:3.60352;stroke-linecap:round"/><path d="M479.666 496.741c6.592 1.72 19.544 7.134 30.215 9.736 22.008 5.365 91.461 9.136 118.777-36.895 16.655-26.983 7.397-56.276-1.486-85.095-1.38-4.512-1.699-6.051 2.31-7.325 16.487-5.242 43.716 4.147 118.378-13.271-1.244 4.748-2.488 9.497-6.339 16.451-19.069 31.692-47.686 63.289-86.13 67.614.9 4.129 1.801 8.258 1.388 16.704-3.386 69.27-97.905 111.552-176.544 39.144-7.392-6.807-7.161-8.782-.57-7.063" style="fill:#e8bfc6;fill-opacity:1;stroke-width:4;stroke-linecap:round"/><path d="M637.08 129.945c-23.016 1.134-42.571 5.982-55.139 9.944-6.747 3.213-35.213 11.524-53.177 16.636a258 258 0 0 0-19.043 11.801c-39.253 26.775-154.194 134.264-92.473 265.211 32.538 69.034 89.874 80.255 111.797 81.965 76.64 5.979 126.914-57.915 112.914-107.852-2.704-9.643-7.474-17.889-12.244-26.134 50.532-5.199 96.064-.913 138.736-32.733 15.766-12.012 36.486-30.179 44.069-48.572 3.538-8.582 4.215-17.212 3.13-25.961-1.439-2.543-2.42-5.087-2.79-7.584-.366-2.418-1.582-9.392-4.647-19.074q-.756-1.95-1.549-3.91c-10.715-26.533-23.873-47.357-38.49-63.592-1.579-1.753-3.272-3.122-4.883-4.77-40.941-38.927-88.269-47.243-126.21-45.375" style="fill:url(#K);fill-opacity:1;stroke-width:4;stroke-linecap:round"/><path d="M639.674 129.836c-22.748.83-42.314 5.374-55.404 9.334q-1.528.512-3.018 1.031c-1.8.786-4.633 1.814-8.14 2.99q-2.625 1.017-5.104 2.045c-50.766 21.038-75.731 60.662-76.76 62.32-8.156 13.15-3.004 15.41-8.176 28.985-1.698 4.46-4.458 10.406-7.218 16.352 7.856-2.124 15.711-4.248 20.914-4.036 5.202.213 7.75 2.76 4.884 9.024s-11.147 16.244-16.03 25.057c-4.885 8.812-6.372 16.457-7.858 24.101 14.014-14.651 28.03-29.302 38.328-39.389 10.298-10.086 16.88-15.608 23.463-21.129 9.555 4.46 19.11 8.92 37.478 10.512 50.405 4.37 159.762-13.535 193.016-74.957a171 171 0 0 0-5.389-5.547c-40.323-39.145-87.073-48.077-124.986-46.693" style="fill:url(#L);fill-opacity:1;stroke-width:4;stroke-linecap:round"/><path d="M630.465 381.258c-9.62-.316-53.39 20.861-55.621 33.047-.816 4.455 1.987 8.98 4.865 13.773 20.672 34.424 3.534 76.943-42.342 78.342-12.574.383-31.058-1.15-49.54-2.684 1.224.966 2.45 1.93 3.816 2.897 15.408 6.163 29.003 8.214 37.402 8.869 76.64 5.979 126.914-57.915 112.914-107.852-2.704-9.643-7.474-17.889-12.244-26.134l1.572-.159a4.2 4.2 0 0 0-.822-.1" style="fill:#eebfc7;fill-opacity:.36591;stroke-width:4;stroke-linecap:round"/><ellipse cx="-187.451" cy="956.823" rx="44.783" ry="22.391" style="fill:url(#M);fill-opacity:1;stroke-width:4.37013;stroke-linecap:round" transform="rotate(-21.707)"/><path d="M243.64 890.21q-.71.09-1.538.214c-7.974 1.185-18.276 4.838-28.2 9.543 43.563 4.647 77.234 39.808 77.256 81.535a78.3 78.3 0 0 1-3.428 22.896c18.268-6.384 36.93-15.37 55.073-27.722 4.99-3.409 11.676-9.556 14.078-12.645-40.036-18.357-79.717-43.355-113.235-73.816z" style="fill:url(#N);fill-opacity:1;stroke-width:10.1923;stroke-linecap:round"/><path d="M52.527 627.355a22.391 44.783 78.27 0 0-17.127 1.817c-11.15 3.415-19.504 7.512-21.127 11.74-3.331 8.682 2.903 20.885 14.112 33.914a22.391 44.783 78.27 0 0 16.12-1.806 22.391 44.783 78.27 0 0 39.296-31.03 22.391 44.783 78.27 0 0-31.274-14.635" style="fill:url(#O);fill-opacity:1;stroke-width:4.37013;stroke-linecap:round"/><path d="M117.396 674.584c-1.863 19.636-11.911 37.813-27.992 50.637 22.313 14.198 42.443 23.24 48.494 20.002h.002v-.002h.008c.075.009.367.403.86 1.142-1.428-2.576-12.696-36.722-21.371-71.78zm21.372 71.78.048.08c1.08 1.636 3.17 4.985 6.051 9.603-2.905-4.67-5-8.036-6.1-9.684M88.904 724.93q-133.356-1087.395 0 0m55.967 31.125c3.21 5.16 7.406 11.91 12.338 19.687l.012-.025a2920 2920 0 0 1-12.35-19.662" style="fill:url(#P);stroke-width:10.1923;stroke-linecap:round"/><path d="M682.403 886.08c11.091 30.797 16.424 57.402 46.156 73.763 9.323 4.745 24.67 7.157 29.965-.548 15.012-16.622 36.33-108.592 5.87-112.348-40.187-4.699-58.468 8.913-81.991 39.134" style="fill:url(#Q);fill-opacity:1;stroke-width:4;stroke-linecap:round"/><ellipse cx="299.81" cy="1203.987" rx="12.278" ry="26.539" style="fill:url(#R);fill-opacity:1;stroke-width:4.12345;stroke-linecap:round" transform="matrix(.78238 -.6228 .40387 .91481 0 0)"/><path d="M396.05 649.451c-1.34 0-1.786.76-1.257 2.137 22.071 57.518 135.84 62.186 135.84 39.022 0-2.522.109-2.531-7.426.699-31.406 12.553-95.866 8.79-124.31-39.446-.421-1.326-1.703-2.412-2.846-2.412" style="fill:#e28b9e;fill-opacity:1"/><path d="M719.76 954.205a76 76 0 0 0 8.799 5.637c9.323 4.745 24.67 7.158 29.966-.547 7.293-8.075 16.074-33.929 19.684-58.815 0 0-28.314 53.013-58.45 53.725" style="fill:url(#S);fill-opacity:1;stroke-width:4;stroke-linecap:round"/><path d="M815.52 282.361c1.862 9.111.93 20.416 0 31.721 24.138-.262 45.128-2.978 45.128-2.978s-44.728-23.816-47.789-44.438c-.305 7.363 1.853 12.276 2.66 15.695" style="fill:url(#T);stroke-width:10.1923;stroke-linecap:round"/><path d="M822.878 638.96c-9.21 69.858-55.315 126.242-119.203 126.242s-115.68-57.122-115.68-127.585 52.616-129.723 116.478-131.575c68.524-1.987 128.25 58.234 118.405 132.917" style="fill:#fff;fill-opacity:1;stroke-width:4.53242;stroke-linecap:round"/><path d="M812.133 635.865c-6.77 52.906-40.662 95.608-87.628 95.608s-85.038-43.26-85.038-96.624c0-53.365 38.68-98.244 85.625-99.647 50.373-1.504 94.279 44.103 87.041 100.663" style="opacity:1;fill:url(#U);fill-opacity:1;stroke-width:3.38183;stroke-linecap:round"/><path d="M723.217 663.164a86.387 64.84 0 0 0-69.098 25.924c15.298 25.58 41.116 42.385 70.387 42.385 29.057 0 53.11-16.346 68.832-41.34a86.387 64.84 0 0 0-70.121-26.969" style="opacity:1;fill:url(#V);fill-opacity:1;stroke-width:3.38183;stroke-linecap:round"/><path d="M723.217 684.89a86.387 64.84 0 0 0-59.338 17.715c15.426 17.819 36.892 28.868 60.627 28.868 23.565 0 43.839-10.75 59.047-28.147a86.387 64.84 0 0 0-60.336-18.435" style="opacity:1;fill:url(#W);fill-opacity:1;stroke-width:3.38183;stroke-linecap:round"/><path d="M708.553 684.89a30.6 25.155 0 0 0-30.6 25.157 30.6 25.155 0 0 0 1.012 6.418c13.165 9.504 28.788 15.008 45.54 15.008h.079a30.6 25.155 0 0 0 14.568-21.426 30.6 25.155 0 0 0-30.6-25.156" style="opacity:1;fill:url(#X);fill-opacity:1;stroke-width:3.38183;stroke-linecap:round"/><path d="M708.553 690.316a24 19.729 0 0 0-24 19.73 24 19.729 0 0 0 6.94 13.876 77 77 0 0 0 17.06 5.853 24 19.729 0 0 0 24-19.728 24 19.729 0 0 0-24-19.73" style="opacity:1;fill:#fff;fill-opacity:1;stroke-width:3.38183;stroke-linecap:round"/><circle cx="763.631" cy="574.833" r="21.536" style="fill:#fff;fill-opacity:1;stroke-width:5.21904;stroke-linecap:round"/><circle cx="763.631" cy="574.833" r="26.524" style="fill:url(#Y);fill-opacity:1;stroke-width:6.42777;stroke-linecap:round"/><path d="M415.907 1590.541c-10.348 66.29-61.7 119.428-121.713 123.754-62.2 4.484-112.614-55.871-107.553-125.076 5.112-69.909 77.278-130.151 127.062-130.698 66.91-.735 113.643 58.738 102.204 132.02" style="fill:#fff;fill-opacity:1;stroke-width:4.44364;stroke-linecap:round" transform="translate(0 -1086.92)"/><g transform="translate(0 -1086.92)"><path d="M405.42 1587.494c-6.61 52.1-39.69 94.151-85.533 94.151-45.842 0-83.004-42.6-83.004-95.152 0-52.55 37.754-96.747 83.577-98.127 49.168-1.482 92.024 43.43 84.96 99.128" style="fill:url(#Z);fill-opacity:1;stroke-width:3.31559;stroke-linecap:round"/><path d="M318.63 1614.377a84.321 63.852 0 0 0-67.446 25.529c14.933 25.191 40.133 41.739 68.704 41.739 28.362 0 51.84-16.096 67.185-40.71a84.321 63.852 0 0 0-68.444-26.558" style="fill:url(#aa);fill-opacity:1;stroke-width:3.31559;stroke-linecap:round"/><path d="M318.63 1635.773a84.321 63.852 0 0 0-57.92 17.445c15.058 17.546 36.01 28.427 59.178 28.427 23.001 0 42.79-10.586 57.634-27.718a84.321 63.852 0 0 0-58.893-18.154" style="fill:url(#ab);fill-opacity:1;stroke-width:3.31559;stroke-linecap:round"/><path d="M304.316 1635.773a29.868 24.771 0 0 0-29.868 24.773 29.868 24.771 0 0 0 .988 6.32c12.85 9.36 28.1 14.779 44.452 14.779h.076a29.868 24.771 0 0 0 14.22-21.1 29.868 24.771 0 0 0-29.868-24.772" style="fill:url(#ac);fill-opacity:1;stroke-width:3.31559;stroke-linecap:round"/><path d="M304.316 1641.116a23.425 19.428 0 0 0-23.426 19.43 23.425 19.428 0 0 0 6.774 13.663 74.8 74.8 0 0 0 16.652 5.764 23.425 19.428 0 0 0 23.426-19.427 23.425 19.428 0 0 0-23.426-19.43" style="fill:#fff;fill-opacity:1;stroke-width:3.31559;stroke-linecap:round"/><ellipse cx="358.077" cy="1527.393" rx="21.021" ry="21.208" style="fill:#fff;fill-opacity:1;stroke-width:5.11681;stroke-linecap:round"/><ellipse cx="358.077" cy="1527.393" rx="25.889" ry="26.119" style="fill:url(#ad);fill-opacity:1;stroke-width:6.30187;stroke-linecap:round"/></g></g><path d="M-1060.756 987.244-2123.787 626.76l-899.607 671.335 14.346-1122.398-916.471-648.123 1071.897-333.196 333.196-1071.897 648.123 916.471 1122.398-14.346-671.335 899.607z" style="fill:url(#ae);stroke-width:4;stroke-linecap:round" transform="rotate(14.999 -1876.436 3779.677)scale(.24917)"/><path d="M-1060.756 987.244-2123.787 626.76l-899.607 671.335 14.346-1122.398-916.471-648.123 1071.897-333.196 333.196-1071.897 648.123 916.471 1122.398-14.346-671.335 899.607z" style="fill:#fbf79e;fill-opacity:1;stroke-width:4;stroke-linecap:round" transform="rotate(15 -1704.21 2695.357)scale(.12384)"/><path d="M-1060.756 987.244-2123.787 626.76l-899.607 671.335 14.346-1122.398-916.471-648.123 1071.897-333.196 333.196-1071.897 648.123 916.471 1122.398-14.346-671.335 899.607z" style="fill:url(#af);stroke-width:4;stroke-linecap:round" transform="scale(-.24917 .24917)rotate(15 -13550.308 -30556.845)"/><path d="M-1060.756 987.244-2123.787 626.76l-899.607 671.335 14.346-1122.398-916.471-648.123 1071.897-333.196 333.196-1071.897 648.123 916.471 1122.398-14.346-671.335 899.607z" style="fill:#fbf79e;fill-opacity:1;stroke-width:4;stroke-linecap:round" transform="matrix(-.11962 .03205 .03205 .11962 2360.51 532.9)"/><path d="M-1060.756 987.244-2123.787 626.76l-899.607 671.335 14.346-1122.398-916.471-648.123 1071.897-333.196 333.196-1071.897 648.123 916.471 1122.398-14.346-671.335 899.607z" style="fill:url(#ag);stroke-width:4;stroke-linecap:round" transform="scale(.24917 -.24917)rotate(15 47340.896 7945.264)"/><path d="M-1060.756 987.244-2123.787 626.76l-899.607 671.335 14.346-1122.398-916.471-648.123 1071.897-333.196 333.196-1071.897 648.123 916.471 1122.398-14.346-671.335 899.607z" style="fill:#fbf79e;fill-opacity:1;stroke-width:4;stroke-linecap:round" transform="scale(.12384 -.12384)rotate(15 96646.247 7228.601)"/><path d="M-1060.756 987.244-2123.787 626.76l-899.607 671.335 14.346-1122.398-916.471-648.123 1071.897-333.196 333.196-1071.897 648.123 916.471 1122.398-14.346-671.335 899.607z" style="fill:url(#ah);stroke-width:4;stroke-linecap:round" transform="rotate(-165.001 1239.36 1355.49)scale(.24917)"/><path d="M-1060.756 987.244-2123.787 626.76l-899.607 671.335 14.346-1122.398-916.471-648.123 1071.897-333.196 333.196-1071.897 648.123 916.471 1122.398-14.346-671.335 899.607z" style="fill:#fbf79e;fill-opacity:1;stroke-width:4;stroke-linecap:round" transform="rotate(-165 1382.203 1378.22)scale(.12384)"/><text xml:space="preserve" x="1515.584" y="384.498" style="font-size:266.667px;line-height:1.5;font-family:&quot;Magic Bubble&quot;;-inkscape-font-specification:&quot;Magic Bubble&quot;;text-align:center;writing-mode:lr-tb;direction:ltr;text-anchor:middle;fill:#a9eafe;fill-opacity:1;stroke-width:4;stroke-linecap:round"><tspan x="1515.584" y="384.498">To Eva!</tspan></text><text xml:space="preserve" x="1515.584" y="377.031" style="font-size:266.667px;line-height:1.5;font-family:&quot;Magic Bubble&quot;;-inkscape-font-specification:&quot;Magic Bubble&quot;;text-align:center;writing-mode:lr-tb;direction:ltr;text-anchor:middle;fill:#fff;fill-opacity:1;stroke-width:4;stroke-linecap:round"><tspan x="1515.584" y="377.031">To Eva!</tspan></text><text xml:space="preserve" x="1496.321" y="3103.263" style="font-size:216.374px;line-height:1.5;font-family:&quot;Magic Bubble&quot;;-inkscape-font-specification:&quot;Magic Bubble&quot;;text-align:center;writing-mode:lr-tb;direction:ltr;text-anchor:middle;fill:#a9eafe;fill-opacity:1;stroke-width:3.24561;stroke-linecap:round"><tspan x="1496.321" y="3103.263" style="fill:#a9eafe;fill-opacity:1;stroke-width:3.24561">You&apos;re Positively</tspan><tspan x="1496.321" y="3429.938" style="fill:#a9eafe;fill-opacity:1;stroke-width:3.24561">Radiant!</tspan></text><text xml:space="preserve" x="1496.321" y="3097.763" style="font-size:216.374px;line-height:1.5;font-family:&quot;Magic Bubble&quot;;-inkscape-font-specification:&quot;Magic Bubble&quot;;text-align:center;writing-mode:lr-tb;direction:ltr;text-anchor:middle;fill:#fff;fill-opacity:1;stroke-width:3.24561;stroke-linecap:round"><tspan x="1496.321" y="3097.763" style="stroke-width:3.24561">You&apos;re Positively</tspan><tspan x="1496.321" y="3424.438" style="stroke-width:3.24561">Radiant!</tspan></text></svg>