<?xml version="1.0" encoding="UTF-8" standalone="no"?>
<svg
   xml:space="preserve"
   width="430mm"
   height="297mm"
   viewBox="0 0 430 297"
   version="1.1"
   id="svg43"
   sodipodi:docname="zirconium-WIP-ribbon-02.svg"
   inkscape:version="1.4.2 (ebf0e940d0, 2025-05-08)"
   xmlns:inkscape="http://www.inkscape.org/namespaces/inkscape"
   xmlns:sodipodi="http://sodipodi.sourceforge.net/DTD/sodipodi-0.dtd"
   xmlns:xlink="http://www.w3.org/1999/xlink"
   xmlns="http://www.w3.org/2000/svg"
   xmlns:svg="http://www.w3.org/2000/svg"><sodipodi:namedview
     id="namedview1"
     pagecolor="#eb80f6"
     bordercolor="#000000"
     borderopacity="0.25"
     inkscape:showpageshadow="2"
     inkscape:pageopacity="0.0"
     inkscape:pagecheckerboard="0"
     inkscape:deskcolor="#d1d1d1"
     inkscape:document-units="mm"
     inkscape:zoom="0.70710678"
     inkscape:cx="1156.8267"
     inkscape:cy="1030.2546"
     inkscape:window-width="1536"
     inkscape:window-height="888"
     inkscape:window-x="0"
     inkscape:window-y="0"
     inkscape:window-maximized="1"
     inkscape:current-layer="svg43" /><defs
     id="defs34"><linearGradient
       id="linearGradient106"
       inkscape:collect="always"><stop
         style="stop-color:#770088;stop-opacity:1;"
         offset="0"
         id="stop94" /><stop
         style="stop-color:#770088;stop-opacity:1;"
         offset="0.14666569"
         id="stop95" /><stop
         style="stop-color:#004cff;stop-opacity:1;"
         offset="0.14666569"
         id="stop96" /><stop
         style="stop-color:#004cff;stop-opacity:1;"
         offset="0.32268545"
         id="stop97" /><stop
         style="stop-color:#028121;stop-opacity:1;"
         offset="0.32268545"
         id="stop98" /><stop
         style="stop-color:#028121;stop-opacity:1;"
         offset="0.5024147"
         id="stop99" /><stop
         style="stop-color:#ffee00;stop-opacity:1;"
         offset="0.5024147"
         id="stop100" /><stop
         style="stop-color:#ffee00;stop-opacity:1;"
         offset="0.65729827"
         id="stop101" /><stop
         style="stop-color:#ff8d00;stop-opacity:1;"
         offset="0.65729827"
         id="stop102" /><stop
         style="stop-color:#ff8d00;stop-opacity:1;"
         offset="0.83089954"
         id="stop103" /><stop
         style="stop-color:#e50000;stop-opacity:1;"
         offset="0.83089954"
         id="stop104" /><stop
         style="stop-color:#e50000;stop-opacity:1;"
         offset="0.95004994"
         id="stop105" /><stop
         style="stop-color:#e50000;stop-opacity:1;"
         offset="0.97165167"
         id="stop106" /></linearGradient><linearGradient
       id="linearGradient92"
       inkscape:collect="always"><stop
         style="stop-color:#b10000;stop-opacity:1;"
         offset="0"
         id="stop92" /><stop
         style="stop-color:#ff1b1b;stop-opacity:0;"
         offset="1"
         id="stop93" /></linearGradient><linearGradient
       id="linearGradient87"
       inkscape:collect="always"><stop
         style="stop-color:#770088;stop-opacity:1;"
         offset="0"
         id="stop75" /><stop
         style="stop-color:#770088;stop-opacity:1;"
         offset="0.17067029"
         id="stop76" /><stop
         style="stop-color:#004cff;stop-opacity:1;"
         offset="0.17067029"
         id="stop77" /><stop
         style="stop-color:#004cff;stop-opacity:1;"
         offset="0.32268545"
         id="stop78" /><stop
         style="stop-color:#028121;stop-opacity:1;"
         offset="0.32268545"
         id="stop79" /><stop
         style="stop-color:#028121;stop-opacity:1;"
         offset="0.5024147"
         id="stop80" /><stop
         style="stop-color:#ffee00;stop-opacity:1;"
         offset="0.5024147"
         id="stop81" /><stop
         style="stop-color:#ffee00;stop-opacity:1;"
         offset="0.65729827"
         id="stop82" /><stop
         style="stop-color:#ff8d00;stop-opacity:1;"
         offset="0.65729827"
         id="stop83" /><stop
         style="stop-color:#ff8d00;stop-opacity:1;"
         offset="0.83089954"
         id="stop84" /><stop
         style="stop-color:#e50000;stop-opacity:1;"
         offset="0.83089954"
         id="stop85" /><stop
         style="stop-color:#e50000;stop-opacity:1;"
         offset="0.95004994"
         id="stop86" /><stop
         style="stop-color:#e50000;stop-opacity:1;"
         offset="0.97165167"
         id="stop87" /></linearGradient><linearGradient
       id="linearGradient62"
       inkscape:collect="always"><stop
         style="stop-color:#770088;stop-opacity:1;"
         offset="0"
         id="stop62" /><stop
         style="stop-color:#770088;stop-opacity:1;"
         offset="0.17067029"
         id="stop64" /><stop
         style="stop-color:#004cff;stop-opacity:1;"
         offset="0.17067029"
         id="stop65" /><stop
         style="stop-color:#004cff;stop-opacity:1;"
         offset="0.32268545"
         id="stop66" /><stop
         style="stop-color:#028121;stop-opacity:1;"
         offset="0.32268545"
         id="stop67" /><stop
         style="stop-color:#028121;stop-opacity:1;"
         offset="0.5024147"
         id="stop68" /><stop
         style="stop-color:#ffee00;stop-opacity:1;"
         offset="0.5024147"
         id="stop69" /><stop
         style="stop-color:#ffee00;stop-opacity:1;"
         offset="0.65729827"
         id="stop70" /><stop
         style="stop-color:#ff8d00;stop-opacity:1;"
         offset="0.65729827"
         id="stop71" /><stop
         style="stop-color:#ff8d00;stop-opacity:1;"
         offset="0.83089954"
         id="stop72" /><stop
         style="stop-color:#e50000;stop-opacity:1;"
         offset="0.83089954"
         id="stop73" /><stop
         style="stop-color:#e50000;stop-opacity:1;"
         offset="0.95004994"
         id="stop74" /><stop
         style="stop-color:#e50000;stop-opacity:1;"
         offset="0.97165167"
         id="stop63" /></linearGradient><linearGradient
       id="linearGradient2"
       inkscape:collect="always"><stop
         style="stop-color:#9c9c9c;stop-opacity:0.74144083;"
         offset="0"
         id="stop38" /><stop
         style="stop-color:#9c9c9c;stop-opacity:0.23529412;"
         offset="0.5"
         id="stop43" /><stop
         style="stop-color:#d3d3d3;stop-opacity:0;"
         offset="1"
         id="stop42" /></linearGradient><inkscape:path-effect
       effect="bspline"
       id="path-effect44"
       is_visible="true"
       lpeversion="1.3"
       weight="33.333333"
       steps="2"
       helper_size="0"
       apply_no_weight="true"
       apply_with_weight="true"
       only_selected="false"
       uniform="false" /><linearGradient
       id="linearGradient39"
       inkscape:collect="always"><stop
         style="stop-color:#004cff;stop-opacity:0.46013537;"
         offset="0"
         id="stop39" /><stop
         style="stop-color:#81a7ff;stop-opacity:0.32222325;"
         offset="0.5"
         id="stop41" /><stop
         style="stop-color:#004cff;stop-opacity:0;"
         offset="1"
         id="stop40" /></linearGradient><linearGradient
       id="linearGradient1"
       inkscape:collect="always"><stop
         style="stop-color:#002782;stop-opacity:0.36150748;"
         offset="0"
         id="stop35" /><stop
         style="stop-color:#004cff;stop-opacity:0.53739303;"
         offset="0.5"
         id="stop37" /><stop
         style="stop-color:#004cff;stop-opacity:0;"
         offset="1"
         id="stop36" /></linearGradient><linearGradient
       id="j"><stop
         offset="0"
         stop-color="#8f8f8f"
         stop-opacity=".718"
         id="stop1" /><stop
         offset="1"
         stop-color="#cdcdcd"
         stop-opacity="0"
         id="stop2" /></linearGradient><linearGradient
       id="i"><stop
         offset="0"
         stop-color="#f9f9f9"
         id="stop3" /><stop
         offset=".5"
         stop-color="#e8e8e8"
         id="stop4" /><stop
         offset=".75"
         stop-color="#fff"
         id="stop5" /><stop
         offset="1"
         stop-color="#d3d3d3"
         id="stop6" /></linearGradient><linearGradient
       id="h"><stop
         offset="0"
         stop-color="#dadada"
         id="stop7" /><stop
         offset=".5"
         stop-color="#fff"
         id="stop8" /><stop
         offset=".75"
         stop-color="#c9c9c9"
         id="stop9" /><stop
         offset="1"
         stop-color="#d5d5d5"
         id="stop10" /></linearGradient><linearGradient
       id="f"><stop
         offset="0"
         stop-color="#d0d0d0"
         id="stop11"
         style="stop-color:#e50000;stop-opacity:1;" /><stop
         offset=".386"
         stop-color="#fff"
         id="stop12" /><stop
         offset="0.77100003"
         stop-color="#e1e1e1"
         id="stop13"
         style="stop-color:#d60000;stop-opacity:1;" /><stop
         offset="0.838"
         stop-color="#fff"
         id="stop14"
         style="stop-color:#e50000;stop-opacity:1;" /></linearGradient><linearGradient
       id="e"><stop
         offset="0"
         stop-color="#a6a6a6"
         stop-opacity=".49"
         id="stop15" /><stop
         offset="1"
         stop-color="#a6a6a6"
         stop-opacity="0"
         id="stop16" /></linearGradient><linearGradient
       id="d"><stop
         offset="0"
         stop-color="#e8e8e8"
         id="stop17" /><stop
         offset=".386"
         stop-color="#fff"
         id="stop18" /><stop
         offset=".771"
         stop-color="#d2d2d2"
         id="stop19" /><stop
         offset="1"
         stop-color="#d5d5d5"
         id="stop20" /></linearGradient><linearGradient
       id="b"><stop
         offset="0"
         stop-color="#d3d3d3"
         id="stop21" /><stop
         offset=".509"
         stop-color="#dedede"
         id="stop22" /><stop
         offset=".934"
         stop-color="#fff"
         id="stop23" /><stop
         offset="1"
         stop-color="#dadada"
         id="stop24" /></linearGradient><linearGradient
       id="c"><stop
         offset="0"
         stop-color="#e6e6e6"
         id="stop25" /><stop
         offset=".45"
         stop-color="#fff"
         id="stop26" /><stop
         offset=".688"
         stop-color="#e0e0e0"
         id="stop27" /></linearGradient><linearGradient
       id="g"><stop
         offset="0"
         stop-color="#a6a6a6"
         stop-opacity=".716"
         id="stop28" /><stop
         offset="1"
         stop-color="#a6a6a6"
         stop-opacity="0"
         id="stop29" /></linearGradient><linearGradient
       id="a"><stop
         offset="0"
         stop-color="#f9f9f9"
         id="stop30" /><stop
         offset=".276"
         stop-color="#e8e8e8"
         id="stop31" /><stop
         offset=".441"
         stop-color="#fff"
         id="stop32" /><stop
         offset=".75"
         stop-color="#e8e8e8"
         id="stop33" /><stop
         offset="1"
         stop-color="#d3d3d3"
         id="stop34" /></linearGradient><linearGradient
       xlink:href="#a"
       id="n"
       x1="24.629"
       x2="147.561"
       y1="75.536003"
       y2="107.31"
       gradientTransform="matrix(1.27772,0,0,1.27772,60.908827,-42.6325)"
       gradientUnits="userSpaceOnUse" /><linearGradient
       xlink:href="#b"
       id="l"
       x1="41.088001"
       x2="173.735"
       y1="216.828"
       y2="201.85001"
       gradientTransform="matrix(1.27772,0,0,1.27772,60.908827,-42.6325)"
       gradientUnits="userSpaceOnUse" /><linearGradient
       xlink:href="#c"
       id="p"
       x1="95.128998"
       x2="124.085"
       y1="177.937"
       y2="127.23"
       gradientTransform="matrix(1.27772,0,0,1.27772,60.908827,-42.6325)"
       gradientUnits="userSpaceOnUse" /><linearGradient
       xlink:href="#d"
       id="q"
       x1="156.05299"
       x2="167.218"
       y1="234.696"
       y2="206.35201"
       gradientTransform="matrix(1.27772,0,0,1.27772,74.117827,-42.6325)"
       gradientUnits="userSpaceOnUse" /><linearGradient
       xlink:href="#e"
       id="m"
       x1="40.021999"
       x2="51.490002"
       y1="215.485"
       y2="217.108"
       gradientTransform="matrix(1.27772,0,0,1.27772,60.908827,-42.6325)"
       gradientUnits="userSpaceOnUse" /><linearGradient
       xlink:href="#f"
       id="k"
       x1="147.463"
       x2="176.606"
       y1="214.942"
       y2="215.46201"
       gradientTransform="matrix(-1.1534,0,0,-1.1534,293.70183,308.3825)"
       gradientUnits="userSpaceOnUse" /><linearGradient
       xlink:href="#g"
       id="o"
       x1="174.524"
       x2="163.149"
       y1="83.856003"
       y2="81.584"
       gradientTransform="matrix(1.27772,0,0,1.27772,60.908827,-42.6325)"
       gradientUnits="userSpaceOnUse" /><linearGradient
       xlink:href="#h"
       id="r"
       x1="301.41299"
       x2="304.32001"
       y1="240.52499"
       y2="229.35899"
       gradientTransform="matrix(6.50013,0,0,6.50013,-1730.471,-1328.742)"
       gradientUnits="userSpaceOnUse" /><linearGradient
       xlink:href="#i"
       id="t"
       x1="299.15302"
       x2="310.55499"
       y1="228.49699"
       y2="228.49699"
       gradientTransform="matrix(6.50013,0,0,6.50013,-1730.471,-1328.742)"
       gradientUnits="userSpaceOnUse" /><linearGradient
       xlink:href="#j"
       id="s"
       x1="239.11099"
       x2="237.976"
       y1="163.959"
       y2="172.966"
       gradientUnits="userSpaceOnUse" /><linearGradient
       inkscape:collect="always"
       xlink:href="#linearGradient1"
       id="linearGradient36"
       x1="296.79532"
       y1="213.28419"
       x2="293.27579"
       y2="214.97551"
       gradientUnits="userSpaceOnUse" /><linearGradient
       inkscape:collect="always"
       xlink:href="#linearGradient39"
       id="linearGradient40"
       x1="288.8891"
       y1="217.26978"
       x2="290.3602"
       y2="217.4982"
       gradientUnits="userSpaceOnUse" /><linearGradient
       inkscape:collect="always"
       xlink:href="#linearGradient2"
       id="linearGradient42"
       x1="255.24478"
       y1="221.04758"
       x2="253.34114"
       y2="222.22552"
       gradientUnits="userSpaceOnUse" /><linearGradient
       id="a-3"><stop
         offset="0"
         style="stop-color:#708;stop-opacity:1"
         id="stop1-5" /><stop
         offset=".171"
         style="stop-color:#708;stop-opacity:1"
         id="stop2-6" /><stop
         offset=".171"
         style="stop-color:#004cff;stop-opacity:1"
         id="stop3-2" /><stop
         offset=".325"
         style="stop-color:#004cff;stop-opacity:1"
         id="stop4-9" /><stop
         offset=".325"
         style="stop-color:#028121;stop-opacity:1"
         id="stop5-1" /><stop
         offset=".497"
         style="stop-color:#028121;stop-opacity:1"
         id="stop6-2" /><stop
         offset=".497"
         style="stop-color:#fe0;stop-opacity:1"
         id="stop7-7" /><stop
         offset=".658"
         style="stop-color:#fe0;stop-opacity:1"
         id="stop8-0" /><stop
         offset=".658"
         style="stop-color:#ff8d00;stop-opacity:1"
         id="stop9-9" /><stop
         offset=".829"
         style="stop-color:#ff8d00;stop-opacity:1"
         id="stop10-3" /><stop
         offset=".829"
         style="stop-color:#e50000;stop-opacity:1"
         id="stop11-6" /><stop
         offset="1"
         style="stop-color:#e50000;stop-opacity:1"
         id="stop12-0" /></linearGradient><linearGradient
       xlink:href="#a-3"
       id="b-6"
       x1="653.669"
       x2="653.669"
       y1="1000.49"
       y2="787.998"
       gradientTransform="translate(-0.324,5.046)"
       gradientUnits="userSpaceOnUse" /><linearGradient
       inkscape:collect="always"
       xlink:href="#linearGradient87"
       id="linearGradient74"
       gradientUnits="userSpaceOnUse"
       x1="196.31273"
       y1="250.86456"
       x2="216.16615"
       y2="35.364666" /><linearGradient
       inkscape:collect="always"
       xlink:href="#linearGradient106"
       id="linearGradient90"
       gradientUnits="userSpaceOnUse"
       x1="196.31273"
       y1="250.86456"
       x2="216.16615"
       y2="35.364666" /><linearGradient
       inkscape:collect="always"
       xlink:href="#linearGradient62"
       id="linearGradient91"
       gradientUnits="userSpaceOnUse"
       x1="196.31273"
       y1="250.86456"
       x2="216.16615"
       y2="35.364666" /><linearGradient
       inkscape:collect="always"
       xlink:href="#linearGradient92"
       id="linearGradient93"
       x1="288.04053"
       y1="56.270542"
       x2="266.41458"
       y2="68.227959"
       gradientUnits="userSpaceOnUse" /></defs><path
     fill="url(#k)"
     fill-rule="evenodd"
     d="m 126.33383,68.0995 c -1.512,-10.999 2.785,-19.864 4.025,-31.589 -12.4,2.163 -25.07,3.474 -36.603003,8.835 0.255,6.453 3.155,28.743 3.37,28.905 0.752,-0.328 0.491,-0.555 0.565,-2.466 1.815,-6.593 12.394003,-4.33 24.241003,-2.918"
     id="path34"
     style="fill:url(#k)" /><path
     fill="url(#m)"
     d="m 136.30683,213.3145 c -7.006,3.683 -14.027,8.385 -19.907,12.841 -9.705,8.433 -14.924,13.8 -14.83,14.209 1.507,-0.621 3.321,-1.108 5.405,-1.476 2.248,-0.422 4.523,-0.644 6.721,-0.75 3.997,-0.192 7.95,-0.116 11.864,-0.13 3.125,-9.292 6.531,-15.74 10.745,-24.694"
     id="path36"
     style="fill:url(#m)" /><path
     fill="url(#l)"
     fill-rule="evenodd"
     d="m 294.50883,227.6775 c 0.018,-7.477 6.31594,-12.301 1.85194,-15.594 -43.029,13.292 -111.25094,7.859 -163.15494,0.156 -20.342,16.12 -31.774,27.522 -31.637,28.125 29.371,-12.12 189.59,29.971 192.94,-12.688"
     id="path35"
     style="fill:url(#linearGradient90);fill-opacity:1"
     sodipodi:nodetypes="ccccc" /><path
     fill="url(#n)"
     d="m 93.755827,45.3465 c -1.52,10.853 -1.817,10.42 -1.993,24.872 -0.132,10.838 64.980003,12.01 89.044003,12.075 28.2,0.077 55.62,0.083 82.666,-0.15 23.804,-12.291 27.553,-27.417 28.157,-28.227 v -0.03 c -26.112,1.348 -149.875,13.564 -197.874003,-8.541"
     id="path37"
     style="fill:url(#linearGradient74);fill-opacity:1" /><path
     fill="url(#o)"
     d="m 291.62983,53.9165 -0.282,0.012 -0.166,0.01 h -0.023 c -4.78126,0.05566 -12.68845,1.005672 -22.81736,1.51692 -2.385,8.854 -1.18564,18.34708 -5.10564,26.71708 h 0.221 l 0.032,-0.006 0.014,-0.009 c 3.10223,-1.606629 6.09446,-3.41727 8.957,-5.42 0.847,-0.588 1.566,-1.172 2.339,-1.758 1.662,-1.264 3.225,-2.521 4.574,-3.76 1.85548,-1.679527 3.58825,-3.489828 5.185,-5.417 0.398,-0.485 0.858,-0.993 1.214,-1.46 1.16,-1.527 2.162,-2.988 2.91,-4.26 l 0.02,-0.03 0.002,-0.003 c 0.57851,-0.984122 1.11239,-1.993812 1.6,-3.026 v -0.003 c 0.816,-1.731 1.17,-2.84 1.327,-3.066 z"
     id="path38"
     style="fill:url(#linearGradient93)"
     sodipodi:nodetypes="ccccccccccccccccccccc" /><path
     fill="url(#p)"
     d="m 92.379827,213.4325 c -0.152,0.66 9.190003,26.933 9.190003,26.933 72.902,-47.419 143.146,-98.423 199.293,-159.55 0,0 -8.566,-26.86 -9.238,-26.93 -7.779,16.516 -199.215003,172.912 -199.245003,159.546"
     id="path39"
     style="fill:url(#linearGradient91);fill-opacity:1" /><path
     id="path1"
     style="fill:url(#linearGradient36);fill-opacity:1;fill-rule:evenodd;stroke-width:0.0273381"
     d="m 296.36072,212.08266 v 0.001 c -1.14925,0.35501 -2.31617,0.69665 -3.50056,1.02526 v 4.27105 c 0,0.91438 -0.73617,1.65055 -1.65054,1.65055 h -3.43442 c -0.11282,0.61226 -0.21421,1.15125 -0.29766,1.58233 -0.022,0.1134 -0.0408,0.2162 -0.0537,0.29404 -0.006,0.0389 -0.0113,0.0708 -0.015,0.0992 -0.003,0.0142 -0.004,0.026 -0.005,0.047 0,0.0105 -0.003,0.0204 0,0.0527 0,0.008 0.003,0.0175 0.004,0.031 0.003,0.0135 0.0142,0.0577 0.0145,0.0579 8e-5,1.8e-4 0.0676,0.11721 0.0677,0.1173 2e-5,4e-5 0.10278,0.0801 0.10283,0.0801 3e-5,2e-5 0.1591,0.0388 0.15916,0.0388 2.1e-4,0 0.0457,-0.003 0.0553,-0.005 0.01,-0.002 0.0154,-0.003 0.0202,-0.004 0.009,-0.002 0.0148,-0.003 0.0196,-0.005 0.01,-0.003 0.0166,-0.005 0.0253,-0.007 0.0172,-0.005 0.0375,-0.0113 0.0625,-0.0191 0.0502,-0.0156 0.11881,-0.0373 0.20205,-0.0641 0.16647,-0.0536 0.39131,-0.12724 0.63459,-0.20774 2.56696,-0.84935 4.59636,-1.83134 6.02289,-2.93522 0.47799,-0.36989 1.11973,-1.00824 1.41593,-1.42782 0.37891,-0.5368 0.61313,-1.0526 0.75913,-1.67793 0.13168,-0.564 0.17157,-0.88876 0.17157,-1.41852 0,-0.44759 -0.0156,-0.59612 -0.0842,-0.87023 -0.0109,-0.0434 -0.0222,-0.0863 -0.0346,-0.12868 -0.18759,-0.19774 -0.40715,-0.39015 -0.66146,-0.57774 z" /><path
     id="path35-6"
     style="fill:url(#linearGradient42);fill-opacity:0.470588"
     d="m 255.39423,219.19122 c -1.32059,0.10119 -2.64945,0.19409 -3.9858,0.27853 -5.7e-4,0.002 -0.001,0.004 -0.001,0.004 v 5.1e-4 5.2e-4 5.2e-4 l 5.2e-4,5.1e-4 v 5.2e-4 l 5.2e-4,5.2e-4 v 5.1e-4 c 1.8e-4,3.5e-4 9e-4,0.002 0.002,0.003 l 5.1e-4,5.1e-4 v 5.2e-4 c 6e-5,1.3e-4 3.1e-4,6.9e-4 5.2e-4,0.001 v 5.2e-4 h 5.2e-4 v 5.2e-4 c 1.2e-4,2.5e-4 8.5e-4,0.001 10e-4,0.002 0.001,0.002 0.003,0.004 0.004,0.007 0.005,0.008 0.0125,0.0188 0.0227,0.0336 0.0204,0.0296 0.0508,0.0729 0.0899,0.12867 0.0783,0.1115 0.1923,0.27262 0.3328,0.47077 0.28099,0.39628 0.66941,0.94199 1.09761,1.54151 0.75869,1.06224 1.1381,1.87335 1.33325,2.15749 0.0681,0.0992 0.0896,0.13663 0.11782,0.18294 v -0.0171 c 0.19937,0.0237 0.40207,0.0465 0.60772,0.0682 0.002,-0.0243 0.004,-0.0516 0.007,-0.0816 0.002,-0.0285 0.004,-0.0596 0.007,-0.0925 0.0126,-0.16742 0.0383,-0.65588 0.0548,-0.89246 0.0516,-0.74166 0.12604,-1.57665 0.1974,-2.4138 0.039,-0.4605 0.0675,-0.92755 0.11007,-1.38596 z" /><g
     id="g43"
     transform="matrix(0.90467581,0,0,0.90467581,-6.605477,24.824675)"><path
       fill="url(#r)"
       d="m 247.649,162.123 c -10.77,1.415 -18.581,5.306 -25.089,12.488 -6.556,7.237 -8.495,13.91 -8.495,13.91 -2.621,15.283 -2.201,32.245 -0.9,49.808 l 3.211,-0.373 c 33.1,-9.084 22.558,-50.467 35.497,-76.339 0,0 -3.798,0.448 -4.224,0.505 z"
       transform="matrix(1.1943999,0.01955549,-0.01955549,1.1943999,39.531051,-28.332243)"
       id="path41"
       style="fill:url(#r)"
       sodipodi:nodetypes="cccccccc" /><path
       fill="url(#s)"
       fill-rule="evenodd"
       d="m 251.822,161.766 c -20.392,1.592 -30.577,12.264 -35.648,21.997 -0.273,0.525 -0.497,0.988 -0.707,1.438 -0.29,0.627 -0.587,1.259 -0.767,1.711 -0.133,0.337 -0.285,0.707 -0.36,0.924 -0.029,0.083 -0.065,0.179 -0.082,0.231 a 0.2,0.2 0 0 0 0.034,0.021 c 0.077,0.034 0.128,0.024 0.167,0.017 a 0.5,0.5 0 0 0 0.188,-0.082 c 0.069,-0.045 0.502,-0.234 1.02,-0.616 14.997,-11.07 21.984,-16.513 32.347,-16.151 0.104,0.004 0.176,-0.072 0.245,-0.109 0.953,-3.28 2.107,-6.43 3.563,-9.381"
       transform="matrix(1.1943999,0.01955549,-0.01955549,1.1943999,39.531051,-28.332243)"
       id="path42"
       style="fill:url(#s)" /><path
       fill="url(#t)"
       d="m 214.065,188.521 c -0.003,0.013 8.706,-57.09 73.782,-64.01 0.7,0.167 0.072,27.52 0.065,37.99 -23.448,0.357 -47.403,-6.413 -65.35,12.11 -6.557,7.237 -8.495,13.91 -8.495,13.91 z"
       transform="matrix(1.1943999,0.01955549,-0.01955549,1.1943999,39.531051,-28.332243)"
       id="path43"
       style="fill:url(#t)" /></g><path
     id="path1-9"
     style="fill:url(#linearGradient40);fill-opacity:1;fill-rule:evenodd;stroke-width:0.0273381"
     d="m 290.74679,213.66716 c -0.58089,0.14949 -1.1654,0.29617 -1.7539,0.43976 l -0.10439,0.59687 c -0.39979,2.28637 -0.80583,4.52431 -1.0542,5.80739 -0.022,0.1134 -0.0408,0.2162 -0.0537,0.29404 -0.006,0.0389 -0.0113,0.0708 -0.015,0.0992 -0.003,0.0142 -0.004,0.026 -0.005,0.047 0,0.0105 -0.003,0.0209 0,0.0532 0,0.008 0.003,0.0175 0.004,0.031 0.003,0.0135 0.0142,0.0572 0.0145,0.0574 8e-5,1.8e-4 0.0676,0.11722 0.0677,0.11731 2e-5,4e-5 0.10279,0.0801 0.10284,0.0801 3e-5,2e-5 0.1591,0.0388 0.15916,0.0388 2.1e-4,0 0.0457,-0.003 0.0553,-0.005 0.01,-0.002 0.0154,-0.003 0.0202,-0.004 0.009,-0.002 0.0148,-0.003 0.0196,-0.005 0.01,-0.003 0.0166,-0.005 0.0253,-0.007 0.0172,-0.005 0.0375,-0.0113 0.0625,-0.0191 0.0502,-0.0156 0.11881,-0.0373 0.20205,-0.0641 0.16647,-0.0536 0.39131,-0.12724 0.63459,-0.20774 0.56592,-0.18725 1.10554,-0.38082 1.61851,-0.58085 z" /><path
     fill="url(#q)"
     fill-rule="evenodd"
     d="m 254.56083,260.4895 c 3.82,-0.65 7.64,-1.3 12.278,-2.085 4.636,-0.785 10.086,-1.705 14.976,-2.881 4.89,-1.178 11.94994,-3.326 14.52794,-4.56 6.72,-5.64 6.563,-38.392 0.018,-38.88 0,0 0.86,0.826 0.207,3.193 -2.012,7.306 -29.04177,10.2243 -42.16877,8.6613"
     id="path40"
     style="fill:url(#q)"
     sodipodi:nodetypes="ccccccc" /><g
     id="g1"
     transform="matrix(0.26458333,0,0,0.26458333,306.74141,267.35635)"><path
       d="m 685.44,141.56 a 692,692 0 0 0 -21.555,0.042 c -9.2,0.165 -17.534,0.543 -24.54,1.265 C 496.644,157.58 398.27,251.157 369.599,398.2 c -8.318,42.658 -11.106,98.366 -5.87,134.018 4.023,27.387 13.685,54.482 28.03,73.607 1.693,2.258 2.912,3.902 5.394,6.162 1.241,1.13 1.743,2.815 8.221,4.729 3.239,0.957 39.75,22.071 46.117,17.512 6.367,-4.559 -21.614,-31.39 -21.369,-34.573 0.49,-6.366 -0.775,-7.473 -1.346,-9.008 -0.57,-1.534 -1.105,-2.616 -1.675,-3.707 -1.142,-2.18 -2.443,-4.267 -4.07,-6.632 -19.344,-28.114 -25.242,-76.222 -11.348,-128.823 11.8,-44.68 35.63,-90.178 60.173,-116.935 51.49,-56.135 109.465,-81.126 197.073,-83.805 71.781,-2.195 128.793,12.955 178.099,46.255 5.973,4.035 17.882,14.235 30.527,26.863 16.013,15.993 21.1,22.02 29.89,35.291 34.725,52.42 53.701,122.598 48.051,167.485 -3.232,25.677 -13.164,48.924 -27.523,65.992 -2.75,3.27 -5.097,6.213 -6.957,8.754 -0.93,1.27 -1.686,2.298 -2.68,4 -0.497,0.85 -1.084,1.461 -2.06,4.594 -0.489,1.566 -1.852,3.668 -0.426,10.03 0.712,3.182 -12.819,15.346 -8.78,18.473 4.04,3.128 24.49,-3.486 27.496,-3.486 7.495,0 8.662,-1.947 10.079,-2.767 a 23,23 0 0 0 2.908,-1.975 c 1.442,-1.118 2.507,-2.09 3.664,-3.176 2.314,-2.172 4.785,-4.708 7.37,-7.484 5.173,-5.553 10.284,-11.286 14.173,-17.008 23.023,-33.879 30.826,-78.338 27.66,-137.988 -1.582,-29.802 -3.236,-42.981 -8.906,-70.994 -6.068,-29.977 -16.844,-62.323 -29.506,-88.211 -16.984,-34.725 -33.816,-58.204 -60.069,-83.645 -41.95,-40.655 -92.655,-64.962 -156.943,-76.023 -14.736,-2.536 -37.468,-3.867 -59.557,-4.164"
       style="fill:#ffffff;stroke-width:10.6901"
       id="path12" /><path
       d="m 682.667,231.591 q -4.186,0.01 -8.366,0.107 c -34.191,0.795 -67.957,5.904 -97.37,15.233 -31.958,10.136 -60.059,25.09 -86.07,45.799 -9.632,7.67 -29.081,27.203 -37.007,37.17 -27.778,34.931 -47.249,75.534 -59.144,123.334 -12.813,51.484 -16.882,134.133 65.168,184.718 21.817,9.602 46.73,15.56 81.83,19.567 12.416,1.417 14.934,2.248 18.693,6.17 4.942,5.155 -7.665,13.103 -11.057,22.66 -2.932,8.261 -1.443,31.323 0.582,37.992 2.286,7.525 18.534,-2.252 25.342,1.994 5.58,3.48 19.264,6.22 28.951,5.797 5.343,-0.234 6.736,-0.572 11.278,-2.729 6.505,-3.089 12.009,-8.409 14.99,-14.49 1.847,-3.766 2.574,-7.063 5.56,-25.213 3.779,-22.962 4.253,-24.373 8.067,-23.99 1.236,0.124 -3.638,4.603 -2.908,5.621 1.148,1.603 3.975,7.158 2.746,26.072 -1.668,25.66 -5.088,30.184 -3.395,35.662 3.322,10.756 19.152,11.098 30.305,13.524 2.592,0.564 7.145,0.864 11.805,0.898 4.66,-0.034 9.213,-0.334 11.804,-0.898 11.154,-2.426 25.391,-4.848 28.713,-15.604 1.692,-5.478 2.946,-11.036 1.278,-36.697 -1.23,-18.914 -2.358,-15.354 -1.21,-16.957 0.73,-1.018 -3.269,-11.497 -2.033,-11.62 3.814,-0.384 4.288,1.027 8.067,23.99 2.986,18.149 3.714,21.446 5.56,25.212 2.982,6.081 8.486,11.401 14.99,14.49 4.542,2.157 5.935,2.495 11.278,2.729 9.687,0.424 23.371,-2.316 28.951,-5.797 6.808,-4.246 26.302,0.772 28.588,-6.754 2.025,-6.669 0.445,-20.905 -2.487,-29.166 -3.392,-9.557 -16.176,-21.57 -11.234,-26.726 3.76,-3.922 6.278,-4.753 18.694,-6.17 35.1,-4.008 60.013,-9.965 81.83,-19.567 82.05,-50.585 77.98,-133.234 65.168,-184.718 -11.896,-47.8 -31.367,-88.403 -59.145,-123.334 -7.925,-9.967 -27.374,-29.5 -37.008,-37.17 -26.01,-20.71 -54.11,-35.663 -86.068,-45.8 -29.413,-9.328 -63.18,-14.437 -97.371,-15.232 q -4.18,-0.096 -8.365,-0.107 m 0,345.998 c 1.636,0.064 3.206,0.466 3.898,1.158 1.621,1.622 26.832,54.959 26.832,56.766 0,3.292 -1.803,5.194 -6.957,7.34 -2.747,1.143 -7.33,2.67 -10.186,3.392 -3.984,1.008 -6.402,1.237 -13.587,1.108 -7.186,0.13 -9.604,-0.1 -13.588,-1.108 -2.855,-0.722 -7.439,-2.249 -10.186,-3.392 -5.154,-2.146 -6.957,-4.048 -6.957,-7.34 0,-1.807 25.211,-55.144 26.832,-56.766 0.692,-0.692 2.263,-1.094 3.899,-1.158"
       style="fill:#eaeaea;fill-opacity:1"
       id="path13" /><path
       d="m 704.148,159.875 c 61.556,3.292 115.035,19.36 156.811,49.156 76.195,54.343 118.713,145.779 123.1,264.72 1.935,52.475 -5.665,89.262 -24.178,117.013 -24.467,36.677 -65.443,56.033 -134.966,63.925 v 0.055 l -0.934,0.106 c -12.884,1.435 -15.656,2.343 -18.908,6.2 -1.706,2.024 -2.817,3.975 -3.358,6.19 a 13.6,13.6 0 0 0 -0.351,2.317 c -0.216,3.238 0.57,7.145 2.306,12.515 1.997,6.177 2.42,8.463 2.42,13.092 0,14.239 -8.555,26.573 -21.53,31.037 -6.116,2.104 -16.718,3.554 -23.722,3.244 l -0.908,-0.04 -0.117,-0.3 c 0.403,0.02 0.74,0.019 1.035,0.002 2.075,-0.116 2.208,-1.073 9.908,-2.542 11.406,-2.177 19.782,-8.069 24.293,-17.086 a 45,45 0 0 0 1.496,-3.295 c 0.863,-2.139 1.457,-4.182 1.784,-6.258 0.817,-5.19 -0.03,-10.583 -2.483,-18.166 -1.237,-3.826 -1.99,-6.751 -2.24,-9.24 -0.125,-1.245 -0.123,-2.38 0.006,-3.465 0.129,-1.085 0.384,-2.118 0.771,-3.158 0.516,-1.388 1.264,-2.788 2.248,-4.338 3.087,-4.861 7.176,-6.647 17.723,-7.735 74.82,-7.72 117.15,-28.67 141.49,-70.027 14.17,-24.075 20.893,-54.598 20.903,-94.883 0.018,-74.244 -17.704,-144.536 -49.985,-198.25 -12.615,-20.99 -22.927,-34.096 -41.29,-52.476 -45.338,-47.455 -105.46,-65.137 -168.927,-76.182 z"
       style="fill:#db5dc9;fill-opacity:1"
       id="path14" /><path
       d="m 683.191,576.834 h -2.034 c -1.132,0 -2.445,0.8 -2.933,1.82 -4.736,9.902 -26.886,56.333 -26.886,58.004 0,5.26 17.74,9.587 17.74,9.587 0,0 10.455,2.142 15.682,2.142 5.227,0 15.682,-2.142 15.682,-2.142 0,0 16.44,-5.956 16.44,-9.587 0,-2.206 -23.63,-48.216 -28.67,-58.004 -0.517,-1.006 -1.855,-1.82 -2.986,-1.82 z"
       style="fill:#000000;fill-opacity:1;stroke-width:1.03491"
       id="path15" /><path
       d="m 750.319,408.707 -16.026,15.48 c -17.709,17.107 -18.614,18.365 -16.362,22.76 0.64,1.25 12.261,13.12 25.826,26.378 15.078,14.74 24.674,24.608 24.693,25.394 0.02,0.83 -9,10.182 -25.362,26.293 -17.918,17.643 -25.518,25.562 -25.81,26.89 -0.494,2.247 0.522,5.204 2.533,7.38 0.804,0.871 7.993,7.877 15.975,15.57 l 14.511,13.986 h 6.251 l 25.639,-25.112 c 14.102,-13.81 26.161,-25.111 26.798,-25.111 0.637,0 12.698,11.3 26.8,25.111 l 25.642,25.112 h 6.262 l 15.789,-15.234 c 9.11,-8.79 16.168,-16.138 16.683,-17.37 1.876,-4.483 1.757,-4.628 -25.296,-31.242 -14.979,-14.736 -25.356,-25.445 -25.356,-26.167 0,-0.72 10.406,-11.485 25.372,-26.245 15.983,-15.763 25.533,-25.668 25.81,-26.77 0.946,-3.767 -0.591,-5.72 -17.023,-21.61 l -16.02,-15.493 h -6.18 l -25.47,24.942 c -18.574,18.192 -25.884,24.945 -27.007,24.945 -1.122,0 -8.445,-6.758 -27.026,-24.945 l -25.486,-24.942 h -3.08 z"
       style="fill:#000000;fill-opacity:1;stroke-width:1.00445"
       id="path16" /><path
       d="m 1011.546,780.808 a 17.26,17.26 0 0 0 -17.26,17.258 v 83.488 a 17.26,17.26 0 0 0 -6.362,12.68 v 94.044 a 17.26,17.26 0 0 0 17.258,17.258 h 83.439 a 17.26,17.26 0 0 0 12.02,-5.705 17.26,17.26 0 0 0 12.02,5.705 h 83.439 a 17.26,17.26 0 0 0 17.258,-17.258 v -81.362 a 17.26,17.26 0 0 0 6.365,-12.682 v -96.168 a 17.26,17.26 0 0 0 -17.258,-17.258 h -83.44 a 17.26,17.26 0 0 0 -12.02,5.703 17.26,17.26 0 0 0 -12.02,-5.703 h -41.72 z m -379.01,12.236 a 6.436,6.436 0 0 0 -6.434,6.436 v 51.619 a 6.436,6.436 0 0 0 6.435,6.435 h 37.405 v 36.699 a 6.436,6.436 0 0 0 6.435,6.436 h 5.586 v 87.609 a 6.436,6.436 0 0 0 6.436,6.436 h 83.438 a 6.436,6.436 0 0 0 6.435,-6.436 v -94.044 a 6.436,6.436 0 0 0 -6.436,-6.436 h -4.877 v -30.263 h 37.405 a 6.436,6.436 0 0 0 6.435,-6.436 v -51.62 a 6.436,6.436 0 0 0 -6.435,-6.435 h -85.915 z m 238.816,1.916 -1.14,1.139 -1.302,1.3 h -3.373 a 0.67,0.67 0 0 0 -0.47,0.196 l -19.274,19.263 -19.273,19.266 a 0.67,0.67 0 0 0 -0.196,0.47 v 56.973 h -4.99 a 0.665,0.665 0 0 0 -0.666,0.667 v 56.98 c 0,0.183 0.076,0.359 0.21,0.484 l 19.622,18.487 19.62,18.486 a 0.67,0.67 0 0 0 0.458,0.182 l 64.17,0.047 64.17,0.044 a 0.665,0.665 0 0 0 0.666,-0.666 v -55.861 c 0,-0.368 -0.125,-3.457 -0.493,-3.456 l -36.81,-2.79 -37.09,2.79 -3.216,-3.277 -6.535,-3.763 V 894.9 h 4.283 a 0.665,0.665 0 0 0 0.666,-0.667 v -29.744 l 4.56,-4.595 4.559,-4.594 h 73.652 a 0.665,0.665 0 0 0 0.666,-0.666 V 798.066 A 0.665,0.665 0 0 0 993.16,797.4 h -6.047 l -0.023,-1.23 v -1.21 H 876.823 Z M 524.016,781.054 a 17.013,17.013 0 0 0 -12.041,29.027 l 9.36,9.38 4.388,4.397 v 70.376 a 17.01,17.01 0 0 0 10.605,15.294 v 78.75 a 17.013,17.013 0 0 0 17.012,17.012 h 83.44 a 17.013,17.013 0 0 0 17.01,-17.012 V 894.234 A 17.01,17.01 0 0 0 643.184,878.939 V 798.066 A 17.013,17.013 0 0 0 626.172,781.054 H 575.094 Z M 202.748,733.916 a 8.13,8.13 0 0 0 -5.738,2.368 l -19.537,19.463 h -0.002 l -19.535,19.463 a 8.13,8.13 0 0 0 -2.39,5.76 v 168.484 a 8.13,8.13 0 0 0 2.415,5.783 l 19.5,19.27 19.5,19.268 a 8.13,8.13 0 0 0 5.713,2.345 l 85.5,0.028 85.5,0.025 a 8.133,8.133 0 0 0 8.133,-8.131 v -150 a 8.133,8.133 0 0 0 -8.131,-8.126 h -112 a 8.133,8.133 0 0 0 -7.87,7.497 v -19.736 l 3.614,-3.87 3.393,-3.63 h 110.863 a 8.133,8.133 0 0 0 8.13,-8.131 v -60 a 8.133,8.133 0 0 0 -8.13,-8.13 H 287.21 Z m 51.128,154.926 a 8.13,8.13 0 0 0 7.8,7.334 h 21.87 v 21.739 h -10.241 c -7.965,0 -12.492,-0.223 -14.508,-0.604 -2.016,-0.381 -1.444,-0.15 -2.924,-1.54 -1.122,-1.054 -0.812,-0.74 -0.828,-0.775 -0.016,-0.035 -0.42,-1.197 -0.678,-4.295 -0.315,-3.8 -0.431,-11.597 -0.492,-21.86 m 136.123,-105.52 a 15.806,15.806 0 0 0 -15.804,15.805 v 189.506 a 15.806,15.806 0 0 0 15.804,15.805 h 147.078 a 15.806,15.806 0 0 0 15.805,-15.805 V 932.064 A 15.806,15.806 0 0 0 537.076,916.259 H 489.242 V 800.956 a 15.806,15.806 0 0 0 -14.474,-15.748 l -10.82,-0.914 h -10e-4 c -8.008,-0.677 -25.8,-0.973 -43.048,-0.973 z"
       style="fill:url(#b-6);fill-opacity:1;stroke-width:5.34506"
       id="path17" /><path
       d="m 368.081,905.248 v -75.333 h 6.667 V 980.58 h -6.667 z m 163.334,47 v -28.333 h 7.333 v 56.666 h -7.333 z m 99.333,-19 v -47.333 h 6.667 v 94.666 h -6.667 z m 135.333,0 v -47.333 h 6.667 v 94.666 h -6.667 z m 216.667,19 v -28.333 h 6.667 v 56.666 h -6.667 z m 99.333,-8.333 v -36.667 h 7.334 v 73.333 h -7.334 z m 108,-10.334 v -47 h 6.667 v -96.666 h 6.667 v 96.666 h -6.667 v 94 h -6.667 z m -722.666,-76 v -66.333 h 6.666 v 132.667 h -6.666 z m 436.165,61.039 -4.833,-5.26 v -26.78 h 5.333 v -30.366 l 4.85,-4.817 c 4.707,-4.676 4.945,-4.817 8.15,-4.817 h 3.3 l -4.816,4.85 -4.817,4.848 v 30.302 h -5.333 v 27.036 l 4.666,4.63 c 2.567,2.548 4.583,4.8 4.81,5.03 0.199,0.204 -1.568,0.63 -3.31,0.62 -3.095,-0.016 -3.276,-0.136 -8,-5.278 m -658.016,-5.553 -4.817,-4.85 V 805.614 l 4.817,-4.85 4.816,-4.848 h 7.336 l -5.151,5.181 -5.151,5.181 v 101.94 l 4.816,4.849 4.817,4.849 h -3.333 c -3.253,0 -3.45,-0.117 -8.15,-4.85 M 620.08,837.915 v -48 h 6.667 v 96 h -6.667 z m 134,26.666 v -21.333 h 7.334 v 42.667 h -7.334 z m 334.667,-42 v -32.666 h 6.667 v 65.333 h -6.667 z m -101.333,-4.333 v -28.333 h 6.666 v 56.666 h -6.666 z m -189.334,-1 v -26 h 7.334 v 52 h -7.334 z m -432,-52.333 v -31 h 6.667 v 62 h -6.667 z m 78.834,25.855 c 1.008,-0.152 2.658,-0.152 3.666,0 1.009,0.153 0.184,0.278 -1.833,0.278 -2.017,0 -2.842,-0.125 -1.833,-0.278 m -24,-0.666 c 1.008,-0.153 2.658,-0.153 3.666,0 1.008,0.153 0.184,0.278 -1.833,0.278 -2.017,0 -2.842,-0.125 -1.833,-0.278"
       style="fill:#da5cc8"
       id="path18" /><path
       d="M 182.712,961.839 163.351,943.096 V 772.9 l 19.167,-19.556 19.166,-19.556 3.105,0.23 3.104,0.23 -18.908,19.333 -18.91,19.334 -0.028,85.041 -0.03,85.042 6.5,6.31 c 3.576,3.47 12.319,11.926 19.43,18.791 l 12.929,12.482 h -6.802 z m 207.306,-76.591 v -95.333 h 6.666 V 980.58 h -6.666 z M 553.35,933.58 v -47 h 6.667 v 94 h -6.667 z m 135.333,0 v -47 h 6.667 v 94 h -6.667 z m 152.52,28.5 -19.74,-18.5 -0.056,-28.833 -0.057,-28.833 h 5.333 v -57.676 l 19.17,-19.162 19.172,-19.162 h 6.649 l -19.162,19.17 -19.162,19.171 v 57.659 h -5.334 v 57.182 l 16.834,15.853 c 9.258,8.718 18.179,17.152 19.824,18.742 l 2.991,2.89 h -6.723 z m 164.147,-28.833 v -47.333 h 6 v -96 h 6.667 v 96 h -6 v 94.666 h -6.667 z m 107.333,10.667 v -36.667 h 6.667 v 73.333 h -6.667 z m -820.666,-44 v -18 h 7.333 v 36 h -7.333 z M 542.683,847.755 V 808.93 l -9.491,-9.508 -9.492,-9.508 h 6.667 l 9.492,9.508 9.49,9.508 v 77.65 h -6.666 z m 134,17.159 v -21.667 h 7.334 v 43.333 h -7.334 z m -416,-9 v -26 h 6.667 v 52 h -6.667 z M 1119.35,822.58 v -32.666 h 6.667 v 65.333 h -6.667 z m -486.667,-5.333 v -26 h 7.334 v 52 h -7.334 z"
       style="fill:#5dbee9"
       id="path19" /><circle
       cx="552.68402"
       cy="498.772"
       r="101.55"
       style="fill:#444444;fill-opacity:1;stroke-width:2.73664"
       id="circle19" /><circle
       cx="552.68402"
       cy="491.85901"
       r="101.55"
       style="opacity:1;fill:#000000;fill-opacity:1;stroke-width:2.73664"
       id="circle20" /><path
       d="m 808.985,529.347 c -0.637,0 -12.696,11.3 -26.798,25.112 l -25.64,25.111 h -6.249 l -14.512,-13.984 c -7.982,-7.693 -15.17,-14.7 -15.974,-15.57 q -0.324,-0.35 -0.612,-0.723 c -1.222,1.4 -1.842,2.25 -1.922,2.611 -0.493,2.246 0.523,5.202 2.534,7.379 0.804,0.87 7.992,7.878 15.974,15.57 l 14.512,13.985 h 6.25 l 25.639,-25.112 c 14.102,-13.811 26.161,-25.111 26.798,-25.111 0.637,0 12.699,11.3 26.801,25.111 l 25.64,25.112 h 6.264 l 15.787,-15.233 c 9.112,-8.79 16.169,-16.139 16.684,-17.37 0.923,-2.208 1.364,-3.362 -1.654,-7.142 -2.677,3.033 -8.292,8.744 -15.03,15.245 L 867.69,579.57 h -6.263 l -25.64,-25.111 c -14.103,-13.812 -26.165,-25.112 -26.802,-25.112"
       style="fill:#444444;fill-opacity:1;stroke-width:1.00445"
       id="path20" /><path
       d="m 661.584,159.875 c -61.556,3.292 -115.035,19.36 -156.81,49.156 -76.196,54.343 -118.714,145.779 -123.1,264.72 -1.936,52.475 5.664,89.262 24.177,117.013 24.467,36.677 65.443,56.033 134.966,63.925 v 0.055 l 0.934,0.106 c 12.884,1.435 15.656,2.343 18.908,6.2 1.706,2.024 2.817,3.975 3.358,6.19 0.184,0.76 0.301,1.536 0.351,2.317 0.216,3.238 -0.57,7.145 -2.306,12.515 -1.997,6.177 -2.42,8.463 -2.42,13.092 0,14.239 8.555,26.573 21.53,31.037 6.116,2.104 16.718,3.554 23.722,3.244 l 0.908,-0.04 0.117,-0.3 c -0.403,0.02 -0.74,0.019 -1.035,0.002 -2.075,-0.116 -2.208,-1.073 -9.908,-2.542 -11.406,-2.177 -19.782,-8.069 -24.293,-17.086 a 45,45 0 0 1 -1.496,-3.295 c -0.863,-2.139 -1.457,-4.182 -1.784,-6.258 -0.817,-5.19 0.03,-10.583 2.483,-18.166 1.237,-3.826 1.99,-6.751 2.24,-9.24 0.125,-1.245 0.123,-2.38 -0.006,-3.465 a 13.5,13.5 0 0 0 -0.77,-3.158 c -0.517,-1.388 -1.265,-2.788 -2.249,-4.338 -3.087,-4.861 -7.176,-6.647 -17.723,-7.735 -74.82,-7.72 -117.15,-28.67 -141.49,-70.027 -14.17,-24.075 -20.893,-54.598 -20.903,-94.883 -0.018,-74.244 17.704,-144.536 49.985,-198.25 12.615,-20.99 22.927,-34.096 41.29,-52.476 45.339,-47.455 105.461,-65.137 168.927,-76.182 z"
       style="fill:#5ebfea;fill-opacity:1"
       id="path21" /><path
       d="m 682.66,112.039 c -16.165,0.122 -33.255,0.666 -41.346,1.5 -60.916,6.277 -111.553,23.26 -155.668,52.209 -17.972,11.793 -32.97,24.209 -49.035,40.59 -11.562,11.79 -18.462,19.824 -27.83,32.408 l -6.328,8.5 h -34.1 v -0.04 l -26.322,0.005 -99.213,0.014 c -110.198,0.014 -146.033,0.122 -155.89,0.609 -1.947,0.095 -2.887,0.205 -3.19,0.332 -3.68,1.537 -6.318,6.018 -6.297,10.13 v 0.034 a 8.6,8.6 0 0 0 0.147,1.703 v 0.002 a 1,1 0 0 0 0.029,0.1 q 0.017,0.045 0.041,0.102 l 0.018,0.044 0.002,0.004 q 0.02,0.093 0.044,0.184 c 0.045,0.168 0.49,0.976 1.295,2.361 l 0.01,0.018 c 3.612,6.443 13.654,23.035 25.91,42.75 l 15.815,25.437 0.146,0.237 0.026,0.04 c 3.523,5.692 7.17,11.576 10.912,17.6 l -21.156,0.164 -1.413,0.012 c -12.427,0.096 -22.595,0.365 -22.595,0.596 0,0.231 4.532,7.724 10.07,16.652 l 10.068,16.235 44.043,0.171 6.881,0.028 h 0.024 c 3.81,0.062 9.641,0.162 16.257,0.162 l 20.88,-0.02 13.257,21.334 13.256,21.334 -3.42,0.03 c -3.18,-0.013 -8.255,-0.042 -13.82,0.017 -16.804,0.178 -22.81,0.413 -23.414,0.914 v 0.006 c 0,0.007 0,0.02 0.01,0.033 l -0.041,0.028 q -0.052,0.042 -0.051,0.088 c 0,0.219 3.616,6.21 8.184,13.693 0.488,0.8 0.339,0.59 0.865,1.45 0.08,0.131 0.053,0.09 0.135,0.224 1.78,2.975 3.107,5.183 3.107,5.183 h 0.074 c 3.275,5.322 7.011,11.36 10.969,17.723 12.834,20.632 23.334,37.682 23.334,37.887 0,0.08 -1.543,0.168 -4.156,0.25 -0.476,0.015 -1.578,0.02 -2.121,0.035 -5.865,0.096 -14.719,0.182 -24.137,0.262 -2.646,0.022 -5.074,0.07 -7.113,0.125 l -6.153,0.049 -0.394,0.004 h -0.004 l 31.916,51.332 31.916,51.334 22.568,0.334 22.568,0.332 8.092,13 8.09,13 10.963,0.203 10.965,0.203 13,20.982 c 7.15,11.54 13.098,21.275 13.22,21.631 0.137,0.401 -3.759,0.649 -10.236,0.649 -8.095,0 -10.39,0.187 -10.14,0.832 q 0.028,0.074 0.152,0.296 a 0.5,0.5 0 0 0 -0.143,-0.023 h -0.002 v 0.008 l 0.002,0.002 a 0.8,0.8 0 0 0 0.153,0.092 l 0.052,0.033 c 0.773,1.373 3.46,5.76 6.524,10.63 3.529,5.614 6.418,10.338 6.418,10.5 0,0.164 -34.926,0.296 -77.613,0.296 h -77.61 l -29.057,29.49 -29.054,29.49 0.01,100.01 0.01,100.01 29.158,28.162 29.16,28.16 175.668,0.01 175.666,0.01 39.672,63.83 39.674,63.83 9.66,0.192 9.66,0.191 7.834,12.574 c 4.31,6.916 7.834,12.757 7.834,12.977 0,0.22 -4.05,0.4 -9,0.4 -4.853,0 -8.842,0.225 -8.996,0.502 l -0.004,0.01 v 0.01 c 0,1.298 32.531,52.516 34.082,53.66 0.961,0.71 2.761,1.517 4,1.795 l -0.006,-0.01 c 3.582,0.804 7.374,-0.13 10.072,-2.482 0.635,-0.554 30.036,-47.466 65.334,-104.246 l 64.178,-103.24 h 405 V 907.246 h 12.668 v -152 h -128.057 c -78.4,0 -127.968,-0.24 -127.832,-0.617 0.078,-0.22 2.076,-3.53 5.006,-8.31 h 0.006 c 1.62,-2.645 3.525,-5.74 5.549,-9.01 l 10.334,-16.704 38,-0.03 38,-0.032 39.334,-63.336 c 21.634,-34.835 39.43,-63.625 39.552,-63.977 0.138,-0.402 -13.73,-0.704 -37.388,-0.812 l -37.612,-0.172 18.955,-30.5 18.955,-30.5 h 50.4 l 12.335,-19.834 12.334,-19.832 -41.6,-0.174 c -22.879,-0.094 -41.597,-0.344 -41.597,-0.556 0,-0.212 6.046,-10.11 13.439,-21.995 l 13.44,-21.609 h 33.472 l 57.293,-92.166 c 31.511,-50.692 57.586,-93.267 57.945,-94.611 1.222,-4.571 -1.671,-10.488 -6.015,-12.303 -1.848,-0.772 -27.474,-0.92 -160.457,-0.92 H 962.873 l -6.328,-8.5 c -9.368,-12.584 -16.268,-20.618 -27.83,-32.408 -16.064,-16.381 -31.064,-28.797 -49.036,-40.59 -44.115,-28.948 -94.751,-45.932 -155.667,-52.209 -8.091,-0.833 -25.181,-1.378 -41.346,-1.5 z m 0,47.219 c 56.402,0.21 105.897,11.204 148.018,32.886 68.656,35.34 117.129,100.53 138.877,186.772 7.967,31.589 11.767,59.213 13.093,95.17 1.936,52.473 -5.667,89.26 -24.18,117.012 -24.264,36.374 -65.322,55.628 -135.232,63.417 -13.046,1.454 -15.528,2.294 -19.203,6.479 -4.954,5.642 -5.331,10.415 -1.709,21.592 2.339,7.22 2.465,8.048 2.193,14.33 -0.35,8.062 -1.93,12.627 -6.404,18.502 -3.678,4.828 -8.922,8.627 -14.435,10.457 -5.325,1.766 -12.969,3.023 -19.29,3.258 h -3.966 c -5.381,-0.235 -6.756,-0.568 -11.336,-2.743 -6.5,-3.087 -12.085,-8.545 -15.008,-14.67 -1.726,-3.615 -2.551,-7.44 -5.441,-25.2 -2.826,-17.362 -3.646,-21.194 -4.8,-22.438 -1.626,-1.755 -3.602,-1.916 -5.677,-0.463 -1.85,1.296 -1.879,3.115 -0.424,26.389 0.581,9.299 0.952,20.079 0.826,23.955 -0.215,6.594 -0.393,7.378 -2.767,12.181 a 36,36 0 0 1 -1.655,2.989 h -0.002 a 33,33 0 0 1 -3.968,5.205 c -4.405,4.702 -10.083,7.873 -16.744,9.285 -2.424,0.514 -6.504,0.799 -10.782,0.857 -4.267,-0.06 -8.332,-0.345 -10.75,-0.857 -9.999,-2.12 -17.785,-8.203 -22.369,-17.479 -2.374,-4.803 -2.552,-5.587 -2.767,-12.181 -0.126,-3.876 0.245,-14.656 0.826,-23.955 1.455,-23.274 1.426,-25.093 -0.424,-26.389 -2.075,-1.453 -4.05,-1.292 -5.678,0.463 -1.153,1.244 -1.973,5.076 -4.799,22.437 -2.89,17.76 -3.715,21.586 -5.441,25.202 -2.923,6.124 -8.508,11.582 -15.008,14.67 -4.58,2.174 -5.955,2.507 -11.336,2.742 -1.009,0.044 -2.124,0.027 -3.252,0 h -0.715 c -6.32,-0.235 -13.964,-1.492 -19.289,-3.258 -5.513,-1.83 -10.757,-5.63 -14.435,-10.457 -4.474,-5.875 -6.055,-10.44 -6.405,-18.502 -0.272,-6.282 -0.145,-7.11 2.194,-14.33 3.622,-11.177 3.245,-15.95 -1.71,-21.592 -3.674,-4.185 -6.156,-5.025 -19.202,-6.479 -69.91,-7.79 -110.968,-27.043 -135.233,-63.417 -18.512,-27.751 -26.115,-64.54 -24.18,-117.012 1.327,-35.957 5.127,-63.581 13.094,-95.17 21.748,-86.242 70.221,-151.432 138.877,-186.772 42.12,-21.682 91.616,-32.676 148.018,-32.886 M 201.455,733.916 H 371.22 l 1.455,2.351 v 59.649 H 257.644 l -5.15,5.182 -5.15,5.18 V 908.28 l 4.847,4.818 4.85,4.817 h 34.969 v -36 h -31.334 v -52 h 114 V 980.581 H 202.064 L 182.703,961.839 163.342,943.097 V 772.91 l 19.056,-19.498 z m 199.389,55.986 c 5.958,-0.008 24.858,0.351 42,0.795 l 31.166,0.809 v 132.41 h 64.666 V 980.58 H 390.01 V 789.916 Z m 122.851,0.014 h 102.98 v 96 h 10.669 v 94.666 h -84 v -94 h -10.666 v -77.65 l -9.493,-9.508 z m 341.322,0 H 994.01 v 56.666 h -73.637 l -4.848,4.816 -4.85,4.817 v 30.367 h -5.333 l 0.013,13.5 0.01,13.5 5.07,5.166 5.073,5.168 h 73.836 v 56.666 H 860.936 l -19.739,-18.5 -19.74,-18.5 -0.057,-28.834 -0.056,-28.832 h 5.332 V 828.24 l 19.172,-19.162 z m 146.327,0 h 84 v 65.332 h 24 v -65.332 h 84 v 96.666 h -6.668 v 94 h -84 v -73.334 h -23.332 v 73.334 h -84 v -94.666 h 6 z m -378.666,1.332 h 172.666 v 52 h -44 v 42.668 h 11.332 v 47.332 l 0.002,47.334 h -84 v -94 h -12 v -43.334 h -44 z"
       style="fill:#000000;fill-opacity:1"
       id="path22" /></g></svg>
