<svg xmlns="http://www.w3.org/2000/svg" xmlns:xlink="http://www.w3.org/1999/xlink" xml:space="preserve" width="2000" height="2400"><defs><linearGradient id="b"><stop offset="0" stop-color="navy"/><stop offset=".5" stop-color="#6a6ae3"/><stop offset="1" stop-color="#4848ff" stop-opacity="0"/></linearGradient><linearGradient id="a"><stop offset="0" stop-color="#e3e7fb"/><stop offset="1" stop-color="#a4aff2"/></linearGradient><linearGradient xlink:href="#a" id="d" x1="476.055" x2="476.76" y1="231.682" y2="270.584" gradientUnits="userSpaceOnUse"/><linearGradient xlink:href="#b" id="c" x1="700" x2="700" y1="500" y2="1900" gradientTransform="scale(1.42857 1)" gradientUnits="userSpaceOnUse"/></defs><path fill="url(#c)" fill-rule="evenodd" d="M0 0h2000v2400H0z"/><path fill="navy" fill-opacity=".359" d="M1276.543 738.79c-16.979 0-38.445 5.363-88.728 22.17-28.497 9.523-42.985 14.122-54.54 17.31-10.793 2.98-20.662 4.94-29.9 5.89-2.408.087-5.235.16-8.703.247-4.755.12-8.534.17-11.617.153a100.4 100.4 0 0 1-22.953-4.334c-2.381-.742-3.331 8.114-1.777 16.564.657 3.575 1.136 8.02 1.064 9.875-.209 5.378 2.833 21.122 5.14 26.604 5.087 12.082 14.495 23.199 22.56 26.656 2.57 1.102 6.712 1.865 10.113 1.865h5.76l-8.116 8.25c-9.805 9.966-14.312 18.157-21.047 38.25-2.153 6.423-3.701 10.869-4.592 13.346-1.924 4.918-3.672 9.43-5.05 12.596-7.999 18.15-21.037 28.738-49.043 39.86l-10.662 4.235 4.75 6.483c3.415 4.66 5.654 9.284 7.972 16.465 4.143 12.832 7.827 19.167 16.387 28.18 9.666 10.174 23.113 18.335 30.213 18.335 1.235 0 6.227 2.97 11.094 6.598 15.483 11.543 25.936 15.732 43.533 17.449 8.004.782 14.627.809 22.351.092 11.274-1.045 13.49-.8 10.016 1.104-4.048 2.218-17.756 16.43-20.984 21.757-5.434 8.966-9.588 24-6.633 24 .48 0 2.618-.612 4.75-1.359 4.08-1.431 10.056-2.782 16.896-3.918.524-.082 1.174-.154 1.744-.24 6.825-1.073 14.36-1.964 21.889-2.44 25.422-1.609 34.76-4.97 54.32-19.552 8.046-5.998 9.184-6.559 11-5.41 6.557 4.146 14.852 8.426 20.526 10.59 7.852 2.993 19.848 5.443 22.83 4.663 1.817-.474 2.112-.531 2.16 9.93l-4.658-2.594c-3.276-1.634-5.854-2.472-8.244-2.433s-4.58.933-7.041 2.685c-3.824 2.723-6.569 8.107-8.522 16.705-.766 3.375-2.253 8.7-2.724 10.34-23.298 2.63-36.569 14.25-44.266 37.533-4.16 12.585-4.332 13.292-6.426 26.5-1.55 9.775-2.397 15.364-2.998 21.495-2.778.08-13.154.382-25.031.51-17.411.186-26.608-.097-28.998-.891-12.352-4.107-38.515-6.467-58.422-5.92-6.635.183-12.576.69-17.078 1.56-2.75.532-8.375 1.494-12.5 2.139s-8.85 1.556-10.5 2.027c-23.488 6.703-34.94 11.779-55.08 24.409-7.657 4.8-14.516 9.302-15.24 10.003-1.952 1.887 9.197 11.653 17.173 15.043l6.182 2.625 15.982-7.646c13.617-6.516 24.787-11.64 38.983-17.89 19.323-8.509 43.468-15.54 61.029-17.77l9.03-1.145 6.97 4.078c15.277 8.942 35.531 12.775 55.693 10.537 5.211-.578 9.679-.926 10.47-.824-.072 1.45-.146 2.986-.223 4.617-.38 7.951-.859 14.73-1.067 15.067-.156.252-.45 11.195-.732 26.445l-6.985 7.172c-16.558 17.001-28.668 23.148-92.304 46.85-31.593 11.766-54.677 25.826-69.395 42.265-6.827 7.626-14.22 17.243-13.674 17.79.205.204 5.056-.51 10.78-1.589l21.261-4.011c5.97-1.127 11.693-2.05 12.719-2.05 1.18 0 3.208-2.111 5.522-5.75 2.01-3.161 5.736-8 8.277-10.75 13.91-15.052 23.333-19.998 66.629-34.976 23.996-8.302 34.004-13.527 50.5-26.363l6.289-4.893-.512 34.336-5.07 11.5a2770 2770 0 0 1-7.328 16.5c-6.028 13.344-14.056 31.857-17.13 39.5-1.88 4.675-4.026 9.85-4.77 11.5-.746 1.65-5.398 13.125-10.339 25.5-16.555 41.463-33.427 82.124-42.33 102.024l-2.023 4.525-12.697 4.28c-11.686 3.936-30.207 11.004-41.172 15.714-13.041 5.6-40.575 19.887-42.871 22.244-5.05 5.185-21.701 24.746-25.975 30.516-4.373 5.902-8.093 13.045-8.133 15.617-.038 2.448 3.165 5.08 6.182 5.08 4.35 0 7.643-2.119 14.67-9.443 3.506-3.653 6.498-6.51 6.65-6.35.15.161-.15 2.768-.67 5.793-2.318 13.496-2.815 18.017-2.834 25.782-.022 9.048 1.58 14.398 4.83 16.138 7.942 4.25 14.15-5.93 14.15-23.207 0-8.123.1-8.5 2.366-8.933 2.343-.448 2.37-.348 2.875 10.134.3 6.274 1.15 12.116 2.086 14.342 3.116 7.421 11.373 6.925 15.266-.916 1.622-3.267 1.956-6.585 2.238-22.199.277-15.377.618-18.83 2.094-21.258 1.747-2.874 1.767-2.769 2.417 12.248 1 23.09 4.777 33.376 11.998 32.676 2.578-.251 3.502-1.04 5.036-4.307 1.688-3.593 1.806-5.476 1.16-18.5-.395-7.975-.79-16.69-.877-19.365l-.158-4.865 12-4.223c27.849-9.802 37.895-16.284 49.662-32.047 6.868-9.2 41.06-74.607 58.55-112 18.237-38.988 21.982-47.158 27.97-61 13.416-31.018 16.48-41.483 18.884-64.5 2.801-26.83 3.254-32.135 3.98-46.75.39-7.837 1.006-14.25 1.368-14.25.36 0 2.094 2.812 3.851 6.25s4.217 7.904 5.465 9.926c8.111 13.138 9.517 15.847 10.063 19.381l2.683 17.443c1.142 7.425 2.488 15.75 2.99 18.5 1.751 9.585 1.308 13.03-2.427 18.87-7.068 11.05-17.386 32.166-35.002 71.63-5.28 11.825-10.436 23.3-11.461 25.5s-5.817 12.775-10.649 23.5c-10.995 24.403-30.492 63.406-40.242 80.5-16.812 29.477-26.815 44.331-43.777 65q-.535.652-1.215 1.442c-29.795 35.09-118.255 117.49-166.865 157.95-4.91 3.923-18.538 16.538-19.996 17.124-2.275.914-11.938 7.604-23.963 16.588-9.608 7.178-16.497 14.575-20.938 22.265-.072.112-.228.292-.293.397a33 33 0 0 0-.892 1.535c-7.134 13.778-6.144 28.562 2.803 44.95 14.579 26.701 45.68 53.466 84.95 73.105 49.87 24.94 113.274 38.897 232.356 51.152 10.37 1.066 20.427 2.235 22.35 2.596l3.496.656-.48 20.12c-.263 11.065-1.545 56.795-2.85 101.62-1.304 44.825-2.356 99.05-2.336 120.5.056 60.992 2.208 72.171 12.916 67.09 4.322-2.05 11.452-10.489 15.285-18.09 2.174-4.309 7.022-18.102 12.83-36.5 3.406-10.79 4.582-14.6 9.332-30.25a67073 67073 0 0 1 7.014-23.09c8.387-27.597 10.003-35.1 10.045-46.66.044-11.878-1.065-14.973-8.035-22.425l-5.975-6.387 1.535-21.344c2.695-37.502 6.308-78.573 8.469-97.11 1.356-8.086 2.47-7.391 4.85-7.759 1.738-.269 9.01-.948 16.16-1.512 27.128-2.14 62.29-6.162 84-9.607 16.112-2.556 54.545-9.572 65.5-11.957 27.54-5.994 45.308-9.355 46.949-8.889a232 232 0 0 1 3.05 11.99 1541 1541 0 0 0 3.546 15.5c1.035 4.4 3.032 12.95 4.437 19a53670 53670 0 0 1 8.53 36.75c1.917 8.284 3.226 13.862 7.906 33.75l4.59 19.5c1.423 6.05 3.297 14.15 4.162 18s2.17 9.025 2.904 11.5c.733 2.475 2.033 7.875 2.889 12a710 710 0 0 0 3.44 15.5c2.9 12.297 10.155 44.005 12.243 53.5a1227 1227 0 0 0 3.89 17 1116 1116 0 0 1 3.981 17.5c1.076 4.95 2.379 10.575 2.893 12.5s1.916 8 3.117 13.5c2.542 11.642 9.84 30.73 14.607 38.201 3.661 5.74 8.287 8.752 12.293 8.006 1.436-.268 3.512-.118 4.612.332 2.98 1.221 3.82 1.125 6.49-.746 1.37-.959 3.83-1.587 5.62-1.433 3.402.293 6.39-2.55 6.39-6.082 0-.978.624-1.778 1.388-1.778 3.101 0 5.854-3.545 5.963-7.675.09-3.41.525-4.217 2.717-5.045 1.612-.608 3.436-2.69 4.77-5.448 3.42-7.065 3.063-23.7-.93-43.218-6.505-31.801-19.624-74.509-29.74-96.815-4.532-9.99-12.565-21.274-18.452-25.924l-5.216-4.12-1.157-16.128c-2.294-32.014-4.355-57.29-5.355-65.627-.56-4.675-1.692-15.025-2.512-23-3.264-31.73-7.955-65.45-11.55-83-.507-2.475-1.14-6.3-1.41-8.5-1.178-9.638-6.33-35.927-10.942-55.845-6.914-29.85-16.19-59.108-26.363-83.155-6.753-15.964-19.807-40.67-35.108-66.453l-8.576-14.45-1.697-14.05c-5.964-49.32-13.663-103.16-19.31-135.047-5.49-30.99-16.38-78.192-23.878-103.5a11697 11697 0 0 1-4.138-14c-8.684-29.483-25.733-73.465-33.243-85.763-1.59-2.606-3.169-5.412-3.506-6.237-.338-.825-3.252-4.98-6.478-9.232-6.012-7.925-13.273-14.14-21.348-18.28-4.879-2.5-6.012-4.718-7.402-14.488-.705-4.958-3.77-22.177-6.096-34.246-1.317-6.835-1.317-8.362-.018-13 .81-2.89 4.228-15.154 7.594-27.254 11.3-40.62 11.418-40.993 12.328-38.5.3.825 3.298 11.175 6.662 23 6.917 24.311 9.996 34.631 17.15 57.5 11.555 36.93 11.505 36.803 36.47 94.5 7.016 16.22 35.627 73.826 48.425 97.5 5.054 9.35 13.928 25.775 19.72 36.5a57227 57227 0 0 0 20.003 37c5.209 9.625 11.496 21.325 13.967 26 11.623 21.982 21.965 29.024 56.517 38.48l5.75 1.575v4.522c0 4.09-.475 4.992-5.008 9.525-2.755 2.755-5.923 6.8-7.039 8.988-1.759 3.448-1.858 4.337-.742 6.664 1.666 3.475 5.472 5.432 9.442 4.858 5.195-.751 10.931-5.362 18.34-14.74 9.347-11.835 10.902-11.719 8.976.667-2.88 18.526-2.112 25.328 3.043 26.965 10.851 3.444 19.687-13.3 20.715-39.254.244-6.187.786-11.25 1.203-11.25 1.943 0 4.258 4.342 6.135 11.508 1.129 4.31 3.185 9.77 4.568 12.13 2.552 4.353 7.722 8.362 10.787 8.362 2.574 0 4.528-5.966 5.24-15.994l.64-9.006h3.882c2.622 0 4.078-.514 4.49-1.587.986-2.57-3.21-28.581-5.25-32.547-1.138-2.213-9.712-8.536-20.433-15.069-1.744-1.062-6.788-1.755-16.5-2.262-10.237-.534-16.269-1.394-22.489-3.209a1301 1301 0 0 0-15-4.273 5755 5755 0 0 1-23.68-6.646l-17.181-4.852-20.492-41.53c-11.27-22.84-22.825-46.7-25.678-53.025a4001 4001 0 0 0-7.479-16.5l-11-24c-11.102-24.227-22.592-47.225-34.97-70-5.381-9.9-10.758-19.8-11.951-22a407 407 0 0 0-4.78-8.5c-2.599-4.478-3.115-6.822-6.818-31-2.113-13.797-4.808-30.92-7.873-50-1.104-6.875-2.718-17-3.588-22.5-5.234-33.116-13.258-62.47-21.277-77.832-3.63-6.956-8.816-13.455-14.313-18.154.9-10.476 4.663-23.305-4.89-30.65-2.326-1.655-5.973-2.416-10.272-2.274-17.856.585-43.688 18.814-48.758 21.826v-27.22l4.535 1.365c2.494.75 5.02 1.663 5.614 2.03 1.68 1.038 2.682-1.47 3.42-8.56.374-3.592 1.053-7.252 1.511-8.132.458-.882 5.688-3.754 11.625-6.381 51.072-22.606 74.55-43.21 100.832-88.496 13.17-22.693 25.722-51.128 34.66-78.522 7.038-21.567 12.636-46.372 16.815-74.5 1.022-6.875 2.168-13.962 2.547-15.75.38-1.787.384-3.25.01-3.25-2.438 0-20.734 12.477-23.16 15.795-1.767 2.416-2.82.841-1.31-1.959.692-1.285 1.458-7.098 1.702-12.918l.444-10.58-8.872 1.867c-7.55 1.589-14.072 2.706-19.908 3.274-1.065.051-2.135.093-3.197.127-4.15.132-8.355.098-11.654-.037-9.624-1.045-17.826-4.638-27.205-11.176-3.388-2.287-7.898-6.04-11.989-9.272-4.284-3.6-8.16-6.925-8.418-7.252-2.01-2.55-20.386-16.543-25.355-19.308-9.061-5.041-20.221-7.56-33.494-7.56h-11.016l-2.252-3.25c-11.723-16.917-26.478-24.75-46.615-24.75zm-93.976 135.783c0 .002-.01.005-.012.008-2.011 1.025-3.244.56-4.137 2.29l.053-.975a66 66 0 0 1 1.479-.543zm7.484 116.162v.057c-.117 10.068-.187 17.784.133 24.334-.012-.248-.048-.365-.06-.62-.578-7.04-.584-14.861-.077-23.716v-.055zm46.613.483c.334.205.337.383.338.385 0 0-.283-.33-.338-.385m-8.453 6.453.158.422c-.022-.045-.094-.076-.158-.422m-207.949 1.047.01.008c0 .002 0 .004-.01.006zm333.084 138.369a9 9 0 0 0-.434.236 2.3 2.3 0 0 1 .434-.236m-156.08 293.97c-4.224 9.64-4.821 13.258-10.22 24.733a7886 7886 0 0 0-10.3 22c-7.792 16.731-16.326 31.097-27.427 52.463 18.257-35.711 33.876-67.206 47.947-99.195m-138.354 145.647c-.245.102-.553.239-.798.34.105-.047.582-.25.658-.285.025-.011.114-.043.14-.055m593.842 26.324h.018l.012.01c-.01 0-.02 0-.029-.01zm-6.156 14.465c.67 0 2.89.912 6.424 2.875 6.44 3.578 8.2 5.004 8.234 6.672.027 1.314-1.62.808-3.258-1.002-.872-.963-3.858-3.1-6.636-4.75-4.123-2.448-5.572-3.79-4.764-3.795m20.555 52.178c-.336.347-.742.417-1.243.258a5 5 0 0 0 1.243-.258m-192.356 205.684h.053a5 5 0 0 0-.297.157.3.3 0 0 1 .244-.157m77.809 67.949c.398 1.754 1.208 5.723 1.32 6.014.218.566.188 1.058-.033 1.304.083-.467-1.108-5.799-1.285-7.318zm-145.512 78.861c-7.322 1.29-14.508 2.76-19.24 3.512-3.96.628-10.595 1.1-15.319 1.752a1246 1246 0 0 0 34.559-5.264"/><path fill="#4eedf9" d="M1033.662 1555.585c-.158.025-.24.06-.317.09-.156.062-.281.13-.43.213q-.442.25-1.1.691c-.88.59-2.052 1.427-3.352 2.404-1.338 1.006-2.402 1.762-3.243 2.31a22 22 0 0 1-1.617.97 7 7 0 0 1-.514.252c-.115.048-.25.021.055.021-.472 0-.895.314-1.086.576s-.274.504-.35.766c-.15.524-.232 1.153-.302 2.004-.238 2.9-.073 10.037.31 14.678.308 3.72.819 6.666 1.56 8.834.743 2.168 1.728 3.742 3.37 4.134 1.139.272 2.276-.18 3.318-.963.992-.745 2.235-2.186 3-3.375.779-1.208 1.28-2.538 1.575-4.923.293-2.385.437-5.913.6-11.909.048-1.786.07-4.985.072-7.918 0-2.932-.016-5.483-.077-6.328a22 22 0 0 0-.107-1.199 4 4 0 0 0-.07-.398c-.033-.133.028-.265-.332-.625v-.002c-.433-.433-.805-.328-.963-.303m-11.497-29.469c-.812-.18-1.024-.04-1.35.026a10 10 0 0 0-.991.26c-.7.214-1.514.51-2.383.855-1.737.69-3.651 1.558-5.064 2.375-3.698 2.137-6.508 4.838-8.514 8.73s-3.28 8.874-4.451 15.903c-2.356 14.134-3.01 20.096-3.028 27.79-.011 5.138.069 6.416.51 8.397.28 1.253.542 2.374.944 3.31a8.2 8.2 0 0 0 1.275 2.04c.5.598.88 1.14 1.975 1.545 1.67.617 3.284-.158 4.392-1.13 1.108-.97 2.026-2.294 2.842-3.925 2.294-4.583 3.29-12.895 3.123-21.582-.038-1.963-.064-3.07-.16-3.955-.097-.885-.38-1.7-.668-2.23-.724-1.332-1.007-1.924-1.076-2.182-.07-.259-.072-.548-.01-1.678.217-3.99 3.004-10.943 9.586-22.375 1.86-3.23 3.099-5.465 3.853-6.992.377-.764.635-1.324.813-1.908.088-.293.19-.567.16-1.135a2.25 2.25 0 0 0-.364-1.149c-.295-.462-.903-.876-1.414-.99m306.864-788.086a6.15 6.15 0 0 0-4.742 1.635l-6.533 6.111c-8.493 7.944-17.188 13.955-25.19 17.604-1.448.66-3.703 1.285-5.672 1.988 2.11-2.685 3.804-4.956 5.074-6.775 1.278-1.83 2.019-2.682 2.823-4.768.2-.52.62-.995.47-2.998-.075-1-.486-2.776-2.033-4.178s-1.792-1.437-2.916-1.34c-2.247.19-.534 2.07-1.027 2.39s-2.728.644-3.053.921c-1.3 1.11-2.756 1.975-4.702 4.158-5.254 5.895-12.975 15.61-19.695 18.998-8.575 4.324-17.636 5.547-42.094 9.07-13.173 1.897-24.615 4.086-30.144 5.692-2.19.637-4.757 2.67-7.041 3.834s-3.563.408-4.482 3.125c-1.838 5.433-1.057 9.674-1.057 21.93 0 21.12 1.809 33.67 8.32 57.918l4.178 16.693.54 16.545c-.266 22.816-.303 33.617 3.937 45.918 4.106 11.912 10.839 20.422 21.962 31.004 15.6 14.841 31.114 23.315 48.759 30.207 4.775 1.865 11.23 2.005 15.416 1.65l1.586 21.805c.792 10.895-4.621 17.39-4.932 20.621s-.75 4.34-2.174 8.25c-3.693 10.143-7.965 26.852-9.256 36.48-.254 1.894-.41 3.6-.447 5.067-.02.734-.028 1.365.076 2.236.052.436.077.898.453 1.866.189.483.442 1.14 1.256 2.025.814.886 2.625 2.02 4.592 2.02 3.656 0 3.463-1.01 3.904-1.338.44-.33.696-.57.955-.817a27 27 0 0 0 1.528-1.603 87 87 0 0 0 3.65-4.422c4.537-5.843 25.7-28.763 37.674-40.569l8.6-8.476c1.172-1.156-1.356-2.983-1.356-4.63l.562-15.558-.758-18.22c0-1.604 2.756-1.484 1.635-2.633l-5.638-5.776c-2.6-2.663-6.09-7.752-6.414-8.486-1.765-3.99-2.76-17.677-.91-25.434 1.675-7.024 9.636-24.076 12.623-27.904a497 497 0 0 0 3.947-5.1c1.045-1.4 1.523-5.315.24-7.277s-2.415-2.24-3.127-2.53c-1.423-.58-2.171-.612-3.135-.726-1.927-.227-4.274-.298-7.386-.298-8.378 0-7.056.343-12.67-2.6-2.461-1.29-5.505-3.247-8.305-5.123 14.702-3.62 31.323-11.04 40.793-19.176 12.313-10.577 22.023-31.209 26.69-53.174 1.89-8.885 2.38-15.043 2.453-30.25.078-16.593-.316-20.797-2.471-28.24-4.61-15.92-13.097-31.046-28.81-52.037l-.003-.002-2.14-2.86a6.15 6.15 0 0 0-4.383-2.443m-34.566 42.723c4.01.02 8.229 1.937 12.539 6.41s8.436 11.443 11.523 20.42c.975 2.837 2.239 12.324 2.535 21.404s-.298 18.694-1.146 22.006c-3.742 14.606-11.746 23.158-18.711 24.977-3.483.91-6.87.53-10.748-1.803-3.88-2.334-8.18-6.859-12.1-14.316-9.198-17.505-8.961-48.485-1.832-63.504 5.23-11.018 11.757-15.626 17.94-15.594m-76.854 16.207c3.033-.197 4.399.116 5.744.875 1.346.76 3.055 2.39 5.373 5.805 6.714 9.888 9.89 24.033 9.166 45.648-.2 5.997-.787 9.583-.92 11.006-.994.092-2.551.15-5.148.154-5.555.01-8.73-.116-12.238 1.008-1.755.562-3.93 1.876-5.15 3.897-1.218 2.021-1.31 3.913-1.31 5.267 0 2.094.404 3.55.944 5.578.54 2.03 1.29 4.403 2.23 7.131.579 1.678 1.667 4.22 2.385 6.143-.883-.146-1.662-.285-2.77-.463-1.254-.203-7.665-4.873-10.486-10.633-4.863-9.932-7.34-24.758-6.902-39.025.438-14.268 3.887-28.026 8.986-35.725 3.827-5.777 4.723-6.317 10.096-6.666m19.055 110.05c.334.204.337.383.338.384 0 0-.283-.329-.338-.385m-8.453 6.453.158.422c-.022-.045-.094-.076-.158-.422m44.293 48.27c2.98 0 4.303.355 4.693.433-.025.13-.07.023-.07.455 0 .085-.003.038-.004.111-.215.13-.24.168-.612.358-1.153.588-5.947 2.312-8.865 3-2.76.65-4.663.795-6.37.89.15-.18.065-.145.237-.335 4.514-4.997 4.32-4.913 10.99-4.913"/><path fill="url(#d)" d="M460.27 231.199a3 3 0 0 0-.81.211c-.188.072-2.765.84-5.004 1.42-8.14 2.11-21.089 6.887-27.39 10.139-2.328 1.2-4.042 2.033-5.372 2.794s-2.389 1.47-3.07 2.66c-.682 1.191-.667 2.557-.438 3.839.23 1.281.655 2.7 1.155 4.668 3.125 12.319 8.4 21.388 15.5 25.142 1.679.888 3.045 1.448 4.455 1.525.704.04 1.523-.048 2.267-.615s1.108-1.57 1.108-2.351c0-.667-.107-.89-.229-1.383a39 39 0 0 0-.49-1.764 105 105 0 0 0-1.563-4.748c-1.19-3.363-2.016-6.9-2.377-9.81s-.02-5.337.15-5.655c.363-.676 1.036-1.27 2.973-1.863 1.938-.593 4.992-1.047 9.387-1.375 2.292-.171 4.458-.413 6.149-.676a27 27 0 0 0 2.166-.412c.298-.073.563-.147.832-.246s.519-.11 1.025-.617c.53-.53.62-.897.772-1.305.15-.408.273-.846.39-1.344.235-.995.443-2.218.627-3.6a79 79 0 0 0 .658-9.22c.012-1.2.004-2.054-.101-2.814-.053-.38-.121-.748-.326-1.184s-.66-1-1.303-1.254a2.4 2.4 0 0 0-1.14-.162m84.14-17.355-3.36.295c-18.676 1.641-32.202 5.426-44.886 12.683l-5.137 2.94a3.035 3.035 0 0 0-1.459 3.28l.639 2.932c1.812 8.32 6.012 17.844 10.808 24.42 3.107 4.26 7.881 7.91 12.746 9.698 7.384 2.712 15.268-.035 21.342-6.791 8.093-9.001 12.608-24.933 12.608-41.729v-4.705a3.035 3.035 0 0 0-3.301-3.023" transform="translate(778.452 609.507)"/><path fill="#f9f7ff" d="M1292.859 777.517c-1.907.084-3.837.54-5.766 1.393-11.952 5.287-20.038 27.076-18.422 49.636.359 5.005.92 10.106 1.25 11.336.592 2.215.627 2.22 3.237.38 1.45-1.023 5.033-3.069 7.964-4.546 8.93-4.5 21.079-7.666 35-9.123l7.766-.537-.402-5.33c-1.995-26.427-17.278-43.8-30.627-43.209m-75.821 13.654c-8.11-.172-16.856 12.753-20.153 31.002-1.596 8.834-1.194 36.567.53 36.567.18 0 2.435-1.335 5.01-2.967 5.19-3.292 15.773-7.534 27.775-11.133l10.7-2.803-.175-13.58c-.963-19.26-10.648-31.164-20.27-36.187a7.7 7.7 0 0 0-3.417-.899"/><path fill="#1769d6" d="M1277.725 655.458c-9.933-.11-21.441 1.677-35.696 5.234-11.931 2.978-24.026 6.76-72.535 22.66-14.222 4.663-32.96 10.324-41.252 12.477-14.8 3.843-15.412 3.916-33.57 4.371-14.583.366-19.99.106-24.284-.902-1.897-.445-3.39-.802-4.931-.938-1.542-.136-3.747-.05-5.46 1.635-1.712 1.685-1.852 3.642-1.88 5.21-.03 1.566.14 3.2.357 5.292.687 6.65 3.023 12.384 7.248 17.863-.233.001-.401-.055-.676-.013-1.363.21-2.774 1.422-3.253 2.328-.96 1.812-.618 2.415-.614 3.09.01 1.881.452 3.39 1.032 5.435.58 2.046 1.356 4.383 2.228 6.76 1.745 4.753 3.717 9.47 5.647 12.506 4.377 6.89 9.24 12.07 14.783 15.316 2.182 1.28 4.343 2.35 7.222 2.701 2.88.353 6.32.236 12.836.045.71-.02 1.133-.008 1.813-.023-11.055 8.48-19.284 17.615-24.377 27.728-1.8 3.573-5.715 13.7-9.447 23.944-3.671 10.075-8.6 22.297-10.604 26.445-6.536 13.525-18.151 23.34-39.902 32.865a311 311 0 0 0-7.582 3.432c-1.022.482-1.882.9-2.557 1.246a23 23 0 0 0-.9.48c-.275.157-.333.043-1.155.823-1.205 1.145-1.426 2.71-1.375 3.57.052.861.25 1.38.438 1.85.376.937.829 1.655 1.373 2.463 1.088 1.614 2.567 3.434 4.305 5.39 2.126 2.394 4.582 4.827 7.064 7.108-.666.073-1.446.288-2.336 1.177-1.081 1.082-1.155 2.015-1.215 2.545s-.022.838.008 1.1c.06.524.152.852.25 1.203.198.701.457 1.412.785 2.244.658 1.665 1.59 3.747 2.686 5.977 3.088 6.28 6.506 10.8 13.13 17.486 8.164 8.24 15.728 13.644 24.395 16.211 4.688 1.388 9.635 1.86 14.995 1.682-.721 1.146-1.157 2.633-.924 3.613.298 1.255.806 1.848 1.246 2.375.88 1.053 1.816 1.77 2.967 2.596 2.302 1.651 5.41 3.461 8.908 5.29 6.996 3.66 15.164 7.28 21.047 8.465 11.45 2.31 36.607 1.75 50.115-.794-7.036 4.413-13.648 9.92-19.156 15.76-7.27 7.706-12.722 15.815-14.256 23.6l-.61 3.09a4.11 4.11 0 0 0 5.008 4.786l7.342-1.79c3.233-.79 15.894-2.607 26.777-3.695 22.844-2.283 34.02-4.724 43.51-9.94 3.517-1.934 8.868-5.386 13.5-8.548 2.316-1.58 4.427-3.073 6.02-4.273a36 36 0 0 0 2.013-1.606 9 9 0 0 0 .832-.802c.152-.169.32-.356.55-.72.228-.362.72-.84.67-2.425-.045-1.51-.437-1.772-.61-2.06-.173-.29-.296-.439-.405-.575a8 8 0 0 0-.58-.65 31 31 0 0 0-1.363-1.303 110 110 0 0 0-4.03-3.46c-8.87-7.293-22.798-23.949-25.866-30.247-6.585-13.515-7.348-18.257-7.645-45.623l-.266-24.5a4 4 0 0 0-.128-.98l-4.05-15.713c-7.39-28.673-8.436-35.927-8.32-57.918l.104-19.68a4.1 4.1 0 0 0-1.6-2.978c8.81-3.922 24.976-7.796 44.733-10.1 21.3-2.484 34.722-6.253 45.467-13.203 8.682-5.617 20.283-17.25 30.18-29.662-1.053 2.923-2.242 5.866-3.53 8.441-1.513 3.026-4.453 7.953-6.125 10.3-1.036 1.456-1.907 2.835-2.553 4.048-.323.606-.59 1.145-.822 1.828-.116.341-.24.701-.3 1.35-.057.648-.245 2.007 1.234 3.486 1.077 1.077 2.122 1.213 2.755 1.273a5.3 5.3 0 0 0 1.426-.05c.755-.115 1.35-.298 2.012-.522 1.323-.449 2.822-1.094 4.51-1.896a101 101 0 0 0 10.959-6.114c3.622-2.343 9.947-7.54 14.998-12.17 2.574-2.358 4.937-4.33 6.7-5.634.606-.448.999-.687 1.423-.957.658.566 1.53 1.412 2.582 2.6 2.29 2.587 5.182 6.376 8.144 10.661 5.925 8.572 12.204 19.26 15.34 26.727 5.567 13.257 6.686 18.832 7.233 36.04.593 18.673-1.463 33.202-7.026 49.825-5.213 15.58-9.067 22.234-17.99 31.25-9.33 9.426-15.571 13.077-31.367 18.262l-11.8 3.873a4.11 4.11 0 0 0-.794 7.451l4.395 2.574c7.078 4.146 12.61 6.635 18.63 7.024 5.123.33 10.378-1.128 16.559-3.454-.17.204-.257.33-.43.536-10.23 12.217-16.315 21.63-19.89 31.177-2.01 5.368-2.474 9.304-2.49 21.006-.008 6.8-.065 10.237.425 13.164s1.814 5.03 3.326 7.196c2.16 3.093 5.522 6.033 9.028 8.6 1.753 1.282 3.525 2.43 5.217 3.337 1.69.908 3.165 1.642 5.158 1.87.718.081 1.73.227 3.113-.262 1.382-.49 2.578-1.764 3.12-2.8 1.08-2.07 1.23-3.806 1.802-7.048.605-3.435 1.386-6.479 2.314-9.293.13.12.216.28.362.38.928.65 1.92.81 2.613.81 1.598 0 1.33-.205 1.557-.284a11 11 0 0 0 .62-.238c.42-.173.919-.394 1.528-.67a264 264 0 0 0 4.855-2.283 1018 1018 0 0 0 15.057-7.412c24.313-12.193 37.44-21.393 51.969-36.504 15.81-16.447 28.47-35.298 42.176-62.639 16.43-32.777 25.334-56.9 33.312-90.305 1.834-7.676 4.094-18.91 5.914-28.875.91-4.982 1.708-9.64 2.283-13.377s.954-6.232.954-8.195c0-.56.008-1.118-.055-1.8-.063-.684-.07-1.57-.945-2.848-.876-1.277-3.16-2.164-4.48-2.018-1.323.147-2.048.573-2.811 1.008-3.053 1.74-6.91 5.118-15.247 12.078-.476.398-.774.632-1.24 1.02 1.09-3.174 2.04-6.385 2.737-9.377.735-3.162 1.225-6.065 1.365-8.579.07-1.256.063-2.41-.12-3.58-.182-1.168-.423-2.487-1.78-3.845-1.05-1.05-1.753-1.1-2.243-1.213a6 6 0 0 0-1.185-.154c-.687-.034-1.318.003-2.02.066-1.403.127-3.037.393-4.764.777-3.553.792-11.52 1.504-19.056 1.744s-15.248-.072-17.4-.533c-10.64-2.282-22.991-9.923-44.68-28.638-20.824-17.97-31.892-23.3-50.49-24.186-2.857-.136-5.587-.157-7.788-.076-1.1.04-2.06.104-2.914.21-.427.054-.825.114-1.267.22-.443.105-.872.108-1.856.79-.442.307-.905.801-1.324 1.368-6.846-10.527-15.75-20.512-23.307-24.625-7.473-4.068-15.86-6.152-25.79-6.262M1176.19 776.62c-2.417 1.833-4.5 3.646-6.322 5.461-.027-.416-.02-.89-.537-1.7-.092-.144-.318-.248-.45-.386.944-.465 1.634-.845 2.637-1.332 1.416-.686 3.148-1.35 4.672-2.043m-11.412 17.61c.119.19 1.19.63.57.37-.328.14-.6.235-.922.368.087-.218.254-.508.352-.739"/><path fill="#572a47" d="M1263.055 960.58a1.9 1.9 0 0 0-.704.183c-.383.175-.693.41-1.043.707-.7.594-1.51 1.458-2.455 2.593-.913 1.097-1.575 1.99-2.02 2.768-.444.78-.81 1.48-.53 2.416.088.288.294.645.564.877s.54.347.8.44c.54.192.75.155 1.137.158h.002a3.4 3.4 0 0 0 1.428-.315c.899-.449 1.512-1.194 2.078-2.066.71-1.094 1.338-2.507 1.77-3.768.215-.63.38-1.213.466-1.738a3.4 3.4 0 0 0 .055-.79c-.017-.286-.018-.714-.53-1.138a1.54 1.54 0 0 0-1.02-.328"/><path fill="#a86aa9" d="M1273.162 957.52c-.8-.013-1.582.074-2.274.272-2.796.802-4.97 3.016-6.642 6.432-.57 1.16-.933 2.238-1.055 3.207-.06.484-.067.943.049 1.414.116.47.405 1.002.928 1.306.53.31.887.268 1.263.245a3.7 3.7 0 0 0 1.13-.25 65 65 0 0 1 2.284-.702 156 156 0 0 1 3.54-.98c3.754-.983 6.18-2.035 7.706-3.633.476-.5.85-1.019 1.05-1.635a2.83 2.83 0 0 0-.083-1.914c-.21-.503-.492-.812-.824-1.152a5.8 5.8 0 0 0-1.121-.91c-.926-.563-2.307-1.08-3.563-1.39a10.5 10.5 0 0 0-2.388-.31"/><path fill="#1f6bd6" d="M1190.334 1210.75c-.575 0-.692.123-.811.18a2 2 0 0 0-.23.126c-.104.064-.16.108-.22.152a8 8 0 0 0-.35.283q-.383.325-.962.85c-.77.698-1.788 1.647-2.882 2.691-16.233 15.49-28.173 21.697-77.73 40.377-15.145 5.71-32.137 12.79-41.694 17.381-11.107 5.336-20.217 11.055-28.15 17.695-3.422 2.867-8.027 7.33-11.831 11.29-1.901 1.98-3.595 3.826-4.842 5.3a29 29 0 0 0-1.523 1.93c-.195.277-.36.53-.508.808-.147.28-.353.495-.353 1.26 0 .515.52 1.47 1.047 1.754s.82.257 1.068.264c.494.013.897-.048 1.582-.15 1.369-.207 3.717-.638 7.959-1.432 3.502-.656 9.87-1.766 14.1-2.457 3.54-.58 5.477-.905 6.777-1.237.65-.165 1.164-.333 1.656-.61a4 4 0 0 0 1.15-1.02c8.34-11.089 17.79-21.236 23.524-25.457 10.876-8.008 24.31-13.916 57.44-25.112 7.31-2.47 15.114-5.308 17.794-6.515 8.903-4.01 16.848-9.065 31.145-19.768l8.185-6.127a1.89 1.89 0 0 0 .756-1.51v-4.53c0-1.27-.023-2.424-.064-3.29-.02-.433-.043-.788-.076-1.092a4 4 0 0 0-.077-.476c-.022-.098-.038-.202-.144-.434-.053-.116-.12-.27-.334-.506a1.9 1.9 0 0 0-.902-.553 4 4 0 0 0-.5-.066m-97.207-76.234c-9.628-.003-19.21.135-22.961.47-26.436 2.365-51.727 10.326-72.592 22.885-3.234 1.946-7.566 4.655-11.354 7.076s-6.916 4.463-8.13 5.383h-.001l-1.015.772a1.925 1.925 0 0 0-.174 2.918l1.805 1.744c3.606 3.484 9.398 6.946 13.804 8.132.538.145 1.08.28 1.547.381.466.103.688.181 1.246.205 2.064.09 3.92-.887 6.336-2.334 1.05-.628 4.267-2.243 8.506-4.263 4.24-2.02 9.584-4.5 15.227-7.069 11.284-5.137 23.773-10.642 30.966-13.56 18.83-7.638 40.347-13.436 56.278-15.207 3.89-.433 6.644-.775 8.482-1.069.92-.146 1.599-.276 2.153-.425a4 4 0 0 0 .83-.3c.157-.078.342-.172.59-.41a2.06 2.06 0 0 0 .624-1.458c0-1.087-.68-1.567-1-1.778a3.3 3.3 0 0 0-.818-.384c-.515-.177-1.084-.304-1.807-.438-1.445-.267-3.462-.526-6.062-.785-3.475-.346-12.853-.483-22.48-.486m100.62 4.734-19.013.008c-12.755.005-23.274.17-30.895.47-3.81.15-6.89.332-9.21.553a39 39 0 0 0-2.954.374c-.825.144-1.373.156-2.455.761-.575.322-1.47 1.082-1.771 2.291-.301 1.21.12 2.264.46 2.81.68 1.094 1.19 1.294 1.725 1.637 1.07.688 2.373 1.3 4.237 2.106 5.517 2.388 16.67 5.903 21.818 6.773 1.68.285 3.728.265 6.856.274s6.969-.042 10.82-.137a421 421 0 0 0 10.863-.396c3.156-.164 5.313-.27 6.942-.606.732-.15 1.542-.334 2.449-.86.907-.528 1.765-1.488 2.213-2.437.895-1.898.895-3.547 1.06-6.232l.233-3.8a3.38 3.38 0 0 0-3.377-3.589m72.144-114.35c-.927.096-1.822.387-2.701.817-4.783 2.34-8.092 8.473-9.728 16.246-.223 1.057-.837 3.388-1.32 4.976-.502 1.646-.92 3.018-.995 3.276-.15.515.182 1.595.615 1.941.434.347.683.362.887.407.408.088.726.1 1.25.123 1.048.044 2.797.057 5.88.07 4.714.02 8.709.142 12.235.371 2.923.19 5.524.352 6.207.371l.84.023a1.755 1.755 0 0 0 1.803-1.753v-10.309a1.76 1.76 0 0 0-.354-1.057l-.68-.9c-.345-.458-.858-1.01-1.638-1.854-.691-.747-1.56-1.66-2.432-2.568.194.117.434.267.608.371.644.388 1.039.627 1.37.8l.003.001.584.3a1.755 1.755 0 0 0 2.555-1.636l-.053-1.2-.053-1.204a1.76 1.76 0 0 0-.7-1.328l-1.21-.909c-2.853-2.14-7.162-4.357-10.162-5.125-.947-.242-1.883-.345-2.81-.25zm112.969 3.93c-1.884-.16-3.888-.046-6.088.266-10.801 1.532-22.222 6.128-31.242 12.556l-4.596 3.276a3.624 3.624 0 0 0 1.979 6.572l14.142.49c15.16.526 20.953 1.614 26.852 4.684.99.516 1.949.984 2.744 1.348.397.181.75.334 1.086.466.336.133.106.311 1.594.4 1.832.11 3.205-1.073 3.795-1.874.59-.8.846-1.5 1.078-2.227.464-1.453.703-3.043.85-4.808.292-3.53.183-7.566-.737-10.983-.755-2.803-1.96-5.285-3.963-7.125s-4.666-2.8-7.494-3.04"/><path fill="#4eedf9" d="M1476.367 1790.763c-.44.01-.98.113-1.633.441-1.308.656-2.094 2.495-2.094 3.424 0 .926.072.837.13 1.168.06.331.139.73.239 1.22.2.977.487 2.31.852 3.965.73 3.313 1.773 7.915 3.04 13.43a7580 7580 0 0 0 9.55 40.89c7.172 30.372 14.933 62.678 17.465 72.216 2.588 9.751 7.422 30.484 10.675 45.82 3.28 15.458 10.45 47.394 15.954 71.068l27.902 120.002c17.19 73.935 22.362 92.554 30.014 104.233 1.316 2.01 2.417 3.51 3.824 4.7.703.596 1.516 1.178 2.76 1.444 1.246.266 2.967-.125 3.986-.955 1.29-1.05 1.756-2.163 2.05-3.318.15.38.266.833.438 1.18.44.886.885 1.76 2.12 2.576 1.237.814 3.83.748 5.032-.17 1.2-.92 1.56-1.84 1.909-2.739.313-.81.516-1.69.699-2.652.132.271.209.594.363.854.533.893 1.276 2.06 3.158 2.498 1.883.437 3.772-.77 4.5-1.696 1.457-1.85 1.673-3.524 2.04-5.902.2-1.293.214-3.19.31-4.826.876.372 1.092 4.408 1.89 4.19 2.296-.632 3.274-5.474 3.788-6.268 1.224-1.895 1.514-3.672 1.908-5.975.116-.679.102-1.482.19-2.207.104.045.1.106.218.148.935.338 2.16.193 2.865-.148a3.5 3.5 0 0 0 1.268-.994c.912-1.098.777-1.36.92-1.813s.267-.93.406-1.51c.279-1.158.608-2.706 1.027-4.74 2.622-12.71.766-26.35-7.363-58.289-6.36-24.984-13.243-46.242-20.228-62.718s-13.863-28.168-21.31-34.305c-1.962-1.618-3.087-2.48-3.737-3.33s-1.198-1.973-1.776-4.844c-1.156-5.74-2.01-17.614-3.892-42.52-2.95-39.006-9.28-95.34-14.092-125.304-5.497-34.229-13.331-50.032-37.146-74.944-7.95-8.315-18.95-18.682-28.456-27.127-4.752-4.222-9.122-7.957-12.576-10.724-1.727-1.384-3.22-2.524-4.466-3.39-1.247-.868-1.72-1.49-3.676-1.923-.263-.058-.605-.145-1.045-.136m-246.29-123.563a3.805 3.805 0 0 0-4.07 4.363l1.186 7.797c1.702 11.183 2.675 47.61 2.594 98.022s-1.116 115.277-3.09 185.094c-6.775 239.575-6.872 245.263-5.09 270.377.472 6.65.98 12.005 1.445 15.43.233 1.711.33 2.702.778 3.987.112.322.13.655.81 1.461.34.404.976 9.158 2.29 9.395 1.023.185 2.025-.22 2.75-.67.083.181.09.345.197.535.233.42.528.887 1.109 1.393.58.505 1.602-6.996 2.803-6.996 1.618 0 2.829-1.03 3.33-1.698.5-.666.672-1.168.822-1.632.13-.404.144-.798.217-1.184.524.278 1.13.514 1.885.514 1.446 0 2.35-.629 2.923-1.102.572-.473.93-.923 1.272-1.396.683-.946 1.26-2.018 1.918-3.387 1.314-2.738 2.865-6.625 4.775-11.897 3.822-10.544 9.035-26.57 15.942-48.898 11.18-36.148 17.098-56.406 18.802-69.889s-1.615-20.925-7.746-27.71l-6.076-6.723 2.11-27.946a2868 2868 0 0 1 13.224-133.394c6.74-54.912 8.05-90.217 4.918-133.266-2.312-31.77-2.22-38.559.969-69.388.985-9.528 1.746-18.32 2.18-24.86.216-3.27.35-5.968.39-7.97a34 34 0 0 0-.021-2.532 9 9 0 0 0-.118-1.094c-.072-.412.334-.834-1.16-2.328-1.156-1.156-2.09-1.49-3.293-2.002s-2.613-1.005-4.24-1.51c-3.254-1.014-7.356-2.06-11.86-3.058-9.006-1.996-19.556-3.784-27.736-4.447zm397.37-121.769a.7.7 0 0 0-.483.207l-.09.111s-.04.07-.054.1a.7.7 0 0 0-.047.15c-.015.08-.013.128-.012.166.003.077.012.115.02.152.016.074.035.13.056.198.044.134.105.301.188.513.165.425.413 1.024.736 1.784a388 388 0 0 0 2.764 6.296c3.668 8.198 4.652 11.28 4.543 13.612-.056 1.21-.272 1.85-.926 2.46-.654.612-1.873 1.196-3.924 1.887a37 37 0 0 0-1.802.66c-.527.207-.887.35-1.176.532-.623.395-1.147.974-1.47 2.021-.32 1.047-.571 2.62-.985 5.442a222 222 0 0 1-.99 6.04c-.303 1.67-.64 3.771-.758 4.737-.283 2.308-.42 7.52-.21 9.297.14 1.192.308 2.034.675 2.71.366.674.974 1.11 1.677 1.352 2.23.77 5.06-.109 6.81-1.98 1.483-1.585 3.092-4.6 4.604-8.205s2.89-7.777 3.727-11.569c.582-2.634 1.1-7.015 1.383-11.603.075-1.219.128-5.54.129-9.754v-7.65a.68.68 0 0 0-.295-.563l-3.72-2.55c-3.166-2.173-5.624-3.823-7.32-4.915a46 46 0 0 0-1.974-1.218 7 7 0 0 0-.586-.305 1.4 1.4 0 0 0-.264-.092.8.8 0 0 0-.226-.023"/><path fill="#4eedf9" d="M1357.05 1051.863c-2.408.19-4.857 1.23-6.322 3.138s-2.246 4.143-3.547 7.492c-2.484 6.397-3.594 15.986-3.724 26.61s.804 22.166 2.886 31.998c1.57 7.416 4.255 15.455 7.014 21.816 1.38 3.18 2.767 5.93 4.129 8.043.68 1.057 1.347 1.958 2.113 2.727.767.768 3.629 4.785 5.297 4.925 1.716.145.65-3.916 1.26-4.535s1.035-1.272 1.445-2.01c.82-1.474 1.514-3.285 2.04-5.312.93-3.59.755-8.07-.28-14.358 3.484 11.29 7.718 25.296 12.857 42.508 28.434 95.22 40.296 126.01 75.99 197.272 13.31 26.57 34.193 65.976 52.454 99.502 9.13 16.763 17.6 32.05 24.146 43.533 3.273 5.741 6.062 10.53 8.223 14.092 2.16 3.562 3.362 5.61 4.697 7.03 7.537 8.001 20.678 14.486 39.19 19.991 7.232 2.15 10.802 3.46 11.67 4.143.433.341.39.285.513.851.122.566.164 1.764.164 3.532 0 4.496-1.33 7.535-6.217 13.246-2.004 2.341-3.696 4.655-4.884 6.638-.595.992-1.066 1.886-1.4 2.797a6 6 0 0 0-.374 1.502c-.065.59-.116 1.42.502 2.42 1.214 1.964 2.772 3.14 5.348 3.14 1.24 0 1.927-.366 2.685-.74.759-.373 1.516-.84 2.327-1.398 1.62-1.114 3.44-2.583 5.318-4.254 3.756-3.34 7.693-7.415 10.23-10.978 2.043-2.869 3.576-4.62 3.653-7.422.076-2.803-1.423-4.617-3.313-7.37-2.047-2.98-5.218-7.89-6.935-10.732-2.343-3.876-6.44-6.992-10.797-7.949-4.925-1.082-10.168-3.98-14.86-7.87a64 64 0 0 0 7.147 4.372c4.96 2.585 9.762 4.334 13.99 4.371-.677-.006.532.246 1.945 1.893 1.414 1.646 3.166 4.28 4.997 7.671 3.06 5.67 7.032 10.67 10.84 14.057 1.906 1.693 3.74 3 5.687 3.762.973.38 2 .637 3.148.576 1.15-.06 2.452-.555 3.362-1.465 1.355-1.355 1.06-2.318 1.033-3.012-.028-.693-.144-1.322-.305-2.033-.32-1.422-.852-3.127-1.55-5.119-1.391-3.983-3.448-9.053-5.731-14.246s-4.787-10.492-7.076-14.895c-2.28-4.384-4.111-7.698-6.018-9.748.47.34 1.135.736 2.164 1.955 1.36 1.611 2.787 3.77 3.828 5.913 3.387 6.97 8.937 12.452 19.817 20.048 6.262 4.373 9.846 7.15 11.912 9.438s2.825 4.06 3.73 7.496c1.417 5.377 3.32 10.067 5.38 13.445 1.029 1.69 2.058 3.064 3.398 4.106.67.52 1.446.981 2.457 1.187s2.286.027 3.242-.564c1.574-.973 1.68-1.899 1.998-2.797s.544-1.883.736-3.002c.385-2.237.606-4.98.606-7.867 0-4.727-.175-8.055-1.893-11.385s-4.553-6.203-9.51-11.133c-5.87-5.837-13.668-12.92-17.783-16.097l-.13-.1.679-.008c5.96-.068 10.693 1.095 14.104 3.137s5.598 4.893 6.677 8.85c1.253 4.59 3.908 9.953 6.742 13.19l4.108 4.69c1.944 2.215 5.586.604 5.254-2.326l-1.254-10.998v-.002a67.4 67.4 0 0 0-1.81-9.498c-.786-2.943-1.567-5.348-2.776-7.207-6.07-9.334-20.367-15.328-36.322-16.7-5.172-.444-16.2-2.665-29.64-5.96-13.442-3.296-29.437-7.664-45.153-12.41 1.052.317.66.371.37.046s-.753-.922-1.306-1.72c-1.106-1.596-2.6-4.003-4.373-7.063-3.548-6.119-8.247-14.872-13.69-25.474-10.884-21.204-24.754-49.823-38.564-79.928-19.964-43.52-34.262-72.312-51.545-103.8l-12.707-23.155-7.68-47.875c-13.158-82.034-18.883-108.09-28.253-126.512-9.343-18.366-24.673-29.542-42.172-30.113-2.253-.074-4.002-.138-5.608-.01zm221.309 482.25c.138.107.26.224.4.33-.13-.118-.272-.21-.4-.33"/><path fill="#002fa8" d="M1266.363 1021.821c-2.39.04-4.58.932-7.04 2.684-3.824 2.723-6.57 8.107-8.523 16.705-.845 3.724-2.568 9.822-2.836 10.725-.21.713-1.37.946-2.812 1.4l2.342 1.31c2.673-.323 9.613-1.308 9.613-1.308l25.594 3.43-.99-19.6.408-8.73-7.512-4.184c-3.276-1.634-5.854-2.47-8.244-2.432m.435 4.66c3.41 0 13.49 5.773 13.532 7.75.037 1.74-.293 1.638-5.635-1.75-7.23-4.585-7.396-3.619-.56 3.278 5.863 5.916 6.222 6.548 6.222 11 0 4.294.14 6.485-1.906 6.29-1.238-.117-7.278-1.075-13.496-1.25-10.131-.287-12.975 1.311-12.524-.227.277-.945 2.139-6.39 2.53-8.59 1.713-9.653 6.625-16.5 11.837-16.5m109.235.692c-19.466.638-48.413 22.246-49.602 22.246l5.473 2.135-.633 2.574 8.545-.45 8.543-.449 8.818-1.375c3.659-.352 11.43.263 17.973 1.72-6.128-2.04-8.057-3.695-21.773-3.706l-17.166-.074 5.978-4.732c11.44-9.057 28.588-13.496 36.473-13.108q.79.038 1.463.16c1.797.328 4.129 1.693 5.183 3.033 2.184 2.777 3.584 11.617 2.57 16.23-.724 3.3-2.477 6.192-4.855 4.802-.663-.388-2.391-1.5-5.566-2.043 2.16.58 4.094 1.264 5.566 2.043 2.609 1.38 5.62 2.444 8.107 4.744.757-10.62 4.98-23.937-4.826-31.477-2.325-1.655-5.972-2.415-10.271-2.273m1.424 26.963a55 55 0 0 0-2.307-.563c.754.251 1.533.43 2.307.563m-295.522 76.641c-6.635.183-12.576.688-17.078 1.56-2.75.531-8.375 1.493-12.5 2.138s-8.85 1.556-10.5 2.027c-23.488 6.703-34.94 11.778-55.08 24.408-7.657 4.801-14.515 9.303-15.24 10.004-1.951 1.887 9.198 11.653 17.174 15.043l6.18 2.625 15.984-7.646c13.617-6.516 24.786-11.64 38.982-17.89 19.323-8.509 43.469-15.539 61.03-17.769l9.03-1.146 6.97 4.078c15.277 8.942 35.53 12.775 55.693 10.537 5.63-.625 10.394-.98 10.586-.789.19.192.024 10.4-.373 22.686l-.723 22.337-8.027 8.243c-16.558 17.001-28.67 23.148-92.305 46.85-31.593 11.766-54.677 25.826-69.395 42.265-6.827 7.626-14.218 17.244-13.672 17.79.205.205 5.054-.51 10.778-1.589 5.723-1.079 15.292-2.883 21.262-4.01s11.692-2.049 12.718-2.049c1.18 0 3.208-2.112 5.522-5.75 2.01-3.162 5.736-8 8.277-10.75 13.91-15.053 23.333-20 66.629-34.978 23.996-8.302 34.004-13.527 50.5-26.363l6.5-5.057.273 16.947c-.513-31.82 2.728-107.373 3.983-107.472.199-.016-11.733.38-25.758.53-17.411.187-26.608-.095-28.998-.89-12.352-4.107-38.515-6.467-58.422-5.92m8.922 5.254c27.47-.076 42.907 2.207 25.773 3.813-3.726.35-7.673.785-8.773.968-8.995 1.502-12.1 2.152-20 4.186-12.514 3.222-22.094 6.454-35.5 11.977-12.014 4.95-49.744 22.225-51.533 23.597-3.478 2.667-6.255 2.732-11.584.27-5.045-2.33-10.883-6.858-10.883-8.438 0-.636 16.864-11.378 26.322-16.765 5.833-3.323 21.348-9.67 29.178-11.938 19.694-5.704 33.834-7.606 57-7.67m79.264 6.45h24.463l-.707 4.75c-.824 5.53-.588 5.15-3.635 5.904-2.97.74-30.482 1.335-33.885.738-9.277-1.627-26-7.662-26-9.383 0-1.268 14.68-2.01 39.764-2.01m21.35 68.648-.24 5.236-.237 5.235-9.57 7.216c-18.33 13.827-27.795 19.003-44.067 24.1-4.675 1.464-14.687 4.916-22.248 7.67-31.956 11.64-42.272 18.387-57.234 37.45l-6.325 8.056-7.347 1.172c-4.041.645-8.471 1.404-9.846 1.687s-4.945.968-7.934 1.522c-2.988.553-5.84 1.007-6.336 1.007-1.481 0 4.64-7.147 12.575-14.685 11.87-11.276 24.428-18.996 45.195-27.787 6.05-2.56 11.9-5.06 13-5.555 1.1-.494 8.75-3.423 17-6.508 47.653-17.82 61.397-24.858 76.63-39.228z"/><path fill="#4eedf9" d="M1258.825 1053.718c-10.092-.019-24.556 2.94-30.991 6.623-8.802 5.035-17.08 16.957-21.748 30.638-8.164 23.925-11.56 62.716-12.946 145.315l-.46 27.601-9.997 22.084c-12.404 27.406-17.974 40.64-40.293 95.76a5250 5250 0 0 1-23.78 57.735c-6.994 16.674-12.434 29.255-13.972 32.27-.672 1.317-2.227 3.096-2.572 3.321.178-.116-.698.337-1.781.78a198 198 0 0 1-4.32 1.69 639 639 0 0 1-13.02 4.763c-22.406 7.943-34.413 13.04-55.393 23.508-12.875 6.424-17.72 9.2-21.175 12.293-4.49 4.018-11.39 11.843-17.778 19.748s-12.162 15.73-14.396 20.093c-.474.926-.802 1.715-.924 2.545s.08 1.972.914 2.612 1.735.62 2.584.504c.85-.117 1.767-.396 2.853-.81 2.527-.966 5.303-3.313 8.89-7.083 3.589-3.77 7.9-8.986 13.005-15.707l7.26-9.56 8.365-4.087c6.13-2.993 10.295-5.586 13.596-8.53 3.31-2.955 7.68-5.53 11.306-6.97-1.317 1.01-2.12 1.685-3.617 2.764-2.996 2.16-5.246 4.183-7.732 7.483-2.487 3.3-5.24 7.855-9.512 15.3-4.805 8.375-7.91 14.488-9.436 18.766-.763 2.14-1.17 3.8-1.072 5.29.05.744.246 1.488.723 2.116s1.227 1.038 1.955 1.176c1.222.232 2.16-.127 3.37-.574 1.21-.448 2.583-1.097 4.017-1.88 2.867-1.563 5.959-3.636 8.21-5.694 2.985-2.728 6.588-7.872 9.696-13.153 3.108-5.28 5.657-10.423 6.144-13.857.045-.315.115-.519.606-.957.49-.439 1.426-1.016 2.922-1.67 2.992-1.308 8.168-2.946 16.498-5.315 18.262-5.194 23.172-7.4 33.308-14.943 1.355-1.008 2.426-1.76 3.577-2.584-1.26 1.486-2.728 3.052-4.395 4.44-.69.573-2.63 1.83-4.978 3.183a141 141 0 0 1-7.854 4.186c-7.826 3.85-12.108 5.434-21.63 8.01-3.326.9-6.523 1.83-9.013 2.613-1.244.39-2.31.744-3.14 1.043-.83.3-1.297.432-1.887.816-1.79 1.165-2.88 3.266-3.312 6.697-.433 3.431-.42 8.476-.17 16.57.666 21.667 1.79 30.238 5.36 35.684.384.588.79 1.088 1.343 1.48.55.393 1.34.652 2.1.522 1.517-.259 2.255-1.423 2.943-2.77.578-1.134.64-2.3.79-4.134.15-1.833.233-4.165.25-6.844.037-5.358-.185-12.096-.675-18.8l-.875-11.962-.088-1.197 11.568-4.07c30.91-10.876 44.504-20.513 55.708-39.656 24.744-42.28 76.03-148.365 91.125-188.522 6.32-16.818 8.083-25.943 10.792-55.914 3.26-36.055 3.837-52.63 1.448-60.46-8.51-27.894-8.327-48.717.668-76.315 4.374-13.422 9.178-22.354 19.765-36.723 4.91-6.664 15.157-18.754 18.266-21.654.689-.643 1.243-1.13 1.58-2.047.169-.458.226-1.15-.053-1.736-.28-.588-.756-.922-1.172-1.124-.83-.403-1.672-.499-2.843-.59-1.172-.094-2.646-.127-4.504-.13"/><path fill="#1f6bd6" d="M1331.623 1051.618a2.2 2.2 0 0 0-1.59.664l-21.328 21.77c-11.778 12.02-25.976 27.568-31.785 34.844-2.813 3.521-5.511 6.726-7.565 9.021-.421.47-.666.706-1.027 1.094a63 63 0 0 1-.207-5.719c.046-5.534.53-12.5 1.396-17.844.76-4.683 3.305-14.67 5.57-21.744a329 329 0 0 0 2.977-9.775c.384-1.347.695-2.498.918-3.397s.397-1.192.397-2.193c0-.88-.065-1.79-.772-2.72-.707-.932-2.176-1.322-3.137-1.147-1.921.348-3.212 1.5-5.168 3.265-3.91 3.533-9.633 10.004-17.765 19.907-21.837 26.59-31.353 54.325-29.422 85.996 1 16.395 2.568 22.35 10.928 41.398 1.674 3.815 3.27 7.28 4.51 9.818a70 70 0 0 0 1.568 3.065c.21.381.39.688.584.974.097.144.19.278.363.467.087.095.189.205.4.356.21.151 3.7 5.995 4.48 5.995.622 0 1.81-2.877 2.14-3.19.332-.31-3.245-3.588-3.15-3.8.186-.422.21-.678.243-.93.065-.506.06-.973.037-1.53-.047-1.115-.208-2.519-.47-4.07-.546-3.228-.245-11.499.81-20.758s2.796-19.725 4.84-28.192c3.347-13.86 9.115-27.523 14.229-34.277l.703-.928 5.129 7.234c8.399 11.848 26.747 36.032 37.09 48.891 7.286 9.055 19.327 19.976 32.765 29.81l5.762 4.217a2.212 2.212 0 0 0 3.437-1.19l7.47-26.808 7.47-26.804a2.21 2.21 0 0 0-.47-2.053l-4.532-5.164c-7.544-8.592-13.703-27.3-16.72-53.022-1.77-15.07-.32-31.484 3.66-42.76l2.032-5.763a2.212 2.212 0 0 0-2.076-2.95l-7.361-.029z"/><path fill="#4eedf9" d="M1347.52 1223.657c-.352-.002-.542.038-.716.073a6.5 6.5 0 0 0-.88.244 28 28 0 0 0-2.004.785c-1.563.664-3.592 1.61-5.778 2.7-14.776 7.37-30.32 12.522-44.851 14.903-7.86 1.288-26.206 1.52-32.323.514-1.715-.282-2.807-.48-4.125-.316-.658.081-2.913-3.65-3.674-2.885s.366 5.806.366 6.48c0 .68.074 1.16.18 2.045.105.887.254 2.014.433 3.305.358 2.581.836 5.815 1.326 9.002.49 3.186.993 6.321 1.399 8.703.203 1.19.38 2.19.527 2.936.073.373.136.68.2.95.034.136.063.257.114.42.026.082.055.171.116.317.06.146.054.312.527.834.615.678.806.63.98.711.176.08.295.123.415.164.238.083.46.148.724.22q.79.212 1.979.475c1.584.355 3.678.78 5.94 1.198 16.092 2.976 30.709 1.763 51.21-4.13 6.1-1.753 13.856-4.582 20.436-7.294 3.29-1.356 6.275-2.68 8.629-3.842a44 44 0 0 0 3.039-1.627c.846-.507 1.483-.873 2.183-1.646.45-.498 1.07-1.319 1.37-2.332.302-1.014.319-2.025.23-3.243-.18-2.435-.835-5.988-2.09-12.71a505 505 0 0 0-2.01-10.239c-.28-1.342-.523-2.445-.717-3.262-.097-.408-.18-.739-.263-1.029a6 6 0 0 0-.14-.445c-.063-.17.273-.16-.706-1.139-.988-.988-1.692-.838-2.045-.84"/><path fill="#1f6bd6" d="M1535.775 1846.583c-17.097-22.42-65.732-63.743-121.415-100.98-54.701-36.58-84.57-51.906-121.707-64.8-22.623-7.855-23.527-13.217-70.233-13.266-37.38-.039-56.146 2.615-68.71 10.464-12.562 7.85-18.922 20.894-25.771 46.037-10.182 37.38-12.68 43.803-34.78 43.33-8.518-.183-27.415-1.162-39.853-4.883-34.55-10.335-112.874-8.217-150.274.853-4.246 1.03 11.617-10.612 21.808-18.206 40.749-30.367 156.973-140.855 188.843-179.049 30.633-36.713 56.064-78.724 102.946-182.16 14.498-31.99 28.174-62.412 31.745-68.125l10.639-17.023 16.11 17.645c19.469 21.321 18.073 30.673 22.263 30.544 2.076-.065 2.914-20.195 14.985-36.366s29.183-19.173 36.718-23.114l14.887-7.786 15.313 9.958c16.223 10.55 28.78 45.351 45.059 95.395 21.015 64.61 35.618 132.311 48.468 242.838l4.418 38.005 14.349 21.256c18.647 27.623 32.036 59.982 42.05 88.503 7.569 21.56 22.279 91.001 20.596 92.684-.518.518-13.13-14.77-18.454-21.754"/><path fill="#0036a9" d="M1215.513 1536.08c-1.564.102-11.873 13-17.7 22.36-12.713 20.422-35.838 64.376-44.79 85.136-5.186 12.025-16.811 45.983-16.811 48.21 0 .534 1.125-.244 2.5-1.728s2.5-2.955 2.5-3.27 2.49-9.416 4.918-16.085c9.063-24.882 15.333-38.129 31.063-65.627 2.045-3.575 5.097-8.975 6.783-12 4.165-7.473 4.672-8.37 19.092-33.834 6.956-12.285 12.646-22.594 12.646-22.907q-.001-.246-.166-.255z"/><path fill="#0b1a8e" d="M1300.949 1682.03c-1.92 0-3.301 1.258-4.057 2.498-.755 1.24-1.115 2.666-1.135 4.207-.007.54-.383 5.377-.984 11.74-.6 6.36-1.423 14.601-2.322 23.174-3.036 28.943-3.09 33.821-.686 60.4 3.34 36.908 2.073 80.486-3.74 127.532a4565 4565 0 0 0-3.16 26.14 1133 1133 0 0 0-.97 8.46 245 245 0 0 0-.27 2.545c-.064.64-.105.908-.112 1.404-.013.937.363 2.028 1.028 2.764.664.735 1.473 1.117 2.228 1.334 1.51.433 3.007.347 4.774.064 2.217-.356 14.18-1.615 25.777-2.66 46.646-4.209 84.384-9.957 144.662-22.034 8.226-1.648 16.11-3.205 22.184-4.385 6.072-1.18 10.565-2.01 11.21-2.103.608-.087 1.573-.257 2.485-1.02.912-.762 3.145-.714 3.317-1.762.343-2.097-1.723-5.71-2.505-10.124-1.563-8.827-5.372-25.3-12.767-57.012-7.57-32.458-11.43-48.955-14.184-58.164-1.377-4.605-2.478-7.43-3.752-9.568s-2.735-3.46-4.2-4.696c-5.187-4.376-19.816-14.812-36.304-26.19-16.487-11.38-34.66-23.552-46.421-30.919-11.27-7.06-29.844-17.357-46.217-25.938-8.187-4.29-15.811-8.145-21.7-10.943-2.944-1.4-5.45-2.533-7.412-3.338a37 37 0 0 0-2.554-.96c-.733-.239-1.216-.446-2.213-.446"/><path fill="#01085a" d="M1286.32 1905.42c-1.72 15.408-3.334 28.695-4.032 32.663-1.2 6.815-3.568 29.65-5.947 55.738h3.268c.124-1.267.414-2.55.54-3.832 3.547-35.995 4.102-33.84 7.928-34.43 1.738-.27 9.01-.949 16.16-1.513 27.128-2.14 62.29-6.16 84-9.606 16.112-2.556 54.545-9.572 65.5-11.957 28.35-6.17 46.344-9.55 47.05-8.838.463.465 1.802 5.12 2.978 10.344 2.728 12.13 2.534 11.291 4.49 19.5.917 3.85 1.817 7.675 2 8.5s1.083 4.65 2 8.5 1.82 7.675 2.004 8.5c.794 3.55 2.099 9.268 3.383 14.832l3.416.138c-1.624-7.084-2.415-15.737-3.416-19.97a1963 1963 0 0 1-3.37-14.5c-1.26-5.568-2.881-12.608-7.597-33-1.018-4.4-4.19-12.853-5.618-18.903l-.49-2.07-1.76-.097c.215.908.42 1.785.618 2.615 1.43 6.05.194 13.262-.268 12.797-.707-.712-17.455 2.511-45.804 8.682-10.956 2.385-49.39 9.4-65.5 11.957-21.71 3.445-56.873 7.466-84 9.605-7.15.564-14.423 1.244-16.16 1.512-3.826.591-3.878-7.328-2.655-14.283.702-3.987 2.327-17.382 4.057-32.885z"/><path fill="#0b1a8e" d="M1221.135 1668.102c-26.273-.604-51.847 3.674-64.004 9.877-15 7.48-17.013 5.49-22.466 21.691-3.15 9.443-5.29 19.726-10.7 39.053-1.194 4.262-2.62 11.062-4.502 14.951s-3.928 6.195-6.067 8.334c-5.08 5.08-16.576 5.644-27.764 5.314s-25.787-2.965-44.757-7.86c-28.94-7.47-30.632-7.62-66.895-6.349-20.595.723-44.817 2.997-52.621 4.768-6.354 1.442-9.975 2.225-12.584 2.27-.652.01-1.261 0-2.05-.247-.642-.2-1.491-.855-2.05-1.765-2.154 1.573-4.79 3.624-7.754 6.105-6.376 5.34-14.15 13.79-16.507 17.606-4.56 7.375-5.785 15.807-3.983 25.197s6.723 19.672 14.467 30.13c15.489 20.913 41.995 47.151 76.377 64.262 45.878 22.833 109.628 36.753 215.73 48.18 13.735 1.48 29.21 2.624 33.49 3.468l10.005.785c.368-10.092 1.302-17.417 1.736-30.92 1.598-49.777 4.557-107.287 4.408-154.388-.074-23.55-2.227-48.176-2.717-64.532s-2.13-24.558-2.92-28.877c-.336-1.845-.415-4.768-.463-6.182-.034-1.026-5.36.178-4.992-.846-.2-.01-.213-.02-.418-.025z"/><path fill="#00133c" d="M1603.775 2277.623c-1.1-.45-3.175-.6-4.611-.332-4.006.746-8.632-2.266-12.293-8.006-4.767-7.472-12.065-26.56-14.607-38.202-1.201-5.5-2.604-11.575-3.118-13.5s-1.816-7.55-2.892-12.5a1116 1116 0 0 0-3.98-17.5 1227 1227 0 0 1-3.891-17c-2.088-9.495-9.344-41.203-12.243-53.5a710 710 0 0 1-3.441-15.5c-.856-4.125-2.155-9.525-2.888-12s-2.04-7.65-2.905-11.5-2.738-11.95-4.162-18l-4.59-19.5c-4.68-19.888-5.987-25.466-7.905-33.75-2.072-8.943-4.014-17.314-8.53-36.75-1.405-6.05-3.402-14.6-4.437-19a1541 1541 0 0 1-3.546-15.5c-.916-4.125-2.488-10.2-3.497-13.5-1.01-3.3-2.545-9.375-3.415-13.5s-2.426-11.1-3.458-15.5l-3.983-17a18733 18733 0 0 0-4.108-17.5c-11.043-46.914-13.62-57.949-15.501-66.402-1.48-6.649-.256-5.442-20.947-20.632-20.682-15.183-42.09-29.68-70.052-47.438-23.727-15.068-56.66-32.278-75.382-39.39l-4.866-1.85-.61 5.606c-1.792 16.51-4.763 45.123-5.808 55.94-1.213 12.567-1.12 14.428 2.36 47.166 1.443 13.581 1.438 67.566-.008 80.5-4.89 43.733-8.671 74.722-10.127 83-1.778 10.116-6.34 60.304-9.577 105.344l-1.534 21.345 5.974 6.386c6.97 7.452 8.08 10.547 8.036 22.425-.042 11.56-1.658 19.063-10.045 46.66-2.815 9.262-5.972 19.652-7.015 23.09-4.75 15.65-5.926 19.46-9.332 30.25-5.808 18.398-10.656 32.191-12.83 36.5-3.833 7.601-10.962 16.04-15.284 18.09-10.708 5.081-12.86-6.098-12.916-67.09-.02-21.45 1.032-75.675 2.336-120.5 1.305-44.825 2.588-90.554 2.85-101.62l.48-20.12-3.496-.655c-1.923-.36-11.98-1.53-22.35-2.596-119.082-12.255-182.486-26.213-232.356-51.153-39.27-19.639-70.371-46.404-84.95-73.106-14.397-26.372-8.19-48.592 19.32-69.146 12.025-8.984 21.687-15.673 23.962-16.587 5.068-2.036 33.07-26.013 69.508-59.517 10.17-9.35 23.478-21.486 29.575-26.97 20.185-18.153 78.033-76.676 88.993-90.03 16.962-20.669 26.967-35.523 43.779-65 9.75-17.094 29.246-56.097 40.24-80.5 4.833-10.725 9.625-21.3 10.65-23.5s6.18-13.675 11.46-25.5c17.616-39.464 27.935-60.58 35.003-71.63 3.735-5.839 4.178-9.285 2.427-18.87-.502-2.75-1.847-11.075-2.99-18.5l-2.683-17.443c-.546-3.534-1.952-6.243-10.063-19.38-1.248-2.023-3.708-6.489-5.465-9.927s-3.491-6.25-3.852-6.25c-.362 0-.977 6.413-1.367 14.25-.727 14.615-1.18 19.92-3.98 46.75-2.404 23.017-5.468 33.482-18.885 64.5-5.987 13.842-9.733 22.012-27.97 61-17.49 37.393-51.682 102.8-58.55 112-11.767 15.763-21.813 22.246-49.662 32.048l-12 4.223.159 4.865c.087 2.675.482 11.39.877 19.364.646 13.024.528 14.907-1.16 18.5-1.534 3.266-2.458 4.056-5.036 4.307-7.221.7-10.998-9.585-11.997-32.675-.65-15.017-.671-15.122-2.42-12.248-1.475 2.427-1.815 5.88-2.092 21.257-.282 15.614-.616 18.933-2.238 22.2-3.893 7.841-12.151 8.336-15.267.915-.935-2.226-1.784-8.068-2.085-14.342-.504-10.482-.532-10.58-2.875-10.133-2.266.433-2.366.81-2.366 8.932 0 17.277-6.208 27.457-14.15 23.207-3.25-1.74-4.852-7.09-4.83-16.138.019-7.765.516-12.286 2.834-25.782.52-3.025.82-5.632.67-5.793-.152-.16-3.144 2.697-6.65 6.35-7.027 7.324-10.32 9.443-14.67 9.443-3.017 0-6.22-2.63-6.182-5.079.04-2.572 3.759-9.715 8.132-15.617 4.274-5.77 20.926-25.333 25.975-30.517 2.296-2.357 29.83-16.643 42.87-22.243 10.966-4.71 29.487-11.78 41.173-15.716l12.697-4.279 2.025-4.524c8.903-19.9 25.774-60.562 42.329-102.025 4.94-12.375 9.593-23.85 10.338-25.5s2.892-6.825 4.772-11.5c3.073-7.643 11.1-26.156 17.128-39.5 1.242-2.75 4.54-10.175 7.328-16.5l5.07-11.5.625-41.933c.343-23.064.794-42.208 1-42.543.209-.336.688-7.116 1.067-15.067 1.169-24.547 1.427-27.212 4.559-46.957 2.094-13.208 2.266-13.915 6.426-26.5 9.567-28.94 27.743-39.86 63.083-37.896l12.38.688v-17.762c0-17.733-.003-17.76-2.17-17.195-2.981.78-14.977-1.67-22.83-4.665-5.673-2.163-13.967-6.442-20.524-10.589-1.816-1.148-2.954-.588-11 5.41-19.56 14.583-28.898 17.944-54.32 19.553-15.868 1.003-32.126 3.65-40.53 6.598-2.132.747-4.27 1.36-4.75 1.36-2.955 0 1.2-15.035 6.634-24 3.228-5.328 16.935-19.542 20.983-21.76 3.474-1.903 1.259-2.147-10.015-1.102-7.724.717-14.348.69-22.352-.092-17.597-1.717-28.05-5.907-43.533-17.45-4.867-3.628-9.86-6.597-11.094-6.597-7.1 0-20.547-8.162-30.213-18.337-8.56-9.012-12.244-15.346-16.387-28.178-2.318-7.18-4.557-11.806-7.972-16.466l-4.75-6.482 10.662-4.234c29.282-11.63 42.268-22.58 50.166-42.303 1.21-3.025 2.568-6.4 3.015-7.5s2.924-8.3 5.505-16c6.735-20.093 11.242-28.284 21.047-38.25l8.116-8.25h-5.76c-3.401 0-7.544-.764-10.114-1.866-8.064-3.457-17.472-14.574-22.558-26.656-2.308-5.482-5.351-21.226-5.142-26.604.072-1.856-.407-6.299-1.064-9.874-1.554-8.45-.603-17.306 1.778-16.564 21.52 6.707 43.954 6.107 73.173-1.956 11.554-3.189 26.043-7.788 54.54-17.31 50.283-16.808 71.75-22.17 88.729-22.17 20.137 0 34.892 7.833 46.615 24.75l2.252 3.25h11.015c13.273 0 24.433 2.52 33.494 7.56 4.969 2.765 23.344 16.758 25.355 19.31.275.348 4.325 3.837 9 7.753 25.208 21.115 38.038 24.015 73.37 16.582l8.873-1.867-.443 10.58c-.244 5.82-1.01 11.632-1.703 12.917-1.51 2.8-.457 4.376 1.31 1.96 2.426-3.318 20.722-15.796 23.16-15.796.376 0 .373 1.463-.007 3.25-.38 1.788-1.525 8.875-2.547 15.75-4.18 28.128-9.777 52.933-16.815 74.5-8.938 27.394-21.49 55.83-34.66 78.523-26.283 45.286-49.76 65.89-100.832 88.496-5.937 2.627-11.168 5.498-11.626 6.38-.458.88-1.138 4.54-1.512 8.133-.738 7.09-1.74 9.598-3.42 8.56-.593-.367-3.118-1.28-5.612-2.03l-4.536-1.366v27.304l18.868-.263c21.546-.3 27.384.688 38.132 6.452 7.844 4.207 16.095 13.136 21.232 22.98 8.019 15.361 16.044 44.715 21.278 77.831.87 5.5 2.484 15.625 3.588 22.5 3.065 19.08 5.76 36.203 7.874 50 3.703 24.178 4.218 26.522 6.817 31a407 407 0 0 1 4.78 8.5c1.193 2.2 6.57 12.1 11.952 22 12.378 22.775 23.868 45.773 34.97 70l11 24a4001 4001 0 0 1 7.478 16.5c2.853 6.325 14.408 30.187 25.678 53.027l20.493 41.528 17.18 4.852c9.449 2.67 20.105 5.66 23.68 6.646s10.325 2.91 15 4.273c6.22 1.815 12.252 2.676 22.489 3.21 9.712.507 14.756 1.2 16.5 2.261 10.72 6.533 19.296 12.856 20.434 15.07 2.04 3.965 6.235 29.976 5.249 32.545-.412 1.073-1.868 1.588-4.49 1.588h-3.883l-.64 9.007c-.711 10.028-2.665 15.993-5.24 15.993-3.064 0-8.234-4.009-10.786-8.363-1.383-2.36-3.44-7.819-4.568-12.129-1.877-7.166-4.191-11.508-6.134-11.508-.417 0-.96 5.063-1.204 11.25-1.028 25.953-9.864 42.698-20.715 39.254-5.155-1.637-5.923-8.439-3.043-26.965 1.926-12.386.37-12.5-8.977-.667-7.408 9.38-13.145 13.99-18.34 14.741-3.97.574-7.774-1.383-9.44-4.858-1.116-2.327-1.017-3.217.742-6.665 1.116-2.188 4.283-6.232 7.038-8.987 4.533-4.533 5.008-5.436 5.008-9.527v-4.52l-5.75-1.574c-34.552-9.457-44.895-16.5-56.518-38.482-2.471-4.675-8.756-16.375-13.965-26-5.21-9.625-14.21-26.275-20.003-37s-14.666-27.15-19.72-36.5c-12.798-23.674-41.41-81.28-48.427-97.5-24.964-57.697-24.914-57.57-36.468-94.5-7.155-22.869-10.233-33.189-17.15-57.5-3.364-11.825-6.363-22.175-6.663-23-.91-2.493-1.03-2.12-12.328 38.5-3.366 12.1-6.783 24.365-7.593 27.255-1.3 4.638-1.3 6.165.018 13 2.325 12.07 5.389 29.287 6.094 34.245 1.39 9.77 2.525 11.99 7.404 14.49 8.075 4.14 15.334 10.354 21.346 18.28 3.226 4.251 6.142 8.405 6.48 9.23.337.825 1.915 3.632 3.506 6.238 7.51 12.298 24.558 56.28 33.242 85.762.89 3.025 2.753 9.325 4.138 14 7.498 25.308 18.387 72.51 23.877 103.5 5.648 31.886 13.346 85.727 19.31 135.048l1.698 14.048 8.577 14.452c15.3 25.783 28.353 50.488 35.106 66.452 10.173 24.047 19.449 53.306 26.363 83.155 4.613 19.918 9.765 46.207 10.942 55.845.27 2.2.904 6.025 1.41 8.5 3.596 17.55 8.288 51.27 11.552 83 .82 7.975 1.95 18.325 2.51 23 1 8.336 3.063 33.613 5.357 65.627l1.155 16.127 5.218 4.121c5.887 4.65 13.918 15.935 18.45 25.925 10.116 22.306 23.235 65.013 29.74 96.814 3.993 19.52 4.35 36.153.93 43.218-1.333 2.757-3.157 4.84-4.77 5.448-2.191.828-2.626 1.634-2.715 5.044-.11 4.13-2.863 7.676-5.964 7.676-.764 0-1.39.8-1.39 1.778 0 3.533-2.986 6.376-6.39 6.083-1.79-.154-4.247.473-5.618 1.432-2.67 1.871-3.51 1.968-6.491.747m4.3-4.24c.768-.768 1.235-5 1.298-11.75l.098-10.55 1.405 6.5c.772 3.575 1.69 8.21 2.04 10.301.522 3.118 1.009 3.748 2.707 3.5 2.74-.399 3.41-3.207 3.652-15.3.286-14.34 1.522-17.27 2.188-5.187.53 9.645 1.937 13.72 3.73 10.816.46-.744 1.178-7.265 1.594-14.49.802-13.94 1.166-14.656 2.288-4.504.52 4.705 1.12 6.42 2.334 6.652 4.863.934 5.34-21.174.915-42.288-5.063-24.15-15.47-61.63-19.99-72-.48-1.1-2.961-7.4-5.514-14-7.3-18.868-14.89-30.309-24.55-37.004-3.974-2.754-3.995-2.802-4.01-9.382-.01-3.638-.478-12.014-1.042-18.614s-1.89-22.35-2.946-35c-3.728-44.613-9.64-93.393-15.39-127-3.71-21.68-17.955-41.06-23.107-47.5-6.154-7.692-26.982-27.875-40.101-38.858-19.655-16.454-20.828-17.354-21.193-16.259-.17.51.812 5.581 2.182 11.271 3.578 14.86 9.073 38.116 11.068 46.846a5087 5087 0 0 0 7.567 32.5c1.04 4.4 5.979 25.55 10.977 47 8.147 34.965 10.945 46.95 14.007 60 .517 2.2 2.076 8.95 3.466 15s3.415 14.825 4.5 19.5c1.086 4.675 2.886 12.438 4 17.25a5912 5912 0 0 0 4.087 17.5 3311 3311 0 0 1 4.004 17.25c1.07 4.675 2.618 10.975 3.443 14 .824 3.025 2.643 10.675 4.04 17 1.399 6.325 3.183 14.2 3.965 17.5s2.793 12.075 4.469 19.5 3.48 15.3 4.006 17.5c.528 2.2 2.096 8.95 3.486 15s3.415 14.825 4.5 19.5a5617 5617 0 0 1 4.027 17.5c5.34 23.408 6.507 27.695 10.214 37.5 4.503 11.908 7.454 17.434 11.162 20.897 2.13 1.99 2.825 2.181 4.095 1.127 1.162-.964 1.556-3.58 1.642-10.896l.112-9.628 1.72 8.754c1.63 8.288 3.624 13.746 5.024 13.746.347 0 1.17-.54 1.83-1.2m-378.176-19.05c-.337-3.987-.21-8.825.28-10.75.8-3.143.903-2.832.995 3.06.062 3.992.665 7.317 1.54 8.5 1.333 1.796 1.563 1.82 3.098.307 1.308-1.288 1.427-2.067.562-3.685-1.49-2.783-1.253-14.87.376-19.182 1.21-3.2 1.277-2.727.788 5.562-.526 8.934.425 13.438 2.838 13.438 3.292 0 14.733-33.44 35.755-104.5 4.796-16.213 6.315-23.548 6.834-33 .76-13.873-.36-17.408-7.845-24.732l-5.976-5.847 1.576-22.21c3.487-49.15 6.905-85.555 11.57-123.21 1.09-8.8 2.894-23.876 4.01-33.5 1.116-9.626 2.567-21.776 3.223-27 1.558-12.399 1.55-79.016-.011-92.5-.637-5.5-1.644-14.11-2.24-19.13-.755-6.388-.771-11.947-.052-18.5.565-5.155 1.917-18.146 3.004-28.87 1.087-10.726 2.197-20.85 2.467-22.5s.743-5.609 1.05-8.796l.563-5.795-3.3-1.38c-3.024-1.263-14.945-4.513-22.228-6.06-8.835-1.875-37.58-4.79-38.471-3.9-.645.646-.454 9.24.555 24.957 4.463 69.522 4.508 48.536-.495 231.473-1.121 40.975-2.701 100.6-3.512 132.5s-2.015 72.4-2.676 90c-1.817 48.315-.27 104.208 3.059 110.425 2.277 4.255 3.292 2.283 2.663-5.175m-5.113-304c.457-1.275 1.223-26.383 4.022-131.84 1.444-54.407 1.444-61.757-.006-84.5-.874-13.7-2.096-33.685-2.717-44.41-.62-10.725-1.208-19.613-1.304-19.752-.188-.27-33.762 1.616-39.37 2.211-1.85.197-6.27.906-9.82 1.576l-6.458 1.218-14.28 28.696c-16.908 33.975-20.726 40.66-27.588 48.31-5.554 6.193-14.355 13.352-19.956 16.233-4.557 2.345-18.295 3.105-28.033 1.552a1141 1141 0 0 0-10-1.56c-1.375-.2-5.875-1.47-10-2.825-6.295-2.066-10.71-3.396-17.5-5.272-.55-.152-6.4-1.48-13-2.95-10.44-2.324-14.925-2.736-34.5-3.167-25.265-.556-37.81.315-59.985 4.165-11.796 2.047-18.316 3.84-28.412 7.805-15.145 5.951-26.525 20.178-27.423 34.284-1.702 26.73 32.89 66.515 80.82 92.958 18.606 10.264 46.624 21.43 70 27.898 9.993 2.764 39.345 9.455 48.5 11.055 4.95.865 10.35 1.837 12 2.16 7.772 1.522 32.896 5.302 53 7.975 14.164 1.884 55.515 6.568 71 8.043 3.28-.272 8.459 3.037 11.01.137m329.14-85.222c-.312-.81-1.965-8.347-3.675-16.75-2.977-14.63-10.41-44.747-13.64-55.278-4.791-15.618-7.127-22.37-12.108-35-9.91-25.125-21.58-48.21-39.935-79l-8.942-15-1.206-10.5c-3.815-33.204-9.765-76.994-15.082-111-3.077-19.676-8.99-51.85-11.943-65-1.05-4.675-2.81-12.55-3.912-17.5-13.53-60.805-37.583-129.276-54.967-156.47-4.635-7.25-14.462-17.384-20.013-20.637l-4.465-2.617-9.476 9.362c-14.23 14.06-22.815 24.628-50.278 61.906l-7.491 10.17-3.665-4.13c-6.842-7.71-15.972-22.529-24.543-39.834-4.7-9.487-8.69-17.25-8.868-17.25s-2.764 4.163-5.747 9.25c-7.652 13.054-13.718 25.931-43.222 91.75-15.414 34.387-19.486 43.038-31.54 67-12.276 24.4-16.455 31.984-30.58 55.5-23.606 39.3-52.08 70.62-130.924 144-47.785 44.475-75.723 68.441-94.142 80.76-15.188 10.157-18.42 12.628-14.786 11.307 4.407-1.602 17.5-4.713 26-6.177 22.176-3.82 34.407-4.672 59.373-4.132 22.95.496 36.336 2.345 51.815 7.157 2.646.822 8.637 2.693 13.312 4.156 4.675 1.464 9.4 2.797 10.5 2.963s5.367.84 9.483 1.497c11.1 1.773 22.57.917 28.02-2.09 7.938-4.38 10.76-10.29 17.528-36.684 6.5-25.359 8.452-31.23 11.908-35.83 13.45-17.904 36.917-24.69 85.06-24.597 47.143.09 78.422 8.895 127.644 35.932 52.18 28.661 127.058 81.636 164.818 116.606 17.525 16.23 33.325 35.19 36.987 44.382.712 1.788 1.738 3.25 2.28 3.25s.732-.662.42-1.472m-425.601-121.278c2.976-3.986 11.013-18.83 19.628-36.25 8.024-16.225 15.092-29.83 15.707-30.235 2.785-1.83-1.226-.476-6.995 2.365-13.758 6.773-20.644 18.555-27.975 47.87-2.545 10.175-5.264 19.513-6.043 20.75-.812 1.29-.977 2.25-.388 2.25.566 0 3.295-3.037 6.066-6.75m502.494-139.642c2.68-1.878 6.957-11.553 8.885-20.108.922-4.088 1.575-11.576 1.57-18l-.007-11-6.995-4.803c-3.847-2.642-6.995-4.58-6.995-4.306s1.516 3.824 3.368 7.89c6.886 15.108 6.84 17.677-.345 19.83-3.702 1.11-3.981 1.465-4.546 5.786-.33 2.531-1.023 6.763-1.54 9.402-1.067 5.466-1.227 12.78-.33 15.12.75 1.953 4.278 2.05 6.935.19m-624.065-13.109c2.502-5.064 3.802-24.213 1.787-26.32-3.156-3.303.029-12.707 9.977-29.463 2.215-3.73 3.81-7 3.547-7.263-.264-.264-2.96.617-5.993 1.96-8.504 3.76-12.134 9.387-14.245 22.086-2.846 17.118-3.482 22.736-3.516 31.027-.05 12.403 4.249 16.463 8.443 7.973m24.918-1.82c1.878-2.516 2.143-4.44 2.448-17.75.188-8.21.08-14.93-.242-14.93-.32 0-2.646 1.575-5.168 3.5s-5.056 3.5-5.632 3.5c-.694 0-.904 4.001-.623 11.87.58 16.318 3.774 21.1 9.217 13.81m567.028.706c2.273-1.438 6.37-5.548 9.105-9.133 2.735-3.586 5.815-7.607 6.844-8.938 1.665-2.153 1.702-2.55.337-3.616-1.99-1.556-8.677-12.066-11.091-17.43-1.724-3.832-2.274-4.24-6.5-4.84-10.142-1.439-22.502-9.787-27.193-18.367a119 119 0 0 0-3.39-5.722c-.997-1.562 1.572.774 5.709 5.19 8.508 9.083 15.082 12.918 25.413 14.825l6.444 1.19 4.459 8.344c5.632 10.54 9.505 15.44 13.832 17.492 4.147 1.968 5.676 2.021 8.057.28 1.728-1.263 1.4-2.31-5.864-18.75-4.232-9.576-8.418-19.108-9.301-21.183s-3.548-5.562-5.922-7.75c-5.006-4.613-4.122-5.06 2.683-1.358 4.362 2.375 5.11 3.336 7.974 10.25 2.619 6.32 3.853 8.06 7.194 10.13 2.218 1.375 7.24 4.836 11.16 7.692s8.97 6.53 11.223 8.165c3.488 2.532 4.254 3.763 5.168 8.308 1.8 8.948 5.128 16.565 8.46 19.37 4.142 3.485 4.73 2.324 5.463-10.798.535-9.558.416-10.495-1.806-14.135-4.624-7.574-14.503-16.966-23.747-22.578-5.71-3.465-8.582-5.754-7.827-6.234.657-.418 4.14-.766 7.74-.775 5.773-.013 7.19.395 12 3.46 3 1.91 5.998 3.485 6.664 3.5.665.014 1.73 1.938 2.369 4.275 2.912 10.678 4.348 14.166 7.135 17.341 3.232 3.68 6.825 4.567 6.726 1.66-.032-.963-.427-3.776-.877-6.25a848 848 0 0 1-2.04-12c-.673-4.126-1.92-8.286-2.772-9.245-.853-.96-5.646-4.393-10.65-7.63l-9.101-5.887-13.5-.715c-12.102-.64-15.52-1.28-33-6.175-25.908-7.255-32.19-9.064-40.5-11.66l-7-2.189-11.198-22c-12.5-24.56-33.26-67.563-39.748-82.337-7.532-17.15-30.703-66.38-35.848-76.163-10.63-20.212-26.116-48.77-29.543-54.482-3.75-6.25-4.1-7.72-8.092-34.018-15.374-101.285-21.141-127.58-32.891-149.968-8.847-16.857-25.235-26.532-44.94-26.532-4.07 0-4.11.036-6.25 5.75-4.547 12.137-5.436 17.282-5.398 31.25.05 18.625 3.306 37.033 9.442 53.38 1.99 5.305 8.062 13.62 9.943 13.62.41 0 1.775-3.618 3.034-8.04 2.606-9.15 2.794-7.534-4.092-35.21-3.89-15.633-4.78-20.882-3.01-17.75.465.825 5 15.45 10.074 32.5 11.284 37.908 11.41 38.331 13.9 47 4.33 15.07 19.344 64.916 20.15 66.9.47 1.155 2.304 6.825 4.077 12.6 1.772 5.775 8.14 21.975 14.153 36 11.425 26.653 11.892 27.717 19.98 45.5 6.444 14.163 27.23 55.711 37.524 75 9.2 17.238 31.747 59.147 45.194 84 5.06 9.35 11.177 20.825 13.596 25.5 9.77 18.884 22.37 27.51 50.588 34.635 5.695 1.438 10.85 3.12 11.456 3.74.707.723.884 3.458.496 7.656-.562 6.055-.904 6.8-4.703 10.232-2.254 2.036-5.354 5.515-6.89 7.731-2.704 3.902-2.735 4.093-.993 6.018 2.412 2.665 4.964 2.504 9.91-.626m-542.306-5.136c1.038-2.677.704-19.635-.706-35.836l-.616-7.086 2.853-1.057c1.57-.582 7.129-2.504 12.354-4.27 23.126-7.822 37.795-17.1 47.38-29.97 6.9-9.264 42.305-76.984 59.094-113.03 2.69-5.776 7.325-15.676 10.3-22 17.028-36.19 28.609-64.217 32.232-78 2.826-10.755 6.404-45.73 7.824-76.5.778-16.837.759-17.084-1.968-25.583-3.254-10.14-5.866-25.39-5.851-34.157.028-17.006 6.494-42.926 14.2-56.928 7.453-13.544 19.692-29.89 30.537-40.787 3.09-3.105 3.25-3.528 1.595-4.18-5.5-2.165-26.94.78-35.33 4.85-18.103 8.785-28.547 35.2-31.942 80.784-2.58 34.642-3.06 45.402-3.696 82.924l-.677 39.923-6.41 14.077c-3.523 7.742-6.815 14.976-7.314 16.076-8.718 19.22-16.612 38.075-33.495 80-18.246 45.312-23.037 56.992-27.485 67-.49 1.1-2.992 6.95-5.563 13-7.41 17.444-9.235 21.261-10.55 22.074-1.043.644-20.806 7.75-28.881 10.383-3.06.998-12.765 4.762-15.5 6.012-1.1.502-5.375 2.35-9.5 4.105s-14.925 6.92-24 11.474c-17.94 9.004-16.86 8.1-35.077 29.452-9.012 10.564-15.923 20.96-15.923 23.95 0 1.751 4.055 1.18 7.726-1.09 3.476-2.148 14.125-14.55 21.988-25.607 3.85-5.413 4.953-6.238 12.776-9.55 6.232-2.638 9.85-4.928 13.287-8.414 3.43-3.479 6.475-5.409 11.125-7.053 3.522-1.246 6.573-2.095 6.78-1.887.208.207-2.487 2.243-5.987 4.524-3.501 2.28-7.282 5.155-8.402 6.387-2.867 3.154-13.843 21.72-18.437 31.187-4.512 9.3-4.93 12.558-1.606 12.543 4.136-.018 12.202-4.644 16.9-9.693 4.22-4.536 12.802-20.182 12.882-23.487.083-3.434 3.24-5.05 17.12-8.774 23.4-6.276 26.954-7.82 37.683-16.36 4.034-3.213 7.538-5.636 7.788-5.386s-1.047 2.424-2.882 4.832c-3.465 4.547-11.28 9.742-20.741 13.788l-7.5 3.208c-1.86.796-4.271 1.48-19.82 5.615-9.031 2.402-9.09 2.588-8.372 26.568.58 19.38 1.659 27.031 4.583 32.495 1.61 3.011 3.94 2.768 5.224-.546m604.87-42c-.034-1.668-1.794-3.094-8.235-6.672-7.8-4.333-9.2-3.556-1.66.921 2.778 1.65 5.764 3.787 6.636 4.75 1.637 1.81 3.286 2.315 3.259 1.001m-361.485-267.27c14.24-2.387 28.623-6.648 41-12.147 13.505-6 13.41-5.916 12.41-11.025-.462-2.37-1.785-9.699-2.94-16.288-1.152-6.588-2.295-12.178-2.54-12.422-.242-.243-5.657 2.143-12.032 5.303-12.372 6.133-27.996 11.681-38.476 13.663-7.408 1.402-25.29 1.671-35.3.532l-6.876-.782.597 3.343c.33 1.84 1.37 8.743 2.312 15.343s1.78 12.111 1.86 12.248c.279.47 21.993 4.09 24.985 4.166 1.65.041 8.4-.83 15-1.935m-55.41-57.15c-1.816-5.21-1.305-25.76.96-38.657 3.408-19.382 8.535-35.843 13.915-44.672 6.99-11.473 6.023-10.82 8.669-5.844 1.28 2.407 4.248 6.903 6.597 9.99 2.348 3.087 5.169 6.852 6.269 8.366s4.49 5.843 7.532 9.62c3.043 3.777 8.796 11.443 12.785 17.035 9.227 12.934 20.173 23.944 34.732 34.934 6.325 4.775 11.638 8.506 11.804 8.29.328-.422 2.494-7.97 8.15-28.39 1.98-7.15 4.499-16.069 5.598-19.82l1.998-6.819-3.953-3.836c-7.242-7.029-13.407-23.558-17.103-45.854-3.514-21.2-2.538-37.925 3.119-53.455 1.158-3.18 1.876-6.013 1.594-6.294-.281-.282-4.28-.155-8.884.282l-8.372.795-22.002 22.5c-13.71 14.02-25.28 26.894-30.697 34.158-4.782 6.412-9.168 11.951-9.748 12.31-.703.434-1.053-1.95-1.053-7.185 0-15.906 3.164-31.974 9.89-50.224 1.71-4.643 3.11-8.53 3.11-8.637s-1.374-.397-3.054-.643c-2.781-.408-3.795.365-11.318 8.636-7.988 8.783-19.22 22.911-23.124 29.085-7.831 12.387-14.547 30.78-16.525 45.26-1.944 14.225-.815 35.474 2.484 46.74 2.753 9.403 16.617 38.76 17.316 36.664.22-.664-.09-2.614-.69-4.334m33.536-115.587c3.184-4.258 14.696-16.827 25.582-27.93l19.793-20.189v-34.052l-5.91-5.786c-6.398-6.266-8.59-11.295-9.716-22.286-1.381-13.494 6.019-34.642 16.806-48.029 4.238-5.258 4.668-6.145 2.684-5.526-5.96 1.86-13.664 1.775-19.193-.214-6.087-2.188-17.783-9.579-21.595-13.645l-2.426-2.586h2.925c5.589-.002 21.986-5.152 32.424-10.185 13.998-6.75 22.366-15.04 29.15-28.884 9.345-19.073 13.208-36.596 13.21-59.93 0-14.699-.287-17.556-2.627-26.156-2.93-10.767-6.817-19.91-12.4-29.158-4.187-6.94-17.342-24.687-18.297-24.687-.34 0-2.626 2.056-5.078 4.57-12.45 12.76-28.99 22.64-42.458 25.36-3.3.667-6.847 1.455-7.882 1.75-1.09.312 1.323-3.127 5.737-8.177 6.974-7.977 14.425-19.056 13.463-20.018-.218-.218-3.572 3.076-7.454 7.32-17 18.584-30.521 24.762-62.864 28.724-21.542 2.638-26.638 3.515-35.148 6.048l-8.147 2.425-.74 13.75c-1.45 27.014.334 39.387 11.79 81.748 1.044 3.858 1.163 8.313.522 19.5-1.697 29.642 2.367 47.697 14.344 63.724 14.028 18.77 42.129 37.397 62.824 41.644 10.553 2.165 15.226 1.08 28.055-6.518 3.332-1.974 3.282-1.864-1.05 2.288-2.501 2.4-5.99 5.13-7.75 6.065l-3.2 1.704v42.854l-3.576 9.87c-5.911 16.31-11.646 44.86-8.638 43.001.577-.356 3.654-4.132 6.839-8.39m-21.874-130.382c-3.876-1.447-3.541-4.66 1-9.597 4.946-5.376 8.99-7.263 15.565-7.263 6.608 0 10.685 2.64 10.685 6.918 0 3.757-2.402 5.662-10.045 7.966-8.663 2.612-13.895 3.212-17.205 1.976m6.426-6.87c2.003-4.77.966-5.135-2.587-.913-3.031 3.602-3.258 4.927-.84 4.913 1.09-.006 2.383-1.516 3.427-4m9.824 1.743c7.916-1.99 10.279-5.547 5.107-7.688-4.652-1.927-8.251-.979-10.825 2.853-2.81 4.182-3.085 7.625-.532 6.641.962-.37 3.775-1.184 6.25-1.806m-42.46-59.81c-2.007-2.794-4.06-6.057-4.56-7.25-1.821-4.34-3.63-5.799-6.348-5.117-1.7.427-4.096-.086-7.026-1.504-24.034-11.635-26.18-82.02-3.04-99.67 5.406-4.123 13.463-4.123 18.867 0 12.863 9.81 19.438 39.556 14.95 67.628l-.64 3.99-8.621.118c-11.883.163-14.543.837-14.961 3.787-.433 3.057 3.667 15.241 10.38 30.845 2.9 6.738 5.13 12.25 4.959 12.25s-1.954-2.285-3.96-5.078m-10.096-18.172c-.38-1.237-1.54-4.5-2.578-7.25-2.687-7.12-3.385-14.528-1.594-16.91 1.532-2.04 8.189-3.387 17.37-3.517 3.445-.049 5.322-.538 5.684-1.48 1.345-3.505 1.806-20.836.778-29.236-1.93-15.77-6.216-26.515-13.034-32.675-5.692-5.142-10.448-5.142-16.14 0-7.136 6.447-11.367 17.536-13.156 34.475-2.576 24.392 4.034 49.08 15.145 56.567 1.857 1.252 4.466 2.276 5.796 2.276 2.047 0 2.313-.346 1.729-2.25m46.617-47.184c-4.125-23.064 1.578-60.485 23.277-66.528 37.839-10.537 51.896 85.548 19.006 103.713-18.925 10.452-37.426-10.023-42.283-37.185m41.01 33.006c25.42-16.822 21.087-97.75-15.97-95.519-6.154.37-11.7 6.395-15.95 14.886-8.896 17.772-8.343 47.03 1.172 65.68 4.38 8.583 8.22 12.972 13.835 15.812 6.423 3.248 11.062 3.012 16.912-.859m-170.277 151.34c4.238-1.055 14.456-2.396 22.706-2.98 30.316-2.147 41.774-5.623 57.5-17.443 4.125-3.1 8.175-6.062 9-6.58 1.23-.773.873-1.419-2-3.602-8.088-6.148-24.74-24.02-28.253-30.32-8.472-15.203-11.537-33.299-10.032-59.23.44-7.56.452-14.986.028-16.5-11.51-41.187-14.68-61.66-12.688-81.914.67-6.82.978-12.643.683-12.938s-3.3.86-6.677 2.564c-5.952 3.005-8.072 3.195-8.051.722.019-2.319 5.153-12.23 7.74-14.94 3.576-3.749 2.23-3.467-6.665 1.396-11.265 6.16-19.528 12.308-29.692 22.098l-9.106 8.772-.644-6.155c-1.593-15.24-.396-24.17 4.746-35.4 3.07-6.709 10.29-17.18 16.04-23.273 4.318-4.573 14.074-10.585 19.07-11.75 2.858-.667 2.798-.55-1.24 2.43-2.333 1.722-4.596 3.131-5.03 3.131-1.295 0-12.663 12.087-16.99 18.062-9.487 13.11-14.374 27.886-12.766 38.608l.665 4.43 6.445-6.029c11.537-10.792 23.257-17.8 49.417-29.553 10.72-4.815 33.673-12.179 34.715-11.136.334.334-22.198 10.618-23.264 10.618-1.095 0-15.818 10.337-19.638 13.788-3.261 2.946-6.813 7.894-6.813 9.491 0 .21 2.588-.887 5.75-2.436 11.826-5.789 26.146-9.04 52.25-11.862 12.466-1.348 27.032-4.95 33.718-8.338 11.71-5.934 25.602-19.273 39.27-37.707 3.306-4.46 6.012-7.467 6.012-6.683 0 .785-.868 4.823-1.93 8.973-2.351 9.193-7.81 20.28-13.852 28.138-5.132 6.673-4.757 6.765 6.512 1.61 8.275-3.786 13.45-7.443 22.908-16.19 13.376-12.372 11.148-11.933 18.04-3.553 13.87 16.86 24.328 36.072 28.179 51.77 5.293 21.57 3.42 49.291-5.028 74.453-10.167 30.28-26.174 44.62-59.781 53.55l-4.453 1.182 2.453 1.944c4.208 3.335 13.263 7.595 17.73 8.34 5.433.908 12.572-.738 22.13-5.103 4.075-1.86 7.524-3.267 7.666-3.125.14.142-3.32 4.308-7.69 9.258-18.811 21.31-24.742 35.3-23.67 55.832.519 9.89 1.42 12.203 7.216 18.507 2.917 3.174 9.43 7.084 14.32 8.6 1.91.59 2.25.326 2.25-1.749 0-4.8 3.329-17.284 6.073-22.778 2.87-5.745 10.823-13.83 17.033-17.318l3.394-1.907-2.107 2.407c-11.542 13.177-18.216 22.973-15.591 22.882 1.61-.056 30.59-14.026 38.31-18.47 32.372-18.629 54.474-44.235 77.49-89.777 20.402-40.364 31.827-75.97 39.91-124.388 2.536-15.173 2.943-19.34 1.892-19.34-1.42 0-6.362 3.871-25.363 19.87l-5.191 4.37 3.199-6.337c4.044-8.013 6.95-18.42 6.95-24.89 0-5.802.134-5.756-9.687-3.333-4.752 1.173-11.198 1.692-21.312 1.715-13.488.032-14.983-.157-21.421-2.7-11.48-4.536-20.226-10.69-41.468-29.177-11.834-10.299-18.13-14.66-25.864-17.915-7.066-2.974-21.426-4.975-28.953-4.035-5.972.746-6.03.98-2.166 8.641 2.145 4.25 2.245 4.79.892 4.79-.538 0-1.855-1.716-2.925-3.814-3.934-7.71-12.253-19.3-17.712-24.67-10.975-10.803-24.875-14.735-44.526-12.597-17.74 1.93-32.952 6.09-81.357 22.247-37.153 12.401-47.804 15.645-64 19.49-15.505 3.682-41.447 4.428-52.318 1.505-8.543-2.297-8.81-2.087-7.77 6.131 1.288 10.153 3.409 14.54 10.548 21.806 8.33 8.481 13.515 10.902 25.219 11.777 4.773.357 8.947.918 9.276 1.246 1.14 1.142-11.992 1.835-18.071.955-7.856-1.138-11.471-3.064-18.703-9.962l-5.877-5.606.715 4.996c2.356 16.442 13.146 33.37 24.268 38.07 3.032 1.28 6.007 1.446 16.213.904l12.5-.665-8 5.96c-15.486 11.534-23.05 21.664-29.288 39.227-13.056 36.75-15.834 42.881-23.263 51.32-8.006 9.096-22.76 18.152-40.2 24.673-3.161 1.183-5.748 2.456-5.746 2.83.002.372 2.824 4.04 6.27 8.15 16.939 20.19 40.64 27.003 66.337 19.066 3.682-1.137 6.875-1.888 7.095-1.668.53.53-5.416 4.03-9.205 5.418-5.73 2.1-15.685 4.211-19.83 4.204-5.978-.01-19.797-3.523-25.926-6.59-2.884-1.443-7.61-4.39-10.5-6.55l-5.254-3.925 2.378 6.318c5.447 14.47 17.366 27.832 30.99 34.74 10.765 5.458 18.683 6.183 33.142 3.034 15.774-3.436 15.518-3.41 11.5-1.118-3.246 1.853-16.915 6.5-21.5 7.31-4.313.76 15.725 13.03 26.5 16.227 13.212 3.92 40.776 3.97 55.914.104 5.337-1.363 23.27-3.68 23.874-3.084.159.156-1.866.826-4.5 1.49-6.914 1.74-16.805 6.531-23.838 11.55-8.377 5.977-20.796 19.425-23.792 25.763-2.952 6.245-4.557 13.411-2.753 12.297.65-.402 4.65-1.594 8.889-2.648"/><path fill="#010050" d="M1294.128 1358.518c-4.783-5.456-8.56-10.81-13.892-19.69-4.473-7.45-8.047-13.629-15.9-29.296-3.69-7.36-4.484-8.807-4.62-8.949l.074-27.252c20.256 5.046 39.127 3.421 58.955-1.876 12.724-3.399 35.044-18.982 34.816-15.867-.505 6.922 8.979 26.133 10.476 24.771 0 0-7.84 7.42-15.083 14.902-11.322 11.694-21.36 24.357-47.792 60.3-2.297 3.124-4.282 5.68-4.412 5.68s-1.31-1.225-2.622-2.723m-28.513-232.665c-.15.007-.308.08-.483.212-.58.44-1.344 1.544-3.306 4.778a745 745 0 0 0-3.057 5.058c-9.348 16.107-17.42 52.314-15.672 74.553.42 5.353 2.125 12.293 1.957 12.293 2.147 8.057 5.53 12.743 9.967 19.65 13.226 3.505 49.743 6.672 83.879-12.69 4.777-2.71 8.987-4.487 9.258-4.487l-.53-7.746c-.812-.436-12.384-8.344-22.132-16.78-9.017-7.802-18.85-18.239-26.06-28.84-2.676-3.932-8.671-11.875-13.323-17.65s-10.957-14.235-14.012-18.8c-1.29-1.977-4.34-6.41-4.851-7.413a50 50 0 0 0-.612-1.172c-.393-.68-.693-.982-1.023-.967"/><path fill="#fff" fill-rule="evenodd" d="M755.062 721.159c-9.515-4.279-36.912-21.869-50.916-33.868l-29.703-7.876-41.552 13.273c-45.936 14.673-65.436 25.314-123.62 27.578-89.26 3.473-184.186-18.497-253.532-52.647-66.886-32.937-113.98-84.075-140.057-135.739C49.311 400.387 192.362 225 395.468 184.92c45.851-9.05 151.353-6.674 197.205 2.375 199.78 39.423 316.887 206.596 256.676 336.798-13.327 28.82-38.928 70.764-63.989 90.761-11.774 9.395-9.753 14.097-9.753 17.436 0 9.604 18.705 62.008 26.756 77.817 8.378 16.447-23.71 21.663-47.3 11.053"/><path fill="#00133c" d="M487.515 177.32c-215.574 0-390.33 121.643-390.33 271.68s174.756 271.68 390.33 271.68c67.583 0 131.14-11.964 186.574-32.996 109.406 41.188 258.78 118.98 258.78 118.98s-97.402-55.141-137.556-122.09c-10.258-17.114-16.265-35.055-19.707-52.285C839.085 583.973 877.845 519.636 877.845 449c0-150.037-174.757-271.68-390.33-271.68m0 21.647c203.297 0 368.692 112.165 368.692 250.043 0 61.1-33.28 120.073-93.706 166.059l-10.765 8.2 2.642 13.261c4.34 21.745 11.867 41.656 22.369 59.179a215 215 0 0 0 10.92 16.323c-35.346-16.05-72.36-31.944-105.953-44.591l-7.654-2.887-7.655 2.906c-54.449 20.662-116.309 31.584-178.89 31.584-203.297 0-368.693-112.165-368.693-250.044s165.396-250.033 368.693-250.033"/><path fill="#fe80ba" fill-rule="evenodd" d="M20.709-583.422q-1.998 0-3.222 1.61t-1.224 3.544q0 1.869 1.289 2.9 1.61 1.352 13.787 10.63 2.577 1.933 4.381 5.154 1.804 3.157 1.804 6.765v.451q-.257 8.57-5.798 13.981-5.477 5.476-13.401 5.476h-1.61q-4.575 0-10.31-2.512-5.669-2.448-6.378-5.09 0-.064-.064-.515v-.71q0-4.316 4.123-7.022.967-.58 2.126-.58 1.16 0 4.06 1.482t5.476 1.482q3.608 0 5.412-1.095 1.868-1.16 1.868-2.964 0-.258-.129-.902-.515-2.255-3.865-5.09-3.35-2.899-7.99-5.863-4.574-3.028-5.54-3.8-1.998-1.612-3.544-4.575-1.482-2.964-1.482-6.572 0-8.698 5.477-14.432 5.476-5.798 13.4-5.798.194 0 .516.064h1.031q4.703 0 10.824 2.513t6.83 5.09v.515q.064.387.064.709 0 4.316-4.124 7.022-1.095.645-2.577.645-1.675 0-5.476-1.225-3.801-1.288-5.734-1.288m65.458.45v.065H74.635v41.62q.064.323.064.967 0 3.028-2.19 5.154-2.126 2.191-5.154 2.191t-5.22-2.19q-2.125-2.127-2.125-5.155 0-.58.064-.902v-41.685H48.928v-.064q-2.964-.129-5.025-2.19-2.062-2.127-2.062-5.09 0-2.9 2.062-4.961t5.025-2.19v-.065h37.24v.064q2.899.129 4.96 2.19t2.062 4.962q0 2.963-2.062 5.09-2.061 2.061-4.96 2.19m46.26-.386h-.065v.065H110.65v11.081h17.976q2.963 0 5.025 2.062t2.062 5.025-2.062 5.09q-2.062 2.062-5.025 2.062H110.65v9.213h17.331v.065q3.222.064 5.477 2.383 2.255 2.255 2.255 5.477 0 3.286-2.32 5.54-2.255 2.32-5.54 2.32h-25.9v-.193q-2.32-.516-3.866-2.384-1.547-1.804-1.611-4.124h-.064v-51.026q.128-2.835 2.126-4.768 2.061-1.933 4.96-1.997h28.929q2.964 0 5.025 2.061 2.062 1.998 2.062 4.961t-2.062 5.026q-2.061 2.061-5.025 2.061m52.83-14.045q3.093 0 5.026 2.126t1.933 5.026q0 1.16-.387 2.319l-.064.064-17.589 49.997q-.644 1.803-2.062 3.028-1.417 1.288-3.157 1.675h-.064l-.129.064h-.322q-.064.065-.129.065h-.515q-.129 0-.193.064h-.323q-.064-.064-.193-.064h-.45q-.065 0-.13-.065h-.193q-.064 0-.193-.064h-.193q-3.802-.838-5.22-4.703l-17.588-49.997h.064l-.064-.064q-.387-1.16-.387-2.384 0-2.835 1.933-4.96 1.933-2.127 5.026-2.127 2.255 0 4.123 1.353t2.642 3.608q0 .064 1.61 4.639 1.611 4.51 4.51 12.757t4.897 13.98q10.888-31.118 11.017-31.376.709-2.255 2.577-3.608 1.933-1.353 4.188-1.353zm46.196 14.045h-.065v.065h-21.712v11.081h17.975q2.964 0 5.026 2.062t2.062 5.025-2.062 5.09q-2.062 2.062-5.026 2.062h-17.975v9.213h17.331v.065q3.222.064 5.477 2.383 2.255 2.255 2.255 5.477 0 3.286-2.32 5.54-2.255 2.32-5.54 2.32h-25.9v-.193q-2.32-.516-3.866-2.384-1.547-1.804-1.611-4.124h-.065v-51.026q.13-2.835 2.127-4.768 2.061-1.933 4.96-1.997h28.929q2.963 0 5.025 2.061 2.062 1.998 2.062 4.961t-2.062 5.026q-2.062 2.061-5.025 2.061m57.405-6.314v48.966q0 3.221-2.32 5.476-2.254 2.255-5.411 2.255-3.866 0-6.121-3.092h-.064l-17.783-29.895v25.256q0 3.221-2.319 5.476-2.255 2.255-5.412 2.255t-5.412-2.255-2.255-5.476v-48.966q0-3.221 2.255-5.476 2.32-2.32 5.477-2.32 3.414 0 5.862 2.771.13.258.58.966.451.645.645 1.096l16.88 28.477v-25.514q0-3.221 2.255-5.476 2.32-2.32 5.476-2.32t5.412 2.32q2.255 2.255 2.255 5.476m13.014 53.54v6.958q-.257 1.74-1.675 2.9-1.353 1.224-3.221 1.224t-3.286-1.16q-1.353-1.095-1.61-2.835v-7.538q.193-1.804 1.546-3.028 1.417-1.224 3.35-1.224 2.062 0 3.48 1.353 1.416 1.353 1.416 3.35" font-family="Crewniverse" font-size="64.428" style="-inkscape-font-specification:Crewniverse" transform="translate(152.539 915.852)scale(.93418)"/><path fill="#010050" fill-rule="evenodd" d="M72.83-516.804q2.9 0 4.64 2.127 1.804 2.126 1.804 4.896 0 1.224-.387 2.384v.129l-16.365 49.996h-.064q-1.224 3.801-4.832 4.703h-.193l-.13.065h-.128l-.065.064h-1.739l-.129-.064h-.129l-.129-.065h-.193q-1.61-.386-2.964-1.675-1.288-1.224-1.932-3.028l-10.309-31.505-10.308 31.505q-1.225 3.801-4.833 4.703h-.257l-.065.065h-.129q-.064 0-.193.064H22.19q-.064-.064-.128-.064h-.13q-.064 0-.193-.065h-.128q-3.544-.837-4.897-4.703L.35-507.268v-.129q-.386-1.16-.386-2.384 0-2.77 1.74-4.896 1.803-2.127 4.703-2.127 2.126 0 3.865 1.353 1.804 1.353 2.449 3.608.128.258 10.308 31.377 10.244-31.312 10.244-31.377 1.031-3.22 3.995-4.51l.064-.064.065-.064h.257l.065-.065h.129q.064-.064.193-.064l.064-.065q.194 0 .258-.064h.064q.194 0 .258-.064h.387q.193 0 .257-.065h.58q.065.065.194.065h.386q.129.064.322.064.13.064.258.064.064 0 .064.065.194 0 .258.064h.129q.064.065.129.065h.129q.064.064.128.064l.065.064q2.964 1.29 3.994 4.51 0 .065 10.245 31.377 10.244-31.312 10.244-31.377.708-2.255 2.448-3.608 1.804-1.353 3.93-1.353m38.787 57.857v-16.687H97.185v16.687h-.065q0 2.77-2.19 4.703-2.19 1.997-5.09 1.997t-5.09-1.997q-2.19-1.933-2.19-4.703l.064-50.77q0-2.963 2.126-5.025 2.126-2.126 5.09-2.126t5.154 2.126 2.19 5.026v19.392h14.433v-19.392q0-2.964 2.126-5.09 2.19-2.126 5.218-2.126t5.155 2.19q2.19 2.19 2.19 5.219v49.932q0 3.028-2.19 5.154-2.127 2.19-5.155 2.19-2.899 0-5.154-1.997-2.19-1.933-2.19-4.703m76.347-4.188q.644 2.577.644 3.221 0 3.093-2.19 5.284t-5.284 2.19q-4.574 0-6.829-4.445-.129-.194-.258-.71l-3.737-9.599h-16.3l-3.608 9.342q-.708 2.384-2.706 3.866-1.933 1.546-4.51 1.546-3.092 0-5.283-2.19-2.126-2.191-2.126-5.284 0-.902.193-1.804h-.064l.193-.58q.194-.386.258-.58l1.675-4.316q-.322.064-.902.064-3.157 0-5.412-2.19-2.19-2.255-2.19-5.412t2.19-5.348q2.255-2.255 5.412-2.255h.129v-.064h6.636l11.082-28.928q.064-.322.257-.838.258-.58.322-.773.967-1.804 2.706-2.835 1.804-1.095 3.93-1.095 4.253 0 6.379 3.608h.064q.065.322.387 1.03.386.71.45 1.16zm-28.09-19.264h4.574l-2.255-6.12zm63.396-20.037v.064h-11.532v41.62q.064.323.064.967 0 3.028-2.19 5.154-2.127 2.191-5.155 2.191t-5.218-2.19q-2.126-2.127-2.126-5.155 0-.58.064-.902v-41.685H186.03v-.064q-2.964-.129-5.026-2.19-2.061-2.127-2.061-5.09 0-2.9 2.061-4.961t5.026-2.19v-.065h37.24v.064q2.899.129 4.96 2.19t2.062 4.962q0 2.963-2.062 5.09-2.061 2.061-4.96 2.19m47.935 42.909q0 2.964-2.126 5.025-2.062 2.062-5.026 2.062-2.899 0-4.96-2.062-2.062-1.997-2.127-4.896v-50.447q0-2.964 2.062-4.961 2.062-2.062 5.025-2.062t5.026 2.062q2.126 1.997 2.126 4.96zm23.967-43.36q-1.997 0-3.221 1.61-1.225 1.611-1.225 3.544 0 1.869 1.289 2.9 1.61 1.352 13.788 10.63 2.577 1.933 4.38 5.154 1.805 3.157 1.805 6.765v.451q-.258 8.57-5.799 13.981-5.476 5.477-13.4 5.477h-1.612q-4.574 0-10.308-2.513-5.67-2.448-6.378-5.09 0-.064-.065-.515v-.71q0-4.316 4.124-7.022.966-.58 2.126-.58t4.059 1.482 5.476 1.482q3.608 0 5.412-1.095 1.868-1.16 1.868-2.964 0-.258-.128-.902-.516-2.255-3.866-5.09-3.35-2.899-7.99-5.863-4.574-3.028-5.54-3.8-1.997-1.612-3.544-4.575-1.481-2.964-1.481-6.572 0-8.698 5.476-14.432 5.476-5.798 13.401-5.798.193 0 .515.064h1.031q4.704 0 10.824 2.513t6.83 5.09v.515q.064.387.064.709 0 4.316-4.123 7.022-1.096.645-2.578.645-1.675 0-5.476-1.225-3.801-1.288-5.734-1.288m103.02 39.752q.645 2.577.645 3.221 0 3.093-2.19 5.284t-5.284 2.19q-4.574 0-6.83-4.445-.128-.194-.257-.71l-3.737-9.599h-16.3l-3.608 9.342q-.709 2.384-2.706 3.866-1.933 1.546-4.51 1.546-3.093 0-5.283-2.19-2.126-2.191-2.126-5.284 0-.902.193-1.804h-.064l.193-.58q.193-.386.258-.58l1.675-4.316q-.322.064-.902.064-3.157 0-5.412-2.19-2.19-2.255-2.19-5.412t2.19-5.348q2.255-2.255 5.412-2.255h.129v-.064h6.636l11.081-28.928q.065-.322.258-.838.258-.58.322-.773.967-1.804 2.706-2.835 1.804-1.095 3.93-1.095 4.252 0 6.379 3.608h.064q.064.322.387 1.03.386.71.45 1.16zm-28.09-19.264h4.574l-2.255-6.12zm108.174-15.27q0 6.379-3.8 11.469-3.802 5.09-9.73 6.958l5.992 14.818.387.967q.258.709.387 1.03.257 1.29.257 1.934 0 3.35-2.384 5.67-2.383 2.383-5.734 2.383-4.51 0-6.894-3.93h-.064q-.45-.838-.773-1.868l-7.41-18.298h-7.795v16.494q0 3.221-2.19 5.412t-5.413 2.19-5.476-2.255q-2.19-2.19-2.19-5.347 0-.13.064-.451v-48.837h.064q.258-3.157 2.577-5.347t5.477-2.19v-.065h25.191v.064h.129q.064-.064.129-.064 7.989 0 13.594 5.67 5.605 5.605 5.605 13.594m-20.037 6.959q2.062 0 3.544-1.482 1.482-1.546 1.482-3.608t-1.482-3.544-3.544-1.481h-.064v-.065h-17.46v10.18h17.46v-.065zm59.274-12.113h-.064v.065h-21.713v11.081h17.976q2.964 0 5.025 2.062t2.062 5.025-2.062 5.09q-2.061 2.062-5.025 2.062h-17.976v9.213h17.332v.065q3.22.064 5.476 2.383 2.255 2.255 2.255 5.477 0 3.286-2.32 5.54-2.254 2.32-5.54 2.32h-25.9v-.193q-2.32-.516-3.866-2.384-1.546-1.804-1.61-4.123h-.065v-51.027q.129-2.835 2.126-4.768 2.062-1.933 4.96-1.997h28.93q2.963 0 5.024 2.061 2.062 1.998 2.062 4.961t-2.062 5.026q-2.061 2.061-5.025 2.061m54.184 26.738q.064.58.064 1.74 0 8.89-6.25 15.269-6.184 6.378-15.01 6.636v.064h-13.144v-.064q-3.737-.258-6.443-2.835t-3.028-6.25h-.065v-45.808q.258-3.865 2.964-6.571t6.572-2.964H550.5v.064q8.827.258 15.012 6.637 6.25 6.378 6.25 15.269 0 1.16-.065 1.74zm-13.788 3.48v-23.775q-.128-3.028-2.319-5.09-2.126-2.126-5.154-2.126h-9.6v37.884h9.278v-.064q.064 0 .193.064h.129q2.963 0 5.09-1.997t2.319-4.897zm60.95-3.48q.064.58.064 1.74 0 8.89-6.25 15.269-6.185 6.378-15.012 6.636v.064h-13.143v-.064q-3.737-.258-6.443-2.835t-3.028-6.25h-.064v-45.808q.258-3.865 2.963-6.571t6.572-2.964h13.143v.064q8.827.258 15.012 6.637 6.25 6.378 6.25 15.269 0 1.16-.065 1.74zm-13.788 3.48v-23.775q-.13-3.028-2.32-5.09-2.126-2.126-5.154-2.126h-9.6v37.884h9.278v-.064q.064 0 .193.064h.129q2.964 0 5.09-1.997t2.32-4.897zm31.312 13.078q0 2.964-2.126 5.025-2.062 2.062-5.026 2.062-2.899 0-4.96-2.062-2.062-1.997-2.127-4.896v-50.447q0-2.964 2.062-4.961 2.062-2.062 5.025-2.062t5.026 2.062q2.126 1.997 2.126 4.96zm47.548-42.91v.065h-11.533v41.62q.064.323.064.967 0 3.028-2.19 5.154-2.126 2.191-5.154 2.191t-5.22-2.19q-2.125-2.127-2.125-5.155 0-.58.064-.902v-41.685h-11.146v-.064q-2.964-.129-5.025-2.19-2.062-2.127-2.062-5.09 0-2.9 2.062-4.961t5.025-2.19v-.065h37.24v.064q2.899.129 4.96 2.19t2.062 4.962q0 2.963-2.062 5.09-2.061 2.061-4.96 2.19m10.244 5.09v-.901q0-7.796 5.476-13.272 5.54-5.541 13.337-5.541 7.795 0 13.272 5.54 5.54 5.477 5.54 13.273 0 5.992-3.414 10.824t-8.891 6.829v1.224q0 2.835-1.997 4.832-1.933 1.933-4.768 1.933t-4.832-1.933q-1.933-1.997-1.933-4.832v-7.151q0-1.482 1.353-2.835 1.417-1.353 2.9-1.353.192 0 2.512-.193 2.835-.258 4.768-2.384 1.997-2.19 1.997-4.961 0-2.77-1.997-4.703-1.998-1.998-4.768-1.998t-4.768 1.933q-1.933 1.933-1.933 4.703h-.064v.967q0 2.448-1.74 4.188t-4.187 1.74-4.188-1.74q-1.675-1.74-1.675-4.188m18.62 44.907q-6.766 0-6.766-6.765t6.765-6.765 6.765 6.765-6.765 6.765" font-family="Crewniverse" font-size="64.428" style="-inkscape-font-specification:Crewniverse" transform="translate(152.539 915.852)scale(.93418)"/><path fill="#ff5700" fill-rule="evenodd" d="M433.627-516.931v.064q-3.156 0-5.474 2.19-2.32 2.19-2.578 5.347h-.065v50.342q.312 2.478 2.127 4.293 2.255 2.255 5.477 2.256 3.22 0 5.41-2.192 2.19-2.19 2.191-5.412v-16.492h7.795l7.41 18.297q.322 1.03.774 1.87h.064q2.384 3.93 6.893 3.929 3.35 0 5.734-2.385 2.385-2.319 2.385-5.67 0-.644-.258-1.932a39 39 0 0 1-.387-1.03l-.386-.968-5.992-14.818q5.927-1.87 9.728-6.959 3.802-5.09 3.803-11.467 0-7.989-5.606-13.594-5.606-5.67-13.595-5.67-.064 0-.13.065h-.128v-.064zm54.957 0q-2.899.063-4.96 1.996-1.998 1.932-2.125 4.767v51.028h.064q.064 2.319 1.611 4.123 1.547 1.868 3.866 2.384v.194h25.9q3.285 0 5.539-2.32 2.32-2.256 2.32-5.542 0-3.221-2.256-5.476-2.254-2.319-5.474-2.383v-.064h-17.332v-9.213h17.974q2.964 0 5.026-2.063 2.062-2.126 2.062-5.09 0-2.962-2.062-5.025-2.062-2.06-5.026-2.06h-17.974v-11.082h21.713v-.065h.064q2.964 0 5.026-2.062 2.06-2.062 2.06-5.026t-2.06-4.96q-2.062-2.062-5.026-2.061zm158.108 0v.064q-2.964.128-5.026 2.19t-2.062 4.96q0 2.964 2.062 5.09 2.062 2.063 5.026 2.192v.064h11.146v41.684a5 5 0 0 0-.064.902q0 3.029 2.125 5.154 2.19 2.191 5.219 2.192 3.028 0 5.154-2.192 2.19-2.125 2.191-5.154 0-.645-.064-.967v-41.619h11.531v-.064q2.9-.13 4.961-2.192 2.063-2.126 2.063-5.09 0-2.899-2.063-4.96-2.062-2.062-4.96-2.19v-.064zm-109.334.064q-3.866.258-6.572 2.963t-2.963 6.572v45.809h.064q.322 3.671 3.027 6.248 2.707 2.578 6.444 2.836v.064H550.5v-.064q8.827-.259 15.012-6.637 6.25-6.378 6.25-15.27 0-1.16-.064-1.74v-17.072q.064-.58.064-1.74 0-8.892-6.25-15.27-6.185-6.377-15.012-6.635v-.064zm47.16 0q-3.865.258-6.57 2.963t-2.965 6.572v45.809h.064q.323 3.671 3.03 6.248 2.705 2.578 6.441 2.836v.064h13.145v-.064q8.826-.259 15.011-6.637 6.25-6.378 6.248-15.27 0-1.16-.064-1.74v-17.072q.064-.58.064-1.74.001-8.892-6.248-15.27-6.185-6.377-15.011-6.635v-.064zm44.713 0q-2.964 0-5.025 2.06-2.062 1.998-2.061 4.962v50.447q.063 2.9 2.125 4.896 2.062 2.063 4.96 2.063 2.965 0 5.026-2.063 2.127-2.062 2.127-5.025v-50.318q0-2.964-2.127-4.961-2.062-2.062-5.025-2.061m-88.395 13.272h9.6q3.029 0 5.154 2.126 2.191 2.063 2.32 5.09v23.774h-.064q-.194 2.9-2.32 4.896-2.127 1.997-5.09 1.996h-.129a.5.5 0 0 0-.193-.064v.064h-9.278zm47.163 0h9.6q3.027 0 5.153 2.126 2.19 2.063 2.319 5.09v23.774h-.065q-.192 2.9-2.318 4.896-2.126 1.997-5.09 1.996h-.129a.5.5 0 0 0-.193-.064v.064h-9.277zm106.593 1.224a20 20 0 0 0-.418 4.123v.903q0 1.22.418 2.265zm-253.877 1.48h17.461v.065h.065q2.061 0 3.543 1.483 1.482 1.48 1.482 3.542 0 2.063-1.482 3.61-1.482 1.481-3.543 1.48l-.065-.064v.064h-17.46z" font-family="Crewniverse" font-size="64.428" style="-inkscape-font-specification:Crewniverse" transform="translate(152.539 915.852)scale(.93418)"/></svg>