<svg xmlns="http://www.w3.org/2000/svg" xmlns:xlink="http://www.w3.org/1999/xlink" xml:space="preserve" width="1800" height="2000"><defs><linearGradient id="a"><stop offset="0" stop-color="#c9d68f"/><stop offset="1" stop-color="#9dbc60"/></linearGradient><linearGradient xlink:href="#a" id="b" x1="708.442" x2="675.641" y1="166.163" y2="306.49" gradientUnits="userSpaceOnUse"/><linearGradient xlink:href="#a" id="c" x1="708.442" x2="674.971" y1="166.163" y2="310.587" gradientTransform="matrix(-1 0 0 1 1154.3 0)" gradientUnits="userSpaceOnUse"/></defs><rect width="1800" height="2000" fill="#222" fill-rule="evenodd" ry="1.101"/><path fill="#1d1d1d" fill-rule="evenodd" d="M1333.709 503.229c-11.394 0-29.108 10.326-64.822 37.785-23.75 18.259-35.56 28.13-54.623 46.344 1.83-2.908 3.565-5.145 5.16-6.565 22.617-20.128 21.965-38.702-1.76-50.14a78 78 0 0 0-5.514-2.418c-4.61-1.797-8.692-2.75-12.558-2.846-6.443-.16-12.287 2.062-18.983 6.717-14.974 10.414-15.994 13.23-11.588 32.232 3.894 16.785.184 30.81-19.15 72.377-14.242 30.62-22.884 48.264-29.965 57.15-2.754-.873-9.048-3.097-16.047-5.685-44.036-16.283-95.387-24.005-133.886-20.13-20.805 2.092-43.18 7.023-63.803 13.886-5.716-10.13-12.724-24.786-22.229-45.22-19.334-41.569-23.045-55.593-19.154-72.378 4.409-19.001 3.389-21.818-11.586-32.232-6.696-4.655-12.54-6.876-18.982-6.717h-.002c-3.867.096-7.949 1.05-12.559 2.846a78 78 0 0 0-5.513 2.418c-23.727 11.438-24.378 30.012-1.762 50.14 12.174 10.834 32.586 69.373 39.963 109.135a3571 3571 0 0 1-17.992-13.318c-53.62-39.927-108.377-74.441-155.887-98.258-37.987-19.041-58.459-25.607-82.94-26.598-15.26-.618-16.064-.506-23.353 3.248-46.682 24.041-29.667 210.51-25.334 238.78 6.664 43.47 16.944 81.86 30.285 113.093 8.39 19.642 19.766 41.89 26.562 51.944 3.067 4.535 5.578 9.043 5.579 10.02.007 2.483-5.32 12.655-6.625 12.655h-.026c-.105-.184-3.942-2.006-4.92-2.582-.972-.575-1.861-1.075-2.93-1.757-.43-.15-.935-.346-1.396-.514-6.085-3.259-12.174-6.555-19.39-10.17-5.858-2.934-11.583-5.391-17.317-7.781a300 300 0 0 0-6.71-2.746c-5.86-2.243-11.708-4.266-17.593-5.98-1.665-.487-3.321-.847-4.984-1.294q-3.044-.816-6.11-1.547h-.003a233 233 0 0 0-34.903-5.57c-6.684-.555-13.205-.68-19.658-.62-1.95.04-3.897.072-5.834.167a190 190 0 0 0-15.66 1.23c-7.893 1.048-15.747 2.27-23.352 4.309a177 177 0 0 0-16.238 5.23c-.794.296-1.57.648-2.36.955a176 176 0 0 0-6.22 2.567 131 131 0 0 0-8.346 3.806c-6.594 3.292-13.067 7.047-19.36 11.202q-.457.3-.913.605c-6.383 4.303-12.611 9.088-18.705 14.318-.282.241-.547.503-.828.745l-.207.199c-4.386 3.77-8.403 7.884-12.479 12.002a236 236 0 0 0-4.42 4.25l-.797.853c-.295.317-.504.654-.797.971-4.254 4.652-8.098 9.514-11.892 14.48-1.708 2.2-3.785 4.304-5.37 6.54-.796 1.136-1.455 2.33-2.226 3.478-.899 1.34-1.722 2.682-2.584 4.037-4.383 6.89-8.445 13.904-11.773 21.09l-.12.258q-1.21 2.625-2.318 5.266c-8.043 19.178-12.6 39.875-13.888 63.43l-.041.74c-.218 4.003-.324 8.09-.338 12.253q-.026 5.351.152 10.903c.001.039.005.07.006.11l.002.067c.216 6.66.596 12.874 1.172 18.78a236 236 0 0 0 2.68 18.816c1.812 9.451 4.307 18.552 7.628 28.156 3.156 9.124 6.997 17.755 11.131 26.154 1.059 2.144 2.187 4.215 3.303 6.31a245 245 0 0 0 11.941 20.177c.475.715.843 1.527 1.325 2.236l-.04.11c.495.732 1.085 1.365 1.587 2.091 4.931 7.148 10.1 14.051 15.595 20.578 2.242 2.663 4.69 5.036 7.01 7.598.57.623 1.14 1.224 1.713 1.842 5.766 6.258 11.67 12.243 17.797 17.898a331 331 0 0 0 6.842 6.15c9.215 8.047 18.586 15.692 28.1 22.475 4.528 3.228 9.133 5.867 13.675 8.88a448 448 0 0 0 19.576 12.048l.002-.322c6.373 3.677 11.732 5.901 17.809 9.046 9.64 5.022 18.294 9.874 26.73 13.58 13.568 6.04 25.262 10.53 33.815 13.567.009 0 .016.01.025.01h.022a547 547 0 0 0 10.082 3.12c12.248 3.656 24.684 5.687 36.921 8.243 7.26 1.513 14.668 3.794 22.325 4.985 20.529 3.18 43.986 5.245 71.316 6.748 2.588.142 4.13.481 6.807.613h.002l31.607 1.557h.002l18.553 9.294c21.415 10.731 45.738 20.772 69.724 28.78 6.852 2.287 307.198 101.354 555.594-24.008 107.082-57.345 181.149-144.863 184.11-267.75q.152-6.349.05-12.824v-.022c0-11.216-1.236-25.22-3.154-39.725-.619-4.703-1.579-8.828-2.355-13.553-1.34-8.168-2.468-16.515-4.188-24.1-.123-.073-.358-.157-.482-.232-.212-.921-.339-1.98-.555-2.886.096.056.184.103.25.13l.104.044a293 293 0 0 0-1.44-5.825c0-.014 0-.03-.01-.045-5.177-20.03-12.699-40.31-22.386-60.527-9.688-20.217-21.54-40.371-35.385-60.15-11.025-15.752-23.31-31.265-36.77-46.383-5.721-6.425-10.41-12.153-10.422-12.73-.012-.578 2.694-10.163 6.014-21.303 3.319-11.14 7.331-26.747 8.916-34.684 3.918-19.621 9.503-63.592 10.592-83.398 1.47-26.763-3.425-84.77-9.89-117.19-8.878-44.51-32.707-97.94-53.249-119.396-8.871-9.266-22.344-16.727-30.205-16.727z"/><path fill="#fff" fill-rule="evenodd" d="M1081.616 656.809c-6.845-.078-13.031.23-19.917 3.298-13.8 6.152-22.518 21.175-20.966 36.21 1.465 14.194 10.707 25.647 22.408 33.375 11.701 7.727 26.41 12.578 43.127 14.678 4.516.566 8.196.352 12.455.102 4.26-.252 7.314-.231 12.366-1.68 4.942-1.42 8.655-3.63 12.155-6.264s6.701-5.277 9.454-10.656c5.576-10.895 4.594-21.76-.434-32.002-9.03-18.384-28.273-28.623-49.563-34.22a87.6 87.6 0 0 0-21.085-2.841"/><path fill="#9dbc60" d="M778.572 1429.722c-23.986-8.008-48.309-18.047-69.724-28.778l-18.553-9.296-31.61-1.556c-64.347-3.165-102.273-9.264-147.472-23.714-45.095-16.008-176.82-71.554-217.937-190.427-7.382-21.343-10.672-40.216-11.49-65.93-1.076-33.85 3.461-61.92 14.116-87.326 17.317-41.287 53.7-79.784 94.79-100.293 44.903-22.412 95.453-15.453 151.423-5.46 14.992 5.536 41.763 18.959 54.651 23.417 3.739 2.387 7.282 4.34 7.875 4.34 1.306 0 6.631-10.174 6.625-12.657-.002-.976-2.511-5.484-5.577-10.02-6.797-10.052-18.173-32.301-26.564-51.943-13.34-31.233-23.62-69.624-30.284-113.094-4.334-28.27-21.35-214.739 25.333-238.78 7.29-3.755 8.093-3.866 23.354-3.248 24.48.991 44.953 7.556 82.94 26.598 47.51 23.817 102.267 58.33 155.884 98.258 16.082 11.975 29.472 21.774 29.756 21.774s5.805-2.467 12.27-5.48c26.849-12.52 60.926-21.768 91.593-24.854 38.5-3.874 89.851 3.847 133.887 20.13 9.046 3.345 16.916 6.081 17.486 6.081s4.254-4.792 8.186-10.65c19.677-29.32 37.833-50.499 71.59-83.521 27.775-27.17 39.03-36.984 67.768-59.076 35.715-27.46 53.428-37.784 64.823-37.784 7.861 0 21.334 7.46 30.205 16.725 20.542 21.456 44.372 74.887 53.248 119.398 6.467 32.42 11.36 90.427 9.89 117.189-1.088 19.807-6.672 63.777-10.59 83.398-1.585 7.937-5.598 23.545-8.917 34.684-3.32 11.14-6.027 20.725-6.014 21.302s4.7 6.306 10.421 12.73c47.264 53.09 80.065 111.052 94.543 167.067 6.893 26.668 11.832 62.66 11.832 86.212 2.052 129.647-73.39 221.256-184.16 280.576-248.397 125.363-548.746 26.295-555.597 24.008m351.896-702.355c8.498-4.112 11.573-9.498 10.954-19.177-1.597-24.99-53.476-43.998-74.875-34.283-14.722 6.682-15.386 27.143-1.284 39.524 15.355 13.482 50.588 21.014 65.205 13.936"/><path fill="#415b1c" d="M1202.982 994.423c-4.353 0-10.033 3.992-11.82 8.307-1.587 3.833-1.435 5.105 1.375 11.402 10.01 22.426-5.383 58.208-71.395 40.075-15.443-4.24-23.384-2.357-40.524 9.625-44.482 31.091-85.792 26.027-99.094 12.973-8.103-7.953-9.332-13.934-6.38-31.009 2.177-12.593 2.167-12.918-.607-16.648-2.984-4.01-6.886-5.256-12.265-3.906-4.593 1.154-9.914 11-12.409 22.962-3.62 17.365.755 32.407 13.121 45.103 41.898 43.014 116.355-2.666 132.268-13.265l13.326-8.958 10.942 4.18c59.217 22.613 103.889-14.321 103.889-47.17 0-8.32-.69-11.235-4.475-18.922-4.44-9.016-10.642-14.75-15.952-14.75"/><path fill="#475825" d="M803.05 903.968c-35.152.112-70.294 9.36-81.004 23.434-5.235 6.88-5.745 11.017-2.251 18.232 11.323 23.391 40.625-1.07 93.078 2.597 27.908 1.952 66.737 10.399 84.943 18.477a9289 9289 0 0 1 23.316 10.387c6.047 2.708 11.745 4.926 12.664 4.94 3.4.034 11.386-8.435 11.386-12.077 0-11.96-50.718-51.515-107.885-62.895-10.815-2.152-22.53-3.132-34.248-3.095m404.824 13.72c-18.762 27.248-21.292 33.946-15.244 40.384 5.749 6.12 8.386 4.78 27.907-14.186 55.05-53.478 105.038-55.266 111.222-55.276 10.24-.016 16.324-2.632 20.017-8.606 5.443-8.808 2.651-20.674-6.237-26.497-14.154-9.274-82.382-16.108-137.666 64.181"/><path fill="#7d9a41" d="M610.302 547.486c-85.22 51.68-41.938 220.13-5.593 309.504 1.164 2.645 4.06 9.448 6.433 15.117 2.375 5.67 6.876 14.79 10.002 20.272s5.841 9.964 6.034 9.964 3.602-5.413 7.578-12.026c10.012-16.658 35.757-53.104 50.242-71.121 13.579-16.89 27.301-33.26 34.477-41.126 13.68-14.994 49.77-50.098 61.57-59.888 19.822-16.448 21.44-17.71 30.441-23.782 4.7-3.171 8.565-6.248 8.59-6.835.492-12.072-164.492-140.402-209.774-140.079m724.41-45.074c-13.428 0-47.719 25.992-67.936 51.497-26.574 35.375-73.983 90.938-87.958 131.225 0 .437 3.556 2.889 7.903 5.449 16.882 9.942 62.367 39.957 81.429 53.732 33.142 23.955 72.536 56.668 102.078 84.774 7.39 7.03 13.909 12.782 14.49 12.782 1.062 0 1.538-1.431 6.94-20.959 42.128-152.303-11.086-318.5-56.945-318.5"/><path fill="#8eb14b" d="M674.993 972.4c-13.702-.074-95.705 1.19-95.705 1.19-32.259 40.519-19.87 88.535-31.934 129.567a271 271 0 0 0-1.688 6.01l.121-.044c.996-.36 4.96-3.248 8.807-6.417 88.636-73.002 143.535-98.423 150.125-109.245 1.422-2.34 11.382-20.84-29.723-21.06zm-7.616 89.418c2.207-.093 3.224 1.864 2.089 4.266-24.157 51.173-84.601 103.26-128.218 151.612a381 381 0 0 1-.06-15.19c0-24.926 4.673-61.614 11.49-91.678 31.346-18.931 94.837-43.538 113.684-48.84q.542-.152 1.015-.17"/><path fill="#738e3b" d="M468.702 904.137c-1.95.039-3.899.072-5.835.167a190 190 0 0 0-15.66 1.23c-7.893 1.047-15.746 2.27-23.35 4.308a177 177 0 0 0-16.24 5.23c-.794.296-1.57.648-2.36.956a176 176 0 0 0-12.935 5.66c-1.066.52-2.122 1.072-3.181 1.614-6.366 3.259-12.647 6.846-18.723 10.907-6.382 4.303-12.61 9.087-18.704 14.318-.282.24-.547.502-.829.743a236 236 0 0 0-17.106 16.451q-.402.428-.797.855c-6.693 7.17-12.728 14.472-18.058 21.99-6.45 9.198-12.044 18.801-16.585 28.605-1.897 4.134-3.494 8.404-5.06 12.691-.591 1.608-1.222 3.197-1.766 4.828a179 179 0 0 0-3.811 13.304c-.234.944-.524 1.855-.744 2.808a197 197 0 0 0-3.029 16.36c-.048.345-.126.67-.173 1.014a227 227 0 0 0-1.783 18.688c-.408 7.503-.423 15.306-.178 23.335.215 6.66.595 12.873 1.17 18.779q.98 9.584 2.682 18.816c1.813 9.451 4.307 18.553 7.629 28.157 20.428 59.06 62.998 102.744 106.302 133.62 4.528 3.228 9.132 5.866 13.675 8.879 39.192 25.547 77.217 41.296 97.959 47.927 45.2 14.45 83.125 20.549 147.472 23.715l31.61 1.557c0-1.085-19.811-9.386-37.04-22.563-88.438-67.638-113.493-192.621-97.78-280.423 1.23-6.858 2.731-15.275 3.34-18.704 7.793-35.242 19.848-69.304 35.091-102.022 5.7-11.937 10.364-21.829 10.364-21.984 0-.808-17.432-10.838-28.29-16.278-5.857-2.934-11.585-5.391-17.317-7.781a300 300 0 0 0-6.711-2.746c-5.859-2.243-11.707-4.266-17.592-5.981-1.665-.487-3.32-.845-4.983-1.292a233 233 0 0 0-41.017-7.118c-6.685-.555-13.204-.679-19.657-.618"/><path fill="#5f7531" d="M551.213 1130.98c-32.54 45.53-41.416 117.108-43.476 162.934.448 17.763 1.7 35.389 2.783 39.168q1.938 6.844 3.664 13.744c.932 3.779 2.598 9.345 3.703 12.369 1.103 3.023 2.644 7.661 3.427 10.307 40.96 12.227 77.87 17.663 137.371 20.59l31.61 1.557c0-1.085-19.81-9.386-37.04-22.563-74.986-57.35-104.405-155.924-102.04-238.106"/><path fill="#738e3c" d="M610.302 547.486c-47.18 28.613-54.973 93.015-46.361 159.975 53.945-61.568 81.547-94.826 149.011-108.15-41.228-28.117-83.099-51.963-102.65-51.826m137.35 76.55C644.356 672.16 574.996 761.24 574.243 762.422c7.627 31.64 17.583 61.766 27.326 86.698 17.412-18.458 84.073-87.088 96.854-97.951 38.697-38.9 106.698-76.065 110.85-76.844-12.765-12.236-35.586-30.956-61.623-50.29m587.062-121.623c-13.429 0-47.72 25.992-67.937 51.497-10.443 13.901-24.103 30.918-37.687 48.901 71.38-3.678 106.115 23.449 177.055 72.95-5.797-96.801-40.31-173.348-71.431-173.348m-118.591 117.873c-15.364 21.412-29.181 43.19-36.245 61.934 72.056 37.049 159.246 82.199 208.624 150.07 2.876-10.49 5.818-21.337 8.425-32.546 3.866-17.608 6.534-35.288 8.158-52.773-87.341-90.06-187.626-126.53-188.962-126.685"/><path fill="#8eb14b" d="M1411.79 1006.361c-1.861-.078-2.72 1.574-1.761 3.603 20.395 43.203 71.427 87.179 108.249 128q.153-6.349.05-12.825c0-21.043-3.943-52.018-9.7-77.4-26.463-15.983-80.068-36.757-95.98-41.235a3.7 3.7 0 0 0-.856-.143zm-14.85-95.096c-35.28.214-26.734 18.278-25.512 20.56 5.657 10.568 52.777 35.389 128.855 106.661 3.302 3.095 6.704 5.914 7.558 6.266l.105.043a293 293 0 0 0-1.45-5.869c-10.354-40.062-30.081-81.121-57.77-120.68v-.002c-23.394-5.14-40.023-7.05-51.785-6.98z"/><path fill="#5f7531" d="M523.266 910.327c-.9-.03-172.03 235.572-202.33 320.611 21.788 32.283 50.055 58.25 78.643 78.632 4.528 3.229 9.132 5.866 13.674 8.878a448 448 0 0 0 19.578 12.05c.543-238.8 145.414-326.177 158.574-357.092q1.127-2.457 2.24-4.839c.096-.206.162-.426.259-.632.279-.583.253-.541.526-1.113.208-.44.427-.983.632-1.416 3.98-8.33 7.817-16.87 9.552-20.595l.019-.062c0-.808-17.798-9.634-28.655-15.074-5.857-2.934-11.583-5.391-17.316-7.781a300 300 0 0 0-6.71-2.746c-5.859-2.243-11.708-4.266-17.593-5.981-1.665-.487-3.321-.847-4.984-1.294q-3.044-.814-6.11-1.546"/><path fill="url(#b)" d="M710.078 157.124c-4.688-.116-8.94 1.5-13.812 4.887-10.896 7.578-11.638 9.627-8.432 23.453 2.833 12.213.133 22.418-13.935 52.664-15.97 34.335-22.259 46.246-29.635 46.97a87.73 99.211 0 0 0 61.873 33.774c-8.26-11.426-12.707-19.828-12.717-24.3-.052-24.345 20.118-87.37 31.09-97.135 16.457-14.646 15.982-28.16-1.281-36.483a57 57 0 0 0-4.012-1.76c-3.355-1.307-6.325-2-9.138-2.07" transform="translate(223.71 272.652)scale(1.37433)"/><path fill="url(#c)" d="M444.221 157.124c4.688-.116 8.94 1.5 13.813 4.887 10.896 7.578 11.638 9.627 8.43 23.453-2.831 12.213-.131 22.418 13.937 52.664 15.97 34.335 22.258 46.246 29.635 46.97a87.73 99.211 0 0 1-61.874 33.774c8.26-11.426 12.708-19.828 12.717-24.3.053-24.345-20.117-87.37-31.09-97.135-16.456-14.646-15.982-28.16 1.282-36.483a57 57 0 0 1 4.011-1.76c3.355-1.307 6.326-2 9.14-2.07" transform="translate(223.71 272.652)scale(1.37433)"/><text xml:space="preserve" x="883.613" y="254.968" fill="#fff" fill-rule="evenodd" stroke-width="1.182" font-family="Magic Bubble" font-size="246.422" style="line-height:1;-inkscape-font-specification:&quot;Magic Bubble&quot;;text-align:center" text-anchor="middle"><tspan x="883.613" y="254.968">To Alice</tspan></text><text xml:space="preserve" x="890.839" y="1629.169" fill="#fff" fill-rule="evenodd" stroke-width=".692" font-family="Magic Bubble" font-size="144.272" style="line-height:1;-inkscape-font-specification:&quot;Magic Bubble&quot;;text-align:center" text-anchor="middle"><tspan x="890.839" y="1629.169">A tabby glorp</tspan><tspan x="890.839" y="1773.441">during for these</tspan><tspan x="890.839" y="1917.713">trying times</tspan></text></svg>