<svg xmlns="http://www.w3.org/2000/svg" xmlns:xlink="http://www.w3.org/1999/xlink" xml:space="preserve" width="1800" height="2000"><defs><linearGradient id="a"><stop offset="0" stop-color="#271d21"/><stop offset="1" stop-color="#271d21" stop-opacity="0"/></linearGradient><linearGradient xlink:href="#a" id="b" x1="491.309" x2="447.539" y1="1116.569" y2="862.088" gradientTransform="translate(227.78 -66.863)scale(1.38517)" gradientUnits="userSpaceOnUse"/></defs><path fill="#ffe8f0" fill-rule="evenodd" d="M225.752 383.926c-43.43-1.513-94.852 130.413-128.844 194.702-14.588 27.592 21.025 273.29 46.46 301.333 16.288 17.96 18.09 50.124 30.887 71.47 10.615 17.702 28.73 90.722 32.12 92.97.405.268 14.866 40.101 42.622 106.189 26.569 63.26 52.428 126.786 60.85 127.628 42.932 4.284 214.833-60.89 241.229-55.964 12.342 2.302-151.178-189.103-149.318-189.257 2.688-.224 3.81-2.41 5.477-10.642 1.15-5.696 4.131-15.794 6.623-22.44 2.49-6.645 7.662-21.015 11.492-31.933s11.803-26.8 13.192-35.11l3.67-21.946c-23.375-.986 136.027-62.92 97.35-112.131 2.706-2.442-24.6-64.47-25.76-72.29-4.79-32.319-70.699-139.61-76.42-134.064l-5.19-22.784-8.571-10.632c-33.077-55.055-149.286-161.136-169.459-162.302l-7.84-.453c-6.567-8.274-13.463-12.097-20.57-12.344m1236.13-71.773c-38.029-7.929-225.071 50.95-398.789 208.052-72.045 65.152-56.83 52.416-113.784 115.418-71.876 79.507-161.867 213.816-164.477 295.481-8.099 253.428 57.734 438.007 106.78 421.085 120.65-41.623 586.301-22.82 586.301-22.82s108.692-513.315 124.732-521.162c20.305-9.935 37.554-35.939 48.46-64.572 9.215-24.192 31.934-136.205 22.881-152.772-5.62-10.287 26.137-63.278 16.746-75.52-72.72-94.808-124.644-181.463-228.851-203.19"/><path fill="#d999a7" fill-rule="evenodd" d="M799.742 873.888c18.528 18.528 43.167 40.15 59.047 67.721 15.881 27.571 29.115 64.184 29.114 96.828 0 32.643-13.233 61.317-17.865 77.638s-.662 20.291 7.941 20.291c8.601 0 21.834-3.97 51.392-8.38 29.556-4.412 75.432-9.265 118-9.706s81.829 3.53 129.471 14.557c47.642 11.03 103.664 29.114 145.571 49.848 41.908 20.733 69.7 44.113 86.682 65.728s23.16 41.466 26.468 66.169c3.308 24.704 3.75 54.259-1.986 74.992-5.734 20.733-19.516-1.045-35.617 8.219s-52.302 26.641-63.912 43.2c-11.612 16.557 3.237 65.982-4 94.827-7.236 28.847-18.778 60.037-38.117 87.175-19.34 27.137-46.476 50.22-71.899 63.32s-49.127 16.22-81.88 11.228c-32.75-4.99-65.191-31.19-92.953-47.255s-50.843-21.99-79.998-62.019-78.438-96.89-102.426-128.701c-28.458-37.739-37.989-31.817-42.672-12.224-2.067 8.647-.074 17.94-5.742 56.831-5.607 38.483-37.656 96.205-68.721 135.518-32.59 41.241-96.279 35.668-138.457-3.822-42.077-39.395-66.797-119.668-84.828-163.749 10.241-61.009-1.477-58.365-78.506-72.34-58.618-28.4-148.985-62.958-95.8-141.115 17.157-24.642 39.927-53.65 71.588-70.962s72.21-22.927 123.725-27.55 113.994-8.25 159.569-55.28c45.577-47.03 43.36-172.602 96.81-230.987"/><path fill="#7694a2" fill-rule="evenodd" d="M880.833 1394.56a3.62 3.62 0 0 0-2.643 1.033l-13.664 13.492h-.004a300 300 0 0 1-11.339 10.601c-3.524 3.124-6.549 5.603-7.727 6.382-3.089 2.04-5.672 4.862-6.602 9.739-.91 4.77-.933 11.563-.895 24.047.106 34.38 5.701 81.588 13.203 111.08 6.287 24.717 19.345 52.685 34.675 77.047 15.329 24.36 32.772 45.083 48.758 55.221 8.018 5.084 18.362 9.698 25.365 9.87 6.818.169 11.978-3.275 15.538-8.71 2.042-3.116 2.762-7.244 3.152-12.002.39-4.755.406-10.178.73-15.882.662-11.635.099-25.919-1.548-41.953-3.296-32.065-10.946-71.101-22.141-109.152-12.625-42.91-38.456-92.188-62.558-118.868h-.004l-9.716-10.755a3.6 3.6 0 0 0-2.578-1.188zm-163.943 60.096c-.167 0-.358 0-.713.062-.355.058-.925-.18-2.256 1.149-1.374 1.375-1.043 1.658-1.15 2.028a10 10 0 0 0-.23 1.01 38 38 0 0 0-.344 2.357 164 164 0 0 0-.64 6.799c-.398 5.215-.715 11.333-.728 15.673-.08 28.284 5.702 76.91 12.987 109.672 7.15 32.155 24.641 75.731 40.426 100.487 9.534 14.951 24.023 27.682 37.047 31.157 4.561 1.218 9.027 1.23 13.02-.303s7.31-4.54 9.863-8.535c5.103-7.992 7.733-20.003 8.897-36.609 2.1-30.022-5.252-91.888-15.561-132.974-6.27-24.981-12.174-40.934-23.767-64.214-3.535-7.096-6.196-12.17-8.345-15.801-2.151-3.633-3.597-5.845-5.777-7.45-1.82-1.34-4.418-2.516-7.701-2.697-3.283-.183-7.634.152-15.531.793-11.51.932-22.347.388-32.54-1.595a97 97 0 0 0-4.537-.782 27 27 0 0 0-1.624-.193 7 7 0 0 0-.797-.032zm-140.355-188.228c-6.62-.196-15.886 1.289-20.232 3.49-6.553 3.322-12.77 9.948-15.948 16.94-9.98 21.96-1.046 52.039 19.41 65.5 3.959 2.605 8.774 4.738 13.034 5.746 1.9.45 6 1.004 9.266 1.29.534.047 1.427.048 2.855.052 1.43 0 3.25 0 5.121-.022 7.242-.075 9.88-.35 12.386-1.429.442-.19.804-.345 1.169-.57.366-.226.844-.607 1.03-1.262.188-.654-.01-1.216-.197-1.604-.185-.386-.405-.716-.675-1.121-1.44-2.158-4.808-5.486-9.851-9.981a141 141 0 0 1-6.01-5.68 62 62 0 0 1-2.128-2.236c-.518-.581-.849-1.054-.858-1.057.044-.127.212-.536.643-1.405 1.001-2.019 2.645-4.724 6.064-9.938a69 69 0 0 0 3.626-6.25c.5-.982.926-1.892 1.246-2.675.322-.785.549-1.384.626-2.063.03-.272.07-.527.054-.877a2.7 2.7 0 0 0-.314-1.126c-.374-.68-.83-1.063-1.635-1.864-2.124-2.122-5.79-4.855-9.463-7.117-5.486-3.378-8.79-5.661-10.597-7.446s-2.167-2.85-2.171-4.62c-.006-2.357.9-4.676 4.503-10.729a131 131 0 0 0 3.286-5.81q.617-1.17.98-1.976c.12-.268.214-.503.293-.727s.167-.37.167-.827c0-.447-.174-1.076-.573-1.501-.4-.427-.87-.616-1.33-.743-.923-.253-2.022-.311-3.777-.361z"/><path fill="#94c5ca" fill-rule="evenodd" d="M583.518 1334.534c-19.747-1.457-35.143-9.177-44.405-26.915l-1.463-2.995.143-1.954c.284-3.909 1.304-8.747 2.553-12.13 1.325-3.583 3.63-7.715 5.845-10.48 1.16-1.45 3.643-3.956 5.104-5.154 1.662-1.362 4.184-3.02 5.756-3.78 3.096-1.5 9.436-2.84 15.548-3.284 1.842-.135 2.147-.113 4.219.312 3.503.72 3.97.852 3.97 1.126 0 .384-2.242 4.586-4.296 8.05-3.674 6.197-4.752 8.648-4.928 11.206-.29 4.256 2.457 7.212 11.954 12.864.819.488 2.468 1.54 3.665 2.338 2.07 1.38 6.185.552 9.242 3.894l3.22 3.515-.287.833c-.33.959-1.88 4.099-2.86 5.796-.367.636-5.604 3.907-6.937 5.954-2.642 5.952-.404 8.023-6.043 10.804"/><path fill="#fda4b8" fill-rule="evenodd" d="M623.064 808.586a6.445 6.445 0 0 0-6.722 4.435l-2.887 8.923.238-4.567a6.448 6.448 0 0 0-6.833-6.77l-13.232.817c-19.94 1.225-43.709 7.835-65.836 18.075-12.88 5.96-20.43 8.805-24.78 15.904-2.175 3.55-2.54 7.92-1.873 11.752.581 3.338 1.903 6.806 3.371 10.688l-6.112-12.925c-1.847-3.905-6.94-4.924-10.147-2.028l-9.273 10.462c-8.939 8.074-22.564 24.758-33.062 41.543-5.25 8.392-9.904 16.47-13.098 22.947-1.598 3.24-2.83 6.035-3.637 8.576-.404 1.272-.726 2.452-.834 3.941s-5.418 12.444-2.953 14.91c2.624 2.624 9.695-6.52 10.629-6.606s1.466-.252 1.993-.416c1.054-.325 1.969-.719 3.012-1.206 2.087-.973 4.553-2.317 7.171-3.915 15.52-9.463 40.174-2.77 52.115 15.572 13.22 20.305 17.48 38.16 17.392 74.957-.079 32.336-6.257 60.343-16.753 81.115-10.494 20.774-25.019 34.123-42.135 38.7-1.66.444-3.056.507-5.432 2.197-1.187.845-2.83 2.7-3.191 5.067s.455 4.202 1.144 5.355c1.377 2.305 2.81 3.431 4.844 5.178s4.664 3.844 8.122 6.576c24.473 19.346 64.299 37.208 102.46 47.155a6.45 6.45 0 0 0-1.689 3.742l1.85 10.869c1.42 8.349-1.413 13.448 1.125 18.678s7.965 8.368 13.317 9.439c.17.034.097.043.257.081-1.14 2.7-2.284 5.418-3.92 9.245l-4.256 9.944a6.445 6.445 0 0 0 2.213 7.805l11.952 8.43c6.482 4.567 8.504 7.235 8.664 7.873s-.276 3.054-4.013 9.186l-5.495 9.014a6.445 6.445 0 0 0 1.155 8.115l10.798 9.87c4.725 4.32 6.917 7.504 7.717 8.927-1.676.532-3.29 1.057-5.059 2.298-1.835 1.287-3.661 3.845-4.115 6.335-.911 4.98.806 8.126 2.796 13.356 6.14 16.15 22.889 32.725 42.661 47.063s42.485 26.005 61.965 29.279c23.118 3.887 60.114 3.437 78.978-1.454 43.358-11.241 87.418-43.986 104.2-78.75 29.515-61.146 4.427-138.097-64.193-205.863-8.747-8.64-13.837-13.556-18.294-16.551-2.23-1.5-4.512-2.682-7.359-2.88s-5.592 1-7.251 2.17c-.324.227-1.296.775-1.762 1.081.805-.789.922-1.094 1.842-1.959 17.105-16.058 27.782-31.095 41.254-57.896 20.78-41.339 24.084-74.328 16.923-108.404-18.808-89.494-107.742-164.58-208.423-173.841h-.004zm88.906 72.016c15.355.736 32.969 6.863 51.044 19.541 36.944 25.915 64.217 77.724 64.51 122.44.2 30.644-8.696 50.136-27.08 62.301-8.428 5.578-11.384 6.337-26.424 6.85-18.297.625-28.454-1.96-41.98-10.511-44.343-28.046-77.654-86.346-77.869-135.55-.096-22.123 6.352-38.687 16.57-49.54s24.338-16.342 41.229-15.531m-91.377 187.727c18.578-.014 32.192 5.717 39.895 14.23s10.31 19.956 5.674 34.525c-1.533 4.815-3.327 12.601-4.292 18.416-.351 2.119-1.103 4.674-1.96 6.756-.836 2.03-1.979 3.626-1.93 3.6-.392-.261-2.092-1.087-6.056-4.003l-10.28-7.56a6.45 6.45 0 0 0-4.877-1.165l-25.239 4.2c-11.93 1.985-18.456 3.04-23.745 5.263s-8.578 6.284-11.17 10.552c-1.145 1.885-2.596 3.666-3.726 4.756-.538-.35-1.002-.627-1.732-1.19-2.293-1.773-5.256-4.437-8.224-7.418-5.94-5.958-12.092-13.61-13.958-17.22-3.942-7.626-3.904-16.458-.032-25.62s11.713-18.402 22.934-25.523c15.2-9.643 26.362-12.58 48.718-12.6m148.48 161.728c6.227.145 13.253 1.881 20.697 5.408 20.97 9.93 32.525 27.464 34.543 44.248 2.02 16.782-4.869 32.623-22.908 41.451-12.415 6.076-26.59 8.723-36.717 8.192-5.064-.266-9.069-1.4-11.068-2.58s-1.982-1.334-1.912-2.538c.166-2.848 1.19-8.363 1.835-10.333 1.05-3.216.736-8.317-1.77-11.5s-5.65-4.991-10.188-7.542c-2.553-1.435-4.927-3.16-6.418-4.51-.113-.103-.113-.128-.216-.227.465-.828.94-1.68 1.703-2.85 2.041-3.127 4.973-7.139 8.182-11.076h.004l12.153-14.926a6.445 6.445 0 0 0-.347-8.531l-7.204-7.52c-1.884-1.964-3.013-3.539-3.459-4.43s-.308-.816-.31-.807c-.005.019 1.52-2.432 7.113-5.841 4.656-2.84 10.063-4.232 16.288-4.088"/><path fill="#da6b7e" fill-rule="evenodd" d="M720.806 832.178c8.734 17.157 15.149 31.153 26.847 59.695 11.697 28.541 26.357 68.467 25.732 106.054-.623 37.588-16.53 72.834-35.87 101.064-19.34 28.228-42.11 49.438-64.88 70.651 20.899 5.302 41.798 10.604 58.33 18.092 16.531 7.485 28.697 17.154 41.953 32.282s27.605 35.716 34.467 58.487 6.24 47.724.157 70.026c-6.083 22.303-17.624 41.954-34.157 59.423-16.53 17.467-38.054 32.751-59.576 48.035 23.705-.624 47.743 1.73 75.348-7.004s58.778-28.555 81.706-54.6c22.926-26.048 35.738-62.81 22.793-106.637-7.865-46.608-54.433-111.923-95.636-138.7 10.196-28.195 46.797-76.57 52.568-110.569C867.77 937.23 779.053 868.69 720.806 832.178"/><path fill="#fff" fill-rule="evenodd" d="M560.46 1137.372c-1.184 0-1.926-.014-2.665.055-.74.064-1.743.324-2.38.673-.406.222-1.159.626-1.776 1.605s-.67 1.98-.67 2.463c0 2.758 1.108 3.724 2.212 5.29 1.105 1.564 2.52 3.232 4.093 4.894 3.15 3.323 6.678 6.531 10.074 8.254.973.493 1.708.868 3.247.87 1.978 0 3.34-.784 4.602-1.685 1.26-.904 2.39-2.055 3.363-3.418a18 18 0 0 0 2.793-6.145c.51-2.095 1.227-4.147-.713-6.791-1.44-1.962-2.696-2.173-4.262-2.783-1.567-.608-3.403-1.146-5.407-1.622-4.006-.951-8.601-1.641-12.512-1.66m101.158-13.009c-.915.051-1.824.284-2.932.646-3.445 1.125-7.41 2.836-10.595 4.45-1.595.806-2.984 1.58-4.054 2.287a11 11 0 0 0-1.4 1.067c-.412.384-1.094.644-1.094 2.183 0 1.19.414 1.503.716 1.93s.654.824 1.065 1.254c.821.858 1.88 1.814 3.063 2.796 2.366 1.962 5.148 3.982 7.41 5.139.635.324 1.275.615 1.852.838.289.112.56.206.83.283.271.08.464.17 1.026.17 1.79 0 2.889-1.156 3.704-2.3s1.459-2.547 2.018-4.163c1.118-3.232 1.847-7.303 1.85-11.31 0-.691-.016-1.353-.045-1.9a15 15 0 0 0-.054-.743c-.024-.223.06-.24-.186-.884-.305-.795-1.076-1.367-1.66-1.567-.586-.203-1.056-.203-1.514-.176"/><path fill="#8bc4cc" fill-rule="evenodd" d="M617.176 1065.697c-19.964.766-41.751 8.196-55.982 21.202-5.742 5.248-10.609 11.67-13.99 18.03-3.38 6.365-5.41 12.597-4.769 18.14.525 4.545 3.946 8.158 8.915 10.775 4.97 2.618 11.806 4.646 20.926 6.458 3.51.699 6.809 1.353 9.293 1.843s3.94.78 4.473.874c.728.129.743.059.918.052.176-.014.336-.016.515-.033.362-.03.797-.078 1.328-.139a227 227 0 0 0 4.215-.538 841 841 0 0 0 12.987-1.864c18.629-2.808 34.372-7.877 45.729-14.475s18.76-14.997 18.778-24.677c.004-2.578-.92-4.973-2.21-7.577s-3.033-5.342-5.047-8.031c-4.027-5.378-9.007-10.523-13.967-13.43-8.755-5.13-20.133-7.068-32.112-6.609z"/><path fill="#0ff" d="M944.1 926.009a2248 2248 0 0 0-7.132 4.776h3.243a3.88 3.88 0 0 0 3.888-3.888z"/><path fill="#7694a2" fill-rule="evenodd" d="M774.133 1228.701c-3.473-.377-6.774-.347-9.665.187-3.067.565-6.654 1.687-9.91 2.975s-6.066 2.617-7.906 4.152c-.703.586-1.449 1.11-2.013 2.244-.566 1.135-.403 2.728.146 3.824 1.095 2.193 3.202 4.275 7.336 8.696a95 95 0 0 1 4.445 5.088 33 33 0 0 1 1.373 1.817c.316.46.465 1.007.311.395.072.282.073.123.004.34s-.351.81-1.07 1.801c-1.436 1.987-4.461 5.49-9.998 11.746-4.939 5.58-8.103 9.235-10.085 11.714-.99 1.242-1.685 2.182-2.19 2.994s-.925 1.453-.95 2.608c-.023 1.084.419 1.635.76 2.067s.712.773 1.14 1.127c.857.707 1.964 1.443 3.375 2.292 2.822 1.697 6.836 3.792 11.92 6.217 4.323 2.064 7.718 3.96 9.925 5.477a15 15 0 0 1 1.82 1.472c-.581.183-1.216.38-1.82.38-2.419 0-3.9 1.312-5.545 2.75-1.647 1.436-3.153 3.14-3.978 5.116-.651 1.558-1.078 3.332-1.078 4.994 0 2.036 1.256 3.875 2.96 5.078s3.918 2.061 6.77 2.829c9.031 2.428 22.789.755 33.498-3.702 13.816-5.753 23.758-15.552 27.92-27.86 2.15-6.356 1.9-17.292-.253-24.815-5.645-19.734-19.815-36.085-36.589-41.664a51.8 51.8 0 0 0-10.652-2.339z"/><path fill="#94c5ca" fill-rule="evenodd" d="M774.133 1228.701c-11.635 0-31.113 7.776-31.052 11.12.019.808 3.982 5.313 8.816 10.012l8.792 8.542-8.248 8.927c-4.535 4.908-10.865 11.928-14.065 15.597l-5.815 6.67 9.613 5.192c11.034 5.957 24.108 5.28 38.17-1.97 15.084-7.78 29.42-26.023 27.147-45.274-1.095-9.256-16.444-18.816-33.358-18.816m27.155 496.35c-11.377-3.037-26.222-17.315-35.151-31.647-10.066-16.157-27.98-38.878-32.014-64.711l-1.586-10.157c25.671-49.282 53.804-46.446 93.525-11.185.405 2.007 2.786 20.8 3.567 29.256 2.628 28.515 2.117 49.228-1.793 64.859-4.232 16.916-14.745 26.735-26.547 23.585m152.182-14.735c-11.52-2.434-29.393-12.968-39.063-26.81-10.9-15.606-35.214-34.076-40.601-59.663l-2.119-10.059c41.723-91.547 121.203-12.291 102.635 82.96-3.338 17.114-8.9 16.097-20.852 13.572"/><path fill="#3f3f49" d="M1510.03 302.394c-52.443-2.072-118.347 14.257-193.167 48.23-75.854 34.445-176.923 100.763-250.824 164.577-30.847 26.634-116.601 114.284-143.45 146.62-51.02 61.443-102.907 145.911-122.01 198.62-3.123 8.62-6.658 16.281-7.855 17.02s-7.35-3.208-13.67-8.772c-36.19-31.855-87.4-53.194-141.482-58.96-17.313-1.848-17.317 1.318.067-46.06l-16.98 14.468c-4.278 16.061-9.053 30.026-10.606 31.036-1.558 1.008-7.661 1.85-13.566 1.87s-18.618 1.83-28.25 4.02c-9.592 2.184-17.776 3.581-18.229 3.122-.391-.473-5.49-15.461-11.332-33.303-18.713-57.166-48.746-124.094-75.139-167.441l-9.266-15.217c-13.476-30.443-31.18-48.823-52.063-73.123-35.44-41.446-86.223-92.927-110.107-111.622-11.365-8.896-29.11-20.545-39.434-25.888-16.653-8.617-20.778-9.716-36.513-9.716-21.705 0-33.1 5.82-49.826 25.434-56.38 66.117-83.193 152.591-78.39 252.826 4.405 91.91 29.16 184.648 82.587 309.405 10.579 24.704 25.732 60.636 33.675 79.852 22.86 55.293 79.274 190.097 83.288 199.014 2.006 4.459 8.29 18.766 13.968 31.795 13.753 31.568 22.223 44.225 41.915 62.645 25.63 23.975 61.08 45.272 94.165 56.575 17.247 5.89 50.208 13.033 60.41 13.09 12.06.066 13.75 2.617 10.71 16.182-13.782 61.497-3.816 130.242 26.955 185.9 13.798 24.96 46.046 58.89 68.464 72.036 22.9 13.429 54.759 23.293 79.874 24.732 20.618 1.181 22.699.82 37.52-6.477 8.75-4.306 18.812-11.639 22.741-16.565 8.229-10.32 10.823-10.92 13.763-3.184 3.914 10.295 22.564 31.594 32.054 36.604 30.836 16.28 44.344-3.192 44.028-63.472-.189-36.279-3.872-64.386-14.065-107.302l-7.706-32.44 4.156-28.696c2.287-15.784 4.155-32.099 4.148-36.254-.01-8.671 6.067-18.645 11.362-18.645 2.97 0 3.604 6.24 3.612 35.557.02 72.507 16.28 129.871 52.3 184.501 31.8 48.23 68.12 71.444 84.193 53.81 9.594-10.52 11.57-22.708 9.915-61.036-.847-19.614-.73-35.614.26-35.556s9.656 7.458 19.263 16.442c31.873 29.81 76.545 56.573 112.337 67.306 20.987 6.294 62.55 6.314 81.057.036 62.427-21.173 106.658-66.515 128.292-131.517 9.181-27.586 16.442-69.15 16.442-94.14v-15.11l33.386-16.359c33.649-16.486 64.609-36.622 82.196-53.456 23.98-22.953 47.475-60.875 62.59-101.033 6.283-16.69 16.828-61.13 37.657-158.699 20.95-98.12 33.426-136.725 86.775-268.43 29.039-71.687 48.703-140.66 63.314-222.09 7.672-42.746 9.387-100.807 3.76-127.264-13.024-61.22-40.602-109.99-88.548-156.602-25.848-25.129-35.786-31.553-62.936-40.667-14.32-4.807-30.306-7.54-47.785-8.23zm-61.955 9.617c11.502-.019 46.56 18.743 63.212 33.812 15.717 14.222 27.963 34.427 27.963 46.13 0 5.616-1.58 7.063-10.603 9.701-16.022 4.685-75.076 29.408-100.345 42.011-44.148 22.02-114.989 64.03-136.933 81.2-9.25 7.24-9.991 7.395-22.027 4.617-19.97-4.609-58.4-3.583-80.92 2.16-23.04 5.878-61.99 24.394-87.789 41.737-98.362 66.117-181.558 166.56-262.587 317.012-7.547 14.015-14.53 25.489-15.512 25.489-10.096-9.506-18.051-21.474-26.432-32.541l7.282-18.902c17.114-44.446 49.065-102.098 82.709-149.233 55.727-78.075 147.865-172.169 233.11-238.06 86.9-67.17 177.897-118.884 259.095-147.252 22.767-7.953 61.477-17.881 69.777-17.881m-1195.47 85.594c3.503-.065 6.202 1.513 12.34 5.11 32.821 19.233 96.069 81.574 151.727 149.551l13.853 16.92 4.27 36.453c3.8 32.462 14.492 97.116 17.983 108.745 2.54 8.45-2.915 3.918-17.737-14.745-19.365-24.38-51.054-57.157-69.262-71.637-34.633-27.544-58.248-38.088-80.231-35.82l-12.817 1.325-23.387-19.44c-12.863-10.692-38.323-29.956-56.581-42.808-38.006-26.754-37.88-26.504-26.015-51.585 19.69-41.623 46.4-70.093 74.222-79.128 5.699-1.85 8.91-2.892 11.634-2.942m1285.525 6.728c3.08 0 3.73 2.438 3.128 11.68l-.76 11.679-26.202 10.874c-52.124 21.628-134.656 64.344-182.489 94.45-11.847 7.456-22.513 13.506-23.706 13.444-3.258-.166-20.834-10.878-20.861-12.715-.035-2.318 39.12-28.547 71.813-48.109 51.359-30.729 162.751-81.303 179.077-81.303m37.437 19.988c41.335-.103 85.889 65.81 76.152 112.657-3.644 17.535-13.297 38.012-24.175 51.289-8.053 9.828-9.734 10.707-20.46 10.732-33.729.077-142.462 22.662-227.539 47.264-14.411 4.168-27.132 7.593-28.27 7.593-1.139 0-1.139-3.633 0-8.093 1.138-4.46 1.968-15.97 1.846-25.577-.274-21.482-6.023-33.827-25.043-53.767-7.377-7.734-13.411-14.826-13.411-15.762s9.263-7.642 20.587-14.903c79.487-50.965 209.724-111.356 240.313-111.433M156.704 513.044c6.799-.132 102.526 71.032 108.636 80.92.814 1.315-2.22 5.754-6.74 9.864s-8.782 7.46-9.468 7.44-14.722-10.795-31.19-23.94-37.526-29.468-46.79-36.272c-16.787-12.33-16.844-12.413-16.844-24.502 0-6.672.962-12.725 2.14-13.452a.5.5 0 0 1 .256-.058m-6.767 32.083c5.087.27 10.512 3 17.487 8.082 11.268 8.212 71.454 55.422 77.614 60.88 1.18 1.045-.223 8.741-3.118 17.107-9.21 26.614-6.414 57.013 8.177 88.883 3.588 7.837 6.522 14.676 6.522 15.196 0 2.373-6.417-.562-46.164-21.106-54.356-28.096-82.382-45.264-90.283-55.305-1.621-2.06-4.845-10.476-7.165-18.705-7.968-28.262-.404-66.854 16.395-83.653 8.008-8.008 13.993-11.726 20.535-11.38m1034.966 32.717c28.675-.058 32.533.504 47.776 6.952 19.962 8.444 35.317 21.045 42.688 35.033 4.411 8.372 5.465 14.634 5.53 32.927.075 21.244-.488 23.74-9.496 41.968-20.578 41.637-78.787 89.038-157.43 128.2-41.008 20.423-92.463 50.326-137.43 79.865-40.23 26.429-110.25 77.243-116.028 84.206-1.715 2.065-5.42 5.206-6.668 5.206-2.514 0-1.28-1.576-7.101-22.51-2.268-8.153-7.876-22.275-12.462-31.382l-8.338-16.56 17.597-33.383c56.191-106.613 137.643-216.336 190.177-256.186 18.94-14.365 73.51-40.82 100.033-48.495 16.038-4.641 26.094-5.79 51.153-5.84m430.764 25.337c7.004.134 8.34 1.716 12.335 7.578 11.66 17.104 15.553 67.905 7.729 100.81-7.814 32.856-21.483 56.292-40.023 68.615-18.546 12.33-34.603 15.873-95.133 21.008-196.495 16.667-332.497 43.01-467.887 90.62-21.274 7.481-44.577 15.943-51.782 18.804-7.009 2.783-12.777 4.595-13.086 4.126h-.004v-.008l-.004-.004q0-.008-.004-.014v-.005l-.004-.01v-.005c0-.615 7.019-5.888 15.597-11.714 34.238-23.261 88.545-53.812 147.852-83.179 74.744-37.011 104.104-54.14 142.928-83.378 32.013-24.112 47.331-39.218 61.688-60.841 9.237-13.913 9.769-14.267 32.214-21.387 73.477-23.31 193.036-48.776 238.38-50.773 3.904-.172 6.866-.29 9.2-.245zM458.903 617.689l6.252 9.984c10.328 16.494 42.466 83.202 52.26 108.475 9.057 23.372 25.174 72.083 26.658 80.568.554 3.163-2.844 6.07-12.183 10.421-14.756 6.878-13.412 7.72-25.612-16.054-4.58-8.92-12.074-22.396-16.654-29.943-6.661-10.976-9.599-20.478-14.674-47.414-9.03-47.942-16.213-95.397-16.123-106.51zm-139.936 17.235c15.342.543 33.652 5.441 53.696 14.914 24.41 11.537 34.913 21.337 67.807 63.25 15.45 19.686 16.467 21.858 24.556 52.523 4.642 17.593 12.532 43.502 17.535 57.572l9.099 25.58-20.95 21.73c-11.522 11.954-23.102 25.374-25.729 29.82-2.628 4.45-5.94 8.064-7.358 8.033-5.611-.13-69.116-51.066-96.92-77.739-28.042-26.904-29.91-29.337-39.01-50.719-21.101-49.594-32.028-91.987-28.968-112.397 3.342-22.28 20.669-33.472 46.24-32.567m-195.68 36.47c4.214-.126 11.051 4.044 23.629 11.95 12.988 8.162 44.59 25.31 70.227 38.107 42.011 20.97 47.155 24.23 52.107 33.04 8.85 15.746 39.345 50.788 69.334 79.672 15.32 14.755 26.446 26.708 24.726 26.56s-20.533-5.658-41.807-12.245-67.875-20.625-103.56-31.194c-35.683-10.572-67.847-20.748-71.473-22.617-15.103-7.78-26.143-29.203-31.958-62.024-3.308-18.665-3.301-27.942.021-43.436 2.575-12.006 3.98-17.67 8.755-17.813m366.06 119.895c1.652-.067 6.675 7.464 14.227 21.462 5.665 10.503 9.75 20.527 9.08 22.276s-3.449 4.37-6.175 5.83c-4.498 2.406-5.308 1.443-8.743-10.44-4.032-13.944-8.88-34.229-8.981-37.574-.031-1.024.17-1.536.591-1.554m-335.649 12.309c1.966 0 23.964 6.09 48.884 13.538a28971 28971 0 0 0 88.161 26.169c75.84 22.348 87.535 27.313 118.128 50.144l27.29 20.369-5.89 11.641c-8.188 16.183-20.25 51.144-23.815 69.036-1.642 8.234-4.065 19.183-5.385 24.33-2.85 11.112-1.652 11.028-43.386 3.052-16.47-3.148-55.065-8.334-85.77-11.521l-55.824-5.798-10.563-13.766c-33.937-44.212-54.047-86.444-61.477-129.108-4.661-26.768.54-58.086 9.647-58.086m1336.395 2.836c11.158-.343 14.961.774 22.634 4.488 31.627 15.311 44.97 46.187 44.822 103.717-.097 37.8-5.066 60.258-20.415 92.331-10.184 21.28-26.305 39.588-44.044 50.016-20.204 11.877-26.293 13.39-38.68 9.607-20.251-6.183-47.859-11.154-83.481-15.034-47.952-5.224-275.442-7.614-348.59-3.663-60.758 3.282-140.596 9.543-159.173 12.479-6.91 1.094-13.014 1.537-13.561.99-.546-.546-.027-5.148 1.15-10.228 1.182-5.076 2.173-18.983 2.206-30.904l.062-21.678 14.348-11.48c24.39-19.517 68.957-52.816 74.828-55.91 9.482-4.995 69.953-27.785 107.373-40.464 47.265-16.016 106.262-32.739 148.513-42.098 72.133-15.98 212.49-36.873 277.982-41.38 5.77-.397 10.306-.675 14.026-.789m-860.289 7.142c12.632 0 55.342 9.174 70.267 14.45 83.3 29.448 182.262 127.215 139.764 235.09-15.941 40.463-32.996 65.323-45.412 77.516-8.994 8.835-17.46 16.438-18.806 16.896-3.805 1.292-2.882 7.899 1.104 7.899 1.953 0 6.888-2.805 10.965-6.236 9.152-7.7 13.136-7.828 19.443-.625 2.705 3.088 8.262 8.422 12.352 11.854 9.726 8.16 34.146 37.048 42.703 50.516 10.322 16.254 23.463 44.15 27.333 58.033 6.27 22.492 7.233 56.081 2.098 73.22-21.82 72.846-99.054 94.048-113.936 97.496-18.015 4.174-63.113 3.086-80.62-1.945-38.048-10.93-78.588-41.546-91.325-68.958-6.117-13.164-5.925-15.381 1.491-17.242 9.134-2.293 7.688-7.33-5.285-18.42l-11.525-9.85 6.726-11.483c3.699-6.312 6.02-12.62 5.157-14.018-.864-1.397-6.564-5.469-12.67-9.047-6.104-3.578-11.076-7.801-11.047-9.386s2.243-7.696 4.914-13.579l4.854-10.7-6.32-2.402c-3.476-1.321-7.369-2.4-8.652-2.4s-2.336-7.368-2.336-16.374v-16.375l11.229 1.684c7.352 1.103 11.23.762 11.23-.983 0-1.466-4.21-3.316-9.359-4.112-43.868-6.782-102.168-33.46-125.322-57.348-8.422-8.688-8.456-8.807-2.432-8.861 8.367-.076 18.105-4.653 27.046-11.943v-7.073a39 39 0 0 1-3.6 3.118c-10.577 8.067-31.152 10.693-40.652 5.192-80.392-80.645 3.402-252.454 45.948-284.904l8.626-6.58 7.534 16.793c9.68 21.574 14.108 18.6 6.996-4.697-3.98-13.043-4.49-17.67-2.24-20.378 1.6-1.93 12.106-7.999 23.347-13.489 20.45-9.988 47.995-17.356 69.1-18.488 12.573-.676 12.452-.962 9.014 21.23-2.77 17.882 2.201 14.58 8.452-5.615 5.296-17.117 5.577-17.47 13.846-17.47zm79.961 63.326c-21.522.268-41.702 12.745-51.295 32.562-10.9 22.516-9.431 54.474 4.065 88.433a184 184 0 0 0 12.293 25.118h7.896c-.797-3.121.76-3.56 4.477-.135q.068.06.164.135h9.304a3.88 3.88 0 0 1 3.888 3.888v2.41c1.82.761 3.728 1.537 5.662 2.298 18.75 7.378 39.67 8.633 52.759 3.165 25.756-10.761 44.875-53.481 37.035-82.752l-2.657-9.932 5.579 6.839c7.813 9.58 18.463 38.118 21.635 57.977 8.655 54.18-26.674 98.97-83.583 70.25-11.916-6.015-25.545-16.853-36.43-28.396v8.415c18.404 19.18 39.77 32.435 60.135 35.913 49.327 8.428 80.545-39.841 65.022-100.536-8.426-32.945-32.346-72.602-55.003-91.187-12.233-10.035-37.4-21.637-51.667-23.818a57 57 0 0 0-9.279-.648m-16.11 9.712q1.372.047 2.71.315c26.86 5.372 39.418 20.653 39.318 47.84-.084 22.622-9.264 39.594-27.394 50.64-4.804 2.929-10.981 5.203-13.727 5.057-11.287-.598-27.394-4.835-30.612-8.053-7.545-7.543-10.544-41.277-5.337-60.03 5.725-20.62 21.352-36.249 35.043-35.77m-479.701 123.005c3.345-2.067 116.04 10.928 149.732 17.265 18.396 3.459 33.834 6.29 34.308 6.29s.863 10.993.863 24.429c-.838 64.368 31.425 97.523 82.343 133.413 6.816 4.456 12.401 8.664 12.41 9.35s-8.67 4.397-19.292 8.247c-34.018 12.332-50.842 19.66-93.8 40.867-23.124 11.415-44.457 20.748-47.41 20.748-8.548-.02-19.654-8.148-35.282-25.837-13.81-15.632-16.425-20.977-52.988-108.216l-38.461-91.771 2.887-16.837c1.59-9.26 3.702-17.336 4.69-17.948m956.238 40.969c201.488-.122 278.342 8.034 303.512 32.197 20.778 19.947 29.082 43.932 29.045 83.893-.028 30.975-5.233 52.482-19.605 81.018-16.84 33.445-38.151 52.366-71.351 63.35-29.723 9.837-45.14 10.312-65.936 2.037-72.303-28.77-255.467-85.163-394.27-121.386-25.107-6.553-78.766-18.108-98.566-21.227-28.112-4.43-27.876-4.346-39.928-14.837l-11.229-9.776 5.688-7.058c12.4-15.387 25.804-37.825 32.046-53.645l6.564-16.643 15.284-2.626c59.874-10.284 159.226-15.207 308.747-15.297m-332.25 122.945c6.553-.257 30.57 4.404 76.215 14.753 97.2 22.034 292.23 79.98 403.628 119.925l41.799 14.99v15.846c0 25.13-7.404 41.377-28.46 62.448-20.051 20.065-45.035 33.724-69.943 38.239-21.298 3.861-29.66 3.09-66.297-6.108-86.527-21.726-203.498-77.37-278.23-132.356-16.184-11.908-17.808-13.96-22.047-27.91-8.15-26.824-30.727-65.952-51.025-88.418-4.8-5.316-8.127-10.264-7.39-11 .234-.235.814-.373 1.75-.41m-334.444 30.964 16.93 6.724c9.31 3.698 23.1 8.663 30.65 11.034l13.725 4.315.735 16.733.734 16.738-9.985 5.092c-50.43 25.726-8.96 99.93 25.11 99.93 3.912 0 7.11 1.362 7.11 3.027 0 6.12-26.876 28.196-41.472 34.068-14.274 5.741-36.78 8.467-52.104 6.31-4.117-.58-18.152-3.378-31.19-6.215-27.826-6.053-80.403-30.418-93.15-43.166-11.282-11.282-25.688-39.934-28.908-57.49-4.952-27.016-7.022-24.316 34.346-44.82 38.244-18.957 88.222-40.077 113.207-47.844zm237.464 31.77c-3.296 3.57-2.575 5.2 4.58 12.581l8.097 8.35c-7.591 11.627-20.275 21.091-25.39 34.25 0 1.51 5.052 5.202 11.228 8.201 12.438 6.044 12.974 7.391 7.305 18.356-4.447 8.598-4.69 7.978 5.242 13.374 18.493 10.049 60.044-2.164 70.47-20.715 31.742-56.475-48.26-110.439-81.532-74.397m27.76-5.944c19.233.047 36.12 11.189 45.742 30.175 28.306 55.857-38.621 76.541-59.301 64.49-3.546-2.068-3.797-3.554-1.469-8.662 1.544-3.39 4.874-6.162 7.397-6.162 9.023 0 4.342-5.242-10.384-11.628-8.234-3.57-14.97-7.64-14.97-9.043 0-3.678 24.953-27.92 24.953-31.115 0-1.197-3.368-5.405-7.485-9.35s-7.487-8.143-7.487-9.328c0-2.908 15.913-9.396 23.003-9.377m-193.786 37.31c3.53-.084 6.087.3 6.087 1.297 0 .654-2.243 4.864-4.983 9.36-7.246 11.884-6.282 14.832 7.526 23.03 6.837 4.06 12.43 8.675 12.43 10.259s-2.81 7.016-6.242 12.073c-3.43 5.056-6.234 9.954-6.234 10.885 0 .932 4.77 5.82 10.604 10.863 5.833 5.047 10.016 9.784 9.296 10.528-3.266 3.378-23.776 2.762-31.25.699-36.36-10.037-48.041-67.574-15.627-85.386 3.935-2.035 12.512-3.469 18.393-3.608m327.474 30.048c.401 0 6.578 4.29 13.725 9.525 40.263 29.495 121.66 73.826 182.018 99.126l29.283 12.275 6.248 15.025c17.113 41.159 14.423 73.578-7.326 88.297-16.754 11.339-47.557 8.99-76.203-5.812-47.733-24.664-97.836-75.114-139.028-139.992-12.557-19.778-12.737-20.335-10.286-31.827 1.372-6.435 2.121-19.555 1.667-29.16-.456-9.604-.5-17.457-.098-17.457m-5.992 68.033c2.373-.024 7.055 6.644 20.788 27.442 30.731 46.538 62.406 81.18 95.767 104.733l13.975 9.861 6.601 26.776c3.63 14.726 8.734 33.434 11.339 41.573s7.715 24.177 11.36 35.643 6.292 21.745 5.882 22.842c-1.088 2.911-28.857-11.633-41.92-21.957-14.497-11.458-19.8-17.39-37.693-42.115-11.693-16.154-16.069-24.949-21.11-42.42-12.89-44.674-37.46-91.981-63.282-121.844l-14.93-17.267 4.439-7.594c2.44-4.175 5.499-10.194 6.796-13.374.573-1.406 1.13-2.29 1.988-2.299m-301.786 6.576c1.074.033 1.804 1.243 2.895 3.283 2.318 4.33 1.949 7.57-1.872 16.482-11.57 26.992-15.448 47.855-15.857 85.3-.216 19.903-1.707 43.483-3.31 52.404-1.607 8.92-3.207 21.255-3.558 27.412l-.64 11.193-9.306-11.384c-17.578-21.507-28.57-55.256-34.575-106.14-3.716-31.474-2.473-37.402 8.319-39.683 14.526-3.07 37.15-16.869 47.658-29.067 6.052-7.026 8.57-9.85 10.246-9.8m7.943 15.05 13.43 15.44c13.935 16.02 41.22 35.589 60.92 43.691 10.883 4.477 11.38 5.125 11.39 14.87.027 29.058-12.805 58.289-31.184 71.043-10.185 7.067-17.997 10.054-22.458 8.585-1.373-.45-6.729-1.53-11.907-2.397-12.104-2.026-26.236-14.458-32.48-28.573-10.45-23.626-7.063-72.432 7.687-110.715zm277.46 8.914 8.94 8.59c18.062 17.35 46.885 67.34 58.352 101.207 24.23 71.56 37.129 162.672 26.998 190.696-5.5 15.21-16.024 17.114-36.291 6.56-26.374-13.732-74.272-85.87-82.403-124.106-1.258-5.92-3.49-15.257-4.959-20.748-5.828-21.775-10.3-63.985-9.966-94.11l.356-31.729 11.594-9.343c6.377-5.14 15.146-13.322 19.487-18.182zm256.324 26.867c2.28.019 12.525 2.748 24.294 6.518 32.53 10.42 73.096 18.42 86.927 17.14l11.515-1.067 3.077 12.7c1.692 6.989 3.655 22.81 4.365 35.162.917 15.95.302 24.745-2.116 30.35l-3.404 7.897-13.725-12.58c-14.977-13.724-49.036-39.636-82.864-63.043-14.39-9.958-22.905-17.74-25.602-23.393-2.22-4.66-3.533-8.979-2.913-9.6.059-.058.211-.087.446-.084m-319.972 22.13c.253.02.422.053.498.129.704.702-.503 14.068-2.684 29.699s-4.323 28.783-4.762 29.22c-.44.44-6.553-10.138-13.59-23.504-7.088-13.46-11.725-24.959-10.397-25.78 4.776-2.951 27.156-9.907 30.935-9.764m332.543 7.15h.014c2.644 0 47.665 32.255 71.714 51.38 39.931 31.753 46.14 40.137 44.175 59.666-1.994 19.829-31.022 53.906-56.667 66.53-9.552 4.703-21.422 8.389-29.07 9.022l-12.93 1.072-16.682-39.559c-25.397-60.224-28.505-68.994-24.893-70.198 7.54-2.513 17.878-14.074 21.823-24.402 3.382-8.856 3.973-15.695 2.797-32.368-.814-11.539-.939-20.997-.283-21.144zm-450.877 1.926c.446 0 .946.06 1.502.154 2.746.458 5.87 1.675 6.95 2.709 1.077 1.03 1.64 14.018 1.249 28.859l-.712 26.979-7.015-14.717c-5.75-12.065-6.875-17.416-6.24-29.692.606-11.712 1.15-14.32 4.266-14.292m18.343 3.824 11.538 2.196c6.35 1.207 19.967 1.5 30.26.652 21.43-1.77 18.428-4.212 34.813 28.306 17.881 35.482 29.101 82.915 35.224 148.923 3.669 39.555.218 68.067-9.6 79.307-8.763 10.034-27.279 3.355-44.072-15.897-15.295-17.535-38.211-70.135-46.617-107-8.735-38.313-15.277-100.37-12.954-122.882zm-26.045 34.224h.044c4.87.137 20.281 44.09 26.563 75.766 3.779 19.05 9.466 42.566 12.64 52.256 5.168 15.777 5.401 18.335 2.248 24.432-1.936 3.746-6.626 9.004-10.421 11.688-8.981 6.347-18.788 7.869-35.172 5.457-23.669-3.486-25.618-7.323-35.534-69.833-2.72-17.156-5.55-34.2-6.287-37.877-1.19-5.928.23-7.687 12.6-15.601 14.433-9.232 27.176-25.793 30.102-39.12.858-3.907 2.294-7.093 3.216-7.167m-106.54 22.042 9.77 11.098c10.931 12.419 23.12 19.216 34.46 19.216 4.172 0 8.282 1.126 9.13 2.5 1.276 2.064 9.702 51.255 15.493 90.453.76 5.147.392 9.318-.819 9.274-1.21-.048-8.896-2.388-17.08-5.202-23.205-7.979-40.413-21.303-49.571-38.386-4.614-8.602-5.356-14.112-5.384-39.923-.02-16.47.874-34.24 1.984-39.488zm452.454 1.327c1.807-.086 7.251 1.915 13.126 4.891 18.213 9.228 39.4 14.657 53.51 13.709l12.532-.842 21.046 49.907c11.577 27.45 21.65 52.184 22.388 54.965 1.647 6.19-6.57 14.265-18.626 18.302-13.98 4.683-36.71 1.379-56.022-8.143l-12.852-6.338-10.494-33.136c-14.822-46.795-26.874-91.426-25.153-93.147.1-.1.286-.154.545-.168"/><path fill="#4c4c58" d="M923.327 305.56c-1.686.06-3.678.276-6.122.611-24.164 3.31-58.792 31.284-90.91 73.44-91.938 120.673-172.747 276.97-204.736 395.996-7.025 18.632-15.145 44.483-15.111 63.347-1.481 18.38 7.118 9.093 11.668-12.57l4.741-17.814 1.985-7.92c0-5.191 22.937-67.07 36.119-97.441 45.954-105.881 126.534-243.318 154.727-263.903 5.52-4.029 19.005-11.86 29.97-17.4 22.863-11.549 49.515-32.464 69.477-54.523 22.502-24.864 29.761-46.576 19.13-57.21-3.566-3.565-5.878-4.79-10.938-4.612M464.47 223.892c-4.437-.123-8.175 3.945-13.4 13.672-8.187 15.244-16.03 46.838-21.074 84.92-3.303 24.928-3.771 47.092-2.658 126.028-1.424 44.486 3.517 88.67 5.432 132.974 3.146 29.411 13.147 84.78 16.639 110.595 9.96 73.65 53.84 200.097 61.363 195.433 8.106-5.026-1.276-18.402-2.831-24.301l-6.993-23.283c-9.742-50.658-19.624-70.374-25.077-105.767-5.297-34.378-14.95-86.377-17.575-109.217-3.912-25.61-5.599-51.397-7.594-77.233-6.982-90.337-4.494-139.279 8.93-175.647 21.557-58.399 20.695-54.575 20.903-92.43.202-37.087-2.385-49.5-11.313-54.278-1.716-.92-3.274-1.426-4.752-1.466"/><path fill="#e15469" fill-rule="evenodd" d="M791.24 924.885a5.13 5.13 0 0 0-2.738.073c-1.177.35-8.015-10.824-8.602-9.863-1.33 2.188 4.819 15.366 4.932 16.008.112.642.254 1.03.401 1.425 6.817 18.238 8.564 29.748 6.85 43.312-3.204 25.384-16.402 45.814-33.306 53.734-9.608 4.501-23.76 5.065-38.048 1.75-14.29-3.313-28.637-10.404-38.818-19.987-1.448-1.365-2.755-2.497-3.882-3.355-.563-.43-1.004-.771-1.809-1.189-.402-.208-.725-.563-2.31-.669-.792-.051-4.017-3.845-5.439-2.672-1.42 1.164-.154 6.89-.154 7.896 0 1.835.3 1.835.442 2.205s.279.671.435 1.001c.314.66.697 1.398 1.162 2.263a212 212 0 0 0 3.558 6.276c2.767 4.722 6.05 10.069 8.415 13.542 8.763 12.882 22.338 27.515 34.521 37.22 13.287 10.585 28.518 18.202 42.602 21.01 26.75 5.336 51.308-6.926 63.08-31.504 2.46-5.132 5.04-11.624 6.116-15.773 2.808-10.807 3.189-30.297 1.09-42.414-3.825-22.073-12.373-43.95-25.112-64.436-2.347-3.774-4.89-7.422-6.99-10.151-1.05-1.365-1.958-2.478-2.828-3.392-.436-.458-.788-.848-1.54-1.378-.375-.266-.782-.638-2.027-.932z"/><path fill="#fecfd7" fill-rule="evenodd" d="M694.471 880.79c-1.398-.053-2.853 0-4.338.417-1.486.416-2.839 1.05-4.895 2.036-5.813 2.786-8.903 4.9-13.485 9.234-9.3 8.793-15.494 20.63-18.605 35.072-.968 4.491-1.154 7.08-1.174 17.206-.024 12.081.349 16.001 2.486 26.311 1.014 4.897 1.795 8.2 3.805 11.073s4.847 4.513 8.597 6.381c4.021 2.003 8.053 3.36 12.363 4.15h.019c2.36.419 5.56.385 9.073.289 4.983-.14 7.708-.51 11.283-1.565 19.31-5.704 33.484-22.125 37.889-43.367 2.059-9.93 1.957-22.104-.341-31.33-4.359-17.504-16.95-30.09-34.539-34.551-2.724-.69-5.833-1.274-8.134-1.36z"/><path fill="#b22d4a" d="M705.682 878.352a56 56 0 0 0-11.21 1.475c-14.386 3.438-26.487 12.628-34.46 29.096-6.734 13.91-23.492 95.142 45.317 122.635 19.064 7.503 40.337 8.78 53.645 3.218 43.871-18.33 64.063-110.136-16.392-147.957-12.664-5.954-25.302-8.845-36.9-8.467m-12.296 6.006c.031.001 42.076 1.267 41.9 48.728-.182 49.298-45.465 68.858-72.94 48.446-7.67-7.67-9.89-41.735-4.593-60.805 5.82-20.965 21.713-36.856 35.633-36.37"/><path fill="#502552" d="M706.811 874.82a62 62 0 0 0-12.42 1.648c-16.1 3.847-29.98 14.58-38.612 32.414-15.327 31.658-6.354 75.566 14.64 113.176s54.26 69.34 90.17 75.476c25.89 4.423 47.699-6.283 60.394-25.912 12.694-19.63 16.605-47.872 8.647-78.99-13.69-53.536-47.816-92.147-83.269-108.812-13.295-6.25-26.824-9.426-39.55-8.999m.249 7.078c11.405-.372 23.835 2.472 36.291 8.327 33.21 15.612 66.232 52.576 79.426 104.162 7.565 29.58 3.63 55.82-7.735 73.394-11.364 17.571-29.825 26.783-53.262 22.78-32.57-5.567-64.93-35.662-85.184-71.95-20.256-36.287-28.152-78.342-14.45-106.648 7.84-16.196 19.742-25.234 33.889-28.614a55 55 0 0 1 11.025-1.451" overflow="visible"/><path fill="#e15469" fill-rule="evenodd" d="M513.493 1002.729c-1.549.892-.433 4.242-.61 5.972l-.41 4.002c-.57 5.54-3.148 16.251-5.506 22.665-2.705 7.354-7.317 16.54-12.08 24.503s-9.963 14.873-12.681 17.146c-4.475 3.744-11.364 7.405-16.66 8.9-19.067 5.378-39.535-1.107-50.486-15.79-4.115-5.518-8.41-14.668-10.158-21.723l-1.545-6.248c-1.16-6.978-6.977-4.823-7.002.703l-.23 8.655c-.132 4.983.122 13.614.573 19.598 2.412 32.091 11.813 56.507 28.347 71.522 6.775 6.15 11.644 9.053 19.051 11.28 7.168 2.155 16.91 1.548 24.043-1.356 25.21-10.263 44.246-45.063 50.918-88.464 2.547-16.568 3.296-37.237 1.67-49.535l-.79-5.958c-.23-1.72-2.442-8.179-3.99-7.287z"/><path fill="#fecfd7" fill-rule="evenodd" d="M458.446 937.903c-17.587 2.728-34.4 19.302-38.793 37.426-.988 4.08-1.027 10.86-.751 18.172s.932 14.646 2.113 19.148c3.88 14.779 11.163 25.515 21.449 28.65 7.863 2.395 16.946.248 25.02-4.183 8.074-4.429 15.276-11.279 19.013-19.5 4.148-9.12 5.126-17.135 4.172-32.72-.603-9.856-1.67-18.245-3.18-24.945s-3.312-11.697-6.173-15.068c-2.457-2.896-6.157-4.725-10.219-5.925s-8.515-1.697-12.65-1.055"/><path fill="#b22d4a" d="M460.735 936.156c-37.934.44-73.397 81.461-56.414 121.238 6.633 15.537 14.468 24.057 27.031 29.385 60.4 25.613 120.76-79.858 58.387-142.334-9.715-7.499-20.41-8.394-29.005-8.288zm-.446 4.486c2.297-.181 4.473-.134 6.48.271 13.055 2.682 15.776 6.688 19.34 28.486 5.53 33.845.594 52.275-16.98 63.425-33.063 20.976-50.161-10.748-47.151-52.269 1.43-19.708 21.655-38.595 38.311-39.912"/><path fill="#502552" d="M448.452 936.861a45.4 45.4 0 0 1 9.763-3.263c13.21-2.756 27.01 1.257 39.224 13.363 21.68 21.494 29.294 62.696 25.93 103.006s-17.759 80.183-42.44 99.003c-17.794 13.57-37.476 12.568-53.288.446-15.815-12.121-27.907-34.974-32.114-64.778-7.238-51.275 5.556-97.397 26.471-125.117 7.844-10.394 16.862-18.23 26.454-22.66m2.116 6.188c-8.593 3.98-16.903 11.115-24.25 20.854-19.594 25.969-32.103 70.255-25.128 119.663 3.999 28.329 15.456 49.45 29.612 60.3 14.159 10.854 30.867 11.83 46.975-.453 22.386-17.072 36.636-55.194 39.881-94.086s-4.564-78.094-23.948-97.31c-11.09-10.996-22.871-14.295-34.48-11.872-2.902.605-5.796 1.579-8.66 2.904" overflow="visible"/><path fill="#768ca0" fill-rule="evenodd" d="M655.555 1079.274c2.661 32.725-5.891 39.378-11.936 50.87a85 85 0 0 0 8.115-4.122c11.355-6.597 18.76-14.997 18.778-24.677.004-2.58-.92-4.975-2.21-7.578s-3.033-5.341-5.047-8.031c-4.027-5.378-7.699-6.462-7.699-6.462"/><path fill="#213b51" d="M619.698 1062.177c-25.041.343-45.156 7.594-60.657 21.863-23.367 21.51-29.772 44.298 8.254 76.939 6.945 5.96 7.728 5.673 13.748-5.037l5.328-9.487c17.943-1.67 35.515-4.279 52.522-8.33l9.806 7.884c8.715 7.003 10.224 7.464 13.548 4.142 2.056-2.057 4.456-9.79 5.333-17.187.875-7.397 3.086-16.313 4.912-19.813 6.568-12.585-.844-51.686-52.794-50.974m10.14 6.31c36.165 2.997 68.061 53.41-16.222 68.446-23.979 4.279-30.212 4.152-49.838-.998-19.246-5.05-21.674-8.128-17.786-22.563 6.404-23.784 33.616-42.388 65.375-44.696 7.156-.519 13.209-.625 18.47-.189m32.395 57.835c.2 0 .343.051.419.128.724.723.57 5.297-.342 10.165-.913 4.868-3.016 8.81-4.668 8.766-3.374-.094-15.484-9.539-13.964-10.89 3.026-2.689 15.258-8.003 18.335-8.165h.22zm-102.76 14.548c5.965-.184 19.018 2.517 20.405 4.76.756 1.224.16 4.496-1.325 7.269s-4.134 5.04-5.888 5.04c-4.03 0-18.004-14.395-15.96-16.441.392-.39 1.392-.585 2.768-.628"/><path fill="url(#b)" d="M465.114 1111.277c5.84 13.897 9.97 23.66 10.832 25.576 1.485 3.3 6.136 13.889 10.337 23.532 10.18 23.364 16.449 32.732 31.023 46.365 18.969 17.744 45.207 33.507 69.694 41.872 12.765 4.36 37.16 9.646 44.71 9.688 8.927.049 10.177 1.937 7.927 11.977-10.2 45.515-2.824 96.395 19.95 137.589 10.212 18.473 34.08 43.586 50.672 53.315 16.948 9.939 40.528 17.24 59.116 18.305 15.26.874 16.8.607 27.77-4.794 6.475-3.187 13.923-8.614 16.83-12.26 6.09-7.638 8.01-8.082 10.187-2.357 2.897 7.62 16.7 23.384 23.724 27.092 22.822 12.049 32.82-2.363 32.586-46.977-.14-26.851-2.866-47.654-10.41-79.417l-5.703-24.01 3.076-21.238c1.692-11.682 3.075-23.757 3.07-26.832-.008-6.418 4.49-13.8 8.409-13.8 2.198 0 2.667 4.618 2.673 26.318.015 53.663 12.05 96.12 38.709 136.552 23.536 35.696 50.417 52.877 62.313 39.826 7.1-7.786 8.563-16.807 7.337-45.174-.627-14.517-.54-26.359.193-26.316.732.043 7.146 5.52 14.257 12.169 23.59 22.063 56.653 41.871 83.143 49.815 15.533 4.658 46.295 4.674 59.992.026 46.204-15.67 78.94-49.229 94.952-97.338 6.795-20.417 12.169-51.18 12.169-69.675v-11.184l24.71-12.107c24.904-12.202 47.818-27.105 60.835-39.564-4.186-20.57-8.882-41.14-16.047-61.71-27.102 14.09-48.488 15.6-64.883 8.178-45.08-20.407-141.21-48.1-231.407-73.443h-14.152c73.504 20.216 165.268 48.497 224.782 69.837l30.936 11.095v11.728c0 18.6-5.48 30.625-21.064 46.22-14.84 14.85-33.331 24.96-51.766 28.301-15.763 2.858-21.952 2.287-49.068-4.52-64.04-16.08-150.613-57.264-205.924-97.96-11.978-8.813-13.18-10.332-16.317-20.657-3.892-12.81-12.23-29.41-21.692-44.044h-5.933c1.427 1.95 2.662 3.73 3.626 5.246 7.64 12.029 17.366 32.676 20.23 42.951 4.641 16.646 5.353 41.506 1.553 54.192-16.15 53.914-73.312 69.607-84.327 72.159-13.333 3.089-46.711 2.284-59.668-1.44-28.16-8.091-58.165-30.749-67.592-51.037-4.527-9.743-4.385-11.384 1.104-12.761 6.76-1.697 5.69-5.426-3.912-13.633l-8.53-7.291 4.978-8.498c2.738-4.673 4.456-9.34 3.817-10.375-.639-1.034-4.858-4.048-9.377-6.696-4.518-2.648-8.198-5.774-8.176-6.947s1.66-5.696 3.637-10.051l3.592-7.919-4.677-1.777c-2.573-.978-5.454-1.778-6.404-1.778s-1.729-5.452-1.729-12.117v-12.12l8.311 1.247c5.441.816 8.311.564 8.311-.728 0-1.085-3.116-2.455-6.926-3.044-9.337-1.443-19.558-4.103-29.789-7.583h-12.331c6.192 2.34 13.313 4.858 17.65 6.22l10.159 3.192.544 12.386.543 12.388-7.39 3.768c-37.325 19.042-6.631 73.96 18.585 73.96 2.895 0 5.262 1.009 5.262 2.241 0 4.529-19.892 20.868-30.695 25.214-10.564 4.25-27.222 6.266-38.563 4.67-3.047-.43-13.435-2.5-23.085-4.6-20.594-4.48-59.507-22.512-68.942-31.947-8.35-8.35-19.012-29.557-21.395-42.551-3.665-19.994-5.197-17.995 25.42-33.171 23.592-11.694 53.22-24.5 73.138-31.77H603.72c-18.81 7.094-31.86 13.01-58.921 26.37-17.115 8.449-32.904 15.356-35.09 15.356-6.326-.014-14.546-6.03-26.112-19.122-5.487-6.212-8.586-10.227-14.466-22.604zm366.355 7.97c-7.469.137-14.511 2.784-19.898 8.62-2.44 2.642-1.906 3.848 3.39 9.311l5.992 6.18c-5.618 8.605-15.006 15.61-18.792 25.349 0 1.118 3.74 3.85 8.311 6.071 9.205 4.472 9.602 5.468 5.406 13.584-3.291 6.364-3.471 5.905 3.88 9.899 13.687 7.437 44.44-1.602 52.157-15.332 18.353-32.654-13.77-64.174-40.446-63.682m.647 4.22c14.235.035 26.734 8.281 33.855 22.333 20.95 41.341-28.584 56.65-43.89 47.73-2.624-1.53-2.81-2.63-1.087-6.41 1.143-2.509 3.607-4.561 5.475-4.561 6.678 0 3.213-3.88-7.686-8.606-6.094-2.643-11.08-5.655-11.08-6.693 0-2.722 18.469-20.664 18.469-23.029 0-.886-2.493-4-5.54-6.92s-5.541-6.027-5.541-6.904c0-2.152 11.777-6.954 17.025-6.94m-143.425 27.614c2.612-.062 4.505.222 4.505.96 0 .484-1.66 3.6-3.688 6.926-5.363 8.797-4.65 10.98 5.57 17.047 5.06 3.004 9.2 6.42 9.2 7.592s-2.08 5.193-4.62 8.936c-2.539 3.742-4.614 7.367-4.614 8.056 0 .69 3.53 4.307 7.848 8.04 4.317 3.735 7.413 7.241 6.88 7.792-2.417 2.5-17.597 2.044-23.129.517-26.91-7.428-35.556-50.014-11.565-63.196 2.912-1.506 9.26-2.567 13.613-2.67m242.37 22.239c.297 0 4.87 3.175 10.158 7.05 29.8 21.83 90.044 54.64 134.716 73.365l21.673 9.085 4.624 11.12c12.666 30.463 10.675 54.457-5.422 65.351-12.4 8.392-35.198 6.653-56.4-4.302-35.328-18.254-72.41-55.593-102.897-103.611-9.294-14.638-9.427-15.05-7.613-23.556 1.015-4.762 1.57-14.473 1.234-21.581-.338-7.108-.37-12.92-.073-12.921m-4.435 50.353c1.757-.018 5.222 4.917 15.386 20.31 22.745 34.444 46.188 60.083 70.879 77.514l10.343 7.3 4.886 19.817c2.687 10.899 6.464 24.744 8.392 30.768s5.71 17.895 8.408 26.38c2.698 8.487 4.657 16.095 4.353 16.907-.805 2.155-21.357-8.61-31.025-16.252-10.73-8.48-14.655-12.868-27.898-31.168-8.654-11.958-11.893-18.466-15.624-31.397-9.54-33.064-27.725-68.077-46.836-90.179l-11.05-12.78 3.285-5.62c1.806-3.09 4.07-7.545 5.03-9.898.424-1.042.836-1.696 1.471-1.702m-223.358 4.867c.795.024 1.335.92 2.143 2.43 1.715 3.204 1.442 5.603-1.386 12.198-8.563 19.978-11.433 35.419-11.736 63.133-.16 14.73-1.263 32.182-2.45 38.785-1.189 6.602-2.373 15.731-2.633 20.288l-.473 8.284-6.888-8.425c-13.01-15.918-21.146-40.896-25.59-78.557-2.75-23.294-1.83-27.682 6.157-29.37 10.751-2.272 27.496-12.485 35.273-21.513 4.479-5.2 6.343-7.29 7.583-7.253m5.879 11.138 9.94 11.428c10.313 11.857 30.508 26.34 45.088 32.337 8.055 3.313 8.423 3.793 8.43 11.006.02 21.506-9.477 43.14-23.08 52.58-7.538 5.23-13.32 7.441-16.622 6.354-1.016-.334-4.98-1.133-8.812-1.774-8.959-1.5-19.418-10.701-24.04-21.148-7.734-17.486-5.227-53.608 5.69-81.942zm205.354 6.598 6.617 6.358c13.368 12.841 34.7 49.84 43.187 74.905 17.933 52.963 27.48 120.397 19.982 141.138-4.07 11.257-11.86 12.667-26.86 4.856-19.52-10.164-54.97-63.555-60.988-91.854-.931-4.381-2.583-11.293-3.67-15.356-4.314-16.116-7.623-47.357-7.376-69.653l.263-23.483 8.581-6.915c4.72-3.804 11.21-9.86 14.423-13.457zm189.711 19.885c1.687.014 9.27 2.034 17.98 4.824 24.077 7.712 54.1 13.633 64.337 12.686l8.522-.79 2.278 9.4c1.252 5.172 2.705 16.882 3.23 26.024.679 11.804.224 18.314-1.566 22.463l-2.519 5.844-10.158-9.31c-11.085-10.158-36.293-29.336-61.33-46.66-10.65-7.37-16.952-13.13-18.948-17.314-1.644-3.449-2.615-6.645-2.156-7.105.043-.043.156-.064.33-.062m-236.818 16.379c.187.014.312.039.368.094.521.52-.372 10.412-1.986 21.981s-3.2 21.302-3.525 21.627-4.85-7.504-10.058-17.395c-5.246-9.964-8.678-18.474-7.695-19.082 3.535-2.184 20.099-7.332 22.896-7.226zm246.122 5.291h.01c1.957 0 35.278 23.873 53.077 38.028 29.554 23.501 34.15 29.706 32.695 44.16-1.476 14.676-22.96 39.897-41.94 49.241-7.07 3.48-15.855 6.208-21.515 6.677l-9.57.793-12.347-29.278c-18.797-44.573-21.097-51.064-18.424-51.955 5.58-1.86 13.232-10.417 16.152-18.061 2.503-6.554 2.94-11.616 2.07-23.957-.604-8.538-.695-15.539-.21-15.648zm-333.704 1.426c.33 0 .7.044 1.112.114 2.032.339 4.345 1.24 5.143 2.004s1.215 10.376.925 21.36l-.527 19.968-5.192-10.892c-4.256-8.93-5.088-12.89-4.618-21.976.448-8.668.851-10.599 3.157-10.578m13.576 2.83 8.54 1.626c4.7.893 14.778 1.11 22.396.482 15.861-1.31 13.639-3.117 25.766 20.95 13.234 26.261 21.538 61.367 26.07 110.221 2.715 29.276.161 50.378-7.105 58.697-6.486 7.426-20.19 2.483-32.619-11.766-11.32-12.978-28.281-51.908-34.502-79.193-6.465-28.356-11.307-74.286-9.588-90.947zm-19.276 25.33h.032c3.605.102 15.011 32.632 19.66 56.076 2.797 14.1 7.006 31.504 9.356 38.676 3.824 11.677 3.997 13.57 1.663 18.083-1.433 2.772-4.904 6.664-7.713 8.65-6.647 4.698-13.905 5.824-26.031 4.039-17.518-2.58-18.961-5.42-26.3-51.685-2.013-12.697-4.107-25.312-4.653-28.033-.88-4.388.171-5.69 9.326-11.547 10.682-6.833 20.113-19.09 22.279-28.953.635-2.892 1.698-5.25 2.38-5.305m-78.852 16.314 7.231 8.214c8.09 9.191 17.111 14.222 25.504 14.222 3.088 0 6.13.833 6.758 1.85.944 1.527 7.18 37.935 11.466 66.946.563 3.81.29 6.897-.606 6.864-.896-.035-6.584-1.767-12.642-3.85-17.174-5.905-29.91-15.767-36.688-28.41-3.415-6.367-3.964-10.445-3.985-29.548-.014-12.19.647-25.342 1.469-29.226zm334.87.982c1.338-.064 5.367 1.417 9.715 3.62 13.48 6.83 29.161 10.848 39.604 10.146l9.275-.623 15.577 36.937c8.568 20.316 16.024 38.623 16.57 40.681 1.219 4.582-4.863 10.558-13.786 13.546-10.347 3.466-27.169 1.02-41.463-6.027l-9.512-4.691-7.767-24.525c-10.97-34.634-19.89-67.666-18.616-68.94.074-.074.212-.114.403-.124" transform="translate(-355.577 -287.63)scale(1.35113)"/><g transform="matrix(1.69597 0 0 1.52113 11.86 -134.228)"><path fill="#f3f3f3" d="M262.803 643.824c-1.904.046-3.779 1.496-4.964 4.918-.411 1.689-.487 1.696-2.5.22-3.843-2.822-9.308-1.977-8.754 4.918l.191 2.38-1.913-.196c-3.967-.406-6.517 1.114-6.852 4.092-.198 1.747.324 3.149 2.015 5.408.843 1.125.862 1.232.237 1.428-2.213.697-4.345 2.342-5.221 4.026-1.215 2.336.577 5.451 3.982 6.916 1.705.733 1.826.866 1.406 1.54-1.328 1.618-2.385 3.356-2.52 5.599 0 2.806 3.15 4.771 6.939 4.326l2.087-.246-.26 1.53c-.4 2.373.088 4.64 1.274 5.91 1.901 2.036 4.327 1.989 7.5-.146l1.897-1.278.36.944c1.3 3.965 4.731 6.62 8.105 4.41 1.067-.7 3.075-3.776 3.075-4.71 0-.881-.015-.885 2.22.619 3.194 2.15 5.615 2.202 7.521.161 1.186-1.27 1.674-3.537 1.274-5.909l-.258-1.53 2.037.238c3.368.396 6.251-1.068 6.857-3.48.36-1.435-.48-4.179-1.775-5.8l-1.12-1.404 1.608-.69c3.268-1.4 5.184-3.978 4.622-6.22-.368-1.466-2.313-3.378-4.308-4.237-2.746-1.33-.825-1.911.192-3.968 2.244-4.587-.3-7.942-5.711-7.533l-2.332.178.23-1.962c.723-6.146-4.111-8.945-9.002-5.212l-1.697 1.294-.365-.962c-1.135-3.37-3.63-5.63-6.077-5.572m.487 16.077c2.801.012 3.914.183 5.306.813 2.486 1.126 5.016 3.599 6.378 6.233 1.047 2.025 1.166 2.595 1.178 5.62.012 3.06-.096 3.593-1.2 5.836-1.371 2.785-3.304 4.674-6.254 6.117-3.494 1.71-7.979 1.58-11.654-.335-7.748-4.038-9.115-14.933-2.634-20.995 2.804-2.622 4.652-3.307 8.88-3.289"/><circle cx="264.424" cy="672.983" r="14.163" fill="#ffdf00" fill-rule="evenodd" style="font-variation-settings:normal;-inkscape-stroke:none"/></g><g fill-rule="evenodd" transform="translate(-125.875 -549.897)scale(2.08448)"><path fill="#f3f3f3" d="M429.41 850.127c-1.631.004-3.304.893-4.576 3.008-.559 1.226-.607 1.196-2.373-.135-3.386-2.553-8.75-2.272-8.467 2.99q.05.908.096 1.817-.87-.126-1.74-.24c-3.651-.48-5.963.721-6.205 2.988-.146 1.348.36 2.392 1.835 4.136.733.867.737.95.211 1.094-1.898.52-3.633 1.805-4.302 3.13-.924 1.83.726 4.146 3.384 5.235 1.348.553 1.431.664 1.108 1.178-1.028 1.241-1.788 2.577-1.844 4.305.055 2.159 2.376 3.587 5.04 3.332a91 91 0 0 1 1.495-.131q-.12.578-.236 1.156c-.362 1.793-.084 3.546.652 4.545 1.196 1.622 2.731 1.667 5.032.283q.69-.414 1.392-.82l.15.742c.487 3.13 2.357 5.348 4.784 4.127.754-.38 2.586-2.444 2.73-3.111.138-.635.141-.679 1.37.777 1.736 2.059 3.226 2.51 4.917 1.363 1.04-.705 1.885-2.263 2.131-4.064l.158-1.164q.68.288 1.354.586c2.23.983 4.554.616 5.613-.96.633-.94.77-3.094.235-4.581q-.23-.64-.47-1.28.68-.052 1.364-.097c2.756-.182 4.942-1.446 5.14-3.192.131-1.15-.837-3.039-2.206-4.199-1.835-1.692-.192-1.583 1.18-2.781 2.951-2.603 1.951-5.798-2.932-6.93a142 142 0 0 0-2.05-.459l.63-1.363c1.928-4.17-1.705-7.672-7.043-5.855q-.89.302-1.77.615l-.18-.78c-.505-2.712-2.528-4.855-4.912-5.212v-.002a4.6 4.6 0 0 0-.695-.051m-3.34 11.816c.722.032 1.516.13 2.424.29 2.405.42 3.401.773 4.469 1.47 1.978 1.29 3.632 3.586 4.238 5.81.46 1.686.429 2.152-.162 4.354-.605 2.257-.79 2.59-2.068 4.037-1.578 1.789-3.334 2.82-5.717 3.448-2.799.736-5.99.105-8.508-1.66-5.131-3.598-6.467-12.037-.285-16.073 1.94-1.266 3.445-1.77 5.61-1.676" style="font-variation-settings:normal"/><circle cx="426.922" cy="870.897" r="10.922" fill="#ffdf00" style="font-variation-settings:normal;-inkscape-stroke:none"/></g><g fill-rule="evenodd" transform="translate(-182.725 -648.551)scale(2.19335)"><path fill="#f3f3f3" d="M469.297 866.033c-1.503.045-2.915.957-3.746 3.094l-.662 1.693q-.74-.428-1.485-.847c-3.118-1.754-5.705-1.51-6.87.447-.695 1.163-.677 2.295-.061 4.424.306 1.058.278 1.134-.262 1.068-1.944-.238-4.063.268-5.225 1.201-1.604 1.291-1.092 4.006.897 6.026 1.006 1.021 1.041 1.155.53 1.496-1.463.725-2.725 1.633-3.499 3.17-.85 1.964.652 4.187 3.295 5.027q.728.231 1.455.473-.35.481-.697.965c-1.076 1.495-1.536 3.205-1.248 4.42.466 1.967 1.914 2.641 4.658 2.267q.822-.112 1.652-.213-.075.373-.152.744c-.785 3.083.129 5.902 2.947 5.694.88-.065 3.43-1.296 3.83-1.87.38-.544.398-.579 1.012 1.24.87 2.578 2.14 3.554 4.197 3.094 1.267-.283 2.666-1.44 3.586-3.04q.298-.517.594-1.036.538.514 1.068 1.034c1.757 1.72 4.119 2.194 5.719 1.085.956-.661 1.897-2.635 1.95-4.216q.022-.68.036-1.364.666.188 1.33.383c2.704.796 5.232.353 6.075-1.215.555-1.033.35-3.139-.502-4.697-1.09-2.217.422-1.547 2.168-2.197 3.774-1.425 4.03-4.76-.104-7.49q-.867-.573-1.744-1.133l1.115-1.059c3.427-3.24 1.366-7.725-4.281-7.88a145 145 0 0 0-1.883-.042q.071-.393.14-.787c.604-2.693-.416-5.377-2.464-6.531-1.583-.892-3.723-.825-6.033.893-1.007.932-1.045.89-2.125-.958-1.196-2.046-3.279-3.421-5.211-3.363m1.176 12.143c1.95-.078 3.547.466 5.89 1.875 2.07 1.244 2.853 1.917 3.576 2.943 1.335 1.893 1.99 4.615 1.696 6.902-.224 1.736-.43 2.159-1.838 4.008-1.442 1.893-1.749 2.142-3.516 3.037-2.183 1.107-4.25 1.438-6.754 1.149-2.945-.34-5.719-2.125-7.382-4.713-3.407-5.3-1.094-13.458 6.218-14.926.77-.154 1.46-.25 2.11-.275" style="font-variation-settings:normal"/><circle cx="471.208" cy="888.764" r="11.329" fill="#ffdf00" style="font-variation-settings:normal;-inkscape-stroke:none"/></g><g fill-rule="evenodd" transform="translate(-190.755 -655.353)scale(2.19304)"><path fill="#f3f3f3" d="M501.795 896.672a3.36 3.36 0 0 0-2.305.74c-1.09.854-1.498 1.923-1.71 4.127-.106 1.096-.164 1.16-.65.914-1.746-.883-3.937-1.134-5.386-.656-2.002.661-2.54 3.383-1.4 5.96.576 1.304.561 1.44-.051 1.585-1.657.181-3.193.6-4.5 1.777-1.538 1.553-.923 4.161 1.289 5.85q.609.465 1.213.937l-1.018.67c-1.572 1.04-2.634 2.487-2.8 3.725-.27 2.004.873 3.123 3.623 3.691q.824.17 1.65.354l-.416.646c-1.863 2.624-2.001 5.553.746 6.287.858.23 3.717-.076 4.303-.476.555-.38.586-.408.508 1.484-.11 2.679.732 3.995 2.834 4.244 1.294.154 3.03-.456 4.478-1.635q.468-.38.936-.763.317.654.627 1.31c1.02 2.172 3.056 3.389 4.96 2.899 1.139-.293 2.743-1.801 3.374-3.248q.27-.623.535-1.25.556.395 1.107.8c2.24 1.644 4.766 2.09 6.133.924.9-.769 1.485-2.79 1.258-4.527-.207-2.43.964-1.297 2.84-1.309 4.054-.04 5.534-3.052 2.648-7.015a138 138 0 0 0-1.223-1.65l1.434-.61c4.395-1.858 4.12-6.761-1.139-8.82q-.877-.346-1.756-.676l.422-.69c1.553-2.317 1.578-5.176.078-6.949h.002c-1.159-1.37-3.195-2.03-6.002-1.197-1.29.535-1.31.484-1.644-1.611-.655-4.121-4.72-7.207-8.328-3.266l-1.252 1.365q-.538-.65-1.084-1.295c-1.426-1.684-2.947-2.57-4.334-2.646m4.504 12.152q.671.011 1.369.112c3.132.455 4.7 1.376 6.955 4.183 1.494 1.86 1.985 2.752 2.291 3.955.565 2.22.187 4.983-.924 7.018-.843 1.543-1.192 1.868-3.191 3.119-2.047 1.28-2.423 1.408-4.412 1.652-2.457.303-4.525-.073-6.783-1.174-2.656-1.294-4.64-3.879-5.276-6.859-1.223-5.727 3.27-12.12 9.97-12.006" style="font-variation-settings:normal"/><circle cx="506.437" cy="918.699" r="11.6" fill="#ffdf00" style="font-variation-settings:normal;-inkscape-stroke:none"/></g><g fill-rule="evenodd" transform="translate(-171.125 -614.34)scale(2.14159)"><path fill="#f3f3f3" d="M531.223 936.988a3.6 3.6 0 0 0-1.246.168c-1.337.418-2.112 1.27-3.131 3.24-.507.98-.584 1.018-.946.624-1.304-1.422-3.26-2.403-4.793-2.454-2.117-.069-3.621 2.274-3.52 5.036.053 1.397-.013 1.515-.638 1.441-1.612-.396-3.202-.528-4.86.115-2.015.913-2.388 3.543-.995 5.795q.389.63.77 1.268l-1.198.265c-1.853.417-3.392 1.383-4.02 2.45-1.018 1.73-.396 3.118 1.917 4.564q.693.433 1.382.88-.318.223-.636.442c-2.755 1.734-4.046 4.308-1.836 5.907.688.498 3.444 1.225 4.142 1.072.662-.145.71-.162-.146 1.51-1.21 2.36-1.006 3.826.816 4.812 1.12.605 2.977.696 4.809.168l1.185-.342q.017.708.022 1.414c.014 2.337 1.352 4.202 3.326 4.487 1.181.17 3.319-.58 4.521-1.659q.518-.463 1.03-.935.345.574.685 1.156c1.368 2.345 3.533 3.776 5.309 3.24 1.172-.353 2.573-1.986 3.088-3.683.822-2.325 1.433-.826 3.193-.098 3.807 1.555 6.455-.65 5.348-5.488q-.232-1.008-.48-2.01l1.585-.014c4.854-.032 6.557-4.736 2.414-8.668q-.688-.652-1.382-1.29l.662-.485c2.353-1.58 3.475-4.245 2.744-6.463v-.002c-.565-1.713-2.223-3.079-5.164-3.326-1.411.028-1.407-.028-.928-2.102.946-4.094-1.724-8.41-6.564-6.021l-1.68.826q-.26-.794-.531-1.586c-.918-2.689-2.49-4.17-4.254-4.254m-2.885 12.418c1.632-.01 3.322.388 4.957 1.303 2.743 1.535 3.867 2.964 4.883 6.385.674 2.267.78 3.281.595 4.506-.343 2.268-1.789 4.679-3.642 6.14-1.403 1.106-1.863 1.276-4.225 1.676-2.422.41-2.818.385-4.763-.127-2.4-.632-4.155-1.728-5.797-3.539-1.928-2.125-2.73-5.171-2.16-8.107.872-4.497 5.255-8.206 10.152-8.237" style="font-variation-settings:normal"/><circle cx="527.654" cy="959.387" r="12.006" fill="#ffdf00" style="font-variation-settings:normal;-inkscape-stroke:none"/></g><g fill-rule="evenodd" transform="translate(-170.544 -621.018)scale(2.13846)"><path fill="#f3f3f3" d="M532.764 982.8c-1.671-.024-3.426 1.401-4.315 3.475-.554 1.295-.668 1.376-1.217 1.059-1.327-1.002-2.748-1.748-4.568-1.818-2.27.033-3.728 2.257-3.408 4.828q.089.72.166 1.445l-1.223-.238c-1.893-.366-3.732-.115-4.77.586-1.684 1.138-1.702 2.621-.202 4.855q.45.67.888 1.352l-.777.138c-3.285.44-5.587 2.226-4.258 4.582.414.734 2.621 2.524 3.326 2.67.672.14.718.144-.793 1.317-2.136 1.66-2.583 3.097-1.343 4.746.762 1.014 2.418 1.848 4.322 2.105l1.232.166q-.29.655-.592 1.305c-.995 2.15-.564 4.41 1.118 5.453 1.005.624 3.28.781 4.84.278q.67-.217 1.341-.442.07.66.131 1.324c.246 2.678 1.624 4.816 3.473 5.028 1.218.14 3.196-.782 4.394-2.1 1.751-1.763 1.668-.168 2.963 1.178 2.814 2.898 6.176 1.963 7.27-2.772q.227-.99.44-1.984l1.456.625c4.455 1.92 8.08-1.572 6.04-6.776q-.34-.866-.69-1.724l.822-.164c2.858-.462 5.08-2.403 5.404-4.711.251-1.781-.654-3.705-3.242-5.137-1.308-.553-1.277-.6.09-2.297 2.622-3.251 2.203-8.443-3.346-8.218l-1.916.074q.115-.837.217-1.678c.427-3.521-.89-5.763-3.285-6.018-1.424-.152-2.515.326-4.322 1.733-.898.699-.986.702-1.149.193-.588-1.836-1.978-3.52-3.387-4.177a2.8 2.8 0 0 0-1.13-.26m-1.674 12.27c3.226-.166 6.54 1.034 8.734 4.041 1.837 2.518 2.228 4.28 1.635 7.791-.393 2.326-.746 3.285-1.459 4.313-1.321 1.904-3.711 3.486-6.049 4.05-1.77.428-2.264.393-4.601-.202-2.395-.611-2.75-.796-4.303-2.05-1.919-1.547-3.042-3.256-3.75-5.57-.831-2.715-.227-5.795 1.584-8.213 1.844-2.46 4.983-3.994 8.209-4.16" style="font-variation-settings:normal"/><circle cx="530.771" cy="1004.946" r="12.006" fill="#ffdf00" style="font-variation-settings:normal;-inkscape-stroke:none"/></g><g fill-rule="evenodd" transform="translate(-176.48 -647.211)scale(2.15737)"><path fill="#f3f3f3" d="M513.678 1026.191c-1.719-.026-3.376 1.309-4.057 3.387q-.231.706-.473 1.408l-1.03-.687c-1.599-1.062-3.413-1.528-4.688-1.262-2.067.43-2.752 1.83-2.309 4.5q.134.8.254 1.607l-.79-.156c-3.266-.798-6.224.057-5.956 2.8.083.855 1.427 3.35 2.039 3.747.58.376.619.393-1.291.969-2.705.817-3.715 2.042-3.195 4.05.32 1.238 1.566 2.614 3.273 3.53l1.104.592q-.534.518-1.075 1.03c-1.787 1.69-2.247 3.988-1.048 5.563.715.942 2.818 1.884 4.492 1.956q.72.03 1.443.053-.188.647-.383 1.294c-.794 2.632-.281 5.107 1.393 5.952 1.103.556 3.329.383 4.963-.43 2.328-1.036 1.646.433 2.367 2.149 1.58 3.713 5.12 4.007 7.937 0q.59-.842 1.166-1.69.573.552 1.143 1.106c3.503 3.398 8.222 1.437 8.273-4.088q.01-.924.006-1.844l.836.15c2.87.625 5.696-.34 6.877-2.328.914-1.536.798-3.631-1.072-5.91-1.01-.995-.965-1.028.97-2.06 3.813-2.032 5.315-6.827.1-8.739q-.904-.33-1.808-.664.438-.716.867-1.437c1.792-3.018 1.483-5.54-.613-6.698-1.245-.688-2.443-.683-4.682-.11-1.113.287-1.196.258-1.137-.267.213-1.888-.362-3.954-1.373-5.093-1.396-1.573-4.257-1.108-6.351.802-1.06.967-1.199 1-1.569.498-.794-1.428-1.777-2.664-3.414-3.433a3.3 3.3 0 0 0-1.19-.242zm1.35 11.608c4.473.115 8.935 2.758 10.103 7.668.716 3.01.394 4.76-1.533 7.787-1.278 2.006-1.976 2.761-3.05 3.455-1.979 1.28-4.849 1.885-7.277 1.568-1.84-.24-2.292-.446-4.275-1.845-2.029-1.432-2.298-1.734-3.277-3.47-1.21-2.142-1.597-4.16-1.336-6.597.307-2.864 2.142-5.544 4.846-7.133 1.73-1.016 3.765-1.485 5.798-1.433" style="font-variation-settings:normal"/><circle cx="515.039" cy="1047.891" r="10.922" fill="#ffdf00" style="font-variation-settings:normal;-inkscape-stroke:none"/></g><g fill-rule="evenodd" transform="translate(-179.632 -680.669)scale(2.1814)"><path fill="#f3f3f3" d="M478.31 1060.6c-1.65.054-2.604 1.189-3.091 3.53q-.167.804-.348 1.608-.344-.206-.687-.414c-2.798-1.852-5.893-2.024-6.627.649-.23.835.136 3.63.568 4.207.41.548.439.577-1.56.476-2.83-.142-4.206.664-4.44 2.715-.144 1.263.526 2.968 1.791 4.4q.408.465.818.926-.685.303-1.375.596c-2.279.97-3.536 2.944-2.992 4.816.325 1.12 1.942 2.714 3.48 3.352q.664.274 1.33.541-.412.54-.831 1.074c-1.706 2.174-2.144 4.644-.89 6.002.825.895 2.974 1.5 4.81 1.303 2.569-.168 1.386.964 1.425 2.807.104 3.985 3.318 5.484 7.473 2.705q.87-.584 1.729-1.178l.668 1.42c2.04 4.352 7.238 4.153 9.335-.99q.35-.86.686-1.72l.738.427c2.485 1.561 5.52 1.63 7.375.18h.002c1.434-1.121 2.098-3.115 1.164-5.885-.59-1.276-.537-1.294 1.68-1.592 4.361-.585 7.56-4.537 3.315-8.133l-1.47-1.246q.68-.519 1.354-1.045c2.816-2.2 3.46-4.666 1.9-6.483-.924-1.078-2.063-1.494-4.402-1.732-1.162-.118-1.23-.172-.978-.645.904-1.698 1.13-3.84.6-5.263-.736-1.967-3.625-2.528-6.333-1.447-1.368.546-1.514.53-1.677-.07-.22-1.622-.69-3.129-1.955-4.42-1.667-1.522-4.413-.955-6.16 1.183q-.484.59-.973 1.174-.36-.503-.723-1.004c-1.122-1.548-2.67-2.603-3.978-2.781a4.5 4.5 0 0 0-.75-.043zm4.932 11.484c5.707.29 11.226 5.05 10.334 11.422-.429 3.066-1.379 4.594-4.316 6.767-1.946 1.441-2.885 1.909-4.155 2.192-2.342.523-5.273.114-7.445-1.006-1.646-.849-1.995-1.195-3.35-3.174-1.385-2.024-1.527-2.397-1.816-4.35-.357-2.41.01-4.431 1.139-6.626 1.327-2.581 4.03-4.486 7.17-5.069a10.5 10.5 0 0 1 2.44-.156" style="font-variation-settings:normal"/><circle cx="483.221" cy="1082.204" r="11.193" fill="#ffdf00" style="font-variation-settings:normal;-inkscape-stroke:none"/></g><g fill-rule="evenodd" transform="translate(-103.437 -517.796)scale(2.02973)"><path fill="#f3f3f3" d="M443.313 1081.39c-1.128-.01-2.137.754-3.167 2.296q-.448.673-.912 1.341l-.472-.63c-1.86-2.719-4.59-4.016-6.248-1.877-.517.666-1.251 3.351-1.082 4.037.16.65.177.697-1.594-.164-2.501-1.217-4.042-1.037-5.06.732-.626 1.087-.703 2.904-.128 4.705l.373 1.164c-.497 0-.994.01-1.49 0-2.461-.019-4.413 1.266-4.693 3.196-.168 1.154.645 3.26 1.795 4.455q.494.514.998 1.023-.603.33-1.213.654c-2.458 1.307-3.946 3.413-3.363 5.164.384 1.156 2.122 2.557 3.918 3.088 2.462.843.887 1.421.136 3.14-1.603 3.72.754 6.36 5.854 5.345a132 132 0 0 0 2.117-.442q.018.78.031 1.56c.089 4.783 5.084 6.536 9.196 2.514q.682-.668 1.35-1.341l.52.66c1.702 2.344 4.538 3.492 6.878 2.806 1.807-.53 3.233-2.143 3.457-5.039-.049-1.39.008-1.386 2.21-.883 4.351.997 8.888-1.568 6.29-6.373l-.899-1.666q.837-.243 1.672-.498c3.49-1.061 5.028-3.128 4.25-5.35-.461-1.32-1.375-2.096-3.475-3.126-1.043-.512-1.084-.588-.671-.938 1.485-1.26 2.495-3.166 2.527-4.67.043-2.077-2.453-3.586-5.371-3.525-1.476.031-1.604-.036-1.533-.648.396-1.576.514-3.131-.188-4.764-.99-1.988-3.773-2.389-6.133-1.057q-.66.373-1.328.737-.146-.59-.295-1.178c-.463-1.82-1.501-3.338-2.634-3.967-.575-.319-1.111-.48-1.624-.482zm-3.422 11.544c.771-.014 1.553.05 2.33.2 6.346 1.227 11.303 8.563 7.52 14.936-1.589 2.675-3.085 3.758-6.69 4.705-2.39.63-3.463.72-4.76.52-2.402-.372-4.966-1.83-6.531-3.674-1.184-1.395-1.368-1.85-1.817-4.176-.46-2.384-.438-2.774.08-4.676.64-2.344 1.779-4.048 3.67-5.632 1.665-1.395 3.883-2.16 6.198-2.203" style="font-variation-settings:normal"/><circle cx="440.54" cy="1103.273" r="11.735" fill="#ffdf00" style="font-variation-settings:normal;-inkscape-stroke:none"/></g><g fill-rule="evenodd" transform="translate(-185.964 -759.772)scale(2.24847)"><path fill="#f3f3f3" d="M395.627 1083.234c-.417.01-.858.12-1.32.358-.767.394-2.631 2.526-2.78 3.213-.141.654-.145.699-1.388-.793-1.759-2.11-3.271-2.568-4.993-1.381-1.058.73-1.922 2.337-2.18 4.193l-.165 1.201q-.69-.292-1.373-.595c-2.264-1.003-4.63-.613-5.715 1.015-.649.974-.802 3.195-.264 4.727q.232.66.473 1.318-.692.058-1.389.108c-2.809.202-5.045 1.519-5.258 3.324-.14 1.19.838 3.14 2.229 4.332 1.862 1.741.187 1.638-1.219 2.887-3.029 2.714-2.029 6.023 2.953 7.168q1.045.239 2.092.463l-.648 1.42c-1.993 4.344 1.703 7.96 7.168 6.037q.909-.32 1.808-.65l.18.81c.506 2.817 2.567 5.032 5.002 5.388 1.88.276 3.9-.587 5.39-3.111.574-1.278.622-1.247 2.422.125 3.451 2.632 8.927 2.304 8.641-3.162l-.096-1.887q.885.125 1.772.239c3.72.474 6.074-.788 6.32-3.14.147-1.397-.37-2.475-1.871-4.273-.746-.892-.75-.978-.215-1.13 1.93-.55 3.696-1.891 4.375-3.264.937-1.897-.742-4.28-3.443-5.39-1.37-.564-1.456-.677-1.127-1.21 1.043-1.286 1.815-2.669 1.87-4.451-.055-2.225-2.41-3.682-5.112-3.406q-.76.078-1.522.142.123-.598.242-1.195c.368-1.847.087-3.65-.66-4.674-1.212-1.662-2.77-1.7-5.105-.265q-.701.43-1.416.85l-.15-.763c-.398-2.613-1.723-4.604-3.528-4.58zm-3.635 11.916c2.234-.063 4.538.633 6.455 1.989 5.212 3.685 6.563 12.4.264 16.617-2.638 1.766-4.491 2.122-8.193 1.486-2.452-.42-3.464-.782-4.551-1.498-2.013-1.325-3.692-3.693-4.301-5.994-.461-1.742-.429-2.225.182-4.506.625-2.337.816-2.68 2.123-4.183 1.612-1.856 3.402-2.93 5.828-3.59a9.4 9.4 0 0 1 2.193-.32" style="font-variation-settings:normal"/><circle cx="391.898" cy="1105.847" r="11.735" fill="#ffdf00" style="font-variation-settings:normal;-inkscape-stroke:none"/></g><g fill-rule="evenodd" transform="translate(-193.784 -818.309)scale(2.30413)"><path fill="#f3f3f3" d="M349.758 1066.441a4 4 0 0 0-1.096.112c-1.291.295-2.723 1.488-3.674 3.134l-.615 1.067q-.542-.526-1.078-1.059c-1.772-1.758-4.17-2.235-5.81-1.092-.98.684-1.96 2.715-2.03 4.34q-.03.7-.053 1.403-.675-.19-1.351-.389c-2.748-.807-5.331-.343-6.21 1.273-.578 1.066-.394 3.234.458 4.834 1.086 2.28-.448 1.596-2.238 2.274-3.874 1.487-4.177 4.93.015 7.73q.881.589 1.77 1.162l-1.155 1.1c-3.545 3.369-1.49 8.002 4.29 8.133q.966.023 1.927.03l-.154.817c-.647 2.795.368 5.572 2.453 6.758 1.611.917 3.805.835 6.188-.96 1.039-.974 1.074-.93 2.162.98 2.141 3.763 7.175 5.305 9.16.226l.691-1.76q.753.44 1.512.871c3.173 1.801 5.817 1.534 7.021-.501.717-1.21.706-2.383.092-4.583-.305-1.093-.273-1.172.278-1.107 1.982.236 4.145-.298 5.336-1.27 1.643-1.342 1.137-4.146-.877-6.22-1.02-1.05-1.053-1.187-.53-1.541 1.494-.756 2.783-1.698 3.58-3.285.877-2.029-.64-4.312-3.324-5.164q-.739-.235-1.476-.479l.714-.998c1.104-1.543 1.583-3.304 1.297-4.55-.462-2.02-1.93-2.705-4.722-2.31q-.838.12-1.682.227l.162-.765c.82-3.169-.091-6.057-2.957-5.832-.895.07-3.496 1.341-3.908 1.931-.391.56-.408.597-1.018-1.267-.702-2.145-1.682-3.205-3.148-3.27m-2.692 11.887q.885-.014 1.838.094c2.997.337 5.806 2.16 7.48 4.816 3.433 5.446 1.015 13.88-6.462 15.436-3.15.656-4.986.315-8.16-1.611-2.104-1.276-2.895-1.969-3.623-3.026-1.345-1.95-1.985-4.757-1.66-7.119.246-1.79.46-2.228 1.917-4.14 1.49-1.957 1.805-2.215 3.616-3.145 1.676-.861 3.282-1.273 5.054-1.305" style="font-variation-settings:normal"/><circle cx="346.372" cy="1089.317" r="11.735" fill="#ffdf00" style="font-variation-settings:normal;-inkscape-stroke:none"/></g><g fill-rule="evenodd" transform="translate(-142.698 -686.262)scale(2.18766)"><path fill="#f3f3f3" d="M310.238 1035.201q-.366.014-.73.108c-1.161.3-2.816 1.842-3.479 3.318q-.285.635-.562 1.275-.558-.402-1.113-.814c-2.255-1.67-4.818-2.12-6.227-.928-.93.787-1.557 2.852-1.354 4.625.172 2.481-1.003 1.326-2.914 1.342-4.132.053-5.692 3.137-2.816 7.184q.603.848 1.219 1.685l-1.475.627c-4.52 1.919-4.324 6.95 1.014 9.045q.89.35 1.783.688-.221.353-.441.709c-1.627 2.387-1.702 5.328-.198 7.146 1.164 1.405 3.234 2.076 6.118 1.207 1.327-.556 1.347-.503 1.656 1.652.606 4.244 4.718 7.407 8.465 3.328l1.3-1.412q.54.669 1.088 1.33c2.295 2.767 4.865 3.426 6.758 1.934 1.124-.885 1.557-1.986 1.803-4.256.122-1.128.18-1.194.672-.943 1.772.901 4.004 1.15 5.488.652 2.05-.688 2.63-3.487 1.498-6.13-.572-1.337-.554-1.477.072-1.628 1.69-.192 3.26-.63 4.604-1.841 1.582-1.598.986-4.27-1.246-5.99q-.615-.474-1.225-.956.522-.344 1.043-.69c1.61-1.068 2.707-2.554 2.889-3.82.295-2.049-.853-3.188-3.64-3.76q-.838-.17-1.675-.355l.43-.662c1.922-2.684 2.096-5.673-.686-6.414-.868-.231-3.775.09-4.375.5-.569.39-.6.416-.498-1.514.145-2.73-.695-4.067-2.826-4.316-1.312-.153-3.084.474-4.57 1.678l-.961.779q-.315-.666-.62-1.334c-.881-1.933-2.561-3.12-4.269-3.049m1.264 11.707c1.754.026 3.362.45 5.074 1.287 2.685 1.315 4.67 3.952 5.28 6.998 1.252 6.253-4.137 13.318-11.72 12.235-3.19-.456-4.779-1.395-7.038-4.27-1.497-1.903-1.982-2.818-2.276-4.05-.541-2.274-.113-5.106 1.051-7.192.883-1.581 1.244-1.914 3.299-3.2 2.103-1.314 2.489-1.445 4.517-1.7a13 13 0 0 1 1.813-.108" style="font-variation-settings:normal"/><circle cx="310.923" cy="1056.838" r="11.735" fill="#ffdf00" style="font-variation-settings:normal;-inkscape-stroke:none"/></g><g fill-rule="evenodd" transform="translate(-141.322 -680.438)scale(2.19558)"><path fill="#f3f3f3" d="M286.059 993.385a2.7 2.7 0 0 0-.692.113c-1.193.357-2.64 2.003-3.193 3.715-.876 2.346-1.469.833-3.24.1-3.83-1.568-6.558.66-5.528 5.546q.215 1.02.448 2.032c-.537.01-1.073.01-1.61.014-4.931.037-6.756 4.799-2.623 8.779q.687.663 1.379 1.31l-.684.493c-2.425 1.606-3.62 4.314-2.921 6.566.54 1.74 2.202 3.129 5.193 3.375 1.437-.031 1.432.024.904 2.135-1.044 4.172 1.594 8.568 6.572 6.12l1.727-.847q.25.81.512 1.616c1.09 3.372 3.228 4.878 5.531 4.154 1.369-.43 2.173-1.3 3.244-3.31.532-1 .61-1.039.973-.637 1.304 1.445 3.279 2.44 4.838 2.488 2.154.065 3.719-2.323 3.658-5.135-.031-1.422.04-1.543.674-1.469 1.633.4 3.244.529 4.937-.129 2.061-.932 2.479-3.605 1.098-5.89a100 100 0 0 1-.764-1.285q.61-.134 1.22-.272c1.887-.426 3.46-1.407 4.112-2.49 1.056-1.755.444-3.16-1.879-4.621a93 93 0 0 1-1.388-.89q.324-.225.65-.448c2.815-1.758 4.16-4.363 1.945-5.977-.69-.502-3.47-1.235-4.18-1.08-.672.147-.721.164.17-1.525 1.26-2.385 1.074-3.864-.755-4.858-1.124-.61-3.004-.701-4.866-.167q-.6.171-1.203.347a76 76 0 0 1 0-1.428c.022-2.355-1.304-4.233-3.297-4.52-1.192-.17-3.368.585-4.603 1.673q-.53.467-1.057.945a94 94 0 0 1-.673-1.166c-1.177-2.067-2.985-3.43-4.63-3.377zm3.992 12.174c.654.019 1.245.152 2.226.41 2.422.636 4.182 1.744 5.819 3.574 1.92 2.148 2.687 5.23 2.064 8.205-1.275 6.086-8.878 10.773-15.467 7.065-2.762-1.555-3.877-3.006-4.847-6.477-.644-2.3-.735-3.33-.524-4.57.391-2.3 1.903-4.742 3.81-6.223 1.444-1.12 1.914-1.29 4.317-1.697 1.232-.209 1.948-.306 2.602-.287" style="font-variation-settings:normal"/><circle cx="290.328" cy="1015.242" r="11.735" fill="#ffdf00" style="font-variation-settings:normal;-inkscape-stroke:none"/></g><g fill-rule="evenodd" transform="translate(-150.615 -702.815)scale(2.22978)"><path fill="#f3f3f3" d="M282.582 947.357c-1.78-.02-3.386 1.445-4.129 4.39q-.248.986-.48 1.978-.73-.313-1.457-.627c-4.453-1.92-8.177 1.555-6.221 6.752q.325.865.662 1.722l-.832.164c-2.895.459-5.177 2.395-5.553 4.703h-.002c-.29 1.784.586 3.714 3.174 5.15 1.311.557 1.28.603-.137 2.304-2.719 3.26-2.401 8.475 3.223 8.252l1.941-.075q-.131.84-.252 1.686c-.5 3.542.79 5.8 3.211 6.057 1.44.153 2.554-.33 4.41-1.747.922-.703 1.01-.705 1.165-.193.562 1.848 1.94 3.544 3.355 4.205 1.955.913 4.417-.669 5.567-3.238.582-1.302.699-1.383 1.248-1.065 1.325 1.009 2.75 1.758 4.59 1.829 2.296-.034 3.804-2.269 3.52-4.852a82 82 0 0 1-.146-1.453l1.23.242c1.907.368 3.768.114 4.825-.59 1.716-1.142 1.757-2.627.277-4.867a77 77 0 0 1-.877-1.357q.395-.07.788-.137c3.318-.438 5.661-2.225 4.355-4.584-.406-.734-2.604-2.527-3.312-2.674-.675-.14-.72-.143.818-1.314 2.175-1.656 2.644-3.092 1.42-4.739-.753-1.012-2.407-1.846-4.319-2.105l-1.236-.168q.303-.652.615-1.299c1.033-2.142.633-4.393-1.043-5.435-1-.624-3.286-.785-4.863-.286q-.678.215-1.357.438-.06-.658-.11-1.319c-.205-2.665-1.557-4.795-3.412-5.01-1.222-.14-3.227.772-4.455 2.08-1.792 1.753-1.68.167-2.96-1.175-1.043-1.083-2.173-1.63-3.241-1.643m4.7 12.153c.64.03 1.35.19 2.523.488 2.402.613 2.756.796 4.3 2.049 1.908 1.547 3.011 3.257 3.688 5.57.795 2.717.139 5.799-1.727 8.219-3.805 4.935-12.787 6.147-17.113.11-1.81-2.526-2.173-4.293-1.508-7.807.44-2.327.814-3.286 1.553-4.313 1.368-1.9 3.807-3.477 6.174-4.037.896-.212 1.468-.31 2.11-.28" style="font-variation-settings:normal"/><circle cx="288.025" cy="970.664" r="11.735" fill="#ffdf00" style="font-variation-settings:normal;-inkscape-stroke:none"/></g><g fill-rule="evenodd" transform="translate(-207.833 -851.544)scale(2.4027)"><path fill="#f3f3f3" d="M307.855 904.545c-1.43-.041-3.03.866-4.464 2.83q-.603.824-1.192 1.656l-1.125-1.09c-3.447-3.351-8.194-1.446-8.336 3.989q-.024.909-.035 1.814l-.836-.148c-2.86-.625-5.706.314-6.924 2.27-.941 1.511-.863 3.578.971 5.833.995.986.951 1.02-1.008 2.033-3.86 1.996-5.453 6.736-.252 8.643q.901.33 1.803.664a133 133 0 0 0-.896 1.422c-1.854 2.987-1.585 5.489.501 6.643 1.24.686 2.442.684 4.702.119 1.123-.281 1.206-.253 1.138.267-.245 1.875.298 3.928 1.295 5.063 1.378 1.566 4.26 1.109 6.395-.785 1.08-.959 1.22-.99 1.584-.49.776 1.42 1.746 2.648 3.379 3.415 2.086.846 4.433-.574 5.31-3.113q.242-.699.494-1.396l1.026.685c1.589 1.057 3.402 1.522 4.685 1.26 2.079-.424 2.783-1.808 2.373-4.457q-.123-.795-.234-1.596l.789.158c3.263.798 6.233-.043 5.998-2.76-.073-.847-1.386-3.318-1.994-3.712-.577-.374-.613-.39 1.305-.955 2.715-.8 3.738-2.007 3.242-3.993-.306-1.222-1.536-2.585-3.23-3.494l-1.096-.586q.54-.51 1.086-1.013c1.805-1.663 2.29-3.924 1.113-5.479-.704-.929-2.791-1.864-4.461-1.94q-.72-.032-1.44-.056.195-.636.399-1.273c.825-2.585.345-5.02-1.315-5.856-1.093-.55-3.317-.39-4.959.403-2.337 1.01-1.637-.431-2.334-2.12-.762-1.825-2.025-2.814-3.457-2.855m-2.164 12.562q.472.02.926.079c1.837.242 2.287.449 4.25 1.833 2.009 1.418 2.273 1.716 3.229 3.43 1.18 2.118 1.541 4.11 1.248 6.516-.345 2.83-2.219 5.476-4.95 7.043-5.597 3.21-14.258.865-15.847-6.211-.67-2.979-.317-4.707 1.662-7.69 1.31-1.975 2.02-2.717 3.105-3.398 1.75-1.098 4.176-1.686 6.377-1.602" style="font-variation-settings:normal"/><circle cx="304.826" cy="927.036" r="11.735" fill="#ffdf00" style="font-variation-settings:normal;-inkscape-stroke:none"/></g><g fill-rule="evenodd" transform="translate(-192.778 -759.247)scale(2.3159)"><path fill="#f3f3f3" d="M336.457 871.412c-1.908-.01-3.894 1.277-5.027 3.926q-.357.833-.7 1.668-.361-.21-.726-.418c-2.447-1.532-5.458-1.614-7.317-.213-1.436 1.083-2.12 3.02-1.228 5.725.57 1.246.517 1.265-1.69 1.545-4.342.55-7.578 4.388-3.4 7.921l1.445 1.227q-.684.505-1.36 1.018c-2.834 2.14-3.507 4.55-1.977 6.335.907 1.061 2.037 1.474 4.365 1.717 1.157.12 1.223.175.967.637-.923 1.662-1.176 3.763-.664 5.162.708 1.934 3.584 2.494 6.296 1.443 1.371-.53 1.514-.514 1.67.077.2 1.593.651 3.076 1.899 4.35 1.645 1.5 4.39.952 6.154-1.143q.486-.577.98-1.149.354.494.71.987c1.102 1.525 2.634 2.568 3.937 2.748 2.11.29 3.278-.788 3.857-3.414q.174-.788.362-1.577l.68.41c2.768 1.829 5.845 2.009 6.597-.61.235-.819-.105-3.562-.53-4.13-.402-.538-.43-.566 1.555-.459 2.81.15 4.183-.634 4.43-2.64.152-1.236-.5-2.907-1.744-4.313q-.402-.455-.807-.908.683-.293 1.37-.576c2.267-.938 3.528-2.86 3.001-4.69-.314-1.092-1.905-2.654-3.425-3.283q-.654-.27-1.313-.535.412-.523.832-1.043c1.706-2.11 2.157-4.512.926-5.84-.811-.875-2.935-1.474-4.754-1.29-2.546.15-1.365-.944-1.389-2.735-.07-3.872-3.236-5.347-7.375-2.67q-.865.562-1.722 1.135l-.649-1.381c-.927-1.986-2.552-3.005-4.236-3.014m.475 12.188c1.9-.042 3.937.396 5.545 1.222 1.625.835 1.967 1.174 3.293 3.11 1.356 1.98 1.494 2.344 1.763 4.252.334 2.356-.049 4.329-1.19 6.47-1.341 2.52-4.045 4.373-7.173 4.932-6.42 1.146-13.683-3.96-12.584-11.078.462-2.993 1.423-4.48 4.365-6.586 1.948-1.396 2.884-1.847 4.147-2.117a10 10 0 0 1 1.834-.205" style="font-variation-settings:normal"/><circle cx="336.803" cy="893.704" r="11.735" fill="#ffdf00" style="font-variation-settings:normal;-inkscape-stroke:none"/></g><g fill-rule="evenodd" transform="translate(-159.494 -640.987)scale(2.18847)"><path fill="#f3f3f3" d="M374.295 852.479c-.456 0-.906.06-1.338.181v-.002c-1.782.5-3.195 2.048-3.432 4.842.04 1.343-.017 1.338-2.185.838-4.283-.989-8.776 1.462-6.244 6.125l.875 1.619q-.829.231-1.655.473c-3.454 1.008-4.988 3.003-4.236 5.162.446 1.283 1.343 2.041 3.412 3.052 1.029.503 1.069.577.658.915-1.478 1.216-2.49 3.063-2.533 4.525-.058 2.02 2.404 3.5 5.293 3.455 1.461-.023 1.587.043 1.514.639-.402 1.532-.53 3.046.154 4.64.97 1.942 3.723 2.347 6.067 1.059q.656-.361 1.318-.713.142.575.287 1.148c.45 1.777 1.469 3.263 2.588 3.881 1.814 1.003 3.257.434 4.748-1.746q.447-.654.908-1.303l.465.616c1.83 2.658 4.524 3.935 6.172 1.857.513-.647 1.249-3.261 1.084-3.93-.157-.633-.173-.679 1.574.168 2.468 1.197 3.992 1.029 5.002-.689.62-1.055.7-2.82.135-4.574l-.367-1.135q.735-.003 1.47.008c2.429.03 4.354-1.209 4.633-3.08.167-1.12-.63-3.168-1.762-4.332q-.486-.501-.98-.996.594-.318 1.195-.63c2.423-1.252 3.888-3.282 3.317-4.98-.378-1.12-2.086-2.483-3.852-3.007-2.422-.829-.87-1.379-.129-3.036 1.582-3.581-.73-6.141-5.746-5.193q-1.045.198-2.084.412-.016-.752-.027-1.506c-.074-4.61-4.98-6.328-9.037-2.478q-.675.64-1.334 1.285l-.51-.64c-1.352-1.846-3.444-2.934-5.418-2.93m6.303 11.263c.315.012.62.045.94.096 2.364.374 4.885 1.797 6.421 3.59 1.162 1.356 1.341 1.796 1.777 4.05.448 2.313.425 2.691-.091 4.532-.638 2.271-1.765 3.92-3.637 5.449-2.199 1.796-5.367 2.503-8.434 1.904-6.267-1.223-11.125-8.375-7.351-14.535 1.58-2.581 3.064-3.621 6.623-4.517 1.768-.446 2.805-.603 3.752-.569" style="font-variation-settings:normal"/><circle cx="379.619" cy="873.109" r="11.735" fill="#ffdf00" style="font-variation-settings:normal;-inkscape-stroke:none"/></g></svg>