<svg xmlns="http://www.w3.org/2000/svg" xmlns:xlink="http://www.w3.org/1999/xlink" xml:space="preserve" width="1800" height="2000"><defs><linearGradient id="a"><stop offset="0" stop-color="#271d21"/><stop offset="1" stop-color="#271d21" stop-opacity="0"/></linearGradient><linearGradient xlink:href="#a" id="b" x1="491.309" x2="447.539" y1="1116.569" y2="862.088" gradientTransform="translate(-47.819 -377.97)scale(1.87154)" gradientUnits="userSpaceOnUse"/></defs><path fill="#e1f1ee" fill-rule="evenodd" d="M225.751 383.925c-43.43-1.513-94.852 130.413-128.844 194.702-14.588 27.592 21.025 273.288 46.46 301.333 16.287 17.958 18.09 50.123 30.888 71.47 10.613 17.701 28.728 90.722 32.12 92.97.403.267 14.864 40.1 42.62 106.187 26.57 63.26 52.428 126.786 60.851 127.627 42.931 4.286 214.832-60.89 241.228-55.964 12.342 2.304-151.178-189.1-149.318-189.255 2.688-.224 3.811-2.41 5.476-10.641 1.152-5.697 4.133-15.794 6.623-22.44s7.663-21.015 11.493-31.933c3.83-10.919 11.802-26.8 13.192-35.11l3.67-21.947c-23.376-.987 136.027-62.919 97.349-112.131 2.706-2.44-24.6-64.469-25.76-72.29-4.789-32.319-70.698-139.61-76.42-134.063l-5.189-22.784-8.571-10.632c-33.077-55.055-149.286-161.136-169.458-162.301l-7.841-.454c-6.567-8.275-13.462-12.096-20.569-12.344m1236.126-71.773c-38.028-7.929-225.07 50.952-398.787 208.052-72.045 65.153-56.83 52.416-113.784 115.418-71.876 79.507-161.867 213.814-164.476 295.48-8.099 253.427 57.734 438.006 106.78 421.085 120.65-41.623 586.3-22.82 586.3-22.82s108.69-513.314 124.731-521.162c20.306-9.934 37.553-35.938 48.46-64.571 9.214-24.193 31.934-136.205 22.882-152.772-5.62-10.286 26.135-63.277 16.745-75.52-72.72-94.808-124.644-181.463-228.85-203.19"/><path fill="#bec9c1" fill-rule="evenodd" d="M799.74 873.886c18.527 18.528 43.166 40.15 59.047 67.722 15.88 27.57 29.114 64.183 29.114 96.827s-13.234 61.316-17.866 77.638c-4.631 16.321-.661 20.291 7.94 20.291 8.603 0 21.836-3.97 51.392-8.381 29.556-4.412 75.432-9.264 118.001-9.705 42.57-.44 81.829 3.53 129.471 14.557 47.642 11.029 103.664 29.115 145.571 49.848 41.908 20.733 69.698 44.112 86.681 65.727s23.16 41.466 26.468 66.17c3.308 24.703 3.75 54.258-1.985 74.99-5.735 20.734-19.517-1.044-35.618 8.22s-52.3 26.642-63.912 43.2c-11.612 16.557 3.237 65.981-4 94.827-7.236 28.846-18.777 60.037-38.116 87.175-19.34 27.137-48.962 45.065-74.384 58.165s-46.642 21.375-79.395 16.385c-32.752-4.992-65.191-31.193-92.953-47.257-27.76-16.065-50.843-21.99-79.998-62.019-29.154-40.028-78.438-96.89-102.426-128.7-28.457-37.74-37.988-31.818-42.671-12.225-2.067 8.648-.074 17.941-5.742 56.832-5.607 38.482-37.656 96.204-68.722 135.516-32.59 41.242-96.278 35.668-138.456-3.82-42.078-39.395-66.798-119.668-84.829-163.749 10.242-61.009-1.476-58.365-78.506-72.339-58.617-28.4-148.984-62.96-95.798-141.116 17.156-24.642 39.926-53.65 71.587-70.962 31.66-17.312 72.21-22.927 123.725-27.549s113.993-8.25 159.57-55.281 43.358-172.602 96.81-230.987"/><path fill="#7694a2" fill-rule="evenodd" d="M880.83 1394.556a3.62 3.62 0 0 0-2.643 1.035l-13.663 13.492h-.004a301 301 0 0 1-11.34 10.6c-3.524 3.124-6.549 5.604-7.727 6.382-3.088 2.04-5.671 4.863-6.601 9.738-.91 4.77-.934 11.564-.896 24.049.106 34.38 5.702 81.588 13.203 111.079 6.287 24.717 19.345 52.685 34.675 77.047 15.328 24.36 32.772 45.083 48.759 55.221 8.017 5.085 18.363 9.698 25.364 9.87 6.818.168 11.978-3.276 15.539-8.71 2.041-3.117 2.761-7.245 3.15-12.001.39-4.757.408-10.18.732-15.883.661-11.635.097-25.92-1.55-41.952-3.294-32.066-10.945-71.102-22.14-109.153-12.625-42.91-38.456-92.187-62.558-118.868h-.004l-9.716-10.754a3.6 3.6 0 0 0-2.577-1.188zm-163.942 60.098c-.168 0-.358 0-.713.062-.355.058-.926-.182-2.255 1.148-1.376 1.375-1.044 1.658-1.152 2.028s-.167.673-.23 1.01a38 38 0 0 0-.344 2.357c-.22 1.827-.44 4.191-.64 6.799-.398 5.215-.715 11.333-.727 15.674-.08 28.284 5.703 76.909 12.988 109.672 7.149 32.153 24.639 75.73 40.424 100.485 9.534 14.952 24.024 27.682 37.047 31.158 4.562 1.218 9.027 1.23 13.02-.303s7.31-4.54 9.863-8.535c5.103-7.992 7.734-20.004 8.897-36.609 2.101-30.023-5.251-91.888-15.561-132.974-6.269-24.98-12.174-40.933-23.767-64.214-3.534-7.096-6.195-12.169-8.345-15.802s-3.597-5.845-5.776-7.45c-1.82-1.34-4.417-2.516-7.702-2.697-3.284-.18-7.633.154-15.531.793-11.509.932-22.346.389-32.54-1.593a97 97 0 0 0-4.537-.782 27 27 0 0 0-1.622-.194 7 7 0 0 0-.797-.032zm-140.355-188.229c-6.62-.195-15.887 1.29-20.232 3.491-6.554 3.321-12.771 9.947-15.948 16.94-9.98 21.96-1.047 52.038 19.41 65.5 3.958 2.605 8.775 4.737 13.034 5.746 1.9.45 5.998 1.004 9.267 1.29.532.046 1.426.047 2.855.05 1.428 0 3.249 0 5.12-.021 7.243-.076 9.88-.351 12.385-1.43.442-.19.804-.344 1.17-.57s.843-.606 1.03-1.26c.188-.656-.01-1.219-.197-1.605-.185-.387-.405-.717-.676-1.123-1.44-2.156-4.808-5.485-9.851-9.979a141 141 0 0 1-6.01-5.68 62 62 0 0 1-2.127-2.237c-.518-.58-.85-1.053-.86-1.057.046-.127.214-.536.644-1.403 1.002-2.02 2.645-4.725 6.065-9.94a69 69 0 0 0 3.626-6.25c.5-.982.925-1.892 1.246-2.676s.549-1.383.625-2.061c.03-.273.07-.529.055-.878a2.7 2.7 0 0 0-.314-1.125c-.375-.68-.831-1.063-1.634-1.865-2.125-2.12-5.79-4.854-9.464-7.117-5.485-3.378-8.79-5.661-10.597-7.445-1.806-1.785-2.167-2.85-2.171-4.62-.005-2.357.899-4.676 4.503-10.73 1.326-2.225 2.466-4.248 3.286-5.808.41-.78.74-1.441.98-1.977.12-.268.214-.503.293-.727.078-.225.168-.37.168-.827 0-.448-.175-1.076-.574-1.502-.4-.426-.87-.615-1.33-.742-.924-.253-2.021-.31-3.777-.362"/><path fill="#94c5ca" fill-rule="evenodd" d="M583.515 1334.532c-19.747-1.457-35.143-9.177-44.404-26.916l-1.463-2.994.142-1.954c.286-3.91 1.305-8.748 2.555-12.13 1.324-3.583 3.628-7.716 5.844-10.481 1.16-1.448 3.643-3.955 5.104-5.153 1.66-1.362 4.185-3.02 5.755-3.78 3.097-1.5 9.437-2.84 15.55-3.285 1.84-.134 2.146-.112 4.218.314 3.503.718 3.97.85 3.97 1.124 0 .384-2.242 4.586-4.296 8.05-3.674 6.197-4.752 8.65-4.927 11.207-.292 4.255 2.455 7.212 11.952 12.864.819.488 2.469 1.54 3.667 2.338 2.069 1.38 6.183.551 9.242 3.893l3.219 3.516-.287.833c-.33.958-1.88 4.098-2.86 5.795-.368.637-5.605 3.908-6.937 5.955-2.643 5.951-.403 8.023-6.044 10.804"/><path fill="#a597c8" fill-rule="evenodd" d="M623.062 808.585a6.45 6.45 0 0 0-6.722 4.434l-2.888 8.923.238-4.565a6.447 6.447 0 0 0-6.832-6.77l-13.232.815c-19.94 1.226-43.708 7.835-65.837 18.076-12.879 5.96-20.43 8.805-24.78 15.904-2.174 3.55-2.538 7.92-1.871 11.752.58 3.336 1.901 6.805 3.37 10.688l-6.112-12.925c-1.848-3.906-6.94-4.924-10.147-2.029l-9.273 10.462c-8.939 8.075-22.565 24.758-33.063 41.543-5.25 8.393-9.902 16.472-13.097 22.948-1.598 3.239-2.83 6.034-3.637 8.576-.404 1.27-.726 2.452-.834 3.94-.108 1.489-5.418 12.446-2.954 14.91 2.625 2.624 9.697-6.519 10.63-6.605s1.465-.254 1.993-.417c1.054-.325 1.968-.719 3.012-1.206 2.087-.974 4.552-2.318 7.172-3.915 15.52-9.462 40.172-2.768 52.114 15.572 13.221 20.306 17.481 38.16 17.392 74.957-.078 32.336-6.258 60.343-16.752 81.116s-25.02 34.121-42.136 38.699c-1.659.444-3.056.507-5.432 2.197-1.187.845-2.83 2.699-3.19 5.066s.455 4.203 1.143 5.355c1.377 2.305 2.811 3.433 4.844 5.18 2.032 1.747 4.665 3.843 8.122 6.576 24.473 19.345 64.298 37.207 102.46 47.154a6.45 6.45 0 0 0-1.69 3.743l1.85 10.867c1.421 8.349-1.412 13.448 1.126 18.679 2.539 5.232 7.965 8.368 13.317 9.438.17.034.098.043.255.08-1.14 2.701-2.282 5.42-3.918 9.245l-4.255 9.946a6.45 6.45 0 0 0 2.211 7.805l11.954 8.429c6.48 4.568 8.503 7.236 8.663 7.874s-.276 3.054-4.014 9.185l-5.494 9.014a6.45 6.45 0 0 0 1.155 8.115l10.798 9.87c4.725 4.319 6.916 7.504 7.717 8.926-1.676.534-3.29 1.058-5.06 2.3-1.834 1.286-3.66 3.845-4.115 6.334-.91 4.98.807 8.127 2.796 13.357 6.14 16.15 22.888 32.724 42.662 47.062 19.773 14.34 42.484 26.005 61.965 29.28 23.119 3.887 60.113 3.436 78.978-1.455 43.358-11.241 87.417-43.986 104.199-78.75 29.515-61.145 4.427-138.096-64.192-205.863-8.748-8.64-13.837-13.555-18.295-16.551-2.228-1.498-4.51-2.682-7.358-2.88-2.847-.2-5.592 1.001-7.252 2.17-.323.228-1.295.775-1.762 1.083.806-.79.923-1.096 1.842-1.96 17.105-16.058 27.783-31.095 41.255-57.897 20.778-41.338 24.083-74.328 16.922-108.402C830.215 894.544 741.28 819.458 640.6 810.198h-.004zm88.906 72.014c15.355.737 32.968 6.864 51.043 19.542 36.944 25.915 64.216 77.724 64.51 122.44.2 30.644-8.695 50.135-27.08 62.301-8.428 5.578-11.383 6.337-26.424 6.85-18.297.625-28.454-1.96-41.978-10.512-44.346-28.044-77.655-86.345-77.87-135.548-.096-22.123 6.352-38.687 16.57-49.54s24.338-16.343 41.229-15.532m-91.377 187.728c18.578-.015 32.191 5.716 39.895 14.23 7.703 8.515 10.31 19.956 5.673 34.525-1.533 4.814-3.328 12.601-4.292 18.416-.35 2.118-1.103 4.674-1.959 6.755-.836 2.032-1.979 3.627-1.93 3.6-.392-.26-2.092-1.087-6.057-4.002l-10.279-7.56a6.45 6.45 0 0 0-4.876-1.165l-25.24 4.2c-11.93 1.985-18.456 3.04-23.745 5.263s-8.578 6.284-11.171 10.554c-1.144 1.884-2.596 3.663-3.725 4.755-.538-.352-1.002-.627-1.732-1.192-2.293-1.771-5.256-4.436-8.225-7.416-5.939-5.96-12.09-13.613-13.956-17.22-3.943-7.626-3.907-16.46-.033-25.621 3.873-9.162 11.713-18.403 22.934-25.522 15.2-9.644 26.362-12.582 48.718-12.6m148.48 161.728c6.226.144 13.252 1.88 20.697 5.406 20.97 9.93 32.524 27.465 34.543 44.248 2.02 16.783-4.87 32.623-22.908 41.452-12.416 6.076-26.59 8.722-36.718 8.191-5.064-.265-9.068-1.4-11.068-2.58s-1.982-1.334-1.912-2.537c.166-2.849 1.191-8.365 1.835-10.334 1.05-3.215.736-8.317-1.77-11.5-2.505-3.183-5.649-4.99-10.187-7.54-2.554-1.436-4.928-3.161-6.419-4.511-.113-.103-.113-.129-.215-.227.465-.828.94-1.681 1.703-2.851 2.041-3.127 4.973-7.138 8.18-11.076h.005l12.154-14.925a6.447 6.447 0 0 0-.347-8.531l-7.205-7.52c-1.883-1.964-3.012-3.54-3.458-4.43s-.309-.816-.31-.808c-.005.02 1.52-2.43 7.113-5.84 4.656-2.84 10.063-4.232 16.288-4.087z"/><path fill="#6a66a1" fill-rule="evenodd" d="M720.803 832.177c8.734 17.156 15.15 31.153 26.847 59.695 11.697 28.54 26.357 68.466 25.733 106.053s-16.531 72.834-35.871 101.063c-19.34 28.23-42.11 49.44-64.88 70.65 20.9 5.303 41.798 10.606 58.33 18.092 16.532 7.487 28.697 17.156 41.954 32.284s27.605 35.716 34.467 58.486 6.239 47.724.156 70.027-17.624 41.953-34.156 59.421-38.054 32.752-59.577 48.036c23.706-.623 47.743 1.73 75.349-7.004 27.605-8.734 58.778-28.555 81.705-54.6 22.926-26.047 35.739-62.81 22.793-106.636-7.865-46.608-54.433-111.922-95.635-138.7 10.196-28.195 46.796-76.57 52.566-110.57 17.184-101.247-71.533-169.787-129.781-206.297"/><path fill="#fff" fill-rule="evenodd" d="M560.457 1137.37c-1.183 0-1.925-.014-2.665.055-.74.063-1.741.323-2.38.672-.406.222-1.158.626-1.776 1.605s-.669 1.98-.669 2.464c0 2.758 1.107 3.724 2.212 5.289 1.104 1.565 2.519 3.233 4.094 4.894 3.149 3.324 6.676 6.53 10.074 8.254.971.493 1.707.869 3.246.87 1.979 0 3.34-.782 4.602-1.685 1.261-.903 2.39-2.055 3.363-3.418a18 18 0 0 0 2.792-6.144c.511-2.094 1.228-4.147-.712-6.792-1.44-1.961-2.696-2.172-4.263-2.782s-3.402-1.147-5.406-1.623c-4.007-.951-8.602-1.641-12.512-1.66zm101.158-13.01c-.915.053-1.823.285-2.931.647-3.445 1.125-7.41 2.836-10.597 4.449-1.594.806-2.983 1.58-4.054 2.288-.535.354-.989.684-1.4 1.067s-1.093.644-1.093 2.183c0 1.19.413 1.502.716 1.93.304.427.653.824 1.064 1.253.822.858 1.88 1.815 3.063 2.797 2.367 1.963 5.148 3.982 7.41 5.14.635.324 1.276.613 1.853.836.288.112.559.206.83.285s.463.168 1.027.168c1.788 0 2.888-1.155 3.703-2.299s1.458-2.547 2.017-4.163c1.119-3.232 1.848-7.304 1.85-11.31 0-.69-.015-1.353-.044-1.9a16 16 0 0 0-.055-.743c-.023-.223.061-.24-.186-.884-.305-.795-1.074-1.367-1.66-1.568s-1.055-.202-1.513-.176"/><path fill="#8bc4cc" fill-rule="evenodd" d="M617.173 1065.696c-19.964.765-41.75 8.195-55.981 21.2-5.743 5.25-10.61 11.67-13.99 18.032-3.38 6.363-5.41 12.597-4.77 18.138.526 4.546 3.945 8.158 8.916 10.776 4.97 2.618 11.807 4.646 20.927 6.46 3.509.697 6.807 1.351 9.292 1.842 2.484.49 3.94.78 4.474.873.726.128.741.058.917.051.176-.014.335-.016.516-.033.36-.03.796-.078 1.327-.139a233 233 0 0 0 4.214-.537 860 860 0 0 0 12.988-1.864c18.63-2.809 34.372-7.878 45.728-14.475s18.76-14.998 18.778-24.678c.004-2.578-.918-4.973-2.208-7.577s-3.035-5.342-5.048-8.031c-4.027-5.378-9.007-10.523-13.967-13.43-8.755-5.13-20.134-7.068-32.113-6.609z"/><path fill="#0ff" d="M944.097 926.006a2248 2248 0 0 0-7.132 4.778h3.243a3.88 3.88 0 0 0 3.889-3.89z"/><path fill="#7694a2" fill-rule="evenodd" d="M774.13 1228.699c-3.474-.376-6.773-.347-9.664.186-3.067.565-6.655 1.687-9.91 2.975s-6.067 2.618-7.906 4.153c-.702.586-1.45 1.11-2.015 2.244s-.401 2.727.147 3.824c1.096 2.192 3.203 4.275 7.336 8.696 1.69 1.808 3.28 3.638 4.445 5.088a33 33 0 0 1 1.374 1.817c.316.458.464 1.006.31.395.072.281.073.122.005.34-.068.216-.353.81-1.071 1.801-1.436 1.985-4.461 5.49-9.997 11.745-4.94 5.581-8.104 9.235-10.086 11.715-.99 1.24-1.685 2.182-2.19 2.994-.503.813-.924 1.452-.95 2.606-.023 1.086.42 1.637.76 2.07.342.432.713.772 1.141 1.125.857.707 1.963 1.444 3.374 2.292 2.822 1.697 6.838 3.792 11.92 6.218 4.322 2.063 7.718 3.958 9.924 5.476.86.591 1.36 1.046 1.82 1.473-.58.183-1.214.38-1.82.38-2.418 0-3.899 1.312-5.545 2.749s-3.151 3.142-3.977 5.117c-.65 1.558-1.078 3.332-1.078 4.993 0 2.036 1.257 3.876 2.96 5.078 1.704 1.201 3.918 2.062 6.77 2.829 9.032 2.428 22.79.755 33.498-3.703 13.816-5.752 23.758-15.55 27.92-27.857 2.15-6.358 1.9-17.293-.253-24.816-5.644-19.734-19.814-36.085-36.59-41.664a51.8 51.8 0 0 0-10.651-2.34z"/><path fill="#94c5ca" fill-rule="evenodd" d="M774.13 1228.699c-11.635 0-31.112 7.775-31.052 11.119.019.809 3.982 5.314 8.817 10.012l8.791 8.543-8.246 8.926c-4.537 4.909-10.867 11.928-14.066 15.597l-5.816 6.671 9.614 5.19c11.033 5.958 24.108 5.282 38.169-1.97 15.084-7.779 29.421-26.022 27.147-45.273-1.094-9.256-16.442-18.815-33.358-18.815m27.156 496.349c-11.377-3.037-26.223-17.315-35.152-31.648-10.065-16.156-27.979-38.878-32.014-64.71l-1.586-10.157c25.67-49.282 53.804-46.446 93.526-11.185.405 2.007 2.786 20.8 3.565 29.257 2.63 28.514 2.118 49.226-1.792 64.857-4.232 16.916-14.745 26.736-26.547 23.586m152.182-14.735c-11.52-2.434-29.393-12.968-39.063-26.812-10.9-15.604-35.214-34.076-40.601-59.66l-2.119-10.06c41.724-91.546 121.203-12.291 102.634 82.96-3.336 17.114-8.9 16.097-20.85 13.572"/><path fill="#3f3f49" d="M1510.026 302.393c-52.443-2.071-118.347 14.257-193.167 48.232-75.854 34.444-176.922 100.761-250.823 164.575-30.846 26.635-116.6 114.284-143.45 146.62-51.02 61.443-102.908 145.911-122.01 198.62-3.123 8.62-6.657 16.28-7.854 17.02s-7.35-3.209-13.671-8.773c-36.188-31.854-87.399-53.195-141.48-58.961-17.314-1.846-17.318 1.319.065-46.058l-16.979 14.468c-4.278 16.061-9.052 30.026-10.608 31.034-1.556 1.009-7.66 1.851-13.565 1.872-5.905.02-18.617 1.83-28.248 4.02-9.595 2.183-17.777 3.58-18.23 3.122-.393-.475-5.49-15.462-11.331-33.304-18.713-57.165-48.747-124.093-75.14-167.44l-9.266-15.217c-13.476-30.444-31.18-48.823-52.063-73.122-35.44-41.447-86.223-92.928-110.107-111.623-11.364-8.896-29.108-20.545-39.433-25.888-16.653-8.617-20.779-9.716-36.514-9.716-21.704 0-33.1 5.82-49.826 25.434-56.38 66.117-83.193 152.592-78.389 252.826 4.405 91.909 29.16 184.648 82.586 309.404 10.579 24.704 25.733 60.636 33.676 79.85 22.86 55.295 79.274 190.098 83.287 199.017 2.006 4.456 8.29 18.764 13.968 31.794 13.753 31.568 22.223 44.224 41.915 62.645 25.629 23.974 61.08 45.272 94.166 56.574 17.246 5.89 50.207 13.034 60.408 13.09 12.062.066 13.75 2.616 10.71 16.182-13.781 61.497-3.815 130.243 26.955 185.9 13.799 24.96 46.048 58.89 68.465 72.036 22.899 13.428 54.758 23.294 79.873 24.732 20.617 1.18 22.7.82 37.522-6.477 8.748-4.306 18.811-11.638 22.74-16.566 8.227-10.32 10.821-10.919 13.762-3.184 3.915 10.296 22.565 31.595 32.054 36.605 30.836 16.28 44.344-3.192 44.029-63.472-.19-36.28-3.873-64.387-14.066-107.303l-7.706-32.44 4.157-28.695c2.286-15.784 4.154-32.099 4.148-36.254-.01-8.67 6.067-18.646 11.361-18.646 2.97 0 3.604 6.24 3.612 35.56.02 72.506 16.28 129.87 52.3 184.5 31.8 48.23 68.12 71.442 84.194 53.81 9.591-10.521 11.569-22.709 9.913-61.037-.847-19.614-.73-35.614.26-35.556.989.058 9.656 7.457 19.263 16.442 31.874 29.81 76.545 56.573 112.337 67.306 20.987 6.294 62.55 6.314 81.057.035 62.428-21.171 106.657-66.514 128.292-131.516 9.181-27.586 16.442-69.15 16.442-94.14v-15.11l33.388-16.359c33.647-16.486 64.607-36.623 82.194-53.456 23.98-22.952 47.475-60.874 62.59-101.033 6.282-16.69 16.828-61.13 37.658-158.697 20.948-98.122 33.425-136.726 86.774-268.431 29.038-71.687 48.702-140.66 63.314-222.088 7.671-42.748 9.386-100.808 3.758-127.265-13.022-61.219-40.6-109.99-88.547-156.602-25.847-25.128-35.786-31.553-62.934-40.666-14.32-4.807-30.306-7.541-47.786-8.232zm-61.955 9.617c11.503-.019 46.56 18.743 63.212 33.812 15.716 14.222 27.963 34.426 27.963 46.13 0 5.616-1.581 7.063-10.604 9.702-16.021 4.684-75.075 29.407-100.343 42.01-44.148 22.021-114.99 64.03-136.933 81.2-9.25 7.239-9.992 7.395-22.027 4.617-19.97-4.61-58.4-3.583-80.918 2.16-23.043 5.878-61.99 24.394-87.791 41.737-98.362 66.118-181.558 166.56-262.586 317.01-7.548 14.016-14.53 25.49-15.513 25.49-10.095-9.506-18.052-21.473-26.432-32.54l7.282-18.902c17.114-44.447 49.066-102.1 82.71-149.234 55.726-78.073 147.863-172.167 233.108-238.058 86.901-67.17 177.896-118.885 259.095-147.252 22.767-7.954 61.477-17.882 69.777-17.882M252.603 397.603c3.504-.063 6.203 1.514 12.34 5.11 32.822 19.235 96.069 81.576 151.727 149.552l13.854 16.92 4.27 36.452c3.8 32.463 14.491 97.117 17.984 108.746 2.537 8.45-2.917 3.918-17.74-14.745-19.363-24.38-51.053-57.157-69.261-71.638-34.633-27.543-58.248-38.087-80.232-35.819l-12.815 1.324-23.387-19.44c-12.863-10.691-38.324-29.956-56.581-42.807-38.006-26.754-37.88-26.503-26.016-51.585 19.691-41.622 46.4-70.093 74.222-79.127 5.699-1.85 8.91-2.893 11.635-2.943m1285.521 6.73c3.08 0 3.73 2.437 3.13 11.679l-.761 11.679-26.202 10.874c-52.124 21.629-134.656 64.345-182.49 94.45-11.845 7.457-22.512 13.507-23.704 13.445-3.26-.166-20.833-10.879-20.861-12.717-.036-2.316 39.118-28.546 71.813-48.108 51.358-30.729 162.75-81.302 179.075-81.302m37.438 19.987c41.334-.103 85.889 65.81 76.152 112.658-3.644 17.534-13.297 38.012-24.176 51.289-8.053 9.827-9.733 10.707-20.46 10.732-33.728.076-142.46 22.661-227.537 47.263-14.411 4.167-27.133 7.592-28.27 7.592-1.14 0-1.14-3.632 0-8.092 1.137-4.46 1.968-15.97 1.845-25.577-.274-21.481-6.023-33.827-25.043-53.766-7.377-7.734-13.411-14.826-13.411-15.762 0-.937 9.264-7.643 20.587-14.903 79.488-50.967 209.724-111.357 240.313-111.434m-1418.86 88.723c6.8-.133 102.526 71.032 108.637 80.919.813 1.316-2.22 5.754-6.74 9.865-4.521 4.111-8.782 7.46-9.468 7.439s-14.722-10.794-31.191-23.939-37.525-29.467-46.789-36.272c-16.788-12.331-16.844-12.413-16.844-24.502 0-6.671.962-12.724 2.139-13.451a.5.5 0 0 1 .256-.059m-6.766 32.083c5.088.27 10.511 2.998 17.487 8.082 11.268 8.212 71.454 55.422 77.614 60.88 1.179 1.045-.223 8.742-3.118 17.107-9.21 26.614-6.414 57.013 8.177 88.883 3.587 7.837 6.52 14.675 6.52 15.196 0 2.373-6.415-.561-46.162-21.106-54.358-28.097-82.381-45.265-90.284-55.306-1.62-2.058-4.845-10.475-7.164-18.704-7.967-28.262-.404-66.855 16.394-83.653 8.008-8.008 13.994-11.726 20.536-11.379M1184.9 577.841c28.675-.058 32.532.504 47.776 6.953 19.96 8.444 35.316 21.045 42.687 35.033 4.412 8.372 5.465 14.634 5.53 32.927.077 21.243-.488 23.74-9.496 41.967-20.578 41.637-78.787 89.038-157.429 128.2-41.008 20.423-92.463 50.326-137.43 79.866-40.23 26.429-110.249 77.242-116.028 84.205-1.714 2.066-5.42 5.205-6.667 5.205-2.516 0-1.282-1.574-7.103-22.51-2.267-8.152-7.875-22.274-12.46-31.38l-8.339-16.56 17.597-33.384C899.73 781.75 981.18 672.027 1033.715 632.178c18.94-14.366 73.51-40.82 100.033-48.495 16.037-4.64 26.094-5.79 51.153-5.842m430.761 25.34c7.005.132 8.341 1.714 12.337 7.577 11.658 17.104 15.553 67.905 7.728 100.81-7.813 32.856-21.484 56.29-40.023 68.615-18.545 12.33-34.603 15.873-95.134 21.008-196.493 16.666-332.495 43.01-467.885 90.62-21.273 7.48-44.576 15.942-51.781 18.803-7.009 2.783-12.776 4.595-13.087 4.126h-.004v-.008l-.004-.004q.001-.008-.004-.015v-.004l-.004-.01v-.004c0-.615 7.02-5.888 15.598-11.716 34.237-23.26 88.545-53.81 147.851-83.177 74.744-37.01 104.104-54.14 142.928-83.379 32.014-24.11 47.332-39.217 61.688-60.84 9.237-13.912 9.77-14.266 32.215-21.387 73.476-23.31 193.035-48.775 238.38-50.773 3.903-.172 6.865-.289 9.2-.245zm-1156.76 14.507 6.25 9.983c10.328 16.495 42.466 83.202 52.26 108.476 9.058 23.371 25.175 72.082 26.659 80.568.553 3.163-2.845 6.07-12.183 10.421-14.756 6.877-13.413 7.72-25.613-16.054-4.579-8.921-12.073-22.396-16.654-29.945-6.66-10.974-9.599-20.477-14.673-47.413-9.03-47.942-16.214-95.395-16.123-106.51zm-139.938 17.235c15.343.544 33.654 5.441 53.697 14.914 24.41 11.537 34.914 21.337 67.806 63.249 15.451 19.687 16.468 21.858 24.557 52.523 4.641 17.594 12.531 43.502 17.535 57.572l9.098 25.58-20.949 21.731c-11.522 11.953-23.102 25.373-25.73 29.82-2.628 4.45-5.938 8.063-7.358 8.032-5.611-.13-69.116-51.066-96.918-77.739-28.044-26.903-29.912-29.336-39.01-50.718-21.102-49.595-32.03-91.987-28.969-112.398 3.341-22.278 20.668-33.471 46.24-32.566m-195.679 36.47c4.214-.126 11.05 4.044 23.629 11.95 12.988 8.162 44.59 25.31 70.226 38.106 42.01 20.969 47.155 24.23 52.107 33.04 8.85 15.747 39.345 50.788 69.335 79.673 15.318 14.754 26.445 26.708 24.725 26.56s-20.533-5.659-41.807-12.246c-21.273-6.587-67.875-20.624-103.56-31.194-35.683-10.571-67.846-20.748-71.472-22.616-15.104-7.78-26.143-29.204-31.96-62.024-3.307-18.666-3.3-27.943.023-43.437 2.575-12.006 3.98-17.669 8.754-17.812m366.058 119.895c1.652-.069 6.676 7.463 14.227 21.46 5.665 10.504 9.75 20.528 9.08 22.277-.671 1.748-3.448 4.371-6.174 5.83-4.498 2.407-5.308 1.444-8.744-10.44-4.031-13.944-8.88-34.228-8.981-37.573-.031-1.024.171-1.536.592-1.554m-335.649 12.308c1.967 0 23.964 6.092 48.883 13.54a28972 28972 0 0 0 88.164 26.168c75.836 22.348 87.532 27.313 118.126 50.144l27.29 20.368-5.892 11.642c-8.187 16.181-20.248 51.144-23.814 69.035-1.642 8.235-4.064 19.183-5.385 24.33-2.85 11.112-1.652 11.028-43.385 3.052-16.47-3.148-55.066-8.333-85.77-11.522l-55.824-5.797-10.564-13.766c-33.936-44.212-54.046-86.444-61.475-129.107-4.662-26.768.539-58.087 9.646-58.087m1336.393 2.836c11.158-.342 14.96.775 22.634 4.49 31.627 15.31 44.97 46.186 44.821 103.716-.097 37.799-5.065 60.257-20.415 92.33-10.184 21.28-26.305 39.59-44.043 50.017-20.204 11.877-26.294 13.388-38.681 9.606-20.25-6.183-47.858-11.154-83.48-15.034-47.951-5.223-275.442-7.614-348.59-3.663-60.757 3.282-140.595 9.543-159.172 12.48-6.91 1.092-13.014 1.537-13.561.99s-.028-5.15 1.151-10.228 2.172-18.985 2.204-30.906l.063-21.676 14.347-11.481c24.39-19.518 68.957-52.816 74.828-55.909 9.483-4.997 69.954-27.785 107.373-40.465 47.266-16.015 106.262-32.74 148.513-42.098 72.134-15.98 212.49-36.871 277.982-41.379 5.77-.397 10.306-.675 14.026-.79m-860.287 7.143c12.63 0 55.34 9.173 70.267 14.45 83.299 29.448 182.26 127.214 139.762 235.09-15.94 40.462-32.996 65.322-45.41 77.515-8.995 8.834-17.46 16.438-18.807 16.895-3.805 1.292-2.882 7.9 1.104 7.9 1.953 0 6.888-2.806 10.966-6.237 9.15-7.7 13.135-7.828 19.443-.625 2.703 3.088 8.261 8.423 12.351 11.855 9.726 8.16 34.146 37.048 42.702 50.517 10.324 16.252 23.464 44.149 27.335 58.032 6.27 22.491 7.232 56.08 2.098 73.22-21.82 72.845-99.055 94.048-113.938 97.496-18.014 4.173-63.112 3.086-80.618-1.945-38.048-10.933-78.59-41.546-91.326-68.958-6.116-13.164-5.924-15.381 1.492-17.242 9.132-2.292 7.687-7.33-5.286-18.42l-11.525-9.85 6.726-11.482c3.7-6.314 6.021-12.621 5.157-14.019s-6.564-5.469-12.669-9.047-11.077-7.801-11.046-9.387c.03-1.585 2.242-7.695 4.912-13.58l4.855-10.698-6.32-2.402c-3.477-1.322-7.37-2.401-8.653-2.401s-2.335-7.368-2.335-16.373v-16.376l11.229 1.685c7.351 1.103 11.229.762 11.229-.983 0-1.466-4.211-3.317-9.358-4.112-43.868-6.782-102.169-33.46-125.323-57.349-8.422-8.688-8.455-8.806-2.431-8.86 8.367-.077 18.104-4.653 27.046-11.943v-7.073a40 40 0 0 1-3.6 3.118c-10.577 8.067-31.152 10.694-40.652 5.19-80.392-80.643 3.402-252.45 45.947-284.902l8.627-6.58 7.533 16.793c9.68 21.574 14.108 18.6 6.997-4.697-3.981-13.042-4.49-17.668-2.241-20.378 1.6-1.929 12.106-7.998 23.347-13.489 20.45-9.988 47.995-17.356 69.1-18.488 12.574-.675 12.451-.961 9.015 21.23-2.77 17.883 2.2 14.58 8.45-5.615 5.298-17.116 5.58-17.469 13.847-17.469zm79.96 63.325c-21.522.268-41.702 12.745-51.295 32.562-10.9 22.515-9.43 54.474 4.065 88.434a184 184 0 0 0 12.293 25.116h7.895c-.796-3.119.762-3.558 4.478-.135q.069.063.165.135h9.303a3.88 3.88 0 0 1 3.889 3.89v2.408c1.819.762 3.727 1.538 5.662 2.3 18.748 7.377 39.67 8.633 52.758 3.165 25.757-10.762 44.875-53.483 37.036-82.754l-2.658-9.931 5.578 6.839c7.814 9.58 18.464 38.118 21.636 57.977 8.656 54.18-26.674 98.97-83.583 70.249-11.916-6.014-25.544-16.852-36.43-28.395v8.415c18.404 19.18 39.77 32.434 60.135 35.914 49.327 8.427 80.545-39.842 65.021-100.537-8.425-32.945-32.346-72.602-55.002-91.186-12.233-10.035-37.4-21.638-51.668-23.819a56.7 56.7 0 0 0-9.277-.647m-16.108 9.713q1.369.047 2.708.314c26.86 5.372 39.418 20.654 39.317 47.841-.083 22.623-9.263 39.593-27.393 50.641-4.804 2.928-10.98 5.202-13.726 5.056-11.288-.598-27.395-4.835-30.613-8.053-7.544-7.544-10.544-41.278-5.337-60.032 5.725-20.619 21.352-36.247 35.044-35.767m-479.7 123.002c3.345-2.067 116.04 10.927 149.731 17.264 18.397 3.46 33.835 6.291 34.31 6.291.474 0 .862 10.993.862 24.429-.837 64.367 31.424 97.523 82.344 133.413 6.815 4.456 12.4 8.664 12.41 9.35s-8.671 4.396-19.293 8.247c-34.018 12.332-50.842 19.66-93.8 40.867-23.124 11.415-44.458 20.747-47.41 20.747-8.548-.019-19.654-8.147-35.281-25.836-13.811-15.633-16.426-20.977-52.988-108.217l-38.462-91.77 2.888-16.837c1.59-9.26 3.7-17.337 4.69-17.948m956.237 40.97c201.488-.122 278.341 8.032 303.51 32.196 20.779 19.947 29.083 43.933 29.046 83.893-.028 30.974-5.233 52.482-19.604 81.018-16.842 33.444-38.153 52.365-71.352 63.35-29.722 9.835-45.14 10.311-65.935 2.036-72.303-28.77-255.467-85.163-394.27-121.386-25.107-6.553-78.765-18.106-98.566-21.227-28.112-4.43-27.876-4.344-39.928-14.837l-11.23-9.774 5.689-7.059c12.4-15.387 25.804-37.825 32.046-53.646l6.565-16.643 15.283-2.624c59.874-10.286 159.225-15.208 308.746-15.298m-332.25 122.943c6.552-.256 30.57 4.406 76.214 14.753 97.2 22.035 292.23 79.98 403.628 119.925l41.799 14.99v15.846c0 25.13-7.405 41.378-28.46 62.448-20.05 20.064-45.035 33.724-69.942 38.24-21.298 3.86-29.661 3.09-66.297-6.109-86.527-21.725-203.498-77.37-278.231-132.356-16.183-11.907-17.807-13.96-22.046-27.91-8.15-26.824-30.727-65.952-51.025-88.418-4.8-5.315-8.127-10.263-7.39-11 .235-.234.814-.372 1.75-.409m-334.442 30.965 16.928 6.722c9.309 3.698 23.101 8.664 30.65 11.035l13.725 4.314.735 16.734.735 16.738-9.986 5.092c-50.43 25.727-8.959 99.93 25.112 99.93 3.91 0 7.11 1.361 7.11 3.026 0 6.12-26.877 28.196-41.474 34.068-14.273 5.741-36.78 8.467-52.104 6.31-4.117-.58-18.152-3.378-31.19-6.215-27.825-6.054-80.401-30.417-93.15-43.166-11.28-11.28-25.687-39.934-28.906-57.491-4.953-27.015-7.023-24.314 34.345-44.819 38.243-18.955 88.222-40.077 113.206-47.844zm237.462 31.768c-3.297 3.572-2.574 5.2 4.58 12.582l8.097 8.349c-7.59 11.627-20.275 21.091-25.39 34.25 0 1.511 5.053 5.202 11.23 8.203 12.436 6.042 12.973 7.389 7.302 18.354-4.446 8.599-4.69 7.978 5.242 13.375 18.494 10.048 60.046-2.165 70.472-20.715 31.74-56.474-48.26-110.439-81.533-74.398m27.759-5.943c19.234.047 36.122 11.188 45.743 30.175 28.305 55.857-38.62 76.54-59.3 64.487-3.546-2.066-3.797-3.553-1.47-8.659 1.544-3.39 4.874-6.163 7.398-6.163 9.023 0 4.34-5.242-10.385-11.628-8.234-3.57-14.972-7.64-14.972-9.043 0-3.677 24.955-27.92 24.955-31.114 0-1.198-3.369-5.406-7.486-9.35-4.117-3.946-7.486-8.144-7.486-9.33 0-2.906 15.912-9.394 23.003-9.375m-193.785 37.31c3.529-.084 6.086.3 6.086 1.298 0 .652-2.242 4.863-4.982 9.357-7.247 11.886-6.283 14.834 7.526 23.033 6.835 4.058 12.429 8.673 12.429 10.257s-2.809 7.017-6.24 12.073-6.236 9.955-6.236 10.886 4.771 5.818 10.604 10.864c5.833 5.045 10.016 9.782 9.296 10.527-3.266 3.377-23.776 2.761-31.25.698-36.358-10.036-48.04-67.575-15.627-85.385 3.936-2.035 12.513-3.469 18.394-3.608m327.472 30.047c.402 0 6.58 4.29 13.726 9.526 40.263 29.496 121.66 73.825 182.018 99.126l29.283 12.274 6.247 15.024c17.114 41.16 14.424 73.58-7.325 88.298-16.754 11.339-47.558 8.99-76.203-5.812-47.734-24.663-97.837-75.113-139.028-139.992-12.557-19.778-12.737-20.334-10.286-31.827 1.372-6.434 2.122-19.555 1.667-29.16-.456-9.603-.5-17.457-.099-17.457m-5.991 68.033c2.373-.024 7.055 6.643 20.788 27.441 30.731 46.54 62.406 81.18 95.766 104.733l13.975 9.862 6.601 26.776c3.632 14.725 8.735 33.433 11.34 41.572 2.604 8.139 7.715 24.177 11.36 35.643s6.291 21.746 5.882 22.843c-1.088 2.912-28.857-11.633-41.92-21.958-14.496-11.458-19.8-17.387-37.694-42.113-11.692-16.156-16.069-24.95-21.11-42.42-12.889-44.675-37.46-91.982-63.281-121.845l-14.929-17.267 4.438-7.593c2.44-4.176 5.499-10.195 6.795-13.375.574-1.406 1.13-2.29 1.989-2.299m-301.786 6.576c1.074.032 1.804 1.244 2.895 3.283 2.318 4.33 1.948 7.57-1.871 16.482-11.57 26.993-15.449 47.855-15.857 85.3-.217 19.902-1.707 43.483-3.312 52.404s-3.205 21.255-3.557 27.412l-.64 11.192-9.306-11.383c-17.577-21.507-28.57-55.256-34.576-106.14-3.714-31.474-2.47-37.402 8.32-39.682 14.527-3.071 37.151-16.87 47.658-29.068 6.052-7.026 8.57-9.85 10.246-9.8m7.943 15.05 13.43 15.44c13.935 16.02 41.22 35.59 60.92 43.692 10.884 4.476 11.38 5.124 11.39 14.87.027 29.057-12.804 58.288-31.184 71.042-10.185 7.067-17.998 10.054-22.458 8.586-1.373-.452-6.73-1.532-11.906-2.398-12.105-2.026-26.237-14.458-32.481-28.574-10.45-23.625-7.062-72.43 7.687-110.713zm277.46 8.915 8.94 8.59c18.062 17.35 46.884 67.34 58.35 101.205 24.23 71.56 37.13 162.672 27 190.696-5.499 15.21-16.025 17.115-36.291 6.562-26.375-13.734-74.271-85.871-82.403-124.107-1.259-5.92-3.49-15.258-4.96-20.747-5.827-21.776-10.298-63.986-9.964-94.111l.354-31.728 11.595-9.344c6.377-5.14 15.146-13.322 19.487-18.181zm256.324 26.867c2.28.019 12.526 2.748 24.293 6.517 32.53 10.42 73.096 18.42 86.928 17.14l11.514-1.067 3.078 12.702c1.692 6.986 3.655 22.809 4.365 35.16.916 15.95.302 24.746-2.117 30.351l-3.403 7.896-13.726-12.578c-14.977-13.726-49.036-39.638-82.863-63.044-14.39-9.958-22.906-17.74-25.602-23.394-2.222-4.66-3.534-8.979-2.913-9.6.058-.057.21-.085.446-.083m-319.971 22.13c.252.018.42.052.497.127.704.705-.503 14.069-2.683 29.7-2.18 15.632-4.324 28.782-4.763 29.221s-6.555-10.139-13.59-23.504c-7.088-13.462-11.725-24.96-10.397-25.78 4.776-2.953 27.156-9.907 30.936-9.765zm332.541 7.149h.013c2.645 0 47.665 32.255 71.715 51.38 39.931 31.753 46.14 40.136 44.175 59.666-1.995 19.828-31.021 53.906-56.666 66.53-9.552 4.703-21.423 8.388-29.07 9.022l-12.93 1.071-16.683-39.558c-25.398-60.224-28.505-68.993-24.893-70.197 7.539-2.513 17.879-14.075 21.823-24.403 3.382-8.856 3.973-15.695 2.796-32.369-.814-11.536-.938-20.995-.282-21.142zm-450.876 1.926c.445 0 .945.06 1.502.154 2.745.458 5.871 1.676 6.95 2.708 1.077 1.032 1.641 14.02 1.25 28.86l-.714 26.98-7.014-14.717c-5.75-12.066-6.875-17.417-6.24-29.692.606-11.712 1.15-14.321 4.266-14.293m18.343 3.824 11.54 2.197c6.348 1.207 19.965 1.5 30.258.65 21.431-1.768 18.428-4.21 34.814 28.307 17.88 35.482 29.1 82.915 35.223 148.923 3.669 39.555.219 68.067-9.599 79.306-8.764 10.034-27.279 3.356-44.073-15.897-15.295-17.535-38.211-70.134-46.616-106.999-8.735-38.313-15.278-100.37-12.955-122.882zm-26.045 34.225h.044c4.871.137 20.282 44.089 26.563 75.764 3.778 19.052 9.466 42.566 12.64 52.257 5.168 15.777 5.402 18.336 2.249 24.433-1.937 3.745-6.627 9.003-10.422 11.686-8.982 6.348-18.787 7.87-35.172 5.457-23.668-3.486-25.619-7.322-35.533-69.832-2.721-17.156-5.55-34.2-6.287-37.877-1.19-5.929.23-7.688 12.6-15.6 14.433-9.233 27.174-25.794 30.101-39.12.859-3.907 2.295-7.095 3.217-7.168m-106.539 22.042 9.771 11.097c10.931 12.418 23.12 19.216 34.46 19.216 4.171 0 8.28 1.126 9.13 2.5 1.275 2.063 9.7 51.255 15.492 90.452.76 5.147.39 9.319-.82 9.274-1.21-.047-8.896-2.387-17.08-5.201-23.204-7.979-40.412-21.303-49.57-38.385-4.614-8.604-5.356-14.113-5.385-39.924-.019-16.47.874-34.241 1.985-39.489zm452.452 1.326c1.808-.086 7.252 1.914 13.127 4.891 18.212 9.23 39.4 14.657 53.51 13.708l12.53-.84 21.048 49.906c11.577 27.449 21.65 52.184 22.39 54.965 1.645 6.19-6.573 14.265-18.628 18.303-13.98 4.682-36.71 1.378-56.022-8.145l-12.852-6.338-10.495-33.136c-14.82-46.795-26.873-91.425-25.152-93.145.1-.102.286-.156.544-.169"/><path fill="#4c4c58" d="M923.324 305.56c-1.686.06-3.677.275-6.122.61-24.163 3.312-58.792 31.285-90.909 73.44-91.94 120.673-172.747 276.97-204.736 395.995-7.025 18.632-15.145 44.483-15.111 63.347-1.481 18.38 7.117 9.095 11.668-12.57l4.74-17.813 1.985-7.921c0-5.191 22.938-67.07 36.119-97.44 45.955-105.881 126.535-243.318 154.727-263.903 5.52-4.03 19.005-11.86 29.97-17.399 22.863-11.55 49.516-32.465 69.478-54.523 22.5-24.864 29.761-46.577 19.128-57.21-3.565-3.565-5.877-4.79-10.937-4.613m-458.857-81.669c-4.436-.123-8.173 3.945-13.398 13.672-8.19 15.245-16.03 46.84-21.075 84.92-3.303 24.927-3.771 47.092-2.659 126.028-1.422 44.485 3.518 88.67 5.432 132.974 3.147 29.41 13.149 84.78 16.64 110.595 9.96 73.65 53.84 200.096 61.363 195.432 8.107-5.025-1.276-18.402-2.831-24.3l-6.993-23.284c-9.742-50.658-19.624-70.374-25.077-105.765-5.297-34.379-14.95-86.379-17.575-109.218-3.912-25.61-5.6-51.396-7.595-77.232-6.981-90.337-4.493-139.28 8.932-175.648 21.556-58.398 20.693-54.575 20.901-92.43.204-37.086-2.385-49.5-11.313-54.278-1.715-.918-3.273-1.425-4.752-1.466"/><path fill="#e15469" fill-rule="evenodd" d="M791.237 924.883a5.15 5.15 0 0 0-2.738.073c-1.177.35-8.015-10.824-8.6-9.862-1.332 2.187 4.817 15.365 4.93 16.007s.255 1.03.402 1.425c6.816 18.238 8.564 29.748 6.85 43.312-3.206 25.383-16.403 45.814-33.307 53.734-9.608 4.501-23.759 5.065-38.049 1.75-14.29-3.313-28.636-10.403-38.816-19.987-1.449-1.364-2.755-2.497-3.882-3.355-.563-.43-1.004-.772-1.81-1.188-.402-.208-.724-.564-2.31-.67-.792-.051-4.017-3.845-5.438-2.672-1.421 1.164-.154 6.891-.154 7.896 0 1.834.3 1.835.442 2.205.142.369.279.671.435 1.001.313.66.697 1.399 1.163 2.263a212 212 0 0 0 3.556 6.276c2.767 4.722 6.051 10.069 8.415 13.543 8.764 12.88 22.338 27.514 34.52 37.219 13.288 10.585 28.52 18.202 42.604 21.01 26.75 5.335 51.308-6.926 63.08-31.505 2.458-5.131 5.038-11.623 6.116-15.772 2.807-10.806 3.189-30.296 1.09-42.413-3.826-22.074-12.374-43.95-25.113-64.437-2.347-3.774-4.891-7.422-6.99-10.15-1.048-1.365-1.96-2.479-2.828-3.393-.435-.457-.788-.848-1.54-1.378-.375-.265-.781-.637-2.028-.932"/><path fill="#fecfd7" fill-rule="evenodd" d="M694.469 880.788c-1.4-.052-2.853 0-4.339.417s-2.838 1.05-4.894 2.036c-5.813 2.787-8.903 4.901-13.485 9.234-9.3 8.793-15.495 20.63-18.606 35.073-.967 4.491-1.153 7.08-1.173 17.205-.024 12.082.348 16 2.485 26.312 1.015 4.896 1.795 8.198 3.806 11.072 2.01 2.874 4.846 4.514 8.597 6.382 4.02 2.002 8.052 3.36 12.362 4.149h.02c2.36.418 5.56.385 9.072.289 4.983-.139 7.709-.509 11.284-1.565 19.31-5.704 33.483-22.125 37.888-43.367 2.059-9.93 1.957-22.103-.34-31.33-4.359-17.503-16.95-30.088-34.54-34.55-2.724-.691-5.832-1.274-8.133-1.36z"/><path fill="#b22d4a" d="M705.68 878.35c-3.867.126-7.615.616-11.211 1.476-14.385 3.437-26.487 12.627-34.46 29.095-6.733 13.911-23.491 95.142 45.317 122.635 19.064 7.502 40.337 8.78 53.646 3.219 43.87-18.33 64.062-110.136-16.392-147.958-12.664-5.953-25.303-8.845-36.9-8.467m-12.296 6.007c.031 0 42.076 1.266 41.9 48.728-.182 49.297-45.466 68.857-72.94 48.446-7.67-7.67-9.889-41.735-4.594-60.805 5.821-20.966 21.712-36.857 35.634-36.37"/><path fill="#502552" d="M706.808 874.819a62.4 62.4 0 0 0-12.42 1.648c-16.1 3.847-29.979 14.578-38.612 32.412-15.326 31.66-6.354 75.568 14.64 113.177 20.993 37.61 54.261 69.34 90.17 75.476 25.89 4.423 47.699-6.284 60.394-25.913s16.607-47.871 8.648-78.988c-13.692-53.537-47.817-92.147-83.269-108.813-13.294-6.25-26.824-9.425-39.55-9m.249 7.077c11.405-.372 23.836 2.471 36.29 8.326 33.212 15.613 66.234 52.577 79.427 104.163 7.565 29.579 3.63 55.82-7.734 73.392-11.366 17.573-29.826 26.785-53.262 22.78-32.57-5.564-64.93-35.66-85.185-71.948s-28.152-78.342-14.45-106.648c7.84-16.196 19.743-25.234 33.89-28.614 3.536-.845 7.222-1.328 11.024-1.451" overflow="visible"/><path fill="#e15469" fill-rule="evenodd" d="M513.491 1002.727c-1.55.893-.432 4.242-.611 5.97l-.41 4.005c-.569 5.54-3.146 16.25-5.505 22.664-2.705 7.355-7.316 16.54-12.08 24.503s-9.963 14.873-12.68 17.146c-4.475 3.744-11.365 7.405-16.66 8.9-19.068 5.378-39.536-1.107-50.487-15.79-4.116-5.518-8.41-14.667-10.158-21.724l-1.545-6.247c-1.16-6.978-6.978-4.823-7.002.702l-.23 8.656c-.132 4.983.123 13.614.573 19.599 2.412 32.09 11.813 56.505 28.348 71.52 6.774 6.152 11.643 9.054 19.05 11.28 7.167 2.155 16.91 1.549 24.043-1.355 25.21-10.263 44.245-45.062 50.918-88.463 2.547-16.569 3.296-37.238 1.67-49.536l-.79-5.957c-.231-1.722-2.442-8.179-3.99-7.287z"/><path fill="#fecfd7" fill-rule="evenodd" d="M458.444 937.901c-17.587 2.728-34.4 19.302-38.793 37.427-.988 4.08-1.028 10.858-.752 18.17s.932 14.646 2.114 19.15c3.88 14.778 11.162 25.513 21.45 28.648 7.861 2.396 16.944.248 25.019-4.181s15.275-11.28 19.014-19.501c4.147-9.12 5.125-17.136 4.17-32.719-.603-9.857-1.67-18.246-3.18-24.946s-3.311-11.697-6.172-15.068c-2.457-2.895-6.157-4.725-10.219-5.925s-8.515-1.697-12.65-1.055"/><path fill="#b22d4a" d="M460.732 936.155c-37.933.44-73.396 81.46-56.412 121.238 6.632 15.536 14.468 24.056 27.03 29.383 60.4 25.614 120.76-79.856 58.386-142.332-9.715-7.498-20.408-8.396-29.004-8.289m-.445 4.486c2.297-.182 4.473-.134 6.48.27 13.055 2.683 15.777 6.687 19.339 28.486 5.53 33.844.595 52.275-16.98 63.426-33.061 20.975-50.16-10.749-47.15-52.27 1.43-19.709 21.655-38.595 38.311-39.912"/><path fill="#502552" d="M448.45 936.86c3.197-1.478 6.46-2.574 9.763-3.263 13.21-2.756 27.01 1.256 39.223 13.363 21.681 21.494 29.295 62.696 25.93 103.005-3.364 40.31-17.758 80.182-42.438 99.003-17.794 13.57-37.477 12.568-53.29.446s-27.905-34.975-32.112-64.778c-7.24-51.276 5.554-97.397 26.47-125.116 7.843-10.395 16.862-18.23 26.454-22.66m2.117 6.188c-8.594 3.98-16.903 11.115-24.25 20.853-19.595 25.968-32.105 70.255-25.13 119.663 4 28.33 15.456 49.45 29.614 60.301 14.157 10.853 30.866 11.829 46.974-.455 22.385-17.071 36.636-55.193 39.882-94.085 3.246-38.893-4.565-78.094-23.95-97.31-11.09-10.995-22.87-14.294-34.479-11.873-2.902.606-5.797 1.58-8.661 2.906" overflow="visible"/><path fill="#768ca0" fill-rule="evenodd" d="M655.553 1079.272c2.66 32.725-5.893 39.377-11.937 50.87a85 85 0 0 0 8.115-4.122c11.356-6.597 18.76-14.998 18.778-24.678.004-2.578-.918-4.973-2.208-7.577s-3.035-5.342-5.048-8.031c-4.028-5.378-7.7-6.462-7.7-6.462"/><path fill="#213b51" d="M619.696 1062.175c-25.041.344-45.156 7.595-60.657 21.863-23.367 21.509-29.772 44.298 8.253 76.938 6.945 5.96 7.729 5.673 13.748-5.037l5.33-9.486c17.94-1.67 35.514-4.278 52.52-8.33l9.807 7.884c8.715 7.003 10.224 7.464 13.547 4.142 2.057-2.057 4.457-9.79 5.333-17.188.876-7.396 3.086-16.312 4.913-19.812 6.568-12.586-.845-51.686-52.794-50.974m10.14 6.31c36.164 2.997 68.061 53.409-16.223 68.446-23.978 4.278-30.211 4.151-49.837-.998-19.246-5.05-21.674-8.128-17.787-22.564 6.404-23.784 33.617-42.387 65.376-44.694 7.156-.52 13.208-.626 18.47-.19m32.393 57.835c.2 0 .344.05.42.128.724.723.57 5.298-.343 10.165-.913 4.868-3.015 8.81-4.668 8.766-3.373-.093-15.485-9.538-13.963-10.89 3.027-2.688 15.257-8.003 18.335-8.165h.22zm-102.759 14.548c5.965-.184 19.018 2.517 20.404 4.76.757 1.224.161 4.496-1.323 7.27s-4.135 5.04-5.889 5.04c-4.03 0-18.004-14.396-15.96-16.442.392-.39 1.392-.586 2.768-.628"/><path fill="url(#b)" d="M272.85 1213.847c7.893 18.777 13.471 31.969 14.636 34.558 2.006 4.456 8.29 18.764 13.967 31.794 13.754 31.568 22.224 44.224 41.916 62.645 25.629 23.974 61.08 45.273 94.166 56.574 17.246 5.89 50.206 13.034 60.408 13.09 12.062.066 13.75 2.617 10.71 16.182-13.781 61.497-3.815 130.243 26.955 185.9 13.799 24.96 46.048 58.89 68.465 72.036 22.899 13.428 54.758 23.294 79.873 24.732 20.617 1.18 22.7.82 37.522-6.477 8.747-4.306 18.81-11.638 22.74-16.566 8.227-10.32 10.821-10.919 13.762-3.184 3.915 10.296 22.565 31.595 32.054 36.605 30.836 16.28 44.344-3.192 44.029-63.472-.19-36.28-3.873-64.387-14.066-107.303l-7.706-32.44 4.156-28.695c2.287-15.784 4.155-32.099 4.15-36.254-.012-8.67 6.066-18.646 11.36-18.646 2.97 0 3.604 6.24 3.612 35.56.02 72.506 16.28 129.87 52.3 184.5 31.8 48.23 68.12 71.442 84.194 53.81 9.591-10.521 11.569-22.709 9.913-61.037-.847-19.614-.73-35.614.26-35.556.989.058 9.656 7.457 19.263 16.442 31.874 29.81 76.545 56.573 112.337 67.306 20.987 6.294 62.55 6.315 81.057.035 62.428-21.171 106.657-66.514 128.292-131.516 9.181-27.586 16.442-69.15 16.442-94.14v-15.11l33.388-16.359c33.647-16.486 64.607-36.622 82.194-53.455-5.655-27.793-12-55.586-21.682-83.38-36.617 19.039-65.513 21.08-87.664 11.051-60.908-27.572-190.792-64.99-312.66-99.232h-19.122c99.314 27.316 223.298 65.527 303.709 94.36l41.799 14.991v15.846c0 25.13-7.405 41.377-28.46 62.448-20.05 20.064-45.035 33.724-69.942 38.239-21.299 3.86-29.661 3.09-66.298-6.108-86.526-21.725-203.497-77.37-278.23-132.357-16.183-11.907-17.807-13.959-22.046-27.908-5.258-17.31-16.524-39.738-29.308-59.51h-8.016c1.928 2.636 3.596 5.04 4.898 7.088 10.324 16.253 23.464 44.15 27.335 58.032 6.27 22.492 7.232 56.08 2.098 73.22-21.82 72.846-99.055 94.048-113.938 97.496-18.014 4.174-63.112 3.086-80.618-1.944-38.048-10.933-78.59-41.547-91.326-68.958-6.116-13.165-5.924-15.381 1.492-17.243 9.132-2.292 7.687-7.33-5.286-18.42l-11.525-9.85 6.726-11.482c3.7-6.313 6.021-12.62 5.157-14.018-.863-1.397-6.564-5.47-12.669-9.047s-11.077-7.802-11.046-9.387c.03-1.585 2.242-7.696 4.912-13.58l4.855-10.699-6.32-2.401c-3.477-1.322-7.37-2.402-8.653-2.402s-2.335-7.367-2.335-16.372v-16.376l11.229 1.685c7.351 1.102 11.229.762 11.229-.983 0-1.466-4.211-3.317-9.358-4.113-12.615-1.95-26.425-5.544-40.249-10.246h-16.66c8.366 3.162 17.987 6.564 23.847 8.404l13.725 4.313.735 16.734.735 16.738-9.986 5.092c-50.43 25.727-8.959 99.93 25.112 99.93 3.91 0 7.11 1.362 7.11 3.027 0 6.12-26.877 28.196-41.474 34.068-14.273 5.741-36.78 8.466-52.104 6.309-4.117-.58-18.152-3.377-31.19-6.214-27.825-6.054-80.401-30.418-93.15-43.166-11.28-11.281-25.687-39.934-28.906-57.492-4.953-27.014-7.023-24.313 34.345-44.818 31.876-15.8 71.906-33.103 98.819-42.925h-14.72c-25.415 9.585-43.046 17.58-79.61 35.629-23.124 11.416-44.458 20.748-47.41 20.748-8.548-.019-19.654-8.147-35.281-25.836-7.414-8.393-11.6-13.818-19.545-30.54zm494.993 10.769c-10.091.185-19.607 3.761-26.885 11.646-3.297 3.57-2.574 5.2 4.58 12.581l8.097 8.35c-7.59 11.627-20.275 21.09-25.39 34.25 0 1.51 5.053 5.202 11.23 8.202 12.436 6.042 12.973 7.389 7.302 18.354-4.446 8.599-4.69 7.978 5.242 13.375 18.494 10.048 60.046-2.165 70.472-20.715 24.797-44.12-18.606-86.708-54.648-86.044m.874 5.702c19.234.047 36.122 11.189 45.743 30.175 28.305 55.857-38.62 76.54-59.3 64.488-3.546-2.067-3.797-3.553-1.47-8.66 1.544-3.39 4.874-6.163 7.398-6.163 9.023 0 4.34-5.241-10.385-11.628-8.234-3.57-14.972-7.64-14.972-9.043 0-3.677 24.955-27.92 24.955-31.114 0-1.198-3.369-5.406-7.486-9.35-4.117-3.946-7.486-8.143-7.486-9.33 0-2.906 15.912-9.394 23.003-9.375m-193.785 37.31c3.529-.084 6.086.3 6.086 1.298 0 .652-2.242 4.863-4.982 9.357-7.247 11.886-6.283 14.834 7.526 23.033 6.835 4.058 12.429 8.673 12.429 10.257s-2.809 7.017-6.24 12.073-6.236 9.955-6.236 10.886 4.771 5.819 10.604 10.864 10.016 9.782 9.296 10.527c-3.266 3.377-23.776 2.761-31.25.698-36.358-10.036-48.04-67.575-15.627-85.385 3.936-2.035 12.513-3.469 18.394-3.608m327.472 30.047c.402 0 6.58 4.29 13.726 9.526 40.263 29.496 121.66 73.825 182.018 99.126l29.283 12.274 6.247 15.024c17.114 41.16 14.424 73.58-7.325 88.298-16.754 11.339-47.558 8.99-76.203-5.812-47.734-24.663-97.837-75.113-139.028-139.992-12.557-19.778-12.737-20.334-10.286-31.827 1.372-6.434 2.122-19.555 1.667-29.16-.456-9.603-.5-17.456-.099-17.457m-5.991 68.033c2.373-.024 7.055 6.644 20.788 27.441 30.731 46.54 62.406 81.18 95.766 104.733l13.975 9.862 6.601 26.776c3.632 14.726 8.735 33.433 11.34 41.572 2.604 8.139 7.715 24.177 11.36 35.643s6.291 21.745 5.882 22.843c-1.088 2.912-28.857-11.633-41.92-21.958-14.497-11.458-19.8-17.387-37.694-42.113-11.692-16.156-16.069-24.95-21.11-42.42-12.889-44.674-37.46-91.982-63.281-121.845l-14.929-17.267 4.438-7.592c2.44-4.177 5.498-10.196 6.795-13.375.574-1.407 1.13-2.29 1.989-2.3m-301.786 6.576c1.074.032 1.804 1.244 2.895 3.283 2.318 4.33 1.948 7.57-1.871 16.482-11.57 26.993-15.449 47.856-15.857 85.301-.217 19.9-1.707 43.482-3.312 52.403s-3.205 21.255-3.557 27.412l-.64 11.192-9.306-11.383c-17.577-21.507-28.57-55.256-34.576-106.14-3.714-31.473-2.47-37.402 8.32-39.682 14.527-3.071 37.151-16.87 47.658-29.068 6.052-7.025 8.57-9.85 10.246-9.8m7.943 15.05 13.43 15.44c13.935 16.02 41.22 35.59 60.92 43.692 10.884 4.476 11.38 5.125 11.39 14.87.027 29.057-12.804 58.288-31.184 71.042-10.185 7.067-17.998 10.054-22.458 8.586-1.373-.452-6.73-1.532-11.906-2.398-12.105-2.026-26.237-14.458-32.481-28.574-10.45-23.625-7.062-72.43 7.687-110.713zm277.46 8.915 8.94 8.59c18.062 17.35 46.884 67.34 58.35 101.206 24.23 71.56 37.13 162.671 27 190.695-5.499 15.21-16.025 17.115-36.291 6.562-26.375-13.734-74.271-85.871-82.403-124.106-1.259-5.92-3.49-15.259-4.96-20.748-5.827-21.776-10.298-63.986-9.964-94.11l.354-31.73 11.595-9.343c6.377-5.14 15.146-13.322 19.487-18.181zm256.324 26.867c2.28.019 12.525 2.748 24.293 6.517 32.53 10.42 73.096 18.42 86.928 17.14l11.514-1.067 3.078 12.702c1.692 6.986 3.655 22.809 4.365 35.16.916 15.95.301 24.746-2.117 30.351l-3.403 7.896-13.726-12.578c-14.977-13.726-49.036-39.638-82.863-63.044-14.39-9.958-22.906-17.74-25.602-23.394-2.222-4.66-3.534-8.979-2.913-9.6.058-.057.21-.085.446-.083m-319.971 22.13c.252.018.42.052.497.126.704.704-.503 14.068-2.683 29.7s-4.324 28.782-4.763 29.22c-.439.44-6.555-10.138-13.59-23.503-7.088-13.462-11.725-24.96-10.397-25.781 4.776-2.952 27.156-9.907 30.936-9.764zm332.541 7.149h.013c2.645 0 47.665 32.255 71.715 51.38 39.931 31.753 46.14 40.136 44.175 59.666-1.995 19.828-31.021 53.906-56.666 66.53-9.552 4.703-21.423 8.388-29.07 9.022l-12.93 1.071-16.683-39.558c-25.398-60.224-28.505-68.993-24.893-70.197 7.539-2.513 17.879-14.075 21.823-24.403 3.382-8.856 3.973-15.695 2.796-32.369-.815-11.536-.938-20.995-.282-21.142zm-450.876 1.926c.445 0 .945.06 1.502.154 2.745.458 5.871 1.676 6.95 2.708 1.077 1.032 1.641 14.02 1.25 28.86l-.714 26.98-7.014-14.717c-5.75-12.066-6.875-17.417-6.24-29.692.606-11.712 1.15-14.321 4.266-14.293m18.343 3.824 11.54 2.197c6.348 1.207 19.965 1.5 30.258.65 21.431-1.768 18.428-4.21 34.814 28.307 17.88 35.482 29.1 82.915 35.223 148.923 3.669 39.555.219 68.067-9.599 79.306-8.764 10.034-27.279 3.356-44.073-15.897-15.295-17.535-38.211-70.134-46.616-106.999-8.735-38.313-15.278-100.37-12.955-122.882zm-26.045 34.225h.044c4.871.136 20.282 44.089 26.563 75.764 3.778 19.052 9.466 42.566 12.64 52.257 5.168 15.777 5.402 18.336 2.249 24.433-1.937 3.745-6.627 9.003-10.422 11.686-8.982 6.348-18.787 7.87-35.172 5.457-23.668-3.486-25.619-7.322-35.533-69.832-2.721-17.156-5.55-34.2-6.287-37.877-1.19-5.929.23-7.688 12.6-15.6 14.433-9.233 27.174-25.794 30.101-39.12.859-3.907 2.295-7.095 3.217-7.168m-106.539 22.042 9.771 11.097c10.931 12.418 23.12 19.216 34.46 19.216 4.171 0 8.28 1.126 9.13 2.5 1.275 2.063 9.7 51.255 15.491 90.452.761 5.147.392 9.319-.818 9.274-1.21-.047-8.897-2.387-17.082-5.202-23.203-7.978-40.41-21.302-49.57-38.385-4.613-8.603-5.355-14.112-5.384-39.923-.019-16.47.874-34.241 1.985-39.489zm452.452 1.326c1.808-.086 7.252 1.914 13.127 4.891 18.212 9.23 39.4 14.657 53.51 13.708l12.53-.84 21.048 49.906c11.576 27.449 21.65 52.184 22.39 54.965 1.645 6.19-6.573 14.265-18.628 18.302-13.98 4.683-36.71 1.379-56.022-8.144l-12.852-6.338-10.495-33.136c-14.82-46.795-26.873-91.425-25.152-93.145.1-.102.286-.156.544-.169"/></svg>