<svg xmlns="http://www.w3.org/2000/svg" xmlns:xlink="http://www.w3.org/1999/xlink" width="2000" height="3600"><defs><linearGradient id="e"><stop offset="0" style="stop-color:#4a5824;stop-opacity:1"/><stop offset="1" style="stop-color:#95b149;stop-opacity:1"/></linearGradient><linearGradient id="d"><stop offset="0" style="stop-color:#f1c4b4;stop-opacity:1"/><stop offset="1" style="stop-color:#edb49f;stop-opacity:1"/></linearGradient><linearGradient id="c"><stop offset="0" style="stop-color:#dad7c0;stop-opacity:1"/><stop offset="1" style="stop-color:#cdc9aa;stop-opacity:1"/></linearGradient><linearGradient id="b"><stop offset="0" style="stop-color:#f1c4b4;stop-opacity:1"/><stop offset="1" style="stop-color:#e28665;stop-opacity:1"/></linearGradient><linearGradient id="a"><stop offset="0" style="stop-color:#b5ca7d;stop-opacity:1"/><stop offset=".5" style="stop-color:#a4be60;stop-opacity:1"/><stop offset="1" style="stop-color:#9bb750;stop-opacity:1"/></linearGradient><linearGradient xlink:href="#a" id="g" x1="507.91" x2="507.91" y1="101.566" y2="825.493" gradientTransform="translate(180.794 977.4)scale(1.62284)" gradientUnits="userSpaceOnUse"/><linearGradient xlink:href="#b" id="j" x1="517.545" x2="518.949" y1="394.597" y2="439.946" gradientUnits="userSpaceOnUse"/><linearGradient xlink:href="#c" id="h" x1="506.828" x2="506.829" y1="482.549" y2="916.54" gradientTransform="translate(180.794 977.4)scale(1.62284)" gradientUnits="userSpaceOnUse"/><linearGradient xlink:href="#d" id="i" x1="-670.769" x2="-724.991" y1="269.435" y2="288.867" gradientTransform="translate(-291.467 950.287)scale(1.62284)" gradientUnits="userSpaceOnUse"/><linearGradient xlink:href="#d" id="k" x1="-670.769" x2="-724.991" y1="269.435" y2="288.867" gradientTransform="translate(1695.391 1179.183)scale(1.62284)" gradientUnits="userSpaceOnUse"/><linearGradient xlink:href="#e" id="f" x1="210.309" x2="1768.303" y1="2397.082" y2="2397.082" gradientUnits="userSpaceOnUse"/></defs><path d="M989.305 2137.416a778.998 259.666 0 0 0-778.996 259.666 778.998 259.666 0 0 0 778.996 259.666 778.998 259.666 0 0 0 654.467-118.83l-70.42-93.592 191.658-23.392a778.998 259.666 0 0 0 3.293-23.852 778.998 259.666 0 0 0-778.998-259.666" style="fill:url(#f);fill-opacity:1;stroke-width:2.57447;stroke-linecap:round" transform="translate(-89.516 -253.833)scale(1.1013)"/><g transform="translate(-89.516 -253.833)scale(1.1013)"><path d="M647.504 1073.142c-8.165-.17-16.727.277-25.665 1.47-69.833 9.328-125.365 70.223-135.34 115.38-14.683 68.484 9.01 105.706 68.766 144.4 9.149 5.662 16.634 10.767 16.634 11.346s-2.056 3.202-4.568 5.826c-5.158 5.39-21.951 27.416-28.383 37.227-78.903 121.818-124.182 256.88-143.876 400.031-1.564 11.57-36.927 279.45 22.72 448.717 82.207 233.287 304.766 279.742 544.4 288.603 26.517 1.024 50.263.979 75.615 0 239.635-8.861 462.194-55.316 544.4-288.603 59.648-169.267 24.285-437.147 22.72-448.717-19.693-143.15-64.972-278.213-143.875-400.03-6.432-9.812-23.225-31.838-28.383-37.228-2.512-2.624-4.568-5.246-4.568-5.826s7.485-5.684 16.634-11.347c59.756-38.693 83.45-75.915 68.765-144.398-9.974-45.158-65.506-106.053-135.34-115.38-8.937-1.194-17.499-1.642-25.664-1.471-57.153 1.193-94.899 32.679-106.59 50.61-12.412 19.032-16.456 27.481-24.321 50.824-1.805 5.355-3.639 10.184-3.639 10.184-1.836 1.634-50.35-24.028-125.855-36.383-50.306-8.232-133.87-8.232-184.176 0-75.505 12.355-124.018 38.016-125.855 36.383h-.003s-1.834-4.829-3.638-10.184c-7.865-23.343-11.91-31.792-24.32-50.825-11.693-17.93-49.438-49.416-106.592-50.61z" style="fill:url(#g);fill-opacity:1;stroke-width:1.62284"/><path d="M1003.296 1760.502a462.966 462.966 0 0 0-462.966 462.967 462.97 462.97 0 0 0 59.899 227.759c101.375 53.517 229.043 69.999 361.964 74.914 26.516 1.024 50.262.979 75.614 0 137.089-5.07 268.59-22.442 371.422-80.058a463 463 0 0 0 57.034-222.615 462.966 462.966 0 0 0-462.967-462.967" style="fill:url(#h);fill-opacity:1;stroke-width:1.62284"/><circle cx="631.908" cy="1210.884" r="50.329" style="fill:#000;fill-opacity:1;stroke:#c6d3bb;stroke-width:4.86853;stroke-linecap:round;stroke-opacity:1"/><circle cx="981.688" cy="1496.964" r="13.713" style="fill:#000;fill-opacity:1;stroke:none;stroke-width:6.13435;stroke-linecap:round;stroke-opacity:1"/><circle cx="981.688" cy="1496.964" r="13.713" style="fill:#000;fill-opacity:1;stroke:none;stroke-width:6.13435;stroke-linecap:round;stroke-opacity:1"/><circle cx="1055.093" cy="1496.964" r="13.713" style="fill:#000;fill-opacity:1;stroke:none;stroke-width:6.13435;stroke-linecap:round;stroke-opacity:1"/><ellipse cx="-1424.145" cy="1403.114" rx="48.968" ry="35.919" style="fill:url(#i);fill-opacity:1;stroke:none;stroke-width:5.25839;stroke-linecap:round;stroke-opacity:1" transform="scale(-1 1)rotate(-6.572)"/><g transform="translate(26.373 855.714)scale(1.92122)"><ellipse cx="517.545" cy="418.755" rx="29.168" ry="24.158" style="fill:url(#j);fill-opacity:1;stroke:none;stroke-width:2.73021;stroke-linecap:round;stroke-opacity:1"/><path d="M440.691 1386.027q-.643-.015-1.228.092c-3.801.695-7.49 5.611-9.488 12.645-1.704 5.997-1.817 8.173-.729 14.129 4.296 23.513 41.1 44.106 80.53 20.176 2.523-1.701 5.365-2.966 7.769-4.833 2.457 1.785 5.169 3.254 7.77 4.833 39.428 23.93 76.233 3.337 80.529-20.176 1.088-5.956.975-8.132-.729-14.13-1.998-7.033-5.687-11.95-9.488-12.644-3.115-.569-7.704 1.546-9.547 4.4-1.637 2.537-1.694 3.468-.506 8.343 4.232 17.36-11.467 40.96-56.345 19.347-4.684-2.255-8.184-3.383-11.684-3.383s-7 1.128-11.684 3.383c-44.878 21.612-60.577-1.986-56.345-19.348 1.188-4.875 1.131-5.805-.506-8.341-1.613-2.499-5.328-4.43-8.319-4.492z" style="display:inline;fill:#252b1f;fill-opacity:1" transform="translate(221.345 -420.49)scale(.57232)"/></g><path d="M1319.32 1215.948c-17.288 14.74-20.157 18.733-17.29 24.079 2.726 5.08 4.714 4.66 21.034-4.45 46.021-25.69 79.498-17.99 83.602-16.898 6.796 1.81 11.297 1.156 14.808-2.15 5.176-4.876 5.433-13.244.573-18.686-7.741-8.667-51.785-25.328-102.727 18.105" style="fill:#000;fill-opacity:1;stroke-width:.943805"/><ellipse cx="562.713" cy="1632.011" rx="48.968" ry="35.919" style="fill:url(#k);fill-opacity:1;stroke:none;stroke-width:5.25839;stroke-linecap:round;stroke-opacity:1" transform="rotate(-6.572)"/><path d="M-738.334-546.453c-53.884 0-105.18 21.35-140.413 62.938-66.966 79.058-47.2 196.088 35.74 263.209l21.62 17.496 264.262 213.864a8.934 8.934 0 0 0 11.513-.27l239.092-212.546 21.518-17.462c82.647-67.097 100.964-184.59 32.346-264.05-73.35-84.954-208.05-84.944-291.778-.115l-21.692 21.973-21.987-21.983c-41.666-41.675-96.304-63.054-150.226-63.054" style="fill:#f9787c;fill-opacity:1;fill-rule:evenodd;stroke:none;stroke-width:10.324;stroke-linecap:round;stroke-linejoin:round;stroke-miterlimit:7;paint-order:stroke markers fill" transform="translate(1531.792 2430.743)scale(.93578)"/><path d="M-685.88-461.986c-37.595 0-73.384 14.898-97.974 43.916-46.727 55.164-32.935 136.825 24.943 183.658l15.081 12.208 184.397 149.23a6.23 6.23 0 0 0 8.03-.192l166.834-148.304 15.018-12.189c57.665-46.818 70.448-128.798 22.567-184.247-51.18-59.278-145.17-59.268-203.597-.077l-15.135 15.333-15.342-15.343c-29.072-29.08-67.198-43.993-104.822-43.993" style="fill:#fa8d91;fill-opacity:1;fill-rule:evenodd;stroke:none;stroke-width:7.20385;stroke-linecap:round;stroke-linejoin:round;stroke-miterlimit:7;paint-order:stroke markers fill" transform="translate(1531.792 2430.743)scale(.93578)"/><path d="M-654.91-412.13c-27.985 0-54.623 11.093-72.92 32.693-34.785 41.058-24.518 101.838 18.558 136.7l11.228 9.083 137.244 111.07a4.636 4.636 0 0 0 5.984-.134l124.177-110.39 11.174-9.07c42.922-34.847 52.435-95.868 16.8-137.138-38.096-44.12-108.056-44.114-151.538-.058l-11.267 11.411-11.42-11.416c-21.64-21.649-50.016-32.751-78.02-32.751" style="fill:#fba9ac;fill-opacity:1;fill-rule:evenodd;stroke:none;stroke-width:5.36186;stroke-linecap:round;stroke-linejoin:round;stroke-miterlimit:7;paint-order:stroke markers fill" transform="translate(1531.792 2430.743)scale(.93578)"/></g></svg>