<svg xmlns="http://www.w3.org/2000/svg" xml:space="preserve" width="1000" height="500" viewBox="0 0 1000 500"><g transform="translate(-27.449 -149.66)scale(2.67207)"><rect width="313.121" height="135.41" x="40.833" y="81.864" ry="1.051" style="opacity:1;fill:#000;fill-rule:evenodd;stroke:none;stroke-width:3.7064;stroke-linecap:square;stroke-miterlimit:7;paint-order:stroke markers fill"/><path d="M88.768 128.28a5.293 5.293 0 0 0-5.306 5.306v14.239a1.87 1.87 0 0 1-1.87 1.87H67.354a5.293 5.293 0 0 0-5.306 5.306v13.85a5.293 5.293 0 0 0 5.306 5.306h14.237a1.87 1.87 0 0 1 1.87 1.87v14.237a5.293 5.293 0 0 0 5.307 5.307h13.852a5.293 5.293 0 0 0 5.305-5.307v-14.237a1.87 1.87 0 0 1 1.87-1.87h14.24a5.293 5.293 0 0 0 5.303-5.305V155a5.293 5.293 0 0 0-5.305-5.306h-14.24a1.87 1.87 0 0 1-1.87-1.87v-14.238a5.293 5.293 0 0 0-5.303-5.306z" style="opacity:1;fill:#dfdfe7;fill-opacity:1;fill-rule:evenodd;stroke:none;stroke-width:2.25019;stroke-miterlimit:7;paint-order:stroke markers fill"/><rect width="24.547" height="9.748" x="154.24" y="173.279" rx="0" ry="4.874" style="opacity:1;fill:#dfdfe7;fill-opacity:1;fill-rule:evenodd;stroke-width:.593132;stroke-linecap:square;stroke-miterlimit:7;paint-order:stroke markers fill" transform="rotate(.028)skewX(-.224)"/><circle cx="-263.62" cy="-175.968" r="14.005" style="font-variation-settings:normal;opacity:1;vector-effect:none;fill:#dfdfe7;fill-opacity:1;fill-rule:evenodd;stroke-width:28.0013;stroke-linecap:butt;stroke-linejoin:miter;stroke-miterlimit:4;stroke-dasharray:none;stroke-dashoffset:0;stroke-opacity:1;-inkscape-stroke:none;stop-color:#000" transform="rotate(-179.473)"/><circle cx="-304.232" cy="-175.594" r="14.005" style="font-variation-settings:normal;opacity:1;vector-effect:none;fill:#dfdfe7;fill-opacity:1;fill-rule:evenodd;stroke-width:28.0013;stroke-linecap:butt;stroke-linejoin:miter;stroke-miterlimit:4;stroke-dasharray:none;stroke-dashoffset:0;stroke-opacity:1;-inkscape-stroke:none;stop-color:#000" transform="rotate(-179.473)"/><rect width="24.547" height="9.748" x="196.26" y="173.258" rx="0" ry="4.874" style="opacity:1;fill:#dfdfe7;fill-opacity:1;fill-rule:evenodd;stroke-width:.593132;stroke-linecap:square;stroke-miterlimit:7;paint-order:stroke markers fill" transform="rotate(.028)skewX(-.224)"/></g></svg>