<svg xmlns="http://www.w3.org/2000/svg" xml:space="preserve" width="1000" height="500" viewBox="0 0 1000 500"><rect width="836.683" height="361.826" x="81.659" y="69.087" ry="2.808" style="fill:#dfdfe7;fill-rule:evenodd;stroke:none;stroke-width:9.90377;stroke-linecap:square;stroke-miterlimit:7;paint-order:stroke markers fill;fill-opacity:1"/><path d="M209.746 193.114a14.143 14.143 0 0 0-14.18 14.179v38.046a4.996 4.996 0 0 1-4.996 4.997h-38.044a14.143 14.143 0 0 0-14.178 14.177v37.011a14.143 14.143 0 0 0 14.178 14.177h38.043a4.996 4.996 0 0 1 4.996 4.997v38.043a14.143 14.143 0 0 0 14.18 14.18h37.014a14.143 14.143 0 0 0 14.174-14.18v-38.043a4.996 4.996 0 0 1 4.997-4.997h38.05a14.143 14.143 0 0 0 14.173-14.177v-37.01a14.143 14.143 0 0 0-14.176-14.178h-38.049a4.996 4.996 0 0 1-4.997-4.997v-38.045a14.143 14.143 0 0 0-14.172-14.177z" style="fill:#000;fill-opacity:1;fill-rule:evenodd;stroke:none;stroke-width:6.01267;stroke-miterlimit:7;paint-order:stroke markers fill"/><rect width="65.591" height="26.048" x="384.033" y="313.366" rx="0" ry="13.024" style="fill:#000;fill-opacity:1;fill-rule:evenodd;stroke-width:1.58489;stroke-linecap:square;stroke-miterlimit:7;paint-order:stroke markers fill" transform="rotate(.028)skewX(-.224)"/><circle cx="-675.587" cy="-320.797" r="37.423" style="font-variation-settings:normal;vector-effect:none;fill:#000;fill-opacity:1;fill-rule:evenodd;stroke-width:74.8215;stroke-linecap:butt;stroke-linejoin:miter;stroke-miterlimit:4;stroke-dasharray:none;stroke-dashoffset:0;stroke-opacity:1;-inkscape-stroke:none;stop-color:#000" transform="rotate(-179.473)"/><circle cx="-784.107" cy="-319.799" r="37.423" style="font-variation-settings:normal;vector-effect:none;fill:#000;fill-opacity:1;fill-rule:evenodd;stroke-width:74.8215;stroke-linecap:butt;stroke-linejoin:miter;stroke-miterlimit:4;stroke-dasharray:none;stroke-dashoffset:0;stroke-opacity:1;-inkscape-stroke:none;stop-color:#000" transform="rotate(-179.473)"/><rect width="65.591" height="26.048" x="496.314" y="313.311" rx="0" ry="13.024" style="fill:#000;fill-opacity:1;fill-rule:evenodd;stroke-width:1.58489;stroke-linecap:square;stroke-miterlimit:7;paint-order:stroke markers fill" transform="rotate(.028)skewX(-.224)"/></svg>