<svg xmlns="http://www.w3.org/2000/svg" xmlns:xlink="http://www.w3.org/1999/xlink" xml:space="preserve" width="3000" height="3000"><defs><linearGradient id="k"><stop offset="0" style="stop-color:#ffff21;stop-opacity:1"/><stop offset="1" style="stop-color:#ffff21;stop-opacity:0"/></linearGradient><linearGradient id="j"><stop offset="0" style="stop-color:#f6741c;stop-opacity:1"/><stop offset="1" style="stop-color:#e26009;stop-opacity:1"/></linearGradient><linearGradient id="i"><stop offset="0" style="stop-color:#04080d;stop-opacity:1"/><stop offset="1" style="stop-color:#1e1e1e;stop-opacity:1"/></linearGradient><linearGradient id="h"><stop offset="0" style="stop-color:#040404;stop-opacity:1"/><stop offset="1" style="stop-color:#1e1e1e;stop-opacity:1"/></linearGradient><linearGradient id="g"><stop offset="0" style="stop-color:#f4f4f5;stop-opacity:1"/><stop offset="1" style="stop-color:#f4f4f5;stop-opacity:0"/></linearGradient><linearGradient id="f"><stop offset="0" style="stop-color:#f56c0f;stop-opacity:1"/><stop offset="1" style="stop-color:#f67823;stop-opacity:1"/></linearGradient><linearGradient id="e"><stop offset="0" style="stop-color:#0d692c;stop-opacity:1"/><stop offset="1" style="stop-color:#0b5524;stop-opacity:1"/></linearGradient><linearGradient id="d"><stop offset="0" style="stop-color:#000;stop-opacity:1"/><stop offset="1" style="stop-color:#4c4a4b;stop-opacity:1"/></linearGradient><linearGradient id="c"><stop offset="0" style="stop-color:#000;stop-opacity:1"/><stop offset="1" style="stop-color:#4c4a4b;stop-opacity:1"/></linearGradient><linearGradient id="b"><stop offset="0" style="stop-color:#000;stop-opacity:1"/><stop offset="1" style="stop-color:#4c4a4b;stop-opacity:1"/></linearGradient><linearGradient id="a"><stop offset="0" style="stop-color:#efeff1;stop-opacity:1"/><stop offset="1" style="stop-color:#e1e0e5;stop-opacity:1"/></linearGradient><linearGradient xlink:href="#a" id="o" x1="579.384" x2="641.495" y1="61.484" y2="151.306" gradientTransform="matrix(3.7708 0 0 4.10023 -64.741 319.996)" gradientUnits="userSpaceOnUse"/><linearGradient xlink:href="#b" id="s" x1="570.171" x2="608.4" y1="67.603" y2="72.596" gradientTransform="translate(-343.83 331.374)scale(4.2289)" gradientUnits="userSpaceOnUse"/><linearGradient xlink:href="#b" id="t" x1="570.171" x2="608.4" y1="67.603" y2="72.596" gradientTransform="matrix(-4.2289 0 0 4.2289 4778.546 331.374)" gradientUnits="userSpaceOnUse"/><linearGradient xlink:href="#c" id="r" x1="600.029" x2="604.388" y1="77.271" y2="77.271" gradientTransform="translate(-343.83 331.374)scale(4.2289)" gradientUnits="userSpaceOnUse"/><linearGradient xlink:href="#c" id="u" x1="600.029" x2="604.388" y1="77.271" y2="77.271" gradientTransform="matrix(-4.2289 0 0 4.2289 4783.455 330.093)" gradientUnits="userSpaceOnUse"/><linearGradient xlink:href="#d" id="q" x1="612.121" x2="614.195" y1="109.508" y2="120.137" gradientTransform="translate(-343.83 331.374)scale(4.2289)" gradientUnits="userSpaceOnUse"/><linearGradient xlink:href="#a" id="v" x1="579.384" x2="641.495" y1="61.484" y2="151.306" gradientTransform="matrix(3.7708 0 0 4.10023 -277.756 560.983)" gradientUnits="userSpaceOnUse"/><linearGradient xlink:href="#d" id="x" x1="612.121" x2="614.195" y1="109.508" y2="120.137" gradientTransform="translate(-556.846 572.36)scale(4.2289)" gradientUnits="userSpaceOnUse"/><linearGradient xlink:href="#c" id="y" x1="600.029" x2="604.388" y1="77.271" y2="77.271" gradientTransform="translate(-556.846 572.36)scale(4.2289)" gradientUnits="userSpaceOnUse"/><linearGradient xlink:href="#b" id="z" x1="570.171" x2="608.4" y1="67.603" y2="72.596" gradientTransform="translate(-556.846 572.36)scale(4.2289)" gradientUnits="userSpaceOnUse"/><linearGradient xlink:href="#b" id="A" x1="570.171" x2="608.4" y1="67.603" y2="72.596" gradientTransform="matrix(-4.2289 0 0 4.2289 4565.529 572.36)" gradientUnits="userSpaceOnUse"/><linearGradient xlink:href="#c" id="B" x1="600.029" x2="604.388" y1="77.271" y2="77.271" gradientTransform="matrix(-4.2289 0 0 4.2289 4570.439 571.079)" gradientUnits="userSpaceOnUse"/><linearGradient xlink:href="#e" id="D" x1="353.964" x2="362.784" y1="376.908" y2="381.72" gradientTransform="translate(329.326 390.803)scale(3.10444)" gradientUnits="userSpaceOnUse"/><linearGradient xlink:href="#f" id="C" x1="342.709" x2="441.499" y1="368.189" y2="422.636" gradientTransform="translate(337.555 408.364)scale(3.10442)" gradientUnits="userSpaceOnUse"/><linearGradient xlink:href="#g" id="p" x1="675.54" x2="665.853" y1="86.616" y2="86.392" gradientTransform="translate(337.555 408.364)scale(3.10442)" gradientUnits="userSpaceOnUse"/><linearGradient xlink:href="#g" id="w" x1="675.54" x2="665.853" y1="86.616" y2="86.392" gradientTransform="translate(116.3 645.848)scale(3.10442)" gradientUnits="userSpaceOnUse"/><linearGradient xlink:href="#h" id="n" x1="408.267" x2="434.111" y1="605.61" y2="642.009" gradientTransform="translate(337.555 408.364)scale(3.10442)" gradientUnits="userSpaceOnUse"/><linearGradient xlink:href="#i" id="E" x1="441.748" x2="451.269" y1="565.181" y2="585.321" gradientTransform="translate(337.555 408.364)scale(3.10442)" gradientUnits="userSpaceOnUse"/><linearGradient xlink:href="#i" id="F" x1="446.1" x2="451.269" y1="571.484" y2="585.321" gradientTransform="translate(167.416 408.364)scale(3.10442)" gradientUnits="userSpaceOnUse"/><linearGradient xlink:href="#j" id="m" x1="1825.861" x2="2019.656" y1="1317.578" y2="1572.664" gradientTransform="translate(-1430.775 -29.834)scale(1.6282)" gradientUnits="userSpaceOnUse"/><radialGradient xlink:href="#k" id="l" cx="1500" cy="1000" r="1000" fx="1500" fy="1000" gradientTransform="matrix(1.40622 0 0 1.38073 -609.334 119.278)" gradientUnits="userSpaceOnUse"/></defs><ellipse cx="1500.005" cy="1500.005" rx="1406.227" ry="1380.728" style="font-variation-settings:normal;vector-effect:none;fill:url(#l);fill-rule:evenodd;stroke-width:43.2904;stroke-linecap:butt;stroke-linejoin:miter;stroke-miterlimit:4;stroke-dasharray:none;stroke-dashoffset:0;stroke-opacity:1;-inkscape-stroke:none;stop-color:#000"/><ellipse cx="1500.005" cy="1534.004" rx="1181.216" ry="1121.717" style="font-variation-settings:normal;vector-effect:none;fill:#ffff21;fill-opacity:1;fill-rule:evenodd;stroke-width:35.7615;stroke-linecap:butt;stroke-linejoin:miter;stroke-miterlimit:4;stroke-dasharray:none;stroke-dashoffset:0;stroke-opacity:1;-inkscape-stroke:none;stop-color:#000"/><path d="M2219.362 448.48v.003c-140.276-6.649-235.212 111.393-253.08 241.441-164.192 24.195-250.586 227.65-195.298 383.484 24.898 70.177 89.104 143.05 147.96 167.934 27.78 11.744 28.391 12.45 25.515 29.524-5.746 28.49 18.263 30.71 37.14 32.955-1.308 63.08-7.177 125.907-16.06 188.374-63.013 64.39-116.046 87.57-223.445 94.89-13.053.813-27.405 2.224-39.914 3.828-6.794-4.144-15.924-9.233-27.234-14.438-26.12-12.022-63.869-24.697-111.109-27.831a339.913 344.177 0 0 0-37.159-.387c-29.827 1.33-62.575 6.682-97.797 17.915-23.147-20.493-68.106-53.963-111.012-49.792-20.091 2.318 62.972 9.43 84.467 59.22-65.238 25.531-138.064 71.423-215.922 148.394a517.595 524.088 0 0 1-11.593 11.097 129 129 0 0 1-8.756 1.994c-68.723 13.172-97.524 28.874-171.378 93.45-303.822 265.644-278.126 113.636-403.043 224.692-118.79 105.605 91.725 427.71 393.012 168.269 14.272-12.62 43.883-41.373 65.804-63.897s41.204-39.318 42.853-37.321 8.16 10.757 14.47 19.473c16.35 22.584 48.98 38.084 48.98 43.361 0 1.887-8.221 9.75-18.27 17.47-39.915 30.67-59.035 76.91-55.838 135.066 7.168 130.361 119.024 139.561 202.97 127.742l14.138-3.327a1640.338 1660.916 0 0 1 5.569 16.762c5.48 20.607 13.31 35.16 23.889 46.197a79.828 80.83 0 0 0 5.52 5.237 86.266 87.348 0 0 0 5.993 4.724c27.923 20.117 69.354 12.906 97.287-18.175l12.44-13.836c60.792 14.6 112.932 22.272 248.184 2.715 29.933 20.724 63.176 49.551 99.998 29.65 19.117-11.803 28.677-31.328 31.788-64.907 1.967-21.245 6.08-35.693 14.622-51.383 1.607-2.95 3.043-6.182 4.321-9.658 1.279-3.475 2.399-7.196 3.372-11.13 13.619-55.066-1.649-151.62-15.621-196.3-4.597-14.697-8.382-29.258-8.41-32.36-.043-4.718 6.695-7.664 15.168-11.816 18.152 35.425 102.468 91.993 112.747 88 12.309-4.782 5.248-14.174-20.183-26.851-26.135-13.028-71.245-56.676-71.245-68.936 0-8.431 3.36-6.798 23.734 11.532 24.087 21.673 56.99 37.846 64.37 31.644 8.904-7.483 6.138-11.083-18.074-23.552-12.838-6.612-31.111-18.804-40.6-27.097-14.434-12.613-17.253-17.524-17.277-30.135v-.158c-.037-24.403-7.676-45.435-22.574-62.133-7.666-8.591-13.835-17.245-13.709-19.23.121-1.886 19.597-17.885 20.864-20 27.824-20.903 43.948-53.712 49.824-89.677-.082.495-.058 1.015-.143 1.51 39.547-42.946 70.75-90.57 99.513-141.083a1129.181 1143.346 0 0 1-33.406 8.624c1.61 2.635-51.563 98.485-63.376 103.579-.08 3.757-.765 7.4-1.052 11.13 1.092-14.143 1.046-28.467-.807-42.677.999 7.649 1.71 15.337 1.864 23.031 9.001-21.76 32.43-71.126 41.445-90.008 106.658-23.39 327.69-89.922 407.67-232.567 69.069-138.868-4.075-275.415-134.794-282.93a115.88 117.333 0 0 0-15.572-.358c-4.133.188-8.216.597-12.255 1.213 1.928-23.927 5.247-62.16 7.47-77.614 2.93-20.39 6.979-56.183 10.622-92.102 6.654-14.708 12.151-30.09 16.492-45.914h.98a12.875 13.037 0 0 0-.233.463h.042c.258 0 .481-.19.578-.463 3.428-.013 6.857-.022 10.285-.046 20.472-2.21 29.527-10.046 28.177-35.528-1.087-20.528-.831-20.83 27.414-32.39 230.89-94.5 201.127-535.096-83.316-548.575zm-6.978 35.385q1.02.022 2.05.056c.68.022 1.476.202 2.164.232-1.42-.037-2.797-.274-4.216-.287m-11.566.146c-1.365.048-2.64.274-3.996.346.81-.058 1.586-.212 2.4-.26q.792-.048 1.596-.086m253.046 344.299c-.21.45-.46.87-.67 1.319h.037c.35 0 .631-.343.631-.772zm-268.029 337.717c-3.165 27.16-6.968 54.255-11.284 81.28-3.234 19.431-5.578 33.843-8.537 43.901-54.888 24.823-99.814 83.385-134.941 125.85-11.914 14.635-23.076 28.056-33.735 40.362 5.496-45.476 12.466-115.994 15.073-153.068 8.583.013 17.164.013 25.746-.053 20.47-2.21 29.53-10.045 28.18-35.527-1.088-20.528-.831-20.829 27.412-32.389 37.6-15.388 68.286-39.952 92.086-70.357m-263.027 635.874c1.22 2-3.314 15.733-6.304 24.472l-6.62 19.77c.714 3.394 1.12 6.858 1.665 10.294-2.817-17.717-7.65-35.05-14.806-50.905.602.332 10.094-.775 26.065-3.63m-486.023 190.991c.022 0 .045.025.058.07.038.127.062.58.113.85-.34-.599-.256-.915-.172-.92zm440.574 119.619c-.032 11.62-2.46 18.849-6.09 23.506 3.684-6.086 6.059-13.718 6.09-23.506" style="fill:#969600;fill-opacity:1;stroke-width:3.06391"/><path d="M1983.804 1238.694c1.04 89.18-7.729 177.9-21.949 265.872-5.948 35.283 31.279-22.95 34.428-44.578 6.42-44.103 18.094-159.754 19.632-194.542.773-17.478-19.153-26.78-32.111-26.752m218.473-281.725c1.042 89.179-7.727 177.9-21.949 265.87-5.946 35.283-8.937 54.126-17.987 60.473 30.468-21.604 43.303-7.504 43.303-7.504.655-9.99 5.963-75.92 9.112-97.546 6.422-44.104 18.094-159.754 19.633-194.543.772-17.478.656-24.101 6.767-26.752-12.958.04-25.921-.027-38.877 0m-188.565 803.877a1151 1151 0 0 1-34.057 8.683c1.64 2.654-52.573 99.168-64.618 104.295-.21 9.818-1.128 19.564-2.782 29.08 40.32-43.243 72.133-91.196 101.457-142.058m-56.413 13.77c-13.039 2.824-24.402 5.025-33.64 6.658 1.246 2.013-3.378 15.84-6.426 24.64l-6.748 19.907a210.6 210.6 0 0 1 4.558 39.429c9.18-21.911 33.065-71.623 42.256-90.634m-60.214 10.313v.017h-.017zm-40.788 306.308q.03 1.133.03 2.183.133-1.079.223-2.183zm21.027 2.655c-.038 39.802-28.267 28.663-37.115 38.014 8.025 34.394 106.664 100.646 117.94 96.32 12.547-4.816 5.349-14.273-20.58-27.036-26.646-13.119-72.639-57.07-72.639-69.414 0-8.49 3.429-6.847 24.2 11.612 24.558 21.822 58.104 38.107 65.629 31.863 9.077-7.534 6.259-11.16-18.427-23.713-13.09-6.66-31.718-18.936-41.394-27.287-14.721-12.704-17.591-17.65-17.614-30.359" style="fill:#000;stroke-width:3.10442"/><path d="M1233.418 2168.082c-15.18-.202-29.537-.158-37.598.491-13.13 1.056-25.272 2.915-34.106 5.797-18.503 6.035-37.452 21.417-50.78 38.956-15.034 19.78-25.512 44.002-31.44 71.687-5 23.348-5.093 45.954.267 66.06 10.74 40.275 44.34 71.155 90.739 86.414 13 4.274 29.653 7.597 43.358 8.66 20.874 1.615 41.232-.392 56.28-7.562 4.553-2.17 8.286-5.02 11.757-8.192 3.47-3.17 6.492-5.948 8.937-11.4 1.417-3.156 2.334-8.646 1.631-12.828-.704-4.183-2.031-7.555-3.954-12.449-2.238-5.696-3.886-9.668-6.238-13.43-2.353-3.761-6.526-7.61-10.557-9.271-3.862-1.59-4.004-1.057-5.178-1.177a63 63 0 0 0-3.723-.247c-2.707-.115-5.986-.155-9.58-.115-1.77.018-2.464-.094-4.408-.151 1.538-.104 2.915.125 4.65-.358 6.973-1.95 11.68-8.455 13.679-13.103 3.173-7.377 4.576-15.794 7.695-37.278 6.573-45.302 11.262-66.591 21.197-96.583 2.164-6.53 5.826-16.614 7.774-21.463a373 373 0 0 0 2.812-7.198 98 98 0 0 0 .911-2.498c.127-.367.236-.686.393-1.231.08-.272.173-.546.321-1.314.076-.387.188-.84.232-2.015.02-.586.056-1.349-.195-2.752-.124-.702-.8-2.734-.8-2.734l-2.795-4.16c-4.102-4.103-4.555-2.996-5.3-3.244s-1.187-.352-1.625-.456a42 42 0 0 0-2.516-.509 175 175 0 0 0-6.337-.964 387 387 0 0 0-16.23-1.872c-8.908-.825-24.094-1.302-39.273-1.505zm-23.367 187.829c7.435 5.057 15.954 9.14 25.63 11.817 1.972.547 3.861.926 5.77 1.33-.652-.042-2.94-.095-3.005-.103-10.694-1.615-20.452-6.335-28.395-13.042z" style="fill:#fff;fill-opacity:1;fill-rule:evenodd;stroke-width:3.56811;stroke-linecap:round;stroke-linejoin:bevel;stroke-miterlimit:7"/><path d="M1723.821 2059.02a13 13 0 0 0-3.341.316c-1.673.373-2.238.646-3.851 1.207a428 428 0 0 0-6.118 2.194 1294 1294 0 0 0-17.632 6.61c-45.145 17.27-109.325 38.016-170.592 55.114-12.24 3.418-25.397 7.091-29.291 8.186-3.344.941-6.054 1.524-8.999 3.978s-4.089 5.852-4.808 8.44c-1.356 4.882-1.685 11.082-1.691 17.226-.018 17.296-2.88 45.138-5.166 54.078-1.645 6.429-4.312 11.917-6.796 16.196 0-.083-.018-.098-.018-.181.05-6.863.862-17.29 2.492-31.433 2.078-18.034 2.454-33.293.989-45.718-1.467-12.426-4.561-22.32-11.284-29.044-4.368-4.365-10.497-7.027-16.784-6.966s-12.497 2.26-19.354 5.833c-15.916 8.296-26.92 18.233-61.433 55.03-1.295 1.381-1.97 1.844-3.075 2.923.247-1.434.548-3.05.691-4.268.25-2.111.756-4.265-.818-7.646s-5.808-5.286-7.974-5.591c-2.165-.302-3.65-.193-5.523-.193-3.356 0-6.437.036-9.757 1.49-3.318 1.458-5.415 3.651-7.797 6.155-4.522 4.755-7.768 11.514-11.896 20.785-4.127 9.272-8.536 20.707-12.788 32.985-8.504 24.556-16.368 52.302-19.674 72.555-3.356 20.544-3.868 30.709-2.287 46.263 2.386 23.45 8.648 43.179 19.088 57.928 3.338 4.718 6.037 13.474 7.918 31.105 3.023 28.325 11.276 49.403 26.406 64.768 4.774 4.848 10.376 9.565 15.687 12.193 8.632 4.275 18.313 5.15 27.594 2.239 9.279-2.912 18.134-9.097 27.51-18.125l10.567-10.174a7.77 7.77 0 0 0-1.025-12.023l-11.472-7.792c-3.036-2.063-5.555-4.32-8.295-6.565 5.04 1.312 9.546 2.442 19.489 5.505 31.28 9.635 41.194 12.109 64.592 16.122 32.133 5.51 50.721 6.954 88.883 6.918 46.319-.042 76.234-3.476 112.043-12.932 14.304-3.776 20.89-6.095 52.83-18.598.6-.234 1.032-.337 1.626-.557-1.841 2.663-2.744 4.566-5.986 8.204-1.953 2.193-3.643 4.468-4.988 6.694-1.348 2.225-2.814 3.432-2.814 8.111 0 4.864 2.016 6.924 3.85 9.278 1.833 2.354 4.067 4.589 6.585 6.773 5.036 4.37 10.97 8.45 17.116 10.75 10.616 3.973 23.092 4.562 33.707 1.383 5.99-1.796 11.127-5.637 16.074-10.228 4.946-4.592 9.388-9.893 12.199-15.645 5.351-10.952 6.256-23.419 4.286-43.844-.981-10.172-1.119-15.777-.545-18.827.574-3.049 1.468-4.452 4.947-8.518 16.853-19.699 24.415-50.153 24.611-88.027.197-37.876-7.168-83.47-21.942-134.042-5.09-17.418-7.815-26.98-12.564-34.173-4.749-7.192-12.113-10.15-20.046-12.078-25.707-6.25-42.602-25.975-49.518-60.179-1.468-7.256-2.265-11.498-4.258-15.498-.996-2-2.67-4.357-5.48-5.687a10.5 10.5 0 0 0-4.105-.981z" style="fill:#fff;fill-opacity:1;fill-rule:evenodd;stroke-width:7.13619;stroke-linecap:round;stroke-linejoin:bevel;stroke-miterlimit:7"/><path d="M2217.715 1272.625c-15.631.03-26.85 3.205-41 9.683-30.334 13.888-57.184 38.78-110.856 99.76-59.035 67.073-112.737 121.808-135.497 139.432-40.427 31.306-79.442 45.286-142.573 50.35-22.61 1.813-45.472 4.275-63.612 6.719-9.068 1.222-16.935 2.429-23.167 3.595-3.116.583-5.808 1.15-8.21 1.764-2.4.613-4.035.785-7.627 2.795-2.504 1.4-5.91 3.841-8.156 8.277-1.009 1.994-1.438 4.181-1.655 6.299-8.646-2.293-12.99-3.355-23.458-6.238-34.98-9.633-48.272-11.082-108.861-11.405-96.173-.515-156.516 13.329-237.883 54.673-50.502 25.66-85.535 50.482-125.99 89.288-3.538 3.394-6.023 5.475-9.095 8.265-.051-.094-.017-.154-.066-.25-1.99-3.437-5.886-6.46-9.283-7.633-6.797-2.343-10.311-.745-13.315.109-2.805.797-12.405 3.036-19.385 4.42-44.46 8.823-93.363 40.903-154.215 97.05-107.147 98.86-176.652 139.293-287.99 168.063-56.19 14.52-86.427 28.468-110.11 52.835-23.729 24.417-34.022 56.126-30.22 88.07 3.803 31.945 20.908 63.89 49.296 92.278 27.07 27.072 55.967 44.224 90.76 53.594 73.387 19.764 160.361-7.005 245.263-70.875 35.147-26.44 98.239-86.648 125.275-119.64l13.624-16.627a15.26 15.26 0 0 0 3.407-8.579l1.239-17.656c2.489 11.533 6.038 22.468 10.791 32.686 18.157 39.036 53.25 66.623 100.482 79.2 16.717 4.451 42.149 5.699 70.334 5.62 28.184-.079 57.9-1.877 79.842-5.74a7789 7789 0 0 1 23.041-4.027c2.985-.517 5.421-.935 7.107-1.22.842-.141 1.506-.248 1.915-.315l.37-.06c.017 0 0 0-.133.018-.128.017.438.098-1.752.115 0 0 2.752-.25 3.552-.449s1.342-.39 1.777-.558c.873-.333 1.332-.57 1.699-.763.732-.387 1.05-.603 1.327-.783.552-.359.822-.563 1.109-.776a55 55 0 0 0 1.698-1.31c1.234-.98 2.812-2.265 4.718-3.843a1299 1299 0 0 0 14.418-12.151c17.566-14.994 42.932-25.151 54.31-25.151-1.735 0 .619.154 3.08 1.456s5.418 3.41 7.59 5.511l11.63 11.236a15.23 15.23 0 0 0 15.376 3.498l106.946-35.555c58.482-19.443 93.781-31.733 118.313-42.352 24.533-10.62 38.825-20.19 51.927-32.191 6.31-5.78 9.948-8.348 12.182-9.374s4.01-1.407 9.707-1.407c28.152 0 55.023-15.372 78.744-41.328 29.227-31.98 40.76-58.758 40.758-95.958 0-26.872-2.86-37.968-19.379-71.717-8.672-17.72-17.658-32.26-28.806-47.094l13.618 12.776a15.23 15.23 0 0 0 11.343 4.093l37.231-2.268c75.49-4.6 147.713-24.006 222.486-59.578 82.007-39.013 149.91-90.366 192.475-146.855 38.07-50.522 55.273-106.536 46.203-158.022-13.425-76.215-71.29-128.998-146.8-133.174-6.912-.382-12.662-.617-17.875-.608zm-520.52 518.487c10.234 0 15.869 3.605 22.97 19.24 8.764 19.3 6.458 38.892-.363 47.003-7.084 8.416-9.751 8.073-14.67 5.735-4.917-2.338-13.028-11.253-17.698-27.933-4.17-14.896-3.397-27.786-.563-35.138 2.832-7.353 5.043-8.907 10.325-8.907m-457.702 131.52c4.52.566 10.905 4.169 16.122 14.31 4.415 8.582 6.484 17.738 6.694 34.313.136 10.648-.317 16.395-.91 18.74-.593 2.346-.649 2.47-3.904 5.942-4.576 4.88-8.687 5.604-14.224 4.04-5.538-1.566-12.218-6.567-16.651-15.905-2.932-6.178-5.317-18.306-5.366-29.432-.05-11.125 2.987-21.796 4.044-23.41 5.193-7.924 9.677-9.164 14.195-8.598m188.703 51.023c.04.128.065.583.117.854-.446-.77-.183-1.072-.117-.854" style="fill:#fff;fill-opacity:1;fill-rule:evenodd;stroke-width:20.1842;stroke-linecap:round;stroke-linejoin:bevel;stroke-miterlimit:7"/><path d="M1212.1 2039.026c-132.035 27.248-92.008 131.276 11.46 91.221 31.17-11.363 73.786-21.805 64.259-64.228-11.99-37.486-62.474-29.727-75.719-26.993" style="display:inline;fill:#f8d5e7;fill-opacity:1;stroke-width:3.10442"/><path d="M1789.71 2012.065c-8.739.849-16.86 4.867-23.562 11.57-10.502 10.503-17.872 24.73-19.827 38.78-2.71 19.494 4.524 39.493 19.197 54.456 10.256 10.458 22.48 17.483 35.877 20.378 4.035.872 7.245 1.095 13.066.94 8.236-.218 13.408-1.326 19.772-4.275 16.938-7.843 27.163-22.775 28.99-41.939 1.114-11.693-1.245-23.882-6.628-34.962-8.747-18.008-26.003-33.443-45.68-41.303-4.184-1.67-8.267-2.834-12.29-3.42a37 37 0 0 0-8.92-.223z" style="fill:#fff;fill-opacity:1;fill-rule:evenodd;stroke-width:2.52304;stroke-linecap:round;stroke-linejoin:bevel;stroke-miterlimit:7"/><path d="M1722.255 2062.033a98 98 0 0 0-9.863.02l-1.88.686a1294 1294 0 0 0-17.633 6.61c-45.145 17.27-109.325 38.016-170.592 55.114-12.24 3.418-25.397 7.09-29.291 8.186-1.75.492-3.326.888-4.851 1.504-2.419 4.852-2.407 10.892-3.402 20.496-1.163 11.22-3.74 27.258-9.422 42.095-.922 8.473-2.008 15.79-2.99 19.627-1.644 6.428-4.31 11.917-6.797 16.196 0-.083-.015-.098-.015-.181.032-4.513.394-10.567 1.103-18.203-2.542 3.909 6.573 22.87 3.329 25.987-18.438 17.713-37.132 26.911-60.168 19.158-27.55-9.27-78.163-55.149-51.746-83.867 4.776-5.193-24.234-3.9-28.266-6.25-1.371 1.11-2.582 2.383-3.88 3.747-4.522 4.755-7.768 11.514-11.896 20.785-4.127 9.272-8.536 20.707-12.787 32.985-7.89 22.787-15.235 48.317-18.894 68.061a397 397 0 0 0 .188 22.87c.866 23.505 3.846 49.334 9.223 74.737a85 85 0 0 0 6.61 11.077c3.337 4.719 6.036 13.475 7.917 31.105q.762 7.169 1.983 13.728c9.888 24.967 22.81 47.017 39.108 62.712q.502.273 1 .522c8.634 4.275 18.315 5.15 27.595 2.237 9.28-2.912 18.135-9.097 27.51-18.123l10.568-10.174c3.553-3.424 3.057-9.25-1.025-12.023l-11.472-7.792c-3.036-2.063-5.555-4.32-8.295-6.567 5.04 1.314 9.546 2.444 19.489 5.505 31.28 9.637 41.194 12.11 64.592 16.124 32.133 5.51 50.721 6.954 88.883 6.917 46.319-.044 76.234-3.477 112.043-12.932 14.302-3.776 20.89-6.094 52.83-18.597.6-.234 1.032-.337 1.626-.557-1.843 2.663-2.744 4.566-5.986 8.204-1.953 2.193-3.643 4.468-4.99 6.693-1.344 2.226-2.812 3.433-2.812 8.113 0 4.86 2.016 6.923 3.85 9.277 1.833 2.353 4.067 4.587 6.585 6.773 4.974 4.315 10.826 8.352 16.892 10.665 10.245 1.351 19.137 2.613 26.545 3.043a48 48 0 0 0 7.386-1.575c5.99-1.796 11.127-5.637 16.074-10.23 4.946-4.593 9.388-9.892 12.199-15.643 5.351-10.953 6.256-23.42 4.286-43.844-.981-10.172-1.119-15.777-.545-18.827s1.468-4.452 4.947-8.518c8.882-10.383 15.182-23.754 19.185-39.624 1.196-42.626 2.652-98.001-8.7-153.366-4.83-23.562-17.829-47.2-25.097-68.504-4.33-3.564-9.686-5.455-15.329-6.827-25.707-6.25-42.602-25.974-49.52-60.178-1.466-7.256-2.263-11.499-4.256-15.498a14.5 14.5 0 0 0-1.661-2.625 79 79 0 0 0-9.488-1.032z" style="fill:url(#m);fill-rule:evenodd;stroke-width:7.13619;stroke-linecap:round;stroke-linejoin:bevel;stroke-miterlimit:7"/><path d="M1678.552 2069.206c-8.301 2.942-31.416 16.65-40.382 19.67 9.147 42.696 53.29 318.76 52.277 382.347a692 692 0 0 0 33.403-13.31c35.595-135.531 10.19-279.938-45.298-388.707" style="fill:#e65d11;fill-opacity:1;fill-rule:evenodd;stroke-width:7.13619;stroke-linecap:round;stroke-linejoin:bevel;stroke-miterlimit:7"/><path d="M1578.508 2101.027c-6.552 2.547-45.487 4.255-52.187 6.762-24.458 52.753 8.13 312.26 23.878 379.855 11.018-.078 24.456-.483 33.68-1.25 49.74-114.435 38.186-253.001-5.37-385.367" style="fill:#e65d11;fill-opacity:1;fill-rule:evenodd;stroke-width:6.44171;stroke-linecap:round;stroke-linejoin:bevel;stroke-miterlimit:7"/><path d="M1520.834 2277.344a8.93 7.07 0 0 0-5.12 2.045l-8.244 6.64c-23.156 18.653-30.89 40.519-23.668 66.573 3.942 14.234 10.195 24.397 21.493 34.75 31.282 28.674 87.799 40.748 143.517 32.246 27.056-4.13 59.331-16.634 79.377-30.85 31.37-22.25 45.363-49.938 36.532-76.507-3.858-11.607-10.117-20.685-20.825-30.383-4.873-4.415-11.18-9.041-16.897-12.714-2.86-1.837-5.525-3.412-8.005-4.645-1.239-.617-2.406-1.152-3.83-1.63-1.422-.478-2.828-1.541-7.376-.578-1.371.292-5.498 2.166-6.862 4.498s-1.165 3.73-1.138 5.249c.06 3.036.652 7.056 1.755 14.862.559 3.947.195 6.165.018 6.697-.06 0 .023-.035-.053-.018-1.46.31-2.07.363-4.483-.34-2.414-.704-6.309-2.44-11.8-5.53l-10.042-5.656a8.93 7.07 0 0 0-7.041-1.154l-14.775 2.486c-20.29 3.414-34.754 4.896-48.374 5.051l-12.3.144a8.93 7.07 0 0 0-7.11 2.925l-6.01 6.563c-9.147 9.991-15.92 13.415-22.007 13.914-.253.018-.211 0-.445.02-.186-.79-.378-1.273-.467-2.627-.4-6.293-1.815-11.87-5.86-16.66-4.045-4.792-9.939-8.127-17.578-11.529l-6.741-3a8.93 7.07 0 0 0-5.64-.84" style="fill:url(#n);fill-opacity:1;fill-rule:evenodd;stroke-width:2.28215;stroke-linecap:round;stroke-linejoin:bevel;stroke-miterlimit:7"/><path d="M1465.942 2243.88c-17.158 15.244-34.786 22.64-56.153 15.45-4.482-1.511-9.578-3.99-14.849-7.205-12.589 66.703-13.982 137.797-.09 207.391 4.455 1.158 8.996 2.355 17.867 5.087 9.425 2.901 16.907 5.156 23.405 6.996 4.199-53.875 17.596-149.018 29.82-227.721zm-70.875 216.745a488 488 0 0 0 6.336 27.303q3.497 1.501 7.004 2.96l5.614-5.41c3.552-3.424 3.057-9.25-1.026-12.023l-11.471-7.792c-2.347-1.593-4.388-3.306-6.457-5.038" style="fill:#e65d11;fill-opacity:1;fill-rule:evenodd;stroke-width:7.13619;stroke-linecap:round;stroke-linejoin:bevel;stroke-miterlimit:7"/><path d="M2219.638 1255.193c-78.272 3.504-140.021 84.16-185.594 138.57-102.176 123.955-150.157 161.48-294.628 171.205-26.17 1.611-57.45 5.538-69.511 8.72-68.14 17.973-223.12-67.923-476.39 125.656-9.766 7.464-24.82 13.524-41.394 16.661-70.067 13.264-99.429 29.076-174.728 94.097-309.762 267.485-283.563 114.424-410.923 226.247-121.11 106.338 93.517 430.672 400.695 169.435 14.551-12.706 44.742-41.658 67.091-64.339s42.012-39.59 43.693-37.58 8.318 10.833 14.752 19.61c16.669 22.74 49.936 38.347 49.936 43.66 0 1.9-8.382 9.818-18.626 17.59-40.696 30.882-60.189 77.44-56.928 136.001 7.307 131.264 121.35 140.53 206.935 128.628l15.48-3.596 4.615 17.123c7.449 27.667 19.154 44.495 36.093 56.546 28.471 20.257 70.712 12.998 99.19-18.298l12.686-13.934c61.98 14.701 115.137 22.425 253.036 2.734 30.517 20.868 64.41 49.894 101.954 29.856 19.49-11.885 29.236-31.544 32.408-65.356 2.006-21.393 6.2-35.941 14.91-51.74 26.204-47.532 8.198-167.177-8.081-218.594-4.687-14.798-8.548-29.46-8.575-32.585-.12-12.757 49.657-12.661 49.592-57.765-.038-24.57-7.828-45.75-23.018-62.561-7.815-8.652-14.104-17.365-13.974-19.366.124-1.9 19.98-18.007 21.27-20.137 58.697-43.55 66.77-138.288 35.483-206.754 3.87 2.112 367.296-53.273 475.855-244.486 70.419-139.83-4.154-277.323-137.43-284.89a118 118 0 0 0-15.875-.358m2.523 29.12a127 127 0 0 1 14.114.201c31.59 2.19 64.252 15.926 90.296 39.57 48.982 44.471 59.338 126.226 23.884 195.246-55.397 107.839-236.633 226.733-427.253 238.422-44.188 2.71-44.313 0-56.463-12.94-21.681-23.084-51.978-45.009-62.197-45.009-5.486 0-9.973 1.09-9.973 2.421s13.6 15.891 30.232 32.36c32.967 32.647 59.556 79.444 69.193 121.77 15.43 67.763-49.497 119.192-59.388 126.571-16.756 12.5-23.345 14.905-40.844 14.905-18.973 0-22.416 1.562-37.968 17.208-20.063 20.181-30.596 28.803-275.043 106.165-21.771-41.092-68.218-16.584-93.338 8.83-11.532 13.132-18.9 13.956-51.439 19.526-276.89 47.385-270.702-133.913-236.712-232.706 9.754-28.35 5.173-38.2-7.92-17.019-18.85 30.504-26.245 60.408-28.32 114.554l-1.984 51.739-16.826 21.997c-84.805 95.073-213.176 216.274-352.322 184.58-136.142-32.942-212.726-218.546-10.78-260.341 116.633-23.047 214.131-90.465 298.93-170.417 46.21-44.992 97.706-87.523 163.01-99.376 20.903-2.865 20.158-3.983 11.564 17.256-5.815 14.371 9.34 4.305 34.591-22.969 65.347-70.58 163.241-107.838 198.926-119.683 101.064-30.073 203.197-31.638 302.953 2.789l10.351 2.327-9.629-10.478c-5.292-5.762-8.058-11.442-6.147-12.623 6.544-4.045 53.027-10.487 94.417-13.085 116.02-7.28 156.078-33.57 290.78-190.842 55.39-64.672 81.546-88.6 111.376-101.871 12.393-5.513 25.935-8.488 39.929-9.077m-983.424 624.385c-36.612 1.012-40.62 64.987-16.923 93.15 15.343 18.235 55.346 22.515 55.346-27.643 0-39.507-17.877-66.075-38.423-65.507m555.42 109.94c7.793.321 16.432 3.396 25.969 9.222 44.85 27.404 41.253 71.632 27.253 87.906-41.754 48.544-130.88-23.27-79.186-84.704 7.319-8.7 15.943-12.837 25.963-12.425m-70.722 46.984c3.495-.106 5.102 4 7.056 15.74 6.204 37.237 27.354 61.65 58.863 67.952 11.577 2.316 13.222 5.036 23.176 38.296 43.079 143.958 13.122 206.33-2.693 219.384-5.45 4.498-6.288 10.289-4.269 29.612 3.137 30.016.373 41.29-13.551 55.214-16.41 16.41-46.692 12.834-63.574-7.506-4.705-5.669-3.91-8.298 5.475-18.095 10.886-11.361 14.328-21.354 7.356-21.354-1.994 0-13.639 4.417-25.873 9.81-76.255 33.62-203.751 35.588-296.146 4.572-16.778-5.632-33.417-10.24-36.974-10.24-10.18 0-4.572 9.416 12.132 20.378l15.292 10.035c-18.131 20.784-40.77 41.354-66.181 20.802-18.264-15.366-28.025-36.984-30.244-66.955-1.154-15.6-4.555-28.783-8.56-33.21-11.036-12.194-19.276-41.65-19.276-68.879 0-30.127 10.485-73.03 29.88-122.25 12.412-31.498 15.082-35.324 25.502-36.53 11.019-1.277 11.488-.674 8.84 11.38-3.654 16.645 2.836 16.48 17.493-.448 104.76-120.998 99.277-19.84 92.878 25.539-4.79 33.967-.962 46.044 9.92 31.298 9.467-12.828 14.12-35.071 14.145-67.588.017-20.527 1.673-30.619 5.196-31.65 78.27-21.098 156.059-44.472 231.383-74.603 1.037-.43 1.946-.68 2.754-.704m-427.308 120.363c-40.542 94.671-29.899 168.792-46.584 171.168-4.948.705-16.735-2.666-26.188-7.489-34.924-17.815-36.307-56.594-3.02-84.503 18.403-15.43 15.533-19.383-5.99-8.253-71.068 36.75-32.19 130.37 39.23 125.214 15.433-1.114 16.666-.315 22.604 14.57 5.967 14.963 5.837 16.186-2.68 24.714-32.01 32.043-208.027 8.019-182.9-127.906 9.289-50.253 33.14-86.654 68.594-104.69 30.548-15.54 138.258-5.917 136.934-2.824" style="fill:#50a3d0;fill-opacity:1;stroke-width:3.10442"/><path d="M1238.736 1908.699c-36.612 1.012-40.62 64.987-16.923 93.15 15.343 18.235 55.345 22.515 55.345-27.643 0-39.507-17.876-66.075-38.422-65.507" style="fill:#3fc9eb;fill-opacity:1;stroke-width:3.10442"/><path d="M1689.457 1778.174c33.147-11.935 59.177 43.961 47.828 77.498-7.349 21.715-41.677 39.58-59.268-5.347-13.858-35.388-7.164-65.454 11.44-72.15" style="fill:#3fc9eb;fill-opacity:1;stroke-width:2.9862"/><path d="M1550.348 1921.412c-6.105.305-7.067 5.89 1.825 11.716 15.771 10.332 13.883 34.706-30.256 29.582-22.36-2.595-24.692-1.968-45.439 12.302-25.563 17.586-36.418 17.752-34.56.523 1.623-15.059-7.915-12.668-13.594 3.407-8.244 23.328 21.45 39.512 58.917 5.25 7.738-7.074 14.162-8.397 37.697-7.766 23.204.622 30.358-.806 39.308-7.846 25.61-20.144 2.335-47.91-13.898-47.167" style="fill:#50a3d0;fill-opacity:1;stroke-width:3.10442"/><path d="M1128.843 1808.346c4.554 26.39 33.526 63.47 96.855 76.773 63.33 13.306 161.01 2.836 254.762-22.683 93.75-25.518 183.566-66.086 227.442-114.944 43.873-48.856 41.804-105.999-.416-132.39-2.013-1.26-223.175-173.959-527.953 123.615-36.477 35.615-55.242 43.238-50.69 69.629" style="fill:#f6f6f6;fill-opacity:1;fill-rule:evenodd;stroke:none;stroke-width:19.0782;stroke-linecap:round;stroke-linejoin:bevel;stroke-miterlimit:7;stroke-opacity:1"/><path d="M1777.402 1881.788c125.58-49.047 148.658 60 40.066 82.751-32.331 7.443-73.763 21.892-88.873-18.877-10.358-37.97 36.209-58.953 48.807-63.874" style="display:inline;fill:#f8d5e7;fill-opacity:1;stroke-width:3.10442"/><path d="M2225.058 991.229c-9.787-.982-19.864.547-27.995 3.564-4.064 1.508-7.648 3.369-10.545 5.826-2.899 2.456-5.423 5.863-5.423 10.222 0 4.717 3.258 7.952 6.608 9.936s7.418 3.191 12.041 3.77c3.474.435 9.336.36 16.158.235s13.765-.387 17.713-.825c3.664-.406 7.157-.924 10.127-1.502 2.97-.577 5.226-1.07 7.372-2.018 3.658-1.616 6.348-5.43 6.348-9.56 0-2.955-1.246-5.056-2.658-6.863s-3.182-3.362-5.258-4.751c-6.704-4.483-14.947-7.08-24.49-8.036" style="fill:#e1e0e5;fill-opacity:1;fill-rule:evenodd;stroke-width:2.167;stroke-linecap:round;stroke-linejoin:bevel;stroke-miterlimit:7"/><path d="M2218.899 454.11c-20.224-.196-40.243 1.874-57.129 6.639-146.273 41.279-218.043 217.34-150.48 367.716 35.337 78.646 95.737 132.621 167.442 148.12 25.29 5.468 64.606 3.615 90.991-3.858 96.392-27.308 168.525-115.479 183.053-223.52 4.075-30.304 1.973-75.647-4.845-105.75-20.487-90.431-82.739-156.065-171.086-181.65-17.403-5.04-37.724-7.501-57.946-7.696" style="fill:url(#o);fill-opacity:1;fill-rule:evenodd;stroke-width:12.7827;stroke-linecap:round;stroke-linejoin:bevel;stroke-miterlimit:7"/><path d="M2347.427 498.944c-3.862.287-6.97 2.465-9.41 6.503-6.779 11.223-1.747 23.937 13.964 35.28 77.019 55.608 46.242 209.717 48.823 215.303 4.582 9.912 11.455 10.2 17.514 1.278 12.651-18.624 42.68-149.188-33.754-232.466-16.528-18.008-28.643-26.53-37.137-25.898m117.677 301.997c-.214.453-.468.876-.686 1.33h.042c.357 0 .644-.348.644-.78z" style="fill:url(#p);stroke-width:3.41583"/><path d="m2410.28 661.101-.025.013-.042.025c-.545.393-.042 4.128 1.683 13.254l2.369 12.564-2.834-2.825c-3.062-3.05-4.047-3.4-4.935-1.768-.317.584 1.51 3.468 4.102 6.457l4.686 5.405 1.268 10.522c1.624 13.41 2.128 19.609 1.616 19.609h-.01c-.254-.034-1.552-1.1-2.91-2.398-3.54-3.375-5.074-3.146-4.749.71.19 2.208.88 3.434 2.394 4.255 1.176.634 3.057 2.27 4.186 3.637 1.87 2.25 2.06 3.298 2.085 11.29.03 8.07-1.683 26.922-2.592 28.592-.211.39-2.038-.342-4.064-1.628-3.045-1.924-3.844-2.102-4.626-1.032-1.903 2.605 2.918 10.137 6.491 10.137 1.032 0 1.18.964.803 5.113-.718 7.857-4.042 17.507-11.29 32.74l-6.619 13.9-6.846-8.326c-6.885-8.382-8.763-9.355-8.763-4.534 0 1.726 1.76 4.496 6.048 9.507 3.256 3.814 5.78 7.066 5.696 7.337-5.603 5.134-12.408 6.517-19.402 5.455-2.867-1.07-4.449-1.015-11.008.415-7.227 1.577-14.239 1.488-16.43-.212-.464-.364-2.122-4.449-3.683-9.08-4.448-13.172-8.39-18.89-9.912-14.386-.651 1.924.431 6.217 3.899 15.533 1.438 3.865 2.482 7.176 2.347 7.4-.516.584-19.42-1.598-26.532-3.061-11.448-2.356-17.846-4.927-18.37-7.384-.246-1.167.706-6.64 2.11-12.158 3.01-11.858 3.23-15.309.99-15.309-3.05 0-5.95 5.616-8.154 15.787-.8 3.679-1.717 7.02-2.038 7.417l-.01.008-.01.008-.025.017c-.584.283-5.27-1.057-10.657-3.066-10.412-3.873-21.986-6.779-27.01-6.779-1.569 0-2.855-.372-2.855-.829 0-.452 1.476-5.294 3.286-10.758 3.15-9.515 5.126-19.021 3.942-19.021-.31 0-1.637.634-2.952 1.404-3.206 1.877-5.7 6.838-8.91 17.706l-2.686 9.062-5.184.313c-14.835.888-32.44 7.532-37.972 8.07l-2.8.27c-2.663-6.208-4.964-24.025-10.33-26.156-6.758 1.84-.03 17.914.634 23.893l.52 5.396c-7.286 1.464-17.258 5.16-30.448 11.034l-7.257 3.23-2.643-9.654c-1.455-5.312-3.015-10.302-3.468-11.088-7.354-6.213-.579 20.975-.249 22.493-.123.11-2.313 1.07-4.863 2.14-7.206 3.011-16.007 5.273-20.658 5.328-4.834.051-12.996-2.748-13.651-4.685-.246-.72.346-4.013 1.302-7.316 1.675-5.785 2.2-10.01 1.874-15.097-.148-2.347-.212-2.326-2.948 1.184-5.942 7.62-5.146 20.4-9.68 19.305-8.276-2-18.983-7.414-22.054-11.152-1.704-2.072-1.746-2.745-1.18-18.18.533-14.463.453-16.027-.79-16.027-2.225 0-3.633 5.497-4.297 16.746-.338 5.785-.77 10.682-.951 10.885l-.01.008h-.01v.008h-.017c-.288.089-1.755-.905-3.362-2.292-3.874-3.353-7.05-9.024-10.522-18.785l-2.732-7.68 3.502-8.03c3.205-7.367 4.512-13.816 2.8-13.816-1.265 0-4.145 4.22-6.462 9.456l-2.271 5.155c-4.508-6.944-8.077-14.4-10.099-22.739-2.292-9.963-2.034-12.678 2.2-23.352 4.076-10.289 5.26-14.437 4.127-14.437-1.286 0-5.426 6.61-7.667 12.234l-2.17 5.468c-1.142-6.026-2.085-12.095-2.224-18.269-.06-6.66.596-7.79 8.411-14.471 4.546-3.89 8.953-9.524 8.162-10.424-1.079-1.222-5.337 1.344-10.682 6.432-3.26 3.104-6.073 5.641-6.246 5.641.186-2.157.74-4.292 1.256-6.39 2.317-9.48 3.738-22.142 2.626-23.402-1.256-1.421-3.257 3.184-4.014 9.252-.921 7.346-4.584 26.33-5.417 28.076-.41.854-1.924 2.82-3.353 4.368-2.098 2.259-2.597 3.57-2.571 6.7l.042 3.881 3.15-4.064c1.734-2.237 3.45-4.064 3.815-4.064.363 0 .486.322.27.72-.465.858 2.385 20.662 3.18 22.125.745 1.366-1.184 8.39-4.914 17.956-3.26 8.36-3.793 11.802-1.818 11.802 1.488 0 5.024-6.618 6.935-12.957l1.383-4.618 1.032 3.942c3.282 9.646 7.59 18.81 11.672 28.046l-1.941 4.99c-3.392 8.711-4.665 13-4.06 13.68 1.13 1.277 4.681-2.419 6.572-6.85l1.907-4.483 1.801 5.641c2.233 6.986 5.684 12.674 11.795 19.453 3.945 4.377 4.71 5.772 4.723 8.606.034 6.808 2.402 22.16 3.785 24.553l1.421 2.452 1.26-2.723c.88-1.899 1.1-4.047.72-7.037-.944-7.498-1.443-14.615-1.1-15.266l.02-.026h.01l.01-.008h.018c.245 0 4.47 2.343 9.397 5.202 4.926 2.867 10.589 5.48 12.58 5.819l3.616.617-1.146 6.327c-1.552 8.538-1.184 13.118 1.04 13.118 1.375 0 2.149-1.573 4.162-8.466l2.478-8.467 3.006.588c9.566 1.857 12.856 1.738 25.771-.888 7.22-1.463 13.3-2.461 13.52-2.212.22.254.791 4.694 1.269 9.888.972 10.656 2.072 16.014 3.962 19.279.71 1.226 1.988 2.241 2.838 2.241 2.588 0 2.706-5.214.423-20.066-1.167-7.612-1.848-14.112-1.51-14.446 1.104-1.095 19.072-9.295 23.762-10.847 2.52-.833 6.775-1.518 9.456-1.518h4.872l.892 4.064c4.03 18.472 4.64 19.779 10.17 21.656 1.933.656 3.735.943 4.005.635.27-.305-1.125-6.657-3.112-14.112-3.311-12.412-3.51-13.66-2.225-14.717 2.542-2.11 20.138-6.994 29.032-8.064 4.808-.58 8.889-.876 9.08-.66h.01v.008c.4.71-3.528 12.746-5.718 17.49-1.366 2.96-1.658 4.77-1.223 7.418.322 1.929.914 3.502 1.311 3.502 1.629 0 5.029-6.035 8.437-14.958 4.385-11.469 5.696-13.194 9.913-13.059 8.55.275 14.183 1.709 25.14 6.386 13.787 5.89 13.486 5.218 7.507 16.789-2.043 3.958-3.709 8.128-3.709 9.26 0 2.733 2.795 6.56 4.297 5.879.65-.292 3.387-5.519 6.08-11.63 2.623-5.962 5.096-10.868 5.566-11.096l.01-.008h.017c.38 0 2.465.888 4.626 1.975 5.117 2.567 13.05 4.39 24.545 5.641 20.48 2.225 22.16 2.927 23.656 9.837.8 3.679 6.293 10.259 8.796 10.538 3.185.355 3.075-2.394-.33-8.745-3.932-7.342-3.865-8.319.58-9.063a410 410 0 0 0 10.678-2.047c6.893-1.408 7.18-1.391 10.107.571 5.015 3.35 10.839 1.726 18.95-5.294l3.89-3.37 1.793 2.13c.985 1.172 2.368 3.1 3.075 4.284.697 1.185 1.793 2.157 2.435 2.157 1.89 0 1.396-5.9-.803-9.54l-1.97-3.27c4.427-10.893 9.506-21.503 13.164-32.781 1.522-4.97 4.22-17.381 4.271-19.652v-.026l.01-.008c.17-.359 2.664-.773 5.696-.921l5.692-.284.275-3.188c.254-3.062.16-3.172-2.529-3.003-8.479.529-8.542.423-7.036-11.557.689-5.494 1.256-13.626 1.264-18.075l.017-8.085 3.286 3.645c3.159 3.493 3.315 3.552 3.874 1.56.456-1.628-.322-3.269-3.561-7.519l-4.136-5.425-1.074-11c-.592-6.047-1.26-12.289-1.48-13.87-.174-1.26-.224-1.92-.127-2.047h.013v-.008h.017v-.008h.034l.01.008c.11.042.304.338.592.85 1.239 2.195 4.009 3.844 4.61 2.744.257-.473-1.185-3.412-3.202-6.525-3.205-4.94-3.903-6.927-5.455-15.638-1.726-9.701-4.474-20.472-5.532-21.673q-.359-.406-.57-.385h-.026z" style="display:inline;fill:url(#q);stroke-width:.898369"/><path d="M2209.62 637.952c-.99.06-2.369.478-3.502 1.1-2.96 1.628-6.602 9.367-10.615 22.582-3.104 10.242-2.525 13.207 3.075 15.74 3.137 1.42 7.299 1.252 8.711-.355 1.48-1.67 1.776-3.18 3.48-17.5 1.815-15.198 1.734-20.895-.304-21.5a2.5 2.5 0 0 0-.846-.067" style="display:inline;fill:url(#r);stroke-width:.898369"/><path d="M2147.078 549.627c-28.706 1.37-70.428 44.12-78.602 74.632-4.043 15.08 2.79 54.426 23.267 59.97 22.062 5.98 81.131-27.209 90.49-78.738 1.827-10.069 1.049-16.865-3.104-27.006-7.79-19.004-16.831-28.253-29.315-28.862a30 30 0 0 0-2.736 0" style="display:inline;fill:url(#s);stroke-width:.898369"/><path d="M2287.634 549.627c28.706 1.37 70.432 44.12 78.607 74.632 4.042 15.08-2.792 54.426-23.268 59.97-22.066 5.98-81.135-27.209-90.49-78.738-1.83-10.069-1.053-16.865 3.104-27.006 7.786-19.004 16.831-28.253 29.315-28.862q1.345-.063 2.732 0" style="display:inline;fill:url(#t);stroke-width:.898369"/><path d="M2230.003 636.67c.993.06 2.372.479 3.505 1.1 2.96 1.628 6.602 9.367 10.615 22.583 3.104 10.242 2.524 13.206-3.075 15.74-3.137 1.42-7.299 1.251-8.711-.356-1.48-1.67-1.776-3.184-3.48-17.499-1.815-15.199-1.734-20.895.304-21.5a2.5 2.5 0 0 1 .846-.067" style="display:inline;fill:url(#u);stroke-width:.898369"/><path d="M2226.014 418.482c-196.157-9.181-305.356 217.828-244.128 388.268 25.383 70.662 90.845 144.041 150.853 169.096 28.323 11.826 28.945 12.536 26.013 29.728-6.129 30.015 20.95 31.072 40.5 33.498v.211c18.342-.045 36.69.082 55.03-.042 20.87-2.226 30.106-10.115 28.73-35.773-1.109-20.67-.848-20.973 27.95-32.614 235.404-95.154 205.057-538.8-84.948-552.373zm-5.022 35.685c80.987 2.587 209.992 58.795 220.754 228.336 15.249 240.263-253.248 384.831-392.775 182.725-121.776-176.398-18.608-400.696 156.511-410.883 4.924-.287 10.11-.352 15.51-.178m-1.238 537.894c19.638-.002 38.07 12.079 30.742 20.143-4.108 4.519-44.239 7.42-55.016 3.978-20.755-6.63-3.152-24.121 24.275-24.121" style="fill:#9a9aa0;fill-opacity:1;stroke-width:3.95519"/><path d="M2012.044 1232.214c-9.786-.98-19.865.548-27.994 3.565-4.066 1.507-7.65 3.368-10.547 5.825s-5.42 5.864-5.42 10.223c0 4.716 3.256 7.952 6.606 9.935s7.417 3.191 12.04 3.77c3.474.436 9.336.362 16.16.235 6.823-.123 13.763-.386 17.713-.824a128 128 0 0 0 10.127-1.502c2.97-.578 5.226-1.07 7.37-2.017 3.66-1.617 6.35-5.432 6.35-9.561 0-2.956-1.248-5.055-2.658-6.863-1.414-1.808-3.183-3.363-5.26-4.75-6.702-4.485-14.945-7.081-24.487-8.036" style="fill:#e1e0e5;fill-opacity:1;fill-rule:evenodd;stroke-width:2.167;stroke-linecap:round;stroke-linejoin:bevel;stroke-miterlimit:7"/><path d="M2005.884 695.098c-20.224-.197-40.242 1.873-57.129 6.638-146.273 41.277-218.042 217.339-150.478 367.714 35.336 78.646 95.736 132.621 167.44 148.121 25.29 5.468 64.607 3.616 90.992-3.859 96.393-27.306 168.525-115.477 183.053-223.52 4.075-30.304 1.974-75.647-4.845-105.748-20.487-90.433-82.738-156.068-171.085-181.65-17.403-5.041-37.723-7.503-57.948-7.698" style="fill:url(#v);fill-opacity:1;fill-rule:evenodd;stroke-width:12.7827;stroke-linecap:round;stroke-linejoin:bevel;stroke-miterlimit:7"/><path d="M2126.172 736.43c-3.862.286-6.97 2.464-9.41 6.503-6.779 11.222-1.748 23.937 13.962 35.28 77.02 55.606 46.242 209.717 48.825 215.303 4.582 9.912 11.455 10.2 17.514 1.277 12.651-18.623 42.68-149.187-33.754-232.466-16.528-18.009-28.643-26.529-37.137-25.898m117.677 301.996c-.215.455-.468.876-.686 1.33h.042c.357 0 .642-.348.642-.778z" style="fill:url(#w);stroke-width:3.41583"/><path d="m2197.264 902.087-.025.012-.042.026c-.546.393-.042 4.127 1.683 13.253l2.368 12.564-2.833-2.825c-3.062-3.049-4.047-3.4-4.936-1.767-.317.583 1.51 3.467 4.102 6.457l4.686 5.405 1.269 10.521c1.624 13.41 2.127 19.61 1.615 19.61h-.01c-.254-.034-1.552-1.1-2.91-2.398-3.539-3.375-5.074-3.146-4.748.71.19 2.208.88 3.434 2.393 4.255 1.176.634 3.058 2.27 4.187 3.636 1.869 2.25 2.06 3.299 2.085 11.292.03 8.068-1.683 26.92-2.593 28.591-.211.39-2.038-.342-4.064-1.628-3.044-1.924-3.844-2.102-4.626-1.032-1.903 2.605 2.918 10.137 6.491 10.137 1.032 0 1.18.964.804 5.113-.72 7.857-4.043 17.507-11.291 32.74l-6.619 13.9-6.846-8.327c-6.885-8.381-8.762-9.354-8.762-4.533 0 1.725 1.759 4.495 6.047 9.506 3.256 3.815 5.78 7.067 5.696 7.338-5.603 5.133-12.407 6.516-19.402 5.455-2.867-1.07-4.449-1.015-11.008.414-7.227 1.578-14.238 1.489-16.429-.211-.465-.364-2.123-4.449-3.683-9.08-4.45-13.173-8.39-18.89-9.913-14.386-.651 1.924.432 6.216 3.9 15.532 1.437 3.866 2.482 7.177 2.346 7.401-.516.584-19.419-1.599-26.532-3.062-11.447-2.355-17.846-4.926-18.37-7.383-.245-1.168.706-6.64 2.11-12.158 3.011-11.858 3.23-15.309.99-15.309-3.05 0-5.95 5.616-8.154 15.786-.799 3.68-1.717 7.02-2.038 7.418l-.01.01-.01.01-.025.017c-.584.283-5.27-1.057-10.657-3.066-10.411-3.874-21.986-6.779-27.01-6.779-1.569 0-2.854-.372-2.854-.829 0-.452 1.476-5.294 3.286-10.758 3.15-9.515 5.125-19.022 3.94-19.022-.308 0-1.636.635-2.95 1.404-3.206 1.878-5.701 6.838-8.911 17.707l-2.685 9.062-5.185.313c-14.835.888-32.44 7.532-37.971 8.069l-2.8.27c-2.664-6.208-4.965-24.024-10.331-26.155-6.758 1.84-.03 17.913.634 23.893l.52 5.396c-7.286 1.463-17.258 5.16-30.448 11.033l-7.256 3.231-2.644-9.654c-1.454-5.312-3.015-10.302-3.467-11.089-7.354-6.212-.58 20.976-.25 22.494-.122.11-2.313 1.07-4.863 2.14-7.206 3.01-16.006 5.273-20.658 5.328-4.834.051-12.996-2.749-13.65-4.685-.246-.72.346-4.014 1.302-7.316 1.674-5.786 2.199-10.01 1.873-15.098-.148-2.347-.212-2.325-2.948 1.184-5.941 7.621-5.146 20.4-9.68 19.305-8.276-2-18.983-7.413-22.053-11.151-1.704-2.072-1.747-2.745-1.18-18.18.533-14.463.452-16.028-.79-16.028-2.225 0-3.634 5.498-4.297 16.747-.339 5.785-.77 10.682-.952 10.885l-.01.01h-.01v.01h-.017c-.288.089-1.755-.905-3.362-2.292-3.874-3.354-7.05-9.025-10.521-18.785l-2.732-7.68 3.501-8.03c3.206-7.367 4.512-13.816 2.8-13.816-1.265 0-4.145 4.22-6.462 9.456l-2.27 5.155c-4.509-6.944-8.078-14.4-10.1-22.739-2.292-9.963-2.034-12.678 2.2-23.352 4.076-10.289 5.26-14.437 4.127-14.437-1.286 0-5.426 6.61-7.667 12.234l-2.17 5.468c-1.141-6.026-2.084-12.095-2.224-18.269-.059-6.66.596-7.79 8.411-14.471 4.546-3.89 8.953-9.524 8.162-10.424-1.078-1.223-5.337 1.344-10.682 6.432-3.26 3.104-6.073 5.641-6.246 5.641.186-2.157.74-4.292 1.256-6.39 2.317-9.481 3.738-22.142 2.626-23.403-1.256-1.42-3.256 3.185-4.013 9.253-.922 7.346-4.584 26.33-5.417 28.076-.41.854-1.925 2.82-3.354 4.368-2.097 2.259-2.597 3.57-2.571 6.699l.042 3.882 3.15-4.064c1.734-2.237 3.451-4.064 3.815-4.064s.486.322.27.719c-.465.858 2.386 20.662 3.18 22.126.745 1.366-1.183 8.39-4.913 17.955-3.26 8.361-3.794 11.803-1.819 11.803 1.489 0 5.024-6.618 6.936-12.957l1.382-4.618 1.032 3.941c3.282 9.646 7.591 18.81 11.672 28.046l-1.941 4.99c-3.392 8.712-4.664 13-4.06 13.68 1.13 1.278 4.682-2.418 6.572-6.85l1.907-4.482 1.802 5.64c2.233 6.987 5.683 12.675 11.794 19.454 3.946 4.377 4.711 5.772 4.724 8.606.034 6.808 2.402 22.159 3.785 24.553l1.42 2.452 1.26-2.723c.88-1.899 1.1-4.047.72-7.037-.943-7.498-1.442-14.615-1.1-15.266l.021-.025h.01l.01-.01h.017c.245 0 4.47 2.343 9.397 5.201 4.926 2.868 10.589 5.48 12.58 5.82l3.616.617-1.146 6.326c-1.552 8.538-1.184 13.118 1.04 13.118 1.375 0 2.149-1.573 4.162-8.466l2.478-8.466 3.007.587c9.566 1.857 12.856 1.738 25.77-.888 7.22-1.463 13.3-2.46 13.52-2.211.22.253.791 4.694 1.27 9.887.972 10.657 2.071 16.015 3.962 19.28.71 1.226 1.987 2.24 2.837 2.24 2.588 0 2.707-5.214.423-20.066-1.167-7.612-1.848-14.111-1.51-14.445 1.104-1.096 19.073-9.296 23.763-10.848 2.52-.833 6.774-1.518 9.455-1.518h4.872l.892 4.064c4.03 18.472 4.64 19.779 10.17 21.657 1.933.655 3.735.942 4.006.634.27-.305-1.125-6.657-3.113-14.112-3.311-12.412-3.51-13.66-2.224-14.716 2.541-2.11 20.138-6.995 29.031-8.065 4.808-.58 8.89-.875 9.08-.66h.01v.01c.401.71-3.527 12.746-5.718 17.49-1.366 2.961-1.658 4.771-1.222 7.418.321 1.929.913 3.502 1.31 3.502 1.629 0 5.029-6.035 8.437-14.958 4.386-11.468 5.697-13.194 9.913-13.058 8.55.274 14.184 1.708 25.14 6.385 13.787 5.891 13.487 5.219 7.507 16.789-2.043 3.958-3.709 8.128-3.709 9.261 0 2.732 2.796 6.56 4.297 5.878.651-.291 3.387-5.518 6.081-11.63 2.622-5.962 5.096-10.867 5.565-11.096l.01-.01h.017c.38 0 2.466.888 4.627 1.975 5.117 2.567 13.05 4.39 24.544 5.642 20.48 2.224 22.16 2.926 23.656 9.836.8 3.679 6.293 10.26 8.797 10.538 3.184.356 3.074-2.393-.33-8.745-3.933-7.341-3.865-8.318.58-9.063a410 410 0 0 0 10.677-2.046c6.893-1.409 7.18-1.392 10.107.57 5.016 3.35 10.839 1.726 18.95-5.294l3.89-3.37 1.793 2.13c.986 1.172 2.369 3.1 3.075 4.285.698 1.184 1.793 2.156 2.436 2.156 1.89 0 1.395-5.899-.804-9.54l-1.97-3.269c4.427-10.894 9.506-21.504 13.164-32.782 1.522-4.97 4.22-17.381 4.271-19.652v-.025l.01-.01c.17-.36 2.665-.774 5.697-.922l5.692-.283.275-3.189c.253-3.062.16-3.171-2.53-3.002-8.478.528-8.542.423-7.036-11.558.69-5.493 1.256-13.625 1.264-18.074l.017-8.086 3.286 3.646c3.16 3.493 3.316 3.552 3.874 1.56.457-1.628-.322-3.269-3.561-7.519l-4.136-5.426-1.074-10.999c-.592-6.047-1.26-12.29-1.48-13.87-.174-1.26-.224-1.92-.127-2.048h.013v-.008h.017v-.008h.034l.01.008c.11.043.305.339.592.85 1.24 2.195 4.01 3.845 4.61 2.745.258-.474-1.184-3.413-3.202-6.525-3.205-4.94-3.903-6.927-5.455-15.639-1.725-9.7-4.474-20.472-5.531-21.673q-.36-.406-.571-.384h-.025z" style="display:inline;fill:url(#x);stroke-width:.898369"/><path d="M1996.603 878.938c-.99.059-2.369.478-3.502 1.1-2.96 1.627-6.601 9.366-10.615 22.582-3.104 10.242-2.524 13.206 3.075 15.74 3.138 1.42 7.299 1.251 8.711-.356 1.48-1.67 1.777-3.18 3.48-17.499 1.815-15.198 1.735-20.895-.304-21.5a2.5 2.5 0 0 0-.846-.067" style="display:inline;fill:url(#y);stroke-width:.898369"/><path d="M1934.061 790.613c-28.705 1.37-70.428 44.12-78.602 74.632-4.043 15.08 2.791 54.426 23.267 59.97 22.062 5.98 81.132-27.21 90.49-78.738 1.827-10.07 1.049-16.865-3.104-27.006-7.79-19.005-16.83-28.253-29.315-28.862a30 30 0 0 0-2.736 0" style="display:inline;fill:url(#z);stroke-width:.898369"/><path d="M2074.617 790.613c28.706 1.37 70.432 44.12 78.607 74.632 4.043 15.08-2.791 54.426-23.268 59.97-22.066 5.98-81.135-27.21-90.49-78.738-1.83-10.07-1.052-16.865 3.105-27.006 7.785-19.005 16.83-28.253 29.314-28.862q1.345-.063 2.732 0" style="display:inline;fill:url(#A);stroke-width:.898369"/><path d="M2016.986 877.656c.994.06 2.372.478 3.506 1.1 2.96 1.628 6.6 9.367 10.614 22.582 3.104 10.243 2.525 13.207-3.074 15.74-3.138 1.421-7.3 1.252-8.712-.355-1.48-1.67-1.776-3.184-3.48-17.5-1.814-15.198-1.734-20.894.304-21.499a2.5 2.5 0 0 1 .846-.068" style="display:inline;fill:url(#B);stroke-width:.898369"/><path d="M2013.001 659.468c-196.158-9.18-305.358 217.828-244.13 388.268 25.384 70.661 90.846 144.04 150.855 169.096 28.32 11.825 28.943 12.537 26.012 29.73-6.13 30.01 20.949 31.07 40.5 33.495v.212c18.341-.045 36.69.082 55.029-.042 20.87-2.225 30.106-10.114 28.73-35.774-1.108-20.67-.846-20.973 27.95-32.614 235.405-95.154 205.058-538.8-84.946-552.373zm-5.023 35.684c80.988 2.587 209.993 58.795 220.753 228.336 15.25 240.263-253.246 384.832-392.774 182.725-121.777-176.398-18.608-400.695 156.51-410.883 4.924-.287 10.113-.35 15.512-.178m-1.237 537.894c19.637 0 38.071 12.079 30.741 20.143-4.108 4.52-44.239 7.42-55.016 3.978-20.755-6.63-3.15-24.12 24.275-24.12" style="fill:#9a9aa0;fill-opacity:1;stroke-width:3.95519"/><path d="M1128.843 1779.278c4.554 26.391 33.526 63.47 96.855 76.773 63.33 13.307 161.01 2.837 254.762-22.683 93.751-25.52 183.566-66.085 227.442-114.943 43.873-48.857 41.804-106-.416-132.392-2.013-1.258-223.175-173.959-527.953 123.615-36.477 35.616-55.242 43.24-50.69 69.629" style="fill:url(#C);fill-opacity:1;fill-rule:evenodd;stroke:none;stroke-width:19.0782;stroke-linecap:round;stroke-linejoin:bevel;stroke-miterlimit:7;stroke-opacity:1"/><path d="M1423.183 1552.84q-4.625 1.45-9.309 3.04c36.16 25.646 71.561 53.409 101.07 97.613 25.94 38.856 47.327 90.412 67.65 144.943a615 615 0 0 0 24.344-10.92c.453-16.698-.382-34.058-3.518-52.612-7.121-42.138-26.11-90.41-62.36-123.152-30.501-27.546-73.221-44.1-117.877-58.911" style="fill:#e65d11;fill-opacity:1;fill-rule:evenodd;stroke-width:19.0782;stroke-linecap:round;stroke-linejoin:bevel;stroke-miterlimit:7"/><path d="M1418.957 1554.188q-8.359 2.716-16.906 5.888c-25.714 32.85-48.151 66.368-58.463 102.348-14.143 49.35-5.48 103.336 10.174 145.308 6.567 17.604 14.36 33.092 22.872 47.354a805 805 0 0 0 27.207-4.407c-10.478-59.25-18.454-116.347-16.335-164.753 2.232-51.015 15.68-92.376 31.45-131.738" style="fill:#e65d11;fill-opacity:1;fill-rule:evenodd;stroke-width:19.0782;stroke-linecap:round;stroke-linejoin:bevel;stroke-miterlimit:7"/><path d="M1403.065 1559.704a464 464 0 0 0-24.176 9.697c-90.401 57.96-157.06 104.035-157.027 231.207 0 17.019-1.592 38.618.332 54.679q1.737.393 3.504.764c7.916 1.662 16.367 2.955 25.28 3.893 2.283-133.963 71.429-213.563 161.4-299.948q-4.612-.195-9.313-.29zm142.25-23.396c-20.405-.586-41.659.75-64.034 2.927-20.659 3.178-42.476 8.323-65.351 15.953q-1.08.952-2.145 1.903c124.343 9.781 228.276 27.515 314.958 129.677q.833-.84 1.65-1.68c5.068-10.794 8.1-21.572 9.162-31.953-8.194-10.406-18.125-21.213-25.904-30.71-53.522-65.341-107.12-84.365-168.335-86.118" style="fill:#e65d11;fill-opacity:1;fill-rule:evenodd;stroke-width:19.0782;stroke-linecap:round;stroke-linejoin:bevel;stroke-miterlimit:7"/><path d="M1423.915 1559.88c-4.191 1.247-11.14 17.322-15.406 18.737 7.966 23.317 53.78 215.996 52.75 259.752a912 912 0 0 0 33.404-8.991c37.91-97.523-9.748-193.636-70.746-269.497" style="fill:#e65d11;fill-opacity:1;fill-rule:evenodd;stroke-width:19.0782;stroke-linecap:round;stroke-linejoin:bevel;stroke-miterlimit:7"/><path d="M1519.789 1525.871c-92.398 4.074-212.28 45.496-346.92 176.953-17.898 17.475-31.485 27.957-41.164 38.72-9.677 10.765-14.935 23.846-12.26 39.358 5.453 31.597 38.044 70.568 104.29 84.486 66.245 13.919 164.499 2.97 259.232-22.817 94.733-25.785 185.587-66.054 232.032-117.774 23.222-25.858 34.867-54.525 34.518-81.115s-13.3-50.94-36.974-65.738c1.004.628.444.296.322.206-.123-.09-.328-.235-.59-.424a134 134 0 0 0-2.236-1.601 190 190 0 0 0-8.271-5.439c-7.144-4.456-17.498-10.35-30.814-16.403-26.63-12.104-65.117-24.867-113.282-28.024a346 346 0 0 0-37.883-.388m.8 19.027a332 332 0 0 1 35.834.4c45.477 2.98 81.703 15.028 106.63 26.358 12.464 5.665 22.1 11.15 28.625 15.218a171 171 0 0 1 7.435 4.888c.84.59 1.475 1.053 1.927 1.382l.559.408c.152.112-.237-.1.83.57 18.545 11.591 27.74 29.014 28.012 49.809.272 20.793-8.985 45.124-29.637 68.121-41.304 45.995-130.082 86.86-222.851 112.112-92.768 25.25-189.883 35.246-250.294 22.554-60.411-12.691-85.762-47.876-89.417-69.06-1.877-10.881-.035-14.808 7.652-23.357 7.686-8.549 21.722-19.687 40.303-37.83 132.041-128.918 246.828-167.847 334.392-171.573" style="baseline-shift:baseline;display:inline;overflow:visible;vector-effect:none;fill:#c8510f;fill-rule:evenodd;stroke-width:3.10442;stroke-linecap:round;stroke-linejoin:bevel;stroke-miterlimit:7;stop-color:#000"/><path d="M1395.538 1578.507c3.977 3.753 10.12 5.821 19.434 4.334 9.313-1.487 21.796-6.532 28.328-12.871 6.531-6.34 7.115-13.97 2.297-18.335s-15.038-5.464-25.55-2.878c-10.508 2.586-21.309 8.86-25.804 14.715-4.495 5.852-2.682 11.285 1.295 15.035" style="fill:url(#D);fill-opacity:1;fill-rule:evenodd;stroke-width:16.4266;stroke-linecap:round;stroke-linejoin:bevel;stroke-miterlimit:7"/><path d="M1436.259 1559.235s-66.817-71.458-129.36-65.457c-23.289 2.654 89.409 11.548 91.16 82.773 28.312-25.347 38.2-17.316 38.2-17.316" style="fill:#0d692c;fill-opacity:1;fill-rule:evenodd;stroke-width:4.58683;stroke-linecap:round;stroke-linejoin:bevel;stroke-miterlimit:7"/><path d="M1722.006 2155.171c-4.896 1.034-9.288 4.006-13.077 7.755-5.056 5-9.172 11.767-11.247 19.537-4.856 18.179-2.93 38.17 7.6 49.507 1.866 2.009 3.75 3.796 6.41 4.904 2.663 1.109 5.412 1.124 7.94.876 7.73-.76 14.354-5.528 18.853-12.3s7.302-15.598 8.59-26.057c1.166-9.492.652-18.28-1.553-25.72-2.205-7.443-6.207-13.835-12.586-17.182a15.1 15.1 0 0 0-5.87-1.664 18 18 0 0 0-5.06.344" style="fill:url(#E);fill-opacity:1;fill-rule:evenodd;stroke-width:2.80351;stroke-linecap:round;stroke-linejoin:bevel;stroke-miterlimit:7"/><path d="M1335.943 2170.392c-9.526 11.429-18.42 22.698-26.46 34.063-2.745 6.842-5.54 14.382-8.272 22.271-7.888 22.787-15.233 48.317-18.891 68.061a397 397 0 0 0 .187 22.87c.865 23.505 3.845 49.334 9.222 74.737a85 85 0 0 0 6.61 11.078c3.338 4.718 6.037 13.474 7.917 31.105q.763 7.166 1.983 13.727 1.103 2.781 2.255 5.513 5.214-.71 10.606-1.657c-25.954-96.99-7.411-174.954 29.921-253.3-1.299-8.303-6.809-13.096-.338-20.128 3.66-3.98-5.164-7.42-14.74-8.34m397.767-79.953c122.498 239.326 40.804 381.542 86.718 327.93 8.889-10.38 11.877-32.436 15.88-48.306 1.195-42.626 2.65-98.001-8.7-153.364-4.832-23.562-17.83-47.201-25.097-68.506-4.33-3.564-9.686-5.455-15.33-6.827-23.28-5.66-39.339-22.37-47.299-50.883q-3.066-.045-6.172-.042" style="fill:#e65d11;fill-opacity:1;fill-rule:evenodd;stroke-width:7.13619;stroke-linecap:round;stroke-linejoin:bevel;stroke-miterlimit:7"/><path d="M1344.694 2161.71c-.661 31.005-1.323 62.012 9.487 84.104 10.81 22.093 33.092 35.268 57.239 36.895 24.148 1.63 50.83-22.245 62.299-42.172-22.487 6.691-43.563 14.269-71.94 17.26-25.75-9.272-69.286-65.707-44.594-94.426.477-.556.596-1.042.418-1.462z" style="fill:#df5f09;fill-opacity:.45934;fill-rule:evenodd;stroke-width:6.89918;stroke-linecap:round;stroke-linejoin:bevel;stroke-miterlimit:7"/><path d="M1739.56 2028.728c-22.462 14.63-73.223 33.737-258.813 92.472 7.34 25.143 5.026 20.762 8.548 19.73 78.27-21.097 156.06-44.472 231.384-74.604 1.036-.43 1.946-.68 2.754-.702 3.495-.106 5.102 4 7.056 15.74 6.203 37.236 27.353 61.65 58.863 67.952 11.577 2.315 13.222 5.035 23.176 38.296 43.079 143.958 13.122 206.33-2.693 219.383-5.45 4.498-6.288 10.29-4.269 29.613 3.137 30.016.373 41.29-13.551 55.214-16.41 16.41-46.692 12.833-63.575-7.507-4.704-5.668-3.91-8.298 5.476-18.094 10.886-11.361 14.328-21.354 7.356-21.354-1.994 0-13.639 4.416-25.873 9.81-76.255 33.62-203.751 35.588-296.146 4.572-16.778-5.633-33.417-10.24-36.974-10.24-10.18 0-4.572 9.415 12.132 20.377l15.292 10.035c-18.131 20.785-40.77 41.355-66.181 20.803-18.264-15.367-28.025-36.985-30.244-66.955-1.154-15.601-4.555-28.784-8.56-33.21-11.036-12.194-19.276-41.651-19.276-68.88 0-30.127 10.485-73.03 29.88-122.248 12.412-31.5 15.082-35.325 25.502-36.532 11.019-1.276 8.84 11.38 8.84 11.38 8.936-17.606 12.12-34.219 28.419-45.25-53.148 16.594-76.985 15.112-76.82 15.958-38.452 79.699-68.967 186.012-30.416 245.535 5.251 8.108 23.266 62.86 23.266 62.86 7.449 27.666 19.156 44.494 36.093 56.545 28.471 20.257 70.712 12.998 99.19-18.298l12.686-13.934c61.98 14.701 115.137 22.425 253.036 2.734 30.517 20.868 64.41 49.894 101.954 29.856 19.49-11.885 29.236-31.544 32.408-65.356 2.006-21.393 6.2-35.941 14.91-51.74 26.204-47.532 8.198-167.177-8.081-218.594-4.687-14.798-8.548-29.46-8.575-32.585-81.546.311-101.302-65-88.173-122.782" style="fill:#cb5708;fill-opacity:1;stroke-width:3.10442"/><path d="M1352.631 2177.568c7.726 74.47 133.556 146.027 128.119-56.365l18.464 10.334c-5.377 31.425-10.752 62.847-14.185 84.976-11.55 56.84-118.517 93.608-145.704-49.556z" style="fill:#cb5708;fill-opacity:1;fill-rule:evenodd;stroke-width:16.4265;stroke-linecap:round;stroke-linejoin:bevel;stroke-miterlimit:7"/><path d="M1551.866 2155.171c-4.896 1.034-9.289 4.006-13.077 7.755-5.055 5-9.172 11.767-11.246 19.537-4.856 18.179-2.932 38.17 7.599 49.507 1.865 2.009 3.749 3.796 6.411 4.904 2.663 1.109 5.412 1.124 7.939.876 7.73-.76 14.353-5.528 18.853-12.3s7.302-15.598 8.59-26.057c1.167-9.492.652-18.28-1.553-25.72-2.206-7.443-6.207-13.835-12.587-17.182a15.1 15.1 0 0 0-5.87-1.664 18 18 0 0 0-5.06.344" style="fill:url(#F);fill-opacity:1;fill-rule:evenodd;stroke-width:2.80351;stroke-linecap:round;stroke-linejoin:bevel;stroke-miterlimit:7"/></svg>