<?xml version="1.0" encoding="UTF-8" standalone="no"?>
<!-- Created with Inkscape (http://www.inkscape.org/) -->

<svg
   version="1.1"
   id="svg1"
   width="3000"
   height="3600"
   viewBox="0 0 3000 3600"
   xml:space="preserve"
   xmlns:xlink="http://www.w3.org/1999/xlink"
   xmlns="http://www.w3.org/2000/svg"
   xmlns:svg="http://www.w3.org/2000/svg"><defs
     id="defs1"><linearGradient
       id="linearGradient306"><stop
         style="stop-color:#cfcfcf;stop-opacity:1;"
         offset="0"
         id="stop306" /><stop
         style="stop-color:#cfcfcf;stop-opacity:0;"
         offset="1"
         id="stop307" /></linearGradient><linearGradient
       id="linearGradient218"><stop
         style="stop-color:#ffeb20;stop-opacity:1;"
         offset="0"
         id="stop218" /><stop
         style="stop-color:#ffeb20;stop-opacity:0;"
         offset="1"
         id="stop219" /></linearGradient><linearGradient
       id="linearGradient119"><stop
         style="stop-color:#fffeff;stop-opacity:1;"
         offset="0"
         id="stop119" /><stop
         style="stop-color:#dfdfdf;stop-opacity:1;"
         offset="1"
         id="stop120" /></linearGradient><linearGradient
       id="linearGradient113"><stop
         style="stop-color:#084dbd;stop-opacity:1;"
         offset="0"
         id="stop113" /><stop
         style="stop-color:#8bcee6;stop-opacity:1;"
         offset="1"
         id="stop114" /></linearGradient><linearGradient
       id="linearGradient111"><stop
         style="stop-color:#fdcd26;stop-opacity:1;"
         offset="0"
         id="stop111" /><stop
         style="stop-color:#fdcd26;stop-opacity:0;"
         offset="1"
         id="stop112" /></linearGradient><linearGradient
       id="linearGradient101"><stop
         style="stop-color:#fff982;stop-opacity:1;"
         offset="0"
         id="stop102" /><stop
         style="stop-color:#fff982;stop-opacity:0;"
         offset="1"
         id="stop103" /></linearGradient><linearGradient
       id="linearGradient99"><stop
         style="stop-color:#e03803;stop-opacity:1;"
         offset="0"
         id="stop100" /><stop
         style="stop-color:#e03803;stop-opacity:0;"
         offset="1"
         id="stop101" /></linearGradient><linearGradient
       id="linearGradient93"><stop
         style="stop-color:#ff932a;stop-opacity:1;"
         offset="0"
         id="stop94" /><stop
         style="stop-color:#ffe52a;stop-opacity:0;"
         offset="1"
         id="stop95" /></linearGradient><linearGradient
       id="linearGradient92"><stop
         style="stop-color:#fdce28;stop-opacity:1;"
         offset="0"
         id="stop92" /><stop
         style="stop-color:#fdce28;stop-opacity:0;"
         offset="1"
         id="stop93" /></linearGradient><linearGradient
       id="linearGradient90"><stop
         style="stop-color:#fdce28;stop-opacity:1;"
         offset="0"
         id="stop90" /><stop
         style="stop-color:#fdce28;stop-opacity:0;"
         offset="1"
         id="stop91" /></linearGradient><linearGradient
       id="linearGradient85"><stop
         style="stop-color:#fdffff;stop-opacity:1;"
         offset="0"
         id="stop86" /><stop
         style="stop-color:#fdffff;stop-opacity:0;"
         offset="1"
         id="stop87" /></linearGradient><linearGradient
       id="linearGradient84"><stop
         style="stop-color:#fdffff;stop-opacity:1;"
         offset="0"
         id="stop84" /><stop
         style="stop-color:#fdffff;stop-opacity:0;"
         offset="1"
         id="stop85" /></linearGradient><linearGradient
       id="linearGradient79"><stop
         style="stop-color:#eb3b03;stop-opacity:1;"
         offset="0"
         id="stop80" /><stop
         style="stop-color:#eb3b03;stop-opacity:0;"
         offset="1"
         id="stop81" /></linearGradient><linearGradient
       id="linearGradient78"><stop
         style="stop-color:#ffe159;stop-opacity:1;"
         offset="0"
         id="stop78" /><stop
         style="stop-color:#ffe159;stop-opacity:0;"
         offset="1"
         id="stop79" /></linearGradient><linearGradient
       id="linearGradient69"><stop
         style="stop-color:#4b3e02;stop-opacity:1;"
         offset="0"
         id="stop70" /><stop
         style="stop-color:#f9d016;stop-opacity:0;"
         offset="1"
         id="stop71" /></linearGradient><linearGradient
       id="linearGradient67"><stop
         style="stop-color:#a68d7c;stop-opacity:1;"
         offset="0"
         id="stop68" /><stop
         style="stop-color:#a68d7c;stop-opacity:0;"
         offset="1"
         id="stop69" /></linearGradient><linearGradient
       id="linearGradient65"><stop
         style="stop-color:#a68d7c;stop-opacity:1;"
         offset="0"
         id="stop66" /><stop
         style="stop-color:#a68d7c;stop-opacity:0;"
         offset="1"
         id="stop67" /></linearGradient><linearGradient
       id="linearGradient63"><stop
         style="stop-color:#312923;stop-opacity:1;"
         offset="0"
         id="stop64" /><stop
         style="stop-color:#312923;stop-opacity:0;"
         offset="1"
         id="stop65" /></linearGradient><linearGradient
       id="linearGradient61"><stop
         style="stop-color:#312923;stop-opacity:1;"
         offset="0"
         id="stop62" /><stop
         style="stop-color:#312923;stop-opacity:0;"
         offset="1"
         id="stop63" /></linearGradient><linearGradient
       id="linearGradient59"><stop
         style="stop-color:#ffa323;stop-opacity:1;"
         offset="0"
         id="stop60" /><stop
         style="stop-color:#ffa323;stop-opacity:0;"
         offset="1"
         id="stop61" /></linearGradient><linearGradient
       id="linearGradient55"><stop
         style="stop-color:#ee4705;stop-opacity:1;"
         offset="0"
         id="stop58" /><stop
         style="stop-color:#ee4705;stop-opacity:0;"
         offset="1"
         id="stop59" /></linearGradient><linearGradient
       id="linearGradient31"><stop
         style="stop-color:#000000;stop-opacity:1;"
         offset="0"
         id="stop31" /><stop
         style="stop-color:#0e0e0e;stop-opacity:1;"
         offset="1"
         id="stop32" /></linearGradient><linearGradient
       id="linearGradient17"><stop
         style="stop-color:#0e0e0e;stop-opacity:1;"
         offset="0"
         id="stop27" /><stop
         style="stop-color:#000000;stop-opacity:1;"
         offset="1"
         id="stop30" /></linearGradient><linearGradient
       id="linearGradient56"><stop
         style="stop-color:#edabb4;stop-opacity:1;"
         offset="0"
         id="stop56" /><stop
         style="stop-color:#d33045;stop-opacity:0;"
         offset="1"
         id="stop57" /></linearGradient><linearGradient
       id="linearGradient52"><stop
         style="stop-color:#2b2d2a;stop-opacity:1;"
         offset="0"
         id="stop53" /><stop
         style="stop-color:#2b2d2a;stop-opacity:0;"
         offset="1"
         id="stop54" /></linearGradient><linearGradient
       id="linearGradient51"><stop
         style="stop-color:#ae1f31;stop-opacity:1;"
         offset="0"
         id="stop51" /><stop
         style="stop-color:#ae1f31;stop-opacity:0;"
         offset="1"
         id="stop52" /></linearGradient><linearGradient
       id="linearGradient49"><stop
         style="stop-color:#252724;stop-opacity:1;"
         offset="0"
         id="stop49" /><stop
         style="stop-color:#2f322e;stop-opacity:1;"
         offset="1"
         id="stop50" /></linearGradient><linearGradient
       id="linearGradient47"><stop
         style="stop-color:#ae1f31;stop-opacity:1;"
         offset="0"
         id="stop47" /><stop
         style="stop-color:#e15567;stop-opacity:0;"
         offset="1"
         id="stop48" /></linearGradient><linearGradient
       id="linearGradient40"><stop
         style="stop-color:#f3650c;stop-opacity:1;"
         offset="0"
         id="stop41" /><stop
         style="stop-color:#f3650c;stop-opacity:0;"
         offset="1"
         id="stop42" /></linearGradient><linearGradient
       id="linearGradient38"><stop
         style="stop-color:#562808;stop-opacity:1;"
         offset="0"
         id="stop39" /><stop
         style="stop-color:#562808;stop-opacity:0;"
         offset="1"
         id="stop40" /></linearGradient><linearGradient
       id="linearGradient36"><stop
         style="stop-color:#fedb56;stop-opacity:1;"
         offset="0"
         id="stop37" /><stop
         style="stop-color:#fedb56;stop-opacity:0;"
         offset="1"
         id="stop38" /></linearGradient><linearGradient
       id="linearGradient34"><stop
         style="stop-color:#fedb56;stop-opacity:1;"
         offset="0"
         id="stop35" /><stop
         style="stop-color:#fedb56;stop-opacity:0;"
         offset="1"
         id="stop36" /></linearGradient><linearGradient
       id="linearGradient33"><stop
         style="stop-color:#f48408;stop-opacity:1;"
         offset="0"
         id="stop33" /><stop
         style="stop-color:#f48408;stop-opacity:0;"
         offset="1"
         id="stop34" /></linearGradient><linearGradient
       id="linearGradient28"><stop
         style="stop-color:#ffffff;stop-opacity:1;"
         offset="0"
         id="stop28" /><stop
         style="stop-color:#ffffff;stop-opacity:0;"
         offset="1"
         id="stop29" /></linearGradient><linearGradient
       id="linearGradient25"><stop
         style="stop-color:#312923;stop-opacity:1;"
         offset="0"
         id="stop25" /><stop
         style="stop-color:#312923;stop-opacity:0;"
         offset="1"
         id="stop26" /></linearGradient><linearGradient
       id="linearGradient16"><stop
         style="stop-color:#784313;stop-opacity:1;"
         offset="0"
         id="stop19" /><stop
         style="stop-color:#411802;stop-opacity:1;"
         offset="1"
         id="stop24" /></linearGradient><linearGradient
       id="linearGradient12"><stop
         style="stop-color:#0de6f4;stop-opacity:1;"
         offset="0"
         id="stop17" /><stop
         style="stop-color:#0de6f4;stop-opacity:0;"
         offset="1"
         id="stop18" /></linearGradient><linearGradient
       id="linearGradient8"><stop
         style="stop-color:#f46e0d;stop-opacity:1;"
         offset="0"
         id="stop9" /><stop
         style="stop-color:#f46e0d;stop-opacity:0;"
         offset="1"
         id="stop12" /></linearGradient><linearGradient
       id="linearGradient22"><stop
         style="stop-color:#f5680b;stop-opacity:1;"
         offset="0"
         id="stop22" /><stop
         style="stop-color:#f5680b;stop-opacity:0;"
         offset="1"
         id="stop23" /></linearGradient><linearGradient
       id="linearGradient19"><stop
         style="stop-color:#ffa323;stop-opacity:1;"
         offset="0"
         id="stop20" /><stop
         style="stop-color:#ffa323;stop-opacity:0;"
         offset="1"
         id="stop21" /></linearGradient><linearGradient
       id="linearGradient15"><stop
         style="stop-color:#f18c00;stop-opacity:1;"
         offset="0"
         id="stop15" /><stop
         style="stop-color:#f18c00;stop-opacity:0;"
         offset="1"
         id="stop16" /></linearGradient><linearGradient
       id="linearGradient13"><stop
         style="stop-color:#f18c00;stop-opacity:1;"
         offset="0"
         id="stop13" /><stop
         style="stop-color:#f18c00;stop-opacity:0;"
         offset="1"
         id="stop14" /></linearGradient><linearGradient
       id="linearGradient10"><stop
         style="stop-color:#fee955;stop-opacity:1;"
         offset="0"
         id="stop10" /><stop
         style="stop-color:#fee955;stop-opacity:0;"
         offset="1"
         id="stop11" /></linearGradient><linearGradient
       id="linearGradient7"><stop
         style="stop-color:#ffac49;stop-opacity:1;"
         offset="0"
         id="stop7" /><stop
         style="stop-color:#fff149;stop-opacity:0;"
         offset="1"
         id="stop8" /></linearGradient><linearGradient
       id="linearGradient3"><stop
         style="stop-color:#ffec8b;stop-opacity:1;"
         offset="0"
         id="stop3" /><stop
         style="stop-color:#ffec8b;stop-opacity:0;"
         offset="1"
         id="stop4" /></linearGradient><radialGradient
       xlink:href="#linearGradient3"
       id="radialGradient4"
       cx="151.06386"
       cy="25.395916"
       fx="151.06386"
       fy="25.395916"
       r="207.93671"
       gradientUnits="userSpaceOnUse"
       gradientTransform="translate(64.601696,-41.385462)" /><radialGradient
       xlink:href="#linearGradient7"
       id="radialGradient8"
       cx="335.52521"
       cy="275.97437"
       fx="335.52521"
       fy="275.97437"
       r="183.71107"
       gradientUnits="userSpaceOnUse"
       gradientTransform="matrix(1.1554081,0,0,1.1554081,-407.69779,-67.94375)" /><radialGradient
       xlink:href="#linearGradient10"
       id="radialGradient11"
       cx="372.46915"
       cy="260.4256"
       fx="372.46915"
       fy="260.4256"
       r="190.77689"
       gradientUnits="userSpaceOnUse"
       gradientTransform="matrix(1.134687,0,0,1.134687,-229.65684,-291.07976)" /><linearGradient
       xlink:href="#linearGradient13"
       id="linearGradient14"
       x1="425.96857"
       y1="396.54315"
       x2="189.77652"
       y2="185.27179"
       gradientUnits="userSpaceOnUse" /><radialGradient
       xlink:href="#linearGradient15"
       id="radialGradient16"
       cx="105.11253"
       cy="128.10995"
       fx="105.11253"
       fy="128.10995"
       r="203.89911"
       gradientUnits="userSpaceOnUse"
       gradientTransform="translate(-70.658105,-169.57945)" /><linearGradient
       xlink:href="#linearGradient19"
       id="linearGradient21"
       x1="426.40955"
       y1="240.09224"
       x2="246.43265"
       y2="192.65038"
       gradientUnits="userSpaceOnUse" /><radialGradient
       xlink:href="#linearGradient22"
       id="radialGradient23"
       cx="-81.368027"
       cy="115.62825"
       fx="-81.368027"
       fy="115.62825"
       r="251.24164"
       gradientUnits="userSpaceOnUse"
       gradientTransform="translate(94.651128,-204.02007)" /><linearGradient
       xlink:href="#linearGradient13"
       id="linearGradient23"
       gradientUnits="userSpaceOnUse"
       x1="510.7583"
       y1="430.86279"
       x2="146.37225"
       y2="179.21538" /><radialGradient
       xlink:href="#linearGradient8"
       id="radialGradient12"
       cx="148.771"
       cy="271.36377"
       fx="148.771"
       fy="271.36377"
       r="172.82722"
       gradientUnits="userSpaceOnUse"
       gradientTransform="matrix(1.2724632,0,0,1.2724632,105.08583,72.615854)" /><radialGradient
       xlink:href="#linearGradient12"
       id="radialGradient18"
       cx="11.211679"
       cy="99.783943"
       fx="11.211679"
       fy="99.783943"
       r="173.78102"
       gradientUnits="userSpaceOnUse"
       gradientTransform="translate(223.8802,-74.288459)" /><linearGradient
       xlink:href="#linearGradient16"
       id="linearGradient24"
       x1="73.458984"
       y1="221.93234"
       x2="337"
       y2="221.93234"
       gradientUnits="userSpaceOnUse" /><linearGradient
       xlink:href="#linearGradient25"
       id="linearGradient26"
       x1="316.36969"
       y1="169.45898"
       x2="73.459007"
       y2="192.90147"
       gradientUnits="userSpaceOnUse" /><linearGradient
       xlink:href="#linearGradient28"
       id="linearGradient29"
       x1="93.535156"
       y1="221.38086"
       x2="185.03906"
       y2="221.38086"
       gradientUnits="userSpaceOnUse" /><radialGradient
       xlink:href="#linearGradient33"
       id="radialGradient34"
       cx="207.41132"
       cy="411.72955"
       fx="207.41132"
       fy="411.72955"
       r="232.07701"
       gradientUnits="userSpaceOnUse"
       gradientTransform="translate(151.92299,17.938686)" /><radialGradient
       xlink:href="#linearGradient34"
       id="radialGradient36"
       cx="85.953575"
       cy="52.100185"
       fx="85.953575"
       fy="52.100185"
       r="130.24046"
       gradientUnits="userSpaceOnUse"
       gradientTransform="translate(149.26267,-52.100186)" /><radialGradient
       xlink:href="#linearGradient36"
       id="radialGradient38"
       cx="17.44128"
       cy="348.96936"
       fx="17.44128"
       fy="348.96936"
       r="108.6116"
       gradientUnits="userSpaceOnUse"
       gradientTransform="translate(21.972973,35.030637)" /><radialGradient
       xlink:href="#linearGradient38"
       id="radialGradient40"
       cx="92.507294"
       cy="199.85405"
       fx="92.507294"
       fy="199.85405"
       r="84.63723"
       gradientUnits="userSpaceOnUse"
       gradientTransform="matrix(1.1331626,0,0,1.1331626,-2.6320015,66.130503)" /><radialGradient
       xlink:href="#linearGradient40"
       id="radialGradient42"
       cx="326.87784"
       cy="296.00705"
       fx="326.87784"
       fy="296.00705"
       r="124.7518"
       gradientUnits="userSpaceOnUse"
       gradientTransform="matrix(1.5694446,0,0,1.5694446,-586.0149,-176.37269)" /><radialGradient
       xlink:href="#linearGradient47"
       id="radialGradient48"
       cx="257.45706"
       cy="254.88051"
       fx="257.45706"
       fy="254.88051"
       r="31.116827"
       gradientUnits="userSpaceOnUse"
       gradientTransform="translate(82.89137,136.87866)" /><linearGradient
       xlink:href="#linearGradient49"
       id="linearGradient50"
       x1="257.1763"
       y1="266.22345"
       x2="263.91559"
       y2="285.44849"
       gradientUnits="userSpaceOnUse"
       gradientTransform="translate(81.284671,132.85839)" /><radialGradient
       xlink:href="#linearGradient51"
       id="radialGradient52"
       cx="262.63358"
       cy="266.27737"
       fx="262.63358"
       fy="266.27737"
       r="19.200001"
       gradientUnits="userSpaceOnUse"
       gradientTransform="translate(75.538686,167.19416)" /><radialGradient
       xlink:href="#linearGradient52"
       id="radialGradient54"
       cx="241.20496"
       cy="256.26788"
       fx="241.20496"
       fy="256.26788"
       r="22.990776"
       gradientUnits="userSpaceOnUse"
       gradientTransform="matrix(1.2925959,0,0,1.2925959,27.759807,50.033119)" /><radialGradient
       xlink:href="#linearGradient56"
       id="radialGradient57"
       cx="339.57373"
       cy="420.43796"
       fx="339.57373"
       fy="420.43796"
       r="17.237957"
       gradientUnits="userSpaceOnUse"
       gradientTransform="translate(2.1021898,-15.69635)" /><linearGradient
       xlink:href="#linearGradient17"
       id="linearGradient30"
       x1="313.51654"
       y1="219.84193"
       x2="309.34103"
       y2="210.45215"
       gradientUnits="userSpaceOnUse"
       gradientTransform="matrix(1.0803316,0.01618354,-0.01618354,1.0803316,-21.466272,-22.559171)" /><linearGradient
       xlink:href="#linearGradient31"
       id="linearGradient32"
       x1="193.29138"
       y1="242.42657"
       x2="191.46101"
       y2="259.47147"
       gradientUnits="userSpaceOnUse"
       gradientTransform="matrix(1.2019804,0,0,1.2019804,-37.855427,-50.666765)" /><radialGradient
       xlink:href="#linearGradient55"
       id="radialGradient59"
       cx="122.04321"
       cy="321.82513"
       fx="122.04321"
       fy="321.82513"
       r="146.6653"
       gradientUnits="userSpaceOnUse"
       gradientTransform="matrix(1.4054054,0,0,1.4054054,-224.63681,-52.730952)" /><radialGradient
       xlink:href="#linearGradient59"
       id="radialGradient61"
       cx="385.2937"
       cy="207.70978"
       fx="385.2937"
       fy="207.70978"
       r="134.77351"
       gradientUnits="userSpaceOnUse"
       gradientTransform="translate(-228.71825,-23.544526)" /><radialGradient
       xlink:href="#linearGradient61"
       id="radialGradient63"
       cx="141.90857"
       cy="64.215622"
       fx="141.90857"
       fy="64.215622"
       r="121.29617"
       gradientUnits="userSpaceOnUse"
       gradientTransform="translate(200.9711,-22.990777)" /><radialGradient
       xlink:href="#linearGradient63"
       id="radialGradient65"
       cx="256.91162"
       cy="211.03644"
       fx="256.91162"
       fy="211.03644"
       r="64.186859"
       gradientUnits="userSpaceOnUse"
       gradientTransform="matrix(1.3705363,0,0,1.3705363,-123.53956,-126.79495)" /><radialGradient
       xlink:href="#linearGradient65"
       id="radialGradient67"
       cx="236.47475"
       cy="351.90143"
       fx="236.47475"
       fy="351.90143"
       r="66.709488"
       gradientUnits="userSpaceOnUse"
       gradientTransform="matrix(1.4537815,0,0,1.4537815,-121.46299,-153.60001)" /><radialGradient
       xlink:href="#linearGradient67"
       id="radialGradient69"
       cx="346.44089"
       cy="280.85254"
       fx="346.44089"
       fy="280.85254"
       r="62.224819"
       gradientUnits="userSpaceOnUse"
       gradientTransform="translate(-5.9458906,9.9098177)" /><radialGradient
       xlink:href="#linearGradient69"
       id="radialGradient71"
       cx="97.707504"
       cy="355.40775"
       fx="97.707504"
       fy="355.40775"
       r="187.09735"
       gradientUnits="userSpaceOnUse"
       gradientTransform="translate(162.52101,109.40439)" /><radialGradient
       xlink:href="#linearGradient78"
       id="radialGradient79"
       cx="-224.23358"
       cy="136.78249"
       fx="-224.23358"
       fy="136.78249"
       r="165.93285"
       gradientUnits="userSpaceOnUse"
       gradientTransform="matrix(1.1418919,0,0,1.1418919,510.55562,-106.85943)" /><radialGradient
       xlink:href="#linearGradient79"
       id="radialGradient81"
       cx="229.19083"
       cy="440.42331"
       fx="229.19083"
       fy="440.42331"
       r="114.1611"
       gradientTransform="matrix(1.7293233,0,0,1.5972222,-149.78877,-241.26001)"
       gradientUnits="userSpaceOnUse" /><radialGradient
       xlink:href="#linearGradient84"
       id="radialGradient85"
       cx="105.38978"
       cy="209.09781"
       fx="105.38978"
       fy="209.09781"
       r="80.724091"
       gradientUnits="userSpaceOnUse"
       gradientTransform="translate(-21.30219,29.710949)" /><radialGradient
       xlink:href="#linearGradient85"
       id="radialGradient87"
       cx="-19.02685"
       cy="332.17709"
       fx="-19.02685"
       fy="332.17709"
       r="130.8096"
       gradientUnits="userSpaceOnUse"
       gradientTransform="translate(193.43964,-286.19553)" /><radialGradient
       xlink:href="#linearGradient90"
       id="radialGradient91"
       cx="238.80876"
       cy="371.10657"
       fx="238.80876"
       fy="371.10657"
       r="110.99562"
       gradientUnits="userSpaceOnUse"
       gradientTransform="matrix(1.0785674,0,0,1.0785674,71.614954,-10.92281)" /><radialGradient
       xlink:href="#linearGradient92"
       id="radialGradient93"
       cx="298.7709"
       cy="325.42892"
       fx="298.7709"
       fy="325.42892"
       r="92.993195"
       gradientUnits="userSpaceOnUse"
       gradientTransform="translate(16.32385,37.27716)" /><linearGradient
       xlink:href="#linearGradient93"
       id="linearGradient95"
       x1="84.126648"
       y1="412.46854"
       x2="174.1875"
       y2="310.04834"
       gradientUnits="userSpaceOnUse" /><radialGradient
       xlink:href="#linearGradient99"
       id="radialGradient101"
       cx="68.424141"
       cy="92.078865"
       fx="68.424141"
       fy="92.078865"
       r="169.00308"
       gradientUnits="userSpaceOnUse"
       gradientTransform="translate(-68.424144,-45.186397)" /><radialGradient
       xlink:href="#linearGradient101"
       id="radialGradient103"
       cx="228.1582"
       cy="234.32422"
       fx="228.1582"
       fy="234.32422"
       r="119.99288"
       gradientUnits="userSpaceOnUse"
       gradientTransform="matrix(0.76267548,0,0,0.76267548,81.264735,72.68901)" /><radialGradient
       xlink:href="#linearGradient111"
       id="radialGradient112"
       cx="159.20584"
       cy="0"
       fx="159.20584"
       fy="0"
       r="155.84233"
       gradientUnits="userSpaceOnUse"
       gradientTransform="translate(95.30002,82.966259)" /><linearGradient
       xlink:href="#linearGradient113"
       id="linearGradient114"
       x1="0"
       y1="0"
       x2="1824.0596"
       y2="2320.2754"
       gradientUnits="userSpaceOnUse" /><radialGradient
       xlink:href="#linearGradient218"
       id="radialGradient219"
       cx="306.34189"
       cy="1738.877"
       fx="306.34189"
       fy="1738.877"
       r="1158.6398"
       gradientUnits="userSpaceOnUse"
       gradientTransform="matrix(1.0890751,0,0,1.0890751,1119.9741,-216.95457)" /><linearGradient
       xlink:href="#linearGradient119"
       id="linearGradient303"
       gradientUnits="userSpaceOnUse"
       x1="559.00262"
       y1="940.01587"
       x2="-176.56851"
       y2="237.25865" /><radialGradient
       xlink:href="#linearGradient306"
       id="radialGradient307"
       cx="553.46362"
       cy="594.97504"
       fx="553.46362"
       fy="594.97504"
       r="577.64197"
       gradientTransform="matrix(1,0,0,0.94474178,0,27.787182)"
       gradientUnits="userSpaceOnUse" /><linearGradient
       xlink:href="#linearGradient119"
       id="linearGradient310"
       gradientUnits="userSpaceOnUse"
       x1="559.00262"
       y1="940.01587"
       x2="-176.56851"
       y2="237.25865" /><radialGradient
       xlink:href="#linearGradient306"
       id="radialGradient310"
       gradientUnits="userSpaceOnUse"
       gradientTransform="matrix(1,0,0,0.94474178,0,27.787182)"
       cx="553.46362"
       cy="594.97504"
       fx="553.46362"
       fy="594.97504"
       r="577.64197" /><linearGradient
       xlink:href="#linearGradient119"
       id="linearGradient312"
       gradientUnits="userSpaceOnUse"
       x1="559.00262"
       y1="940.01587"
       x2="-176.56851"
       y2="237.25865" /><radialGradient
       xlink:href="#linearGradient306"
       id="radialGradient312"
       gradientUnits="userSpaceOnUse"
       gradientTransform="matrix(1,0,0,0.94474178,0,27.787182)"
       cx="553.46362"
       cy="594.97504"
       fx="553.46362"
       fy="594.97504"
       r="577.64197" /><linearGradient
       xlink:href="#linearGradient119"
       id="linearGradient314"
       gradientUnits="userSpaceOnUse"
       x1="559.00262"
       y1="940.01587"
       x2="-176.56851"
       y2="237.25865" /><radialGradient
       xlink:href="#linearGradient306"
       id="radialGradient314"
       gradientUnits="userSpaceOnUse"
       gradientTransform="matrix(1,0,0,0.94474178,0,27.787182)"
       cx="553.46362"
       cy="594.97504"
       fx="553.46362"
       fy="594.97504"
       r="577.64197" /></defs><rect
     style="fill:url(#linearGradient114);fill-opacity:1;stroke:none;stroke-width:4;stroke-linecap:round;stroke-linejoin:round;stroke-opacity:1;paint-order:stroke fill markers"
     id="rect112"
     width="3000"
     height="3600"
     x="0"
     y="0"
     rx="50.957119"
     ry="1.5261943" /><g
     id="g302"
     transform="matrix(1.2067536,-0.30531579,-0.30531579,-1.2067536,-172.2185,4082.7373)"><path
       style="fill:url(#linearGradient303);stroke-width:0.754858;stroke-linecap:round;stroke-linejoin:round"
       d="m 416.31638,813.86787 c 228.466,78.13722 418.6684,-139.35075 383.3074,-365.71317 -5.027,-30.1622 -11.3107,-52.7832 -17.5944,-75.4046 15.0809,-8.7972 30.1619,-17.5944 57.1823,-31.4189 27.0205,-13.8243 65.9788,-32.6752 98.0261,-66.6077 16.0236,-16.9663 30.319,-37.7025 42.0224,-61.6591 159.14492,-325.7679 -460.2759,-478.4308 -722.5522,-361.861 -214.905102,95.515505 -374.5086,374.5074 -448.0281,556.1081 -73.5195,181.60061 -60.9523,265.80091 -32.0467,348.11846 142.197098,404.95034 490.2665,357.27114 639.6832,58.43791 z"
       id="path301"
       clip-path="none" /><path
       id="path302"
       style="fill:url(#radialGradient307);fill-opacity:1;stroke-width:0.754858;stroke-linecap:round;stroke-linejoin:round"
       d="m 107.53518,1048.3543 c 118.8775,-4.9679 236.8505,-90.62355 308.7822,-234.48688 228.466,78.13722 418.6673,-139.35087 383.3063,-365.71322 -5.027,-30.1622 -11.3115,-52.7831 -17.5952,-75.4044 15.0809,-8.7973 30.1638,-17.5942 57.1842,-31.4187 27.0205,-13.8243 65.9781,-32.6742 98.0254,-66.6067 16.0236,-16.9663 30.3195,-37.7035 42.0228,-61.6601 50.80182,-103.9907 22.26732,-190.341095 -48.6594,-255.926195 48.7272,60.8309 62.8847,136.309 19.7934,224.516295 -11.6691,23.8864 -25.923,44.5608 -41.8996,61.4774 -31.9535,33.8331 -70.7982,52.6294 -97.7394,66.4132 -26.9415,13.784 -41.9781,22.5548 -57.0147,31.3262 6.2652,22.5552 12.5301,45.1104 17.5423,75.1843 35.2575,225.69934 -154.3872,442.55007 -382.184,364.64168 -121.1148,242.22952 -373.136602,318.95492 -539.3522,122.23971 72.319898,104.33461 165.327698,149.28131 257.7879,145.41741 z"
       clip-path="none" /></g><g
     id="g310"
     transform="matrix(-1.2067536,-0.30531579,0.30531579,-1.2067536,3172.2185,4082.7373)"><path
       style="fill:url(#linearGradient310);stroke-width:0.754858;stroke-linecap:round;stroke-linejoin:round"
       d="m 416.31638,813.86787 c 228.466,78.13722 418.6684,-139.35075 383.3074,-365.71317 -5.027,-30.1622 -11.3107,-52.7832 -17.5944,-75.4046 15.0809,-8.7972 30.1619,-17.5944 57.1823,-31.4189 27.0205,-13.8243 65.9788,-32.6752 98.0261,-66.6077 16.0236,-16.9663 30.319,-37.7025 42.0224,-61.6591 159.14492,-325.7679 -460.2759,-478.4308 -722.5522,-361.861 -214.905102,95.515505 -374.5086,374.5074 -448.0281,556.1081 -73.5195,181.60061 -60.9523,265.80091 -32.0467,348.11846 142.197098,404.95034 490.2665,357.27114 639.6832,58.43791 z"
       id="path309"
       clip-path="none" /><path
       id="path310"
       style="fill:url(#radialGradient310);fill-opacity:1;stroke-width:0.754858;stroke-linecap:round;stroke-linejoin:round"
       d="m 107.53518,1048.3543 c 118.8775,-4.9679 236.8505,-90.62355 308.7822,-234.48688 228.466,78.13722 418.6673,-139.35087 383.3063,-365.71322 -5.027,-30.1622 -11.3115,-52.7831 -17.5952,-75.4044 15.0809,-8.7973 30.1638,-17.5942 57.1842,-31.4187 27.0205,-13.8243 65.9781,-32.6742 98.0254,-66.6067 16.0236,-16.9663 30.3195,-37.7035 42.0228,-61.6601 50.80182,-103.9907 22.26732,-190.341095 -48.6594,-255.926195 48.7272,60.8309 62.8847,136.309 19.7934,224.516295 -11.6691,23.8864 -25.923,44.5608 -41.8996,61.4774 -31.9535,33.8331 -70.7982,52.6294 -97.7394,66.4132 -26.9415,13.784 -41.9781,22.5548 -57.0147,31.3262 6.2652,22.5552 12.5301,45.1104 17.5423,75.1843 35.2575,225.69934 -154.3872,442.55007 -382.184,364.64168 -121.1148,242.22952 -373.136602,318.95492 -539.3522,122.23971 72.319898,104.33461 165.327698,149.28131 257.7879,145.41741 z"
       clip-path="none" /></g><g
     id="g312"
     transform="matrix(1.2067536,0.30531579,-0.30531579,1.2067536,-172.2185,-482.73729)"><path
       style="fill:url(#linearGradient312);stroke-width:0.754858;stroke-linecap:round;stroke-linejoin:round"
       d="m 416.31638,813.86787 c 228.466,78.13722 418.6684,-139.35075 383.3074,-365.71317 -5.027,-30.1622 -11.3107,-52.7832 -17.5944,-75.4046 15.0809,-8.7972 30.1619,-17.5944 57.1823,-31.4189 27.0205,-13.8243 65.9788,-32.6752 98.0261,-66.6077 16.0236,-16.9663 30.319,-37.7025 42.0224,-61.6591 159.14492,-325.7679 -460.2759,-478.4308 -722.5522,-361.861 -214.905102,95.515505 -374.5086,374.5074 -448.0281,556.1081 -73.5195,181.60061 -60.9523,265.80091 -32.0467,348.11846 142.197098,404.95034 490.2665,357.27114 639.6832,58.43791 z"
       id="path311"
       clip-path="none" /><path
       id="path312"
       style="fill:url(#radialGradient312);fill-opacity:1;stroke-width:0.754858;stroke-linecap:round;stroke-linejoin:round"
       d="m 107.53518,1048.3543 c 118.8775,-4.9679 236.8505,-90.62355 308.7822,-234.48688 228.466,78.13722 418.6673,-139.35087 383.3063,-365.71322 -5.027,-30.1622 -11.3115,-52.7831 -17.5952,-75.4044 15.0809,-8.7973 30.1638,-17.5942 57.1842,-31.4187 27.0205,-13.8243 65.9781,-32.6742 98.0254,-66.6067 16.0236,-16.9663 30.3195,-37.7035 42.0228,-61.6601 50.80182,-103.9907 22.26732,-190.341095 -48.6594,-255.926195 48.7272,60.8309 62.8847,136.309 19.7934,224.516295 -11.6691,23.8864 -25.923,44.5608 -41.8996,61.4774 -31.9535,33.8331 -70.7982,52.6294 -97.7394,66.4132 -26.9415,13.784 -41.9781,22.5548 -57.0147,31.3262 6.2652,22.5552 12.5301,45.1104 17.5423,75.1843 35.2575,225.69934 -154.3872,442.55007 -382.184,364.64168 -121.1148,242.22952 -373.136602,318.95492 -539.3522,122.23971 72.319898,104.33461 165.327698,149.28131 257.7879,145.41741 z"
       clip-path="none" /></g><g
     id="g314"
     transform="matrix(-1.2067536,0.30531579,0.30531579,1.2067536,3172.2185,-482.73729)"><path
       style="fill:url(#linearGradient314);stroke-width:0.754858;stroke-linecap:round;stroke-linejoin:round"
       d="m 416.31638,813.86787 c 228.466,78.13722 418.6684,-139.35075 383.3074,-365.71317 -5.027,-30.1622 -11.3107,-52.7832 -17.5944,-75.4046 15.0809,-8.7972 30.1619,-17.5944 57.1823,-31.4189 27.0205,-13.8243 65.9788,-32.6752 98.0261,-66.6077 16.0236,-16.9663 30.319,-37.7025 42.0224,-61.6591 159.14492,-325.7679 -460.2759,-478.4308 -722.5522,-361.861 -214.905102,95.515505 -374.5086,374.5074 -448.0281,556.1081 -73.5195,181.60061 -60.9523,265.80091 -32.0467,348.11846 142.197098,404.95034 490.2665,357.27114 639.6832,58.43791 z"
       id="path313"
       clip-path="none" /><path
       id="path314"
       style="fill:url(#radialGradient314);fill-opacity:1;stroke-width:0.754858;stroke-linecap:round;stroke-linejoin:round"
       d="m 107.53518,1048.3543 c 118.8775,-4.9679 236.8505,-90.62355 308.7822,-234.48688 228.466,78.13722 418.6673,-139.35087 383.3063,-365.71322 -5.027,-30.1622 -11.3115,-52.7831 -17.5952,-75.4044 15.0809,-8.7973 30.1638,-17.5942 57.1842,-31.4187 27.0205,-13.8243 65.9781,-32.6742 98.0254,-66.6067 16.0236,-16.9663 30.3195,-37.7035 42.0228,-61.6601 50.80182,-103.9907 22.26732,-190.341095 -48.6594,-255.926195 48.7272,60.8309 62.8847,136.309 19.7934,224.516295 -11.6691,23.8864 -25.923,44.5608 -41.8996,61.4774 -31.9535,33.8331 -70.7982,52.6294 -97.7394,66.4132 -26.9415,13.784 -41.9781,22.5548 -57.0147,31.3262 6.2652,22.5552 12.5301,45.1104 17.5423,75.1843 35.2575,225.69934 -154.3872,442.55007 -382.184,364.64168 -121.1148,242.22952 -373.136602,318.95492 -539.3522,122.23971 72.319898,104.33461 165.327698,149.28131 257.7879,145.41741 z"
       clip-path="none" /></g><g
     id="g298"
     transform="matrix(1.1887349,0,0,1.1887349,-227.94906,-193.28609)"><circle
       style="opacity:1;mix-blend-mode:overlay;fill:url(#radialGradient219);stroke:none;stroke-width:4.3563;stroke-linecap:round;stroke-linejoin:round;stroke-opacity:1;paint-order:stroke fill markers"
       id="path218"
       cx="1453.6034"
       cy="1676.813"
       r="1261.8457" /><g
       id="g112"
       transform="matrix(5.8090636,0,0,5.8090636,390.07798,535.6746)"><path
         style="fill:#ffe52a;fill-opacity:1;stroke-width:4;stroke-linecap:round;stroke-linejoin:round;paint-order:stroke fill markers"
         d="m 103.73234,60.609666 c 16.00185,-12.180387 57.81896,-1.51073 77.97774,0.297397 27.42685,0.218428 36.07512,11.5383 57.69515,27.420095 6.36433,4.698905 8.74347,6.721171 12.78813,8.208168 4.04467,1.486998 9.7546,2.438653 17.36807,4.996314 19.55696,6.56993 66.46289,29.25297 80.36445,98.24587 2.27118,11.27177 4.96286,23.97316 6.35079,32.17458 1.38793,8.20142 1.47204,11.90249 0.71498,15.09896 -0.75707,3.19646 -2.35525,5.88814 -3.99555,7.78078 -1.64029,1.89264 -3.3226,2.98614 -5.71996,6.14057 -7.6604,11.13971 -13.79028,23.25652 -20.39831,35.03464 -7.05964,12.53084 -10.55358,17.33223 -25.90807,27.9268 -81.35764,56.13675 -165.44177,21.17054 -179.50519,14.63622 -13.66015,-6.13456 -28.433731,-9.08238 -38.777855,-20.52461 -6.645319,-7.65476 -15.897982,-21.28141 -22.375013,-30.87078 -6.47703,-9.58937 -10.178097,-15.14097 -14.636338,-22.96393 -4.458241,-7.82296 -9.673376,-17.91677 -12.028642,-24.81439 -4.687303,-11.23432 3.355829,-18.79533 8.495801,-27.92678 2.439399,-4.54235 3.617011,-9.08457 3.280527,-13.71104 -3.05984,-11.04945 -3.409979,-22.92209 -8.748166,-33.22613 -2.355307,-4.37413 -5.888136,-9.2528 -7.65459,-14.04751 -1.766453,-4.7947 -1.766453,-9.50515 -1.847795,-17.56092 -1.282246,-20.68783 -2.601432,-49.571718 20.530114,-24.5522 2.736075,2.97399 4.282512,4.75834 5.234189,7.37548 0.951677,2.61713 1.308548,6.06688 1.189583,8.684 -0.118965,2.61711 -0.713748,4.40146 -0.118935,6.72119 0.594814,2.31974 2.379163,5.1747 4.460971,6.66169 4.190384,2.9931 13.536921,1.1471 11.598484,-14.0372 -0.356884,-2.79556 -0.951666,-4.93678 -2.022312,-6.78066 -1.070646,-1.84388 -2.617086,-3.39032 -4.163571,-5.71006 -1.546485,-2.31973 -3.09292,-5.4126 -3.628233,-8.26765 -0.535312,-2.85504 -0.05948,-5.472092 1.070645,-8.029737 1.130129,-2.557646 2.91448,-5.055737 4.639404,-7.078058 1.724924,-2.02232 3.390318,-3.568758 4.341993,-4.817838 0.951675,-1.24908 1.189589,-2.200734 0.65426,-3.152416 -0.535329,-0.951682 -1.843853,-1.903336 -2.973974,-2.914499 -1.130121,-1.011163 -2.081775,-2.081774 -2.973977,-2.914494 -0.892202,-0.83272 -1.724899,-1.427504 -3.509313,-0.654248 -1.784414,0.773256 -4.520418,2.914477 -6.931783,3.841173 -2.411364,0.926696 -4.49797,0.638833 -6.282361,-0.7887 C 46.503296,75.08221 45.02118,72.515108 41.662954,66.889438 38.304728,61.263767 33.070632,52.579926 29.56132,46.691419 26.052009,40.802912 24.267658,37.710037 24.743522,35.50928 25.219386,33.308524 27.95539,32 30.394073,32.000013 c 2.438684,1.3e-5 4.579905,1.308537 7.375479,3.985157 2.795573,2.676621 6.245318,6.72115 8.743475,9.635666 2.498156,2.914516 4.044594,4.698867 5.531597,5.947944 1.487003,1.249078 2.914484,1.962819 3.7472,1.368004 0.832716,-0.594815 1.07063,-2.498122 3.330895,-4.163564 15.209027,-11.206536 39.195811,14.861816 44.609621,11.836446 z"
         id="path1" /><path
         id="path14"
         style="mix-blend-mode:multiply;fill:url(#radialGradient16);stroke-width:4;stroke-linecap:round;stroke-linejoin:round;paint-order:stroke fill markers"
         d="m 30.394531,32 c -2.438683,-1.3e-5 -5.174526,1.30901 -5.65039,3.509766 -0.475864,2.200757 1.307095,5.293133 4.816406,11.18164 3.509312,5.888507 8.743336,14.571595 12.101562,20.197266 3.358226,5.62567 4.840613,8.193561 6.625,9.621094 1.784391,1.427533 3.87184,1.715758 6.283203,0.789062 2.411365,-0.926696 5.147227,-3.068541 6.931641,-3.841797 1.784414,-0.773256 2.617564,-0.178423 3.509766,0.654297 0.892202,0.83272 1.842535,1.9029 2.972656,2.914063 1.130121,1.011163 2.43928,1.964333 2.974609,2.916015 0.535329,0.951682 0.297378,1.903264 -0.654296,3.152344 -0.951676,1.24908 -2.616873,2.794086 -4.341797,4.816406 -1.724924,2.022321 -3.508543,4.520479 -4.638672,7.078125 -1.130125,2.557645 -1.607578,5.176209 -1.072266,8.031249 0.535313,2.85505 2.082421,5.94785 3.628906,8.26758 1.546485,2.31974 3.093417,3.8651 4.164063,5.70898 1.070646,1.84388 1.6646,3.98569 2.021484,6.78125 1.938437,15.1843 -7.407272,17.03021 -11.597656,14.03711 -2.081808,-1.48699 -3.866124,-4.34237 -4.460938,-6.66211 -0.594813,-2.31973 1.76e-4,-4.10359 0.119141,-6.7207 0.118965,-2.61712 -0.237776,-6.06646 -1.189453,-8.68359 -0.951677,-2.61714 -2.4983,-4.40297 -5.234375,-7.37696 -23.131546,-25.019514 -21.813496,3.86491 -20.53125,24.55274 0.08134,8.05577 0.0812,12.76584 1.847656,17.56055 1.766454,4.7947 5.300943,9.67469 7.65625,14.04882 5.338187,10.30404 5.688207,22.17516 8.748047,33.22461 0.143757,1.97659 0.01039,3.93822 -0.378906,5.89063 A 203.89911,203.89911 0 0 0 187.51367,61.136719 C 185.67346,61.001102 183.74472,60.922447 181.71094,60.90625 161.55216,59.098123 119.73427,48.428988 103.73242,60.609375 98.318612,63.634745 74.332074,37.566902 59.123047,48.773438 56.862782,50.43888 56.623732,52.342685 55.791016,52.9375 54.9583,53.532315 53.531925,52.817437 52.044922,51.568359 50.557919,50.319282 49.011828,48.53561 46.513672,45.621094 44.015515,42.706578 40.565104,38.660996 37.769531,35.984375 34.973957,33.307755 32.833215,32.000013 30.394531,32 Z" /><path
         id="path6"
         style="mix-blend-mode:multiply;fill:url(#radialGradient8);stroke-width:4.62163;stroke-linecap:round;stroke-linejoin:round;paint-order:stroke fill markers"
         d="m 30.394531,32 c -2.438683,-1.3e-5 -5.174526,1.30901 -5.65039,3.509766 -0.475864,2.200757 1.307095,5.293133 4.816406,11.18164 3.509312,5.888507 8.743336,14.571595 12.101562,20.197266 3.358226,5.62567 4.840613,8.193561 6.625,9.621094 1.784391,1.427533 3.87184,1.715758 6.283203,0.789062 2.411365,-0.926696 5.147227,-3.068541 6.931641,-3.841797 1.784414,-0.773256 2.617564,-0.178423 3.509766,0.654297 0.892202,0.83272 1.842535,1.9029 2.972656,2.914063 1.130121,1.011163 2.43928,1.964333 2.974609,2.916015 0.535329,0.951682 0.297378,1.903264 -0.654296,3.152344 -0.951676,1.24908 -2.616873,2.794086 -4.341797,4.816406 -1.724924,2.022321 -3.508543,4.520479 -4.638672,7.078125 -1.130125,2.557645 -1.607578,5.176209 -1.072266,8.031249 0.535313,2.85505 2.082421,5.94785 3.628906,8.26758 1.546485,2.31974 3.093417,3.8651 4.164063,5.70898 1.070646,1.84388 1.6646,3.98569 2.021484,6.78125 1.938437,15.1843 -7.407272,17.03021 -11.597656,14.03711 -2.081808,-1.48699 -3.866124,-4.34237 -4.460938,-6.66211 -0.594813,-2.31973 1.76e-4,-4.10359 0.119141,-6.7207 0.118965,-2.61712 -0.237776,-6.06646 -1.189453,-8.68359 -0.951677,-2.61714 -2.4983,-4.40297 -5.234375,-7.37696 -23.131546,-25.019514 -21.813496,3.86491 -20.53125,24.55274 0.08134,8.05577 0.0812,12.76584 1.847656,17.56055 1.766454,4.7947 5.300943,9.67469 7.65625,14.04882 5.338187,10.30404 5.688207,22.17516 8.748047,33.22461 0.336484,4.62647 -0.841851,9.16859 -3.28125,13.71094 -5.139972,9.13145 -13.183397,16.69341 -8.496094,27.92773 2.355266,6.89762 7.571056,16.9915 12.029297,24.81446 4.458241,7.82296 8.159689,13.37352 14.636719,22.96289 6.477031,9.58937 15.729681,23.21633 22.375,30.87109 10.344124,11.44223 25.11719,14.39083 38.77734,20.52539 7.53385,3.50047 35.16219,15.1592 71.70118,16.60157 A 212.26126,212.26126 0 0 0 227.91992,238.78516 212.26126,212.26126 0 0 0 121.98047,55.072266 c -7.39227,0.540192 -13.81212,2.160539 -18.24805,5.537109 C 98.318612,63.634745 74.332074,37.566902 59.123047,48.773438 56.862782,50.43888 56.623732,52.342685 55.791016,52.9375 54.9583,53.532315 53.531925,52.817437 52.044922,51.568359 50.557919,50.319282 49.011828,48.53561 46.513672,45.621094 44.015515,42.706578 40.565104,38.660996 37.769531,35.984375 34.973957,33.307755 32.833215,32.000013 30.394531,32 Z" /><path
         style="mix-blend-mode:multiply;fill:url(#linearGradient21);fill-opacity:1;stroke-width:4;stroke-linecap:round;stroke-linejoin:round;paint-order:stroke fill markers"
         d="m 103.73234,60.609666 c 16.00185,-12.180387 57.81896,-1.51073 77.97774,0.297397 27.42685,0.218428 36.07512,11.5383 57.69515,27.420095 6.36433,4.698905 8.74347,6.721171 12.78813,8.208168 4.04467,1.486998 9.7546,2.438653 17.36807,4.996314 19.55696,6.56993 66.46289,29.25297 80.36445,98.24587 2.27118,11.27177 4.96286,23.97316 6.35079,32.17458 1.38793,8.20142 1.47204,11.90249 0.71498,15.09896 -0.75707,3.19646 -2.35525,5.88814 -3.99555,7.78078 -1.64029,1.89264 -3.3226,2.98614 -5.71996,6.14057 -7.6604,11.13971 -13.79028,23.25652 -20.39831,35.03464 -7.05964,12.53084 -10.55358,17.33223 -25.90807,27.9268 -81.35764,56.13675 -165.44177,21.17054 -179.50519,14.63622 -13.66015,-6.13456 -28.433731,-9.08238 -38.777855,-20.52461 -6.645319,-7.65476 -15.897982,-21.28141 -22.375013,-30.87078 -6.47703,-9.58937 -10.178097,-15.14097 -14.636338,-22.96393 -4.458241,-7.82296 -9.673376,-17.91677 -12.028642,-24.81439 -4.687303,-11.23432 3.355829,-18.79533 8.495801,-27.92678 2.439399,-4.54235 3.617011,-9.08457 3.280527,-13.71104 -3.05984,-11.04945 -3.409979,-22.92209 -8.748166,-33.22613 -2.355307,-4.37413 -5.888136,-9.2528 -7.65459,-14.04751 -1.766453,-4.7947 -1.766453,-9.50515 -1.847795,-17.56092 -1.282246,-20.68783 -2.601432,-49.571718 20.530114,-24.5522 2.736075,2.97399 4.282512,4.75834 5.234189,7.37548 0.951677,2.61713 1.308548,6.06688 1.189583,8.684 -0.118965,2.61711 -0.713748,4.40146 -0.118935,6.72119 0.594814,2.31974 2.379163,5.1747 4.460971,6.66169 4.190384,2.9931 13.536921,1.1471 11.598484,-14.0372 -0.356884,-2.79556 -0.951666,-4.93678 -2.022312,-6.78066 -1.070646,-1.84388 -2.617086,-3.39032 -4.163571,-5.71006 -1.546485,-2.31973 -3.09292,-5.4126 -3.628233,-8.26765 -0.535312,-2.85504 -0.05948,-5.472092 1.070645,-8.029737 1.130129,-2.557646 2.91448,-5.055737 4.639404,-7.078058 1.724924,-2.02232 3.390318,-3.568758 4.341993,-4.817838 0.951675,-1.24908 1.189589,-2.200734 0.65426,-3.152416 -0.535329,-0.951682 -1.843853,-1.903336 -2.973974,-2.914499 -1.130121,-1.011163 -2.081775,-2.081774 -2.973977,-2.914494 -0.892202,-0.83272 -1.724899,-1.427504 -3.509313,-0.654248 -1.784414,0.773256 -4.520418,2.914477 -6.931783,3.841173 -2.411364,0.926696 -4.49797,0.638833 -6.282361,-0.7887 C 46.503296,75.08221 45.02118,72.515108 41.662954,66.889438 38.304728,61.263767 33.070632,52.579926 29.56132,46.691419 26.052009,40.802912 24.267658,37.710037 24.743522,35.50928 25.219386,33.308524 27.95539,32 30.394073,32.000013 c 2.438684,1.3e-5 4.579905,1.308537 7.375479,3.985157 2.795573,2.676621 6.245318,6.72115 8.743475,9.635666 2.498156,2.914516 4.044594,4.698867 5.531597,5.947944 1.487003,1.249078 2.914484,1.962819 3.7472,1.368004 0.832716,-0.594815 1.07063,-2.498122 3.330895,-4.163564 15.209027,-11.206536 39.195811,14.861816 44.609621,11.836446 z"
         id="path19" /><path
         id="path59"
         style="mix-blend-mode:overlay;fill:url(#radialGradient61);stroke:none;stroke-width:4;stroke-linecap:round;stroke-linejoin:round;stroke-opacity:1;paint-order:stroke fill markers"
         d="m 131.17383,54.896484 c -5.89846,-0.155257 -11.48598,0.131611 -16.35938,1.128907 a 134.77351,134.77351 0 0 0 -9.45898,3.478515 c -0.5664,0.345491 -1.10846,0.713772 -1.62305,1.105469 -0.40004,0.223552 -0.90231,0.288083 -1.49414,0.220703 A 134.77351,134.77351 0 0 0 71.011719,80.037109 c 0.466536,0.919719 0.212351,1.849945 -0.707031,3.056641 -0.951676,1.24908 -2.616873,2.794086 -4.341797,4.816406 -1.724924,2.022321 -3.508543,4.520479 -4.638672,7.078125 -1.130125,2.557645 -1.607578,5.176209 -1.072266,8.031249 0.535313,2.85505 2.082421,5.94785 3.628906,8.26758 1.546485,2.31974 3.093417,3.8651 4.164063,5.70898 1.070646,1.84388 1.6646,3.98569 2.021484,6.78125 1.938437,15.1843 -7.407272,17.03021 -11.597656,14.03711 -2.081808,-1.48699 -3.866124,-4.34237 -4.460938,-6.66211 -0.594813,-2.31973 1.76e-4,-4.10359 0.119141,-6.7207 0.118965,-2.61712 -0.237776,-6.06646 -1.189453,-8.68359 -0.951677,-2.61714 -2.4983,-4.40297 -5.234375,-7.37696 -0.507005,-0.54838 -1.002558,-1.07111 -1.486328,-1.56836 a 134.77351,134.77351 0 0 0 -18.550781,38.03711 c 0.262284,1.99647 0.679216,3.81428 1.353515,5.64454 1.766454,4.7947 5.300943,9.67469 7.65625,14.04882 5.338187,10.30404 5.688207,22.17516 8.748047,33.22461 0.336484,4.62647 -0.841851,9.16859 -3.28125,13.71094 -5.139972,9.13145 -13.183397,16.69341 -8.496094,27.92773 0.0084,0.0247 0.0169,0.0495 0.02539,0.0742 A 134.77351,134.77351 0 0 0 156.57617,318.93945 134.77351,134.77351 0 0 0 291.34961,184.16602 134.77351,134.77351 0 0 0 261.05078,99.023438 C 257.4968,98.091151 254.55967,97.405115 252.19336,96.535156 248.1487,95.048159 245.76863,93.02703 239.4043,88.328125 217.78427,72.44633 209.13779,61.124678 181.71094,60.90625 169.35734,59.798203 148.86919,55.362257 131.17383,54.896484 Z" /><path
         style="fill:#ff9f20;fill-opacity:1;stroke-width:4;stroke-linecap:round;stroke-linejoin:round;paint-order:stroke fill markers"
         d="m 237.68041,101.94802 c 104.41439,31.66679 135.30437,137.81475 55.4347,205.20447 -72.70308,61.34294 -236.821154,28.68696 -232.505423,-106.94444 0.416378,-13.08563 2.5576,-25.814 6.899672,-37.41262 19.234465,-51.3794 87.817141,-85.82374 170.171051,-60.84741 z"
         id="path2" /><path
         id="path10"
         style="mix-blend-mode:overlay;fill:url(#radialGradient11);stroke-width:4.53875;stroke-linecap:round;stroke-linejoin:round;paint-order:stroke fill markers"
         d="m 30.394531,32 c -2.438683,-1.3e-5 -5.174526,1.30901 -5.65039,3.509766 -0.475864,2.200757 1.307095,5.293133 4.816406,11.18164 3.509312,5.888507 8.743336,14.571595 12.101562,20.197266 3.358226,5.62567 4.840613,8.193561 6.625,9.621094 1.784391,1.427533 3.87184,1.715758 6.283203,0.789062 2.411365,-0.926696 5.147227,-3.068541 6.931641,-3.841797 1.784414,-0.773256 2.617564,-0.178423 3.509766,0.654297 0.892202,0.83272 1.842535,1.9029 2.972656,2.914063 1.130121,1.011163 2.43928,1.964333 2.974609,2.916015 0.535329,0.951682 0.297378,1.903264 -0.654296,3.152344 -0.951676,1.24908 -2.616873,2.794086 -4.341797,4.816406 -1.724924,2.022321 -3.508543,4.520479 -4.638672,7.078125 -1.130125,2.557645 -1.607578,5.176209 -1.072266,8.031249 0.535313,2.85505 2.082421,5.94785 3.628906,8.26758 1.546485,2.31974 3.093417,3.8651 4.164063,5.70898 1.070646,1.84388 1.6646,3.98569 2.021484,6.78125 1.938437,15.1843 -7.407272,17.03021 -11.597656,14.03711 -2.081808,-1.48699 -3.866124,-4.34237 -4.460938,-6.66211 -0.594813,-2.31973 1.76e-4,-4.10359 0.119141,-6.7207 0.118965,-2.61712 -0.237776,-6.06646 -1.189453,-8.68359 -0.951677,-2.61714 -2.4983,-4.40297 -5.234375,-7.37696 -23.131546,-25.019514 -21.813496,3.86491 -20.53125,24.55274 0.04634,4.58931 0.06716,8.09255 0.402344,11.14453 A 216.47205,216.47205 0 0 0 192.97852,220.89453 216.47205,216.47205 0 0 0 338.55078,164.63672 C 318.85582,122.59131 285.32404,106.82681 269.56055,101.53125 261.94708,98.973589 256.23803,98.022154 252.19336,96.535156 248.1487,95.048159 245.76863,93.02703 239.4043,88.328125 217.78427,72.44633 209.13779,61.124678 181.71094,60.90625 161.55216,59.098123 119.73427,48.428988 103.73242,60.609375 98.318612,63.634745 74.332074,37.566902 59.123047,48.773438 56.862782,50.43888 56.623732,52.342685 55.791016,52.9375 54.9583,53.532315 53.531925,52.817437 52.044922,51.568359 50.557919,50.319282 49.011828,48.53561 46.513672,45.621094 44.015515,42.706578 40.565104,38.660996 37.769531,35.984375 34.973957,33.307755 32.833215,32.000013 30.394531,32 Z" /><path
         style="mix-blend-mode:multiply;fill:url(#linearGradient14);fill-opacity:1;stroke-width:4;stroke-linecap:round;stroke-linejoin:round;paint-order:stroke fill markers"
         d="m 237.68041,101.94802 c 104.41439,31.66679 135.30437,137.81475 55.4347,205.20447 -72.70308,61.34294 -236.821154,28.68696 -232.505423,-106.94444 0.416378,-13.08563 2.5576,-25.814 6.899672,-37.41262 19.234465,-51.3794 87.817141,-85.82374 170.171051,-60.84741 z"
         id="path11" /><path
         id="path21"
         style="mix-blend-mode:multiply;fill:url(#radialGradient23);stroke-width:4;stroke-linecap:round;stroke-linejoin:round;paint-order:stroke fill markers"
         d="m 30.394531,32 c -2.438683,-1.3e-5 -5.174526,1.30901 -5.65039,3.509766 -0.475864,2.200757 1.307095,5.293133 4.816406,11.18164 3.509312,5.888507 8.743336,14.571595 12.101562,20.197266 3.358226,5.62567 4.840613,8.193561 6.625,9.621094 1.784391,1.427533 3.87184,1.715758 6.283203,0.789062 2.411365,-0.926696 5.147227,-3.068541 6.931641,-3.841797 1.784414,-0.773256 2.617564,-0.178423 3.509766,0.654297 0.892202,0.83272 1.842535,1.9029 2.972656,2.914063 1.130121,1.011163 2.43928,1.964333 2.974609,2.916015 0.535329,0.951682 0.297378,1.903264 -0.654296,3.152344 -0.951676,1.24908 -2.616873,2.794086 -4.341797,4.816406 -1.724924,2.022321 -3.508543,4.520479 -4.638672,7.078125 -1.130125,2.557645 -1.607578,5.176209 -1.072266,8.031249 0.535313,2.85505 2.082421,5.94785 3.628906,8.26758 1.546485,2.31974 3.093417,3.8651 4.164063,5.70898 1.070646,1.84388 1.6646,3.98569 2.021484,6.78125 1.938437,15.1843 -7.407272,17.03021 -11.597656,14.03711 -2.081808,-1.48699 -3.866124,-4.34237 -4.460938,-6.66211 -0.594813,-2.31973 1.76e-4,-4.10359 0.119141,-6.7207 0.118965,-2.61712 -0.237776,-6.06646 -1.189453,-8.68359 -0.951677,-2.61714 -2.4983,-4.40297 -5.234375,-7.37696 -23.131546,-25.019514 -21.813496,3.86491 -20.53125,24.55274 0.08134,8.05577 0.0812,12.76584 1.847656,17.56055 1.41868,3.85074 3.978061,7.75596 6.150391,11.41015 A 251.24164,251.24164 0 0 0 210.36914,67.427734 C 202.70173,63.382211 194.13237,61.005175 181.71094,60.90625 161.55216,59.098123 119.73427,48.428988 103.73242,60.609375 98.318612,63.634745 74.332074,37.566902 59.123047,48.773438 56.862782,50.43888 56.623732,52.342685 55.791016,52.9375 54.9583,53.532315 53.531925,52.817437 52.044922,51.568359 50.557919,50.319282 49.011828,48.53561 46.513672,45.621094 44.015515,42.706578 40.565104,38.660996 37.769531,35.984375 34.973957,33.307755 32.833215,32.000013 30.394531,32 Z" /><path
         style="mix-blend-mode:multiply;fill:url(#linearGradient23);fill-opacity:1;stroke-width:4;stroke-linecap:round;stroke-linejoin:round;paint-order:stroke fill markers"
         d="m 237.68041,101.94802 c 104.41439,31.66679 135.30437,137.81475 55.4347,205.20447 -72.70308,61.34294 -236.821154,28.68696 -232.505423,-106.94444 0.416378,-13.08563 2.5576,-25.814 6.899672,-37.41262 19.234465,-51.3794 87.817141,-85.82374 170.171051,-60.84741 z"
         id="path23" /><path
         id="path3"
         style="fill:url(#radialGradient4);stroke-width:4;stroke-linecap:round;stroke-linejoin:round;paint-order:stroke fill markers"
         d="M 179.05273,93.693359 C 124.11919,95.25235 81.935614,124.26037 67.509766,162.79492 c -1.591742,4.25189 -2.888441,8.65635 -3.91211,13.17383 a 207.93671,207.93671 0 0 0 146.357424,60.23047 207.93671,207.93671 0 0 0 125.33984,-42.01953 c -9.84523,-40.15146 -44.05933,-75.98999 -97.61523,-92.23242 -20.58848,-6.244087 -40.31577,-8.773574 -58.62696,-8.253911 z" /><path
         id="path7"
         style="mix-blend-mode:multiply;fill:url(#radialGradient12);stroke-width:5.08985;stroke-linecap:round;stroke-linejoin:round;paint-order:stroke fill markers"
         d="M 230.17578,169.45898 A 219.91628,219.91628 0 0 0 65.576172,243.5332 c 27.80761,98.65289 163.327578,117.79734 227.539058,63.61914 38.11355,-32.15815 51.00461,-73.14177 42.72071,-110.64648 A 219.91628,219.91628 0 0 0 230.17578,169.45898 Z" /><circle
         style="mix-blend-mode:overlay;fill:url(#radialGradient103);stroke:none;stroke-width:3.0507;stroke-linecap:round;stroke-linejoin:round;stroke-opacity:1;paint-order:stroke fill markers"
         id="path101"
         cx="255.27539"
         cy="251.40234"
         r="91.515625" /><path
         id="path12"
         style="mix-blend-mode:overlay;fill:url(#radialGradient18);stroke-width:4;stroke-linecap:round;stroke-linejoin:round;paint-order:stroke fill markers"
         d="m 68.541016,45.966797 c -2.032091,-0.06345 -4.01666,0.203343 -5.910157,0.904297 a 173.78102,173.78102 0 0 0 6.921875,31.507812 c 0.595505,0.527174 1.11509,1.044889 1.40625,1.5625 0.412071,0.732559 0.365793,1.463839 -0.111328,2.332032 A 173.78102,173.78102 0 0 0 235.0918,199.27734 173.78102,173.78102 0 0 0 338.7207,164.99805 C 319.04906,122.68138 285.36915,106.84196 269.56055,101.53125 261.94708,98.973589 256.23803,98.022154 252.19336,96.535156 248.1487,95.048159 245.76863,93.02703 239.4043,88.328125 217.78427,72.44633 209.13779,61.124678 181.71094,60.90625 161.55216,59.098123 119.73427,48.428988 103.73242,60.609375 99.345718,63.060773 82.765651,46.410977 68.541016,45.966797 Z" /><g
         id="g1"
         transform="rotate(-4.033668,-1590.0792,1446.2109)"><path
           style="fill:url(#linearGradient50);stroke:none;stroke-width:4;stroke-linecap:round;stroke-linejoin:round;stroke-opacity:1;paint-order:stroke fill markers"
           d="m 360.93972,388.50408 c -0.26427,-0.62763 -0.62762,-1.28827 -0.44593,-1.50298 0.18169,-0.21471 0.90839,0.0165 1.99849,1.46998 1.09009,1.45347 2.5435,4.12907 3.07202,6.17711 0.52852,2.04804 0.13213,3.46842 -0.42943,4.47592 -0.56156,1.00751 -1.28827,1.60209 -1.78376,2.22971 -0.49549,0.62763 -0.75975,1.28827 -1.92792,3.58692 -1.16818,2.29864 -3.24019,6.23511 -5.42077,9.62823 -2.18057,3.39313 -4.46957,6.2427 -6.87544,8.11132 -2.40586,1.86863 -4.92844,2.7562 -6.98393,3.12992 -11.03494,1.28472 -16.26257,-11.80251 -20.95182,-19.52702 -1.51826,-2.52265 -2.6394,-4.6248 -3.55036,-5.74597 -0.91096,-1.12117 -1.61167,-1.26131 -2.45256,-2.07885 -0.84089,-0.81753 -1.82189,-2.31239 -2.24232,-3.83066 -0.42044,-1.51826 -0.2803,-3.05983 0.18686,-3.76056 0.46716,-0.70073 1.26131,-0.56059 1.91533,-0.28029 0.65402,0.2803 1.16788,0.70073 1.84526,1.65841 4.59319,10.03875 51.01748,15.60717 44.04628,-3.74119 z"
           id="path42" /><path
           id="path44"
           style="fill:#7d1623;fill-opacity:1;stroke:none;stroke-width:4;stroke-linecap:round;stroke-linejoin:round;stroke-opacity:1;paint-order:stroke fill markers"
           d="m 329.40576,419.57128 c 3.25213,4.00104 7.28487,6.87296 12.73633,6.23828 2.05549,-0.37372 4.57852,-1.26027 6.98438,-3.1289 1.36828,-1.06274 2.69991,-2.4437 3.99414,-4.06055 -0.31286,-0.37177 -0.62582,-0.72761 -0.9336,-1.07813 -8.85752,-9.88907 -15.30265,-5.08484 -22.78125,2.0293 z" /><path
           id="path48"
           style="fill:#7d1623;fill-opacity:1;stroke:none;stroke-width:4;stroke-linecap:round;stroke-linejoin:round;stroke-opacity:1;paint-order:stroke fill markers"
           d="m 329.40576,419.57128 c 3.25213,4.00104 7.28487,6.87296 12.73633,6.23828 2.05549,-0.37372 4.57852,-1.26027 6.98438,-3.1289 1.36828,-1.06274 2.69991,-2.4437 3.99414,-4.06055 -0.31286,-0.37177 -0.62582,-0.72761 -0.9336,-1.07813 -8.85752,-9.88907 -15.30265,-5.08484 -22.78125,2.0293 z" /><path
           id="path47"
           style="fill:url(#radialGradient48);stroke:none;stroke-width:4;stroke-linecap:round;stroke-linejoin:round;stroke-opacity:1;paint-order:stroke fill markers"
           d="m 342.35498,411.93456 c -4.43303,0.003 -8.5088,3.4127 -12.94922,7.63672 0.54339,0.66852 1.10928,1.30601 1.69922,1.90039 a 31.116827,31.116827 0 0 0 9.24414,1.4043 31.116827,31.116827 0 0 0 10.67383,-1.88867 c 0.70943,-0.71413 1.40927,-1.50721 2.09766,-2.36719 -0.31286,-0.37177 -0.62582,-0.72761 -0.9336,-1.07813 -3.59836,-4.01743 -6.7989,-5.60965 -9.83203,-5.60742 z" /><path
           id="path50"
           style="mix-blend-mode:multiply;fill:url(#radialGradient52);stroke:none;stroke-width:4;stroke-linecap:round;stroke-linejoin:round;stroke-opacity:1;paint-order:stroke fill markers"
           d="m 338.17139,414.27245 a 19.200001,19.200001 0 0 0 -2.73438,0.19532 c -1.97987,1.35141 -3.96634,3.13923 -6.03125,5.10351 3.25213,4.00104 7.28487,6.87296 12.73633,6.23828 2.05549,-0.37372 4.57852,-1.26027 6.98438,-3.1289 0.94393,-0.73316 1.87049,-1.61794 2.77929,-2.62696 a 19.200001,19.200001 0 0 0 -13.73437,-5.78125 z" /><path
           id="path52"
           style="mix-blend-mode:multiply;fill:url(#radialGradient54);stroke:none;stroke-width:5.17038;stroke-linecap:round;stroke-linejoin:round;stroke-opacity:1;paint-order:stroke fill markers"
           d="m 360.68963,386.93228 c -0.09,-0.004 -0.15696,0.0214 -0.1967,0.0684 -0.18169,0.21471 0.18183,0.87623 0.4461,1.50386 6.9712,19.34836 -39.4529,13.77977 -44.04609,3.74102 -0.67738,-0.95768 -1.19086,-1.37897 -1.84488,-1.65927 -0.65402,-0.2803 -1.44791,-0.42069 -1.91507,0.28004 -0.46716,0.70073 -0.60739,2.24353 -0.18695,3.76179 0.42043,1.51827 1.40116,3.01178 2.24205,3.82931 0.84089,0.81754 1.54255,0.95891 2.45351,2.08008 0.91096,1.12117 2.03163,3.22372 3.54989,5.74637 0.86528,1.42536 1.74891,3.03192 2.68395,4.69848 5.27491,0.58307 11.23285,0.018 15.6645,0.0179 5.4176,2.9e-4 13.1853,-0.90163 20.27571,-2.98348 0.63085,-1.1734 1.17947,-2.23477 1.60709,-3.07622 1.16817,-2.29865 1.43342,-2.95846 1.92891,-3.58609 0.49549,-0.62762 1.2208,-1.22224 1.78236,-2.22975 0.56156,-1.0075 0.95973,-2.42881 0.43121,-4.47685 -0.52852,-2.04804 -1.98303,-4.72332 -3.07312,-6.17679 -0.85164,-1.13553 -1.48103,-1.52511 -1.80247,-1.5388 z" /><path
           id="path56"
           style="fill:url(#radialGradient57);stroke:none;stroke-width:4;stroke-linecap:round;stroke-linejoin:round;stroke-opacity:1;paint-order:stroke fill markers"
           d="m 342.30664,411.93359 c -3.91794,0.0245 -7.5574,2.70683 -11.41992,6.25196 a 17.237957,17.237957 0 0 0 10.78906,3.79492 17.237957,17.237957 0 0 0 10.95703,-3.92969 c -0.14909,-0.17135 -0.29802,-0.34202 -0.44531,-0.50976 -3.61725,-4.03853 -6.83357,-5.62648 -9.88086,-5.60743 z" /></g><path
         style="fill:url(#linearGradient26);fill-opacity:1;stroke-width:4;stroke-linecap:round;stroke-linejoin:round;paint-order:stroke fill markers"
         d="m 273.73052,227.37352 c 25.23483,-43.02949 61.50244,-123.52258 65.2359,-134.97058 2.75736,24.11325 4.09617,62.58054 0.21053,95.51725 -3.88564,32.93671 -12.99571,60.34285 -31.13612,62.33382 -20.73452,2.27573 -30.96002,-7.56193 -36.06419,-8.78247 -2.14892,-0.51385 -2.80292,0.79415 -5.60589,4.95189 -21.26116,31.53732 -46.4973,43.14528 -68.27016,46.1744 -81.17931,9.30651 -102.234469,-64.14063 -124.641581,-128.0527 0,0 7.26508,2.69575 18.383525,7.27392 58.541146,20.28125 157.840506,63.26278 175.291766,62.1507 2.60823,-0.1662 3.39827,-1.02709 6.59622,-6.59623 z"
         id="path4" /><path
         id="path8"
         style="mix-blend-mode:normal;fill:url(#linearGradient24);fill-opacity:1;stroke-width:4;stroke-linecap:round;stroke-linejoin:round;paint-order:stroke fill markers"
         d="m 313.26953,150.46484 c -12.4604,26.34675 -27.2979,56.03504 -39.53906,76.90821 -3.19795,5.56914 -3.98747,6.43145 -6.5957,6.59765 -17.45126,1.11208 -116.75184,-41.87109 -175.292973,-62.15234 -11.118445,-4.57817 -18.382813,-7.27344 -18.382813,-7.27344 22.407112,63.91207 43.463276,137.35925 124.642576,128.05274 21.77286,-3.02912 47.00837,-14.63651 68.26953,-46.17383 2.80297,-4.15774 3.45655,-5.46698 5.60547,-4.95313 5.10417,1.22054 15.32994,11.05894 36.06446,8.78321 15.35028,-1.68475 24.23487,-21.56843 28.95898,-47.60157 -2.92631,-18.55488 -10.9957,-36.43355 -23.73047,-52.1875 z" /><path
         id="path24"
         style="fill:url(#linearGradient29);fill-opacity:1;stroke-width:4;stroke-linecap:round;stroke-linejoin:round;paint-order:stroke fill markers"
         d="m 143.77734,191.13086 c -16.44171,9.81494 -33.44375,18.65587 -50.242184,27.83789 5.010964,11.68311 10.592884,22.77805 17.158204,32.66211 18.395,-11.28867 41.58358,-25.11876 74.3457,-44.50586 -13.4997,-5.21157 -27.54227,-10.69943 -41.26172,-15.99414 z" /><path
         id="path61"
         style="mix-blend-mode:multiply;fill:url(#radialGradient63);stroke:none;stroke-width:4;stroke-linecap:round;stroke-linejoin:round;stroke-opacity:1;paint-order:stroke fill markers"
         d="m 338.9668,92.402344 c -2.09107,6.411896 -14.38806,34.482826 -29.23633,65.499996 a 121.29617,121.29617 0 0 0 31.43945,4.60743 c 1.13481,-25.85014 -0.13463,-52.01838 -2.20312,-70.107426 z" /><path
         id="path27"
         style="mix-blend-mode:normal;fill:#3a2604;fill-opacity:1;stroke-width:4;stroke-linecap:round;stroke-linejoin:round;paint-order:stroke fill markers"
         d="m 320.08398,135.88672 c -2.16265,4.68319 -4.44583,9.56994 -6.81445,14.57812 12.73489,15.75435 20.80448,33.63414 23.73047,52.18946 0.85888,-4.7326 1.58,-9.66765 2.17773,-14.73438 0.70071,-5.93951 1.23006,-12.05763 1.61329,-18.24023 -5.76529,-13.69975 -12.982,-24.80669 -20.70704,-33.79297 z" /><path
         id="path38"
         style="mix-blend-mode:multiply;fill:url(#radialGradient40);stroke-width:4.53265;stroke-linecap:round;stroke-linejoin:round;paint-order:stroke fill markers"
         d="m 102.19336,196.68945 a 95.907745,95.907745 0 0 0 -16.873048,1.4961 c 19.661658,53.26347 45.684808,102.10414 112.781248,94.41211 a 95.907745,95.907745 0 0 0 -95.9082,-95.90821 z" /><path
         id="path30"
         style="mix-blend-mode:multiply;fill:url(#radialGradient34);stroke-width:4;stroke-linecap:round;stroke-linejoin:round;paint-order:stroke fill markers"
         d="M 299.67969,136.08984 A 232.07701,232.07701 0 0 0 153.07227,329.24023 c 48.4877,15.23932 104.92814,7.54011 140.04296,-22.08789 60.68482,-51.20257 57.42884,-124.77996 6.56446,-171.0625 z" /><path
         id="path34"
         style="mix-blend-mode:overlay;fill:url(#radialGradient36);stroke-width:4;stroke-linecap:round;stroke-linejoin:round;paint-order:stroke fill markers"
         d="m 125.1543,54.90625 c -2.69427,0.08798 -5.28666,0.297885 -7.73047,0.660156 a 130.24046,130.24046 0 0 0 117.79297,74.673824 130.24046,130.24046 0 0 0 61.27929,-15.3164 c -10.55212,-7.0937 -20.31248,-11.16764 -26.93554,-13.39258 -7.61347,-2.557661 -13.32252,-3.509096 -17.36719,-4.996094 C 248.1487,95.048159 245.76863,93.02703 239.4043,88.328125 217.78427,72.44633 209.13779,61.124678 181.71094,60.90625 c -13.78462,-1.236401 -37.6968,-6.615884 -56.55664,-6 z" /><path
         id="path36"
         style="mix-blend-mode:overlay;fill:url(#radialGradient38);stroke-width:4;stroke-linecap:round;stroke-linejoin:round;paint-order:stroke fill markers"
         d="m 65.576172,243.5332 a 108.6116,108.6116 0 0 0 -28.652344,3.84766 c 2.558249,5.55521 5.819216,11.68395 8.751953,16.83008 4.458241,7.82296 8.159689,13.37352 14.636719,22.96289 6.477031,9.58937 15.729681,23.21633 22.375,30.87109 10.344124,11.44223 25.11719,14.39083 38.77734,20.52539 6.16354,2.86378 25.77639,11.18867 52.71485,14.91211 a 108.6116,108.6116 0 0 0 0.008,-1.33789 A 108.6116,108.6116 0 0 0 65.576172,243.5332 Z" /><path
         id="path40"
         style="mix-blend-mode:overlay;fill:url(#radialGradient42);stroke-width:6.27778;stroke-linecap:round;stroke-linejoin:round;paint-order:stroke fill markers"
         d="m 26.589844,119.62305 c 0.05276,4.41935 0.317566,9.03388 0.582031,13.30078 0.08134,8.05577 0.0812,12.76584 1.847656,17.56055 1.766454,4.7947 5.300943,9.67469 7.65625,14.04882 5.338187,10.30404 5.688207,22.17516 8.748047,33.22461 0.336484,4.62647 -0.841851,9.16859 -3.28125,13.71094 -5.139972,9.13145 -13.183397,16.69341 -8.496094,27.92773 2.355266,6.89762 7.571056,16.9915 12.029297,24.81446 4.458241,7.82296 8.159689,13.37352 14.636719,22.96289 6.477031,9.58937 15.729681,23.21633 22.375,30.87109 9.156403,10.12843 21.78183,13.60081 34.03516,18.51953 a 195.79105,195.79105 0 0 0 6.07031,-48.37109 195.79105,195.79105 0 0 0 -96.203126,-168.57031 z" /><path
         id="path5"
         style="mix-blend-mode:normal;fill:#1f1006;fill-opacity:1;stroke-width:4;stroke-linecap:round;stroke-linejoin:round;paint-order:stroke fill markers"
         d="m 235.16016,259.02539 c -0.38654,0.014 -0.74217,0.16646 -0.97657,0.57813 -0.41671,0.73185 -0.44807,2.2807 0.0781,3.76562 0.52619,1.48494 1.60954,2.90576 2.50586,3.66211 0.89631,0.75636 1.60423,0.84803 2.5918,1.90234 0.80324,0.85754 1.79189,2.35296 3.04296,4.17774 2.41784,-1.95775 4.82054,-4.0893 7.20118,-6.40625 -5.62868,-1.26488 -10.13339,-3.35332 -11.57227,-5.99024 -0.74307,-0.90766 -1.28491,-1.29179 -1.95703,-1.52539 -0.29405,-0.1022 -0.61342,-0.17494 -0.91406,-0.16406 z" /><path
         style="fill:url(#linearGradient32);stroke:none;stroke-width:3.84475;stroke-dasharray:none;stroke-opacity:1"
         d="m 184.35997,242.46332 c -8.53543,0.72548 -13.78157,3.91274 -16.3267,7.13886 -2.60151,3.29756 -2.3369,6.57915 0.0963,7.19119 1.75142,0.44055 4.56539,-0.85341 8.19103,-1.98339 4.6973,-1.4643 15.51102,-2.37361 24.06311,1.63403 1.91164,0.89579 4.85893,3.53149 6.97742,2.72179 2.35436,-0.89989 1.82008,-5.79284 -4.40247,-10.75694 -4.53649,-3.61902 -11.35847,-6.56088 -18.59869,-5.94554"
         id="path9" /><path
         style="fill:url(#linearGradient30);stroke:none;stroke-width:2.83302;stroke-dasharray:none;stroke-opacity:1"
         d="m 307.83124,209.88418 c 5.42737,-3.22272 9.93789,-3.56021 12.84601,-2.71698 2.97251,0.86189 4.22011,2.94238 3.02384,4.35193 -0.8611,1.01461 -3.10237,1.44478 -5.75995,2.32109 -3.44323,1.13512 -10.31503,5.22393 -13.72416,11.291 -0.76204,1.35614 -1.39931,4.19904 -3.0162,4.6215 -1.79691,0.46945 -3.57336,-2.69252 -1.97054,-8.33467 1.16855,-4.11336 3.99726,-8.80017 8.60101,-11.53387"
         id="path15" /><path
         id="path55"
         style="mix-blend-mode:multiply;fill:url(#radialGradient59);stroke:none;stroke-width:5.62162;stroke-linecap:round;stroke-linejoin:round;stroke-opacity:1;paint-order:stroke fill markers"
         d="m 43.609375,189.83008 c 0.521404,2.66754 1.092435,5.32044 1.814453,7.92773 0.336484,4.62647 -0.841851,9.16859 -3.28125,13.71094 -5.139972,9.13145 -13.183397,16.69341 -8.496094,27.92773 2.355266,6.89762 7.571056,16.9915 12.029297,24.81446 4.458241,7.82296 8.159689,13.37352 14.636719,22.96289 6.477031,9.58937 15.729681,23.21633 22.375,30.87109 10.344124,11.44223 25.11719,14.39083 38.77734,20.52539 6.26359,2.91027 26.41739,11.46048 54.03321,15.08985 A 206.12421,206.12421 0 0 0 43.609375,189.83008 Z" /><path
         id="path63"
         style="mix-blend-mode:multiply;fill:url(#radialGradient65);stroke:none;stroke-width:5.48215;stroke-linecap:round;stroke-linejoin:round;stroke-opacity:1;paint-order:stroke fill markers"
         d="m 313.26953,150.46484 c -12.4604,26.34675 -27.2979,56.03504 -39.53906,76.90821 -3.19795,5.56914 -3.98747,6.43145 -6.5957,6.59765 -12.61226,0.80372 -67.97504,-21.42413 -119.80665,-41.46875 a 87.970421,87.970421 0 0 0 86.39258,71.38477 87.970421,87.970421 0 0 0 21.05664,-2.5586 c 3.96117,-4.38849 7.83948,-9.33546 11.59375,-14.90429 2.80297,-4.15774 3.45655,-5.46698 5.60547,-4.95313 2.66069,0.63624 6.71278,3.61497 12.91992,5.99805 a 87.970421,87.970421 0 0 0 36.79493,-71.55273 87.970421,87.970421 0 0 0 -1.45313,-15.91993 c -2.13999,-3.25163 -4.46423,-6.43295 -6.96875,-9.53125 z" /><path
         id="path65"
         style="fill:url(#radialGradient67);stroke:none;stroke-width:5.81513;stroke-linecap:round;stroke-linejoin:round;stroke-opacity:1;paint-order:stroke fill markers"
         d="m 228.1582,234.32422 a 96.981018,96.981018 0 0 0 -84.41406,49.23633 c 14.46266,7.941 32.16281,11.58153 54.35742,9.03711 21.77286,-3.02912 47.00837,-14.63651 68.26953,-46.17383 0.94079,-1.3955 1.64006,-2.46924 2.23438,-3.26172 a 96.981018,96.981018 0 0 0 -40.44727,-8.83789 z" /><path
         id="path67"
         style="fill:url(#radialGradient69);stroke:none;stroke-width:4;stroke-linecap:round;stroke-linejoin:round;stroke-opacity:1;paint-order:stroke fill markers"
         d="m 325.35938,205.55273 a 62.224819,62.224819 0 0 0 -57.72071,38.98438 c 1.80326,-2.66505 2.55615,-3.49246 4.33789,-3.06641 5.10417,1.22054 15.32994,11.05894 36.06446,8.78321 14.58156,-1.60038 23.32793,-19.62261 28.21679,-43.73829 a 62.224819,62.224819 0 0 0 -10.89843,-0.96289 z" /><path
         id="path111"
         style="mix-blend-mode:overlay;fill:url(#radialGradient112);stroke:none;stroke-width:4;stroke-linecap:round;stroke-linejoin:round;stroke-opacity:1;paint-order:stroke fill markers"
         d="m 179.50195,93.681641 c -30.3075,0.776576 -56.7565,9.900889 -76.83593,24.376949 a 155.84233,155.84233 0 0 0 151.83984,120.75 155.84233,155.84233 0 0 0 83.6543,-24.35547 C 336.27143,166.46026 300.12247,120.88491 237.67969,101.94727 217.25941,95.754196 197.68646,93.215695 179.50195,93.681641 Z" /><path
         id="path69"
         style="mix-blend-mode:multiply;fill:url(#radialGradient71);stroke:none;stroke-width:4;stroke-linecap:round;stroke-linejoin:round;stroke-opacity:1;paint-order:stroke fill markers"
         d="M 248.93555,209.29492 A 187.09735,187.09735 0 0 0 80.349609,315.24609 c 0.806782,0.99919 1.589551,1.93682 2.337891,2.79883 10.344124,11.44223 25.11719,14.39083 38.77734,20.52539 14.06342,6.53432 98.14822,41.50003 179.50586,-14.63672 15.35449,-10.59457 18.84661,-15.39494 25.90625,-27.92578 6.60803,-11.77812 12.73804,-23.89544 20.39844,-35.03515 2.39736,-3.15443 4.08041,-4.24799 5.7207,-6.14063 1.6403,-1.89264 3.23903,-4.58479 3.9961,-7.78125 0.22476,-0.94899 0.37508,-1.94148 0.43945,-3.08398 A 187.09735,187.09735 0 0 0 248.93555,209.29492 Z" /><path
         id="path73"
         style="mix-blend-mode:overlay;fill:url(#radialGradient79);stroke:none;stroke-width:4.56757;stroke-linecap:round;stroke-linejoin:round;stroke-opacity:1;paint-order:stroke fill markers"
         d="m 67.886719,45.957031 c -0.957739,0.0042 -1.904398,0.0853 -2.833985,0.253907 a 189.47737,189.47737 0 0 0 -0.02539,3.121093 189.47737,189.47737 0 0 0 1.888672,26.679688 c 0.339804,0.337496 0.693654,0.678408 1.068359,1.013672 1.130121,1.011163 2.43928,1.964333 2.974609,2.916015 0.535329,0.951682 0.297378,1.903264 -0.654296,3.152344 -0.470181,0.617116 -1.113802,1.306034 -1.853516,2.089844 A 189.47737,189.47737 0 0 0 254.50586,238.80859 189.47737,189.47737 0 0 0 352.33398,211.60156 c -0.80573,-3.95018 -1.63186,-7.97129 -2.4082,-11.82422 -13.90156,-68.9929 -60.80827,-91.67616 -80.36523,-98.24609 -7.61347,-2.557661 -13.32252,-3.509096 -17.36719,-4.996094 C 248.1487,95.048159 245.76863,93.02703 239.4043,88.328125 217.78427,72.44633 209.13779,61.124678 181.71094,60.90625 161.55216,59.098123 119.73427,48.428988 103.73242,60.609375 99.278367,63.09841 82.252806,45.894302 67.886719,45.957031 Z" /><path
         id="path79"
         style="mix-blend-mode:multiply;fill:url(#radialGradient81);stroke:none;stroke-width:6.91729;stroke-linecap:round;stroke-linejoin:round;stroke-opacity:1;paint-order:stroke fill markers"
         d="m 235.45703,251.3125 a 197.42145,182.34065 0 0 0 -134.52344,48.88477 c 52.47287,46.9413 143.13173,48.34075 192.18164,6.95507 13.33216,-11.24895 23.57714,-23.57683 30.91016,-36.45898 A 197.42145,182.34065 0 0 0 235.45703,251.3125 Z" /><path
         id="path84"
         style="mix-blend-mode:overlay;fill:url(#radialGradient85);stroke:none;stroke-width:4;stroke-linecap:round;stroke-linejoin:round;stroke-opacity:1;paint-order:stroke fill markers"
         d="m 73.458984,164.54492 c 17.048588,48.62789 33.315556,102.77492 75.876956,121.79297 a 80.724091,80.724091 0 0 0 15.47656,-47.5293 80.724091,80.724091 0 0 0 -13.56641,-44.78906 C 129.99484,185.7862 109.13897,177.81087 91.841797,171.81836 80.723352,167.24019 73.458984,164.54492 73.458984,164.54492 Z" /><path
         id="path85"
         style="mix-blend-mode:overlay;fill:url(#radialGradient87);stroke:none;stroke-width:4;stroke-linecap:round;stroke-linejoin:round;stroke-opacity:1;paint-order:stroke fill markers"
         d="m 43.654297,42.304688 a 130.8096,130.8096 0 0 0 -0.05078,3.677734 130.8096,130.8096 0 0 0 3.279296,29.105469 c 0.474537,0.579742 0.928108,1.040916 1.404297,1.421875 1.784391,1.427533 3.87184,1.715758 6.283203,0.789062 2.411365,-0.926696 5.147227,-3.068541 6.931641,-3.841797 1.784414,-0.773256 2.617564,-0.178423 3.509766,0.654297 0.892202,0.83272 1.842535,1.9029 2.972656,2.914063 1.130121,1.011163 2.43928,1.964333 2.974609,2.916015 0.535329,0.951682 0.297378,1.903264 -0.654296,3.152344 -0.951676,1.24908 -2.616873,2.794086 -4.341797,4.816406 -1.724924,2.022321 -3.508543,4.520479 -4.638672,7.078125 -1.130125,2.557645 -1.607578,5.176209 -1.072266,8.031249 0.535313,2.85505 2.082421,5.94785 3.628906,8.26758 1.546485,2.31974 3.093417,3.8651 4.164063,5.70898 1.070646,1.84388 1.6646,3.98569 2.021484,6.78125 0.05567,0.43604 0.103183,0.86116 0.140625,1.27539 a 130.8096,130.8096 0 0 0 104.205078,51.73829 130.8096,130.8096 0 0 0 114.07812,-66.79688 c -7.39522,-4.15268 -14.02375,-6.8148 -18.92968,-8.46289 -7.61347,-2.557661 -13.32252,-3.509096 -17.36719,-4.996094 C 248.1487,95.048159 245.76863,93.02703 239.4043,88.328125 217.78427,72.44633 209.13779,61.124678 181.71094,60.90625 161.55216,59.098123 119.73427,48.428988 103.73242,60.609375 98.318612,63.634745 74.332074,37.566902 59.123047,48.773438 56.862782,50.43888 56.623732,52.342685 55.791016,52.9375 54.9583,53.532315 53.531925,52.817437 52.044922,51.568359 50.557919,50.319282 49.011828,48.53561 46.513672,45.621094 45.652171,44.616009 44.676278,43.476101 43.654297,42.304688 Z" /><path
         id="path89"
         style="fill:url(#radialGradient91);stroke:none;stroke-width:4.31427;stroke-linecap:round;stroke-linejoin:round;stroke-opacity:1;paint-order:stroke fill markers"
         d="m 324.57812,269.71289 a 119.71626,119.71626 0 0 0 -102.47656,66.10352 c 26.81967,-3.04108 52.0321,-12.64843 71.01367,-28.66407 13.6696,-11.53367 24.09535,-24.20287 31.46289,-37.43945 z" /><path
         id="path92"
         style="mix-blend-mode:multiply;fill:url(#radialGradient93);stroke:none;stroke-width:4;stroke-linecap:round;stroke-linejoin:round;stroke-opacity:1;paint-order:stroke fill markers"
         d="m 315.0957,269.71289 a 92.993195,92.993195 0 0 0 -92.58593,84.28516 c 24.72956,-3.01853 51.74295,-11.62906 78.46093,-30.06446 15.35449,-10.59457 18.84661,-15.39494 25.90625,-27.92578 4.28581,-7.639 8.37119,-15.42136 12.80274,-22.98633 a 92.993195,92.993195 0 0 0 -24.58399,-3.30859 z" /><path
         style="mix-blend-mode:multiply;fill:url(#linearGradient95);fill-opacity:1;stroke-width:4;stroke-linecap:round;stroke-linejoin:round;paint-order:stroke fill markers"
         d="m 103.73234,60.609666 c 16.00185,-12.180387 57.81896,-1.51073 77.97774,0.297397 27.42685,0.218428 36.07512,11.5383 57.69515,27.420095 6.36433,4.698905 8.74347,6.721171 12.78813,8.208168 4.04467,1.486998 9.7546,2.438653 17.36807,4.996314 19.55696,6.56993 66.46289,29.25297 80.36445,98.24587 2.27118,11.27177 4.96286,23.97316 6.35079,32.17458 1.38793,8.20142 1.47204,11.90249 0.71498,15.09896 -0.75707,3.19646 -2.35525,5.88814 -3.99555,7.78078 -1.64029,1.89264 -3.3226,2.98614 -5.71996,6.14057 -7.6604,11.13971 -13.79028,23.25652 -20.39831,35.03464 -7.05964,12.53084 -10.55358,17.33223 -25.90807,27.9268 -81.35764,56.13675 -165.44177,21.17054 -179.50519,14.63622 -13.66015,-6.13456 -28.433731,-9.08238 -38.777855,-20.52461 -6.645319,-7.65476 -15.897982,-21.28141 -22.375013,-30.87078 -6.47703,-9.58937 -10.178097,-15.14097 -14.636338,-22.96393 -4.458241,-7.82296 -9.673376,-17.91677 -12.028642,-24.81439 -4.687303,-11.23432 3.355829,-18.79533 8.495801,-27.92678 2.439399,-4.54235 3.617011,-9.08457 3.280527,-13.71104 -3.05984,-11.04945 -3.409979,-22.92209 -8.748166,-33.22613 -2.355307,-4.37413 -5.888136,-9.2528 -7.65459,-14.04751 -1.766453,-4.7947 -1.766453,-9.50515 -1.847795,-17.56092 -1.282246,-20.68783 -2.601432,-49.571718 20.530114,-24.5522 2.736075,2.97399 4.282512,4.75834 5.234189,7.37548 0.951677,2.61713 1.308548,6.06688 1.189583,8.684 -0.118965,2.61711 -0.713748,4.40146 -0.118935,6.72119 0.594814,2.31974 2.379163,5.1747 4.460971,6.66169 4.190384,2.9931 13.536921,1.1471 11.598484,-14.0372 -0.356884,-2.79556 -0.951666,-4.93678 -2.022312,-6.78066 -1.070646,-1.84388 -2.617086,-3.39032 -4.163571,-5.71006 -1.546485,-2.31973 -3.09292,-5.4126 -3.628233,-8.26765 -0.535312,-2.85504 -0.05948,-5.472092 1.070645,-8.029737 1.130129,-2.557646 2.91448,-5.055737 4.639404,-7.078058 1.724924,-2.02232 3.390318,-3.568758 4.341993,-4.817838 0.951675,-1.24908 1.189589,-2.200734 0.65426,-3.152416 -0.535329,-0.951682 -1.843853,-1.903336 -2.973974,-2.914499 -1.130121,-1.011163 -2.081775,-2.081774 -2.973977,-2.914494 -0.892202,-0.83272 -1.724899,-1.427504 -3.509313,-0.654248 -1.784414,0.773256 -4.520418,2.914477 -6.931783,3.841173 -2.411364,0.926696 -4.49797,0.638833 -6.282361,-0.7887 C 46.503296,75.08221 45.02118,72.515108 41.662954,66.889438 38.304728,61.263767 33.070632,52.579926 29.56132,46.691419 26.052009,40.802912 24.267658,37.710037 24.743522,35.50928 25.219386,33.308524 27.95539,32 30.394073,32.000013 c 2.438684,1.3e-5 4.579905,1.308537 7.375479,3.985157 2.795573,2.676621 6.245318,6.72115 8.743475,9.635666 2.498156,2.914516 4.044594,4.698867 5.531597,5.947944 1.487003,1.249078 2.914484,1.962819 3.7472,1.368004 0.832716,-0.594815 1.07063,-2.498122 3.330895,-4.163564 15.209027,-11.206536 39.195811,14.861816 44.609621,11.836446 z"
         id="path93" /><path
         id="path95"
         style="mix-blend-mode:multiply;fill:url(#radialGradient101);stroke:none;stroke-width:4;stroke-linecap:round;stroke-linejoin:round;stroke-opacity:1;paint-order:stroke fill markers"
         d="M 178.49609,93.710938 C 123.83446,95.4495 81.886824,124.3907 67.509766,162.79492 c -4.342072,11.59862 -6.484013,24.32843 -6.900391,37.41406 -0.249645,7.84564 0.06533,15.34566 0.892578,22.50391 A 169.00308,169.00308 0 0 0 178.49609,93.710938 Z" /></g></g></svg>
