<svg xmlns="http://www.w3.org/2000/svg" xmlns:xlink="http://www.w3.org/1999/xlink" xml:space="preserve" width="3000" height="3600"><defs><linearGradient id="y"><stop offset="0" style="stop-color:#e18f96;stop-opacity:1"/><stop offset="1" style="stop-color:#d97079;stop-opacity:0"/></linearGradient><linearGradient id="x"><stop offset="0" style="stop-color:#d97079;stop-opacity:1"/><stop offset="1" style="stop-color:#b14b55;stop-opacity:1"/></linearGradient><linearGradient id="w"><stop offset="0" style="stop-color:#84947c;stop-opacity:1"/><stop offset="1" style="stop-color:#84947c;stop-opacity:0"/></linearGradient><linearGradient id="v"><stop offset="0" style="stop-color:#84947c;stop-opacity:1"/><stop offset="1" style="stop-color:#536a62;stop-opacity:0"/></linearGradient><linearGradient id="u"><stop offset="0" style="stop-color:#7b6c5b;stop-opacity:.51461959"/><stop offset="1" style="stop-color:#8c7b68;stop-opacity:0"/></linearGradient><linearGradient id="t"><stop offset="0" style="stop-color:#ac9c87;stop-opacity:1"/><stop offset="1" style="stop-color:#ac9c87;stop-opacity:0"/></linearGradient><linearGradient id="s"><stop offset="0" style="stop-color:#5e5e5b;stop-opacity:1"/><stop offset="1" style="stop-color:#5e5e5b;stop-opacity:0"/></linearGradient><linearGradient id="r"><stop offset="0" style="stop-color:#fff;stop-opacity:1"/><stop offset=".5" style="stop-color:#f7f9fa;stop-opacity:1"/><stop offset="1" style="stop-color:#e6eeef;stop-opacity:1"/></linearGradient><linearGradient id="q"><stop offset="0" style="stop-color:#465852;stop-opacity:1"/><stop offset="1" style="stop-color:#556860;stop-opacity:0"/></linearGradient><linearGradient id="p"><stop offset="0" style="stop-color:#465852;stop-opacity:1"/><stop offset="1" style="stop-color:#556960;stop-opacity:0"/></linearGradient><linearGradient id="o"><stop offset="0" style="stop-color:#85967e;stop-opacity:1"/><stop offset="1" style="stop-color:#607367;stop-opacity:0"/></linearGradient><linearGradient id="n"><stop offset="0" style="stop-color:#4f635c;stop-opacity:1"/><stop offset="1" style="stop-color:#85967e;stop-opacity:1"/></linearGradient><linearGradient id="m"><stop offset="0" style="stop-color:#85967e;stop-opacity:1"/><stop offset="1" style="stop-color:#607367;stop-opacity:0"/></linearGradient><linearGradient id="l"><stop offset="0" style="stop-color:#4f635c;stop-opacity:1"/><stop offset="1" style="stop-color:#85967e;stop-opacity:1"/></linearGradient><linearGradient id="k"><stop offset="0" style="stop-color:#d9989a;stop-opacity:.29914317"/><stop offset="1" style="stop-color:#d9989a;stop-opacity:0"/></linearGradient><linearGradient id="j"><stop offset="0" style="stop-color:#b14b55;stop-opacity:1"/><stop offset="1" style="stop-color:#ca7073;stop-opacity:1"/></linearGradient><linearGradient id="i"><stop offset="0" style="stop-color:#348a80;stop-opacity:1"/><stop offset="1" style="stop-color:#45b7aa;stop-opacity:1"/></linearGradient><linearGradient id="h"><stop offset="0" style="stop-color:#ac9c87;stop-opacity:1"/><stop offset="1" style="stop-color:#ac9c87;stop-opacity:0"/></linearGradient><linearGradient id="g"><stop offset="0" style="stop-color:#ac9c87;stop-opacity:1"/><stop offset="1" style="stop-color:#ac9c87;stop-opacity:0"/></linearGradient><linearGradient id="e"><stop offset="0" style="stop-color:#d6dfdc;stop-opacity:.17632473"/><stop offset="1" style="stop-color:#3d4d48;stop-opacity:0"/></linearGradient><linearGradient id="d"><stop offset="0" style="stop-color:#aebaaa;stop-opacity:1"/><stop offset="1" style="stop-color:#536a62;stop-opacity:0"/></linearGradient><linearGradient id="c"><stop offset="0" style="stop-color:#85967e;stop-opacity:.49203125"/><stop offset="1" style="stop-color:#85967e;stop-opacity:0"/></linearGradient><linearGradient id="b"><stop offset="0" style="stop-color:#465547;stop-opacity:.5822826"/><stop offset="1" style="stop-color:#516353;stop-opacity:0"/></linearGradient><linearGradient id="a"><stop offset="0" style="stop-color:#aebaaa;stop-opacity:1"/><stop offset="1" style="stop-color:#85967e;stop-opacity:0"/></linearGradient><linearGradient xlink:href="#a" id="L" x1="171.898" x2="169.707" y1="25.954" y2="52.268" gradientUnits="userSpaceOnUse"/><linearGradient xlink:href="#b" id="N" x1="181.568" x2="178.529" y1="124.842" y2="110.957" gradientUnits="userSpaceOnUse"/><linearGradient xlink:href="#c" id="M" x1="150.077" x2="161.609" y1="503.823" y2="520.13" gradientUnits="userSpaceOnUse"/><linearGradient id="z"><stop offset="0" style="stop-color:#acb8a8;stop-opacity:.3621875"/><stop offset="1" style="stop-color:#acb8a8;stop-opacity:0"/></linearGradient><linearGradient xlink:href="#d" id="O" x1="304.562" x2="262.639" y1="476.663" y2="462.545" gradientUnits="userSpaceOnUse"/><linearGradient xlink:href="#e" id="P" x1="172.83" x2="172.419" y1="311.055" y2="279.172" gradientUnits="userSpaceOnUse"/><linearGradient xlink:href="#g" id="R" x1="299.313" x2="296.75" y1="253.437" y2="260.329" gradientUnits="userSpaceOnUse"/><linearGradient xlink:href="#h" id="S" x1="338.627" x2="321.164" y1="327.298" y2="298.226" gradientUnits="userSpaceOnUse"/><linearGradient xlink:href="#i" id="H" x1="327.011" x2="344.996" y1="283.08" y2="302.703" gradientUnits="userSpaceOnUse"/><linearGradient xlink:href="#j" id="T" x1="304.824" x2="294.08" y1="299.765" y2="276.887" gradientUnits="userSpaceOnUse"/><linearGradient xlink:href="#k" id="U" x1="292.711" x2="292.929" y1="276.783" y2="282.949" gradientUnits="userSpaceOnUse"/><linearGradient xlink:href="#l" id="E" x1="120.648" x2="127.275" y1="306.5" y2="350.027" gradientUnits="userSpaceOnUse"/><linearGradient xlink:href="#m" id="F" x1="125.597" x2="126.744" y1="328.49" y2="320.776" gradientUnits="userSpaceOnUse"/><linearGradient xlink:href="#n" id="C" x1="211.435" x2="243.374" y1="303.492" y2="336.824" gradientUnits="userSpaceOnUse"/><linearGradient xlink:href="#o" id="V" x1="236.175" x2="225.833" y1="327.989" y2="316.027" gradientUnits="userSpaceOnUse"/><linearGradient xlink:href="#p" id="G" x1="124.72" x2="123.556" y1="303.704" y2="307.768" gradientUnits="userSpaceOnUse"/><linearGradient xlink:href="#q" id="D" x1="212.495" x2="213.823" y1="303.127" y2="306.256" gradientUnits="userSpaceOnUse"/><linearGradient xlink:href="#r" id="X" x1="144.399" x2="144.091" y1="234.647" y2="244.935" gradientTransform="translate(.34)" gradientUnits="userSpaceOnUse"/><linearGradient xlink:href="#s" id="W" x1="145.536" x2="146.929" y1="259.378" y2="242.217" gradientTransform="translate(-16.897 -28.25)scale(1.11331)" gradientUnits="userSpaceOnUse"/><linearGradient xlink:href="#t" id="B" x1="47.83" x2="54.672" y1="244.355" y2="278.587" gradientTransform="translate(1.548)" gradientUnits="userSpaceOnUse"/><linearGradient xlink:href="#u" id="A" x1="76.973" x2="70.815" y1="677.579" y2="658.238" gradientTransform="translate(1.548 -375)" gradientUnits="userSpaceOnUse"/><linearGradient xlink:href="#v" id="J" x1="301.263" x2="247.213" y1="484.639" y2="468.261" gradientUnits="userSpaceOnUse"/><linearGradient xlink:href="#w" id="I" x1="171.625" x2="170.537" y1="25.877" y2="53.664" gradientUnits="userSpaceOnUse"/><linearGradient xlink:href="#x" id="Y" x1="45.948" x2="36.404" y1="261.589" y2="283.404" gradientUnits="userSpaceOnUse"/><linearGradient xlink:href="#y" id="Z" x1="42.742" x2="42.736" y1="259.723" y2="268.209" gradientUnits="userSpaceOnUse"/><linearGradient xlink:href="#g" id="Q" x1="299.313" x2="296.75" y1="253.437" y2="260.329" gradientUnits="userSpaceOnUse"/><radialGradient xlink:href="#z" id="K" cx="168.785" cy="139.655" r="26.588" fx="168.785" fy="139.655" gradientTransform="matrix(1.09135 .05688 -.06864 1.31706 -5.106 -54.647)" gradientUnits="userSpaceOnUse"/></defs><rect width="3000" height="3600" ry=".019" style="fill:#5ac0b6;fill-opacity:1;stroke-width:1.7;stroke-linecap:round;stroke-linejoin:round"/><path d="M1454.56 696.58c-2.038.004-4.72 1.605-7.812 4.39-.202.187-.414.401-.62.598-18.992 17.834-54.282 83.666-76.597 172.748l.825.338c-24.423 98.725-33.038 225.714 13.511 346.875l-.51-.334c6.377 16.348 13.895 32.819 22.583 49.203 9.913 18.95 21.757 37.547 34.9 55.829-1.093-1.523-2.393-2.982-3.465-4.51l-.177.014c1.31 1.868 2.936 3.659 4.28 5.52 1.378 1.904 2.696 3.812 4.11 5.708 3.25 4.367 6.893 8.593 10.328 12.9.097.122.186.245.283.366-.079-.1-.15-.201-.23-.3 3.624 4.542 7.18 9.105 11.012 13.571-.98-1.142-2.126-2.214-3.092-3.36 1.53 1.806 3.162 3.58 4.729 5.378 4.97 5.733 10.386 11.262 15.705 16.846 4.768 5.006 9.272 10.126 14.322 14.996-.017-.016-.03-.034-.047-.051l.05.05c-48.226 7.958-200.715 62.102-267.02 143.046v.01a311 311 0 0 0-18.333 24.742c-.873 1.308-1.535 2.492-2.369 3.777-.286.441-.753.987-1.035 1.426l.014.205c-3.636 5.665-7.191 11.282-10.508 16.762-.261.02-.528.042-.789.07-219.46 19.676-328.692 162.42-406.816 362.52-12.78 36.05-13.16 52.453-13.541 68.857-7.63 5.34-15.26 10.68-25.942 23.078-10.681 12.398-24.413 31.854-38.146 62.562-20.001 44.725-28.35 87.665-27.186 128.55-.033-.01-.059 0-.092-.01-15.925-2.861-30.481-4.073-44.197-4.706a313 313 0 0 0-10.617-.336c-3.203-.046-6.867-.355-9.877-.312-8.38.118-15.964.556-22.623 1.171h-.086c-26.703 2.48-38.148 7.822-60.273 35.288-22.126 27.466-54.933 77.055-78.012 113.486s-36.43 59.702-39.863 75.533c-.02.087-.017.161-.036.248a39 39 0 0 0-.681 4.656 32 32 0 0 0-.13 1.924c-.005.253-.015.51-.015.758.005 2.074.24 4.037.719 5.928.06.236.136.47.203.705q.308 1.073.72 2.125c.1.25.196.504.304.754.37.855.78 1.705 1.257 2.549.025.043.042.086.067.129.076.133.179.267.258.4.71 1.199 1.552 2.398 2.482 3.603.274.356.556.719.85 1.077.22.268.403.532.634.802a321.582 286.105 0 0 0 .147.07c3.485 4.061 8.096 8.302 14.107 13.293l.09.08c6.91 5.733 20.958 14.784 30.797 22.05 15.693 11.59 29.076 22.274 49.125 35.171 32.616 20.981 68.474 41.58 94.414 49.209 12.97 3.815 23.46 4.386 32.996 3.004 9.537-1.38 18.122-4.715 27.278-8.72 18.31-8.012 38.91-18.693 59.51-29.374 23.65 7.63 47.302 15.255 70.19 22.885 22.89 7.63 45.02 15.26 66 11.064 2.393-.478 4.766-1.155 7.13-1.923.661-.215 1.319-.466 1.978-.702 1.369-.49 2.73-1.054 4.09-1.629 1.738-.734 3.458-1.66 5.184-2.521 3.4-1.696 6.783-3.566 10.144-5.67 1.178-.737 2.359-1.452 3.533-2.23.985-.654 1.98-1.202 2.963-1.881 8.603-5.94 17.115-12.81 25.627-19.686 37.509 22.398 77.09 42.28 117.066 59.436-.073.311-.089.679-.158.994a93 93 0 0 0-1.717 10.766c-.163 1.64-.169 3.397-.269 5.09-.142 2.404-.357 4.757-.383 7.24.012.01.023.01.035.014-.284 27.132 5.924 57.993 9.674 73.507 2.55 9.11 6.323 18.278 10.58 27.223l-.123.12c.376.789.843 1.513 1.229 2.298 1.024 2.084 2.127 3.975 3.212 6.02 4.964 9.36 10.33 18.396 15.942 26.316 6.09 8.596 12.26 16.052 17.842 21.732 7.465 7.597 13.88 12.02 19.94 14.024.374.124.742.205 1.114.31 7.362 2.094 14.259.67 21.951-2.963 1.292-.61 3.649-1.834 6.541-3.472.877-.495 1.759-1.087 2.756-1.684 2.458-1.467 5.085-3.19 8.133-5.31 1.504-1.044 2.898-2.102 4.508-3.313 3.063-2.301 6.184-4.956 9.498-7.89 2.003-1.773 3.9-3.361 5.943-5.375.835-.823 1.635-1.652 2.471-2.516 3.733-3.853 7.467-7.968 11.094-12.672l-.025-.057c12.75-16.53 24.126-38.387 28.93-66.75 1.308-7.73 2.133-15.947 2.363-24.652a828 828 0 0 0 26.31 5.4 766 766 0 0 0 9.946 1.803c33.7 5.866 66.632 9.054 99.088 10.236 32.453 1.183 64.431.362 96.226-1.79 35.081-2.672 69.965-6.711 104.488-12.302 34.521-5.59 68.68-12.73 102.317-21.605a397 397 0 0 0 2.004 3.96c3.116 6.108 6.183 12.102 9.494 18.102 4.237 7.68 8.867 15.366 14.49 23.291 27.263 38.428 64.415 69.863 101.22 89.838 15.674 8.506 31.285 14.932 46.042 18.936 4.918 1.334 9.741 2.398 14.441 3.181 18.804 3.135 35.622 1.755 48.582-4.957.417-.216.814-.473 1.203-.75q.09-.063.176-.127a12.4 12.4 0 0 0 2.104-2.013q.62-.742 1.181-1.608c.136-.21.26-.445.39-.666.25-.423.493-.86.723-1.322q.212-.42.415-.861c.12-.265.227-.554.341-.83a34 34 0 0 0 1.116-3.12c.067-.218.139-.423.203-.646.14-.49.243-1.044.37-1.557a57 57 0 0 0 .938-4.576c.084-.514.162-1.03.237-1.558.606-4.31.864-9.14.875-14.305.015-6.981-.618-14.522-1.541-22.371-1.238-10.583-3.03-21.422-5.608-31.877l-.342-.139c-3.52-14.221-7.8-27.508-12.867-37.152-11.372-21.648-29.069-41.906-56.564-64.594a475 475 0 0 0-9.598-7.705 587 587 0 0 0-10.38-7.937c34.642-15.972 68.357-34.356 100.935-55.397 31.471 15.64 62.935 31.278 81.437 38.621 6.45 2.56 11.321 4.112 14.953 4.344a627 627 0 0 0 9.58 17.486v-.01c24.297 42.752 53.13 82.373 69.782 96.79 63.849 51.2 152.416 18.733 227.17-1.202a282.672 174.7 0 0 0 0 .01c12.05-3.213 23.733-6.106 34.904-8.265 24.796-5.658 37.387-6.245 55.889-2.733 36.82 7.553 70.935 22.286 104.142 39.51 12.017 4.779 23.653 6.337 45.397-.588 32.885-10.474 167.17-73.452 115.685-96.178a42 42 0 0 0-3.535-1.365c-.136-.046-.285-.08-.422-.125-8.458-2.77-18.796-3.625-29.139-4.465 2.48-3.705 4.958-7.409 6.674-10.53.258-.468.498-.925.692-1.368.205-.47.357-.928.422-1.373.279-1.934-1.102-3.649-7.041-5.28-2.999-.823-7.16-1.625-11.932-2.56a93.83 106.198 0 0 0 .23-7.535 93.83 106.198 0 0 0-93.826-106.192 93.83 106.198 0 0 0-27.172 4.555c-26.334-36.14-56.555-78.107-81.324-109.912-5.32-6.831-10.387-13.193-15.246-19.112-21.672-26.398-39.17-43.956-56.209-54.87a105 105 0 0 0-8.492-4.91h-.01a92 92 0 0 0-8.525-3.87c-.073-.029-.15-.044-.223-.072a88 88 0 0 0-8.797-2.879c-1.022-.278-2.061-.468-3.09-.709-2.05-.48-4.104-.933-6.18-1.27-1.172-.19-2.358-.32-3.539-.466a100 100 0 0 0-5.95-.575 106 106 0 0 0-3.684-.164c-.87-.024-1.726-.113-2.602-.117-8.583-.036-17.491 1.07-26.635 2.75-1.798.33-3.626.677-5.449 1.063-1.617.343-3.18.557-4.816.941a111.867 96.131 0 0 0 .1.244c-5.623 1.313-11.199 2.552-17.07 4.29-11.375 3.364-40.273 13.127-74.374 25.542 11.74-10.711 23.303-22.036 34.116-33.943l-.062-.031c-35.563-18.95-46.428-21.165-100.082-20.805 30.416-75.076 29.296-151.233-7.553-224.965-1.222-2.512-2.706-4.818-3.97-7.296.15.01.202.028.353.033-2.694-5.288-5.821-10.235-8.703-15.375-2.995-5.341-5.857-10.785-9.043-15.975-3.805-6.196-7.936-12.132-11.997-18.125-3.148-4.646-6.177-9.384-9.468-13.914-9.88-13.598-21.175-26.03-32.186-38.701-6.391-7.355-12.153-15.22-18.861-22.307-36.292-38.342-76.767-73.087-117.871-106.658-.18-3.67-.663-7.262-1.078-10.871-.218-1.898-.281-3.826-.565-5.717-5.928-39.563-26.096-77.93-60.642-141.441 61.294 18.148 122.587 36.295 172.845 48.236v.01q5.326 1.265 10.485 2.43 3.164.718 6.26 1.398c55.805 12.245 228.63 22.976 331.898 6.176 10.325-1.68 19.955-3.635 28.703-5.89 8.748-2.257 16.615-4.813 23.412-7.698 3.398-1.442 6.527-2.965 9.367-4.574s5.39-3.304 7.627-5.086q0-.001 0 0c13.424-10.698 15.549-24.575 1.34-42.336-1.318-1.647-6.454-6.607-13.28-12.787-1.94-1.767-3.192-2.836-5.587-4.912-3.94-3.425-9.396-7.382-14.568-11.534-10.906-8.785-24.16-18.151-40.45-29.097-10.038-6.767-19.007-12.81-31.023-19.92-4.826-2.859-9.259-5.461-14.397-8.332-20.854-11.662-43.676-23.189-69.492-34.035-3.508-1.475-7.385-2.668-10.982-4.11-23.331-9.357-48.69-17.632-75.627-24.972-9.034-2.464-17.635-5.066-27.059-7.217-3.315-.757-6.213-1.84-9.576-2.555-.216.152-.42.292-.637.443-101.122-21.477-223.197-23.928-362.65 18.92-34.634-41.276-66.053-75.134-101.85-96.052l-.078-.116c-.143-.083-.294-.143-.437-.226-.684-.397-1.407-.693-2.094-1.08-2.482-1.399-5.028-2.629-7.557-3.9.152.012.293.02.444.032-.715-.365-1.488-.588-2.207-.943-2.856-1.396-5.74-2.74-8.662-3.97-2.796-1.178-5.606-2.338-8.469-3.358-.53-.19-1.02-.477-1.55-.662-.12-.01-.236-.011-.356-.018-.937-.32-1.85-.693-2.795-.996-.268-.086-.525-.199-.793-.284-5.314-1.675-10.8-2.988-16.381-4.109-1.347-.27-2.709-.519-4.072-.756-5.696-.99-11.485-1.796-17.498-2.187a301 301 0 0 0-7.569-.914 4 4 0 0 1-.07.287c-.01.02-.01.047-.014.068v.01c0 .012-.01.025-.014.037 0 .01-.01.02-.01.03 9.466-39.45 16.957-74.605 22.48-108.296.231-1.396.774-3.403.989-4.76l-.525.307c14.961-94.299 12.85-177.55-17.721-308.971a1374 1374 0 0 0-17.85-67.652c.045-.019.08-.027.125-.045-.218-.748-.506-1.487-.726-2.235-.993-3.376-2.232-6.67-3.262-10.045a852 852 0 0 0-18.774-54.771c-2.598-6.818-5.44-13.407-8.246-20.127-6.414-15.366-13.503-30.253-21.132-44.877-4.008-7.681-7.777-15.47-12.157-22.879-2.074-3.509-4.209-6.939-6.37-10.379-9.074-14.436-18.65-28.468-29.395-41.463-.033-.04-.057-.088-.09-.129-.043-.027-.091-.046-.135-.072a3 3 0 0 0-.576-.26 3.6 3.6 0 0 0-1.203-.199zm9.329 659.555c-2.754-3.255-5.054-6.625-7.69-9.91 2.626 3.285 4.956 6.663 7.69 9.91m114.24-2.002a2684 2684 0 0 1-8.687 37.978c3.13-13.07 6.067-25.666 8.797-37.91l-.11-.07z" style="fill:#45b5aa;fill-opacity:1;stroke:none;stroke-width:11.891;stroke-linecap:round;stroke-linejoin:round;stroke-dasharray:none;stroke-opacity:1"/><path d="M95.55 666.885c-2.836 2.29-5.672 4.581-8.672 5.18-3 .6-6.162-.49-9.435-1.58a1089 1089 0 0 0-10.035-3.273c-2.945 1.527-5.89 3.054-8.507 4.2-2.618 1.145-4.909 1.908-8.617.817-3.71-1.09-8.835-4.035-13.498-7.035s-8.863-6.054-11.426-8.18c-2.563-2.127-3.49-3.327-3-5.59s2.4-5.59 5.7-10.8c3.3-5.207 7.99-12.297 11.152-16.224 3.164-3.927 4.8-4.69 8.617-5.045s9.817-.3 16.416 1.473c6.6 1.772 13.798 5.263 19.007 12.435 5.208 7.171 8.426 18.024 10.144 24.241 1.717 6.218 1.936 7.8 2.154 9.38" style="fill:#938a6a;fill-opacity:1;stroke:none;stroke-width:1.7;stroke-linecap:round;stroke-linejoin:round;stroke-dasharray:none;stroke-opacity:1" transform="translate(209.232 -2129.43)scale(6.99469)"/><path d="M60.573 628.309c1.938 16.661 14.878 30.777 31.313 41.39 1.23-.85 2.447-1.831 3.664-2.814-.218-1.582-.436-3.164-2.154-9.381-.989-3.576-2.473-8.685-4.547-13.746a181 181 0 0 1-28.276-15.45" style="fill:#8b7f5c;fill-opacity:1;stroke:none;stroke-width:1.7;stroke-linecap:round;stroke-linejoin:round;stroke-dasharray:none;stroke-opacity:1" transform="translate(209.232 -2129.43)scale(6.99469)"/><path d="M48.34 285.832c-8.257 0-22.299-4.537-21.433-3.818 2.563 2.127 6.763 5.18 11.426 8.18s9.79 5.944 13.498 7.035c3.709 1.09 6 .328 8.617-.817s5.563-2.672 8.508-4.2c3.381 1.092 6.763 2.182 10.035 3.272 3.272 1.091 6.436 2.182 9.436 1.582s5.834-2.89 8.67-5.181c-.219-1.582-.435-3.164-2.153-9.381-1.255-4.542-29.865 3.328-46.603 3.328" style="fill:url(#A);stroke:none;stroke-width:1.7;stroke-linecap:round;stroke-linejoin:round;stroke-dasharray:none;stroke-opacity:1" transform="translate(198.406 493.578)scale(6.99469)"/><path d="M52.624 244.188a42 42 0 0 0-3.246.167c-3.818.355-5.454 1.119-8.617 5.045s-7.853 11.017-11.153 16.225-5.208 8.535-5.699 10.799c-.324 1.496-.03 2.526.947 3.668a45.975 40.903 0 0 0 23.485 5.74 45.975 40.903 0 0 0 40.246-21.13c-1.124-2.306-2.383-4.507-3.787-6.44-5.209-7.172-12.407-10.661-19.006-12.434a48.6 48.6 0 0 0-13.17-1.64" style="fill:url(#B);fill-opacity:1;stroke:none;stroke-width:1.80232;stroke-linecap:round;stroke-linejoin:round;stroke-dasharray:none;stroke-opacity:1" transform="translate(198.406 493.578)scale(6.99469)"/><path d="M202.682 306.774c1.016 1.99 1.997 3.899 3.429 5.917 8.324 11.733 23.095 18.906 30.064 15.298 2.837-1.47 1.165-12.976-1.442-17.94-2.02-3.844-5.435-7.382-11.197-11.66-3.15-.805-6.3-1.61-10.294-1.234-3.995.375-8.834 1.93-10.73 3.743-1.895 1.813-.845 3.885.17 5.876" style="fill:url(#C);fill-opacity:1;stroke:none;stroke-linecap:round;stroke-linejoin:round;stroke-opacity:1" transform="translate(198.406 493.578)scale(6.99469)"/><path d="M216.092 297.076a21.5 21.5 0 0 0-2.85.078c-3.994.375-8.835 1.931-10.73 3.744s-.846 3.885.17 5.875c.445.874.884 1.73 1.357 2.588 7.773-2.15 15.343-4.962 22.607-8.547a77 77 0 0 0-3.11-2.425c-2.363-.604-4.726-1.207-7.444-1.313" style="fill:url(#D);fill-opacity:1;stroke:none;stroke-linecap:round;stroke-linejoin:round;stroke-opacity:1" transform="translate(198.406 493.578)scale(6.99469)"/><path d="M114.86 314.337c1.299 4.636 4.522 9.485 6.961 11.967s4.094 2.596 6.148 1.626c1.477-.697 11.404-5.872 11.753-19.113-1.056-3.28-2.111-6.56-6.69-8.857s-12.68-3.609-16.303-3.295c-5.175 1.407-2.883 13.475-1.868 17.672" style="fill:url(#E);fill-opacity:1;stroke:none;stroke-width:1.04614;stroke-linecap:round;stroke-linejoin:round;stroke-opacity:1" transform="translate(198.406 493.578)scale(6.99469)"/><path d="M124.705 314.527a11.23 11.23 0 0 0-8.35 3.72c1.558 3.269 3.713 6.275 5.465 8.058 2.44 2.482 4.095 2.595 6.149 1.625.829-.392 4.318-2.193 7.283-6.037a11.23 11.23 0 0 0-10.547-7.366" style="fill:url(#F);fill-opacity:1;stroke:none;stroke-width:1.04614;stroke-linecap:round;stroke-linejoin:round;stroke-opacity:1" transform="translate(198.406 493.578)scale(6.99469)"/><path d="M118.281 296.623c-.577-.01-1.1.002-1.552.041-2.441.664-3.22 3.7-3.256 7.162 8.781 3.796 17.709 6.671 25.912 8.516a25 25 0 0 0 .338-3.526c-1.056-3.28-2.113-6.56-6.692-8.857-4.006-2.01-10.71-3.264-14.75-3.336" style="fill:url(#G);fill-opacity:1;stroke:none;stroke-width:1.04614;stroke-linecap:round;stroke-linejoin:round;stroke-opacity:1" transform="translate(198.406 493.578)scale(6.99469)"/><path d="M327.01 283.08a13.414 15.183 0 0 0-4.01.695c1.84 2.526 3.546 4.85 4.962 6.705 4.32 5.66 5.938 6.961 8.045 7.768 1.429.547 3.083.869 4.383 1.123a13.414 15.183 0 0 0 .035-1.11 13.414 15.183 0 0 0-13.414-15.18" style="fill:url(#H);fill-opacity:1;stroke:none;stroke-width:1.31049;stroke-linecap:round;stroke-linejoin:round;stroke-opacity:1" transform="translate(198.406 493.578)scale(6.99469)"/><path d="M286.279 256.619c4.666-1.38 8.754-1.933 12.572-.434s7.365 5.048 12.649 11.833c5.283 6.784 12.301 16.802 16.62 22.462s5.94 6.961 8.047 7.769 4.701 1.12 5.93 1.457 1.093.7.848 1.146-.6.976-.954 1.506c1.718.14 3.436.279 4.73.85 7.361 3.25-11.836 12.253-16.538 13.75-3.108.99-4.772.767-6.49.084-4.747-2.462-9.624-4.568-14.888-5.648-2.646-.502-4.445-.418-7.99.39-11.505 2.225-26.868 9.853-37.467 1.354-4.316-3.737-14.356-19.315-15.877-27.934-.952-5.393.244-10.718 4.544-14.504 4.3-3.787 29.598-12.7 34.264-14.081" style="fill:#958965;fill-opacity:1;stroke-width:1.01132;stroke-linejoin:round" transform="translate(198.406 493.578)scale(6.99469)"/><path d="M280.33 260.47c-1.722-.035-11.668 4.388-27.226 9.432-.444.285-.81.552-1.088.797-4.3 3.787-5.497 9.11-4.545 14.504.682 3.865 3.077 9.13 5.9 14.098-.024-2.485-.634-6.783-1.244-11.08 3.245.245 6.49.491 8.33.232s2.278-1.021 1.8-2.48c-.476-1.46-1.868-3.614-3.259-5.768 1.63-3.704 13.151-10.476 21.525-19.697a.44.44 0 0 0-.193-.037" style="mix-blend-mode:normal;fill:#8a7d5d;fill-opacity:1;stroke-width:1.01132;stroke-linejoin:round" transform="translate(198.406 493.578)scale(6.99469)"/><path d="M177.928 125.492c-41.428-39.949-10.027-102.072-6.03-99.538 8.991 10.862 13.641 25.705 16.853 39.258 5.998 25.784 4.47 38.558-.752 60.313 10.776.226 17.758 7.149 26.03 17.007 57.373-17.628 94.777 17.817 96.549 20.03 10.833 13.543-44.759 11.296-57.524 8.495-7.58-1.664-17.343-4.554-27.105-7.444 5.623 10.338 8.582 16.016 8.905 22.593 11.877 9.7 23.448 20.037 30.272 34.07 5.269 10.542 5.429 21.43 1.08 32.163 7.675-.052 9.226.265 14.317 2.98-8.374 9.22-19.895 15.991-21.524 19.696 1.39 2.154 2.781 4.308 3.258 5.767s.041 2.222-1.8 2.481c-1.84.26-5.085.014-8.33-.231.654 4.608 1.309 9.216 1.24 11.589-.068 2.372-.858 2.509-3.503 1.459s-7.145-3.286-11.644-5.522c-19.66 12.698-42.225 18.632-65.39 20.397-9.272.627-18.652.463-28.497-1.31-38.414-6.916-98.34-38.94-78.56-83.169 1.963-4.39 3.926-7.172 5.453-8.944s2.618-2.536 3.709-3.3c.054-2.345.109-4.69 1.936-9.844 11.182-28.641 26.823-49.063 58.273-51.837 1.254-2.073 2.509-4.145 4.608-6.709 9.48-11.572 31.282-19.313 38.176-20.45" style="fill:#536a62;fill-opacity:1;stroke-linejoin:round" transform="translate(198.406 493.578)scale(6.99469)"/><path d="M171.625 25.877c-2.068.004-8.402 10.425-12.156 25.41 2.774 1.139 5.502 2.299 8.207 4.068 2.918 1.91 5.809 4.527 8.045 4.772s3.817-1.88 6.326-3.053c1.222-.57 2.663-.915 4.17-1.54-3.097-10.617-7.436-21.266-14.319-29.58a.5.5 0 0 0-.273-.077" style="fill:url(#I);fill-opacity:1;stroke-linejoin:round" transform="translate(198.406 493.578)scale(6.99469)"/><path d="m265.967 452.59-1.014.708c-6.46 4.493-10.239 6.576-13.016 8.658-2.776 2.083-4.55 4.165-4.724 6.305s1.255 4.338 2.084 7.404c.627 2.32.911 5.139 1.363 7.672q1.23.292 2.395.547c12.765 2.8 68.357 5.048 57.523-8.494-1.155-1.445-17.476-17.03-44.611-22.8" style="fill:url(#J);fill-opacity:1;stroke-linejoin:round" transform="translate(198.406 -1694.551)scale(6.99469)"/><path d="m169.168 115.25-.025.002a70 70 0 0 0 8.785 10.24 70.3 70.3 0 0 1-8.76-10.242m8.76 10.242c-6.894 1.137-28.696 8.879-38.176 20.451a45 45 0 0 0-3.107 4.282 35.066 35.066 0 0 0 35.064 35.066 35.066 35.066 0 0 0 35.066-35.066 35.07 35.07 0 0 0-7.318-21.442c-3.428-2-7.14-3.167-11.459-3.258-3.361-.535-6.673-.448-10.07-.033m11.363-5.607c-.407 1.845-.83 3.684-1.242 5.43.447-1.87.867-3.67 1.258-5.42z" style="mix-blend-mode:overlay;fill:url(#K);stroke-width:1.31884;stroke-linejoin:round" transform="translate(198.406 493.578)scale(6.99469)"/><path d="M171.625 25.877c-2.068.004-8.402 10.425-12.156 25.41 2.774 1.139 5.502 2.299 8.207 4.068 2.918 1.91 5.809 4.527 8.045 4.772s3.817-1.88 6.326-3.053c1.222-.57 2.663-.915 4.17-1.54-3.097-10.617-7.436-21.266-14.319-29.58a.5.5 0 0 0-.273-.077" style="fill:url(#L);fill-opacity:1;stroke-linejoin:round" transform="translate(198.406 493.578)scale(6.99469)"/><path d="M182.09 500.213c-1.38.039-2.762.108-4.162.28-6.894 1.136-28.696 8.878-38.176 20.45-2.1 2.564-3.353 4.635-4.607 6.707l-.114.01c7.9 9.538 18.704 15.382 30.6 18.506 4.2 1.01 9.761 1.392 13.851.328 5.246-1.35 18.888-24.545 20.89-29.505 1.472-4.01 1.907-9.19-3.165-12.926-1.945-1.433-4.698-2.652-8.105-3.49a43 43 0 0 0-1.082-.131l-.01.04-.002.01-.002.007-.002.006-.006.021c-.79-.126-1.576-.21-2.362-.271a45 45 0 0 0-3.547-.041z" style="fill:url(#M);stroke-linejoin:round" transform="translate(198.406 -2129.43)scale(6.99469)"/><path d="M161.445 100.879c3.295 8.447 8.72 17.127 16.483 24.613 3.398-.415 6.71-.502 10.07.033 1.262-5.329 2.63-11.571 3.361-16.185l-.341.2c-4.609 2.644-7.498 3.408-12.489 1.417-4.99-1.99-12.08-6.735-15.625-9.107-.573-.384-1.056-.708-1.459-.971" style="mix-blend-mode:normal;fill:url(#N);stroke-linejoin:round" transform="translate(198.406 493.578)scale(6.99469)"/><path d="m265.967 452.59-1.014.708c-6.46 4.493-10.239 6.576-13.016 8.658-2.776 2.083-4.55 4.165-4.724 6.305s1.255 4.338 2.084 7.404c.627 2.32.911 5.139 1.363 7.672q1.23.292 2.395.547c12.765 2.8 68.357 5.048 57.523-8.494-1.155-1.445-17.476-17.03-44.611-22.8" style="fill:url(#O);fill-opacity:.543563;stroke-linejoin:round" transform="translate(198.406 -1694.551)scale(6.99469)"/><path d="M62.121 248.219c3.82 32.845 50.396 55.798 82.213 61.527 9.844 1.773 19.225 1.936 28.496 1.309 23.166-1.765 45.73-7.699 65.39-20.397 4.5 2.236 8.998 4.472 11.643 5.522s3.436.913 3.504-1.46c.068-2.372-.586-6.98-1.24-11.59 3.245.246 6.49.492 8.33.233s2.278-1.021 1.8-2.48c-.476-1.46-1.868-3.614-3.259-5.768 1.63-3.704 13.151-10.475 21.525-19.697-3.327-1.773-119.139 59.04-218.402-7.2" style="fill:#3d4d48;fill-opacity:.276564;stroke-linejoin:round" transform="translate(198.406 493.578)scale(6.99469)"/><path d="M234.62 183.834c-9.25.142-19.306 1.581-30.063 4.887l-.233-.276c1.039 8.497 31.677 27.138 39.258 28.801 3.967.87 12.068 1.686 21.027 1.992-6.882-13.508-18.173-23.573-29.755-33.033a24 24 0 0 0-.235-2.371" style="mix-blend-mode:overlay;fill:#495e56;fill-opacity:.120104;stroke-linejoin:round" transform="translate(198.406 493.578)scale(6.99469)"/><path d="M62.121 248.219c3.82 32.845 50.396 55.798 82.213 61.527 9.844 1.773 19.225 1.936 28.496 1.309 23.166-1.765 45.73-7.699 65.39-20.397 4.5 2.236 8.998 4.472 11.643 5.522s3.436.913 3.504-1.46c.068-2.372-.586-6.98-1.24-11.59 3.245.246 6.49.492 8.33.233s2.278-1.021 1.8-2.48c-.476-1.46-1.868-3.614-3.259-5.768 1.63-3.704 13.151-10.475 21.525-19.697-3.327-1.773-119.139 59.04-218.402-7.2" style="fill:url(#P);fill-opacity:.276564;stroke-linejoin:round" transform="translate(198.406 493.578)scale(6.99469)"/><path d="M293.98 255.291c-1.683-.007-3.435.248-5.275.68a15.993 13.743 0 0 0 15.41 10.062 15.993 13.743 0 0 0 5.205-.748c-4.13-5.031-7.2-7.816-10.468-9.1-1.571-.616-3.188-.887-4.872-.894" style="fill:url(#Q);fill-opacity:1;stroke-width:1.07874;stroke-linejoin:round" transform="translate(198.406 493.578)scale(6.99469)"/><path d="M293.98 255.291c-1.683-.007-3.435.248-5.275.68a15.993 13.743 0 0 0 15.41 10.062 15.993 13.743 0 0 0 5.205-.748c-4.13-5.031-7.2-7.816-10.468-9.1-1.571-.616-3.188-.887-4.872-.894" style="mix-blend-mode:overlay;fill:url(#R);fill-opacity:1;stroke-width:1.07874;stroke-linejoin:round" transform="translate(198.406 493.578)scale(6.99469)"/><path d="M331.908 295.105a40.412 24.976 0 0 0-36.084 17.862c1.723-.46 3.393-.873 4.99-1.182 3.545-.809 5.346-.892 7.99-.39 5.265 1.08 10.142 3.186 14.89 5.648 1.717.683 3.38.906 6.49-.084 4.701-1.497 23.9-10.501 16.539-13.75-1.296-.572-3.015-.712-4.733-.852.355-.53.71-1.06.955-1.505.246-.447.382-.81-.847-1.147s-3.825-.65-5.932-1.457c-1.342-.514-2.487-1.228-4.258-3.143" style="mix-blend-mode:overlay;fill:url(#S);stroke-linejoin:round" transform="translate(198.406 493.578)scale(6.99469)"/><path d="M191.807 126.715c-.767.033-1.481.105-2.125.233-2.577.51-3.929 1.964-4.582 3.347-.654 1.383-.57 2.402-2.791 4.437s-6.817 5.016-9.39 7.927c-2.571 2.91-3.008 5.741-3.083 8.421s.184 5.088-2.078 7.956-7.22 6.244-9.834 8.53c-1.308 1.142-2.076 2.068-2.39 3.215s-.167 2.402.15 4.224c.633 3.645 1.97 9.654-.057 14.647-2.027 4.992-8.458 15.308-11.242 17.702-1.391 1.197-2.117 1.93-2.45 2.742-.335.812 2.11 18.66 2.292 19.644.365 1.97.986 5.467 1.605 8.962l-.588-9.153c-.183-.99-2.561-18.552-2.355-19.053.207-.501.805-1.177 2.166-2.348 2.724-2.342 9.331-12.695 11.527-18.102s.74-11.635.117-15.218c-.311-1.791-.41-2.898-.172-3.767.239-.87.822-1.614 2.073-2.707 2.501-2.186 7.497-5.542 9.964-8.67 2.468-3.127 2.232-5.98 2.305-8.574.073-2.595.426-5.049 2.82-7.757 2.395-2.71 6.945-5.68 9.313-7.85s2.484-3.608 3.03-4.76c.544-1.154 1.556-2.315 3.849-2.77 1.988-.395 5.022-.208 8.197.07a24 24 0 0 0-2.986-1.277q-.428-.024-.846-.041a30 30 0 0 0-2.44-.01z" style="baseline-shift:baseline;display:inline;overflow:visible;opacity:1;vector-effect:none;fill:#3a4e47;fill-opacity:1;stroke-width:1.03719;stroke-linecap:round;stroke-linejoin:round;stop-color:#000;stop-opacity:1" transform="translate(198.406 493.578)scale(6.99469)"/><path d="M279.679 289.878c1.405 2.708 21.098 12.607 25.145 9.887 1.704-1.145 4.076-3.572 5.263-5.371 1.186-1.8 1.186-2.973-.668-5.318-1.397-1.767-10.217-11.217-15.34-12.189-1.867-.354-3.503.164-5.671 1.473-2.168 1.308-4.867 3.408-6.743 5.507-1.875 2.1-2.927 4.197-1.986 6.01" style="fill:url(#T);fill-opacity:1;stroke:none;stroke-linecap:round;stroke-linejoin:round;stroke-opacity:1" transform="translate(198.406 493.578)scale(6.99469)"/><path d="M292.71 276.783c-1.349.058-2.676.595-4.302 1.576-2.168 1.31-4.866 3.41-6.742 5.508l-.066.074a18.037 11.147 0 0 0 9.683 1.743 18.037 11.147 0 0 0 12.035-2.846c-3.059-2.76-6.628-5.456-9.238-5.951a6 6 0 0 0-1.369-.104" style="mix-blend-mode:overlay;fill:url(#U);fill-opacity:.299143;stroke:none;stroke-linecap:round;stroke-linejoin:round;stroke-opacity:1" transform="translate(198.406 493.578)scale(6.99469)"/><path d="M136.517 252.595c-.638.822-10.691 14.535-9.417 17.74.285.719.87 1.279 1.666 2.04 1.59 1.523 4.214 3.918 5.623 5.496.704.79 1.08 1.354 1.234 1.858.153.503.12.993-.107 1.755-.454 1.525-1.685 3.928-2.563 5.928-.439 1-.816 1.938-.834 2.918s.373 1.97 1.317 2.902c.943.933 2.387 1.832 3.81 2.8s2.82 2 3.615 3.048c1.593 2.097 1.113 4.566 1.123 6.45.005.941.163 1.716.565 2.534.231.472.537.958.935 1.526a110 110 0 0 0 1.422.258c-.704-.95-1.17-1.636-1.459-2.225-.342-.697-.458-1.258-.463-2.1-.009-1.683.553-4.575-1.326-7.048-.939-1.237-2.407-2.29-3.85-3.27-1.442-.98-2.867-1.89-3.67-2.684-.801-.793-1.032-1.445-1.019-2.171s.322-1.56.75-2.536c.857-1.952 2.095-4.33 2.606-6.044.255-.858.328-1.601.105-2.332s-.704-1.402-1.445-2.233c-1.484-1.661-4.106-4.046-5.678-5.55-.786-.753-1.26-1.268-1.428-1.688.988-5.182 5.96-12.837 8.488-17.372" style="baseline-shift:baseline;display:inline;overflow:visible;vector-effect:none;fill:#3a4e47;fill-opacity:1;stroke-linecap:round;stroke-linejoin:round;stop-color:#000" transform="translate(198.406 493.578)scale(6.99469)"/><path d="M231.816 314.3a11.234 11.234 0 0 0-11.234 11.235c5.975 3.243 11.887 4.372 15.592 2.453 2.045-1.059 1.748-7.328.447-12.607a11.2 11.2 0 0 0-4.805-1.08" style="fill:url(#V);fill-opacity:1;stroke:none;stroke-linecap:round;stroke-linejoin:round;stroke-opacity:1" transform="translate(198.406 493.578)scale(6.99469)"/><path d="M213.23 205.704c-7.49-.133-15.153 2.62-22.467 8.138-6.328 4.774-12.959 12.635-10.636 12.61 1.515-.02 7.196-8.301 17.556-13.39 6.89-3.386 27.159-8.558 37.9 10.473 1.038 1.84 1.575 2.773 1.958 3.048.382.276 2.062-2.083 2.062-2.083-.475-1.551-4.6-13.632-18.958-17.695a29 29 0 0 0-7.414-1.101" style="fill:#3a4e47;fill-opacity:1;stroke-width:.69743" transform="translate(387.686 689.685)scale(6.08743)"/><path d="M109.835 197.896c5.88 1 11.003 4.65 15.016 10.743 3.454 5.243 6.226 13.302 4.464 12.962-1.15-.223-3.084-8.549-9.563-14.671-4.34-4.102-18.699-11.898-33.015 4.164-1.396 1.566-2.114 2.36-2.507 2.562-.393.203-1.03-2.247-1.03-2.247.856-1.38 7.845-12.024 20.481-13.616 2.128-.268 4.184-.231 6.154.103" style="fill:#3a4e47;fill-opacity:1;stroke-width:.585376" transform="translate(198.406 493.578)scale(6.99469)"/><path d="M182.223 229.187c-.483 1.195-.87 2.248-1.971 4.178-10.283 18.015-42.715 45.411-62.53 2.691-1.424-3.07-2.007-5.403-2.595-7.756 22.298 7.8 44.358 5.185 67.096.887" style="fill:#3f3f3d;fill-opacity:1;stroke:none;stroke-width:.403052;stroke-linecap:round;stroke-linejoin:round;stroke-opacity:1" transform="matrix(7.62517 .5153 -.56328 6.97568 221.695 421.657)"/><path d="M150.398 239.727c-9.922.652-19.229 4.43-24.157 9.868 15.084 17.003 33.735 7.406 45.564-5.037-4.974-3.573-12.893-5.39-21.407-4.83" style="fill:url(#W);stroke:none;stroke-width:.448724;stroke-linecap:round;stroke-linejoin:round;stroke-opacity:1" transform="matrix(7.62517 .5153 -.56328 6.97568 221.695 421.657)"/><path d="M120.75 230.053c.078.317.236.876.427 1.504.294.962.655 2.156.799 2.647.61 2.081 3.717 9.128 4.031 9.132.44.007 8.733-7.597 9.48-7.233.43.21 8.129 10.024 8.852 10.025.661.001 11.857-9.078 12.26-9.48.37-.367.78-.666.913-.662.135.003.958.596 1.831 1.318a292 292 0 0 0 5.76 4.61c.463.36.901.657.973.658.575.009 8.77-8.793 10.81-11.848.115-.172.296-.462.416-.634-19.103 3.381-37.77 5.116-56.551-.037" style="fill:url(#X);stroke-width:.144793" transform="matrix(7.62517 .5153 -.56328 6.97568 221.695 421.657)"/><path d="M45.948 261.59c1.118 1.39 2.045 3.408 2.209 6.871.163 3.463-.437 8.371-1.418 11.126-.982 2.754-2.345 3.354-4.227 3.68-1.882.328-4.281.383-6.108.137-1.827-.245-3.082-.79-3.736-2.918-.654-2.127-.709-5.835.11-8.78.817-2.945 2.508-5.127 4.226-7.172 2.696-3.277 5.166-7.208 8.944-2.945" style="fill:url(#Y);fill-opacity:1;stroke:none;stroke-width:1.7;stroke-linecap:round;stroke-linejoin:round;stroke-dasharray:none;stroke-opacity:1" transform="translate(198.406 493.578)scale(6.99469)"/><path d="M42.742 259.723c-2.138-.004-3.884 2.56-5.738 4.812-1.108 1.32-2.206 2.694-3.065 4.295a8.92 8.92 0 0 0 7.149 3.584 8.92 8.92 0 0 0 7.086-3.504q-.006-.228-.018-.45c-.163-3.462-1.09-5.48-2.209-6.87-1.18-1.332-2.233-1.866-3.205-1.867" style="fill:url(#Z);fill-opacity:1;stroke:none;stroke-width:1.7;stroke-linecap:round;stroke-linejoin:round;stroke-dasharray:none;stroke-opacity:1" transform="translate(198.406 493.578)scale(6.99469)"/><path d="M1022.586 491.431q2.244 3.129 3.34 8.585.412 1.913.817 4.888.335 2.833.456 5.947.122 3.114.03 6.157-.019 2.83-.456 4.808-.656 2.968-3.014 6.42-1.855 2.323-3.277 3.375l-2.414 1.187q-1.42.698-3.69 1.462l-6.81 2.644-10.565 3.256q-7.8 2.426-15.39 5.277-7.519 2.64-14.76 6.201-3.124 1.536-2.845 2.104.14.284 2.046.934 1.84.153 3.45 2.711.628 1.278 1.043 2.838.556 1.49.614 3.4.268 2.337.885 5.384.547 2.905 1.231 6.448l1.508 7.369q.755 3.685 1.506 7.723.894 3.969 1.648 7.653l1.509 7.37q.896 3.615 1.443 6.52.689 2.834 1.24 5.032l-.284.14 1.101 4.748q2.347 9.073 4.98 17.653 2.774 8.51 5.762 16.738 6.192 16.174 12.974 28.532 1.888 3.48 3.638 6.322t3.788 5.19q1.966 2.207 4.571 4.276 2.535 1.928 6.131 3.862 2.542.866 3.88 1.794 1.972 1.5 2.111 1.783.769 1.562-1.447 4.944-3.14 4.013-7.76 7.167-4.48 3.084-9.023 5.319-4.401 2.164-9.222 3.477-4.75 1.455-9.706 1.776-4.744.394-9.478-.628-4.665-.88-9.106-3.457-11.065-6.724-24.794-28.185-1.47-2.274-2.663-3.98-1.12-1.919-1.887-3.48-.91-1.492-1.609-2.912l-1.466-2.982-1.536-3.124q-.838-1.703-1.604-3.62-5.866-11.926-10.449-25.189-4.51-13.475-8.319-26.237-1.662-5.53-3.254-10.919-1.662-5.53-3.184-10.777-1.592-5.388-2.907-9.855-1.243-4.679-2.137-8.647-4.623 3.507-8.391 6.242t-6.543 4.982q-2.844 2.104-5.405 4.068-2.56 1.965-5.05 4.071-2.35 2.037-3.844 3.3-1.422 1.053-2.062 1.544-2.418 1.895-2.78 2.954-1.992 1.685-4.124 3.086-.996.843-1.848 1.262l-1.42.698q-3.833 1.886-7.655 2.002t-7.495-.899q-3.601-1.226-6.913-3.3-3.24-2.286-5.91-5.205-5.268-6.05-7.551-13.92-.338-2.478-.96-4.817-.548-2.551-.886-5.03 2.351-13.147 9.064-22.443 6.643-9.439 16.535-18.007 12.598-10.956 30.935-23.148l12.783-6.992q6.392-3.497 12.923-6.709 6.532-3.212 13.203-6.14l13.342-5.856q4.185-1.53 11.205-3.748t15.313-4.357q8.436-2.209 17.292-3.92t16.643-2.013q7.928-.373 14.003 1.224 6.147 1.385 8.95 5.65zm-143.974 60.05q1.63-.271 1.21-1.123-.276-.922-1.547-1.355-1.413-.363-4.963 1.383-6.463 3.707-13.293 9.182-6.687 5.405-11.82 11.103-5.2 5.202-6.072 8.805-.873 3.603 2.02 4.825 1.41.717 2.905-.547 1.352-1.194 6.35-7.883 1.354-1.548 2.781-3.308 1.357-1.901 2.856-3.873 2.856-3.873 5.205-5.91 3.42-3.445 8.256-7.234 4.623-3.508 6.112-4.064m272.332 17.455q.711 1.597 1.68 4.442 1.119 2.795 2.598 7.14.866 2.546 1.533 4.993.765 2.247 1.278 4.245 1.444 6.696 1.485 13.2-.01 6.355-.566 13.064-.772 4.608-1.743 9.118t-3.248 8.627q-6.27 13-15.427 20.964-3.735 2.776-8.126 4.605-4.242 1.779-8.586 3.258-4.044 1.377-7.54 2.4-3.397.822-6.148 1.09-3.747.775-8.949 1.208-5.05.383-10.405.367-5.405-.165-10.463-.783-5.108-.768-8.77-2.196-10.632-3.735-17.672-9.194t-12.656-15.08q-2.582-4.637-4.71-8.926-1.98-4.34-3.357-8.385-5.049-14.829-2.646-30.356.277-3.604 1.003-7.361.826-3.959 2.205-7.27.494-1.004.937-2.158.542-1.354 1.183-2.91 4.292-9.484 10.847-17.231 6.556-7.748 15.58-12.66 1.298-.608 3.545-1.373 2.345-.966 5.64-2.088 4.695-1.431 8.443-2.206 3.897-.825 7.498-1.048 3.7-.424 7.605-.25 3.853.026 8.71.545l-.103-.3q18.979 2.23 29.315 14.424.956.844 1.762 1.74 1.358 1.042 1.708 1.09 6.218 2.061 9.845 5.841 3.777 3.729 6.715 9.414m-90.223-8.729q5.966-6.043 2.355-7.32-.803-.396-2.001.012-2.097.714-4.484 3.031-2.237 2.266-4.321 4.982-2.085 2.715-3.767 5.628-1.734 2.763-2.623 4.57-5.522 12.745-1.31 14.32 1.158.942 1.649-.562l1.714-5.765q.685-2.406 2.17-4.918 1.434-2.66 3.12-5.073 1.785-2.614 3.722-4.778 2.036-2.364 3.776-4.127m67.166 25.94-2.15.063.299-.102q-3.7.424-6.715-1.558-2.865-2.033-5.084-4.62-.605-.798-.962-1.846l-.765-2.247q-.466-2.349-.485-5.35-.284-5.253-1.355-8.398-1.07-3.146-2.973-3.334-3.05.37-6.62 5.597-3.47 5.026-5.232 11.142-1.876 11.67-.496 24.07 1.33 12.251 5.103 23.335l1.581 4.644q.612 1.797 1.068 2.645.306.898.911 1.695.756.746 1.712 1.59 1.81 1.39 3.267 2.231t2.708 1.084q2.257.736 4.851-.482.848-.456 1.546-.86l1.695-.912q1.893-1.313 2.789-2.12l-.102-.299q5.27-5.138 7.18-11.805 2.007-6.868 2.262-13.975l.102.3-1.126-11.651zm401.468-63.744q-.027 4.757.01 7.925.105 1.738.015 2.853l.086 1.421.316-.019q.947-.058 3.053-1.93 2.095-2.03 4.2-3.901 2.097-2.03 4.202-3.902t3.843-1.977q1.263-.077 2.565.477 1.302.555 2.475 1.594 1.33 1.028 2.04 2.253.866 1.216.943 2.48.211 3.474-1.463 7.222-1.526 3.58-4.167 7.07-2.492 3.322-5.646 6.209-2.995 2.877-5.584 4.62l-2.263 1.881 1.883 7.494q1.068 4.532 2.247 8.265 1.326 3.565 2.95 6.796 1.623 3.23 3.878 6.421t5.319 6.652q4.414 4.804 4.568 7.33.22 3.633-3.425 6.233-3.48 2.748-8.447 4.477-4.957 1.887-10.13 2.836t-8.175 1.132q-7.58.461-14.43-.073-6.69-.544-12.55-3.04-5.69-2.35-10.401-6.818-4.563-4.637-7.876-12.202l-3.607-9.768q-.335-.296-.522-.76-.029-.474-.383-1.087-.393-1.244-1.11-2.627l.315-.02-3.631-12.777-8.97-1.515q-3.048-.607-5.772-1.075-2.89-.617-3.365-.588l-.287.493.02.316-10.162-2.869q-3.049-.607-5.447-.937-2.24-.339-3.996-.549-3.197-.44-5.25-.314-.632.038-1.958 1.704-.732.996-1.573 2.79-.852 1.638-1.971 4.083t-2.636 6.185q-1.525 3.58-3.458 8.295-1.932 4.714-4.252 10.88-2.32 6.164-5.332 13.957-9.91 24.698-14.807 24.996-1.42.087-2.871-.3-.81-.268-1.934-.517-1.115-.09-2.556-.32-5.959-1.54-12.942-4.285-6.974-2.587-13.245-6.644-6.103-3.909-10.397-9.354-4.305-5.603-4.747-12.868-.202-3.317.448-8.27.468-2.724.798-5.122.32-2.556.798-5.121.487-2.408 1.104-5.299.607-3.048 1.501-6.59l-.019-.316 6.074-14.795q.517-1.934.526-1.776-.096-1.58-4.528-1.468-2.23-.181-5.23 0l-6.476.395q-4.738.288-8.203.658t-5.973.839q-3.13.666-5.915 1.787-2.795.962-5.718 2.409-1.7.737-5.332.958-2.843.173-4.38-1.635-1.685-1.642-2.011-7.011-.045-8.558 3.49-15.59 3.692-7.04 9.573-11.996 6.029-5.122 13.614-8.12t15.482-3.479q2.527-.154 6.504.08 3.968.075 7.48.496l17.36 1.32 13.72-24.613q2.277-4.26 5.75-9.702 3.622-5.61 8.262-12.71 8.669-13.843 18.175-26.944 9.497-13.26 19.329-26.223 2.047-2.82 4.717-5.836 2.66-3.173 5.488-6.199 2.986-3.035 6-5.596 3.163-2.73 6.235-4.343 2.312-1.092 4.652-1.71 2.33-.776 4.7-.92 1.737-.106 3.503.262 1.914.2 3.858.875 3.728 1.358 4.992 1.282 1.105-.068 3.282-3.37 2.344-3.155 6.293-3.396 7.107-.432 14.09 2.313 6.974 2.588 12.503 7.482 5.52 4.737 9.092 11.336 3.562 6.44 4.005 13.706.153 2.527.078 6.495.073 3.8-.223 9.366-.295 5.566-.71 11.774-.266 6.04-.652 12.721l-.772 13.363q-.228 6.671-.614 13.353-.476 7.796-.637 15.574 0 7.767.478 15.664 0 2.537-.018 4.915l.269 4.423zm-63.488-22.133q.357-7.155.437-13.66.07-6.662-.305-12.821-.067-1.106-.383-1.087-.474.03-2.167 3.461l-3 5.414q-1.85 3.442-4.84 9.013l-1.584 2.633q-.464.187-1.89 2.81-1.277 2.456-2.822 5.72-1.555 3.107-2.96 6.046-1.25 2.929-1.665 3.905-1.139 2.13-1.813 4.074-.684 1.785-1.378 3.413l-2.08 4.882 3.068.923q3.71 1.042 7.26 2.094 3.552 1.052 7.252 1.936 7.093 1.947 8.04 1.889.159-.01.881-1.163-.47-7.74-.44-15.033.023-7.452.39-14.45m-9.948-85.313q7.665-9.502 7.607-10.45-.154-2.527-2.997-2.354-1.105.068-4.388 3.438-1.64 1.685-3.411 3.853-1.78 2.011-3.847 4.515-6.358 7.52-12.372 15.495t-10.884 16.515q-2.603 4.121-2.535 5.227-.259.967-.191 2.072.039.632.354.613.79-.048 3.144-3.045 1.167-1.656 2.492-3.322 1.316-1.824 2.78-3.815 8.277-9.857 14.34-17.042 6.061-7.186 9.908-11.7m304.155 87.016.039-.314-7.33 16.462q-1.16 2.884-1.985 5.651-.512 1.53-1.16 2.885l-.983 2.747q-4.029 10.497-7.293 21.25-3.244 10.596-5.88 21.428-1.73 6.162-2.086 8.988-.61 4.866.291 6.574.745 1.689 4.414 2.947l5.477-1.705-.04.314q2.317-.666 5.517-3.294 3.378-2.765 6.657-6.02 3.456-3.394 6.264-6.71 2.985-3.452 4.557-5.806l11.059-16.95q5.598-9.025 10.622-8.394 2.512.315 4.454 2.632 2.432 2.22 2.803 5.615.548 3.258.173 6.24-.887 7.066-5.622 15.56-4.558 8.359-10.98 16.323-6.245 7.827-13.295 14.437t-12.92 10.179q-15.568 9.686-33.093 8.283l-4.396-.552q-2.04-.257-4.062-.67-3.768-.473-6.495-1.613-4.14-1.317-8.928-3.832-4.61-2.652-8.808-6.05t-7.513-7.481-4.509-8.54q-1.665-4.515-2.388-11.463l-.509-2.296q-2.12 2.923-5.007 5.59-2.73 2.687-5.263 5.08-1.61 1.393-3.2 2.628l-2.867 2.51-2.474 1.923q-1.06.823-1.924 1.353-5.654 3.117-9.226 3.625-3.278.705-9.401-.064-6.594-.828-13.442-3.442-6.69-2.595-12.89-6.562-6.043-3.949-10.966-9.192-4.903-5.4-7.804-11.505t-4.055-13.426q-.977-7.458-.227-15.976 1.07-16.131 8.83-30.944 4.794-8.967 11.981-16.675 7.187-7.71 15.826-13.003 8.815-5.432 18.688-7.86 10.05-2.565 20.568-1.244 12.56 1.577 27.705 11.771l1.922 2.474q.824 1.06 1.334 2.081.079-.628.432-.902.196-.294.609-1.04.413-.745 1.06-2.1.492-1.373 1.829-4.394 1.356-3.179 3.242-8.045l4.874-10.87q6.367-15.148 14.677-29.254t19.405-26.268q3.79-3.51 8.717-5.922 5.085-2.391 10.422-1.72 7.536.945 18.424 8.213 16.519 11.962 14.35 29.231-.375 2.983-1.24 6.064-.53 1.687-1.042 3.218-.511 1.53-1.042 3.218-2.575 6.534-5.444 12.871-2.692 6.2-5.718 12.518-.275.922-1.297 2.708-.432.902-.844 1.648-.256.765-.669 1.51zm-112.428-15.234q6.261-.33 7.125-.86.805-.058.884-1.962-.274-1.629-.842-2.179-.295-.196-1.217-.471-.765-.256-2.158-.59-2.67-.336-4.612-.101-2.434.332-5.79 1.665-3.181 1.195-6.754 2.979-3.396 1.647-6.498 3.49-2.945 1.863-4.889 3.373-1.767 1.372-2.573 3.982-.472 2.492 1.098 2.69 1.412.177 1.57-1.079.1-.785 1.179-1.766 1.256-1.118 2.788-1.882 1.55-.922 3.082-1.686 1.531-.765 2.199-1 3.396-1.647 7.537-2.88 4.162-1.392 7.871-1.723m36.139 22.08q.55-1.845.884-3.238.335-1.393.453-2.335-2.198-.276-5.633 1.684-3.416 1.804-6.93 4.393-3.515 2.588-6.559 5.236-2.886 2.667-4.34 4.08-3.985 3.805-7.187 7.708-3.2 3.904-5.656 8.22l-.138 1.1q-.393.588-1.061 2.099-.512 1.53-1.22 3.355-.53 1.688-1.041 3.218-.354 1.55-.61 2.316-.944 3.708-1.947 7.888-.59 2.159-1.004 4.18-.393 1.864-.63 3.748-2.126 11.853-.812 12.815.392.687 1.55.354 1.159-.333 4.222-3.137 2.474-1.922 5.36-4.59 2.907-2.824 5.675-5.826 2.79-3.158 5.244-6.198 2.475-3.198 3.929-5.886.353-.274.962-1.314.216-.451.413-.746l.392-.588q2.004-3.257 3.242-5.494 1.394-2.217 2.023-3.413.786-1.177 1.258-2.394.648-1.354 1.12-2.57.471-1.217 1.002-2.904.688-1.668 1.455-3.964.766-2.296 1.376-4.611l1.534-4.592q.766-2.296 1.356-4.454.747-2.139 1.318-4.14m68.371-96.187q1.081-2.256-.625-3.906-1-.923-1.943-1.04-1.57-.198-3.2 1.351-1.61 1.393-3.142 3.433-1.375 2.06-2.612 4.297-1.061 2.1-1.69 3.296l-2.082 3.885-1.769 3.924q-.904 2.119-1.612 3.944l-1.375 3.335q-1.376 3.336-.984 4.023.372 2.12 1.785 1.022 1.1-1.138 4.872-7.043 2.2-3.551 4.36-6.788 2.338-3.375 4.99-6.71 4.123-4.904 5.027-7.023m30.578 152.015q3.111-10.302 8.787-19.21 5.718-9.062 13.328-16.102 7.804-7.148 17.108-12.057 9.456-4.866 20.041-6.775 13.063-2.517 25.538 1.051 9.28 2.654 17.102 8.677 7.975 6.067 14.34 13.154l1.152 1.152q1.783-2.781 3.5-4.759 1.914-2.086 4.023-3.128t4.608-1.15q2.651-.065 5.998.892 2.282.653 3.607 1.197 1.478.587 2.565 1.392 1.238.848 2.39 2 1.151 1.152 2.629 2.891l-.457-.13q8.561 8.044 10.341 15.63 1.91 7.13.518 11.997-.348 1.217-1.305 3.412-.805 2.239-2.414 5.564-1.457 3.368-3.045 7.193t-3.458 8.062q-1.719 4.281-3.48 8.714-1.762 4.434-3.72 8.976-3.654 9.322-5.612 16.168-1.871 6.542-3.09 11.953-1.067 5.455-1.329 9.824-.872 8.802 3.235 9.977 2.434.696 5.412.066 3.021-.781 6.021-2.062 3.195-1.39 5.978-3.063t4.63-2.955q6.609-4.692 12.197-10.993 5.63-6.454 9.176-13.668 2.653-5.824 4.523-7.758 1.63-1.673 5.434-.585 2.89.826 4.237 3.022t1.563 4.89q.412 2.587-.067 5.413-.327 2.868-.98 5.15-1.261 4.412-3.675 8.823t-5.589 8.605-6.87 7.91q-3.5 3.606-6.979 6.561-9.543 7.474-20.564 10.904-10.824 3.322-22.842-.115l-1.674-.479q-.913-.261-1.934-.718l-3.52-1.5q-6.759-3.415-12.343-8.633t-9.864-11.544-6.994-13.52q-2.714-7.196-3.582-14.52l-.76-3.674q-4.086 3.933-9.413 8.17-5.13 4.128-11.108 7.19-5.782 2.954-12.086 4.278-6.107 1.215-12.04-.482-8.367-2.393-15.669-6.786t-12.928-10.61-9.06-13.782q-3.387-7.717-3.972-16.606-.498-5.738.156-11.476.697-5.89 2.242-11.866zm130.24-28.41q-2.37 1.955-3.022 4.237l.217.39q.609.175 1.74-.325 1.325-.608 2.543-1.412 1.37-.76 2.326-1.803 1.108-1 1.282-1.608.305-1.065-.912-1.413-1.825-.522-4.174 1.933m-73.825 52.117q-.761 2.087-1.653 4.63t-1.915 5.54l-1.914 6.694q-.588 2.63-.653 3.434-.327 1.717.976 4.065l.87-.739q1.174-.652 1.804-1.13.435-.369 1.174-.651.74-.283 1.717-.826 6.587-2.888 12.478-7.95 5.892-5.063 10.98-11.342 5.087-6.28 9.35-13.125 4.261-6.845 7.545-13.147 3.697-7.171 5.959-10.474.522-.674.804-1.087.326-.565.5-1.173l.523-1.826q.565-1.977-.804-2.369-1.369-.391-3.5.151-2.086.39-4.346 1.39-2.218.847-4.326 1.89l-3.13 1.737q-4.826 3.063-9.63 6.626-4.61 3.455-8.588 7.583l.304.087q-3.065 3.237-6.066 6.823-2.957 3.433-4.936 7.475-1.022 1.847-1.892 3.737-.718 1.934-1.631 3.977m-20.892-54.69q-.478 1.674.89 2.065.61.174 2.37-.803.826-.587 2.391-1.455 1.718-.826 4.304-2.39 2.153-1.195 4.37-2.042 2.412-.955 4.934-1.715 4.152-1.281 8.216-2.258 4.108-1.129 8.173-2.106 3.086-.433 3.304-1.194.26-.913-.717-1.522-.782-.717-4.433-1.762-2.282-.652-5.02-.284-2.696.217-5.565 1.042t-5.521 2.041q-2.456 1.108-4.413 2.194l-3.13 1.738q-2 1.238-4.24 2.737-2.086 1.543-3.869 3.172-1.74 1.477-2.044 2.542m315.837 163.412q-4.723 6.348-8.067 11.246-3.134 4.822-5.167 8.413-3.854 7.106-3.066 10.27.533 1.474 1.392 1.877.716.336 2.964-.359l2.315-.837q1.262-.457 2.802-1.133l2.794-1.486q1.54-.676 3.071-1.706 1.464-.887 2.785-1.84l3.062-2.06q4.93-3.806 9.622-8.596 4.902-4.867 8.237-10.119 2.185-3.17 3.313-3.34.842-.304 2.848.636 2.149 1.007 4.123 3.505 1.84 2.785 2.467 5.176.233 3.604-3 10.127-5.053 10.038-13.278 17.891-8.157 7.71-18.297 12.568-8.341 3.255-17.202 2.772-8.86-.483-16.883-4.244-11.605-5.44-16.387-15.37-3.17-7.776-1.51-17.657.726-4.903 2.705-10.616 2.189-5.789 5.699-12.531 3.491-7.45 7.776-14.354 4.351-7.047 8.922-13.817 2.521-3.886 4.177-5.556.891-1.155 1.505-2.091.823-1.012 1.58-1.88 1.59-1.527 1.16-1.729-.86-.403-3.166.788-6.017 2.772-11.434 6.873t-10.32 8.968q-4.692 4.79-9.088 10.07-4.33 5.135-8.448 10.194-2.749 3.255-5.516 5.803-2.556 2.471-5.493 3.89t-6.398 1.72-7.875-.72q-1.854-.52-3.278-.838-1.356-.46-2.359-.93-1.93-.73-4.697-3.775l.287.134q-4.706-4.127-6.694-9.952-1.777-5.901.976-11.775l.738-1.576q.202-.43.318-1.424.135-.286.193-.783l.403-.86q.765-.515 2.176-3.524.47-1.002.881-1.508l.47-1.003q.412-.506.681-1.08 1.083-1.938 2.512-4.24 1.495-2.444 3.326-5.605 1.974-3.093 3.604-5.825 1.84-2.807 3.402-5.395 2.655-4.172 5.185-7.705 2.117-3.027 3.093-3.618-.86-.403-3.577 1.294-2.574 1.764-5.628 4.178-2.986 2.27-5.618 4.53-2.566 2.119-3.255 2.844-1.8 1.603-4.988 4.303-2.977 2.623-6.088 5.534t-5.87 5.811q-2.547 2.825-3.63 4.764-.135.286-2.203 2.462-.824 1.012-1.992 2.387-1.102 1.231-2.337 2.749-2.118 3.026-5.01 6.214-1.303 1.661-2.261 2.96-.89 1.155-1.571 2.234-10.472 14.139-14.68 15.661-2.105.762-4.8.547-2.628-.358-5.265-1.07t-5.283-1.777l-4.298-2.015q-8.453-3.962-13.168-8.443l-.287-.135q-3.196-3.246-4.835-6.46-1.572-3.358-2.015-6.886-.233-3.604.309-7.37.685-3.698 2-7.624 1.375-4.423 3.237-9.142 2.006-4.652 4.424-9.81 3.357-7.164 7.673-15.626 4.459-8.394 9.701-16.597 5.243-8.202 11.144-15.572 6.043-7.302 12.504-12.138 3.743-3.138 7.024-4.92t6.38-2.427q6.416-1.012 13.006 2.077 6.591 3.09 11.162 7.503 4.782 4.339 8.413 10.759 4.155 7.54 4.003 12.71-.367 2.275-3.013 6.801-1.36 2.158-3.21 4.612-1.706 2.52-3.966 5.48 4.526-2.946 11.501-7.016 7.119-4.003 14.685-7.097 7.777-3.17 15.177-4.42 7.401-1.249 12.845 1.303 2.58 1.209 5.05 3.765 2.54 2.413 4.389 5.552 2.06 3.062 3.134 6.362 1.218 3.366 1.08 6.272l-.288-.134q-.174 1.49-.828 3.63-.51 2.208-1.374 4.424t-1.804 4.222q-.797 2.073-1.469 3.506 2.163-1.258 5.1-2.678 3.004-1.562 6.084-2.914 3.148-1.496 6.093-2.561 3.09-.999 5.557-1.415 3.46-.3 6.612 1.177 3.439 1.612 6.797 5.632 3.425 3.877 6.026 8.766 2.812 4.813 4.285 9.872 1.617 5.126 1.295 9.17-.359 2.627-1.75 6.343l-1.747 3.725q-.797 2.073-1.938 4.509-2.552 5.444-5.61 10.477-3.058 5.032-6.975 9.662m-118.675-113.29q6.232-5.467 4.2-7.468-1.747-1.867-6.743 2.082-5.417 4.101-10.61 11.453-1.926 2.243-3.143 4.468-1.572 2.234-2.682 3.112-1.992 2.386-2.368 4.307-.587 1.997 1.038 1.885.287.134 3.054-2.413.814-1.366 3.295-4.048 1.244-1.164 2.346-2.395 1.168-1.375 2.623-2.615 2.279-2.252 4.423-4.218 2.212-2.108 4.567-4.15m74.966 25.352q.573.268 1.178-1.021.537-1.146-.466-1.616-.716-.336-3.546-.264-1.558-.032-3.452.653-1.75.753-2.489 2.329-.403.86.17 1.128.86.403 4.446-.538 3.156-1.141 4.16-.671m43.192 31.253q2.123-.053 2.239-1.047.403-.86-1.518-1.236-1.29-.604-2.601.703-1.16 1.728 1.88 1.58" aria-label="To Adam" style="font-size:316.456px;line-height:1;font-family:&quot;Magic Bubble&quot;;-inkscape-font-specification:&quot;Magic Bubble&quot;;text-align:center;text-anchor:middle;fill:#45b5aa;fill-opacity:1;stroke-width:2.68987;stroke-linecap:round;stroke-linejoin:round" transform="translate(0 -118.158)"/><path d="M1022.586 471.114q2.244 3.129 3.34 8.585.412 1.913.817 4.888.335 2.832.456 5.947.122 3.114.03 6.156-.019 2.83-.456 4.81-.656 2.967-3.014 6.419-1.855 2.323-3.277 3.375l-2.414 1.187q-1.42.698-3.69 1.462l-6.81 2.644-10.565 3.256q-7.8 2.426-15.39 5.277-7.519 2.64-14.76 6.2-3.124 1.537-2.845 2.105.14.284 2.046.933 1.84.154 3.45 2.712.628 1.278 1.043 2.837.556 1.49.614 3.401.268 2.337.885 5.384.547 2.905 1.231 6.448l1.508 7.369q.755 3.684 1.506 7.723.894 3.969 1.648 7.653l1.509 7.37q.896 3.614 1.443 6.52.689 2.834 1.24 5.032l-.284.14 1.101 4.748q2.347 9.073 4.98 17.652 2.774 8.51 5.762 16.739 6.192 16.174 12.974 28.532 1.888 3.48 3.638 6.322t3.788 5.19q1.966 2.207 4.571 4.276 2.535 1.927 6.131 3.862 2.542.866 3.88 1.794 1.972 1.5 2.111 1.783.769 1.562-1.447 4.944-3.14 4.013-7.76 7.167-4.48 3.084-9.023 5.319-4.401 2.164-9.222 3.477-4.75 1.455-9.706 1.776-4.744.393-9.478-.628-4.665-.88-9.106-3.457-11.065-6.725-24.794-28.185-1.47-2.275-2.663-3.98-1.12-1.919-1.887-3.48-.91-1.493-1.609-2.912l-1.466-2.982-1.536-3.124q-.838-1.704-1.604-3.62-5.866-11.926-10.449-25.189-4.51-13.475-8.319-26.237-1.662-5.53-3.254-10.92-1.662-5.53-3.184-10.776-1.592-5.389-2.907-9.855-1.243-4.679-2.137-8.647-4.623 3.507-8.391 6.242t-6.543 4.981q-2.844 2.105-5.405 4.07-2.56 1.964-5.05 4.07-2.35 2.037-3.844 3.3-1.422 1.053-2.062 1.544-2.418 1.895-2.78 2.954-1.992 1.685-4.124 3.086-.996.843-1.848 1.262l-1.42.698q-3.833 1.885-7.655 2.002t-7.495-.899q-3.601-1.226-6.913-3.3-3.24-2.286-5.91-5.205-5.268-6.05-7.551-13.92-.338-2.478-.96-4.817-.548-2.552-.886-5.03 2.351-13.147 9.064-22.444 6.643-9.438 16.535-18.006 12.598-10.956 30.935-23.148l12.783-6.993q6.392-3.496 12.923-6.708 6.532-3.212 13.203-6.14l13.342-5.856q4.185-1.53 11.205-3.748t15.313-4.357q8.436-2.21 17.292-3.92t16.643-2.013q7.928-.373 14.003 1.224 6.147 1.385 8.95 5.65zm-143.974 60.05q1.63-.272 1.21-1.124-.276-.921-1.547-1.354-1.413-.363-4.963 1.382-6.463 3.708-13.293 9.183-6.687 5.405-11.82 11.103-5.2 5.202-6.072 8.805-.873 3.603 2.02 4.825 1.41.717 2.905-.547 1.352-1.194 6.35-7.883 1.354-1.548 2.781-3.308 1.357-1.902 2.856-3.873 2.856-3.873 5.205-5.91 3.42-3.445 8.256-7.234 4.623-3.508 6.112-4.064m272.332 17.455q.711 1.596 1.68 4.442 1.119 2.795 2.598 7.139.866 2.546 1.533 4.994.765 2.247 1.278 4.245 1.444 6.696 1.485 13.2-.01 6.355-.566 13.063-.772 4.609-1.743 9.118t-3.248 8.628q-6.27 13-15.427 20.964-3.735 2.776-8.126 4.605-4.242 1.779-8.586 3.258-4.044 1.377-7.54 2.4-3.397.822-6.148 1.09-3.747.774-8.949 1.208-5.05.383-10.405.367-5.405-.166-10.463-.784-5.108-.767-8.77-2.195-10.632-3.735-17.672-9.194t-12.656-15.08q-2.582-4.637-4.71-8.926-1.98-4.341-3.357-8.385-5.049-14.829-2.646-30.356.277-3.604 1.003-7.362.826-3.958 2.205-7.27.494-1.003.937-2.157.542-1.354 1.183-2.91 4.292-9.484 10.847-17.232 6.556-7.747 15.58-12.659 1.298-.609 3.545-1.374 2.345-.965 5.64-2.087 4.695-1.431 8.443-2.206 3.897-.825 7.498-1.049 3.7-.424 7.605-.249 3.853.026 8.71.545l-.103-.3q18.979 2.23 29.315 14.424.956.844 1.762 1.74 1.358 1.042 1.708 1.09 6.218 2.061 9.845 5.84 3.777 3.73 6.715 9.415m-90.223-8.73q5.966-6.042 2.355-7.32-.803-.395-2.001.013-2.097.714-4.484 3.031-2.237 2.266-4.321 4.982-2.085 2.715-3.767 5.628-1.734 2.763-2.623 4.57-5.522 12.745-1.31 14.319 1.158.943 1.649-.561l1.714-5.765q.685-2.406 2.17-4.918 1.434-2.66 3.12-5.074 1.785-2.613 3.722-4.777 2.036-2.365 3.776-4.127m67.166 25.94-2.15.064.299-.102q-3.7.424-6.715-1.558-2.865-2.033-5.084-4.621-.605-.797-.962-1.845l-.765-2.247q-.466-2.349-.485-5.35-.284-5.253-1.355-8.398-1.07-3.146-2.973-3.334-3.05.37-6.62 5.597-3.47 5.026-5.232 11.141-1.876 11.671-.496 24.071 1.33 12.251 5.103 23.335l1.581 4.643q.612 1.798 1.068 2.645.306.9.911 1.696.756.746 1.712 1.59 1.81 1.39 3.267 2.23 1.456.842 2.708 1.084 2.257.736 4.851-.481.848-.456 1.546-.86l1.695-.912q1.893-1.313 2.789-2.12l-.102-.3q5.27-5.137 7.18-11.804 2.007-6.868 2.262-13.975l.102.3-1.126-11.652zm401.468-63.743q-.027 4.757.01 7.925.105 1.738.015 2.853l.086 1.421.316-.02q.947-.057 3.053-1.929 2.095-2.03 4.2-3.901 2.097-2.03 4.202-3.902t3.843-1.978q1.263-.077 2.565.478t2.475 1.593q1.33 1.029 2.04 2.254.866 1.215.943 2.479.211 3.475-1.463 7.222-1.526 3.58-4.167 7.07-2.492 3.323-5.646 6.21-2.995 2.877-5.584 4.62l-2.263 1.88 1.883 7.495q1.068 4.532 2.247 8.265 1.326 3.565 2.95 6.795 1.623 3.23 3.878 6.422t5.319 6.651q4.414 4.804 4.568 7.331.22 3.633-3.425 6.233-3.48 2.748-8.447 4.477-4.957 1.887-10.13 2.836t-8.175 1.131q-7.58.462-14.43-.072-6.69-.544-12.55-3.041-5.69-2.348-10.401-6.817-4.563-4.637-7.876-12.203l-3.607-9.767q-.335-.297-.522-.76-.029-.475-.383-1.087-.393-1.244-1.11-2.627l.315-.02-3.631-12.777-8.97-1.515q-3.048-.607-5.772-1.075-2.89-.617-3.365-.588l-.287.493.02.316-10.162-2.87q-3.049-.606-5.447-.936-2.24-.339-3.996-.55-3.197-.439-5.25-.314-.632.039-1.958 1.705-.732.995-1.573 2.79-.852 1.637-1.971 4.083t-2.636 6.185q-1.525 3.58-3.458 8.295-1.932 4.714-4.252 10.88-2.32 6.164-5.332 13.957-9.91 24.698-14.807 24.996-1.42.087-2.871-.3-.81-.268-1.934-.517-1.115-.09-2.556-.32-5.959-1.54-12.942-4.285-6.974-2.587-13.245-6.644-6.103-3.909-10.397-9.354-4.305-5.603-4.747-12.868-.202-3.317.448-8.27.468-2.724.798-5.122.32-2.556.798-5.121.487-2.408 1.104-5.299.607-3.049 1.501-6.59l-.019-.316 6.074-14.795q.517-1.934.526-1.776-.096-1.58-4.528-1.468-2.23-.182-5.23 0l-6.476.395q-4.738.288-8.203.658t-5.973.839q-3.13.666-5.915 1.787-2.795.962-5.718 2.408-1.7.738-5.332.959-2.843.173-4.38-1.636-1.685-1.64-2.011-7.01-.045-8.558 3.49-15.59 3.692-7.04 9.573-11.996 6.029-5.122 13.614-8.12t15.482-3.48q2.527-.153 6.504.08 3.968.076 7.48.496l17.36 1.322 13.72-24.614q2.277-4.26 5.75-9.702 3.622-5.61 8.262-12.71 8.669-13.843 18.175-26.945 9.497-13.26 19.329-26.222 2.047-2.82 4.717-5.836 2.66-3.174 5.488-6.2 2.986-3.034 6-5.596 3.163-2.728 6.235-4.342 2.312-1.092 4.652-1.71 2.33-.776 4.7-.92 1.737-.106 3.503.262 1.914.2 3.858.875 3.728 1.358 4.992 1.281 1.105-.067 3.282-3.37 2.344-3.154 6.293-3.395 7.107-.432 14.09 2.313 6.974 2.587 12.503 7.482 5.52 4.737 9.092 11.336 3.562 6.44 4.005 13.706.153 2.527.078 6.494.073 3.8-.223 9.367-.295 5.566-.71 11.773-.266 6.04-.652 12.722l-.772 13.363q-.228 6.671-.614 13.353-.476 7.796-.637 15.573 0 7.768.478 15.665 0 2.537-.018 4.915l.269 4.422zm-63.488-22.133q.357-7.156.437-13.66.07-6.662-.305-12.821-.067-1.106-.383-1.087-.474.03-2.167 3.461l-3 5.414q-1.85 3.442-4.84 9.013l-1.584 2.633q-.464.187-1.89 2.81-1.277 2.455-2.822 5.72-1.555 3.106-2.96 6.045l-1.665 3.906q-1.139 2.13-1.813 4.074-.684 1.785-1.378 3.412l-2.08 4.883 3.068.922q3.71 1.043 7.26 2.095 3.552 1.052 7.252 1.936 7.093 1.946 8.04 1.889.159-.01.881-1.164-.47-7.738-.44-15.032.023-7.452.39-14.45m-9.948-85.313q7.665-9.502 7.607-10.45-.154-2.527-2.997-2.354-1.105.067-4.388 3.438-1.64 1.685-3.411 3.853-1.78 2.01-3.847 4.514-6.358 7.52-12.372 15.496-6.014 7.975-10.884 16.515-2.603 4.121-2.535 5.227-.259.966-.191 2.072.039.632.354.612.79-.048 3.144-3.044 1.167-1.657 2.492-3.322 1.316-1.824 2.78-3.816 8.277-9.856 14.34-17.042 6.061-7.185 9.908-11.7m304.155 87.016.039-.314-7.33 16.462q-1.16 2.884-1.985 5.651-.512 1.53-1.16 2.884l-.983 2.747q-4.029 10.498-7.293 21.251-3.244 10.596-5.88 21.428-1.73 6.161-2.086 8.987-.61 4.867.291 6.575.745 1.688 4.414 2.947l5.477-1.705-.04.314q2.317-.666 5.517-3.294 3.378-2.765 6.657-6.021 3.456-3.393 6.264-6.709 2.985-3.452 4.557-5.806l11.059-16.95q5.598-9.025 10.622-8.394 2.512.315 4.454 2.632 2.432 2.22 2.803 5.615.548 3.258.173 6.24-.887 7.065-5.622 15.56-4.558 8.359-10.98 16.323-6.245 7.827-13.295 14.437t-12.92 10.179q-15.568 9.686-33.093 8.282l-4.396-.552q-2.04-.256-4.062-.67-3.768-.472-6.495-1.612-4.14-1.317-8.928-3.832-4.61-2.652-8.808-6.05t-7.513-7.482-4.509-8.54q-1.665-4.514-2.388-11.462l-.509-2.297q-2.12 2.923-5.007 5.59-2.73 2.688-5.263 5.08-1.61 1.393-3.2 2.629l-2.867 2.51-2.474 1.922q-1.06.824-1.924 1.353-5.654 3.118-9.226 3.626-3.278.705-9.401-.064-6.594-.828-13.442-3.442-6.69-2.595-12.89-6.563-6.043-3.948-10.966-9.19-4.903-5.4-7.804-11.506T1583.607 537q-.977-7.459-.227-15.976 1.07-16.131 8.83-30.945 4.794-8.966 11.981-16.675 7.187-7.708 15.826-13.003 8.815-5.43 18.688-7.859 10.05-2.565 20.568-1.244 12.56 1.577 27.705 11.771l1.922 2.474q.824 1.06 1.334 2.081.079-.628.432-.902.196-.295.609-1.04t1.06-2.1q.492-1.373 1.829-4.395 1.356-3.178 3.242-8.044l4.874-10.87q6.367-15.148 14.677-29.254t19.405-26.268q3.79-3.51 8.717-5.922 5.085-2.391 10.422-1.721 7.536.946 18.424 8.214 16.519 11.961 14.35 29.23-.375 2.984-1.24 6.065-.53 1.687-1.042 3.218-.511 1.53-1.042 3.218-2.575 6.534-5.444 12.871-2.692 6.2-5.718 12.518-.275.922-1.297 2.708-.432.902-.844 1.648-.256.765-.669 1.51zm-112.428-15.234q6.261-.33 7.125-.86.805-.058.884-1.962-.274-1.63-.842-2.179-.295-.196-1.217-.472-.765-.255-2.158-.59-2.67-.335-4.612-.1-2.434.332-5.79 1.665-3.181 1.195-6.754 2.979-3.396 1.646-6.498 3.49-2.945 1.862-4.889 3.372-1.767 1.373-2.573 3.983-.472 2.492 1.098 2.69 1.412.177 1.57-1.08.1-.784 1.179-1.765 1.256-1.118 2.788-1.882 1.55-.922 3.082-1.686 1.531-.765 2.199-1 3.396-1.647 7.537-2.88 4.162-1.392 7.871-1.723m36.139 22.08q.55-1.845.884-3.238.335-1.394.453-2.336-2.198-.276-5.633 1.685-3.416 1.804-6.93 4.392-3.515 2.589-6.559 5.237-2.886 2.667-4.34 4.08-3.985 3.805-7.187 7.708-3.2 3.904-5.656 8.22l-.138 1.1q-.393.588-1.061 2.099-.512 1.53-1.22 3.355-.53 1.687-1.041 3.218-.354 1.55-.61 2.315-.944 3.71-1.947 7.889-.59 2.158-1.004 4.18-.393 1.864-.63 3.748-2.126 11.853-.812 12.815.392.687 1.55.354 1.159-.333 4.222-3.138 2.474-1.922 5.36-4.589 2.907-2.825 5.675-5.826 2.79-3.158 5.244-6.198 2.475-3.198 3.929-5.886.353-.275.962-1.314.216-.452.413-.746l.392-.588q2.004-3.257 3.242-5.494 1.394-2.217 2.023-3.414.786-1.177 1.258-2.393.648-1.354 1.12-2.57.471-1.217 1.002-2.905.688-1.667 1.455-3.963.766-2.296 1.376-4.611l1.534-4.592q.766-2.296 1.356-4.454.747-2.14 1.318-4.14m68.371-96.187q1.081-2.256-.625-3.906-1-.923-1.943-1.041-1.57-.197-3.2 1.352-1.61 1.393-3.142 3.433-1.375 2.06-2.612 4.297-1.061 2.099-1.69 3.296l-2.082 3.884-1.769 3.925q-.904 2.119-1.612 3.943l-1.375 3.336q-1.376 3.336-.984 4.023.372 2.12 1.785 1.021 1.1-1.137 4.872-7.043 2.2-3.55 4.36-6.788 2.338-3.374 4.99-6.709 4.123-4.904 5.027-7.023m30.578 152.014q3.111-10.3 8.787-19.21 5.718-9.061 13.328-16.101 7.804-7.148 17.108-12.057 9.456-4.866 20.041-6.775 13.063-2.517 25.538 1.05 9.28 2.655 17.102 8.678 7.975 6.066 14.34 13.154l1.152 1.152q1.783-2.781 3.5-4.759 1.914-2.086 4.023-3.128t4.608-1.15q2.651-.065 5.998.892 2.282.653 3.607 1.197 1.478.587 2.565 1.391 1.238.848 2.39 2 1.151 1.153 2.629 2.892l-.457-.13q8.561 8.044 10.341 15.63 1.91 7.13.518 11.997-.348 1.217-1.305 3.412-.805 2.239-2.414 5.563-1.457 3.369-3.045 7.193-1.588 3.825-3.458 8.063-1.719 4.281-3.48 8.714-1.762 4.433-3.72 8.975-3.654 9.323-5.612 16.169-1.871 6.541-3.09 11.953-1.067 5.455-1.329 9.823-.872 8.802 3.235 9.977 2.434.697 5.412.067 3.021-.781 6.021-2.063 3.195-1.39 5.978-3.062 2.782-1.673 4.63-2.955 6.609-4.692 12.197-10.994 5.63-6.453 9.176-13.668 2.653-5.824 4.523-7.757 1.63-1.673 5.434-.586 2.89.827 4.237 3.023 1.347 2.195 1.563 4.89.412 2.587-.067 5.412-.327 2.87-.98 5.151-1.261 4.412-3.675 8.823t-5.589 8.605-6.87 7.91q-3.5 3.606-6.979 6.56-9.543 7.475-20.564 10.905-10.824 3.322-22.842-.115l-1.674-.48q-.913-.26-1.934-.717l-3.52-1.5q-6.759-3.415-12.343-8.633t-9.864-11.544-6.994-13.52q-2.714-7.196-3.582-14.52l-.76-3.674q-4.086 3.933-9.413 8.17-5.13 4.127-11.108 7.19-5.782 2.954-12.086 4.278-6.107 1.215-12.04-.482-8.367-2.393-15.669-6.786t-12.928-10.61-9.06-13.782q-3.387-7.717-3.972-16.607-.498-5.738.156-11.475.697-5.89 2.242-11.866zm130.24-28.41q-2.37 1.956-3.022 4.237l.217.392q.609.174 1.74-.326 1.325-.608 2.543-1.412 1.37-.76 2.326-1.803 1.108-1 1.282-1.608.305-1.065-.912-1.413-1.825-.522-4.174 1.933m-73.825 52.118q-.761 2.086-1.653 4.629t-1.915 5.542l-1.914 6.693q-.588 2.63-.653 3.434-.327 1.717.976 4.065l.87-.74q1.174-.65 1.804-1.129.435-.369 1.174-.651.74-.283 1.717-.826 6.587-2.888 12.478-7.95 5.892-5.063 10.98-11.343 5.087-6.28 9.35-13.124 4.261-6.845 7.545-13.147 3.697-7.171 5.959-10.474.522-.674.804-1.087.326-.565.5-1.173l.523-1.826q.565-1.977-.804-2.369t-3.5.151q-2.086.39-4.346 1.39-2.218.847-4.326 1.89l-3.13 1.737q-4.826 3.063-9.63 6.626-4.61 3.454-8.588 7.583l.304.087q-3.065 3.237-6.066 6.822-2.957 3.433-4.936 7.475-1.022 1.848-1.892 3.738-.718 1.934-1.631 3.977m-20.892-54.69q-.478 1.674.89 2.065.61.174 2.37-.803.826-.587 2.391-1.456 1.718-.825 4.304-2.39 2.153-1.194 4.37-2.04 2.412-.956 4.934-1.716 4.152-1.281 8.216-2.258 4.108-1.13 8.173-2.106 3.086-.434 3.304-1.194.26-.913-.717-1.522-.782-.717-4.433-1.762-2.282-.652-5.02-.284-2.696.217-5.565 1.042t-5.521 2.041q-2.456 1.108-4.413 2.194l-3.13 1.738q-2 1.238-4.24 2.737-2.086 1.542-3.869 3.172-1.74 1.477-2.044 2.542m315.837 163.411q-4.723 6.35-8.067 11.247-3.134 4.822-5.167 8.413-3.854 7.105-3.066 10.27.533 1.474 1.392 1.877.716.335 2.964-.359l2.315-.837q1.262-.457 2.802-1.133l2.794-1.486q1.54-.676 3.071-1.706 1.464-.887 2.785-1.84l3.062-2.06q4.93-3.806 9.622-8.596 4.902-4.867 8.237-10.119 2.185-3.17 3.313-3.34.842-.305 2.848.636 2.149 1.007 4.123 3.505 1.84 2.785 2.467 5.176.233 3.604-3 10.127-5.053 10.038-13.278 17.891-8.157 7.71-18.297 12.568-8.341 3.255-17.202 2.772-8.86-.483-16.883-4.244-11.605-5.44-16.387-15.37-3.17-7.776-1.51-17.657.726-4.903 2.705-10.616 2.189-5.789 5.699-12.531 3.491-7.45 7.776-14.354 4.351-7.048 8.922-13.817 2.521-3.886 4.177-5.556.891-1.156 1.505-2.091.823-1.012 1.58-1.88 1.59-1.528 1.16-1.729-.86-.403-3.166.788-6.017 2.772-11.434 6.873t-10.32 8.968q-4.692 4.79-9.088 10.07-4.33 5.135-8.448 10.194-2.749 3.255-5.516 5.803-2.556 2.471-5.493 3.89t-6.398 1.72-7.875-.72q-1.854-.52-3.278-.838-1.356-.461-2.359-.931-1.93-.73-4.697-3.774l.287.134q-4.706-4.128-6.694-9.952-1.777-5.901.976-11.775l.738-1.576q.202-.43.318-1.424.135-.287.193-.783l.403-.86q.765-.515 2.176-3.524.47-1.003.881-1.509l.47-1.002q.412-.506.681-1.08 1.083-1.938 2.512-4.24 1.495-2.444 3.326-5.605 1.974-3.094 3.604-5.825 1.84-2.807 3.402-5.395 2.655-4.173 5.185-7.705 2.117-3.027 3.093-3.618-.86-.403-3.577 1.294-2.574 1.764-5.628 4.178-2.986 2.27-5.618 4.53-2.566 2.118-3.255 2.844-1.8 1.603-4.988 4.302-2.977 2.624-6.088 5.534t-5.87 5.812q-2.547 2.825-3.63 4.764-.135.286-2.203 2.462-.824 1.012-1.992 2.387-1.102 1.23-2.337 2.749-2.118 3.026-5.01 6.214-1.303 1.661-2.261 2.96-.89 1.155-1.571 2.234-10.472 14.139-14.68 15.661-2.105.761-4.8.547-2.628-.359-5.265-1.07t-5.283-1.778l-4.298-2.014q-8.453-3.962-13.168-8.444l-.287-.134q-3.196-3.246-4.835-6.46-1.572-3.358-2.015-6.886-.233-3.604.309-7.37.685-3.698 2-7.624 1.375-4.424 3.237-9.143 2.006-4.651 4.424-9.81 3.357-7.163 7.673-15.625 4.459-8.395 9.701-16.597t11.144-15.572q6.043-7.302 12.504-12.138 3.743-3.138 7.024-4.92t6.38-2.427q6.416-1.012 13.006 2.077 6.591 3.089 11.162 7.503 4.782 4.338 8.413 10.759 4.155 7.539 4.003 12.71-.367 2.274-3.013 6.801-1.36 2.158-3.21 4.612-1.706 2.52-3.966 5.48 4.526-2.946 11.501-7.016 7.119-4.003 14.685-7.097 7.777-3.17 15.177-4.42 7.401-1.249 12.845 1.303 2.58 1.209 5.05 3.765 2.54 2.413 4.389 5.552 2.06 3.062 3.134 6.361 1.218 3.367 1.08 6.273l-.288-.134q-.174 1.49-.828 3.63-.51 2.208-1.374 4.424t-1.804 4.222q-.797 2.073-1.469 3.506 2.163-1.258 5.1-2.678 3.004-1.562 6.084-2.915 3.148-1.495 6.093-2.56 3.09-1 5.557-1.416 3.46-.3 6.612 1.178 3.439 1.611 6.797 5.632 3.425 3.877 6.026 8.766 2.812 4.813 4.285 9.872 1.617 5.126 1.295 9.169-.359 2.628-1.75 6.344l-1.747 3.725q-.797 2.073-1.938 4.509-2.552 5.444-5.61 10.476t-6.975 9.662m-118.675-113.29q6.232-5.467 4.2-7.468-1.747-1.867-6.743 2.082-5.417 4.101-10.61 11.453-1.926 2.243-3.143 4.468-1.572 2.234-2.682 3.112-1.992 2.386-2.368 4.307-.587 1.997 1.038 1.885.287.134 3.054-2.414.814-1.365 3.295-4.047 1.244-1.164 2.346-2.395 1.168-1.375 2.623-2.615 2.279-2.252 4.423-4.218 2.212-2.109 4.567-4.15m74.966 25.351q.573.27 1.178-1.02.537-1.147-.466-1.617-.716-.335-3.546-.264-1.558-.03-3.452.654-1.75.752-2.489 2.328-.403.86.17 1.129.86.403 4.446-.538 3.156-1.142 4.16-.672m43.192 31.254q2.123-.054 2.239-1.048.403-.86-1.518-1.235-1.29-.605-2.601.703-1.16 1.728 1.88 1.58" aria-label="To Adam" style="font-size:316.456px;line-height:1;font-family:&quot;Magic Bubble&quot;;-inkscape-font-specification:&quot;Magic Bubble&quot;;text-align:center;text-anchor:middle;fill:#fff;stroke-width:2.68987;stroke-linecap:round;stroke-linejoin:round" transform="translate(0 -118.158)"/><text xml:space="preserve" x="1504.921" y="3119.184" style="font-size:237.482px;line-height:1;font-family:&quot;Magic Bubble&quot;;-inkscape-font-specification:&quot;Magic Bubble&quot;;text-align:center;writing-mode:lr-tb;direction:ltr;text-anchor:middle;fill:#45b5aa;fill-opacity:1;stroke-width:2.0186;stroke-linecap:round;stroke-linejoin:round" transform="translate(139.812 294.83)scale(.90679)"><tspan x="1504.921" y="3119.184" style="fill:#45b5aa;fill-opacity:1;stroke-width:2.0186">Thank You For Being</tspan><tspan x="1504.92" y="3358.985" style="fill:#45b5aa;fill-opacity:1;stroke-width:2.0186">Your Adorable Self!</tspan></text><text xml:space="preserve" x="1504.921" y="3105.39" style="font-size:237.482px;line-height:1;font-family:&quot;Magic Bubble&quot;;-inkscape-font-specification:&quot;Magic Bubble&quot;;text-align:center;writing-mode:lr-tb;direction:ltr;text-anchor:middle;fill:#fff;fill-opacity:1;stroke-width:2.0186;stroke-linecap:round;stroke-linejoin:round" transform="translate(139.812 294.83)scale(.90679)"><tspan x="1504.921" y="3105.39" style="stroke-width:2.0186">Thank You For Being</tspan><tspan x="1504.92" y="3345.191" style="stroke-width:2.0186">Your Adorable Self!</tspan></text></svg>