<svg xmlns="http://www.w3.org/2000/svg" xml:space="preserve" width="500" height="1000"><path d="M249.874 38.867c-75.448-.225-79.003-.177-83.214 1.146-12.841 4.322-22.346 12.616-26.823 25.118-.568 1.59-.932 4.28-.935 5.969-1.168 285.934-.506 571.866 0 857.8.003 1.689.367 4.38.935 5.969 4.477 12.502 13.982 20.796 26.823 25.118 4.21 1.323 7.766 1.371 83.214 1.146h.252c75.448.225 79.003.177 83.214-1.146 12.841-4.322 22.346-12.616 26.823-25.118.568-1.59.932-4.28.935-5.969 1.168-285.934.506-571.866 0-857.8-.003-1.689-.367-4.38-.935-5.969-4.477-12.502-13.982-20.796-26.823-25.118-4.21-1.323-7.766-1.371-83.214-1.146H250z" style="display:inline;fill:#dfdfe7;fill-opacity:1;stroke-width:.734223"/><path d="M238.416 132.216a8.853 8.862 0 0 0-8.875 8.886v23.837a3.126 3.129 0 0 1-3.129 3.132h-23.814a8.853 8.862 0 0 0-8.876 8.883v23.191a8.853 8.862 0 0 0 8.876 8.883h23.814a3.126 3.129 0 0 1 3.129 3.13v23.839a8.853 8.862 0 0 0 8.875 8.885h23.171a8.853 8.862 0 0 0 8.873-8.885v-23.839a3.126 3.129 0 0 1 3.128-3.13h23.818a8.853 8.862 0 0 0 8.872-8.883v-23.191a8.853 8.862 0 0 0-8.873-8.883h-23.818a3.126 3.129 0 0 1-3.13-3.132v-23.838a8.853 8.862 0 0 0-8.87-8.884z" style="fill:#000;fill-opacity:1;fill-rule:evenodd;stroke:none;stroke-width:3.76568;stroke-miterlimit:7;paint-order:stroke markers fill"/><circle cx="190.902" cy="82.104" r="17.865" style="font-variation-settings:normal;vector-effect:none;fill:#000;fill-opacity:1;fill-rule:evenodd;stroke-width:35.7178;stroke-linecap:butt;stroke-linejoin:miter;stroke-miterlimit:4;stroke-dasharray:none;stroke-dashoffset:0;stroke-opacity:1;-inkscape-stroke:none;stop-color:#000"/><circle cx="250" cy="479.468" r="17.803" style="font-variation-settings:normal;vector-effect:none;fill:#000;fill-opacity:1;fill-rule:evenodd;stroke-width:46.7085;stroke-linecap:butt;stroke-linejoin:miter;stroke-miterlimit:4;stroke-dasharray:none;stroke-dashoffset:0;stroke-opacity:1;-inkscape-stroke:none;stop-color:#000"/><circle cx="250" cy="326.074" r="35.282" style="font-variation-settings:normal;vector-effect:none;fill:#000;fill-opacity:1;fill-rule:evenodd;stroke-width:34.7918;stroke-linecap:butt;stroke-linejoin:miter;stroke-miterlimit:4;stroke-dasharray:none;stroke-dashoffset:0;stroke-opacity:1;-inkscape-stroke:none;stop-color:#000"/><circle cx="312.759" cy="479.468" r="17.803" style="font-variation-settings:normal;vector-effect:none;fill:#000;fill-opacity:1;fill-rule:evenodd;stroke-width:46.7085;stroke-linecap:butt;stroke-linejoin:miter;stroke-miterlimit:4;stroke-dasharray:none;stroke-dashoffset:0;stroke-opacity:1;-inkscape-stroke:none;stop-color:#000"/><circle cx="-187.241" cy="479.468" r="17.803" style="font-variation-settings:normal;vector-effect:none;fill:#000;fill-opacity:1;fill-rule:evenodd;stroke-width:46.7085;stroke-linecap:butt;stroke-linejoin:miter;stroke-miterlimit:4;stroke-dasharray:none;stroke-dashoffset:0;stroke-opacity:1;-inkscape-stroke:none;stop-color:#000" transform="scale(-1 1)"/><g style="fill:#000;fill-opacity:1" transform="translate(103.841 -51.461)scale(.73528)"><circle cx="178.255" cy="823.342" r="2.959" style="opacity:1;fill:#000;fill-opacity:1"/><circle cx="198.779" cy="823.342" r="2.959" style="opacity:1;fill:#000;fill-opacity:1"/><circle cx="-219.304" cy="823.342" r="2.959" style="opacity:1;fill:#000;fill-opacity:1" transform="scale(-1 1)"/><circle cx="178.255" cy="846.307" r="4.255" style="opacity:1;fill:#000;fill-opacity:1;stroke-width:1.43809"/><circle cx="198.779" cy="846.307" r="4.255" style="opacity:1;fill:#000;fill-opacity:1;stroke-width:1.43809"/><circle cx="-219.304" cy="846.307" r="4.255" style="opacity:1;fill:#000;fill-opacity:1;stroke-width:1.43809" transform="scale(-1 1)"/><circle cx="178.255" cy="869.272" r="5.185" style="opacity:1;fill:#000;fill-opacity:1;stroke-width:1.75236"/><circle cx="198.779" cy="869.272" r="5.185" style="opacity:1;fill:#000;fill-opacity:1;stroke-width:1.75236"/><circle cx="-219.304" cy="869.272" r="5.185" style="opacity:1;fill:#000;fill-opacity:1;stroke-width:1.75236" transform="scale(-1 1)"/><circle cx="178.255" cy="892.237" r="5.185" style="opacity:1;fill:#000;fill-opacity:1;stroke-width:1.75236"/><circle cx="198.779" cy="892.237" r="5.185" style="opacity:1;fill:#000;fill-opacity:1;stroke-width:1.75236"/><circle cx="-219.304" cy="892.237" r="5.185" style="opacity:1;fill:#000;fill-opacity:1;stroke-width:1.75236" transform="scale(-1 1)"/><circle cx="178.255" cy="915.202" r="4.255" style="opacity:1;fill:#000;fill-opacity:1;stroke-width:1.43809"/><circle cx="198.779" cy="915.202" r="4.255" style="opacity:1;fill:#000;fill-opacity:1;stroke-width:1.43809"/><circle cx="-219.304" cy="915.202" r="4.255" style="opacity:1;fill:#000;fill-opacity:1;stroke-width:1.43809" transform="scale(-1 1)"/><circle cx="178.255" cy="938.167" r="2.959" style="opacity:1;fill:#000;fill-opacity:1"/><circle cx="198.779" cy="938.167" r="2.959" style="opacity:1;fill:#000;fill-opacity:1"/><circle cx="-219.304" cy="938.167" r="2.959" style="opacity:1;fill:#000;fill-opacity:1" transform="scale(-1 1)"/></g><g style="fill:#000;fill-opacity:1" transform="translate(103.841 -51.461)scale(.73528)"><circle cx="198.779" cy="1045.658" r="33.092" style="font-variation-settings:normal;opacity:1;vector-effect:none;fill:#000;fill-opacity:1;fill-rule:evenodd;stroke-width:86.8216;stroke-linecap:butt;stroke-linejoin:miter;stroke-miterlimit:4;stroke-dasharray:none;stroke-dashoffset:0;stroke-opacity:1;-inkscape-stroke:none;stop-color:#000"/><circle cx="198.779" cy="1155.952" r="33.092" style="font-variation-settings:normal;opacity:1;vector-effect:none;fill:#000;fill-opacity:1;fill-rule:evenodd;stroke-width:86.8216;stroke-linecap:butt;stroke-linejoin:miter;stroke-miterlimit:4;stroke-dasharray:none;stroke-dashoffset:0;stroke-opacity:1;-inkscape-stroke:none;stop-color:#000"/></g><g style="fill:#000;fill-opacity:1"><path d="M165.675 1236.285h14.052v14.052h-14.052zm54.967 0h14.052v14.052h-14.052zm54.967 0h14.052v14.052h-14.052zm-164.901 0h14.052v14.052h-14.052z" style="opacity:1;fill:#000;fill-opacity:1" transform="translate(103.841 -51.461)scale(.73528)"/></g></svg>