<?xml version="1.0" encoding="UTF-8" standalone="no"?>
<svg
   width="1000"
   height="500"
   version="1.1"
   id="svg13"
   sodipodi:docname="joy-con-controller-dark-mode.svg"
   inkscape:version="1.4.2 (ebf0e940d0, 2025-05-08)"
   xmlns:inkscape="http://www.inkscape.org/namespaces/inkscape"
   xmlns:sodipodi="http://sodipodi.sourceforge.net/DTD/sodipodi-0.dtd"
   xmlns="http://www.w3.org/2000/svg"
   xmlns:svg="http://www.w3.org/2000/svg">
  <defs
     id="defs13" />
  <sodipodi:namedview
     id="namedview13"
     pagecolor="#ffffff"
     bordercolor="#000000"
     borderopacity="0.25"
     inkscape:showpageshadow="2"
     inkscape:pageopacity="0.0"
     inkscape:pagecheckerboard="0"
     inkscape:deskcolor="#d1d1d1"
     inkscape:zoom="0.96307944"
     inkscape:cx="417.93022"
     inkscape:cy="320.32664"
     inkscape:window-width="1536"
     inkscape:window-height="888"
     inkscape:window-x="0"
     inkscape:window-y="0"
     inkscape:window-maximized="1"
     inkscape:current-layer="svg13" />
  <path
     d="M592.28 32.206c10.028-.36 20.067.002 30.042 1.087l.032.003.031.004c.614.088 1.076.244 1.338.303l.006.002.006.001c9.275 2.164 22.256 5.187 35.162 13.475l.013.008.014.01a102.9 102.9 0 0 1 23.049 21.021l.008.01.005.006c4.36 5.294 7.8 10.424 10.083 14.599 1.143 2.089 1.996 3.932 2.535 5.5.54 1.566.975 2.75.44 4.301l-.004.013-.005.01c-.28.78-.747 1.136-1.132 1.408a6 6 0 0 1-1.127.618l-.036.016c3.937 10.259 6.111 21.414 6.144 33.078v248.775c-.143 50.417-40.292 91.328-89.864 91.475h-45.283c-3.86-.06-6.995-3.25-6.989-7.11v-39.816a5.47 5.47 0 0 1-1.554 2.985 5.5 5.5 0 0 1-3.913 1.613h-2.856a3.9 3.9 0 0 1-2.751-1.146 3.9 3.9 0 0 1-1.145-2.724V348.9l.463-.562a13.1 13.1 0 0 0 1.867-3.69c-1.108-.413-1.908-1.341-2.228-2.067-.424-.96-.431-1.831-.431-1.831l-.002-.036-.02-30.996v-.002c0-1.1.447-2.155 1.1-2.834a4.5 4.5 0 0 1 1.765-1.118l-.002-.215a47 47 0 0 0-.967-3.16l-.003-.008a28 28 0 0 0-1.287-2.993l-.256-.464v-120.78l.018-.127c.206-1.554.816-3.027 1.437-3.828s.881-1.254 1.033-1.683c-1.188-.38-2.048-1.358-2.384-2.118a5.1 5.1 0 0 1-.433-1.83l-.002-.035-.02-30.998v-.002c0-1.1.448-2.153 1.1-2.833.623-.648 1.34-.986 1.977-1.19a7 7 0 0 0-.157-.829 1.4 1.4 0 0 0-.064-.204v-.002a12 12 0 0 1-2.355-4.214l-.15-.31V63.535a4.65 4.65 0 0 1 1.405-3.33 4.66 4.66 0 0 1 3.31-1.375h7.504V43.311c-.005-3.859 3.13-7.047 6.989-7.107h15.622l.062-.821.03-.135c.184-.836.69-1.553 1.384-2.05.598-.484 1.309-.814 2.074-.905l.114-.014.118.002c3.029.006 6.069-.034 9.138-.076zm-10.954 1.457-.16.12c.03-.018.068-.02.096-.042.027-.02.038-.057.064-.078m-26.622 389.831-.006.003-.002.002-.002.002-.002.002-.003.008z"
     style="baseline-shift:baseline;display:inline;overflow:visible;vector-effect:none;fill:#dfdfe7;fill-opacity:1;stroke-width:.802684;stop-color:#000"
     id="path1" />
  <circle
     cx="589.334"
     cy="145.842"
     r="17.93"
     style="font-variation-settings:normal;vector-effect:none;fill:#000;fill-opacity:1;fill-rule:evenodd;stroke-width:35.8486;stroke-linecap:butt;stroke-linejoin:miter;stroke-miterlimit:4;stroke-dasharray:none;stroke-dashoffset:0;stroke-opacity:1;-inkscape-stroke:none;stop-color:#000"
     id="circle3" />
  <circle
     cx="-659.072"
     cy="145.842"
     r="17.93"
     style="font-variation-settings:normal;vector-effect:none;fill:#000;fill-opacity:1;fill-rule:evenodd;stroke-width:35.8486;stroke-linecap:butt;stroke-linejoin:miter;stroke-miterlimit:4;stroke-dasharray:none;stroke-dashoffset:0;stroke-opacity:1;-inkscape-stroke:none;stop-color:#000"
     transform="scale(-1 1)"
     id="circle4" />
  <circle
     cx="110.972"
     cy="-624.203"
     r="17.93"
     style="font-variation-settings:normal;vector-effect:none;fill:#000;fill-opacity:1;fill-rule:evenodd;stroke-width:35.8486;stroke-linecap:butt;stroke-linejoin:miter;stroke-miterlimit:4;stroke-dasharray:none;stroke-dashoffset:0;stroke-opacity:1;-inkscape-stroke:none;stop-color:#000"
     transform="rotate(90)"
     id="circle5" />
  <circle
     cx="-180.71"
     cy="-624.203"
     r="17.93"
     style="font-variation-settings:normal;vector-effect:none;fill:#000;fill-opacity:1;fill-rule:evenodd;stroke-width:35.8486;stroke-linecap:butt;stroke-linejoin:miter;stroke-miterlimit:4;stroke-dasharray:none;stroke-dashoffset:0;stroke-opacity:1;-inkscape-stroke:none;stop-color:#000"
     transform="scale(1 -1)rotate(90)"
     id="circle6" />
  <path
     d="M407.72 32.206a209 209 0 0 0-30.042 1.087l-.032.003-.031.004c-.614.088-1.076.244-1.338.303l-.006.002-.006.001c-9.275 2.164-22.256 5.187-35.162 13.475l-.013.008-.014.01a102.9 102.9 0 0 0-23.049 21.021l-.008.01-.005.006c-4.36 5.294-7.8 10.424-10.083 14.599-1.143 2.089-1.996 3.932-2.535 5.5-.54 1.566-.975 2.75-.44 4.301l.004.013.005.01c.28.78.747 1.136 1.132 1.408a6 6 0 0 0 1.127.618l.036.016c-3.937 10.259-6.111 21.414-6.144 33.078v248.775c.143 50.417 40.292 91.328 89.864 91.475h45.283c3.86-.06 6.995-3.25 6.989-7.11v-39.816a5.47 5.47 0 0 0 1.554 2.985 5.5 5.5 0 0 0 3.913 1.613h2.856a3.9 3.9 0 0 0 2.751-1.146 3.9 3.9 0 0 0 1.145-2.724V348.9l-.463-.562a13.1 13.1 0 0 1-1.867-3.69c1.108-.413 1.908-1.341 2.228-2.067.424-.96.431-1.831.431-1.831l.002-.036.02-30.996v-.002c0-1.1-.447-2.155-1.1-2.834a4.5 4.5 0 0 0-1.765-1.118l.002-.215c.303-1.106.619-2.168.967-3.16l.003-.008q.556-1.534 1.287-2.993l.256-.464v-120.78l-.018-.127c-.207-1.554-.816-3.027-1.437-3.828s-.881-1.254-1.033-1.683c1.188-.38 2.048-1.358 2.384-2.118.425-.96.433-1.83.433-1.83l.002-.035.02-30.998v-.002c0-1.1-.448-2.153-1.1-2.833-.623-.648-1.341-.986-1.977-1.19a7 7 0 0 1 .157-.829c.038-.144.058-.193.064-.204v-.002a12 12 0 0 0 2.355-4.214l.15-.31V63.535a4.65 4.65 0 0 0-1.405-3.33 4.66 4.66 0 0 0-3.31-1.375h-7.504V43.311c.005-3.859-3.13-7.047-6.989-7.107h-15.622l-.062-.821-.03-.135c-.184-.836-.69-1.553-1.384-2.05-.598-.484-1.31-.814-2.074-.905l-.115-.014-.117.002c-3.029.006-6.069-.034-9.139-.076zm10.954 1.457.16.12c-.03-.018-.068-.02-.096-.042-.027-.02-.038-.057-.064-.078m26.622 389.831.006.003.002.002.002.002.002.002.003.008z"
     style="baseline-shift:baseline;display:inline;overflow:visible;vector-effect:none;fill:#dfdfe7;fill-opacity:1;stroke-width:.802684;stop-color:#000"
     id="path6" />
  <circle
     cx="342.257"
     cy="265.259"
     r="17.93"
     style="font-variation-settings:normal;vector-effect:none;fill:#000;fill-opacity:1;fill-rule:evenodd;stroke-width:35.8486;stroke-linecap:butt;stroke-linejoin:miter;stroke-miterlimit:4;stroke-dasharray:none;stroke-dashoffset:0;stroke-opacity:1;-inkscape-stroke:none;stop-color:#000"
     id="circle7" />
  <circle
     cx="-411.995"
     cy="265.259"
     r="17.93"
     style="font-variation-settings:normal;vector-effect:none;fill:#000;fill-opacity:1;fill-rule:evenodd;stroke-width:35.8486;stroke-linecap:butt;stroke-linejoin:miter;stroke-miterlimit:4;stroke-dasharray:none;stroke-dashoffset:0;stroke-opacity:1;-inkscape-stroke:none;stop-color:#000"
     transform="scale(-1 1)"
     id="circle8" />
  <circle
     cx="230.389"
     cy="-377.126"
     r="17.93"
     style="font-variation-settings:normal;vector-effect:none;fill:#000;fill-opacity:1;fill-rule:evenodd;stroke-width:35.8486;stroke-linecap:butt;stroke-linejoin:miter;stroke-miterlimit:4;stroke-dasharray:none;stroke-dashoffset:0;stroke-opacity:1;-inkscape-stroke:none;stop-color:#000"
     transform="rotate(90)"
     id="circle9" />
  <circle
     cx="-300.127"
     cy="-377.126"
     r="17.93"
     style="font-variation-settings:normal;vector-effect:none;fill:#000;fill-opacity:1;fill-rule:evenodd;stroke-width:35.8486;stroke-linecap:butt;stroke-linejoin:miter;stroke-miterlimit:4;stroke-dasharray:none;stroke-dashoffset:0;stroke-opacity:1;-inkscape-stroke:none;stop-color:#000"
     transform="scale(1 -1)rotate(90)"
     id="circle10" />
  <g
     style="fill:#000;fill-opacity:1"
     id="g11">
    <path
       d="M 704.621,563 C 680,563 660,583 660,607.621 c 0,24.621 20,44.621 44.62,44.621 24.622,0 44.622,-20 44.622,-44.62 0,-24.622 -20,-44.622 -44.621,-44.622"
       style="baseline-shift:baseline;display:inline;overflow:visible;vector-effect:none;fill:#000000;fill-opacity:1;stop-color:#000000"
       transform="matrix(0.77614,0,0,0.77614,77.521,-207.507)"
       id="path11"
       sodipodi:nodetypes="csssc" />
  </g>
  <g
     style="fill:#000;fill-opacity:1"
     id="g13">
    <path
       d="M 704.621,563 C 680,563 660,583 660,607.621 c 0,24.621 20,44.621 44.62,44.621 24.622,0 44.622,-20 44.622,-44.62 0,-24.622 -20,-44.622 -44.621,-44.622"
       style="baseline-shift:baseline;display:inline;overflow:visible;vector-effect:none;fill:#000000;fill-opacity:1;stop-color:#000000"
       transform="matrix(0.77614,0,0,0.77614,-170.317,-324.318)"
       id="path13"
       sodipodi:nodetypes="csssc" />
  </g>
</svg>
