<svg xmlns="http://www.w3.org/2000/svg" xml:space="preserve" width="1000" height="500"><path d="M356.384 32.234c-18.84.924-37.743 5.63-53.615 9.992-31.592 8.682-45.027 37.442-45.852 39.26a134 134 0 0 0-17.502 10.535l-.018.013-.019.013c-1.807 1.356-3.052 3.626-4.46 6.72-5.234 11.502-10.889 35.334-12.587 42.538-32.993 139.972-39.164 253.953-39.172 254.14-.704 18.266 6.26 36.203 17.438 49.684 11.176 13.482 26.64 22.579 43.057 22.795 16.603.22 31.12-11.023 43.771-27.606 12.651-16.582 23.607-38.69 33.139-61.112 9.402-22.118 19.118-32.455 26.282-37.284 3.582-2.414 6.534-3.46 8.55-3.92 74.11-.595 214.723-.598 289.208 0 2.016.46 4.968 1.506 8.55 3.92 7.163 4.829 16.88 15.166 26.282 37.284 9.532 22.422 20.488 44.53 33.139 61.112s27.168 27.825 43.771 27.606c16.417-.216 31.88-9.313 43.057-22.795 11.177-13.481 18.142-31.418 17.438-49.684-.008-.187-6.18-114.168-39.172-254.14-1.699-7.204-7.353-31.036-12.588-42.538-1.408-3.094-2.652-5.364-4.46-6.72l-.018-.013-.018-.013a134 134 0 0 0-17.502-10.535c-.825-1.818-14.26-30.578-45.853-39.26-15.872-4.362-34.775-9.068-53.614-9.992-18.625-.914-37.176 1.9-52.68 12.366-48.175-.268-124.162-.322-181.873 0-15.503-10.466-34.054-13.28-52.68-12.366z" style="baseline-shift:baseline;display:inline;overflow:visible;vector-effect:none;fill:#dfdfe7;stroke-width:.942348;stop-color:#000;fill-opacity:1"/><path d="M444.572 144.156a4.13 4.13 0 0 0-2.884 1.205l-.01.008-.008.01a4.1 4.1 0 0 0-1.168 2.903v23.062a4.1 4.1 0 0 0 1.167 2.9l.01.013.013.01a4.13 4.13 0 0 0 2.88 1.199h23.522a4.1 4.1 0 0 0 2.885-1.197 4.03 4.03 0 0 0 1.221-2.932v-23.051a4.03 4.03 0 0 0-1.22-2.928 4.1 4.1 0 0 0-2.886-1.201H444.58z" style="baseline-shift:baseline;display:inline;overflow:visible;vector-effect:none;fill:#000;fill-opacity:1;stroke-width:.846119;stop-color:#000"/><g style="fill:#000"><path d="M710.106 623.472c-11.003 0-19.938 8.935-19.938 19.939s8.934 19.939 19.938 19.939 19.939-8.936 19.939-19.94c0-11.003-8.935-19.938-19.94-19.938m0 1.391c10.252 0 18.548 8.296 18.548 18.548 0 10.25-8.296 18.547-18.547 18.547s-18.546-8.296-18.546-18.547 8.294-18.548 18.546-18.548" style="baseline-shift:baseline;display:inline;overflow:visible;vector-effect:none;fill:#000;fill-opacity:1;stroke-width:.69595;stop-color:#000" transform="translate(-333.358 -584.55)scale(1.2931)"/><path d="M709.633 609C690.522 609 675 624.522 675 643.632s15.523 34.632 34.633 34.632 34.63-15.522 34.63-34.632S728.744 609 709.634 609m0 4.176c16.837 0 30.455 13.62 30.455 30.456s-13.618 30.456-30.455 30.456c-16.835 0-30.457-13.62-30.457-30.456 0-16.837 13.62-30.456 30.458-30.456" style="baseline-shift:baseline;display:inline;overflow:visible;vector-effect:none;fill:#000;fill-opacity:1;stroke:none;stroke-width:2.7838;stroke-opacity:1;stop-color:#000" transform="translate(-333.358 -584.55)scale(1.2931)"/></g><g style="fill:#000"><path d="M710.106 623.472c-11.003 0-19.938 8.935-19.938 19.939s8.934 19.939 19.938 19.939 19.939-8.936 19.939-19.94c0-11.003-8.935-19.938-19.94-19.938m0 1.391c10.252 0 18.548 8.296 18.548 18.548 0 10.25-8.296 18.547-18.547 18.547s-18.546-8.296-18.546-18.547 8.294-18.548 18.546-18.548" style="baseline-shift:baseline;display:inline;overflow:visible;vector-effect:none;fill:#000;fill-opacity:1;stroke-width:.69595;stop-color:#000" transform="translate(-590.858 -672.715)scale(1.2931)"/><path d="M709.633 609C690.522 609 675 624.522 675 643.632s15.523 34.632 34.633 34.632 34.63-15.522 34.63-34.632S728.744 609 709.634 609m0 4.176c16.837 0 30.455 13.62 30.455 30.456s-13.618 30.456-30.455 30.456c-16.835 0-30.457-13.62-30.457-30.456 0-16.837 13.62-30.456 30.458-30.456" style="baseline-shift:baseline;display:inline;overflow:visible;vector-effect:none;fill:#000;fill-opacity:1;stroke:none;stroke-width:2.7838;stroke-opacity:1;stop-color:#000" transform="translate(-590.858 -672.715)scale(1.2931)"/></g><path d="M406.022 200.526a7.425 7.425 0 0 0-7.444 7.445v19.974a2.623 2.623 0 0 1-2.623 2.624H375.98a7.425 7.425 0 0 0-7.444 7.443v19.432a7.425 7.425 0 0 0 7.444 7.443h19.973a2.623 2.623 0 0 1 2.623 2.624v19.972a7.425 7.425 0 0 0 7.445 7.445h19.433a7.425 7.425 0 0 0 7.442-7.445v-19.972a2.623 2.623 0 0 1 2.623-2.624h19.976a7.425 7.425 0 0 0 7.442-7.443v-19.432a7.425 7.425 0 0 0-7.442-7.443h-19.977a2.623 2.623 0 0 1-2.624-2.624v-19.974a7.425 7.425 0 0 0-7.44-7.443z" style="fill:#000;fill-opacity:1;fill-rule:evenodd;stroke:none;stroke-width:3.15677;stroke-miterlimit:7;paint-order:stroke markers fill"/><g style="fill:#000" transform="translate(-767.944 -220.588)scale(1.26794)"><circle cx="1096.93" cy="299.799" r="17.93" style="font-variation-settings:normal;vector-effect:none;fill:#000;fill-opacity:1;fill-rule:evenodd;stroke-width:35.8485;stroke-linecap:butt;stroke-linejoin:miter;stroke-miterlimit:4;stroke-dasharray:none;stroke-dashoffset:0;stroke-opacity:1;-inkscape-stroke:none;stop-color:#000"/><circle cx="-1166.668" cy="299.799" r="17.93" style="font-variation-settings:normal;vector-effect:none;fill:#000;fill-opacity:1;fill-rule:evenodd;stroke-width:35.8485;stroke-linecap:butt;stroke-linejoin:miter;stroke-miterlimit:4;stroke-dasharray:none;stroke-dashoffset:0;stroke-opacity:1;-inkscape-stroke:none;stop-color:#000" transform="scale(-1 1)"/><circle cx="264.93" cy="-1131.799" r="17.93" style="font-variation-settings:normal;vector-effect:none;fill:#000;fill-opacity:1;fill-rule:evenodd;stroke-width:35.8485;stroke-linecap:butt;stroke-linejoin:miter;stroke-miterlimit:4;stroke-dasharray:none;stroke-dashoffset:0;stroke-opacity:1;-inkscape-stroke:none;stop-color:#000" transform="rotate(90)"/><circle cx="-334.668" cy="-1131.799" r="17.93" style="font-variation-settings:normal;vector-effect:none;fill:#000;fill-opacity:1;fill-rule:evenodd;stroke-width:35.8485;stroke-linecap:butt;stroke-linejoin:miter;stroke-miterlimit:4;stroke-dasharray:none;stroke-dashoffset:0;stroke-opacity:1;-inkscape-stroke:none;stop-color:#000" transform="scale(1 -1)rotate(90)"/></g><path d="M543.435 144.156c-8.509.003-15.44 7.03-15.44 15.655s6.931 15.653 15.44 15.655h.422c8.512.002 15.447-7.026 15.448-15.654 0-8.628-6.936-15.657-15.448-15.656zM422.108 96.682c-8.51.003-15.441 7.03-15.441 15.655s6.932 15.653 15.441 15.656h.422c8.512.002 15.447-7.027 15.447-15.654 0-8.629-6.935-15.658-15.447-15.657zm155.784 0c8.51.003 15.441 7.03 15.441 15.655s-6.932 15.653-15.441 15.656h-.422c-8.512.002-15.447-7.027-15.447-15.654 0-8.629 6.935-15.658 15.447-15.657z" style="baseline-shift:baseline;display:inline;overflow:visible;vector-effect:none;fill:#000;fill-opacity:1;stroke-width:.654673;stop-color:#000"/></svg>