<svg xmlns="http://www.w3.org/2000/svg" xmlns:xlink="http://www.w3.org/1999/xlink" width="3000" height="3600"><defs><linearGradient id="p"><stop offset="0" style="stop-color:#fac784;stop-opacity:.28451198"/><stop offset="1" style="stop-color:#fac784;stop-opacity:0"/></linearGradient><linearGradient id="o"><stop offset="0" style="stop-color:#ef6d01;stop-opacity:.32156864"/><stop offset="1" style="stop-color:#fdcd64;stop-opacity:0"/></linearGradient><linearGradient id="n"><stop offset="0" style="stop-color:#fdcd64;stop-opacity:1"/><stop offset="1" style="stop-color:#fdcd64;stop-opacity:0"/></linearGradient><linearGradient id="m"><stop offset="0" style="stop-color:#fda003;stop-opacity:1"/><stop offset="1" style="stop-color:#fda003;stop-opacity:0"/></linearGradient><linearGradient id="l"><stop offset="0" style="stop-color:#f7f1f4;stop-opacity:1"/><stop offset="1" style="stop-color:#e8d8df;stop-opacity:1"/></linearGradient><linearGradient id="k"><stop offset="0" style="stop-color:#f7f1f4;stop-opacity:1"/><stop offset="1" style="stop-color:#e8d8df;stop-opacity:1"/></linearGradient><linearGradient id="j"><stop offset="0" style="stop-color:#f7f1f4;stop-opacity:1"/><stop offset="1" style="stop-color:#e8d8df;stop-opacity:1"/></linearGradient><linearGradient id="i"><stop offset="0" style="stop-color:#ff889b;stop-opacity:1"/><stop offset="1" style="stop-color:#ffaab8;stop-opacity:1"/></linearGradient><linearGradient id="h"><stop offset="0" style="stop-color:#f7705b;stop-opacity:1"/><stop offset="1" style="stop-color:#f65840;stop-opacity:1"/></linearGradient><linearGradient id="g"><stop offset="0" style="stop-color:#f4f4f8;stop-opacity:1"/><stop offset="1" style="stop-color:#ededf3;stop-opacity:1"/></linearGradient><linearGradient id="f"><stop offset="0" style="stop-color:#fee58a;stop-opacity:1"/><stop offset="1" style="stop-color:#fedd69;stop-opacity:1"/></linearGradient><linearGradient id="e"><stop offset="0" style="stop-color:#fde796;stop-opacity:1"/><stop offset="1" style="stop-color:#fddc68;stop-opacity:1"/></linearGradient><linearGradient id="d"><stop offset="0" style="stop-color:#ef6d01;stop-opacity:.32134896"/><stop offset="1" style="stop-color:#ef6d01;stop-opacity:0"/></linearGradient><linearGradient id="c"><stop offset="0" style="stop-color:#f89408;stop-opacity:1"/><stop offset=".332" style="stop-color:#fda003;stop-opacity:1"/><stop offset="1" style="stop-color:#fda003;stop-opacity:1"/></linearGradient><linearGradient id="b"><stop offset="0" style="stop-color:#fdd285;stop-opacity:1"/><stop offset="1" style="stop-color:#fdd285;stop-opacity:0"/></linearGradient><linearGradient id="a"><stop offset="0" style="stop-color:#fda003;stop-opacity:1"/><stop offset=".5" style="stop-color:#fda818;stop-opacity:1"/><stop offset="1" style="stop-color:#fdc563;stop-opacity:1"/></linearGradient><linearGradient xlink:href="#a" id="t" x1="874.472" x2="1019.876" y1="302.662" y2="140.585" gradientUnits="userSpaceOnUse"/><linearGradient xlink:href="#b" id="u" x1="1061.573" x2="934.538" y1="91.343" y2="215.952" gradientUnits="userSpaceOnUse"/><linearGradient xlink:href="#c" id="q" x1="574.781" x2="600" y1="-95.975" y2="1153.463" gradientUnits="userSpaceOnUse"/><linearGradient xlink:href="#d" id="s" x1="600" x2="599.764" y1="179.945" y2="255.422" gradientUnits="userSpaceOnUse"/><linearGradient xlink:href="#a" id="v" x1="874.472" x2="1019.876" y1="302.662" y2="140.585" gradientTransform="matrix(-1 0 0 1 1200 0)" gradientUnits="userSpaceOnUse"/><linearGradient xlink:href="#b" id="w" x1="1061.573" x2="934.538" y1="91.343" y2="215.952" gradientTransform="matrix(-1 0 0 1 1200 0)" gradientUnits="userSpaceOnUse"/><linearGradient xlink:href="#e" id="y" x1="561.864" x2="628.583" y1="238.718" y2="489.662" gradientTransform="translate(-3.097)" gradientUnits="userSpaceOnUse"/><linearGradient xlink:href="#f" id="x" x1="607.438" x2="607.438" y1="1619.498" y2="1909.754" gradientUnits="userSpaceOnUse"/><linearGradient xlink:href="#g" id="z" x1="721.868" x2="734.148" y1="428.361" y2="459.481" gradientUnits="userSpaceOnUse"/><linearGradient xlink:href="#g" id="A" x1="721.868" x2="734.148" y1="428.361" y2="459.481" gradientUnits="userSpaceOnUse"/><linearGradient xlink:href="#h" id="B" x1="606.736" x2="607.742" y1="1750.006" y2="1799.971" gradientUnits="userSpaceOnUse"/><linearGradient xlink:href="#i" id="C" x1="597.968" x2="600" y1="656.417" y2="563.387" gradientUnits="userSpaceOnUse"/><linearGradient xlink:href="#j" id="G" x1="727.169" x2="749.993" y1="871.296" y2="875.89" gradientUnits="userSpaceOnUse"/><linearGradient xlink:href="#k" id="F" x1="749.783" x2="793.056" y1="932.408" y2="914.123" gradientUnits="userSpaceOnUse"/><linearGradient xlink:href="#l" id="E" x1="818.388" x2="812.111" y1="954.22" y2="924.643" gradientUnits="userSpaceOnUse"/><linearGradient xlink:href="#m" id="H" x1="793.056" x2="928.15" y1="893.009" y2="750.543" gradientUnits="userSpaceOnUse"/><linearGradient xlink:href="#n" id="I" x1="777.696" x2="823.441" y1="915.112" y2="855.819" gradientUnits="userSpaceOnUse"/><linearGradient xlink:href="#l" id="J" x1="818.388" x2="812.111" y1="954.22" y2="924.643" gradientUnits="userSpaceOnUse"/><linearGradient xlink:href="#k" id="K" x1="749.783" x2="793.056" y1="932.408" y2="914.123" gradientUnits="userSpaceOnUse"/><linearGradient xlink:href="#j" id="L" x1="727.169" x2="749.993" y1="871.296" y2="875.89" gradientUnits="userSpaceOnUse"/><linearGradient xlink:href="#m" id="M" x1="793.056" x2="928.15" y1="893.009" y2="750.543" gradientUnits="userSpaceOnUse"/><linearGradient xlink:href="#n" id="N" x1="777.696" x2="823.441" y1="915.112" y2="855.819" gradientUnits="userSpaceOnUse"/><linearGradient xlink:href="#o" id="D" x1="600" x2="603.406" y1="1153.463" y2="888.169" gradientUnits="userSpaceOnUse"/><radialGradient xlink:href="#p" id="r" cx="600" cy="777.797" r="214.411" fx="600" fy="777.797" gradientTransform="translate(0 92.976)" gradientUnits="userSpaceOnUse"/></defs><g transform="translate(311.09 615.565)scale(1.98152)"><path d="M600 179.945C362.304 186.88 130.169 421.327 160.91 837.5c3.358 146.047 91.108 252.417 219.59 290.158 59.533 17.438 139.656 26.037 219.5 25.805 79.844.232 159.967-8.367 219.5-25.805 128.482-37.741 216.232-144.11 219.59-290.158C1069.83 421.327 837.696 186.88 600 179.945" style="fill:url(#q);fill-opacity:1"/><circle cx="600" cy="870.773" r="214.411" style="opacity:1;mix-blend-mode:overlay;fill:url(#r);stroke:none;stroke-width:2.80315;stroke-linecap:round;stroke-linejoin:round;stroke-dasharray:none;stroke-opacity:1"/><path d="M464.604 209.154c-81.726 33.716-156.212 96.044-211.282 184.817 106.884-4.39 190.864-95.335 211.282-184.817" style="fill:#f99002;fill-opacity:1"/><path d="M600 179.945c-83.275 2.43-165.87 32.785-236.715 89.096a283.23 175.046 0 0 0 164.356 32.486 283.23 175.046 0 0 0 236.808-79.02c-52.23-26.53-108.183-40.92-164.449-42.562" style="opacity:1;fill:url(#s);fill-opacity:.321349;stroke-width:1.7;stroke-linecap:round;stroke-linejoin:round"/><path d="M735.396 209.154c81.726 33.716 156.212 96.044 211.282 184.817-106.884-4.39-190.864-95.335-211.282-184.817" style="fill:#f99002;fill-opacity:1"/><path d="M789.34 236.244c15.035 80.957 83.288 165.274 174.482 187.404-44.793-83.397-105.748-146.362-174.482-187.404" style="fill:#ea6503;fill-opacity:.27303"/><path d="M880.594 42.107c-256.752 23.764-126.312 363.868 86.166 359.69 37.08 1.339 167.13-24.494 125.96-200.797-19.24-77.529-110.774-162.164-212.126-158.893" style="fill:url(#t);fill-opacity:1"/><path d="M880.594 42.107c-21.508 1.991-40.298 6.2-56.551 12.243a204.1 204.1 0 0 0-13.172 72.13 204.07 204.07 0 0 0 204.07 204.07 204.1 204.1 0 0 0 78.387-15.655c9.087-28.292 10.717-65.401-.607-113.895-19.242-77.529-110.775-162.164-212.127-158.893" style="opacity:.3;mix-blend-mode:overlay;fill:url(#u);stroke-width:2.20487;stroke-linecap:round;stroke-linejoin:round"/><path d="M924.3 199.21c-71.082-3.023-74.8 83.879-17.3 101.517 24.144 7.406 43.187-4.604 52.064-22.832s7.59-42.676-8.925-60.145c-1.95-2.062-2.838-3.75-2.838-3.75s16.418 8.454 22.316 12.606c3.365 2.367 8.765 6.572 12 9.341 3.236 2.77 6.206 5.043 6.6 5.043 1.096.014-17.204-38.096-63.916-41.78" style="fill:#020101;fill-opacity:1"/><path d="M410.66 236.244c-15.035 80.957-83.288 165.274-174.482 187.404 44.793-83.397 105.748-146.362 174.482-187.404" style="fill:#ea6503;fill-opacity:.27303"/><path d="M319.406 42.107c256.752 23.764 126.312 363.868-86.166 359.69C196.16 403.136 66.11 377.303 107.28 201c19.24-77.529 110.774-162.164 212.126-158.893" style="fill:url(#v);fill-opacity:1"/><path d="M319.406 42.107c21.508 1.991 40.298 6.2 56.551 12.243a204.1 204.1 0 0 1 13.172 72.13 204.07 204.07 0 0 1-204.07 204.07 204.1 204.1 0 0 1-78.387-15.655c-9.086-28.292-10.717-65.401.607-113.895 19.242-77.529 110.775-162.164 212.127-158.893" style="opacity:.3;mix-blend-mode:overlay;fill:url(#w);stroke-width:2.20487;stroke-linecap:round;stroke-linejoin:round"/><path d="M275.7 199.21c71.082-3.023 74.8 83.879 17.3 101.517-24.144 7.406-43.187-4.604-52.064-22.832s-7.59-42.676 8.925-60.145c1.95-2.062 2.838-3.75 2.838-3.75s-16.418 8.454-22.316 12.606c-3.365 2.367-8.765 6.572-12 9.341-3.236 2.77-6.206 5.043-6.6 5.043-1.096.014 17.204-38.096 63.916-41.78" style="fill:#020101;fill-opacity:1"/><path d="M449.543 1684.2c-37.104 30.515-66.75 86.609-34.365 148.84 23.586 45.32 90.447 77.44 192.26 76.714 101.812.726 168.673-31.393 192.26-76.715 32.385-62.23 2.738-118.324-34.366-148.84-78.11-64.24-237.679-64.24-315.789 0" style="display:inline;fill:url(#x);fill-opacity:1;stroke-width:1.7;stroke-linecap:round;stroke-linejoin:round" transform="translate(-7.438 -1200)"/><path d="M676.798 279.65c13.112 5.682 22.727 12.85 32.343 20.018-7.343-9.79-14.685-19.58-23.951-29.021-89.554-91.243-226.842-5.353-210.577 98.864 17.483 112.022 183.642 174.898 238.505 57.473 6.075-13.418 9.834-25.918 11.713-33.26 1.88-7.343 1.88-9.528 1.88-11.714-4.633 7.78-9.266 15.56-16.39 23.077-49.068 51.777-126.23 21.822-144.318-38.024-14.344-47.456 27.474-123.519 110.795-87.413" style="fill:url(#y);stroke-width:1.7;stroke-linecap:round;stroke-linejoin:round"/><ellipse cx="600" cy="479.151" rx="35.853" ry="24.259" style="fill:#6b6160;fill-opacity:1;stroke-width:2.44318;stroke-linecap:round;stroke-linejoin:round"/><g transform="matrix(-1 0 0 1 1207.438 0)"><path d="M724.404 420.195c-27.275.832-41.379 29.878-37.402 49.436 9.006 44.291 66.147 47.414 80.135 15.793 13.275-30.011-10.573-66.21-42.733-65.229" style="fill:#1d1913;fill-opacity:1"/><ellipse cx="728.389" cy="445.178" rx="17.463" ry="18.129" style="opacity:1;fill:url(#z);stroke-width:2.197;stroke-linecap:round;stroke-linejoin:round"/></g><g transform="translate(-7.438)"><path d="M724.404 420.195c-27.275.832-41.379 29.878-37.402 49.436 9.006 44.291 66.147 47.414 80.135 15.793 13.275-30.011-10.573-66.21-42.733-65.229" style="fill:#1d1913;fill-opacity:1"/><ellipse cx="728.389" cy="445.178" rx="17.463" ry="18.129" style="opacity:1;fill:url(#A);stroke-width:2.197;stroke-linecap:round;stroke-linejoin:round"/></g><path d="M556.043 1744.93c-4.008 62.795 25.186 110.187 50.824 110.187s54.833-47.389 50.824-110.187z" style="display:inline;fill:url(#B);fill-opacity:1;stroke-width:1.7;stroke-linecap:round;stroke-linejoin:round" transform="matrix(1.02338 .0206 -.0206 1.02338 15.137 -1254.57)"/><path d="M600 563.387a56.381 52.448 0 0 0-49.39 27.152c7.598 39.18 28.19 65.493 47.359 65.879 19.684.396 41.97-26.467 50.685-67.086A56.381 52.448 0 0 0 600 563.387" style="fill:url(#C);fill-opacity:1;stroke-width:1.7626;stroke-linecap:round;stroke-linejoin:round"/><path d="M600 709.754a441.84 269.624 0 0 0-428.814 204.639c26.989 106.207 104.631 182.515 209.314 213.265 59.533 17.438 139.656 26.037 219.5 25.805 79.844.232 159.967-8.367 219.5-25.805 104.683-30.75 182.325-107.058 209.315-213.265A441.84 269.624 0 0 0 600 709.753" style="opacity:1;fill:url(#D);fill-opacity:1;stroke:none;stroke-width:3.28547;stroke-linecap:round;stroke-linejoin:round;stroke-dasharray:none;stroke-opacity:1"/><path d="M906.688 857.458c-1.55 2.666-2.443 5.015-3.667 6.525-5.944 7.15-16.257 17.875-29.28 28.869-50.645 40.419-100.625 29.841-112.754-11.114q-1.144-.032-2.289-.072c8.667 76.58 112.558 54.094 148.778-25.847z" style="fill:#f99002;fill-opacity:1;stroke:none;stroke-width:3.77953;stroke-linecap:round;stroke-linejoin:round;stroke-dasharray:none;stroke-opacity:1" transform="rotate(3.34 827.538 813.77)"/><path d="M792.987 923.514s6.766 2.139 15.388 1.537c8.479-.235 32.848-8.338 32.882-8.426-5.744 10.52-11.447 20.985-16.219 31.99-2.17 5.026-2.938 7.716-6.65 5.605-11.014-8.148-16.974-19.962-25.401-30.706" style="fill:url(#E);fill-opacity:1;stroke:none;stroke-width:3.77953;stroke-linecap:round;stroke-linejoin:round;stroke-dasharray:none;stroke-opacity:1" transform="rotate(3.34 827.538 813.77)"/><path d="M755.766 893.01s2.912 6.471 9.103 12.5c5.823 6.169 28.1 18.947 28.187 18.914-11.672 2.722-23.275 5.44-34.663 9.211-5.194 1.73-7.712 2.948-8.61-1.227-1.26-13.641 3.583-25.957 5.983-39.399" style="fill:url(#F);fill-opacity:1;stroke:none;stroke-width:3.77953;stroke-linecap:round;stroke-linejoin:round;stroke-dasharray:none;stroke-opacity:1" transform="rotate(3.34 827.538 813.77)"/><path d="M753.588 842.513s-1.73 10.013-1.144 18.635c.588 8.623 2.627 20.861 4.667 33.1-2.534-2.35-5.068-4.698-10.013-7.665s-12.3-6.552-17.322-8.73c-5.023-2.18-7.711-2.952-5.594-6.66 8.166-11 18.648-20.272 29.406-28.68" style="fill:url(#G);fill-opacity:1;stroke:none;stroke-width:3.77953;stroke-linecap:round;stroke-linejoin:round;stroke-dasharray:none;stroke-opacity:1" transform="rotate(3.34 827.538 813.77)"/><path d="M896.67 869.507c-5.943 7.15-16.257 17.876-29.28 28.87-65.117 51.968-129.132 19.632-113.01-53.18 12.801-56.188 41.564-105.303 82.332-146.133 9.964-10.994 15.907-17.786 21.85-24.58l40.403 25.7c20.45 20.867 28.821 42.408 32.344 65.671 3.524 23.263-23.523 89.95-34.639 103.652" style="fill:url(#H);fill-opacity:1;stroke:none;stroke-width:3.77953;stroke-linecap:round;stroke-linejoin:round;stroke-dasharray:none;stroke-opacity:1" transform="rotate(3.34 827.538 813.77)"/><path d="M802.72 804.375a66.35 66.35 0 0 0-40.884 14.092 288 288 0 0 0-7.457 26.73c-15.534 70.16 43.337 102.739 105.904 58.524a66.35 66.35 0 0 0 8.787-32.996 66.35 66.35 0 0 0-66.35-66.35" style="opacity:1;fill:url(#I);fill-opacity:1;stroke:none;stroke-width:3.77953;stroke-linecap:round;stroke-linejoin:round;stroke-dasharray:none;stroke-opacity:1" transform="rotate(3.34 827.538 813.77)"/><path d="M858.563 674.485c-5.944 6.793-11.887 13.585-21.85 24.579-40.769 40.83-69.532 89.945-82.333 146.133-16.122 72.812 47.893 105.148 113.01 53.18 13.023-10.994 23.337-21.72 29.28-28.87s7.517-10.725 9.09-14.3" style="fill:none;fill-opacity:1;stroke:#c95909;stroke-width:3.77953;stroke-linecap:round;stroke-linejoin:round;stroke-dasharray:none;stroke-opacity:1" transform="rotate(3.34 827.538 813.77)"/><path d="M906.688 857.458c-1.55 2.666-2.443 5.015-3.667 6.525-5.944 7.15-16.257 17.875-29.28 28.869-50.645 40.419-100.625 29.841-112.754-11.114q-1.144-.032-2.289-.072c8.667 76.58 112.558 54.094 148.778-25.847z" style="fill:#f99002;fill-opacity:1;stroke:none;stroke-width:3.77953;stroke-linecap:round;stroke-linejoin:round;stroke-dasharray:none;stroke-opacity:1" transform="scale(-1 1)rotate(3.339 227.538 -19768.873)"/><path d="M792.987 923.514s6.766 2.139 15.388 1.537c8.479-.235 32.848-8.338 32.882-8.426-5.744 10.52-11.447 20.985-16.219 31.99-2.17 5.026-2.938 7.716-6.65 5.605-11.014-8.148-16.974-19.962-25.401-30.706" style="fill:url(#J);fill-opacity:1;stroke:none;stroke-width:3.77953;stroke-linecap:round;stroke-linejoin:round;stroke-dasharray:none;stroke-opacity:1" transform="scale(-1 1)rotate(3.339 227.538 -19768.873)"/><path d="M755.766 893.01s2.912 6.471 9.103 12.5c5.823 6.169 28.1 18.947 28.187 18.914-11.672 2.722-23.275 5.44-34.663 9.211-5.194 1.73-7.712 2.948-8.61-1.227-1.26-13.641 3.583-25.957 5.983-39.399" style="fill:url(#K);fill-opacity:1;stroke:none;stroke-width:3.77953;stroke-linecap:round;stroke-linejoin:round;stroke-dasharray:none;stroke-opacity:1" transform="scale(-1 1)rotate(3.339 227.538 -19768.873)"/><path d="M753.588 842.513s-1.73 10.013-1.144 18.635c.588 8.623 2.627 20.861 4.667 33.1-2.534-2.35-5.068-4.698-10.013-7.665s-12.3-6.552-17.322-8.73c-5.023-2.18-7.711-2.952-5.594-6.66 8.166-11 18.648-20.272 29.406-28.68" style="fill:url(#L);fill-opacity:1;stroke:none;stroke-width:3.77953;stroke-linecap:round;stroke-linejoin:round;stroke-dasharray:none;stroke-opacity:1" transform="scale(-1 1)rotate(3.339 227.538 -19768.873)"/><path d="M896.67 869.507c-5.943 7.15-16.257 17.876-29.28 28.87-65.117 51.968-129.132 19.632-113.01-53.18 12.801-56.188 41.564-105.303 82.332-146.133 9.964-10.994 15.907-17.786 21.85-24.58l40.403 25.7c20.45 20.867 28.821 42.408 32.344 65.671 3.524 23.263-23.523 89.95-34.639 103.652" style="fill:url(#M);fill-opacity:1;stroke:none;stroke-width:3.77953;stroke-linecap:round;stroke-linejoin:round;stroke-dasharray:none;stroke-opacity:1" transform="scale(-1 1)rotate(3.339 227.538 -19768.873)"/><path d="M802.72 804.375a66.35 66.35 0 0 0-40.884 14.092 288 288 0 0 0-7.457 26.73c-15.534 70.16 43.337 102.739 105.904 58.524a66.35 66.35 0 0 0 8.787-32.996 66.35 66.35 0 0 0-66.35-66.35" style="opacity:1;fill:url(#N);fill-opacity:1;stroke:none;stroke-width:3.77953;stroke-linecap:round;stroke-linejoin:round;stroke-dasharray:none;stroke-opacity:1" transform="scale(-1 1)rotate(3.339 227.538 -19768.873)"/><path d="M858.563 674.485c-5.944 6.793-11.887 13.585-21.85 24.579-40.769 40.83-69.532 89.945-82.333 146.133-16.122 72.812 47.893 105.148 113.01 53.18 13.023-10.994 23.337-21.72 29.28-28.87s7.517-10.725 9.09-14.3" style="fill:none;fill-opacity:1;stroke:#c95909;stroke-width:3.77953;stroke-linecap:round;stroke-linejoin:round;stroke-dasharray:none;stroke-opacity:1" transform="scale(-1 1)rotate(3.339 227.538 -19768.873)"/></g></svg>