<svg xmlns="http://www.w3.org/2000/svg" xmlns:xlink="http://www.w3.org/1999/xlink" width="1920" height="1080" viewBox="0 0 508 285.75"><defs><linearGradient id="d"><stop offset="0" style="stop-color:#000;stop-opacity:1"/><stop offset="1" style="stop-color:#000;stop-opacity:0"/></linearGradient><linearGradient id="b"><stop offset="0" style="stop-color:#f5be39;stop-opacity:1"/><stop offset=".255" style="stop-color:#ffd699;stop-opacity:1"/><stop offset=".638" style="stop-color:#9a5f00;stop-opacity:1"/><stop offset=".879" style="stop-color:#cfa344;stop-opacity:1"/><stop offset="1" style="stop-color:#ffd587;stop-opacity:1"/></linearGradient><linearGradient id="c"><stop offset="0" style="stop-color:#fff;stop-opacity:1"/><stop offset="1" style="stop-color:#fff;stop-opacity:0"/></linearGradient><linearGradient id="a"><stop offset="0" style="stop-color:#f5be39;stop-opacity:1"/><stop offset=".447" style="stop-color:#ffd699;stop-opacity:1"/><stop offset=".638" style="stop-color:#9a5f00;stop-opacity:1"/><stop offset=".879" style="stop-color:#cfa344;stop-opacity:1"/><stop offset="1" style="stop-color:#ffd587;stop-opacity:1"/></linearGradient><linearGradient xlink:href="#a" id="aU" x1="239.648" x2="239.648" y1="187.247" y2="115.801" gradientTransform="translate(-46.648 -38.245)scale(1.18071)" gradientUnits="userSpaceOnUse"/><linearGradient xlink:href="#a" id="aV" x1="240.028" x2="240.028" y1="58.335" y2="129.781" gradientTransform="translate(-47.097 29.607)scale(1.18071)" gradientUnits="userSpaceOnUse"/><linearGradient xlink:href="#a" id="aW" x1="239.648" x2="239.648" y1="187.247" y2="115.801" gradientTransform="translate(-45.59 -38.245)scale(1.18071)" gradientUnits="userSpaceOnUse"/><linearGradient xlink:href="#a" id="aX" x1="240.028" x2="240.028" y1="58.335" y2="129.781" gradientTransform="translate(-46.04 29.607)scale(1.18071)" gradientUnits="userSpaceOnUse"/><linearGradient xlink:href="#a" id="aY" x1="239.648" x2="239.648" y1="187.247" y2="115.801" gradientTransform="translate(-42.02 -38.245)scale(1.18071)" gradientUnits="userSpaceOnUse"/><linearGradient xlink:href="#a" id="aZ" x1="240.028" x2="240.028" y1="58.335" y2="129.781" gradientTransform="translate(-42.47 29.607)scale(1.18071)" gradientUnits="userSpaceOnUse"/><linearGradient xlink:href="#a" id="ba" x1="239.648" x2="239.648" y1="187.247" y2="115.801" gradientTransform="translate(-39.508 -38.245)scale(1.18071)" gradientUnits="userSpaceOnUse"/><linearGradient xlink:href="#a" id="bb" x1="240.028" x2="240.028" y1="58.335" y2="129.781" gradientTransform="translate(-39.957 29.607)scale(1.18071)" gradientUnits="userSpaceOnUse"/><linearGradient xlink:href="#a" id="bc" x1="239.648" x2="239.648" y1="187.247" y2="115.801" gradientTransform="translate(-37.264 -38.245)scale(1.18071)" gradientUnits="userSpaceOnUse"/><linearGradient xlink:href="#a" id="bd" x1="240.028" x2="240.028" y1="58.335" y2="129.781" gradientTransform="translate(-37.713 29.607)scale(1.18071)" gradientUnits="userSpaceOnUse"/><linearGradient xlink:href="#a" id="be" x1="239.648" x2="239.648" y1="187.247" y2="115.801" gradientTransform="translate(-31.71 -38.245)scale(1.18071)" gradientUnits="userSpaceOnUse"/><linearGradient xlink:href="#a" id="bf" x1="240.028" x2="240.028" y1="58.335" y2="129.781" gradientTransform="translate(-32.16 29.607)scale(1.18071)" gradientUnits="userSpaceOnUse"/><linearGradient xlink:href="#a" id="bg" x1="239.648" x2="239.648" y1="187.247" y2="115.801" gradientTransform="translate(-50.34 -38.245)scale(1.18071)" gradientUnits="userSpaceOnUse"/><linearGradient xlink:href="#a" id="bh" x1="240.028" x2="240.028" y1="58.335" y2="129.781" gradientTransform="translate(-50.789 29.607)scale(1.18071)" gradientUnits="userSpaceOnUse"/><linearGradient xlink:href="#a" id="bi" x1="239.648" x2="239.648" y1="187.247" y2="115.801" gradientTransform="translate(-49.81 -38.245)scale(1.18071)" gradientUnits="userSpaceOnUse"/><linearGradient xlink:href="#a" id="bj" x1="240.028" x2="240.028" y1="58.335" y2="129.781" gradientTransform="translate(-50.26 29.607)scale(1.18071)" gradientUnits="userSpaceOnUse"/><linearGradient xlink:href="#a" id="bk" x1="239.648" x2="239.648" y1="187.247" y2="115.801" gradientTransform="translate(-48.315 -38.245)scale(1.18071)" gradientUnits="userSpaceOnUse"/><linearGradient xlink:href="#a" id="bl" x1="240.028" x2="240.028" y1="58.335" y2="129.781" gradientTransform="translate(-48.764 29.607)scale(1.18071)" gradientUnits="userSpaceOnUse"/><linearGradient xlink:href="#a" id="aK" x1="239.648" x2="239.648" y1="187.247" y2="115.801" gradientTransform="translate(-62.053 -38.245)scale(1.18071)" gradientUnits="userSpaceOnUse"/><linearGradient xlink:href="#a" id="aL" x1="240.028" x2="240.028" y1="58.335" y2="129.781" gradientTransform="translate(-62.501 29.607)scale(1.18071)" gradientUnits="userSpaceOnUse"/><linearGradient xlink:href="#a" id="aM" x1="239.648" x2="239.648" y1="187.247" y2="115.801" gradientTransform="translate(-60.73 -38.245)scale(1.18071)" gradientUnits="userSpaceOnUse"/><linearGradient xlink:href="#a" id="aN" x1="240.028" x2="240.028" y1="58.335" y2="129.781" gradientTransform="translate(-61.18 29.607)scale(1.18071)" gradientUnits="userSpaceOnUse"/><linearGradient xlink:href="#a" id="aO" x1="239.648" x2="239.648" y1="187.247" y2="115.801" gradientTransform="translate(-58.747 -38.245)scale(1.18071)" gradientUnits="userSpaceOnUse"/><linearGradient xlink:href="#a" id="aP" x1="240.028" x2="240.028" y1="58.335" y2="129.781" gradientTransform="translate(-59.196 29.607)scale(1.18071)" gradientUnits="userSpaceOnUse"/><linearGradient xlink:href="#a" id="aQ" x1="239.648" x2="239.648" y1="187.247" y2="115.801" gradientTransform="translate(-56.896 -38.245)scale(1.18071)" gradientUnits="userSpaceOnUse"/><linearGradient xlink:href="#a" id="aR" x1="240.028" x2="240.028" y1="58.335" y2="129.781" gradientTransform="translate(-57.345 29.607)scale(1.18071)" gradientUnits="userSpaceOnUse"/><linearGradient xlink:href="#a" id="aS" x1="239.648" x2="239.648" y1="187.247" y2="115.801" gradientTransform="translate(-52.875 -38.245)scale(1.18071)" gradientUnits="userSpaceOnUse"/><linearGradient xlink:href="#a" id="aT" x1="240.028" x2="240.028" y1="58.335" y2="129.781" gradientTransform="translate(-53.324 29.607)scale(1.18071)" gradientUnits="userSpaceOnUse"/><linearGradient xlink:href="#b" id="bm" x1="252.191" x2="252.191" y1="187.305" y2="116.397" gradientTransform="translate(-62.053 -38.245)scale(1.18071)" gradientUnits="userSpaceOnUse"/><linearGradient xlink:href="#c" id="bn" x1="254.518" x2="254.518" y1="118.196" y2="73.236" gradientTransform="translate(-50.837 29.607)scale(1.18071)" gradientUnits="userSpaceOnUse"/><linearGradient xlink:href="#d" id="bo" x1="239.344" x2="239.344" y1="71.809" y2="183.611" gradientTransform="matrix(.94545 0 0 1.13468 27.713 -39.123)" gradientUnits="userSpaceOnUse"/><filter id="aJ" width="1.019" height="1.098" x="-.009" y="-.049" style="color-interpolation-filters:sRGB"><feGaussianBlur stdDeviation="1.461"/></filter></defs><rect width="508" height="285.75" rx="15.71" ry=".102" style="fill:#000;stroke:none;stroke-width:1.79154;stroke-linecap:butt;stroke-linejoin:miter;stroke-dasharray:none;paint-order:normal"/><path d="M434.755 60.16q-1.164 0-2.328.318-.953.212-2.117.847-1.164.53-2.117 1.588-1.8 1.8-2.963 4.974t-1.482 6.985q-.317 3.704.424 7.62a20.5 20.5 0 0 0 3.069 7.09q.635 1.06 1.905 2.435t2.751 2.963a65 65 0 0 1 2.963 3.175 25 25 0 0 1 2.54 3.175q2.011 3.069 3.07 6.244t1.376 6.244q.317 2.963 0 5.715-.213 2.646-.847 4.762-.53 1.905-1.905 3.81-1.27 1.905-3.704 1.905t-3.916-2.328a14.1 14.1 0 0 1-1.8-4.974 80 80 0 0 1-.422-3.28 80 80 0 0 1-.318-3.916 381 381 0 0 0-.212-3.705q-.105-1.8-.212-2.751h-2.963v21.907h1.588q-.105-.21 0-.529 0-.635.635-.953a1.35 1.35 0 0 1 1.27 0q.635.212 1.058.424a36 36 0 0 0 2.329 1.164q1.163.528 2.963.529 1.588 0 3.598-.74 2.117-.742 3.916-3.07 1.8-2.328 2.964-6.138 1.164-3.915 1.27-8.255a33.4 33.4 0 0 0-.741-8.784q-.847-4.445-3.07-7.938-.741-1.058-2.117-2.645a56 56 0 0 0-2.857-3.281 138 138 0 0 0-2.963-3.281 51 51 0 0 1-2.328-3.07q-1.905-2.751-2.858-5.397-.952-2.646-1.164-4.974-.212-2.435.106-4.34.317-2.01.847-3.492.952-2.434 2.222-3.704 1.27-1.376 3.07-1.164 1.798.105 2.962 2.01a12.3 12.3 0 0 1 1.588 4.022q.318 1.588.423 3.493.212 1.8.212 3.598.105 1.695.106 3.175v2.434l3.28.106V60.584q-.105-.106-.317-.106a.94.94 0 0 1-.423-.105q-.318 0-.635-.106v.529q0 .635-.424 1.058-.528.424-1.058.212a22 22 0 0 1-.847-.53q-.952-.528-2.222-.846-1.27-.423-3.175-.53m-329.842.107q-3.705 0-6.139 1.693-1.482 1.059-2.328 2.434t-1.27 2.54a22 22 0 0 0-.635 2.963v52.6a8.35 8.35 0 0 0 1.058 3.704 13 13 0 0 0 2.329 2.857 11.9 11.9 0 0 0 3.175 1.8q1.799.634 3.704.634 2.01 0 3.81-.74 1.905-.741 3.28-2.011a10 10 0 0 0 2.117-3.07 8.84 8.84 0 0 0 .847-3.81v-52.07a14.5 14.5 0 0 0-.53-2.751q-.315-1.587-.952-2.54-1.058-1.694-3.07-2.963-2.01-1.27-5.396-1.27m254.306 0q-3.705 0-6.14 1.693-1.48 1.059-2.327 2.434t-1.27 2.54a22 22 0 0 0-.635 2.963v52.6a8.35 8.35 0 0 0 1.058 3.704 13 13 0 0 0 2.328 2.857 11.9 11.9 0 0 0 3.175 1.8q1.8.634 3.705.634 2.01 0 3.81-.74 1.905-.741 3.28-2.011a10 10 0 0 0 2.117-3.07 8.84 8.84 0 0 0 .847-3.81v-52.07a14.5 14.5 0 0 0-.53-2.751q-.317-1.587-.952-2.54-1.059-1.694-3.07-2.963-2.01-1.27-5.396-1.27m25.42 0q-3.705 0-6.14 1.693-1.48 1.059-2.327 2.434t-1.27 2.54a22 22 0 0 0-.636 2.963v52.6a8.35 8.35 0 0 0 1.059 3.704 13 13 0 0 0 2.328 2.857 11.9 11.9 0 0 0 3.175 1.8q1.8.634 3.704.634 2.01 0 3.81-.74 1.905-.741 3.28-2.011a10 10 0 0 0 2.117-3.07 8.84 8.84 0 0 0 .847-3.81v-52.07a14.5 14.5 0 0 0-.529-2.751q-.318-1.587-.953-2.54-1.058-1.694-3.069-2.963-2.01-1.27-5.397-1.27m-305.503.423q-.953 0-1.905.212-3.599.635-5.292 2.751-1.587 2.117-2.222 4.022a20 20 0 0 1-.423 1.482 8.4 8.4 0 0 0-.106 1.375v51.435q0 2.223.847 4.022.846 1.8 2.222 3.069a12 12 0 0 0 3.28 2.01q1.8.636 3.81.636 3.6 0 6.033-1.694 1.482-1.057 2.329-2.434.846-1.376 1.27-2.645.423-1.482.634-2.964V97.626q0-1.164.318-1.8.317-.74 2.117-.74v-1.694h-2.54q-.529 0-.953.212-.741.424-1.905.424t-2.01-.424a3.16 3.16 0 0 0-1.8-.317q-.846.105-1.376.105v1.694q.847 0 1.588.423.846.318.846 2.117v27.199q0 2.963-1.27 4.55-.952.847-1.905 1.06-.952.105-1.481.105t-1.482-.318q-.953-.317-1.693-1.27-.847-1.164-.953-2.434a42 42 0 0 1-.105-3.175V67.251q.105-1.481 1.27-2.857 1.27-1.375 2.752-1.481 3.069-.212 4.761 1.481 1.8 1.694 2.858 4.34.53 1.27.847 3.386.423 2.01.635 4.34.21 2.221.318 4.444.105 2.117 0 3.704h1.798V61.22h-1.904q0 .423-.106.847-.105.317-.318.74-.105.318-.529.53-.741.317-1.482-.212-.74-.53-1.164-.74-1.799-1.059-3.704-1.482a8.8 8.8 0 0 0-1.905-.212m253.008 0q-.952 0-1.906.212-3.597.635-5.291 2.751-1.589 2.117-2.223 4.022a20 20 0 0 1-.423 1.482q-.106.634-.106 1.375v51.435q0 2.223.847 4.022a9.8 9.8 0 0 0 2.223 3.069 12 12 0 0 0 3.28 2.01q1.8.636 3.81.636 3.599 0 6.033-1.694 1.481-1.057 2.328-2.434.846-1.376 1.27-2.645.423-1.482.635-2.964V97.626q0-1.164.317-1.8.318-.74 2.117-.74v-1.694h-2.54a2.1 2.1 0 0 0-.952.212q-.742.424-1.905.424-1.165 0-2.011-.424a3.16 3.16 0 0 0-1.8-.317q-.846.105-1.375.105v1.694q.846 0 1.587.423.847.318.847 2.117v27.199q0 2.963-1.27 4.55-.952.847-1.905 1.06-.953.105-1.482.105t-1.481-.318-1.694-1.27q-.847-1.164-.952-2.434a42 42 0 0 1-.106-3.175V67.251q.106-1.481 1.27-2.857 1.27-1.375 2.752-1.481 3.069-.212 4.762 1.481 1.8 1.694 2.857 4.34.53 1.27.847 3.386.424 2.01.636 4.34.21 2.221.317 4.444.105 2.117 0 3.704h1.799V61.22h-1.905q0 .423-.106.847-.105.317-.317.74-.105.318-.53.53-.74.317-1.481-.212-.741-.53-1.164-.74-1.8-1.059-3.704-1.482a8.8 8.8 0 0 0-1.905-.212m-39.445.106q-3.175.105-5.187 1.693-1.587 1.164-2.434 2.54t-1.27 2.646a22 22 0 0 0-.634 2.963v56.092q0 1.163-.212 1.905-.212.74-2.117.74v1.694h2.329q.529-.105.952-.318.847-.423 2.01-.423 1.165 0 2.117.423a3.16 3.16 0 0 0 1.8.318h1.481v-1.8q-.74 0-1.693-.317-.847-.423-.847-2.222V96.038h8.996v30.586q0 2.435 1.588 3.704 1.693 1.27 4.444 1.059 1.27-.106 2.117-.424.847-.423 1.376-.847.529-.423.953-1.058l-.847-.952a5.6 5.6 0 0 1-.53.846q-.528.741-1.693.635-.634-.105-.952-.423a5.6 5.6 0 0 1-.53-.847q-.21-.423-.105-1.058V69.792q-.212-3.175-2.328-5.61-2.117-2.54-5.186-3.175a8.8 8.8 0 0 0-1.905-.211zm-96.78.317-7.303.106v1.8q2.328 0 2.857 1.057.53 1.059.53 4.234v57.785q0 1.481-.53 2.117-.423.634-1.164.952-.634.212-1.587.212a14 14 0 0 0-1.693-.106v1.799q.529 0 2.01.106 1.482.106 2.328-.318.952-.529 2.223-.529t2.117.423q.423.212 1.058.318h2.54v-1.693q-1.905 0-3.492-.424-1.588-.423-1.588-2.751V79.21l13.017 49.741q.106.635.424 1.058.423 1.059 1.058 1.059h.635q.741 0 .741-1.164V66.299q0-1.376.423-2.01.53-.742 1.27-.953a3 3 0 0 1 1.588-.212h1.799v-1.799q-.635 0-1.905-.106-1.164-.106-2.01.318-1.06.423-2.33.423-1.163 0-2.01-.423-.423-.213-1.164-.212a8 8 0 0 0-1.27-.106h-1.587v1.8q1.799 0 3.386.423 1.693.423 1.693 2.751v41.698Zm-78.302.106q-.53 0-1.059.106l-.105 1.482h1.164q.53 0 .846.106h.635q.53.21.741.952.106.318.106.53l.106 64.028q0 .317-.106.635a1.27 1.27 0 0 1-.847.847q-.211.105-.635.105h-2.01l.105 1.059h19.897v-17.462h-1.799q0 2.222-.212 4.868-.105 2.54-.74 4.762-.53 2.223-1.482 3.916-.953 1.694-2.54 2.223a5.6 5.6 0 0 1-1.27.317q-.635 0-1.164.106-.636.105-1.27.106v-28.893q.105-6.773.105-15.663v-20.32q0-1.376.953-1.905.53-.211 2.752-.211v-1.588a6 6 0 0 0-1.165-.106h-2.54a7.8 7.8 0 0 0-1.481.318q-.53.21-1.27.211-.847 0-1.8-.211l-1.27-.318zm20.944 0v1.059h1.164q.53 0 .846.105h.636q.528.212.74.953.106.318.106.529v64.558q0 .317-.106.635a1.72 1.72 0 0 1-.74.847q-.212.105-.636.105h-2.01v1.059h14.71q2.011 0 3.81-.74 1.8-.742 3.176-1.906 1.375-1.27 2.116-2.857a7.94 7.94 0 0 0 .847-3.599V70.321q-.318-4.129-3.175-6.562-2.858-2.54-6.774-2.54zm25.233 0v1.059q1.377 0 2.434.21 1.059.107 1.059 1.483v64.558q-.212 1.375-1.482 1.481-1.164.105-2.01 0v1.059h21.483v-17.462h-1.693q0 1.481-.212 4.021a39 39 0 0 1-.74 4.869q-.53 2.433-1.482 4.444-.953 2.011-2.54 2.435-1.165.317-2.434.423t-2.858.106V96.038h4.974q1.482.423 1.588 1.8.211 1.374.212 2.963h1.693q0-.847-.106-1.588l-.212-1.27V96.78q-.21-.847-.211-1.376 0-.635.211-2.01.212-.847.212-1.905.105-1.164.106-1.694l-1.8-.106v1.165q.107.74-.105 1.481-.105.635-.53 1.164-.316.53-1.27.53h-4.762V62.383q1.164 0 2.223.106 1.164.106 2.328.424 1.8.635 2.752 2.645 1.059 2.011 1.481 4.445.53 2.435.635 4.869.106 2.434.106 3.916 1.164 0 1.694-.106V61.219zm61.193 0v1.059q1.375 0 2.434.21 1.059.107 1.058 1.483v64.558q-.211 1.375-1.481 1.481-1.165.105-2.011 0v1.059h21.484v-17.462h-1.693q0 1.481-.212 4.021a39 39 0 0 1-.74 4.869q-.53 2.433-1.482 4.444-.953 2.011-2.54 2.435-1.164.317-2.435.423-1.27.106-2.857.106V96.038h4.974q1.482.423 1.587 1.8.212 1.374.212 2.963h1.694q0-.847-.106-1.588l-.212-1.27V96.78q-.212-.847-.212-1.376 0-.635.212-2.01.212-.847.212-1.905.106-1.164.106-1.694l-1.8-.106v1.165q.105.74-.106 1.481-.106.635-.529 1.164-.317.53-1.27.53h-4.762V62.383q1.164 0 2.222.106 1.164.106 2.329.424 1.8.635 2.751 2.645 1.059 2.011 1.482 4.445.529 2.435.635 4.869t.106 3.916q1.164 0 1.693-.106V61.219zm24.45 0v1.059h1.164q.53 0 .847.105h.53q.528.212.74.953.105.318.106.529v63.394q0 2.117-3.493 2.117v1.693h3.387q.741-.105 1.164-.318.847-.423 2.011-.423 1.27 0 2.223.423.846.424 2.434.318h2.116v-1.8q-.423 0-1.058.107a8 8 0 0 1-1.27-.106 2.66 2.66 0 0 1-1.058-.635q-.423-.423-.424-1.376V97.203q.105-.213.53-.424.105-.105.423-.317.212-.212.53-.318.317-.21.74-.424.741-.423 2.01.318 1.271.741 2.752 2.223 1.588 1.587 2.117 4.55.635 2.858.741 6.35a80 80 0 0 1-.106 7.092q-.106 3.597-.106 6.35 0 2.751.106 4.338.106 1.482 1.376 2.964.74.846 1.693 1.164.953.211 2.54.212 1.481 0 2.54-.741 1.059-.847 1.587-1.8a10 10 0 0 0 .953-2.54l-1.164-.528q-.318.953-.74 1.587a4.5 4.5 0 0 1-.847 1.164q-.424.423-1.059.318-.317-.105-.847-.424-.529-.422-.529-1.587v-15.24q0-1.904-.317-4.022a23 23 0 0 0-1.058-4.34 15.7 15.7 0 0 0-2.117-4.02q-1.27-1.905-3.281-3.282-1.694-1.164-3.492-1.481a22 22 0 0 1 2.116-.847q.952-.423 1.059-.423 4.126-1.376 5.609-5.503.528-1.482.635-2.54.211-1.06.212-1.27V70.32a8.35 8.35 0 0 0-1.059-3.704 8.9 8.9 0 0 0-2.222-2.858q-1.27-1.164-3.07-1.799a8.9 8.9 0 0 0-3.598-.74zm147.068 0v1.059h1.164q.53 0 .846.105h.636q.529.212.74.953.106.318.106.529v64.558q0 .317-.105.635a1.72 1.72 0 0 1-.741.847q-.212.105-.636.105h-2.01v1.059h14.71q2.011 0 3.81-.74 1.8-.742 3.176-1.906 1.375-1.27 2.116-2.857a7.94 7.94 0 0 0 .847-3.599V70.321q-.318-4.129-3.175-6.562-2.858-2.54-6.774-2.54zm-291.487.106q1.27 0 2.117.635.846.529 1.27 1.376.423.847.53 1.905a8.3 8.3 0 0 1 .211 1.799v57.68q0 2.856-1.27 4.444-.847.846-1.905 1.058-.953.212-1.482.212-.53 0-1.27-.212-.635-.211-1.481-1.058-.847-1.164-1.165-2.328a11 11 0 0 1-.317-2.646V67.04q0-2.435 1.058-4.022 1.163-1.693 3.704-1.693m254.306 0q1.27 0 2.117.635.846.529 1.27 1.376.423.847.529 1.905a8.3 8.3 0 0 1 .212 1.799v57.68q0 2.856-1.27 4.444-.848.846-1.905 1.058-.953.212-1.482.212-.53 0-1.27-.212-.635-.211-1.481-1.058-.847-1.164-1.165-2.328a11 11 0 0 1-.318-2.646V67.04q0-2.435 1.059-4.022 1.163-1.693 3.704-1.693m25.42 0q1.27 0 2.116.635.847.529 1.27 1.376.425.847.53 1.905a8.3 8.3 0 0 1 .212 1.799v57.68q0 2.856-1.27 4.444-.847.846-1.905 1.058-.953.212-1.483.212-.528 0-1.27-.212-.634-.211-1.48-1.058-.847-1.164-1.165-2.328a11 11 0 0 1-.318-2.646V67.04q0-2.435 1.058-4.022 1.165-1.693 3.705-1.693m-91.597.63q.2-.008.398.005 1.587.105 2.963 1.27.741.846 1.059 1.8.317.846.423 1.375v27.623h-8.996V66.299q0-.846.318-1.693.423-.953.952-1.482 1.482-1.11 2.883-1.169m-145.061.428h5.291q1.27 0 2.011.635.847.635 1.27 1.588.53.953.74 2.01.213 1.06.213 2.012v55.033a15.5 15.5 0 0 1-1.059 4.233q-.846 2.01-3.175 2.01h-5.291v-3.915zm110.77 0h4.869q.528 0 1.164.212t1.481 1.058q.53.635.742 1.482.317.741.529 1.587.106.952.106 1.906V85.56q0 2.646-.635 4.233-.53 1.482-1.377 2.328-.74.741-1.587 1.059-.741.317-1.164.529-1.164.529-2.222 1.058-1.059.423-1.906 1.164zm147.174 0h5.291q1.27 0 2.011.635.847.635 1.27 1.588.53.953.74 2.01.213 1.06.213 2.012v55.033a15.5 15.5 0 0 1-1.059 4.233q-.846 2.01-3.175 2.01h-5.291v-3.915z" style="font-stretch:condensed;font-size:105.833px;font-family:Ayres;-inkscape-font-specification:&quot;Ayres Condensed&quot;;text-align:center;text-anchor:middle;opacity:.576;fill:#000;stroke-width:11.6531;stroke-linecap:round;stroke-linejoin:round;filter:url(#aJ)" transform="translate(-50.837 29.607)scale(1.18071)"/><path d="M471.072 142.297q2.624 4.124 3.623 9.372 1.125 5.123.875 10.371-.125 5.124-1.5 9.747-1.374 4.499-3.498 7.248t-4.624 3.623q-2.374.875-4.248.875-2.124 0-3.499-.625-1.375-.624-2.75-1.374-.499-.25-1.249-.5-.75-.375-1.5 0-.749.375-.749 1.125-.125.375 0 .624h-1.874v-25.866h3.499q.124 1.125.25 3.249.124 2 .25 4.374.124 2.249.374 4.623.25 2.25.5 3.874.5 3.124 2.124 5.873 1.75 2.749 4.624 2.749t4.373-2.25q1.625-2.249 2.25-4.498.75-2.5 1-5.623.374-3.249 0-6.748-.376-3.624-1.625-7.372-1.25-3.75-3.624-7.373-1.25-1.874-2.999-3.749-1.75-1.999-3.499-3.748-1.75-1.875-3.249-3.5t-2.249-2.873q-2.624-3.874-3.624-8.372-.874-4.624-.5-8.997.375-4.499 1.75-8.248t3.499-5.873q1.124-1.25 2.499-1.874 1.374-.75 2.499-1 1.375-.375 2.749-.375 2.25.125 3.749.625 1.5.375 2.624 1 .375.25 1 .625.624.25 1.25-.25.499-.5.499-1.25v-.625q.375.125.75.125.25.125.5.125t.374.125v23.117l-3.873-.125v-2.874q0-1.749-.125-3.748 0-2.125-.25-4.249-.125-2.25-.5-4.124-.5-2.499-1.874-4.748t-3.5-2.374q-2.123-.25-3.623 1.374-1.5 1.5-2.624 4.374-.625 1.75-1 4.124-.375 2.249-.125 5.123.25 2.749 1.375 5.873t3.374 6.373q1.124 1.624 2.749 3.624 1.75 1.874 3.499 3.873 1.874 2 3.374 3.874 1.624 1.874 2.499 3.124z" style="font-stretch:condensed;font-size:105.833px;font-family:Ayres;-inkscape-font-specification:&quot;Ayres Condensed&quot;;text-align:center;text-anchor:middle;fill:url(#aK);stroke:url(#aL);stroke-width:1.40578;stroke-linecap:butt;stroke-linejoin:miter;paint-order:normal"/><path d="M444.903 172.162q0 2.25-1 4.249-.874 1.874-2.499 3.373-1.624 1.375-3.749 2.25-2.124.874-4.498.874h-17.37v-1.25h2.375q.5 0 .75-.124.624-.375.874-1 .125-.375.125-.75V103.56q0-.25-.125-.625-.25-.875-.874-1.125h-.75q-.375-.125-1-.125h-1.374v-1.25h17.369q4.623 0 7.997 3 3.374 2.874 3.749 7.747zm-11.621 9.372q2.749 0 3.749-2.374 1-2.5 1.25-4.999v-64.978q0-1.125-.25-2.374t-.876-2.374q-.5-1.125-1.499-1.875-.875-.75-2.374-.75h-6.248v79.724z" style="font-stretch:condensed;font-size:105.833px;font-family:Ayres;-inkscape-font-specification:&quot;Ayres Condensed&quot;;text-align:center;text-anchor:middle;fill:url(#aM);stroke:url(#aN);stroke-width:1.40578;stroke-linecap:butt;stroke-linejoin:miter;paint-order:normal"/><path d="M411.773 104.31q.75 1.124 1.125 2.999.5 1.749.625 3.249v61.479q0 2.374-1 4.498-.875 2-2.5 3.624-1.624 1.5-3.873 2.375-2.124.874-4.499.874-2.249 0-4.373-.75-2-.75-3.749-2.124-1.624-1.5-2.749-3.374-1.125-1.999-1.25-4.373v-62.105q.25-1.749.75-3.498.5-1.375 1.5-3t2.749-2.873q2.874-2 7.247-2 4 0 6.373 1.5 2.375 1.5 3.624 3.499zm-4.998 2.999q0-1-.25-2.125-.125-1.25-.625-2.249t-1.5-1.624q-1-.75-2.499-.75-2.999 0-4.373 2-1.25 1.874-1.25 4.748v67.477q0 1.625.375 3.124.375 1.375 1.375 2.75 1 .999 1.75 1.249.874.25 1.499.25.624 0 1.749-.25 1.25-.25 2.25-1.25 1.499-1.874 1.499-5.248z" style="font-stretch:condensed;font-size:105.833px;font-family:Ayres;-inkscape-font-specification:&quot;Ayres Condensed&quot;;text-align:center;text-anchor:middle;fill:url(#aO);stroke:url(#aP);stroke-width:1.40578;stroke-linecap:butt;stroke-linejoin:miter;paint-order:normal"/><path d="M381.76 104.31q.75 1.124 1.124 2.999.5 1.749.625 3.249v61.479q0 2.374-1 4.498-.874 2-2.499 3.624-1.624 1.5-3.873 2.375-2.125.874-4.499.874-2.249 0-4.373-.75-2-.75-3.75-2.124-1.624-1.5-2.748-3.374-1.125-1.999-1.25-4.373v-62.105q.25-1.749.75-3.498.5-1.375 1.5-3t2.749-2.873q2.874-2 7.247-2 3.999 0 6.373 1.5t3.624 3.499zm-4.999 2.999q0-1-.25-2.125-.124-1.25-.624-2.249t-1.5-1.624q-1-.75-2.499-.75-2.999 0-4.373 2-1.25 1.874-1.25 4.748v67.477q0 1.625.375 3.124.375 1.375 1.374 2.75 1 .999 1.75 1.249.875.25 1.5.25.624 0 1.749-.25 1.25-.25 2.249-1.25 1.5-1.874 1.5-5.248z" style="font-stretch:condensed;font-size:105.833px;font-family:Ayres;-inkscape-font-specification:&quot;Ayres Condensed&quot;;text-align:center;text-anchor:middle;fill:url(#aQ);stroke:url(#aR);stroke-width:1.40578;stroke-linecap:butt;stroke-linejoin:miter;paint-order:normal"/><path d="M350.917 138.673q.5-.25 1.125-.25h2.999v2q-2.125 0-2.5.874-.375.75-.375 2.125v28.74q-.25 1.75-.75 3.499-.5 1.5-1.499 3.124t-2.749 2.874q-2.874 2-7.122 2-2.375 0-4.499-.75-2.124-.875-3.874-2.375-1.624-1.5-2.624-3.624t-1-4.748v-60.73q0-.874.125-1.624.25-.75.5-1.75.75-2.249 2.624-4.748 2-2.5 6.248-3.249 2.25-.5 4.499 0 2.25.5 4.373 1.75.5.25 1.375.874.875.625 1.75.25.5-.25.624-.625.25-.5.375-.874.125-.5.125-1h2.25v27.616h-2.125q.125-1.875 0-4.374-.125-2.624-.375-5.248-.25-2.75-.75-5.123-.375-2.5-1-4-1.249-3.123-3.373-5.122-2-2-5.623-1.75-1.75.125-3.25 1.75-1.374 1.624-1.499 3.374v66.227q0 2.125.125 3.75.125 1.499 1.125 2.873.875 1.125 2 1.5t1.749.375q.624 0 1.749-.125 1.125-.25 2.25-1.25 1.499-1.874 1.499-5.373v-32.114q0-2.125-1-2.5-.875-.5-1.874-.5v-1.999q.624 0 1.624-.125 1.125-.125 2.124.375t2.375.5 2.249-.5z" style="font-stretch:condensed;font-size:105.833px;font-family:Ayres;-inkscape-font-specification:&quot;Ayres Condensed&quot;;text-align:center;text-anchor:middle;fill:url(#aS);stroke:url(#aT);stroke-width:1.40578;stroke-linecap:butt;stroke-linejoin:miter;paint-order:normal"/><path d="M197.072 100.81q1-.5 2.374-.374 1.5.125 2.25.125v2.124h-2.125q-1-.125-1.874.25-.875.25-1.5 1.125-.5.75-.5 2.374v75.1q0 1.374-.874 1.374h-.75q-.75 0-1.25-1.25-.375-.499-.5-1.249l-15.37-58.73v55.481q0 2.75 1.875 3.25 1.874.499 4.124.499v2h-2.999q-.75-.126-1.25-.375-1-.5-2.5-.5t-2.623.624q-1 .5-2.75.375t-2.374-.125v-2.124q1 0 2 .125 1.124 0 1.874-.25.875-.375 1.375-1.124.624-.75.624-2.5v-68.227q0-3.749-.624-4.998-.625-1.25-3.374-1.25v-2.124l8.622-.125 14.245 55.232v-49.234q0-2.75-2-3.249-1.874-.5-3.998-.5v-2.124h1.875q.75 0 1.499.125.875 0 1.375.25 1 .5 2.374.5 1.5 0 2.749-.5z" style="font-stretch:condensed;font-size:105.833px;font-family:Ayres;-inkscape-font-specification:&quot;Ayres Condensed&quot;;text-align:center;text-anchor:middle;fill:url(#aU);stroke:url(#aV);stroke-width:1.40578;stroke-linecap:butt;stroke-linejoin:miter;paint-order:normal"/><path d="M166.39 162.29v20.618h-25.366v-1.25q1 .126 2.374 0 1.5-.124 1.75-1.749v-76.224q0-1.625-1.25-1.75-1.25-.25-2.874-.25v-1.25h24.491v20.619q-.624.125-1.999.125 0-1.75-.125-4.623-.125-2.875-.75-5.749-.5-2.874-1.749-5.248-1.125-2.374-3.249-3.124-1.374-.375-2.749-.5-1.25-.125-2.624-.125v37.488-.125h5.623q1.125 0 1.5-.625.5-.625.624-1.374.25-.875.125-1.75v-1.374l2.125.125q0 .624-.125 1.999 0 1.25-.25 2.25-.25 1.624-.25 2.373 0 .625.25 1.625v1.374l.25 1.5q.125.875.125 1.874h-2q0-1.874-.25-3.499-.125-1.624-1.874-2.124h-5.873v39.987q1.874 0 3.374-.125t2.874-.5q1.874-.5 2.999-2.874t1.75-5.248.874-5.748q.25-3 .25-4.749z" style="font-stretch:condensed;font-size:105.833px;font-family:Ayres;-inkscape-font-specification:&quot;Ayres Condensed&quot;;text-align:center;text-anchor:middle;fill:url(#aW);stroke:url(#aX);stroke-width:1.40578;stroke-linecap:butt;stroke-linejoin:miter;paint-order:normal"/><path d="M140.345 172.162q0 2.25-1 4.249-.874 1.874-2.499 3.373-1.624 1.375-3.748 2.25-2.125.874-4.499.874H111.23v-1.25h2.374q.5 0 .75-.124.625-.375.875-1 .125-.375.125-.75V103.56q0-.25-.125-.625-.25-.875-.875-1.125h-.75q-.375-.125-1-.125h-1.374v-1.25h17.37q4.623 0 7.996 3 3.374 2.874 3.75 7.747zm-11.62 9.372q2.748 0 3.748-2.374 1-2.5 1.25-4.999v-64.978q0-1.125-.25-2.374t-.875-2.374q-.5-1.125-1.5-1.875-.874-.75-2.374-.75h-6.248v79.724z" style="font-stretch:condensed;font-size:105.833px;font-family:Ayres;-inkscape-font-specification:&quot;Ayres Condensed&quot;;text-align:center;text-anchor:middle;fill:url(#aY);stroke:url(#aZ);stroke-width:1.40578;stroke-linecap:butt;stroke-linejoin:miter;paint-order:normal"/><path d="M108.744 182.908H85.252l-.125-1.25H87.5q.5 0 .75-.124.75-.25 1-1 .124-.375.124-.75l-.125-75.6q0-.25-.125-.624-.25-.875-.874-1.125h-.75q-.375-.125-1-.125h-1.374l.125-1.75q.625-.124 1.25-.124h3.123l1.5.375q1.124.25 2.124.25.875 0 1.5-.25.75-.25 1.749-.375h2.999q.75 0 1.375.125v1.874q-2.625 0-3.25.25-1.124.625-1.124 2.25v23.991q0 10.497-.125 18.494v34.114q.75 0 1.5-.125.624-.125 1.374-.125.875-.125 1.5-.375 1.874-.625 2.999-2.624t1.749-4.624q.75-2.624.875-5.623.25-3.124.25-5.748h2.124z" style="font-stretch:condensed;font-size:105.833px;font-family:Ayres;-inkscape-font-specification:&quot;Ayres Condensed&quot;;text-align:center;text-anchor:middle;fill:url(#ba);stroke:url(#bb);stroke-width:1.40578;stroke-linecap:butt;stroke-linejoin:miter;paint-order:normal"/><path d="M81.498 104.31q.75 1.124 1.124 2.999.5 1.749.625 3.249v61.479q0 2.374-1 4.498-.874 2-2.499 3.624-1.624 1.5-3.873 2.375-2.125.874-4.499.874-2.25 0-4.373-.75-2-.75-3.75-2.124-1.624-1.5-2.748-3.374-1.125-1.999-1.25-4.373v-62.105q.25-1.749.75-3.498.5-1.375 1.5-3t2.749-2.873q2.874-2 7.247-2 3.999 0 6.373 1.5t3.624 3.499zm-4.999 2.999q0-1-.25-2.125-.124-1.25-.624-2.249t-1.5-1.624q-1-.75-2.499-.75-2.999 0-4.373 2-1.25 1.874-1.25 4.748v67.477q0 1.625.375 3.124.375 1.375 1.374 2.75 1 .999 1.75 1.249.874.25 1.5.25.624 0 1.749-.25 1.25-.25 2.249-1.25 1.5-1.874 1.5-5.248z" style="font-stretch:condensed;font-size:105.833px;font-family:Ayres;-inkscape-font-specification:&quot;Ayres Condensed&quot;;text-align:center;text-anchor:middle;fill:url(#bc);stroke:url(#bd);stroke-width:1.40578;stroke-linecap:butt;stroke-linejoin:miter;paint-order:normal"/><path d="M52.188 138.673q.5-.25 1.125-.25h2.999v2q-2.125 0-2.5.874-.374.75-.374 2.125v28.74q-.25 1.75-.75 3.499-.5 1.5-1.5 3.124t-2.749 2.874q-2.874 2-7.122 2-2.375 0-4.499-.75-2.124-.875-3.874-2.375-1.624-1.5-2.624-3.624t-1-4.748v-60.73q0-.874.126-1.624.25-.75.5-1.75.75-2.249 2.624-4.748 1.999-2.5 6.247-3.249 2.25-.5 4.499 0 2.25.5 4.373 1.75.5.25 1.375.874.875.625 1.75.25.5-.25.624-.625.25-.5.375-.874.125-.5.125-1h2.25v27.616h-2.125q.125-1.875 0-4.374-.125-2.624-.375-5.248-.25-2.75-.75-5.123-.374-2.5-1-4-1.249-3.123-3.373-5.122-2-2-5.623-1.75-1.75.125-3.25 1.75-1.374 1.624-1.499 3.374v66.227q0 2.125.125 3.75.125 1.499 1.125 2.873.875 1.125 2 1.5t1.749.375q.624 0 1.75-.125 1.124-.25 2.248-1.25 1.5-1.874 1.5-5.373v-32.114q0-2.125-1-2.5-.875-.5-1.874-.5v-1.999q.625 0 1.624-.125 1.125-.125 2.125.375t2.374.5 2.249-.5z" style="font-stretch:condensed;font-size:105.833px;font-family:Ayres;-inkscape-font-specification:&quot;Ayres Condensed&quot;;text-align:center;text-anchor:middle;fill:url(#be);stroke:url(#bf);stroke-width:1.40578;stroke-linecap:butt;stroke-linejoin:miter;paint-order:normal"/><path d="M311.841 180.534q-.5.75-1.125 1.25-.624.5-1.624 1-1 .374-2.5.5-3.248.25-5.247-1.25-1.875-1.5-1.875-4.374v-36.113H288.85v36.238q0 2.124 1 2.624 1.124.375 1.999.375v2.124h-1.75q-1.124.125-2.124-.374-1.125-.5-2.5-.5t-2.373.5q-.5.25-1.125.374h-2.75v-1.999q2.25 0 2.5-.875.25-.874.25-2.249v-66.228q.25-1.75.75-3.499.5-1.5 1.5-3.124.999-1.624 2.873-2.999 2.375-1.874 6.123-1.999h2q1.124 0 2.249.25 3.624.75 6.123 3.749 2.499 2.874 2.749 6.623v67.852q-.125.75.125 1.25t.625 1q.374.374 1.124.499 1.375.125 2-.75.374-.5.624-1zm-12.37-41.361v-32.614q-.126-.625-.5-1.625-.376-1.124-1.25-2.124-1.625-1.374-3.5-1.5-1.873-.124-3.873 1.375-.625.625-1.124 1.75-.375 1-.375 1.999v32.739z" style="font-stretch:condensed;font-size:105.833px;font-family:Ayres;-inkscape-font-specification:&quot;Ayres Condensed&quot;;text-align:center;text-anchor:middle;fill:url(#bg);stroke:url(#bh);stroke-width:1.40578;stroke-linecap:butt;stroke-linejoin:miter;paint-order:normal"/><path d="M277.382 177.16q-.375 1.625-1.125 3-.625 1.124-1.874 2.124-1.25.874-3 .874-1.874 0-2.998-.25-1.125-.374-2-1.374-1.5-1.75-1.624-3.499-.125-1.874-.125-5.123t.125-7.498q.25-4.248.125-8.372t-.875-7.497q-.625-3.5-2.5-5.374-1.749-1.75-3.248-2.624t-2.374-.375q-.5.25-.875.5-.375.125-.625.375-.375.25-.5.375-.5.25-.624.5v35.488q0 1.125.5 1.624t1.25.75q.749.125 1.499.125.75-.125 1.25-.125v2.124h-2.5q-1.874.125-2.874-.374-1.125-.5-2.624-.5-1.375 0-2.374.5-.5.25-1.375.374h-3.999v-1.999q4.124 0 4.124-2.5v-74.85q0-.249-.125-.624-.25-.875-.875-1.125h-.624q-.375-.125-1-.125h-1.375v-1.25h16.62q2.249 0 4.248.876 2.125.75 3.624 2.124 1.625 1.374 2.624 3.374 1.125 2 1.25 4.373v15.87q0 .25-.25 1.5-.125 1.25-.75 2.999-1.75 4.873-6.623 6.497-.125 0-1.25.5-1.124.375-2.498 1 2.124.375 4.123 1.75 2.374 1.624 3.874 3.873 1.624 2.25 2.5 4.748.874 2.5 1.249 5.124.375 2.499.375 4.748v17.994q0 1.375.624 1.874.625.375 1 .5.75.125 1.25-.375.624-.624 1-1.374.5-.75.874-1.874zm-24.117-35.738q1-.874 2.249-1.374 1.25-.625 2.624-1.25.5-.25 1.375-.625 1-.375 1.874-1.25 1-.999 1.624-2.748.75-1.875.75-4.999v-19.993q0-1.125-.125-2.25-.25-.999-.625-1.874-.25-1-.874-1.749-1-1-1.75-1.25t-1.374-.25h-5.748z" style="font-stretch:condensed;font-size:105.833px;font-family:Ayres;-inkscape-font-specification:&quot;Ayres Condensed&quot;;text-align:center;text-anchor:middle;fill:url(#bi);stroke:url(#bj);stroke-width:1.40578;stroke-linecap:butt;stroke-linejoin:miter;paint-order:normal"/><path d="M238.64 162.29v20.618h-25.366v-1.25q1 .126 2.375 0 1.5-.124 1.749-1.749v-76.224q0-1.625-1.25-1.75-1.25-.25-2.874-.25v-1.25h24.492v20.619q-.625.125-2 .125 0-1.75-.124-4.623-.125-2.875-.75-5.749-.5-2.874-1.75-5.248-1.124-2.374-3.248-3.124-1.375-.375-2.75-.5-1.249-.125-2.623-.125v37.488-.125h5.623q1.124 0 1.5-.625.5-.625.624-1.374.25-.875.125-1.75v-1.374l2.124.125q0 .624-.125 1.999 0 1.25-.25 2.25-.25 1.624-.25 2.373 0 .625.25 1.625v1.374l.25 1.5q.125.875.125 1.874h-1.999q0-1.874-.25-3.499-.125-1.624-1.874-2.124h-5.873v39.987q1.874 0 3.374-.125t2.874-.5q1.874-.5 2.999-2.874t1.749-5.248.875-5.748q.25-3 .25-4.749z" style="font-stretch:condensed;font-size:105.833px;font-family:Ayres;-inkscape-font-specification:&quot;Ayres Condensed&quot;;text-align:center;text-anchor:middle;fill:url(#bk);stroke:url(#bl);stroke-width:1.40578;stroke-linecap:butt;stroke-linejoin:miter;paint-order:normal"/><path d="M460.95 99.186q-1.374 0-2.75.375-1.124.25-2.498 1-1.375.625-2.5 1.874-2.124 2.125-3.498 5.873-1.375 3.75-1.75 8.248-.375 4.373.5 8.997a24.1 24.1 0 0 0 3.624 8.372q.75 1.25 2.25 2.874t3.248 3.499a77 77 0 0 1 3.499 3.748 29.6 29.6 0 0 1 3 3.75q2.373 3.622 3.623 7.372 1.25 3.748 1.624 7.372.375 3.5 0 6.748-.25 3.123-1 5.623-.624 2.25-2.249 4.498-1.5 2.25-4.373 2.25t-4.624-2.75a16.6 16.6 0 0 1-2.124-5.873 95 95 0 0 1-.5-3.873 94 94 0 0 1-.374-4.623q-.126-2.374-.25-4.374a68 68 0 0 0-.25-3.25h-3.499v25.868h1.874q-.125-.25 0-.625 0-.75.75-1.125t1.499 0q.75.25 1.25.5 1.375.75 2.749 1.374t3.499.625q1.875 0 4.249-.874 2.499-.875 4.623-3.624t3.499-7.248q1.374-4.623 1.5-9.747a39.4 39.4 0 0 0-.875-10.371q-1-5.249-3.625-9.372-.875-1.25-2.499-3.124-1.5-1.874-3.373-3.874a163 163 0 0 0-3.5-3.874 60 60 0 0 1-2.748-3.623q-2.25-3.249-3.374-6.373t-1.375-5.873q-.25-2.874.125-5.123.375-2.375 1-4.124 1.125-2.874 2.624-4.374 1.5-1.624 3.624-1.374 2.124.125 3.499 2.374a14.5 14.5 0 0 1 1.874 4.748q.375 1.875.5 4.124a36 36 0 0 1 .25 4.249q.125 1.999.125 3.749v2.873l3.873.125V99.686q-.125-.125-.374-.125-.25 0-.5-.124-.375 0-.75-.126v.625q0 .75-.5 1.25-.624.5-1.25.25-.625-.375-1-.625-1.124-.625-2.623-1-1.5-.5-3.749-.625m-389.449.125q-4.373 0-7.248 2-1.749 1.249-2.748 2.874t-1.5 2.999a26 26 0 0 0-.75 3.498v62.105q.125 2.374 1.25 4.373a15.3 15.3 0 0 0 2.749 3.374 14 14 0 0 0 3.749 2.125q2.124.75 4.373.75a11.7 11.7 0 0 0 4.499-.876q2.25-.874 3.873-2.374a11.8 11.8 0 0 0 2.5-3.623q1-2.125 1-4.499v-61.48q-.126-1.499-.625-3.248-.375-1.875-1.125-3-1.25-1.999-3.624-3.498t-6.373-1.5m300.262 0q-4.373 0-7.248 2-1.749 1.249-2.748 2.874t-1.5 2.999a26 26 0 0 0-.75 3.498v62.105q.126 2.374 1.25 4.373a15.3 15.3 0 0 0 2.749 3.374 14 14 0 0 0 3.749 2.125q2.124.75 4.373.75 2.374 0 4.498-.876 2.25-.874 3.874-2.374a11.8 11.8 0 0 0 2.5-3.623q1-2.125 1-4.499v-61.48q-.126-1.499-.625-3.248-.376-1.875-1.125-3-1.25-1.999-3.624-3.498t-6.373-1.5m30.014 0q-4.374 0-7.248 2-1.75 1.249-2.749 2.874t-1.5 2.999a26 26 0 0 0-.75 3.498v62.105q.126 2.374 1.25 4.373a15.3 15.3 0 0 0 2.75 3.374 14 14 0 0 0 3.748 2.125q2.124.75 4.374.75a11.7 11.7 0 0 0 4.498-.876q2.249-.874 3.874-2.374a11.8 11.8 0 0 0 2.499-3.623q1-2.125 1-4.499v-61.48q-.126-1.499-.625-3.248-.375-1.875-1.125-3-1.25-1.999-3.624-3.498t-6.372-1.5m-360.71.5q-1.125 0-2.25.25-4.248.75-6.247 3.249-1.875 2.5-2.625 4.749-.25.999-.5 1.749a10 10 0 0 0-.124 1.624v60.73q0 2.624 1 4.748.999 2.125 2.623 3.624 1.75 1.5 3.874 2.374 2.124.75 4.499.75 4.248 0 7.122-2 1.75-1.249 2.75-2.873t1.499-3.124q.5-1.75.75-3.499v-28.74q0-1.375.375-2.125.375-.874 2.499-.874v-2h-2.999q-.626 0-1.125.25-.874.5-2.25.5-1.374 0-2.373-.5a3.73 3.73 0 0 0-2.125-.375q-1 .125-1.624.125v2q1 0 1.874.5 1 .374 1 2.499v32.114q0 3.499-1.5 5.373-1.125 1-2.25 1.25-1.124.124-1.748.124-.625 0-1.75-.374-1.124-.375-2-1.5-.998-1.374-1.124-2.874a50 50 0 0 1-.125-3.749v-66.228q.126-1.749 1.5-3.373 1.5-1.624 3.249-1.75 3.624-.25 5.623 1.75 2.124 1.999 3.374 5.123.624 1.5 1 3.998.498 2.374.749 5.124.25 2.625.375 5.248.126 2.5 0 4.374h2.124v-27.616h-2.249q0 .5-.125 1-.125.375-.375.874-.124.375-.624.625-.875.375-1.75-.25-.874-.625-1.374-.874-2.125-1.25-4.374-1.75-1.125-.25-2.25-.25m298.729 0q-1.125 0-2.25.25-4.248.75-6.248 3.249-1.875 2.5-2.624 4.749-.25.999-.5 1.749a10 10 0 0 0-.125 1.624v60.73q0 2.624 1 4.748t2.625 3.624q1.749 1.5 3.873 2.374 2.125.75 4.498.75 4.25 0 7.123-2 1.75-1.249 2.749-2.873t1.5-3.124q.5-1.75.75-3.499v-28.74q0-1.375.374-2.125.375-.874 2.5-.874v-2h-2.999q-.625 0-1.125.25-.875.5-2.25.5t-2.374-.5a3.73 3.73 0 0 0-2.124-.375 14 14 0 0 1-1.624.125v2q.998 0 1.874.5 1 .374 1 2.499v32.114q0 3.499-1.5 5.373-1.125 1-2.249 1.25-1.125.124-1.75.124t-1.749-.374-2-1.5q-.999-1.374-1.124-2.874a50 50 0 0 1-.125-3.749v-66.228q.125-1.749 1.5-3.373 1.5-1.624 3.249-1.75 3.624-.25 5.623 1.75 2.124 1.999 3.373 5.123.625 1.5 1 3.998.501 2.374.75 5.124.25 2.625.375 5.248.125 2.5 0 4.374h2.124v-27.616h-2.25q.001.5-.124 1-.125.375-.375.874-.124.375-.625.625-.874.375-1.749-.25-.874-.625-1.375-.874-2.124-1.25-4.373-1.75-1.125-.25-2.25-.25m-46.573.125q-3.75.126-6.124 2-1.874 1.374-2.874 2.999-.999 1.624-1.5 3.124a26 26 0 0 0-.749 3.498v66.228q0 1.375-.25 2.25-.25.874-2.5.874v2h2.75a4.5 4.5 0 0 0 1.125-.376q.999-.5 2.374-.5t2.499.5a3.73 3.73 0 0 0 2.125.375h1.749v-2.124q-.875 0-2-.375-.999-.5-.999-2.624v-36.238h10.621v36.113q0 2.874 1.875 4.374 2 1.5 5.248 1.25 1.5-.125 2.499-.5 1-.5 1.624-1t1.125-1.25l-1-1.125a6.6 6.6 0 0 1-.625 1q-.624.875-2 .75-.749-.125-1.124-.5a6.6 6.6 0 0 1-.624-1q-.25-.5-.125-1.249v-67.852q-.25-3.75-2.75-6.623-2.498-3-6.122-3.75-1.125-.249-2.25-.249zm-114.27.375-8.622.125v2.124q2.749 0 3.374 1.25.624 1.25.624 4.998v68.227q0 1.75-.624 2.5-.5.75-1.375 1.124-.75.25-1.875.25a16 16 0 0 0-1.998-.125v2.124q.624 0 2.374.125t2.748-.374q1.125-.625 2.625-.625t2.499.5q.5.249 1.25.374h2.998v-1.999q-2.249 0-4.123-.5t-1.874-3.249V121.68l15.37 58.73q.123.75.499 1.25.5 1.25 1.25 1.25h.75q.874 0 .874-1.375v-75.1q0-1.625.5-2.374.626-.874 1.5-1.125a3.56 3.56 0 0 1 1.874-.25h2.124v-2.124q-.75 0-2.249-.125-1.374-.125-2.374.375-1.25.5-2.75.5-1.374 0-2.373-.5-.5-.25-1.375-.25-.75-.125-1.5-.125H187.2v2.124q2.125 0 3.999.5 2 .5 2 3.249v49.233zm-92.452.125a6.4 6.4 0 0 0-1.25.125l-.124 1.75H86.5q.625 0 1 .124h.75q.624.25.875 1.125.125.375.125.625l.124 75.6q0 .374-.124.749-.25.75-1 1-.25.125-.75.125h-2.374l.125 1.25h23.492V162.29h-2.124q0 2.623-.25 5.747-.126 3-.875 5.623-.624 2.625-1.75 4.624-1.125 2-2.999 2.624a6.6 6.6 0 0 1-1.499.375q-.75 0-1.374.125-.75.125-1.5.125V147.42q.125-7.998.125-18.494v-23.991q0-1.624 1.125-2.25.625-.25 3.249-.25v-1.874a7 7 0 0 0-1.375-.125h-2.999a9 9 0 0 0-1.75.375q-.624.25-1.499.25a9.8 9.8 0 0 1-2.124-.25l-1.5-.375zm24.73 0v1.25h1.374q.624 0 1 .125h.749q.625.25.874 1.124.126.375.125.625v76.224q0 .375-.125.75a2.03 2.03 0 0 1-.874 1q-.25.125-.75.125h-2.374v1.25h17.37a11.7 11.7 0 0 0 4.498-.875q2.124-.875 3.749-2.25 1.625-1.5 2.499-3.373a9.4 9.4 0 0 0 1-4.249v-60.98q-.375-4.873-3.75-7.747-3.373-3-7.997-2.999zm29.793 0v1.25q1.624-.001 2.873.25 1.25.124 1.25 1.749v76.224q-.25 1.624-1.75 1.75-1.374.125-2.373 0v1.25h25.366V162.29h-2q0 1.749-.249 4.748a46 46 0 0 1-.875 5.748q-.625 2.874-1.75 5.248t-2.998 2.874q-1.374.375-2.875.5-1.499.125-3.373.125v-39.987h5.873q1.748.5 1.874 2.124.25 1.625.25 3.5h2q0-1-.125-1.875l-.25-1.5v-1.374q-.25-1-.25-1.625 0-.749.25-2.374.25-1 .25-2.249.125-1.374.125-2l-2.125-.124v1.374a4.2 4.2 0 0 1-.125 1.75q-.125.75-.625 1.374-.375.625-1.499.625h-5.623v-37.362q1.374-.001 2.624.124 1.375.125 2.749.5 2.125.75 3.249 3.124 1.25 2.374 1.75 5.248.624 2.874.75 5.749.124 2.874.124 4.623 1.375 0 2-.125v-20.618zm72.25 0v1.25q1.625-.001 2.874.25 1.25.124 1.25 1.749v76.224q-.25 1.624-1.75 1.75-1.374.125-2.373 0v1.25h25.366V162.29h-2q.001 1.749-.25 4.748a46 46 0 0 1-.874 5.748q-.625 2.874-1.75 5.248t-2.998 2.874q-1.375.375-2.875.5t-3.373.125v-39.987h5.873q1.749.5 1.874 2.124.25 1.625.25 3.5h2q0-1-.126-1.875l-.25-1.5v-1.374q-.25-1-.25-1.625 0-.749.25-2.374.25-1 .25-2.249.126-1.374.126-2l-2.125-.124v1.374a4.2 4.2 0 0 1-.125 1.75q-.125.75-.625 1.374-.375.625-1.499.625h-5.623v-37.362q1.373-.001 2.624.124 1.374.125 2.749.5 2.125.75 3.249 3.124 1.25 2.374 1.75 5.248.624 2.874.75 5.749.124 2.874.124 4.623 1.375 0 1.999-.125v-20.618zm28.87 0v1.25h1.374q.624 0 1 .125h.624q.625.25.875 1.124.125.375.125.625v74.85q0 2.5-4.124 2.5v1.998h4q.873-.125 1.374-.375.999-.5 2.374-.5 1.5 0 2.624.5 1 .5 2.874.375h2.499v-2.124q-.5 0-1.25.125-.75 0-1.499-.125a3.14 3.14 0 0 1-1.25-.75q-.499-.5-.5-1.624v-35.488q.126-.25.625-.5a4 4 0 0 1 .5-.375q.25-.25.625-.375a8 8 0 0 1 .875-.5q.874-.5 2.374.375 1.5.874 3.249 2.625 1.874 1.875 2.499 5.372.75 3.375.875 7.498.125 4.125-.125 8.372a258 258 0 0 0-.125 7.498q0 3.248.125 5.123.124 1.75 1.624 3.499.875.999 2 1.374 1.125.25 2.998.25 1.75 0 3-.875 1.248-.999 1.874-2.124.75-1.374 1.125-2.999l-1.375-.624q-.375 1.124-.875 1.874-.375.75-1 1.374-.499.5-1.249.375-.375-.125-1-.5-.625-.499-.625-1.874v-17.994q0-2.25-.374-4.748a27 27 0 0 0-1.25-5.124 18.6 18.6 0 0 0-2.5-4.748q-1.499-2.249-3.873-3.874-2-1.374-4.123-1.75 1.375-.624 2.499-.999 1.125-.5 1.25-.5 4.873-1.624 6.622-6.497.625-1.75.75-3 .25-1.248.25-1.5v-15.868q-.125-2.374-1.25-4.374-.999-2-2.624-3.374-1.5-1.375-3.623-2.124a10.5 10.5 0 0 0-4.249-.875zm173.644 0v1.25h1.374q.625 0 1 .125h.75q.624.25.875 1.124.124.375.124.625v76.224q0 .375-.124.75-.25.625-.875 1-.25.125-.75.125h-2.374v1.25h17.369a11.7 11.7 0 0 0 4.498-.875q2.125-.875 3.75-2.25 1.623-1.5 2.498-3.373a9.4 9.4 0 0 0 1-4.249v-60.98q-.375-4.873-3.749-7.747-3.375-3-7.997-2.999zm-344.162.125q1.5 0 2.499.75a4 4 0 0 1 1.5 1.624q.5 1 .625 2.25.25 1.123.25 2.124v68.102q0 3.374-1.5 5.248-1 1-2.249 1.25-1.125.25-1.75.25-.624 0-1.5-.25-.749-.25-1.748-1.25-1-1.374-1.375-2.749-.375-1.499-.375-3.124V107.31q0-2.874 1.25-4.75 1.374-1.998 4.373-1.998m300.262 0q1.5 0 2.5.75a4 4 0 0 1 1.499 1.624q.5 1 .625 2.25.25 1.123.25 2.124v68.102q0 3.374-1.5 5.248-1 1-2.249 1.25-1.125.25-1.75.25-.624 0-1.499-.25-.75-.25-1.75-1.25-.999-1.374-1.374-2.749-.375-1.499-.375-3.124V107.31q0-2.874 1.25-4.75 1.374-1.998 4.373-1.998m30.013 0q1.5 0 2.5.75a4 4 0 0 1 1.5 1.624q.498 1 .624 2.25.25 1.123.25 2.124v68.102q0 3.374-1.5 5.248-1 1-2.249 1.25-1.125.25-1.75.25-.624 0-1.499-.25-.75-.25-1.749-1.25-1-1.374-1.375-2.749-.375-1.499-.375-3.124V107.31q0-2.874 1.25-4.75 1.374-1.998 4.373-1.998m-108.15.744a5 5 0 0 1 .47.006q1.875.125 3.5 1.499.875 1 1.25 2.124.375 1 .5 1.625v32.614h-10.622v-32.74q0-.999.375-1.999.5-1.125 1.124-1.75 1.75-1.311 3.404-1.38zm-171.275.506h6.248q1.5 0 2.374.749a4.7 4.7 0 0 1 1.5 1.874q.625 1.125.874 2.375.25 1.25.25 2.374v64.979q-.25 2.499-1.249 4.998-1 2.374-3.749 2.374h-6.248v-4.624zm130.788 0h5.749q.624 0 1.374.25.75.249 1.75 1.249.624.75.875 1.75.375.873.624 1.873.126 1.125.125 2.25v19.993q0 3.125-.75 4.999-.625 1.749-1.624 2.749-.875.875-1.875 1.25-.874.374-1.374.624-1.374.624-2.624 1.25a7.8 7.8 0 0 0-2.25 1.374zm173.77 0h6.248q1.499 0 2.374.749a4.7 4.7 0 0 1 1.5 1.874q.624 1.125.874 2.375t.25 2.374v64.979q-.25 2.499-1.25 4.998-.999 2.374-3.748 2.374h-6.248v-4.624z" style="font-stretch:condensed;font-size:105.833px;font-family:Ayres;-inkscape-font-specification:&quot;Ayres Condensed&quot;;text-align:center;text-anchor:middle;fill:url(#bm);stroke-width:13.759;stroke-linecap:round;stroke-linejoin:round"/><path d="M460.94 99.41c-.893 0-1.783.124-2.678.368-.733.163-1.549.486-2.452.978l-.009.004-.007.002q-1.328.604-2.426 1.822c-1.395 1.395-2.546 3.323-3.454 5.8q-1.363 3.717-1.737 8.19-.373 4.341.496 8.937a23.7 23.7 0 0 0 2.26 6.088 247.942 67.242 0 0 0 8.198-3.154 42 42 0 0 1-.365-.517q-2.262-3.269-3.399-6.425-1.134-3.144-1.388-5.926c-.168-1.93-.127-3.66.127-5.182q.376-2.387 1.01-4.163c.758-1.937 1.647-3.429 2.675-4.457 1.039-1.125 2.314-1.61 3.798-1.44h.007c1.498.091 2.723.934 3.669 2.482a14.7 14.7 0 0 1 1.902 4.822q.378 1.89.503 4.149v.007q.25 2.123.251 4.245v.014q.125 1.999.125 3.75v2.657l3.427.113V99.806a.5.5 0 0 0-.152-.02 1.3 1.3 0 0 1-.551-.125 2.6 2.6 0 0 1-.476-.055v.33c0 .557-.183 1.03-.562 1.409l-.01.007-.008.009c-.47.375-.974.483-1.474.283l-.016-.007-.016-.01a27 27 0 0 1-.994-.62l-.01-.005q-.002-.003-.006-.004-1.089-.603-2.555-.971l-.007-.002-.009-.002c-.97-.323-2.196-.53-3.675-.613h-.012zm-389.437.126c-2.882 0-5.25.658-7.121 1.96-1.144.817-2.036 1.752-2.685 2.807q-.987 1.602-1.479 2.942l-.001.007-.003.007a26 26 0 0 0-.736 3.438v22.813a247.942 67.242 0 0 0 6.3 2.035v-28.238c0-1.95.424-3.577 1.288-4.872.966-1.407 2.5-2.099 4.561-2.099 1.038 0 1.914.261 2.624.791l.007.005a4.23 4.23 0 0 1 1.568 1.704q.515 1.03.644 2.3l.003.008v.004l.002.012q.25 1.131.25 2.147v31.419a247.942 67.242 0 0 0 6.3 1.657v-29.809q-.123-1.473-.616-3.205l-.003-.01-.002-.008c-.246-1.23-.616-2.201-1.093-2.917-.817-1.306-1.997-2.45-3.556-3.434-1.535-.97-3.614-1.465-6.252-1.465zm300.26 0c-2.882 0-5.249.658-7.121 1.96q-1.712 1.225-2.684 2.807-.986 1.602-1.476 2.942l-.002.007-.002.007a26 26 0 0 0-.735 3.438v41.22a247.942 67.242 0 0 0 6.3-.85v-43.76c0-1.95.423-3.577 1.286-4.872.967-1.407 2.498-2.099 4.56-2.099 1.037 0 1.915.261 2.626.791l.007.005a4.2 4.2 0 0 1 1.566 1.704q.513 1.03.643 2.3l.002.008v.004l.002.012a10 10 0 0 1 .251 2.147v42.133a247.942 67.242 0 0 0 6.3-1.026v-37.84q-.121-1.473-.616-3.205l-.002-.01-.002-.008c-.246-1.23-.616-2.201-1.093-2.917-.816-1.306-1.998-2.45-3.558-3.434-1.535-.97-3.614-1.465-6.252-1.465zm30.014 0c-2.882 0-5.25.658-7.121 1.96q-1.713 1.225-2.685 2.807-.988 1.605-1.478 2.95l-.002.007a26 26 0 0 0-.736 3.438v36.59a247.942 67.242 0 0 0 6.3-1.175v-38.805c0-1.95.422-3.578 1.285-4.873.967-1.406 2.5-2.098 4.562-2.098 1.033 0 1.908.26 2.617.786l.002.002h.004l.002.002.007.005a4.2 4.2 0 0 1 1.566 1.704q.513 1.03.644 2.3l.002.008v.004l.002.012q.248 1.131.248 2.147v36.571a247.942 67.242 0 0 0 6.303-1.409v-31.895q-.122-1.473-.616-3.205l-.002-.01-.002-.008c-.246-1.23-.615-2.201-1.093-2.918-.816-1.305-1.998-2.448-3.558-3.433-1.535-.97-3.614-1.465-6.252-1.465zm-360.71.498q-1.099.001-2.2.247c-2.806.495-4.832 1.554-6.123 3.168-1.23 1.641-2.092 3.2-2.583 4.666v.005l-.002.002-.002.009a24 24 0 0 1-.491 1.729 9.7 9.7 0 0 0-.123 1.57v9.298a247.942 67.242 0 0 0 6.428 3.34v-16.526c.087-1.221.61-2.39 1.551-3.502 1.038-1.125 2.169-1.74 3.404-1.829 2.468-.17 4.41.427 5.798 1.815 1.438 1.353 2.578 3.089 3.422 5.198.425 1.019.764 2.371 1.015 4.042v.007q.502 2.383.751 5.136.25 2.628.374 5.258.117 2.351.014 4.16h1.663V100.66h-1.806a4.4 4.4 0 0 1-.127.832l-.002.007-.003.01a7 7 0 0 1-.378.89c-.11.315-.37.556-.733.737l-.005.002-.007.002c-.662.284-1.326.184-1.967-.274-.578-.413-1.03-.699-1.344-.856l-.007-.005-.007-.002a14.8 14.8 0 0 0-4.31-1.722 10 10 0 0 0-2.2-.247zm298.73 0q-1.1.001-2.203.247c-2.806.495-4.83 1.554-6.12 3.168-1.23 1.641-2.092 3.2-2.583 4.666v.007h-.002l-.002.009a24 24 0 0 1-.494 1.729 10 10 0 0 0-.12 1.57v43.886a247.942 67.242 0 0 0 6.425-.586v-47.188c.087-1.222.612-2.39 1.554-3.502 1.037-1.125 2.168-1.74 3.404-1.829 2.467-.17 4.41.427 5.797 1.815 1.439 1.353 2.58 3.089 3.423 5.198.424 1.017.761 2.367 1.012 4.035v.002h.002v.011q.501 2.383.752 5.136.25 2.629.373 5.257.118 2.351.014 4.161h1.663v-27.168h-1.806a4.4 4.4 0 0 1-.127.832l-.002.007-.002.009q-.131.391-.38.89c-.112.316-.37.556-.734.738l-.005.002-.007.002c-.663.284-1.324.183-1.965-.275-.578-.413-1.03-.698-1.344-.855l-.007-.005-.007-.002a14.8 14.8 0 0 0-4.31-1.723 10 10 0 0 0-2.2-.246zm-46.574.125c-2.456.082-4.445.735-5.985 1.95-1.237.908-2.174 1.89-2.822 2.943q-.99 1.608-1.479 3.08a26 26 0 0 0-.737 3.442v46.477a247.942 67.242 0 0 0 6.424-.233v-16.493h11.07v15.98a247.942 67.242 0 0 0 6.424-.362v-46.372c-.164-2.454-1.056-4.607-2.693-6.49-1.641-1.968-3.633-3.186-6.001-3.676a10 10 0 0 0-2.202-.246zm-114.442.378-8.225.12v1.681c1.738.034 2.895.462 3.35 1.372.448.895.648 2.636.648 5.1v46.32a247.942 67.242 0 0 0 2.175.192v-33.643l.44-.057 9.02 34.468a247.942 67.242 0 0 0 9.284.646v-50.302c0-1.098.165-1.94.537-2.498.442-.619.98-1.028 1.612-1.213a3.77 3.77 0 0 1 1.949-.263h1.9v-1.679q-.75-.014-2.044-.122c-.886-.08-1.631.041-2.255.353l-.007.005-.009.002q-1.295.517-2.834.516-1.417.002-2.472-.523c-.287-.144-.714-.229-1.275-.229h-.019l-.019-.002a9 9 0 0 0-1.462-.122h-1.65v1.677q2.026.025 3.832.507c1.447.362 2.166 1.548 2.166 3.466v49.233l-.44.055zm-92.28.122q-.518 0-1.038.09l-.097 1.338h1.135c.407 0 .757.039 1.033.125h.761l.04.015c.496.2.824.64 1.005 1.271.084.251.134.487.134.687l.062 37.794a247.942 67.242 0 0 0 6.666 1.521q.072-6.558.072-14.573v-23.992c0-1.15.408-1.984 1.241-2.447l.012-.007.013-.005c.463-.185 1.578-.259 3.11-.265v-1.464a7 7 0 0 0-1.154-.088h-2.984a9 9 0 0 0-1.681.36l-.01.004c-.448.177-.973.26-1.571.26q-1.028.001-2.173-.253-.981-.246-1.478-.371zm24.952 0v.803h1.15c.407 0 .76.038 1.036.124h.759l.04.017c.496.198.824.638 1.005 1.27.084.25.133.487.133.688v43.798a247.942 67.242 0 0 0 6.676 1.157v-46.93h6.471c1.035 0 1.877.258 2.51.794l.006.004.005.005a4.9 4.9 0 0 1 1.555 1.946l.005.01q.633 1.146.887 2.42.256 1.268.257 2.417v41.174a247.942 67.242 0 0 0 6.175.881v-40.04c-.246-3.2-1.466-5.713-3.671-7.591-2.215-1.969-4.818-2.947-7.852-2.947zm29.795 0v.803q1.491.015 2.672.249h.004l.002.002h.002l.012.002c.949.105 1.43.795 1.43 1.97v48.254a247.942 67.242 0 0 0 6.676.834v-11.45h6.127l.03.01c1.244.355 1.937 1.13 2.034 2.304v.002l.002.002v.013q.237 1.538.251 3.29h1.55a13 13 0 0 0-.123-1.619l-.25-1.512v-1.365c-.165-.66-.25-1.217-.25-1.654 0-.516.087-1.336.252-2.407l.002-.01.002-.01q.241-.968.242-2.194v-.02q.105-1.157.122-1.77l-1.674-.1v1.122q.126.908-.13 1.814l-.005.014a3.2 3.2 0 0 1-.655 1.442l-.01.011c-.307.488-.888.708-1.673.708h-5.846v-37.808h.224q1.385-.001 2.647.125 1.392.127 2.785.507l.007.002.007.002c1.48.523 2.607 1.61 3.379 3.24.84 1.597 1.43 3.369 1.766 5.306.418 1.919.668 3.848.752 5.777q.118 2.695.127 4.407c.672-.006 1.194-.036 1.552-.088v-20.206zm72.251 0v.803q1.492.015 2.673.249h.004l.002.002h.002l.012.002c.949.105 1.43.795 1.43 1.97v54.183a247.942 67.242 0 0 0 6.673.232v-16.776h6.13l.03.009c1.247.356 1.942 1.134 2.036 2.313v.009q.235 1.538.25 3.29h1.549a13 13 0 0 0-.12-1.619l-.249-1.494-.002-.018v-1.365c-.163-.66-.251-1.216-.251-1.653 0-.517.089-1.337.254-2.408l.002-.01.002-.01q.241-.967.242-2.194v-.02c.07-.768.11-1.36.122-1.768v-.002l-1.674-.099v1.12a4.4 4.4 0 0 1-.127 1.804q0 .006-.002.011l-.005.014a3.2 3.2 0 0 1-.654 1.442l-.01.011c-.307.488-.888.709-1.674.709h-5.849v-37.81h.223q1.385-.001 2.648.125 1.392.127 2.786.507l.007.002.007.002c1.48.523 2.606 1.61 3.378 3.24.84 1.597 1.432 3.369 1.769 5.306.417 1.919.668 3.848.752 5.777q.118 2.695.124 4.407c.672-.006 1.193-.036 1.552-.088v-20.206zm28.868 0v.803h1.15c.407 0 .76.038 1.036.124h.634l.04.017c.496.198.824.638 1.005 1.27.084.25.133.487.133.688v54.955a247.942 67.242 0 0 0 6.103.02 247.942 67.242 0 0 0 .574 0V142.87l.022-.045c.114-.228.372-.421.695-.586.104-.097.277-.225.488-.367.185-.18.407-.31.667-.401q.379-.25.87-.496h.002v-.002h.004c.68-.38 1.557-.217 2.585.383 1.02.595 2.122 1.483 3.295 2.656 1.29 1.29 2.14 3.13 2.562 5.494.502 2.256.793 4.77.877 7.531q.02.704.031 1.413a247.942 67.242 0 0 0 5.855-.1 34 34 0 0 0-.333-3.272 27 27 0 0 0-1.24-5.084 18.3 18.3 0 0 0-2.47-4.69c-.989-1.482-2.256-2.753-3.817-3.821q-1.964-1.35-4.036-1.713l-.71-.127.657-.297q1.37-.624 2.5-1.002.005-.001.009-.004h.002l.002-.002h.004c.553-.245.975-.424 1.164-.482a1 1 0 0 1 .111-.027c1.586-.532 2.91-1.324 3.983-2.375 1.078-1.058 1.903-2.38 2.476-3.976.413-1.155.655-2.14.736-2.947l.002-.01.002-.011q.149-.75.208-1.13c.026-.17.039-.29.039-.325v-15.871a9.6 9.6 0 0 0-1.222-4.262c-.66-1.317-1.515-2.417-2.574-3.314-.982-.9-2.162-1.591-3.554-2.082l-.009-.004-.007-.002a10.25 10.25 0 0 0-4.157-.858zm173.645 0v.803h1.15c.408 0 .758.039 1.034.124h.759l.039.017c.496.198.827.637 1.007 1.27.084.25.135.487.135.688v37.27a247.942 67.242 0 0 0 6.673-1.725v-37.52h6.473c1.035 0 1.875.258 2.507.794l.007.004.005.005a4.9 4.9 0 0 1 1.552 1.937q.001.005.005.01l.005.009q.634 1.146.888 2.42.255 1.268.254 2.417v26.564a247.942 67.242 0 0 0 6.175-1.976v-22.572c-.246-3.201-1.466-5.714-3.671-7.592-2.215-1.969-4.816-2.947-7.85-2.947zm-122.27.423a5 5 0 0 1 .495.007c1.305.087 2.51.606 3.628 1.552l.011.011.012.011q.901 1.03 1.294 2.2c.247.66.42 1.219.507 1.652l.005.02v32.862h-11.07v-32.963q.001-1.043.39-2.078l.003-.007.002-.004c.34-.764.727-1.377 1.169-1.819l.011-.012.015-.009c1.193-.894 2.369-1.375 3.528-1.422zm-40.7.504h5.97q.67.001 1.446.26c.552.185 1.163.63 1.838 1.304l.007.007.007.009a4.55 4.55 0 0 1 .913 1.822l.005.016q.374.878.624 1.875l.005.016.002.014q.127 1.136.127 2.274v19.994c0 2.096-.253 3.795-.767 5.082-.422 1.18-.977 2.13-1.672 2.825q-.904.905-1.956 1.299c-.57.245-1.027.452-1.354.615-.921.42-1.793.835-2.624 1.25l-.007.005-.009.002a7.5 7.5 0 0 0-2.183 1.335l-.371.325zm91.675 36.914a4 4 0 0 0-.523.023q-.836.105-1.425.122v1.559a3.94 3.94 0 0 1 1.748.517c.785.306 1.125 1.257 1.125 2.7v10.187a247.942 67.242 0 0 0 6.3-.72v-9.467c0-.923.127-1.668.395-2.212v-.004h.002v-.002q0-.002.002-.005c.295-.67 1.173-.966 2.475-.996v-1.554h-2.775c-.384 0-.721.076-1.02.224l-.006.002c-.625.353-1.411.523-2.348.523q-1.417.002-2.474-.523a3.5 3.5 0 0 0-1.476-.374z" style="font-stretch:condensed;font-size:105.833px;font-family:Ayres;-inkscape-font-specification:&quot;Ayres Condensed&quot;;text-align:center;text-anchor:middle;fill:url(#bn);stroke-width:13.759;stroke-linecap:round;stroke-linejoin:round"/><rect width="508" height="290.491" rx="15.251" ry=".06" style="opacity:1;mix-blend-mode:overlay;fill:url(#bo);stroke-width:1.34887"/></svg>