<svg xmlns="http://www.w3.org/2000/svg" xmlns:xlink="http://www.w3.org/1999/xlink" xml:space="preserve" width="3000" height="3600"><defs><linearGradient id="B"><stop offset="0" stop-color="#9aeb99"/><stop offset="1" stop-color="#9aeb99" stop-opacity="0"/></linearGradient><linearGradient id="ad"><stop offset="0" stop-color="#8deedb"/><stop offset="1" stop-color="#8deedb" stop-opacity="0"/></linearGradient><linearGradient id="A"><stop offset="0" stop-color="#8bf1f7"/><stop offset=".351" stop-color="#90e68e"/><stop offset=".702" stop-color="#dcec6b"/></linearGradient><linearGradient id="z"><stop offset="0" stop-color="#cd6e22"/><stop offset="1" stop-color="#cd6e22" stop-opacity="0"/></linearGradient><linearGradient id="ac"><stop offset="0" stop-color="#f0a215"/><stop offset="1" stop-color="#f0a215" stop-opacity="0"/></linearGradient><linearGradient id="ab"><stop offset="0" stop-color="#f4c697" stop-opacity=".631"/><stop offset="1" stop-color="#e17a16" stop-opacity="0"/></linearGradient><linearGradient id="aa"><stop offset="0" stop-color="#e57615"/><stop offset="1" stop-color="#e57615" stop-opacity="0"/></linearGradient><linearGradient id="y"><stop offset="0" stop-color="#ef9f2c"/><stop offset="1" stop-color="#cf7420"/></linearGradient><linearGradient id="Z"><stop offset="0" stop-color="#de851f"/><stop offset="1" stop-color="#de851f" stop-opacity="0"/></linearGradient><linearGradient id="Y"><stop offset="0" stop-color="#d9811b"/><stop offset="1" stop-color="#d9811b" stop-opacity="0"/></linearGradient><linearGradient id="X"><stop offset="0" stop-color="#d9811b"/><stop offset="1" stop-color="#d9811b" stop-opacity="0"/></linearGradient><linearGradient id="x"><stop offset="0" stop-color="#ae5f1d"/><stop offset="1" stop-color="#be671f"/></linearGradient><linearGradient id="w"><stop offset="0" stop-color="#a0602b"/><stop offset="1" stop-color="#98531a"/></linearGradient><linearGradient id="W"><stop offset="0" stop-color="#e67715"/><stop offset="1" stop-color="#e67715" stop-opacity="0"/></linearGradient><linearGradient id="V"><stop offset="0" stop-color="#e67614" stop-opacity=".507"/><stop offset="1" stop-color="#e67614" stop-opacity="0"/></linearGradient><linearGradient id="v"><stop offset="0" stop-color="#b2621e"/><stop offset="1" stop-color="#a35a1b"/></linearGradient><linearGradient id="U"><stop offset="0" stop-color="#ed8b34"/><stop offset="1" stop-color="#ed8b34" stop-opacity="0"/></linearGradient><linearGradient id="R"><stop offset="0" stop-color="#bd570c"/><stop offset="1" stop-color="#bd570c" stop-opacity="0"/></linearGradient><linearGradient id="P"><stop offset="0" stop-color="#bd570c"/><stop offset="1" stop-color="#bd570c" stop-opacity="0"/></linearGradient><linearGradient id="O"><stop offset="0" stop-color="#e79912"/><stop offset="1" stop-color="#e79912" stop-opacity="0"/></linearGradient><linearGradient id="N"><stop offset="0" stop-color="#cd850a" stop-opacity=".515"/><stop offset="1" stop-color="#cd850a" stop-opacity="0"/></linearGradient><linearGradient id="M"><stop offset="0" stop-color="#c96c22"/><stop offset="1" stop-color="#c96c22" stop-opacity="0"/></linearGradient><linearGradient id="L"><stop offset="0" stop-color="#d8ac94"/><stop offset="1" stop-color="#d3a287" stop-opacity="0"/></linearGradient><linearGradient id="u"><stop offset="0" stop-color="#c07718" stop-opacity=".462"/><stop offset="1" stop-color="#c07718" stop-opacity="0"/></linearGradient><linearGradient id="s"><stop offset="0" stop-color="#6e391a"/><stop offset=".5" stop-color="#9a4f24"/><stop offset="1" stop-color="#5f3417"/></linearGradient><linearGradient id="r"><stop offset="0" stop-color="#6f391a"/><stop offset=".5" stop-color="#9a4f24"/><stop offset="1" stop-color="#6f391a"/></linearGradient><linearGradient id="J"><stop offset="0" stop-color="#9a5c3b"/><stop offset="1" stop-color="#9a5c3b" stop-opacity="0"/></linearGradient><linearGradient id="p"><stop offset="0" stop-color="#4c2b13"/><stop offset=".5" stop-color="#9a4f24"/><stop offset="1" stop-color="#6c3d1b"/></linearGradient><linearGradient id="o"><stop offset="0" stop-color="#965939"/><stop offset=".5" stop-color="#bc744e"/><stop offset="1" stop-color="#965939"/></linearGradient><linearGradient id="G"><stop offset="0" stop-color="#c2805a"/><stop offset="1" stop-color="#c2805a" stop-opacity="0"/></linearGradient><linearGradient id="m"><stop offset="0" stop-color="#9f613f"/><stop offset=".5" stop-color="#c07b54"/><stop offset="1" stop-color="#9f613f"/></linearGradient><linearGradient id="l"><stop offset="0" stop-color="#643418"/><stop offset="1" stop-color="#643418" stop-opacity="0"/></linearGradient><linearGradient id="F"><stop offset="0" stop-color="#ce9c7e"/><stop offset="1" stop-color="#ce9c7e" stop-opacity="0"/></linearGradient><linearGradient id="i"><stop offset="0" stop-color="#a56845" stop-opacity=".437"/><stop offset="1" stop-color="#a56845" stop-opacity="0"/></linearGradient><linearGradient id="h"><stop offset="0" stop-color="#955b38"/><stop offset=".5" stop-color="#c2825c"/><stop offset="1" stop-color="#955b38"/></linearGradient><linearGradient id="g"><stop offset="0" stop-color="#6f391a"/><stop offset="1" stop-color="#6f391a" stop-opacity="0"/></linearGradient><linearGradient id="f"><stop offset="0" stop-color="#8a5434"/><stop offset="1" stop-color="#8a5434" stop-opacity="0"/></linearGradient><linearGradient id="E"><stop offset="0" stop-color="#c07f58"/><stop offset="1" stop-color="#c07f58" stop-opacity="0"/></linearGradient><linearGradient id="C"><stop offset="0" stop-color="#de891f"/><stop offset="1" stop-color="#de891f" stop-opacity="0"/></linearGradient><linearGradient id="e"><stop offset="0" stop-color="#d67a24"/><stop offset="1" stop-color="#d67a24" stop-opacity="0"/></linearGradient><linearGradient id="d"><stop offset="0" stop-color="#d67a24"/><stop offset="1" stop-color="#d67a24" stop-opacity="0"/></linearGradient><linearGradient id="c"><stop offset="0" stop-color="#ea9516"/><stop offset="1" stop-color="#ea9516" stop-opacity="0"/></linearGradient><linearGradient id="b"><stop offset="0" stop-color="#cb6e22"/><stop offset="1" stop-color="#cb6e22" stop-opacity="0"/></linearGradient><linearGradient id="a"><stop offset="0" stop-color="#f4a723"/><stop offset="1" stop-color="#e1920a"/></linearGradient><linearGradient xlink:href="#a" id="ah" x1="238.299" x2="81.747" y1="93.3" y2="318.38" gradientUnits="userSpaceOnUse"/><linearGradient xlink:href="#b" id="al" x1="115.906" x2="378.5" y1="697.811" y2="357.11" gradientUnits="userSpaceOnUse"/><linearGradient xlink:href="#c" id="ao" x1="299.267" x2="192" y1="0" y2="192" gradientUnits="userSpaceOnUse"/><linearGradient xlink:href="#d" id="ap" x1="79.72" x2="78.84" y1="289.691" y2="339.901" gradientUnits="userSpaceOnUse"/><linearGradient xlink:href="#e" id="aq" x1="227.803" x2="247.269" y1="300.858" y2="300.858" gradientUnits="userSpaceOnUse"/><linearGradient xlink:href="#f" id="aB" x1="132.588" x2="168.773" y1="41.873" y2="51.892" gradientUnits="userSpaceOnUse"/><linearGradient xlink:href="#g" id="az" x1="184.011" x2="184.011" y1="93.181" y2="69.914" gradientUnits="userSpaceOnUse"/><linearGradient xlink:href="#h" id="aH" x1="144.23" x2="226.814" y1="38.584" y2="64.109" gradientUnits="userSpaceOnUse"/><linearGradient xlink:href="#i" id="aD" x1="250.416" x2="212.244" y1="50.217" y2="57.596" gradientUnits="userSpaceOnUse"/><linearGradient xlink:href="#l" id="aG" x1="169.832" x2="177.176" y1="102.608" y2="75.199" gradientUnits="userSpaceOnUse"/><linearGradient xlink:href="#m" id="aJ" x1="210.789" x2="279.859" y1="72.293" y2="115.803" gradientTransform="translate(0 -.705)" gradientUnits="userSpaceOnUse"/><linearGradient xlink:href="#o" id="au" x1="231.857" x2="302.604" y1="581.831" y2="620.771" gradientUnits="userSpaceOnUse"/><linearGradient xlink:href="#p" id="at" x1="222.457" x2="290.825" y1="434.58" y2="480.525" gradientUnits="userSpaceOnUse"/><linearGradient xlink:href="#r" id="aI" x1="209.58" x2="282.242" y1="74.559" y2="117.848" gradientUnits="userSpaceOnUse"/><linearGradient xlink:href="#s" id="ay" x1="141.085" x2="218.563" y1="49.554" y2="74.559" gradientUnits="userSpaceOnUse"/><linearGradient xlink:href="#u" id="ax" x1="212.069" x2="110.383" y1="78.621" y2="57.597" gradientUnits="userSpaceOnUse"/><linearGradient xlink:href="#v" id="aP" x1="245.837" x2="245.953" y1="185.635" y2="142.135" gradientUnits="userSpaceOnUse"/><linearGradient xlink:href="#w" id="aN" x1="126.832" x2="176.751" y1="124.667" y2="124.667" gradientUnits="userSpaceOnUse"/><linearGradient xlink:href="#x" id="aO" x1="317.831" x2="280.305" y1="117.425" y2="132.869" gradientUnits="userSpaceOnUse"/><linearGradient xlink:href="#y" id="am" x1="90.342" x2="111.012" y1="210.448" y2="214.733" gradientUnits="userSpaceOnUse"/><linearGradient xlink:href="#z" id="aX" x1="184.176" x2="155.889" y1="134.729" y2="127.117" gradientUnits="userSpaceOnUse"/><linearGradient xlink:href="#h" id="aA" x1="144.23" x2="226.814" y1="38.584" y2="64.109" gradientUnits="userSpaceOnUse"/><linearGradient xlink:href="#l" id="aF" x1="169.832" x2="177.176" y1="102.608" y2="75.199" gradientUnits="userSpaceOnUse"/><linearGradient xlink:href="#A" id="ae" x1="1500" x2="1018.234" y1="0" y2="4041.235" gradientUnits="userSpaceOnUse"/><linearGradient xlink:href="#B" id="af" x1="2520.468" x2="1267.443" y1="3022.254" y2="644.345" gradientUnits="userSpaceOnUse"/><radialGradient xlink:href="#C" id="ar" cx="192" cy="239.743" r="68.667" fx="192" fy="239.743" gradientTransform="translate(.18 -19.36)" gradientUnits="userSpaceOnUse"/><radialGradient xlink:href="#E" id="aC" cx="188.323" cy="16.607" r="41.517" fx="188.323" fy="16.607" gradientTransform="translate(-23.816 13.166)scale(1.23934)" gradientUnits="userSpaceOnUse"/><radialGradient xlink:href="#F" id="aE" cx="191.034" cy="-37.662" r="43.214" fx="191.034" fy="-37.662" gradientTransform="translate(13.215 37.662)" gradientUnits="userSpaceOnUse"/><radialGradient xlink:href="#G" id="aK" cx="284.311" cy="84.363" r="30.889" fx="284.311" fy="84.363" gradientTransform="translate(-100.084 -35.137)scale(1.33333)" gradientUnits="userSpaceOnUse"/><radialGradient xlink:href="#J" id="av" cx="271.664" cy="67.81" r="40.731" fx="271.664" fy="67.81" gradientTransform="translate(54.126 22.055)" gradientUnits="userSpaceOnUse"/><radialGradient xlink:href="#L" id="aL" cx="234.015" cy="44.855" r="55.645" fx="234.015" fy="44.855" gradientTransform="translate(-196.308 -104.515)scale(1.88271)" gradientUnits="userSpaceOnUse"/><radialGradient xlink:href="#M" id="as" cx="243.787" cy="49.689" r="141.588" fx="243.787" fy="49.689" gradientTransform="translate(-7.248 -38.876)" gradientUnits="userSpaceOnUse"/><radialGradient xlink:href="#N" id="ak" cx="103.237" cy="306.192" r="121.043" fx="103.237" fy="306.192" gradientTransform="translate(-80.9 -65.76)scale(1.31203)" gradientUnits="userSpaceOnUse"/><radialGradient xlink:href="#O" id="aj" cx="334.996" cy="221.833" r="113.662" fx="334.996" fy="221.833" gradientTransform="matrix(1.20318 0 0 1.222 -34.374 -101.475)" gradientUnits="userSpaceOnUse"/><radialGradient xlink:href="#P" id="aM" cx="165.854" cy="82.459" r="138.342" fx="165.854" fy="82.459" gradientTransform="translate(-301.741 70.033)scale(1.29377)" gradientUnits="userSpaceOnUse"/><radialGradient xlink:href="#R" id="aw" cx="165.463" cy="81.265" r="119.501" fx="165.463" fy="81.265" gradientTransform="translate(-171.213 -129.716)scale(1.40547)" gradientUnits="userSpaceOnUse"/><radialGradient xlink:href="#U" id="aQ" cx="232.823" cy="141.273" r="42.677" fx="232.823" fy="141.273" gradientTransform="translate(11.569 6.12)" gradientUnits="userSpaceOnUse"/><radialGradient xlink:href="#V" id="aR" cx="246.332" cy="227.362" r="48.946" fx="246.332" fy="227.362" gradientTransform="matrix(1 0 0 .61803 1.485 73.062)" gradientUnits="userSpaceOnUse"/><radialGradient xlink:href="#W" id="aS" cx="217.653" cy="157.616" r="53.523" fx="217.653" fy="157.616" gradientTransform="translate(-160.886 -234.154)scale(1.91763)" gradientUnits="userSpaceOnUse"/><radialGradient xlink:href="#X" id="aT" cx="135.315" cy="105.635" r="57.019" fx="135.315" fy="105.635" gradientTransform="translate(44.072 -19.205)" gradientUnits="userSpaceOnUse"/><radialGradient xlink:href="#Y" id="aU" cx="244.236" cy="101.072" r="51.575" fx="244.236" fy="101.072" gradientTransform="translate(26.272 -3.916)" gradientUnits="userSpaceOnUse"/><radialGradient xlink:href="#Z" id="aV" cx="140.856" cy="70.873" r="67.9" fx="140.856" fy="70.873" gradientTransform="matrix(1 0 0 .98477 6.844 -2.977)" gradientUnits="userSpaceOnUse"/><radialGradient xlink:href="#aa" id="aW" cx="295.718" cy="68.298" r="33.794" fx="295.718" fy="68.298" gradientTransform="translate(-34.709 49.472)" gradientUnits="userSpaceOnUse"/><radialGradient xlink:href="#ab" id="an" cx="197.139" cy="137.07" r="109.71" fx="197.139" fy="137.07" gradientTransform="translate(-60.52 -68.441)scale(1.53496)" gradientUnits="userSpaceOnUse"/><radialGradient xlink:href="#ac" id="ai" cx="207.863" cy="311.645" r="90.623" fx="207.863" fy="311.645" gradientTransform="translate(66.38 72.355)" gradientUnits="userSpaceOnUse"/><radialGradient xlink:href="#ad" id="ag" cx="2670.035" cy="0" r="1357.645" fx="2670.035" fy="0" gradientTransform="translate(6.244 602.32)" gradientUnits="userSpaceOnUse"/><filter id="aY" width="1.035" height="1.116" x="-.018" y="-.058" color-interpolation-filters="sRGB"><feGaussianBlur stdDeviation="10.547"/></filter><filter id="aZ" width="1.04" height="1.082" x="-.02" y="-.041" color-interpolation-filters="sRGB"><feGaussianBlur stdDeviation="14.951"/></filter></defs><path fill="url(#ae)" d="M0 0h3000v3600H0z"/><path fill="url(#af)" d="m1421.672 640.377-.106.002-.14.004q-1.204.024-2.403.059c-3.64.106-7.252.282-10.845.533a246 246 0 0 0-15.227 1.54 235 235 0 0 0-15.435 2.585v.002q-2.421.488-4.858 1.033c-.06.014-.12.02-.181.033-.04.01-.085.023-.124.031-5.736 1.29-11.742 2.875-17.912 4.7a390 390 0 0 0-13.168 4.152c-1.846.617-3.71 1.29-5.566 1.937-.545.19-1.05.363-1.596.555l-.074.026q-1.194.418-2.387.832c-.325.116-.649.222-.974.34l-.01.161c-.886.32-1.733.71-2.62 1.036-7.82 2.88-15.529 5.877-22.988 9.033l.025.039a551 551 0 0 0-18.742 8.256c-6.17 2.847-11.663 5.422-17.095 8.187-2.931 1.491-5.848 2.894-8.502 4.326-8.602 4.637-16.06 8.988-20.803 12.473v.004c-1.295.951-2.51 1.887-3.617 2.858-2.673 2.337-4.736 4.872-5.852 8.314-2.693 6.196-4.865 12.634-6.85 19.156-.203.67-.505 1.293-.702 1.965v.002a250 250 0 0 0-2.096 7.576c-1.755 6.743-3.267 13.592-4.662 20.485-2.454 12.116-4.547 24.367-6.963 36.404-.013 1.38.029 2.861.162 4.467-25.691 10.999-51.155 24.119-76.467 38.402-7.667 4.326-15.235 9.205-22.857 13.846-16.092 9.798-32.081 20.16-47.946 31.408l-.367-.629c-2.662 1.89-5.17 4.618-7.826 6.549-7.357 5.35-14.681 10.762-21.98 16.437-20.054 15.591-39.839 32.548-59.4 50.684-4.664 4.323-9.432 8.083-14.063 12.555-1.192 1.15-2.431 2.071-3.621 3.232v.002c-24.219 23.626-47.997 49.333-71.258 77.211-.058.07-.12.12-.178.19-.002 0-.002 0-.004.01-27.556 33.042-55.445 70.682-82.512 110.91l-.029.183c-3.39 5.04-6.4 10.543-9.762 15.66-15.876 24.152-30.526 49.074-45.482 74.455-9.787 16.605-19.814 32.409-29.037 49.248-4.589 8.376-8.762 16.448-13.186 24.838l-.62-.05c-11.399 21.61-20.575 42.707-30.686 64.083-5.97 12.62-12.896 25.298-18.34 37.702-1.262 2.873-2.574 5.686-3.805 8.544-16.543 38.4-30.542 75.48-40.701 109.588-.018.06-.055.132-.072.192-18.204 61.174-22.983 106.534-19.47 150.922 9.256 94.742 49.315 167.207 125.03 226.172 10.129 8.862 10.548 7.603 19.2 60.988 20.456 127.171 39.252 254.638 45.782 383.392 2.007 19.058 4.946 40.497 10.065 62.145 7.804 33 20.69 66.48 43.115 92.729 59.533 69.68 165.39 99.797 281.139 110.12.986.089 2.02-.031 3.008.054 114.925 9.904 239.222.725 337.476-8.682 52.457-5.022 92.044-11.284 122.07-17.1v.01c14.883-2.882 27.414-5.658 38-8.119 8.443-1.96 15.647-3.718 21.82-5.174 7.025-1.655 12.551-2.858 17.331-3.744 1.476-.273 2.509-.332 3.824-.535 5.436-.84 10.009-1.271 13.805-.943.163.014.348 0 .51.018h.01c4.665.469 8.808 1.806 14.107 3.941 5.358 2.16 11.899 5.135 19.61 8.356 12.634 5.277 28.41 11.21 47.279 15.273 5.5 1.184 11.023 1.863 16.54 2.643 2.76.39 5.51 1.029 8.272 1.32 8.29.874 16.594 1.309 24.895 1.328 33.206.077 66.407-6.49 98.79-18.164 2.186-.788 4.282-2.02 6.46-2.853 13.958-5.345 27.837-11.204 41.402-18.295 4.368-2.283 8.5-5.254 12.819-7.702 11.18-6.336 22.395-12.606 33.189-19.943 7.623-5.181 14.797-11.19 22.195-16.809 7.126-5.411 14.483-10.418 21.375-16.189 25.143-21.052 48.321-44.54 69.621-68.975 2.487-2.852 5.275-5.525 7.7-8.406.026-.033.06-.068.09-.102 10.551-12.542 15.821-20.272 19.873-24.933 1.012-1.165 1.948-2.136 2.87-2.945 2.772-2.428 5.427-3.374 9.679-3.575 11.336-.535 34.013 4.238 60.273-1.73 35.562-9.36 65.553-24.962 91.057-45.233 1.2-.954 2.264-2.048 3.445-3.023a890.936 904.868 0 0 0 .162.094c2.896-2.391 5.55-5.031 8.33-7.543 2.528-2.284 5.142-4.48 7.576-6.86 3.352-3.276 6.493-6.762 9.672-10.212 2.1-2.28 4.293-4.465 6.32-6.817 10.19-11.814 19.455-24.533 27.95-37.957.207-.327.475-.597.681-.925 7.614-12.117 14.593-24.813 21.024-37.96 6.43-13.147 12.313-26.744 17.736-40.667 32.538-83.541 48.514-178.77 66.86-258.266 21.607-93.63 36.161-193.197 37.542-293.918 1.384-100.72-10.404-202.596-41.49-300.851-6.423-20.302-14.97-38.623-22.726-57.69l1.463-1.25c-3.365-8.274-7.678-15.612-11.278-23.658-.442-.989-.765-2.09-1.21-3.076-2.142-4.732-3.601-10.12-5.821-14.774-2.9-6.078-6.65-11.265-9.68-17.21-9.253-18.156-19.142-35.573-29.535-52.516-6.298-10.27-12.434-20.644-19.115-30.479-11.931-17.564-24.651-34.106-37.68-50.322-6.177-7.688-11.973-15.808-18.371-23.201-19.648-22.704-40.098-44.285-61.512-64.297-.157-.147-.295-.326-.453-.473 23.762-31.556 37.853-65.214 36.46-79.295-.119-4.802-1.6-10.583-5.186-18.36-3.749-8.67-8.168-15.27-8.66-15.995l-.041-.069c-.037-.059-.101-.141-.137-.2-3.035-5.016-6.626-10.599-10.668-16.48v-.001c-.802-1.167-1.993-2.386-2.828-3.573-8.524-12.147-18.055-24.766-28.674-36.203-.019-.02-.034-.044-.053-.064l-.324-.348q-.682-.73-1.365-1.451c-21.864-23.065-70.733-56.347-125.475-86.332-54.74-29.988-115.354-56.679-160.709-66.557-30.408-6.622-54.588-6.206-75.75-3.449-.612.08-1.29.108-1.897.192-21.593 2.975-40.02 8.349-53.744 14.107-8.94 3.751-15.887 7.667-20.996 11.021a88 88 0 0 0-6.64 4.786h-.014l-.012.013c-2.286 1.827-3.67 3.168-4.631 4.623-.373.563-.68 1.145-.955 1.776v.008c-5.608 6.26-14.536 15.954-22.56 23.705l-.25-.406a125 125 0 0 0-5.178-7.768v-.002c-2.9-4.002-5.882-7.537-9.098-10.777-2.573-2.593-5.334-4.987-8.281-7.293-.478-.374-1.016-.745-1.506-1.114-.258-.194-.456-.422-.717-.615-1.126-.83-2.43-1.63-3.625-2.445-.836-.57-1.553-1.165-2.426-1.73-.074-.049-.19-.1-.266-.149-.16-.103-.405-.216-.566-.318v-.004c-6.207-3.966-13.292-7.894-21.883-12.29-19.626-10.04-46.633-22.565-75.887-33.566-11.608-4.365-23.57-8.491-35.564-12.127l-.041-.01q-.86-.262-1.72-.515c-13.402-4.008-26.561-6.52-39.796-9.399l.164-.789c-3.448-.753-6.34-.818-9.76-1.502l-.061-.01h-.01c-3.968-.795-8.083-2.11-11.998-2.816h-.01c-20.247-3.653-39.719-6.169-57.534-7.836-14.843-1.39-28.367-1.886-41.546-1.867-1.834.003-3.95-.296-5.766-.26z" style="mix-blend-mode:multiply"/><path fill="url(#ag)" d="M1459.559 0a1357.65 1357.65 0 0 0-140.924 602.32 1357.645 1357.645 0 0 0 1357.644 1357.645 1357.7 1357.7 0 0 0 323.721-39.16V0z" style="mix-blend-mode:overlay"/><g transform="translate(252.31 442.89)scale(6.5148)"><path fill="url(#ah)" d="M332.999 231.313c-5.927 25.68-10.242 62.056-40.034 69.897-4.03.916-7.511.184-9.251.266s-1.74.979-4.978 4.829c-14.254 16.943-35.507 30.786-55.773 26.424-4.664-1.004-8.097-2.753-10.267-3.628-2.17-.874-3.077-.874-7.611.195-4.535 1.068-12.697 3.206-27.92 4.664-30.422 2.912-77.14 5.812-95.416-15.58-5.7-6.672-7.385-16.388-8.162-23.773-1.003-19.763-3.888-39.33-7.029-58.85-1.328-8.194-1.392-8-2.947-9.36-11.622-9.051-17.77-20.174-19.191-34.717-.54-6.813.193-13.775 2.987-23.165 6.938-23.316 24.943-55.469 42.095-76.036 35.725-42.838 79.456-52.039 118.276-46.77 31.399 4.26 103.195 26.608 124.614 94.309 9.543 30.164 7.24 62.55.607 91.295"/><path fill="url(#ai)" d="M279.742 275.11a90.62 90.62 0 0 0-83.84 56.226c4.106-.795 7.046-1.538 9.182-2.041 4.534-1.069 5.441-1.068 7.611-.193 2.17.874 5.604 2.622 10.268 3.627 20.265 4.362 41.52-9.48 55.773-26.424 3.239-3.85 3.237-4.746 4.977-4.828 1.74-.083 5.221.65 9.252-.266 10.917-2.873 18.414-9.58 23.822-18.186a90.6 90.6 0 0 0-37.045-7.916" style="mix-blend-mode:multiply"/><path fill="url(#aj)" d="M274.133 69.256a136.756 138.894 0 0 0-42.203 100.348 136.756 138.894 0 0 0 75.566 124.214c16.977-14.02 20.713-41.754 25.502-62.505 6.633-28.745 8.938-61.132-.605-91.295-10.665-33.71-33.822-56.175-58.26-70.762" style="mix-blend-mode:overlay"/><path fill="url(#ak)" d="M61.775 134.729c-6.23 11.813-11.347 23.636-14.367 33.785-2.794 9.39-3.527 16.352-2.988 23.166 1.42 14.542 7.57 25.666 19.191 34.716 1.555 1.36 1.62 1.167 2.948 9.362 3.14 19.52 6.025 39.086 7.027 58.85.777 7.384 2.462 17.1 8.162 23.773 18.276 21.392 64.995 18.49 95.418 15.578 15.223-1.458 23.383-3.595 27.918-4.664 2.03-.479 3.335-.743 4.35-.81a158.8 158.8 0 0 0 3.93-35.108 158.81 158.81 0 0 0-151.59-158.648" style="mix-blend-mode:multiply"/><path fill="url(#al)" d="M61.34 604.185c1.624 3.07 3.664 5.468 6.045 7.12 4.526 3.332 9.835 2.967 15.11 2.548 2.368-.188 4.877-.258 6.98.228 6.339 1.466 6.266 8.362 1.911 11.706-2.602 1.999-6.667 2.87-11.411 1.369.677 17.928 1.355 35.854 3.443 50.324 5.532 38.34 18.689 41.088 37.975 42.39 27.08 1.83 54.167-.235 82.783-5.864 5.151-1.014 5.335-.647 7.625.27 2.29.915 6.686 2.382 10.9 3.114 26.838 5.191 40.991-15.543 56.166-33.568 5.027-5.622 8.968-1.779 10.235-.195.906 1.133 1.36 2.236 2.494 2.69 1.133.453 2.946.258 4.857-1.005 9.06-5.989 20.85-38.335 26.697-71.166 13.404-75.249-23.194-125.427-72.579-146.819-24.692-10.696-52.581-14.196-79.015-10.034C78.063 472.01 48.676 580.24 61.34 604.185" transform="translate(0 -397.992)"/><path fill="url(#am)" d="M111.012 214.733c.308 1.83.178 3.773-1.15 5.457-3.36 4.263-9.463 3.605-11.724-1.23-2.096-4.482 2.13-11.426 7.44-10.373 2.584.513 4.87 2.79 5.434 6.146"/><path fill="url(#an)" d="M193.016 44.45C158.15 43.266 120.76 54.994 89.502 92.478c-4.23 5.072-8.511 10.85-12.666 17.025a168.4 168.4 0 0 0-3.156 32.451 168.4 168.4 0 0 0 168.4 168.4 168.4 168.4 0 0 0 36.643-4.035l.013-.015c3.239-3.85 3.237-4.746 4.977-4.828 1.74-.083 5.221.65 9.252-.266 29.791-7.841 34.107-44.218 40.033-69.898 6.633-28.745 8.938-61.132-.605-91.295-21.42-67.701-93.216-90.048-124.616-94.309a147 147 0 0 0-14.761-1.26" style="mix-blend-mode:overlay"/><path fill="#fdfeff" d="M127.664 86.543c1.128 1.39 1.794 3.306 1.753 5.264s-.792 3.958-2.605 5.688-4.687 3.187-7.062 3.645c-8.97 1.731-11.828-9.254-1.949-15.943 2.94-1.99 6.581-2.693 9.863 1.346"/><path fill="url(#ao)" d="M191.582 57.61c-6.718.09-13.417.65-20.025 1.69-36.31 5.717-62.952 25.537-81.215 49.048a150.31 150.31 0 0 0 149.469 134.44 150.3 150.3 0 0 0 83.048-25.026q.149-.804.291-1.608c13.404-75.249-23.195-125.426-72.58-146.818-18.519-8.022-38.835-11.996-58.988-11.727"/><ellipse cx="80.334" cy="314.799" fill="url(#ap)" rx="60.159" ry="25.11" transform="matrix(.97865 -.20552 .27569 .96125 0 0)"/><path fill="url(#aq)" d="M244.33 292.057c1.762 1.703 3.014 4.482 2.936 6.576-.079 2.094-1.488 3.503-2.114 4.756-.626 1.252-.47 2.348-1.213 3.836s-2.388 3.366-4.228 4.403c-1.84 1.038-3.875 1.233-5.088.627s-1.605-2.016-2.584-2.838c-6.233-2.473-4.668-8.58-1.174-13.485.47-.724.587-1.311.724-2.055 1.421-7.716 10.17-4.306 12.741-1.82"/><path fill="url(#ar)" d="M188.848 259.004a25.03 60.192 79.009 0 0-30.366 2.95 25.03 60.192 79.009 0 0-28.128 9.234 68.67 68.67 0 0 0 48.558 37.494 25.03 60.192 79.009 0 0 45.367-34.955 25.03 60.192 79.009 0 0-35.431-14.723"/><path fill="url(#as)" d="M194.512 44.508c-31.306-1.394-64.757 7.517-94.045 36.09a141.59 141.59 0 0 0 131.463 89.006 141.6 141.6 0 0 0 97.199-38.633c-24.669-60.669-91.395-81.197-121.352-85.262a147 147 0 0 0-13.265-1.201" style="mix-blend-mode:multiply"/><path fill="url(#at)" d="M304.846 459.82c.508 5.13-12.376 27.193-26.721 21.68-9.042-3.167-38.26-4.277-49.135-11.61-10.875-7.334-3.407-20.89-5.927-26.765-2.521-5.875-1.874-8.44-1.437-10.835 1.974-1.453 6.003-6.073 5.988-6.082 0 0-.855.67 6.4 2.647 6.974 2.022 20.211 7.024 32.384 11.69 12.173 4.667 23.28 8.998 29.32 11.753s7.012 3.933 7.334 4.043c.321.11-.338-1.806-.338-1.806s1.88 2.728 2.132 5.284" transform="translate(0 -384)"/><path fill="url(#au)" d="M226.539 585.933c-2.594 20.809 35.949 32.16 50.76 37.59 2.444.856 6.545 1.309 9.123 1.053 2.712-.269 5.329-.59 7.682-1.055 3.688-.73 6.73-1.813 8.5-2.75 1.771-.938 2.271-1.73 2.242-2.902s-.586-2.724-2.132-5.283c-1.545-2.56-4.08-6.124-6.76-8.953-6.712-7.08-30.006-20.434-43.93-23.467-4.802-1.046-8.602-.957-11.917-.5s-6.143 1.281-8.25 2.165c-2.106.884-3.491 1.827-4.243 2.427-.751.6-.87.859-1.075 1.675" transform="translate(0 -542.05)"/><path fill="url(#av)" d="M296.213 61.86a40.73 40.73 0 0 0-10.496 20.716q.368-.017.705-.05c2.712-.27 5.328-.59 7.682-1.055 3.687-.73 6.729-1.813 8.5-2.75s2.27-1.73 2.242-2.903c-.03-1.172-.585-2.724-2.131-5.283-1.496-2.476-3.918-5.894-6.502-8.676" style="mix-blend-mode:multiply"/><path fill="#d06d0f" d="M208.756 70.873c-.586.02-1.299.217-2.098.652a25 25 0 0 0-1.781 1.055c-.704.274-1.49.829-2.143 2.07a4 4 0 0 0-.113.22c-1.32 2.544-3.232 6.807-4.21 9.827a25 25 0 0 0 1.888-.082q.618-.051 1.2-.133c.948-2.36 2.078-4.826 2.95-6.53a4 4 0 0 1 .113-.222c.654-1.26 1.439-1.823 2.143-2.101a24 24 0 0 1 1.781-1.07c2.855-1.579 2.364-3.758.27-3.686M197.78 87.428c.452 3.654 2.675 8.33 4.975 12.353-1.552-3.14-2.818-6.388-3.147-9.086.025-.71.318-1.845.764-3.181a29 29 0 0 1-2.592-.086" style="mix-blend-mode:normal"/><path fill="url(#aw)" d="M199.668 57.729a142 142 0 0 0-28.111 1.572C78.063 74.018 48.677 182.249 61.34 206.193a167.955 167.955 0 0 0 166.312-144.52 145.4 145.4 0 0 0-27.984-3.944" style="mix-blend-mode:overlay"/><path fill="url(#ax)" fill-opacity=".252" d="m213.877 79.908-.252.115a536 536 0 0 1-3.549 1.608c-2.182.981-4.094 1.84-6.264 2.396a21 21 0 0 1-3.513.588c-1.28.106-2.688.113-4.293 0-10.8-.756-26.784-5.793-45.568-13.459q-.64-.262-1.229-.584h-.002q-.59-.32-1.13-.695h-.003l-.215-.15c3.626 3.95 33.81 16.483 49.922 17.7 1.605.122 3.014.114 4.293 0a19.5 19.5 0 0 0 3.514-.634c2.17-.6 4.081-1.526 6.264-2.584 1.132-.55 2.338-1.136 3.548-1.734l.252-.123c6.19-3.069 40.877-22.05-1.775-2.444" style="mix-blend-mode:multiply"/><path fill="url(#ay)" d="M139.873 55.883c1.243 4.303 3.74 12.488 10.565 15.273 18.785 7.666 34.767 12.703 45.567 13.46 6.42.45 9.708-1.023 14.072-2.985 4.365-1.963 9.805-4.417 12.487-6.196 2.783-1.846 6.85-13.48 6.474-14.49-.227-1.807-5.786-14.176-5.786-14.176s-3.242 12.258-4.25 10.551c-2.016-3.415-4.013-4.887-8.22-7.136s-10.628-5.275-17.109-7.327c-6.48-2.052-13.022-3.13-18.535-3.67-5.514-.538-9.997-.538-14.813.59-7.172 1.679-12.9-3.616-16.094-1.165.077.238.269.766-.016.908s-1.052-.105-1.437.78c-1.772 4.077-2.376 8.7-3.267 13.136-.006.641.067 1.425.362 2.447"/><path fill="url(#az)" d="M168.818 38.838c-7.219 2.26-18.733 2.594-27.2 4.703-.943 3.202-1.445 6.6-2.106 9.895-.006.64.066 1.424.361 2.447 1.243 4.302 3.74 12.488 10.565 15.273 18.784 7.666 34.768 12.702 45.568 13.46 6.42.449 9.706-1.022 14.07-2.985s9.807-4.417 12.488-6.195c1.737-1.152 3.972-6.112 5.317-9.926-6.016 1.208-12.282 2.48-12.281 1.306 0-2.217 1.139-6.206 2.564-10.804-1.77-2.527-3.755-3.89-7.383-5.828-4.208-2.25-10.626-5.274-17.107-7.327s-13.024-3.13-18.537-3.67c-2.247-.22-4.322-.348-6.319-.35"/><path fill="url(#aA)" d="M143.069 43.676c1.242 4.118 4.794 13.67 11.619 16.337 18.785 7.337 34.767 12.16 45.567 12.884 6.42.43 9.708-.979 14.072-2.858 4.365-1.879 9.805-4.227 12.487-5.93 1.34-.851 1.991-1.541 2.174-2.405.184-.864-.1-1.9-.628-3.447-1.057-3.092-3.092-8.22-5.108-11.488-2.016-3.269-4.013-4.678-8.22-6.83-4.208-2.154-10.628-5.05-17.109-7.015-6.48-1.964-13.022-2.996-18.535-3.512-5.514-.516-9.997-.516-14.813.564-7.172 1.607-17.15 6.262-20.344 8.607-.678.499-1.21.97-1.453 1.716-.242.748-.194 1.772.29 3.377"/><path fill="url(#aB)" d="M171.719 29.096a37 37 0 0 0-7.145.879c-7.172 1.607-17.15 6.263-20.344 8.609-.678.498-1.21.968-1.453 1.715-.242.747-.193 1.771.291 3.377 1.243 4.118 4.795 13.67 11.62 16.336q3.753 1.466 7.35 2.795a41.34 41.34 0 0 0 29.532-31.528c-4.305-.94-8.477-1.52-12.183-1.867-2.757-.258-5.256-.387-7.668-.316"/><path fill="url(#aC)" d="M171.719 29.096a37 37 0 0 0-7.145.879c-1.99.446-4.198 1.128-6.416 1.93a52 52 0 0 0-.033 1.843 51.45 51.45 0 0 0 10.777 31.51c12.63 4.348 23.398 7.105 31.354 7.638 6.42.431 9.706-.978 14.07-2.857s9.807-4.227 12.488-5.93c1.341-.851 1.99-1.542 2.174-2.406.184-.863-.1-1.899-.629-3.445-1.057-3.093-3.091-8.22-5.107-11.488-2.016-3.269-4.013-4.68-8.22-6.833-4.209-2.152-10.627-5.049-17.108-7.013s-13.024-2.996-18.537-3.512c-2.757-.258-5.256-.387-7.668-.316"/><path fill="url(#aD)" d="M203.383 34.785a33.2 33.2 0 0 0-1.59 10.154 33.21 33.21 0 0 0 11.82 25.407q.352-.15.713-.307c4.365-1.879 9.807-4.227 12.488-5.93 1.341-.851 1.99-1.542 2.174-2.406.184-.863-.1-1.899-.629-3.445-1.057-3.093-3.091-8.22-5.107-11.488-2.016-3.269-4.013-4.68-8.22-6.833a116 116 0 0 0-11.65-5.152" style="mix-blend-mode:multiply"/><path fill="url(#aE)" d="M172.11 29.086a37.6 37.6 0 0 0-6.762.725 43.21 43.21 0 0 0 36.927 20.77 43.2 43.2 0 0 0 20.182-5.005c-1.781-2.458-3.768-3.767-7.426-5.639-4.208-2.152-10.626-5.049-17.107-7.013s-13.024-2.996-18.537-3.512c-2.609-.244-4.986-.373-7.278-.326" style="mix-blend-mode:overlay"/><path fill="url(#aF)" d="M146.287 37.953c-.77.012-1.458.199-2.057.658.077.239.27.767-.015.909-.285.141-1.053-.106-1.438.779-1.772 4.077-2.375 8.7-3.265 13.137-.006.64.066 1.424.361 2.447 1.243 4.302 3.74 12.488 10.565 15.273 18.784 7.666 34.768 12.702 45.568 13.46 6.42.449 9.706-1.022 14.07-2.985s9.807-4.417 12.488-6.195c2.784-1.847 6.85-13.48 6.475-14.49-.138-1.097-2.24-6.084-3.871-9.835a53 53 0 0 1-3.145-.06c-1.028 3.35-2.42 7.286-3.021 6.27-2.016-3.415-4.013-4.888-8.22-7.137-4.209-2.25-10.627-5.274-17.108-7.327-2.136-.676-4.238-1.103-6.348-1.584-1.877-.438-3.578-.75-5.398-1.119-2.34-.386-4.69-.761-6.791-.967-5.513-.539-9.997-.54-14.813.588-5.827 1.365-10.701-1.874-14.037-1.822"/><path fill="url(#aG)" d="M144.885 38.229a3 3 0 0 0-.655.382c.077.239.27.767-.015.909-.285.141-1.053-.106-1.438.779-1.772 4.077-2.375 8.7-3.265 13.137-.006.64.066 1.424.361 2.447 1.243 4.302 3.74 12.488 10.565 15.273 18.784 7.666 34.768 12.702 45.568 13.46 6.42.449 9.706-1.022 14.07-2.985s9.807-4.417 12.488-6.195c2.784-1.847 6.85-13.48 6.475-14.49-.117-.932-1.65-4.667-3.11-8.069a73 73 0 0 1-4.202-.879c-.985 3.094-2.18 6.244-2.725 5.322-2.016-3.414-4.013-4.887-8.22-7.136-4.209-2.25-10.627-5.274-17.108-7.327-2.136-.676-4.238-1.103-6.348-1.584-1.877-.438-3.578-.75-5.398-1.119-2.34-.386-4.69-.761-6.791-.967-5.513-.539-9.997-.54-14.813.588-3.934.922-7.435-.255-10.32-1.101-.566.127-1.074.251-1.533.361-1.716.412-2.839-.121-3.586-.806"/><path fill="url(#aH)" d="M143.069 43.676c1.242 4.118 4.794 13.67 11.619 16.337 18.785 7.337 34.767 12.16 45.567 12.884 6.42.43 9.708-.979 14.072-2.858 4.365-1.879 9.805-4.227 12.487-5.93 1.34-.851 1.991-1.541 2.174-2.405.184-.864-.1-1.9-.628-3.447-1.057-3.092-3.092-8.22-5.108-11.488-2.016-3.269-4.013-4.678-8.22-6.83-4.208-2.154-10.628-5.05-17.109-7.015-6.48-1.964-13.022-2.996-18.535-3.512-5.514-.516-9.997-.516-14.813.564-7.172 1.607-17.15 6.262-20.344 8.607-.678.499-1.21.97-1.453 1.716-.242.748-.194 1.772.29 3.377"/><path fill="url(#aI)" d="M237.812 77.057c9.632 3.35 25.495 11.677 33.565 15.951s8.347 4.496 9.205 6.821 6.773-3.211 7.326.249c.277 1.73.547 3.073-.52 6.719-1.067 3.645-3.471 9.592-5.146 11.05-1.411 1.855-3.902 3.073-8.137 5.038s-10.213 4.678-15.334 5.979c-5.12 1.3-9.383 1.19-14.06.083-7.676-1.817-16.269-6.044-26.76-12.59-3.666-2.286-8.652-7.052-10.885-10.75-2.718-4.504-5.82-10.455-6.364-14.912.082-2.366 3.145-9.478 4.953-12.964s4.634-1.637 3.925-3.172c6.349 3.77 5.487 5.176 10.343 2.977 4.856-2.198 8.257-3.828 17.889-.479" transform="translate(-1.094)"/><path fill="url(#aJ)" d="M242.288 67.093c9.632 3.35 25.495 11.677 33.565 15.951s8.347 4.496 9.205 6.821 2.297 6.754 2.85 10.214c.554 3.46.222 5.95-1.19 7.805s-3.902 3.072-8.137 5.037-10.213 4.678-15.333 5.979c-5.121 1.3-9.383 1.19-14.061.083-7.676-1.817-16.269-6.044-26.76-12.59-3.666-2.286-8.652-7.052-10.884-10.75-2.719-4.503-5.821-10.455-6.364-14.912-.25-2.878.747-4.151 4.4-6.172s9.965-4.788 14.82-6.987 8.257-3.828 17.889-.479" transform="translate(-1.094)"/><path fill="url(#aK)" d="M239.357 66.172a41.2 41.2 0 0 0-1.546 11.175c0 18.739 12.648 35.115 30.779 39.85 3.591-1.333 7.177-2.97 9.992-4.275 4.235-1.966 6.725-3.183 8.137-5.038 1.411-1.854 1.743-4.346 1.19-7.806s-1.992-7.888-2.85-10.213-1.135-2.546-9.205-6.82-23.935-12.603-33.567-15.952a48 48 0 0 0-2.93-.921" transform="translate(-1.094)"/><path fill="url(#aL)" d="M172.11 29.086c-.102.002-.2.01-.301.014-.029 0-.062-.005-.09-.004q-.838.024-1.664.082a36.4 36.4 0 0 0-5.48.797c-1.501.336-3.124.807-4.782 1.36-.281.095-.565.197-.848.296-.092.032-.178.06-.271.094-.172.06-.343.117-.516.18v.025a79 79 0 0 0-3.931 1.545 104.76 104.76 0 0 0 90.046 51.222 104.76 104.76 0 0 0 56.784-16.722c-1.374-1.998-3.07-4.207-4.844-6.116l-.26-.275c-6.712-7.08-30.004-20.436-43.928-23.469-4.802-1.046-8.603-.956-11.918-.5-3.314.457-6.143 1.282-8.25 2.166-2.106.884-3.49 1.826-4.242 2.426h-.002l-.002.002c-.486.39-.706.635-.857.982-.861.962-2.233 2.45-3.465 3.641l-.037-.062c-.702-1.138-1.4-2.051-2.192-2.848h-.001a14 14 0 0 0-1.612-1.385c-1.176-.868-2.587-1.664-4.416-2.6-4.208-2.152-10.626-5.049-17.107-7.013-2.15-.651-4.264-1.062-6.387-1.524l.033-.12c-.53-.116-.973-.126-1.498-.231-3.761-.754-7.42-1.331-10.685-1.637a66 66 0 0 0-6.397-.287c-.28 0-.603-.045-.88-.039"/><path fill="url(#aM)" d="M116.874 66.866C107.4 73.59 98.212 82.034 89.501 92.48c-17.152 20.568-35.156 52.72-42.094 76.036-2.794 9.39-3.527 16.352-2.988 23.166 1.42 14.542 7.57 25.666 19.192 34.716 1.554 1.36 1.619 1.167 2.947 9.362 3.14 19.52 6.025 39.086 7.027 58.85.308 2.925.76 6.216 1.545 9.538a178.98 178.98 0 0 0 69.48-141.578 179 179 0 0 0-27.736-95.703" style="mix-blend-mode:overlay"/><path fill="url(#aN)" d="M169.879 125.873c5.878 5.25 7.7 8.368 6.542 9.392-3.858 3.406-16.807-10.223-35.759-9.458-6.274.253-10.006 1.762-12.297-.478-7.813-7.642 15.484-22.507 41.514.544"/><path fill="url(#aO)" d="M283.935 127.922c-4.976 6.082-6.36 9.657-5.158 10.766 3.941 3.634 14.48-11.848 31.001-11.257 5.222.186 8.334 1.734 10.086-.67 5.952-8.168-14.24-25.112-35.93 1.161" transform="rotate(5.903 -274.596 1071.744)scale(.64017)"/><path fill="url(#aP)" d="M245.569 195.848c-24.331-1.135-30.378-16.112-31.161-18.415-5.712-16.798 13.169-31.74 15.61-29.884 8.738 6.645 28.654 12.898 40.49 1.182 1.357-1.343 1.468-1.483 3.179-.034 3.015 2.553 6.07 8.36 7.228 13.7 4.406 20.322-19.195 34.204-35.346 33.45"/><path fill="#e67614" d="M244.693 169.027a41.64 41.64 0 0 0-28.812 11.577c2.95 5.163 10.823 14.364 29.687 15.244 9.895.461 22.586-4.57 29.92-13.21a41.64 41.64 0 0 0-30.795-13.61"/><path fill="url(#aQ)" d="M244.693 169.027a41.64 41.64 0 0 0-28.812 11.577c2.95 5.163 10.823 14.364 29.687 15.244 9.895.461 22.586-4.57 29.92-13.21a41.64 41.64 0 0 0-30.795-13.61"/><path fill="url(#aR)" d="M247.816 174.08a48.946 30.25 0 0 0-31.574 7.135c3.21 5.245 11.186 13.786 29.326 14.633 9.895.461 22.586-4.57 29.92-13.21a41.6 41.6 0 0 0-6.017-5.437 48.946 30.25 0 0 0-21.655-3.12" style="mix-blend-mode:multiply"/><path fill="url(#aS)" d="M229.502 147.393c-2.518-.081-10.538 6.007-14.248 14.691a102.6 102.6 0 0 0 41.238 8.65 102.6 102.6 0 0 0 24.96-3.082 23 23 0 0 0-.538-5.256c-1.158-5.34-4.211-11.145-7.226-13.699-1.711-1.448-1.823-1.31-3.18.033-11.836 11.716-31.751 5.464-40.49-1.181q-.195-.147-.516-.156" style="mix-blend-mode:multiply"/><path fill="url(#aT)" d="M141.9 113.521c-4.621-.007-8.444 1.125-11.084 2.778a57 57 0 0 0 7.48 9.664 49 49 0 0 1 2.366-.156c18.952-.765 31.9 12.863 35.758 9.457 1.159-1.023-.662-4.141-6.541-9.391-10.354-9.168-20.275-12.34-27.979-12.352" style="mix-blend-mode:overlay"/><path fill="url(#aU)" d="M296.38 126.598c-4.111-.143-9.404 1.739-15.232 7.476-3.568 3.545-4.687 5.73-3.994 6.516 2.27 2.574 10.002-6.59 20.483-5.127 3.313.463 5.193 1.653 6.467.238 2.704-3.006-.87-8.866-7.723-9.103" style="mix-blend-mode:overlay"/><path fill="url(#aV)" d="M143.244 113.557c-12.494-.601-19.762 6.995-14.879 11.771 2.292 2.24 6.024.732 12.297.479 9.584-.387 17.634 2.907 23.748 5.818a67.9 66.865 0 0 0 8.608-2.766 62 62 0 0 0-3.14-2.986c-9.76-8.644-19.138-11.956-26.634-12.316"/><path fill="url(#aW)" d="M293.572 126.805c-3.603.637-7.848 2.765-12.424 7.27-3.568 3.544-4.687 5.73-3.994 6.515 1.61 1.824 5.962-2.248 12.092-4.254a33.8 33.8 0 0 0 4.326-9.531"/><path fill="url(#aX)" d="M159.416 118.422a17.15 17.15 0 0 0-3.527 9.691c10.62 3.525 17.82 9.544 20.53 7.15 1.16-1.022-.661-4.14-6.54-9.39-3.564-3.156-7.075-5.6-10.463-7.451"/></g><path fill="#fff" d="M1054.043 266.725q2.72 4.51 3.622 12.07.353 2.655.582 6.756.15 3.9-.024 8.16-.173 4.262-.628 8.4-.333 3.859-1.145 6.51-1.218 3.976-4.81 8.427-2.782 2.967-4.836 4.247l-3.421 1.357q-2.013.798-5.19 1.592l-9.577 2.866-14.764 3.292q-10.901 2.46-21.563 5.523-10.541 2.783-20.805 6.852-4.427 1.756-4.108 2.56.16.403 2.69 1.496 2.49.41 4.409 4.074.718 1.81 1.114 3.983.596 2.092.468 4.705.111 3.216.62 7.439.43 4.021.979 8.927l1.256 10.215q.628 5.107 1.214 10.697.787 5.51 1.415 10.617l1.256 10.214q.83 5.028 1.26 9.05.63 3.94 1.144 6.998l-.402.16.985 6.595q2.213 12.63 4.87 24.617 2.86 11.908 6.04 23.455 6.686 22.733 14.593 40.325 2.196 4.95 4.274 9.017t4.6 7.491q2.443 3.224 5.77 6.33 3.248 2.903 7.943 5.932 3.372 1.458 5.096 2.87 2.526 2.259 2.686 2.661.878 2.214-2.512 6.585-4.72 5.132-11.364 8.931-6.443 3.72-12.883 6.273-6.238 2.474-12.955 3.74-6.638 1.467-13.431 1.366-6.513.021-12.859-1.887-6.266-1.708-12.043-5.705-14.36-10.374-30.75-41.137-1.76-3.261-3.199-5.718-1.318-2.737-2.196-4.95-1.08-2.135-1.877-4.147l-1.676-4.226-1.755-4.427q-.958-2.415-1.794-5.111-6.703-16.905-11.511-35.492-4.687-18.868-8.493-36.688-1.665-7.723-3.25-15.245-1.666-7.724-3.172-15.045-1.585-7.522-2.893-13.757-1.186-6.516-1.974-12.026-6.686 4.282-12.123 7.602t-9.465 6.082q-4.108 2.56-7.814 4.961t-7.332 5.003q-3.424 2.523-5.6 4.084-2.054 1.28-2.98 1.88-3.505 2.322-4.112 3.727-2.9 2.081-5.96 3.76-1.451 1.042-2.658 1.52l-2.013.798q-5.433 2.155-10.659 1.898-5.225-.257-10.124-2.04-4.778-2.065-9.07-5.254-4.17-3.47-7.494-7.74-6.526-8.824-8.784-19.806-.191-3.417-.784-6.675-.472-3.54-.663-6.957 4.636-17.674 14.802-29.623 10.087-12.15 24.51-22.76 18.373-13.573 44.707-28.208l18.195-8.146q9.098-4.073 18.355-7.744t18.674-6.938l18.833-6.537q5.874-1.63 15.69-3.892t21.36-4.278q11.744-2.095 24.01-3.465 12.264-1.37 22.916-.937 10.853.355 18.965 3.193 8.234 2.557 11.592 8.678m-202.89 66.244q2.253-.194 1.774-1.402-.278-1.287-1.964-2.016-1.887-.648-6.918 1.346-9.22 4.355-19.129 11.079-9.708 6.644-17.328 13.857-7.657 6.53-9.24 11.349-1.582 4.82 2.231 6.8 1.846 1.131 4.022-.43 1.974-1.481 9.517-10.062 2.016-1.963 4.153-4.208 2.058-2.446 4.317-4.972 4.316-4.972 7.74-7.494 5.039-4.327 12.047-8.969 6.687-4.281 8.779-4.878m372.293 56q.759 2.268 1.706 6.27 1.158 3.953 2.603 10.063.848 3.581 1.434 7.001.748 3.16 1.185 5.949 1.09 9.308.296 18.172-.845 8.653-2.482 17.717-1.654 6.175-3.567 12.19t-5.552 11.324q-10.243 16.883-23.755 26.532-5.45 3.291-11.67 5.208-6.01 1.867-12.12 3.312-5.687 1.346-10.583 2.282-4.734.675-8.515.68-5.205.564-12.345.474-6.93-.14-14.22-.863-7.339-.933-14.146-2.436-6.857-1.715-11.657-4.139-13.991-6.478-22.864-14.834t-15.263-22.194q-2.908-6.653-5.246-12.774-2.128-6.17-3.474-11.858-4.934-20.856.37-41.688.85-4.873 2.33-9.895 1.643-5.283 3.955-9.612.804-1.302 1.559-2.815.915-1.774 1.99-3.808 7.088-12.355 17.03-22.049t22.876-15.201q1.846-.66 5.006-1.407 3.321-1.008 7.956-2.105 6.58-1.334 11.786-1.899 5.416-.614 10.35-.446 5.095-.093 10.389.656 5.244.54 11.79 1.882l-.099-.421q25.555 5.521 38.035 23.48 1.192 1.275 2.173 2.6 1.713 1.597 2.184 1.708 8.198 3.622 12.643 9.244 4.655 5.573 7.913 13.7zm-121.732-23.698q8.916-7.449 4.165-9.662-1.042-.643-2.727-.244-2.95.698-6.504 3.54-3.343 2.794-6.537 6.22-3.194 3.424-5.867 7.171-2.722 3.536-4.17 5.881-9.19 16.634-3.657 19.33 1.452 1.436 2.317-.549l3.09-7.627q1.248-3.187 3.599-6.413 2.301-3.437 4.913-6.502 2.772-3.325 5.695-6.019 3.082-2.954 5.683-5.126m88.078 44.119-2.938-.195.421-.1q-5.095.094-8.941-3-3.636-3.145-6.318-6.96-.72-1.164-1.07-2.638l-.747-3.16q-.327-3.26.04-7.351.3-7.19-.746-11.614t-3.613-4.93q-4.202.105-9.748 6.756-5.384 6.39-8.584 14.49-4.084 15.648-3.827 32.717.207 16.858 3.895 32.447l1.546 6.531q.598 2.528 1.107 3.742.3 1.264 1.02 2.429.93 1.114 2.123 2.39 2.283 2.129 4.157 3.465 1.873 1.336 3.547 1.83 2.977 1.298 6.669-.02 1.214-.51 2.218-.97l2.428-1.02q2.75-1.54 4.075-2.521l-.099-.421q7.851-6.307 11.324-15.137 3.633-9.091 4.91-18.737l.1.422-.011-16.016zm353.919-87.296q1.104-.375 3.528-1.114 2.424-.738 5.064-1.465t4.836-1.26q2.412-.523 3.493-.465.011-.217-2.343-.775-2.15-.331-6.235-.982-5.358-1.152-10.068-2.27-4.494-1.105-8.76-2.416-7.896-2.37-12.889-6.32-4.765-4.156-7.516-9.505-2.535-5.338-3.271-11.88-.736-6.544-.346-13.894.965-18.159 9.95-32.206 9.2-14.036 22.756-24.373 13.557-10.336 29.956-17.052 16.41-6.933 32.194-10.213 26.32-5.756 54.424-4.263 36.966 1.964 50.25 13.076 13.285 11.112 11.93 36.62-.207 3.892-1.325 8.602-.89 4.505-2.655 9.18-1.539 4.472-3.725 8.908-1.96 4.232-4.294 7.36-3.074 4.822-7.614 4.581-1.945-.103-4.128-3.904-2.388-4.03-6.711-4.26l-.433-.022q-2.161-.115-2.582-.354l-3.46-.184-3.435-.616q-1.286-.285-3.664-.411l-5.188-.276q-3.026-.16-6.724.076-3.687.021-8.056.656-6.76.725-14.19 1.848-7.214 1.134-14.68 2.905-7.237 1.567-14.508 3.782-7.044 2.01-13.463 4.488-6.395 2.045-13.724 5.34-7.33 3.297-13.146 6.673-3.107 1.353-3.13 1.785-.046.865 5.29 2.449 6.189 1.846 12.173 3.465l12.424 2.828q3.003.593 4.71 1.117 1.934.32 2.57.57l2.811.15q1.707.524 4.278 1.094 2.787.582 6.667 1.005 6.03.754 13.573 1.588t13.323 2.225q1.718.308 2.992.81 1.49.512 2.548 1.002 2.298 1.64 3.275 3.643.592 1.115 1.376 2.674 1 1.571 2.183 3.802 1.909 4.87 3.35 10.367 1.443 5.496 1.168 10.685-.448 8.43-4.684 14.71-1.196 2.104-2.323 2.911-1.15 1.24-3.585 2.194-2.003.978-6.84 2.238-2.423.739-5.496 1.443-3.072.704-6.816 1.805-10.549 2.692-23.738 6.11t-26.447 8.134q-13.246 4.499-25.264 10.364-12.019 5.865-20.442 13.44-7.058 6.345-14.674 15.045-7.104 7.21-7.39 12.615-.208 3.891 5.206 8.08 5.403 4.407 19.238 5.142 11.242.597 23.019-.728 11.777-1.326 23.407-3.96 11.846-2.622 23.317-6.348 11.482-3.943 21.69-8.387 8.013-3.91 8.105-5.64l10.675-5.069q2.868-.931 6.202-2.489 1.787-.989 4.006-1.955 2.447-1.17 5.35-2.75l25.857-13.368q4.018-2.172 7.352-3.729 3.55-1.545 6.635-2.466 2.88-1.147 5.496-1.442 2.845-.5 5.44-.361 3.026.16 5.516 2.244 2.719 1.879 4.515 4.792 1.808 2.698 2.717 5.998 1.125 3.312.975 6.122-.413 7.782-7.586 16.29-6.945 8.302-18.008 16.603-11.052 8.084-24.687 15.815t-27.213 14.38q-13.566 6.433-25.982 11.627-12.188 4.989-20.36 7.806-16.785 5.83-34.73 8.995-17.728 3.177-35.671 2.224-18.376-.977-34.472-8.119-16.097-7.142-27.822-19.038t-18.248-27.851q-6.307-15.944-5.308-34.752 2.952-55.558 92.239-83.55m17.047-96.433q1.115-.591 4.45-2.149 3.346-1.773 7.795-3.921 4.678-2.353 9.788-4.683 5.121-2.546 9.344-4.49l7.545-3.285q3.107-1.352 3.755-1.318.057-1.08-2.752-1.23-6.486-.344-14.622 1.825-8.137 2.17-16.354 5.852-8.205 3.466-15.82 8.048-7.397 4.593-12.406 9.096-6.807 5.708-6.933 8.086-.127 2.378 1.82 2.482 3.674.195 9.593-5.127 2.493-2.036 6.078-4.23 3.802-2.183 8.719-4.956m384.601 160.404q-.32-4.51-3.871-1.533l.095-.423q-.518.328-1.366 2.134-.848 1.807-2.615 4.74-1.813 3.142-3.721 6.708-1.697 3.613-4.006 7.977-5.09 10.84-11.143 21.02-5.794 10.016-11.799 19.985-3.179 5.277-6.263 10.133t-5.863 9.335q-4.45 6.99-10.663 14.915-6.002 7.973-13.176 15.24t-15.332 12.982q-8.111 5.504-16.732 7.344-5.332 1.024-12.514-.585l-9.084-2.036q-4.389-1.205-8.588-3.255-7.93-4.217-15.527-9.912-7.34-5.86-11.999-13.781-11.795-22.61-9.878-57.898.039-9.087 3.02-22.396l.852-3.802q.638-1.854 1.111-3.967.732-2.276 1.253-4.6.731-2.276 1.347-5.022 1.82-7.135 3.688-14.482 1.915-7.557 4.417-14.762 2.548-7.415 5.848-14.219 3.346-7.015 7.607-13.16 1.93-2.673 4.024-5.088 2.305-2.368 4.563-4.524 9.476-7.638 23.418-4.515 3.803.852 9.951 3.117 6.36 2.313 12.27 5.634 6.124 3.368 10.484 7.673 4.57 4.352 4.797 9.283-.08 5.307-4.679 16.922-.99 2.44-2.123 5.514-1.085 2.863-2.312 6.36-3.397 9.222-6.113 18.374-2.505 9.2-4.635 18.707l-3.692 16.477q-2.683 16.925-3.239 26.34-.392 9.674 2.158 15.126.841 2.185 2.108 2.469 1.902.426 5.62-4.287 6.213-7.926 11.744-15.783 5.79-8.02 11.042-16.605 2.072-3.307 3.79-6.028 1.767-2.932 3.063-5.748 5.863-9.335 10.881-18.86 5.277-9.688 9.92-19.518l6.056-12.177 13.357-24.96q11.956-15.735 27.588-12.233 19.223 4.307 24.473 23.453 2.86 15.949-8.29 28.093-2.659 2.954-6.89 5.999-4.021 3.092-8.458 2.098-4.436-.993-5.973-7.993zm-126.313-49.155q1.766-2.932 1.956-3.777t-.489-2.771q-.746-2.608-3.19-1.603-2.138.63-4.822 4.688-1.65 3.402-3.747 7.813-1.84 4.247-4.126 9.503-4.668 10.934-6.605 17.599-2.429 5.89-2.126 7.51.09 1.574.983 1.552 2.138-.63 4.406-8.775 3.16-8.166 7.684-16.47 4.57-8.516 10.076-15.269m120.767 11.528q2.4-2.79.946-4.225-1.759-1.06-3.616.3-2.164 1.733-2.59 3.634-.662 2.958 1.122 2.914 1.268.284 4.138-2.623m23.432 106.237q5.489-13.66 14.304-25.114 8.892-11.656 20.115-20.327 11.503-8.795 24.778-14.357 13.476-5.484 28.133-6.803 18.108-1.846 34.675 4.53 12.325 4.742 22.255 13.898 10.132 9.234 17.948 19.665l1.43 1.71q2.767-3.575 5.348-6.061 2.86-2.61 5.86-3.776t6.42-1.01q3.62.235 8.065 1.945 3.031 1.166 4.772 2.068 1.942.98 3.325 2.208 1.586 1.306 3.015 3.016t3.232 4.259l-.606-.233q10.692 12 12.197 22.554 1.74 9.948-.748 16.413-.622 1.616-2.193 4.491-1.368 2.953-3.964 7.29-2.395 4.413-5.022 9.433t-5.69 10.568q-2.862 5.626-5.8 11.454-2.939 5.828-6.157 11.78-6.11 12.262-9.61 21.354-3.342 8.688-5.66 15.915-2.114 7.304-3.001 13.226-2.256 11.89 3.199 13.989 3.233 1.244 7.367.747 4.212-.698 8.456-2.08 4.523-1.508 8.518-3.45 3.994-1.942 6.668-3.465 9.575-5.594 17.954-13.503 8.457-8.112 14.162-17.514 4.323-7.616 7.105-10.024 2.425-2.083 7.476-.139 3.84 1.477 5.408 4.633 1.57 3.155 1.538 6.854.248 3.575-.747 7.368-.794 3.87-1.96 6.9-2.255 5.86-6.08 11.578-3.824 5.72-8.658 11.05-4.835 5.33-10.322 9.945-5.208 4.491-10.306 8.096-13.913 9.028-29.347 12.367-15.155 3.215-31.116-2.927l-2.223-.855q-1.212-.467-2.548-1.213l-4.616-2.472q-8.796-5.473-15.774-13.261t-12.042-16.928-7.893-19.274q-2.827-10.135-3.12-20.222l-.59-5.098q-6.047 4.864-13.82 9.992-7.492 5.003-16.01 8.452-8.238 3.325-16.988 4.365-8.471.915-16.351-2.117-11.112-4.276-20.53-11.148t-16.333-16.027-10.674-19.88q-3.682-10.928-3.4-23.113.017-7.88 1.604-15.62 1.664-7.942 4.494-15.9zm180.936-22.925q-3.466 2.377-4.632 5.408l.248.56q.808.31 2.41-.233 1.88-.668 3.637-1.616 1.958-.87 3.388-2.176 1.632-1.227 1.943-2.035.545-1.415-1.072-2.037-2.424-.933-5.922 2.129m-106.928 62.074q-1.291 2.751-2.815 6.108-1.523 3.357-3.28 7.32l-3.421 8.89q-1.12 3.512-1.307 4.6-.653 2.3.839 5.658l1.274-.901q1.679-.746 2.596-1.32.637-.451 1.679-.747 1.041-.295 2.44-.916 9.326-3.138 17.969-9.323 8.643-6.184 16.338-14.125t14.333-16.753 11.877-17.001q5.908-9.325 9.39-13.552.793-.855 1.229-1.383.513-.73.824-1.539l.933-2.424q1.01-2.627-.808-3.326t-4.787-.219q-2.89.28-6.093 1.367-3.124.885-6.124 2.05l-4.477 1.99q-6.948 3.588-13.927 7.861-6.7 4.15-12.623 9.293l.404.155q-4.57 4.04-9.093 8.563-4.446 4.32-7.634 9.588-1.616 2.393-3.031 4.864-1.213 2.55-2.706 5.222m-21.84-77.064q-.855 2.223.963 2.922.808.311 3.326-.807 1.197-.7 3.435-1.694 2.44-.917 6.156-2.734 3.078-1.368 6.202-2.253 3.404-1.01 6.932-1.74 5.813-1.242 11.47-2.08 5.736-1.04 11.394-1.88 4.259-.216 4.647-1.226.467-1.212-.792-2.16-.979-1.073-5.828-2.94-3.03-1.165-6.807-.995-3.7-.032-7.71.745-4.01.776-7.771 2.112-3.482 1.212-6.28 2.455l-4.477 1.988q-2.875 1.445-6.109 3.217-3.03 1.849-5.658 3.853-2.549 1.803-3.093 3.217" aria-label="To Eva" filter="url(#aY)" font-family="Magic Bubble" font-size="388.658" style="-inkscape-font-specification:&quot;Magic Bubble&quot;;text-align:center" text-anchor="middle" transform="translate(153.94 41.08)scale(.89737)"/><path fill="#7ef9e9" d="M1054.043 286.725q2.72 4.51 3.622 12.07.353 2.655.582 6.756.15 3.9-.024 8.16-.173 4.262-.628 8.4-.333 3.859-1.145 6.51-1.218 3.976-4.81 8.427-2.782 2.967-4.836 4.247l-3.421 1.357q-2.013.798-5.19 1.592l-9.577 2.866-14.764 3.292q-10.901 2.46-21.563 5.523-10.541 2.783-20.805 6.852-4.427 1.756-4.108 2.56.16.403 2.69 1.496 2.49.41 4.409 4.074.718 1.81 1.114 3.983.596 2.092.468 4.705.111 3.216.62 7.439.43 4.021.979 8.927l1.256 10.215q.628 5.107 1.214 10.697.787 5.51 1.415 10.617l1.256 10.214q.83 5.028 1.26 9.05.63 3.94 1.144 6.998l-.402.16.985 6.595q2.213 12.63 4.87 24.617 2.86 11.908 6.04 23.455 6.686 22.733 14.593 40.325 2.196 4.95 4.274 9.017t4.6 7.491q2.443 3.224 5.77 6.33 3.248 2.903 7.943 5.932 3.372 1.458 5.096 2.87 2.526 2.259 2.686 2.661.878 2.214-2.512 6.585-4.72 5.132-11.364 8.931-6.443 3.72-12.883 6.273-6.238 2.474-12.955 3.74-6.638 1.467-13.431 1.366-6.513.021-12.859-1.887-6.266-1.708-12.043-5.705-14.36-10.374-30.75-41.137-1.76-3.261-3.199-5.718-1.318-2.737-2.196-4.95-1.08-2.135-1.877-4.147l-1.676-4.226-1.755-4.427q-.958-2.415-1.794-5.111-6.703-16.905-11.511-35.492-4.687-18.868-8.493-36.688-1.665-7.723-3.25-15.245-1.666-7.724-3.172-15.045-1.585-7.522-2.893-13.757-1.186-6.516-1.974-12.026-6.686 4.282-12.123 7.602t-9.465 6.082q-4.108 2.56-7.814 4.961t-7.332 5.003q-3.424 2.523-5.6 4.084-2.054 1.28-2.98 1.88-3.505 2.322-4.112 3.727-2.9 2.081-5.96 3.76-1.451 1.042-2.658 1.52l-2.013.798q-5.433 2.155-10.659 1.898-5.225-.257-10.124-2.04-4.778-2.065-9.07-5.254-4.17-3.47-7.494-7.74-6.526-8.824-8.784-19.806-.191-3.417-.784-6.675-.472-3.54-.663-6.957 4.636-17.674 14.802-29.623 10.087-12.15 24.51-22.76 18.373-13.573 44.707-28.208l18.195-8.146q9.098-4.073 18.355-7.744t18.674-6.938l18.833-6.537q5.874-1.63 15.69-3.892t21.36-4.278q11.744-2.095 24.01-3.465 12.264-1.37 22.916-.937 10.853.355 18.965 3.193 8.234 2.557 11.592 8.678m-202.89 66.244q2.253-.194 1.774-1.402-.278-1.287-1.964-2.016-1.887-.648-6.918 1.346-9.22 4.355-19.129 11.079-9.708 6.644-17.328 13.857-7.657 6.53-9.24 11.349-1.582 4.82 2.231 6.8 1.846 1.131 4.022-.43 1.974-1.481 9.517-10.062 2.016-1.963 4.153-4.208 2.058-2.446 4.317-4.972 4.316-4.972 7.74-7.494 5.039-4.327 12.047-8.969 6.687-4.281 8.779-4.878m372.293 56q.759 2.268 1.706 6.27 1.158 3.953 2.603 10.063.848 3.581 1.434 7.001.748 3.16 1.185 5.949 1.09 9.308.296 18.172-.845 8.653-2.482 17.717-1.654 6.175-3.567 12.19t-5.552 11.324q-10.243 16.883-23.755 26.532-5.45 3.291-11.67 5.208-6.01 1.867-12.12 3.312-5.687 1.346-10.583 2.282-4.734.675-8.515.68-5.205.564-12.345.474-6.93-.14-14.22-.863-7.339-.933-14.146-2.436-6.857-1.715-11.657-4.139-13.991-6.478-22.864-14.834t-15.263-22.194q-2.908-6.653-5.246-12.774-2.128-6.17-3.474-11.858-4.934-20.856.37-41.688.85-4.873 2.33-9.895 1.643-5.283 3.955-9.612.804-1.302 1.559-2.815.915-1.774 1.99-3.808 7.088-12.355 17.03-22.049t22.876-15.201q1.846-.66 5.006-1.407 3.321-1.008 7.956-2.105 6.58-1.334 11.786-1.899 5.416-.614 10.35-.446 5.095-.093 10.389.656 5.244.54 11.79 1.882l-.099-.421q25.555 5.521 38.035 23.48 1.192 1.275 2.173 2.6 1.713 1.597 2.184 1.708 8.198 3.622 12.643 9.244 4.655 5.573 7.913 13.7zm-121.732-23.698q8.916-7.449 4.165-9.662-1.042-.643-2.727-.244-2.95.698-6.504 3.54-3.343 2.794-6.537 6.22-3.194 3.424-5.867 7.171-2.722 3.536-4.17 5.881-9.19 16.634-3.657 19.33 1.452 1.436 2.317-.549l3.09-7.627q1.248-3.187 3.599-6.413 2.301-3.437 4.913-6.502 2.772-3.325 5.695-6.019 3.082-2.954 5.683-5.126m88.078 44.119-2.938-.195.421-.1q-5.095.094-8.941-3-3.636-3.145-6.318-6.96-.72-1.164-1.07-2.638l-.747-3.16q-.327-3.26.04-7.351.3-7.19-.746-11.614t-3.613-4.93q-4.202.105-9.748 6.756-5.384 6.39-8.584 14.49-4.084 15.648-3.827 32.717.207 16.858 3.895 32.447l1.546 6.531q.598 2.528 1.107 3.742.3 1.264 1.02 2.429.93 1.114 2.123 2.39 2.283 2.129 4.157 3.465 1.873 1.336 3.547 1.83 2.977 1.298 6.669-.02 1.214-.51 2.218-.97l2.428-1.02q2.75-1.54 4.075-2.521l-.099-.421q7.851-6.307 11.324-15.137 3.633-9.091 4.91-18.737l.1.422-.011-16.016zm353.919-87.296q1.104-.375 3.528-1.114 2.424-.738 5.064-1.465t4.836-1.26q2.412-.523 3.493-.465.011-.217-2.343-.775-2.15-.331-6.235-.982-5.358-1.152-10.068-2.27-4.494-1.105-8.76-2.416-7.896-2.37-12.889-6.32-4.765-4.156-7.516-9.505-2.535-5.338-3.271-11.88-.736-6.544-.346-13.894.965-18.159 9.95-32.206 9.2-14.036 22.756-24.373 13.557-10.336 29.956-17.052 16.41-6.933 32.194-10.213 26.32-5.756 54.424-4.263 36.966 1.964 50.25 13.076 13.285 11.112 11.93 36.62-.207 3.892-1.325 8.602-.89 4.505-2.655 9.18-1.539 4.472-3.725 8.908-1.96 4.232-4.294 7.36-3.074 4.822-7.614 4.581-1.945-.103-4.128-3.904-2.388-4.03-6.711-4.26l-.433-.022q-2.161-.115-2.582-.354l-3.46-.184-3.435-.616q-1.286-.285-3.664-.411l-5.188-.276q-3.026-.16-6.724.076-3.687.021-8.056.656-6.76.725-14.19 1.848-7.214 1.134-14.68 2.905-7.237 1.567-14.508 3.782-7.044 2.01-13.463 4.488-6.395 2.045-13.724 5.34-7.33 3.297-13.146 6.673-3.107 1.353-3.13 1.785-.046.865 5.29 2.449 6.189 1.846 12.173 3.465l12.424 2.828q3.003.593 4.71 1.117 1.934.32 2.57.57l2.811.15q1.707.524 4.278 1.094 2.787.582 6.667 1.005 6.03.754 13.573 1.588t13.323 2.225q1.718.308 2.992.81 1.49.512 2.548 1.002 2.298 1.64 3.275 3.643.592 1.115 1.376 2.674 1 1.571 2.183 3.802 1.909 4.87 3.35 10.367 1.443 5.496 1.168 10.685-.448 8.43-4.684 14.71-1.196 2.104-2.323 2.911-1.15 1.24-3.585 2.194-2.003.978-6.84 2.238-2.423.739-5.496 1.443-3.072.704-6.816 1.805-10.549 2.692-23.738 6.11t-26.447 8.134q-13.246 4.499-25.264 10.364-12.019 5.865-20.442 13.44-7.058 6.345-14.674 15.045-7.104 7.21-7.39 12.615-.208 3.891 5.206 8.08 5.403 4.407 19.238 5.142 11.242.597 23.019-.728 11.777-1.326 23.407-3.96 11.846-2.622 23.317-6.348 11.482-3.943 21.69-8.387 8.013-3.91 8.105-5.64l10.675-5.069q2.868-.931 6.202-2.489 1.787-.989 4.006-1.955 2.447-1.17 5.35-2.75l25.857-13.368q4.018-2.172 7.352-3.729 3.55-1.545 6.635-2.466 2.88-1.147 5.496-1.442 2.845-.5 5.44-.361 3.026.16 5.516 2.244 2.719 1.879 4.515 4.792 1.808 2.698 2.717 5.998 1.125 3.312.975 6.122-.413 7.782-7.586 16.29-6.945 8.302-18.008 16.603-11.052 8.084-24.687 15.815t-27.213 14.38q-13.566 6.433-25.982 11.627-12.188 4.989-20.36 7.806-16.785 5.83-34.73 8.995-17.728 3.177-35.671 2.224-18.376-.977-34.472-8.119-16.097-7.142-27.822-19.038t-18.248-27.851q-6.307-15.944-5.308-34.752 2.952-55.558 92.239-83.55m17.047-96.433q1.115-.591 4.45-2.149 3.346-1.773 7.795-3.921 4.678-2.353 9.788-4.683 5.121-2.546 9.344-4.49l7.545-3.285q3.107-1.352 3.755-1.318.057-1.08-2.752-1.23-6.486-.344-14.622 1.825-8.137 2.17-16.354 5.852-8.205 3.466-15.82 8.048-7.397 4.593-12.406 9.096-6.807 5.708-6.933 8.086-.127 2.378 1.82 2.482 3.674.195 9.593-5.127 2.493-2.036 6.078-4.23 3.802-2.183 8.719-4.956m384.601 160.404q-.32-4.51-3.871-1.533l.095-.423q-.518.328-1.366 2.134-.848 1.807-2.615 4.74-1.813 3.142-3.721 6.708-1.697 3.613-4.006 7.977-5.09 10.84-11.143 21.02-5.794 10.016-11.799 19.985-3.179 5.277-6.263 10.133t-5.863 9.335q-4.45 6.99-10.663 14.915-6.002 7.973-13.176 15.24t-15.332 12.982q-8.111 5.504-16.732 7.344-5.332 1.024-12.514-.585l-9.084-2.036q-4.389-1.205-8.588-3.255-7.93-4.217-15.527-9.912-7.34-5.86-11.999-13.781-11.795-22.61-9.878-57.898.039-9.087 3.02-22.396l.852-3.802q.638-1.854 1.111-3.967.732-2.276 1.253-4.6.731-2.276 1.347-5.022 1.82-7.135 3.688-14.482 1.915-7.557 4.417-14.762 2.548-7.415 5.848-14.219 3.346-7.015 7.607-13.16 1.93-2.673 4.024-5.088 2.305-2.368 4.563-4.524 9.476-7.638 23.418-4.515 3.803.852 9.951 3.117 6.36 2.313 12.27 5.634 6.124 3.368 10.484 7.673 4.57 4.352 4.797 9.283-.08 5.307-4.679 16.922-.99 2.44-2.123 5.514-1.085 2.863-2.312 6.36-3.397 9.222-6.113 18.374-2.505 9.2-4.635 18.707l-3.692 16.477q-2.683 16.925-3.239 26.34-.392 9.674 2.158 15.126.841 2.185 2.108 2.469 1.902.426 5.62-4.287 6.213-7.926 11.744-15.783 5.79-8.02 11.042-16.605 2.072-3.307 3.79-6.028 1.767-2.932 3.063-5.748 5.863-9.335 10.881-18.86 5.277-9.688 9.92-19.518l6.056-12.177 13.357-24.96q11.956-15.735 27.588-12.233 19.223 4.307 24.473 23.453 2.86 15.949-8.29 28.093-2.659 2.954-6.89 5.999-4.021 3.092-8.458 2.098-4.436-.993-5.973-7.993zm-126.313-49.155q1.766-2.932 1.956-3.777t-.489-2.771q-.746-2.608-3.19-1.603-2.138.63-4.822 4.688-1.65 3.402-3.747 7.813-1.84 4.247-4.126 9.503-4.668 10.934-6.605 17.599-2.429 5.89-2.126 7.51.09 1.574.983 1.552 2.138-.63 4.406-8.775 3.16-8.166 7.684-16.47 4.57-8.516 10.076-15.269m120.767 11.528q2.4-2.79.946-4.225-1.759-1.06-3.616.3-2.164 1.733-2.59 3.634-.662 2.958 1.122 2.914 1.268.284 4.138-2.623m23.432 106.237q5.489-13.66 14.304-25.114 8.892-11.656 20.115-20.327 11.503-8.795 24.778-14.357 13.476-5.484 28.133-6.803 18.108-1.846 34.675 4.53 12.325 4.742 22.255 13.898 10.132 9.234 17.948 19.665l1.43 1.71q2.767-3.575 5.348-6.061 2.86-2.61 5.86-3.776t6.42-1.01q3.62.235 8.065 1.945 3.031 1.166 4.772 2.068 1.942.98 3.325 2.208 1.586 1.306 3.015 3.016t3.232 4.259l-.606-.233q10.692 12 12.197 22.554 1.74 9.948-.748 16.413-.622 1.616-2.193 4.491-1.368 2.953-3.964 7.29-2.395 4.413-5.022 9.433t-5.69 10.568q-2.862 5.626-5.8 11.454-2.939 5.828-6.157 11.78-6.11 12.262-9.61 21.354-3.342 8.688-5.66 15.915-2.114 7.304-3.001 13.226-2.256 11.89 3.199 13.989 3.233 1.244 7.367.747 4.212-.698 8.456-2.08 4.523-1.508 8.518-3.45 3.994-1.942 6.668-3.465 9.575-5.594 17.954-13.503 8.457-8.112 14.162-17.514 4.323-7.616 7.105-10.024 2.425-2.083 7.476-.139 3.84 1.477 5.408 4.633 1.57 3.155 1.538 6.854.248 3.575-.747 7.368-.794 3.87-1.96 6.9-2.255 5.86-6.08 11.578-3.824 5.72-8.658 11.05-4.835 5.33-10.322 9.945-5.208 4.491-10.306 8.096-13.913 9.028-29.347 12.367-15.155 3.215-31.116-2.927l-2.223-.855q-1.212-.467-2.548-1.213l-4.616-2.472q-8.796-5.473-15.774-13.261t-12.042-16.928-7.893-19.274q-2.827-10.135-3.12-20.222l-.59-5.098q-6.047 4.864-13.82 9.992-7.492 5.003-16.01 8.452-8.238 3.325-16.988 4.365-8.471.915-16.351-2.117-11.112-4.276-20.53-11.148t-16.333-16.027-10.674-19.88q-3.682-10.928-3.4-23.113.017-7.88 1.604-15.62 1.664-7.942 4.494-15.9zm180.936-22.925q-3.466 2.377-4.632 5.408l.248.56q.808.31 2.41-.233 1.88-.668 3.637-1.616 1.958-.87 3.388-2.176 1.632-1.227 1.943-2.035.545-1.415-1.072-2.037-2.424-.933-5.922 2.129m-106.928 62.074q-1.291 2.751-2.815 6.108-1.523 3.357-3.28 7.32l-3.421 8.89q-1.12 3.512-1.307 4.6-.653 2.3.839 5.658l1.274-.901q1.679-.746 2.596-1.32.637-.451 1.679-.747 1.041-.295 2.44-.916 9.326-3.138 17.969-9.323 8.643-6.184 16.338-14.125t14.333-16.753 11.877-17.001q5.908-9.325 9.39-13.552.793-.855 1.229-1.383.513-.73.824-1.539l.933-2.424q1.01-2.627-.808-3.326t-4.787-.219q-2.89.28-6.093 1.367-3.124.885-6.124 2.05l-4.477 1.99q-6.948 3.588-13.927 7.861-6.7 4.15-12.623 9.293l.404.155q-4.57 4.04-9.093 8.563-4.446 4.32-7.634 9.588-1.616 2.393-3.031 4.864-1.213 2.55-2.706 5.222m-21.84-77.064q-.855 2.223.963 2.922.808.311 3.326-.807 1.197-.7 3.435-1.694 2.44-.917 6.156-2.734 3.078-1.368 6.202-2.253 3.404-1.01 6.932-1.74 5.813-1.242 11.47-2.08 5.736-1.04 11.394-1.88 4.259-.216 4.647-1.226.467-1.212-.792-2.16-.979-1.073-5.828-2.94-3.03-1.165-6.807-.995-3.7-.032-7.71.745-4.01.776-7.771 2.112-3.482 1.212-6.28 2.455l-4.477 1.988q-2.875 1.445-6.109 3.217-3.03 1.849-5.658 3.853-2.549 1.803-3.093 3.217" aria-label="To Eva" font-family="Magic Bubble" font-size="388.658" style="-inkscape-font-specification:&quot;Magic Bubble&quot;;text-align:center;mix-blend-mode:multiply" text-anchor="middle" transform="translate(153.94 41.08)scale(.89737)"/><path fill="#fff" d="M1054.043 266.725q2.72 4.51 3.622 12.07.353 2.655.582 6.756.15 3.9-.024 8.16-.173 4.262-.628 8.4-.333 3.859-1.145 6.51-1.218 3.976-4.81 8.427-2.782 2.967-4.836 4.247l-3.421 1.357q-2.013.798-5.19 1.592l-9.577 2.866-14.764 3.292q-10.901 2.46-21.563 5.523-10.541 2.783-20.805 6.852-4.427 1.756-4.108 2.56.16.403 2.69 1.496 2.49.41 4.409 4.074.718 1.81 1.114 3.983.596 2.092.468 4.705.111 3.216.62 7.439.43 4.021.979 8.927l1.256 10.215q.628 5.107 1.214 10.697.787 5.51 1.415 10.617l1.256 10.214q.83 5.028 1.26 9.05.63 3.94 1.144 6.998l-.402.16.985 6.595q2.213 12.63 4.87 24.617 2.86 11.908 6.04 23.455 6.686 22.733 14.593 40.325 2.196 4.95 4.274 9.017t4.6 7.491q2.443 3.224 5.77 6.33 3.248 2.903 7.943 5.932 3.372 1.458 5.096 2.87 2.526 2.259 2.686 2.661.878 2.214-2.512 6.585-4.72 5.132-11.364 8.931-6.443 3.72-12.883 6.273-6.238 2.474-12.955 3.74-6.638 1.467-13.431 1.366-6.513.021-12.859-1.887-6.266-1.708-12.043-5.705-14.36-10.374-30.75-41.137-1.76-3.261-3.199-5.718-1.318-2.737-2.196-4.95-1.08-2.135-1.877-4.147l-1.676-4.226-1.755-4.427q-.958-2.415-1.794-5.111-6.703-16.905-11.511-35.492-4.687-18.868-8.493-36.688-1.665-7.723-3.25-15.245-1.666-7.724-3.172-15.045-1.585-7.522-2.893-13.757-1.186-6.516-1.974-12.026-6.686 4.282-12.123 7.602t-9.465 6.082q-4.108 2.56-7.814 4.961t-7.332 5.003q-3.424 2.523-5.6 4.084-2.054 1.28-2.98 1.88-3.505 2.322-4.112 3.727-2.9 2.081-5.96 3.76-1.451 1.042-2.658 1.52l-2.013.798q-5.433 2.155-10.659 1.898-5.225-.257-10.124-2.04-4.778-2.065-9.07-5.254-4.17-3.47-7.494-7.74-6.526-8.824-8.784-19.806-.191-3.417-.784-6.675-.472-3.54-.663-6.957 4.636-17.674 14.802-29.623 10.087-12.15 24.51-22.76 18.373-13.573 44.707-28.208l18.195-8.146q9.098-4.073 18.355-7.744t18.674-6.938l18.833-6.537q5.874-1.63 15.69-3.892t21.36-4.278q11.744-2.095 24.01-3.465 12.264-1.37 22.916-.937 10.853.355 18.965 3.193 8.234 2.557 11.592 8.678m-202.89 66.244q2.253-.194 1.774-1.402-.278-1.287-1.964-2.016-1.887-.648-6.918 1.346-9.22 4.355-19.129 11.079-9.708 6.644-17.328 13.857-7.657 6.53-9.24 11.349-1.582 4.82 2.231 6.8 1.846 1.131 4.022-.43 1.974-1.481 9.517-10.062 2.016-1.963 4.153-4.208 2.058-2.446 4.317-4.972 4.316-4.972 7.74-7.494 5.039-4.327 12.047-8.969 6.687-4.281 8.779-4.878m372.293 56q.759 2.268 1.706 6.27 1.158 3.953 2.603 10.063.848 3.581 1.434 7.001.748 3.16 1.185 5.949 1.09 9.308.296 18.172-.845 8.653-2.482 17.717-1.654 6.175-3.567 12.19t-5.552 11.324q-10.243 16.883-23.755 26.532-5.45 3.291-11.67 5.208-6.01 1.867-12.12 3.312-5.687 1.346-10.583 2.282-4.734.675-8.515.68-5.205.564-12.345.474-6.93-.14-14.22-.863-7.339-.933-14.146-2.436-6.857-1.715-11.657-4.139-13.991-6.478-22.864-14.834t-15.263-22.194q-2.908-6.653-5.246-12.774-2.128-6.17-3.474-11.858-4.934-20.856.37-41.688.85-4.873 2.33-9.895 1.643-5.283 3.955-9.612.804-1.302 1.559-2.815.915-1.774 1.99-3.808 7.088-12.355 17.03-22.049t22.876-15.201q1.846-.66 5.006-1.407 3.321-1.008 7.956-2.105 6.58-1.334 11.786-1.899 5.416-.614 10.35-.446 5.095-.093 10.389.656 5.244.54 11.79 1.882l-.099-.421q25.555 5.521 38.035 23.48 1.192 1.275 2.173 2.6 1.713 1.597 2.184 1.708 8.198 3.622 12.643 9.244 4.655 5.573 7.913 13.7zm-121.732-23.698q8.916-7.449 4.165-9.662-1.042-.643-2.727-.244-2.95.698-6.504 3.54-3.343 2.794-6.537 6.22-3.194 3.424-5.867 7.171-2.722 3.536-4.17 5.881-9.19 16.634-3.657 19.33 1.452 1.436 2.317-.549l3.09-7.627q1.248-3.187 3.599-6.413 2.301-3.437 4.913-6.502 2.772-3.325 5.695-6.019 3.082-2.954 5.683-5.126m88.078 44.119-2.938-.195.421-.1q-5.095.094-8.941-3-3.636-3.145-6.318-6.96-.72-1.164-1.07-2.638l-.747-3.16q-.327-3.26.04-7.351.3-7.19-.746-11.614t-3.613-4.93q-4.202.105-9.748 6.756-5.384 6.39-8.584 14.49-4.084 15.648-3.827 32.717.207 16.858 3.895 32.447l1.546 6.531q.598 2.528 1.107 3.742.3 1.264 1.02 2.429.93 1.114 2.123 2.39 2.283 2.129 4.157 3.465 1.873 1.336 3.547 1.83 2.977 1.298 6.669-.02 1.214-.51 2.218-.97l2.428-1.02q2.75-1.54 4.075-2.521l-.099-.421q7.851-6.307 11.324-15.137 3.633-9.091 4.91-18.737l.1.422-.011-16.016zm353.919-87.296q1.104-.375 3.528-1.114 2.424-.738 5.064-1.465t4.836-1.26q2.412-.523 3.493-.465.011-.217-2.343-.775-2.15-.331-6.235-.982-5.358-1.152-10.068-2.27-4.494-1.105-8.76-2.416-7.896-2.37-12.889-6.32-4.765-4.156-7.516-9.505-2.535-5.338-3.271-11.88-.736-6.544-.346-13.894.965-18.159 9.95-32.206 9.2-14.036 22.756-24.373 13.557-10.336 29.956-17.052 16.41-6.933 32.194-10.213 26.32-5.756 54.424-4.263 36.966 1.964 50.25 13.076 13.285 11.112 11.93 36.62-.207 3.892-1.325 8.602-.89 4.505-2.655 9.18-1.539 4.472-3.725 8.908-1.96 4.232-4.294 7.36-3.074 4.822-7.614 4.581-1.945-.103-4.128-3.904-2.388-4.03-6.711-4.26l-.433-.022q-2.161-.115-2.582-.354l-3.46-.184-3.435-.616q-1.286-.285-3.664-.411l-5.188-.276q-3.026-.16-6.724.076-3.687.021-8.056.656-6.76.725-14.19 1.848-7.214 1.134-14.68 2.905-7.237 1.567-14.508 3.782-7.044 2.01-13.463 4.488-6.395 2.045-13.724 5.34-7.33 3.297-13.146 6.673-3.107 1.353-3.13 1.785-.046.865 5.29 2.449 6.189 1.846 12.173 3.465l12.424 2.828q3.003.593 4.71 1.117 1.934.32 2.57.57l2.811.15q1.707.524 4.278 1.094 2.787.582 6.667 1.005 6.03.754 13.573 1.588t13.323 2.225q1.718.308 2.992.81 1.49.512 2.548 1.002 2.298 1.64 3.275 3.643.592 1.115 1.376 2.674 1 1.571 2.183 3.802 1.909 4.87 3.35 10.367 1.443 5.496 1.168 10.685-.448 8.43-4.684 14.71-1.196 2.104-2.323 2.911-1.15 1.24-3.585 2.194-2.003.978-6.84 2.238-2.423.739-5.496 1.443-3.072.704-6.816 1.805-10.549 2.692-23.738 6.11t-26.447 8.134q-13.246 4.499-25.264 10.364-12.019 5.865-20.442 13.44-7.058 6.345-14.674 15.045-7.104 7.21-7.39 12.615-.208 3.891 5.206 8.08 5.403 4.407 19.238 5.142 11.242.597 23.019-.728 11.777-1.326 23.407-3.96 11.846-2.622 23.317-6.348 11.482-3.943 21.69-8.387 8.013-3.91 8.105-5.64l10.675-5.069q2.868-.931 6.202-2.489 1.787-.989 4.006-1.955 2.447-1.17 5.35-2.75l25.857-13.368q4.018-2.172 7.352-3.729 3.55-1.545 6.635-2.466 2.88-1.147 5.496-1.442 2.845-.5 5.44-.361 3.026.16 5.516 2.244 2.719 1.879 4.515 4.792 1.808 2.698 2.717 5.998 1.125 3.312.975 6.122-.413 7.782-7.586 16.29-6.945 8.302-18.008 16.603-11.052 8.084-24.687 15.815t-27.213 14.38q-13.566 6.433-25.982 11.627-12.188 4.989-20.36 7.806-16.785 5.83-34.73 8.995-17.728 3.177-35.671 2.224-18.376-.977-34.472-8.119-16.097-7.142-27.822-19.038t-18.248-27.851q-6.307-15.944-5.308-34.752 2.952-55.558 92.239-83.55m17.047-96.433q1.115-.591 4.45-2.149 3.346-1.773 7.795-3.921 4.678-2.353 9.788-4.683 5.121-2.546 9.344-4.49l7.545-3.285q3.107-1.352 3.755-1.318.057-1.08-2.752-1.23-6.486-.344-14.622 1.825-8.137 2.17-16.354 5.852-8.205 3.466-15.82 8.048-7.397 4.593-12.406 9.096-6.807 5.708-6.933 8.086-.127 2.378 1.82 2.482 3.674.195 9.593-5.127 2.493-2.036 6.078-4.23 3.802-2.183 8.719-4.956m384.601 160.404q-.32-4.51-3.871-1.533l.095-.423q-.518.328-1.366 2.134-.848 1.807-2.615 4.74-1.813 3.142-3.721 6.708-1.697 3.613-4.006 7.977-5.09 10.84-11.143 21.02-5.794 10.016-11.799 19.985-3.179 5.277-6.263 10.133t-5.863 9.335q-4.45 6.99-10.663 14.915-6.002 7.973-13.176 15.24t-15.332 12.982q-8.111 5.504-16.732 7.344-5.332 1.024-12.514-.585l-9.084-2.036q-4.389-1.205-8.588-3.255-7.93-4.217-15.527-9.912-7.34-5.86-11.999-13.781-11.795-22.61-9.878-57.898.039-9.087 3.02-22.396l.852-3.802q.638-1.854 1.111-3.967.732-2.276 1.253-4.6.731-2.276 1.347-5.022 1.82-7.135 3.688-14.482 1.915-7.557 4.417-14.762 2.548-7.415 5.848-14.219 3.346-7.015 7.607-13.16 1.93-2.673 4.024-5.088 2.305-2.368 4.563-4.524 9.476-7.638 23.418-4.515 3.803.852 9.951 3.117 6.36 2.313 12.27 5.634 6.124 3.368 10.484 7.673 4.57 4.352 4.797 9.283-.08 5.307-4.679 16.922-.99 2.44-2.123 5.514-1.085 2.863-2.312 6.36-3.397 9.222-6.113 18.374-2.505 9.2-4.635 18.707l-3.692 16.477q-2.683 16.925-3.239 26.34-.392 9.674 2.158 15.126.841 2.185 2.108 2.469 1.902.426 5.62-4.287 6.213-7.926 11.744-15.783 5.79-8.02 11.042-16.605 2.072-3.307 3.79-6.028 1.767-2.932 3.063-5.748 5.863-9.335 10.881-18.86 5.277-9.688 9.92-19.518l6.056-12.177 13.357-24.96q11.956-15.735 27.588-12.233 19.223 4.307 24.473 23.453 2.86 15.949-8.29 28.093-2.659 2.954-6.89 5.999-4.021 3.092-8.458 2.098-4.436-.993-5.973-7.993zm-126.313-49.155q1.766-2.932 1.956-3.777t-.489-2.771q-.746-2.608-3.19-1.603-2.138.63-4.822 4.688-1.65 3.402-3.747 7.813-1.84 4.247-4.126 9.503-4.668 10.934-6.605 17.599-2.429 5.89-2.126 7.51.09 1.574.983 1.552 2.138-.63 4.406-8.775 3.16-8.166 7.684-16.47 4.57-8.516 10.076-15.269m120.767 11.528q2.4-2.79.946-4.225-1.759-1.06-3.616.3-2.164 1.733-2.59 3.634-.662 2.958 1.122 2.914 1.268.284 4.138-2.623m23.432 106.237q5.489-13.66 14.304-25.114 8.892-11.656 20.115-20.327 11.503-8.795 24.778-14.357 13.476-5.484 28.133-6.803 18.108-1.846 34.675 4.53 12.325 4.742 22.255 13.898 10.132 9.234 17.948 19.665l1.43 1.71q2.767-3.575 5.348-6.061 2.86-2.61 5.86-3.776t6.42-1.01q3.62.235 8.065 1.945 3.031 1.166 4.772 2.068 1.942.98 3.325 2.208 1.586 1.306 3.015 3.016t3.232 4.259l-.606-.233q10.692 12 12.197 22.554 1.74 9.948-.748 16.413-.622 1.616-2.193 4.491-1.368 2.953-3.964 7.29-2.395 4.413-5.022 9.433t-5.69 10.568q-2.862 5.626-5.8 11.454-2.939 5.828-6.157 11.78-6.11 12.262-9.61 21.354-3.342 8.688-5.66 15.915-2.114 7.304-3.001 13.226-2.256 11.89 3.199 13.989 3.233 1.244 7.367.747 4.212-.698 8.456-2.08 4.523-1.508 8.518-3.45 3.994-1.942 6.668-3.465 9.575-5.594 17.954-13.503 8.457-8.112 14.162-17.514 4.323-7.616 7.105-10.024 2.425-2.083 7.476-.139 3.84 1.477 5.408 4.633 1.57 3.155 1.538 6.854.248 3.575-.747 7.368-.794 3.87-1.96 6.9-2.255 5.86-6.08 11.578-3.824 5.72-8.658 11.05-4.835 5.33-10.322 9.945-5.208 4.491-10.306 8.096-13.913 9.028-29.347 12.367-15.155 3.215-31.116-2.927l-2.223-.855q-1.212-.467-2.548-1.213l-4.616-2.472q-8.796-5.473-15.774-13.261t-12.042-16.928-7.893-19.274q-2.827-10.135-3.12-20.222l-.59-5.098q-6.047 4.864-13.82 9.992-7.492 5.003-16.01 8.452-8.238 3.325-16.988 4.365-8.471.915-16.351-2.117-11.112-4.276-20.53-11.148t-16.333-16.027-10.674-19.88q-3.682-10.928-3.4-23.113.017-7.88 1.604-15.62 1.664-7.942 4.494-15.9zm180.936-22.925q-3.466 2.377-4.632 5.408l.248.56q.808.31 2.41-.233 1.88-.668 3.637-1.616 1.958-.87 3.388-2.176 1.632-1.227 1.943-2.035.545-1.415-1.072-2.037-2.424-.933-5.922 2.129m-106.928 62.074q-1.291 2.751-2.815 6.108-1.523 3.357-3.28 7.32l-3.421 8.89q-1.12 3.512-1.307 4.6-.653 2.3.839 5.658l1.274-.901q1.679-.746 2.596-1.32.637-.451 1.679-.747 1.041-.295 2.44-.916 9.326-3.138 17.969-9.323 8.643-6.184 16.338-14.125t14.333-16.753 11.877-17.001q5.908-9.325 9.39-13.552.793-.855 1.229-1.383.513-.73.824-1.539l.933-2.424q1.01-2.627-.808-3.326t-4.787-.219q-2.89.28-6.093 1.367-3.124.885-6.124 2.05l-4.477 1.99q-6.948 3.588-13.927 7.861-6.7 4.15-12.623 9.293l.404.155q-4.57 4.04-9.093 8.563-4.446 4.32-7.634 9.588-1.616 2.393-3.031 4.864-1.213 2.55-2.706 5.222m-21.84-77.064q-.855 2.223.963 2.922.808.311 3.326-.807 1.197-.7 3.435-1.694 2.44-.917 6.156-2.734 3.078-1.368 6.202-2.253 3.404-1.01 6.932-1.74 5.813-1.242 11.47-2.08 5.736-1.04 11.394-1.88 4.259-.216 4.647-1.226.467-1.212-.792-2.16-.979-1.073-5.828-2.94-3.03-1.165-6.807-.995-3.7-.032-7.71.745-4.01.776-7.771 2.112-3.482 1.212-6.28 2.455l-4.477 1.988q-2.875 1.445-6.109 3.217-3.03 1.849-5.658 3.853-2.549 1.803-3.093 3.217" aria-label="To Eva" font-family="Magic Bubble" font-size="388.658" style="-inkscape-font-specification:&quot;Magic Bubble&quot;;text-align:center" text-anchor="middle" transform="translate(153.94 41.08)scale(.89737)"/><text xml:space="preserve" x="1498.677" y="2872.121" fill="#fff" stroke-linecap="round" stroke-linejoin="round" stroke-width=".703" filter="url(#aZ)" font-family="Magic Bubble" font-size="252.084" font-weight="400" style="-inkscape-font-specification:&quot;Magic Bubble&quot;;text-align:center" text-anchor="middle"><tspan x="1498.677" y="2872.121">A Honey Slime</tspan><tspan x="1498.677" y="3187.226">To Sweeten Your</tspan><tspan x="1498.677" y="3504.793">Day!</tspan></text><text xml:space="preserve" x="1498.677" y="2898.121" fill="#dcec6b" stroke-linecap="round" stroke-linejoin="round" stroke-width=".703" font-family="Magic Bubble" font-size="252.084" font-weight="400" style="-inkscape-font-specification:&quot;Magic Bubble&quot;;text-align:center;mix-blend-mode:multiply" text-anchor="middle"><tspan x="1498.677" y="2898.121">A Honey Slime</tspan><tspan x="1498.677" y="3213.226">To Sweeten Your</tspan><tspan x="1498.677" y="3530.793">Day!</tspan></text><text xml:space="preserve" x="1498.677" y="2872.121" fill="#fff" stroke-linecap="round" stroke-linejoin="round" stroke-width=".703" font-family="Magic Bubble" font-size="252.084" font-weight="400" style="-inkscape-font-specification:&quot;Magic Bubble&quot;;text-align:center" text-anchor="middle"><tspan x="1498.677" y="2872.121">A Honey Slime</tspan><tspan x="1498.677" y="3187.226">To Sweeten Your</tspan><tspan x="1498.677" y="3504.793">Day!</tspan></text></svg>