<svg xmlns="http://www.w3.org/2000/svg" xml:space="preserve" width="1000" height="500"><path d="M424.14 32.076c-1.211.016-2.9.064-6.661.31-60.852 3.997-83.072 29.297-94.829 51.532-7.588 14.351-11.735 28.556-13.25 43.637-.303 3.03-.303 5.104.046 6.118.35 1.014 1.048.97 1.746.924-1.133 52.287-2.266 104.572-2.674 138.667-.526 44.12-.02 72.903 3.004 94.947 1.37 9.99 3.41 20.442 5.975 29.078 2.682 9.028 10.308 33.512 38.495 52.167 19.128 12.658 42.044 16.845 63.213 18.133 3.924.24 7.64.363 10.795.335v.003h7.345c3.315-.052 6.01-2.785 6.015-6.096v-17.492q.033-1.123.064-2.345h12.259v2.004h4.32c2.044-.001 4.002-.432 5.442-1.198 1.431-.757 2.245-1.78 2.266-2.85v-36.28l-.254-.32c-.834-1.608-2.19-3.095-3.988-4.372v-.002a1.2 1.2 0 0 1-.108-.212 5 5 0 0 1-.265-.86c1.077-.212 2.294-.562 3.35-1.234a4.5 4.5 0 0 0 1.265-1.19v-69.474a4 4 0 0 0-.148-.213c-.568-.788-2.027-1.802-4.039-2.197.258-.444.7-.913 1.751-1.744 1.052-.831 2.083-2.36 2.434-3.972v-.003l-.556-129.845-.03-.133c-.351-1.611-1.382-3.14-2.434-3.971s-1.493-1.301-1.751-1.745c2.011-.395 3.47-1.409 4.038-2.197.72-.996.733-1.9.733-1.9v-.036l-.017-.437h.017V109.87a4.5 4.5 0 0 0-1.265-1.19c-1.055-.672-2.272-1.022-3.35-1.234q.092-.435.265-.86c.066-.15.099-.2.108-.212v-.002c1.798-1.277 3.154-2.764 3.988-4.371l.254-.321V65.473c0-1.31-1.001-2.566-2.776-3.482-1.725-.917-4.07-1.434-6.515-1.437h-11.832V42.799c0-2.636-2.08-6.057-6.016-6.118h-13.754c0-1.53.001-3.06-.365-3.832-.367-.773-1.1-.79-2.311-.773" style="fill:#dfdfe7;fill-opacity:1;stroke-width:1.30097;stroke-linecap:round;stroke-linejoin:round"/><g style="fill:#000" transform="translate(160.375 -3.376)scale(.86054)"><circle cx="214.718" cy="301.874" r="17.93" style="font-variation-settings:normal;vector-effect:none;fill:#000;fill-opacity:1;fill-rule:evenodd;stroke-width:35.8485;stroke-linecap:butt;stroke-linejoin:miter;stroke-miterlimit:4;stroke-dasharray:none;stroke-dashoffset:0;stroke-opacity:1;-inkscape-stroke:none;stop-color:#000"/><circle cx="-284.455" cy="301.874" r="17.93" style="font-variation-settings:normal;vector-effect:none;fill:#000;fill-opacity:1;fill-rule:evenodd;stroke-width:35.8485;stroke-linecap:butt;stroke-linejoin:miter;stroke-miterlimit:4;stroke-dasharray:none;stroke-dashoffset:0;stroke-opacity:1;-inkscape-stroke:none;stop-color:#000" transform="scale(-1 1)"/><circle cx="267.005" cy="-249.586" r="17.93" style="font-variation-settings:normal;vector-effect:none;fill:#000;fill-opacity:1;fill-rule:evenodd;stroke-width:35.8485;stroke-linecap:butt;stroke-linejoin:miter;stroke-miterlimit:4;stroke-dasharray:none;stroke-dashoffset:0;stroke-opacity:1;-inkscape-stroke:none;stop-color:#000" transform="rotate(90)"/><circle cx="-336.742" cy="-249.586" r="17.93" style="font-variation-settings:normal;vector-effect:none;fill:#000;fill-opacity:1;fill-rule:evenodd;stroke-width:35.8485;stroke-linecap:butt;stroke-linejoin:miter;stroke-miterlimit:4;stroke-dasharray:none;stroke-dashoffset:0;stroke-opacity:1;-inkscape-stroke:none;stop-color:#000" transform="scale(1 -1)rotate(90)"/></g><path d="M575.86 32.076c1.211.016 2.9.064 6.661.31 60.852 3.997 83.072 29.297 94.829 51.532 7.588 14.351 11.735 28.556 13.25 43.637.303 3.03.303 5.104-.046 6.118-.35 1.014-1.048.97-1.747.924 1.133 52.287 2.267 104.572 2.674 138.667.527 44.12.02 72.903-3.003 94.947-1.37 9.99-3.41 20.442-5.975 29.078-2.682 9.028-10.308 33.512-38.496 52.167-19.127 12.658-42.044 16.845-63.212 18.133-3.924.24-7.64.363-10.795.335v.003h-7.345c-3.315-.052-6.01-2.785-6.015-6.096v-17.492l-.064-2.345h-12.26v2.004h-4.32c-2.043-.001-4-.432-5.441-1.198-1.432-.757-2.245-1.78-2.266-2.85v-36.28l.254-.32c.834-1.608 2.19-3.095 3.988-4.372v-.002c.01-.012.043-.062.108-.212q.174-.425.265-.86c-1.077-.212-2.295-.562-3.35-1.234a4.5 4.5 0 0 1-1.265-1.19v-69.474q.069-.105.148-.213c.568-.788 2.027-1.802 4.039-2.197-.258-.444-.7-.913-1.752-1.744s-2.083-2.36-2.433-3.972v-.003l.556-129.845.03-.133c.351-1.611 1.382-3.14 2.434-3.971s1.493-1.301 1.751-1.745c-2.011-.395-3.47-1.409-4.038-2.197-.72-.996-.733-1.9-.733-1.9v-.036l.017-.437h-.017V109.87a4.5 4.5 0 0 1 1.265-1.19c1.055-.672 2.272-1.022 3.35-1.234a5 5 0 0 0-.266-.86c-.065-.15-.098-.2-.107-.212v-.002c-1.798-1.277-3.154-2.764-3.989-4.371l-.253-.321V65.473c0-1.31 1-2.566 2.776-3.482 1.725-.917 4.07-1.434 6.515-1.437h11.832V42.799c0-2.636 2.08-6.057 6.016-6.118h13.753c0-1.53 0-3.06.366-3.832.367-.773 1.1-.79 2.311-.773" style="fill:#dfdfe7;fill-opacity:1;stroke-width:1.30097;stroke-linecap:round;stroke-linejoin:round"/><g style="fill:#000" transform="translate(288.92 451.157)scale(.86054)"><circle cx="353.93" cy="-358.2" r="17.93" style="font-variation-settings:normal;vector-effect:none;fill:#000;fill-opacity:1;fill-rule:evenodd;stroke-width:35.8485;stroke-linecap:butt;stroke-linejoin:miter;stroke-miterlimit:4;stroke-dasharray:none;stroke-dashoffset:0;stroke-opacity:1;-inkscape-stroke:none;stop-color:#000"/><circle cx="-423.668" cy="-358.2" r="17.93" style="font-variation-settings:normal;vector-effect:none;fill:#000;fill-opacity:1;fill-rule:evenodd;stroke-width:35.8485;stroke-linecap:butt;stroke-linejoin:miter;stroke-miterlimit:4;stroke-dasharray:none;stroke-dashoffset:0;stroke-opacity:1;-inkscape-stroke:none;stop-color:#000" transform="scale(-1 1)"/><circle cx="-393.07" cy="-388.799" r="17.93" style="font-variation-settings:normal;vector-effect:none;fill:#000;fill-opacity:1;fill-rule:evenodd;stroke-width:35.8485;stroke-linecap:butt;stroke-linejoin:miter;stroke-miterlimit:4;stroke-dasharray:none;stroke-dashoffset:0;stroke-opacity:1;-inkscape-stroke:none;stop-color:#000" transform="rotate(90)"/><circle cx="323.332" cy="-388.799" r="17.93" style="font-variation-settings:normal;vector-effect:none;fill:#000;fill-opacity:1;fill-rule:evenodd;stroke-width:35.8485;stroke-linecap:butt;stroke-linejoin:miter;stroke-miterlimit:4;stroke-dasharray:none;stroke-dashoffset:0;stroke-opacity:1;-inkscape-stroke:none;stop-color:#000" transform="scale(1 -1)rotate(90)"/></g><g style="fill:#000;fill-opacity:1"><path d="M704.621 563C680 563 660 583 660 607.621s20 44.621 44.62 44.621c24.622 0 44.622-20 44.622-44.62 0-24.622-20-44.622-44.621-44.622" style="baseline-shift:baseline;display:inline;overflow:visible;vector-effect:none;fill:#000;fill-opacity:1;stop-color:#000" transform="translate(101.097 -196.252)scale(.74139)"/></g><g style="fill:#000;fill-opacity:1"><path d="M704.621 563C680 563 660 583 660 607.621s20 44.621 44.62 44.621c24.622 0 44.622-20 44.622-44.62 0-24.622-20-44.622-44.621-44.622" style="baseline-shift:baseline;display:inline;overflow:visible;vector-effect:none;fill:#000;fill-opacity:1;stop-color:#000" transform="translate(-147.244 -307.57)scale(.74139)"/></g></svg>