<?xml version="1.0" encoding="UTF-8" standalone="no"?>
<svg
   width="2400.667"
   height="1600"
   version="1.1"
   id="svg63"
   sodipodi:docname="hornet-haj.svg"
   xml:space="preserve"
   inkscape:version="1.4.2 (ebf0e940d0, 2025-05-08)"
   xmlns:inkscape="http://www.inkscape.org/namespaces/inkscape"
   xmlns:sodipodi="http://sodipodi.sourceforge.net/DTD/sodipodi-0.dtd"
   xmlns:xlink="http://www.w3.org/1999/xlink"
   xmlns="http://www.w3.org/2000/svg"
   xmlns:svg="http://www.w3.org/2000/svg"><sodipodi:namedview
     id="namedview1"
     pagecolor="#ffffff"
     bordercolor="#000000"
     borderopacity="0.25"
     inkscape:showpageshadow="2"
     inkscape:pageopacity="0.0"
     inkscape:pagecheckerboard="0"
     inkscape:deskcolor="#d1d1d1"
     inkscape:zoom="0.2121875"
     inkscape:cx="1479.8233"
     inkscape:cy="1185.2725"
     inkscape:window-width="1536"
     inkscape:window-height="888"
     inkscape:window-x="0"
     inkscape:window-y="0"
     inkscape:window-maximized="1"
     inkscape:current-layer="svg63" /><defs
     id="defs42"><linearGradient
       id="p"><stop
         offset="0"
         stop-color="#3d2a3f"
         id="stop1" /><stop
         offset=".5"
         stop-color="#50314a"
         id="stop2" /><stop
         offset="1"
         stop-color="#342336"
         id="stop3" /></linearGradient><linearGradient
       id="o"><stop
         offset="0"
         stop-color="#271f3a"
         id="stop4" /><stop
         offset=".5"
         stop-color="#29203b"
         id="stop5" /><stop
         offset="1"
         stop-color="#342540"
         id="stop6" /></linearGradient><linearGradient
       id="n"><stop
         offset="0"
         stop-color="#251e35"
         id="stop7" /><stop
         offset=".5"
         stop-color="#29203a"
         id="stop8" /><stop
         offset="1"
         stop-color="#261e38"
         id="stop9" /></linearGradient><linearGradient
       id="m"><stop
         offset="0"
         stop-color="#29203b"
         id="stop10" /><stop
         offset=".5"
         stop-color="#32243f"
         id="stop11" /><stop
         offset="1"
         stop-color="#392842"
         id="stop12" /></linearGradient><linearGradient
       id="l"><stop
         offset="0"
         stop-color="#271e36"
         id="stop13" /><stop
         offset=".5"
         stop-color="#2a213c"
         id="stop14" /><stop
         offset="1"
         stop-color="#27203a"
         id="stop15" /></linearGradient><linearGradient
       id="i"><stop
         offset="0"
         stop-color="#271f3a"
         id="stop16" /><stop
         offset="1"
         stop-color="#241e39"
         id="stop17" /></linearGradient><linearGradient
       id="g"><stop
         offset="0"
         stop-color="#271f3a"
         id="stop18" /><stop
         offset=".5"
         stop-color="#28203b"
         id="stop19" /><stop
         offset="1"
         stop-color="#271e3a"
         id="stop20" /></linearGradient><linearGradient
       id="f"><stop
         offset="0"
         stop-color="#271f3a"
         id="stop21" /><stop
         offset="1"
         stop-color="#332440"
         id="stop22" /></linearGradient><linearGradient
       id="s"><stop
         offset="0"
         stop-color="#efe1e4"
         stop-opacity=".13"
         id="stop23" /><stop
         offset="1"
         stop-color="#efe2e5"
         stop-opacity=".49"
         id="stop24" /></linearGradient><linearGradient
       id="e"><stop
         offset="0"
         stop-color="#fffcfd"
         id="stop25" /><stop
         offset=".5"
         stop-color="#e5d6db"
         stop-opacity=".996"
         id="stop26" /><stop
         offset=".75"
         stop-color="#eddee0"
         stop-opacity=".376"
         id="stop27" /><stop
         offset="1"
         stop-color="#eddee0"
         stop-opacity=".019"
         id="stop28" /></linearGradient><linearGradient
       id="d"><stop
         offset=".488"
         stop-color="#864c62"
         id="stop29" /><stop
         offset="1"
         stop-color="#3a2742"
         id="stop30" /></linearGradient><linearGradient
       id="r"><stop
         offset=".828"
         stop-color="#fbeaeb"
         id="stop31" /><stop
         offset="1"
         stop-color="#fbeaeb"
         stop-opacity="0"
         id="stop32" /></linearGradient><linearGradient
       id="q"><stop
         offset="0"
         stop-color="#d7c8cf"
         stop-opacity=".171"
         id="stop33" /><stop
         offset="1"
         stop-color="#d7c8cf"
         stop-opacity=".12"
         id="stop34" /></linearGradient><linearGradient
       id="c"><stop
         offset=".096"
         stop-color="#462d45"
         id="stop35" /><stop
         offset=".5"
         stop-color="#462e46"
         id="stop36" /><stop
         offset="1"
         stop-color="#4a2f46"
         id="stop37" /></linearGradient><linearGradient
       id="b"><stop
         offset=".815"
         stop-color="#767585"
         id="stop38" /><stop
         offset="1"
         stop-color="#c5bac2"
         id="stop39" /></linearGradient><linearGradient
       id="a"><stop
         offset="0"
         stop-color="#c5bac2"
         id="stop40" /><stop
         offset=".848"
         stop-color="#f5e4e5"
         id="stop41" /><stop
         offset="1"
         stop-color="#313343"
         id="stop42" /></linearGradient><linearGradient
       xlink:href="#a"
       id="E"
       x1="766.53101"
       x2="101.888"
       y1="1154.297"
       y2="1411.666"
       gradientUnits="userSpaceOnUse"
       gradientTransform="translate(903.34635,30.309088)" /><linearGradient
       xlink:href="#b"
       id="D"
       x1="841.15198"
       x2="746.05902"
       y1="1130.152"
       y2="1141.521"
       gradientUnits="userSpaceOnUse"
       gradientTransform="translate(903.34635,30.309088)" /><linearGradient
       xlink:href="#c"
       id="B"
       x1="954.914"
       x2="958.52802"
       y1="683.91803"
       y2="743.53497"
       gradientUnits="userSpaceOnUse"
       gradientTransform="translate(903.34635,30.309088)" /><linearGradient
       xlink:href="#d"
       id="C"
       x1="964.69202"
       x2="900.79602"
       y1="760.58801"
       y2="1163.5"
       gradientUnits="userSpaceOnUse"
       gradientTransform="translate(903.34635,30.309088)" /><linearGradient
       xlink:href="#e"
       id="I"
       x1="1374.207"
       x2="1459.615"
       y1="2530.375"
       y2="2530.375"
       gradientUnits="userSpaceOnUse"
       gradientTransform="translate(904.34935,-1569.9339)" /><linearGradient
       xlink:href="#f"
       id="z"
       x1="803.00598"
       x2="783.65503"
       y1="1110.996"
       y2="1110.996"
       gradientUnits="userSpaceOnUse"
       gradientTransform="translate(903.34635,30.309088)" /><linearGradient
       xlink:href="#g"
       id="A"
       x1="803.24402"
       x2="869.151"
       y1="1119.613"
       y2="1119.613"
       gradientUnits="userSpaceOnUse"
       gradientTransform="translate(903.34635,30.309088)" /><linearGradient
       xlink:href="#i"
       id="y"
       x1="865.854"
       x2="880.87598"
       y1="1135.265"
       y2="1135.265"
       gradientUnits="userSpaceOnUse"
       gradientTransform="translate(903.34635,30.309088)" /><linearGradient
       xlink:href="#l"
       id="x"
       x1="978"
       x2="1056.662"
       y1="1141.286"
       y2="1127.597"
       gradientUnits="userSpaceOnUse"
       gradientTransform="translate(903.34635,30.309088)" /><linearGradient
       xlink:href="#m"
       id="w"
       x1="1056.606"
       x2="1091.986"
       y1="1132.635"
       y2="1132.635"
       gradientUnits="userSpaceOnUse"
       gradientTransform="translate(903.34635,30.309088)" /><linearGradient
       xlink:href="#n"
       id="v"
       x1="1133.368"
       x2="1170.422"
       y1="1122.834"
       y2="1103.76"
       gradientUnits="userSpaceOnUse"
       gradientTransform="translate(903.34635,30.309088)" /><linearGradient
       xlink:href="#o"
       id="u"
       x1="1177.9659"
       x2="1213.157"
       y1="1105.299"
       y2="1082.897"
       gradientUnits="userSpaceOnUse"
       gradientTransform="translate(903.34635,30.309088)" /><linearGradient
       xlink:href="#p"
       id="t"
       x1="1253.103"
       x2="1261.4611"
       y1="1058.02"
       y2="1051.892"
       gradientUnits="userSpaceOnUse"
       gradientTransform="translate(903.34635,30.309088)" /><radialGradient
       xlink:href="#q"
       id="H"
       cx="949.83197"
       cy="636.41602"
       r="86.207001"
       fx="949.83197"
       fy="636.41602"
       gradientTransform="matrix(1,0,0,0.77246,903.34635,170.26109)"
       gradientUnits="userSpaceOnUse" /><radialGradient
       xlink:href="#r"
       id="G"
       cx="967.14099"
       cy="600.95801"
       r="100.025"
       fx="967.14099"
       fy="600.95801"
       gradientTransform="matrix(1,0,0,0.80527,903.34635,147.33409)"
       gradientUnits="userSpaceOnUse" /><radialGradient
       xlink:href="#s"
       id="F"
       cx="795.573"
       cy="957.61499"
       r="326.97601"
       fx="795.573"
       fy="957.61499"
       gradientTransform="matrix(1,0,0,0.35009,903.34635,652.67609)"
       gradientUnits="userSpaceOnUse" /><linearGradient
       xlink:href="#g-3"
       id="h"
       x1="642.82703"
       x2="1080.1899"
       y1="862.659"
       y2="828.00299"
       gradientUnits="userSpaceOnUse" /><linearGradient
       id="g-3"><stop
         offset="0"
         stop-color="#fff"
         id="stop1-6" /><stop
         offset="1"
         stop-color="#c3c3c3"
         stop-opacity=".698"
         id="stop2-7" /></linearGradient><linearGradient
       xlink:href="#f-3"
       id="i-5"
       x1="309.642"
       x2="794.29498"
       y1="417.54099"
       y2="984.73901"
       gradientUnits="userSpaceOnUse" /><linearGradient
       id="f-3"><stop
         offset="0"
         stop-color="#67a3b3"
         id="stop12-5" /><stop
         offset=".5"
         stop-color="#3a7686"
         id="stop13-6" /><stop
         offset="1"
         stop-color="#3f8196"
         id="stop14-2" /></linearGradient><linearGradient
       xlink:href="#a-9"
       id="j"
       x1="62.403999"
       x2="825.00403"
       y1="2202.394"
       y2="2406.188"
       gradientTransform="translate(24.108,-1380.204)"
       gradientUnits="userSpaceOnUse" /><linearGradient
       id="a-9"><stop
         offset=".493"
         stop-color="#eef0ef"
         id="stop9-1" /><stop
         offset=".686"
         stop-color="#dbdedb"
         id="stop10-2" /><stop
         offset="1"
         stop-color="#fff"
         id="stop11-7" /></linearGradient><linearGradient
       xlink:href="#c-0"
       id="k"
       x1="525.44098"
       x2="525.44098"
       y1="875.96399"
       y2="925.48102"
       gradientUnits="userSpaceOnUse" /><linearGradient
       id="c-0"><stop
         offset="0"
         id="stop7-9" /><stop
         offset="1"
         stop-color="#7f7f7d"
         stop-opacity=".53"
         id="stop8-3" /></linearGradient><linearGradient
       xlink:href="#c-0"
       id="l-6"
       x1="525.44098"
       x2="525.44098"
       y1="875.96399"
       y2="925.48102"
       gradientTransform="translate(33.729,16.552)"
       gradientUnits="userSpaceOnUse" /><linearGradient
       xlink:href="#c-0"
       id="m-2"
       x1="525.44098"
       x2="525.44098"
       y1="875.96399"
       y2="925.48102"
       gradientTransform="translate(63.809,31.313)"
       gradientUnits="userSpaceOnUse" /><linearGradient
       xlink:href="#d-7"
       id="n-8"
       x1="525.44098"
       x2="521.00598"
       y1="875.96399"
       y2="933.73798"
       gradientTransform="translate(-33.132,-20.125)"
       gradientUnits="userSpaceOnUse" /><linearGradient
       id="d-7"><stop
         offset=".748"
         id="stop15-9" /><stop
         offset="1"
         stop-color="#7f7f7d"
         stop-opacity=".53"
         id="stop16-2" /></linearGradient><linearGradient
       xlink:href="#e-2"
       id="o-0"
       x1="525.44098"
       x2="523.95203"
       y1="875.96399"
       y2="934.59698"
       gradientTransform="translate(-62.325,-28.767)"
       gradientUnits="userSpaceOnUse" /><linearGradient
       id="e-2"><stop
         offset=".926"
         id="stop17-3" /><stop
         offset="1"
         stop-color="#7f7f7d"
         stop-opacity=".53"
         id="stop18-7" /></linearGradient><linearGradient
       xlink:href="#e-2"
       id="p-5"
       x1="525.44098"
       x2="514.71301"
       y1="875.96399"
       y2="954.49902"
       gradientTransform="translate(-84.93,-53.074)"
       gradientUnits="userSpaceOnUse" /><linearGradient
       id="prefix___Linear1"
       gradientTransform="scale(1,-1)"
       gradientUnits="userSpaceOnUse"
       x1="0"
       x2="1"
       y1="0"
       y2="0"><stop
         offset="0"
         stop-color="#f74c00"
         id="stop1-1" /><stop
         offset=".33"
         stop-color="#f74c00"
         id="stop2-9" /><stop
         offset="1"
         stop-color="#f49600"
         id="stop3-4" /></linearGradient><linearGradient
       id="prefix___Linear2"
       gradientTransform="scale(1,-1)"
       gradientUnits="userSpaceOnUse"
       x1="0"
       x2="1"
       y1="0"
       y2="0"><stop
         offset="0"
         stop-color="#cc3a00"
         id="stop4-7" /><stop
         offset=".15"
         stop-color="#cc3a00"
         id="stop5-8" /><stop
         offset=".74"
         stop-color="#f74c00"
         id="stop6-4" /><stop
         offset="1"
         stop-color="#f74c00"
         id="stop7-5" /></linearGradient><linearGradient
       inkscape:collect="always"
       xlink:href="#prefix___Linear2"
       id="linearGradient12"
       gradientUnits="userSpaceOnUse"
       gradientTransform="scale(1,-1)"
       x1="0"
       y1="0"
       x2="1"
       y2="0" /><linearGradient
       inkscape:collect="always"
       xlink:href="#prefix___Linear2"
       id="linearGradient1"
       gradientUnits="userSpaceOnUse"
       gradientTransform="scale(1,-1)"
       x1="0"
       y1="0"
       x2="1"
       y2="0" /></defs><rect
     style="fill:#5a5a5a;fill-opacity:1;stroke-width:0.22165"
     id="rect63"
     width="2400.667"
     height="1600"
     x="2.8421709e-14"
     y="3.4106051e-13" /><path
     id="path86"
     style="fill:#2e2e2e;fill-opacity:1"
     d="m 2210.8497,126.1725 c -1.4552,0 -6.6041,1.6325 -13.1445,3.918 -1.3569,0.4041 -3.0307,1.0228 -5.2754,1.8301 -0.1434,0.0515 -0.3054,0.1115 -0.4824,0.1796 -20.0386,7.3463 -50.9078,19.9605 -69.2891,28.6895 -65.624,31.156 -151.5196,90.6858 -194.6816,134.9258 -46.444,47.603 -79.4485,90.911 -113.6465,149.125 -26.273,44.722 -42.3417,87.2399 -50.1387,132.6679 -2.879,16.777 -4.4998,47.1299 -3.2578,61.0059 2.443,27.293 13.0632,53.137 28.2012,68.627 3.744,3.832 6.5437,7.1775 6.2207,7.4355 -0.324,0.257 -5.2389,2.6408 -10.9219,5.2988 -6.118,2.861 -10.334,5.6452 -10.334,6.8243 0,1.096 4.4877,5.368 9.9727,9.496 16.477,12.402 29.3841,28.6196 29.1621,36.6446 -0.071,2.566 -3.1014,11.267 -6.7344,19.334 -12.703,28.201 -30.5788,54.462 -83.0468,122 -46.163,59.42105 -55.1602,71.20905 -67.6602,88.666 -18.327,25.593 -28.4309,41.9342 -39.5449,63.9472 -5.198,10.296 -9.8888,19.7688 -10.4239,21.0528 v 0 c -0.3021,0.7257 -0.4995,1.3779 -0.5625,1.8067 -12.4179,0.2548 -24.8682,0.3205 -37.3008,0.5488 -61,0.73 -104.8071,-5.7002 -134.7851,-16.4492 -29.978,-10.749 -46.0957,-25.7903 -51.8907,-42.2813 -5.797,-16.49 -1.3147,-34.53145 10.1993,-51.39645 11.511,-16.862 30.0477,-32.5039 52.2167,-44.08395 h 0.01 c 71.661,-34.307 155.4761,-53.4117 235.6641,-59.4317 3.477,-0.253 6.6987,-0.5388 9.0957,-0.7988 a 73,73 0 0 0 2.9101,-0.3653 c 0.36,-0.055 0.6523,-0.1049 0.877,-0.1542 0.112,-0.026 0.2069,-0.052 0.2949,-0.08 0.088,-0.03 0.1547,-0.029 0.3047,-0.168 a 0.6,0.6 0 0 0 0.1875,-0.4902 0.58,0.58 0 0 0 -0.2441,-0.4082 c -0.177,-0.13 -0.3169,-0.1601 -0.5039,-0.2071 -0.374,-0.094 -0.9059,-0.1654 -1.6329,-0.2324 -1.453,-0.136 -3.6559,-0.2381 -6.5429,-0.2871 -5.774,-0.098 -14.2732,0.014 -24.8282,0.4981 -21.11,0.966 -50.4363,3.4183 -82.5703,8.6523 -64.268,10.468 -139.7694,32.0335 -183.1914,75.22855 -19.505,19.405 -28.7255,39.0081 -28.1465,57.28705 0.579,18.28 10.9707,35.1538 30.4297,49.0508 36.861,26.3244 106.2822,42.1461 204.1856,37.332 -1.9258,3.2082 -3.5542,8.1617 -3.4824,11.8321 0.088,4.472 5.2258,13.5597 10.4628,18.5097 5.825,5.503 18.526,12.6745 28.086,15.8555 7.549,2.512 9.0597,2.6445 12.0137,1.0645 1.859,-0.995 4.2675,-3.1644 5.3535,-4.8204 1.085,-1.657 2.4777,-3.0117 3.0937,-3.0117 0.616,0 4.5284,2.3887 8.6934,5.3067 8.504,5.957 19.9897,10.6933 25.9277,10.6933 3.865,0 7.1962,-2.4385 10.0352,-7.3515 1.331,-2.303 1.8759,-2.1729 8.9609,2.1171 4.15,2.513 7.563,5.2415 7.584,6.0625 0.021,0.821 -6.2619,3.1632 -13.9609,5.2032 -13.25,3.513 -15.014,3.6653 -33,2.8593 -10.451,-0.468 -21.2757,-1.4021 -24.0547,-2.0761 -0.694,-0.1681 -1.1559,-0.3737 -2.5078,-0.1465 -0.2352,-0.025 -0.5411,-0.042 -1.3477,0.2676 -0.059,0.023 -0.1203,0.047 -0.1816,0.076 -13.0118,3.4931 -78.0405,31.3996 -502.1719,213.1231 -46.441,19.898 -81.6539,36.1135 -105.2559,47.3555 -23.602,11.242 -35.59372,17.5097 -35.59372,17.5097 0,0 16.10132,-3.3759 33.44532,-9.0469 8.8,-2.877 75.4,-24.4912 148,-48.0312 a 362044,362044 0 0 0 184.666,-59.9238 c 83.423,-27.122 252.523,-81.8893 284.668,-92.1973 40.762,-13.072 40.7599,-13.0727 45.0019,-21.7227 4.488,-9.15 17.6381,-23.2167 25.9141,-27.7207 7.557,-4.113 31.6392,-13.0234 35.1992,-13.0234 1.614,0 2.2097,0.6733 1.7207,1.9453 -0.41,1.07 -0.024,4.1269 0.8555,6.7969 2.391,7.243 9.1308,9.8585 25.5078,9.8945 l 12.8652,0.029 2.127,9.666 c 2.646,12.025 9.5038,60.472 11.4668,81 a 9214,9214 0 0 0 3.4043,34.668 c 7.008,69.88 9.0221,140.0766 5.3261,185.6426 -1.233,15.203 -1.8663,28.253 -1.4043,29 v 0 c 1.891,3.06 2.9765,0.5555 7.0665,-16.3105 10.904,-44.965 15.5755,-106.664 14.5625,-192.334 -0.382,-32.266 -1.3675,-64.666 -2.1895,-72 -2.4,-21.411 -5.3395,-51.4538 -5.7305,-58.5898 l -0.3613,-6.5899 9.3652,-2.8691 c 7.864,-2.407 14.0561,-2.9975 38.6661,-3.6895 29,-0.815 61.6854,-3.7509 71.9394,-6.4609 4.877,-1.288 5.4654,-1.1486 7.3164,1.7324 4.604,7.167 9.4446,10.4668 15.3516,10.4668 4.997,0 6.3194,0.6918 10.8594,5.6758 7.9339,8.709 16.1938,20.1711 39.6308,54.9941 33.193,49.32 35.4906,53.2361 69.6406,118.6641 9.835,18.843 33.1635,70.414 41.3145,91.332 2.429,6.234 7.1426,17.8096 10.4726,25.7246 3.331,7.915 8.2363,21.415 10.9043,30 5.58,17.956 5.7303,18.2854 7.4883,16.5274 1.665,-1.665 -0.6619,-20.689 -5.0859,-41.584 -7.303,-34.494 -30.8985,-104.233 -50.5235,-149.334 -20.958,-48.161 -40.9755,-85.1078 -84.4765,-155.9238 -3.803,-6.19 -6.7309,-11.8045 -6.5059,-12.4785 0.225,-0.674 8.2614,-4.3785 17.8594,-8.2305 9.6,-3.853 21.7149,-8.9691 26.9219,-11.3691 l 9.4668,-4.3653 5.3691,4.8516 c 6.775,6.12 10.9859,6.2337 21.8399,0.5957 11.711,-6.083 31.4981,-26.4297 40.4531,-41.5977 3.812,-6.458 7.1424,-12.3754 7.4004,-13.1504 0.297,-0.889 1.6703,-0.6468 3.7343,0.6582 7.051,4.461 8.8536,4.2202 13.1836,-1.7558 2.22,-3.065 5.3625,-9.6868 6.9825,-14.7168 2.783,-8.641 2.8251,-9.3958 0.7851,-13.6758 -1.188,-2.491 -5.2029,-7.1486 -8.9219,-10.3516 -3.72,-3.203 -6.7636,-6.4991 -6.7636,-7.3261 0,-2.551 14.2687,-7.9014 52.9707,-19.8614 l 24.3027,-7.5097 8.3965,3.3594 c 15.115,6.047 29.6081,6.8187 41.6621,2.2167 5.576,-2.129 13.8469,-10.3531 16.7969,-16.7031 4.8719,-10.48395 2.2634,-30.03515 -6.0508,-30.82215 0.5338,-0.1396 1.0819,-0.203 1.6543,-0.1602 2.235,0.166 4.3,1.233 6.168,1.5 1.868,0.267 3.5363,-0.2672 5.9043,-1.3672 2.367,-1.1 5.4335,-2.7678 8.4355,-4.6348 3,-1.868 5.9343,-3.9378 10.0703,-7.1718 4.136,-3.234 9.4717,-7.6353 14.3067,-11.5703 4.835,-3.935 9.1108,-7.4545 12.6718,-11.4375 3.5336,-3.95205 47.3857,-57.79345 40.6661,-61.23835 0.308,-2.1901 0.3768,-4.61 0.041,-6.6348 -0.034,-0.201 -1.8236,-10.7767 -11.4356,-21.8027 -9.612,-11.025 -27.05,-22.4437 -58.207,-24.2637 a 152,152 0 0 0 -9.4805,-0.25 l -0.01,-0.0156 c -14.7946,0.0587 -33.415,3.112 -54.1661,8.0137 -11.2057,2.6791 -23.0492,5.9231 -36.2128,10.3808 -43.9147,14.7599 -98.244,39.3016 -167.8184,80.2051 -16.67,9.976 -27.3381,16.31545 -34.2441,20.27345 -1.2093,0.6929 -6.1458,3.5348 -13.8438,7.8887 0.3008,-0.3791 -8.7903,-8.3148 -15.5996,-14.5664 -13.8506,-12.71265 -40.9845,-42.22905 -51.8809,-55.91605 -5.8057,-8.1895 -11.4886,-15.7342 -16.5234,-23.4356 -3.6846,-6.1286 -10.8717,-18.0464 -16.0566,-26.625 -8.419,-13.932 -22.7802,-42.8578 -25.0762,-50.5078 -1.209,-4.028 13.7918,-23.0004 31.6758,-40.0664 7.816,-7.458 14.2109,-14.2185 14.2109,-15.0215 0,-2.579 -7.8372,-6.332 -19.7402,-9.4551 -6.376,-1.6729 -12.0542,-3.4406 -12.6192,-3.9296 -0.564,-0.488 6.3037,-7.146 15.2657,-14.795 19.062,-16.272 60.0762,-55.2532 67.2402,-63.9082 2.731,-3.3 8.693,-9.9 13.248,-14.666 9.2664,-9.6973 31.7691,-40.8499 52.9844,-68.7441 9.5929,-11.3306 19.6646,-24.3291 30.5352,-39.6172 2.2103,-3.1562 6.24,-7.748 7.955,-10.3223 43.299,-64.993 82.2899,-126.5076 90.4649,-142.7226 1.644,-3.26 8.8279,-15.8278 15.9629,-27.9278 24.4507,-41.4608 41.2781,-71.8849 54.0215,-98.0918 l 0.039,-0.0664 c 0,0 0.021,-0.0379 0.061,-0.1152 7.456,-15.3426 13.5016,-29.2307 18.8398,-43.0176 0.9108,-2.3523 1.3311,-4.645 2.3535,-7.5136 2.2001,-6.2343 4.0434,-12.2274 5.8496,-18.6856 3.3088,-10.5674 8.2051,-24.2642 8.2051,-26.207 0,-2.2 -0.2258,-2.2155 -3.2558,-0.2305 -4.149,2.719 -42.4352,43.057 -60.7032,63.957 -68.028,77.829 -153.366,162.8157 -229.375,228.4297 -17.941,15.488 -25.7131,21.5376 -56.4531,43.9336 -17.646,12.858 -25.5564,15.8224 -30.4394,11.4024 -2.97,-2.688 -3.0702,-6.8125 -0.4102,-17.0215 6.347,-24.37 37.1239,-76.1405 69.4219,-116.7735 16.222,-20.409 104.0088,-109.1095 132.9258,-134.3105 26.491,-23.087 72.353,-59.4082 97.955,-77.5762 12.602,-8.941 16.5389,-13.4453 11.7539,-13.4453 z m 63.3516,17.332 c 0.065,0 0.126,0.008 0.1836,0.0235 -0.092,0.0686 -0.1849,0.1403 -0.2813,0.2148 -0.8085,0.6222 -1.7695,1.4674 -2.9609,2.5703 1.807,-1.8185 2.8757,-2.8086 3.0586,-2.8086 z m -295.0566,110.4981 c -9.2413,7.241 -17.7883,14.5452 -26.6602,22.7441 9.5407,-9.2294 17.2139,-16.2578 20.1856,-18.2656 1.3678,-0.9244 3.6469,-2.5017 6.4746,-4.4785 z m -59.4766,56.539 c -11.8937,12.5104 -22.7861,25.1718 -33.4355,37.8848 4.5883,-5.565 9.1857,-12.4829 13.6367,-17.4961 4.8378,-5.4485 12.9832,-13.2771 19.7988,-20.3887 z m 50.5781,35.004 c -2.2255,2.7437 -5.7375,6.2001 -7.7636,8.8144 0.7021,-0.8964 1.3516,-1.9675 2.0546,-2.8496 1.2286,-1.5417 4.3706,-4.3427 5.709,-5.9648 z m -116.8847,45.0546 c -5.2511,7.3102 -9.9559,14.6042 -14.7676,21.918 5.1519,-7.7418 9.2095,-14.1462 14.7676,-21.918 z m -45.586,71.9161 c -1.2265,2.361 -2.5088,4.7264 -3.6855,7.082 0.571,-1.1428 0.849,-2.2841 1.4316,-3.4258 0.5394,-1.0569 1.686,-2.5736 2.2539,-3.6562 z m -27.1933,63.3027 c -0.9728,2.9224 -1.7742,5.8053 -2.6602,8.709 0.8882,-2.9121 1.6892,-5.7802 2.6602,-8.709 z m -8.8809,30.8516 c -2.3217,10.0171 -4.3515,19.9634 -5.5566,29.6699 1.297,-9.666 3.1774,-19.5873 5.5566,-29.6699 z m 255.5059,15.8925 c -0.071,0.0918 -0.1419,0.184 -0.2129,0.2754 -15.0968,19.4338 -37.0405,43.9031 -59.0313,66.5352 22.2395,-23.4562 44.5475,-52.0631 59.2442,-66.8106 z m -262.8692,35.5664 c -0.1093,2.3089 -0.2543,4.6367 -0.2929,6.9063 0.039,-2.2733 0.1834,-4.5936 0.2929,-6.9063 z m 40.9961,103.6875 c -0.8055,0.1407 -1.3683,0.2609 -1.6074,0.3477 -0.2045,0.0742 -0.5949,-0.0461 -1.1348,-0.332 z m 48.6113,77.4375 v 0 c 0,0.01 0.1224,0.2883 0.1954,0.4454 -0.212,-0.235 -0.2053,-0.4204 -0.1993,-0.4454 z m 452.4747,41.8086 c 2.443,-0.036 3.1324,0.4452 4.1464,1.0782 0.603,0.378 1.4601,0.7674 2.5801,1.1054 -7.507,-0.289 -16.1559,0.3205 -23.2949,0.9785 1.767,-0.4 3.0616,-0.6308 4.8926,-1.0468 4.831,-1.1 9.5198,-2.0833 11.6758,-2.1153 z m 5.4121,8.1934 c 24.293,0.508 48.8146,3.6616 59.8496,11.9766 6.53,4.92 12.0998,14.0594 14.6718,24.1894 a 127,127 0 0 0 1.9375,6.8672 c 0.2023,0.6376 0.3909,1.2069 0.5645,1.6934 -11.8298,13.6859 -43.9195,56.82675 -51.0742,61.89255 -8.571,6.07 -18.1088,12.2711 -24.3438,15.5391 -6.236,3.269 -9.1697,3.6015 -11.8047,3.4355 -2.635,-0.166 -4.9691,-0.8337 -7.5371,-0.8007 -2.5212,0.033 -5.2694,0.7421 -8.1465,1.873 -0.9584,-0.7945 -2.9149,-1.8146 -5.6503,-2.7461 -9.988,-3.401 -22.4051,-5.2757 -32.6641,-3.1367 -11.147,2.324 -16.028,4.6968 -21.543,10.4648 -6.059,6.338 -8.3408,11.3566 -9.2148,20.2676 l -0.7793,7.9317 -33.334,11.08195 c -18.333,6.096 -38.6153,12.6779 -45.0723,14.6289 l -11.7402,3.5469 -18.2598,-9.0293 c -5.1697,-2.5568 -8.6613,-4.5444 -13.5175,-7.0996 -6.6395,-3.6701 -12.7606,-7.2213 -18.7266,-10.709 -17.5665,-10.95975 -47.6654,-30.93335 -50,-33.55465 -2.6199,-2.9398 -6.9957,-6.9075 -8.5176,-7.3203 0.5141,-0.3049 1.028,-0.6102 1.543,-0.916 l 0.018,0.01 0.2363,-0.1582 18.0605,-11.9043 c 38.515,-25.39405 81.8043,-49.72305 120.8653,-68.62505 39.06,-18.903 73.9171,-32.3792 95.4511,-36.0742 10.322,-1.77 34.4356,-3.8322 58.7286,-3.3242 z m -96.4121,9.5742 c -0.2458,0.0875 -0.5662,0.2478 -0.8125,0.3359 0.2475,-0.0891 0.5656,-0.2474 0.8125,-0.3359 z m -207.5157,104.96295 c -0.022,0.012 -0.043,0.025 -0.064,0.037 -0.011,-0.01 -0.021,-0.016 -0.031,-0.023 0.036,0 0.067,-0.01 0.096,-0.014 z m 249.0176,8.6504 c -1.3187,-0.01 -2.6018,0.023 -3.7344,0.092 -10.58,0.644 -15.3508,2.3922 -22.3808,8.2012 -5.112,4.225 -7.9364,8.2898 -9.1504,13.1718 -0.711,2.858 -0.3059,8.5704 0.7871,11.1114 0.1005,0.234 0.1809,0.5091 0.2598,0.8027 -0.576,-0.7604 -0.892,-2.0668 -1.2676,-4.2891 -1.236,-7.319 1.1772,-13.6442 7.3242,-19.1972 7.711,-6.967 12.9909,-9.1955 23.3379,-9.8535 1.5747,-0.1 3.1725,-0.1106 4.8242,-0.039 z m -244.3223,3.7402 h 0.01 c 0.024,0.01 0.09,0.065 0.1602,0.2305 -0.041,-0.057 -0.1531,-0.1958 -0.1661,-0.2168 z m 240.4141,6.6953 c -1.4658,0.2461 -2.8431,0.543 -4.1387,0.8828 0.7252,-0.1914 1.3587,-0.4376 2.1348,-0.5976 0.6447,-0.1331 1.3154,-0.2276 2.0039,-0.2852 z m -4.3086,0.9297 c -9.1232,2.4369 -13.9527,7.1935 -14.0976,13.9024 0.034,-2.2478 0.3059,-3.3932 1.1972,-5.2559 1.9059,-3.985 6.4246,-6.9049 12.9004,-8.6465 z m 7.9766,1.9297 c 1.0512,-0.013 2.0896,0.032 3.0937,0.1387 3.844,0.409 9.716,1.784 11,2.289 0.8581,0.3383 1.4703,0.3932 1.8516,0.1602 -0.061,0.177 -0.1189,0.3547 -0.1719,0.5293 -0.801,2.635 -0.6676,4.9684 0.9004,6.5684 1.567,1.601 4.5687,2.4679 6.3027,1.8339 1.7336,-0.6328 2.3797,-2.4717 3.5801,-4.4062 -0.966,1.7563 -1.1406,3.7923 -1.1406,7.7812 0,5.893 -0.6527,8.1479 -3.2207,11.13085 -6.474,7.519 -28.6689,2.6704 -31.1719,1.3184 -7.772,-4.19895 -11.7931,-14.33185 -8.2891,-20.88085 1.8813,-3.514 9.9069,-6.3744 17.2657,-6.4629 z m -22.0782,12.3223 c 0,0.9773 0.1024,1.9958 0.3008,3.0527 0.5041,2.6872 2.1045,5.5411 4.3438,8.168 -3.1321,-3.6197 -4.6446,-7.1023 -4.6446,-11.0449 0,-0.059 -2e-4,-0.1182 0,-0.1758 z m 5.0352,11.6504 c 3.6643,4.12395 8.8772,7.60565 13.9395,8.86515 -0.3282,-0.081 -0.9286,-0.145 -1.1797,-0.2187 -3.433,-1.008 -7.8668,-3.7293 -11.0508,-6.7813 -0.6602,-0.6328 -1.1513,-1.2453 -1.709,-1.86515 z m -20.1562,1.95305 c -1.1593,0.3908 -2.4822,0.8594 -4.0215,1.418 -6.429,2.333 -20.8102,7.1024 -41.7832,13.8574 -26.468,8.525 -39.3145,12.9435 -39.3145,13.5195 0,0.532 3.5821,2.9041 9.4981,6.2891 2.528,1.446 4.7152,2.6308 4.8652,2.6308 0.3538,0 41.1264,-12.9729 53.9922,-17.1679 -4.0582,1.4151 -8.6124,2.9329 -13.7012,4.5507 l -40.4121,12.8497 -7.2539,-4.1504 c -3.99,-2.283 -7.2539,-4.5776 -7.2539,-5.0996 0,-0.522 16.65,-6.243 37,-12.711 20.35,-6.468 40.807,-13.2597 45.459,-15.0937 1.0164,-0.4007 1.9919,-0.6901 2.9258,-0.8926 z m 38.6972,7.7617 c 2.7899,0.449 5.3971,0.7525 7.666,0.7285 -1.4325,0.059 -2.9893,0 -4.6816,-0.1777 -0.8985,-0.097 -1.8684,-0.3666 -2.9844,-0.5508 z m -23.9687,1.2481 c 0.043,0.2596 0.087,0.5259 0.1269,0.8125 0.011,0.08 0.022,0.1573 0.033,0.2343 -0.07,-0.3361 -0.1155,-0.6892 -0.1601,-1.0468 z m 57.5508,1.8242 c -0.1263,0.1317 -0.2534,0.2631 -0.3829,0.3926 -7.549,7.55 -12.3272,9.5308 -24.5312,10.1738 -9.272,0.489 -12.216,0.05 -21.416,-3.1934 -1.6848,-0.5936 -3.1117,-1.1556 -4.3203,-1.6972 4.928,1.9448 11.9085,4.1096 15.0234,4.5781 3.712,0.558 10.9,0.4263 16.582,-0.3067 7.194,-0.928 11.7524,-3.1536 17.3594,-8.4746 0.5578,-0.5291 1.123,-1.0145 1.6856,-1.4726 z" /><path
     id="path65"
     style="fill:#2e2e2e;fill-opacity:1;stroke-width:0.577196"
     d="m 440.53476,1050.0199 c -2.61744,0.039 -4.75519,1.5792 -6.72461,4.7344 -5.63921,7.873 -2.12652,11.3558 1.69336,19.418 4.03633,7.7206 8.00965,23.8374 9.62695,39.0488 0.16854,1.5873 0.41231,3.6648 0.54102,4.6172 0.12871,0.9524 0.39519,3.2886 0.59374,5.1933 7.06951,25.6656 6.2942,48.2767 8.06446,74.4219 0.15757,1.7512 -0.11405,2.6522 -1.1836,3.9238 -0.76363,0.9073 -1.67422,2.7412 -2.02343,4.0762 -1.2375,4.733 -3.94645,9.032 -6.65235,10.5586 -29.92586,26.678 -65.98507,29.1662 -89.42382,27.0918 -26.26934,-1.2953 -31.62567,-24.498 -39.74219,-28.8691 -6.23776,-13.9883 -21.1112,-13.7489 -17.49219,4.3242 0.0952,0.4762 0.32985,1.2542 0.52148,1.7304 1.62654,4.0444 2.64697,9.6016 2.11133,11.5039 -0.50158,1.7825 -5.08211,6.6923 -6.41601,6.877 -0.40865,0.057 -4.65943,0.2623 -9.44727,0.4551 -8.72432,0.3509 -10.46601,0.1663 -17.55859,-1.8574 -1.74602,-0.4981 -4.99265,-1.2984 -7.21485,-1.7774 -13.41057,-2.8924 -37.55961,-17.0529 -37.92382,-17.7363 -0.35555,-0.6684 -3.0579,-4.387 -6.00391,-8.2617 -18.07026,-18.9782 -61.45299,-101.7559 -91.58203,-101.7559 -2.66664,0 -6.70042,1.9386 -8.21094,3.9473 -0.99508,1.3241 -1.14525,2.3716 -1.08984,7.5976 0.0623,5.8354 0.17276,6.3383 2.97851,13.5625 2.92118,7.5208 4.31489,10.794 5.28516,12.4102 0.28571,0.4762 1.09305,2.295 1.79492,4.041 1.50994,3.7616 5.84631,12.8632 6.32422,13.2754 1.15786,0.9991 4.13675,6.3578 4.92578,8.8594 0.9391,2.9778 1.23389,3.7043 3.89648,9.6113 0.78673,1.746 1.62388,3.8235 1.85938,4.6172 0.41212,1.387 2.68026,6.2642 9.26953,19.9316 1.68887,3.503 4.34564,8.0941 5.90235,10.2031 l 2.83007,3.834 c 0.54545,26.7582 -13.81336,54.6623 -31.06054,75.4102 -3.89781,4.2239 -5.48694,7.3165 -6.32618,12.3184 -0.66262,3.9439 -0.57144,12.8828 0.12696,12.4511 0.27417,-0.1691 0.49804,-0.031 0.49804,0.3047 0,0.336 0.51939,1.1307 1.1543,1.7656 0.55556,0.5557 1.0247,0.9152 1.13281,0.8828 9.1e-4,-3e-4 0.005,0 0.006,0 h 0.002 0.002 0.002 0.002 0.002 c 4.9e-4,-8e-4 0.002,0 0.002,-0.01 0.002,-0.01 0.004,-0.012 0.004,-0.02 0,-0.1697 0.49927,-0.044 1.10937,0.2832 0.61067,0.3267 3.4028,0.63 6.20508,0.6739 6.24642,0.096 9.14682,-0.8064 18.66016,-5.8164 18.12972,-6.6338 33.10916,-23.1834 50.75,-30.0411 0.38441,0 1.83268,-0.78 3.21679,-1.7324 1.38412,-0.9523 2.82028,-1.7324 3.19141,-1.7324 0.37114,0 2.92225,1.0653 5.66797,2.3652 4.247,2.0098 5.63976,3.0577 9.32227,7.0196 14.31409,15.7645 31.01027,26.1175 48.89843,35.6914 57.73381,34.3862 109.74653,76.0861 167.85547,107.3945 -9.99905,6.2903 -21.56955,11.3239 -27.79687,15.832 -1.29985,0.9692 -2.92152,1.4487 -5.77344,1.709 -2.18065,0.1992 -5.26232,0.7741 -6.84961,1.2774 -1.58729,0.5027 -4.96425,1.3556 -7.50391,1.8964 -2.53966,0.5409 -5.39724,1.2664 -6.34961,1.6133 -0.95238,0.3469 -4.4577,1.456 -7.79101,2.4649 -3.3333,1.0089 -7.58146,2.5757 -9.43945,3.4824 -1.86435,0.9097 -4.33745,1.6484 -5.51954,1.6484 -4.44903,0 -10.59774,8.7721 -1.74414,16.9688 6.58003,6.0923 8.83344,6.832 31.13282,10.2305 5.13473,0.7827 15.39598,0.9462 25.39648,0.4043 3.96822,-0.2154 10.5918,-0.7894 14.71875,-1.2754 19.59926,-5.0118 45.51259,-1.236 62.32227,-13.0293 1.26447,-2.046 10.78918,-6.0483 21.87304,-10.7754 h 0.0234 l 5.06836,0.9062 c 30.80089,5.3667 61.76107,12.5858 92.96484,14.3809 119.15629,0.3267 229.76761,-45.254 240.18946,-61.8028 -0.0947,0.013 -2.9553,1.9882 -4.64649,1.3418 -0.0638,-0.024 -0.12626,-0.053 -0.18945,-0.084 1.8003,-2.3727 2.66408,-4.175 2.96484,-5.5743 0.10545,-0.1805 0.17567,-0.3366 0.21875,-0.4472 0.35959,-1.8338 -0.45951,-3.7648 -0.47851,-5.6153 l 0.86914,-2.0644 7.71875,-5.8711 c 8.39474,-7.4817 47.11328,-35.8238 47.69336,-48.1602 12.86289,-9.4999 22.35241,-21.1944 27.86133,-36.6875 -14.35024,-67.1354 -128.5153,-85.8266 -185.8418,-98.75 -2.2222,-0.576 -6.07936,-1.3284 -8.57227,-1.6718 -2.49291,-0.3423 -4.8295,-0.8054 -5.1914,-1.0293 -0.3619,-0.2234 -5.33423,-0.4508 -11.05079,-0.5039 -10.94825,-0.1016 -22.61924,-0.9582 -27.25585,-2 -28.91462,-6.4992 -139.37236,-8.7298 -142.48633,-28.1582 -0.78153,-5.9134 -11.76975,-8.1938 -11.79688,-12.6504 -0.005,-0.8311 -3.38102,-5.9178 -5.71289,-8.6075 -0.32092,-0.3694 -0.75452,-1.4082 -0.96289,-2.3086 -12.79931,-40.0886 -36.31792,-73.7488 -65.85937,-101.2285 -7.93875,-7.271 -18.76259,-8.0561 -28.25977,-11.8027 -1.4172,-0.5923 -2.70674,-0.8848 -3.89648,-0.8672 z m 330.63281,401.6192 c -0.36563,0.134 -0.74419,0.2234 -1.13477,0.2539 0.14872,-0.016 0.96611,-0.2328 1.13477,-0.2539 z" /><g
     id="g86"><path
       fill="url(#t)"
       d="m 2161.6364,1079.6921 c -1.116,0 -1.726,0.443 -2.228,0.826 a 7,7 0 0 0 -1.267,1.281 c -0.737,0.942 -1.35,2.036 -1.682,3.317 -0.276,1.07 -0.374,1.995 -0.01,3.212 0.23,0.767 0.581,1.231 0.983,1.664 0.402,0.434 0.83,0.83 1.638,1.114 0.479,0.167 1.22,0.408 2.153,0.183 0.932,-0.225 1.471,-0.766 1.824,-1.13 1.023,-1.057 1.502,-2.395 1.795,-3.899 0.132,-0.676 0.187,-1.355 0.197,-2.014 0.01,-0.659 0.073,-1.12 -0.232,-2.044 -0.376,-1.136 -1.27,-2.512 -3.17,-2.512 z"
       id="path42"
       style="fill:url(#t)" /><path
       fill="url(#u)"
       d="m 2112.8214,1111.4221 a 21,21 0 0 0 -2.25,0.1 33,33 0 0 0 -5.123,0.885 c -4.427,1.157 -11.047,3.49 -17.12,5.887 -6.072,2.396 -11.394,4.705 -13.765,6.334 -0.324,0.222 -0.654,0.467 -0.96,0.879 a 2.7,2.7 0 0 0 -0.501,1.601 c 0.042,1.113 0.534,1.74 1.121,2.631 1.412,2.143 3.042,3.946 8.615,9.602 l 5.139,5.213 a 1.67,1.67 0 0 0 2.304,0.068 l 2.829,-2.55 a 394,394 0 0 0 11.838,-11.16 c 3.644,-3.582 6.565,-6.589 7.876,-8.234 1.414,-1.773 2.921,-3.965 3.58,-5.418 0.591,-1.302 0.805,-2.657 0.099,-4.055 -0.269,-0.529 -0.541,-0.731 -0.829,-0.953 a 3.7,3.7 0 0 0 -0.972,-0.548 c -0.675,-0.257 -1.209,-0.267 -1.881,-0.28 z"
       id="path43"
       style="fill:url(#u)" /><path
       fill="url(#v)"
       d="m 2064.0084,1128.4871 -9.072,6.484 c -6.018,4.301 -11.002,7.937 -14.535,10.594 a 155,155 0 0 0 -4.186,3.234 c -0.51,0.413 -0.92,0.755 -1.273,1.078 a 8,8 0 0 0 -0.528,0.522 c -0.19,0.208 -0.433,0.187 -0.87,1.398 -0.147,0.404 -0.372,1.084 -0.136,2.12 0.237,1.035 1.186,2.093 1.926,2.472 1.48,0.759 1.933,0.435 2.323,0.393 0.778,-0.086 1.232,-0.227 2.037,-0.438 8.436,-2.21 26.372,-9.592 32.691,-13.717 0.605,-0.394 1.05,-0.658 1.654,-1.253 0.604,-0.596 1.344,-2.128 1.344,-3.122 0,-1.877 -0.784,-3.056 -1.615,-4.183 -0.832,-1.127 -1.887,-2.226 -3.236,-3.48 l -1.936,-1.805 a 3.63,3.63 0 0 0 -4.586,-0.297 z"
       id="path44"
       style="fill:url(#v)" /><path
       fill="url(#w)"
       d="m 1971.1664,1152.9931 a 95,95 0 0 0 -4.892,0.07 c -1.359,0.065 -2.218,0.069 -3.346,0.423 -1.016,0.32 -1.371,0.552 -2.06,1.372 -0.218,0.258 -0.615,0.767 -0.8,1.478 -0.184,0.711 -0.105,1.229 -0.06,1.57 0.286,2.185 1.306,3.478 3.238,6.57 2.027,3.245 3.448,5.235 4.93,6.721 0.41,0.412 0.69,0.715 1.209,1.069 0.518,0.353 1.516,0.635 2.04,0.635 h 0.01 c 1.232,0 1.478,-0.253 2.186,-0.512 a 44,44 0 0 0 2.541,-1.043 c 1.979,-0.872 4.528,-2.09 7.412,-3.549 4.143,-2.096 6.916,-3.62 8.782,-4.95 0.932,-0.664 1.661,-1.237 2.279,-2.152 0.309,-0.457 0.604,-1.046 0.682,-1.806 0.078,-0.76 -0.154,-1.64 -0.547,-2.24 -0.64,-0.977 -1.387,-1.32 -2.076,-1.612 -0.689,-0.292 -1.415,-0.488 -2.262,-0.666 -1.696,-0.356 -3.882,-0.614 -6.733,-0.834 a 191,191 0 0 0 -12.533,-0.545 z"
       id="path45"
       style="fill:url(#w)" /><path
       fill="url(#x)"
       d="m 1953.2724,1152.2881 -1.012,0.115 c -0.147,0.017 -3.42,0.28 -6.5,0.492 -6.72,0.464 -10.176,0.88 -15.957,1.922 -9.793,1.765 -20.526,4.413 -31.353,7.73 v 0 c -1.883,0.577 -5.866,1.938 -9.508,3.213 -1.821,0.638 -3.54,1.248 -4.834,1.72 -0.647,0.237 -1.185,0.439 -1.596,0.598 -0.205,0.08 -0.375,0.146 -0.541,0.217 -0.083,0.036 -0.16,0.071 -0.277,0.13 -0.117,0.057 -0.07,-0.182 -0.866,0.612 -0.262,0.263 -0.6,0.684 -0.787,1.338 -0.186,0.655 -0.112,1.499 0.139,2.075 0.503,1.152 1.12,1.36 1.434,1.521 0.627,0.322 0.807,0.294 1.01,0.328 0.405,0.07 0.672,0.074 0.995,0.074 0.592,0 0.907,-0.035 1.872,-0.09 0.964,-0.054 2.279,-0.132 3.835,-0.226 3.114,-0.189 7.194,-0.442 11.354,-0.705 8.32,-0.527 16.832,-1.082 18.795,-1.245 6.644,-0.549 14.872,-1.449 21.93,-2.347 7.056,-0.899 12.523,-1.652 15.134,-2.403 l 1.346,-0.386 a 3.064,3.064 0 0 0 2.197,-3.309 l -0.154,-1.29 c -0.207,-1.746 -0.906,-3.187 -2.021,-5.376 l -1.555,-3.05 a 3.06,3.06 0 0 0 -3.078,-1.655 z"
       id="path46"
       style="fill:url(#x)" /><path
       fill="url(#y)"
       d="m 1777.3994,1154.5941 a 4.3,4.3 0 0 0 -1.922,0.822 c -1.527,1.125 -1.879,2.245 -2.371,3.514 -0.492,1.269 -0.939,2.804 -1.46,4.834 -0.582,2.273 -1.107,3.993 -1.77,5.813 -0.266,0.727 -0.47,1.245 -0.6,2.09 -0.066,0.422 -0.164,0.959 0.082,1.87 0.246,0.911 1.268,2.203 2.32,2.628 2.013,0.812 2.665,0.27 3.533,0.047 0.869,-0.224 1.786,-0.547 2.934,-0.99 1.339,-0.518 2.355,-0.941 3.367,-1.63 1.012,-0.688 2.074,-1.976 2.432,-3.255 0.395,-1.415 0.27,-2.147 0.214,-3.196 a 37,37 0 0 0 -0.353,-3.357 c -0.343,-2.32 -0.582,-4.29 -1.637,-6.371 -0.33,-0.654 -0.6,-1.478 -2.031,-2.309 -0.723,-0.42 -1.838,-0.655 -2.738,-0.51"
       id="path47"
       style="fill:url(#y)" /><path
       fill="url(#z)"
       d="m 1703.5884,1133.8051 c -0.507,-0.025 -0.943,0.01 -1.51,0.031 -2.25,0.091 -5.203,0.606 -7.867,1.234 a 41,41 0 0 0 -3.615,1.01 c -1.038,0.352 -1.734,0.466 -2.682,1.344 a 2.74,2.74 0 0 0 -0.775,1.127 c -0.216,0.59 -0.155,1.346 0.021,1.814 0.354,0.937 0.772,1.25 1.301,1.811 2.292,2.43 6.526,5.131 9.739,6.262 0.648,0.228 1.13,0.346 1.851,0.37 h 0.037 c 0.308,0.01 0.885,0.04 1.563,-0.333 0.678,-0.373 0.924,-0.824 1.1,-1.088 0.727,-1.1 1.21,-2.46 1.83,-4.156 0.62,-1.697 1.19,-3.443 1.458,-4.739 0.115,-0.552 0.216,-0.977 0.274,-1.482 0.058,-0.505 0.155,-1.393 -0.588,-2.264 -0.743,-0.871 -1.63,-0.916 -2.137,-0.941"
       id="path48"
       style="fill:url(#z)" /><path
       fill="url(#A)"
       d="m 1717.9284,1133.9491 c -2.93,-0.017 -4.702,-0.01 -6.127,0.133 -0.712,0.072 -1.36,0.16 -2.148,0.47 -0.788,0.31 -1.76,1.04 -2.266,1.831 -0.723,1.133 -0.915,2.564 -0.732,3.692 0.182,1.127 0.63,2.024 1.162,2.822 1.062,1.595 2.53,2.877 4.357,4.094 9.415,6.27 32.37,14.694 47.623,17.912 3.115,0.657 4.828,1.086 6.813,0.982 0.992,-0.052 2.273,-0.37 3.263,-1.178 0.991,-0.806 1.428,-1.761 1.688,-2.406 0.556,-1.377 0.53,-2.075 0.654,-3.256 0.125,-1.18 0.207,-2.531 0.225,-3.87 l 0.056,-4.43 a 3.65,3.65 0 0 0 -1.261,-2.807 l -1.91,-1.652 c -2.523,-2.182 -6.103,-3.689 -10.833,-5.315 -4.729,-1.626 -10.5,-3.159 -16.757,-4.416 -9.072,-1.822 -15.733,-2.556 -23.807,-2.605"
       id="path49"
       style="fill:url(#A)" /><path
       fill="#472e43"
       d="m 1653.8444,1136.4571 c -0.581,-0.089 -1.392,0.153 -1.803,0.647 -0.423,0.51 -0.383,0.963 -0.35,1.299 0.035,0.335 0.124,0.626 0.239,0.914 0.23,0.575 0.54,1.128 1.121,1.586 1.024,0.805 2.608,0.741 3.537,-0.188 0.219,-0.218 0.443,-0.478 0.578,-0.884 a 1.87,1.87 0 0 0 -0.103,-1.33 c -0.382,-0.744 -0.914,-1.004 -1.592,-1.393 -0.567,-0.325 -1.047,-0.562 -1.627,-0.65"
       id="path50" /><path
       fill="#c6b9c2"
       d="m 2150.4424,1036.8861 c -5.916,-3.385 -9.497,-5.758 -9.497,-6.29 0,-0.576 12.847,-4.994 39.315,-13.519 20.973,-6.755 35.353,-11.524 41.782,-13.857 8.388,-3.044 10.385,-3.44601 14.148,-2.846 2.584,0.412 -0.51,0.836 -1.014,-0.14 -0.798,-1.54201 -0.119,-0.91801 -3.17,-1.16201 -2.507,-0.2 -2.438,-2.651 -2.981,-3.915 -1.093,-2.541 -1.498,-8.253 -0.787,-11.111 1.214,-4.882 4.039,-8.948 9.151,-13.173 7.03,-5.809 11.8,-7.556 22.38,-8.2 3.508,-0.213 8.467,-0.048 11.42,0.382 l 19.442,3.808 -1.467,4.175 c -1.153,3.284 -4.788,7.421 -4.802,7.444 -0.014,0.023 -5.955,-1.321 -6.502,-1.591 -4.075,-2.015 -13.555,-4.976 -20.268,-3.59 -7.807,1.61 -13.07,4.828 -15.205,9.292 -0.958,2.002 -1.202,3.176 -1.202,5.78 0,4.77 2.065,8.854 6.745,13.34001 3.184,3.052 7.617,5.773 11.05,6.781 1.866,0.548 6.127,1.335 8.766,1.62 17.936,1.93 20.6,-10.45501 22.534,-20.12201 6.515,-32.565 24.53,4.217 13.567,17.84501 -1.883,2.34 -4.616,3.83 -7.189,6.271 -5.607,5.321 -10.166,7.546 -17.36,8.474 -5.682,0.733 -12.87,0.866 -16.582,0.308 -3.777,-0.568 -13.236,-3.63 -17.83,-5.77 -2.932,-1.368 -3.505,-2.162 -3.967,-5.497 -0.164,-1.19 -0.382,-2.247 -0.483,-2.349 -0.309,-0.308 -0.813,0.023 -1.669,1.098 -0.449,0.564 -1.056,1.19 -1.35,1.39 -2.651,1.808 -9.94,4.58 -26.044,9.906 -9.67,3.198 -55.688,17.848 -56.064,17.848 -0.15,0 -2.339,-1.184 -4.867,-2.63"
       id="path51" /><path
       fill="url(#B)"
       d="m 1841.5204,713.81109 c -5.93,-0.001 -11.342,0.121 -14.22,0.418 -8.579,0.885 -18.414,2.782 -26.196,4.81 -3.891,1.015 -7.255,2.056 -9.76,3.063 -1.252,0.503 -2.284,0.984 -3.144,1.543 -0.43,0.28 -0.824,0.57 -1.206,1.002 -0.38,0.43 -0.834,1.09 -0.834,2.06 0,0.896 0.277,1.235 0.473,1.563 0.196,0.328 0.407,0.6 0.656,0.9 0.499,0.6 1.16,1.29 2.063,2.176 1.804,1.772 4.556,4.292 8.54,7.844 7.634,6.803 15.782,15.24 18.188,18.615 2.563,3.594 5.162,9.008 5.516,10.719 l 0.424,2.06 a 2.306,2.306 0 0 0 2.303,1.842 l 6.044,-0.113 c 8.544,-0.16 18.83,1.08 31.006,3.783 4.5,0.999 9.278,2.255 13.29,3.46 4.01,1.203 7.37,2.435 8.533,3.05 0.375,0.198 0.737,0.377 1.048,0.521 0.156,0.073 0.296,0.136 0.446,0.196 0.15,0.06 0,0.149 0.857,0.216 h 0.01 c 1.135,0.085 1.838,-0.639 2.078,-0.968 0.24,-0.33 0.296,-0.518 0.352,-0.676 0.111,-0.317 0.142,-0.514 0.176,-0.729 0.067,-0.43 0.097,-0.876 0.105,-1.377 0.019,-1.215 0.833,-3.634 2.752,-6.712 6.578,-10.555 18.744,-23.479 31.77,-33.618 2.697,-2.099 4.816,-3.881 6.3,-5.306 0.743,-0.713 1.324,-1.324 1.785,-1.936 a 5,5 0 0 0 0.622,-1.021 c 0.184,-0.416 0.457,-1.035 0.152,-2.004 -0.385,-1.222 -0.957,-1.514 -1.506,-1.942 -0.549,-0.428 -1.173,-0.814 -1.883,-1.2 -1.419,-0.774 -3.166,-1.523 -4.974,-2.1 -13.333,-4.258 -39.672,-8.142 -65.024,-9.723 -4.465,-0.278 -10.811,-0.415 -16.74,-0.416"
       id="path52"
       style="fill:url(#B)" /><path
       fill="url(#C)"
       d="m 1822.1564,769.50609 c -0.304,0.407 -0.163,0.388 -0.224,0.518 -0.08,0.173 -0.143,0.318 -0.211,0.484 -0.137,0.333 -0.291,0.732 -0.477,1.225 -0.37,0.986 -0.857,2.332 -1.437,3.967 a 935,935 0 0 0 -4.309,12.466 c -8.368,24.727 -15.023,39.127 -31.472,68.073 -2.538,4.465 -5.163,9.324 -8.12,14.607 0.056,-0.257 0.124,-0.478 0.137,-0.875 0.02,-0.6 7.813,-16.19 6.443,-17.56 -0.742,-0.741 -9.494,13.321 -10.236,13.289 a 3.6,3.6 0 0 0 -1.515,0.23 c -0.641,0.23 -0.852,0.417 -1.041,0.555 -0.38,0.275 -0.527,0.434 -0.7,0.605 -0.345,0.344 -0.655,0.696 -1.04,1.145 a 118,118 0 0 0 -2.987,3.68 c -2.426,3.085 -5.67,7.363 -9.182,12.128 -6.902,9.367 -24.445,32.113 -38.85,50.364 -53.15,67.34501 -71.416,93.62201 -93.073,133.93101 -2.51,4.671 -5.196,9.306 -7.465,12.953 -2.269,3.647 -2.759,6.945 -2.753,6.94 -1.489,1.405 -1.595,1.755 -2.343,3.553 -0.747,1.798 -3.783,4.712 -3.332,6.51 q 0,-0.014 -0.01,-0.017 v 0 c -0.02,0.058 0.05,1.14 -0.137,2.274 -0.207,1.25 -0.612,2.713 -1.082,3.836 -1.055,2.524 -1.836,4.582 -1.799,7.023 0.037,2.441 0.807,4.51 1.93,7.451 3.5,9.165 14.672,17.626 29.717,25.23 2.58,1.305 4.659,2.303 6.371,3.02 1.712,0.717 2.861,1.25 4.686,1.313 0.912,0.032 2.45,-0.096 3.7,-1.457 1.252,-1.361 1.247,-3.097 1.07,-4.03 -0.356,-1.864 -1.072,-2.775 -1.968,-4.142 -0.8,-1.22 -1.047,-1.775 -1.234,-3.51 -0.03,-0.283 0.052,-1.166 0.035,-1.512 1.39,1.574 3.513,2.1 5.057,2.1 -0.038,0 -0.061,0 -0.069,0.01 v 0 0 c 0.064,0.037 0.901,0.178 1.9,0.559 1.208,0.46 2.81,1.186 4.635,2.119 3.65,1.866 8.215,4.552 12.883,7.652 2.084,1.384 3.843,2.45 5.366,3.227 1.523,0.777 2.56,1.416 4.578,1.445 1.008,0.015 9.047,3.91 10.092,2.407 1.045,-1.503 -5.372,-7.264 -5.577,-8.145 -0.408,-1.762 -1.164,-2.82 -2.207,-4.309 -1.276,-1.821 -1.66,-2.819 -1.222,-6.607 0.08,-0.702 0.426,-1.954 0.591,-2.826 0.143,0.84 0.454,1.84 1.348,2.687 1.083,1.025 2.451,1.257 3.252,1.266 0.801,0.01 1.304,-0.109 1.752,-0.2 v 0 c 12.849,-2.602 39.53,-1.357 57.195,2.965 12.048,2.948 22.803,8.793 28.143,14.703 2.308,2.555 3.36,4.031 5.635,5.19 1.137,0.58 3.404,0.81 4.877,-0.072 a 5,5 0 0 0 1.37,-1.2 c -1.445,4.538 -2.914,8.824 -3.173,9.329 -1.135,2.21 -3.083,4.637 -4.98,6.334 -1.705,1.524 -3.614,2.207 -3.684,2.33 h 0.01 c 0.01,0 0.022,0.01 0.045,0.01 -1.258,0 -2.427,0.162 -3.577,0.625 -1.15,0.463 -2.43,1.284 -3.142,2.898 -0.712,1.614 -0.298,3.715 0.545,4.916 0.843,1.201 1.89,1.868 3.031,2.397 h 0.022 c 1.805,0.832 2.535,0.652 3.974,0.742 1.445,0.091 3.206,0.124 5.242,0.117 4.073,-0.014 9.226,-0.195 14.62,-0.49 10.787,-0.59 22.284,-1.576 28.273,-2.813 6.074,-1.254 18.863,-4.687 28.969,-7.742 a 52438,52438 0 0 0 41.898,-12.691 c 28.502,-8.649 41.236,-10.33 73.266,-9.67 6.671,0.138 12.732,0.183 17.164,0.144 2.216,-0.019 4.014,-0.057 5.336,-0.12 0.66,-0.033 1.186,-0.066 1.693,-0.128 0.254,-0.03 0.476,-0.053 0.899,-0.166 0.21,-0.057 0.461,-0.102 0.99,-0.398 0.144,-0.081 0.383,-0.319 0.582,-0.475 0.29,1.11 0.74,2.572 0.74,2.998 0,1.958 -0.498,3.351 -2.488,5.471 -1.99,2.12 -5.58,4.68 -11.065,7.703 -1.837,1.013 -3.239,1.791 -4.322,2.442 -1.083,0.65 -1.716,0.8 -2.83,2.19 a 4,4 0 0 0 -0.855,1.73 c -0.213,0.9 -0.024,2.312 0.578,3.21 1.204,1.797 2.28,1.72 2.87,1.84 1.182,0.242 1.907,0.19 2.964,0.196 5.36,0.032 11.51,-2.813 19.597,-7.168 8.087,-4.355 17.584,-10.437 27.211,-17.545 33.185,-24.504 50.703,-34.813 71.11,-42.024 a 411,411 0 0 0 6.707,-2.43 c 0.894,-0.334 1.642,-0.619 2.214,-0.847 0.287,-0.114 0.526,-0.213 0.749,-0.31 0.222,-0.098 0.053,0.162 1.062,-0.592 0.875,-0.654 1.456,-1.794 1.596,-2.627 a 4.2,4.2 0 0 0 -0.084,-1.836 c -0.218,-0.868 -0.498,-1.328 -0.791,-1.819 -0.586,-0.98 -1.326,-1.927 -2.315,-3.109 -0.07,-0.083 -0.24,-0.25 -0.312,-0.336 l 10.031,10.047 0.01,4.633 c 0,2.905 0.147,3.09 -1.084,4.879 -1.231,1.789 -4.372,4.976 -10.541,10.93 -3.563,3.437 -6.66,6.56 -8.834,8.878 -1.087,1.16 -1.929,2.1 -2.559,2.883 -0.315,0.392 -0.561,0.68 -0.888,1.268 -0.164,0.294 -0.463,0.515 -0.555,1.804 -0.046,0.645 0.056,1.875 0.994,2.922 0.938,1.047 2.253,1.313 2.946,1.313 1.409,0 2.164,-0.359 3.029,-0.725 0.865,-0.366 1.741,-0.825 2.687,-1.375 1.893,-1.099 4.051,-2.559 6.336,-4.242 4.57,-3.367 9.589,-7.593 13.328,-11.484 4.718,-4.91 13.723,-16.931 20.903,-27.635 a 835,835 0 0 1 9.87,-14.403 c 2.822,-4.014 5.257,-7.232 5.473,-7.472 l 2.809,-3.115 q 0.043,-0.126 0.078,-0.254 c 0.05,0.168 0.12,0.31 0.17,0.486 l 1.623,5.848 c 0.989,3.557 5.912,3.868 7.34,0.463 l 1.988,-4.747 c 2.33,-5.56 3.9,-9.304 3.067,-13.535 -0.834,-4.23 -3.76,-7.017 -7.967,-10.937 -11.013,-10.263 -27.19,-20.73 -52.98,-34.51 -41.125,-21.97201 -71.342,-40.27101 -90.338,-57.88401 -5.36,-4.97 -10.188,-7.868 -15.342,-11.746 -3.682,-2.771 -4.477,-6.234 -9.659,-8.06 -0.485,-0.17 -0.072,-1.058 -1.423,-0.867 -0.676,0.096 -23.41,-23.226 -25.386,-21.703 -0.397,0.306 22.367,23.832 22.206,24.248 -1.78,-1.782 -3.278,-3.187 -5.326,-5.353 -7.715,-8.159 -16.808,-18.492 -23.414,-26.89 -14.463,-18.387 -31.948,-43.188 -43.784,-62.1 -5.133,-8.203 -12.963,-22.436 -19.751,-35.551 -3.395,-6.558 -6.538,-12.848 -8.971,-17.983 -2.433,-5.135 -4.192,-9.313 -4.631,-10.783 -0.506,-1.694 -1.03,-3.303 -1.86,-4.724 l -2.341,0.6 c -1.751,-3.411 -44.787,-14.925 -63.303,-11.626 z m 38.374,19.885 v 0 c 0,0.008 0.124,0.288 0.197,0.445 -0.212,-0.235 -0.206,-0.42 -0.2,-0.445 m 158.66,176.93 c 0.024,0.006 0.09,0.064 0.16,0.23 -0.041,-0.057 -0.153,-0.196 -0.166,-0.217 v -0.012 z m -26.752,17.86 c 0.044,0.032 0.18,0.148 0.248,0.2 -0.178,-0.084 -0.212,-0.154 -0.248,-0.2 m 13.181,12.157 c 2.124,2.022 3.564,3.34 6.098,5.78701 11.879,11.468 27.958,27.305 45.348,44.721 l 24.029,24.065 c -4.656,-4.413 -9.32,-8.833 -14.908,-14.006 -14.18,-13.125 -30.241,-28.893 -43.617,-42.62 -6.464,-6.633 -12.247,-12.778 -16.95,-17.94701"
       id="path53"
       style="fill:url(#C)" /><path
       fill="url(#D)"
       d="m 1734.3624,1157.9631 -10.993,3.315 c -16.664,5.025 -17.862,5.162 -40.939,5.177 -9.655,0.01 -14.618,0 -17.727,-0.187 -3.108,-0.183 -4.34,-0.487 -7.332,-1.232 a 78,78 0 0 0 -4.775,-1.047 26,26 0 0 0 -1.793,-0.274 9,9 0 0 0 -0.816,-0.057 c -0.301,0 -0.503,-0.15 -1.55,0.252 -0.659,0.253 -1.503,0.936 -1.888,1.754 a 3.4,3.4 0 0 0 -0.293,1.994 c 0.136,0.913 0.378,1.174 0.531,1.422 0.307,0.496 0.517,0.706 0.764,0.973 0.494,0.534 1.094,1.096 1.854,1.777 1.52,1.362 3.638,3.124 6.064,5.031 15.405,12.11 21.634,18.123 26.15,24.93 2.004,3.019 3.958,6.284 5.377,8.906 0.71,1.311 1.288,2.469 1.657,3.301 0.368,0.832 0.387,1.83 0.379,0.676 0,0.206 0,0.417 0.023,0.715 0.023,0.298 -0.107,0.607 0.465,1.654 0.286,0.523 1.01,1.403 2.17,1.711 1.16,0.308 2.15,-0.069 2.642,-0.35 0.985,-0.56 1.076,-0.893 1.291,-1.181 0.862,-1.153 1.492,-2.431 3.078,-5.317 10.046,-18.273 26.455,-31.235 51.065,-39.947 1.58,-0.56 2.741,-1.015 3.728,-1.553 0.494,-0.269 0.937,-0.4 1.674,-1.326 0.369,-0.463 0.965,-1.397 0.772,-2.767 -0.194,-1.37 -1.228,-2.302 -1.836,-2.637 -0.886,-0.489 -0.92,-0.406 -1.469,-0.6 -0.55,-0.193 -1.251,-0.43 -2.078,-0.7 a 328,328 0 0 0 -6.059,-1.915 v 0 l -8.154,-2.494 a 3.4,3.4 0 0 0 -1.98,0 z"
       id="path54"
       style="fill:url(#D)" /><path
       fill="url(#E)"
       d="m 1647.6664,1167.0491 c -0.23,-0.03 -0.47,0 -0.683,0.09 l -294.903,126.25 a 322135,322135 0 0 0 -208.795,89.465 76170,76170 0 0 0 -63.92,27.447 c -7.593,3.267 -26.359,10.35 -30.42,12.107 a 1516,1516 0 0 0 -4.669,2.025 q -0.804,0.35 -1.24,0.543 -0.22,0.098 -0.346,0.156 c -0.058,0.027 -0.11,0.042 -0.253,0.125 -0.52,0.3 -0.92,0.485 -1.319,0.95 a 1.5,1.5 0 0 0 -0.357,0.814 c -0.032,0.325 0.08,0.584 0.213,0.806 0.132,0.223 -8.83,3.28 -8.577,3.41 0.528,0.271 10.064,-2.709 10.188,-2.722 1.04,-0.109 2.772,-0.592 6.078,-1.58 6.616,-1.978 31.937,-10.524 53.507,-17.542 a 543911,543911 0 0 0 397.192,-129.398 193263,193263 0 0 0 138.28,-45.162 c 16.925,-5.537 30.325,-9.93 39.509,-12.95 a 4598,4598 0 0 0 10.529,-3.472 q 1.801,-0.597 2.734,-0.912 0.464,-0.157 0.717,-0.245 l 0.205,-0.074 v 0 l 0.086,-0.033 v 0 c 0.12,-0.05 0.085,-0.043 0.113,-0.06 l 0.092,-0.056 0.084,-0.053 c 0.011,-0.01 0.02,-0.013 0.028,-0.018 0,0 0.01,0 0.01,-0.01 h 0.01 c 0,0 0.042,-0.033 0.043,-0.033 v 0 c 0.484,-0.425 0.555,-1.003 0.556,-1.338 a 3.8,3.8 0 0 0 -0.144,-0.99 c -0.171,-0.655 -0.466,-1.402 -0.858,-2.27 -0.784,-1.736 -1.968,-3.937 -3.36,-6.288 -2.78,-4.702 -6.34,-9.952 -9.118,-12.993 -3.237,-3.54 -11.304,-10.622 -18.176,-16.003 l -12.408,-9.715 a 1.3,1.3 0 0 0 -0.635,-0.264 z"
       id="path55"
       style="fill:url(#E)" /><path
       fill="#ffffff"
       d="m 2208.0984,129.71709 c -0.517,-0.037 -0.944,-0.014 -1.314,0.004 -1.688,0.08 -3.919,0.954 -7.773,2.34 -4.836,1.738 -29.327,13.16 -36.827,16.469 -15,6.617 -34.006,15.774 -51.316,24.959 -18.274,9.695 -55.52,32.458 -83.147,50.789 -38.975,25.86 -59.13,42.251 -89.336,72.654 -105.71,106.4 -167.489,223.45 -167.562,319.299 -0.03,37.907 6.84,62.649 23.189,81.75 v 0.002 l 11.1,12.967 a 2.96,2.96 0 0 0 2.263,1.035 l 43.051,-0.233 c 20.878,-0.113 44.158,3.46 44.158,3.46 0,0 27.12,-23.726 48.03,-43.27 8.55,-8.236 19.631,-19.504 31.312,-31.773 23.362,-24.54 46.877,-54.96 61.643,-69.217 56.035,-54.103 168.17,-251.215 165.054,-253.23 l 50.08,-84.232 c 0,0 26.009,-50.696 32.292,-90.819 0.086,-0.552 -0.814,0.254 -1.06,0.383 -0.493,0.258 -0.84,0.515 -1.25,0.832 -0.824,0.634 -1.807,1.499 -3.03,2.633 -2.445,2.269 -15.572,16.267 -19.627,20.427 -8.111,8.32 -19.032,19.99 -30.84,33.037 -110.878,122.508 -173.674,184.17 -251.242,246.738 -11.763,9.489 -23.783,18.673 -33.637,25.8 -9.854,7.125 -17.976,12.329 -20.3,13.3 -7.664,3.202 -13.301,3.682 -16.352,2.543 -1.526,-0.57 -2.515,-1.42 -3.297,-2.842 -0.782,-1.422 -1.293,-3.507 -1.293,-6.324 0,-4.33 2.028,-12.076 5.789,-21.498 3.761,-9.422 9.188,-20.646 15.74,-32.637 13.104,-23.982 30.713,-51.064 48.522,-73.41 40.303,-50.574 141.17,-145.859 204.757,-193.33 4.84,-3.613 26.617,-15.888 29.637,-18.554 1.51,-1.332 2.702,-2.46 3.576,-3.425 0.437,-0.483 0.791,-0.893 1.135,-1.475 0.172,-0.29 0.367,-0.612 0.494,-1.244 0.127,-0.632 0.058,-1.97 -0.846,-2.875 -0.674,-0.675 -1.254,-0.997 -1.771,-1.033 z m -415.984,508.872 c 1.954,-0.145 5.352,0.872 9.697,3.719 9.73,6.376 17.344,23.224 17.344,40.7 0,6.06 -0.514,9.305 -0.965,10.087 -0.226,0.391 -0.217,0.394 -0.768,0.57 -0.55,0.176 -1.685,0.309 -3.34,0.309 -6.038,0 -12.876,-4.958 -18.152,-13.229 -5.276,-8.271 -8.848,-19.546 -8.848,-30.773 0,-4.262 0.69,-7.31 1.627,-9.023 0.938,-1.715 1.776,-2.239 3.405,-2.36"
       id="path56" /><path
       fill="#e6d5d9"
       d="m 2330.3384,827.85609 c -48.295,-2.821 -129.894,17.44 -267.4,98.281 -29.725,17.788 -160.4,94.89601 -239.574,123.84401 -57.789,20.123 -121.867,34.424 -183.051,39.225 -21.809,1.323 -43.824,1.22 -65.768,1.623 -244.148,2.923 -213.435,-108.70801 -124.482,-155.16501 71.736,-34.345 155.612,-53.46 235.86,-59.484 6.943,-0.505 12.873,-1.15 13.179,-1.433 3.055,-2.841 -212.083,-2.627 -298.633,83.472 -77.77,77.36501 9.451,156.89801 222.72,141.81901 9.843,-0.696 22.18,-2.192 33.266,-3.713 60.41,-6.877 119.906,-19.573 176.727,-41.528 73.626,-28.937 129.455,-58.83401 191.838,-95.89601 l 18.076,-11.918 c 77.07,-50.816 173.218,-97.343 216.508,-104.772 20.771,-3.563 96.428,-8.235 118.963,8.744 6.658,5.017 12.258,14.24 14.855,24.465 1.302,5.128 2.758,9.715 3.236,10.194 1.726,1.725 3.74,-6.807 2.858,-12.108 -0.04,-0.241 -7.083,-42.023 -69.178,-45.65 m -17.336,2.857 c 5.038,-0.075 3.554,2.243 9.582,2.744 12.057,1.002 41.32,6.565 41.32,6.565 -14.672,-2.534 -29.34,-5.068 -41.36,-6.067 -10.175,-0.845 -28.732,1.045 -34.192,1.645 6.04,-0.908 20.07,-4.818 24.65,-4.887"
       overflow="visible"
       id="path57" /><path
       fill="url(#F)"
       d="m 2320.8814,827.10609 c -49.412,0.196 -129.247,22.789 -258.197,98.6 v 10e-4 c -16.67,9.976 -27.338,16.316 -34.244,20.274 -6.906,3.957 -135.401,77.99401 -205.24,103.53001 -57.75,20.109 -121.792,34.402 -182.926,39.198 -21.783,1.322 -43.786,1.22 -65.734,1.623 -61,0.73 -104.807,-5.7 -134.785,-16.449 -29.978,-10.749 -46.095,-25.79 -51.89,-42.281 -5.797,-16.49 -1.314,-34.53301 10.2,-51.39801 11.511,-16.862 30.046,-32.504 52.215,-44.084 l 0.01,-0.004 v -0.002 0 -0.002 c 71.661,-34.307 155.476,-53.41 235.664,-59.43 3.477,-0.253 6.699,-0.54 9.096,-0.8 a 73,73 0 0 0 2.91,-0.364 q 0.54,-0.082 0.877,-0.156 c 0.112,-0.026 0.207,-0.052 0.295,-0.08 0.088,-0.03 0.155,-0.028 0.305,-0.167 a 0.6,0.6 0 0 0 0.187,-0.49 0.58,0.58 0 0 0 -0.244,-0.408 c -0.177,-0.13 -0.317,-0.16 -0.504,-0.207 -0.374,-0.094 -0.906,-0.167 -1.633,-0.234 -1.453,-0.136 -3.656,-0.237 -6.543,-0.286 v -0.004 c -5.774,-0.098 -14.273,0.013 -24.828,0.497 -21.11,0.966 -50.436,3.42 -82.57,8.654 -64.268,10.468 -139.77,32.033 -183.192,75.228 -19.505,19.405 -28.725,39.008 -28.146,57.28701 0.579,18.28 10.971,35.153 30.43,49.05 38.916,27.792 114.125,43.878 220.826,36.333 9.863,-0.697 22.207,-2.193 33.299,-3.715 h -0.012 c 60.442,-6.88 119.98,-19.582 176.85,-41.556 v 0 c 73.572,-28.917 129.39,-58.79401 191.698,-95.80501 l 0.016,0.006 0.238,-0.158 18.06,-11.906 c 38.515,-25.394 81.803,-49.723 120.864,-68.625 39.06,-18.903 73.919,-32.378 95.453,-36.073 10.322,-1.77 34.434,-3.832 58.727,-3.324 24.293,0.508 48.816,3.66 59.851,11.975 6.53,4.92 12.1,14.06 14.672,24.19 a 127,127 0 0 0 1.936,6.868 c 0.295,0.93 0.564,1.715 0.794,2.309 q 0.173,0.445 0.319,0.746 c 0.098,0.201 0.162,0.344 0.318,0.5 0.306,0.306 0.788,0.45 1.178,0.31 0.39,-0.14 0.653,-0.44 0.893,-0.808 0.48,-0.736 0.863,-1.838 1.175,-3.16 0.624,-2.644 0.917,-6.13 0.46,-8.885 -0.034,-0.201 -1.824,-10.777 -11.436,-21.803 -9.612,-11.025 -27.05,-22.445 -58.207,-24.265 a 152,152 0 0 0 -9.479,-0.25 z m -0.01,1.002 h 0.014 q 4.91,-0.018 9.42,0.248 c 30.937,1.807 48.068,13.091 57.512,23.924 9.443,10.832 11.194,21.268 11.201,21.308 0.424,2.547 0.15,5.976 -0.443,8.492 -0.297,1.259 -0.686,2.298 -1.041,2.842 -0.178,0.273 -0.348,0.397 -0.395,0.414 -0.015,0.005 -0.024,0.013 -0.029,0.016 v -0.002 a 1,1 0 0 1 -0.084,-0.082 v -0.006 c -0.012,-0.022 -0.076,-0.111 -0.135,-0.232 a 9,9 0 0 1 -0.285,-0.67 40,40 0 0 1 -0.773,-2.25 126,126 0 0 1 -1.92,-6.813 c -2.622,-10.322 -8.254,-19.627 -15.04,-24.74 -11.5,-8.665 -36.07,-11.668 -60.433,-12.178 -24.362,-0.51 -48.464,1.547 -58.914,3.34 -21.756,3.733 -56.618,17.236 -95.72,36.158 -39.104,18.923 -82.423,43.266 -120.98,68.688 0,0 -136.543,78.97001 -209.827,107.77301 -56.771,21.935 -116.223,34.624 -176.6,41.496 h -0.012 c -11.08,1.52 -23.411,3.017 -33.232,3.711 -106.569,7.535 -181.606,-8.606 -220.174,-36.15 -19.284,-13.773 -29.445,-30.347 -30.012,-48.268 -0.567,-17.92101 8.475,-37.27001 27.854,-56.54901 43.128,-42.903 118.47,-64.496 182.644,-74.949 32.088,-5.227 61.383,-7.675 82.457,-8.64 10.537,-0.483 19.02,-0.594 24.764,-0.497 v -0.006 c 2.449,0.042 4.122,0.137 5.516,0.24 -0.435,0.054 -0.735,0.1 -1.256,0.157 -2.38,0.259 -5.596,0.547 -9.063,0.799 -80.3,6.028 -164.23,25.151 -236.039,59.531 l -0.01,0.004 -0.01,0.004 c -22.3,11.647 -40.957,27.376 -52.59,44.416 -11.633,17.04 -16.245,35.43501 -10.32,52.29301 5.925,16.859 22.346,32.08 52.496,42.89 30.15,10.812 74.06,17.24 135.135,16.509 v 0 c 21.936,-0.403 43.958,-0.298 65.789,-1.623 h 0.01 c 61.234,-4.804 125.348,-19.114 183.176,-39.25 h 0.01 c 70.085,-25.625 199.803,-100.40801 205.384,-103.60601 6.92,-3.965 17.586,-10.306 34.256,-20.281 v -0.002 c 128.87,-75.764 208.582,-98.259 257.695,-98.459 m -7.88,2.105 c -2.426,0.036 -7.043,1.04 -11.882,2.14 -4.839,1.1 -9.863,2.306 -12.835,2.753 l 0.128,0.99 0.02,-0.002 c 5.465,-0.6 24.02,-2.476 34.076,-1.64 11.983,0.995 26.64,3.524 41.31,6.058 l 0.01,0.002 0.179,-0.982 -0.01,-0.002 -0.04,-0.006 c -0.083,-0.016 -29.201,-5.557 -41.325,-6.565 -2.948,-0.245 -3.927,-0.881 -4.938,-1.513 -1.011,-0.633 -2.098,-1.272 -4.693,-1.233 m 0.015,1 c 2.443,-0.036 3.133,0.447 4.147,1.08 0.603,0.378 1.46,0.766 2.58,1.104 -7.507,-0.289 -16.156,0.322 -23.295,0.98 1.767,-0.4 3.061,-0.632 4.892,-1.048 4.831,-1.1 9.52,-2.084 11.676,-2.116"
       overflow="visible"
       id="path58"
       style="fill:url(#F)" /><path
       d="m 1823.9984,1528.9511 c -0.462,-0.747 0.17,-13.797 1.403,-29 3.696,-45.566 1.682,-115.762 -5.326,-185.642 a 9214,9214 0 0 1 -3.404,-34.667 c -1.963,-20.528 -8.82,-68.975 -11.466,-81 l -2.127,-9.666 -12.866,-0.03 c -16.377,-0.036 -23.117,-2.651 -25.508,-9.894 -0.88,-2.67 -1.265,-5.728 -0.855,-6.798 0.489,-1.272 -0.106,-1.945 -1.72,-1.945 -3.56,0 -27.643,8.91 -35.2,13.023 -8.276,4.504 -21.426,18.572 -25.914,27.722 -4.242,8.65 -4.24,8.65 -45.002,21.722 -32.145,10.308 -201.244,65.075 -284.667,92.197 a 362044,362044 0 0 1 -184.667,59.924 c -72.6,23.54 -139.2,45.155 -148,48.032 -17.344,5.671 -33.445,9.046 -33.445,9.046 0,0 11.992,-6.267 35.594,-17.509 23.602,-11.242 58.814,-27.458 105.255,-47.356 509.431,-218.271 500.794,-214.632 506.21,-213.32 2.779,0.674 13.604,1.608 24.055,2.076 17.986,0.806 19.75,0.653 33,-2.86 7.699,-2.04 13.981,-4.382 13.96,-5.203 -0.021,-0.821 -3.433,-3.55 -7.583,-6.063 -7.085,-4.29 -7.631,-4.42 -8.962,-2.117 -2.839,4.913 -6.169,7.353 -10.034,7.353 -5.938,0 -17.424,-4.738 -25.928,-10.695 -4.165,-2.918 -8.078,-5.305 -8.694,-5.305 -0.616,0 -2.009,1.355 -3.094,3.012 -1.086,1.656 -3.494,3.825 -5.353,4.82 -2.954,1.58 -4.464,1.447 -12.013,-1.065 -9.56,-3.181 -22.262,-10.353 -28.087,-15.856 -5.237,-4.95 -10.374,-14.038 -10.462,-18.51 -0.115,-5.885 4.141,-15.068 6.985,-15.068 2.343,0 2.335,0.252 -0.2,5.985 -3.66,8.273 -1.76,15.344 6.093,22.682 9.336,8.723 32.565,21.25 34.96,18.854 0.476,-0.476 -0.538,-2.358 -2.252,-4.182 -2.64,-2.81 -3.093,-4.62 -2.963,-11.825 0.158,-8.731 3.222,-24.357 5.674,-28.938 1.762,-3.293 5.749,-3.496 4.743,-0.242 -0.397,1.283 -1.97,7.733 -3.497,14.333 -1.527,6.6 -3.047,12.936 -3.378,14.079 -0.448,1.547 1.083,2.51 5.98,3.766 3.621,0.928 10.975,4.725 16.343,8.439 9.685,6.7 16.788,10.383 20.027,10.383 0.927,0 -0.503,-1.487 -3.178,-3.305 -5.455,-3.707 -8.515,-10.752 -7.137,-16.433 0.48,-1.978 3.24,-11.177 6.136,-20.443 4.357,-13.943 5.77,-16.979 8.196,-17.613 1.613,-0.422 3.162,-0.538 3.441,-0.259 0.6,0.6 -4.777,17.88 -9.22,29.635 -1.715,4.537 -2.83,8.535 -2.478,8.884 0.352,0.349 3.34,0.114 6.64,-0.524 15.128,-2.924 44.123,-0.464 62.743,5.322 10.663,3.313 21.924,10.788 25.574,16.974 1.996,3.384 3.045,4.187 3.771,2.89 2.05,-3.663 12.198,-42.49 16.599,-63.508 4.916,-23.478 5.184,-24.287 8.058,-24.287 2.615,0 2.453,2.436 -1.472,22.226 -4.307,21.708 -5.9,27.998 -14.125,55.774 -5.47,18.467 -7.48,23.47 -10.859,27 -2.707,2.83 -5.416,4.333 -7.805,4.333 -4.823,0 -5.98,2.13 -2.243,4.13 3.819,2.043 37.598,0.675 51.484,-2.085 5.35,-1.064 20.65,-5.35 34,-9.524 47.045,-14.71 52.367,-16.293 62.275,-18.535 12.08,-2.734 52.928,-4.141 64.666,-2.229 4.4,0.717 8.272,1.044 8.603,0.727 1.143,-1.096 -9.458,-20.892 -24.802,-46.315 -15.839,-26.242 -43.134,-79.027 -43.134,-83.414 0,-1.358 0.816,-2.782 1.813,-3.165 1.262,-0.484 4.944,5.658 12.106,20.19 13.167,26.721 27.508,53.292 41.497,76.887 12.57,21.203 19.88,37.978 18.662,42.832 -0.951,3.79 -9.228,10.162 -19.411,14.945 -6.674,3.135 -7.007,3.487 -3.7,3.92 10.918,1.425 27.613,-7.189 55.033,-28.397 14.47,-11.192 32.924,-23.42 42.95,-28.458 11.305,-5.682 27.884,-12.175 31.085,-12.175 1.447,0 2.632,-0.85 2.632,-1.89 0,-3.05 -18.877,-22.262 -44.667,-45.461 -13.2,-11.874 -30.854,-28.722 -39.232,-37.44 -17.28,-17.984 -34.768,-37.70301 -34.768,-39.20701 0,-0.555 0.811,-1.682 1.803,-2.505 1.421,-1.18 4.45,1.237 14.333,11.438 40.566,41.87101 62.538,63.93201 78.323,78.64101 9.786,9.119 22.104,21.194 27.374,26.835 9.426,10.088 9.574,10.357 9.08,16.508 -0.533,6.64 -0.07,6.087 -21.324,25.526 -6.942,6.35 -7.17,8.415 -0.555,5.04 16.077,-8.201 27.873,-20.663 44.377,-46.88 5.287,-8.4 11.139,-16.916 13.004,-18.925 1.865,-2.009 3.134,-3.873 2.821,-4.143 -3.657,-3.15 -38.26,-25.794 -53.236,-34.839 -22.804,-13.772 -27.682,-17.17 -48.084,-33.495 -23.64,-18.91501 -44.265,-38.05401 -42.698,-39.62001 1.591,-1.593 0.217,-2.628 26.095,19.658 27.563,23.73701 41.804,34.07701 70.962,51.52201 27.76,16.609 38.296,23.416 46.687,30.161 4.868,3.914 5.748,5.429 6.516,11.217 0.488,3.681 1.392,6.189 2.008,5.573 1.318,-1.318 6.514,-16.044 6.514,-18.46 0,-2.719 -13.188,-14.748 -25.333,-23.107 -6.234,-4.29 -20.722,-12.654 -32.196,-18.586 -22.214,-11.485 -42.181,-23.102 -58.47,-34.02001 -12.602,-8.445 -36.377,-28.846 -36.377,-30.482 0,-1.745 5.847,3.4 9.058,7.003 2.614,2.935 40.411,28.3 55.985,37.57101 4.4,2.62 16.217,8.826 26.26,13.793 l 18.26,9.03 11.74,-3.547 c 6.457,-1.951 26.74,-8.534 45.073,-14.63 l 33.333,-11.08101 0.779,-7.933 c 0.874,-8.911 3.156,-13.929 9.215,-20.267 5.515,-5.768 10.397,-8.14 21.544,-10.464 10.259,-2.139 22.676,-0.264 32.664,3.137 6.772,2.306 8.772,5.149 2.666,3.792 -13.74,-3.055 -22.63,-5.01 -30.868,-4.487 -10.347,0.658 -15.627,2.887 -23.338,9.854 -6.147,5.553 -8.56,11.878 -7.324,19.197 0.795,4.703 1.32,5.306 4.616,5.306 2.046,0 4.858,2.972 5.77,4.07201 1.43,1.723 1.103,1.888 -2.377,1.192 -2.727,-0.546 -7.176,-1.798 -12.888,0.454 -4.652,1.834 -25.109,8.626 -45.459,15.094 -20.35,6.468 -37,12.188 -37,12.71 0,0.522 3.265,2.817 7.255,5.1 l 7.254,4.15 40.412,-12.849 c 29.363,-9.335 40.881,-15.352 42.493,-17.4 2.21,-2.81 2.219,-2.807 2.666,1.1 0.412,3.592 1.474,5.964 11.254,9.41 9.2,3.243 12.145,3.682 21.417,3.193 12.204,-0.643 16.981,-2.624 24.53,-10.174 6.64,-6.639 9.116,-16.35001 6.442,-25.25301 -2.404,-8 -5.27,-9.65 -9.637,-5.546 -2.88,2.705 -3.323,4.181 -3.06,10.18 0.258,5.89 -0.228,7.59 -3.026,10.58501 -6.833,7.316 -14.086,8.841 -27.923,5.874 -8.602,-1.845 -17.907,-10.35201 -19.27,-17.61801 -1.81,-9.642 4.584,-16.017 18.322,-18.268 8.212,-1.346 19.882,1.273 19.882,4.256 0,1.351 -0.745,1.691 -2.333,1.065 -1.284,-0.505 -7.156,-1.88 -11,-2.289 -8.033,-0.853 -18.21,2.308 -20.36,6.324 -3.504,6.549 0.518,16.683 8.29,20.88201 2.503,1.352 24.698,6.201 31.172,-1.318 2.568,-2.98301 3.22,-5.23901 3.22,-11.13201 0,-6.549 0.472,-7.832 4.141,-11.26 13.816,-12.905 19.411,14.363 13.322,27.46601 -2.95,6.35 -11.22,14.573 -16.796,16.702 -12.054,4.602 -26.547,3.831 -41.662,-2.216 l -8.398,-3.36 -24.303,7.51 c -38.702,11.96 -52.97,17.31 -52.97,19.861 0,0.827 3.044,4.124 6.764,7.327 3.719,3.203 7.734,7.861 8.922,10.352 2.04,4.28 1.997,5.033 -0.786,13.674 -1.62,5.03 -4.762,11.653 -6.982,14.718 -4.33,5.976 -6.132,6.216 -13.183,1.755 -2.064,-1.305 -3.438,-1.547 -3.735,-0.658 -0.258,0.775 -3.589,6.692 -7.401,13.15 -8.955,15.168 -28.742,35.516 -40.453,41.599 -10.854,5.638 -15.065,5.523 -21.84,-0.597 l -5.368,-4.85 -9.468,4.364 c -5.207,2.4 -17.32,7.516 -26.92,11.369 -9.598,3.852 -17.635,7.556 -17.86,8.23 -0.225,0.674 2.703,6.29 6.506,12.48 43.501,70.816 63.518,107.762 84.476,155.923 19.625,45.101 43.22,114.84 50.523,149.334 4.424,20.895 6.751,39.92 5.086,41.585 -1.758,1.758 -1.907,1.428 -7.487,-16.528 -2.668,-8.585 -7.575,-22.085 -10.906,-30 -3.33,-7.915 -8.043,-19.49 -10.472,-25.724 -8.151,-20.918 -31.48,-72.49 -41.315,-91.333 -34.15,-65.428 -36.447,-69.343 -69.64,-118.663 -23.437,-34.823 -31.697,-46.286 -39.631,-54.995 -4.54,-4.984 -5.863,-5.676 -10.86,-5.676 -5.907,0 -10.746,-3.299 -15.35,-10.466 -1.851,-2.881 -2.44,-3.02 -7.317,-1.732 -10.254,2.71 -42.94,5.645 -71.94,6.46 -24.61,0.692 -30.802,1.283 -38.666,3.69 l -9.364,2.868 0.361,6.59 c 0.391,7.136 3.33,37.18 5.73,58.591 0.822,7.334 1.807,39.734 2.189,72 1.013,85.67 -3.658,147.369 -14.562,192.334 -4.09,16.866 -5.175,19.369 -7.066,16.309 z m -767.457,-105.405 c 11.668,-3.732 89.208,-28.974 159.472,-51.912 15.4,-5.027 96.4,-31.43 180,-58.674 83.6,-27.244 184.586,-60.156 224.413,-73.138 l 72.414,-23.604 3.726,-6.814 c 9.925,-18.148 29.302,-33.07 52.447,-40.388 2.75,-0.87 5,-1.776 5,-2.014 0,-0.238 -4.215,-1.714 -9.367,-3.278 l -9.367,-2.845 -13.633,4.21 c -12.005,3.707 -16.022,4.286 -33.633,4.845 -15.24,0.485 -22.105,0.142 -28.842,-1.439 l -8.842,-2.074 -24.491,10.485 c -13.47,5.766 -149.592,64.009 -302.492,129.427 l -287.394,123.894 c 0,0 14.16,-4.624 20.59,-6.681 m 720.89,-251.936 c 3.281,-1.247 3.528,-1.832 2.865,-6.777 -1.144,-8.531 -3.013,-8.898 -4.913,-0.963 -0.585,2.442 -1.496,5.489 -2.026,6.772 -1.12,2.715 -0.752,2.803 4.074,0.968 m 136.582,-2.033 c 14.644,-0.93 40.947,-4.205 42.756,-5.323 0.7,-0.433 0.314,-2.542 -0.894,-4.878 l -2.128,-4.114 -11.665,0.828 c -12.182,0.865 -35.449,6.354 -51.403,12.128 l -9.333,3.377 10,-0.606 c 5.5,-0.334 15.7,-0.97 22.667,-1.412 m 67.776,-3.822 c 13.032,-6.563 13.958,-8.2 5.232,-9.248 -3.854,-0.463 -11.122,-0.847 -16.15,-0.853 -10.207,-0.013 -10.155,-0.125 -4.256,9.22 1.887,2.99 4.039,5.435 4.781,5.435 0.743,0 5.42,-2.05 10.393,-4.554 m -212.562,-10.29 c 0.104,-4.885 -0.4,-5.92 -3.881,-7.97 -7.476,-4.401 -27.303,-9.21 -41.578,-10.083 -13.258,-0.811 -13.755,-0.743 -13.755,1.896 0,3.262 4.218,5.922 20.385,12.852 13.36,5.727 35.683,11.702 37.496,10.036 0.668,-0.613 1.268,-3.643 1.333,-6.73 m 293.175,-11.6 c 4.72,-2.14 8.945,-4.478 9.389,-5.196 0.444,-0.718 -0.647,-2.671 -2.424,-4.34 l -3.23,-3.036 -14.694,10.508 c -8.082,5.78 -14.71,10.884 -14.729,11.343 -0.044,1.054 14.426,-4.173 25.688,-9.279 m -359.232,-2.772 c 0.837,-2.502 1.31,-4.76 1.053,-5.019 -1.09,-1.09 -14.701,1.708 -15.172,3.12 -0.604,1.81 10.516,8.815 11.757,7.405 0.462,-0.526 1.525,-3.004 2.362,-5.506 m 405.843,-16.434 c 3.483,-3.647 6.333,-7.845 6.333,-9.327 0,-2.413 -0.664,-2.631 -6.333,-2.081 -5.852,0.567 -31.353,10.378 -34.28,13.188 -0.801,0.77 1.655,4.193 6.58,9.169 l 7.857,7.94 6.755,-6.128 c 3.715,-3.37 9.604,-9.113 13.088,-12.76 m -453.82,13.556 c -2.139,-1.323 -3.113,-0.621 -1.888,1.36 0.49,0.795 1.515,1.06 2.276,0.59 0.895,-0.555 0.759,-1.242 -0.387,-1.95 m 507.114,-51.573 c 1.106,-4.264 -0.397,-6.112 -2.514,-3.09 -1.868,2.667 -1.457,5.424 0.81,5.424 0.604,0 1.371,-1.05 1.704,-2.334 m -549.903,1.334 c 0.535,-1.284 5.225,-10.757 10.423,-21.053 11.114,-22.013 21.219,-38.354 39.546,-63.947 12.5,-17.45701 21.496,-29.24601 67.659,-88.66701 52.468,-67.538 70.344,-93.799 83.047,-122 3.633,-8.067 6.664,-16.767 6.735,-19.333 0.222,-8.025 -12.685,-24.243 -29.162,-36.645 -5.485,-4.128 -9.973,-8.4 -9.973,-9.496 0,-1.179 4.216,-3.963 10.334,-6.824 5.683,-2.658 10.598,-5.043 10.922,-5.3 0.323,-0.258 -2.476,-3.603 -6.22,-7.435 -15.138,-15.49 -25.758,-41.333 -28.201,-68.626 -1.242,-13.876 0.379,-44.23 3.258,-61.007 7.797,-45.428 23.864,-87.945 50.137,-132.667 34.198,-58.214 67.204,-101.523 113.648,-149.126 43.162,-44.24 129.056,-103.77 194.68,-134.926 27.375,-13 82.452,-34.617 88.193,-34.617 4.785,0 0.848,4.505 -11.754,13.446 -25.602,18.168 -71.465,54.488 -97.956,77.575 -28.917,25.201 -116.703,113.903 -132.925,134.312 -32.298,40.633 -63.076,92.402 -69.423,116.772 -2.66,10.209 -2.56,14.334 0.41,17.022 4.883,4.42 12.794,1.456 30.44,-11.402 30.74,-22.396 38.513,-28.446 56.454,-43.934 76.009,-65.614 161.346,-150.6 229.374,-228.429 18.268,-20.9 56.555,-61.238 60.704,-63.957 3.03,-1.985 3.256,-1.97 3.256,0.23 0,3.885 -10.056,36.001 -16.408,52.407 -14.468,37.366 -34.143,75.466 -72.962,141.291 -7.135,12.1 -14.318,24.667 -15.962,27.927 -8.175,16.215 -47.166,77.73 -90.465,142.723 -19.72,29.6 -75.477,101.942 -91.475,118.684 -4.555,4.766 -10.517,11.366 -13.248,14.666 -7.164,8.655 -48.178,47.635 -67.24,63.907 -8.962,7.649 -15.831,14.307 -15.267,14.795 0.565,0.489 6.244,2.257 12.62,3.93 11.903,3.123 19.74,6.877 19.74,9.456 0,0.803 -6.394,7.562 -14.21,15.02 -17.884,17.066 -32.886,36.04 -31.677,40.068 2.296,7.65 16.657,36.575 25.076,50.507 5.213,8.625 12.478,20.672 16.144,26.77 3.667,6.099 9.543,14.942 13.059,19.651 9.002,12.06 40.507,46.015 55.259,59.555 6.825,6.266 15.942,14.225 15.597,14.57 -0.883,0.882 -10.214,-6.19 -22.684,-18.016 -21.013,-19.926 -19.734,-17.25 3.216,6.73 6.112,6.387 10.72,12.248 10.24,13.025 -3.31,5.355 -47.774,-47.444 -74.644,-88.634 -23.496,-36.018 -44.71,-77.363 -44.71,-87.136 0,-7.484 19.508,-30.38 36.412,-42.736 4.26,-3.113 7.52,-6.366 7.245,-7.228 -2.773,-8.696 -105.904,-22.964 -139.55,-4.957 -3.22,1.723 -3.211,1.737 6.001,9.822 14.924,13.097 21.571,20.356 25.198,27.513 3.868,7.633 3.854,7.77 -2.686,26.847 -9.433,27.519 -16.657,42.979 -32.597,69.764 -5.71,9.594 -14.134,24.644 -18.721,33.444 -12.48,23.941 -23.283,42.7 -45.396,78.822 -27.684,45.22001 -41.71,70.13001 -51.342,91.17801 -4.838,10.574 -9.1,18.172 -10.331,18.418 -1.705,0.34 -1.889,-0.281 -0.99,-3.333 4.406,-14.952 22.326,-49.72 43.857,-85.08501 36.659,-60.216 50.426,-83.728 60.896,-104 6.438,-12.467 12.892,-24.648 14.34,-27.07 6.444,-10.769 0.332,-3.465 -15.669,18.724 -9.533,13.22 -26.033,34.806 -36.666,47.968 -55.711,68.962 -83.355,108.98001 -104.452,151.21001 -3.996,7.998 -6.725,11.168 -9.614,11.168 -0.283,0 -0.077,-1.05 0.457,-2.333 m 210.943,-377.53501 c 6.889,-0.755 22.819,-0.778 40.62,-0.057 27.454,1.112 29.455,1.033 32,-1.254 1.492,-1.342 6.313,-4.854 10.713,-7.805 26.955,-18.077 93.587,-85.472 126.896,-128.35 44.052,-56.705 128.636,-185.978 160.926,-245.95 3.568,-6.627 13.422,-24.35 21.898,-39.383 33.04,-58.602 51.516,-99.053 65.01,-142.333 0.286,-0.917 0,-1.667 -0.627,-1.667 -1.14,0 -36.697,38.427 -70.9,76.62 -97.945,109.374 -172.893,181.426 -252.844,243.074 -28.604,22.057 -37.163,26.973 -46.957,26.973 -8.73,0 -11.34,-3.41 -10.472,-13.683 1.48,-17.513 26.65,-65.02 57.538,-108.599 33.449,-47.192 111.539,-125.39 178.881,-179.126 43.47,-34.688 54.718,-43.433 64.297,-49.99 5.305,-3.631 9.087,-6.791 8.404,-7.023 -3.798,-1.287 -49.579,17.836 -82.716,34.552 -41.805,21.088 -76.574,42.342 -120.032,73.374 -10.65,7.606 -22.679,16.067 -26.729,18.804 -8.247,5.572 -52.703,49.814 -72.802,72.45 -34.29,38.621 -74.33,96.016 -94.346,135.241 -30.715,60.192 -45.47,122.06 -40.791,171.036 2.66,27.838 12.562,51.249 28.171,66.603 5.017,4.935 9.888,8.694 10.825,8.354 0.937,-0.34 6.804,-1.177 13.037,-1.86 m -14.063,-15.314 c -5.616,-2.482 -14.967,-13.358 -19.044,-22.151 -4.442,-9.58 -5.738,-27.495 -2.362,-32.647 5.423,-8.277 19.296,0.509 27.672,17.524 5.431,11.032 8.083,29.444 5.027,34.906 -2.327,4.16 -5.66,4.858 -11.293,2.368 m 59.82,-1.434 c -9.27,-4.033 -8.422,-18.038 2.023,-33.384 8.617,-12.662 18.897,-20.263 34.043,-25.174 22.626,-7.337 40.117,-2.678 32.656,18.243 -5.843,16.385 -17.24,29.662 -30.98,36.094 -12.796,5.99 -29.405,7.847 -37.741,4.22 m -167.156,378.28301 c 2.74,-9.29 18.065,-41.93 37.718,-80.33401 48.792,-95.34 55.822,-111.075 74.46,-166.666 6.516,-19.434 11.856,-34.81 11.867,-34.168 0.1,5.775 -7.995,37.845 -13.873,54.954 -11.917,34.69 -23.423,60.192 -58.902,130.547 -18.49,36.66701 -36.427,73.26701 -39.86,81.33301 -6.705,15.755 -8.046,18 -10.748,18 -1.275,0 -1.453,-0.984 -0.662,-3.666 m 109.44,-26 c 0.023,-2.384 0.635,-8.834 1.36,-14.334 0.725,-5.5 3.993,-34.00001 7.261,-63.33301 5.201,-46.684 7.87,-72.249 14.054,-134.667 2.042,-20.61 5.42,-43.632 6.748,-46 2.039,-3.634 1.788,0.644 -4.22,72 -3.703,43.993 -15.583,157.39901 -18.637,177.92701 -1.327,8.916 -2.96,12.74 -5.437,12.74 -0.643,0 -1.151,-1.95 -1.129,-4.333 m 101.48,-58.00001 c -20.247,-50.862 -33.728,-98.361 -44.938,-158.334 -3.31,-17.715 -5.695,-46.332 -3.443,-41.333 0.661,1.467 3.763,15.867 6.894,32 12.008,61.869 24.959,108.17 44.497,159.082 4.872,12.696 8.51,23.64601 8.085,24.33401 -2.241,3.625 -4.864,-0.098 -11.094,-15.75001 m 60.804,-24.666 c -26.652,-31.726 -51.592,-73.666 -70.412,-118.409 -7.01,-16.667 -14.622,-37.882 -14.533,-40.508 0.06,-1.744 7.84,14.672 14.139,29.834 16.809,40.455 44.389,87.494 69.379,118.331 10.225,12.617 12.706,17.752 8.58,17.752 -0.7,0 -3.919,-3.15 -7.153,-7"
       id="path59" /><path
       fill="url(#G)"
       d="m 1888.1924,550.75009 c -41.925,0.895 -89.633,22.036 -116.906,48.932 -1.099,13.173 -1.107,25.795 0.027,37.662 2.66,27.838 12.563,51.25 28.172,66.603 3.741,3.68 7.4,6.707 9.408,7.867 l 2.201,-0.318 c 3.118,-0.45 6.378,-0.757 11.274,-0.947 q 0.486,-0.055 0.978,-0.108 c 6.889,-0.755 22.819,-0.779 40.62,-0.058 l 29.304,0.201 v 0 c 1.27,-0.317 1.959,-0.795 2.693,-1.455 1.493,-1.342 6.315,-4.854 10.715,-7.805 12.913,-8.66 34.93,-28.637 58.03,-51.816 4.022,-8.508 6.36,-17.408 5.687,-26.205 -4.14,-54.095 -40.28,-73.448 -82.205,-72.553 m 36.08,81.15 c 12.019,0.397 18.682,7.094 13.553,21.477 -5.843,16.385 -17.24,29.664 -30.98,36.096 -12.796,5.989 -29.404,7.844 -37.741,4.218 -9.271,-4.032 -8.423,-18.036 2.022,-33.382 8.617,-12.662 18.897,-20.263 34.043,-25.174 7.07,-2.293 13.64,-3.415 19.103,-3.235 m -130.961,5.282 c 6.582,-0.223 15.956,7.91 22.238,20.672 5.431,11.032 8.083,29.444 5.028,34.906 -2.327,4.16 -5.659,4.857 -11.293,2.367 -5.616,-2.482 -14.968,-13.36 -19.045,-22.152 -4.442,-9.58 -5.738,-27.494 -2.362,-32.647 1.356,-2.069 3.24,-3.072 5.434,-3.146"
       id="path60"
       style="fill:url(#G)" /><path
       fill="url(#H)"
       d="m 1807.7364,710.55709 c -3.792,-2.49 -13.649,-12.792 -17.318,-18.1 -8.548,-12.365 -14.972,-29.267 -17.683,-46.524 l -0.764,-4.862 c 24.55,-52.648 164.806,-98.538 172.323,-0.32 2.334,30.498 -40.86,62.545 -42.16,63.503 l -8.131,5.938 -34.295,-0.233 c -28.447,-0.194 -35.612,-0.044 -42.02,0.883 -4.248,0.615 -7.748,1.116 -7.777,1.114 -0.03,-0.003 -1.009,-0.632 -2.175,-1.398 z m 11.457,-15.703 c 3.177,-2.984 3.773,-8.9 1.951,-19.348 -2.89,-16.569 -11.056,-30.648 -21.13,-36.426 -9.878,-5.665 -15.361,0.376 -14.165,15.604 0.964,12.273 4.186,20.623 11.514,29.845 8.912,11.215 16.874,14.98 21.83,10.325 m 77.162,-1.252 c 7.054,-2.01 13.543,-5.045 18.786,-8.786 9.476,-6.762 18.141,-18.398 22.376,-30.049 1.85,-5.086 2.173,-6.878 1.956,-10.843 -0.312,-5.722 -1.695,-7.907 -6.603,-10.432 -8.27,-4.257 -28.69,-0.473 -42.505,7.875 -16.96,10.249 -30.02,31.466 -27.532,44.73 0.677,3.61 4.137,7.264 8.085,8.539 4.664,1.506 18.497,0.944 25.437,-1.034"
       id="path61"
       style="fill:url(#H)" /><path
       fill="#cdc0c7"
       d="m 2147.0144,1034.7881 c -0.46,-0.268 -1.435,-1.046 -2.17,-1.731 l -1.335,-1.244 4.87,-1.448 c 15.603,-4.637 73.463,-23.552 78.5,-25.662 3.672,-1.538 4.49,-1.802 5.575,-1.802 2.124,0 4.54,1.048 5.427,2.354 1.134,1.67 0.358,3.276 -1.708,3.538 -2.253,0.286 -8.473,2.096 -21.746,6.325 -14.548,4.636 -26.106,8.067 -39,11.576 -11.185,3.045 -17.948,5.154 -24.072,7.507 -1.592,0.612 -3.033,1.104 -3.201,1.093 -0.168,-0.011 -0.682,-0.239 -1.14,-0.506 m 123.432,-17.103 c -4.998,-0.683 -12.01,-2.74 -19.828,-5.82 -6.166,-2.429 -8.442,-4.433 -8.475,-7.467 -0.039,-3.562 -2.9,-6.57001 -7.665,-8.06101 -8.074,-2.525 -5.641,-17.574 8.197,-25.87 5.559,-3.333 14.07,-5.002 26.463,-4.202 4.048,0.261 4.687,0.433 4.705,1.262 0,0.114 -3.275,0.197 -7.282,0.184 -22.907,-1.569 -27.086,15.513 -27.062,21.963 0.01,2.892 0.123,3.73 0.761,5.659 2.916,8.81201 11.912,15.44401 23.825,17.56601 13.33,2.996 23.481,-3.732 30.135,-4.997 0,4.892 -16.57,10.767 -23.773,9.783"
       id="path62" /><path
       fill="url(#I)"
       d="m 2286.2394,987.39609 c -1.734,0.634 -4.735,-0.233 -6.302,-1.834 -1.568,-1.6 -1.701,-3.935 -0.9,-6.57 0.8,-2.634 2.533,-5.568 4.934,-7.836 2.402,-2.267 5.47,-3.868 8.404,-5.035 2.934,-1.167 5.736,-1.9 8.303,-1.934 2.568,-0.033 4.902,0.634 7.537,0.8 2.635,0.166 5.569,-0.166 11.805,-3.435 6.235,-3.268 15.772,-9.47 24.343,-15.54 8.57,-6.068 52.917,-66.763 55.367,-66.033 7.917,2.361 -36.856,57.337 -40.428,61.332 -3.561,3.983 -7.837,7.503 -12.672,11.438 -4.835,3.935 -10.17,8.337 -14.306,11.571 -4.136,3.234 -7.07,5.302 -10.07,7.17 -3.002,1.867 -6.07,3.535 -8.437,4.635 -2.368,1.1 -4.035,1.634 -5.903,1.367 -1.868,-0.267 -3.934,-1.334 -6.169,-1.5 -2.234,-0.167 -4.085,1.292 -6.252,2.526 -2.168,1.234 -4.471,2.535 -5.672,4.47 -1.201,1.935 -1.848,3.775 -3.582,4.408"
       id="path63"
       style="fill:url(#I)" /><ellipse
       cx="1976.924"
       cy="-1145.5803"
       fill-rule="evenodd"
       rx="1.0319973"
       ry="1.5119987"
       style="font-variation-settings:normal;stroke-width:0.999998;-inkscape-stroke:none"
       transform="matrix(0.62237155,0.78272195,-0.88054077,0.47397041,0,0)"
       id="ellipse63" /></g><text
     xml:space="preserve"
     style="font-weight:bold;font-size:255.325px;font-family:'Red Hat Display';-inkscape-font-specification:'Red Hat Display Bold';text-align:start;writing-mode:lr-tb;direction:ltr;text-anchor:start;fill:#4d4d4d;stroke:#000000;stroke-width:1.0775"
     x="1707.9651"
     y="209.01495"
     id="text63"
     transform="rotate(10.781348)"><tspan
       id="tspan63"
       x="1707.9651"
       y="209.01495"
       style="fill:#ffffff;stroke:#000000;stroke-width:1.0775">?</tspan></text><text
     xml:space="preserve"
     style="font-weight:bold;font-size:199.856px;font-family:'Red Hat Display';-inkscape-font-specification:'Red Hat Display Bold';text-align:start;writing-mode:lr-tb;direction:ltr;text-anchor:start;fill:#4d4d4d;stroke:#000000;stroke-width:0.843415"
     x="2144.9158"
     y="280.27155"
     id="text64"
     transform="rotate(10.781348)"><tspan
       id="tspan64"
       x="2144.9158"
       y="280.27155"
       style="fill:#ffffff;stroke:#000000;stroke-width:0.843415">?</tspan></text><text
     xml:space="preserve"
     style="font-weight:bold;font-size:199.856px;font-family:'Red Hat Display';-inkscape-font-specification:'Red Hat Display Bold';text-align:start;writing-mode:lr-tb;direction:ltr;text-anchor:start;fill:#4d4d4d;stroke:#000000;stroke-width:0.843415"
     x="1698.7239"
     y="396.38605"
     id="text65"
     transform="rotate(10.781348)"><tspan
       id="tspan65"
       x="1698.7239"
       y="396.38605"
       style="fill:#ffffff;stroke:#000000;stroke-width:0.843415">?</tspan></text><g
     transform="matrix(-0.57719573,0,0,0.57719573,923.07191,930.77802)"
     id="g27"><path
       fill="#d5d5d3"
       d="m 389.217,940.802 267.763,0.235 46.26,43.702 -313.117,-3.657 z"
       id="path14" /><path
       fill="url(#h)"
       d="M 703.24,984.739 C 863.378,936.697 985.191,826.862 1126.9,742.461 1058.041,722.93 764.642,859.793 642.827,953.815 Z"
       id="path15"
       style="fill:url(#h)" /><path
       fill="url(#i)"
       d="m 874.612,1028.192 c -6.875,-0.373 -18.35,-1.366 -25.5,-2.208 -33.956,-8.683 -78.853,-2.143 -107.976,-22.575 -4.794,-7.757 -78.124,-31.752 -98.309,-49.594 l -3.455,-3.054 -7.63,1.37 c -45.924,4.4 -92.083,2.703 -138.13,3.943 C 415.154,958.264 263.949,877.86 171.518,850.34 71.658,820.607 0,795.344 -24.862,725.423 0,609.11 197.793,576.725 297.112,554.335 c 3.85,-0.998 10.533,-2.3 14.852,-2.895 4.319,-0.593 8.366,-1.396 8.993,-1.784 0.627,-0.387 9.243,-0.78 19.147,-0.872 18.968,-0.176 39.186,-1.66 47.219,-3.465 50.095,-11.26 241.467,-15.125 246.862,-48.785 1.354,-10.245 20.391,-14.197 20.438,-21.918 0.009,-1.44 5.858,-10.251 9.898,-14.911 0.556,-0.64 1.306,-2.44 1.667,-4 22.175,-69.454 62.923,-127.77 114.104,-175.379 13.754,-12.597 32.506,-13.959 48.96,-20.45 7.857,-3.284 13.437,-1.251 18.4,6.7 9.77,13.64 3.685,19.675 -2.933,33.643 -6.993,13.376 -13.876,41.296 -16.678,67.65 -0.292,2.75 -0.714,6.35 -0.937,8 -0.223,1.65 -0.686,5.7 -1.03,9 -12.248,44.466 -10.904,83.64 -13.971,128.937 -0.273,3.034 0.197,4.592 2.05,6.795 1.323,1.572 2.9,4.75 3.505,7.063 2.144,8.2 6.837,15.648 11.525,18.293 51.847,46.22 114.321,50.532 154.929,46.938 45.512,-2.244 54.79,-42.443 68.852,-50.016 10.807,-24.235 36.577,-23.822 30.307,7.49 -0.165,0.825 -0.572,2.175 -0.904,3 -2.818,7.007 -4.585,16.634 -3.657,19.93 0.869,3.088 8.804,11.595 11.115,11.915 0.708,0.099 8.074,0.452 16.369,0.786 15.115,0.608 18.13,0.29 30.418,-3.216 3.025,-0.863 8.65,-2.249 12.5,-3.079 23.234,-5.011 65.075,-29.546 65.706,-30.73 0.616,-1.158 5.296,-7.6 10.4,-14.313 31.307,-32.88 106.47,-176.293 158.669,-176.293 4.62,0 11.608,3.36 14.225,6.84 1.724,2.294 1.984,4.106 1.888,13.16 -0.108,10.11 -0.3,10.984 -5.161,23.5 -5.061,13.03 -7.476,18.7 -9.157,21.5 -0.495,0.825 -1.894,3.975 -3.11,7 -2.616,6.517 -10.127,22.286 -10.955,23 -2.006,1.731 -7.168,11.016 -8.535,15.35 -1.627,5.159 -2.137,6.416 -6.75,16.65 -1.363,3.025 -2.813,6.625 -3.221,8 -0.714,2.403 -4.645,10.854 -16.061,34.533 -2.926,6.069 -7.527,14.023 -10.224,17.677 l -4.904,6.643 c -0.945,46.359 23.933,94.701 53.814,130.647 6.753,7.318 9.506,12.678 10.96,21.344 1.148,6.833 0.99,22.32 -0.22,21.572 -0.475,-0.293 -0.864,-0.057 -0.864,0.525 0,0.582 -0.9,1.96 -2,3.06 -1.1,1.1 -2,1.758 -2,1.464 0,-0.294 -0.866,-0.072 -1.923,0.494 -1.058,0.566 -5.895,1.09 -10.75,1.166 -10.822,0.167 -15.845,-1.399 -32.327,-10.079 -31.41,-11.493 -57.365,-40.165 -87.928,-52.046 -0.666,0 -3.174,-1.35 -5.572,-3 -2.398,-1.65 -4.887,-3 -5.53,-3 -0.643,0 -5.063,1.843 -9.82,4.095 -7.358,3.482 -9.77,5.3 -16.15,12.164 -40.994,45.148 -93.264,64.677 -147.5,94.839 -3.85,2.211 -11.5,6.082 -17,8.601 -98.285,45.017 -115.911,31.694 -131.55,45.846 -2.59,2.344 -14.466,8.196 -18.16,8.949 -4.028,0.821 -15.912,4.74 -21.136,6.971 -4.224,1.804 -14.148,8.114 -16.713,10.627 -0.894,0.876 -6.452,3.944 -12.35,6.818 -5.899,2.873 -11.5,6 -12.447,6.946 -0.947,0.948 -3.73,2.759 -6.183,4.026 -2.454,1.267 -5.361,3.094 -6.461,4.06 -4.628,4.067 -11.71,8.138 -21.05,12.102 -5.473,2.322 -10.106,4.355 -10.297,4.519 -0.19,0.164 1.46,1.22 3.668,2.346 5.48,2.795 12.53,5.654 19.795,13.779 17.64,19.727 54.012,33.313 70.015,44.898 2.252,1.679 5.059,2.51 10,2.961 3.778,0.345 9.119,1.34 11.869,2.212 2.75,0.871 8.6,2.35 13,3.287 4.4,0.937 9.35,2.194 11,2.795 1.65,0.601 7.725,2.522 13.5,4.27 5.775,1.748 13.134,4.462 16.353,6.033 3.23,1.576 7.514,2.856 9.562,2.856 7.708,0 18.362,15.196 3.023,29.397 -11.4,10.555 -15.304,11.838 -53.938,17.726 -8.896,1.356 -26.674,1.639 -44,0.7"
       id="path16"
       style="fill:url(#i-5)" /><path
       fill="#f7b7b5"
       d="m 119.412,882.592 c 17.673,8.121 -15.042,1.965 12.14,30.653 16.254,17.155 116.101,39.491 133.658,41.393 35.113,3.802 84.62,15.831 124.65,-11.532 3.596,-2.458 -44.983,-25.295 -120.425,-39.468 -75.442,-14.172 -150.023,-21.046 -150.023,-21.046"
       id="path17" /><path
       fill="#477484"
       d="m 255.814,837.378 c 0.636,-11.538 24.902,-16.284 40.979,-12.632 11.76,2.672 33.305,11.266 31.785,26.852 -14.553,18.472 -73.94,7.087 -72.764,-14.22"
       id="path18" /><path
       fill="#7e3d34"
       d="m 260.956,838.06 c 0.547,-9.908 21.385,-13.984 35.192,-10.847 10.098,2.294 28.6,9.674 27.295,23.059 -12.497,15.863 -63.495,6.086 -62.487,-12.212"
       id="path19" /><path
       fill="#1f1d25"
       d="m 264.52,838.546 c 7.643,-15.324 56.383,-7.543 53.473,9.724 -9.902,11.426 -50.29,3.332 -53.474,-9.724"
       id="path20" /><circle
       cx="300.56601"
       cy="841.685"
       r="6.4029999"
       fill="#ccd2cb"
       id="circle20" /><path
       fill="url(#j)"
       d="m 23.52,788.943 q -0.085,0.002 -0.112,0.041 c 1.005,21.373 68.087,70.476 82.631,83.438 l 13.373,10.17 1.506,3.578 c -0.033,3.206 -1.453,6.551 -0.83,9.728 0.384,0.986 1.978,4.037 7.047,4.399 l 2.26,-5.84 0.753,-1.695 2.448,4.898 c 0,0 0.28,2.194 0.767,3.346 0.493,1.163 1.492,1.928 1.492,1.928 0,0 3.508,-2.28 4.653,-4.233 0.874,-1.49 1.4,-4.703 1.4,-4.703 l 2.797,-3.596 c 3.483,7.66 7.61,13.87 14.783,18.512 9.355,5.92 7.582,-3.474 10.389,-9.723 l 6.125,11.188 c 0,0 4.001,5.981 7.059,7.592 1.866,0.983 4.29,1.686 6.26,0.931 3.48,-1.333 4.293,-7.397 4.394,-11.986 l 2.265,-3.33 2.53,6.926 c 0,0 5.209,8.644 8.79,12.119 0.964,0.934 1.99,2.184 3.329,2.264 3.169,0.188 7.268,-5.9 10.389,-11.586 l 0.931,-1.73 2.531,-0.136 1.2,4.397 c 7.602,14.034 13.922,22.079 24.771,5.992 l 1.863,-3.463 4.264,-2.93 c -0.373,5.325 -0.757,20.151 11.719,24.106 12.434,0.422 14.807,-10.408 19.31,-15.45 7.052,14.595 14.38,20.24 28.235,8.391 5.615,1.242 9.053,11.57 13.851,11.754 2.597,0.1 3.628,-1.962 4.395,-4.03 1.278,-2.376 4.795,-6.524 4.795,-6.524 7.922,-0.403 15.608,1.432 23.365,2.773 13.6,0.765 9.56,4.736 14.504,5.086 1.826,0.129 3.274,-1.8 5.084,-2.072 3.875,-0.553 6.106,1.608 8.785,3.53 100.1,41.441 212.815,42.2 313.62,41.736 -11.296,-8.992 -51.635,-21.467 -63.87,-33.977 0,0 -61.16,-6.606 -62.828,-11.217 -1.32,-3.646 -2.99,-7.42 -5.816,-10.074 -4.131,-3.881 -9.865,-5.731 -15.227,-7.567 -13.054,-4.468 -40.58,-8.158 -40.58,-8.158 L 432.54,901.51 c -35.44,-0.982 -70.3,-6.11 -105.291,-11.254 -19.398,-3.37 -36.512,-11.546 -54.164,-19.74 -19.989,-8.25 -71.369,-30.713 -92.566,-33.305 l -39.9,-6.582 C 105.483,827.132 63.685,814.211 34.362,794.512 33.149,793.976 24.648,788.928 23.519,788.943 M 130.95,899.508 c 0,0 -2.663,5.816 -5.676,6.969 -2.93,1.12 -7.884,-2.303 -8.048,-2.325 h -0.004 v 0.002 l 0.002,0.002 v 0.002 c 18.056,28.671 209.692,107.64 416.132,107.074 54.061,-3.11 107.7,-15.617 161.063,-24.915 l 8.82,-1.578 c -107.925,-2.314 -209.666,-6.98 -313.619,-41.737 -3.769,-0.115 -13.395,-0.389 -18.768,-0.328 -4.586,0.052 -13.748,0.566 -13.748,0.566 -11.288,-2.484 -21.058,10.606 -27.003,13.2 -6.077,2.65 -3.77,-6.609 -19.372,-15.239 0,0 -8.28,14.97 -14.554,14.659 -7.032,-0.35 -13.092,-18.27 -13.092,-18.27 0,0 -8.011,17.717 -17.875,17.047 -7.754,-0.527 -12.79,-14.027 -12.79,-14.027 -7.345,-2.479 -9.866,8.195 -17.964,7.14 -9.895,-1.29 -7.77,-13.855 -13.994,-18.3 l -8.861,9.415 c -3.969,4.217 -11.08,-14.003 -13.631,-19.195 -7.758,3.593 -5.778,9.475 -11.596,9.209 -3.024,-0.138 -12.833,-18.384 -15.916,-18.385 -4.197,0 -4.407,12.835 -15.867,3.367 -2.993,-2.472 -6.682,-8.803 -8.942,-9.488 l -8.257,7.46 z"
       id="path21"
       style="fill:url(#j)" /><path
       fill="none"
       stroke="url(#k)"
       stroke-width="2"
       d="m 501.537,955.518 c 19.424,-31.96 38.173,-71.432 47.692,-109.87"
       id="path22"
       style="stroke:url(#k)" /><path
       fill="none"
       stroke="url(#l)"
       stroke-width="2"
       d="m 537.396,964.612 c 19.425,-31.96 36.043,-63.974 45.561,-102.411"
       id="path23"
       style="stroke:url(#l-6)" /><path
       fill="none"
       stroke="url(#m)"
       stroke-width="2"
       d="m 570.054,974.776 c 19.425,-31.96 33.465,-59.378 42.983,-97.815"
       id="path24"
       style="stroke:url(#m-2)" /><path
       fill="none"
       stroke="url(#n)"
       stroke-width="2"
       d="m 466.274,937.257 c 19.425,-31.96 40.304,-73.296 49.823,-111.734"
       id="path25"
       style="stroke:url(#n-8)" /><path
       fill="none"
       stroke="url(#o)"
       stroke-width="2"
       d="m 439.212,926.75 c 19.425,-31.959 38.174,-71.431 47.692,-109.869"
       id="path26"
       style="stroke:url(#o-0)" /><path
       fill="none"
       stroke="url(#p)"
       stroke-width="2"
       d="m 413.78,907.34 c 19.425,-31.959 41,-76.328 50.518,-114.765"
       id="path27"
       style="stroke:url(#p-5)" /></g><g
     id="g1"
     transform="translate(0,22.484364)"><path
       style="fill:#ffffff;stroke-width:4.81324"
       d="m 743.14093,1077.9683 c 7.07835,-3.5998 10.59732,-11.7446 8.33556,-19.2929 -2.4018,-8.0176 -8.09056,-12.183 -16.63889,-12.183 -9.76125,0 -15.84615,6.1552 -15.84615,16.0298 0,13.2362 12.62128,21.3088 24.14948,15.4461 z m 62.87394,-29.1508 c 10.94868,-3.8395 20.7932,-18.2241 20.7932,-30.3832 0,-2.105 -0.78888,-6.1832 -1.75298,-9.0627 -8.43905,-25.20488 -42.78924,-30.1232 -56.74042,-8.1242 -8.724,13.7563 -7.3301,28.7972 3.6879,39.7988 9.49027,9.4761 21.39439,12.196 34.0123,7.7713 z m 84.33426,-47.0256 c 32.10288,-8.11176 52.07446,-41.77886 43.62097,-73.53417 -14.46909,-54.35281 -88.23443,-60.65768 -112.42675,-9.60935 -4.26646,9.00192 -4.74681,11.49735 -4.74681,24.64818 0,13.25317 0.46207,15.60852 4.9066,24.99001 9.65345,20.37768 28.78464,33.33553 50.77154,34.38773 6.65093,0.3182 14.69433,-0.079 17.87445,-0.8824 z m 308.42627,-91.47756 c 35.8312,-6.99368 63.8027,-28.23178 79.2893,-60.20215 5.3944,-11.13625 6.9546,-15.67114 9.8756,-28.70531 0.7174,-3.20125 2.1096,-4.28659 6.5724,-5.1238 3.1141,-0.58423 10.5715,-3.01977 16.5719,-5.41234 46.5793,-18.57285 82.7834,-56.6172 98.97,-104.00059 10.9667,-32.10275 10.9667,-75.71389 0,-107.81663 -28.685,-83.97009 -117.6347,-132.65903 -202.4127,-110.79565 l -9.6159,2.47994 -8.0598,-8.81897 c -16.7443,-18.32089 -43.4982,-34.39255 -68.2026,-40.97075 -17.5043,-4.661 -50.321,-4.66914 -67.5067,-0.0148 -24.7569,6.70205 -45.5766,18.48471 -63.69028,36.04492 l -11.05843,10.72044 -9.73478,-6.90224 c -22.3758,-15.86498 -40.66372,-21.69054 -68.26382,-21.7456 -22.21648,-0.0433 -32.78154,2.39891 -52.36806,12.11011 -23.55891,11.68069 -41.76981,30.12922 -53.00584,53.69697 -8.53243,17.89756 -11.39535,30.8215 -11.31833,51.09406 0.0771,19.94183 3.50596,34.81822 11.84778,51.38339 3.02465,6.00562 5.49913,11.61194 5.49913,12.45844 0,0.84651 -2.03359,2.59063 -4.51866,3.87583 -7.09472,3.66884 -22.80034,18.94423 -30.03128,29.20881 -22.47783,31.90733 -27.96589,71.82686 -14.93644,108.64591 5.58479,15.7817 12.67279,27.50585 24.07247,39.8172 16.15179,17.44381 35.50969,29.25156 57.7589,35.23168 14.16055,3.80608 44.68903,3.76329 59.70346,-0.0837 l 11.18598,-2.86603 8.067,6.82213 c 18.64504,15.76795 39.66833,26.70175 62.16446,32.33046 19.00941,4.75625 49.49024,4.76506 68.67344,0.0192 14.4128,-3.56513 29.3622,-9.79809 41.6836,-17.37942 l 7.6815,-4.72647 4.4325,5.37784 c 5.7764,7.00771 21.3525,18.6618 32.3873,24.23204 19.7964,9.99319 47.5491,14.06399 68.2869,10.01635 z"
       id="path1" /><text
       xml:space="preserve"
       style="font-weight:bold;font-size:255.325px;font-family:'Red Hat Display';-inkscape-font-specification:'Red Hat Display Bold';text-align:start;writing-mode:lr-tb;direction:ltr;text-anchor:start;fill:#000000;stroke:#000000;stroke-width:1.0775"
       x="1333.5172"
       y="500.16623"
       id="text63-6"
       transform="rotate(10.781348)"><tspan
         id="tspan63-1"
         x="1333.5172"
         y="500.16623"
         style="fill:#000000;stroke:#000000;stroke-width:1.0775">?</tspan></text><g
       id="g15"
       transform="matrix(0.29770896,0,0,0.29770896,841.96877,535.92301)"><path
         d="m 597.344,357.461 c -121.238,0 -231.39,14.576 -312.939,38.329 v 202.901 c 81.549,23.754 191.701,38.329 312.939,38.329 138.76,0 262.987,-19.092 346.431,-49.186 V 406.65 C 860.331,376.555 736.104,357.461 597.344,357.461 m 471.406,164.861 -14.211,-29.441 c 0.073,-1.118 0.131,-2.237 0.131,-3.36 0,-33.375 -34.706,-64.135 -93.097,-88.762 v 177.526 c 27.245,-11.492 49.348,-24.317 65.156,-38.125 -4.652,18.707 -20.564,56.553 -33.25,83.168 -20.85,38.066 -28.4,71.203 -27.432,72.844 0.617,1.033 7.73,-9.94 18.219,-27.721 24.41,-34.781 70.664,-101.182 79.909,-118.096 10.472,-19.174 4.575,-28.033 4.575,-28.033 M 149.064,491.467 c 0,6.428 1.293,12.76 3.788,18.969 l -8.511,15.15 c 0,0 -6.818,8.846 5.188,27.508 10.59,16.455 63.635,80.867 91.632,114.598 12.026,17.293 20.179,27.945 20.893,26.916 1.124,-1.633 -7.476,-34.1 -31.359,-71.141 -11.144,-19.895 -24.454,-46.252 -32.442,-65.721 22.303,14.116 51.483,26.92 86.152,37.94 V 387.251 c -83.544,26.548 -135.341,63.433 -135.341,104.216"
         fill="#a52b00"
         fill-rule="nonzero"
         id="path7" /><path
         d="M 0.991,-0.034 0.933,0.008 V 0.026 L 0.99,0.069 A 0.018,0.018 0 0 1 0.998,0.087 0.022,0.022 0 0 1 0.986,0.103 L 0.92,0.133 A 0.085,0.085 0 0 1 0.916,0.15 L 0.964,0.203 C 0.968,0.208 0.97,0.216 0.968,0.222 A 0.023,0.023 0 0 1 0.953,0.236 L 0.882,0.254 0.875,0.27 0.91,0.33 a 0.018,0.018 0 0 1 0,0.02 C 0.907,0.356 0.9,0.36 0.893,0.361 L 0.82,0.365 0.81,0.379 0.832,0.445 C 0.835,0.452 0.833,0.459 0.828,0.465 A 0.022,0.022 0 0 1 0.809,0.472 L 0.737,0.462 A 0.154,0.154 0 0 1 0.724,0.474 l 0.009,0.07 A 0.018,0.018 0 0 1 0.725,0.562 C 0.719,0.566 0.711,0.568 0.704,0.565 L 0.636,0.542 0.621,0.552 0.615,0.621 a 0.02,0.02 0 0 1 -0.011,0.017 0.026,0.026 0 0 1 -0.021,0 L 0.521,0.602 0.518,0.603 0.406,0.729 c 0,0 -0.012,0.018 -0.047,-0.004 C 0.329,0.705 0.206,0.599 0.141,0.543 A 0.267,0.267 0 0 1 0.09,0.502 c 0.003,-0.003 0.059,0.007 0.127,0.052 0.061,0.034 0.154,0.077 0.163,0.065 0,0 0.016,-0.015 0.026,-0.044 10e-4,0.001 10e-4,0.001 0,0 0,0 -0.315,-0.551 -0.101,-1.106 C 0.311,-0.593 0.275,-0.627 0.275,-0.627 0.266,-0.639 0.178,-0.598 0.12,-0.566 0.055,-0.523 0.002,-0.513 0,-0.516 A 0.245,0.245 0 0 1 0.049,-0.555 C 0.11,-0.608 0.227,-0.707 0.256,-0.726 0.289,-0.748 0.301,-0.73 0.301,-0.73 l 0.101,0.115 0.013,0.002 0.055,-0.045 c 0.005,-0.005 0.013,-0.006 0.02,-0.004 a 0.02,0.02 0 0 1 0.014,0.014 l 0.018,0.068 0.016,0.006 0.064,-0.034 a 0.02,0.02 0 0 1 0.021,0 c 0.006,0.003 0.01,0.009 0.01,0.016 l 0.004,0.07 0.015,0.01 0.069,-0.022 a 0.023,0.023 0 0 1 0.02,0.003 0.02,0.02 0 0 1 0.008,0.019 l -0.011,0.069 a 0.154,0.154 0 0 0 0.013,0.012 l 0.072,-0.008 a 0.023,0.023 0 0 1 0.019,0.007 0.018,0.018 0 0 1 0.003,0.02 l -0.024,0.065 0.01,0.015 0.072,0.005 a 0.02,0.02 0 0 1 0.017,0.011 0.018,0.018 0 0 1 0,0.02 l -0.037,0.06 0.006,0.016 0.07,0.018 a 0.021,0.021 0 0 1 0.015,0.014 0.021,0.021 0 0 1 -0.005,0.02 l -0.049,0.052 0.004,0.017 0.064,0.031 A 0.02,0.02 0 0 1 1,-0.052 c 10e-4,0.007 -0.003,0.014 -0.009,0.018 z"
         fill="url(#prefix___Linear1)"
         fill-rule="nonzero"
         transform="matrix(-65.809584,-752.20699,-752.20699,65.809584,621.87,796.78)"
         id="path8"
         style="fill:url(#prefix___Linear1)" /><path
         d="m 450.328,650.959 c -1.664,-1.42 -2.536,-2.262 -2.536,-2.262 L 590.334,637.02 C 474.061,483.629 380.91,605.822 370.995,619.484 v 31.475 z m 296.792,-1.652 c 1.663,-1.42 2.536,-2.264 2.536,-2.264 L 612.672,637.02 C 729,477.333 816.541,604.168 826.455,617.83 v 31.477 z"
         fill-rule="nonzero"
         id="path9" /><path
         d="m 1,-0.586 c 0,0 -0.232,0.058 -0.476,0.421 L 0.5,-0.064 c 0,0 0.6,0.329 -0.076,0.795 0,0 0.084,-0.145 -0.019,-0.534 0,0 -0.274,0.179 -0.265,0.539 0,0 -0.415,-0.345 0.184,-0.871 0,0 0.215,-0.556 0.676,-0.601 z"
         fill="url(#prefix___Linear2)"
         fill-rule="nonzero"
         transform="matrix(0,-267.211,-267.211,0,809.65,764.22)"
         id="path10"
         style="fill:url(#linearGradient1)" /><path
         d="m 677.392,417.547 c 0,0 43.486,-47.615 86.974,0 0,0 34.17,63.492 0,95.234 0,0 -55.912,44.444 -86.974,0 0,0 -37.275,-34.921 0,-95.234"
         fill-rule="nonzero"
         id="path11" /><path
         d="m 727.738,435.211 c 0,18.541 -10.93,33.572 -24.408,33.572 -13.477,0 -24.406,-15.031 -24.406,-33.572 0,-18.541 10.929,-33.574 24.406,-33.574 13.478,0 24.408,15.033 24.408,33.574"
         fill="#ffffff"
         fill-rule="nonzero"
         id="path12" /><path
         d="m 483.3,404.545 c 0,0 74.596,-33.028 94.956,40.691 0,0 21.327,85.926 -61.259,90.776 0,0 -105.31,-20.283 -33.697,-131.467"
         fill-rule="nonzero"
         id="path13" /><path
         d="m 520.766,436.428 c 0,19.119 -11.27,34.627 -25.173,34.627 -13.898,0 -25.171,-15.508 -25.171,-34.627 0,-19.124 11.273,-34.627 25.171,-34.627 13.903,0 25.173,15.503 25.173,34.627"
         fill="#ffffff"
         fill-rule="nonzero"
         id="path14-6" /><path
         d="m 0.367,0.129 c -0.731,-0.57 -0.144,-0.84 -0.144,-0.84 0.036,0.32 0.249,0.547 0.249,0.547 0.049,-0.384 0.053,-0.606 0.053,-0.606 0.678,0.514 0.064,0.931 0.064,0.931 0.038,0.104 0.183,0.211 0.317,0.29 L 1,0.77 C 0.376,0.403 0.367,0.129 0.367,0.129 Z"
         fill="url(#prefix___Linear2)"
         fill-rule="nonzero"
         transform="matrix(0,-239.021,-239.021,0,402.27,775.15)"
         id="path15-3"
         style="fill:url(#linearGradient12)" /></g></g></svg>
