<svg xmlns="http://www.w3.org/2000/svg" xmlns:xlink="http://www.w3.org/1999/xlink" width="1602.667" height="1600"><defs><linearGradient id="n"><stop offset="0" stop-color="#3d2a3f"/><stop offset=".5" stop-color="#50314a"/><stop offset="1" stop-color="#342336"/></linearGradient><linearGradient id="m"><stop offset="0" stop-color="#271f3a"/><stop offset=".5" stop-color="#29203b"/><stop offset="1" stop-color="#342540"/></linearGradient><linearGradient id="l"><stop offset="0" stop-color="#251e35"/><stop offset=".5" stop-color="#29203a"/><stop offset="1" stop-color="#261e38"/></linearGradient><linearGradient id="j"><stop offset="0" stop-color="#29203b"/><stop offset=".5" stop-color="#32243f"/><stop offset="1" stop-color="#392842"/></linearGradient><linearGradient id="i"><stop offset="0" stop-color="#271e36"/><stop offset=".5" stop-color="#2a213c"/><stop offset="1" stop-color="#27203a"/></linearGradient><linearGradient id="h"><stop offset="0" stop-color="#271f3a"/><stop offset="1" stop-color="#241e39"/></linearGradient><linearGradient id="g"><stop offset="0" stop-color="#271f3a"/><stop offset=".5" stop-color="#28203b"/><stop offset="1" stop-color="#271e3a"/></linearGradient><linearGradient id="f"><stop offset="0" stop-color="#271f3a"/><stop offset="1" stop-color="#332440"/></linearGradient><linearGradient id="s"><stop offset="0" stop-color="#efe1e4" stop-opacity=".13"/><stop offset="1" stop-color="#efe2e5" stop-opacity=".49"/></linearGradient><linearGradient id="e"><stop offset="0" stop-color="#fffcfd"/><stop offset=".5" stop-color="#e5d6db" stop-opacity=".996"/><stop offset=".75" stop-color="#eddee0" stop-opacity=".376"/><stop offset="1" stop-color="#eddee0" stop-opacity=".019"/></linearGradient><linearGradient id="d"><stop offset=".488" stop-color="#864c62"/><stop offset="1" stop-color="#3a2742"/></linearGradient><linearGradient id="r"><stop offset=".828" stop-color="#fbeaeb"/><stop offset="1" stop-color="#fbeaeb" stop-opacity="0"/></linearGradient><linearGradient id="o"><stop offset="0" stop-color="#d7c8cf" stop-opacity=".171"/><stop offset="1" stop-color="#d7c8cf" stop-opacity=".12"/></linearGradient><linearGradient id="c"><stop offset=".096" stop-color="#462d45"/><stop offset=".5" stop-color="#462e46"/><stop offset="1" stop-color="#4a2f46"/></linearGradient><linearGradient id="b"><stop offset=".815" stop-color="#767585"/><stop offset="1" stop-color="#c5bac2"/></linearGradient><linearGradient id="a"><stop offset="0" stop-color="#c5bac2"/><stop offset=".848" stop-color="#f5e4e5"/><stop offset="1" stop-color="#313343"/></linearGradient><linearGradient xlink:href="#a" id="E" x1="766.531" x2="101.888" y1="1154.297" y2="1411.666" gradientUnits="userSpaceOnUse"/><linearGradient xlink:href="#b" id="D" x1="841.152" x2="746.059" y1="1130.152" y2="1141.521" gradientUnits="userSpaceOnUse"/><linearGradient xlink:href="#c" id="B" x1="954.914" x2="958.528" y1="683.918" y2="743.535" gradientUnits="userSpaceOnUse"/><linearGradient xlink:href="#d" id="C" x1="964.692" x2="900.796" y1="760.588" y2="1163.5" gradientUnits="userSpaceOnUse"/><linearGradient xlink:href="#e" id="I" x1="1374.207" x2="1459.615" y1="2530.375" y2="2530.375" gradientTransform="translate(1.003 -1600.243)" gradientUnits="userSpaceOnUse"/><linearGradient xlink:href="#f" id="z" x1="803.006" x2="783.655" y1="1110.996" y2="1110.996" gradientUnits="userSpaceOnUse"/><linearGradient xlink:href="#g" id="A" x1="803.244" x2="869.151" y1="1119.613" y2="1119.613" gradientUnits="userSpaceOnUse"/><linearGradient xlink:href="#h" id="y" x1="865.854" x2="880.876" y1="1135.265" y2="1135.265" gradientUnits="userSpaceOnUse"/><linearGradient xlink:href="#i" id="x" x1="978" x2="1056.662" y1="1141.286" y2="1127.597" gradientUnits="userSpaceOnUse"/><linearGradient xlink:href="#j" id="w" x1="1056.606" x2="1091.986" y1="1132.635" y2="1132.635" gradientUnits="userSpaceOnUse"/><linearGradient xlink:href="#l" id="v" x1="1133.368" x2="1170.422" y1="1122.834" y2="1103.76" gradientUnits="userSpaceOnUse"/><linearGradient xlink:href="#m" id="u" x1="1177.966" x2="1213.157" y1="1105.299" y2="1082.897" gradientUnits="userSpaceOnUse"/><linearGradient xlink:href="#n" id="t" x1="1253.103" x2="1261.461" y1="1058.02" y2="1051.892" gradientUnits="userSpaceOnUse"/><radialGradient xlink:href="#o" id="H" cx="949.832" cy="636.416" r="86.207" fx="949.832" fy="636.416" gradientTransform="matrix(1 0 0 .77246 0 139.952)" gradientUnits="userSpaceOnUse"/><radialGradient xlink:href="#r" id="G" cx="967.141" cy="600.958" r="100.025" fx="967.141" fy="600.958" gradientTransform="matrix(1 0 0 .80527 0 117.025)" gradientUnits="userSpaceOnUse"/><radialGradient xlink:href="#s" id="F" cx="795.573" cy="957.615" r="326.976" fx="795.573" fy="957.615" gradientTransform="matrix(1 0 0 .35009 0 622.367)" gradientUnits="userSpaceOnUse"/></defs><path fill="url(#t)" d="M1258.29 1049.383c-1.116 0-1.726.443-2.228.826a7 7 0 0 0-1.267 1.281c-.737.942-1.35 2.036-1.682 3.317-.276 1.07-.374 1.995-.01 3.212.23.767.581 1.231.983 1.664.402.434.83.83 1.638 1.114.479.167 1.22.408 2.153.183.932-.225 1.471-.766 1.824-1.13 1.023-1.057 1.502-2.395 1.795-3.899.132-.676.187-1.355.197-2.014s.073-1.12-.232-2.044c-.376-1.136-1.27-2.512-3.17-2.512z"/><path fill="url(#u)" d="M1209.475 1081.113a21 21 0 0 0-2.25.1 33 33 0 0 0-5.123.885c-4.427 1.157-11.047 3.49-17.12 5.887-6.072 2.396-11.394 4.705-13.765 6.334-.324.222-.654.467-.96.879a2.7 2.7 0 0 0-.501 1.601c.042 1.113.534 1.74 1.121 2.631 1.412 2.143 3.042 3.946 8.615 9.602l5.139 5.213a1.67 1.67 0 0 0 2.304.068l2.829-2.55a394 394 0 0 0 11.838-11.16c3.644-3.582 6.565-6.589 7.876-8.234 1.414-1.773 2.921-3.965 3.58-5.418.591-1.302.805-2.657.099-4.055-.269-.529-.541-.731-.829-.953a3.7 3.7 0 0 0-.972-.548c-.675-.257-1.209-.267-1.881-.28z"/><path fill="url(#v)" d="m1160.662 1098.178-9.072 6.484c-6.018 4.301-11.002 7.937-14.535 10.594a155 155 0 0 0-4.186 3.234c-.51.413-.92.755-1.273 1.078a8 8 0 0 0-.528.522c-.19.208-.433.187-.87 1.398-.147.404-.372 1.084-.136 2.12.237 1.035 1.186 2.093 1.926 2.472 1.48.759 1.933.435 2.323.393.778-.086 1.232-.227 2.037-.438 8.436-2.21 26.372-9.592 32.691-13.717.605-.394 1.05-.658 1.654-1.253.604-.596 1.344-2.128 1.344-3.122 0-1.877-.784-3.056-1.615-4.183-.832-1.127-1.887-2.226-3.236-3.48l-1.936-1.805a3.63 3.63 0 0 0-4.586-.297z"/><path fill="url(#w)" d="M1067.82 1122.684a95 95 0 0 0-4.892.07c-1.359.065-2.218.069-3.346.423-1.016.32-1.371.552-2.06 1.372-.218.258-.615.767-.8 1.478-.184.711-.105 1.229-.06 1.57.286 2.185 1.306 3.478 3.238 6.57 2.027 3.245 3.448 5.235 4.93 6.721.41.412.69.715 1.209 1.069.518.353 1.516.635 2.04.635h.01c1.232 0 1.478-.253 2.186-.512a44 44 0 0 0 2.541-1.043c1.979-.872 4.528-2.09 7.412-3.549 4.143-2.096 6.916-3.62 8.782-4.95.932-.664 1.661-1.237 2.279-2.152.309-.457.604-1.046.682-1.806s-.154-1.64-.547-2.24c-.64-.977-1.387-1.32-2.076-1.612s-1.415-.488-2.262-.666c-1.696-.356-3.882-.614-6.733-.834a191 191 0 0 0-12.533-.545z"/><path fill="url(#x)" d="m1049.926 1121.979-1.012.115c-.147.017-3.42.28-6.5.492-6.72.464-10.176.88-15.957 1.922-9.793 1.765-20.526 4.413-31.353 7.73h-.002c-1.883.577-5.866 1.938-9.508 3.213-1.821.638-3.54 1.248-4.834 1.72-.647.237-1.185.439-1.596.598-.205.08-.375.146-.541.217-.083.036-.16.071-.277.13-.117.057-.07-.182-.866.612-.262.263-.6.684-.787 1.338-.186.655-.112 1.499.139 2.075.503 1.152 1.12 1.36 1.434 1.521.627.322.807.294 1.01.328.405.07.672.074.995.074.592 0 .907-.035 1.872-.09.964-.054 2.279-.132 3.835-.226 3.114-.189 7.194-.442 11.354-.705 8.32-.527 16.832-1.082 18.795-1.245 6.644-.549 14.872-1.449 21.93-2.347 7.056-.899 12.523-1.652 15.134-2.403l1.346-.386a3.064 3.064 0 0 0 2.197-3.309l-.154-1.29c-.207-1.746-.906-3.187-2.021-5.376l-1.555-3.05a3.06 3.06 0 0 0-3.078-1.655z"/><path fill="url(#y)" d="M874.053 1124.285a4.3 4.3 0 0 0-1.922.822c-1.527 1.125-1.879 2.245-2.371 3.514s-.939 2.804-1.46 4.834c-.582 2.273-1.107 3.993-1.77 5.813-.266.727-.47 1.245-.6 2.09-.066.422-.164.959.082 1.87s1.268 2.203 2.32 2.628c2.013.812 2.665.27 3.533.047.869-.224 1.786-.547 2.934-.99 1.339-.518 2.355-.941 3.367-1.63 1.012-.688 2.074-1.976 2.432-3.255.395-1.415.27-2.147.214-3.196a37 37 0 0 0-.353-3.357c-.343-2.32-.582-4.29-1.637-6.371-.33-.654-.6-1.478-2.031-2.309-.723-.42-1.838-.655-2.738-.51"/><path fill="url(#z)" d="M800.242 1103.496c-.507-.025-.943.01-1.51.031-2.25.091-5.203.606-7.867 1.234a41 41 0 0 0-3.615 1.01c-1.038.352-1.734.466-2.682 1.344a2.74 2.74 0 0 0-.775 1.127c-.216.59-.155 1.346.021 1.814.354.937.772 1.25 1.301 1.811 2.292 2.43 6.526 5.131 9.739 6.262.648.228 1.13.346 1.851.37h.037c.308.01.885.04 1.563-.333s.924-.824 1.1-1.088c.727-1.1 1.21-2.46 1.83-4.156.62-1.697 1.19-3.443 1.458-4.739.115-.552.216-.977.274-1.482s.155-1.393-.588-2.264-1.63-.916-2.137-.941"/><path fill="url(#A)" d="M814.582 1103.64c-2.93-.017-4.702-.01-6.127.133-.712.072-1.36.16-2.148.47s-1.76 1.04-2.266 1.831c-.723 1.133-.915 2.564-.732 3.692.182 1.127.63 2.024 1.162 2.822 1.062 1.595 2.53 2.877 4.357 4.094 9.415 6.27 32.37 14.694 47.623 17.912 3.115.657 4.828 1.086 6.813.982.992-.052 2.273-.37 3.263-1.178.991-.806 1.428-1.761 1.688-2.406.556-1.377.53-2.075.654-3.256.125-1.18.207-2.531.225-3.87l.056-4.43a3.65 3.65 0 0 0-1.261-2.807l-1.91-1.652c-2.523-2.182-6.103-3.689-10.833-5.315-4.729-1.626-10.5-3.159-16.757-4.416-9.072-1.822-15.733-2.556-23.807-2.605"/><path fill="#472e43" d="M750.498 1106.148c-.581-.089-1.392.153-1.803.647-.423.51-.383.963-.35 1.299.035.335.124.626.239.914.23.575.54 1.128 1.121 1.586 1.024.805 2.608.741 3.537-.188.219-.218.443-.478.578-.884a1.87 1.87 0 0 0-.103-1.33c-.382-.744-.914-1.004-1.592-1.393-.567-.325-1.047-.562-1.627-.65"/><path fill="#c6b9c2" d="M1247.096 1006.577c-5.916-3.385-9.497-5.758-9.497-6.29 0-.576 12.847-4.994 39.315-13.519 20.973-6.755 35.353-11.524 41.782-13.857 8.388-3.044 10.385-3.446 14.148-2.846 2.584.412-.51.836-1.014-.14-.798-1.542-.119-.918-3.17-1.162-2.507-.2-2.438-2.651-2.981-3.915-1.093-2.541-1.498-8.253-.787-11.111 1.214-4.882 4.039-8.948 9.151-13.173 7.03-5.809 11.8-7.556 22.38-8.2 3.508-.213 8.467-.048 11.42.382l19.442 3.808-1.467 4.175c-1.153 3.284-4.788 7.421-4.802 7.444s-5.955-1.321-6.502-1.591c-4.075-2.015-13.555-4.976-20.268-3.59-7.807 1.61-13.07 4.828-15.205 9.292-.958 2.002-1.202 3.176-1.202 5.78 0 4.77 2.065 8.854 6.745 13.34 3.184 3.052 7.617 5.773 11.05 6.781 1.866.548 6.127 1.335 8.766 1.62 17.936 1.93 20.6-10.455 22.534-20.122 6.515-32.565 24.53 4.217 13.567 17.845-1.883 2.34-4.616 3.83-7.189 6.271-5.607 5.321-10.166 7.546-17.36 8.474-5.682.733-12.87.866-16.582.308-3.777-.568-13.236-3.63-17.83-5.77-2.932-1.368-3.505-2.162-3.967-5.497-.164-1.19-.382-2.247-.483-2.349-.309-.308-.813.023-1.669 1.098-.449.564-1.056 1.19-1.35 1.39-2.651 1.808-9.94 4.58-26.044 9.906-9.67 3.198-55.688 17.848-56.064 17.848-.15 0-2.339-1.184-4.867-2.63"/><path fill="url(#B)" d="M938.174 683.502c-5.93-.001-11.342.121-14.22.418-8.579.885-18.414 2.782-26.196 4.81-3.891 1.015-7.255 2.056-9.76 3.063-1.252.503-2.284.984-3.144 1.543-.43.28-.824.57-1.206 1.002-.38.43-.834 1.09-.834 2.06 0 .896.277 1.235.473 1.563s.407.6.656.9c.499.6 1.16 1.29 2.063 2.176 1.804 1.772 4.556 4.292 8.54 7.844 7.634 6.803 15.782 15.24 18.188 18.615 2.563 3.594 5.162 9.008 5.516 10.719l.424 2.06a2.306 2.306 0 0 0 2.303 1.842l6.044-.113c8.544-.16 18.83 1.08 31.006 3.783 4.5.999 9.278 2.255 13.29 3.46 4.01 1.203 7.37 2.435 8.533 3.05.375.198.737.377 1.048.521.156.073.296.136.446.196s-.005.149.857.216h.008c1.135.085 1.838-.639 2.078-.968.24-.33.296-.518.352-.676.111-.317.142-.514.176-.729.067-.43.097-.876.105-1.377.019-1.215.833-3.634 2.752-6.712 6.578-10.555 18.744-23.479 31.77-33.618 2.697-2.099 4.816-3.881 6.3-5.306.743-.713 1.324-1.324 1.785-1.936a5 5 0 0 0 .622-1.021c.184-.416.457-1.035.152-2.004-.385-1.222-.957-1.514-1.506-1.942s-1.173-.814-1.883-1.2c-1.419-.774-3.166-1.523-4.974-2.1-13.333-4.258-39.672-8.142-65.024-9.723-4.465-.278-10.811-.415-16.74-.416"/><path fill="url(#C)" d="M918.81 739.197c-.304.407-.163.388-.224.518-.08.173-.143.318-.211.484-.137.333-.291.732-.477 1.225-.37.986-.857 2.332-1.437 3.967a935 935 0 0 0-4.309 12.466c-8.368 24.727-15.023 39.127-31.472 68.073-2.538 4.465-5.163 9.324-8.12 14.607.056-.257.124-.478.137-.875.02-.6 7.813-16.19 6.443-17.56-.742-.741-9.494 13.321-10.236 13.289a3.6 3.6 0 0 0-1.515.23c-.641.23-.852.417-1.041.555-.38.275-.527.434-.7.605-.345.344-.655.696-1.04 1.145a118 118 0 0 0-2.987 3.68c-2.426 3.085-5.67 7.363-9.182 12.128-6.902 9.367-24.445 32.113-38.85 50.364-53.15 67.345-71.416 93.622-93.073 133.931-2.51 4.671-5.196 9.306-7.465 12.953s-2.759 6.945-2.753 6.94c-1.489 1.405-1.595 1.755-2.343 3.553-.747 1.798-3.783 4.712-3.332 6.51q-.003-.014-.006-.017h-.004c-.02.058.05 1.14-.137 2.274-.207 1.25-.612 2.713-1.082 3.836-1.055 2.524-1.836 4.582-1.799 7.023s.807 4.51 1.93 7.451c3.5 9.165 14.672 17.626 29.717 25.23 2.58 1.305 4.659 2.303 6.371 3.02s2.861 1.25 4.686 1.313c.912.032 2.45-.096 3.7-1.457 1.252-1.361 1.247-3.097 1.07-4.03-.356-1.864-1.072-2.775-1.968-4.142-.8-1.22-1.047-1.775-1.234-3.51-.03-.283.052-1.166.035-1.512 1.39 1.574 3.513 2.1 5.057 2.1-.038 0-.061 0-.069.01h-.002.004c.064.037.901.178 1.9.559 1.208.46 2.81 1.186 4.635 2.119 3.65 1.866 8.215 4.552 12.883 7.652 2.084 1.384 3.843 2.45 5.366 3.227s2.56 1.416 4.578 1.445c1.008.015 9.047 3.91 10.092 2.407s-5.372-7.264-5.577-8.145c-.408-1.762-1.164-2.82-2.207-4.309-1.276-1.821-1.66-2.819-1.222-6.607.08-.702.426-1.954.591-2.826.143.84.454 1.84 1.348 2.687 1.083 1.025 2.451 1.257 3.252 1.266s1.304-.109 1.752-.2h.002c12.849-2.602 39.53-1.357 57.195 2.965 12.048 2.948 22.803 8.793 28.143 14.703 2.308 2.555 3.36 4.031 5.635 5.19 1.137.58 3.404.81 4.877-.072a5 5 0 0 0 1.37-1.2c-1.445 4.538-2.914 8.824-3.173 9.329-1.135 2.21-3.083 4.637-4.98 6.334-1.705 1.524-3.614 2.207-3.684 2.33h.006c.008 0 .022.01.045.01-1.258 0-2.427.162-3.577.625s-2.43 1.284-3.142 2.898-.298 3.715.545 4.916 1.89 1.868 3.031 2.397h.022c1.805.832 2.535.652 3.974.742 1.445.091 3.206.124 5.242.117 4.073-.014 9.226-.195 14.62-.49 10.787-.59 22.284-1.576 28.273-2.813 6.074-1.254 18.863-4.687 28.969-7.742a52438 52438 0 0 0 41.898-12.691c28.502-8.649 41.236-10.33 73.266-9.67 6.671.138 12.732.183 17.164.144 2.216-.019 4.014-.057 5.336-.12.66-.033 1.186-.066 1.693-.128.254-.03.476-.053.899-.166.21-.057.461-.102.99-.398.144-.081.383-.319.582-.475.29 1.11.74 2.572.74 2.998 0 1.958-.498 3.351-2.488 5.471s-5.58 4.68-11.065 7.703c-1.837 1.013-3.239 1.791-4.322 2.442-1.083.65-1.716.8-2.83 2.19a4 4 0 0 0-.855 1.73c-.213.9-.024 2.312.578 3.21 1.204 1.797 2.28 1.72 2.87 1.84 1.182.242 1.907.19 2.964.196 5.36.032 11.51-2.813 19.597-7.168s17.584-10.437 27.211-17.545c33.185-24.504 50.703-34.813 71.11-42.024a411 411 0 0 0 6.707-2.43c.894-.334 1.642-.619 2.214-.847.287-.114.526-.213.749-.31.222-.098.053.162 1.062-.592.875-.654 1.456-1.794 1.596-2.627a4.2 4.2 0 0 0-.084-1.836c-.218-.868-.498-1.328-.791-1.819-.586-.98-1.326-1.927-2.315-3.109-.07-.083-.24-.25-.312-.336l10.031 10.047.01 4.633c0 2.905.147 3.09-1.084 4.879s-4.372 4.976-10.541 10.93c-3.563 3.437-6.66 6.56-8.834 8.878-1.087 1.16-1.929 2.1-2.559 2.883-.315.392-.561.68-.888 1.268-.164.294-.463.515-.555 1.804-.046.645.056 1.875.994 2.922s2.253 1.313 2.946 1.313c1.409 0 2.164-.359 3.029-.725s1.741-.825 2.687-1.375c1.893-1.099 4.051-2.559 6.336-4.242 4.57-3.367 9.589-7.593 13.328-11.484 4.718-4.91 13.723-16.931 20.903-27.635a835 835 0 0 1 9.87-14.403c2.822-4.014 5.257-7.232 5.473-7.472l2.809-3.115q.043-.126.078-.254c.05.168.12.31.17.486l1.623 5.848c.989 3.557 5.912 3.868 7.34.463l1.988-4.747c2.33-5.56 3.9-9.304 3.067-13.535-.834-4.23-3.76-7.017-7.967-10.937-11.013-10.263-27.19-20.73-52.98-34.51-41.125-21.972-71.342-40.271-90.338-57.884-5.36-4.97-10.188-7.868-15.342-11.746-3.682-2.771-4.477-6.234-9.659-8.06-.485-.17-.072-1.058-1.423-.867-.676.096-23.41-23.226-25.386-21.703-.397.306 22.367 23.832 22.206 24.248-1.78-1.782-3.278-3.187-5.326-5.353-7.715-8.159-16.808-18.492-23.414-26.89-14.463-18.387-31.948-43.188-43.784-62.1-5.133-8.203-12.963-22.436-19.751-35.551-3.395-6.558-6.538-12.848-8.971-17.983s-4.192-9.313-4.631-10.783c-.506-1.694-1.03-3.303-1.86-4.724l-2.341.6c-1.751-3.411-44.787-14.925-63.303-11.626zm38.374 19.885h.002c.005.008.124.288.197.445-.212-.235-.206-.42-.2-.445m158.66 176.93c.024.006.09.064.16.23-.041-.057-.153-.196-.166-.217v-.012zm-26.752 17.86c.044.032.18.148.248.2-.178-.084-.212-.154-.248-.2m13.181 12.157c2.124 2.022 3.564 3.34 6.098 5.787 11.879 11.468 27.958 27.305 45.348 44.721l24.029 24.065c-4.656-4.413-9.32-8.833-14.908-14.006-14.18-13.125-30.241-28.893-43.617-42.62-6.464-6.633-12.247-12.778-16.95-17.947"/><path fill="url(#D)" d="m831.016 1127.654-10.993 3.315c-16.664 5.025-17.862 5.162-40.939 5.177-9.655.01-14.618 0-17.727-.187-3.108-.183-4.34-.487-7.332-1.232a78 78 0 0 0-4.775-1.047 26 26 0 0 0-1.793-.274 9 9 0 0 0-.816-.057c-.301 0-.503-.15-1.55.252-.659.253-1.503.936-1.888 1.754a3.4 3.4 0 0 0-.293 1.994c.136.913.378 1.174.531 1.422.307.496.517.706.764.973.494.534 1.094 1.096 1.854 1.777 1.52 1.362 3.638 3.124 6.064 5.031 15.405 12.11 21.634 18.123 26.15 24.93 2.004 3.019 3.958 6.284 5.377 8.906.71 1.311 1.288 2.469 1.657 3.301.368.832.387 1.83.379.676.002.206 0 .417.023.715s-.107.607.465 1.654c.286.523 1.01 1.403 2.17 1.711s2.15-.069 2.642-.35c.985-.56 1.076-.893 1.291-1.181.862-1.153 1.492-2.431 3.078-5.317 10.046-18.273 26.455-31.235 51.065-39.947 1.58-.56 2.741-1.015 3.728-1.553.494-.269.937-.4 1.674-1.326.369-.463.965-1.397.772-2.767-.194-1.37-1.228-2.302-1.836-2.637-.886-.489-.92-.406-1.469-.6-.55-.193-1.251-.43-2.078-.7a328 328 0 0 0-6.059-1.915h-.002l-8.154-2.494a3.4 3.4 0 0 0-1.98 0z"/><path fill="url(#E)" d="M744.32 1136.74c-.23-.03-.47 0-.683.09l-294.903 126.25a322135 322135 0 0 0-208.795 89.465 76170 76170 0 0 0-63.92 27.447c-7.593 3.267-26.359 10.35-30.42 12.107a1516 1516 0 0 0-4.669 2.025q-.804.35-1.24.543-.22.098-.346.156c-.058.027-.11.042-.253.125-.52.3-.92.485-1.319.95a1.5 1.5 0 0 0-.357.814c-.032.325.08.584.213.806.132.223-8.83 3.28-8.577 3.41.528.271 10.064-2.709 10.188-2.722 1.04-.109 2.772-.592 6.078-1.58 6.616-1.978 31.937-10.524 53.507-17.542a543911 543911 0 0 0 397.192-129.398 193263 193263 0 0 0 138.28-45.162c16.925-5.537 30.325-9.93 39.509-12.95a4598 4598 0 0 0 10.529-3.472q1.801-.597 2.734-.912.464-.157.717-.245l.205-.074h.002l.086-.033h.002c.12-.05.085-.043.113-.06l.092-.056.084-.053c.011-.01.02-.013.028-.018.004 0 .007 0 .01-.01h.01c.003 0 .042-.033.043-.033h.004c.484-.425.555-1.003.556-1.338a3.8 3.8 0 0 0-.144-.99c-.171-.655-.466-1.402-.858-2.27-.784-1.736-1.968-3.937-3.36-6.288-2.78-4.702-6.34-9.952-9.118-12.993-3.237-3.54-11.304-10.622-18.176-16.003l-12.408-9.715a1.3 1.3 0 0 0-.635-.264z"/><path fill="#fff" d="M1304.752 99.408c-.517-.037-.944-.014-1.314.004-1.688.08-3.919.954-7.773 2.34-4.836 1.738-29.327 13.16-36.827 16.469-15 6.617-34.006 15.774-51.316 24.959-18.274 9.695-55.52 32.458-83.147 50.789-38.975 25.86-59.13 42.251-89.336 72.654-105.71 106.4-167.489 223.45-167.562 319.299-.03 37.907 6.84 62.649 23.189 81.75v.002l11.1 12.967a2.96 2.96 0 0 0 2.263 1.035l43.051-.233c20.878-.113 44.158 3.46 44.158 3.46s27.12-23.726 48.03-43.27c8.55-8.236 19.631-19.504 31.312-31.773 23.362-24.54 46.877-54.96 61.643-69.217 56.035-54.103 168.17-251.215 165.054-253.23l50.08-84.232s26.009-50.696 32.292-90.819c.086-.552-.814.254-1.06.383-.493.258-.84.515-1.25.832-.824.634-1.807 1.499-3.03 2.633-2.445 2.269-15.572 16.267-19.627 20.427-8.111 8.32-19.032 19.99-30.84 33.037-110.878 122.508-173.674 184.17-251.242 246.738-11.763 9.489-23.783 18.673-33.637 25.8-9.854 7.125-17.976 12.329-20.3 13.3-7.664 3.202-13.301 3.682-16.352 2.543-1.526-.57-2.515-1.42-3.297-2.842s-1.293-3.507-1.293-6.324c0-4.33 2.028-12.076 5.789-21.498s9.188-20.646 15.74-32.637c13.104-23.982 30.713-51.064 48.522-73.41 40.303-50.574 141.17-145.859 204.757-193.33 4.84-3.613 26.617-15.888 29.637-18.554 1.51-1.332 2.702-2.46 3.576-3.425.437-.483.791-.893 1.135-1.475.172-.29.367-.612.494-1.244s.058-1.97-.846-2.875c-.674-.675-1.254-.997-1.771-1.033zM888.768 608.28c1.954-.145 5.352.872 9.697 3.719 9.73 6.376 17.344 23.224 17.344 40.7 0 6.06-.514 9.305-.965 10.087-.226.391-.217.394-.768.57-.55.176-1.685.309-3.34.309-6.038 0-12.876-4.958-18.152-13.229s-8.848-19.546-8.848-30.773c0-4.262.69-7.31 1.627-9.023.938-1.715 1.776-2.239 3.405-2.36"/><path fill="#e6d5d9" d="M1426.992 797.547c-48.295-2.821-129.894 17.44-267.4 98.281-29.725 17.788-160.4 94.896-239.574 123.844-57.789 20.123-121.867 34.424-183.051 39.225-21.809 1.323-43.824 1.22-65.768 1.623-244.148 2.923-213.435-108.708-124.482-155.165 71.736-34.345 155.612-53.46 235.86-59.484 6.943-.505 12.873-1.15 13.179-1.433 3.055-2.841-212.083-2.627-298.633 83.472-77.77 77.365 9.451 156.898 222.72 141.819 9.843-.696 22.18-2.192 33.266-3.713 60.41-6.877 119.906-19.573 176.727-41.528 73.626-28.937 129.455-58.834 191.838-95.896l18.076-11.918c77.07-50.816 173.218-97.343 216.508-104.772 20.771-3.563 96.428-8.235 118.963 8.744 6.658 5.017 12.258 14.24 14.855 24.465 1.302 5.128 2.758 9.715 3.236 10.194 1.726 1.725 3.74-6.807 2.858-12.108-.04-.241-7.083-42.023-69.178-45.65m-17.336 2.857c5.038-.075 3.554 2.243 9.582 2.744 12.057 1.002 41.32 6.565 41.32 6.565-14.672-2.534-29.34-5.068-41.36-6.067-10.175-.845-28.732 1.045-34.192 1.645 6.04-.908 20.07-4.818 24.65-4.887" overflow="visible"/><path fill="url(#F)" d="M1417.535 796.797c-49.412.196-129.247 22.789-258.197 98.6v.001c-16.67 9.976-27.338 16.316-34.244 20.274-6.906 3.957-135.401 77.994-205.24 103.53-57.75 20.109-121.792 34.402-182.926 39.198-21.783 1.322-43.786 1.22-65.734 1.623-61 .73-104.807-5.7-134.785-16.449s-46.095-25.79-51.89-42.281c-5.797-16.49-1.314-34.533 10.2-51.398 11.511-16.862 30.046-32.504 52.215-44.084l.01-.004.002-.002h.002l.002-.002c71.661-34.307 155.476-53.41 235.664-59.43 3.477-.253 6.699-.54 9.096-.8a73 73 0 0 0 2.91-.364q.54-.082.877-.156c.112-.026.207-.052.295-.08.088-.03.155-.028.305-.167a.6.6 0 0 0 .187-.49.58.58 0 0 0-.244-.408c-.177-.13-.317-.16-.504-.207-.374-.094-.906-.167-1.633-.234-1.453-.136-3.656-.237-6.543-.286v-.004c-5.774-.098-14.273.013-24.828.497-21.11.966-50.436 3.42-82.57 8.654-64.268 10.468-139.77 32.033-183.192 75.228-19.505 19.405-28.725 39.008-28.146 57.287.579 18.28 10.971 35.153 30.43 49.05 38.916 27.792 114.125 43.878 220.826 36.333 9.863-.697 22.207-2.193 33.299-3.715h-.012c60.442-6.88 119.98-19.582 176.85-41.556h.003c73.572-28.917 129.39-58.794 191.698-95.805l.016.006.238-.158 18.06-11.906c38.515-25.394 81.803-49.723 120.864-68.625 39.06-18.903 73.919-32.378 95.453-36.073 10.322-1.77 34.434-3.832 58.727-3.324s48.816 3.66 59.851 11.975c6.53 4.92 12.1 14.06 14.672 24.19a127 127 0 0 0 1.936 6.868c.295.93.564 1.715.794 2.309q.173.445.319.746c.098.201.162.344.318.5.306.306.788.45 1.178.31s.653-.44.893-.808c.48-.736.863-1.838 1.175-3.16.624-2.644.917-6.13.46-8.885-.034-.201-1.824-10.777-11.436-21.803-9.612-11.025-27.05-22.445-58.207-24.265a152 152 0 0 0-9.479-.25zm-.01 1.002h.014q4.91-.018 9.42.248c30.937 1.807 48.068 13.091 57.512 23.924 9.443 10.832 11.194 21.268 11.201 21.308.424 2.547.15 5.976-.443 8.492-.297 1.259-.686 2.298-1.041 2.842-.178.273-.348.397-.395.414-.015.005-.024.013-.029.016v-.002a1 1 0 0 1-.084-.082v-.006c-.012-.022-.076-.111-.135-.232a9 9 0 0 1-.285-.67 40 40 0 0 1-.773-2.25 126 126 0 0 1-1.92-6.813c-2.622-10.322-8.254-19.627-15.04-24.74-11.5-8.665-36.07-11.668-60.433-12.178-24.362-.51-48.464 1.547-58.914 3.34-21.756 3.733-56.618 17.236-95.72 36.158-39.104 18.923-82.423 43.266-120.98 68.688 0 0-136.543 78.97-209.827 107.773-56.771 21.935-116.223 34.624-176.6 41.496h-.012c-11.08 1.52-23.411 3.017-33.232 3.711-106.569 7.535-181.606-8.606-220.174-36.15-19.284-13.773-29.445-30.347-30.012-48.268s8.475-37.27 27.854-56.549c43.128-42.903 118.47-64.496 182.644-74.949 32.088-5.227 61.383-7.675 82.457-8.64 10.537-.483 19.02-.594 24.764-.497v-.006c2.449.042 4.122.137 5.516.24-.435.054-.735.1-1.256.157-2.38.259-5.596.547-9.063.799-80.3 6.028-164.23 25.151-236.039 59.531l-.008.004-.008.004c-22.3 11.647-40.957 27.376-52.59 44.416s-16.245 35.435-10.32 52.293c5.925 16.859 22.346 32.08 52.496 42.89 30.15 10.812 74.06 17.24 135.135 16.509h.004c21.936-.403 43.958-.298 65.789-1.623h.008c61.234-4.804 125.348-19.114 183.176-39.25h.008c70.085-25.625 199.803-100.408 205.384-103.606 6.92-3.965 17.586-10.306 34.256-20.281v-.002c128.87-75.764 208.582-98.259 257.695-98.459m-7.88 2.105c-2.426.036-7.043 1.04-11.882 2.14s-9.863 2.306-12.835 2.753l.128.99.02-.002c5.465-.6 24.02-2.476 34.076-1.64 11.983.995 26.64 3.524 41.31 6.058l.01.002.179-.982-.01-.002-.04-.006c-.083-.016-29.201-5.557-41.325-6.565-2.948-.245-3.927-.881-4.938-1.513-1.011-.633-2.098-1.272-4.693-1.233m.015 1c2.443-.036 3.133.447 4.147 1.08.603.378 1.46.766 2.58 1.104-7.507-.289-16.156.322-23.295.98 1.767-.4 3.061-.632 4.892-1.048 4.831-1.1 9.52-2.084 11.676-2.116" overflow="visible"/><path d="M920.652 1498.642c-.462-.747.17-13.797 1.403-29 3.696-45.566 1.682-115.762-5.326-185.642a9214 9214 0 0 1-3.404-34.667c-1.963-20.528-8.82-68.975-11.466-81l-2.127-9.666-12.866-.03c-16.377-.036-23.117-2.651-25.508-9.894-.88-2.67-1.265-5.728-.855-6.798.489-1.272-.106-1.945-1.72-1.945-3.56 0-27.643 8.91-35.2 13.023-8.276 4.504-21.426 18.572-25.914 27.722-4.242 8.65-4.24 8.65-45.002 21.722-32.145 10.308-201.244 65.075-284.667 92.197a362044 362044 0 0 1-184.667 59.924c-72.6 23.54-139.2 45.155-148 48.032-17.344 5.671-33.445 9.046-33.445 9.046s11.992-6.267 35.594-17.509 58.814-27.458 105.255-47.356c509.431-218.271 500.794-214.632 506.21-213.32 2.779.674 13.604 1.608 24.055 2.076 17.986.806 19.75.653 33-2.86 7.699-2.04 13.981-4.382 13.96-5.203s-3.433-3.55-7.583-6.063c-7.085-4.29-7.631-4.42-8.962-2.117-2.839 4.913-6.169 7.353-10.034 7.353-5.938 0-17.424-4.738-25.928-10.695-4.165-2.918-8.078-5.305-8.694-5.305s-2.009 1.355-3.094 3.012c-1.086 1.656-3.494 3.825-5.353 4.82-2.954 1.58-4.464 1.447-12.013-1.065-9.56-3.181-22.262-10.353-28.087-15.856-5.237-4.95-10.374-14.038-10.462-18.51-.115-5.885 4.141-15.068 6.985-15.068 2.343 0 2.335.252-.2 5.985-3.66 8.273-1.76 15.344 6.093 22.682 9.336 8.723 32.565 21.25 34.96 18.854.476-.476-.538-2.358-2.252-4.182-2.64-2.81-3.093-4.62-2.963-11.825.158-8.731 3.222-24.357 5.674-28.938 1.762-3.293 5.749-3.496 4.743-.242-.397 1.283-1.97 7.733-3.497 14.333s-3.047 12.936-3.378 14.079c-.448 1.547 1.083 2.51 5.98 3.766 3.621.928 10.975 4.725 16.343 8.439 9.685 6.7 16.788 10.383 20.027 10.383.927 0-.503-1.487-3.178-3.305-5.455-3.707-8.515-10.752-7.137-16.433.48-1.978 3.24-11.177 6.136-20.443 4.357-13.943 5.77-16.979 8.196-17.613 1.613-.422 3.162-.538 3.441-.259.6.6-4.777 17.88-9.22 29.635-1.715 4.537-2.83 8.535-2.478 8.884s3.34.114 6.64-.524c15.128-2.924 44.123-.464 62.743 5.322 10.663 3.313 21.924 10.788 25.574 16.974 1.996 3.384 3.045 4.187 3.771 2.89 2.05-3.663 12.198-42.49 16.599-63.508 4.916-23.478 5.184-24.287 8.058-24.287 2.615 0 2.453 2.436-1.472 22.226-4.307 21.708-5.9 27.998-14.125 55.774-5.47 18.467-7.48 23.47-10.859 27-2.707 2.83-5.416 4.333-7.805 4.333-4.823 0-5.98 2.13-2.243 4.13 3.819 2.043 37.598.675 51.484-2.085 5.35-1.064 20.65-5.35 34-9.524 47.045-14.71 52.367-16.293 62.275-18.535 12.08-2.734 52.928-4.141 64.666-2.229 4.4.717 8.272 1.044 8.603.727 1.143-1.096-9.458-20.892-24.802-46.315-15.839-26.242-43.134-79.027-43.134-83.414 0-1.358.816-2.782 1.813-3.165 1.262-.484 4.944 5.658 12.106 20.19 13.167 26.721 27.508 53.292 41.497 76.887 12.57 21.203 19.88 37.978 18.662 42.832-.951 3.79-9.228 10.162-19.411 14.945-6.674 3.135-7.007 3.487-3.7 3.92 10.918 1.425 27.613-7.189 55.033-28.397 14.47-11.192 32.924-23.42 42.95-28.458 11.305-5.682 27.884-12.175 31.085-12.175 1.447 0 2.632-.85 2.632-1.89 0-3.05-18.877-22.262-44.667-45.461-13.2-11.874-30.854-28.722-39.232-37.44-17.28-17.984-34.768-37.703-34.768-39.207 0-.555.811-1.682 1.803-2.505 1.421-1.18 4.45 1.237 14.333 11.438 40.566 41.871 62.538 63.932 78.323 78.641 9.786 9.119 22.104 21.194 27.374 26.835 9.426 10.088 9.574 10.357 9.08 16.508-.533 6.64-.07 6.087-21.324 25.526-6.942 6.35-7.17 8.415-.555 5.04 16.077-8.201 27.873-20.663 44.377-46.88 5.287-8.4 11.139-16.916 13.004-18.925s3.134-3.873 2.821-4.143c-3.657-3.15-38.26-25.794-53.236-34.839-22.804-13.772-27.682-17.17-48.084-33.495-23.64-18.915-44.265-38.054-42.698-39.62 1.591-1.593.217-2.628 26.095 19.658 27.563 23.737 41.804 34.077 70.962 51.522 27.76 16.609 38.296 23.416 46.687 30.161 4.868 3.914 5.748 5.429 6.516 11.217.488 3.681 1.392 6.189 2.008 5.573 1.318-1.318 6.514-16.044 6.514-18.46 0-2.719-13.188-14.748-25.333-23.107-6.234-4.29-20.722-12.654-32.196-18.586-22.214-11.485-42.181-23.102-58.47-34.02-12.602-8.445-36.377-28.846-36.377-30.482 0-1.745 5.847 3.4 9.058 7.003 2.614 2.935 40.411 28.3 55.985 37.571 4.4 2.62 16.217 8.826 26.26 13.793l18.26 9.03 11.74-3.547c6.457-1.951 26.74-8.534 45.073-14.63l33.333-11.081.779-7.933c.874-8.911 3.156-13.929 9.215-20.267 5.515-5.768 10.397-8.14 21.544-10.464 10.259-2.139 22.676-.264 32.664 3.137 6.772 2.306 8.772 5.149 2.666 3.792-13.74-3.055-22.63-5.01-30.868-4.487-10.347.658-15.627 2.887-23.338 9.854-6.147 5.553-8.56 11.878-7.324 19.197.795 4.703 1.32 5.306 4.616 5.306 2.046 0 4.858 2.972 5.77 4.072 1.43 1.723 1.103 1.888-2.377 1.192-2.727-.546-7.176-1.798-12.888.454-4.652 1.834-25.109 8.626-45.459 15.094s-37 12.188-37 12.71 3.265 2.817 7.255 5.1l7.254 4.15 40.412-12.849c29.363-9.335 40.881-15.352 42.493-17.4 2.21-2.81 2.219-2.807 2.666 1.1.412 3.592 1.474 5.964 11.254 9.41 9.2 3.243 12.145 3.682 21.417 3.193 12.204-.643 16.981-2.624 24.53-10.174 6.64-6.639 9.116-16.35 6.442-25.253-2.404-8-5.27-9.65-9.637-5.546-2.88 2.705-3.323 4.181-3.06 10.18.258 5.89-.228 7.59-3.026 10.585-6.833 7.316-14.086 8.841-27.923 5.874-8.602-1.845-17.907-10.352-19.27-17.618-1.81-9.642 4.584-16.017 18.322-18.268 8.212-1.346 19.882 1.273 19.882 4.256 0 1.351-.745 1.691-2.333 1.065-1.284-.505-7.156-1.88-11-2.289-8.033-.853-18.21 2.308-20.36 6.324-3.504 6.549.518 16.683 8.29 20.882 2.503 1.352 24.698 6.201 31.172-1.318 2.568-2.983 3.22-5.239 3.22-11.132 0-6.549.472-7.832 4.141-11.26 13.816-12.905 19.411 14.363 13.322 27.466-2.95 6.35-11.22 14.573-16.796 16.702-12.054 4.602-26.547 3.831-41.662-2.216l-8.398-3.36-24.303 7.51c-38.702 11.96-52.97 17.31-52.97 19.861 0 .827 3.044 4.124 6.764 7.327 3.719 3.203 7.734 7.861 8.922 10.352 2.04 4.28 1.997 5.033-.786 13.674-1.62 5.03-4.762 11.653-6.982 14.718-4.33 5.976-6.132 6.216-13.183 1.755-2.064-1.305-3.438-1.547-3.735-.658-.258.775-3.589 6.692-7.401 13.15-8.955 15.168-28.742 35.516-40.453 41.599-10.854 5.638-15.065 5.523-21.84-.597l-5.368-4.85-9.468 4.364c-5.207 2.4-17.32 7.516-26.92 11.369-9.598 3.852-17.635 7.556-17.86 8.23s2.703 6.29 6.506 12.48c43.501 70.816 63.518 107.762 84.476 155.923 19.625 45.101 43.22 114.84 50.523 149.334 4.424 20.895 6.751 39.92 5.086 41.585-1.758 1.758-1.907 1.428-7.487-16.528-2.668-8.585-7.575-22.085-10.906-30-3.33-7.915-8.043-19.49-10.472-25.724-8.151-20.918-31.48-72.49-41.315-91.333-34.15-65.428-36.447-69.343-69.64-118.663-23.437-34.823-31.697-46.286-39.631-54.995-4.54-4.984-5.863-5.676-10.86-5.676-5.907 0-10.746-3.299-15.35-10.466-1.851-2.881-2.44-3.02-7.317-1.732-10.254 2.71-42.94 5.645-71.94 6.46-24.61.692-30.802 1.283-38.666 3.69L934 1152.82l.361 6.59c.391 7.136 3.33 37.18 5.73 58.591.822 7.334 1.807 39.734 2.189 72 1.013 85.67-3.658 147.369-14.562 192.334-4.09 16.866-5.175 19.369-7.066 16.309zm-767.457-105.405c11.668-3.732 89.208-28.974 159.472-51.912 15.4-5.027 96.4-31.43 180-58.674s184.586-60.156 224.413-73.138l72.414-23.604 3.726-6.814c9.925-18.148 29.302-33.07 52.447-40.388 2.75-.87 5-1.776 5-2.014s-4.215-1.714-9.367-3.278l-9.367-2.845-13.633 4.21c-12.005 3.707-16.022 4.286-33.633 4.845-15.24.485-22.105.142-28.842-1.439l-8.842-2.074-24.491 10.485c-13.47 5.766-149.592 64.009-302.492 129.427l-287.394 123.894s14.16-4.624 20.59-6.681m720.89-251.936c3.281-1.247 3.528-1.832 2.865-6.777-1.144-8.531-3.013-8.898-4.913-.963-.585 2.442-1.496 5.489-2.026 6.772-1.12 2.715-.752 2.803 4.074.968m136.582-2.033c14.644-.93 40.947-4.205 42.756-5.323.7-.433.314-2.542-.894-4.878l-2.128-4.114-11.665.828c-12.182.865-35.449 6.354-51.403 12.128l-9.333 3.377 10-.606c5.5-.334 15.7-.97 22.667-1.412m67.776-3.822c13.032-6.563 13.958-8.2 5.232-9.248-3.854-.463-11.122-.847-16.15-.853-10.207-.013-10.155-.125-4.256 9.22 1.887 2.99 4.039 5.435 4.781 5.435.743 0 5.42-2.05 10.393-4.554m-212.562-10.29c.104-4.885-.4-5.92-3.881-7.97-7.476-4.401-27.303-9.21-41.578-10.083-13.258-.811-13.755-.743-13.755 1.896 0 3.262 4.218 5.922 20.385 12.852 13.36 5.727 35.683 11.702 37.496 10.036.668-.613 1.268-3.643 1.333-6.73m293.175-11.6c4.72-2.14 8.945-4.478 9.389-5.196s-.647-2.671-2.424-4.34l-3.23-3.036-14.694 10.508c-8.082 5.78-14.71 10.884-14.729 11.343-.044 1.054 14.426-4.173 25.688-9.279m-359.232-2.772c.837-2.502 1.31-4.76 1.053-5.019-1.09-1.09-14.701 1.708-15.172 3.12-.604 1.81 10.516 8.815 11.757 7.405.462-.526 1.525-3.004 2.362-5.506m405.843-16.434c3.483-3.647 6.333-7.845 6.333-9.327 0-2.413-.664-2.631-6.333-2.081-5.852.567-31.353 10.378-34.28 13.188-.801.77 1.655 4.193 6.58 9.169l7.857 7.94 6.755-6.128c3.715-3.37 9.604-9.113 13.088-12.76m-453.82 13.556c-2.139-1.323-3.113-.621-1.888 1.36.49.795 1.515 1.06 2.276.59.895-.555.759-1.242-.387-1.95m507.114-51.573c1.106-4.264-.397-6.112-2.514-3.09-1.868 2.667-1.457 5.424.81 5.424.604 0 1.371-1.05 1.704-2.334m-549.903 1.334c.535-1.284 5.225-10.757 10.423-21.053 11.114-22.013 21.219-38.354 39.546-63.947 12.5-17.457 21.496-29.246 67.659-88.667 52.468-67.538 70.344-93.799 83.047-122 3.633-8.067 6.664-16.767 6.735-19.333.222-8.025-12.685-24.243-29.162-36.645-5.485-4.128-9.973-8.4-9.973-9.496 0-1.179 4.216-3.963 10.334-6.824 5.683-2.658 10.598-5.043 10.922-5.3.323-.258-2.476-3.603-6.22-7.435-15.138-15.49-25.758-41.333-28.201-68.626-1.242-13.876.379-44.23 3.258-61.007 7.797-45.428 23.864-87.945 50.137-132.667 34.198-58.214 67.204-101.523 113.648-149.126 43.162-44.24 129.056-103.77 194.68-134.926 27.375-13 82.452-34.617 88.193-34.617 4.785 0 .848 4.505-11.754 13.446-25.602 18.168-71.465 54.488-97.956 77.575-28.917 25.201-116.703 113.903-132.925 134.312-32.298 40.633-63.076 92.402-69.423 116.772-2.66 10.209-2.56 14.334.41 17.022 4.883 4.42 12.794 1.456 30.44-11.402 30.74-22.396 38.513-28.446 56.454-43.934 76.009-65.614 161.346-150.6 229.374-228.429 18.268-20.9 56.555-61.238 60.704-63.957 3.03-1.985 3.256-1.97 3.256.23 0 3.885-10.056 36.001-16.408 52.407-14.468 37.366-34.143 75.466-72.962 141.291-7.135 12.1-14.318 24.667-15.962 27.927-8.175 16.215-47.166 77.73-90.465 142.723-19.72 29.6-75.477 101.942-91.475 118.684-4.555 4.766-10.517 11.366-13.248 14.666-7.164 8.655-48.178 47.635-67.24 63.907-8.962 7.649-15.831 14.307-15.267 14.795.565.489 6.244 2.257 12.62 3.93 11.903 3.123 19.74 6.877 19.74 9.456 0 .803-6.394 7.562-14.21 15.02-17.884 17.066-32.886 36.04-31.677 40.068 2.296 7.65 16.657 36.575 25.076 50.507 5.213 8.625 12.478 20.672 16.144 26.77 3.667 6.099 9.543 14.942 13.059 19.651 9.002 12.06 40.507 46.015 55.259 59.555 6.825 6.266 15.942 14.225 15.597 14.57-.883.882-10.214-6.19-22.684-18.016-21.013-19.926-19.734-17.25 3.216 6.73 6.112 6.387 10.72 12.248 10.24 13.025-3.31 5.355-47.774-47.444-74.644-88.634-23.496-36.018-44.71-77.363-44.71-87.136 0-7.484 19.508-30.38 36.412-42.736 4.26-3.113 7.52-6.366 7.245-7.228-2.773-8.696-105.904-22.964-139.55-4.957-3.22 1.723-3.211 1.737 6.001 9.822 14.924 13.097 21.571 20.356 25.198 27.513 3.868 7.633 3.854 7.77-2.686 26.847-9.433 27.519-16.657 42.979-32.597 69.764-5.71 9.594-14.134 24.644-18.721 33.444-12.48 23.941-23.283 42.7-45.396 78.822-27.684 45.22-41.71 70.13-51.342 91.178-4.838 10.574-9.1 18.172-10.331 18.418-1.705.34-1.889-.281-.99-3.333 4.406-14.952 22.326-49.72 43.857-85.085 36.659-60.216 50.426-83.728 60.896-104 6.438-12.467 12.892-24.648 14.34-27.07 6.444-10.769.332-3.465-15.669 18.724-9.533 13.22-26.033 34.806-36.666 47.968-55.711 68.962-83.355 108.98-104.452 151.21-3.996 7.998-6.725 11.168-9.614 11.168-.283 0-.077-1.05.457-2.333M920 680.132c6.889-.755 22.819-.778 40.62-.057 27.454 1.112 29.455 1.033 32-1.254 1.492-1.342 6.313-4.854 10.713-7.805 26.955-18.077 93.587-85.472 126.896-128.35 44.052-56.705 128.636-185.978 160.926-245.95 3.568-6.627 13.422-24.35 21.898-39.383 33.04-58.602 51.516-99.053 65.01-142.333.286-.917 0-1.667-.627-1.667-1.14 0-36.697 38.427-70.9 76.62-97.945 109.374-172.893 181.426-252.844 243.074-28.604 22.057-37.163 26.973-46.957 26.973-8.73 0-11.34-3.41-10.472-13.683 1.48-17.513 26.65-65.02 57.538-108.599 33.449-47.192 111.539-125.39 178.881-179.126 43.47-34.688 54.718-43.433 64.297-49.99 5.305-3.631 9.087-6.791 8.404-7.023-3.798-1.287-49.579 17.836-82.716 34.552-41.805 21.088-76.574 42.342-120.032 73.374-10.65 7.606-22.679 16.067-26.729 18.804-8.247 5.572-52.703 49.814-72.802 72.45-34.29 38.621-74.33 96.016-94.346 135.241-30.715 60.192-45.47 122.06-40.791 171.036 2.66 27.838 12.562 51.249 28.171 66.603 5.017 4.935 9.888 8.694 10.825 8.354s6.804-1.177 13.037-1.86m-14.063-15.314c-5.616-2.482-14.967-13.358-19.044-22.151-4.442-9.58-5.738-27.495-2.362-32.647 5.423-8.277 19.296.509 27.672 17.524 5.431 11.032 8.083 29.444 5.027 34.906-2.327 4.16-5.66 4.858-11.293 2.368m59.82-1.434c-9.27-4.033-8.422-18.038 2.023-33.384 8.617-12.662 18.897-20.263 34.043-25.174 22.626-7.337 40.117-2.678 32.656 18.243-5.843 16.385-17.24 29.662-30.98 36.094-12.796 5.99-29.405 7.847-37.741 4.22m-167.156 378.283c2.74-9.29 18.065-41.93 37.718-80.334 48.792-95.34 55.822-111.075 74.46-166.666 6.516-19.434 11.856-34.81 11.867-34.168.1 5.775-7.995 37.845-13.873 54.954-11.917 34.69-23.423 60.192-58.902 130.547-18.49 36.667-36.427 73.267-39.86 81.333-6.705 15.755-8.046 18-10.748 18-1.275 0-1.453-.984-.662-3.666m109.44-26c.023-2.384.635-8.834 1.36-14.334s3.993-34 7.261-63.333c5.201-46.684 7.87-72.249 14.054-134.667 2.042-20.61 5.42-43.632 6.748-46 2.039-3.634 1.788.644-4.22 72-3.703 43.993-15.583 157.399-18.637 177.927-1.327 8.916-2.96 12.74-5.437 12.74-.643 0-1.151-1.95-1.129-4.333m101.48-58c-20.247-50.862-33.728-98.361-44.938-158.334-3.31-17.715-5.695-46.332-3.443-41.333.661 1.467 3.763 15.867 6.894 32 12.008 61.869 24.959 108.17 44.497 159.082 4.872 12.696 8.51 23.646 8.085 24.334-2.241 3.625-4.864-.098-11.094-15.75M1070.327 933c-26.652-31.726-51.592-73.666-70.412-118.409-7.01-16.667-14.622-37.882-14.533-40.508.06-1.744 7.84 14.672 14.139 29.834 16.809 40.455 44.389 87.494 69.379 118.331 10.225 12.617 12.706 17.752 8.58 17.752-.7 0-3.919-3.15-7.153-7"/><path fill="url(#G)" d="M984.846 520.441c-41.925.895-89.633 22.036-116.906 48.932-1.099 13.173-1.107 25.795.027 37.662 2.66 27.838 12.563 51.25 28.172 66.603 3.741 3.68 7.4 6.707 9.408 7.867l2.201-.318c3.118-.45 6.378-.757 11.274-.947q.486-.055.978-.108c6.889-.755 22.819-.779 40.62-.058l29.304.201h.002c1.27-.317 1.959-.795 2.693-1.455 1.493-1.342 6.315-4.854 10.715-7.805 12.913-8.66 34.93-28.637 58.03-51.816 4.022-8.508 6.36-17.408 5.687-26.205-4.14-54.095-40.28-73.448-82.205-72.553m36.08 81.15c12.019.397 18.682 7.094 13.553 21.477-5.843 16.385-17.24 29.664-30.98 36.096-12.796 5.989-29.404 7.844-37.741 4.218-9.271-4.032-8.423-18.036 2.022-33.382 8.617-12.662 18.897-20.263 34.043-25.174 7.07-2.293 13.64-3.415 19.103-3.235m-130.961 5.282c6.582-.223 15.956 7.91 22.238 20.672 5.431 11.032 8.083 29.444 5.028 34.906-2.327 4.16-5.659 4.857-11.293 2.367-5.616-2.482-14.968-13.36-19.045-22.152-4.442-9.58-5.738-27.494-2.362-32.647 1.356-2.069 3.24-3.072 5.434-3.146"/><path fill="url(#H)" d="M904.39 680.248c-3.792-2.49-13.649-12.792-17.318-18.1-8.548-12.365-14.972-29.267-17.683-46.524l-.764-4.862c24.55-52.648 164.806-98.538 172.323-.32 2.334 30.498-40.86 62.545-42.16 63.503l-8.131 5.938-34.295-.233c-28.447-.194-35.612-.044-42.02.883-4.248.615-7.748 1.116-7.777 1.114-.03-.003-1.009-.632-2.175-1.398zm11.457-15.703c3.177-2.984 3.773-8.9 1.951-19.348-2.89-16.569-11.056-30.648-21.13-36.426-9.878-5.665-15.361.376-14.165 15.604.964 12.273 4.186 20.623 11.514 29.845 8.912 11.215 16.874 14.98 21.83 10.325m77.162-1.252c7.054-2.01 13.543-5.045 18.786-8.786 9.476-6.762 18.141-18.398 22.376-30.049 1.85-5.086 2.173-6.878 1.956-10.843-.312-5.722-1.695-7.907-6.603-10.432-8.27-4.257-28.69-.473-42.505 7.875-16.96 10.249-30.02 31.466-27.532 44.73.677 3.61 4.137 7.264 8.085 8.539 4.664 1.506 18.497.944 25.437-1.034"/><path fill="#cdc0c7" d="M1243.668 1004.479c-.46-.268-1.435-1.046-2.17-1.731l-1.335-1.244 4.87-1.448c15.603-4.637 73.463-23.552 78.5-25.662 3.672-1.538 4.49-1.802 5.575-1.802 2.124 0 4.54 1.048 5.427 2.354 1.134 1.67.358 3.276-1.708 3.538-2.253.286-8.473 2.096-21.746 6.325-14.548 4.636-26.106 8.067-39 11.576-11.185 3.045-17.948 5.154-24.072 7.507-1.592.612-3.033 1.104-3.201 1.093s-.682-.239-1.14-.506m123.432-17.103c-4.998-.683-12.01-2.74-19.828-5.82-6.166-2.429-8.442-4.433-8.475-7.467-.039-3.562-2.9-6.57-7.665-8.061-8.074-2.525-5.641-17.574 8.197-25.87 5.559-3.333 14.07-5.002 26.463-4.202 4.048.261 4.687.433 4.705 1.262 0 .114-3.275.197-7.282.184-22.907-1.569-27.086 15.513-27.062 21.963.01 2.892.123 3.73.761 5.659 2.916 8.812 11.912 15.444 23.825 17.566 13.33 2.996 23.481-3.732 30.135-4.997 0 4.892-16.57 10.767-23.773 9.783"/><path fill="url(#I)" d="M1382.893 957.087c-1.734.634-4.735-.233-6.302-1.834-1.568-1.6-1.701-3.935-.9-6.57.8-2.634 2.533-5.568 4.934-7.836 2.402-2.267 5.47-3.868 8.404-5.035s5.736-1.9 8.303-1.934c2.568-.033 4.902.634 7.537.8s5.569-.166 11.805-3.435c6.235-3.268 15.772-9.47 24.343-15.54 8.57-6.068 52.917-66.763 55.367-66.033 7.917 2.361-36.856 57.337-40.428 61.332-3.561 3.983-7.837 7.503-12.672 11.438s-10.17 8.337-14.306 11.571-7.07 5.302-10.07 7.17c-3.002 1.867-6.07 3.535-8.437 4.635-2.368 1.1-4.035 1.634-5.903 1.367s-3.934-1.334-6.169-1.5c-2.234-.167-4.085 1.292-6.252 2.526-2.168 1.234-4.471 2.535-5.672 4.47s-1.848 3.775-3.582 4.408"/><ellipse cx="1514.776" cy="-446.33" fill-rule="evenodd" rx="1.032" ry="1.512" style="font-variation-settings:normal;-inkscape-stroke:none" transform="matrix(.62237 .78272 -.88054 .47397 0 0)"/><text xml:space="preserve" x="813.448" y="346.336" fill="#4d4d4d" stroke="#000" stroke-width="1.077" font-family="Red Hat Display" font-size="255.325" font-weight="700" style="-inkscape-font-specification:&quot;Red Hat Display Bold&quot;;text-align:start" transform="rotate(10.781)"><tspan x="813.448" y="346.336" fill="#fff">?</tspan></text><text xml:space="preserve" x="1250.399" y="417.593" fill="#4d4d4d" stroke="#000" stroke-width=".843" font-family="Red Hat Display" font-size="199.856" font-weight="700" style="-inkscape-font-specification:&quot;Red Hat Display Bold&quot;;text-align:start" transform="rotate(10.781)"><tspan x="1250.399" y="417.593" fill="#fff">?</tspan></text><text xml:space="preserve" x="804.207" y="533.708" fill="#4d4d4d" stroke="#000" stroke-width=".843" font-family="Red Hat Display" font-size="199.856" font-weight="700" style="-inkscape-font-specification:&quot;Red Hat Display Bold&quot;;text-align:start" transform="rotate(10.781)"><tspan x="804.207" y="533.708" fill="#fff">?</tspan></text></svg>