<?xml version="1.0" encoding="UTF-8" standalone="no"?>
<!-- Created with Inkscape (http://www.inkscape.org/) -->

<svg
   version="1.1"
   id="svg1"
   width="3000"
   height="3600"
   viewBox="0 0 3000 3600"
   xml:space="preserve"
   xmlns:xlink="http://www.w3.org/1999/xlink"
   xmlns="http://www.w3.org/2000/svg"
   xmlns:svg="http://www.w3.org/2000/svg"><defs
     id="defs1"><linearGradient
       id="linearGradient129"><stop
         style="stop-color:#fff254;stop-opacity:1;"
         offset="0"
         id="stop130" /><stop
         style="stop-color:#fff254;stop-opacity:0;"
         offset="1"
         id="stop131" /></linearGradient><linearGradient
       id="linearGradient128"><stop
         style="stop-color:#7d85d6;stop-opacity:1;"
         offset="0"
         id="stop128" /><stop
         style="stop-color:#7d85d6;stop-opacity:0;"
         offset="1"
         id="stop129" /></linearGradient><linearGradient
       id="linearGradient124"><stop
         style="stop-color:#e8d7cf;stop-opacity:1;"
         offset="0"
         id="stop125" /><stop
         style="stop-color:#e8d7cf;stop-opacity:0;"
         offset="1"
         id="stop126" /></linearGradient><linearGradient
       id="linearGradient123"><stop
         style="stop-color:#d5b7a8;stop-opacity:1;"
         offset="0"
         id="stop123" /><stop
         style="stop-color:#d5b7a8;stop-opacity:0;"
         offset="1"
         id="stop124" /></linearGradient><linearGradient
       id="linearGradient109"><stop
         style="stop-color:#e6cfbd;stop-opacity:1;"
         offset="0"
         id="stop109" /><stop
         style="stop-color:#e6cfbd;stop-opacity:0;"
         offset="1"
         id="stop117" /></linearGradient><linearGradient
       id="linearGradient96"><stop
         style="stop-color:#f1e3da;stop-opacity:0.62278932;"
         offset="0"
         id="stop96" /><stop
         style="stop-color:#f1e3da;stop-opacity:0;"
         offset="1"
         id="stop101" /></linearGradient><linearGradient
       id="linearGradient92"><stop
         style="stop-color:#eedad2;stop-opacity:1;"
         offset="0"
         id="stop92" /><stop
         style="stop-color:#eedad2;stop-opacity:0;"
         offset="1"
         id="stop93" /></linearGradient><linearGradient
       id="linearGradient89"><stop
         style="stop-color:#dec8d2;stop-opacity:1;"
         offset="0"
         id="stop90" /><stop
         style="stop-color:#dec8d2;stop-opacity:0;"
         offset="1"
         id="stop91" /></linearGradient><linearGradient
       id="linearGradient88"><stop
         style="stop-color:#f8cc6b;stop-opacity:1;"
         offset="0"
         id="stop88" /><stop
         style="stop-color:#f8cc6b;stop-opacity:0;"
         offset="1"
         id="stop89" /></linearGradient><linearGradient
       id="linearGradient86"><stop
         style="stop-color:#eea486;stop-opacity:1;"
         offset="0"
         id="stop86" /><stop
         style="stop-color:#e8855d;stop-opacity:1;"
         offset="1"
         id="stop87" /></linearGradient><linearGradient
       id="linearGradient84"><stop
         style="stop-color:#f6ad56;stop-opacity:1;"
         offset="0"
         id="stop84" /><stop
         style="stop-color:#f6ad56;stop-opacity:0;"
         offset="1"
         id="stop85" /></linearGradient><linearGradient
       id="linearGradient82"><stop
         style="stop-color:#f6ad56;stop-opacity:1;"
         offset="0"
         id="stop82" /><stop
         style="stop-color:#f6ad56;stop-opacity:0;"
         offset="1"
         id="stop83" /></linearGradient><linearGradient
       id="linearGradient44"><stop
         style="stop-color:#c9abaf;stop-opacity:1;"
         offset="0"
         id="stop48" /><stop
         style="stop-color:#c9abaf;stop-opacity:0;"
         offset="1"
         id="stop69" /></linearGradient><linearGradient
       id="linearGradient13"><stop
         style="stop-color:#cba7b1;stop-opacity:1;"
         offset="0"
         id="stop15" /><stop
         style="stop-color:#cba7b1;stop-opacity:0;"
         offset="1"
         id="stop27" /></linearGradient><linearGradient
       id="linearGradient30"><stop
         style="stop-color:#f7cd76;stop-opacity:1;"
         offset="0"
         id="stop30" /><stop
         style="stop-color:#f7cd76;stop-opacity:0;"
         offset="1"
         id="stop31" /></linearGradient><linearGradient
       id="linearGradient142"><stop
         style="stop-color:#e9d8cc;stop-opacity:1;"
         offset="0"
         id="stop142" /><stop
         style="stop-color:#e9d8cc;stop-opacity:0;"
         offset="1"
         id="stop143" /></linearGradient><linearGradient
       id="linearGradient140"><stop
         style="stop-color:#fdf7ef;stop-opacity:1;"
         offset="0"
         id="stop140" /><stop
         style="stop-color:#fdf7ef;stop-opacity:0;"
         offset="1"
         id="stop141" /></linearGradient><linearGradient
       id="linearGradient138"><stop
         style="stop-color:#f4e9df;stop-opacity:1;"
         offset="0"
         id="stop138" /><stop
         style="stop-color:#f4e9df;stop-opacity:0;"
         offset="1"
         id="stop139" /></linearGradient><linearGradient
       id="linearGradient120"><stop
         style="stop-color:#d8ccd4;stop-opacity:1;"
         offset="0"
         id="stop120" /><stop
         style="stop-color:#d8ccd4;stop-opacity:0;"
         offset="1"
         id="stop121" /></linearGradient><linearGradient
       id="linearGradient114"><stop
         style="stop-color:#f5efe5;stop-opacity:1;"
         offset="0"
         id="stop114" /><stop
         style="stop-color:#f5efe5;stop-opacity:0;"
         offset="1"
         id="stop115" /></linearGradient><linearGradient
       id="linearGradient110"><stop
         style="stop-color:#fef7f0;stop-opacity:1;"
         offset="0"
         id="stop110" /><stop
         style="stop-color:#fef7f0;stop-opacity:0;"
         offset="1"
         id="stop111" /></linearGradient><linearGradient
       id="linearGradient107"><stop
         style="stop-color:#dfcbc5;stop-opacity:1;"
         offset="0"
         id="stop107" /><stop
         style="stop-color:#dfcbc5;stop-opacity:0;"
         offset="1"
         id="stop108" /></linearGradient><linearGradient
       id="linearGradient104"><stop
         style="stop-color:#f0dfcf;stop-opacity:1;"
         offset="0"
         id="stop104" /><stop
         style="stop-color:#ebcec2;stop-opacity:1;"
         offset="1"
         id="stop105" /></linearGradient><linearGradient
       id="linearGradient102"><stop
         style="stop-color:#f0dfca;stop-opacity:1;"
         offset="0"
         id="stop102" /><stop
         style="stop-color:#f0dfca;stop-opacity:0;"
         offset="1"
         id="stop103" /></linearGradient><linearGradient
       id="linearGradient98"><stop
         style="stop-color:#eed8d5;stop-opacity:1;"
         offset="0"
         id="stop99" /><stop
         style="stop-color:#f0e1d5;stop-opacity:1;"
         offset="0.5"
         id="stop116" /><stop
         style="stop-color:#f1e2ce;stop-opacity:1;"
         offset="1"
         id="stop100" /></linearGradient><linearGradient
       id="linearGradient97"><stop
         style="stop-color:#ead5ca;stop-opacity:1;"
         offset="0"
         id="stop97" /><stop
         style="stop-color:#ead5ca;stop-opacity:0;"
         offset="1"
         id="stop98" /></linearGradient><linearGradient
       id="linearGradient76"><stop
         style="stop-color:#7d85d6;stop-opacity:1;"
         offset="0"
         id="stop76" /><stop
         style="stop-color:#6075b6;stop-opacity:0.49803922;"
         offset="0.5"
         id="stop78" /><stop
         style="stop-color:#6075b6;stop-opacity:0;"
         offset="1"
         id="stop77" /></linearGradient><linearGradient
       id="linearGradient73"><stop
         style="stop-color:#ead8ca;stop-opacity:1;"
         offset="0"
         id="stop73" /><stop
         style="stop-color:#ead8ca;stop-opacity:0;"
         offset="1"
         id="stop74" /></linearGradient><linearGradient
       id="linearGradient57"><stop
         style="stop-color:#000000;stop-opacity:1;"
         offset="0"
         id="stop57" /><stop
         style="stop-color:#000000;stop-opacity:0;"
         offset="1"
         id="stop64" /></linearGradient><linearGradient
       id="linearGradient35"><stop
         style="stop-color:#e3d7e8;stop-opacity:0.38723207;"
         offset="0"
         id="stop34" /><stop
         style="stop-color:#e3d7e8;stop-opacity:0;"
         offset="1"
         id="stop35" /></linearGradient><linearGradient
       id="linearGradient32"><stop
         style="stop-color:#e3d7e8;stop-opacity:1;"
         offset="0"
         id="stop32" /><stop
         style="stop-color:#e3d7e8;stop-opacity:0;"
         offset="1"
         id="stop33" /></linearGradient><linearGradient
       id="linearGradient28"><stop
         style="stop-color:#c1bedf;stop-opacity:1;"
         offset="0"
         id="stop28" /><stop
         style="stop-color:#c1bedf;stop-opacity:0;"
         offset="1"
         id="stop29" /></linearGradient><linearGradient
       id="linearGradient21"><stop
         style="stop-color:#415fa9;stop-opacity:1;"
         offset="0"
         id="stop25" /><stop
         style="stop-color:#415fa9;stop-opacity:0;"
         offset="1"
         id="stop26" /></linearGradient><linearGradient
       id="linearGradient9"><stop
         style="stop-color:#c1bedf;stop-opacity:0.47567984;"
         offset="0"
         id="stop11" /><stop
         style="stop-color:#c1bedf;stop-opacity:0;"
         offset="1"
         id="stop14" /></linearGradient><linearGradient
       id="linearGradient70"><stop
         style="stop-color:#d4cbd7;stop-opacity:1;"
         offset="0"
         id="stop70" /><stop
         style="stop-color:#d4cbd7;stop-opacity:0;"
         offset="1"
         id="stop71" /></linearGradient><linearGradient
       id="linearGradient67"><stop
         style="stop-color:#8a8ac3;stop-opacity:0.7241118;"
         offset="0"
         id="stop67" /><stop
         style="stop-color:#8a8ac3;stop-opacity:0;"
         offset="1"
         id="stop68" /></linearGradient><linearGradient
       id="linearGradient65"><stop
         style="stop-color:#8588c0;stop-opacity:1;"
         offset="0"
         id="stop65" /><stop
         style="stop-color:#8588c0;stop-opacity:0;"
         offset="1"
         id="stop66" /></linearGradient><linearGradient
       id="linearGradient61"><stop
         style="stop-color:#6075b6;stop-opacity:1;"
         offset="0"
         id="stop62" /><stop
         style="stop-color:#8b89c3;stop-opacity:1;"
         offset="1"
         id="stop63" /></linearGradient><linearGradient
       id="linearGradient59"><stop
         style="stop-color:#e5d1cc;stop-opacity:1;"
         offset="0"
         id="stop60" /><stop
         style="stop-color:#e5d1cc;stop-opacity:0;"
         offset="1"
         id="stop61" /></linearGradient><linearGradient
       id="linearGradient58"><stop
         style="stop-color:#b28b98;stop-opacity:1;"
         offset="0"
         id="stop58" /><stop
         style="stop-color:#b28b98;stop-opacity:0;"
         offset="1"
         id="stop59" /></linearGradient><linearGradient
       id="linearGradient55"><stop
         style="stop-color:#c4adc9;stop-opacity:1;"
         offset="0"
         id="stop55" /><stop
         style="stop-color:#c4adc9;stop-opacity:0;"
         offset="1"
         id="stop56" /></linearGradient><linearGradient
       id="linearGradient54"><stop
         style="stop-color:#c1c5d5;stop-opacity:0.75859106;"
         offset="0"
         id="stop51" /><stop
         style="stop-color:#d3c3cd;stop-opacity:1;"
         offset="0.25"
         id="stop52" /><stop
         style="stop-color:#d5c1c8;stop-opacity:1;"
         offset="0.375"
         id="stop53" /><stop
         style="stop-color:#dec6c5;stop-opacity:1;"
         offset="0.5"
         id="stop54" /></linearGradient><linearGradient
       id="linearGradient49"><stop
         style="stop-color:#bfb4d7;stop-opacity:1;"
         offset="0"
         id="stop49" /><stop
         style="stop-color:#bfb4d7;stop-opacity:0;"
         offset="1"
         id="stop50" /></linearGradient><linearGradient
       id="linearGradient46"><stop
         style="stop-color:#cbc7d1;stop-opacity:1;"
         offset="0"
         id="stop46" /><stop
         style="stop-color:#cbc7d1;stop-opacity:0;"
         offset="1"
         id="stop47" /></linearGradient><linearGradient
       id="linearGradient43"><stop
         style="stop-color:#b1a5d0;stop-opacity:1;"
         offset="0"
         id="stop44" /><stop
         style="stop-color:#9686c0;stop-opacity:1;"
         offset="1"
         id="stop45" /></linearGradient><linearGradient
       id="linearGradient41"><stop
         style="stop-color:#d5c1c8;stop-opacity:1;"
         offset="0"
         id="stop42" /><stop
         style="stop-color:#d5c1c8;stop-opacity:0;"
         offset="1"
         id="stop43" /></linearGradient><linearGradient
       id="linearGradient39"><stop
         style="stop-color:#ecd7ca;stop-opacity:1;"
         offset="0"
         id="stop40" /><stop
         style="stop-color:#ecd7ca;stop-opacity:0;"
         offset="1"
         id="stop41" /></linearGradient><linearGradient
       id="linearGradient23"><stop
         style="stop-color:#bba4d2;stop-opacity:1;"
         offset="0"
         id="stop23" /><stop
         style="stop-color:#d3c4e2;stop-opacity:0;"
         offset="1"
         id="stop24" /></linearGradient><linearGradient
       id="linearGradient20"><stop
         style="stop-color:#d5c1c8;stop-opacity:1;"
         offset="0"
         id="stop20" /><stop
         style="stop-color:#d5c1c8;stop-opacity:0;"
         offset="1"
         id="stop21" /></linearGradient><linearGradient
       id="linearGradient18"><stop
         style="stop-color:#e4d8e5;stop-opacity:1;"
         offset="0"
         id="stop18" /><stop
         style="stop-color:#d3c4e2;stop-opacity:1;"
         offset="1"
         id="stop19" /></linearGradient><linearGradient
       id="linearGradient16"><stop
         style="stop-color:#c5c5d3;stop-opacity:1;"
         offset="0"
         id="stop16" /><stop
         style="stop-color:#c5c5d3;stop-opacity:0;"
         offset="1"
         id="stop17" /></linearGradient><linearGradient
       id="linearGradient12"><stop
         style="stop-color:#ecd8cc;stop-opacity:1;"
         offset="0"
         id="stop12" /><stop
         style="stop-color:#ecd8cc;stop-opacity:0;"
         offset="1"
         id="stop13" /></linearGradient><linearGradient
       xlink:href="#linearGradient7"
       id="linearGradient8"
       x1="427.61502"
       y1="240.02437"
       x2="424.71957"
       y2="375.70416"
       gradientUnits="userSpaceOnUse"
       gradientTransform="matrix(1.0105794,0,0,1.0052886,-4.6353235,-1.9220782)" /><linearGradient
       id="linearGradient7"><stop
         style="stop-color:#c1c5d5;stop-opacity:1;"
         offset="0"
         id="stop7" /><stop
         style="stop-color:#d3c3cd;stop-opacity:1;"
         offset="0.25"
         id="stop10" /><stop
         style="stop-color:#d5c1c8;stop-opacity:1;"
         offset="0.375"
         id="stop22" /><stop
         style="stop-color:#dec6c5;stop-opacity:1;"
         offset="0.5"
         id="stop9" /></linearGradient><linearGradient
       xlink:href="#linearGradient16"
       id="linearGradient17"
       x1="437.73242"
       y1="161.18604"
       x2="439.285"
       y2="293.87109"
       gradientUnits="userSpaceOnUse"
       gradientTransform="translate(-9.690234e-6)" /><linearGradient
       xlink:href="#linearGradient18"
       id="linearGradient19"
       x1="357.77148"
       y1="1461.4669"
       x2="377.14062"
       y2="1486.4669"
       gradientUnits="userSpaceOnUse"
       gradientTransform="translate(0,-1212)" /><radialGradient
       xlink:href="#linearGradient20"
       id="radialGradient21"
       cx="306.05484"
       cy="396.62125"
       fx="306.05484"
       fy="396.62125"
       r="176.55843"
       gradientUnits="userSpaceOnUse"
       gradientTransform="translate(38.527685,-252.99472)" /><linearGradient
       xlink:href="#linearGradient23"
       id="linearGradient24"
       x1="335.8125"
       y1="358.36069"
       x2="377.29102"
       y2="355.71692"
       gradientUnits="userSpaceOnUse" /><radialGradient
       xlink:href="#linearGradient12"
       id="radialGradient13-6"
       cx="434"
       cy="432.20032"
       fx="434"
       fy="432.20032"
       r="173.7997"
       gradientUnits="userSpaceOnUse"
       gradientTransform="translate(-154.21753,-293.61558)" /><radialGradient
       xlink:href="#linearGradient39"
       id="radialGradient41"
       cx="470.51532"
       cy="450.78711"
       fx="470.51532"
       fy="450.78711"
       r="132.22897"
       gradientUnits="userSpaceOnUse"
       gradientTransform="translate(-10.5,-61.5)" /><radialGradient
       xlink:href="#linearGradient41"
       id="radialGradient43"
       cx="422.5"
       cy="386"
       fx="422.5"
       fy="386"
       r="92"
       gradientUnits="userSpaceOnUse"
       gradientTransform="translate(126,-188.5)" /><linearGradient
       xlink:href="#linearGradient43"
       id="linearGradient45"
       x1="434.42569"
       y1="1437.9969"
       x2="484.86328"
       y2="1452.5"
       gradientUnits="userSpaceOnUse"
       gradientTransform="translate(0,-1212)" /><radialGradient
       xlink:href="#linearGradient46"
       id="radialGradient47"
       cx="769.58789"
       cy="1135.4659"
       fx="769.58789"
       fy="1135.4659"
       r="274"
       gradientUnits="userSpaceOnUse"
       gradientTransform="translate(-148.60438,-1110.4771)" /><radialGradient
       xlink:href="#linearGradient49"
       id="radialGradient50"
       cx="385.37317"
       cy="167.93787"
       fx="385.37317"
       fy="167.93787"
       r="67.882248"
       gradientUnits="userSpaceOnUse"
       gradientTransform="translate(-20.152544,15.379572)" /><radialGradient
       xlink:href="#linearGradient55"
       id="radialGradient56"
       cx="418.92383"
       cy="339.92526"
       fx="418.92383"
       fy="339.92526"
       r="26.1875"
       gradientTransform="matrix(1,0,0,0.69794158,0,100.83796)"
       gradientUnits="userSpaceOnUse" /><radialGradient
       xlink:href="#linearGradient58"
       id="radialGradient59"
       cx="460.35425"
       cy="586.02081"
       fx="460.35425"
       fy="586.02081"
       r="173.7997"
       gradientUnits="userSpaceOnUse"
       gradientTransform="translate(-181.53732,-287.41421)" /><radialGradient
       xlink:href="#linearGradient59"
       id="radialGradient61"
       cx="618.71844"
       cy="337.28995"
       fx="618.71844"
       fy="337.28995"
       r="123.03658"
       gradientUnits="userSpaceOnUse"
       gradientTransform="translate(-25.5,-117)" /><linearGradient
       xlink:href="#linearGradient61"
       id="linearGradient63"
       x1="401.93933"
       y1="1330.0913"
       x2="426.68784"
       y2="1418.3744"
       gradientUnits="userSpaceOnUse"
       gradientTransform="matrix(1.0115176,0,0,0.98141761,-4.3950213,-1187.3564)" /><linearGradient
       xlink:href="#linearGradient65"
       id="linearGradient66"
       x1="432.40469"
       y1="253.40881"
       x2="425.32846"
       y2="216.34467"
       gradientUnits="userSpaceOnUse"
       gradientTransform="matrix(1.0115176,0,0,0.98141761,-4.3950213,2.1217147)" /><radialGradient
       xlink:href="#linearGradient67"
       id="radialGradient68"
       cx="394.56558"
       cy="102.88403"
       fx="394.56558"
       fy="102.88403"
       r="72.124893"
       gradientUnits="userSpaceOnUse"
       gradientTransform="matrix(1.5539215,0,0,1.5539215,-116.9274,-73.850595)" /><radialGradient
       xlink:href="#linearGradient70"
       id="radialGradient71"
       cx="333.0473"
       cy="220.61731"
       fx="333.0473"
       fy="220.61731"
       r="155.56349"
       gradientUnits="userSpaceOnUse"
       gradientTransform="translate(-91.5,-0.50000004)" /><linearGradient
       xlink:href="#linearGradient54"
       id="linearGradient2"
       gradientUnits="userSpaceOnUse"
       gradientTransform="matrix(1.0105794,0,0,1.0052886,-4.6353235,-1.9220782)"
       x1="427.61502"
       y1="240.02437"
       x2="437.45886"
       y2="394.91364" /><radialGradient
       xlink:href="#linearGradient70"
       id="radialGradient2"
       gradientUnits="userSpaceOnUse"
       gradientTransform="translate(-91.5,-0.50000004)"
       cx="333.0473"
       cy="220.61731"
       fx="333.0473"
       fy="220.61731"
       r="155.56349" /><linearGradient
       xlink:href="#linearGradient65"
       id="linearGradient1"
       gradientUnits="userSpaceOnUse"
       gradientTransform="matrix(1.0115176,0,0,0.98141761,-4.3950213,2.1217147)"
       x1="432.40469"
       y1="253.40881"
       x2="426.23758"
       y2="217.86726" /><radialGradient
       xlink:href="#linearGradient9"
       id="radialGradient14"
       cx="446.43903"
       cy="204.79749"
       fx="446.43903"
       fy="204.79749"
       r="37.932472"
       gradientUnits="userSpaceOnUse"
       gradientTransform="matrix(1.1595509,0,0,1.1595509,-87.156633,-29.100894)" /><radialGradient
       xlink:href="#linearGradient21"
       id="radialGradient26"
       cx="456.85248"
       cy="228.03989"
       fx="456.85248"
       fy="228.03989"
       r="139.80113"
       gradientUnits="userSpaceOnUse"
       gradientTransform="translate(96.0956,-117.70562)" /><linearGradient
       xlink:href="#linearGradient28"
       id="linearGradient29"
       x1="416.47043"
       y1="189.5229"
       x2="446.50757"
       y2="195.37505"
       gradientUnits="userSpaceOnUse" /><filter
       style="color-interpolation-filters:sRGB"
       id="filter30"
       x="-0.047770795"
       y="-0.018817939"
       width="1.0955416"
       height="1.0376359"><feGaussianBlur
         stdDeviation="0.37784932"
         id="feGaussianBlur30" /></filter><filter
       style="color-interpolation-filters:sRGB"
       id="filter31"
       x="-0.08492586"
       y="-0.033454114"
       width="1.1698517"
       height="1.0669082"><feGaussianBlur
         stdDeviation="0.67173212"
         id="feGaussianBlur31" /></filter><radialGradient
       xlink:href="#linearGradient35"
       id="radialGradient33"
       cx="404.1228"
       cy="163.85992"
       fx="404.1228"
       fy="163.85992"
       r="95.910072"
       gradientUnits="userSpaceOnUse"
       gradientTransform="translate(-53.335356,49.657056)" /><radialGradient
       xlink:href="#linearGradient32"
       id="radialGradient34"
       gradientUnits="userSpaceOnUse"
       gradientTransform="translate(-53.335356,49.657056)"
       cx="388.51709"
       cy="128.74709"
       fx="388.51709"
       fy="128.74709"
       r="95.910072" /><filter
       style="color-interpolation-filters:sRGB"
       id="filter37"
       x="-0.032795719"
       y="-0.022945101"
       width="1.0655914"
       height="1.0458902"><feGaussianBlur
         stdDeviation="1.0655801"
         id="feGaussianBlur37" /></filter><radialGradient
       xlink:href="#linearGradient57"
       id="radialGradient64"
       cx="409.97238"
       cy="156.95311"
       fx="409.97238"
       fy="156.95311"
       r="108.92005"
       gradientUnits="userSpaceOnUse"
       gradientTransform="translate(-25.353787,-99.029114)" /><linearGradient
       xlink:href="#linearGradient73"
       id="linearGradient74"
       x1="397.39929"
       y1="501.53848"
       x2="428.97192"
       y2="275.38837"
       gradientUnits="userSpaceOnUse" /><radialGradient
       xlink:href="#linearGradient76"
       id="radialGradient77"
       cx="413.31458"
       cy="170.3009"
       fx="413.31458"
       fy="170.3009"
       r="144.29774"
       gradientUnits="userSpaceOnUse"
       gradientTransform="matrix(0.91380526,0,0,0.91380526,35.625543,14.679042)" /><radialGradient
       xlink:href="#linearGradient97"
       id="radialGradient98"
       cx="421.92529"
       cy="205.03226"
       fx="421.92529"
       fy="205.03226"
       r="161.69019"
       gradientUnits="userSpaceOnUse"
       gradientTransform="translate(8.61072,35.399627)" /><linearGradient
       xlink:href="#linearGradient98"
       id="linearGradient100"
       x1="436.7814"
       y1="1087.5582"
       x2="439.95749"
       y2="1232.09"
       gradientUnits="userSpaceOnUse" /><linearGradient
       xlink:href="#linearGradient102"
       id="linearGradient103"
       x1="332.13876"
       y1="371.00284"
       x2="394.81122"
       y2="373.39471"
       gradientUnits="userSpaceOnUse" /><linearGradient
       xlink:href="#linearGradient104"
       id="linearGradient105"
       x1="421.86658"
       y1="867.91034"
       x2="374.45343"
       y2="903.20056"
       gradientUnits="userSpaceOnUse" /><linearGradient
       xlink:href="#linearGradient107"
       id="linearGradient108"
       x1="365.99661"
       y1="388.10202"
       x2="378.78864"
       y2="404.75439"
       gradientUnits="userSpaceOnUse" /><linearGradient
       xlink:href="#linearGradient110"
       id="linearGradient111"
       x1="316.70514"
       y1="382.96573"
       x2="345.5332"
       y2="390.61969"
       gradientUnits="userSpaceOnUse" /><linearGradient
       xlink:href="#linearGradient110"
       id="linearGradient113"
       gradientUnits="userSpaceOnUse"
       x1="316.70514"
       y1="382.96573"
       x2="337.41495"
       y2="387.9136" /><linearGradient
       xlink:href="#linearGradient114"
       id="linearGradient115"
       x1="546.66351"
       y1="382.99207"
       x2="522.74396"
       y2="379.04852"
       gradientUnits="userSpaceOnUse" /><linearGradient
       xlink:href="#linearGradient120"
       id="linearGradient121"
       x1="342.05002"
       y1="430.13742"
       x2="370.15295"
       y2="430.53516"
       gradientUnits="userSpaceOnUse" /><linearGradient
       xlink:href="#linearGradient138"
       id="linearGradient139"
       x1="544.37872"
       y1="431.58163"
       x2="492.16965"
       y2="409.25641"
       gradientUnits="userSpaceOnUse" /><linearGradient
       xlink:href="#linearGradient140"
       id="linearGradient141"
       x1="534.14783"
       y1="1421.2347"
       x2="528.48047"
       y2="1425.7258"
       gradientUnits="userSpaceOnUse" /><radialGradient
       xlink:href="#linearGradient142"
       id="radialGradient143"
       cx="518.02533"
       cy="393.76193"
       fx="518.02533"
       fy="393.76193"
       r="28.556955"
       gradientUnits="userSpaceOnUse"
       gradientTransform="translate(-1.7870396,23.798592)" /><linearGradient
       xlink:href="#linearGradient30"
       id="linearGradient31"
       x1="491.0462"
       y1="326.27148"
       x2="491.0462"
       y2="308.875"
       gradientUnits="userSpaceOnUse" /><linearGradient
       xlink:href="#linearGradient13"
       id="linearGradient27"
       x1="491.04587"
       y1="296.397"
       x2="491.04587"
       y2="313.79324"
       gradientUnits="userSpaceOnUse" /><linearGradient
       xlink:href="#linearGradient44"
       id="linearGradient69"
       x1="460.68442"
       y1="352.94543"
       x2="459.84726"
       y2="334.27957"
       gradientUnits="userSpaceOnUse" /><linearGradient
       xlink:href="#linearGradient44"
       id="linearGradient75"
       gradientUnits="userSpaceOnUse"
       x1="478.98221"
       y1="348.28128"
       x2="470.0127"
       y2="332.72485" /><radialGradient
       xlink:href="#linearGradient82"
       id="radialGradient83"
       cx="383.65543"
       cy="1280.1271"
       fx="383.65543"
       fy="1280.1271"
       r="49.750828"
       gradientUnits="userSpaceOnUse"
       gradientTransform="translate(40.948974,-918.3849)" /><linearGradient
       xlink:href="#linearGradient84"
       id="linearGradient85"
       x1="448.81952"
       y1="354.28787"
       x2="455.38797"
       y2="346.76956"
       gradientUnits="userSpaceOnUse" /><linearGradient
       xlink:href="#linearGradient86"
       id="linearGradient87"
       x1="456.4957"
       y1="353.78192"
       x2="457.35153"
       y2="339.29987"
       gradientUnits="userSpaceOnUse" /><radialGradient
       xlink:href="#linearGradient88"
       id="radialGradient89"
       cx="489.12546"
       cy="316.52774"
       fx="489.12546"
       fy="316.52774"
       r="19.280878"
       gradientUnits="userSpaceOnUse"
       gradientTransform="translate(1.3155267,8.6107201)" /><radialGradient
       xlink:href="#linearGradient89"
       id="radialGradient91"
       cx="459.71677"
       cy="437.23325"
       fx="459.71677"
       fy="437.23325"
       r="120.55008"
       gradientUnits="userSpaceOnUse"
       gradientTransform="translate(-108.23428,58.112904)" /><linearGradient
       xlink:href="#linearGradient92"
       id="linearGradient93"
       x1="439.84012"
       y1="217.53839"
       x2="439.84012"
       y2="370.27423"
       gradientUnits="userSpaceOnUse" /><radialGradient
       xlink:href="#linearGradient96"
       id="radialGradient101"
       cx="638.49341"
       cy="341.70312"
       fx="638.49341"
       fy="341.70312"
       r="106.52074"
       gradientUnits="userSpaceOnUse"
       gradientTransform="matrix(0.7092931,0,0,0.7092931,-3.0332927,148.14555)" /><radialGradient
       xlink:href="#linearGradient109"
       id="radialGradient117"
       cx="521.48517"
       cy="337.99802"
       fx="521.48517"
       fy="337.99802"
       r="104.01895"
       gradientUnits="userSpaceOnUse"
       gradientTransform="translate(-190.43634,149.07758)" /><radialGradient
       xlink:href="#linearGradient123"
       id="radialGradient124"
       cx="559.54614"
       cy="410.86258"
       fx="559.54614"
       fy="410.86258"
       r="26.624975"
       gradientUnits="userSpaceOnUse"
       gradientTransform="translate(-10.394988,3.4947523)" /><radialGradient
       xlink:href="#linearGradient124"
       id="radialGradient126"
       cx="504.30075"
       cy="375.81641"
       fx="504.30075"
       fy="375.81641"
       r="28.244797"
       gradientUnits="userSpaceOnUse"
       gradientTransform="translate(2.9267578e-5)" /><radialGradient
       xlink:href="#linearGradient124"
       id="radialGradient127"
       gradientUnits="userSpaceOnUse"
       gradientTransform="translate(2.9267578e-5)"
       cx="499.05771"
       cy="375.64728"
       fx="499.05771"
       fy="375.64728"
       r="28.244797" /><filter
       style="color-interpolation-filters:sRGB"
       id="filter128"
       x="-0.28543039"
       y="-0.28543039"
       width="1.5708608"
       height="1.5708608"><feGaussianBlur
         stdDeviation="31.364049"
         id="feGaussianBlur128" /></filter><radialGradient
       xlink:href="#linearGradient128"
       id="radialGradient129"
       cx="413.31458"
       cy="170.3009"
       fx="413.31458"
       fy="170.3009"
       r="131.86003"
       gradientUnits="userSpaceOnUse" /><filter
       style="color-interpolation-filters:sRGB"
       id="filter129"
       x="-0.027000001"
       y="-0.027000001"
       width="1.054"
       height="1.054"><feGaussianBlur
         stdDeviation="2.9668507"
         id="feGaussianBlur129" /></filter><radialGradient
       xlink:href="#linearGradient129"
       id="radialGradient131"
       cx="394.16806"
       cy="320.29541"
       fx="394.16806"
       fy="320.29541"
       r="54.83683"
       gradientUnits="userSpaceOnUse"
       gradientTransform="matrix(1.6716415,0,0,1.6716415,-119.67263,-145.66712)" /><linearGradient
       xlink:href="#linearGradient61"
       id="linearGradient131"
       gradientUnits="userSpaceOnUse"
       gradientTransform="matrix(1.0115176,0,0,0.98141761,-4.3950213,-1187.3564)"
       x1="401.93933"
       y1="1330.0913"
       x2="426.68784"
       y2="1418.3744" /><linearGradient
       xlink:href="#linearGradient92"
       id="linearGradient132"
       gradientUnits="userSpaceOnUse"
       x1="439.84012"
       y1="217.53839"
       x2="439.84012"
       y2="370.27423" /><linearGradient
       xlink:href="#linearGradient28"
       id="linearGradient133"
       gradientUnits="userSpaceOnUse"
       x1="416.47043"
       y1="189.5229"
       x2="446.50757"
       y2="195.37505" /><linearGradient
       xlink:href="#linearGradient30"
       id="linearGradient134"
       gradientUnits="userSpaceOnUse"
       x1="491.0462"
       y1="326.27148"
       x2="491.0462"
       y2="308.875" /><radialGradient
       xlink:href="#linearGradient88"
       id="radialGradient134"
       gradientUnits="userSpaceOnUse"
       gradientTransform="translate(1.3155267,8.6107201)"
       cx="489.12546"
       cy="316.52774"
       fx="489.12546"
       fy="316.52774"
       r="19.280878" /></defs><g
     id="g131"
     transform="matrix(6.5045192,0,0,6.5045192,-1346.5214,-59.934351)"><path
       style="fill:#e8d7cf;fill-opacity:1;stroke-width:211.654;paint-order:markers fill stroke"
       d="m 525.66721,369.11974 c 3.94657,4.4648 8.57088,9.0094 11.1222,12.7168 2.55132,3.7074 3.02969,6.5776 1.79386,9.9661 -1.23582,3.3885 -4.18576,7.2952 -6.93641,9.5675 -2.75066,2.2722 -5.30193,2.9101 -8.05261,2.5513 -2.75068,-0.3588 -5.7006,-1.7142 -9.48777,-6.4183 -3.78717,-4.7041 -8.41132,-12.7565 -9.80658,-21.6863 -1.39525,-8.9297 0.43849,-18.7362 2.79052,-22.2044 2.35203,-3.4681 5.22223,-0.5979 8.29182,3.0298 3.06959,3.6277 6.3384,8.0127 10.28497,12.4775 z"
       id="path135" /><path
       id="path126"
       style="mix-blend-mode:multiply;fill:url(#radialGradient126);fill-opacity:1;stroke-width:211.654;paint-order:markers fill stroke"
       d="m 509.4375,352.04688 c -0.82649,0.0161 -1.61265,0.48262 -2.34766,1.5664 -2.35203,3.4682 -4.18431,13.27343 -2.78906,22.20313 1.39526,8.9298 6.01947,16.9834 9.80664,21.6875 1.5904,1.97545 3.03266,3.35958 4.375,4.32812 a 28.244797,28.244797 0 0 0 17.02149,-21.72656 c -2.6444,-3.34505 -6.48449,-7.1948 -9.83594,-10.98633 -3.94657,-4.4648 -7.21557,-8.84886 -10.28516,-12.47656 -2.11034,-2.49405 -4.12704,-4.63122 -5.94531,-4.5957 z" /><path
       id="path124"
       style="mix-blend-mode:multiply;fill:url(#radialGradient127);fill-opacity:1;stroke-width:211.654;paint-order:markers fill stroke"
       d="m 509.4375,352.04688 c -0.82649,0.0161 -1.61265,0.48262 -2.34766,1.5664 -2.35203,3.4682 -4.18431,13.27343 -2.78906,22.20313 1.39526,8.9298 6.01947,16.9834 9.80664,21.6875 1.5904,1.97545 3.03266,3.35958 4.375,4.32812 a 28.244797,28.244797 0 0 0 17.02149,-21.72656 c -2.6444,-3.34505 -6.48449,-7.1948 -9.83594,-10.98633 -3.94657,-4.4648 -7.21557,-8.84886 -10.28516,-12.47656 -2.11034,-2.49405 -4.12704,-4.63122 -5.94531,-4.5957 z" /><path
       id="path141"
       style="mix-blend-mode:multiply;fill:url(#radialGradient143);stroke-width:211.654;paint-order:markers fill stroke"
       d="m 516.23828,389.00391 a 28.556955,28.556955 0 0 0 -7.0918,0.89453 c 1.5973,3.01165 3.35453,5.61011 4.96094,7.60547 3.78717,4.7041 6.73565,6.05917 9.48633,6.41797 2.75068,0.3588 5.30207,-0.27859 8.05273,-2.55079 1.4332,-1.18395 2.92066,-2.81319 4.19141,-4.58007 a 28.556955,28.556955 0 0 0 -19.59961,-7.78711 z" /><path
       id="path139"
       style="fill:url(#linearGradient141);fill-opacity:1;stroke-width:211.654;paint-order:markers fill stroke"
       d="m 512.63672,1406.0014 c -0.65701,0.032 -1.09912,0.2312 -1.29492,0.5957 -0.71754,1.3355 1.8734,4.884 4.18554,7.7343 2.31214,2.8504 4.19402,5.1575 6.79688,7.5332 5.6367,5.1447 14.3837,11.3522 16.80273,17.8497 0.40443,-2.5624 -0.31517,-4.9768 -2.33789,-7.9161 -2.55132,-3.7074 -7.17452,-8.252 -11.12109,-12.7168 -3.94657,-4.4648 -7.21557,-8.8488 -10.28516,-12.4765 -0.0541,-0.064 -0.10808,-0.1279 -0.16211,-0.1914 -1.05469,-0.3075 -1.92712,-0.4438 -2.58398,-0.4121 z"
       transform="translate(0,-1049.9623)" /><path
       id="path137"
       style="fill:url(#linearGradient139);fill-opacity:1;stroke-width:211.654;paint-order:markers fill stroke"
       d="m 525.32031,357.20312 a 50.739155,50.739155 0 0 0 -50.74023,50.74024 50.739155,50.739155 0 0 0 27.78125,45.24805 c 19.59598,-3.33583 22.06396,-19.68068 6.91797,-32.62305 -1.55038,-1.3249 -1.7188,-1.60691 -0.15821,-4.94141 8.57113,-18.05495 14.59226,-38.26725 19.35938,-58.32422 a 50.739155,50.739155 0 0 0 -3.16016,-0.0996 z" /><path
       style="fill:url(#linearGradient100);fill-opacity:1;stroke-width:211.654;paint-order:markers fill stroke"
       d="m 534.06721,1103.5515 c -5.62295,27.9201 -12.66767,58.2107 -24.94594,84.0747 -1.56059,3.3345 -1.39147,3.6164 0.15891,4.9413 16.95198,14.4856 11.83831,33.2341 -14.65805,33.2341 -5.32768,0 -11.75452,-0.5637 -15.75729,-1.1839 -4.00278,-0.6202 -5.58129,-1.2967 -9.52474,-0.1071 -17.6727,7.5968 -35.34152,10.962 -53.67357,3.394 -4.42498,-1.9135 -6.97626,-3.9067 -9.08909,-5.3817 -2.11283,-1.475 -3.78708,-2.4317 -5.8202,-2.7108 -2.03311,-0.279 -4.42492,0.1196 -7.81345,0.8771 -3.38852,0.7574 -7.77353,1.8736 -12.23839,1.9135 -11.44466,0.1025 -34.34606,-7.1071 -17.38083,-29.8187 2.47161,-3.3087 5.18236,-5.2222 6.30852,-6.0394 1.12616,-0.8172 0.66775,-0.5382 -0.53818,-2.651 -2.16256,-3.789 -12.31035,-27.9633 -16.76564,-40.6783 -3.07479,-8.7752 -4.93519,-15.9349 -6.79563,-23.0948 12.9103,-17.4768 25.82059,-34.9536 47.89243,-52.7689 22.07184,-17.8152 53.30398,-35.9682 72.24669,-42.3951 18.9427,-6.4269 25.59502,-1.1276 34.27714,11.0781 8.68212,12.2058 19.39352,31.3172 25.87315,43.5006 6.47964,12.1834 8.80516,15.7303 8.24416,23.8163 z"
       id="path78"
       transform="translate(0,-772)" /><path
       id="path89"
       style="mix-blend-mode:multiply;fill:url(#radialGradient91);stroke-width:211.654;paint-order:markers fill stroke"
       d="m 373.9668,326.95898 a 120.55008,120.55008 0 0 0 -12.59375,0.66016 c -5.65484,6.9146 -10.7473,13.80734 -15.83985,20.70117 1.86044,7.1599 3.72209,14.32051 6.79688,23.09571 4.45529,12.715 14.60306,36.88873 16.76562,40.67773 1.20593,2.1128 1.66327,1.83319 0.53711,2.65039 -1.12616,0.8172 -3.83698,2.73036 -6.30859,6.03906 -16.96523,22.7116 5.9362,29.92282 17.38086,29.82032 4.46486,-0.0399 8.84976,-1.15667 12.23828,-1.91407 3.38853,-0.7575 5.78134,-1.15595 7.81445,-0.87695 2.03312,0.2791 3.70749,1.23594 5.82031,2.71094 2.11283,1.475 4.66292,3.46736 9.0879,5.38086 18.33205,7.568 36.00112,4.20227 53.67382,-3.39453 3.94345,-1.1896 5.52261,-0.51278 9.52539,0.10742 3.9353,0.60974 10.21301,1.16505 15.48633,1.18359 a 120.55008,120.55008 0 0 0 0.16406,-6.29101 A 120.55008,120.55008 0 0 0 373.9668,326.95898 Z" /><path
       id="path101"
       style="fill:url(#linearGradient103);fill-opacity:1;stroke-width:211.654;paint-order:markers fill stroke"
       d="m 444.58594,262.44531 c -16.77541,8.63794 -36.10043,20.95007 -51.16016,33.10547 -22.07184,17.8153 -34.98228,35.29273 -47.89258,52.76953 1.86044,7.1599 3.72209,14.32051 6.79688,23.09571 4.45529,12.715 14.60306,36.88873 16.76562,40.67773 1.20593,2.1128 1.66327,1.83319 0.53711,2.65039 -1.12616,0.8172 -3.83698,2.73036 -6.30859,6.03906 -16.96523,22.7116 5.9362,29.92282 17.38086,29.82032 4.46486,-0.0399 8.84976,-1.15667 12.23828,-1.91407 3.38853,-0.7575 5.78134,-1.15595 7.81445,-0.87695 2.03312,0.2791 3.70749,1.23594 5.82031,2.71094 0.94949,0.66285 1.98731,1.43015 3.24415,2.24804 a 156.2766,156.2766 0 0 0 52.91796,-117.21679 156.2766,156.2766 0 0 0 -18.15429,-73.10938 z" /><path
       id="path108"
       style="fill:#e3d1c8;fill-opacity:1;stroke-width:220.029;paint-order:markers fill stroke"
       d="m 354.54297,366.90234 c -1.1166,9.9e-4 -2.31782,0.17018 -3.58008,0.48047 0.42889,1.30849 0.88283,2.6509 1.36719,4.03321 2.38892,6.81776 6.41513,16.93004 9.96875,25.42773 2.77264,-3.16753 5.35249,-6.93303 7.41015,-10.3125 2.81261,-4.61936 4.64684,-8.51762 4.71094,-10.94531 0.0641,-2.42768 -1.64144,-3.38543 -4.8418,-4.66602 -3.20037,-1.28058 -8.17665,-1.97991 -11.96484,-3.48437 -0.9214,-0.36593 -1.95371,-0.53419 -3.07031,-0.53321 z" /><path
       id="path105"
       style="fill:url(#linearGradient108);fill-opacity:1;stroke-width:211.654;paint-order:markers fill stroke"
       d="m 357.94727,371.75195 c -1.55686,-0.0422 -3.30247,0.31413 -5.1543,0.96875 2.98491,8.32634 7.97908,20.64422 11.73242,29.38282 10.70738,-12.91783 11.5024,-24.3768 11.55469,-26.51758 0.0593,-2.42768 -1.51912,1.46223 -4.48047,0.18164 -2.96136,-1.28058 -7.56698,-1.98187 -11.07227,-3.48633 -0.78095,-0.33518 -1.64596,-0.50399 -2.58007,-0.5293 z" /><path
       id="path96"
       style="fill:url(#radialGradient98);stroke-width:211.654;paint-order:markers fill stroke"
       d="m 480.26758,250.41992 c -3.95615,-0.13478 -8.67611,0.72792 -14.5957,2.73633 -18.94272,6.4269 -50.17426,24.57933 -72.2461,42.39453 -22.07184,17.8153 -34.98228,35.29273 -47.89258,52.76953 1.86044,7.1599 3.72209,14.32051 6.79688,23.09571 4.45529,12.715 14.60306,36.88873 16.76562,40.67773 1.20593,2.1128 1.66327,1.83319 0.53711,2.65039 -0.64773,0.47003 -1.81882,1.30243 -3.16797,2.55469 a 161.69019,161.69019 0 0 0 64.07032,13.23633 161.69019,161.69019 0 0 0 81.89453,-22.27344 c 10.27371,-24.14264 16.53939,-51.40078 21.63672,-76.71094 0.561,-8.086 -1.7645,-11.63301 -8.24414,-23.8164 -6.47963,-12.18341 -17.19093,-31.29421 -25.87305,-43.5 -5.96896,-8.39142 -10.97812,-13.51795 -19.68164,-13.81446 z" /><path
       id="path87"
       style="mix-blend-mode:multiply;fill:#d0b0a8;fill-opacity:0.503702;stroke-width:213.33;paint-order:markers fill stroke"
       d="m 454.96498,329.90671 c -0.42944,0.006 -0.84819,0.0339 -1.25195,0.084 -3.63686,0.4511 -6.04374,2.76282 -8.44922,5.07422 -0.0372,0.8667 -0.0748,1.73277 -0.10352,2.5918 6.23743,1.76682 15.2099,1.8845 22.82813,0.0273 0.0203,-0.29507 0.0362,-0.59351 0.0469,-0.89453 -1.19169,-2.08943 -2.62264,-2.84334 -4.10742,-4.74219 -2.43715,-1.2154 -5.9568,-2.18576 -8.96289,-2.14062 z m 12.82227,9.66211 c -7.56564,2.22512 -15.89696,0.2796 -22.2572,-1.84304 -0.0266,2.36168 -0.35208,6.61709 0.0482,8.58718 2.9017,14.2815 15.10788,8.19235 19.67383,0.53515 1.31233,-2.20089 2.14356,-4.61439 2.53516,-7.27929 z" /><path
       style="mix-blend-mode:multiply;fill:#cdb4af;fill-opacity:0.643581;stroke-width:210.003;paint-order:markers fill stroke"
       d="m 479.66733,323.29058 c -0.1728,-0.25709 1.33205,0.29519 1.83157,0.88759 0.49954,0.592 0.57355,1.28255 0.89268,2.31145 0.31914,1.0289 0.84084,2.1139 0.84084,2.1139 -7.66824,15.51064 -44.38005,16.22914 -46.05273,1.95312 -0.13854,-1.18238 0.69547,-0.93817 0.86197,-0.68437 0.16648,0.2537 0.16648,1.0993 0.48561,2.0859 2.54786,7.8766 29.00483,9.22947 40.18268,0.9443 3.26767,-2.42204 2.54528,-7.24939 0.95738,-9.61189 z"
       id="path80" /><path
       id="path103"
       style="fill:url(#linearGradient115);fill-opacity:1;stroke-width:211.654;paint-order:markers fill stroke"
       d="m 518.70117,294.70898 a 120.42093,120.42093 0 0 0 -41.57812,91.02149 120.42093,120.42093 0 0 0 21.00586,67.95508 c 23.4113,-1.59324 27.32565,-19.2953 11.15039,-33.11719 -1.55038,-1.3249 -1.7188,-1.60691 -0.15821,-4.94141 12.27827,-25.864 19.32237,-56.15607 24.94532,-84.07617 0.561,-8.086 -1.7645,-11.63301 -8.24414,-23.8164 -2.02439,-3.80638 -4.46153,-8.28842 -7.1211,-13.0254 z" /><circle
       style="display:inline;opacity:1;fill:url(#radialGradient129);fill-opacity:1;stroke-width:101.286;paint-order:markers fill stroke;filter:url(#filter129)"
       id="path74"
       cx="413.31458"
       cy="170.3009"
       r="131.86003" /><path
       style="fill:url(#linearGradient131);fill-opacity:1;stroke-width:210.882;paint-order:markers fill stroke;filter:url(#filter37)"
       d="m 451.5297,214.66049 c 17.54804,-35.93863 5.39686,-58.3548 -28.22651,-88.57069 -7.41351,-6.66215 -10.52683,-9.28529 -13.64311,-11.91097 -15.76496,27.38655 -42.81672,72.28219 -18.17527,102.06547 4.03693,4.64485 9.30909,8.53175 14.56837,9.36989 8.75962,0.41464 15.98848,-5.26904 28.19903,-4.87078 4.23362,0.13809 8.58211,1.1356 11.16697,0.96375 2.58211,-0.17165 3.40723,-1.5103 6.11052,-7.04667 z"
       id="path37" /><path
       style="fill:url(#linearGradient87);fill-opacity:1;stroke-width:211.654;paint-order:markers fill stroke"
       d="m 445.65891,334.418 c -0.16913,4.0028 -0.33826,8.0055 0.31009,11.2472 2.85629,14.2815 14.87094,8.1928 19.36544,0.5356 1.52218,-2.5934 2.4242,-5.7505 2.62152,-8.2593 0.19732,-2.5087 -0.31006,-4.3691 -2.95983,-6.0041 -2.64976,-1.6349 -7.44171,-3.0443 -11.02167,-2.5933 -3.57995,0.4511 -5.94772,2.7625 -8.31555,5.0739 z"
       id="path76" /><path
       style="fill:url(#linearGradient8);fill-opacity:1;stroke-width:213.333;paint-order:markers fill stroke"
       d="m 546.02865,292.28697 c 3.00583,16.97976 -2.89604,35.18404 -10.15092,39.06309 -3.95607,2.11525 -8.77693,0.58936 -14.98213,-5.2581 -10.51742,-9.91107 -22.74413,-28.54764 -37.18187,-56.07511 -3.71722,-7.08739 -5.11115,-9.86064 -5.65324,-9.09024 -6.67204,36.2131 -15.57632,54.17606 -53.35755,64.86471 -6.35027,1.54073 -8.98324,1.23259 -11.14187,2.73966 -2.15863,1.50707 -3.84278,4.82923 -8.62766,10.19457 -4.78487,5.36536 -12.67012,12.77355 -19.35086,17.5672 -22.03615,15.81164 -55.77923,7.2374 -57.19802,-36.68372 -1.91369,-59.24253 51.36326,-87.28531 77.0812,-94.27771 89.38744,-24.30339 136.13711,41.95447 140.56292,66.95565 z"
       id="path5-3" /><path
       id="path3"
       style="fill:url(#linearGradient19);fill-opacity:1;stroke-width:211.654;paint-order:markers fill stroke"
       d="m 444.51953,220.0723 c -11.96173,-0.1492 -24.97995,1.433 -39.05469,5.2597 -21.66242,5.8898 -62.87708,26.7143 -74.19336,68.5391 59.41562,-55.8266 145.41925,-68.0305 209.36914,-16.2363 -12.27939,-23.7705 -44.28692,-56.916 -96.12109,-57.5625 z" /><path
       id="path4"
       style="fill:url(#linearGradient45);fill-opacity:1;stroke-width:211.654;paint-order:markers fill stroke"
       d="m 447.82227,220.1582 c -12.85744,-0.5091 -26.97686,0.992 -42.35743,5.1738 -9.10312,2.4751 -21.65899,7.5873 -33.99804,15.7871 2.63894,0.521 6.0352,0.8663 10.54882,0.8125 19.79327,-0.2355 95.65943,-12.738 100.59766,-14.8886 -10.33749,-3.8571 -21.93358,-6.3757 -34.79101,-6.8848 z" /><path
       id="path32"
       style="mix-blend-mode:overlay;fill:url(#radialGradient34);stroke-width:211.654;paint-order:markers fill stroke"
       d="m 438.45117,220.14453 c -10.26157,0.36829 -21.2572,1.99849 -32.98633,5.1875 -19.8223,5.38945 -56.01487,23.2827 -70.6914,58.33008 a 95.910072,95.910072 0 0 0 22.51562,2.68164 95.910072,95.910072 0 0 0 91.17969,-66.1582 c -3.25757,-0.14653 -6.59705,-0.16378 -10.01758,-0.041 z" /><path
       id="path81"
       style="mix-blend-mode:multiply;fill:#eea486;fill-opacity:0.389311;stroke-width:210.003;paint-order:markers fill stroke"
       d="m 445.55664,337.00977 c -0.0227,0.68901 -0.0391,1.37374 -0.0469,2.04882 6.15804,2.20173 14.72897,2.2801 22.27929,0.2461 0.0767,-0.46986 0.13165,-0.92635 0.16602,-1.36328 0.0151,-0.19191 0.027,-0.37995 0.0332,-0.56446 -7.61973,1.68782 -16.41067,1.46052 -22.43164,-0.36718 z" /><path
       id="path82"
       style="fill:url(#radialGradient83);stroke-width:211.654;paint-order:markers fill stroke"
       d="m 455.20703,329.25977 c -0.42272,0.006 -0.83498,0.0339 -1.23242,0.084 -3.57995,0.4511 -5.94858,2.76282 -8.31641,5.07422 -0.16913,4.0028 -0.3378,8.00635 0.31055,11.24805 2.85629,14.2815 14.87073,8.19235 19.36523,0.53515 1.52218,-2.5934 2.42378,-5.75096 2.6211,-8.25976 0.0147,-0.1874 0.0269,-0.37045 0.0332,-0.55079 a 49.750828,49.750828 0 0 0 -3.95703,-5.99023 c -2.39901,-1.2154 -5.86517,-2.18576 -8.82422,-2.14062 z" /><path
       id="path77"
       style="fill:#ecd6cf;fill-opacity:1;stroke-width:211.654;paint-order:markers fill stroke"
       d="m 464.64453,309.04492 c -4.75478,-0.1652 -10.26394,1.05193 -14.79883,3.83203 -6.04652,3.7068 -10.36046,10.1914 -11.95312,14.6875 -0.39416,1.11272 -0.62054,2.10348 -0.71289,2.99219 0.20128,1.73982 1.00508,3.00452 2.02343,4.03906 8.83273,8.973 40.05593,3.99801 43.76368,-5.05859 0.12576,-0.3072 0.21221,-0.61957 0.26562,-0.93359 -0.18183,-1.27767 -0.68777,-2.57036 -1.09765,-3.81641 -0.7047,-2.1423 -1.12775,-4.1439 -2.86133,-7.0332 -1.73358,-2.8893 -4.77725,-6.66635 -10.18946,-8.08985 -1.35305,-0.3559 -2.85452,-0.56407 -4.43945,-0.61914 z" /><path
       id="path91"
       style="mix-blend-mode:multiply;fill:url(#linearGradient132);fill-opacity:1;stroke-width:213.333;paint-order:markers fill stroke"
       d="m 480.26758,250.41992 c -3.95615,-0.13478 -8.67611,0.72792 -14.5957,2.73633 -18.94272,6.4269 -50.17426,24.57933 -72.2461,42.39453 -22.07184,17.8153 -12.62862,66.10755 -7.84375,60.74219 4.78488,-5.36534 23.79059,-16.61403 25.94922,-18.12109 2.15863,-1.50707 4.79231,-1.19951 11.14258,-2.74024 37.78123,-10.68865 46.68538,-28.65213 53.35742,-64.86523 0.54209,-0.7704 1.93512,2.0044 5.65234,9.09179 14.41893,27.4916 36.8848,65.17104 50.28907,62.04492 0.72298,-3.41 1.41839,-6.79894 2.09375,-10.15234 0.561,-8.086 -1.7645,-11.63301 -8.24414,-23.8164 -6.47963,-12.18341 -17.19093,-31.29421 -25.87305,-43.5 -5.96896,-8.39142 -10.97812,-13.51795 -19.68164,-13.81446 z" /><path
       id="path14"
       style="fill:url(#linearGradient2);fill-opacity:1;stroke-width:213.333;paint-order:markers fill stroke"
       d="m 444.51953,220.07227 c -5.28703,-0.066 -10.85695,0.35117 -16.55664,1.00585 5.6982,-0.65447 11.27102,-1.07178 16.55664,-1.00585 z m 10.6875,0.65039 c 1.11049,0.11415 2.17938,0.28766 3.26953,0.43164 -1.0908,-0.14406 -2.15836,-0.31744 -3.26953,-0.43164 z m -31.59375,0.92968 c -5.86474,0.85923 -11.86203,1.97049 -18.14844,3.67969 6.28514,-1.70883 12.28466,-2.82032 18.14844,-3.67969 z m 41.77734,0.60938 c 1.1814,0.23133 2.34648,0.48465 3.50196,0.75 -1.15687,-0.26568 -2.3191,-0.51842 -3.50196,-0.75 z m 9.81446,2.40234 c 1.0305,0.30243 2.07397,0.58951 3.08203,0.91797 -1.00909,-0.32882 -2.05046,-0.61523 -3.08203,-0.91797 z m 6.08398,2.01758 c 4.2331,1.52088 8.28652,3.23508 12.10547,5.16016 -3.82073,-1.92611 -7.87017,-3.63865 -12.10547,-5.16016 z m 13.58008,5.86133 c 4.04837,2.11719 7.80869,4.46604 11.37891,6.92969 -3.57243,-2.46552 -7.32765,-4.8111 -11.37891,-6.92969 z m 13.67383,8.55078 c 1.86974,1.36185 3.52715,2.82321 5.25781,4.25391 -1.73671,-1.43619 -3.38098,-2.88706 -5.25781,-4.25391 z m -60.42578,3.60352 c -41.58922,0.17102 -83.42443,17.77156 -116.84571,49.17382 -2.11853,7.83016 -3.18849,16.39628 -2.88671,25.73829 1.41879,43.92111 35.16111,52.49523 57.19726,36.68359 6.68074,-4.79365 14.56669,-12.203 19.35156,-17.56836 4.78488,-5.36534 6.46833,-8.68629 8.62696,-10.19336 2.15863,-1.50707 4.7923,-1.1995 11.14257,-2.74023 37.78124,-10.68865 46.68539,-28.65214 53.35743,-64.86524 0.54209,-0.7704 1.93512,2.00441 5.65234,9.0918 14.43774,27.52747 26.66617,46.16315 37.18359,56.07422 6.2052,5.84746 11.0244,7.37306 14.98047,5.25781 7.25488,-3.87905 13.15818,-22.08274 10.15235,-39.0625 -0.70911,-4.0057 -2.50533,-9.07065 -5.38868,-14.65234 -27.978,-22.65991 -60.17626,-33.07052 -92.52343,-32.9375 z m 73.51758,7.69531 c 1.27682,1.27502 2.53388,2.54911 3.71093,3.8418 -1.1874,-1.30469 -2.42191,-2.5551 -3.71093,-3.8418 z m 10.01953,11.44531 c 0.84227,1.11302 1.77808,2.23061 2.54687,3.33399 -0.77616,-1.11453 -1.69572,-2.20962 -2.54687,-3.33399 z" /><path
       id="path15"
       style="fill:url(#linearGradient17);fill-opacity:1;stroke-width:211.654;paint-order:markers fill stroke"
       d="m 444.51952,220.07227 c -5.28703,-0.066 -10.85695,0.35117 -16.55664,1.00585 5.6982,-0.65447 11.27102,-1.07178 16.55664,-1.00585 z m -20.90625,1.58007 c -5.86474,0.85923 -11.86203,1.97049 -18.14844,3.67969 6.28514,-1.70883 12.28466,-2.82032 18.14844,-3.67969 z m 57.67578,5.0293 c 4.2331,1.52088 8.28652,3.23508 12.10547,5.16016 -3.82073,-1.92611 -7.87017,-3.63865 -12.10547,-5.16016 z m 13.58008,5.86133 c 4.04837,2.11719 7.80869,4.46604 11.37891,6.92969 -3.57243,-2.46552 -7.32765,-4.8111 -11.37891,-6.92969 z m 13.67383,8.55078 c 1.86974,1.36185 3.52715,2.82321 5.25781,4.25391 -1.73671,-1.43619 -3.38098,-2.88706 -5.25781,-4.25391 z m -60.42578,3.60352 c -41.58922,0.17102 -83.42443,17.77156 -116.84571,49.17382 -0.97221,3.59334 -1.72332,7.34087 -2.22265,11.24805 a 205.16084,126.79637 0 0 0 95.43555,14.55469 205.16084,126.79637 0 0 0 18.11132,-0.49414 c 23.04985,-11.20632 30.00504,-28.6203 35.46485,-58.25391 0.54209,-0.7704 1.93512,2.00441 5.65234,9.0918 8.39088,15.99832 16.03502,28.99313 23.03125,39.01758 a 205.16084,126.79637 0 0 0 39.67188,-14.1836 c -0.10693,-0.85632 -0.23588,-1.71232 -0.38672,-2.56445 -0.70911,-4.0057 -2.50532,-9.07065 -5.38868,-14.65234 -27.978,-22.65991 -60.17626,-33.07052 -92.52343,-32.9375 z m 73.51758,7.69531 c 1.27682,1.27502 2.53388,2.54911 3.71093,3.8418 -1.1874,-1.30469 -2.42191,-2.5551 -3.71093,-3.8418 z m 10.01953,11.44531 c 0.84227,1.11302 1.77808,2.2306 2.54687,3.33399 -0.77616,-1.11454 -1.69572,-2.20962 -2.54687,-3.33399 z" /><path
       id="path20"
       style="mix-blend-mode:multiply;fill:url(#radialGradient21);stroke-width:211.654;paint-order:markers fill stroke"
       d="m 444.51953,220.07227 c -5.28703,-0.066 -10.85695,0.35117 -16.55664,1.00585 5.6982,-0.65447 11.27102,-1.07178 16.55664,-1.00585 z m -20.90625,1.58007 c -5.86474,0.85923 -11.86203,1.97049 -18.14844,3.67969 6.28514,-1.70883 12.28466,-2.82032 18.14844,-3.67969 z m 57.67578,5.0293 c 4.2331,1.52088 8.28652,3.23508 12.10547,5.16016 -3.82073,-1.92611 -7.87017,-3.63865 -12.10547,-5.16016 z m -33.17187,18.01563 c -41.58922,0.17102 -83.42443,17.77156 -116.84571,49.17382 -2.10571,7.78279 -3.17604,16.29221 -2.89257,25.56836 a 176.55843,176.55843 0 0 0 16.20312,0.7461 176.55843,176.55843 0 0 0 141.28516,-70.67578 c -12.39674,-3.29531 -25.06173,-4.86468 -37.75,-4.8125 z" /><path
       id="path6"
       style="mix-blend-mode:multiply;fill:#d7c5c5;fill-opacity:0.74458;stroke-width:213.333;paint-order:markers fill stroke"
       d="m 477.12305,265.31055 c -6.93989,29.0244 -18.25081,44.63464 -52.63868,54.36328 -6.59081,1.59909 -9.32406,1.2796 -11.56444,2.84375 -2.24041,1.56416 -3.98701,5.01151 -8.95313,10.58008 -4.96611,5.56858 -13.1502,13.2572 -20.08398,18.23242 -17.83563,12.79762 -37.54202,7.688 -48.07032,-3.54101 0.006,0.0101 0.009,0.0232 0.0157,0.0332 0.002,0.004 0.005,0.008 0.008,0.0118 0.003,0.006 0.008,0.0101 0.0117,0.0156 0.78893,1.27577 1.68365,2.45803 2.58203,3.63477 11.99031,15.01922 32.24428,15.5056 47.15235,4.80858 6.68074,-4.79364 14.56668,-12.20299 19.35155,-17.56835 3.58867,-4.02401 5.43239,-6.8971 7.04102,-8.71875 0.26847,-0.304 0.53062,-0.57843 0.79297,-0.82422 0.26158,-0.24507 0.52354,-0.46228 0.79297,-0.65039 0.13431,-0.0938 0.27138,-0.18112 0.41016,-0.26172 0.003,-0.002 0.007,-0.004 0.0101,-0.006 0.003,-0.002 0.008,-0.004 0.0117,-0.006 0.0424,-0.0233 0.0843,-0.0432 0.12695,-0.0665 0.0131,-0.007 0.0277,-0.0126 0.041,-0.0195 0.51136,-0.27265 1.0867,-0.46316 1.71289,-0.62696 0.053,-0.0138 0.10283,-0.0297 0.15624,-0.0429 0.008,-0.002 0.019,-0.004 0.0274,-0.006 0.31249,-0.0768 0.71576,-0.16084 1.07032,-0.22851 0.15043,-0.0299 0.27259,-0.0653 0.43358,-0.0938 0.74224,-0.13102 1.58139,-0.26229 2.55079,-0.43164 1.27938,-0.22344 2.78572,-0.51297 4.59179,-0.95116 0.0282,-0.008 0.0559,-0.0155 0.084,-0.0234 15.9895,-4.53331 26.7997,-10.37448 34.45507,-18.35742 1.47751,-1.54073 2.79952,-3.19211 4.05664,-4.89843 0.31237,-0.42408 0.6181,-0.85429 0.91797,-1.28907 1.18321,-1.71475 2.30446,-3.48097 3.31055,-5.36914 0.0118,-0.0221 0.0254,-0.0423 0.0371,-0.0644 h 0.002 v -0.002 c 0.11682,-0.21992 0.19591,-0.4866 0.31054,-0.70898 1.38939,-2.69504 2.65366,-5.52979 3.76367,-8.59961 0.45222,-1.25064 0.80395,-2.69532 1.21875,-4.01171 0.7048,-2.23667 1.44143,-4.40071 2.0586,-6.83594 0.80686,-3.18372 1.49766,-6.77648 2.20507,-10.32032 z" /><path
       id="path39"
       style="fill:url(#radialGradient41);stroke-width:211.654;paint-order:markers fill stroke"
       d="m 460.01562,257.05859 a 132.22897,132.22897 0 0 0 -125.05859,89.27735 c 11.17281,19.97128 34.16441,21.76803 50.625,9.95703 6.68074,-4.79365 14.56669,-12.203 19.35156,-17.56836 4.78488,-5.36534 6.46833,-8.68629 8.62696,-10.19336 2.15863,-1.50707 4.7923,-1.1995 11.14257,-2.74023 37.78124,-10.68865 46.68539,-28.65214 53.35743,-64.86524 0.54209,-0.7704 1.93512,2.00441 5.65234,9.0918 14.43774,27.52747 26.66617,46.16315 37.18359,56.07422 6.2052,5.84746 11.0244,7.37306 14.98047,5.25781 7.25488,-3.87905 13.15818,-22.08274 10.15235,-39.0625 -0.23631,-1.33486 -0.59461,-2.78787 -1.07227,-4.33789 a 132.22897,132.22897 0 0 0 -84.94141,-30.89063 z" /><path
       id="path19"
       style="fill:url(#linearGradient24);fill-opacity:1;stroke-width:288.112;paint-order:markers fill stroke"
       d="m 335.8125,347.78906 c 0.009,0.0138 0.0149,0.0311 0.0234,0.0449 8.26694,13.38136 22.13788,17.84771 35.24609,14.98243 h 0.002 v -0.002 h 0.002 c 1.26704,-0.27705 2.52243,-0.64813 3.76758,-1.07226 a 28.790524,28.790524 0 0 0 2.4375,-6.50586 c -15.91589,7.55365 -32.23478,2.41168 -41.47852,-7.44727 z" /><path
       id="path38"
       style="mix-blend-mode:multiply;fill:url(#radialGradient56);fill-opacity:1;stroke-width:311.399;paint-order:markers fill stroke"
       d="m 436.78125,315.55859 c -3.73554,1.48234 -7.82053,2.84884 -12.29687,4.11524 -6.59081,1.59909 -9.32407,1.2796 -11.56446,2.84375 -2.2404,1.56416 -3.987,5.01151 -8.95312,10.58008 -3.55658,3.98805 -8.7642,9.06382 -13.98047,13.45117 a 32,32 0 0 0 0.96679,5.56445 c 5.19483,-4.32222 10.43777,-9.41618 13.98047,-13.38867 3.58867,-4.02401 5.43239,-6.89711 7.04102,-8.71875 0.26847,-0.304 0.53061,-0.57843 0.79297,-0.82422 0.26158,-0.24507 0.52354,-0.46228 0.79297,-0.65039 0.13431,-0.0938 0.27137,-0.18111 0.41015,-0.26172 0.003,-0.002 0.007,-0.004 0.01,-0.006 0.003,-0.002 0.008,-0.004 0.0117,-0.006 0.0425,-0.0233 0.0843,-0.0433 0.12695,-0.0664 0.0132,-0.007 0.0277,-0.0125 0.041,-0.0195 0.51136,-0.27266 1.0867,-0.46317 1.71289,-0.62696 0.0529,-0.0138 0.10284,-0.0297 0.15625,-0.043 0.008,-0.002 0.019,-0.004 0.0273,-0.006 0.31249,-0.0768 0.71576,-0.16084 1.07031,-0.22851 0.15044,-0.0298 0.2726,-0.0653 0.4336,-0.0937 0.74224,-0.13102 1.58138,-0.26229 2.55078,-0.43164 1.27938,-0.22345 2.78573,-0.51298 4.59179,-0.95117 0.0282,-0.008 0.0559,-0.0155 0.084,-0.0234 6.72394,-1.90636 12.53153,-4.04368 17.57422,-6.47461 a 32,32 0 0 0 -5.58008,-3.73438 z" /><path
       id="path41"
       style="mix-blend-mode:multiply;fill:url(#radialGradient43);stroke-width:211.654;paint-order:markers fill stroke"
       d="m 470.52344,246.32422 c 16.2344,25.92729 44.29412,42.08952 74.86718,43.12305 -0.92799,-3.45679 -2.51133,-7.47881 -4.75,-11.8125 -21.49638,-17.41033 -45.48473,-27.58893 -70.11718,-31.31055 z" /><path
       id="path10-1"
       style="mix-blend-mode:overlay;fill:url(#radialGradient13-6);stroke-width:211.654;paint-order:markers fill stroke"
       d="m 433.0957,220.44727 c -8.70665,0.67137 -17.91768,2.24386 -27.63086,4.88476 -23.54598,6.40187 -70.19127,30.44885 -76.43359,79.92969 A 173.7997,173.7997 0 0 0 433.0957,220.44727 Z" /><path
       id="path45"
       style="mix-blend-mode:multiply;fill:url(#radialGradient47);stroke-width:211.654;paint-order:markers fill stroke"
       d="m 442.03906,220.06641 c -4.11884,0.031 -8.36128,0.26648 -12.72461,0.72656 a 274,274 0 0 0 115.73633,67.46484 c -6.94706,-23.13056 -41.22908,-68.65655 -103.01172,-68.1914 z" /><path
       id="path47"
       style="mix-blend-mode:overlay;fill:url(#radialGradient50);stroke-width:211.654;paint-order:markers fill stroke"
       d="m 427.34961,221.01367 c -6.98643,0.83792 -14.28156,2.25114 -21.88477,4.31836 -13.48358,3.66603 -34.54116,13.11713 -51.25,29.81836 a 67.882248,67.882248 0 0 0 13.48047,1.35352 67.882248,67.882248 0 0 0 59.6543,-35.49024 z" /><path
       id="path72"
       style="mix-blend-mode:overlay;fill:url(#linearGradient74);fill-opacity:1;stroke-width:211.654;paint-order:markers fill stroke"
       d="m 428.32422,246.80859 a 370.7341,370.7341 0 0 0 -73.00977,7.25977 c -15.69657,15.22503 -27.86195,36.68075 -26.92968,65.54102 1.41879,43.92111 35.16111,52.49523 57.19726,36.68359 6.68074,-4.79365 14.56669,-12.203 19.35156,-17.56836 4.78488,-5.36534 6.46833,-8.68629 8.62696,-10.19336 2.15863,-1.50707 4.7923,-1.1995 11.14257,-2.74023 37.78124,-10.68865 46.68539,-28.65214 53.35743,-64.86524 0.54209,-0.7704 1.93512,2.00441 5.65234,9.0918 14.43774,27.52747 26.66617,46.16315 37.18359,56.07422 6.2052,5.84746 11.0244,7.37306 14.98047,5.25781 7.25488,-3.87905 13.15818,-22.08274 10.15235,-39.0625 -1.37862,-7.78776 -6.86536,-19.57878 -16.4668,-31.38867 A 370.7341,370.7341 0 0 0 428.32422,246.80859 Z" /><path
       id="path10"
       style="mix-blend-mode:overlay;fill:url(#radialGradient59);stroke-width:211.654;paint-order:markers fill stroke"
       d="m 447.03906,220.12891 c -12.64694,-0.41875 -26.50533,1.10607 -41.57422,5.20312 -25.71794,6.9924 -78.99376,35.03482 -77.08007,94.27735 1.41879,43.92111 35.16111,52.49523 57.19726,36.68359 6.68074,-4.79365 14.56669,-12.203 19.35156,-17.56836 4.78488,-5.36534 6.46833,-8.68629 8.62696,-10.19336 2.15863,-1.50707 4.7923,-1.1995 11.14257,-2.74023 28.11839,-7.95495 40.24098,-19.9386 47.35352,-40.47657 -0.16031,-21.99654 -4.49486,-43.76271 -12.77344,-64.14257 -3.94676,-0.54779 -8.02849,-0.90339 -12.24414,-1.04297 z" /><path
       style="fill:url(#linearGradient133);fill-opacity:1;stroke-width:207.858;paint-order:markers fill stroke;filter:url(#filter30)"
       d="m 429.2374,219.79521 c -0.44378,-0.74858 -0.88763,-1.49733 -3.19185,-3.79949 -12.55064,-10.52906 -13.19848,-23.7861 -8.54147,-37.90206 1.09888,-3.15048 2.32894,-6.48855 2.32894,-6.48855 14.32558,21.09951 18.00517,22.85994 9.40438,48.1901 z"
       id="path29" /><path
       id="path59"
       style="mix-blend-mode:multiply;fill:url(#radialGradient61);stroke-width:211.654;paint-order:markers fill stroke"
       d="m 470.2168,223.24609 a 123.03658,123.03658 0 0 0 7.50976,39.4668 c 0.11195,-0.59029 0.22339,-1.18684 0.33399,-1.78711 0.54209,-0.7704 1.93512,2.00441 5.65234,9.0918 7.31788,13.95251 14.06924,25.61957 20.31641,35.02539 a 123.03658,123.03658 0 0 0 33.64648,25.0332 c 6.38703,-5.65952 11.10646,-22.23784 8.35352,-37.78906 -3.19361,-18.04052 -28.42596,-57.56361 -75.8125,-69.04102 z" /><path
       style="fill:url(#linearGradient63);fill-opacity:1;stroke-width:210.882;paint-order:markers fill stroke"
       d="m 451.5297,214.66049 c 17.54804,-35.93863 5.39686,-58.3548 -28.22651,-88.57069 -7.41351,-6.66215 -10.52683,-9.28529 -13.64311,-11.91097 -15.76496,27.38655 -42.81672,72.28219 -18.17527,102.06547 4.03693,4.64485 9.30909,8.53175 14.56837,9.36989 8.75962,0.41464 15.98848,-5.26904 28.19903,-4.87078 4.23362,0.13809 8.58211,1.1356 11.16697,0.96375 2.58211,-0.17165 3.40723,-1.5103 6.11052,-7.04667 z"
       id="path61" /><path
       style="display:inline;fill:url(#linearGradient29);fill-opacity:1;stroke-width:207.858;paint-order:markers fill stroke;filter:url(#filter31)"
       d="m 429.2374,219.79521 c -0.44378,-0.74858 -0.88763,-1.49733 -3.19185,-3.79949 -12.55064,-10.52906 -13.19848,-23.7861 -8.54147,-37.90206 1.09888,-3.15048 2.32894,-6.48855 2.32894,-6.48855 14.32558,21.09951 18.00517,22.85994 9.40438,48.1901 z"
       id="path31" /><path
       id="path64"
       style="mix-blend-mode:multiply;fill:url(#linearGradient66);fill-opacity:1;stroke-width:210.882;paint-order:markers fill stroke"
       d="m 425.20065,167.314 c -17.69638,0.19162 -34.2107,9.2983 -43.46767,24.06861 0.649,8.92218 3.56954,17.38859 9.75217,24.86132 4.03693,4.64488 9.30942,8.5312 14.5687,9.36936 8.75962,0.4146 15.98873,-5.26828 28.19927,-4.87002 4.23362,0.13807 8.58047,1.13638 11.16534,0.9646 2.5821,-0.1717 3.40804,-1.51132 6.11133,-7.04766 6.39328,-13.09358 8.84671,-24.36174 7.78506,-34.84105 -9.24364,-8.1678 -21.42206,-12.64255 -34.1142,-12.50516 z" /><path
       id="path66"
       style="mix-blend-mode:multiply;fill:url(#radialGradient68);fill-opacity:1;stroke-width:328.893;paint-order:markers fill stroke"
       d="m 409.66016,114.17969 c -3.95127,6.86405 -8.61253,14.82672 -12.99024,23.37695 a 112.07642,112.07642 0 0 0 62.35352,54.19922 c 3.33068,-23.75445 -9.82854,-42.39783 -35.72071,-65.66602 -7.41351,-6.66215 -10.52629,-9.28447 -13.64257,-11.91015 z" /><path
       id="path70"
       style="fill:url(#radialGradient2);fill-opacity:1;stroke-width:211.654;paint-order:markers fill stroke"
       d="m 396.90625,228.10742 c -27.36665,10.20495 -70.24169,38.24918 -68.52148,91.50196 0.3364,10.41406 2.48902,18.84003 5.87304,25.42578 a 155.56349,155.56349 0 0 0 62.64844,-116.92774 z" /><path
       id="path71"
       style="fill:url(#radialGradient71);fill-opacity:1;stroke-width:211.654;paint-order:markers fill stroke"
       d="m 396.90625,228.10742 c -27.36665,10.20495 -70.24169,38.24918 -68.52148,91.50196 0.3364,10.41406 2.48902,18.84003 5.87304,25.42578 a 155.56349,155.56349 0 0 0 62.64844,-116.92774 z" /><path
       id="path1"
       style="mix-blend-mode:multiply;fill:url(#linearGradient1);fill-opacity:1;stroke-width:210.882;paint-order:markers fill stroke"
       d="m 425.20065,167.314 c -17.69638,0.19162 -34.2107,9.2983 -43.46767,24.06861 0.649,8.92218 3.56954,17.38859 9.75217,24.86132 4.03693,4.64488 9.30942,8.5312 14.5687,9.36936 8.75962,0.4146 15.98873,-5.26828 28.19927,-4.87002 4.23362,0.13807 8.58047,1.13638 11.16534,0.9646 2.5821,-0.1717 3.40804,-1.51132 6.11133,-7.04766 6.39328,-13.09358 8.84671,-24.36174 7.78506,-34.84105 -9.24364,-8.1678 -21.42206,-12.64255 -34.1142,-12.50516 z" /><path
       id="path7"
       style="mix-blend-mode:overlay;fill:url(#radialGradient14);stroke-width:245.423;paint-order:markers fill stroke"
       d="m 427.06445,159.09961 a 43.984634,43.984634 0 0 0 -43.89257,41.11719 c 1.52537,5.66263 4.19882,11.05528 8.3125,16.02734 4.03692,4.64485 9.30907,8.531 14.56835,9.36914 8.75962,0.41464 15.98867,-5.2674 28.19922,-4.86914 4.23362,0.13809 8.58311,1.13474 11.16797,0.96289 2.58211,-0.17165 3.40609,-1.5105 6.10938,-7.04687 8.08825,-16.56487 9.86779,-30.25694 6.14258,-43.16407 a 43.984634,43.984634 0 0 0 -30.60743,-12.39648 z" /><path
       id="path16"
       style="fill:url(#radialGradient26);stroke-width:211.654;paint-order:markers fill stroke"
       d="m 413.32031,117.2832 a 139.80113,139.80113 0 0 0 40.71875,91.84961 c 13.71023,-32.77607 1.12984,-54.40621 -30.73633,-83.04297 -4.6813,-4.20685 -7.64693,-6.80318 -9.98242,-8.80664 z" /><path
       id="circle33"
       style="mix-blend-mode:overlay;fill:url(#radialGradient33);stroke-width:211.654;paint-order:markers fill stroke"
       d="m 409.66016,114.17969 c -15.76496,27.38655 -42.81724,72.28117 -18.17578,102.06445 4.03692,4.64485 9.30907,8.531 14.56835,9.36914 8.75962,0.41464 15.98867,-5.2674 28.19922,-4.86914 4.23362,0.13809 8.58311,1.13474 11.16797,0.96289 1.32102,-0.0878 2.18227,-0.48139 3.07031,-1.58594 a 95.910072,95.910072 0 0 0 4.70899,-29.6875 95.910072,95.910072 0 0 0 -12.16992,-46.75781 c -4.98154,-5.65977 -10.91317,-11.46303 -17.72657,-17.58594 -7.41351,-6.66215 -10.52629,-9.28447 -13.64257,-11.91015 z" /><path
       id="path57"
       style="mix-blend-mode:overlay;fill:url(#radialGradient64);stroke-width:211.654;paint-order:markers fill stroke"
       d="m 409.66016,114.17969 c -8.24432,14.32184 -19.57578,33.43089 -24.98633,52.66406 a 108.92005,108.92005 0 0 0 60.41015,-18.32422 c -5.70231,-7.19808 -13.01155,-14.54873 -21.78125,-22.42969 -7.41351,-6.66215 -10.52629,-9.28447 -13.64257,-11.91015 z" /><path
       style="fill:#e3e1f0;fill-opacity:1;stroke-width:207.858;paint-order:markers fill stroke"
       d="m 429.2374,219.79521 c -0.44378,-0.74858 -0.88763,-1.49733 -3.19185,-3.79949 -12.55064,-10.52906 -13.19848,-23.7861 -8.54147,-37.90206 1.09888,-3.15048 2.32894,-6.48855 2.32894,-6.48855 14.32558,21.09951 18.00517,22.85994 9.40438,48.1901 z"
       id="path63" /><path
       id="path36"
       style="mix-blend-mode:normal;fill:#d7bcc3;fill-opacity:1;stroke-width:213.333;paint-order:markers fill stroke"
       d="m 484.04297,270.64453 c 14.29438,27.18335 26.41621,45.6117 36.85351,55.44727 6.2052,5.84746 11.0244,7.37306 14.98047,5.25781 5.82738,-3.11579 10.78249,-15.47354 10.94922,-29.01563 -1.08039,12.39252 -5.82182,23.06582 -11.29492,25.99219 -4.16272,2.22574 -9.23434,0.62166 -15.76367,-5.53125 -10.17046,-9.5841 -21.86011,-26.92275 -35.47852,-52.15039 z" /><path
       style="fill:url(#linearGradient105);stroke-width:211.654;paint-order:markers fill stroke"
       d="m 431.54398,874.47137 c -2.60256,4.61936 -6.11063,9.9612 -9.73833,13.50915 -3.6277,3.54795 -7.37488,5.30195 -11.79988,5.26207 -7.28481,-0.0657 -17.64065,-5.02045 -20.72947,-13.11541 -1.15607,-3.02973 -1.36182,-6.23056 1.59463,-9.12897 7.93395,-7.77821 22.30717,-18.70094 29.4792,-15.62272 3.50529,1.50446 8.11073,2.20478 11.07209,3.48536 2.96135,1.28059 4.53987,2.23898 4.4806,4.66666 -0.0593,2.42769 -1.75628,6.3245 -4.35884,10.94386 z"
       id="path100"
       transform="translate(-59.821884,-487.9408)" /><path
       id="path109"
       style="fill:url(#linearGradient111);fill-opacity:1;stroke-width:211.654;paint-order:markers fill stroke"
       d="m 357.52734,366.90234 c -7.66429,0.13486 -19.53631,9.34837 -26.47851,16.1543 -2.95645,2.89841 -2.74982,6.09918 -1.59375,9.12891 1.95393,5.12073 6.81577,8.98553 11.96875,11.15039 a 55.136547,55.136547 0 0 0 19.15234,-35.88086 c -0.0158,-0.007 -0.033,-0.0127 -0.0488,-0.0195 -0.8965,-0.38478 -1.9051,-0.55247 -3,-0.53321 z" /><path
       id="path113"
       style="fill:url(#linearGradient113);fill-opacity:1;stroke-width:211.654;paint-order:markers fill stroke"
       d="m 357.52734,366.90234 c -7.66429,0.13486 -19.53631,9.34837 -26.47851,16.1543 -2.95645,2.89841 -2.74982,6.09918 -1.59375,9.12891 1.95393,5.12073 6.81577,8.98553 11.96875,11.15039 a 55.136547,55.136547 0 0 0 19.15234,-35.88086 c -0.0158,-0.007 -0.033,-0.0127 -0.0488,-0.0195 -0.8965,-0.38478 -1.9051,-0.55247 -3,-0.53321 z" /><path
       id="path119"
       style="fill:url(#linearGradient121);fill-opacity:1;stroke-width:116.557;paint-order:markers fill stroke"
       d="m 369.63281,414.74414 c -1.12616,0.8172 -3.83698,2.73036 -6.30859,6.03906 -16.96523,22.7116 5.9362,29.92282 17.38086,29.82032 3.79434,-0.0339 7.53201,-0.84501 10.64844,-1.55274 a 24.028357,24.028357 0 0 0 2.30859,-10.27734 24.028357,24.028357 0 0 0 -24.0293,-24.0293 z" /><path
       style="fill:#f4b800;fill-opacity:1;stroke-width:221.196;paint-order:markers fill stroke"
       d="m 495.35533,299.2072 c 1.77759,1.9071 3.25886,5.2698 3.93603,8.9198 0.67717,3.65 0.5502,7.5869 -0.0846,10.6012 -0.63486,3.0142 -1.77756,5.1056 -3.25889,6.4589 -5.52946,5.0519 -12.0986,-0.8333 -13.33181,-10.2935 -1.8215,-13.9732 5.9771,-22.9408 12.73932,-15.6864 z"
       id="path9" /><path
       id="path27"
       style="fill:url(#linearGradient134);fill-opacity:1;stroke-width:211.654;paint-order:markers fill stroke"
       d="m 491.82617,308.10547 a 21.608639,21.608639 0 0 0 -9.47265,2.1875 c -0.0286,1.45638 0.0524,2.99598 0.26171,4.60156 1.23321,9.4602 7.80258,15.34487 13.33204,10.29297 1.48133,-1.3533 2.6249,-3.44478 3.25976,-6.45898 0.55483,-2.63456 0.72162,-5.97437 0.30274,-9.21094 a 21.608639,21.608639 0 0 0 -7.6836,-1.41211 z" /><path
       id="path33"
       style="fill:url(#linearGradient31);fill-opacity:1;stroke-width:211.654;paint-order:markers fill stroke"
       d="m 491.82617,308.10547 a 21.608639,21.608639 0 0 0 -9.47265,2.1875 c -0.0286,1.45638 0.0524,2.99598 0.26171,4.60156 1.23321,9.4602 7.80258,15.34487 13.33204,10.29297 1.48133,-1.3533 2.6249,-3.44478 3.25976,-6.45898 0.55483,-2.63456 0.72162,-5.97437 0.30274,-9.21094 a 21.608639,21.608639 0 0 0 -7.6836,-1.41211 z" /><path
       id="path8"
       style="fill:url(#linearGradient27);fill-opacity:1;stroke-width:221.196;paint-order:markers fill stroke"
       d="m 490.14844,296.63672 c -4.30623,0.19687 -7.89438,6.08592 -7.79883,14.54687 0.12951,-11.36439 6.97922,-17.78363 13.00586,-11.31836 1.77759,1.9071 3.25838,5.26993 3.93555,8.91993 0.29127,1.57 0.43387,3.19352 0.45117,4.77343 0.0195,-1.78425 -0.1193,-3.64283 -0.45117,-5.43164 -0.67717,-3.65 -2.15796,-7.01282 -3.93555,-8.91992 -1.72743,-1.85315 -3.52199,-2.64735 -5.20703,-2.57031 z" /><path
       id="path42"
       style="fill:url(#linearGradient69);fill-opacity:1;stroke-width:211.654;paint-order:markers fill stroke"
       d="m 464.64453,309.04492 c -4.75478,-0.1652 -10.26394,1.05193 -14.79883,3.83203 -6.04652,3.7068 -10.36046,10.1914 -11.95312,14.6875 -0.39416,1.11272 -0.62054,2.10348 -0.71289,2.99219 0.20128,1.73982 1.00508,3.00452 2.02343,4.03906 8.83273,8.973 40.05593,3.99801 43.76368,-5.05859 0.12576,-0.3072 0.21221,-0.61957 0.26562,-0.93359 -0.18183,-1.27767 -0.68777,-2.57036 -1.09765,-3.81641 -0.7047,-2.1423 -1.12775,-4.1439 -2.86133,-7.0332 -1.73358,-2.8893 -4.77725,-6.66635 -10.18946,-8.08985 -1.35305,-0.3559 -2.85452,-0.56407 -4.43945,-0.61914 z" /><path
       id="path95"
       style="mix-blend-mode:overlay;fill:url(#radialGradient101);stroke-width:150.125;paint-order:markers fill stroke"
       d="m 449.8457,314.95898 a 75.55442,75.55442 0 0 0 -75.55468,75.55469 75.55442,75.55442 0 0 0 26.27929,57.27539 c 0.0625,0.007 0.12572,0.015 0.1875,0.0234 2.03312,0.2791 3.70749,1.23594 5.82031,2.71094 2.11283,1.475 4.66292,3.46736 9.0879,5.38086 18.33205,7.568 36.00112,4.20227 53.67382,-3.39453 3.94345,-1.1896 5.52261,-0.51278 9.52539,0.10742 3.17738,0.49231 7.88157,0.94977 12.35157,1.11719 a 75.55442,75.55442 0 0 0 24.43359,-26.09571 c -1.57781,-2.40275 -3.70151,-4.78913 -6.37109,-7.07031 -1.55038,-1.3249 -1.7188,-1.60691 -0.15821,-4.94141 6.01242,-12.66506 10.77058,-26.39298 14.72071,-40.38281 a 75.55442,75.55442 0 0 0 -73.9961,-60.28516 z" /><path
       id="path75"
       style="fill:url(#linearGradient75);fill-opacity:1;stroke-width:211.654;paint-order:markers fill stroke"
       d="m 464.64453,309.04492 c -4.75478,-0.1652 -10.26394,1.05193 -14.79883,3.83203 -6.04652,3.7068 -10.36046,10.1914 -11.95312,14.6875 -0.39416,1.11272 -0.62054,2.10348 -0.71289,2.99219 0.20128,1.73982 1.00508,3.00452 2.02343,4.03906 8.83273,8.973 40.05593,3.99801 43.76368,-5.05859 0.12576,-0.3072 0.21221,-0.61957 0.26562,-0.93359 -0.18183,-1.27767 -0.68777,-2.57036 -1.09765,-3.81641 -0.7047,-2.1423 -1.12775,-4.1439 -2.86133,-7.0332 -1.73358,-2.8893 -4.77725,-6.66635 -10.18946,-8.08985 -1.35305,-0.3559 -2.85452,-0.56407 -4.43945,-0.61914 z" /><path
       id="path83"
       style="fill:url(#linearGradient85);fill-opacity:1;stroke-width:211.654;paint-order:markers fill stroke"
       d="m 448.95703,340.77344 a 16.244646,16.244646 0 0 0 -3.43555,0.36718 c 0.042,1.60814 0.16953,3.13674 0.44727,4.5254 2.47422,12.37116 11.82169,9.45657 17.19922,3.47851 a 16.244646,16.244646 0 0 0 -14.21094,-8.37109 z" /><path
       id="path88"
       style="mix-blend-mode:overlay;fill:url(#radialGradient134);stroke-width:211.654;paint-order:markers fill stroke"
       d="m 490.44141,305.85742 a 19.280878,19.280878 0 0 0 -7.89453,1.68946 c -0.27541,2.21659 -0.27774,4.69271 0.0684,7.34765 1.23321,9.4602 7.80258,15.34487 13.33204,10.29297 1.48133,-1.3533 2.6249,-3.44478 3.25976,-6.45898 0.6348,-3.0143 0.76116,-6.95157 0.084,-10.60157 -0.008,-0.0437 -0.0151,-0.0873 -0.0234,-0.13086 a 19.280878,19.280878 0 0 0 -8.82617,-2.13867 z" /><path
       id="path94"
       style="mix-blend-mode:multiply;fill:url(#linearGradient93);fill-opacity:1;stroke-width:213.333;paint-order:markers fill stroke"
       d="m 490.99414,296.66992 c 2.78885,4.8661 5.7033,9.73823 8.66992,14.38477 -0.0722,-0.98079 -0.19437,-1.96468 -0.37304,-2.92774 -0.67717,-3.65 -2.15796,-7.01282 -3.93555,-8.91992 -1.44132,-1.54622 -2.92904,-2.3562 -4.36133,-2.53711 z" /><path
       id="path93"
       style="fill:#e5d3ca;fill-opacity:0.69909;stroke-width:211.654;paint-order:markers fill stroke"
       d="m 401.00391,442.90625 c -1.18362,0.034 -2.3971,0.34668 -3.63282,0.94727 -7.31876,3.55707 -19.83922,6.41493 -29.30078,4.40234 0.0126,0.005 0.0245,0.0107 0.0371,0.0156 0.94757,0.37036 1.92073,0.68013 2.89649,0.95704 1.52679,0.43282 3.05894,0.74162 4.54492,0.96289 0.33412,0.0497 0.66038,0.0892 0.98828,0.1289 1.47053,0.17721 2.90696,0.2945 4.16797,0.28321 4.46486,-0.0399 8.84976,-1.15667 12.23828,-1.91407 3.38853,-0.7575 5.78134,-1.15595 7.81445,-0.87695 0.21944,0.0301 0.4332,0.0701 0.64453,0.11719 0.20601,0.0444 0.40845,0.0994 0.60938,0.1582 0.006,0.002 0.0118,0.002 0.0176,0.004 0.56494,0.1664 1.11505,0.38201 1.66797,0.65625 0.91705,0.45484 1.84724,1.0538 2.88085,1.77539 0.0751,0.0524 0.15032,0.10451 0.22657,0.1582 1.01079,0.7118 2.14541,1.54031 3.52343,2.41016 0.60062,0.37893 1.27713,0.76817 1.98829,1.16015 0.13356,0.0736 0.23896,0.14491 0.37695,0.21875 0.89042,0.47659 1.87223,0.95774 2.97266,1.4336 2.36492,0.97631 4.71821,1.75602 7.0625,2.38281 0.80738,0.21584 1.60889,0.31747 2.41406,0.49414 1.53929,0.33782 3.07953,0.68773 4.61133,0.88867 0.93029,0.12201 1.85541,0.14278 2.7832,0.2168 1.39611,0.11132 2.79267,0.23837 4.18359,0.24609 0.9891,0.006 1.9742,-0.0731 2.96094,-0.11719 1.58195,-0.0708 3.16553,-0.11178 4.74219,-0.30273 1.8306,-0.22171 3.65566,-0.55175 5.48047,-0.92187 2.72706,-0.55316 5.44776,-1.3043 8.16601,-2.14844 3.76012,-1.16761 7.51546,-2.51908 11.26953,-4.13281 0.98587,-0.2974 1.82471,-0.47813 2.58985,-0.57227 0.51717,-0.0637 0.9971,-0.0765 1.4707,-0.0703 0.11689,0.002 0.23948,0.005 0.35547,0.01 0.19423,0.009 0.4287,0.0352 0.62305,0.0527 1.29416,0.11957 2.62537,0.39916 4.48632,0.6875 4.00277,0.6202 10.43014,1.18359 15.75782,1.18359 1.78557,0 3.45572,-0.0985 5.04687,-0.26172 0.45475,-0.0508 0.86922,-0.13335 1.3125,-0.19336 0.20835,-0.0282 0.39842,-0.0705 0.60547,-0.0996 0.86778,-0.13136 1.74556,-0.25386 2.54883,-0.43359 0.46025,-0.10889 0.89301,-0.23739 1.33789,-0.35742 0.2443,-0.0659 0.4675,-0.14699 0.70898,-0.21485 0.62973,-0.18679 1.26998,-0.36612 1.85352,-0.58398 0.79367,-0.29271 1.57194,-0.59481 2.27734,-0.94336 0.2377,-0.11745 0.4642,-0.24154 0.69141,-0.36523 0.35656,-0.19264 0.71975,-0.38165 1.05273,-0.58789 1.70083,-1.05349 3.09534,-2.28079 4.17969,-3.64258 -3.08924,5.19652 -30.19994,7.84852 -44.0918,0.93945 -18.44159,7.8047 -36.88013,11.26338 -56.00976,3.48828 -4.61749,-1.9659 -7.27962,-4.01399 -9.48438,-5.5293 -1.78448,-1.44855 -3.67574,-2.16596 -5.64843,-2.10937 z" /><path
       id="path106"
       style="mix-blend-mode:overlay;fill:url(#radialGradient89);stroke-width:211.654;paint-order:markers fill stroke"
       d="m 490.44141,305.85742 a 19.280878,19.280878 0 0 0 -7.89453,1.68946 c -0.27541,2.21659 -0.27774,4.69271 0.0684,7.34765 1.23321,9.4602 7.80258,15.34487 13.33204,10.29297 1.48133,-1.3533 2.6249,-3.44478 3.25976,-6.45898 0.6348,-3.0143 0.76116,-6.95157 0.084,-10.60157 -0.008,-0.0437 -0.0151,-0.0873 -0.0234,-0.13086 a 19.280878,19.280878 0 0 0 -8.82617,-2.13867 z" /><path
       id="path107"
       style="fill:url(#radialGradient117);stroke-width:211.654;paint-order:markers fill stroke"
       d="m 358.125,386.64258 c 4.50025,11.25064 9.52349,22.91552 10.9707,25.45117 1.20593,2.1128 1.66327,1.83319 0.53711,2.65039 -1.12616,0.8172 -3.83698,2.73036 -6.30859,6.03906 -16.96523,22.7116 5.9362,29.92282 17.38086,29.82032 4.46486,-0.0399 8.84976,-1.15667 12.23828,-1.91407 3.38853,-0.7575 5.78134,-1.15595 7.81445,-0.87695 2.03312,0.2791 3.70749,1.23594 5.82031,2.71094 2.11283,1.475 4.66292,3.46736 9.0879,5.38086 5.31249,2.19315 10.56977,3.46837 15.7871,3.98828 a 104.01895,104.01895 0 0 0 -73.32812,-73.25 z" /><path
       id="path117"
       style="fill:url(#radialGradient124);stroke-width:211.654;paint-order:markers fill stroke"
       d="m 533.98828,378.27734 a 26.624975,26.624975 0 0 0 -19.18945,20.0586 c 3.45889,4.03462 6.21393,5.24927 8.79492,5.58594 2.75068,0.3588 5.30207,-0.27859 8.05273,-2.55079 2.75065,-2.2723 5.70168,-6.17986 6.9375,-9.56836 1.23583,-3.3885 0.7564,-6.25939 -1.79492,-9.96679 -0.76992,-1.1188 -1.72889,-2.31252 -2.80078,-3.5586 z" /><circle
       style="display:inline;opacity:0.606692;mix-blend-mode:overlay;fill:url(#radialGradient77);fill-opacity:1;stroke-width:101.286;paint-order:markers fill stroke;filter:url(#filter128)"
       id="circle127"
       cx="413.31458"
       cy="170.3009"
       r="131.86003" /><path
       id="path129"
       style="opacity:1;mix-blend-mode:overlay;fill:url(#radialGradient131);stroke-width:353.81;paint-order:markers fill stroke"
       d="m 496.40234,300.54492 a 91.667519,91.667519 0 0 0 -14.04492,9.5332 c -0.0414,1.51943 0.0382,3.13183 0.25781,4.81641 1.23321,9.4602 7.80258,15.34487 13.33204,10.29297 1.48133,-1.3533 2.6249,-3.44478 3.25976,-6.45898 0.6348,-3.0143 0.76116,-6.95157 0.084,-10.60157 -0.5391,-2.90574 -1.58656,-5.6299 -2.88868,-7.58203 z" /><path
       id="path131"
       style="mix-blend-mode:multiply;fill:#e5d3ca;fill-opacity:0.178835;stroke-width:211.654;paint-order:markers fill stroke"
       d="m 401.00391,442.90625 c -1.18362,0.034 -2.3971,0.34668 -3.63282,0.94727 -7.31876,3.55707 -19.83922,6.41493 -29.30078,4.40234 0.0126,0.005 0.0245,0.0107 0.0371,0.0156 0.94757,0.37036 1.92073,0.68013 2.89649,0.95704 1.52679,0.43282 3.05894,0.74162 4.54492,0.96289 0.33412,0.0497 0.66038,0.0892 0.98828,0.1289 1.47053,0.17721 2.90696,0.2945 4.16797,0.28321 4.46486,-0.0399 8.84976,-1.15667 12.23828,-1.91407 3.38853,-0.7575 5.78134,-1.15595 7.81445,-0.87695 0.21944,0.0301 0.4332,0.0701 0.64453,0.11719 0.20601,0.0444 0.40845,0.0994 0.60938,0.1582 0.006,0.002 0.0118,0.002 0.0176,0.004 0.56494,0.1664 1.11505,0.38201 1.66797,0.65625 0.91705,0.45484 1.84724,1.0538 2.88085,1.77539 0.0751,0.0524 0.15032,0.10451 0.22657,0.1582 1.01079,0.7118 2.14541,1.54031 3.52343,2.41016 0.60062,0.37893 1.27713,0.76817 1.98829,1.16015 0.13356,0.0736 0.23896,0.14491 0.37695,0.21875 0.89042,0.47659 1.87223,0.95774 2.97266,1.4336 2.36492,0.97631 4.71821,1.75602 7.0625,2.38281 0.80738,0.21584 1.60889,0.31747 2.41406,0.49414 1.53929,0.33782 3.07953,0.68773 4.61133,0.88867 0.93029,0.12201 1.85541,0.14278 2.7832,0.2168 1.39611,0.11132 2.79267,0.23837 4.18359,0.24609 0.9891,0.006 1.9742,-0.0731 2.96094,-0.11719 1.58195,-0.0708 3.16553,-0.11178 4.74219,-0.30273 1.8306,-0.22171 3.65566,-0.55175 5.48047,-0.92187 2.72706,-0.55316 5.44776,-1.3043 8.16601,-2.14844 3.76012,-1.16761 7.51546,-2.51908 11.26953,-4.13281 0.98587,-0.2974 1.82471,-0.47813 2.58985,-0.57227 0.51717,-0.0637 0.9971,-0.0765 1.4707,-0.0703 0.11689,0.002 0.23948,0.005 0.35547,0.01 0.19423,0.009 0.4287,0.0352 0.62305,0.0527 1.29416,0.11957 2.62537,0.39916 4.48632,0.6875 4.00277,0.6202 10.43014,1.18359 15.75782,1.18359 1.78557,0 3.45572,-0.0985 5.04687,-0.26172 0.45475,-0.0508 0.86922,-0.13335 1.3125,-0.19336 0.20835,-0.0282 0.39842,-0.0705 0.60547,-0.0996 0.86778,-0.13136 1.74556,-0.25386 2.54883,-0.43359 0.46025,-0.10889 0.89301,-0.23739 1.33789,-0.35742 0.2443,-0.0659 0.4675,-0.14699 0.70898,-0.21485 0.62973,-0.18679 1.26998,-0.36612 1.85352,-0.58398 0.79367,-0.29271 1.57194,-0.59481 2.27734,-0.94336 0.2377,-0.11745 0.4642,-0.24154 0.69141,-0.36523 0.35656,-0.19264 0.71975,-0.38165 1.05273,-0.58789 1.70083,-1.05349 3.09534,-2.28079 4.17969,-3.64258 -3.08924,5.19652 -30.19994,7.84852 -44.0918,0.93945 -18.44159,7.8047 -36.88013,11.26338 -56.00976,3.48828 -4.61749,-1.9659 -7.27962,-4.01399 -9.48438,-5.5293 -1.78448,-1.44855 -3.67574,-2.16596 -5.64843,-2.10937 z" /></g></svg>
