<svg xmlns="http://www.w3.org/2000/svg" xmlns:xlink="http://www.w3.org/1999/xlink" xml:space="preserve" width="1800" height="2000"><defs><linearGradient id="b"><stop offset="0" stop-color="#0196dc"/><stop offset=".5" stop-color="#37c5f2"/><stop offset="1" stop-color="#c6ebfb"/></linearGradient><linearGradient id="a"><stop offset="0" stop-color="#271d21"/><stop offset="1" stop-color="#271d21" stop-opacity="0"/></linearGradient><linearGradient xlink:href="#a" id="d" x1="491.309" x2="447.539" y1="1116.569" y2="862.088" gradientTransform="translate(227.78 -66.863)scale(1.38517)" gradientUnits="userSpaceOnUse"/><linearGradient xlink:href="#b" id="c" x1="-672.929" x2="-703.373" y1="-279.909" y2="1549.793" gradientTransform="matrix(1.36407 0 0 1.10472 1733.087 265.902)" gradientUnits="userSpaceOnUse"/></defs><rect width="1798.277" height="1998.277" x="1.723" y="1.723" fill="url(#c)" fill-rule="evenodd" ry="2.296"/><path fill="#ffe8f0" fill-rule="evenodd" d="M402.358 422.996c-31.175-1.086-68.089 93.616-92.49 139.766-10.471 19.806 15.093 196.179 33.352 216.31 11.692 12.892 12.986 35.981 22.172 51.304 7.62 12.707 20.623 65.125 23.057 66.738.29.193 10.67 28.786 30.596 76.227 19.072 45.41 37.635 91.012 43.68 91.617 30.819 3.075 154.217-43.71 173.165-40.174 8.86 1.653-108.522-135.746-107.187-135.856 1.93-.161 2.735-1.73 3.931-7.64.827-4.088 2.966-11.338 4.755-16.107 1.787-4.771 5.5-15.086 8.25-22.924 2.748-7.837 8.472-19.238 9.469-25.203l2.635-15.754c-16.78-.708 97.646-45.166 69.881-80.493 1.943-1.753-17.659-46.279-18.49-51.893-3.439-23.2-50.752-100.218-54.858-96.237l-3.726-16.355-6.153-7.632c-23.744-39.521-107.164-115.67-121.645-116.508l-5.628-.325c-4.714-5.94-9.664-8.683-14.766-8.86m887.348-51.523c-27.299-5.691-161.566 36.575-286.268 149.35-51.717 46.768-40.795 37.626-81.679 82.851-51.596 57.074-116.195 153.487-118.069 212.11-5.813 181.92 41.444 314.42 76.652 302.273 86.608-29.88 420.872-16.382 420.872-16.382s78.024-368.48 89.538-374.113c14.576-7.131 26.958-25.798 34.787-46.352 6.615-17.366 22.923-97.774 16.425-109.667-4.035-7.384 18.762-45.423 12.021-54.21-52.202-68.058-89.475-130.263-164.28-145.86"/><path fill="#d999a7" fill-rule="evenodd" d="M814.393 774.712c13.3 13.3 30.988 28.822 42.387 48.613 11.4 19.792 20.9 46.075 20.9 69.507s-9.5 44.016-12.825 55.733-.475 14.566 5.7 14.566 15.674-2.85 36.891-6.017c21.217-3.166 54.149-6.65 84.707-6.966s58.74 2.533 92.94 10.45 74.414 20.899 104.496 35.782c30.084 14.883 50.034 31.666 62.224 47.183s16.625 29.766 19 47.498c2.375 17.734 2.692 38.95-1.425 53.833-4.116 14.883-14.01-.75-25.568 5.9s-37.545 19.124-45.879 31.01c-8.335 11.886 2.324 47.365-2.87 68.072-5.196 20.707-13.48 43.097-27.363 62.578-13.883 19.48-33.362 36.05-51.612 45.454s-35.265 11.643-58.777 8.06c-23.51-3.582-46.797-22.39-66.726-33.922s-36.497-15.785-57.426-44.52-56.306-69.551-73.526-92.387c-20.428-27.09-27.27-22.84-30.631-8.775-1.484 6.207-.054 12.878-4.122 40.796-4.026 27.624-27.032 69.06-49.332 97.28-23.394 29.605-69.113 25.604-99.39-2.743-30.205-28.28-47.95-85.903-60.893-117.546 7.352-43.795-1.06-41.897-56.355-51.929-42.078-20.387-106.948-45.194-68.77-101.299 12.317-17.689 28.661-38.512 51.39-50.939s51.834-16.458 88.815-19.776 81.83-5.922 114.545-39.684c32.718-33.76 31.126-123.9 69.495-165.812"/><path fill="#7694a2" fill-rule="evenodd" d="M872.604 1148.473a2.6 2.6 0 0 0-1.897.742l-9.809 9.685h-.003a215 215 0 0 1-8.14 7.61c-2.529 2.242-4.7 4.022-5.546 4.58-2.217 1.465-4.072 3.492-4.74 6.992-.653 3.424-.67 8.3-.642 17.262.076 24.68 4.093 58.568 9.478 79.738 4.513 17.743 13.887 37.82 24.891 55.308 11.004 17.486 23.525 32.363 35.001 39.64 5.755 3.65 13.18 6.962 18.208 7.085 4.894.121 8.598-2.351 11.154-6.253 1.465-2.236 1.982-5.2 2.263-8.615.279-3.414.29-7.306.523-11.4.476-8.353.071-18.606-1.111-30.116-2.366-23.018-7.857-51.04-15.894-78.354-9.063-30.803-27.605-66.177-44.906-85.33h-.003l-6.975-7.72a2.6 2.6 0 0 0-1.85-.852zm-117.685 43.14c-.12 0-.257 0-.512.045-.255.041-.665-.13-1.62.824-.986.987-.749 1.19-.825 1.456a7 7 0 0 0-.165.724 27 27 0 0 0-.247 1.693 117 117 0 0 0-.46 4.88c-.285 3.744-.513 8.136-.522 11.251-.058 20.304 4.093 55.21 9.323 78.728 5.132 23.082 17.688 54.363 29.02 72.133 6.843 10.733 17.244 19.872 26.593 22.366 3.274.875 6.48.883 9.347-.217s5.247-3.259 7.079-6.127c3.663-5.737 5.552-14.36 6.387-26.28 1.508-21.55-3.77-65.96-11.17-95.454-4.5-17.932-8.74-29.384-17.061-46.095-2.538-5.094-4.448-8.736-5.991-11.343-1.544-2.608-2.582-4.196-4.147-5.348-1.306-.963-3.171-1.806-5.528-1.936-2.357-.131-5.48.11-11.149.569-8.262.67-16.041.278-23.359-1.145a70 70 0 0 0-3.256-.561 19 19 0 0 0-1.166-.139 5 5 0 0 0-.572-.023zm-100.753-135.119c-4.753-.14-11.404.926-14.524 2.506-4.704 2.384-9.167 7.14-11.448 12.16-7.164 15.764-.751 37.356 13.933 47.019 2.842 1.87 6.299 3.401 9.357 4.125 1.364.323 4.306.72 6.652.926.383.033 1.024.034 2.049.037 1.026 0 2.333 0 3.676-.016 5.199-.054 7.092-.252 8.89-1.026.318-.135.578-.247.84-.409.263-.162.606-.435.74-.906.135-.47-.008-.873-.142-1.151s-.29-.514-.485-.805c-1.034-1.55-3.45-3.938-7.071-7.165a101 101 0 0 1-4.314-4.077 45 45 0 0 1-1.528-1.605c-.371-.417-.609-.757-.616-.759.032-.091.153-.385.462-1.009.719-1.449 1.899-3.39 4.353-7.133a50 50 0 0 0 2.603-4.487c.359-.705.664-1.358.894-1.92.231-.564.394-.994.45-1.481.022-.195.05-.379.038-.63a1.9 1.9 0 0 0-.225-.808c-.269-.488-.596-.763-1.173-1.338-1.525-1.523-4.156-3.485-6.794-5.109-3.937-2.424-6.31-4.064-7.607-5.345s-1.555-2.046-1.558-3.317c-.004-1.691.646-3.356 3.232-7.7a94 94 0 0 0 2.36-4.171q.443-.84.703-1.42c.086-.191.154-.36.21-.521s.12-.265.12-.594c0-.32-.125-.772-.411-1.077-.287-.307-.625-.443-.955-.534-.663-.181-1.451-.223-2.711-.259z"/><path fill="#94c5ca" fill-rule="evenodd" d="M659.178 1105.384c-14.175-1.046-25.227-6.588-31.876-19.32l-1.05-2.15.103-1.403c.203-2.806.936-6.28 1.833-8.708.95-2.572 2.605-5.538 4.196-7.523.832-1.04 2.615-2.84 3.663-3.7 1.193-.977 3.004-2.167 4.132-2.713 2.223-1.077 6.774-2.038 11.161-2.357 1.322-.097 1.542-.082 3.028.224 2.515.516 2.851.61 2.851.808 0 .275-1.61 3.292-3.084 5.778-2.637 4.45-3.411 6.209-3.538 8.045-.208 3.055 1.764 5.177 8.581 9.234.588.35 1.772 1.106 2.632 1.678 1.485.991 4.439.397 6.634 2.795l2.31 2.524-.205.597c-.237.69-1.35 2.943-2.053 4.161-.264.457-4.023 2.805-4.98 4.275-1.897 4.272-.29 5.759-4.338 7.755"/><path fill="#fda4b8" fill-rule="evenodd" d="M687.566 727.836a4.626 4.626 0 0 0-4.825 3.183l-2.073 6.405.171-3.278a4.628 4.628 0 0 0-4.905-4.86l-9.498.587c-14.314.88-31.376 5.624-47.26 12.975-9.245 4.278-14.666 6.32-17.788 11.417-1.562 2.548-1.824 5.685-1.345 8.436.417 2.396 1.366 4.885 2.42 7.672l-4.388-9.278c-1.325-2.803-4.981-3.535-7.284-1.456l-6.656 7.51c-6.417 5.796-16.197 17.772-23.733 29.821-3.77 6.024-7.11 11.823-9.403 16.473-1.147 2.325-2.032 4.332-2.61 6.156-.29.913-.521 1.76-.599 2.83s-3.89 8.932-2.12 10.702c1.883 1.884 6.96-4.68 7.63-4.742s1.052-.181 1.43-.298c.757-.234 1.414-.516 2.163-.867 1.498-.698 3.268-1.663 5.148-2.81 11.141-6.793 28.838-1.988 37.41 11.179 9.49 14.575 12.548 27.393 12.484 53.807-.056 23.212-4.491 43.317-12.025 58.228s-17.96 24.495-30.247 27.78c-1.19.319-2.194.364-3.899 1.578-.852.606-2.032 1.938-2.29 3.637-.259 1.698.326 3.016.82 3.844.99 1.654 2.018 2.463 3.478 3.717s3.348 2.76 5.83 4.72c17.568 13.888 46.157 26.71 73.55 33.85a4.63 4.63 0 0 0-1.212 2.687l1.328 7.802c1.02 5.993-1.015 9.653.808 13.408s5.717 6.006 9.56 6.775c.121.025.069.031.183.059-.818 1.937-1.639 3.889-2.813 6.636l-3.056 7.138a4.626 4.626 0 0 0 1.59 5.603l8.579 6.051c4.653 3.279 6.104 5.194 6.219 5.652s-.198 2.192-2.88 6.594l-3.945 6.47a4.626 4.626 0 0 0 .829 5.826l7.751 7.085c3.392 3.1 4.965 5.387 5.54 6.408-1.203.382-2.362.76-3.632 1.65-1.317.924-2.628 2.76-2.954 4.548-.654 3.574.579 5.833 2.008 9.587 4.407 11.593 16.43 23.491 30.623 33.784s30.498 18.667 44.482 21.017c16.595 2.79 43.152 2.468 56.693-1.043 31.124-8.07 62.753-31.575 74.799-56.53 21.187-43.894 3.178-99.132-46.08-147.778-6.28-6.202-9.933-9.73-13.132-11.881-1.6-1.077-3.239-1.925-5.282-2.068s-4.015.719-5.206 1.559c-.233.163-.93.556-1.265.776.578-.567.662-.786 1.322-1.407 12.28-11.527 19.943-22.32 29.614-41.56 14.917-29.675 17.289-53.356 12.148-77.817-13.5-64.243-77.341-118.143-149.615-124.791h-.002zm63.82 51.696c11.023.528 23.667 4.927 36.642 14.027 26.52 18.603 46.098 55.794 46.308 87.893.144 21.998-6.242 35.99-19.438 44.723-6.05 4.003-8.173 4.548-18.969 4.917-13.134.448-20.426-1.407-30.135-7.546-31.832-20.132-55.744-61.982-55.898-97.303-.069-15.881 4.56-27.771 11.895-35.562s17.47-11.731 29.596-11.15m-65.595 134.76c13.336-.01 23.11 4.103 28.638 10.214s7.402 14.326 4.074 24.784c-1.1 3.456-2.389 9.046-3.081 13.22-.252 1.52-.792 3.355-1.407 4.85-.6 1.457-1.42 2.603-1.386 2.583-.28-.187-1.501-.78-4.347-2.873l-7.379-5.426a4.63 4.63 0 0 0-3.501-.837l-18.118 3.015c-8.564 1.425-13.249 2.183-17.045 3.778s-6.158 4.511-8.019 7.575c-.821 1.353-1.863 2.631-2.674 3.414-.386-.252-.72-.45-1.243-.854-1.646-1.273-3.773-3.186-5.904-5.325-4.264-4.277-8.68-9.771-10.02-12.362-2.83-5.474-2.802-11.814-.023-18.39s8.409-13.21 16.464-18.322c10.91-6.922 18.923-9.031 34.971-9.045m106.586 116.096c4.47.103 9.513 1.35 14.857 3.881 15.053 7.129 23.348 19.715 24.797 31.763 1.45 12.047-3.496 23.419-16.445 29.756-8.912 4.362-19.087 6.262-26.357 5.88-3.635-.19-6.51-1.004-7.945-1.852s-1.423-.957-1.373-1.822c.12-2.044.855-6.003 1.317-7.417.755-2.309.529-5.97-1.27-8.255s-4.055-3.583-7.313-5.414c-1.833-1.03-3.537-2.269-4.607-3.238-.082-.073-.082-.092-.155-.163.333-.594.675-1.206 1.222-2.046 1.465-2.245 3.57-5.124 5.873-7.95h.003l8.725-10.715a4.626 4.626 0 0 0-.25-6.124l-5.171-5.397c-1.352-1.41-2.163-2.541-2.483-3.18s-.221-.586-.223-.58c-.003.013 1.092-1.746 5.106-4.194 3.343-2.037 7.224-3.037 11.692-2.933"/><path fill="#da6b7e" fill-rule="evenodd" d="M757.73 744.771c6.27 12.316 10.874 22.363 19.272 42.851 8.396 20.489 18.92 49.15 18.471 76.13-.447 26.983-11.866 52.284-25.75 72.55-13.882 20.262-30.227 35.488-46.573 50.715 15.002 3.806 30.005 7.612 41.872 12.987 11.867 5.374 20.6 12.314 30.116 23.174s19.816 25.639 24.742 41.984 4.479 34.26.112 50.268c-4.366 16.01-12.65 30.117-24.519 42.656-11.866 12.54-27.317 23.51-42.766 34.482 17.016-.448 34.272 1.242 54.088-5.028s42.194-20.498 58.652-39.194c16.457-18.698 25.655-45.088 16.362-76.549-5.646-33.456-39.074-80.342-68.651-99.564 7.318-20.24 33.592-54.965 37.734-79.372 12.336-72.68-51.35-121.881-93.162-148.09"/><path fill="#fff" fill-rule="evenodd" d="M642.626 963.852c-.85 0-1.382-.01-1.913.04-.531.046-1.251.233-1.709.483-.29.16-.83.45-1.274 1.152s-.481 1.422-.481 1.768c0 1.98.795 2.674 1.587 3.798.794 1.123 1.81 2.32 2.94 3.513 2.26 2.386 4.793 4.688 7.23 5.925.7.354 1.227.623 2.332.624 1.42 0 2.397-.562 3.303-1.21a10.5 10.5 0 0 0 2.414-2.453 12.9 12.9 0 0 0 2.005-4.411c.366-1.503.88-2.977-.512-4.875-1.033-1.408-1.935-1.56-3.06-1.998-1.124-.436-2.443-.822-3.88-1.164-2.877-.682-6.175-1.178-8.982-1.192m72.615-9.338c-.656.037-1.31.204-2.104.464-2.474.808-5.32 2.036-7.606 3.194-1.145.579-2.142 1.134-2.91 1.642a8 8 0 0 0-1.006.766c-.295.275-.784.463-.784 1.567 0 .854.296 1.079.514 1.385s.469.592.764.9c.59.616 1.349 1.303 2.199 2.008 1.698 1.408 3.695 2.858 5.319 3.689.455.232.915.44 1.33.6.207.081.4.15.595.205.195.057.333.12.737.12 1.284 0 2.074-.828 2.658-1.649s1.048-1.83 1.45-2.99c.802-2.32 1.325-5.242 1.327-8.117 0-.497-.011-.972-.032-1.365a11 11 0 0 0-.039-.533c-.017-.16.043-.172-.133-.635-.22-.57-.772-.981-1.192-1.125s-.758-.145-1.087-.126"/><path fill="#8bc4cc" fill-rule="evenodd" d="M683.34 912.401c-14.332.55-29.972 5.883-40.187 15.22-4.122 3.767-7.615 8.377-10.042 12.943-2.427 4.568-3.884 9.042-3.424 13.021.377 3.263 2.833 5.856 6.4 7.735s8.475 3.335 15.022 4.636c2.52.501 4.887.97 6.67 1.323 1.783.352 2.829.56 3.21.627.524.093.534.042.66.037.127-.01.241-.011.37-.023.26-.022.572-.056.953-.1.762-.087 1.789-.219 3.026-.386 2.473-.332 5.772-.803 9.322-1.338 13.373-2.016 24.674-5.655 32.826-10.39s13.468-10.767 13.48-17.715c.003-1.85-.66-3.57-1.586-5.44s-2.177-3.834-3.623-5.764c-2.89-3.86-6.466-7.554-10.026-9.641-6.285-3.683-14.453-5.074-23.052-4.744z"/><path fill="#0ff" d="M918.02 812.127a1614 1614 0 0 0-5.12 3.429h2.328a2.784 2.784 0 0 0 2.791-2.792z"/><path fill="#7694a2" fill-rule="evenodd" d="M796.01 1029.413c-2.493-.27-4.862-.25-6.938.134-2.202.405-4.777 1.211-7.113 2.135s-4.355 1.879-5.676 2.98c-.504.422-1.04.798-1.445 1.612-.407.814-.29 1.958.105 2.745.786 1.574 2.298 3.068 5.266 6.242a68 68 0 0 1 3.191 3.653c.417.52.76.974.985 1.304.227.33.334.723.224.283.051.203.052.088.002.245-.048.155-.252.58-.768 1.293-1.03 1.425-3.202 3.94-7.177 8.43-3.545 4.007-5.816 6.63-7.24 8.41-.71.891-1.209 1.566-1.57 2.15s-.665 1.042-.683 1.871c-.017.778.3 1.174.546 1.484s.51.555.818.809c.615.507 1.41 1.036 2.422 1.645 2.026 1.218 4.908 2.722 8.557 4.463 3.103 1.481 5.54 2.842 7.124 3.931.617.425.975.751 1.307 1.058-.417.13-.873.272-1.307.272-1.736 0-2.799.942-3.98 1.974-1.182 1.03-2.263 2.255-2.855 3.673-.468 1.118-.774 2.392-.774 3.585 0 1.461.902 2.781 2.125 3.645s2.812 1.48 4.859 2.03c6.484 1.743 16.36.543 24.047-2.657 9.918-4.13 17.054-11.164 20.042-19.998 1.543-4.564 1.363-12.414-.182-17.815-4.052-14.165-14.223-25.903-26.265-29.907a37 37 0 0 0-7.646-1.68z"/><path fill="#94c5ca" fill-rule="evenodd" d="M796.01 1029.413c-8.352 0-22.334 5.581-22.29 7.982.013.58 2.858 3.814 6.328 7.187l6.311 6.132-5.92 6.408c-3.256 3.523-7.8 8.562-10.097 11.196l-4.174 4.789 6.9 3.726c7.92 4.276 17.307 3.79 27.4-1.414 10.828-5.585 21.12-18.68 19.488-32.5-.786-6.644-11.804-13.506-23.946-13.506m19.493 356.301c-8.167-2.18-18.823-12.43-25.233-22.718-7.226-11.598-20.085-27.908-22.981-46.452l-1.139-7.29c18.428-35.378 38.624-33.342 67.137-8.03.29 1.44 2 14.93 2.56 21.002 1.887 20.468 1.52 35.337-1.287 46.558-3.037 12.143-10.584 19.191-19.056 16.93m109.242-10.578c-8.269-1.746-21.099-9.309-28.04-19.245-7.825-11.203-25.279-24.461-29.146-42.828l-1.52-7.221c29.95-65.717 87.004-8.823 73.675 59.552-2.396 12.286-6.389 11.555-14.969 9.742"/><path fill="#3f3f49" d="M1324.269 364.469c-37.646-1.487-84.955 10.234-138.664 34.622-54.451 24.726-127.003 72.331-180.052 118.14-22.143 19.12-83.702 82.038-102.975 105.25-36.624 44.107-73.871 104.742-87.583 142.579-2.243 6.188-4.78 11.687-5.64 12.217s-5.276-2.303-9.813-6.297c-25.978-22.866-62.739-38.185-101.561-42.325-12.428-1.325-12.431.947.047-33.062l-12.188 10.385c-3.07 11.53-6.499 21.554-7.614 22.279-1.118.723-5.5 1.329-9.738 1.342-4.24.016-13.365 1.314-20.278 2.887-6.887 1.567-12.761 2.57-13.086 2.24-.282-.34-3.942-11.099-8.135-23.906-13.433-41.037-34.992-89.08-53.938-120.197L566.4 579.7c-9.673-21.854-22.382-35.047-37.373-52.49-25.44-29.753-61.895-66.708-79.04-80.128-8.158-6.386-20.895-14.748-28.307-18.583-11.954-6.186-14.915-6.975-26.21-6.975-15.581 0-23.761 4.177-35.768 18.257-40.472 47.462-59.72 109.537-56.271 181.49 3.161 65.977 20.932 132.548 59.284 222.104 7.594 17.734 18.471 43.527 24.173 57.321 16.41 39.692 56.906 136.46 59.788 142.862 1.44 3.2 5.951 13.47 10.027 22.823 9.872 22.661 15.953 31.747 30.088 44.97 18.398 17.21 43.846 32.498 67.596 40.611 12.381 4.23 36.042 9.356 43.365 9.397 8.658.047 9.87 1.879 7.688 11.616-9.893 44.145-2.74 93.494 19.35 133.448 9.904 17.917 33.054 42.274 49.146 51.71 16.438 9.64 39.308 16.721 57.337 17.754 14.8.848 16.294.589 26.934-4.65 6.28-3.09 13.504-8.354 16.324-11.89 5.907-7.409 7.77-7.84 9.88-2.287 2.81 7.391 16.197 22.68 23.01 26.277 22.135 11.686 31.832-2.292 31.605-45.563-.136-26.043-2.78-46.22-10.097-77.027l-5.531-23.287 2.983-20.599c1.641-11.33 2.983-23.042 2.978-26.024-.008-6.225 4.355-13.385 8.156-13.385 2.132 0 2.586 4.48 2.592 25.525.015 52.049 11.688 93.227 37.544 132.443 22.828 34.622 48.9 51.285 60.437 38.627 6.887-7.551 8.306-16.3 7.118-43.814-.609-14.08-.524-25.566.186-25.524s6.932 5.354 13.828 11.803c22.88 21.399 54.947 40.61 80.64 48.315 15.066 4.518 44.902 4.533 58.186.026 44.814-15.199 76.564-47.748 92.094-94.409 6.59-19.802 11.803-49.639 11.803-67.577v-10.848l23.966-11.742c24.155-11.835 46.379-26.29 59.004-38.373 17.214-16.477 34.08-43.7 44.93-72.527 4.51-11.98 12.08-43.88 27.032-113.92 15.038-70.435 23.994-98.147 62.29-192.691 20.846-51.46 34.962-100.973 45.45-159.426 5.507-30.685 6.738-72.364 2.698-91.355-9.348-43.947-29.145-78.956-63.563-112.417-18.554-18.038-25.689-22.65-45.178-29.192-10.279-3.45-21.755-5.413-34.302-5.908zm-44.474 6.903c8.257-.013 33.423 13.455 45.377 24.272 11.282 10.21 20.073 24.713 20.073 33.114 0 4.031-1.135 5.07-7.612 6.964-11.501 3.363-53.893 21.11-72.032 30.157-31.691 15.808-82.544 45.964-98.296 58.29-6.64 5.196-7.173 5.308-15.812 3.314-14.335-3.309-41.922-2.573-58.088 1.55-16.54 4.22-44.499 17.511-63.019 29.96-70.609 47.463-130.33 119.565-188.496 227.565-5.418 10.061-10.43 18.298-11.136 18.298-7.247-6.824-12.957-15.415-18.974-23.36l5.228-13.568c12.285-31.905 35.221-73.29 59.372-107.126 40.003-56.045 106.143-123.59 167.336-170.89 62.381-48.217 127.702-85.34 185.99-105.704 16.343-5.709 44.13-12.836 50.089-12.836m-858.16 61.444c2.514-.047 4.452 1.086 8.858 3.668 23.56 13.806 68.962 58.557 108.916 107.354l9.944 12.146 3.065 26.167c2.729 23.303 10.404 69.715 12.91 78.062 1.822 6.066-2.093 2.813-12.733-10.584-13.9-17.5-36.649-41.03-49.72-51.424-24.86-19.773-41.812-27.342-57.593-25.713l-9.2.95-16.788-13.955c-9.234-7.674-27.51-21.503-40.617-30.729-27.282-19.205-27.192-19.025-18.674-37.03 14.134-29.878 33.307-50.315 53.28-56.801 4.09-1.329 6.396-2.077 8.351-2.112m922.806 4.83c2.21 0 2.677 1.75 2.245 8.384l-.545 8.383-18.81 7.806c-37.416 15.526-96.662 46.19-130.998 67.801-8.504 5.352-16.16 9.695-17.017 9.65-2.34-.119-14.956-7.808-14.975-9.127-.025-1.664 28.081-20.492 51.55-34.535 36.868-22.058 116.83-58.362 128.55-58.362m26.874 14.347c29.672-.073 61.654 47.241 54.665 80.87-2.616 12.588-9.546 27.288-17.354 36.818-5.78 7.055-6.987 7.687-14.687 7.704-24.212.055-102.266 16.268-163.337 33.928-10.345 2.992-19.477 5.45-20.295 5.45-.816 0-.816-2.607 0-5.809.818-3.201 1.414-11.464 1.326-18.36-.197-15.42-4.324-24.282-17.977-38.596-5.296-5.552-9.627-10.643-9.627-11.315s6.65-5.486 14.778-10.698c57.06-36.585 150.55-79.936 172.508-79.992m-1018.521 63.69c4.88-.094 73.598 50.99 77.983 58.088.584.945-1.593 4.131-4.838 7.081-3.245 2.952-6.304 5.355-6.796 5.34s-10.569-7.748-22.39-17.184-26.938-21.154-33.588-26.038c-12.05-8.851-12.091-8.91-12.091-17.588 0-4.79.69-9.135 1.535-9.656a.36.36 0 0 1 .185-.042m-4.858 23.03c3.652.194 7.546 2.153 12.553 5.802 8.089 5.895 51.293 39.784 55.715 43.702.846.75-.16 6.275-2.239 12.28-6.61 19.105-4.604 40.927 5.87 63.805 2.576 5.625 4.682 10.535 4.682 10.908 0 1.703-4.606-.403-33.139-15.15-39.019-20.17-59.137-32.493-64.809-39.702-1.163-1.478-3.478-7.52-5.143-13.427-5.72-20.287-.29-47.99 11.769-60.05 5.748-5.748 10.045-8.417 14.741-8.168m742.944 23.485c20.584-.041 23.353.362 34.295 4.99 14.33 6.062 25.353 15.108 30.643 25.149 3.167 6.01 3.924 10.505 3.97 23.636.055 15.25-.35 17.042-6.816 30.126-14.772 29.89-56.557 63.916-113.01 92.028-29.438 14.66-66.374 36.126-98.653 57.331-28.88 18.972-79.142 55.448-83.29 60.446-1.231 1.483-3.89 3.737-4.787 3.737-1.805 0-.92-1.13-5.098-16.158-1.627-5.853-5.653-15.99-8.945-22.527l-5.986-11.887 12.632-23.964c40.337-76.532 98.806-155.296 136.518-183.902 13.596-10.312 52.768-29.303 71.807-34.812 11.513-3.331 18.732-4.156 36.72-4.193m309.221 18.189c5.028.096 5.987 1.232 8.855 5.44 8.37 12.278 11.165 48.745 5.548 72.366-5.609 23.585-15.421 40.408-28.73 49.255-13.313 8.85-24.84 11.394-68.29 15.08-141.053 11.964-238.681 30.874-335.87 65.05-15.271 5.371-32 11.446-37.172 13.499-5.03 1.998-9.171 3.299-9.393 2.962h-.003v-.006l-.003-.003q0-.006-.003-.01v-.003l-.003-.008v-.003c0-.441 5.039-4.227 11.197-8.409 24.577-16.698 63.561-38.628 106.134-59.709 53.655-26.568 74.73-38.864 102.6-59.853 22.98-17.308 33.976-28.152 44.283-43.674 6.63-9.987 7.012-10.241 23.124-15.353 52.745-16.732 138.57-35.013 171.12-36.447 2.802-.123 4.928-.207 6.604-.175zm-830.376 10.415 4.488 7.166c7.414 11.84 30.484 59.727 37.515 77.869 6.501 16.777 18.071 51.744 19.136 57.835.398 2.27-2.042 4.358-8.746 7.48-10.592 4.937-9.627 5.543-18.385-11.524-3.287-6.403-8.667-16.077-11.955-21.495-4.782-7.878-6.89-14.7-10.533-34.035-6.483-34.415-11.639-68.48-11.574-76.458zm-100.452 12.372c11.013.39 24.157 3.905 38.546 10.705 17.522 8.282 25.062 15.317 48.674 45.403 11.09 14.133 11.821 15.691 17.628 37.704 3.331 12.63 8.996 31.228 12.587 41.328l6.532 18.363-15.039 15.599c-8.271 8.58-16.584 18.213-18.47 21.405-1.886 3.194-4.263 5.789-5.282 5.766-4.028-.093-49.614-36.657-69.572-55.804-20.13-19.312-21.472-21.06-28.003-36.408-15.148-35.6-22.992-66.033-20.795-80.684 2.398-15.993 14.836-24.027 33.193-23.377m-140.468 26.18c3.025-.091 7.933 2.902 16.962 8.577 9.323 5.86 32.008 18.17 50.412 27.355 30.157 15.053 33.85 17.393 37.404 23.718 6.353 11.303 28.244 36.458 49.772 57.192 10.996 10.591 18.984 19.172 17.749 19.066s-14.74-4.062-30.01-8.79-48.725-14.805-74.34-22.393-48.704-14.894-51.307-16.235c-10.842-5.585-18.767-20.963-22.941-44.523-2.375-13.4-2.37-20.059.015-31.18 1.849-8.62 2.856-12.685 6.285-12.788m262.773 86.066c1.186-.048 4.792 5.358 10.213 15.406 4.067 7.54 6.999 14.736 6.518 15.99s-2.475 3.138-4.433 4.186c-3.228 1.727-3.81 1.036-6.276-7.494-2.894-10.01-6.374-24.57-6.447-26.972-.022-.736.123-1.103.425-1.116m-240.943 8.836c1.41 0 17.202 4.372 35.09 9.718a20797 20797 0 0 0 63.287 18.785c54.44 16.043 62.835 19.607 84.797 35.996l19.59 14.622-4.229 8.356c-5.877 11.617-14.536 36.714-17.095 49.557-1.179 5.91-2.918 13.77-3.865 17.465-2.047 7.977-1.186 7.917-31.145 2.191-11.823-2.26-39.528-5.982-61.569-8.27l-40.073-4.162-7.583-9.882c-24.361-31.737-38.797-62.053-44.13-92.679-3.347-19.216.387-41.697 6.925-41.697m959.322 2.036c8.01-.247 10.74.556 16.248 3.222 22.703 10.99 32.28 33.155 32.175 74.452-.07 27.134-3.637 43.256-14.655 66.28-7.31 15.275-18.883 28.417-31.617 35.903-14.503 8.526-18.874 9.612-27.766 6.896-14.537-4.438-34.355-8.006-59.926-10.792-34.422-3.75-197.724-5.465-250.234-2.63-43.614 2.357-100.926 6.851-114.26 8.959-4.96.785-9.343 1.103-9.736.71-.391-.391-.019-3.695.827-7.342.847-3.643 1.56-13.627 1.583-22.184l.044-15.561 10.3-8.241c17.508-14.01 49.5-37.914 53.715-40.135 6.806-3.586 50.215-19.945 77.077-29.046 33.929-11.498 76.28-23.502 106.61-30.22 51.78-11.472 152.533-26.47 199.546-29.705 4.142-.285 7.399-.485 10.069-.566m-617.553 5.127c9.068 0 39.727 6.585 50.44 10.373 59.797 21.139 130.836 91.32 100.33 168.758-11.444 29.045-23.687 46.891-32.6 55.644-6.456 6.342-12.532 11.8-13.5 12.128-2.73.928-2.068 5.67.793 5.67 1.403 0 4.945-2.013 7.872-4.476 6.569-5.527 9.43-5.62 13.957-.449 1.941 2.217 5.93 6.047 8.867 8.51 6.98 5.857 24.51 26.595 30.653 36.263 7.41 11.668 16.843 31.692 19.621 41.658 4.502 16.146 5.192 40.258 1.507 52.56-15.664 52.293-71.106 67.513-81.79 69.988-12.93 2.996-45.304 2.215-57.871-1.397-27.313-7.846-56.414-29.823-65.558-49.5-4.39-9.45-4.253-11.042 1.071-12.378 6.557-1.646 5.519-5.262-3.794-13.222l-8.273-7.07 4.828-8.244c2.655-4.531 4.322-9.059 3.702-10.063-.62-1.003-4.712-3.926-9.095-6.494-4.382-2.568-7.951-5.6-7.93-6.738s1.61-5.525 3.528-9.748l3.484-7.681-4.537-1.724c-2.495-.948-5.29-1.723-6.21-1.723s-1.678-5.29-1.678-11.753v-11.756l8.061 1.21c5.277.791 8.06.547 8.06-.706 0-1.053-3.021-2.38-6.717-2.952-31.49-4.869-73.34-24.018-89.962-41.167-6.045-6.237-6.07-6.322-1.746-6.36 6.007-.055 12.997-3.341 19.416-8.574v-5.077a28 28 0 0 1-2.585 2.238c-7.592 5.79-22.362 7.676-29.181 3.727-57.71-57.89 2.442-181.222 32.983-204.516l6.192-4.724 5.408 12.055c6.948 15.487 10.128 13.352 5.022-3.372-2.857-9.363-3.223-12.683-1.608-14.628 1.149-1.385 8.69-5.742 16.76-9.683 14.68-7.17 34.453-12.459 49.603-13.272 9.026-.485 8.938-.69 6.47 15.24-1.987 12.837 1.58 10.466 6.068-4.03 3.802-12.287 4.003-12.54 9.94-12.54zm57.4 45.458c-15.45.192-29.936 9.149-36.823 23.375-7.824 16.162-6.77 39.103 2.919 63.48a132 132 0 0 0 8.824 18.03h5.668c-.572-2.24.546-2.554 3.214-.096q.049.044.118.097h6.678a2.784 2.784 0 0 1 2.792 2.791v1.73c1.306.547 2.676 1.103 4.064 1.65 13.459 5.296 28.477 6.197 37.872 2.272 18.49-7.725 32.214-38.392 26.586-59.404l-1.907-7.13 4.004 4.91c5.61 6.877 13.254 27.363 15.531 41.619 6.213 38.893-19.148 71.045-60 50.428-8.553-4.317-18.337-12.098-26.15-20.384v6.04c13.21 13.77 28.549 23.284 43.167 25.78 35.41 6.051 57.819-28.599 46.676-72.168-6.049-23.65-23.22-52.117-39.484-65.458-8.781-7.204-26.847-15.532-37.089-17.097a41 41 0 0 0-6.66-.466m-11.564 6.972q.984.034 1.944.226c19.282 3.856 28.296 14.826 28.224 34.342-.06 16.239-6.65 28.422-19.664 36.352-3.448 2.101-7.883 3.734-9.854 3.63-8.102-.43-19.664-3.471-21.975-5.782-5.416-5.415-7.569-29.63-3.83-43.092 4.109-14.802 15.327-26.02 25.155-25.676m-344.35 88.297c2.4-1.484 83.298 7.845 107.484 12.394 13.205 2.483 24.287 4.516 24.627 4.516s.62 7.89.62 17.535c-.601 46.206 22.558 70.007 59.11 95.77 4.892 3.199 8.901 6.22 8.908 6.712s-6.224 3.156-13.85 5.92c-24.418 8.853-36.495 14.112-67.332 29.336-16.6 8.195-31.914 14.894-34.034 14.894-6.136-.014-14.108-5.849-25.326-18.547-9.915-11.222-11.791-15.058-38.038-77.682l-27.609-65.878 2.073-12.085c1.141-6.648 2.657-12.445 3.366-12.885m686.43 29.41c144.637-.088 199.806 5.767 217.874 23.112 14.915 14.319 20.876 31.537 20.85 60.222-.02 22.235-3.757 37.674-14.073 58.159-12.09 24.008-27.387 37.59-51.22 45.475-21.336 7.061-32.403 7.403-47.33 1.462-51.903-20.652-183.387-61.134-283.026-87.136-18.022-4.704-56.54-12.998-70.755-15.238-20.18-3.18-20.01-3.12-28.661-10.65l-8.061-7.018 4.083-5.066c8.901-11.046 18.523-27.153 23.004-38.51l4.712-11.947 10.972-1.884c42.98-7.383 114.298-10.916 221.631-10.981m-238.503 88.255c4.704-.185 21.944 3.162 54.71 10.59 69.775 15.817 209.776 57.413 289.742 86.087l30.005 10.762v11.374c0 18.04-5.315 29.703-20.43 44.828-14.393 14.403-32.327 24.209-50.208 27.45-15.288 2.771-21.29 2.218-47.59-4.385-62.113-15.595-146.08-55.54-199.726-95.01-11.618-8.549-12.784-10.022-15.826-20.035-5.85-19.257-22.058-47.344-36.628-63.471-3.446-3.816-5.834-7.368-5.306-7.896.169-.17.585-.268 1.257-.294m-240.078 22.227 12.153 4.826c6.682 2.655 16.582 6.22 22 7.921l9.854 3.097.528 12.012.526 12.016-7.167 3.655c-36.202 18.467-6.432 71.734 18.025 71.734 2.808 0 5.104.978 5.104 2.173 0 4.393-19.293 20.24-29.771 24.456-10.246 4.12-26.403 6.077-37.402 4.529-2.956-.417-13.03-2.425-22.39-4.462-19.975-4.345-57.716-21.835-66.867-30.986-8.099-8.099-18.44-28.666-20.751-41.27-3.555-19.392-5.04-17.453 24.655-32.173 27.453-13.607 63.33-28.769 81.265-34.344zm170.462 22.805c-2.367 2.564-1.849 3.733 3.288 9.032l5.811 5.994c-5.449 8.346-14.554 15.14-18.226 24.586 0 1.084 3.627 3.734 8.06 5.887 8.929 4.339 9.314 5.306 5.244 13.176-3.192 6.173-3.366 5.728 3.763 9.601 13.275 7.213 43.103-1.553 50.587-14.87 22.785-40.54-34.644-79.278-58.527-53.406m19.926-4.266c13.807.034 25.93 8.031 32.836 21.66 20.32 40.097-27.723 54.945-42.569 46.294-2.545-1.484-2.725-2.551-1.054-6.217 1.109-2.434 3.498-4.424 5.31-4.424 6.477 0 3.117-3.763-7.454-8.347-5.911-2.563-10.747-5.485-10.747-6.492 0-2.64 17.913-20.042 17.913-22.335 0-.86-2.418-3.88-5.373-6.712s-5.374-5.846-5.374-6.696c0-2.087 11.422-6.745 16.512-6.731m-139.108 26.782c2.534-.06 4.37.216 4.37.932 0 .469-1.61 3.491-3.577 6.718-5.202 8.531-4.51 10.648 5.402 16.533 4.908 2.914 8.923 6.227 8.923 7.363s-2.017 5.037-4.48 8.667-4.476 7.146-4.476 7.814c0 .67 3.424 4.177 7.612 7.798 4.187 3.623 7.19 7.023 6.673 7.557-2.344 2.425-17.067 1.983-22.433.502-26.1-7.205-34.486-48.508-11.217-61.294 2.824-1.46 8.981-2.49 13.203-2.59m235.075 21.57c.288 0 4.722 3.08 9.852 6.838 28.903 21.173 87.334 52.995 130.661 71.157l21.021 8.811 4.485 10.785c12.285 29.546 10.353 52.818-5.259 63.384-12.027 8.14-34.139 6.453-54.702-4.172-34.265-17.705-70.23-53.92-99.8-100.492-9.014-14.198-9.143-14.597-7.384-22.847.984-4.62 1.523-14.038 1.197-20.932-.328-6.895-.359-12.532-.071-12.532m-4.301 48.837c1.704-.017 5.064 4.77 14.922 19.7 22.06 33.406 44.798 58.274 68.746 75.18l10.032 7.08 4.739 19.22c2.606 10.572 6.269 24 8.139 29.844s5.538 17.355 8.155 25.586 4.517 15.61 4.222 16.397c-.78 2.09-20.714-8.351-30.091-15.762-10.407-8.225-14.214-12.483-27.059-30.232-8.393-11.596-11.535-17.91-15.153-30.45-9.253-32.07-26.89-66.029-45.427-87.466l-10.717-12.395 3.186-5.45c1.752-2.998 3.948-7.319 4.879-9.602.411-1.008.81-1.644 1.427-1.65m-216.635 4.72c.77.024 1.294.893 2.078 2.358 1.663 3.107 1.399 5.433-1.344 11.83-8.305 19.377-11.089 34.354-11.383 61.233-.155 14.287-1.225 31.214-2.376 37.618-1.153 6.403-2.302 15.257-2.554 19.677l-.459 8.035-6.68-8.172c-12.619-15.438-20.51-39.665-24.82-76.192-2.667-22.593-1.775-26.849 5.972-28.486 10.427-2.204 26.668-12.11 34.21-20.865 4.345-5.044 6.153-7.07 7.356-7.035m5.702 10.803 9.64 11.084c10.003 11.5 29.59 25.547 43.731 31.363 7.813 3.214 8.17 3.68 8.177 10.675.019 20.859-9.192 41.842-22.386 50.997-7.31 5.073-12.919 7.217-16.121 6.163-.986-.324-4.83-1.099-8.547-1.72-8.69-1.455-18.834-10.38-23.317-20.512-7.5-16.96-5.07-51.994 5.52-79.475zm199.172 6.4 6.418 6.166c12.966 12.454 33.656 48.34 41.887 72.65 17.394 51.369 26.653 116.773 19.38 136.89-3.947 10.918-11.502 12.286-26.05 4.71-18.933-9.858-53.316-61.642-59.153-89.09-.903-4.249-2.505-10.952-3.56-14.893-4.184-15.631-7.393-45.932-7.153-67.557l.255-22.776 8.322-6.707c4.578-3.69 10.873-9.563 13.99-13.052zm184.001 19.286c1.636.013 8.991 1.972 17.439 4.678 23.352 7.48 52.472 13.223 62.4 12.305l8.266-.767 2.21 9.117c1.214 5.017 2.623 16.374 3.132 25.241.659 11.449.217 17.763-1.519 21.787l-2.443 5.668-9.852-9.03c-10.751-9.852-35.2-28.453-59.484-45.255-10.33-7.148-16.442-12.735-18.378-16.793-1.594-3.345-2.536-6.445-2.09-6.891.04-.042.15-.062.32-.06m-229.69 15.886c.182.013.303.037.357.092.506.504-.36 10.098-1.926 21.32s-3.104 20.66-3.419 20.975-4.704-7.278-9.755-16.872c-5.088-9.663-8.417-17.917-7.463-18.506 3.428-2.12 19.494-7.112 22.206-7.01m238.714 5.131h.01c1.898 0 34.216 23.155 51.48 36.884 28.664 22.793 33.121 28.811 31.71 42.83-1.431 14.235-22.269 38.697-40.678 47.76-6.857 3.375-15.377 6.02-20.867 6.475l-9.282.77-11.975-28.397c-18.231-43.232-20.462-49.527-17.87-50.391 5.412-1.804 12.834-10.104 15.666-17.518 2.428-6.357 2.852-11.266 2.008-23.235-.585-8.283-.674-15.072-.204-15.178zm-323.66 1.383c.32 0 .68.043 1.08.11 1.97.33 4.213 1.204 4.987 1.946.774.74 1.179 10.062.898 20.716l-.512 19.367-5.035-10.565c-4.128-8.66-4.935-12.502-4.48-21.314.435-8.407.826-10.28 3.063-10.26m13.167 2.745 8.283 1.577c4.558.866 14.333 1.077 21.722.468 15.383-1.27 13.228-3.023 24.99 20.32 12.836 25.47 20.89 59.519 25.286 106.902 2.633 28.395.156 48.862-6.892 56.93-6.29 7.203-19.582 2.409-31.637-11.411-10.979-12.588-27.43-50.346-33.463-76.81-6.27-27.502-10.967-72.05-9.3-88.209zm-18.696 24.568h.031c3.497.099 14.56 31.65 19.068 54.388 2.713 13.675 6.796 30.556 9.075 37.512 3.709 11.325 3.877 13.161 1.613 17.538-1.39 2.689-4.757 6.464-7.481 8.39-6.447 4.557-13.487 5.649-25.248 3.917-16.99-2.502-18.39-5.256-25.508-50.129-1.952-12.315-3.983-24.55-4.513-27.189-.853-4.256.166-5.519 9.045-11.2 10.36-6.627 19.508-18.515 21.609-28.081.616-2.805 1.647-5.092 2.308-5.145m-76.478 15.823 7.013 7.966c7.847 8.915 16.596 13.794 24.736 13.794 2.995 0 5.946.808 6.555 1.795.916 1.482 6.964 36.793 11.12 64.93.547 3.696.282 6.69-.587 6.658-.869-.034-6.386-1.714-12.261-3.734-16.657-5.727-29.01-15.293-35.584-27.555-3.312-6.175-3.845-10.13-3.865-28.659-.014-11.823.627-24.579 1.425-28.346zm324.79.952c1.298-.062 5.206 1.374 9.423 3.511 13.074 6.625 28.283 10.522 38.412 9.84l8.995-.603 15.109 35.825c8.31 19.704 15.541 37.46 16.07 39.456 1.183 4.444-4.716 10.24-13.37 13.138-10.036 3.362-26.351.99-40.215-5.845l-9.226-4.55-7.533-23.787c-10.64-33.591-19.291-65.629-18.056-66.865.072-.071.206-.11.391-.12"/><path fill="#4c4c58" d="M903.108 366.742c-1.21.043-2.64.198-4.395.439-17.345 2.376-42.203 22.457-65.258 52.717-65.998 86.625-124.006 198.822-146.97 284.264-5.042 13.375-10.87 31.932-10.847 45.473-1.063 13.194 5.11 6.528 8.376-9.024l3.404-12.787 1.425-5.685c0-3.727 16.465-48.146 25.927-69.948 32.988-76.006 90.832-174.664 111.07-189.44 3.962-2.893 13.643-8.514 21.514-12.49 16.412-8.292 35.544-23.306 49.874-39.14 16.152-17.848 21.364-33.435 13.731-41.068-2.56-2.56-4.219-3.438-7.851-3.31M573.72 308.117c-3.185-.089-5.868 2.832-9.618 9.814-5.878 10.943-11.507 33.622-15.129 60.96-2.37 17.894-2.707 33.804-1.908 90.467-1.022 31.934 2.525 63.652 3.9 95.455 2.258 21.113 9.438 60.86 11.944 79.39 7.15 52.87 38.648 143.639 44.049 140.29 5.82-3.607-.916-13.21-2.032-17.444l-5.02-16.713c-6.993-36.365-14.087-50.518-18.002-75.924-3.802-24.678-10.73-62.006-12.615-78.401-2.809-18.385-4.02-36.895-5.452-55.441-5.011-64.848-3.226-99.98 6.411-126.087 15.474-41.921 14.855-39.177 15.004-66.351.146-26.622-1.711-35.534-8.12-38.963-1.232-.66-2.35-1.023-3.412-1.052"/><path fill="#e15469" fill-rule="evenodd" d="M808.29 811.32a3.7 3.7 0 0 0-1.965.052c-.845.252-5.754-7.77-6.175-7.08-.955 1.571 3.459 11.03 3.54 11.491s.183.74.288 1.024c4.894 13.091 6.148 21.354 4.918 31.09-2.3 18.222-11.775 32.888-23.91 38.574-6.896 3.23-17.055 3.635-27.312 1.256s-20.557-7.468-27.865-14.348c-1.04-.98-1.977-1.792-2.786-2.408-.405-.309-.721-.554-1.299-.854-.289-.15-.52-.404-1.659-.48-.568-.037-2.883-2.76-3.903-1.918-1.02.836-.111 4.946-.111 5.668 0 1.317.215 1.317.317 1.583s.2.482.313.718c.225.474.5 1.004.834 1.625a152 152 0 0 0 2.553 4.505c1.987 3.39 4.344 7.228 6.04 9.721 6.292 9.248 16.036 19.752 24.782 26.718 9.538 7.599 20.472 13.067 30.582 15.082 19.202 3.83 36.83-4.971 45.281-22.615 1.766-3.684 3.617-8.344 4.39-11.323 2.016-7.757 2.29-21.748.783-30.446-2.746-15.845-8.882-31.55-18.027-46.255-1.684-2.71-3.51-5.328-5.017-7.287-.754-.98-1.406-1.779-2.03-2.434-.313-.33-.566-.61-1.107-.99-.268-.19-.56-.458-1.454-.669z"/><path fill="#fecfd7" fill-rule="evenodd" d="M738.825 779.667c-1.003-.038-2.048 0-3.114.3-1.067.298-2.038.753-3.514 1.46-4.172 2-6.39 3.519-9.68 6.629-6.675 6.312-11.122 14.81-13.355 25.177-.695 3.224-.828 5.082-.843 12.35-.017 8.673.25 11.487 1.785 18.888.727 3.515 1.288 5.886 2.731 7.949s3.479 3.239 6.171 4.58c2.887 1.438 5.781 2.413 8.875 2.979h.014c1.694.3 3.99.276 6.512.207 3.577-.1 5.534-.365 8.1-1.123 13.862-4.095 24.036-15.882 27.198-31.13 1.478-7.13 1.405-15.868-.244-22.49-3.13-12.566-12.168-21.6-24.794-24.803-1.955-.495-4.187-.914-5.839-.976z"/><path fill="#b22d4a" d="M746.873 777.917a40.3 40.3 0 0 0-8.048 1.059c-10.326 2.467-19.013 9.064-24.736 20.886-4.834 9.986-16.864 68.297 32.53 88.033 13.686 5.385 28.956 6.302 38.51 2.31 31.492-13.159 45.986-79.06-11.767-106.21-9.091-4.274-18.164-6.35-26.49-6.078m-8.825 4.31c.022.002 30.203.91 30.077 34.98-.13 35.388-32.637 49.43-52.359 34.777-5.506-5.506-7.1-29.96-3.298-43.648 4.179-15.05 15.587-26.457 25.58-26.108"/><path fill="#502552" d="M747.683 775.381a44.6 44.6 0 0 0-8.916 1.184c-11.557 2.76-21.52 10.465-27.717 23.268-11.002 22.725-4.561 54.244 10.51 81.242s38.95 49.775 64.727 54.18c18.586 3.175 34.24-4.51 43.354-18.6 9.112-14.092 11.92-34.365 6.207-56.703-9.828-38.43-34.324-66.147-59.774-78.11-9.543-4.487-19.255-6.766-28.39-6.46m.178 5.08c8.187-.266 17.11 1.776 26.051 5.978 23.84 11.207 47.545 37.742 57.016 74.773 5.43 21.233 2.606 40.07-5.553 52.685-8.157 12.613-21.41 19.226-38.233 16.352-23.38-3.996-46.61-25.6-61.15-51.648s-20.208-56.238-10.372-76.557c5.628-11.626 14.172-18.114 24.327-20.54a39.6 39.6 0 0 1 7.914-1.042" overflow="visible"/><path fill="#e15469" fill-rule="evenodd" d="M608.911 867.2c-1.111.64-.31 3.045-.438 4.287l-.294 2.873c-.408 3.977-2.26 11.666-3.952 16.27-1.942 5.279-5.252 11.872-8.671 17.589-3.42 5.716-7.152 10.677-9.104 12.308-3.212 2.687-8.158 5.316-11.959 6.389-13.687 3.86-28.38-.795-36.241-11.335-2.954-3.96-6.038-10.529-7.292-15.594l-1.11-4.485c-.832-5.009-5.008-3.462-5.025.505l-.165 6.213c-.095 3.577.087 9.773.411 14.068 1.731 23.037 8.48 40.564 20.349 51.342 4.863 4.415 8.358 6.498 13.675 8.097 5.145 1.547 12.138 1.111 17.26-.973 18.096-7.367 31.76-32.348 36.55-63.503 1.828-11.894 2.367-26.73 1.199-35.559l-.567-4.277c-.165-1.235-1.753-5.87-2.864-5.23z"/><path fill="#fecfd7" fill-rule="evenodd" d="M569.396 820.665c-12.625 1.958-24.693 13.856-27.847 26.866-.71 2.93-.737 7.795-.54 13.044s.67 10.514 1.517 13.746c2.786 10.609 8.014 18.315 15.398 20.566 5.644 1.72 12.164.178 17.96-3.002s10.966-8.097 13.649-13.999c2.977-6.547 3.68-12.3 2.995-23.487-.434-7.075-1.2-13.097-2.284-17.907s-2.377-8.397-4.431-10.816c-1.763-2.079-4.42-3.392-7.335-4.254s-6.113-1.218-9.082-.757"/><path fill="#b22d4a" d="M571.04 819.41c-27.231.317-52.688 58.477-40.497 87.031 4.761 11.153 10.386 17.27 19.404 21.093 43.358 18.387 86.687-57.325 41.912-102.173-6.973-5.383-14.65-6.026-20.82-5.95zm-.32 3.221c1.648-.13 3.21-.096 4.651.195 9.371 1.925 11.325 4.8 13.882 20.448 3.97 24.295.427 37.526-12.188 45.53-23.734 15.057-36.008-7.716-33.847-37.521 1.026-14.148 15.544-27.705 27.501-28.651"/><path fill="#502552" d="M562.222 819.917a32.6 32.6 0 0 1 7.009-2.342c9.482-1.979 19.388.902 28.156 9.592 15.563 15.43 21.028 45.006 18.613 73.942s-12.747 57.56-30.464 71.069c-12.774 9.742-26.903 9.022-38.253.32-11.353-8.701-20.033-25.106-23.053-46.5-5.196-36.808 3.988-69.916 19.002-89.815 5.63-7.461 12.105-13.085 18.99-16.266m1.519 4.442c-6.169 2.858-12.133 7.979-17.408 14.97-14.065 18.641-23.045 50.432-18.038 85.899 2.87 20.336 11.096 35.497 21.257 43.287 10.164 7.79 22.158 8.491 33.72-.326 16.07-12.255 26.3-39.62 28.63-67.54s-3.277-56.059-17.192-69.852c-7.961-7.893-16.418-10.262-24.751-8.523-2.083.435-4.16 1.134-6.217 2.085" overflow="visible"/><path fill="#768ca0" fill-rule="evenodd" d="M710.89 922.148c1.91 23.49-4.23 28.266-8.569 36.516a61 61 0 0 0 5.825-2.959c8.152-4.736 13.468-10.766 13.48-17.714.003-1.852-.66-3.571-1.586-5.44s-2.177-3.834-3.623-5.765c-2.89-3.86-5.527-4.638-5.527-4.638"/><path fill="#213b51" d="M685.15 909.874c-17.976.247-32.415 5.451-43.543 15.694-16.773 15.441-21.371 31.8 5.926 55.23 4.985 4.28 5.547 4.073 9.868-3.615l3.826-6.81c12.88-1.199 25.493-3.072 37.702-5.98l7.04 5.66c6.255 5.027 7.338 5.358 9.724 2.973 1.476-1.477 3.199-7.028 3.828-12.338s2.216-11.71 3.527-14.222c4.715-9.035-.606-37.103-37.898-36.592m7.278 4.53c25.962 2.151 48.858 38.34-11.644 49.133-17.213 3.072-21.687 2.98-35.776-.716-13.815-3.625-15.558-5.835-12.768-16.197 4.597-17.073 24.131-30.428 46.93-32.084 5.136-.373 9.481-.45 13.258-.136m23.255 41.516c.143 0 .246.037.3.093.52.519.41 3.802-.245 7.296-.656 3.495-2.165 6.325-3.351 6.293-2.422-.068-11.115-6.848-10.024-7.818 2.173-1.93 10.953-5.744 13.162-5.86h.158zm-73.766 10.443c4.282-.132 13.652 1.807 14.647 3.417.543.88.116 3.228-.95 5.218s-2.968 3.62-4.227 3.62c-2.893 0-12.924-10.335-11.456-11.804.28-.28.999-.42 1.986-.45"/><path fill="url(#d)" d="M465.114 1111.277c5.84 13.897 9.97 23.66 10.832 25.576 1.485 3.3 6.136 13.889 10.337 23.532 10.18 23.364 16.449 32.732 31.023 46.365 18.969 17.744 45.207 33.507 69.694 41.872 12.765 4.36 37.16 9.646 44.71 9.688 8.927.049 10.177 1.937 7.927 11.977-10.2 45.515-2.824 96.395 19.95 137.589 10.212 18.473 34.08 43.586 50.672 53.315 16.948 9.939 40.528 17.24 59.116 18.305 15.26.874 16.8.607 27.77-4.794 6.475-3.187 13.923-8.614 16.83-12.26 6.09-7.638 8.01-8.082 10.187-2.357 2.897 7.62 16.7 23.384 23.724 27.092 22.822 12.049 32.82-2.363 32.586-46.977-.14-26.851-2.866-47.654-10.41-79.417l-5.703-24.01 3.076-21.238c1.692-11.682 3.075-23.757 3.07-26.832-.008-6.418 4.49-13.8 8.409-13.8 2.198 0 2.667 4.618 2.673 26.318.015 53.663 12.05 96.12 38.709 136.552 23.536 35.696 50.417 52.877 62.313 39.826 7.1-7.786 8.563-16.807 7.337-45.174-.627-14.517-.54-26.359.193-26.316.732.043 7.146 5.52 14.257 12.169 23.59 22.063 56.653 41.871 83.143 49.815 15.533 4.658 46.295 4.674 59.992.026 46.204-15.67 78.94-49.229 94.952-97.338 6.795-20.417 12.169-51.18 12.169-69.675v-11.184l24.71-12.107c24.904-12.202 47.818-27.105 60.835-39.564-4.186-20.57-8.882-41.14-16.047-61.71-27.102 14.09-48.488 15.6-64.883 8.178-45.08-20.407-141.21-48.1-231.407-73.443h-14.152c73.504 20.216 165.268 48.497 224.782 69.837l30.936 11.095v11.728c0 18.6-5.48 30.625-21.064 46.22-14.84 14.85-33.331 24.96-51.766 28.301-15.763 2.858-21.952 2.287-49.068-4.52-64.04-16.08-150.613-57.264-205.924-97.96-11.978-8.813-13.18-10.332-16.317-20.657-3.892-12.81-12.23-29.41-21.692-44.044h-5.933c1.427 1.95 2.662 3.73 3.626 5.246 7.64 12.029 17.366 32.676 20.23 42.951 4.641 16.646 5.353 41.506 1.553 54.192-16.15 53.914-73.312 69.607-84.327 72.159-13.333 3.089-46.711 2.284-59.668-1.44-28.16-8.091-58.165-30.749-67.592-51.037-4.527-9.743-4.385-11.384 1.104-12.761 6.76-1.697 5.69-5.426-3.912-13.633l-8.53-7.291 4.978-8.498c2.738-4.673 4.456-9.34 3.817-10.375-.639-1.034-4.858-4.048-9.377-6.696-4.518-2.648-8.198-5.774-8.176-6.947s1.66-5.696 3.637-10.051l3.592-7.919-4.677-1.777c-2.573-.978-5.454-1.778-6.404-1.778s-1.729-5.452-1.729-12.117v-12.12l8.311 1.247c5.441.816 8.311.564 8.311-.728 0-1.085-3.116-2.455-6.926-3.044-9.337-1.443-19.558-4.103-29.789-7.583h-12.331c6.192 2.34 13.313 4.858 17.65 6.22l10.159 3.192.544 12.386.543 12.388-7.39 3.768c-37.325 19.042-6.631 73.96 18.585 73.96 2.895 0 5.262 1.009 5.262 2.241 0 4.529-19.892 20.868-30.695 25.214-10.564 4.25-27.222 6.266-38.563 4.67-3.047-.43-13.435-2.5-23.085-4.6-20.594-4.48-59.507-22.512-68.942-31.947-8.35-8.35-19.012-29.557-21.395-42.551-3.665-19.994-5.197-17.995 25.42-33.171 23.592-11.694 53.22-24.5 73.138-31.77H603.72c-18.81 7.094-31.86 13.01-58.921 26.37-17.115 8.449-32.904 15.356-35.09 15.356-6.326-.014-14.546-6.03-26.112-19.122-5.487-6.212-8.586-10.227-14.466-22.604zm366.355 7.97c-7.469.137-14.511 2.784-19.898 8.62-2.44 2.642-1.906 3.848 3.39 9.311l5.992 6.18c-5.618 8.605-15.006 15.61-18.792 25.349 0 1.118 3.74 3.85 8.311 6.071 9.205 4.472 9.602 5.468 5.406 13.584-3.291 6.364-3.471 5.905 3.88 9.899 13.687 7.437 44.44-1.602 52.157-15.332 18.353-32.654-13.77-64.174-40.446-63.682m.647 4.22c14.235.035 26.734 8.281 33.855 22.333 20.95 41.341-28.584 56.65-43.89 47.73-2.624-1.53-2.81-2.63-1.087-6.41 1.143-2.509 3.607-4.561 5.475-4.561 6.678 0 3.213-3.88-7.686-8.606-6.094-2.643-11.08-5.655-11.08-6.693 0-2.722 18.469-20.664 18.469-23.029 0-.886-2.493-4-5.54-6.92s-5.541-6.027-5.541-6.904c0-2.152 11.777-6.954 17.025-6.94m-143.425 27.614c2.612-.062 4.505.222 4.505.96 0 .484-1.66 3.6-3.688 6.926-5.363 8.797-4.65 10.98 5.57 17.047 5.06 3.004 9.2 6.42 9.2 7.592s-2.08 5.193-4.62 8.936c-2.539 3.742-4.614 7.367-4.614 8.056 0 .69 3.53 4.307 7.848 8.04 4.317 3.735 7.413 7.241 6.88 7.792-2.417 2.5-17.597 2.044-23.129.517-26.91-7.428-35.556-50.014-11.565-63.196 2.912-1.506 9.26-2.567 13.613-2.67m242.37 22.239c.297 0 4.87 3.175 10.158 7.05 29.8 21.83 90.044 54.64 134.716 73.365l21.673 9.085 4.624 11.12c12.666 30.463 10.675 54.457-5.422 65.351-12.4 8.392-35.198 6.653-56.4-4.302-35.328-18.254-72.41-55.593-102.897-103.611-9.294-14.638-9.427-15.05-7.613-23.556 1.015-4.762 1.57-14.473 1.234-21.581-.338-7.108-.37-12.92-.073-12.921m-4.435 50.353c1.757-.018 5.222 4.917 15.386 20.31 22.745 34.444 46.188 60.083 70.879 77.514l10.343 7.3 4.886 19.817c2.687 10.899 6.464 24.744 8.392 30.768s5.71 17.895 8.408 26.38c2.698 8.487 4.657 16.095 4.353 16.907-.805 2.155-21.357-8.61-31.025-16.252-10.73-8.48-14.655-12.868-27.898-31.168-8.654-11.958-11.893-18.466-15.624-31.397-9.54-33.064-27.725-68.077-46.836-90.179l-11.05-12.78 3.285-5.62c1.806-3.09 4.07-7.545 5.03-9.898.424-1.042.836-1.696 1.471-1.702m-223.358 4.867c.795.024 1.335.92 2.143 2.43 1.715 3.204 1.442 5.603-1.386 12.198-8.563 19.978-11.433 35.419-11.736 63.133-.16 14.73-1.263 32.182-2.45 38.785-1.189 6.602-2.373 15.731-2.633 20.288l-.473 8.284-6.888-8.425c-13.01-15.918-21.146-40.896-25.59-78.557-2.75-23.294-1.83-27.682 6.157-29.37 10.751-2.272 27.496-12.485 35.273-21.513 4.479-5.2 6.343-7.29 7.583-7.253m5.879 11.138 9.94 11.428c10.313 11.857 30.508 26.34 45.088 32.337 8.055 3.313 8.423 3.793 8.43 11.006.02 21.506-9.477 43.14-23.08 52.58-7.538 5.23-13.32 7.441-16.622 6.354-1.016-.334-4.98-1.133-8.812-1.774-8.959-1.5-19.418-10.701-24.04-21.148-7.734-17.486-5.227-53.608 5.69-81.942zm205.354 6.598 6.617 6.358c13.368 12.841 34.7 49.84 43.187 74.905 17.933 52.963 27.48 120.397 19.982 141.138-4.07 11.257-11.86 12.667-26.86 4.856-19.52-10.164-54.97-63.555-60.988-91.854-.931-4.381-2.583-11.293-3.67-15.356-4.314-16.116-7.623-47.357-7.376-69.653l.263-23.483 8.581-6.915c4.72-3.804 11.21-9.86 14.423-13.457zm189.711 19.885c1.687.014 9.27 2.034 17.98 4.824 24.077 7.712 54.1 13.633 64.337 12.686l8.522-.79 2.278 9.4c1.252 5.172 2.705 16.882 3.23 26.024.679 11.804.224 18.314-1.566 22.463l-2.519 5.844-10.158-9.31c-11.085-10.158-36.293-29.336-61.33-46.66-10.65-7.37-16.952-13.13-18.948-17.314-1.644-3.449-2.615-6.645-2.156-7.105.043-.043.156-.064.33-.062m-236.818 16.379c.187.014.312.039.368.094.521.52-.372 10.412-1.986 21.981s-3.2 21.302-3.525 21.627-4.85-7.504-10.058-17.395c-5.246-9.964-8.678-18.474-7.695-19.082 3.535-2.184 20.099-7.332 22.896-7.226zm246.122 5.291h.01c1.957 0 35.278 23.873 53.077 38.028 29.554 23.501 34.15 29.706 32.695 44.16-1.476 14.676-22.96 39.897-41.94 49.241-7.07 3.48-15.855 6.208-21.515 6.677l-9.57.793-12.347-29.278c-18.797-44.573-21.097-51.064-18.424-51.955 5.58-1.86 13.232-10.417 16.152-18.061 2.503-6.554 2.94-11.616 2.07-23.957-.604-8.538-.695-15.539-.21-15.648zm-333.704 1.426c.33 0 .7.044 1.112.114 2.032.339 4.345 1.24 5.143 2.004s1.215 10.376.925 21.36l-.527 19.968-5.192-10.892c-4.256-8.93-5.088-12.89-4.618-21.976.448-8.668.851-10.599 3.157-10.578m13.576 2.83 8.54 1.626c4.7.893 14.778 1.11 22.396.482 15.861-1.31 13.639-3.117 25.766 20.95 13.234 26.261 21.538 61.367 26.07 110.221 2.715 29.276.161 50.378-7.105 58.697-6.486 7.426-20.19 2.483-32.619-11.766-11.32-12.978-28.281-51.908-34.502-79.193-6.465-28.356-11.307-74.286-9.588-90.947zm-19.276 25.33h.032c3.605.102 15.011 32.632 19.66 56.076 2.797 14.1 7.006 31.504 9.356 38.676 3.824 11.677 3.997 13.57 1.663 18.083-1.433 2.772-4.904 6.664-7.713 8.65-6.647 4.698-13.905 5.824-26.031 4.039-17.518-2.58-18.961-5.42-26.3-51.685-2.013-12.697-4.107-25.312-4.653-28.033-.88-4.388.171-5.69 9.326-11.547 10.682-6.833 20.113-19.09 22.279-28.953.635-2.892 1.698-5.25 2.38-5.305m-78.852 16.314 7.231 8.214c8.09 9.191 17.111 14.222 25.504 14.222 3.088 0 6.13.833 6.758 1.85.944 1.527 7.18 37.935 11.466 66.946.563 3.81.29 6.897-.606 6.864-.896-.035-6.584-1.767-12.642-3.85-17.174-5.905-29.91-15.767-36.688-28.41-3.415-6.367-3.964-10.445-3.985-29.548-.014-12.19.647-25.342 1.469-29.226zm334.87.982c1.338-.064 5.367 1.417 9.715 3.62 13.48 6.83 29.161 10.848 39.604 10.146l9.275-.623 15.577 36.937c8.568 20.316 16.024 38.623 16.57 40.681 1.219 4.582-4.863 10.558-13.786 13.546-10.347 3.466-27.169 1.02-41.463-6.027l-9.512-4.691-7.767-24.525c-10.97-34.634-19.89-67.666-18.616-68.94.074-.074.212-.114.403-.124" transform="translate(-14.945 -59.076)scale(.9699)"/><g transform="matrix(1.21744 0 0 1.09193 248.816 51.041)"><path fill="#f3f3f3" d="M262.803 643.824c-1.904.046-3.779 1.496-4.964 4.918-.411 1.689-.487 1.696-2.5.22-3.843-2.822-9.308-1.977-8.754 4.918l.191 2.38-1.913-.196c-3.967-.406-6.517 1.114-6.852 4.092-.198 1.747.324 3.149 2.015 5.408.843 1.125.862 1.232.237 1.428-2.213.697-4.345 2.342-5.221 4.026-1.215 2.336.577 5.451 3.982 6.916 1.705.733 1.826.866 1.406 1.54-1.328 1.618-2.385 3.356-2.52 5.599 0 2.806 3.15 4.771 6.939 4.326l2.087-.246-.26 1.53c-.4 2.373.088 4.64 1.274 5.91 1.901 2.036 4.327 1.989 7.5-.146l1.897-1.278.36.944c1.3 3.965 4.731 6.62 8.105 4.41 1.067-.7 3.075-3.776 3.075-4.71 0-.881-.015-.885 2.22.619 3.194 2.15 5.615 2.202 7.521.161 1.186-1.27 1.674-3.537 1.274-5.909l-.258-1.53 2.037.238c3.368.396 6.251-1.068 6.857-3.48.36-1.435-.48-4.179-1.775-5.8l-1.12-1.404 1.608-.69c3.268-1.4 5.184-3.978 4.622-6.22-.368-1.466-2.313-3.378-4.308-4.237-2.746-1.33-.825-1.911.192-3.968 2.244-4.587-.3-7.942-5.711-7.533l-2.332.178.23-1.962c.723-6.146-4.111-8.945-9.002-5.212l-1.697 1.294-.365-.962c-1.135-3.37-3.63-5.63-6.077-5.572m.487 16.077c2.801.012 3.914.183 5.306.813 2.486 1.126 5.016 3.599 6.378 6.233 1.047 2.025 1.166 2.595 1.178 5.62.012 3.06-.096 3.593-1.2 5.836-1.371 2.785-3.304 4.674-6.254 6.117-3.494 1.71-7.979 1.58-11.654-.335-7.748-4.038-9.115-14.933-2.634-20.995 2.804-2.622 4.652-3.307 8.88-3.289"/><circle cx="264.424" cy="672.983" r="14.163" fill="#ffdf00" fill-rule="evenodd" style="font-variation-settings:normal;-inkscape-stroke:none"/></g><g fill-rule="evenodd" transform="translate(149.945 -247.343)scale(1.49632)"><path fill="#f3f3f3" d="M429.41 850.127c-1.631.004-3.304.893-4.576 3.008-.559 1.226-.607 1.196-2.373-.135-3.386-2.553-8.75-2.272-8.467 2.99q.05.908.096 1.817-.87-.126-1.74-.24c-3.651-.48-5.963.721-6.205 2.988-.146 1.348.36 2.392 1.835 4.136.733.867.737.95.211 1.094-1.898.52-3.633 1.805-4.302 3.13-.924 1.83.726 4.146 3.384 5.235 1.348.553 1.431.664 1.108 1.178-1.028 1.241-1.788 2.577-1.844 4.305.055 2.159 2.376 3.587 5.04 3.332a91 91 0 0 1 1.495-.131q-.12.578-.236 1.156c-.362 1.793-.084 3.546.652 4.545 1.196 1.622 2.731 1.667 5.032.283q.69-.414 1.392-.82l.15.742c.487 3.13 2.357 5.348 4.784 4.127.754-.38 2.586-2.444 2.73-3.111.138-.635.141-.679 1.37.777 1.736 2.059 3.226 2.51 4.917 1.363 1.04-.705 1.885-2.263 2.131-4.064l.158-1.164q.68.288 1.354.586c2.23.983 4.554.616 5.613-.96.633-.94.77-3.094.235-4.581q-.23-.64-.47-1.28.68-.052 1.364-.097c2.756-.182 4.942-1.446 5.14-3.192.131-1.15-.837-3.039-2.206-4.199-1.835-1.692-.192-1.583 1.18-2.781 2.951-2.603 1.951-5.798-2.932-6.93a142 142 0 0 0-2.05-.459l.63-1.363c1.928-4.17-1.705-7.672-7.043-5.855q-.89.302-1.77.615l-.18-.78c-.505-2.712-2.528-4.855-4.912-5.212v-.002a4.6 4.6 0 0 0-.695-.051m-3.34 11.816c.722.032 1.516.13 2.424.29 2.405.42 3.401.773 4.469 1.47 1.978 1.29 3.632 3.586 4.238 5.81.46 1.686.429 2.152-.162 4.354-.605 2.257-.79 2.59-2.068 4.037-1.578 1.789-3.334 2.82-5.717 3.448-2.799.736-5.99.105-8.508-1.66-5.131-3.598-6.467-12.037-.285-16.073 1.94-1.266 3.445-1.77 5.61-1.676" style="font-variation-settings:normal"/><circle cx="426.922" cy="870.897" r="10.922" fill="#ffdf00" style="font-variation-settings:normal;-inkscape-stroke:none"/></g><g fill-rule="evenodd" transform="translate(109.136 -318.16)scale(1.57448)"><path fill="#f3f3f3" d="M469.297 866.033c-1.503.045-2.915.957-3.746 3.094l-.662 1.693q-.74-.428-1.485-.847c-3.118-1.754-5.705-1.51-6.87.447-.695 1.163-.677 2.295-.061 4.424.306 1.058.278 1.134-.262 1.068-1.944-.238-4.063.268-5.225 1.201-1.604 1.291-1.092 4.006.897 6.026 1.006 1.021 1.041 1.155.53 1.496-1.463.725-2.725 1.633-3.499 3.17-.85 1.964.652 4.187 3.295 5.027q.728.231 1.455.473-.35.481-.697.965c-1.076 1.495-1.536 3.205-1.248 4.42.466 1.967 1.914 2.641 4.658 2.267q.822-.112 1.652-.213-.075.373-.152.744c-.785 3.083.129 5.902 2.947 5.694.88-.065 3.43-1.296 3.83-1.87.38-.544.398-.579 1.012 1.24.87 2.578 2.14 3.554 4.197 3.094 1.267-.283 2.666-1.44 3.586-3.04q.298-.517.594-1.036.538.514 1.068 1.034c1.757 1.72 4.119 2.194 5.719 1.085.956-.661 1.897-2.635 1.95-4.216q.022-.68.036-1.364.666.188 1.33.383c2.704.796 5.232.353 6.075-1.215.555-1.033.35-3.139-.502-4.697-1.09-2.217.422-1.547 2.168-2.197 3.774-1.425 4.03-4.76-.104-7.49q-.867-.573-1.744-1.133l1.115-1.059c3.427-3.24 1.366-7.725-4.281-7.88a145 145 0 0 0-1.883-.042q.071-.393.14-.787c.604-2.693-.416-5.377-2.464-6.531-1.583-.892-3.723-.825-6.033.893-1.007.932-1.045.89-2.125-.958-1.196-2.046-3.279-3.421-5.211-3.363m1.176 12.143c1.95-.078 3.547.466 5.89 1.875 2.07 1.244 2.853 1.917 3.576 2.943 1.335 1.893 1.99 4.615 1.696 6.902-.224 1.736-.43 2.159-1.838 4.008-1.442 1.893-1.749 2.142-3.516 3.037-2.183 1.107-4.25 1.438-6.754 1.149-2.945-.34-5.719-2.125-7.382-4.713-3.407-5.3-1.094-13.458 6.218-14.926.77-.154 1.46-.25 2.11-.275" style="font-variation-settings:normal"/><circle cx="471.208" cy="888.764" r="11.329" fill="#ffdf00" style="font-variation-settings:normal;-inkscape-stroke:none"/></g><g fill-rule="evenodd" transform="translate(103.371 -323.043)scale(1.57426)"><path fill="#f3f3f3" d="M501.795 896.672a3.36 3.36 0 0 0-2.305.74c-1.09.854-1.498 1.923-1.71 4.127-.106 1.096-.164 1.16-.65.914-1.746-.883-3.937-1.134-5.386-.656-2.002.661-2.54 3.383-1.4 5.96.576 1.304.561 1.44-.051 1.585-1.657.181-3.193.6-4.5 1.777-1.538 1.553-.923 4.161 1.289 5.85q.609.465 1.213.937l-1.018.67c-1.572 1.04-2.634 2.487-2.8 3.725-.27 2.004.873 3.123 3.623 3.691q.824.17 1.65.354l-.416.646c-1.863 2.624-2.001 5.553.746 6.287.858.23 3.717-.076 4.303-.476.555-.38.586-.408.508 1.484-.11 2.679.732 3.995 2.834 4.244 1.294.154 3.03-.456 4.478-1.635q.468-.38.936-.763.317.654.627 1.31c1.02 2.172 3.056 3.389 4.96 2.899 1.139-.293 2.743-1.801 3.374-3.248q.27-.623.535-1.25.556.395 1.107.8c2.24 1.644 4.766 2.09 6.133.924.9-.769 1.485-2.79 1.258-4.527-.207-2.43.964-1.297 2.84-1.309 4.054-.04 5.534-3.052 2.648-7.015a138 138 0 0 0-1.223-1.65l1.434-.61c4.395-1.858 4.12-6.761-1.139-8.82q-.877-.346-1.756-.676l.422-.69c1.553-2.317 1.578-5.176.078-6.949h.002c-1.159-1.37-3.195-2.03-6.002-1.197-1.29.535-1.31.484-1.644-1.611-.655-4.121-4.72-7.207-8.328-3.266l-1.252 1.365q-.538-.65-1.084-1.295c-1.426-1.684-2.947-2.57-4.334-2.646m4.504 12.152q.671.011 1.369.112c3.132.455 4.7 1.376 6.955 4.183 1.494 1.86 1.985 2.752 2.291 3.955.565 2.22.187 4.983-.924 7.018-.843 1.543-1.192 1.868-3.191 3.119-2.047 1.28-2.423 1.408-4.412 1.652-2.457.303-4.525-.073-6.783-1.174-2.656-1.294-4.64-3.879-5.276-6.859-1.223-5.727 3.27-12.12 9.97-12.006" style="font-variation-settings:normal"/><circle cx="506.437" cy="918.699" r="11.6" fill="#ffdf00" style="font-variation-settings:normal;-inkscape-stroke:none"/></g><g fill-rule="evenodd" transform="translate(117.462 -293.603)scale(1.53732)"><path fill="#f3f3f3" d="M531.223 936.988a3.6 3.6 0 0 0-1.246.168c-1.337.418-2.112 1.27-3.131 3.24-.507.98-.584 1.018-.946.624-1.304-1.422-3.26-2.403-4.793-2.454-2.117-.069-3.621 2.274-3.52 5.036.053 1.397-.013 1.515-.638 1.441-1.612-.396-3.202-.528-4.86.115-2.015.913-2.388 3.543-.995 5.795q.389.63.77 1.268l-1.198.265c-1.853.417-3.392 1.383-4.02 2.45-1.018 1.73-.396 3.118 1.917 4.564q.693.433 1.382.88-.318.223-.636.442c-2.755 1.734-4.046 4.308-1.836 5.907.688.498 3.444 1.225 4.142 1.072.662-.145.71-.162-.146 1.51-1.21 2.36-1.006 3.826.816 4.812 1.12.605 2.977.696 4.809.168l1.185-.342q.017.708.022 1.414c.014 2.337 1.352 4.202 3.326 4.487 1.181.17 3.319-.58 4.521-1.659q.518-.463 1.03-.935.345.574.685 1.156c1.368 2.345 3.533 3.776 5.309 3.24 1.172-.353 2.573-1.986 3.088-3.683.822-2.325 1.433-.826 3.193-.098 3.807 1.555 6.455-.65 5.348-5.488q-.232-1.008-.48-2.01l1.585-.014c4.854-.032 6.557-4.736 2.414-8.668q-.688-.652-1.382-1.29l.662-.485c2.353-1.58 3.475-4.245 2.744-6.463v-.002c-.565-1.713-2.223-3.079-5.164-3.326-1.411.028-1.407-.028-.928-2.102.946-4.094-1.724-8.41-6.564-6.021l-1.68.826q-.26-.794-.531-1.586c-.918-2.689-2.49-4.17-4.254-4.254m-2.885 12.418c1.632-.01 3.322.388 4.957 1.303 2.743 1.535 3.867 2.964 4.883 6.385.674 2.267.78 3.281.595 4.506-.343 2.268-1.789 4.679-3.642 6.14-1.403 1.106-1.863 1.276-4.225 1.676-2.422.41-2.818.385-4.763-.127-2.4-.632-4.155-1.728-5.797-3.539-1.928-2.125-2.73-5.171-2.16-8.107.872-4.497 5.255-8.206 10.152-8.237" style="font-variation-settings:normal"/><circle cx="527.654" cy="959.387" r="12.006" fill="#ffdf00" style="font-variation-settings:normal;-inkscape-stroke:none"/></g><g fill-rule="evenodd" transform="translate(117.88 -298.396)scale(1.53507)"><path fill="#f3f3f3" d="M532.764 982.8c-1.671-.024-3.426 1.401-4.315 3.475-.554 1.295-.668 1.376-1.217 1.059-1.327-1.002-2.748-1.748-4.568-1.818-2.27.033-3.728 2.257-3.408 4.828q.089.72.166 1.445l-1.223-.238c-1.893-.366-3.732-.115-4.77.586-1.684 1.138-1.702 2.621-.202 4.855q.45.67.888 1.352l-.777.138c-3.285.44-5.587 2.226-4.258 4.582.414.734 2.621 2.524 3.326 2.67.672.14.718.144-.793 1.317-2.136 1.66-2.583 3.097-1.343 4.746.762 1.014 2.418 1.848 4.322 2.105l1.232.166q-.29.655-.592 1.305c-.995 2.15-.564 4.41 1.118 5.453 1.005.624 3.28.781 4.84.278q.67-.217 1.341-.442.07.66.131 1.324c.246 2.678 1.624 4.816 3.473 5.028 1.218.14 3.196-.782 4.394-2.1 1.751-1.763 1.668-.168 2.963 1.178 2.814 2.898 6.176 1.963 7.27-2.772q.227-.99.44-1.984l1.456.625c4.455 1.92 8.08-1.572 6.04-6.776q-.34-.866-.69-1.724l.822-.164c2.858-.462 5.08-2.403 5.404-4.711.251-1.781-.654-3.705-3.242-5.137-1.308-.553-1.277-.6.09-2.297 2.622-3.251 2.203-8.443-3.346-8.218l-1.916.074q.115-.837.217-1.678c.427-3.521-.89-5.763-3.285-6.018-1.424-.152-2.515.326-4.322 1.733-.898.699-.986.702-1.149.193-.588-1.836-1.978-3.52-3.387-4.177a2.8 2.8 0 0 0-1.13-.26m-1.674 12.27c3.226-.166 6.54 1.034 8.734 4.041 1.837 2.518 2.228 4.28 1.635 7.791-.393 2.326-.746 3.285-1.459 4.313-1.321 1.904-3.711 3.486-6.049 4.05-1.77.428-2.264.393-4.601-.202-2.395-.611-2.75-.796-4.303-2.05-1.919-1.547-3.042-3.256-3.75-5.57-.831-2.715-.227-5.795 1.584-8.213 1.844-2.46 4.983-3.994 8.209-4.16" style="font-variation-settings:normal"/><circle cx="530.771" cy="1004.946" r="12.006" fill="#ffdf00" style="font-variation-settings:normal;-inkscape-stroke:none"/></g><g fill-rule="evenodd" transform="translate(113.619 -317.199)scale(1.54865)"><path fill="#f3f3f3" d="M513.678 1026.191c-1.719-.026-3.376 1.309-4.057 3.387q-.231.706-.473 1.408l-1.03-.687c-1.599-1.062-3.413-1.528-4.688-1.262-2.067.43-2.752 1.83-2.309 4.5q.134.8.254 1.607l-.79-.156c-3.266-.798-6.224.057-5.956 2.8.083.855 1.427 3.35 2.039 3.747.58.376.619.393-1.291.969-2.705.817-3.715 2.042-3.195 4.05.32 1.238 1.566 2.614 3.273 3.53l1.104.592q-.534.518-1.075 1.03c-1.787 1.69-2.247 3.988-1.048 5.563.715.942 2.818 1.884 4.492 1.956q.72.03 1.443.053-.188.647-.383 1.294c-.794 2.632-.281 5.107 1.393 5.952 1.103.556 3.329.383 4.963-.43 2.328-1.036 1.646.433 2.367 2.149 1.58 3.713 5.12 4.007 7.937 0q.59-.842 1.166-1.69.573.552 1.143 1.106c3.503 3.398 8.222 1.437 8.273-4.088q.01-.924.006-1.844l.836.15c2.87.625 5.696-.34 6.877-2.328.914-1.536.798-3.631-1.072-5.91-1.01-.995-.965-1.028.97-2.06 3.813-2.032 5.315-6.827.1-8.739q-.904-.33-1.808-.664.438-.716.867-1.437c1.792-3.018 1.483-5.54-.613-6.698-1.245-.688-2.443-.683-4.682-.11-1.113.287-1.196.258-1.137-.267.213-1.888-.362-3.954-1.373-5.093-1.396-1.573-4.257-1.108-6.351.802-1.06.967-1.199 1-1.569.498-.794-1.428-1.777-2.664-3.414-3.433a3.3 3.3 0 0 0-1.19-.242zm1.35 11.608c4.473.115 8.935 2.758 10.103 7.668.716 3.01.394 4.76-1.533 7.787-1.278 2.006-1.976 2.761-3.05 3.455-1.979 1.28-4.849 1.885-7.277 1.568-1.84-.24-2.292-.446-4.275-1.845-2.029-1.432-2.298-1.734-3.277-3.47-1.21-2.142-1.597-4.16-1.336-6.597.307-2.864 2.142-5.544 4.846-7.133 1.73-1.016 3.765-1.485 5.798-1.433" style="font-variation-settings:normal"/><circle cx="515.039" cy="1047.891" r="10.922" fill="#ffdf00" style="font-variation-settings:normal;-inkscape-stroke:none"/></g><g fill-rule="evenodd" transform="translate(111.356 -341.216)scale(1.5659)"><path fill="#f3f3f3" d="M478.31 1060.6c-1.65.054-2.604 1.189-3.091 3.53q-.167.804-.348 1.608-.344-.206-.687-.414c-2.798-1.852-5.893-2.024-6.627.649-.23.835.136 3.63.568 4.207.41.548.439.577-1.56.476-2.83-.142-4.206.664-4.44 2.715-.144 1.263.526 2.968 1.791 4.4q.408.465.818.926-.685.303-1.375.596c-2.279.97-3.536 2.944-2.992 4.816.325 1.12 1.942 2.714 3.48 3.352q.664.274 1.33.541-.412.54-.831 1.074c-1.706 2.174-2.144 4.644-.89 6.002.825.895 2.974 1.5 4.81 1.303 2.569-.168 1.386.964 1.425 2.807.104 3.985 3.318 5.484 7.473 2.705q.87-.584 1.729-1.178l.668 1.42c2.04 4.352 7.238 4.153 9.335-.99q.35-.86.686-1.72l.738.427c2.485 1.561 5.52 1.63 7.375.18h.002c1.434-1.121 2.098-3.115 1.164-5.885-.59-1.276-.537-1.294 1.68-1.592 4.361-.585 7.56-4.537 3.315-8.133l-1.47-1.246q.68-.519 1.354-1.045c2.816-2.2 3.46-4.666 1.9-6.483-.924-1.078-2.063-1.494-4.402-1.732-1.162-.118-1.23-.172-.978-.645.904-1.698 1.13-3.84.6-5.263-.736-1.967-3.625-2.528-6.333-1.447-1.368.546-1.514.53-1.677-.07-.22-1.622-.69-3.129-1.955-4.42-1.667-1.522-4.413-.955-6.16 1.183q-.484.59-.973 1.174-.36-.503-.723-1.004c-1.122-1.548-2.67-2.603-3.978-2.781a4.5 4.5 0 0 0-.75-.043zm4.932 11.484c5.707.29 11.226 5.05 10.334 11.422-.429 3.066-1.379 4.594-4.316 6.767-1.946 1.441-2.885 1.909-4.155 2.192-2.342.523-5.273.114-7.445-1.006-1.646-.849-1.995-1.195-3.35-3.174-1.385-2.024-1.527-2.397-1.816-4.35-.357-2.41.01-4.431 1.139-6.626 1.327-2.581 4.03-4.486 7.17-5.069a10.5 10.5 0 0 1 2.44-.156" style="font-variation-settings:normal"/><circle cx="483.221" cy="1082.204" r="11.193" fill="#ffdf00" style="font-variation-settings:normal;-inkscape-stroke:none"/></g><g fill-rule="evenodd" transform="translate(166.051 -224.3)scale(1.45702)"><path fill="#f3f3f3" d="M443.313 1081.39c-1.128-.01-2.137.754-3.167 2.296q-.448.673-.912 1.341l-.472-.63c-1.86-2.719-4.59-4.016-6.248-1.877-.517.666-1.251 3.351-1.082 4.037.16.65.177.697-1.594-.164-2.501-1.217-4.042-1.037-5.06.732-.626 1.087-.703 2.904-.128 4.705l.373 1.164c-.497 0-.994.01-1.49 0-2.461-.019-4.413 1.266-4.693 3.196-.168 1.154.645 3.26 1.795 4.455q.494.514.998 1.023-.603.33-1.213.654c-2.458 1.307-3.946 3.413-3.363 5.164.384 1.156 2.122 2.557 3.918 3.088 2.462.843.887 1.421.136 3.14-1.603 3.72.754 6.36 5.854 5.345a132 132 0 0 0 2.117-.442q.018.78.031 1.56c.089 4.783 5.084 6.536 9.196 2.514q.682-.668 1.35-1.341l.52.66c1.702 2.344 4.538 3.492 6.878 2.806 1.807-.53 3.233-2.143 3.457-5.039-.049-1.39.008-1.386 2.21-.883 4.351.997 8.888-1.568 6.29-6.373l-.899-1.666q.837-.243 1.672-.498c3.49-1.061 5.028-3.128 4.25-5.35-.461-1.32-1.375-2.096-3.475-3.126-1.043-.512-1.084-.588-.671-.938 1.485-1.26 2.495-3.166 2.527-4.67.043-2.077-2.453-3.586-5.371-3.525-1.476.031-1.604-.036-1.533-.648.396-1.576.514-3.131-.188-4.764-.99-1.988-3.773-2.389-6.133-1.057q-.66.373-1.328.737-.146-.59-.295-1.178c-.463-1.82-1.501-3.338-2.634-3.967-.575-.319-1.111-.48-1.624-.482zm-3.422 11.544c.771-.014 1.553.05 2.33.2 6.346 1.227 11.303 8.563 7.52 14.936-1.589 2.675-3.085 3.758-6.69 4.705-2.39.63-3.463.72-4.76.52-2.402-.372-4.966-1.83-6.531-3.674-1.184-1.395-1.368-1.85-1.817-4.176-.46-2.384-.438-2.774.08-4.676.64-2.344 1.779-4.048 3.67-5.632 1.665-1.395 3.883-2.16 6.198-2.203" style="font-variation-settings:normal"/><circle cx="440.54" cy="1103.273" r="11.735" fill="#ffdf00" style="font-variation-settings:normal;-inkscape-stroke:none"/></g><g fill-rule="evenodd" transform="translate(106.81 -398)scale(1.61404)"><path fill="#f3f3f3" d="M395.627 1083.234c-.417.01-.858.12-1.32.358-.767.394-2.631 2.526-2.78 3.213-.141.654-.145.699-1.388-.793-1.759-2.11-3.271-2.568-4.993-1.381-1.058.73-1.922 2.337-2.18 4.193l-.165 1.201q-.69-.292-1.373-.595c-2.264-1.003-4.63-.613-5.715 1.015-.649.974-.802 3.195-.264 4.727q.232.66.473 1.318-.692.058-1.389.108c-2.809.202-5.045 1.519-5.258 3.324-.14 1.19.838 3.14 2.229 4.332 1.862 1.741.187 1.638-1.219 2.887-3.029 2.714-2.029 6.023 2.953 7.168q1.045.239 2.092.463l-.648 1.42c-1.993 4.344 1.703 7.96 7.168 6.037q.909-.32 1.808-.65l.18.81c.506 2.817 2.567 5.032 5.002 5.388 1.88.276 3.9-.587 5.39-3.111.574-1.278.622-1.247 2.422.125 3.451 2.632 8.927 2.304 8.641-3.162l-.096-1.887q.885.125 1.772.239c3.72.474 6.074-.788 6.32-3.14.147-1.397-.37-2.475-1.871-4.273-.746-.892-.75-.978-.215-1.13 1.93-.55 3.696-1.891 4.375-3.264.937-1.897-.742-4.28-3.443-5.39-1.37-.564-1.456-.677-1.127-1.21 1.043-1.286 1.815-2.669 1.87-4.451-.055-2.225-2.41-3.682-5.112-3.406q-.76.078-1.522.142.123-.598.242-1.195c.368-1.847.087-3.65-.66-4.674-1.212-1.662-2.77-1.7-5.105-.265q-.701.43-1.416.85l-.15-.763c-.398-2.613-1.723-4.604-3.528-4.58zm-3.635 11.916c2.234-.063 4.538.633 6.455 1.989 5.212 3.685 6.563 12.4.264 16.617-2.638 1.766-4.491 2.122-8.193 1.486-2.452-.42-3.464-.782-4.551-1.498-2.013-1.325-3.692-3.693-4.301-5.994-.461-1.742-.429-2.225.182-4.506.625-2.337.816-2.68 2.123-4.183 1.612-1.856 3.402-2.93 5.828-3.59a9.4 9.4 0 0 1 2.193-.32" style="font-variation-settings:normal"/><circle cx="391.898" cy="1105.847" r="11.735" fill="#ffdf00" style="font-variation-settings:normal;-inkscape-stroke:none"/></g><g fill-rule="evenodd" transform="translate(101.197 -440.02)scale(1.654)"><path fill="#f3f3f3" d="M349.758 1066.441a4 4 0 0 0-1.096.112c-1.291.295-2.723 1.488-3.674 3.134l-.615 1.067q-.542-.526-1.078-1.059c-1.772-1.758-4.17-2.235-5.81-1.092-.98.684-1.96 2.715-2.03 4.34q-.03.7-.053 1.403-.675-.19-1.351-.389c-2.748-.807-5.331-.343-6.21 1.273-.578 1.066-.394 3.234.458 4.834 1.086 2.28-.448 1.596-2.238 2.274-3.874 1.487-4.177 4.93.015 7.73q.881.589 1.77 1.162l-1.155 1.1c-3.545 3.369-1.49 8.002 4.29 8.133q.966.023 1.927.03l-.154.817c-.647 2.795.368 5.572 2.453 6.758 1.611.917 3.805.835 6.188-.96 1.039-.974 1.074-.93 2.162.98 2.141 3.763 7.175 5.305 9.16.226l.691-1.76q.753.44 1.512.871c3.173 1.801 5.817 1.534 7.021-.501.717-1.21.706-2.383.092-4.583-.305-1.093-.273-1.172.278-1.107 1.982.236 4.145-.298 5.336-1.27 1.643-1.342 1.137-4.146-.877-6.22-1.02-1.05-1.053-1.187-.53-1.541 1.494-.756 2.783-1.698 3.58-3.285.877-2.029-.64-4.312-3.324-5.164q-.739-.235-1.476-.479l.714-.998c1.104-1.543 1.583-3.304 1.297-4.55-.462-2.02-1.93-2.705-4.722-2.31q-.838.12-1.682.227l.162-.765c.82-3.169-.091-6.057-2.957-5.832-.895.07-3.496 1.341-3.908 1.931-.391.56-.408.597-1.018-1.267-.702-2.145-1.682-3.205-3.148-3.27m-2.692 11.887q.885-.014 1.838.094c2.997.337 5.806 2.16 7.48 4.816 3.433 5.446 1.015 13.88-6.462 15.436-3.15.656-4.986.315-8.16-1.611-2.104-1.276-2.895-1.969-3.623-3.026-1.345-1.95-1.985-4.757-1.66-7.119.246-1.79.46-2.228 1.917-4.14 1.49-1.957 1.805-2.215 3.616-3.145 1.676-.861 3.282-1.273 5.054-1.305" style="font-variation-settings:normal"/><circle cx="346.372" cy="1089.317" r="11.735" fill="#ffdf00" style="font-variation-settings:normal;-inkscape-stroke:none"/></g><g fill-rule="evenodd" transform="translate(137.868 -345.231)scale(1.57039)"><path fill="#f3f3f3" d="M310.238 1035.201q-.366.014-.73.108c-1.161.3-2.816 1.842-3.479 3.318q-.285.635-.562 1.275-.558-.402-1.113-.814c-2.255-1.67-4.818-2.12-6.227-.928-.93.787-1.557 2.852-1.354 4.625.172 2.481-1.003 1.326-2.914 1.342-4.132.053-5.692 3.137-2.816 7.184q.603.848 1.219 1.685l-1.475.627c-4.52 1.919-4.324 6.95 1.014 9.045q.89.35 1.783.688-.221.353-.441.709c-1.627 2.387-1.702 5.328-.198 7.146 1.164 1.405 3.234 2.076 6.118 1.207 1.327-.556 1.347-.503 1.656 1.652.606 4.244 4.718 7.407 8.465 3.328l1.3-1.412q.54.669 1.088 1.33c2.295 2.767 4.865 3.426 6.758 1.934 1.124-.885 1.557-1.986 1.803-4.256.122-1.128.18-1.194.672-.943 1.772.901 4.004 1.15 5.488.652 2.05-.688 2.63-3.487 1.498-6.13-.572-1.337-.554-1.477.072-1.628 1.69-.192 3.26-.63 4.604-1.841 1.582-1.598.986-4.27-1.246-5.99q-.615-.474-1.225-.956.522-.344 1.043-.69c1.61-1.068 2.707-2.554 2.889-3.82.295-2.049-.853-3.188-3.64-3.76q-.838-.17-1.675-.355l.43-.662c1.922-2.684 2.096-5.673-.686-6.414-.868-.231-3.775.09-4.375.5-.569.39-.6.416-.498-1.514.145-2.73-.695-4.067-2.826-4.316-1.312-.153-3.084.474-4.57 1.678l-.961.779q-.315-.666-.62-1.334c-.881-1.933-2.561-3.12-4.269-3.049m1.264 11.707c1.754.026 3.362.45 5.074 1.287 2.685 1.315 4.67 3.952 5.28 6.998 1.252 6.253-4.137 13.318-11.72 12.235-3.19-.456-4.779-1.395-7.038-4.27-1.497-1.903-1.982-2.818-2.276-4.05-.541-2.274-.113-5.106 1.051-7.192.883-1.581 1.244-1.914 3.299-3.2 2.103-1.314 2.489-1.445 4.517-1.7a13 13 0 0 1 1.813-.108" style="font-variation-settings:normal"/><circle cx="310.923" cy="1056.838" r="11.735" fill="#ffdf00" style="font-variation-settings:normal;-inkscape-stroke:none"/></g><g fill-rule="evenodd" transform="translate(138.856 -341.05)scale(1.57608)"><path fill="#f3f3f3" d="M286.059 993.385a2.7 2.7 0 0 0-.692.113c-1.193.357-2.64 2.003-3.193 3.715-.876 2.346-1.469.833-3.24.1-3.83-1.568-6.558.66-5.528 5.546q.215 1.02.448 2.032c-.537.01-1.073.01-1.61.014-4.931.037-6.756 4.799-2.623 8.779q.687.663 1.379 1.31l-.684.493c-2.425 1.606-3.62 4.314-2.921 6.566.54 1.74 2.202 3.129 5.193 3.375 1.437-.031 1.432.024.904 2.135-1.044 4.172 1.594 8.568 6.572 6.12l1.727-.847q.25.81.512 1.616c1.09 3.372 3.228 4.878 5.531 4.154 1.369-.43 2.173-1.3 3.244-3.31.532-1 .61-1.039.973-.637 1.304 1.445 3.279 2.44 4.838 2.488 2.154.065 3.719-2.323 3.658-5.135-.031-1.422.04-1.543.674-1.469 1.633.4 3.244.529 4.937-.129 2.061-.932 2.479-3.605 1.098-5.89a100 100 0 0 1-.764-1.285q.61-.134 1.22-.272c1.887-.426 3.46-1.407 4.112-2.49 1.056-1.755.444-3.16-1.879-4.621a93 93 0 0 1-1.388-.89q.324-.225.65-.448c2.815-1.758 4.16-4.363 1.945-5.977-.69-.502-3.47-1.235-4.18-1.08-.672.147-.721.164.17-1.525 1.26-2.385 1.074-3.864-.755-4.858-1.124-.61-3.004-.701-4.866-.167q-.6.171-1.203.347a76 76 0 0 1 0-1.428c.022-2.355-1.304-4.233-3.297-4.52-1.192-.17-3.368.585-4.603 1.673q-.53.467-1.057.945a94 94 0 0 1-.673-1.166c-1.177-2.067-2.985-3.43-4.63-3.377zm3.992 12.174c.654.019 1.245.152 2.226.41 2.422.636 4.182 1.744 5.819 3.574 1.92 2.148 2.687 5.23 2.064 8.205-1.275 6.086-8.878 10.773-15.467 7.065-2.762-1.555-3.877-3.006-4.847-6.477-.644-2.3-.735-3.33-.524-4.57.391-2.3 1.903-4.742 3.81-6.223 1.444-1.12 1.914-1.29 4.317-1.697 1.232-.209 1.948-.306 2.602-.287" style="font-variation-settings:normal"/><circle cx="290.328" cy="1015.242" r="11.735" fill="#ffdf00" style="font-variation-settings:normal;-inkscape-stroke:none"/></g><g fill-rule="evenodd" transform="translate(132.185 -357.113)scale(1.60063)"><path fill="#f3f3f3" d="M282.582 947.357c-1.78-.02-3.386 1.445-4.129 4.39q-.248.986-.48 1.978-.73-.313-1.457-.627c-4.453-1.92-8.177 1.555-6.221 6.752q.325.865.662 1.722l-.832.164c-2.895.459-5.177 2.395-5.553 4.703h-.002c-.29 1.784.586 3.714 3.174 5.15 1.311.557 1.28.603-.137 2.304-2.719 3.26-2.401 8.475 3.223 8.252l1.941-.075q-.131.84-.252 1.686c-.5 3.542.79 5.8 3.211 6.057 1.44.153 2.554-.33 4.41-1.747.922-.703 1.01-.705 1.165-.193.562 1.848 1.94 3.544 3.355 4.205 1.955.913 4.417-.669 5.567-3.238.582-1.302.699-1.383 1.248-1.065 1.325 1.009 2.75 1.758 4.59 1.829 2.296-.034 3.804-2.269 3.52-4.852a82 82 0 0 1-.146-1.453l1.23.242c1.907.368 3.768.114 4.825-.59 1.716-1.142 1.757-2.627.277-4.867a77 77 0 0 1-.877-1.357q.395-.07.788-.137c3.318-.438 5.661-2.225 4.355-4.584-.406-.734-2.604-2.527-3.312-2.674-.675-.14-.72-.143.818-1.314 2.175-1.656 2.644-3.092 1.42-4.739-.753-1.012-2.407-1.846-4.319-2.105l-1.236-.168q.303-.652.615-1.299c1.033-2.142.633-4.393-1.043-5.435-1-.624-3.286-.785-4.863-.286q-.678.215-1.357.438-.06-.658-.11-1.319c-.205-2.665-1.557-4.795-3.412-5.01-1.222-.14-3.227.772-4.455 2.08-1.792 1.753-1.68.167-2.96-1.175-1.043-1.083-2.173-1.63-3.241-1.643m4.7 12.153c.64.03 1.35.19 2.523.488 2.402.613 2.756.796 4.3 2.049 1.908 1.547 3.011 3.257 3.688 5.57.795 2.717.139 5.799-1.727 8.219-3.805 4.935-12.787 6.147-17.113.11-1.81-2.526-2.173-4.293-1.508-7.807.44-2.327.814-3.286 1.553-4.313 1.368-1.9 3.807-3.477 6.174-4.037.896-.212 1.468-.31 2.11-.28" style="font-variation-settings:normal"/><circle cx="288.025" cy="970.664" r="11.735" fill="#ffdf00" style="font-variation-settings:normal;-inkscape-stroke:none"/></g><g fill-rule="evenodd" transform="translate(91.112 -463.877)scale(1.72476)"><path fill="#f3f3f3" d="M307.855 904.545c-1.43-.041-3.03.866-4.464 2.83q-.603.824-1.192 1.656l-1.125-1.09c-3.447-3.351-8.194-1.446-8.336 3.989q-.024.909-.035 1.814l-.836-.148c-2.86-.625-5.706.314-6.924 2.27-.941 1.511-.863 3.578.971 5.833.995.986.951 1.02-1.008 2.033-3.86 1.996-5.453 6.736-.252 8.643q.901.33 1.803.664a133 133 0 0 0-.896 1.422c-1.854 2.987-1.585 5.489.501 6.643 1.24.686 2.442.684 4.702.119 1.123-.281 1.206-.253 1.138.267-.245 1.875.298 3.928 1.295 5.063 1.378 1.566 4.26 1.109 6.395-.785 1.08-.959 1.22-.99 1.584-.49.776 1.42 1.746 2.648 3.379 3.415 2.086.846 4.433-.574 5.31-3.113q.242-.699.494-1.396l1.026.685c1.589 1.057 3.402 1.522 4.685 1.26 2.079-.424 2.783-1.808 2.373-4.457q-.123-.795-.234-1.596l.789.158c3.263.798 6.233-.043 5.998-2.76-.073-.847-1.386-3.318-1.994-3.712-.577-.374-.613-.39 1.305-.955 2.715-.8 3.738-2.007 3.242-3.993-.306-1.222-1.536-2.585-3.23-3.494l-1.096-.586q.54-.51 1.086-1.013c1.805-1.663 2.29-3.924 1.113-5.479-.704-.929-2.791-1.864-4.461-1.94q-.72-.032-1.44-.056.195-.636.399-1.273c.825-2.585.345-5.02-1.315-5.856-1.093-.55-3.317-.39-4.959.403-2.337 1.01-1.637-.431-2.334-2.12-.762-1.825-2.025-2.814-3.457-2.855m-2.164 12.562q.472.02.926.079c1.837.242 2.287.449 4.25 1.833 2.009 1.418 2.273 1.716 3.229 3.43 1.18 2.118 1.541 4.11 1.248 6.516-.345 2.83-2.219 5.476-4.95 7.043-5.597 3.21-14.258.865-15.847-6.211-.67-2.979-.317-4.707 1.662-7.69 1.31-1.975 2.02-2.717 3.105-3.398 1.75-1.098 4.176-1.686 6.377-1.602" style="font-variation-settings:normal"/><circle cx="304.826" cy="927.036" r="11.735" fill="#ffdf00" style="font-variation-settings:normal;-inkscape-stroke:none"/></g><g fill-rule="evenodd" transform="translate(101.92 -397.622)scale(1.66245)"><path fill="#f3f3f3" d="M336.457 871.412c-1.908-.01-3.894 1.277-5.027 3.926q-.357.833-.7 1.668-.361-.21-.726-.418c-2.447-1.532-5.458-1.614-7.317-.213-1.436 1.083-2.12 3.02-1.228 5.725.57 1.246.517 1.265-1.69 1.545-4.342.55-7.578 4.388-3.4 7.921l1.445 1.227q-.684.505-1.36 1.018c-2.834 2.14-3.507 4.55-1.977 6.335.907 1.061 2.037 1.474 4.365 1.717 1.157.12 1.223.175.967.637-.923 1.662-1.176 3.763-.664 5.162.708 1.934 3.584 2.494 6.296 1.443 1.371-.53 1.514-.514 1.67.077.2 1.593.651 3.076 1.899 4.35 1.645 1.5 4.39.952 6.154-1.143q.486-.577.98-1.149.354.494.71.987c1.102 1.525 2.634 2.568 3.937 2.748 2.11.29 3.278-.788 3.857-3.414q.174-.788.362-1.577l.68.41c2.768 1.829 5.845 2.009 6.597-.61.235-.819-.105-3.562-.53-4.13-.402-.538-.43-.566 1.555-.459 2.81.15 4.183-.634 4.43-2.64.152-1.236-.5-2.907-1.744-4.313q-.402-.455-.807-.908.683-.293 1.37-.576c2.267-.938 3.528-2.86 3.001-4.69-.314-1.092-1.905-2.654-3.425-3.283q-.654-.27-1.313-.535.412-.523.832-1.043c1.706-2.11 2.157-4.512.926-5.84-.811-.875-2.935-1.474-4.754-1.29-2.546.15-1.365-.944-1.389-2.735-.07-3.872-3.236-5.347-7.375-2.67q-.865.562-1.722 1.135l-.649-1.381c-.927-1.986-2.552-3.005-4.236-3.014m.475 12.188c1.9-.042 3.937.396 5.545 1.222 1.625.835 1.967 1.174 3.293 3.11 1.356 1.98 1.494 2.344 1.763 4.252.334 2.356-.049 4.329-1.19 6.47-1.341 2.52-4.045 4.373-7.173 4.932-6.42 1.146-13.683-3.96-12.584-11.078.462-2.993 1.423-4.48 4.365-6.586 1.948-1.396 2.884-1.847 4.147-2.117a10 10 0 0 1 1.834-.205" style="font-variation-settings:normal"/><circle cx="336.803" cy="893.704" r="11.735" fill="#ffdf00" style="font-variation-settings:normal;-inkscape-stroke:none"/></g><g fill-rule="evenodd" transform="translate(125.811 -312.731)scale(1.57097)"><path fill="#f3f3f3" d="M374.295 852.479c-.456 0-.906.06-1.338.181v-.002c-1.782.5-3.195 2.048-3.432 4.842.04 1.343-.017 1.338-2.185.838-4.283-.989-8.776 1.462-6.244 6.125l.875 1.619q-.829.231-1.655.473c-3.454 1.008-4.988 3.003-4.236 5.162.446 1.283 1.343 2.041 3.412 3.052 1.029.503 1.069.577.658.915-1.478 1.216-2.49 3.063-2.533 4.525-.058 2.02 2.404 3.5 5.293 3.455 1.461-.023 1.587.043 1.514.639-.402 1.532-.53 3.046.154 4.64.97 1.942 3.723 2.347 6.067 1.059q.656-.361 1.318-.713.142.575.287 1.148c.45 1.777 1.469 3.263 2.588 3.881 1.814 1.003 3.257.434 4.748-1.746q.447-.654.908-1.303l.465.616c1.83 2.658 4.524 3.935 6.172 1.857.513-.647 1.249-3.261 1.084-3.93-.157-.633-.173-.679 1.574.168 2.468 1.197 3.992 1.029 5.002-.689.62-1.055.7-2.82.135-4.574l-.367-1.135q.735-.003 1.47.008c2.429.03 4.354-1.209 4.633-3.08.167-1.12-.63-3.168-1.762-4.332q-.486-.501-.98-.996.594-.318 1.195-.63c2.423-1.252 3.888-3.282 3.317-4.98-.378-1.12-2.086-2.483-3.852-3.007-2.422-.829-.87-1.379-.129-3.036 1.582-3.581-.73-6.141-5.746-5.193q-1.045.198-2.084.412-.016-.752-.027-1.506c-.074-4.61-4.98-6.328-9.037-2.478q-.675.64-1.334 1.285l-.51-.64c-1.352-1.846-3.444-2.934-5.418-2.93m6.303 11.263c.315.012.62.045.94.096 2.364.374 4.885 1.797 6.421 3.59 1.162 1.356 1.341 1.796 1.777 4.05.448 2.313.425 2.691-.091 4.532-.638 2.271-1.765 3.92-3.637 5.449-2.199 1.796-5.367 2.503-8.434 1.904-6.267-1.223-11.125-8.375-7.351-14.535 1.58-2.581 3.064-3.621 6.623-4.517 1.768-.446 2.805-.603 3.752-.569" style="font-variation-settings:normal"/><circle cx="379.619" cy="873.109" r="11.735" fill="#ffdf00" style="font-variation-settings:normal;-inkscape-stroke:none"/></g><text xml:space="preserve" x="490.252" y="255.905" fill="#fff" fill-rule="evenodd" stroke-width="5.138" font-family="Magic Bubble" font-size="246.635" font-weight="400" style="line-height:1;-inkscape-font-specification:&quot;Magic Bubble&quot;;text-align:start"><tspan x="490.252" y="255.905">To Eva:</tspan></text><text xml:space="preserve" x="895.919" y="1590.185" fill="#fff" fill-rule="evenodd" stroke-width="3.737" font-family="Magic Bubble" font-size="179.367" font-weight="400" style="line-height:1;-inkscape-font-specification:&quot;Magic Bubble&quot;;text-align:center" text-anchor="middle"><tspan x="895.919" y="1590.185" style="text-align:center">A flower wreath</tspan><tspan x="895.919" y="1769.552" style="text-align:center">for one flutterific</tspan><tspan x="895.919" y="1950.67" style="text-align:center">gal!</tspan></text></svg>