<svg xmlns="http://www.w3.org/2000/svg" xml:space="preserve" width="1080" height="1080"><path fill="#fff" fill-rule="evenodd" d="M578.395 319.945c-.484 0-1.008.03-1.643.344s-1.312 1.129-1.461 1.906c-.297 1.555.348 2.268.906 3.114.699 1.057 1.805 2.172 3.834 4.212s4.879 4.806 8.621 8.37c14.74 14.036 24.126 25.261 30.446 36.29 6.361 11.102 9.191 20.686 9.191 30.725 0 6.88-1.202 12.592-3.922 18.68l-.953 2.133a2.18 2.18 0 0 0 2.037 3.068l6.049-.129c4.7-.1 7.436-.19 9.475-.469s3.473-.862 4.77-1.644c4.806-2.9 10.941-9.054 14.347-14.258 1.657-2.532 3.653-6.66 4.594-9.51 2.432-7.37 2.67-15.545.71-23.34-.916-3.645-1.951-6.083-3.771-8.83-6.743-10.175-16.454-18.088-30.824-25.31-4.283-2.153-8.82-4.202-20.559-9.293-11.622-5.04-16.545-7.509-23.732-11.893-2.095-1.277-3.744-2.25-4.965-2.923a25 25 0 0 0-1.54-.795c-.214-.1-.41-.185-.628-.262s-.39-.186-.982-.186m-91.114-2.941c-.565.022-.818.094-1.037.146-.437.105-.658.192-.896.282-.477.178-.923.373-1.45.613-1.053.48-2.368 1.123-3.81 1.855-2.884 1.465-6.198 3.243-8.5 4.631-21.028 12.677-38.733 32.818-45.068 52.23-3.644 11.164-3.502 22.238.984 31.325 6.952 14.083 23.784 24.363 44.217 28.797 1.657.36 2.877.606 4.285.63 1.408.026 3.766-.44 5.207-2.177.895-1.08 1.374-3.426 1.096-4.67-.279-1.244-.69-1.857-1.108-2.535-.837-1.356-1.991-2.868-3.998-5.485-3.399-4.431-5.959-10.014-7.476-16.59-1.107-4.794-1.202-5.468-1.606-11.148-.882-12.391 2.075-26.83 9.346-43.828 3.645-8.52 6.344-13.677 11.77-22.465a88 88 0 0 0 1.849-3.12c.24-.431.437-.792.621-1.169.092-.188.177-.357.305-.701.064-.172.147-.36.242-.86.047-.249.115-.57.078-1.204a4.6 4.6 0 0 0-.244-1.262 4.8 4.8 0 0 0-.404-.89c-.188-.323-.758-.986-.758-.987-1.828-1.828-3.08-1.44-3.645-1.418"/><path fill="#fff" fill-rule="evenodd" d="M512.615 308.645c-.548.07-.967.264-1.27.398-.604.268-.988.545-1.374.84-.774.589-1.499 1.287-2.33 2.146-1.663 1.72-3.66 4.065-5.83 6.791-4.34 5.453-9.31 12.375-12.92 18.31-11.081 18.224-16.163 35.012-16.137 53.727.022 15.864 2.678 23.916 11.006 33.028 2.438 2.667 4.456 4.601 7.37 6.318 2.916 1.717 6.538 3.206 12.702 5.635 12.21 4.81 17.023 6.01 33.43 8.303 1.579.22 3.682.22 6.834.222s7.026-.057 10.9-.177c25.61-.798 44.392-5.705 55.777-15.22 11.385-9.513 14.317-24.002 8.2-40.35-3.873-10.352-12.205-21.672-26.63-36.88-16.071-16.945-21.739-24.481-23.917-30.625-.81-2.284-1.263-3.769-2.559-5.289-.648-.76-1.727-1.522-2.883-1.77-1.155-.247-2.12-.054-2.85.15-.376.104-5.231 1.043-9.396 1.683-11.105 1.705-20.741-.056-36.084-6.895-.815-.363-1.49-.416-2.039-.345"/><path fill="#fe96ac" fill-rule="evenodd" d="M540.7 225.3c-11.433.149-22.46 4.737-30.999 13.276-14.121 14.122-17.369 35.491-8.084 53.18 6.515 12.412 19.692 21.517 33.945 23.635 17.738 2.635 37.578-6.379 47.971-21.579 14.932-21.835 4.023-51.847-22.281-64.007-6.697-3.096-13.693-4.593-20.553-4.504"/><path fill="#ce9058" fill-rule="evenodd" d="m415.482 376.955-1.312.295c-1.388.312-4.659 1.276-8.522 2.416-29.189 8.615-49.78 20.371-61.431 35.857-2.356 3.131-3.947 5.538-4.897 8.014s-1.067 5.055-.576 7.42c1.693 8.155 9.807 14.586 22.29 20.879 12.481 6.293 29.821 12.262 51.415 17.668 6.224 1.558 20.16 4.532 25.53 5.44 1.89.319 4.607.1 6.42-1.456s2.77-3.464 4.328-6.435c2.531-4.827 5.323-9.052 10.677-16.096a179 179 0 0 0 3.205-4.338q.628-.88 1.034-1.496c.135-.206.248-.385.37-.6a5 5 0 0 0 .214-.412c.088-.194.337-.182.337-1.523 0-2.182-.935-2.483-1.302-2.813a5.4 5.4 0 0 0-.936-.675 11 11 0 0 0-1.836-.856c-16.778-6.17-25.855-12.04-31.89-20.049-5.995-7.955-8.695-17.266-8.801-31.627v-.002l-.047-6.22a3.503 3.503 0 0 0-4.27-3.391m181.295 66.981a6 6 0 0 0-1.162.14c-.648.13-1.24.302-1.982.522-10.158 2.998-38.309 5.698-54.588 4.976a621 621 0 0 0-5.354-.217 155 155 0 0 0-1.681-.052 29 29 0 0 0-.533-.008c-.079 0-.149 0-.27.004-.06.002-.125 0-.285.017-.08.008-.177.017-.393.06-.107.023-.243.05-.474.13a10 10 0 0 0-.446.183l-.74.473-1.234 1.791-.194 1.188s.026.478.051.634c.026.157.053.27.078.366.1.381.164.496.211.601.094.21.135.274.172.34.074.133.118.204.172.291.107.173.23.366.389.61.316.486.76 1.156 1.308 1.978a865 865 0 0 0 4.29 6.351l6.077 8.924a3.85 3.85 0 0 0 3.29 1.684l8.812-.236c11.125-.298 19.197-.61 24.71-.973 2.758-.181 4.867-.372 6.481-.6a19 19 0 0 0 2.137-.4c.652-.168 1.222-.174 2.348-1.108 1.61-1.336 2.232-2.585 3.428-4.6 1.195-2.013 2.587-4.615 4.148-7.745.875-1.754 1.8-3.539 2.57-4.975a76 76 0 0 1 1.532-2.71c.345-.503.635-.884.978-1.618.171-.367.423-.82.453-1.824s-.75-2.843-1.887-3.557c-1.136-.713-1.908-.652-2.412-.64"/><path fill="#ffedbe" fill-rule="evenodd" d="M634.078 430.65a29.5 29.5 0 0 0-4.594.1c-7.453.748-14.233 4.556-19.478 10.256-7.537 8.192-14.145 17.896-19.057 27.375-4.88 9.419-48.114 11.902-51.443 5.79-3.365-6.177-7.792-12.338-12.69-17.99-4.896-5.649-10.255-10.792-15.748-14.775-5.378-3.9-11.215-7.369-18.384-7.369-16.76 0-31.086 12.785-41.172 30.656-2.706 4.795-4.824 8.101-6.016 9.414-1.478 1.629-.8 1.266-2.683 1.569-1.252.201-5.032.002-10.844-1.108s-13.796-3.012-24.34-5.752c-29.986-7.79-45.33-14.481-60.5-25.857l-9.848-7.383h-.002c-2.35-1.761-5.501-2.404-8.353-1.703s-5.347 2.734-6.612 5.385l-17.64 36.976c-32.174 67.44-52.47 133.595-52.47 176.512 0 19.887 2.164 28.838 10.89 45.21 11.082 20.792 28.276 37.13 50.441 48.241 31.291 15.687 85.52 28.504 148.76 36.205 45.028 5.484 141.434 5.632 182.588.153 52.059-6.932 92.929-18.685 123.252-36.332 30.345-17.66 50.076-41.795 57.693-71.528 4.337-16.927 4.414-24.697.074-50.093-9.242-54.085-29.677-116.877-53.338-163.748-4.3-8.52-8.14-14.853-12.355-19.23-1.032-1.073-2.266-2.214-3.89-3.2-1.503-.911-4.602-2.374-8.376-1.688-4.444.809-7.055 3.764-8.332 6.854-.21.51-.26.95-.398 1.435-.422.324-.738.593-1.467 1.067-2.801 1.82-7.239 4.306-12.283 6.847-10.091 5.084-22.953 10.573-32.098 13.416l-10.402 3.237-.635-1c-3.721-5.857-11.252-14.427-18.457-21.803-9.135-9.352-19.116-15.54-29.793-16.139"/><path fill="#ce9058" fill-rule="evenodd" d="M574.414 497.413v-14.91h18v14.91c0 14.474-18 14.474-18 0m-19.77 0v-14.91h-18v14.91c0 14.474 18 14.474 18 0m18.311 0v-14.91h-16.541v14.91c0 14.474 16.541 14.474 16.541 0m105.166-115.966c-1.064.139-2.412.623-3.441 1.541-1.03.919-1.589 2.07-1.866 2.971-.553 1.801-.445 2.974-.445 4.312 0 9.86-4.585 21.756-12.744 31.776h-.002l-5.445 6.687a4.863 4.863 0 0 0 .271 6.446l8.985 9.32c4.786 4.965 10.388 11.697 11.375 13.24 1.72 2.694 3.556 5.417 4.894 7.024.816.98 1.696 1.715 2.691 2.332.996.617 1.94 1.275 4.038 1.275 1.547 0 1.964-.228 2.945-.469s2.137-.562 3.459-.95c2.644-.779 5.93-1.827 9.353-2.972 6.846-2.288 14.037-4.865 17.897-6.626 9.392-4.287 19.308-11.48 24.135-18.47l3.06-4.43a4.86 4.86 0 0 0 .543-4.499l-1.812-4.744c-3.059-8.008-10.622-15.379-20.588-22.482-9.967-7.104-22.468-13.672-35.739-18.44-2.606-.936-4.617-1.65-6.341-2.154-1.724-.505-3.095-.964-5.223-.688M264.56 649.492a44 44 0 0 0-5.484.494 44 44 0 0 0-6.869 1.65q-.004.558-.004 1.11c0 19.887 2.165 28.838 10.89 45.21 11.083 20.792 28.277 37.13 50.442 48.241 31.291 15.687 85.52 28.504 148.76 36.205 45.028 5.484 141.434 5.632 182.588.153 52.059-6.932 92.929-18.685 123.252-36.332 27.971-16.28 46.923-38.058 55.683-64.653-28.143-8.808-59.09-9.612-86.658-5.99-46.316 6.085-83.085 24.662-122.683 25.943s-82.025-14.732-125.866-18.255c-43.84-3.524-89.095 5.445-128.271-3.116-36.728-8.025-68.112-31.457-95.78-30.66"/><path fill="#4b290d" d="M503.807 300.93c.57 1.18-1.618 2.419-2.065 2.576-.683.24-4.617 1.623-8.742 3.076-10.236 3.605-25.582 11.573-33.742 17.52-12.798 9.327-26.803 24.755-33.403 36.794-2.398 4.377-2.46 4.41-13.882 7.672-44.801 12.794-68.132 27.287-81.864 50.854-34.876 59.858-105.918 205.714-73.617 275.164 12.118 26.055 28.84 42.123 58.631 56.336 105.635 50.397 333.702 53.884 445.12 4.982 85.51-37.531 76.296-102.297 65.13-154.404-25.196-117.578-74.057-187.29-85.834-198.242-12.003-11.163-30.415-20.983-54.623-29.13l-11.416-3.84c-11.67-17.595-16.824-25.16-52.178-39.618-18.888-7.725-28.822-13.168-39.111-21.426l-4.29-3.441 3.374-4.153.129-.158-17.698 6.165q-1.479.883-3.04 1.653c-5.935 2.921-7.799 3.333-16.282 3.597-7.655.239-10.668-.105-15.008-1.71a43 43 0 0 1-7.357-3.54zm8.75 9.812 5.205 2.637c11.485 5.82 25.997 7.225 38.584 3.734 4.796-1.33 6.905-1.55 7.146-.75 3.611 12.02 8.245 18.437 27.545 38.137 15.788 15.202 37.106 42.263 24.387 65.5-14.236 25.461-85.887 25.311-106.28 14.99-4.204-2.128-9.34-4.173-11.414-4.545-4.598-.824-12.664-7.769-16.373-14.097-14.58-24.88-3.141-67.34 27.27-101.227zm-24.653 10.715q.06-.003.082.014l.006.004.006.01.002.013c0 .33-1.573 3.059-3.498 6.067-10.098 15.786-18.54 37.495-20.564 52.883-2.417 18.37 1.831 36.387 11.06 46.898 1.651 1.88 3.002 3.922 3.002 4.537 0 1.64-3.547 1.267-12-1.26-17.375-5.193-29.48-14.005-34.779-25.314-5.57-11.889-2.639-27.888 8.059-43.979 9.89-14.877 24.274-27.722 40.47-36.142 4.112-2.138 7.547-3.701 8.155-3.73zm90.674.543c35.656 18.904 125.639 48.81 68.838 100.828-4.305 3.354-4.874 3.51-13.33 3.678l-8.832.174 1.857-4.198C647.744 370.063 565.976 322 578.578 322M416.5 380.088c-1.374 32.15 8.622 48.966 41.771 60.873 3.738 1.198 3.756 1.228 2 3.459-7.822 9.94-11.95 15.97-14.605 21.33-2.324 4.693-3.603 6.232-5.13 6.178-1.12-.04-8.336-1.385-16.036-2.989-4.685-.975-94.086-19.97-81.574-45.722 14.41-24.57 48.39-37.05 73.574-43.13m261.352 4.926c9.167-.265 74.564 30.278 64.064 49.986-12.546 17.999-35.509 23.432-55.537 29.453-1.8.508-2.77-.504-6.41-6.678-6.278-10.014-15.136-18.031-23.469-26.295 24.073-21.52 19.289-44.603 21.08-46.394q.068-.067.272-.072m-6.795 82.029c6.483 11.025 8.12 12.038 16.187 10.03 28.182-7.017 54.444-20.087 62.572-31.14l2.926-3.976 1.524 2.324c5.235 7.99 50.61 89.566 65.494 192.219 25.026 183.168-391.894 157.909-503.26 102.256-9.932-4.963-22.506-13.595-29.297-20.111-11.29-10.834-21.116-27.668-25.424-43.551-14.32-52.807 40.266-183.846 67.104-229.694l2.984-5.097c18.85 20.93 46.028 29.735 72.633 36.646 21.802 5.534 39.84 8.67 43.154 7.5 1.668-.589 3.59-2.655 5.065-5.449 12.031-22.782 16.604-28.398 27.691-34.01 15.678-7.934 30.656.452 48.662 27.244l7.573 11.266h16.427c9.036 0 21.595-.225 27.91-.5l11.431-.496 4.9-9.004c9.79-17.993 18.1-28.55 26.187-32.826 12.518-6.619 31.773-.47 47.557 26.369m-73.313-19.523c.165.011.256.05.256.119-5.15 6.293-7.009 15.375-12.45 21.318-.9.747-8.638 1.354-21.884 1.717l-20.492.562c-2.258-3.605-12.39-18.207-12.485-18.332l10.407.432c15.812.656 42.163-1.924 53.654-5.254 1.34-.388 2.499-.598 2.994-.562"/><path fill="#fd567a" d="M584.133 191.578c-8.033.379-22.56 7.265-31.744 15.768-3.846 3.56-8.203 8.222-9.684 10.36-2.498 3.604-3.214 3.975-9.914 5.124-10.269 1.76-20.687 7.066-27.756 14.135-16.532 16.532-19.1 41.89-5.994 60.473 19.769 28.028 63.331 29.106 83.098 5.384 16.725-20.58 14.69-48.067-3.79-66.254-5.237-5.154-17.987-12.568-21.615-12.568-4.974 0-1.39-5.083 8.463-12.002 6.612-4.643 10.793-6.47 20.604-8.996 5.842-1.504 7.514-6.488 3.703-9.836a86 86 0 0 0-2.693-1.416c-.777-.164-1.677-.22-2.678-.172m-42.574 37.348c22.96 0 45.153 19.807 45.154 42.767 0 22.961-22.194 40.381-45.154 40.381-22.962.001-41.576-18.613-41.577-41.574s18.615-41.575 41.577-41.574"/><path fill="#4b290d" d="M730.686 516.17c-17.074-.888-43.668 3.57-45.213 4.853-1.983 1.646-1.867 6.44.207 8.514 1.38 1.38 2.764 1.556 7.75.983 48.222-5.55 46.598.42 50.238-5.135 4.078-6.223-2.739-8.682-12.982-9.215m-333.692 6.87c17.073-.888 43.667 3.57 45.213 4.854 1.983 1.645 1.866 6.44-.207 8.513-1.38 1.38-2.764 1.556-7.75.983-48.223-5.55-46.598.42-50.238-5.135-4.078-6.223 2.738-8.682 12.982-9.215m296.885 18.026c-3.416.099-5.903.411-6.945.97-1.338.715-1.934 2.096-1.934 4.476 0 5.337 2.267 6.16 19 6.884 29.682 1.287 34.491 7.113 39 2.604 4.406-4.406 1.27-9.188-7.16-10.916-13.098-2.685-31.713-4.313-41.961-4.018m-255.91 6.684c-12.557-.816-49.48 5.05-52.537 9.715-1.741 2.657-.647 6.729 2.263 8.428 2.898 1.691 18.347-3.821 40.805-5.973 6.6-.632 12.788-1.564 13.75-2.07 2.702-1.421 2.34-7.417-.562-9.319-.63-.412-1.925-.664-3.72-.781m65.559-11.691c-3.004.099-5.729.425-7.826 1.007-4.296 1.193-6.314 4.354-5.316 8.33.989 3.942 3.526 4.75 11.402 3.633 5.733-.813 8.071-.666 13.807.862 8.96 2.386 11.355 2.466 13.578.455 2.655-2.403 2.417-7.914-.422-9.772-4.679-3.061-16.21-4.813-25.223-4.515m120.696-.39c3.005-.03 5.742.179 7.862.67 4.344 1.008 6.496 4.079 5.67 8.094-.82 3.98-3.319 4.897-11.236 4.12-5.763-.566-8.092-.319-13.757 1.454-8.85 2.77-11.238 2.953-13.546 1.039-2.756-2.287-2.755-7.803.001-9.78 4.543-3.26 15.988-5.507 25.005-5.597zm-65.933 4.38c-1.06 9.75-1.51 10.66-5.767 8.992-4.43-1.734-8.567.637-8.567 4.91 0 6.485 10.684 10.414 17.963 6.606 1.064-.557 1.806-.847 2.56-.868.754.021 1.499.311 2.562.868 7.28 3.808 17.964-.12 17.964-6.606 0-4.273-4.138-6.644-8.568-4.91-4.257 1.667-4.856.771-5.766-8.992-1.394-14.94-10.777-14.743-12.38 0m25.842-348.471c-8.033.379-22.56 7.265-31.744 15.768-3.717 3.441-7.912 7.912-9.526 10.136 1.281 7.051 6.502 6.1 11.664 4.938.324-2.02 4.107-5.813 10.67-10.422 6.612-4.643 10.793-6.47 20.604-8.996 5.842-1.504 7.514-6.488 3.703-9.836a86 86 0 0 0-2.693-1.416c-.777-.164-1.677-.22-2.678-.172"/></svg>