<svg xmlns="http://www.w3.org/2000/svg" xmlns:xlink="http://www.w3.org/1999/xlink" xml:space="preserve" width="3600" height="3600"><defs><linearGradient id="b"><stop offset="0" style="stop-color:#54471a;stop-opacity:1"/><stop offset=".5" style="stop-color:#5f501d;stop-opacity:1"/><stop offset="1" style="stop-color:#54471a;stop-opacity:1"/></linearGradient><linearGradient id="a"><stop offset="0" style="stop-color:#6d5b21;stop-opacity:1"/><stop offset="1" style="stop-color:#514419;stop-opacity:1"/></linearGradient><linearGradient xlink:href="#a" id="d" x1="266.404" x2="239.057" y1="500.442" y2="587.324" gradientUnits="userSpaceOnUse"/><linearGradient xlink:href="#a" id="f" x1="266.404" x2="239.057" y1="500.442" y2="587.324" gradientUnits="userSpaceOnUse"/><linearGradient xlink:href="#a" id="c" x1="266.404" x2="239.057" y1="500.442" y2="587.324" gradientUnits="userSpaceOnUse"/><linearGradient xlink:href="#b" id="e" x1="229.456" x2="232.879" y1="476.261" y2="502.297" gradientUnits="userSpaceOnUse"/></defs><path d="M660.96 1105.147c-5.308-.023-9.544-3.712-14.507-.35s-11.02 13.6-19.695 21.633c-12.428 11.505-33.483 26.383-45.487 32.277-19.495 9.573-26.302 10.941-53.978 10.941-18.888 0-30.675-1.592-39.064-5.958-8.39-4.367-14.168-11.682-20.946-24.922l-6.115-21.6c-1.41-2.755-7.639 1.619-9.652 3.969l-19.723 23.017c-50.912 59.419-77.697 105.825-88.426 154.051-8.567 38.51-5.022 66.771 12.737 101.45a194 194 0 0 1 5.984 12.792c-2.386-1.543-5.207-2.547-8.346-3.258-4.72-1.069-10.212-1.466-16.086-1.308-11.747.315-24.972 2.84-35.717 7.72-9.602 4.362-23.189 13.218-31.439 20.461-18.33 16.094-28.6 19.582-57.762 19.592-17.093 0-30.827 2.362-40.795 7.252s-20.663 11.607-20.663 21.505c0 5.054 5.227 11.126 7.708 14.983s6.475 6.609 11.514 8.31c10.077 3.4 24.89 4.552 47.77 2.093 35.429-3.808 40.02-2.338 65.98 7.846 34.027 13.348 50.308 14.865 93.215 4.63 43.3-10.328 69.098-11.128 109.449 3.784 41.44 15.314 74.574 13.7 109.72 5.214 14.751-3.562 64.024-10.604 64.024-10.604s55.568 5.92 70.319 9.481c36.35 8.778 73.859 8.225 120.792-3.914 48.257-12.48 67.894-12.557 110.762-3.96 43.34 8.69 59.178 8.912 93.215-4.631 25.305-10.07 28.695-11.603 65.98-7.846 21.79 2.195 36.432 1.147 46.665-1.922 5.116-1.535 9.242-3.907 12.152-7.322s5.522-8.129 6.07-12.788c1.1-9.361-3.726-17.298-11.699-22.298s-19.522-7.423-35.443-8.446c-22.252-1.429-35.042-2.708-44.05-5.294-9.007-2.587-14.562-6.36-23.415-13.793-9.844-8.266-24.664-18.033-34.197-22.395-10.684-4.888-23.855-7.39-35.573-7.672-5.858-.14-11.342.275-16.06 1.365-2.315.535-4.47 1.216-6.405 2.153 1.764-4.296 4.047-9.543 7.065-15.928 11.776-24.918 11.043-32.924 13.064-63.508 3.798-57.448-25.962-112.461-85.007-180.515l-28.237-29.623c-2.215-2.595-5.27-3.87-6.306-.62l-3.748 11.744c-1.689 5.292-7.929 15.623-12.946 21.008-14.414 15.473-38.325 20.954-65.441 16.621-27.116-4.332-61.887-14.141-82.291-41.459-14.862-19.896-22.251-28.267-42.824-22.787-4.715 1.256-8.604-1.156-12.141-1.172M365.663 1422.59c.108.415.002-.702 0 0" style="fill:#fbf7da;fill-rule:evenodd;stroke-width:20;stroke-miterlimit:7;paint-order:stroke markers fill" transform="translate(617.453 336.455)scale(1.83767)"/><path d="M431.793 1144.154c-50.912 59.419-77.697 105.825-88.426 154.051-8.567 38.51-5.022 66.771 12.737 101.45a194 194 0 0 1 5.984 12.792c-2.386-1.543-5.207-2.547-8.346-3.258-4.72-1.069-10.212-1.466-16.086-1.308-11.747.315-24.972 2.84-35.717 7.72-9.602 4.362-23.189 13.218-31.439 20.461-18.33 16.094-28.6 19.582-57.762 19.592-17.093 0-30.827 2.362-40.795 7.252s-20.664 11.606-20.664 21.504c0 5.054 5.228 11.127 7.71 14.984 2.48 3.858 6.474 6.609 11.513 8.31 10.077 3.4 24.89 4.552 47.77 2.093 35.429-3.808 40.02-2.338 65.98 7.846 34.027 13.348 50.308 14.865 93.215 4.63 43.3-10.328 69.098-11.128 109.449 3.784 41.44 15.314 74.574 13.701 109.72 5.214 14.751-3.561 64.024-10.603 64.024-10.603s55.568 5.919 70.319 9.48c36.35 8.778 73.859 8.225 120.792-3.914 48.257-12.48 67.894-12.557 110.762-3.96 43.34 8.69 59.178 8.912 93.215-4.631 25.305-10.07 28.695-11.603 65.98-7.846 21.79 2.195 36.432 1.147 46.665-1.922 5.116-1.535 9.242-3.907 12.152-7.322s5.522-8.128 6.07-12.787c1.1-9.362-3.726-17.3-11.699-22.3s-19.522-7.422-35.443-8.445c-22.252-1.429-35.042-2.708-44.05-5.294-9.007-2.587-14.562-6.36-23.415-13.793-9.844-8.266-24.664-18.033-34.197-22.395-10.684-4.888-23.855-7.39-35.573-7.672-5.858-.14-11.342.275-16.06 1.365-2.315.535-4.47 1.216-6.405 2.153a316 316 0 0 1 5.061-11.621 277 277 0 0 1-10.854 3.16c-142.194 34.063-502.07 55.688-542.187-258.77m-66.115 278.198h.004c.018.04.038.291.021.326h-.008a.4.4 0 0 1-.033-.092 1 1 0 0 1 .014-.235z" style="fill:#f9e3d6;fill-opacity:1;fill-rule:evenodd;stroke-width:20;stroke-miterlimit:7;paint-order:stroke markers fill" transform="translate(617.453 336.455)scale(1.83767)"/><path d="M825.188 1260.522c0 99.354-228.03 60.68-228.03-19.344 0-54.6 228.03-68.107 228.03 19.344" style="vector-effect:none;fill:#faf9e4;fill-opacity:1;fill-rule:evenodd;stroke-width:34.3992;stop-color:#000" transform="translate(617.453 336.455)scale(1.83767)"/><path d="M714 1120.662c-276.312 158.96-187.684 317.466-168.156 310.945 1.018-.34 1.53-8.073 1.619-24.386.814-150.733 188.274-281.153 176.443-288.64-2.683-1.699-3.889-1.432-9.906 2.081" style="display:inline;fill:#f6ccd6;fill-opacity:1" transform="translate(617.453 336.455)scale(1.83767)"/><path d="M684.986 1086.79c-21.263 3.59-31.254 4.085-41.244 4.58l-22.31 37.714c9.993 7.639 19.987 15.277 39.244 21.851s47.775 12.084 69.353 16.055 36.214 6.404 51.93 6.918c5.892.193 11.936.114 17.287-1.03a59 59 0 0 1-5.088-.839c-27.95-5.997-58.983-25.315-84.84-52.6-11.484-12.119-19.794-23.173-24.332-32.65" style="fill:#f9e3d6;fill-opacity:1;fill-rule:evenodd;stroke:none;stroke-width:5;stroke-miterlimit:7;stroke-dasharray:none;stroke-opacity:1;paint-order:stroke markers fill" transform="translate(617.453 336.455)scale(1.83767)"/><path d="M697.85 675.34c-2.033 0-3.345 1.211-3.866 1.857-.52.647-.661 1.042-.785 1.35-.247.616-.295.93-.36 1.256a19 19 0 0 0-.259 1.96c-.135 1.446-.24 3.34-.326 5.667-.173 4.652-.263 10.973-.233 17.931.083 19.118-.462 26.588-2.08 32.657-3.136 11.768-7.093 18.03-10.595 20.228-1.92 1.204-6.175 2.125-11.084 1.795-4.91-.33-10.428-1.76-15.05-4.098-7.696-3.894-25.43-18.969-38.75-33.851l-9.612-10.742c-2.335-2.609-6.572-1.996-8.073 1.166l-3.756 7.914c-5.857 12.34-12.49 16.867-19.687 16.566-7.196-.3-16.828-6.288-26.871-19.695l-7.584-10.125c-2.033-2.714-6.143-2.59-8.008.242l-8.092 12.287h.002c-10.915 16.575-21.27 28.328-35.916 40.785-6.094 5.183-9.253 7.744-11.408 10.57-1.077 1.414-1.978 3.277-2.059 5.208-.08 1.93.484 3.312.887 4.365.043.112 1.412 4.629 2.92 10.176a1438 1438 0 0 1 5.28 20.06c6.949 27.163 11.806 55.935 13.26 78.283.816 12.564.838 18.41 2.638 23.295.9 2.443 2.68 4.623 4.601 5.912 1.922 1.29 3.758 1.975 5.971 2.961 5.458 2.433 12.165 4.653 19.348 6.74-.69.237-1.358.444-2.114.733-2.507.959-5.28 2.24-8.09 3.7-5.619 2.917-11.238 6.362-14.929 9.818-3.37 3.154-6.08 6.71-8.346 12.6s-4.464 14.274-8.1 28.896c-3.923 15.779-9.705 34.404-13.816 44.65-2.11 5.259-3.873 10.152-5.082 14.03-.604 1.938-1.072 3.611-1.383 5.05-.155.72-.273 1.374-.341 2.07-.069.697-.255 1.309.232 2.844.772 2.433 1.877 3.41 3.201 4.846s2.93 2.931 4.7 4.434c3.54 3.004 7.64 5.98 11.39 7.902 1.056.541 2.044 1.098 3.52 1.488s3.318.504 4.226-.894c2.994-4.612 5.02-5.059 8.902-7.664 21.243-17.791 32.793-26.422 48.157-44.872a465 465 0 0 1 13.388-15.376c4.067-4.454 7.715-7.975 8.692-8.877 7.455-6.884 13.534-9.347 17.773-8.893 3.46.37 6.154 2.246 9.235 9.078v.002l2.593 5.75c.869 1.924 3.402 1 5.504 1.2l8.016.761c13.53-1.415 20.647-2.086 24.66-2.03s5.001-1.6 8.307 0c5.807 2.812 10.023 4.662 11.38 10.366s1.224 18.173-1.601 30.7l-5.318 13.175a4.9 4.9 0 0 0 .453 3.377l3.3 6.201c4.368 8.203 4.133 14.77-.894 22.914a104 104 0 0 0-3.412 5.924 37 37 0 0 0-1.137 2.316c-.154.352-.293.686-.428 1.084-.134.4-.35.681-.35 1.971 0 2.786 1.337 3.651 2.032 4.277s1.315 1.013 1.992 1.405c1.354.783 2.925 1.491 4.75 2.217 7.962 3.973 16.15 4.077 24.74 4.146 1.922.055 4.07 1.286 5.62 1.066.775-.11 1.463-.138 2.744-.822.64-.342 1.64-.909 2.361-2.459s.362-3.794-.281-4.853c-8.704-14.326-12.885-21.58-13.983-25.602-.548-2.01-.536-3.137-.136-4.906.4-1.77 1.37-4.184 2.822-7.635 1.727-4.102 2.908-6.736 3.1-10.111.191-3.375-.581-6.326-1.778-11.57-1.167-5.117-7.481-15.165-6.468-21.228 1.49-8.914 4.865-20.955 15.382-22.398 3.757-.516 8.802.278 15.633.957 6.523.649 14.507 1.222 18.412 1.286 3.141.052 5.908.27 8.746-1.62s3.76-4.293 5.397-7.513c2.155-4.239 4.357-6.26 6.424-7.053 2.066-.792 4.641-.726 8.662 1.15 8.04 3.753 20.187 15.056 35.42 34.13 6.285 7.87 16.973 19.413 24.328 26.277l13.888 10.246c1.77 1.65 3.45 3.51 5.348 2.008l5.229-4.141c6.953-5.507 16.077-17 20.273-25.297 1.412-2.793 2.546-4.913 3.371-7.129s1.28-4.794.776-7.314c-1.009-5.041-4.185-8.395-9.567-15.475-20.09-26.43-39.96-65.984-47.275-93.824-1.2-4.563-2.315-8.74-3.155-11.81-.42-1.536-.77-2.789-1.03-3.698a55 55 0 0 0-.333-1.121 12 12 0 0 0-.15-.457c-.031-.087-.063-.178-.137-.354-.074-.175.334-.103-.959-1.478 0 0-.722-.652-1.072-.86a5 5 0 0 0-.961-.437 4.7 4.7 0 0 0-1.307-.244c-.347-.017-.449.024-.642.047l1.267-1.12a4.9 4.9 0 0 0 1.545-4.702l-2.133-9.887c-4.452-20.632-6.297-37.043-7.115-63.479-.377-12.188-.137-27.597.483-40.842.31-6.622.713-12.71 1.175-17.562s1.085-8.684 1.407-9.78c.31-1.053.496-2.478.113-3.95-.383-1.473-1.297-2.725-2.211-3.555-1.827-1.66-3.678-2.359-6.23-3.334-10.864-4.153-29.754-13.88-46.65-23.617-8.45-4.869-16.445-9.754-22.778-13.95-6.334-4.195-11.193-8.01-12.461-9.416a24 24 0 0 0-2.785-2.654c-.47-.376-.931-.715-1.51-1.05-.579-.337-1.014-.9-3.074-.9" style="fill:#fbf7da;fill-rule:evenodd;stroke-width:7.07107;stroke-miterlimit:7;paint-order:stroke markers fill" transform="translate(617.453 336.455)scale(1.83767)"/><path d="M586.416 1021.5c-23.25 19-54.583 40-74.033 47.938s-27.017 2.815-32.75-2.668c-5.733-5.482-9.632-11.322-12.932-22.927s-6-28.974-.644-46.175c5.357-17.2 18.771-34.233 27.521-43.983s12.836-12.218 17.846-15.275 10.945-6.703 14.426-8.582c3.482-1.88 4.511-1.992 7.147-1.517 2.636.474 6.879 1.534 16.627 3.205 85.788 14.707 121.727-2.019 123.926 1.061-24.243 31.73-56.467 63.256-87.134 88.923" style="fill:#f8e1d3;fill-opacity:1;fill-rule:evenodd;stroke:none;stroke-width:5;stroke-miterlimit:7;stroke-dasharray:none;stroke-opacity:1;paint-order:stroke markers fill" transform="translate(617.453 336.455)scale(1.83767)"/><path d="M589.152 984.447c-2.595-.121-5.452.703-8.634 2.315-3.343 1.693-8.3 6.144-14.186 12.154s-12.528 13.532-18.518 21.133c-11.787 14.958-19.74 22.873-34.564 34.402-6.165 4.795-15.346 12.045-20.428 16.131a95 95 0 0 1-5.252 3.932l1.016-1.207a1.536 1.536 0 0 0-.424-2.329l-3.951-2.22c-1.161-.653-2.313-1.176-3.31-1.518a8 8 0 0 0-1.407-.365c-.453-.068-.905-.234-1.695.254-.82.507-.965.96-1.348 1.605a31 31 0 0 0-1.25 2.416c-.906 1.919-1.954 4.424-3.017 7.166-2.127 5.485-4.298 11.881-5.372 16.323-2.476 10.247-2.904 25.05-.876 33.71 5.031 21.495 20.914 37.31 43.18 43.083 9.795 2.54 25.547 2.734 36.486.498 31.896-6.52 63.885-27.297 91.992-59.54 12.093-13.872 17.466-22.258 20.513-32.218 1.24-4.048 1.79-7.31 1.506-10.145s-1.5-5.208-3.494-7.082c-1.074-1.009-2.377-3.168-2.558-3.89.048.195-.024-.563.076-1.493.1-.929.288-2.175.552-3.636.53-2.922 1.36-6.709 2.377-10.72 4.764-18.783 5.533-27.341 2.508-34.179-1.748-3.952-3.546-5.8-7.176-7.365-6.86-2.96-12.83-3.327-27.78-1.822-10.178 1.024-16.41 1.113-20.032.058-1.81-.527-2.958-1.273-3.87-2.359-.91-1.085-1.594-2.585-2.163-4.646-.699-2.53-1.754-4.578-3.262-6.05-1.508-1.47-3.476-2.295-5.639-2.396" style="fill:#fbf7da;fill-opacity:1;fill-rule:evenodd;stroke:none;stroke-width:5;stroke-miterlimit:7;stroke-dasharray:none;stroke-opacity:1;paint-order:stroke markers fill" transform="translate(617.453 336.455)scale(1.83767)"/><path d="m798.807 885.137-52.217 24.96c76.998 23.513 68.872 79.7 54.976 119.512 9.59 10.033 21.03 20.885 29.473 27.795q1.128-.747 2.21-1.504c15.762-11.012 23.49-22.929 29.827-37.527s11.13-32.985 4.278-54.596c-6.854-21.61-25.354-46.444-38.72-60.088s-21.596-16.098-29.827-18.552" style="fill:#f9e3d6;fill-opacity:1;fill-rule:evenodd;stroke:none;stroke-width:5;stroke-miterlimit:7;stroke-dasharray:none;stroke-opacity:1;paint-order:stroke markers fill" transform="translate(617.453 336.455)scale(1.83767)"/><path d="M801.18 917.719c-37.608 59.86-106.813 102.473-121.764 126.191 52.073-.897 140.245-73.347 145.962-87.548.675-1.678-9.55-42.154-10.948-46.842a1134 1134 0 0 1-2.34-7.98z" style="fill:#f6ccd6;fill-opacity:1" transform="translate(617.453 336.455)scale(1.83767)"/><path d="M721.18 1117.566c-1.538-.027-3.42.9-7.18 3.096-18.208 10.475-34.831 20.947-49.994 31.371 7.278 2.32 15.635 4.498 24.318 6.514 23.485-23.256 39.283-37.625 35.582-39.967-1.006-.637-1.804-.997-2.726-1.014" style="display:inline;fill:#f6bcce;fill-opacity:1" transform="translate(617.453 336.455)scale(1.83767)"/><path d="M752.697 984.373c-2.66 0-4.835.41-6.543 1.768-1.708 1.356-2.721 3.405-3.656 6.218a24.6 24.6 0 0 1-1.613 3.72c-.605 1.123-1.299 2.051-1.524 2.255-1.114 1.008-3.259 1.81-7.066 2.092-3.807.281-9.179.057-16.492-.67-8.475-.843-15.27-.988-20.678-.115-5.407.873-9.521 2.833-12.137 6.24s-3.61 8.035-3.424 13.904c.186 5.87 1.539 13.073 3.832 21.946a280 280 0 0 1 2.477 10.347c.317 1.462.573 2.733.746 3.71s.254 1.749.254 1.814c0 .291-.224 1.195-.709 2.158a14.6 14.6 0 0 1-1.994 2.94c-1.468 1.672-2.453 2.902-2.918 4.56s-.377 3.4-.19 6.254c.768 11.686 10.877 27.586 28.256 45.926 25.857 27.284 56.89 46.602 84.84 52.6 10.352 2.22 27.46 2.04 37.11-.429 18.512-4.734 36.79-17.765 43.11-31.254 4.072-8.686 5.535-17.335 3.893-28.582-1.641-11.246-6.301-25.128-14.382-44.808l-9.07-22.086a1.628 1.628 0 0 0-2.628-.56l-7.347 6.986-7.348 6.986a1.628 1.628 0 0 0 .108 2.453l3.69 2.94c2.562 2.04 6.354 5.611 9.448 8.779.467.478.746.816 1.176 1.27-.475-.38-.535-.347-1.076-.795-3.243-2.687-10.555-8.411-16.334-12.794-12.655-9.595-35.91-32.476-46.254-45.517-7.268-9.163-14.234-16.635-20.285-21.867s-11.026-8.389-15.272-8.389" style="fill:#fbf7da;fill-opacity:1;fill-rule:evenodd;stroke:none;stroke-width:5;stroke-miterlimit:7;stroke-dasharray:none;stroke-opacity:1;paint-order:stroke markers fill" transform="translate(617.453 336.455)scale(1.83767)"/><path d="M801.566 1029.61c-28.495 41.956-76.324 92.912-92.248 89.83 25.788 27.093 57.014 46.628 84.84 52.6 10.352 2.22 27.459 2.04 37.11-.429 18.512-4.734 36.79-17.765 43.11-31.254 1.33-2.837 2.382-5.67 3.138-8.591.33-1.58.63-3.08.906-4.428q.2-1.328.322-2.691c.265-6.577-2.126-18.408-5.197-31.95-2.386-7.375-5.588-15.817-9.658-25.73l-9.07-22.086a1.628 1.628 0 0 0-2.628-.56l-7.347 6.986-7.348 6.986a1.628 1.628 0 0 0 .108 2.453l3.69 2.94c2.562 2.04 6.354 5.611 9.448 8.779.467.478.746.816 1.176 1.27-.475-.38-.535-.347-1.076-.795-3.243-2.687-10.555-8.411-16.334-12.793-8.502-6.448-22-19.11-32.942-30.538" style="fill:#f9e3d6;fill-opacity:1;fill-rule:evenodd;stroke:none;stroke-width:5;stroke-miterlimit:7;stroke-dasharray:none;stroke-opacity:1;paint-order:stroke markers fill" transform="translate(617.453 336.455)scale(1.83767)"/><path d="m812.09 901.54-10.91 16.179c-3.423 5.448-7.107 10.753-10.989 15.914 12.364 11.797 18.126 25.646 19.858 39.957 8.451-7.741 14.026-13.995 15.328-17.229.675-1.677-9.548-42.153-10.947-46.841a1134 1134 0 0 1-2.34-7.98" style="fill:#f6bcce;fill-opacity:1" transform="translate(617.453 336.455)scale(1.83767)"/><path d="M1037.297 687.098c-3.145-.14-5.656 1.283-8.635 3.554-7.359 5.61-27.72 14.587-41.428 18.057-47.834 12.11-105.213 6.208-160.537-16.654-4.392-1.816-7.572-3.27-10.164-4.11-1.296-.42-2.456-.698-3.611-.722s-2.339-2.432-3.307-1.768c-1.936 1.326-2.834 6.257-3.822 9.453s-2.002 7.528-3.512 13.405c-8.555 33.291-11.645 42.483-11.093 100.986.025 2.713 2.257 10.462 2.285 15.904.108 21.169 9.136 63.739 20.65 98.17 4.524 13.529 16.795 40.169 23.902 51.875 8.289 13.65 25.881 35.156 40.844 50.006 33.09 32.84 61.82 51.15 90.871 57.615 7.348 1.635 15.642 2.105 29.453 1.733 20.722-.56 37.07-3.986 55.823-11.706 4.227-1.74 6.613-2.594 10.111-3.039 3.497-.444 8.207-.456 16.717-.328 36.638.552 61.066-8.746 84.72-32.32 19.422-19.356 31.69-44.488 36.817-75.232 2.422-14.523 1.707-42.612-1.447-57.717-4.8-22.985-16.695-50.604-28.088-64.828l-3.287-4.104c-1.05-1.308-3.156-.7-3.348.965l-1.012 8.87c-.087.759-.214 1.28-.316 1.997-.432-3.37-.814-7.322-.826-11.209-.061-19.12-9.737-44.082-25.924-67.775-20.108-29.432-57.906-61.775-89.88-76.9-5.48-2.593-8.811-4.039-11.956-4.178" style="fill:#fbf7da;fill-rule:evenodd;stroke-width:7.07107;stroke-miterlimit:7;paint-order:stroke markers fill" transform="translate(617.453 336.455)scale(1.83767)"/><path d="M809.988 685.34a.63.63 0 0 0-.373.115c-1.936 1.327-2.834 6.257-3.822 9.453s-2.002 7.528-3.512 13.404c-8.555 33.292-11.645 42.484-11.093 100.987.025 2.713 2.257 10.462 2.285 15.904.108 21.169 9.136 63.739 20.65 98.17 4.524 13.529 16.795 40.169 23.902 51.875 8.289 13.65 25.881 35.156 40.844 50.006 6.738 6.687 13.295 12.77 19.711 18.275 10.702 8.666 22.146 17.002 28.754 20.674 18.31 10.177 38.193 17.193 57.424 20.412 4.103.15 8.812.138 14.435-.014 65.97-1.78 44.43-20.426 93.324-10.994 20.762.153 34.017-10.464 47.458-16.55 2-.907 4.779-2.454 7.716-4.235 6.48-4.285 12.703-9.463 18.873-15.613 19.422-19.356 31.69-44.489 36.817-75.233 2.422-14.522 1.707-42.612-1.447-57.717-4.8-22.984-16.695-50.603-28.088-64.828l-3.287-4.103c-1.05-1.308-3.156-.7-3.348.965l-1.012 8.869c-.087.76-.214 1.281-.316 1.998-.432-3.37-.814-7.323-.826-11.21-.03-9.555-2.463-20.57-6.909-32.155 12.766 66.678-147.522 13.885-182.916-88.665-.438-1.269-.944-2.535-1.324-3.554-14.966 2.67-30.709 3.703-46.906 3.125 1.174 2.382 2.78 6.118 4.387 10.299 26.491 68.917 85.82 113.188 162.277 140.322-94.22 129.331-270.893-20.624-237.424-162.715a318 318 0 0 1-29.545-10.553c-4.392-1.815-7.572-3.269-10.164-4.11-1.296-.42-2.456-.698-3.611-.722-1.01-.02-2.043-1.866-2.934-1.883z" style="fill:#f9e3d6;fill-opacity:1;fill-rule:evenodd;stroke-width:7.07107;stroke-miterlimit:7;paint-order:stroke markers fill" transform="translate(617.453 336.455)scale(1.83767)"/><path d="M452.557 735.291c-1.351-.504-2.447-2.207-3.767-1.627l-35.71 17.277c-62.063 27.301-99.934 36.684-149.129 37.125-11.973.108-24.39-.194-34.654-.763-10.265-.57-18.814-1.579-21.262-2.233-3.314-.885-6.256-1.659-9.582-1.634-3.326.024-6.784 1.081-10.031 3.062-6.494 3.962-13.277 11.152-26.504 24.914-28.53 29.684-48.45 64.72-56.875 94.93-4.213 15.105-5.606 29.031-3.344 40.785 1.346 6.992 4.214 13.276 8.533 18.203-.32.03-.629-3.959-.952-3.915-2.94.402-6.197 5.654-8.37 8.032-4.42 4.836-6.427 10.963-10.783 22.637-13.542 36.29-12.072 75.562 2.179 103.877 20.616 40.962 63.35 68.451 127.018 74.049 10.971.964 11.13-3 21.276-1.731 10.145 1.27 30.28 7.74 34.19 8.616 20.334 4.558 51.364 1.826 74.077-6.094 41.938-14.625 89.312-68.906 116.116-119.537 28.65-54.119 32.563-84.751 32.14-143.303-.432-59.915-8.23-99.808-27.771-140.955l-13.725-28.9a5.54 5.54 0 0 0-3.07-2.815" style="fill:#fbf7da;fill-rule:evenodd;stroke-width:20;stroke-miterlimit:7;paint-order:stroke markers fill" transform="translate(617.453 336.455)scale(1.83767)"/><path d="M481.998 56.975c-68.904.021-94.831 4.95-143.234 27.236-12.878 5.929-26.815 15.398-37.805 24.768-5.495 4.684-10.235 9.326-13.754 13.636s-6.266 7.914-6.266 12.98c0 1.676.764 2.943 1.375 3.66a6.6 6.6 0 0 0 1.65 1.403c.994.624 1.883.97 2.901 1.326 2.037.713 4.54 1.326 7.588 1.934 6.096 1.217 14.26 2.34 23.254 3.137 30.687 2.716 52.011 9.94 65.03 21.347 13.017 11.407 18.59 27.08 17.312 49.51-1.752 30.73-14.552 56.318-50.303 98.83-26.977 32.08-48.62 68.762-54.598 94.096-.573 2.428-1.01 4.682-.787 7.185.225 2.504 1.399 5.16 3.213 7.088 3.629 3.856 10.46 3.12 17.367 9.407 14.165 12.89 29.357 13.082 69.041 8.377 21.963-2.605 34.397.365 43.338 1.8s14.84 3.932 25.26 9.05c88.429 43.424 101.142 173.676 23.53 253.171l-21.803 22.332a5.06 5.06 0 0 0-.791 6.016l8.664 15.414c3.444 6.127 5.98 10.17 9.443 12.922 1.731 1.376.73 6.288 3.04 6.424 2.312.135 7.616-4.47 9.38-5.428 5.727-3.11 12.006-9.113 19.209-17.254s15.066-18.39 22.668-29.688l8.853-13.158 7.313 10.094a129 129 0 0 0 10.81 12.98c3.627 3.8 6.675 6.73 9.971 8.494 7.001 3.747 15.192 2.197 21.326-2.3 6.135-4.498 10.803-11.81 12.752-20.684.424-1.928.903-3.292 1.375-4.84.868.834 1.503 1.405 2.565 2.463 4.338 4.322 10.126 10.344 16.256 16.965 12.6 13.61 23.566 23.388 33.287 29.396 9.72 6.01 18.744 8.565 26.625 5.512 7.88-3.053 12.605-11.087 15.09-21.902s3.032-25.078 1.904-43.153c-.577-9.241-.927-17.65-1.027-23.666-.007-.402.008-.55.004-.931.375.259.56.371.96.648 4.757 3.3 11.157 7.887 18.002 12.93 24.835 18.297 52.978 34.348 70.834 39.867 2.078.642 8.808 3.995 11.266 3.717 2.458-.279.351-4.637 1.883-6.6 3.063-3.926 4.119-8.835 6.129-17.26 2.254-9.446 5.338-16.22 3.708-21.911-.815-2.845-4.002-3.782-6.08-5.838-2.077-2.057-4.572-3.979-7.763-6.456-6.696-5.196-18.61-16.04-25.787-23.51-7.42-7.721-24.921-25.86-38.91-40.33-51.528-53.294-64.18-114.66-36.28-172.824 24.558-51.194 86.106-81.529 145.047-71.12 8.713 1.538 15.432 2.526 20.946 2.349 2.756-.088 5.27-.452 7.632-1.52s8.028-.876 9.126-3.33c2.198-4.91-2.404-12.26-4.436-18.802-2.032-6.543-5.451-14.696-10.1-25.188-33.066-74.632-91.254-148.065-152.947-192.84-28.94-21.003-86.877-47.632-126.926-58.525-28.989-7.885-44.88-9.423-97.33-9.406m204.607 611.72c.051.028.295.172.366.215-.276-.094-.32-.194-.366-.215" style="fill:#fbf7da;fill-rule:evenodd;stroke-width:20;stroke-miterlimit:7;paint-order:stroke markers fill" transform="translate(617.453 336.455)scale(1.83767)"/><path d="M813.53 361.184c-58.114-.252-108.866 34.303-129.614 90.634-8.138 22.095-10.005 51.995-4.752 75.608 9.385 42.185 41.654 83.95 78.238 100.953.722.335 1.044.578 1.686.898l-1.965-.431c-3.612-1.57-5.366 1.08-3.018 4.14l3.739 6.422c2.688 4.619 8.03 10.394 14.623 16.473 6.592 6.078 14.394 12.322 21.83 17.258 27.826 18.47 71.758 34.068 113.283 40.384 14.932 2.272 54.585-.388 70.73-4.617 35.408-9.274 61.38-29.306 75.376-56.078s15.963-60.133 4.086-95.783c-3.55-10.653-9.481-23.914-13.72-30.338l-7.093-10.754c-1.183-1.793-3.862-1.64-4.832.277l-4.31 8.51c-2.037 4.019-8.293 11.837-13.247 16.295-11.048 9.942-24.596 14.878-40.851 14.87-16.256-.01-35.21-5.072-56.502-15.366-39.347-19.022-67.363-47.995-83.319-86.064-4.283-10.222-5.046-14.678-5.054-29.477-.008-15.735.427-18.141 5.22-27.27 2.901-5.523 8.565-13.774 12.082-17.667 1.941-2.149 3.7-4.216 5.008-5.862a38 38 0 0 0 1.61-2.144c.208-.306.386-.58.554-.89.169-.312 5.283-.688 5.283-2.017 0-1.184-5.385-1.483-5.703-1.796a3.3 3.3 0 0 0-.757-.569 7 7 0 0 0-1.17-.527c-.807-.298-1.793-.586-2.994-.895-2.403-.618-5.617-1.295-9.16-1.912a151 151 0 0 0-25.288-2.265" style="fill:#fbf7da;fill-rule:evenodd;stroke-width:10;stroke-miterlimit:7;paint-order:stroke markers fill" transform="translate(617.453 336.455)scale(1.83767)"/><path d="M757.31 372.652a133.5 133.5 0 0 0-21.175 11.655c-1.885 3.343-7.943 8.227-15.676 12.386-15.839 14.562-28.465 33.193-36.543 55.125-8.138 22.095-10.005 51.995-4.752 75.608 9.385 42.185 41.654 83.95 78.238 100.953.722.335 1.044.578 1.686.898l-1.965-.431c-3.612-1.57-5.366 1.08-3.018 4.14l3.739 6.422c2.688 4.619 8.03 10.394 14.623 16.473 6.592 6.078 14.394 12.322 21.83 17.258 27.826 18.47 71.758 34.068 113.283 40.384 14.932 2.272 54.585-.388 70.73-4.617 35.408-9.274 61.38-29.306 75.376-56.078s15.963-60.133 4.086-95.783c-3.55-10.653-9.481-23.914-13.72-30.338l-7.093-10.754c-1.183-1.793-3.862-1.64-4.832.277l-.355.702c4.106 2.022 9.764 9.442 17.466 27.384 9.81 22.852 13.432 37.683 13.418 54.946-.014 17.594-3.63 38.281-6.691 38.281-.64 0-.258-2.165.848-4.81 1.105-2.647 1.729-5.091 1.386-5.434s-.602.663-1.402 1.832c-122.109 90.264-286.594-11.89-332.854-200.553 51.439 92.572 138.768 83.227 153.682 86.283-18.023-12.777-25.211-27.12-36.537-45.339-107.947-26.29-132.696-54.43-103.557-79.737Zm266.631 157.961c-2.245 2.963-5.028 6.196-7.638 8.782 3.599-2.359 6.23-5.284 7.638-8.782" style="fill:#f9e3d6;fill-opacity:1;fill-rule:evenodd;stroke-width:10;stroke-miterlimit:7;paint-order:stroke markers fill" transform="translate(617.453 336.455)scale(1.83767)"/><path d="M386.771 440.84c-14.639.084-26.023.735-31.482 2.133l-7.469 1.912a2.8 2.8 0 0 0-1.025 4.922l7.908 6.162c21.14 16.468 31.506 40.354 28.131 64.217-7.274 51.436-63.673 105.546-125.348 119.232-21.25 4.716-38.642 2.404-52.603-6.635-13.455-8.71-21.149-19.385-27.6-38.611l-3.775-11.254a2.8 2.8 0 0 0-5.012-.621l-7.105 11.09v.002c-20.142 31.444-29.782 59.656-29.659 87.566.103 23.339 7.158 43.866 21.612 62.97 17.248 22.8 47.48 40.003 78.845 45.09 5.824.945 11.715 1.94 12.637 2.12 4.104.804 12.448.8 22.153.517 9.704-.282 20.345-.952 27.685-1.914 51.597-6.763 106.224-26.83 146.693-53.931 15.717-10.525 36.553-30.349 48.307-45.94 10.34-13.714 24.209-41.371 28.514-56.967 16.632-60.25 2.886-120.43-36.463-157.808-16.947-16.098-33.797-25.059-58.633-31.242-10.428-2.597-16.763-3.122-36.31-3.01" style="fill:#fbf7da;fill-opacity:1;fill-rule:evenodd;stroke:none;stroke-width:7.07107;stroke-miterlimit:7;stroke-dasharray:none;stroke-opacity:1;paint-order:stroke markers fill" transform="translate(617.453 336.455)scale(1.83767)"/><path d="M153.344 743.926c5.907 11.298 24.498 20.79 34.48 29.386 13.548 7.683 28.817 13.182 44.365 15.704 5.824.944 11.715 1.938 12.637 2.119 4.104.804 12.448.8 22.153.517 9.704-.282 20.345-.952 27.685-1.914 51.597-6.764 106.224-26.83 146.693-53.931 6.52-4.367 13.922-10.333 21.19-16.934-.59-.022-1.296.118-2.09.463l-1.965.432c.642-.32.964-.562 1.686-.897q2.605-1.211 5.177-2.586c9.248-8.647 18.061-18.13 24.31-26.418 10.339-13.714 24.208-41.371 28.513-56.967 15.76-57.09 4.244-114.12-30.485-151.744-2.979-2.293-5.167-4.496-6.199-6.275l-.191-.18c142.07 105.943-240.835 327.023-327.96 269.225" style="fill:#f9e3d6;fill-opacity:1;fill-rule:evenodd;stroke:none;stroke-width:7.07107;stroke-miterlimit:7;stroke-dasharray:none;stroke-opacity:1;paint-order:stroke markers fill" transform="translate(617.453 336.455)scale(1.83767)"/><path d="M431.281 786c-1.082 1.288-1.94 4.243-2.437 9.006-27.998 268.269-394.09 368.376-330.545 183.75 1.468-4.265 3.613-8.023 3.765-8.756.104-.498-10.785 20.396-17.834 41.695-6.187 26.762-4.398 53.945 3.916 76.406 2.584 5.912 4.978 11.867 8.768 17.504 12.887 19.171 29.281 33.665 49.43 43.704 24.24 12.077 38.316 20.348 72.98 20.7 13.934.142 24.774-4.834 25.707-4.236 3.565 2.285 27.247 11.305 38.095 12.523 12.31 1.383 40.51-.57 50.6-3.232 23.151-6.116 38.714-18.294 54.573-28.742 2.835-1.868 7.183-5.34 11.853-9.347 25.27-23.652 48.75-55.338 64.83-85.711 28.65-54.119 32.564-84.751 32.141-143.303-.321-44.525-4.71-77.993-14.963-109.135-.673 62.068-27.345 140.977-45.709 178.842-.43.889.863-10.215 2.738-20.666 16.268-94.841 3.422-163.153-4.99-171.002Zm-308.709 329.547q.658-.014 1.385.027c47.425 2.734 133.9 80.426 13.377 20.316-4.685-2.337-20.202-15.406-20-17.05.273-2.222 2.17-3.226 5.238-3.293" style="fill:#f8e1d3;fill-opacity:1;fill-rule:evenodd;stroke-width:20;stroke-miterlimit:7;paint-order:stroke markers fill" transform="translate(617.453 336.455)scale(1.83767)"/><path d="M439.385 863.996c-.997-.03-2.11 1.34-3.303 4.338-32.017 123.728-87.542 227.633-200.453 296.19l8.232 5.447c13.503 6.113 13.776 2.144 20.328 2.144 42.297 0 135.086-84.347 163.622-168.894 20.064-59.447 19.082-139 11.574-139.225" style="display:inline;fill:#f1b7c5;fill-opacity:1" transform="translate(617.453 336.455)scale(1.83767)"/><path d="m269.107 884.16 2.207-43.423c-12.377 16.29-24.753 32.58-42.806 44.374-30.229 14.46-102.78 54.684-123.052 8.873-2.34 17.504-12.748 69.649 13.517 74.717 26.623-.622 150.775-73.218 150.134-84.541" style="fill:#f8e1d3;fill-opacity:1;fill-rule:evenodd;stroke:none;stroke-width:9;stroke-miterlimit:7;stroke-dasharray:none;stroke-opacity:1;paint-order:stroke markers fill" transform="translate(617.453 336.455)scale(1.83767)"/><path d="M200.588 660.357c-1.008.01-2.113 2.018-2.672 5.743-3.502 23.355 3.72 85.286 78.75 112.61 0 0 18 7.897 18 12.005 0 37.412-91.365 128.156-82.463 132.945 1.806.398 17.142-3.504 41.797-25.265 39.512-35.844 69.734-73.332 91.877-117.061 3.51-6.932 4.74-4.4 11.09-7.83l6.558-2.174c-75.832 2.957-155.536-67.772-161.072-107.226-.358-2.55-1.082-3.753-1.865-3.747" style="display:inline;fill:#f6ccd6;fill-opacity:1" transform="translate(617.453 336.455)scale(1.83767)"/><path d="M879.804 853.789c-5.973 1.187 3.93 64.931 27.96 109.77 31.4 58.593 106.152 109.764 144.318 113.28a149 149 0 0 0 5.368-3.193c3.146-1.96 4.94-2.963 7.677-3.789 2.737-.825 9.895.713 16.717-.328 1.494-.227 3.814-.44 5.252-.697-99.337-39.676-161.88-117.464-204.068-212.015-1.356-2.237-2.43-3.183-3.224-3.025z" style="fill:#f1b7c5;fill-opacity:1;fill-rule:evenodd;stroke-width:5.73337;stroke-miterlimit:7;paint-order:stroke markers fill" transform="translate(617.453 336.455)scale(1.83767)"/><path d="M975.324 709.615c-11.67 2.524-31.447 4.36-47.556 4.688.642.928 1.154 1.826 1.445 2.65C967.755 823.263 1059.325 852.8 1072 854.63c4.742.684 7.49.773 8.188.303.697-.47-.656-1.498-4.116-3.047-40.517-18.14-103.008-123.255-100.748-142.27" style="fill:#f6ccd6;fill-opacity:1" transform="translate(617.453 336.455)scale(1.83767)"/><path d="M389.154 1252.461c-1.2.053-3.87 2.316-8.607 7.164-27.418 28.06-37.103 69.264-34.703 105.633.345 5.236-.252 13.219 1.416 16.51 4.63 9.139 8.844 16.136 8.844 17.886 0 2.243 14.24 22.129 14.24 22.129s1.326 2.717-2.396-12.208c-18.064-72.447 27.88-157.407 21.206-157.114" style="fill:#f1b7c5;fill-opacity:1" transform="translate(617.453 336.455)scale(1.83767)"/><path d="M791.48 732.995c-1.624-.487-3.65-1.293-48.54 12.842-43.666 14.763-220.388 72.286-220.388 72.286 38.362 57.855 175.547 108.379 251.106 78.945 43.033-.497-75.061 28.482-127.857 44.101-18.782 2.2-54.53 7.061-77.782 3.065s-37.452-11.988-47.55-17.952c-10.097-5.963-16.091-9.899-22.086-13.835-7.642-47.129-15.284-94.258-22.922-123.784s-21.983-47.47-26.406-54.623c27.688-24.537 49.315-62.396 69.33-85.528 66.295 23.981 165.38-27.42 193.878-50.098 27.761 15.758 21.85 24.126 33.464 24.625 7.157 7.796 11.829 15.089 20.415 24.245s21.085 20.174 28.983 26.846 11.194 8.999 10.498 18.222-5.385 25.343-8.34 33.32c-2.956 7.976-4.178 7.81-5.802 7.323" style="fill:#f8e1d3;fill-opacity:1;fill-rule:evenodd;stroke-width:5;stroke-miterlimit:7;paint-order:stroke markers fill" transform="translate(617.453 336.455)scale(1.83767)"/><path d="M552.473 933.645c-16.993 9.062-48.045 43.311-48.434 66.689-.243 14.586 48.158-37.979 92.67-59.27q1.216-.583 2.176-1.173a48 48 0 0 1-2.297-.147c-15.193-1.422-31.668-3.7-44.115-6.1" style="fill:#f1b7c5;fill-opacity:1" transform="translate(617.453 336.455)scale(1.83767)"/><path d="M481.9 561.618c-32.124 32.203-106.773 82.507-213.144 74.627-.731 3.066 259.81 68.426 243.049-118.211-1.442-1.138-14.794 28.436-29.905 43.584" style="fill:#f9e3d6;fill-opacity:1;stroke-width:1.15439" transform="translate(617.453 336.455)scale(1.83767)"/><path d="M487.893 554.145c-23.422 31.704-87.532 82.05-173.205 89.603.241 10.87 228.667 34.55 193.427-131.01-1.348-.833-9.205 26.493-20.222 41.406" style="fill:#f6ccd6;fill-opacity:1" transform="translate(617.453 336.455)scale(1.83767)"/><path d="M200.588 660.357c-1.008.01-2.113 2.018-2.672 5.743-3.502 23.355 3.72 85.286 78.75 112.61 0 0 15.5 6.801 17.732 11.063l.266-.035c17.496-2.293 35.34-6.116 52.863-11.224 2.437-3.416 4.185-2.171 9.44-5.01l6.558-2.174c-75.832 2.957-155.536-67.772-161.072-107.227-.358-2.549-1.082-3.752-1.865-3.746" style="display:inline;fill:#f1b7c5;fill-opacity:1" transform="translate(617.453 336.455)scale(1.83767)"/><path d="M478.773 1066.793c-.268.011-.58.092-.974.336-.82.507-.965.96-1.348 1.605a31 31 0 0 0-1.25 2.416c-.906 1.919-1.954 4.424-3.017 7.166-2.127 5.485-4.298 11.881-5.372 16.323-2.476 10.247-2.904 25.05-.876 33.71 5.031 21.495 20.914 37.31 43.18 43.083 9.795 2.54 25.547 2.734 36.486.498 17.27-3.53 34.567-11.241 51.261-22.688-20.83.427-41.295.178-58.011-7.02-18.518-7.973-32.435-24.471-39.248-37.892-6.814-13.42-6.523-23.762-6.233-34.103l-.062-.035-.487.39a95 95 0 0 1-5.252 3.932l1.016-1.207a1.536 1.536 0 0 0-.424-2.328l-3.951-2.221c-1.161-.653-2.313-1.176-3.31-1.518a8 8 0 0 0-1.407-.365c-.226-.034-.452-.093-.72-.082z" style="fill:#f8e1d3;fill-opacity:1;fill-rule:evenodd;stroke:none;stroke-width:5;stroke-miterlimit:7;stroke-dasharray:none;stroke-opacity:1;paint-order:stroke markers fill" transform="translate(617.453 336.455)scale(1.83767)"/><path d="M537.645 802.723c-26.038-2.26-49.888 31.447-45.6 44.842 1.632 5.096 5.093 2.562 9.917-7.26 10.377-21.13 26.467-29.924 41.934-22.914 16.114 7.304 16.476 26.788 22.698 26.773 7.614-.02-.347-24.457-10.893-33.437-5.923-5.044-12.047-7.482-18.056-8.004m213.361-28.748a30 30 0 0 0-6.897.8c-5.867 1.398-11.566 4.707-16.685 10.565-9.114 10.43-13.405 35.771-5.871 34.674 6.157-.898 3.657-20.224 18.525-29.813 14.27-9.203 31.478-2.865 44.842 16.514 2.93 4.25 5.324 6.941 7.125 8.043-.456-2.337-.847-4.333-.857-5.46-.038-3.968-.058-7.711-.061-11.25-7.794-11.783-23.971-24.092-40.121-24.073" style="fill:#e15f5f;fill-opacity:1;stroke-width:1.24291" transform="translate(617.453 336.455)scale(1.83767)"/><path d="M478.543 51.502c-24.55.206-47.738 2.719-68.986 6.844-33.997 6.6-63.04 17.31-84.928 29.46-12.87 7.145-43.19 26.253-44.77 48.448-.116 1.642.094 3.624 1.079 5.435.984 1.812 2.61 3.149 4.214 3.971 3.21 1.644 6.613 2.053 11.453 2.477s11.086.666 19.327.97c28.66 1.058 48.717 7.756 61.822 17.623 40.192 30.262 19.558 94.88-24.11 142.102l.106-.107c-33.4 34.193-49.702 65.705-57.406 88.898-3.853 11.597-5.561 21.103-6.21 27.877-.288 3.02-.369 5.485-.323 7.422-4.83-2.166-22.018-8.657-53.036-7.79-15.03.421-18.011.897-23.984 3.82-12.392 6.062-19.974 14.43-27.895 30.784-8.213 16.96-9.31 20.67-12.906 43.645-3.325 21.251-3.536 47.613-.49 61.474l2.168 9.862c-11.204 12.631-21.348 26.024-28.076 41.685-31.223 63.064-6.593 108.207-4.037 112.586 12.339 21.193 27.847 37.972 49.6 50.545.83.32-.888 2.56-3.821 4.977-40.873 33.676-90.972 97.043-88.156 147.511 2.26 33.801 11.378 15.907-4.914 48.528-20.84 45.046-29.297 120.164 44.521 167.666 28.323 16.703 53.974 22.625 86.236 22.334 28.246-1.23 21.975 5.009 54.23 9.855 123.544 13.071 185.257-127.101 185.257-127.101 3.962 2.57 7.001 6.294 10.47 9.449-5.666 16.425-11.977 32.717-15.345 49.814-72.622 68.4-162.446 181.914-107.535 289.14.596 1.164.843 1.852 1.359 2.907-4.9-.98-10.247-1.382-15.922-1.23-12.3.33-25.978 2.907-37.457 8.12-10.235 4.65-23.822 13.519-32.547 21.179-17.945 15.756-25.99 18.463-54.795 18.472-17.507 0-31.855 2.355-42.775 7.713-9.671 4.745-16.704 10.868-20.48 17.846-3.777 6.978-3.91 15.156.365 21.75s12.253 11.442 23.623 14.25c11.369 2.808 26.304 3.598 45.283 1.559 35.266-3.791 37.928-2.612 63.857 7.56 46.318 18.17 74.189 10.956 101.131 4.057 26.934-6.897 53.11-13.525 101.57 4.373 60.918 23.556 116.36 3.539 175.387-5.041 64.542 9.492 126.239 21.12 192.12 5.39l.04-.01.041-.01c47.975-12.407 66.147-12.45 108.75-3.906 43.533 8.73 61.266 8.866 95.764-4.861 29.167-11.606 45.36-10.788 60.443-8.715 15.084 2.073 29.645 5.731 51.83-.924 5.702-1.71 10.681-4.484 14.286-8.715 3.373-3.958 6.413-9.222 7.113-15.18 1.313-11.169-4.68-20.932-13.777-26.636-16.07-10.077-33.569-8.955-50.698-9.615s-34.02-2.7-51.707-17.551c-16.618-13.955-50.31-37.174-87.1-30.113 1.058-2.376 1.775-4.184 3.104-6.997l.059-.123.05-.128c22.42-56.1 14.206-107.023-8.011-153.17-20.323-42.212-83.878-112.887-102.211-131.39-4.073-20.672-12.48-43.538-25.147-71.278 2.605-3.225 5.195-6.659 7.01-9.348 3.294-4.879 6.343-8.873 6.776-8.873s5.836 4.964 12.01 11.028c25.751 24.53 55.413 42.782 87.224 52.953 24.003 7.617 51.001 6.826 73.795-2.162 12.102-4.773 26.326-12.678 26.326-12.678 155.474 19.946 165.906-176.127 100.902-246.268-1.664-1.796-3.65-5.725-4.412-8.734-17.046-67.583-67.747-100.546-125.162-133.582-2.514-1.48 10.93-7.791 20.912-39.223 11.713-36.93 7.782-70.399-8.047-105.334-13.603-29.51-24.108-27.108-20.43-40.2 4.897-17.162 7.358-42.108 6.69-67.8-.578-22.245-2.185-35.569-5.71-47.332-1.786-5.956-5.871-14-7.11-14-.598 0-1.086-.92-1.086-2.043s-.9-2.386-2-2.808-2-1.541-2-2.487c0-1.528-2.268-3.732-12.918-12.56-5.153-4.271-19.847-9.324-28.652-9.852-9.58-.574-26.866.988-35.764 3.233-8.726 2.202-17.73 5.196-19.3 6.42-.752.584-3.126 1.484-5.276 2-2.15.515-6.351 2.136-9.334 3.603s-8.082 3.588-11.332 4.715-9.915 3.997-14.809 6.379l-4.437 2.16c.048-.42.038-.668.03-.885a8 8 0 0 0-.108-1.117 28 28 0 0 0-.426-2.111c-.38-1.626-.966-3.812-1.793-6.58-1.654-5.536-4.262-13.353-7.969-22.944-7.414-19.18-19.218-45.434-36.512-74.343-34.586-57.82-91.18-126.345-178.488-169.506l-.03-.016-.03-.015c-61.029-29.227-121.632-39.93-175.643-39.477m-14.322 5.89c56.724-2.604 121.893 7.086 187.588 38.547 172.16 85.109 224.625 272.443 223.183 273.885-.326.327-7.017-1.647-13.29-3.496-108.338-33.94-216.733 52.474-181.938 172.74 19.53 62.824 55.073 76.153 68.006 91.383 2.05 3.68 4.866 8.594 6.396 10.662 12.744 17.885 50.244 43.112 50.244 43.112l-11.01 43.787s-59.352-21.879-96.517-56.98c-4.822-4.554-9.436-7.604-9.436-7.604 21.192 116.974-23.155 127.759-89.29 38.166-16.164 61.447-44.413 29.162-63.368-2.914-3.996 1.765-16.882 38.946-59.693 69.134-2.315-4.727-4.994-9.501-7.825-14.248-4.377-7.851-10.821-18.694-13.595-22.119a201 201 0 0 0 12.304-10.127c102.316-87.027 81.201-253.641-42.09-280.83-12.128-2.731-25.325-4.063-39.597-3.763-8.606.153-17.573.888-26.897 2.252-1.688.246-3.7.615-5.867 1.064-9.202 1.62-18.77 3.846-28.705 6.725-8.697-4.146-17.14-10.223-27.06-10.71h-.004v-.001h-.002l-.016-.01c-1.402-1.01-3.424-56.564 61.941-123.48 62.505-67.592 76.129-164.614-41.548-168.956-32.932-1.215-33.499-1.505-28.506-14.605 10.967-28.778 82.05-67.273 176.592-71.614M817.875 363.04c8.707.344 17.656 1.475 26.799 3.465v.008l.49.1q5.236 1.154 10.55 2.69c4.99 1.445 9.885 2.728 12.376 3.26q.476.115.922.217c.775.18 1.469.33 2.11.452.56.668-1.543 2.301-7.56 6.295-20.385 13.53-29.402 35.654-23.724 58.21 3.704 14.715 7.31 22.85 15.85 35.766 8.485 12.835 26.717 32.63 36.978 40.145 21.485 15.734 49.918 27.457 74.373 30.664 10.717 1.405 12.631 1.286 22.666-1.403 16.29-4.364 25.92-11.176 33.764-23.884 2.7-4.376 5.328-7.955 5.84-7.955 3.006 0 16.163 18.849 20.941 30 59.409 138.648-79.91 219.515-236.59 141.267-8.253-4.069-19.943-11.119-25.978-15.666-6.947-5.234-14.214-11.634-20.266-17.61a118 118 0 0 1-13.588-19.058c1.976-1.438 9.27 2.4 10.51 2.4 15.37 0-16.447-2.513-45.05-33.751-92.518-101.04-19.182-240.264 98.587-235.612m-429.557 79.13c24.441.011 45.35 5.04 62.903 13.667 31.29 15.378 52.236 42.347 63.234 74.164 20.949 60.602 5.088 137.959-54.98 189.553-3.452 2.881-6.793 5.808-10.522 8.574l-.02.016-.01.006c-17.938 13.3-39.103 25.205-63.71 35.123-50.178 20.223-108.228 32.462-153.84 23.765-45.612-8.696-75.926-34.086-90.508-68.535-14.582-34.45-9.685-82.749 33.227-139.783 0 0 .808 2.55 2.459 7.683 17.147 47.864 41.676 58.903 91.449 45.305 30.016-9.584 53.802-23.946 76.135-45.97 12.097-11.93 26.513-30.526 26.54-34.235.006-.605.969-2.9 2.143-5.1 13.129-24.598 8.067-52.489-12.63-69.609-3.364-2.782-9.132-7.766-12.82-11.076-3.686-3.31-8.952-7.408-11.702-9.108s-5-3.532-5-4.072c0-.801 4.88-2.462 10.908-4.154 7.08-1.56 14.482-3.633 21.12-4.498 8.938-1.165 17.477-1.718 25.624-1.715zm306.403 234.302c37.576 34.593 97.162 56.843 97.162 56.843s-11.762 65.148 2.949 135.055l2.832 12.635c-7.085 6.639-15.444 11.574-24.006 16.064-34.424 17.666-58.28 26.341-76.992 29.395-2.933.479-8.633 1.635-12.666 2.572s-11.71 2.48-17.06 3.428c-13.547 2.4-14.105 4.594-.864 3.394 81.947-7.425 132.152-48.338 133.248-47.242 9.17 38.177 26.551 79.891 51.022 110.453 1.69 1.834 5.152 6.337 7.693 10.006l4.62 6.672-2.53 6.662c-4.197 11.056-13.8 22.602-26.88 33.492-14.979-12.475-30.842-28.398-38.563-38.824-13.804-18.637-45.78-56.085-57.498-25.398-2.235 5.85-2.513 6.066-7.842 6.066-15.811-.449-32.82-8.897-45.877 4.483-7.923 7.922-8.942 17.885-2.856 40.412 2.639 9.766 2.363 15.281-.957 19.127-7.038 8.15-3.345 19.176 2.824 28.82 2.223 3.475 7.313 11.941 10.555 16.732-14.52-.4-28.004-3.183-39.445-8.95h-.006c-.156-.286 1.781-3.75 4.361-7.782 6.172-9.649 9.86-20.671 2.824-28.82-3.32-3.846-3.595-9.361-.957-19.127 6.087-22.527 5.068-32.49-2.855-40.412-13.057-13.38-30.066-4.932-45.877-4.483-5.33 0-5.608-.216-7.842-6.066-11.934-31.25-44.57 7.942-57.498 25.398-8.339 11.26-26.173 28.93-42.133 41.746l-11.728 9.418c-10.515-5.281-21.854-12.568-21.92-19.457-.024-2.463 1.304-5.598 3.96-11.41 20.759-45.401 17.685-82.455 33.401-93.67 4.498-3.21 11.916-7.603 16.485-9.764 8.2-3.878 8.405-3.903 15.918-1.992C582.355 945.74 648 938.843 648 936.113c0-.81-2.69-.992-6.973-.47-31.336 3.816-98.818-2.815-135.158-20.059-4.426-2.1-4.537-2.35-4.562-10.334-.023-7.103-1.792-25.248-4.698-48.182-3.632-28.664-17.92-77.189-19.84-82.457q2.376-2.326 4.663-4.588c20.283-14.957 33.733-31.332 42.609-44.334 4.665-6.833 8.08-12.752 10.514-16.949.176-.303.25-.408.416-.693 3.752 5.432 7.766 12.027 12.724 18.023 2.605 3.15 31.726 36.86 50.664-6.738 1.038-2.479 1.555-4.44 2.268-6.643 8.11 9.256 18.485 21.662 30.81 32.754 7.735 6.961 15.94 13.05 24.627 16.54 26.02 9.562 34.841-4.333 39.012-27.856 1.635-10.278 1.895-21.566 1.563-32.13-.304-9.667-1.124-18.514-1.918-25.526m115.566 9.96c109.526 50.375 194.508 27.268 224.465 1.159 5.514-4.806 130.757 61.119 129.785 158.424-.056 5.652.349 9.999.9 9.658.552-.341 1.425-5.116 1.94-10.611s1.562-10.403 1.88-9.993c37.784 48.651 43.451 111.475 24.046 159.74s-63.883 81.974-126.389 72.395c-79.8 33.507-127.295 18.507-194.69-49.35-7.123-7.844-15.16-17.53-17.859-21.523s-7.27-10.198-10.156-13.787c-15.176-18.874-36.333-72.159-45.482-121.475-18.241-100.205 11.1-174.658 11.56-174.636m-361.672 48.503c4.664.274 48.83 103.487 46.526 176.802-.106 13.2-.537 26.7-.957 30-4.669 32.944-12.635 65.277-25.495 96-2.214 7.605-63.456 159.098-197.355 136.16-25.92-5.995-28.624-11.29-35.705-9.373-57.525 15.57-194.802-41.927-140.871-174.51.748-1.85 9.253-31.146 15.195-24.284 3.227 3.726 12.718 4.492 18.414 3.283-12.672-1.131-16.94-1.253-20.66-11.117-25.517-67.65 78.113-182.502 96.373-172.786 72.576 38.617 216.124-25.958 244.385-50.14a.26.26 0 0 1 .15-.035m54.867 186.2c3.915.123 19.153 6.677 19.168 7.483.01.485-2.833 2.261-6.316 3.947-3.483 1.687-8.98 5.49-12.213 8.452l-5.879 5.386.865-5.334c.476-2.933.88-8.032.899-11.332.036-6.21.386-8.698 3.476-8.601m84.567 64.089c17.504.29-3.45 21.428 34.097 15.988 37.817-5.478 44.207 5.218 32.5 45.191-3.254 11.113-3.173 13.56.553 16.801 2.888 2.511 3.465 4.143 3.45 9.774-.024 8.335-7.667 23.27-17.112 33.435-3.412 3.672-8.304 9.32-10.871 12.549-98.755 103.467-202.456 41.977-152.08-52.09l4.373 2.432a696 696 0 0 0 4.842 2.677c.257.135-.786 1.592-2.319 3.237-4.504 4.835-1.995 4.623 3.483-.295 2.77-2.486 11.936-9.745 20.369-16.133 19.97-15.127 26.332-21.337 40.01-39.053 13.592-17.606 29.235-34.67 38.705-34.513m164.328 0c9.47-.157 25.112 16.907 38.705 34.513 16.19 22.632 39.831 37.247 60.379 55.186 5.478 4.918 7.987 5.13 3.482.295-4.667-6.334-11.361-10.89-17.52-15.899 5.022-4.021 9.146-7.79 12.243-11.078a104 104 0 0 0 3.633-4.105c16.945 44.484 50.713 95.474-11.574 122.855-70.79 31.12-160.8-68.152-159.948-94.013.186-5.628.562-7.263 3.45-9.774 3.726-3.24 3.806-5.688.552-16.8-11.706-39.974-5.316-50.67 32.5-45.192 37.547 5.44 16.594-15.698 34.098-15.988M651.416 1104.85c.37 0 .748.055 1.148.172 14.452 3.85 28.867 5.566 42.97 5.632 74.618 90.683 177.338 76.663 184.484 16.334.428-3.62 1.175-6.584 1.66-6.584 1.485 1.164 77.773 84.98 98.697 128.442 27.88 55.916 19.956 113.498-6.998 167.281-2.735 4.327-3.678 5.996-3.45 6.61.1.264.42.332.909.332.408 0 1.6-1.143 3.008-2.817 4.215-2.744 8.383-5.47 13.347-6.635 32.986-7.626 65.794 14.22 81.922 27.762 7.73 6.491 15.503 10.76 23.172 13.656 0 0 .012.01.016.01.037.015.091.026.13.041 11.713 4.398 23.178 5.539 33.831 5.95 17.67.68 32.987-.08 46.264 8.246 6.85 4.295 10.507 10.408 9.619 17.96-.395 3.362-2.58 7.524-5.025 10.395-2.215 2.6-5.488 4.57-10.02 5.93-20.334 6.1-32.306 2.788-48.02.629-15.713-2.16-34.581-2.835-64.996 9.267-33.575 13.36-47.519 13.053-90.666 4.4-43.107-8.644-64.215-8.534-112.691 3.997h-.014c-45.69 10.906-89.64 8.207-134.752 2.295-5.418-.71-10.852-1.467-16.309-2.252-12.642-1.819-25.4-3.789-38.34-5.688l-.646-.096-.648.094c-51.324 7.388-97.503 22.18-145.659 12.842a516 516 0 0 1-8.433-1.908c-5.766-1.463-11.54-3.026-17.387-5.287l-.031-.012-.031-.014c-50.208-18.554-79.954-11.584-106.969-4.666s-51.13 13.733-95.613-3.717c-25.992-10.196-32.511-11.957-68.104-8.13-18.226 1.958-32.211 1.11-42.164-1.349-9.953-2.457-15.697-6.5-18.23-10.408s-2.562-7.84-.002-12.57 8.092-9.91 16.53-14.05c9.015-4.424 22.134-6.792 38.813-6.792h.002c29.521-.01 42.015-4.28 60.729-20.71 7.776-6.828 21.363-15.671 30.332-19.745 10.011-4.547 22.783-7.02 33.977-7.32 5.595-.15 10.75.243 14.97 1.199 7.227 1.7 13.133 6.679 19.258 10.638l-5.78-13.539a199 199 0 0 0-6.116-13.076c-15.462-30.192-21.657-63.118-11.684-103.482 18.665-63.785 63.273-126.51 110.322-173.713.485 0 1.232 2.963 1.66 6.584 7.18 60.626 110.88 74.486 185.585-17.68 2.383-3.194 3.822-4.438 5.423-4.459z" style="baseline-shift:baseline;display:inline;overflow:visible;vector-effect:none;fill:#dfa7b5;fill-opacity:1;fill-rule:evenodd;stroke-miterlimit:7;paint-order:stroke markers fill;stop-color:#000" transform="translate(617.453 336.455)scale(1.83767)"/><path d="M240.359 415.573c33.254-.026 196.53 35.44 125.048 148.097-30.615 47.22-78.242 70.889-115.655 76.988-25.516 4.16-62.3-3.403-74.215-53.867-22.773-96.453 2.815-171.086 64.822-171.218" style="baseline-shift:baseline;display:inline;overflow:visible;vector-effect:none;fill:#e15f5f;stop-color:#000" transform="translate(617.453 336.455)scale(1.83767)"/><path d="M178.08 460.186c-13.115 31-14.545 75.772-2.543 126.605 11.915 50.464 48.699 58.027 74.215 53.867 37.412-6.1 85.039-29.768 115.654-76.988 2.851-4.494 5.33-8.863 7.457-13.113-13.11 13.529-31.338 19.564-56.302 27.072-73.64 18.597-128.285-65.543-138.48-117.443" style="baseline-shift:baseline;display:inline;overflow:visible;vector-effect:none;fill:#c94c50;fill-opacity:1;stop-color:#000" transform="translate(617.453 336.455)scale(1.83767)"/><path d="M240.36 415.572c-21.648.046-51.12 25.139-51.12 25.139 39.752 31.046 84.475 29.822 129.338 3.904 4.32-3.021 7.358-5.977 6.75-6.566l-.043-.04c-33.119-16.038-70.782-22.448-84.926-22.437" style="baseline-shift:baseline;display:inline;overflow:visible;vector-effect:none;fill:#e67f7b;fill-opacity:1;stop-color:#000" transform="translate(617.453 336.455)scale(1.83767)"/><path d="M240.354 413.072c-32.006.068-54.997 19.722-66.545 51.127-11.55 31.405-12.173 74.596-.705 123.166 6.083 25.765 18.73 41.007 33.23 49.031s30.636 8.878 43.82 6.729c38.094-6.21 86.298-30.2 117.35-78.094l.008-.011.006-.01c18.133-28.578 21.586-52.785 15.576-72.733s-21.26-35.35-39.592-47.021-39.83-19.682-58.873-24.81c-19.043-5.13-35.512-7.38-44.271-7.374h-.002zm.008 5h.002c7.868-.006 24.275 2.168 42.964 7.201 18.69 5.035 39.78 12.927 57.489 24.202 17.709 11.274 31.95 25.86 37.49 44.246 5.538 18.382 2.599 40.85-15 68.593-30.18 46.545-77.227 69.89-113.957 75.877-12.332 2.011-27.346 1.163-40.596-6.17-13.25-7.332-24.951-21.105-30.783-45.804-11.305-47.882-10.522-90.235.531-120.293 11.053-30.057 31.86-47.787 61.86-47.852" style="baseline-shift:baseline;display:inline;overflow:visible;vector-effect:none;fill:#854035;fill-opacity:1;stop-color:#000" transform="translate(617.453 336.455)scale(1.83767)"/><path d="M236.924 566.855c-7.066.06-1.442 17.965 2.133 20.47 5.158 3.613 10.277 2.044 10.277-3.15 0-4.973-7.96-16.738-11.686-17.269a5 5 0 0 0-.724-.05" style="fill:url(#c);fill-opacity:1" transform="translate(617.453 336.455)scale(1.83767)"/><path d="M315.963 515.959c-1.534.038-2.729.92-3.295 2.703-1.105 3.481 4.243 13.01 8.646 15.406 7.932 4.318 11.506-2.357 2.633-13.068-2.778-3.354-5.742-5.097-7.984-5.041" style="fill:url(#d);fill-opacity:1" transform="translate(617.453 336.455)scale(1.83767)"/><path d="M226.648 474.941c-2.038-.06-3.475 2.05-3.726 4.641-.414 4.276 2.282 11.051 6.156 15.467 6.039 6.882 9.081-3.637 3.967-13.715-2.332-4.595-4.598-6.34-6.397-6.393" style="fill:url(#e);fill-opacity:1" transform="translate(617.453 336.455)scale(1.83767)"/><path d="M223.915 428.444c-7.291 3.322-2.932 9.744 4.079 9.744 4.793 0 7.922-2.619 7.922-6.627 0-3.691-7.005-5.393-12-3.117" style="fill:#ea9993;fill-opacity:1;stroke-width:1.18845" transform="translate(617.453 336.455)scale(1.83767)"/><path d="M711.816 694.137c-2.437-.095-5.082.794-7.539 3.07-9.516 8.82 3.587 23.072 13.2 13.46 7.102-7.102 1.653-16.245-5.66-16.53m-172.751 28.728c-2.437-.095-5.082.794-7.539 3.07-9.516 8.82 3.587 23.072 13.2 13.46 7.102-7.102 1.653-16.245-5.66-16.53" style="fill:#e15f5f;fill-opacity:1;stroke:none;stroke-opacity:1" transform="translate(617.453 336.455)scale(1.83767)"/><path d="M615.254 866.11c8.801 62.612 72.569 59.853 71.801-5.445-23.931-2.235-45.356.848-71.8 5.446m68.59-1.98-.125 3.822c-1.67 50.8-54.603 55.637-64.067 4.86l-.7-3.76c28.43-7.446 54.42-7.499 64.892-4.922" style="fill:#e15f5f;fill-opacity:1;stroke-width:1.24476" transform="translate(617.453 336.455)scale(1.83767)"/><path d="M737.531 389.785c-.76-.01-1.795.882-3.658 2.893-30.167 32.55 5.224 111.644 104.793 121.117 5.947.566 16.76.283 20.704-.083-42.973-19.653-81.794-38.016-106.956-80.378-5.744-12.303-10.46-25.102-12.434-38.613-.01-1.13-.576-2.93-1.253-4.002-.38-.602-.739-.93-1.196-.934" style="fill:#f6ccd6;fill-opacity:1" transform="translate(617.453 336.455)scale(1.83767)"/><path d="M543.098 147.129c250.272 209.304 14.553 323.26 23.576 354.152 1.59 5.445 35.181-.74 131.459-113.782 35.792-70.767 35.79-177.308-109.005-234.063-15.057-5.902-46.03-6.307-46.03-6.307" style="fill:#f9e3d6;fill-opacity:1;stroke-width:1.14188" transform="translate(617.453 336.455)scale(1.83767)"/><path d="M570.078 149.205c239.652 180.706-12.744 327.416-12.744 360.352 0 3.098 13.812-1.14 31.137-9.555 50.208-23.437 80.993-58.654 112.078-101.908 52.268-73.246 26.359-189.937-93.373-242.887-12.206-5.398-37.098-6.002-37.098-6.002m329.949 1118.783c-4.012-.138-6.614 2.214-8.974 7.643-30.948 70.307-68.998 126.81-139.557 161.002-4.838 3.69-6.288 7.889-3.162 9.15 2.885 1.164 5.87.71 14.584-1.074 140.373-28.739 181.397-165.272 140.127-176.234-1.09-.29-2.092-.455-3.018-.487" style="fill:#f6ccd6;fill-opacity:1" transform="translate(617.453 336.455)scale(1.83767)"/><path d="M363.898 108.76c-6.545-1.193-10.072.223-10.093 2.963-.054 6.941 51.282 3.402 102.298 77.634 52.928 77.014 23.477 162.582 29.732 197.566.544 3.038 1.927 5.732 3.075 5.987 4.142.922 40.94-73.666 44.363-80.414 42.663-84.067-68.773-185.38-169.375-203.735" style="fill:#f9e3d6;fill-opacity:1;stroke-width:1.15611" transform="translate(617.453 336.455)scale(1.83767)"/><path d="M356.744 108.81c-5.75.239-8.907 1.539-8.41 3.856 1.258 5.871 45.112-3.473 102.125 49.625 59.15 55.089 50.35 132.867 62.201 161.23 1.03 2.464 2.704 4.479 3.72 4.479 3.671 0 14.11-9.58 16.893-15.504 44.56-94.797-87.7-207.362-176.529-203.685" style="fill:#f6ccd6;fill-opacity:1" transform="translate(617.453 336.455)scale(1.83767)"/><path d="M520.783 1329.12c-14.525 63.797 14.802 105.913 25.06 102.487 1.019-.34 1.532-8.073 1.62-24.386.094-17.419 2.68-34.566 7.164-51.284-11.878-8.028-23.203-16.942-33.844-26.818" style="display:inline;fill:#f6bcce;fill-opacity:1" transform="translate(617.453 336.455)scale(1.83767)"/><path d="M779.465 1420.87c-8.725 5.681-18.024 10.943-27.969 15.763-4.838 3.69-6.288 7.889-3.162 9.15 2.885 1.164 5.87.71 14.584-1.074 24.289-4.973 45.603-13.172 64.031-23.39-15.507.374-31.4.262-47.484-.45" style="fill:#f6bcce;fill-opacity:1" transform="translate(617.453 336.455)scale(1.83767)"/><path d="M993.643 572.393c-5.976-.097-36.517 76.545-202.977 51.52-4.767-.718-12.565-1.5-17.332-1.737-10.133-.278-31.716-10.315-1.412 7.297 142.532 86.888 245.921-24.426 222.281-56.756-.158-.216-.343-.32-.56-.324" style="fill:#f6ccd6;fill-opacity:1" transform="translate(617.453 336.455)scale(1.83767)"/><path d="m337.024 903.973 2.164-22.264C305.501 913.91 84.7 989.503 197.218 1037.883c61.72 16.393 133.827-72.379 139.806-133.91" style="fill:#faf9e4;fill-opacity:1;fill-rule:evenodd;stroke:none;stroke-width:14.4468;stroke-miterlimit:7;stroke-dasharray:none;stroke-opacity:1;paint-order:stroke markers fill" transform="translate(617.453 336.455)scale(1.83767)"/><path d="M756.986 619.078c-2.073-.042.73 2.14 14.936 10.395 55.382 33.76 104.855 37.598 143.262 27.771-21.66-5.503-42.928-15.087-63.088-28.31-18.085-.051-38.464-1.569-61.43-5.022-4.767-.716-12.565-1.499-17.332-1.736-5.383-.148-13.998-3.05-16.348-3.098" style="fill:#f6bcce;fill-opacity:1" transform="translate(617.453 336.455)scale(1.83767)"/><path d="M240.359 415.573c33.254-.026 196.53 35.44 125.048 148.097-30.615 47.22-78.242 70.889-115.655 76.988-25.516 4.16-62.3-3.403-74.215-53.867-22.773-96.453 2.815-171.086 64.822-171.218" style="baseline-shift:baseline;display:inline;overflow:visible;vector-effect:none;fill:#e15f5f;stop-color:#000" transform="matrix(-1.83767 0 0 1.83767 2844.084 178.515)"/><path d="M178.08 460.186c-13.115 31-14.545 75.772-2.543 126.605 11.915 50.464 48.699 58.027 74.215 53.867 37.412-6.1 85.039-29.768 115.654-76.988 2.851-4.494 5.33-8.863 7.457-13.113-13.11 13.529-31.338 19.564-56.302 27.072-73.64 18.597-128.285-65.543-138.48-117.443" style="baseline-shift:baseline;display:inline;overflow:visible;vector-effect:none;fill:#c94c50;fill-opacity:1;stop-color:#000" transform="matrix(-1.83767 0 0 1.83767 2844.084 178.515)"/><path d="M240.36 415.572c-21.648.046-38.858 9.174-51.12 25.139 35.11 33.175 87.536 26.87 129.338 3.904 4.32-3.021 7.358-5.977 6.75-6.566l-.043-.04c-33.119-16.038-70.782-22.448-84.926-22.437" style="baseline-shift:baseline;display:inline;overflow:visible;vector-effect:none;fill:#e67f7b;fill-opacity:1;stop-color:#000" transform="matrix(-1.83767 0 0 1.83767 2844.084 178.515)"/><path d="M240.354 413.072c-32.006.068-54.997 19.722-66.545 51.127-11.55 31.405-12.173 74.596-.705 123.166 6.083 25.765 18.73 41.007 33.23 49.031s30.636 8.878 43.82 6.729c38.094-6.21 86.298-30.2 117.35-78.094l.008-.011.006-.01c18.133-28.578 21.586-52.785 15.576-72.733s-21.26-35.35-39.592-47.021-39.83-19.682-58.873-24.81c-19.043-5.13-35.512-7.38-44.271-7.374h-.002zm.008 5h.002c7.868-.006 24.275 2.168 42.964 7.201 18.69 5.035 39.78 12.927 57.489 24.202 17.709 11.274 31.95 25.86 37.49 44.246 5.538 18.382 2.599 40.85-15 68.593-30.18 46.545-77.227 69.89-113.957 75.877-12.332 2.011-27.346 1.163-40.596-6.17-13.25-7.332-24.951-21.105-30.783-45.804-11.305-47.882-10.522-90.235.531-120.293 11.053-30.057 31.86-47.787 61.86-47.852" style="baseline-shift:baseline;display:inline;overflow:visible;vector-effect:none;fill:#854035;fill-opacity:1;stop-color:#000" transform="matrix(-1.83767 0 0 1.83767 2844.084 178.515)"/><path d="M226.648 474.941c-2.038-.06-3.475 2.05-3.726 4.641-.414 4.276 2.282 11.051 6.156 15.467 6.039 6.882 9.081-3.637 3.967-13.715-2.332-4.595-4.598-6.34-6.397-6.393m89.315 41.018c-1.534.038-2.729.92-3.295 2.703-1.105 3.481 4.243 13.01 8.646 15.406 7.932 4.318 11.506-2.357 2.633-13.068-2.778-3.354-5.742-5.097-7.984-5.041m-79.04 50.896c-7.065.06-1.441 17.965 2.134 20.47 5.158 3.613 10.277 2.044 10.277-3.15 0-4.973-7.96-16.738-11.686-17.269a5 5 0 0 0-.724-.05" style="fill:url(#f);fill-opacity:1" transform="matrix(-1.83767 0 0 1.83767 2844.084 178.515)"/><path d="M223.915 428.444c-7.291 3.322-2.932 9.744 4.079 9.744 4.793 0 7.922-2.619 7.922-6.627 0-3.691-7.005-5.393-12-3.117" style="fill:#ea9993;fill-opacity:1;stroke-width:1.18845" transform="matrix(-1.83767 0 0 1.83767 2844.084 178.515)"/><path d="M200.588 660.357c-1.008.01-2.113 2.018-2.672 5.743-2.53 16.872.536 53.878 30.723 83.423 11.694-2.3 24.061-5.575 36.83-9.695-34.706-23.127-59.984-54.116-63.016-75.724-.358-2.55-1.082-3.753-1.865-3.747" style="display:inline;fill:#f6ccd6;fill-opacity:1" transform="translate(617.453 336.455)scale(1.83767)"/><path d="M535.21 802.615c-25.066-.065-47.32 31.973-43.165 44.95 1.631 5.095 5.094 2.562 9.918-7.26 7.711-15.702 18.577-24.592 29.998-25.246l20.64-6.727c-4.944-3.438-9.99-5.178-14.956-5.61a29 29 0 0 0-2.434-.107" style="fill:#dd4a4a;fill-opacity:1;stroke-width:1.24291" transform="translate(617.453 336.455)scale(1.83767)"/><path d="M620.41 885.408c12.013 28.404 38.772 33.406 54.486 15.62a296 296 0 0 1-3.312-.653c-14.238 14.1-37.2 10.26-47.746-13.676a331 331 0 0 1-3.428-1.29" style="fill:#dd4a4a;fill-opacity:1;stroke-width:1.24476" transform="translate(617.453 336.455)scale(1.83767)"/></svg>