<svg xmlns="http://www.w3.org/2000/svg" xmlns:xlink="http://www.w3.org/1999/xlink" xml:space="preserve" width="925" height="2048"><defs><radialGradient xlink:href="#a" id="f" cx="462.5" cy="304.284" r="851.793" fx="462.5" fy="304.284" gradientTransform="matrix(1 0 0 .921 0 58.223)" gradientUnits="userSpaceOnUse"/><radialGradient xlink:href="#b" id="h" cx="462.5" cy="244.951" r="851.793" fx="462.5" fy="244.951" gradientTransform="matrix(1.1192 0 0 1.0308 -55.133 -7.542)" gradientUnits="userSpaceOnUse"/><radialGradient xlink:href="#c" id="d" cx="462.5" cy="-12.875" r="851.793" fx="462.5" fy="-12.875" gradientTransform="matrix(1 0 0 1.19447 0 -46.574)" gradientUnits="userSpaceOnUse"/><linearGradient id="c"><stop offset="0" stop-color="#b4b4b4" stop-opacity=".521"/><stop offset="1" stop-color="#b4b4b4" stop-opacity=".008"/></linearGradient><linearGradient id="b"><stop offset="0" stop-color="#868686"/><stop offset="1" stop-color="#868686" stop-opacity="0"/></linearGradient><linearGradient id="a"><stop offset="0" stop-color="#8d8d8d" stop-opacity=".436"/><stop offset="1" stop-color="#8d8d8d" stop-opacity="0"/></linearGradient></defs><rect width="925" height="2048" fill="#101010" ry=".02"/><ellipse cx="462.5" cy="239.498" fill="url(#d)" rx="1104.708" ry="1017.438" style="mix-blend-mode:overlay"/><path fill="url(#f)" d="M.014 0 .012.002H.01v.002H.008L.006.006.004.008V.01H.002v.002L0 .014v997.242a851.793 784.502 0 0 0 462.5 125.715A851.793 784.502 0 0 0 925 997.256V.014l-.002-.002V.01h-.002V.008l-.002-.002-.002-.002h-.002V.002h-.002L924.986 0z"/><path fill="url(#h)" d="M.014 0 .012.002H.01v.002H.008L.006.006.004.008V.01H.002v.002L0 .014v1012.711a953.332 878.02 0 0 0 462.5 110.246A953.332 878.02 0 0 0 925 1012.725V.014l-.002-.002V.01h-.002V.008l-.002-.002-.002-.002h-.002V.002h-.002L924.986 0z"/><path fill="#101010" d="M.014 0 .012.002H.01v.002H.008L.006.006.004.008V.01H.002v.002L0 .014v903.724a851.793 784.502 0 0 0 462.5 125.715A851.793 784.502 0 0 0 925 903.738V.014l-.002-.002V.01h-.002V.008l-.002-.002-.002-.002h-.002V.002h-.002L924.986 0z"/></svg>