<?xml version="1.0" encoding="UTF-8" standalone="no"?>
<svg
   xml:space="preserve"
   width="1000"
   height="500"
   version="1.1"
   id="svg7"
   sodipodi:docname="8bitdo-pce-controller-dark-mode.svg"
   inkscape:version="1.4.3 (0d15f75042, 2025-12-25)"
   xmlns:inkscape="http://www.inkscape.org/namespaces/inkscape"
   xmlns:sodipodi="http://sodipodi.sourceforge.net/DTD/sodipodi-0.dtd"
   xmlns="http://www.w3.org/2000/svg"
   xmlns:svg="http://www.w3.org/2000/svg"><defs
     id="defs7" /><sodipodi:namedview
     id="namedview7"
     pagecolor="#ffffff"
     bordercolor="#000000"
     borderopacity="0.25"
     inkscape:showpageshadow="2"
     inkscape:pageopacity="0.0"
     inkscape:pagecheckerboard="0"
     inkscape:deskcolor="#d1d1d1"
     inkscape:zoom="0.4801255"
     inkscape:cx="539.44229"
     inkscape:cy="448.84098"
     inkscape:window-width="1536"
     inkscape:window-height="888"
     inkscape:window-x="0"
     inkscape:window-y="0"
     inkscape:window-maximized="1"
     inkscape:current-layer="svg7" /><path
     d="M500 55.509c-37.339-.05-72.008.116-82.736.421-23.12.66-23.517.044-24.668 1.687-.737 1.052-.102 3.505-.102 3.505-67.203.934-162.867 6.922-206.565 11.863-64.9 7.339-88.843 19.626-99.76 51.192-6.3 18.22-6.926 32.332-6.53 147.596.308 89.373.369 92.32 2.041 99.633 13.197 57.688 62.99 69.829 86.67 72.312 3.81.4 152.913.75 331.65.782 178.737-.032 327.84-.383 331.65-.782 23.68-2.483 73.473-14.624 86.67-72.312 1.672-7.312 1.733-10.26 2.04-99.633.397-115.264-.228-129.377-6.53-147.596-10.916-31.566-34.86-43.853-99.759-51.192-43.698-4.94-139.362-10.929-206.565-11.863 0 0 .635-2.453-.102-3.505-1.151-1.643-1.548-1.028-24.668-1.687-10.728-.305-45.397-.47-82.736-.421"
     style="fill:#dfdfe7;fill-opacity:1;stroke-width:.627942"
     id="path1" /><path
     d="m 205.315,246.92 a 10.936,10.936 0 0 0 -10.963,10.965 V 287.3 a 3.86,3.86 0 0 1 -3.865,3.865 h -29.415 a 10.936,10.936 0 0 0 -10.965,10.962 v 28.618 a 10.936,10.936 0 0 0 10.965,10.962 h 29.415 a 3.86,3.86 0 0 1 3.865,3.864 v 29.416 a 10.936,10.936 0 0 0 10.963,10.964 h 28.621 a 10.936,10.936 0 0 0 10.96,-10.964 V 345.57 a 3.86,3.86 0 0 1 3.864,-3.863 h 29.42 a 10.936,10.936 0 0 0 10.96,-10.962 v -28.618 a 10.936,10.936 0 0 0 -10.96,-10.962 h -29.422 a 3.86,3.86 0 0 1 -3.865,-3.865 v -29.416 a 10.936,10.936 0 0 0 -10.957,-10.963 z"
     style="fill:#000000;fill-opacity:1;fill-rule:evenodd;stroke:none;stroke-width:4.64921;stroke-miterlimit:7;paint-order:stroke markers fill"
     id="path2" /><g
     style="fill:#000000;fill-opacity:1"
     transform="matrix(0.62794,0,0,0.62794,-84.671,-435.91)"
     id="g3"><rect
       width="98.872002"
       height="36.057999"
       x="801.289"
       y="1235.297"
       ry="18.030001"
       style="fill:#000000;fill-opacity:1;stroke-width:61.5801;stroke-linecap:round;stroke-linejoin:round"
       id="rect2" /><rect
       width="98.872002"
       height="36.057999"
       x="-1060.894"
       y="1235.297"
       ry="18.030001"
       style="fill:#000000;fill-opacity:1;stroke-width:61.5801;stroke-linecap:round;stroke-linejoin:round"
       transform="scale(-1,1)"
       id="rect3" /></g><g
     id="g13"
     style="fill:#000000;fill-opacity:1"><g
       style="fill:#000000;fill-opacity:1"
       transform="matrix(0.62794,0,0,0.62794,-84.671,-435.91)"
       id="g6"><circle
         cx="1239.1591"
         cy="1087.782"
         r="55.581001"
         style="font-variation-settings:normal;vector-effect:none;fill:#000000;fill-opacity:1;fill-rule:evenodd;stroke-width:111.125;stroke-linecap:butt;stroke-linejoin:miter;stroke-miterlimit:4;stroke-dasharray:none;stroke-dashoffset:0;stroke-opacity:1;-inkscape-stroke:none;stop-color:#000000"
         id="circle5" /><circle
         cx="1405.103"
         cy="1087.782"
         r="55.581001"
         style="font-variation-settings:normal;vector-effect:none;fill:#000000;fill-opacity:1;fill-rule:evenodd;stroke-width:111.125;stroke-linecap:butt;stroke-linejoin:miter;stroke-miterlimit:4;stroke-dasharray:none;stroke-dashoffset:0;stroke-opacity:1;-inkscape-stroke:none;stop-color:#000000"
         id="circle6" /></g><g
       style="fill:#000000;fill-opacity:1"
       transform="matrix(0.62794,0,0,-0.62794,-84.671,1034.4166)"
       id="g12"><circle
         cx="1239.1591"
         cy="1087.782"
         r="55.581001"
         style="font-variation-settings:normal;vector-effect:none;fill:#000000;fill-opacity:1;fill-rule:evenodd;stroke-width:111.125;stroke-linecap:butt;stroke-linejoin:miter;stroke-miterlimit:4;stroke-dasharray:none;stroke-dashoffset:0;stroke-opacity:1;-inkscape-stroke:none;stop-color:#000000"
         id="circle11" /><circle
         cx="1405.103"
         cy="1087.782"
         r="55.581001"
         style="font-variation-settings:normal;vector-effect:none;fill:#000000;fill-opacity:1;fill-rule:evenodd;stroke-width:111.125;stroke-linecap:butt;stroke-linejoin:miter;stroke-miterlimit:4;stroke-dasharray:none;stroke-dashoffset:0;stroke-opacity:1;-inkscape-stroke:none;stop-color:#000000"
         id="circle12" /></g></g></svg>
