<svg xmlns="http://www.w3.org/2000/svg" width="1080" height="1080"><path fill="#e29e67" d="M496.01 230.536c-.85.01-1.964.194-4 .873a9.6 9.6 0 0 0-4.285 2.752c-1.632 1.767-2.785 4.965-2.637 7.39.294 4.852 2.32 5.982 3.232 6.865 1.826 1.768 2.811 2.149 4.07 2.822 2.521 1.347 5.575 2.628 9.271 3.97 5.275 1.916 28.919 12.352 49.919 22.259 21.267 10.031 47.014 21.634 58.141 26.153 5.045 2.05 10.158 4.365 14.157 6.358s7.712 4.664 6.483 3.55c1.627 1.476 1.516 1.47.303 3.892-1.215 2.422-4.839 5.91-10.48 7.517-39.193 11.152-72.066 9.544-135.135-7.364-57.354-15.376-66.692-16.623-112.467-15.442-34.614.894-42.16 1.787-63.313 7.265-35.544 9.206-47.246 16.083-73.099 42.978-34.681 36.083-58.188 71.892-74.686 114.024-4.061 10.377-8.36 23.504-11.53 34.478-1.585 5.487-2.876 10.395-3.723 14.305-.422 1.953-.742 3.613-.926 5.298-.089.843-.17 1.657-.1 2.899.072 1.24-.855 3.317 3.207 7.179 2.262 2.156 2.797 1.942 3.328 2.116-.406.03-.805.05-1.525.203-.873.186-2.202-.163-5.111 2.744-2.179 2.18-2.08 2.922-2.37 3.627a18 18 0 0 0-.616 1.774c-.32 1.08-.574 2.16-.834 3.389a121 121 0 0 0-1.459 8.604l-1.457 10.739a9.8 9.8 0 0 0 9.433 10.81l-2.797.547a9.8 9.8 0 0 0-7.906 10.172l1.299 22.95c2.903 51.417 14.497 90.242 38.21 126.621 41.608 63.83 120.735 103.841 227.07 117.482 26.972 3.46 107.666 3.859 147.945 1.135 131.322-8.883 236.625-43.037 309.315-101.668 20.134-16.242 44.697-42.194 57.306-60.883 42.45-62.91 55.612-142.957 37.838-225.884C937.59 378.75 872.31 302.418 782.925 261.12c-9.684-4.475-26.05-10.534-40.865-15.565-7.407-2.513-14.351-4.738-19.822-6.31-2.734-.787-5.08-1.412-7.112-1.852a30 30 0 0 0-2.989-.517c-1.054-.125-1.662-.787-5.344.44a10.5 10.5 0 0 0-4.864 3.408c-1.498 1.906-2.173 4.447-2.178 6.283-.013 3.674 1.174 5.05 1.88 6.146 1.41 2.188 2.584 3.186 4 4.47 2.833 2.567 6.492 5.32 10.72 8.257 8.456 5.874 18.612 12.11 26.846 15.527 9.105 3.78 14.68 6.887 17.047 8.87s1.892 1.493 1.892 3.01c0 3.452.208 3.284-3.309 5.014-3.516 1.728-11.602 3.32-23.79 3.33-7.374.005-18.899-1.05-22.982-1.896-9.238-1.917-36.092-13.817-64.635-30.205-33.45-19.207-51.915-26.622-77.844-31.04-12.488-2.129-29.818-4.306-44.708-5.829-7.446-.76-14.251-1.357-19.578-1.687a130 130 0 0 0-6.883-.278c-.968-.007-1.549-.17-2.397-.16M362.328 490.082c-.037.148-.103.563-.132.66-.093.302-.289.03.132-.66m115.036 63.67c6.281 0 6.682.327 8.772 5.369 2.114 5.107.493 9.399-2.352 11.134-4.603 2.806-7.922 2.405-10.435.98-2.512-1.422-4.695-4.222-4.753-9.763-.032-3.037 4.403-7.72 8.768-7.72m-171.368.025c1.867.087 3.599.648 5.67 2.72 3.76 3.759 3.827 9.187.927 12.422-3.778 4.215-14.038 2.517-15.78-1.687-1.72-4.158-.88-6.894 1.076-9.44s5.309-4.144 8.106-4.015m85.492 7.617c.207 3.306.736 6.493 2.752 9.88 1.15 1.931 3.029 3.54 5.013 4.806h-.007c-4.122-.14-8.26-.142-11.784-.028-.866.028-1.486.05-2.202.062a9.8 9.8 0 0 0 5.385-7.072z"/><path fill="#f7e6d5" d="M595.02 229.207c-2.704-.014-4.332.005-5.472.093-.57.044-.627-.305-2.204.552-.394.214-1.087.58-1.589 1.71s-.166 2.752.292 3.442c.916 1.377 1.368 1.242 1.675 1.377.582.258 1.539.634 3.2 1.295s3.813 1.507 6.063 2.389c17.477 6.848 32.922 14.754 56.879 29.145 22.366 13.435 34.916 19.833 47.209 23.943 6.361 2.125 13.136 3.28 22.811 3.972 3.595.257 10.128.392 16.15.42 3.012.015 5.88.002 8.146-.044a96 96 0 0 0 2.921-.098c.802-.043 1.246-.032 2.086-.215.294-.065.62-.107 1.263-.45.321-.17.761-.427 1.224-1.03s.832-1.672.745-2.577c-.173-1.812-1.051-2.298-1.457-2.628s-.71-.491-1.034-.668c-1.3-.703-3.092-1.421-6.418-2.759-14.246-5.727-23.551-11.218-43.598-25.787-18.808-13.669-29.982-20.802-42.445-27.051l-6.84-3.431a3.6 3.6 0 0 0-1.5-.374l-27.143-.631c-16.038-.374-25.555-.568-30.964-.595M459.517 245.51c-30.283-.993-57.292 5.08-94.118 20.766-7.628 3.249-19.673 8.953-29.953 14.02-5.142 2.531-9.802 4.886-13.247 6.71-1.723.913-3.118 1.675-4.276 2.363-.579.345-1.056.625-1.788 1.167-.366.269-.757.48-1.675 1.505-.456.513-1.158 1.133-1.899 3.17-.74 2.037-.517 7.305 2.227 10.048 2.699 2.697 4.02 2.446 4.833 2.62.812.174 1.243.195 1.607.216.73.043 1.135.02 1.555 0a36 36 0 0 0 2.51-.222 121 121 0 0 0 6.356-.93c10.73-1.83 33.698-3.25 56.485-3.25 31.033 0 45.281 2.293 89.734 14.452 14.412 3.94 32.683 8.647 41.223 10.6 8.145 1.864 16.678 3.885 16.463 3.83 3.445.908 3.448.482 5.223.537a226 226 0 0 0 6.543.08c5.138.004 11.704-.081 18.533-.231 13.658-.296 27.862-.778 34.581-1.455 5.505-.556 11.623-1.684 16.71-2.906 2.548-.613 4.78-1.226 6.79-1.945 1.004-.36 1.916-.695 3.16-1.395.622-.351 1.34-.748 2.39-1.762 1.05-1.012 3.082-3.06 3.075-7.162v-.001c-.009-5.21-2.237-6.235-3.01-6.97s-1.197-.986-1.55-1.214c-.71-.458-1.11-.645-1.532-.852a39 39 0 0 0-2.626-1.149 144 144 0 0 0-7.106-2.613c-15.289-5.224-28.851-11.234-84.463-37.54-34.322-16.234-46.492-19.631-72.755-20.49"/><path fill="#4a280e" d="M419.164 860.88c-145.542-13.414-243.278-76.314-275.017-176.991-21.728-90.142-12.84-180.221 30.196-261.66 53.102-97.261 156.421-165.634 292.03-193.255 47.994-9.777 67.69-11.585 126.483-11.612 70.979-.036 98.728 4.005 153.206 22.295 24.735 8.303 65.315 27.399 84.608 39.809 39.294 25.278 73.929 59.906 96.252 96.236 51.185 83.292 58.203 196.974 17.516 283.683-39.577 84.338-123.894 145.155-247.367 178.42-37.282 10.044-88.022 18.082-141.528 22.424-35.898 2.91-108.156 3.26-136.38.659zm142.516-16.665c94.806-8.004 167.638-26.695 234.186-60.096 44.077-22.122 86.853-57.838 112.82-94.194 43.066-60.303 57.113-141.863 38.693-224.666-20.248-91.014-91.278-167.785-190.153-205.516-18.139-6.923-53.034-17.353-54.189-16.199-.95.951 18.92 16.814 28.775 22.97 3.92 2.448 12.256 6.321 18.52 8.605 15.155 5.526 21.56 11.016 21.56 18.477 0 7.113-5.34 12.444-15.142 15.114-10.407 2.838-37 2.39-49.624-.832-12.974-3.313-42.59-17.177-56.373-26.39-13.89-9.284-45.224-25.046-58.264-29.31-16.46-5.38-73.658-12.763-98.86-12.763-5.815 0-3.34 2.959 4.364 5.22 11.291 3.317 41.786 16.786 69.923 30.888 13.717 6.875 34.075 15.973 45.24 20.22 23.207 8.825 26.909 11.474 26.909 19.26 0 12.136-7.29 16.951-34.04 22.488-15.879 3.287-22.317 3.697-45.235 2.876-27.89-.998-41.168-3.51-80.692-15.25-9.812-2.914-28.138-7.52-40.724-10.232-20.481-4.415-26.34-4.924-55.84-4.85-38.24.097-58.278 2.897-89.073 12.453-22.74 7.058-25.73 9.035-49.763 32.918-41.533 41.274-70.473 90.59-86.399 147.237-9.93 30.6-12.951 64.926-11.095 106.108 4.874 108.08 61.076 179.735 169.082 215.574 30.48 10.113 73.758 18.64 108.222 21.319 23.558 1.833 109.09.94 137.172-1.43m93.527-258.466c-5.879-1.3-23.879-3.64-40-5.194-16.121-1.556-30.35-3.692-31.62-4.746-3.121-2.59-2.916-7.668.422-10.44 5.19-4.305 70.892 1.932 85.895 8.156 6.153 2.553 7.887 8.683 3.652 12.916-2.512 2.511-4.165 2.45-18.349-.692m-359.365-6.976c-14.383-8.091-10.083-30.819 6.417-33.915 17.864-3.351 29.002 19.799 15.433 32.079-4.686 4.24-15.903 5.182-21.85 1.836m288.233-33.967c-3.14-3.14-3.48-5.836-1.188-9.454 4.063-6.417 85.385-14.544 91.847-9.18 3.694 3.066 3.474 10.242-.376 12.233-1.714.888-15.143 2.067-29.84 2.623s-32.333 2.25-39.192 3.764c-15.686 3.463-17.802 3.463-21.25.018zm-149.322-60.778c-5.822-1.521-5.496-8.407 1.07-22.62 15.517-33.585 33.982-49.24 58-49.175 17.214.047 40.546 19.445 55.875 46.456 8.84 15.578 9.955 22.015 4.411 25.487-4.7 2.941-8-.05-16.444-14.893-13.86-24.367-32.576-41.034-46.081-41.034-6.307 0-16.92 4.489-22.311 9.438-5.906 5.42-14.988 19.822-19.887 31.535-4.038 9.656-8.383 16.23-10.457 15.827a105 105 0 0 1-4.176-1.021m178.41-163.378c9.256-2.684 12.297-4.126 10.72-5.086-.41-.247-7.556-2.72-15.885-5.496-8.328-2.773-33.981-14.135-57.006-25.246-52.3-25.24-57.47-27.19-78.775-29.733-38.109-4.546-76.665 5.011-132.204 32.774-9.867 4.93-18.272 9.276-18.682 9.653-2.029 1.876 1.64 2.086 8.7.5 12.489-2.805 61.488-4.754 79.197-3.149 21.362 1.937 39.538 5.628 68.724 13.954 40.695 11.612 96.831 22.955 135.21 11.83m140.025-27.754c-1.96-.825-8.866-3.652-15.349-6.28-7.186-2.914-21.09-11.715-35.629-22.551-13.113-9.773-29.569-20.601-36.566-24.059l-12.723-6.288-33.595-.733-33.595-.73 9.175 3.41c17.533 6.516 40 17.873 59.892 30.272 22.933 14.295 38.943 22.108 52.963 25.85 10.505 2.805 51.846 3.813 45.427 1.109"/><path fill="#f7e6d5" d="M388.96 442.533c-1.656-.071-3.373.517-4.736 1.962-2.152 2.289-2.43 4.991-2.501 25.09.07 20.1.349 22.802 2.5 25.09 1.364 1.446 3.08 2.032 4.738 1.963a6.5 6.5 0 0 0 4.373-1.963c2.133-2.225 2.63-6.143 2.607-24.887v-.405c.023-18.744-.474-22.663-2.607-24.887a6.5 6.5 0 0 0-4.373-1.963m22.818 0c-1.657-.071-3.374.517-4.735 1.962-2.154 2.289-2.432 4.991-2.503 25.09.07 20.1.349 22.802 2.503 25.09 1.36 1.446 3.078 2.032 4.735 1.963a6.5 6.5 0 0 0 4.373-1.963c2.133-2.225 2.63-6.143 2.607-24.887v-.405c.023-18.744-.474-22.663-2.607-24.887a6.5 6.5 0 0 0-4.373-1.963m-45.637 0c-1.657-.071-3.374.517-4.735 1.962-2.156 2.289-2.432 4.991-2.503 25.09.071 20.1.35 22.802 2.503 25.09 1.36 1.446 3.076 2.032 4.735 1.963a6.5 6.5 0 0 0 4.374-1.963c2.132-2.225 2.629-6.143 2.606-24.887v-.405c.023-18.744-.474-22.663-2.606-24.887a6.5 6.5 0 0 0-4.374-1.963"/><path fill="#4a280e" d="M391.21 538.7c-6.047 0-8.016 3.616-8.016 14.726 0 14.59-1.947 17.64-10.396 16.29-4.92-.788-7.322-.325-9.041 1.745-3.481 4.195-.99 11.173 4.737 13.265 6.833 2.494 13.07 2.355 18.053-.408 1.958-1.083 3.297-1.56 4.833-1.407 1.537-.154 2.877.324 4.833 1.407 4.985 2.763 11.223 2.904 18.055.408 5.726-2.092 8.218-9.068 4.735-13.263-1.717-2.072-4.118-2.535-9.039-1.746-8.45 1.349-10.396-1.703-10.396-16.291 0-11.11-1.969-14.726-8.017-14.726zm-259.782 47.043c5.88-1.3 23.879-3.64 40-5.195 16.122-1.555 30.35-3.69 31.62-4.745 3.123-2.59 2.917-7.67-.42-10.44-5.191-4.307-70.893 1.93-85.897 8.156-6.151 2.553-7.884 8.683-3.652 12.915 2.512 2.512 4.165 2.45 18.35-.69M202.56 544.8c3.143-3.143 3.481-5.836 1.188-9.456-4.061-6.415-85.385-14.544-91.846-9.18-3.695 3.068-3.474 10.243.376 12.233 1.715.887 15.142 2.067 29.84 2.624 14.696.556 32.333 2.25 39.191 3.763 15.688 3.463 17.802 3.465 21.251.018zm265.472 33.974c-14.386-8.091-10.085-30.82 6.415-33.915 17.864-3.351 29.002 19.799 15.434 32.078-4.685 4.24-15.903 5.183-21.85 1.837m-125.737-94.745c5.822-1.522 5.496-8.407-1.07-22.62-15.517-33.585-33.983-49.24-58-49.175-17.215.047-40.547 19.445-55.875 46.455-8.841 15.58-9.955 22.016-4.41 25.488 4.697 2.94 8-.05 16.442-14.893 13.86-24.367 32.578-41.034 46.081-41.034 6.307 0 16.922 4.489 22.313 9.438 5.906 5.419 14.987 19.822 19.886 31.535 4.04 9.656 8.382 16.23 10.458 15.827a105 105 0 0 0 4.175-1.021"/></svg>