<svg xmlns="http://www.w3.org/2000/svg" xml:space="preserve" width="1024" height="1024"><path fill="url(#b)" d="M510.05 54.862c-1.37-.18-2.618-.582-5.78.22-4.813 1.213-10.518 3.611-20.234 7.6a2270 2270 0 0 0-37 15.695c-29.24 12.652-66.302 29.077-102.874 45.53-36.572 16.451-72.637 32.926-99.902 45.697a1746 1746 0 0 0-33.31 15.936q-6.194 3.068-9.99 5.131a58 58 0 0 0-3.306 1.914c-.992.617-1.331-.185-4.192 3.667-6.212 8.359-5.074 16.422-3.637 30.868 1.437 14.46 4.96 35.47 11.232 66.999 12.551 63.053 36.158 167.942 76.323 342.311 11.625 50.476 19.683 83.733 25.745 105.295 3.028 10.778 5.532 18.616 7.913 24.51 2.38 5.899 3.73 10.082 9.262 14.045 1.23.882 13.948 10.603 31.374 24.083a25388 25388 0 0 1 64.482 50.084c24.277 18.912 46.865 35.783 63.847 47.831 8.49 6.022 15.548 10.832 20.904 14.182 2.676 1.675 4.885 2.976 6.965 4.012 1.04.515 2.002.97 3.452 1.42 1.455.449 3.514 2.759 9.809-.993 2.028-1.203 2.151-1.455 3.751-2.645 1.605-1.181 3.752-2.8 6.41-4.81 5.308-4.02 12.652-9.623 21.504-16.42 17.713-13.592 41.474-31.935 67.034-51.773l92.894-72.09a11.02 11.02 0 0 0 3.976-6.234l32.076-139.776c38.547-167.978 61.303-268.89 73.823-329.726 6.26-30.418 9.963-50.79 11.814-64.817s2.729-21.248-.264-29.033c-1.111-2.905-4.131-8.094-8.817-11.722s-10.964-7.08-22.029-12.494c-22.134-10.822-63.441-29.077-144.22-64.693-42.982-18.956-78.62-34.076-104.338-44.348-12.86-5.14-23.22-9.055-30.947-11.682a128 128 0 0 0-9.778-2.985 35 35 0 0 0-3.98-.793" style="fill:#000;stroke-width:4.40839"/><path d="M511.998 48.159c-2.993-.037-5.959.298-8.578 1.015-4.796 1.313-313.2 137.057-319.135 140.467-10.783 6.195-18.312 20.212-17.072 31.78 1.093 10.195 122.723 574.156 124.822 578.765 4.582 10.059 159.647 137.517 199.878 167.657 4.922 3.687 13.987 8.006 20.087 8 6.1 0 15.165-4.313 20.087-8 40.231-30.14 195.296-157.599 199.878-167.657 2.1-4.61 123.73-568.57 124.822-578.764 1.24-11.57-6.29-25.586-17.072-31.781-5.935-3.41-314.34-139.154-319.135-140.467-2.62-.717-5.585-1.052-8.578-1.015H512Zm-1.166 14.17q.582-.013 1.166 0h.004q.585-.013 1.166-.001c5.493.107 10.994 1.864 18.412 5.307 90.296 39.886 180.503 79.98 270.988 119.432 14.92 6.35 20.596 10.956 24.875 20.187 4.724 10.19-23.476 139.813-23.476 139.813l-95.86 419.127L512 918.537 315.893 766.194l-95.86-419.127s-28.2-129.623-23.476-139.813c4.279-9.231 9.954-13.837 24.875-20.187 90.485-39.45 180.692-79.546 270.988-119.432 7.418-3.443 12.919-5.2 18.412-5.307"/><path d="m511.756 750.119-20.102 16.975-9.677 84.242 30.154 19.95 30.154-19.95-9.677-84.242-20.102-16.975h-.014s-.127.09-.361.262l-.361-.262zm.371-597.404s0 .01-.01.01c-14.571 21.96-64.693 114.99-64.693 114.99l48.527 435.545s12 9.763 16.17 12.936v.01h.02v-.01c4.17-3.173 16.17-12.936 16.17-12.936l48.527-435.545s-50.122-93.03-64.697-114.99c0 0 0-.01-.01-.01zm-116.32 539.574-22.946 41.326 22.946 41.327 89.142-16.784c4.86-6.858 16.986-24.542 16.987-24.543-.001 0-12.126-17.686-16.987-24.544zm232.386 0 22.946 41.326-22.946 41.327-89.142-16.784c-4.86-6.858-16.986-24.542-16.986-24.543s12.126-17.686 16.986-24.544z" style="fill:#fff"/></svg>