<?xml version="1.0" encoding="UTF-8" standalone="no"?>
<svg
   xml:space="preserve"
   width="1000"
   height="500"
   version="1.1"
   id="svg20"
   sodipodi:docname="xbox-360-controller-dark-mode.svg"
   inkscape:version="1.4.3 (0d15f75042, 2025-12-25)"
   inkscape:export-filename="xbox-360-controller-light-mode.svg"
   inkscape:export-xdpi="96"
   inkscape:export-ydpi="96"
   xmlns:inkscape="http://www.inkscape.org/namespaces/inkscape"
   xmlns:sodipodi="http://sodipodi.sourceforge.net/DTD/sodipodi-0.dtd"
   xmlns="http://www.w3.org/2000/svg"
   xmlns:svg="http://www.w3.org/2000/svg"><defs
     id="defs20" /><sodipodi:namedview
     id="namedview20"
     pagecolor="#ffffff"
     bordercolor="#000000"
     borderopacity="0.25"
     inkscape:showpageshadow="2"
     inkscape:pageopacity="0.0"
     inkscape:pagecheckerboard="0"
     inkscape:deskcolor="#d1d1d1"
     inkscape:zoom="0.681"
     inkscape:cx="528.63436"
     inkscape:cy="222.46696"
     inkscape:window-width="1536"
     inkscape:window-height="888"
     inkscape:window-x="0"
     inkscape:window-y="0"
     inkscape:window-maximized="1"
     inkscape:current-layer="svg20" /><path
     d="M352.487 32.225c-11.78-.447-18.49.054-25.686 1.922-36.091 9.362-55.686 19.366-58.424 29.83-.864 3.3-3.16 7.904-5.104 10.23-60.412 72.3-165.82 546.88 58.197 343.4 34.3-31.157 39.613-35.523 59.305-48.718 35.127-21.686 78.742-22.5 119.226-22.829 40.483.33 84.098 1.143 119.225 22.83 19.692 13.194 25.004 17.56 59.305 48.717 224.016 203.48 118.61-271.1 58.197-343.4-1.943-2.326-4.24-6.93-5.104-10.23-2.738-10.464-22.333-20.468-58.424-29.83-7.197-1.867-13.905-2.37-25.686-1.922-15.585.593-16.036.71-20.098 5.24-2.285 2.547-5.923 5.057-8.082 5.577s-14.174 5.593-26.7 11.275c-27.257 12.367-31.571 13.257-92.633 13.255-61.063.001-65.377-.888-92.635-13.255-12.525-5.682-24.54-10.755-26.7-11.275-2.158-.52-5.796-3.03-8.081-5.578-4.062-4.53-4.514-4.646-20.098-5.239"
     style="fill:#dfdfe7;fill-opacity:1;fill-rule:evenodd;stroke:none;stroke-width:3.33003;stroke-linecap:round;stroke-miterlimit:7;stroke-opacity:1;paint-order:stroke markers fill"
     id="path1" /><g
     id="g8"
     style="fill:#000000"><path
       d="m 385.837,200.248 a 7.46,7.46 0 0 0 -7.48,7.481 V 227.8 a 2.637,2.637 0 0 1 -2.636,2.636 h -20.07 a 7.46,7.46 0 0 0 -7.48,7.48 v 19.525 a 7.46,7.46 0 0 0 7.48,7.48 h 20.07 a 2.637,2.637 0 0 1 2.636,2.636 v 20.07 a 7.46,7.46 0 0 0 7.48,7.48 h 19.527 a 7.46,7.46 0 0 0 7.478,-7.48 v -20.07 a 2.637,2.637 0 0 1 2.637,-2.637 h 20.073 a 7.46,7.46 0 0 0 7.477,-7.479 v -19.526 a 7.46,7.46 0 0 0 -7.478,-7.479 h -20.073 a 2.637,2.637 0 0 1 -2.637,-2.636 v -20.07 a 7.46,7.46 0 0 0 -7.477,-7.48 z"
       style="fill:#000000;fill-opacity:1;fill-rule:evenodd;stroke:none;stroke-width:3.17206;stroke-miterlimit:7;paint-order:stroke markers fill"
       id="path13" /><path
       d="m 395.6,189.888 c -31.888,0 -57.792,25.903 -57.792,57.79 0,31.888 25.904,57.79 57.791,57.79 31.888,0 57.791,-25.902 57.791,-57.79 0,-31.888 -25.903,-57.79 -57.79,-57.79 m 0,4.938 c 29.218,0 52.85,23.634 52.85,52.853 0,29.218 -23.632,52.85 -52.85,52.85 -29.22,0 -52.852,-23.632 -52.852,-52.85 0,-29.219 23.633,-52.853 52.851,-52.853"
       style="baseline-shift:baseline;display:inline;overflow:visible;vector-effect:none;fill:#000000;fill-opacity:1;stroke-width:1.31249;stop-color:#000000"
       id="path14" /><path
       d="m 500.003,111.578 c -14.402,0 -26.1,11.697 -26.1,26.098 0,14.401 11.698,26.1 26.1,26.1 14.4,0 26.095,-11.699 26.095,-26.1 0,-14.4 -11.695,-26.098 -26.096,-26.098"
       style="baseline-shift:baseline;display:inline;overflow:visible;vector-effect:none;fill:#000000;fill-opacity:1;stroke-width:1.08382;stop-color:#000000"
       id="path15" /><path
       d="m 553.344,122.54 c -8.348,0 -15.137,6.79 -15.137,15.137 0,8.347 6.789,15.135 15.137,15.135 8.348,0 15.137,-6.787 15.137,-15.135 0,-8.348 -6.79,-15.137 -15.137,-15.137 m -106.686,0 c 8.348,0 15.137,6.79 15.137,15.137 0,8.347 -6.79,15.135 -15.137,15.135 -8.347,0 -15.137,-6.787 -15.137,-15.135 0,-8.348 6.789,-15.137 15.137,-15.137"
       style="baseline-shift:baseline;display:inline;overflow:visible;vector-effect:none;fill:#000000;fill-opacity:1;stop-color:#000000"
       id="path16" /><g
       style="fill:#000000;fill-opacity:1"
       id="g18"><path
         d="M 704.621,563 C 680,563 660,583 660,607.621 c 0,24.621 20,44.621 44.62,44.621 24.622,0 44.622,-20 44.622,-44.62 0,-24.622 -20,-44.622 -44.621,-44.622"
         style="baseline-shift:baseline;display:inline;overflow:visible;vector-effect:none;fill:#000000;fill-opacity:1;stop-color:#000000"
         transform="matrix(1.07897,0,0,1.07897,-200.042,-407.925)"
         id="path18"
         sodipodi:nodetypes="csssc" /></g><g
       style="fill:#000000;fill-opacity:1"
       id="g20"><path
         d="M 704.621,563 C 680,563 660,583 660,607.621 c 0,24.621 20,44.621 44.62,44.621 24.622,0 44.622,-20 44.622,-44.62 0,-24.622 -20,-44.622 -44.621,-44.622"
         style="baseline-shift:baseline;display:inline;overflow:visible;vector-effect:none;fill:#000000;fill-opacity:1;stop-color:#000000"
         transform="matrix(1.07897,0,0,1.07897,-438.086,-517.926)"
         id="path20"
         sodipodi:nodetypes="csssc" /></g><g
       id="g5"
       style="fill:#000000;fill-opacity:1"><path
         style="baseline-shift:baseline;display:inline;overflow:visible;vector-effect:none;fill:#000000;fill-opacity:1;enable-background:accumulate;stop-color:#000000"
         d="m 675.95703,179.32617 c -13.14705,0 -23.83984,10.6928 -23.83984,23.83985 0,13.14705 10.69279,23.83984 23.83984,23.83984 13.14705,0 23.83986,-10.69279 23.83985,-23.83984 0,-13.14705 -10.6928,-23.83985 -23.83985,-23.83985 z"
         id="path5" /><path
         style="baseline-shift:baseline;display:inline;overflow:visible;vector-effect:none;fill:#000000;fill-opacity:1;enable-background:accumulate;stop-color:#000000"
         d="m 675.95703,83.970703 c -13.14705,0 -23.83984,10.692791 -23.83984,23.839847 0,13.14705 10.69279,23.83984 23.83984,23.83984 13.14705,0 23.83986,-10.69279 23.83985,-23.83984 0,-13.147056 -10.6928,-23.839847 -23.83985,-23.839847 z"
         id="path4" /></g><g
       id="g7"
       transform="rotate(90,675.95704,155.48828)"
       style="fill:#000000;fill-opacity:1"><path
         style="baseline-shift:baseline;display:inline;overflow:visible;vector-effect:none;fill:#000000;fill-opacity:1;enable-background:accumulate;stop-color:#000000"
         d="m 675.95703,179.32617 c -13.14705,0 -23.83984,10.6928 -23.83984,23.83985 0,13.14705 10.69279,23.83984 23.83984,23.83984 13.14705,0 23.83986,-10.69279 23.83985,-23.83984 0,-13.14705 -10.6928,-23.83985 -23.83985,-23.83985 z"
         id="path6" /><path
         style="baseline-shift:baseline;display:inline;overflow:visible;vector-effect:none;fill:#000000;fill-opacity:1;enable-background:accumulate;stop-color:#000000"
         d="m 675.95703,83.970703 c -13.14705,0 -23.83984,10.692791 -23.83984,23.839847 0,13.14705 10.69279,23.83984 23.83984,23.83984 13.14705,0 23.83986,-10.69279 23.83985,-23.83984 0,-13.147056 -10.6928,-23.839847 -23.83985,-23.839847 z"
         id="path7" /></g></g></svg>
