<svg xmlns="http://www.w3.org/2000/svg" xmlns:xlink="http://www.w3.org/1999/xlink" width="2000" height="3600"><defs><linearGradient id="a"><stop offset="0" style="stop-color:#27d183;stop-opacity:1"/><stop offset="1" style="stop-color:#25c77d;stop-opacity:1"/></linearGradient><linearGradient xlink:href="#a" id="b" x1="256.831" x2="227.033" y1="409.438" y2="580.43" gradientUnits="userSpaceOnUse"/></defs><path d="M546.23 338.642c-1.89 14.114-33.647 24.674-57.457 14.229-15.682-6.88-43.325-46.693-43.325-46.693l72.275-.316c.016 0 30.667 16.666 28.508 32.78" style="opacity:1;fill:#ffe65a;fill-opacity:1;fill-rule:evenodd;stroke-width:1.13715;stroke-linecap:round;stroke-linejoin:round;stroke-miterlimit:7;paint-order:stroke markers fill" transform="translate(12.096 850.128)scale(3.0271)"/><path d="M537.5 250.108c6.319-3.348 43.469-30.06 49.818-39.503 17.002-32.927-41.45-32.28-59.764-34.224-28.219-2.79-62.35-4.16-92.116.96-10.519 12.066-28.929 57.477-26.318 66.718s17.492 9.778 41.696 6.448c29.547-2.84 58.916-7.62 86.684-.4" style="opacity:1;fill:#ffe65a;fill-opacity:1;fill-rule:evenodd;stroke-width:1.13386;stroke-linecap:round;stroke-linejoin:round;stroke-miterlimit:7;paint-order:stroke markers fill" transform="translate(12.096 850.128)scale(3.0271)"/><path d="M86.12 165.378c-11.01-9.126-38.542-36.714-17.611-51.289 6.835-4.422 118.933-9.325 151.566 48.725 7.844 13.953 13.652 33.488 9.215 42.005s-19.115 6.016-42.136-2.169c-23.02-8.184-54.38-22.05-72.608-29.21-18.23-7.159-23.328-7.61-28.426-8.062" style="fill:#ffe65a;fill-opacity:1;fill-rule:evenodd;stroke-width:1.13386;stroke-linecap:round;stroke-linejoin:round;stroke-miterlimit:7;paint-order:stroke markers fill" transform="translate(12.096 850.128)scale(3.0271)"/><path d="M61.962 251.665c.034 4.303 8.835 17.06 35.057 18.654 5.273.32 12.037-.282 18.79-2.922 15.948-6.236 47.864-24.254 38.633-34.061-5.254-5.582-34.424-9.836-42.58-10.761-16.346-1.855-50.063 8.268-49.9 29.09" style="opacity:1;fill:#ffe65a;fill-opacity:1;fill-rule:evenodd;stroke-width:1.13715;stroke-linecap:round;stroke-linejoin:round;stroke-miterlimit:7;paint-order:stroke markers fill" transform="translate(12.096 850.128)scale(3.0271)"/><path d="M608.151 285.475c-44.952 20.017-91.108 24.036-139.932 25.263 2.401-29.531-53.562-86.817-53.562-86.817 33.684-15.392 78.164 7.596 110.476 17.962 46.942 14.61 92.325 30.626 83.018 43.592" style="opacity:1;fill:#ffc631;fill-opacity:1;fill-rule:evenodd;stroke-width:1.13386;stroke-linecap:round;stroke-linejoin:round;stroke-miterlimit:7;paint-order:stroke markers fill" transform="translate(12.096 850.128)scale(3.0271)"/><path d="M198.827 184.88c-42.579-14.751-101.101-22.445-145.467-22.72-5.28.48-8.48 2.08-9.6 5.333s-.16 8.16 4.427 15.094c21.473 32.459 80.716 61.408 106.264 50.749 12.69-5.778 32.64-19.557 42.88-28.286 10.242-8.73 10.776-12.41 9.816-14.757s-3.414-3.36-8.32-5.413" style="fill:#ffc631;fill-opacity:1;fill-rule:evenodd;stroke-width:1.13386;stroke-linecap:round;stroke-linejoin:round;stroke-miterlimit:7;paint-order:stroke markers fill" transform="translate(12.096 850.128)scale(3.0271)"/><path d="M227.033 580.43c-78.936-13.838-154.98-57.158-164.045-150.312-11.888-128.081 82.768-201.024 114.82-220.142 4.626-2.76 8.583-6.102 11.107-9.381 64.211-83.442 237.307-44.261 255.459 28.905 6.84 27.572-4.3 25.504 1.246 31.633 68.37 85.623 111.373 311.932-156.396 322.943-17.231.709-45.208-.668-62.19-3.645" style="fill:url(#b);fill-opacity:1" transform="translate(12.096 850.128)scale(3.0271)"/><path d="M343.5 274.906c-5.665 6.817-10.04 18.223-7.834 20.428 1.473 1.473 3.7.433 9.605-4.48 21.214-17.655 41.202-4.432 44.608.619 3.446 5.108 9.065 4.743 12.89-.84 10.55-15.396-30.393-50.473-59.269-15.727" style="fill:#252f3a;fill-opacity:1" transform="translate(12.096 850.128)scale(3.0271)"/><path d="M193.385 272.365c.938 6.586-.756 15.596-3.033 16.137-1.521.362-2.536-1.18-4.375-6.643-6.61-19.632-24.587-19.048-28.751-17.16-4.213 1.908-7.66-.537-7.908-5.611-.682-13.991 39.288-20.294 44.067 13.277" style="fill:#252f3a;fill-opacity:1;stroke-width:.750537" transform="translate(12.096 850.128)scale(3.0271)"/><path d="M213.951 181.184s-18.241-21.986-19.355-46.044c-.57-12.303.02-32.127 20.281-50.675 19.731-18.064 77.186-45.818 95.33-40.471 12.271 3.616 39.317 21.604 68.407 45.003 26.836 20.788 55.055 44.822 57.447 81.033.189 6.562-1.992 12.854-2.972 17.153-.98 4.3-1.961 7.165-4.677 10.446s-7.165 6.977-14.066 6.223-16.254-5.959-32.395-12.785-39.07-15.273-62.83-18.894c-23.758-3.62-48.346-2.413-67.005 1.243-14.859.186-38.165 7.768-38.165 7.768" style="opacity:1;fill:#ffc631;fill-opacity:1;fill-rule:evenodd;stroke-width:1.13386;stroke-linecap:round;stroke-linejoin:round;stroke-miterlimit:7;paint-order:stroke markers fill" transform="translate(12.096 850.128)scale(3.0271)"/><path d="M293.176 153.78c-40.79 1.477-80.183 15.523-104.262 46.814a27 27 0 0 1-1.76 2.056c15.557-7.832 164.562-72.667 251.846 49.295.825 1.266 4.72 6.903 5.51 7.723l.01.01c-2.622-4.54 6.091-5.035-.147-30.178-11.345-45.729-83.213-78.183-151.197-75.72" style="fill:#13a962;fill-opacity:1" transform="translate(12.096 850.128)scale(3.0271)"/><path d="M208.01 289.154c2.14 15.643 17.339 23.946 31.105 27.864 28.411 7.674 66.885-9.982 66.885-23.891-1.506-8.288-13.06-11.406-15.95-4.877-10.41 23.525-59.4 30.677-68.523-4.74-2.58-10.014-13.545-1.121-13.517 5.644" style="fill:#252f3a;fill-opacity:1" transform="translate(12.096 850.128)scale(3.0271)"/><path d="M374.691 206.993c-13.178-1.755-19.497 23.239 1.709 34.423 15.452 8.15 30.237-4.034 22.687-19.031-4.673-9.284-19.097-14.686-24.396-15.392" style="opacity:1;fill:#fdffff;fill-opacity:1" transform="translate(12.096 850.128)scale(3.0271)"/></svg>