<?xml version="1.0" encoding="UTF-8" standalone="no"?>
<!-- Created with Inkscape (http://www.inkscape.org/) -->

<svg
   version="1.1"
   id="svg1"
   width="1000"
   height="500"
   viewBox="0 0 1000 500"
   sodipodi:docname="playstation-controller.svg"
   inkscape:version="1.4.2 (ebf0e940d0, 2025-05-08)"
   xml:space="preserve"
   xmlns:inkscape="http://www.inkscape.org/namespaces/inkscape"
   xmlns:sodipodi="http://sodipodi.sourceforge.net/DTD/sodipodi-0.dtd"
   xmlns="http://www.w3.org/2000/svg"
   xmlns:svg="http://www.w3.org/2000/svg"><sodipodi:namedview
     id="namedview1"
     pagecolor="#ffffff"
     bordercolor="#000000"
     borderopacity="0.25"
     inkscape:showpageshadow="2"
     inkscape:pageopacity="0.0"
     inkscape:pagecheckerboard="0"
     inkscape:deskcolor="#d1d1d1"
     inkscape:zoom="0.70710678"
     inkscape:cx="562.857"
     inkscape:cy="402.34376"
     inkscape:window-width="1536"
     inkscape:window-height="888"
     inkscape:window-x="0"
     inkscape:window-y="0"
     inkscape:window-maximized="1"
     inkscape:current-layer="svg1" /><defs
     id="defs1"><inkscape:path-effect
       effect="slice"
       start_point="430.52635,13.254362"
       end_point="430.52635,487.59087"
       center_point="430.52635,250.42262"
       id="path-effect2"
       is_visible="true"
       lpeversion="1.2"
       lpesatellites="#path3"
       allow_transforms="true" /></defs><g
     id="g2"><path
       id="path2"
       style="fill:#000000;stroke-width:12.1949;stroke-linecap:round;stroke-linejoin:round"
       d="m 305.59305,32.096625 c -9.26656,0.185859 -18.48393,1.40275 -27.50169,3.646791 -9.33261,2.322392 -11.96872,4.456699 -11.96872,9.689479 0,2.933654 -0.41689,3.759314 -2.34027,4.635659 -1.28723,0.586503 -3.06387,1.06604 -3.94829,1.06604 -2.16716,0 -8.00139,6.118794 -9.6823,10.154301 -1.92824,4.629299 -6.90946,35.711604 -7.79609,37.282689 -0.32073,0.568333 -3.68448,3.496976 -7.47484,6.507506 -19.78131,15.71148 -34.24491,37.84643 -40.40185,61.83392 -0.97288,3.79037 -11.36762,52.78944 -23.09933,108.88684 -5.07588,40.40319 -28.55294,97.70261 -19.2964,132.31819 8.47694,31.70015 34.60354,54.8785 66.71724,59.18856 24.61618,3.30379 51.76395,-6.75924 68.36655,-25.34268 4.3473,-4.86598 9.58104,-12.77998 77.03486,-115.53613 21.10583,-32.15169 21.53387,-32.52555 38.05799,-33.22492 64.17812,-3.10259 144.93503,-2.44353 195.48017,0 16.52413,0.69937 16.95217,1.07323 38.05799,33.22492 67.45382,102.75615 72.68757,110.67015 77.03486,115.53613 16.6026,18.58344 43.75037,28.64647 68.36655,25.34268 32.1137,-4.31006 58.24031,-27.48841 66.71724,-59.18856 9.25655,-34.61558 -14.22051,-91.915 -19.2964,-132.31819 -11.73171,-56.0974 -22.12644,-105.09647 -23.09933,-108.88684 -6.15694,-23.98749 -20.62053,-46.12244 -40.40185,-61.83392 -3.79036,-3.01053 -7.1541,-5.939173 -7.47483,-6.507506 -0.88663,-1.571085 -5.86786,-32.65339 -7.7961,-37.282689 -1.68091,-4.035507 -7.51514,-10.154301 -9.6823,-10.154301 -0.88442,0 -2.66106,-0.479537 -3.94829,-1.06604 -1.92338,-0.876345 -2.34027,-1.702005 -2.34027,-4.635659 0,-5.23278 -2.63611,-7.367087 -11.96872,-9.689479 -9.01775,-2.244041 -18.23513,-3.460932 -27.50169,-3.646791 -9.26655,-0.185859 -18.58228,0.659311 -27.79959,2.537678 -13.61797,2.775166 -15.92413,4.271194 -17.08716,11.083946 -0.63435,3.715908 -0.9339,4.042321 -4.70026,5.132785 -8.83597,2.558251 -11.12458,7.049144 -15.1489,29.732469 l -3.1712,17.873221 -7.02258,5.945776 H 380.52274 l -7.02258,-5.945776 -3.1712,-17.873221 c -4.02432,-22.683325 -6.31293,-27.174218 -15.1489,-29.732469 -3.76636,-1.090464 -4.06591,-1.416877 -4.70026,-5.132785 -1.16303,-6.812752 -3.46919,-8.30878 -17.08716,-11.083946 -9.2173,-1.878367 -18.53304,-2.723537 -27.79959,-2.537678 z"
       sodipodi:nodetypes="ssssssssscssssccsssscssssssssssssccccccssss" /><g
       id="g1"><path
         d="m 691.09105,115.16139 c -14.04601,0 -25.46917,11.42316 -25.46917,25.46917 0,14.046 11.42316,25.46698 25.46917,25.46698 14.04601,0 25.46699,-11.41988 25.46699,-25.46698 0,-14.0471 -11.42098,-25.46808 -25.46699,-25.46808 m -55.23593,54.79188 c -14.04601,0 -25.46917,11.42207 -25.46917,25.46807 0,14.04601 11.42316,25.46917 25.46917,25.46917 14.04601,0 25.46698,-11.42316 25.46698,-25.46917 0,-14.046 -11.42097,-25.46916 -25.46698,-25.46916 m 112.25352,0 c -14.0471,0 -25.46917,11.42206 -25.46917,25.46807 0,14.04602 11.42316,25.46918 25.46917,25.46918 14.04602,0 25.46481,-11.42316 25.46481,-25.46918 0,-14.04601 -11.41879,-25.46916 -25.46481,-25.46916 m -54.79188,57.38854 c -14.04491,0 -25.46807,11.42316 -25.46807,25.47026 0,14.0471 11.42316,25.46698 25.46916,25.46698 14.04601,0 25.46699,-11.42097 25.46699,-25.46698 0,-14.04601 -11.42098,-25.46917 -25.46699,-25.46917"
         style="baseline-shift:baseline;display:inline;overflow:visible;vector-effect:none;fill:#dfdfe7;fill-opacity:1;stroke-width:1.09104;stop-color:#000000"
         id="path7-0" /><path
         d="m 526.07779,225.49953 c -2.98727,0.0191 -5.59443,2.82402 -5.59443,5.97334 v 15.33673 a 5.9185405,5.9185405 0 0 0 5.95786,5.91615 c 0.35271,0.006 0.70541,-0.0428 1.04263,-0.14894 l 29.24118,-8.77355 a 5.9697782,5.9697782 0 0 0 5.25485,-5.91853 3.681959,3.681959 0 0 0 -2.72394,-3.55328 l -31.87933,-8.66273 a 4.76629,4.76629 0 0 0 -1.29882,-0.16919"
         style="fill:#dfdfe7;fill-opacity:1;fill-rule:evenodd;stroke:none;stroke-width:0.651504;stroke-linecap:round;stroke-miterlimit:7;paint-order:stroke markers fill"
         id="path6-1" /><path
         d="m 444.58721,226.98685 a 5.9504958,5.9504958 0 0 0 -5.94547,5.94748 v 12.34288 a 5.9354312,5.9354312 0 0 0 5.94547,5.96154 h 25.92106 a 5.9504958,5.9504958 0 0 0 5.94246,-5.96254 v -12.34088 a 5.9504958,5.9504958 0 0 0 -5.94246,-5.94748 z"
         style="fill:#dfdfe7;fill-opacity:1;fill-rule:evenodd;stroke-width:0.514855;stroke-linecap:round;stroke-miterlimit:7;paint-order:stroke markers fill"
         id="path4-2" /><path
         d="m 296.3484,137.88489 c -5.02186,0.006 -9.09007,4.14524 -9.00742,9.16711 l 0.34729,20.42362 a 9.0118958,9.0118958 0 0 0 2.63768,6.21788 l 11.91982,11.9187 c 3.51096,3.50649 9.2319,3.50649 12.74285,0 l 11.53791,-11.53343 a 9.0118958,9.0118958 0 0 0 2.64661,-6.37087 v -20.80553 c 0,-4.96715 -4.05032,-9.01637 -9.01747,-9.01637 z m -39.12525,39.84554 c -4.96492,0 -9.01301,4.04585 -9.01636,9.01076 v 22.74639 l -0.002,1.05866 c -9.2e-4,5.02857 4.14636,9.10346 9.17381,9.01635 l 20.42363,-0.34617 a 9.023063,9.023063 0 0 0 6.21787,-2.63881 l 11.9187,-11.91982 c 3.50648,-3.51095 3.50648,-9.23189 0,-12.74284 l -11.5379,-11.54014 h -0.002 a 9.023063,9.023063 0 0 0 -6.37086,-2.64438 z m 101.70041,0 -20.43253,0.34841 a 9.0118958,9.0118958 0 0 0 -6.21453,2.63769 l -11.91982,11.92093 h -0.002 c -3.50648,3.51207 -3.50648,9.23189 0,12.74397 h 0.002 l 11.53567,11.5379 a 9.0118958,9.0118958 0 0 0 6.37086,2.64661 h 20.80329 c 4.96716,0 9.01637,-4.05033 9.01637,-9.01748 v -22.74749 h 0.002 v -1.06088 c -0.004,-5.02188 -4.14078,-9.09007 -9.16154,-9.00966 m -51.03391,31.1921 a 8.9895615,8.9895615 0 0 0 -6.37309,2.62875 l -11.54014,11.5379 a 9.023063,9.023063 0 0 0 -2.64438,6.3731 v 20.80441 c 0.004,4.96493 4.05256,9.01078 9.01635,9.01078 h 23.80838 c 5.02076,-0.004 9.09007,-4.14078 9.00744,-9.16153 v -0.002 l -0.3473,-20.42474 a 9.0118958,9.0118958 0 0 0 -2.63768,-6.21675 l -11.91983,-11.92094 a 8.9895615,8.9895615 0 0 0 -6.37087,-2.62875"
         style="baseline-shift:baseline;display:inline;overflow:visible;vector-effect:none;fill:#dfdfe7;fill-opacity:1;stroke-width:1.06077;stop-color:#000000"
         id="path3-5" /></g></g></svg>
