<?xml version="1.0" encoding="UTF-8" standalone="no"?>
<svg
   xml:space="preserve"
   width="8102.667"
   height="1920"
   version="1.1"
   id="svg45"
   xmlns:xlink="http://www.w3.org/1999/xlink"
   xmlns="http://www.w3.org/2000/svg"
   xmlns:svg="http://www.w3.org/2000/svg"><defs
     id="defs34"><linearGradient
       id="linearGradient76"><stop
         offset="0"
         style="stop-color:#e50000;stop-opacity:1;"
         id="stop65" /><stop
         offset="0.16489558"
         style="stop-color:#e50000;stop-opacity:1;"
         id="stop66" /><stop
         offset="0.16706802"
         style="stop-color:#ff8d00;stop-opacity:1;"
         id="stop67" /><stop
         offset="0.33156228"
         style="stop-color:#ff8d00;stop-opacity:1;"
         id="stop68" /><stop
         offset="0.33156228"
         style="stop-color:#ffee00;stop-opacity:1;"
         id="stop69" /><stop
         offset="0.49822897"
         style="stop-color:#ffee00;stop-opacity:1;"
         id="stop70" /><stop
         offset="0.49822897"
         style="stop-color:#028121;stop-opacity:1;"
         id="stop71" /><stop
         offset="0.66489565"
         style="stop-color:#028121;stop-opacity:1;"
         id="stop72" /><stop
         offset="0.66489565"
         style="stop-color:#004cff;stop-opacity:1;"
         id="stop73" /><stop
         offset="0.83156228"
         style="stop-color:#004cff;stop-opacity:1;"
         id="stop74" /><stop
         offset="0.83156228"
         style="stop-color:#770088;stop-opacity:1;"
         id="stop75" /><stop
         offset="0.99999964"
         style="stop-color:#770088;stop-opacity:1;"
         id="stop80" /><stop
         offset="1"
         style="stop-color:#770088;stop-opacity:1;"
         id="stop76" /></linearGradient><linearGradient
       id="linearGradient55"><stop
         offset="0"
         stop-color="#5bcefa"
         id="stop45"
         style="stop-color:#770088;stop-opacity:1;" /><stop
         offset="0.169"
         stop-color="#5bcefa"
         id="stop46"
         style="stop-color:#770088;stop-opacity:1;" /><stop
         offset="0.169"
         stop-color="#f5a9b8"
         id="stop47"
         style="stop-color:#004cff;stop-opacity:1;" /><stop
         offset="0.32383379"
         stop-color="#f5a9b8"
         id="stop48"
         style="stop-color:#004cff;stop-opacity:1;" /><stop
         offset="0.32383379"
         stop-color="#e5e5e5"
         id="stop49"
         style="stop-color:#028121;stop-opacity:1;" /><stop
         offset="0.48275062"
         stop-color="#e5e5e5"
         id="stop50"
         style="stop-color:#028121;stop-opacity:1;" /><stop
         offset="0.48275062"
         stop-color="#f5a9b8"
         id="stop51"
         style="stop-color:#ffee00;stop-opacity:1;" /><stop
         offset="0.63930285"
         stop-color="#f5a9b8"
         id="stop52"
         style="stop-color:#ffee00;stop-opacity:1;" /><stop
         offset="0.63930285"
         stop-color="#5bcefa"
         id="stop53"
         style="stop-color:#ff8d00;stop-opacity:1;" /><stop
         offset="0.7975179"
         stop-color="#5bcefa"
         id="stop54"
         style="stop-color:#ff8d00;stop-opacity:1;" /><stop
         offset="0.7975179"
         stop-color="#5bcefa"
         id="stop56"
         style="stop-color:#e50000;stop-opacity:1;" /><stop
         offset="1"
         stop-color="#5bcefa"
         id="stop55"
         style="stop-color:#e50000;stop-opacity:1;" /></linearGradient><linearGradient
       id="d"><stop
         offset="0"
         stop-color="#fff"
         id="stop33" /><stop
         offset="1"
         stop-color="#cecece"
         id="stop34" /></linearGradient><linearGradient
       xlink:href="#linearGradient55"
       id="j"
       x1="4046.5349"
       x2="4046.5349"
       y1="1641.5649"
       y2="678.78101"
       gradientUnits="userSpaceOnUse"
       gradientTransform="translate(8e-4,4.95e-4)" /><radialGradient
       xlink:href="#d"
       id="g"
       cx="0"
       cy="53.033001"
       r="43"
       fx="0"
       fy="53.033001"
       gradientTransform="matrix(5.5153,3.4012,-5.51317,8.88562,1040.7,489.518)"
       gradientUnits="userSpaceOnUse" /><linearGradient
       xlink:href="#linearGradient76"
       id="linearGradient65"
       gradientUnits="userSpaceOnUse"
       gradientTransform="rotate(90,2232.7853,1591.2287)"
       x1="975.16998"
       y1="960.74902"
       x2="2233.8999"
       y2="960.74902" /><linearGradient
       xlink:href="#linearGradient76"
       id="linearGradient2"
       gradientUnits="userSpaceOnUse"
       gradientTransform="rotate(90,2232.7853,1591.2287)"
       x1="975.16998"
       y1="960.74902"
       x2="2233.8999"
       y2="960.74902" /><linearGradient
       xlink:href="#linearGradient76"
       id="linearGradient3"
       gradientUnits="userSpaceOnUse"
       gradientTransform="rotate(90,2232.7853,1591.2287)"
       x1="975.16998"
       y1="960.74902"
       x2="2233.8999"
       y2="960.74902" /></defs><path
     style="fill:url(#linearGradient2);stroke-width:4.89082;stroke-linecap:round"
     d="M 1172.6895,363.22461 148.95508,1383.8242 323.94336,1558.2754 1347.6777,537.67578 Z"
     id="path91" /><path
     id="path56"
     style="line-height:0.8;-inkscape-font-specification:'Comfortaa Bold';fill:url(#j)"
     d="m 1631.3867,435.74219 c -33.447,0 -64.5611,13.37465 -88.7851,37.59765 -23.391,23.392 -36.0547,54.0851 -36.0547,87.2461 0,33.161 12.5426,64.04933 35.6386,88.36133 l 0.8438,0.83789 c 24.312,23.097 55.1964,35.64062 88.3574,35.64062 33.161,0 63.86,-12.66564 87.25,-36.05664 24.224,-24.224 37.5918,-55.3352 37.5918,-88.7832 0,-33.239 -13.3933,-63.95446 -37.6133,-87.18946 -23.24,-24.245 -53.9715,-37.65429 -87.2285,-37.65429 z m 3886.836,0 c -33.447,0 -64.5612,13.37465 -88.7852,37.59765 -23.391,23.392 -36.0547,54.0851 -36.0547,87.2461 0,33.161 12.5427,64.04933 35.6387,88.36133 l 0.8437,0.83789 c 24.312,23.097 55.1965,35.64062 88.3575,35.64062 33.161,0 63.86,-12.66564 87.25,-36.05664 24.224,-24.224 37.5918,-55.3352 37.5918,-88.7832 0,-33.239 -13.3933,-63.95446 -37.6133,-87.18946 -23.24,-24.245 -53.9715,-37.65429 -87.2285,-37.65429 z m -3155.1582,308.5039 c -62.072,0 -119.894,14.66572 -172.045,43.88672 -19.596,10.98 -30.8587,17.28727 -47.5957,31.32227 -1.603,-9.39 -28.6801,-66.4082 -99.9121,-66.4082 -27.445,0 -52.3532,8.02382 -69.8672,25.54882 -17.514,17.525 -25.5332,42.44916 -25.5332,69.91016 v 655.59964 c 0,28.279 7.8182,53.65 25.5332,71.375 l 0.6367,0.6133 c 17.6872,16.3358 42.0925,23.4648 69.2305,23.4648 28.098,0 62.3721,-7.7983 79.2871,-25.9063 17.288,-17.507 25.2481,-42.2568 25.2481,-69.5468 v -428.2657 c 0,-40.257 11.5353,-63.3839 35.8613,-88.62886 25.83,-25.786 54.3604,-40.698 100.9414,-50.75 46.22,-9.975 99.2789,-9.25272 159.5059,2.98828 14.887,3.37 29.5402,4.09483 43.5332,1.54883 14.288,-2.6 28.4985,-9.98908 39.3105,-19.45508 l 0.1309,-0.11328 c 12.573,-11.111 20.6161,-26.57763 24.3691,-43.64063 4.418,-17.412 0.7762,-46.4874 -7.1328,-62.3164 -7.903,-15.814 -22.0314,-27.46578 -38.8164,-38.17578 -34.184,-23.45002 -81.7775,-33.05079 -142.6855,-33.05079 z m 4826.9023,2.87305 c -61.084,0 -117.0823,14.78391 -165.8223,44.50391 -6.958,4.243 -13.5356,8.84922 -19.9746,13.57422 -4.038,-7.521 -9.0157,-14.61513 -15.2597,-20.86915 -19.07,-19.10298 -45.4522,-28.57031 -73.4532,-28.57031 -27.3,0 -53.1601,9.56591 -72.7461,27.87891 l -0.1015,0.0996 -0.5391,0.52344 -0.07,0.0684 c -19.07,19.103 -28.5078,45.5215 -28.5078,73.5625 v 640.69724 c 0,27.34 9.5452,53.2276 27.8242,72.8476 l 0.1543,0.1602 1.0547,1.0625 0.1855,0.1797 c 19.586,18.313 45.4451,27.8809 72.7461,27.8809 28,0 54.3842,-9.4674 73.4532,-28.5704 l 0.096,-0.098 0.5175,-0.5391 0.072,-0.076 c 18.279,-19.62 27.8301,-45.5066 27.8301,-72.8476 v -406.0156 c 0,-48.013 13.5037,-83.542 41.043,-112.75195 27.649,-29.327 59.4369,-42.82812 102.7519,-42.82812 42.07,0 71.8126,11.84379 96.1426,36.21679 l 0.016,0.0176 0.252,0.25 0.066,0.0645 c 22.504,21.816 35.8242,57.49038 35.8242,113.27538 v 411.7715 c 0,27.341 9.5511,53.2296 27.8301,72.8496 l 0.1582,0.1641 1.0547,1.0605 0.1835,0.1758 c 19.586,18.313 45.4432,27.8828 72.7442,27.8828 28.001,0 54.3841,-9.4683 73.4531,-28.5703 l 0.096,-0.1 0.5176,-0.5371 0.072,-0.076 c 18.28,-19.62 27.8242,-45.5096 27.8242,-72.8496 v -406.0137 c 0,-48.092 13.1946,-83.7932 39.7676,-112.90818 27.614,-29.212 59.3637,-42.67383 102.5957,-42.67383 42.072,0 71.8125,11.84379 96.1425,36.21679 l 0.25,0.25196 0.082,0.0801 c 22.504,21.817 35.8261,57.49036 35.8261,113.27536 v 411.7715 c 0,27.341 9.5511,53.2296 27.8301,72.8496 l 0.1543,0.1602 1.0567,1.0625 0.1855,0.1796 c 19.586,18.313 45.4412,27.8809 72.7422,27.8809 28,0 54.387,-9.4673 73.457,-28.5703 l 0.094,-0.098 0.5175,-0.539 0.072,-0.076 c 18.279,-19.62 27.8242,-45.5096 27.8242,-72.8496 V 1086.816 c 0,-69.577 -12.5849,-130.43029 -39.0449,-181.44529 -25.197,-51.363 -61.9983,-91.68981 -109.1133,-118.50781 -46.794,-26.634 -100.5081,-39.74219 -159.3281,-39.74219 -66.407,0 -127.1395,14.50138 -180.5195,43.85938 l -0.012,0.004 -0.2032,0.10937 c -26.029,14.601 -49.1499,32.47289 -69.6289,52.96289 -19.625,-22.942 -42.6092,-42.22436 -68.9082,-57.19336 -46.793,-26.633 -100.5073,-39.74219 -159.3261,-39.74219 z m -2346.6152,0.38672 c -59.6603,1.5e-4 -114.0243,6.81037 -169.1016,34.29297 -9.1796,4.58043 -18.3798,9.73421 -27.627,15.52734 -9.2467,5.79297 -18.5421,12.22546 -27.9121,19.35938 -3.485,-9.35907 -8.0209,-17.5682 -13.3769,-24.68946 -2.6783,-3.56104 -5.5621,-6.85031 -8.6211,-9.875 -3.0582,-3.02408 -6.2913,-5.78367 -9.6719,-8.28711 -4e-4,-3.2e-4 0,3.3e-4 0,0 -3.3811,-2.50367 -6.9074,-4.75161 -10.5528,-6.75 -3.6459,-1.99864 -7.4095,-3.74717 -11.2617,-5.25586 -3.8511,-1.50834 -7.7899,-2.77639 -11.7891,-3.81054 -6e-4,-1.6e-4 0,1.6e-4 0,0 -3.9998,-1.03424 -8.0586,-1.83478 -12.1484,-2.41016 -4.0898,-0.57533 -8.2084,-0.92469 -12.3301,-1.05664 -7e-4,-2e-5 0,2e-5 0,0 -8.2427,-0.26395 -16.4919,0.34328 -24.5136,1.75977 -4.0119,0.70841 -7.9666,1.6191 -11.836,2.72461 -15.4744,4.42116 -29.5759,11.95614 -40.4473,22.10937 -3e-4,3.4e-4 0,-3.4e-4 0,0 l -0.543,0.53125 v 0 c -2.2334,2.235 -4.3737,4.58835 -6.4102,7.04688 -4.0729,4.91705 -7.7288,10.25591 -10.873,15.92382 -7.861,14.16985 -12.5254,30.38836 -12.5254,47.16211 v 650.75781 c 0,26.068 9.064,50.4831 26.332,68.9981 l 1.0684,1.0761 c 3e-4,4e-4 0,-3e-4 0,0 2.3125,2.1596 4.7628,4.1831 7.3321,6.0684 7.7091,5.6573 16.4842,10.0808 25.791,13.291 3.1021,1.07 6.2627,2.006 9.4629,2.8066 6e-4,2e-4 0,-10e-5 0,0 3.1996,0.8004 6.4373,1.4657 9.6953,1.9981 7e-4,10e-5 0,-10e-5 0,0 3.258,0.5323 6.5358,0.9317 9.8125,1.1973 3.278,0.2657 6.5555,0.3984 9.8125,0.3984 13.4096,-2e-4 28.8238,-2.0432 43.1191,-6.3203 14.2956,-4.2774 27.4728,-10.789 36.4063,-19.7285 l 0.5215,-0.5469 c 2.1586,-2.3143 4.1894,-4.7206 6.0898,-7.2109 3.8009,-4.9808 7.0819,-10.2973 9.8301,-15.8829 1.3743,-2.7933 2.6146,-5.6525 3.7207,-8.5722 4.4232,-11.676 6.6894,-24.2968 6.6894,-37.3301 v -411.4688 c 0,-3.1025 0.1518,-6.4127 0.4746,-9.8925 2.5829,-27.8389 16.0392,-66.5224 49.0176,-96.3555 20.6115,-18.64536 48.8486,-33.83469 86.8242,-40.75782 15.19,-2.76917 31.9397,-4.21645 50.3809,-4.0332 9.6905,-0.0185 20.0292,0.40862 30.7031,1.51172 7e-4,7e-5 0,-7e-5 0,0 10.6733,1.10312 21.6813,2.88258 32.7109,5.57031 5.5158,1.34407 11.0362,2.91497 16.5235,4.74219 5.4866,1.82699 10.9385,3.90941 16.3183,6.27734 2.6744,1.17712 5.261,2.64919 7.8945,3.97071 2.6641,1.33689 5.374,2.52559 7.9864,4.01757 5.195,2.96703 10.2776,6.24721 15.209,9.8711 4.9309,3.62351 9.7099,7.58959 14.2988,11.92773 2.3789,2.24895 4.5493,4.88702 6.8203,7.33985 2.1097,2.27858 4.3284,4.35712 6.3359,6.8184 2.964,3.6338 5.6556,7.7279 8.3731,11.7773 1.1042,1.6455 2.3421,3.0686 3.4023,4.7852 3.6703,5.9418 7.0711,12.3122 10.1641,19.1425 3.0925,6.8295 5.8755,14.1169 8.3125,21.8926 7.3109,23.327 11.4961,51.0425 11.4961,83.9277 v 358.9395 c 0,3.1166 0.1486,6.2055 0.4062,9.2676 0.012,0.1394 0.01,0.2826 0.018,0.4219 0.038,0.4261 0.1255,0.8387 0.168,1.2636 0.5229,5.2309 1.4456,10.3546 2.7129,15.3594 0.1751,0.6915 0.2854,1.4054 0.4746,2.0918 0.8347,3.0295 1.8057,6.008 2.9121,8.9277 2.2122,5.8383 4.9641,11.4404 8.2422,16.7403 3.278,5.2999 7.0814,10.297 11.3984,14.9257 l 1.0703,1.0762 c 4e-4,4e-4 0,-3e-4 0,0 1.156,1.0797 2.3852,2.1256 3.6836,3.1348 4e-4,3e-4 0,-3e-4 0,0 1.2985,1.0092 2.6641,1.9827 4.0899,2.9219 2.853,1.8794 5.9443,3.6193 9.2168,5.2207 19.6292,9.6058 45.7203,14.2382 65.2578,14.2382 16.2812,0 31.8811,-3.5886 45.6094,-10.5976 2.7461,-1.4022 5.4191,-2.9404 8.0058,-4.6152 5.1727,-3.349 10.0072,-7.2387 14.4277,-11.6622 4.5958,-4.5987 8.6618,-9.5947 12.1778,-14.914 3e-4,-5e-4 -3e-4,0 0,0 1.7577,-2.6591 3.3782,-5.3992 4.8574,-8.2109 3e-4,-5e-4 -3e-4,0 0,0 1.4791,-2.8117 2.8188,-5.6946 4.0137,-8.6406 2e-4,-6e-4 -3e-4,0 0,0 2.3897,-5.8927 4.2058,-12.0359 5.4238,-18.3555 1.2181,-6.3202 1.8379,-12.8175 1.8379,-19.418 V 1143.043 c 0,-20.874 -1.0065,-41.0288 -3.0371,-60.4492 -0.3326,-3.1808 -1.1164,-6.0366 -1.5039,-9.1778 -6.7111,-54.3934 -21.2521,-103.15208 -44.8477,-145.26366 -4e-4,-8e-4 0,-10e-4 0,-0.002 -15.9828,-29.38401 -35.2702,-55.40593 -57.7012,-77.85156 -22.4316,-22.44625 -48.007,-41.31735 -76.5645,-56.40235 -41.9247,-23.25629 -88.2356,-37.72213 -138.3613,-43.50195 -16.7078,-1.92655 -33.839,-2.8886 -51.373,-2.88867 v 0 z m -1007.0137,0.33984 c -81.823,0.065 -155.764,18.49814 -219.875,55.74414 0,0 0,10e-4 -0.01,0.002 v 0 0.002 0.004 c -63.798,36.11 -114.8486,87.29249 -151.7676,151.98046 l -0.072,0.12891 v 0.004 c -36.28,64.34499 -54.125,138.87199 -54.125,221.79499 0,82.013 17.8734,156.4681 54.0254,221.6211 v 0.01 l 0.2011,0.3633 0.064,0.1133 c 36.96,63.727 87.933,114.7557 151.584,151.7597 l 0.1836,0.1094 0.1211,0.068 c 64.212,36.293 138.1835,54.1933 220.1015,54.1933 81.918,0 155.8818,-17.9003 220.0938,-54.1933 l 0.096,-0.055 0.2129,-0.1231 0.018,-0.012 c 63.702,-37.037 114.2839,-88.1847 150.2949,-152.0527 l 0.019,-0.035 0.074,-0.1347 0.01,-0.01 c 36.152,-65.153 54.0254,-139.61 54.0254,-221.623 0,-82.919 -18.3561,-157.4907 -55.5821,-221.80671 -35.975,-64.756 -86.6107,-116.01595 -150.4257,-152.12695 -72.614,-42.178 -149.9436,-55.72657 -219.2676,-55.72657 z m -868.6641,1.77344 c -80,0 -152.4949,18.39895 -215.5429,55.50195 -62.756,35.981 -112.7175,86.97358 -148.5645,151.39258 -36.06,64.80003 -53.8984,138.85803 -53.8984,220.50003 0,79.827 17.8984,152.9349 53.8984,217.6269 l 0.057,0.1 0.209,0.3575 c 36.838,63.339 87.5453,114.4697 150.9063,152.2187 l 0.123,0.07 0.3321,0.1875 h 0.01 v 0.01 l 0.012,0.01 c 64.879,37.0058 138.7058,55.3984 219.6758,55.3984 109.457,0 203.9062,-34.8079 278.1192,-103.7539 l 0.072,-0.068 0.5586,-0.539 0.08,-0.078 c 18.02,-17.99 28.1089,-42.4563 25.2109,-67.2793 -2.818,-25.028 -16.7508,-47.2643 -37.1328,-64.0703 -17.611,-14.81 -40.5801,-21.6872 -63.4531,-19.1972 -22.531,1.541 -43.8471,11.0544 -62.4551,26.1484 l -0.076,0.061 c -18.502,15.113 -38.8088,26.2937 -61.5098,33.8887 -21.573,6.585 -48.064,10.2051 -79.416,10.2051 -46.625,0 -85.7373,-10.2981 -119.4883,-30.4531 -34.373,-21.493 -60.9143,-49.6329 -80.8203,-85.8399 -18.79,-35.908 -28.416,-77.0702 -28.416,-124.9922 0,-51.095 9.7834,-93.823 28.5234,-129.541 18.98,-36.175 44.3252,-63.00826 77.4102,-82.48826 l 0.051,-0.0293 0.3555,-0.21289 0.045,-0.0273 c 32.883,-20.202 70.4857,-30.41406 115.1387,-30.41406 63.599,0 113.1997,21.1798 155.5957,66.09561 l 0.045,0.047 0.4473,0.4649 0.078,0.078 c 16.498,16.47 36.1649,28.1392 57.8809,33.2402 l 0.164,0.037 1.2032,0.2461 0.164,0.031 c 22.8966,4.0344 46.442,-1.2433 65.3809,-14.6856 v 0 c 0,0 0.01,0 0.01,-0.01 l 0.086,-0.055 0.1797,-0.125 c 21.188,-15.277 36.8108,-35.39268 42.4258,-59.21868 5.99,-25.416 -2.8385,-51.77173 -20.4805,-71.92773 -39.675,-45.69 -85.17,-80.44402 -136.039,-103.29102 -50.877,-23.81 -106.9488,-35.62109 -167.1348,-35.62109 z m 3543.7578,2.2793 c -27.31,0 -53.1736,9.57186 -72.7656,27.88086 l -0.076,0.0742 -0.5371,0.51562 -0.096,0.0957 c -19.075,19.1 -28.5254,45.51569 -28.5254,73.55469 v 406.01959 c 0,29.295 -7.6373,53.9946 -23.6933,77.3066 -16.363,23.757 -38.0762,42.4376 -66.8672,56.8516 l -0.1973,0.1 -0.1133,0.055 c -27.139,14 -58.6983,21.2929 -96.1503,21.2929 -39.4,0 -73.642,-7.3436 -103.918,-21.5996 -29.51,-14.838 -52.1203,-36.1915 -69.6563,-66.2285 -17.02,-30.091 -26.3964,-69.5144 -26.3964,-119.6094 V 854.02344 c 0,-27.49 -10.4871,-53.41878 -29.9981,-72.05078 -18.609,-19.555 -44.5201,-30.07227 -71.9961,-30.07227 v 0 c -27.77,0 -54.0236,10.52986 -73.4746,30.00586 -18.843,18.868 -28.5235,44.75723 -28.5235,72.11523 V 1208.207 c 0,83.24 15.5566,155.4304 48.0606,215.2754 l 0.012,0.021 0.1406,0.2578 0.033,0.059 c 33,58.86 78.3164,104.9178 134.7324,136.3008 l 0.082,0.045 0.416,0.2246 0.053,0.027 c 57.106,30.15 121.5078,45.0683 191.6758,45.0683 68.357,0 130.6092,-14.9872 185.0312,-45.3672 13.541,-7.428 26.268,-15.6681 38.375,-24.4921 4.543,12.188 11.0999,23.6096 20.2149,33.3886 l 0.168,0.1719 1.0546,1.0566 0.1719,0.168 c 19.592,18.31 45.4566,27.875 72.7656,27.875 28.008,0 54.3948,-9.4654 73.4688,-28.5644 l 0.051,-0.053 0.5234,-0.5351 0.1152,-0.1192 c 18.285,-19.617 27.834,-45.5077 27.834,-72.8457 V 854.01953 c 0,-28.039 -9.4484,-54.45569 -28.5234,-73.55469 -19.074,-19.1 -45.4608,-28.5664 -73.4688,-28.5664 z m -4880.0488,2.30273 c -27.66,0 -53.5698,9.08806 -73.2148,26.41406 l -0.5742,0.53321 c -18.9703,17.927 -28.5157,42.82342 -28.5157,69.73242 v 651.01174 c 0,26.138 9.6182,50.6215 27.9531,69.1855 l 1.1368,1.0742 c 19.644,17.326 45.5548,26.4141 73.2148,26.4141 28.477,0 54.8259,-9.0193 73.7969,-26.9453 l 0.5605,-0.543 c 18.336,-18.564 27.9551,-43.0475 27.9551,-69.1855 V 850.88086 c 0,-26.91 -9.5446,-51.80542 -28.5156,-69.73242 -18.97,-17.926 -45.3199,-26.94727 -73.7969,-26.94727 z m 3886.836,0 c -27.66,0 -53.5699,9.08806 -73.2149,26.41406 l -0.5742,0.53321 c -18.97,17.927 -28.5156,42.82342 -28.5156,69.73242 v 651.01174 c 0,26.138 9.6181,50.6215 27.9531,69.1855 l 1.1367,1.0742 c 19.644,17.326 45.5547,26.4141 73.2149,26.4141 28.4769,0 54.8258,-9.0193 73.7968,-26.9453 l 0.5606,-0.543 c 18.336,-18.564 27.9551,-43.0475 27.955,-69.1855 V 850.88086 c 0,-26.91 -9.5446,-51.80542 -28.5156,-69.73242 -18.97,-17.926 -45.3199,-26.94727 -73.7968,-26.94727 z M 3836.7637,935.53125 c 45.466,0 83.8703,10.23803 117.5293,30.45703 33.878,20.352 59.493,47.96512 78.373,84.91212 l 0.061,0.1172 0.2871,0.539 0.035,0.062 c 19.522,35.693 29.5508,77.0678 29.5508,125.8868 0,48.819 -10.0288,90.1917 -29.5508,125.8847 l -0.01,0.012 -0.1934,0.3536 -0.057,0.1074 c -18.831,35.994 -44.4701,63.2767 -78.4981,83.7187 -33.659,20.22 -72.0642,30.459 -117.5312,30.459 -45.467,0 -83.8781,-10.24 -117.5371,-30.459 -34.117,-20.495 -60.3914,-47.9844 -80.1954,-84.1914 -19.521,-35.693 -29.5468,-77.0647 -29.5468,-125.8847 0,-48.814 10.022,-90.1841 29.539,-125.8731 l 0.01,-0.012 0.047,-0.08 0.094,-0.1699 c 19.849,-37.153 46.0887,-64.97491 80.0547,-85.37891 33.658,-20.22 72.0692,-30.45799 117.5352,-30.45899 z" /><path
     fill="url(#g)"
     d="M 148.955,1383.824 1172.69,363.224 1347.677,537.676 323.943,1558.275 Z"
     opacity="0.547"
     style="mix-blend-mode:multiply;fill:url(#g)"
     id="path35" /><path
     style="fill:url(#linearGradient3);stroke-width:4.89082;stroke-linecap:round"
     d="m 748.95508,1170.5391 c -207.458,0 -414.89983,67.5163 -587.54883,202.5293 -56.668,44.32 -58.09839,127.0965 -9.90039,176.4355 50.454,51.684 131.80887,50.4072 190.29687,8.7422 244.608,-174.211 569.71369,-174.211 814.30467,0 58.504,41.665 138.0085,44.8218 186.1895,-4.5332 50.47,-51.667 50.8916,-136.3245 -5.7774,-180.6445 -172.648,-135.03 -380.10542,-202.5293 -587.56442,-202.5293 z"
     id="path90" /><path
     style="fill:url(#linearGradient65);stroke-width:4.89082;stroke-linecap:round"
     d="m 243.55469,331.38672 c -33.226,0.172 -65.13928,11.72672 -89.23828,36.38672 -50.454,51.667 -50.87408,136.32315 5.79492,180.66015 345.28,270.027 829.81528,270.027 1175.11327,0 56.668,-44.337 58.1004,-127.09712 9.9024,-176.45312 -50.454,-51.667 -131.8105,-50.40719 -190.3145,-8.74219 -244.609,174.211 -569.69902,174.211 -814.29102,0 -29.251,-20.815 -63.75679,-32.02456 -96.96679,-31.85156 z"
     id="path87" /></svg>
