<svg xmlns="http://www.w3.org/2000/svg" xml:space="preserve" width="1000" height="1714"><path fill="#4eedf9" d="M255.21 946.078c-.158.025-.239.059-.317.09-.156.062-.281.13-.43.213-.296.167-.659.397-1.099.691-.88.59-2.053 1.427-3.353 2.404-1.338 1.006-2.402 1.762-3.243 2.309a22 22 0 0 1-1.617.97 7 7 0 0 1-.514.253c-.115.048-.25.021.055.021-.472 0-.895.314-1.086.576s-.274.504-.35.766c-.15.524-.232 1.153-.302 2.004-.238 2.9-.073 10.037.31 14.678.308 3.72.819 6.666 1.561 8.834s1.727 3.742 3.37 4.134c1.138.272 2.275-.18 3.317-.963.992-.745 2.235-2.186 3-3.375.779-1.208 1.281-2.538 1.575-4.923.293-2.385.437-5.913.6-11.909.048-1.786.071-4.985.072-7.918 0-2.932-.016-5.483-.077-6.328a22 22 0 0 0-.107-1.199 4 4 0 0 0-.07-.398c-.033-.133.028-.265-.332-.625v-.002c-.433-.433-.805-.328-.963-.303m-11.497-29.469c-.812-.18-1.024-.04-1.349.026a10 10 0 0 0-.992.26c-.7.214-1.514.51-2.383.855-1.737.69-3.651 1.558-5.064 2.375-3.698 2.137-6.508 4.838-8.514 8.73s-3.28 8.874-4.451 15.903c-2.356 14.134-3.01 20.096-3.028 27.79-.011 5.138.069 6.416.51 8.397.28 1.253.542 2.374.944 3.31a8.2 8.2 0 0 0 1.275 2.04c.5.598.88 1.14 1.975 1.545 1.67.617 3.284-.158 4.392-1.13 1.108-.97 2.026-2.294 2.842-3.925 2.294-4.583 3.291-12.895 3.123-21.582-.038-1.963-.064-3.07-.16-3.955-.097-.885-.38-1.7-.668-2.23-.724-1.332-1.007-1.924-1.076-2.182-.07-.259-.072-.548-.01-1.678.217-3.99 3.004-10.943 9.586-22.375 1.86-3.23 3.099-5.465 3.853-6.992.377-.764.635-1.324.813-1.908.088-.293.19-.567.16-1.135a2.25 2.25 0 0 0-.364-1.149c-.295-.462-.903-.876-1.414-.99m306.864-788.086a6.15 6.15 0 0 0-4.742 1.635l-6.533 6.111c-8.493 7.944-17.188 13.955-25.19 17.604-1.448.66-3.703 1.285-5.672 1.988 2.11-2.685 3.804-4.956 5.074-6.775 1.278-1.831 2.019-2.682 2.823-4.768.2-.521.62-.995.47-2.998-.075-1.001-.486-2.776-2.033-4.178s-1.792-1.437-2.916-1.341c-2.247.19-.534 2.07-1.027 2.39s-2.728.645-3.053.922c-1.299 1.11-2.756 1.975-4.702 4.158-5.254 5.895-12.975 15.609-19.695 18.998-8.575 4.324-17.636 5.547-42.094 9.07-13.173 1.897-24.615 4.086-30.144 5.692-2.19.637-4.757 2.67-7.041 3.834s-3.563.408-4.482 3.125c-1.838 5.433-1.057 9.674-1.057 21.93 0 21.12 1.809 33.67 8.32 57.918l4.178 16.693.54 16.545c-.266 22.816-.303 33.617 3.937 45.918 4.106 11.912 10.839 20.422 21.962 31.004 15.601 14.841 31.114 23.315 48.759 30.207 4.775 1.865 11.23 2.005 15.416 1.65l1.586 21.805c.792 10.895-4.621 17.39-4.932 20.621s-.75 4.339-2.174 8.25c-3.693 10.143-7.965 26.852-9.256 36.479-.254 1.895-.409 3.6-.447 5.068-.02.734-.028 1.365.076 2.236.052.436.077.898.453 1.866.189.483.442 1.139 1.256 2.025s2.625 2.02 4.592 2.02c3.656 0 3.463-1.01 3.904-1.338.441-.33.696-.57.955-.817a27 27 0 0 0 1.528-1.603 87 87 0 0 0 3.65-4.422c4.537-5.843 25.7-28.763 37.674-40.569l8.6-8.476c1.172-1.156-1.356-2.983-1.356-4.63l.562-15.558-.758-18.22c0-1.604 2.756-1.484 1.635-2.633l-5.638-5.776c-2.6-2.663-6.09-7.752-6.414-8.486-1.765-3.99-2.76-17.677-.91-25.434 1.675-7.024 9.636-24.076 12.623-27.904 1.727-2.213 3.365-4.323 3.947-5.101 1.045-1.4 1.523-5.314.24-7.276s-2.415-2.241-3.127-2.531c-1.423-.58-2.171-.611-3.135-.725-1.927-.227-4.274-.298-7.386-.298-8.378 0-7.056.343-12.67-2.6-2.461-1.29-5.505-3.247-8.305-5.123 14.702-3.62 31.323-11.04 40.793-19.176 12.313-10.577 22.023-31.209 26.691-53.174 1.889-8.885 2.38-15.043 2.452-30.25.078-16.593-.316-20.797-2.471-28.24-4.61-15.92-13.097-31.046-28.81-52.037l-.003-.002-2.14-2.861a6.15 6.15 0 0 0-4.383-2.442m-34.566 42.723c4.01.02 8.229 1.937 12.539 6.41s8.436 11.443 11.523 20.42c.975 2.837 2.239 12.324 2.535 21.404s-.298 18.694-1.146 22.006c-3.742 14.606-11.746 23.158-18.711 24.977-3.483.909-6.869.53-10.748-1.803-3.88-2.334-8.18-6.859-12.1-14.316-9.198-17.505-8.961-48.485-1.832-63.504 5.23-11.018 11.757-15.626 17.94-15.594m-76.854 16.207c3.033-.197 4.399.116 5.744.875 1.346.759 3.055 2.39 5.373 5.805 6.714 9.888 9.89 24.033 9.166 45.648-.2 5.997-.787 9.583-.92 11.006-.994.092-2.551.15-5.148.154-5.555.01-8.73-.116-12.238 1.008-1.755.562-3.93 1.876-5.149 3.897s-1.31 3.913-1.31 5.267c0 2.094.403 3.55.943 5.578.54 2.03 1.29 4.403 2.23 7.131.579 1.678 1.667 4.219 2.385 6.143-.883-.146-1.662-.285-2.77-.463-1.254-.203-7.665-4.873-10.486-10.633-4.863-9.932-7.34-24.758-6.902-39.025.438-14.268 3.887-28.026 8.986-35.725 3.827-5.777 4.723-6.317 10.096-6.666m19.055 110.049c.334.205.337.384.338.385 0 0-.283-.329-.338-.385m-8.453 6.453.158.422c-.022-.045-.094-.076-.158-.422m44.293 48.27c2.981 0 4.303.355 4.693.433-.025.129-.07.023-.07.455 0 .085-.003.038-.004.111-.215.13-.239.168-.612.358-1.153.588-5.947 2.312-8.865 3-2.76.65-4.663.795-6.37.89.151-.18.065-.145.237-.335 4.514-4.997 4.32-4.913 10.99-4.913"/><path fill="#a4aff2" d="M460.27 231.199a3 3 0 0 0-.81.211c-.188.072-2.765.84-5.004 1.42-8.14 2.11-21.089 6.887-27.39 10.139-2.328 1.2-4.042 2.033-5.372 2.794s-2.389 1.47-3.07 2.66c-.682 1.191-.667 2.557-.438 3.839.23 1.281.655 2.7 1.155 4.668 3.125 12.319 8.4 21.388 15.5 25.142 1.679.888 3.045 1.448 4.455 1.525.704.04 1.523-.048 2.267-.615s1.108-1.57 1.108-2.351c0-.667-.107-.89-.229-1.383a39 39 0 0 0-.49-1.764 105 105 0 0 0-1.563-4.748c-1.19-3.363-2.016-6.9-2.377-9.81s-.02-5.337.15-5.655c.363-.676 1.036-1.27 2.973-1.863 1.938-.593 4.992-1.047 9.387-1.375 2.292-.171 4.458-.413 6.149-.676a27 27 0 0 0 2.166-.412c.298-.073.563-.147.832-.246s.519-.11 1.025-.617c.53-.53.62-.897.772-1.305.15-.408.273-.846.39-1.344.235-.995.443-2.218.627-3.6a79 79 0 0 0 .658-9.22c.012-1.2.004-2.054-.101-2.814-.053-.38-.121-.748-.326-1.184s-.66-1-1.303-1.254a2.4 2.4 0 0 0-1.14-.162m84.14-17.355-3.36.295c-18.676 1.641-32.202 5.426-44.886 12.683l-5.137 2.94a3.035 3.035 0 0 0-1.459 3.28l.639 2.932c1.812 8.32 6.012 17.844 10.808 24.42 3.107 4.26 7.881 7.91 12.746 9.698 7.384 2.712 15.268-.035 21.342-6.791 8.093-9.001 12.608-24.933 12.608-41.729v-4.705a3.035 3.035 0 0 0-3.301-3.023"/><path fill="#f9f7ff" d="M514.407 168.01c-1.907.084-3.837.54-5.766 1.393-11.952 5.287-20.038 27.076-18.422 49.636.359 5.005.921 10.106 1.25 11.336.592 2.215.627 2.22 3.237.38 1.45-1.023 5.033-3.069 7.964-4.546 8.93-4.5 21.079-7.666 35-9.123l7.766-.537-.402-5.33c-1.995-26.427-17.278-43.8-30.627-43.209m-75.821 13.654c-8.109-.172-16.856 12.753-20.153 31.002-1.596 8.834-1.194 36.567.53 36.567.18 0 2.435-1.335 5.01-2.967 5.19-3.292 15.773-7.534 27.775-11.133l10.7-2.803-.175-13.58c-.963-19.26-10.648-31.164-20.27-36.187a7.7 7.7 0 0 0-3.417-.899"/><path fill="#1769d6" d="M499.273 45.951c-9.933-.11-21.441 1.677-35.696 5.234-11.931 2.978-24.026 6.76-72.535 22.66-14.222 4.663-32.96 10.324-41.252 12.477-14.8 3.843-15.412 3.916-33.57 4.371-14.583.366-19.99.106-24.284-.902-1.897-.445-3.389-.802-4.931-.938s-3.747-.05-5.46 1.635c-1.712 1.685-1.852 3.642-1.88 5.21-.029 1.566.141 3.2.357 5.292.687 6.65 3.023 12.384 7.248 17.863-.233.001-.401-.055-.676-.013-1.363.21-2.774 1.422-3.253 2.328-.96 1.812-.618 2.415-.614 3.09.011 1.881.452 3.39 1.032 5.435.58 2.046 1.356 4.383 2.228 6.76 1.745 4.753 3.717 9.47 5.647 12.506 4.377 6.89 9.241 12.069 14.783 15.316 2.182 1.279 4.343 2.35 7.222 2.701 2.88.353 6.32.236 12.836.045.71-.02 1.133-.008 1.813-.023-11.055 8.48-19.284 17.615-24.377 27.728-1.8 3.573-5.715 13.699-9.447 23.944-3.671 10.075-8.6 22.297-10.604 26.445-6.536 13.525-18.151 23.339-39.902 32.865a311 311 0 0 0-7.582 3.432c-1.022.482-1.882.9-2.557 1.246a23 23 0 0 0-.9.48c-.275.157-.333.043-1.155.823-1.205 1.145-1.426 2.709-1.375 3.57.052.861.25 1.38.438 1.85.376.937.829 1.655 1.373 2.463 1.088 1.614 2.567 3.434 4.305 5.39 2.126 2.394 4.582 4.827 7.064 7.108-.666.073-1.446.288-2.336 1.177-1.081 1.082-1.155 2.015-1.215 2.545-.059.53-.022.838.008 1.1.06.524.152.852.25 1.203.198.701.457 1.412.785 2.244.658 1.665 1.59 3.747 2.686 5.977 3.088 6.28 6.506 10.799 13.13 17.486 8.164 8.24 15.728 13.644 24.395 16.211 4.688 1.388 9.635 1.86 14.995 1.682-.721 1.146-1.157 2.633-.924 3.613.298 1.255.806 1.848 1.246 2.375.88 1.053 1.816 1.77 2.967 2.596 2.302 1.651 5.41 3.461 8.908 5.29 6.996 3.659 15.164 7.279 21.047 8.465 11.45 2.31 36.607 1.75 50.115-.794-7.036 4.413-13.648 9.92-19.156 15.76-7.27 7.706-12.722 15.815-14.256 23.599l-.61 3.09a4.11 4.11 0 0 0 5.008 4.787l7.342-1.791c3.233-.789 15.894-2.606 26.777-3.694 22.844-2.283 34.02-4.724 43.51-9.94 3.517-1.934 8.868-5.386 13.5-8.548 2.316-1.58 4.427-3.073 6.02-4.273a36 36 0 0 0 2.013-1.606 9 9 0 0 0 .832-.802c.152-.169.32-.356.55-.72.228-.362.72-.84.671-2.425-.046-1.51-.438-1.772-.611-2.06-.173-.29-.296-.439-.405-.575a8 8 0 0 0-.58-.65 31 31 0 0 0-1.363-1.303 110 110 0 0 0-4.03-3.46c-8.87-7.293-22.798-23.949-25.866-30.247-6.585-13.515-7.348-18.257-7.645-45.623l-.266-24.5a4 4 0 0 0-.128-.98l-4.05-15.713c-7.389-28.673-8.436-35.927-8.32-57.918l.104-19.68a4.1 4.1 0 0 0-1.6-2.978c8.81-3.922 24.976-7.796 44.733-10.1 21.3-2.484 34.722-6.253 45.467-13.203 8.682-5.617 20.283-17.25 30.181-29.662-1.054 2.923-2.243 5.866-3.531 8.441-1.513 3.026-4.453 7.953-6.125 10.3-1.036 1.456-1.907 2.835-2.553 4.048-.323.606-.59 1.145-.822 1.828-.116.341-.24.701-.299 1.35-.058.648-.246 2.007 1.233 3.486 1.077 1.077 2.122 1.213 2.755 1.273a5.3 5.3 0 0 0 1.426-.05c.755-.115 1.35-.298 2.012-.522 1.323-.449 2.822-1.094 4.51-1.896a101 101 0 0 0 10.959-6.114c3.622-2.343 9.947-7.541 14.998-12.17 2.574-2.358 4.937-4.33 6.7-5.634.606-.448.999-.687 1.423-.957.658.566 1.531 1.412 2.582 2.6 2.29 2.587 5.182 6.376 8.144 10.661 5.925 8.572 12.204 19.26 15.34 26.727 5.567 13.257 6.686 18.832 7.233 36.039.593 18.674-1.463 33.203-7.026 49.826-5.213 15.579-9.067 22.234-17.99 31.25-9.33 9.426-15.571 13.077-31.367 18.262l-11.8 3.873a4.11 4.11 0 0 0-.794 7.451l4.395 2.574c7.078 4.146 12.61 6.635 18.63 7.024 5.123.33 10.378-1.128 16.559-3.454-.17.204-.257.33-.43.536-10.23 12.217-16.315 21.63-19.89 31.177-2.01 5.368-2.474 9.304-2.489 21.006-.009 6.8-.066 10.237.424 13.164s1.814 5.029 3.326 7.196c2.16 3.093 5.522 6.033 9.028 8.6 1.753 1.282 3.525 2.43 5.217 3.337 1.691.908 3.165 1.642 5.158 1.87.718.081 1.73.227 3.113-.262 1.382-.49 2.578-1.764 3.12-2.8 1.08-2.07 1.231-3.806 1.802-7.048.605-3.435 1.386-6.479 2.314-9.293.13.12.216.279.362.38.928.65 1.92.81 2.613.81 1.598 0 1.33-.205 1.557-.284a11 11 0 0 0 .62-.238c.421-.173.919-.394 1.528-.67a264 264 0 0 0 4.855-2.283 1018 1018 0 0 0 15.057-7.412c24.313-12.193 37.44-21.393 51.969-36.504 15.811-16.447 28.47-35.298 42.176-62.639 16.431-32.777 25.334-56.901 33.312-90.305 1.834-7.676 4.094-18.91 5.914-28.875.91-4.982 1.708-9.64 2.283-13.377s.954-6.232.954-8.195c0-.561.008-1.118-.055-1.8-.063-.684-.07-1.571-.945-2.848-.876-1.277-3.159-2.164-4.48-2.018-1.323.147-2.048.573-2.811 1.008-3.053 1.74-6.91 5.118-15.247 12.078-.476.398-.774.632-1.24 1.02 1.09-3.174 2.04-6.385 2.737-9.377.735-3.162 1.225-6.065 1.365-8.579.07-1.256.063-2.41-.12-3.58-.182-1.168-.423-2.487-1.78-3.845-1.05-1.05-1.753-1.1-2.243-1.213a6 6 0 0 0-1.185-.154c-.687-.034-1.318.003-2.02.066-1.403.127-3.037.393-4.764.777-3.553.792-11.52 1.504-19.056 1.744s-15.248-.072-17.399-.533c-10.64-2.282-22.992-9.923-44.681-28.638-20.824-17.97-31.892-23.3-50.49-24.186-2.857-.136-5.587-.157-7.788-.076-1.1.04-2.06.104-2.914.21-.427.054-.825.114-1.267.22-.443.105-.872.108-1.856.79-.442.307-.905.801-1.324 1.368-6.846-10.527-15.75-20.512-23.307-24.625-7.473-4.068-15.859-6.152-25.79-6.262M397.738 167.113c-2.417 1.833-4.5 3.646-6.322 5.461-.027-.416-.02-.89-.537-1.701-.092-.143-.318-.247-.45-.385.944-.465 1.634-.845 2.637-1.332 1.416-.686 3.148-1.351 4.672-2.043m-11.412 17.61c.119.19 1.19.63.57.369-.328.14-.6.236-.922.369.087-.218.254-.508.352-.739"/><path fill="#572a47" d="M484.603 351.072a1.9 1.9 0 0 0-.704.184c-.383.175-.693.41-1.043.707-.699.594-1.51 1.458-2.455 2.593-.913 1.097-1.575 1.989-2.02 2.768-.444.78-.809 1.48-.529 2.416.087.288.293.645.563.877s.54.347.8.44c.54.192.75.155 1.137.158h.002a3.4 3.4 0 0 0 1.428-.315c.899-.449 1.512-1.194 2.078-2.066.71-1.094 1.338-2.507 1.77-3.768.215-.63.38-1.213.466-1.738.044-.263.072-.506.055-.791s-.018-.713-.53-1.137a1.54 1.54 0 0 0-1.019-.328"/><path fill="#a86aa9" d="M494.71 348.012c-.8-.012-1.582.075-2.274.273-2.796.802-4.97 3.016-6.642 6.432-.569 1.16-.933 2.238-1.055 3.207-.06.484-.067.943.049 1.414.116.47.405 1.002.928 1.306.531.31.887.268 1.263.245a3.7 3.7 0 0 0 1.13-.25 65 65 0 0 1 2.284-.702 156 156 0 0 1 3.541-.98c3.753-.983 6.18-2.035 7.705-3.633.476-.5.85-1.019 1.05-1.635a2.83 2.83 0 0 0-.083-1.914c-.21-.503-.492-.812-.824-1.152a5.8 5.8 0 0 0-1.121-.91c-.926-.563-2.307-1.08-3.563-1.39-.77-.192-1.588-.3-2.388-.311"/><path fill="#1f6bd6" d="M411.882 601.242c-.575 0-.692.124-.811.18s-.179.094-.23.127c-.104.064-.16.108-.22.152a8 8 0 0 0-.35.283q-.383.325-.962.85c-.77.698-1.788 1.647-2.882 2.691-16.233 15.49-28.173 21.697-77.729 40.377-15.146 5.71-32.138 12.79-41.695 17.381-11.107 5.336-20.217 11.055-28.149 17.695-3.423 2.867-8.028 7.33-11.832 11.29-1.901 1.98-3.595 3.826-4.842 5.3a29 29 0 0 0-1.523 1.93c-.195.277-.36.53-.508.808-.147.279-.353.495-.353 1.26 0 .515.52 1.47 1.047 1.754s.82.257 1.068.264c.494.013.897-.048 1.582-.15 1.369-.207 3.717-.638 7.959-1.432 3.502-.656 9.87-1.766 14.1-2.457 3.54-.58 5.477-.905 6.777-1.237.65-.165 1.164-.333 1.656-.61a4 4 0 0 0 1.15-1.02c8.34-11.089 17.79-21.236 23.524-25.457 10.876-8.008 24.31-13.916 57.441-25.112 7.31-2.47 15.113-5.308 17.793-6.515 8.903-4.011 16.848-9.065 31.145-19.768l8.185-6.127a1.89 1.89 0 0 0 .756-1.51v-4.531c0-1.27-.023-2.423-.064-3.289-.02-.433-.043-.788-.076-1.092a4 4 0 0 0-.077-.476c-.022-.098-.038-.202-.144-.434-.053-.116-.12-.271-.334-.506a1.9 1.9 0 0 0-.902-.553 4 4 0 0 0-.5-.066m-97.207-76.234c-9.628-.003-19.21.135-22.961.47-26.436 2.365-51.727 10.326-72.592 22.885-3.234 1.946-7.566 4.655-11.354 7.076s-6.916 4.463-8.129 5.383h-.002l-1.015.772a1.925 1.925 0 0 0-.174 2.918l1.805 1.744c3.606 3.484 9.398 6.946 13.804 8.132.538.145 1.081.279 1.547.381.466.103.688.181 1.246.205 2.064.09 3.92-.887 6.336-2.334 1.05-.628 4.267-2.243 8.506-4.263 4.24-2.02 9.584-4.5 15.227-7.069 11.284-5.137 23.773-10.642 30.966-13.56 18.83-7.638 40.347-13.436 56.278-15.207 3.89-.433 6.644-.775 8.482-1.069.92-.146 1.599-.276 2.153-.425a4 4 0 0 0 .83-.3c.157-.078.342-.172.59-.411a2.06 2.06 0 0 0 .624-1.457c0-1.087-.679-1.567-1-1.778a3.3 3.3 0 0 0-.818-.384c-.515-.177-1.084-.304-1.807-.438-1.445-.267-3.462-.526-6.062-.785-3.475-.346-12.853-.483-22.48-.486m100.621 4.734-19.014.008c-12.755.005-23.274.169-30.895.469-3.81.15-6.889.333-9.21.554a39 39 0 0 0-2.954.374c-.825.144-1.373.156-2.455.761-.575.322-1.47 1.082-1.771 2.291s.12 2.264.46 2.81c.68 1.094 1.19 1.294 1.725 1.637 1.07.688 2.373 1.3 4.237 2.106 5.517 2.388 16.67 5.903 21.818 6.773 1.681.285 3.728.265 6.856.274s6.969-.042 10.82-.137 7.707-.233 10.863-.396c3.156-.164 5.313-.27 6.942-.606.732-.15 1.542-.334 2.449-.861s1.765-1.487 2.213-2.436c.895-1.898.895-3.547 1.06-6.232l.233-3.8a3.38 3.38 0 0 0-3.377-3.589m72.144-114.35c-.927.096-1.822.387-2.701.817-4.783 2.34-8.092 8.473-9.728 16.246-.223 1.057-.837 3.388-1.32 4.976-.502 1.646-.92 3.018-.995 3.276-.15.515.182 1.595.615 1.941.434.347.683.362.887.407.408.088.726.1 1.25.123 1.048.044 2.797.057 5.88.07 4.714.02 8.709.142 12.235.371 2.923.19 5.524.352 6.207.371l.84.023a1.755 1.755 0 0 0 1.803-1.753v-10.309a1.76 1.76 0 0 0-.354-1.057l-.68-.9c-.345-.458-.858-1.01-1.638-1.854-.691-.747-1.56-1.661-2.432-2.568.194.117.434.267.608.371.644.388 1.039.627 1.37.799l.003.002.584.3a1.755 1.755 0 0 0 2.555-1.636l-.053-1.201-.053-1.203a1.76 1.76 0 0 0-.7-1.328l-1.21-.909c-2.853-2.14-7.162-4.357-10.162-5.125-.947-.242-1.883-.345-2.81-.25zm112.969 3.93c-1.884-.16-3.888-.046-6.088.266-10.801 1.532-22.222 6.128-31.242 12.556l-4.596 3.276a3.624 3.624 0 0 0 1.979 6.572l14.142.49c15.16.526 20.953 1.614 26.852 4.684.991.516 1.949.984 2.744 1.348.397.181.75.334 1.086.466.336.133.106.311 1.594.4 1.832.11 3.205-1.073 3.795-1.874s.846-1.5 1.078-2.227c.464-1.453.703-3.043.85-4.808.292-3.53.183-7.566-.737-10.983-.755-2.803-1.959-5.285-3.963-7.125s-4.666-2.8-7.494-3.04"/><path fill="#4eedf9" d="M697.915 1181.256c-.44.01-.98.113-1.633.441-1.308.656-2.094 2.495-2.094 3.424 0 .926.072.837.131 1.168s.138.73.238 1.219c.2.978.487 2.31.852 3.966.73 3.313 1.773 7.915 3.041 13.43a7580 7580 0 0 0 9.55 40.89c7.171 30.372 14.932 62.678 17.464 72.216 2.588 9.751 7.422 30.484 10.675 45.82 3.28 15.458 10.45 47.394 15.954 71.068l27.902 120.002c17.191 73.935 22.362 92.554 30.014 104.233 1.316 2.009 2.417 3.51 3.824 4.7.703.596 1.516 1.178 2.761 1.444s2.966-.125 3.985-.955c1.29-1.05 1.756-2.163 2.05-3.318.15.38.266.833.438 1.18.44.886.885 1.76 2.121 2.576 1.236.814 3.83.748 5.031-.17 1.201-.92 1.561-1.84 1.909-2.739.313-.81.516-1.691.699-2.652.132.271.209.594.363.854.533.893 1.276 2.06 3.158 2.498 1.883.437 3.772-.77 4.5-1.696 1.457-1.851 1.673-3.524 2.041-5.902.2-1.293.213-3.19.309-4.826.876.372 1.092 4.408 1.89 4.19 2.296-.632 3.274-5.474 3.788-6.268 1.224-1.895 1.514-3.672 1.908-5.975.116-.679.102-1.482.19-2.207.104.045.1.106.218.148.935.338 2.16.193 2.865-.148a3.5 3.5 0 0 0 1.268-.994c.912-1.098.777-1.36.92-1.813s.267-.93.406-1.51c.279-1.158.608-2.706 1.027-4.74 2.622-12.71.766-26.35-7.363-58.289-6.359-24.984-13.243-46.242-20.228-62.718s-13.863-28.168-21.309-34.305c-1.963-1.618-3.088-2.48-3.738-3.33s-1.198-1.973-1.776-4.844c-1.156-5.741-2.01-17.614-3.892-42.521-2.949-39.005-9.28-95.34-14.092-125.303-5.497-34.229-13.331-50.032-37.146-74.944-7.95-8.315-18.95-18.682-28.456-27.127-4.752-4.222-9.122-7.957-12.576-10.724-1.727-1.384-3.22-2.524-4.466-3.39-1.247-.868-1.72-1.49-3.676-1.923-.263-.058-.605-.145-1.045-.136m-246.289-123.563a3.805 3.805 0 0 0-4.07 4.363l1.185 7.797c1.702 11.183 2.675 47.61 2.594 98.022s-1.116 115.277-3.09 185.094c-6.775 239.575-6.872 245.263-5.09 270.377.472 6.65.981 12.005 1.445 15.43.233 1.711.33 2.702.778 3.987.112.322.13.655.81 1.461.34.404.976 9.158 2.29 9.395 1.023.185 2.025-.22 2.751-.67.082.181.09.345.196.535.233.419.528.887 1.109 1.393.58.505 1.602-6.996 2.803-6.996 1.618 0 2.829-1.031 3.33-1.698.5-.666.672-1.168.822-1.632.13-.404.144-.798.217-1.184.524.278 1.13.514 1.885.514 1.446 0 2.351-.629 2.923-1.102s.93-.923 1.272-1.396c.683-.946 1.26-2.018 1.918-3.387 1.314-2.738 2.865-6.625 4.775-11.897 3.822-10.544 9.035-26.57 15.942-48.898 11.181-36.148 17.098-56.406 18.802-69.889s-1.615-20.925-7.746-27.71l-6.076-6.723 2.11-27.946a2868 2868 0 0 1 13.224-133.394c6.74-54.912 8.051-90.217 4.918-133.266-2.312-31.77-2.22-38.559.969-69.388.985-9.528 1.746-18.32 2.18-24.86.216-3.27.35-5.968.39-7.97a34 34 0 0 0-.021-2.532 9 9 0 0 0-.118-1.094c-.072-.412.334-.834-1.16-2.328-1.156-1.156-2.09-1.49-3.293-2.002s-2.613-1.005-4.24-1.511c-3.254-1.013-7.356-2.059-11.86-3.057-9.006-1.996-19.556-3.784-27.736-4.447zm397.369-121.769a.7.7 0 0 0-.483.207l-.09.111s-.04.069-.054.1a.7.7 0 0 0-.047.15c-.015.08-.013.128-.012.166.003.077.012.115.02.152.016.074.035.13.056.198.044.134.105.301.188.513.165.425.413 1.024.736 1.784a388 388 0 0 0 2.764 6.296c3.668 8.198 4.652 11.28 4.543 13.612-.056 1.21-.272 1.85-.926 2.46-.654.612-1.873 1.196-3.924 1.887-.637.215-1.276.45-1.802.659-.527.208-.887.35-1.176.533-.623.395-1.147.974-1.469 2.021-.321 1.047-.572 2.619-.986 5.442a222 222 0 0 1-.99 6.04c-.303 1.67-.64 3.771-.758 4.737-.283 2.308-.419 7.52-.21 9.297.141 1.192.308 2.034.675 2.709.366.675.974 1.11 1.677 1.353 2.23.77 5.06-.109 6.81-1.98 1.483-1.585 3.092-4.6 4.604-8.205s2.89-7.777 3.727-11.569c.582-2.634 1.1-7.015 1.383-11.603.075-1.219.128-5.54.129-9.754v-7.65a.68.68 0 0 0-.295-.563l-3.72-2.55c-3.166-2.173-5.624-3.823-7.32-4.915a46 46 0 0 0-1.974-1.218 7 7 0 0 0-.586-.305 1.4 1.4 0 0 0-.264-.092.8.8 0 0 0-.226-.023"/><path fill="#4eedf9" d="M578.598 442.356c-2.408.19-4.857 1.23-6.322 3.138s-2.246 4.143-3.547 7.492c-2.484 6.397-3.594 15.986-3.724 26.61s.804 22.166 2.886 31.998c1.571 7.416 4.255 15.455 7.014 21.816 1.38 3.18 2.767 5.929 4.129 8.043.681 1.057 1.347 1.958 2.113 2.727.767.768 3.629 4.785 5.297 4.925 1.716.145.65-3.916 1.26-4.535s1.035-1.272 1.445-2.01c.821-1.474 1.514-3.285 2.04-5.312.93-3.59.755-8.071-.28-14.358 3.484 11.29 7.718 25.296 12.857 42.508 28.434 95.22 40.296 126.01 75.99 197.272 13.31 26.57 34.193 65.976 52.454 99.502 9.13 16.763 17.601 32.05 24.146 43.533 3.273 5.741 6.062 10.529 8.223 14.092 2.16 3.562 3.362 5.61 4.697 7.029 7.537 8.002 20.678 14.487 39.19 19.992 7.232 2.15 10.802 3.46 11.67 4.143.433.341.391.285.513.851s.164 1.764.164 3.532c0 4.496-1.329 7.535-6.217 13.246-2.004 2.341-3.696 4.655-4.884 6.638-.595.992-1.066 1.886-1.4 2.797a6 6 0 0 0-.374 1.502c-.065.59-.116 1.42.502 2.42 1.214 1.964 2.772 3.139 5.348 3.139 1.241 0 1.927-.365 2.685-.739.759-.373 1.516-.841 2.327-1.398 1.621-1.114 3.44-2.583 5.318-4.254 3.756-3.34 7.693-7.415 10.23-10.978 2.043-2.869 3.576-4.62 3.653-7.422.076-2.803-1.423-4.617-3.313-7.37-2.047-2.98-5.218-7.89-6.935-10.732-2.343-3.876-6.44-6.992-10.797-7.949-4.925-1.082-10.168-3.98-14.86-7.87a64 64 0 0 0 7.147 4.372c4.96 2.585 9.762 4.334 13.99 4.371-.677-.006.532.246 1.945 1.893 1.414 1.646 3.166 4.28 4.997 7.671 3.06 5.67 7.032 10.67 10.841 14.057 1.905 1.693 3.74 3 5.686 3.762.973.38 2 .637 3.148.576 1.15-.061 2.452-.555 3.362-1.465 1.355-1.355 1.061-2.318 1.033-3.012-.028-.693-.144-1.322-.305-2.033-.32-1.422-.852-3.127-1.549-5.119-1.392-3.983-3.449-9.053-5.732-14.246s-4.787-10.492-7.076-14.895c-2.28-4.384-4.111-7.698-6.018-9.748.47.34 1.135.736 2.164 1.955 1.36 1.611 2.787 3.769 3.828 5.913 3.387 6.97 8.937 12.452 19.817 20.048 6.262 4.373 9.846 7.15 11.912 9.438s2.825 4.059 3.73 7.496c1.417 5.377 3.32 10.067 5.38 13.445 1.029 1.69 2.058 3.064 3.398 4.106.67.52 1.446.981 2.457 1.187s2.286.027 3.242-.564c1.574-.973 1.68-1.899 1.998-2.797s.544-1.883.736-3.002c.385-2.237.606-4.98.606-7.867 0-4.727-.175-8.055-1.893-11.385s-4.553-6.203-9.51-11.133c-5.87-5.837-13.668-12.92-17.783-16.097l-.129-.1.678-.008c5.96-.068 10.693 1.095 14.104 3.137s5.598 4.893 6.677 8.85c1.253 4.59 3.908 9.953 6.742 13.189l4.108 4.69c1.944 2.216 5.586.605 5.254-2.325l-1.254-10.998v-.002a67.4 67.4 0 0 0-1.809-9.498c-.787-2.943-1.568-5.348-2.777-7.207-6.07-9.334-20.367-15.328-36.322-16.7-5.172-.444-16.2-2.665-29.64-5.96-13.442-3.296-29.437-7.664-45.153-12.41 1.052.317.66.371.37.046-.289-.325-.753-.922-1.306-1.72-1.106-1.596-2.599-4.003-4.373-7.063-3.548-6.119-8.247-14.872-13.69-25.474-10.884-21.204-24.754-49.823-38.564-79.928-19.964-43.52-34.262-72.312-51.545-103.8l-12.707-23.155-7.68-47.875c-13.158-82.034-18.883-108.091-28.253-126.512-9.343-18.366-24.673-29.542-42.172-30.113-2.253-.074-4.002-.138-5.608-.01zm221.309 482.25c.138.107.261.224.4.33-.129-.118-.272-.21-.4-.33"/><path fill="#002fa8" d="M487.911 412.314c-2.39.04-4.579.932-7.04 2.684-3.824 2.723-6.57 8.107-8.523 16.705-.845 3.724-2.568 9.822-2.836 10.725-.21.713-1.37.946-2.812 1.4l2.342 1.31c2.673-.323 9.613-1.308 9.613-1.308l25.594 3.43-.989-19.6.407-8.73-7.512-4.184c-3.276-1.634-5.854-2.471-8.244-2.432m.435 4.66c3.41 0 13.49 5.773 13.532 7.75.037 1.74-.293 1.638-5.635-1.75-7.23-4.585-7.396-3.619-.56 3.278 5.863 5.916 6.222 6.548 6.222 11 0 4.294.14 6.485-1.906 6.29-1.238-.117-7.278-1.075-13.496-1.251-10.131-.286-12.975 1.312-12.524-.226.277-.945 2.139-6.39 2.53-8.59 1.713-9.653 6.625-16.5 11.837-16.5m109.235.692c-19.466.638-48.413 22.246-49.602 22.246l5.473 2.135-.633 2.574 8.545-.45 8.543-.449 8.818-1.375c3.659-.352 11.43.263 17.973 1.72-6.128-2.04-8.057-3.695-21.773-3.706l-17.166-.074 5.978-4.732c11.441-9.057 28.588-13.496 36.473-13.108q.79.038 1.463.16c1.797.328 4.129 1.693 5.183 3.033 2.184 2.777 3.584 11.617 2.57 16.23-.724 3.299-2.477 6.192-4.855 4.802-.663-.388-2.391-1.5-5.566-2.043 2.161.58 4.094 1.264 5.566 2.043 2.609 1.38 5.62 2.444 8.107 4.744.757-10.62 4.98-23.937-4.826-31.477-2.325-1.655-5.972-2.415-10.271-2.273m1.424 26.963a55 55 0 0 0-2.307-.563c.754.251 1.533.43 2.307.563m-295.522 76.641c-6.635.183-12.576.688-17.078 1.559-2.75.532-8.375 1.494-12.5 2.139s-8.85 1.556-10.5 2.027c-23.488 6.703-34.939 11.778-55.08 24.408-7.657 4.801-14.515 9.303-15.24 10.004-1.951 1.887 9.198 11.653 17.174 15.043l6.181 2.625 15.983-7.646c13.617-6.516 24.786-11.64 38.982-17.891 19.323-8.508 43.469-15.538 61.03-17.768l9.03-1.146 6.97 4.078c15.277 8.942 35.531 12.775 55.693 10.537 5.631-.625 10.394-.98 10.586-.789.191.192.024 10.4-.373 22.686l-.723 22.337-8.027 8.243c-16.558 17.001-28.669 23.148-92.305 46.85-31.593 11.766-54.677 25.826-69.395 42.265-6.827 7.626-14.218 17.244-13.672 17.79.205.205 5.054-.51 10.778-1.589 5.723-1.079 15.292-2.883 21.262-4.01s11.692-2.049 12.718-2.049c1.18 0 3.208-2.112 5.522-5.75 2.01-3.162 5.736-8 8.277-10.75 13.91-15.053 23.333-20 66.629-34.978 23.996-8.302 34.004-13.527 50.5-26.363l6.5-5.057.273 16.947c-.513-31.82 2.728-107.373 3.983-107.472.199-.016-11.733.38-25.758.53-17.411.187-26.608-.095-28.998-.89-12.352-4.107-38.515-6.467-58.422-5.92m8.922 5.254c27.471-.076 42.907 2.207 25.773 3.813-3.726.349-7.673.785-8.773.968-8.995 1.502-12.1 2.152-20 4.186-12.514 3.222-22.094 6.454-35.5 11.977-12.014 4.949-49.744 22.225-51.533 23.597-3.478 2.667-6.255 2.732-11.584.27-5.045-2.331-10.883-6.858-10.883-8.438 0-.636 16.864-11.378 26.322-16.765 5.833-3.323 21.348-9.67 29.178-11.938 19.694-5.704 33.834-7.606 57-7.67m79.264 6.45h24.463l-.707 4.75c-.824 5.53-.588 5.149-3.635 5.904-2.97.739-30.482 1.335-33.885.738-9.277-1.627-26-7.662-26-9.383 0-1.268 14.68-2.01 39.764-2.01m21.35 68.648-.239 5.236-.238 5.235-9.569 7.216c-18.33 13.827-27.796 19.003-44.068 24.1-4.675 1.464-14.687 4.916-22.248 7.67-31.956 11.639-42.272 18.387-57.234 37.45l-6.325 8.056-7.347 1.172c-4.041.645-8.471 1.404-9.846 1.687s-4.945.968-7.934 1.522c-2.988.553-5.84 1.007-6.336 1.007-1.481 0 4.64-7.147 12.575-14.685 11.87-11.276 24.428-18.996 45.195-27.787 6.05-2.561 11.9-5.06 13-5.555 1.1-.494 8.75-3.423 17-6.508 47.653-17.82 61.397-24.858 76.63-39.228z"/><path fill="#4eedf9" d="M480.373 444.211c-10.092-.019-24.556 2.94-30.991 6.623-8.802 5.035-17.08 16.957-21.748 30.638-8.164 23.925-11.56 62.716-12.946 145.315l-.46 27.601-9.997 22.084c-12.404 27.406-17.974 40.64-40.293 95.76a5250 5250 0 0 1-23.78 57.735c-6.994 16.674-12.434 29.255-13.972 32.27-.672 1.317-2.227 3.096-2.572 3.321.178-.116-.698.337-1.781.78a198 198 0 0 1-4.319 1.69 639 639 0 0 1-13.021 4.763c-22.406 7.943-34.413 13.04-55.393 23.508-12.875 6.424-17.72 9.2-21.175 12.293-4.49 4.018-11.39 11.843-17.778 19.748s-12.162 15.729-14.396 20.093c-.474.926-.802 1.715-.924 2.545s.08 1.972.914 2.612 1.735.62 2.584.504c.85-.117 1.767-.396 2.853-.811 2.527-.965 5.303-3.312 8.891-7.082s7.9-8.986 13.004-15.707l7.26-9.56 8.365-4.087c6.13-2.993 10.295-5.586 13.596-8.53 3.311-2.955 7.68-5.53 11.306-6.971-1.317 1.01-2.12 1.686-3.617 2.765-2.996 2.159-5.246 4.183-7.732 7.483-2.487 3.3-5.24 7.855-9.512 15.3-4.805 8.375-7.909 14.488-9.436 18.766-.763 2.139-1.17 3.8-1.072 5.29.05.744.246 1.488.723 2.116s1.227 1.038 1.955 1.176c1.222.232 2.16-.127 3.371-.574 1.21-.448 2.582-1.097 4.016-1.88 2.867-1.563 5.959-3.636 8.21-5.694 2.985-2.728 6.588-7.872 9.696-13.153 3.108-5.28 5.657-10.423 6.144-13.857.045-.315.115-.519.606-.957.49-.439 1.426-1.016 2.922-1.67 2.992-1.308 8.168-2.946 16.498-5.315 18.262-5.194 23.172-7.4 33.308-14.943 1.355-1.008 2.426-1.76 3.577-2.584-1.26 1.486-2.728 3.052-4.395 4.44-.689.573-2.629 1.83-4.978 3.183a141 141 0 0 1-7.854 4.186c-7.826 3.85-12.108 5.434-21.63 8.01-3.326.899-6.523 1.83-9.013 2.613-1.244.39-2.31.744-3.14 1.043s-1.297.432-1.887.816c-1.79 1.165-2.88 3.266-3.312 6.697-.433 3.431-.42 8.476-.17 16.57.666 21.667 1.79 30.238 5.36 35.684.384.588.791 1.088 1.343 1.48.551.393 1.34.652 2.1.522 1.517-.259 2.255-1.423 2.943-2.771.578-1.133.64-2.3.79-4.133s.233-4.165.25-6.844c.037-5.358-.185-12.096-.675-18.8l-.875-11.962-.088-1.197 11.568-4.07c30.911-10.876 44.504-20.513 55.708-39.656 24.744-42.28 76.03-148.365 91.125-188.522 6.321-16.818 8.083-25.943 10.792-55.914 3.26-36.055 3.837-52.63 1.448-60.46-8.509-27.894-8.327-48.717.668-76.315 4.374-13.422 9.178-22.354 19.765-36.723 4.91-6.664 15.157-18.754 18.266-21.654.689-.643 1.243-1.131 1.58-2.047.169-.458.226-1.15-.053-1.736-.279-.588-.756-.922-1.172-1.124-.83-.403-1.672-.499-2.843-.591-1.172-.093-2.646-.126-4.504-.13"/><path fill="#1f6bd6" d="M553.171 442.111a2.2 2.2 0 0 0-1.59.664l-21.328 21.77c-11.778 12.02-25.976 27.568-31.785 34.844-2.813 3.521-5.511 6.726-7.565 9.021-.421.47-.666.706-1.027 1.094a63 63 0 0 1-.207-5.719c.046-5.534.53-12.5 1.396-17.844.76-4.683 3.305-14.67 5.57-21.744a329 329 0 0 0 2.977-9.775c.384-1.347.695-2.498.918-3.397s.397-1.192.397-2.193c0-.88-.065-1.79-.772-2.72-.707-.932-2.176-1.322-3.137-1.147-1.921.348-3.212 1.499-5.168 3.265-3.91 3.533-9.633 10.004-17.765 19.907-21.837 26.59-31.353 54.325-29.422 85.996 1 16.395 2.568 22.35 10.928 41.398 1.674 3.815 3.27 7.28 4.51 9.818a70 70 0 0 0 1.568 3.065c.211.381.39.688.584.974.097.144.19.278.363.467.087.095.189.205.4.356s3.701 5.995 4.48 5.995c.622 0 1.81-2.877 2.14-3.19.332-.311-3.245-3.588-3.15-3.8.186-.422.211-.678.243-.931.065-.505.061-.972.037-1.53-.047-1.114-.208-2.518-.47-4.07-.546-3.227-.245-11.498.81-20.757s2.796-19.725 4.84-28.192c3.347-13.86 9.115-27.523 14.229-34.277l.703-.928 5.129 7.234c8.399 11.848 26.747 36.032 37.091 48.891 7.285 9.055 19.326 19.976 32.764 29.809l5.762 4.218a2.212 2.212 0 0 0 3.437-1.191l7.471-26.807 7.469-26.804c.2-.72.024-1.492-.469-2.053l-4.533-5.164c-7.544-8.592-13.703-27.3-16.72-53.022-1.77-15.07-.32-31.484 3.66-42.761l2.032-5.762a2.212 2.212 0 0 0-2.076-2.95l-7.361-.029z"/><path fill="#4eedf9" d="M569.069 614.15c-.353-.002-.543.038-.717.073a6.5 6.5 0 0 0-.879.244c-.57.191-1.224.453-2.005.785-1.563.664-3.592 1.609-5.778 2.699-14.776 7.37-30.32 12.523-44.851 14.904-7.86 1.288-26.206 1.52-32.323.514-1.715-.282-2.807-.48-4.125-.316-.658.081-2.913-3.651-3.674-2.885s.366 5.806.366 6.48c0 .68.074 1.159.18 2.045.105.887.254 2.014.433 3.305.358 2.581.836 5.815 1.326 9.002.49 3.186.993 6.321 1.399 8.703.203 1.19.38 2.189.527 2.936.073.373.136.68.201.95.033.136.062.257.113.42.026.082.055.171.116.317.06.146.054.312.527.834.615.678.806.63.98.711.176.08.295.123.415.164.238.083.461.148.724.219q.79.213 1.979.476c1.584.355 3.678.78 5.94 1.198 16.092 2.976 30.709 1.763 51.21-4.13 6.101-1.753 13.856-4.582 20.436-7.294 3.29-1.356 6.275-2.68 8.629-3.842a44 44 0 0 0 3.039-1.627c.846-.507 1.483-.873 2.183-1.646.45-.498 1.07-1.319 1.371-2.332.301-1.014.318-2.025.229-3.243-.179-2.435-.835-5.988-2.09-12.71a505 505 0 0 0-2.01-10.239c-.28-1.342-.523-2.445-.717-3.262-.097-.408-.18-.739-.263-1.029a6 6 0 0 0-.14-.445c-.063-.17.273-.16-.706-1.139-.988-.988-1.692-.838-2.045-.84"/><path fill="#1f6bd6" d="M757.323 1237.076c-17.097-22.42-65.732-63.743-121.415-100.98-54.701-36.58-84.57-51.906-121.707-64.8-22.623-7.855-23.527-13.217-70.233-13.266-37.38-.039-56.146 2.615-68.709 10.464s-18.923 20.894-25.772 46.037c-10.182 37.38-12.679 43.803-34.78 43.33-8.518-.183-27.415-1.162-39.853-4.883-34.55-10.335-112.874-8.217-150.274.853-4.246 1.03 11.617-10.612 21.808-18.206 40.749-30.367 156.973-140.855 188.843-179.049 30.633-36.713 56.064-78.724 102.946-182.16 14.498-31.99 28.174-62.412 31.745-68.125l10.639-17.023 16.111 17.645c19.468 21.321 18.072 30.673 22.262 30.544 2.076-.065 2.914-20.195 14.985-36.366s29.183-19.173 36.718-23.114l14.887-7.786 15.313 9.958c16.223 10.55 28.781 45.351 45.059 95.395 21.015 64.61 35.618 132.311 48.468 242.838l4.418 38.005 14.349 21.256c18.647 27.623 32.036 59.982 42.05 88.503 7.569 21.56 22.279 91.001 20.596 92.684-.518.518-13.129-14.771-18.454-21.754"/><path fill="#0036a9" d="M437.061 926.573c-1.564.102-11.873 13-17.7 22.359-12.713 20.423-35.838 64.377-44.79 85.137-5.186 12.025-16.811 45.983-16.811 48.21 0 .534 1.125-.244 2.5-1.728s2.5-2.955 2.5-3.27 2.49-9.416 4.918-16.085c9.063-24.882 15.333-38.129 31.063-65.627 2.045-3.575 5.097-8.975 6.783-12 4.165-7.473 4.672-8.37 19.092-33.834 6.956-12.285 12.646-22.594 12.646-22.907q-.001-.246-.166-.255z"/><path fill="#0b1a8e" d="M522.497 1072.523c-1.92 0-3.301 1.258-4.057 2.498-.755 1.24-1.115 2.666-1.135 4.207-.007.539-.383 5.377-.984 11.739-.6 6.36-1.423 14.602-2.322 23.175-3.036 28.943-3.09 33.821-.686 60.399 3.34 36.909 2.073 80.487-3.74 127.533a4565 4565 0 0 0-3.16 26.139 1133 1133 0 0 0-.97 8.46 245 245 0 0 0-.27 2.546c-.064.64-.105.908-.112 1.404-.013.937.363 2.028 1.028 2.764.664.735 1.473 1.117 2.228 1.334 1.51.433 3.007.347 4.774.064 2.217-.356 14.181-1.615 25.777-2.66 46.646-4.209 84.384-9.957 144.662-22.034 8.226-1.648 16.11-3.205 22.184-4.385 6.072-1.18 10.565-2.01 11.21-2.103.608-.087 1.573-.257 2.485-1.02.912-.762 3.145-.714 3.317-1.762.343-2.097-1.723-5.711-2.505-10.124-1.563-8.827-5.372-25.3-12.767-57.012-7.569-32.458-11.429-48.955-14.184-58.164-1.377-4.605-2.478-7.43-3.752-9.568s-2.735-3.461-4.199-4.696c-5.188-4.376-19.817-14.812-36.305-26.191-16.487-11.38-34.66-23.551-46.421-30.918-11.27-7.06-29.844-17.357-46.217-25.938-8.187-4.29-15.811-8.145-21.7-10.943-2.944-1.4-5.45-2.533-7.412-3.338a37 37 0 0 0-2.554-.96c-.733-.239-1.216-.446-2.213-.446"/><path fill="#01085a" d="M507.869 1295.912c-1.72 15.409-3.335 28.696-4.033 32.664-1.199 6.815-3.568 29.65-5.947 55.738h3.268c.124-1.267.414-2.55.54-3.832 3.547-35.995 4.102-33.84 7.928-34.431 1.738-.269 9.01-.948 16.16-1.512 27.128-2.14 62.29-6.161 84-9.606 16.112-2.556 54.545-9.572 65.5-11.957 28.35-6.17 46.344-9.55 47.051-8.838.462.465 1.801 5.12 2.977 10.344 2.728 12.129 2.534 11.291 4.49 19.5.917 3.85 1.817 7.675 2 8.5s1.083 4.65 2 8.5 1.82 7.675 2.004 8.5c.794 3.55 2.099 9.268 3.383 14.832l3.416.138c-1.624-7.084-2.415-15.737-3.416-19.97a1963 1963 0 0 1-3.37-14.5c-1.26-5.568-2.881-12.608-7.597-33-1.018-4.4-4.189-12.853-5.618-18.903l-.489-2.07-1.76-.097c.214.908.42 1.785.617 2.615 1.43 6.05.194 13.262-.268 12.797-.707-.712-17.455 2.511-45.804 8.682-10.956 2.385-49.39 9.4-65.5 11.957-21.71 3.445-56.873 7.466-84 9.605-7.15.564-14.423 1.244-16.16 1.512-3.826.591-3.878-7.328-2.655-14.283.702-3.987 2.327-17.382 4.057-32.885z"/><path fill="#0b1a8e" d="M442.683 1058.595c-26.273-.604-51.847 3.674-64.004 9.877-15 7.48-17.013 5.49-22.466 21.691-3.15 9.443-5.289 19.726-10.7 39.053-1.194 4.262-2.62 11.062-4.502 14.951s-3.928 6.195-6.067 8.334c-5.08 5.08-16.576 5.644-27.764 5.314s-25.787-2.965-44.757-7.861c-28.94-7.469-30.632-7.62-66.895-6.348-20.595.723-44.817 2.997-52.621 4.768-6.354 1.442-9.975 2.225-12.584 2.27-.652.01-1.261 0-2.05-.247-.642-.2-1.491-.855-2.05-1.765-2.154 1.573-4.79 3.624-7.754 6.105-6.376 5.339-14.149 13.79-16.507 17.606-4.559 7.375-5.785 15.807-3.983 25.197s6.723 19.672 14.467 30.129c15.489 20.914 41.995 47.152 76.377 64.263 45.878 22.833 109.628 36.753 215.73 48.18 13.735 1.479 29.21 2.624 33.49 3.468l10.005.785c.368-10.092 1.302-17.417 1.736-30.92 1.598-49.777 4.557-107.287 4.408-154.388-.074-23.55-2.227-48.176-2.717-64.532s-2.13-24.558-2.919-28.877c-.337-1.845-.416-4.768-.464-6.182-.034-1.026-5.36.178-4.992-.846-.2-.01-.213-.021-.418-.025z"/><path d="M825.323 1668.116c-1.1-.45-3.175-.6-4.611-.332-4.006.746-8.632-2.266-12.293-8.006-4.767-7.472-12.065-26.56-14.607-38.202-1.201-5.5-2.604-11.575-3.118-13.5s-1.816-7.55-2.892-12.5a1116 1116 0 0 0-3.98-17.5 1227 1227 0 0 1-3.891-17c-2.088-9.495-9.344-41.203-12.243-53.5a710 710 0 0 1-3.441-15.5c-.856-4.125-2.155-9.525-2.888-12s-2.04-7.65-2.905-11.5-2.738-11.95-4.162-18l-4.59-19.5c-4.68-19.888-5.987-25.466-7.905-33.75-2.072-8.943-4.014-17.314-8.53-36.75-1.405-6.05-3.402-14.6-4.437-19s-2.63-11.375-3.546-15.5-2.488-10.2-3.497-13.5-2.545-9.375-3.415-13.5-2.426-11.1-3.458-15.5l-3.983-17a18733 18733 0 0 0-4.108-17.5c-11.043-46.914-13.619-57.949-15.501-66.402-1.48-6.649-.256-5.442-20.947-20.632-20.682-15.183-42.09-29.68-70.052-47.438-23.727-15.068-56.66-32.278-75.382-39.391l-4.866-1.85-.61 5.607c-1.792 16.51-4.763 45.123-5.808 55.94-1.213 12.567-1.12 14.428 2.36 47.166 1.443 13.581 1.438 67.566-.008 80.5-4.89 43.733-8.671 74.722-10.127 83-1.778 10.116-6.34 60.304-9.577 105.344l-1.534 21.345 5.974 6.386c6.97 7.452 8.08 10.547 8.036 22.425-.042 11.559-1.658 19.063-10.045 46.66-2.815 9.262-5.972 19.652-7.015 23.09-4.75 15.649-5.926 19.46-9.332 30.25-5.808 18.398-10.656 32.191-12.83 36.5-3.833 7.601-10.962 16.04-15.284 18.09-10.708 5.081-12.86-6.098-12.916-67.09-.02-21.45 1.032-75.675 2.336-120.5 1.305-44.825 2.588-90.554 2.85-101.62l.48-20.12-3.496-.655c-1.923-.361-11.98-1.53-22.35-2.596-119.082-12.255-182.486-26.213-232.356-51.153-39.27-19.639-70.371-46.404-84.95-73.106-14.397-26.372-8.189-48.592 19.32-69.146 12.025-8.984 21.687-15.673 23.962-16.587 5.068-2.036 33.07-26.013 69.508-59.517 10.17-9.35 23.478-21.486 29.575-26.97 20.185-18.153 78.033-76.676 88.993-90.03 16.962-20.669 26.967-35.523 43.779-65 9.75-17.094 29.246-56.097 40.241-80.5 4.832-10.725 9.624-21.3 10.649-23.5s6.181-13.675 11.46-25.5c17.616-39.464 27.935-60.58 35.003-71.63 3.735-5.839 4.178-9.285 2.427-18.87-.502-2.75-1.847-11.075-2.989-18.5l-2.684-17.443c-.546-3.534-1.952-6.243-10.063-19.381-1.248-2.022-3.708-6.488-5.465-9.926s-3.491-6.25-3.852-6.25c-.362 0-.977 6.413-1.367 14.25-.727 14.615-1.179 19.92-3.98 46.75-2.404 23.017-5.468 33.482-18.885 64.5-5.987 13.842-9.733 22.012-27.969 61-17.49 37.393-51.683 102.8-58.551 112-11.767 15.763-21.813 22.246-49.662 32.048l-12 4.223.159 4.865c.087 2.675.482 11.389.877 19.364.646 13.024.528 14.907-1.16 18.5-1.534 3.266-2.458 4.056-5.036 4.307-7.221.7-10.998-9.585-11.997-32.675-.65-15.017-.671-15.122-2.419-12.248-1.476 2.427-1.816 5.88-2.093 21.257-.282 15.614-.616 18.933-2.238 22.2-3.893 7.841-12.151 8.336-15.267.915-.935-2.226-1.784-8.068-2.085-14.342-.504-10.482-.532-10.581-2.875-10.133-2.266.433-2.366.809-2.366 8.932 0 17.277-6.208 27.457-14.15 23.207-3.25-1.74-4.852-7.09-4.83-16.138.019-7.765.516-12.286 2.834-25.782.52-3.025.82-5.632.67-5.793-.152-.16-3.144 2.697-6.65 6.35-7.027 7.324-10.319 9.443-14.67 9.443-3.017 0-6.22-2.631-6.182-5.079.04-2.572 3.759-9.715 8.132-15.617 4.274-5.77 20.926-25.333 25.975-30.517 2.296-2.357 29.83-16.643 42.871-22.243 10.965-4.71 29.486-11.78 41.172-15.716l12.697-4.279 2.025-4.524c8.903-19.9 25.774-60.562 42.329-102.025 4.941-12.375 9.593-23.85 10.338-25.5s2.892-6.825 4.772-11.5c3.073-7.643 11.1-26.156 17.128-39.5 1.242-2.75 4.54-10.175 7.328-16.5l5.07-11.5.625-41.933c.343-23.064.794-42.208 1.001-42.543.208-.336.687-7.116 1.066-15.067 1.169-24.547 1.427-27.212 4.559-46.957 2.094-13.208 2.266-13.915 6.426-26.5 9.567-28.94 27.743-39.86 63.083-37.896l12.381.688v-17.762c0-17.733-.004-17.761-2.17-17.195-2.982.78-14.978-1.671-22.83-4.665-5.674-2.163-13.968-6.442-20.525-10.589-1.816-1.148-2.954-.588-11 5.41-19.56 14.583-28.898 17.944-54.32 19.553-15.868 1.003-32.126 3.65-40.53 6.598-2.132.747-4.27 1.359-4.75 1.359-2.955 0 1.2-15.034 6.634-24 3.228-5.327 16.935-19.541 20.983-21.759 3.474-1.903 1.259-2.147-10.015-1.102-7.724.717-14.348.69-22.352-.092-17.597-1.717-28.05-5.907-43.533-17.45-4.867-3.628-9.859-6.597-11.094-6.597-7.1 0-20.547-8.162-30.213-18.337-8.56-9.012-12.244-15.346-16.387-28.178-2.318-7.18-4.557-11.806-7.972-16.466l-4.75-6.482 10.662-4.234c29.282-11.63 42.268-22.58 50.166-42.303 1.211-3.025 2.568-6.4 3.015-7.5s2.924-8.3 5.505-16c6.735-20.093 11.242-28.284 21.047-38.25l8.116-8.25h-5.76c-3.401 0-7.544-.764-10.114-1.866-8.064-3.457-17.472-14.574-22.558-26.656-2.308-5.482-5.351-21.226-5.142-26.604.072-1.856-.407-6.299-1.064-9.874-1.554-8.45-.603-17.306 1.778-16.564 21.521 6.707 43.954 6.107 73.173-1.956 11.554-3.189 26.043-7.788 54.54-17.311 50.283-16.807 71.75-22.17 88.729-22.17 20.137 0 34.892 7.834 46.615 24.75l2.252 3.25h11.015c13.273 0 24.433 2.52 33.494 7.561 4.969 2.765 23.344 16.758 25.355 19.309.275.349 4.325 3.838 9 7.754 25.208 21.115 38.038 24.015 73.371 16.582l8.872-1.867-.443 10.58c-.244 5.82-1.01 11.632-1.703 12.917-1.51 2.8-.457 4.376 1.31 1.96 2.426-3.318 20.722-15.796 23.16-15.796.376 0 .373 1.463-.007 3.25-.379 1.788-1.525 8.875-2.547 15.75-4.179 28.128-9.777 52.933-16.815 74.5-8.938 27.394-21.49 55.83-34.66 78.523-26.283 45.286-49.76 65.89-100.832 88.496-5.937 2.627-11.168 5.498-11.626 6.38-.458.88-1.138 4.54-1.512 8.133-.738 7.09-1.74 9.598-3.42 8.559-.593-.366-3.118-1.28-5.612-2.03l-4.536-1.365v27.304l18.868-.263c21.546-.3 27.384.688 38.132 6.452 7.844 4.207 16.095 13.136 21.232 22.98 8.019 15.361 16.044 44.715 21.278 77.831.87 5.5 2.484 15.625 3.588 22.5 3.065 19.08 5.761 36.203 7.874 50 3.703 24.178 4.218 26.522 6.817 31a407 407 0 0 1 4.78 8.5c1.193 2.2 6.571 12.1 11.952 22 12.378 22.775 23.868 45.773 34.97 70l11 24a4001 4001 0 0 1 7.478 16.5c2.853 6.325 14.408 30.187 25.678 53.027l20.493 41.528 17.18 4.852c9.449 2.67 20.105 5.66 23.68 6.646s10.325 2.909 15 4.273c6.22 1.815 12.252 2.676 22.489 3.21 9.712.507 14.756 1.199 16.5 2.261 10.721 6.533 19.296 12.856 20.434 15.069 2.04 3.966 6.235 29.977 5.249 32.546-.412 1.073-1.868 1.588-4.49 1.588h-3.883l-.639 9.007c-.712 10.028-2.666 15.993-5.24 15.993-3.065 0-8.235-4.009-10.787-8.363-1.383-2.36-3.439-7.819-4.568-12.129-1.877-7.166-4.191-11.508-6.134-11.508-.417 0-.96 5.063-1.204 11.25-1.028 25.953-9.864 42.698-20.715 39.254-5.155-1.637-5.923-8.439-3.043-26.965 1.926-12.386.371-12.501-8.977-.667-7.408 9.379-13.145 13.99-18.34 14.741-3.97.574-7.774-1.383-9.44-4.858-1.116-2.327-1.017-3.217.742-6.665 1.116-2.188 4.283-6.232 7.038-8.987 4.533-4.533 5.008-5.436 5.008-9.527v-4.52l-5.75-1.574c-34.552-9.457-44.895-16.5-56.518-38.482-2.471-4.675-8.756-16.375-13.965-26-5.21-9.625-14.21-26.275-20.003-37s-14.666-27.15-19.72-36.5c-12.798-23.674-41.41-81.28-48.427-97.5-24.964-57.697-24.914-57.57-36.468-94.5-7.155-22.869-10.233-33.189-17.15-57.5-3.364-11.825-6.363-22.175-6.663-23-.91-2.493-1.029-2.12-12.328 38.5-3.366 12.1-6.783 24.365-7.593 27.255-1.3 4.638-1.299 6.165.018 13 2.325 12.069 5.389 29.287 6.094 34.245 1.39 9.77 2.525 11.99 7.404 14.49 8.075 4.139 15.334 10.354 21.346 18.279 3.226 4.252 6.142 8.406 6.48 9.231.337.825 1.915 3.632 3.506 6.238 7.51 12.298 24.558 56.279 33.242 85.762.891 3.025 2.753 9.325 4.138 14 7.498 25.308 18.387 72.51 23.877 103.5 5.648 31.886 13.346 85.727 19.31 135.048l1.698 14.048 8.577 14.452c15.301 25.783 28.353 50.488 35.106 66.452 10.173 24.047 19.449 53.306 26.363 83.155 4.613 19.918 9.765 46.207 10.942 55.845.27 2.2.904 6.025 1.41 8.5 3.596 17.549 8.288 51.269 11.552 83 .82 7.975 1.95 18.325 2.51 23 1 8.336 3.063 33.613 5.357 65.627l1.155 16.127 5.218 4.121c5.887 4.65 13.918 15.935 18.45 25.925 10.116 22.306 23.235 65.013 29.74 96.814 3.993 19.519 4.351 36.153.931 43.218-1.334 2.757-3.158 4.84-4.77 5.448-2.192.828-2.627 1.634-2.716 5.044-.109 4.13-2.863 7.676-5.964 7.676-.764 0-1.389.8-1.389 1.778 0 3.533-2.987 6.376-6.39 6.083-1.79-.154-4.248.473-5.619 1.432-2.67 1.871-3.51 1.968-6.491.747m4.3-4.24c.768-.768 1.235-5 1.298-11.75l.098-10.55 1.405 6.5c.772 3.575 1.69 8.21 2.04 10.301.522 3.118 1.009 3.748 2.707 3.5 2.74-.399 3.41-3.207 3.652-15.301.286-14.34 1.522-17.27 2.188-5.186.53 9.645 1.937 13.72 3.731 10.816.46-.744 1.177-7.265 1.593-14.491.802-13.94 1.166-14.655 2.288-4.503.52 4.705 1.121 6.419 2.334 6.652 4.863.934 5.341-21.174.915-42.288-5.063-24.15-15.469-61.631-19.99-72-.48-1.1-2.961-7.4-5.514-14-7.3-18.868-14.89-30.309-24.55-37.004-3.974-2.754-3.995-2.802-4.01-9.382-.01-3.638-.478-12.014-1.042-18.614s-1.89-22.35-2.946-35c-3.728-44.613-9.639-93.393-15.39-127-3.71-21.681-17.955-41.06-23.107-47.5-6.154-7.692-26.982-27.875-40.101-38.858-19.655-16.454-20.828-17.354-21.193-16.259-.17.51.812 5.581 2.182 11.271 3.578 14.859 9.073 38.116 11.068 46.846a5087 5087 0 0 0 7.567 32.5c1.04 4.4 5.979 25.55 10.977 47 8.147 34.965 10.945 46.95 14.007 60 .517 2.2 2.076 8.95 3.466 15s3.415 14.825 4.5 19.5c1.086 4.675 2.886 12.438 4 17.25a5912 5912 0 0 0 4.087 17.5 3311 3311 0 0 1 4.004 17.25c1.07 4.675 2.618 10.975 3.443 14 .824 3.025 2.643 10.675 4.041 17s3.182 14.2 3.964 17.5 2.793 12.075 4.469 19.5 3.48 15.3 4.006 17.5c.528 2.2 2.096 8.95 3.486 15s3.415 14.825 4.5 19.5a5617 5617 0 0 1 4.027 17.5c5.34 23.408 6.507 27.695 10.214 37.5 4.503 11.908 7.454 17.434 11.162 20.897 2.13 1.99 2.825 2.181 4.095 1.127 1.162-.964 1.556-3.58 1.642-10.896l.112-9.628 1.721 8.754c1.629 8.288 3.623 13.746 5.023 13.746.347 0 1.171-.54 1.831-1.2m-378.177-19.05c-.337-3.987-.21-8.825.28-10.75.801-3.143.903-2.832.995 3.059.062 3.993.665 7.318 1.54 8.5 1.333 1.797 1.563 1.82 3.098.308 1.308-1.288 1.427-2.067.562-3.685-1.49-2.783-1.253-14.87.376-19.182 1.21-3.201 1.277-2.727.788 5.562-.526 8.934.425 13.438 2.838 13.438 3.292 0 14.733-33.44 35.755-104.5 4.796-16.213 6.315-23.548 6.834-33 .761-13.873-.36-17.408-7.845-24.732l-5.976-5.847 1.576-22.21c3.487-49.151 6.905-85.555 11.57-123.211 1.09-8.8 2.894-23.875 4.01-33.5s2.567-21.775 3.223-27c1.558-12.398 1.55-79.015-.011-92.5-.637-5.5-1.644-14.109-2.239-19.13-.756-6.387-.772-11.946-.053-18.5.565-5.154 1.917-18.145 3.004-28.87s2.197-20.85 2.467-22.5.743-5.608 1.051-8.795l.562-5.795-3.3-1.38c-3.024-1.263-14.945-4.513-22.228-6.06-8.835-1.875-37.58-4.79-38.471-3.9-.645.646-.454 9.24.555 24.957 4.463 69.522 4.508 48.536-.495 231.473-1.121 40.975-2.701 100.6-3.512 132.5s-2.015 72.4-2.676 90c-1.817 48.315-.269 104.208 3.059 110.425 2.277 4.255 3.292 2.283 2.663-5.175m-5.113-304c.457-1.275 1.223-26.383 4.022-131.84 1.444-54.407 1.444-61.757-.006-84.5-.874-13.7-2.096-33.685-2.717-44.41-.62-10.725-1.208-19.613-1.304-19.752-.188-.27-33.762 1.616-39.369 2.211-1.85.197-6.27.906-9.821 1.576l-6.458 1.218-14.28 28.696c-16.908 33.975-20.726 40.66-27.588 48.31-5.554 6.193-14.355 13.352-19.956 16.233-4.557 2.345-18.295 3.105-28.033 1.552-4.125-.658-8.625-1.36-10-1.56s-5.875-1.47-10-2.825c-6.295-2.066-10.71-3.396-17.5-5.272-.55-.152-6.4-1.48-13-2.95-10.44-2.324-14.925-2.736-34.5-3.167-25.265-.556-37.81.315-59.985 4.165-11.796 2.047-18.316 3.839-28.412 7.805-15.145 5.951-26.525 20.178-27.423 34.284-1.702 26.729 32.89 66.515 80.82 92.958 18.606 10.264 46.624 21.43 70 27.898 9.993 2.764 39.345 9.455 48.5 11.055 4.95.865 10.35 1.837 12 2.16 7.772 1.522 32.896 5.302 53 7.975 14.164 1.884 55.515 6.568 71 8.043 3.28-.272 8.459 3.037 11.01.137m329.14-85.222c-.312-.81-1.965-8.347-3.675-16.75-2.977-14.63-10.409-44.747-13.64-55.278-4.791-15.618-7.127-22.37-12.108-35-9.909-25.125-21.579-48.21-39.935-79l-8.942-15-1.206-10.5c-3.815-33.204-9.765-76.994-15.082-111-3.077-19.676-8.989-51.85-11.943-65-1.05-4.675-2.81-12.55-3.912-17.5-13.53-60.805-37.583-129.276-54.967-156.47-4.635-7.25-14.462-17.384-20.013-20.637l-4.465-2.617-9.476 9.362c-14.23 14.059-22.815 24.628-50.278 61.906l-7.491 10.17-3.665-4.131c-6.842-7.71-15.972-22.528-24.543-39.833-4.7-9.487-8.69-17.25-8.868-17.25s-2.764 4.163-5.747 9.25c-7.652 13.054-13.718 25.931-43.222 91.75-15.414 34.387-19.486 43.038-31.54 67-12.276 24.4-16.455 31.984-30.58 55.5-23.606 39.3-52.08 70.62-130.924 144-47.785 44.475-75.723 68.441-94.142 80.76-15.188 10.157-18.42 12.628-14.786 11.307 4.407-1.602 17.5-4.713 26-6.177 22.176-3.82 34.407-4.672 59.373-4.132 22.951.496 36.336 2.345 51.815 7.157 2.646.822 8.637 2.693 13.312 4.156 4.675 1.464 9.4 2.797 10.5 2.963s5.367.84 9.483 1.497c11.1 1.773 22.571.917 28.02-2.09 7.938-4.381 10.761-10.29 17.528-36.684 6.5-25.359 8.452-31.231 11.908-35.83 13.45-17.904 36.917-24.69 85.061-24.597 47.142.09 78.421 8.895 127.643 35.932 52.18 28.661 127.058 81.636 164.818 116.606 17.525 16.23 33.325 35.189 36.987 44.382.712 1.788 1.738 3.25 2.28 3.25s.732-.662.421-1.472M349.87 1134.326c2.976-3.986 11.013-18.83 19.628-36.25 8.024-16.225 15.092-29.83 15.707-30.235 2.785-1.831-1.226-.476-6.995 2.365-13.758 6.773-20.644 18.555-27.975 47.87-2.545 10.175-5.264 19.513-6.043 20.75-.812 1.29-.977 2.25-.388 2.25.566 0 3.295-3.037 6.066-6.75m502.494-139.642c2.681-1.878 6.957-11.553 8.885-20.108.922-4.088 1.575-11.576 1.57-18l-.007-11-6.995-4.803c-3.847-2.642-6.995-4.58-6.995-4.306s1.516 3.824 3.368 7.89c6.886 15.108 6.84 17.677-.345 19.83-3.702 1.11-3.981 1.465-4.546 5.786-.33 2.531-1.023 6.763-1.539 9.402-1.068 5.466-1.228 12.78-.331 15.12.75 1.953 4.278 2.05 6.935.19m-624.065-13.109c2.502-5.064 3.802-24.213 1.787-26.321-3.156-3.302.029-12.706 9.977-29.462 2.215-3.73 3.811-7 3.547-7.263-.264-.264-2.96.617-5.993 1.959-8.504 3.76-12.134 9.388-14.245 22.087-2.846 17.118-3.482 22.736-3.516 31.027-.05 12.403 4.249 16.463 8.443 7.973m24.918-1.821c1.878-2.515 2.143-4.44 2.448-17.75.188-8.21.08-14.929-.242-14.929-.32 0-2.646 1.575-5.168 3.5s-5.056 3.5-5.632 3.5c-.694 0-.904 4.001-.623 11.87.581 16.318 3.774 21.1 9.217 13.809m567.028.707c2.273-1.438 6.37-5.548 9.105-9.133 2.735-3.586 5.815-7.607 6.844-8.938 1.665-2.153 1.702-2.55.337-3.616-1.99-1.556-8.677-12.066-11.091-17.431-1.724-3.831-2.274-4.24-6.5-4.84-10.142-1.438-22.502-9.786-27.193-18.366a119 119 0 0 0-3.39-5.722c-.997-1.562 1.572.774 5.709 5.19 8.508 9.083 15.082 12.918 25.413 14.825l6.444 1.189 4.459 8.345c5.632 10.54 9.505 15.44 13.832 17.492 4.147 1.968 5.676 2.021 8.057.28 1.728-1.263 1.4-2.31-5.864-18.75-4.232-9.576-8.418-19.108-9.301-21.183s-3.548-5.562-5.922-7.75c-5.006-4.613-4.122-5.061 2.683-1.358 4.362 2.375 5.11 3.336 7.974 10.25 2.619 6.32 3.853 8.06 7.194 10.13 2.218 1.375 7.24 4.836 11.16 7.692s8.97 6.53 11.223 8.165c3.488 2.532 4.254 3.763 5.168 8.308 1.8 8.948 5.128 16.565 8.46 19.37 4.142 3.485 4.73 2.324 5.463-10.798.535-9.558.416-10.495-1.806-14.135-4.624-7.574-14.503-16.966-23.747-22.578-5.71-3.465-8.582-5.754-7.827-6.234.657-.418 4.14-.766 7.74-.775 5.773-.013 7.19.395 12 3.46 3 1.91 5.998 3.485 6.664 3.5.665.014 1.731 1.938 2.369 4.275 2.912 10.678 4.348 14.166 7.135 17.341 3.232 3.68 6.825 4.567 6.726 1.659-.032-.962-.427-3.775-.877-6.25a848 848 0 0 1-2.04-12c-.673-4.125-1.92-8.285-2.772-9.244-.853-.96-5.646-4.393-10.65-7.63l-9.101-5.887-13.5-.715c-12.102-.641-15.52-1.28-33-6.175-25.908-7.255-32.19-9.064-40.5-11.661l-7-2.188-11.198-22c-12.5-24.56-33.26-67.563-39.748-82.337-7.532-17.15-30.703-66.38-35.848-76.163-10.63-20.212-26.116-48.77-29.543-54.482-3.75-6.25-4.1-7.72-8.092-34.018-15.374-101.285-21.141-127.58-32.891-149.968-8.847-16.857-25.235-26.532-44.94-26.532-4.07 0-4.11.036-6.25 5.75-4.547 12.137-5.436 17.282-5.398 31.25.05 18.625 3.306 37.033 9.442 53.38 1.991 5.305 8.062 13.62 9.943 13.62.41 0 1.775-3.618 3.034-8.04 2.606-9.15 2.794-7.534-4.092-35.21-3.89-15.633-4.78-20.882-3.01-17.75.465.825 5 15.45 10.074 32.5 11.284 37.908 11.41 38.331 13.9 47 4.33 15.07 19.344 64.916 20.15 66.9.47 1.155 2.304 6.825 4.077 12.6 1.772 5.775 8.14 21.975 14.153 36 11.425 26.653 11.892 27.717 19.981 45.5 6.443 14.163 27.23 55.711 37.523 75 9.2 17.238 31.747 59.147 45.194 84 5.06 9.35 11.177 20.825 13.596 25.5 9.77 18.884 22.37 27.51 50.588 34.635 5.695 1.438 10.85 3.12 11.456 3.74.707.723.884 3.458.496 7.656-.562 6.055-.904 6.8-4.703 10.232-2.254 2.036-5.354 5.515-6.89 7.731-2.704 3.902-2.735 4.093-.993 6.018 2.412 2.665 4.964 2.504 9.911-.626m-542.307-5.136c1.038-2.677.704-19.635-.706-35.836l-.616-7.086 2.853-1.057c1.57-.582 7.129-2.504 12.354-4.27 23.126-7.822 37.795-17.101 47.381-29.971 6.9-9.263 42.304-76.983 59.093-113.03 2.69-5.775 7.325-15.675 10.3-22 17.028-36.19 28.609-64.216 32.232-78 2.826-10.754 6.404-45.729 7.824-76.5.778-16.836.759-17.083-1.968-25.582-3.254-10.14-5.866-25.39-5.851-34.157.028-17.006 6.494-42.926 14.2-56.928 7.453-13.544 19.692-29.89 30.537-40.787 3.09-3.105 3.251-3.528 1.595-4.18-5.5-2.165-26.94.779-35.33 4.85-18.103 8.785-28.547 35.2-31.942 80.784-2.58 34.642-3.06 45.402-3.696 82.924l-.677 39.923-6.409 14.077c-3.524 7.742-6.816 14.976-7.315 16.076-8.718 19.22-16.612 38.075-33.495 80-18.246 45.312-23.037 56.992-27.485 67-.49 1.1-2.992 6.95-5.563 13-7.41 17.444-9.235 21.261-10.55 22.074-1.043.644-20.806 7.75-28.881 10.383-3.059.998-12.765 4.762-15.5 6.012-1.1.502-5.375 2.35-9.5 4.105s-14.925 6.919-24 11.474c-17.94 9.004-16.86 8.099-35.077 29.452-9.012 10.564-15.923 20.96-15.923 23.95 0 1.751 4.055 1.18 7.726-1.09 3.476-2.148 14.125-14.55 21.988-25.607 3.85-5.413 4.953-6.238 12.776-9.55 6.232-2.638 9.85-4.928 13.287-8.414 3.43-3.479 6.475-5.409 11.125-7.053 3.522-1.246 6.573-2.095 6.78-1.887.208.207-2.487 2.243-5.987 4.524-3.501 2.28-7.282 5.155-8.402 6.387-2.867 3.154-13.843 21.72-18.437 31.187-4.512 9.3-4.93 12.558-1.606 12.543 4.136-.018 12.202-4.644 16.9-9.693 4.22-4.536 12.802-20.182 12.882-23.487.083-3.434 3.24-5.051 17.12-8.774 23.4-6.276 26.954-7.82 37.683-16.36 4.034-3.213 7.538-5.636 7.788-5.386s-1.047 2.424-2.882 4.832c-3.465 4.547-11.28 9.742-20.741 13.788l-7.5 3.208c-1.859.796-4.271 1.48-19.819 5.615-9.032 2.402-9.09 2.588-8.373 26.568.58 19.38 1.659 27.031 4.583 32.495 1.611 3.011 3.94 2.768 5.224-.546m604.87-42c-.034-1.668-1.794-3.094-8.235-6.672-7.8-4.333-9.199-3.556-1.66.921 2.778 1.65 5.764 3.787 6.636 4.75 1.637 1.81 3.286 2.315 3.259 1.001M521.323 666.055c14.241-2.386 28.623-6.647 41-12.146 13.505-6 13.41-5.916 12.411-11.025-.463-2.37-1.786-9.699-2.94-16.288-1.153-6.588-2.296-12.178-2.54-12.422-.243-.243-5.658 2.143-12.033 5.303-12.372 6.133-27.996 11.681-38.476 13.663-7.408 1.402-25.29 1.671-35.3.532l-6.876-.782.597 3.343c.33 1.839 1.37 8.743 2.312 15.343s1.78 12.111 1.86 12.248c.279.47 21.993 4.09 24.985 4.166 1.65.041 8.4-.83 15-1.935m-55.41-57.15c-1.816-5.21-1.305-25.76.961-38.657 3.407-19.382 8.534-35.843 13.914-44.672 6.99-11.473 6.023-10.82 8.669-5.844 1.28 2.407 4.248 6.903 6.597 9.99 2.348 3.087 5.169 6.852 6.269 8.366s4.49 5.843 7.532 9.62c3.043 3.777 8.796 11.443 12.785 17.035 9.227 12.934 20.173 23.944 34.732 34.934 6.325 4.775 11.638 8.506 11.804 8.29.328-.422 2.494-7.97 8.15-28.391 1.98-7.15 4.499-16.068 5.598-19.819l1.998-6.819-3.953-3.836c-7.242-7.029-13.407-23.558-17.103-45.854-3.514-21.2-2.538-37.925 3.119-53.455 1.158-3.18 1.876-6.013 1.594-6.294-.281-.282-4.28-.155-8.884.282l-8.372.795-22.002 22.5c-13.71 14.02-25.28 26.894-30.697 34.158-4.782 6.412-9.168 11.951-9.748 12.309-.703.435-1.053-1.95-1.053-7.184 0-15.906 3.164-31.974 9.89-50.224 1.71-4.643 3.11-8.53 3.11-8.637s-1.374-.397-3.054-.643c-2.781-.408-3.795.365-11.318 8.636-7.988 8.783-19.22 22.911-23.124 29.085-7.831 12.387-14.547 30.78-16.525 45.26-1.944 14.225-.815 35.474 2.484 46.74 2.753 9.403 16.617 38.759 17.316 36.664.22-.664-.089-2.614-.689-4.334m33.535-115.587c3.184-4.258 14.696-16.827 25.582-27.93l19.793-20.189v-34.052l-5.909-5.786c-6.399-6.266-8.591-11.295-9.717-22.286-1.381-13.494 6.019-34.642 16.806-48.029 4.238-5.258 4.668-6.145 2.684-5.526-5.959 1.86-13.664 1.775-19.193-.214-6.087-2.188-17.783-9.579-21.595-13.645l-2.426-2.586h2.925c5.589-.002 21.986-5.152 32.424-10.185 13.998-6.75 22.366-15.04 29.15-28.884 9.345-19.073 13.208-36.596 13.21-59.931 0-14.698-.287-17.555-2.627-26.155-2.93-10.767-6.817-19.91-12.399-29.158-4.188-6.94-17.343-24.687-18.298-24.687-.34 0-2.626 2.056-5.078 4.57-12.45 12.76-28.989 22.639-42.458 25.36-3.3.667-6.847 1.455-7.882 1.75-1.09.312 1.323-3.127 5.737-8.177 6.974-7.977 14.425-19.056 13.463-20.018-.218-.218-3.572 3.076-7.454 7.32-17 18.584-30.521 24.762-62.864 28.724-21.542 2.638-26.638 3.515-35.148 6.048l-8.147 2.425-.739 13.749c-1.451 27.015.333 39.388 11.79 81.749 1.043 3.858 1.162 8.313.521 19.5-1.697 29.642 2.367 47.697 14.344 63.724 14.028 18.77 42.129 37.397 62.824 41.644 10.553 2.165 15.226 1.08 28.055-6.518 3.332-1.974 3.282-1.864-1.05 2.288-2.501 2.4-5.989 5.129-7.75 6.065l-3.2 1.704v42.854l-3.576 9.87c-5.911 16.31-11.646 44.86-8.638 43.001.577-.356 3.654-4.132 6.839-8.39m-21.874-130.382c-3.876-1.447-3.541-4.66 1-9.597 4.946-5.376 8.99-7.263 15.565-7.263 6.608 0 10.685 2.64 10.685 6.918 0 3.757-2.402 5.662-10.045 7.966-8.663 2.612-13.895 3.212-17.205 1.976m6.426-6.87c2.003-4.77.966-5.135-2.587-.913-3.031 3.602-3.258 4.927-.839 4.913 1.09-.006 2.382-1.516 3.426-4m9.824 1.743c7.916-1.99 10.279-5.547 5.107-7.688-4.652-1.927-8.251-.979-10.825 2.853-2.809 4.182-3.085 7.625-.532 6.641.962-.37 3.775-1.184 6.25-1.806m-42.46-59.811c-2.007-2.793-4.059-6.056-4.56-7.25-1.821-4.34-3.63-5.798-6.348-5.116-1.7.427-4.096-.086-7.026-1.504-24.034-11.635-26.18-82.02-3.039-99.67 5.405-4.123 13.462-4.123 18.866 0 12.863 9.81 19.438 39.556 14.95 67.628l-.639 3.99-8.622.118c-11.883.163-14.543.837-14.961 3.787-.433 3.057 3.667 15.241 10.38 30.845 2.9 6.738 5.13 12.25 4.959 12.25s-1.954-2.285-3.96-5.078m-10.096-18.172c-.38-1.237-1.54-4.5-2.578-7.25-2.687-7.12-3.385-14.528-1.594-16.91 1.532-2.04 8.189-3.387 17.371-3.517 3.444-.049 5.321-.538 5.683-1.48 1.345-3.505 1.806-20.836.778-29.236-1.93-15.77-6.216-26.515-13.034-32.675-5.692-5.142-10.448-5.142-16.14 0-7.136 6.447-11.367 17.536-13.156 34.475-2.576 24.392 4.034 49.08 15.145 56.567 1.857 1.252 4.466 2.276 5.796 2.276 2.047 0 2.313-.346 1.729-2.25m46.617-47.184c-4.125-23.064 1.578-60.485 23.277-66.528 37.839-10.537 51.896 85.548 19.006 103.713-18.925 10.452-37.426-10.023-42.283-37.185m41.01 33.006c25.42-16.822 21.087-97.75-15.97-95.519-6.154.37-11.7 6.395-15.95 14.886-8.896 17.772-8.343 47.029 1.172 65.679 4.38 8.584 8.22 12.973 13.835 15.813 6.423 3.248 11.062 3.012 16.912-.859m-170.277 151.34c4.238-1.055 14.456-2.396 22.706-2.98 30.316-2.147 41.774-5.623 57.5-17.443 4.125-3.1 8.175-6.062 9-6.58 1.231-.773.873-1.419-2-3.602-8.088-6.148-24.74-24.02-28.253-30.321-8.472-15.202-11.537-33.298-10.032-59.23.44-7.56.452-14.985.028-16.5-11.509-41.186-14.68-61.659-12.688-81.913.67-6.821.978-12.643.683-12.938s-3.3.859-6.677 2.564c-5.952 3.005-8.072 3.195-8.051.722.019-2.319 5.153-12.23 7.74-14.941 3.576-3.748 2.23-3.466-6.665 1.397-11.265 6.159-19.528 12.308-29.692 22.098l-9.106 8.772-.644-6.155c-1.593-15.24-.396-24.17 4.746-35.4 3.071-6.709 10.29-17.181 16.04-23.273 4.318-4.573 14.074-10.585 19.071-11.75 2.857-.667 2.797-.55-1.241 2.43-2.333 1.722-4.596 3.131-5.03 3.131-1.295 0-12.663 12.087-16.989 18.062-9.488 13.109-14.375 27.886-12.767 38.608l.665 4.43 6.445-6.029c11.537-10.792 23.257-17.8 49.417-29.553 10.72-4.815 33.673-12.179 34.715-11.136.334.334-22.198 10.618-23.264 10.618-1.095 0-15.818 10.337-19.638 13.788-3.261 2.946-6.813 7.894-6.813 9.491 0 .209 2.588-.887 5.75-2.436 11.826-5.789 26.146-9.04 52.25-11.862 12.466-1.348 27.032-4.95 33.718-8.338 11.71-5.934 25.602-19.273 39.27-37.707 3.306-4.46 6.012-7.467 6.012-6.683 0 .785-.868 4.823-1.93 8.973-2.351 9.193-7.809 20.28-13.852 28.138-5.132 6.673-4.757 6.765 6.512 1.61 8.275-3.786 13.45-7.443 22.908-16.19 13.376-12.372 11.148-11.933 18.041-3.553 13.87 16.86 24.327 36.072 28.178 51.769 5.293 21.57 3.42 49.292-5.028 74.454-10.167 30.28-26.174 44.619-59.781 53.549l-4.453 1.183 2.453 1.944c4.208 3.335 13.263 7.595 17.731 8.34 5.432.908 12.571-.738 22.13-5.103 4.074-1.86 7.523-3.267 7.665-3.125.14.142-3.32 4.308-7.689 9.258-18.812 21.31-24.743 35.3-23.67 55.832.518 9.89 1.42 12.203 7.215 18.507 2.917 3.174 9.43 7.084 14.32 8.599 1.91.591 2.25.327 2.25-1.748 0-4.8 3.329-17.284 6.073-22.778 2.87-5.745 10.823-13.83 17.033-17.318l3.394-1.907-2.107 2.407c-11.542 13.177-18.216 22.973-15.591 22.882 1.611-.056 30.59-14.026 38.311-18.47 32.371-18.629 54.473-44.235 77.49-89.777 20.401-40.364 31.826-75.97 39.91-124.388 2.535-15.173 2.942-19.341 1.891-19.341-1.419 0-6.362 3.872-25.363 19.87l-5.191 4.37 3.199-6.336c4.044-8.013 6.951-18.42 6.951-24.891 0-5.801.133-5.755-9.688-3.332-4.752 1.173-11.198 1.692-21.312 1.715-13.488.032-14.983-.157-21.421-2.7-11.479-4.536-20.226-10.69-41.468-29.177-11.834-10.299-18.13-14.66-25.864-17.915-7.066-2.974-21.426-4.975-28.953-4.035-5.972.746-6.03.98-2.166 8.641 2.145 4.25 2.245 4.79.892 4.79-.538 0-1.855-1.716-2.925-3.814-3.934-7.711-12.253-19.3-17.712-24.671-10.975-10.802-24.875-14.734-44.526-12.596-17.74 1.93-32.952 6.09-81.357 22.247-37.153 12.401-47.804 15.645-64 19.49-15.505 3.682-41.447 4.428-52.318 1.505-8.543-2.297-8.81-2.087-7.769 6.131 1.287 10.153 3.408 14.539 10.547 21.806 8.33 8.481 13.515 10.902 25.219 11.777 4.773.357 8.947.918 9.276 1.246 1.141 1.142-11.992 1.835-18.071.955-7.856-1.138-11.471-3.064-18.703-9.962l-5.877-5.606.715 4.996c2.356 16.442 13.146 33.37 24.268 38.07 3.032 1.28 6.007 1.446 16.213.904l12.5-.665-8 5.96c-15.486 11.534-23.049 21.664-29.288 39.227-13.056 36.75-15.834 42.881-23.263 51.32-8.006 9.096-22.76 18.152-40.199 24.673-3.162 1.183-5.749 2.456-5.747 2.829s2.824 4.04 6.271 8.15c16.938 20.191 40.64 27.004 66.336 19.067 3.682-1.137 6.875-1.888 7.095-1.668.53.53-5.416 4.03-9.205 5.418-5.729 2.1-15.685 4.211-19.83 4.204-5.978-.01-19.797-3.523-25.926-6.59-2.884-1.443-7.609-4.39-10.499-6.55l-5.255-3.925 2.378 6.318c5.447 14.47 17.366 27.832 30.99 34.74 10.765 5.458 18.683 6.183 33.142 3.034 15.774-3.436 15.518-3.411 11.5-1.118-3.246 1.853-16.915 6.5-21.5 7.309-4.313.761 15.725 13.031 26.5 16.228 13.212 3.92 40.776 3.97 55.914.104 5.337-1.363 23.271-3.68 23.874-3.084.159.156-1.866.826-4.5 1.489-6.914 1.74-16.805 6.532-23.838 11.55-8.377 5.978-20.796 19.426-23.792 25.764-2.952 6.245-4.557 13.411-2.753 12.297.65-.402 4.65-1.594 8.889-2.648"/><path fill="#010050" d="M515.676 749.011c-4.783-5.456-8.56-10.81-13.892-19.69-4.473-7.45-8.047-13.629-15.9-29.296-3.69-7.36-4.484-8.807-4.62-8.949l.074-27.252c20.256 5.046 39.127 3.421 58.955-1.876 12.724-3.399 35.044-18.982 34.816-15.867-.505 6.922 8.979 26.133 10.476 24.771 0 0-7.839 7.42-15.083 14.902-11.322 11.694-21.36 24.357-47.792 60.3-2.297 3.124-4.282 5.68-4.412 5.68s-1.31-1.225-2.622-2.723m-28.513-232.665c-.15.007-.308.08-.483.212-.58.44-1.344 1.544-3.306 4.778a745 745 0 0 0-3.057 5.058c-9.348 16.107-17.42 52.314-15.672 74.553.421 5.353 2.125 12.293 1.957 12.293 2.147 8.057 5.53 12.743 9.967 19.65 13.226 3.505 49.743 6.672 83.879-12.691 4.777-2.71 8.987-4.486 9.258-4.486l-.53-7.746c-.812-.436-12.384-8.344-22.132-16.78-9.017-7.802-18.849-18.239-26.06-28.84-2.676-3.932-8.671-11.875-13.323-17.65s-10.957-14.235-14.012-18.8c-1.29-1.977-4.34-6.41-4.851-7.413a50 50 0 0 0-.612-1.172c-.393-.68-.693-.982-1.023-.967"/></svg>