<svg xmlns="http://www.w3.org/2000/svg" xmlns:xlink="http://www.w3.org/1999/xlink" xml:space="preserve" width="1800" height="2000"><defs><linearGradient id="f"><stop offset="0" stop-color="#fb79d5" stop-opacity=".574"/><stop offset="1" stop-color="#fb79d5" stop-opacity="0"/></linearGradient><linearGradient id="e"><stop offset="0" stop-color="#ffaee7" stop-opacity=".668"/><stop offset="1" stop-color="#ffaee7" stop-opacity="0"/></linearGradient><linearGradient id="d"><stop offset="0" stop-color="#ffaee7" stop-opacity=".699"/><stop offset="1" stop-color="#ffaee7" stop-opacity="0"/></linearGradient><linearGradient id="c"><stop offset="0" stop-color="#ffaee7" stop-opacity=".596"/><stop offset="1" stop-color="#ffaee7" stop-opacity="0"/></linearGradient><linearGradient id="b"><stop offset="0" stop-color="#ffaee7" stop-opacity=".627"/><stop offset="1" stop-color="#ffaee7" stop-opacity="0"/></linearGradient><linearGradient id="a"><stop offset="0" stop-color="#1f93db"/><stop offset=".5" stop-color="#56b6e7"/><stop offset=".75" stop-color="#8ac9e9"/></linearGradient><linearGradient xlink:href="#a" id="g" x1="3205.007" x2="3205.007" y1="134.021" y2="2148.159" gradientTransform="matrix(.8972 0 0 .68009 -1979.042 223.958)" gradientUnits="userSpaceOnUse"/><radialGradient xlink:href="#b" id="h" cx="2757.641" cy="1739.448" r="60.142" fx="2757.641" fy="1739.448" gradientTransform="matrix(.26662 0 0 .35834 200.786 671.021)" gradientUnits="userSpaceOnUse"/><radialGradient xlink:href="#c" id="i" cx="2712.641" cy="1478.286" r="79.195" fx="2712.641" fy="1478.286" gradientTransform="matrix(.26662 0 0 .21251 200.786 910.555)" gradientUnits="userSpaceOnUse"/><radialGradient xlink:href="#d" id="j" cx="2971.983" cy="1563.299" r="53.01" fx="2971.983" fy="1563.299" gradientTransform="matrix(.26662 0 0 .30646 200.786 768.286)" gradientUnits="userSpaceOnUse"/><radialGradient xlink:href="#e" id="k" cx="3200.668" cy="1363.699" r="89.454" fx="3200.668" fy="1363.699" gradientTransform="matrix(.26662 0 0 .18935 200.786 935.937)" gradientUnits="userSpaceOnUse"/><radialGradient xlink:href="#f" id="l" cx="2569.791" cy="1290.015" r="290.789" fx="2569.791" fy="1290.015" gradientTransform="matrix(.24652 0 0 .20515 258.3 905)" gradientUnits="userSpaceOnUse"/></defs><rect width="1807.069" height="2000" x="-7.069" fill="url(#g)" fill-rule="evenodd" ry="1.275"/><path fill="#3ca9e3" fill-rule="evenodd" d="M1227.922 391.807c-7.376.193-14.481.698-20.856 1.537-47.343 6.176-89.056 27.553-114.77 61.246a49 49 0 0 0-2.089-1.87c-5.24 6.465-8.244 13.29-9.629 20.186a129 129 0 0 0-6.248 13.735c-4.912-9.915-12.704-18.51-24.875-23.96-3.267 8.79-3.575 17.448-1.904 25.618a45.4 45.4 0 0 0-.88 12.69c-7.973-9.022-18.594-15.946-32.759-18.196-.366 7.076.844 13.652 3.194 19.676a58 58 0 0 0-3.192-.598 46.8 46.8 0 0 0 1.588 14.83c-8.298-3.95-17.66-6.116-27.895-5.387-13.634-3.119-44.675 3.796-56.367 9.842-6.157 3.184-6.261 2.77-1.617-6.334 4.02-7.879 4.629-16.078 1.43-19.277-4.95-4.95-14.167-1.216-28.553 11.56-5.124 4.55-14.162 11.84-20.084 16.2-10.603 7.805-10.782 7.86-11.746 3.736-.806-3.448-2.3-4.284-8.455-4.734-8.653-.634-18.693 3.335-33.826 13.375-7.21 4.782-12.203 6.804-16.807 6.804-6.515 0-6.553-.047-7.707-8.924-2.19-16.856-6.508-30.374-15.67-49.082-13.76-28.1-54.71-85.338-158.986-81.646-29.86 1.057-47.49 5.484-74.178 18.63-54.724 26.96-99.73 81.672-115.701 140.655-4.005 14.788-4.717 19.676-4.76 41.77l-.072 2.011c-.127 3.714-.09 7.586.103 11.577.146 22.708.872 28.001 4.854 42.806 6.547 24.346 22.827 56.946 37.582 75.258 26.891 33.376 63.136 55.057 103.933 62.172 8.445 1.472 16.159 2.678 17.147 2.678 2.46 0 1.14 17.594-2.533 43.853-.367 2.896-1.28 7.395-1.68 10.313-4.11 27.41-10.007 61.35-17.588 97.543-2.83 10.115-4.513 20.296-5.537 30.566-22.835-.372-58.368-.336-67.148 2.455-.384 1.165 11.06 1.564 32.88 1.15 11.351-.647 22.69-.814 33.967-.363-.577 6.674-.9 13.385-1.095 20.143-.632 21.77 2.55 45.847 8.318 62.931a169 169 0 0 0 3.678 10.239c-23.8 10.87-49.69 25.367-49.69 25.367s5.51.471 15.715-5.406c11.48-5.934 23.322-11.478 35.436-16.381 15.993 37.957 42.684 64.377 52.517 73.263l12.858 11.62c-2.407 19.853-4.987 39.713-10.735 58.95-3.562 12.764-6.035 25.969-9.404 38.928-2.92 8.552-5.339 18.975-8.725 34.96-.2.946-.274 2.119-.465 3.09-6.476 33.897-9.618 68.116-1.896 102.615 6.097 22.273 15.461 39.435 28.809 52.808l11.632 11.656-9.332 9.315c-17.066 17.032-20.562 29.61-11.193 40.281 2.945 3.354 5.354 7.352 5.354 8.885s1.806 4.09 4.015 5.685c3.037 2.195 6.193 2.635 12.942 1.793 4.908-.612 13.16-1.025 18.34-.914 7.53.162 11.39-.925 19.283-5.441 10.868-6.218 36.38-24.58 43.937-31.621l4.816-4.486 54.975-.444c31.182-.251 69.266-1.673 87.994-3.287 40.843-3.519 69.15-3.56 132.076-.191 26.996 1.444 65.122 3.16 84.725 3.81l35.64 1.178 14.335 12.277c23.313 19.97 47.586 30.177 57.037 23.985 3.225-2.114 6.571-2.587 12.521-1.772 7.848 1.076 8.396.835 16.399-7.168 7.986-7.986 8.242-8.564 7.177-16.334-1.377-10.05-4.496-16.147-13.68-26.758l-7.208-8.328 6.738-4.898c11.934-8.673 26.867-26.494 33.383-39.84 9.005-18.444 11.936-31.246 12.98-56.676.966-50.911-11.55-100.147-23.9-149.299a73 73 0 0 0-.553-2.408c-4.767-19.164-9.48-38.891-11.617-48.53q-.488-2.271-.963-4.544l-2.152-11.127 15.08-15.85c8.295-8.717 17.434-19.57 20.307-24.117 2.43-2.97 4.598-6.08 6.6-9.283 15.977 8.587 31.919 19.531 44.88 33.26 9.836 10.418 15.32 9.162 15.32 9.162s-32.232-29.991-48.865-39.508c-3.129-2.211-6.293-4.155-9.508-5.94 3.455-5.898 6.469-12.058 9.623-18.206 11.323-22.071 20.758-49.75 23.752-69.678 1.902-7.65 2.89-15.142 3.287-22.655 6.352.072 12.71.345 19.075.534 6.238.155 11.981.097 15.67-.118a39 39 0 0 0 2.714-.234c.52-.068.912-.143 1.16-.225a1 1 0 0 0 .24-.109q.015-.013.026-.02c.195-.197.323-.385.37-.56.064-.234-.014-.45-.251-.654a2 2 0 0 0-.207-.15 3 3 0 0 0-.272-.147c-.042-.02-.094-.04-.14-.06a3 3 0 0 0-.192-.08c-.733-.28-1.863-.536-3.457-.782-3.341-.515-8.725-.987-16.787-1.533a451 451 0 0 0-17.799.125c.168-6.404-.049-12.844-.453-19.432-.61-9.98-3.477-29.392-6.369-43.135-12.92-61.41-12.054-94.22-16.394-122.04-.977-6.26-1.544-11.542-1.26-11.737s8.95-2.514 19.258-5.152c65.946-16.88 107.256-60.225 121.892-127.899 5.094-23.553 5.403-72.613.596-94.595-17.179-78.566-75.747-142.942-150.332-165.24-14.482-4.33-39.032-6.545-61.16-5.965zM990.84 524.857q.6 1.02 1.244 2c-1.136-.157-1.777-.374-1.777-.691 0-.175.202-.658.533-1.309M800.336 541.96c-.098 1.92-.708 2.968-2.145 4.06a19 19 0 0 0 2.145-4.06m8.957 4.996c1.237.056 1.627.483.953 1.668a4.9 4.9 0 0 0-.953-1.668m628.47 68.975q.286.096.58.136c-.103.32-.217.49-.341.49v-.001c-.028-.026-.105-.241-.234-.625zm-18.853 87.19-.18.32v.001q-.105.083-.222.182zm-153.451 31.386c.016.032.072.11.088.142.014.028.066.179.08.207-.06-.115-.108-.234-.168-.35m-205.344 77.515-.053.116-.055-.065zM575.893 981.295q.168.189.35.361a7.2 7.2 0 0 0 1.638 1.147q-1.046-.024-2.154-.047.08-.73.166-1.461m10.683 100.02-.047.083-.023-.055zm691.994 20.697s.01 0 .012.01v.01s-.01-.01-.01-.012z"/><path fill="#f5c4ac" fill-rule="evenodd" d="M661.785 1453.754a1.4 1.4 0 0 0-1.65.296l-1.802 1.92c-.986 1.053-4.11 4.37-6.933 7.36-8.21 8.692-11.925 13.445-14.582 18.775-1.803 3.618-2.58 7.034-2.182 10.255s1.984 6.166 4.598 8.785c.553.554 1.077 1.002 1.743 1.29s1.593.309 2.287-.066c1.387-.75 1.855-2.1 2.548-4.05.411-1.159 1.364-3.193 1.98-4.222 1.707-2.855 4.21-6.118 6.47-8.618 1.13-1.25 2.205-2.314 3.057-3.025a8.5 8.5 0 0 1 1.056-.774c.258-.15.426-.133.185-.133.284 0 .081-.103.213.098.06.091.164.738-.457 2.005-.62 1.267-1.838 2.952-3.583 4.817-4.398 4.7-7.684 10.917-8.897 16.883-.545 2.68-.467 5.05.39 7.017.858 1.968 2.534 3.426 4.707 4.176 2.62.905 6.506.81 10.245.021 2.713-.573 4.41-.962 5.65-2.067a3.66 3.66 0 0 0 1.155-2.133c.12-.787.027-1.552-.13-2.399-.716-3.89-.277-6.897 1.656-11.022 1.26-2.687 3.16-5.353 4.898-7.14.87-.892 1.705-1.562 2.311-1.903.322-.18.225-.149.318-.17-.026.154-.011.198-.119.49-.394 1.063-1.412 2.866-3.082 5.352-2.284 3.401-3.637 6.381-3.939 9.14s.592 5.29 2.517 7.216c2.958 2.958 7.704 3.845 12.03 2.454 5.991-1.926 15.827-7.746 29.306-17.133 8.611-5.997 15.42-10.972 19.853-14.478 2.216-1.752 3.825-3.123 4.831-4.14.503-.51.857-.854 1.137-1.458.14-.302.37-.867-.028-1.558s-1.103-.795-1.457-.795c.344 0 .095 0-.025-.018a22 22 0 0 1-.502-.091c-.415-.079-.968-.19-1.547-.31-1.442-.301-5.646-.813-9.81-1.241-12.717-1.309-19.666-2.493-29.219-4.978-9.995-2.6-16.745-5.197-27.525-10.59zm561.992-.007s-.303.024-.376.038-.12.028-.157.038a2 2 0 0 0-.136.042c-.06.022-.088.034-.115.045l-.143.063q-.14.063-.349.164c-.281.134-.669.325-1.143.557-.949.466-2.237 1.106-3.643 1.81-16.27 8.145-33.28 13.032-58.954 16.886-2.289.343-4.49.685-6.195.955-1.703.27-2.737.427-3.297.55l-1.057.234a1.934 1.934 0 0 0-.944 3.263l3.172 3.151c9.719 9.657 23.376 19.75 34.05 25.116 4.71 2.368 10.146 4.27 14.683 5.11 1.398.26 3.186.169 5.146.039.98-.065 1.944-.157 2.778-.269s1.437-.178 2.168-.47c1.048-.42 2.142-1.228 2.712-2.367s.747-2.368.92-4.079c.593-5.847-.617-9.804-4.96-16.433-1.436-2.192-2.29-3.802-2.792-4.988.828.923 2.43 3.059 4.103 6.059 1.887 3.386 3.787 7.373 4.932 10.53.766 2.112 1.46 3.68 2.346 4.958a8.9 8.9 0 0 0 3.288 2.876c2.677 1.376 6.634 2.099 9.649 1.777 2.04-.217 3.889-.742 5.006-2.3 1.116-1.559 1.171-3.413 1.045-5.766-.22-4.122-1.763-8.45-5.242-15.324-1.057-2.087-1.291-2.907-1.796-4.155.449.599.851 1.024 1.332 1.795 1.852 2.97 3.802 7.04 5.149 11.064.84 2.514 1.376 4.033 1.987 5.163.305.565.642 1.072 1.188 1.495.547.424 1.32.642 1.89.642 1.461 0 2.211-.747 2.945-1.496a9.4 9.4 0 0 0 1.848-2.733c.74-1.646.942-3.638.917-5.87a29 29 0 0 0-.942-6.944c-1.61-6.054-5.352-13.47-9.6-19.141-.914-1.22-3.257-3.965-5.508-6.547a245 245 0 0 0-3.04-3.43 51 51 0 0 0-1.038-1.116 10 10 0 0 0-.373-.373c-.061-.057-.116-.109-.223-.191a2 2 0 0 0-.248-.164 2 2 0 0 0-.547-.216 5 5 0 0 0-.432-.05z"/><path fill="#db812e" fill-rule="evenodd" d="M1248.381 376.006c-16.235-.952-33.017.07-50.264 3.078-52.433 9.143-90.85 34.133-111.131 72.82-10.97 20.926-15.85 40.498-17.862 71.198-.608 9.266-1.218 15.332-1.883 18.643-.19.946-.285 1.06-.442 1.509-7.1-2.442-19.703-5.243-30.258-6.787.744-.03 1.056-.142 1.878-.154 4.684-.063 13.26 2.943 15.479 2.296.554-.162 1.177-.27 2.032-1.158.428-.443.892-1.22.976-2.105a3.63 3.63 0 0 0-.505-2.168c-.595-.981-1.13-1.238-1.604-1.527a11.4 11.4 0 0 0-1.474-.74c-1.71-.734-9.077-3.816-11.519-4.083-2.44-.266-5.567-.502-9.206-.707-7.278-.411-16.592-.689-26.246-.736-2.412-.012-2.793-.113-4.904-.136 1.417-.08 2.346-.238 3.817-.303 8.585-.379 15.33-.89 19.81-1.485 2.24-.298 11.842.493 13.212.015.685-.24-.707-2.542.317-4.275.512-.866-5.275-1.217-5.796-2.12-.522-.902-1.074-1.195-1.485-1.425-2.519-1.41-5.79-2.09-10.043-2.716-4.254-.625-9.377-1.046-14.924-1.262-11.094-.432-23.85-.043-34.392 1.36-8.848 1.178-10.26 1.243-15.872 1.955 3.33-.618 3.754-.813 8.084-1.593 10.8-1.943 18.201-3.87 22.61-6.194 1.102-.581 2.044-1.183 2.87-2.046.824-.863 1.627-2.226 1.502-3.838s-1.108-2.823-2.054-3.57-1.987-1.24-3.214-1.694c-7.34-2.716-18.532-.986-31.983 2.73-13.451 3.714-28.82 9.808-42.738 17.366-2.786 1.513-4.945 2.613-7.37 3.88 1.554-1.287 2.032-2.02 4.017-3.486 13.217-9.764 21.881-20.363 21.881-30.282 0-2.14-.57-4.644-2.785-5.961s-4.515-.792-6.68.056c-4.328 1.694-9.797 5.591-17.809 12.023-13.64 10.95-29.752 22.31-43.302 30.885-6.776 4.287-12.918 7.881-17.74 10.364-1.053.542-1.75.803-2.667 1.234 1.6-1.08 3.22-2.18 5.372-3.385 9.703-5.433 15.831-9.15 19.531-12.183 1.85-1.517 3.193-2.808 3.96-4.689.768-1.88.11-4.583-1.21-5.902-1.436-1.437-3.352-1.929-5.169-1.994s-3.705.256-5.78.827c-4.148 1.14-9.036 3.33-14.49 6.337-10.909 6.013-23.985 15.323-36.066 26.18-.258.231-.354.23-.603.446.147-.158.138-.216.293-.377 2.802-2.925 4.41-4.665 5.354-6.71.236-.512.503-1.071.47-2.095-.032-1.025-1.002-2.679-2.133-3.173-1.13-.493-1.866-.337-2.443-.23a7.7 7.7 0 0 0-1.541.47c-3.948 1.593-10.213 5.963-19.483 13.216-3.022 2.365-3.206 2.31-5.382 3.96 1.817-1.63 3.253-3.09 5.344-4.786 8.863-7.191 14.067-11.551 15.997-17.991s.207-13.374-2.876-25.45c-18.432-72.198-83.914-113.028-174.012-109.351-23.747.969-30.844 2.336-47.722 9.147-62.045 25.039-111.244 76.583-130.939 137.35-1.768 5.456-3.074 9.671-3.894 12.9s-1.444 5.202-.76 7.74c.343 1.268-2.544 11.439-.95 11.695s7.011-8.717 7.999-9.196c1.975-.958 4-2.51 6.707-4.664 16.89-13.444 32.791-19.706 52.812-20.867 22.84-1.324 39.614 2.116 61.99 12.748 36.083 17.145 69.974 51.728 91.032 93.18 2.146 4.223 4.288 8.056 6.062 10.907.887 1.425 1.672 2.596 2.388 3.517.358.46.687.858 1.109 1.255s.668 1.182 2.708 1.182c2.29 0 4.247-.994 6.31-2.437s4.261-3.453 6.756-6.093c4.988-5.28 11.135-13.091 18.768-23.74 11.387-15.885 20.124-25.23 27.061-29.557l9.025-5.626 30.046 29.48c51.868 50.9 91.362 82.25 140.176 111.226 43.94 26.082 99.55 51.726 136.391 62.813l10.862 3.27a3.22 3.22 0 0 0 3.532-1.192l10.775-14.857c26.186-36.108 69.113-46.353 109.967-26.162 22.451 11.096 46.832 36.224 56.814 58.498l7.247 16.174a3.22 3.22 0 0 0 2.81 1.9l21.749.844c5.964.23 11.711.497 16.15.739 2.22.12 4.114.237 5.532.338 1.419.1 2.542.226 2.503.22 1.181.206 2.787-.115 3.828-1.004 1.04-.89 1.481-1.98 1.736-2.988.51-2.015.396-4.158.038-6.94-1.954-15.182-3.471-27.861-4.42-36.78-.475-4.46-.808-7.982-.98-10.371-.047-.647-.051-.97-.073-1.44 1.183-.38 2.815-.887 4.839-1.495a1130 1130 0 0 1 15.965-4.644c25.076-7.114 48.278-17.856 62.82-29.316 3.31-2.608 5.594-4.598 7.077-6.15.74-.775.73-2.753 1.778-2.346 5.643 2.194 33.918-40.068 32.05-42.207-.928-1.062-33.146 34.595-34.023 34.45-1.754-.289-2.796 2.737-3.682 3.086-.885.35-1.868.83-3.036 1.46-2.335 1.263-5.377 3.132-9.126 5.655-19.884 13.381-35.638 18.2-64.48 19.633l-23.603 1.175-2.015-4.884c-10.898-26.417-26.303-54.073-41.13-73.76-4.64-6.16-8.863-12.123-11.894-16.71-1.516-2.295-2.736-4.253-3.539-5.669-.18-.317-.248-.479-.383-.735.31-.15.41-.245.927-.419 2.024-.682 5.465-1.371 10.019-1.9 4.092-.475 8.247-1.247 11.744-2.13s6.089-1.569 8.21-3.12c.984-.72 1.8-1.302 2.586-2.297.392-.497.81-1.155.983-2.077.173-.923-.041-2.036-.464-2.796-.846-1.52-1.884-2.006-3.001-2.604-1.118-.598-2.455-1.175-4.162-1.882-6.102-2.528-11.181-2.666-17.447-.481-1.488.518-2.384.482-3.748.833 2.704-1.26 5.175-2.475 8.502-3.835 5.349-2.187 10.56-4.61 14.722-6.79 2.08-1.091 3.897-2.119 5.368-3.054 1.47-.935 2.532-1.61 3.514-2.792 1.043-1.257 2.069-3.102 1.296-5.23-.772-2.127-2.623-2.819-4.04-3.144-2.833-.649-6.155-.334-10.283.352-8.256 1.373-19.126 4.684-28.038 9.28-3.796 1.958-7.288 3.56-10 4.678.06-.116.054-.152.118-.272 1.646-3.113 4.416-7.411 7.864-12.19 6.896-9.558 16.53-21.124 25.625-30.22 31.553-31.553 58.198-44.803 93.737-46.865 43.06-2.498 76.472 17.301 94.382 55.876l4.908 10.577c1.515 3.266 6.432 1.959 6.125-1.628l-1.534-18.124c-4.797-56.653-23.864-98.651-63.246-139.298-36.455-37.626-80.19-58.328-128.896-61.181M479.818 711.231c-.326-.1-.719-.116-1.286.073-.484.162-.956.738-1.06 1.144-.103.405-.045.64-.007.815.077.352.176.527.283.729.214.404.496.82.857 1.318.722.995 1.753 2.261 2.946 3.597 4.494 5.03 15.235 15.408 21.167 20.462 24.259 20.67 52.653 34.013 80.57 37.802 1.414.192 4.863.576 7.77.868 4.208.422 7.383.838 9.437 1.224 1.027.192 1.782.386 2.171.526.084.03.057.021.102.042.06.107-.016.14.094.268.248.29.815.603 1.349.565a1.6 1.6 0 0 0 1.046-.478c.185-.182.171-.196.209-.247l.108-.153q.11-.163.268-.408c.213-.328.494-.772.823-1.294.657-1.043 1.503-2.4 2.339-3.754a480 480 0 0 0 2.276-3.72c.308-.509.564-.936.746-1.247.09-.156.161-.28.22-.387.03-.054.055-.098.09-.171.018-.037.034-.075.07-.178.018-.051.047-.11.073-.272a5 5 0 0 0 .015-.383l-.394-.917-.3-.258s-.175-.105-.247-.136a1.5 1.5 0 0 0-.332-.101c-.163-.032-.246-.028-.317-.028-.142 0-.214.007-.286.018a5 5 0 0 0-.39.073c-.267.06-.58.143-.92.244-1.122.333-2.47.33-3.476.018-.958-.297-2.399-.484-3.83-.61-7.865-.694-23.16-3.888-35.798-7.52-21.332-6.127-39.669-14.514-56.887-26.011-6.668-4.452-9.842-6.798-18.608-13.756-3.555-2.82-6.068-4.744-7.833-5.968-.883-.612-1.573-1.048-2.172-1.352-.3-.153-.559-.337-.885-.436z"/><path fill="#f0d4e4" fill-rule="evenodd" d="M1345.461 528.857c-9.232-.162-18.621.428-25.848 1.924-27.53 5.701-51.612 19.291-74.683 41.985-5.204 5.118-12.05 12.826-17.68 19.619-2.816 3.396-5.316 6.553-7.157 9.067-.92 1.256-1.674 2.344-2.252 3.29-.29.474-.538.904-.757 1.377-.218.474-.516.844-.516 2.099 0 1.011.63 2.2 1.273 2.747s1.162.69 1.537.784c.751.189 1.134.147 1.527.126.785-.042 1.493-.176 2.35-.363 1.713-.374 3.878-.999 6.27-1.813 4.978-1.692 10.715-3.07 15.83-3.886 5.116-.818 9.76-1.007 11.86-.666 2.01.326 3.828 1.197 4.981 2.161s1.492 1.877 1.492 2.256c0-.64 0-.035-.52.739-.518.773-1.39 1.809-2.464 2.875-2.15 2.134-5.134 4.422-7.85 5.885l-4.072 2.192a3.49 3.49 0 0 0-.652 5.696l5.351 4.71c2.593 2.282 3.681 4.202 3.887 5.232s.111 1.48-1.164 2.622c-2.551 2.285-10.546 4.979-22.809 5.877-2.79.204-5.323.449-7.22.687a36 36 0 0 0-2.377.362c-.326.064-.606.12-.997.248-.195.064-.408.122-.826.366-.209.122-.48.281-.854.69a3.56 3.56 0 0 0-.927 2.38c0 1.366.283 1.415.39 1.632.108.218.184.344.262.467.155.248.304.46.48.701q.53.725 1.357 1.76a194 194 0 0 0 4.235 5.087c10.983 12.792 32.172 44.04 38.638 56.887 2.1 4.17 8.81 21.175 12.299 31.436.452 1.33 1.826 2.514 2.956 2.945s2.166.541 3.472.614c2.612.146 6.345-.002 12.413-.342 36.477-2.042 59.383-9.394 81.725-26.454 17.857-13.637 41.773-41.935 50.64-60.143 14.115-28.985 12.157-65.492-4.971-93.016-11.607-18.651-32.554-34.189-53.907-40.008-6.517-1.776-15.49-2.672-24.722-2.834"/><path fill="#fff" fill-rule="evenodd" d="M1192.523 887.083c-5.47-.688-10.723.176-15.69 2.576-4.795 2.316-8.425 5.727-11.076 10.395-2.651 4.67-3.938 10.486-4.103 16.244s.767 11.46 3.253 15.949c3.213 5.801 9.991 10.834 17.837 14.08 2.271.938 3.92 1.231 6.209 1.122 2.182-.104 3.943-.532 6.644-1.597 4.853-1.913 8.505-4.569 12.323-8.889 3.565-4.035 6.682-9.299 8.185-14.003 2.972-9.303 1.522-18.744-4.243-25.698-4.576-5.52-11.762-9.227-19.34-10.18m29.502-40.457c-2.41 0-4.25.322-6.233 1.13-4.603 1.872-8.216 5.833-9.283 10.43-.461 1.988-.42 4.404.091 6.393 1.72 6.707 7.804 11.871 14.69 12.451 3.47.293 7.026-.275 9.499-1.976 1.512-1.04 2.918-2.725 3.915-4.406 2.67-4.507 3.846-9.645 2.5-13.71-.737-2.222-1.83-3.97-3.536-5.651-3.158-3.114-7.068-4.661-11.643-4.661m-85.737-96.466a44.4 44.4 0 0 0-8.568.153c-30.7 3.538-57.867 33.495-65.724 70.472-1.92 9.03-2.11 23.574-.261 31.93 2.84 12.85 7.956 22.21 16.816 30.597 5.775 5.467 11.932 9.53 18.967 12.487 5.67 2.382 14.139 4.849 19.58 5.633 7.514 1.083 19.313.902 26.166-.513 32.655-6.74 53.98-37.531 52.22-74.268-.668-13.907-3.65-25.383-9.897-38.122-10.906-22.233-29.397-36.803-49.299-38.37M692.419 873.927c-3.623 0-4.571.1-6.533.63-2.785.755-5.926 2.205-8.279 3.832-3.493 2.415-6.939 6.478-8.959 10.489-4.337 8.613-3.31 19.469 2.475 28.208 1.673 2.527 4.65 5.602 7.018 7.15 3.046 1.991 6.783 3.43 10.27 3.932 13.311 1.918 26.453-8.116 29.49-22.17.602-2.788.698-7.61.115-10.308-.972-4.5-2.724-8.521-5.187-11.79-3.478-4.617-8.31-7.775-14.341-9.454-1.503-.418-2.687-.519-6.07-.52m-22.72-42.026c-10.379-.014-19.827 7.428-19.787 17.74.033 8.282 6.01 15.216 13.997 17.712 10.896 3.406 22.137-4.664 23.056-16.101.41-5.119-1.063-10.06-4.225-13.662-3.163-3.6-7.945-5.681-13.041-5.689m94.252-83.017c-23 .05-46.044 12.992-58.47 37.927-21.577 43.3-6.682 96.605 34.557 113.572 5.417 2.229 8.018 1.773 12.86 2s10.511.22 16.178-.062c15.959-.794 26.972-4.439 37.93-12.797 25.261-19.267 35.215-52.862 26.058-84.792-10.154-35.405-39.542-55.914-69.112-55.848"/><path fill="#fffde9" fill-rule="evenodd" d="M737.726 586.947c-52.313 34.756-56.368 78.859-69.164 64.591-39.91-44.503-142.043-60.607-49.9 29.981 28.887 28.4 2.49 71.378-17.062 101.857a4.8 4.8 0 0 0-.61 1.858l-2.845 25.37c-3.395 30.26-7.61 56.135-17.154 105.273-1.97 10.143-3.76 19.843-5.062 27.33a471 471 0 0 0-1.547 9.366c-.371 2.436-.619 3.613-.617 5.292.002 1.832.903 4.305 2.478 5.8 1.156 1.098 2.608 1.609 4.061 2.193l-4.734-.02a4.776 4.776 0 0 0-4.793 4.96l1.192 30.808c.735 18.987 2.59 35.788 5.404 44.666 1.96 6.183 2.303 9.482 5.612 12.605 1.633 1.541 4.444 2.157 6.32 1.903-.295.21-.65.356-.934.596-1.014.857-2.531 2.072-2.531 4.902 0 3.696 1.403 5.874 3.203 9.436 1.801 3.562 4.256 7.78 7.115 12.298 5.72 9.038 13.017 19.223 19.741 27.062 17.78 20.728 31.185 32.32 49.553 42.713 7.234 4.093 13.161 7.96 17.098 11.033 1.788 1.396 3.015 2.557 3.86 3.462-.08.096-.101.127-.186.23-1.357 1.645-3.382 4.005-5.884 6.863-5.003 5.717-11.935 13.442-19.56 21.76-30.551 33.333-31.721 35.612-41.42 81.396-6.981 32.962-7.735 80.662-1.049 104.788 7.057 25.461 18.745 45.283 35.888 59.515s39.518 22.748 67.478 26.458c4.918.653 15.78.866 30.725.914s33.524-.152 52.174-.61c91.48-5.766 211.826-4.445 284.84.408 55.873 3.713 63.126 1.642 84.959-2.897 54.684-11.371 88.827-40.787 101.068-87.783 7.545-28.97 2.905-87.17-10.012-140.47-5.618-23.18-14.046-36.428-40.11-63.287l-18.897-19.472 9.45-7.248c31.67-24.29 40.416-32.244 51.223-46.62 3.112-4.14 5.936-8.106 8.025-11.232 1.044-1.564 1.9-2.908 2.552-4.03.325-.561.601-1.058.85-1.59.249-.531.676-.612.676-2.698 0-2.381-1.02-3.205-1.59-3.824-.569-.619-1.086-1.019-1.652-1.429-.094-.069-.244-.138-.341-.206.893.241 1.65.488 2.883.488 2.337 0 3.733-1.04 4.835-1.966s2-1.98 2.921-3.207c1.842-2.454 3.711-5.625 5.706-9.44 3.991-7.63 8.398-17.78 12.56-28.609 4.162-10.828 8.06-22.308 10.943-32.513s4.814-18.914 4.814-25.308v-5.947a4.78 4.78 0 0 0-3.071-4.044 4.78 4.78 0 0 0 3.07-3.378v-12.546c0-7.912-2.23-25.542-4.95-40.855-2.67-15.046-6.693-39.529-8.91-54.255l-4.047-26.905a4.776 4.776 0 0 0-4.155-4.03c-15.486-2.433-37.518-2.298-53.154-2.328-2.642-.005 1.632 1.455 1.632 4.096v25.974c0 24.922.09 24.707-8.47 42.636-19.37 40.561-50.938 58.148-93.612 52.349-35.003-4.757-60.912-22.973-76.42-53.624-12.864-25.428-17.172-61.93-10.502-86.978l3.304-12.414a4.776 4.776 0 0 0-3.015-5.727c-107.445-33.566-199.358-91-279.82-169.65l-34.364-35.438a4.776 4.776 0 0 0-6.07-.652m11.563 152.063a112 112 0 0 1 12.476.377c22.381 1.92 34.858 7.072 49.117 20.103 26.605 24.316 35.46 66.683 21.588 107.231-12.532 36.632-47.624 66.278-85.764 72.466-24.212 3.929-38.714 1.907-59.39-8.21-27.431-13.42-41.537-35.922-43.104-69.32-3.204-68.28 43.67-121.042 105.077-122.647"/><path fill="#f0d4e4" fill-rule="evenodd" d="M519.569 530.21c-27.976-1.128-55.097 10.217-75.36 31.415-3.932 4.114-6.413 6.938-7.822 10.8-1.409 3.86-1.629 8.171-1.879 15.484-.863 25.245 5.868 57.801 17.465 85.025 6.447 15.135 11.539 21.992 25.792 34.745 27.785 24.86 51.795 39.195 82.045 48.915 8.466 2.72 15.54 4.54 30.29 7.801 9.124 2.018 13.339 3.104 14.303 3.528 13.597 6.283 27.264-30.732 42.002-58.002 4.053-7.509 9.4-17.317 11.855-21.756 1.235-2.232 2.372-4.285 3.207-5.797l1.004-1.817c.243-.44.28-.503.422-.77.13-.245.314-.9.314-.903l-.007-1.105c0-.002-.2-.69-.349-.951a3 3 0 0 0-.46-.617c-.598-.62-.946-.68-1.182-.767-.471-.173-.634-.169-.812-.192a8 8 0 0 0-.948-.063c-.65-.016-1.45-.002-2.35.042-3.513.17-10.586-1.297-17.3-3.64-6.714-2.341-13.333-5.608-16.423-8.157-3.615-2.982-4.61-5.849-4.284-7.15.22-.877 2.454-3.149 7.756-4.893a48 48 0 0 0 2.183-.77c.297-.115.544-.216.801-.335.13-.06.25-.112.468-.245.109-.066.239-.138.488-.359.124-.11.286-.25.498-.557.106-.154.334-.633.335-.635l.212-1.115c0-.001-.024-.398-.048-.537a3 3 0 0 0-.223-.725c-.082-.182-.134-.268-.178-.342a3 3 0 0 0-.188-.286c-.097-.133-.178-.23-.269-.341-.181-.225-.4-.487-.67-.799a127 127 0 0 0-2.049-2.304c-4.334-4.766-6.201-8.883-6.201-10.625 0-.544 1.208-3.616 1.645-4.082 1.171-1.247 1.621-1.443 4.852-1.443 5.035 0 10.497 2.213 20.595 9.07a184 184 0 0 0 4.299 2.845 46 46 0 0 0 1.418.875c.192.112.352.205.565.31.107.053.208.107.467.195.13.045.285.106.666.15.19.022.44.05.854-.018.207-.033.749-.222.75-.223l.927-.634.634-.924c0-.001.186-.53.22-.732a2.8 2.8 0 0 0 .028-.833c-.038-.371-.095-.523-.136-.652-.082-.259-.136-.369-.189-.485-.106-.23-.206-.42-.33-.648a60 60 0 0 0-1.005-1.74c-.837-1.413-2-3.322-3.318-5.445-2.638-4.244-5.882-9.332-8.273-12.915-33.603-50.369-81.074-82.017-127.107-83.871"/><path fill="#db812e" d="m692.122 1172.09-14.607 15.912c-15.15 16.504-38.72 39.007-44.134 51.788-.559 1.318 2.62-12.934 4.4-23.25 4.04-23.425 10.286-47.809 11.02-54l2.393-14.845c15.007 5.157 27.435 16.275 40.928 24.395m509.028-12.438 15.729 14.805c16.313 15.356 35.962 37.306 42.294 49.659.653 1.274-.404-13.915-2.931-24.072-5.738-23.069-11.398-46.953-12.58-53.074l-3.47-14.631c-14.592 6.237-26.176 18.231-39.042 27.313"/><path fill="#e8bcd5" fill-rule="evenodd" d="M1308.827 542.149a105.188 113.73 0 0 0-31.768 5.313c-11.066 6.65-21.702 15.047-32.13 25.304-5.203 5.119-12.05 12.826-17.68 19.619-2.815 3.397-5.316 6.554-7.157 9.067-.92 1.256-1.673 2.344-2.252 3.29-.29.474-.537.904-.756 1.378-.22.473-.516.843-.516 2.098 0 1.011.629 2.2 1.272 2.747a3.45 3.45 0 0 0 1.538.784c.75.189 1.134.147 1.526.126.786-.042 1.493-.175 2.35-.363 1.713-.374 3.879-.999 6.271-1.812 4.977-1.693 10.714-3.07 15.83-3.887s9.759-1.007 11.859-.666c2.01.326 3.828 1.197 4.981 2.161.955.798 1.353 1.561 1.46 2.015 0-.009.01-.016.012-.02v-.009.004c.01.022.01.107.01.265q0-.098-.03-.24c-.05.107-.175.512-.488.98-.519.773-1.39 1.808-2.465 2.875-2.15 2.133-5.134 4.422-7.85 5.884l-4.072 2.193a3.49 3.49 0 0 0-.651 5.696l5.35 4.71c2.593 2.282 3.682 4.202 3.887 5.232s.111 1.479-1.164 2.621c-2.55 2.285-10.545 4.98-22.809 5.878-2.79.204-5.323.448-7.219.686a37 37 0 0 0-2.377.363 8 8 0 0 0-.997.247c-.196.064-.409.123-.827.366-.208.122-.48.282-.854.69a3.56 3.56 0 0 0-.927 2.381c0 1.366.283 1.414.39 1.632s.184.344.262.467c.155.247.305.459.481.7q.529.726 1.356 1.761a194 194 0 0 0 4.236 5.086c10.982 12.793 32.17 44.04 38.638 56.887 2.098 4.17 8.809 21.176 12.298 31.436.452 1.33 1.826 2.514 2.956 2.946 1.13.431 2.166.54 3.472.614 2.612.145 6.346-.002 12.414-.342 36.476-2.043 59.383-9.394 81.724-26.455 8.91-6.804 19.329-17.259 28.633-28.288a105.188 113.73 0 0 0 6.962-40.688 105.188 113.73 0 0 0-105.188-113.733zM600.99 575.621A122.022 104.806 0 0 0 478.968 680.43a122.022 104.806 0 0 0 6.62 34.055c24.578 20.737 46.845 33.314 74.222 42.11 8.466 2.72 15.54 4.54 30.29 7.801 9.124 2.018 13.339 3.104 14.303 3.528 13.597 6.283 27.264-30.732 42.002-58.002 4.053-7.509 9.4-17.317 11.855-21.756 1.235-2.232 2.372-4.285 3.207-5.797l1.004-1.817c.243-.44.28-.503.422-.77.13-.245.314-.9.314-.903l-.007-1.105c0-.002-.2-.69-.349-.951a3 3 0 0 0-.46-.617c-.598-.62-.946-.68-1.182-.767-.471-.173-.634-.169-.812-.192a8 8 0 0 0-.948-.063c-.65-.016-1.45-.002-2.35.042-3.513.17-10.586-1.297-17.3-3.64-6.714-2.341-13.333-5.608-16.423-8.157-3.615-2.982-4.61-5.849-4.284-7.15.22-.877 2.454-3.149 7.756-4.893a48 48 0 0 0 2.183-.77c.297-.115.544-.216.801-.335.13-.06.25-.112.468-.245.109-.066.239-.138.488-.359.124-.11.286-.25.498-.557.106-.154.334-.633.335-.635l.212-1.115c0-.001-.024-.398-.048-.537a3 3 0 0 0-.223-.725c-.082-.182-.134-.268-.178-.342a3 3 0 0 0-.188-.286c-.097-.133-.178-.23-.269-.341-.181-.225-.4-.487-.67-.799a127 127 0 0 0-2.049-2.304c-4.334-4.766-6.201-8.883-6.201-10.625 0-.544 1.208-3.616 1.645-4.082 1.171-1.247 1.621-1.443 4.852-1.443 5.035 0 10.497 2.213 20.595 9.07a184 184 0 0 0 4.299 2.845 46 46 0 0 0 1.418.875c.192.112.352.205.565.31.107.053.208.107.467.195.13.045.285.106.666.15.19.022.44.05.854-.018.207-.033.749-.222.75-.223l.927-.634.634-.924c0-.001.186-.53.22-.732a2.8 2.8 0 0 0 .028-.833c-.038-.371-.095-.523-.136-.652-.082-.259-.136-.369-.189-.485-.106-.23-.206-.42-.33-.648a60 60 0 0 0-1.005-1.74c-.837-1.413-2-3.322-3.318-5.445-2.638-4.244-5.882-9.332-8.273-12.915-9.425-14.127-19.94-26.784-31.21-37.721a122.022 104.806 0 0 0-14.476-.74"/><path fill="#9c591b" d="M1227.922 373.816c-7.376.194-14.482.7-20.856 1.538-84.194 10.984-150.584 70.04-140.84 160.949 1.617 5.091-2.507 4.05-4.918-1.241-2.054-4.509-13.023-11.458-18.085-11.458-1.405 0-3.037-1.928-3.629-4.284-3.25-12.95-49.287-8.457-49.287-11.145 0-.375.93-2.171 2.067-3.991 12.633-20.23-44.301-9.723-61.133-1.018-6.158 3.184-6.262 2.77-1.618-6.334 4.02-7.88 4.629-16.079 1.43-19.278-4.95-4.95-14.168-1.217-28.554 11.56-5.123 4.55-14.16 11.84-20.082 16.199-10.603 7.805-10.783 7.861-11.748 3.737-.806-3.448-2.299-4.284-8.453-4.734-8.654-.633-18.695 3.336-33.828 13.376-7.209 4.782-12.201 6.804-16.806 6.804-6.515 0-6.554-.047-7.707-8.924-2.19-16.857-6.508-30.374-15.67-49.082-13.76-28.1-54.71-85.34-158.986-81.648-29.86 1.058-47.49 5.486-74.177 18.633-54.725 26.958-99.73 81.671-115.702 140.654-4.412 16.294-4.828 20.567-4.755 49.082.072 28.14.556 33.002 4.88 49.082 6.548 24.346 22.828 56.946 37.582 75.258 26.892 33.376 63.136 55.057 103.933 62.172 8.445 1.472 16.16 2.677 17.148 2.677 5.128 0-5.465 73.711-21.801 151.708-4.962 17.74-6.403 35.682-6.934 53.952-.632 21.77 2.55 45.847 8.318 62.932 14.642 45.338 46.671 77.154 57.657 87.082l12.856 11.619c-2.406 19.853-4.986 39.713-10.733 58.95-16.251 58.225-34.12 118.7-20.49 179.593 6.097 22.273 15.46 39.435 28.808 52.808l11.632 11.657-9.332 9.314c-17.066 17.033-20.562 29.61-11.193 40.28 2.945 3.355 5.354 7.354 5.354 8.886 0 1.533 1.807 4.09 4.016 5.686 3.037 2.194 6.191 2.634 12.94 1.792 4.908-.613 13.16-1.025 18.34-.914 7.53.162 11.391-.926 19.284-5.441 10.868-6.219 36.379-24.58 43.936-31.621l4.818-4.487 54.973-.442c31.182-.252 69.268-1.674 87.996-3.288 40.842-3.519 69.148-3.56 132.075-.191 26.995 1.444 65.123 3.16 84.726 3.81l35.64 1.178 14.334 12.277c23.314 19.97 47.587 30.176 57.037 23.984 3.226-2.114 6.572-2.587 12.522-1.771 7.848 1.076 8.395.836 16.398-7.167 7.986-7.986 8.242-8.566 7.177-16.335-1.377-10.05-4.495-16.148-13.678-26.758l-7.21-8.328 6.739-4.898c11.934-8.673 26.865-26.495 33.381-39.84 9.005-18.445 11.938-31.245 12.982-56.675 1.329-70.051-22.865-136.931-37.035-204.782l-2.15-11.127 15.08-15.85c8.295-8.718 17.432-19.569 20.305-24.116 7.593-9.278 12.61-19.913 18.05-30.516 11.323-22.071 20.76-49.75 23.754-69.677 3.858-15.524 3.953-30.398 2.99-46.105-.61-9.981-3.477-29.392-6.368-43.135-12.92-61.412-12.054-94.219-16.395-122.04-.976-6.26-1.542-11.542-1.258-11.737s8.949-2.514 19.256-5.152c65.947-16.88 107.257-60.225 121.893-127.9 5.094-23.552 5.403-72.611.596-94.594-17.178-78.565-75.746-142.941-150.331-165.24-14.482-4.33-39.033-6.544-61.16-5.965m22.966 4.061c53.93 3.426 105.803 32.21 141.703 78.63 30.675 39.664 44.387 76.864 46.269 125.549.351 9.08-.036 16.51-.858 16.51-.242 0-6.512-23.85-23.725-42.442-7.445-8.042-14.048-12.959-24.262-18.071-64.152-32.109-135.13 8.429-173.513 66.066-12.771 19.177-13.56 23.313-3.015 15.805 20.096-14.31 55.082-18.603 46.21-7.802-5.951 7.245-42.72 18.876-42.72 20.637 0 2.314 3.895 1.811 14.65-1.89 9.614-3.307 10.038-3.31 17.235-.086 4.059 1.817 7.38 4.127 7.38 5.134 0 4.052-9.028 7.388-22.889 8.457-18.64 1.438-17.487 4.902 1.262 3.79 14.184-.842 23.934-4.473 25.922-9.653 3.359-8.753-18.08-11.81-8.171-15.976 6.037-2.539 14.585-10.187 14.585-13.052 0-4.829-10.058-14.407-47.19.799-5.434 2.225 10.288-19.09 25.19-34.152 72.857-73.64 172.31-51.572 188.858 26.897 3.335 15.816 3.344 22.575.045 38.255-3.489 16.584-6.378 23.17-16.405 37.376-33.485 47.442-65.524 67.009-113.523 69.34-11.567.56-21.452 1.705-21.969 2.54-1.558 2.522 34.973 1.645 48.197-1.157 29.586-6.268 57.85-25.846 83.729-58.006l5.027-6.247-3.999 7.14c-6.756 12.07-22.814 31.01-33.44 39.446-20.364 16.167-45.599 27.575-74.93 33.877-13.469 2.893-14.756 3.534-13.857 6.878 3.41 12.687 5.312 70.788 17.907 133.407 3.577 17.784 6.43 37.73 6.72 46.973l.506 16.063c-1.054 3.073-.892 6.16-.892 9.356 0 10-5.46 34.323-11.831 52.721-.357 1.029-22.103 58.433-57.634 93.134-7.641 7.464-9.066 9.887-9.066 15.401 0 29.351 53.358 166.711 33.709 244.354-13.61 53.782-56.954 83.232-130.089 88.39-10.52.742-44.05-.297-88.347-2.737-185.318-10.207-278.486 11.751-345.36-1.631-55.21-11.049-84.858-45.697-91.031-106.388-3.593-35.318 1.473-70.7 18.782-131.242 7.555-26.899 15.907-54.361 15.136-82.575-15.82-16.223-32.207-32.102-45.82-50.278-30.005-42.86-35.462-85.465-29.142-136.98.241-1.921 3.982-23.312 8.848-47.499 4.865-24.187 10.47-55.22 12.458-68.962 3.924-27.12 7.425-63.421 6.292-65.254-.388-.628-6.658-1.644-13.93-2.259-32.752-2.768-66.184-18.771-93.66-44.829-20.122-19.084-23.68-25.57-6.24-11.374 25.74 20.95 50.135 33.294 82.464 41.73 20.045 5.23 37.692 7.56 34.953 4.615-1.007-1.084-9.654-3.579-19.214-5.546-45.202-9.3-76.4-25.588-111.902-58.42-10.715-9.91-14.384-14.797-19.85-26.445-13.051-27.818-21.048-67.178-18.952-93.287.9-11.207 1.21-11.807 11.378-22.13 13.516-13.72 33.457-23.85 52.697-26.768 51.26-7.772 109.42 27.332 147.724 89.17l9.168 14.802-9.123-6.275c-28.574-19.655-35.942-2.058-25.099 10.078l5.18 5.797-5.452 1.816c-12.563 4.189-9.615 14.143 6.386 21.56 12.145 5.63 27.707 8.904 30.248 6.363 2.12-2.12 2.929-1.794-15.485-6.226-33.243-8.001-32.433-24.465-.191-15.418 24.238 6.8 23.147 2.383-1.562-6.327-10.597-3.736-18.78-10.856-19.389-16.872-.842-8.332 12.97-8.426 33.873 12.66 5.135 5.181 9.914 8.841 10.618 8.137 1.849-1.849-8.848-22.823-20.57-40.333-47.106-70.36-116.096-95.798-164.784-78.974-12.477 4.312-34.905 18.814-39.716 25.681-2.783 3.974-2.813 3.976-2.813.248 0-2.072 1.962-10.539 4.361-18.817 16.616-57.337 60.144-108.571 114.329-134.565 30.29-14.53 44.092-17.593 78.53-17.436 34.442.156 146.566 9.921 162.09 129.28.972 7.472.663 8.378-3.768 11.015-5.99 3.563-27.817 22.373-28.627 24.67-1.422 4.034 4.333 1.06 12.829-6.627 11.559-10.46 23.976-18.458 28.654-18.458 2.939 0 2.057 1.569-4.81 8.54-10.531 10.692-11.27 16.36-.827 6.349 27.482-26.349 61.308-43.654 63.44-32.455.825 4.327-4.968 8.934-21.992 17.486-8.317 4.178-15.122 8.37-15.122 9.314 0 6.983 47.77-21.536 72.285-43.152 14.33-12.636 21.978-16.767 25.548-13.804 2.95 2.448 1.518 8.679-4.291 18.66-2.949 5.066-8.45 10.155-16.834 15.579-6.85 4.43-12.455 8.877-12.455 9.879 0 2.804 1.697 2.248 10.611-3.472 21.97-14.098 54.087-25.05 73.456-25.05 11.904 0 14.276 2.142 8.812 7.958-3.128 3.33-7.073 4.529-20.476 6.216-16.277 2.048-34.306 6.034-36.296 8.024-2.846 2.846 2.7 2.575 19.448-.948 25.705-5.406 70.79-6.696 80.982-.742l7.272 4.249-25.12.345c-27.256 1.306-38.373 2.917-38.373 5.56 0 1.069 5.517 1.161 14.725.248 31.873-3.164 60.31-.684 65.626 5.72 1.975 2.38.469 2.556-12.923 1.527-9.896-.76-15.56-.513-16.317.711-.75 1.213 3.727 2.315 12.685 3.116 7.614.682 17.953 2.596 22.976 4.257l9.133 3.019.976-24.182c5.999-148.71 154.477-145.638 179.763-144.033zm105.843 592.54v3.03c2.374-.138 3.895-.343 4.148-.596 1.049-1.048.103-1.778-4.148-2.433M660.36 988.155c4.782 1.687 6.853 1.696 6.069 0zm.774 466.677 11.284 5.696c13.869 7.001 33.474 12.157 52.135 13.714 7.754.646 14.09 1.663 14.084 2.259-.027 2.12-34.985 27.096-45.806 32.726-9.26 4.817-11.82 5.447-16.063 3.963-7.01-2.451-7.616-9.554-1.502-17.57 5.265-6.902 3.435-10.244-2.273-4.15-4.958 5.292-7.758 13.097-6.498 18.119.809 3.223.144 4.33-3.12 5.205-14.202 3.803-19.774-1.38-14.979-13.937 1.59-4.162 4.877-9.434 7.307-11.716 4.413-4.147 5.885-8.883 2.76-8.883-2.471 0-12.591 12.79-13.769 17.402-1.336 5.233-3.429 5.078-7.1-.526-4.687-7.152-.877-16.534 12.42-30.568zm562.662.544 6.33 7.007c12.078 13.368 17.667 31.932 11.225 37.278-1.9 1.578-2.82.602-4.434-4.692-2.767-9.079-8.893-18.7-11.054-17.363-1.055.651-.051 4.105 2.489 8.565 5.297 9.303 7.078 18.135 4.148 20.567-1.227 1.018-4.808 1.262-8.234.56-4.994-1.02-6.483-2.444-8.436-8.083-2.929-8.461-9.292-18.957-11.493-18.957-2.746 0-1.86 3.088 2.908 10.113 3.209 4.729 4.39 8.562 4.015 13.02-.504 6.001-.887 6.339-7.669 6.784-10.918.716-29.723-9.6-48.597-26.664-4.15-3.752-6.961-6.826-6.247-6.83.714 0 8.573-1.185 17.465-2.628 18.89-3.064 37.552-8.547 49.266-14.473z"/><path d="M1296.694 970.152c-30.085 1.766-92.88 11.718-99.415 15.757-6.002 3.708 1.223 3.46 21.752-.75 25.205-5.168 55.375-9.323 80.546-11.092 13.81-1.722 27.627-.916 41.483-.506 10.253.255 19.173-.064 19.82-.71 1.873-1.873-2.617-2.723-20.936-3.964-14.715-.2-28.814.417-43.25 1.265m-94.069 81.753c-1.105 0-1.718.881-1.36 1.956s10.884 5.988 23.799 9.572c24.984 6.934 72.545 23.831 103.313 56.42 9.836 10.419 15.32 9.161 15.32 9.161s-32.232-29.99-48.866-39.506c-9.261-6.546-18.824-10.746-29.121-15.422-13.492-6.176-59.012-22.181-63.085-22.181M503.641 967.13c-.383 1.165 11.06 1.565 32.88 1.15 38.985-2.222 77.833 1.2 114.475 16.008 12.917 5.831 18.004 6.72 14.532 2.538-5.842-7.04-48.256-19.197-75.463-21.63-6.612-.415-73.868-2.057-86.424 1.934m101.735 84.488c14.338-4.471 40.239-9.483 41.489-8.027 1.705 1.987-1.43 3.302-12.466 5.222-30.213 6.309-59.63 18.24-86.986 32.378-10.205 5.878-15.714 5.406-15.714 5.406s48.395-27.099 73.677-34.98"/><path fill="#ba6b24" d="M841.886 982.11c-7.65.103-19.2 58.683 24.063 74.013 30.467 10.795 60.392-8.88 70.423-26.63 1.81-3.202 2.665-2.682 11.071 6.722 50.738 56.762 123.802-6.975 97.073-47.768-4.482-6.842-6.165-3.28-2.384 5.048 12.787 28.167-12.78 60.195-48.05 60.195-37.696 0-50.937-33.911-55.681-33.911-1.67 0-12.069 21.052-31.116 30.425-12.107 5.957-32.183 6.14-43.047.39-22.002-11.644-30.89-34.4-22.76-58.26 1.583-4.646 2.342-8.98 1.687-9.635-.405-.405-.837-.596-1.28-.59"/><path fill="#e7aebd" fill-rule="evenodd" d="M935.373 938.337c-3.677-.387-7.29-2.26-11.258-5.836-.974-.878-5.802-5.634-5.72-5.634.032 0 .346-.051.699-.114 2.51-.445 7.772-.709 11.332-.567 4.84.193 9.185.798 13.397 1.864 3.81.965 6.685 2.18 8.042 3.4.207.187.377.382.377.434s-.144.137-.32.19c-1.063.316-3.461 1.59-5.741 3.05-1.592 1.019-2.53 1.54-3.612 2.003-2.438 1.046-4.872 1.455-7.196 1.21"/><path fill="#ca8d51" d="M916.593 925.505a.9.9 0 0 0-.655.279c-2.045 2.044 1.162 6.493 8.516 11.82 4.12 2.985 9.416 5.428 11.772 5.428 5.028 0 13.194-3.93 16.537-7.958 4.127-4.973.631-4.967-6.895.017-15.705 10.22-25.585-9.586-29.275-9.586"/><path d="M1141.199 739.275c-40.686.011-76.097 29.347-87.532 72.738-10.752 40.8 4.792 132.205 90.774 143.415 90.955 11.859 148.123-103.994 71.65-181.206-24.17-24.403-50.48-34.953-74.892-34.947m-8.938 14.394c6.035-.058 12.146 1.106 18.19 3.705 34.744 14.947 55.807 73.354 30.122 113.96-5.14 8.125-22.984 30.873-59.68 26.81-25.932-2.872-46.076-17.018-53.125-37.303-16.158-46.499 22.249-106.765 64.493-107.172m90.004 94.852c5.98.103 11.773 3.683 13.284 9.705 1.305 5.198-2.694 14.203-7.052 15.875-14.358 5.51-27.164-11.59-16.314-21.784 2.838-2.666 6.493-3.857 10.081-3.796m-32.273 41.403c14.423.569 28.7 12.478 23.596 30.965-2.438 8.83-10.23 18.48-17.315 21.439-6.589 2.753-8.738 2.983-13.312.798-11.916-5.691-18.093-11.292-18.27-24.956-.265-20.423 12.574-28.748 25.3-28.246M752.928 735.319c-30.898.044-56.492 10.729-78.549 32.785-20.055 20.055-29.778 41.393-34.054 74.732-12.24 95.44 98.959 135.597 167.824 68.07 50.665-49.681 38.687-122.466 7.606-152.113-17.63-16.816-35.553-23.514-62.827-23.474m11.009 21.522c15.882-.13 31.512 6.034 42.117 17.262 47.434 50.224 13.574 137.641-62.266 117.766-28.36-9.469-44.335-40.462-39.28-76.21 5.784-40.9 32.958-58.603 59.429-58.818m-95.017 80.494a14 14 0 0 1 1.524 0c2.7.149 5.337 1.094 7.498 3.05 4.74 4.29 4.753 14.032.024 18.761-7.066 7.067-19.965 2.837-22.365-7.334-1.813-7.683 5.696-14.076 13.32-14.477m23.471 38.181c10.938.017 21.64 7.448 23.938 21.045 3.113 18.423-15.707 36.26-34.085 27.95-12.315-5.568-18.236-22.887-11.96-34.988 4.95-9.546 13.6-14.019 22.107-14.007"/><path fill="#c87222" fill-rule="evenodd" d="M1090.207 453.806c-11.465 14.144-12.222 30.02-8.747 44.564 1.719 6.985 4.354 13.726 7.174 20.24l-3.315 3.657-3.099-1.792c-.727-7.385-1.776-14.871-3.573-21.404-4.101-14.535-12.559-27.855-29.191-35.302-6 16.142-2.02 31.84 5.867 44.885 3.154 5.14 7.001 10.075 11.05 14.77l-2.802-.99-1.883 4.898c-2.585-6.026-5.502-11.954-8.892-17.2-8.4-12.81-20.732-23.37-38.883-26.253-.884 17.115 7.438 31.296 18.849 41.849 4.985 4.55 10.774 8.684 16.69 12.466l-.125.676-7.62.227c-3.444-4.024-7.104-7.88-10.998-11.28-11.795-10.17-27.214-17.195-45.227-15.224 4.128 17.19 16.057 28.24 30.133 35.372 4.95 2.47 10.442 4.576 16.056 6.431l.99 5.222-1.639.694c-5.371-3.646-10.994-7.094-16.798-9.823-14.271-6.6-30.918-9.433-48.113-2.214 8.97 15.601 23.8 22.67 39.62 25.399 5.197.863 10.973 1.297 16.831 1.502l-2.872 1.9 1.78 2.858c-5.314-1.452-10.737-2.706-16.268-3.475-15.784-2.096-32.798.024-47.447 12.741l.202.185c14.213 12.266 31.086 13.998 46.879 11.573 6.073-.97 12.032-2.518 17.866-4.267l1.52 1.656-2.521 3.556c-5.708.334-11.331.888-16.415 1.837-15.933 3.075-31.017 10.487-40.517 26.375 17.034 6.906 33.837 3.688 48.353-3.267 3.672-1.787 7.277-3.85 10.8-6.065l4.915 2.43c-5.022 1.817-9.919 3.845-14.394 6.149-14.339 7.49-26.654 18.9-31.338 36.379 18.072 1.604 33.793-5.848 45.937-16.388 2.786-2.447 5.461-5.113 8.032-7.899l-.223 3.57 1.715.153c-2.629 1.997-5.156 4.077-7.516 6.24-11.77 10.924-20.554 25.48-20.159 42.853 18.39-3.332 31.107-14.336 39.9-27.511 2.262-3.437 4.338-7.146 6.257-10.978l1.534 4.828a102 102 0 0 0-5.281 7.593c-8.282 13.406-12.713 29.459-7.083 45.784 16.99-7.964 25.853-21.717 30.338-36.574 1.102-3.739 1.974-7.77 2.687-11.912v-.004l1.834-.917 1.949 2.423c-1.4 3.621-2.652 7.31-3.65 11.061-3.85 14.856-3.469 31.01 7.777 45.202 5.435-4.675 9.477-10.01 12.274-15.714 4.34-9.036 5.523-18.52 5.079-27.815-.177-3.256-.55-6.499-1.042-9.719l3.785-4.172c-.191 4.758-.19 9.404.164 13.62 1.387 15.282 7.308 29.87 22.575 39.37 8.922-15.766 7.374-31.675 1.813-45.62-1.179-2.9-2.554-5.772-4.054-8.604l1.68.592 1.307-3.402c1.101 3.582 2.338 7.053 3.748 10.284 6.135 13.812 16.394 25.791 33.573 30.774 3.483-16.838-2.471-31.846-11.908-43.683-2.963-3.665-6.337-7.16-9.893-10.485l5.584-.168c2.07 3.108 4.26 6.09 6.588 8.844 9.86 11.504 23.612 20.281 41.03 20.595-1.446-16.937-11.25-29.729-23.593-38.582-4.582-3.242-9.733-6.144-15.035-8.781l-.488-2.584 3.964-1.673c4.2 3.895 8.627 7.599 13.27 10.733 12.649 8.418 28.27 13.277 45.067 8.851-6.172-16.23-18.945-25.321-33.333-30.383-5.236-1.805-11.078-3.187-17.015-4.309l1.018-.673-4.266-6.856c6.851 3.527 14.01 6.916 21.229 9.21 14.465 4.492 30.594 5.045 45.788-4.473-10.58-13.986-25.671-18.726-41.21-19.12-7.325-.14-16 .792-24.295 1.906l-1.774-1.938 4.528-6.39c7.442.792 15.04 1.358 21.575 1.095 15.548-.722 30.694-5.777 41.416-19.96-15.059-9.16-31.153-8.265-45.648-3.483-7.181 2.419-14.324 5.912-21.174 9.545l1.14-2.479-6.735-3.332c8.826-1.544 18.002-3.481 25.842-6.33 14.422-5.345 27.269-14.655 33.604-30.886-16.662-4.024-32.27 1.126-44.986 9.743-6.717 4.614-13.01 10.386-18.838 16.213l-3.936-1.109.346-5.528c7.265-3.458 14.529-7.347 20.762-11.825 12.416-9.038 22.344-21.903 24.004-38.648-17.295.683-31.086 9.635-41.071 21.212-5 5.872-9.407 12.76-13.358 19.66l-.527-4.263-6.494.617c6.473-5.437 12.924-11.356 18.14-17.754 9.573-11.893 15.715-26.81 12.526-43.285-17.105 5.26-27.488 17.262-33.831 31.004-3.154 6.95-5.523 14.986-7.485 22.865l-3.918 1.126-2.53-4.72c4.23-6.517 8.33-13.36 11.29-20.33 5.78-13.86 7.607-29.531-.93-44.795-15.296 9.633-21.464 24.08-23.161 39.147-.751 7.092-.513 15.402-.031 23.394l-3.218-4.001-3.604 2.736c1.763-7.317 3.395-14.805 3.97-22.334.655-9.397-.386-18.945-4.761-27.916-2.637-5.283-6.418-10.193-11.48-14.473z" style="font-variation-settings:normal"/><path fill="#ffc84e" fill-rule="evenodd" stroke="#8a5f00" stroke-width=".579" d="M-267.614-34.51c-3.433-4.538-8.328-6.076-13.37-6.204-4.504-.086-10.582 1.077-14.412 1.527 3.832 1.852 8.343 4.671 12.928 6.128 4.693 1.457 9.925 1.636 14.854-1.452zm-4.354 12.16c-2.002-5.265-6.146-8.215-10.813-9.857-4.39-1.513-10.092-2.105-14.248-2.716 2.95 3.017 6.448 7.006 10.44 9.702 4.104 2.73 9.172 4.307 14.621 2.871zm-7.52 10.393c-.47-5.495-3.65-9.645-7.654-12.517-3.884-2.747-9.03-4.743-13.003-6.418 1.945 3.759 4.278 8.625 7.346 12.254 3.199 3.731 7.66 6.58 13.311 6.681zm-10.188 8.077c1.13-5.463-.8-10.332-3.862-14.172-3.013-3.727-7.344-6.905-10.655-9.586.855 4.049 1.78 9.542 3.627 13.774 1.99 4.48 5.317 8.367 10.89 9.984zm-12.348 5.183c2.894-5.114 2.392-10.276.588-14.8-1.794-4.412-4.99-8.629-7.179-12.218-.267 3.843-1.108 9.786-.733 14.245.45 4.958 2.37 9.69 7.324 12.773zm-13.897 1.437c1.764-1.517 3.074-3.247 3.982-5.098 1.408-2.931 1.792-6.008 1.648-9.024-.164-3.009-.839-5.981-1.48-8.853-.429-1.873-.8-3.456-1.123-5.158-1.689 4.16-4.267 8.648-5.55 13.468-1.25 4.82-1.125 10.061 2.523 14.665zM-329.2-.27c5.512-2.584 8.388-7.046 9.842-11.866 1.315-4.458 1.623-10.205 2.057-14.257-2.958 3.22-6.958 7.05-9.602 11.27-2.686 4.348-4.123 9.556-2.297 14.852zm-11.46-6.397c5.965-1.081 10.091-4.65 12.944-8.925 2.692-4.089 4.566-9.375 6.135-13.403-3.844 2.277-8.83 5.025-12.54 8.425-3.818 3.545-6.668 8.267-6.54 13.903zm-9.015-9.256c5.863.52 10.963-1.897 14.903-5.316 3.795-3.335 6.964-7.91 9.602-11.429-4.253 1.23-9.926 2.673-14.338 4.944-4.652 2.43-8.648 6.131-10.167 11.801zm-5.948-11.557c5.526 2.241 10.977 1.197 15.686-1.06 4.575-2.225 8.84-5.782 12.438-8.333-4.146.126-10.273-.042-14.98.837-5.168.997-10.062 3.402-13.144 8.556zm-2.275-13.273.065.06c4.61 3.98 10.085 4.541 15.208 3.754 5.122-.818 9.996-2.901 14.552-4.111l.065-.018c-4.541-1.113-9.378-3.107-14.498-3.818-5.121-.68-10.64.007-15.392 4.133zm2.71-13.277c2.91 5.061 7.721 7.355 12.854 8.24 4.679.777 10.802.478 14.944.515-3.526-2.47-7.688-5.92-12.19-8.037-4.629-2.14-10.03-3.06-15.608-.718zm6.284-11.576c1.34 5.577 5.21 9.162 9.776 11.475 4.338 2.164 9.958 3.477 14.173 4.608-2.544-3.444-5.586-7.92-9.276-11.144-3.827-3.3-8.829-5.578-14.673-4.939zm9.224-9.315c-.287 5.553 2.413 10.153 6.115 13.577 3.605 3.29 8.502 5.909 12.278 8.088-1.467-3.966-3.205-9.165-5.78-13.148-2.724-4.156-6.725-7.581-12.613-8.517zm11.53-6.524c-1.947 5.237-.655 10.33 1.904 14.561 2.523 4.113 6.413 7.82 9.284 10.952-.341-4.007-.516-9.69-1.718-14.06-1.33-4.715-4.074-9.037-9.47-11.453zm13.22-3.232c-3.719 4.589-3.964 9.739-2.837 14.458 1.164 4.73 3.627 9.114 5.215 13.205.343-1.618.73-3.144 1.177-4.918.716-2.922 1.483-5.948 1.715-8.994.213-3.048-.125-6.145-1.545-9.055-.855-1.714-2.082-3.307-3.724-4.696zm13.718 1.119c-4.962 3.125-6.963 7.812-7.514 12.7-.466 4.407.246 10.263.432 14.071 2.255-3.604 5.518-7.845 7.385-12.24 1.875-4.496 2.467-9.58-.303-14.531zm12.135 4.817c-5.549 1.707-8.917 5.6-10.975 10.058-1.914 4.22-2.94 9.676-3.87 13.714 3.352-2.732 7.722-5.977 10.782-9.73 3.105-3.858 5.098-8.697 4.063-14.042zm9.987 7.725c-5.61.221-10.085 3.126-13.324 6.882-3.115 3.658-5.523 8.534-7.53 12.312 3.992-1.752 9.156-3.847 13.067-6.656 4.028-2.932 7.248-7.106 7.787-12.538zm7.348 10.107c-5.406-1.305-10.47.365-14.595 3.16-4.02 2.762-7.573 6.804-10.571 9.873 4.158-.7 9.861-1.413 14.264-3.013 4.679-1.734 8.847-4.754 10.902-10.02zm4.208 11.992c-4.886-2.971-10.107-2.682-14.81-1.13-4.598 1.549-9.15 4.457-13.012 6.387 3.817.366 9.88 1.4 14.385 1.219 5.045-.234 9.958-1.875 13.437-6.476z" style="font-variation-settings:normal" transform="translate(2060.97 695.743)scale(3.08247)"/><path fill="#563c31" fill-rule="evenodd" d="m1160.335 608.939 1.737 9.159-9.107 1.989.024 9.324-9.319.28-1.689 9.168-9.21-1.436-3.346 8.702-8.79-3.104-4.887 7.939-8.071-4.666-6.262 6.905-7.077-6.069-7.424 5.636-5.84-7.265-8.334 4.176-4.406-8.216-8.959 2.575-2.82-8.886-9.28.884-1.141-9.252-9.285-.835.58-9.304-8.973-2.528 2.278-9.04-8.355-4.135 3.902-8.466-7.454-5.597 5.39-7.606-6.297-6.874 6.696-6.485-4.93-7.913 7.775-5.144-3.388-8.685 8.587-3.628-1.738-9.159 9.109-1.989-.024-9.324 9.317-.28 1.69-9.168 9.211 1.436 3.344-8.702 8.79 3.104 4.887-7.939 8.072 4.666 6.263-6.905 7.075 6.069 7.425-5.636 5.839 7.265 8.335-4.176 4.405 8.215 8.96-2.574 2.82 8.886 9.281-.884 1.14 9.252 9.284.835-.58 9.306 8.973 2.526-2.278 9.04 8.355 4.135-3.902 8.466 7.454 5.597-5.39 7.606 6.299 6.874-6.698 6.485 4.93 7.913-7.775 5.144 3.39 8.685z"/><path fill="#341b12" fill-rule="evenodd" d="m1143.657 600.005 1.284 6.765-6.728 1.47.018 6.887-6.884.208-1.248 6.772-6.804-1.06-2.471 6.428-6.493-2.293-3.611 5.864-5.963-3.446-4.625 5.1-5.228-4.483-5.485 4.163-4.313-5.366-6.157 3.085-3.255-6.07-6.618 1.903-2.084-6.565-6.855.653-.843-6.834-6.858-.618.427-6.872-6.628-1.868 1.683-6.678-6.172-3.054 2.882-6.254-5.506-4.136 3.982-5.618-4.652-5.078 4.947-4.79-3.642-5.846 5.744-3.8-2.503-6.416 6.343-2.68-1.284-6.766 6.729-1.469-.018-6.888 6.883-.208 1.248-6.772 6.805 1.061 2.47-6.428 6.493 2.293 3.611-5.865 5.962 3.447 4.627-5.1 5.227 4.482 5.484-4.163 4.314 5.367 6.157-3.085 3.254 6.069 6.62-1.902 2.083 6.564 6.856-.653.841 6.835 6.86.617-.429 6.874 6.629 1.867-1.684 6.677 6.173 3.055-2.883 6.254 5.507 4.135-3.983 5.619 4.654 5.077-4.948 4.791 3.642 5.845-5.744 3.8 2.505 6.416z"/><path fill="#c52095" fill-rule="evenodd" d="M937.234 1101.087c-2.574 0-5.315.773-7.774 2.19-2.459 1.419-5.488 2.785-7.698 6.08-24.237 36.135-70.464 27.259-70.88 26.621-4.851-6.769-17.18 68.184-46.254 70.568-7.243.594-8.889 9.399-9.747 15.126s1.285 11.021 4.695 17.814c3.938 7.845 11.827 25.9 11.747 26.119-.16.437-.286.845-.423 1.316-.273.94-.57 2.095-.899 3.453-.66 2.716-1.436 6.209-2.187 9.783a385 385 0 0 0-2.015 10.222c-.543 3.003-.958 4.65-.958 6.937 0 2.638.9 3.828 1.74 5.212s1.875 2.748 3.08 4.192c2.411 2.888 5.51 6.046 8.786 9.066s6.703 5.875 9.819 8.085c1.558 1.105 3.028 2.05 4.484 2.8s22.926 43.647 24.894 44.98c7.583 5.138 18.517 5.198 31.207 3.46 8.61-1.18 17.984-3.501 27.234-6.802.12 2.52 1.092 2.799 1.425 3.157.363.39.589.565.805.737.434.344.81.595 1.256.885.894.581 2.022 1.254 3.4 2.043 2.755 1.579 6.468 3.59 10.56 5.702 5.603 2.892 9.609 4.803 12.903 5.996s6.154 1.83 9.14 1.08c3.974-.997 7.26-3.306 11.31-6.107 4.052-2.8 8.016-5.905 10.705-8.876.664-.735 1.483-1.333 2.26-3.268.323-.807.527-1.977.402-3.148 11.21 2.355 21.168 3.918 29.523 4.61 10.858.901 18.828.83 24.88-2.3 3.82-1.974 6.733-5.256 9.494-9.064s5.126-8.092 6.385-12.398c2.882-9.857 4.575-25.122 5.563-46.702.167.301.33.613.506.898.304.486.6.946 1.153 1.536s1.288 2.024 4.423 1.903c2.405-.093 2.795-.693 3.664-1.162.868-.469 1.738-1.02 2.69-1.665 1.906-1.29 4.101-2.943 6.331-4.732 4.46-3.578 8.71-7.14 11.216-10.517 1.378-1.857 2.894-3.891 3.056-6.834.161-2.944-.827-4.876-1.924-7.501-1.53-3.661-4.83-9.765-7.811-14.672l-5.181-8.528a5.25 5.25 0 0 0-4.866-2.504c36.265-69.17 2.247-58.554-24.874-81.573l-2.218-7.49c-1.649-5.57-4.117-11.826-6.6-17.152-1.24-2.662-2.48-5.08-3.668-7.1-1.19-2.02-1.991-3.522-3.919-5.107-.628-.517-1.132-1-2.306-1.578-.588-.289-1.419-.669-2.777-.659s-19.754-5.074-20.691-4.07c-1.874 2.01-13.883 17.154-20.4 9.56s-12.09-13.745-15.856-16.831c-4.654-3.814-9.881-7.138-14.85-9.596-4.97-2.457-9.418-4.194-13.96-4.194zm.047 248.703c-.2.176-.83.672-.623.504.266-.446.559-.43.623-.504"/><path fill="#f853c8" fill-rule="evenodd" d="M935.643 1314.572c-3.812-1.731-8.952-9.362-12.921-19.184l-2.503-6.908 1.76-4.044c2.284-5.248 7.109-8.488 13.7-10.512 6.582-2.022 12.156-2.092 15.926-.201 3.853 1.933 9.075 8.62 12.945 16.58 5.021 10.325 5.195 9.426-3.17 16.4-3.962 3.302-8.917 6.725-11.011 7.606-4.775 2.009-10.65 2.114-14.726.263"/><path fill="url(#h)" fill-rule="evenodd" d="M940.33 1272.788a39 39 0 0 0-4.651 1.135c-6.59 2.025-11.045 5.443-13.7 10.513l-1.973 3.981 2.716 6.971c3.845 9.87 9.11 17.453 12.922 19.184 4.076 1.85 9.95 1.746 14.725-.263.375-.158.842-.397 1.378-.703.628-6.145.354-12.73-.776-18.62-1.788-9.322-5.72-16.901-10.64-22.198"/><path fill="#bd1e8f" fill-rule="evenodd" d="M799.795 1204.772v97.912c5.582-1.35 10.672-3.943 14.544-7.76 2.873-2.837 5.646-6.303 6.155-7.704.51-1.404 2.41-3.26 4.225-4.13s5.642-4.322 8.504-7.664c3.94-4.6 5.207-8.257 5.226-15.043.151-11.139 5.452-21.42-.574-32.272l-.18-.388c-4.649-9.768-13.001-16.338-26.058-20.495-4.101-1.305-8.052-2.12-11.842-2.456m295.939-13.491c-5.53-.264-11.45.592-17.72 2.588-13.057 4.157-21.41 10.724-26.059 20.492l-.182.389c-6.026 10.85-.725 21.136-.574 32.275.02 6.786 1.289 10.44 5.227 15.04 2.861 3.342 6.69 6.793 8.504 7.663s3.714 2.727 4.224 4.13c.51 1.402 3.282 4.87 6.156 7.706 3.541 3.493 8.105 5.959 13.13 7.387v-89.746a1.87 1.87 0 0 1 1.874-1.875h24.028a37 37 0 0 0-3.239-1.924c-4.7-2.478-9.839-3.86-15.369-4.125"/><path fill="#640047" d="M939.168 1093.475c-2.515-.1-4.998.021-6.606.4-6.471 1.524-13.466 6.287-21.802 14.847-4.444 4.564-7.759 8.842-11.668 15.058-3.865 6.146-3.249 5.612-5.554 4.815-3.937-1.36-19.993-2.716-28.083-2.371-11.058.47-16.497 2.064-22.376 6.556-8.442 6.449-14.728 21.124-16.406 38.305-.241 2.467-.345 7.249-.25 11.425l.166 7.183-4.297 1.393c-5.462 1.77-12.275 4.498-17.375 6.955-17.893 8.62-22.44 19.53-14.626 35.101 2.743 5.467 9.493 15.02 14.928 21.13l2.234 2.51-.71 1.578c-1.25 2.77-3.717 10.336-4.688 14.375-2.479 10.306-5.166 22.226-5.384 23.883-.483 3.655.846 7.379 4.734 13.267 4.908 7.432 19.692 19.89 28.678 24.166 2.7 1.285 8.218 3.207 9.205 3.207.344 0 .52 1.28.693 5.066.283 6.155.645 8.757 1.995 14.334 1.157 4.784 3.124 10.277 5.21 14.55 1.72 3.523 5.324 7.308 8.58 9.01 5.504 2.88 15.389 4.02 23.748 2.743 7.667-1.173 15.66-3.626 25.126-7.714l4.168-1.8 2.053 1.837c2.665 2.386 16.577 11.696 21.606 14.459 6.955 3.821 12.698 6.124 17.12 6.866 2.52.423 3.557.402 6.52-.134 5.015-.908 9.531-2.996 15.455-7.144 4.652-3.256 20.83-16.204 22.03-17.63l.931-1.107 4.167.786c2.29.432 6.405 1.343 9.142 2.026 9.497 2.367 14.63 2.939 20.39 2.27 15.187-1.766 24.092-9.567 29.51-25.85 2.76-8.297 4.309-19.919 4.313-32.377v-3.634l2.933-1.407c4.061-1.948 13.65-7.488 17.36-10.029 8.381-5.74 13.227-11.49 15.093-17.906.461-1.588.567-2.949.44-5.67-.202-4.288-1.662-9.036-4.563-14.827-1.87-3.734-11.824-20.54-13.361-22.559-.461-.605-.838-1.21-.838-1.345s.937-1.799 2.081-3.699c11.167-18.534 15.746-32.484 13.76-41.923-.652-3.099-1.571-5.232-3.456-8.015-4-5.905-10.055-10.41-17.006-12.65-2.61-.842-12.5-3.236-17.065-4.132-4.428-.87-4.36-.839-4.163-1.87.25-1.309-.461-4.298-3.069-12.897-2.546-8.398-5.458-15.99-7.876-20.535-5.545-10.423-12.55-17.196-19.777-19.12-4.318-1.148-13.541-.245-20.173 1.977-3.97 1.33-11.043 4.53-17.048 7.711-2.411 1.278-4.51 2.184-4.664 2.014s-1.447-2.068-2.875-4.22c-4.804-7.238-10.56-14.39-14.473-17.978-5.114-4.69-11.874-8.717-17.33-10.322-1.743-.513-4.292-.837-6.808-.938zm-2.018 11.818c.232 0 .45.022.65.055 6.433 1.067 10.248 2.508 16.61 6.274 7.854 4.65 18.143 14.593 26.929 26.023 1.653 2.15 4.66 5.822 6.684 8.158 3.564 4.116 8.022 10.121 10.386 13.99.634 1.036 1.212 1.824 1.285 1.75.636-.635-3.18-10.03-7.847-19.322l-3.237-6.444 1.257-.45c.691-.246 3.35-1.372 5.91-2.5 2.558-1.13 6.047-2.546 7.753-3.148 6.563-2.317 14.508-3.224 17.029-1.944 6.61 3.355 12.386 14.121 18.15 33.83l1.588 5.433-.768.496c-.494.318-2.8.633-6.456.882-3.129.213-8.888.701-12.798 1.084s-7.78.7-8.598.705c-1.435.01-3.564.585-3.264.885.08.08 2.779.32 5.996.534 17.334 1.15 34.839 5.21 48.704 11.295 11.2 4.915 15.768 7.804 17.563 11.11 1.003 1.846 1.031 2.035.97 6.55-.164 12.178-3.726 23.238-12.334 38.298-5.252 9.188-8.87 14.492-14.479 21.217-2.452 2.94-2.46 2.956-1.094 2.258.756-.388 3.38-2.2 5.829-4.028 5.392-4.024 8.751-6.225 9.948-6.518.806-.197 1.03.018 2.29 2.198.767 1.33 2.833 4.737 4.59 7.572 5.344 8.623 8.402 15.362 8.402 18.516 0 3.789-6.03 9.765-17.84 17.681-1.501 1.007-2.831 1.994-2.955 2.194-.511.828-2.262 1.427-3.164 1.084-1.19-.452-1.707-1.559-3.003-6.413-.6-2.249-2.069-7.048-3.264-10.665l-2.339-7.085c-.144-.44-.232-.44-.652 0-.393.411-.41.948-.095 2.819.225 1.335.398 7.335.409 14.22.019 11.583-.313 16.9-1.588 25.418-.175 1.173-.489 4.533-.697 7.466-.539 7.592-.949 10.29-2.512 16.527-1.751 6.99-3.522 10.671-7.36 15.3-3.265 3.937-4.674 5.127-8.087 6.826-3.13 1.559-5.622 1.875-14.575 1.848-8.23-.025-14.623-.876-32.173-4.281-12.774-2.48-16.368-3.312-22.731-5.268-2.237-.688-4.127-1.191-4.2-1.119-.05.085 1.282.984 2.98 2.01 3.576 2.16 8.276 4.282 13.685 6.179l3.776 1.324-3.776 3.446c-5.875 5.364-9.658 8.644-11.597 10.056-2.13 1.551-6.206 3.63-8.176 4.17-2.082.57-3.26.476-6.096-.49-4.005-1.365-7.948-3.304-16.88-8.3-4.57-2.555-9.475-5.16-10.901-5.79-2.053-.905-2.498-1.232-2.133-1.565.439-.4 16.733-10.984 20.278-13.17.929-.574 1.69-1.242 1.69-1.487 0-.244-.094-.444-.21-.444s-3.834 1.81-8.265 4.023c-16.835 8.407-26.01 11.485-43.25 14.512-9.122 1.601-22.707.764-27.763-1.711-3.011-1.475-6.504-5.37-8.456-9.432-2.94-6.116-4.586-12.247-6.087-22.678-1.901-13.206-2.78-26.215-2.614-38.723.07-5.294.024-9.625-.101-9.625-.266 0-.747 2.07-2.852 12.265l-1.542 7.465.095 7.95.094 7.95-.983-.244c-4.605-1.141-17.232-10.076-23.854-16.879-3.373-3.465-6.458-7.833-6.458-9.144 0-.488.631-3.634 1.403-6.992s2.212-10.103 3.2-14.992c.987-4.888 1.966-9.501 2.176-10.252.347-1.24.436-1.317.978-.84.329.29 1.797 1.124 3.263 1.855 1.467.73 4.137 2.192 5.934 3.247 3.615 2.123 13.562 7.055 13.783 6.834.077-.077-1.696-1.56-3.94-3.296-12.63-9.768-20.775-18.05-26.753-27.203-6.672-10.215-9.934-18.682-9.584-24.873.12-2.122.328-2.7 1.88-5.213 3.19-5.163 8.228-9.586 18.256-16.029 11.133-7.153 23.955-12.587 42.286-17.922 2.2-.64 3.945-1.219 3.878-1.287-.234-.233-12.467 1.673-16.57 2.581-4.061.9-9.159 2.125-10.474 2.516-.652.195-.67.015-.452-4.55.575-12.062 3.678-24.961 7.972-33.132 1.714-3.262 4.935-6.71 7.32-7.836 4.883-2.306 14.528-2.533 30.81-.726 2.64.294 5.066.614 5.393.711.517.155.393.657-.953 3.871-4.816 11.494-11.24 30.533-10.635 31.514.107.172.5.313.874.313.483 0 .906-.539 1.463-1.867 2.545-6.058 9.134-17.581 15.702-27.462 10.374-15.607 29.131-36.983 35.31-40.24 2.05-1.081 4.426-1.74 6.055-1.71zm-27.676 96.28c-2.997-.08-5.549-.03-7.14.196-6.743.96-11.522 5.823-12.723 12.948-.555 3.29-.251 12.833.552 17.313 1.567 8.745 6.086 18.536 9.522 20.63 1.24.757 3.447.918 4.543.332.906-.485.867-.915-.195-2.178-4.73-5.622-9.427-22.16-9.427-33.197 0-6.307 1.46-9.122 5.866-11.304 3.244-1.608 4.607-1.83 11.02-1.8 6.733.03 11.307.585 20.575 2.493 3.3.68 6.069 1.165 6.154 1.08.348-.349-2.299-2.88-3.621-3.464-3.127-1.379-16.133-2.805-25.126-3.049m69.21 18.88c-.343.01-.656.026-.933.062-1.627.216-2.803.852-2.803 1.518 0 .144 1 .675 2.222 1.181 6.62 2.74 14.616 6.369 16.599 7.53 5.19 3.043 10.97 8.367 12.567 11.576.76 1.53.963 2.44.963 4.336 0 3.012-1.265 7.156-3.1 10.162-1.695 2.775-8.89 10.43-11.777 12.53-1.203.875-2.187 1.715-2.187 1.867 0 .54 2.693.247 4.266-.463 1.772-.8 8.954-7.838 11.833-11.597 4.858-6.34 8.075-13.772 8.075-18.656 0-5.632-2.99-9.253-10.777-13.046-7.625-3.714-19.793-7.08-24.948-7M919.83 1283.4l.168 4.799c.265 7.56 2.582 16.174 6.496 24.148 1.64 3.34 2.442 4.516 4.517 6.613 1.747 1.767 3.014 2.723 4.122 3.11 3.597 1.253 9.02.457 15.424-2.265 6.792-2.886 14.187-9.015 20.548-17.03 1.752-2.208 2.777-4.363 2.777-5.836v-1.243l-5.611 4.695a1184 1184 0 0 0-8.334 7.03c-4.304 3.692-8.479 5.458-13.962 5.904-6.782.552-12.928-3.08-17.379-10.27-1.81-2.925-5.825-11.648-7.656-16.633zm174.927 126.799c-1.454.099-2.594 1.421-2.674 2.84h5.357a.5.5 0 0 0 .477-.348c-.114-.92-.647-1.618-1.63-2.142-.527-.28-1.046-.383-1.53-.35"/><path fill="#f853c8" fill-rule="evenodd" d="M929.908 1245.433c-5.79-2.382-9.871-5.426-15.974-11.914-6.75-7.175-10.855-14.598-10.988-19.866-.085-3.394.071-3.754 2.073-4.768 5.094-2.58 29.7.148 38.127 4.227 13.222 6.4 16.828 20.855 7.377 29.567-5.158 4.753-13.157 5.822-20.615 2.754"/><path fill="#f853c8" fill-rule="evenodd" d="M868.632 1245.023c-13.316-2.45-21.028-5.724-29.039-12.332-5.5-4.536-13.015-13.884-16.659-20.719l-2.816-5.283 2.274-1.922c4.448-3.76 15.69-10.96 21.971-14.073 3.508-1.738 12.074-5.048 19.037-7.354 13.293-4.404 14.312-5.51 3.24-3.516-3.458.622-6.409 1.012-6.555.865-.147-.147 2.59-1.125 6.08-2.174 11.172-3.356 8.238-3.617-6.989-.62-4.554.896-8.408 1.5-8.566 1.343-.539-.54 1.198-11.453 2.786-17.505 2.014-7.68 4.254-12.742 7.044-15.92 4.05-4.611 4.767-4.784 19.558-4.716 7.266.035 13.358.21 13.538.39s-1.162 4.272-2.983 9.095c-5.018 13.298-7 20.194-6.065 21.114.583.575 1.025.433 1.782-.573.936-1.244.973-1.156.533 1.256-.848 4.648 1.114 2.468 6.294-6.99 9.563-17.463 20.47-32.255 33.53-45.47 5.93-6.003 9.081-8.692 10.852-9.264 4.404-1.42 5.237-.914 8.199 4.974 1.48 2.942 4.537 7.907 6.794 11.032 12.084 16.728 16.37 32.367 13.287 48.477-2.452 12.816-9.533 21.055-20.691 24.076l-4.33 1.172-2.003-1.686c-2.346-1.974-6.562-2.823-18.94-3.812-14.614-1.168-19.615.462-23.488 7.659-1.26 2.342-1.43 3.676-1.37 10.759.084 9.71 1.362 15.537 4.998 22.774 1.426 2.84 2.524 5.215 2.44 5.279s-2.71 1.1-5.835 2.303c-5.013 1.928-6.59 2.212-13.372 2.403-5.472.154-9.664-.146-14.536-1.042m154.711-33.593c-13.073-2.985-20.417-10.848-19.603-20.988.387-4.826 2.25-9.078 5.698-13.004 2.233-2.543 2.307-2.567 6.673-2.146 14.961 1.446 32.294 5.172 42.017 9.032 3.143 1.247 8.903 3.905 12.8 5.906l7.086 3.638-2.03 2.12c-2.563 2.675-12.16 8.857-17.233 11.1-10.107 4.47-26.205 6.444-35.408 4.343m-23.029-51.134c-.715-1.688-2.957-6.782-4.982-11.32s-3.788-8.512-3.918-8.829c-.301-.737 6.415-3.737 14.42-6.44 5.975-2.017 12.578-2.735 15.356-1.67 2.635 1.012.267 9.356-4.842 17.059-3.599 5.426-12.031 14.268-13.607 14.268-.64 0-1.688-1.326-2.427-3.068m-22.746 102.74c-4.579-1.392-8.812-4.737-10.736-8.482-2.518-4.9.034-12.653 7.323-22.247 3.06-4.026 4.204-5.03 5.63-4.94.984.062 5.334 1.806 9.666 3.875 6.364 3.039 8.836 4.7 12.875 8.652l4.998 4.89-.49 3.147c-.625 4.007-3.444 9.958-5.74 12.114-.977.918-3.664 2.113-5.971 2.656-4.476 1.053-14.562 1.246-17.555.335M856 1359.334c-3.633-3.633-7.271-25.809-8.134-49.58-.442-12.15-.396-12.819.911-13.313.757-.286 3.407-1.905 5.888-3.598 2.481-1.694 7.192-3.966 10.468-5.05 5.043-1.67 7.23-1.978 14.258-2.017 7.283-.04 8.676.154 11.346 1.58 6.715 3.59 12.558 12.452 14.029 21.28.78 4.676.339 16.826-.787 21.72-1.743 7.575-13.86 19.264-26.665 25.72-7.657 3.86-18.981 5.591-21.315 3.258"/><path fill="url(#i)" fill-rule="evenodd" d="M911.94 1207.883c-3.154.043-5.647.356-6.92 1.001-2.003 1.014-2.16 1.375-2.074 4.768.133 5.269 4.238 12.692 10.988 19.867 3.343 3.554 6.08 6.074 8.822 8.018q.108-.061.248-.15c.254-.156.593-.374.999-.64a220 220 0 0 0 3.014-2.02c2.256-1.536 4.704-3.242 5.718-4.017 7.971-6.097 11.42-11.11 12.201-17.93.145-1.266.299-1.96.182-2.613a27 27 0 0 0-1.972-1.055c-6.32-3.06-21.74-5.36-31.205-5.23"/><path fill="url(#j)" fill-rule="evenodd" d="M989.211 1231.129c-.69.98-1.416 2.136-2.266 3.458-3.817 5.934-10.141 15.212-7.075 26.236.246.886.553 1.784.915 2.684 4.306.298 10.94 0 14.338-.804 2.308-.543 4.995-1.739 5.972-2.657 2.295-2.156 5.114-8.107 5.739-12.114l.49-3.146-4.998-4.89c-4.039-3.952-6.511-5.614-12.875-8.653z"/><path fill="url(#k)" fill-rule="evenodd" d="M1030.334 1177.218c-.438 12.913 6.136 26.195 14.577 33.876 5.016-.89 9.886-2.257 13.84-4.006 5.073-2.243 14.67-8.425 17.233-11.1l2.03-2.12-7.086-3.638c-3.897-2.001-9.657-4.659-12.8-5.906-6.725-2.67-17.09-5.275-27.794-7.106"/><path fill="url(#l)" fill-rule="evenodd" d="M940.535 1109.993c-.852-.038-1.877.218-3.25.661-1.769.57-4.914 3.255-10.836 9.248-13.038 13.194-23.927 27.961-33.473 45.394-5.171 9.443-7.13 11.62-6.284 6.979.44-2.407.402-2.495-.532-1.254-.756 1.005-1.196 1.146-1.78.572-.932-.919 1.046-7.802 6.056-21.078 1.817-4.815 3.157-8.902 2.977-9.081s-6.261-.355-13.515-.388c-14.766-.07-15.483.104-19.525 4.708-2.785 3.172-5.021 8.225-7.033 15.893-1.585 6.042-3.318 16.938-2.78 17.476.157.157 4.005-.447 8.551-1.341 15.202-2.991 18.131-2.731 6.978.62-3.486 1.047-6.217 2.023-6.07 2.17s3.091-.242 6.545-.864c11.052-1.99 10.035-.887-3.236 3.51-6.951 2.303-15.503 5.607-19.005 7.342-6.27 3.108-17.494 10.296-21.935 14.049l-2.27 1.919 2.812 5.274c2.75 5.161 7.713 11.757 12.344 16.625 17.99 4.004 36.02-6.145 59.778-22.796.202-1.303.55-2.164 1.129-3.238 2.943-5.47 6.54-7.72 14.53-7.966 18.9-13.732 40.075-30.083 52.777-46.852-2.345-6.862-6.08-13.803-11.236-20.942-2.254-3.12-5.306-8.076-6.783-11.013-2.033-4.042-3.061-5.544-4.934-5.627"/><path fill="#f5c4ac" fill-rule="evenodd" d="M1116.879 1196.542c-20.411-9.821-47.663-.9-56.901 18.903-1.367 2.93-2.204 5.518-2.257 8.44s.604 5.987 1.793 10.307c.784 2.85 1.089 7.781.777 9.556-1.325 7.565 3.475 15.888 11.122 21.673 2.479 1.877 6.25 5.76 7.713 7.87 1.868 2.695 3.866 5.297 5.664 6.754 6.92 5.602 16.888 7.181 26.296 5.859s18.48-5.576 23.397-12.884c2.265-3.365 3.94-8.531 5.237-14.35 1.295-5.815 2.096-12.173 1.988-17.56-.366-18.285-10.868-37.852-24.83-44.568"/><path fill="#9c591b" d="M1117.921 1194.155c-9.402-4.957-20.549-5.531-33.088-1.54-13.057 4.159-21.409 10.726-26.058 20.494l-.181.388c-6.028 10.853-.726 21.137-.575 32.275.02 6.785 1.29 10.441 5.228 15.042 2.861 3.343 6.688 6.791 8.503 7.663 1.814.87 3.715 2.726 4.225 4.128s3.282 4.87 6.156 7.706c11.532 11.375 33.909 11.866 47.775 1.047 13.372-10.434 18.644-39.872 10.634-59.381-5.555-13.528-13.215-22.866-22.616-27.823m21.987 45.163c.46 13.221-3.621 28.842-9.266 35.463-4.908 5.76-16.819 10.123-26.527 9.723-9.96-.413-19.232-5.079-22.347-11.247-1.41-2.787-5.41-6.995-8.89-9.35-7.357-4.98-12.718-15.13-10.5-19.883 3.129-6.709-6.554-15.504-.782-27.877 6.757-14.485 26.516-24.026 44.278-21.38 25.506 3.796 33.68 34.36 34.034 44.551"/><path fill="#f5c4ac" fill-rule="evenodd" d="M778.095 1199.573c20.411-9.821 47.663-.9 56.901 18.902 1.368 2.931 2.204 5.519 2.258 8.44s-.604 5.987-1.793 10.308c-.784 2.849-1.089 7.78-.777 9.556 1.325 7.564-3.475 15.888-11.122 21.673-2.478 1.877-6.25 5.76-7.712 7.87-1.868 2.695-3.867 5.297-5.664 6.754-6.921 5.602-16.888 7.181-26.297 5.86s-18.479-5.576-23.397-12.885c-2.265-3.364-3.94-8.53-5.237-14.348-1.295-5.817-2.096-12.174-1.988-17.562.366-18.284 10.867-37.851 24.828-44.568"/><path fill="#9c591b" d="M777.053 1197.186c9.402-4.957 20.549-5.531 33.088-1.54 13.057 4.158 21.409 10.726 26.058 20.494l.181.388c6.028 10.852.726 21.136.576 32.275-.02 6.784-1.29 10.441-5.227 15.041-2.862 3.344-6.69 6.792-8.504 7.664-1.814.87-3.715 2.726-4.225 4.127s-3.281 4.872-6.155 7.707c-11.533 11.375-33.91 11.867-47.776 1.048-13.371-10.434-18.644-39.872-10.635-59.382 5.555-13.527 13.215-22.865 22.616-27.823m-21.986 45.164c-.46 13.221 3.621 28.842 9.266 35.463 4.909 5.759 16.82 10.123 26.527 9.722 9.96-.413 19.232-5.079 22.348-11.247 1.41-2.787 5.41-6.995 8.89-9.35 7.356-4.98 12.717-15.13 10.5-19.883-3.13-6.71 6.553-15.504.78-27.878-6.757-14.484-26.516-24.025-44.278-21.38-25.506 3.797-33.679 34.362-34.033 44.553"/><text xml:space="preserve" x="896.561" y="236.597" fill="#fff" fill-rule="evenodd" stroke-width="2.171" font-family="Magic Bubble" font-size="208.429" style="line-height:1;-inkscape-font-specification:&quot;Magic Bubble&quot;;text-align:center" text-anchor="middle"><tspan x="896.561" y="236.597">To Anthony</tspan></text><text xml:space="preserve" x="903.808" y="1635.206" fill="#fff" fill-rule="evenodd" stroke-width=".724" font-family="Magic Bubble" font-size="150.804" style="line-height:1;-inkscape-font-specification:&quot;Magic Bubble&quot;;text-align:center" text-anchor="middle"><tspan x="903.808" y="1635.206">A diamond of sugar</tspan><tspan x="903.808" y="1786.01">for the sweetest guy I</tspan><tspan x="903.808" y="1938.287">know!</tspan></text></svg>