<svg xmlns="http://www.w3.org/2000/svg" xmlns:xlink="http://www.w3.org/1999/xlink" width="3000" height="3600"><defs><linearGradient id="d"><stop offset="0" style="stop-color:#e5e5e7;stop-opacity:1"/><stop offset=".5" style="stop-color:#fefefe;stop-opacity:1"/><stop offset="1" style="stop-color:#e5e5e7;stop-opacity:1"/></linearGradient><linearGradient id="c"><stop offset="0" style="stop-color:#293041;stop-opacity:1"/><stop offset=".5" style="stop-color:#131720;stop-opacity:1"/><stop offset="1" style="stop-color:#1f2532;stop-opacity:1"/></linearGradient><linearGradient id="b"><stop offset="0" style="stop-color:#d70612;stop-opacity:1"/><stop offset="1" style="stop-color:#a2050e;stop-opacity:1"/></linearGradient><linearGradient id="a"><stop offset="0" style="stop-color:#161a23;stop-opacity:1"/><stop offset=".5" style="stop-color:#1b1c20;stop-opacity:1"/><stop offset="1" style="stop-color:#161a23;stop-opacity:1"/></linearGradient><linearGradient xlink:href="#a" id="g" x1="1169.654" x2="1169.654" y1="3653.723" y2="3796.071" gradientUnits="userSpaceOnUse"/><linearGradient xlink:href="#b" id="h" x1="875.952" x2="415.403" y1="1159.01" y2="1303.407" gradientUnits="userSpaceOnUse"/><linearGradient xlink:href="#c" id="e" x1="1175.246" x2="1175.246" y1="293.233" y2="2329.337" gradientUnits="userSpaceOnUse"/><linearGradient xlink:href="#d" id="f" x1="1815.863" x2="1337.2" y1="729.5" y2="962.392" gradientUnits="userSpaceOnUse"/><linearGradient xlink:href="#d" id="i" x1="1815.863" x2="1337.2" y1="729.5" y2="962.392" gradientTransform="matrix(-1 0 0 1 2350.492 0)" gradientUnits="userSpaceOnUse"/></defs><path d="M302.998 1002.826c-.79 3.12-3.284 12.424-5.545 20.674-12.345 45.044-27.022 115.003-34.406 164-34.237 227.172-27.724 501.83 17.47 654.5a5126 5126 0 0 1 5.135 17.5c54.943 215.869 247.198 365.112 447.34 418.684 254.745 68.186 629.629 68.222 884.508 0 200.073-53.553 392.383-202.76 447.34-418.684 1.603-5.5 3.914-13.375 5.135-17.5 45.194-152.67 51.707-427.328 17.47-654.5-7.384-48.997-22.061-118.956-34.406-164-2.26-8.25-4.756-17.553-5.545-20.674-293.028-1029.44-1451.47-1029.435-1744.496 0" style="display:inline;fill:url(#e);fill-opacity:1" transform="translate(117.046 268.674)scale(1.1963)"/><path d="M1643.385 500.695c-12.56 13.713 7.646 28.606 28.115 39.145 1.65.85 4.301 2.695 5.89 4.101 55.331 48.969 40.19 96.878 40.133 97.059-9.918 31.243-61.966 71.458-67.845 74.004-1.748.653-5.428 2.225-8.178 3.494-9.343 4.31-25.574 7.97-40 9.021-25.274 2.175-75.203 18.56-97.01 40.758-.556.673-4.38 4.14-8.5 7.703-29.673 24.582-57.351 55.605-94.99 67.33-3.575.858-8.3 2.244-10.5 3.08-2.2.837-6.25 1.542-9 1.567-6.238.056-18.254 2.513-22.102 4.52-1.593.83-3.452 1.517-4.128 1.517-1.675.01-16.27 9.882-16.27 11.006 0 .494-1.305 2.159-2.9 3.7-3.833 3.7-9.836 15.617-11 21.837-5.622 37.292 24.795 106.688 29.09 112.348 30.512 48.441 74.099 32.697 123.81 33.49 50.442 4.916 32.45 29.824 120.328 26.242 45.293-1.423 53.4-39.24 134.191-58.623 32.535-22.928 48.51-69.917 61.375-107.494 4-11.945 6.167-21.818 6.112-27.848 3.163-46.509 10.768-92.632 15.857-139.152 2.973-30.37-1.65-59.736-19.886-85l-92.11-123.506c-22.104-23.477-52.331-29.198-60.482-20.299" style="fill:url(#f);fill-opacity:1" transform="translate(117.046 268.674)scale(1.1963)"/><path d="M987.867 3671.266c-10.844 2.843-23.406 7.076-33.127 9.39-71.676 16.154-151.03 19.095-224.076 20.6-15.454 1.226-26.789 4.073-32.41 7.555-37.008 32.53 90.807 89.283 399.323 103.952 39.787 1.892 104.367 1.892 144.155 0 308.515-14.67 436.33-71.423 399.323-103.952-5.622-3.482-16.956-6.33-32.41-7.555-73.046-1.505-152.4-4.446-224.077-20.6-9.72-2.314-22.282-6.547-33.127-9.39-136.563-31.638-227.722-31.473-363.574 0" style="display:inline;fill:url(#g);fill-opacity:1;stroke:none;stroke-width:4;stroke-linecap:round;stroke-opacity:1" transform="translate(123.735 -2793.876)scale(1.1963)"/><path d="M1009.25 1144.748c-3.638 20.002-12.101 57.031-30.22 93.929-18.118 36.898-45.89 73.662-77.894 103.153-113.19 104.304-305.425 113.589-386.692 19.176-17.986-20.896-37.294-51.312-51.444-70.488-13.013-17.634-33.208-44.448-61.231-24.598-9.522 6.745-18.78 18.382-24.73 21.16-5.952 2.776-8.597-3.307-9.126-12.829s1.058-22.482 6.48-35.971c22.174-55.162 80.349-60.693 113.734-35.575 66.33 60.238 149.548 142.408 242.146 82.39 9.723-8.051 46.043-40.817 56.47-88.87 3.041-14.018 16.073-47.248 16.073-47.248s113.194-12.485 169.863-21.533c16.692-2.666 27.26-5.658 33.138-5.666 5.879-.01 7.069 2.967 3.432 22.97" style="fill:url(#h);fill-opacity:1;stroke:none;stroke-width:4;stroke-linecap:round;stroke-opacity:1" transform="translate(117.046 268.674)scale(1.1963)"/><path d="m1173.225 1096.275-61.23 6.224s14.95 36.639 36.577 35.506c21.628-1.132 24.653-41.73 24.653-41.73m4.043 0s3.025 40.597 24.652 41.73 36.578-35.506 36.578-35.506zm-71.149 8.132-61.23 7.743s14.95 45.558 36.578 44.15c21.627-1.408 24.652-51.893 24.652-51.893m138.254 0s3.025 50.485 24.652 51.893 36.579-44.15 36.579-44.15zm-216.637 14.051-61.23 9.201s14.95 54.157 36.578 52.483c21.627-1.674 24.652-61.684 24.652-61.684m295.02 0s3.025 60.01 24.652 61.684 36.578-52.483 36.578-52.483zm-372.117 9.574-61.23 8.182s14.95 48.155 36.577 46.666 24.653-54.848 24.653-54.848m449.215 0s3.025 53.36 24.652 54.848c21.627 1.489 36.578-46.666 36.578-46.666zm-520.684 10.465-61.23 7.412s14.95 43.612 36.578 42.264c21.627-1.348 24.652-49.676 24.652-49.676m592.152 0s3.025 48.328 24.653 49.676c21.627 1.348 36.578-42.264 36.578-42.264zm-668.078 7.91-61.523 3.625s12.764 36.857 34.431 36.631c21.668-.225 27.092-40.256 27.092-40.256m744.004 0s5.424 40.03 27.092 40.256 34.431-36.63 34.431-36.63zm-735.803 26.526q-1217.167-1759.4 0 0m727.602 0q-.994.033-2 .176c-21.455 3.039-21.631 43.435-21.631 43.435l60.531-11.59s-16.372-32.738-36.9-32.021m-454.73 1.506c-21.692.211-31.96 65.058-31.96 65.058l61.776 4.62c-.287.888-.43 1.39-.43 1.39l61.543-.46s-7.413-40.03-29.035-38.808c-19.106 1.08-29.83 30.912-32.066 37.84-.222-1.867-8.435-69.849-29.829-69.64m90.93 70.609 61.542.459s-.143-.502-.43-1.39l61.776-4.62s-10.268-64.847-31.96-65.058c-21.393-.209-29.606 67.773-29.827 69.64-2.237-6.928-12.96-36.76-32.067-37.84-21.622-1.222-29.035 38.809-29.035 38.809m282.528-69.615c-21.627 1.348-24.652 49.676-24.652 49.676l61.23-7.41s-14.95-43.614-36.578-42.266m-435.752 3.832c-21.691.102-32.158 55.3-32.158 55.3l61.78 4.159s-7.93-59.562-29.622-59.46m306.446 0c-21.692-.103-29.621 59.459-29.621 59.459l61.779-4.158s-10.467-55.199-32.158-55.301m63.763.949c-21.627 1.489-24.652 54.848-24.652 54.848l61.229-8.182s-14.95-48.155-36.577-46.666" style="fill:#dde0ec;fill-opacity:1;stroke-width:.951682" transform="translate(117.046 268.674)scale(1.1963)"/><path d="M638.844 1449.758c-3.266.08-8.834 2.087-17.61 6.21-3.85 1.81-9.475 4.298-12.5 5.53a8252 8252 0 0 0-16.779 6.871c-6.203 2.547-11.777 4.631-12.389 4.631-.611 0-2.962.851-5.222 1.89-2.26 1.04-10.185 4.01-17.61 6.6-103.936 39.6-212.054 81.073-300.5 148.57a633 633 0 0 0-9.308 8.573c1.448 18.385 3.175 36.336 5.181 53.752 19.496-18.607 41.61-33.973 63.627-49.442 71.327-44.498 153.935-87.937 237.61-100.554a33 33 0 0 1 3.998-.19v-.01c36.795 18.97 66.575 55.92 98.322 84.52 30.194 27.197 114.73 88.44 179.668 126.539 33.182 21.947 67.475 33.543 107.902 33.953 36.053-.074 75.032-1.479 117.77-4.246 21.816-1.413 29.73-1.281 29.73.494 0 2.642-2.217 12.03-3.103 13.137-2.514 3.139-163.084 28.048-192.397 21.289-2.2-.508-7.15-2.1-11-3.54-39.11-12.496-162.418-96.237-164.216-96.296-58.991-37.209-120.684-81.683-169.811-131.936-2.982-3.111-3.6-3.34-7.389-2.734-4.359.697-181.811 56.105-281.683 143.129a433 433 0 0 0-4.117 3.623c2.371 16.256 5.009 31.925 7.914 46.91 29.52-25.919 98.68-81.855 175.412-110.621 22.305-8.362 59.686-20.617 76.39-25.043 3.025-.802 7.172-1.954 9.213-2.56 1.123-.334 1.933-.548 2.76-.518 1.82.065 3.727 1.315 9.24 5.092 172.881 129.4 322.706 200.893 335.787 205.568 3.91 1.397 6.13 2.244 10.436 3.986 4.3 1.74 28.024 2.39 43.564 1.192 36.694-2.828 107.509-14.258 117-16.436 6.503-1.544 17.62-3.65 32.325-6.123l7.824-1.316c-.524 7.454.29 15.095-.916 22.496-.246.687-1.943 1.25-3.774 1.25-33.915 0-126.802 36.621-196.824 25.558-1.575-.856-3.703-1.558-4.728-1.558-1.887 0-14.888-4.113-20.407-6.455-198.51-84.265-339.438-189.255-339.632-189.4-3.387-2.743-6.337-2.588-14.868.78-19.146 6.629-37.65 14.846-56.5 22.233-55.563 21.579-106.934 53.532-155.627 96.143-2.212 1.922-9.85 9.279-17.576 16.916a593 593 0 0 0 6.487 23.785c1.22 4.125 3.531 12 5.134 17.5l.391 1.521c2.107-2.013 3.973-3.798 5.191-4.963 56.232-51.294 161.99-108.935 196.5-119.806 5.343-1.683 8.295-2.634 10.817-2.727 3.242-.12 5.775 1.178 11.763 4.156 117.107 64.778 235.13 126.73 358.42 178.065 7.196 3.196 32.713 2.846 57.5-.79 37.673-5.523 69.56-11.163 87-15.386 3.3-.8 7.35-1.683 9-1.965 4.824-.823 30.734-6.325 37.653-7.996 28.488-6.88 29.442-6.955 30.078-2.36.247 1.788.634 3.888.86 4.667.425 1.47-.495 1.822-11.59 4.44-3.3.778-8.026 2.192-10.5 3.144-61.423 14.92-146.097 53.78-218.5 40.277-17.491-4.865-174.366-64.452-299.31-120.928-5.67-2.662-11.396-5.114-12.724-5.447s-4.928-1.91-8-3.504-6.016-2.898-6.54-2.898c-.96 0-7.275-2.942-35.927-16.737l-15.5-7.462-5.142 1.617c-2.828.889-5.694 2.284-6.371 3.1-.677.815-1.633 1.482-2.125 1.482s-4.246 2.033-8.342 4.52-9.251 5.523-11.455 6.75c-6.288 3.498-23.08 13.857-28.305 17.46-38.438 24.68-73.205 50.745-106.273 82.77a507 507 0 0 1-4.655 4.467 505 505 0 0 0 16.756 40.93C368.38 1893.9 471.551 1836.47 476.53 1838.16c2.038.691 4.162 1.58 4.721 1.976 1.468 1.04 17.351 7.535 28.984 11.852 8.778 3.257 18.316 6.878 41 15.564 94.97 32.014 185.195 73.98 281 104.442 23.912 6.778 48.395 13.982 73.5 10.476 66.196-15.833 135.025-34.954 198.25-60.795 2.063-.865 3.75-1.187 3.75-.714 0 1.415-7.85 11.183-13.355 16.619-21.49 24.983-62.473 53.428-65.045 85.869 2.749 41.598 27.422 99.06 75.27 130.795 5.68 3.768 7.708 1.441 5.439-6.244-1.158-3.925-6.7-23.653-2.2-27.44 18.358-7.019 116.454-7.017 134.805 0 4.501 3.787-1.04 23.515-2.199 27.44-2.269 7.685-.242 10.012 5.44 6.244 47.847-31.735 72.52-89.197 75.27-130.795-2.573-32.44-43.556-60.886-65.046-85.87-5.506-5.435-13.355-15.203-13.355-16.618 0-.473 1.687-.15 3.75.714 63.225 25.841 132.054 44.962 198.25 60.795 25.106 3.506 49.588-3.698 73.5-10.476 95.805-30.461 186.03-72.428 281-104.442 22.684-8.686 32.222-12.307 41-15.564 11.633-4.317 27.516-10.812 28.984-11.852.559-.396 2.683-1.285 4.72-1.976 4.98-1.69 108.15 55.74 160.208 107.736a505 505 0 0 0 16.756-40.93 506 506 0 0 1-4.655-4.466c-33.068-32.025-67.835-58.09-106.273-82.77-5.225-3.603-22.017-13.962-28.305-17.46-2.204-1.227-7.359-4.265-11.455-6.75-4.095-2.487-7.85-4.52-8.342-4.52s-1.448-.667-2.125-1.483c-.677-.815-3.543-2.21-6.37-3.1l-5.143-1.617-15.5 7.463c-28.651 13.795-34.967 16.737-35.926 16.737-.525 0-3.469 1.304-6.541 2.898s-6.672 3.17-8 3.504c-1.328.333-7.055 2.785-12.725 5.447-124.942 56.476-281.818 116.063-299.308 120.928-72.404 13.504-157.078-25.357-218.5-40.277-2.475-.952-7.2-2.366-10.5-3.145-11.096-2.617-12.016-2.969-11.59-4.44.225-.778.612-2.878.86-4.665.635-4.596 1.589-4.52 30.077 2.36 6.92 1.67 32.829 7.172 37.653 7.995 1.65.282 5.7 1.166 9 1.965 17.44 4.223 49.327 9.863 87 15.387 24.787 3.635 50.304 3.985 57.5.789 123.29-51.335 241.313-113.287 358.42-178.065 5.988-2.978 8.52-4.275 11.763-4.156 2.522.093 5.474 1.044 10.817 2.727 34.511 10.87 140.268 68.512 196.5 119.806l5.191 4.963q.197-.76.39-1.521c1.604-5.5 3.914-13.375 5.136-17.5a593 593 0 0 0 6.486-23.785c-7.726-7.637-15.364-14.994-17.576-16.916-48.693-42.611-100.064-74.564-155.627-96.143-18.85-7.387-37.354-15.604-56.5-22.232-8.53-3.37-11.48-3.524-14.867-.782-.195.146-141.123 105.136-339.633 189.4-5.52 2.343-18.52 6.456-20.406 6.456-1.026 0-3.154.702-4.729 1.558-70.021 11.063-162.909-25.558-196.824-25.558-1.83 0-3.528-.563-3.774-1.25-1.205-7.401-.392-15.042-.916-22.496l7.825 1.316c14.704 2.474 25.821 4.579 32.324 6.123 9.491 2.178 80.306 13.608 117 16.436 15.54 1.197 39.264.548 43.564-1.192 4.306-1.742 6.527-2.589 10.436-3.986 13.081-4.675 162.906-76.167 335.787-205.568 5.514-3.777 7.42-5.027 9.24-5.092.828-.03 1.637.184 2.76.517 2.042.607 6.188 1.76 9.213 2.56 16.705 4.427 54.085 16.682 76.39 25.044 76.733 28.766 145.891 84.702 175.412 110.62 2.905-14.984 5.543-30.653 7.915-46.91a433 433 0 0 0-4.118-3.622c-99.872-87.024-277.324-142.432-281.683-143.13-3.79-.605-4.406-.376-7.389 2.735-49.126 50.253-110.82 94.727-169.81 131.936-1.799.059-125.108 83.8-164.217 96.297-3.85 1.438-8.8 3.031-11 3.539-29.313 6.76-189.883-18.15-192.397-21.29-.885-1.106-3.103-10.494-3.103-13.136 0-1.775 7.914-1.907 29.73-.494 42.738 2.767 81.717 4.172 117.77 4.246 40.427-.41 74.72-12.006 107.902-33.953 64.938-38.098 149.474-99.342 179.668-126.54 31.747-28.6 61.527-65.55 98.322-84.519v.01a33 33 0 0 1 3.998.19c83.675 12.617 166.283 56.056 237.61 100.554 22.016 15.469 44.131 30.835 63.627 49.442 2.006-17.416 3.733-35.367 5.181-53.752a633 633 0 0 0-9.308-8.572c-88.446-67.498-196.564-108.971-300.5-148.57-7.425-2.592-15.35-5.561-17.61-6.6-2.26-1.04-4.61-1.891-5.222-1.891s-6.186-2.084-12.389-4.63a8245 8245 0 0 0-16.78-6.872c-3.024-1.232-8.65-3.72-12.5-5.53-8.775-4.123-14.342-6.13-17.609-6.21-1.96-.048-3.09.599-3.59 1.9-.29.76.299 5.76 1.311 11.112 2.397 12.671 2.454 32.378.115 40.58-3.11 10.91-12.578 28.116-23.418 42.56-13.29 17.711-94.154 97.492-219.927 186.82-4.05 2.995-17.348 9.994-22.327 11.75-2.138.755-6.962 1.63-10.72 1.942s-9.194.847-12.078 1.187c-18.356 2.169-72.152 2.118-132.06-.125-21.068-.788-38.73-1.696-39.25-2.017-3.618-2.235 3.823-3.8-5.446-17.912-2.475-3.768-4.5-7.185-4.5-7.594s1.237-1.053 2.75-1.43c8.4-2.093 27.624-15.173 3.498-38.297-16.839-16.138-33.943-22.194-34.875-19.765-1.445 3.764 16.627 28.498 16.627 34.398 0 8.532-11.68 10.054-13.637 8.098-14.225-6.73-63.524-6.73-77.75 0-1.956 1.956-13.637.434-13.637-8.098 0-5.9 18.072-30.634 16.627-34.398-.932-2.429-18.036 3.627-34.875 19.765-24.126 23.124-4.901 36.204 3.498 38.297 1.513.377 2.75 1.021 2.75 1.43s-2.025 3.826-4.5 7.594c-9.27 14.113-1.828 15.677-5.445 17.912-.52.321-18.183 1.229-39.25 2.017-59.908 2.243-113.705 2.294-132.06.125-2.885-.34-8.32-.874-12.079-1.187-3.758-.313-8.582-1.187-10.72-1.941-4.98-1.757-18.278-8.756-22.326-11.75-125.773-89.329-206.638-169.11-219.928-186.82-10.84-14.445-20.307-31.65-23.418-42.561-2.339-8.202-2.282-27.909.115-40.58 1.013-5.352 1.602-10.352 1.31-11.112-.499-1.301-1.63-1.948-3.59-1.9" style="display:inline;fill:#e5e5e7;fill-opacity:1" transform="translate(117.046 268.674)scale(1.1963)"/><path d="M707.107 500.695c12.56 13.713-7.645 28.606-28.115 39.145-1.65.85-4.301 2.695-5.89 4.101-55.331 48.969-40.19 96.878-40.133 97.059 9.918 31.243 61.966 71.458 67.845 74.004 1.748.653 5.428 2.225 8.178 3.494 9.343 4.31 25.575 7.97 40 9.021 25.274 2.175 75.203 18.56 97.01 40.758.556.673 4.38 4.14 8.5 7.703 29.673 24.582 57.351 55.605 94.99 67.33 3.575.858 8.3 2.244 10.5 3.08 2.2.837 6.25 1.542 9 1.567 6.238.056 18.254 2.513 22.102 4.52 1.594.83 3.452 1.517 4.129 1.517 1.674.01 16.27 9.882 16.27 11.006 0 .494 1.304 2.159 2.9 3.7 3.832 3.7 9.835 15.617 11 21.837 5.621 37.292-24.796 106.688-29.09 112.348-30.513 48.441-74.1 32.697-123.81 33.49-50.443 4.916-32.451 29.824-120.329 26.242-45.293-1.423-53.4-39.24-134.191-58.623-32.535-22.928-48.51-69.917-61.375-107.494-4-11.945-6.167-21.818-6.112-27.848-3.163-46.509-10.767-92.632-15.857-139.152-2.973-30.37 1.65-59.736 19.887-85l92.109-123.506c22.104-23.477 52.332-29.198 60.482-20.299" style="fill:url(#i);fill-opacity:1" transform="translate(117.046 268.674)scale(1.1963)"/></svg>