<svg xmlns="http://www.w3.org/2000/svg" xml:space="preserve" width="1000" height="500"><path d="M305.593 32.097a124 124 0 0 0-27.502 3.646c-9.332 2.323-11.968 4.457-11.968 9.69 0 2.934-.417 3.76-2.34 4.636-1.288.586-3.065 1.066-3.949 1.066-2.167 0-8.001 6.118-9.682 10.154-1.928 4.63-6.91 35.711-7.796 37.283-.321.568-3.685 3.497-7.475 6.507-19.781 15.712-34.245 37.847-40.402 61.834-.973 3.79-11.368 52.79-23.1 108.887-5.075 40.403-28.552 97.702-19.296 132.318 8.477 31.7 34.604 54.879 66.718 59.189 24.616 3.303 51.763-6.76 68.366-25.343 4.347-4.866 9.581-12.78 77.035-115.536 21.106-32.152 21.534-32.526 38.058-33.225 64.178-3.103 144.935-2.444 195.48 0 16.524.7 16.952 1.073 38.058 33.225 67.454 102.756 72.688 110.67 77.035 115.536 16.603 18.583 43.75 28.646 68.366 25.343 32.114-4.31 58.24-27.489 66.718-59.189 9.256-34.616-14.22-91.915-19.297-132.318-11.731-56.098-22.126-105.097-23.099-108.887-6.157-23.987-20.62-46.122-40.402-61.834-3.79-3.01-7.154-5.94-7.475-6.507-.886-1.572-5.868-32.654-7.796-37.283-1.68-4.036-7.515-10.154-9.682-10.154-.885 0-2.661-.48-3.948-1.066-1.924-.877-2.34-1.702-2.34-4.636 0-5.233-2.637-7.367-11.97-9.69a124 124 0 0 0-27.501-3.646 126.5 126.5 0 0 0-27.8 2.537c-13.618 2.775-15.924 4.271-17.087 11.084-.634 3.716-.934 4.043-4.7 5.133-8.836 2.558-11.125 7.05-15.149 29.733L626.5 98.457l-7.023 5.945H380.523l-7.023-5.945-3.171-17.873c-4.024-22.684-6.313-27.175-15.149-29.733-3.766-1.09-4.066-1.417-4.7-5.133-1.163-6.813-3.47-8.309-17.087-11.084a126.5 126.5 0 0 0-27.8-2.537" style="fill:#dfdfe7;fill-opacity:1;stroke-width:12.1949;stroke-linecap:round;stroke-linejoin:round"/><path d="M691.091 115.161c-14.046 0-25.47 11.424-25.47 25.47s11.424 25.467 25.47 25.467 25.467-11.42 25.467-25.467c0-14.048-11.42-25.469-25.467-25.469m-55.236 54.792c-14.046 0-25.47 11.422-25.47 25.468s11.424 25.47 25.47 25.47 25.467-11.424 25.467-25.47-11.42-25.469-25.467-25.469m112.254 0c-14.047 0-25.47 11.422-25.47 25.468s11.424 25.47 25.47 25.47 25.464-11.424 25.464-25.47-11.418-25.469-25.464-25.469m-54.792 57.389c-14.045 0-25.468 11.423-25.468 25.47s11.423 25.467 25.469 25.467 25.467-11.421 25.467-25.467-11.421-25.47-25.467-25.47" style="baseline-shift:baseline;display:inline;overflow:visible;vector-effect:none;fill:#000;fill-opacity:1;stroke-width:1.09104;stop-color:#000"/><path d="M526.078 225.5c-2.987.019-5.595 2.824-5.595 5.973v15.337a5.92 5.92 0 0 0 5.958 5.916c.353.006.706-.043 1.043-.15l29.241-8.773a5.97 5.97 0 0 0 5.255-5.918 3.68 3.68 0 0 0-2.724-3.554l-31.88-8.662a4.8 4.8 0 0 0-1.298-.17" style="fill:#000;fill-opacity:1;fill-rule:evenodd;stroke:none;stroke-width:.651504;stroke-linecap:round;stroke-miterlimit:7;paint-order:stroke markers fill"/><path d="M444.587 226.987a5.95 5.95 0 0 0-5.945 5.947v12.343a5.935 5.935 0 0 0 5.945 5.962h25.921a5.95 5.95 0 0 0 5.943-5.963v-12.34a5.95 5.95 0 0 0-5.943-5.948z" style="fill:#000;fill-opacity:1;fill-rule:evenodd;stroke-width:.514855;stroke-linecap:round;stroke-miterlimit:7;paint-order:stroke markers fill"/><path d="M296.348 137.885c-5.021.006-9.09 4.145-9.007 9.167l.347 20.424a9 9 0 0 0 2.638 6.218l11.92 11.918c3.51 3.507 9.232 3.507 12.743 0l11.538-11.533a9 9 0 0 0 2.646-6.371v-20.806c0-4.967-4.05-9.016-9.017-9.016zm-39.125 39.845c-4.965 0-9.013 4.046-9.016 9.011v22.747l-.002 1.058c-.001 5.029 4.146 9.104 9.174 9.017l20.423-.347a9.02 9.02 0 0 0 6.218-2.638l11.919-11.92c3.506-3.511 3.506-9.232 0-12.743l-11.538-11.54h-.002a9.02 9.02 0 0 0-6.371-2.645zm101.7 0-20.432.349a9 9 0 0 0-6.214 2.638l-11.92 11.92h-.002c-3.507 3.513-3.507 9.232 0 12.744h.002l11.535 11.538a9 9 0 0 0 6.371 2.647h20.804c4.967 0 9.016-4.05 9.016-9.018v-22.747h.002v-1.06c-.004-5.023-4.14-9.091-9.162-9.01m-51.034 31.192a9 9 0 0 0-6.373 2.628l-11.54 11.538a9.02 9.02 0 0 0-2.644 6.373v20.805c.004 4.965 4.052 9.01 9.016 9.01h23.809c5.02-.004 9.09-4.14 9.007-9.161v-.002l-.347-20.425a9 9 0 0 0-2.638-6.217l-11.92-11.92a9 9 0 0 0-6.37-2.63" style="baseline-shift:baseline;display:inline;overflow:visible;vector-effect:none;fill:#000;fill-opacity:1;stroke-width:1.06077;stop-color:#000"/></svg>