<svg xmlns="http://www.w3.org/2000/svg" xmlns:xlink="http://www.w3.org/1999/xlink" xml:space="preserve" width="3000" height="3600"><defs><linearGradient id="n"><stop offset="0" stop-color="#fc5df0" stop-opacity=".549"/><stop offset="1" stop-color="#fc5df0" stop-opacity="0"/></linearGradient><linearGradient id="w"><stop offset="0" stop-color="#e6e7e9"/><stop offset="1" stop-color="#e6e7e9" stop-opacity="0"/></linearGradient><linearGradient id="t"><stop offset="0" stop-color="#b5b6bd"/><stop offset="1" stop-color="#b5b6bd" stop-opacity="0"/></linearGradient><linearGradient id="m"><stop offset="0" stop-color="#aaaab3"/><stop offset="1" stop-color="#9999a4"/></linearGradient><linearGradient id="l"><stop offset="0" stop-color="#dee0e2"/><stop offset="1" stop-color="#ccced2"/></linearGradient><linearGradient id="r"><stop offset="0" stop-color="#d8dade" stop-opacity=".486"/><stop offset="1" stop-color="#d8dade" stop-opacity="0"/></linearGradient><linearGradient id="q"><stop offset="0" stop-color="#9c9ca5"/><stop offset="1" stop-color="#9c9ca5" stop-opacity="0"/></linearGradient><linearGradient id="p"><stop offset="0" stop-color="#cbcdd1" stop-opacity=".753"/><stop offset="1" stop-color="#cbcdd1" stop-opacity="0"/></linearGradient><linearGradient id="j"><stop offset="0" stop-color="#d4d6d9"/><stop offset="1" stop-color="#d4d6d9" stop-opacity="0"/></linearGradient><linearGradient id="i"><stop offset="0" stop-color="#9c9ca5"/><stop offset="1" stop-color="#9c9ca5" stop-opacity="0"/></linearGradient><linearGradient id="h"><stop offset="0" stop-color="#9c9da3"/><stop offset="1" stop-color="#9c9da3" stop-opacity="0"/></linearGradient><linearGradient id="o"><stop offset="0" stop-color="#fcdf94" stop-opacity=".688"/><stop offset="1" stop-color="#fcdf94" stop-opacity="0"/></linearGradient><linearGradient id="g"><stop offset="0" stop-color="#df930e" stop-opacity=".613"/><stop offset="1" stop-color="#df930e" stop-opacity="0"/></linearGradient><linearGradient id="f"><stop offset="0" stop-color="#f5c15a"/><stop offset="1" stop-color="#f5c15a" stop-opacity="0"/></linearGradient><linearGradient id="e"><stop offset="0" stop-color="#f9c852" stop-opacity=".571"/><stop offset="1" stop-color="#f9c852" stop-opacity="0"/></linearGradient><linearGradient id="d"><stop offset="0" stop-color="#f9ca4a"/><stop offset=".5" stop-color="#fce096"/><stop offset="1" stop-color="#f8be21"/></linearGradient><linearGradient id="c"><stop offset="0" stop-color="#dd970d"/><stop offset=".5" stop-color="#f6c76a"/><stop offset="1" stop-color="#f2a919"/></linearGradient><linearGradient id="b"><stop offset="0" stop-color="#f2a919"/><stop offset=".579" stop-color="#f8d48b"/><stop offset="1" stop-color="#f2a919"/></linearGradient><linearGradient id="a"><stop offset="0" stop-color="#9c9ca5"/><stop offset="1" stop-color="#9c9ca5" stop-opacity="0"/></linearGradient><linearGradient xlink:href="#a" id="H" x1="190.573" x2="190.573" y1="507.093" y2="312.147" gradientUnits="userSpaceOnUse"/><linearGradient xlink:href="#b" id="J" x1="136.564" x2="194.221" y1="439.523" y2="553.686" gradientUnits="userSpaceOnUse"/><linearGradient xlink:href="#c" id="I" x1="231.421" x2="145.225" y1="544.314" y2="431.954" gradientUnits="userSpaceOnUse"/><linearGradient xlink:href="#d" id="M" x1="143.805" x2="230.09" y1="424.063" y2="542.934" gradientUnits="userSpaceOnUse"/><linearGradient xlink:href="#e" id="N" x1="194.221" x2="205.246" y1="414.634" y2="474.961" gradientUnits="userSpaceOnUse"/><linearGradient xlink:href="#f" id="K" x1="238.971" x2="222.643" y1="582.82" y2="531.908" gradientUnits="userSpaceOnUse"/><linearGradient xlink:href="#g" id="L" x1="277.761" x2="219.451" y1="502.879" y2="505.568" gradientUnits="userSpaceOnUse"/><linearGradient xlink:href="#h" id="F" x1="189.993" x2="189.993" y1="-16.932" y2="89.436" gradientUnits="userSpaceOnUse"/><linearGradient xlink:href="#i" id="E" x1="-45.056" x2="68.61" y1="279.873" y2="236.156" gradientUnits="userSpaceOnUse"/><linearGradient xlink:href="#j" id="A" x1="-18.994" x2="37.554" y1="-4.282" y2="62.75" gradientUnits="userSpaceOnUse"/><linearGradient xlink:href="#i" id="C" x1="-45.056" x2="68.61" y1="279.873" y2="236.156" gradientTransform="matrix(-1 0 0 1 379.986 0)" gradientUnits="userSpaceOnUse"/><linearGradient xlink:href="#j" id="D" x1="-18.994" x2="37.554" y1="-4.282" y2="62.75" gradientTransform="matrix(-1 0 0 1 379.986 0)" gradientUnits="userSpaceOnUse"/><linearGradient xlink:href="#l" id="y" x1="189.993" x2="189.993" y1="29.399" y2="324.139" gradientUnits="userSpaceOnUse"/><linearGradient xlink:href="#m" id="G" x1="189.993" x2="189.993" y1="25.048" y2="-63.274" gradientUnits="userSpaceOnUse"/><linearGradient xlink:href="#n" id="x" x1="1561.026" x2="1561.026" y1="2684.051" y2="868.614" gradientUnits="userSpaceOnUse"/><radialGradient xlink:href="#o" id="O" cx="194.764" cy="477.055" r="80.697" fx="194.764" fy="477.055" gradientTransform="translate(0 4.898)" gradientUnits="userSpaceOnUse"/><radialGradient xlink:href="#p" id="B" cx="184.945" cy="157.237" r="141.306" fx="184.945" fy="157.237" gradientTransform="translate(2.017 19.307)scale(1.04902)" gradientUnits="userSpaceOnUse"/><radialGradient xlink:href="#q" id="z" cx="157.766" cy="91.07" r="134.379" fx="157.766" fy="91.07" gradientTransform="translate(20.216 -96.975)" gradientUnits="userSpaceOnUse"/><radialGradient xlink:href="#r" id="P" cx="169.013" cy="163.472" r="225.812" fx="169.013" fy="163.472" gradientTransform="translate(-12.464 -127.04)scale(1.07375)" gradientUnits="userSpaceOnUse"/><radialGradient xlink:href="#t" id="Q" cx="374.045" cy="98.014" r="87.277" fx="374.045" fy="98.014" gradientTransform="translate(15.585 18.702)" gradientUnits="userSpaceOnUse"/><radialGradient xlink:href="#t" id="R" cx="374.045" cy="98.014" r="87.277" fx="374.045" fy="98.014" gradientTransform="matrix(-1 0 0 1 364.43 18.702)" gradientUnits="userSpaceOnUse"/><radialGradient xlink:href="#w" id="S" cx="1218.88" cy="1388.983" r="1143.441" fx="1218.88" fy="1388.983" gradientTransform="translate(254.905 -983.616)" gradientUnits="userSpaceOnUse"/></defs><rect width="3000" height="3600" fill="#fdadf7" opacity=".99" ry=".02"/><path fill="url(#x)" fill-opacity=".549" d="m1583.93 885.955-.055.018a402.188 376.906 0 0 0-2.42.01 402.188 376.906 0 0 0-.898.004 402.188 376.906 0 0 0-1.471.103 402.188 376.906 0 0 0-.027.002 402.188 376.906 0 0 0-.031.002 402.188 376.906 0 0 0-.01 0 402.188 376.906 0 0 0-.027.002 402.188 376.906 0 0 0-42.346 2.934 402.188 376.906 0 0 0-8.84.648 402.188 376.906 0 0 0-.382.028 402.188 376.906 0 0 0-5.608 1.103 402.188 376.906 0 0 0-10.017 1.973 402.188 376.906 0 0 0-17.067 3.355 402.188 376.906 0 0 0-19.185 3.783 402.188 376.906 0 0 0-31.5 10.397 402.188 376.906 0 0 0-18.85 6.242 402.188 376.906 0 0 0-19.312 9.223 402.188 376.906 0 0 0-27.077 12.865 402.188 376.906 0 0 1 0 .002 402.188 376.906 0 0 0-.53.342 402.188 376.906 0 0 0-.634.31 402.188 376.906 0 0 0-26.388 17.086 402.188 376.906 0 0 0-17.096 11.074 402.188 376.906 0 0 0-.451.303 402.188 376.906 0 0 0-6.756 5.752 402.188 376.906 0 0 0-19.941 16.977 402.188 376.906 0 0 0-12.366 10.49 402.188 376.906 0 0 0-.144.16 402.188 376.906 0 0 0-.295.28 402.188 376.906 0 0 0-11.717 13.015 402.188 376.906 0 0 0-22.533 25.031 402.188 376.906 0 0 0 0 .01 402.188 376.906 0 0 0-.137.201 402.188 376.906 0 0 0-19.476 28.63 402.188 376.906 0 0 0-9.307 13.69 402.188 376.906 0 0 0 0 .01 402.188 376.906 0 0 0-.051.093 402.188 376.906 0 0 0-14.908 30.156 402.188 376.906 0 0 0-7.612 15.406 998 998 0 0 0-28.334-25.119c-.02-.018-.047-.035-.07-.053l-.01-.01c-.01 0-.012-.01-.018-.014-2.29-1.953-4.883-3.781-7.205-5.723-.07-.06-.15-.116-.22-.175-.228-.19-.478-.371-.705-.56-13.465-11.232-27.14-22.391-41.71-33.145q-.188-.144-.38-.286a857 857 0 0 0-17.36-12.466l-.076-.053h-.01q-.306-.222-.619-.44-.567-.396-1.14-.789c-6.039-4.2-12.784-8.012-19.02-12.107-2.71-1.78-5.519-3.505-8.268-5.264-9.898-6.336-19.362-12.913-29.773-18.953-.04-.023-.075-.05-.115-.072-8.975-5.205-18.897-9.813-28.27-14.772-11.492-6.08-22.54-12.442-34.66-18.111q-.026-.015-.053-.027l-.004-.002c-8.836-4.133-18.641-7.59-27.826-11.485-3.8-1.801-7.512-3.666-11.558-5.306l-.053-.026H951l-.002-.002c-3.435-1.392-7.075-2.628-10.693-3.88-6.54-2.549-12.498-5.507-19.213-7.928l-.012-.004h-.002c-19.868-7.163-41.053-13.346-62.527-19.3h-.002c-4.393-1.424-8.708-2.91-13.373-4.128-.144-.037-.27-.09-.414-.127l-.059-.018v.002a911 911 0 0 0-16.945-4.22 229 229 0 0 0-4.317-1.055v.033l-1.275-.297a899 899 0 0 0-14.67-3.275 906 906 0 0 0-13.791-2.875l-.098-.02-.058-.011-.008-.002h-.006l-.002-.002h-.002l-.01-.002-.016-.004h-.002q-1.383-.307-2.8-.586a1275 1275 0 0 0-12.78-2.45l-.502-.097-.271-.05-.252-.048-.883-.168-.127-.023-.176-.033h-.004l-.086-.016q-.636-.119-1.25-.227c-5.67-1.027-10.974-1.912-15.994-2.617-1.508-.251-2.98-.48-4.357-.656h-.004l-.174-.021-.045-.006-.096-.012h-.002l-.02-.002-.07-.006h-.002l-.002-.002h-.004c-.115-.014-.218-.019-.332-.031-3.053-.366-6.003-.657-8.832-.832l-.248-.016h-.002l-.037-.002-.049-.004-.14-.008h-.047l-.084-.002h-.03a31 31 0 0 0-1.548-.037 87 87 0 0 0-6.47-.121q-.396.004-.786.015l-.002-.002a105 105 0 0 0-2.842.135c-3.074.19-6.006.511-8.81.965l-.096.014-.44.068-.021.004-.037.006c-.148.025-.291.055-.438.08q-.17.03-.34.063c-2.413.434-4.731.97-6.965 1.603-.212.05-.415.109-.623.165-.141.04-.292.073-.433.115l-.022.006q-.007.001-.013.004c-.117.035-.228.08-.344.115-.445.14-.889.284-1.32.441a64 64 0 0 0-5.102 1.934c-.271.098-.531.21-.795.316-.146.065-.306.112-.451.178l-.006.002a62 62 0 0 0-7.326 3.916l-.018.012-.021.014-.03.017-.002.002-.045.031c-.02.013-.038.03-.058.043-.016.01-.03.024-.045.034a65 65 0 0 0-6.863 4.966c-.015.012-.029.028-.043.04-.06.048-.114.105-.172.154l-.014.01c-.702.588-1.335 1.298-2.018 1.92l-.066.064c-.097.089-.19.184-.287.273-1.306 1.207-2.644 2.359-3.879 3.688l-.004.004-.002.002c-.114.122-.22.257-.334.38l-.02.02c-.759.83-1.443 1.79-2.175 2.666-.146.175-.289.355-.434.532-.964 1.175-1.972 2.273-2.889 3.53-.154.213-.298.445-.45.66q-.025.028-.048.058c-.722 1.014-1.371 2.157-2.064 3.224l-.023.037-.008.01-.002.002-.004.008-.04.059c-.971 1.495-1.983 2.92-2.894 4.521q-.318.56-.629 1.133c-1.129 2.08-2.191 4.284-3.236 6.512-.106.226-.223.429-.328.656l-.018.04c-.23.498-.448 1.019-.672 1.529-.095.216-.193.428-.287.646q-.188.427-.373.858c-.616 1.468-1.145 3.093-1.723 4.632-.714 1.849-1.436 3.69-2.097 5.637l-.03.08c-.023.068-.05.127-.074.195-.013.041-.027.075-.04.116-.016.045-.027.1-.042.146-2.195 6.48-4.174 13.362-5.783 20.947l-.17.803-.01.053-.01.043a96 96 0 0 0-.531 2.795h-.002l-.02.123v.01l-.002.004c-.427 2.522-.764 7.226-1.174 10.537-.534 4.296-1.061 7.716-1.504 13.373v.031a94 94 0 0 0-.068.934c-.284 4.018-.434 8.814-.605 13.623-.07 1.018-.125 2.113-.196 3.033-.105 2.328-.374 3.002-.457 5.473-.045 1.353.122 3.53.084 4.925a325 325 0 0 0-.302 10.016q-.008.346-.012.705l.002.092c-.006.522.073 1.272.072 1.807l-.004.197a30 30 0 0 0-.012 1.057c-.027 5.881.41 13.003.877 20.222.007.109.007.194.014.303.207 12.976-.256 23.674.713 38.719l.012.218.01.131.002.04v.01l.002.04q.001.035.006.07l.006.074c.056.874.3 2.052.359 2.932.422 5.787 1.285 12.187 2.148 18.635l.163.193c.069.8.24 1.747.312 2.55.413 9.524.92 19.17 2.361 30.821.345 2.793.817 5.647 1.24 8.498.098.771.197 1.545.305 2.352l-.199.478.057.418c.88 6.464 2.614 13.792 3.66 20.45.234 1.462.49 2.937.728 4.406q.283 1.735.547 3.451c.005.031.005.055.01.086l.004.031c.004.023.004.041.008.064.756 4.57.73 8.13 1.569 12.781.282 1.566.954 3.391 1.246 4.965.533 3.376.908 6.6 1.605 10.143.139.706.389 1.484.53 2.191v.022c.564 2.84 1.31 5.77 1.994 8.678l.084.361q.317 1.356.605 2.697c2.202 10.404 5.136 21.063 7.783 31.756 2.799 11.32 4.955 22.237 8.295 33.822.866 3.002 1.939 6.058 3.008 9.116q.364 1.05.732 2.103a164 164 0 0 1 1.557 4.711c1.47 4.776 2.276 9.263 3.844 14.07l.09.28.002.01.002.01s0 .01.002.01l.013.043.036.11.115.349.002.01c.129.393.288.794.42 1.187 2.134 6.495 4.967 13.138 7.287 19.68 1.582 4.463 3.3 8.944 4.97 13.426 1.799 5.243 3.308 10.412 5.407 15.719.72 1.82 1.616 3.645 2.437 5.468 1.05 2.602 1.795 5.151 2.875 7.756.174.42.407.842.582 1.262.182.437.302.864.485 1.3l.002.01.021.048c2.552 6.094 5.903 12.205 8.631 18.31 1.689 3.78 3.512 7.555 5.27 11.336 4.815 10.357 9.075 20.707 14.427 31.049a670 670 0 0 0 2.963 5.682c.394.747.953 1.471 1.35 2.218.537 1.012 1.068 2.023 1.611 3.034v.012c2.249 4.185 5.299 8.251 7.777 12.402 11.985 21.377 24.154 42.77 38.71 63.684a754 754 0 0 0 8.66 12.175q.021.03.045.06l.273.376v.01l.012.012c6.046 8.317 11.075 14.571 15.002 20.424l.074.11h.002s.003 0 .004.01h.002c.002 0 .002.01.004.01l.023.033h.002c.05.073.095.144.145.216.175.263.356.531.525.791.234.36.504.738.727 1.094.063.1.143.209.205.309.042.068.098.142.14.21l.03.044q.008.015.017.027c.024.038.055.079.078.117l.024.037v.01l.008.01h.004v.01l.02.033c.423.696.846 1.395 1.226 2.082h.004l.017.03.034.062.093.174.061.113.016.027h.002l.029.059.191.361v.01l.012.012h.006l.004.01c.083.158.173.32.254.477a38 38 0 0 1 1.63 3.621c.037.095.083.193.128.29.02.052.049.104.068.157l.004.01h.002l.002.01.002.01h.002l.004.012v.01l.006.01c.002 0 .004.011.006.016v.01c.105.287.168.581.264.87.149.45.278.903.404 1.357.042.151.095.301.135.453.014.055.035.109.049.164.007.03.018.057.025.086.01.041.025.08.035.121q.082.326.154.652c.122.553.189 1.122.276 1.684.023.149.052.296.072.445l.014.082.006.04s0 .01.002.013c.044.316.122.62.152.94v.01c0 .01.002.01.002.016 0 .023-.004.044-.002.066.012.13.005.269.016.4q.106 1.351.074 2.76c-.009.41-.045.833-.072 1.252-.024.355-.075.726-.112 1.088l-.008.078-.025.24c-.038.339-.056.667-.106 1.012-.055.392-.108.781-.18 1.182a40 40 0 0 1-.765 3.445q-.002.014-.006.025l-.002.01-.002.01c-.027.099-.04.19-.068.289h-.002l-.002.01-.002.01c-.48 1.728-1.198 3.614-1.948 5.525a91 91 0 0 1-4.32 9.416h-.004c-.002 0-.004.01-.006.012l-.004.01h-.002c-.002 0-.002.01-.004.01h-.002c-.002 0-.004.01-.006.01h-.004v.01c-.015.03-.025.057-.04.086l-.016.031c-.002 0-.004.01-.006.014l-.002.01-.022.041a472 472 0 0 0-6.006 11.791c-10.596 20.543-20.367 40.773-29.338 60.69a217 217 0 0 0-3.261 6.963c-.038.085-.088.175-.125.26v.01a1159 1159 0 0 0-4.266 9.765c-5.813 13.474-10.098 26.335-15.18 39.518-4.562 11.83-9.805 23.935-13.79 35.531l.154-.03c-.862 2.506-2.01 5.128-2.844 7.624-2.994 8.954-4.859 17.432-7.514 26.244-1.304 4.328-2.466 8.595-3.69 12.889-3.609 12.671-7.973 25.662-10.89 38.037-.132.559-.17 1.077-.3 1.635-.001 0-.002 0-.003.01-.12.518-.331 1.075-.45 1.593h.001l-.002.01.137.096c-.047.204-.06.393-.108.596-2.078 9.026-3.166 17.615-4.882 26.483-7.66 39.57-12.768 78.015-13.569 114.431h-.002c-.015.688.066 1.33.053 2.016-.234 11.8-.18 23.46.275 34.926l.664.433c1.068 25.695 3.19 50.867 7.524 74.89l-.002.013c.286 1.586.737 3.083 1.037 4.662 2.311 12.167 4.886 24.195 7.996 35.93 1.274 4.806 2.94 9.393 4.344 14.127 2.392 8.064 4.633 16.213 7.396 24.066.065.184.166.346.23.53 7.489 21.201 16.595 41.459 26.657 61.124.838 1.638 1.365 3.465 2.22 5.092h-.001c.722 1.374 1.596 2.651 2.33 4.018 1.685 3.136 3.597 6.12 5.345 9.216 11.802 20.897 24.838 40.997 39.381 60.07a569 569 0 0 0 54.215 61.395c.225.22.394.482.62.701h.001c.044.043.097.077.141.12 3.534 3.45 7.498 6.555 11.127 9.931 14.838 13.802 30.489 26.922 46.83 39.465 4.967 3.812 9.95 7.574 15.047 11.27 10.332 7.492 21.463 14.157 32.305 21.171a792 792 0 0 0 66.625 38.678c9.74 5.036 19.314 10.127 29.337 14.834 30.969 14.546 62.916 27.842 96.221 39.25 2.369.812 4.547 1.875 6.926 2.67 35.828 11.98 73.007 21.65 110.799 30.03 10.905 2.418 21.914 4.318 32.945 6.437 21.775 4.183 43.712 7.223 65.883 10.238 57.278 7.798 115.21 13.158 173.594 13.158h.012c176.562 0 353.123-35.662 499.084-106.974h.01c71.416-34.892 135.506-78.32 188.685-130.283v.01c40.996-40.059 75.503-85.197 101.889-135.4a500 500 0 0 0 29.107-66.747c6.18-17.561 11.11-35.829 15.402-54.443 1.24-5.372 2.235-10.865 3.311-16.324 2.824-14.33 5.054-28.964 6.723-43.897.404-3.62 1.294-6.99 1.629-10.646l-.366-.872c1.908-21.108 3.078-42.59 2.588-64.88-.382-17.377-1.551-35.13-3.46-53.225-.618-5.846-1.798-11.946-2.579-17.867-1.606-12.178-3.143-24.323-5.455-36.819-1.18-6.38-3.636-13.308-5.004-19.771l1.018-.688a818 818 0 0 0-9.985-41.4c-4.52-16.835-9.664-33.936-15.45-51.303q-.297-.901-.6-1.806c-.02-.06-.05-.123-.07-.182-8.923-26.58-19.343-53.78-31.346-81.602q-.013-.02-.02-.04-1.009-2.339-2.033-4.684c-12-27.476-25.574-55.57-40.705-84.25-.132-.25-.222-.483-.354-.733a88 88 0 0 1-4.574-10.142c-.492-1.299-.974-2.588-1.338-3.799v-.014c-.093-.31-.196-.627-.281-.932-.017-.062-.04-.128-.057-.19-.054-.197-.133-.41-.184-.607-.16-.614-.278-1.202-.404-1.796 0-.017-.01-.034-.01-.051-.066-.314-.111-.616-.168-.924-.06-.322-.124-.648-.174-.965-.035-.223-.093-.458-.123-.678-.06-.436-.094-.86-.135-1.287-.027-.282-.07-.573-.09-.852v-.012c-.019-.283-.044-.57-.055-.85v-.085c0-.107-.015-.218-.018-.324-.01-.236.018-.459.018-.692 0-.707 0-1.414.051-2.1 0-.06 0-.121.01-.181.01-.111 0-.23.014-.34.043-.458.149-.897.215-1.348.086-.624.17-1.248.305-1.859q.073-.32.15-.639c.125-.51.292-1.011.445-1.515 0-.012.01-.025.012-.037.04-.124.074-.25.114-.373.032-.095.054-.191.084-.285q.017-.057.043-.118c.088-.262.136-.533.232-.795.01-.02.014-.04.022-.06v-.03c.028-.063.06-.124.084-.186.01-.016.015-.037.021-.053l.033-.074v-.012h.012l.01-.01v-.012c.01-.016.015-.04.021-.055a38 38 0 0 1 1.631-3.621c.157-.309.331-.623.498-.932.064-.12.125-.24.192-.36q.035-.063.074-.126v-.012l.01-.01h.012v-.012c.388-.7.819-1.408 1.253-2.117.024-.04.055-.083.08-.123l.033-.05.033-.05c.495-.79 1.072-1.612 1.608-2.414l.254-.381c3.922-5.837 8.915-12.053 14.94-20.34v-.012l.036-.051s.01-.01.012-.014v-.01c.01-.01.01-.014.016-.021l.057-.078.06-.082.01-.01.036-.051c.01-.01.011-.017.018-.025.785-1.08 1.297-2.218 2.074-3.3 19.394-27.015 36.766-54.556 51.832-82.345l.05-.09q.717-1.303 1.42-2.609v-.012a694 694 0 0 0 3.59-6.773v-.01c0-.01.01-.01.01-.016 0 0 0-.01.01-.01 0-.01.01-.017.013-.025l.19-.362c6.9-13.165 12.54-26.355 18.57-39.543 2.774-6.067 5.948-12.132 8.547-18.191.8-1.865 1.849-3.736 2.633-5.6.179-.426.425-.854.603-1.28v-.01c0-.01.01-.02.014-.03 0-.01.01-.02.01-.029q.014-.03.025-.06c1.064-2.544 1.787-5.033 2.82-7.573.867-2.092 1.954-4.188 2.786-6.277l.677-1.706c2.299-5.812 3.878-11.453 5.926-17.216 3.88-10.46 8.282-21.015 11.686-31.362l.08-.24v-.01c0-.01.01-.014.01-.022q.252-.754.498-1.506a53 53 0 0 0 .23-.72v-.02c0-.01 0-.017.01-.024v-.022q.013-.035.02-.068c1.33-4.082 2.004-7.89 3.263-11.949 1.51-4.783 3.416-9.657 4.802-14.398.32-1.095.638-2.17.954-3.262 3.054-10.592 5-20.553 7.603-30.928q.495-1.97.979-3.933c1.717-6.971 4.26-14.352 5.787-21.203 0-.02.01-.042.016-.062.52-2.336.702-4.382 1.2-6.702 0-.014.01-.029.013-.043.702-3.266 1.572-6.6 2.232-9.836.32-1.565.624-3.08.934-4.638 2.013-10.114 3.145-19.3 4.773-29.065.817-4.896 1.715-9.855 2.49-14.699.704-4.647 1.959-9.839 2.58-14.389l.036-.232v-.01c0-.022 0-.044.01-.066 0-.034.01-.068.016-.102l.059-.414v-.01c.122-.9.088-1.54.207-2.437.129-1.02.26-2.04.398-3.106.257-1.98.498-3.812.74-5.771.838-6.777.711-11.638 1.104-17.473 2.385-23.154 5.007-46.92 5.642-66.31.217-6.607-.27-10.313-.21-16.412.117-2.194.401-4.894.472-6.961l.135-.192q.04-1.355.04-2.613c.001-.836-.053-1.368-.056-2.193q.02-1.604.01-3.127c-.011-1.237-.048-2.124-.062-3.334-.082-7.23-.456-12.49-.72-18.752-.022-.509-.04-1.032-.06-1.547-.195-4.385-.17-10.056-.433-13.92v-.03c-.01-.093-.014-.183-.021-.269-.053-.764-.14-1.043-.196-1.787a103 103 0 0 0-.088-1.279c0-.043-.01-.082-.01-.121v-.014q-.014-.149-.02-.303c-.023-.338-.046-.674-.065-1.023s-.036-.708-.062-1.024c-.412-5.041-.931-7.652-1.418-11.562-.389-3.14-.712-7.537-1.11-10.133 0-.02-.01-.04-.01-.06 0-.031-.01-.062-.013-.092v-.028c0-.009 0-.018-.01-.027v-.016c0-.015-.01-.032-.01-.047l-.043-.257c0-.008 0-.017-.01-.026q-.255-1.444-.51-2.681v-.028l-.03-.172v-.022q-.013-.036-.02-.068v-.012c-.026-.119-.06-.219-.085-.336a183 183 0 0 0-1.488-6.493 185 185 0 0 0-1.783-6.63l-.155-.53a194 194 0 0 0-2.119-6.734c-.234-.712-.381-1.59-.623-2.29v-.007c0-.007 0-.013-.01-.02v-.008a7 7 0 0 0-.117-.377v-.008q-.142-.404-.295-.789v-.006c-.225-.635-.482-1.213-.713-1.837-.083-.225-.172-.438-.256-.66-.676-1.8-1.341-3.617-2.066-5.327 0-.01-.01-.02-.014-.031v-.012q-.279-.675-.567-1.332c-.028-.064-.052-.138-.08-.203v-.01a11 11 0 0 0-.277-.574c-.104-.234-.223-.44-.328-.672-.05-.107-.104-.204-.152-.31q-.022-.064-.047-.122v-.01c-.024-.05-.051-.095-.074-.146-.01-.018-.014-.04-.021-.057-.106-.227-.224-.43-.33-.656h-.01l-.072-.144a116 116 0 0 0-1.282-2.618c-.423-.842-.814-1.743-1.252-2.56q-.34-.682-.699-1.332v-.008c-.155-.28-.32-.548-.484-.809v-.004c-.091-.16-.194-.301-.285-.46-.262-.457-.548-.87-.815-1.317l-.047-.086c-.087-.145-.18-.278-.267-.42-.825-1.364-1.633-2.757-2.502-4.041a24 24 0 0 0-.69-1.055v-.01c0-.002 0-.004-.01-.006v-.002a20 20 0 0 0-.705-.943 80 80 0 0 0-4.342-5.516 16 16 0 0 0-.607-.74v-.012c0-.002-.01-.004-.01-.006v-.002c-.012-.014-.027-.023-.04-.037a23 23 0 0 0-.778-.828v-.006a70 70 0 0 0-4.51-4.504v-.004q-.434-.429-.887-.828v-.004c0-.001 0-.003-.01-.004v-.002c-.099-.087-.203-.16-.308-.237q-.014-.008-.021-.017c-.108-.094-.224-.173-.332-.266-.057-.055-.114-.113-.174-.164-.376-.32-.763-.622-1.145-.931a81 81 0 0 0-2.586-2.02c-.056-.042-.114-.078-.17-.12a63 63 0 0 0-2.086-1.46c0-.003-.01-.005-.012-.008-.24-.164-.488-.319-.732-.479-.287-.187-.56-.402-.85-.584-.049-.03-.103-.051-.152-.082a29 29 0 0 0-1.236-.724v-.004c0-.002-.01-.004-.012-.006-.924-.546-1.925-.978-2.88-1.477-.269-.134-.533-.276-.802-.412-1.179-.595-2.34-1.224-3.57-1.748-.06-.025-.111-.059-.17-.084a3 3 0 0 1-.272-.133c-.108-.057-.218-.116-.334-.164a7 7 0 0 0-.447-.164c-2.167-.87-4.445-1.601-6.787-2.256-.114-.033-.218-.08-.334-.111-.046-.013-.098-.019-.144-.031-.11-.03-.206-.075-.315-.104-.415-.11-.878-.168-1.299-.271-1.454-.359-2.978-.648-4.506-.926-.786-.143-1.507-.355-2.314-.477l-.08-.013-.018-.002v-.002q-.26-.046-.525-.084-.633-.09-1.28-.166l-.014-.002-.205-.024a95 95 0 0 0-7.787-.636l-.027-.002-.012-.002h-.01a12 12 0 0 0-.781-.057v.008c-.05-.002-.106.005-.154.004a7 7 0 0 0-.327 0h-.076c-.24-.006-.501.01-.744.006a83 83 0 0 0-4.488.041 99 99 0 0 0-3.211.098h-.012q-1.26.058-2.559.158l-.059.006q-.428.034-.875.084-.015 0-.029.002l-.045.006c-3.371.284-6.905.707-10.593 1.23-.107.016-.2.02-.307.036l-.111.015a42 42 0 0 0-.86.115l-.107.016a98 98 0 0 0-1.621.254c-.01 0-.012.003-.018.004l-.06.008c-1.355.223-2.79.481-4.257.754-6.483 1.054-13.509 2.374-21.106 3.851l-.746.137c-.06.012-.104.018-.164.03l-.01.001-.142.028c-.71.132-1.434.27-2.19.418l-.58.115-.139.027-.109.022-.164.03q-.864.171-1.715.352a942 942 0 0 0-30.852 6.664v-.006l-.37.086q-.875.206-1.74.416l-.015.004-.01.002-.01.002-.394.096c-28.56 6.76-55.718 14.627-81.586 23.451l-.334.112-.104.035-.486.164-.021.006q-.21.072-.414.146l-.01.004-.01.004-.131.047c-10.859 3.727-20.495 8.33-30.906 12.383-8.21 3.197-16.436 6.377-24.377 9.764-7.333 3.127-15.393 5.74-22.502 9.021v.002c-5.058 2.334-9.444 5.105-14.39 7.512-3.158 1.307-6.506 2.486-9.43 3.953l-.027.014c-.851.427-1.531.96-2.38 1.388-1.236.627-2.257 1.388-3.46 2.036l-.178.091c-.01.004-.015.01-.023.014l-.037.02c-3.394 1.741-6.271 3.795-9.574 5.591 0 .002-.01.004-.012.006-.646.343-1.308.676-1.951 1.02-2.167 1.158-4.424 2.256-6.569 3.428-7.131 3.896-14.945 7.36-21.842 11.4l-.049.031c-4 2.344-7.456 4.994-11.378 7.383-5.601 3.41-10.8 7.04-16.247 10.539-.827.466-1.655.933-2.468 1.408-3.813 2.117-7.589 4.252-11.057 6.568l-.078-.049c-.01.01-.02.014-.03.021l-.01-.01c-.237.158-.425.34-.661.499-.176.105-.37.199-.535.31-.792.532-1.456 1.126-2.2 1.682q-.225.16-.457.318c-4.495 3.043-8.9 6.132-13.296 9.227-1.386.977-2.98 1.843-4.356 2.826 0 0-.01.01-.014.012h-.02c-19.83 14.167-38.604 28.86-56.45 43.898a402.188 376.906 0 0 0-6.536-11.05 402.188 376.906 0 0 0-14.078-23.926 402.188 376.906 0 0 0-.508-.74 402.188 376.906 0 0 0-.236-.4 402.188 376.906 0 0 0-1.747-2.478 402.188 376.906 0 0 0-.328-.457 402.188 376.906 0 0 0-2.24-3.127 402.188 376.906 0 0 0-.639-.89 402.188 376.906 0 0 0-.025-.037 402.188 376.906 0 0 0-7.707-10.006 402.188 376.906 0 0 0-11.334-15.18 402.188 376.906 0 0 0-1.404-1.51 402.188 376.906 0 0 0-4.101-4.609 402.188 376.906 0 0 0-.586-.672 402.188 376.906 0 0 0-16.91-18.025 402.188 376.906 0 0 0-4.946-5.211 402.188 376.906 0 0 0-.308-.332 402.188 376.906 0 0 0-.066-.06 402.188 376.906 0 0 0-4.292-4.075 402.188 376.906 0 0 0-.025-.026 402.188 376.906 0 0 0-8.255-7.047 402.188 376.906 0 0 0-.272-.232 402.188 376.906 0 0 0-2.758-2.357 402.188 376.906 0 0 0-10.748-9.18 402.188 376.906 0 0 0-3.779-3.219 402.188 376.906 0 0 0-1.342-1.142 402.188 376.906 0 0 0-.025-.022 402.188 376.906 0 0 0 0-.002 402.188 376.906 0 0 0-4.187-2.826 402.188 376.906 0 0 0-23.233-15.738 402.188 376.906 0 0 0-9.554-6.371 402.188 376.906 0 0 0-2.979-2.008 402.188 376.906 0 0 0-.316-.19 402.188 376.906 0 0 0-2.418-1.613 402.188 376.906 0 0 0-2.483-1.664 402.188 376.906 0 0 0-.2-.117 402.188 376.906 0 0 0-.196-.117 402.188 376.906 0 0 0-3.137-1.553 402.188 376.906 0 0 0-.158-.096 402.188 376.906 0 0 0-27.373-13.531 402.188 376.906 0 0 0-17.414-8.596 402.188 376.906 0 0 0-.02-.008 402.188 376.906 0 0 0-.163-.062 402.188 376.906 0 0 0-.48-.223 402.188 376.906 0 0 0-.183-.08 402.188 376.906 0 0 0-.092-.037 402.188 376.906 0 0 0-1.94-.662 402.188 376.906 0 0 0-.874-.327 402.188 376.906 0 0 0-29.975-10.173 402.188 376.906 0 0 0-8.474-2.842 402.188 376.906 0 0 0-10.412-3.524 402.188 376.906 0 0 0-.014 0 402.188 376.906 0 0 0-.598-.203 402.188 376.906 0 0 0-2.014-.398 402.188 376.906 0 0 0-35.633-7.047 402.188 376.906 0 0 0-16.517-3.268 402.188 376.906 0 0 0-.03-.002 402.188 376.906 0 0 0-.276-.027 402.188 376.906 0 0 0-.211-.023 402.188 376.906 0 0 0-.579-.051 402.188 376.906 0 0 0-.269-.025 402.188 376.906 0 0 0-53.762-3.499 402.188 376.906 0 0 0-.773-.05z"/><path fill="#fb5cef" fill-opacity=".992" d="M1102.804 445.864q2.787 4.217 3.952 11.431.445 2.531.827 6.455.298 3.734.301 7.827 0 4.092-.269 8.08-.166 3.713-.84 6.287-1.01 3.862-4.276 8.273-2.55 2.955-4.47 4.264l-3.226 1.437q-1.898.845-4.915 1.733l-9.069 3.129-14.027 3.744q-10.356 2.791-20.459 6.153-9.998 3.087-19.678 7.397-4.176 1.86-3.838 2.618.17.38 2.638 1.328 2.406.293 4.391 3.73.76 1.71 1.226 3.776.656 1.983.636 4.493.234 3.08.891 7.11.572 3.838 1.293 8.521l1.61 9.746q.805 4.873 1.589 10.21.974 5.252 1.779 10.125l1.61 9.745q.995 4.788 1.567 8.627.762 3.755 1.376 6.666l-.38.169 1.207 6.286q2.624 12.023 5.649 23.413 3.214 11.306 6.724 22.252 7.314 21.535 15.595 38.09 2.302 4.66 4.457 8.478 2.154 3.816 4.71 7 2.47 2.994 5.784 5.84 3.23 2.656 7.851 5.374 3.292 1.264 5.002 2.55 2.512 2.065 2.68 2.445.93 2.088-2.147 6.415-4.321 5.108-10.542 9.015-6.03 3.823-12.105 6.527-5.884 2.62-12.275 4.101-6.307 1.671-12.825 1.844-6.245.279-12.406-1.3-6.077-1.387-11.775-4.99-14.184-9.38-31.123-38.227-1.816-3.058-3.294-5.357-1.373-2.573-2.303-4.66-1.12-2.004-1.965-3.902l-1.774-3.986-1.86-4.176q-1.014-2.278-1.923-4.83-7.1-15.944-12.449-33.577-5.244-17.907-9.601-34.844-1.904-7.34-3.723-14.491-1.904-7.34-3.639-14.301-1.819-7.15-3.32-13.078-1.397-6.201-2.371-11.453-6.242 4.37-11.324 7.77t-8.835 6.21q-3.838 2.618-7.296 5.067t-6.832 5.09q-3.183 2.554-5.208 4.138-1.918 1.309-2.783 1.921-3.268 2.365-3.795 3.737-2.699 2.112-5.567 3.843-1.35 1.056-2.488 1.563l-1.898.845q-5.125 2.282-10.146 2.244-5.02-.04-9.79-1.555-4.663-1.79-8.906-4.677-4.137-3.162-7.494-7.126-6.609-8.202-9.21-18.643-.32-3.27-1.018-6.37-.593-3.375-.911-6.645 3.743-17.133 13.018-28.995 9.19-12.053 22.6-22.8 17.078-13.745 41.75-28.825l17.125-8.535q8.562-4.267 17.294-8.155 8.731-3.888 17.631-7.396l17.8-7.016q5.57-1.797 14.892-4.356 9.323-2.559 20.313-4.95 11.18-2.476 22.886-4.277 11.708-1.802 21.94-1.809 10.421-.091 18.313 2.308 7.997 2.126 11.46 7.862m-191.93 71.584q2.152-.275 1.645-1.414-.317-1.223-1.963-1.855-1.836-.547-6.581 1.565-8.668 4.542-17.903 11.384-9.046 6.757-16.066 13.976-7.084 6.566-8.41 11.25t2.41 6.433q1.814 1.012 3.839-.572 1.834-1.499 8.727-10.027 1.855-1.963 3.815-4.2 1.876-2.428 3.942-4.94 3.942-4.939 7.125-7.494 4.66-4.349 11.196-9.079 6.242-4.371 8.225-5.026m364.097 43.25q.756 2.168 1.712 5.998 1.158 3.78 2.617 9.626.855 3.427 1.459 6.703.755 3.024 1.207 5.695 1.156 8.92.498 17.436-.708 8.315-2.173 17.032-1.514 5.946-3.28 11.74t-5.194 10.934q-9.63 16.324-22.484 25.743-5.192 3.223-11.139 5.136-5.745 1.863-11.591 3.322-5.443 1.359-10.13 2.315-4.536.704-8.164.753-4.99.603-11.843.6-6.652-.052-13.656-.66-7.055-.808-13.605-2.171-6.601-1.565-11.237-3.834-13.503-6.052-22.117-13.967t-14.91-21.12q-2.87-6.35-5.185-12.197-2.115-5.896-3.474-11.34-4.982-19.957-.137-40.011.758-4.687 2.12-9.524 1.514-5.09 3.682-9.271.756-1.26 1.462-2.72.858-1.714 1.866-3.679 6.656-11.94 16.083-21.36t21.775-14.86q1.764-.654 4.788-1.409 3.175-1.006 7.61-2.113 6.3-1.359 11.289-1.962 5.19-.653 9.927-.55 4.889-.15 9.978.507 5.04.455 11.338 1.667l-.1-.403q24.59 4.997 36.779 22.085 1.158 1.21 2.115 2.47 1.663 1.512 2.116 1.613 7.91 3.38 12.243 8.722 4.533 5.293 7.756 13.055m-117.106-21.306q8.469-7.254 3.884-9.321-1.008-.606-2.62-.203-2.823.705-6.2 3.475-3.176 2.72-6.2 6.045t-5.546 6.952q-2.571 3.426-3.933 5.693-8.623 16.073-3.282 18.594 1.41 1.361 2.218-.553l2.875-7.357q1.16-3.073 3.378-6.197 2.168-3.325 4.639-6.297 2.621-3.225 5.394-5.844 2.923-2.871 5.393-4.987m85.05 41.302-2.822-.152.403-.101q-4.888.15-8.617-2.775-3.526-2.974-6.145-6.603-.705-1.11-1.058-2.52l-.754-3.024q-.352-3.125-.048-7.055.204-6.904-.853-11.138-1.057-4.233-3.526-4.687-4.032.15-9.275 6.598-5.092 6.196-8.067 14.006-3.735 15.067-3.287 31.445.397 16.176 4.121 31.093l1.56 6.25q.604 2.419 1.108 3.578.302 1.21 1.007 2.319.906 1.058 2.065 2.268 2.217 2.016 4.03 3.277 1.814 1.26 3.426 1.714 2.872 1.21 6.4-.098 1.16-.504 2.117-.957l2.319-1.007q2.62-1.51 3.88-2.468l-.1-.403q7.46-6.145 10.689-14.66 3.379-8.768 4.49-18.04l.102.403-.197-15.37zm371.872-169.202q-.068 2.285-.582 5.595-.306 3.317-1.474 7.648-1.175 4.538-2.355 9.284-1.174 4.538-2.574 9.693l-5.137 18.971q-2.354 9.285-4.306 18.996-.935 3.506-2.893 13.426-3.206 16.95-6.002 34.12-2.59 17.176-3.107 34.621l-2.497 56.05q-.325 3.94-.913 9.743t-2.007 11.581q-1.205 5.577-3.644 10.7-2.224 4.924-5.835 7.519-5.523 3.993-13.019 4.394-7.702.395-18.502.074-6.438-.191-7.257-.631-6.81-1.658-11.646-6.79-4.837-5.133-8.158-12.299t-5.358-15.541-3.245-16.726q-1.2-8.558-1.803-16.267-.597-7.917-.846-13.537-1.098-26.016-.055-61.114.488-16.407 2.748-36.504 2.467-20.09 7.018-40.325 4.764-20.438 11.971-39.14 7.214-18.91 17.187-32.748 11.47-15.25 23.931-14.88 5.815.174 14.616 4.8 6.547 3.52 13.045 8.702 6.504 4.975 11.511 11.36 5.215 6.39 8.322 13.758t2.866 15.467m-62.628-25.973q3.96-7.365 3.99-8.404.069-2.284-3.254-2.383-2.7-.08-6.648 6.87-2.616 4.08-5.72 10.64-3.106 6.559-6.022 13.748-2.708 7.195-4.793 14.408-1.87 7.012-2.019 11.996-.043 1.454 1.41 1.497 1.662.05 1.718-1.82.056-1.869 1.632-5.98 1.584-4.317 3.589-8.83 2.218-4.716 4.21-8.814 2.207-4.3 3.301-6.138 2.426-4.709 4.627-8.8 2.2-4.093 3.979-7.99m183.415-6.708-.411-.06q8.072-3.418 15.881-2.253 3.083.46 7.245 2.132 4.398 1.496 8.469 3.784 4.306 2.113 7.904 4.75 3.834 2.464 5.962 5.092 6.396 6.416 8.982 15.835t1.237 18.462q-1.288 8.63-4.57 16.544-3.045 7.739-6.738 15.59l-5.477 11.368q-2.739 5.683-5.683 11.336-1.304 1.696-5.058 9.96-3.959 8.232-8.924 17.575-.565.966-2.617 4.861-1.846 3.926-3.99 8.438-2.113 4.307-3.928 8.027-1.61 3.751-1.702 4.368-.565.966-1.488 2.929-.687 1.788-1.733 4.573-1.045 2.785-2.152 5.981t-2.718 6.947q-1.58 3.546-3.014 7.533-1.2 3.813-2.87 7.975-1.467 4.193-2.697 8.211-1.199 3.813-2.603 7.595-2.644 9.269-4.508 16.133-1.865 6.864-2.981 11.53-1.997 9.155-.782 12.277 1.368 2.095 4.04 2.494 3.082.46 6.143-.344t6.009-2.255q3.183-1.625 5.781-3.548 2.629-2.13 4.785-3.908 2.834-2.098 5.965-4.782 3.162-2.89 5.297-5.932 5.327-6.138 9.688-12.84 4.567-6.671 8.96-13.578 9.645-15.367 16.837-14.294 3.083.46 5.386 3.325 5.08 5.38 3.485 16.065-.95 6.37-4.407 14.048-3.425 7.472-8.793 15.284-5.161 7.843-11.762 15.471-6.394 7.66-13.458 14.168-7.063 6.509-14.323 11.518-7.229 4.803-13.68 7.202-19.966 7.104-37.434 4.498-9.453-1.41-19.237-6.232-9.785-4.821-17.937-12.13t-13.708-16.54-6.374-19.228q-1.179-9-.415-18.339.763-9.34 2.112-18.381l1.227-8.22q.757-3.669 1.187-6.546 1.033-5.518 2.766-10.09.779-2.405 1.138-3.402t.665-3.052q3.042-11.94 7.44-24.52 4.398-12.578 9.412-25.065 5.014-12.486 10.378-24.5 5.6-12.19 10.872-23.587 7.889-16.26 13.296-25.747 4.894-7.462 10.2-14.863 5.306-7.402 11.548-14.033 1.272-1.49 3.52-3.886t4.908-4.73q2.69-2.54 5.082-4.494 2.628-2.128 4.364-2.5m-2.073 16.707q-5.84 8.162-11.33 16.796-5.49 8.635-9.427 18.13-1.16 2.139-.911 4.697.34 1.941 1.902 1.334.944-.7 1.098-1.727.122-.822 2.554-4.45l5.604-7.988q3.202-4.564 6.342-8.717 3.377-4.328 6.96-8.625 7.78-8.502 9.093-11.668t-3.208-3.84q-1.85-.276-3.442.537-1.417 1.05-5.235 5.521m177.398 21.968-.4-.11q8.428-2.412 16.038-.307 3.003.831 6.932 2.996 4.184 2.02 7.946 4.785 4.018 2.621 7.268 5.676 3.507 2.91 5.3 5.778 5.569 7.146 6.991 16.81 1.423 9.663-1.015 18.474-2.326 8.41-6.545 15.867-3.963 7.311-8.582 14.656l-6.818 10.618q-3.409 5.309-7.018 10.562-1.5 1.525-6.23 9.271-4.93 7.69-10.994 16.36-.677.891-3.187 4.509-2.31 3.672-4.985 7.89-2.621 4.018-4.875 7.49-2.054 3.528-2.22 4.13-.678.89-1.833 2.726-.899 1.691-2.275 4.329t-2.864 5.675-3.54 6.566q-2 3.327-3.908 7.11-1.653 3.64-3.818 7.568-1.965 3.983-3.673 7.822-1.654 3.639-3.507 7.222-3.75 8.88-6.435 15.466-2.685 6.587-4.36 11.082-3.093 8.846-2.267 12.092 1.103 2.246 3.707 2.966 3.004.831 6.14.405t6.237-1.508q3.358-1.227 6.17-2.82 2.868-1.794 5.224-3.298 3.068-1.738 6.502-4.021 3.49-2.484 5.978-5.245 6.034-5.445 11.177-11.568 5.343-6.067 10.542-12.39 11.441-14.08 18.45-12.142 3.004.831 4.942 3.955 4.388 5.957 1.508 16.37-1.718 6.208-6.081 13.408-4.308 7-10.585 14.103-6.076 7.157-13.554 13.927-7.278 6.826-15.08 12.428t-15.616 9.693q-7.76 3.89-14.453 5.487-20.682 4.626-37.704-.083-9.211-2.549-18.338-8.523-9.126-5.974-16.33-14.219-7.205-8.245-11.597-18.083-4.393-9.839-3.991-19.86-.076-9.075 1.816-18.253t4.33-17.989l2.216-8.01q1.197-3.55 1.973-6.353 1.696-5.351 3.971-9.68 1.066-2.292 1.543-3.238t1.031-2.949q4.47-11.482 10.364-23.433 5.893-11.951 12.387-23.736t13.278-23.06q7.04-11.418 13.657-22.09 9.805-15.181 16.324-23.94 5.766-6.814 11.931-13.515 6.166-6.702 13.167-12.526 1.444-1.325 3.967-3.43 2.522-2.105 5.445-4.099 2.979-2.194 5.59-3.843 2.868-1.793 4.636-1.95m-4.087 16.331q-6.787 7.393-13.286 15.296t-11.56 16.85q-1.41 1.982-1.474 4.551.102 1.969 1.725 1.555 1.023-.579 1.3-1.58.221-.801 3.076-4.107l6.532-7.248q3.733-4.141 7.355-7.882 3.878-3.885 7.955-7.716 8.757-7.494 10.444-10.476t-2.718-4.202q-1.802-.498-3.481.115-1.534.87-5.868 4.844m107.266 135.084q1.413.403 2.742.995 1.413.403 2.93 1.08 8.16 3.638 15.98 10.082 8.093 6.339 13.696 13.16 5.983 6.99 1.752 16.478-1.438 3.226-4.143 7.252-2.516 4.111-6.108 9.106-7.375 9.907-17.686 22.827-3.359 3.962-7.86 9.462-4.31 5.586-8.6 11.635-4.29 6.05-8.115 12.079-3.741 5.839-5.857 10.583-2.2 4.934-.579 7.931.526 1.372 1.854 1.965 2.657 1.184 7.575-1.173 5.193-2.462 10.43-6.042 5.32-3.77 9.713-7.498 4.667-3.834 6.272-5.393 13.052-11.925 25.03-25.011 12.252-13.192 23.365-26.891 3.359-3.962 7.077-8.22 3.803-4.446 8.196-8.175 4.392-3.728 9.31-6.085 5.003-2.547 10.658-2.983l-.17.38q3.734.3 7.594 1.338 1.792.572 3.69 1.418 2.172.74 4.45 1.756 3.035 1.354 7.23 3.68 4.47 2.22 8.602 5.2 4.131 2.98 7.165 6.38 3.223 3.485 3.852 7.177.503 2.954-1.613 7.698-2.2 4.934-5.095 8.876-2.705 4.026-6.254 7.904-1.964 1.854-3.993 4.362t-4.395 5.775q-5.451 7.124-10.713 14.332-5.177 7.02-10.334 14.502-5.346 7.399-9.47 15.115-4.122 7.716-8.035 15.981-2.539 5.693-5.521 11.87l-5.838 13.095-10.493 23.53-3.977 8.92q-1.777 3.985-3.49 7.316-5.033 10.268-11.667 18.002t-15.144 15.087l.38.169q-27.095 22.498-75.397 15.52-7.109-.895-13.815-3.202-6.6-2.034-13.242-4.995-11.576-5.162-21.418-13.19-9.842-8.03-16.897-18.227-6.865-10.114-10.838-22.123-3.783-11.924-3.514-24.771.122-14.05 4.774-22.44 2.261-3.542 5.472-6.66 3.315-2.845 7.052-4.591 3.925-1.662 8.103-1.847 4.177-.185 8.352 1.677 6.452 2.877 11.463 11.026 2.208 5.762 2.116 12.091.013 6.603-1.682 12.445-1.44 5.272-1.807 11.706-.366 6.434 1.083 11.858 2.313 6.036 11.042 9.928 5.503 2.454 11.601 1.534t11.924-3.783q5.932-2.588 11.147-6.632 5.321-3.77 9.165-7.288l3.4-3.034-.169.38 17.304-20.95q6.636-9.78 13.567-19.202 6.93-9.422 14.136-18.949 1.565-2.487 2.262-3.541.972-1.16 1.141-1.539l-5.639 4.993-8.277 6.32-8.109 5.939q-7.833 5.834-12.857 7.916-8.993 4.863-19.712 6.453t-20.397-2.725q-4.364-1.946-8.621-5.665l-10.538-9.02q-2.76-3.506-5.18-7.77-2.336-4.454-4.124-9.119-1.787-4.664-2.836-9.455-.965-4.98-1.065-9.347-.052-9.578 1.438-20.06 1.764-10.589 5.74-19.508 6.855-15.37 15.773-28.229 9.003-13.048 21.232-24.657 27.037-27.983 42.454-24.294m-8.23 19.99q1.584-2.024 1.607-3.606-.546-1.836-1.874-2.428-2.278-1.016-7.409 2.839-2.597 2.254-6.251 5.857t-7.288 7.67-6.993 8.03q-3.17 4.046-5.262 7.208-3.253 4.237-3.635 6.114-.764 3.754.164 3.713 1.097-.42 3.38-3.498 1.817-3.057 4.923-6.45 3.19-3.582 6.76-6.995t7.243-6.553q3.864-3.054 6.652-5.224 2.956-2.549 5.026-4.128t2.956-2.55m78.092 58.025q-3.762 5.375-3.975 6.873-.023 1.582.546 1.836 1.329.592 5.45-5.078 3.93-5.754 8.556-10.516 4.71-4.952 10.096-9.376 1.71-1.285 2.872-2.36 1.436-1.18 2.492-2.528 2.323-2.149 2.662-2.908.761-1.708-.588-2.764-1.348-1.057-3.374-.595-1.372.526-4.836 4.213-3.38 3.498-7.457 8.05-3.803 4.447-7.331 8.788t-5.113 6.365" aria-label="To Illy" font-family="Magic Bubble" font-size="415.552" opacity=".99" style="line-height:1;-inkscape-font-specification:&quot;Magic Bubble&quot;;text-align:center" text-anchor="middle" transform="translate(0 -83.121)"/><path fill="#fff" d="M1102.804 409.844q2.787 4.218 3.952 11.432.445 2.531.827 6.455.298 3.734.301 7.827 0 4.092-.269 8.08-.166 3.713-.84 6.287-1.01 3.861-4.276 8.273-2.55 2.955-4.47 4.264l-3.226 1.437q-1.898.845-4.915 1.733l-9.069 3.129-14.027 3.743q-10.356 2.792-20.459 6.154-9.998 3.086-19.678 7.397-4.176 1.86-3.838 2.618.17.38 2.638 1.328 2.406.293 4.391 3.73.76 1.709 1.226 3.776.656 1.983.636 4.493.234 3.08.891 7.11.572 3.838 1.293 8.521l1.61 9.746q.805 4.872 1.589 10.21.974 5.252 1.779 10.124l1.61 9.746q.995 4.788 1.567 8.627.762 3.755 1.376 6.666l-.38.169 1.207 6.286q2.624 12.023 5.649 23.413 3.214 11.305 6.724 22.252 7.314 21.535 15.595 38.09 2.302 4.66 4.457 8.477t4.71 7.001q2.47 2.994 5.784 5.84 3.23 2.656 7.851 5.374 3.292 1.264 5.002 2.55 2.512 2.065 2.68 2.445.93 2.088-2.147 6.415-4.321 5.108-10.542 9.015-6.03 3.823-12.105 6.527-5.884 2.62-12.275 4.101-6.307 1.671-12.825 1.844-6.245.279-12.406-1.3-6.077-1.387-11.775-4.991-14.184-9.378-31.123-38.227-1.816-3.057-3.294-5.356-1.373-2.573-2.303-4.66-1.12-2.004-1.965-3.902l-1.774-3.986-1.86-4.176q-1.014-2.278-1.923-4.83-7.1-15.944-12.449-33.577-5.244-17.907-9.601-34.845-1.904-7.34-3.723-14.49-1.904-7.34-3.639-14.301-1.819-7.15-3.32-13.078-1.397-6.201-2.371-11.454-6.242 4.372-11.324 7.772t-8.835 6.208q-3.838 2.619-7.296 5.068-3.458 2.45-6.832 5.09-3.183 2.554-5.208 4.138-1.918 1.309-2.783 1.921-3.268 2.365-3.795 3.737-2.699 2.111-5.567 3.843-1.35 1.056-2.488 1.563l-1.898.845q-5.125 2.282-10.146 2.243-5.02-.038-9.79-1.554-4.663-1.79-8.906-4.677-4.137-3.162-7.494-7.126-6.609-8.202-9.21-18.643-.32-3.27-1.018-6.37-.593-3.375-.911-6.645 3.743-17.133 13.018-28.995 9.19-12.053 22.6-22.8 17.078-13.745 41.75-28.825l17.125-8.535q8.562-4.267 17.294-8.155 8.731-3.888 17.631-7.396l17.8-7.016q5.57-1.797 14.892-4.356 9.323-2.559 20.313-4.95 11.18-2.476 22.886-4.278 11.708-1.8 21.94-1.808 10.421-.091 18.313 2.308 7.997 2.126 11.46 7.861m-191.93 71.585q2.152-.275 1.645-1.414-.317-1.224-1.963-1.855-1.836-.548-6.581 1.565-8.668 4.542-17.903 11.383-9.046 6.758-16.066 13.977-7.084 6.566-8.41 11.25t2.41 6.433q1.814 1.012 3.839-.572 1.834-1.5 8.727-10.027 1.855-1.963 3.815-4.2 1.876-2.428 3.942-4.94 3.942-4.94 7.125-7.494 4.66-4.349 11.196-9.08 6.242-4.37 8.225-5.026m364.097 43.25q.756 2.168 1.712 5.998 1.158 3.78 2.617 9.626.855 3.427 1.459 6.703.755 3.024 1.207 5.695 1.156 8.92.498 17.436-.708 8.315-2.173 17.032-1.514 5.946-3.28 11.74t-5.194 10.934q-9.63 16.324-22.484 25.743-5.192 3.223-11.139 5.136-5.745 1.863-11.591 3.322-5.443 1.359-10.13 2.315-4.536.703-8.164.753-4.99.603-11.843.6-6.652-.053-13.656-.66-7.055-.809-13.605-2.171-6.601-1.565-11.237-3.834-13.503-6.052-22.117-13.967t-14.91-21.12q-2.87-6.35-5.185-12.197-2.115-5.897-3.474-11.34-4.982-19.957-.137-40.012.758-4.686 2.12-9.523 1.514-5.09 3.682-9.271.756-1.26 1.462-2.72.858-1.714 1.866-3.679 6.656-11.94 16.083-21.361 9.427-9.42 21.775-14.858 1.764-.655 4.788-1.41 3.175-1.006 7.61-2.113 6.3-1.359 11.289-1.962 5.19-.653 9.927-.55 4.889-.15 9.978.507 5.04.455 11.338 1.667l-.1-.403q24.59 4.997 36.779 22.085 1.158 1.21 2.115 2.47 1.663 1.512 2.116 1.613 7.91 3.379 12.243 8.722 4.533 5.293 7.756 13.055m-117.106-21.306q8.469-7.254 3.884-9.322-1.008-.605-2.62-.202-2.823.704-6.2 3.475-3.176 2.72-6.2 6.045t-5.546 6.952q-2.571 3.426-3.933 5.693-8.623 16.073-3.282 18.594 1.41 1.361 2.218-.553l2.875-7.357q1.16-3.073 3.378-6.197 2.168-3.325 4.639-6.298 2.621-3.224 5.394-5.843 2.923-2.872 5.393-4.987m85.05 41.302-2.822-.153.403-.1q-4.888.15-8.617-2.775-3.526-2.974-6.145-6.604-.705-1.108-1.058-2.52l-.754-3.023q-.352-3.125-.048-7.055.204-6.904-.853-11.138-1.057-4.233-3.526-4.687-4.032.15-9.275 6.598-5.092 6.196-8.067 14.006-3.735 15.066-3.287 31.444.397 16.177 4.121 31.094l1.56 6.25q.604 2.419 1.108 3.578.302 1.21 1.007 2.318.906 1.059 2.065 2.269 2.217 2.016 4.03 3.277 1.814 1.26 3.426 1.714 2.872 1.21 6.4-.098 1.16-.504 2.117-.957l2.319-1.007q2.62-1.51 3.88-2.468l-.1-.403q7.46-6.145 10.689-14.66 3.379-8.768 4.49-18.04l.102.403-.197-15.37zm371.872-169.202q-.068 2.285-.582 5.595-.306 3.317-1.474 7.648-1.175 4.538-2.355 9.284-1.174 4.538-2.574 9.693l-5.137 18.971q-2.354 9.284-4.306 18.996-.935 3.506-2.893 13.426-3.206 16.95-6.002 34.12-2.59 17.176-3.107 34.621l-2.497 56.05q-.325 3.94-.913 9.743t-2.007 11.58q-1.205 5.578-3.644 10.702-2.224 4.923-5.835 7.518-5.523 3.993-13.019 4.394-7.702.395-18.502.074-6.438-.191-7.257-.631-6.81-1.658-11.646-6.79-4.837-5.133-8.158-12.299t-5.358-15.541-3.245-16.726q-1.2-8.558-1.803-16.267-.597-7.917-.846-13.537-1.098-26.016-.055-61.115.488-16.407 2.748-36.503 2.467-20.09 7.018-40.325 4.764-20.438 11.971-39.14 7.214-18.91 17.187-32.748 11.47-15.25 23.931-14.88 5.815.174 14.616 4.8 6.547 3.52 13.045 8.702 6.504 4.974 11.511 11.36 5.215 6.39 8.322 13.758t2.866 15.467m-62.628-25.973q3.96-7.365 3.99-8.404.069-2.284-3.254-2.383-2.7-.08-6.648 6.87-2.616 4.08-5.72 10.64-3.106 6.559-6.022 13.748-2.708 7.194-4.793 14.408-1.87 7.012-2.019 11.996-.043 1.454 1.41 1.497 1.662.05 1.718-1.82.056-1.869 1.632-5.98 1.584-4.317 3.589-8.831 2.218-4.715 4.21-8.813 2.207-4.3 3.301-6.138 2.426-4.71 4.627-8.801t3.979-7.989m183.415-6.708-.411-.061q8.072-3.417 15.881-2.252 3.083.46 7.245 2.131 4.398 1.497 8.469 3.785 4.306 2.113 7.904 4.75 3.834 2.463 5.962 5.092 6.396 6.416 8.982 15.835t1.237 18.461q-1.288 8.631-4.57 16.545-3.045 7.738-6.738 15.59l-5.477 11.368q-2.739 5.683-5.683 11.336-1.304 1.696-5.058 9.96-3.959 8.232-8.924 17.575-.565.966-2.617 4.861-1.846 3.926-3.99 8.438-2.113 4.306-3.928 8.027-1.61 3.751-1.702 4.368-.565.966-1.488 2.929-.687 1.788-1.733 4.573-1.045 2.785-2.152 5.981t-2.718 6.947q-1.58 3.546-3.014 7.533-1.2 3.813-2.87 7.975-1.467 4.193-2.697 8.211-1.199 3.812-2.603 7.594-2.644 9.27-4.508 16.134-1.865 6.864-2.981 11.53-1.997 9.155-.782 12.277 1.368 2.095 4.04 2.494 3.082.46 6.143-.344t6.009-2.255q3.183-1.625 5.781-3.549 2.629-2.128 4.785-3.907 2.834-2.098 5.965-4.782 3.162-2.89 5.297-5.932 5.327-6.138 9.688-12.84 4.567-6.671 8.96-13.579 9.645-15.366 16.837-14.293 3.083.46 5.386 3.324 5.08 5.38 3.485 16.066-.95 6.37-4.407 14.048-3.425 7.472-8.793 15.284-5.161 7.843-11.762 15.471-6.394 7.659-13.458 14.168-7.063 6.509-14.323 11.517-7.229 4.804-13.68 7.203-19.966 7.104-37.434 4.498-9.453-1.41-19.237-6.232-9.785-4.821-17.937-12.13t-13.708-16.54q-5.555-9.233-6.374-19.228-1.179-9-.415-18.339.763-9.34 2.112-18.381l1.227-8.22q.757-3.669 1.187-6.546 1.033-5.518 2.766-10.09.779-2.406 1.138-3.402.358-.997.665-3.052 3.042-11.94 7.44-24.52 4.398-12.578 9.412-25.065 5.014-12.486 10.378-24.5 5.6-12.19 10.872-23.587 7.889-16.26 13.296-25.747 4.894-7.462 10.2-14.864 5.306-7.4 11.548-14.032 1.272-1.491 3.52-3.887t4.908-4.73q2.69-2.539 5.082-4.493 2.628-2.129 4.364-2.5M1733.5 359.5q-5.84 8.162-11.33 16.796-5.49 8.635-9.427 18.13-1.16 2.139-.911 4.697.34 1.941 1.902 1.334.944-.7 1.098-1.727.122-.822 2.554-4.45l5.604-7.988q3.202-4.564 6.342-8.717 3.377-4.328 6.96-8.625 7.78-8.503 9.093-11.668t-3.208-3.84q-1.85-.276-3.442.537-1.417 1.049-5.235 5.521m177.398 21.968-.4-.11q8.428-2.412 16.038-.307 3.003.831 6.932 2.996 4.184 2.02 7.946 4.785 4.018 2.62 7.268 5.676 3.507 2.91 5.3 5.778 5.569 7.146 6.991 16.81 1.423 9.663-1.015 18.474-2.326 8.41-6.545 15.867-3.963 7.31-8.582 14.656l-6.818 10.618q-3.409 5.309-7.018 10.562-1.5 1.525-6.23 9.271-4.93 7.69-10.994 16.36-.677.891-3.187 4.509-2.31 3.672-4.985 7.89-2.621 4.018-4.875 7.49-2.054 3.528-2.22 4.129-.678.89-1.833 2.727-.899 1.691-2.275 4.329t-2.864 5.675-3.54 6.566q-2 3.327-3.908 7.11-1.653 3.64-3.818 7.567-1.965 3.984-3.673 7.823-1.654 3.639-3.507 7.222-3.75 8.88-6.435 15.466-2.685 6.587-4.36 11.082-3.093 8.845-2.267 12.092 1.103 2.246 3.707 2.966 3.004.831 6.14.405t6.237-1.508q3.358-1.227 6.17-2.82 2.868-1.794 5.224-3.298 3.068-1.738 6.502-4.022 3.49-2.483 5.978-5.244 6.034-5.445 11.177-11.568 5.343-6.067 10.542-12.39 11.441-14.08 18.45-12.142 3.004.831 4.942 3.955 4.388 5.956 1.508 16.37-1.718 6.207-6.081 13.408-4.308 7-10.585 14.103-6.076 7.157-13.554 13.927-7.278 6.826-15.08 12.428t-15.616 9.693q-7.76 3.89-14.453 5.487-20.682 4.626-37.704-.083-9.211-2.549-18.338-8.523-9.126-5.974-16.33-14.219-7.205-8.245-11.597-18.083-4.393-9.839-3.991-19.86-.076-9.076 1.816-18.253 1.892-9.178 4.33-17.989l2.216-8.01q1.197-3.55 1.973-6.353 1.696-5.351 3.971-9.68 1.066-2.292 1.543-3.238t1.031-2.949q4.47-11.482 10.364-23.433 5.893-11.952 12.387-23.737t13.278-23.058q7.04-11.419 13.657-22.092 9.805-15.18 16.324-23.94 5.766-6.813 11.931-13.515 6.166-6.701 13.167-12.526 1.444-1.325 3.967-3.43 2.522-2.104 5.445-4.098 2.979-2.194 5.59-3.843 2.868-1.793 4.636-1.951m-4.087 16.331q-6.787 7.392-13.286 15.296t-11.56 16.85q-1.41 1.982-1.474 4.551.102 1.969 1.725 1.555 1.023-.58 1.3-1.58.221-.801 3.076-4.108l6.532-7.247q3.733-4.141 7.355-7.882 3.878-3.886 7.955-7.716 8.757-7.494 10.444-10.476t-2.718-4.202q-1.802-.498-3.481.115-1.534.87-5.868 4.844m107.266 135.084q1.413.403 2.742.995 1.413.402 2.93 1.08 8.16 3.638 15.98 10.082 8.093 6.339 13.696 13.16 5.983 6.99 1.752 16.478-1.438 3.226-4.143 7.252-2.516 4.11-6.108 9.106-7.375 9.907-17.686 22.826-3.359 3.962-7.86 9.463-4.31 5.585-8.6 11.635t-8.115 12.078q-3.741 5.84-5.857 10.584-2.2 4.934-.579 7.931.526 1.372 1.854 1.964 2.657 1.185 7.575-1.172 5.193-2.462 10.43-6.042 5.32-3.77 9.713-7.498 4.667-3.834 6.272-5.393 13.052-11.925 25.03-25.012 12.252-13.191 23.365-26.89 3.359-3.962 7.077-8.22 3.803-4.446 8.196-8.175t9.31-6.085q5.003-2.547 10.658-2.983l-.17.38q3.734.3 7.594 1.338 1.792.571 3.69 1.418 2.172.74 4.45 1.756 3.035 1.354 7.23 3.68 4.47 2.22 8.602 5.2 4.131 2.98 7.165 6.38 3.223 3.484 3.852 7.177.503 2.954-1.613 7.698-2.2 4.934-5.095 8.876-2.705 4.026-6.254 7.903-1.964 1.854-3.993 4.362t-4.395 5.776q-5.451 7.124-10.713 14.332-5.177 7.019-10.334 14.502-5.346 7.398-9.47 15.115-4.122 7.716-8.035 15.981-2.539 5.693-5.521 11.87l-5.838 13.095-10.493 23.53-3.977 8.92q-1.777 3.985-3.49 7.316-5.033 10.268-11.667 18.002t-15.144 15.087l.38.169q-27.095 22.498-75.397 15.52-7.109-.895-13.815-3.203-6.6-2.033-13.242-4.994-11.576-5.162-21.418-13.19-9.842-8.03-16.897-18.227-6.865-10.114-10.838-22.123-3.783-11.924-3.514-24.771.122-14.05 4.774-22.441 2.261-3.542 5.472-6.66 3.315-2.844 7.052-4.59 3.925-1.662 8.103-1.847 4.177-.185 8.352 1.677 6.452 2.877 11.463 11.026 2.208 5.762 2.116 12.09.013 6.604-1.682 12.446-1.44 5.272-1.807 11.706-.366 6.434 1.083 11.858 2.313 6.036 11.042 9.928 5.503 2.454 11.601 1.533 6.098-.92 11.924-3.783 5.932-2.587 11.147-6.631 5.321-3.77 9.165-7.289l3.4-3.033-.169.38 17.304-20.95q6.636-9.78 13.567-19.202 6.93-9.422 14.136-18.949 1.565-2.487 2.262-3.541.972-1.16 1.141-1.539l-5.639 4.993-8.277 6.319-8.109 5.94q-7.833 5.834-12.857 7.916-8.993 4.862-19.712 6.453-10.719 1.59-20.397-2.725-4.364-1.947-8.621-5.665l-10.538-9.02q-2.76-3.506-5.18-7.77-2.336-4.455-4.124-9.12t-2.836-9.454q-.965-4.98-1.065-9.347-.052-9.578 1.438-20.06 1.764-10.59 5.74-19.508 6.855-15.371 15.773-28.23 9.003-13.047 21.232-24.656 27.037-27.984 42.454-24.294m-8.23 19.99q1.584-2.024 1.607-3.606-.546-1.836-1.874-2.428-2.278-1.016-7.409 2.839-2.597 2.254-6.251 5.857t-7.288 7.67-6.993 8.03q-3.17 4.046-5.262 7.208-3.253 4.236-3.635 6.114-.764 3.754.164 3.713 1.097-.42 3.38-3.498 1.817-3.057 4.923-6.45 3.19-3.582 6.76-6.996 3.569-3.413 7.243-6.552 3.864-3.054 6.652-5.224 2.956-2.549 5.026-4.128t2.956-2.55m78.092 58.025q-3.762 5.375-3.975 6.873-.023 1.582.546 1.836 1.329.592 5.45-5.078 3.93-5.754 8.556-10.517 4.71-4.952 10.096-9.375 1.71-1.285 2.872-2.36 1.436-1.18 2.492-2.528 2.323-2.15 2.662-2.908.761-1.708-.588-2.765-1.348-1.056-3.374-.594-1.372.525-4.836 4.213-3.38 3.498-7.457 8.05-3.803 4.447-7.331 8.788t-5.113 6.365" aria-label="To Illy" font-family="Magic Bubble" font-size="415.552" opacity=".99" style="line-height:1;-inkscape-font-specification:&quot;Magic Bubble&quot;;text-align:center" text-anchor="middle" transform="translate(0 -83.121)"/><text xml:space="preserve" x="1504.908" y="2953.79" fill="#fc5df0" stroke-linecap="round" stroke-linejoin="round" stroke-width="4.713" font-family="Magic Bubble" font-size="239.414" opacity=".99" style="line-height:1;-inkscape-font-specification:&quot;Magic Bubble&quot;;text-align:center" text-anchor="middle"><tspan x="1504.908" y="2953.79">A Smiling Kitty Slime</tspan><tspan x="1504.908" y="3193.204">To Help Cheer</tspan><tspan x="1504.908" y="3434.956">You Up!</tspan></text><text xml:space="preserve" x="1504.908" y="2940.28" fill="#fffeff" stroke-linecap="round" stroke-linejoin="round" stroke-width="4.713" font-family="Magic Bubble" font-size="239.414" opacity=".99" style="line-height:1;-inkscape-font-specification:&quot;Magic Bubble&quot;;text-align:center" text-anchor="middle"><tspan x="1504.908" y="2940.28">A Smiling Kitty Slime</tspan><tspan x="1504.908" y="3179.694">To Help Cheer</tspan><tspan x="1504.908" y="3421.446">You Up!</tspan></text><path fill="url(#y)" d="M37.604 34.611c-2.733.093-4.872.73-6.704 1.875-3.664 2.293-6.105 6.629-7.449 13.073-1.858 8.91-4.114 63.322 28.762 108.548 3.603 4.957 5.725 6.325 2.748 11.96C-11.632 296.095 89.18 359.11 189.992 359.11h.002c100.812 0 201.624-63.016 135.031-189.045-2.977-5.634-.855-7.002 2.748-11.959 32.877-45.226 30.62-99.637 28.762-108.548-1.343-6.444-3.785-10.78-7.449-13.073-1.832-1.146-3.97-1.782-6.703-1.875s-6.02.54-10.276 1.377C286.27 45 259.07 69.12 238.747 91.875c-1.716 1.92-17.405-10.592-48.753-10.785h-.002c-31.347.193-47.036 12.706-48.752 10.785C120.916 69.119 93.716 45 47.88 35.988c-4.255-.836-7.543-1.47-10.275-1.377" transform="translate(470.026 719.9)scale(5.42111)"/><path fill="url(#z)" d="M326.068 37.287c-42.218 9.868-67.906 32.85-87.322 54.588-1.715 1.92-17.404-10.592-48.752-10.785h-.002c-31.347.193-47.036 12.706-48.752 10.785-18.802-21.052-43.487-43.27-83.37-53.615a134 134 0 0 0-.249 8.15A134.38 134.38 0 0 0 192 180.79 134.38 134.38 0 0 0 326.379 46.41a134 134 0 0 0-.31-9.123" opacity=".99" style="mix-blend-mode:multiply" transform="translate(470.026 719.9)scale(5.42111)"/><path fill="url(#A)" d="M37.604 34.611c-2.733.093-4.872.73-6.704 1.875-3.664 2.293-6.105 6.629-7.449 13.073-1.858 8.91-4.114 63.322 28.762 108.548 3.603 4.957 5.725 6.325 2.748 11.96a233 233 0 0 0-7.953 16.548A142.04 142.04 0 0 0 172.256 82.602c-19.6 3.311-29.662 10.79-31.016 9.273C120.916 69.119 93.716 45 47.88 35.988c-4.255-.836-7.543-1.47-10.275-1.377" opacity=".99" style="mix-blend-mode:overlay" transform="translate(470.026 719.9)scale(5.42111)"/><path fill="url(#B)" d="M275.418 59.072c-14.861 9.936-26.61 21.536-36.672 32.803-1.715 1.92-17.404-10.592-48.752-10.785h-.002c-31.347.193-47.036 12.706-48.752 10.785-8.695-9.735-18.648-19.72-30.781-28.664a148.23 148.23 0 0 0-59.904 92.566q.813 1.17 1.658 2.33c3.603 4.957 5.725 6.325 2.748 11.96a236 236 0 0 0-7.166 14.746 148.233 148.233 0 0 0 148.232 147.671 148.23 148.23 0 0 0 145.707-120.986c-3.479-12.957-8.96-26.768-16.709-41.432-2.977-5.634-.855-7.002 2.748-11.959a142.5 142.5 0 0 0 10.262-16.363 148.23 148.23 0 0 0-62.617-82.672" opacity=".99" style="mix-blend-mode:overlay" transform="translate(470.026 719.9)scale(5.42111)"/><path fill="url(#C)" d="M338.037 48.94a151 151 0 0 1 18.6 1.152c1.827 10.36 3.413 63.614-28.864 108.015-3.603 4.957-5.725 6.325-2.748 11.96 45.08 85.312 13.448 141.75-42.966 169.312a150.615 150.615 0 0 1-94.637-139.826 150.62 150.62 0 0 1 46.547-108.877c2.716 1.142 4.296 1.738 4.777 1.199 6.37-7.132 13.416-14.398 21.498-21.291a150.6 150.6 0 0 1 77.793-21.645" opacity=".99" transform="translate(470.026 719.9)scale(5.42111)"/><path fill="url(#D)" d="M342.383 34.611c2.733.093 4.87.73 6.703 1.875 3.664 2.293 6.106 6.629 7.45 13.073 1.857 8.91 4.114 63.322-28.763 108.548-3.603 4.957-5.725 6.325-2.748 11.96a233 233 0 0 1 7.954 16.548A142.04 142.04 0 0 1 207.73 82.602c19.599 3.311 29.661 10.79 31.015 9.273C259.07 69.119 286.27 45 332.107 35.988c4.255-.836 7.543-1.47 10.276-1.377" opacity=".99" style="mix-blend-mode:overlay" transform="translate(470.026 719.9)scale(5.42111)"/><path fill="url(#E)" d="M41.95 48.94a151 151 0 0 0-18.6 1.152c-1.827 10.36-3.413 63.614 28.863 108.015 3.603 4.957 5.725 6.325 2.748 11.96-45.079 85.312-13.448 141.75 42.967 169.312a150.615 150.615 0 0 0 94.636-139.826 150.62 150.62 0 0 0-46.546-108.877c-2.717 1.142-4.297 1.738-4.778 1.199-6.37-7.132-13.415-14.398-21.498-21.291A150.6 150.6 0 0 0 41.95 48.939" opacity=".99" transform="translate(470.026 719.9)scale(5.42111)"/><path fill="url(#F)" d="M37.604 34.611c-2.733.093-4.872.73-6.704 1.875-3.664 2.293-6.105 6.629-7.449 13.073-1.858 8.91-4.114 63.322 28.762 108.548 3.603 4.957 5.725 6.325 2.748 11.96-8.793 16.64-14.667 32.181-18.008 46.624A266.45 266.45 0 0 0 192 266.45a266.45 266.45 0 0 0 151.576-47.314c-3.228-15.13-9.26-31.486-18.55-49.069-2.978-5.634-.856-7.002 2.747-11.959 32.877-45.226 30.62-99.637 28.762-108.548-1.343-6.444-3.785-10.78-7.45-13.073-1.831-1.146-3.97-1.782-6.702-1.875-2.733-.093-6.021.54-10.276 1.377C286.27 45 259.07 69.12 238.747 91.875c-1.716 1.92-17.405-10.592-48.753-10.785h-.002c-31.347.193-47.036 12.706-48.752 10.785C120.916 69.119 93.716 45 47.88 35.988c-4.255-.836-7.543-1.47-10.275-1.377" opacity=".99" transform="translate(470.026 719.9)scale(5.42111)"/><path fill="url(#G)" d="M25.598 42.865q-.032.061-.06.121c-.362.783-.68 1.64-.981 2.534a35 35 0 0 0-1.106 4.039c-1.858 8.91-4.114 63.322 28.762 108.548 2.392 3.292 4.133 5.002 4.16 7.428 20.518-30.52 58.055-56.793 58.055-56.793-12.778-19.288-50.025-67.374-88.83-65.877m328.79 0c-38.805-1.497-76.052 46.589-88.83 65.877 0 0 37.537 26.272 58.055 56.793.027-2.426 1.768-4.136 4.16-7.428 32.877-45.226 30.62-99.637 28.762-108.548a35 35 0 0 0-1.105-4.04 26 26 0 0 0-.98-2.533l-.061-.12" transform="translate(470.026 719.9)scale(5.42111)"/><path fill="#9c9ca5" d="M725.995 973.483c-51.544 63.996-93.894 134.606-125.26 210.198 15.574 114.646 56.303 261.217 152.343 393.334 12.968 17.847 22.406 27.117 22.552 40.268 111.23-165.452 314.723-307.88 314.723-307.88-56.217-84.857-199.8-272.536-364.358-335.92m1548.014 0c-164.563 63.384-308.147 251.063-364.358 335.92 0 0 203.486 142.423 314.717 307.88.146-13.151 9.584-22.421 22.551-40.268 96.04-132.112 136.775-278.688 152.345-393.334-31.367-75.592-73.717-146.202-125.255-210.198"/><path fill="#aaaab3" d="M880.052 1068.998c-99.895 77.364-182.377 173.069-241.305 281.453 24.39 74.654 60.755 152.859 114.331 226.564 12.968 17.847 22.406 27.117 22.552 40.268 111.23-165.452 314.723-307.88 314.723-307.88-37.617-56.781-114.348-159.593-210.301-240.405m1239.9 0c-95.954 80.812-172.69 183.624-210.301 240.404 0 0 203.486 142.424 314.717 307.881.146-13.151 9.584-22.421 22.551-40.268 53.583-73.705 89.948-151.91 114.332-226.564-58.928-108.384-141.41-204.089-241.3-281.453"/><path fill="#fefefe" d="M2034.266 1484.45c-7.319 18.258-37.281 23.338-66.788 11.4s-49.365-44.339-42.057-62.602c21.32-53.29 129.532-.418 108.845 51.202" opacity=".99"/><path fill="#9c9ca5" d="M1012.495 1204.742c-127.84 69.12-236.746 164.596-317.85 278.293a775 775 0 0 0 58.433 93.98c12.968 17.847 22.406 27.117 22.552 40.268 111.23-165.452 314.723-307.88 314.723-307.88-17.852-26.944-44.513-64.257-77.858-104.66m975.008 0c-33.34 40.403-60.006 77.716-77.852 104.66 0 0 203.486 142.423 314.717 307.88.146-13.151 9.584-22.421 22.551-40.268a775 775 0 0 0 58.44-93.98c-81.105-113.697-190.015-209.173-317.856-278.293"/><path fill="url(#H)" d="M192 147.035a163.875 163.875 0 0 0-156.875 116.49c11.496 63.724 83.182 95.586 154.867 95.586h.002c74.833 0 149.667-34.724 156.028-104.168A163.875 163.875 0 0 0 192 147.035" transform="translate(470.026 719.9)scale(5.42111)"/><path fill="#b5b6bd" d="M879.889 1961.258c-79.994 8.164-227.383 74.703-227.958 74.963-1.528 69.423 8.891 133.11 29.285 191.067.797-.612 245.197-188.036 243.885-231.936-.466-15.684-10.76-31.134-35.346-33.709a81 81 0 0 0-9.866-.38"/><path fill="#b4b6ba" d="M883.277 2167.174c-4.879-.206-10.284.466-16.209 2.217q-4.445 1.323-9.265 3.415c-46.025 24.775-108.964 83.225-147.48 121.227 26.384 50.205 60.894 95.341 101.889 135.403 44.545-81.859 112.688-215.012 100.399-242.394-4.825-10.734-14.691-19.245-29.328-19.863"/><path fill="#b5b6bd" d="M2120.111 1961.258c79.994 8.164 227.383 74.703 227.958 74.963 1.528 69.423-8.891 133.11-29.285 191.067-.797-.612-245.197-188.036-243.885-231.936.466-15.684 10.76-31.134 35.346-33.709a81 81 0 0 1 9.866-.38"/><path fill="#b4b6ba" d="M2116.723 2167.174c4.879-.206 10.284.466 16.209 2.217q4.445 1.323 9.265 3.415c46.025 24.775 108.964 83.225 147.48 121.227-26.384 50.205-60.894 95.341-101.889 135.403-44.545-81.859-112.688-215.012-100.399-242.394 4.825-10.734 14.691-19.245 29.328-19.863"/><g transform="translate(470.026 -1361.807)scale(5.42111)"><ellipse cx="194.221" cy="484.16" fill="url(#I)" rx="74.189" ry="69.526"/><path fill="url(#J)" d="M194.22 414.635a74.19 69.526 0 0 0-74.189 69.525 74.19 69.526 0 0 0 74.19 69.526 74.19 69.526 0 0 0 74.19-69.526 74.19 69.526 0 0 0-74.19-69.525m0 9.469a61.753 54.874 0 0 1 61.753 54.875 61.753 54.874 0 0 1-61.752 54.875 61.753 54.874 0 0 1-61.752-54.875 61.753 54.874 0 0 1 61.752-54.875"/><path fill="url(#K)" d="M224.525 431.166a61.753 54.874 0 0 1 31.448 47.813 61.753 54.874 0 0 1-61.752 54.875 61.753 54.874 0 0 1-55.912-31.579 77 77 0 0 0-.172 5.147 76.9 76.9 0 0 0 4.937 27.1 74.19 69.526 0 0 0 51.147 19.164 74.19 69.526 0 0 0 74.19-69.526 74.19 69.526 0 0 0-17.204-44.517 76.9 76.9 0 0 0-26.682-8.477" opacity=".99" style="mix-blend-mode:multiply"/><path fill="url(#L)" d="M241.62 430.674a63.4 63.4 0 0 0-10.852 4.072 61.753 54.874 0 0 1 25.205 44.233 61.753 54.874 0 0 1-46.48 53.17 63.4 63.4 0 0 0 17.175 14.535 74.19 69.526 0 0 0 41.742-62.524 74.19 69.526 0 0 0-26.79-53.486" opacity=".99"/><path fill="url(#M)" d="M194.22 414.635a74.19 69.526 0 0 0-73.966 64.146 74.19 69.526 0 0 0 73.967 64.153 74.19 69.526 0 0 0 73.967-64.147 74.19 69.526 0 0 0-73.967-64.152m0 9.469a61.753 54.874 0 0 1 61.753 54.875 61.753 54.874 0 0 1-61.752 54.875 61.753 54.874 0 0 1-61.752-54.875 61.753 54.874 0 0 1 61.752-54.875"/><path fill="url(#N)" fill-opacity=".571" d="M194.22 414.635a74.19 69.526 0 0 0-74.189 69.525 74.19 69.526 0 0 0 .002.361 86.2 86.2 0 0 0 64.131 28.6 86.2 86.2 0 0 0 79.613-53.146 74.19 69.526 0 0 0-69.556-45.34" style="mix-blend-mode:overlay"/><path fill="url(#O)" d="M194.22 414.635a74.19 69.526 0 0 0-74.189 69.525 74.19 69.526 0 0 0 74.19 69.526 74.19 69.526 0 0 0 74.19-69.526 74.19 69.526 0 0 0-74.19-69.525" opacity=".99" style="mix-blend-mode:overlay"/></g><path fill="#2e3545" stroke="#2e3545" stroke-width="18.475" d="M1062.553 1577.135c-51.148-12.154-82.113-5.844-96.918 5.34-14.8 11.178-13.445 27.23.076 34.554 9.768 5.285 25.772 4.38 46.627 5.762 27.517 1.822 92.137 18.21 142.607 54.58 11.341 8.175 28.163 26.77 41.813 27.29 15.342.585 15.05-24.243-21.532-61.48-26.743-27.231-68.073-55.453-112.673-66.046m874.892 0c51.148-12.154 82.119-5.844 96.918 5.34 14.805 11.178 13.445 27.23-.076 34.554-9.769 5.285-25.766 4.38-46.621 5.762-27.523 1.822-92.143 18.21-142.613 54.58-11.341 8.175-28.158 26.77-41.813 27.29-15.342.585-15.05-24.243 21.532-61.48 26.743-27.231 68.079-55.453 112.673-66.046"/><path fill="#8e3e41" d="M1325.882 1787.521q-1.807-.016-3.749.132c-9.64 1.47-18.85 11.27-23.69 25.205-20.301 58.43 84.242 122.155 201.555 66.797 117.31 55.36 221.859-8.366 201.56-66.795-4.841-13.936-14.057-23.736-23.696-25.207-20.721-1.589-29.901 11.213-25.993 24.886 10.17 34.38-30.538 80.543-143.896 36.7-4.663-2.39-11.254-2.403-15.946 0-113.356 43.842-154.063-2.322-143.896-36.7 3.665-12.819-4.182-24.871-22.246-25.017"/><path fill="url(#P)" d="M194.22 30.635a74.19 69.526 0 0 0-59.751 28.314 74.19 69.526 0 0 0 0 .002 74.19 69.526 0 0 0-5.33 7.834 74.19 69.526 0 0 0 0 .002 74.19 69.526 0 0 0-4.17 8.432 184 184 0 0 0-5.23-4.637c-2.124-1.81-4.408-3.557-6.68-5.307-.646-.496-1.235-1.01-1.893-1.501-.245-.184-.46-.38-.707-.563l-.068.049c-.245-.18-.533-.338-.78-.518-2.799-2.039-5.813-3.951-8.853-5.863-2.028-1.275-3.978-2.582-6.121-3.79-3.523-1.983-7.36-3.755-11.22-5.522-1.999-.916-3.845-1.93-5.94-2.78h-.002c-8.94-3.623-18.711-6.659-29.596-8.799-4.255-.836-7.543-1.47-10.276-1.377s-4.87.73-6.703 1.875c-1.829 1.145-3.354 2.798-4.59 4.97a20 20 0 0 0-.712 1.41c-.02.041-.042.078-.061.12v.004l-.002.004a26 26 0 0 0-.97 2.504l-.008.022a35 35 0 0 0-1.106 4.039c-.024.115-.044.4-.068.531l-.034.002c-.08.458-.143 1.347-.22 1.969-.099.792-.196 1.423-.278 2.467v.005c-.079 1.012-.106 2.329-.158 3.56-.05 1.185-.114 2.209-.129 3.583-.034 3.114.415 7.508.647 11.463.203 3.482.157 6.318.652 10.322.081.658.2 1.334.291 2.004-.012.03-.03.056-.043.086.162 1.19.48 2.539.672 3.764.047.297.1.599.149.898.315 1.953.52 3.784.92 5.815.025.13.071.273.097.404v.004c.143.716.347 1.463.5 2.187.404 1.908.943 3.864 1.428 5.825.517 2.092.916 4.109 1.533 6.25.285.987.691 2.006.998 3.002.274.887.423 1.721.715 2.615.631 1.933 1.457 3.907 2.178 5.861.425 1.153.721 2.272 1.18 3.43.17.431.402.864.577 1.297 1.872 4.614 3.937 9.248 6.375 13.869a143 143 0 0 0 9.122 15.006q.783 1.127 1.597 2.246l.059.08v.002l.002.002c1.115 1.534 2.043 2.688 2.767 3.767.12.178.248.36.354.532l.008.011.008.012v.002l.002.002v.002l.003.006c.08.132.161.264.233.395l.035.066.006.012.035.066v.002l.002.002h.002v.002l.047.088q.172.334.3.668c.012.03.029.06.04.09v.002l.002.002v.004c.019.053.031.107.049.16q.065.19.115.383l.002.006v.004a5 5 0 0 1 .127.72v.018c.122 1.323-.277 2.832-1.389 4.936v.002h-.002v.004l-.002.002h-.002v.002c-1.43 2.706-2.588 5.309-3.865 7.957-.352.729-.724 1.466-1.065 2.191-.712 1.518-1.567 3.09-2.23 4.588a214 214 0 0 0-.787 1.803 193 193 0 0 0-5.846 15.26c-.514 1.537-.83 2.992-1.289 4.507-1.023 3.372-2.077 6.758-2.838 10.018-.022.095-.06.196-.082.29l.026.018c-2.702 11.688-3.77 22.667-3.364 32.918a242.47 242.47 0 0 0 135.399 41.327 242.47 242.47 0 0 0 174.103-73.713l-.056-.24c-.155-.678-.326-1.361-.493-2.043-.464-1.907-1.116-3.892-1.67-5.836-.703-2.472-1.275-4.89-2.125-7.422-3.375-10.062-7.921-20.606-13.748-31.633-1.116-2.113-1.515-3.626-1.388-4.953.005-.05.017-.096.023-.145a5 5 0 0 1 .104-.576v-.004l.002-.006c.027-.11.064-.22.1-.33l.015-.053.008-.021c.016-.049.025-.098.043-.147v-.002l.021-.048.004-.01.006-.014v-.002h.002l.002-.002v-.002l.004-.01a7 7 0 0 1 .301-.668l.092-.172.035-.066.014-.024v-.002l.002-.002h.002v-.002q.111-.197.234-.396c.096-.156.214-.321.32-.48l.047-.071c.724-1.077 1.645-2.223 2.756-3.752v-.002c1.452-1.997 2.51-4.073 3.828-6.102 2.216-3.41 4.574-6.797 6.434-10.26v-.001c2.617-4.872 4.834-9.763 6.816-14.631.162-.398.372-.796.53-1.194l.125-.314c.457-1.157.754-2.276 1.18-3.428.72-1.954 1.546-3.928 2.177-5.861.254-.778.383-1.502.623-2.276.283-.909.65-1.837.914-2.74l.176-.601c.563-1.954.922-3.792 1.402-5.705l.192-.77c.422-1.716.923-3.447 1.283-5.123.13-.602.29-1.218.412-1.814l.172-.856c.371-1.866.58-3.56.88-5.361.177-1.056.385-2.139.538-3.17.112-.756.32-1.606.42-2.348l-.016-.033c.047-.343.083-.65.127-.99.048-.365.092-.703.137-1.065.491-3.97.443-6.78.646-10.238.222-3.74.69-8.032.67-11.027-.002-.228-.009-.392-.011-.616-.016-1.333-.084-2.303-.133-3.459-.05-1.194-.072-2.506-.149-3.496-.01-.138-.016-.3-.027-.433-.076-.93-.172-1.412-.262-2.133-.077-.622-.14-1.51-.22-1.969l-.034-.002c-.024-.13-.044-.416-.068-.531v-.002l-.01-.033a35 35 0 0 0-1.096-4.004l-.002-.006v-.002a26 26 0 0 0-.96-2.486c-.092-.199-.193-.379-.288-.57a19 19 0 0 0-.705-1.311 17 17 0 0 0-.396-.623 16 16 0 0 0-.772-1.074q-.209-.27-.427-.526a13 13 0 0 0-.91-.941c-.162-.153-.317-.319-.485-.461q-.105-.088-.21-.172c-.383-.31-.776-.603-1.188-.861-1.833-1.147-3.97-1.782-6.704-1.875-.9-.031-1.887.04-2.921.148-.226.024-.482.053-.715.082-1.938.243-4.1.648-6.639 1.147-2.152.423-3.958 1.119-6.03 1.607l-.01-.309c-3.23.756-6.045 1.832-9.087 2.735-2.846.844-5.806 1.592-8.494 2.554-3.94 1.41-7.547 3.047-11.168 4.682-2.29 1.034-4.728 1.96-6.899 3.074-3.825 1.963-7.311 4.128-10.79 6.301-1.353.844-2.893 1.578-4.196 2.45l-.016-.01c-.04.027-.072.058-.113.085-.208.14-.39.292-.598.432a163 163 0 0 0-13.439 10.149c-.075.063-.167.12-.242.183a74.19 69.526 0 0 0-4.176-6.978 74.19 69.526 0 0 0-.684-.977 74.19 69.526 0 0 0-1.421-1.846 74.19 69.526 0 0 0-2.918-3.69 74.19 69.526 0 0 0-1.772-1.97 74.19 69.526 0 0 0-1.424-1.463 74.19 69.526 0 0 0-1.19-1.277 74.19 69.526 0 0 0-.386-.334 74.19 69.526 0 0 0-.008-.008 74.19 69.526 0 0 0-.414-.426 74.19 69.526 0 0 0-.002 0 74.19 69.526 0 0 0-2.08-1.777 74.19 69.526 0 0 0-1.982-1.693 74.19 69.526 0 0 0-.698-.594 74.19 69.526 0 0 0-.252-.215 74.19 69.526 0 0 0-4.46-3.01 74.19 69.526 0 0 0-3.684-2.482 74.19 69.526 0 0 0-.012-.008 74.19 69.526 0 0 0-5.25-2.629 74.19 69.526 0 0 0-3.87-1.91 74.19 69.526 0 0 0-.005-.002 74.19 69.526 0 0 0-5.775-1.978 74.19 69.526 0 0 0-3.924-1.329 74.19 69.526 0 0 0-.006 0 74.19 69.526 0 0 0-.006-.002 74.19 69.526 0 0 0-6.946-1.388 74.19 69.526 0 0 0-3.148-.623 74.19 69.526 0 0 0-10.313-.678" opacity=".99" style="mix-blend-mode:overlay" transform="translate(470.026 719.9)scale(5.42111)"/><path fill="url(#Q)" d="M342.383 34.611c-.9-.03-1.888.04-2.922.149-.226.023-.482.053-.715.082-1.937.243-4.1.647-6.639 1.146-2.152.423-3.957 1.12-6.029 1.608l-.01-.309c-3.231.755-6.046 1.832-9.088 2.734-2.846.845-5.805 1.593-8.494 2.555-3.94 1.41-7.547 3.047-11.168 4.682q-1.001.448-2.023.88a87.28 87.28 0 0 0-30.346 66.153 87.28 87.28 0 0 0 73.402 86.168c-3.33-9.687-7.738-19.818-13.326-30.393-1.116-2.113-1.515-3.626-1.389-4.953.005-.049.018-.096.024-.144a5 5 0 0 1 .103-.576v-.004l.002-.006c.028-.111.065-.22.1-.33l.016-.053.008-.022c.016-.048.025-.098.043-.146v-.002l.021-.049.004-.01.006-.014v-.002h.002l.002-.002v-.002l.004-.01a7 7 0 0 1 .3-.668l.093-.172.035-.066.014-.023v-.002l.002-.002h.002v-.002q.11-.197.234-.397c.095-.156.214-.32.32-.48l.047-.07c.724-1.077 1.645-2.224 2.756-3.753v-.002c1.452-1.997 2.51-4.073 3.828-6.101 2.216-3.41 4.574-6.797 6.434-10.26v-.002c2.617-4.872 4.833-9.762 6.816-14.63.162-.398.371-.797.53-1.194l.124-.315c.458-1.157.755-2.275 1.18-3.427.721-1.955 1.546-3.929 2.178-5.862.254-.777.383-1.502.623-2.275.282-.91.65-1.838.914-2.74l.176-.602c.563-1.954.922-3.791 1.402-5.705q.097-.385.191-.77c.423-1.715.924-3.447 1.284-5.122.13-.603.29-1.218.412-1.815l.172-.855c.371-1.866.58-3.56.88-5.362.177-1.056.384-2.138.538-3.17.112-.756.319-1.605.42-2.347l-.016-.033c.046-.344.083-.65.127-.99.047-.366.092-.704.137-1.065.49-3.971.443-6.78.646-10.238.221-3.74.69-8.032.67-11.028-.002-.228-.009-.392-.012-.615-.015-1.334-.084-2.304-.132-3.459-.05-1.195-.073-2.507-.149-3.496-.01-.138-.016-.3-.027-.434-.076-.93-.172-1.411-.262-2.133-.077-.621-.14-1.51-.22-1.968l-.034-.002c-.024-.13-.044-.416-.068-.532v-.002l-.01-.033a35 35 0 0 0-1.096-4.004l-.002-.006v-.002a26 26 0 0 0-.96-2.486c-.092-.199-.193-.379-.288-.57a19 19 0 0 0-.705-1.31 17 17 0 0 0-.397-.624 16 16 0 0 0-.771-1.074c-.14-.179-.282-.357-.428-.525-.29-.336-.597-.645-.91-.942-.162-.153-.316-.318-.484-.46q-.105-.088-.211-.173c-.382-.31-.775-.603-1.188-.86-1.832-1.147-3.97-1.783-6.703-1.876z" opacity=".99" style="mix-blend-mode:multiply" transform="translate(470.026 719.9)scale(5.42111)"/><path fill="url(#R)" d="M37.632 34.611c.9-.03 1.888.04 2.922.149.226.023.482.053.715.082 1.938.243 4.1.647 6.639 1.146 2.152.423 3.958 1.12 6.03 1.608l.01-.309c3.23.755 6.045 1.832 9.087 2.734 2.846.845 5.806 1.593 8.494 2.555 3.94 1.41 7.547 3.047 11.168 4.682q1 .448 2.024.88a87.28 87.28 0 0 1 30.345 66.153 87.28 87.28 0 0 1-73.402 86.168c3.33-9.687 7.738-19.818 13.326-30.393 1.117-2.113 1.516-3.626 1.389-4.953-.005-.049-.018-.096-.024-.144a5 5 0 0 0-.103-.576v-.004l-.002-.006c-.028-.111-.065-.22-.1-.33l-.015-.053-.008-.022c-.017-.048-.026-.098-.043-.146v-.002l-.022-.049-.004-.01-.006-.014v-.002h-.002l-.002-.002v-.002l-.004-.01a7 7 0 0 0-.3-.668l-.092-.172-.036-.066-.013-.023v-.002l-.002-.002h-.002v-.002a11 11 0 0 0-.235-.397c-.095-.156-.213-.32-.32-.48l-.047-.07c-.723-1.077-1.645-2.224-2.756-3.753v-.002c-1.452-1.997-2.51-4.073-3.828-6.101-2.216-3.41-4.573-6.797-6.433-10.26v-.002c-2.618-4.872-4.834-9.762-6.817-14.63-.162-.398-.371-.797-.53-1.194l-.124-.315c-.458-1.157-.755-2.275-1.18-3.427-.721-1.955-1.546-3.929-2.178-5.862-.254-.777-.383-1.502-.623-2.275-.282-.91-.65-1.838-.914-2.74l-.176-.602c-.563-1.954-.922-3.791-1.402-5.705l-.191-.77c-.423-1.715-.924-3.447-1.283-5.122-.13-.603-.29-1.218-.413-1.815l-.171-.855c-.372-1.866-.581-3.56-.881-5.362-.176-1.056-.384-2.138-.537-3.17-.113-.756-.32-1.605-.42-2.347l.015-.033c-.046-.344-.083-.65-.127-.99-.047-.366-.092-.704-.136-1.065-.491-3.971-.443-6.78-.647-10.238-.221-3.74-.69-8.032-.67-11.028.002-.228.01-.392.012-.615.015-1.334.084-2.304.133-3.459.05-1.195.072-2.507.148-3.496.01-.138.016-.3.027-.434.077-.93.172-1.411.262-2.133.077-.621.14-1.51.22-1.968l.034-.002c.024-.13.044-.416.068-.532v-.002l.01-.033a35 35 0 0 1 1.096-4.004l.002-.006v-.002c.295-.873.609-1.718.961-2.486.091-.199.192-.379.287-.57.225-.454.458-.896.705-1.31.129-.216.263-.42.397-.624q.37-.564.771-1.074c.14-.179.282-.357.428-.525.29-.336.597-.645.91-.942.162-.153.317-.318.485-.46q.104-.088.21-.173c.382-.31.775-.603 1.188-.86 1.832-1.147 3.97-1.783 6.703-1.876z" opacity=".99" style="mix-blend-mode:multiply" transform="translate(470.026 719.9)scale(5.42111)"/><path fill="url(#S)" d="M1522.918 885.973a402.188 376.906 0 0 0-118.791 17.468 402.188 376.906 0 0 0-86.28 35.205 402.188 376.906 0 0 1 0 .002 402.188 376.906 0 0 0-84.161 62.334 402.188 376.906 0 0 0-11.176 12.399 402.188 376.906 0 0 0-23.51 26.084 402.188 376.906 0 0 0 0 .01 402.188 376.906 0 0 0-28.9 42.478 402.188 376.906 0 0 0-17.38 35.157 402.188 376.906 0 0 0-5.218 10.552 998 998 0 0 0-28.336-25.12c-.046-.04-.1-.075-.146-.114-11.471-9.778-23.806-19.211-36.082-28.662-3.504-2.697-6.705-5.495-10.278-8.16-1.323-.988-2.48-2.049-3.814-3.032l-.367.26c-1.326-.977-2.894-1.826-4.229-2.799-4.662-3.397-8.683-7.086-13.465-10.423-10.775-7.52-23.1-14.177-34.513-21.354-10.987-6.91-21.559-13.99-33.172-20.531-.01-.01-.018-.012-.028-.018l-.074-.037c-16.187-9.115-33.85-17.23-51.338-25.514-.688-.317-1.31-.677-2-.994l-.345-.297a990 990 0 0 1-4.453-1.908l-2.057-.941c-.202-.093-.398-.19-.6-.282-10.807-4.949-20.782-10.423-32.107-15.013-.019-.008-.034-.018-.053-.026h-.008c-7.91-3.205-16.58-5.831-24.752-8.85-2.588-.98-4.843-2.191-7.482-3.136-9.013-3.226-18.831-5.829-28.475-8.565-.602-.192-1.193-.394-1.797-.585-14.63-4.644-28.089-10.154-43.531-14.165-.093-.024-.167-.061-.26-.085v.002a911 911 0 0 0-16.896-4.21q-2.16-.55-4.365-1.066v.033a942 942 0 0 0-28.973-6.279c-.292-.059-.57-.129-.861-.187l-.06-.012h-.001l-.012-.002h-.002l-.002-.002-.01-.002q-1.391-.31-2.818-.59c-5.018-.986-9.738-1.894-14.254-2.727-.178-.033-.383-.076-.56-.109l-.266-.049c-3.867-.723-7.093-1.13-10.647-1.715-3.757-.617-7.832-1.403-11.273-1.824h-.002c-.031-.004-.059-.004-.09-.008h-.002l-.002-.002h-.004c-1.142-.139-2.177-.19-3.287-.304-2.144-.22-4.324-.47-6.354-.588h-.046c-1.139-.066-2.175-.022-3.28-.053-1.899-.053-3.833-.15-5.638-.092l-.002-.002q-1.36.046-2.682.125c-1.75.102-3.33.37-4.99.557-1.51.17-3.097.263-4.537.504-1.742.291-3.336.743-4.983 1.136-1.285.307-2.644.532-3.875.9-1.707.512-3.282 1.189-4.894 1.817-1.047.408-2.162.732-3.172 1.19l-.004.002h-.002c-2.258 1.022-4.4 2.214-6.494 3.48-.278.168-.585.29-.86.461l-.002.002-.045.031-.058.043c-.016.01-.03.024-.045.033a65 65 0 0 0-7.092 5.17c-.702.59-1.335 1.298-2.017 1.92-1.563 1.422-3.131 2.836-4.592 4.432-.76.83-1.444 1.79-2.176 2.666-1.297 1.552-2.608 3.079-3.82 4.78-.723 1.013-1.372 2.157-2.065 3.224l-.023.037-.014.02c-.983 1.516-2.01 2.956-2.934 4.58-1.367 2.403-2.628 5.007-3.865 7.644-.106.226-.223.429-.328.656-.038.083-.065.185-.103.268-4.547 9.913-8.24 21.38-11.036 34.559l-.17.802q-.003.026-.01.053c-.125.652-.23 2.12-.357 2.814l-.182.024h-.002c-.438 2.485-.778 7.302-1.195 10.674-.534 4.296-1.062 7.716-1.504 13.373v.03c-.288 3.672-.415 8.402-.574 12.92-.193 3.509-.448 5.318-.586 9.188-.099 2.715-.034 5.517-.101 8.405-.103 2.675-.261 5.054-.295 8.199-.005.406.085 1.08.084 1.494-.01.423-.022.833-.026 1.324-.024 3.496.601 8.822.783 12.87.023 3.828.192 7.993.276 12.032.126 6.16.007 11.287.29 17.909.118 2.74-.027 4.593.12 7.408.195 3.722-.09 5.947.16 9.797.045.696.24 1.637.287 2.338.4 5.96 1.334 12.67 2.233 19.373a1143.44 1143.44 0 0 0 877.228 410.008 1143.44 1143.44 0 0 0 933.973-483.782 89 89 0 0 0 .043-2.687v-.104c0-1.541-.117-2.487-.125-3.99 0-.322.072-.85.07-1.166-.011-1.237-.048-2.124-.062-3.334-.082-7.23-.456-12.49-.72-18.752-.015-.324-.029-.621-.042-.948-.199-4.567-.175-10.415-.447-14.424v-.11c-.074-1.08-.196-1.49-.274-2.528-.019-.275-.019-.677-.039-.944-.058-.75-.088-1.622-.148-2.35-.413-5.04-.931-7.651-1.418-11.562-.397-3.203-.725-7.712-1.133-10.285v-.002c0-.015-.01-.028-.01-.043l-.059-.353q-.255-1.445-.51-2.682v-.028l-.03-.171v-.022c-.01-.025-.014-.047-.021-.069v-.012c-.025-.118-.06-.218-.084-.336a183 183 0 0 0-1.489-6.492 185 185 0 0 0-1.783-6.63l-.154-.53c-.708-2.425-1.46-4.77-2.229-7.08-.242-.731-.392-1.638-.642-2.355v-.008c-.342-.981-.745-1.85-1.1-2.805-.91-2.45-1.816-4.906-2.817-7.19-.028-.064-.052-.138-.08-.203v-.01c-.223-.508-.486-.945-.714-1.445-.033-.072-.057-.16-.09-.232v-.01c-.024-.052-.051-.096-.074-.147-.01-.017-.013-.04-.021-.057-.106-.227-.224-.43-.33-.656h-.01q-.451-.904-.907-1.8c-.797-1.623-1.55-3.324-2.398-4.854v-.008c-.457-.823-.978-1.532-1.45-2.328v-.006c-.063-.109-.119-.234-.183-.342-.417-.699-.856-1.358-1.289-2.027-.729-1.153-1.407-2.396-2.17-3.489 0-.005-.01-.012-.012-.017-.715-1.023-1.511-1.902-2.256-2.873-.126-.165-.257-.325-.385-.489-.076-.097-.144-.21-.22-.306-.19-.24-.387-.468-.576-.707-.09-.112-.178-.23-.268-.34-.66-.81-1.266-1.713-1.95-2.484 0-.003-.01-.005-.01-.008s-.01-.007-.01-.01c-.011-.014-.026-.024-.038-.038-.972-1.095-2.037-2.032-3.055-3.048-1.042-1.041-2.036-2.163-3.127-3.121 0-.003-.01-.006-.012-.01-.194-.171-.413-.301-.61-.47-.076-.068-.147-.147-.226-.214-.375-.32-.763-.622-1.144-.932-2.07-1.681-4.2-3.27-6.438-4.67-.049-.03-.103-.051-.152-.082-1.577-.98-3.27-1.782-4.936-2.623-1.179-.594-2.34-1.223-3.57-1.748-.059-.025-.111-.059-.17-.084-.21-.088-.395-.21-.605-.297-.584-.239-1.239-.39-1.834-.613-.635-.238-1.305-.432-1.954-.652-1.254-.426-2.47-.907-3.78-1.266-1.737-.475-3.609-.804-5.452-1.16-1.26-.243-2.452-.562-3.766-.75-2.49-.355-5.157-.539-7.857-.691-.776-.044-1.464-.17-2.258-.198v.008c-.049-.002-.105.005-.154.004-.55-.017-1.176.054-1.734.047-3.116-.04-6.285-.007-9.686.256l-.059.006c-1.423.11-3.032.366-4.51.524-1.17.124-2.364.262-3.57.414-1.6.2-3.073.305-4.74.55l-.108.016c-4.126.608-9.311 1.68-13.879 2.512-1.172.213-2.355.419-3.558.644-4.357.817-8.083 1.387-12.875 2.328l-.58.116-.139.027-.11.021-.163.032c-11.59 2.28-21.307 6.032-32.463 8.66l-.104-1.531v-.118.002-.004l-.37.086c-17.477 4.093-32.698 9.918-49.153 14.805-11.51 3.418-24.49 5.698-35.522 9.476l-.02.006c-3.716 1.273-6.731 3.043-10.393 4.354-21.346 7.643-40.898 16.51-60.518 25.373-10.13 4.576-21.57 8.244-31.266 13.11l-.029.013c-.85.427-1.53.96-2.378 1.389-1.319.667-2.389 1.487-3.7 2.16-20.66 10.602-39.484 22.295-58.28 34.03-5.042 3.146-10.723 5.913-15.638 9.13-2.272 1.487-4.983 2.72-7.228 4.22l-.082-.05c-.212.141-.38.304-.592.445-.2.135-.444.245-.645.379-.962.646-1.733 1.385-2.69 2.033-26.365 17.853-51.086 36.567-74.089 55.953a402.188 376.906 0 0 0-21.367-36.129 402.188 376.906 0 0 0-1.746-2.478 402.188 376.906 0 0 0-3.207-4.475 402.188 376.906 0 0 0-.025-.037 402.188 376.906 0 0 0-7.707-10.006 402.188 376.906 0 0 0-11.334-15.18 402.188 376.906 0 0 0-1.404-1.509 402.188 376.906 0 0 0-4.102-4.61 402.188 376.906 0 0 0-22.441-23.908 402.188 376.906 0 0 0-.309-.332 402.188 376.906 0 0 0-.066-.059 402.188 376.906 0 0 0-4.291-4.076 402.188 376.906 0 0 0-.025-.025 402.188 376.906 0 0 0-8.357-7.133 402.188 376.906 0 0 0-2.928-2.504 402.188 376.906 0 0 0-10.748-9.18 402.188 376.906 0 0 0-3.78-3.218 402.188 376.906 0 0 0-1.341-1.143 402.188 376.906 0 0 0-.025-.021 402.188 376.906 0 0 0 0-.002 402.188 376.906 0 0 0-4.188-2.827 402.188 376.906 0 0 0-24.625-16.609 402.188 376.906 0 0 0-11.14-7.508 402.188 376.906 0 0 0-8.909-5.35 402.188 376.906 0 0 0-27.373-13.53 402.188 376.906 0 0 0-17.414-8.596 402.188 376.906 0 0 0-.02-.008 402.188 376.906 0 0 0-3.732-1.39 402.188 376.906 0 0 0-30.662-10.38 402.188 376.906 0 0 0-18.2-6.16 402.188 376.906 0 0 0-.018 0 402.188 376.906 0 0 0-.597-.203 402.188 376.906 0 0 0-2.016-.399 402.188 376.906 0 0 0-35.633-7.046 402.188 376.906 0 0 0-16.517-3.268 402.188 376.906 0 0 0-.03-.002 402.188 376.906 0 0 0-1.335-.127 402.188 376.906 0 0 0-53.762-3.498 402.188 376.906 0 0 0-.773-.05z" opacity=".99" style="mix-blend-mode:overlay"/></svg>