<svg xmlns="http://www.w3.org/2000/svg" xmlns:xlink="http://www.w3.org/1999/xlink" xml:space="preserve" width="2400" height="2900"><defs><radialGradient xlink:href="#a" id="f" cx="510.323" cy="622.365" r="155.01" fx="510.323" fy="622.365" gradientTransform="matrix(1.91408 0 0 1.92605 226.697 263.288)" gradientUnits="userSpaceOnUse"/><radialGradient xlink:href="#b" id="e" cx="501.959" cy="582.047" r="364.236" fx="501.959" fy="582.047" gradientTransform="matrix(1.64338 0 0 1.77924 375.093 343.362)" gradientUnits="userSpaceOnUse"/><radialGradient xlink:href="#c" id="d" cx="484.076" cy="592.366" r="364.236" fx="484.076" fy="592.366" gradientTransform="matrix(1.84105 .01151 -.01305 2.08683 83.466 -220.09)" gradientUnits="userSpaceOnUse"/><linearGradient id="c"><stop offset="0" stop-color="#c3bcdf" stop-opacity=".317"/><stop offset="1" stop-color="#c0b7dc" stop-opacity="0"/></linearGradient><linearGradient id="b"><stop offset="0" stop-color="#c3bcdf" stop-opacity=".558"/><stop offset="1" stop-color="#c0b7dc" stop-opacity="0"/></linearGradient><linearGradient id="a"><stop offset="0" stop-color="#faf3e1"/><stop offset="1" stop-color="#f8ebd1" stop-opacity="0"/></linearGradient></defs><rect width="2400" height="2900" fill="#030514" fill-rule="evenodd" ry="5.592"/><path fill="url(#d)" d="M968.133 191.176C176.758 195.92-188.1 1953.32 1105.387 1800c1174.36-139.2 498.03-1612.634-137.254-1608.824" transform="translate(138.458 317.078)scale(1.06154)"/><path fill="#dedff3" d="M1749.45 800.978c-75.903-.635-283.247 252.894-277.919 288.307 1.397-1.61 55.344 70.737 55.535 70.737 286.034-35.12 318.122-358.24 222.385-359.043z"/><path fill="url(#e)" d="M1174.48 730.906c-633.825 3.801-926.045 1411.33 109.928 1288.534 940.564-111.488 398.882-1291.585-109.927-1288.534"/><path fill="#dedff3" d="M643.71 900.544c-32.432 1.793-45.666 157.793 176.927 271.56 12.026-12.093 25.217-44.172 28.842-46.388-49.526-94.999-183.275-225.044-205.77-225.172"/><path fill="#fff" fill-rule="evenodd" d="M1101.085 933.49a33.5 33.5 0 0 0-7.78.09c-10.268 1.277-21.311 4.748-30.753 9.104-9.444 4.357-17.27 8.876-21.326 15.817-3.387 5.792-3.954 12.558-1.02 18.676 2.938 6.13 9.243 9.872 16.47 11.061 2.402.395 4.27.292 6.672.212 7.023-.233 13.757-1.679 23.363-4.856 11.514-3.807 19.498-7.235 25.223-12.062 5.727-4.825 8.535-11.637 8.565-18.652.013-3.274-.602-6.087-1.67-8.257-3.27-6.651-10.23-10.32-17.744-11.133"/><path fill="#787ce1" d="M1181.067 898.167c-470.239 2.82-687.037 1047.073 81.557 955.97 697.809-82.713 295.931-958.233-81.557-955.97m-84.162 41.053a25 25 0 0 1 2.731.035c8.687.703 16.36 5.75 14.96 15.46-1.045 10.884-8.654 16.568-32.275 24.114-38.309 12.24-40.803-8.163-36.432-16.614 5.909-11.428 36.268-22.455 51.016-22.995"/><circle cx="1214.712" cy="1458.653" r="268.093" fill="#a79fdf" fill-rule="evenodd" style="font-variation-settings:normal;-inkscape-stroke:none"/><path fill="#f0d399" fill-rule="evenodd" d="M1410.767 1430.978a199.974 201.225 0 0 1-199.973 201.225 199.974 201.225 0 0 1-199.974-201.225 199.974 201.225 0 0 1 199.974-201.225 199.974 201.225 0 0 1 199.973 201.225"/><path fill="url(#f)" fill-rule="evenodd" d="M1500.196 1461.994a296.702 298.557 0 0 1-296.7 298.557 296.702 298.557 0 0 1-296.702-298.557 296.702 298.557 0 0 1 296.702-298.557 296.702 298.557 0 0 1 296.7 298.557"/><path fill="#fff" fill-rule="evenodd" d="M901.658 1139.576c-2.906-.217-5.818.147-8.476 1.396-7.301 3.432-11.422 11.421-11.422 20.133 0 11.974 6.374 22.624 16.749 25.199 6.485 1.61 13.448-.746 18.25-5.548 3.214-3.214 5.4-7.128 6.555-11.644 2.684-10.475-3.147-21.745-13.134-27.07a21.5 21.5 0 0 0-8.522-2.466"/><path d="M898.486 1131.238c-20.956 1.138-42.018 35.245-44.984 76.087-1.976 27.231 7.279 49.458 22.171 53.245 48.065 12.23 74.45-132.135 22.813-129.332m1.329 12.33c14.57-.469 27.68 19.496 14.672 33.692-7.78 8.489-20.813 6.636-25.66-3.648-7.237-15.36-.55-29.673 10.988-30.044"/><path fill="#fff" fill-rule="evenodd" d="M1367.726 1063.725c-1.223.05-2.439.229-3.522.532-3.236.903-6.582 2.938-8.944 5.409-3.425 3.579-5.219 8.493-4.962 13.506.286 5.58 2.694 11.01 6.665 15.11 1.819 1.877 3.472 3.14 5.547 4.207 2.225 1.144 4.274 1.75 6.864 2.051 3.572.415 7.681-.705 11.164-2.765 5.445-3.222 8.5-8.497 8.53-14.762.017-3.679-.85-7.128-2.638-10.685-3.238-6.438-8.856-11.189-15.141-12.37a16 16 0 0 0-3.562-.234"/><path d="M1353.36 1055.206c-31.233 17.787-14.927 81.51-6.245 108.582 17.99 40.667 63.246 23.913 63.214-12.929-.026-30.996-20.119-114.454-56.97-95.654m14.884 10.724c14.797-.17 26.47 23.93 12.031 33.39-20.26 13.275-39.893-20.612-18.494-31.717 2.175-1.128 4.35-1.649 6.463-1.673"/><path fill="#aaace5" d="M1147.131 767.044c-.663 4.273-6.87 52.787 50.554 66.9 20.843 5.12 25.413 9.413 32.624 30.64 14.544 42.826 25.473 139.028 32.72 148.007 7.385 9.151 18.908 5.76 22.22-6.54 9.364-34.772-19.434-158.846-23.236-223.804-4.733-91.507-104.99-78.954-114.882-15.203M804.086 801.45c-91.526 7.761-64.378 126.525 5.055 115.522 39.797-6.308 37.799-41.387 56.334-41.166 16.057.19 58.423 42.34 93.34 92.864 14.853 16.498 30.066 58.083 48.93 67.85 10.86 4.896 20.693-3.469 20.723-17.626.052-25.284-56.286-118.041-109.004-165.968-46.7-40.381-92.73-53.4-115.378-51.476"/><path d="M1008.619 1276.03c-2.297.014-4.313.982-6.233 2.84-5.566 5.396 26.807 88.763 118.743 84.515 57.744-2.668 94.36-43.658 115.184-78.455 4.976-8.32 4.003-17.097-2.07-18.657-6.227-1.599-11.845 1.748-18.654 9.923-53.328 64.026-156.407 44.2-185.804 14.265-9.706-9.882-16.113-14.464-21.166-14.431"/><text xml:space="preserve" x="510.163" y="360.817" fill="#fff" fill-rule="evenodd" stroke-width="5.807" font-family="Magic Bubble" font-size="278.722" font-weight="400" style="line-height:1;-inkscape-font-specification:&quot;Magic Bubble&quot;;text-align:start"><tspan x="510.163" y="360.817">To Anthony</tspan></text><text xml:space="preserve" x="1215.762" y="2393.878" fill="#fff" fill-rule="evenodd" stroke-width="4.367" font-family="Magic Bubble" font-size="209.627" font-weight="400" style="line-height:1;-inkscape-font-specification:&quot;Magic Bubble&quot;;text-align:center" text-anchor="middle"><tspan x="1215.762" y="2393.878" style="text-align:center">Thank you, for </tspan><tspan x="1215.762" y="2605.552" style="text-align:center">illuminating my world!</tspan></text></svg>