<svg xmlns="http://www.w3.org/2000/svg" xml:space="preserve" width="1000" height="500" viewBox="0 0 1000 500"><path d="M441.523 125.865c-25.318.482-52.134 8.873-63.67 20.592-4.921 5-8.74 11.103-8.74 13.97 0 3.139-12.672 12.201-20.256 30.743C332.124 232.084 306.19 336.41 301.23 359c-16.177 73.655-20.319 135.148-12.07 179.229 14.751 69.215 58.101 79.843 90.07 77.43 13.605-1.028 20.96-4.902 27.789-14.638 17.091-26.752 21.09-70.41 56.78-80.144 11.568-1.7 34.28-1.96 44.013-2.002 38.938-.166 77.136-.252 115.746-.252s76.808.086 115.746.252c9.733.041 32.444.302 44.011 2.002 35.691 9.735 39.69 53.392 56.782 80.144 6.829 9.736 14.184 13.61 27.789 14.637 31.968 2.414 75.318-8.214 90.07-77.43 8.248-44.08 4.106-105.573-12.07-179.228-4.961-22.589-30.895-126.916-47.63-167.83C890.673 172.628 878 163.566 878 160.428c0-2.868-3.818-8.97-8.74-13.971-11.536-11.719-38.352-20.11-63.67-20.592a113 113 0 0 0-10.711.293c-9.03.689-13.505 2.319-18.065 6.582l-2.687 2.512c-36.819-1.672-90.775-3.048-150.57-3.086-59.796.038-113.752 1.414-150.57 3.086l-2.688-2.512c-4.56-4.263-9.034-5.893-18.065-6.582a113 113 0 0 0-10.71-.293" style="display:inline;fill:#000" transform="translate(-54.52 -79.84)scale(.88929)"/><path d="M401.707 176.863a8.016 8.016 0 0 0-8.036 8.038v21.562a2.83 2.83 0 0 1-2.833 2.833h-21.562a8.016 8.016 0 0 0-8.037 8.035v20.978a8.016 8.016 0 0 0 8.037 8.035h21.562a2.83 2.83 0 0 1 2.833 2.832v21.563a8.016 8.016 0 0 0 8.036 8.037h20.98a8.016 8.016 0 0 0 8.034-8.037v-21.563a2.83 2.83 0 0 1 2.832-2.832h21.566a8.016 8.016 0 0 0 8.033-8.035v-20.978a8.016 8.016 0 0 0-8.034-8.035h-21.566a2.83 2.83 0 0 1-2.833-2.833V184.9a8.016 8.016 0 0 0-8.032-8.036z" style="fill:#dfdfe7;fill-opacity:1;fill-rule:evenodd;stroke:none;stroke-width:3.40796;stroke-miterlimit:7;paint-order:stroke markers fill" transform="translate(-54.52 -79.84)scale(.88929)"/><g transform="translate(55.727 514.619)scale(.81213)"><circle cx="734.791" cy="-482.477" r="22.338" style="font-variation-settings:normal;vector-effect:none;fill:#dfdfe7;fill-opacity:1;fill-rule:evenodd;stroke-width:44.661;stroke-linecap:butt;stroke-linejoin:miter;stroke-miterlimit:4;stroke-dasharray:none;stroke-dashoffset:0;stroke-opacity:1;-inkscape-stroke:none;stop-color:#000"/><circle cx="-821.672" cy="-482.477" r="22.338" style="font-variation-settings:normal;vector-effect:none;fill:#dfdfe7;fill-opacity:1;fill-rule:evenodd;stroke-width:44.661;stroke-linecap:butt;stroke-linejoin:miter;stroke-miterlimit:4;stroke-dasharray:none;stroke-dashoffset:0;stroke-opacity:1;-inkscape-stroke:none;stop-color:#000" transform="scale(-1 1)"/><circle cx="-525.918" cy="-778.231" r="22.338" style="font-variation-settings:normal;vector-effect:none;fill:#dfdfe7;fill-opacity:1;fill-rule:evenodd;stroke-width:44.661;stroke-linecap:butt;stroke-linejoin:miter;stroke-miterlimit:4;stroke-dasharray:none;stroke-dashoffset:0;stroke-opacity:1;-inkscape-stroke:none;stop-color:#000" transform="rotate(90)"/><circle cx="439.037" cy="-778.231" r="22.338" style="font-variation-settings:normal;vector-effect:none;fill:#dfdfe7;fill-opacity:1;fill-rule:evenodd;stroke-width:44.661;stroke-linecap:butt;stroke-linejoin:miter;stroke-miterlimit:4;stroke-dasharray:none;stroke-dashoffset:0;stroke-opacity:1;-inkscape-stroke:none;stop-color:#000" transform="rotate(90)scale(-1 1)"/></g><circle cx="410.665" cy="160.185" r="32.666" style="font-variation-settings:normal;vector-effect:none;fill:#dfdfe7;fill-opacity:1;fill-rule:evenodd;stroke-width:32.2126;stroke-linecap:butt;stroke-linejoin:miter;stroke-miterlimit:4;stroke-dasharray:none;stroke-dashoffset:0;stroke-opacity:1;-inkscape-stroke:none;stop-color:#000"/><circle cx="-589.34" cy="160.185" r="32.666" style="font-variation-settings:normal;vector-effect:none;fill:#dfdfe7;fill-opacity:1;fill-rule:evenodd;stroke-width:32.2126;stroke-linecap:butt;stroke-linejoin:miter;stroke-miterlimit:4;stroke-dasharray:none;stroke-dashoffset:0;stroke-opacity:1;-inkscape-stroke:none;stop-color:#000" transform="scale(-1 1)"/><path d="M699.75 344.239 784 330.312c16.531-2.733 32.01 8.371 34.705 24.897l13.87 85.04c2.695 16.526-8.445 32.03-24.977 34.763l-84.248 13.927c-16.532 2.733-32.011-8.371-34.706-24.897l-13.87-85.04c-2.695-16.526 8.445-32.03 24.977-34.763m-152.389 0-84.248-13.927c-16.532-2.733-32.01 8.371-34.706 24.897l-13.87 85.04c-2.694 16.526 8.445 32.03 24.977 34.763l84.248 13.927c16.532 2.733 32.011-8.371 34.706-24.897l13.87-85.04c2.695-16.526-8.445-32.03-24.977-34.763" style="fill:#dfdfe7;fill-opacity:1;stroke-width:24.7237;stroke-linecap:round" transform="translate(-54.52 -79.84)scale(.88929)"/></svg>