<svg xmlns="http://www.w3.org/2000/svg" xml:space="preserve" width="1000" height="500"><path d="M830.383 56.82c-249.04-.271-341.964 55.39-381.473 60.862-2.713.375-5.398-.348-11-2.97-51.534-24.11-122.36-9.685-157.23 47.5-5.935 7.458-19.285 29.67-21.748 36.186-1.716 4.538-2.78 5.655-9.627 10.102-17.168 11.15-65.417 46.93-93.61 112.5-13.815 32.131-19.709 60.01-21.668 102.5-2.783 60.372-.646-13.664-13.93 190-17.002 261.33-10.486 385.294 23.014 453.813 55.946 112.035 131.028 66.653 157.393 21.681 52.353-89.3 50.536-254.901 76.293-329.994 3.865-11.27 9.845-23 11.723-23 1.977 0 9.647 12.05 15.593 24.5 2.627 5.5 7.284 17.425 10.348 26.5 22.537 69.152 66.132 115.181 137.328 134.08C670.32 950.476 780.922 857.392 780.4 739.5c-.317-71.817-37.204-112.953-65.9-138.357-15.645-13.583-38.862-40.626-43.5-60.49 52.225-25.241 266.546-25.24 318.766 0-4.639 19.864-27.856 46.907-43.5 60.49-28.696 25.404-65.583 66.54-65.9 138.357-.522 117.892 110.08 210.976 228.61 181.58 71.197-18.899 114.791-64.928 137.329-134.08 3.064-9.075 7.72-21 10.347-26.5 5.947-12.45 13.617-24.5 15.594-24.5 1.878 0 7.857 11.73 11.723 23 25.757 75.093 23.94 240.693 76.293 329.994 26.365 44.972 101.447 90.354 157.392-21.682 33.5-68.518 40.016-192.482 23.014-453.812-13.283-203.664-11.146-129.628-13.93-190-1.959-42.49-7.852-70.369-21.668-102.5-24.97-58.074-65.673-92.781-86.58-107.703 1.45-2.875 3.047-5.771 3.948-8.87 3.111-14.415-34.265-36.929-44.508-45.628-32.336-49.404-92.321-64.944-140.897-49.606-33.68-4.201-39.426-1.117-45.386 3.471-48.64-15.052-147.373-56.077-361.264-55.844" style="fill:#000" transform="translate(165.048 9.152)scale(.40337)"/><g transform="translate(165.048 9.152)scale(.40337)"><path d="M567.504 638.887a15.03 15.03 0 0 0-15.068 15.071v40.43a5.306 5.306 0 0 1-5.312 5.311h-40.43a15.03 15.03 0 0 0-15.069 15.066V754.1a15.03 15.03 0 0 0 15.07 15.065h40.43a5.306 5.306 0 0 1 5.311 5.31v40.432a15.03 15.03 0 0 0 15.068 15.07h39.338a15.03 15.03 0 0 0 15.064-15.07v-40.431a5.306 5.306 0 0 1 5.31-5.31h40.437a15.03 15.03 0 0 0 15.062-15.066v-39.335a15.03 15.03 0 0 0-15.064-15.066h-40.437a5.306 5.306 0 0 1-5.312-5.312v-40.43a15.03 15.03 0 0 0-15.06-15.068z" style="fill:#dfdfe7;fill-opacity:1;fill-rule:evenodd;stroke:none;stroke-width:6.39003;stroke-miterlimit:7;paint-order:stroke markers fill"/><circle cx="417.115" cy="-1263.955" r="88.643" style="font-variation-settings:normal;vector-effect:none;fill:#dfdfe7;fill-opacity:1;fill-rule:evenodd;stroke-width:177.227;stroke-linecap:butt;stroke-linejoin:miter;stroke-miterlimit:4;stroke-dasharray:none;stroke-dashoffset:0;stroke-opacity:1;-inkscape-stroke:none;stop-color:#000" transform="rotate(90)"/><circle cx="1101.875" cy="499.105" r="55.729" style="font-variation-settings:normal;vector-effect:none;fill:#dfdfe7;fill-opacity:1;fill-rule:evenodd;stroke-width:111.419;stroke-linecap:butt;stroke-linejoin:miter;stroke-miterlimit:4;stroke-dasharray:none;stroke-dashoffset:0;stroke-opacity:1;-inkscape-stroke:none;stop-color:#000"/><circle cx="1062.691" cy="734.432" r="114.017" style="font-variation-settings:normal;vector-effect:none;fill:#dfdfe7;fill-opacity:1;fill-rule:evenodd;stroke-width:112.433;stroke-linecap:butt;stroke-linejoin:miter;stroke-miterlimit:4;stroke-dasharray:none;stroke-dashoffset:0;stroke-opacity:1;-inkscape-stroke:none;stop-color:#000"/><circle cx="389.969" cy="417.115" r="114.017" style="font-variation-settings:normal;vector-effect:none;fill:#dfdfe7;fill-opacity:1;fill-rule:evenodd;stroke-width:112.433;stroke-linecap:butt;stroke-linejoin:miter;stroke-miterlimit:4;stroke-dasharray:none;stroke-dashoffset:0;stroke-opacity:1;-inkscape-stroke:none;stop-color:#000"/><path d="M1727.393 1437.137c-24.694 6.865-65.726 24.913-53.202 65.555 6.905 22.41 32.412 34.798 54.75 27.66 21.374-6.828 45.406-6.792 66.668 0 22.337 7.138 47.844-5.25 54.75-27.66 12.522-40.638-28.499-58.688-53.19-65.552s-45.082-6.868-69.776 0z" style="baseline-shift:baseline;clip-rule:evenodd;display:inline;overflow:visible;vector-effect:none;fill:#dfdfe7;fill-opacity:1;fill-rule:evenodd;image-rendering:optimizeQuality;shape-rendering:geometricPrecision;text-rendering:geometricPrecision;stop-color:#000" transform="matrix(.22807 .8647 -.85115 .2317 2283.914 -1485.188)"/><path d="M1148.799 301.023c11.503 17.277 36.518 21.516 53.957 10.002 16.689-11.015 37.367-16.871 57.34-16.33 20.984.57 39.846-16.164 40.22-36.824.68-37.465-39.083-42.695-62.023-42.458-22.939.237-40.478 5.228-60.013 17.089-19.536 11.86-50.344 37.188-29.481 68.521" style="baseline-shift:baseline;clip-rule:evenodd;display:inline;overflow:visible;vector-effect:none;fill:#dfdfe7;fill-opacity:1;fill-rule:evenodd;stroke-width:.888165;image-rendering:optimizeQuality;shape-rendering:geometricPrecision;text-rendering:geometricPrecision;stop-color:#000"/></g></svg>