<svg xmlns="http://www.w3.org/2000/svg" xmlns:xlink="http://www.w3.org/1999/xlink" xml:space="preserve" width="3000" height="3600"><defs><linearGradient id="w"><stop offset="0" style="stop-color:#bffafc;stop-opacity:1"/><stop offset="1" style="stop-color:#42f1f6;stop-opacity:1"/></linearGradient><linearGradient id="D"><stop offset="0" style="stop-color:#fde5c1;stop-opacity:1"/><stop offset="1" style="stop-color:#fde5c1;stop-opacity:0"/></linearGradient><linearGradient id="C"><stop offset="0" style="stop-color:#fef7ec;stop-opacity:.65230316"/><stop offset="1" style="stop-color:#fef7ec;stop-opacity:0"/></linearGradient><linearGradient id="A"><stop offset="0" style="stop-color:#fee7c7;stop-opacity:.56788212"/><stop offset="1" style="stop-color:#fee7c7;stop-opacity:0"/></linearGradient><linearGradient id="v"><stop offset="0" style="stop-color:#fccc8b;stop-opacity:1"/><stop offset="1" style="stop-color:#fccc8b;stop-opacity:0"/></linearGradient><linearGradient id="t"><stop offset="0" style="stop-color:#fccc8b;stop-opacity:.65102363"/><stop offset="1" style="stop-color:#fccc8b;stop-opacity:0"/></linearGradient><linearGradient id="s"><stop offset="0" style="stop-color:#fccc8b;stop-opacity:1"/><stop offset="1" style="stop-color:#fccc8b;stop-opacity:0"/></linearGradient><linearGradient id="z"><stop offset="0" style="stop-color:#fee7c7;stop-opacity:1"/><stop offset="1" style="stop-color:#fee7c7;stop-opacity:0"/></linearGradient><linearGradient id="q"><stop offset="0" style="stop-color:#fccc8b;stop-opacity:1"/><stop offset="1" style="stop-color:#fccc8b;stop-opacity:0"/></linearGradient><linearGradient id="p"><stop offset="0" style="stop-color:#fccc8b;stop-opacity:1"/><stop offset="1" style="stop-color:#fccc8b;stop-opacity:0"/></linearGradient><linearGradient id="y"><stop offset="0" style="stop-color:#d4b7a3;stop-opacity:.50061172"/><stop offset="1" style="stop-color:#d4b7a3;stop-opacity:0"/></linearGradient><linearGradient id="n"><stop offset="0" style="stop-color:#8d6244;stop-opacity:1"/><stop offset="1" style="stop-color:#8d6244;stop-opacity:0"/></linearGradient><linearGradient id="m"><stop offset="0" style="stop-color:#8e6245;stop-opacity:1"/><stop offset="1" style="stop-color:#8e6245;stop-opacity:0"/></linearGradient><linearGradient id="x"><stop offset="0" style="stop-color:#d4b7a3;stop-opacity:.18784341"/><stop offset="1" style="stop-color:#d4b7a3;stop-opacity:0"/></linearGradient><linearGradient id="l"><stop offset="0" style="stop-color:#4a280c;stop-opacity:1"/><stop offset="1" style="stop-color:#4a280c;stop-opacity:0"/></linearGradient><linearGradient id="k"><stop offset="0" style="stop-color:#4a280c;stop-opacity:1"/><stop offset="1" style="stop-color:#4a280c;stop-opacity:0"/></linearGradient><linearGradient id="j"><stop offset="0" style="stop-color:#4a280c;stop-opacity:1"/><stop offset="1" style="stop-color:#4a280c;stop-opacity:0"/></linearGradient><linearGradient id="i"><stop offset="0" style="stop-color:#4a280c;stop-opacity:1"/><stop offset="1" style="stop-color:#e18b44;stop-opacity:1"/></linearGradient><linearGradient id="h"><stop offset="0" style="stop-color:#4a280c;stop-opacity:1"/><stop offset="1" style="stop-color:#804515;stop-opacity:1"/></linearGradient><linearGradient id="g"><stop offset="0" style="stop-color:#fba2b7;stop-opacity:1"/><stop offset="1" style="stop-color:#f73c68;stop-opacity:1"/></linearGradient><linearGradient id="f"><stop offset="0" style="stop-color:#8d6243;stop-opacity:1"/><stop offset="1" style="stop-color:#8d6243;stop-opacity:0"/></linearGradient><linearGradient id="e"><stop offset="0" style="stop-color:#d3b5a1;stop-opacity:1"/><stop offset="1" style="stop-color:#d3b5a1;stop-opacity:0"/></linearGradient><linearGradient id="d"><stop offset="0" style="stop-color:#7c553a;stop-opacity:1"/><stop offset="1" style="stop-color:#7c553a;stop-opacity:0"/></linearGradient><linearGradient id="c"><stop offset="0" style="stop-color:#fccc8b;stop-opacity:1"/><stop offset="1" style="stop-color:#fccc8b;stop-opacity:0"/></linearGradient><linearGradient id="b"><stop offset="0" style="stop-color:#fccc8b;stop-opacity:1"/><stop offset="1" style="stop-color:#fccc8b;stop-opacity:0"/></linearGradient><linearGradient id="a"><stop offset="0" style="stop-color:#fccc8b;stop-opacity:1"/><stop offset="1" style="stop-color:#fccc8b;stop-opacity:0"/></linearGradient><linearGradient xlink:href="#a" id="T" x1="152.952" x2="252.978" y1="684.923" y2="755.852" gradientUnits="userSpaceOnUse"/><linearGradient xlink:href="#b" id="U" x1="336.641" x2="311.711" y1="966.613" y2="848.932" gradientUnits="userSpaceOnUse"/><linearGradient xlink:href="#c" id="V" x1="488.268" x2="372.148" y1="718.033" y2="770.924" gradientUnits="userSpaceOnUse"/><linearGradient xlink:href="#d" id="ab" x1="395.969" x2="372.244" y1="728.297" y2="715.884" gradientUnits="userSpaceOnUse"/><linearGradient xlink:href="#e" id="aa" x1="377.58" x2="372.18" y1="687.441" y2="714.69" gradientUnits="userSpaceOnUse"/><linearGradient xlink:href="#f" id="ac" x1="343.666" x2="352.549" y1="702.496" y2="709.598" gradientUnits="userSpaceOnUse"/><linearGradient xlink:href="#e" id="W" x1="382.962" x2="367.799" y1="687.264" y2="710.235" gradientUnits="userSpaceOnUse"/><linearGradient xlink:href="#d" id="X" x1="395.969" x2="372.244" y1="728.297" y2="715.884" gradientUnits="userSpaceOnUse"/><linearGradient xlink:href="#f" id="Y" x1="343.666" x2="352.549" y1="702.496" y2="709.598" gradientUnits="userSpaceOnUse"/><linearGradient xlink:href="#g" id="ad" x1="264.837" x2="272.024" y1="1775.339" y2="1786.404" gradientUnits="userSpaceOnUse"/><linearGradient xlink:href="#h" id="ae" x1="339.168" x2="334.558" y1="1805.549" y2="1788.738" gradientUnits="userSpaceOnUse"/><linearGradient xlink:href="#i" id="af" x1="365.887" x2="366.123" y1="755.43" y2="734.073" gradientUnits="userSpaceOnUse"/><linearGradient xlink:href="#j" id="ag" x1="345.827" x2="346.791" y1="803.401" y2="772.165" gradientUnits="userSpaceOnUse"/><linearGradient xlink:href="#k" id="ah" x1="342.439" x2="341.432" y1="733.113" y2="754.354" gradientUnits="userSpaceOnUse"/><linearGradient xlink:href="#l" id="ai" x1="383.984" x2="351.354" y1="768.034" y2="765.433" gradientUnits="userSpaceOnUse"/><linearGradient xlink:href="#m" id="ak" x1="344.78" x2="354.677" y1="729.466" y2="718.035" gradientUnits="userSpaceOnUse"/><linearGradient xlink:href="#n" id="Z" x1="346.325" x2="355.375" y1="735.485" y2="719.234" gradientUnits="userSpaceOnUse"/><linearGradient xlink:href="#p" id="S" x1="181.726" x2="194.067" y1="747.928" y2="734.123" gradientUnits="userSpaceOnUse"/><linearGradient xlink:href="#q" id="am" x1="219.842" x2="208.569" y1="691.76" y2="709.061" gradientUnits="userSpaceOnUse"/><linearGradient xlink:href="#s" id="R" x1="228.053" x2="219.933" y1="710.664" y2="714.351" gradientUnits="userSpaceOnUse"/><linearGradient xlink:href="#t" id="P" x1="329.203" x2="331.963" y1="894.062" y2="903.06" gradientUnits="userSpaceOnUse"/><linearGradient xlink:href="#v" id="Q" x1="340.47" x2="336.712" y1="923.528" y2="909.26" gradientUnits="userSpaceOnUse"/><linearGradient xlink:href="#t" id="M" x1="329.203" x2="331.963" y1="894.062" y2="903.06" gradientUnits="userSpaceOnUse"/><linearGradient xlink:href="#v" id="N" x1="340.47" x2="336.712" y1="923.528" y2="909.26" gradientUnits="userSpaceOnUse"/><linearGradient xlink:href="#t" id="J" x1="329.203" x2="331.963" y1="894.062" y2="903.06" gradientUnits="userSpaceOnUse"/><linearGradient xlink:href="#v" id="K" x1="340.47" x2="336.712" y1="923.528" y2="909.26" gradientUnits="userSpaceOnUse"/><linearGradient xlink:href="#t" id="G" x1="329.203" x2="331.963" y1="894.062" y2="903.06" gradientUnits="userSpaceOnUse"/><linearGradient xlink:href="#v" id="H" x1="340.47" x2="336.712" y1="923.528" y2="909.26" gradientUnits="userSpaceOnUse"/><linearGradient xlink:href="#w" id="E" x1="1500" x2="1500" y1="1208.152" y2="3600" gradientUnits="userSpaceOnUse"/><radialGradient xlink:href="#x" id="aj" cx="339.675" cy="766.852" r="32.778" fx="339.675" fy="766.852" gradientUnits="userSpaceOnUse"/><radialGradient xlink:href="#y" id="al" cx="376.831" cy="715.334" r="17.25" fx="376.831" fy="715.334" gradientTransform="translate(-92.388 -183.792)scale(1.25693)" gradientUnits="userSpaceOnUse"/><radialGradient xlink:href="#z" id="an" cx="213.75" cy="730.17" r="17.562" fx="213.75" fy="730.17" gradientTransform="matrix(1 0 0 .55316 0 321.015)" gradientUnits="userSpaceOnUse"/><radialGradient xlink:href="#A" id="O" cx="329.125" cy="899.157" r="11.55" fx="329.125" fy="899.157" gradientTransform="translate(-729.29 -1935.053)scale(3.16727)" gradientUnits="userSpaceOnUse"/><radialGradient xlink:href="#A" id="L" cx="329.125" cy="899.157" r="11.55" fx="329.125" fy="899.157" gradientTransform="translate(-729.29 -1935.053)scale(3.16727)" gradientUnits="userSpaceOnUse"/><radialGradient xlink:href="#A" id="F" cx="329.125" cy="899.157" r="11.55" fx="329.125" fy="899.157" gradientTransform="translate(-729.29 -1935.053)scale(3.16727)" gradientUnits="userSpaceOnUse"/><radialGradient xlink:href="#A" id="I" cx="329.125" cy="899.157" r="11.55" fx="329.125" fy="899.157" gradientTransform="translate(-729.29 -1935.053)scale(3.16727)" gradientUnits="userSpaceOnUse"/><radialGradient xlink:href="#C" id="ao" cx="306.464" cy="785.008" r="286.798" fx="306.464" fy="785.008" gradientTransform="translate(10.43 -129.79)" gradientUnits="userSpaceOnUse"/><radialGradient xlink:href="#D" id="ap" cx="1457.285" cy="1371.623" r="869.665" fx="1457.285" fy="1371.623" gradientTransform="translate(0 -542.337)" gradientUnits="userSpaceOnUse"/></defs><rect width="3000" height="3600" ry=".02" style="fill:url(#E);fill-opacity:1;stroke-width:8.56526;stroke-linecap:round;stroke-linejoin:round"/><ellipse cx="1500" cy="2457.804" rx="392.119" ry="98.03" style="fill:#0adbe2;fill-opacity:1;stroke-width:3.76722;stroke-linecap:round;stroke-linejoin:round"/><path d="M912.391 473.768q2.494 3.135 3.916 8.75.528 1.967 1.103 5.038.495 2.927.782 6.158.287 3.23.35 6.397.128 2.943-.224 5.022-.529 3.119-2.801 6.829-1.808 2.51-3.232 3.678l-2.447 1.359q-1.44.799-3.759 1.71l-6.942 3.101-10.813 3.932q-7.981 2.925-15.723 6.282-7.678 3.133-15.02 7.21-3.167 1.758-2.847 2.334.16.288 2.175.864 1.92.065 3.726 2.64.72 1.296 1.23 2.895.656 1.52.816 3.503.399 2.415 1.198 5.55.719 2.991 1.614 6.638l1.949 7.581q.975 3.791 1.965 7.95 1.135 4.079 2.11 7.87l1.95 7.58q1.118 3.712 1.837 6.703.863 2.91 1.55 5.166l-.288.16 1.39 4.878q2.91 9.31 6.09 18.09 3.325 8.702 6.857 17.1 7.274 16.49 14.964 28.983 2.142 3.52 4.109 6.383 1.966 2.863 4.205 5.199 2.158 2.192 4.973 4.207 2.734 1.872 6.572 3.696 2.687.769 4.126 1.665 2.127 1.456 2.287 1.744.88 1.583-1.249 5.213-3.055 4.334-7.695 7.851-4.494 3.438-9.101 5.996-4.463 2.478-9.406 4.092-4.862 1.758-9.996 2.349-4.91.655-9.884-.162-4.894-.673-9.644-3.121-11.85-6.417-27.23-28.012-1.647-2.287-2.974-3.999-1.264-1.935-2.143-3.519-1.023-1.504-1.822-2.943l-1.68-3.023-1.758-3.168q-.959-1.727-1.854-3.679-6.715-12.092-12.165-25.64-5.387-13.772-10.006-26.84-2.014-5.662-3.948-11.18-2.014-5.663-3.868-11.037-1.934-5.519-3.532-10.093-1.534-4.799-2.67-8.877-4.622 3.885-8.397 6.923t-6.543 5.516q-2.848 2.335-5.407 4.51t-5.04 4.492q-2.335 2.239-3.822 3.63-1.424 1.167-2.064 1.711-2.416 2.095-2.736 3.214-1.983 1.855-4.127 3.422-.992.927-1.856 1.407l-1.44.8q-3.886 2.157-7.853 2.476-3.966.32-7.836-.545-3.807-1.089-7.357-3.073-3.486-2.208-6.412-5.103-5.788-6.015-8.57-14.077-.479-2.559-1.246-4.958-.703-2.623-1.182-5.182 1.762-13.787 8.258-23.797 6.416-10.155 16.254-19.573 12.526-12.04 30.954-25.662l12.925-7.93q6.462-3.965 13.085-7.642 6.622-3.677 13.404-7.066l13.564-6.779q4.27-1.806 11.453-4.475 7.182-2.67 15.69-5.322 8.654-2.733 17.771-4.97t17.194-2.955q8.22-.798 14.618.547 6.461 1.121 9.595 5.408m-146.535 69.875q1.68-.368 1.2-1.232-.336-.943-1.679-1.327-1.487-.305-5.086 1.694-6.527 4.189-13.342 10.233-6.67 5.964-11.71 12.152-5.135 5.677-5.856 9.467-.72 3.79 2.35 4.91 1.504.673 2.991-.718 1.344-1.311 6.192-8.524 1.328-1.679 2.72-3.582 1.312-2.046 2.768-4.173 2.767-4.174 5.103-6.413 3.376-3.757 8.207-7.947 4.623-3.885 6.142-4.54m283.548 3.74q.826 1.62 1.989 4.525 1.316 2.843 3.09 7.277 1.041 2.598 1.868 5.105.918 2.293 1.56 4.342 1.868 6.88 2.268 13.637.338 6.604.127 13.607-.55 4.831-1.312 9.571-.763 4.74-2.902 9.144-5.805 13.853-14.884 22.632-3.73 3.09-8.193 5.232-4.31 2.08-8.744 3.855-4.127 1.653-7.704 2.908-3.486 1.04-6.33 1.47-3.852 1.01-9.233 1.745-5.229.675-10.794.952-5.626.124-10.916-.241-5.351-.518-9.235-1.801-11.254-3.299-18.87-8.586-7.615-5.288-13.978-14.979-2.937-4.677-5.385-9.018-2.295-4.403-3.947-8.53-6.06-15.134-4.414-31.402.09-3.761.64-7.706.64-4.158 1.893-7.675.458-1.07.855-2.294.49-1.437 1.07-3.089 3.94-10.091 10.329-18.502 6.388-8.411 15.498-14.01 1.315-.704 3.608-1.622 2.384-1.132 5.747-2.479 4.8-1.744 8.653-2.754 4.005-1.072 7.736-1.501 3.822-.644 7.888-.676 4.006-.184 9.082.09l-.122-.307q19.845 1.278 31.254 13.383 1.04.825 1.927 1.712 1.468 1.008 1.835 1.039 6.575 1.802 10.551 5.53 4.13 3.669 7.495 9.416m-94.242-4.127q5.869-6.607 2.046-7.737-.856-.367-2.079.123-2.14.857-4.494 3.396-2.2 2.477-4.217 5.413-2.018 2.936-3.607 6.056-1.65 2.966-2.475 4.893-5.04 13.548-.576 14.953 1.254.917 1.682-.674l1.465-6.085q.58-2.538 1.986-5.23 1.345-2.844 2.965-5.443 1.711-2.814 3.606-5.169 1.987-2.57 3.698-4.496m71.223 23.277-2.232.184.306-.123q-3.822.644-7.064-1.251-3.089-1.956-5.536-4.524-.673-.794-1.101-1.865l-.918-2.293q-.613-2.415-.797-5.534-.583-5.442-1.868-8.653-1.286-3.21-3.273-3.301-3.15.551-6.572 6.179-3.332 5.413-4.828 11.866-1.31 12.231.804 25.042 2.052 12.659 6.582 23.971l1.897 4.739q.735 1.834 1.255 2.69.367.918 1.04 1.712.826.734 1.866 1.56 1.957 1.344 3.517 2.138 1.56.795 2.874.978 2.386.641 5.015-.766.856-.52 1.559-.98l1.712-1.04q1.895-1.468 2.782-2.355l-.123-.305q5.197-5.628 6.815-12.662 1.71-7.247 1.585-14.647l.122.306-1.808-12.047zm321.076-192.452q-.012-1.165.012-2.166l.036-2.003q.018-1.002-.127-1.979.018-1.001-.314-2.117t-.525-2.42l-.482-3.257q-.501-2.257-.93-4.024-.452-1.93-.645-3.234-.356-1.279-.525-2.419l-.29-1.955q-.314-2.117-.084-2.817-.012-1.164.663-2.262 1.997-5.623 6.884-6.347 2.117-.314 4.518.163 2.401.476 4.875 1.441 2.636.941 4.832 2.28 2.335 1.153 4.157 2.214 2.431 1.804 3.56 3.8 1.617 1.925 2.262 5.159.567 1.58.881 3.698l.724 4.887q1.268 6.304 1.702 13.73.574 7.24-.012 15.65-.56 8.572-1.562 17.543-1.025 8.808-2.768 18.389l-5.459 29.44q-2.762 15.058-5.736 29.815-2.81 14.732-6.273 29.561-1.411 6.202-3.74 15.203-2.189 8.815-5.145 18.075t-6.569 17.454q-3.613 8.192-7.896 12.989-4.657 4.518-10.19 6.504-5.344 2.123-11.697 3.065-2.093.476-4.211.79-2.093.477-4.398.652-4.772.374-7.077.55-4.355-.188-8.711-.374l-8.386-.422q-4.193-.211-7.432-.73t-6.063-1.599-5.72-2.648q-2.757-1.755-6.123-4.253-5.05-3.746-7.415-6.225-2.715-2.594-6.214-8.235-3.524-5.803-7.005-12.445-3.318-6.667-6.262-13.055-2.806-6.576-4.41-10.666-7.96-21.127-13.124-42.501-5.026-21.562-8.333-43.877-1.756-10.727-2.921-19.71-1.52-10.261-1.274-20.952.223-10.853 1.52-21.2.711-6.43 2.503-11.19 1.954-4.784 6.985-9.026 2.993-2.274 10.461-3.548 4.887-.724 10.081-.495 5.333.042 10.184 1.321 5.013 1.255 9.405 3.933 4.368 2.516 7.487 6.714.447.767 1.153 2.16.681 1.23 1.46 3.113 2.329 4.482 3.915 9.574 1.75 5.068 3.102 9.695.923 2.86 1.683 5.743.9 2.697 1.66 5.58.452 1.93.953 4.187.5 2.256 1.074 5.001.736 2.721 1.333 5.629.598 2.908 1.406 6.117 1.454 6.443 3.072 12.862 1.592 6.256 3.698 12.603l1.14 4.325q3.555 16.12 8.23 33.072 4.677 16.952 10.789 32.36 4.646 11.13 6.257 11.89 1.586.598 5.712-7.504 4.766-10.528 8.132-21.514 3.342-11.149 6.382-22.087 2.22-7.487 3.794-13.713 1.713-6.413 2.732-11.89 1.182-5.503 2.455-11.517 1.412-6.202 3.24-12.965.319-1.213.705-3.101.525-2.075.929-4.965.567-2.914 1.085-6.154.519-3.24 1.291-7.016 1.194-7.668 2.25-15.149 1.194-7.668 2.062-15.287.52-3.24.622-5.918m-133.749 11.83q.036-2.003-.019-3.493.11-1.515-.06-2.655-.314-2.117-.9-2.697-.748-.555-2.123-.85-3.728-.446-4.38 4.145-.313 2.377-.193 7.686.26 5.121.652 13.386 2.258 30.961 5.407 31.993 1.285.808 1.84.06.115-.35.133-1.351.018-1.002-.272-2.957-.253-3.957-.398-9.429-.52-5.75-.713-11.547-.054-5.984.428-11.716.332-3.378.459-5.894.102-2.678.138-4.681zm205.842 105.277q.2-11.196 3.361-21.725 3.162-10.694 8.79-19.897 5.792-9.368 13.72-16.918 8.092-7.55 18.152-12.458 12.37-6.218 25.872-6.176 10.045.031 19.583 3.849 9.704 3.817 18.085 9.113l1.48.828q.998-3.29 2.158-5.757 1.326-2.63 3.142-4.271 1.817-1.641 4.29-2.457 2.637-.815 6.26-.804 2.47.007 3.95.178 1.647.17 2.963.667 1.48.5 2.96 1.327 1.479.828 3.45 2.152l-.493-.001q10.85 5.632 14.78 12.725 3.931 6.6 3.915 11.868 0 1.318-.342 3.787-.172 2.47-.843 6.254-.505 3.786-1.013 8.066t-1.18 9.053q-.51 4.773-1.02 9.712-.509 4.938-1.183 10.04-1.02 10.372-1.044 17.781-.022 7.081.289 12.845.476 5.765 1.45 10.214 1.618 9.062 6.064 9.076 2.635.009 5.439-1.465 2.804-1.638 5.446-3.77 2.806-2.297 5.12-4.76 2.312-2.462 3.8-4.27 5.29-6.57 9.102-14.461 3.812-8.057 5.32-16.286 1.009-6.583 2.334-9.049 1.16-2.137 5.276-2.124 3.129.01 5.099 1.827 1.97 1.818 2.95 4.456 1.145 2.473 1.465 5.438.485 2.966.477 5.436-.015 4.775-1.184 9.876t-3.16 10.2-4.642 9.865q-2.484 4.603-5.131 8.546-7.442 10.186-17.508 16.741-9.9 6.391-22.908 6.35-.823-.001-1.811-.005t-2.14-.172l-3.95-.506q-7.735-1.506-14.805-5.151t-13.146-8.769-10.831-11.56q-4.756-6.437-7.697-13.527l-1.8-3.463q-2.98 5.095-7.115 10.845-3.97 5.586-9.09 10.346-4.954 4.595-10.892 7.705-5.772 2.946-12.194 2.926-9.057-.029-17.612-2.36-8.555-2.333-15.95-6.967-7.396-4.633-12.974-11.238-5.578-6.768-8.679-15.505-2.123-5.606-3.092-11.537-.97-6.095-1.114-12.518zm122.387-65.318q-1.82 2.629-1.828 5.099l.329.33q.658.002 1.649-.818 1.156-.985 2.147-2.134 1.156-1.15 1.82-2.465.827-1.314.829-1.973 0-1.153-1.314-1.157-1.976-.006-3.632 3.118m-59.18 73.09q-.172 2.306-.345 5.104-.173 2.8-.348 6.092l-.022 7.245q.155 2.8.318 3.624.159 1.812 2.128 3.794l.662-.986q.991-.985 1.487-1.642.331-.493.991-.985t1.486-1.313q5.779-4.757 10.246-11.494 4.467-6.738 7.784-14.466 3.318-7.73 5.648-15.79 2.331-8.062 3.836-15.303 1.672-8.228 3.002-12.176.332-.822.498-1.315.167-.659.169-1.317v-1.976q.012-2.14-1.476-2.145-1.482-.005-3.461 1.141-1.98.982-3.96 2.623-1.981 1.475-3.797 3.116l-2.643 2.627q-3.966 4.433-7.769 9.361-3.637 4.764-6.453 10.025h.329q-2.153 4.11-4.143 8.55-1.99 4.276-2.828 8.884-.5 2.139-.836 4.278-.172 2.14-.508 4.445zm-36.403-48.854q0 1.81 1.477 1.816.658.002 2.145-1.476.661-.821 1.983-2.134 1.486-1.313 3.633-3.612 1.818-1.805 3.798-3.28 2.146-1.64 4.456-3.116 3.795-2.458 7.589-4.587 3.794-2.293 7.588-4.422 2.969-1.308 2.971-2.131 0-.988-1.148-1.321-.987-.497-4.939-.51-2.47-.007-5.108 1.137-2.638.98-5.278 2.618-2.64 1.639-4.95 3.607-2.147 1.805-3.799 3.447l-2.643 2.626q-1.652 1.806-3.47 3.941-1.654 2.136-2.978 4.272-1.323 1.972-1.327 3.125m247.063-108.657-.327-.04q6.32-2.884 12.532-2.132 2.452.297 5.786 1.53 3.517 1.09 6.792 2.813 3.458 1.58 6.366 3.59 3.091 1.867 4.835 3.903 5.207 4.943 7.462 12.348t1.385 14.598q-.832 6.866-3.258 13.207-2.243 6.197-4.996 12.499l-4.09 9.125q-2.045 4.563-4.254 9.105-.996 1.373-3.788 8.001-2.957 6.609-6.686 14.119-.425.778-1.966 3.908-1.376 3.151-2.976 6.773-1.58 3.457-2.936 6.445-1.193 3.007-1.253 3.497-.426.778-1.114 2.353-.505 1.432-1.272 3.661-.768 2.23-1.575 4.786t-2 5.563q-1.174 2.843-2.224 6.034-.866 3.046-2.099 6.38-1.07 3.354-1.956 6.564-.866 3.047-1.896 6.073-1.891 7.401-3.218 12.88t-2.109 9.2q-1.38 7.296-.35 9.743 1.13 1.63 3.255 1.887 2.452.297 4.86-.407 2.407-.704 4.71-1.918 2.486-1.357 4.502-2.938 2.036-1.744 3.705-3.2 2.2-1.725 4.621-3.92 2.442-2.358 4.066-4.815 4.086-4.979 7.395-10.384 3.471-5.385 6.8-10.953 7.304-12.386 13.025-11.693 2.452.297 4.34 2.516 4.142 4.15 3.113 12.65-.614 5.069-3.183 11.226-2.55 5.995-6.632 12.301-3.917 6.326-8.979 12.514-4.898 6.208-10.35 11.519-5.454 5.311-11.095 9.438-5.622 3.964-10.68 6.006-15.662 6.065-29.557 4.383-7.52-.91-15.377-4.515t-14.476-9.216q-6.618-5.612-11.221-12.804t-5.471-15.093q-1.131-7.103-.73-14.518.4-7.416 1.27-14.609l.791-6.539q.52-2.922.797-5.211.698-4.394 1.97-8.055.565-1.922.827-2.72.263-.797.46-2.432 2.149-9.526 5.357-19.587t6.908-20.063q3.698-10.002 7.685-19.638 4.169-9.779 8.096-18.924 5.893-13.053 9.968-20.688 3.715-6.019 7.756-11.998 4.041-5.98 8.84-11.37.976-1.21 2.704-3.156t3.784-3.855q2.076-2.07 3.928-3.67 2.036-1.745 3.403-2.077m-1.276 13.28q-4.448 6.595-8.607 13.555-4.16 6.96-7.072 14.57-.872 1.719-.619 3.74.313 1.53 1.536 1.015.733-.574.832-1.392.08-.654 1.927-3.582l4.264-6.45q2.436-3.686 4.833-7.045 2.58-3.502 5.324-6.985 5.978-6.906 6.949-9.443.97-2.536-2.626-2.971-1.471-.179-2.715.5-1.1.862-4.026 4.489m104.846 188.53-.248 1.125q-.213.965-.317 2.965-.068 1.84-.012 3.876t.31 3.947q.29 1.75.79 2.534.823.856 3.86.851 13.415 1.104 24.732-2.808 11.478-3.877 22.163-11.807 2.854-2.237 5.12-4.098t4.263-3.275 3.675-2.9 3.317-2.81q1.516-1.52 2.835-2.915l3.031-3.041q1.516-1.521 3.103-3.363 1.747-1.807 3.726-3.9 1.088-1.11 2.568-2.469 1.516-1.52 3.121-2.684 1.641-1.324 3.462-1.935 1.856-.77 3.464-.416 3.216.709 5.508 4.08 2.327 3.212 1.94 6.499-.62 3.573-6.536 12.049-3.331 5.167-7.27 10.031-3.779 4.9-7.683 9.604-2.281 2.7-4.528 5.24-2.085 2.576-3.974 5.026-2.942 3.398-5.545 6.028-2.407 2.504-5.261 4.741-2.693 2.273-6.03 4.404-3.14 2.005-7.155 4.155-12.83 6.951-26.295 8.366-13.43 1.254-27.58-1.866-6.753-1.49-13.85-5.246-7.061-3.918-12.498-8.32-2.646-1.764-5.437-4.403-2.755-2.8-5.44-5.921-2.523-3.086-4.85-6.297-2.13-3.336-3.85-6.245-4.387-6.869-6.918-14.51-2.495-7.8-3.276-15.729-.504-2.303-.596-4.178-.093-1.875-.06-3.554.194-1.644.53-3.93l1.17-5.307q1.667-7.558 4.745-14.636 3.275-7.203 7.73-13.64 4.49-6.598 10.053-11.947 5.76-5.475 12.362-9.415 11.045-6.501 21.74-8.358 10.857-1.822 23.56.98 16.724 3.687 33.031 15.377 2.415 2.05 4.938 5.136 2.56 2.925 4.69 6.261t3.708 6.888q1.774 3.426 2.583 6.64 1.708 6.784.113 14.02-1.348 6.11-4.429 11.67-3.08 5.56-7.341 10.354-4.1 4.829-9.345 8.73-5.21 3.742-10.813 6.216-10.353 4.125-15.96 5.08-5.159 1.224-14.592-.35zm9.776-29.04q-.532 2.412 1.076 2.766 1.126.249 3.143-.487l.07-.322q4.677-1.329 9.12-3.89 4.64-2.687 8.456-6.23 4.013-3.667 7.131-7.87 3.155-4.363 4.826-8.884.177-.804.194-1.644.177-.804.229-1.804.39-1.769.012-3.876-.088 1.161-2.339.665-1.447-.32-3.232.13-1.696.807-6.512 4.297-3.533 2.257-7.047 5.191-3.513 2.935-6.651 6.459-2.942 3.398-5.346 7.42-2.208 3.898-3.13 8.079m-9.943-51.261q1.178-.753 1.175-2.27.282-2.805-2.291-3.373-2.895-.638-6.572.743-3.641 1.22-7.37 3.602-3.568 2.417-6.725 5.262t-5.046 5.295-3.367 5.328q-1.21 2.431-.886 4.02.485 1.625 1.144.927.59-.376 1.015-2.305.602-2.734 3.492-5.132 3.086-2.523 6.708-4.423 3.82-2.024 7.532-3.566 3.873-1.507 6.212-2.171 4.194-1.436 4.98-1.937m173.137 105.965q4.479-4.9 7.89-12.257 1.655-3.784 2.784-7.053 1.128-3.268 1.42-6.13.087-3.28-1.159-3.71-.622-.214-1.46.193-10.538 1.762-30.643 21.648-1.789 1.647-4.06 4.695t-4.55 6.617q-2.224 3.413-4.136 6.934-1.912 3.52-3.293 6.005-1.273 2.174-2.175 3.779-.747 1.658-1.488 2.796-.27.778-.532 1.035-.317.414-.586 1.192l-5.689 10.927q-4.303 7.921-6.413 10.502-2.165 2.737-4.301 2.87-.419.204-3.537-.35-1.3-.274-2.754-.602-1.299-.275-3.119-.554-1.664-.226-3.118-.555-1.455-.328-3.119-.554-1.454-.328-2.442-.494l-1.556-.538-1.246-.43q-.569-.37-1.347-.64-2.071-1.063-3.21-1.804-2.795-1.488-4.969-2.761-1.964-1.375-3.665-3.008-1.7-1.632-3.085-3.678-1.175-2.148-2.655-4.923-1.11-3.345-1.753-6.528-.643-3.184-1.022-6.625.417-9.786 2.863-19.393 2.656-9.71 5.88-19.049 1.559-4.513 3.428-8.92 2.08-4.508 4.26-8.807 2.982-6.113 5.277-11.244 2.45-5.077 4.421-9.274 2.66-5.179 6.629-11.125t8.663-11.468q4.747-5.677 10.004-10.308 5.467-4.732 10.91-7.381 1.885-.918 4.387-1.1 2.034-.342 4.884.99 1.401.484 3.06 1.23 1.813.801 3.939 1.71 3.107 1.595 6.724 4.237 3.67 2.487 6.762 5.645 3.246 3.211 5.655 6.83 2.408 3.62 2.89 7.27.44 2.764-1.077 8.164-1.51 4.879-3.1 7.465-.526.515-1.805 3.21-1.327 2.329-3.03 5.747-.902 1.605-1.65 3.264-.746 1.658-1.648 3.263-.903 1.604-1.542 2.951-.586 1.192-1.22 2.018.682-.461 1.053-1.03.945-.719 1.573-1.025 5.3-3.744 10.857-7.226 5.713-3.428 11.576-6.281 6.019-2.8 12.134-4.87 6.27-2.015 12.685-2.936 5.062-1.04 6.984-.55 2.34.285 7.01 1.897l9.257 5.984q2.098 3.511 3.658 8.58 1.715 5.121 1.15 9.281-.073 6.769-2.437 13.618-3.117 9.027-7.36 16.272-4.088 7.3-9.866 11.924-5.622 4.679-13.246 6.576-7.57 1.741-17.601.02-2.49-.86-5.035-1.564-2.334-.807-4.879-1.51-4.669-1.613-5.012-3.648-.342-2.034 2.923-5.436m41.88-54.699q-2.04.863-2.254 1.486-.592 1.712 3.376.817 1.771-.085 2.98-1.061.896-1.084-.816-1.676-1.4-.483-3.285.434m-74.616-34.648q1.692-2.377-.643-3.183-1.245-.43-3.763 1.314-2.363 1.797-5.365 4.941-2.792 3.043-6.063 6.966-3.115 3.976-5.865 7.904-2.594 3.982-4.662 7.45-2.015 3.31-2.713 5.334-.806 2.334-.13 2.394.622.215 2.153-1.696.586-1.191 1.38-2.484.85-1.45 1.961-3.156 1.268-1.653 2.38-3.36 1.32-1.808 2.798-3.563 2.535-3.305 5.327-6.348 2.793-3.042 5.998-5.768 5.934-4.571 7.207-6.745m236.692 40.474q-3.714 8.08-10.363 14.266t-13.322 11.637q-2.516 1.924-4.688 3.1-1.953 1.097-3.85 1.675-5.172 1.79-8.06 1.37-2.887-.421-9.446-2.711-4.258-1.776-7.182-3.3-4.294-2.88-8.75-6.197-4.307-3.248-7.683-7.337-1.464-1.941-2.49-4.044t-1.4-4.449q-.27-3.749.038-5.6.158-1.922 3.115-8.355 2.864-7.02 4.482-9.358 3.179-4.156 7.381-8.568 4.271-4.561 9.084-8.33 4.962-3.7 10.41-6.088 5.516-2.54 11.048-2.353 3.91.167 9.103 3.459 4.375 3.098 9.466 7.794t8.883 10.244q3.793 5.55 5.24 11.47 1.597 5.99-1.016 11.675m-38.743-26.505q6.41-4.484 4.83-7.748-.704-1.23-1.452-1.573-2.543-1.17-6.988 2.587-6.249 4.92-10.443 14.048-2.27 4.937-1.522 5.28.898.414 1.654-1.232.482-1.048 2.342-2.73t4.09-3.376q2.228-1.694 4.319-3.089 2.16-1.545 3.17-2.167m-51.817 46.5q3.53-.19 7.121 1.46 5.536 2.544 10.134 7.92 4.666 5.225 7.848 10.13.554 1.161 1.257 2.39.922 1.15 1.706 2.597 3.057 5.573 5.515 10.871l.728 1.966q.392.724.554 1.16.452 2.564-4.183 9.495-2.249 3.316-5.578 7.404-3.11 4.007-7.518 8.868-5.27 5.551-10.39 11.172-5.052 5.47-9.643 11.516l-3.924 6.17-2.386 3.616q-1.043 1.876-2.305 3.833-1.881 3.304-3.463 6.745l-3.094 6.733q-.963 2.095-1.351 3.728l-.3-.137q.093.586.841.93 1.347.619 4.647.142 3.45-.408 7.174-1.414t7.07-2.37q3.493-1.293 5.01-2.227l-.206.449 3.457-2.398q2.184-.808 2.54-1.188l5.86-3.287q2.528-1.557 5.687-4.092l3.446-2.766q1.791-1.532 3.801-3.146 3.883-2.927 7.535-6.142 3.72-3.364 7.373-6.578l1.286-1.221q.793-.542 1.723-1.383 1.792-1.533 2.872-2.305l.093.586 3.32-2.098q1.505-1.302 2.52.433l1.799 3.183-.3-.138q3.78 5.181 1.924 9.22-1.994 4.34-7.252 10.26-5.108 5.988-11.47 11.944-6.293 5.807-12.829 10.958-6.467 5.001-11.247 7.516-3.689 2.11-8.55 4.407-4.711 2.365-9.953 4.306-5.172 1.79-10.437 2.995-5.197 1.055-9.407.751-1.035-.113-2.151-.445t-2.532-.8q-1.265-.401-2.762-1.09l-2.842-1.306q-14.065-6.464-22.511-16.87t-9.622-25.988q-.107-10.017 2.486-20.786 2.662-10.918 6.788-19.895 3.645-7.93 8.543-15.827t10.925-15.095 12.974-13.247q7.098-5.98 14.993-10.144 1.815-.797 3.425-1.144 1.678-.498 3.369-.627zm-4.523 12.6q-2.034.877-4.756 3.25-4.089 3.377-7.842 7.995t-5.954 9.405q-1.582 3.442-1.27 3.947.46.574 2.491-2.66.85-1.06 1.848-2.05 1.068-1.14 2.722-2.374 1.436-1.152 4.17-3.158 2.952-2.086 7.122-5.244 6.778-4.496 7.005-6.567.012-1.99-1.787-2.815-1.795-.825-3.749.27m94.636 137.966-.572 1.001q-.49.858-1.184 2.738-.612 1.736-1.162 3.697-.551 1.96-.878 3.86-.244 1.757.001 2.656.532 1.061 3.432 1.96 12.481 5.04 24.45 4.668 12.111-.29 24.67-4.685 3.39-1.288 6.107-2.392t5.044-1.86 4.37-1.676 4.003-1.697q1.899-1.001 3.573-1.941l3.799-2.003q1.899-1.001 3.961-2.289 2.206-1.206 4.717-2.616 1.369-.735 3.186-1.594 1.899-1.001 3.778-1.635 1.96-.777 3.88-.818 2.002-.185 3.432.632 2.86 1.633 4.046 5.533 1.267 3.758-.08 6.781-1.653 3.228-9.82 9.562-4.717 3.944-9.924 7.417-5.064 3.556-10.19 6.887-2.98 1.9-5.88 3.658-2.757 1.839-5.29 3.616-3.818 2.37-7.085 4.108-3.043 1.676-6.433 2.964-3.247 1.37-7.066 2.412-3.594.982-8.067 1.84-14.316 2.824-27.593.173-13.195-2.793-25.778-9.979-6.006-3.429-11.666-9.126-5.577-5.839-9.46-11.659-2.002-2.47-3.883-5.82-1.798-3.491-3.433-7.27-1.492-3.695-2.76-7.453-1.043-3.82-1.82-7.107-2.147-7.863-2.293-15.91-.064-8.19 1.547-15.993.204-2.348.673-4.166t1-3.412q.673-1.511 1.673-3.595l2.695-4.719q3.837-6.72 8.88-12.563 5.268-5.905 11.434-10.727 6.248-4.965 13.15-8.42 7.127-3.514 14.602-5.314 12.478-2.925 23.242-1.52 10.907 1.488 22.204 7.939 14.872 8.491 26.968 24.5 1.696 2.675 3.189 6.371 1.573 3.553 2.616 7.372t1.494 7.68q.675 3.798.492 7.107-.386 6.985-4.06 13.42-3.102 5.434-7.696 9.827-4.595 4.392-10.088 7.703-5.35 3.392-11.517 5.559-6.086 2.024-12.172 2.72-11.11.862-16.748.108-5.29-.366-13.828-4.673zm17.965-24.82q-1.225 2.144.205 2.96 1.001.572 3.146.47l.163-.287q4.86.121 9.865-1.004 5.228-1.186 9.925-3.434 4.921-2.31 9.148-5.395 4.308-3.229 7.248-7.049.408-.715.674-1.512.408-.715.755-1.654.898-1.573 1.163-3.697-.429 1.082-2.43-.06-1.288-.736-3.126-.837-1.858.266-7.495 2.167-4.044 1.104-8.27 2.862-4.228 1.758-8.271 4.19-3.819 2.37-7.31 5.496-3.267 3.065-5.39 6.783m5.743-51.9q1.347-.369 1.796-1.82 1.102-2.593-1.186-3.9-2.574-1.47-6.495-1.244-3.84.083-8.108 1.249-4.125 1.247-7.985 3.025-3.86 1.779-6.392 3.556t-4.798 4.087q-1.878 1.961-2.041 3.575-.02 1.695.817 1.225.674-.184 1.654-1.9 1.388-2.431 4.86-3.862 3.696-1.492 7.72-2.229 4.247-.798 8.25-1.167 4.146-.287 6.577-.226 4.432-.124 5.33-.37" aria-label="To Valerie" style="font-size:266.667px;line-height:1;font-family:&quot;Magic Bubble&quot;;-inkscape-font-specification:&quot;Magic Bubble&quot;;text-align:center;text-anchor:middle;fill:#51f2f7;fill-opacity:1;stroke-width:10.578;stroke-linecap:round;stroke-linejoin:round"/><path d="M912.391 451.158q2.494 3.135 3.916 8.75.528 1.967 1.103 5.038.495 2.927.782 6.158.287 3.23.35 6.397.128 2.943-.224 5.022-.529 3.119-2.801 6.829-1.808 2.51-3.232 3.678l-2.447 1.359q-1.44.799-3.759 1.71l-6.942 3.101-10.813 3.932q-7.981 2.925-15.723 6.282-7.678 3.133-15.02 7.21-3.167 1.758-2.847 2.334.16.288 2.175.864 1.92.065 3.726 2.64.72 1.296 1.23 2.895.656 1.52.816 3.503.399 2.415 1.198 5.55.719 2.991 1.614 6.638l1.949 7.581q.975 3.791 1.965 7.95 1.135 4.078 2.11 7.87l1.95 7.58q1.118 3.712 1.837 6.703.863 2.91 1.55 5.166l-.288.16 1.39 4.878q2.91 9.31 6.09 18.09 3.325 8.702 6.857 17.1 7.274 16.49 14.964 28.983 2.142 3.52 4.109 6.383 1.966 2.863 4.205 5.199 2.158 2.192 4.973 4.207 2.734 1.872 6.572 3.696 2.687.769 4.126 1.665 2.127 1.456 2.287 1.744.88 1.583-1.249 5.213-3.055 4.334-7.695 7.851-4.494 3.438-9.101 5.996-4.463 2.478-9.406 4.092-4.862 1.758-9.996 2.349-4.91.655-9.884-.162-4.894-.673-9.644-3.121-11.85-6.417-27.23-28.012-1.647-2.287-2.974-3.999-1.264-1.935-2.143-3.519-1.023-1.504-1.822-2.943l-1.68-3.023-1.758-3.168q-.959-1.727-1.854-3.679-6.715-12.092-12.165-25.64-5.387-13.772-10.006-26.84-2.014-5.662-3.948-11.18-2.014-5.663-3.868-11.037-1.934-5.519-3.532-10.093-1.534-4.799-2.67-8.877-4.622 3.885-8.397 6.923t-6.543 5.516q-2.848 2.335-5.407 4.51t-5.04 4.492q-2.335 2.239-3.822 3.63-1.424 1.167-2.064 1.711-2.416 2.095-2.736 3.214-1.983 1.855-4.127 3.422-.992.927-1.856 1.407l-1.44.8q-3.886 2.157-7.853 2.476-3.966.32-7.836-.545-3.807-1.089-7.357-3.073-3.486-2.208-6.412-5.103-5.788-6.015-8.57-14.077-.479-2.559-1.246-4.958-.703-2.623-1.182-5.182 1.762-13.787 8.258-23.797 6.416-10.155 16.254-19.573 12.526-12.04 30.954-25.662l12.925-7.93q6.462-3.965 13.085-7.642 6.622-3.677 13.404-7.066l13.564-6.779q4.27-1.806 11.453-4.475 7.182-2.67 15.69-5.322 8.654-2.733 17.771-4.97t17.194-2.955q8.22-.798 14.618.547 6.461 1.121 9.595 5.408m-146.535 69.875q1.68-.368 1.2-1.232-.336-.943-1.679-1.327-1.487-.305-5.086 1.694-6.527 4.189-13.342 10.233-6.67 5.964-11.71 12.152-5.135 5.677-5.856 9.467-.72 3.79 2.35 4.91 1.504.673 2.991-.718 1.344-1.312 6.192-8.524 1.328-1.679 2.72-3.582 1.312-2.046 2.768-4.173 2.767-4.174 5.103-6.413 3.376-3.757 8.207-7.947 4.623-3.885 6.142-4.54m283.548 3.74q.826 1.62 1.989 4.525 1.316 2.843 3.09 7.277 1.041 2.598 1.868 5.105.918 2.293 1.56 4.342 1.868 6.88 2.268 13.637.338 6.604.127 13.607-.55 4.831-1.312 9.571-.763 4.74-2.902 9.144-5.805 13.853-14.884 22.632-3.73 3.09-8.193 5.232-4.31 2.08-8.744 3.855-4.127 1.653-7.704 2.908-3.486 1.04-6.33 1.47-3.852 1.01-9.233 1.745-5.229.675-10.794.952-5.626.124-10.916-.241-5.351-.518-9.235-1.801-11.254-3.299-18.87-8.586-7.615-5.288-13.978-14.979-2.937-4.677-5.385-9.018-2.295-4.403-3.947-8.53-6.06-15.134-4.414-31.402.09-3.761.64-7.706.64-4.158 1.893-7.675.458-1.07.855-2.294.49-1.437 1.07-3.089 3.94-10.092 10.329-18.502 6.388-8.411 15.498-14.01 1.315-.704 3.608-1.622 2.384-1.132 5.747-2.479 4.8-1.744 8.653-2.754 4.005-1.072 7.736-1.501 3.822-.644 7.888-.676 4.006-.184 9.082.09l-.122-.307q19.845 1.278 31.254 13.383 1.04.825 1.927 1.712 1.468 1.008 1.835 1.039 6.575 1.802 10.551 5.53 4.13 3.669 7.495 9.416m-94.242-4.127q5.869-6.607 2.046-7.737-.856-.367-2.079.123-2.14.857-4.494 3.396-2.2 2.477-4.217 5.413-2.018 2.936-3.607 6.056-1.65 2.966-2.475 4.893-5.04 13.548-.576 14.953 1.254.917 1.682-.674l1.465-6.085q.58-2.538 1.986-5.23 1.345-2.844 2.965-5.443 1.711-2.814 3.606-5.169 1.987-2.57 3.698-4.496m71.223 23.276-2.232.185.306-.123q-3.822.644-7.064-1.251-3.089-1.956-5.536-4.524-.673-.795-1.101-1.865l-.918-2.293q-.613-2.415-.797-5.534-.583-5.443-1.868-8.653t-3.273-3.301q-3.15.551-6.572 6.179-3.332 5.413-4.828 11.866-1.31 12.231.804 25.042 2.052 12.659 6.582 23.971l1.897 4.739q.735 1.834 1.255 2.69.367.918 1.04 1.712.826.734 1.866 1.56 1.957 1.344 3.517 2.138 1.56.795 2.874.978 2.386.641 5.015-.766.856-.52 1.559-.98l1.712-1.04q1.895-1.468 2.782-2.355l-.123-.305q5.197-5.628 6.815-12.662 1.71-7.247 1.585-14.647l.122.306-1.808-12.047zm321.076-192.451q-.012-1.165.012-2.166l.036-2.003q.018-1.002-.127-1.979.018-1.001-.314-2.117t-.525-2.42l-.482-3.257q-.501-2.257-.93-4.024-.452-1.93-.645-3.234-.356-1.279-.525-2.419l-.29-1.955q-.314-2.117-.084-2.817-.012-1.164.663-2.262 1.997-5.623 6.884-6.347 2.117-.314 4.518.162 2.401.477 4.875 1.442 2.636.941 4.832 2.28 2.335 1.153 4.157 2.214 2.431 1.804 3.56 3.8 1.617 1.925 2.262 5.159.567 1.58.881 3.698l.724 4.887q1.268 6.304 1.702 13.73.574 7.24-.012 15.65-.56 8.572-1.562 17.543-1.025 8.808-2.768 18.389l-5.459 29.44q-2.762 15.058-5.736 29.815-2.81 14.732-6.273 29.561-1.411 6.202-3.74 15.203-2.189 8.815-5.145 18.075t-6.569 17.454q-3.613 8.192-7.896 12.989-4.657 4.518-10.19 6.504-5.344 2.123-11.697 3.065-2.093.476-4.211.79-2.093.477-4.398.652-4.772.374-7.077.55l-8.711-.375-8.386-.421q-4.193-.211-7.432-.73t-6.063-1.599-5.72-2.648q-2.757-1.755-6.123-4.253-5.05-3.746-7.415-6.225-2.715-2.594-6.214-8.235-3.524-5.803-7.005-12.446-3.318-6.666-6.262-13.054-2.806-6.576-4.41-10.666-7.96-21.127-13.124-42.501-5.026-21.562-8.333-43.877-1.756-10.727-2.921-19.71-1.52-10.261-1.274-20.952.223-10.853 1.52-21.2.711-6.43 2.503-11.19 1.954-4.785 6.985-9.026 2.993-2.274 10.461-3.548 4.887-.724 10.081-.495 5.333.042 10.184 1.321 5.013 1.255 9.405 3.933 4.368 2.516 7.487 6.714.447.767 1.153 2.16.681 1.23 1.46 3.113 2.329 4.482 3.915 9.574 1.75 5.068 3.102 9.695.923 2.86 1.683 5.743.9 2.697 1.66 5.58.452 1.93.953 4.187.5 2.256 1.074 5.001.736 2.721 1.333 5.629.598 2.908 1.406 6.117 1.454 6.443 3.072 12.862 1.592 6.256 3.698 12.603l1.14 4.325q3.555 16.12 8.23 33.072 4.677 16.952 10.789 32.36 4.646 11.13 6.257 11.89 1.586.598 5.712-7.504 4.766-10.528 8.132-21.514 3.342-11.149 6.382-22.087 2.22-7.487 3.794-13.713 1.713-6.413 2.732-11.89 1.182-5.503 2.455-11.517 1.412-6.202 3.24-12.965.319-1.213.705-3.101.525-2.075.929-4.965.567-2.914 1.085-6.154.519-3.24 1.291-7.016 1.194-7.668 2.25-15.149 1.194-7.668 2.062-15.287.52-3.24.622-5.918m-133.749 11.83q.036-2.003-.019-3.493.11-1.515-.06-2.655-.314-2.117-.9-2.697-.748-.555-2.123-.85-3.728-.446-4.38 4.145-.313 2.377-.193 7.686.26 5.121.652 13.386 2.258 30.961 5.407 31.993 1.285.808 1.84.06.115-.35.133-1.352.018-1.001-.272-2.956-.253-3.957-.398-9.429-.52-5.75-.713-11.547-.054-5.984.428-11.716.332-3.378.459-5.894.102-2.678.138-4.681zm205.842 105.277q.2-11.196 3.361-21.725 3.162-10.694 8.79-19.897 5.792-9.368 13.72-16.918 8.092-7.55 18.152-12.458 12.37-6.218 25.872-6.176 10.045.031 19.583 3.849 9.704 3.817 18.085 9.113l1.48.828q.998-3.29 2.158-5.757 1.326-2.63 3.142-4.271 1.817-1.641 4.29-2.457 2.637-.815 6.26-.804 2.47.007 3.95.177 1.647.17 2.963.668 1.48.5 2.96 1.327 1.479.828 3.45 2.152l-.493-.001q10.85 5.632 14.78 12.725 3.931 6.6 3.915 11.868 0 1.318-.342 3.787-.172 2.47-.843 6.254-.505 3.786-1.013 8.066t-1.18 9.053q-.51 4.773-1.02 9.712-.509 4.938-1.183 10.04-1.02 10.372-1.044 17.781-.022 7.081.289 12.845.476 5.765 1.45 10.214 1.618 9.062 6.064 9.076 2.635.009 5.439-1.465 2.804-1.638 5.446-3.77 2.806-2.297 5.12-4.76 2.312-2.462 3.8-4.27 5.29-6.57 9.102-14.461 3.812-8.057 5.32-16.286 1.009-6.583 2.334-9.049 1.16-2.137 5.276-2.124 3.129.01 5.099 1.827 1.97 1.818 2.95 4.456 1.145 2.473 1.465 5.438.485 2.966.477 5.436-.015 4.775-1.184 9.876t-3.16 10.2-4.642 9.865q-2.484 4.603-5.131 8.546-7.442 10.186-17.508 16.741-9.9 6.391-22.908 6.35-.823-.001-1.811-.005t-2.14-.172l-3.95-.506q-7.735-1.506-14.805-5.151t-13.146-8.769-10.831-11.56q-4.756-6.437-7.697-13.527l-1.8-3.463q-2.98 5.095-7.115 10.845-3.97 5.586-9.09 10.346-4.954 4.595-10.892 7.705-5.772 2.946-12.194 2.926-9.057-.029-17.612-2.36-8.555-2.333-15.95-6.967-7.396-4.633-12.974-11.238-5.578-6.768-8.679-15.505-2.123-5.606-3.092-11.537-.97-6.095-1.114-12.518zm122.387-65.318q-1.82 2.629-1.828 5.099l.329.33q.658.002 1.649-.818 1.156-.985 2.147-2.134 1.156-1.15 1.82-2.465.827-1.314.829-1.973 0-1.153-1.314-1.157-1.976-.006-3.632 3.118m-59.18 73.09q-.172 2.306-.345 5.104-.173 2.8-.348 6.092l-.022 7.245q.155 2.8.318 3.624.159 1.812 2.128 3.794l.662-.986q.991-.985 1.487-1.642.331-.493.991-.985t1.486-1.313q5.779-4.757 10.246-11.494 4.467-6.738 7.784-14.467 3.318-7.728 5.648-15.79 2.331-8.061 3.836-15.302 1.672-8.228 3.002-12.176.332-.822.498-1.315.167-.659.169-1.317v-1.976q.012-2.14-1.476-2.146-1.482-.005-3.461 1.142-1.98.982-3.96 2.623-1.981 1.475-3.797 3.116l-2.643 2.627q-3.966 4.433-7.769 9.361-3.637 4.764-6.453 10.025h.329q-2.153 4.11-4.143 8.55-1.99 4.276-2.828 8.884-.5 2.139-.836 4.278-.172 2.14-.508 4.445zm-36.403-48.854q0 1.81 1.477 1.816.658.002 2.145-1.476.661-.821 1.983-2.134 1.486-1.313 3.633-3.612 1.818-1.805 3.798-3.281 2.146-1.64 4.456-3.115 3.795-2.458 7.589-4.587 3.794-2.293 7.588-4.422 2.969-1.308 2.971-2.131 0-.988-1.148-1.321-.987-.497-4.939-.51-2.47-.007-5.108 1.137-2.638.98-5.278 2.618-2.64 1.639-4.95 3.607-2.147 1.805-3.799 3.447l-2.643 2.626q-1.652 1.806-3.47 3.941-1.654 2.136-2.978 4.272-1.323 1.972-1.327 3.125m247.063-108.657-.327-.04q6.32-2.884 12.532-2.132 2.452.297 5.786 1.53 3.517 1.09 6.792 2.813 3.458 1.58 6.366 3.59 3.091 1.867 4.835 3.903 5.207 4.943 7.462 12.348t1.385 14.598q-.832 6.866-3.258 13.207-2.243 6.197-4.996 12.499l-4.09 9.125q-2.045 4.562-4.254 9.105-.996 1.373-3.788 8-2.957 6.61-6.686 14.12-.425.778-1.966 3.908-1.376 3.151-2.976 6.773-1.58 3.457-2.936 6.445-1.193 3.007-1.253 3.497-.426.778-1.114 2.353-.505 1.432-1.272 3.661-.768 2.23-1.575 4.786t-2 5.563q-1.174 2.843-2.224 6.034-.866 3.046-2.099 6.38-1.07 3.354-1.956 6.564-.866 3.047-1.896 6.073-1.891 7.401-3.218 12.88t-2.109 9.2q-1.38 7.296-.35 9.743 1.13 1.63 3.255 1.887 2.452.297 4.86-.407 2.407-.704 4.71-1.918 2.486-1.357 4.502-2.938 2.036-1.744 3.705-3.2 2.2-1.725 4.621-3.92 2.442-2.358 4.066-4.815 4.086-4.979 7.395-10.384 3.471-5.385 6.8-10.953 7.304-12.386 13.025-11.693 2.452.297 4.34 2.516 4.142 4.15 3.113 12.65-.614 5.069-3.183 11.226-2.55 5.995-6.632 12.301-3.917 6.326-8.979 12.514-4.898 6.208-10.35 11.519-5.454 5.311-11.095 9.438-5.622 3.964-10.68 6.006-15.662 6.065-29.557 4.383-7.52-.91-15.377-4.515t-14.476-9.216q-6.618-5.612-11.221-12.804t-5.471-15.093q-1.131-7.103-.73-14.518.4-7.416 1.27-14.609l.791-6.539q.52-2.922.797-5.211.698-4.394 1.97-8.055.565-1.922.827-2.72.263-.797.46-2.432 2.149-9.526 5.357-19.587t6.908-20.063q3.698-10.002 7.685-19.638 4.169-9.779 8.096-18.924 5.893-13.053 9.968-20.688 3.715-6.019 7.756-11.998 4.041-5.98 8.84-11.37.976-1.21 2.704-3.156t3.784-3.855q2.076-2.07 3.928-3.67 2.036-1.745 3.403-2.077m-1.276 13.28q-4.448 6.595-8.607 13.555-4.16 6.96-7.072 14.57-.872 1.719-.619 3.74.313 1.53 1.536 1.015.733-.574.832-1.392.08-.654 1.927-3.582l4.264-6.45q2.436-3.686 4.833-7.045 2.58-3.502 5.324-6.985 5.978-6.906 6.949-9.443.97-2.536-2.626-2.971-1.471-.179-2.715.5-1.1.862-4.026 4.489m104.846 188.53-.248 1.125q-.213.965-.317 2.965-.068 1.84-.012 3.876t.31 3.946q.29 1.75.79 2.535.823.856 3.86.851 13.415 1.104 24.732-2.808 11.478-3.877 22.163-11.807 2.854-2.237 5.12-4.098t4.263-3.275 3.675-2.9 3.317-2.81q1.516-1.52 2.835-2.915 1.516-1.52 3.031-3.042 1.516-1.52 3.103-3.362 1.747-1.807 3.726-3.9 1.088-1.11 2.568-2.469 1.516-1.52 3.121-2.684 1.641-1.324 3.462-1.935 1.856-.77 3.464-.416 3.216.709 5.508 4.08 2.327 3.212 1.94 6.499-.62 3.573-6.536 12.049-3.331 5.167-7.27 10.031-3.779 4.9-7.683 9.604-2.281 2.7-4.528 5.24-2.085 2.576-3.974 5.026-2.942 3.398-5.545 6.028-2.407 2.504-5.261 4.741-2.693 2.273-6.03 4.404-3.14 2.005-7.155 4.155-12.83 6.951-26.295 8.366-13.43 1.254-27.58-1.866-6.753-1.49-13.85-5.246-7.061-3.918-12.498-8.32-2.646-1.765-5.437-4.403-2.755-2.8-5.44-5.921-2.523-3.086-4.85-6.297-2.13-3.336-3.85-6.245-4.387-6.869-6.918-14.51-2.495-7.8-3.276-15.729-.504-2.303-.596-4.178-.093-1.876-.06-3.554.194-1.644.53-3.93l1.17-5.307q1.667-7.558 4.745-14.636 3.275-7.203 7.73-13.64 4.49-6.598 10.053-11.947 5.76-5.475 12.362-9.415 11.045-6.501 21.74-8.358 10.857-1.822 23.56.98 16.724 3.687 33.031 15.377 2.415 2.05 4.938 5.136 2.56 2.925 4.69 6.261t3.708 6.888q1.774 3.426 2.583 6.64 1.708 6.784.113 14.02-1.348 6.11-4.429 11.67-3.08 5.56-7.341 10.354-4.1 4.829-9.345 8.73-5.21 3.742-10.813 6.216-10.353 4.125-15.96 5.08-5.159 1.224-14.592-.35zm9.776-29.04q-.532 2.412 1.076 2.766 1.126.249 3.143-.487l.07-.322q4.677-1.329 9.12-3.89 4.64-2.687 8.456-6.23 4.013-3.667 7.131-7.87 3.155-4.363 4.826-8.884.177-.804.194-1.644.177-.804.229-1.804.39-1.769.012-3.876-.088 1.161-2.339.665-1.447-.32-3.232.13-1.696.807-6.512 4.297-3.533 2.257-7.047 5.191-3.513 2.935-6.651 6.459-2.942 3.398-5.346 7.42-2.208 3.898-3.13 8.079m-9.943-51.261q1.178-.753 1.175-2.27.282-2.805-2.291-3.373-2.895-.638-6.572.743-3.641 1.22-7.37 3.602-3.568 2.417-6.725 5.262t-5.046 5.295-3.367 5.328q-1.21 2.431-.886 4.02.485 1.625 1.144.927.59-.376 1.015-2.305.602-2.734 3.492-5.132 3.086-2.524 6.708-4.423 3.82-2.024 7.532-3.566 3.873-1.507 6.212-2.171 4.194-1.436 4.98-1.937m173.137 105.965q4.479-4.9 7.89-12.257 1.655-3.784 2.784-7.053 1.128-3.268 1.42-6.13.087-3.28-1.159-3.71-.622-.214-1.46.193-10.538 1.762-30.643 21.648-1.789 1.647-4.06 4.695t-4.55 6.617q-2.224 3.413-4.136 6.934-1.912 3.52-3.293 6.005-1.273 2.174-2.175 3.778-.747 1.659-1.488 2.797-.27.778-.532 1.035-.317.414-.586 1.192l-5.689 10.927q-4.303 7.921-6.413 10.502-2.165 2.737-4.301 2.87-.419.204-3.537-.35-1.3-.274-2.754-.602-1.299-.275-3.119-.554-1.664-.227-3.118-.555-1.455-.328-3.119-.554-1.454-.328-2.442-.494l-1.556-.538-1.246-.43q-.569-.37-1.347-.64-2.071-1.063-3.21-1.804-2.795-1.488-4.969-2.761-1.964-1.375-3.665-3.008-1.7-1.632-3.085-3.678-1.175-2.148-2.655-4.923-1.11-3.345-1.753-6.529t-1.022-6.624q.417-9.786 2.863-19.393 2.656-9.71 5.88-19.049 1.559-4.514 3.428-8.92 2.08-4.508 4.26-8.807 2.982-6.113 5.277-11.244 2.45-5.077 4.421-9.274 2.66-5.179 6.629-11.125t8.663-11.468q4.747-5.677 10.004-10.308 5.467-4.732 10.91-7.382 1.885-.917 4.387-1.098 2.034-.343 4.884.99 1.401.483 3.06 1.23 1.813.8 3.939 1.708 3.107 1.596 6.724 4.238 3.67 2.487 6.762 5.645 3.246 3.211 5.655 6.83 2.408 3.62 2.89 7.27.44 2.764-1.077 8.164-1.51 4.879-3.1 7.465-.526.515-1.805 3.21-1.327 2.329-3.03 5.747-.902 1.605-1.65 3.264-.746 1.658-1.648 3.263-.903 1.604-1.542 2.951-.586 1.192-1.22 2.018.682-.461 1.053-1.03.945-.719 1.573-1.025 5.3-3.744 10.857-7.226 5.713-3.428 11.576-6.281 6.019-2.8 12.134-4.87 6.27-2.015 12.685-2.936 5.062-1.04 6.984-.55 2.34.285 7.01 1.897l9.257 5.984q2.098 3.511 3.658 8.58 1.715 5.121 1.15 9.281-.073 6.769-2.437 13.618-3.117 9.027-7.36 16.272-4.088 7.299-9.866 11.924-5.622 4.679-13.246 6.576-7.57 1.741-17.601.02-2.49-.86-5.035-1.564-2.334-.807-4.879-1.51-4.669-1.613-5.012-3.648-.342-2.034 2.923-5.436m41.88-54.699q-2.04.863-2.254 1.486-.592 1.712 3.376.817 1.771-.085 2.98-1.061.896-1.084-.816-1.676-1.4-.483-3.285.434m-74.616-34.648q1.692-2.377-.643-3.183-1.245-.43-3.763 1.314-2.363 1.797-5.365 4.941-2.792 3.043-6.063 6.966-3.115 3.976-5.865 7.904-2.594 3.982-4.662 7.45-2.015 3.31-2.713 5.334-.806 2.334-.13 2.394.622.215 2.153-1.696.586-1.191 1.38-2.484.85-1.45 1.961-3.156 1.268-1.653 2.38-3.36 1.32-1.808 2.798-3.563 2.535-3.305 5.327-6.348 2.793-3.042 5.998-5.768 5.934-4.571 7.207-6.745m236.692 40.474q-3.714 8.08-10.363 14.266t-13.322 11.637q-2.516 1.924-4.688 3.1-1.953 1.097-3.85 1.675-5.172 1.79-8.06 1.37-2.887-.421-9.446-2.711-4.258-1.776-7.182-3.3-4.294-2.88-8.75-6.197-4.307-3.248-7.683-7.337-1.464-1.941-2.49-4.044t-1.4-4.449q-.27-3.749.038-5.6.158-1.922 3.115-8.355 2.864-7.02 4.482-9.358 3.179-4.156 7.381-8.568 4.271-4.561 9.084-8.33 4.962-3.7 10.41-6.088 5.516-2.54 11.048-2.353 3.91.167 9.103 3.459 4.375 3.098 9.466 7.794t8.883 10.244q3.793 5.55 5.24 11.47 1.597 5.99-1.016 11.675m-38.743-26.505q6.41-4.484 4.83-7.748-.704-1.23-1.452-1.573-2.543-1.17-6.988 2.587-6.249 4.92-10.443 14.048-2.27 4.937-1.522 5.28.898.413 1.654-1.232.482-1.048 2.342-2.73t4.09-3.376q2.228-1.694 4.319-3.09 2.16-1.544 3.17-2.166m-51.817 46.5q3.53-.19 7.121 1.46 5.536 2.544 10.134 7.92 4.666 5.225 7.848 10.13.554 1.161 1.257 2.39.922 1.15 1.706 2.597 3.057 5.573 5.515 10.871l.728 1.966q.392.724.554 1.16.452 2.564-4.183 9.495-2.249 3.316-5.578 7.404-3.11 4.007-7.518 8.868-5.27 5.551-10.39 11.172-5.052 5.47-9.643 11.516l-3.924 6.17-2.386 3.616q-1.043 1.876-2.305 3.833-1.881 3.304-3.463 6.745l-3.094 6.733q-.963 2.095-1.351 3.728l-.3-.137q.093.586.841.93 1.347.619 4.647.142 3.45-.408 7.174-1.414t7.07-2.37q3.493-1.293 5.01-2.227l-.206.449 3.457-2.398q2.184-.808 2.54-1.188l5.86-3.287q2.528-1.557 5.687-4.092l3.446-2.766q1.791-1.532 3.801-3.146 3.883-2.927 7.535-6.142 3.72-3.364 7.373-6.578l1.286-1.221q.793-.542 1.723-1.383 1.792-1.533 2.872-2.305l.093.586 3.32-2.098q1.505-1.302 2.52.433l1.799 3.183-.3-.138q3.78 5.181 1.924 9.22-1.994 4.34-7.252 10.26-5.108 5.988-11.47 11.944-6.293 5.807-12.829 10.958-6.467 5.001-11.247 7.516-3.689 2.11-8.55 4.407-4.711 2.365-9.953 4.306-5.172 1.79-10.437 2.995-5.197 1.055-9.407.751-1.035-.113-2.151-.445t-2.532-.801q-1.265-.4-2.762-1.088l-2.842-1.307q-14.065-6.464-22.511-16.87t-9.622-25.988q-.107-10.017 2.486-20.786 2.662-10.918 6.788-19.895 3.645-7.93 8.543-15.827t10.925-15.095 12.974-13.247q7.098-5.98 14.993-10.144 1.815-.797 3.425-1.144 1.678-.498 3.369-.627zm-4.523 12.6q-2.034.877-4.756 3.25-4.089 3.377-7.842 7.995t-5.954 9.405q-1.582 3.442-1.27 3.947.46.574 2.491-2.66.85-1.06 1.848-2.05 1.068-1.14 2.722-2.374 1.436-1.152 4.17-3.158 2.952-2.086 7.122-5.244 6.778-4.496 7.005-6.567.012-1.99-1.787-2.815-1.795-.825-3.749.27M2173.47 668l-.572 1.001q-.49.858-1.184 2.738-.612 1.736-1.162 3.697-.551 1.96-.878 3.86-.244 1.757.001 2.655.532 1.062 3.432 1.96 12.481 5.04 24.45 4.67 12.111-.29 24.67-4.686 3.39-1.288 6.107-2.392t5.044-1.86 4.37-1.676 4.003-1.697q1.899-1.001 3.573-1.941l3.799-2.003q1.899-1.001 3.961-2.289 2.206-1.206 4.717-2.616 1.369-.735 3.186-1.594 1.899-1.001 3.778-1.635 1.96-.777 3.88-.818 2.002-.185 3.432.632 2.86 1.633 4.046 5.533 1.267 3.758-.08 6.781-1.653 3.228-9.82 9.562-4.717 3.943-9.924 7.417-5.064 3.556-10.19 6.887-2.98 1.9-5.88 3.658-2.757 1.839-5.29 3.616-3.818 2.37-7.085 4.108-3.043 1.676-6.433 2.964-3.247 1.37-7.066 2.412-3.594.982-8.067 1.84-14.316 2.824-27.593.173-13.195-2.794-25.778-9.979-6.006-3.429-11.666-9.126-5.577-5.839-9.46-11.659-2.002-2.47-3.883-5.82-1.798-3.491-3.433-7.27-1.492-3.695-2.76-7.453-1.043-3.82-1.82-7.107-2.147-7.863-2.293-15.91-.064-8.19 1.547-15.993.204-2.348.673-4.166t1-3.412q.673-1.511 1.673-3.595l2.695-4.719q3.837-6.72 8.88-12.564 5.268-5.904 11.434-10.726 6.248-4.965 13.15-8.42 7.127-3.514 14.602-5.314 12.478-2.925 23.242-1.52 10.907 1.488 22.204 7.938 14.872 8.492 26.968 24.5 1.696 2.676 3.189 6.372 1.573 3.553 2.616 7.372t1.494 7.68q.675 3.798.492 7.107-.386 6.985-4.06 13.42-3.102 5.434-7.696 9.826-4.595 4.393-10.088 7.704-5.35 3.392-11.517 5.559-6.086 2.024-12.172 2.72-11.11.862-16.748.108-5.29-.366-13.828-4.673zm17.965-24.82q-1.225 2.144.205 2.96 1.001.572 3.146.47l.163-.287q4.86.121 9.865-1.004 5.228-1.186 9.925-3.434 4.921-2.31 9.148-5.395 4.308-3.229 7.248-7.049.408-.715.674-1.512.408-.715.755-1.654.898-1.573 1.163-3.697-.429 1.082-2.43-.06-1.288-.736-3.126-.837-1.858.266-7.495 2.167-4.044 1.104-8.27 2.862-4.228 1.758-8.271 4.19-3.819 2.37-7.31 5.496-3.267 3.065-5.39 6.783m5.743-51.9q1.347-.369 1.796-1.82 1.102-2.593-1.186-3.9-2.574-1.47-6.495-1.244-3.84.083-8.108 1.249-4.125 1.247-7.985 3.025-3.86 1.779-6.392 3.556t-4.798 4.087q-1.878 1.961-2.041 3.575-.02 1.695.817 1.225.674-.184 1.654-1.9 1.388-2.431 4.86-3.862 3.696-1.492 7.72-2.229 4.247-.798 8.25-1.167 4.146-.287 6.577-.226 4.432-.124 5.33-.37" aria-label="To Valerie" style="font-size:266.667px;line-height:1;font-family:&quot;Magic Bubble&quot;;-inkscape-font-specification:&quot;Magic Bubble&quot;;text-align:center;text-anchor:middle;fill:#fff;stroke-width:10.578;stroke-linecap:round;stroke-linejoin:round"/><text xml:space="preserve" x="1488.285" y="2972.016" style="font-style:normal;font-variant:normal;font-weight:400;font-stretch:normal;font-size:206.434px;line-height:1;font-family:&quot;Magic Bubble&quot;;-inkscape-font-specification:&quot;Magic Bubble&quot;;text-align:center;writing-mode:lr-tb;direction:ltr;text-anchor:middle;fill:#0adbe2;fill-opacity:1;stroke-width:6.6306;stroke-linecap:round;stroke-linejoin:round"><tspan x="1488.285" y="2972.016" style="fill:#0adbe2;fill-opacity:1;stroke-width:6.6306">A Floating Pugsheen</tspan><tspan x="1488.285" y="3178.45" style="fill:#0adbe2;fill-opacity:1;stroke-width:6.6306">To Brighten Your</tspan><tspan x="1488.285" y="3386.9" style="fill:#0adbe2;fill-opacity:1;stroke-width:6.6306">Night!</tspan></text><text xml:space="preserve" x="1488.285" y="2957.239" style="font-style:normal;font-variant:normal;font-weight:400;font-stretch:normal;font-size:206.434px;line-height:1;font-family:&quot;Magic Bubble&quot;;-inkscape-font-specification:&quot;Magic Bubble&quot;;text-align:center;writing-mode:lr-tb;direction:ltr;text-anchor:middle;fill:#fff;fill-opacity:1;stroke-width:6.6306;stroke-linecap:round;stroke-linejoin:round"><tspan x="1488.285" y="2957.239" style="stroke-width:6.6306">A Floating Pugsheen</tspan><tspan x="1488.285" y="3163.673" style="stroke-width:6.6306">To Brighten Your</tspan><tspan x="1488.285" y="3372.123" style="stroke-width:6.6306">Night!</tspan></text><path d="M315.868 899.535c5.131 14.117 13.589 17.691 19.745 15.35s10.01-10.596 5.935-20.14c-1.555-3.64-4.59-6.554-9.616-7.901-5.026-1.348-12.043-1.13-15.192 1.31-3.148 2.44-2.427 7.102-.872 11.38" style="fill:#fde1bb;fill-opacity:1;stroke-width:9.32389;stroke-linecap:round;stroke-linejoin:round" transform="matrix(-5.75904 0 0 5.75904 2955.745 -3118.133)"/><path d="M325.746 886.023c-3.56-.05-7.038.606-9.006 2.131-3.148 2.44-2.428 7.102-.873 11.381 5.131 14.118 13.59 17.69 19.746 15.35s10.011-10.596 5.936-20.139c-1.555-3.642-4.591-6.555-9.617-7.902-1.885-.506-4.05-.79-6.186-.82" style="mix-blend-mode:overlay;fill:url(#F);stroke-width:27.1285;stroke-linecap:round;stroke-linejoin:round" transform="matrix(-5.75904 0 0 5.75904 2955.745 -3118.133)"/><path d="M325.746 886.023c-3.56-.05-7.038.606-9.006 2.131-3.148 2.44-2.428 7.102-.873 11.381 1.003 2.76 2.133 5.115 3.348 7.104a70 70 0 0 0 24.015-4.244c-.016-2.38-.534-4.963-1.681-7.649-1.555-3.642-4.591-6.555-9.617-7.902-1.885-.506-4.05-.79-6.186-.82" style="mix-blend-mode:multiply;fill:url(#G);fill-opacity:1;stroke-width:8.56526;stroke-linecap:round;stroke-linejoin:round" transform="matrix(-5.75904 0 0 5.75904 2955.745 -3118.133)"/><path d="M334.324 898.191a12.803 12.803 0 0 0-12.758 11.733c4.56 5.4 9.841 6.56 14.047 4.96 4.572-1.737 7.874-6.736 7.602-13.103a12.8 12.8 0 0 0-8.89-3.59" style="fill:url(#H);fill-opacity:1;stroke-width:8.56526;stroke-linecap:round;stroke-linejoin:round" transform="matrix(-5.75904 0 0 5.75904 2955.745 -3118.133)"/><path d="M315.868 899.535c5.131 14.117 13.589 17.691 19.745 15.35s10.01-10.596 5.935-20.14c-1.555-3.64-4.59-6.554-9.616-7.901-5.026-1.348-12.043-1.13-15.192 1.31-3.148 2.44-2.427 7.102-.872 11.38" style="fill:#fde1bb;fill-opacity:1;stroke-width:9.32389;stroke-linecap:round;stroke-linejoin:round" transform="matrix(-5.75904 0 0 5.75904 3114.094 -3061.824)"/><path d="M325.746 886.023c-3.56-.05-7.038.606-9.006 2.131-3.148 2.44-2.428 7.102-.873 11.381 5.131 14.118 13.59 17.69 19.746 15.35s10.011-10.596 5.936-20.139c-1.555-3.642-4.591-6.555-9.617-7.902-1.885-.506-4.05-.79-6.186-.82" style="mix-blend-mode:overlay;fill:url(#I);stroke-width:27.1285;stroke-linecap:round;stroke-linejoin:round" transform="matrix(-5.75904 0 0 5.75904 3114.094 -3061.824)"/><path d="M325.746 886.023c-3.56-.05-7.038.606-9.006 2.131-3.148 2.44-2.428 7.102-.873 11.381 1.003 2.76 2.133 5.115 3.348 7.104a70 70 0 0 0 24.015-4.244c-.016-2.38-.534-4.963-1.681-7.649-1.555-3.642-4.591-6.555-9.617-7.902-1.885-.506-4.05-.79-6.186-.82" style="mix-blend-mode:multiply;fill:url(#J);fill-opacity:1;stroke-width:8.56526;stroke-linecap:round;stroke-linejoin:round" transform="matrix(-5.75904 0 0 5.75904 3114.094 -3061.824)"/><path d="M334.324 898.191a12.803 12.803 0 0 0-12.758 11.733c4.56 5.4 9.841 6.56 14.047 4.96 4.572-1.737 7.874-6.736 7.602-13.103a12.8 12.8 0 0 0-8.89-3.59" style="fill:url(#K);fill-opacity:1;stroke-width:8.56526;stroke-linecap:round;stroke-linejoin:round" transform="matrix(-5.75904 0 0 5.75904 3114.094 -3061.824)"/><path d="M315.868 899.535c5.131 14.117 13.589 17.691 19.745 15.35s10.01-10.596 5.935-20.14c-1.555-3.64-4.59-6.554-9.616-7.901-5.026-1.348-12.043-1.13-15.192 1.31-3.148 2.44-2.427 7.102-.872 11.38" style="fill:#fde1bb;fill-opacity:1;stroke-width:9.32389;stroke-linecap:round;stroke-linejoin:round" transform="rotate(-3.364 -50286.745 2973.623)scale(5.75904)"/><path d="M325.746 886.023c-3.56-.05-7.038.606-9.006 2.131-3.148 2.44-2.428 7.102-.873 11.381 5.131 14.118 13.59 17.69 19.746 15.35s10.011-10.596 5.936-20.139c-1.555-3.642-4.591-6.555-9.617-7.902-1.885-.506-4.05-.79-6.186-.82" style="mix-blend-mode:overlay;fill:url(#L);stroke-width:27.1285;stroke-linecap:round;stroke-linejoin:round" transform="rotate(-3.364 -50286.745 2973.623)scale(5.75904)"/><path d="M325.746 886.023c-3.56-.05-7.038.606-9.006 2.131-3.148 2.44-2.428 7.102-.873 11.381 1.003 2.76 2.133 5.115 3.348 7.104a70 70 0 0 0 24.015-4.244c-.016-2.38-.534-4.963-1.681-7.649-1.555-3.642-4.591-6.555-9.617-7.902-1.885-.506-4.05-.79-6.186-.82" style="mix-blend-mode:multiply;fill:url(#M);fill-opacity:1;stroke-width:8.56526;stroke-linecap:round;stroke-linejoin:round" transform="rotate(-3.364 -50286.745 2973.623)scale(5.75904)"/><path d="M334.324 898.191a12.803 12.803 0 0 0-12.758 11.733c4.56 5.4 9.841 6.56 14.047 4.96 4.572-1.737 7.874-6.736 7.602-13.103a12.8 12.8 0 0 0-8.89-3.59" style="fill:url(#N);fill-opacity:1;stroke-width:8.56526;stroke-linecap:round;stroke-linejoin:round" transform="rotate(-3.364 -50286.745 2973.623)scale(5.75904)"/><path d="M315.868 899.535c5.131 14.117 13.589 17.691 19.745 15.35s10.01-10.596 5.935-20.14c-1.555-3.64-4.59-6.554-9.616-7.901-5.026-1.348-12.043-1.13-15.192 1.31-3.148 2.44-2.427 7.102-.872 11.38" style="fill:#fde1bb;fill-opacity:1;stroke-width:9.32389;stroke-linecap:round;stroke-linejoin:round" transform="rotate(-3.364 -49248.828 5641.567)scale(5.75904)"/><path d="M325.746 886.023c-3.56-.05-7.038.606-9.006 2.131-3.148 2.44-2.428 7.102-.873 11.381 5.131 14.118 13.59 17.69 19.746 15.35s10.011-10.596 5.936-20.139c-1.555-3.642-4.591-6.555-9.617-7.902-1.885-.506-4.05-.79-6.186-.82" style="mix-blend-mode:overlay;fill:url(#O);stroke-width:27.1285;stroke-linecap:round;stroke-linejoin:round" transform="rotate(-3.364 -49248.828 5641.567)scale(5.75904)"/><path d="M325.746 886.023c-3.56-.05-7.038.606-9.006 2.131-3.148 2.44-2.428 7.102-.873 11.381 1.003 2.76 2.133 5.115 3.348 7.104a70 70 0 0 0 24.015-4.244c-.016-2.38-.534-4.963-1.681-7.649-1.555-3.642-4.591-6.555-9.617-7.902-1.885-.506-4.05-.79-6.186-.82" style="mix-blend-mode:multiply;fill:url(#P);fill-opacity:1;stroke-width:8.56526;stroke-linecap:round;stroke-linejoin:round" transform="rotate(-3.364 -49248.828 5641.567)scale(5.75904)"/><path d="M334.324 898.191a12.803 12.803 0 0 0-12.758 11.733c4.56 5.4 9.841 6.56 14.047 4.96 4.572-1.737 7.874-6.736 7.602-13.103a12.8 12.8 0 0 0-8.89-3.59" style="fill:url(#Q);fill-opacity:1;stroke-width:8.56526;stroke-linecap:round;stroke-linejoin:round" transform="rotate(-3.364 -49248.828 5641.567)scale(5.75904)"/><g transform="translate(-221.299 -2980.773)scale(5.75904)"><ellipse cx="203.647" cy="725.817" rx="21.92" ry="24.218" style="fill:#fde1bb;fill-opacity:1;stroke-width:7.97415;stroke-linecap:round;stroke-linejoin:round"/><path d="M205.168 708.705c-8.67 2.03-6.744 5.679-6.046 9.861.347 2.078-.144 5.578.401 7.62 2.305 8.636 13.587 11.52 19.805 6.826a16.3 16.3 0 0 0 2.117-8.028c0-8.99-7.287-16.278-16.277-16.279" style="mix-blend-mode:multiply;fill:#fa970d;fill-opacity:.146924;stroke-width:8.56526;stroke-linecap:round;stroke-linejoin:round"/><path d="M215.068 705.146a10.05 10.05 0 0 0-3.175 7.333 10.05 10.05 0 0 0 10.05 10.052 10 10 0 0 0 3.344-.572 21.92 24.218 0 0 0-10.219-16.813" style="fill:url(#R);fill-opacity:1;stroke-width:8.56526;stroke-linecap:round;stroke-linejoin:round"/><path d="M193.041 718.42a20 20 0 0 0-10.998 3.3 21.92 24.218 0 0 0-.316 4.096 21.92 24.218 0 0 0 21.92 24.22 21.92 24.218 0 0 0 6.318-1.028 20 20 0 0 0 3.05-10.612 19.976 19.976 0 0 0-19.974-19.976" style="fill:url(#S);fill-opacity:1;stroke-width:8.56526;stroke-linecap:round;stroke-linejoin:round"/><path d="M415.892 795.537c3.354 72.638-48.573 105.858-115.63 105.858-95.689 0-111.373-63.131-111.373-104.52 0-60.587 50.787-109.702 111.374-109.702s115.63 47.777 115.63 108.364" style="fill:#fde1bb;fill-opacity:1;stroke-width:8.56526;stroke-linecap:round;stroke-linejoin:round"/><path d="M300.264 687.172c-60.587 0-111.375 49.116-111.375 109.703 0 5.725.3 11.866 1.07 18.2A121.05 121.05 0 0 0 305.465 694.15a121 121 0 0 0-.195-6.869q-2.496-.109-5.006-.11" style="fill:url(#T);fill-opacity:1;stroke-width:8.56526;stroke-linecap:round;stroke-linejoin:round"/><path d="M317.951 758.994a129.06 129.06 0 0 0-121.072 84.358c11.96 30.576 40.269 58.043 103.385 58.043 64.341 0 114.753-30.585 115.767-97.229a129.06 129.06 0 0 0-98.08-45.172" style="fill:url(#U);fill-opacity:1;stroke-width:8.56526;stroke-linecap:round;stroke-linejoin:round"/><path d="M308.139 687.441a117.7 117.7 0 0 0-8.672 44.34 117.694 117.694 0 0 0 106.379 117.15c7.344-14.584 11.02-32.332 10.047-53.394 0-57.95-50.356-104.18-107.754-108.096" style="fill:url(#V);fill-opacity:1;stroke-width:8.56526;stroke-linecap:round;stroke-linejoin:round"/><path d="M361.002 703.98a38 38 0 0 0-3.545.75l4.248 21.207c.025-1.213.022-2.736-.096-3.931.78 1.616 1.56 3.231 3.705 5.6 8.45 9.328 18.539 8.84 23.723-1.44-8.033-9.018-17.497-15.945-28.035-22.186" style="fill:#fbc986;fill-opacity:1;stroke-width:8.56526;stroke-linecap:round;stroke-linejoin:round" transform="scale(-1.06789 1.06789)rotate(34.42 80.687 -315.178)"/><path d="M342.44 723.497s4.81-17.038 15.017-19.728c6.203-1.634 14.012-1.864 20.476.31s11.583 6.753 12.403 14.737c.418 4.068-.864 7.913-3.79 10.615-1.704 1.575-10.712 8.826-21.231-2.786-2.146-2.368-2.926-3.984-3.706-5.6.232 2.367.02 6.016.02 6.016-4.638 1.719-11.347 5.892-19.19-3.564" style="fill:#b17c58;fill-opacity:1;stroke-width:8.56526;stroke-linecap:round;stroke-linejoin:round" transform="scale(-1.06789 1.06789)rotate(34.42 80.687 -315.178)"/><path d="M367.598 702.496c-3.536-.01-7.04.457-10.141 1.274-2.061.543-3.903 1.672-5.53 3.126a22.8 22.8 0 0 0 9.753 15.157c-.017-.351-.04-.691-.07-1.008.226.468.45.937.71 1.424a22.8 22.8 0 0 0 12.088 3.468 22.8 22.8 0 0 0 15.977-6.537 15 15 0 0 0-.049-.584c-.82-7.984-5.938-12.564-12.402-14.738-3.232-1.087-6.8-1.572-10.336-1.582" style="fill:url(#W);fill-opacity:1;stroke-width:8.56526;stroke-linecap:round;stroke-linejoin:round" transform="scale(-1.06789 1.06789)rotate(34.42 80.687 -315.178)"/><path d="M374.408 703.148a20.1 20.1 0 0 0-9.138 16.85 20.1 20.1 0 0 0 1.89 8.51c9.712 8.913 17.783 2.405 19.387.924 2.926-2.703 4.207-6.547 3.789-10.616-.82-7.984-5.938-12.564-12.402-14.738a28 28 0 0 0-3.526-.93" style="fill:url(#X);fill-opacity:1;stroke-width:8.56526;stroke-linecap:round;stroke-linejoin:round" transform="scale(-1.06789 1.06789)rotate(34.42 80.687 -315.178)"/><path d="M361.44 702.951a38 38 0 0 0-3.983.819c-6.377 1.68-10.648 8.96-12.955 14.187a15 15 0 0 0 1.559.078 15.38 15.38 0 0 0 15.378-15.084" style="fill:url(#Y);fill-opacity:1;stroke-width:8.56526;stroke-linecap:round;stroke-linejoin:round" transform="scale(-1.06789 1.06789)rotate(34.42 80.687 -315.178)"/><path d="M347.782 711.843a12.71 12.71 0 0 1 11.379 5.494c1.253 1.829 2.208 3.85 2.553 5.955.022 1.917-.087 3.763-.087 3.77-.82.303-1.704.683-2.649 1.052-4.353 1.631-10.06 2.82-16.118-4.121a28 28 0 0 1-.421-.496s.434-1.541 1.319-3.766l.002-.001c.885-2.227 2.22-5.14 4.023-7.887z" style="fill:url(#Z);fill-opacity:1;stroke-width:8.56526;stroke-linecap:round;stroke-linejoin:round" transform="scale(-1.06789 1.06789)rotate(34.42 80.687 -315.178)"/><path d="M361.002 703.98a38 38 0 0 0-3.545.75l4.248 21.207c.025-1.213.022-2.736-.096-3.931.78 1.616 1.56 3.231 3.705 5.6 10.52 11.611 19.529 4.36 21.233 2.787a11.8 11.8 0 0 0 2.539-3.364c-8.033-9.017-17.546-16.808-28.084-23.049" style="fill:#fbc986;fill-opacity:1;stroke-width:8.56526;stroke-linecap:round;stroke-linejoin:round"/><path d="M342.44 723.497s4.81-17.038 15.017-19.728c6.203-1.634 14.012-1.864 20.476.31s11.583 6.753 12.403 14.737c.418 4.068-.864 7.913-3.79 10.615-1.704 1.575-10.712 8.826-21.231-2.786-2.146-2.368-2.926-3.984-3.706-5.6.232 2.367.02 6.016.02 6.016s-9.536 7.313-19.19-3.564" style="fill:#b17c58;fill-opacity:1;stroke-width:8.56526;stroke-linecap:round;stroke-linejoin:round"/><path d="M367.598 702.496c-3.536-.01-7.04.457-10.141 1.274-2.061.543-3.903 1.672-5.53 3.126a22.8 22.8 0 0 0 9.753 15.157c-.017-.351-.04-.691-.07-1.008.226.468.45.937.71 1.424a22.8 22.8 0 0 0 12.088 3.468 22.8 22.8 0 0 0 15.977-6.537 15 15 0 0 0-.049-.584c-.82-7.984-5.938-12.564-12.402-14.738-3.232-1.087-6.8-1.572-10.336-1.582" style="fill:url(#aa);fill-opacity:1;stroke-width:8.56526;stroke-linecap:round;stroke-linejoin:round"/><path d="M374.408 703.148a20.1 20.1 0 0 0-9.138 16.85 20.1 20.1 0 0 0 1.89 8.51c9.712 8.913 17.783 2.405 19.387.924 2.926-2.703 4.207-6.547 3.789-10.616-.82-7.984-5.938-12.564-12.402-14.738a28 28 0 0 0-3.526-.93" style="fill:url(#ab);fill-opacity:1;stroke-width:8.56526;stroke-linecap:round;stroke-linejoin:round"/><path d="M361.44 702.951a38 38 0 0 0-3.983.819c-6.377 1.68-10.648 8.96-12.955 14.187a15 15 0 0 0 1.559.078 15.38 15.38 0 0 0 15.378-15.084" style="fill:url(#ac);fill-opacity:1;stroke-width:8.56526;stroke-linecap:round;stroke-linejoin:round"/><ellipse cx="339.687" cy="766.852" rx="18.646" ry="17.352" style="fill:#b27f5b;fill-opacity:1;stroke-width:7.99554;stroke-linecap:round;stroke-linejoin:round"/><g transform="translate(1.05 -1033.78)"><ellipse cx="265.888" cy="1778.383" rx="5.638" ry="5.767" style="fill:url(#ad);fill-opacity:1;stroke-width:7.8917;stroke-linecap:round;stroke-linejoin:round" transform="matrix(.99421 .10745 .04261 .9991 0 0)"/><path d="M338.586 1790.135a7.7 7.7 0 0 0-1.291.156c-6.678 1.357-8.534 5.554-3.719 8.408.011.01 1.593.83 2.623 1.367-.248 1.008-1.101 1.817-3.05 2.225 0 0-.076.012-.55.033a3.8 3.8 0 0 1-1.84-.621c-.917-.599-1.838-.703-2.536-.438-1.027.38-1.588 1.526-1.04 2.97.95 2.495 7.126 6.235 11.985 1.314.928-.942 1.518-1.168 2.838-1.08 6.901.45 9.033-6.447 8.084-8.944-.549-1.443-1.727-1.922-2.748-1.527-.692.263-1.313.946-1.606 2.012a3.8 3.8 0 0 1-.957 1.683l-.437.344c-1.478.847-2.552.94-3.365.58.034-1.18.638-3.23.812-3.766.958-2.948-.392-4.799-3.203-4.716" style="fill:url(#ae);fill-opacity:1"/></g><circle cx="308.419" cy="773.886" r="6.088" style="fill:#4a280c;fill-opacity:1;stroke-width:9.58937;stroke-linecap:round;stroke-linejoin:round"/><circle cx="367.601" cy="753.657" r="6.088" style="fill:url(#af);fill-opacity:1;stroke-width:9.58937;stroke-linecap:round;stroke-linejoin:round"/><path d="M341.432 754.354a22.97 22.97 0 0 0-20.391 12.394 18.646 17.352 0 0 0 0 .104 18.646 17.352 0 0 0 18.647 17.351 18.646 17.352 0 0 0 18.644-17.351 18.646 17.352 0 0 0-1.314-6.399 22.97 22.97 0 0 0-15.586-6.1" style="fill:url(#ag);fill-opacity:1;stroke-width:8.56526;stroke-linecap:round;stroke-linejoin:round"/><path d="M339.688 749.5a18.646 17.352 0 0 0-15.387 7.55 19.86 19.86 0 0 0 16.982 9.565 19.86 19.86 0 0 0 15.27-7.162 18.646 17.352 0 0 0-16.865-9.953" style="fill:url(#ah);fill-opacity:1;stroke-width:8.56526;stroke-linecap:round;stroke-linejoin:round"/><path d="M349.01 751.826a18.645 17.352 0 0 0-9.322 15.026 18.645 17.352 0 0 0 9.322 15.025 18.646 17.352 0 0 0 9.322-15.025 18.646 17.352 0 0 0-9.322-15.026" style="fill:url(#ai);fill-opacity:1;stroke-width:8.56526;stroke-linecap:round;stroke-linejoin:round"/><path d="M339.688 749.5a18.646 17.352 0 0 0-18.647 17.352 18.646 17.352 0 0 0 18.647 17.351 18.646 17.352 0 0 0 18.644-17.351 18.646 17.352 0 0 0-18.644-17.352" style="mix-blend-mode:overlay;fill:url(#aj);fill-opacity:1;stroke-width:15.0478;stroke-linecap:round;stroke-linejoin:round"/><path d="M353.191 705.87c-7.287 5.358-10.752 17.626-10.752 17.626 9.655 10.878 19.19 3.565 19.19 3.565s.213-3.648-.02-6.016c.631 1.307 1.262 2.615 2.616 4.32a14.3 14.3 0 0 0 1.045-5.367 14.304 14.304 0 0 0-12.079-14.129" style="fill:url(#ak);fill-opacity:1;stroke-width:8.56526;stroke-linecap:round;stroke-linejoin:round"/><path d="M367.598 702.496c-.244 0-.474.05-.717.053-1.087.016-2.17.06-3.236.148a21.7 21.7 0 0 0-4.065 12.637 21.7 21.7 0 0 0 2.137 9.385l-.002-.428c.006-.687 0-1.427-.03-2.129.757 1.565 1.553 3.151 3.63 5.443 10.518 11.612 19.528 4.362 21.232 2.788a11.8 11.8 0 0 0 2.539-3.364l-.324-.361c.93-1.608 1.47-3.42 1.613-5.33a14 14 0 0 0-.033-2.453l-.006-.069a19 19 0 0 0-.504-2.838q-.173-.669-.39-1.3a15.4 15.4 0 0 0-1.686-3.459v-.002a15 15 0 0 0-.717-1.008c-2.259-2.923-5.47-4.908-9.105-6.131a28 28 0 0 0-3.176-.838c-.12-.025-.23-.068-.35-.092l-.027.02-.043-.008c-.255-.05-.505-.1-.762-.145-.588-.1-1.184-.143-1.781-.213a37 37 0 0 0-3.375-.246c-.276-.007-.547-.06-.822-.06" style="mix-blend-mode:overlay;fill:url(#al);stroke-width:10.7659;stroke-linecap:round;stroke-linejoin:round"/><path d="M220.781 720.37a112 112 0 0 0-12.111 14.43c3.7.95 7.737.416 10.658-1.788a16.3 16.3 0 0 0 2.117-8.028c0-1.603-.232-3.152-.664-4.615" style="fill:#fbc986;fill-opacity:.347647;stroke-width:8.56526;stroke-linecap:round;stroke-linejoin:round"/><path d="M200.042 1960.104c-.605 16.42 27.213 18.446 24.103-1.637-.73-4.709-4.312-9.338-8.166-12.215s-7.979-4.002-11.833-3.856-7.438 1.562-10.438 3.583-5.416 4.646-6.208 7.083.042 4.688 1.792 6.105c1.75 1.416 4.416 2 6 1.541 1.583-.458 2.083-1.958 2.77-2.5.688-.541 1.563-.125 1.98 1.896" style="fill:#fde1bb;fill-opacity:1;stroke-width:8.56526;stroke-linecap:round;stroke-linejoin:round" transform="translate(0 -1238.851)"/><path d="M203.646 701.6a21.92 24.218 0 0 0-8.18 1.748 18.625 18.625 0 0 0 18.284 15.072 18.6 18.6 0 0 0 9.787-2.78 21.92 24.218 0 0 0-19.89-14.04" style="fill:url(#am);fill-opacity:1;stroke-width:8.56526;stroke-linecap:round;stroke-linejoin:round"/><path d="M204.426 703.537a17.56 17.56 0 0 0-8.238 14.883 17.6 17.6 0 0 0 .23 2.832c.76-.636 1.154-1.508 1.644-1.895.688-.541 1.562-.124 1.979 1.897-.605 16.42 27.214 18.444 24.104-1.639-.73-4.708-4.312-9.338-8.166-12.215-3.761-2.807-7.78-3.945-11.553-3.863" style="fill:url(#an);fill-opacity:1;stroke-width:8.56526;stroke-linecap:round;stroke-linejoin:round"/></g><path d="M300.264 687.172a111.2 111.2 0 0 0-41.498 8.021 113 113 0 0 0-34.65 21.957 21.92 24.218 0 0 0-.62-1.484l.041-.025a21.92 24.218 0 0 0-.36-.739 21.92 24.218 0 0 0-.282-.668 21.92 24.218 0 0 0-.29-.51 21.92 24.218 0 0 0-.832-1.453 21.92 24.218 0 0 0-.435-.746 21.92 24.218 0 0 0-.256-.347 21.92 24.218 0 0 0-1.03-1.36 21.92 24.218 0 0 0-.58-.748 21.92 24.218 0 0 0-.206-.224 21.92 24.218 0 0 0-1.246-1.258 21.92 24.218 0 0 0-.688-.68 21.92 24.218 0 0 0-.123-.113 21.92 24.218 0 0 0-2.256-1.715 21.92 24.218 0 0 0-1.615-.926 21.92 24.218 0 0 0-1.02-.57 21.92 24.218 0 0 0-1.896-.748 21.92 24.218 0 0 0-.897-.344 21.92 24.218 0 0 0-2.011-.465 21.92 24.218 0 0 0-.91-.203 21.92 24.218 0 0 0-2.958-.224 21.92 24.218 0 0 0-8.18 1.748 21.92 24.218 0 0 0-13.378 18.347l-.045.026a21.92 24.218 0 0 0-.07.605 21.92 24.218 0 0 0-.077.658 21.92 24.218 0 0 0-.17 2.832 21.92 24.218 0 0 0 .213 3.372 21.92 24.218 0 0 1 0 .002 21.92 24.218 0 0 0 .637 3.304 21.92 24.218 0 0 1 0 .002 21.92 24.218 0 0 0 4.283 8.893 21.92 24.218 0 0 1 0 .002 21.92 24.218 0 0 0 12.995 8.28c-7.014 14.297-10.965 30.304-10.965 47.204 0 5.726.3 11.867 1.07 18.2 1.119 9.197 3.377 18.778 7.002 28.095l-.082.182c.131.336.33.656.465.992a93 93 0 0 0 4.445 9.476c.37.685.789 1.346 1.18 2.024a84 84 0 0 0 5.443 8.273c.467.626.88 1.272 1.367 1.889.455.575.952 1.129 1.426 1.695a81 81 0 0 0 3.836 4.27 80 80 0 0 0 1.846 1.857 81 81 0 0 0 4.71 4.207c.495.41.953.837 1.462 1.239a84 84 0 0 0 6.923 4.918c.579.369 1.21.704 1.805 1.064a91 91 0 0 0 6.072 3.37c.89.45 1.802.884 2.723 1.314 1.347.628 2.791 1.19 4.207 1.773 4.18 1.724 8.603 3.284 13.406 4.58.435.117.816.271 1.256.385 5.165 1.333 10.81 2.32 16.73 3.103 1.428.19 2.886.352 4.358.506 6.208.652 12.674 1.108 19.725 1.108 7.216 0 14.178-.52 20.994-1.297 1.982-.226 3.893-.547 5.836-.84a149 149 0 0 0 14.672-2.959c2.153-.55 4.353-1.018 6.44-1.662 1.144-.353 2.264-.73 3.388-1.111 3.945-1.34 7.775-2.83 11.441-4.524.459-.212.949-.382 1.403-.6 3.996-1.914 7.76-4.104 11.378-6.455 1.644-1.067 3.265-2.155 4.825-3.314.551-.41 1.125-.795 1.666-1.217q3.465-2.697 6.625-5.707c.466-.445.895-.925 1.351-1.38a84 84 0 0 0 6.418-7.188 82 82 0 0 0 4.149-5.729c.343-.518.716-1.009 1.048-1.537a84 84 0 0 0 3.948-6.943c.117-.234.198-.5.314-.735.864-1.756 1.589-3.629 2.346-5.476.58-1.415 1.22-2.776 1.736-4.244.71-2.022 1.258-4.172 1.842-6.295.393-1.43.865-2.796 1.2-4.272.56-2.473.935-5.09 1.327-7.695.19-1.258.47-2.444.62-3.732.458-3.963.736-8.062.8-12.317q.064-4.218-.138-8.629c0-26.163-10.265-49.938-26.807-68.508l-.324-.36c.278-.482.51-.987.718-1.5.064-.158.117-.318.174-.477q.206-.575.354-1.172c.042-.17.088-.338.123-.51.112-.548.202-1.103.244-1.67v-.002a14 14 0 0 0-.033-2.453l-.006-.069-.045-.394c-.038-.311-.105-.6-.156-.9-.042-.246-.065-.506-.115-.745l-.002-.01c-.01-.05-.029-.093-.04-.142-.031-.146-.07-.285-.105-.428-.017-.07-.023-.15-.04-.219-.078-.297-.17-.58-.26-.867-.033-.103-.062-.21-.096-.312-.012-.034-.018-.07-.03-.104l-.006-.017a16 16 0 0 0-.568-1.407c-.018-.039-.03-.082-.049-.12l-.025-.05c-.048-.102-.105-.197-.155-.298-.083-.168-.158-.343-.246-.506q-.301-.557-.642-1.078v-.002a15 15 0 0 0-.717-1.008c-.035-.045-.074-.086-.11-.131-.115-.147-.24-.284-.36-.426-.196-.23-.393-.457-.6-.674q-.211-.217-.43-.425l-.014-.014-.002-.002q-.242-.235-.494-.46l-.002-.001a17.5 17.5 0 0 0-1.78-1.381c-.54-.37-1.118-.691-1.7-1.008-.281-.153-.545-.328-.834-.469a24 24 0 0 0-2.78-1.14c-.28-.094-.57-.163-.855-.246a29 29 0 0 0-2.316-.594c-.115-.024-.222-.063-.336-.086l-.018-.004c-.184-.036-.375-.049-.56-.082q-.135-.027-.272-.05c-.453-.078-.907-.127-1.365-.186-1.527-.197-3.068-.33-4.614-.334-.243-.001-.474.049-.716.052l-.028.002c-1.078.017-2.151.06-3.209.147l-.06.096c-.711.07-1.451.053-2.145.158q-.86.13-1.695.295h-.002c-4.172-2.404-8.52-4.519-12.975-6.42-1.467-.627-2.996-1.099-4.49-1.668-3.062-1.167-6.135-2.288-9.297-3.205-1.794-.52-3.62-.909-5.443-1.346-2.962-.71-5.933-1.352-8.957-1.834-1.96-.313-3.926-.54-5.908-.754-1.518-.164-3.005-.474-4.534-.578l-.095.262c-.923-.063-1.841-.15-2.768-.19l-.006-.232q-2.495-.109-5.006-.11z" style="mix-blend-mode:overlay;fill:url(#ao);stroke-width:8.56526;stroke-linecap:round;stroke-linejoin:round" transform="translate(-221.299 -2980.773)scale(5.75904)"/><path d="M1507.928 976.668v.006c-28.084 0-55.616 2.475-82.846 6.027a637 637 0 0 0-20.209 2.955c-47.041 7.672-92.692 19.855-135.924 37.211a647 647 0 0 0-54.353 24.797 650 650 0 0 0-51.582 29.53c-5 3.174-9.616 6.868-14.522 10.173-11.48 7.735-23.036 15.373-33.978 23.805a651 651 0 0 0-45.114 38.143 147 147 0 0 0-3.562-8.547l.232-.147a145 145 0 0 0-2.088-4.297 147 147 0 0 0-1.603-3.789 143 143 0 0 0-1.658-2.922 142 142 0 0 0-4.823-8.423 142 142 0 0 0-2.478-4.252q-.756-1.047-1.53-2.077a137 137 0 0 0-5.798-7.652l-.09-.12-.145-.187a137 137 0 0 0-3.185-4.119q-.591-.647-1.188-1.285a132 132 0 0 0-7.328-7.39 131 131 0 0 0-3.807-3.764l-.016-.014-.055-.051-.63-.584a127 127 0 0 0-11.874-9.14q-.238-.187-.478-.372l-.62-.355-.042-.03-.031-.017a122 122 0 0 0-8.526-4.903 122 122 0 0 0-6.564-3.67 119 119 0 0 0-9.352-3.707 118 118 0 0 0-6.681-2.568l-.104-.039h-.004a116 116 0 0 0-9.765-2.27 116 116 0 0 0-6.801-1.529q-4.073-.48-8.166-.67a115 115 0 0 0-9.065-.672h-.054a115 115 0 0 0-31.836 4.508 118 118 0 0 0-15.272 5.563q-2.043 1.035-4.052 2.152c-38.469 18.893-65.881 57.73-73.094 103.553l-.162.107q-.106.865-.202 1.73a153 153 0 0 0-.384 3.313c-.551 4.53-.9 9.086-1.047 13.653q-.135 2.446-.192 4.896c.093 4.265.363 8.523.809 12.76q.138 3.33.42 6.648v.014a152 152 0 0 0 2.228 11.567q.627 3.758 1.438 7.472a149 149 0 0 0 2 6.06c4.946 16.483 12.633 31.8 22.668 45.163a134 134 0 0 0 12.242 13.992 129 129 0 0 0 13.889 11.98 124 124 0 0 0 5.537 3.53 124 124 0 0 0 9.725 6.197 119.6 119.6 0 0 0 16.341 7.283 116.5 116.5 0 0 0 17.098 4.7c-20.195 41.17-35.981 84.801-46.719 130.306a613 613 0 0 0-2.892 12.871 869.67 869.67 0 0 0 577.22 219.178 869.67 869.67 0 0 0 672.483-318.226c-26.567-63.964-64.206-122.745-110.315-174.504q-.93-1.045-1.863-2.084.21-.364.414-.73c.725-1.29 1.315-2.646 1.953-3.977.434-.904.93-1.776 1.324-2.698.196-.457.338-.936.524-1.398.318-.793.581-1.605.871-2.41.156-.435.325-.865.473-1.303.24-.71.548-1.392.765-2.111.37-1.222.613-2.49.918-3.735.198-.807.423-1.6.594-2.416.096-.459.239-.901.326-1.363.153-.807.211-1.64.338-2.455.265-1.704.558-3.4.709-5.135q.043-.474.078-.951v-.01a82 82 0 0 0 .059-11.158 65 65 0 0 0-.092-1.242v-.06c-.024-.304-.055-.608-.082-.913-.032-.357-.061-.715-.098-1.074v-.01c0-.018 0-.035-.01-.053v-.01q-.042-.394-.086-.787c0-.02 0-.04-.01-.06l-.066-.577q-.597-5.176-1.606-10.022c-.01-.037-.014-.073-.022-.109v-.027l-.033-.16c0-.017-.01-.035-.011-.06l-.027-.112a104 104 0 0 0-1.03-4.383c0-.016-.01-.031-.014-.047-.443-1.715-.977-3.347-1.496-4.994-.01-.02-.012-.038-.018-.057-.21-.668-.387-1.366-.611-2.024-.01-.026-.013-.05-.02-.076-.012-.036-.02-.076-.031-.111v-.02l-.033-.107-.033-.096v-.01l-.094-.266c-.413-1.181-.896-2.304-1.356-3.445-.597-1.52-1.202-3.032-1.867-4.493-.08-.196-.15-.403-.238-.593-.046-.097-.102-.185-.147-.282-.229-.488-.488-.949-.734-1.421-.203-.415-.399-.835-.607-1.245-.312-.664-.622-1.33-.965-1.966a87 87 0 0 0-2.637-4.54l-.074-.117-.078-.125q-.247-.391-.498-.779-.205-.326-.414-.65v-.012a88 88 0 0 0-4.127-5.805l-.064-.082c-.184-.228-.384-.441-.566-.672-.057-.072-.12-.135-.178-.207-1.354-1.701-2.74-3.373-4.205-4.963l-.149-.17-.029-.029c-.597-.645-1.254-1.228-1.869-1.855l-.072-.072c-1.063-1.081-2.115-2.174-3.228-3.201-.135-.124-.256-.264-.391-.387l-.031-.033-.012-.01c-1.255-1.143-2.72-2.048-4.035-3.125-2.537-2.078-5.04-4.193-7.781-6.03-.233-.155-.429-.353-.663-.507l-.01-.01h-.01c-1.577-1.039-3.342-1.833-4.98-2.795-2.586-1.518-5.129-3.083-7.852-4.414-.107-.054-.205-.123-.314-.176h-.01c-.279-.135-.527-.316-.807-.449-1.466-.698-3.063-1.192-4.564-1.838-3.476-1.513-6.945-3.037-10.596-4.265h-.01c-.012 0-.023-.01-.035-.014h-.02l-.088-.03q-.043-.015-.088-.028c-2.105-.703-4.292-1.239-6.45-1.836-3.758-1.078-7.549-2.068-11.423-2.887-.02 0-.039-.01-.059-.014-.335-.071-.652-.183-.988-.252a16 16 0 0 0-.883-.229l-.121-.027h-.01c-.018 0-.035-.01-.053-.012-.024-.01-.051-.01-.074-.016l-.15-.029c-.984-.194-2.007-.259-2.997-.437a96 96 0 0 0-1.642-.299c-2.453-.419-4.917-.693-7.397-1.017-8.497-1.115-17.075-1.888-25.683-1.963-.38 0-.76-.01-1.139-.01h-.371c-1.465 0-2.857.291-4.318.316-4.549.074-9.084.225-13.579.504a228 228 0 0 0-4.708.338l-.025.04q-.172.24-.342.481c-3.734.366-7.615.29-11.264.825-.172.02-.356.016-.527.039-.028 0-.056.01-.084.012q-.23.03-.457.064a223 223 0 0 0-9.48 1.644l-.286.053a700 700 0 0 0-69.143-34.885c-1.813-.792-3.753-1.303-5.574-2.08-1.538-.656-3.149-1.141-4.707-1.748-7.527-3.15-15.335-5.656-22.982-8.545-13.228-4.996-26.197-10.586-39.75-14.779-3.862-1.195-7.917-1.81-11.803-2.938-.054-.016-.104-.039-.158-.055-8.622-2.5-17.393-4.419-26.149-6.464-12.676-3.146-25.128-6.997-38.013-9.42-6.145-1.156-12.491-1.42-18.678-2.408l-.092-.018c-6.14-.98-12.336-1.606-18.504-2.361-13.677-1.798-27.2-4.314-41.04-5.27l-.589-.04a669 669 0 0 0-16.525-.923 666 666 0 0 0-28.828-.63z" style="mix-blend-mode:overlay;fill:url(#ap);stroke-width:8.56526;stroke-linecap:round;stroke-linejoin:round"/></svg>