<svg xmlns="http://www.w3.org/2000/svg" xmlns:xlink="http://www.w3.org/1999/xlink" xml:space="preserve" width="3000" height="3600"><defs><linearGradient id="P"><stop offset="0" stop-color="#fde7f9" stop-opacity=".361"/><stop offset="1" stop-color="#fde7f9" stop-opacity="0"/></linearGradient><linearGradient id="O"><stop offset="0" stop-color="#fec3f3"/><stop offset="1" stop-color="#fec3f3" stop-opacity="0"/></linearGradient><linearGradient id="N"><stop offset="0" stop-color="#ffafd8" stop-opacity=".294"/><stop offset="1" stop-color="#ffafd8" stop-opacity="0"/></linearGradient><linearGradient id="M"><stop offset="0" stop-color="#ff95c4" stop-opacity=".448"/><stop offset="1" stop-color="#ff95c4" stop-opacity="0"/></linearGradient><linearGradient id="J"><stop offset="0" stop-color="#ff9898" stop-opacity=".388"/><stop offset="1" stop-color="#ff9898" stop-opacity="0"/></linearGradient><linearGradient id="w"><stop offset="0" stop-color="#841d17"/><stop offset="1" stop-color="#841d17" stop-opacity="0"/></linearGradient><linearGradient id="u"><stop offset="0" stop-color="#841d17"/><stop offset="1" stop-color="#841d17" stop-opacity="0"/></linearGradient><linearGradient id="t"><stop offset="0" stop-color="#f19891"/><stop offset="1" stop-color="#f19891" stop-opacity="0"/></linearGradient><linearGradient id="I"><stop offset="0" stop-color="#ff9898"/><stop offset="1" stop-color="#ff9898" stop-opacity="0"/></linearGradient><linearGradient id="s"><stop offset="0" stop-color="#ff72a3"/><stop offset="1" stop-color="#ff72a3" stop-opacity="0"/></linearGradient><linearGradient id="r"><stop offset="0" stop-color="#841d17"/><stop offset="1" stop-color="#841d17" stop-opacity="0"/></linearGradient><linearGradient id="q"><stop offset="0" stop-color="#841d17"/><stop offset="1" stop-color="#e13b2e" stop-opacity="0"/></linearGradient><linearGradient id="k"><stop offset="0" stop-color="#ff72a3"/><stop offset="1" stop-color="#ff72a3" stop-opacity="0"/></linearGradient><linearGradient id="j"><stop offset="0" stop-color="#ff72a3" stop-opacity=".598"/><stop offset="1" stop-color="#ff72a3" stop-opacity="0"/></linearGradient><linearGradient id="G"><stop offset="0" stop-color="#ffafd8"/><stop offset="1" stop-color="#ffafd8" stop-opacity="0"/></linearGradient><linearGradient id="h"><stop offset="0" stop-color="#ffafd8" stop-opacity=".294"/><stop offset="1" stop-color="#ffafd8" stop-opacity="0"/></linearGradient><linearGradient id="f"><stop offset="0" stop-color="#ff72a3"/><stop offset="1" stop-color="#ff72a3" stop-opacity="0"/></linearGradient><linearGradient id="m"><stop offset="0" stop-color="#ff85b6" stop-opacity=".471"/><stop offset="1" stop-color="#ff85b6" stop-opacity="0"/></linearGradient><linearGradient id="H"><stop offset="0" stop-color="#ffafd9" stop-opacity=".707"/><stop offset="1" stop-color="#ffafd9" stop-opacity="0"/></linearGradient><linearGradient id="n"><stop offset="0" stop-color="#ff9ccc"/><stop offset="1" stop-color="#ff9ccc" stop-opacity="0"/></linearGradient><linearGradient id="p"><stop offset="0" stop-color="#ff85b6" stop-opacity=".471"/><stop offset="1" stop-color="#ff85b6" stop-opacity="0"/></linearGradient><linearGradient id="K"><stop offset="0" stop-color="#ff8db2" stop-opacity=".769"/><stop offset="1" stop-color="#ff8db2" stop-opacity="0"/></linearGradient><linearGradient id="x"><stop offset="0" stop-color="#d93532"/><stop offset="1" stop-color="#b92522"/></linearGradient><linearGradient id="y"><stop offset="0" stop-color="#ff5c60"/><stop offset="1" stop-color="#ff4448"/></linearGradient><linearGradient id="L"><stop offset="0" stop-color="#ff7880" stop-opacity=".696"/><stop offset="1" stop-color="#ff7880" stop-opacity="0"/></linearGradient><linearGradient id="z"><stop offset=".636" stop-color="#2e3676"/><stop offset=".881" stop-color="#304cbf"/><stop offset="1" stop-color="#324ebd"/></linearGradient><linearGradient id="A"><stop offset="0" stop-color="#11100f"/><stop offset="1" stop-color="#211f1e"/></linearGradient><linearGradient xlink:href="#a" id="ax" x1="2212.456" x2="2312.617" y1="1680.377" y2="1824.956" gradientUnits="userSpaceOnUse"/><linearGradient id="a"><stop offset="0" stop-color="#7560fd"/><stop offset="1" stop-color="#fc49a0"/></linearGradient><linearGradient xlink:href="#b" id="ay" x1="2497.154" x2="2653.032" y1="1851.751" y2="1914.049" gradientUnits="userSpaceOnUse"/><linearGradient id="b"><stop offset="0" stop-color="#fff4fd" stop-opacity=".58"/><stop offset="1" stop-color="#fff4fd" stop-opacity="0"/></linearGradient><linearGradient xlink:href="#c" id="az" x1="2954.249" x2="2718.465" y1="1865.4" y2="1974.295" gradientUnits="userSpaceOnUse"/><linearGradient id="c"><stop offset="0" stop-color="#feb3f2"/><stop offset="1" stop-color="#feb3f2" stop-opacity="0"/></linearGradient><linearGradient xlink:href="#d" id="aA" x1="2440.727" x2="2612.54" y1="1886.174" y2="1914.049" gradientUnits="userSpaceOnUse"/><linearGradient id="d"><stop offset="0" stop-color="#fa38df"/><stop offset="1" stop-color="#fa38df" stop-opacity="0"/></linearGradient><linearGradient xlink:href="#d" id="aB" x1="2722.387" x2="2735.231" y1="1809.594" y2="1831.109" gradientUnits="userSpaceOnUse"/><linearGradient id="C"><stop offset="0" stop-color="#fff4fd" stop-opacity=".579"/><stop offset="1" stop-color="#fff4fd" stop-opacity="0"/></linearGradient><linearGradient xlink:href="#e" id="aD" x1="2432.807" x2="2719.721" y1="1964.839" y2="1987.608" gradientUnits="userSpaceOnUse"/><linearGradient id="e"><stop offset="0" stop-color="#fe88dd"/><stop offset="1" stop-color="#fe88dd" stop-opacity="0"/></linearGradient><linearGradient id="F"><stop offset="0" stop-color="#ffd2e6"/><stop offset="1" stop-color="#ffd2e6" stop-opacity="0"/></linearGradient><linearGradient xlink:href="#f" id="Y" x1="85.662" x2="90.98" y1="177.85" y2="90.054" gradientUnits="userSpaceOnUse"/><linearGradient xlink:href="#h" id="Z" x1="73.355" x2="86.52" y1="-15.781" y2="59.093" gradientUnits="userSpaceOnUse"/><linearGradient xlink:href="#j" id="aa" x1="203.582" x2="122.771" y1="-16.063" y2="52.35" gradientUnits="userSpaceOnUse"/><linearGradient xlink:href="#k" id="X" x1="1.902" x2="62.888" y1="39.323" y2="54.519" gradientUnits="userSpaceOnUse"/><linearGradient xlink:href="#m" id="V" x1="19.706" x2="17.924" y1="27.114" y2="16.578" gradientTransform="translate(485.104 524.75)scale(3.54376)" gradientUnits="userSpaceOnUse"/><linearGradient xlink:href="#n" id="ac" x1="230.869" x2="207.165" y1="102.433" y2="97.402" gradientTransform="matrix(-.73369 0 0 .8154 207.071 -2.244)" gradientUnits="userSpaceOnUse"/><linearGradient xlink:href="#p" id="ae" x1="290.386" x2="230.192" y1="136.608" y2="118.047" gradientTransform="matrix(-.8596 0 0 .95534 238.024 -18.348)" gradientUnits="userSpaceOnUse"/><linearGradient xlink:href="#p" id="ab" x1="221.27" x2="214.793" y1="139.702" y2="146.618" gradientTransform="matrix(-.73369 0 0 .8154 207.071 -2.244)" gradientUnits="userSpaceOnUse"/><linearGradient xlink:href="#q" id="as" x1="200.003" x2="172.695" y1="172.358" y2="117.215" gradientUnits="userSpaceOnUse"/><linearGradient xlink:href="#r" id="at" x1="243.747" x2="193.85" y1="125.124" y2="109.806" gradientUnits="userSpaceOnUse"/><linearGradient xlink:href="#s" id="ag" x1="179.257" x2="123.845" y1="117.724" y2="100.621" gradientUnits="userSpaceOnUse"/><linearGradient xlink:href="#t" id="av" x1="193.562" x2="182.204" y1="63.608" y2="100.427" gradientUnits="userSpaceOnUse"/><linearGradient xlink:href="#u" id="R" x1="46.984" x2="43.089" y1="122.259" y2="164.067" gradientUnits="userSpaceOnUse"/><linearGradient xlink:href="#w" id="S" x1="90.736" x2="50.543" y1="202.634" y2="169.847" gradientUnits="userSpaceOnUse"/><linearGradient xlink:href="#s" id="ah" x1="179.257" x2="136.767" y1="117.724" y2="93.399" gradientUnits="userSpaceOnUse"/><linearGradient xlink:href="#x" id="al" x1="68.565" x2="68.565" y1="90.518" y2="108.265" gradientTransform="translate(485.104 524.75)scale(3.54376)" gradientUnits="userSpaceOnUse"/><linearGradient xlink:href="#y" id="am" x1="68.221" x2="68.221" y1="109.85" y2="90.6" gradientTransform="translate(485.104 524.75)scale(3.54376)" gradientUnits="userSpaceOnUse"/><linearGradient xlink:href="#z" id="ao" x1="474.497" x2="474.611" y1="275.064" y2="407.471" gradientTransform="matrix(.53534 .02302 -.02657 .61802 553.147 558.514)" gradientUnits="userSpaceOnUse"/><linearGradient xlink:href="#A" id="ap" x1="187.536" x2="187.536" y1="-7.033" y2="173.616" gradientTransform="matrix(.25813 .01462 -.01462 .25813 751.54 734.39)" gradientUnits="userSpaceOnUse"/><linearGradient xlink:href="#z" id="aq" x1="474.497" x2="474.611" y1="275.064" y2="407.471" gradientTransform="matrix(.53534 .02302 -.02657 .61802 553.147 558.514)" gradientUnits="userSpaceOnUse"/><linearGradient xlink:href="#A" id="ar" x1="187.536" x2="187.536" y1="-7.033" y2="173.616" gradientTransform="matrix(.25813 .01462 -.01462 .25813 751.54 734.39)" gradientUnits="userSpaceOnUse"/><radialGradient xlink:href="#C" id="aC" cx="2721.6" cy="1908.9" r="189" fx="2721.6" fy="1908.9" gradientTransform="translate(60.409 -64.843)" gradientUnits="userSpaceOnUse"/><radialGradient xlink:href="#F" id="aE" cx="110.379" cy="76.226" r="103.45" fx="110.379" fy="76.226" gradientTransform="translate(-1235.361 -157.725)scale(11.49216)" gradientUnits="userSpaceOnUse"/><radialGradient xlink:href="#G" id="af" cx="101.099" cy="118.582" r="82.095" fx="101.099" fy="118.582" gradientTransform="translate(-18.698 -65.522)scale(1.16368)" gradientUnits="userSpaceOnUse"/><radialGradient xlink:href="#H" id="W" cx="54.578" cy="18.65" r="65.908" fx="54.578" fy="18.65" gradientTransform="matrix(1.17151 .08272 -.07097 1.00509 497.226 576.749)" gradientUnits="userSpaceOnUse"/><radialGradient xlink:href="#H" id="ad" cx="45.729" cy="44.876" r="65.908" fx="45.729" fy="44.876" gradientTransform="matrix(-.30212 -.37798 -.23483 .22425 53.735 105.07)" gradientUnits="userSpaceOnUse"/><radialGradient xlink:href="#I" id="au" cx="281.252" cy="157.349" r="118.582" fx="281.252" fy="157.349" gradientTransform="rotate(-13.51 -492.423 1002.562)scale(1.14505)" gradientUnits="userSpaceOnUse"/><radialGradient xlink:href="#J" id="U" cx="31.166" cy="165.71" r="93.497" fx="31.166" fy="165.71" gradientTransform="translate(19.003 4.18)" gradientUnits="userSpaceOnUse"/><radialGradient xlink:href="#K" id="aj" cx="111.142" cy="88.491" r="25.028" fx="111.142" fy="88.491" gradientTransform="translate(200.191 482.48)scale(3.54376)" gradientUnits="userSpaceOnUse"/><radialGradient xlink:href="#K" id="ai" cx="111.142" cy="88.491" r="25.028" fx="111.142" fy="88.491" gradientTransform="translate(200.191 482.48)scale(3.54376)" gradientUnits="userSpaceOnUse"/><radialGradient xlink:href="#L" id="an" cx="69.015" cy="95.086" r="8.287" fx="69.015" fy="95.086" gradientTransform="translate(492.088 552.796)scale(3.3961)" gradientUnits="userSpaceOnUse"/><radialGradient xlink:href="#M" id="ak" cx="297.775" cy="65.575" r="216.075" fx="297.775" fy="65.575" gradientTransform="translate(-193.904 -26.45)" gradientUnits="userSpaceOnUse"/><radialGradient xlink:href="#N" id="aw" cx="99.578" cy="70.693" r="113.17" fx="99.578" fy="70.693" gradientTransform="translate(25.581 -16.913)scale(.79577)" gradientUnits="userSpaceOnUse"/><radialGradient xlink:href="#J" id="T" cx="31.166" cy="165.71" r="93.497" fx="31.166" fy="165.71" gradientTransform="translate(19.003 4.18)" gradientUnits="userSpaceOnUse"/><radialGradient xlink:href="#O" id="aF" cx="1827.5" cy="511.7" r="855.7" fx="1827.5" fy="511.7" gradientUnits="userSpaceOnUse"/><radialGradient xlink:href="#P" id="Q" cx="1947.316" cy="932.944" r="1292.746" fx="1947.316" fy="932.944" gradientTransform="translate(-796.642 576.217)scale(1.16205)" gradientUnits="userSpaceOnUse"/></defs><g transform="translate(-240.078 -170.438)scale(1.18677)"><circle cx="1466.236" cy="1660.344" r="1502.235" fill="url(#Q)"/><g transform="translate(688.076 1314.746)scale(7.29523)"><path fill="#e13b2e" d="M32.767 190.36c14.5 24.029 28.496 18.684 38.811 4.979s16.952-35.772 16.734-45.185c-.222-9.58-4.121-13.17-12.128-22.857C32.134 74 2.239 139.77 32.767 190.36"/><path fill="url(#R)" d="M43.238 108.488c-3.053.17-5.912.915-8.511 2.203-10.377 6.867-15.96 24.048-14.032 43.649 1.109 7.333 3.237 15.43 6.555 24.203a59.29 59.29 0 0 0 54.076-.717c4.528-10.742 7.124-21.728 6.987-27.672-.051-2.188-.32-4.04-.76-5.748-.042-.161-.059-.345-.104-.504-1.565-5.505-5.26-9.34-11.265-16.605-1.573-1.903-3.108-3.51-4.643-5.115-9.776-9.889-19.746-14.17-28.303-13.694"/><ellipse cx="-189.484" cy="-17.389" fill="#f39c96" fill-opacity=".555" rx="7.251" ry="4.724" transform="matrix(-.31522 -.94902 .96617 -.25792 0 0)"/><path fill="url(#S)" d="M76.395 142.906A47.13 47.13 0 0 0 29.58 184.6a88 88 0 0 0 3.188 5.76c14.5 24.029 28.495 18.683 38.81 4.978s16.953-35.77 16.734-45.184c-.052-2.247-.307-4.166-.769-5.91a47 47 0 0 0-11.148-1.338"/><path fill="url(#T)" fill-opacity=".388" d="M46.523 107.55c-25.56-1.615-36.652 44.866-13.755 82.81 14.5 24.029 28.495 18.683 38.81 4.978s16.953-35.77 16.734-45.184c-.221-9.58-4.122-13.17-12.128-22.857-11.013-13.325-21.14-19.208-29.66-19.746" style="mix-blend-mode:overlay"/><path fill="url(#U)" fill-opacity=".388" d="M46.523 107.55c-25.56-1.615-36.652 44.866-13.755 82.81 14.5 24.029 28.495 18.683 38.81 4.978s16.953-35.77 16.734-45.184c-.221-9.58-4.122-13.17-12.128-22.857-11.013-13.325-21.14-19.208-29.66-19.746" style="mix-blend-mode:overlay"/><path fill="#ff9ccc" d="M104.462 51.64c4.906-13.616 26.747-35.375 41.545-41.005 12.557-4.777 24.88-1.618 31.066 6.742s6.234 21.923-5.756 37.95c-5.005 6.69-12.526 14.683-24.786 17.32s-29.257-.081-46.254-2.8c2.613-7.557 2.188-12.665 4.185-18.207"/><path fill="url(#V)" d="M572.078 557.786a103.74 103.74 0 0 0-75.727 32.836c-10.342 40.856-4.21 110.976 11.815 152.617a103.74 103.74 0 0 0 63.912 22.023 103.7 103.7 0 0 0 29.686-4.34c19.174-18.56 35.365-37.085 44.885-55.537 17.204-33.342 12.62-66.435 6.313-91.175-2.593-10.169-5.691-19.382-9.206-27.679a103.74 103.74 0 0 0-71.678-28.745" style="mix-blend-mode:multiply" transform="matrix(.21453 .24816 -.257 .20714 189.089 -233.939)"/><path fill="url(#W)" d="M567.918 525.616c-29.578.588-57.649 22.159-69.546 58.036-6.874 20.727-8.503 51.625-6.029 82.676a101.35 101.35 0 0 0 64.944 23.533 101.35 101.35 0 0 0 96.761-71.208q-.531-2.264-1.086-4.443c-15.112-59.269-47.416-86.046-79.112-88.435a62 62 0 0 0-5.932-.16" style="mix-blend-mode:overlay" transform="matrix(.21453 .24816 -.257 .20714 189.089 -233.939)"/><ellipse cx="97.421" cy="76.648" fill="#ff9ccc" rx="74.995" ry="76.185"/><path fill="url(#X)" d="M97.42.463a74.995 76.185 0 0 0-74.994 76.185 74.995 76.185 0 0 0 10.545 38.954 81 81 0 0 0 8.955.498 80.625 80.625 0 0 0 80.625-80.625 80.6 80.6 0 0 0-6.947-32.739A74.995 76.185 0 0 0 97.42.463"/><path fill="url(#Y)" d="M90.3 51.6a91.9 91.9 0 0 0-67.73 29.779 74.995 76.185 0 0 0 74.85 71.453 74.995 76.185 0 0 0 72.234-55.697A91.91 91.91 0 0 0 90.301 51.6"/><path fill="url(#Z)" fill-opacity=".294" d="M97.42.463a74.995 76.185 0 0 0-74.994 76.185 74.995 76.185 0 0 0 12.332 41.856 117.1 117.1 0 0 0 48.72 10.621 117.06 117.06 0 0 0 87.88-39.729 74.995 76.185 0 0 0 1.058-12.748A74.995 76.185 0 0 0 97.42.463" style="mix-blend-mode:overlay"/><path fill="url(#aa)" d="M97.42.463a74.995 76.185 0 0 0-25.436 4.516 80.6 80.6 0 0 0-3.183 22.433 80.625 80.625 0 0 0 80.625 80.625 80.6 80.6 0 0 0 17.119-1.838 74.995 76.185 0 0 0 5.871-29.55A74.995 76.185 0 0 0 97.42.462" style="mix-blend-mode:multiply"/><path fill="url(#ab)" fill-opacity=".471" d="M58.177 102.29c-1.185 3.36-2.771 6.437-4.716 9.001-2.917 3.848-12.32 6.678-18.546 8.635a79.49 80.75 0 0 0 6.562 8.81c8.496-4.606 16.7-16.692 16.7-26.446" style="mix-blend-mode:multiply" transform="translate(1.721 5.208)scale(.94346)"/><path fill="url(#ac)" d="M39.836 59.018c-6.354 1.238-15.263 4.15-22.273 8.81-30.772 20.456-17.851 63.092 16.77 54.821 7.01-1.674 14.216-4.878 19.129-11.357 4.913-6.48 7.533-16.236 7.206-25.555-.328-9.319-3.603-18.2-7.14-22.86-3.538-4.66-7.337-5.096-13.692-3.859" transform="translate(1.721 5.208)scale(.94346)"/><path fill="url(#ad)" d="M44.159 58.445c3.915-.181 6.715.937 9.368 4.432 3.538 4.66 6.813 13.542 7.14 22.861.329 9.32-2.292 19.073-7.206 25.553-4.913 6.48-12.117 9.684-19.127 11.358-34.622 8.271-47.542-34.365-16.77-54.821 7.01-4.66 15.918-7.572 22.273-8.81 1.588-.31 3.017-.513 4.322-.573" style="mix-blend-mode:overlay" transform="translate(1.721 5.208)scale(.94346)"/><path fill="url(#ae)" fill-opacity=".471" d="M43.678 58.473c-1.173.083-2.447.273-3.842.545-6.354 1.237-15.262 4.15-22.272 8.81-30.772 20.456-17.852 63.091 16.77 54.82 7.01-1.674 14.214-4.877 19.127-11.357 1.665-2.196 3.067-4.768 4.18-7.572a54.155 60.187 0 0 0 .166-4.703 54.155 60.187 0 0 0-14.13-40.543" style="mix-blend-mode:multiply" transform="translate(1.721 5.208)scale(.94346)"/><path fill="url(#af)" d="M97.42.463c-9.71 0-21.086 2.82-32.815 7.68a74.995 76.185 0 0 0-31.375 29.11 74.995 76.185 0 0 0-4.673 9.224 74.995 76.185 0 0 0-5.453 19.943 47 47 0 0 0-4.814 2.78 42.5 42.5 0 0 0-4.965 3.848c-2.995 2.706-5.366 5.67-7.154 8.76a33 33 0 0 0-2.25 4.712 31 31 0 0 0-1.404 4.8 30 30 0 0 0-.395 2.4c-.491 3.99-.15 7.912.943 11.504.876 2.873 2.233 5.534 4.032 7.85v.001a22.4 22.4 0 0 0 4.775 4.567 22.4 22.4 0 0 0 3.961 2.228q1.065.465 2.201.83c3.033.974 6.446 1.398 10.2 1.139a34 34 0 0 0 2.876-.324q1.471-.228 3.002-.594.962-.228 1.926-.5a74.995 76.185 0 0 0 .104.129 74.995 76.185 0 0 0 4.71 6.115c.037-.02.073-.048.11-.068a74.995 76.185 0 0 0 36.17 23.394 74.995 76.185 0 0 0 20.273 2.84 74.995 76.185 0 0 0 .014 0 74.995 76.185 0 0 0 .088 0 74.995 76.185 0 0 0 8.396-.531c.705-.081 1.397-.204 2.096-.305a74.995 76.185 0 0 0 6.49-1.228c.652-.155 1.305-.304 1.95-.475a74.995 76.185 0 0 0 7.851-2.522l.072-.025a74.995 76.185 0 0 0 7.785-3.611c.516-.274 1.012-.578 1.52-.864a74.995 76.185 0 0 0 5.723-3.568c.587-.404 1.182-.8 1.757-1.22a74.995 76.185 0 0 0 6.477-5.239 74.995 76.185 0 0 0 5.652-5.76 74.995 76.185 0 0 0 4.782-6.064c.425-.593.812-1.216 1.22-1.822a74.995 76.185 0 0 0 3.032-4.864q.567-.999 1.105-2.015a74.995 76.185 0 0 0 2.576-5.37c.243-.558.5-1.108.73-1.673a74.995 76.185 0 0 0 4.473-16.104l.112-.12c.165-.991.29-1.994.418-2.997a74.995 76.185 0 0 0 .072-.582 74.995 76.185 0 0 0 .62-9.225 74.995 76.185 0 0 0-.003-.652 78 78 0 0 0-.654-9.334 74.995 76.185 0 0 0-1.844-9.521 74.995 76.185 0 0 0 0-.002l.014-.018c-4.66-17.901-15.572-33.22-30.219-43.398q-.003 0-.006.004h-.002a74.995 76.185 0 0 0-.508-.31c-2.54-1.734-5.206-3.284-7.953-4.698a74.995 76.185 0 0 0-3.732-1.7 74 74 0 0 0-5.477-2.214 74.995 76.185 0 0 0-4.338-1.38 74 74 0 0 0-6.312-1.493 74.995 76.185 0 0 0-1.381-.254 74.995 76.185 0 0 0-.451-.084 74.995 76.185 0 0 0-1.778-.328c-3.39-.476-6.831-.802-10.352-.802" style="mix-blend-mode:overlay"/><path fill="url(#ag)" d="M143.537 16.564A82.855 82.855 0 0 0 89.64 94.195a82.86 82.86 0 0 0 22.756 57.035 74.995 76.185 0 0 0 2.095-.462c.652-.155 1.305-.304 1.95-.475a74.995 76.185 0 0 0 7.851-2.522l.072-.025a74.995 76.185 0 0 0 7.785-3.611c.516-.274 1.012-.578 1.52-.864a74.995 76.185 0 0 0 5.723-3.568c.587-.404 1.182-.8 1.757-1.22a74.995 76.185 0 0 0 6.477-5.239 74.995 76.185 0 0 0 5.652-5.76 74.995 76.185 0 0 0 4.782-6.064c.425-.593.812-1.216 1.22-1.822a74.995 76.185 0 0 0 3.032-4.864q.567-.999 1.105-2.015a74.995 76.185 0 0 0 2.576-5.37c.243-.558.5-1.108.73-1.673a74.995 76.185 0 0 0 4.473-16.104l.112-.12c.165-.991.29-1.994.418-2.997a74.995 76.185 0 0 0 .072-.582 74.995 76.185 0 0 0 .62-9.225 74.995 76.185 0 0 0-.003-.652 78 78 0 0 0-.654-9.334 74.995 76.185 0 0 0-1.844-9.521 74.995 76.185 0 0 0 0-.002l.014-.018a76.34 76.34 0 0 0-26.393-40.557"/><path fill="url(#ah)" d="M143.537 16.564A82.855 82.855 0 0 0 89.64 94.195a82.86 82.86 0 0 0 22.756 57.035 74.995 76.185 0 0 0 2.095-.462c.652-.155 1.305-.304 1.95-.475a74.995 76.185 0 0 0 7.851-2.522l.072-.025a74.995 76.185 0 0 0 7.785-3.611c.516-.274 1.012-.578 1.52-.864a74.995 76.185 0 0 0 5.723-3.568c.587-.404 1.182-.8 1.757-1.22a74.995 76.185 0 0 0 6.477-5.239 74.995 76.185 0 0 0 5.652-5.76 74.995 76.185 0 0 0 4.782-6.064c.425-.593.812-1.216 1.22-1.822a74.995 76.185 0 0 0 3.032-4.864q.567-.999 1.105-2.015a74.995 76.185 0 0 0 2.576-5.37c.243-.558.5-1.108.73-1.673a74.995 76.185 0 0 0 4.473-16.104l.112-.12c.165-.991.29-1.994.418-2.997a74.995 76.185 0 0 0 .072-.582 74.995 76.185 0 0 0 .62-9.225 74.995 76.185 0 0 0-.003-.652 78 78 0 0 0-.654-9.334 74.995 76.185 0 0 0-1.844-9.521 74.995 76.185 0 0 0 0-.002l.014-.018a76.34 76.34 0 0 0-26.393-40.557"/><g fill-opacity=".769" transform="matrix(.24975 -.05635 .0591 .23818 -56.153 -108.996)"><ellipse cx="677.882" cy="745.614" fill="#ff588e" rx="35.625" ry="25.198" transform="rotate(5.952)"/><path fill="url(#ai)" d="M617.006 710.4a88.7 88.7 0 0 0-22.955-3.023 88.7 88.7 0 0 0-63.151 26.415q1.023.925 2.061 1.849l.003.003.005.005.003.002.043.041.008.008.027.026a282.508 283.93 13.311 0 0-.147.622 282.508 283.93 13.311 0 0-6.205 36.86 282.508 283.93 13.311 0 0-.148 4.132 282.508 283.93 13.311 0 0-.002.052 282.508 283.93 13.311 0 0 0 .038 282.508 283.93 13.311 0 0-.003.054 282.508 283.93 13.311 0 0 0 .031 282.508 283.93 13.311 0 0-.013.34 282.508 283.93 13.311 0 0-1.167 32.7 282.508 283.93 13.311 0 0 3.563 37.189l-.026.152-.34 2.055-.018.012-.007.005-.027.02-.025.016-.59.407q-1.274.876-2.546 1.758a88.7 88.7 0 0 0 68.702 32.598 88.695 88.695 0 0 0 88.694-88.695 88.695 88.695 0 0 0-65.739-85.672" opacity=".483" style="mix-blend-mode:overlay"/></g><g fill-opacity=".769" transform="matrix(.29472 -.0665 .06973 .28106 -167.128 -124.546)"><ellipse cx="677.882" cy="745.614" fill="#ff588e" rx="35.625" ry="25.198" transform="rotate(5.952)"/><path fill="url(#aj)" d="M617.006 710.4a88.7 88.7 0 0 0-22.955-3.023 88.7 88.7 0 0 0-63.151 26.415q1.023.925 2.061 1.849l.003.003.005.005.003.002.043.041.008.008.027.026a282.508 283.93 13.311 0 0-.147.622 282.508 283.93 13.311 0 0-6.205 36.86 282.508 283.93 13.311 0 0-.148 4.132 282.508 283.93 13.311 0 0-.002.052 282.508 283.93 13.311 0 0 0 .038 282.508 283.93 13.311 0 0-.003.054 282.508 283.93 13.311 0 0 0 .031 282.508 283.93 13.311 0 0-.013.34 282.508 283.93 13.311 0 0-1.167 32.7 282.508 283.93 13.311 0 0 3.563 37.189l-.026.152-.34 2.055-.018.012-.007.005-.027.02-.025.016-.59.407q-1.274.876-2.546 1.758a88.7 88.7 0 0 0 68.702 32.598 88.695 88.695 0 0 0 88.694-88.695 88.695 88.695 0 0 0-65.739-85.672" opacity=".483" style="mix-blend-mode:overlay"/></g><path fill="url(#ak)" d="M97.42.463c-1.998 0-4.072.131-6.2.363A74.995 76.185 0 0 0 71.985 4.98a74.995 76.185 0 0 0-7.37 3.16q-.005 0-.009.004a74.995 76.185 0 0 0-8.38 4.91 74.995 76.185 0 0 0-.12.07 74.995 76.185 0 0 0-.609.356 74.995 76.185 0 0 1-.002.002 74.995 76.185 0 0 0-1.773 1.408 74.995 76.185 0 0 0-.004.002 74.995 76.185 0 0 0-5.252 4.172 74.995 76.185 0 0 0-2.59 2.402 74.995 76.185 0 0 0-.002.002 74.995 76.185 0 0 1-.002.002 74.995 76.185 0 0 0-4.484 4.727 74.995 76.185 0 0 0-1.489 1.57 74.995 76.185 0 0 1-.002.002 74.995 76.185 0 0 0-.718 1.01 74.995 76.185 0 0 0-.004.003 74.995 76.185 0 0 0-4.313 6.055 74.995 76.185 0 0 0-1.135 1.594 74.995 76.185 0 0 1-.002.002 74.995 76.185 0 0 0-.199.385 74.995 76.185 0 0 0-.004.006 74.995 76.185 0 0 0-.29.431 74.995 76.185 0 0 0-2.628 5.184 74.995 76.185 0 0 0-1.898 3.744 74.995 76.185 0 0 0-.149.295 74.995 76.185 0 0 0-2.212 6.373 74.995 76.185 0 0 0-1.13 3.252 74.995 76.185 0 0 0-2.11 10.318 49 49 0 0 0-3.092 1.698q-.878.523-1.721 1.083a43 43 0 0 0-2.858 2.092c-.354.28-.687.57-1.027.856-.324.273-.668.536-.978.814l-.063.053-.039.033c-.037.033-.063.07-.1.104-.202.184-.39.373-.588.56-.414.394-.8.798-1.189 1.201-.44.456-.877.912-1.285 1.38-.218.249-.44.497-.649.75-.053.064-.117.124-.17.189-.193.237-.364.482-.55.722q-.364.468-.707.942c-.391.54-.757 1.087-1.11 1.638-.191.3-.388.597-.568.899q-.031.047-.06.096c-.04.066-.087.13-.126.197l-.052.082c-.067.114-.117.233-.182.348-.154.274-.29.55-.436.826-.11.208-.229.415-.333.625-.056.111-.124.22-.178.332l-.045.097c-.134.279-.246.56-.371.84q-.194.431-.373.864c-.092.221-.196.441-.282.664-.015.039-.035.077-.05.117-.015.039-.025.078-.04.117-.072.192-.126.384-.195.576-.057.16-.108.322-.162.483l-.037.107c-.074.223-.162.443-.23.666l-.094.299c-.054.18-.097.36-.147.539-.08.288-.145.576-.216.865-.084.337-.177.673-.248 1.01-.01.046-.026.091-.036.137-.045.218-.067.436-.107.654q-.085.45-.154.898c-.036.233-.078.466-.108.698-.006.05-.019.1-.025.15-.012.098-.01.195-.022.293-.029.259-.048.515-.07.773-.021.247-.05.494-.064.74-.017.267-.02.53-.03.796-.007.217-.017.435-.02.652q-.001.337.005.672c.002.153-.01.31-.006.463l.004.047c.01.306.043.606.062.91.018.282.03.564.057.843.012.124.016.25.03.374q.02.188.046.376c.034.28.087.552.129.829.03.202.058.406.094.607.026.149.04.301.068.45l.065.302q.047.224.1.445c.058.263.13.52.196.78.083.322.158.647.252.964.019.062.029.127.047.188.031.102.073.2.106.3q.067.215.138.426c.058.172.123.339.184.508.08.223.157.448.244.668.108.276.232.542.35.813.077.176.142.358.222.533l.135.28q.098.203.2.404c.155.31.329.61.497.914.097.173.185.352.286.523.046.08.087.163.134.242l.034.057c.036.06.08.116.117.176.189.304.397.594.6.888.209.305.413.614.636.908.052.068.096.142.148.21v.001c.085.11.191.201.278.31a23 23 0 0 0 1.642 1.823c.102.101.184.22.287.319.051.048.113.086.165.134l.002.002a22 22 0 0 0 2.224 1.832c.063.046.115.102.178.147.221.156.465.289.693.437.309.202.615.405.936.592.31.181.634.347.955.514.17.089.334.185.508.27q.278.134.56.261c.106.048.202.108.309.154.254.111.527.195.787.297.35.138.699.278 1.06.4.12.042.232.095.354.134.268.085.555.143.828.22.374.106.746.212 1.13.301.396.091.802.163 1.208.236.193.035.378.083.574.114q.337.051.68.093c.417.055.845.09 1.273.125.43.036.859.07 1.3.086.448.017.908.012 1.368.008a30 30 0 0 0 1.338-.033c.17-.009.33 0 .5-.012.298-.02.612-.074.914-.103l.04-.004c.214-.021.42-.026.636-.051.252-.03.51-.072.766-.107.176-.025.344-.031.521-.059q1.47-.228 3.002-.594.962-.228 1.926-.5a74.995 76.185 0 0 0 .023.03 74.995 76.185 0 0 0 4.791 6.214h.004v-.002h.002l.11-.06a74.995 76.185 0 0 0 5.095 5.32 74.995 76.185 0 0 0 1.668 1.586 74.995 76.185 0 0 0 4.924 4.069 74.995 76.185 0 0 0 .01.008 74.995 76.185 0 0 0 2.744 1.974 74.995 76.185 0 0 0 4.768 3.084 74.995 76.185 0 0 0 3.957 2.088 74.995 76.185 0 0 0 4.254 2.094 74.995 76.185 0 0 0 8.744 3.166 74.995 76.185 0 0 0 10.04 2.125 74.995 76.185 0 0 0 6.108.426 74.995 76.185 0 0 0 1.99.138 74.995 76.185 0 0 0 2.135.15 74.995 76.185 0 0 0 .014 0 74.995 76.185 0 0 0 .088 0 74.995 76.185 0 0 0 8.396-.53c.128-.015.252-.038.38-.055a74.995 76.185 0 0 0 2.571-.399 74.995 76.185 0 0 0 3.54-.617 74.995 76.185 0 0 0 2.095-.463q.63-.151 1.26-.306a74.995 76.185 0 0 0 3.965-1.22 74.995 76.185 0 0 0 4.576-1.47l.072-.025a74.995 76.185 0 0 0 .828-.385 74.995 76.185 0 0 0 3.61-1.674 74.995 76.185 0 0 0 3.347-1.553c.515-.274 1.012-.577 1.52-.863a74.995 76.185 0 0 0 .07-.043 74.995 76.185 0 0 0 3.518-2.193 74.995 76.185 0 0 0 2.135-1.332c.587-.405 1.182-.8 1.757-1.221a74.995 76.185 0 0 0 .553-.447 74.995 76.185 0 0 0 3.285-2.657 74.995 76.185 0 0 0 2.639-2.134 74.995 76.185 0 0 0 1.496-1.526 74.995 76.185 0 0 0 2.299-2.34 74.995 76.185 0 0 0 1.857-1.894 74.995 76.185 0 0 0 2.01-2.549 74.995 76.185 0 0 0 2.156-2.734 74.995 76.185 0 0 0 .616-.782c.425-.593.812-1.216 1.22-1.822a74.995 76.185 0 0 0 1.63-2.611 74.995 76.185 0 0 0 1.737-2.863c.26-.467.52-.933.77-1.405a74.995 76.185 0 0 0 2.576-5.369l.117-.266a74.995 76.185 0 0 0 .436-.884 74.995 76.185 0 0 0 4.648-16.617l.164-.186a74.995 76.185 0 0 0 .2-1.592 74.995 76.185 0 0 0 .24-1.931 74.995 76.185 0 0 0 .619-9.225 74.995 76.185 0 0 0 0-.258 74.995 76.185 0 0 0-.002-.394 78 78 0 0 0-.654-9.334 74.995 76.185 0 0 0-.073-.37 74.995 76.185 0 0 0-.052-.613 74.995 76.185 0 0 0-1.719-8.539 74.995 76.185 0 0 0 0-.002l.014-.017c.159-.2.302-.395.457-.594h.002a32.762 33.93 90 0 0 .013-.006q.468-.602.909-1.191c3.299-4.41 5.687-8.634 7.287-12.614a39 39 0 0 0 1.476-4.385v-.002a33 33 0 0 0 .846-4.16c.544-4.042.201-7.72-.852-10.949v-.002a21 21 0 0 0-1.283-3.076v-.002q-.376-.73-.806-1.42v-.002a20 20 0 0 0-.91-1.34 20 20 0 0 0-1.233-1.504c-.044-.05-.1-.088-.145-.136a21 21 0 0 0-2.1-1.989q-.171-.14-.349-.28a22 22 0 0 0-2.316-1.593c-.67-.4-1.387-.732-2.104-1.066-.35-.163-.678-.36-1.039-.506-6.217-2.531-13.951-2.648-21.783.332-.061.023-.128.06-.19.084-.665.258-1.341.539-2.033.86a33.533 34.73 90 0 0-.002 0c-.116.053-.242.133-.359.189a48 48 0 0 0-3.705 1.953l-.006.004h-.002a74.995 76.185 0 0 0-.508-.309 74.995 76.185 0 0 0-23.58-10.654l-.012-.028a74.995 76.185 0 0 0-.19-.035 74.995 76.185 0 0 0-.194-.062 74.995 76.185 0 0 1-.002 0 74.995 76.185 0 0 0-2.317-.428 74.995 76.185 0 0 0-1.517-.28 74.995 76.185 0 0 0-.024-.003 74.995 76.185 0 0 0-.13-.026 74.995 76.185 0 0 0-1.227-.224 74.995 76.185 0 0 0-.36-.067 74.995 76.185 0 0 0-.052-.01 74.995 76.185 0 0 0-.01-.001 74.995 76.185 0 0 0-.006-.002 74.995 76.185 0 0 0-.024-.004 74.995 76.185 0 0 0-3.078-.569 74.995 76.185 0 0 0-9.045-.562z" style="mix-blend-mode:overlay"/><path fill="url(#al)" d="M763.635 856.2c1.973 5.12 1.218 10.784-1.618 17.164-6.434 14.478-20.602 27.6-31.503 31.102-10.795 3.47-21.726-8.082-30.561-22.047-18.158-28.7-4.533-41.214 14.78-43.573 19.311-2.36 44.31 5.436 48.902 17.354" transform="matrix(.25613 -.07515 .0813 .24125 -149.288 -88.87)"/><path fill="url(#am)" d="M723.878 854.763a43.45 43.45 0 0 0-31.125 13.137c1.371 4.136 3.666 8.939 7.198 14.521 8.835 13.965 19.77 25.514 30.565 22.045 10.341-3.323 23.624-15.302 30.454-28.883a43.45 43.45 0 0 0-37.092-20.82" transform="matrix(.25613 -.07515 .0813 .24125 -149.288 -88.87)"/><path fill="url(#an)" d="M723.878 854.763a43.45 43.45 0 0 0-20.799 5.302 28.15 28.15 0 0 0-4.755 15.656 28 28 0 0 0 .395 4.707q.589.98 1.232 1.993c5.515 8.718 11.852 16.497 18.46 20.266a28.2 28.2 0 0 0 8.056 1.177 28.2 28.2 0 0 0 8.762-1.399c5.033-2.612 10.391-6.82 15.179-11.946a28.15 28.15 0 0 0 4.208-14.798 28.2 28.2 0 0 0-1.806-9.932 43.45 43.45 0 0 0-28.932-11.026" transform="matrix(.25613 -.07515 .0813 .24125 -149.288 -88.87)"/><path fill="url(#ao)" d="M824.17 757.915c-1.66 38.628-13.043 70.276-27.808 69.641-14.764-.635-25.233-33.569-23.572-72.197 1.66-38.627 14.857-63.342 29.622-62.707s22.5 25.37 20.838 63.999" transform="matrix(.26395 -.08459 .08097 .27875 -155.713 -110.015)"/><path fill="#fff" d="M112.15 15.118c.742-.201 1.526-.23 2.112-.1 2.31.508 3.323 2.776 4.454 5.526.607 1.478 1.89 3.908 2.085 5.529.407 3.37-.198 6.525-2.508 8.081-.593.4-.982.468-1.525.597-1.172.278-2.555-.01-3.616-.73-1.18-.801-2.16-2.014-2.865-3.367-.673-1.293-1.199-2.99-1.642-5.023-.546-2.507-.604-4.226-.175-6.23.282-1.316.872-2.503 1.795-3.316.465-.408 1.149-.767 1.886-.967"/><path fill="url(#ap)" d="M800.618 689.564c9.248-.215 18.214 9.528 22.268 28.431 5.068 23.632 3.196 67.416-3.87 90.485-11.282 36.84-39.753 36.783-46.198-9.366-2.652-18.992-2.08-54.333 3.84-78.238 5.182-20.925 14.712-31.097 23.96-31.312m.835 7.413c-3.173-.175-6.431.948-8.98 3.42-11.024 10.683-11.365 49.07 2.854 53.687 4.402 1.429 8.226.598 11.763-2.557 10.228-9.118 11.654-39.181 2.823-50.156-2.202-2.737-5.288-4.217-8.46-4.393m14.877 83.485-2.506 3.11c-9.663 11.99-26.476 9.374-33.427-2.778-1.355-2.37-1.383-2.098-.713 6.945 3.867 52.21 28.46 51.476 36.126-3.545z" transform="matrix(.26395 -.08459 .08097 .27875 -155.713 -110.015)"/><path fill="url(#aq)" d="M824.17 757.915c-1.66 38.628-13.043 70.276-27.808 69.641-14.764-.635-25.233-33.569-23.572-72.197 1.66-38.627 14.857-63.342 29.622-62.707s22.5 25.37 20.838 63.999" transform="matrix(.26785 -.0713 .06694 .28244 -177.556 -119.665)"/><path fill="#fff" d="M83.723 18.687c.75-.164 1.534-.153 2.113.005 2.282.623 3.18 2.94 4.172 5.743.533 1.506 1.692 3.996 1.807 5.625.238 3.386-.525 6.508-2.909 7.946-.612.37-1.004.418-1.553.52-1.184.219-2.551-.138-3.575-.91-1.14-.859-2.057-2.12-2.693-3.505-.607-1.325-1.048-3.046-1.389-5.099-.42-2.532-.392-4.251.136-6.232.347-1.3.997-2.455 1.96-3.22.483-.385 1.185-.71 1.931-.873"/><path fill="url(#ar)" d="M800.618 689.564c9.248-.215 18.214 9.528 22.268 28.431 5.068 23.632 3.196 67.416-3.87 90.485-11.282 36.84-39.753 36.783-46.198-9.366-2.652-18.992-2.08-54.333 3.84-78.238 5.182-20.925 14.712-31.097 23.96-31.312m.835 7.413c-3.173-.175-6.431.948-8.98 3.42-11.024 10.683-11.365 49.07 2.854 53.687 4.402 1.429 8.226.598 11.763-2.557 10.228-9.118 11.654-39.181 2.823-50.156-2.202-2.737-5.288-4.217-8.46-4.393m14.877 83.485-2.506 3.11c-9.663 11.99-26.476 9.374-33.427-2.778-1.355-2.37-1.383-2.098-.713 6.945 3.867 52.21 28.46 51.476 36.126-3.545z" transform="matrix(.26785 -.0713 .06694 .28244 -177.556 -119.665)"/><g transform="matrix(1 0 0 .9361 -3.04 7.862)"><path fill="#e13b2e" d="M193.906 75.454c20.107-.424 25.974 19.064 18.504 41.389-6.944 20.752-20.88 43.364-41.082 51.38-23.387 9.279-40.089-10.227-41.05-30.657-1.264-26.862 40.156-61.618 63.628-62.112"/><path fill="url(#as)" d="M202.637 83.85a70.95 70.95 0 0 0-70.588 63.793c4.985 16.09 19.818 28.302 39.28 20.58 20.2-8.016 34.137-30.629 41.081-51.381 4.282-12.798 4.181-24.662-.472-32.38a71 71 0 0 0-9.301-.612"/><ellipse cx="145.249" cy="143.679" fill="#f39c96" fill-opacity=".555" rx="7.995" ry="4.941" transform="rotate(-19.642)"/><path fill="url(#at)" d="M203.516 77.115a44.47 44.47 0 0 0-37.616 43.938 44.47 44.47 0 0 0 20.678 37.568c12.097-10.729 20.8-26.742 25.832-41.78 6.104-18.24 3.303-34.587-8.894-39.726"/><path fill="url(#au)" d="M193.906 75.453c-23.472.495-64.893 35.251-63.629 62.113a40.6 40.6 0 0 0 1.373 8.704 136 136 0 0 0 7.473-1.575 135.78 135.78 0 0 0 76.182-49.6c-1.308-11.816-8.359-19.917-21.399-19.642" style="mix-blend-mode:overlay"/><path fill="url(#av)" d="M193.906 75.453c-15.186.32-37.884 14.98-51.676 32.567a54.05 54.05 0 0 0 46.83 27.062 54 54 0 0 0 16.907-2.713 119 119 0 0 0 6.443-15.527c7.47-22.325 1.603-41.813-18.504-41.389" style="mix-blend-mode:overlay"/></g><path fill="url(#aw)" d="M97.42.463c-1.998 0-4.072.131-6.2.363A74.995 76.185 0 0 0 71.985 4.98a74.995 76.185 0 0 0-7.37 3.16q-.005 0-.009.004a74.995 76.185 0 0 0-8.38 4.91 74.995 76.185 0 0 0-.12.07 74.995 76.185 0 0 0-.609.356 74.995 76.185 0 0 1-.002.002 74.995 76.185 0 0 0-1.773 1.408 74.995 76.185 0 0 0-.004.002 74.995 76.185 0 0 0-5.252 4.172 74.995 76.185 0 0 0-2.59 2.402 74.995 76.185 0 0 0-.002.002 74.995 76.185 0 0 1-.002.002 74.995 76.185 0 0 0-4.484 4.727 74.995 76.185 0 0 0-1.489 1.57 74.995 76.185 0 0 1-.002.002 74.995 76.185 0 0 0-.718 1.01 74.995 76.185 0 0 0-.004.003 74.995 76.185 0 0 0-4.313 6.055 74.995 76.185 0 0 0-1.135 1.594 74.995 76.185 0 0 1-.002.002 74.995 76.185 0 0 0-.199.385 74.995 76.185 0 0 0-.004.006 74.995 76.185 0 0 0-.29.431 74.995 76.185 0 0 0-2.628 5.184 74.995 76.185 0 0 0-1.898 3.744 74.995 76.185 0 0 0-.149.295 74.995 76.185 0 0 0-2.212 6.373 74.995 76.185 0 0 0-1.13 3.252 74.995 76.185 0 0 0-2.11 10.318 49 49 0 0 0-3.528 1.961 90.06 90.06 0 0 0 85.246 61.02 90.06 90.06 0 0 0 62.512-25.229 74.995 76.185 0 0 0 3.86-14.59l.163-.185a74.995 76.185 0 0 0 .2-1.592 74.995 76.185 0 0 0 .24-1.932 74.995 76.185 0 0 0 .619-9.224 74.995 76.185 0 0 0 0-.258 74.995 76.185 0 0 0-.002-.395 78 78 0 0 0-.654-9.334 74.995 76.185 0 0 0-.073-.369 74.995 76.185 0 0 0-.052-.613 74.995 76.185 0 0 0-1.72-8.54 74.995 76.185 0 0 0 0-.001l.014-.018c.16-.2.303-.395.458-.593h.002a32.762 33.93 90 0 0 .013-.006q.468-.601.908-1.192c3.3-4.41 5.688-8.633 7.288-12.613a39 39 0 0 0 1.476-4.385v-.002a33 33 0 0 0 .846-4.16c.544-4.042.201-7.72-.852-10.95v-.001a21 21 0 0 0-1.283-3.076v-.002q-.376-.73-.807-1.42v-.002a20 20 0 0 0-.91-1.34 20 20 0 0 0-1.232-1.504c-.045-.05-.1-.088-.145-.137a21 21 0 0 0-2.1-1.988q-.173-.142-.349-.28a22 22 0 0 0-2.316-1.593c-.67-.4-1.387-.733-2.104-1.066-.35-.164-.678-.36-1.039-.506-6.217-2.532-13.951-2.648-21.783.332-.061.023-.128.06-.19.084-.665.258-1.341.539-2.033.86a33.533 34.73 90 0 0-.002 0c-.116.053-.242.133-.359.189a48 48 0 0 0-3.705 1.953l-.006.004h-.002a74.995 76.185 0 0 0-.508-.309 74.995 76.185 0 0 0-23.58-10.654l-.012-.028a74.995 76.185 0 0 0-.19-.035 74.995 76.185 0 0 0-.194-.062 74.995 76.185 0 0 1-.002 0 74.995 76.185 0 0 0-2.317-.428 74.995 76.185 0 0 0-1.517-.28 74.995 76.185 0 0 0-.024-.003 74.995 76.185 0 0 0-.13-.026 74.995 76.185 0 0 0-1.227-.224 74.995 76.185 0 0 0-.36-.067 74.995 76.185 0 0 0-.052-.01 74.995 76.185 0 0 0-.01-.001 74.995 76.185 0 0 0-.006-.002 74.995 76.185 0 0 0-.024-.004 74.995 76.185 0 0 0-3.078-.569 74.995 76.185 0 0 0-9.045-.562z" style="mix-blend-mode:overlay"/></g><g transform="rotate(-4.987 -46750.323 69552.91)scale(2.82107)"><path fill="url(#ax)" d="M2216.662 1643.646c-17.654-8.91-49.992-22.439-77.289-20.786-61.136 3.702-132.426 83.654-26.992 197.836 33.953 36.77 86.358 74.227 118.82 88.579s44.98 5.597 68.739-15.688c104.25-93.39 116.353-170.294 92.264-217.9-24.09-47.604-84.372-65.91-124.89-42.105-13.2 7.754-20.129 17.654-25.078 20.459-4.95 2.804-7.92-1.485-25.574-10.395" transform="translate(462.45 186.41)"/><path fill="url(#ay)" fill-opacity=".58" d="M2601.822 1809.27c-61.136 3.701-132.426 83.653-26.992 197.836 6.773 7.334 14.28 14.698 22.217 21.898a148.777 148.777 0 0 0 148.777-148.777 148.8 148.8 0 0 0-13.406-61.72q-1.34.713-2.654 1.485c-13.2 7.755-20.129 17.654-25.079 20.46-4.95 2.804-7.92-1.486-25.574-10.395-17.654-8.91-49.992-22.44-77.289-20.787" style="mix-blend-mode:overlay"/><path fill="url(#az)" d="M2612.033 1809.309a159.4 159.4 0 0 0-30.181 93.338 159.42 159.42 0 0 0 159.42 159.418 159.4 159.4 0 0 0 47.394-7.208c79.882-82.039 87.88-149.498 65.988-192.76-24.09-47.604-84.372-65.91-124.89-42.105-13.2 7.755-20.129 17.654-25.079 20.46-4.95 2.804-7.92-1.486-25.574-10.395-15.494-7.82-42.298-19.199-67.078-20.748"/><path fill="url(#aA)" d="M2610.35 1809.219a81 81 0 0 0-8.528.05c-59.652 3.613-128.972 79.82-34.357 189.587a134.89 134.89 0 0 0 107.441-132.069 134.9 134.9 0 0 0-6.668-41.888c-16-7.123-37.721-14.783-57.888-15.68"/><path fill="url(#aB)" d="M2768.664 1809.594c-13.72.129-27.142 3.49-38.9 10.398-12.497 7.342-19.375 16.608-24.272 19.953-9.315 16.958-5.7 35.805-1.758 40.282 3.983 4.522 8.3-5.626 16.291-15.893 7.992-10.267 19.658-20.65 30.801-29.617s21.763-16.518 21.524-21.19c-.086-1.666-1.554-2.967-3.686-3.933"/><ellipse cx="775.635" cy="3251.518" fill="#fff4fd" rx="17.314" ry="21.338" transform="rotate(-42.844)"/><path fill="url(#aC)" d="M2601.822 1809.27a77 77 0 0 0-5.69.56 189 189 0 0 0-3.124 34.227 189 189 0 0 0 189 189 189 189 0 0 0 28.314-2.133c59.517-71.23 64.056-129.849 44.332-168.826-24.09-47.605-84.372-65.91-124.89-42.106-13.2 7.755-20.129 17.654-25.079 20.46-4.95 2.804-7.92-1.486-25.574-10.395-17.654-8.91-49.992-22.44-77.289-20.787"/><path fill="url(#aD)" d="M2601.822 1809.27c-61.136 3.701-132.426 83.653-26.992 197.836 33.953 36.77 86.358 74.228 118.82 88.58 32.462 14.351 44.98 5.596 68.739-15.688 41.97-37.598 69.006-72.525 84.757-103.943a239 239 0 0 0 8.198-62.067 239 239 0 0 0-9.172-65.584c-27.75-37.22-80.04-49.778-116.408-28.412-13.2 7.755-20.129 17.654-25.079 20.46-4.95 2.804-7.92-1.486-25.574-10.395-17.654-8.91-49.992-22.44-77.289-20.787" style="mix-blend-mode:multiply"/></g><path fill="url(#aE)" d="M561.56 244.38c-2.18.049-4.323.343-6.497.436-3.93.169-7.829.44-11.737.756h-.002c-2.258.183-4.523.25-6.773.483-3.705.383-7.354.985-11.032 1.504-4.086.576-8.144 1.207-12.19 1.95-2.908.535-5.838.955-8.722 1.577-2.215.477-4.356 1.172-6.556 1.701-.535.129-1.06.283-1.594.414-3.906.963-7.805 1.9-11.658 3.026-3.81 1.113-7.562 2.352-11.315 3.627-2.82.957-5.609 1.952-8.394 3.001-1.713.646-3.509 1.07-5.207 1.75-.884.354-1.704.85-2.584 1.213-5.016 2.07-9.872 4.475-14.752 6.85-2.606 1.268-5.27 2.384-7.834 3.74h-.002l-.002.002h-.002c-.798.422-1.656.718-2.45 1.149-.42.228-.8.53-1.22.761-5.426 2.983-10.618 6.402-15.832 9.787l-.16-.316a251 251 0 0 0-8.786 5.97l-.004.003-.002.002h-.002v.002c-.043.031-.071.065-.115.096-10.642 7.58-19.86 15.46-28.078 23.25-.132.125-.32.25-.451.375-.034.032-.082.063-.115.095-3.203 3.049-5.531 5.825-8.418 8.807l-.047.049c-4.536 4.685-9.198 9.305-13.055 13.654l-.018.022c-.133.15-.324.326-.457.476-5.844 6.6-10.82 12.468-15.453 17.666l-.013.014c-1.083 1.215-2.095 2.29-3.125 3.404l-.041.045a142 142 0 0 1-3.914 4.084l-.002.002h-.002l-.002.002c-1.698 1.694-3.366 3.317-4.95 4.627l-.002.002-.006.006-.002.002a41 41 0 0 1-2.83 2.17h-.002v.002c-6.142 4.224-11.62 4.891-19.449 2.723-2.61-.723-5.482-1.762-8.727-3.088h-.002c-12.98-5.307-31.933-15.23-64.02-28.059h-.001a870 870 0 0 0-39.42-14.65l-.002-.002c-.013-.005-.032-.007-.045-.012l-.025-.008c-24.843-8.557-53.885-16.537-83.946-23.307h-.002v-.002h-.006c-.454-.102-.818-.252-1.273-.353-3.631-.812-6.5-2.07-10.17-2.824-3.102-.639-6.322-.905-9.447-1.498l-.008-.002c-7.1-1.35-14.074-2.287-21.256-3.374a481 481 0 0 0-36.726-4.128h-.008c-11.004-.817-21.9-1.596-32.719-1.48-1.58.016-3.22-.256-4.795-.218v.002l-.215.008q-2.815.07-5.615.188c-10.09.428-20.028 1.327-29.732 2.77l-.01.001h-.004l-.008.002a268 268 0 0 0-19.617 3.676v.002c-3.282.742-6.515 2.067-9.791 2.934-4.915 1.3-9.786 2.546-14.674 4.123h-.002v.002h-.002c-3.069.99-6.113 1.92-9.166 3.017-4.666 1.677-9.212 3.757-13.83 5.682-4.885 2.035-9.742 3.98-14.557 6.287-2.779 1.332-5.543 2.605-8.295 4.025-4.636 2.395-9.076 5.206-13.62 7.85-4.74 2.757-9.48 5.394-14.104 8.416-2.444 1.597-4.886 3.133-7.293 4.803-4.48 3.108-8.676 6.647-13.018 10.004-4.486 3.468-9.013 6.789-13.334 10.517-2.078 1.793-4.166 3.527-6.203 5.38-4.2 3.817-8.017 8.073-12.027 12.138-4.108 4.163-8.303 8.16-12.194 12.576-1.686 1.915-3.394 3.773-5.037 5.734-3.804 4.541-7.118 9.524-10.676 14.311-3.59 4.831-7.325 9.48-10.644 14.555-1.292 1.975-2.616 3.898-3.865 5.91-3.265 5.26-5.92 10.961-8.875 16.465-2.94 5.472-6.091 10.748-8.703 16.455-.905 1.975-1.85 3.903-2.713 5.906-2.577 5.977-4.415 12.392-6.614 18.61-2.32 6.563-4.992 12.895-6.865 19.718-.475 1.73-.97 3.44-1.416 5.186-.346 1.36-.6 2.76-.928 4.129-.06.256-.113.517-.173.773-.888 3.747-1.792 7.48-2.54 11.299-.772 3.947-1.366 7.977-1.984 12-.595 3.875-1.218 7.733-1.666 11.678v.004l-.002.002v.002c-.235 2.07-.455 4.143-.648 6.232-.124 1.331-.146 2.699-.252 4.037-.06.753-.088 1.519-.143 2.274-.286 3.979-.614 7.936-.748 11.98-.142 4.296-.066 8.677-.031 13.045.03 3.714.026 7.408.187 11.174v.008c.088 2.033.208 4.075.334 6.123.507 8.229 2.217 16.87 3.372 25.33 1.036 7.6 1.504 14.99 3.087 22.77.3 1.471.542 2.918.862 4.396 1.954 9.04 5.293 18.475 8.015 27.744 2.337 7.955 3.992 15.705 6.918 23.82.448 1.243.843 2.467 1.305 3.713 3.696 9.967 8.973 20.311 13.594 30.506 3.448 7.608 5.904 14.978 9.886 22.707.282.546.713 1.123.997 1.67.506.974.965 1.934 1.48 2.91 5.87 11.13 13.542 22.616 20.563 33.979 4.97 8.044 8.998 15.9 14.564 24.054.46.676.887 1.342 1.352 2.018 9.002 13.085 20.061 26.506 30.658 39.855.043.055.081.11.125.165 5.583 7.03 10.103 13.889 16.144 20.988.3.352.58.7.881 1.053 16.974 19.88 36.039 40.055 56.754 60.421 1.157 1.138 2.001 2.236 3.17 3.375l.002-.002a1131 1131 0 0 0 28.15 26.49c15.134 13.768 32.585 27.181 49.256 40.747 11.761 9.57 22.412 19.372 34.746 28.744h.002c119.671 90.933 262.635 170.71 356.602 202.814 51.356 17.547 88.075 20.853 119.521 12.211a125 125 0 0 0 13.18-4.425h.002a136 136 0 0 0 12.697-5.85h.002c12.513-6.55 24.55-15.17 36.844-25.687h.002c16.393-14.024 33.248-31.415 52.31-51.745h.003c30.526-32.554 58.424-64.397 83.843-95.51h.006c.053-.064.088-.122.141-.187 25.01-30.62 47.633-60.538 67.986-89.72h.002c2.937-4.21 4.88-8.088 7.723-12.268 9.537-14.021 17.375-27.432 25.88-41.108 9.88-15.881 20.834-32.12 29.37-47.529 3.007-5.429 5.253-10.56 8.098-15.93 6.818-12.869 12.344-25.205 18.252-37.732 6.457-13.69 13.606-27.62 19.013-40.895.89-2.184 2.343-4.59 3.205-6.763v-.006c2.189-5.517 3.547-10.684 5.559-16.127 2.5-6.767 4.668-13.359 6.9-20.012 3.48-10.371 7.274-20.867 10.12-30.959 1.436-5.093 2.27-9.892 3.548-14.914 2.324-9.126 4.644-18.247 6.46-27.135.624-3.06 1.654-6.3 2.22-9.332.626-3.353.927-6.539 1.482-9.857a518 518 0 0 0 2.33-15.488c.468-3.428 1.163-6.961 1.555-10.35.577-4.993.88-9.836 1.295-14.744.307-3.627.704-7.291.924-10.871.276-4.49.49-8.94.63-13.356.17-5.297.13-10.467.11-15.658-.02-5.547.063-11.149-.168-16.574-.089-2.096-.288-4.118-.408-6.195-.272-4.712-.688-9.327-1.115-13.944a390 390 0 0 0-2.41-20.314c-.444-3.04-.693-6.2-1.204-9.196-.292-1.712-.768-3.294-1.082-4.992-.012-.065-.028-.128-.04-.193-1.22-6.573-2.658-12.988-4.196-19.342-1.082-4.469-2.125-8.954-3.36-13.314-.635-2.246-1.174-4.559-1.849-6.776-.448-1.472-1.03-2.837-1.496-4.297-.845-2.649-1.818-5.2-2.719-7.806-1.365-3.948-2.625-7.968-4.115-11.819-1.74-4.496-3.693-8.811-5.598-13.173-1.266-2.9-2.514-5.797-3.851-8.637-1.075-2.283-2.033-4.66-3.153-6.905-4.604-9.232-9.529-18.184-14.851-26.76-.05-.081-.113-.152-.164-.234-5.62-9.036-11.7-17.615-18.045-25.91-2.063-2.697-4.27-5.22-6.404-7.838-3.024-3.708-5.918-7.562-9.078-11.111l-.002-.006c-.038-.042-.08-.076-.118-.117-1.45-1.627-3.06-3.054-4.539-4.647-3.088-3.327-6.266-6.517-9.47-9.697-3.91-3.879-7.843-7.702-11.914-11.36-1.567-1.407-3.077-2.877-4.667-4.251-2.339-2.023-4.768-3.89-7.156-5.842-4.795-3.92-9.692-7.65-14.668-11.28-2.506-1.827-4.904-3.822-7.453-5.576-1.24-.853-2.54-1.581-3.79-2.418-5.044-3.371-10.209-6.48-15.4-9.564-3.568-2.12-7.087-4.312-10.718-6.295-1.457-.796-2.873-1.676-4.34-2.45-1.262-.665-2.575-1.188-3.844-1.837-3.241-1.658-6.546-3.147-9.83-4.697-3.264-1.542-6.463-3.234-9.765-4.668-2.936-1.275-5.922-2.365-8.885-3.555-3.287-1.32-6.583-2.528-9.9-3.744-1.746-.64-3.468-1.364-5.221-1.975-1.566-.545-3.089-1.24-4.66-1.761-5.162-1.715-10.406-3.027-15.621-4.489-2.874-.805-5.71-1.72-8.596-2.449-1.714-.432-3.41-.94-5.127-1.346-2.917-.688-5.858-1.113-8.785-1.722-6.63-1.38-13.254-2.756-19.918-3.73-.8-.118-1.593-.251-2.393-.362-3.336-.463-6.67-.63-10.01-.99-6.177-.668-12.341-1.29-18.513-1.604-1.37-.07-2.741-.303-4.11-.355-.825-.032-1.641.052-2.466.027-2.445-.075-4.86.042-7.301.023-3.146-.024-6.309-.278-9.446-.209z" style="mix-blend-mode:overlay" transform="translate(1566.866 407.669)scale(.80719)"/><path fill="url(#aF)" d="m2086.894 204.691-.14.004-.127.004c-7.874.181-15.689.778-23.469 1.582l-.012.002c-3.513.364-6.975.935-10.463 1.426-.3.043-.597.102-.898.145-1.484.214-3.016.175-4.494.412-1.416.227-2.756.724-4.166.973-.672.117-1.35.2-2.022.324-2.762.507-5.545.907-8.285 1.498-2.102.453-4.133 1.111-6.22 1.613l-.01.002c-.508.122-1.008.27-1.514.395-3.71.914-7.414 1.803-11.075 2.873-.481.14-.95.314-1.43.459-1.115.333-2.295.455-3.405.802-1.29.404-2.474 1.07-3.756 1.493-.712.238-1.434.446-2.145.687l-.012.004a257 257 0 0 0-7.984 2.856l-.01.002c-1.623.609-3.323 1.014-4.932 1.658-.84.336-1.619.805-2.455 1.15-3.227 1.331-6.35 2.89-9.492 4.406-1.769.818-3.676 1.307-5.426 2.166-1.035.508-2.017 1.124-3.045 1.647l-.049.027c-1.168.595-2.315 1.219-3.474 1.832l-.01.004c-.747.39-1.546.67-2.288 1.072-.399.217-.761.504-1.16.723-.537.296-1.035.667-1.568.97-.01.004-.012.007-.017.01-1.831 1.026-3.727 1.921-5.533 2.995 0 .002-.01.005-.012.008-2.718 1.616-5.31 3.461-7.969 5.187l-.033-.056-.059-.115v.002-.004a238 238 0 0 0-8.281 5.629l-.068.044v.002c-.65.463-1.162.95-1.801 1.415-.128.093-.234.19-.361.283-5.434 3.965-10.643 7.988-15.364 12.052 0 .003-.01.005-.01.008-.03.026-.053.051-.082.077-2.218 1.912-4.068 3.803-6.142 5.714-.47.433-.929.862-1.39 1.293v.008c-.479.447-1.14.886-1.61 1.332-.126.12-.303.237-.428.356-.032.03-.078.061-.11.092-.711.677-1.232 1.302-1.87 1.957-1.026.995-2.232 2.009-3.221 2.998v.004c-.06.059-.102.109-.16.168-3.1 3.103-5.164 5.677-7.934 8.668-2.49 2.554-5.11 5.17-7.254 7.588 0 0 0 .003-.01.004v.006c0 .002 0 .006-.01.008v.002c-.127.142-.308.31-.434.453a1134 1134 0 0 0-7.533 8.615c-1.795 2.074-3.312 3.747-4.965 5.63-1.211 1.383-2.475 2.836-3.619 4.1-.512.555-1.035 1.133-1.545 1.684l-.039.043c-.253.273-.487.504-.738.772-.545.582-1.02.966-1.55 1.515-.376.388-.728.7-1.096 1.07-1.55 1.558-3.16 3.279-4.608 4.504-.106.09-.232.244-.338.332-.013.011-.028.029-.04.04-.017.012-.034.032-.05.044v.01q-1.378 1.143-2.707 2.059c-.032.022-.063.039-.096.06a25 25 0 0 1-2.637 1.57c-.193.102-.388.214-.582.308-.17.081-.34.152-.51.228q-.55.248-1.1.455a18 18 0 0 1-.622.217 17 17 0 0 1-1.67.467q-.533.118-1.074.2c-.195.032-.39.067-.586.09-.413.051-.832.08-1.254.102-.158.008-.313.024-.473.028q-.812.02-1.654-.03c-.047-.003-.09 0-.139-.004-.064-.004-.132-.014-.197-.02a25 25 0 0 1-1.916-.224c-1.226-.187-2.55-.52-3.908-.892-.409-.112-.867-.276-1.29-.405-1.624-.493-3.401-1.14-5.267-1.865-2.628-1.018-5.767-2.402-9.006-3.853-10.788-4.833-26.49-12.114-47.775-20.883-2.689-1.112-2.896-1.382-5.807-2.545a827 827 0 0 0-37.447-13.916v-.002q-.021-.007-.043-.012l-.023-.008q-1.117-.384-2.246-.767l-.514-.176-.648-.219c-25.462-8.648-54.87-17.173-85.57-23.584-.366-.076-.654-.205-1.02-.281v-.002l-.023-.004q-.29-.066-.59-.127-.328-.069-.658-.13l-.029-.007c-9.356-1.914-18.959-3.05-28.486-4.494l-.02-.002c-7.012-1.062-13.926-2.553-20.965-3.305l-.062-.008c-3.305-.352-6.538-.165-9.84-.441-12.343-1.038-24.569-1.838-36.678-1.653-.938.015-1.915-.151-2.851-.128l-.11.004-.037-.002v.002c-.415.01-.827.029-1.242.04-.073.003-.15-.005-.223-.003-.078.002-.152.017-.23.02-1.301.038-2.602.075-3.898.13-9.566.408-18.99 1.26-28.19 2.629a254 254 0 0 0-18.656 3.496c-3.127.706-6.207 1.969-9.328 2.795-4.651 1.23-9.261 2.409-13.887 3.9-2.916.94-5.81 1.827-8.71 2.87-4.436 1.593-8.757 3.567-13.145 5.396-4.64 1.933-9.254 3.781-13.827 5.973-2.639 1.264-5.265 2.473-7.879 3.822-4.408 2.276-8.63 4.949-12.953 7.463-4.493 2.613-8.987 5.11-13.37 7.974-2.333 1.524-4.662 2.994-6.96 4.588-4.245 2.945-8.223 6.296-12.338 9.477-4.263 3.295-8.565 6.45-12.672 9.992-1.98 1.708-3.967 3.362-5.908 5.127-3.993 3.63-7.626 7.675-11.44 11.54-3.896 3.95-7.875 7.741-11.566 11.93-1.603 1.82-3.225 3.588-4.787 5.452-3.62 4.32-6.775 9.061-10.16 13.617-3.4 4.574-6.936 8.974-10.08 13.78 0 .002 0 .004-.01.007-1.231 1.883-2.493 3.716-3.684 5.633-3.105 5.002-5.63 10.425-8.44 15.66-2.786 5.186-5.775 10.186-8.25 15.594v.004c-.863 1.882-1.764 3.719-2.587 5.627-2.455 5.694-4.205 11.806-6.299 17.73-2.194 6.209-4.724 12.196-6.496 18.649-.454 1.654-.928 3.29-1.353 4.959-.33 1.293-.571 2.623-.883 3.926-.062.258-.115.522-.176.78-.835 3.53-1.688 7.046-2.392 10.643v.008c-.74 3.778-1.31 7.634-1.9 11.485-.562 3.655-1.15 7.292-1.573 11.012v.008a288 288 0 0 0-.62 5.957c-.116 1.261-.139 2.557-.24 3.826-.057.727-.083 1.467-.136 2.197-.271 3.77-.58 7.52-.707 11.352v.015c-.134 4.068-.06 8.216-.027 12.352.024 2.997-.135 5.92-.022 8.953.02.542.174 1.132.197 1.676.083 1.932.199 3.872.318 5.818.48 7.803 2.1 15.995 3.194 24.018.985 7.234 1.433 14.27 2.94 21.675.284 1.401.516 2.779.82 4.186 1.854 8.582 5.023 17.54 7.607 26.338 2.221 7.564 3.797 14.933 6.58 22.65V655c.423 1.174.796 2.33 1.233 3.508 3.506 9.458 8.512 19.275 12.896 28.95 3.514 7.754 6.265 15.321 10.363 23.208.475.914.908 1.815 1.391 2.73 5.6 10.62 12.913 21.578 19.615 32.42 4.698 7.6 8.502 15.021 13.76 22.725v.006c.438.641.842 1.274 1.283 1.916 8.588 12.483 19.13 25.286 29.244 38.022 5.304 6.678 9.598 13.194 15.336 19.937.283.332.547.66.83.992 16.078 18.832 34.147 37.944 53.758 57.235 1.158 1.139 2.003 2.238 3.174 3.379a1074 1074 0 0 0 26.738 25.16v.002c24.517 22.303 51.471 44.49 79.797 66.013 113.682 86.383 249.49 162.167 338.754 192.665.225.077.399.101.623.177 12.866 4.376 24.664 7.683 35.756 10.21 8.843 2.011 17.204 3.449 25.107 4.331 2.288.256 4.59.513 6.809.676 1.97.145 3.936.277 5.853.35 2.99.113 5.9.105 8.772.045 1.714-.036 3.456-.04 5.13-.137 3.127-.18 6.162-.526 9.165-.916 1.293-.168 2.63-.264 3.902-.47 4.25-.69 8.41-1.552 12.453-2.663a119 119 0 0 0 12.52-4.205 129 129 0 0 0 12.06-5.557c.217-.113.423-.278.64-.392 4.518-2.397 8.975-5.269 13.405-8.227 6.988-4.664 13.942-9.783 20.955-15.783 15.573-13.321 31.585-29.842 49.694-49.154 28.998-30.925 55.499-61.174 79.646-90.729h.012c.05-.062.082-.118.133-.18 23.758-29.087 45.25-57.506 64.584-85.228q.569-.817 1.092-1.62.013-.017.023-.036c2.57-3.698 4.201-7.08 6.695-10.752.014-.02.023-.04.037-.06 8.806-13.019 16.163-25.516 24.074-38.237 9.384-15.087 19.79-30.512 27.899-45.15.068-.122.115-.236.182-.358.598-1.082 1.486-2.266 2.078-3.345.807-1.473 1.23-2.8 2.025-4.268 1.298-2.398 2.046-4.585 3.31-6.97.035-.065.064-.128.099-.192 6.477-12.225 11.725-23.944 17.337-35.844 5.477-11.611 11.248-23.316 16.127-34.685 1.286-3.103 3.318-6.498 4.545-9.577 0-.003 0-.008.01-.01v-.006c.153-.335.298-.67.428-.996v-.006q.41-1.034.783-2.054.014-.032.023-.063c2.3-5.852 3.75-11.342 5.84-17.107.693-1.912 1.265-3.77 1.936-5.672 1.068-3.135 2.2-6.298 3.252-9.434.245-.732.466-1.452.714-2.185 2.64-7.958 5.944-16.2 8.188-23.985.01-.019.01-.037.016-.056 1.313-4.556 1.943-8.796 3.123-13.291.665-2.534 1.136-4.978 1.76-7.493.033-.129.057-.255.09-.384 1.87-7.38 3.761-14.767 5.23-21.96.594-2.906 1.572-5.985 2.11-8.864.069-.371.102-.723.164-1.09.133-.72.388-1.499.517-2.217 0-.017 0-.032.01-.049v-.006c.452-2.506.503-4.81.912-7.295q1.109-6.76 2.018-13.42c.444-3.256 1.104-6.613 1.477-9.832.548-4.743.836-9.343 1.23-14.006.046-.547.089-1.092.139-1.64.156-1.93.61-4.015.74-5.932v-.045c.084-1.233-.036-2.353.037-3.58.236-3.968.433-7.909.559-11.816.16-5.033.121-9.944.103-14.875-.019-5.27.061-10.593-.158-15.746-.012-.285-.041-.56-.057-.842-.03-.663.052-1.39.019-2.051v-.024c-.063-1.257-.328-2.388-.403-3.638-.258-4.24-.62-8.41-1.005-12.574a370 370 0 0 0-2.29-19.3c-.42-2.887-.659-5.888-1.144-8.734-.03-.173-.076-.335-.11-.506-.046-.272-.045-.575-.093-.847v-.002c-.238-1.365-.691-2.583-.944-3.938-1.143-6.113-2.472-12.092-3.904-18.008-1.028-4.245-2.019-8.506-3.191-12.648-.604-2.133-1.117-4.33-1.758-6.436-.04-.128-.09-.248-.131-.375-.408-1.334-.935-2.573-1.358-3.896-.788-2.448-1.681-4.814-2.515-7.227-1.297-3.75-2.493-7.568-3.908-11.226-1.653-4.271-3.51-8.37-5.319-12.514l-.176-.392c-.628-1.435-1.046-3.04-1.693-4.46v-.009c-.524-1.149-1.22-2.145-1.756-3.284l-.027-.06c-1.02-2.169-1.932-4.426-2.996-6.559-4.374-8.77-9.051-17.276-14.107-25.422-.048-.077-.108-.144-.156-.222q-.3-.482-.602-.963c-3.008-4.799-6.298-9.317-9.527-13.895-1.628-2.307-3.122-4.75-4.803-7.002-.695-.93-1.465-1.775-2.168-2.695l-.041-.058c-.4-.523-.831-1.007-1.24-1.518-4.081-5.266-8.193-10.5-12.557-15.443q-.452-.525-.912-1.04v-.005c-.035-.04-.076-.072-.111-.112l-.291-.322c-1.3-1.414-2.714-2.684-4.02-4.092-2.933-3.161-5.954-6.192-8.998-9.213-2.284-2.266-4.634-4.433-6.96-6.635-1.796-1.675-3.407-3.593-5.235-5.222l-.06-.049c-.744-.663-1.572-1.198-2.322-1.853-.39-.356-.774-.723-1.173-1.069-2.223-1.921-4.53-3.697-6.797-5.55-3.46-2.829-7.022-5.482-10.584-8.14-2.272-1.703-4.373-3.677-6.684-5.316l-.047-.033c-.689-.488-1.437-.865-2.129-1.348-.526-.388-1.034-.806-1.572-1.175-1.179-.811-2.412-1.503-3.6-2.297-4.79-3.203-9.698-6.157-14.628-9.086-.567-.336-1.137-.66-1.702-.998-1.992-1.168-3.861-2.58-5.875-3.703l-.043-.022c-.835-.465-1.724-.8-2.562-1.258 0-.002-.01-.004-.012-.006-1.38-.754-2.722-1.587-4.111-2.32-1.2-.632-2.447-1.13-3.653-1.746-3.079-1.575-6.218-2.988-9.338-4.461-3.1-1.464-6.138-3.073-9.275-4.436-.124-.053-.251-.097-.375-.15-.574-.248-1.116-.583-1.691-.828-.016-.007-.033-.01-.05-.018-1.467-.625-2.996-1.033-4.47-1.636-.62-.243-1.237-.496-1.856-.745-3.122-1.254-6.253-2.401-9.404-3.556-1.659-.608-3.293-1.295-4.959-1.875-1.487-.518-2.935-1.178-4.428-1.674-1.273-.423-2.571-.727-3.853-1.107-1.081-.345-2.126-.84-3.21-1.172l-.017-.004c-2.273-.699-4.601-1.083-6.885-1.73-.291-.082-.582-.169-.873-.25-2.73-.766-5.422-1.635-8.164-2.327-1.628-.41-3.24-.894-4.871-1.28-2.235-.527-4.486-.894-6.733-1.32v-.002c-1.817-.388-3.6-1.003-5.421-1.359-2.403-.47-4.825-.611-7.233-1.025-2.624-.49-5.239-1.088-7.873-1.473-.76-.111-1.514-.238-2.273-.344-3.018-.419-6.035-.584-9.055-.894-.01 0-.012-.001-.018-.002-.714-.078-1.425-.23-2.139-.303-1.581-.162-3.155-.532-4.736-.67-2.31-.201-4.604-.079-6.912-.228-1.407-.102-2.814-.294-4.22-.366-1.301-.066-2.605-.288-3.905-.338-.785-.03-1.56.05-2.344.026-2.322-.071-4.617.04-6.935.021-2.595-.02-5.198-.166-7.79-.171-.4.007-.806-.048-1.207-.04h-.02z" style="mix-blend-mode:overlay" transform="translate(246.867 431.001)scale(.84972)"/></g></svg>