<svg xmlns="http://www.w3.org/2000/svg" xmlns:xlink="http://www.w3.org/1999/xlink" xml:space="preserve" width="3000" height="3600"><defs><linearGradient id="P"><stop offset="0" stop-color="#fde7f9" stop-opacity=".361"/><stop offset="1" stop-color="#fde7f9" stop-opacity="0"/></linearGradient><linearGradient id="O"><stop offset="0" stop-color="#fec3f3"/><stop offset="1" stop-color="#fec3f3" stop-opacity="0"/></linearGradient><linearGradient id="N"><stop offset="0" stop-color="#ffafd8" stop-opacity=".294"/><stop offset="1" stop-color="#ffafd8" stop-opacity="0"/></linearGradient><linearGradient id="K"><stop offset="0" stop-color="#ff95c4" stop-opacity=".448"/><stop offset="1" stop-color="#ff95c4" stop-opacity="0"/></linearGradient><linearGradient id="H"><stop offset="0" stop-color="#ff9898" stop-opacity=".388"/><stop offset="1" stop-color="#ff9898" stop-opacity="0"/></linearGradient><linearGradient id="v"><stop offset="0" stop-color="#841d17"/><stop offset="1" stop-color="#841d17" stop-opacity="0"/></linearGradient><linearGradient id="u"><stop offset="0" stop-color="#841d17"/><stop offset="1" stop-color="#841d17" stop-opacity="0"/></linearGradient><linearGradient id="t"><stop offset="0" stop-color="#f19891"/><stop offset="1" stop-color="#f19891" stop-opacity="0"/></linearGradient><linearGradient id="G"><stop offset="0" stop-color="#ff9898"/><stop offset="1" stop-color="#ff9898" stop-opacity="0"/></linearGradient><linearGradient id="r"><stop offset="0" stop-color="#ff72a3"/><stop offset="1" stop-color="#ff72a3" stop-opacity="0"/></linearGradient><linearGradient id="q"><stop offset="0" stop-color="#841d17"/><stop offset="1" stop-color="#841d17" stop-opacity="0"/></linearGradient><linearGradient id="o"><stop offset="0" stop-color="#841d17"/><stop offset="1" stop-color="#e13b2e" stop-opacity="0"/></linearGradient><linearGradient id="i"><stop offset="0" stop-color="#ff72a3"/><stop offset="1" stop-color="#ff72a3" stop-opacity="0"/></linearGradient><linearGradient id="h"><stop offset="0" stop-color="#ff72a3" stop-opacity=".598"/><stop offset="1" stop-color="#ff72a3" stop-opacity="0"/></linearGradient><linearGradient id="D"><stop offset="0" stop-color="#ffafd8"/><stop offset="1" stop-color="#ffafd8" stop-opacity="0"/></linearGradient><linearGradient id="g"><stop offset="0" stop-color="#ffafd8" stop-opacity=".294"/><stop offset="1" stop-color="#ffafd8" stop-opacity="0"/></linearGradient><linearGradient id="f"><stop offset="0" stop-color="#ff72a3"/><stop offset="1" stop-color="#ff72a3" stop-opacity="0"/></linearGradient><linearGradient id="j"><stop offset="0" stop-color="#ff85b6" stop-opacity=".471"/><stop offset="1" stop-color="#ff85b6" stop-opacity="0"/></linearGradient><linearGradient id="E"><stop offset="0" stop-color="#ffafd9" stop-opacity=".707"/><stop offset="1" stop-color="#ffafd9" stop-opacity="0"/></linearGradient><linearGradient id="l"><stop offset="0" stop-color="#ff9ccc"/><stop offset="1" stop-color="#ff9ccc" stop-opacity="0"/></linearGradient><linearGradient id="n"><stop offset="0" stop-color="#ff85b6" stop-opacity=".471"/><stop offset="1" stop-color="#ff85b6" stop-opacity="0"/></linearGradient><linearGradient id="I"><stop offset="0" stop-color="#ff8db2" stop-opacity=".769"/><stop offset="1" stop-color="#ff8db2" stop-opacity="0"/></linearGradient><linearGradient id="w"><stop offset="0" stop-color="#d93532"/><stop offset="1" stop-color="#b92522"/></linearGradient><linearGradient id="x"><stop offset="0" stop-color="#ff5c60"/><stop offset="1" stop-color="#ff4448"/></linearGradient><linearGradient id="J"><stop offset="0" stop-color="#ff7880" stop-opacity=".696"/><stop offset="1" stop-color="#ff7880" stop-opacity="0"/></linearGradient><linearGradient id="y"><stop offset=".636" stop-color="#2e3676"/><stop offset=".881" stop-color="#304cbf"/><stop offset="1" stop-color="#324ebd"/></linearGradient><linearGradient id="A"><stop offset="0" stop-color="#11100f"/><stop offset="1" stop-color="#211f1e"/></linearGradient><linearGradient xlink:href="#a" id="ax" x1="2212.456" x2="2312.617" y1="1680.377" y2="1824.956" gradientUnits="userSpaceOnUse"/><linearGradient id="a"><stop offset="0" stop-color="#7560fd"/><stop offset="1" stop-color="#fc49a0"/></linearGradient><linearGradient xlink:href="#b" id="ay" x1="2497.154" x2="2653.032" y1="1851.751" y2="1914.049" gradientUnits="userSpaceOnUse"/><linearGradient id="b"><stop offset="0" stop-color="#fff4fd" stop-opacity=".58"/><stop offset="1" stop-color="#fff4fd" stop-opacity="0"/></linearGradient><linearGradient xlink:href="#c" id="az" x1="2954.249" x2="2718.465" y1="1865.4" y2="1974.295" gradientUnits="userSpaceOnUse"/><linearGradient id="c"><stop offset="0" stop-color="#feb3f2"/><stop offset="1" stop-color="#feb3f2" stop-opacity="0"/></linearGradient><linearGradient xlink:href="#d" id="aA" x1="2440.727" x2="2612.54" y1="1886.174" y2="1914.049" gradientUnits="userSpaceOnUse"/><linearGradient id="d"><stop offset="0" stop-color="#fa38df"/><stop offset="1" stop-color="#fa38df" stop-opacity="0"/></linearGradient><linearGradient xlink:href="#d" id="aB" x1="2722.387" x2="2735.231" y1="1809.594" y2="1831.109" gradientUnits="userSpaceOnUse"/><linearGradient id="B"><stop offset="0" stop-color="#fff4fd" stop-opacity=".579"/><stop offset="1" stop-color="#fff4fd" stop-opacity="0"/></linearGradient><linearGradient xlink:href="#e" id="aD" x1="2432.807" x2="2719.721" y1="1964.839" y2="1987.608" gradientUnits="userSpaceOnUse"/><linearGradient id="e"><stop offset="0" stop-color="#fe88dd"/><stop offset="1" stop-color="#fe88dd" stop-opacity="0"/></linearGradient><linearGradient id="C"><stop offset="0" stop-color="#ffd2e6"/><stop offset="1" stop-color="#ffd2e6" stop-opacity="0"/></linearGradient><linearGradient xlink:href="#f" id="Y" x1="85.662" x2="90.98" y1="177.85" y2="90.054" gradientUnits="userSpaceOnUse"/><linearGradient xlink:href="#g" id="Z" x1="73.355" x2="86.52" y1="-15.781" y2="59.093" gradientUnits="userSpaceOnUse"/><linearGradient xlink:href="#h" id="aa" x1="203.582" x2="122.771" y1="-16.063" y2="52.35" gradientUnits="userSpaceOnUse"/><linearGradient xlink:href="#i" id="X" x1="1.902" x2="62.888" y1="39.323" y2="54.519" gradientUnits="userSpaceOnUse"/><linearGradient xlink:href="#j" id="V" x1="19.706" x2="17.924" y1="27.114" y2="16.578" gradientTransform="translate(485.104 524.75)scale(3.54376)" gradientUnits="userSpaceOnUse"/><linearGradient xlink:href="#l" id="ac" x1="230.869" x2="207.165" y1="102.433" y2="97.402" gradientTransform="matrix(-.73369 0 0 .8154 207.071 -2.244)" gradientUnits="userSpaceOnUse"/><linearGradient xlink:href="#n" id="ae" x1="290.386" x2="230.192" y1="136.608" y2="118.047" gradientTransform="matrix(-.8596 0 0 .95534 238.024 -18.348)" gradientUnits="userSpaceOnUse"/><linearGradient xlink:href="#n" id="ab" x1="221.27" x2="214.793" y1="139.702" y2="146.618" gradientTransform="matrix(-.73369 0 0 .8154 207.071 -2.244)" gradientUnits="userSpaceOnUse"/><linearGradient xlink:href="#o" id="as" x1="200.003" x2="172.695" y1="172.358" y2="117.215" gradientUnits="userSpaceOnUse"/><linearGradient xlink:href="#q" id="at" x1="243.747" x2="193.85" y1="125.124" y2="109.806" gradientUnits="userSpaceOnUse"/><linearGradient xlink:href="#r" id="ag" x1="179.257" x2="123.845" y1="117.724" y2="100.621" gradientUnits="userSpaceOnUse"/><linearGradient xlink:href="#t" id="av" x1="193.562" x2="182.204" y1="63.608" y2="100.427" gradientUnits="userSpaceOnUse"/><linearGradient xlink:href="#u" id="R" x1="46.984" x2="43.089" y1="122.259" y2="164.067" gradientUnits="userSpaceOnUse"/><linearGradient xlink:href="#v" id="S" x1="90.736" x2="50.543" y1="202.634" y2="169.847" gradientUnits="userSpaceOnUse"/><linearGradient xlink:href="#r" id="ah" x1="179.257" x2="136.767" y1="117.724" y2="93.399" gradientUnits="userSpaceOnUse"/><linearGradient xlink:href="#w" id="al" x1="68.565" x2="68.565" y1="90.518" y2="108.265" gradientTransform="translate(485.104 524.75)scale(3.54376)" gradientUnits="userSpaceOnUse"/><linearGradient xlink:href="#x" id="am" x1="68.221" x2="68.221" y1="109.85" y2="90.6" gradientTransform="translate(485.104 524.75)scale(3.54376)" gradientUnits="userSpaceOnUse"/><linearGradient xlink:href="#y" id="ao" x1="474.497" x2="474.611" y1="275.064" y2="407.471" gradientTransform="matrix(.53534 .02302 -.02657 .61802 553.147 558.514)" gradientUnits="userSpaceOnUse"/><linearGradient xlink:href="#A" id="ap" x1="187.536" x2="187.536" y1="-7.033" y2="173.616" gradientTransform="matrix(.25813 .01462 -.01462 .25813 751.54 734.39)" gradientUnits="userSpaceOnUse"/><linearGradient xlink:href="#y" id="aq" x1="474.497" x2="474.611" y1="275.064" y2="407.471" gradientTransform="matrix(.53534 .02302 -.02657 .61802 553.147 558.514)" gradientUnits="userSpaceOnUse"/><linearGradient xlink:href="#A" id="ar" x1="187.536" x2="187.536" y1="-7.033" y2="173.616" gradientTransform="matrix(.25813 .01462 -.01462 .25813 751.54 734.39)" gradientUnits="userSpaceOnUse"/><radialGradient xlink:href="#B" id="aC" cx="2721.6" cy="1908.9" r="189" fx="2721.6" fy="1908.9" gradientTransform="translate(60.409 -64.843)" gradientUnits="userSpaceOnUse"/><radialGradient xlink:href="#C" id="aE" cx="110.379" cy="76.226" r="103.45" fx="110.379" fy="76.226" gradientTransform="translate(436.019 162.279)scale(11.0089)" gradientUnits="userSpaceOnUse"/><radialGradient xlink:href="#D" id="af" cx="101.099" cy="118.582" r="82.095" fx="101.099" fy="118.582" gradientTransform="translate(-18.698 -65.522)scale(1.16368)" gradientUnits="userSpaceOnUse"/><radialGradient xlink:href="#E" id="W" cx="54.578" cy="18.65" r="65.908" fx="54.578" fy="18.65" gradientTransform="matrix(1.17151 .08272 -.07097 1.00509 497.226 576.749)" gradientUnits="userSpaceOnUse"/><radialGradient xlink:href="#E" id="ad" cx="45.729" cy="44.876" r="65.908" fx="45.729" fy="44.876" gradientTransform="matrix(-.30212 -.37798 -.23483 .22425 53.735 105.07)" gradientUnits="userSpaceOnUse"/><radialGradient xlink:href="#G" id="au" cx="281.252" cy="157.349" r="118.582" fx="281.252" fy="157.349" gradientTransform="rotate(-13.51 -492.423 1002.562)scale(1.14505)" gradientUnits="userSpaceOnUse"/><radialGradient xlink:href="#H" id="U" cx="31.166" cy="165.71" r="93.497" fx="31.166" fy="165.71" gradientTransform="translate(19.003 4.18)" gradientUnits="userSpaceOnUse"/><radialGradient xlink:href="#I" id="aj" cx="111.142" cy="88.491" r="25.028" fx="111.142" fy="88.491" gradientTransform="translate(200.191 482.48)scale(3.54376)" gradientUnits="userSpaceOnUse"/><radialGradient xlink:href="#I" id="ai" cx="111.142" cy="88.491" r="25.028" fx="111.142" fy="88.491" gradientTransform="translate(200.191 482.48)scale(3.54376)" gradientUnits="userSpaceOnUse"/><radialGradient xlink:href="#J" id="an" cx="69.015" cy="95.086" r="8.287" fx="69.015" fy="95.086" gradientTransform="translate(492.088 552.796)scale(3.3961)" gradientUnits="userSpaceOnUse"/><radialGradient xlink:href="#K" id="ak" cx="297.775" cy="65.575" r="216.075" fx="297.775" fy="65.575" gradientTransform="translate(-193.904 -26.45)" gradientUnits="userSpaceOnUse"/><radialGradient xlink:href="#N" id="aw" cx="99.578" cy="70.693" r="113.17" fx="99.578" fy="70.693" gradientTransform="translate(25.581 -16.913)scale(.79577)" gradientUnits="userSpaceOnUse"/><radialGradient xlink:href="#H" id="T" cx="31.166" cy="165.71" r="93.497" fx="31.166" fy="165.71" gradientTransform="translate(19.003 4.18)" gradientUnits="userSpaceOnUse"/><radialGradient xlink:href="#O" id="aF" cx="1827.5" cy="511.7" r="855.7" fx="1827.5" fy="511.7" gradientTransform="translate(52.896 341.061)scale(1.00842)" gradientUnits="userSpaceOnUse"/><radialGradient xlink:href="#P" id="Q" cx="1947.316" cy="932.944" r="1292.746" fx="1947.316" fy="932.944" gradientTransform="translate(-1185.509 513.4)scale(1.37909)" gradientUnits="userSpaceOnUse"/></defs><path d="m2157.424 547.467-.057.01-.142.003-.127.004c-7.94.183-15.82.785-23.666 1.596l-.014.002c-3.543.367-7.034.942-10.55 1.438-.303.043-.602.103-.905.146-1.497.216-3.043.175-4.533.414-1.428.229-2.78.731-4.201.982-.678.118-1.362.202-2.04.327-2.785.51-5.59.915-8.353 1.511-2.12.457-4.169 1.12-6.273 1.625l-.01.002c-.513.123-1.017.273-1.528.399-3.74.921-7.476 1.82-11.168 2.898-.485.141-.957.317-1.441.463-1.124.336-2.314.459-3.434.809-1.3.407-2.494 1.079-3.787 1.506-.718.24-1.447.448-2.164.691l-.012.004a259 259 0 0 0-8.05 2.88l-.01.003c-1.637.614-3.352 1.022-4.975 1.672-.847.338-1.631.812-2.474 1.16-3.254 1.342-6.404 2.914-9.573 4.443-1.783.825-3.707 1.317-5.472 2.184-1.044.512-2.034 1.132-3.07 1.66l-.05.027c-1.177.6-2.334 1.23-3.503 1.848l-.01.004c-.753.393-1.558.676-2.307 1.082-.402.219-.767.507-1.17.728-.541.299-1.044.673-1.582.979l-.007.004-.002.002-.002.002h-.002l-.002.002c-1.847 1.034-3.76 1.936-5.58 3.02v.001h-.002l-.01.006c-2.74 1.63-5.356 3.492-8.037 5.232l-.033-.056-.059-.116v-.003a240 240 0 0 0-8.351 5.677l-.069.043v.002c-.655.467-1.172.959-1.816 1.428-.13.094-.237.191-.365.285-5.48 3.998-10.732 8.056-15.493 12.154h-.002v.002h-.002l-.002.002h-.001l-.002.002v.002l-.084.076c-2.237 1.928-4.102 3.837-6.194 5.764a271 271 0 0 0-1.402 1.303v.008c-.483.45-1.15.894-1.623 1.343-.127.121-.306.24-.432.36-.032.03-.08.06-.111.092-.717.682-1.241 1.314-1.885 1.974-1.035 1.004-2.25 2.026-3.248 3.024v.003c-.06.06-.103.11-.162.17-3.126 3.13-5.207 5.724-8 8.74-2.511 2.576-5.154 5.215-7.316 7.653v.002h-.006l-.002.002h-.002v.01h-.002v.002h-.004l-.002.002h-.002v.001c-.128.144-.31.313-.437.458a1144 1144 0 0 0-7.596 8.687c-1.81 2.091-3.341 3.779-5.008 5.678-1.221 1.394-2.495 2.86-3.648 4.135-.517.56-1.045 1.141-1.559 1.697l-.04.043c-.254.275-.49.509-.743.78-.55.586-1.028.973-1.563 1.526-.379.392-.734.707-1.105 1.08-1.563 1.572-3.187 3.306-4.647 4.542-.107.09-.235.245-.341.333-.014.012-.027.03-.04.042-.016.012-.034.032-.05.044v.01a39 39 0 0 1-2.73 2.076c-.033.023-.063.04-.097.06a25 25 0 0 1-2.66 1.585c-.194.103-.39.216-.586.31-.171.082-.344.152-.515.229q-.555.25-1.11.459a18 18 0 0 1-.627.219 17 17 0 0 1-1.683.47q-.538.12-1.084.204c-.197.032-.392.066-.59.09a19 19 0 0 1-1.264.103c-.159.008-.317.023-.478.027q-.819.022-1.668-.03c-.047-.002-.09.001-.139-.003-.065-.004-.133-.015-.199-.021a25 25 0 0 1-1.932-.225c-1.236-.189-2.572-.525-3.941-.9-.412-.113-.874-.279-1.3-.409-1.639-.497-3.432-1.15-5.313-1.88-2.65-1.027-5.816-2.422-9.082-3.885-10.88-4.874-26.712-12.216-48.176-21.059-2.712-1.121-2.922-1.394-5.858-2.566a834 834 0 0 0-37.761-14.034v-.001l-.043-.014-.024-.008q-1.125-.387-2.263-.773l-.52-.178-.652-.22c-25.677-8.722-55.333-17.317-86.291-23.782-.37-.077-.66-.207-1.03-.283v-.002l-.023-.004a26 26 0 0 0-.594-.129q-.33-.07-.664-.13l-.03-.009c-9.434-1.93-19.116-3.075-28.724-4.53l-.021-.003c-7.071-1.07-14.043-2.576-21.14-3.334l-.063-.008c-3.333-.355-6.592-.165-9.922-.443-12.447-1.047-24.778-1.855-36.988-1.668-.946.015-1.932-.152-2.875-.129l-.112.004-.035-.002v.002c-.418.01-.835.03-1.254.041-.074.003-.15-.006-.224-.004-.08.002-.154.018-.233.022-1.312.038-2.623.075-3.93.13-9.646.412-19.15 1.27-28.427 2.65a256 256 0 0 0-18.813 3.526c-3.153.712-6.26 1.986-9.408 2.819-4.69 1.24-9.339 2.43-14.004 3.933-2.94.948-5.859 1.843-8.783 2.895-4.474 1.606-8.831 3.597-13.256 5.441-4.68 1.95-9.332 3.813-13.943 6.024-2.661 1.274-5.31 2.493-7.946 3.853-4.445 2.295-8.7 4.99-13.06 7.525-4.531 2.635-9.063 5.153-13.483 8.041-2.352 1.537-4.702 3.02-7.02 4.627-4.28 2.97-8.29 6.35-12.44 9.557-4.3 3.323-8.638 6.504-12.78 10.076-1.997 1.723-4 3.39-5.957 5.17-4.027 3.66-7.69 7.741-11.537 11.639-3.929 3.983-7.942 7.805-11.664 12.03-1.617 1.834-3.251 3.617-4.826 5.497-3.65 4.357-6.833 9.138-10.246 13.733-3.429 4.612-6.994 9.05-10.164 13.896l-.002.002-.002.002h-.002l-.006.002c-1.241 1.899-2.514 3.748-3.715 5.682-3.131 5.044-5.676 10.511-8.51 15.79-2.81 5.23-5.824 10.272-8.32 15.725v.004c-.87 1.898-1.78 3.752-2.61 5.676-2.475 5.742-4.24 11.905-6.351 17.879-2.213 6.261-4.764 12.3-6.55 18.806-.458 1.668-.935 3.317-1.364 5-.333 1.304-.576 2.645-.89 3.96-.064.26-.117.526-.178.787-.842 3.56-1.702 7.105-2.412 10.732v.008c-.747 3.81-1.322 7.698-1.917 11.582-.566 3.686-1.159 7.352-1.585 11.103v.01a290 290 0 0 0-.625 6.006c-.117 1.272-.14 2.58-.243 3.86-.057.732-.085 1.478-.138 2.214-.274 3.802-.585 7.583-.713 11.447v.016c-.135 4.102-.06 8.284-.026 12.455.024 3.022-.137 5.97-.023 9.03.02.546.176 1.14.2 1.689.083 1.948.2 3.905.32 5.867.483 7.869 2.117 16.13 3.22 24.22.994 7.296 1.445 14.39 2.965 21.858.286 1.413.522 2.802.828 4.22 1.87 8.655 5.064 17.69 7.67 26.561 2.24 7.628 3.83 15.058 6.637 22.84.426 1.184.801 2.351 1.242 3.54 3.535 9.537 8.585 19.436 13.006 29.193 3.543 7.819 6.317 15.449 10.45 23.402.478.922.914 1.831 1.401 2.754 5.648 10.71 13.023 21.76 19.782 32.693 4.737 7.664 8.572 15.147 13.875 22.916v.01c.441.647.85 1.284 1.295 1.932 8.66 12.588 19.29 25.5 29.49 38.343 5.349 6.735 9.678 13.304 15.465 20.104.285.335.55.667.836 1.002 16.213 18.99 34.434 38.263 54.21 57.717 1.168 1.148 2.02 2.255 3.202 3.406a1083 1083 0 0 0 26.963 25.373c24.723 22.49 51.904 44.864 80.468 66.568 73.765 56.052 156.768 107.679 230.56 145.56a314 314 0 0 0-16.782 5.85c-.112.043-.234.11-.346.153a297 297 0 0 0-18.912 8.006 300.677 290.329.021 0 0-.004 0c-1.033.478-2.149 1.187-3.187 1.681-10.451 4.971-21.105 10.48-32.053 16.897l-.008-.006h-.006q-.022.003-.043.031a649.289 659.591 0 0 0-4.5-2.734 562 562 0 0 0-8.564-5.73 649.289 659.591 0 0 0-19.48-11.344 649.289 659.591 0 0 0-33.626-20.4 649.289 659.591 0 0 0-7.027-3.268 649.289 659.591 0 0 0-22.34-10.127 649.289 659.591 0 0 0-41.08-18.59 649.289 659.591 0 0 1-.002 0 649.289 659.591 0 0 0-31.08-9.902 649.289 659.591 0 0 0-40.955-13.05l-.002-.001a649.289 659.591 0 0 0-1.621-.307 649.289 659.591 0 0 0-53.674-10.127 649.289 659.591 0 0 0-23.615-4.357 649.289 659.591 0 0 0-17.866-1.201 649.289 659.591 0 0 0-54.464-3.647 502 502 0 0 0-6.016-.037 649.289 659.591 0 0 0-.176-.012v.008a649.289 659.591 0 0 0-.037 0h-.514a649.289 659.591 0 0 0-11.355.674c-13.677.382-27.439.906-41.771 2.469a649.289 659.591 0 0 0-.268.021 649.289 659.591 0 0 0-20.803 1.223 649.289 659.591 0 0 0-.004 0 649.289 659.591 0 0 0-.175.031 649.289 659.591 0 0 0-46.225 8.209 649.289 659.591 0 0 0-17.764 3.154 649.289 659.591 0 0 0-.92.162 649.289 659.591 0 0 0-8.629 1.534 649.289 659.591 0 0 0-.005.002 649.289 659.591 0 0 0-.09.027 649.289 659.591 0 0 0-59.559 17.947 649.289 659.591 0 0 0-12.1 3.647v.002a649.289 659.591 0 0 0-63.793 27.351l-.093.04a649.289 659.591 0 0 0-72.672 42.581 649.289 659.591 0 0 0-21.35 15.657 649.289 659.591 0 0 1-.002.001 649.289 659.591 0 0 0-.017.012 649.289 659.591 0 0 0-45.83 36.4 649.289 659.591 0 0 0-10.836 8.608 649.289 659.591 0 0 0-5.305 5.594 649.289 659.591 0 0 0-6.117 6.449 649.289 659.591 0 0 0-38.936 41.055 649.289 659.591 0 0 0-12.865 13.566 649.289 659.591 0 0 0-6.197 8.7 649.289 659.591 0 0 0-37.664 52.884 649.289 659.591 0 0 0-2.428 3.408 649.289 659.591 0 0 0-7.121 10 649.289 659.591 0 0 1-.012.01 649.289 659.591 0 0 0-.07.137 649.289 659.591 0 0 0-.938 1.668 649.289 659.591 0 0 0-1.484 2.638 649.289 659.591 0 0 0-1.793 2.659 649.289 659.591 0 0 0-2.727 5.382 649.289 659.591 0 0 0-33.511 65.48 649.289 659.591 0 0 0-2.645 5.645 649.289 659.591 0 0 0-1.53 3.262 649.289 659.591 0 0 0-.044.09 649.289 659.591 0 0 0-19.262 55.482 649.289 659.591 0 0 0-9.66 27.817 649.289 659.591 0 0 0-.014.039 649.289 659.591 0 0 0-.003.017 649.289 659.591 0 0 0-18.272 89.307 407 407 0 0 0-26.476 14.55l-.006.005-.28.152q-1.875 1.117-3.732 2.254l-.041.024v.001c-.82.502-1.606 1.038-2.42 1.545a407 407 0 0 0-8.723 5.537 368 368 0 0 0-9.69 7.114c-6.16 4.382-12.457 8.7-18.16 13.297-.082.066-.15.14-.234.207a368 368 0 0 0-14.902 12.697c-.402.363-.682.774-1.082 1.139-1.659 1.523-3.222 3.082-4.857 4.627-.027.025-.05.05-.077.076-1.115 1.059-2.413 2.042-3.507 3.11-1.324 1.29-2.41 2.67-3.704 3.974-4.467 4.504-8.688 9.089-12.789 13.726-1.607 1.818-3.462 3.546-5.013 5.383-.742.879-1.328 1.805-2.057 2.688-.29.337-.597.671-.904 1.005-.518.633-1.087 1.245-1.598 1.88-1.587 1.969-2.963 4-4.488 5.988-3.638 4.743-7.238 9.493-10.524 14.336-1.724 2.541-3.243 5.129-4.87 7.695-2.161 3.405-4.475 6.771-6.467 10.215a286 286 0 0 0-1.551 2.945c-1.572 2.79-2.975 5.605-4.438 8.416a286 286 0 0 0-2.357 4.473c-.459.878-.984 1.744-1.412 2.633l-.168.363a286 286 0 0 0-2.371 5.248c-.799 1.74-1.635 3.472-2.393 5.219-.207.477-.49.942-.693 1.42-.553 1.292-.911 2.605-1.442 3.9a286 286 0 0 0-2.656 6.178 268 268 0 0 0-1.754 5.207 272 272 0 0 0-2.64 7.695c-.317.97-.767 1.93-1.07 2.9-.154.49-.234.98-.384 1.47l-.402 1.28a268 268 0 0 0-2.228 8.245 265 265 0 0 0-2.358 9.466 268 268 0 0 0-1.32 5.295l-.055.303-.006.03a260 260 0 0 0-3.36 20.445c-.117.96-.1 1.905-.206 2.865-.01.084-.03.17-.04.254-.087.788-.28 1.585-.36 2.373-.148 1.452-.098 2.878-.22 4.328-.06.668-.109 1.334-.173 2.002a251 251 0 0 0-.522 8.822c-.01.387-.03.776-.043 1.164-.08 2.226-.178 4.446-.199 6.662l.002.092c-.008.884-.132 1.784-.13 2.666.001 1.06.15 2.09.165 3.148-.002 1.208-.078 2.437-.047 3.64l.034.405c.005.173.028.34.035.512.075 2.271.323 4.497.46 6.754l.03.443c.16 2.558.281 5.115.521 7.653l.008.082c.082.86.05 1.749.14 2.607.053.489.175.956.23 1.444.084.725.165 1.452.265 2.177.037.307.099.602.14.907.357 2.837.856 5.62 1.311 8.427q.14.945.291 1.887c.31 1.812.501 3.655.852 5.453l.488 2.268c.019.09.042.178.06.267.118.57.158 1.163.28 1.73.186.867.494 1.685.69 2.548.605 2.67 1.321 5.288 2.019 7.923.509 2.034 1.007 4.072 1.588 6.075.195.662.297 1.361.498 2.021.306 1.005.723 1.958 1.043 2.957.222.696.353 1.43.582 2.123.197.596.482 1.147.683 1.74.601 1.766 1.267 3.492 1.91 5.237q.593 1.673 1.217 3.332c1.113 2.87 2.346 5.67 3.575 8.48l.033.08c.522 1.193.895 2.462 1.437 3.643.152.33.355.631.508.96l.031.065c.458.982.945 1.941 1.416 2.914q.459.936.926 1.868c1.438 2.891 3.026 5.684 4.59 8.498l.04.074c.839 1.498 1.601 3.049 2.476 4.53.273.475.533.958.797 1.439.161.27.284.563.447.832.051.084.115.16.166.244l.043.072.053.08c.337.553.716 1.074 1.058 1.623a202 202 0 0 0 10.604 15.371c.447.585.825 1.221 1.271 1.807v.004l.01.012v.005q.168.218.348.424c.124.16.28.294.406.453 5.524 7.024 11.484 13.705 17.94 19.93q.2.216.413.422.146.136.303.264a194 194 0 0 0 21.803 17.945l.021.015.008.008.004.002q.051.04.104.076.204.146.412.288.466.326.935.65a194 194 0 0 0 15.711 9.77c.166.092.326.19.492.283a194 194 0 0 0 6.875 3.46c.775.423 1.541.853 2.344 1.245 1.174.566 2.36 1.11 3.547 1.654a194 194 0 0 0 3.543 1.742q.214.104.433.198.535.232 1.08.449a202 202 0 0 0 17.098 6.435q.432.166.88.31c2.32.737 4.804 1.239 7.167 1.905 3.238.918 6.459 1.835 9.783 2.606 3.429.787 6.944 1.41 10.46 2.043l.296.058c1.223.22 2.317.64 3.55.84.455.074.96.06 1.417.13 1.85.278 3.711.534 5.592.765 3.61.476 7.316.779 11.021 1.082 3.723.311 7.438.605 11.256.744.34.013.686.015 1.027.025.85.028 1.617.204 2.471.223-.576 1.177-1.04 2.493-1.605 3.683-3.771 7.93-7.4 16.04-10.7 24.537-.066.17-.149.32-.214.49l-.002.007c-1.335 3.453-2.405 7.194-3.66 10.736-2.213 6.242-4.486 12.414-6.448 18.918-.134.445-.308.849-.441 1.295-1.668 5.594-2.43 12-3.908 17.775-.31 1.21-.518 2.504-.819 3.72-3.58 14.462-7.348 28.744-9.718 44.208-.113.732-.35 1.361-.46 2.096-1.278 8.575-1.33 17.95-2.226 26.794-1.474 14.55-3.256 28.865-3.66 44.047-.032 1.177-.259 2.238-.283 3.418-.184 8.745.884 18.042 1.064 26.963.016.776.073 1.567.092 2.344.353 14.889.38 29.591 1.773 44.883.152 1.663.03 3.22.194 4.887l.01.064c2.175 22.088 5.579 44.548 10.011 67.195.926 4.732 2.395 9.512 3.422 14.26 4.317 19.957 9.39 39.971 15.54 60.092 2.587 8.471 5.683 16.877 8.605 25.351 5.784 16.779 12.149 33.47 19.271 50.172 3.83 8.983 7.772 17.88 11.998 26.815 2.835 5.995 5.053 12.067 8.068 18.033v.002a761 761 0 0 0 27.504 49.701c.034.055.055.113.088.168 125.538 208.037 246.711 161.76 336.016 43.106 32.655-43.387 59.394-96.765 82.19-150.616a513 513 0 0 0 2.206-1.008c2.803-6.649 4.082-12.845 6.711-19.5 10.549-26.642 18.961-51.676 26.526-77.072 3.815-12.784 8.491-25.655 11.49-37.718 2.572-10.341 4.81-20.115 6.754-29.74 1.028-5.084 2.254-10.327 3.101-15.175 2.653-15.176 4.613-29.381 5.418-41.734.008-.113.042-.269.05-.38a649.289 659.591 0 0 0 42.724 2.66 649.289 659.591 0 0 0 7.41.462 649.289 659.591 0 0 0 28.773 1.8 649.289 659.591 0 0 0 .268.013 649.289 659.591 0 0 0 .09 0 649.289 659.591 0 0 0 .031.002 649.289 659.591 0 0 0 27.22-1.672 649.289 659.591 0 0 0 30.712-1.938 649.289 659.591 0 0 0 21.496-1.367 649.289 659.591 0 0 0 13.644-2.537 649.289 659.591 0 0 0 2.88-.502 649.289 659.591 0 0 0 3.05-.504 649.289 659.591 0 0 0 30.648-5.342 649.289 659.591 0 0 0 17.743-3.922 649.289 659.591 0 0 0 9.927-1.886 649.289 659.591 0 0 0 7.254-2.297l.098-.024a649.289 659.591 0 0 0 27.105-8.708 649.289 659.591 0 0 0 1.248-.383 649.289 659.591 0 0 0 39.62-12.727l.623-.217a649.289 659.591 0 0 0 .263-.12 649.289 659.591 0 0 0 29.682-12.772 649.289 659.591 0 0 0 9.475-4.073q.392 1.221.794 2.438a614.268 575.016 0 0 0 0 .006c5.395 16.3 12.121 32.11 20.092 47.174a296 296 0 0 0 12.877 22l.002.002v.001a286 286 0 0 0 14.674 20.692c3.426 4.4 7.167 8.511 10.842 12.684 1.889 2.144 3.62 4.438 5.574 6.52.375.398.8.743 1.178 1.14 5.41 5.693 11.011 11.191 16.896 16.363l.002.002h.002l.002.002c18.889 16.598 40.178 30.376 63.572 40.476 4.146 1.79 8.528 3.147 12.805 4.702 11.812 4.293 23.945 7.986 36.705 10.343 4.308.796 8.822 1.11 13.233 1.67 4.486.57 8.87 1.38 13.46 1.698h.008c.446.03.92-.011 1.367.017 36.04 2.29 75.177-3.241 116.786-18.695 18.15-6.742 35.58-15.007 52.554-24.149 5.516-2.97 10.725-6.458 16.115-9.66 11.255-6.686 22.353-13.6 33.06-21.23 5.96-4.248 11.712-8.764 17.501-13.282 4.178-3.26 8.558-6.203 12.647-9.597a385.01 360.408 0 0 0 .144.098c.411-.342.766-.76 1.176-1.102 4.977-4.157 9.616-8.762 14.459-13.108 5.582-5.007 11.098-10.04 16.502-15.28 4.707-4.566 9.471-9.027 14.043-13.758 3.998-4.138 7.71-8.548 11.603-12.803l.922-1.016c4.725-5.186 9.54-10.222 14.11-15.57 5.022-5.878 9.825-11.926 14.66-17.983a723 723 0 0 0 12.908-16.7c.186-.248.38-.488.566-.735 2.831-3.776 5.878-7.347 8.639-11.178 1.483-2.058 2.736-4.238 4.2-6.31 2.972-4.212 5.667-8.599 8.556-12.868 5.335-7.882 10.72-15.656 15.77-23.71 3.683-5.877 6.915-11.83 10.445-17.782 6.472-10.91 13.298-21.665 19.254-32.773.015-.03.037-.055.052-.084a1030.274 964.439 0 0 0 52.276-116.186q1.786-4.83 3.508-9.644c.042-.12.064-.235.107-.354 4.69-13.15 8.787-26.18 12.254-39.033.396-1.468.608-2.878.988-4.342 1.068-4.11 1.827-8.106 2.768-12.178 2.327-10.068 4.34-20.01 5.892-29.802.355-2.235 1.032-4.588 1.346-6.807.342-2.42.29-4.666.584-7.066 1.16-9.457 1.89-18.7 2.299-27.817.123-2.738.636-5.657.691-8.361v-.002c.025-1.23-.175-2.338-.164-3.56.116-12.688-.303-25.096-1.703-36.934a1175.55 1100.433 0 0 0 .002-.002c-.004-.033-.014-.063-.018-.096-1.257-10.598-3.35-20.67-5.828-30.478-1.041-4.122-2.105-8.22-3.363-12.19-.54-1.702-1.03-3.434-1.61-5.107-2.106-6.085-4.398-12.036-7.033-17.719-.14-.301-.314-.575-.455-.875-.455-.967-.996-1.863-1.466-2.818-.521-1.058-1.085-2.08-1.625-3.123-1.28-2.47-2.466-5.018-3.852-7.4-.787-1.353-1.714-2.587-2.535-3.91-.49-.791-.863-1.68-1.365-2.46a614.701 575.422 0 0 0-.002 0c-.481-.746-1.1-1.37-1.592-2.107-1.048-1.569-1.986-3.232-3.084-4.756v-.002l-.002-.002c-2.872-3.985-5.951-7.787-9.172-11.46-.151-.172-.28-.364-.432-.536-4.6-5.196-9.67-9.95-14.976-14.475-2.005-1.71-4.015-3.411-6.121-5.021-1.144-.875-2.27-1.767-3.444-2.612-3.82-2.748-7.753-5.381-11.89-7.802-6.2-3.63-12.88-6.744-19.793-9.602-.841-.348-1.557-.832-2.408-1.168a385.01 360.408 0 0 0-.008 0c-1.138-.449-2.404-.752-3.56-1.18a178 178 0 0 0-10.731-3.552c-2.36-.705-4.717-1.41-7.149-2.032-3.894-.995-7.927-1.822-12.005-2.6-2.392-.455-4.738-.962-7.192-1.341-4.63-.715-9.443-1.204-14.299-1.64-2.102-.19-4.122-.48-6.267-.616-7.111-.45-14.413-.66-21.99-.51-47.832.944-104.271 17.27-162.473 44.522a649.289 659.591 0 0 0 2.633-58.223 649.289 659.591 0 0 0 .12-2.277 649.289 659.591 0 0 0-.007-1.736 649.289 659.591 0 0 0 0-.48 649.289 659.591 0 0 0-.018-3.413v-.016a675 675 0 0 0-.088-5.02l-.015-.839a675 675 0 0 0-.08-4.531v-.012l-.004-.137a649.289 659.591 0 0 0 0-.017 675 675 0 0 0-4.973-63.8 675 675 0 0 0-.502-6.456 649.289 659.591 0 0 0-.75-5.553 649.289 659.591 0 0 0-.246-1.957 649.289 659.591 0 0 0-.002-.014 649.289 659.591 0 0 0-.084-.97 649.289 659.591 0 0 0-14.88-73.926c1.425-1.79 2.709-3.53 4.093-5.309a293.758 283.646 0 0 0 .002-.002 293.758 283.646 0 0 0 .11-.05v-.002q.016-.022.035-.043a293.75 283.64.021 0 0 .01-.004q4.049-5.2 7.867-10.301c17.81-23.808 32.555-46.986 44.488-69.418a300.677 290.329.021 0 0 .002-.006c14.402-27.077 24.71-53.065 31.377-77.752 3.58-13.253 5.94-26.058 7.492-38.53 1.175-9.449 1.714-18.624 1.795-27.593.031-3.414-.135-6.719-.256-10.06-.119-3.266.009-6.653-.252-9.848-.265-3.249-.91-6.297-1.318-9.47-.416-3.224-.776-6.46-1.336-9.604-1.418-7.954-3.24-15.674-5.545-23.106-3.179-10.243-7.002-20.081-11.742-29.273-.33-.64-.724-1.234-1.061-1.87-.653-1.23-1.3-2.466-1.98-3.677-.838-1.49-1.728-2.941-2.606-4.4-.464-.773-.864-1.594-1.34-2.358v-.002a175 175 0 0 0-7.883-11.6l-.001-.001a179.7 173.514.021 0 0-1.413-1.881 176 176 0 0 0-6.947-8.557 130 130 0 0 0 6.535-3.2c.219-.113.426-.28.645-.396 4.556-2.417 9.05-5.313 13.517-8.296 7.047-4.704 14.061-9.864 21.133-15.915 15.704-13.433 31.85-30.093 50.111-49.568 29.243-31.185 55.967-61.69 80.317-91.494h.014c.05-.062.081-.12.132-.182 23.959-29.332 45.633-57.99 65.13-85.945q.574-.824 1.1-1.633.014-.017.022-.037c2.592-3.729 4.237-7.139 6.752-10.842.014-.02.023-.04.037-.06 8.88-13.129 16.3-25.73 24.278-38.559 9.463-15.214 19.955-30.77 28.133-45.531.067-.123.115-.236.183-.36.603-1.09 1.499-2.286 2.096-3.374.814-1.486 1.241-2.823 2.043-4.303 1.309-2.418 2.063-4.624 3.338-7.03.035-.064.064-.128.1-.193 6.53-12.328 11.822-24.146 17.482-36.146 5.523-11.71 11.343-23.512 16.263-34.977 1.297-3.13 3.345-6.553 4.582-9.658v-.002h.002v-.004h.002v-.002h.002l.002-.002h.004v-.01c.155-.337.299-.675.43-1.004v-.01a83 83 0 0 0 .814-2.136c2.32-5.901 3.781-11.436 5.889-17.25.699-1.928 1.274-3.803 1.951-5.72 1.077-3.162 2.219-6.352 3.28-9.514.247-.739.47-1.464.72-2.204 2.662-8.024 5.995-16.334 8.258-24.185.01-.019.01-.039.016-.059 1.324-4.594 1.958-8.87 3.148-13.402.67-2.555 1.146-5.02 1.775-7.557.033-.13.058-.256.092-.386 1.886-7.442 3.792-14.891 5.274-22.145.599-2.93 1.584-6.036 2.127-8.94.069-.373.103-.727.166-1.097.134-.726.391-1.512.521-2.236 0-.017 0-.032.01-.05v-.007c.456-2.527.507-4.85.92-7.355a508 508 0 0 0 2.035-13.534c.448-3.283 1.112-6.668 1.488-9.914.553-4.783.843-9.422 1.24-14.125.046-.551.09-1.101.141-1.654.157-1.946.615-4.047.746-5.98v-.047c.085-1.244-.036-2.372.037-3.61.238-4.001.438-7.976.565-11.916.161-5.075.122-10.027.103-15-.019-5.314.063-10.682-.158-15.879-.012-.287-.043-.563-.059-.847-.03-.669.054-1.402.02-2.069v-.025c-.064-1.268-.33-2.407-.406-3.668-.26-4.276-.626-8.48-1.014-12.68a373 373 0 0 0-2.309-19.463c-.423-2.91-.665-5.938-1.154-8.808-.03-.175-.077-.337-.111-.51-.046-.274-.045-.58-.094-.853v-.002c-.24-1.377-.696-2.605-.951-3.971-1.153-6.165-2.494-12.194-3.938-18.16-1.036-4.281-2.034-8.577-3.216-12.754-.61-2.151-1.127-4.367-1.774-6.49-.04-.13-.091-.251-.133-.38-.411-1.345-.942-2.595-1.369-3.929-.794-2.469-1.694-4.854-2.535-7.287-1.308-3.782-2.514-7.632-3.941-11.32-1.667-4.307-3.54-8.44-5.364-12.62l-.177-.396c-.634-1.447-1.055-3.064-1.707-4.496v-.01c-.529-1.159-1.231-2.164-1.772-3.312l-.027-.059c-1.029-2.187-1.949-4.464-3.022-6.615-4.41-8.844-9.126-17.422-14.224-25.637-.048-.078-.11-.144-.159-.223q-.302-.487-.607-.972c-3.033-4.84-6.351-9.395-9.607-14.012-1.642-2.326-3.149-4.79-4.844-7.06-.701-.938-1.477-1.79-2.186-2.717l-.04-.059c-.404-.527-.838-1.016-1.25-1.531-4.116-5.31-8.262-10.588-12.663-15.572q-.456-.53-.92-1.05v-.005c-.035-.04-.078-.073-.113-.113l-.293-.325c-1.31-1.426-2.738-2.707-4.055-4.127-2.957-3.187-6.002-6.244-9.072-9.29-2.303-2.286-4.674-4.47-7.02-6.69-1.81-1.69-3.435-3.625-5.279-5.268l-.06-.048c-.75-.669-1.586-1.21-2.342-1.87-.393-.359-.78-.727-1.182-1.076-2.241-1.937-4.57-3.729-6.855-5.597-3.49-2.853-7.08-5.529-10.672-8.21-2.291-1.717-4.41-3.708-6.74-5.36l-.05-.034c-.694-.492-1.448-.872-2.146-1.36-.53-.39-1.041-.81-1.584-1.183-1.189-.818-2.432-1.516-3.63-2.316-4.83-3.23-9.78-6.209-14.752-9.162-.572-.34-1.145-.667-1.715-1.008-2.009-1.178-3.895-2.602-5.926-3.735l-.043-.021c-.842-.469-1.739-.806-2.584-1.268v-.002l-.01-.004h-.002v-.001c-1.391-.76-2.744-1.6-4.144-2.338-1.21-.638-2.468-1.14-3.684-1.762-3.105-1.588-6.272-3.013-9.418-4.498-3.126-1.476-6.19-3.098-9.353-4.473-.125-.053-.252-.099-.377-.152-.58-.25-1.125-.587-1.705-.834l-.051-.02c-1.48-.63-3.022-1.04-4.508-1.648-.625-.245-1.247-.501-1.871-.752-3.148-1.265-6.305-2.421-9.482-3.586-1.673-.613-3.322-1.306-5.002-1.89-1.5-.523-2.96-1.188-4.465-1.688-1.284-.427-2.592-.734-3.885-1.117-1.09-.348-2.145-.847-3.238-1.182l-.018-.004c-2.292-.705-4.638-1.092-6.941-1.744-.294-.083-.588-.17-.881-.252-2.753-.772-5.467-1.65-8.233-2.348-1.641-.413-3.267-.901-4.912-1.29-2.254-.532-4.525-.901-6.79-1.33v-.003c-1.833-.39-3.63-1.012-5.466-1.37-2.423-.475-4.866-.616-7.294-1.034-2.646-.494-5.284-1.098-7.94-1.486-.766-.112-1.525-.24-2.29-.346-3.044-.423-6.088-.59-9.134-.902-.01 0-.011-.001-.017-.002-.72-.079-1.436-.231-2.157-.305-1.594-.163-3.18-.537-4.775-.676-2.33-.202-4.643-.08-6.97-.23-1.42-.103-2.839-.297-4.256-.37-1.312-.066-2.627-.29-3.938-.341-.792-.03-1.575.051-2.365.027-2.342-.071-4.655.04-6.992.022-2.617-.02-5.242-.17-7.856-.174-.403.007-.812-.047-1.217-.04z" style="fill:url(#Q);stroke-width:1.18677"/><g transform="translate(576.51 1389.863)scale(8.65776)"><path fill="#e13b2e" d="M32.767 190.36c14.5 24.029 28.496 18.684 38.811 4.979s16.952-35.772 16.734-45.185c-.222-9.58-4.121-13.17-12.128-22.857C32.134 74 2.239 139.77 32.767 190.36"/><path fill="url(#R)" d="M43.238 108.488c-3.053.17-5.912.915-8.511 2.203-10.377 6.867-15.96 24.048-14.032 43.649 1.109 7.333 3.237 15.43 6.555 24.203a59.29 59.29 0 0 0 54.076-.717c4.528-10.742 7.124-21.728 6.987-27.672-.051-2.188-.32-4.04-.76-5.748-.042-.161-.059-.345-.104-.504-1.565-5.505-5.26-9.34-11.265-16.605-1.573-1.903-3.108-3.51-4.643-5.115-9.776-9.889-19.746-14.17-28.303-13.694" style="fill:url(#R)"/><ellipse cx="-189.484" cy="-17.389" fill="#f39c96" fill-opacity=".555" rx="7.251" ry="4.724" transform="matrix(-.31522 -.94902 .96617 -.25792 0 0)"/><path fill="url(#S)" d="M76.395 142.906A47.13 47.13 0 0 0 29.58 184.6a88 88 0 0 0 3.188 5.76c14.5 24.029 28.495 18.683 38.81 4.978s16.953-35.77 16.734-45.184c-.052-2.247-.307-4.166-.769-5.91a47 47 0 0 0-11.148-1.338" style="fill:url(#S)"/><path fill="url(#T)" fill-opacity=".388" d="M46.523 107.55c-25.56-1.615-36.652 44.866-13.755 82.81 14.5 24.029 28.495 18.683 38.81 4.978s16.953-35.77 16.734-45.184c-.221-9.58-4.122-13.17-12.128-22.857-11.013-13.325-21.14-19.208-29.66-19.746" style="mix-blend-mode:overlay;fill:url(#T)"/><path fill="url(#U)" fill-opacity=".388" d="M46.523 107.55c-25.56-1.615-36.652 44.866-13.755 82.81 14.5 24.029 28.495 18.683 38.81 4.978s16.953-35.77 16.734-45.184c-.221-9.58-4.122-13.17-12.128-22.857-11.013-13.325-21.14-19.208-29.66-19.746" style="mix-blend-mode:overlay;fill:url(#U)"/><path fill="#ff9ccc" d="M104.462 51.64c4.906-13.616 26.747-35.375 41.545-41.005 12.557-4.777 24.88-1.618 31.066 6.742s6.234 21.923-5.756 37.95c-5.005 6.69-12.526 14.683-24.786 17.32s-29.257-.081-46.254-2.8c2.613-7.557 2.188-12.665 4.185-18.207"/><path fill="url(#V)" d="M572.078 557.786a103.74 103.74 0 0 0-75.727 32.836c-10.342 40.856-4.21 110.976 11.815 152.617a103.74 103.74 0 0 0 63.912 22.023 103.7 103.7 0 0 0 29.686-4.34c19.174-18.56 35.365-37.085 44.885-55.537 17.204-33.342 12.62-66.435 6.313-91.175-2.593-10.169-5.691-19.382-9.206-27.679a103.74 103.74 0 0 0-71.678-28.745" style="mix-blend-mode:multiply;fill:url(#V)" transform="matrix(.21453 .24816 -.257 .20714 189.089 -233.939)"/><path fill="url(#W)" d="M567.918 525.616c-29.578.588-57.649 22.159-69.546 58.036-6.874 20.727-8.503 51.625-6.029 82.676a101.35 101.35 0 0 0 64.944 23.533 101.35 101.35 0 0 0 96.761-71.208q-.531-2.264-1.086-4.443c-15.112-59.269-47.416-86.046-79.112-88.435a62 62 0 0 0-5.932-.16" style="mix-blend-mode:overlay;fill:url(#W)" transform="matrix(.21453 .24816 -.257 .20714 189.089 -233.939)"/><ellipse cx="97.421" cy="76.648" fill="#ff9ccc" rx="74.995" ry="76.185"/><path fill="url(#X)" d="M97.42.463a74.995 76.185 0 0 0-74.994 76.185 74.995 76.185 0 0 0 10.545 38.954 81 81 0 0 0 8.955.498 80.625 80.625 0 0 0 80.625-80.625 80.6 80.6 0 0 0-6.947-32.739A74.995 76.185 0 0 0 97.42.463" style="fill:url(#X)"/><path fill="url(#Y)" d="M90.3 51.6a91.9 91.9 0 0 0-67.73 29.779 74.995 76.185 0 0 0 74.85 71.453 74.995 76.185 0 0 0 72.234-55.697A91.91 91.91 0 0 0 90.301 51.6" style="fill:url(#Y)"/><path fill="url(#Z)" fill-opacity=".294" d="M97.42.463a74.995 76.185 0 0 0-74.994 76.185 74.995 76.185 0 0 0 12.332 41.856 117.1 117.1 0 0 0 48.72 10.621 117.06 117.06 0 0 0 87.88-39.729 74.995 76.185 0 0 0 1.058-12.748A74.995 76.185 0 0 0 97.42.463" style="mix-blend-mode:overlay;fill:url(#Z)"/><path fill="url(#aa)" d="M97.42.463a74.995 76.185 0 0 0-25.436 4.516 80.6 80.6 0 0 0-3.183 22.433 80.625 80.625 0 0 0 80.625 80.625 80.6 80.6 0 0 0 17.119-1.838 74.995 76.185 0 0 0 5.871-29.55A74.995 76.185 0 0 0 97.42.462" style="mix-blend-mode:multiply;fill:url(#aa)"/><path fill="url(#ab)" fill-opacity=".471" d="M58.177 102.29c-1.185 3.36-2.771 6.437-4.716 9.001-2.917 3.848-12.32 6.678-18.546 8.635a79.49 80.75 0 0 0 6.562 8.81c8.496-4.606 16.7-16.692 16.7-26.446" style="mix-blend-mode:multiply;fill:url(#ab)" transform="translate(1.721 5.208)scale(.94346)"/><path fill="url(#ac)" d="M39.836 59.018c-6.354 1.238-15.263 4.15-22.273 8.81-30.772 20.456-17.851 63.092 16.77 54.821 7.01-1.674 14.216-4.878 19.129-11.357 4.913-6.48 7.533-16.236 7.206-25.555-.328-9.319-3.603-18.2-7.14-22.86-3.538-4.66-7.337-5.096-13.692-3.859" style="fill:url(#ac)" transform="translate(1.721 5.208)scale(.94346)"/><path fill="url(#ad)" d="M44.159 58.445c3.915-.181 6.715.937 9.368 4.432 3.538 4.66 6.813 13.542 7.14 22.861.329 9.32-2.292 19.073-7.206 25.553-4.913 6.48-12.117 9.684-19.127 11.358-34.622 8.271-47.542-34.365-16.77-54.821 7.01-4.66 15.918-7.572 22.273-8.81 1.588-.31 3.017-.513 4.322-.573" style="mix-blend-mode:overlay;fill:url(#ad)" transform="translate(1.721 5.208)scale(.94346)"/><path fill="url(#ae)" fill-opacity=".471" d="M43.678 58.473c-1.173.083-2.447.273-3.842.545-6.354 1.237-15.262 4.15-22.272 8.81-30.772 20.456-17.852 63.091 16.77 54.82 7.01-1.674 14.214-4.877 19.127-11.357 1.665-2.196 3.067-4.768 4.18-7.572a54.155 60.187 0 0 0 .166-4.703 54.155 60.187 0 0 0-14.13-40.543" style="mix-blend-mode:multiply;fill:url(#ae)" transform="translate(1.721 5.208)scale(.94346)"/><path fill="url(#af)" d="M97.42.463c-9.71 0-21.086 2.82-32.815 7.68a74.995 76.185 0 0 0-31.375 29.11 74.995 76.185 0 0 0-4.673 9.224 74.995 76.185 0 0 0-5.453 19.943 47 47 0 0 0-4.814 2.78 42.5 42.5 0 0 0-4.965 3.848c-2.995 2.706-5.366 5.67-7.154 8.76a33 33 0 0 0-2.25 4.712 31 31 0 0 0-1.404 4.8 30 30 0 0 0-.395 2.4c-.491 3.99-.15 7.912.943 11.504.876 2.873 2.233 5.534 4.032 7.85v.001a22.4 22.4 0 0 0 4.775 4.567 22.4 22.4 0 0 0 3.961 2.228q1.065.465 2.201.83c3.033.974 6.446 1.398 10.2 1.139a34 34 0 0 0 2.876-.324q1.471-.228 3.002-.594.962-.228 1.926-.5a74.995 76.185 0 0 0 .104.129 74.995 76.185 0 0 0 4.71 6.115c.037-.02.073-.048.11-.068a74.995 76.185 0 0 0 36.17 23.394 74.995 76.185 0 0 0 20.273 2.84 74.995 76.185 0 0 0 .014 0 74.995 76.185 0 0 0 .088 0 74.995 76.185 0 0 0 8.396-.531c.705-.081 1.397-.204 2.096-.305a74.995 76.185 0 0 0 6.49-1.228c.652-.155 1.305-.304 1.95-.475a74.995 76.185 0 0 0 7.851-2.522l.072-.025a74.995 76.185 0 0 0 7.785-3.611c.516-.274 1.012-.578 1.52-.864a74.995 76.185 0 0 0 5.723-3.568c.587-.404 1.182-.8 1.757-1.22a74.995 76.185 0 0 0 6.477-5.239 74.995 76.185 0 0 0 5.652-5.76 74.995 76.185 0 0 0 4.782-6.064c.425-.593.812-1.216 1.22-1.822a74.995 76.185 0 0 0 3.032-4.864q.567-.999 1.105-2.015a74.995 76.185 0 0 0 2.576-5.37c.243-.558.5-1.108.73-1.673a74.995 76.185 0 0 0 4.473-16.104l.112-.12c.165-.991.29-1.994.418-2.997a74.995 76.185 0 0 0 .072-.582 74.995 76.185 0 0 0 .62-9.225 74.995 76.185 0 0 0-.003-.652 78 78 0 0 0-.654-9.334 74.995 76.185 0 0 0-1.844-9.521 74.995 76.185 0 0 0 0-.002l.014-.018c-4.66-17.901-15.572-33.22-30.219-43.398q-.003 0-.006.004h-.002a74.995 76.185 0 0 0-.508-.31c-2.54-1.734-5.206-3.284-7.953-4.698a74.995 76.185 0 0 0-3.732-1.7 74 74 0 0 0-5.477-2.214 74.995 76.185 0 0 0-4.338-1.38 74 74 0 0 0-6.312-1.493 74.995 76.185 0 0 0-1.381-.254 74.995 76.185 0 0 0-.451-.084 74.995 76.185 0 0 0-1.778-.328c-3.39-.476-6.831-.802-10.352-.802" style="mix-blend-mode:overlay;fill:url(#af)"/><path fill="url(#ag)" d="M143.537 16.564A82.855 82.855 0 0 0 89.64 94.195a82.86 82.86 0 0 0 22.756 57.035 74.995 76.185 0 0 0 2.095-.462c.652-.155 1.305-.304 1.95-.475a74.995 76.185 0 0 0 7.851-2.522l.072-.025a74.995 76.185 0 0 0 7.785-3.611c.516-.274 1.012-.578 1.52-.864a74.995 76.185 0 0 0 5.723-3.568c.587-.404 1.182-.8 1.757-1.22a74.995 76.185 0 0 0 6.477-5.239 74.995 76.185 0 0 0 5.652-5.76 74.995 76.185 0 0 0 4.782-6.064c.425-.593.812-1.216 1.22-1.822a74.995 76.185 0 0 0 3.032-4.864q.567-.999 1.105-2.015a74.995 76.185 0 0 0 2.576-5.37c.243-.558.5-1.108.73-1.673a74.995 76.185 0 0 0 4.473-16.104l.112-.12c.165-.991.29-1.994.418-2.997a74.995 76.185 0 0 0 .072-.582 74.995 76.185 0 0 0 .62-9.225 74.995 76.185 0 0 0-.003-.652 78 78 0 0 0-.654-9.334 74.995 76.185 0 0 0-1.844-9.521 74.995 76.185 0 0 0 0-.002l.014-.018a76.34 76.34 0 0 0-26.393-40.557" style="fill:url(#ag)"/><path fill="url(#ah)" d="M143.537 16.564A82.855 82.855 0 0 0 89.64 94.195a82.86 82.86 0 0 0 22.756 57.035 74.995 76.185 0 0 0 2.095-.462c.652-.155 1.305-.304 1.95-.475a74.995 76.185 0 0 0 7.851-2.522l.072-.025a74.995 76.185 0 0 0 7.785-3.611c.516-.274 1.012-.578 1.52-.864a74.995 76.185 0 0 0 5.723-3.568c.587-.404 1.182-.8 1.757-1.22a74.995 76.185 0 0 0 6.477-5.239 74.995 76.185 0 0 0 5.652-5.76 74.995 76.185 0 0 0 4.782-6.064c.425-.593.812-1.216 1.22-1.822a74.995 76.185 0 0 0 3.032-4.864q.567-.999 1.105-2.015a74.995 76.185 0 0 0 2.576-5.37c.243-.558.5-1.108.73-1.673a74.995 76.185 0 0 0 4.473-16.104l.112-.12c.165-.991.29-1.994.418-2.997a74.995 76.185 0 0 0 .072-.582 74.995 76.185 0 0 0 .62-9.225 74.995 76.185 0 0 0-.003-.652 78 78 0 0 0-.654-9.334 74.995 76.185 0 0 0-1.844-9.521 74.995 76.185 0 0 0 0-.002l.014-.018a76.34 76.34 0 0 0-26.393-40.557" style="fill:url(#ah)"/><g fill-opacity=".769" transform="matrix(.24975 -.05635 .0591 .23818 -56.153 -108.996)"><ellipse cx="677.882" cy="745.614" fill="#ff588e" rx="35.625" ry="25.198" transform="rotate(5.952)"/><path fill="url(#ai)" d="M617.006 710.4a88.7 88.7 0 0 0-22.955-3.023 88.7 88.7 0 0 0-63.151 26.415q1.023.925 2.061 1.849l.003.003.005.005.003.002.043.041.008.008.027.026a282.508 283.93 13.311 0 0-.147.622 282.508 283.93 13.311 0 0-6.205 36.86 282.508 283.93 13.311 0 0-.148 4.132 282.508 283.93 13.311 0 0-.002.052 282.508 283.93 13.311 0 0 0 .038 282.508 283.93 13.311 0 0-.003.054 282.508 283.93 13.311 0 0 0 .031 282.508 283.93 13.311 0 0-.013.34 282.508 283.93 13.311 0 0-1.167 32.7 282.508 283.93 13.311 0 0 3.563 37.189l-.026.152-.34 2.055-.018.012-.007.005-.027.02-.025.016-.59.407q-1.274.876-2.546 1.758a88.7 88.7 0 0 0 68.702 32.598 88.695 88.695 0 0 0 88.694-88.695 88.695 88.695 0 0 0-65.739-85.672" opacity=".483" style="mix-blend-mode:overlay;fill:url(#ai)"/></g><g fill-opacity=".769" transform="matrix(.29472 -.0665 .06973 .28106 -167.128 -124.546)"><ellipse cx="677.882" cy="745.614" fill="#ff588e" rx="35.625" ry="25.198" transform="rotate(5.952)"/><path fill="url(#aj)" d="M617.006 710.4a88.7 88.7 0 0 0-22.955-3.023 88.7 88.7 0 0 0-63.151 26.415q1.023.925 2.061 1.849l.003.003.005.005.003.002.043.041.008.008.027.026a282.508 283.93 13.311 0 0-.147.622 282.508 283.93 13.311 0 0-6.205 36.86 282.508 283.93 13.311 0 0-.148 4.132 282.508 283.93 13.311 0 0-.002.052 282.508 283.93 13.311 0 0 0 .038 282.508 283.93 13.311 0 0-.003.054 282.508 283.93 13.311 0 0 0 .031 282.508 283.93 13.311 0 0-.013.34 282.508 283.93 13.311 0 0-1.167 32.7 282.508 283.93 13.311 0 0 3.563 37.189l-.026.152-.34 2.055-.018.012-.007.005-.027.02-.025.016-.59.407q-1.274.876-2.546 1.758a88.7 88.7 0 0 0 68.702 32.598 88.695 88.695 0 0 0 88.694-88.695 88.695 88.695 0 0 0-65.739-85.672" opacity=".483" style="mix-blend-mode:overlay;fill:url(#aj)"/></g><path fill="url(#ak)" d="M97.42.463c-1.998 0-4.072.131-6.2.363A74.995 76.185 0 0 0 71.985 4.98a74.995 76.185 0 0 0-7.37 3.16q-.005 0-.009.004a74.995 76.185 0 0 0-8.38 4.91 74.995 76.185 0 0 0-.12.07 74.995 76.185 0 0 0-.609.356 74.995 76.185 0 0 1-.002.002 74.995 76.185 0 0 0-1.773 1.408 74.995 76.185 0 0 0-.004.002 74.995 76.185 0 0 0-5.252 4.172 74.995 76.185 0 0 0-2.59 2.402 74.995 76.185 0 0 0-.002.002 74.995 76.185 0 0 1-.002.002 74.995 76.185 0 0 0-4.484 4.727 74.995 76.185 0 0 0-1.489 1.57 74.995 76.185 0 0 1-.002.002 74.995 76.185 0 0 0-.718 1.01 74.995 76.185 0 0 0-.004.003 74.995 76.185 0 0 0-4.313 6.055 74.995 76.185 0 0 0-1.135 1.594 74.995 76.185 0 0 1-.002.002 74.995 76.185 0 0 0-.199.385 74.995 76.185 0 0 0-.004.006 74.995 76.185 0 0 0-.29.431 74.995 76.185 0 0 0-2.628 5.184 74.995 76.185 0 0 0-1.898 3.744 74.995 76.185 0 0 0-.149.295 74.995 76.185 0 0 0-2.212 6.373 74.995 76.185 0 0 0-1.13 3.252 74.995 76.185 0 0 0-2.11 10.318 49 49 0 0 0-3.092 1.698q-.878.523-1.721 1.083a43 43 0 0 0-2.858 2.092c-.354.28-.687.57-1.027.856-.324.273-.668.536-.978.814l-.063.053-.039.033c-.037.033-.063.07-.1.104-.202.184-.39.373-.588.56-.414.394-.8.798-1.189 1.201-.44.456-.877.912-1.285 1.38-.218.249-.44.497-.649.75-.053.064-.117.124-.17.189-.193.237-.364.482-.55.722q-.364.468-.707.942c-.391.54-.757 1.087-1.11 1.638-.191.3-.388.597-.568.899q-.031.047-.06.096c-.04.066-.087.13-.126.197l-.052.082c-.067.114-.117.233-.182.348-.154.274-.29.55-.436.826-.11.208-.229.415-.333.625-.056.111-.124.22-.178.332l-.045.097c-.134.279-.246.56-.371.84q-.194.431-.373.864c-.092.221-.196.441-.282.664-.015.039-.035.077-.05.117-.015.039-.025.078-.04.117-.072.192-.126.384-.195.576-.057.16-.108.322-.162.483l-.037.107c-.074.223-.162.443-.23.666l-.094.299c-.054.18-.097.36-.147.539-.08.288-.145.576-.216.865-.084.337-.177.673-.248 1.01-.01.046-.026.091-.036.137-.045.218-.067.436-.107.654q-.085.45-.154.898c-.036.233-.078.466-.108.698-.006.05-.019.1-.025.15-.012.098-.01.195-.022.293-.029.259-.048.515-.07.773-.021.247-.05.494-.064.74-.017.267-.02.53-.03.796-.007.217-.017.435-.02.652q-.001.337.005.672c.002.153-.01.31-.006.463l.004.047c.01.306.043.606.062.91.018.282.03.564.057.843.012.124.016.25.03.374q.02.188.046.376c.034.28.087.552.129.829.03.202.058.406.094.607.026.149.04.301.068.45l.065.302q.047.224.1.445c.058.263.13.52.196.78.083.322.158.647.252.964.019.062.029.127.047.188.031.102.073.2.106.3q.067.215.138.426c.058.172.123.339.184.508.08.223.157.448.244.668.108.276.232.542.35.813.077.176.142.358.222.533l.135.28q.098.203.2.404c.155.31.329.61.497.914.097.173.185.352.286.523.046.08.087.163.134.242l.034.057c.036.06.08.116.117.176.189.304.397.594.6.888.209.305.413.614.636.908.052.068.096.142.148.21v.001c.085.11.191.201.278.31a23 23 0 0 0 1.642 1.823c.102.101.184.22.287.319.051.048.113.086.165.134l.002.002a22 22 0 0 0 2.224 1.832c.063.046.115.102.178.147.221.156.465.289.693.437.309.202.615.405.936.592.31.181.634.347.955.514.17.089.334.185.508.27q.278.134.56.261c.106.048.202.108.309.154.254.111.527.195.787.297.35.138.699.278 1.06.4.12.042.232.095.354.134.268.085.555.143.828.22.374.106.746.212 1.13.301.396.091.802.163 1.208.236.193.035.378.083.574.114q.337.051.68.093c.417.055.845.09 1.273.125.43.036.859.07 1.3.086.448.017.908.012 1.368.008a30 30 0 0 0 1.338-.033c.17-.009.33 0 .5-.012.298-.02.612-.074.914-.103l.04-.004c.214-.021.42-.026.636-.051.252-.03.51-.072.766-.107.176-.025.344-.031.521-.059q1.47-.228 3.002-.594.962-.228 1.926-.5a74.995 76.185 0 0 0 .023.03 74.995 76.185 0 0 0 4.791 6.214h.004v-.002h.002l.11-.06a74.995 76.185 0 0 0 5.095 5.32 74.995 76.185 0 0 0 1.668 1.586 74.995 76.185 0 0 0 4.924 4.069 74.995 76.185 0 0 0 .01.008 74.995 76.185 0 0 0 2.744 1.974 74.995 76.185 0 0 0 4.768 3.084 74.995 76.185 0 0 0 3.957 2.088 74.995 76.185 0 0 0 4.254 2.094 74.995 76.185 0 0 0 8.744 3.166 74.995 76.185 0 0 0 10.04 2.125 74.995 76.185 0 0 0 6.108.426 74.995 76.185 0 0 0 1.99.138 74.995 76.185 0 0 0 2.135.15 74.995 76.185 0 0 0 .014 0 74.995 76.185 0 0 0 .088 0 74.995 76.185 0 0 0 8.396-.53c.128-.015.252-.038.38-.055a74.995 76.185 0 0 0 2.571-.399 74.995 76.185 0 0 0 3.54-.617 74.995 76.185 0 0 0 2.095-.463q.63-.151 1.26-.306a74.995 76.185 0 0 0 3.965-1.22 74.995 76.185 0 0 0 4.576-1.47l.072-.025a74.995 76.185 0 0 0 .828-.385 74.995 76.185 0 0 0 3.61-1.674 74.995 76.185 0 0 0 3.347-1.553c.515-.274 1.012-.577 1.52-.863a74.995 76.185 0 0 0 .07-.043 74.995 76.185 0 0 0 3.518-2.193 74.995 76.185 0 0 0 2.135-1.332c.587-.405 1.182-.8 1.757-1.221a74.995 76.185 0 0 0 .553-.447 74.995 76.185 0 0 0 3.285-2.657 74.995 76.185 0 0 0 2.639-2.134 74.995 76.185 0 0 0 1.496-1.526 74.995 76.185 0 0 0 2.299-2.34 74.995 76.185 0 0 0 1.857-1.894 74.995 76.185 0 0 0 2.01-2.549 74.995 76.185 0 0 0 2.156-2.734 74.995 76.185 0 0 0 .616-.782c.425-.593.812-1.216 1.22-1.822a74.995 76.185 0 0 0 1.63-2.611 74.995 76.185 0 0 0 1.737-2.863c.26-.467.52-.933.77-1.405a74.995 76.185 0 0 0 2.576-5.369l.117-.266a74.995 76.185 0 0 0 .436-.884 74.995 76.185 0 0 0 4.648-16.617l.164-.186a74.995 76.185 0 0 0 .2-1.592 74.995 76.185 0 0 0 .24-1.931 74.995 76.185 0 0 0 .619-9.225 74.995 76.185 0 0 0 0-.258 74.995 76.185 0 0 0-.002-.394 78 78 0 0 0-.654-9.334 74.995 76.185 0 0 0-.073-.37 74.995 76.185 0 0 0-.052-.613 74.995 76.185 0 0 0-1.719-8.539 74.995 76.185 0 0 0 0-.002l.014-.017c.159-.2.302-.395.457-.594h.002a32.762 33.93 90 0 0 .013-.006q.468-.602.909-1.191c3.299-4.41 5.687-8.634 7.287-12.614a39 39 0 0 0 1.476-4.385v-.002a33 33 0 0 0 .846-4.16c.544-4.042.201-7.72-.852-10.949v-.002a21 21 0 0 0-1.283-3.076v-.002q-.376-.73-.806-1.42v-.002a20 20 0 0 0-.91-1.34 20 20 0 0 0-1.233-1.504c-.044-.05-.1-.088-.145-.136a21 21 0 0 0-2.1-1.989q-.171-.14-.349-.28a22 22 0 0 0-2.316-1.593c-.67-.4-1.387-.732-2.104-1.066-.35-.163-.678-.36-1.039-.506-6.217-2.531-13.951-2.648-21.783.332-.061.023-.128.06-.19.084-.665.258-1.341.539-2.033.86a33.533 34.73 90 0 0-.002 0c-.116.053-.242.133-.359.189a48 48 0 0 0-3.705 1.953l-.006.004h-.002a74.995 76.185 0 0 0-.508-.309 74.995 76.185 0 0 0-23.58-10.654l-.012-.028a74.995 76.185 0 0 0-.19-.035 74.995 76.185 0 0 0-.194-.062 74.995 76.185 0 0 1-.002 0 74.995 76.185 0 0 0-2.317-.428 74.995 76.185 0 0 0-1.517-.28 74.995 76.185 0 0 0-.024-.003 74.995 76.185 0 0 0-.13-.026 74.995 76.185 0 0 0-1.227-.224 74.995 76.185 0 0 0-.36-.067 74.995 76.185 0 0 0-.052-.01 74.995 76.185 0 0 0-.01-.001 74.995 76.185 0 0 0-.006-.002 74.995 76.185 0 0 0-.024-.004 74.995 76.185 0 0 0-3.078-.569 74.995 76.185 0 0 0-9.045-.562z" style="mix-blend-mode:overlay;fill:url(#ak)"/><path fill="url(#al)" d="M763.635 856.2c1.973 5.12 1.218 10.784-1.618 17.164-6.434 14.478-20.602 27.6-31.503 31.102-10.795 3.47-21.726-8.082-30.561-22.047-18.158-28.7-4.533-41.214 14.78-43.573 19.311-2.36 44.31 5.436 48.902 17.354" style="fill:url(#al)" transform="matrix(.25613 -.07515 .0813 .24125 -149.288 -88.87)"/><path fill="url(#am)" d="M723.878 854.763a43.45 43.45 0 0 0-31.125 13.137c1.371 4.136 3.666 8.939 7.198 14.521 8.835 13.965 19.77 25.514 30.565 22.045 10.341-3.323 23.624-15.302 30.454-28.883a43.45 43.45 0 0 0-37.092-20.82" style="fill:url(#am)" transform="matrix(.25613 -.07515 .0813 .24125 -149.288 -88.87)"/><path fill="url(#an)" d="M723.878 854.763a43.45 43.45 0 0 0-20.799 5.302 28.15 28.15 0 0 0-4.755 15.656 28 28 0 0 0 .395 4.707q.589.98 1.232 1.993c5.515 8.718 11.852 16.497 18.46 20.266a28.2 28.2 0 0 0 8.056 1.177 28.2 28.2 0 0 0 8.762-1.399c5.033-2.612 10.391-6.82 15.179-11.946a28.15 28.15 0 0 0 4.208-14.798 28.2 28.2 0 0 0-1.806-9.932 43.45 43.45 0 0 0-28.932-11.026" style="fill:url(#an)" transform="matrix(.25613 -.07515 .0813 .24125 -149.288 -88.87)"/><path fill="url(#ao)" d="M824.17 757.915c-1.66 38.628-13.043 70.276-27.808 69.641-14.764-.635-25.233-33.569-23.572-72.197 1.66-38.627 14.857-63.342 29.622-62.707s22.5 25.37 20.838 63.999" style="fill:url(#ao)" transform="matrix(.26395 -.08459 .08097 .27875 -155.713 -110.015)"/><path fill="#fff" d="M112.15 15.118c.742-.201 1.526-.23 2.112-.1 2.31.508 3.323 2.776 4.454 5.526.607 1.478 1.89 3.908 2.085 5.529.407 3.37-.198 6.525-2.508 8.081-.593.4-.982.468-1.525.597-1.172.278-2.555-.01-3.616-.73-1.18-.801-2.16-2.014-2.865-3.367-.673-1.293-1.199-2.99-1.642-5.023-.546-2.507-.604-4.226-.175-6.23.282-1.316.872-2.503 1.795-3.316.465-.408 1.149-.767 1.886-.967"/><path fill="url(#ap)" d="M800.618 689.564c9.248-.215 18.214 9.528 22.268 28.431 5.068 23.632 3.196 67.416-3.87 90.485-11.282 36.84-39.753 36.783-46.198-9.366-2.652-18.992-2.08-54.333 3.84-78.238 5.182-20.925 14.712-31.097 23.96-31.312m.835 7.413c-3.173-.175-6.431.948-8.98 3.42-11.024 10.683-11.365 49.07 2.854 53.687 4.402 1.429 8.226.598 11.763-2.557 10.228-9.118 11.654-39.181 2.823-50.156-2.202-2.737-5.288-4.217-8.46-4.393m14.877 83.485-2.506 3.11c-9.663 11.99-26.476 9.374-33.427-2.778-1.355-2.37-1.383-2.098-.713 6.945 3.867 52.21 28.46 51.476 36.126-3.545z" style="fill:url(#ap)" transform="matrix(.26395 -.08459 .08097 .27875 -155.713 -110.015)"/><path fill="url(#aq)" d="M824.17 757.915c-1.66 38.628-13.043 70.276-27.808 69.641-14.764-.635-25.233-33.569-23.572-72.197 1.66-38.627 14.857-63.342 29.622-62.707s22.5 25.37 20.838 63.999" style="fill:url(#aq)" transform="matrix(.26785 -.0713 .06694 .28244 -177.556 -119.665)"/><path fill="#fff" d="M83.723 18.687c.75-.164 1.534-.153 2.113.005 2.282.623 3.18 2.94 4.172 5.743.533 1.506 1.692 3.996 1.807 5.625.238 3.386-.525 6.508-2.909 7.946-.612.37-1.004.418-1.553.52-1.184.219-2.551-.138-3.575-.91-1.14-.859-2.057-2.12-2.693-3.505-.607-1.325-1.048-3.046-1.389-5.099-.42-2.532-.392-4.251.136-6.232.347-1.3.997-2.455 1.96-3.22.483-.385 1.185-.71 1.931-.873"/><path fill="url(#ar)" d="M800.618 689.564c9.248-.215 18.214 9.528 22.268 28.431 5.068 23.632 3.196 67.416-3.87 90.485-11.282 36.84-39.753 36.783-46.198-9.366-2.652-18.992-2.08-54.333 3.84-78.238 5.182-20.925 14.712-31.097 23.96-31.312m.835 7.413c-3.173-.175-6.431.948-8.98 3.42-11.024 10.683-11.365 49.07 2.854 53.687 4.402 1.429 8.226.598 11.763-2.557 10.228-9.118 11.654-39.181 2.823-50.156-2.202-2.737-5.288-4.217-8.46-4.393m14.877 83.485-2.506 3.11c-9.663 11.99-26.476 9.374-33.427-2.778-1.355-2.37-1.383-2.098-.713 6.945 3.867 52.21 28.46 51.476 36.126-3.545z" style="fill:url(#ar)" transform="matrix(.26785 -.0713 .06694 .28244 -177.556 -119.665)"/><g transform="matrix(1 0 0 .9361 -3.04 7.862)"><path fill="#e13b2e" d="M193.906 75.454c20.107-.424 25.974 19.064 18.504 41.389-6.944 20.752-20.88 43.364-41.082 51.38-23.387 9.279-40.089-10.227-41.05-30.657-1.264-26.862 40.156-61.618 63.628-62.112"/><path fill="url(#as)" d="M202.637 83.85a70.95 70.95 0 0 0-70.588 63.793c4.985 16.09 19.818 28.302 39.28 20.58 20.2-8.016 34.137-30.629 41.081-51.381 4.282-12.798 4.181-24.662-.472-32.38a71 71 0 0 0-9.301-.612" style="fill:url(#as)"/><ellipse cx="145.249" cy="143.679" fill="#f39c96" fill-opacity=".555" rx="7.995" ry="4.941" transform="rotate(-19.642)"/><path fill="url(#at)" d="M203.516 77.115a44.47 44.47 0 0 0-37.616 43.938 44.47 44.47 0 0 0 20.678 37.568c12.097-10.729 20.8-26.742 25.832-41.78 6.104-18.24 3.303-34.587-8.894-39.726" style="fill:url(#at)"/><path fill="url(#au)" d="M193.906 75.453c-23.472.495-64.893 35.251-63.629 62.113a40.6 40.6 0 0 0 1.373 8.704 136 136 0 0 0 7.473-1.575 135.78 135.78 0 0 0 76.182-49.6c-1.308-11.816-8.359-19.917-21.399-19.642" style="mix-blend-mode:overlay;fill:url(#au)"/><path fill="url(#av)" d="M193.906 75.453c-15.186.32-37.884 14.98-51.676 32.567a54.05 54.05 0 0 0 46.83 27.062 54 54 0 0 0 16.907-2.713 119 119 0 0 0 6.443-15.527c7.47-22.325 1.603-41.813-18.504-41.389" style="mix-blend-mode:overlay;fill:url(#av)"/></g><path fill="url(#aw)" d="M97.42.463c-1.998 0-4.072.131-6.2.363A74.995 76.185 0 0 0 71.985 4.98a74.995 76.185 0 0 0-7.37 3.16q-.005 0-.009.004a74.995 76.185 0 0 0-8.38 4.91 74.995 76.185 0 0 0-.12.07 74.995 76.185 0 0 0-.609.356 74.995 76.185 0 0 1-.002.002 74.995 76.185 0 0 0-1.773 1.408 74.995 76.185 0 0 0-.004.002 74.995 76.185 0 0 0-5.252 4.172 74.995 76.185 0 0 0-2.59 2.402 74.995 76.185 0 0 0-.002.002 74.995 76.185 0 0 1-.002.002 74.995 76.185 0 0 0-4.484 4.727 74.995 76.185 0 0 0-1.489 1.57 74.995 76.185 0 0 1-.002.002 74.995 76.185 0 0 0-.718 1.01 74.995 76.185 0 0 0-.004.003 74.995 76.185 0 0 0-4.313 6.055 74.995 76.185 0 0 0-1.135 1.594 74.995 76.185 0 0 1-.002.002 74.995 76.185 0 0 0-.199.385 74.995 76.185 0 0 0-.004.006 74.995 76.185 0 0 0-.29.431 74.995 76.185 0 0 0-2.628 5.184 74.995 76.185 0 0 0-1.898 3.744 74.995 76.185 0 0 0-.149.295 74.995 76.185 0 0 0-2.212 6.373 74.995 76.185 0 0 0-1.13 3.252 74.995 76.185 0 0 0-2.11 10.318 49 49 0 0 0-3.528 1.961 90.06 90.06 0 0 0 85.246 61.02 90.06 90.06 0 0 0 62.512-25.229 74.995 76.185 0 0 0 3.86-14.59l.163-.185a74.995 76.185 0 0 0 .2-1.592 74.995 76.185 0 0 0 .24-1.932 74.995 76.185 0 0 0 .619-9.224 74.995 76.185 0 0 0 0-.258 74.995 76.185 0 0 0-.002-.395 78 78 0 0 0-.654-9.334 74.995 76.185 0 0 0-.073-.369 74.995 76.185 0 0 0-.052-.613 74.995 76.185 0 0 0-1.72-8.54 74.995 76.185 0 0 0 0-.001l.014-.018c.16-.2.303-.395.458-.593h.002a32.762 33.93 90 0 0 .013-.006q.468-.601.908-1.192c3.3-4.41 5.688-8.633 7.288-12.613a39 39 0 0 0 1.476-4.385v-.002a33 33 0 0 0 .846-4.16c.544-4.042.201-7.72-.852-10.95v-.001a21 21 0 0 0-1.283-3.076v-.002q-.376-.73-.807-1.42v-.002a20 20 0 0 0-.91-1.34 20 20 0 0 0-1.232-1.504c-.045-.05-.1-.088-.145-.137a21 21 0 0 0-2.1-1.988q-.173-.142-.349-.28a22 22 0 0 0-2.316-1.593c-.67-.4-1.387-.733-2.104-1.066-.35-.164-.678-.36-1.039-.506-6.217-2.532-13.951-2.648-21.783.332-.061.023-.128.06-.19.084-.665.258-1.341.539-2.033.86a33.533 34.73 90 0 0-.002 0c-.116.053-.242.133-.359.189a48 48 0 0 0-3.705 1.953l-.006.004h-.002a74.995 76.185 0 0 0-.508-.309 74.995 76.185 0 0 0-23.58-10.654l-.012-.028a74.995 76.185 0 0 0-.19-.035 74.995 76.185 0 0 0-.194-.062 74.995 76.185 0 0 1-.002 0 74.995 76.185 0 0 0-2.317-.428 74.995 76.185 0 0 0-1.517-.28 74.995 76.185 0 0 0-.024-.003 74.995 76.185 0 0 0-.13-.026 74.995 76.185 0 0 0-1.227-.224 74.995 76.185 0 0 0-.36-.067 74.995 76.185 0 0 0-.052-.01 74.995 76.185 0 0 0-.01-.001 74.995 76.185 0 0 0-.006-.002 74.995 76.185 0 0 0-.024-.004 74.995 76.185 0 0 0-3.078-.569 74.995 76.185 0 0 0-9.045-.562z" style="mix-blend-mode:overlay;fill:url(#aw)"/></g><g transform="rotate(-4.987 -57558.465 85214.848)scale(3.34796)"><path fill="url(#ax)" d="M2216.662 1643.646c-17.654-8.91-49.992-22.439-77.289-20.786-61.136 3.702-132.426 83.654-26.992 197.836 33.953 36.77 86.358 74.227 118.82 88.579s44.98 5.597 68.739-15.688c104.25-93.39 116.353-170.294 92.264-217.9-24.09-47.604-84.372-65.91-124.89-42.105-13.2 7.754-20.129 17.654-25.078 20.459-4.95 2.804-7.92-1.485-25.574-10.395" style="fill:url(#ax)" transform="translate(462.45 186.41)"/><path fill="url(#ay)" fill-opacity=".58" d="M2601.822 1809.27c-61.136 3.701-132.426 83.653-26.992 197.836 6.773 7.334 14.28 14.698 22.217 21.898a148.777 148.777 0 0 0 148.777-148.777 148.8 148.8 0 0 0-13.406-61.72q-1.34.713-2.654 1.485c-13.2 7.755-20.129 17.654-25.079 20.46-4.95 2.804-7.92-1.486-25.574-10.395-17.654-8.91-49.992-22.44-77.289-20.787" style="mix-blend-mode:overlay;fill:url(#ay)"/><path fill="url(#az)" d="M2612.033 1809.309a159.4 159.4 0 0 0-30.181 93.338 159.42 159.42 0 0 0 159.42 159.418 159.4 159.4 0 0 0 47.394-7.208c79.882-82.039 87.88-149.498 65.988-192.76-24.09-47.604-84.372-65.91-124.89-42.105-13.2 7.755-20.129 17.654-25.079 20.46-4.95 2.804-7.92-1.486-25.574-10.395-15.494-7.82-42.298-19.199-67.078-20.748" style="fill:url(#az)"/><path fill="url(#aA)" d="M2610.35 1809.219a81 81 0 0 0-8.528.05c-59.652 3.613-128.972 79.82-34.357 189.587a134.89 134.89 0 0 0 107.441-132.069 134.9 134.9 0 0 0-6.668-41.888c-16-7.123-37.721-14.783-57.888-15.68" style="fill:url(#aA)"/><path fill="url(#aB)" d="M2768.664 1809.594c-13.72.129-27.142 3.49-38.9 10.398-12.497 7.342-19.375 16.608-24.272 19.953-9.315 16.958-5.7 35.805-1.758 40.282 3.983 4.522 8.3-5.626 16.291-15.893 7.992-10.267 19.658-20.65 30.801-29.617s21.763-16.518 21.524-21.19c-.086-1.666-1.554-2.967-3.686-3.933" style="fill:url(#aB)"/><ellipse cx="775.635" cy="3251.518" fill="#fff4fd" rx="17.314" ry="21.338" transform="rotate(-42.844)"/><path fill="url(#aC)" d="M2601.822 1809.27a77 77 0 0 0-5.69.56 189 189 0 0 0-3.124 34.227 189 189 0 0 0 189 189 189 189 0 0 0 28.314-2.133c59.517-71.23 64.056-129.849 44.332-168.826-24.09-47.605-84.372-65.91-124.89-42.106-13.2 7.755-20.129 17.654-25.079 20.46-4.95 2.804-7.92-1.486-25.574-10.395-17.654-8.91-49.992-22.44-77.289-20.787" style="fill:url(#aC)"/><path fill="url(#aD)" d="M2601.822 1809.27c-61.136 3.701-132.426 83.653-26.992 197.836 33.953 36.77 86.358 74.228 118.82 88.58 32.462 14.351 44.98 5.596 68.739-15.688 41.97-37.598 69.006-72.525 84.757-103.943a239 239 0 0 0 8.198-62.067 239 239 0 0 0-9.172-65.584c-27.75-37.22-80.04-49.778-116.408-28.412-13.2 7.755-20.129 17.654-25.079 20.46-4.95 2.804-7.92-1.486-25.574-10.395-17.654-8.91-49.992-22.44-77.289-20.787" style="mix-blend-mode:multiply;fill:url(#aD)"/></g><path fill="url(#aE)" d="M2157.377 547.475c-2.088.047-4.14.328-6.223.418-3.765.161-7.5.421-11.244.724-2.163.175-4.333.24-6.488.462-3.55.367-7.045.944-10.568 1.441a284 284 0 0 0-11.678 1.868c-2.785.513-5.592.915-8.355 1.51-2.122.458-4.173 1.124-6.28 1.63-.513.124-1.016.271-1.527.397-3.742.922-7.477 1.82-11.168 2.899-3.65 1.066-7.244 2.253-10.839 3.474a258 258 0 0 0-8.041 2.875c-1.641.619-3.361 1.025-4.988 1.676-.847.34-1.632.815-2.475 1.162-4.805 1.983-9.457 4.287-14.132 6.562-2.496 1.215-5.048 2.284-7.505 3.583v.002c-.764.404-1.586.688-2.347 1.1-.402.22-.766.508-1.168.73-5.198 2.857-10.172 6.133-15.167 9.375l-.153-.303a241 241 0 0 0-8.416 5.72v.006c-.041.03-.068.063-.11.092-10.195 7.262-19.025 14.81-26.898 22.273-.126.12-.306.24-.432.359-.033.03-.078.06-.11.091-3.068 2.92-5.298 5.58-8.064 8.437l-.045.047c-4.345 4.488-8.811 8.913-12.506 13.08l-.017.02c-.127.144-.31.313-.438.456-5.598 6.323-10.365 11.944-14.803 16.924l-.013.013c-1.037 1.164-2.007 2.194-2.994 3.26l-.039.044a136 136 0 0 1-3.749 3.912v.004c-1.627 1.623-3.224 3.178-4.742 4.433v.002l-.01.006v.002a39 39 0 0 1-2.71 2.078v.002c-5.885 4.047-11.132 4.686-18.632 2.609-2.5-.693-5.252-1.688-8.36-2.958-12.434-5.084-30.59-14.59-61.328-26.88h-.001a833 833 0 0 0-37.762-14.033v-.002c-.013-.005-.031-.007-.043-.012l-.024-.008c-23.799-8.197-51.62-15.841-80.416-22.327v-.002h-.01c-.435-.097-.784-.241-1.22-.338-3.478-.778-6.226-1.983-9.742-2.705-2.972-.612-6.056-.867-9.05-1.435l-.01-.002c-6.801-1.293-13.482-2.191-20.362-3.232a461 461 0 0 0-35.182-3.955h-.01c-10.541-.782-20.979-1.529-31.343-1.417-1.513.015-3.084-.246-4.593-.21v.003l-.206.008q-2.697.067-5.379.18c-9.666.41-19.186 1.271-28.482 2.653l-.01.001-.01.002a257 257 0 0 0-18.792 3.522v.002c-3.144.71-6.24 1.98-9.38 2.81-4.707 1.246-9.374 2.44-14.056 3.95v.002c-2.94.948-5.856 1.84-8.78 2.89-4.47 1.607-8.825 3.6-13.25 5.443-4.679 1.95-9.331 3.813-13.944 6.023-2.662 1.276-5.31 2.495-7.946 3.856-4.441 2.294-8.694 4.987-13.047 7.52-4.541 2.64-9.082 5.167-13.511 8.062-2.341 1.53-4.68 3-6.987 4.6-4.291 2.978-8.31 6.368-12.47 9.584-4.298 3.322-8.634 6.503-12.773 10.075-1.991 1.717-3.991 3.378-5.943 5.153-4.023 3.657-7.68 7.734-11.52 11.628-3.936 3.988-7.955 7.817-11.682 12.047-1.615 1.835-3.251 3.614-4.825 5.493-3.644 4.35-6.819 9.124-10.227 13.71-3.44 4.627-7.017 9.08-10.197 13.942-1.237 1.892-2.506 3.734-3.702 5.662-3.128 5.038-5.671 10.5-8.502 15.772-2.816 5.242-5.835 10.296-8.337 15.763-.867 1.892-1.772 3.74-2.599 5.658-2.469 5.726-4.23 11.87-6.336 17.827-2.222 6.287-4.782 12.353-6.576 18.89-.455 1.656-.93 3.295-1.357 4.967-.331 1.303-.574 2.644-.889 3.956-.057.245-.108.495-.165.74-.851 3.59-1.717 7.165-2.433 10.824-.74 3.78-1.31 7.641-1.901 11.495-.57 3.712-1.167 7.408-1.596 11.187v.008a287 287 0 0 0-.62 5.97c-.12 1.275-.14 2.586-.242 3.867-.057.722-.084 1.455-.137 2.179-.274 3.811-.588 7.602-.717 11.476-.136 4.115-.063 8.312-.03 12.496.03 3.558.025 7.097.18 10.705v.008c.083 1.947.199 3.903.32 5.865.485 7.883 2.123 16.16 3.23 24.265.992 7.28 1.44 14.36 2.957 21.812.287 1.41.519 2.796.826 4.212 1.871 8.66 5.07 17.698 7.677 26.577 2.24 7.62 3.825 15.044 6.628 22.818.429 1.191.807 2.363 1.25 3.557 3.54 9.548 8.595 19.457 13.022 29.223 3.303 7.288 5.656 14.348 9.47 21.752.27.523.683 1.076.955 1.6.485.933.925 1.853 1.418 2.788 5.623 10.662 12.973 21.665 19.698 32.55 4.761 7.706 8.62 15.231 13.952 23.042.44.648.85 1.286 1.295 1.934 8.624 12.534 19.218 25.391 29.369 38.179l.12.158c5.348 6.734 9.678 13.305 15.465 20.105.287.337.555.67.844 1.009 16.26 19.044 34.523 38.37 54.367 57.88 1.109 1.09 1.917 2.142 3.037 3.233a1083 1083 0 0 0 26.966 25.376c14.498 13.19 31.215 26.038 47.185 39.034 11.266 9.167 21.47 18.557 33.285 27.535 114.639 87.11 251.59 163.531 341.606 194.285 49.197 16.81 84.372 19.977 114.495 11.698a120 120 0 0 0 12.626-4.239 130 130 0 0 0 12.163-5.604c11.987-6.275 23.518-14.532 35.295-24.607 15.704-13.434 31.85-30.094 50.11-49.569 29.243-31.185 55.968-61.689 80.318-91.494h.01c.05-.06.084-.116.135-.179 23.958-29.332 45.63-57.992 65.127-85.947 2.813-4.033 4.675-7.748 7.398-11.752 9.136-13.431 16.644-26.278 24.792-39.38 9.464-15.213 19.958-30.769 28.135-45.53 2.88-5.2 5.032-10.116 7.757-15.26 6.532-12.328 11.825-24.145 17.485-36.145 6.185-13.114 13.034-26.459 18.213-39.175.853-2.093 2.245-4.397 3.07-6.479v-.01c2.097-5.285 3.398-10.235 5.326-15.449 2.395-6.482 4.471-12.797 6.61-19.17 3.333-9.935 6.968-19.99 9.694-29.657 1.376-4.88 2.175-9.476 3.399-14.287 2.226-8.743 4.448-17.48 6.188-25.994.598-2.932 1.585-6.035 2.127-8.94.6-3.212.888-6.264 1.42-9.442a496 496 0 0 0 2.231-14.837c.449-3.284 1.115-6.668 1.49-9.915.553-4.783.843-9.422 1.24-14.124.295-3.474.675-6.984.886-10.414.264-4.3.47-8.564.603-12.794.163-5.074.125-10.027.106-15-.02-5.313.06-10.68-.161-15.877-.085-2.007-.276-3.944-.391-5.934-.26-4.514-.66-8.935-1.068-13.358a374 374 0 0 0-2.309-19.46c-.425-2.912-.664-5.939-1.153-8.809-.28-1.64-.736-3.155-1.037-4.782l-.038-.185c-1.168-6.296-2.546-12.442-4.02-18.528-1.036-4.282-2.035-8.578-3.218-12.755-.608-2.151-1.125-4.367-1.771-6.49-.43-1.41-.987-2.718-1.433-4.117-.81-2.538-1.742-4.981-2.605-7.478-1.308-3.782-2.515-7.633-3.942-11.322-1.667-4.307-3.538-8.44-5.363-12.619-1.212-2.778-2.408-5.553-3.689-8.274-1.03-2.187-1.947-4.464-3.02-6.614-4.41-8.844-9.128-17.42-14.227-25.635-.048-.078-.108-.146-.157-.224-5.383-8.656-11.208-16.874-17.286-24.82-1.976-2.584-4.09-5.001-6.135-7.509-2.896-3.552-5.669-7.244-8.696-10.644v-.006c-.036-.04-.077-.072-.113-.112-1.389-1.558-2.931-2.925-4.348-4.451-2.958-3.187-6.003-6.243-9.072-9.29-3.745-3.715-7.513-7.378-11.413-10.882-1.501-1.348-2.947-2.756-4.47-4.072-2.241-1.938-4.568-3.727-6.856-5.596-4.593-3.756-9.284-7.329-14.05-10.806-2.401-1.75-4.699-3.661-7.14-5.342-1.188-.817-2.434-1.514-3.631-2.316-4.832-3.23-9.78-6.207-14.752-9.162-3.418-2.03-6.79-4.13-10.268-6.03-1.395-.763-2.752-1.606-4.157-2.347-1.21-.637-2.467-1.138-3.683-1.76-3.104-1.588-6.27-3.014-9.416-4.5-3.127-1.476-6.191-3.097-9.355-4.471-2.812-1.221-5.673-2.266-8.511-3.406-3.149-1.264-6.306-2.421-9.484-3.586-1.672-.613-3.322-1.307-5.001-1.892-1.5-.522-2.96-1.188-4.464-1.687-4.945-1.643-9.969-2.9-14.964-4.3-2.753-.771-5.47-1.648-8.235-2.346-1.642-.414-3.266-.9-4.911-1.29-2.795-.659-5.612-1.066-8.416-1.65-6.351-1.321-12.696-2.64-19.08-3.572-.767-.113-1.526-.24-2.293-.347-3.195-.444-6.39-.604-9.589-.949-5.917-.64-11.822-1.235-17.734-1.536-1.313-.067-2.626-.29-3.937-.34-.79-.03-1.572.05-2.363.026-2.342-.072-4.655.04-6.994.022-3.013-.023-6.043-.267-9.048-.2z" style="mix-blend-mode:overlay;fill:url(#aE);stroke-width:.957949"/><path fill="url(#aF)" d="m2157.367 547.476-.142.004-.128.004c-7.94.183-15.82.785-23.666 1.595l-.012.002c-3.543.367-7.034.943-10.551 1.438-.303.044-.603.103-.906.147-1.497.215-3.041.176-4.532.415-1.428.229-2.78.73-4.2.981-.679.118-1.362.202-2.04.327-2.785.511-5.592.915-8.355 1.51-2.12.457-4.168 1.12-6.272 1.627l-.01.002c-.512.123-1.017.272-1.527.398-3.741.922-7.476 1.819-11.168 2.898-.485.14-.958.316-1.442.463-1.125.335-2.315.458-3.434.808-1.3.408-2.495 1.08-3.788 1.506-.718.24-1.446.45-2.163.693l-.012.004a259 259 0 0 0-8.05 2.88l-.01.002c-1.638.614-3.352 1.022-4.974 1.672-.847.338-1.633.811-2.476 1.16-3.254 1.342-6.404 2.914-9.572 4.442-1.784.825-3.707 1.318-5.472 2.185-1.043.512-2.034 1.133-3.07 1.66l-.05.028c-1.177.6-2.334 1.229-3.503 1.847l-.01.004c-.753.393-1.559.676-2.307 1.081-.402.22-.767.508-1.17.73-.541.298-1.043.672-1.58.977-.01.004-.013.007-.018.01-1.846 1.035-3.758 1.938-5.58 3.02 0 .003-.01.006-.011.009-2.741 1.63-5.355 3.49-8.037 5.23l-.033-.056-.06-.116v.002-.004a240 240 0 0 0-8.35 5.676l-.07.045v.002c-.655.467-1.171.958-1.816 1.427-.129.094-.236.191-.364.285-5.48 3.999-10.732 8.055-15.493 12.154 0 .003-.01.005-.01.008-.03.026-.053.051-.083.077-2.237 1.928-4.102 3.835-6.194 5.762-.474.437-.937.87-1.402 1.304v.008c-.483.451-1.15.894-1.623 1.343-.127.121-.306.24-.432.36-.032.03-.079.061-.11.092-.718.683-1.243 1.313-1.886 1.974-1.035 1.003-2.251 2.026-3.248 3.023v.004c-.061.06-.103.11-.162.17-3.126 3.129-5.207 5.724-8 8.74-2.512 2.576-5.154 5.214-7.316 7.652 0 0 0 .003-.01.004v.006c0 .002 0 .006-.01.008v.002c-.128.144-.31.313-.437.457a1144 1144 0 0 0-7.597 8.688c-1.81 2.091-3.34 3.778-5.007 5.677-1.22 1.395-2.495 2.86-3.65 4.135-.515.56-1.043 1.142-1.557 1.698l-.04.043c-.254.276-.49.508-.743.779-.55.587-1.029.974-1.563 1.528-.38.39-.735.705-1.106 1.079-1.563 1.57-3.186 3.306-4.646 4.541-.107.091-.234.247-.341.335-.013.011-.028.03-.04.04-.017.013-.034.033-.05.045v.01q-1.39 1.153-2.73 2.076c-.032.023-.064.04-.097.06a25 25 0 0 1-2.66 1.584c-.194.103-.39.216-.586.31-.172.082-.343.154-.515.23q-.554.25-1.109.46a18 18 0 0 1-.627.218 17 17 0 0 1-1.684.471q-.538.12-1.083.202c-.197.032-.393.068-.591.09-.417.052-.84.081-1.265.103-.159.008-.315.025-.477.029q-.819.02-1.668-.03c-.047-.004-.09 0-.14-.005-.065-.004-.133-.014-.198-.02a25 25 0 0 1-1.933-.226c-1.236-.188-2.571-.524-3.94-.9-.413-.112-.875-.277-1.301-.408-1.638-.497-3.43-1.15-5.312-1.88-2.65-1.027-5.815-2.422-9.082-3.886-10.878-4.873-26.713-12.216-48.177-21.059-2.712-1.12-2.92-1.393-5.856-2.566a834 834 0 0 0-37.762-14.033v-.002q-.021-.007-.043-.012l-.023-.008q-1.127-.388-2.265-.774l-.519-.177-.653-.221c-25.676-8.72-55.332-17.318-86.29-23.783-.37-.076-.66-.206-1.03-.283v-.002l-.022-.004q-.293-.067-.595-.128-.33-.07-.664-.131l-.029-.007c-9.435-1.93-19.118-3.076-28.726-4.532l-.02-.002c-7.07-1.071-14.043-2.575-21.141-3.333l-.062-.008c-3.333-.355-6.593-.166-9.923-.445-12.447-1.046-24.776-1.853-36.987-1.667-.946.016-1.931-.152-2.875-.129l-.11.004-.038-.002v.002c-.418.01-.834.03-1.252.04-.074.004-.152-.004-.225-.002-.08.002-.154.017-.232.02-1.312.038-2.624.075-3.931.13-9.647.412-19.15 1.272-28.427 2.652a256 256 0 0 0-18.814 3.526c-3.153.711-6.259 1.985-9.406 2.818-4.69 1.24-9.34 2.43-14.004 3.933-2.94.948-5.859 1.842-8.783 2.894-4.474 1.607-8.831 3.597-13.256 5.442-4.68 1.949-9.332 3.812-13.944 6.023-2.66 1.274-5.309 2.494-7.945 3.854-4.445 2.295-8.703 4.99-13.062 7.526-4.53 2.635-9.063 5.153-13.483 8.041-2.352 1.537-4.7 3.02-7.018 4.627-4.281 2.97-8.293 6.349-12.442 9.557-4.3 3.322-8.637 6.504-12.779 10.076-1.997 1.722-4 3.39-5.958 5.17-4.026 3.66-7.69 7.74-11.536 11.637-3.929 3.983-7.941 7.806-11.663 12.03-1.617 1.836-3.253 3.619-4.828 5.498-3.65 4.357-6.832 9.138-10.245 13.732-3.429 4.613-6.995 9.05-10.165 13.896 0 .002 0 .004-.01.007-1.242 1.899-2.514 3.747-3.715 5.68-3.131 5.045-5.678 10.513-8.511 15.793-2.81 5.23-5.824 10.271-8.32 15.725v.004c-.87 1.898-1.779 3.75-2.609 5.674-2.475 5.742-4.24 11.906-6.352 17.88-2.212 6.26-4.763 12.298-6.55 18.806-.458 1.668-.936 3.317-1.365 5-.333 1.304-.576 2.645-.89 3.96-.063.26-.116.526-.178.786-.842 3.56-1.702 7.105-2.412 10.733v.008c-.746 3.81-1.32 7.698-1.916 11.581-.567 3.686-1.16 7.354-1.586 11.105v.008a290 290 0 0 0-.625 6.007c-.117 1.272-.14 2.579-.242 3.859-.057.733-.084 1.479-.137 2.215-.274 3.802-.585 7.583-.713 11.448v.015c-.136 4.102-.061 8.285-.027 12.456.024 3.022-.137 5.97-.022 9.028.02.547.175 1.142.198 1.69.084 1.949.201 3.905.321 5.867.484 7.869 2.118 16.13 3.22 24.22.994 7.295 1.446 14.39 2.966 21.858.286 1.413.52 2.803.826 4.221 1.87 8.655 5.066 17.688 7.672 26.56 2.24 7.628 3.829 15.059 6.635 22.841.427 1.184.803 2.35 1.243 3.537 3.536 9.538 8.584 19.438 13.005 29.194 3.544 7.82 6.318 15.45 10.45 23.404.48.921.916 1.83 1.403 2.753 5.647 10.71 13.022 21.76 19.78 32.693 4.738 7.664 8.574 15.147 13.876 22.916v.01c.442.647.85 1.285 1.294 1.932 8.66 12.589 19.291 25.5 29.49 38.343 5.349 6.734 9.679 13.305 15.465 20.105.286.334.552.665.837 1 16.214 18.99 34.435 38.263 54.211 57.717 1.168 1.149 2.02 2.257 3.2 3.408a1083 1083 0 0 0 26.964 25.371c24.723 22.491 51.904 44.865 80.47 66.57 114.639 87.11 251.59 163.532 341.606 194.287.227.078.402.102.628.179 12.975 4.412 24.872 7.747 36.057 10.296 8.918 2.027 17.35 3.478 25.319 4.367 2.307.258 4.629.517 6.866.682 1.987.146 3.97.279 5.903.353 3.015.114 5.95.106 8.845.045 1.729-.036 3.486-.04 5.174-.139 3.153-.181 6.214-.53 9.242-.923 1.304-.17 2.652-.266 3.935-.474 4.286-.696 8.48-1.565 12.558-2.686a120 120 0 0 0 12.625-4.24 130 130 0 0 0 12.162-5.604c.218-.114.426-.28.645-.395 4.556-2.417 9.05-5.314 13.518-8.296 7.047-4.704 14.06-9.866 21.131-15.916 15.705-13.434 31.851-30.094 50.113-49.568 29.242-31.186 55.966-61.69 80.317-91.493h.012c.05-.062.083-.12.134-.182 23.958-29.332 45.631-57.99 65.128-85.946q.574-.824 1.101-1.633.013-.017.023-.036c2.592-3.73 4.236-7.14 6.751-10.843.014-.02.023-.04.037-.06 8.88-13.129 16.3-25.731 24.277-38.56 9.463-15.213 19.957-30.768 28.134-45.53.068-.122.116-.237.184-.36.603-1.091 1.498-2.285 2.095-3.373.814-1.486 1.24-2.824 2.042-4.304 1.31-2.419 2.063-4.624 3.338-7.03.035-.064.065-.128.1-.193 6.532-12.328 11.824-24.145 17.483-36.146 5.523-11.708 11.343-23.512 16.263-34.977 1.297-3.129 3.346-6.552 4.583-9.657 0 0 0-.01.01-.01v-.01c.154-.338.3-.676.432-1.005v-.01q.413-1.043.79-2.071.013-.032.022-.064c2.32-5.901 3.782-11.438 5.89-17.251.698-1.928 1.275-3.802 1.952-5.72 1.077-3.161 2.218-6.351 3.28-9.513.246-.739.47-1.465.72-2.204 2.661-8.025 5.993-16.336 8.256-24.187.01-.019.01-.037.016-.057 1.324-4.594 1.96-8.87 3.15-13.403.67-2.555 1.145-5.02 1.774-7.556.033-.13.057-.257.091-.387 1.886-7.442 3.793-14.892 5.274-22.145.6-2.93 1.586-6.036 2.128-8.939.07-.374.103-.729.166-1.099.134-.726.39-1.512.521-2.236 0-.017 0-.032.01-.049v-.006c.456-2.527.507-4.85.92-7.356q1.118-6.817 2.035-13.533c.447-3.284 1.113-6.67 1.49-9.915.552-4.783.842-9.422 1.24-14.124q.066-.826.14-1.654c.157-1.946.615-4.049.746-5.982v-.045c.085-1.244-.036-2.373.037-3.61.238-4.002.436-7.976.564-11.916.16-5.075.122-10.028.103-15-.019-5.315.062-10.683-.159-15.879-.012-.287-.04-.565-.057-.85-.03-.668.053-1.4.02-2.067v-.025c-.065-1.267-.332-2.408-.407-3.668-.26-4.276-.626-8.481-1.014-12.68a373 373 0 0 0-2.31-19.463c-.423-2.91-.664-5.937-1.153-8.807-.03-.175-.077-.338-.11-.51-.047-.275-.046-.58-.095-.855v-.002c-.24-1.376-.696-2.604-.952-3.97-1.152-6.165-2.492-12.195-3.936-18.16-1.037-4.281-2.036-8.578-3.218-12.755-.61-2.15-1.127-4.366-1.773-6.49-.04-.13-.091-.25-.132-.378-.412-1.346-.943-2.595-1.37-3.93-.794-2.468-1.695-4.854-2.536-7.287-1.308-3.782-2.514-7.632-3.94-11.32-1.668-4.308-3.54-8.441-5.365-12.62l-.177-.395c-.633-1.447-1.055-3.066-1.707-4.498v-.009c-.529-1.158-1.23-2.163-1.771-3.311l-.027-.061c-1.029-2.187-1.948-4.463-3.021-6.614-4.411-8.844-9.128-17.422-14.226-25.636-.048-.078-.11-.146-.157-.224q-.303-.486-.608-.971c-3.033-4.84-6.35-9.396-9.607-14.012-1.642-2.327-3.148-4.79-4.843-7.061-.701-.938-1.478-1.79-2.187-2.718l-.04-.058c-.404-.528-.839-1.016-1.251-1.531-4.115-5.31-8.262-10.589-12.663-15.573q-.456-.53-.92-1.05v-.004c-.034-.04-.076-.073-.111-.113l-.294-.325c-1.31-1.426-2.737-2.706-4.054-4.126-2.957-3.188-6.004-6.244-9.073-9.29-2.304-2.286-4.673-4.471-7.02-6.692-1.81-1.689-3.435-3.623-5.278-5.266l-.061-.05c-.75-.668-1.585-1.207-2.342-1.868-.393-.359-.78-.729-1.183-1.078-2.241-1.937-4.568-3.728-6.854-5.596-3.489-2.853-7.08-5.529-10.673-8.209-2.291-1.717-4.41-3.708-6.74-5.36l-.047-.034c-.695-.492-1.45-.872-2.147-1.36-.53-.39-1.043-.812-1.585-1.184-1.19-.818-2.433-1.516-3.63-2.317-4.831-3.23-9.78-6.209-14.752-9.162-.572-.339-1.146-.666-1.716-1.007-2.009-1.177-3.894-2.601-5.925-3.734l-.043-.022c-.842-.469-1.738-.807-2.583-1.269 0-.002-.01-.004-.012-.006-1.392-.76-2.745-1.6-4.146-2.34-1.21-.636-2.468-1.139-3.684-1.76-3.105-1.588-6.27-3.013-9.416-4.498-3.127-1.477-6.19-3.1-9.354-4.474-.125-.053-.253-.098-.378-.151-.579-.25-1.125-.588-1.705-.835-.016-.007-.033-.01-.05-.018-1.48-.63-3.021-1.042-4.508-1.65-.625-.245-1.247-.5-1.871-.751-3.149-1.265-6.306-2.421-9.483-3.586-1.673-.613-3.321-1.306-5.001-1.89-1.5-.523-2.96-1.189-4.465-1.689-1.284-.427-2.593-.733-3.886-1.116-1.09-.348-2.144-.847-3.237-1.182l-.017-.004c-2.292-.705-4.64-1.092-6.943-1.745-.293-.082-.587-.17-.88-.252-2.753-.772-5.468-1.649-8.233-2.346-1.642-.414-3.267-.902-4.912-1.291-2.254-.532-4.524-.902-6.79-1.331v-.002c-1.832-.392-3.63-1.012-5.466-1.37-2.424-.475-4.866-.617-7.294-1.034-2.646-.495-5.283-1.098-7.94-1.486-.766-.112-1.526-.24-2.292-.347-3.043-.422-6.086-.589-9.131-.901-.01 0-.012-.001-.018-.002-.72-.079-1.437-.232-2.157-.306-1.594-.163-3.182-.536-4.776-.675-2.33-.203-4.643-.08-6.97-.23-1.419-.103-2.838-.297-4.256-.37-1.312-.066-2.627-.29-3.938-.34-.791-.03-1.573.05-2.363.026-2.342-.072-4.656.04-6.994.021-2.617-.02-5.242-.167-7.855-.172-.404.007-.813-.049-1.218-.04h-.02z" style="mix-blend-mode:overlay;fill:url(#aF);stroke-width:1.00842"/></svg>