<svg xmlns="http://www.w3.org/2000/svg" xmlns:xlink="http://www.w3.org/1999/xlink" xml:space="preserve" width="3000" height="3600"><defs><linearGradient id="ak"><stop offset="0" stop-color="#b5deeb"/><stop offset="1" stop-color="#3ca8ca"/></linearGradient><linearGradient id="aj"><stop offset="0" stop-color="#98c4db" stop-opacity=".49"/><stop offset="1" stop-color="#98c4db" stop-opacity="0"/></linearGradient><linearGradient id="ai"><stop offset="0" stop-color="#98c4db" stop-opacity=".49"/><stop offset="1" stop-color="#98c4db" stop-opacity="0"/></linearGradient><linearGradient id="ah"><stop offset="0" stop-color="#1a9ccd" stop-opacity=".384"/><stop offset="1" stop-color="#1a9ccd" stop-opacity="0"/></linearGradient><linearGradient id="ag"><stop offset="0" stop-color="#73bdef" stop-opacity=".59"/><stop offset="1" stop-color="#73bdef" stop-opacity="0"/></linearGradient><linearGradient id="af"><stop offset="0" stop-color="#1a9ccd" stop-opacity=".383"/><stop offset="1" stop-color="#1a9ccd" stop-opacity="0"/></linearGradient><linearGradient id="ae"><stop offset="0" stop-color="#f3feff" stop-opacity=".93"/><stop offset="1" stop-color="#f3feff" stop-opacity="0"/></linearGradient><linearGradient id="ad"><stop offset="0" stop-color="#f3feff" stop-opacity=".93"/><stop offset="1" stop-color="#f3feff" stop-opacity="0"/></linearGradient><linearGradient id="ac"><stop offset="0" stop-color="#f3feff" stop-opacity=".93"/><stop offset="1" stop-color="#f3feff" stop-opacity="0"/></linearGradient><linearGradient id="ab"><stop offset="0" stop-color="#f3feff" stop-opacity=".93"/><stop offset="1" stop-color="#f3feff" stop-opacity="0"/></linearGradient><linearGradient id="aa"><stop offset="0" stop-color="#f5f9fa"/><stop offset="1" stop-color="#f5f9fa" stop-opacity="0"/></linearGradient><linearGradient id="Z"><stop offset="0" stop-color="#f3feff"/><stop offset="1" stop-color="#f3feff" stop-opacity="0"/></linearGradient><linearGradient id="Y"><stop offset="0" stop-color="#f5f9fa"/><stop offset="1" stop-color="#f5f9fa" stop-opacity="0"/></linearGradient><linearGradient id="W"><stop offset="0" stop-color="#103972" stop-opacity="0"/><stop offset="1" stop-color="#103972" stop-opacity=".814"/></linearGradient><linearGradient id="V"><stop offset="0" stop-color="#f6fdfe"/><stop offset="1" stop-color="#f6fdfe" stop-opacity="0"/></linearGradient><linearGradient id="U"><stop offset="0" stop-color="#fff"/><stop offset="1" stop-color="#fff" stop-opacity=".532"/></linearGradient><linearGradient id="aw"><stop offset="0" stop-color="#fff"/><stop offset="1" stop-color="#fff" stop-opacity="0"/></linearGradient><linearGradient id="R"><stop offset="0" stop-color="#d9eef6"/><stop offset="1" stop-color="#d9eef6" stop-opacity="0"/></linearGradient><linearGradient id="P"><stop offset="0" stop-color="#f6e6bb"/><stop offset="1" stop-color="#efd75a"/></linearGradient><linearGradient id="O"><stop offset="0" stop-color="#4e94a5" stop-opacity=".137"/><stop offset="1" stop-color="#4e94a5" stop-opacity="0"/></linearGradient><linearGradient id="N"><stop offset="0" stop-color="#f5e594"/><stop offset="1" stop-color="#f5e594" stop-opacity="0"/></linearGradient><linearGradient id="av"><stop offset="0" stop-color="#f0e6db" stop-opacity=".686"/><stop offset="1" stop-color="#f0e6db" stop-opacity="0"/></linearGradient><linearGradient id="M"><stop offset="0" stop-color="#cfe4dc"/><stop offset="1" stop-color="#cfe4dc" stop-opacity="0"/></linearGradient><linearGradient id="L"><stop offset="0" stop-color="#d9eef6"/><stop offset="1" stop-color="#d9eef6" stop-opacity="0"/></linearGradient><linearGradient id="K"><stop offset="0" stop-color="#fff"/><stop offset="1" stop-color="#fff" stop-opacity="0"/></linearGradient><linearGradient id="au"><stop offset="0" stop-color="#a5c5dc"/><stop offset="1" stop-color="#a5c5dc" stop-opacity="0"/></linearGradient><linearGradient id="F"><stop offset="0" stop-color="#155a92" stop-opacity=".57"/><stop offset="1" stop-color="#155a92" stop-opacity="0"/></linearGradient><linearGradient id="at"><stop offset="0" stop-color="#a5c5dc"/><stop offset="1" stop-color="#a5c5dc" stop-opacity="0"/></linearGradient><linearGradient id="as"><stop offset="0" stop-color="#a5c5dc"/><stop offset="1" stop-color="#a5c5dc" stop-opacity="0"/></linearGradient><linearGradient id="G"><stop offset="0" stop-color="#155a92"/><stop offset="1" stop-color="#155a92" stop-opacity="0"/></linearGradient><linearGradient id="E"><stop offset="0" stop-color="#6393ba"/><stop offset="1" stop-color="#6393ba" stop-opacity="0"/></linearGradient><linearGradient id="D"><stop offset="0" stop-color="#62bae8" stop-opacity=".507"/><stop offset="1" stop-color="#62bae8" stop-opacity="0"/></linearGradient><linearGradient id="C"><stop offset="0" stop-color="#1679be"/><stop offset="1" stop-color="#1679be" stop-opacity="0"/></linearGradient><linearGradient id="B"><stop offset="0" stop-color="#4b8897" stop-opacity=".625"/><stop offset="1" stop-color="#4b8897" stop-opacity="0"/></linearGradient><linearGradient id="ar"><stop offset="0" stop-color="#b1d8e2"/><stop offset="1" stop-color="#b1d8e2" stop-opacity="0"/></linearGradient><linearGradient id="z"><stop offset="0" stop-color="#408ea3" stop-opacity=".639"/><stop offset="1" stop-color="#408ea3" stop-opacity="0"/></linearGradient><linearGradient id="A"><stop offset="0" stop-color="#e7f3e7"/><stop offset="1" stop-color="#e7f3e7" stop-opacity="0"/></linearGradient><linearGradient id="y"><stop offset="0" stop-color="#50a4ba"/><stop offset="1" stop-color="#50a4ba" stop-opacity="0"/></linearGradient><linearGradient id="w"><stop offset="0" stop-color="#ddeee0" stop-opacity=".751"/><stop offset="1" stop-color="#ddeee0" stop-opacity="0"/></linearGradient><linearGradient id="u"><stop offset="0" stop-color="#ddeee0"/><stop offset="1" stop-color="#ddeee0" stop-opacity="0"/></linearGradient><linearGradient id="s"><stop offset="0" stop-color="#a7d7f2"/><stop offset="1" stop-color="#c4e4f6" stop-opacity="0"/></linearGradient><linearGradient id="aq"><stop offset="0" stop-color="#b5d1f2"/><stop offset="1" stop-color="#b5d1f2" stop-opacity="0"/></linearGradient><linearGradient id="r"><stop offset="0" stop-color="#1a4a83"/><stop offset="1" stop-color="#4881a2"/></linearGradient><linearGradient id="ap"><stop offset="0" stop-color="#a3c5ee"/><stop offset="1" stop-color="#a3c5ee" stop-opacity="0"/></linearGradient><linearGradient id="p"><stop offset="0" stop-color="#143d6d"/><stop offset="1" stop-color="#143d6d" stop-opacity="0"/></linearGradient><linearGradient id="J"><stop offset="0" stop-color="#1a4a83"/><stop offset="1" stop-color="#205ca2"/></linearGradient><linearGradient id="o"><stop offset="0" stop-color="#95cee9"/><stop offset="1" stop-color="#95cee9" stop-opacity="0"/></linearGradient><linearGradient id="l"><stop offset="0" stop-color="#95cee9"/><stop offset="1" stop-color="#95cee9" stop-opacity="0"/></linearGradient><linearGradient id="ao"><stop offset="0" stop-color="#a4cbe5"/><stop offset="1" stop-color="#6cabd5" stop-opacity="0"/></linearGradient><linearGradient id="k"><stop offset="0" stop-color="#398dc5"/><stop offset="1" stop-color="#398dc5" stop-opacity="0"/></linearGradient><linearGradient id="j"><stop offset="0" stop-color="#3778a8"/><stop offset="1" stop-color="#3778a8" stop-opacity="0"/></linearGradient><linearGradient id="i"><stop offset="0" stop-color="#3778a8"/><stop offset="1" stop-color="#3778a8" stop-opacity="0"/></linearGradient><linearGradient id="g"><stop offset="0" stop-color="#8a5a34"/><stop offset="1" stop-color="#8a5a34" stop-opacity="0"/></linearGradient><linearGradient id="f"><stop offset="0" stop-color="#a2712e"/><stop offset="1" stop-color="#a2712e" stop-opacity="0"/></linearGradient><linearGradient id="an"><stop offset="0" stop-color="#efdec7" stop-opacity=".143"/><stop offset="1" stop-color="#efdec7" stop-opacity="0"/></linearGradient><linearGradient id="am"><stop offset="0" stop-color="#cc964d"/><stop offset="1" stop-color="#cc964d" stop-opacity="0"/></linearGradient><linearGradient id="e"><stop offset="0" stop-color="#bf7754"/><stop offset="1" stop-color="#925537"/></linearGradient><linearGradient id="al"><stop offset="0" stop-color="#a37a2f"/><stop offset="1" stop-color="#a37a2f" stop-opacity="0"/></linearGradient><linearGradient id="d"><stop offset="0" stop-color="#c2a771"/><stop offset="1" stop-color="#c2a771" stop-opacity="0"/></linearGradient><linearGradient id="c"><stop offset="0" stop-color="#785633"/><stop offset="1" stop-color="#785633" stop-opacity="0"/></linearGradient><linearGradient id="b"><stop offset="0" stop-color="#fff"/><stop offset="1" stop-color="#fff" stop-opacity="0"/></linearGradient><linearGradient id="a"><stop offset="0" stop-color="#c4e4f6"/><stop offset="1" stop-color="#c4e4f6" stop-opacity="0"/></linearGradient><linearGradient xlink:href="#a" id="aO" x1="541.445" x2="564.919" y1="392.831" y2="319.079" gradientUnits="userSpaceOnUse"/><linearGradient xlink:href="#b" id="aP" x1="547.745" x2="558.376" y1="158.246" y2="238.24" gradientUnits="userSpaceOnUse"/><linearGradient xlink:href="#c" id="aR" x1="521.39" x2="558.836" y1="935.196" y2="910.65" gradientUnits="userSpaceOnUse"/><linearGradient xlink:href="#d" id="aV" x1="548.701" x2="551.349" y1="863.282" y2="911.237" gradientTransform="translate(-.18 .004)" gradientUnits="userSpaceOnUse"/><linearGradient xlink:href="#c" id="aU" x1="503.459" x2="545.962" y1="938.645" y2="910.88" gradientUnits="userSpaceOnUse"/><linearGradient xlink:href="#e" id="aQ" x1="517.414" x2="569.102" y1="883.519" y2="930.662" gradientUnits="userSpaceOnUse"/><linearGradient xlink:href="#f" id="aS" x1="804.928" x2="831.197" y1="623.095" y2="648.536" gradientUnits="userSpaceOnUse"/><linearGradient xlink:href="#g" id="aY" x1="550.71" x2="547.91" y1="329.127" y2="286.137" gradientUnits="userSpaceOnUse"/><linearGradient xlink:href="#i" id="bL" x1="687.927" x2="682.571" y1="257.959" y2="292.499" gradientUnits="userSpaceOnUse"/><linearGradient xlink:href="#j" id="bN" x1="691.07" x2="681.182" y1="349.289" y2="298.815" gradientUnits="userSpaceOnUse"/><linearGradient xlink:href="#k" id="bO" x1="748.048" x2="692.771" y1="289.349" y2="296.989" gradientUnits="userSpaceOnUse"/><linearGradient xlink:href="#l" id="bI" x1="675.233" x2="673.83" y1="324.945" y2="328.279" gradientUnits="userSpaceOnUse"/><linearGradient xlink:href="#o" id="bJ" x1="678.197" x2="678.588" y1="262.023" y2="260.09" gradientUnits="userSpaceOnUse"/><linearGradient xlink:href="#p" id="bP" x1="647.782" x2="682.571" y1="304.057" y2="298.855" gradientUnits="userSpaceOnUse"/><linearGradient xlink:href="#l" id="aD" x1="675.233" x2="673.83" y1="324.945" y2="328.279" gradientUnits="userSpaceOnUse"/><linearGradient xlink:href="#o" id="aE" x1="678.197" x2="678.588" y1="262.023" y2="260.09" gradientUnits="userSpaceOnUse"/><linearGradient xlink:href="#r" id="aF" x1="644.735" x2="704.392" y1="297.943" y2="298.217" gradientUnits="userSpaceOnUse"/><linearGradient xlink:href="#i" id="aG" x1="687.927" x2="682.571" y1="257.959" y2="292.499" gradientUnits="userSpaceOnUse"/><linearGradient xlink:href="#j" id="aI" x1="691.07" x2="681.182" y1="349.289" y2="298.815" gradientUnits="userSpaceOnUse"/><linearGradient xlink:href="#k" id="aJ" x1="748.048" x2="692.771" y1="289.349" y2="296.989" gradientUnits="userSpaceOnUse"/><linearGradient xlink:href="#p" id="aK" x1="647.782" x2="682.571" y1="304.057" y2="298.855" gradientUnits="userSpaceOnUse"/><linearGradient xlink:href="#a" id="aZ" x1="515.697" x2="564" y1="457.201" y2="345.747" gradientUnits="userSpaceOnUse"/><linearGradient xlink:href="#s" id="aN" x1="731.309" x2="648.267" y1="294.372" y2="287.935" gradientUnits="userSpaceOnUse"/><linearGradient xlink:href="#u" id="bh" x1="480.533" x2="480.311" y1="267.775" y2="312.476" gradientUnits="userSpaceOnUse"/><linearGradient xlink:href="#w" id="bi" x1="535.73" x2="527.29" y1="318.435" y2="349.797" gradientUnits="userSpaceOnUse"/><linearGradient xlink:href="#y" id="bj" x1="597.994" x2="527.353" y1="430.605" y2="391.416" gradientUnits="userSpaceOnUse"/><linearGradient xlink:href="#z" id="bl" x1="328.658" x2="410.561" y1="515.041" y2="414.371" gradientUnits="userSpaceOnUse"/><linearGradient xlink:href="#A" id="bm" x1="279.851" x2="362.443" y1="264.261" y2="360.496" gradientTransform="translate(-30.316 6.205)" gradientUnits="userSpaceOnUse"/><linearGradient xlink:href="#B" id="bp" x1="326.035" x2="352.588" y1="332.103" y2="350.207" gradientUnits="userSpaceOnUse"/><linearGradient xlink:href="#C" id="bD" x1="419.554" x2="409.334" y1="381.796" y2="381.39" gradientUnits="userSpaceOnUse"/><linearGradient xlink:href="#C" id="bE" x1="421.317" x2="405.379" y1="343.296" y2="353.475" gradientUnits="userSpaceOnUse"/><linearGradient xlink:href="#D" id="bF" x1="368.78" x2="363.672" y1="469.729" y2="421.479" gradientUnits="userSpaceOnUse"/><linearGradient xlink:href="#E" id="bG" x1="366.713" x2="390.104" y1="344.289" y2="387.697" gradientUnits="userSpaceOnUse"/><linearGradient xlink:href="#F" id="bH" x1="326.019" x2="375.84" y1="434.236" y2="410.18" gradientUnits="userSpaceOnUse"/><linearGradient xlink:href="#C" id="bq" x1="419.554" x2="409.334" y1="381.796" y2="381.39" gradientUnits="userSpaceOnUse"/><linearGradient xlink:href="#C" id="br" x1="421.317" x2="405.379" y1="343.296" y2="353.475" gradientUnits="userSpaceOnUse"/><linearGradient xlink:href="#D" id="bs" x1="368.78" x2="363.672" y1="469.729" y2="421.479" gradientUnits="userSpaceOnUse"/><linearGradient xlink:href="#E" id="bt" x1="366.713" x2="390.104" y1="344.289" y2="387.697" gradientUnits="userSpaceOnUse"/><linearGradient xlink:href="#G" id="bu" x1="315.55" x2="366.215" y1="443.732" y2="415.451" gradientUnits="userSpaceOnUse"/><linearGradient xlink:href="#J" id="bK" x1="663.713" x2="755.314" y1="293.863" y2="294.552" gradientUnits="userSpaceOnUse"/><linearGradient xlink:href="#K" id="by" x1="462.972" x2="492.164" y1="335.107" y2="377.107" gradientUnits="userSpaceOnUse"/><linearGradient xlink:href="#K" id="bz" x1="459.068" x2="485.563" y1="320.141" y2="363.029" gradientUnits="userSpaceOnUse"/><linearGradient xlink:href="#L" id="bc" x1="456.732" x2="416.481" y1="305.995" y2="303.155" gradientUnits="userSpaceOnUse"/><linearGradient xlink:href="#M" id="bg" x1="401.236" x2="407.416" y1="1246.413" y2="1235.417" gradientUnits="userSpaceOnUse"/><linearGradient xlink:href="#N" id="bk" x1="418.314" x2="430.554" y1="370.021" y2="336.363" gradientUnits="userSpaceOnUse"/><linearGradient xlink:href="#O" id="be" x1="494.455" x2="493.79" y1="401.409" y2="363.909" gradientUnits="userSpaceOnUse"/><linearGradient xlink:href="#P" id="bf" x1="425.227" x2="404.624" y1="308.68" y2="370.548" gradientUnits="userSpaceOnUse"/><linearGradient xlink:href="#R" id="bd" x1="417.333" x2="420.584" y1="324.08" y2="304.83" gradientUnits="userSpaceOnUse"/><linearGradient xlink:href="#U" id="bC" x1="481.774" x2="147.884" y1="1506.979" y2="1545.87" gradientUnits="userSpaceOnUse"/><linearGradient xlink:href="#V" id="bR" x1="649.896" x2="701.416" y1="1319.974" y2="1489.679" gradientUnits="userSpaceOnUse"/><linearGradient xlink:href="#W" id="aC" x1="349.891" x2="257.85" y1="445.007" y2="446.067" gradientUnits="userSpaceOnUse"/><linearGradient xlink:href="#Y" id="cg" x1="267.707" x2="269.268" y1="1660.718" y2="1723.568" gradientUnits="userSpaceOnUse"/><linearGradient xlink:href="#Z" id="ci" x1="532.353" x2="551.867" y1="1559.021" y2="1580.021" gradientUnits="userSpaceOnUse"/><linearGradient xlink:href="#aa" id="ch" x1="457.863" x2="467.473" y1="497.657" y2="507.657" gradientUnits="userSpaceOnUse"/><linearGradient xlink:href="#ab" id="aB" x1="667.126" x2="708.095" y1="1482.346" y2="1527.071" gradientUnits="userSpaceOnUse"/><linearGradient xlink:href="#ac" id="aA" x1="321.195" x2="402.5" y1="1319.829" y2="1298.273" gradientUnits="userSpaceOnUse"/><linearGradient xlink:href="#ad" id="az" x1="266.864" x2="492.289" y1="1407.549" y2="1382.092" gradientTransform="translate(0 -1112)" gradientUnits="userSpaceOnUse"/><linearGradient xlink:href="#ae" id="ay" x1="231.611" x2="241.963" y1="1553.051" y2="1553.051" gradientUnits="userSpaceOnUse"/><linearGradient xlink:href="#af" id="bb" x1="494.65" x2="559.286" y1="396.503" y2="461.503" gradientUnits="userSpaceOnUse"/><linearGradient xlink:href="#ag" id="cj" x1="509.836" x2="499.338" y1="431.609" y2="407.109" gradientUnits="userSpaceOnUse"/><linearGradient xlink:href="#ah" id="ba" x1="353.307" x2="346.582" y1="436.587" y2="442.243" gradientUnits="userSpaceOnUse"/><linearGradient xlink:href="#ai" id="ck" x1="653.019" x2="666.767" y1="345.651" y2="358.897" gradientUnits="userSpaceOnUse"/><linearGradient xlink:href="#aj" id="aM" x1="588.814" x2="601.534" y1="369.528" y2="400.995" gradientUnits="userSpaceOnUse"/><linearGradient xlink:href="#ak" id="ax" x1="369.797" x2="491.867" y1="222.293" y2="1061.547" gradientTransform="scale(3.45622 2.9703)" gradientUnits="userSpaceOnUse"/><linearGradient xlink:href="#V" id="bS" x1="649.896" x2="701.416" y1="1319.974" y2="1489.679" gradientUnits="userSpaceOnUse"/><linearGradient xlink:href="#V" id="bT" x1="649.896" x2="701.416" y1="1319.974" y2="1489.679" gradientUnits="userSpaceOnUse"/><linearGradient xlink:href="#V" id="bU" x1="649.896" x2="701.416" y1="1319.974" y2="1489.679" gradientUnits="userSpaceOnUse"/><linearGradient xlink:href="#V" id="bV" x1="649.896" x2="701.416" y1="1319.974" y2="1489.679" gradientUnits="userSpaceOnUse"/><linearGradient xlink:href="#V" id="bW" x1="649.896" x2="701.416" y1="1319.974" y2="1489.679" gradientUnits="userSpaceOnUse"/><linearGradient xlink:href="#V" id="bX" x1="649.896" x2="701.416" y1="1319.974" y2="1489.679" gradientUnits="userSpaceOnUse"/><linearGradient xlink:href="#V" id="bY" x1="649.896" x2="701.416" y1="1319.974" y2="1489.679" gradientUnits="userSpaceOnUse"/><linearGradient xlink:href="#V" id="bZ" x1="649.896" x2="701.416" y1="1319.974" y2="1489.679" gradientUnits="userSpaceOnUse"/><linearGradient xlink:href="#V" id="ca" x1="649.896" x2="701.416" y1="1319.974" y2="1489.679" gradientUnits="userSpaceOnUse"/><linearGradient xlink:href="#V" id="cb" x1="649.896" x2="701.416" y1="1319.974" y2="1489.679" gradientUnits="userSpaceOnUse"/><linearGradient xlink:href="#V" id="cc" x1="649.896" x2="701.416" y1="1319.974" y2="1489.679" gradientUnits="userSpaceOnUse"/><linearGradient xlink:href="#V" id="cd" x1="649.896" x2="701.416" y1="1319.974" y2="1489.679" gradientUnits="userSpaceOnUse"/><linearGradient xlink:href="#V" id="ce" x1="649.896" x2="701.416" y1="1319.974" y2="1489.679" gradientUnits="userSpaceOnUse"/><linearGradient xlink:href="#V" id="cf" x1="649.896" x2="701.416" y1="1319.974" y2="1489.679" gradientUnits="userSpaceOnUse"/><radialGradient xlink:href="#al" id="aT" cx="742.219" cy="751.367" r="14.081" fx="742.219" fy="751.367" gradientTransform="matrix(2.94628 0 0 2.51693 -1450.994 -1149.651)" gradientUnits="userSpaceOnUse"/><radialGradient xlink:href="#am" id="aW" cx="534.503" cy="245.986" r="53.795" fx="534.503" fy="245.986" gradientTransform="translate(3.843 -1.921)" gradientUnits="userSpaceOnUse"/><radialGradient xlink:href="#an" id="aX" cx="497.107" cy="266.272" r="67.95" fx="497.107" fy="266.272" gradientTransform="translate(36.391 -40.71)" gradientUnits="userSpaceOnUse"/><radialGradient xlink:href="#ao" id="bM" cx="698.03" cy="280.252" r="47.63" fx="698.03" fy="280.252" gradientTransform="translate(-140.194 -61.262)scale(1.25256)" gradientUnits="userSpaceOnUse"/><radialGradient xlink:href="#ap" id="bQ" cx="705.084" cy="272.424" r="49.427" fx="705.084" fy="272.424" gradientTransform="translate(-102.681 -49.129)scale(1.21186)" gradientUnits="userSpaceOnUse"/><radialGradient xlink:href="#ao" id="aH" cx="698.03" cy="280.252" r="47.63" fx="698.03" fy="280.252" gradientTransform="translate(-140.194 -61.262)scale(1.25256)" gradientUnits="userSpaceOnUse"/><radialGradient xlink:href="#aq" id="aL" cx="705.084" cy="272.424" r="49.427" fx="705.084" fy="272.424" gradientTransform="translate(-102.681 -49.129)scale(1.21186)" gradientUnits="userSpaceOnUse"/><radialGradient xlink:href="#ar" id="bn" cx="424.844" cy="287.827" r="148.971" fx="424.844" fy="287.827" gradientTransform="translate(48.234 -117.463)" gradientUnits="userSpaceOnUse"/><radialGradient xlink:href="#ar" id="bo" cx="424.844" cy="287.827" r="148.971" fx="424.844" fy="287.827" gradientTransform="translate(208.387 -53.311)" gradientUnits="userSpaceOnUse"/><radialGradient xlink:href="#as" id="bv" cx="218.285" cy="252.854" r="71.945" fx="218.285" fy="252.854" gradientTransform="matrix(1 0 0 1.1292 56.36 -.443)" gradientUnits="userSpaceOnUse"/><radialGradient xlink:href="#at" id="bw" cx="403.75" cy="326.5" r="48" fx="403.75" fy="326.5" gradientTransform="matrix(1.21839 0 0 1.43826 -211.437 -227.545)" gradientUnits="userSpaceOnUse"/><radialGradient xlink:href="#au" id="bx" cx="154.637" cy="451.564" r="86.5" fx="154.637" fy="451.564" gradientTransform="translate(-42.254 -167.633)scale(1.2659)" gradientUnits="userSpaceOnUse"/><radialGradient xlink:href="#av" id="bA" cx="432.196" cy="308.839" r="42.062" fx="432.196" fy="308.839" gradientTransform="translate(7.136 -6.6)" gradientUnits="userSpaceOnUse"/><radialGradient xlink:href="#aw" id="bB" cx="518" cy="203.5" r="85.5" fx="518" fy="203.5" gradientTransform="translate(-118.332 -72.217)scale(1.23984)" gradientUnits="userSpaceOnUse"/></defs><rect width="3000" height="3600" fill="url(#ax)" ry=".059"/><path fill="#3b839c" d="M1186.71 2291.556c13.57-1.637 27.807-4.136 44.033-7.374 8.435-.365 16.864-1.834 22.549-4.22 5.684-2.38 8.615-5.68 7.33-8.799-1.285-3.115-6.785-6.04-12.1-8.61-5.314-2.565-10.449-4.765-17.598-6.6-7.15-1.83-16.315-3.3-28.23-9.349-40.75-20.688-24.048-26.139-81.214-61.87-9.534-5.956-12.83-7.43-16.402-7.795s-7.431.37-11.646-1.1c-4.215-1.466-8.8-5.135-18.052-16.042q-2.125-2.543-4.207-5.06c28.168 51.975 68.289 98.792 115.538 136.82"/><path fill="#e0f1f4" d="M1638.27 1400.083c-13.385 6.415-26.215 13.384-34.464 14.85s-11.919-2.566-14.3-2.2c-2.384.365-3.484 5.134-7.334 8.8s-10.449 6.233-13.749 8.799-3.3 5.134.915 7.884c4.22 2.75 12.65 5.68 29.149 8.25 16.499 2.564 41.067 4.764 66.18-6.235s50.782-35.198 69.112-54.997 29.333-35.198 19.068-35.013-41.797 15.95-64.53 26.764-36.664 16.684-50.048 23.098"/><path fill="#f2f9fb" d="M1505.608 1439.69c4.796-3.89 12.055-9.332 19.183-13.221s14.132-6.222 20.872-10.37 13.226-10.111 10.762-11.41-13.872 2.078-25.021 2.597c-11.145.514-22.034-1.817-30.851-3.243s-15.553-1.945-22.553-.906c-7 1.034-14.26 3.625-21 4.404s-12.962-.26-20.873 1.038-17.497 4.928-27.867 6.74c-10.37 1.818-21.52 1.818-28.392 4.796-6.868 2.983-9.46 8.945-9.723 13.481-.256 4.54 1.817 7.651 8.557 8.558s18.149-.388 30.596-1.945 25.923-3.37 37.978-4.017 22.685-.132 30.592 2.072c7.91 2.2 13.093 6.094 16.85 6.868 3.763.779 6.094-1.553 10.89-5.442"/><path fill="#f3feff" fill-opacity=".93" d="M982.95 1825.672c11.536 1.034 16.978 4.15 16.978 6.481s-5.442 3.89-6.995 5.315c-1.558 1.425.774 2.723 8.421 3.11 7.651.388 20.613-.131 24.11 3.111s-2.463 10.243-13.093 15.166-25.923 7.779-40.31 8.166-27.873-1.685-37.724-3.37c-9.855-1.685-16.077-2.979-21-4.145-4.928-1.17-8.557-2.204-10.502-6.353s-2.2-11.409.651-13.613 8.813.651 13.349 1.685c4.54 1.039 7.651.264 10.63-2.464 2.983-2.719 5.834-7.387 16.076-10.238s27.868-3.89 39.404-2.85m-192.884 36.165c1.425 2.2 7.647 1.426 12.834 1.685s9.327 1.558 16.072.26 16.072-5.188 17.37-8.039-5.442-4.663-13.612-5.574-17.758-.906-24.243 1.685c-6.476 2.596-9.847 7.779-8.421 9.983"/><path fill="url(#ay)" fill-opacity=".93" d="M234.625 1554.73c.542-.313 1.083-1.022 2.25-1.355s2.958-.292 4.062-.437 1.521-.48.209-.855c-1.313-.375-4.354-.791-6.375-.875s-3.021.167-3.146.834.625 1.75 1.27 2.333c.647.583 1.188.667 1.73.354" transform="translate(-407.06 -4939.126)scale(4.39974)"/><path fill="url(#az)" fill-opacity=".93" d="M345.226 319.331c5.607-.831 8.94-.331 12.774.169s8.167 1 12.083.5 7.417-2 5.584-3.167-9-2-15.343-2.554c-6.342-.554-11.86-.83-13.145-2.264s1.66-4.027 4.194-5.736 4.655-2.533 9.016-3.3c4.36-.765 10.96-1.473 16.853-2.356 5.892-.884 11.077-1.945 14.613-2.947 3.536-1.001 5.421-1.944 7.307-2.357 1.885-.412 3.771-.294 4.007-.589s-1.179-1.002-6.188-.884-13.611 1.06-24.336 1.945c-10.724.884-23.57 1.709-33.794 2.946s-17.825 2.887-22.156 4.508-5.391 3.211-6.128 4.802c-.736 1.591-1.149 3.182-1.09 4.331s.59 1.856.884 1.798c.295-.06.354-.884.442-1.65.088-.767.206-1.474.913-1.916s2.004-.618 3.153-.56c1.149.06 2.15.354 2.622 1.18.471.824.412 2.18-.03 3.27s-1.266 1.915-2.062 2.504c-.795.59-1.561.943-3.123 1.002s-3.919-.177-7.366.383-7.984 1.915-14.908 3.535-16.234 3.506-26.428 5.981-21.272 5.54-31.82 7.955-20.565 4.184-27.99 5.893-12.256 3.358-16.38 4.714c-4.126 1.355-7.543 2.416-10.254 3.83s-4.714 3.182-8.485 4.478-9.31 2.121-13.789 2.593c-4.478.471-7.896.59-12.904.648-5.01.06-11.609.06-16.028-.059-4.42-.118-6.659-.353-6.423 0 .236.354 2.946 1.296 4.243 2.121 1.296.825 1.178 1.532-.354 2.888s-4.478 3.359-7.896 5.008-7.307 2.947-10.253 3.948c-2.946 1.002-4.95 1.71-4.478 2.593.471.884 3.417 1.945 6.482 1.945 3.064 0 6.246-1.06 7.483-2.004 1.237-.943.53-1.768.648-2.71.118-.943 1.06-2.004 2.77-3.241s4.183-2.652 5.774-4.066 2.299-2.829 3.713-3.771c1.414-.943 3.535-1.415 6.54-1.415s6.895.472 7.543 1.474c.648 1.001-1.945 2.533-2.534 3.417-.59.884.825 1.12 2.946.413s4.95-2.357 8.014-3.536c3.065-1.178 6.364-1.885 10.548-2.651s9.251-1.591 11.726-1.356c2.475.236 2.357 1.532 2.298 2.416s-.059 1.356.177 1.974c.236.619.707 1.385.913 2.24.207.854.148 1.797.324 2.15.177.354.59.118.973-.265s.736-.913 1.561-1.473 2.122-1.15 3.506-2.092c1.385-.943 2.858-2.24 4.214-3.211 1.355-.973 2.592-1.62 3.653-1.945s1.944-.324 5.893-.236 10.96.265 18.237-.059 14.82-1.149 19.534-1.974 6.6-1.65 8.603-1.59c2.003.058 4.125 1.001 6.659 1.355 2.533.353 5.48.118 7.719-1.945 2.239-2.062 3.771-5.951 6.835-9.192s7.66-5.834 12.905-8.073 11.137-4.125 16.911-5.303c5.775-1.179 11.432-1.65 16.5-2.416s9.546-1.827 15.726-3.439c6.18-1.611 14.061-3.774 19.669-4.605" transform="translate(-407.06 287.501)scale(4.39974)"/><path fill="#f3feff" fill-opacity=".93" d="M1496.664 1228.357c7.26-.132 25.148-7.128 42.131-13.48s33.056-12.056 42.52-16.984 12.314-9.072 1.553-12.055c-10.758-2.979-35.128-4.796-59.11-4.664-23.98.128-47.575 2.2-66.111 7.387s-32.017 13.481-36.166 19.183 1.038 8.817 8.944 11.54c7.907 2.72 18.537 5.056 27.613 3.758s16.587-6.221 22.685-8.166c6.09-1.945 10.758-.906 11.404 2.983.652 3.885-2.723 10.63 4.537 10.498m85.816 72.204c16.592-1.038 42.52-2.077 72.592 1.553s64.293 11.928 68.961 14-20.22-2.072-41.48-4.928c-21.26-2.846-38.89-4.4-49.52-4.144s-14.255 2.332-11.404 3.63 12.188 1.812 23.592 5.183c11.408 3.374 24.89 9.591 17.37 11.668s-36.034 0-72.851 4.149-81.923 14.519-113.038 20.22-48.221 6.741-71.553 15.04c-23.336 8.293-52.89 23.85-70.264 35.259-17.366 11.404-22.553 18.663-28.255 26.961s-11.923 17.63-19.702 23.592-17.115 8.557-25.668 7.519c-8.558-1.038-16.332-5.702-26.707-6.74-10.365-1.039-23.331 1.557-50.293 7.259s-67.923 14.52-98.26 22.294-50.033 14.519-65.072 17.63c-15.038 3.114-25.408 2.595-36.557 4.148-11.145 1.558-23.072 5.188-33.962 4.409s-20.74-5.962-22.812-10.11c-2.077-4.15 3.63-7.26 9.591-8.818 5.962-1.553 12.187-1.553 17.37-.26 5.188 1.298 9.332 3.89 14.52 3.63s11.408-3.37 31.11-13.48 52.885-27.222 82.442-35.775c29.558-8.557 55.481-8.557 75.447-10.115 19.962-1.553 33.962-4.664 47.443-9.85s26.442-12.443 33.182-18.665 7.26-11.408 6.226-16.336c-1.038-4.927-3.63-9.591-10.37-14.255s-17.63-9.336-24.375-15.038c-6.736-5.707-9.327-12.447-6.736-16.592 2.592-4.149 10.37-5.706 17.37-4.668s13.222 4.664 24.89 6.996c11.663 2.336 28.774 3.374 40.442-.515s17.89-12.702 14.255-24.37c-3.625-11.668-17.106-26.187-11.404-32.668 5.707-6.481 30.592-4.928 54.702-1.294 24.11 3.63 47.447 9.332 72.851 12.443 25.409 3.11 52.89 3.63 75.706 3.89 22.813.263 40.962.263 53.664-.26 12.706-.52 19.966-1.554 36.557-2.596"/><path fill="url(#aA)" fill-opacity=".93" d="M397.5 1297.75c2-.167 5-.333 7.708-.208s5.125.541 4.417 1.125c-.708.583-4.542 1.333-6.917 1.583s-3.291 0-4.416.208c-1.125.209-2.459.875-5.834 1.875s-8.791 2.334-18.333 4.625-23.208 5.542-32.333 7.459-13.709 2.5-17.709 2.583-7.416-.333-9.041-.958-1.459-1.459-1.834-1.75c-.375-.292-1.291-.042-2.291.333s-2.084.875-2.042.083 1.208-2.875 1.583-4.042-.041-1.416-1.333-1.75c-1.292-.333-3.458-.75-5.292-.958s-3.333-.208-3.75-.625.25-1.25.917-1.75 1.333-.667 1.25-1-.917-.833-1.958-1.917c-1.042-1.083-2.292-2.75-3.292-3.791-1-1.042-1.75-1.459-.875-1.875.875-.417 3.375-.834 5.542-1.125s4-.459 5.791-.625c1.792-.167 3.542-.334 6.417-1.25 2.875-.917 6.875-2.584 7.25-2.459s-2.875 2.042-5.333 3.375-4.125 2.084-4.625 3.334.166 3 4.541 4.166 12.459 1.75 19 1.75 11.542-.583 15.125-1.25c3.584-.666 5.75-1.416 9.209-1.833s8.208-.5 12.708-1.083c4.5-.584 8.75-1.667 12.333-2.042s6.5-.042 8.459.042c1.958.083 2.958-.083 4.958-.25" transform="translate(-407.06 -4129.84)scale(4.39974)"/><path fill="url(#aB)" fill-opacity=".93" d="M684.037 1493.645c2.27 2.298 3.919 5.009 6.07 8.986 2.15 3.978 4.802 9.222 6.423 13.318 1.62 4.095 2.21 7.041 2.68 8.072.472 1.031.826.148.354-2.386-.471-2.534-1.767-6.718-4.036-11.49-2.269-4.774-5.51-10.136-7.218-13.259-1.71-3.123-1.886-4.007-2.122-4.861s-.53-1.68-3.918-4.538-9.87-7.748-18.62-12.669c-8.751-4.92-19.77-9.87-28.315-12.904-8.544-3.035-14.613-4.154-19.298-4.537-4.684-.384-7.984-.03-11.55.677-3.564.707-7.394 1.768-7.365 2.328.03.56 3.919.618 7.042.648s5.48.03 7.72.324c2.238.295 4.36.884 5.685 1.267 1.326.383 1.857.56 3.654.619s4.861 0 5.51.265c.647.265-1.12.854-2.652 1.414s-2.829 1.09-5.54 3.624-6.835 7.071-8.102 11.55c-1.266 4.478.324 8.897 2.151 14.083 1.827 5.185 3.89 11.137 5.51 12.08s2.799-3.124 3.123-4.774-.206-.884-1.09-2.033-2.122-4.213-1.68-8.691 2.564-10.371 5.068-13.789 5.392-4.36 8.19-4.979c2.8-.619 5.51-.913 8.486-.619s6.216 1.179 12.227 3.978c6.01 2.799 14.79 7.513 20.624 10.813s8.72 5.185 10.99 7.483" transform="translate(-407.06 -5344.17)scale(4.39974)"/><path fill="#f3feff" fill-opacity=".93" d="M2521.882 1234.453c3.67 1.003 9.35 1.923 17.419 4.4 8.064 2.473 18.514 6.503 28.413 12.1 9.9 5.587 19.25 12.737 26.487 21.259 7.246 8.527 12.376 18.426 14.853 24.11 2.473 5.68 2.288 7.15-.642 6.78-2.935-.365-8.615-2.565-15.487-7.33-6.877-4.769-14.946-12.099-25.21-18.698s-22.734-12.47-31.076-18.057-12.557-10.911-16.5-15.4-7.606-8.16-8.43-10.083c-.826-1.927 1.189-2.112 3.024-1.65s3.484 1.557 7.15 2.565m-64.668-55.578c3.757 1.294 8.425 1.685 12.187 2.526 3.757.845 6.608 2.138 8.747 5.38s3.563 8.426 4.276 12.056.713 5.702-.132 5.442c-.836-.26-2.525-2.85-4.923-5.116-2.398-2.27-5.509-4.215-9.138-5.967-3.63-1.746-7.78-3.304-11.277-6.608-3.502-3.309-6.353-8.36-6.353-9.79 0-1.425 2.851.78 6.613 2.077m-36.65-130.536c26.341 9.117 53.47 24.516 68.869 29.1s19.069-1.65 23.649-.734 10.084 8.984 20.898 18.698 26.949 21.084 38.775 34.464c11.822 13.384 19.342 28.783 23.649 34.467s5.407 1.65 1.923-7.884c-3.48-9.534-11.55-24.564-23.922-39.413s-29.056-29.518-45.097-41.617-31.44-21.63-56.74-32.356-60.496-22.64-93.128-28.963c-32.629-6.327-62.697-7.058-87.353-8.25s-43.905-2.842-62.604-2.565c-18.699.268-36.848 2.473-35.444 5.249 1.408 2.772 22.364 6.12 39.844 8.052s31.48 2.455 49.11 5.046c17.63 2.596 38.885 7.26 62.287 11.008 23.407 3.753 48.947 6.582 75.284 15.698m-44.24-85.557c20.222 5.447 48.74 16.332 66.89 26.707 18.144 10.37 25.923 20.22 22.034 21.514-3.89 1.298-19.447-5.961-43.294-15.293-23.855-9.336-56-20.74-99.557-27.221-43.558-6.486-98.515-8.039-131.183-8.558s-43.038 0-51.072 4.149-13.74 11.923-28.779 16.072-39.408 4.664-57.038 5.962-28.519 3.375-28.774-1.813c-.264-5.187 10.11-17.63 19.961-22.038 9.856-4.404 19.183-.774 28-1.294s17.111-5.187 19.183-13.74-2.072-21-15.553-32.928c-13.48-11.923-36.298-23.331-38.63-28.519-2.331-5.183 15.813-4.149 32.15 0 16.331 4.15 30.85 11.409 41.48 20.74s17.37 20.741 28 27.741 25.145 9.591 46.404 9.591 49.26-2.591 73.11-3.885 43.558-1.297 54.967 1.813 14.519 9.336 22.033 12.447c7.524 3.11 19.447 3.11 39.669 8.553M1886.07 1025l-11.149-2.332c-22.817 3.111-45.63 6.222-66.11 11.15s-38.63 11.663-38.37 14c.26 2.331 18.923.259 45.11-1.04s59.89-1.812 86.851 10.63c26.962 12.448 47.183 37.852 52.63 36.554s-3.89-29.294-19.707-45.626c-15.812-16.336-38.11-21-49.255-23.336m-314.898 67.285c29.148 7.7 61.046 9.53 93.68 13.565 32.628 4.034 65.995 10.264 71.126 13.384s-17.965 3.115-49.313 1.83c-31.348-1.28-70.946-3.85-93.186-2.314s-27.12 7.171-25.413 15.694 10.005 19.93 15.192 30.816c5.183 10.889 7.26 21.26-.651 30.331s-25.796 16.851-43.813 24.89c-18.02 8.038-36.165 16.336-53.795 15.817s-34.74-9.856-47.962-16.592c-13.225-6.744-22.557-10.889-21.778-16.336s11.663-12.187 20.74-16.591c9.072-4.409 16.332-6.481 30.332-9.073 14-2.595 34.74-5.706 50.817-8.298 16.072-2.595 27.48-4.663 31.885-10.37 4.408-5.702 1.817-15.038.778-23.332-1.038-8.297-.519-15.557-3.889-18.408s-10.63-1.298-27.692-.638c-17.067.66-43.931.422-68.733 4.708-24.801 4.28-47.53 13.08-51.2 7.58s11.735-25.298 30.068-39.597 39.598-23.099 63.427-20.714 50.232 15.949 79.38 23.648m139.393 123.008c-3.278.044-7.946.643-13.08 1.1-10.265.915-22.365 1.285-30.799 2.75s-13.2 4.03-24.018 6.23-27.683 4.035-44.547 6.05-33.729 4.215-46.928 6.6-22.734 4.95-32.998 6.599-21.264 2.39-28.598 3.489-11 2.565-6.97 5.13c4.035 2.565 15.765 6.23 26.58 7.88s20.718 1.285 31.717-1.83 23.099-8.984 29.329-9.35 6.604 4.765 12.838 8.25 18.33 5.315 32.078 6.05 29.153.365 41.068-.55 20.344-2.38 26.029-6.78 8.614-11.735 10.08-15.4l1.469-3.669c10.264-8.434 20.533-16.864 21.449-20.349.457-1.742-1.426-2.244-4.7-2.2m-53.879 19.069c.682 0 1.127.044 1.303.18.713.585-2.785 2.666-9.785 3.96s-17.507 1.817-26.451 2.27-16.332.836-17.951.449a.9.9 0 0 1-.317-.136c-.005-.005-.022 0-.027-.044l-.008-.044c0-.005-.01 0-.01-.044v-.044c.128-.515 3.393-1.421 5.808-2.011 2.917-.717 4.603-.977 10.758-1.43 6.16-.453 16.785-1.095 24.56-1.87 5.833-.585 10.066-1.245 12.116-1.289z"/><path fill="#3e779f" d="m1196.645 2270.866-3.3 2.015c-32.263 19.064-64.53 38.132-121.542 59.031s-138.777 43.628-222.187 56.277c-83.415 12.65-168.475 15.219-223.837 10.27s-81.03-17.42-114.943-50.783c-33.918-33.367-76.08-87.63-103.579-131.077s-40.328-76.076-42.897-99.724 5.134-38.318 22.368-46.747 43.997-10.635 94.594-6.785 125.023 13.75 191.02 27.133 123.562 30.249 174.89 43.263 96.428 22.184 129.611 26.948 54.447 5.135 79.745 4.215c25.299-.915 54.627-3.115 79.746 6.05s46.012 29.698 58.111 46.567 15.4 30.063 13.75 38.678-8.25 12.65-11.55 14.669"/><path fill="url(#aC)" d="M257.85 412.582c1.826 1.263 3.787 2.665 5.816 4 3.167 2.083 6.5 4 10.25 6.875 4.344 3.33 15.893 13.664 19.209 17.5 2.125 2.458 3.875 5.125 5 8s1.624 5.959 1.291 8.084-1.5 3.292-3.25 5.209-4.083 4.583-6.666 6.75-5.417 3.833-8.834 5.291-7.415 2.709-10.457 3.959c-1.072.44-2.025.88-2.91 1.303a257 257 0 0 0 18.326-2.094c18.959-2.875 37.541-8.043 50.5-12.793s20.292-9.083 27.625-13.416l.75-.459c.75-.458 2.25-1.374 2.625-3.332s-.375-4.96-3.125-8.793-7.5-8.499-13.209-10.582-12.375-1.583-18.125-1.375-10.583.124-18.125-.959-17.79-3.167-29.457-6.125c-8.3-2.105-17.32-4.652-27.234-7.043" transform="translate(-407.06 287.501)scale(4.39974)"/><path fill="url(#aD)" d="M666.469 317.89c.472 1.587 1.003 3.1 1.636 4.465-.624-1.341-1.146-2.879-1.636-4.464m2.676 6.381c1.673 2.574 4.524 5.21 6.478 5.43q.423-1.147.822-2.316c-2.833.413-5.427-.316-7.3-3.114" transform="matrix(-1.0407 -4.37452 4.27489 -1.06495 1395.742 4382.91)"/><path fill="url(#aE)" d="M678.066 260.027a3 3 0 0 0-.336.006 5 5 0 0 0-.449.057 5 5 0 0 0-.648.156c.702-.06 1.388.081 2.803.776q-.09-.371-.184-.743c-.475-.168-.844-.24-1.186-.252" transform="matrix(-1.0407 -4.37452 4.27489 -1.06495 1395.742 4382.91)"/><path fill="url(#aF)" d="M682.459 262.673c4.157 2.395 11.334 7.368 17.261 12.28 25.519 20.535 5.124 36.633-15.288 49.159-5.892 3.533-12.6 5.82-16.016-1.111-7.2-14.458-6.058-46.247 2.912-58.795 2.112-2.954 3.64-3.698 4.905-3.909 1.264-.21 2.069-.019 6.226 2.376" transform="matrix(-1.0407 -4.37452 4.27489 -1.06495 1395.742 4382.91)"/><path fill="url(#aG)" d="M676.693 260.24q-.225.016-.46.057c-1.265.21-2.793.954-4.905 3.908-3.748 5.244-6.13 13.85-7.107 23.145a53.65 53.65 0 0 0 37.97 15.75 54 54 0 0 0 7.055-.467c4.524-8.182 3.285-17.371-9.525-27.68-5.927-4.912-13.105-9.885-17.262-12.28-3.638-2.094-4.708-2.505-5.766-2.433" transform="matrix(-1.0407 -4.37452 4.27489 -1.06495 1395.742 4382.91)"/><path fill="url(#aH)" d="M681.316 262.023a59.66 59.66 0 0 0-6.845 27.748 59.66 59.66 0 0 0 10.601 33.948c20.194-12.47 39.901-28.445 14.649-48.766-5.927-4.912-13.105-9.884-17.262-12.28q-.618-.356-1.143-.65" style="mix-blend-mode:overlay" transform="matrix(-1.0407 -4.37452 4.27489 -1.06495 1395.742 4382.91)"/><path fill="url(#aI)" d="M686.326 287.404a30.9 30.9 0 0 0-22.613 9.85c.012 9.856 1.565 19.446 4.703 25.746 3.415 6.931 10.124 4.644 16.016 1.111 11.515-7.066 23.024-15.268 26.289-24.763a30.89 30.89 0 0 0-24.395-11.944" style="mix-blend-mode:overlay" transform="matrix(-1.0407 -4.37452 4.27489 -1.06495 1395.742 4382.91)"/><path fill="url(#aJ)" d="M687.197 265.65a40.65 40.65 0 0 0-4.668 18.914 40.65 40.65 0 0 0 14.455 31.084c14.448-11.093 22.841-24.517 2.737-40.695-4.044-3.351-8.672-6.732-12.524-9.303" transform="matrix(-1.0407 -4.37452 4.27489 -1.06495 1395.742 4382.91)"/><path fill="url(#aK)" d="M674.79 260.79c-.967.513-2.092 1.499-3.462 3.415-8.97 12.548-10.113 44.337-2.912 58.795 3.415 6.931 10.124 4.644 16.016 1.111 4.117-2.526 8.233-5.197 11.972-8.021a54.7 54.7 0 0 0 1.102-10.918 54.72 54.72 0 0 0-22.717-44.383" transform="matrix(-1.0407 -4.37452 4.27489 -1.06495 1395.742 4382.91)"/><path fill="url(#aL)" d="M692.96 269.695a60 60 0 0 0-1.077 11.317 59.9 59.9 0 0 0 8.945 31.49c11.915-10.46 17.133-22.87-1.107-37.549a149 149 0 0 0-6.76-5.258" style="mix-blend-mode:overlay" transform="matrix(-1.0407 -4.37452 4.27489 -1.06495 1395.742 4382.91)"/><path fill="#fcfcfc" d="M2595.895 1539.513c7.655 325.009-224.682 480.364-464.507 476.259s-490.426-166.17-512.72-479.03c-18.901-265.204 182.387-481.75 485.608-480.523 266.374 1.078 485.38 218.821 491.619 483.294"/><path fill="url(#aM)" d="M606.84 389.56c4.288-2.247 9.647-5.286 17.064-12.439 3.3-3.182 7.542-7.54 9.487-9.957 1.944-2.416 1.59-2.888.412-2.357s-3.18 2.062-5.774 3.064c-2.592 1.002-5.774 1.472-8.662 1.59-2.887.118-5.48-.118-9.074.707-14.609 3.664-28.579 9.394-44.078 8.367-3.359.354-3.712.944-3.947 1.887-.812 4.317-2.223 7.884-4.213 10.633a126 126 0 0 0 18.9 1.757c10.134.174 20.208-.905 29.885-3.251" style="mix-blend-mode:multiply" transform="translate(-407.06 287.501)scale(4.39974)"/><path fill="url(#aN)" d="M662.709 223.738a71.526 71.526 0 0 0-57.662 70.17 71.53 71.53 0 0 0 50.41 68.338c17.136-17.887 27.873-43.706 27.072-77.682-.528-22.421-7.785-43.364-19.82-60.826" style="mix-blend-mode:normal" transform="translate(-407.06 287.501)scale(4.39974)"/><path fill="url(#aO)" d="M544.592 217.633a207.5 207.5 0 0 0-74.098 13.68c-7.791 15.627-11.432 33.573-10.074 52.623 5.067 71.109 62.026 107.942 116.535 108.877 54.51.934 107.315-34.379 105.574-108.249a111 111 0 0 0-1.502-15.775 207.52 207.52 0 0 0-136.435-51.156" transform="translate(-407.06 287.501)scale(4.39974)"/><path fill="url(#aP)" d="M570.791 174.719c-45.934-.186-81.576 21.618-98.969 54.027a115.56 115.56 0 0 0 95.186 50.027 115.56 115.56 0 0 0 97.119-52.93c-20.048-30.52-54.475-50.967-93.336-51.124" style="mix-blend-mode:overlay" transform="translate(-407.06 287.501)scale(4.39974)"/><path fill="url(#aQ)" d="M540.557 889.459c32.58-3.665 50.232 35.944 29.503 47.09-4.062 2.184-9.809 2.95-15.48 2.605-9.332-.567-17.956-4.211-24.073-9.872s-9.727-13.336-9.031-21.968c.383-4.751 2.222-8.43 5.364-11.533 3.142-3.104 7.586-5.632 13.717-6.322" transform="translate(-407.06 -2496.074)scale(4.39974)"/><path fill="url(#aR)" d="M538.008 889.87c-4.837 1.02-8.48 3.255-11.168 5.911-3.142 3.104-4.98 6.782-5.363 11.533-.697 8.632 2.914 16.309 9.03 21.97 6.118 5.66 14.741 9.303 24.073 9.87 5.67.345 11.419-.421 15.48-2.605 3.915-2.105 6.46-5.226 7.795-8.877a48.915 48.915 0 0 0-39.847-37.803" transform="translate(-407.06 -2496.074)scale(4.39974)"/><path fill="url(#aS)" d="M835.787 622.767q-1.432.621-2.859 1.387c-5.432 2.924-8.615 6.926-10.375 10.976s-2.096 8.15-.682 12.701a25.4 25.4 0 0 0 4.378 8.315 27.262 21.2 0 0 0 15.634 3.833 27.262 21.2 0 0 0 27.261-21.2 27.262 21.2 0 0 0-13.81-18.439c-6.155-1.047-12.868-.475-19.547 2.427" transform="rotate(21.865 6257.574 -2301.71)scale(4.39974)"/><path fill="url(#aT)" d="M739.284 734.844q-1.579.426-3.175 1.01c-5.792 2.125-9.51 5.636-11.826 9.396s-3.229 7.77-2.474 12.476c1.37 8.55 6.699 15.152 13.984 19.2a41.487 35.441 0 0 0 40.76-28.835c-7.22-10.113-21.49-17.505-37.269-13.247" style="mix-blend-mode:overlay" transform="rotate(13.721 10169.396 -2939.651)scale(4.39974)"/><path fill="url(#aU)" d="M538.008 889.87c-4.837 1.02-8.48 3.255-11.168 5.911-3.142 3.104-4.98 6.782-5.363 11.533-.697 8.632 2.914 16.309 9.03 21.97 6.118 5.66 14.741 9.303 24.073 9.87 5.67.345 11.419-.421 15.48-2.605 3.915-2.105 6.46-5.226 7.795-8.877a48.915 48.915 0 0 0-39.847-37.803" transform="translate(-407.06 -2496.074)scale(4.39974)"/><path fill="url(#aV)" d="M543.88 889.23a38 38 0 0 0-3.503.233c-6.13.69-10.575 3.219-13.717 6.322s-4.98 6.782-5.363 11.533a25.6 25.6 0 0 0 .34 6.748 43.08 43.08 0 0 0 27.308 9.764 43.08 43.08 0 0 0 28.559-10.826c-3.922-12.262-16.41-24.104-33.623-23.774" transform="translate(-407.06 -2496.074)scale(4.39974)"/><path fill="url(#aW)" d="M544.09 256.559a38 38 0 0 0-3.533.232c-6.13.69-10.575 3.219-13.717 6.322s-4.98 6.782-5.363 11.533c-.697 8.632 2.914 16.309 9.03 21.97q.438.404.891.794a54 54 0 0 0 6.948.45 53.8 53.8 0 0 0 39.437-17.208c-3.803-12.368-16.345-24.413-33.693-24.093" style="mix-blend-mode:overlay" transform="translate(-407.06 287.501)scale(4.39974)"/><path fill="url(#aX)" d="M543.88 256.563a38 38 0 0 0-3.29.226c-6.13.69-10.575 3.219-13.717 6.323-3.142 3.103-4.98 6.782-5.363 11.533-.566 7.019 1.715 13.406 5.877 18.592a68 68 0 0 0 6.111.275 67.95 67.95 0 0 0 43.328-15.607c-4.726-11.401-16.764-21.747-32.945-21.342" style="mix-blend-mode:overlay" transform="translate(-407.06 287.501)scale(4.39974)"/><path fill="url(#aY)" d="M555.316 271.686a43.5 43.5 0 0 0-32.193 14.244q.266.682.568 1.35c.048.104.086.212.135.316.422.899.922 1.76 1.442 2.611a28 28 0 0 0 1.029 1.54l.021.026.098.133c.175.245.349.49.531.729.238.312.454.635.705.94a31 31 0 0 0 2.856 3.04q.437.405.89.795c.267.23.561.436.836.658.36.291.72.582 1.094.86.458.34.931.662 1.408.982.393.263.782.528 1.188.778.498.306 1.013.59 1.53.875.41.226.814.457 1.235.67.53.266 1.075.507 1.62.751.442.199.879.404 1.332.586.214.087.437.157.654.24a41 41 0 0 0 5.658 1.73c.126.027.255.044.381.071 2.033.437 4.118.746 6.246.875 5.67.345 11.42-.421 15.48-2.605 3.915-2.105 6.46-5.225 7.796-8.877 1.568-4.29 1.376-9.31-.141-14.285l.068-.067a31 31 0 0 0-.824-2.328c-.007-.017-.009-.034-.016-.05v-.003l-.14-.347.023-.02a31 31 0 0 0-.299-.697 43.5 43.5 0 0 0-21.21-5.521" transform="translate(-407.06 287.501)scale(4.39974)"/><path fill="url(#aZ)" d="M544.592 217.633a207.5 207.5 0 0 0-74.098 13.68c-7.791 15.627-11.432 33.573-10.074 52.623 5.067 71.109 62.026 107.942 116.535 108.877 54.51.934 107.315-34.379 105.574-108.249a111 111 0 0 0-1.502-15.775 207.52 207.52 0 0 0-136.435-51.156" transform="translate(-407.06 287.501)scale(4.39974)"/><path fill="#14232c" d="M1742.9 1493.437c-5.778 1.144-7.92 8.404-3.538 12.012 2.05 1.685 5.249 1.79 7.119.233 4.426-3.687 1.628-13.274-3.582-12.245m60.183 38.181c-5.776 1.144-7.92 8.404-3.541 12.012 2.05 1.689 5.253 1.79 7.118.237 4.43-3.691 1.628-13.278-3.577-12.244zm-47.042 24.076c-5.455 2.226-6.168 9.758-1.183 12.464 2.332 1.267 5.5.757 7.035-1.126 3.643-4.47-.937-13.345-5.852-11.338m418.23 219.841c-5.886.185-9.181 6.996-5.455 11.273 1.751 1.997 4.893 2.622 6.987 1.394 4.972-2.917 3.775-12.834-1.531-12.662zm49.098 42.691c-5.887.185-9.183 7-5.456 11.272 1.747 2.002 4.888 2.627 6.987 1.395 4.971-2.917 3.775-12.83-1.536-12.662zm-52.621 10.256c-5.742 1.307-7.673 8.623-3.199 12.104 2.099 1.627 5.302 1.645 7.123.044 4.325-3.815 1.254-13.318-3.92-12.144z"/><path fill="#79b6c2" d="M1768.638 1737.963c44.13 13.622 74.998 52.067 77.959 70.81 8.342-5.72 16.688-11.444 29.562-18.118 92.32-52.956 178.686 29.693 152.816 128.978 45.986 22.46 77.083 56.506 79.644 109.118 1.725 86.125-71.373 120.97-118.027 117.13-20.266-1.672-41.719-10.252-63.176-18.836-2.385 2.86-4.77 5.72-27.415 27.657s-65.565 62.939-119.92 103.702c-97.942 71.034-192.62 119.154-287.888 130.88-257.032 31.633-550.645-251.05-441.4-517.098 36.395-88.624 112.265-164.753 183.866-192.686 30.085-11.739 55.45-13.279 72.86-12.703 17.4.577 26.838 3.274 35.946 1.76 9.103-1.518 17.867-7.25 31.352-12.644s31.696-10.454 49.057-12.813c17.366-2.362 33.887-2.023 48.045-.505s25.959 4.214 38.775 7.92c12.812 3.712 26.632 8.433 36.536 9.705 9.9 1.276 15.883-.902 21.017-4.972 5.135-4.06 9.425-10.022 11.572-16.103s2.147-12.275 3.458-17.4 3.933-9.183 10.014-11.326c6.076-2.147 15.614-2.384 22.289-.717 6.674 1.672 10.489 5.245 14.303 8.822 5.487-8.822 10.969-17.643 19.192-24.555 20.221-16.997 55.758-16.086 86.398.448 60.36 32.576 75.394 113.738 33.165 143.546"/><path fill="url(#ba)" fill-opacity=".671" d="M362.242 455.494c3.084-.372 6.32-.94 10.008-1.676 1.917-.083 3.833-.417 5.125-.959 1.292-.541 1.958-1.291 1.666-2-.292-.708-1.542-1.373-2.75-1.957-1.208-.583-2.375-1.083-4-1.5-1.625-.416-3.708-.75-6.416-2.125-9.262-4.702-5.466-5.941-18.459-14.062-2.167-1.354-2.916-1.689-3.728-1.772s-1.689.084-2.647-.25c-.958-.333-2-1.167-4.103-3.646q-.483-.578-.956-1.15c6.402 11.813 15.521 22.454 26.26 31.097" style="mix-blend-mode:multiply" transform="translate(-407.06 287.501)scale(4.39974)"/><path fill="url(#bb)" fill-opacity=".383" d="M564.68 378.748c-1.948.363-2.219.9-2.412 1.674-2.851 15.155-13.08 21.067-29.875 14.789-2.534-1.002-5.128-2.415-6.778-1.178s-2.357 5.128-3.476 8.133c-1.12 3.005-2.65 5.126-4.36 6.422-6.532 4.318-13.598 8.783-21.449 9.959-2.887.412-5.126.412-6.246.824-1.12.413-1.119 1.238-3.24 3.772s-6.365 6.777-11.61 10.312c-5.244 3.536-11.49 6.363-18.326 9.191-25.648 10.525-35.978 12.103-63.463 11.551-3.123.472-4.89 1.53-7.718 2.06-2.829.531-6.718.533-10.43 1.122-3.2.557-6.225.913-9.147 1.119 19.266 14.141 43.012 21.978 65.524 19.207 21.653-2.665 43.173-13.601 65.433-29.746 12.355-9.266 22.108-18.585 27.256-23.57 5.148-4.986 5.689-5.635 6.23-6.285 4.878 1.95 9.754 3.9 14.36 4.279 10.604.873 27.218-7.046 26.826-26.621-.341-7.018-2.917-12.582-7.1-17.014" style="mix-blend-mode:multiply" transform="translate(-407.06 287.501)scale(4.39974)"/><path fill="#fff" d="M1576.308 1630.88c6.071 9.68 6.414 17.327 2.837 24.934s-11.272 15.307-24.013 16.13c-12.742.827-30.521-5.223-51.882-10.63-57.32-20.877-107.34 5.75-161.427 22.412-.998-.154 2.46-18.026 8.998-29.742 27.362-49.053 76.357-66.586 122.198-65.979s88.532 19.36 103.289 42.876"/><path fill="url(#bc)" d="M427.316 293.61c-3.155-.042-6.377.294-9.507 1.093a27.7 27.7 0 0 0-1.329 8.469 27.7 27.7 0 0 0 .624 5.842c5.497-.962 11.097-.923 17.084 1.257 4.854 1.23 8.895 2.604 11.79 2.416 2.896-.187 4.647-1.936 5.46-3.666s.733-3.467-.647-5.667c-3.354-5.346-13.055-9.607-23.475-9.745" transform="translate(-407.06 296.202)scale(4.39974)"/><path fill="url(#bd)" d="M426.398 297.568a40.473 22.348 0 0 0-15.275 1.653c-4.567 2.389-8.63 6.068-11.582 11.361-1.451 2.602-2.234 6.536-2.059 6.752l.006.004.002.002h.002l.006.002c12.293-3.787 23.662-9.839 36.69-5.094 4.854 1.23 8.895 2.604 11.79 2.416 2.897-.187 4.647-1.937 5.46-3.666s.734-3.465-.647-5.666c-1.24-1.978-3.351-3.808-6.046-5.336a40.473 22.348 0 0 0-18.346-2.427z" style="mix-blend-mode:multiply" transform="translate(-407.06 287.501)scale(4.39974)"/><path fill="url(#be)" d="M478.025 340.292c22.696 10.212 36.057 33.523 40.167 45.583 5.075 14.89-.246 30.121-9.08 35.91-8.836 5.789-21.186 2.135-30.17-20.744-7.625-19.417-20.565-56.086-12.083-61.958 2.166-1.5 5.333-1.416 11.166 1.209" style="mix-blend-mode:multiply" transform="translate(-407.06 287.501)scale(4.39974)"/><path fill="url(#bf)" d="M392.09 330.907s-.824-3.182-.5-5.568c2.533-13.36 36.427-27.018 67.478-5.198 14.397 10.116 20.137 24.022 20.056 36.723-.354 7.1-3.83 13.818-8.721 17.442-4.891 3.623-11.196 4.154-19.475 3.182-23.65-2.778-45.936-13.806-58.762-24.362-6.413-5.278-10.461-10.438-11.133-14.39-.335-1.976.173-3.65 1.652-4.885 3.048-2.547 9.406-2.944 9.406-2.944" transform="translate(-407.06 287.501)scale(4.39974)"/><path fill="#f0d85c" fill-opacity=".207" d="M470.209 338.102c-1.37.006-2.447.357-3.35.982-5.343 3.699-2.186 19.618 2.79 35.748q.382-.252.753-.527c4.891-3.624 8.367-10.341 8.721-17.442a41.9 41.9 0 0 0-3.799-17.676c-2.08-.751-3.744-1.091-5.115-1.085" style="mix-blend-mode:multiply" transform="translate(-407.06 287.501)scale(4.39974)"/><path fill="url(#bg)" d="M387.305 1214.409c-4.963.937-6.844 3.427-6.272 6.797.672 3.952 4.72 9.112 11.133 14.39 12.826 10.556 35.111 21.584 58.762 24.361 8.279.973 14.583.44 19.474-3.183 4.891-3.624 8.367-10.34 8.721-17.441v-.516c-3.612 2.247-7.448 4.627-10.998 6.35-19.364 9.395-51.065-4.928-60.709-9.75-16.146-8.073-19.189-17.916-20.111-21.008" style="mix-blend-mode:multiply" transform="translate(-407.06 -3595.136)scale(4.39974)"/><path fill="url(#bh)" d="M476.262 294.135c-3.465-.039-6.632.875-8.93 2.806-1.87 1.572-3.117 3.578-4.363 5.582-.867-.812-1.733-1.626-3.25-2.005-1.517-.38-3.685-.324-5.067.164-1.381.487-1.979 1.407-2.277 2.572s-.297 2.575-.785 3.957-1.464 2.736-2.631 3.66l10.11 9.27c13.737 0 27.377-2.316 40.345-6.85-1.438-6.285-5.694-12.603-12.445-16.246-3.482-1.88-7.243-2.872-10.707-2.91" transform="translate(-407.06 287.501)scale(4.39974)"/><path fill="url(#bi)" d="M531.652 337.893c-4.032.078-8.341 1.248-12.709 3.753-2.926 1.518-4.822 2.817-6.718 4.118-.12-.754-.436-1.647-.934-2.625a28.3 28.3 0 0 0 1.566 6.326 34.46 34.46 0 0 0 27.49 13.693 34.5 34.5 0 0 0 14.253-3.086c-1.24-12.827-10.85-22.415-22.948-22.18" transform="translate(-407.06 287.501)scale(4.39974)"/><path fill="url(#bj)" d="M554.668 364.908a73.566 73.566 0 0 0-55.254 71.252 74 74 0 0 0 .625 9.565c10.963-8.502 19.59-16.752 24.324-21.336 5.148-4.986 5.689-5.635 6.23-6.285 4.878 1.95 9.754 3.9 14.36 4.279 10.604.873 27.218-7.046 26.826-26.621-.582-11.959-7.65-19.696-18.101-24.801.535-2.056.86-4.08.99-6.053" transform="translate(-407.06 287.501)scale(4.39974)"/><path fill="url(#bk)" d="M411.404 319.049a58.9 58.9 0 0 0-18.547 3 13 13 0 0 0-.662 1.351c-.076.186-.16.371-.224.557q-.046.132-.088.264a10 10 0 0 0-.293 1.117c-.324 2.386.5 5.568.5 5.568s-1.588.1-3.559.518c-1.97.418-4.321 1.154-5.845 2.428-1.02.852-1.579 1.912-1.717 3.136q-.062.552-.012 1.145.024.297.076.603c.672 3.952 4.72 9.113 11.133 14.391 12.826 10.556 35.111 21.584 58.762 24.361 8.279.973 14.583.44 19.474-3.183 4.335-3.212 7.56-8.852 8.483-15.037-14.118-22.191-44.012-40.22-67.48-40.22" style="mix-blend-mode:multiply" transform="translate(-407.06 287.501)scale(4.39974)"/><path fill="#222f33" d="M1893.586 1627.063c3.115 5.381 9.336 16.139 18.475 26.315s21.193 19.768 33.57 26.575c43.179 23.732 98.087 10.665 103.06 18.795 5.574 9.117-83.125 22.413-136.186-31.827-11.417-11.673-19.082-25.55-22.967-33.773-8.267-17.524-.629-14.123 4.048-6.102z"/><path fill="url(#bl)" d="M389.699 313.495a41 41 0 0 0-3.725.043 162 162 0 0 0-2.843.265c-2.944.38-6.312 1.145-9.993 2.58-16.273 6.349-33.517 23.652-41.789 43.795-24.83 60.47 41.904 124.717 100.325 117.528 21.653-2.665 43.172-13.602 65.433-29.747 12.355-9.266 22.108-18.585 27.256-23.57s5.689-5.635 6.23-6.285c4.026 1.61 8.053 3.221 11.926 3.947A161.845 161.845 0 0 0 398.582 313.74a8 8 0 0 1-.713.156c-2.07.345-4.214-.269-8.17-.4" transform="translate(-407.06 287.501)scale(4.39974)"/><path fill="url(#bm)" d="M380.244 315.428c-2.03.525-3.947 1.151-5.564 1.799-3.066 1.226-5.058 2.528-7.127 2.873-2.07.344-4.214-.27-8.17-.4-3.956-.132-9.722.22-16.56 2.888-16.274 6.348-33.518 23.651-41.79 43.795-7.565 18.423-6.63 37.196-.021 54.193a146.21 146.21 0 0 0 79.232-105.148" transform="translate(-407.06 287.501)scale(4.39974)"/><path fill="#efd75a" d="M1651.812 1767.41c-26.83-.065-53.633 3.217-80.305 9.394 32.946-3.564 69.314-2.085 111.912 1.263a189 189 0 0 0-4.606-9.17c-.053-.096-.132-.193-.18-.29a317 317 0 0 0-26.821-1.196m-80.305 9.393c-40.407 4.378-75.657 16.35-110.93 41.789 36.487-18.796 73.568-33.13 110.93-41.789m-110.93 41.789c-20.494 10.56-40.799 22.522-60.857 35.673a356 356 0 0 0-30.411 22.227c6.348 3.793 14.048 7.058 20.837 10.718 24.432-29.64 47.447-52.04 70.43-68.618"/><path fill="url(#bn)" d="M476.262 294.135c-3.465-.039-6.632.875-8.93 2.806-1.87 1.572-3.117 3.578-4.363 5.582-.867-.812-1.733-1.626-3.25-2.005-1.517-.38-3.685-.324-5.067.164-1.381.487-1.979 1.407-2.277 2.572s-.297 2.575-.785 3.957-1.464 2.736-2.631 3.66-2.525 1.418-4.775 1.129c-2.25-.29-5.393-1.362-8.305-2.205s-5.594-1.456-8.813-1.8c-3.178-.341-6.879-.42-10.771.095a149 149 0 0 0 56.783 11.246 149 149 0 0 0 26.852-2.441c-.408-7.36-4.912-15.506-12.961-19.85-3.482-1.88-7.243-2.872-10.707-2.91" style="mix-blend-mode:overlay" transform="translate(-407.06 287.501)scale(4.39974)"/><path fill="url(#bo)" d="M531.996 337.889c-1.75.007-3.555.22-5.394.66a149 149 0 0 0 28.078 22.545c-.807-13.213-10.43-23.256-22.684-23.205" style="mix-blend-mode:overlay" transform="translate(-407.06 287.501)scale(4.39974)"/><path fill="url(#bp)" fill-opacity=".625" d="M375.84 315.428q-1.32.418-2.701.955c-16.273 6.348-33.518 23.651-41.79 43.795-3.441 8.381-5.125 16.835-5.314 25.162a50 50 0 0 0 4.537.207 49.67 49.67 0 0 0 49.672-49.672 49.7 49.7 0 0 0-4.404-20.447" style="mix-blend-mode:multiply" transform="translate(-407.06 287.501)scale(4.39974)"/><path fill="#1e6093" d="M983.08 1492.038c6.175-3.646 14.113-5.294 21.54-4.57 7.451.726 14.536 3.855 21.93 7.496 7.514 3.694 15.383 7.93 24.452 14.643 9.329 6.911 20.127 16.585 26.097 23.312 6.134 6.905 7.01 10.515 8.669 12.937 1.678 2.454 4.142 3.67 10.936 9.317 6.939 5.775 18.65 16.376 26.384 28.895 8.101 13.102 11.947 28.465 12.905 55.375 1.051 29.48-1.29 75.35-8.132 119.368-7.761 49.971-21.046 95.866-37.238 119.024-17.11 24.475-35.305 20.586-48.908 10.4-13.279-9.95-21.797-25.637-32.612-66.344-9.812-36.93-20.468-90.606-29.372-144.436-7.64-46.207-13.84-91.639-15.35-119.36-1.37-25.122.962-38.16 4.475-47.511 3.38-9.013 7.947-14.843 14.224-18.546"/><path fill="url(#bq)" d="M414.761 370.489a6 6 0 0 0-.499-.162c-.09-.025-.178-.054-.27-.075a7 7 0 0 0-.82-.148 9 9 0 0 0-1.046-.05c-.12 0-.244.009-.367.014-.136.005-.28.02-.421.031q.167.157.337.333c1.052 1.095 2.15 2.792 2.793 4.866.647 2.09.845 4.609.532 7.283-.323 2.752-1.194 5.721-1.951 7.948-.78 2.295-1.426 3.76-2.341 6.174-4.236 11.174-7.537 15.97-10.846 21.573a92 92 0 0 0 2.827-1.556c5.216-2.999 7.855-5.364 9.601-8.33l.011-.02c.843-1.436 1.483-3.02 1.963-4.487v-.002c.47-1.44.789-2.775.996-3.76.306-1.456.373-2.163.518-2.674q.005-.018.012-.035c.046-.154.1-.294.17-.43.307-.582.929-1.134 1.654-3.07.707-1.886 1.493-5.036 1.884-7.606.38-2.497.395-4.499.34-6.373-.047-1.616-.146-3.143-.596-4.537a8 8 0 0 0-.215-.588c-.633-1.545-1.79-2.945-3.16-3.787a6 6 0 0 0-.56-.304l-.168-.076a6 6 0 0 0-.377-.153z" transform="rotate(-62.138 1283.314 2299.843)scale(4.46575)"/><path fill="#1f475a" d="M1009.519 1510.194c-5.292 14.902-.591 43.755-.631 43.754 0 0-2.37-27.368 4.616-41.183 3.676-7.27 18.262-15.148 18.262-15.148s-3.393-1.743-5.06-2.564l-1.577 1.187c-13.334 10.126-14.178 11.407-15.61 13.954m74.408 32.361c-4.349 4.833-8.83 10.082-11.948 14.192-7.119 9.396-2.216 69.38-2.216 69.38s-.879-44.3 8.079-60.795c2.528-4.134 6.666-8.75 12.924-14.894-2.564-1.981-3.938-3.041-4.998-4.582-.615-.9-1.127-1.959-1.841-3.301"/><path fill="url(#br)" d="M414.761 370.489a6 6 0 0 0-.499-.162c-.09-.025-.178-.054-.27-.075a7 7 0 0 0-.82-.148 9 9 0 0 0-1.046-.05c-.12 0-.244.009-.367.014-.136.005-.28.02-.421.031q.167.157.337.333c1.052 1.095 2.15 2.792 2.793 4.866.647 2.09.845 4.609.532 7.283-.323 2.752-1.194 5.721-1.951 7.948-.78 2.295-1.426 3.76-2.341 6.174-4.236 11.174-7.537 15.97-10.846 21.573a92 92 0 0 0 2.827-1.556c5.216-2.999 7.855-5.364 9.601-8.33l.011-.02c.843-1.436 1.483-3.02 1.963-4.487v-.002c.47-1.44.789-2.775.996-3.76.306-1.456.373-2.163.518-2.674q.005-.018.012-.035c.046-.154.1-.294.17-.43.307-.582.929-1.134 1.654-3.07.707-1.886 1.493-5.036 1.884-7.606.38-2.497.395-4.499.34-6.373-.047-1.616-.146-3.143-.596-4.537a8 8 0 0 0-.215-.588c-.633-1.545-1.79-2.945-3.16-3.787a6 6 0 0 0-.56-.304l-.168-.076a6 6 0 0 0-.377-.153z" transform="rotate(-62.138 1283.314 2299.843)scale(4.46575)"/><path fill="url(#bs)" d="M386.484 384.037a511 511 0 0 0-7.673 5.726c-9.725 7.396-19.236 15.123-25.52 20.93-6.927 6.4-9.14 9.73-9.72 13.4-.595 3.758.54 7.768 7.176 8.593 6.279.782 16.755-1.391 27.46-5.084 9.43-3.252 18.756-7.589 24.482-10.882 1.801-1.035 3.285-1.988 4.528-2.912.791-13.983-7.23-25.673-20.733-29.771" transform="rotate(-62.138 1283.314 2299.843)scale(4.46575)"/><path fill="url(#bt)" d="M414.785 370.49c-1.145-.433-2.466-.55-4.077-.343-2.22.283-5.044 1.186-9.873 4.085-5.33 3.2-13.677 9.183-22.024 15.531a520 520 0 0 0-12.615 9.895c5.525 4.29 12.159 6.982 19.05 7.897 12.426 1.65 23.743-2.65 30.582-10.265q.055-.16.132-.307c.306-.582.928-1.134 1.654-3.07.706-1.886 1.493-5.036 1.884-7.606.38-2.498.394-4.5.34-6.374-.054-1.845-.175-3.574-.81-5.125-.634-1.545-1.792-2.945-3.16-3.786a6.3 6.3 0 0 0-1.083-.532" transform="rotate(-62.138 1283.314 2299.843)scale(4.46575)"/><path fill="url(#bu)" d="M386.408 384.092a512 512 0 0 0-7.597 5.671c-9.725 7.396-19.236 15.123-25.52 20.93-6.927 6.4-9.14 9.73-9.72 13.4-.595 3.758.54 7.768 7.176 8.593 6.279.782 16.755-1.391 27.46-5.084a164 164 0 0 0 13.124-5.198 46 46 0 0 0 2.798-7.69c3.132-11.908.203-23.03-7.721-30.622" style="mix-blend-mode:multiply" transform="rotate(-62.138 1283.314 2299.843)scale(4.46575)"/><path fill="url(#bv)" d="M321.521 256.271c-1.41.056-2.819.432-3.986 1.092-1.58.894-2.746 2.325-3.63 4.555-.92 2.315-1.56 5.553-1.335 11.818.249 6.916 1.585 18.266 3.276 29.815 1.97 13.455 4.376 26.88 6.65 36.127.434 1.764.854 3.342 1.27 4.758a71.945 81.24 0 0 0 22.824-59.356 71.945 81.24 0 0 0-.682-11.152l-.351-.307c-1.667-1.439-2.275-1.755-2.682-2.373-.403-.612-.603-1.514-2.1-3.264-1.456-1.702-4.103-4.165-6.396-5.93-2.229-1.714-4.17-2.805-6.025-3.761-1.827-.94-3.577-1.753-5.43-1.969a9 9 0 0 0-1.403-.052" transform="rotate(-1.062 25925.017 16967.777)scale(4.01234)"/><path fill="url(#bw)" d="M314.51 269.54a8.3 8.3 0 0 0-1.904.164 9 9 0 0 0-1.1.31c-.124.043-.242.092-.363.14a8 8 0 0 0-.715.327c-.135.069-.271.134-.4.21h-.003l-.002.002h-.004v.002l-.164.1-.002.002-.006.004c-.057.036-.118.068-.174.106q-.259.172-.498.363-.057.046-.11.094l-.003.002h-.002l-.002.002v.002h-.002l-.014.011-.01.008-.008.006-.017.018q-.068.06-.133.12-.092.084-.182.169a6 6 0 0 0-.254.267l-.011.012-.037.037q-.014.015-.026.031l-.068.075q-.225.267-.424.566l-.006.01-.068.1q-.08.12-.157.246-.089.151-.172.31l-.037.069-.039.078-.008.017-.008.014-.013.024-.028.062-.013.027a9 9 0 0 0-.309.766l-.006.014c-.011.031-.026.058-.037.09l-.006.015-.078.23c-.017.053-.038.1-.055.153v.002q-.144.467-.258.986c-.365 1.664-.513 3.773-.092 7.088.14 1.105.343 2.345.623 3.746.003.016.015.048.018.065.227 1.13.505 2.384.832 3.746.738 3.071 1.71 6.673 2.828 10.549a58.483 69.036 0 0 0 20.196-24.217 40 40 0 0 0-2.4-1.711l-.075-.049a52 52 0 0 0-1.674-1.059 42 42 0 0 0-1.807-1.037 31 31 0 0 0-2.96-1.392 37 37 0 0 0-1.758-.686l-.043-.015-.018-.006-.017-.006v-.002h-.002a53 53 0 0 0-1.116-.375h-.002v-.002h-.002l-.015-.006-.006-.002-.014-.004h-.002l-.02-.008h-.001c-.615-.2-1.217-.377-1.815-.534-.079-.02-.16-.05-.238-.07-.14-.035-.279-.057-.418-.088q-.172-.038-.344-.072c-.127-.025-.255-.06-.38-.08l-.057-.006c-.12-.02-.237-.024-.356-.04h-.004a10 10 0 0 0-.578-.056h-.014c-.111-.008-.224-.03-.336-.033z" transform="rotate(8.19 -913.109 -1291.627)scale(4.39974)"/><path fill="url(#bx)" d="M188.322 403.35c-3.448.255-5.948.858-7.906 1.816-3.917 1.917-5.665 5.25-5.082 10.625s3.5 12.793 9.75 22.668 15.833 22.208 23.541 29.791 13.542 10.416 26.125 11.541c2.28.204 4.78.351 7.459.44a109.5 109.5 0 0 0 55.838-57.543c-4.053-.882-8.4-1.906-12.963-3.063-11.667-2.958-24.75-6.792-39.75-9.834s-31.918-5.291-43.418-6.166c-5.75-.438-10.146-.53-13.594-.275" transform="translate(-407.06 287.501)scale(4.39974)"/><path fill="#d6edfa" d="M1704.45 1784.697c99.852 44.93 158.637 147.493 176.72 200.554 22.329 65.512-1.078 132.524-39.95 157.994s-93.208 9.394-132.74-91.268c-33.548-85.43-90.48-246.764-53.162-272.599 9.534-6.6 23.464-6.23 49.132 5.32"/><path fill="url(#by)" d="M471.697 338.115c-1.181.067-2.134.406-2.947.969-6.832 4.73.235 29.444 7.229 49.027a52.45 52.45 0 0 0 35.113-19.97c-6.917-10.47-17.303-21.607-31.176-27.85-3.646-1.64-6.25-2.287-8.219-2.176" transform="translate(-407.06 287.501)scale(4.39974)"/><path fill="url(#bz)" d="M471.697 338.115c-1.181.067-2.134.406-2.947.969-6.832 4.73.235 29.444 7.229 49.027a52.45 52.45 0 0 0 35.113-19.97c-6.917-10.47-17.303-21.607-31.176-27.85-3.646-1.64-6.25-2.287-8.219-2.176" style="mix-blend-mode:overlay" transform="translate(-407.06 287.501)scale(4.39974)"/><path fill="#efd75a" d="M1542.069 1659.892c-39.849-2.363-80.137 9.23-118.7 17.265 5.6-1.11 11.47-2.2 17.735-3.37 18.61-3.485 40.794-7.7 63.343-10.27 14.325-1.627 28.7-2.538 40.662-2.481-1.012-.36-2.028-.792-3.04-1.144m-133.928 20.53a246 246 0 0 0-15.888 4.267c-15.214 4.677-30.622 11.272-44.46 20.534-11.368 7.602-21.685 16.996-31.81 26.715l.005.061c24.45-21.924 55.459-43.614 92.153-51.578"/><path fill="#eac35d" fill-opacity=".459" d="M1316.978 1738.504c.554 2.97 1.056 4.897 1.056 4.897s-2.552.168-6.49.696c6.618 2.353 25.792 1.592 28.154 1.601-1.922-.136-14.959-1.364-22.72-7.194m22.9 7.203.058.009-.009-.01z"/><path fill="url(#bA)" d="M425.227 308.68c-10.52-.183-19.705 2.671-25.832 6.76a42.06 42.06 0 0 0 39.937 28.86 42.06 42.06 0 0 0 30.918-13.542c-2.916-3.815-6.613-7.407-11.182-10.617-11.467-8.058-23.322-11.278-33.841-11.461" style="mix-blend-mode:overlay" transform="translate(-407.06 287.501)scale(4.39974)"/><path fill="#222f33" d="M2197.472 1616.064c9.054 31.74 19.191 59.243 36.223 78.487s40.957 30.226 77.576 28.933l27.107-.964s-154.713 50.32-141.122-106.416l.026-.022.027-.022h.07l.062.004.057.004h-.013zm-424.756-281.5c14.638 29.584 29.58 54.8 49.805 70.651s45.745 22.333 81.528 14.44l26.486-5.838s-143.08 77.435-158.025-79.173l.017-.044h.062l.035.004.057.004.062.005h-.013z" overflow="visible" paint-order="stroke fill markers"/><path fill="url(#bB)" d="M570.791 174.719c-61.617-.25-104.715 39.068-110.084 90.48a106 106 0 0 0 63.197 20.897 106.006 106.006 0 0 0 105.367-94.381c-17.044-10.676-37.09-16.91-58.48-16.996" transform="translate(-407.06 287.501)scale(4.39974)"/><path fill="url(#bC)" d="M678.604 1423.854c-.605-.022-1.854.687-3.104 1.062s-2.5.417-3.584.062c-1.083-.354-2-1.103-2.795-1.107-.795 0-1.469.736-2.277 1.785-.809 1.048-1.75 2.404-3.46 4.79-9.32 13.019-23.702 22.402-26.605 24.22-3.624 2.268-6.866 3.446-9.517 4.654-2.652 1.208-4.714 2.446-6.688 3.33s-3.86 1.413-5.95 1.885c-2.093.471-4.39.884-6.66 1.65-11.822 4.91-25.064 4.65-37.712 5.54-2.799.176-4.39.06-6.512-.177-1.696-.188-11.614-5.106-11.52-2.652.03.766 2.859 4.596 3.39 6.982 2.372 10.678-9.677 19.566-28.462 10.99-2.71-1.237-4.36-2.476-5.51-3.242-1.148-.766-1.796-1.06-2.179.149-.383 1.208-.5 3.918-1.385 7.336-.884 3.417-2.535 7.542-3.89 9.81-1.356 2.27-2.416 2.681-3.506 3.182-5.864 2.694-2.47 5.046-9.752 7.16-1.827.53-3.888.884-6.069 1.09s-4.479.266-6.04.12c-1.562-.148-2.386-.502-3.24.116-.855.62-1.74 2.209-4.509 5.037-2.77 2.829-7.425 6.896-12.05 10.432-14.62 11.174-38.003 20.916-68.381 18.941-4.123-.267-9.067-.51-12.54-.796-3.472-.288-5.473-.62-9.681-2.182-10.373-3.265-18.92-9.55-27.354-16.125-3.562-2.73-7.313-5.064-10.021-6.98-8.895-6.583-14.325-17.243-16.541-27.876a.6.6 0 0 0-.037-.125h-.008c-1.084 12.456 4.671 20.72 12.482 30.061 2.105 2.48 3.145 3.313 4.104 3.646.958.334 1.834.167 2.646.25.813.083 1.562.418 3.729 1.772 12.993 8.121 9.196 9.36 18.459 14.062 2.708 1.375 4.79 1.709 6.416 2.125 1.625.417 2.791.917 4 1.5 1.208.584 2.458 1.25 2.75 1.957.292.709-.375 1.459-1.666 2-1.292.542-3.209.876-5.125.96-13.046 2.6-20.44 3.11-35.416.25-5.25-1.084-7.418-2.418-8.918-3.085s-2.332-.666-3.457-.79c-1.125-.126-2.542-.375-4.5-1.417-1.959-1.041-4.46-2.876-6.293-4.167-1.834-1.292-3-2.041-2.166-.791.833 1.25 3.666 4.499 6.125 6.29s4.541 2.127 6.25 2.794c1.708.666 3.04 1.665 4.416 2.54 1.375.875 2.791 1.625 4.5 1.875 15.65.721 27.01 2.76 42.506.061 3.712-.589 7.6-.59 10.43-1.12 2.828-.531 4.595-1.59 7.718-2.061 27.485.551 37.815-1.026 63.463-11.551 6.835-2.828 13.082-5.656 18.326-9.191 5.245-3.536 9.488-7.779 11.61-10.313 2.12-2.534 2.12-3.359 3.24-3.771 1.12-.413 3.359-.412 6.246-.825 7.85-1.176 14.916-5.64 21.45-9.959 1.708-1.296 3.239-3.416 4.358-6.421 1.12-3.006 1.827-6.896 3.477-8.133 1.65-1.238 4.244.176 6.777 1.177 16.796 6.278 27.025.367 29.875-14.789.236-.942.589-1.533 3.948-1.886 15.499 1.026 29.469-4.703 44.078-8.368 3.594-.824 6.187-.589 9.074-.707s6.07-.588 8.662-1.59c2.593-1.001 4.595-2.534 5.774-3.064 1.178-.53 1.532-.059-.413 2.358-1.944 2.416-6.186 6.775-9.486 9.957-16.914 16.31-23.12 11.226-30.348 24.16-1.12 2.003-1.59 3.3.649 2.004 13.649-7.902 37.557-32.076 37.596-32.116 4.596-4.655 8.483-8.66 11.37-12.255 27.51-34.247 5.765-.899 24.034-23.766 1.795-2.247 2.545-3.788 3.941-4.518 1.396-.729 3.438-.646 4.875-.959 1.438-.312 2.27-1.02 2.707-1.75.438-.729.48-1.479-.125-1.5zm-292.7 124.357 3.801.795c-.442.354-.884.706-1.547 1.045s-1.548.663-1.96.353c-.413-.309-.353-1.25-.294-2.193" transform="translate(-407.06 -4540.907)scale(4.39974)"/><path fill="#1e6093" d="M1380.862 1803.132c12.672 2.517 24.595 10.529 32.33 21.524s11.276 24.973 14.347 39.879c3.08 14.91 5.685 30.75 5.874 50.967.185 20.22-2.05 44.815-5.21 59.502-3.163 14.682-7.246 19.45-8.825 23.877-1.584 4.426-.66 8.514-1.223 21.876-.572 13.362-2.627 36.003-10.92 54.961s-22.835 34.239-51.72 53.435-72.111 42.3-111.995 57.953-76.401 23.851-99.509 20.873-32.8-17.146-36.711-30.75c-3.916-13.604-2.05-26.645 10.995-54.227s37.265-69.692 67.087-117.213 65.222-100.446 92.148-134.544c26.926-34.103 45.375-49.383 61.31-58.517 15.932-9.13 29.347-12.108 42.018-9.591"/><path fill="url(#bD)" d="M404.129 344.307q-.48.014-.97.072c-.173.02-.344.032-.518.06-.502.081-1.009.188-1.53.338-.606.175-1.233.413-1.87.684-.21.089-.425.195-.637.295-.235.11-.48.243-.72.365q.351.168.718.371c2.268 1.267 4.862 3.624 6.777 6.983s3.152 7.72 3.506 12.552-.177 10.135-.737 14.024-1.15 6.364-1.857 10.283c-2.997 16.607-6.247 23.262-9.021 30.371a104 104 0 0 0 3.34-2.123c6.55-4.353 9.854-7.82 11.742-12.115l.011-.03c.943-2.154 1.532-4.518 1.9-6.722v-.002c.37-2.205.518-4.25.583-5.768.096-2.28.003-3.37.101-4.199l.01-.057c.034-.251.085-.483.168-.716.36-1.007 1.286-2.09 2.004-5.428s1.228-8.928 1.186-13.524-.637-8.195-1.336-11.584c-.612-2.964-1.304-5.765-2.645-8.093v-.002a13 13 0 0 0-.615-.967c-1.758-2.5-4.47-4.32-7.35-4.893-.38-.075-.763-.122-1.15-.154-.113-.009-.227-.012-.34-.018a10 10 0 0 0-.75-.004z" transform="translate(-407.06 287.501)scale(4.39974)"/><path fill="#1f475a" d="M1385.544 1863.696c-26.14 13.247-57.021 54.156-57.056 54.117 0 0 31.493-36.135 57.958-45.595 14.536-5.2 43.117 2.772 43.117 2.772s-1.28-6.837-1.967-10.163c-.954-.106-2.147-.238-3.651-.396-30.372-3.098-33.174-2.403-38.401-.74m36.443 129.646c-11.206-.162-22.892-.061-31.48.471-19.14 1.188-81.21 59.234-81.21 59.234s47.261-38.652 76.277-44.134c7.845-1.1 18.088-.845 32.8.387.01-4.95.01-7.62 1.008-10.414.585-1.641 1.505-3.326 2.605-5.544"/><path fill="url(#bE)" d="M404.129 344.307q-.48.014-.97.072c-.173.02-.344.032-.518.06-.502.081-1.009.188-1.53.338-.606.175-1.233.413-1.87.684-.21.089-.425.195-.637.295-.235.11-.48.243-.72.365q.351.168.718.371c2.268 1.267 4.862 3.624 6.777 6.983s3.152 7.72 3.506 12.552-.177 10.135-.737 14.024-1.15 6.364-1.857 10.283c-2.997 16.607-6.247 23.262-9.021 30.371a104 104 0 0 0 3.34-2.123c6.55-4.353 9.854-7.82 11.742-12.115l.011-.03c.943-2.154 1.532-4.518 1.9-6.722v-.002c.37-2.205.518-4.25.583-5.768.096-2.28.003-3.37.101-4.199l.01-.057c.034-.251.085-.483.168-.716.36-1.007 1.286-2.09 2.004-5.428s1.228-8.928 1.186-13.524-.637-8.195-1.336-11.584c-.612-2.964-1.304-5.765-2.645-8.093v-.002a13 13 0 0 0-.615-.967c-1.758-2.5-4.47-4.32-7.35-4.893-.38-.075-.763-.122-1.15-.154-.113-.009-.227-.012-.34-.018a10 10 0 0 0-.75-.004z" transform="translate(-407.06 287.501)scale(4.39974)"/><path fill="url(#bF)" d="M368.176 380.822a573 573 0 0 0-6.237 9.721c-6.776 10.8-12.283 20.372-15.248 26.64-2.964 6.27-3.387 9.235-2.498 12.327.89 3.092 3.092 6.31 8.344 6.988s13.553-1.186 22.617-4.744 18.89-8.81 25.455-13.172c2.197-1.46 4.027-2.82 5.563-4.144a40.21 40.21 0 0 0-37.996-33.616" transform="translate(-407.06 287.501)scale(4.39974)"/><path fill="url(#bG)" d="M404.172 344.291c-2.243.047-4.638.817-7.354 2.373-3.621 2.075-7.813 5.548-13.933 13.299s-14.169 19.78-20.946 30.58c-3.14 5.006-6.008 9.748-8.476 14.02a47.4 47.4 0 0 0 22.377 5.617 47.38 47.38 0 0 0 39.146-20.692q.048-.262.139-.515c.36-1.006 1.286-2.09 2.004-5.428s1.228-8.928 1.185-13.524-.637-8.195-1.335-11.584c-.7-3.388-1.503-6.563-3.26-9.062-1.758-2.499-4.47-4.32-7.35-4.893q-1.078-.215-2.197-.191" transform="translate(-407.06 287.501)scale(4.39974)"/><path fill="url(#bH)" d="M368.11 380.924a573 573 0 0 0-6.17 9.619c-6.777 10.8-12.284 20.372-15.249 26.64-2.964 6.27-3.387 9.235-2.498 12.327.89 3.092 3.092 6.31 8.344 6.988s13.553-1.186 22.617-4.744c4.212-1.653 8.588-3.671 12.725-5.797a42 42 0 0 0 .924-8.773 42.11 42.11 0 0 0-20.694-36.26" style="mix-blend-mode:multiply" transform="translate(-407.06 287.501)scale(4.39974)"/><path fill="#dcf1f8" d="M999.392 2026.864c2.565-4.312 5.865-9.077 7.7-13.476 1.83-4.4 2.2-8.43 2.564-12.465-3.115 0-6.234 0-8.8 2.658s-4.584 7.976-7.61 11.549-7.054 5.412-11.823 12.742c-4.765 7.334-10.264 20.164-13.2 31.81-2.93 11.637-3.299 22.086-.637 35.65 2.657 13.57 8.337 30.25 13.93 43.726 5.592 13.472 11.091 23.74 17.418 34.832 6.323 11.088 13.472 23.006 24.837 33.729 11.369 10.726 26.948 20.256 27.683 18.426s-13.384-15.034-23.926-26.491-17.507-21.176-22.637-30.71c-5.134-9.53-8.434-18.88-10.911-24.837s-4.123-8.526-4.95-17.326-.822-23.829 0-39.505c.827-15.672 2.477-31.986 4.22-42.07s3.572-13.935 6.142-18.242"/><path fill="url(#bI)" d="M666.469 317.89c.472 1.587 1.003 3.1 1.636 4.465-.624-1.341-1.146-2.879-1.636-4.464m2.676 6.381c1.673 2.574 4.524 5.21 6.478 5.43q.423-1.147.822-2.316c-2.833.413-5.427-.316-7.3-3.114" transform="translate(-407.06 287.501)scale(4.39974)"/><path fill="url(#bJ)" d="M678.066 260.027a3 3 0 0 0-.336.006 5 5 0 0 0-.449.057 5 5 0 0 0-.648.156c.702-.06 1.388.081 2.803.776q-.09-.371-.184-.743c-.475-.168-.844-.24-1.186-.252" transform="translate(-407.06 287.501)scale(4.39974)"/><path fill="url(#bK)" d="M682.459 262.673c4.157 2.395 11.334 7.368 17.261 12.28 25.519 20.535 5.124 36.633-15.288 49.159-5.892 3.533-12.6 5.82-16.016-1.111-7.2-14.458-6.058-46.247 2.912-58.795 2.112-2.954 3.64-3.698 4.905-3.909 1.264-.21 2.069-.019 6.226 2.376" transform="translate(-407.06 287.501)scale(4.39974)"/><path fill="url(#bL)" d="M676.693 260.24q-.225.016-.46.057c-1.265.21-2.793.954-4.905 3.908-3.748 5.244-6.13 13.85-7.107 23.145a53.65 53.65 0 0 0 37.97 15.75 54 54 0 0 0 7.055-.467c4.524-8.182 3.285-17.371-9.525-27.68-5.927-4.912-13.105-9.885-17.262-12.28-3.638-2.094-4.708-2.505-5.766-2.433" transform="translate(-407.06 287.501)scale(4.39974)"/><path fill="url(#bM)" d="M681.316 262.023a59.66 59.66 0 0 0-6.845 27.748 59.66 59.66 0 0 0 10.601 33.948c20.194-12.47 39.901-28.445 14.649-48.766-5.927-4.912-13.105-9.884-17.262-12.28q-.618-.356-1.143-.65" style="mix-blend-mode:overlay" transform="translate(-407.06 287.501)scale(4.39974)"/><path fill="url(#bN)" d="M686.326 287.404a30.9 30.9 0 0 0-22.613 9.85c.012 9.856 1.565 19.446 4.703 25.746 3.415 6.931 10.124 4.644 16.016 1.111 11.515-7.066 23.024-15.268 26.289-24.763a30.89 30.89 0 0 0-24.395-11.944" style="mix-blend-mode:overlay" transform="translate(-407.06 287.501)scale(4.39974)"/><path fill="url(#bO)" d="M687.197 265.65a40.65 40.65 0 0 0-4.668 18.914 40.65 40.65 0 0 0 14.455 31.084c14.448-11.093 22.841-24.517 2.737-40.695-4.044-3.351-8.672-6.732-12.524-9.303" transform="translate(-407.06 287.501)scale(4.39974)"/><path fill="url(#bP)" d="M674.79 260.79c-.967.513-2.092 1.499-3.462 3.415-8.97 12.548-10.113 44.337-2.912 58.795 3.415 6.931 10.124 4.644 16.016 1.111 4.117-2.526 8.233-5.197 11.972-8.021a54.7 54.7 0 0 0 1.102-10.918 54.72 54.72 0 0 0-22.717-44.383" transform="translate(-407.06 287.501)scale(4.39974)"/><path fill="url(#bQ)" d="M692.96 269.695a60 60 0 0 0-1.077 11.317 59.9 59.9 0 0 0 8.945 31.49c11.915-10.46 17.133-22.87-1.107-37.549a149 149 0 0 0-6.76-5.258" style="mix-blend-mode:overlay" transform="translate(-407.06 287.501)scale(4.39974)"/><g fill="url(#bR)" transform="translate(-407.06 -3993.356)scale(4.39974)"><path fill="url(#bS)" d="M584.396 1352.167c.812.291 1.646 1 2.083 1.937s.48 2.104-.125 2.917c-.604.812-1.854 1.27-3 1.208s-2.187-.646-2.396-1.75c-.208-1.104.417-2.729 1.125-3.604.709-.875 1.5-1 2.313-.708"/><ellipse cx="603.449" cy="1350.044" fill="url(#bT)" rx="2.232" ry="2.077"/><path fill="url(#bU)" d="M577.367 1383.278c1.488-1.356 3.344-3.506 4.818-5.289s2.563-3.197 3.447-3.8c.884-.605 1.561-.398 1.841.382.28.781.162 2.136-.22 3.58a16.6 16.6 0 0 1-1.916 4.405c-.884 1.429-2.003 2.755-3.373 3.33-1.37.574-2.99.397-4.272.559s-2.225.663-2.947 1.164-1.222 1.001-1.046 1.222c.177.221 1.031.162 1.547.25.516.089.692.325-.22.516-.914.192-2.918.34-3.33-.309-.413-.648.766-2.092 1.915-3.094s2.269-1.561 3.756-2.916"/><path fill="url(#bV)" d="M537.063 1406.063a61 61 0 0 1 3.791-2.709c1.563-1.02 3.354-2.062 4.063-2.02s.333 1.166-.584 2.52c-.916 1.354-2.375 2.938-3.979 3.583-1.604.646-3.354.355-4 .022-.646-.334-.187-.709.709-1.396"/><path fill="url(#bW)" d="M591.292 1398.375c.541-1.042 2.125-2.583 4.916-4.896s6.792-5.396 8.23-6.25c1.437-.854.312.521-1.605 2.98-1.916 2.458-4.625 6-6.604 7.895-1.979 1.896-3.229 2.146-4.104 2s-1.375-.687-.833-1.729"/><path fill="url(#bX)" d="M630.621 1402.753c.53-.354.678-1.12 1.488-2.048s2.284-2.018 2.77-2.902-.015-1.562-1.046-1.282-2.593 1.517-3.61 2.755-1.487 2.475-1.266 3.123c.22.648 1.134.707 1.664.354"/><path fill="url(#bY)" d="M640.491 1393.177c.413-.236 1.032-.913 1.43-1.429.397-.515.574-.869 2.062-2.622s4.287-4.906 5.76-6.997 1.62-3.123.766-3.153-2.71.943-5.318 3.153-5.966 5.656-7.646 8.146-1.68 4.022-1.326 4.537c.354.516 1.061.015 1.694-.456.634-.472 1.194-.914 1.577-1.031.383-.118.589.088 1.001-.148"/><path fill="url(#bZ)" d="M661.764 1363.037c2.504-2.858 5.45-6.335 6.246-6.924.795-.59-.56 1.709-2.74 4.92-2.18 3.212-5.186 7.337-8.633 10.224s-7.336 4.537-10.076 5.185-4.331.295-4.184-.176c.147-.472 2.033-1.061 4.449-2.063s5.362-2.416 7.866-4.243c2.505-1.826 4.567-4.065 7.072-6.923"/><path fill="url(#ca)" d="M639.225 1365.217c1.767-.678 4.419-1.385 6.953-2.21s4.95-1.768 7.307-2.71c2.357-.943 4.655-1.886 5.48-1.65s.176 1.65-1.267 3.418c-1.444 1.767-3.683 3.889-5.628 5.155-1.944 1.267-3.594 1.68-6.275 1.533s-6.394-.855-7.808-1.533-.53-1.325 1.238-2.003"/><path fill="url(#cb)" d="M667.042 1388.833c1.708-1.166 2.208.75 1.458 3.417s-2.75 6.083-5.625 10.417-6.625 9.583-9.583 13.5-5.125 6.5-6.209 6.916-1.083-1.333 1.167-5.791 6.75-11.625 10.458-17.334 6.625-9.958 8.334-11.125"/><path fill="url(#cc)" d="M684.568 1365.07c.147 0-2.092 3.005-4.39 6.894s-4.655 8.662-6.128 9.9c-1.474 1.237-2.063-1.061-1.032-3.448s3.683-4.861 6.276-7.601 5.126-5.745 5.274-5.745"/><path fill="url(#cd)" d="M688.854 1366.854c-.646 1.354-1.437 2.938-2.5 4.48-1.062 1.541-2.396 3.041-2.125 3.27s2.146-.812 3.583-2.396 2.438-3.708 2.813-5.291.125-2.625-.25-2.584c-.375.042-.875 1.167-1.52 2.521"/><path fill="url(#ce)" d="M725.146 1263.53c-.419.045-.665 2.549-1.062 5.886-.417 3.5-1 7.917-2.709 12.209-1.708 4.292-4.542 8.458-7.75 12.25s-6.792 7.209-9.459 12.334-4.417 11.957-6.375 17.707-4.124 10.417-5.957 14.875-3.335 8.708-4.793 12.125-2.875 6-3.375 7.25-.082 1.167 1.418-1.041 4.083-6.542 6.541-10 4.791-6.042 6.291-8.584 2.167-5.042 3.209-6.125 2.459-.749 4.709-1.707 5.333-3.208 7.875-7.375 4.542-10.25 6.125-16.25 2.75-11.917 3.875-18.125 2.208-12.709 2.416-17.459-.458-7.75-.916-7.959a.1.1 0 0 0-.053-.012zm-9.595 43.853h.21c.082 0 .162.013.243.027.648.118 1.267.561 1.105 1.12-.162.56-1.105 1.238-1.754 1.12-.648-.118-1-1.032-.837-1.592.124-.428.549-.648 1.033-.676zm-5.192 5.767c.171-.01.322.026.416.11.25.22.103.78-.207 1.369-.309.59-.78 1.208-.898 2.254s.118 2.52-.633 3.978-2.49 2.901-3.904 3.623-2.504.722-2.887.162-.059-1.679.707-3.314 1.973-3.785 2.842-4.846c.87-1.06 1.4-1.033 1.857-1.033s.84-.028 1.09-.396c.25-.369.37-1.076.752-1.489.24-.257.58-.4.865-.418"/><path fill="url(#cf)" d="M700.354 1260.646c.938.02 1.73.687 2.188 1.458s.583 1.646.187 2.313c-.396.666-1.312 1.125-2.312.666s-2.084-1.833-2.084-2.833 1.084-1.625 2.021-1.604"/></g><path fill="#f5f9fa" d="M1004.465 2329.153c4.02-.255 21.132 5.707 35.65 9.209 14.52 3.498 26.443 4.531 34.609 6.221s12.574 4.017 33.315 6.221 57.812 4.277 86.719 4.017 49.65-2.85 79.204-8.425c29.557-5.575 67.927-14.128 92.038-20.094 24.11-5.962 33.966-9.327 28.647-6.349s-25.796 12.315-58.851 21.128c-33.055 8.817-78.685 17.115-110.83 22.425s-50.817 7.651-69.093 7.128c-18.281-.515-36.166-3.885-50.166-6.996s-24.11-5.966-37.983-9.464c-13.872-3.502-31.502-7.646-44.85-12.961s-22.426-11.796-18.41-12.055m156.592 103.961c-.647-2.077 7.391-6.74 12.706-9.204s7.907-2.724 8.553-.647c.647 2.072-.646 6.48-5.961 8.945s-14.652 2.978-15.298.906m-126.906-18.017c-8.813 2.72-17.63 5.83-27.609 7.774s-21.132 2.724-29.425 1.298c-8.298-1.425-13.74-5.06-22.043-7.391-8.293-2.332-19.438-3.37-22.293-4.928-2.851-1.553 2.595-3.625 10.63-4.923 8.038-1.294 18.667-1.813 36.038-2.592s41.48-1.812 58.983-2.596c17.497-.774 28.387-1.293 30.978-.255 2.596 1.034-3.11 3.63-10.37 6.09-7.26 2.463-16.072 4.795-24.89 7.523m-121.102-400.43c6.23-8.526 9.9-14.025 16.68-19.433 6.784-5.411 16.683-10.726 16.96-7.884.273 2.842-9.076 13.841-17.968 25.94s-17.322 25.3-23.372 37.487c-6.05 12.196-9.719 23.375-12.741 25.852-3.027 2.473-5.412-3.757-5.865-10.264-.462-6.512 1.007-13.292 6.137-22.46 5.135-9.165 13.934-20.715 20.169-29.242m-35.933 4.127c4.4-3.484 8.8-6.414 12.557-10.357s6.877-8.891 8.434-8.064 1.558 7.422-1.012 11.914c-2.565 4.488-7.7 6.873-12.187 9.165s-8.342 4.492-11.734 8.157-6.322 8.8-7.788 9.17c-1.47.364-1.47-4.035.73-8.25 2.2-4.22 6.6-8.25 11-11.735m-49.721-40.156c-6.094 7.26-14.387 17.89-20.481 24.762-6.094 6.868-9.983 9.978-13.221 9.204-3.243-.779-5.834-5.447-9.724-7.004-3.89-1.553-9.072 0-18.536 3.115-9.464 3.11-23.204 7.774-30.85 9.591-7.652 1.813-9.205.779-2.852-5.315s20.608-17.242 34.48-25.927 27.35-14.907 49.516-23.72c22.17-8.817 53.016-20.22 70-25.927s20.093-5.702 23.982-5.702 8.553 0 6.222 1.944-11.664 5.835-22.426 10.239c-10.757 4.408-22.945 9.336-31.89 12.706s-14.646 5.183-19.446 8.034-8.68 6.74-14.774 14m-63.647 87.63c2.072-2.332 4.409-7.78 7.906-13.868 3.503-6.094 8.166-12.834 9.983-17.243 1.813-4.408.775-6.48-2.595-6.868s-9.073.906-13.481 3.498c-4.404 2.596-7.52 6.48-11.277 8.038s-8.166.779-12.702 1.813c-4.536 1.038-9.204 3.89-7.906 5.447 1.293 1.553 8.553 1.812 13.608 4.927 5.06 3.107 7.907 9.073 10.243 12.443s4.144 4.145 6.221 1.813m-56.757-24.287c4.22-.638 11.55-3.938 11.92-6.503.364-2.57-6.235-4.4-10.45-3.757a7.35 7.35 0 0 0-6.42 6.322c-.365 2.565.735 4.585 4.95 3.942m31.471-75.201c22.175-8.104 37.21-12.253 56.137-16.402 18.928-4.145 41.74-8.294 26.354-4.409-15.394 3.885-68.987 15.808-101.647 24.15s-44.393 13.112-57.042 16.411-26.218 5.13-39.233 8.98-25.483 9.72-36.483 14.85c-10.999 5.134-20.529 9.534-30.798 13.933s-21.264 8.8-24.929 12.1 0 5.5 5.13 5.865c5.135.365 11.735-1.1 20.35-5.865s19.248-12.834 29.517-18.15 20.164-7.884 27.864-7.699 13.199 3.115 16.499 5.5 4.4 4.215 8.614 1.285c4.22-2.935 11.55-10.635 29.875-20.512 18.316-9.877 47.622-21.937 69.793-30.037"/><path fill="url(#cg)" d="M242.083 1633.458c.667.709 2.917 1.375 4.667 1.917s3 .958 6.417 2.833 9 5.209 13.833 8.709c4.589 6.06 22.298 14.076 24.917 21.875.416 1.541.5 3.625.625 5.75s.291 4.291-.292 6.625-1.917 4.833-3.708 6.958-4.042 3.875-6.25 5.208-4.375 2.25-6.125 3.25-3.084 2.084-5 2.917c-1.917.833-4.417 1.417-7 2-13.165 2.972-27.62 2.19-28.75 2.125-2.167-.125-3.667-.375-3.417 0 2.524 3.786 12.405 8.645 30.792 1.958 2.291-.833 4.375-2.083 7.416-3.333s7.042-2.5 10.459-3.959c3.416-1.458 6.25-3.125 8.833-5.291s4.917-4.834 6.667-6.75 2.916-3.084 3.25-5.209c.333-2.125-.167-5.208-1.292-8.083s-2.875-5.542-5-8c-3.316-3.836-14.864-14.17-19.208-17.5-3.75-2.875-7.084-4.792-10.25-6.875s-6.167-4.333-8.75-5.958-4.75-2.625-6.625-3.084c-1.875-.458-3.459-.375-4.709.042s-2.166 1.167-1.5 1.875" transform="translate(-407.06 -5097.784)scale(4.39974)"/><path fill="#f3feff" fill-opacity=".67" d="M787.193 2092.976c1.93-.562 4.057 2.622 4.832 6.274.774 3.658.196 7.79-1.74 8.346s-5.219-2.465-5.993-6.118c-.775-3.658.965-7.947 2.901-8.502"/><path fill="#f5f9fa" d="M696.73 2578.302c-1.171-3.111 7.127-9.073 14.518-15.553s13.868-13.481 20.35-16.724 12.96-2.723 21.778-3.502c8.813-.774 19.961-2.851 23.072-1.294 3.11 1.553-1.813 6.74-8.685 12.702-6.868 5.962-15.685 12.707-24.11 17.503s-16.464 7.646-25.796 8.944-19.962 1.034-21.128-2.076m158.021-58.486c-11.184 4.584-18.883 11.914-22.733 19.249s-3.85 14.664-.915 14.484c2.93-.185 8.8-7.885 15.03-11.55 6.234-3.67 12.833-3.3 19.618-3.12s13.749.186 31.528-4.764 46.382-14.85 75.715-24.933 59.397-20.35 81.395-29.699 35.929-17.779 41.613-22.729 3.115-6.419-7.884-2.384-30.429 13.564-63.977 24.013c-33.552 10.45-81.215 21.819-112.378 28.418s-45.832 8.43-57.012 13.015m-135.468 180.728c5.06-1.17 7.907-4.281 11.924-5.966 4.02-1.685 9.208-1.945 15.817-2.724 6.612-.774 14.65-2.067 22.297-2.067s14.907 1.293 17.758 2.978 1.298 3.758-3.89 7.128c-5.182 3.37-14 8.038-20.74 11.276s-11.404 5.06-19.183 5.966-18.668.907-28.26-1.038-17.889-5.834-20.22-8.813c-2.332-2.983 1.293-5.06 6.74-5.706s12.702.132 17.757-1.034m61.588-32.237c1.1.55 6.6-1.65 15.584-2.385 8.98-.73 21.448 0 29.148 1.65s10.63 4.22 39.048-6.6 82.31-35.012 117.323-54.261 51.147-33.548 62.516-43.083 17.964-14.299 22.549-16.679c4.58-2.385 7.15-2.385 9.9-2.935s5.68-1.65 12.279-2.75 16.868-2.2 24.568 1.285c7.7 3.48 12.83 11.55 18.514 10.815s11.915-10.265 17.599-17.964 10.815-13.57 15.764-17.234 9.72-5.135 16.869-8.25 16.68-7.884 17.964-10.449-5.684-2.935-11.184-2.75-9.53.915-14.664 1.465-11.365.92-15.215 2.2-5.32 3.485-10.45 6.05c-5.134 2.57-13.933 5.5-24.567 9.534s-23.099 9.165-32.629 12.834-16.134 5.865-22.368 8.615-12.1 6.05-38.498 17.784-73.326 31.898-113.473 49.127-73.516 31.533-94.23 40.517-28.783 12.65-34.463 16.13c-5.684 3.484-8.984 6.784-7.884 7.334"/><path fill="url(#ch)" d="M489.057 480.459c-.304-.01-.762.11-1.348.332-1.875.708-5.043 2.459-10.293 4.959s-12.583 5.75-19.375 9.5-13.041 8-17.291 11-6.5 4.75-7.709 6.375-1.375 3.126-1 3.584 1.292-.126 2.25-.168 1.958.458 2.625 1 1 1.125 2.125.625 3.042-2.082 4.834-3.332 3.459-2.167 4.334-3.375.958-2.708 1.916-3.625 2.791-1.25 4.291-.709c1.5.542 2.667 1.958 3.459 2.75s1.208.959 1.875.209 1.583-2.418 4.791-5.293 8.709-6.957 13.459-11.082 8.75-8.293 10.459-10.543c1.174-1.547 1.265-2.188.598-2.207m-25.366 18.963q.153 0 .274.047c.427.162.516.752.295 1.209s-.752.78-1.239 1.164c-.486.383-.926.825-1.236 1.355s-.486 1.148-.707.942-.487-1.238-.34-2.092c.148-.854.708-1.53 1.371-2.002.539-.383 1.145-.63 1.582-.623" transform="translate(-407.06 287.501)scale(4.39974)"/><path fill="#f3feff" d="M2742.934 1243.877c-.484 0-.85.497-1.06 1.496-1.039 4.928 1.561 22.553 6.23 43.034s11.404 43.821 14.255 68.187c2.85 24.374 1.817 49.778 3.11 65.85 1.298 16.073 4.928 22.813 7.78 19.962s4.927-15.298 5.706-33.187.264-41.212 1.165-51.714c.911-10.498 3.239-8.166 5.183-1.166 1.945 6.995 3.498 18.659 6.736 29.808 3.243 11.149 8.17 21.783 10.503 50.562s2.08 75.697-1.03 124.57c-3.11 48.867-9.081 99.684-18.932 154-9.856 54.314-23.596 112.127-33.315 146.735-9.723 34.613-15.421 46.021-23.719 64.038s-19.183 42.647-21 58.077c-1.817 15.42 5.443 21.646 13.868 9.46s18.017-42.775 25.013-63.256c7-20.48 11.413-30.855 14.783-41.093s5.702-20.35 7.519-26.702c1.813-6.35 3.115-8.95 5.447-9.596s5.702.65 9.591-2.2 8.294-9.856 15.553-32.8 17.38-61.834 23.596-106.562c6.221-44.719 8.553-95.272 9.46-129.753.91-34.48.387-52.885 1.033-64.68s2.469-16.983 4.933-25.017 5.57-18.932 8.166-21.783c2.591-2.851 4.663 2.332 9.719 12.315 5.055 9.978 13.093 24.757 18.016 33.442 4.928 8.685 6.745 11.285 7.392 6.49s.132-16.983-.774-29.69c-.907-12.702-2.2-25.923-5.962-39.795s-9.987-28.388-20.358-49.128-24.889-47.702-37.983-64.293c-13.093-16.596-24.757-22.822-32.663-26.707-7.907-3.894-12.055-5.442-16.204-14.519s-8.294-25.664-12.702-37.85c-3.511-9.711-7.185-16.619-9.06-16.535m82.663 191.098c.66 0 1.377.343 2.112 1.135 1.975 2.108 4.078 7.238 4.998 11.866s.638 8.756.132 13.156-1.232 9.072-2.697 11.316-3.67 2.068-5.14-1.694c-1.464-3.758-2.19-11.087-2.56-17.502s-.365-11.915.55-15.122c.572-2.006 1.505-3.124 2.605-3.155M1763.05 2433.5c4.54-7.907 9.204-18.017 12.834-23.205 3.63-5.183 6.221-5.442 11.022-8.425s11.79-8.685 15.944-10.89c4.145-2.2 5.443-.906 4.928 4.409-.524 5.315-2.86 14.651-11.673 26.962-8.812 12.319-24.11 27.612-36.033 39.017s-20.481 18.927-27.094 21.778-11.277 1.039-10.498-3.498c.775-4.536 6.996-11.795 12.443-16.723s10.11-7.52 14.65-11.668c4.532-4.145 8.941-9.851 13.477-17.757"/><path fill="url(#ci)" d="M581.234 1539.559c-.407.02-1.804.839-4.912 2.61-3.977 2.27-10.755 6.1-16.412 9.37s-10.194 5.982-16.676 9.488-14.907 7.807-19.62 10.93c-4.715 3.123-5.718 5.069-8.075 8.457s-6.069 8.219-8.72 10.988-4.242 3.477-5.42 4.213c-1.18.737-1.945 1.503-1.327 1.768s2.622.03 4.92-.97c2.298-1.003 4.891-2.77 9.37-5.57 4.478-2.798 10.842-6.63 19.415-12.345 8.574-5.716 19.357-13.317 27.164-19.416s12.641-10.695 15.764-13.877 4.537-4.95 4.654-5.48c.026-.116-.01-.172-.125-.166m-18.51 13.273c.216 0 .268.207.057.574-.281.49-1.032 1.26-1.646 1.594-.615.333-1.093.229-1.135.041-.042-.187.354-.457.875-.894.52-.438 1.167-1.043 1.584-1.24a.7.7 0 0 1 .266-.075z" transform="translate(-407.06 -4565.796)scale(4.39974)"/><path fill="#f3feff" fill-opacity=".93" d="M2879.546 1616.53c-.365-14.664-.735-28.963-2.2-42.712s-4.035-26.949-6.6-40.148c5.135 4.77 10.265 9.534 13.565 19.619s4.769 25.478 6.419 46.927 3.48 48.947 6.6 69.48c3.115 20.535 7.514 34.099 4.95 55.182-2.57 21.08-12.1 49.678-19.984 68.012s-14.115 26.398-15.034 20.714 3.484-25.114 6.419-48.398c2.93-23.283 4.4-50.412 5.315-68.376s1.285-26.768 1.285-38.682-.37-26.949-.735-41.613m73.238-60.225c2.107-2.478 5.957-1.558 8.342 2.472 2.38 4.034 3.3 11.184 2.75 15.399s-2.57 5.5-5.135 4.4-5.684-4.58-7.057-9.257c-1.377-4.673-1.012-10.542 1.1-13.015m-84.238-242.076c11.185 15.584 22.364 31.168 34.833 50.417s26.214 42.162 34.37 58.934c8.158 16.776 10.728 27.41 10.358 38.318-.365 10.907-3.665 22.086-6.322 22.64-2.658.55-4.677-9.534-10.27-24.748-5.587-15.219-14.756-35.567-24.748-57.566s-20.806-45.647-27.314-60.584c-6.507-14.946-8.707-21.176-10.907-27.41m-116.686-131.133c6.35 8.685 12.703 17.37 20.156 26.962s16.01 20.093 21.515 27.225c5.513 7.128 7.977 10.885 9.402 16.398s1.813 12.768.906 19.509-3.11 12.961-4.536 12.636-2.072-7.194-3.63-12.768-4.016-9.851-10.044-18.47-15.62-21.586-21.585-31.696-8.298-17.37-9.724-23.526-1.944-11.215-2.463-16.27m-44.359-7.37c2.843-1.377 14.022 5.043 19.887 10.265 5.87 5.227 6.42 9.257 5.042 13.015-1.372 3.761-4.672 7.242-7.787 6.6-3.12-.639-6.05-5.408-10.27-12.373-4.214-6.965-9.714-16.134-6.872-17.51m-29.46 17.422c3.563 1.487 10.691 4.47 14.968 8.294 4.28 3.827 5.706 8.491 6.353 13.872.647 5.377.519 11.47-1.62 14.647s-6.29 3.432-12.055-1.1c-5.768-4.54-13.155-13.873-15.817-19.9-2.657-6.028-.58-8.751.973-11.088a58 58 0 0 0 3.11-5.244c.52-.972.52-.972 4.083.515m3.709 50.419c6.05-.273 11.18 1.372 17.414 3.664s13.565 5.227 18.611 10.085c5.038 4.857 7.788 11.637 7.7 16.13-.097 4.491-3.027 6.691-8.896 6.51-5.865-.188-14.665-2.753-23.464-5.319 7.268 9.029 14.537 18.053 18.756 25.845 4.215 7.787 5.38 14.347 7.977 21.382s6.63 14.555 9.38 27.846 4.22 32.356 3.027 37.213-5.042-4.488-8.342-15.949-6.05-25.026-8.342-34.375-4.122-14.48-8.615-20.349c-4.492-5.865-11.641-12.464-15.676-17.78-4.03-5.318-4.95-9.349-5.222-13.933s.088-9.715.457-14.85c-5.684-2.75-11.364-5.499-15.487-9.072-4.127-3.576-6.696-7.976-4.496-11.276s9.169-5.5 15.218-5.772m-32.422 104.553c4.41 1.557 10.116 7.523 16.724 16.076s14.132 19.702 20.221 33.056c6.094 13.348 10.762 28.906 12.055 40.314s-.774 18.664-3.37 26.575c-2.591 7.906-5.702 16.46-7.26 16.719-1.552.264-1.552-7.779-2.2-14.906s-1.944-13.354-3.889-21-4.536-16.72-9.336-25.409c-4.795-8.685-11.791-16.983-14.906-24.63s-2.332-14.646-4.796-21.646-8.166-14-9.46-18.924c-1.297-4.927 1.813-7.778 6.218-6.225M695.348 2220.634c3.484 1.465 7.519 5.412 9.169 9.165s.915 7.334-2.2 9.305c-3.12 1.971-8.615 2.336-12.513.594s-6.186-5.588-6.556-9.028c-.365-3.436 1.193-6.463 3.441-8.478 2.244-2.016 5.178-3.023 8.659-1.558m67.945 124.843c5.376.585 10.176 2.397 12.834 5.187 2.657 2.785 3.172 6.542 1.619 10.885-1.558 4.342-5.187 9.27-8.36 11.28-3.176 2.007-5.9 1.1-9.723-1.038-3.828-2.138-8.751-5.508-11.215-9.983-2.464-4.47-2.464-10.044.52-13.155s8.944-3.762 14.325-3.176m-143.564-60.409c3.665.647 6.235 3.577 8.065 7.7 1.835 4.127 2.935 9.446 2.657 13.753-.272 4.308-1.922 7.607-4.03 8.8s-4.677.273-8.892-.643-10.084-1.834-13.11-4.764c-3.023-2.935-3.204-7.885-2.377-11.92.823-4.03 2.653-7.149 5.953-9.53 3.3-2.384 8.07-4.034 11.734-3.391"/><path fill="#f3feff" d="M2577.75 1639.29c2.798-.554 5.179-.276 6.42 1.967 1.231 2.244 1.328 6.468-.093 9.121-1.421 2.657-4.356 3.757-7.286 3.212-2.935-.555-5.87-2.754-7.242-4.862-1.377-2.107-1.192-4.122.501-5.82 1.699-1.695 4.906-3.067 7.7-3.617m82.266 22.007c2.53 2.209 3.828 7.005 4.664 11.413.845 4.404 1.232 8.426-.19 13.023-1.425 4.607-4.667 9.79-7.325 9.988-2.657.189-4.73-4.607-7-8.237a37 37 0 0 0-6.806-7.972c-2.072-1.879-3.757-3.172-2.592-6.349s5.183-8.232 9.073-10.955 7.65-3.11 10.176-.906m-964.502 401.262c.651-4.083 5.06-7.972 9.79-10.56 4.73-2.595 9.785-3.893 13.674-2.401s6.613 5.768 7.128 9.723c.519 3.95-1.166 7.58-5.703 10.177-4.536 2.591-11.923 4.144-17.176 2.785-5.249-1.364-8.36-5.64-7.713-9.724m-62.48 3.436c-2.073-5.183-6.481-10.63-11.018-12.574s-9.204-.387-12.834 2.983-6.22 8.553-4.795 14.387 6.868 12.32 12.574 14.132c5.702 1.813 11.668-1.038 14.779-4.928s3.37-8.812 1.293-14m-31.796 91.33c1.1-3.484 3.669-6.965 6.969-8.522s7.33-1.192 10.45 1.83c3.114 3.027 5.314 8.712 4.214 13.292-1.1 4.584-5.5 8.064-9.715 8.526s-8.25-2.111-10.449-5.134-2.57-6.512-1.47-9.992m-137.628 37.134c3.762 1.425 6.873 4.277 8.039 8.425s.387 9.592-2.073 13.222c-2.464 3.63-6.613 5.447-9.855 4.927-3.238-.519-5.57-3.37-6.868-8.425s-1.558-12.32.52-15.945c2.071-3.63 6.48-3.63 10.237-2.204"/><path fill="url(#cj)" d="M521.588 403.502c-1.049 2.308-2.365 3.99-3.809 5.086-6.532 4.318-13.598 8.783-21.449 9.959-1.782.254-3.317.352-4.494.486 6.637 6.299 13.599 6.4 19.166 2.752 5.253-3.442 9.264-10.221 10.586-18.283" style="mix-blend-mode:multiply" transform="translate(-407.06 287.501)scale(4.39974)"/><path fill="url(#ck)" fill-opacity=".498" d="M675.605 329.75c-1.395.226-3.193.22-4.459.88-1.395.73-2.146 2.272-3.94 4.518-18.27 22.867 3.476-10.48-24.034 23.766-2.888 3.595-6.775 7.6-11.371 12.256-.022.022-7.836 7.923-17.076 16.166 26.947-8.7 49.88-27.779 60.88-57.586" style="mix-blend-mode:multiply" transform="translate(-407.06 287.501)scale(4.39974)"/></svg>