<svg xmlns="http://www.w3.org/2000/svg" xmlns:xlink="http://www.w3.org/1999/xlink" xml:space="preserve" width="3600" height="3600" viewBox="0 0 952.5 952.5"><defs><linearGradient id="e"><stop offset="0" style="stop-color:#ffd28b;stop-opacity:1"/><stop offset=".5" style="stop-color:#ffbf5c;stop-opacity:1"/><stop offset="1" style="stop-color:#ffb646;stop-opacity:1"/></linearGradient><linearGradient id="d"><stop offset="0" style="stop-color:#ffd89c;stop-opacity:1"/><stop offset=".5" style="stop-color:#ffcb7b;stop-opacity:1"/><stop offset="1" style="stop-color:#ffbf5c;stop-opacity:1"/></linearGradient><linearGradient id="c"><stop offset="0" style="stop-color:#ffe7c1;stop-opacity:1"/><stop offset=".5" style="stop-color:#ffd89b;stop-opacity:1"/><stop offset="1" style="stop-color:#ffc872;stop-opacity:1"/></linearGradient><linearGradient id="b"><stop offset="0" style="stop-color:#df8f4e;stop-opacity:1"/><stop offset=".5" style="stop-color:#d87728;stop-opacity:1"/><stop offset="1" style="stop-color:#c16a23;stop-opacity:1"/></linearGradient><linearGradient id="a"><stop offset="0" style="stop-color:#f9d597;stop-opacity:1"/><stop offset=".5" style="stop-color:#f7c46d;stop-opacity:1"/><stop offset="1" style="stop-color:#f6bb57;stop-opacity:1"/></linearGradient><linearGradient xlink:href="#a" id="m" x1="270.185" x2="267.475" y1="48.573" y2="54.986" gradientTransform="translate(-3151.869 -447.921)scale(13.4509)" gradientUnits="userSpaceOnUse"/><linearGradient xlink:href="#b" id="l" x1="283.308" x2="255.369" y1="48.573" y2="56.052" gradientTransform="translate(-3151.869 -447.921)scale(13.4509)" gradientUnits="userSpaceOnUse"/><linearGradient xlink:href="#c" id="k" x1="322.932" x2="273.593" y1="40.209" y2="57.145" gradientTransform="translate(-3542.75 -254.335)scale(13.4509)" gradientUnits="userSpaceOnUse"/><linearGradient xlink:href="#c" id="j" x1="322.932" x2="273.593" y1="40.209" y2="57.145" gradientUnits="userSpaceOnUse"/><linearGradient xlink:href="#d" id="i" x1="281.441" x2="281.441" y1="73.669" y2="79.303" gradientUnits="userSpaceOnUse"/><linearGradient xlink:href="#e" id="h" x1="279.096" x2="279.096" y1="74.885" y2="78.307" gradientUnits="userSpaceOnUse"/><linearGradient xlink:href="#e" id="f" x1="279.096" x2="279.096" y1="74.885" y2="78.307" gradientUnits="userSpaceOnUse"/><linearGradient xlink:href="#d" id="g" x1="281.441" x2="281.441" y1="73.669" y2="79.303" gradientUnits="userSpaceOnUse"/></defs><g transform="translate(-4323.637 -556.074)scale(16.6001)"><ellipse cx="279.096" cy="75.011" rx="2.539" ry="4.108" style="opacity:1;fill:url(#f);stroke-width:.683337;stroke-linecap:round;stroke-linejoin:round"/><ellipse cx="281.441" cy="75.883" rx="2.539" ry="4.108" style="opacity:1;fill:url(#g);stroke-width:.683337;stroke-linecap:round;stroke-linejoin:round"/></g><g transform="matrix(-16.6001 0 0 16.6001 5276.137 -556.074)"><ellipse cx="279.096" cy="75.011" rx="2.539" ry="4.108" style="opacity:1;fill:url(#h);stroke-width:.683337;stroke-linecap:round;stroke-linejoin:round"/><ellipse cx="281.441" cy="75.883" rx="2.539" ry="4.108" style="opacity:1;fill:url(#i);stroke-width:.683337;stroke-linecap:round;stroke-linejoin:round"/></g><path d="M294.167 34.299c-3.614.173-13.663.876-17.573 3.38-1.517.973-2.263 2.227-2.644 4.08-.37 1.798-.804 7.741.7 10.303.607 1.036 1.569 1.854 3.277 2.608 7.474 3.3 34.254 3.3 41.727 0 1.709-.754 2.67-1.572 3.278-2.608 1.503-2.562 1.069-8.505.699-10.302-.382-1.854-1.128-3.108-2.645-4.08-3.91-2.505-13.958-3.208-17.572-3.381a91 91 0 0 0-9.247 0" style="display:inline;fill:url(#j);fill-opacity:1;stroke-width:.529167;stroke-linecap:round;stroke-linejoin:round" transform="translate(-4256.571 -194.609)scale(15.83994)"/><path d="M294.167 34.299c-3.614.172-13.663.876-17.572 3.38-1.403.9-2.146 2.039-2.552 3.67.153.59.352 1.121.606 1.555.608 1.036 1.57 1.853 3.278 2.607 7.474 3.3 34.254 3.3 41.727 0 1.709-.754 2.67-1.571 3.278-2.607.254-.434.453-.964.606-1.554-.406-1.632-1.15-2.771-2.552-3.67-3.91-2.505-13.958-3.209-17.572-3.381a91 91 0 0 0-9.247 0" style="display:inline;fill:#e98c50;fill-opacity:1;stroke-width:.529167;stroke-linecap:round;stroke-linejoin:round" transform="translate(-4256.571 -194.609)scale(15.83994)"/><path d="M414.055 207.013c-48.608 2.325-183.77 11.785-236.36 45.48-20.41 13.077-30.442 29.946-35.575 54.878-4.977 24.172-10.808 104.114 9.412 138.58 8.173 13.933 21.106 24.932 44.083 35.075 100.536 44.386 460.745 44.383 561.275 0 22.976-10.143 35.909-21.142 44.082-35.074 20.22-34.467 14.382-114.409 9.405-138.581-5.133-24.932-15.165-41.8-35.575-54.878-52.59-33.695-187.752-43.155-236.36-45.48-42.669-2.041-78.8-2.18-124.387 0" style="display:inline;fill:url(#k);fill-opacity:1;stroke-width:7.11777;stroke-linecap:round;stroke-linejoin:round" transform="translate(-84.588 -61.192)scale(1.17761)"/><path d="M414.058 207.013c-48.608 2.325-183.77 11.785-236.36 45.48-13.062 8.37-21.876 18.295-27.873 30.89a57 57 0 0 0 1.71 3.135c8.173 13.933 21.107 24.93 44.083 35.075 27.35 12.074 73.918 20.867 129.246 26.372a6 6 0 0 1-.529-.445c-6.154-5.803 17.735-33.558 36.319-42.192 16.606-7.716 27.398-7.096 43.012 2.446 17.485 10.686 38.073 40.976 31.3 46.043a5.4 5.4 0 0 1-.93.563c27.981.666 56.444.666 84.426 0a5.5 5.5 0 0 1-.932-.563c-6.773-5.067 13.815-35.357 31.3-46.043 15.613-9.542 26.406-10.162 43.012-2.446 18.584 8.634 42.473 36.39 36.319 42.192q-.256.242-.522.438c55.33-5.505 101.903-14.29 129.253-26.365 22.976-10.144 35.909-21.142 44.083-35.075a57 57 0 0 0 1.703-3.128c-5.998-12.599-14.809-22.526-27.874-30.897-52.59-33.695-187.752-43.154-236.36-45.48-42.669-2.04-78.8-2.18-124.387 0z" style="display:inline;fill:#ec9e6b;stroke-width:7.11777;stroke-linecap:round;stroke-linejoin:round" transform="translate(-84.588 -61.192)scale(1.17761)"/><path d="M414.056 207.01c-29.872 1.43-92.433 5.555-148.43 16.342.534 5.077 1.355 10.295.654 14.702-1.472 9.246-9.694 14.905-16.419 22.68s-11.949 17.655-8.271 26.796 16.273 17.551 41.49 18.497 63.031-5.567 91.19-8.404c28.157-2.837 46.647 7.132 69.342 10.705 11.245 1.814 21.948 3.57 32.642 3.996 10.694-.426 21.389-2.182 32.634-3.996 22.695-3.573 41.192-13.542 69.35-10.705s65.973 9.35 91.19 8.404 37.812-9.356 41.49-18.497c3.677-9.14-1.555-19.02-8.28-26.795s-14.938-13.435-16.41-22.681c-.702-4.407.12-9.625.653-14.702-55.999-10.788-118.563-14.912-148.437-16.341-42.67-2.041-78.8-2.181-124.387 0z" style="display:inline;fill:url(#l);fill-opacity:1;stroke-width:7.11777;stroke-linecap:round;stroke-linejoin:round" transform="translate(-84.588 -61.192)scale(1.17761)"/><path d="m401.397 288.391 89.018 6.603c12.928.96 32.624-3.318 43.93-9.662 16.7-9.37 31.673-18.136 40.586-24.777 12.466-9.288 13.077-14.421 12.955-19.798-.054-2.276-.234-4.596-.494-6.94-.592-5.366-5.702-10.047-11.083-10.498L468.9 214.32c-7.727-.481-17.462.853-27.845 3.407s-21.414 6.33-31.736 10.73c-20.644 8.8-38.45 20.1-42.547 29.135-.641 1.415-1.164 2.785-1.528 4.094-1.436 5.163-.397 9.38 2.536 13.413 5.59 7.686 22.003 12.43 33.618 13.292z" style="fill:url(#m);fill-opacity:1;stroke-width:7.11777;stroke-linecap:round;stroke-linejoin:round" transform="translate(-84.588 -61.192)scale(1.17761)"/><path d="M290.712 63.657c-.254.087-.559.09-.897-.065-.191-.087-.29-.087-.481 0-.339.155-.644.152-.898.065a1.18 1.18 0 0 0 1.138.88 1.18 1.18 0 0 0 1.138-.88" style="opacity:1;fill:#f7c36a;stroke-width:.547092;stroke-linecap:round;stroke-linejoin:round" transform="translate(-4110.587 -502.318)scale(15.83994)"/><path d="M288.787 59.841a1.03 1.03 0 0 0-.685.253.794.794 0 0 0 0 1.219l.103.091.123.11a1.808 1.69 0 0 0 2.492 0l.124-.11.103-.091a.794.794 0 0 0 0-1.219 1.05 1.05 0 0 0-1.37 0l-.103.092-.102-.092a1.03 1.03 0 0 0-.685-.253" style="fill:#e98c50;fill-opacity:1;fill-rule:evenodd;stroke:none;stroke-width:.00528861;stroke-linecap:round;stroke-miterlimit:7;paint-order:stroke markers fill" transform="translate(-4110.587 -502.318)scale(15.83994)"/><path d="M289.574 61.265c-.673 0 .285 1.703-.946 1.508 0 0-.012-.002-.083-.026a.6.6 0 0 1-.237-.195c-.102-.14-.232-.207-.35-.207-.173-.001-.32.136-.32.38 0 .422.702 1.321 1.696.867.19-.087.29-.087.48 0 .994.454 1.696-.445 1.696-.867 0-.244-.147-.381-.32-.38-.117 0-.247.066-.35.207a.6.6 0 0 1-.236.195l-.084.026c-1.23.195-.272-1.508-.946-1.508" style="display:inline;fill:#e98c50;fill-opacity:1;stroke-width:.0225659" transform="translate(-4110.587 -502.318)scale(15.83994)"/><path d="M292.678-20.8c-1.082 24.433-39.329 29.646-39.99-.129-.82-37.078 41.376-31.2 39.99.128" style="fill:#e98c50;fill-opacity:1;stroke-width:.264583" transform="matrix(-1.54083 0 0 1.54083 774.843 462.81)"/><path d="M281.318-16.343c-2.051-.497-4.54.873-4.578 3.787-.022 1.743.507 2.387 2.367 2.88 3.307.876 5.32-.668 4.806-3.686-.291-1.713-1.365-2.683-2.595-2.981m-9.665-24.836c-4.804-1.236-10.2 1.626-12.68 7.576-2.128 5.1-.451 11.263 3.69 13.563 2.083 1.156 5.462 1.353 8.158.473 7.266-2.368 10.453-13.758 5.31-18.974-1.34-1.36-2.876-2.226-4.478-2.638" style="fill:#fff;stroke-width:.264583" transform="matrix(-1.54083 0 0 1.54083 774.843 462.81)"/><path d="M592.064 387.78c-24.496-4.638-50.358 25.071-47.57 38.195 1.061 4.992 4.589 2.918 10.107-5.942 11.87-19.06 27.983-25.867 41.991-17.735 14.595 8.475 13.074 27.002 18.981 27.582 7.228.71 2.01-23.244-7.138-32.777-5.139-5.354-10.718-8.253-16.371-9.324" style="fill:#e98c50;fill-opacity:1;stroke-width:1.18561" transform="translate(-84.588 -61.192)scale(1.17761)"/><path d="M360.656 305.33c-18.584 8.633-42.474 36.389-36.32 42.191 10.067 9.493 30.571-34.84 57.42-33.834 26.79 2.046 42.135 48.417 53.213 40.128 6.772-5.067-13.816-35.353-31.3-46.039-15.614-9.543-26.406-10.162-43.013-2.447m231.188.001c18.584 8.633 42.474 36.389 36.32 42.191-10.067 9.493-30.57-34.84-57.42-33.834-26.79 2.046-42.134 48.417-53.213 40.128-6.772-5.067 13.816-35.353 31.3-46.039 15.615-9.543 26.407-10.162 43.013-2.447" style="fill:#e98c50;fill-opacity:1;stroke-width:14.3513" transform="translate(-84.588 -61.192)scale(1.17761)"/></svg>