<svg xmlns="http://www.w3.org/2000/svg" xmlns:xlink="http://www.w3.org/1999/xlink" xml:space="preserve" width="3600" height="4600"><defs><radialGradient xlink:href="#a" id="c" cx="380.205" cy="262.635" r="72.84" fx="380.205" fy="262.635" gradientTransform="matrix(5.84067 0 0 5.9691 -414.648 360.39)" gradientUnits="userSpaceOnUse"/><radialGradient xlink:href="#a" id="b" cx="380.205" cy="262.635" r="72.84" fx="380.205" fy="262.635" gradientTransform="matrix(13.79546 0 0 14.09879 -3439.087 -1774.75)" gradientUnits="userSpaceOnUse"/><linearGradient id="a"><stop offset="0" style="stop-color:#fec15c;stop-opacity:1"/><stop offset="1" style="stop-color:#fec15c;stop-opacity:0"/></linearGradient></defs><g transform="translate(-1143.091 -961.113)scale(1.62962)"><path d="M1804.68 901.128c-221.266.289-436.276 73.644-611.633 208.58-439.425 338.104-521.78 970.127-183.676 1409.551l.097.116.087.134c58.106 74.625 128.101 138.546 204.536 193.995l-11.186 32.711 64.075 5.333c146.516 94.004 314.606 148.529 488.5 157.876l121.218 45.61 18.704-49.798c190-17.039 371.932-85.638 523.551-202.292 439.424-338.115 521.77-970.128 183.675-1409.562a1005.2 1005.2 0 0 0-797.927-392.225Z" style="baseline-shift:baseline;display:inline;overflow:visible;vector-effect:none;fill:url(#b);fill-rule:evenodd;stroke-width:13.7955;stop-color:#000"/><path d="M2195.216 2089.694c24.495 33.143 48.99 66.287 73.729 99.185 24.74 32.903 49.715 65.566 59.562 98.228s4.565 65.325 8.163 93.903c3.603 28.579 16.091 53.073 25.75 67.33 9.66 14.257 16.49 18.26 28.224 35.89 11.738 17.632 28.38 48.876 43.936 82.174 15.56 33.298 30.034 68.65 25.742 104.337s-27.348 71.711-62.17 93.088c-128.901 79.117-204.464 87.709-323.257 75.168 16.017-32.271 8.273-314.866 7.075-387.877-1.202-73.008-42.685-200.645-104.337-323.958l164.51-80.454c32.899-16.095 53.073 42.986 53.073 42.986m-804.764 0c-24.495 33.143-48.994 66.287-73.729 99.185-24.74 32.903-49.715 65.566-59.562 98.228s-4.564 65.325-8.167 93.903-16.091 53.073-25.75 67.33c-9.66 14.257-16.486 18.26-28.224 35.89-11.738 17.632-28.38 48.876-43.936 82.174s-30.03 68.65-25.738 104.337 27.348 71.711 62.17 93.088c128.901 79.117 204.46 87.709 323.254 75.168-16.018-32.271-8.274-314.866-7.072-387.877 1.203-73.008 42.68-200.645 104.337-323.958l-164.51-80.454c-32.903-16.095-53.073 42.986-53.073 42.986" style="fill:#8265d5;fill-opacity:1;fill-rule:evenodd;stroke:none;stroke-width:28.5297;stroke-miterlimit:7;stroke-dasharray:none;stroke-opacity:1;paint-order:stroke markers fill"/><path d="M1998.219 1626.43c2.046 5.607 4.096 11.216 12.504 19.962s23.187 20.635 36.094 34.309 23.945 29.12 30.482 51.965c5.991 20.928 13.776 77.943 3.99 94.502-35.935-93.08-20.032-139.184-123-165.541-11.802-3.395-15.47-8.844-10.47-15.65 5.001-6.799 18.671-14.95 28.518-18.435s15.862-2.294 21.886-1.113" style="fill:#8265d5;fill-opacity:1;fill-rule:evenodd;stroke:none;stroke-width:4.07566;stroke-miterlimit:7;stroke-dasharray:none;stroke-opacity:1;paint-order:stroke markers fill"/><path d="M2032.39 2086.645c20.353 60.768 48.936 325.69 49.576 364.475 1.202 73.007 8.946 355.61-7.067 387.88 50.721 5.356 93.56 6.856 136.041.661-82.76-198.607 19.221-456.487 10.218-579.001-4.361-59.374-165.431-154.509-188.769-174.015" style="fill:#9e87de;fill-opacity:1;fill-rule:evenodd;stroke:none;stroke-width:28.5297;stroke-miterlimit:7;stroke-dasharray:none;stroke-opacity:1;paint-order:stroke markers fill"/><path d="M1929.039 1662.882c12.129-7.805 43.956-7.104 68.214-22.718 31.289 39.926 69.498 76.126 87.073 131.962 9.728 23.896 21.735 50.795 39.265 83.576 17.529 32.78 40.59 71.446 53.236 98.496 18.084 38.678 31.851 117.722-23.977 141.116-4.076 2.462-24.792 1.21-24.792 1.21 18.605 23.045 18.617 56.4 25.64 84.718-21.907 24.963-43.814 49.926-64.445 67.586-37.891 28.583-131.913 82.267-174.491-2.376 6.765-34.464 13.535-68.932 22.444-131.554 8.906-62.627 19.955-153.408 30.283-206 10.327-52.597 19.93-67.005 36.412-65.346 8.24.828-56.57-115.292-74.862-180.67m-295.975 13.148c-12.125-7.805-44.066-21.527-68.32-37.137-42.008 32.58-63.899 77.397-81.473 133.233-9.724 23.896-21.735 50.795-39.265 83.576s-40.585 71.446-53.232 98.496c-18.088 38.678-31.855 117.722 23.973 141.116 4.076 2.462 24.796 1.21 24.796 1.21-4.039 27.825-12.145 58.527-25.644 84.718 21.907 24.963 43.814 49.926 64.449 67.586 37.887 28.583 131.909 82.267 174.487-2.376-6.766-34.464-13.535-68.932-22.445-131.554-8.905-62.627-19.954-153.408-30.282-206-10.323-52.597-19.93-67.005-36.412-65.346-8.24.828 51.076-102.144 69.368-167.522" style="fill:#612830;fill-opacity:1;fill-rule:evenodd;stroke:none;stroke-width:28.5297;stroke-miterlimit:7;stroke-dasharray:none;stroke-opacity:1;paint-order:stroke markers fill"/><path d="M1530.137 1614.044c-13.058 15.295-26.117 30.587-34.81 49.164-8.693 18.573-13.014 40.43-17.097 58.498-16.279 72.05-36.918 80.25-34.224 133.996 24.38-28.012 37.61-60.728 49.234-95.448 6.004-18.072 11.408-35.605 19.51-52.116 8.11-16.51 18.911-32.002 31.358-46.108 12.443-14.101 26.525-26.826 40.602-39.55z" style="fill:#8265d5;fill-opacity:1;fill-rule:evenodd;stroke:none;stroke-width:4.07566;stroke-miterlimit:7;stroke-dasharray:none;stroke-opacity:1;paint-order:stroke markers fill"/><path d="M1909.765 1525.292c30.172 2.23 43.622 6.676 53.29 10.817 9.667 4.14 15.548 7.988 18.613 14.59 3.056 6.603 3.301 15.969 2.038 23.896-1.26 7.923-4.023 14.408-1.561 22.457 2.461 8.041 10.148 17.648 14.052 24.315 3.9 6.664 3.391 9.517-11.807 21.186-90.374 69.38-323.477 95.126-349.215 57.08-40.161-59.363-115.076-66.532-105.034-85.59 3.713-7.046 12.99-16.812 17.322-23.602 4.328-6.794 4.157-10.36 2.461-14.521-1.7-4.158-4.923-8.914-6.708-18.68-1.785-9.764-2.12-24.539 8.66-32.095s32.692-7.899 73.534-7.05c40.842.851 100.616 2.889 153.954 3.916 53.334 1.031 100.229 1.051 130.4 3.28" style="fill:#9781d8;fill-opacity:1;fill-rule:evenodd;stroke:none;stroke-width:4.07566;stroke-miterlimit:7;stroke-dasharray:none;stroke-opacity:1;paint-order:stroke markers fill"/><path d="M1625.41 1518.094c-40.838-.848-62.753-.505-73.533 7.051s-10.446 22.335-8.661 32.096c1.781 9.765 5.013 14.518 6.709 18.679 1.699 4.157 1.87 7.723-2.462 14.517-2.205 3.464-5.706 7.707-9.097 11.966 57.475 25.84 145.913 64.286 237.183 64.286 81.024 0 156.62-35.275 213.504-56.301-2.874-4.443-5.616-9.105-6.908-13.336-2.462-8.045.297-14.53 1.56-22.457 1.26-7.923 1.02-17.289-2.037-23.896-3.065-6.602-8.946-10.45-18.614-14.59-9.667-4.141-23.113-8.588-53.285-10.817-30.172-2.234-77.07-2.254-130.405-3.281-53.338-1.027-113.112-3.07-153.954-3.917" style="fill:#8369d1;fill-opacity:1;fill-rule:evenodd;stroke:none;stroke-width:4.07566;stroke-miterlimit:7;stroke-dasharray:none;stroke-opacity:1;paint-order:stroke markers fill"/><path d="M1915.08 1525.846c-1.859-.338-4.606.611-5.303 1.01-26.7 15.582-45.321 24.284-66.013 30.919l-4.683 1.508a6.07 6.07 0 0 0-4.21 5.787l.015 5.197v.01c.013 3.15.245 8.086.526 11.526.139 1.7.302 3.236.469 4.467.082.611.159 1.12.281 1.695.061.285.114.554.31 1.105.098.277.187.611.628 1.304.22.35.525.815 1.243 1.418.358.302 1.483.921 1.487.925l2.43.51c1.495 0 1.434-.147 1.821-.232s.783-.184 1.223-.302q1.353-.359 3.228-.917c2.486-.734 5.571-1.7 8.469-2.666 20.676-6.887 39.779-17.015 55.09-29.316 4.786-3.843 8.27-6.855 10.842-9.512 2.58-2.662 4.495-4.92 5.29-8.327.811-3.497-.452-6.904-2.286-9.284s-4.267-4.117-7.116-5.445c-1.207-.563-1.883-1.04-3.742-1.378m-287.868 4.084-2.282.265c-4.084.477-13.275 1.019-24.018 1.394-5.95.203-12.138.42-13.796.485a25 25 0 0 0-2.58.236 9 9 0 0 0-1.105.232c-.375.102-.664-.11-1.703.93a3.67 3.67 0 0 0-.958 2.69c.082.81.362 1.296.607 1.69.49.787 1.015 1.285 1.68 1.876 1.328 1.194 3.227 2.584 5.872 4.373 4.113 2.78 6.741 4.369 21.931 13.189 22.734 13.2 47.967 23.26 77.128 30.783 4.21 1.088 6.179 1.614 7.54 1.846.677.119 1.276.616 2.91-.374.82-.494 1.386-1.59 1.492-2.148.106-.559.053-.742.053-.787 0 .326.012-.167.041-.583a677 677 0 0 1 .501-6.847c.314-4.006.526-9.15.465-11.86l-.106-4.459a2.975 2.975 0 0 0-2.005-2.735l-8.645-2.963a402 402 0 0 1-55.84-24.062l-5.462-2.853a3 3 0 0 0-1.72-.318" style="fill:#291838;fill-opacity:1;fill-rule:evenodd;stroke:none;stroke-width:.360241;stroke-miterlimit:7;stroke-dasharray:none;stroke-opacity:1;paint-order:stroke markers fill"/><path d="M2410.53 1286.89c-466.424 220.237-1034.05 125.938-1315.254 36.612 0 0 295.392-158.605 657.017-159.196 362.474-.587 658.237 122.584 658.237 122.584" style="vector-effect:none;fill:#3b1925;fill-opacity:1;fill-rule:evenodd;stroke-width:127.499;stop-color:#000"/><path d="M1613.782 994.424c-43.52 16.4-58.433 91.976-58.433 138.23 0 2.552-9.887 29.109-9.745 31.656h413.379c.142-2.547 16.4-3.028 16.4-5.583 0-46.255-85.357-131.832-121.724-166.487-11.053-10.536-57.956-14.917-108.624-14.196-50.673.717-105.112 16.384-131.253 16.384" style="font-variation-settings:normal;vector-effect:none;fill:#471b2c;fill-opacity:1;fill-rule:evenodd;stroke-width:112.375;stroke-linecap:butt;stroke-linejoin:miter;stroke-miterlimit:4;stroke-dasharray:none;stroke-dashoffset:0;stroke-opacity:1;-inkscape-stroke:none;stop-color:#000"/><path d="M2112.224 862.222s-118.435 5.97-258.56 130.018c-16.968 73.08 93.463 153.143 148.472 189.282 79.483 29.878 102.022-7.748 127.022-58.763 24.829-50.673 13.173-158.666-16.934-260.537" style="display:inline;fill:#582239;fill-opacity:1;stroke-width:.841698"/><path d="M2098.986 903.121c-11.946 11.139-66.18 119.784-74.047 151.468-10.026 40.402-1.047 112.211 5.144 135.223 19.27 3.929 34.32 2.673 46.63-2.421 65.434-96.781 66.147-172.214 22.273-284.27" style="fill:#8f5355;fill-opacity:1;stroke-width:.841698"/><path d="M1360.997 885.404c2.992-2.995 122.453-24.82 252.785 109.024-3.036 76.028-26.41 127.52-52.69 167.567-79.484 29.879-162.265 29.288-162.265 29.288-72.824-83.001-58.445-204.08-37.83-305.879" style="fill:#582239;fill-opacity:1;stroke-width:.841698"/><path d="M1373.668 910.095c-27.914 105.51-23.614 188.177 31.102 281.11 10.21-.252 32.756-1.287 61.143-5.436 8.396-107.55-12.737-186.234-92.245-275.674" style="fill:#8d5055;fill-opacity:1;stroke-width:.841698"/><path d="M1437.102 1254.22c-.453 1.377-18.145 56.635 31.88 126.206.644-24.698 10.348-47.07 18.731-69.89.844 5.047 1.684 10.088.783 18.313-13.001 71.772 14.909 141.833 52.474 201.978 13.27 20.472 45.452 68.267 45.452 68.267s-24.927-112.896-22.009-218.517c2.266-81.892 63.026-111.229 134.783-146.801-5.576 42.537 12.308 79.985 38.123 112.802 9.595 11.889 17.07 18.002 24.54 24.116-.848-11.037-1.7-22.078-1.867-39.82-.17-17.75.339-42.203 1.953-56.806s4.328-19.36 7.046-24.116c.848 9.68 1.7 19.36 3.652 29.467 1.952 10.1 5.01 20.631 10.784 32.687 5.776 12.056 14.265 25.644 22.755 39.228.68-12.736 1.357-25.473 4.247-40.504 2.885-15.027 7.98-32.348 13.84-47.122 5.861-14.775 12.48-27.002 18.85-33.706 6.367-6.713 12.48-7.899 17.065-6.37 122.768 68.797 109.073 159.293 93.402 278.759-2.38 22.497-3.566 39.142-7.389 55.53-3.819 16.385-10.27 32.52-16.726 48.652 19.697-30.739 39.4-61.474 55.021-89.922s27.173-54.593 38.89-86.86 23.602-70.644 30.482-103.249 8.747-59.44 7.577-77.173c-1.174-17.737-5.38-26.377-56.358-35.018-50.979-8.64-148.721-17.289-233.137-15.968-84.419 1.32-155.507 12.61-205.576 19.094-50.078 6.48-79.133 8.164-97.926 12.667s-27.32 11.828-31.342 24.075" style="fill:#472e65;fill-opacity:1;fill-rule:evenodd;stroke-width:81.5133;stroke-miterlimit:7;paint-order:stroke markers fill"/><g style="fill:#9063bb;fill-opacity:1"><path d="M308.328 149.824c-3.618 2.559-18.749 13.943-16.316 23.78.284 1.151 1.731 1.95 2.883 1.666 7.869-1.946 12.758-10.968 16.404-17.612z" style="opacity:1;fill:#9063bb;fill-opacity:1" transform="translate(256.41 857.67)scale(4.07566)"/><path d="M306.269 139.96c-8.266 2.53-17.99 4.92-25.88 8.494-5.905 3.089-12.453 8.089-15.1 14.59-.462 1.137.295 2.114 1.522 2.053 13.575-.676 26.451-7.419 40.46-17.266 1.164-1.866.586-7.28-1.002-7.87" style="fill:#9063bb;fill-opacity:1" transform="rotate(-12.216 5345.244 -159.603)scale(4.07566)"/><path d="M284.51 130.293c-31.227-.076-27.665 8.475-22.296 9.64 13.312 2.891 40.708.307 39.503-.696 0 0 1.13-5.19.27-7.995-5.348-.62-12.413-.938-17.477-.95z" style="opacity:1;fill:#9063bb;fill-opacity:1" transform="rotate(-7.024 8265.826 -1160.5)scale(4.07567)"/></g><g style="fill:#734ca5;fill-opacity:1"><path d="M308.328 149.824c-3.618 2.559-18.749 13.943-16.316 23.78.284 1.151 1.731 1.95 2.883 1.666 7.869-1.946 12.758-10.968 16.404-17.612z" style="opacity:1;fill:#734ca5;fill-opacity:1" transform="matrix(-4.27093 0 0 4.27093 3323.1 813.93)"/><path d="M306.269 139.96c-8.266 2.53-17.99 4.92-25.88 8.494-5.905 3.089-12.453 8.089-15.1 14.59-.462 1.137.295 2.114 1.522 2.053 13.575-.676 26.451-7.419 40.46-17.266 1.164-1.866.586-7.28-1.002-7.87" style="fill:#734ca5;fill-opacity:1" transform="scale(-4.27096 4.27096)rotate(-12.216 798.233 3880.463)"/><path d="M284.51 130.293c-31.227-.076-27.665 8.475-22.296 9.64 13.312 2.891 40.708.307 39.503-.696 0 0 1.13-5.19.27-7.995-5.348-.62-12.413-.938-17.477-.95z" style="opacity:1;fill:#734ca5;fill-opacity:1" transform="scale(-4.27093 4.27093)rotate(-7.024 1445.812 6556.702)"/></g><path d="M1717.487 1541.387c-7.678-.02-14.256.228-20.839.485.966 7.091 1.932 14.183 1.786 23.993-.151 9.806-1.41 22.327-2.678 34.847 73.113 53.359 145.7 1.21 147.36 0-1.264-12.52-2.527-25.04-2.674-34.847-.147-9.806.815-16.902 1.785-23.993-6.582-.253-13.164-.506-20.843-.49a363 363 0 0 0-27.43 1.166c-7.307.567-15.584 1.374-24.518 2.348a803 803 0 0 0-24.515-2.348 363 363 0 0 0-27.43-1.161" style="fill:#b0615f;fill-opacity:1;fill-rule:evenodd;stroke:none;stroke-width:4.07566;stroke-miterlimit:7;stroke-dasharray:none;stroke-opacity:1;paint-order:stroke markers fill"/><path d="m1602.272 1515.84 26.655 14.408c12.537 2.84-21.992 4.153-39.265 4.503-6.244-.057-7.805.42-4.442 3.302 3.362 2.881 11.648 8.167 23.476 14.713 83.917 51.529 237.431 66.556 312.09-8.526 4.38-5.829.179-10.271-6.183-12.431-6.367-2.16-14.893-2.038-23.42-1.92l25.938-18.732c6.725 5.763 13.45 11.526 18.973 16.03s9.846 7.744 11.469 13.148c2.677 8.926-87.774 117.339-186.845 113.899-61.69-6.864-153.767-61.34-194.32-103.616-10.531-10.87-16.05-15.284-16.897-19.742-.848-4.46 2.97-8.959 12.544-11.47 9.574-2.51 24.903-3.04 40.227-3.566" style="fill:#aa76dc;fill-opacity:1;fill-rule:evenodd;stroke:none;stroke-width:4.07566;stroke-miterlimit:7;stroke-dasharray:none;stroke-opacity:1;paint-order:stroke markers fill"/><path d="M1579.343 1503.96c163.442 106.913 266.234 83.315 383.752-6.92 26.223-94.23 52.446-188.46-7.214-241.936-59.655-53.481-205.19-66.21-296.452-52.397-91.262 13.808-128.244 54.153-139.534 104.109s3.122 109.513 16.4 143.667c13.279 34.154 25.428 42.9 43.048 53.473" style="display:inline;fill:#bf7373;fill-opacity:1;fill-rule:evenodd;stroke-width:81.5133;stroke-miterlimit:7;paint-order:stroke markers fill"/><path d="M1735.86 1197.551c-27.408-.09-53.62 1.704-76.435 5.156-91.262 13.813-128.24 54.153-139.526 104.105-7.634 33.783-3.513 71.96 4.06 103.7 150.13-13.836 311.873-30.216 461.61-3.178 11.733-61.005 10.755-115.981-29.688-152.23-44.743-40.109-137.79-57.292-220.02-57.553" style="display:inline;fill:#a35666;fill-opacity:1;fill-rule:evenodd;stroke-width:81.5133;stroke-miterlimit:7;paint-order:stroke markers fill"/><path d="M1771.196 1398.143c-11.09 0-20.166 2.548-20.166 5.665s7.503 5.666 16.67 5.666c9.166 0 18.238-2.548 20.166-5.666 2.083-3.37-4.667-5.665-16.67-5.665" style="fill:#6f2130;fill-opacity:1;stroke-width:5.66668"/><path d="M1733.415 1478.894q-.257 0-.624.33c-.631.55-1.035 2.475-.978 4.66.449 16.644 24.475 17.003 32.557 11.994 3.077-1.724 5.135-4.406 7.059-7.243 2.058 2.743 4.234 5.327 7.389 6.908 8.306 4.626 32.291 3.151 31.965-13.498-.04-2.18-.538-4.084-1.194-4.606-.913-.721-1.21-.248-1.585 2.487-1.366 10.054-24.16 22.774-36.803-1.109-11.518 24.442-34.88 12.798-36.714 2.82-.359-1.956-.624-2.738-1.072-2.743" style="display:inline;fill:#6f2130;fill-opacity:1;stroke:#6f2130;stroke-width:4.07566;stroke-dasharray:none;stroke-opacity:1"/><path d="M1434.045 1247.853s-20.11 70.937 35.658 134.191c.644-24.698 9.627-48.688 18.015-71.507.84 5.046 1.679 10.087.774 18.312-11.506 99.597 44.453 190.729 97.93 270.24 0 0-24.927-112.895-22.009-218.512 2.267-81.892 63.027-111.229 134.783-146.801-5.576 42.537 12.308 79.985 38.124 112.802 9.594 11.889 17.068 18.002 24.539 24.116-.848-11.037-1.7-22.078-1.867-39.82-.17-17.75.339-42.203 1.953-56.806s4.328-19.36 7.046-24.116c.848 9.68 1.7 19.36 3.652 29.467 1.953 10.1 5.01 20.631 10.784 32.687 5.776 12.056 14.265 25.644 22.755 39.228.68-12.736 1.357-25.473 4.247-40.504 2.885-15.027 7.98-32.348 13.84-47.122 5.862-14.775 12.48-27.002 18.85-33.706 6.367-6.713 12.48-7.899 17.065-6.37 122.768 68.797 109.073 159.293 93.402 278.759-2.38 22.497-3.566 39.142-7.389 55.53-3.819 16.385-10.27 32.52-16.726 48.652 19.697-30.739 39.4-61.474 55.021-89.922s27.173-54.593 38.89-86.86 23.602-70.644 30.482-103.249 8.747-59.44 7.577-77.173c-1.174-17.737-5.38-26.377-56.358-35.018-50.979-8.64-148.721-17.289-233.137-15.968-84.419 1.32-155.507 12.61-205.576 19.094-50.078 6.48-79.133 8.164-97.926 12.667s-34.399 17.71-34.399 17.71" style="fill:#503882;fill-opacity:1;fill-rule:evenodd;stroke-width:81.5133;stroke-miterlimit:7;paint-order:stroke markers fill"/><path d="M1503.205 1290.366c-2.812 1.557-12.113 3.603-15.487 20.175-13.6 135.37 25.904 180.287 98.696 288.54h.01c-15.01-28.936-30.021-57.87-43.708-88.01-13.694-30.139-26.06-61.485-33.086-89.04-7.022-27.56-8.701-51.333-8.885-72.649-.18-21.316 1.141-40.161 2.462-59.016m363.945-67.431c-2.462.154-4.716.423-6.966.692 122.767 68.798 109.073 159.298 93.398 278.764-2.376 22.497-3.566 39.142-7.385 55.53-3.823 16.385-10.27 32.52-16.727 48.652 19.698-30.739 39.4-61.473 55.022-89.917a558 558 0 0 0 22.946-46.634c11.261-43.365 17.635-72.543 21.32-100.75 3.961-30.336 4.81-59.546 5.66-88.752-13.074-6.452-26.153-12.908-50.688-22.926-24.54-10.018-60.544-23.602-83.042-29.858-16.877-4.691-26.153-5.266-33.539-4.801" style="fill:#7848a5;fill-opacity:1;fill-rule:evenodd;stroke-width:81.5133;stroke-miterlimit:7;paint-order:stroke markers fill"/><path d="M1700.255 1201.823c-53.216 4.177-98.729 11.098-133.885 15.65-50.074 6.485-79.133 8.172-97.926 12.675s-34.399 17.701-34.399 17.701-3.24 11.445-3.509 29.23c9.415-1.043 20.289-2.91 33.03-5.937 25.916-6.155 59.508-17.11 106.337-28.665s105.976-23.516 165.582-35.576c-11.762-1.7-23.524-3.407-35.23-5.078" style="fill:#3e2c78;fill-opacity:1;fill-rule:evenodd;stroke-width:81.5133;stroke-miterlimit:7;paint-order:stroke markers fill"/><path d="M1458.222 1233.474c-.562 12.94-1.724 26.178-2.23 39.38-9.516 2.037-17.904 3.382-25.374 4.21-.208 12.695 1.019 28.488 6.105 45.826q1.65 5.665 3.884 11.494c5.955 15.552 15.15 31.843 29.092 47.66q.147-5.257.758-10.466v-.01c.611-5.298 1.553-10.556 2.739-15.777a241 241 0 0 0-5.127-11.807c-17.957-34.097-11.453-73.513-9.847-110.512" style="fill:#7848a5;fill-opacity:1;fill-rule:evenodd;stroke-width:81.5133;stroke-miterlimit:7;paint-order:stroke markers fill"/><path d="M1458.222 1233.474c-13.788 5.637-23.997 14.224-24.177 14.375 0 0-.314 1.105-.754 3.171v.01c-.065.298-.155.95-.224 1.288-.88 4.336-2.079 11.55-2.445 21.316q-.061 1.683-.086 3.448a257 257 0 0 0 25.456-4.227c.506-13.2 1.671-26.439 2.23-39.379" style="fill:#422677;fill-opacity:1;fill-rule:evenodd;stroke-width:81.5133;stroke-miterlimit:7;paint-order:stroke markers fill"/><path d="M1754.16 1143.292c-317.902.868-552.876 108.107-658.884 180.21 396.668-96.94 665.405-122.584 1315.258-36.612 0 0-73.635-45.273-200.397-81.273-126.757-36.004-306.645-62.733-455.977-62.325" style="font-variation-settings:normal;vector-effect:none;fill:#793049;fill-opacity:1;fill-rule:evenodd;stroke-width:94.9381;stroke-linecap:butt;stroke-linejoin:miter;stroke-miterlimit:4;stroke-dasharray:none;stroke-dashoffset:0;stroke-opacity:1;-inkscape-stroke:none;stop-color:#000"/><path d="M1886.444 1266.85c-34.916.562-96.165 37.235-71.81 141.311 43.472 68.435 133.206 12.635 133.104 12.252 19.82-23.121 29.793-155.03-61.294-153.563" style="fill:#f9ca41;fill-opacity:1;fill-rule:evenodd;stroke-width:81.5133;stroke-miterlimit:7;paint-order:stroke markers fill"/><path d="M1886.444 1266.85c-33.135.534-90.003 33.6-74.87 125.95 48.663.232 97.038 3.016 144.38 9.757 12.256-43.19 7.361-136.942-69.51-135.707" style="fill:#faa23c;fill-opacity:1;fill-rule:evenodd;stroke-width:81.5133;stroke-miterlimit:7;paint-order:stroke markers fill"/><path d="M1876.385 1305.577c-3.057.497-6.089 3.415-8.828 8.803-9.304 18.312-11.11 57.516-3.741 81.412 2.975 9.647 4.76 13.295 8.078 16.494 1.549 1.496 3.032 2.376 4.491 2.64 1.46-.264 2.943-1.144 4.492-2.64 3.313-3.2 5.102-6.847 8.078-16.494 7.364-23.896 5.563-63.1-3.742-81.412-2.743-5.388-5.78-8.306-8.828-8.803" style="display:inline;fill:#782021;fill-opacity:1;stroke-width:.821083"/><ellipse cx="1847.933" cy="1332.986" rx="21.678" ry="10.401" style="font-variation-settings:normal;vector-effect:none;fill:#fff;fill-opacity:1;fill-rule:evenodd;stroke-width:122.021;stroke-linecap:butt;stroke-linejoin:miter;stroke-miterlimit:4;stroke-dasharray:none;stroke-dashoffset:0;stroke-opacity:1;-inkscape-stroke:none;stop-color:#000"/><path d="M1886.444 1266.85c-21.964.354-54.353 14.998-69.294 51.72l10.637-9.63c72.11-65.354 143.553-18.354 120 111.42 5.425-6.383 10.103-20.917 12.166-38.625 5.009-44.07-6.102-107.414-61.775-114.286a86 86 0 0 0-11.734-.6" style="fill:#782021;fill-opacity:1;fill-rule:evenodd;stroke-width:81.5133;stroke-miterlimit:7;paint-order:stroke markers fill"/><path d="M1646.538 1270.453c34.92.562 96.17 37.235 71.813 141.311-43.47 68.435-133.2 12.635-133.103 12.252-19.816-23.122-29.793-155.03 61.294-153.563" style="fill:#f9ca41;fill-opacity:1;fill-rule:evenodd;stroke-width:81.5133;stroke-miterlimit:7;paint-order:stroke markers fill"/><path d="M1646.538 1270.457c-76.561-1.235-81.721 91.763-69.653 135.181 47.632-4.307 96.129-8.342 144.768-10.706 14.285-91.234-42.15-123.941-75.115-124.471" style="fill:#faa23c;fill-opacity:1;fill-rule:evenodd;stroke-width:81.5133;stroke-miterlimit:7;paint-order:stroke markers fill"/><path d="M1646.538 1270.453c21.968.354 54.357 14.998 69.299 51.72l-10.638-9.63c-72.11-65.354-143.553-18.354-120 111.416-5.424-6.379-10.103-20.913-12.161-38.621-5.014-44.07 6.097-107.415 61.77-114.286q5.564-.693 11.734-.6" style="fill:#782021;fill-opacity:1;fill-rule:evenodd;stroke-width:81.5133;stroke-miterlimit:7;paint-order:stroke markers fill"/><path d="M1666.17 1309.18c-3.048.497-6.084 3.415-8.823 8.803-9.309 18.312-11.11 57.516-3.742 81.407 2.975 9.652 4.76 13.3 8.074 16.499 1.549 1.496 3.032 2.376 4.492 2.64q2.18-.395 4.495-2.64c3.314-3.2 5.099-6.847 8.074-16.498 7.369-23.892 5.567-63.096-3.741-81.408-2.74-5.388-5.776-8.306-8.828-8.803" style="display:inline;fill:#782021;fill-opacity:1;stroke-width:.821083"/><ellipse cx="1637.722" cy="1336.589" rx="21.678" ry="10.401" style="font-variation-settings:normal;vector-effect:none;fill:#fff;fill-opacity:1;fill-rule:evenodd;stroke-width:122.021;stroke-linecap:butt;stroke-linejoin:miter;stroke-miterlimit:4;stroke-dasharray:none;stroke-dashoffset:0;stroke-opacity:1;-inkscape-stroke:none;stop-color:#000"/><path d="M2249.545 2162.974c45.032 77.369 68.34 138.687 14.917 203.702-46.47 56.562 84.452 184.281 153.652 382.204 23.562-21.259 38.8-49.805 42.204-78.135 4.291-35.69-10.177-71.039-25.734-104.337s-32.198-64.546-43.935-82.174c-11.738-17.63-18.57-21.641-28.224-35.894-9.66-14.253-22.152-38.747-25.755-67.33-3.603-28.578 1.68-61.24-8.167-93.903s-34.823-65.32-59.558-98.224q-9.716-12.936-19.4-25.909" style="fill:#6846a3;fill-opacity:1;fill-rule:evenodd;stroke:none;stroke-width:28.5297;stroke-miterlimit:7;stroke-dasharray:none;stroke-opacity:1;paint-order:stroke markers fill"/><path d="M1462.188 2091.088c-29.826 24.935-9.052 176.615-80.14 203.73-131.897 50.314 12.728 314.07-7.972 544.737 42.688 6.31 85.711 4.826 136.694-.554-16.018-32.271-8.274-314.874-7.072-387.881.542-32.846 9.236-76.745 24.25-126.33 11.021-68.662-81.423-186.93-65.76-233.698" style="fill:#9e87de;fill-opacity:1;fill-rule:evenodd;stroke:none;stroke-width:28.5297;stroke-miterlimit:7;stroke-dasharray:none;stroke-opacity:1;paint-order:stroke markers fill"/><path d="M1487.208 2497.452v156.269c0 217.624 39.563 452.228 80.278 475.985 9.456 5.514 41.434 10.168 71.06 10.34 50.782.293 53.868-1.158 53.868-25.473 0-14.184-5.327-34.33-11.844-44.767-8.967-14.355-8.901-78.64.301-264.063 14.86-299.398 33.409-308.25 33.409-308.25z" style="fill:#7b326a;fill-opacity:1;stroke-width:10.2604"/><path d="M1487.204 2497.448v116.556c73.496 31.325 139.477 53.55 201.207 66.29 12.924-176.623 25.869-182.805 25.869-182.805z" style="fill:#5e274f;fill-opacity:1;stroke-width:10.2604"/><path d="M1350.272 2885.888s-31.719 78.231-45.111 117.7c-7.133 21.5-7.73 26.535-4.203 35.32a31 31 0 0 0 3.837 6.934c6.84 9.279 31.249 22.63 54.138 28.577 73.182 12.817 27.057-174.983 27.057-174.983z" style="fill:#8265d5;fill-opacity:1;stroke-width:2.67339"/><path d="M1502.17 2880.483a14 14 0 0 0-1.863.04c7.912 68.782 18.862 130.152 31.316 175.007.001 0 .01.012.01.016 4.604 5.078 7.079 6.087 10.65 5.43 8.862-1.626 18.078-10.131 36.57-33.752 9.32-11.9 20.049-25.153 23.841-29.453 10.887-12.343 13.59-19.903 10.23-28.57-1.572-4.053-6.545-11.028-12.896-18.643-9.824-11.784-22.933-25.1-31.786-31.49-6.187-4.471-22.869-15.348-37.07-24.176-17.034-10.589-23.617-14.167-29-14.408z" style="fill:#5e274f;fill-opacity:1;stroke-width:10.2604"/><path d="M1495.54 2869.633c-1.795-.08-3.457.208-5.326.732-11.584 3.244-39.135 25.326-38.472 30.838 26.59 43.457 38.399 95.157 67.821 136.965 8.517 10.745 11.325 12.833 16.088 11.956 8.86-1.625 18.077-10.13 36.57-33.751 9.319-11.9 20.048-25.153 23.84-29.453 10.888-12.343 13.59-19.903 10.23-28.57-4.004-10.323-30.108-39.613-44.682-50.134-6.187-4.47-22.869-15.347-37.07-24.175-17.033-10.589-23.617-14.167-29-14.408m-262.331-46.727c-7.717.496-15.039 8.913-42.444 45.461-46.192 61.604-57.877 83.313-49.155 93.748q.871 1.044 2.014 1.95c37.252 29.653 57.541 40.166 67.782 35.137 11.812-5.802 60.99-92.832 74.89-132.538 2.44-6.963 3.488-13.853 2.332-15.308-3.642-4.584-45.149-27.109-52.028-28.235-1.178-.194-2.289-.286-3.391-.215m-113.514-75.463c-5.589-.265-9.255 1.593-16.732 7.832-22.35 18.646-64.46 83.67-69.438 107.225-2.357 11.156.096 22.383 6.607 31.555a43 43 0 0 0 3.033 3.797 45 45 0 0 0 4.06 3.996c10.854 9.376 31.87 19.69 45.565 22.368 10.203 1.995 13.35 1.2 24.358-6.169 12.148-8.134 13.319-9.974 30.369-47.435 18.331-40.28 22.85-53.984 26.54-80.47 1.229-8.839.62-17.448-1.41-19.997-4.511-5.662-38.798-20.936-50.42-22.464a31 31 0 0 0-2.532-.239z" style="fill:#8265d5;fill-opacity:1;stroke-width:2.67339"/><path d="M1399.34 2983.003c-7.506 6.978-17.033 20.733-28.49 32.136-17.146 17.062-38.604 28.852-56.853 39.021 10.915 7.728 28.326 15.947 44.936 20.259 38.936 6.82 44.098-43.152 40.406-91.416m194.056-43.296c-19.408 33.126-40.528 60.34-88.869 73.768 4.527 8.5 9.466 16.77 15.037 24.685 8.52 10.75 11.324 12.84 16.088 11.964 8.86-1.625 18.077-10.13 36.57-33.751 9.319-11.9 20.048-25.153 23.84-29.453 10.888-12.343 13.59-19.903 10.23-28.57-1.572-4.053-6.545-11.028-12.896-18.643m-308.159-91.105c-9.084 17.072-18.486 33.616-28.696 48.82-16.872 25.123-35.946 46.587-52.793 59.583-15.34 11.832-28.83 16.646-42.158 20.832 26.054 19.07 41.362 25.517 49.816 21.365 11.812-5.802 60.988-92.826 74.89-132.53 2.437-6.967 3.49-13.86 2.332-15.316-.494-.621-1.687-1.572-3.39-2.754m-110.609-69.955c-11.663 23.878-23.921 45.909-38.24 61.485-20.068 21.834-44.19 30.98-66.493 37.875-11.635 3.596-22.773 6.577-33.672 9.266a41 41 0 0 0 3.908 6.782 43 43 0 0 0 3.033 3.797 45 45 0 0 0 4.06 3.996c10.854 9.376 31.87 19.69 45.565 22.368 10.203 1.995 13.35 1.2 24.358-6.169 12.148-8.134 13.319-9.974 30.369-47.435 18.331-40.28 22.85-53.984 26.54-80.47.565-4.074.74-8.092.572-11.495" style="fill:#784aaa;fill-opacity:1;stroke-width:2.67339"/><path d="M2031.289 2497.452v156.269c0 217.624-39.562 452.228-80.278 475.985-9.456 5.514-41.434 10.168-71.06 10.34-50.782.293-53.868-1.158-53.868-25.473 0-14.184 5.327-34.33 11.844-44.767 8.967-14.355 8.902-78.64-.301-264.063-14.864-299.398-33.409-308.25-33.409-308.25z" style="fill:#7b326a;fill-opacity:1;stroke-width:10.2604"/><path d="M2012.241 2926.867a286 286 0 0 0-10.85 12.315c-.037-.06-.076-.108-.111-.167-1.515 1.816-2.601 3.374-3.932 5.086-1.201 1.544-2.485 3.094-3.495 4.506a89 89 0 0 0-2.245 3.264c-.383.59-.81 1.212-1.138 1.759-.186.308-.35.598-.518.891-.658 1.158-1.228 2.24-1.576 3.137-3.36 8.667-.65 16.227 10.237 28.57.795.9 1.89 2.197 3.216 3.788 3.745-19.677 7.24-40.855 10.412-63.149m19.048-429.419-227.072.04s13.536 6.46 26.745 194.956c67.244-3.26 132.23-20.138 200.327-51.247z" style="fill:#5e274f;fill-opacity:1;stroke-width:10.2604"/><path d="m1604.335 2042.975-253.609 449.578c368.901 184.966 553.333 195.864 836.58 0l-240.913-449.069c-109.794.958-232.272-.073-342.058-.51" style="display:inline;fill:#642635;fill-opacity:1;fill-rule:evenodd;stroke:none;stroke-width:28.5297;stroke-miterlimit:7;stroke-dasharray:none;stroke-opacity:1;paint-order:stroke markers fill"/><g transform="rotate(-37.576 857.947 -3917.786)scale(3.58858)"><path d="M-624.715 384.979c-2.035 1.417-5.847 3.875-9.66 6.334 1.86 5.444 3.72 10.89 7.535 17.457s9.585 14.26 13.9 18.937c4.316 4.678 7.177 6.342 11.534 5.41 4.357-.93 16.84-7.5 16.84-7.5s-25.325-28.699-37.6-42.807c-.257.376-.514.752-2.55 2.169" style="fill:#914d78;fill-opacity:1;fill-rule:evenodd;stroke:none;stroke-width:7;stroke-miterlimit:7;stroke-dasharray:none;stroke-opacity:1;paint-order:stroke markers fill"/><path d="m-621.826 399.293-1.748.967c7.881 15.91 10.549 16.48 10.549 16.48-5.916-3.636-11.535-7.646-15.813-13.13 6.158 11.912 12.26 27.418 25.936 32.103 5.153-1.338 9.121-4.791 13.58-7.615-13.663-6.07-24.847-16.042-32.504-28.805" style="fill:#b17698;fill-opacity:1"/><circle cx="-543.835" cy="359.023" r="78.062" style="font-variation-settings:normal;opacity:1;fill:#fec15c;fill-opacity:1;fill-rule:evenodd;stroke:#fff;stroke-width:9.37678;stroke-linecap:butt;stroke-linejoin:miter;stroke-miterlimit:4;stroke-dasharray:none;stroke-dashoffset:0;stroke-opacity:1;stop-color:#000;stop-opacity:1"/><circle cx="-550.75" cy="365" r="60.95" style="font-variation-settings:normal;opacity:1;vector-effect:none;fill:#feed86;fill-opacity:1;fill-rule:evenodd;stroke-width:30.1407;stroke-linecap:butt;stroke-linejoin:miter;stroke-miterlimit:4;stroke-dasharray:none;stroke-dashoffset:0;stroke-opacity:1;-inkscape-stroke:none;stop-color:#000;stop-opacity:1"/><g style="fill:#fff;fill-opacity:1"><path d="M-522.787 293.762c-37.435 1.326-1.32 47.99 23.928 36.531 15.769-7.158-1.76-37.316-23.928-36.531" style="fill:#fff;fill-opacity:1"/><path d="M-486.451 327.896c-14.108-5.087-7.644 17.636 3.445 17.14 6.927-.308 4.909-14.127-3.445-17.14" style="fill:#fff;fill-opacity:1;stroke-width:.400353"/></g><path d="M-601.514 364.568c.833 1.826 1.638 3.39 1.973 4.594.335 1.202.353 1.817-.156 2.796-1.018 1.958-12.1 8.227-18.052 12.175l5.65 5.187c5.95-3.948 15.8-8.723 18.613-14.131 1.406-2.704 1.32-5.638.69-7.904s-1.652-4.091-2.35-5.623c-9.924-21.756 20.288-41.118 35.824-26.045-6.066 4.795-8.38 14.573-6.522 20 3.903 11.397 25.653 3.334 17.063-16.784 23.907-3.669 34.431 21.002 26.105 35.6-.278.487-.736.954-1.064 1.445-9.447-5.193-20.8-.966-23.832 3.715-4.68 7.225 8.097 22.283 24.687 6.137.965 1.01 2.003 1.944 2.772 3.113 6.912 10.513 2.764 25.627-16.317 27.086-8.032.963-14.551-2.919-20.898-7.244-2.654-1.8-5.023-3.201-8.041-3.45-3.018-.247-6.387.637-11.17 3.044s-11.144 6.368-17.508 10.316l3.69 5.947c6.364-3.948 12.731-7.881 16.964-10.011s6.166-2.426 7.45-2.32c1.284.105 2.215.59 4.687 2.267 18.089 13.931 35.572 7.692 42.195 2.586 8.043-6.2 13.324-19.096 4.795-32.066-1.131-1.721-2.506-3.319-3.99-4.815.53-.778 1.205-1.484 1.66-2.281 12.92-22.65-8.306-52.794-36.129-45.457-.208-.249-.366-.517-.586-.76-20.242-22.343-61.733 3.22-48.203 32.883m46.221-23.065c1.343 3.093 2.43 7.309.29 10.29-.935 1.3-2.574 2.114-3.296 2.177s-.635.221-.924-.62c-.27-.79-.704-7.747 3.93-11.847m26.736 39.928c-.833.756-1.662 1.653-2.472 2.192-2.987 1.982-5.65 2.397-7.448 2.001-1.773-.39-3.104-1.98-3.205-2.238.459-.69 6.635-4.672 13.125-1.955" style="baseline-shift:baseline;display:inline;overflow:visible;vector-effect:none;fill:#fff;fill-opacity:1;fill-rule:evenodd;stroke-miterlimit:7;paint-order:stroke markers fill;stop-color:#000"/></g><path d="M2000.893 1843.43q1.467-.041 3.008.122c48.977 17.534 84.724 59.733 120.631 94.882 22.388 21.93 44.653 44.575 63.927 58.16q.733.517 1.467 1.018c.391 2.234.79 4.447 1.1 6.713.367 2.747.734 5.49.97 8.261.327 3.962.363 7.907.367 11.86 0 3.11.123 6.228-.106 9.293q-.155 2.189-.4 4.361a107 107 0 0 1-.529 4.198c-.285 1.85-.664 3.668-1.051 5.482-.282 1.304-.543 2.62-.877 3.9a82 82 0 0 1-1.769 5.645c-.374 1.1-.705 2.225-1.128 3.301a69 69 0 0 1-2.906 6.24c-.38.746-.681 1.537-1.089 2.262l-.106.175-80.67-81.146c4.63 49.69 27.662 93.797 40.949 138.47q.945 3.359 1.752 6.79c3.73 15.802 5.478 32.545 9.264 47.825-10.95 12.48-21.906 24.959-32.699 36.53-10.796 11.566-21.43 22.228-31.749 31.06-37.887 28.583-131.909 82.264-174.487-2.38 6.765-34.464 13.53-68.928 22.44-131.55 9.248-39.616 20.04-265.281 63.69-271.472m-434.188 0a25 25 0 0 0-3.008.122c-48.977 17.534-84.725 59.733-120.631 94.882-22.388 21.93-44.653 44.575-63.927 58.16q-.734.517-1.467 1.018c-.392 2.234-.791 4.447-1.1 6.713a163 163 0 0 0-.967 8.261c-.334 3.962-.367 7.907-.367 11.86 0 3.11-.122 6.228.102 9.293q.16 2.189.4 4.361c.159 1.406.318 2.808.53 4.198.285 1.85.664 3.668 1.051 5.482.285 1.304.542 2.62.876 3.9.506 1.92 1.133 3.787 1.77 5.645.374 1.1.704 2.225 1.128 3.301.848 2.148 1.863 4.206 2.906 6.24.383.746.68 1.537 1.092 2.262l.102.175 80.67-81.146c-17.668 66.062-36.494 126.782-51.965 193.085 10.951 12.48 21.907 24.959 32.7 36.53 10.796 11.566 21.43 22.228 31.749 31.06 37.887 28.583 131.908 82.264 174.487-2.38-6.766-34.464-13.531-68.927-22.44-131.55-8.906-62.627-19.955-153.408-30.283-206.005-9.68-49.307-18.736-65.055-33.408-65.467" style="fill:#9d3f59;fill-opacity:1;fill-rule:evenodd;stroke:none;stroke-width:28.5297;stroke-miterlimit:7;stroke-dasharray:none;stroke-opacity:1;paint-order:stroke markers fill"/><path d="M1341.833 2155.3q-12.52 16.824-25.114 33.583c-24.74 32.903-49.71 65.562-59.558 98.224-9.846 32.662-4.564 65.325-8.167 93.903s-16.091 53.077-25.75 67.33c-9.66 14.253-16.486 18.263-28.22 35.895-11.738 17.627-28.383 48.875-43.94 82.173s-30.03 68.647-25.738 104.337c3.864 32.108 22.914 64.485 52.063 86.225 15.177-53.595 60.605-266.866 101.308-315.905 28.47-34.3 51.839-77.735 51.839-96.349-37.529-72.538-24.23-110.654 11.277-189.416" style="fill:#6846a3;fill-opacity:1;fill-rule:evenodd;stroke:none;stroke-width:28.5297;stroke-miterlimit:7;stroke-dasharray:none;stroke-opacity:1;paint-order:stroke markers fill"/><path d="m2249.728 2885.92-35.718 13.548s-46.126 187.808 27.057 174.99c22.89-5.946 47.298-19.305 54.138-28.585a31 31 0 0 0 3.837-6.925c3.526-8.785 2.93-13.82-4.203-35.32-13.393-39.47-45.111-117.709-45.111-117.709m-145.275-16.246c-5.383.24-11.967 3.81-29 14.4-14.201 8.828-30.875 19.713-37.062 24.183-14.574 10.522-40.686 39.811-44.69 50.134-3.36 8.667-.65 16.227 10.237 28.57 3.793 4.3 14.522 17.553 23.842 29.452 18.492 23.622 27.708 32.127 36.569 33.752 4.763.876 7.57-1.211 16.088-11.956 29.425-41.81 41.231-93.505 67.821-136.965.663-5.512-26.896-27.594-38.48-30.838-1.87-.524-3.531-.813-5.325-.732m262.339-46.735c-1.102-.071-2.213.02-3.391.214-6.88 1.127-48.386 23.66-52.028 28.244-1.156 1.454-.109 8.345 2.332 15.307 13.9 39.707 63.086 126.737 74.898 132.539 10.241 5.028 30.523-5.491 67.774-35.145a13.8 13.8 0 0 0 2.014-1.95c8.722-10.436-2.961-32.144-49.155-93.748-27.406-36.549-34.727-44.966-42.444-45.461m113.506-75.464a30 30 0 0 0-2.524.24c-11.622 1.527-45.909 16.8-50.42 22.463-2.031 2.549-2.64 11.158-1.41 19.996 3.69 26.487 8.208 40.198 26.54 80.479 17.05 37.461 18.22 39.293 30.369 47.427 11.008 7.37 14.155 8.164 24.358 6.17 13.695-2.68 34.71-13.001 45.565-22.377a45 45 0 0 0 4.06-3.988 43 43 0 0 0 3.033-3.797c6.511-9.172 8.964-20.4 6.607-31.555-4.978-23.556-47.087-88.579-69.438-107.225-7.477-6.239-11.151-8.097-16.74-7.833" style="fill:#8265d5;fill-opacity:1;stroke-width:2.67342"/><path d="M2200.66 2983.043c-3.69 48.264 1.47 98.236 40.407 91.416 16.61-4.312 34.02-12.531 44.936-20.26-18.25-10.167-39.707-21.958-56.852-39.02-11.459-11.403-20.985-25.158-28.49-32.136m-194.056-43.296c-6.35 7.615-11.332 14.59-12.904 18.643-3.36 8.667-.65 16.227 10.237 28.57 3.793 4.3 14.522 17.553 23.841 29.452 18.493 23.622 27.71 32.127 36.57 33.752 4.764.877 7.567-1.214 16.088-11.964 5.57-7.915 10.51-16.185 15.037-24.685-48.342-13.427-69.46-40.643-88.869-73.768m308.159-91.113c-1.705 1.182-2.897 2.14-3.392 2.762-1.157 1.457-.105 8.34 2.333 15.307 13.903 39.705 63.086 126.737 74.898 132.54 8.454 4.15 23.762-2.304 49.815-21.374-13.327-4.186-26.818-9-42.157-20.832-16.848-12.996-35.928-34.46-52.8-59.583-10.211-15.204-19.613-31.748-28.698-48.82m110.609-69.955c-.17 3.403.01 7.42.573 11.494 3.689 26.487 8.207 40.198 26.54 80.479 17.05 37.461 18.22 39.293 30.368 47.427 11.008 7.37 14.155 8.164 24.358 6.17 13.695-2.68 34.71-13.001 45.565-22.377a45 45 0 0 0 4.06-3.988 43 43 0 0 0 3.033-3.797 41 41 0 0 0 3.908-6.782c-10.899-2.688-22.029-5.67-33.664-9.266-22.304-6.894-46.433-16.041-66.5-37.875-14.32-15.576-26.578-37.607-38.241-61.485" style="fill:#784aaa;fill-opacity:1;stroke-width:2.67342"/><path d="M1805.44 1493.294c-93.679.122-184.709 31.179-258.951 88.307-186.042 143.146-220.91 410.73-77.764 596.771l.041.05.037.056c24.6 31.595 54.235 58.657 86.596 82.133l-4.736 13.85 27.127 2.257c62.032 39.799 133.197 62.883 206.82 66.84l51.32 19.311 7.92-21.083c80.441-7.214 157.467-36.257 221.659-85.646 186.042-143.15 220.905-410.73 77.763-596.775a425.58 425.58 0 0 0-337.823-166.059Z" style="baseline-shift:baseline;display:inline;overflow:visible;vector-effect:none;fill:url(#c);fill-rule:evenodd;stroke-width:5.84067;stop-color:#000"/></g></svg>