<svg xmlns="http://www.w3.org/2000/svg" xmlns:xlink="http://www.w3.org/1999/xlink" xml:space="preserve" width="3000" height="3600" viewBox="0 0 3000 3600"><defs><linearGradient id="z"><stop offset="0" style="stop-color:#fcd8e2;stop-opacity:1"/><stop offset="1" style="stop-color:#fcd8e2;stop-opacity:0"/></linearGradient><linearGradient id="y"><stop offset="0" style="stop-color:#fddee8;stop-opacity:.73828125"/><stop offset="1" style="stop-color:#fddee8;stop-opacity:0"/></linearGradient><linearGradient id="x"><stop offset="0" style="stop-color:#fddee8;stop-opacity:.670588"/><stop offset="1" style="stop-color:#fddee8;stop-opacity:0"/></linearGradient><linearGradient id="w"><stop offset="0" style="stop-color:#ffc7e2;stop-opacity:1"/><stop offset="1" style="stop-color:#ffc7e2;stop-opacity:0"/></linearGradient><linearGradient id="v"><stop offset="0" style="stop-color:#ffb8db;stop-opacity:1"/><stop offset="1" style="stop-color:#ffadd5;stop-opacity:1"/></linearGradient><linearGradient id="p"><stop offset="0" style="stop-color:#3d3664;stop-opacity:1"/><stop offset="1" style="stop-color:#524785;stop-opacity:1"/></linearGradient><linearGradient id="r"><stop offset="0" style="stop-color:#fddae5;stop-opacity:1"/><stop offset="1" style="stop-color:#fddae5;stop-opacity:0"/></linearGradient><linearGradient id="q"><stop offset="0" style="stop-color:#4d427c;stop-opacity:1"/><stop offset="1" style="stop-color:#4d427c;stop-opacity:0"/></linearGradient><linearGradient id="o"><stop offset="0" style="stop-color:#e9a5b9;stop-opacity:1"/><stop offset="1" style="stop-color:#e9a5b9;stop-opacity:0"/></linearGradient><linearGradient id="n"><stop offset="0" style="stop-color:#e9a5b9;stop-opacity:1"/><stop offset="1" style="stop-color:#e9a5b9;stop-opacity:0"/></linearGradient><linearGradient id="m"><stop offset="0" style="stop-color:#fad2e5;stop-opacity:1"/><stop offset="1" style="stop-color:#fad2e5;stop-opacity:0"/></linearGradient><linearGradient id="l"><stop offset="0" style="stop-color:#e9a5b9;stop-opacity:1"/><stop offset="1" style="stop-color:#e9a5b9;stop-opacity:0"/></linearGradient><linearGradient id="k"><stop offset="0" style="stop-color:#e9a5b9;stop-opacity:1"/><stop offset="1" style="stop-color:#e9a5b9;stop-opacity:0"/></linearGradient><linearGradient id="j"><stop offset="0" style="stop-color:#fcd4df;stop-opacity:1"/><stop offset="1" style="stop-color:#fcd4df;stop-opacity:0"/></linearGradient><linearGradient id="f"><stop offset="0" style="stop-color:#e9a5b9;stop-opacity:1"/><stop offset="1" style="stop-color:#e9a5b9;stop-opacity:0"/></linearGradient><linearGradient id="h"><stop offset="0" style="stop-color:#e9a5b9;stop-opacity:1"/><stop offset="1" style="stop-color:#e9a5b9;stop-opacity:0"/></linearGradient><linearGradient id="i"><stop offset="0" style="stop-color:#e9a5b9;stop-opacity:1"/><stop offset="1" style="stop-color:#e9a5b9;stop-opacity:0"/></linearGradient><linearGradient id="g"><stop offset="0" style="stop-color:#e9a5b9;stop-opacity:1"/><stop offset="1" style="stop-color:#fad4e7;stop-opacity:0"/></linearGradient><linearGradient id="e"><stop offset="0" style="stop-color:#fddee8;stop-opacity:.39195818"/><stop offset="1" style="stop-color:#fddee8;stop-opacity:0"/></linearGradient><linearGradient id="d"><stop offset="0" style="stop-color:#feebf2;stop-opacity:1"/><stop offset="1" style="stop-color:#feebf2;stop-opacity:0"/></linearGradient><linearGradient id="c"><stop offset="0" style="stop-color:#fdc9da;stop-opacity:1"/><stop offset="1" style="stop-color:#fdc9da;stop-opacity:0"/></linearGradient><linearGradient id="b"><stop offset="0" style="stop-color:#fdc9da;stop-opacity:1"/><stop offset="1" style="stop-color:#fdc9da;stop-opacity:0"/></linearGradient><linearGradient id="a"><stop offset="0" style="stop-color:#fee6ef;stop-opacity:1"/><stop offset="1" style="stop-color:#fee6ef;stop-opacity:0"/></linearGradient><linearGradient id="t"><stop offset="0" style="stop-color:#f3aac5;stop-opacity:1"/><stop offset="1" style="stop-color:#f3aac5;stop-opacity:0"/></linearGradient><linearGradient id="u"><stop offset="0" style="stop-color:#f5b3cc;stop-opacity:.49155381"/><stop offset="1" style="stop-color:#f5b3cc;stop-opacity:0"/></linearGradient><linearGradient id="s"><stop offset="0" style="stop-color:#f5b3cc;stop-opacity:.8085677"/><stop offset="1" style="stop-color:#f5b3cc;stop-opacity:0"/></linearGradient><linearGradient xlink:href="#b" id="R" x1="335.828" x2="338.631" y1="171.494" y2="142.355" gradientUnits="userSpaceOnUse"/><linearGradient xlink:href="#c" id="S" x1="394.086" x2="362.443" y1="145.258" y2="119.548" gradientUnits="userSpaceOnUse"/><linearGradient xlink:href="#f" id="U" x1="292.268" x2="314.266" y1="146.46" y2="138.378" gradientUnits="userSpaceOnUse"/><linearGradient xlink:href="#g" id="W" x1="316.404" x2="316.404" y1="448.305" y2="390.54" gradientUnits="userSpaceOnUse"/><linearGradient xlink:href="#h" id="N" x1="348.312" x2="362.796" y1="399.983" y2="417.438" gradientUnits="userSpaceOnUse"/><linearGradient xlink:href="#i" id="O" x1="348.312" x2="362.796" y1="399.983" y2="417.438" gradientTransform="matrix(-1 0 0 1 632.809 0)" gradientUnits="userSpaceOnUse"/><linearGradient xlink:href="#j" id="L" x1="316.404" x2="316.404" y1="440.288" y2="103.611" gradientUnits="userSpaceOnUse"/><linearGradient xlink:href="#k" id="ag" x1="461.401" x2="462.83" y1="319.182" y2="289.015" gradientUnits="userSpaceOnUse"/><linearGradient xlink:href="#l" id="P" x1="463.109" x2="450.285" y1="289.028" y2="303.281" gradientUnits="userSpaceOnUse"/><linearGradient xlink:href="#l" id="ai" x1="463.109" x2="450.285" y1="289.028" y2="303.281" gradientUnits="userSpaceOnUse"/><linearGradient xlink:href="#k" id="aj" x1="461.401" x2="462.83" y1="319.182" y2="289.015" gradientUnits="userSpaceOnUse"/><linearGradient xlink:href="#n" id="K" x1="232.626" x2="143.948" y1="320.341" y2="320.341" gradientUnits="userSpaceOnUse"/><linearGradient xlink:href="#p" id="D" x1="383.215" x2="533.784" y1="175.993" y2="132.038" gradientTransform="translate(-9.285 -3.65)scale(1.02063)" gradientUnits="userSpaceOnUse"/><linearGradient xlink:href="#q" id="I" x1="466.892" x2="452.456" y1="241.389" y2="220.999" gradientUnits="userSpaceOnUse"/><linearGradient xlink:href="#r" id="E" x1="424.184" x2="436.213" y1="116.236" y2="161.895" gradientUnits="userSpaceOnUse"/><linearGradient xlink:href="#p" id="A" x1="383.215" x2="533.784" y1="175.993" y2="132.038" gradientTransform="translate(-9.285 -3.65)scale(1.02063)" gradientUnits="userSpaceOnUse"/><linearGradient xlink:href="#r" id="B" x1="424.184" x2="436.213" y1="116.236" y2="161.895" gradientUnits="userSpaceOnUse"/><linearGradient xlink:href="#q" id="C" x1="466.892" x2="452.456" y1="241.389" y2="220.999" gradientUnits="userSpaceOnUse"/><linearGradient xlink:href="#g" id="al" x1="316.404" x2="315.964" y1="448.305" y2="404.294" gradientUnits="userSpaceOnUse"/><linearGradient xlink:href="#s" id="X" x1="62.757" x2="62.743" y1="44.98" y2="45.897" gradientTransform="translate(-4272.22 -1814.129)scale(24.67943)" gradientUnits="userSpaceOnUse"/><linearGradient xlink:href="#s" id="Y" x1="62.757" x2="62.743" y1="44.98" y2="45.897" gradientTransform="translate(-4272.22 -1814.129)scale(24.67943)" gradientUnits="userSpaceOnUse"/><linearGradient xlink:href="#t" id="Z" x1="58.474" x2="59.668" y1="46.877" y2="46.811" gradientTransform="translate(-4272.22 -1814.129)scale(24.67943)" gradientUnits="userSpaceOnUse"/><linearGradient xlink:href="#u" id="aa" x1="67.49" x2="66.48" y1="47.41" y2="47.208" gradientTransform="translate(-4272.22 -1814.129)scale(24.67943)" gradientUnits="userSpaceOnUse"/><linearGradient xlink:href="#s" id="ab" x1="62.757" x2="62.743" y1="44.98" y2="45.897" gradientTransform="translate(-4272.22 -1814.129)scale(24.67943)" gradientUnits="userSpaceOnUse"/><linearGradient xlink:href="#s" id="ac" x1="62.757" x2="62.743" y1="44.98" y2="45.897" gradientTransform="translate(-4272.22 -1814.129)scale(24.67943)" gradientUnits="userSpaceOnUse"/><linearGradient xlink:href="#t" id="ad" x1="58.474" x2="59.668" y1="46.877" y2="46.811" gradientTransform="translate(-4272.22 -1814.129)scale(24.67943)" gradientUnits="userSpaceOnUse"/><linearGradient xlink:href="#u" id="ae" x1="67.49" x2="66.48" y1="47.41" y2="47.208" gradientTransform="translate(-4272.22 -1814.129)scale(24.67943)" gradientUnits="userSpaceOnUse"/><linearGradient xlink:href="#v" id="ap" x1="303.123" x2="329.656" y1="233.27" y2="241.009" gradientUnits="userSpaceOnUse"/><radialGradient xlink:href="#a" id="V" cx="348.71" cy="40.59" r="79.041" fx="348.71" fy="40.59" gradientTransform="translate(-10.765 -16.197)scale(1.07763)" gradientUnits="userSpaceOnUse"/><radialGradient xlink:href="#d" id="T" cx="330.466" cy="104.207" r="15.673" fx="330.466" fy="104.207" gradientTransform="rotate(-19.533 358.484 849.17)scale(1.74461 1.33754)" gradientUnits="userSpaceOnUse"/><radialGradient xlink:href="#e" id="M" cx="331.146" cy="123.082" r="17.83" fx="331.146" fy="123.082" gradientTransform="rotate(16.113 322.07 9.774)scale(1.07943 1)" gradientUnits="userSpaceOnUse"/><radialGradient xlink:href="#m" id="ah" cx="499.158" cy="278.108" r="16.743" fx="499.158" fy="278.108" gradientTransform="rotate(-20.195 -254.485 424.179)scale(1 1.93244)" gradientUnits="userSpaceOnUse"/><radialGradient xlink:href="#m" id="ak" cx="499.158" cy="278.108" r="16.743" fx="499.158" fy="278.108" gradientTransform="rotate(-20.195 -254.485 424.179)scale(1 1.93244)" gradientUnits="userSpaceOnUse"/><radialGradient xlink:href="#o" id="J" cx="113.427" cy="295.787" r="67.306" fx="113.427" fy="295.787" gradientTransform="translate(17.792 -7.641)" gradientUnits="userSpaceOnUse"/><radialGradient xlink:href="#w" id="aq" cx="318.793" cy="186.774" r="26.75" fx="318.793" fy="186.774" gradientTransform="translate(7.425 23.158)" gradientUnits="userSpaceOnUse"/><radialGradient xlink:href="#x" id="am" cx="327.14" cy="208.874" r="67.882" fx="327.14" fy="208.874" gradientTransform="matrix(1 0 0 .38542 -6.212 112.88)" gradientUnits="userSpaceOnUse"/><radialGradient xlink:href="#y" id="an" cx="320.319" cy="203.647" r="83.439" fx="320.319" fy="203.647" gradientTransform="translate(-131.696 19.764)scale(1.39606)" gradientUnits="userSpaceOnUse"/><radialGradient xlink:href="#z" id="ao" cx="397.54" cy="122.968" r="114.245" fx="397.54" fy="122.968" gradientTransform="translate(-227.84 -4.155)" gradientUnits="userSpaceOnUse"/><radialGradient xlink:href="#z" id="Q" cx="389.174" cy="130.238" r="114.245" fx="389.174" fy="130.238" gradientTransform="matrix(-1 0 0 1 860.648 -4.155)" gradientUnits="userSpaceOnUse"/><radialGradient xlink:href="#y" id="af" cx="320.319" cy="203.647" r="83.439" fx="320.319" fy="203.647" gradientTransform="translate(-131.696 19.764)scale(1.39606)" gradientUnits="userSpaceOnUse"/></defs><g transform="translate(-565.304 169.626)scale(6.51329)"><path d="M513.773 152.717c-3.984 27.69-38.069 71.221-57.943 94.644 0 0-30.866-23.897-43.244-46.316s-22.764-56.741-27.4-74.337c-4.635-17.595-11.438-16.232-10.1-16.594 22.988-12.02 141.542 22.755 138.687 42.603" style="opacity:1;fill:url(#A);stroke-width:.683822;stroke-linecap:round;stroke-linejoin:round" transform="matrix(-1.00989 0 0 1 637.889 -5.976)"/><path d="M515.146 153.945c-4.024 27.689-38.445 71.22-58.515 94.643 0 0-31.172-23.897-43.672-46.316-12.501-22.419-22.99-56.741-27.671-74.336-4.682-17.596-11.551-16.232-10.2-16.595 23.215-12.02 142.942 22.755 140.058 42.604" style="mix-blend-mode:overlay;fill:url(#B);stroke-width:.687195;stroke-linecap:round;stroke-linejoin:round" transform="matrix(-1 0 0 1 634.182 -7.203)"/><path d="M501.506 187.582c-20.904 13.685-41.52 27.684-65.332 35.984-1.393.75-2.95 1.619-4.2 2.91 12.283 12.627 24.657 22.112 24.657 22.112 12.99-15.161 31.994-38.745 44.875-61.006" style="opacity:1;mix-blend-mode:multiply;fill:url(#C);fill-opacity:1;stroke-width:.67;stroke-linecap:round;stroke-linejoin:round" transform="matrix(-1 0 0 1 634.182 -7.203)"/><path d="M513.773 152.717c-3.984 27.69-38.069 71.221-57.943 94.644 0 0-30.866-23.897-43.244-46.316s-22.764-56.741-27.4-74.337c-4.635-17.595-11.438-16.232-10.1-16.594 22.988-12.02 141.542 22.755 138.687 42.603" style="opacity:1;fill:url(#D);stroke-width:.683822;stroke-linecap:round;stroke-linejoin:round" transform="matrix(1.00989 0 0 1 -3.707 1.227)"/><path d="M515.146 153.945c-4.024 27.689-38.445 71.22-58.515 94.643 0 0-31.172-23.897-43.672-46.316-12.501-22.419-22.99-56.741-27.671-74.336-4.682-17.596-11.551-16.232-10.2-16.595 23.215-12.02 142.942 22.755 140.058 42.604" style="mix-blend-mode:overlay;fill:url(#E);stroke-width:.687195;stroke-linecap:round;stroke-linejoin:round"/><path d="M501.506 187.582c-20.904 13.685-41.52 27.684-65.332 35.984-1.393.75-2.95 1.619-4.2 2.91 12.283 12.627 24.657 22.112 24.657 22.112 12.99-15.161 31.994-38.745 44.875-61.006" style="opacity:1;mix-blend-mode:multiply;fill:url(#I);fill-opacity:1;stroke-width:.67;stroke-linecap:round;stroke-linejoin:round"/><path d="M149.902 283.352c-1.133 2.409-3.398 7.227-4.733 13.298-2.99 13.59-1.499 39.42 16.092 64.104 9.23 12.95 21.651 23.405 35.938 27.577 1.334.39 4.17.014 12.25-17.195 8.077-17.21 21.452-51.637 23.018-75.879s-8.677-38.296-21.906-41.952c-13.23-3.657-29.446 3.084-39.865 9.424s-15.04 12.276-17.351 15.245-2.311 2.969-3.443 5.378" style="fill:#e9a5b9;fill-opacity:1;stroke-width:.67;stroke-linecap:round;stroke-linejoin:round"/><path d="M189.406 254.316c-6.948 2.025-13.541 5.268-18.709 8.413-10.419 6.339-15.04 12.277-17.351 15.246-2.311 2.968-2.311 2.967-3.444 5.377-1.132 2.409-3.397 7.228-4.732 13.298-2.6 11.814-1.813 32.879 9.994 54.399a67.31 67.31 0 0 0 43.361-62.903 67.3 67.3 0 0 0-9.119-33.83" style="mix-blend-mode:overlay;fill:url(#J);stroke-width:.67;stroke-linecap:round;stroke-linejoin:round"/><path d="M149.902 283.352c-1.133 2.409-3.398 7.227-4.733 13.298-2.99 13.59-1.499 39.42 16.092 64.104 9.23 12.95 21.651 23.405 35.938 27.577 1.334.39 4.17.014 12.25-17.195 8.077-17.21 21.452-51.637 23.018-75.879s-8.677-38.296-21.906-41.952c-13.23-3.657-29.446 3.084-39.865 9.424s-15.04 12.276-17.351 15.245-2.311 2.969-3.443 5.378" style="mix-blend-mode:multiply;fill:url(#K);fill-opacity:1;stroke-width:.67;stroke-linecap:round;stroke-linejoin:round"/><path d="M386.324 394.736c-15.041 6.048-56.729 13.307-98.785 7.373-9.753-1.376-17.038-3.237-21.328-4.654s-5.585-2.388-5.625-1.902c-.04.485 1.174 2.43 3.238 4.615 11.27 11.616 8.083 11.451 6.354 28.45-.422 3.55-.722 5.299-.842 7.905 5.046-6.746 10.013-15.174 15.428-25.523 10.095 1.651 20.656 2.46 31.64 2.297 10.985.162 21.546-.646 31.64-2.297 5.35 10.225 10.263 18.576 15.247 25.281.543-2.822.41-4.828.37-6.603-.112-4.72.864-17.617 13.706-26.412 2.09-1.431 5.008-3.607 6.639-5.153s1.975-2.46 2.318-3.377" style="fill:#fad4e7;fill-opacity:1;stroke-width:.67;stroke-linecap:round;stroke-linejoin:round"/><path d="M348.459 53.297c-5.983.139-12.297.986-18.793 2.482-19.355 4.458-50.375 17.557-77.203 45.053-32.98 33.802-61.292 86.936-73.77 133.791-4.392 16.495-7.222 32.848-8.328 48.316-.637 8.908-1.17 19.245.153 30.297 1.28 21.4 6.922 53.567 38.47 93.637 6.944 8.82 14.776 17.375 20.93 23.232 6.154 5.858 10.63 9.017 14.25 11.485 7.027 5.125 12.253 9 19.414 1.844 7.127-7.59 13.73-18.194 21.182-32.434 10.095 1.651 20.656 2.46 31.64 2.297 10.985.162 21.546-.646 31.64-2.297 7.452 14.24 14.056 24.845 21.183 32.434 7.16 7.157 12.386 3.281 19.414-1.844 3.62-2.468 8.096-5.627 14.25-11.485 6.153-5.857 13.986-14.413 20.93-23.232 31.547-40.07 37.19-72.238 38.47-93.637 1.323-11.052.79-21.389.152-30.297-1.106-15.468-3.935-31.82-8.328-48.316-11.287-42.383-35.532-89.91-64.47-123.615 6.203-13.983 5.7-27.597-.282-38.115-7.985-14.04-22.955-20.013-40.904-19.596" style="fill:#fddee8;fill-opacity:1;stroke-width:.67;stroke-linecap:round;stroke-linejoin:round"/><path d="M348.459 53.297c-5.983.139-12.297.986-18.793 2.482-19.355 4.458-50.375 17.557-77.203 45.053-32.98 33.802-61.292 86.936-73.77 133.791-4.392 16.495-7.222 32.848-8.328 48.316-.637 8.908-1.17 19.245.153 30.297 1.28 21.4 6.922 53.567 38.47 93.637 6.944 8.82 14.776 17.375 20.93 23.232 6.154 5.858 10.63 9.017 14.25 11.485 7.027 5.125 12.253 9 19.414 1.844 7.127-7.59 13.73-18.194 21.182-32.434 10.095 1.651 20.656 2.46 31.64 2.297 10.985.162 21.546-.646 31.64-2.297 7.452 14.24 14.056 24.845 21.183 32.434 7.16 7.157 12.386 3.281 19.414-1.844 3.62-2.468 8.096-5.627 14.25-11.485 6.153-5.857 13.986-14.413 20.93-23.232 31.547-40.07 37.19-72.238 38.47-93.637 1.323-11.052.79-21.389.152-30.297-1.106-15.468-3.935-31.82-8.328-48.316-11.287-42.383-35.532-89.91-64.47-123.615 6.203-13.983 5.7-27.597-.282-38.115-7.985-14.04-22.955-20.013-40.904-19.596" style="fill:url(#L);fill-opacity:1;stroke-width:.67;stroke-linecap:round;stroke-linejoin:round"/><circle cx="334.038" cy="132.065" r="17.83" style="mix-blend-mode:multiply;fill:url(#M);stroke-width:.67;stroke-linecap:round;stroke-linejoin:round"/><path d="M376.758 403.693A169 169 0 0 1 348.045 411c5.35 10.225 10.262 18.576 15.246 25.281.495-13.04 2.592-23.705 13.467-32.588" style="fill:url(#N);fill-opacity:1;stroke-width:.67;stroke-linecap:round;stroke-linejoin:round"/><path d="M256.05 403.693A169 169 0 0 0 284.765 411c-5.35 10.225-10.263 18.576-15.246 25.281-.496-13.04-2.593-23.705-13.467-32.588" style="fill:url(#O);fill-opacity:1;stroke-width:.67;stroke-linecap:round;stroke-linejoin:round"/><path d="m460.238 263.61-.342.12c-9.643 3.434-9.543 11.684-14.744 12.014-15.561.987-12.884 22.509 16.842 41.639q.178-2.136.297-4.147c1.323-11.052.79-21.389.152-30.297a237 237 0 0 0-2.205-19.33" style="mix-blend-mode:multiply;fill:url(#P);stroke-width:.67;stroke-linecap:round;stroke-linejoin:round"/><path d="M348.459 53.297a84 84 0 0 0-7.43.514c-3.116 3.334-4.961 7.279-5.299 10.925-.21 2.27 5.903 15.09 10.002 29.024 4.08 13.864 8.964 37.774-12.154 39.086-2.607.162-3.345-.304-4.084-.77 4.53-5.608 8.196-10.381 7.54-15.637-1.145-9.152-11.51-11.724-20.534-6.35-5.395 3.214-10.083 9.294-11.266 18.636-1.516 11.976 5.187 20.338 16.307 23.127 19.09 4.788 36.328-5.174 48.737-16.403 7.982-7.224 24.325-22.83 23.795-44.798-.155-6.465-1.718-12.5-4.71-17.758-7.985-14.04-22.956-20.012-40.904-19.596" style="display:inline;fill:#fddee8;fill-opacity:1;stroke-width:.67;stroke-linecap:round;stroke-linejoin:round"/><path d="M348.459 53.297c-5.85.136-12.019.95-18.363 2.385a114.25 114.25 0 0 0-13.787 54.408 114.245 114.245 0 0 0 114.244 114.244 114 114 0 0 0 20.047-1.772c-12.366-39.126-34.734-81.014-60.955-111.554 6.203-13.983 5.7-27.597-.282-38.115-7.985-14.04-22.955-20.013-40.904-19.596" style="mix-blend-mode:multiply;fill:url(#Q);stroke-width:.67;stroke-linecap:round;stroke-linejoin:round"/><path d="M326.662 107.324c-3.204-.147-6.778.75-10.162 2.766-5.395 3.213-10.083 9.293-11.266 18.635-.454 3.584-.172 6.844.745 9.728a23.73 23.73 0 0 0 13.037 3.902 23.73 23.73 0 0 0 19.615-10.376c-1.49.453-3.168.75-5.053.867-2.607.162-3.345-.304-4.084-.77 4.53-5.608 8.196-10.381 7.54-15.637-.716-5.72-5.032-8.869-10.372-9.115" style="fill:#fddee8;fill-opacity:1;stroke-width:.880746;stroke-linecap:round;stroke-linejoin:round"/><path d="M348.459 53.297a84 84 0 0 0-7.43.514c-3.116 3.334-4.961 7.279-5.299 10.925-.21 2.27 5.903 15.09 10.002 29.024 4.08 13.864-20.207 10.955-29.232 16.33-14.036 8.359-18.326 35.9 5.04 41.762 19.092 4.788 36.33-5.174 48.738-16.403 7.982-7.224 24.325-22.83 23.795-44.798-.155-6.465-1.718-12.5-4.71-17.758-7.985-14.04-22.956-20.012-40.904-19.596" style="display:inline;fill:url(#R);fill-opacity:1;stroke-width:.67;stroke-linecap:round;stroke-linejoin:round"/><path d="M348.459 53.297a84 84 0 0 0-7.43.514c-3.116 3.334-4.961 7.279-5.299 10.925-.21 2.27 5.903 15.09 10.002 29.024 4.08 13.864-20.207 10.955-29.232 16.33-14.036 8.359-18.326 35.9 5.04 41.762 19.092 4.788 36.33-5.174 48.738-16.403 7.982-7.224 24.325-22.83 23.795-44.798-.155-6.465-1.718-12.5-4.71-17.758-7.985-14.04-22.956-20.012-40.904-19.596" style="display:inline;fill:url(#S);fill-opacity:1;stroke-width:.67;stroke-linecap:round;stroke-linejoin:round"/><path d="M326.662 107.324c-3.204-.147-6.778.75-10.162 2.766-4.788 2.851-9.018 7.961-10.736 15.605 6.657 6.089 15.144 7.983 23.73 6.381 4.53-5.608 8.196-10.381 7.54-15.637-.716-5.72-5.032-8.869-10.372-9.115" style="fill:url(#T);fill-opacity:1;stroke-width:.509013;stroke-linecap:round;stroke-linejoin:round"/><path d="M348.459 53.297a84 84 0 0 0-7.43.514c-3.116 3.334-4.961 7.279-5.299 10.925-.21 2.27 5.903 15.09 10.002 29.024 4.08 13.864-20.207 10.955-29.232 16.33-14.036 8.359-18.326 35.9 5.04 41.762 19.092 4.788 36.33-5.174 48.738-16.403 7.982-7.224 24.325-22.83 23.795-44.798-.155-6.465-1.718-12.5-4.71-17.758-7.985-14.04-22.956-20.012-40.904-19.596" style="display:inline;fill:url(#U);fill-opacity:1;stroke-width:.67;stroke-linecap:round;stroke-linejoin:round"/><path d="M348.459 53.297c-5.983.139-12.297.986-18.793 2.482-9.337 2.15-21.39 6.312-34.377 13.131a85.18 85.18 0 0 0 69.727 36.256 85.2 85.2 0 0 0 28.091-4.766c2.125-10.134.71-19.678-3.744-27.507-7.985-14.04-22.955-20.013-40.904-19.596" style="mix-blend-mode:overlay;fill:url(#V);stroke-width:.722013;stroke-linecap:round;stroke-linejoin:round"/><path d="M348.459 53.297c-5.983.139-12.297.986-18.793 2.482-19.355 4.458-50.375 17.557-77.203 45.053-32.98 33.802-61.292 86.936-73.77 133.791-4.392 16.495-7.222 32.848-8.328 48.316-2.132 29.819-3.094 75.654 62.781 110.713 23.59 12.555 51.67 20.112 83.258 19.645 31.589.468 59.668-7.09 83.258-19.645 65.875-35.059 64.913-80.894 62.781-110.713-1.106-15.468-3.935-31.82-8.328-48.316-11.287-42.383-35.532-89.91-64.47-123.615 6.203-13.983 5.7-27.597-.282-38.115-7.985-14.04-22.955-20.013-40.904-19.596" style="display:inline;mix-blend-mode:multiply;fill:url(#W);fill-opacity:1;stroke-width:.67;stroke-linecap:round;stroke-linejoin:round"/><path d="M-2722.351-698.446c-59.675-1.974-96.891 13.648-105.06 32.083-8.17 18.46 12.685 39.734 69.102 49.112 94.127 15.573 145.214-3.331 151.705-26.826 6.49-23.495-31.59-51.58-115.747-54.369" style="fill:#f5b3cc;fill-opacity:1;stroke-width:24.6794" transform="rotate(-3.787 4601.288 -11072.458)scale(.12936)"/><path d="M-2722.351-698.446c-32.996-1.086-59.157 3.208-77.296 10.365a96.003 91.61 0 0 0 86.526 51.901 96.003 91.61 0 0 0 81.59-43.436c-19.25-10.02-49.482-17.473-90.82-18.83" style="mix-blend-mode:overlay;fill:url(#X);fill-opacity:1;stroke-width:190.943;stroke-linecap:round;stroke-linejoin:round" transform="rotate(-3.787 4601.288 -11072.458)scale(.12936)"/><path d="M-2722.351-698.446c-59.675-1.974-96.891 13.648-105.06 32.083-8.17 18.46 12.685 39.734 69.102 49.112 94.127 15.573 145.214-3.331 151.705-26.826 6.49-23.495-31.59-51.58-115.747-54.369" style="fill:#f5b3cc;fill-opacity:1;stroke-width:24.6794" transform="rotate(-3.787 4601.288 -11072.458)scale(.12936)"/><path d="M-2722.351-698.446c-32.996-1.086-59.157 3.208-77.296 10.365a96.003 91.61 0 0 0 86.526 51.901 96.003 91.61 0 0 0 81.59-43.436c-19.25-10.02-49.482-17.473-90.82-18.83" style="mix-blend-mode:overlay;fill:url(#Y);fill-opacity:1;stroke-width:190.943;stroke-linecap:round;stroke-linejoin:round" transform="rotate(-3.787 4601.288 -11072.458)scale(.12936)"/><path d="M-2790.886-691.116c-19.694 5.997-32.182 14.98-36.525 24.778-6.713 15.153 6.17 32.207 42.275 42.992a55.3 55.3 0 0 0 9.008-30.233 55.28 55.28 0 0 0-14.758-37.537" style="fill:url(#Z);fill-opacity:1;stroke-width:186.553;stroke-linecap:round;stroke-linejoin:round" transform="rotate(-3.787 4601.288 -11072.458)scale(.12936)"/><path d="M-2646.363-685.958a55.3 55.3 0 0 0-10.513 32.38 55.28 55.28 0 0 0 13.4 36.031c21.57-5.972 33.91-15.745 36.872-26.53 4.047-14.561-9.132-30.923-39.759-41.881" style="mix-blend-mode:multiply;fill:url(#aa);fill-opacity:.491554;stroke-width:186.553;stroke-linecap:round;stroke-linejoin:round" transform="rotate(-3.787 4601.288 -11072.458)scale(.12936)"/><path d="M-2722.351-698.446c-59.675-1.974-96.891 13.648-105.06 32.083-8.17 18.46 12.685 39.734 69.102 49.112 94.127 15.573 145.214-3.331 151.705-26.826 6.49-23.495-31.59-51.58-115.747-54.369" style="fill:#f5b3cc;fill-opacity:1;stroke-width:24.6794" transform="rotate(-176.213 -43.376 141.443)scale(.12936 -.12936)"/><path d="M-2722.351-698.446c-32.996-1.086-59.157 3.208-77.296 10.365a96.003 91.61 0 0 0 86.526 51.901 96.003 91.61 0 0 0 81.59-43.436c-19.25-10.02-49.482-17.473-90.82-18.83" style="mix-blend-mode:overlay;fill:url(#ab);fill-opacity:1;stroke-width:190.943;stroke-linecap:round;stroke-linejoin:round" transform="rotate(-176.213 -43.376 141.443)scale(.12936 -.12936)"/><path d="M-2722.351-698.446c-59.675-1.974-96.891 13.648-105.06 32.083-8.17 18.46 12.685 39.734 69.102 49.112 94.127 15.573 145.214-3.331 151.705-26.826 6.49-23.495-31.59-51.58-115.747-54.369" style="fill:#f5b3cc;fill-opacity:1;stroke-width:24.6794" transform="rotate(-176.213 -43.376 141.443)scale(.12936 -.12936)"/><path d="M-2722.351-698.446c-32.996-1.086-59.157 3.208-77.296 10.365a96.003 91.61 0 0 0 86.526 51.901 96.003 91.61 0 0 0 81.59-43.436c-19.25-10.02-49.482-17.473-90.82-18.83" style="mix-blend-mode:overlay;fill:url(#ac);fill-opacity:1;stroke-width:190.943;stroke-linecap:round;stroke-linejoin:round" transform="rotate(-176.213 -43.376 141.443)scale(.12936 -.12936)"/><path d="M-2790.886-691.116c-19.694 5.997-32.182 14.98-36.525 24.778-6.713 15.153 6.17 32.207 42.275 42.992a55.3 55.3 0 0 0 9.008-30.233 55.28 55.28 0 0 0-14.758-37.537" style="fill:url(#ad);fill-opacity:1;stroke-width:186.553;stroke-linecap:round;stroke-linejoin:round" transform="rotate(-176.213 -43.376 141.443)scale(.12936 -.12936)"/><path d="M-2646.363-685.958a55.3 55.3 0 0 0-10.513 32.38 55.28 55.28 0 0 0 13.4 36.031c21.57-5.972 33.91-15.745 36.872-26.53 4.047-14.561-9.132-30.923-39.759-41.881" style="mix-blend-mode:multiply;fill:url(#ae);fill-opacity:.491554;stroke-width:186.553;stroke-linecap:round;stroke-linejoin:round" transform="rotate(-176.213 -43.376 141.443)scale(.12936 -.12936)"/><path d="M315.49 187.582a116.485 116.485 0 0 0-116.486 116.484 116.49 116.49 0 0 0 54.826 98.83c18.782 6.892 39.764 10.739 62.574 10.4 21.066.313 40.571-2.944 58.225-8.872a116.49 116.49 0 0 0 57.346-100.358A116.485 116.485 0 0 0 315.49 187.582" style="opacity:1;mix-blend-mode:overlay;fill:url(#af);fill-opacity:.670588;stroke-width:.93536;stroke-linecap:round;stroke-linejoin:round"/><path d="M365.24 186.184c-10.8-2.934-15.76 5.578-17.26 9.55-.372.987-.95 2.933-.26 3.716.404.456 1.448-.641 4.186-3.733 6.08-6.87 12.88-4.978 18.49-.867 3.555 2.606 5.553 2.114 4.702-1.155-.856-3.286-5.198-6.243-9.857-7.511M283.6 186.184c10.802-2.934 15.763 5.578 17.261 9.55.373.987.951 2.933.26 3.716-.403.456-1.447-.641-4.185-3.733-6.08-6.87-12.88-4.978-18.49-.867-3.555 2.606-5.554 2.114-4.702-1.155.856-3.286 5.197-6.243 9.857-7.511" style="fill:#573d4b;fill-opacity:1;stroke-width:.730303" transform="translate(.293)"/><path d="M446.505 240.068c12.264 7.563 22.974 17.174 32.983 27.479 7.843 8.175 10.85 14.46 11.895 18.708 1.915 7.794-1.22 9.785-10.56 10.997-7.286.946-29.093 2.525-46.54-9.106-42.186-28.124-10.686-64.05 12.222-48.078" style="fill:#fddae5;fill-opacity:1;stroke-width:.67;stroke-linecap:round;stroke-linejoin:round"/><path d="M446.505 240.068c12.264 7.563 22.974 17.174 32.983 27.479 7.843 8.175 10.85 14.46 11.895 18.708 1.915 7.794-1.22 9.785-10.56 10.997-7.286.946-29.093 2.525-46.54-9.106-42.186-28.124-10.686-64.05 12.222-48.078" style="fill:#fddae5;fill-opacity:1;stroke-width:.67;stroke-linecap:round;stroke-linejoin:round"/><path d="M446.505 240.068c12.264 7.563 22.974 17.174 32.983 27.479 7.843 8.175 10.85 14.46 11.895 18.708 1.915 7.794-1.22 9.785-10.56 10.997-7.286.946-29.093 2.525-46.54-9.106-42.186-28.124-10.686-64.05 12.222-48.078" style="fill:url(#ag);fill-opacity:1;stroke-width:.67;stroke-linecap:round;stroke-linejoin:round"/><path d="M471.693 259.834a32.95 32.95 0 0 0-13.26 26.422 33 33 0 0 0 1.905 11.039c8.984 1.111 16.698.449 20.486-.043 9.339-1.212 12.474-3.203 10.559-10.996-1.044-4.248-4.052-10.534-11.895-18.71a261 261 0 0 0-7.795-7.712" style="mix-blend-mode:overlay;fill:url(#ah);fill-opacity:1;stroke-width:.67;stroke-linecap:round;stroke-linejoin:round"/><path d="m460.238 263.61-.342.12c-9.643 3.434-9.543 11.684-14.744 12.014-15.561.987-12.884 22.509 16.842 41.639q.178-2.136.297-4.147c1.323-11.052.79-21.389.152-30.297a237 237 0 0 0-2.205-19.33" style="mix-blend-mode:multiply;fill:url(#ai);stroke-width:.67;stroke-linecap:round;stroke-linejoin:round" transform="matrix(-1 0 0 1 632.809 0)"/><path d="M446.505 240.068c12.264 7.563 22.974 17.174 32.983 27.479 7.843 8.175 10.85 14.46 11.895 18.708 1.915 7.794-1.22 9.785-10.56 10.997-7.286.946-29.093 2.525-46.54-9.106-42.186-28.124-10.686-64.05 12.222-48.078" style="fill:#fddae5;fill-opacity:1;stroke-width:.67;stroke-linecap:round;stroke-linejoin:round" transform="matrix(-1 0 0 1 632.809 0)"/><path d="M446.505 240.068c12.264 7.563 22.974 17.174 32.983 27.479 7.843 8.175 10.85 14.46 11.895 18.708 1.915 7.794-1.22 9.785-10.56 10.997-7.286.946-29.093 2.525-46.54-9.106-42.186-28.124-10.686-64.05 12.222-48.078" style="fill:url(#aj);fill-opacity:1;stroke-width:.67;stroke-linecap:round;stroke-linejoin:round" transform="matrix(-1 0 0 1 632.809 0)"/><path d="M471.693 259.834a32.95 32.95 0 0 0-13.26 26.422 33 33 0 0 0 1.905 11.039c8.984 1.111 16.698.449 20.486-.043 9.339-1.212 12.474-3.203 10.559-10.996-1.044-4.248-4.052-10.534-11.895-18.71a261 261 0 0 0-7.795-7.712" style="mix-blend-mode:overlay;fill:url(#ak);fill-opacity:1;stroke-width:.67;stroke-linecap:round;stroke-linejoin:round" transform="matrix(-1 0 0 1 632.809 0)"/><path d="M348.459 53.297c-5.983.139-12.297.986-18.793 2.482-19.355 4.458-50.375 17.557-77.203 45.053-32.98 33.802-61.292 86.936-73.77 133.791-4.392 16.495-7.222 32.848-8.328 48.316-2.132 29.819-3.094 75.654 62.781 110.713 23.59 12.555 51.67 20.112 83.258 19.645 31.589.468 59.668-7.09 83.258-19.645 65.875-35.059 64.913-80.894 62.781-110.713-1.106-15.468-3.935-31.82-8.328-48.316-11.287-42.383-35.532-89.91-64.47-123.615 6.203-13.983 5.7-27.597-.282-38.115-7.985-14.04-22.955-20.013-40.904-19.596" style="display:inline;mix-blend-mode:multiply;fill:url(#al);fill-opacity:1;stroke-width:.67;stroke-linecap:round;stroke-linejoin:round"/><ellipse cx="324.714" cy="188.917" rx="67.882" ry="26.163" style="opacity:1;mix-blend-mode:overlay;fill:url(#am);fill-opacity:.670588;stroke-width:.67;stroke-linecap:round;stroke-linejoin:round"/><circle cx="315.489" cy="304.067" r="116.485" style="opacity:1;mix-blend-mode:overlay;fill:url(#an);fill-opacity:.670588;stroke-width:.93536;stroke-linecap:round;stroke-linejoin:round"/><path d="M306.576 63.518c-16.816 7.256-36.38 19.14-54.113 37.314-30.179 30.93-56.448 78.048-70.254 121.73a114 114 0 0 0 20.047 1.772A114.245 114.245 0 0 0 316.5 110.09a114.25 114.25 0 0 0-9.924-46.572" style="mix-blend-mode:multiply;fill:url(#ao);stroke-width:.67;stroke-linecap:round;stroke-linejoin:round"/><path d="M303.752 213.414c-.446.026-.61.196-.62.596-.21 12.643 3.078 38.85 20.6 39.115 17.521.26 22.146-25.832 22.573-38.472.012-.455-.19-.622-.79-.617-13.967 2.117-27.704 1.594-41.562-.619z" style="baseline-shift:baseline;display:inline;overflow:visible;vector-effect:none;fill:url(#ap);fill-opacity:1;stroke-width:4.45641;stroke-linecap:round;stroke-linejoin:round;stop-color:#000" transform="matrix(1.00874 0 0 .8936 -2.84 21.83)"/><path d="M325.404 228.307a29.05 35.254 84.456 0 0-4.832.195 29.05 35.254 84.456 0 0-15.35 4.566c2.575 10.34 7.965 19.897 18.51 20.057 10.799.16 16.697-9.688 19.735-20.229a29.05 35.254 84.456 0 0-18.063-4.59" style="baseline-shift:baseline;display:inline;overflow:visible;vector-effect:none;fill:#ffc7e2;fill-opacity:1;stroke-width:7.67524;stroke-linecap:round;stroke-linejoin:round;stop-color:#000" transform="matrix(1.00874 0 0 .8936 -2.84 21.83)"/><path d="M325.404 228.307a29.05 35.254 84.456 0 0-4.832.195 29.05 35.254 84.456 0 0-15.35 4.566c.42 1.686.915 3.351 1.495 4.957a26.75 26.75 0 0 0 19.207 8.133 26.75 26.75 0 0 0 13.765-3.814c1.585-2.888 2.823-6.133 3.778-9.448a29.05 35.254 84.456 0 0-18.063-4.59" style="opacity:1;mix-blend-mode:overlay;fill:url(#aq);stroke-width:.67;stroke-linecap:round;stroke-linejoin:round" transform="matrix(1.00874 0 0 .8936 -2.84 21.83)"/></g></svg>