<?xml version="1.0" encoding="UTF-8" standalone="no"?>
<!-- Created with Inkscape (http://www.inkscape.org/) -->

<svg
   version="1.1"
   id="svg1"
   width="3000"
   height="3600"
   viewBox="0 0 3000 3600"
   xml:space="preserve"
   xmlns:xlink="http://www.w3.org/1999/xlink"
   xmlns="http://www.w3.org/2000/svg"
   xmlns:svg="http://www.w3.org/2000/svg"><defs
     id="defs1"><linearGradient
       id="linearGradient140"><stop
         style="stop-color:#fcd8e2;stop-opacity:1;"
         offset="0"
         id="stop141" /><stop
         style="stop-color:#fcd8e2;stop-opacity:0;"
         offset="1"
         id="stop142" /></linearGradient><linearGradient
       id="linearGradient139"><stop
         style="stop-color:#fddee8;stop-opacity:0.73828125;"
         offset="0"
         id="stop139" /><stop
         style="stop-color:#fddee8;stop-opacity:0;"
         offset="1"
         id="stop140" /></linearGradient><linearGradient
       id="linearGradient64"><stop
         style="stop-color:#fddee8;stop-opacity:0.670588;"
         offset="0"
         id="stop71" /><stop
         style="stop-color:#fddee8;stop-opacity:0;"
         offset="1"
         id="stop72" /></linearGradient><linearGradient
       id="linearGradient40"><stop
         style="stop-color:#ffc7e2;stop-opacity:1;"
         offset="0"
         id="stop40" /><stop
         style="stop-color:#ffc7e2;stop-opacity:0;"
         offset="1"
         id="stop47" /></linearGradient><linearGradient
       id="linearGradient32"><stop
         style="stop-color:#ffb8db;stop-opacity:1;"
         offset="0"
         id="stop32" /><stop
         style="stop-color:#ffadd5;stop-opacity:1;"
         offset="1"
         id="stop39" /></linearGradient><linearGradient
       id="linearGradient225"><stop
         style="stop-color:#3d3664;stop-opacity:1;"
         offset="0"
         id="stop224" /><stop
         style="stop-color:#524785;stop-opacity:1;"
         offset="1"
         id="stop225" /></linearGradient><linearGradient
       id="linearGradient221"><stop
         style="stop-color:#fddae5;stop-opacity:1;"
         offset="0"
         id="stop221" /><stop
         style="stop-color:#fddae5;stop-opacity:0;"
         offset="1"
         id="stop222" /></linearGradient><linearGradient
       id="linearGradient212"><stop
         style="stop-color:#4d427c;stop-opacity:1;"
         offset="0"
         id="stop212" /><stop
         style="stop-color:#4d427c;stop-opacity:0;"
         offset="1"
         id="stop213" /></linearGradient><linearGradient
       id="linearGradient199"><stop
         style="stop-color:#e9a5b9;stop-opacity:1;"
         offset="0"
         id="stop199" /><stop
         style="stop-color:#e9a5b9;stop-opacity:0;"
         offset="1"
         id="stop200" /></linearGradient><linearGradient
       id="linearGradient196"><stop
         style="stop-color:#e9a5b9;stop-opacity:1;"
         offset="0"
         id="stop196" /><stop
         style="stop-color:#e9a5b9;stop-opacity:0;"
         offset="1"
         id="stop197" /></linearGradient><linearGradient
       id="linearGradient187"><stop
         style="stop-color:#fad2e5;stop-opacity:1;"
         offset="0"
         id="stop187" /><stop
         style="stop-color:#fad2e5;stop-opacity:0;"
         offset="1"
         id="stop188" /></linearGradient><linearGradient
       id="linearGradient185"><stop
         style="stop-color:#e9a5b9;stop-opacity:1;"
         offset="0"
         id="stop185" /><stop
         style="stop-color:#e9a5b9;stop-opacity:0;"
         offset="1"
         id="stop186" /></linearGradient><linearGradient
       id="linearGradient183"><stop
         style="stop-color:#e9a5b9;stop-opacity:1;"
         offset="0"
         id="stop183" /><stop
         style="stop-color:#e9a5b9;stop-opacity:0;"
         offset="1"
         id="stop184" /></linearGradient><linearGradient
       id="linearGradient180"><stop
         style="stop-color:#fcd4df;stop-opacity:1;"
         offset="0"
         id="stop180" /><stop
         style="stop-color:#fcd4df;stop-opacity:0;"
         offset="1"
         id="stop181" /></linearGradient><linearGradient
       id="linearGradient179"><stop
         style="stop-color:#e9a5b9;stop-opacity:1;"
         offset="0"
         id="stop178" /><stop
         style="stop-color:#e9a5b9;stop-opacity:0;"
         offset="1"
         id="stop179" /></linearGradient><linearGradient
       id="linearGradient177"><stop
         style="stop-color:#e9a5b9;stop-opacity:1;"
         offset="0"
         id="stop176" /><stop
         style="stop-color:#e9a5b9;stop-opacity:0;"
         offset="1"
         id="stop177" /></linearGradient><linearGradient
       id="linearGradient165"><stop
         style="stop-color:#e9a5b9;stop-opacity:1;"
         offset="0"
         id="stop165" /><stop
         style="stop-color:#e9a5b9;stop-opacity:0;"
         offset="1"
         id="stop166" /></linearGradient><linearGradient
       id="linearGradient162"><stop
         style="stop-color:#e9a5b9;stop-opacity:1;"
         offset="0"
         id="stop162" /><stop
         style="stop-color:#fad4e7;stop-opacity:0;"
         offset="1"
         id="stop163" /></linearGradient><linearGradient
       id="linearGradient152"><stop
         style="stop-color:#fddee8;stop-opacity:0.39195818;"
         offset="0"
         id="stop152" /><stop
         style="stop-color:#fddee8;stop-opacity:0;"
         offset="1"
         id="stop153" /></linearGradient><linearGradient
       id="linearGradient33"><stop
         style="stop-color:#feebf2;stop-opacity:1;"
         offset="0"
         id="stop37" /><stop
         style="stop-color:#feebf2;stop-opacity:0;"
         offset="1"
         id="stop38" /></linearGradient><linearGradient
       id="linearGradient30"><stop
         style="stop-color:#fdc9da;stop-opacity:1;"
         offset="0"
         id="stop29" /><stop
         style="stop-color:#fdc9da;stop-opacity:0;"
         offset="1"
         id="stop30" /></linearGradient><linearGradient
       id="linearGradient19"><stop
         style="stop-color:#fdc9da;stop-opacity:1;"
         offset="0"
         id="stop21" /><stop
         style="stop-color:#fdc9da;stop-opacity:0;"
         offset="1"
         id="stop22" /></linearGradient><linearGradient
       id="linearGradient7"><stop
         style="stop-color:#fee6ef;stop-opacity:1;"
         offset="0"
         id="stop17" /><stop
         style="stop-color:#fee6ef;stop-opacity:0;"
         offset="1"
         id="stop18" /></linearGradient><linearGradient
       id="H"><stop
         offset="0"
         style="stop-color:#f3aac5;stop-opacity:1"
         id="stop7" /><stop
         offset="1"
         style="stop-color:#f3aac5;stop-opacity:0"
         id="stop8" /></linearGradient><linearGradient
       id="G"><stop
         offset="0"
         style="stop-color:#f5b3cc;stop-opacity:.49155381"
         id="stop9" /><stop
         offset="1"
         style="stop-color:#f5b3cc;stop-opacity:0"
         id="stop10" /></linearGradient><linearGradient
       id="F"><stop
         offset="0"
         style="stop-color:#f5b3cc;stop-opacity:.8085677"
         id="stop11" /><stop
         offset="1"
         style="stop-color:#f5b3cc;stop-opacity:0"
         id="stop12" /></linearGradient><radialGradient
       xlink:href="#linearGradient7"
       id="radialGradient18"
       cx="348.71021"
       cy="40.590038"
       fx="348.71021"
       fy="40.590038"
       r="79.040977"
       gradientUnits="userSpaceOnUse"
       gradientTransform="matrix(1.0776316,0,0,1.0776316,-10.76517,-16.196965)" /><linearGradient
       xlink:href="#linearGradient19"
       id="linearGradient22"
       x1="335.82843"
       y1="171.4935"
       x2="338.63086"
       y2="142.35547"
       gradientUnits="userSpaceOnUse" /><linearGradient
       xlink:href="#linearGradient30"
       id="linearGradient23"
       gradientUnits="userSpaceOnUse"
       x1="394.08603"
       y1="145.25795"
       x2="362.44263"
       y2="119.54803" /><radialGradient
       xlink:href="#linearGradient33"
       id="radialGradient148"
       cx="330.46634"
       cy="104.20677"
       fx="330.46634"
       fy="104.20677"
       r="15.672996"
       gradientTransform="matrix(1.6442032,-0.58332407,0.4472155,1.2605568,-263.2946,168.73464)"
       gradientUnits="userSpaceOnUse" /><radialGradient
       xlink:href="#linearGradient152"
       id="radialGradient153"
       cx="331.14551"
       cy="123.08178"
       fx="331.14551"
       fy="123.08178"
       r="17.829765"
       gradientUnits="userSpaceOnUse"
       gradientTransform="matrix(1.0370201,0.29958466,-0.27754057,0.96071392,15.365459,-89.003765)" /><linearGradient
       xlink:href="#linearGradient179"
       id="linearGradient153"
       gradientUnits="userSpaceOnUse"
       x1="292.26822"
       y1="146.45984"
       x2="314.26559"
       y2="138.3783" /><linearGradient
       xlink:href="#linearGradient162"
       id="linearGradient163"
       x1="316.4043"
       y1="448.3053"
       x2="316.4043"
       y2="390.54037"
       gradientUnits="userSpaceOnUse" /><linearGradient
       xlink:href="#linearGradient177"
       id="linearGradient166"
       x1="348.31213"
       y1="399.98264"
       x2="362.79568"
       y2="417.43768"
       gradientUnits="userSpaceOnUse" /><linearGradient
       xlink:href="#linearGradient165"
       id="linearGradient171"
       gradientUnits="userSpaceOnUse"
       x1="348.31213"
       y1="399.98264"
       x2="362.79568"
       y2="417.43768"
       gradientTransform="matrix(-1,0,0,1,632.80859,0)" /><linearGradient
       xlink:href="#linearGradient180"
       id="linearGradient181"
       x1="316.4043"
       y1="440.2879"
       x2="316.4043"
       y2="103.61069"
       gradientUnits="userSpaceOnUse" /><linearGradient
       xlink:href="#linearGradient183"
       id="linearGradient184"
       x1="461.4014"
       y1="319.18152"
       x2="462.82983"
       y2="289.01523"
       gradientUnits="userSpaceOnUse" /><linearGradient
       xlink:href="#linearGradient185"
       id="linearGradient186"
       x1="463.10873"
       y1="289.02753"
       x2="450.28543"
       y2="303.2811"
       gradientUnits="userSpaceOnUse" /><radialGradient
       xlink:href="#linearGradient187"
       id="radialGradient188"
       cx="499.15771"
       cy="278.10806"
       fx="499.15771"
       fy="278.10806"
       r="16.743139"
       gradientTransform="matrix(0.93852063,-0.34522316,0.6671217,1.8136312,-162.08187,-61.776043)"
       gradientUnits="userSpaceOnUse" /><linearGradient
       xlink:href="#linearGradient185"
       id="linearGradient192"
       gradientUnits="userSpaceOnUse"
       x1="463.10873"
       y1="289.02753"
       x2="450.28543"
       y2="303.2811" /><linearGradient
       xlink:href="#linearGradient183"
       id="linearGradient193"
       gradientUnits="userSpaceOnUse"
       x1="461.4014"
       y1="319.18152"
       x2="462.82983"
       y2="289.01523" /><radialGradient
       xlink:href="#linearGradient187"
       id="radialGradient193"
       gradientUnits="userSpaceOnUse"
       gradientTransform="matrix(0.93852063,-0.34522316,0.6671217,1.8136312,-162.08187,-61.776043)"
       cx="499.15771"
       cy="278.10806"
       fx="499.15771"
       fy="278.10806"
       r="16.743139" /><linearGradient
       xlink:href="#linearGradient196"
       id="linearGradient197"
       x1="232.62584"
       y1="320.34085"
       x2="143.94829"
       y2="320.34085"
       gradientUnits="userSpaceOnUse" /><radialGradient
       xlink:href="#linearGradient199"
       id="radialGradient200"
       cx="113.4274"
       cy="295.78729"
       fx="113.4274"
       fy="295.78729"
       r="67.306221"
       gradientUnits="userSpaceOnUse"
       gradientTransform="translate(17.7918,-7.6411625)" /><linearGradient
       xlink:href="#linearGradient225"
       id="linearGradient209"
       gradientUnits="userSpaceOnUse"
       gradientTransform="matrix(1.0206303,0,0,1.0206303,-9.2848108,-3.6490568)"
       x1="383.21548"
       y1="175.99319"
       x2="533.78442"
       y2="132.03812" /><linearGradient
       xlink:href="#linearGradient212"
       id="linearGradient213"
       x1="466.89185"
       y1="241.38852"
       x2="452.45627"
       y2="220.99879"
       gradientUnits="userSpaceOnUse" /><linearGradient
       xlink:href="#linearGradient221"
       id="linearGradient222"
       x1="424.1842"
       y1="116.23611"
       x2="436.21265"
       y2="161.89462"
       gradientUnits="userSpaceOnUse"
       gradientTransform="translate(1.028409e-5)" /><linearGradient
       xlink:href="#linearGradient225"
       id="linearGradient233"
       gradientUnits="userSpaceOnUse"
       gradientTransform="matrix(1.0206303,0,0,1.0206303,-9.2848108,-3.6490568)"
       x1="383.21548"
       y1="175.99319"
       x2="533.78442"
       y2="132.03812" /><linearGradient
       xlink:href="#linearGradient221"
       id="linearGradient234"
       gradientUnits="userSpaceOnUse"
       gradientTransform="translate(1.028409e-5)"
       x1="424.1842"
       y1="116.23611"
       x2="436.21265"
       y2="161.89462" /><linearGradient
       xlink:href="#linearGradient212"
       id="linearGradient235"
       gradientUnits="userSpaceOnUse"
       x1="466.89185"
       y1="241.38852"
       x2="452.45627"
       y2="220.99879" /><linearGradient
       xlink:href="#linearGradient162"
       id="linearGradient238"
       gradientUnits="userSpaceOnUse"
       x1="316.4043"
       y1="448.3053"
       x2="315.96432"
       y2="404.29437" /><linearGradient
       xlink:href="#F"
       id="linearGradient239"
       gradientUnits="userSpaceOnUse"
       gradientTransform="matrix(24.67943,0,0,24.67943,-4272.2192,-1814.1289)"
       x1="62.757"
       y1="44.98"
       x2="62.743"
       y2="45.896999" /><linearGradient
       xlink:href="#F"
       id="linearGradient240"
       gradientUnits="userSpaceOnUse"
       gradientTransform="matrix(24.67943,0,0,24.67943,-4272.2192,-1814.1289)"
       x1="62.757"
       y1="44.98"
       x2="62.743"
       y2="45.896999" /><linearGradient
       xlink:href="#H"
       id="linearGradient241"
       gradientUnits="userSpaceOnUse"
       gradientTransform="matrix(24.67943,0,0,24.67943,-4272.2192,-1814.1289)"
       x1="58.473999"
       y1="46.876999"
       x2="59.667999"
       y2="46.811001" /><linearGradient
       xlink:href="#G"
       id="linearGradient242"
       gradientUnits="userSpaceOnUse"
       gradientTransform="matrix(24.67943,0,0,24.67943,-4272.2192,-1814.1289)"
       x1="67.489998"
       y1="47.41"
       x2="66.480003"
       y2="47.208" /><linearGradient
       xlink:href="#F"
       id="linearGradient250"
       gradientUnits="userSpaceOnUse"
       gradientTransform="matrix(24.67943,0,0,24.67943,-4272.2192,-1814.1289)"
       x1="62.757"
       y1="44.98"
       x2="62.743"
       y2="45.896999" /><linearGradient
       xlink:href="#F"
       id="linearGradient251"
       gradientUnits="userSpaceOnUse"
       gradientTransform="matrix(24.67943,0,0,24.67943,-4272.2192,-1814.1289)"
       x1="62.757"
       y1="44.98"
       x2="62.743"
       y2="45.896999" /><linearGradient
       xlink:href="#H"
       id="linearGradient252"
       gradientUnits="userSpaceOnUse"
       gradientTransform="matrix(24.67943,0,0,24.67943,-4272.2192,-1814.1289)"
       x1="58.473999"
       y1="46.876999"
       x2="59.667999"
       y2="46.811001" /><linearGradient
       xlink:href="#G"
       id="linearGradient253"
       gradientUnits="userSpaceOnUse"
       gradientTransform="matrix(24.67943,0,0,24.67943,-4272.2192,-1814.1289)"
       x1="67.489998"
       y1="47.41"
       x2="66.480003"
       y2="47.208" /><linearGradient
       xlink:href="#linearGradient32"
       id="linearGradient39"
       x1="303.12344"
       y1="233.27045"
       x2="329.65594"
       y2="241.00858"
       gradientUnits="userSpaceOnUse" /><radialGradient
       xlink:href="#linearGradient40"
       id="radialGradient47"
       cx="318.79291"
       cy="186.77361"
       fx="318.79291"
       fy="186.77361"
       r="26.75"
       gradientUnits="userSpaceOnUse"
       gradientTransform="translate(7.4246212,23.157747)" /><radialGradient
       xlink:href="#linearGradient64"
       id="radialGradient72"
       cx="327.14044"
       cy="208.87418"
       fx="327.14044"
       fy="208.87418"
       r="67.882248"
       gradientTransform="matrix(1,0,0,0.38541668,-6.2115868,112.8807)"
       gradientUnits="userSpaceOnUse" /><radialGradient
       xlink:href="#linearGradient139"
       id="radialGradient140"
       cx="320.31937"
       cy="203.64676"
       fx="320.31937"
       fy="203.64676"
       r="83.438599"
       gradientUnits="userSpaceOnUse"
       gradientTransform="matrix(1.3960604,0,0,1.3960604,-131.69593,19.764184)" /><radialGradient
       xlink:href="#linearGradient140"
       id="radialGradient142"
       cx="397.53958"
       cy="122.96806"
       fx="397.53958"
       fy="122.96806"
       r="114.2449"
       gradientUnits="userSpaceOnUse"
       gradientTransform="translate(-227.83974,-4.1550614)" /><radialGradient
       xlink:href="#linearGradient140"
       id="radialGradient143"
       gradientUnits="userSpaceOnUse"
       gradientTransform="matrix(-1,0,0,1,860.64833,-4.1550614)"
       cx="389.1741"
       cy="130.23822"
       fx="389.1741"
       fy="130.23822"
       r="114.2449" /><radialGradient
       xlink:href="#linearGradient139"
       id="radialGradient147"
       gradientUnits="userSpaceOnUse"
       gradientTransform="matrix(1.3960604,0,0,1.3960604,-131.69593,19.764184)"
       cx="320.31937"
       cy="203.64676"
       fx="320.31937"
       fy="203.64676"
       r="83.438599" /></defs><g
     id="g147"
     transform="matrix(6.5132872,0,0,6.5132872,-565.30374,169.62556)"><g
       id="g229"
       transform="matrix(-1,0,0,1,634.18169,-7.202888)"><path
         style="opacity:1;fill:url(#linearGradient233);stroke-width:0.683822;stroke-linecap:round;stroke-linejoin:round"
         d="m 513.77256,152.71741 c -3.98379,27.68941 -38.06816,71.22061 -57.94206,94.64376 0,0 -30.86626,-23.89693 -43.24446,-46.31603 -12.37818,-22.41911 -22.76432,-56.74146 -27.39987,-74.33668 -4.63555,-17.59522 -11.43796,-16.23214 -10.10008,-16.5948 22.98831,-12.020508 141.54219,22.7549 138.68647,42.60375 z"
         id="path227"
         transform="matrix(1.0098885,0,0,1,-3.7073398,1.2272137)" /><path
         style="mix-blend-mode:overlay;fill:url(#linearGradient234);stroke-width:0.687195;stroke-linecap:round;stroke-linejoin:round"
         d="m 515.14566,153.94462 c -4.02318,27.68942 -38.4446,71.22062 -58.51502,94.64377 0,0 -31.17148,-23.89693 -43.67208,-46.31603 -12.50058,-22.41911 -22.98943,-56.74147 -27.67082,-74.33669 -4.68138,-17.59521 -11.55106,-16.23213 -10.19995,-16.59479 23.21563,-12.020503 142.94183,22.75489 140.05787,42.60374 z"
         id="path228" /><path
         id="path229"
         style="opacity:1;mix-blend-mode:multiply;fill:url(#linearGradient235);fill-opacity:1;stroke-width:0.67;stroke-linecap:round;stroke-linejoin:round"
         d="m 501.50586,187.58203 c -20.90375,13.68488 -41.51969,27.6841 -65.33203,35.98438 -1.39241,0.74983 -2.94948,1.61847 -4.19922,2.91015 12.28203,12.62613 24.65625,22.11133 24.65625,22.11133 12.99083,-15.16092 31.99415,-38.74496 44.875,-61.00586 z" /></g><g
       id="g227"><path
         style="opacity:1;fill:url(#linearGradient209);stroke-width:0.683822;stroke-linecap:round;stroke-linejoin:round"
         d="m 513.77256,152.71741 c -3.98379,27.68941 -38.06816,71.22061 -57.94206,94.64376 0,0 -30.86626,-23.89693 -43.24446,-46.31603 -12.37818,-22.41911 -22.76432,-56.74146 -27.39987,-74.33668 -4.63555,-17.59522 -11.43796,-16.23214 -10.10008,-16.5948 22.98831,-12.020508 141.54219,22.7549 138.68647,42.60375 z"
         id="path207"
         transform="matrix(1.0098885,0,0,1,-3.7073398,1.2272137)" /><path
         style="mix-blend-mode:overlay;fill:url(#linearGradient222);stroke-width:0.687195;stroke-linecap:round;stroke-linejoin:round"
         d="m 515.14566,153.94462 c -4.02318,27.68942 -38.4446,71.22062 -58.51502,94.64377 0,0 -31.17148,-23.89693 -43.67208,-46.31603 -12.50058,-22.41911 -22.98943,-56.74147 -27.67082,-74.33669 -4.68138,-17.59521 -11.55106,-16.23213 -10.19995,-16.59479 23.21563,-12.020503 142.94183,22.75489 140.05787,42.60374 z"
         id="path220" /><path
         id="path210"
         style="opacity:1;mix-blend-mode:multiply;fill:url(#linearGradient213);fill-opacity:1;stroke-width:0.67;stroke-linecap:round;stroke-linejoin:round"
         d="m 501.50586,187.58203 c -20.90375,13.68488 -41.51969,27.6841 -65.33203,35.98438 -1.39241,0.74983 -2.94948,1.61847 -4.19922,2.91015 12.28203,12.62613 24.65625,22.11133 24.65625,22.11133 12.99083,-15.16092 31.99415,-38.74496 44.875,-61.00586 z" /></g><path
       style="fill:#e9a5b9;fill-opacity:1;stroke-width:0.67;stroke-linecap:round;stroke-linejoin:round"
       d="m 149.90157,283.35171 c -1.13236,2.40917 -3.39709,7.22752 -4.7326,13.29809 -2.98966,13.58952 -1.49882,39.42101 16.09177,64.10418 9.22938,12.95069 21.6514,23.40454 35.938,27.57653 1.33474,0.38977 4.17121,0.0147 12.24941,-17.19483 8.0782,-17.20953 21.45326,-51.63701 23.01925,-75.8786 1.56599,-24.24158 -8.67695,-38.29602 -21.90669,-41.95257 -13.22975,-3.65654 -29.44546,3.08481 -39.8644,9.42423 -10.41895,6.33943 -15.04061,12.27656 -17.3515,15.24519 -2.31088,2.96863 -2.31088,2.9686 -3.44324,5.37778 z"
       id="path194" /><path
       id="path197"
       style="mix-blend-mode:overlay;fill:url(#radialGradient200);stroke-width:0.67;stroke-linecap:round;stroke-linejoin:round"
       d="m 189.40625,254.31641 c -6.94821,2.02428 -13.54124,5.26778 -18.70898,8.41211 -10.41895,6.33943 -15.04068,12.27746 -17.35157,15.24609 -2.31088,2.96863 -2.311,2.96777 -3.44336,5.37695 -1.13236,2.40917 -3.39691,7.22826 -4.73242,13.29883 -2.599,11.81379 -1.81268,32.87846 9.99414,54.39844 a 67.306221,67.306221 0 0 0 43.36133,-62.90235 67.306221,67.306221 0 0 0 -9.11914,-33.83007 z" /><path
       style="mix-blend-mode:multiply;fill:url(#linearGradient197);fill-opacity:1;stroke-width:0.67;stroke-linecap:round;stroke-linejoin:round"
       d="m 149.90157,283.35171 c -1.13236,2.40917 -3.39709,7.22752 -4.7326,13.29809 -2.98966,13.58952 -1.49882,39.42101 16.09177,64.10418 9.22938,12.95069 21.6514,23.40454 35.938,27.57653 1.33474,0.38977 4.17121,0.0147 12.24941,-17.19483 8.0782,-17.20953 21.45326,-51.63701 23.01925,-75.8786 1.56599,-24.24158 -8.67695,-38.29602 -21.90669,-41.95257 -13.22975,-3.65654 -29.44546,3.08481 -39.8644,9.42423 -10.41895,6.33943 -15.04061,12.27656 -17.3515,15.24519 -2.31088,2.96863 -2.31088,2.9686 -3.44324,5.37778 z"
       id="path196" /><path
       id="path158"
       style="fill:#fad4e7;fill-opacity:1;stroke-width:0.67;stroke-linecap:round;stroke-linejoin:round"
       d="m 386.32422,394.73633 c -15.04166,6.04743 -56.72873,13.30624 -98.78516,7.37305 -9.75338,-1.376 -17.03823,-3.23783 -21.32812,-4.6543 -4.28989,-1.41647 -5.5845,-2.38798 -5.625,-1.90235 -0.0405,0.48563 1.1743,2.42984 3.23828,4.61524 11.26924,11.61573 8.08281,11.45133 6.35351,28.44922 -0.42182,3.55044 -0.72144,5.29932 -0.84179,7.90625 5.04584,-6.74647 10.01286,-15.17483 15.42773,-25.52344 10.09487,1.65095 20.65588,2.45949 31.64063,2.29688 10.98475,0.16261 21.54576,-0.64593 31.64062,-2.29688 5.34997,10.22457 10.26253,18.57577 15.2461,25.28125 0.54312,-2.82263 0.41089,-4.82805 0.36914,-6.60352 -0.11106,-4.72037 0.86526,-17.61638 13.70703,-26.41211 2.08902,-1.43083 5.0075,-3.60702 6.63867,-5.15234 1.63118,-1.54532 1.97496,-2.46122 2.31836,-3.37695 z" /><path
       id="path11"
       style="fill:#fddee8;fill-opacity:1;stroke-width:0.67;stroke-linecap:round;stroke-linejoin:round"
       d="m 348.45898,53.296875 c -5.98285,0.138793 -12.29695,0.986313 -18.79296,2.482422 -19.3547,4.457611 -50.37493,17.556647 -77.20313,45.052733 -32.98037,33.80185 -61.29156,86.93547 -73.76953,133.79102 -4.39278,16.4952 -7.22223,32.84797 -8.32813,48.3164 -0.63685,8.90783 -1.17026,19.24464 0.15235,30.29688 1.28072,21.39895 6.92264,53.56628 38.4707,93.63672 6.94362,8.81938 14.77588,17.3748 20.92969,23.23242 6.1538,5.85762 10.63012,9.01627 14.25,11.48437 7.02728,5.12527 12.2531,9.00097 19.41406,1.84375 7.12695,-7.58892 13.73055,-18.19346 21.18164,-32.43359 10.09487,1.65095 20.65588,2.45949 31.64063,2.29688 10.98475,0.16261 21.54576,-0.64593 31.64062,-2.29688 7.45109,14.24013 14.0547,24.84467 21.18164,32.43359 7.16096,7.15722 12.38678,3.28152 19.41406,-1.84375 3.61988,-2.4681 8.09621,-5.62675 14.25,-11.48437 6.15382,-5.85762 13.98607,-14.41304 20.92969,-23.23242 31.54807,-40.07044 37.18998,-72.23777 38.47071,-93.63672 1.3226,-11.05224 0.7892,-21.38905 0.15234,-30.29688 -1.1059,-15.46843 -3.93535,-31.8212 -8.32813,-48.3164 -11.28685,-42.38284 -35.5318,-89.91021 -64.4707,-123.61524 6.20301,-13.983113 5.70129,-27.596805 -0.28125,-38.115232 -7.98543,-14.039888 -22.95574,-20.012083 -40.9043,-19.595703 z" /><path
       id="path180"
       style="fill:url(#linearGradient181);fill-opacity:1;stroke-width:0.67;stroke-linecap:round;stroke-linejoin:round"
       d="m 348.45898,53.296875 c -5.98285,0.138793 -12.29695,0.986313 -18.79296,2.482422 -19.3547,4.457611 -50.37493,17.556647 -77.20313,45.052733 -32.98037,33.80185 -61.29156,86.93547 -73.76953,133.79102 -4.39278,16.4952 -7.22223,32.84797 -8.32813,48.3164 -0.63685,8.90783 -1.17026,19.24464 0.15235,30.29688 1.28072,21.39895 6.92264,53.56628 38.4707,93.63672 6.94362,8.81938 14.77588,17.3748 20.92969,23.23242 6.1538,5.85762 10.63012,9.01627 14.25,11.48437 7.02728,5.12527 12.2531,9.00097 19.41406,1.84375 7.12695,-7.58892 13.73055,-18.19346 21.18164,-32.43359 10.09487,1.65095 20.65588,2.45949 31.64063,2.29688 10.98475,0.16261 21.54576,-0.64593 31.64062,-2.29688 7.45109,14.24013 14.0547,24.84467 21.18164,32.43359 7.16096,7.15722 12.38678,3.28152 19.41406,-1.84375 3.61988,-2.4681 8.09621,-5.62675 14.25,-11.48437 6.15382,-5.85762 13.98607,-14.41304 20.92969,-23.23242 31.54807,-40.07044 37.18998,-72.23777 38.47071,-93.63672 1.3226,-11.05224 0.7892,-21.38905 0.15234,-30.29688 -1.1059,-15.46843 -3.93535,-31.8212 -8.32813,-48.3164 -11.28685,-42.38284 -35.5318,-89.91021 -64.4707,-123.61524 6.20301,-13.983113 5.70129,-27.596805 -0.28125,-38.115232 -7.98543,-14.039888 -22.95574,-20.012083 -40.9043,-19.595703 z" /><circle
       style="mix-blend-mode:multiply;fill:url(#radialGradient153);stroke-width:0.67;stroke-linecap:round;stroke-linejoin:round"
       id="path152"
       cx="334.03793"
       cy="132.06499"
       r="17.829765" /><path
       id="path161"
       style="fill:url(#linearGradient166);fill-opacity:1;stroke-width:0.67;stroke-linecap:round;stroke-linejoin:round"
       d="m 376.75781,403.69336 c -9.0826,3.18716 -18.66768,5.66375 -28.71289,7.30664 5.35014,10.2249 10.26244,18.57611 15.2461,25.28125 0.49509,-13.04039 2.59232,-23.70564 13.46679,-32.58789 z" /><path
       id="path169"
       style="fill:url(#linearGradient171);fill-opacity:1;stroke-width:0.67;stroke-linecap:round;stroke-linejoin:round"
       d="m 256.05078,403.69336 c 9.0826,3.18716 18.66768,5.66375 28.71289,7.30664 -5.35014,10.2249 -10.26244,18.57611 -15.2461,25.28125 -0.49509,-13.04039 -2.59232,-23.70564 -13.46679,-32.58789 z" /><path
       id="path184"
       style="mix-blend-mode:multiply;fill:url(#linearGradient186);stroke-width:0.67;stroke-linecap:round;stroke-linejoin:round"
       d="m 460.23828,263.60938 c -0.1148,0.0402 -0.22865,0.0808 -0.3418,0.12109 -9.64383,3.43403 -9.54311,11.68374 -14.74414,12.01367 -15.56142,0.98714 -12.8847,22.50858 16.8418,41.63867 0.11974,-1.42421 0.21665,-2.80607 0.29688,-4.14648 1.3226,-11.05224 0.7892,-21.38905 0.15234,-30.29688 -0.45132,-6.31275 -1.19053,-12.77317 -2.20508,-19.33007 z" /><path
       style="display:inline;fill:#fddee8;fill-opacity:1;stroke-width:0.67;stroke-linecap:round;stroke-linejoin:round"
       d="m 348.45898,53.296875 c -2.42531,0.05627 -4.90545,0.228482 -7.42968,0.513672 -3.11615,3.334706 -4.96161,7.279232 -5.29883,10.925781 -0.2099,2.269731 5.9021,15.089753 10.00195,29.023438 4.07955,13.864694 8.96369,37.773774 -12.1543,39.085934 -2.60723,0.162 -3.345,-0.30375 -4.08398,-0.76953 4.53,-5.60855 8.19598,-10.38159 7.53906,-15.63672 -1.14408,-9.15225 -11.50827,-11.72434 -20.5332,-6.34961 -5.39454,3.21267 -10.08252,9.2933 -11.26562,18.63477 -1.51682,11.97646 5.18665,20.33795 16.30651,23.12712 19.09096,4.78854 36.32852,-5.17386 48.73702,-16.40313 7.98184,-7.2233 24.32493,-22.8305 23.79556,-44.797659 -0.15579,-6.464987 -1.71892,-12.499161 -4.71019,-17.758363 -7.98555,-14.039271 -22.9561,-20.012074 -40.9043,-19.595703 z"
       id="path26" /><path
       id="path140"
       style="mix-blend-mode:multiply;fill:url(#radialGradient143);stroke-width:0.67;stroke-linecap:round;stroke-linejoin:round"
       d="m 348.45898,53.296875 c -5.85056,0.135724 -12.01884,0.949815 -18.36328,2.384766 a 114.2449,114.2449 0 0 0 -13.78711,54.408199 114.2449,114.2449 0 0 0 114.24414,114.24414 114.2449,114.2449 0 0 0 20.04688,-1.77148 C 438.23352,183.43584 415.86582,141.54765 389.64453,111.00781 395.84754,97.024693 395.34582,83.411008 389.36328,72.892578 381.37785,58.8527 366.40754,52.880495 348.45898,53.296875 Z" /><path
       id="path65"
       style="fill:#fddee8;fill-opacity:1;stroke-width:0.880746;stroke-linecap:round;stroke-linejoin:round"
       d="m 326.66211,107.32422 c -3.20417,-0.14745 -6.77776,0.7501 -10.16211,2.76562 -5.39454,3.21267 -10.08252,9.2933 -11.26562,18.63477 -0.45395,3.58427 -0.17247,6.84427 0.74414,9.72851 a 23.725893,23.725893 0 0 0 13.0371,3.90235 23.725893,23.725893 0 0 0 19.61524,-10.37695 c -1.48954,0.45386 -3.16804,0.75008 -5.05274,0.86718 -2.60723,0.162 -3.345,-0.30375 -4.08398,-0.76953 4.53,-5.60855 8.19598,-10.38159 7.53906,-15.63672 -0.71505,-5.72015 -5.0308,-8.86948 -10.37109,-9.11523 z" /><path
       id="path18"
       style="display:inline;fill:url(#linearGradient22);fill-opacity:1;stroke-width:0.67;stroke-linecap:round;stroke-linejoin:round"
       d="m 348.45898,53.296875 c -2.42531,0.05627 -4.90545,0.228482 -7.42968,0.513672 -3.11615,3.334706 -4.96161,7.279232 -5.29883,10.925781 -0.2099,2.269731 5.9021,15.089753 10.00195,29.023438 4.07955,13.864694 -20.20749,10.955344 -29.23242,16.330074 -14.03586,8.35893 -18.32596,35.90083 5.04089,41.76189 19.09096,4.78854 36.32852,-5.17386 48.73702,-16.40313 7.98184,-7.2233 24.32493,-22.8305 23.79556,-44.797659 -0.15579,-6.464987 -1.71892,-12.499161 -4.71019,-17.758363 -7.98555,-14.039271 -22.9561,-20.012074 -40.9043,-19.595703 z" /><path
       id="path22"
       style="display:inline;fill:url(#linearGradient23);fill-opacity:1;stroke-width:0.67;stroke-linecap:round;stroke-linejoin:round"
       d="m 348.45898,53.296875 c -2.42531,0.05627 -4.90545,0.228482 -7.42968,0.513672 -3.11615,3.334706 -4.96161,7.279232 -5.29883,10.925781 -0.2099,2.269731 5.9021,15.089753 10.00195,29.023438 4.07955,13.864694 -20.20749,10.955344 -29.23242,16.330074 -14.03586,8.35893 -18.32596,35.90083 5.04089,41.76189 19.09096,4.78854 36.32852,-5.17386 48.73702,-16.40313 7.98184,-7.2233 24.32493,-22.8305 23.79556,-44.797659 -0.15579,-6.464987 -1.71892,-12.499161 -4.71019,-17.758363 -7.98555,-14.039271 -22.9561,-20.012074 -40.9043,-19.595703 z" /><path
       id="path33"
       style="fill:url(#radialGradient148);fill-opacity:1;stroke-width:0.509013;stroke-linecap:round;stroke-linejoin:round"
       d="m 326.66211,107.32422 c -3.20417,-0.14745 -6.77776,0.7501 -10.16211,2.76562 -4.78765,2.85125 -9.01788,7.96166 -10.73633,15.60547 6.65706,6.0887 15.14428,7.98318 23.73047,6.38086 4.53,-5.60855 8.19598,-10.38159 7.53906,-15.63672 -0.71505,-5.72015 -5.0308,-8.86948 -10.37109,-9.11523 z" /><path
       id="path153"
       style="display:inline;fill:url(#linearGradient153);fill-opacity:1;stroke-width:0.67;stroke-linecap:round;stroke-linejoin:round"
       d="m 348.45898,53.296875 c -2.42531,0.05627 -4.90545,0.228482 -7.42968,0.513672 -3.11615,3.334706 -4.96161,7.279232 -5.29883,10.925781 -0.2099,2.269731 5.9021,15.089753 10.00195,29.023438 4.07955,13.864694 -20.20749,10.955344 -29.23242,16.330074 -14.03586,8.35893 -18.32596,35.90083 5.04089,41.76189 19.09096,4.78854 36.32852,-5.17386 48.73702,-16.40313 7.98184,-7.2233 24.32493,-22.8305 23.79556,-44.797659 -0.15579,-6.464987 -1.71892,-12.499161 -4.71019,-17.758363 -7.98555,-14.039271 -22.9561,-20.012074 -40.9043,-19.595703 z" /><path
       id="path7"
       style="mix-blend-mode:overlay;fill:url(#radialGradient18);stroke-width:0.722013;stroke-linecap:round;stroke-linejoin:round"
       d="m 348.45898,53.296875 c -5.98285,0.138793 -12.29695,0.986313 -18.79296,2.482422 -9.33739,2.150508 -21.38996,6.311616 -34.37696,13.130859 a 85.177055,85.177055 0 0 0 69.72656,36.255864 85.177055,85.177055 0 0 0 28.0918,-4.76563 C 395.2322,90.265566 393.81627,80.72176 389.36328,72.892578 381.37785,58.85269 366.40754,52.880495 348.45898,53.296875 Z" /><path
       id="path154"
       style="display:inline;mix-blend-mode:multiply;fill:url(#linearGradient163);fill-opacity:1;stroke-width:0.67;stroke-linecap:round;stroke-linejoin:round"
       d="m 348.45898,53.296874 c -5.98285,0.138793 -12.29695,0.986313 -18.79296,2.482422 -19.3547,4.457606 -50.37493,17.556644 -77.20313,45.052734 -32.98037,33.80185 -61.29156,86.93547 -73.76953,133.79102 -4.39278,16.4952 -7.22223,32.84797 -8.32813,48.3164 -2.13185,29.81855 -3.09394,75.65353 62.78125,110.71289 23.5901,12.55487 51.66949,20.11215 83.25782,19.64454 31.58833,0.46762 59.66771,-7.08967 83.25781,-19.64454 65.87519,-35.05936 64.9131,-80.89434 62.78125,-110.71289 -1.1059,-15.46843 -3.93535,-31.8212 -8.32813,-48.3164 -11.28685,-42.38284 -35.5318,-89.91021 -64.4707,-123.61524 6.20301,-13.98312 5.70129,-27.59681 -0.28125,-38.11524 -7.98543,-14.039878 -22.95574,-20.012076 -40.9043,-19.595696 z" /><g
       id="g239"
       transform="matrix(0.12907663,-0.00854336,0.00854336,0.12907663,741.31273,279.71221)"><path
         d="m -2722.351,-698.44591 c -59.6749,-1.97435 -96.8914,13.64773 -105.0603,32.08326 -8.1689,18.46021 12.6852,39.73388 69.1024,49.11207 94.1273,15.57272 145.2137,-3.33173 151.7044,-26.82654 6.4907,-23.49482 -31.5896,-51.58001 -115.7465,-54.36879"
         style="fill:#f5b3cc;fill-opacity:1;stroke-width:24.6794"
         id="path123-3" /><path
         d="m -2722.351,-698.44591 c -32.9964,-1.08589 -59.1566,3.20833 -77.296,10.36536 a 96.002983,91.610044 0 0 0 86.5261,51.90084 96.002983,91.610044 0 0 0 81.5902,-43.43579 c -19.2499,-10.01985 -49.4823,-17.47304 -90.8203,-18.83041"
         style="mix-blend-mode:overlay;fill:url(#linearGradient239);fill-opacity:1;stroke-width:190.943;stroke-linecap:round;stroke-linejoin:round"
         id="path124-1" /><path
         d="m -2722.351,-698.44591 c -59.6749,-1.97435 -96.8914,13.64773 -105.0603,32.08326 -8.1689,18.46021 12.6852,39.73388 69.1024,49.11207 94.1273,15.57272 145.2137,-3.33173 151.7044,-26.82654 6.4907,-23.49482 -31.5896,-51.58001 -115.7465,-54.36879"
         style="fill:#f5b3cc;fill-opacity:1;stroke-width:24.6794"
         id="path125-9" /><path
         d="m -2722.351,-698.44591 c -32.9964,-1.08589 -59.1566,3.20833 -77.296,10.36536 a 96.002983,91.610044 0 0 0 86.5261,51.90084 96.002983,91.610044 0 0 0 81.5902,-43.43579 c -19.2499,-10.01985 -49.4823,-17.47304 -90.8203,-18.83041"
         style="mix-blend-mode:overlay;fill:url(#linearGradient240);fill-opacity:1;stroke-width:190.943;stroke-linecap:round;stroke-linejoin:round"
         id="path126-4" /><path
         d="m -2790.8858,-691.11612 c -19.6942,5.9971 -32.1819,14.98042 -36.5255,24.77815 -6.7128,15.15317 6.1698,32.20666 42.2758,42.99157 a 55.281923,55.281923 0 0 0 9.008,-30.2323 55.281923,55.281923 0 0 0 -14.7583,-37.53742"
         style="fill:url(#linearGradient241);fill-opacity:1;stroke-width:186.553;stroke-linecap:round;stroke-linejoin:round"
         id="path127-7" /><path
         d="m -2646.363,-685.95812 a 55.281923,55.281923 0 0 0 -10.5135,32.37942 55.281923,55.281923 0 0 0 13.401,36.03196 c 21.5698,-5.97242 33.9095,-15.74547 36.871,-26.53038 4.0475,-14.56087 -9.1314,-30.92333 -39.7585,-41.881"
         style="mix-blend-mode:multiply;fill:url(#linearGradient242);fill-opacity:0.491554;stroke-width:186.553;stroke-linecap:round;stroke-linejoin:round"
         id="path128-8" /></g><g
       id="g248"
       transform="matrix(-0.12907663,-0.00854336,-0.00854336,0.12907663,-95.998909,279.71221)"><path
         d="m -2722.351,-698.44591 c -59.6749,-1.97435 -96.8914,13.64773 -105.0603,32.08326 -8.1689,18.46021 12.6852,39.73388 69.1024,49.11207 94.1273,15.57272 145.2137,-3.33173 151.7044,-26.82654 6.4907,-23.49482 -31.5896,-51.58001 -115.7465,-54.36879"
         style="fill:#f5b3cc;fill-opacity:1;stroke-width:24.6794"
         id="path243" /><path
         d="m -2722.351,-698.44591 c -32.9964,-1.08589 -59.1566,3.20833 -77.296,10.36536 a 96.002983,91.610044 0 0 0 86.5261,51.90084 96.002983,91.610044 0 0 0 81.5902,-43.43579 c -19.2499,-10.01985 -49.4823,-17.47304 -90.8203,-18.83041"
         style="mix-blend-mode:overlay;fill:url(#linearGradient250);fill-opacity:1;stroke-width:190.943;stroke-linecap:round;stroke-linejoin:round"
         id="path244" /><path
         d="m -2722.351,-698.44591 c -59.6749,-1.97435 -96.8914,13.64773 -105.0603,32.08326 -8.1689,18.46021 12.6852,39.73388 69.1024,49.11207 94.1273,15.57272 145.2137,-3.33173 151.7044,-26.82654 6.4907,-23.49482 -31.5896,-51.58001 -115.7465,-54.36879"
         style="fill:#f5b3cc;fill-opacity:1;stroke-width:24.6794"
         id="path245" /><path
         d="m -2722.351,-698.44591 c -32.9964,-1.08589 -59.1566,3.20833 -77.296,10.36536 a 96.002983,91.610044 0 0 0 86.5261,51.90084 96.002983,91.610044 0 0 0 81.5902,-43.43579 c -19.2499,-10.01985 -49.4823,-17.47304 -90.8203,-18.83041"
         style="mix-blend-mode:overlay;fill:url(#linearGradient251);fill-opacity:1;stroke-width:190.943;stroke-linecap:round;stroke-linejoin:round"
         id="path246" /><path
         d="m -2790.8858,-691.11612 c -19.6942,5.9971 -32.1819,14.98042 -36.5255,24.77815 -6.7128,15.15317 6.1698,32.20666 42.2758,42.99157 a 55.281923,55.281923 0 0 0 9.008,-30.2323 55.281923,55.281923 0 0 0 -14.7583,-37.53742"
         style="fill:url(#linearGradient252);fill-opacity:1;stroke-width:186.553;stroke-linecap:round;stroke-linejoin:round"
         id="path247" /><path
         d="m -2646.363,-685.95812 a 55.281923,55.281923 0 0 0 -10.5135,32.37942 55.281923,55.281923 0 0 0 13.401,36.03196 c 21.5698,-5.97242 33.9095,-15.74547 36.871,-26.53038 4.0475,-14.56087 -9.1314,-30.92333 -39.7585,-41.881"
         style="mix-blend-mode:multiply;fill:url(#linearGradient253);fill-opacity:0.491554;stroke-width:186.553;stroke-linecap:round;stroke-linejoin:round"
         id="path248" /></g><path
       id="circle143"
       style="opacity:1;mix-blend-mode:overlay;fill:url(#radialGradient147);fill-opacity:0.670588;stroke-width:0.93536;stroke-linecap:round;stroke-linejoin:round"
       d="m 315.49023,187.58203 a 116.48533,116.48533 0 0 0 -116.48632,116.48438 116.48533,116.48533 0 0 0 54.82617,98.83007 c 18.78192,6.89169 39.7636,10.73807 62.57422,10.4004 21.06548,0.31184 40.57089,-2.945 58.22461,-8.87305 A 116.48533,116.48533 0 0 0 431.97461,304.06641 116.48533,116.48533 0 0 0 315.49023,187.58203 Z" /><g
       id="g64"
       transform="translate(0.29349011)"><path
         d="m 365.24092,186.18396 c -10.80097,-2.93402 -15.76187,5.57812 -17.26023,9.54936 -0.37296,0.98756 -0.95109,2.93388 -0.25996,3.71644 0.40291,0.45629 1.44755,-0.64092 4.1853,-3.73265 6.07903,-6.87065 12.88057,-4.97773 18.48949,-0.8669 3.55566,2.60608 5.55388,2.11392 4.7023,-1.15533 -0.8562,-3.28614 -5.19744,-6.24256 -9.8569,-7.51092"
         style="fill:#573d4b;fill-opacity:1;stroke-width:0.730303"
         id="path133-7" /><path
         d="m 283.60087,186.18396 c 10.80097,-2.93402 15.76187,5.57812 17.26023,9.54936 0.37296,0.98756 0.95109,2.93388 0.25996,3.71644 -0.40291,0.45629 -1.44755,-0.64092 -4.1853,-3.73265 -6.07903,-6.87065 -12.88057,-4.97773 -18.48949,-0.8669 -3.55566,2.60608 -5.55388,2.11392 -4.7023,-1.15533 0.8562,-3.28614 5.19744,-6.24256 9.8569,-7.51092"
         style="fill:#573d4b;fill-opacity:1;stroke-width:0.730303"
         id="path63" /></g><path
       style="fill:#fddae5;fill-opacity:1;stroke-width:0.67;stroke-linecap:round;stroke-linejoin:round"
       d="m 446.50517,240.06786 c 12.26341,7.56313 22.97426,17.17437 32.98305,27.47914 7.8428,8.17512 10.85055,14.4603 11.89442,18.70816 1.91514,7.79334 -1.22054,9.78491 -10.55901,10.99677 -7.28685,0.94561 -29.09397,2.52522 -46.54045,-9.1058 -42.18648,-28.1244 -10.6862,-64.05094 12.22199,-48.07827 z"
       id="path179" /><path
       style="fill:#fddae5;fill-opacity:1;stroke-width:0.67;stroke-linecap:round;stroke-linejoin:round"
       d="m 446.50517,240.06786 c 12.26341,7.56313 22.97426,17.17437 32.98305,27.47914 7.8428,8.17512 10.85055,14.4603 11.89442,18.70816 1.91514,7.79334 -1.22054,9.78491 -10.55901,10.99677 -7.28685,0.94561 -29.09397,2.52522 -46.54045,-9.1058 -42.18648,-28.1244 -10.6862,-64.05094 12.22199,-48.07827 z"
       id="path182" /><path
       style="fill:url(#linearGradient184);fill-opacity:1;stroke-width:0.67;stroke-linecap:round;stroke-linejoin:round"
       d="m 446.50517,240.06786 c 12.26341,7.56313 22.97426,17.17437 32.98305,27.47914 7.8428,8.17512 10.85055,14.4603 11.89442,18.70816 1.91514,7.79334 -1.22054,9.78491 -10.55901,10.99677 -7.28685,0.94561 -29.09397,2.52522 -46.54045,-9.1058 -42.18648,-28.1244 -10.6862,-64.05094 12.22199,-48.07827 z"
       id="path183" /><path
       id="path186"
       style="mix-blend-mode:overlay;fill:url(#radialGradient188);fill-opacity:1;stroke-width:0.67;stroke-linecap:round;stroke-linejoin:round"
       d="m 471.69336,259.83398 a 32.949474,32.949474 0 0 0 -13.25977,26.42188 32.949474,32.949474 0 0 0 1.9043,11.03906 c 8.98448,1.1111 16.69797,0.44865 20.48633,-0.043 9.33847,-1.21186 12.47373,-3.20275 10.55859,-10.99609 -1.04387,-4.24786 -4.05173,-10.53387 -11.89453,-18.70898 -2.5478,-2.62315 -5.14211,-5.20198 -7.79492,-7.7129 z" /><g
       id="g191"
       transform="matrix(-1,0,0,1,632.8086,0)"><path
         id="path188"
         style="mix-blend-mode:multiply;fill:url(#linearGradient192);stroke-width:0.67;stroke-linecap:round;stroke-linejoin:round"
         d="m 460.23828,263.60938 c -0.1148,0.0402 -0.22865,0.0808 -0.3418,0.12109 -9.64383,3.43403 -9.54311,11.68374 -14.74414,12.01367 -15.56142,0.98714 -12.8847,22.50858 16.8418,41.63867 0.11974,-1.42421 0.21665,-2.80607 0.29688,-4.14648 1.3226,-11.05224 0.7892,-21.38905 0.15234,-30.29688 -0.45132,-6.31275 -1.19053,-12.77317 -2.20508,-19.33007 z" /><path
         style="fill:#fddae5;fill-opacity:1;stroke-width:0.67;stroke-linecap:round;stroke-linejoin:round"
         d="m 446.50517,240.06786 c 12.26341,7.56313 22.97426,17.17437 32.98305,27.47914 7.8428,8.17512 10.85055,14.4603 11.89442,18.70816 1.91514,7.79334 -1.22054,9.78491 -10.55901,10.99677 -7.28685,0.94561 -29.09397,2.52522 -46.54045,-9.1058 -42.18648,-28.1244 -10.6862,-64.05094 12.22199,-48.07827 z"
         id="path189" /><path
         style="fill:url(#linearGradient193);fill-opacity:1;stroke-width:0.67;stroke-linecap:round;stroke-linejoin:round"
         d="m 446.50517,240.06786 c 12.26341,7.56313 22.97426,17.17437 32.98305,27.47914 7.8428,8.17512 10.85055,14.4603 11.89442,18.70816 1.91514,7.79334 -1.22054,9.78491 -10.55901,10.99677 -7.28685,0.94561 -29.09397,2.52522 -46.54045,-9.1058 -42.18648,-28.1244 -10.6862,-64.05094 12.22199,-48.07827 z"
         id="path190" /><path
         id="path191"
         style="mix-blend-mode:overlay;fill:url(#radialGradient193);fill-opacity:1;stroke-width:0.67;stroke-linecap:round;stroke-linejoin:round"
         d="m 471.69336,259.83398 a 32.949474,32.949474 0 0 0 -13.25977,26.42188 32.949474,32.949474 0 0 0 1.9043,11.03906 c 8.98448,1.1111 16.69797,0.44865 20.48633,-0.043 9.33847,-1.21186 12.47373,-3.20275 10.55859,-10.99609 -1.04387,-4.24786 -4.05173,-10.53387 -11.89453,-18.70898 -2.5478,-2.62315 -5.14211,-5.20198 -7.79492,-7.7129 z" /></g><path
       id="path238"
       style="display:inline;mix-blend-mode:multiply;fill:url(#linearGradient238);fill-opacity:1;stroke-width:0.67;stroke-linecap:round;stroke-linejoin:round"
       d="m 348.45898,53.29687 c -5.98285,0.13879 -12.29695,0.98631 -18.79296,2.48242 -19.3547,4.45761 -50.37493,17.55665 -77.20313,45.05274 -32.98037,33.80185 -61.29156,86.93547 -73.76953,133.79102 -4.39278,16.4952 -7.22223,32.84797 -8.32813,48.3164 -2.13185,29.81855 -3.09394,75.65353 62.78125,110.71289 23.5901,12.55487 51.66949,20.11215 83.25782,19.64454 31.58833,0.46762 59.66771,-7.08967 83.25781,-19.64454 65.87519,-35.05936 64.9131,-80.89434 62.78125,-110.71289 -1.1059,-15.46843 -3.93535,-31.8212 -8.32813,-48.3164 -11.28685,-42.38284 -35.5318,-89.91021 -64.4707,-123.61524 6.20301,-13.98312 5.70129,-27.59681 -0.28125,-38.11524 -7.98543,-14.03988 -22.95574,-20.01208 -40.9043,-19.5957 z" /><ellipse
       style="opacity:1;mix-blend-mode:overlay;fill:url(#radialGradient72);fill-opacity:0.670588;stroke-width:0.67;stroke-linecap:round;stroke-linejoin:round"
       id="path64"
       cx="324.71439"
       cy="188.91679"
       rx="67.882248"
       ry="26.162951" /><circle
       style="opacity:1;mix-blend-mode:overlay;fill:url(#radialGradient140);fill-opacity:0.670588;stroke-width:0.93536;stroke-linecap:round;stroke-linejoin:round"
       id="path139"
       cx="315.48929"
       cy="304.06735"
       r="116.48533" /><path
       id="circle142"
       style="mix-blend-mode:multiply;fill:url(#radialGradient142);stroke-width:0.67;stroke-linecap:round;stroke-linejoin:round"
       d="m 306.57617,63.517578 c -16.8164,7.256501 -36.38058,19.1403 -54.11328,37.314452 -30.17883,30.93053 -56.44817,78.04821 -70.25391,121.73047 a 114.2449,114.2449 0 0 0 20.04688,1.77148 A 114.2449,114.2449 0 0 0 316.5,110.08984 114.2449,114.2449 0 0 0 306.57617,63.517578 Z" /><g
       id="g62"
       transform="matrix(1.0087434,0,0,0.89359952,-2.8391069,21.830655)"><path
         d="m 303.75201,213.41437 c -0.44648,0.0256 -0.60908,0.19564 -0.61926,0.5958 -0.21148,12.64313 3.07709,38.84896 20.59882,39.11441 17.52188,0.26088 22.14613,-25.83171 22.57328,-38.47163 0.0117,-0.45471 -0.19034,-0.6215 -0.78977,-0.61678 -13.96739,2.11659 -27.70457,1.59363 -41.56177,-0.6188 z"
         style="baseline-shift:baseline;display:inline;overflow:visible;vector-effect:none;fill:url(#linearGradient39);fill-opacity:1;stroke-width:4.45641;stroke-linecap:round;stroke-linejoin:round;stop-color:#000000"
         id="path135-0" /><path
         id="path136"
         style="baseline-shift:baseline;display:inline;overflow:visible;vector-effect:none;fill:#ffc7e2;fill-opacity:1;stroke-width:7.67524;stroke-linecap:round;stroke-linejoin:round;stop-color:#000000"
         d="m 325.4043,228.30664 a 29.049553,35.253964 84.456195 0 0 -4.83203,0.19531 29.049553,35.253964 84.456195 0 0 -15.34961,4.56641 c 2.57418,10.3402 7.96445,19.89688 18.50976,20.05664 10.79833,0.16077 16.69657,-9.68838 19.73438,-20.22852 a 29.049553,35.253964 84.456195 0 0 -18.0625,-4.58984 z" /><path
         id="path39"
         style="opacity:1;mix-blend-mode:overlay;fill:url(#radialGradient47);stroke-width:0.67;stroke-linecap:round;stroke-linejoin:round"
         d="m 325.4043,228.30664 a 29.049553,35.253964 84.456195 0 0 -4.83203,0.19531 29.049553,35.253964 84.456195 0 0 -15.34961,4.56641 c 0.41956,1.68533 0.91483,3.35063 1.49414,4.95703 a 26.75,26.75 0 0 0 19.20703,8.13281 26.75,26.75 0 0 0 13.76562,-3.81445 c 1.58426,-2.88788 2.82214,-6.13302 3.77735,-9.44727 a 29.049553,35.253964 84.456195 0 0 -18.0625,-4.58984 z" /></g></g></svg>
