<svg xmlns="http://www.w3.org/2000/svg" xmlns:xlink="http://www.w3.org/1999/xlink" xml:space="preserve" width="3000" height="3600"><defs><linearGradient id="v"><stop offset="0" style="stop-color:#95aed7;stop-opacity:.46342791"/><stop offset="1" style="stop-color:#95aed7;stop-opacity:0"/></linearGradient><linearGradient id="u"><stop offset="0" style="stop-color:#678ac5;stop-opacity:1"/><stop offset="1" style="stop-color:#678ac5;stop-opacity:0"/></linearGradient><linearGradient id="t"><stop offset="0" style="stop-color:#678ac5;stop-opacity:1"/><stop offset="1" style="stop-color:#678ac5;stop-opacity:0"/></linearGradient><linearGradient id="s"><stop offset="0" style="stop-color:#eaeaea;stop-opacity:1"/><stop offset="1" style="stop-color:#d7d7d7;stop-opacity:1"/></linearGradient><linearGradient id="r"><stop offset="0" style="stop-color:#e3e3e3;stop-opacity:1"/><stop offset="1" style="stop-color:#d5d5d5;stop-opacity:1"/></linearGradient><linearGradient id="q"><stop offset="0" style="stop-color:#fff;stop-opacity:1"/><stop offset="1" style="stop-color:#e1e1e1;stop-opacity:1"/></linearGradient><linearGradient id="p"><stop offset="0" style="stop-color:#88a3d2;stop-opacity:1"/><stop offset="1" style="stop-color:#88a3d2;stop-opacity:0"/></linearGradient><linearGradient id="o"><stop offset="0" style="stop-color:#c1cfe9;stop-opacity:1"/><stop offset="1" style="stop-color:#c1cfe9;stop-opacity:0"/></linearGradient><linearGradient id="n"><stop offset="0" style="stop-color:#4c7cbc;stop-opacity:1"/><stop offset="1" style="stop-color:#4c7cbc;stop-opacity:0"/></linearGradient><linearGradient id="m"><stop offset="0" style="stop-color:#4c7cbc;stop-opacity:1"/><stop offset="1" style="stop-color:#4c7cbc;stop-opacity:0"/></linearGradient><linearGradient id="l"><stop offset="0" style="stop-color:#819ed0;stop-opacity:1"/><stop offset="1" style="stop-color:#819ed0;stop-opacity:.34701365"/></linearGradient><linearGradient id="k"><stop offset="0" style="stop-color:#92abd6;stop-opacity:1"/><stop offset="1" style="stop-color:#92abd6;stop-opacity:0"/></linearGradient><linearGradient id="j"><stop offset="0" style="stop-color:#688dc6;stop-opacity:1"/><stop offset="1" style="stop-color:#688dc6;stop-opacity:0"/></linearGradient><linearGradient id="i"><stop offset="0" style="stop-color:#92aad5;stop-opacity:1"/><stop offset="1" style="stop-color:#92aad5;stop-opacity:0"/></linearGradient><linearGradient id="h"><stop offset="0" style="stop-color:#557dbe;stop-opacity:1"/><stop offset="1" style="stop-color:#557dbe;stop-opacity:0"/></linearGradient><linearGradient id="g"><stop offset="0" style="stop-color:#f3f2f2;stop-opacity:1"/><stop offset="1" style="stop-color:#f3f2f2;stop-opacity:0"/></linearGradient><linearGradient id="f"><stop offset="0" style="stop-color:#ddcba7;stop-opacity:.37552275"/><stop offset="1" style="stop-color:#ddcba7;stop-opacity:0"/></linearGradient><linearGradient id="e"><stop offset="0" style="stop-color:#f9f2e2;stop-opacity:1"/><stop offset="1" style="stop-color:#f9f2e2;stop-opacity:0"/></linearGradient><linearGradient id="d"><stop offset="0" style="stop-color:#f9f2e2;stop-opacity:1"/><stop offset="1" style="stop-color:#ecdeb9;stop-opacity:1"/></linearGradient><linearGradient id="c"><stop offset="0" style="stop-color:#688ec8;stop-opacity:.37536356"/><stop offset="1" style="stop-color:#688ec8;stop-opacity:0"/></linearGradient><linearGradient id="b"><stop offset="0" style="stop-color:#85a3d2;stop-opacity:1"/><stop offset="1" style="stop-color:#5a82c2;stop-opacity:1"/></linearGradient><linearGradient id="a"><stop offset="0" style="stop-color:#d1dcee;stop-opacity:1"/><stop offset="1" style="stop-color:#85a3d2;stop-opacity:0"/></linearGradient><linearGradient xlink:href="#a" id="B" x1="60.674" x2="63.569" y1="29.471" y2="33.34" gradientUnits="userSpaceOnUse"/><linearGradient xlink:href="#b" id="x" x1="57.28" x2="88.371" y1="310.782" y2="314.132" gradientUnits="userSpaceOnUse"/><linearGradient xlink:href="#c" id="C" x1="61.246" x2="64.619" y1="31.303" y2="38.795" gradientUnits="userSpaceOnUse"/><linearGradient xlink:href="#d" id="D" x1="33.278" x2="72.877" y1="122.088" y2="197.056" gradientUnits="userSpaceOnUse"/><linearGradient xlink:href="#e" id="E" x1="184.998" x2="170.866" y1="248.261" y2="231.183" gradientUnits="userSpaceOnUse"/><linearGradient xlink:href="#f" id="w" x1="11.35" x2="15.313" y1="222.286" y2="217.906" gradientUnits="userSpaceOnUse"/><linearGradient xlink:href="#g" id="F" x1="-9.36" x2="28.612" y1="138.312" y2="141.561" gradientUnits="userSpaceOnUse"/><linearGradient xlink:href="#h" id="G" x1="59.654" x2="63.982" y1="83.011" y2="81.227" gradientUnits="userSpaceOnUse"/><linearGradient xlink:href="#i" id="z" x1="-14.934" x2="150.867" y1="62.726" y2="104.229" gradientUnits="userSpaceOnUse"/><linearGradient xlink:href="#j" id="I" x1="152.426" x2="141.84" y1="327.252" y2="326.61" gradientUnits="userSpaceOnUse"/><linearGradient xlink:href="#k" id="y" x1="1.604" x2="182.307" y1="122.269" y2="122.269" gradientUnits="userSpaceOnUse"/><linearGradient xlink:href="#l" id="H" x1="129.083" x2="125.98" y1="332.451" y2="338.855" gradientUnits="userSpaceOnUse"/><linearGradient xlink:href="#m" id="K" x1="228.99" x2="221.041" y1="235.091" y2="204.944" gradientUnits="userSpaceOnUse"/><linearGradient xlink:href="#n" id="L" x1="245.98" x2="191.251" y1="95.016" y2="118.619" gradientUnits="userSpaceOnUse"/><linearGradient xlink:href="#o" id="M" x1="36.064" x2="50.736" y1="23.713" y2="51.463" gradientUnits="userSpaceOnUse"/><linearGradient xlink:href="#p" id="N" x1="256.087" x2="233.775" y1="148.693" y2="170.871" gradientUnits="userSpaceOnUse"/><linearGradient xlink:href="#q" id="O" x1="162.36" x2="184.974" y1="83.326" y2="104.607" gradientUnits="userSpaceOnUse"/><linearGradient xlink:href="#r" id="P" x1="177.108" x2="185.542" y1="127.071" y2="139.052" gradientUnits="userSpaceOnUse"/><linearGradient xlink:href="#s" id="J" x1="199.343" x2="208.436" y1="145.598" y2="167.426" gradientUnits="userSpaceOnUse"/><linearGradient xlink:href="#t" id="Q" x1="71.948" x2="72.583" y1="120.013" y2="93.5" gradientUnits="userSpaceOnUse"/><linearGradient xlink:href="#u" id="R" x1="22.135" x2="29.633" y1="97.959" y2="80.547" gradientUnits="userSpaceOnUse"/><linearGradient xlink:href="#a" id="A" x1="60.674" x2="63.569" y1="29.471" y2="33.34" gradientUnits="userSpaceOnUse"/><radialGradient xlink:href="#v" id="S" cx="68.439" cy="67.825" r="53.917" fx="68.439" fy="67.825" gradientTransform="translate(3.336 13.173)" gradientUnits="userSpaceOnUse"/></defs><path d="M18.946 205.165c-1.303 1.286-2.487 2.809-3.74 4.771-1.251 1.963-2.571 4.366-3.299 6.075-.727 1.708-.863 2.724.322 3.637 1.184.914 3.688 1.726 6.514 2.166s5.972.507 8.883.457c2.91-.051 5.583-.22 8.07-.71 2.487-.492 4.788-1.304 6.497-2.099 1.71-.795 2.826-1.573 3.35-2.369.525-.795.457-1.607-2.96-5.059-3.418-3.451-10.186-9.542-13.74-11.894-3.662-2.43-6.778 2.098-9.897 5.025" style="fill:#ecdfba;fill-opacity:1;stroke-width:3;stroke-linecap:round;stroke-linejoin:round" transform="translate(384.968 690.75)scale(8.05576)"/><path d="M44.404 213.984a22.765 19.669 0 0 1-17.222 6.807 22.765 19.669 0 0 1-15.176-5.008l-.098.227c-.727 1.709-.864 2.725.32 3.638 1.185.914 3.689 1.727 6.514 2.166 2.826.44 5.973.508 8.883.457s5.583-.22 8.07-.71c2.488-.491 4.79-1.303 6.498-2.098 1.71-.795 2.825-1.574 3.35-2.37.407-.617.458-1.244-1.139-3.109" style="fill:url(#w);fill-opacity:.375523;stroke-width:3;stroke-linecap:round;stroke-linejoin:round" transform="translate(384.968 690.75)scale(8.05576)"/><path d="M61.418 308.503c.594-.607 2.601-2.518 5.913-3.797 7.733-2.985 14.451-.325 19.314 3.196-.254.136-.508.271-3.3 1.168s-8.12 2.555-12.977 4.187c-4.856 1.633-13.063 4.893-13.063 4.893-.35-4.74 3.157-8.67 4.113-9.647" style="fill:url(#x);fill-opacity:1;stroke-width:3;stroke-linecap:round;stroke-linejoin:round" transform="translate(384.968 -1536.937)scale(8.05576)"/><path d="M112.975 29.314q-1.25 0-2.496.03c-24.946-.554-48.427 6.97-64.897 18.99-2.201 1.651-4.69 3.47-6.771 5.385-2.082 1.914-3.757 3.923-4.69 5.191s-1.125 1.795-1.7 2.01c-.573.215-1.53.12-2.7.135-5.867.07-25.247 5.119-15.83 24.941.268 1.564-23.452 37.076-5.67 86.871 2.214 6.202 4.913 11.091 7.976 15.88 39.35 61.497 111.827 49.278 118.94 47.991 4.702-.85 6.413-1.387 8.646-.896 5.144 1.13 25.124 14.667 41.215 12.418 11.61-1.623 15.37-4.809 14.816-9.336s-5.424-10.396-11.076-17.38c-1.173-1.45-1.405-1.86-.982-2.114s1.506-.355 2.775-.034c12.791 3.744 25.838 3.956 39 2.182 12.17-1.486 25.985-9.255 32.672-15.226 2.56-2.286 10.574-9.944 12.672-17.987.71-2.724.27-4.584-.71-6.31-.982-1.726-2.504-3.316-4.247-4.856-7.601-6.48-17.315-9.502-27.088-10.388-1.286-.322-1.861-1.034-2.707-1.948-2.998-3.237-8.378-7.021-20.303-7.513-1.168-.049-1.723-.165-1.777-2.141-1.462-53.817-19.41-125.894-105.068-125.895" style="fill:#688ec8;fill-opacity:1;stroke-width:3;stroke-linecap:round;stroke-linejoin:round" transform="translate(384.968 690.75)scale(8.05576)"/><path d="M112.975 29.314q-1.25 0-2.496.03c-24.946-.554-48.427 6.97-64.897 18.99-2.201 1.651-4.69 3.47-6.771 5.385-2.082 1.914-3.757 3.923-4.69 5.191s-1.125 1.795-1.7 2.01c-.573.215-1.53.12-2.7.135-5.867.07-25.247 5.119-15.83 24.941.268 1.564-23.452 37.076-5.67 86.871 2.214 6.202 4.913 11.091 7.976 15.88 6.796 10.62 14.58 19.043 22.846 25.702a129 129 0 0 0 14.105.774A129.157 129.157 0 0 0 182.307 86.066a129.2 129.2 0 0 0-5.389-36.914c-15.306-12.182-36.029-19.837-63.943-19.838" style="opacity:1;fill:url(#y);fill-opacity:1;stroke:none;stroke-width:3;stroke-linecap:round;stroke-linejoin:round;stroke-opacity:1" transform="translate(384.968 690.75)scale(8.05576)"/><path d="M112.975 29.314q-1.25 0-2.496.03c-24.946-.554-48.427 6.97-64.897 18.99-2.201 1.651-4.69 3.47-6.771 5.385-2.082 1.914-3.757 3.923-4.69 5.191s-1.125 1.795-1.7 2.01c-.573.215-1.53.12-2.7.135-5.867.07-25.247 5.119-15.83 24.941.268 1.564-23.452 37.076-5.67 86.871 2.214 6.202 4.913 11.091 7.976 15.88 7.837 12.246 16.986 21.57 26.672 28.638a124.5 124.5 0 0 0 26.06 2.76A124.45 124.45 0 0 0 193.382 95.693a124.5 124.5 0 0 0-5.26-35.797c-15.887-18.26-39.728-30.581-75.146-30.582" style="opacity:1;fill:url(#z);fill-opacity:1;stroke:none;stroke-width:3;stroke-linecap:round;stroke-linejoin:round;stroke-opacity:1" transform="translate(384.968 690.75)scale(8.05576)"/><path d="M130.467 36.236c-2.762-.145-11.592-.318-13.88 3.229a25 25 0 0 1 2.436-1.04c8.911-3.282 28.58-1.784 26.893 13.03a21.2 21.2 0 0 1-2.291 7.479c-1.25 2.375-3 4.584-5.271 5.918-.919.539-1.92.933-3.112 1.068 2.066.213 3.61-.27 4.969-1.068 2.27-1.334 4.02-3.543 5.27-5.918a21.2 21.2 0 0 0 2.292-7.479c1.529-11.162-8.43-14.75-17.306-15.219" style="fill:#658bc6;fill-opacity:1;stroke:none;stroke-width:3;stroke-linecap:round;stroke-linejoin:round;stroke-opacity:1" transform="translate(384.968 690.75)scale(8.05576)"/><path d="M71.775 27.082c-5.982.687-9.533 4.044-10.357 4.887a16.8 16.8 0 0 0-2.826 3.937 11 11 0 0 0 2.424.274 10.91 10.91 0 0 0 10.76-9.098" style="fill:url(#A);fill-opacity:1;stroke-width:3;stroke-linecap:round;stroke-linejoin:round" transform="translate(384.968 690.75)scale(8.05576)"/><path d="M71.775 27.082c-5.982.687-9.533 4.044-10.357 4.887a16.8 16.8 0 0 0-2.826 3.937 11 11 0 0 0 2.424.274 10.91 10.91 0 0 0 10.76-9.098" style="fill:url(#B);fill-opacity:1;stroke-width:3;stroke-linecap:round;stroke-linejoin:round" transform="translate(384.968 690.75)scale(8.05576)"/><path d="M86.928 31.303C74.33 33.57 62.678 37.852 52.82 43.607a21.371 13.208 0 0 0 12.934 2.694 21.371 13.208 0 0 0 21.371-13.21 21.371 13.208 0 0 0-.197-1.788" style="mix-blend-mode:multiply;fill:url(#C);fill-opacity:.449865;stroke-width:3;stroke-linecap:round;stroke-linejoin:round" transform="translate(384.968 690.75)scale(8.05576)"/><path d="M192.7 539.11q-.13.03-.257.067a3 3 0 0 0-.285.146c-1.636.946-3.99 2.45-4.408 3.998l.006-.004c.423-.254 1.506-.354 2.775-.033q1.35.396 2.705.738l.05.01c.28-1.29-.1-4.914-.575-4.921z" style="fill:#4372b8;fill-opacity:1;stroke-width:3;stroke-linecap:round;stroke-linejoin:round" transform="translate(384.968 -1918.412)scale(8.05576)"/><path d="M13.89 362.53c.27 1.564-23.451 37.075-5.67 86.87 2.215 6.202 4.914 11.092 7.977 15.88 39.35 61.497 111.827 49.278 118.94 47.992 4.702-.851 6.413-1.388 8.646-.897 5.144 1.13 25.124 14.667 41.215 12.418 11.61-1.623 15.37-4.808 14.816-9.336-.554-4.527-5.424-10.396-11.076-17.379-3.19-4.162-7.373-8.197-12.7-10.392-.456-.682-.095-1.377.228-3.41s.609-5.408.8-8.579c.418-6.915.57-23.711-5.629-41.988-10.743-28.834-33.386-50.252-62.996-58.232-1.89-.622-2.656-.981-3.134-1.053-.479-.072-.67.142-1.245.644-.574.503-1.531 1.294-3.697 2.622-18.999 11.65-35.994 5.482-49.174-5.29-2.09-1.708-3.697-3.283-4.738-4.171-1.04-.889-1.514-1.091-2.123-1.05-.609.043-1.355.331-2.43.763-1.074.431-2.478 1.007-4.187 1.345-3.021.599-15.106 1.882-23.822-6.758" style="opacity:1;fill:#ecdeb9;fill-opacity:1;stroke-width:3;stroke-linecap:round;stroke-linejoin:round" transform="translate(384.968 -1536.937)scale(8.05576)"/><path d="M13.89 85.996c.269 1.565-23.451 37.077-5.67 86.871 2.215 6.202 4.914 11.091 7.977 15.88v.001c6.782 10.599 14.55 19.007 22.795 25.66 10.095 2.466 20.923 2.241 31.326 2.246 42.89.001 81.743-25.304 99.082-64.533a99 99 0 0 0-4.755-9.521 96 96 0 0 0-5.67-8.817c-12.223-16.892-29.644-29.21-50.534-34.84-1.89-.622-2.656-.98-3.134-1.052-.479-.072-.67.142-1.244.644-.575.503-1.532 1.293-3.698 2.621-18.999 11.651-35.994 5.483-49.174-5.289-2.09-1.709-3.697-3.283-4.738-4.172-1.04-.888-1.514-1.09-2.123-1.048s-1.355.33-2.43.761c-1.074.432-2.478 1.008-4.187 1.346-1.51.3-5.287.77-9.775.086-2.245-.342-4.667-.973-7.073-2.059a23.7 23.7 0 0 1-6.974-4.785" style="fill:url(#D);stroke-width:3;stroke-linecap:round;stroke-linejoin:round" transform="translate(384.968 690.75)scale(8.05576)"/><path d="M44.553 90.643a2 2 0 0 0-.223.003c-.609.043-1.355.33-2.43.762-1.074.432-2.478 1.008-4.187 1.346-1.666.33-6.087.867-11.18-.164a45.79 32.08 0 0 0 41.877 19.105 45.79 32.08 0 0 0 37.477-13.646 3.5 3.5 0 0 0-.58-.158c-.479-.072-.67.142-1.245.644-.574.503-1.531 1.293-3.697 2.621-18.999 11.651-35.994 5.483-49.174-5.289-2.09-1.709-3.697-3.283-4.738-4.172-.91-.777-1.387-1.03-1.9-1.052" style="display:inline;opacity:1;fill:#ecdeb9;fill-opacity:.429208;stroke-width:3.58421;stroke-linecap:round;stroke-linejoin:round" transform="translate(384.968 690.75)scale(8.05576)"/><path d="M65 104.379c-.709 4.971.31 10.128 1.662 14.928.44 1.42.948 2.334 1.777 2.435 1.868.229 11.66-8.628 14.237-14.431-6.249.547-12.168-.63-17.676-2.932" style="fill:#f6f7f9;fill-opacity:1;stroke-width:3;stroke-linecap:round;stroke-linejoin:round" transform="translate(384.968 690.75)scale(8.05576)"/><path d="M16.3 88.084c-.568 4.688.026 9.549.89 14.137.333 1.564.772 2.583 1.591 2.75 1.575.32 9.399-6.107 13.524-11.782-4.45-.047-10.612-1.04-16.004-5.105" style="fill:#f6f7f9;fill-opacity:1;stroke-width:3.12034;stroke-linecap:round;stroke-linejoin:round" transform="translate(384.968 690.75)scale(8.05576)"/><path d="M65 104.379a23 23 0 0 0-.205 2.21c5.173 2.194 10.71 3.398 16.545 3.112.545-.83 1.001-1.636 1.336-2.39-6.249.547-12.168-.63-17.676-2.932" style="display:inline;opacity:1;fill:#dce3f2;fill-opacity:.509804;stroke-width:3;stroke-linecap:round;stroke-linejoin:round" transform="translate(384.968 690.75)scale(8.05576)"/><path d="M16.3 88.084a30 30 0 0 0-.18 2.158c4.752 3.657 10.13 4.893 14.413 5.178a36 36 0 0 0 1.772-2.23c-4.45-.048-10.612-1.041-16.004-5.106" style="display:inline;opacity:1;fill:#dce3f2;fill-opacity:.510746;stroke-width:3;stroke-linecap:round;stroke-linejoin:round" transform="translate(384.968 690.75)scale(8.05576)"/><path d="M132.887 501.293c2.076 3.71 3.782 8.26 6.914 11.115 1.588-.257 2.693-.311 3.965-.035l.017.002c.734.161 1.77.576 3.055 1.16-2.095-1.65-4.19-3.3-6.016-4.818a94 94 0 0 1-4.658-4.121c-1.278-1.216-2.277-2.26-3.277-3.303" style="fill:#ddcba7;fill-opacity:1;stroke-width:3;stroke-linecap:round;stroke-linejoin:round" transform="translate(384.968 -1536.937)scale(8.05576)"/><path d="M187.05 219.598a30.05 30.05 0 0 0-26.001 24.04c7.481 3.107 16.17 5.71 23.95 4.622 11.608-1.623 15.37-4.809 14.815-9.336s-5.424-10.396-11.076-17.38a79 79 0 0 0-1.687-1.946" style="opacity:1;fill:url(#E);fill-opacity:1;stroke-width:3;stroke-linecap:round;stroke-linejoin:round" transform="translate(384.968 690.75)scale(8.05576)"/><path d="M242.713 467.755c-3.794-.105-7.109.603-9.656 2.416-1.867 1.328-2.966 3.218-3.887 5.228s-1.663 4.14-2.764 6.4c-1.1 2.262-2.561 4.655-3.842 6.174-1.28 1.52-2.379 2.165-2.93 2.715-.55.55-.551 1.006-.3 1.03.251.023.756-.383 1.533-.946.778-.562 1.83-1.279 2.895-2.344s2.141-2.477 2.87-3.59 1.114-1.926 1.772-3.517 1.592-3.96 2.477-5.707 1.722-2.87 2.894-3.768 2.68-1.567 5.278-1.95c2.597-.385 6.282-.484 10.36-.16 2.177.172 4.458.466 6.384.68-.14-.045-.273-.107-.412-.152-4.061-1.303-8.302-2.092-12.555-2.478z" style="opacity:1;fill:#4372b8;fill-opacity:1;stroke-width:3;stroke-linecap:round;stroke-linejoin:round" transform="translate(384.968 -1733.836)scale(8.05576)"/><path d="M213.406 473.443c-1.303 3.688-2.791 7.343-4.314 11.1-1.523 3.755 11.845-23.933 10.728-23.98-1.168-.048-1.777-2.14-1.777-2.14s-.663 3.768-4.637 15.02" style="fill:#4372b8;fill-opacity:1;stroke-width:3;stroke-linecap:round;stroke-linejoin:round" transform="translate(384.968 -1751.87)scale(8.05576)"/><path d="M8.605 98.104c-5.61 14.6-12.193 41.298-.54 74.326a37.77 37.77 0 0 0 31.308-37.213A37.77 37.77 0 0 0 8.605 98.104" style="opacity:.3;fill:url(#F);fill-opacity:1;stroke-width:3;stroke-linecap:round;stroke-linejoin:round" transform="translate(384.968 690.75)scale(8.05576)"/><path d="m64.088 80.504-.016.045a.66.66 0 0 1-.367.365c-.248.11-.475.12-.775.12a3 3 0 0 0-.637.185 9 9 0 0 0-1.027.5c-.35.196-.682.41-.928.595-.2.152-.337.327-.363.344l-.002.002h-.002c-.132.301-.407.42-.623.473a1.7 1.7 0 0 1-.752.012c2.391 1.025 5.491-.315 5.492-2.641" style="opacity:1;fill:url(#G);fill-opacity:1;stroke-width:3.34951;stroke-linecap:round;stroke-linejoin:round" transform="translate(384.968 690.75)scale(8.05576)"/><path d="M62.877 79.52c-.898.014-2.09.384-3.139.859-.524.237-1.001.501-1.377.787-.375.285-.728.577-.728 1.107 0 .349.247.578.445.692.199.113.405.167.62.195.213.028.43.027.65-.027.216-.054.491-.173.623-.477v.004h.002l.002-.002c.026-.017.163-.192.363-.344.246-.186.579-.4.928-.595a9 9 0 0 1 1.027-.5 3 3 0 0 1 .637-.186c.3 0 .528-.009.775-.119a.66.66 0 0 0 .367-.365.68.68 0 0 0-.062-.57.93.93 0 0 0-.537-.39 1.9 1.9 0 0 0-.596-.07z" style="baseline-shift:baseline;display:inline;overflow:visible;vector-effect:none;fill:#253f66;fill-opacity:1;stop-color:#000" transform="translate(384.968 690.75)scale(8.05576)"/><path d="M35.19 78.072h-.014c-.378-.017-.575-.28-.766-.556a5.2 5.2 0 0 1-.515-1.008c-.304-.763-.527-1.625-.508-2.266v-.002c.004-.147.02-.287.068-.422a.7.7 0 0 1 .182-.287 2.44 2.046 86.718 0 0-1.385 2.444 2.44 2.046 86.718 0 0 2.182 2.32 2.44 2.046 86.718 0 0 .755-.223" style="opacity:.3;fill:#557dbe;fill-opacity:1;stroke-width:3.27671;stroke-linecap:round;stroke-linejoin:round" transform="translate(384.968 690.75)scale(8.05576)"/><path d="M33.386 74.24c-.02.642.205 1.505.509 2.268.152.382.325.731.516 1.008.19.277.387.539.766.557.248.011.42-.157.507-.295a1.2 1.2 0 0 0 .16-.435c.027-.152.034-.306.002-.465-.03-.157-.107-.357-.319-.46h.002v-.002c-.012-.02-.132-.124-.234-.271a6 6 0 0 1-.394-.682 7 7 0 0 1-.322-.749 2 2 0 0 1-.112-.46c.01-.214.011-.377-.059-.557a.47.47 0 0 0-.248-.274.48.48 0 0 0-.41.025.67.67 0 0 0-.294.37 1.4 1.4 0 0 0-.07.423z" style="baseline-shift:baseline;display:inline;overflow:visible;vector-effect:none;fill:#253f66;fill-opacity:1;stroke-width:.714023;stop-color:#000" transform="translate(384.968 690.75)scale(8.05576)"/><path d="M111.342 319.403c1.541-2.438 4.537-4.17 7.681-5.328 8.91-3.283 28.58-1.785 26.894 13.03a21.2 21.2 0 0 1-2.292 7.478c-1.25 2.375-3 4.584-5.27 5.917-2.272 1.333-5.063 1.792-9.938-.417s-11.834-7.083-15.27-11.092c-3.434-4.008-3.347-7.15-1.805-9.588" style="fill:url(#H);fill-opacity:1;stroke:none;stroke-width:3;stroke-linecap:round;stroke-linejoin:round;stroke-opacity:1" transform="translate(384.968 -1529.813)scale(8.05576)"/><path d="M122.114 48.544c-.342.002-.636.022-.914.207-.344.23-.414.627-.323.937a.68.68 0 0 0 .323.425c.19.105.465.081.642-.028a.4.4 0 0 0-.05.033h-.002v.002l.002.002h.002c.016.001.096-.017.203.001.172.03.417.1.689.199a9.6 9.6 0 0 1 1.772.88l.022.013.023.012c.903.434 1.462 1.127 1.922 1.979s.8 1.853 1.247 2.814l.363.782.746-1.417c.868-1.657-.125-4.33-3.073-5.908-1.072-.575-2.564-.939-3.592-.932z" style="baseline-shift:baseline;display:inline;overflow:visible;vector-effect:none;fill:#253f66;fill-opacity:1;stroke-width:.853547;stop-color:#000" transform="translate(384.968 690.75)scale(8.05576)"/><path d="M137.998 314.356a21.46 21.46 0 0 1 3.842 12.254 21.46 21.46 0 0 1-5.98 14.863 7.9 7.9 0 0 0 2.494-.972c2.27-1.334 4.021-3.543 5.271-5.918s2-4.916 2.291-7.479c.766-6.733-2.877-10.715-7.918-12.748" style="fill:url(#I);fill-opacity:1;stroke:none;stroke-width:3;stroke-linecap:round;stroke-linejoin:round;stroke-opacity:1" transform="translate(384.968 -1529.813)scale(8.05576)"/><path d="M208.436 167.426c-2.688 2.463-5.999 2.602-8.436-2.561-1.146-2.428-1.98-5.865-2.23-9.146s.084-6.406.72-8.334c.89-2.697 2.785-4.135 4.863-3.339 5.512 2.11 11.469 17.528 5.083 23.38" style="fill:url(#J);fill-opacity:1;stroke:none;stroke-width:3;stroke-linecap:round;stroke-linejoin:round;stroke-opacity:1" transform="translate(384.968 690.75)scale(8.05576)"/><path d="M230.88 174.639a48.39 48.39 0 0 0-40.165 21.402 41 41 0 0 0-1.393 10.586 40.9 40.9 0 0 0 2.131 13.033c12.496 3.489 25.232 3.65 38.078 1.918 12.17-1.486 25.985-9.255 32.672-15.226 1.52-1.358 4.965-4.612 7.951-8.715a41 41 0 0 0-1.341-4.655 48.39 48.39 0 0 0-37.932-18.343" style="opacity:1;fill:url(#K);fill-opacity:1;stroke:none;stroke-width:3;stroke-linecap:round;stroke-linejoin:round;stroke-opacity:1" transform="translate(384.968 690.75)scale(8.05576)"/><path d="M163.953 40.676a59.89 59.89 0 0 0-34.59 54.287 60 60 0 0 0 1.494 13.295c11.077 6.44 20.585 15.115 28.118 25.525a96 96 0 0 1 5.67 8.817 99 99 0 0 1 4.416 8.748 59.9 59.9 0 0 0 20.195 3.507 59.9 59.9 0 0 0 28.474-7.2c-2.201-39.387-13.96-85.921-53.777-106.98" style="opacity:1;fill:url(#L);fill-opacity:1;stroke:none;stroke-width:3;stroke-linecap:round;stroke-linejoin:round;stroke-opacity:1" transform="translate(384.968 690.75)scale(8.05576)"/><path d="M81.111 32.443c-13.536 3.22-25.765 8.765-35.529 15.891-2.201 1.651-4.69 3.47-6.771 5.385q-.319.291-.622.584a29 29 0 0 0 14.137 3.68 28.99 28.99 0 0 0 28.785-25.54" style="opacity:1;fill:url(#M);fill-opacity:1;stroke:none;stroke-width:3;stroke-linecap:round;stroke-linejoin:round;stroke-opacity:1" transform="translate(384.968 690.75)scale(8.05576)"/><path d="M213.594 158.393c0 23.795 19.29 43.085 43.086 43.086 3.98 0 7.94-.552 11.77-1.64 2.675-3.262 5.34-7.316 6.425-11.474.71-2.724.27-4.585-.71-6.31-.982-1.726-2.504-3.316-4.247-4.856-7.601-6.48-17.315-9.502-27.088-10.388-1.286-.322-1.861-1.034-2.707-1.948-2.998-3.237-8.378-7.021-20.303-7.513-1.168-.049-1.723-.165-1.777-2.141z" style="opacity:1;fill:url(#N);fill-opacity:1;stroke:none;stroke-width:3;stroke-linecap:round;stroke-linejoin:round;stroke-opacity:1" transform="translate(384.968 690.75)scale(8.05576)"/><path d="M185.685 97.042c.308 2.995.308 5.465-.71 7.565-1.02 2.1-3.057 3.828-5.59 3.797-4.033-.049-9.346-5.317-13.032-11.42-15.195-25.162 16.251-27.396 19.332.058" style="fill:url(#O);fill-opacity:1;stroke:none;stroke-width:3.14396;stroke-linecap:round;stroke-linejoin:round;stroke-opacity:1" transform="translate(384.968 690.75)scale(8.05576)"/><path d="M181.063 140.146c-.5-.313-.75-.48-1.428-1.24s-1.78-2.114-2.53-3.844c-4.53-10.44 7.467-14.756 8.958-.968.208 1.927.041 3.76-.521 4.958s-1.521 1.76-2.375 1.813-1.604-.407-2.104-.72" style="fill:url(#P);fill-opacity:1;stroke:none;stroke-width:3;stroke-linecap:round;stroke-linejoin:round;stroke-opacity:1" transform="translate(384.968 690.75)scale(8.05576)"/><path d="M74.777 59.75a30.76 30.76 0 0 0-30.76 30.76v.178q.163-.03.313-.042c.61-.042 1.083.161 2.123 1.05 1.04.888 2.647 2.462 4.738 4.171 13.18 10.772 30.176 16.94 49.174 5.29 2.166-1.329 3.123-2.12 3.698-2.622.218-.19.38-.34.525-.447a30.8 30.8 0 0 0 .947-7.578 30.76 30.76 0 0 0-30.758-30.76" style="opacity:1;fill:url(#Q);fill-opacity:1;stroke:none;stroke-width:3;stroke-linecap:round;stroke-linejoin:round;stroke-opacity:1" transform="translate(384.968 690.75)scale(8.05576)"/><path d="M25.5 65.25a20.75 20.75 0 0 0-12.129 3.914c-2.469 3.808-3.09 9.235.52 16.832 8.716 8.64 20.8 7.356 23.822 6.758 1.709-.338 3.113-.914 4.187-1.346.898-.36 1.567-.62 2.118-.72v-.178a30.8 30.8 0 0 1 1.57-9.705A20.75 20.75 0 0 0 25.5 65.25" style="opacity:1;fill:url(#R);fill-opacity:1;stroke:none;stroke-width:3;stroke-linecap:round;stroke-linejoin:round;stroke-opacity:1" transform="translate(384.968 690.75)scale(8.05576)"/><path d="M86.992 72.194c.537.87 1.284.782 2.883-.338 3.528-2.47 8.26-1.894 11.945 1.46 4.328 3.936 5.93 3.868 2.203-.095-9.58-10.188-18.699-3.725-17.031-1.027" style="fill:#000" transform="translate(384.968 690.75)scale(8.05576)"/><path d="M50.143 62.014c-.602.434-1.107.108-1.938-1.235-1.766-2.857-4.94-3.906-7.986-2.798-3.437 1.248-4.308.732-1.265-.707 8.349-3.948 13.078 3.379 11.19 4.74" style="fill:#000;stroke-width:.746266" transform="translate(384.968 690.75)scale(8.05576)"/><path d="M90.852 30.568c-17.397 2.575-33.213 8.966-45.27 17.766-2.201 1.651-4.69 3.47-6.771 5.385-2.082 1.914-3.757 3.923-4.69 5.191s-1.125 1.795-1.7 2.01c-.573.215-1.53.12-2.7.135-1.96.023-5.426.602-8.825 2.101a53.9 53.9 0 0 0-3.037 17.842 53.917 53.917 0 0 0 53.916 53.918 53.917 53.917 0 0 0 53.916-53.918 53.92 53.92 0 0 0-34.84-50.43" style="opacity:1;mix-blend-mode:overlay;fill:url(#S);stroke:none;stroke-width:3;stroke-linecap:round;stroke-linejoin:round;stroke-opacity:1" transform="translate(384.968 690.75)scale(8.05576)"/></svg>