<svg xmlns="http://www.w3.org/2000/svg" xml:space="preserve" width="1000" height="500"><path d="M380.992 32.087c-2.1-.042-4.764.008-8.283.081-67.686 1.412-93.166 43.203-93.166 48.868 0 .502-.627 1.54-1.393 2.306-2.977 2.977-6.191 7.314-7.772 10.488-12.304 24.695-57.921 136.408-74.378 213.937-3.004 13.583-5.822 27.222-7.557 41.034-1.317 8.925-1.854 17.301-1.852 28.892 0 .744.018 22.55 3.337 33.498 6.055 19.971 13.3 30.624 21.003 38.104 10.138 9.844 26.831 18.633 36.931 18.633 7.949 0 33.785-22.52 48.092-39.497 11.215-13.307 21.721-27.137 31.952-41.224 13.814-19.56 29.118-34.015 52.424-40.104 10.744-2.884 228.598-2.884 239.34 0 23.306 6.09 38.61 20.543 52.424 40.104 10.23 14.087 20.737 27.917 31.952 41.224 14.307 16.978 40.143 39.497 48.092 39.497 10.1 0 26.793-8.79 36.93-18.633 7.704-7.48 14.95-18.133 21.004-38.104 3.319-10.948 3.337-32.754 3.337-33.498.003-11.591-.535-19.967-1.852-28.892-1.735-13.812-4.553-27.451-7.557-41.034-16.457-77.529-62.074-189.242-74.378-213.937-1.58-3.174-4.795-7.511-7.772-10.488-.766-.766-1.393-1.804-1.393-2.306 0-5.665-25.48-47.456-93.166-48.868-3.52-.073-6.182-.123-8.283-.08-6.303.127-7.541 1.082-11.626 4.702-4.712 4.175-6.64 5.745-7.806 6.352-1.776.927-197.377.926-199.152 0-1.166-.607-3.094-2.177-7.806-6.352-4.085-3.62-5.323-4.575-11.626-4.703" style="fill:#dfdfe7;fill-opacity:1;stroke-width:.314043"/><g style="fill:#000"><circle cx="417.501" cy="254.813" r="50.508" style="font-variation-settings:normal;vector-effect:none;fill:#000;fill-opacity:1;fill-rule:evenodd;stroke-width:100.982;stroke-linecap:butt;stroke-linejoin:miter;stroke-miterlimit:4;stroke-dasharray:none;stroke-dashoffset:0;stroke-opacity:1;-inkscape-stroke:none;stop-color:#000"/><g style="fill:#000" transform="translate(27.76 5.96)scale(.93708)"><circle cx="634.792" cy="154.829" r="22.338" style="font-variation-settings:normal;vector-effect:none;fill:#000;fill-opacity:1;fill-rule:evenodd;stroke-width:44.661;stroke-linecap:butt;stroke-linejoin:miter;stroke-miterlimit:4;stroke-dasharray:none;stroke-dashoffset:0;stroke-opacity:1;-inkscape-stroke:none;stop-color:#000"/><circle cx="-721.673" cy="154.829" r="22.338" style="font-variation-settings:normal;vector-effect:none;fill:#000;fill-opacity:1;fill-rule:evenodd;stroke-width:44.661;stroke-linecap:butt;stroke-linejoin:miter;stroke-miterlimit:4;stroke-dasharray:none;stroke-dashoffset:0;stroke-opacity:1;-inkscape-stroke:none;stop-color:#000" transform="scale(-1 1)"/><circle cx="111.388" cy="-678.232" r="22.338" style="font-variation-settings:normal;vector-effect:none;fill:#000;fill-opacity:1;fill-rule:evenodd;stroke-width:44.661;stroke-linecap:butt;stroke-linejoin:miter;stroke-miterlimit:4;stroke-dasharray:none;stroke-dashoffset:0;stroke-opacity:1;-inkscape-stroke:none;stop-color:#000" transform="rotate(90)"/><circle cx="-198.269" cy="-678.232" r="22.338" style="font-variation-settings:normal;vector-effect:none;fill:#000;fill-opacity:1;fill-rule:evenodd;stroke-width:44.661;stroke-linecap:butt;stroke-linejoin:miter;stroke-miterlimit:4;stroke-dasharray:none;stroke-dashoffset:0;stroke-opacity:1;-inkscape-stroke:none;stop-color:#000" transform="scale(1 -1)rotate(90)"/></g><circle cx="584.474" cy="246.097" r="35.332" style="font-variation-settings:normal;vector-effect:none;fill:#000;fill-opacity:1;fill-rule:evenodd;stroke-width:34.8415;stroke-linecap:butt;stroke-linejoin:miter;stroke-miterlimit:4;stroke-dasharray:none;stroke-dashoffset:0;stroke-opacity:1;-inkscape-stroke:none;stop-color:#000"/><circle cx="338.488" cy="151.048" r="35.332" style="font-variation-settings:normal;vector-effect:none;fill:#000;fill-opacity:1;fill-rule:evenodd;stroke-width:34.8415;stroke-linecap:butt;stroke-linejoin:miter;stroke-miterlimit:4;stroke-dasharray:none;stroke-dashoffset:0;stroke-opacity:1;-inkscape-stroke:none;stop-color:#000"/></g></svg>