<?xml version="1.0" encoding="UTF-8" standalone="no"?>
<!-- Created with Inkscape (http://www.inkscape.org/) -->

<svg
   version="1.1"
   id="svg1"
   width="1000"
   height="500"
   viewBox="0 0 999.99995 499.99998"
   sodipodi:docname="saturn-controller-white.svg"
   inkscape:export-filename="saturn-controller-white-1.png"
   inkscape:export-xdpi="350"
   inkscape:export-ydpi="350"
   inkscape:version="1.4.2 (ebf0e940d0, 2025-05-08)"
   xmlns:inkscape="http://www.inkscape.org/namespaces/inkscape"
   xmlns:sodipodi="http://sodipodi.sourceforge.net/DTD/sodipodi-0.dtd"
   xmlns="http://www.w3.org/2000/svg"
   xmlns:svg="http://www.w3.org/2000/svg">
  <sodipodi:namedview
     id="namedview1"
     pagecolor="#000000"
     bordercolor="#000000"
     borderopacity="0.25"
     inkscape:showpageshadow="2"
     inkscape:pageopacity="0.0"
     inkscape:pagecheckerboard="0"
     inkscape:deskcolor="#d1d1d1"
     inkscape:zoom="0.63656245"
     inkscape:cx="596.95635"
     inkscape:cy="261.56114"
     inkscape:window-width="1536"
     inkscape:window-height="888"
     inkscape:window-x="0"
     inkscape:window-y="0"
     inkscape:window-maximized="1"
     inkscape:current-layer="svg1" />
  <defs
     id="defs1" />
  <g
     id="g160"
     transform="matrix(0.73949316,0,0,0.73949316,106.24909,-213.17641)">
    <g
       id="组_2"
       data-name="组 2"
       transform="translate(319.00001,506.00091)"
       style="fill:#ffffff">
      <g
         id="SPLINE-5"
         style="fill:#ffffff">
        <path
           id="路径_7"
           data-name="路径 7"
           d="m 62.734,31.6 c -15.859,0 -27.074,11.215 -27.074,27.074 0,15.859 11.215,27.073 27.074,27.073"
           transform="translate(-34.806,-30.746)"
           fill="rgba(0,0,0,0)"
           style="fill:#ffffff" />
        <path
           id="路径_7_-_轮廓"
           data-name="路径 7 - 轮廓"
           d="M 62.837,86.7 A 30.385,30.385 0 0 1 51.6,84.645 25.72,25.72 0 0 1 36.97,70.012 a 31.667,31.667 0 0 1 0,-22.47 25.72,25.72 0 0 1 14.63,-14.632 30.385,30.385 0 0 1 11.235,-2.06 0.854,0.854 0 1 1 0,1.707 c -15.438,0 -26.22,10.782 -26.22,26.22 C 36.615,74.215 47.4,85 62.837,85 a 0.854,0.854 0 0 1 0,1.707 z"
           transform="translate(-34.91,-30.85)"
           fill="#4d4d4d"
           style="fill:#ffffff" />
      </g>
      <g
         id="SPLINE-6"
         transform="translate(27.074)"
         style="fill:#ffffff">
        <path
           id="路径_8"
           data-name="路径 8"
           d="m 49.3,85.747 c 15.859,0 27.074,-11.215 27.074,-27.074 C 76.374,42.814 65.159,31.6 49.3,31.6"
           transform="translate(-48.446,-30.746)"
           fill="rgba(0,0,0,0)"
           style="fill:#ffffff" />
        <path
           id="路径_8_-_轮廓"
           data-name="路径 8 - 轮廓"
           d="m 49.4,86.7 a 0.854,0.854 0 0 1 0,-1.7 C 64.838,85 75.62,74.218 75.62,58.78 75.62,43.342 64.842,32.557 49.4,32.557 a 0.854,0.854 0 1 1 0,-1.707 30.385,30.385 0 0 1 11.235,2.06 25.72,25.72 0 0 1 14.636,14.632 31.667,31.667 0 0 1 0,22.47 A 25.72,25.72 0 0 1 60.639,84.645 30.385,30.385 0 0 1 49.4,86.7 Z"
           transform="translate(-48.55,-30.85)"
           fill="#4d4d4d"
           style="fill:#ffffff" />
      </g>
    </g>
    <path
       style="fill:#ffffff"
       d="m 121.33334,918.82207 c -6.23333,-1.37121 -17.33333,-4.74336 -24.666666,-7.49367 -7.333334,-2.75032 -18.124242,-7.75811 -23.979796,-11.12843 -5.855554,-3.37031 -13.9506,-8.81911 -17.988991,-12.10842 -4.038391,-3.28932 -9.159104,-7.80553 -11.379361,-10.03603 -2.220258,-2.2305 -7.361357,-8.25545 -11.424666,-13.38879 C 27.830551,859.5334 22.634022,852.0334 20.346019,848.00006 18.058016,843.96673 14.372473,836.13749 12.155925,830.60175 9.9393761,825.066 6.9206244,815.12607 5.4475875,808.51299 3.9745506,801.89992 2.3792652,789.32917 1.9025088,780.57798 1.4257523,771.82679 1.7002746,754.75992 2.5125583,742.65161 c 0.8122836,-12.10831 2.4069605,-29.20831 3.5437263,-38 1.1367658,-8.79169 3.9025822,-24.98489 6.1462584,-35.98489 2.243677,-11 6.152283,-27.2 8.685792,-36.00001 2.53351,-8.8 6.325939,-21.1 8.427621,-27.33333 2.101682,-6.23333 4.994768,-14.33333 6.42908,-18 1.434312,-3.66667 5.066822,-12.48559 8.072244,-19.59761 3.005423,-7.11202 8.719598,-19.50889 12.698169,-27.54861 3.97857,-8.03971 8.891512,-17.52079 10.917649,-21.06906 2.026136,-3.54826 6.962994,-11.85139 10.970795,-18.4514 4.007801,-6.6 12.302749,-19.2 18.433218,-28 6.130469,-8.8 12.795559,-18.1 14.811299,-20.66667 2.01575,-2.56666 7.84003,-9.76666 12.94286,-16 5.10282,-6.23333 15.9073,-17.96926 24.00996,-26.07984 8.10267,-8.11057 19.55214,-18.3886 25.44328,-22.84005 5.89114,-4.45145 14.89114,-10.79077 20,-14.08738 5.10886,-3.2966 15.58884,-9.14956 23.28884,-13.00655 7.7,-3.857 19.10536,-8.98463 25.34523,-11.39473 6.23988,-2.4101 17.36565,-5.9081 24.72394,-7.77333 7.35828,-1.86523 19.35293,-4.3991 26.65477,-5.63082 8.94542,-1.50898 21.32231,-2.2637 37.94274,-2.3137 13.77741,-0.0414 29.37553,0.67021 35.33333,1.61207 5.86667,0.92745 23.86667,4.92842 40,8.89106 16.13334,3.96263 36.23334,8.40472 44.66667,9.8713 8.43334,1.46659 21.93334,3.38429 30.00001,4.26157 8.06666,0.87727 31.46667,1.59781 52,1.6012 31.75671,0.005 40.32081,-0.43762 57.33334,-2.96475 11,-1.634 26.9,-4.4907 35.33333,-6.34824 8.43334,-1.85753 25.53334,-5.97333 38.00001,-9.14622 12.46666,-3.17289 28.66667,-6.50887 36,-7.41328 7.33333,-0.90442 22.33334,-1.62155 33.33334,-1.59363 11,0.0279 25.1,0.74745 31.33333,1.59894 6.23334,0.8515 17.63334,3.03664 25.33334,4.85588 7.7,1.81924 22.1,6.04699 32,9.395 9.9,3.34801 24.06093,8.952 31.46872,12.45331 7.4078,3.50131 18.5309,9.69972 24.71802,13.77425 6.18711,4.07453 15.12618,10.83501 19.86461,15.02328 4.73843,4.18827 11.20567,10.38395 14.37165,13.76818 3.16598,3.38423 9.44179,10.65315 13.94625,16.15315 4.50446,5.5 11.58381,13.9 15.73188,18.66667 4.14808,4.76666 11.82406,14.47928 17.05774,21.5836 5.23368,7.10431 13.60681,19.10431 18.60696,26.66667 5.00014,7.56235 13.58079,21.84973 19.0681,31.74973 5.48734,9.9 12.75834,23.77937 16.15794,30.84303 3.3996,7.06366 8.999,19.96366 12.4432,28.66667 3.4442,8.703 8.6149,22.69518 11.4903,31.09372 2.8755,8.39854 7.5768,24.39585 10.4474,35.54957 2.8705,11.15372 6.3866,26.78218 7.8134,34.72992 1.4269,7.94774 3.6536,22.85044 4.9482,33.11711 1.6429,13.02818 2.3809,28.53402 2.4431,51.33333 0.075,27.38725 -0.3124,34.39057 -2.3957,43.33334 -1.3667,5.86667 -3.923,14.50485 -5.6807,19.19596 -1.7577,4.69111 -4.9672,12.01538 -7.1324,16.27617 -2.1652,4.26078 -6.5089,11.51977 -9.6527,16.13109 -3.1438,4.61132 -10.216,12.90694 -15.716,18.43473 -5.5,5.52778 -11.5076,11.23061 -13.3503,12.67295 -1.8426,1.44234 -6.0426,4.39985 -9.3333,6.57224 -3.29066,2.17239 -10.7108,6.25988 -16.4892,9.08332 -5.77839,2.82344 -15.80251,6.90796 -22.27581,9.07672 -6.4733,2.16876 -17.94553,4.89016 -25.49383,6.04756 -9.31496,1.42829 -18.00993,1.85864 -27.06401,1.33951 -7.36003,-0.422 -19.61265,-2.33193 -27.33334,-4.26071 -7.69643,-1.92272 -18.93933,-5.79655 -24.98421,-8.60851 -6.04489,-2.81196 -15.94489,-8.46495 -22,-12.56219 -6.05512,-4.09724 -15.5093,-10.67405 -21.0093,-14.61513 -5.50001,-3.94108 -15.40001,-10.60772 -22.00001,-14.81475 -6.6,-4.20703 -15,-9.60611 -18.66666,-11.99795 -3.66667,-2.39184 -11.16667,-7.03254 -16.66667,-10.31268 -5.5,-3.28013 -16.6,-9.51737 -24.66667,-13.86053 -8.06667,-4.34316 -20.06667,-10.51973 -26.66667,-13.7257 -6.6,-3.20598 -15.3,-7.28473 -19.33333,-9.0639 -4.03334,-1.77917 -9.13334,-4.04355 -11.33334,-5.03195 -2.2,-0.98841 -9.1,-3.86979 -15.33333,-6.40307 -6.23334,-2.53327 -18.96252,-7.04249 -28.28708,-10.02048 -9.32455,-2.97798 -24.4411,-6.9308 -33.59233,-8.78403 -9.15122,-1.85323 -23.72204,-4.06203 -32.37959,-4.90844 -9.36385,-0.91547 -26.2744,-1.25002 -41.74101,-0.8258 -17.59985,0.48273 -31.16933,1.62093 -42.00001,3.52295 -8.8,1.5454 -21.98125,4.34629 -29.29167,6.2242 -7.31042,1.87791 -20.51042,6.03447 -29.33334,9.2368 -8.82291,3.20233 -25.04166,9.81731 -36.04166,14.69995 -11,4.88265 -28.1,12.99909 -38,18.03655 -9.9,5.03745 -25.80001,13.85067 -35.33334,19.58492 -9.53333,5.73425 -23.80273,14.60363 -31.70977,19.70973 -7.90704,5.10609 -22.90704,15.29779 -33.33333,22.64822 -10.4263,7.35042 -21.24551,14.77322 -24.0427,16.4951 -2.79719,1.72188 -8.19719,4.63469 -12,6.47291 -3.80281,1.83822 -9.31421,4.20724 -12.24754,5.26449 -2.93334,1.05726 -9.83334,3.12622 -15.33334,4.59771 -7.27475,1.94631 -15.63218,2.82691 -30.66666,3.23129 -16.77385,0.45115 -22.80145,0.0862 -32.00001,-1.93724 z"
       id="path1" />
    <circle
       id="椭圆_9"
       data-name="椭圆 9"
       cx="700.06287"
       cy="587.6189"
       fill="rgba(0,0,0,0)"
       style="fill:#000000;stroke-width:3.60851"
       r="33.808067" />
    <circle
       id="椭圆_10"
       data-name="椭圆 10"
       cx="734.79822"
       cy="698.70654"
       r="45.409401"
       fill="rgba(0,0,0,0)"
       style="fill:#000000;stroke-width:3.60851" />
    <circle
       id="椭圆_11"
       data-name="椭圆 11"
       cx="832.35046"
       cy="645.7771"
       r="45.409401"
       fill="rgba(0,0,0,0)"
       style="fill:#000000;stroke-width:3.60851" />
    <circle
       id="椭圆_12"
       data-name="椭圆 12"
       fill="rgba(0,0,0,0)"
       style="fill:#000000;stroke-width:3.60851"
       r="45.409401"
       cy="614.26392"
       cx="936.20685" />
    <path
       id="椭圆_13_-_轮廓"
       data-name="椭圆 13 - 轮廓"
       d="m 789.01596,507.82758 a 36.886118,36.886118 0 1 1 -36.88611,36.88612 36.92942,36.92942 0 0 1 36.88611,-36.88612 z m 0,67.61253 a 30.726404,30.726404 0 1 0 -30.72639,-30.72641 30.762488,30.762488 0 0 0 30.72639,30.72641 z"
       fill="#4d4d4d"
       style="fill:#000000;stroke-width:3.60851" />
    <path
       id="椭圆_14_-_轮廓"
       data-name="椭圆 14 - 轮廓"
       d="m 881.12662,480.54008 a 36.886118,36.886118 0 1 1 -36.88612,36.88612 36.92942,36.92942 0 0 1 36.88612,-36.88612 z m 0,67.61253 a 30.726404,30.726404 0 1 0 -30.72641,-30.72641 30.762488,30.762488 0 0 0 30.72641,30.72641 z"
       fill="#4d4d4d"
       style="fill:#000000;stroke-width:3.60851" />
    <circle
       style="fill:#000000"
       id="path18"
       cx="253.94357"
       cy="583.51678"
       r="81.778435" />
    <g
       id="组_14-2"
       data-name="组 14"
       transform="matrix(3.0930395,0,0,3.1111776,171.63352,502.30075)">
      <g
         id="SPLINE-378-1"
         transform="translate(33.612,33.612)"
         style="fill:#000000">
        <path
           id="路径_380-7"
           data-name="路径 380"
           d="m 55.175,49.21 a 1.1,1.1 0 0 0 -0.357,0.04 1.6,1.6 0 0 0 -0.437,0.139 1.622,1.622 0 0 0 -0.4,0.238 2.4,2.4 0 0 0 -0.318,0.318 1.622,1.622 0 0 0 -0.238,0.4 3.706,3.706 0 0 0 -0.139,0.437 c 0,0.1 -0.02,0.218 -0.02,0.337"
           transform="translate(-52.416,-48.356)"
           fill="rgba(0,0,0,0)"
           style="fill:#000000" />
        <path
           id="路径_380_-_轮廓-8"
           data-name="路径 380 - 轮廓"
           d="m 53.374,52.073 c -0.471651,0 -0.854,-0.382349 -0.854,-0.854 0,-0.1 0.008,-0.187 0.014,-0.258 0,-0.028 0.006,-0.067 0.006,-0.08 1.1e-5,-0.07916 0.01112,-0.157925 0.033,-0.234 l 0.02,-0.071 c 0.04109,-0.159306 0.09288,-0.31566 0.155,-0.468 0.09236,-0.219007 0.215974,-0.423467 0.367,-0.607 0.128777,-0.155273 0.271727,-0.298223 0.427,-0.427 0.183525,-0.151038 0.387987,-0.274658 0.607,-0.367 0.187522,-0.08707 0.384988,-0.150872 0.588,-0.19 0.177197,-0.04384 0.359538,-0.06336 0.542,-0.058 1.099708,0.03765 1.099708,1.669352 0,1.707 h -0.106 c -0.04767,0.01457 -0.09652,0.02495 -0.146,0.031 -0.07087,0.01892 -0.139827,0.04436 -0.206,0.076 -0.06708,0.02749 -0.130021,0.06417 -0.187,0.109 -0.07579,0.06256 -0.14544,0.132209 -0.208,0.208 -0.04483,0.05698 -0.08151,0.119915 -0.109,0.187 -0.02949,0.07717 -0.05453,0.155964 -0.075,0.236 0,0.032 0,0.063 -0.007,0.092 -0.007,0.029 -0.007,0.085 -0.007,0.11 0.0022,0.473213 -0.380782,0.858005 -0.854,0.858 z"
           transform="translate(-52.52,-48.46)"
           fill="#4d4d4d"
           style="fill:#ffffff" />
      </g>
      <g
         id="SPLINE-379-5"
         transform="translate(15.966,33.612)"
         style="fill:#000000">
        <path
           id="路径_381-7"
           data-name="路径 381"
           d="m 46.285,51.115 a 1.1,1.1 0 0 0 -0.04,-0.357 1.6,1.6 0 0 0 -0.139,-0.437 1.623,1.623 0 0 0 -0.238,-0.4 2.4,2.4 0 0 0 -0.318,-0.318 1.623,1.623 0 0 0 -0.4,-0.238 3.7,3.7 0 0 0 -0.437,-0.139 c -0.1,0 -0.218,-0.02 -0.337,-0.02"
           transform="translate(-43.526,-48.356)"
           fill="rgba(0,0,0,0)"
           style="fill:#000000" />
        <path
           id="路径_381_-_轮廓-4"
           data-name="路径 381 - 轮廓"
           d="m 46.389,52.073 c -0.471651,0 -0.854,-0.382349 -0.854,-0.854 V 51.113 C 45.52042,51.06533 45.51005,51.01648 45.504,50.967 45.48476,50.8961 45.45898,50.827138 45.427,50.761 45.39951,50.69391 45.36283,50.630979 45.318,50.574 45.25544,50.49821 45.185795,50.428556 45.11,50.366 45.05302,50.32117 44.990085,50.28449 44.923,50.257 44.84583,50.2275 44.767038,50.20246 44.687,50.182 l -0.092,-0.007 c -0.042,0 -0.085,-0.007 -0.11,-0.007 -1.099708,-0.03765 -1.099708,-1.669352 0,-1.707 0.1,0 0.187,0.008 0.258,0.014 l 0.08,0.006 c 0.07916,1.1e-5 0.157925,0.01112 0.234,0.033 l 0.071,0.02 c 0.159309,0.04108 0.315664,0.09287 0.468,0.155 0.219013,0.09234 0.423475,0.215962 0.607,0.367 0.155273,0.128777 0.298223,0.271727 0.427,0.427 0.151038,0.183525 0.274658,0.387987 0.367,0.607 0.08706,0.187526 0.150862,0.38499 0.19,0.588 0.04384,0.177197 0.06336,0.359538 0.058,0.542 -5.51e-4,0.472043 -0.383958,0.854106 -0.856,0.853 z"
           fill="#4d4d4d"
           style="fill:#ffffff"
           transform="translate(-43.63,-48.46)" />
      </g>
      <g
         id="SPLINE-380-1"
         transform="translate(33.612,15.966)">
        <path
           id="路径_382-8"
           data-name="路径 382"
           d="m 53.27,40.32 a 1.1,1.1 0 0 0 0.04,0.357 1.6,1.6 0 0 0 0.139,0.437 1.623,1.623 0 0 0 0.238,0.4 2.4,2.4 0 0 0 0.318,0.318 1.623,1.623 0 0 0 0.4,0.238 3.706,3.706 0 0 0 0.437,0.139 c 0.1,0 0.218,0.02 0.337,0.02"
           transform="translate(-52.416,-39.466)"
           fill="rgba(0,0,0,0)" />
        <path
           id="路径_382_-_轮廓-5"
           data-name="路径 382 - 轮廓"
           d="m 55.279,43.183 c -0.1,0 -0.187,-0.008 -0.258,-0.014 l -0.08,-0.006 c -0.07916,-1.1e-5 -0.157925,-0.01112 -0.234,-0.033 l -0.071,-0.02 c -0.158968,-0.04113 -0.314988,-0.09291 -0.467,-0.155 -0.219013,-0.09234 -0.423475,-0.215962 -0.607,-0.367 -0.155265,-0.128786 -0.298214,-0.271735 -0.427,-0.427 -0.151026,-0.183533 -0.274645,-0.387993 -0.367,-0.607 -0.08707,-0.187522 -0.150872,-0.384988 -0.19,-0.588 -0.04384,-0.177197 -0.06336,-0.359538 -0.058,-0.542 0.03765,-1.099708 1.669352,-1.099708 1.707,0 v 0.106 c 0.01457,0.04767 0.02494,0.09652 0.031,0.146 0.01891,0.07087 0.04436,0.139829 0.076,0.206 0.0275,0.06708 0.06418,0.130013 0.109,0.187 0.06256,0.07579 0.132209,0.14544 0.208,0.208 0.05698,0.04483 0.119915,0.08151 0.187,0.109 0.07717,0.0295 0.155963,0.05454 0.236,0.075 l 0.092,0.007 c 0.042,0 0.085,0.007 0.11,0.007 1.099708,0.03765 1.099708,1.669352 0,1.707 z"
           transform="translate(-52.52,-39.57)"
           fill="#4d4d4d"
           style="fill:#ffffff" />
      </g>
      <g
         id="SPLINE-381-9"
         transform="translate(15.966,15.966)">
        <path
           id="路径_383-7"
           data-name="路径 383"
           d="m 44.38,42.225 a 1.1,1.1 0 0 0 0.357,-0.04 1.6,1.6 0 0 0 0.437,-0.139 1.623,1.623 0 0 0 0.4,-0.238 2.4,2.4 0 0 0 0.318,-0.318 1.623,1.623 0 0 0 0.238,-0.4 3.706,3.706 0 0 0 0.139,-0.437 c 0,-0.1 0.02,-0.218 0.02,-0.337"
           transform="translate(-43.526,-39.466)"
           fill="rgba(0,0,0,0)" />
        <path
           id="路径_383_-_轮廓-5"
           data-name="路径 383 - 轮廓"
           d="m 44.484,43.183 c -1.099708,-0.03765 -1.099708,-1.669352 0,-1.707 h 0.106 c 0.04767,-0.01457 0.09652,-0.02495 0.146,-0.031 0.07087,-0.01891 0.139829,-0.04436 0.206,-0.076 0.06708,-0.02749 0.130021,-0.06417 0.187,-0.109 0.07579,-0.06256 0.145444,-0.132205 0.208,-0.208 0.04483,-0.05698 0.08151,-0.119915 0.109,-0.187 0.0295,-0.07717 0.05454,-0.155962 0.075,-0.236 0,-0.032 0,-0.063 0.007,-0.092 0.007,-0.029 0.007,-0.085 0.007,-0.11 0.03765,-1.099708 1.669352,-1.099708 1.707,0 0,0.1 -0.008,0.187 -0.014,0.258 0,0.028 -0.006,0.067 -0.006,0.08 4.07e-4,0.07945 -0.01037,0.158555 -0.032,0.235 l -0.02,0.071 c -0.04112,0.15897 -0.09291,0.31499 -0.155,0.467 -0.09235,0.219007 -0.215974,0.423467 -0.367,0.607 -0.128782,0.155269 -0.271731,0.298218 -0.427,0.427 -0.183533,0.151026 -0.387993,0.274645 -0.607,0.367 -0.187526,0.08706 -0.38499,0.150862 -0.588,0.19 -0.177382,0.0425 -0.35972,0.06066 -0.542,0.054 z"
           transform="translate(-43.63,-39.57)"
           fill="#4d4d4d"
           style="fill:#ffffff" />
      </g>
      <g
         id="SPLINE-382-3"
         transform="translate(35.517,33.612)"
         style="fill:#000000">
        <path
           id="路径_384-8"
           data-name="路径 384"
           d="M 54.23,49.21 H 68.184"
           transform="translate(-53.376,-48.356)"
           fill="rgba(0,0,0,0)"
           style="fill:#000000" />
        <path
           id="路径_384_-_轮廓-8"
           data-name="路径 384 - 轮廓"
           d="M 68.287,50.167 H 54.334 c -1.099708,-0.03765 -1.099708,-1.669352 0,-1.707 h 13.953 c 1.099708,0.03765 1.099708,1.669352 0,1.707 z"
           transform="translate(-53.48,-48.46)"
           fill="#4d4d4d"
           style="fill:#ffffff" />
      </g>
      <g
         id="SPLINE-383-3"
         transform="translate(33.612,35.517)"
         style="fill:#000000">
        <path
           id="路径_385-1"
           data-name="路径 385"
           d="M 53.27,50.17 V 64.124"
           transform="translate(-52.416,-49.316)"
           fill="rgba(0,0,0,0)"
           style="fill:#000000" />
        <path
           id="路径_385_-_轮廓-8"
           data-name="路径 385 - 轮廓"
           d="m 53.374,65.081 c -0.471651,0 -0.854,-0.382349 -0.854,-0.854 V 50.274 c 0.03765,-1.099708 1.669352,-1.099708 1.707,0 v 13.953 c 0,0.471261 -0.381739,0.853448 -0.853,0.854 z"
           transform="translate(-52.52,-49.42)"
           fill="#4d4d4d"
           style="fill:#ffffff" />
      </g>
      <g
         id="SPLINE-384-9"
         transform="translate(17.872,35.517)"
         style="fill:#000000">
        <path
           id="路径_386-6"
           data-name="路径 386"
           d="M 45.34,50.17 V 64.124"
           transform="translate(-44.486,-49.316)"
           fill="rgba(0,0,0,0)"
           style="fill:#000000" />
        <path
           id="路径_386_-_轮廓-4"
           data-name="路径 386 - 轮廓"
           d="m 45.444,65.081 c -0.471651,0 -0.854,-0.382349 -0.854,-0.854 V 50.274 c -0.04032,-1.177625 1.747315,-1.177625 1.707,0 v 13.953 c 0,0.471261 -0.381739,0.853448 -0.853,0.854 z"
           fill="#4d4d4d"
           style="fill:#ffffff"
           transform="translate(-44.59,-49.42)" />
      </g>
      <g
         id="SPLINE-385-3"
         transform="translate(2.013,33.612)"
         style="fill:#000000">
        <path
           id="路径_387-3"
           data-name="路径 387"
           d="M 51.3,49.21 H 37.35"
           transform="translate(-36.496,-48.356)"
           fill="rgba(0,0,0,0)"
           style="fill:#000000" />
        <path
           id="路径_387_-_轮廓-3"
           data-name="路径 387 - 轮廓"
           d="M 51.407,50.167 H 37.454 c -1.099708,-0.03765 -1.099708,-1.669352 0,-1.707 h 13.953 c 1.099708,0.03765 1.099708,1.669352 0,1.707 z"
           transform="translate(-36.6,-48.46)"
           fill="#4d4d4d"
           style="fill:#ffffff" />
      </g>
      <g
         id="SPLINE-386-8"
         transform="translate(33.612,2.013)">
        <path
           id="路径_388-6"
           data-name="路径 388"
           d="M 53.27,47.244 V 33.29"
           transform="translate(-52.416,-32.436)"
           fill="rgba(0,0,0,0)" />
        <path
           id="路径_388_-_轮廓-0"
           data-name="路径 388 - 轮廓"
           d="m 53.374,48.2 c -0.471651,0 -0.854,-0.382349 -0.854,-0.854 V 33.394 c 0.03765,-1.099708 1.669352,-1.099708 1.707,0 v 13.953 c -5.51e-4,0.47087 -0.38213,0.852449 -0.853,0.853 z"
           transform="translate(-52.52,-32.54)"
           fill="#4d4d4d"
           style="fill:#ffffff" />
      </g>
      <g
         id="SPLINE-387-4"
         transform="translate(35.517,17.872)">
        <path
           id="路径_389-8"
           data-name="路径 389"
           d="M 54.23,41.28 H 68.184"
           transform="translate(-53.376,-40.426)"
           fill="rgba(0,0,0,0)" />
        <path
           id="路径_389_-_轮廓-8"
           data-name="路径 389 - 轮廓"
           d="M 68.287,42.237 H 54.334 c -1.099708,-0.03765 -1.099708,-1.669352 0,-1.707 h 13.953 c 1.177625,-0.04031 1.177625,1.747315 0,1.707 z"
           transform="translate(-53.48,-40.53)"
           fill="#4d4d4d"
           style="fill:#ffffff" />
      </g>
      <g
         id="SPLINE-388-8"
         transform="translate(2.013,17.872)">
        <path
           id="路径_390-9"
           data-name="路径 390"
           d="M 51.3,41.28 H 37.35"
           transform="translate(-36.496,-40.426)"
           fill="rgba(0,0,0,0)" />
        <path
           id="路径_390_-_轮廓-7"
           data-name="路径 390 - 轮廓"
           d="M 51.407,42.237 H 37.454 c -1.177625,0.04031 -1.177625,-1.747315 0,-1.707 h 13.953 c 1.099708,0.03765 1.099708,1.669352 0,1.707 z"
           transform="translate(-36.6,-40.53)"
           fill="#4d4d4d"
           style="fill:#ffffff" />
      </g>
      <g
         id="SPLINE-389-7"
         transform="translate(17.872,2.013)">
        <path
           id="路径_391-6"
           data-name="路径 391"
           d="M 45.34,47.244 V 33.29"
           transform="translate(-44.486,-32.436)"
           fill="rgba(0,0,0,0)" />
        <path
           id="路径_391_-_轮廓-4"
           data-name="路径 391 - 轮廓"
           d="m 45.444,48.2 c -0.471651,0 -0.854,-0.382349 -0.854,-0.854 V 33.394 c -0.04032,-1.177625 1.747315,-1.177625 1.707,0 v 13.953 c -5.51e-4,0.47087 -0.38213,0.852449 -0.853,0.853 z"
           transform="translate(-44.59,-32.54)"
           fill="#4d4d4d"
           style="fill:#ffffff" />
      </g>
      <g
         id="SPLINE-390-3"
         transform="translate(49.471,17.753)">
        <path
           id="路径_392-0"
           data-name="路径 392"
           d="m 63.443,41.22 v 0.06 a 0.323,0.323 0 0 1 -0.119,0.06 c -0.06,0 -0.119,0.04 -0.218,0.04 a 1.407,1.407 0 0 0 -0.278,0.02 1.913,1.913 0 0 1 -0.337,0 h -0.4 a 3.542,3.542 0 0 1 -0.457,-0.04 2.712,2.712 0 0 1 -0.377,-0.04"
           transform="translate(-60.406,-40.366)"
           fill="rgba(0,0,0,0)" />
        <path
           id="路径_392_-_轮廓-3"
           data-name="路径 392 - 轮廓"
           d="m 62.827,42.365 c -0.06,0 -0.114,0 -0.161,-0.006 h -0.072 -0.4 c -0.172719,-0.0022 -0.3451,-0.0159 -0.516,-0.041 v 0 c -0.129674,-0.0057 -0.258899,-0.01907 -0.387,-0.04 l -0.05,-0.007 c -1.085558,-0.190999 -0.854675,-1.810053 0.241,-1.69 l 0.054,0.008 c 0.0662,0.0113 0.132965,0.01897 0.2,0.023 0.03544,1.31e-4 0.07085,0.0025 0.106,0.007 l 0.049,0.006 c 0.09935,0.01519 0.199538,0.02421 0.3,0.027 h 0.4 c 0.065,0 0.122,0 0.169,0.006 h 0.046 c 0.07875,-0.01318 0.158231,-0.02153 0.238,-0.025 0.564653,-0.407794 1.353734,-0.0045 1.354,0.692 v 0.06 c -9.88e-4,0.225135 -0.09084,0.440772 -0.25,0.6 -0.127961,0.123082 -0.28317,0.21422 -0.453,0.266 -0.04595,0.01532 -0.09312,0.02669 -0.141,0.034 -0.112796,0.03264 -0.229577,0.04947 -0.347,0.05 -0.03697,-0.002 -0.07403,-0.002 -0.111,0 -0.08846,0.01884 -0.178564,0.02889 -0.269,0.03 z"
           transform="translate(-60.51,-40.47)"
           fill="#4d4d4d"
           style="fill:#ffffff" />
      </g>
      <g
         id="SPLINE-391-0"
         transform="translate(33.532,49.471)"
         style="fill:#000000">
        <path
           id="路径_393-9"
           data-name="路径 393"
           d="m 53.309,57.2 c 0,0.119 -0.04,0.218 -0.04,0.337 a 2.96,2.96 0 0 1 -0.04,0.417 v 0.675 a 0.818,0.818 0 0 0 0.02,0.238 0.587,0.587 0 0 0 0.04,0.2 0.124,0.124 0 0 0 0.06,0.1 h 0.06"
           transform="translate(-52.376,-56.346)"
           fill="rgba(0,0,0,0)"
           style="fill:#000000" />
        <path
           id="路径_393_-_轮廓-2"
           data-name="路径 393 - 轮廓"
           d="m 53.512,60.122 h -0.06 c -0.211796,-6.4e-5 -0.416013,-0.07883 -0.573,-0.221 -0.16258,-0.137305 -0.274816,-0.324834 -0.319,-0.533 -0.02743,-0.08893 -0.04585,-0.180388 -0.055,-0.273 -0.02043,-0.119533 -0.02914,-0.240775 -0.026,-0.362 v -0.675 c 1.27e-4,-0.0405 0.0031,-0.08093 0.009,-0.121 0.0167,-0.09924 0.02706,-0.199442 0.031,-0.3 0.0013,-0.107829 0.01264,-0.215301 0.034,-0.321 0,-0.012 0,-0.023 0.006,-0.035 0.04793,-1.101359 1.683597,-1.083153 1.707,0.019 -0.0013,0.107829 -0.01264,0.215301 -0.034,0.321 0,0.011 0,0.023 -0.006,0.034 -0.0031,0.153722 -0.01643,0.307065 -0.04,0.459 v 0.628 c 0.433304,0.561048 0.03389,1.375259 -0.675,1.376 z"
           transform="translate(-52.48,-56.45)"
           fill="#4d4d4d"
           style="fill:#ffffff" />
      </g>
      <g
         id="SPLINE-392-5"
         transform="translate(17.753,0.008)">
        <path
           id="路径_394-4"
           data-name="路径 394"
           d="m 45.28,32.28 h 0.06 c 0.02,0 0.04,0.06 0.06,0.1 a 1.72,1.72 0 0 1 0.04,0.2 0.966,0.966 0 0 0 0.02,0.238 1.683,1.683 0 0 1 0,0.318 v 0.357 a 2.962,2.962 0 0 1 -0.04,0.417 1.955,1.955 0 0 1 -0.04,0.337"
           transform="translate(-44.426,-31.426)"
           fill="rgba(0,0,0,0)" />
        <path
           id="路径_394_-_轮廓-0"
           data-name="路径 394 - 轮廓"
           d="m 45.484,35.2 a 0.854,0.854 0 0 1 -0.843,-0.994 l 0.008,-0.047 a 1.072,1.072 0 0 0 0.02,-0.15 0.854,0.854 0 0 1 0.009,-0.121 2.367,2.367 0 0 0 0.031,-0.3 v -0.357 c 0,-0.066 0,-0.124 0.006,-0.171 v -0.022 a 1.538,1.538 0 0 1 -0.021,-0.155 0.854,0.854 0 0 1 0.688,-1.359 h 0.06 a 0.886,0.886 0 0 1 0.825,0.574 v 0.006 a 0.854,0.854 0 0 1 0.072,0.22 1.264,1.264 0 0 1 0.054,0.352 c 0,0.018 0,0.042 0,0.057 a 1.478,1.478 0 0 1 0.023,0.426 c 0,0.024 0,0.048 0,0.073 v 0.357 a 3.419,3.419 0 0 1 -0.041,0.486 2.664,2.664 0 0 1 -0.043,0.367 l -0.007,0.041 A 0.854,0.854 0 0 1 45.484,35.2 Z"
           transform="translate(-44.53,-31.53)"
           fill="#4d4d4d"
           style="fill:#ffffff" />
      </g>
      <g
         id="SPLINE-393-5"
         transform="translate(0.048,33.532)"
         style="fill:#000000">
        <path
           id="路径_395-9"
           data-name="路径 395"
           d="m 38.325,49.249 c -0.119,0 -0.218,-0.04 -0.337,-0.04 a 2.96,2.96 0 0 1 -0.417,-0.04 H 36.9 a 0.818,0.818 0 0 0 -0.238,0.02 0.587,0.587 0 0 0 -0.2,0.04 0.124,0.124 0 0 0 -0.1,0.06 v 0.06"
           transform="translate(-35.506,-48.316)"
           fill="rgba(0,0,0,0)"
           style="fill:#000000" />
        <path
           id="路径_395_-_轮廓-4"
           data-name="路径 395 - 轮廓"
           d="m 36.464,50.306 c -0.471651,0 -0.854,-0.382349 -0.854,-0.854 v -0.06 c 6.4e-5,-0.211796 0.07883,-0.416013 0.221,-0.573 0.137305,-0.16258 0.324834,-0.274816 0.533,-0.319 0.08893,-0.02742 0.180389,-0.04584 0.273,-0.055 0.119895,-0.02015 0.241474,-0.02853 0.363,-0.025 h 0.675 c 0.0405,1.27e-4 0.08093,0.0031 0.121,0.009 0.09924,0.0167 0.199442,0.02706 0.3,0.031 0.107829,0.0013 0.215301,0.01264 0.321,0.034 l 0.035,0.006 c 1.101359,0.04793 1.083153,1.683597 -0.019,1.707 -0.107829,-0.0013 -0.215301,-0.01264 -0.321,-0.034 l -0.034,-0.006 c -0.153722,-0.0031 -0.307066,-0.01642 -0.459,-0.04 h -0.628 c -0.150601,0.117118 -0.336223,0.180166 -0.527,0.179 z"
           transform="translate(-35.61,-48.42)"
           fill="#4d4d4d"
           style="fill:#ffffff" />
      </g>
      <g
         id="SPLINE-394-6"
         transform="translate(49.471,33.524)"
         style="fill:#000000">
        <path
           id="路径_396-9"
           data-name="路径 396"
           d="m 61.26,49.254 c 0,0 0.179,-0.02 0.278,-0.04 a 2.689,2.689 0 0 0 0.4,-0.04 2.143,2.143 0 0 1 0.357,0 h 0.318 a 1.221,1.221 0 0 1 0.278,0.02 0.713,0.713 0 0 1 0.218,0.04 0.969,0.969 0 0 1 0.139,0.06 h 0.02"
           transform="translate(-60.406,-48.312)"
           fill="rgba(0,0,0,0)"
           style="fill:#000000" />
        <path
           id="路径_396_-_轮廓-2"
           data-name="路径 396 - 轮廓"
           d="m 63.368,50.251 h -0.02 c -0.132594,6.2e-5 -0.26338,-0.03075 -0.382,-0.09 l -0.021,-0.01 C 62.90062,50.1488 62.85649,50.1431 62.813,50.134 H 62.4 c -0.065,0 -0.12,0 -0.165,-0.006 h -0.072 l -0.044,0.006 c -0.129141,0.02069 -0.259349,0.03404 -0.39,0.04 -0.114,0.019 -0.238,0.033 -0.267,0.036 -1.133333,0.126 -1.322333,-1.574 -0.189,-1.7 v 0 c 0.068,-0.008 0.168,-0.021 0.2,-0.028 0.05497,-0.01114 0.11091,-0.01683 0.167,-0.017 0.07646,-0.0028 0.152632,-0.01084 0.228,-0.024 l 0.048,-0.007 c 0.137186,-0.01865 0.275964,-0.02267 0.414,-0.012 h 0.065 0.318 c 0.127452,-0.0029 0.254917,0.0051 0.381,0.024 0.131135,0.01074 0.260444,0.0376 0.385,0.08 0.053,0.018 0.1,0.036 0.138,0.053 0.934599,0.288506 0.72911,1.666682 -0.249,1.67 z"
           transform="translate(-60.51,-48.416)"
           fill="#4d4d4d"
           style="fill:#ffffff" />
      </g>
      <g
         id="SPLINE-395-2"
         transform="translate(17.752,49.471)"
         style="fill:#000000">
        <path
           id="路径_397-4"
           data-name="路径 397"
           d="m 45.4,57.2 c 0,0 0.02,0.179 0.04,0.278 a 2.69,2.69 0 0 0 0.04,0.4 2.143,2.143 0 0 1 0,0.357 v 0.318 a 1.221,1.221 0 0 1 -0.02,0.278 0.713,0.713 0 0 1 -0.04,0.218 0.969,0.969 0 0 1 -0.06,0.139 c -0.02,0.02 -0.04,0.04 -0.079,0.02"
           transform="translate(-44.426,-56.346)"
           fill="rgba(0,0,0,0)"
           style="fill:#000000" />
        <path
           id="路径_397_-_轮廓-7"
           data-name="路径 397 - 轮廓"
           d="m 45.412,60.17 c -0.142596,-8.94e-4 -0.283005,-0.03514 -0.41,-0.1 -0.490832,-0.245467 -0.62606,-0.88353 -0.277,-1.307 v -0.011 -0.1 -0.318 c 0,-0.065 0,-0.12 0.006,-0.165 v -0.072 l -0.006,-0.044 c -0.02069,-0.12914 -0.03404,-0.259349 -0.04,-0.39 -0.019,-0.114 -0.033,-0.238 -0.036,-0.267 -0.126,-1.133333 1.574,-1.322333 1.7,-0.189 v 0 c 0.008,0.068 0.021,0.168 0.028,0.2 0.01114,0.05497 0.01683,0.11091 0.017,0.167 0.0028,0.07646 0.01084,0.152632 0.024,0.228 l 0.007,0.048 c 0.01859,0.136856 0.02261,0.275296 0.012,0.413 v 0.065 0.318 c 0.0029,0.127452 -0.0051,0.254917 -0.024,0.381 -0.01073,0.131135 -0.0376,0.260444 -0.08,0.385 -0.02895,0.0859 -0.06439,0.169471 -0.106,0.25 -0.04105,0.08212 -0.09508,0.157081 -0.16,0.222 -0.171132,0.179333 -0.407143,0.282385 -0.655,0.286 z"
           transform="translate(-44.53,-56.45)"
           fill="#4d4d4d"
           style="fill:#ffffff" />
      </g>
      <g
         id="SPLINE-396-7"
         transform="translate(33.524)">
        <path
           id="路径_398-5"
           data-name="路径 398"
           d="m 53.314,34.289 c 0,0 -0.02,-0.179 -0.04,-0.278 a 2.689,2.689 0 0 0 -0.04,-0.4 2.144,2.144 0 0 1 0,-0.357 v -0.318 a 1.22,1.22 0 0 1 0.02,-0.278 0.713,0.713 0 0 1 0.04,-0.218 0.969,0.969 0 0 1 0.06,-0.139 c 0.02,-0.02 0.04,-0.04 0.079,-0.02"
           transform="translate(-52.372,-31.423)"
           fill="rgba(0,0,0,0)" />
        <path
           id="路径_398_-_轮廓-4"
           data-name="路径 398 - 轮廓"
           d="m 53.416,35.246 c -0.43424,-8.64e-4 -0.798695,-0.327454 -0.847,-0.759 v 0 C 52.561,34.419 52.548,34.319 52.541,34.287 52.52986,34.23203 52.52416,34.17609 52.524,34.12 52.5212,34.04354 52.51316,33.967368 52.5,33.892 L 52.493,33.844 C 52.47435,33.706814 52.47033,33.568036 52.481,33.43 v -0.065 -0.318 c -0.0029,-0.127452 0.0051,-0.254917 0.024,-0.381 0.01073,-0.131135 0.0376,-0.260444 0.08,-0.385 0.0289,-0.08624 0.06433,-0.170151 0.106,-0.251 0.04105,-0.08212 0.09508,-0.157081 0.16,-0.222 0.277318,-0.28667 0.708874,-0.359609 1.065,-0.18 0.490832,0.245467 0.62606,0.88353 0.277,1.307 v 0.011 0.1 0.318 c 0,0.065 0,0.12 -0.006,0.165 v 0.072 l 0.006,0.044 c 0.02068,0.129141 0.03404,0.259349 0.04,0.39 0.019,0.114 0.033,0.238 0.036,0.267 0.05204,0.468571 -0.28546,0.890676 -0.754,0.943 -0.03295,0.0022 -0.06601,0.0026 -0.099,0.001 z"
           transform="translate(-52.476,-31.526)"
           fill="#4d4d4d"
           style="fill:#ffffff" />
      </g>
      <g
         id="SPLINE-397-8"
         transform="translate(0,17.752)">
        <path
           id="路径_399-1"
           data-name="路径 399"
           d="m 38.349,41.339 c 0,0 -0.179,0.02 -0.278,0.04 a 2.69,2.69 0 0 0 -0.4,0.04 2.143,2.143 0 0 1 -0.357,0 H 37 a 1.221,1.221 0 0 1 -0.278,-0.02 0.714,0.714 0 0 1 -0.218,-0.04 0.971,0.971 0 0 1 -0.139,-0.06 c -0.02,-0.02 -0.04,-0.04 -0.02,-0.079"
           transform="translate(-35.483,-40.366)"
           fill="rgba(0,0,0,0)" />
        <path
           id="路径_399_-_轮廓-2"
           data-name="路径 399 - 轮廓"
           d="m 37.649,42.385 c -0.065,0 -0.12,0 -0.164,-0.006 H 37.42 37.1 c -0.127452,0.0029 -0.254917,-0.0051 -0.381,-0.024 -0.131135,-0.01073 -0.260444,-0.0376 -0.385,-0.08 -0.0859,-0.02896 -0.169469,-0.06439 -0.25,-0.106 -0.08211,-0.04107 -0.15707,-0.09509 -0.222,-0.16 -0.28667,-0.277318 -0.359609,-0.708874 -0.18,-1.065 0.245467,-0.490832 0.88353,-0.62606 1.307,-0.277 H 37 37.418 c 0.065,0 0.12,0 0.165,0.006 h 0.072 l 0.044,-0.006 c 0.129141,-0.02068 0.25935,-0.03403 0.39,-0.04 0.114,-0.019 0.238,-0.033 0.267,-0.036 1.133333,-0.126 1.322333,1.574 0.189,1.7 v 0 c -0.068,0.008 -0.168,0.021 -0.2,0.028 -0.0553,0.01121 -0.111576,0.0169 -0.168,0.017 -0.07646,0.0028 -0.152632,0.01084 -0.228,0.024 l -0.048,0.007 c -0.08346,0.01206 -0.167676,0.01808 -0.252,0.018 z"
           transform="translate(-35.586,-40.47)"
           fill="#4d4d4d"
           style="fill:#ffffff" />
      </g>
      <g
         id="组_13-8"
         data-name="组 13"
         transform="translate(20.809,20.809)"
         style="fill:#000000">
        <g
           id="SPLINE-398-9"
           transform="translate(4.923)"
           style="fill:#000000">
          <path
             id="路径_400-3"
             data-name="路径 400"
             d="m 49.3,42.76 a 4.732,4.732 0 0 1 4.922,4.922"
             transform="translate(-48.446,-41.906)"
             fill="rgba(0,0,0,0)"
             style="fill:#000000" />
          <path
             id="路径_400_-_轮廓-6"
             data-name="路径 400 - 轮廓"
             d="m 54.326,48.64 c -1.391012,3.432279 -7.779849,2.98864 -7.779849,2.516988 0.106226,-2.290999 5.14477,-7.547903 2.853849,-7.439988 -1.099708,-0.03765 -1.099708,-1.669352 0,-1.707 3.235024,-0.111419 5.887419,2.540976 5.776,5.776 5e-6,0.470093 -0.379912,0.851798 -0.85,0.854 z"
             transform="translate(-48.55,-42.01)"
             fill="#4d4d4d"
             style="fill:#ffffff" />
        </g>
        <g
           id="SPLINE-399-8"
           style="fill:#000000">
          <path
             id="路径_401-0"
             data-name="路径 401"
             d="M 46.82,47.682 A 4.732,4.732 0 0 1 51.742,42.76"
             transform="translate(-45.966,-41.906)"
             fill="rgba(0,0,0,0)"
             style="fill:#000000" />
          <path
             id="路径_401_-_轮廓-2"
             data-name="路径 401 - 轮廓"
             d="m 46.924,48.64 c -0.471651,0 -0.854,-0.382349 -0.854,-0.854 -0.111419,-3.235024 2.540976,-5.887419 5.776,-5.776 1.099708,0.03765 1.099708,5.285503 0,5.323151 -2.28975,-0.106085 -4.175085,-1.836901 -4.069,0.452849 0,0.471261 -0.381739,0.853448 -0.853,0.854 z"
             transform="translate(-46.07,-42.01)"
             fill="#4d4d4d"
             style="fill:#ffffff" />
        </g>
        <g
           id="SPLINE-400-1"
           transform="translate(0,4.922)"
           style="fill:#000000">
          <path
             id="路径_402-0"
             data-name="路径 402"
             d="M 51.742,50.162 A 4.768,4.768 0 0 1 48.268,48.713 4.916,4.916 0 0 1 46.82,45.24"
             transform="translate(-45.966,-44.386)"
             fill="rgba(0,0,0,0)"
             style="fill:#000000" />
          <path
             id="路径_402_-_轮廓-5"
             data-name="路径 402 - 轮廓"
             d="m 51.846,51.12 c -1.537528,0.01719 -3.014293,-0.599489 -4.083,-1.705 -1.078217,-1.081236 -1.686555,-2.544048 -1.693,-4.071 0.03765,-1.099708 6.388736,-1.099708 6.426384,0 0.0019,1.081025 -4.283611,2.116455 -3.514384,2.876 0.749976,0.774613 1.785892,-0.693887 2.864,-0.707012 1.099708,0.03765 1.099708,3.569364 0,3.607012 z"
             transform="translate(-46.07,-44.49)"
             fill="#4d4d4d"
             style="fill:#ffffff" />
        </g>
        <g
           id="SPLINE-401-1"
           transform="translate(4.923,4.922)"
           style="fill:#000000">
          <path
             id="路径_403-1"
             data-name="路径 403"
             d="M 54.222,45.24 A 4.732,4.732 0 0 1 49.3,50.162"
             transform="translate(-48.446,-44.386)"
             fill="rgba(0,0,0,0)"
             style="fill:#000000" />
          <path
             id="路径_403_-_轮廓-0"
             data-name="路径 403 - 轮廓"
             d="m 49.4,51.12 c -1.099708,-0.03765 -5.144894,-7.675841 -4.045186,-7.713489 2.28975,0.106085 0.129899,3.307878 0.02381,1.018128 -0.04031,-1.177624 9.837687,-0.258264 9.797372,0.919361 0.111419,3.235024 -2.540976,5.887419 -5.776,5.776 z"
             transform="translate(-48.55,-44.49)"
             fill="#4d4d4d"
             style="fill:#ffffff" />
        </g>
      </g>
    </g>
    <ellipse
       style="fill:#000000;stroke-width:0.724356"
       id="path19"
       ry="15.652174"
       rx="36.956524"
       cy="689.04529"
       cx="532.46051" />
    <path
       style="fill:#ffffff"
       d="m 244.56671,592.89366 c 0.20496,0.15372 0.46116,0.66612 0.61488,0.46116 0.15372,-0.20496 -0.75699,-0.67433 -0.61488,-0.46116 0.34226,0.51338 0.79347,0.94718 1.22976,1.38347 0.0362,0.0362 0.11748,-0.0362 0.15371,0 0.0362,0.0362 -0.019,0.2013 0,0.15372 0.12036,-0.30089 0.23322,-0.60686 0.30744,-0.92231 0.13121,-0.55765 0.25313,-1.12061 0.30744,-1.69091 0.0537,-0.56341 -0.41224,-1.69091 0.15372,-1.69091 0.0439,0 -0.0448,0.41424 -0.15372,0.92232 -0.099,0.46192 -0.23736,0.91629 -0.30744,1.38347 -0.36739,2.44929 0.0822,0.98306 -0.30744,2.15206"
       id="path2" />
    <path
       style="fill:#ffffff"
       id="path35"
       d="m 251.53852,597.39365 c -0.0108,-0.31618 0.0783,-0.60944 0.24837,-0.87475 0.0382,-0.0595 0.0618,-0.16976 0.13235,-0.1657 0.0593,0.003 0.0452,0.11713 0.0327,0.17521 -0.0325,0.15089 -0.10911,0.28878 -0.16367,0.43316 -0.0414,0.0965 -0.21696,0.33833 -0.12415,0.28933 0.15006,-0.0792 0.47347,-0.60362 0.58217,-0.75679 0.023,-0.0324 0.11171,-0.0723 0.0767,-0.0911 -13.10743,-7.03777 -18.23446,-6.65326 -12.98198,-6.9992 0.0205,0.11559 0.0543,0.22959 0.0614,0.34677 0.006,0.10553 0.002,0.21336 -0.0214,0.31644 -0.0163,0.0718 -0.15733,0.15841 -0.0959,0.19888 7.4001,4.87236 10.81275,12.72983 13.1084,6.87214 0.0538,-0.13729 0.0368,-0.2926 0.0552,-0.43891 0.1293,-0.76823 0.58377,-1.31065 1.02626,-1.91303 0.16181,-0.19322 0.0808,-0.10177 0.24221,-0.27515 0,0 -12.72941,-7.51554 -12.72941,-7.51554 v 0 c -0.16727,0.28568 -0.0853,0.1374 -0.24488,0.44541 -0.3259,0.7043 -0.43475,1.51117 -0.93643,2.13153 -0.0828,0.0798 -0.27444,0.35139 -0.24839,0.23939 0.0637,-0.27386 0.12402,-0.89623 0.36914,-0.75847 4.30315,2.41851 8.31733,5.31857 12.476,7.97785 -0.0248,-0.0801 -0.0676,-0.15673 -0.0743,-0.24031 -0.0213,-0.26596 0.0491,-0.38886 0.13322,-0.63055 0.0954,-0.15283 0.44209,-0.36827 0.28615,-0.45848 -4.34119,-2.51149 -15.63021,-2.62649 -13.28649,-7.06051 0.0447,-0.0846 0.0881,-0.16994 0.1365,-0.25247 0.0732,-0.12489 0.25007,-0.22645 0.22813,-0.36954 -0.0176,-0.11484 -0.16474,0.16388 -0.2471,0.24581 -0.1069,0.14931 -0.2271,0.28994 -0.32068,0.44793 -0.25445,0.42957 -0.22198,1.00896 -0.69319,1.29404 z" />
    <path
       style="fill:#ffffff"
       id="path36"
       d="m 252.32592,597.76259 c -0.0606,-0.10927 -0.13865,-0.21057 -0.18192,-0.3278 -0.30213,-0.81867 -0.2548,-1.77482 -0.0734,-2.61343 0.0366,-0.16938 0.0943,-0.33352 0.14143,-0.50028 0.0468,-0.13352 0.0937,-0.26705 0.14051,-0.40057 0,0 -12.7047,-6.72222 -12.7047,-6.72222 v 0 c 2e-5,0.16752 5e-5,0.33504 7e-5,0.50256 -0.0236,1.17428 -0.0664,2.39978 -0.69546,3.43296 z" />
    <path
       style="fill:#000000;stroke-width:0.434783"
       d="m 785.63439,574.9334 c -9.74064,-0.92385 -19.13932,-7.48205 -23.65762,-16.50777 -2.62988,-5.25346 -3.44509,-9.19614 -3.16678,-15.3159 0.37594,-8.26649 2.87395,-13.78819 8.99933,-19.89249 6.13142,-6.11032 12.77718,-8.86033 21.32111,-8.82265 7.44628,0.0328 13.60584,2.25284 19.3137,6.96094 7.04802,5.81354 10.86412,13.95418 10.88003,23.20969 0.01,5.57691 -0.58891,8.19126 -3.03583,13.26087 -3.17819,6.58464 -7.56415,11.04645 -13.89703,14.13733 -5.41703,2.64388 -10.56848,3.55692 -16.75691,2.96998 z"
       id="path37" />
    <path
       style="fill:#000000;stroke-width:0.434783"
       d="m 875.86356,547.43891 c -6.68798,-1.27698 -11.8921,-4.16673 -16.7825,-9.319 -5.59533,-5.89495 -8.32103,-12.61791 -8.31588,-20.51121 0.003,-5.20689 0.93498,-9.19501 3.24996,-13.91305 1.46825,-2.99236 2.5619,-4.44422 5.74692,-7.62924 3.18502,-3.18503 4.63688,-4.27867 7.62924,-5.74692 4.77322,-2.34205 8.72775,-3.26854 13.91305,-3.25962 13.78442,0.0237 25.88113,9.5431 29.42733,23.15752 0.97285,3.73493 0.97285,10.6129 0,14.34783 -1.68278,6.46044 -5.96194,13.07362 -10.85521,16.77606 -6.99411,5.292 -16.1095,7.60668 -24.01291,6.09763 z"
       id="path38" />
    <path
       style="fill:#000000"
       id="path39"
       d="m 791.7237,522.21313 c 1.90427,-0.0495 3.79856,-0.24936 5.70065,-0.35771 1.25696,-0.20122 2.51025,-0.41374 3.78191,-0.49127 1.27571,0.18933 2.57287,0.3589 3.8008,0.77179 1.1287,0.33953 2.22068,0.7242 3.39607,0.88353 0.96806,0.17867 1.7972,0.669 2.76526,0.84984 4.59304,2.33395 10.27674,5.84885 -11.28891,-6.50628 -0.25512,-0.14616 0.51734,0.28138 0.76149,0.44521 0.85577,0.67227 1.62029,1.4572 2.28463,2.31678 0.68438,0.88155 1.25651,1.83615 1.82484,2.79359 0.44428,0.85643 0.9348,1.69086 1.29298,2.58813 0.42122,0.92827 0.73143,1.90956 0.95949,2.90253 0.13807,0.99579 0.37276,1.97368 0.53175,2.96574 0.17731,0.92884 0.004,1.86994 -0.12284,2.79409 -0.15525,1.03448 -0.47694,2.02973 -0.71876,3.04436 -0.14721,0.80298 -0.41925,1.57069 -0.5725,2.37279 -0.18799,1.01066 -0.43708,2.00926 -0.71605,2.9983 -0.3294,1.06371 -0.65734,2.12794 -1.01648,3.18202 -0.45113,1.18068 -0.88891,2.36467 -1.36414,3.53647 -0.37724,0.75827 -0.73579,1.52884 -1.13068,2.27816 -0.069,0.13097 -0.35528,0.30558 -0.22799,0.38117 13.24586,7.86626 9.79853,11.00333 13.96511,6.65297 1.27247,-1.49072 2.66603,-2.88263 3.81578,-4.47314 0.74716,-0.83361 1.17868,-1.85881 1.64232,-2.86129 0.41372,-0.91542 0.73424,-1.85948 1.01509,-2.82208 0,0 -13.09159,-7.17479 -13.09159,-7.17479 v 0 c -0.29185,0.89331 -0.49498,1.81289 -0.90239,2.66817 -0.41569,0.92554 -0.85127,1.85061 -1.43801,2.68197 -0.99311,1.54133 -2.24683,2.91702 -3.56806,4.18174 -4.6661,3.18141 -1.24426,0.55303 11.60513,8.43986 0.11957,0.0734 0.0505,-0.27688 0.0938,-0.41032 0.26481,-0.81555 0.71572,-1.54647 1.10661,-2.30394 0.5386,-1.18571 1.08152,-2.36889 1.53555,-3.59033 0.34224,-1.07697 0.68089,-2.1536 1.02323,-3.23021 0.31828,-1.03411 0.55118,-2.09347 0.87074,-3.12794 0.10334,-0.7945 0.38097,-1.53851 0.50457,-2.32656 0.19448,-1.04147 0.54191,-2.04326 0.712,-3.09009 0.24083,-1.03948 0.3839,-2.1354 0.36976,-3.20051 -0.11252,-1.03452 -0.37788,-2.03039 -0.53598,-3.05384 -0.16103,-1.08943 -0.43734,-2.1456 -0.78173,-3.18817 -0.42174,-0.89882 -0.71218,-1.8597 -1.26121,-2.70009 -0.49445,-1.04984 -1.11117,-2.04735 -1.77895,-2.99481 -0.23075,-0.34739 -0.41257,-0.72828 -0.66846,-1.0576 -0.11063,-0.14236 -0.27072,-0.23994 -0.38783,-0.37702 -0.34093,-0.39908 -0.61904,-0.85519 -1.03127,-1.19638 -4.02147,-4.22992 -9.56889,-7.08292 -15.16544,-8.6387 -0.91658,-0.33436 -1.83752,-0.60441 -2.80723,-0.74576 -1.10611,-0.28598 -2.18043,-0.68224 -3.3011,-0.91492 -1.37022,-0.23795 -2.76307,-0.54168 -4.15938,-0.39058 -1.20675,0.17293 -2.39768,0.44889 -3.61361,0.55495 -1.924,0.16631 -3.8541,0.31228 -5.78545,0.16608 z" />
    <path
       style="fill:#000000"
       id="path40"
       d="m 810.72296,538.6797 c -0.0819,1.91409 -0.53583,3.78079 -0.85448,5.66252 -0.16623,1.379 -0.40204,2.74556 -0.62868,4.11553 -0.26417,1.21614 -0.92436,2.30384 -1.54806,3.3655 -0.91868,1.69701 -2.05029,3.25646 -3.20471,4.79766 -0.75182,1.04152 -1.5225,2.07139 -2.32614,3.07234 -0.62052,0.66728 -1.20816,1.37138 -1.85536,2.01196 -0.66618,0.68414 -1.35809,1.33177 -2.1825,1.81963 -0.88444,0.71154 -1.94729,1.15347 -2.97605,1.61208 -1.62466,0.64131 -3.30939,1.10364 -4.97724,1.61462 -1.36198,0.40832 -2.77645,0.55755 -4.19129,0.61317 -1.3549,0.0155 -2.70985,0.0373 -4.06484,0.0466 -1.71622,0.10663 -3.39519,-0.17282 -5.06931,-0.5051 -1.06291,-0.19291 -1.99,-0.75117 -2.98314,-1.13466 -0.55244,-0.21332 -1.11838,-0.39005 -1.67411,-0.59465 -0.97893,-0.5216 -2.04229,-0.85843 -3.0521,-1.30302 -0.36752,-0.16181 -0.71176,-0.37287 -1.07711,-0.53952 -0.43564,-0.10856 -0.80959,-0.3549 -1.19105,-0.58102 -0.11091,-0.0657 -0.42587,-0.29007 -0.31423,-0.22556 12.36802,7.14664 16.23133,10.24349 12.17621,7.01683 -0.86309,-0.4478 -1.30466,-1.32671 -1.73906,-2.15202 -0.77362,-1.37686 -1.29057,-2.86426 -1.78297,-4.35956 -0.61869,-2.04182 -1.07748,-4.12571 -1.41324,-6.23117 -0.39116,-3.17467 -0.44679,-6.37675 -0.27166,-9.56698 0.21389,-2.7592 0.8292,-5.45784 1.66199,-8.08979 0.58504,-2.05943 1.47485,-4.01146 2.32644,-5.97024 0.90829,-2.17563 2.3636,-4.02498 3.84299,-5.83279 0.92813,-0.93552 1.88465,-1.85144 2.88541,-2.70929 1.11642,-1.05845 2.48709,-1.73328 3.81674,-2.47036 1.08505,-0.56994 2.19078,-1.07981 3.37569,-1.40135 0.98433,-0.16158 1.94731,-0.41261 2.93175,-0.5755 0,0 -12.20167,-8.51344 -12.20167,-8.51344 v 0 c -1.01121,0.22364 -2.03445,0.40628 -3.02022,0.72902 -1.22035,0.44376 -2.37154,1.01811 -3.48948,1.68039 -1.40442,0.78922 -2.78441,1.62395 -3.98778,2.70716 -1.07948,0.91566 -2.13343,1.87311 -2.98062,3.01537 -1.42445,1.97909 -2.85215,3.97552 -3.89521,6.18931 -0.94365,1.9913 -1.93152,3.98228 -2.49961,6.12052 -0.72333,2.79346 -1.29666,5.6192 -1.55653,8.49885 -0.24296,3.23069 -0.22633,6.47023 -0.0485,9.70519 0.17839,2.17141 0.65991,4.2891 1.22235,6.39155 0.20427,0.8619 0.4647,1.67641 0.74085,2.51659 0.0893,0.27159 0.37324,1.20165 0.49341,1.46782 0.0832,0.18419 0.20467,0.34853 0.30701,0.5228 0.39192,0.96059 0.80132,1.91867 1.38066,2.77987 4.60735,3.42601 9.60642,6.41003 14.89854,8.59587 1.34024,0.59859 2.71884,1.12215 4.07911,1.67381 1.59152,0.59624 3.14652,1.32886 4.85344,1.5373 1.72279,0.25557 3.45154,0.32984 5.19271,0.28286 1.41361,0.0122 2.83168,0.07 4.24097,-0.0741 1.44894,-0.1847 2.88132,-0.48134 4.27115,-0.93717 1.71511,-0.5117 3.42001,-1.07417 5.07781,-1.75004 1.14209,-0.47879 2.28705,-0.95793 3.24537,-1.76242 0.84753,-0.629 1.63811,-1.3243 2.36514,-2.09078 0.65317,-0.72435 1.35667,-1.40295 1.96204,-2.16856 0.7196,-1.05876 1.45418,-2.10662 2.14984,-3.18217 1.14162,-1.60663 2.31763,-3.19465 3.31616,-4.89639 0.72671,-1.21974 1.5975,-2.42813 1.93268,-3.82275 0.1585,-1.39112 0.41328,-2.76899 0.49417,-4.16868 0.24847,-1.88354 0.57082,-3.76355 1.049,-5.6026 z" />
    <path
       style="fill:#000000"
       id="path41"
       d="m 778.19548,515.57408 c -1.52071,0.8577 -2.97281,1.81533 -4.39572,2.82506 -1.23326,0.97999 -2.51967,1.87635 -3.83981,2.73208 -0.97869,0.52579 -1.86091,1.22226 -2.75772,1.87642 -1.20386,0.93175 -2.36098,1.93359 -3.60104,2.81704 -0.80691,0.63545 -1.63829,1.234 -2.34718,1.98099 -0.58927,0.46557 -1.03917,1.0305 -1.42295,1.67167 -0.53117,0.55861 -0.9665,1.19431 -1.38951,1.83623 -0.62354,1.07246 -1.01083,2.25929 -1.38099,3.43731 -0.36006,1.19809 -0.68107,2.404 -0.89746,3.63665 -0.15894,0.96625 -0.19481,1.94545 -0.21251,2.92258 -0.007,1.21962 0.0506,2.43396 0.18419,3.64583 0.12187,1.22239 0.29494,2.43654 0.47301,3.65161 0.13665,1.01016 0.40109,1.99591 0.70052,2.96811 0.49443,1.28364 1.2677,2.43015 1.92222,3.63396 0.69032,1.30269 1.47913,2.55117 2.24979,3.80746 0.6911,1.06125 1.41642,2.10329 2.17248,3.11967 0.53551,0.82954 1.14129,1.61155 1.66228,2.44879 0.57697,0.70014 1.10911,1.42003 1.69528,2.12097 0.70991,1.23081 1.77338,2.07566 2.91882,2.87443 5.5225,3.53221 11.06147,7.20312 17.22897,9.47524 1.09786,0.23598 2.08496,0.76432 3.195,0.93916 0.86241,0.0498 1.7593,0.18099 2.59569,-0.0667 0.8236,-0.28319 1.65196,-0.66468 2.37337,-1.15911 0.65031,-0.44853 1.33588,-0.82089 1.89914,-1.38033 0.15788,-0.19791 0.31576,-0.39581 0.47363,-0.59371 0,0 -12.6687,-7.72376 -12.6687,-7.72376 v 0 c -0.15926,0.13402 -0.31853,0.26804 -0.47779,0.40207 -0.58829,0.39518 -1.1701,0.79888 -1.77507,1.16803 -0.65068,0.30763 -1.30172,0.63566 -2.03801,0.63862 -0.75535,-0.10333 -1.53257,-0.0895 -2.25832,-0.36066 -0.98575,-0.34544 -1.98699,-0.6292 -2.95904,-1.01208 -0.72288,-0.30898 -1.4518,-0.61089 -2.15393,-0.96566 -0.23807,-0.12029 -0.93541,-0.51289 -0.70491,-0.37867 3.66784,2.13579 16.32825,9.46845 11.01684,6.38445 -1.0825,-0.66424 -2.23216,-1.27321 -3.01243,-2.30462 -0.21795,-0.37009 -0.34288,-0.62029 -0.61931,-0.94685 -0.17371,-0.20521 -0.42961,-0.33794 -0.57919,-0.56135 -0.0771,-0.11513 -0.10599,-0.25603 -0.15898,-0.38405 -0.075,-0.10838 -0.15003,-0.21675 -0.22505,-0.32513 -0.74255,-0.64007 -1.17027,-1.57196 -1.78152,-2.33302 -0.67741,-1.08498 -1.50929,-2.07005 -2.25365,-3.10938 -0.80562,-1.20857 -1.49704,-2.4869 -2.32139,-3.68263 -0.5683,-1.18333 -1.22947,-2.31304 -1.87239,-3.45475 -0.42787,-0.84581 -0.6126,-1.76356 -0.87804,-2.66833 -0.17361,-1.21305 -0.46694,-2.40493 -0.50285,-3.63415 -0.16058,-1.14713 -0.32753,-2.27823 -0.21694,-3.44098 -0.002,-0.92076 -0.007,-1.84349 0.0788,-2.76123 0.13581,-1.17879 0.42506,-2.31375 0.75164,-3.45251 0.32066,-1.04645 0.64039,-2.11179 1.27467,-3.01774 0.4291,-0.65613 0.90232,-1.26492 1.41124,-1.85999 0.34892,-0.52874 0.78719,-0.9688 1.24566,-1.40624 0.67242,-0.66364 1.41067,-1.24718 2.12889,-1.85972 1.17299,-0.95159 2.3415,-1.90998 3.59364,-2.758 0.91103,-0.62246 1.82643,-1.23836 2.7496,-1.8427 1.27746,-0.89404 2.4513,-1.91905 3.70462,-2.84525 1.39502,-0.95199 2.86316,-1.83404 4.44857,-2.43078 z" />
    <path
       style="fill:#000000"
       id="path42"
       d="m 881.31967,495.86273 c 1.19167,-0.6198 2.52739,-0.83937 3.84856,-0.97919 1.75806,-0.34354 3.55273,-0.43727 5.33931,-0.49676 1.53446,-0.0617 3.07,-0.0472 4.60508,-0.0272 1.19825,0.0124 2.39654,0.006 3.59487,0.0152 0.9987,0.0225 1.99944,0.29368 2.92515,0.66709 1.30817,0.43159 2.4445,1.1791 3.62135,1.86796 -22.0189,-12.30852 -14.3785,-8.92239 -10.09006,-5.55863 1.14789,0.95963 2.08586,2.11224 2.9918,3.29359 0.94083,1.21037 1.84468,2.46023 2.51497,3.84241 0.48839,1.0599 0.89797,2.16001 1.1653,3.29681 0.21385,0.86271 0.13121,1.75866 0.2759,2.62745 0.19878,0.81844 0.27306,1.62154 0.18373,2.45599 -0.12343,0.89088 -0.19009,1.78714 -0.22785,2.68525 -0.0387,0.94422 -0.017,1.889 -0.0173,2.8336 0.0504,1.03639 -0.0593,2.06213 -0.2284,3.08309 -0.22183,1.41137 -0.67809,2.76826 -1.15958,4.10844 -0.45646,1.35225 -1.06158,2.64156 -1.69674,3.91676 -0.45019,1.05394 -1.00307,2.0489 -1.57843,3.03772 -0.4711,0.81369 -0.97498,1.60703 -1.52651,2.36916 -0.53066,0.80199 -1.24362,1.44616 -1.8506,2.18471 -0.76087,0.86115 -1.67041,1.56298 -2.57315,2.26579 -0.79841,0.64796 -1.57781,1.3182 -2.41404,1.91814 -1.01425,0.63778 -1.96935,1.37226 -2.97858,2.01748 -0.8561,0.66519 -1.81804,1.15611 -2.73403,1.73014 -0.97595,0.56078 -1.93524,1.18393 -2.98283,1.60385 -0.88015,0.50209 -1.787,0.81103 -2.78394,0.96915 -1.12511,0.0732 -2.21595,0.34429 -3.3366,0.46657 -0.47548,-0.007 -0.97356,0.13045 -1.44947,0.075 -0.41309,-0.0481 -0.84906,-0.21477 -1.264,-0.28709 -0.92281,-0.40972 -1.85789,-0.75188 -2.82847,-1.04368 -1.33106,-0.52302 -2.65889,-1.05884 -4.00702,-1.54484 -1.50577,-0.63017 -3.09186,-1.04111 -4.59932,-1.66282 -0.58498,-0.28932 -1.15557,-0.6002 -1.73306,-0.90168 -0.16865,-0.088 -0.68243,-0.33557 -0.51765,-0.24045 14.58811,8.42062 16.34732,9.48947 11.97593,6.8439 -0.64564,-0.42624 -1.38769,-0.72739 -1.96559,-1.2434 -0.66639,-0.42387 -1.19828,-1.0025 -1.818,-1.49368 -0.4528,-0.56306 -1.0265,-1.00481 -1.50793,-1.53862 -0.38611,-0.77558 -0.76127,-1.55051 -1.12387,-2.33708 -0.35709,-0.95419 -0.7597,-1.89325 -1.09924,-2.85424 -0.23816,-0.90009 -0.42251,-1.81488 -0.61957,-2.72576 -0.22836,-0.77715 -0.5131,-1.5467 -0.49963,-2.36455 0.11647,-0.92046 0.1591,-1.84708 0.24421,-2.77025 0.13392,-1.01154 0.51678,-1.96585 0.8227,-2.9333 0.31073,-1.09954 0.55777,-2.21544 0.8396,-3.32237 0.24421,-1.02803 0.57826,-2.02833 0.78442,-3.06552 0.21002,-1.05956 0.46336,-2.11005 0.75624,-3.14962 0.27468,-1.01606 0.72675,-1.96698 1.16386,-2.91983 0.52898,-1.06329 1.04392,-2.13349 1.58734,-3.18949 0.4533,-0.83117 0.98497,-1.61446 1.55044,-2.37318 0.46976,-0.90805 1.14084,-1.67884 1.82425,-2.42961 0.69121,-0.87783 1.40308,-1.73663 2.15428,-2.56376 0.86496,-0.91833 1.85753,-1.70736 2.79631,-2.54885 0.74997,-0.91526 1.86064,-1.05345 2.87866,-1.46759 0.73841,-0.16965 1.36141,-0.58083 2.11336,-0.69735 0.39522,-10e-4 0.75182,-0.18175 1.12823,-0.28511 0,0 -12.32343,-8.46527 -12.32343,-8.46527 v 0 c -0.38461,0.10252 -0.77345,0.15543 -1.15167,0.28116 -0.7238,0.27384 -1.42893,0.58724 -2.15822,0.84777 -1.16964,0.43134 -2.22818,1.05902 -3.1073,1.95586 -0.97927,0.8744 -2.011,1.69841 -2.9009,2.66633 -0.75003,0.82755 -1.46486,1.6836 -2.16188,2.55617 -0.71733,0.7879 -1.40646,1.60136 -1.93064,2.53488 -0.61772,0.82634 -1.14918,1.70724 -1.64183,2.61315 -0.5446,1.07857 -1.04147,2.18063 -1.61721,3.24364 -0.46609,1.01806 -1.00277,2.00998 -1.26659,3.10816 -0.32946,1.08357 -0.57232,2.19306 -0.8789,3.28366 -0.1378,1.01893 -0.45037,1.98714 -0.68369,2.98499 -0.27109,1.08615 -0.55544,2.16789 -0.82406,3.2542 -0.29739,1.04712 -0.76723,2.04443 -0.94018,3.12462 -0.17169,0.93739 -0.15513,1.89605 -0.31491,2.83746 -0.13389,1.03434 -0.10254,1.86561 0.26474,2.85863 0.34234,0.87115 0.46642,1.82104 0.63755,2.73673 0.25556,1.03304 0.72967,1.96453 1.01531,2.98519 0.30171,0.81859 0.64121,1.61795 1.05533,2.38367 0.0995,0.40404 0.18975,0.81519 0.48783,1.12935 0.0853,0.0899 0.20913,0.13738 0.29422,0.22755 0.86387,0.91539 -0.36691,-0.1744 0.5711,0.62258 0.36128,0.50907 0.76945,0.71895 1.1672,1.14551 0.0936,0.10045 0.14104,0.2379 0.23347,0.33947 0.0823,0.0904 0.19016,0.15371 0.28524,0.23056 0.87581,0.56004 -0.33718,-0.25622 0.54075,0.48661 0.0977,0.0827 0.23005,0.11545 0.3322,0.19257 0.11418,0.0862 0.19447,0.21338 0.31254,0.29418 0.11869,0.0812 0.25951,0.12411 0.38927,0.18616 0.12172,0.0887 0.24343,0.17748 0.36515,0.26623 5.253,2.98445 10.22191,6.61661 15.8814,8.78744 1.54486,0.51175 3.07439,1.06572 4.58861,1.66224 1.35726,0.5326 2.7104,1.07889 4.094,1.53892 0.99066,0.36099 1.97414,0.79921 3.03721,0.8785 0.98508,0.12182 1.95729,0.008 2.93412,-0.15403 1.13026,-0.18987 2.26532,-0.34569 3.38779,-0.57392 1.05277,-0.29003 2.04135,-0.72423 3.00641,-1.23417 1.02731,-0.56894 2.04445,-1.15733 3.06676,-1.73527 0.93716,-0.56752 1.85618,-1.16449 2.74748,-1.80181 0.98277,-0.70825 2.00112,-1.36069 2.99442,-2.05374 0.85625,-0.61825 1.65878,-1.30399 2.48058,-1.96682 0.94521,-0.7784 1.83581,-1.62374 2.69577,-2.49478 0.69229,-0.72922 1.3734,-1.45959 1.95206,-2.28545 0.58647,-0.80401 1.08049,-1.6639 1.57656,-2.52525 0.57778,-1.02099 1.16511,-2.02573 1.57164,-3.13199 0.67586,-1.31619 1.24781,-2.68509 1.73416,-4.08248 0.54218,-1.39189 1.03217,-2.8156 1.34709,-4.27717 0.25165,-1.08946 0.43756,-2.20722 0.39579,-3.32858 -1.9e-4,-0.92626 0.0163,-1.85231 0.0221,-2.77854 0.0175,-0.8582 0.0469,-1.7175 0.16283,-2.56913 0.12861,-0.95859 0.27161,-1.89197 0.026,-2.84962 -0.0467,-0.23998 -0.14943,-0.46771 -0.18615,-0.70942 -0.0969,-0.63777 0.0399,-1.31473 -0.11426,-1.9506 -0.19963,-1.27374 -0.62476,-2.46394 -1.07595,-3.66735 -0.20936,-0.45432 -0.37682,-0.92799 -0.60214,-1.37461 -0.49901,-0.98915 -1.24482,-1.84824 -1.8294,-2.78413 -0.91834,-1.17097 -1.71764,-2.43872 -2.79482,-3.47529 -3.95038,-4.30141 -12.80983,-5.4117 -15.25139,-9.44676 -1.20711,-0.68288 -2.50153,-1.20188 -3.82586,-1.61055 -1.05427,-0.24467 -2.11883,-0.39083 -3.20367,-0.31751 -1.19041,0.007 -2.38078,-0.005 -3.57109,0.008 -1.53853,0.0271 -3.07811,0.0482 -4.61498,0.12535 -1.81678,0.15767 -3.63034,0.35366 -5.43939,0.58364 -1.38344,0.25831 -2.71342,0.68766 -4.06458,1.06822 z" />
    <path
       style="fill:#000000"
       id="path43"
       d="m 860.28746,529.13991 c 0.0861,1.30453 0.0392,2.6129 0.0749,3.91903 0.099,1.32288 0.31039,2.62789 0.5728,3.92671 0.2148,1.01729 0.63275,1.96514 1.04243,2.91396 0.44527,0.94647 0.95177,1.86525 1.35663,2.82997 1.5879,5.72108 8.81474,8.88802 14.62812,9.08572 0,0 -11.91575,-9.00861 -11.91575,-9.00861 v 0 c -4.27618,-1.67294 -14.83201,-14.33581 11.67193,6.90467 0.11513,0.0695 -0.2768,0.0102 -0.4014,-0.0404 -0.26369,-0.10705 -0.36241,-0.39558 -0.48282,-0.61594 -0.29801,-1.06132 -0.81528,-2.00258 -1.26588,-3.00266 -0.48238,-0.84157 -0.87926,-1.74483 -1.19108,-2.6616 -0.42006,-1.18296 -0.61475,-2.44784 -0.72272,-3.69465 -0.17993,-1.24076 -0.0691,-2.51105 -0.0291,-3.76009 z" />
  </g>
</svg>
