<?xml version="1.0" encoding="UTF-8" standalone="no"?>
<!-- Created with Inkscape (http://www.inkscape.org/) -->

<svg
   width="210mm"
   height="297mm"
   viewBox="0 0 210 297"
   version="1.1"
   id="svg1"
   xml:space="preserve"
   xmlns="http://www.w3.org/2000/svg"
   xmlns:svg="http://www.w3.org/2000/svg"><defs
     id="defs1" /><g
     id="g13"><g
       id="g37"
       transform="translate(-20.953931,-71.842049)"><path
         id="path28"
         style="fill:#000000"
         d="m 156.49722,239.01034 c -0.13174,0.0657 -0.26445,0.15612 -0.39758,0.27106 -0.70213,0.60564 -0.50235,1.51496 0.52641,2.39772 0.66784,0.57307 0.9068,0.62281 1.5188,0.31513 0.92423,-0.46465 0.95807,-1.49482 0.0802,-2.44642 -0.59482,-0.64475 -1.15689,-0.8222 -1.72776,-0.53746 z m 3.79994,4.89386 c -0.20033,0.0985 -0.33231,0.34938 -0.48286,0.80437 -0.28309,0.85551 0.18764,1.89543 1.0736,2.37247 0.8934,0.48107 1.85577,-0.15832 1.72684,-1.14752 -0.11209,-0.86001 -0.79224,-1.71474 -1.56844,-1.97157 -0.34252,-0.11334 -0.57247,-0.14479 -0.74914,-0.0577 z m 2.63123,5.84117 c -1.06234,0.47902 -0.6245,2.90573 0.74824,3.43719 0.69408,0.26873 0.91137,0.19974 1.35309,-0.42751 0.68585,-0.97388 -0.70469,-3.26468 -1.86876,-3.0786 -0.0843,0.0135 -0.16174,0.037 -0.23258,0.0689 z m -21.47733,16.60645 c -0.27765,0.14042 -0.54618,0.33961 -0.78374,0.60052 -0.39219,0.4308 0.1981,1.60858 0.92671,1.84999 0.83017,0.2747 2.13144,-0.4724 2.25136,-1.29266 0.18691,-1.27847 -1.19158,-1.76617 -2.3947,-1.15766 z m 23.10903,-10.55833 c -0.93307,0.44805 -1.07083,2.38903 -0.0491,3.31923 0.18779,0.17095 0.56458,0.11062 1.01835,-0.16262 0.57407,-0.34558 0.70709,-0.62181 0.6552,-1.36126 -0.092,-1.31076 -0.43987,-1.8697 -1.17677,-1.88854 -0.16467,-0.004 -0.31439,0.0292 -0.44766,0.0932 z m -26.9595,14.33055 c -0.16324,0.0776 -0.32725,0.18477 -0.48807,0.32349 -1.20093,1.03589 -0.84376,2.76128 0.56993,2.75353 0.81473,-0.004 1.2139,-0.34858 1.62346,-1.39806 0.52404,-1.3429 -0.5633,-2.22327 -1.7053,-1.67893 z m 9.53947,-4.24298 c -0.27126,0.14644 -0.48216,0.36373 -0.5775,0.65182 -0.21062,0.63654 0.0453,0.96012 1.12746,1.4246 1.46178,0.62744 2.67071,-0.2307 2.05385,-1.45769 -0.43073,-0.85677 -1.79,-1.05791 -2.60381,-0.61873 z m 5.02008,2.01369 c -0.6274,0.31559 -0.84511,1.25359 -0.3373,1.84404 0.24874,0.28927 0.72119,0.63084 1.0495,0.75872 0.8564,0.33358 2.03123,-0.44832 1.78289,-1.18671 -0.25574,-0.76043 -1.51048,-1.62065 -2.20227,-1.51006 -0.10543,0.0169 -0.20321,0.0489 -0.29281,0.0941 z m 12.38482,-5.93143 c -0.17057,0.0846 -0.32374,0.22063 -0.48625,0.42261 -0.49378,0.61385 -0.48012,2.35823 0.0221,2.81549 l 2.4e-4,4.7e-4 c 0.41055,0.37375 0.86724,0.14808 1.51926,-0.75049 0.88357,-1.2177 0.64355,-2.56998 -0.46121,-2.59822 -0.23458,-0.006 -0.42341,0.0259 -0.59417,0.11015 z m -27.4331,14.29623 c -0.51034,0.25656 -0.64871,0.51758 -0.58806,1.10713 0.10133,0.98483 0.98062,2.14597 1.65697,2.18792 0.73867,0.0458 0.85457,-0.0411 1.11948,-0.84159 0.26611,-0.80419 -0.40105,-2.41898 -1.09431,-2.64837 -0.23446,-0.0776 -0.72682,0.0103 -1.09408,0.19491 z m 26.47246,-8.4712 c -0.56979,0.30437 -1.08412,1.02071 -1.18778,1.72964 -0.13411,0.91731 0.032,1.25148 0.73772,1.48519 0.79303,0.26242 1.34956,-0.10103 1.73519,-1.13321 0.40632,-1.08758 -0.0966,-2.34755 -0.88654,-2.22128 -0.13305,0.0212 -0.26734,0.0695 -0.39883,0.13973 z m -8.15031,4.34507 c -0.0781,0.0337 -0.15583,0.075 -0.23277,0.12374 -0.62206,0.39232 -0.66998,0.54828 -0.38986,1.27008 0.17901,0.46139 0.61156,0.99201 0.98438,1.20791 0.80823,0.46806 1.28651,0.26579 1.59823,-0.67625 0.43656,-1.31934 -0.78932,-2.43177 -1.95983,-1.92519 z m -14.36636,8.65241 c -1.1417,0.57399 -0.6476,2.04196 0.85489,2.53913 1.26422,0.41833 2.11637,-0.48777 1.53903,-1.63614 -0.37309,-0.7421 -1.7105,-1.24657 -2.39392,-0.90299 z m 19.70363,-7.53679 c -1.39868,0.70319 -1.58181,2.9792 -0.24635,3.06153 0.7184,0.0443 0.83527,-0.0259 1.44528,-0.86658 1.01901,-1.40437 0.20234,-2.89943 -1.19897,-2.19493 z m -14.23036,9.12195 c -0.2151,0.0909 -0.4744,0.27107 -0.65278,0.46295 -0.55205,0.5937 -0.0975,1.5739 0.87985,1.89727 1.23463,0.40854 2.61992,-0.67922 2.12321,-1.66722 -0.20495,-0.40767 -1.45854,-0.84497 -2.15462,-0.75146 -0.0572,0.008 -0.12392,0.0282 -0.19565,0.0584 z m 10.47965,-4.84984 c -0.48668,0.20741 -0.9715,0.65919 -1.23258,1.216 -0.39805,0.84895 -0.21116,1.52837 0.57193,2.07985 1.09721,0.77269 2.8902,-1.29897 2.24134,-2.5896 -0.17826,-0.35461 -0.51581,-0.70838 -0.75027,-0.78595 -0.24581,-0.0814 -0.53839,-0.0448 -0.83042,0.0797 z m -5.3077,3.29772 c -0.68867,0.32283 -1.22073,1.00729 -0.94853,1.74993 0.17722,0.48342 0.46118,0.76261 0.84163,0.8262 1.30687,0.21832 2.52572,-1.09897 1.99456,-2.15549 -0.35406,-0.70426 -1.19897,-0.74341 -1.88766,-0.42064 z m 4.97271,3.07226 c -0.98708,0.49626 -1.35227,1.09169 -1.27943,2.08575 0.0461,0.62939 0.19111,0.93272 0.5746,1.20281 1.31746,0.9278 2.97762,-1.85053 1.87176,-3.13257 -0.35456,-0.41107 -0.59532,-0.44336 -1.16696,-0.15597 z m -2.74232,6.19615 c -0.15819,0.0773 -0.32216,0.18246 -0.48948,0.31839 -1.08951,0.88474 -0.92331,2.88669 0.24568,2.95875 0.67029,0.0414 0.76137,-10e-4 1.32703,-0.61858 1.44227,-1.57437 0.44491,-3.4075 -1.08323,-2.65856 z m -3.82651,5.11304 c -0.42775,0.19042 -0.82672,0.52904 -1.07523,0.99056 -0.37498,0.69639 0.0315,1.83597 0.73807,2.06976 1.14425,0.37864 2.71094,-1.55773 2.15498,-2.66358 -0.31179,-0.62017 -1.10491,-0.71414 -1.81782,-0.39674 z m -5.00565,4.03428 c -0.53599,0.2501 -1.03181,0.7686 -1.2692,1.48601 -0.29157,0.88109 -0.17257,1.11528 0.71629,1.40919 l 4.7e-4,-2.3e-4 c 1.3899,0.45992 2.97755,-1.14593 2.35574,-2.38277 -0.35805,-0.71218 -1.11396,-0.83392 -1.80304,-0.51233 z m -5.62168,3.66493 c -0.4846,0.20871 -0.9017,0.59759 -1.08023,1.1371 -0.3063,0.92572 -0.1729,1.14288 0.92495,1.50616 0.72966,0.24145 1.04316,0.1992 1.56875,-0.21144 0.84323,-0.65883 1.08865,-1.23768 0.78332,-1.84501 -0.39373,-0.78315 -1.38911,-0.93467 -2.19679,-0.58681 z" /><path
         id="path28-8"
         style="fill:#000000"
         d="m 140.18944,303.04547 c 0.13174,0.0657 0.26445,0.15612 0.39758,0.27106 0.70213,0.60564 0.50236,1.51496 -0.5264,2.39772 -0.66785,0.57307 -0.90681,0.62281 -1.5188,0.31513 -0.92423,-0.46465 -0.95808,-1.49482 -0.0802,-2.44642 0.59482,-0.64475 1.15689,-0.8222 1.72776,-0.53746 z m -3.79994,4.89386 c 0.20033,0.0985 0.33231,0.34938 0.48287,0.80437 0.28308,0.85551 -0.18765,1.89543 -1.0736,2.37247 -0.8934,0.48107 -1.85577,-0.15832 -1.72684,-1.14752 0.11209,-0.86001 0.79225,-1.71474 1.56844,-1.97157 0.34251,-0.11334 0.57246,-0.14479 0.74913,-0.0577 z m -2.63122,5.84117 c 1.06234,0.47902 0.62449,2.90573 -0.74824,3.43719 -0.69408,0.26873 -0.91137,0.19974 -1.35309,-0.42751 -0.68585,-0.97388 0.70469,-3.26468 1.86876,-3.0786 0.0843,0.0135 0.16174,0.037 0.23258,0.0689 z m 21.47733,16.60645 c 0.27764,0.14042 0.54617,0.33961 0.78373,0.60052 0.39219,0.4308 -0.1981,1.60858 -0.9267,1.84999 -0.83017,0.2747 -2.13144,-0.4724 -2.25136,-1.29266 -0.18691,-1.27847 1.19158,-1.76617 2.3947,-1.15766 z m -23.10903,-10.55833 c 0.93306,0.44805 1.07083,2.38903 0.0491,3.31923 -0.18779,0.17095 -0.56458,0.11062 -1.01835,-0.16262 -0.57407,-0.34558 -0.70709,-0.62181 -0.6552,-1.36126 0.092,-1.31076 0.43988,-1.8697 1.17677,-1.88854 0.16467,-0.004 0.31439,0.0292 0.44767,0.0932 z m 26.95949,14.33055 c 0.16324,0.0776 0.32724,0.18477 0.48806,0.32349 1.20093,1.03589 0.84376,2.76128 -0.56993,2.75353 -0.81473,-0.004 -1.2139,-0.34858 -1.62345,-1.39806 -0.52405,-1.3429 0.5633,-2.22327 1.7053,-1.67893 z m -9.53946,-4.24298 c 0.27125,0.14644 0.48216,0.36373 0.57749,0.65182 0.21062,0.63654 -0.0453,0.96012 -1.12745,1.4246 -1.46179,0.62744 -2.67072,-0.2307 -2.05386,-1.45769 0.43074,-0.85677 1.79,-1.05791 2.60382,-0.61873 z m -5.02008,2.01369 c 0.62739,0.31559 0.84511,1.25359 0.3373,1.84404 -0.24874,0.28927 -0.72119,0.63084 -1.0495,0.75872 -0.85641,0.33358 -2.03123,-0.44832 -1.7829,-1.18671 0.25574,-0.76043 1.51048,-1.62065 2.20227,-1.51006 0.10544,0.0169 0.20322,0.0489 0.29281,0.0941 z m -12.38482,-5.93143 c 0.17057,0.0846 0.32374,0.22063 0.48624,0.42261 0.49379,0.61385 0.48012,2.35823 -0.0221,2.81549 l -2.4e-4,4.7e-4 c -0.41055,0.37375 -0.86724,0.14808 -1.51926,-0.75049 -0.88357,-1.2177 -0.64355,-2.56998 0.46121,-2.59822 0.23458,-0.006 0.42341,0.0259 0.59417,0.11015 z m 27.43309,14.29623 c 0.51033,0.25656 0.6487,0.51758 0.58805,1.10713 -0.10131,0.98483 -0.98061,2.14597 -1.65697,2.18792 -0.73866,0.0458 -0.85457,-0.0411 -1.11947,-0.84159 -0.26611,-0.80419 0.40105,-2.41898 1.09431,-2.64837 0.23447,-0.0776 0.72682,0.0103 1.09408,0.19491 z m -26.47246,-8.4712 c 0.5698,0.30437 1.08413,1.02071 1.18778,1.72964 0.13411,0.91731 -0.032,1.25148 -0.73772,1.48519 -0.79303,0.26242 -1.34956,-0.10103 -1.73519,-1.13321 -0.40632,-1.08758 0.0966,-2.34755 0.88654,-2.22128 0.13305,0.0212 0.26734,0.0695 0.39883,0.13973 z m 8.15031,4.34507 c 0.0781,0.0337 0.15583,0.075 0.23277,0.12374 0.62206,0.39232 0.66998,0.54828 0.38986,1.27008 -0.17901,0.46139 -0.61156,0.99201 -0.98438,1.20791 -0.80823,0.46806 -1.28651,0.26579 -1.59823,-0.67625 -0.43656,-1.31934 0.78932,-2.43177 1.95983,-1.92519 z m 14.36636,8.65241 c 1.14169,0.57399 0.64759,2.04196 -0.85489,2.53913 -1.26422,0.41833 -2.11637,-0.48777 -1.53903,-1.63614 0.37309,-0.7421 1.7105,-1.24657 2.39392,-0.90299 z m -19.70363,-7.53679 c 1.39869,0.70319 1.58182,2.9792 0.24635,3.06153 -0.7184,0.0443 -0.83526,-0.0259 -1.44528,-0.86658 -1.019,-1.40437 -0.20234,-2.89943 1.19897,-2.19493 z m 14.23036,9.12195 c 0.2151,0.0909 0.4744,0.27107 0.65278,0.46295 0.55205,0.5937 0.0975,1.5739 -0.87985,1.89727 -1.23463,0.40854 -2.61992,-0.67922 -2.12321,-1.66722 0.20495,-0.40767 1.45854,-0.84497 2.15462,-0.75146 0.0572,0.008 0.12392,0.0282 0.19565,0.0584 z m -10.47964,-4.84984 c 0.48668,0.20741 0.9715,0.65919 1.23257,1.216 0.39805,0.84895 0.21117,1.52837 -0.57192,2.07985 -1.09722,0.77269 -2.8902,-1.29897 -2.24135,-2.5896 0.17827,-0.35461 0.51583,-0.70838 0.75027,-0.78595 0.24582,-0.0814 0.5384,-0.0448 0.83043,0.0797 z m 5.30769,3.29772 c 0.68867,0.32283 1.22073,1.00729 0.94854,1.74993 -0.17722,0.48342 -0.46119,0.76261 -0.84164,0.8262 -1.30687,0.21832 -2.52572,-1.09897 -1.99456,-2.15549 0.35407,-0.70426 1.19897,-0.74341 1.88766,-0.42064 z m -4.97271,3.07226 c 0.98708,0.49626 1.35228,1.09169 1.27943,2.08575 -0.0461,0.62939 -0.1911,0.93272 -0.57459,1.20281 -1.31747,0.9278 -2.97762,-1.85053 -1.87177,-3.13257 0.35457,-0.41107 0.59532,-0.44336 1.16696,-0.15597 z m 2.74233,6.19615 c 0.15818,0.0773 0.32216,0.18246 0.48947,0.31839 1.08952,0.88474 0.92332,2.88669 -0.24568,2.95875 -0.67029,0.0414 -0.76137,-10e-4 -1.32703,-0.61858 -1.44227,-1.57437 -0.4449,-3.4075 1.08324,-2.65856 z m 3.8265,5.11304 c 0.42775,0.19042 0.82673,0.52904 1.07524,0.99056 0.37498,0.69639 -0.0315,1.83597 -0.73807,2.06976 -1.14425,0.37864 -2.71094,-1.55773 -2.15498,-2.66358 0.31179,-0.62017 1.1049,-0.71414 1.81781,-0.39674 z m 5.00565,4.03428 c 0.53599,0.2501 1.03182,0.7686 1.26921,1.48601 0.29157,0.88109 0.17257,1.11528 -0.7163,1.40919 l -4.6e-4,-2.3e-4 c -1.3899,0.45992 -2.97755,-1.14593 -2.35574,-2.38277 0.35805,-0.71218 1.11396,-0.83392 1.80304,-0.51233 z m 5.62167,3.66493 c 0.4846,0.20871 0.90171,0.59759 1.08023,1.1371 0.30631,0.92572 0.1729,1.14288 -0.92495,1.50616 -0.72966,0.24145 -1.04316,0.1992 -1.56873,-0.21144 -0.84324,-0.65883 -1.08865,-1.23768 -0.78332,-1.84501 0.39373,-0.78315 1.3891,-0.93467 2.19677,-0.58681 z" /></g><g
       id="g33"
       transform="translate(13.442161,14.954941)"><path
         id="path33"
         style="fill:#ffffff;fill-opacity:1;stroke:none;stroke-width:1.41421"
         d="m 317.45703,354.63086 c -5.99956,0 -13.42176,2.20329 -21.88086,5.5625 -8.4591,3.35921 -17.80595,7.95661 -26.79687,13.05859 -8.99092,5.10199 -17.61321,10.70074 -24.60547,16.11328 -6.99227,5.41255 -12.36576,10.39499 -15.01172,15.51172 a 3.8728235,3.8728235 0 0 0 0,0.002 l -1.93945,3.75195 a 3.8728235,3.8728235 0 0 0 1.99804,5.37109 l 13.00782,5.21875 c 7.0607,2.83221 15.36709,6.54188 17.54101,7.73242 1.50117,0.82211 3.05461,1.55604 4.45313,2.12305 1.39851,0.56701 2.16348,1.05959 4.11328,1.1211 1.01464,0.032 1.2884,-0.11816 1.72461,-0.23047 0.4362,-0.11232 0.87526,-0.24843 1.36718,-0.41407 0.98385,-0.33127 2.16714,-0.77856 3.53321,-1.32617 2.73214,-1.09521 6.16821,-2.58681 9.72265,-4.23828 5.18165,-2.4075 8.39236,-3.98997 10.67188,-5.5957 1.13976,-0.80287 2.12586,-1.62629 2.8789,-2.92383 0.0485,-0.0836 0.0479,-0.19913 0.0918,-0.28711 0.2485,0.0426 0.51707,0.14524 0.74805,0.16016 1.19781,0.0774 2.28925,-0.0847 3.52148,-0.35352 2.46448,-0.53757 5.50475,-1.58431 9.74805,-3.2207 3.03487,-1.17037 6.17258,-2.2344 8.70117,-2.98047 1.2643,-0.37304 2.37942,-0.66666 3.21485,-0.85156 0.83542,-0.1849 1.53978,-0.21633 1.21679,-0.22461 -0.31917,-0.008 1.99757,0.36545 4.38477,1.0664 2.38719,0.70096 5.31722,1.67651 8.12304,2.73047 l 10.53907,3.95899 a 3.8728235,3.8728235 0 0 0 4.875,-1.99805 l 3.25195,-7.01758 3.25195,-7.01758 a 3.8728235,3.8728235 0 0 0 -0.0957,-3.44922 l -4.45703,-8.36328 a 3.8728235,3.8728235 0 0 0 0,-0.002 c -2.80723,-5.26691 -7.73536,-11.75873 -12.83203,-17.5625 -5.09668,-5.80377 -9.82081,-10.68182 -14.16016,-12.92578 -3.18031,-1.6446 -7.2307,-2.5 -10.90039,-2.5 z"
         transform="scale(0.26458333)" /><path
         id="path32"
         style="fill:#ffffff;stroke-width:1.41421"
         transform="scale(0.26458333)"
         d="m 401.86294,337.58563 c -1.13741,-0.0739 -1.41066,1.0598 -2.2072,1.87508 l -9.99558,5.63499 c -9.69549,9.93074 -20.5668,31.03442 -28.39454,53.60742 -2.31254,6.66875 -3.64596,10.78273 -4.1875,13.8125 -0.27076,1.51489 -0.52364,2.78593 0.13477,4.5918 0.32921,0.90294 1.07492,1.9475 2.05664,2.54688 0.98172,0.59938 1.98203,0.73633 2.73633,0.73632 -1.07366,10e-6 -0.76068,-0.0813 -0.74024,-0.0762 0.0204,0.005 0.13169,0.0351 0.28321,0.0801 0.30304,0.0899 0.78381,0.24212 1.39062,0.43945 1.21362,0.39468 2.94266,0.97464 5.02539,1.6875 4.16548,1.42574 9.76058,3.38178 15.68555,5.47657 11.84994,4.18957 25.07354,8.96043 30.77734,11.16211 1.84529,0.71228 3.61899,0.14431 4.75782,-0.48438 1.13883,-0.62869 2.03654,-1.42089 3.03125,-2.41406 0.52506,-0.52426 1.34899,-1.70615 1.92382,-2.35938 -0.0976,0.20325 -0.27421,0.53035 -0.36523,0.72266 -0.49945,1.0552 -0.89524,1.92942 -1.1875,2.65625 -0.14613,0.36342 -0.26571,0.66923 -0.38477,1.08789 -0.0595,0.20933 -0.12878,0.42162 -0.17382,0.90039 -0.0225,0.23939 -0.056,0.54534 0.043,1.10547 0.099,0.56013 0.36651,1.609 1.51562,2.47266 0.85516,0.64272 0.64282,0.40423 0.83984,0.50586 0.19703,0.10163 0.42688,0.21612 0.70704,0.35351 0.56031,0.27478 1.31155,0.63522 2.21679,1.06445 1.81048,0.85847 4.22782,1.98881 6.83399,3.18946 4.99049,2.2991 11.76236,5.99172 14.26367,7.6914 1.56245,1.06172 3.09407,2.01926 4.38476,2.75196 0.64535,0.36635 1.22314,0.67541 1.7793,0.93359 0.55616,0.25819 0.49993,0.65039 2.48242,0.65039 1.45867,0 1.82995,-0.40372 2.19532,-0.61523 0.36536,-0.21152 0.60415,-0.39376 0.84179,-0.58203 0.47529,-0.37655 0.91276,-0.78001 1.41602,-1.26954 1.00652,-0.97905 2.2329,-2.27925 3.66797,-3.86132 2.87012,-3.16415 6.54371,-7.43384 10.39257,-12.04883 7.69774,-9.22998 15.99952,-19.69115 19.9004,-25.52344 2.97803,-4.45252 4.85073,-7.46612 6.05078,-10.41211 1.20004,-2.94599 1.56054,-5.76033 1.56054,-8.83008 0,-10.28532 -6.22935,-19.79541 -17.58593,-28.50976 -11.35659,-8.71436 -28.07621,-17.04594 -50.69727,-25.60157 -9.70591,-3.67092 -17.81027,-5.75801 -24.7832,-6.21093 h -0.002 z" /><g
         id="g28"
         transform="matrix(1.5985125,0,0,1.5985125,-180.68943,89.502559)"><path
           id="path2"
           style="fill:#000000;fill-opacity:1"
           d="m 180.2788,-0.49969614 c -0.19249,0.0056 -0.37113,0.02451 -0.53795,0.05581 -1.96861,0.36931 -4.39609,3.42530094 -6.00429,7.55871094 -0.39832,1.02378 -0.78745,1.924329 -0.86455,2.001429 -0.0771,0.07707 -0.60371,-0.655308 -1.17047,-1.627808 -0.56675,-0.97249 -1.62574,-2.39347 -2.35334,-3.15743 -2.36395,-2.4821 -4.34997,-2.533108 -9.11469,-0.233578 -8.49033,4.09755 -11.32816,7.3247032 -9.53482,10.8422332 l 0.53227,1.04438 -0.56379,0.425814 c -0.14875,0.112201 -0.25721,0.201398 -0.33073,0.315743 h 4.80745 c -0.9388,-0.421204 -1.82153,-0.780813 -2.2412,-0.905371 -0.83139,-0.24674 -1.20237,-0.541869 -1.52136,-1.210779 -1.27465,-2.67298 0.20513,-4.7538812 5.66426,-7.9643712 3.91459,-2.302163 6.72335,-3.412121 8.66148,-3.398759 0.64605,0.0045 1.19545,0.133956 1.65675,0.385506 1.07417,0.58575 3.03657,2.910125 4.08864,4.843115 l 0.7307,1.342037 -1.08675,2.3388752 c -0.59765,1.28633 -1.08676,2.480012 -1.08676,2.652552 0,0.19647 -0.17297,0.241292 -0.46302,0.119372 -1.02225,-0.42967 -1.6766,-0.426097 -2.8329,0.0155 l -1.21078,0.461987 -2.00608,-2.088244 c -0.88797,-0.924168 -1.50858,-1.48149 -1.5813,-1.436605 -0.016,0.01207 -0.002,0.05907 0.0481,0.142627 0.26034,0.43657 0.88344,1.482092 1.38493,2.323372 0.49365,0.828145 0.8547,1.533393 0.81236,1.58595 l -5.2e-4,5.17e-4 -5.2e-4,5.16e-4 c -2e-4,1.47e-4 -0.001,9.08e-4 -0.002,10e-4 -0.0411,0.0236 -0.70108,0.347659 -1.61024,0.791166 h 14.42548 c -0.89009,-0.269306 -1.85075,-0.543122 -2.59829,-0.736906 -2.34387,-0.60759 -2.38006,-0.629009 -2.31976,-1.388029 0.0337,-0.42412 0.54959,-2.249613 1.1467,-4.056083 1.96247,-5.9372102 4.50651,-9.97020814 6.54638,-10.37817814 0.15842,-0.03168 0.32421,-0.05243 0.50023,-0.06201 1.23212,-0.06704 2.96057,0.423519 6.09833,1.69860394 7.05463,2.86678 9.87405,5.41663 9.49813,8.5906902 -0.20283,1.712635 -5.88719,8.158012 -8.06204,10.432955 h 1.00046 c 1.12212,-1.207599 6.29505,-6.520209 6.81353,-7.498767 1.6257,-3.06828 1.42811,-4.8331502 -0.80408,-7.1933602 -1.69516,-1.79239 -3.42628,-2.830936 -7.7308,-4.638476 -3.40974,-1.43180594 -5.43616,-2.03511294 -6.78356,-1.99574394 z M 185.27074,12.51553 c -0.11268,8.3e-4 -1.06123,1.177182 -2.14922,2.670122 -0.41411,0.568228 -0.81152,1.097994 -1.1529,1.539957 h 1.25729 c 0.037,-0.05739 0.0747,-0.115088 0.11265,-0.173116 1.09992,-1.67962 2.13667,-3.836599 1.9389,-4.034379 -5.3e-4,-5.26e-4 -0.001,-0.0012 -0.002,-0.0016 -0.001,-5.83e-4 -0.003,-0.001 -0.005,-0.001 z" /><path
           id="path1-7"
           style="fill:#000000"
           d="m 191.47644,28.527235 -0.59682,0.225409 c -0.21639,0.08166 -0.35154,0.329495 -0.30269,0.555561 l 1.83844,8.50509 c 0.0489,0.226068 0.26228,0.342758 0.47867,0.261096 l 0.0899,-0.03418 c -0.0197,-0.207703 -0.0426,-0.402941 -0.0677,-0.578121 l -0.24114,-1.685203 1.43513,-1.057759 c 0.78932,-0.581569 1.81229,-1.333281 2.27327,-1.670487 l 0.83812,-0.612729 -2.29909,-1.267868 c -1.26451,-0.697255 -2.53842,-1.379026 -2.83105,-1.515043 -0.26575,-0.123519 -0.43896,-0.400146 -0.61507,-1.125773 z" /><path
           id="path8"
           style="fill:#edc343;stroke-width:0.707107"
           transform="scale(0.26458333)"
           d="m 637.92383,44.914062 c -0.38045,-0.05725 -0.76275,-0.07926 -1.1875,0.01953 -0.42475,0.09879 -1.78348,-0.933369 -2.07283,-0.550198 -0.57868,0.766343 0.36444,2.842067 0.44002,3.647854 0.15115,1.611574 0.74298,3.818699 1.44726,7.197266 1.08037,5.182733 2.91113,13.361015 4.08008,18.21875 1.04076,4.325068 1.57012,6.565434 2.35937,8.261718 0.78926,1.696285 1.84881,2.669743 3.48438,4.089844 1.48334,1.287925 2.1881,1.995731 2.70703,2.9375 0.51893,0.941769 0.91162,2.278756 1.50586,4.775391 1.17221,4.924877 2.42266,11.574583 3.34766,17.425783 0.46249,2.9256 0.84465,5.65349 1.0957,7.86328 0.25105,2.20979 0.35975,3.95901 0.31836,4.66016 -0.0773,1.30912 -0.2242,2.15466 -0.39258,2.60742 -0.16838,0.45276 -0.25186,0.52527 -0.55664,0.69336 -0.72167,0.398 -1.36405,0.83283 -1.87305,1.44726 -0.50899,0.61444 -0.82659,1.40708 -0.91601,2.24805 -0.17884,1.68194 -0.3011,6.39 0.6137,9.40594 0.5343,1.76152 2.14692,0.46163 4.11091,1.49445 1.96398,1.03282 4.82591,1.82588 9.70703,3.03906 2.33483,0.58032 4.52684,1.11283 6.18359,1.50391 0.82838,0.19554 1.52161,0.35449 2.03711,0.46875 0.25775,0.0571 0.46971,0.10282 0.63867,0.13672 0.16896,0.0339 0.20984,0.0566 0.47071,0.0742 0.5551,0.0374 1.11179,-0.3556 1.31445,-0.64844 0.20266,-0.29284 0.25547,-0.51552 0.30469,-0.73047 0.0984,-0.42988 0.12106,-0.85689 0.125,-1.4043 0.008,-1.09481 -0.097,-2.61943 -0.30274,-4.63476 -0.41155,-4.03065 -1.24003,-9.99093 -2.47851,-17.83398 -1.55065,-9.81994 -4.29818,-24.317619 -6.92578,-37.091804 -1.31381,-6.387092 -2.59685,-12.339484 -3.68555,-17.0625 -1.0887,-4.723015 -1.94826,-8.139039 -2.54883,-9.763672 -0.6337,-1.714275 -1.49808,-3.149129 -3.58008,-4.408203 -2.08199,-1.259074 -5.36136,-2.584936 -11.47461,-5.007812 -4.16263,-1.649783 -6.471,-2.805308 -8.29687,-3.080079 z" /><path
           id="path9"
           style="fill:#edc343;stroke-width:0.31439"
           transform="scale(0.26458333)"
           d="m 672.01907,55.68888 c -0.56239,0.12374 -1.47721,0.168166 -2.01321,0.869714 -0.536,0.701548 -0.66566,1.445572 -0.68555,1.902343 -0.0398,0.913544 0.12542,1.145382 0.19336,1.367188 0.18724,0.611308 1.24675,5.333199 2.50586,11.558594 1.25911,6.225395 4.83942,20.24899 6.48438,28.865231 3.28991,17.23249 4.84788,30.67461 6.64648,41.56836 0.30721,1.8607 0.59563,3.55791 0.81445,4.80469 0.10942,0.62339 0.20065,1.1331 0.27149,1.50781 0.0354,0.18736 0.0637,0.33563 0.0937,0.47656 0.015,0.0705 0.0286,0.13353 0.0566,0.24219 0.014,0.0543 0.0266,0.11252 0.0742,0.25391 0.0238,0.0707 0.0523,0.15808 0.13672,0.33984 0.0422,0.0909 0.0951,0.20533 0.21289,0.38867 0.0589,0.0917 0.25177,0.33963 0.25195,0.33985 1.8e-4,2.2e-4 0.5428,0.50964 0.54297,0.50976 0.34286,0.25473 0.27465,0.18731 0.33984,0.22657 0.0652,0.0393 0.13105,0.0762 0.20508,0.11914 0.14805,0.0859 0.3256,0.18792 0.51367,0.29297 1.891,1.05618 4.45706,1.2461 6.35156,-0.64844 1.45405,-1.45403 1.73886,-3.44146 1.71094,-5.57031 -0.0279,-2.12886 -0.3543,-4.89924 -0.95117,-9.11329 -1.82875,-12.91142 -10.78966,-58.141576 -13.85352,-69.871089 -0.7687,-2.942895 -1.42708,-5.038074 -2.58398,-6.837891 -1.15689,-1.799817 -3.03703,-1.65947 -4.85034,-2.265897 -0.25472,-0.08519 -0.47607,-0.160622 -0.78516,-0.238281 -0.30908,-0.07766 -0.64492,-0.303411 -1.77539,-0.05469 z" /><path
           id="path15"
           style="fill:#59b2d0;fill-opacity:1;stroke:none;stroke-width:0.25"
           d="m 619.07617,93.544922 c -1.12582,-0.06186 -1.54099,0.249248 -2.03515,0.443359 -1.1695,0.45939 -2.27751,1.167405 -3.49219,1.96875 -0.76407,0.504059 -1.43143,0.930172 -2.09571,1.548828 -0.66427,0.618656 -1.2822,1.507052 -1.60156,2.458985 -0.6387,1.903866 -0.49262,3.693196 -0.43164,7.019536 0.0273,1.48762 0.0745,2.88695 0.13086,3.9707 0.0282,0.54187 0.0577,1.00012 0.0918,1.3789 0.0171,0.1894 0.0349,0.35577 0.0605,0.53321 0.0256,0.17744 -0.0892,0.16816 0.25586,0.91992 0.23588,0.51381 0.53139,0.88912 0.93555,1.22852 0.40416,0.33939 0.91508,0.74414 1.98047,0.74414 1.19923,0 1.74998,-0.27693 2.63672,-0.58008 0.88674,-0.30316 1.8685,-0.69441 2.83984,-1.1211 0.97134,-0.42668 1.92312,-0.88486 2.74414,-1.33203 0.82103,-0.44716 1.39089,-0.65246 2.21094,-1.55859 1.24281,-1.37329 1.31175,-2.69281 1.41211,-4.08984 0.10036,-1.39704 0.0123,-2.90674 -0.20313,-4.42579 -0.21543,-1.51904 -0.55928,-3.033011 -1.04101,-4.40234 -0.48173,-1.369329 -0.99133,-2.606914 -2.17969,-3.681641 -0.30383,-0.274775 -1.10749,-0.962371 -2.21875,-1.023437 z"
           transform="scale(0.26458333)" /><path
           id="path27"
           style="fill:#edc343;fill-opacity:1;stroke:none;stroke-width:0.03125"
           d="m 613.89062,85.378906 c -1.4e-4,-2e-6 -0.0837,0.0078 -0.084,0.0078 -5.1e-4,1.03e-4 -0.0417,0.01056 -0.0508,0.01367 -0.0182,0.0062 -0.0255,0.0085 -0.0332,0.01172 -0.0153,0.0064 -0.0275,0.01239 -0.043,0.01953 -0.031,0.01429 -0.0716,0.03376 -0.12305,0.05859 -0.10287,0.04967 -0.2485,0.120317 -0.42773,0.208985 -0.35848,0.177336 -0.85079,0.423674 -1.39063,0.695312 -1.84341,0.927575 -2.85243,1.414199 -3.5625,1.71875 a 0.38895005,0.38895005 0 0 0 -0.002,0 c -0.0776,0.03329 -0.13554,0.05909 -0.18555,0.08203 -0.05,0.02294 -0.084,0.03056 -0.16016,0.08984 -0.0381,0.02964 -0.11285,0.07449 -0.15039,0.228516 -0.0375,0.154028 0.0608,0.338818 0.12305,0.394531 0.12454,0.111427 0.14543,0.08637 0.16992,0.0957 0.0638,0.02431 0.12242,0.07909 0.14844,0.132813 0.0128,0.02652 0.0422,0.153707 0.12109,1.121093 0.0501,0.614758 0.0897,1.101735 0.0898,1.115235 a 0.38895005,0.38895005 0 0 0 0,0.002 c 0.002,0.120951 0.11586,0.301374 0.22656,0.353516 0.11071,0.05214 0.17852,0.04066 0.22461,0.03516 0.0922,-0.01101 0.12936,-0.03441 0.17187,-0.05664 -0.0449,0.02349 -0.003,0.0037 0.0137,-0.0039 0.0163,-0.0076 0.0393,-0.01883 0.0703,-0.0332 0.062,-0.02874 0.15292,-0.07201 0.26758,-0.125 0.22932,-0.105978 0.55812,-0.257567 0.96093,-0.44336 0.80563,-0.371584 1.90783,-0.879137 3.11524,-1.435546 1.20758,-0.556488 2.30856,-1.063902 3.10742,-1.433594 0.39943,-0.184846 0.72195,-0.336553 0.94727,-0.441406 0.11266,-0.05243 0.20105,-0.09258 0.26172,-0.121094 0.0303,-0.01426 0.055,-0.02493 0.0723,-0.0332 0.009,-0.0041 0.0143,-0.0082 0.0215,-0.01172 0.004,-0.0018 0.007,-0.0026 0.0137,-0.0059 0.003,-0.0016 0.006,-0.0032 0.0137,-0.0078 0.004,-0.0023 0.0194,-0.01166 0.0195,-0.01172 10e-5,-6.2e-5 0.0586,-0.04879 0.0586,-0.04883 a 0.38895005,0.38895005 0 0 0 0.008,-0.0059 c 5.3e-4,-5.53e-4 0.0779,-0.116721 0.0781,-0.117188 10e-5,-2.33e-4 0.0312,-0.118929 0.0312,-0.11914 2e-5,-2.12e-4 -0.0156,-0.154107 -0.0156,-0.154297 -6e-5,-1.9e-4 -0.0702,-0.128738 -0.0703,-0.128906 -1.3e-4,-1.69e-4 -0.0818,-0.07603 -0.082,-0.07617 -2.1e-4,-1.48e-4 -0.0642,-0.03698 -0.0644,-0.03711 -2.9e-4,-1.26e-4 -0.0351,-0.01358 -0.0488,-0.01758 -0.11008,-0.03195 -0.12596,-0.01556 -0.15234,-0.01367 -0.0528,0.0038 -0.0848,0.0098 -0.125,0.01953 0.0393,-0.0095 -0.20802,0.03328 -0.39063,0.05469 a 0.38895005,0.38895005 0 0 0 -0.002,0 l -0.2832,0.03516 -0.57032,-0.111328 c -0.60244,-0.116045 -0.53994,-0.0912 -0.83984,-0.251953 -0.54923,-0.294408 -0.738,-0.46974 -1.16602,-1.082031 -10e-6,-2.8e-5 -0.20112,-0.148423 -0.20117,-0.148438 -4e-5,-1.4e-5 -0.11125,-0.01758 -0.11133,-0.01758 z"
           transform="scale(0.26458333)" /><path
           style="opacity:1;fill:#cb9d13;fill-opacity:1;fill-rule:evenodd;stroke:none;stroke-width:1;stroke-linejoin:bevel;stroke-dasharray:none"
           d="m 163.53834,23.039936 6.27856,-2.852645 1.4953,0.202162 0.45044,3.088699 -8.0137,1.271141 -2.56843,2.440278 -0.12678,-3.003451 z"
           id="path13" /><path
           style="opacity:1;fill:#cb9d13;fill-opacity:1;fill-rule:evenodd;stroke:none;stroke-width:1;stroke-linejoin:bevel;stroke-dasharray:none"
           d="m 154.53766,30.266095 -0.63184,-2.451107 -5.58323,1.313363 0.11065,3.584248 z"
           id="path16" /><path
           id="path14"
           style="fill:#59b2d0;fill-opacity:1;stroke:none;stroke-width:0.125"
           d="m 581.46289,115.37891 c -0.3602,-0.0292 -0.7761,0.007 -1.24023,0.0918 -0.92848,0.16955 -2.06109,0.55542 -3.33008,1.13672 -0.87497,0.4008 -1.45033,0.75027 -1.81055,1.23828 -0.36022,0.48801 -0.4668,1.08203 -0.4668,1.87696 0,1.03891 0.22546,2.95927 0.50977,4.77929 0.14215,0.91001 0.29823,1.79067 0.45117,2.51758 0.15295,0.72692 0.29303,1.28522 0.43555,1.60938 0.18787,0.42729 0.44023,0.68498 0.80859,0.79882 0.21704,0.0671 0.50248,0.0908 0.85742,0.10157 0.35495,0.0107 0.76979,0.003 1.20313,-0.0215 0.86667,-0.0498 1.79602,-0.16253 2.43359,-0.32617 0.63762,-0.16365 1.26542,-0.37978 1.78125,-0.60352 0.51583,-0.22373 0.9105,-0.42978 1.13672,-0.68554 0.27036,-0.30565 0.38786,-0.77825 0.45117,-1.42578 0.0633,-0.64754 0.0537,-1.47479 -0.0273,-2.47071 -0.16335,-2.00773 -0.47673,-3.87759 -0.87109,-5.34375 -0.19719,-0.73307 -0.41404,-1.36448 -0.64649,-1.86718 -0.23245,-0.50271 -0.47031,-0.87816 -0.76953,-1.10157 -0.24035,-0.17945 -0.54605,-0.27551 -0.90625,-0.30468 z"
           transform="scale(0.26458333)" /><path
           id="path17"
           style="fill:#edc343;fill-opacity:1;stroke:none;stroke-width:0.5"
           d="m 578.11523,70.179687 c -1.83869,-0.07954 -3.35496,0.248691 -4.63086,1.001954 -1.25816,0.742793 -2.12694,1.459507 -2.51367,2.566406 -0.38673,1.106899 -0.29565,2.416482 -0.0254,4.433594 0.35341,2.637731 0.53187,4.095882 1.33789,5.171875 0.80603,1.075993 2.05899,1.447715 4.13086,2.042968 4.17883,1.200582 6.33817,1.964836 7.375,2.955078 0.51842,0.495122 0.81217,1.044413 1.02149,1.878907 0.20932,0.834493 0.30763,1.943866 0.38867,3.410156 0.12801,2.316059 0.0334,3.846827 -0.30078,4.833984 -0.33416,0.987157 -0.83796,1.486899 -1.83203,1.960941 l -1.66211,0.79297 a 0.68002771,0.68002771 0 0 0 -0.37305,0.75195 l 1.16992,5.57812 c 0.64814,3.09385 1.57455,6.69261 2.12695,8.17969 1.19533,3.21781 1.81492,7.48685 3.16211,22.23242 l 1.09766,12.01563 -0.76562,0.68164 c -1.85414,1.64849 -3.88721,2.85553 -12.31446,7.26562 -2.4374,1.27553 -4.63617,2.50659 -6.29101,3.51172 -0.82742,0.50257 -1.51794,0.94834 -2.04297,1.32031 -0.52503,0.37198 -0.85556,0.58313 -1.11719,0.98243 -0.3527,0.53828 -0.59893,1.06799 -0.62695,1.68554 -0.028,0.61755 0.12551,1.24846 0.39453,2.15821 0.18301,0.61889 0.43731,1.26745 0.70703,1.83984 0.26972,0.57239 0.53064,1.05033 0.84375,1.40234 0.43054,0.48404 1.16538,0.84627 2.23633,0.82422 1.07095,-0.0221 2.5785,-0.31341 5.05469,-0.9707 4.95238,-1.31458 13.75099,-4.1191 29.98828,-9.36328 30.98494,-10.00724 38.76325,-13.15528 43.74609,-17.92969 l 2.21484,-2.12109 a 0.68002771,0.68002771 0 0 0 0.20899,-0.52539 l -0.27149,-5.31641 c -0.0753,-1.47572 -0.1925,-2.8626 -0.32226,-3.92578 -0.0649,-0.53159 -0.13194,-0.98116 -0.20313,-1.33203 -0.0356,-0.17544 -0.0714,-0.3255 -0.11523,-0.46289 -0.0438,-0.13739 -0.0381,-0.24708 -0.25977,-0.46875 -0.25359,-0.2536 -0.40986,-0.21584 -0.52148,-0.22461 -0.11162,-0.009 -0.20191,-0.003 -0.30274,0.006 -0.20165,0.0184 -0.43328,0.0575 -0.71679,0.11523 -0.56702,0.11554 -1.3307,0.30643 -2.25586,0.56055 -1.85032,0.50825 -4.34107,1.26814 -7.07227,2.17187 -6.88407,2.27789 -11.29825,3.64764 -14.24804,4.34961 -2.9498,0.70198 -4.38592,0.72387 -5.40039,0.41992 -0.89625,-0.26852 -2.10868,-1.12358 -2.56446,-1.76367 -1.32225,-1.85693 -2.92459,-6.43148 -4.20312,-11.92578 -1.27854,-5.49429 -2.29198,-11.9559 -2.67188,-17.79687 -0.25775,-3.96311 -0.623,-9.159954 -0.81445,-11.564456 l -0.34766,-4.355469 a 0.68002771,0.68002771 0 0 0 -0.76953,-0.619141 l -2.16601,0.296875 c -0.9565,0.131103 -1.42248,0.138891 -1.73243,0.0332 -0.30994,-0.105687 -0.63788,-0.37711 -1.26171,-1.044921 -1.09866,-1.176127 -2.77339,-2.018503 -5.25586,-2.757813 -0.95089,-0.283187 -1.87665,-0.611632 -2.58594,-0.90625 -0.35465,-0.147309 -0.6559,-0.286641 -0.86914,-0.400391 -0.21325,-0.113749 -0.35533,-0.253324 -0.28125,-0.164062 0.0555,0.06684 -0.0618,-0.113323 -0.1543,-0.353516 -0.0925,-0.240192 -0.20216,-0.568776 -0.31641,-0.953125 -0.22849,-0.768697 -0.47789,-1.759327 -0.68554,-2.767578 -0.48214,-2.341105 -1.08261,-3.982783 -2.26563,-5.224609 -1.18302,-1.241826 -2.85676,-2.004354 -5.33984,-2.785156 -2.71899,-0.854984 -4.89547,-1.32865 -6.73438,-1.408204 z"
           transform="scale(0.26458333)" /><path
           id="path19"
           style="fill:#edc343;stroke-width:0.176777"
           transform="scale(0.26458333)"
           d="m 560.35352,85.033203 c -1.9229,-0.0059 -2.53928,1.32552 -2.51602,3.248289 l 0.11328,9.148438 c 0.0621,5.04901 0.12567,9.43954 0.22265,10.89258 0.0471,0.7064 0.006,1.03992 0.24805,1.93554 0.12105,0.44782 -0.63257,1.62539 0.64688,2.43531 1.27945,0.80992 2.73853,0.48938 3.20898,0.3125 1.26423,-0.47549 5.56484,-2.25231 9.83789,-4.02539 2.13653,-0.88654 4.21184,-1.75235 5.75586,-2.40234 0.77202,-0.325 1.41035,-0.5962 1.86719,-0.79297 0.22842,-0.0984 0.4072,-0.17495 0.55664,-0.24219 0.0747,-0.0336 0.13564,-0.062 0.23242,-0.10938 0.0484,-0.0237 1.33549,-0.28479 1.47852,-0.36719 0.0715,-0.0412 0.032,0.26659 0.29492,0.0611 0.13147,-0.10275 -0.43583,-0.81852 -0.43555,-0.81893 2.9e-4,-4e-4 -0.37479,-4.427526 -0.375,-4.427731 -6e-4,-6.09e-4 -0.51712,-0.433628 -0.7207,-0.550781 -0.20358,-0.117153 -0.36881,-0.187924 -0.50781,-0.240234 -0.27801,-0.104621 -0.45518,-0.140021 -0.5957,-0.166016 -0.28105,-0.05199 -0.41742,-0.05442 -0.53125,-0.05859 -0.22766,-0.0083 -0.33589,0.0012 -0.44336,0.0078 -0.21495,0.01327 -0.38034,0.03115 -0.57032,0.05469 -0.37996,0.04708 -0.8199,0.115443 -1.29882,0.199219 -0.52476,0.09179 -0.51626,0.07261 -0.81446,0.105469 -0.1489,-0.250725 -0.29744,-0.501759 -0.45312,-0.742188 -0.46298,-0.714987 -0.93488,-1.357896 -1.91992,-2.009765 -1.32363,-0.875925 -2.05416,-0.975152 -3.1875,-1.189453 -0.14848,-0.02808 -0.0819,-0.003 -0.15821,-0.01563 0.0644,0.03668 -0.0772,-0.191232 -0.33203,-1.523438 -0.52034,-2.720727 -0.48842,-4.004042 -1.58984,-5.859375 -0.55071,-0.927666 -1.73093,-1.832261 -2.625,-2.144531 -0.89408,-0.31227 -1.45137,-0.338227 -2.02149,-0.423828 -1.02019,-0.153179 -1.67318,-0.286382 -2.77343,-0.289063 h -0.004 z m 15.96093,15.060547 c 0.11547,0.0983 0.23828,0.34086 0.23828,1.38281 0,-0.6429 -0.12403,-1.00103 -0.23828,-1.38281 z" /><path
           id="path18"
           style="fill:#edc343;stroke-width:0.176777"
           transform="scale(0.26458333)"
           d="m 631.43164,42.130859 c 0,1.33476 -2.14595,-0.01304 -3.21289,0.1875 -1.06694,0.200538 -2.19816,0.499842 -3.29297,0.890625 -3.3723,1.203708 -8.5497,2.721529 -22.93549,9.885334 l -7.05812,3.514788 c -1.15143,0.548854 -2.32669,0.804796 -2.3267,2.080347 v 5.417969 5.417969 c 4.4e-4,1.400678 0.88291,2.649281 2.20312,3.117187 l 2,0.708984 c 2.19111,0.777573 3.49571,1.231714 4.69727,1.527344 1.20155,0.295631 2.2959,0.371565 3.34375,0.369141 1.65994,-0.0039 2.95509,-0.222385 4.74219,-0.8125 0.63699,-0.210339 0.8531,-0.231346 1.30664,-0.351563 0.23247,0.806451 0.47841,1.67187 0.74414,2.677735 0.67135,2.541319 1.36208,5.463149 1.53125,6.472656 0.072,0.429797 0.14453,0.81428 0.22265,1.15625 0.0391,0.170985 0.075,0.321188 0.14258,0.539062 0.0338,0.108938 0.0619,0.220238 0.1836,0.484375 0.0609,0.132069 0.12563,0.296189 0.3789,0.63086 0.12664,0.167335 0.29752,0.389386 0.66992,0.666015 0.1862,0.138315 0.75511,0.419624 0.75586,0.419922 7.6e-4,2.99e-4 1.22,0.234375 1.22071,0.234375 1.7e-4,0 0.68326,-0.0722 0.68359,-0.07227 3.3e-4,-7.1e-5 0.1812,-0.04192 0.23242,-0.05664 0.10245,-0.02945 0.14625,-0.04745 0.1836,-0.06055 0.0747,-0.02619 0.10551,-0.03807 0.13281,-0.04883 0.0546,-0.02151 0.0842,-0.03302 0.11719,-0.04687 0.0659,-0.0277 0.13324,-0.0566 0.21875,-0.09375 0.17101,-0.07429 0.40458,-0.178548 0.70312,-0.310547 0.59708,-0.263996 1.44684,-0.64067 2.49219,-1.107422 2.09071,-0.933503 4.96001,-2.219557 8.10547,-3.634765 l 11.42968,-5.142578 c 1.36221,-0.613497 2.14421,-2.063836 1.90821,-3.539063 l -0.23047,-1.443359 v -0.002 c -0.10158,-0.634553 -0.37105,-2.689966 -0.55664,-4.302735 -0.40116,-3.486082 -1.99215,-11.092325 -3.36719,-16.443359 -0.66117,-2.572984 -0.862,-3.521737 -2.08789,-5.298828 -1.22589,-1.777092 -5.28125,-5.941996 -5.28125,-3.63086 z" /><path
           id="path28-2"
           style="fill:#f78d92;fill-rule:evenodd;stroke-width:0.0775378;stroke-linejoin:bevel"
           d="m 149.45434,43.885633 c 0.18916,0.59139 1.2315,1.128827 3.26441,0.478529 2.03291,-0.650298 3.52755,-1.65688 3.33838,-2.248266 -0.18917,-0.591388 -0.76162,-1.136235 -4.02345,0.106671 -1.92045,0.731783 -2.76852,1.07168 -2.57934,1.663064 z" /><path
           id="path28-2-2"
           style="fill:#f78d92;fill-rule:evenodd;stroke-width:0.0775378;stroke-linejoin:bevel"
           d="m 165.94438,37.597003 c 0.18916,0.59139 1.2315,1.128827 3.26441,0.478529 2.03291,-0.650298 3.52755,-1.65688 3.33838,-2.248266 -0.18917,-0.591388 -0.76162,-1.136235 -4.02345,0.106671 -1.92045,0.731783 -2.76852,1.07168 -2.57934,1.663064 z" /><path
           id="path1-3"
           style="fill:#000000"
           d="m 167.00066,10.847917 -1.84278,0.590661 c -1.01369,0.325 -3.17385,1.261767 -4.80023,2.081527 -1.62637,0.81975 -2.9956,1.397906 -3.0427,1.284676 -0.13916,-0.33442 -5.62442,-2.689241 -6.26422,-2.689241 -0.32275,0 -0.88052,0.192344 -1.2392,0.427364 -0.70772,0.46371 -0.81093,1.250181 -0.48059,3.660241 0.17262,1.25941 0.2775,1.36776 1.7911,1.8526 0.35741,0.11449 0.42453,0.245197 0.22686,0.442867 -0.19767,0.19766 -0.46496,0.161724 -0.90434,-0.121956 -0.34298,-0.22144 -1.73412,-0.88915 -3.09128,-1.48363 l -2.46755,-1.080554 -0.78548,0.559139 c -0.72955,0.51949 -0.77491,0.647514 -0.62994,1.789554 0.37708,2.97073 0.25258,2.762173 2.24121,3.752743 l 1.84123,0.917257 0.10335,4.821411 c 0.057,2.65181 0.223,4.973515 0.36897,5.159375 0.3394,0.43213 0.83387,4.174015 1.11105,8.407755 0.12561,1.91853 0.38924,3.715915 0.62787,4.280876 0.54682,1.29465 10.15545,2.748669 10.15545,2.748669 13.7989,0.43573 24.54098,2.135159 33.23931,-6.220292 0.61175,-0.72704 0.7139,-1.086909 0.7059,-2.483569 -0.5791,-5.395358 -0.68384,-3.144488 -2.89543,-13.96969 -0.34026,-1.50068 -0.99018,-3.445847 -1.44384,-4.322217 -0.68591,-1.325 -1.09073,-1.752343 -2.40502,-2.538863 -2.04298,-1.22261 -5.75551,-2.758882 -11.37036,-4.704622 -2.47386,-0.85727 -5.45425,-1.919063 -6.62337,-2.360063 z m -0.38654,0.806669 c 0.6455,0.0048 0.90857,0.422281 1.30586,1.175122 0.24922,0.47225 0.81484,3.277281 1.08624,4.530989 0.0291,0.509788 0.142,1.420679 0.35399,2.713013 l 0.32917,2.005562 -3.15743,1.387513 c -4.08456,1.79525 -5.11128,2.451442 -5.31957,3.399792 -0.18704,0.8516 0.43658,5.081485 1.0573,7.171655 0.22701,0.76443 0.64883,1.625515 0.93741,1.914095 0.65869,0.65869 1.38308,0.544683 5.49734,-0.867647 1.65474,-0.56803 3.05009,-0.991528 3.10059,-0.941028 0.0504,0.05045 0.15903,0.74034 0.24133,1.53324 0.10555,1.01749 0.042,1.576059 -0.21549,1.899109 -0.83766,1.05104 -3.67436,2.402448 -7.72253,3.678328 -2.32833,0.73383 -5.95974,1.902775 -8.06979,2.597775 -2.11005,0.69499 -4.28816,1.332784 -4.84053,1.417484 -0.89559,0.137281 -1.03165,0.08208 -1.25677,-0.510046 -0.5182,-1.36295 -0.36201,-1.562897 2.19469,-2.804997 1.34607,-0.65395 2.73269,-1.423186 3.08095,-1.709456 l 0.63304,-0.520382 -0.30903,-3.419946 c -0.66703,-7.38377 -0.66011,-7.376774 -4.82502,-4.956804 -1.1528,0.66983 -2.15366,1.160456 -2.22416,1.089856 -0.0706,-0.07055 -0.15757,-2.142316 -0.19327,-4.603336 l -0.0651,-4.474146 0.64544,0.07183 c 0.82309,0.09168 0.78998,0.04631 1.02164,1.412834 0.16873,0.99535 0.29634,1.172702 0.89194,1.242302 0.4407,0.05146 0.7472,0.282312 0.8387,0.632002 0.12026,0.45993 0.28908,0.527064 1.01906,0.405144 1.85383,-0.30962 2.33009,-0.638371 2.33009,-1.608171 0,-2.1253 -0.20021,-2.453023 -1.7234,-2.818433 -0.7741,-0.18571 -1.52198,-0.410394 -1.66192,-0.499194 -0.13995,-0.08878 -0.3356,-0.756547 -0.4346,-1.484147 -0.17264,-1.26902 -0.14775,-1.342152 0.6134,-1.791622 0.75178,-0.44398 0.88105,-0.445308 2.4629,-0.02274 1.94039,0.51835 2.21484,0.777213 2.4443,2.307353 0.16435,1.09595 0.21048,1.141827 1.48363,1.468127 0.79366,0.20341 1.31361,0.484031 1.31361,0.709001 0,0.5506 0.64446,0.456199 2.1916,-0.320911 0.75915,-0.38131 1.41691,-0.725094 1.46141,-0.764294 0.0896,-0.07876 -0.72177,-3.32182 -0.90537,-3.6189 -0.0635,-0.1027 -0.58578,-0.02093 -1.16066,0.181901 -0.90892,0.32072 -1.20147,0.315872 -2.24224,-0.03876 l -1.19682,-0.408244 V 16.96744 15.519466 l 3.50573,-1.672766 c 3.1904,-1.522384 4.65241,-2.198347 5.48235,-2.192114 z m 1.48311,0.204122 c 0.0395,-2.28e-4 0.12474,0.03787 0.28009,0.0956 4.00912,1.48984 5.5997,2.15987 5.98568,2.52181 0.45427,0.42597 0.79418,1.856611 2.83497,11.926921 0.89235,4.40334 2.16088,11.803125 1.94923,12.014765 -0.15684,0.15684 -6.1811,-0.339002 -6.29877,-1.308982 -0.10204,-0.841046 -0.56177,-3.29745 0.14359,-3.29745 1.02429,0 1.03754,-0.548916 0.13436,-5.552116 -0.78209,-4.33237 -0.95301,-4.930773 -1.55701,-5.450313 -0.37318,-0.32099 -0.81539,-0.628913 -0.98288,-0.684713 -0.1675,-0.05584 -0.53435,-1.220979 -0.81494,-2.588989 -0.27469,-1.339217 -0.48786,-2.16084 -0.62012,-2.489771 -0.10665,-0.712656 -0.37116,-2.07332 -0.97255,-4.723226 -0.0777,-0.342322 -0.15206,-0.463132 -0.0816,-0.463537 z m 9.78028,3.531567 c 0.0639,-0.0024 0.15847,0.02323 0.28836,0.06976 0.94094,0.33709 1.12265,0.669427 1.69085,3.089217 0.94808,4.03755 3.09226,14.971756 3.4339,17.511076 0.3962,2.945 1.23591,3.764887 -0.44907,3.356901 -0.46564,-0.112747 -0.61334,-0.311486 -0.75292,-1.322916 -0.6532,-4.73336 -3.50069,-19.632328 -4.24522,-22.212598 -0.0998,-0.345984 -0.10644,-0.486071 0.0341,-0.491443 z m 4.68137,1.783871 c 0.13761,0.0048 0.32818,0.06134 0.56896,0.171048 0.55139,0.25123 0.75544,0.794229 1.58078,4.210079 1.57634,6.52403 2.68394,12.677519 2.9807,16.555579 0.0975,1.27331 0.13025,2.300998 0.0724,2.284098 -0.0578,-0.01688 -0.30977,-0.08426 -0.55966,-0.149861 -0.26415,-0.06937 -0.51438,-0.472099 -0.59738,-0.961699 -0.0785,-0.46319 -0.50092,-3.04446 -0.93896,-5.7366 -1.51012,-9.281 -2.58031,-14.510491 -3.20962,-15.686381 -0.24577,-0.459223 -0.1999,-0.696909 0.10283,-0.686263 z m -18.83967,8.238256 c 0.15417,-0.0052 0.25039,0.09444 0.39067,0.286288 0.50453,0.68999 0.72628,2.868719 0.33176,3.259749 -0.4696,0.46543 -2.21719,1.160889 -2.41639,0.961699 -0.0912,-0.09125 -0.16588,-0.910274 -0.16588,-1.820044 0,-1.61716 0.0216,-1.667496 0.96325,-2.249476 0.4726,-0.292086 0.72186,-0.432325 0.89659,-0.438216 z m -9.93635,5.159375 c 0.13348,0.0041 0.23908,0.03749 0.31471,0.100253 0.38949,0.32325 0.7509,2.852952 0.44804,3.136242 -0.39548,0.36996 -1.88665,0.578798 -2.06551,0.289388 -0.0931,-0.15057 -0.23968,-0.870769 -0.32608,-1.600419 -0.15527,-1.31095 -0.14637,-1.331282 0.73949,-1.703772 0.36718,-0.1544 0.66689,-0.228563 0.88935,-0.221692 z" /><path
           id="path23"
           style="fill:#edc343;stroke-width:0.0883883"
           transform="scale(0.26458333)"
           d="m 691.43945,95.375 c -4.3e-4,-2.83e-4 -18.73794,0.177501 -18.73828,0.177734 -3.4e-4,2.34e-4 -6.47045,8.573466 -6.4707,8.574216 l -0.002,0.002 c -1.4e-4,4e-4 -0.70348,2.90165 -0.7754,3.59961 -0.0719,0.69796 -0.0805,1.12002 -0.0859,1.45703 -0.0109,0.674 0.0105,0.99238 0.0254,1.25 0.0297,0.51524 0.0553,0.71373 0.0742,0.88672 0.0378,0.34596 0.0591,0.48174 0.0781,0.61718 0.0381,0.2709 0.0664,0.45037 0.0996,0.66016 0.0665,0.41958 0.1472,0.90344 0.24609,1.49023 0.1978,1.17359 0.4649,2.72115 0.76368,4.41602 1.41363,8.01923 2.4264,14.01944 3.31054,19.32617 -4.24563,1.79965 -8.45674,3.58018 -11.75195,4.98438 -3.16265,1.3477 -6.47368,2.75852 -7.33398,3.125 l -1.58985,0.67773 c -6.16778,2.62658 -10.18988,8.66166 -10.24023,15.36523 l -0.0215,2.89258 c -0.007,0.87442 -0.007,1.66228 0,2.34571 0.004,0.34313 -5.8045,1.1988 -5.7891,1.62304 -18.22681,9.50708 -28.25977,13.87472 -20.46942,13.58746 1.05951,-0.0391 8.84289,0.10431 12.29884,0.67771 0.46315,0.0768 4.36049,-0.41986 4.69903,0.26095 0.33853,0.68081 12.66073,-5.37214 12.66096,-5.37182 2.4e-4,3.2e-4 -1.54077,5.44243 -1.54077,5.44243 0.0505,-0.15918 18.02317,3.6466 14.64311,0.57189 -0.1916,-0.17429 4.71513,-0.49146 5.28266,-0.65582 0.5599,-0.16216 0.92603,0.3277 1.12086,0.25287 0.38966,-0.14966 0.5238,-0.21237 0.64258,-0.26367 0.23757,-0.10262 0.3132,-0.13891 0.38477,-0.17188 0.14314,-0.0659 0.2004,-0.0919 0.26172,-0.12109 0.12262,-0.0584 0.22113,-0.10656 0.34375,-0.16602 0.24523,-0.11891 0.56227,-0.27474 0.96679,-0.47265 0.80906,-0.39584 1.95373,-0.95736 3.36328,-1.6504 2.81911,-1.38606 6.69063,-3.29288 10.94141,-5.39062 8.48863,-4.18909 16.92604,-8.3521 18.69336,-9.22266 1.59784,-0.78704 2.09348,-0.97156 3.68945,-1.88281 0.399,-0.22781 0.86865,-0.46497 1.94141,-1.26758 1.07276,-0.80261 5.87864,-0.53559 8.08749,-9.36719 1.10442,-4.4158 -2.40939,-11.78518 -5.35702,-15.20507 -0.67161,-0.77922 -1.18768,-1.03734 -1.79492,-1.57032 -0.31485,-2.02415 -0.60718,-3.97229 -0.94141,-5.98046 -0.64863,-3.89715 -1.71959,-9.99412 -2.65234,-15.1836 -0.46638,-2.59474 -0.89603,-4.94603 -1.22266,-6.6914 -0.16331,-0.87269 -0.297,-1.58073 -0.41602,-2.17578 -0.0595,-0.29753 -0.10686,-0.53427 -0.19921,-0.94141 -0.0462,-0.20357 -0.0691,-0.36452 -0.2754,-1.07813 -0.10313,-0.3568 -0.0358,-0.56048 -0.92578,-2.46875 -0.22248,-0.47706 -0.50391,-1.08388 -1.16797,-2.09961 -0.66405,-1.015719 -4.85698,-4.864947 -4.85742,-4.86523 z" /><path
           id="path10"
           style="fill:#edc343;stroke-width:0.31439"
           d="m 690.17188,63.900391 c -0.11155,-0.0054 -0.23634,-1.32e-4 -0.38476,0.02344 -0.29684,0.04714 -0.88929,0.279653 -1.11133,0.884766 -0.18948,0.516374 -0.0803,0.491346 -0.0742,0.574218 0.006,0.08287 0.0153,0.145701 0.0254,0.212891 0.0203,0.13438 0.0476,0.281973 0.084,0.462891 0.0728,0.361835 0.18093,0.844132 0.3164,1.425781 0.27094,1.163297 0.65535,2.718431 1.08985,4.398437 3.06769,11.861362 5.67226,25.41463 10.38476,54.072265 2.17953,13.25412 3.18554,19.53182 3.9336,22.74609 0.2864,1.23064 0.51667,2.03907 0.85351,2.66602 0.0791,0.0123 0.15818,0.0335 0.23633,0.0625 l 4.59766,1.70312 c 0.20751,-0.1864 0.36128,-0.41533 0.44726,-0.61523 0.26696,-0.62065 0.23864,-1.10166 0.23242,-1.80078 -0.006,-0.69913 -0.0537,-1.59113 -0.11328,-2.7793 -0.27717,-5.52657 -1.05547,-11.57221 -2.89062,-22.54101 -2.98763,-17.85722 -6.47483,-35.364742 -9.28907,-46.597659 -1.07356,-4.285064 -1.86739,-7.201079 -2.54687,-9.222656 -0.67948,-2.021577 -1.19616,-3.182864 -2.04102,-3.976563 -0.65381,-0.614231 -1.47429,-1.010959 -2.27343,-1.322265 -0.39957,-0.155654 -0.77311,-0.277053 -1.16797,-0.339844 -0.0987,-0.0157 -0.19704,-0.03172 -0.3086,-0.03711 z"
           transform="scale(0.26458333)" /><path
           style="fill:#5f3225;fill-opacity:1;stroke:none;stroke-width:0.25"
           d="m 682.11996,146.72272 c -3.46365,-1.00665 -5.02816,-1.52157 -5.02816,-1.52157 0,0 -15.12492,-82.678753 -15.47571,-84.056566 -0.47017,-1.846708 -3.06794,-10.095137 -3.00349,-10.159578 0.0644,-0.06444 2.54554,1.087499 5.63938,1.966168 l 7.18639,2.52955 c 1.41277,0.192709 17.73246,92.702356 17.10447,92.719056 -0.37744,0.01 -0.0616,0.37174 -6.42288,-1.47706 z"
           id="path4"
           transform="scale(0.26458333)" /><path
           id="path6"
           style="fill:#5f3225;fill-opacity:1;stroke:none;stroke-width:0.25"
           d="m 676.33985,57.257813 c -0.0154,-0.0042 1.80593,6.214063 2.20508,7.554688 2.27871,7.653524 12.20377,57.003939 14.19141,70.562499 0.97203,6.63062 1.87444,12.13872 1.38561,13.80527 -0.0674,0.2297 11.40345,2.24942 11.40345,2.24942 0.32978,-5.06643 -1.48888,-10.574 -2.33008,-15.63672 -4.03808,-24.77931 -7.73784,-49.646288 -14.61523,-73.833985 -0.0342,-0.140142 0.49715,0.130586 -4.73243,-1.871094 -3.03737,-1.162588 -7.49241,-2.825878 -7.50781,-2.830078 z m 16.43164,6.439453 c -10e-4,1.57e-4 -0.003,0.0017 -0.004,0.002 -0.002,7.49e-4 -0.008,0.0027 -0.01,0.0039 l -0.002,0.002 c -0.002,0.0016 -0.006,0.0058 -0.008,0.0078 -0.17307,0.270089 1.23166,3.569134 1.73828,4.6875 0.78866,1.740966 2.51148,6.852281 4.35156,15.603516 2.83287,13.472888 11.28573,69.128828 11.28573,69.128828 0,0 0.60752,0.35154 1.12639,0.50203 9.83125,2.85145 17.17531,5.5982 17.39691,5.34554 1.08972,-1.24247 1.49244,-1.01071 2.26378,-2.42599 1.65664,-3.03965 1.31623,-6.4624 0.76939,-11.85842 -0.5944,-5.8653 -1.4298,-8.65744 -3.71639,-17.80652 -2.253,-9.01465 -3.36596,-14.41398 -5.52991,-24.68039 -2.18732,-10.377344 -3.83036,-16.544836 -6.42673,-21.880859 -2.24449,-4.612857 -4.0849,-6.157882 -8.02222,-8.621323 -1.19194,-0.745755 -8.31634,-4.907512 -15.19186,-8.007583 -0.008,-0.0034 -0.0154,-0.0027 -0.0215,-0.002 z"
           transform="scale(0.26458333)" /><path
           style="opacity:1;fill:#5f3225;fill-opacity:1;fill-rule:evenodd;stroke:none;stroke-width:1;stroke-linejoin:bevel;stroke-dasharray:none"
           d="m 186.67026,40.065772 -17.10772,8.484454 -4.183,-0.08167 18.51911,-9.138261 z"
           id="path20" /><path
           style="fill:#edc343;fill-opacity:1;stroke:none;stroke-width:0.0465259"
           d="m 155.78542,47.445419 c -0.65109,-0.127644 -1.78069,-0.318553 -2.53966,-0.560487 -1.08507,-0.345884 -2.02523,-0.421616 -3.00281,-1.02603 -0.11587,-0.07946 -0.52245,-0.296137 -0.38516,-0.266256 0.4947,0.107669 2.9038,-0.312214 2.55991,-0.568697 -0.72481,-0.540582 3.01949,-0.263282 5.29806,-1.643584 1.4901,-0.902662 4.04813,-1.29175 5.30864,-1.690259 2.20237,-0.696273 3.44328,-1.118689 4.44336,-1.512559 1.63831,-0.645229 3.03101,-1.352603 3.76835,-1.914013 0.14869,-0.113207 1.99067,-1.41922 2.0176,-1.449539 0.12972,-0.146058 2.13014,0.666635 3.75656,0.911492 l 2.3493,0.353686 c -2.58193,2.150727 -5.81506,2.752125 -8.74639,4.071573 -0.56129,0.252648 -1.86154,0.749621 -2.8648,1.162691 -4.63508,1.908385 -8.79536,3.557472 -10.5939,4.199301 0,0 -0.28409,0.171461 -0.44003,0.141522 -0.32494,-0.06239 -0.92903,-0.208841 -0.92903,-0.208841 z"
           id="path22" /><path
           style="opacity:1;fill:#5f3225;fill-opacity:1;fill-rule:evenodd;stroke:none;stroke-width:1;stroke-linejoin:bevel;stroke-dasharray:none"
           d="m 187.88672,40.516389 -14.4035,8.132742 c 2.84209,-0.229773 4.79832,-0.268913 6.75153,-0.669761 1.9532,-0.400849 3.90338,-1.163407 6.73339,-1.847829 2.10948,-1.21605 4.45737,-2.386947 5.98841,-4.26896 z"
           id="path21" /><path
           id="path11-7-9"
           style="fill:#5f3225;fill-opacity:1"
           d="m 179.14928,35.63451 c 0.15477,1.37541 0.0399,2.067732 -0.0865,2.399982 -0.33574,0.88308 -9.80386,4.622328 -9.80386,4.622328 0,0 -8.41291,3.587949 -12.42754,5.01498 1.02998,0.18439 2.15573,0.513641 3.11729,0.513139 1.03823,-5.42e-4 1.67889,0.124512 1.67889,0.124512 0,0 9.52578,-4.587219 11.55161,-5.278486 0,0 5.90371,-2.524133 8.99779,-3.819769 l -1.96928,-1.408853 c -0.29758,-0.153839 -0.39141,-0.407244 -0.4899,-1.109493 -2e-5,-1.48e-4 3e-5,-3.68e-4 0,-5.16e-4 l -0.46669,-1.057819 z" /><path
           id="path24"
           style="opacity:1;fill:#5f3225;fill-opacity:1;fill-rule:evenodd;stroke:#000000;stroke-width:0.2;stroke-linejoin:bevel;stroke-dasharray:none"
           d="m 167.47019,45.994659 -2.13899,0.739955 0.38044,6.123932 1.83722,1.490865 h 1.16427 z" /><path
           id="path24-3"
           style="fill:#5f3225;fill-opacity:1;fill-rule:evenodd;stroke:#000000;stroke-width:0.193457;stroke-linejoin:bevel;stroke-dasharray:none"
           d="m 175.36822,42.490782 -1.83213,1.495521 1.63185,7.282762 1.82341,0.895193 0.99365,-0.534547 z" /><path
           id="path24-3-5"
           style="fill:#5f3225;fill-opacity:1;fill-rule:evenodd;stroke:#000000;stroke-width:0.183261;stroke-linejoin:bevel;stroke-dasharray:none"
           d="m 183.1723,42.079022 -1.91602,1.676619 1.35321,6.723551 1.75548,0.88481 0.99098,-0.453462 z" /><path
           id="path24-3-5-6"
           style="fill:#5f3225;fill-opacity:1;fill-rule:evenodd;stroke:#000000;stroke-width:0.167234;stroke-linejoin:bevel;stroke-dasharray:none"
           d="m 173.24377,47.023275 -1.80014,1.468816 1.02267,6.17445 1.57316,0.862162 0.91804,-0.38239 z" /><path
           id="path24-3-5-6-5"
           style="fill:#5f3225;fill-opacity:1;fill-rule:evenodd;stroke:#000000;stroke-width:0.167234;stroke-linejoin:bevel;stroke-dasharray:none"
           d="m 189.07911,41.311623 -1.74539,1.533469 1.2471,6.133061 1.60355,0.804234 0.90348,-0.415605 z" /><path
           id="path24-3-5-6-5-4"
           style="fill:#5f3225;fill-opacity:1;fill-rule:evenodd;stroke:#000000;stroke-width:0.167234;stroke-linejoin:bevel;stroke-dasharray:none"
           d="m 186.53899,44.390121 -1.74539,1.533469 1.2471,6.133061 1.60355,0.804234 0.90348,-0.415605 z" /><path
           id="rect25"
           style="fill:#5f3225;fill-rule:evenodd;stroke-width:0.264583"
           d="m 187.54456,40.811977 h 2.04136 c 0.1766,0 0.31179,0.142311 0.31877,0.318776 l 0.12376,3.130429 c 0.007,0.176467 -0.46637,0.382844 -0.6244,0.461667 l -1.88753,0.941478 c -0.079,0.03939 -2.70936,1.511568 -2.98738,0.811844 -0.95934,-2.414518 0.14086,-0.574137 0.18255,-0.651972 l 2.51412,-4.693446 c 0.0834,-0.155674 0.14218,-0.318776 0.31878,-0.318776 z" /><path
           id="rect26"
           style="fill:#edc343;fill-rule:evenodd;stroke-width:0.264583"
           d="m 183.74013,41.831384 -0.0947,1.084141 c -1.00224,0.179898 -3.30705,2.146746 -2.93357,1.502004 l 0.83812,-1.446895 c 0,0 2.24886,-1.812109 2.19011,-1.13925 z" /><path
           id="rect27"
           style="fill:#edc343;fill-rule:evenodd;stroke-width:0.264583"
           d="m 171.51345,47.698078 2.00793,-1.043799 c 0.15669,-0.08146 0.35948,1.871213 0.18337,1.884386 l -1.20321,0.09 c -0.60209,0.04504 -1.12,-0.0044 -1.12,-0.0044 0,0 -0.18687,-0.157019 -0.18687,-0.33362 v -0.273827 c 0,-0.176601 0.16209,-0.23732 0.31878,-0.318775 z" /></g></g></g></svg>
