<svg xmlns="http://www.w3.org/2000/svg" xmlns:xlink="http://www.w3.org/1999/xlink" xml:space="preserve" width="3000" height="3600" viewBox="0 0 3000 3600"><defs><linearGradient id="S"><stop offset="0" style="stop-color:#cfcfcf;stop-opacity:1"/><stop offset="1" style="stop-color:#cfcfcf;stop-opacity:0"/></linearGradient><linearGradient id="R"><stop offset="0" style="stop-color:#ffeb20;stop-opacity:1"/><stop offset="1" style="stop-color:#ffeb20;stop-opacity:0"/></linearGradient><linearGradient id="Q"><stop offset="0" style="stop-color:#fffeff;stop-opacity:1"/><stop offset="1" style="stop-color:#dfdfdf;stop-opacity:1"/></linearGradient><linearGradient id="P"><stop offset="0" style="stop-color:#084dbd;stop-opacity:1"/><stop offset="1" style="stop-color:#8bcee6;stop-opacity:1"/></linearGradient><linearGradient id="O"><stop offset="0" style="stop-color:#fdcd26;stop-opacity:1"/><stop offset="1" style="stop-color:#fdcd26;stop-opacity:0"/></linearGradient><linearGradient id="N"><stop offset="0" style="stop-color:#fff982;stop-opacity:1"/><stop offset="1" style="stop-color:#fff982;stop-opacity:0"/></linearGradient><linearGradient id="M"><stop offset="0" style="stop-color:#e03803;stop-opacity:1"/><stop offset="1" style="stop-color:#e03803;stop-opacity:0"/></linearGradient><linearGradient id="L"><stop offset="0" style="stop-color:#ff932a;stop-opacity:1"/><stop offset="1" style="stop-color:#ffe52a;stop-opacity:0"/></linearGradient><linearGradient id="K"><stop offset="0" style="stop-color:#fdce28;stop-opacity:1"/><stop offset="1" style="stop-color:#fdce28;stop-opacity:0"/></linearGradient><linearGradient id="J"><stop offset="0" style="stop-color:#fdce28;stop-opacity:1"/><stop offset="1" style="stop-color:#fdce28;stop-opacity:0"/></linearGradient><linearGradient id="I"><stop offset="0" style="stop-color:#fdffff;stop-opacity:1"/><stop offset="1" style="stop-color:#fdffff;stop-opacity:0"/></linearGradient><linearGradient id="H"><stop offset="0" style="stop-color:#fdffff;stop-opacity:1"/><stop offset="1" style="stop-color:#fdffff;stop-opacity:0"/></linearGradient><linearGradient id="G"><stop offset="0" style="stop-color:#eb3b03;stop-opacity:1"/><stop offset="1" style="stop-color:#eb3b03;stop-opacity:0"/></linearGradient><linearGradient id="F"><stop offset="0" style="stop-color:#ffe159;stop-opacity:1"/><stop offset="1" style="stop-color:#ffe159;stop-opacity:0"/></linearGradient><linearGradient id="E"><stop offset="0" style="stop-color:#4b3e02;stop-opacity:1"/><stop offset="1" style="stop-color:#f9d016;stop-opacity:0"/></linearGradient><linearGradient id="D"><stop offset="0" style="stop-color:#a68d7c;stop-opacity:1"/><stop offset="1" style="stop-color:#a68d7c;stop-opacity:0"/></linearGradient><linearGradient id="C"><stop offset="0" style="stop-color:#a68d7c;stop-opacity:1"/><stop offset="1" style="stop-color:#a68d7c;stop-opacity:0"/></linearGradient><linearGradient id="B"><stop offset="0" style="stop-color:#312923;stop-opacity:1"/><stop offset="1" style="stop-color:#312923;stop-opacity:0"/></linearGradient><linearGradient id="A"><stop offset="0" style="stop-color:#312923;stop-opacity:1"/><stop offset="1" style="stop-color:#312923;stop-opacity:0"/></linearGradient><linearGradient id="z"><stop offset="0" style="stop-color:#ffa323;stop-opacity:1"/><stop offset="1" style="stop-color:#ffa323;stop-opacity:0"/></linearGradient><linearGradient id="y"><stop offset="0" style="stop-color:#ee4705;stop-opacity:1"/><stop offset="1" style="stop-color:#ee4705;stop-opacity:0"/></linearGradient><linearGradient id="x"><stop offset="0" style="stop-color:#000;stop-opacity:1"/><stop offset="1" style="stop-color:#0e0e0e;stop-opacity:1"/></linearGradient><linearGradient id="w"><stop offset="0" style="stop-color:#0e0e0e;stop-opacity:1"/><stop offset="1" style="stop-color:#000;stop-opacity:1"/></linearGradient><linearGradient id="v"><stop offset="0" style="stop-color:#edabb4;stop-opacity:1"/><stop offset="1" style="stop-color:#d33045;stop-opacity:0"/></linearGradient><linearGradient id="u"><stop offset="0" style="stop-color:#2b2d2a;stop-opacity:1"/><stop offset="1" style="stop-color:#2b2d2a;stop-opacity:0"/></linearGradient><linearGradient id="t"><stop offset="0" style="stop-color:#ae1f31;stop-opacity:1"/><stop offset="1" style="stop-color:#ae1f31;stop-opacity:0"/></linearGradient><linearGradient id="s"><stop offset="0" style="stop-color:#252724;stop-opacity:1"/><stop offset="1" style="stop-color:#2f322e;stop-opacity:1"/></linearGradient><linearGradient id="r"><stop offset="0" style="stop-color:#ae1f31;stop-opacity:1"/><stop offset="1" style="stop-color:#e15567;stop-opacity:0"/></linearGradient><linearGradient id="q"><stop offset="0" style="stop-color:#f3650c;stop-opacity:1"/><stop offset="1" style="stop-color:#f3650c;stop-opacity:0"/></linearGradient><linearGradient id="p"><stop offset="0" style="stop-color:#562808;stop-opacity:1"/><stop offset="1" style="stop-color:#562808;stop-opacity:0"/></linearGradient><linearGradient id="o"><stop offset="0" style="stop-color:#fedb56;stop-opacity:1"/><stop offset="1" style="stop-color:#fedb56;stop-opacity:0"/></linearGradient><linearGradient id="n"><stop offset="0" style="stop-color:#fedb56;stop-opacity:1"/><stop offset="1" style="stop-color:#fedb56;stop-opacity:0"/></linearGradient><linearGradient id="m"><stop offset="0" style="stop-color:#f48408;stop-opacity:1"/><stop offset="1" style="stop-color:#f48408;stop-opacity:0"/></linearGradient><linearGradient id="l"><stop offset="0" style="stop-color:#fff;stop-opacity:1"/><stop offset="1" style="stop-color:#fff;stop-opacity:0"/></linearGradient><linearGradient id="k"><stop offset="0" style="stop-color:#312923;stop-opacity:1"/><stop offset="1" style="stop-color:#312923;stop-opacity:0"/></linearGradient><linearGradient id="j"><stop offset="0" style="stop-color:#784313;stop-opacity:1"/><stop offset="1" style="stop-color:#411802;stop-opacity:1"/></linearGradient><linearGradient id="i"><stop offset="0" style="stop-color:#0de6f4;stop-opacity:1"/><stop offset="1" style="stop-color:#0de6f4;stop-opacity:0"/></linearGradient><linearGradient id="h"><stop offset="0" style="stop-color:#f46e0d;stop-opacity:1"/><stop offset="1" style="stop-color:#f46e0d;stop-opacity:0"/></linearGradient><linearGradient id="g"><stop offset="0" style="stop-color:#f5680b;stop-opacity:1"/><stop offset="1" style="stop-color:#f5680b;stop-opacity:0"/></linearGradient><linearGradient id="f"><stop offset="0" style="stop-color:#ffa323;stop-opacity:1"/><stop offset="1" style="stop-color:#ffa323;stop-opacity:0"/></linearGradient><linearGradient id="e"><stop offset="0" style="stop-color:#f18c00;stop-opacity:1"/><stop offset="1" style="stop-color:#f18c00;stop-opacity:0"/></linearGradient><linearGradient id="d"><stop offset="0" style="stop-color:#f18c00;stop-opacity:1"/><stop offset="1" style="stop-color:#f18c00;stop-opacity:0"/></linearGradient><linearGradient id="c"><stop offset="0" style="stop-color:#fee955;stop-opacity:1"/><stop offset="1" style="stop-color:#fee955;stop-opacity:0"/></linearGradient><linearGradient id="b"><stop offset="0" style="stop-color:#ffac49;stop-opacity:1"/><stop offset="1" style="stop-color:#fff149;stop-opacity:0"/></linearGradient><linearGradient id="a"><stop offset="0" style="stop-color:#ffec8b;stop-opacity:1"/><stop offset="1" style="stop-color:#ffec8b;stop-opacity:0"/></linearGradient><linearGradient xlink:href="#d" id="aa" x1="425.969" x2="189.777" y1="396.543" y2="185.272" gradientUnits="userSpaceOnUse"/><linearGradient xlink:href="#f" id="X" x1="426.41" x2="246.433" y1="240.092" y2="192.65" gradientUnits="userSpaceOnUse"/><linearGradient xlink:href="#d" id="ac" x1="510.758" x2="146.372" y1="430.863" y2="179.215" gradientUnits="userSpaceOnUse"/><linearGradient xlink:href="#j" id="an" x1="73.459" x2="337" y1="221.932" y2="221.932" gradientUnits="userSpaceOnUse"/><linearGradient xlink:href="#k" id="am" x1="316.37" x2="73.459" y1="169.459" y2="192.901" gradientUnits="userSpaceOnUse"/><linearGradient xlink:href="#l" id="ao" x1="93.535" x2="185.039" y1="221.381" y2="221.381" gradientUnits="userSpaceOnUse"/><linearGradient xlink:href="#s" id="ah" x1="257.176" x2="263.916" y1="266.223" y2="285.448" gradientTransform="translate(81.285 132.858)" gradientUnits="userSpaceOnUse"/><linearGradient xlink:href="#w" id="aw" x1="313.517" x2="309.341" y1="219.842" y2="210.452" gradientTransform="rotate(.858 1495.288 -1444.34)scale(1.08045)" gradientUnits="userSpaceOnUse"/><linearGradient xlink:href="#x" id="av" x1="193.291" x2="191.461" y1="242.427" y2="259.471" gradientTransform="translate(-37.855 -50.667)scale(1.20198)" gradientUnits="userSpaceOnUse"/><linearGradient xlink:href="#L" id="aJ" x1="84.127" x2="174.188" y1="412.469" y2="310.048" gradientUnits="userSpaceOnUse"/><linearGradient xlink:href="#P" id="T" x1="0" x2="1824.06" y1="0" y2="2320.275" gradientUnits="userSpaceOnUse"/><linearGradient xlink:href="#Q" id="aL" x1="559.003" x2="-176.569" y1="940.016" y2="237.259" gradientUnits="userSpaceOnUse"/><linearGradient xlink:href="#Q" id="aN" x1="559.003" x2="-176.569" y1="940.016" y2="237.259" gradientUnits="userSpaceOnUse"/><linearGradient xlink:href="#Q" id="aP" x1="559.003" x2="-176.569" y1="940.016" y2="237.259" gradientUnits="userSpaceOnUse"/><linearGradient xlink:href="#Q" id="aR" x1="559.003" x2="-176.569" y1="940.016" y2="237.259" gradientUnits="userSpaceOnUse"/><radialGradient xlink:href="#a" id="ad" cx="151.064" cy="25.396" r="207.937" fx="151.064" fy="25.396" gradientTransform="translate(64.602 -41.385)" gradientUnits="userSpaceOnUse"/><radialGradient xlink:href="#b" id="W" cx="335.525" cy="275.974" r="183.711" fx="335.525" fy="275.974" gradientTransform="translate(-407.698 -67.944)scale(1.1554)" gradientUnits="userSpaceOnUse"/><radialGradient xlink:href="#c" id="Z" cx="372.469" cy="260.426" r="190.777" fx="372.469" fy="260.426" gradientTransform="translate(-229.657 -291.08)scale(1.13469)" gradientUnits="userSpaceOnUse"/><radialGradient xlink:href="#e" id="V" cx="105.113" cy="128.11" r="203.899" fx="105.113" fy="128.11" gradientTransform="translate(-70.658 -169.58)" gradientUnits="userSpaceOnUse"/><radialGradient xlink:href="#g" id="ab" cx="-81.368" cy="115.628" r="251.242" fx="-81.368" fy="115.628" gradientTransform="translate(94.651 -204.02)" gradientUnits="userSpaceOnUse"/><radialGradient xlink:href="#h" id="ae" cx="148.771" cy="271.364" r="172.827" fx="148.771" fy="271.364" gradientTransform="translate(105.086 72.616)scale(1.27246)" gradientUnits="userSpaceOnUse"/><radialGradient xlink:href="#i" id="ag" cx="11.212" cy="99.784" r="173.781" fx="11.212" fy="99.784" gradientTransform="translate(223.88 -74.288)" gradientUnits="userSpaceOnUse"/><radialGradient xlink:href="#m" id="ar" cx="207.411" cy="411.73" r="232.077" fx="207.411" fy="411.73" gradientTransform="translate(151.923 17.939)" gradientUnits="userSpaceOnUse"/><radialGradient xlink:href="#n" id="as" cx="85.954" cy="52.1" r="130.24" fx="85.954" fy="52.1" gradientTransform="translate(149.263 -52.1)" gradientUnits="userSpaceOnUse"/><radialGradient xlink:href="#o" id="at" cx="17.441" cy="348.969" r="108.612" fx="17.441" fy="348.969" gradientTransform="translate(21.973 35.03)" gradientUnits="userSpaceOnUse"/><radialGradient xlink:href="#p" id="aq" cx="92.507" cy="199.854" r="84.637" fx="92.507" fy="199.854" gradientTransform="translate(-2.632 66.13)scale(1.13316)" gradientUnits="userSpaceOnUse"/><radialGradient xlink:href="#q" id="au" cx="326.878" cy="296.007" r="124.752" fx="326.878" fy="296.007" gradientTransform="translate(-586.015 -176.373)scale(1.56944)" gradientUnits="userSpaceOnUse"/><radialGradient xlink:href="#r" id="ai" cx="257.457" cy="254.881" r="31.117" fx="257.457" fy="254.881" gradientTransform="translate(82.891 136.879)" gradientUnits="userSpaceOnUse"/><radialGradient xlink:href="#t" id="aj" cx="262.634" cy="266.277" r="19.2" fx="262.634" fy="266.277" gradientTransform="translate(75.539 167.194)" gradientUnits="userSpaceOnUse"/><radialGradient xlink:href="#u" id="ak" cx="241.205" cy="256.268" r="22.991" fx="241.205" fy="256.268" gradientTransform="translate(27.76 50.033)scale(1.2926)" gradientUnits="userSpaceOnUse"/><radialGradient xlink:href="#v" id="al" cx="339.574" cy="420.438" r="17.238" fx="339.574" fy="420.438" gradientTransform="translate(2.102 -15.696)" gradientUnits="userSpaceOnUse"/><radialGradient xlink:href="#y" id="ax" cx="122.043" cy="321.825" r="146.665" fx="122.043" fy="321.825" gradientTransform="translate(-224.637 -52.731)scale(1.4054)" gradientUnits="userSpaceOnUse"/><radialGradient xlink:href="#z" id="Y" cx="385.294" cy="207.71" r="134.774" fx="385.294" fy="207.71" gradientTransform="translate(-228.718 -23.545)" gradientUnits="userSpaceOnUse"/><radialGradient xlink:href="#A" id="ap" cx="141.909" cy="64.216" r="121.296" fx="141.909" fy="64.216" gradientTransform="translate(200.971 -22.99)" gradientUnits="userSpaceOnUse"/><radialGradient xlink:href="#B" id="ay" cx="256.912" cy="211.036" r="64.187" fx="256.912" fy="211.036" gradientTransform="translate(-123.54 -126.795)scale(1.37054)" gradientUnits="userSpaceOnUse"/><radialGradient xlink:href="#C" id="az" cx="236.475" cy="351.901" r="66.709" fx="236.475" fy="351.901" gradientTransform="translate(-121.463 -153.6)scale(1.45378)" gradientUnits="userSpaceOnUse"/><radialGradient xlink:href="#D" id="aA" cx="346.441" cy="280.853" r="62.225" fx="346.441" fy="280.853" gradientTransform="translate(-5.946 9.91)" gradientUnits="userSpaceOnUse"/><radialGradient xlink:href="#E" id="aC" cx="97.708" cy="355.408" r="187.097" fx="97.708" fy="355.408" gradientTransform="translate(162.521 109.404)" gradientUnits="userSpaceOnUse"/><radialGradient xlink:href="#F" id="aD" cx="-224.234" cy="136.782" r="165.933" fx="-224.234" fy="136.782" gradientTransform="translate(510.556 -106.86)scale(1.1419)" gradientUnits="userSpaceOnUse"/><radialGradient xlink:href="#G" id="aE" cx="229.191" cy="440.423" r="114.161" fx="229.191" fy="440.423" gradientTransform="matrix(1.72932 0 0 1.59722 -149.789 -241.26)" gradientUnits="userSpaceOnUse"/><radialGradient xlink:href="#H" id="aF" cx="105.39" cy="209.098" r="80.724" fx="105.39" fy="209.098" gradientTransform="translate(-21.302 29.71)" gradientUnits="userSpaceOnUse"/><radialGradient xlink:href="#I" id="aG" cx="-19.027" cy="332.177" r="130.81" fx="-19.027" fy="332.177" gradientTransform="translate(193.44 -286.196)" gradientUnits="userSpaceOnUse"/><radialGradient xlink:href="#J" id="aH" cx="238.809" cy="371.107" r="110.996" fx="238.809" fy="371.107" gradientTransform="translate(71.615 -10.923)scale(1.07857)" gradientUnits="userSpaceOnUse"/><radialGradient xlink:href="#K" id="aI" cx="298.771" cy="325.429" r="92.993" fx="298.771" fy="325.429" gradientTransform="translate(16.324 37.277)" gradientUnits="userSpaceOnUse"/><radialGradient xlink:href="#M" id="aK" cx="68.424" cy="92.079" r="169.003" fx="68.424" fy="92.079" gradientTransform="translate(-68.424 -45.186)" gradientUnits="userSpaceOnUse"/><radialGradient xlink:href="#N" id="af" cx="228.158" cy="234.324" r="119.993" fx="228.158" fy="234.324" gradientTransform="translate(81.265 72.689)scale(.76268)" gradientUnits="userSpaceOnUse"/><radialGradient xlink:href="#O" id="aB" cx="159.206" cy="0" r="155.842" fx="159.206" fy="0" gradientTransform="translate(95.3 82.966)" gradientUnits="userSpaceOnUse"/><radialGradient xlink:href="#R" id="U" cx="306.342" cy="1738.877" r="1158.64" fx="306.342" fy="1738.877" gradientTransform="translate(1119.974 -216.955)scale(1.08908)" gradientUnits="userSpaceOnUse"/><radialGradient xlink:href="#S" id="aM" cx="499.97" cy="574.244" r="577.642" fx="499.97" fy="574.244" gradientTransform="matrix(1 0 0 .94474 0 27.787)" gradientUnits="userSpaceOnUse"/><radialGradient xlink:href="#S" id="aO" cx="499.97" cy="574.244" r="577.642" fx="499.97" fy="574.244" gradientTransform="matrix(1 0 0 .94474 0 27.787)" gradientUnits="userSpaceOnUse"/><radialGradient xlink:href="#S" id="aQ" cx="499.97" cy="574.244" r="577.642" fx="499.97" fy="574.244" gradientTransform="matrix(1 0 0 .94474 0 27.787)" gradientUnits="userSpaceOnUse"/><radialGradient xlink:href="#S" id="aS" cx="499.97" cy="574.244" r="577.642" fx="499.97" fy="574.244" gradientTransform="matrix(1 0 0 .94474 0 27.787)" gradientUnits="userSpaceOnUse"/></defs><rect width="3000" height="3600" rx="50.957" ry="1.526" style="fill:url(#T);fill-opacity:1;stroke:none;stroke-width:4;stroke-linecap:round;stroke-linejoin:round;stroke-opacity:1;paint-order:stroke fill markers"/><circle cx="1453.603" cy="1676.813" r="1261.846" style="opacity:1;mix-blend-mode:overlay;fill:url(#U);stroke:none;stroke-width:4.3563;stroke-linecap:round;stroke-linejoin:round;stroke-opacity:1;paint-order:stroke fill markers"/><g transform="translate(390.078 535.675)scale(5.80906)"><path d="M103.732 60.61c16.002-12.18 57.82-1.511 77.978.297 27.427.218 36.075 11.538 57.695 27.42 6.365 4.7 8.744 6.721 12.788 8.208s9.755 2.439 17.368 4.997c19.557 6.57 66.463 29.253 80.365 98.246 2.271 11.271 4.963 23.973 6.35 32.174 1.389 8.202 1.473 11.903.716 15.1s-2.356 5.887-3.996 7.78c-1.64 1.892-3.322 2.986-5.72 6.14-7.66 11.14-13.79 23.257-20.398 35.035-7.06 12.53-10.554 17.332-25.908 27.927-81.358 56.137-165.442 21.17-179.505 14.636-13.66-6.134-28.434-9.082-38.778-20.525-6.646-7.654-15.898-21.281-22.375-30.87s-10.178-15.141-14.637-22.964-9.673-17.917-12.028-24.815c-4.688-11.234 3.356-18.795 8.496-27.926 2.439-4.543 3.617-9.085 3.28-13.711-3.06-11.05-3.41-22.923-8.748-33.227-2.355-4.374-5.888-9.252-7.655-14.047-1.766-4.795-1.766-9.505-1.848-17.561-1.282-20.688-2.6-49.572 20.53-24.552 2.737 2.974 4.283 4.758 5.235 7.375.951 2.617 1.308 6.067 1.19 8.684-.12 2.617-.714 4.402-.12 6.721.595 2.32 2.38 5.175 4.461 6.662 4.19 2.993 13.537 1.147 11.599-14.037-.357-2.796-.952-4.937-2.022-6.78-1.071-1.845-2.617-3.391-4.164-5.71s-3.093-5.413-3.628-8.268-.06-5.473 1.07-8.03c1.13-2.558 2.915-5.056 4.64-7.078s3.39-3.569 4.342-4.818c.952-1.25 1.19-2.2.654-3.152s-1.844-1.904-2.974-2.915-2.082-2.082-2.974-2.914-1.725-1.428-3.51-.655c-1.784.774-4.52 2.915-6.931 3.841s-4.498.64-6.282-.788c-1.785-1.428-3.267-3.995-6.625-9.62-3.358-5.626-8.592-14.31-12.102-20.199-3.509-5.888-5.293-8.981-4.817-11.182.475-2.2 3.211-3.509 5.65-3.509s4.58 1.309 7.376 3.985c2.795 2.677 6.245 6.721 8.743 9.636s4.045 4.699 5.532 5.948 2.914 1.963 3.747 1.368 1.07-2.498 3.33-4.164c15.21-11.206 39.197 14.862 44.61 11.837" style="fill:#ffe52a;fill-opacity:1;stroke-width:4;stroke-linecap:round;stroke-linejoin:round;paint-order:stroke fill markers"/><path d="M30.395 32c-2.44 0-5.175 1.309-5.65 3.51-.477 2.2 1.306 5.293 4.816 11.181 3.509 5.889 8.743 14.572 12.101 20.198 3.358 5.625 4.84 8.193 6.625 9.62 1.785 1.428 3.872 1.717 6.283.79s5.148-3.069 6.932-3.842 2.618-.178 3.51.654 1.842 1.903 2.972 2.914 2.44 1.965 2.975 2.916c.535.952.297 1.904-.654 3.153s-2.617 2.794-4.342 4.816-3.509 4.52-4.639 7.078-1.607 5.176-1.072 8.032 2.082 5.947 3.629 8.267c1.546 2.32 3.093 3.865 4.164 5.71 1.07 1.843 1.665 3.985 2.021 6.78 1.939 15.185-7.407 17.03-11.597 14.037-2.082-1.487-3.866-4.342-4.461-6.662s0-4.103.119-6.72-.238-6.067-1.19-8.684c-.951-2.617-2.498-4.403-5.234-7.377-23.131-25.02-21.813 3.865-20.531 24.553.081 8.056.081 12.766 1.848 17.56 1.766 4.795 5.3 9.675 7.656 14.05 5.338 10.303 5.688 22.174 8.748 33.224a21.9 21.9 0 0 1-.38 5.89 203.9 203.9 0 0 0 142.47-142.511 89 89 0 0 0-5.803-.23c-20.159-1.809-61.977-12.478-77.979-.298-5.413 3.026-29.4-23.042-44.609-11.836-2.26 1.666-2.5 3.57-3.332 4.164-.833.595-2.26-.12-3.746-1.369s-3.033-3.032-5.531-5.947-5.949-6.96-8.744-9.637C34.974 33.308 32.833 32 30.395 32" style="mix-blend-mode:multiply;fill:url(#V);stroke-width:4;stroke-linecap:round;stroke-linejoin:round;paint-order:stroke fill markers"/><path d="M30.395 32c-2.44 0-5.175 1.309-5.65 3.51-.477 2.2 1.306 5.293 4.816 11.181 3.509 5.889 8.743 14.572 12.101 20.198 3.358 5.625 4.84 8.193 6.625 9.62 1.785 1.428 3.872 1.717 6.283.79s5.148-3.069 6.932-3.842 2.618-.178 3.51.654 1.842 1.903 2.972 2.914 2.44 1.965 2.975 2.916c.535.952.297 1.904-.654 3.153s-2.617 2.794-4.342 4.816-3.509 4.52-4.639 7.078-1.607 5.176-1.072 8.032 2.082 5.947 3.629 8.267c1.546 2.32 3.093 3.865 4.164 5.71 1.07 1.843 1.665 3.985 2.021 6.78 1.939 15.185-7.407 17.03-11.597 14.037-2.082-1.487-3.866-4.342-4.461-6.662s0-4.103.119-6.72-.238-6.067-1.19-8.684c-.951-2.617-2.498-4.403-5.234-7.377-23.131-25.02-21.813 3.865-20.531 24.553.081 8.056.081 12.766 1.848 17.56 1.766 4.795 5.3 9.675 7.656 14.05 5.338 10.303 5.688 22.174 8.748 33.224.336 4.626-.842 9.168-3.281 13.71-5.14 9.132-13.184 16.694-8.497 27.928 2.356 6.898 7.572 16.992 12.03 24.815s8.16 13.373 14.636 22.963c6.478 9.59 15.73 23.216 22.376 30.87 10.344 11.443 25.117 14.392 38.777 20.526 7.534 3.5 35.162 15.16 71.701 16.602a212.26 212.26 0 0 0 34.754-116.387A212.26 212.26 0 0 0 121.98 55.072c-7.392.54-13.812 2.16-18.248 5.537-5.413 3.026-29.4-23.042-44.609-11.836-2.26 1.666-2.5 3.57-3.332 4.164-.833.595-2.26-.12-3.746-1.369s-3.033-3.032-5.531-5.947-5.949-6.96-8.744-9.637C34.974 33.308 32.833 32 30.395 32" style="mix-blend-mode:multiply;fill:url(#W);stroke-width:4.62163;stroke-linecap:round;stroke-linejoin:round;paint-order:stroke fill markers"/><path d="M103.732 60.61c16.002-12.18 57.82-1.511 77.978.297 27.427.218 36.075 11.538 57.695 27.42 6.365 4.7 8.744 6.721 12.788 8.208s9.755 2.439 17.368 4.997c19.557 6.57 66.463 29.253 80.365 98.246 2.271 11.271 4.963 23.973 6.35 32.174 1.389 8.202 1.473 11.903.716 15.1s-2.356 5.887-3.996 7.78c-1.64 1.892-3.322 2.986-5.72 6.14-7.66 11.14-13.79 23.257-20.398 35.035-7.06 12.53-10.554 17.332-25.908 27.927-81.358 56.137-165.442 21.17-179.505 14.636-13.66-6.134-28.434-9.082-38.778-20.525-6.646-7.654-15.898-21.281-22.375-30.87s-10.178-15.141-14.637-22.964-9.673-17.917-12.028-24.815c-4.688-11.234 3.356-18.795 8.496-27.926 2.439-4.543 3.617-9.085 3.28-13.711-3.06-11.05-3.41-22.923-8.748-33.227-2.355-4.374-5.888-9.252-7.655-14.047-1.766-4.795-1.766-9.505-1.848-17.561-1.282-20.688-2.6-49.572 20.53-24.552 2.737 2.974 4.283 4.758 5.235 7.375.951 2.617 1.308 6.067 1.19 8.684-.12 2.617-.714 4.402-.12 6.721.595 2.32 2.38 5.175 4.461 6.662 4.19 2.993 13.537 1.147 11.599-14.037-.357-2.796-.952-4.937-2.022-6.78-1.071-1.845-2.617-3.391-4.164-5.71s-3.093-5.413-3.628-8.268-.06-5.473 1.07-8.03c1.13-2.558 2.915-5.056 4.64-7.078s3.39-3.569 4.342-4.818c.952-1.25 1.19-2.2.654-3.152s-1.844-1.904-2.974-2.915-2.082-2.082-2.974-2.914-1.725-1.428-3.51-.655c-1.784.774-4.52 2.915-6.931 3.841s-4.498.64-6.282-.788c-1.785-1.428-3.267-3.995-6.625-9.62-3.358-5.626-8.592-14.31-12.102-20.199-3.509-5.888-5.293-8.981-4.817-11.182.475-2.2 3.211-3.509 5.65-3.509s4.58 1.309 7.376 3.985c2.795 2.677 6.245 6.721 8.743 9.636s4.045 4.699 5.532 5.948 2.914 1.963 3.747 1.368 1.07-2.498 3.33-4.164c15.21-11.206 39.197 14.862 44.61 11.837" style="mix-blend-mode:multiply;fill:url(#X);fill-opacity:1;stroke-width:4;stroke-linecap:round;stroke-linejoin:round;paint-order:stroke fill markers"/><path d="M131.174 54.896c-5.899-.155-11.486.132-16.36 1.13a135 135 0 0 0-9.459 3.478q-.85.518-1.623 1.105c-.4.224-.902.288-1.494.221a134.8 134.8 0 0 0-31.226 19.207c.466.92.212 1.85-.707 3.057-.952 1.249-2.617 2.794-4.342 4.816s-3.509 4.52-4.639 7.078-1.607 5.176-1.072 8.032 2.082 5.947 3.629 8.267c1.546 2.32 3.093 3.865 4.164 5.71 1.07 1.843 1.665 3.985 2.021 6.78 1.939 15.185-7.407 17.03-11.597 14.037-2.082-1.487-3.866-4.342-4.461-6.662s0-4.103.119-6.72-.238-6.067-1.19-8.684c-.951-2.617-2.498-4.403-5.234-7.377a85 85 0 0 0-1.486-1.568 134.8 134.8 0 0 0-18.551 38.037c.262 1.996.68 3.814 1.354 5.644 1.766 4.795 5.3 9.675 7.656 14.05 5.338 10.303 5.688 22.174 8.748 33.224.336 4.626-.842 9.168-3.281 13.71-5.14 9.132-13.184 16.694-8.497 27.928l.026.075a134.77 134.77 0 0 0 122.904 79.468A134.774 134.774 0 0 0 291.35 184.166a134.77 134.77 0 0 0-30.3-85.143c-3.553-.932-6.49-1.618-8.857-2.488-4.044-1.487-6.424-3.508-12.789-8.207-21.62-15.882-30.266-27.203-57.693-27.422-12.354-1.108-32.842-5.544-50.537-6.01" style="mix-blend-mode:overlay;fill:url(#Y);stroke:none;stroke-width:4;stroke-linecap:round;stroke-linejoin:round;stroke-opacity:1;paint-order:stroke fill markers"/><path d="M237.68 101.948c104.415 31.667 135.305 137.815 55.435 205.204C220.412 368.495 56.294 335.84 60.61 200.208c.416-13.086 2.557-25.814 6.9-37.413 19.234-51.379 87.817-85.823 170.17-60.847" style="fill:#ff9f20;fill-opacity:1;stroke-width:4;stroke-linecap:round;stroke-linejoin:round;paint-order:stroke fill markers"/><path d="M30.395 32c-2.44 0-5.175 1.309-5.65 3.51-.477 2.2 1.306 5.293 4.816 11.181 3.509 5.889 8.743 14.572 12.101 20.198 3.358 5.625 4.84 8.193 6.625 9.62 1.785 1.428 3.872 1.717 6.283.79s5.148-3.069 6.932-3.842 2.618-.178 3.51.654 1.842 1.903 2.972 2.914 2.44 1.965 2.975 2.916c.535.952.297 1.904-.654 3.153s-2.617 2.794-4.342 4.816-3.509 4.52-4.639 7.078-1.607 5.176-1.072 8.032 2.082 5.947 3.629 8.267c1.546 2.32 3.093 3.865 4.164 5.71 1.07 1.843 1.665 3.985 2.021 6.78 1.939 15.185-7.407 17.03-11.597 14.037-2.082-1.487-3.866-4.342-4.461-6.662s0-4.103.119-6.72-.238-6.067-1.19-8.684c-.951-2.617-2.498-4.403-5.234-7.377-23.131-25.02-21.813 3.865-20.531 24.553.046 4.59.067 8.092.402 11.144a216.47 216.47 0 0 0 165.405 76.827 216.47 216.47 0 0 0 145.572-56.258c-19.695-42.046-53.227-57.81-68.99-63.106-7.614-2.557-13.323-3.509-17.368-4.996s-6.424-3.508-12.789-8.207c-21.62-15.882-30.266-27.203-57.693-27.422-20.159-1.808-61.977-12.477-77.979-.297-5.413 3.026-29.4-23.042-44.609-11.836-2.26 1.666-2.5 3.57-3.332 4.164-.833.595-2.26-.12-3.746-1.369s-3.033-3.032-5.531-5.947-5.949-6.96-8.744-9.637C34.974 33.308 32.833 32 30.395 32" style="mix-blend-mode:overlay;fill:url(#Z);stroke-width:4.53875;stroke-linecap:round;stroke-linejoin:round;paint-order:stroke fill markers"/><path d="M237.68 101.948c104.415 31.667 135.305 137.815 55.435 205.204C220.412 368.495 56.294 335.84 60.61 200.208c.416-13.086 2.557-25.814 6.9-37.413 19.234-51.379 87.817-85.823 170.17-60.847" style="mix-blend-mode:multiply;fill:url(#aa);fill-opacity:1;stroke-width:4;stroke-linecap:round;stroke-linejoin:round;paint-order:stroke fill markers"/><path d="M30.395 32c-2.44 0-5.175 1.309-5.65 3.51-.477 2.2 1.306 5.293 4.816 11.181 3.509 5.889 8.743 14.572 12.101 20.198 3.358 5.625 4.84 8.193 6.625 9.62 1.785 1.428 3.872 1.717 6.283.79s5.148-3.069 6.932-3.842 2.618-.178 3.51.654 1.842 1.903 2.972 2.914 2.44 1.965 2.975 2.916c.535.952.297 1.904-.654 3.153s-2.617 2.794-4.342 4.816-3.509 4.52-4.639 7.078-1.607 5.176-1.072 8.032 2.082 5.947 3.629 8.267c1.546 2.32 3.093 3.865 4.164 5.71 1.07 1.843 1.665 3.985 2.021 6.78 1.939 15.185-7.407 17.03-11.597 14.037-2.082-1.487-3.866-4.342-4.461-6.662s0-4.103.119-6.72-.238-6.067-1.19-8.684c-.951-2.617-2.498-4.403-5.234-7.377-23.131-25.02-21.813 3.865-20.531 24.553.081 8.056.081 12.766 1.848 17.56 1.418 3.851 3.978 7.756 6.15 11.41a251.24 251.24 0 0 0 175.2-94.466c-7.668-4.046-16.238-6.423-28.66-6.522-20.158-1.808-61.976-12.477-77.978-.297-5.413 3.026-29.4-23.042-44.609-11.836-2.26 1.666-2.5 3.57-3.332 4.164-.833.595-2.26-.12-3.746-1.369s-3.033-3.032-5.531-5.947-5.949-6.96-8.744-9.637C34.974 33.308 32.833 32 30.395 32" style="mix-blend-mode:multiply;fill:url(#ab);stroke-width:4;stroke-linecap:round;stroke-linejoin:round;paint-order:stroke fill markers"/><path d="M237.68 101.948c104.415 31.667 135.305 137.815 55.435 205.204C220.412 368.495 56.294 335.84 60.61 200.208c.416-13.086 2.557-25.814 6.9-37.413 19.234-51.379 87.817-85.823 170.17-60.847" style="mix-blend-mode:multiply;fill:url(#ac);fill-opacity:1;stroke-width:4;stroke-linecap:round;stroke-linejoin:round;paint-order:stroke fill markers"/><path d="M179.053 93.693c-54.934 1.56-97.117 30.567-111.543 69.102a102 102 0 0 0-3.912 13.174 207.94 207.94 0 0 0 146.357 60.23 207.94 207.94 0 0 0 125.34-42.02c-9.845-40.15-44.06-75.99-97.615-92.232-20.589-6.244-40.316-8.773-58.627-8.254" style="fill:url(#ad);stroke-width:4;stroke-linecap:round;stroke-linejoin:round;paint-order:stroke fill markers"/><path d="M230.176 169.459a219.92 219.92 0 0 0-164.6 74.074c27.808 98.653 163.328 117.798 227.54 63.62 38.113-32.159 51.004-73.142 42.72-110.647a219.9 219.9 0 0 0-105.66-27.047" style="mix-blend-mode:multiply;fill:url(#ae);stroke-width:5.08985;stroke-linecap:round;stroke-linejoin:round;paint-order:stroke fill markers"/><circle cx="255.275" cy="251.402" r="91.516" style="mix-blend-mode:overlay;fill:url(#af);stroke:none;stroke-width:3.0507;stroke-linecap:round;stroke-linejoin:round;stroke-opacity:1;paint-order:stroke fill markers"/><path d="M68.541 45.967c-2.032-.064-4.017.203-5.91.904a174 174 0 0 0 6.922 31.508c.595.527 1.115 1.045 1.406 1.562.412.733.366 1.464-.111 2.332a173.78 173.78 0 0 0 164.244 117.004 173.78 173.78 0 0 0 103.629-34.279c-19.672-42.317-53.352-58.156-69.16-63.467-7.614-2.557-13.323-3.509-17.368-4.996s-6.424-3.508-12.789-8.207c-21.62-15.882-30.266-27.203-57.693-27.422-20.159-1.808-61.977-12.477-77.979-.297-4.386 2.452-20.966-14.198-35.191-14.642" style="mix-blend-mode:overlay;fill:url(#ag);stroke-width:4;stroke-linecap:round;stroke-linejoin:round;paint-order:stroke fill markers"/><path d="M360.94 388.504c-.265-.628-.628-1.288-.446-1.503.181-.215.908.017 1.998 1.47s2.544 4.13 3.072 6.177c.529 2.048.132 3.469-.43 4.476-.56 1.008-1.287 1.602-1.783 2.23-.495.627-.76 1.288-1.928 3.587-1.168 2.298-3.24 6.235-5.42 9.628-2.181 3.393-4.47 6.243-6.876 8.111a16.1 16.1 0 0 1-6.984 3.13c-11.035 1.285-16.263-11.802-20.952-19.527-1.518-2.522-2.64-4.625-3.55-5.746-.911-1.12-1.612-1.261-2.453-2.079-.84-.817-1.822-2.312-2.242-3.83s-.28-3.06.187-3.76c.467-.702 1.261-.561 1.915-.281s1.168.7 1.845 1.658c4.594 10.039 51.018 15.607 44.047-3.74" style="fill:url(#ah);stroke:none;stroke-width:4;stroke-linecap:round;stroke-linejoin:round;stroke-opacity:1;paint-order:stroke fill markers" transform="rotate(-4.034 -1590.08 1446.21)"/><path d="M329.406 419.571c3.252 4.001 7.285 6.873 12.736 6.239a16.1 16.1 0 0 0 6.984-3.13c1.369-1.062 2.7-2.443 3.995-4.06-.313-.372-.626-.727-.934-1.078-8.858-9.89-15.303-5.085-22.781 2.03" style="fill:#7d1623;fill-opacity:1;stroke:none;stroke-width:4;stroke-linecap:round;stroke-linejoin:round;stroke-opacity:1;paint-order:stroke fill markers" transform="rotate(-4.034 -1590.08 1446.21)"/><path d="M329.406 419.571c3.252 4.001 7.285 6.873 12.736 6.239a16.1 16.1 0 0 0 6.984-3.13c1.369-1.062 2.7-2.443 3.995-4.06-.313-.372-.626-.727-.934-1.078-8.858-9.89-15.303-5.085-22.781 2.03" style="fill:#7d1623;fill-opacity:1;stroke:none;stroke-width:4;stroke-linecap:round;stroke-linejoin:round;stroke-opacity:1;paint-order:stroke fill markers" transform="rotate(-4.034 -1590.08 1446.21)"/><path d="M342.355 411.935c-4.433.003-8.509 3.412-12.95 7.636.544.669 1.11 1.306 1.7 1.9a31.1 31.1 0 0 0 9.244 1.405 31.1 31.1 0 0 0 10.674-1.889c.71-.714 1.41-1.507 2.098-2.367-.313-.372-.626-.727-.934-1.078-3.598-4.017-6.799-5.61-9.832-5.607" style="fill:url(#ai);stroke:none;stroke-width:4;stroke-linecap:round;stroke-linejoin:round;stroke-opacity:1;paint-order:stroke fill markers" transform="rotate(-4.034 -1590.08 1446.21)"/><path d="M338.171 414.272a19 19 0 0 0-2.734.196c-1.98 1.351-3.966 3.139-6.031 5.103 3.252 4.001 7.285 6.873 12.736 6.239a16.1 16.1 0 0 0 6.984-3.13c.944-.733 1.871-1.617 2.78-2.626a19.2 19.2 0 0 0-13.735-5.782" style="mix-blend-mode:multiply;fill:url(#aj);stroke:none;stroke-width:4;stroke-linecap:round;stroke-linejoin:round;stroke-opacity:1;paint-order:stroke fill markers" transform="rotate(-4.034 -1590.08 1446.21)"/><path d="M360.69 386.932c-.09-.004-.157.022-.197.069-.182.214.182.876.446 1.504 6.971 19.348-39.453 13.78-44.046 3.74-.677-.957-1.19-1.378-1.845-1.659-.654-.28-1.448-.42-1.915.28-.467.701-.607 2.244-.187 3.762s1.401 3.012 2.242 3.83c.841.817 1.543.958 2.454 2.08.91 1.12 2.031 3.223 3.55 5.746.865 1.425 1.748 3.032 2.683 4.698 5.275.583 11.233.018 15.665.018 5.418 0 13.185-.901 20.276-2.983.63-1.174 1.18-2.235 1.607-3.076 1.168-2.3 1.433-2.959 1.929-3.587.495-.627 1.22-1.222 1.782-2.23.562-1.007.96-2.428.431-4.476s-1.983-4.723-3.073-6.177c-.852-1.135-1.48-1.525-1.802-1.539" style="mix-blend-mode:multiply;fill:url(#ak);stroke:none;stroke-width:5.17038;stroke-linecap:round;stroke-linejoin:round;stroke-opacity:1;paint-order:stroke fill markers" transform="rotate(-4.034 -1590.08 1446.21)"/><path d="M342.307 411.934c-3.918.024-7.558 2.706-11.42 6.252a17.24 17.24 0 0 0 10.789 3.794 17.24 17.24 0 0 0 10.957-3.93q-.225-.256-.445-.509c-3.618-4.039-6.834-5.626-9.881-5.607" style="fill:url(#al);stroke:none;stroke-width:4;stroke-linecap:round;stroke-linejoin:round;stroke-opacity:1;paint-order:stroke fill markers" transform="rotate(-4.034 -1590.08 1446.21)"/><path d="M273.73 227.374c25.235-43.03 61.503-123.523 65.236-134.971 2.758 24.113 4.097 62.58.211 95.517s-12.996 60.343-31.136 62.334c-20.735 2.276-30.96-7.562-36.064-8.782-2.15-.514-2.803.794-5.606 4.951-21.261 31.538-46.498 43.146-68.27 46.175-81.18 9.306-102.235-64.14-124.642-128.053 0 0 7.265 2.696 18.384 7.274 58.54 20.281 157.84 63.263 175.291 62.15 2.609-.165 3.399-1.026 6.597-6.595" style="fill:url(#am);fill-opacity:1;stroke-width:4;stroke-linecap:round;stroke-linejoin:round;paint-order:stroke fill markers"/><path d="M313.27 150.465c-12.46 26.347-27.298 56.035-39.54 76.908-3.197 5.57-3.987 6.432-6.595 6.598-17.451 1.112-116.752-41.871-175.293-62.153-11.119-4.578-18.383-7.273-18.383-7.273 22.407 63.912 43.463 137.36 124.643 128.053 21.772-3.03 47.008-14.637 68.27-46.174 2.802-4.158 3.456-5.467 5.605-4.953 5.104 1.22 15.33 11.059 36.064 8.783 15.35-1.685 24.235-21.569 28.959-47.602-2.926-18.555-10.996-36.433-23.73-52.187" style="mix-blend-mode:normal;fill:url(#an);fill-opacity:1;stroke-width:4;stroke-linecap:round;stroke-linejoin:round;paint-order:stroke fill markers"/><path d="M143.777 191.13c-16.441 9.816-33.443 18.657-50.242 27.839 5.011 11.683 10.593 22.778 17.158 32.662 18.395-11.289 41.584-25.119 74.346-44.506-13.5-5.212-27.542-10.7-41.262-15.994" style="fill:url(#ao);fill-opacity:1;stroke-width:4;stroke-linecap:round;stroke-linejoin:round;paint-order:stroke fill markers"/><path d="M338.967 92.402c-2.091 6.412-14.388 34.483-29.237 65.5a121.3 121.3 0 0 0 31.44 4.608c1.135-25.85-.135-52.019-2.203-70.108" style="mix-blend-mode:multiply;fill:url(#ap);stroke:none;stroke-width:4;stroke-linecap:round;stroke-linejoin:round;stroke-opacity:1;paint-order:stroke fill markers"/><path d="M320.084 135.887c-2.163 4.683-4.446 9.57-6.814 14.578 12.734 15.754 20.804 33.634 23.73 52.19.859-4.733 1.58-9.668 2.178-14.735.7-5.94 1.23-12.058 1.613-18.24-5.765-13.7-12.982-24.807-20.707-33.793" style="mix-blend-mode:normal;fill:#3a2604;fill-opacity:1;stroke-width:4;stroke-linecap:round;stroke-linejoin:round;paint-order:stroke fill markers"/><path d="M102.193 196.69a96 96 0 0 0-16.873 1.496c19.662 53.263 45.685 102.104 112.782 94.412a95.91 95.91 0 0 0-95.909-95.909" style="mix-blend-mode:multiply;fill:url(#aq);stroke-width:4.53265;stroke-linecap:round;stroke-linejoin:round;paint-order:stroke fill markers"/><path d="M299.68 136.09a232.08 232.08 0 0 0-146.608 193.15c48.488 15.24 104.928 7.54 140.043-22.088 60.685-51.202 57.43-124.78 6.565-171.062" style="mix-blend-mode:multiply;fill:url(#ar);stroke-width:4;stroke-linecap:round;stroke-linejoin:round;paint-order:stroke fill markers"/><path d="M125.154 54.906c-2.694.088-5.286.298-7.73.66a130.24 130.24 0 0 0 117.793 74.674 130.24 130.24 0 0 0 61.28-15.316c-10.553-7.094-20.313-11.168-26.936-13.393-7.614-2.557-13.323-3.509-17.368-4.996s-6.424-3.508-12.789-8.207c-21.62-15.882-30.266-27.203-57.693-27.422-13.785-1.236-37.697-6.616-56.557-6" style="mix-blend-mode:overlay;fill:url(#as);stroke-width:4;stroke-linecap:round;stroke-linejoin:round;paint-order:stroke fill markers"/><path d="M65.576 243.533a108.6 108.6 0 0 0-28.652 3.848c2.558 5.555 5.819 11.684 8.752 16.83 4.458 7.823 8.16 13.373 14.636 22.963 6.478 9.59 15.73 23.216 22.376 30.87 10.344 11.443 25.117 14.392 38.777 20.526 6.163 2.864 25.776 11.189 52.715 14.912a109 109 0 0 0 .008-1.337A108.61 108.61 0 0 0 65.576 243.533" style="mix-blend-mode:overlay;fill:url(#at);stroke-width:4;stroke-linecap:round;stroke-linejoin:round;paint-order:stroke fill markers"/><path d="M26.59 119.623c.053 4.42.317 9.034.582 13.3.081 8.057.081 12.767 1.848 17.561 1.766 4.795 5.3 9.675 7.656 14.05 5.338 10.303 5.688 22.174 8.748 33.224.336 4.626-.842 9.168-3.281 13.71-5.14 9.132-13.184 16.694-8.497 27.928 2.356 6.898 7.572 16.992 12.03 24.815s8.16 13.373 14.636 22.963c6.478 9.59 15.73 23.216 22.376 30.87 9.156 10.13 21.781 13.602 34.035 18.52a195.8 195.8 0 0 0 6.07-48.37A195.79 195.79 0 0 0 26.59 119.622" style="mix-blend-mode:overlay;fill:url(#au);stroke-width:6.27778;stroke-linecap:round;stroke-linejoin:round;paint-order:stroke fill markers"/><path d="M235.16 259.025c-.386.014-.742.167-.976.579-.417.731-.448 2.28.078 3.765s1.61 2.906 2.506 3.662c.896.757 1.604.848 2.591 1.903.804.857 1.792 2.353 3.043 4.177 2.418-1.957 4.82-4.089 7.201-6.406-5.628-1.265-10.133-3.353-11.572-5.99-.743-.908-1.285-1.292-1.957-1.526-.294-.102-.613-.174-.914-.164" style="mix-blend-mode:normal;fill:#1f1006;fill-opacity:1;stroke-width:4;stroke-linecap:round;stroke-linejoin:round;paint-order:stroke fill markers"/><path d="M184.36 242.463c-8.535.726-13.782 3.913-16.327 7.14-2.601 3.297-2.337 6.578.097 7.19 1.751.44 4.565-.853 8.19-1.983 4.698-1.464 15.512-2.374 24.064 1.634 1.911.896 4.859 3.531 6.977 2.722 2.354-.9 1.82-5.793-4.402-10.757-4.537-3.62-11.359-6.561-18.599-5.946" style="fill:url(#av);stroke:none;stroke-width:3.84475;stroke-dasharray:none;stroke-opacity:1"/><path d="M307.831 209.884c5.428-3.223 9.938-3.56 12.846-2.717 2.973.862 4.22 2.943 3.024 4.352-.861 1.015-3.102 1.445-5.76 2.321-3.443 1.135-10.315 5.224-13.724 11.291-.762 1.356-1.4 4.2-3.016 4.622-1.797.47-3.574-2.693-1.97-8.335 1.168-4.113 3.996-8.8 8.6-11.534" style="fill:url(#aw);stroke:none;stroke-width:2.83302;stroke-dasharray:none;stroke-opacity:1"/><path d="M43.61 189.83c.52 2.668 1.092 5.32 1.814 7.928.336 4.626-.842 9.168-3.281 13.71-5.14 9.132-13.184 16.694-8.497 27.928 2.356 6.898 7.572 16.992 12.03 24.815s8.16 13.373 14.636 22.963c6.478 9.59 15.73 23.216 22.376 30.87 10.344 11.443 25.117 14.392 38.777 20.526 6.263 2.91 26.417 11.46 54.033 15.09A206.12 206.12 0 0 0 43.609 189.83" style="mix-blend-mode:multiply;fill:url(#ax);stroke:none;stroke-width:5.62162;stroke-linecap:round;stroke-linejoin:round;stroke-opacity:1;paint-order:stroke fill markers"/><path d="M313.27 150.465c-12.46 26.347-27.298 56.035-39.54 76.908-3.197 5.57-3.987 6.432-6.595 6.598-12.612.803-67.975-21.424-119.807-41.47a87.97 87.97 0 0 0 86.393 71.386 88 88 0 0 0 21.056-2.559c3.962-4.388 7.84-9.335 11.594-14.904 2.803-4.158 3.457-5.467 5.606-4.953 2.66.636 6.712 3.615 12.92 5.998a87.97 87.97 0 0 0 36.794-71.553 88 88 0 0 0-1.453-15.92 121 121 0 0 0-6.968-9.531" style="mix-blend-mode:multiply;fill:url(#ay);stroke:none;stroke-width:5.48215;stroke-linecap:round;stroke-linejoin:round;stroke-opacity:1;paint-order:stroke fill markers"/><path d="M228.158 234.324a96.98 96.98 0 0 0-84.414 49.237c14.463 7.94 32.163 11.581 54.358 9.037 21.772-3.03 47.008-14.637 68.27-46.174.94-1.396 1.64-2.47 2.233-3.262a97 97 0 0 0-40.447-8.838" style="fill:url(#az);stroke:none;stroke-width:5.81513;stroke-linecap:round;stroke-linejoin:round;stroke-opacity:1;paint-order:stroke fill markers"/><path d="M325.36 205.553a62.225 62.225 0 0 0-57.721 38.984c1.803-2.665 2.556-3.492 4.338-3.066 5.104 1.22 15.33 11.059 36.064 8.783 14.582-1.6 23.328-19.623 28.217-43.738a62 62 0 0 0-10.899-.963" style="fill:url(#aA);stroke:none;stroke-width:4;stroke-linecap:round;stroke-linejoin:round;stroke-opacity:1;paint-order:stroke fill markers"/><path d="M179.502 93.682c-30.308.776-56.757 9.9-76.836 24.377a155.84 155.84 0 0 0 151.84 120.75 155.84 155.84 0 0 0 83.654-24.356c-1.889-47.993-38.038-93.568-100.48-112.506-20.42-6.193-39.994-8.731-58.178-8.265" style="mix-blend-mode:overlay;fill:url(#aB);stroke:none;stroke-width:4;stroke-linecap:round;stroke-linejoin:round;stroke-opacity:1;paint-order:stroke fill markers"/><path d="M248.936 209.295A187.1 187.1 0 0 0 80.35 315.246c.806 1 1.59 1.937 2.338 2.799 10.344 11.442 25.117 14.39 38.777 20.525 14.063 6.535 98.148 41.5 179.506-14.636 15.354-10.595 18.846-15.395 25.906-27.926 6.608-11.778 12.738-23.896 20.398-35.035 2.398-3.155 4.08-4.248 5.721-6.141 1.64-1.893 3.24-4.585 3.996-7.781a17.4 17.4 0 0 0 .44-3.084 187.1 187.1 0 0 0-108.496-34.672" style="mix-blend-mode:multiply;fill:url(#aC);stroke:none;stroke-width:4;stroke-linecap:round;stroke-linejoin:round;stroke-opacity:1;paint-order:stroke fill markers"/><path d="M67.887 45.957c-.958.004-1.905.085-2.834.254a190 190 0 0 0-.026 3.121 189.5 189.5 0 0 0 1.889 26.68c.34.337.694.678 1.068 1.013 1.13 1.012 2.44 1.965 2.975 2.916.535.952.297 1.904-.654 3.153-.47.617-1.114 1.306-1.854 2.09a189.48 189.48 0 0 0 186.055 153.625 189.5 189.5 0 0 0 97.828-27.207c-.806-3.95-1.632-7.972-2.408-11.825-13.902-68.993-60.808-91.676-80.365-98.246-7.614-2.557-13.323-3.509-17.368-4.996s-6.424-3.508-12.789-8.207c-21.62-15.882-30.266-27.203-57.693-27.422-20.159-1.808-61.977-12.477-77.979-.297-4.454 2.49-21.48-14.715-35.845-14.652" style="mix-blend-mode:overlay;fill:url(#aD);stroke:none;stroke-width:4.56757;stroke-linecap:round;stroke-linejoin:round;stroke-opacity:1;paint-order:stroke fill markers"/><path d="M235.457 251.313a197.421 182.34 0 0 0-134.523 48.884c52.472 46.942 143.131 48.341 192.181 6.955 13.332-11.249 23.577-23.576 30.91-36.459a197.421 182.34 0 0 0-88.568-19.38" style="mix-blend-mode:multiply;fill:url(#aE);stroke:none;stroke-width:6.91729;stroke-linecap:round;stroke-linejoin:round;stroke-opacity:1;paint-order:stroke fill markers"/><path d="M73.459 164.545c17.049 48.628 33.316 102.775 75.877 121.793a80.72 80.72 0 0 0 15.476-47.53 80.72 80.72 0 0 0-13.566-44.788c-21.251-8.234-42.107-16.21-59.404-22.202-11.119-4.578-18.383-7.273-18.383-7.273" style="mix-blend-mode:overlay;fill:url(#aF);stroke:none;stroke-width:4;stroke-linecap:round;stroke-linejoin:round;stroke-opacity:1;paint-order:stroke fill markers"/><path d="M43.654 42.305a131 131 0 0 0-.05 3.677 130.8 130.8 0 0 0 3.279 29.106c.474.58.928 1.04 1.404 1.422 1.785 1.427 3.872 1.716 6.283.789s5.148-3.069 6.932-3.842 2.618-.178 3.51.654 1.842 1.903 2.972 2.914 2.44 1.965 2.975 2.916c.535.952.297 1.904-.654 3.153s-2.617 2.794-4.342 4.816-3.509 4.52-4.639 7.078-1.607 5.176-1.072 8.032 2.082 5.947 3.629 8.267c1.546 2.32 3.093 3.865 4.164 5.71 1.07 1.843 1.665 3.985 2.021 6.78q.085.654.141 1.276a130.81 130.81 0 0 0 104.205 51.738 130.81 130.81 0 0 0 114.078-66.797c-7.395-4.153-14.024-6.815-18.93-8.463-7.613-2.557-13.322-3.509-17.367-4.996-4.044-1.487-6.424-3.508-12.789-8.207-21.62-15.882-30.266-27.203-57.693-27.422-20.159-1.808-61.977-12.477-77.979-.297-5.413 3.026-29.4-23.042-44.609-11.836-2.26 1.666-2.5 3.57-3.332 4.164-.833.595-2.26-.12-3.746-1.369s-3.033-3.032-5.531-5.947c-.862-1.005-1.838-2.145-2.86-3.316" style="mix-blend-mode:overlay;fill:url(#aG);stroke:none;stroke-width:4;stroke-linecap:round;stroke-linejoin:round;stroke-opacity:1;paint-order:stroke fill markers"/><path d="M324.578 269.713a119.72 119.72 0 0 0-102.476 66.103c26.82-3.04 52.032-12.648 71.013-28.664 13.67-11.533 24.096-24.203 31.463-37.44" style="fill:url(#aH);stroke:none;stroke-width:4.31427;stroke-linecap:round;stroke-linejoin:round;stroke-opacity:1;paint-order:stroke fill markers"/><path d="M315.096 269.713a92.993 92.993 0 0 0-92.586 84.285c24.73-3.018 51.743-11.629 78.46-30.064 15.355-10.595 18.847-15.395 25.907-27.926 4.286-7.64 8.371-15.422 12.803-22.987a93 93 0 0 0-24.584-3.308" style="mix-blend-mode:multiply;fill:url(#aI);stroke:none;stroke-width:4;stroke-linecap:round;stroke-linejoin:round;stroke-opacity:1;paint-order:stroke fill markers"/><path d="M103.732 60.61c16.002-12.18 57.82-1.511 77.978.297 27.427.218 36.075 11.538 57.695 27.42 6.365 4.7 8.744 6.721 12.788 8.208s9.755 2.439 17.368 4.997c19.557 6.57 66.463 29.253 80.365 98.246 2.271 11.271 4.963 23.973 6.35 32.174 1.389 8.202 1.473 11.903.716 15.1s-2.356 5.887-3.996 7.78c-1.64 1.892-3.322 2.986-5.72 6.14-7.66 11.14-13.79 23.257-20.398 35.035-7.06 12.53-10.554 17.332-25.908 27.927-81.358 56.137-165.442 21.17-179.505 14.636-13.66-6.134-28.434-9.082-38.778-20.525-6.646-7.654-15.898-21.281-22.375-30.87s-10.178-15.141-14.637-22.964-9.673-17.917-12.028-24.815c-4.688-11.234 3.356-18.795 8.496-27.926 2.439-4.543 3.617-9.085 3.28-13.711-3.06-11.05-3.41-22.923-8.748-33.227-2.355-4.374-5.888-9.252-7.655-14.047-1.766-4.795-1.766-9.505-1.848-17.561-1.282-20.688-2.6-49.572 20.53-24.552 2.737 2.974 4.283 4.758 5.235 7.375.951 2.617 1.308 6.067 1.19 8.684-.12 2.617-.714 4.402-.12 6.721.595 2.32 2.38 5.175 4.461 6.662 4.19 2.993 13.537 1.147 11.599-14.037-.357-2.796-.952-4.937-2.022-6.78-1.071-1.845-2.617-3.391-4.164-5.71s-3.093-5.413-3.628-8.268-.06-5.473 1.07-8.03c1.13-2.558 2.915-5.056 4.64-7.078s3.39-3.569 4.342-4.818c.952-1.25 1.19-2.2.654-3.152s-1.844-1.904-2.974-2.915-2.082-2.082-2.974-2.914-1.725-1.428-3.51-.655c-1.784.774-4.52 2.915-6.931 3.841s-4.498.64-6.282-.788c-1.785-1.428-3.267-3.995-6.625-9.62-3.358-5.626-8.592-14.31-12.102-20.199-3.509-5.888-5.293-8.981-4.817-11.182.475-2.2 3.211-3.509 5.65-3.509s4.58 1.309 7.376 3.985c2.795 2.677 6.245 6.721 8.743 9.636s4.045 4.699 5.532 5.948 2.914 1.963 3.747 1.368 1.07-2.498 3.33-4.164c15.21-11.206 39.197 14.862 44.61 11.837" style="mix-blend-mode:multiply;fill:url(#aJ);fill-opacity:1;stroke-width:4;stroke-linecap:round;stroke-linejoin:round;paint-order:stroke fill markers"/><path d="M178.496 93.71c-54.662 1.74-96.61 30.68-110.986 69.085-4.342 11.599-6.484 24.328-6.9 37.414-.25 7.846.065 15.346.892 22.504A169 169 0 0 0 178.496 93.71" style="mix-blend-mode:multiply;fill:url(#aK);stroke:none;stroke-width:4;stroke-linecap:round;stroke-linejoin:round;stroke-opacity:1;paint-order:stroke fill markers"/></g><path d="M416.316 813.868c228.466 78.137 418.669-139.35 383.308-365.713-5.027-30.162-11.31-52.783-17.595-75.405 15.081-8.797 30.162-17.594 57.183-31.419 27.02-13.824 65.978-32.675 98.026-66.607 16.023-16.967 30.319-37.703 42.022-61.66 159.145-325.767-460.276-478.43-722.552-361.86C41.803-53.282-117.801 225.71-191.32 407.311s-60.952 265.8-32.047 348.118c142.197 404.95 490.267 357.271 639.683 58.438" style="fill:url(#aL);stroke-width:.754858;stroke-linecap:round;stroke-linejoin:round" transform="rotate(14.198 1228.231 -312.229)scale(.75949)"/><path d="M107.535 1048.354c118.878-4.968 236.85-90.623 308.782-234.487 228.466 78.138 418.668-139.35 383.307-365.713-5.027-30.162-11.312-52.783-17.596-75.404 15.081-8.798 30.164-17.594 57.185-31.419 27.02-13.824 65.978-32.674 98.025-66.607 16.024-16.966 30.32-37.703 42.023-61.66 50.802-103.99 22.267-190.34-48.66-255.926 48.728 60.831 62.885 136.31 19.794 224.516-11.67 23.887-25.923 44.561-41.9 61.478-31.953 33.833-70.798 52.63-97.74 66.413-26.94 13.784-41.977 22.555-57.014 31.326 6.265 22.555 12.53 45.11 17.542 75.184 35.258 225.7-154.387 442.55-382.184 364.642-121.114 242.23-373.136 318.955-539.352 122.24 72.32 104.334 165.328 149.281 257.788 145.417" style="fill:url(#aM);fill-opacity:1;stroke-width:.754858;stroke-linecap:round;stroke-linejoin:round" transform="rotate(14.198 1228.231 -312.229)scale(.75949)"/><path d="M971.525 319.07q2.867 4.747 3.822 12.708.374 2.795.618 7.113.16 4.107-.02 8.594t-.657 8.846q-.348 4.063-1.201 6.854-1.28 4.188-5.06 8.878-2.928 3.126-5.09 4.475l-3.602 1.43q-2.118.842-5.465 1.68l-10.082 3.024-15.544 3.477q-11.479 2.597-22.704 5.83-11.099 2.936-21.904 7.228-4.66 1.85-4.324 2.698.168.424 2.832 1.574 2.624.43 4.647 4.286.757 1.907 1.175 4.194.63 2.203.496 4.954.118 3.387.658 7.833.456 4.234 1.036 9.4l1.329 10.756q.664 5.378 1.285 11.263.833 5.802 1.497 11.18l1.329 10.755q.876 5.294 1.332 9.528.667 4.15 1.21 7.37l-.424.167 1.041 6.945q2.339 13.298 5.145 25.92 3.017 12.538 6.375 24.695 7.054 23.935 15.391 42.454 2.316 5.213 4.507 9.493t4.85 7.886q2.573 3.393 6.079 6.66 3.422 3.057 8.367 6.244 3.552 1.532 5.369 3.018 2.66 2.377 2.83 2.801.925 2.33-2.642 6.936-4.966 5.407-11.96 9.411-6.783 3.921-13.563 6.614-6.568 2.609-13.64 3.946-6.989 1.55-14.143 1.448-6.858.026-13.541-1.98-6.6-1.794-12.685-6-15.13-10.915-32.407-43.299-1.855-3.433-3.373-6.019-1.39-2.882-2.315-5.212-1.138-2.247-1.98-4.365l-1.767-4.45-1.851-4.66q-1.01-2.543-1.892-5.381-7.069-17.797-12.144-37.367-4.948-19.865-8.966-38.628-1.759-8.132-3.433-16.052-1.758-8.132-3.348-15.84-1.674-7.92-3.056-14.486-1.253-6.86-2.086-12.662-7.038 4.512-12.761 8.012t-9.964 6.41q-4.324 2.7-8.225 5.23t-7.717 5.273q-3.604 2.658-5.894 4.304-2.163 1.35-3.138 1.982-3.689 2.446-4.327 3.926-3.053 2.194-6.275 3.965-1.526 1.097-2.798 1.601l-2.118.842q-5.72 2.272-11.223 2.005t-10.663-2.142q-5.032-2.171-9.553-5.527-4.394-3.65-7.897-8.146-6.878-9.288-9.263-20.85-.203-3.599-.83-7.03-.499-3.726-.702-7.325 4.871-18.614 15.57-31.203 10.613-12.801 25.795-23.983 19.338-14.304 47.06-29.73l19.155-8.59q9.578-4.295 19.323-8.166t19.66-7.319l19.828-6.895q6.185-1.72 16.52-4.108 10.334-2.389 22.49-4.518 12.365-2.214 25.28-3.665 12.915-1.45 24.132-1 11.429.366 19.973 3.35 8.672 2.688 12.212 9.131zm-213.607 69.883q2.37-.206 1.866-1.477-.293-1.355-2.07-2.121-1.987-.682-7.284 1.421-9.705 4.591-20.136 11.678-10.219 7.003-18.238 14.603-8.06 6.88-9.723 11.957-1.663 5.075 2.354 7.16 1.944 1.19 4.234-.456 2.078-1.561 10.016-10.601 2.121-2.07 4.37-4.435 2.166-2.577 4.543-5.238 4.542-5.238 8.147-7.896 5.302-4.56 12.68-9.452 7.038-4.513 9.24-5.143m389.081 55.955q.84 2.373 1.91 6.57 1.291 4.141 2.924 10.548.958 3.755 1.638 7.346.844 3.313 1.355 6.241 1.317 9.78.641 19.128-.732 9.126-2.291 18.698-1.629 6.532-3.534 12.9-1.906 6.367-5.64 12.023-10.478 17.963-24.529 28.367-5.678 3.565-12.193 5.696-6.293 2.074-12.7 3.707-5.964 1.52-11.1 2.595-4.973.797-8.954.87-5.47.689-12.99.724-7.298-.022-14.987-.65-7.744-.849-14.938-2.309-7.251-1.68-12.35-4.145-14.847-6.566-24.342-15.203t-16.472-23.091q-3.184-6.952-5.757-13.354-2.352-6.458-3.872-12.422-5.574-21.87-.368-43.9.806-5.145 2.274-10.46 1.633-5.591 3.99-10.191.822-1.386 1.589-2.993.931-1.884 2.027-4.046 7.238-13.137 17.53-23.524 10.29-10.386 23.81-16.42 1.93-.728 5.245-1.572 3.478-1.122 8.337-2.36 6.905-1.526 12.375-2.214 5.692-.745 10.89-.659 5.362-.19 10.95.503 5.53.472 12.448 1.767l-.113-.442q27.006 5.35 40.472 24.031 1.278 1.321 2.335 2.698 1.832 1.65 2.33 1.759 8.698 3.664 13.48 9.503 5.002 5.783 8.58 14.28zm-128.6-22.74q9.253-8.005 4.211-10.248-1.109-.659-2.876-.208-3.093.788-6.783 3.846-3.47 3.002-6.77 6.666t-6.047 7.658q-2.802 3.773-4.283 6.268-9.374 17.68-3.5 20.418 1.555 1.486 2.43-.62l3.114-8.086q1.256-3.379 3.673-6.818 2.36-3.66 5.055-6.935 2.859-3.551 5.886-6.44 3.192-3.167 5.89-5.501m93.538 44.852-3.097-.152.442-.112q-5.363.19-9.469-2.998-3.885-3.244-6.779-7.212-.78-1.212-1.173-2.759l-.845-3.313q-.403-3.426-.091-7.74.186-7.576-.996-12.215-1.183-4.64-3.894-5.124-4.423.186-10.14 7.29-5.553 6.826-8.775 15.41-4.016 16.551-3.435 34.518.524 17.746 4.69 34.092l1.746 6.848q.676 2.651 1.235 3.92.337 1.326 1.117 2.538 1 1.157 2.278 2.478 2.443 2.2 4.44 3.573t3.768 1.863q3.158 1.312 7.022-.143 1.269-.559 2.317-1.061l2.538-1.118q2.868-1.672 4.245-2.729l-.113-.441q8.152-6.783 11.647-16.143 3.66-9.638 4.83-19.817l.113.442-.3-16.862zm364.754-104.016q1.141-.452 3.652-1.357 2.51-.904 5.248-1.807 2.739-.904 5.02-1.58 2.51-.677 3.65-.673 0-.228-2.505-.692-2.28-.235-6.61-.704-5.695-.93-10.708-1.857-4.784-.926-9.34-2.08-8.428-2.078-13.888-5.97-5.23-4.12-8.405-9.6-2.947-5.48-4.066-12.323t-1.094-14.593q.058-19.15 8.768-34.396 8.938-15.247 22.651-26.83 13.714-11.585 30.608-19.512 16.894-8.155 33.321-12.436 27.379-7.438 57.014-7.347 38.982.12 53.538 11.107t14.474 37.887q-.013 4.103-.94 9.116-.699 4.785-2.31 9.795-1.382 4.783-3.449 9.564-1.838 4.554-4.128 7.966-2.98 5.234-7.767 5.22-2.051-.007-4.547-3.89-2.723-4.112-7.282-4.126h-.456q-2.28-.008-2.735-.237l-3.648-.01-3.646-.468q-1.367-.232-3.874-.24l-5.471-.016q-3.192-.01-7.069.434-3.876.216-8.438 1.114-7.07 1.118-14.826 2.69-7.528 1.572-15.286 3.828-7.529 2.029-15.06 4.741-7.302 2.485-13.923 5.429-6.618 2.487-14.153 6.339t-13.474 7.71q-3.196 1.585-3.197 2.041 0 .912 5.692 2.298 6.606 1.616 12.984 3.003l13.215 2.32q3.19.466 5.013.928 2.05.234 2.734.464l2.963.009q1.823.461 4.557.926 2.962.465 7.065.705 6.381.476 14.359.956t14.129 1.64q1.823.233 3.189.693 1.594.461 2.733.92 2.502 1.604 3.636 3.66.68 1.141 1.587 2.74 1.135 1.599 2.496 3.883 2.264 5.022 4.07 10.727t1.79 11.176q-.028 8.89-4.152 15.717-1.147 2.276-2.29 3.184-1.143 1.364-3.655 2.496-2.055 1.134-7.075 2.714-2.51.904-5.705 1.807-3.194.902-7.073 2.257-10.953 3.386-24.644 7.676-13.692 4.289-27.387 9.946-13.695 5.429-26.026 12.23t-20.792 15.21q-7.088 7.045-14.64 16.597-7.092 7.957-7.11 13.656-.012 4.103 5.903 8.225 5.913 4.35 20.503 4.394 11.854.036 24.17-1.977t24.41-5.397q12.32-3.381 24.188-7.904 11.87-4.75 22.372-9.962 8.22-4.534 8.226-6.358l10.96-5.893q2.968-1.13 6.393-2.944 1.827-1.134 4.11-2.267 2.512-1.36 5.481-3.175l26.492-15.42q4.11-2.495 7.536-4.308 3.653-1.813 6.848-2.943 2.968-1.358 5.705-1.806 2.965-.675 5.7-.666 3.192.009 5.921 2.07 2.958 1.833 5.001 4.802 2.043 2.742 3.173 6.165 1.357 3.424 1.348 6.387-.025 8.207-7.121 17.532-6.867 9.098-18.066 18.41-11.198 9.084-25.132 17.932-13.933 8.848-27.862 16.556-13.93 7.48-26.714 13.596-12.557 5.888-21.002 9.282-17.347 7.013-36.053 11.287-18.479 4.275-37.4 4.217-19.377-.06-36.682-6.724t-30.262-18.559-20.658-28.33q-7.472-16.437-7.411-36.27.18-58.587 92.611-92.726zm12.853-102.318q1.142-.68 4.567-2.493 3.425-2.041 7.993-4.535 4.795-2.72 10.047-5.44 5.252-2.948 9.59-5.214l7.763-3.852q3.197-1.586 3.88-1.583 0-1.14-2.96-1.15-6.839-.02-15.282 2.69t-16.89 7.014q-8.448 4.078-16.215 9.297-7.539 5.22-12.57 10.22-6.858 6.362-6.866 8.87-.013 2.507 2.044 2.513 3.876.012 9.82-5.896 2.516-2.272 6.17-4.769 3.884-2.495 8.909-5.672m410.26 143.742q-.666-4.714-4.18-1.329l.07-.45q-.52.382-1.28 2.341-.759 1.96-2.4 5.169-1.677 3.434-3.422 7.319-1.52 3.919-3.627 8.67-4.559 11.758-10.176 22.894-5.357 10.944-10.94 21.854-2.954 5.775-5.841 11.1-2.887 5.326-5.48 10.234-4.166 7.667-10.115 16.446-5.724 8.812-12.732 16.969-7.007 8.156-15.161 14.754-8.12 6.372-17.042 8.933-5.527 1.464-13.19.296l-9.69-1.476q-4.698-.947-9.259-2.795-8.637-3.852-17.033-9.282-8.137-5.621-13.608-13.603-14.038-22.893-14.594-60.104-.62-9.549 1.543-23.747l.618-4.056q.534-1.994.878-4.248.603-2.445.98-4.924.603-2.444 1.05-5.374 1.393-7.628 2.82-15.481 1.462-8.08 3.565-15.83 2.137-7.975 5.108-15.363 3.005-7.613 7.033-14.378 1.833-2.95 3.857-5.639 2.25-2.655 4.464-5.085 9.399-8.714 24.273-6.448 4.057.619 10.68 2.55 6.85 1.966 13.301 5.024 6.677 3.093 11.57 7.298 5.12 4.239 5.717 9.403.302 5.58-3.683 18.117-.863 2.636-1.829 5.947-.931 3.087-1.966 6.85-2.897 9.935-5.084 19.748-1.962 9.847-3.507 19.989l-2.678 17.578q-1.586 17.976-1.485 27.907.292 10.19 3.368 15.732 1.043 2.234 2.395 2.44 2.028.31 5.591-4.913 5.95-8.778 11.189-17.434 5.499-8.848 10.39-18.249 1.936-3.625 3.543-6.608 1.642-3.209 2.8-6.261 5.478-10.234 10.056-20.605 4.838-10.562 9-21.227l5.475-13.232 12.214-27.194q11.414-17.4 28.091-14.86 20.508 3.125 27.418 22.856 4.166 16.546-6.664 30.115-2.578 3.297-6.802 6.804-3.998 3.542-8.731 2.82-4.733-.72-6.858-7.962zm-136.273-42.44q1.642-3.209 1.78-4.11.136-.901-.716-2.876-.974-2.685-3.468-1.45-2.2.817-4.724 5.275-1.485 3.694-3.367 8.48-1.623 4.595-3.643 10.283-4.108 11.826-5.657 18.97-2.123 6.363-1.687 8.044.21 1.646 1.146 1.558 2.2-.818 3.99-9.538 2.726-8.809 6.872-17.862 4.181-9.279 9.474-16.774m127.706 3.317q2.318-3.106.687-4.508-1.925-.985-3.777.578-2.147 1.979-2.456 4.007-.48 3.155 1.391 2.979 1.352.206 4.155-3.056M1921.8 474.75q4.522-14.83 12.733-27.644 8.274-13.033 19.264-23.146 11.272-10.268 24.695-17.305 13.643-6.974 28.9-9.684 18.83-3.576 36.79 1.613 13.359 3.86 24.606 12.567 11.465 8.77 20.61 19.006l1.654 1.665q2.58-4 5.062-6.843 2.765-2.997 5.807-4.491t6.643-1.64q3.82-.083 8.639 1.31 3.285.949 5.193 1.737 2.127.852 3.689 2.015 1.78 1.227 3.436 2.891 1.654 1.665 3.776 4.176l-.657-.19q12.303 11.623 14.838 22.56 2.725 10.278.7 17.286-.506 1.752-1.893 4.91-1.169 3.223-3.5 8.007-2.112 4.847-4.415 10.351t-5.013 11.603q-2.492 6.161-5.048 12.542-2.555 6.38-5.393 12.916-5.3 13.418-8.148 23.273-2.721 9.417-4.498 17.21-1.558 7.854-1.952 14.147-1.29 12.678 4.623 14.387 3.504 1.012 7.796.117 4.356-1.114 8.683-2.949 4.609-1.99 8.624-4.39t6.683-4.238q9.54-6.735 17.614-15.792 8.138-9.276 13.273-19.657 3.845-8.38 6.546-11.16 2.356-2.404 7.831-.822 4.161 1.203 6.093 4.371t2.234 7.052q.583 3.728-.117 7.797-.482 4.132-1.432 7.417-1.835 6.351-5.33 12.698-3.494 6.346-8.084 12.376t-9.929 11.368q-5.057 5.183-10.08 9.427-13.778 10.73-29.669 15.63-15.608 4.745-32.91-.254l-2.409-.696q-1.314-.38-2.784-1.041l-5.066-2.176q-9.724-4.945-17.749-12.485t-14.167-16.67-10.024-19.506-5.105-20.933l-1.08-5.295q-5.904 5.65-13.594 11.733-7.408 5.928-16.032 10.317-8.342 4.234-17.429 6.117-8.804 1.727-17.345-.74-12.045-3.481-22.548-9.838t-18.586-15.336-12.998-19.892q-4.852-11.13-5.66-23.94-.695-8.269.27-16.533 1.027-8.483 3.275-17.087zm187.751-40.43q-3.421 2.808-4.37 6.093l.311.564q.876.253 2.507-.462 1.912-.871 3.67-2.024 1.975-1.09 3.358-2.59 1.6-1.435 1.854-2.311.443-1.533-1.31-2.04-2.627-.759-6.02 2.77m-106.564 74.803q-1.105 3.003-2.4 6.663t-2.779 7.977l-2.784 9.636q-.857 3.786-.954 4.945-.477 2.472 1.392 5.86l1.255-1.061q1.694-.935 2.604-1.621.628-.53 1.694-.934t2.477-1.183q9.5-4.136 18.008-11.407 8.508-7.27 15.862-16.298t13.521-18.874 10.922-18.912q5.355-10.317 8.625-15.067.755-.969 1.164-1.562.472-.813.725-1.69l.76-2.627q.822-2.847-1.15-3.417-1.97-.57-5.041.204-3.008.555-6.27 1.986-3.197 1.211-6.239 2.705l-4.516 2.492q-6.965 4.394-13.9 9.51-6.654 4.958-12.402 10.89l.438.127q-4.429 4.653-8.765 9.807-4.274 4.934-7.14 10.75-1.48 2.657-2.741 5.378-1.042 2.784-2.366 5.723m-29.888-78.874q-.696 2.41 1.275 2.979.876.253 3.416-1.149 1.193-.842 3.451-2.087 2.477-1.183 6.21-3.426 3.106-1.713 6.303-2.925 3.48-1.367 7.116-2.453 5.986-1.83 11.846-3.22 5.923-1.612 11.783-3.003 4.448-.613 4.765-1.708.38-1.314-1.027-2.195-1.125-1.037-6.38-2.556-3.286-.949-7.233-.428-3.884.301-8.02 1.479-4.138 1.177-7.963 2.92-3.543 1.586-6.366 3.143l-4.517 2.492q-2.886 1.776-6.117 3.927-3.013 2.214-5.588 4.555-2.511 2.122-2.954 3.655m229.329 185.504 43.266 18.29-22.017 52.083-43.266-18.29zm69.778-165.069 43.267 18.29-22.017 52.084-43.267-18.29z" aria-label="To Eva:" style="font-size:342.667px;font-family:&quot;Magic Bubble&quot;;-inkscape-font-specification:&quot;Magic Bubble&quot;;text-align:center;text-anchor:middle;mix-blend-mode:multiply;fill:#5498d5;fill-opacity:1;stroke-width:5.32215;stroke-linecap:round;stroke-linejoin:round;paint-order:stroke fill markers" transform="translate(291.519 84.014)scale(.80565)"/><path d="M971.525 288.284q2.867 4.748 3.822 12.709.374 2.794.618 7.113.16 4.106-.02 8.593t-.657 8.846q-.348 4.063-1.201 6.855-1.28 4.188-5.06 8.878-2.928 3.125-5.09 4.475l-3.602 1.43q-2.118.842-5.465 1.68l-10.082 3.024-15.544 3.476q-11.479 2.597-22.704 5.83-11.099 2.936-21.904 7.228-4.66 1.852-4.324 2.699.168.424 2.832 1.573 2.624.43 4.647 4.287.757 1.907 1.175 4.194.63 2.202.496 4.954.118 3.387.658 7.833.456 4.234 1.036 9.4l1.329 10.756q.664 5.377 1.285 11.263.833 5.802 1.497 11.18l1.329 10.755q.876 5.294 1.332 9.528.667 4.15 1.21 7.369l-.424.168 1.041 6.945q2.339 13.298 5.145 25.92 3.017 12.537 6.375 24.695 7.054 23.934 15.391 42.454 2.316 5.212 4.507 9.493 2.19 4.28 4.85 7.886 2.573 3.392 6.079 6.66 3.422 3.056 8.367 6.243 3.552 1.533 5.369 3.019 2.66 2.377 2.83 2.8.925 2.331-2.642 6.937-4.966 5.406-11.96 9.411-6.783 3.92-13.563 6.614-6.568 2.608-13.64 3.946-6.989 1.55-14.143 1.448-6.858.025-13.541-1.98-6.6-1.794-12.685-6-15.13-10.916-32.407-43.3-1.855-3.432-3.373-6.018-1.39-2.882-2.315-5.213-1.138-2.246-1.98-4.365l-1.767-4.449-1.851-4.66q-1.01-2.543-1.892-5.382-7.069-17.796-12.144-37.366-4.948-19.866-8.966-38.629-1.759-8.132-3.433-16.052-1.758-8.132-3.348-15.84-1.674-7.92-3.056-14.485-1.253-6.861-2.086-12.663-7.038 4.513-12.761 8.013t-9.964 6.41q-4.324 2.7-8.225 5.23t-7.717 5.273q-3.604 2.658-5.894 4.303-2.163 1.35-3.138 1.983-3.689 2.446-4.327 3.926-3.053 2.194-6.275 3.964-1.526 1.097-2.798 1.602l-2.118.842q-5.72 2.272-11.223 2.004t-10.663-2.142q-5.032-2.17-9.553-5.526-4.394-3.651-7.897-8.147-6.878-9.287-9.263-20.85-.203-3.598-.83-7.029-.499-3.726-.702-7.325 4.871-18.614 15.57-31.204 10.613-12.8 25.795-23.982 19.338-14.304 47.06-29.731l19.155-8.59q9.578-4.295 19.323-8.166 9.746-3.87 19.66-7.318l19.828-6.895q6.185-1.72 16.52-4.109 10.334-2.388 22.49-4.518 12.365-2.213 25.28-3.664 12.915-1.45 24.132-1 11.429.366 19.973 3.35 8.672 2.688 12.212 9.13zm-213.607 69.884q2.37-.206 1.866-1.477-.293-1.356-2.07-2.122-1.987-.682-7.284 1.422-9.705 4.59-20.136 11.678-10.219 7.002-18.238 14.603-8.06 6.88-9.723 11.956t2.354 7.16q1.944 1.19 4.234-.455 2.078-1.562 10.016-10.602 2.121-2.069 4.37-4.434 2.166-2.577 4.543-5.238 4.542-5.239 8.147-7.897 5.302-4.559 12.68-9.452 7.038-4.512 9.24-5.142m389.081 55.954q.84 2.374 1.91 6.571 1.291 4.141 2.924 10.547.958 3.756 1.638 7.346.844 3.314 1.355 6.242 1.317 9.78.641 19.127-.732 9.127-2.291 18.7-1.629 6.53-3.534 12.898-1.906 6.367-5.64 12.024-10.478 17.962-24.529 28.366-5.678 3.565-12.193 5.696-6.293 2.075-12.7 3.708-5.964 1.52-11.1 2.594-4.973.797-8.954.87-5.47.69-12.99.724-7.298-.021-14.987-.65-7.744-.848-14.938-2.308-7.251-1.68-12.35-4.145-14.847-6.567-24.342-15.204-9.494-8.636-16.472-23.09-3.184-6.952-5.757-13.354-2.352-6.458-3.872-12.423-5.574-21.869-.368-43.898.806-5.146 2.274-10.46 1.633-5.593 3.99-10.193.822-1.386 1.589-2.993.931-1.884 2.027-4.045 7.238-13.137 17.53-23.524 10.29-10.387 23.81-16.42 1.93-.728 5.245-1.573 3.478-1.122 8.337-2.36 6.905-1.525 12.375-2.214 5.692-.745 10.89-.658 5.362-.19 10.95.502 5.53.473 12.448 1.768l-.113-.442q27.006 5.35 40.472 24.03 1.278 1.322 2.335 2.7 1.832 1.65 2.33 1.758 8.698 3.664 13.48 9.503 5.002 5.782 8.58 14.28zm-128.6-22.74q9.253-8.004 4.211-10.248-1.109-.658-2.876-.208-3.093.789-6.783 3.847-3.47 3.001-6.77 6.666-3.3 3.664-6.047 7.658-2.802 3.772-4.283 6.267-9.374 17.681-3.5 20.418 1.555 1.486 2.43-.619l3.114-8.087q1.256-3.378 3.673-6.817 2.36-3.66 5.055-6.935 2.859-3.552 5.886-6.44 3.192-3.167 5.89-5.502m93.538 44.852-3.097-.151.442-.113q-5.363.19-9.469-2.997-3.885-3.244-6.779-7.212-.78-1.213-1.173-2.76l-.845-3.313q-.403-3.426-.091-7.74.186-7.576-.996-12.215-1.183-4.638-3.894-5.124-4.423.187-10.14 7.29-5.553 6.826-8.775 15.411-4.016 16.55-3.435 34.517.524 17.746 4.69 34.093l1.746 6.848q.676 2.65 1.235 3.92.337 1.325 1.117 2.538 1 1.156 2.278 2.478 2.443 2.2 4.44 3.573t3.768 1.862q3.158 1.313 7.022-.142 1.269-.56 2.317-1.062l2.538-1.117q2.868-1.672 4.245-2.729l-.113-.442q8.152-6.783 11.647-16.143 3.66-9.637 4.83-19.816l.113.442-.3-16.862zM1476.69 332.22q1.141-.453 3.652-1.357 2.51-.904 5.248-1.808 2.739-.903 5.02-1.58 2.51-.676 3.65-.673 0-.228-2.505-.691-2.28-.235-6.61-.704-5.695-.93-10.708-1.857-4.784-.927-9.34-2.08-8.428-2.078-13.888-5.97-5.23-4.12-8.405-9.6-2.947-5.481-4.066-12.324-1.118-6.842-1.094-14.593.058-19.149 8.768-34.396 8.938-15.246 22.651-26.83 13.714-11.584 30.608-19.511 16.894-8.155 33.321-12.436 27.379-7.439 57.014-7.348 38.982.12 53.538 11.107t14.474 37.887q-.013 4.104-.94 9.116-.699 4.785-2.31 9.796-1.382 4.783-3.449 9.564-1.838 4.553-4.128 7.966-2.98 5.234-7.767 5.22-2.051-.008-4.547-3.89-2.723-4.112-7.282-4.126l-.456-.001q-2.28-.007-2.735-.236l-3.648-.011-3.646-.467q-1.367-.232-3.874-.24l-5.471-.017q-3.192-.009-7.069.434-3.876.216-8.438 1.114-7.07 1.118-14.826 2.69-7.528 1.573-15.286 3.829-7.529 2.028-15.06 4.74-7.302 2.486-13.923 5.43-6.618 2.486-14.153 6.339-7.535 3.852-13.474 7.71-3.196 1.585-3.197 2.041 0 .912 5.692 2.297 6.606 1.616 12.984 3.004l13.215 2.32q3.19.466 5.013.927 2.05.234 2.734.465l2.963.009q1.823.461 4.557.925 2.962.465 7.065.706 6.381.476 14.359.956t14.129 1.64q1.823.233 3.189.693 1.594.46 2.733.92 2.502 1.604 3.636 3.659.68 1.142 1.587 2.74 1.135 1.6 2.496 3.883 2.264 5.023 4.07 10.727t1.79 11.176q-.028 8.89-4.152 15.717-1.147 2.276-2.29 3.185-1.143 1.364-3.655 2.496-2.055 1.134-7.075 2.714-2.51.904-5.705 1.806-3.194.902-7.073 2.258-10.953 3.386-24.644 7.675-13.692 4.29-27.387 9.947-13.695 5.429-26.026 12.23-12.33 6.8-20.792 15.21-7.088 7.045-14.64 16.596-7.092 7.957-7.11 13.656-.012 4.104 5.903 8.225 5.913 4.35 20.503 4.395 11.854.036 24.17-1.978t24.41-5.396q12.32-3.382 24.188-7.904 11.87-4.751 22.372-9.962 8.22-4.534 8.226-6.358l10.96-5.893q2.968-1.131 6.393-2.944 1.827-1.135 4.11-2.267 2.512-1.36 5.481-3.175l26.492-15.42q4.11-2.495 7.536-4.309 3.653-1.812 6.848-2.942 2.968-1.359 5.705-1.806 2.965-.675 5.7-.667 3.192.01 5.921 2.07 2.958 1.833 5.001 4.803 2.043 2.742 3.173 6.165 1.357 3.423 1.348 6.387-.025 8.207-7.121 17.532-6.867 9.097-18.066 18.41-11.198 9.084-25.132 17.931-13.933 8.848-27.862 16.556-13.93 7.48-26.714 13.596-12.557 5.889-21.002 9.282-17.347 7.014-36.053 11.288-18.479 4.274-37.4 4.216-19.377-.06-36.682-6.724t-30.262-18.558-20.658-28.331q-7.472-16.437-7.411-36.27.18-58.587 92.611-92.726zm12.853-102.318q1.142-.68 4.567-2.494 3.425-2.04 7.993-4.534 4.795-2.721 10.047-5.44 5.252-2.948 9.59-5.214l7.763-3.852q3.197-1.586 3.88-1.584 0-1.14-2.96-1.149-6.839-.02-15.282 2.689t-16.89 7.015q-8.448 4.077-16.215 9.297-7.539 5.22-12.57 10.22-6.858 6.362-6.866 8.87-.013 2.507 2.044 2.513 3.876.012 9.82-5.897 2.516-2.272 6.17-4.768 3.884-2.496 8.909-5.672m410.26 143.741q-.666-4.713-4.18-1.328l.07-.45q-.52.381-1.28 2.34-.759 1.96-2.4 5.17-1.677 3.433-3.422 7.318-1.52 3.92-3.627 8.671-4.559 11.758-10.176 22.893-5.357 10.944-10.94 21.854-2.954 5.776-5.841 11.101t-5.48 10.234q-4.166 7.667-10.115 16.445-5.724 8.813-12.732 16.97-7.007 8.155-15.161 14.753-8.12 6.373-17.042 8.934-5.527 1.463-13.19.296l-9.69-1.477q-4.698-.946-9.259-2.794-8.637-3.853-17.033-9.283-8.137-5.62-13.608-13.603-14.038-22.892-14.594-60.103-.62-9.55 1.543-23.747l.618-4.057q.534-1.994.878-4.247.603-2.445.98-4.924.603-2.445 1.05-5.374 1.393-7.628 2.82-15.482 1.462-8.079 3.565-15.83 2.137-7.975 5.108-15.363 3.005-7.613 7.033-14.378 1.833-2.949 3.857-5.638 2.25-2.655 4.464-5.085 9.399-8.714 24.273-6.448 4.057.618 10.68 2.55 6.85 1.966 13.301 5.024 6.677 3.093 11.57 7.297 5.12 4.24 5.717 9.403.302 5.58-3.683 18.118-.863 2.635-1.829 5.947-.931 3.086-1.966 6.849-2.897 9.935-5.084 19.748-1.962 9.848-3.507 19.99l-2.678 17.578q-1.586 17.975-1.485 27.906.292 10.19 3.368 15.733 1.043 2.234 2.395 2.44 2.028.31 5.591-4.913 5.95-8.779 11.189-17.435 5.499-8.847 10.39-18.248 1.936-3.625 3.543-6.609 1.642-3.208 2.8-6.26 5.478-10.234 10.056-20.605 4.838-10.562 9-21.228l5.475-13.232 12.214-27.194q11.414-17.4 28.091-14.86 20.508 3.125 27.418 22.857 4.166 16.545-6.664 30.115-2.578 3.297-6.802 6.804-3.998 3.541-8.731 2.82t-6.858-7.963zm-136.273-42.44q1.642-3.208 1.78-4.11.136-.9-.716-2.875-.974-2.686-3.468-1.451-2.2.817-4.724 5.275-1.485 3.694-3.367 8.48-1.623 4.596-3.643 10.284-4.108 11.826-5.657 18.969-2.123 6.364-1.687 8.044.21 1.647 1.146 1.559 2.2-.818 3.99-9.539 2.726-8.808 6.872-17.861 4.181-9.28 9.474-16.774m127.706 3.317q2.318-3.106.687-4.507-1.925-.985-3.777.577-2.147 1.98-2.456 4.008-.48 3.155 1.391 2.979 1.352.206 4.155-3.057m30.562 109.445q4.522-14.829 12.733-27.643 8.274-13.033 19.264-23.146 11.272-10.269 24.695-17.306 13.643-6.973 28.9-9.683 18.83-3.577 36.79 1.612 13.359 3.86 24.606 12.568 11.465 8.77 20.61 19.006l1.654 1.665q2.58-4 5.062-6.843 2.765-2.998 5.807-4.492t6.643-1.64q3.82-.082 8.639 1.31 3.285.95 5.193 1.738 2.127.851 3.689 2.015 1.78 1.226 3.436 2.89 1.654 1.665 3.776 4.177l-.657-.19q12.303 11.623 14.838 22.559 2.725 10.279.7 17.287-.506 1.752-1.893 4.91-1.169 3.222-3.5 8.006-2.112 4.848-4.415 10.352t-5.013 11.602q-2.492 6.162-5.048 12.542t-5.393 12.917q-5.3 13.417-8.148 23.273-2.721 9.417-4.498 17.209-1.558 7.855-1.952 14.148-1.29 12.678 4.623 14.386 3.504 1.013 7.796.118 4.356-1.115 8.683-2.95 4.609-1.99 8.624-4.389t6.683-4.239q9.54-6.735 17.614-15.792 8.138-9.276 13.273-19.656 3.845-8.381 6.546-11.16 2.356-2.404 7.831-.822 4.161 1.202 6.093 4.37 1.932 3.17 2.234 7.053.583 3.728-.117 7.797-.482 4.132-1.432 7.417-1.835 6.35-5.33 12.697t-8.084 12.376q-4.59 6.03-9.929 11.369-5.057 5.183-10.08 9.426-13.778 10.731-29.669 15.632-15.608 4.744-32.91-.255l-2.409-.696q-1.314-.38-2.784-1.042l-5.066-2.176q-9.724-4.945-17.749-12.484-8.025-7.54-14.167-16.67t-10.024-19.507q-3.884-10.376-5.105-20.932l-1.08-5.296q-5.904 5.65-13.594 11.734-7.408 5.927-16.032 10.317-8.342 4.234-17.429 6.117-8.804 1.727-17.345-.741-12.045-3.48-22.548-9.837t-18.586-15.336-12.998-19.892q-4.852-11.13-5.66-23.94-.695-8.27.27-16.533 1.027-8.483 3.275-17.088zm187.751-40.43q-3.421 2.808-4.37 6.093l.311.565q.876.253 2.507-.462 1.912-.871 3.67-2.025 1.975-1.09 3.358-2.589 1.6-1.435 1.854-2.311.443-1.534-1.31-2.04-2.627-.76-6.02 2.77m-106.564 74.804q-1.105 3.003-2.4 6.663t-2.779 7.976l-2.784 9.637q-.857 3.786-.954 4.944-.477 2.473 1.392 5.86l1.255-1.06q1.694-.935 2.604-1.621.628-.53 1.694-.935 1.066-.404 2.477-1.182 9.5-4.137 18.008-11.407t15.862-16.299 13.521-18.873 10.922-18.912q5.355-10.318 8.625-15.068.755-.968 1.164-1.562.472-.813.725-1.689l.76-2.628q.822-2.847-1.15-3.416-1.97-.57-5.041.204-3.008.555-6.27 1.985-3.197 1.212-6.239 2.706l-4.516 2.492q-6.965 4.394-13.9 9.509-6.654 4.959-12.402 10.891l.438.127q-4.429 4.652-8.765 9.806-4.274 4.935-7.14 10.75-1.48 2.658-2.741 5.379-1.042 2.783-2.366 5.723m-29.888-78.874q-.696 2.409 1.275 2.978.876.254 3.416-1.148 1.193-.842 3.451-2.088 2.477-1.182 6.21-3.426 3.106-1.713 6.303-2.924 3.48-1.368 7.116-2.453 5.986-1.83 11.846-3.221 5.923-1.611 11.783-3.003 4.448-.613 4.765-1.708.38-1.314-1.027-2.195-1.125-1.036-6.38-2.555-3.286-.95-7.233-.429-3.884.302-8.02 1.48-4.138 1.177-7.963 2.92-3.543 1.586-6.366 3.143l-4.517 2.491q-2.886 1.777-6.117 3.928-3.013 2.214-5.588 4.555-2.511 2.122-2.954 3.655m229.329 185.503 43.266 18.29-22.017 52.084-43.266-18.29zm69.778-165.068 43.267 18.29-22.017 52.083-43.267-18.29z" aria-label="To Eva:" style="font-size:342.667px;font-family:&quot;Magic Bubble&quot;;-inkscape-font-specification:&quot;Magic Bubble&quot;;text-align:center;text-anchor:middle;fill:#fff;stroke-width:5.32215;stroke-linecap:round;stroke-linejoin:round;paint-order:stroke fill markers" transform="translate(291.519 84.014)scale(.80565)"/><text xml:space="preserve" x="1489.584" y="2958.717" style="font-style:normal;font-variant:normal;font-weight:400;font-stretch:normal;font-size:221.62px;font-family:&quot;Magic Bubble&quot;;-inkscape-font-specification:&quot;Magic Bubble&quot;;text-align:center;writing-mode:lr-tb;direction:ltr;text-anchor:middle;mix-blend-mode:multiply;fill:#8bcee6;fill-opacity:1;stroke:none;stroke-width:2.58701;stroke-linecap:round;stroke-linejoin:round;stroke-opacity:1;paint-order:stroke fill markers"><tspan x="1489.584" y="2958.717" style="fill:#8bcee6;fill-opacity:1;stroke-width:2.58701">A Radiant Slime</tspan><tspan x="1489.584" y="3235.742" style="fill:#8bcee6;fill-opacity:1;stroke-width:2.58701">For A Dazzling</tspan><tspan x="1489.584" y="3514.931" style="fill:#8bcee6;fill-opacity:1;stroke-width:2.58701">Damsel!</tspan></text><text xml:space="preserve" x="1489.584" y="2938.659" style="font-style:normal;font-variant:normal;font-weight:400;font-stretch:normal;font-size:221.62px;font-family:&quot;Magic Bubble&quot;;-inkscape-font-specification:&quot;Magic Bubble&quot;;text-align:center;writing-mode:lr-tb;direction:ltr;text-anchor:middle;fill:#fff;fill-opacity:1;stroke:none;stroke-width:2.58701;stroke-linecap:round;stroke-linejoin:round;stroke-opacity:1;paint-order:stroke fill markers"><tspan x="1489.584" y="2938.659" style="stroke-width:2.58701">A Radiant Slime</tspan><tspan x="1489.584" y="3215.684" style="stroke-width:2.58701">For A Dazzling</tspan><tspan x="1489.584" y="3494.873" style="stroke-width:2.58701">Damsel!</tspan></text><path d="M416.316 813.868c228.466 78.137 418.669-139.35 383.308-365.713-5.027-30.162-11.31-52.783-17.595-75.405 15.081-8.797 30.162-17.594 57.183-31.419 27.02-13.824 65.978-32.675 98.026-66.607 16.023-16.967 30.319-37.703 42.022-61.66 159.145-325.767-460.276-478.43-722.552-361.86C41.803-53.282-117.801 225.71-191.32 407.311s-60.952 265.8-32.047 348.118c142.197 404.95 490.267 357.271 639.683 58.438" style="fill:url(#aN);stroke-width:.754858;stroke-linecap:round;stroke-linejoin:round" transform="rotate(-75.802 2197.396 1983.41)scale(.75949)"/><path d="M107.535 1048.354c118.878-4.968 236.85-90.623 308.782-234.487 228.466 78.138 418.668-139.35 383.307-365.713-5.027-30.162-11.312-52.783-17.596-75.404 15.081-8.798 30.164-17.594 57.185-31.419 27.02-13.824 65.978-32.674 98.025-66.607 16.024-16.966 30.32-37.703 42.023-61.66 50.802-103.99 22.267-190.34-48.66-255.926 48.728 60.831 62.885 136.31 19.794 224.516-11.67 23.887-25.923 44.561-41.9 61.478-31.953 33.833-70.798 52.63-97.74 66.413-26.94 13.784-41.977 22.555-57.014 31.326 6.265 22.555 12.53 45.11 17.542 75.184 35.258 225.7-154.387 442.55-382.184 364.642-121.114 242.23-373.136 318.955-539.352 122.24 72.32 104.334 165.328 149.281 257.788 145.417" style="fill:url(#aO);fill-opacity:1;stroke-width:.754858;stroke-linecap:round;stroke-linejoin:round" transform="rotate(-75.802 2197.396 1983.41)scale(.75949)"/><path d="M416.316 813.868c228.466 78.137 418.669-139.35 383.308-365.713-5.027-30.162-11.31-52.783-17.595-75.405 15.081-8.797 30.162-17.594 57.183-31.419 27.02-13.824 65.978-32.675 98.026-66.607 16.023-16.967 30.319-37.703 42.022-61.66 159.145-325.767-460.276-478.43-722.552-361.86C41.803-53.282-117.801 225.71-191.32 407.311s-60.952 265.8-32.047 348.118c142.197 404.95 490.267 357.271 639.683 58.438" style="fill:url(#aP);stroke-width:.754858;stroke-linecap:round;stroke-linejoin:round" transform="rotate(165.802 1538.885 33.846)scale(.75949 -.75949)"/><path d="M107.535 1048.354c118.878-4.968 236.85-90.623 308.782-234.487 228.466 78.138 418.668-139.35 383.307-365.713-5.027-30.162-11.312-52.783-17.596-75.404 15.081-8.798 30.164-17.594 57.185-31.419 27.02-13.824 65.978-32.674 98.025-66.607 16.024-16.966 30.32-37.703 42.023-61.66 50.802-103.99 22.267-190.34-48.66-255.926 48.728 60.831 62.885 136.31 19.794 224.516-11.67 23.887-25.923 44.561-41.9 61.478-31.953 33.833-70.798 52.63-97.74 66.413-26.94 13.784-41.977 22.555-57.014 31.326 6.265 22.555 12.53 45.11 17.542 75.184 35.258 225.7-154.387 442.55-382.184 364.642-121.114 242.23-373.136 318.955-539.352 122.24 72.32 104.334 165.328 149.281 257.788 145.417" style="fill:url(#aQ);fill-opacity:1;stroke-width:.754858;stroke-linecap:round;stroke-linejoin:round" transform="rotate(165.802 1538.885 33.846)scale(.75949 -.75949)"/><path d="M416.316 813.868c228.466 78.137 418.669-139.35 383.308-365.713-5.027-30.162-11.31-52.783-17.595-75.405 15.081-8.797 30.162-17.594 57.183-31.419 27.02-13.824 65.978-32.675 98.026-66.607 16.023-16.967 30.319-37.703 42.022-61.66 159.145-325.767-460.276-478.43-722.552-361.86C41.803-53.282-117.801 225.71-191.32 407.311s-60.952 265.8-32.047 348.118c142.197 404.95 490.267 357.271 639.683 58.438" style="fill:url(#aR);stroke-width:.754858;stroke-linecap:round;stroke-linejoin:round" transform="rotate(75.802 -697.396 3910.183)scale(-.75949 .75949)"/><path d="M107.535 1048.354c118.878-4.968 236.85-90.623 308.782-234.487 228.466 78.138 418.668-139.35 383.307-365.713-5.027-30.162-11.312-52.783-17.596-75.404 15.081-8.798 30.164-17.594 57.185-31.419 27.02-13.824 65.978-32.674 98.025-66.607 16.024-16.966 30.32-37.703 42.023-61.66 50.802-103.99 22.267-190.34-48.66-255.926 48.728 60.831 62.885 136.31 19.794 224.516-11.67 23.887-25.923 44.561-41.9 61.478-31.953 33.833-70.798 52.63-97.74 66.413-26.94 13.784-41.977 22.555-57.014 31.326 6.265 22.555 12.53 45.11 17.542 75.184 35.258 225.7-154.387 442.55-382.184 364.642-121.114 242.23-373.136 318.955-539.352 122.24 72.32 104.334 165.328 149.281 257.788 145.417" style="fill:url(#aS);fill-opacity:1;stroke-width:.754858;stroke-linecap:round;stroke-linejoin:round" transform="rotate(75.802 -697.396 3910.183)scale(-.75949 .75949)"/></svg>