<svg xmlns="http://www.w3.org/2000/svg" xmlns:xlink="http://www.w3.org/1999/xlink" xml:space="preserve" width="3000" height="3600"><defs><linearGradient id="Z"><stop offset="0" stop-color="#fee9fe"/><stop offset="1" stop-color="#fee9fe" stop-opacity="0"/></linearGradient><linearGradient id="Y"><stop offset="0" stop-color="#fed9fd"/><stop offset="1" stop-color="#fed9fd" stop-opacity="0"/></linearGradient><linearGradient id="D"><stop offset="0" stop-color="#fe31cc" stop-opacity=".655"/><stop offset="1" stop-color="#fe31cc" stop-opacity="0"/></linearGradient><linearGradient id="X"><stop offset="0" stop-color="#fccffb"/><stop offset="1" stop-color="#fccffb" stop-opacity="0"/></linearGradient><linearGradient id="C"><stop offset="0" stop-color="#2d4fc0"/><stop offset="1" stop-color="#2d4fc0" stop-opacity="0"/></linearGradient><linearGradient id="x"><stop offset="0" stop-color="#7560fd"/><stop offset="1" stop-color="#fb228c"/></linearGradient><linearGradient id="T"><stop offset="0" stop-color="#ffafd8" stop-opacity=".356"/><stop offset="1" stop-color="#ffafd8" stop-opacity="0"/></linearGradient><linearGradient id="O"><stop offset="0" stop-color="#ff95c4" stop-opacity=".447"/><stop offset="1" stop-color="#ff95c4" stop-opacity="0"/></linearGradient><linearGradient id="N"><stop offset="0" stop-color="#ffafd8" stop-opacity=".31"/><stop offset="1" stop-color="#ffafd8" stop-opacity="0"/></linearGradient><linearGradient id="M"><stop offset="0" stop-color="#63bdda"/><stop offset="1" stop-color="#63bdda" stop-opacity="0"/></linearGradient><linearGradient id="t"><stop offset="0" stop-color="#ff141b"/><stop offset="1" stop-color="#ff141b" stop-opacity="0"/></linearGradient><linearGradient id="r"><stop offset="0" stop-color="#a12522"/><stop offset="1" stop-color="#a12522" stop-opacity="0"/></linearGradient><linearGradient id="K"><stop offset="0" stop-color="#ff7880" stop-opacity=".698"/><stop offset="1" stop-color="#ff7880" stop-opacity="0"/></linearGradient><linearGradient id="q"><stop offset="0" stop-color="#ff4448"/><stop offset="1" stop-color="#ff5c60"/></linearGradient><linearGradient id="p"><stop offset="0" stop-color="#b92522"/><stop offset="1" stop-color="#d93532"/></linearGradient><linearGradient id="o"><stop offset="0" stop-color="#841d17"/><stop offset="1" stop-color="#841d17" stop-opacity="0"/></linearGradient><linearGradient id="n"><stop offset="0" stop-color="#841d17" stop-opacity=".712"/><stop offset="1" stop-color="#841d17" stop-opacity="0"/></linearGradient><linearGradient id="l"><stop offset="0" stop-color="#841d17"/><stop offset="1" stop-color="#841d17" stop-opacity="0"/></linearGradient><linearGradient id="j"><stop offset="0" stop-color="#841d17"/><stop offset="1" stop-color="#841d17" stop-opacity="0"/></linearGradient><linearGradient id="i"><stop offset="0" stop-color="#841d17"/><stop offset="1" stop-color="#841d17" stop-opacity="0"/></linearGradient><linearGradient id="H"><stop offset="0" stop-color="#ffafd9" stop-opacity=".67"/><stop offset="1" stop-color="#ffafd9" stop-opacity="0"/></linearGradient><linearGradient id="g"><stop offset="0" stop-color="#ff72a3"/><stop offset="1" stop-color="#ff72a3" stop-opacity="0"/></linearGradient><linearGradient id="E"><stop offset="0" stop-color="#ffafd8" stop-opacity=".662"/><stop offset="1" stop-color="#ffafd8" stop-opacity="0"/></linearGradient><linearGradient id="d"><stop offset="0" stop-color="#ffafd8"/><stop offset="1" stop-color="#ffafd8" stop-opacity="0"/></linearGradient><linearGradient id="c"><stop offset="0" stop-color="#ff72a3"/><stop offset="1" stop-color="#ff72a3" stop-opacity="0"/></linearGradient><linearGradient id="b"><stop offset="0" stop-color="#ff72a3"/><stop offset="1" stop-color="#ff72a3" stop-opacity="0"/></linearGradient><linearGradient id="a"><stop offset="0" stop-color="#ff72a3"/><stop offset="1" stop-color="#ff72a3" stop-opacity="0"/></linearGradient><linearGradient id="F"><stop offset="0" stop-color="#ffafd9" stop-opacity=".707"/><stop offset="1" stop-color="#ffafd9" stop-opacity="0"/></linearGradient><linearGradient id="f"><stop offset="0" stop-color="#ff9ccc"/><stop offset="1" stop-color="#ff9ccc" stop-opacity="0"/></linearGradient><linearGradient id="e"><stop offset="0" stop-color="#ff85b6" stop-opacity=".471"/><stop offset="1" stop-color="#ff85b6" stop-opacity="0"/></linearGradient><linearGradient xlink:href="#a" id="am" x1="245.063" x2="151.963" y1="262.851" y2="126.132" gradientUnits="userSpaceOnUse"/><linearGradient xlink:href="#b" id="an" x1="-15.468" x2="61.889" y1="74.353" y2="98.107" gradientUnits="userSpaceOnUse"/><linearGradient xlink:href="#c" id="ao" x1="0" x2="88.389" y1="179.025" y2="113.838" gradientUnits="userSpaceOnUse"/><linearGradient xlink:href="#d" id="ap" x1="193.186" x2="148.604" y1="-61.719" y2="92.09" gradientUnits="userSpaceOnUse"/><linearGradient xlink:href="#a" id="ar" x1="285.688" x2="176.182" y1="265.194" y2="141.16" gradientUnits="userSpaceOnUse"/><linearGradient xlink:href="#e" id="as" x1="221.27" x2="213.809" y1="139.702" y2="147.302" gradientTransform="matrix(-.9125 0 0 1.07523 262.4 1.642)" gradientUnits="userSpaceOnUse"/><linearGradient xlink:href="#f" id="au" x1="230.869" x2="207.165" y1="102.433" y2="97.402" gradientTransform="matrix(-.9125 0 0 1.07523 262.4 1.642)" gradientUnits="userSpaceOnUse"/><linearGradient xlink:href="#e" id="aw" x1="290.386" x2="230.192" y1="136.608" y2="118.047" gradientTransform="matrix(-1.06912 0 0 1.25977 300.897 -19.594)" gradientUnits="userSpaceOnUse"/><linearGradient xlink:href="#g" id="ax" x1="44.596" x2="33.811" y1="210.077" y2="141.16" gradientUnits="userSpaceOnUse"/><linearGradient xlink:href="#e" id="at" x1="219.605" x2="214.263" y1="141.693" y2="147.302" gradientTransform="matrix(-.9125 0 0 1.07523 262.4 1.642)" gradientUnits="userSpaceOnUse"/><linearGradient xlink:href="#f" id="ag" x1="230.869" x2="207.165" y1="102.433" y2="97.402" gradientTransform="matrix(-.73369 0 0 .8154 207.071 -2.244)" gradientUnits="userSpaceOnUse"/><linearGradient xlink:href="#g" id="aj" x1="55.533" x2="30.023" y1="202.438" y2="155.935" gradientTransform="matrix(-.16543 1.0847 1.04158 .17228 52.162 -27.907)" gradientUnits="userSpaceOnUse"/><linearGradient xlink:href="#e" id="ai" x1="290.386" x2="230.192" y1="136.608" y2="118.047" gradientTransform="matrix(-.8596 0 0 .95534 238.024 -18.348)" gradientUnits="userSpaceOnUse"/><linearGradient xlink:href="#i" id="af" x1="136.764" x2="136.764" y1="176.239" y2="215.052" gradientUnits="userSpaceOnUse"/><linearGradient xlink:href="#j" id="ae" x1="77.71" x2="139.212" y1="220.462" y2="210.077" gradientUnits="userSpaceOnUse"/><linearGradient xlink:href="#l" id="ad" x1="66.643" x2="40.396" y1="156.626" y2="177.382" gradientUnits="userSpaceOnUse"/><linearGradient xlink:href="#n" id="ab" x1="12.014" x2="13.52" y1="134.154" y2="167.718" gradientUnits="userSpaceOnUse"/><linearGradient xlink:href="#o" id="ac" x1="-11.755" x2="15.328" y1="195.166" y2="181.883" gradientUnits="userSpaceOnUse"/><linearGradient id="W"><stop offset="0" stop-color="#fec3f3"/><stop offset="1" stop-color="#fec3f3" stop-opacity="0"/></linearGradient><linearGradient id="I"><stop offset="0" stop-color="#ff8db2" stop-opacity=".769"/><stop offset="1" stop-color="#ff8db2" stop-opacity="0"/></linearGradient><linearGradient id="u"><stop offset=".636" stop-color="#2e3676"/><stop offset=".881" stop-color="#304cbf"/><stop offset="1" stop-color="#324ebd"/></linearGradient><linearGradient id="w"><stop offset="0" stop-color="#11100f"/><stop offset="1" stop-color="#211f1e"/></linearGradient><linearGradient id="y"><stop offset="0" stop-color="#fff4fd" stop-opacity=".58"/><stop offset="1" stop-color="#fff4fd" stop-opacity="0"/></linearGradient><linearGradient id="z"><stop offset="0" stop-color="#feb3f2"/><stop offset="1" stop-color="#feb3f2" stop-opacity="0"/></linearGradient><linearGradient id="A"><stop offset="0" stop-color="#fa38df"/><stop offset="1" stop-color="#fa38df" stop-opacity="0"/></linearGradient><linearGradient id="U"><stop offset="0" stop-color="#fff4fd" stop-opacity=".579"/><stop offset="1" stop-color="#fff4fd" stop-opacity="0"/></linearGradient><linearGradient id="B"><stop offset="0" stop-color="#fe88dd"/><stop offset="1" stop-color="#fe88dd" stop-opacity="0"/></linearGradient><linearGradient id="V"><stop offset="0" stop-color="#ffd2e6"/><stop offset="1" stop-color="#ffd2e6" stop-opacity="0"/></linearGradient><linearGradient xlink:href="#p" id="aC" x1="145.556" x2="129.055" y1="333.918" y2="306.339" gradientUnits="userSpaceOnUse"/><linearGradient xlink:href="#q" id="aE" x1="149.989" x2="134.442" y1="341.206" y2="315.449" gradientUnits="userSpaceOnUse"/><linearGradient xlink:href="#r" id="aD" x1="153.155" x2="145.615" y1="308.684" y2="321.106" gradientUnits="userSpaceOnUse"/><linearGradient xlink:href="#t" id="aG" x1="135.766" x2="142.716" y1="314.139" y2="332.201" gradientUnits="userSpaceOnUse"/><linearGradient xlink:href="#u" id="aH" x1="474.497" x2="474.611" y1="275.064" y2="407.471" gradientTransform="matrix(.19847 -.08389 .11955 .21343 15.351 259.517)" gradientUnits="userSpaceOnUse"/><linearGradient xlink:href="#w" id="aI" x1="187.536" x2="187.536" y1="-7.033" y2="173.616" gradientTransform="matrix(.09643 -.03926 .04866 .08975 123.877 284.99)" gradientUnits="userSpaceOnUse"/><linearGradient xlink:href="#u" id="aK" x1="474.497" x2="474.611" y1="275.064" y2="407.471" gradientTransform="matrix(.19847 -.08389 .11955 .21343 15.351 259.517)" gradientUnits="userSpaceOnUse"/><linearGradient xlink:href="#w" id="aL" x1="187.536" x2="187.536" y1="-7.033" y2="173.616" gradientTransform="matrix(.09643 -.03926 .04866 .08975 123.877 284.99)" gradientUnits="userSpaceOnUse"/><linearGradient xlink:href="#x" id="aO" x1="2212.456" x2="2312.617" y1="1680.377" y2="1824.956" gradientTransform="rotate(-4.987 -15312.463 16602.316)scale(.74042)" gradientUnits="userSpaceOnUse"/><linearGradient xlink:href="#y" id="aP" x1="2497.154" x2="2653.032" y1="1851.751" y2="1914.049" gradientTransform="rotate(-4.987 -16725.99 20602.758)scale(.74042)" gradientUnits="userSpaceOnUse"/><linearGradient xlink:href="#z" id="aQ" x1="2954.249" x2="2718.465" y1="1865.4" y2="1974.295" gradientTransform="rotate(-4.987 -16725.99 20602.758)scale(.74042)" gradientUnits="userSpaceOnUse"/><linearGradient xlink:href="#A" id="aR" x1="2440.727" x2="2612.54" y1="1886.174" y2="1914.049" gradientTransform="rotate(-4.987 -16725.99 20602.758)scale(.74042)" gradientUnits="userSpaceOnUse"/><linearGradient xlink:href="#A" id="aS" x1="2722.387" x2="2735.231" y1="1809.594" y2="1831.109" gradientTransform="rotate(-4.987 -16725.99 20602.758)scale(.74042)" gradientUnits="userSpaceOnUse"/><linearGradient xlink:href="#B" id="aV" x1="2432.807" x2="2719.721" y1="1964.839" y2="1987.608" gradientTransform="rotate(-4.987 -16725.99 20602.758)scale(.74042)" gradientUnits="userSpaceOnUse"/><linearGradient xlink:href="#C" id="aW" x1="471.187" x2="283.832" y1="-269.999" y2="-113.454" gradientUnits="userSpaceOnUse"/><linearGradient xlink:href="#D" id="aT" x1="325.723" x2="277.735" y1="106.508" y2="-101.192" gradientUnits="userSpaceOnUse"/><radialGradient xlink:href="#E" id="aq" cx="127.82" cy="118.763" r="127.82" fx="127.82" fy="118.763" gradientTransform="translate(-35.937 -69.328)scale(1.28116)" gradientUnits="userSpaceOnUse"/><radialGradient xlink:href="#F" id="av" cx="45.729" cy="44.876" r="65.908" fx="45.729" fy="44.876" gradientTransform="matrix(-.37575 -.49842 -.29206 .29571 71.69 143.151)" gradientUnits="userSpaceOnUse"/><radialGradient xlink:href="#F" id="ah" cx="45.729" cy="44.876" r="65.908" fx="45.729" fy="44.876" gradientTransform="matrix(-.30212 -.37798 -.23483 .22425 53.735 105.07)" gradientUnits="userSpaceOnUse"/><radialGradient xlink:href="#H" id="ak" cx="201.461" cy="4.164" r="52.932" fx="201.461" fy="4.164" gradientTransform="matrix(.61503 .03093 -.03058 .60806 70.633 13.525)" gradientUnits="userSpaceOnUse"/><radialGradient xlink:href="#I" id="aA" cx="111.142" cy="88.491" r="25.028" fx="111.142" fy="88.491" gradientTransform="translate(200.191 482.48)scale(3.54376)" gradientUnits="userSpaceOnUse"/><radialGradient xlink:href="#I" id="az" cx="111.142" cy="88.491" r="25.028" fx="111.142" fy="88.491" gradientTransform="translate(200.191 482.48)scale(3.54376)" gradientUnits="userSpaceOnUse"/><radialGradient xlink:href="#K" id="aF" cx="141.345" cy="327.312" r="10.758" fx="141.345" fy="327.312" gradientTransform="translate(-29.842 -72.2)scale(1.22609)" gradientUnits="userSpaceOnUse"/><radialGradient xlink:href="#M" id="aJ" cx="155.424" cy="300.698" r="9.682" fx="155.424" fy="300.698" gradientTransform="translate(-156.896 -303.586)scale(2.01943)" gradientUnits="userSpaceOnUse"/><radialGradient xlink:href="#M" id="aM" cx="155.424" cy="300.698" r="9.682" fx="155.424" fy="300.698" gradientTransform="translate(-156.896 -303.586)scale(2.01943)" gradientUnits="userSpaceOnUse"/><radialGradient xlink:href="#N" id="aB" cx="61.383" cy="-239.183" r="309.033" fx="61.383" fy="-239.183" gradientTransform="translate(28.09 211.135)" gradientUnits="userSpaceOnUse"/><radialGradient xlink:href="#O" id="ay" cx="133.553" cy="91.81" r="189.373" fx="133.553" fy="91.81" gradientTransform="translate(-19.453 -99.26)scale(1.14566)" gradientUnits="userSpaceOnUse"/><radialGradient xlink:href="#T" id="aN" cx="97.643" cy="80.018" r="260.35" fx="97.643" fy="80.018" gradientTransform="translate(-52.666 -256.344)scale(1.33343)" gradientUnits="userSpaceOnUse"/><radialGradient xlink:href="#U" id="aU" cx="2721.6" cy="1908.9" r="189" fx="2721.6" fy="1908.9" gradientTransform="rotate(-4.987 -17299.607 20113.21)scale(.74042)" gradientUnits="userSpaceOnUse"/><radialGradient xlink:href="#V" id="aX" cx="110.379" cy="76.226" r="103.45" fx="110.379" fy="76.226" gradientTransform="translate(-71.437 -304.891)scale(2.4347)" gradientUnits="userSpaceOnUse"/><radialGradient xlink:href="#W" id="aY" cx="1827.5" cy="511.7" r="855.7" fx="1827.5" fy="511.7" gradientTransform="translate(-156.167 -265.352)scale(.22302)" gradientUnits="userSpaceOnUse"/><radialGradient xlink:href="#X" id="aZ" cx="287.369" cy="-135.954" r="159.55" fx="287.369" fy="-135.954" gradientTransform="translate(25.705 -23.406)" gradientUnits="userSpaceOnUse"/><radialGradient xlink:href="#Y" id="al" cx="211.077" cy="-60.778" r="147.423" fx="211.077" fy="-60.778" gradientUnits="userSpaceOnUse"/><radialGradient xlink:href="#Z" id="aa" cx="1773.918" cy="1154.213" r="774.537" fx="1773.918" fy="1154.213" gradientTransform="matrix(1 0 0 .97506 0 28.783)" gradientUnits="userSpaceOnUse"/></defs><g transform="translate(-545.219 -280.427)scale(1.32582)"><ellipse cx="1773.918" cy="1154.213" fill="url(#aa)" rx="774.537" ry="755.222" style="mix-blend-mode:overlay"/><g transform="translate(792.113 1430.384)scale(5.31522)"><g transform="translate(0 -2)"><path fill="#e13b2e" d="M8.908 137.597a41.76 41.76 0 0 0 2.688 51.855c23.71 26.684 68.823 13.222 79.994-7.009 5.6-10.142 6.747-26.017-2.558-38.85-9.305-12.832-29.06-22.621-43.083-24.297-14.023-1.675-22.313 4.763-27.384 9.217-5.071 4.453-7.585 6.13-9.657 9.084"/><path fill="url(#ab)" d="M43.252 119.068c-12.405-.608-19.95 5.283-24.688 9.444-5.07 4.454-7.583 6.13-9.656 9.084C1.946 147.52-.04 158.81 1.807 169.15a33.8 33.8 0 0 0 13.681 2.897 33.765 33.765 0 0 0 33.766-33.764 33.77 33.77 0 0 0-6.002-19.215"/><path fill="#ff9898" fill-opacity=".388" d="M40.955 119.03c-11.05.17-17.953 5.585-22.39 9.482-5.072 4.454-7.584 6.13-9.657 9.084a41.76 41.76 0 0 0 2.688 51.857c23.71 26.684 68.823 13.221 79.994-7.01 5.6-10.142 6.746-26.017-2.559-38.85-9.304-12.832-29.059-22.62-43.082-24.296a37 37 0 0 0-4.994-.268" style="mix-blend-mode:overlay"/><path fill="url(#ac)" d="M20.041 127.246c-.52.433-1.012.858-1.477 1.266-5.07 4.454-7.583 6.13-9.656 9.084a41.76 41.76 0 0 0 2.688 51.857c12.464 14.027 30.843 16.96 47.095 13.649a61.4 61.4 0 0 0 2.66-17.87 61.35 61.35 0 0 0-41.31-57.986"/><path fill="#ff9898" fill-opacity=".388" d="M40.955 119.03c-11.05.17-17.953 5.585-22.39 9.482-5.072 4.454-7.584 6.13-9.657 9.084a41.76 41.76 0 0 0 2.688 51.857c23.71 26.684 68.823 13.221 79.994-7.01 5.6-10.142 6.746-26.017-2.559-38.85-9.304-12.832-29.059-22.62-43.082-24.296a37 37 0 0 0-4.994-.268" style="mix-blend-mode:overlay"/><path fill="url(#ad)" d="M40.955 119.03c-11.05.17-17.953 5.585-22.39 9.482-5.072 4.454-7.584 6.13-9.657 9.084-3.503 4.993-5.748 10.333-6.877 15.722A54.67 54.67 0 0 0 33.035 202.6c23.106 6.217 50.238-5.094 58.555-20.157 5.6-10.142 6.746-26.017-2.559-38.85-9.304-12.832-29.059-22.62-43.082-24.296a37 37 0 0 0-4.994-.268"/><ellipse cx="81.279" cy="170.913" fill="#f39c96" fill-opacity=".555" rx="6.579" ry="3.631" transform="matrix(.94476 .32775 -.2684 .96331 0 0)"/></g><path fill="#e13b2e" d="M91.798 201.288c1.12 7.082 2.241 14.164 5.732 21.656 14.11 30.286 49.156 31.594 77.817.849 6.212-6.663 11.349-14.025 15.458-21.061 12.292-19.31 12.7-33.848 8.329-56.328-2.693-12.39-8.452-25.425-23.815-24.893-15.363.533-40.328 14.634-55.849 30.192s-21.596 32.57-27.672 49.585"/><path fill="#ff9898" fill-opacity=".388" d="M175.318 121.512c-15.362.532-40.327 14.633-55.847 30.191s-21.598 32.57-27.674 49.584c1.12 7.082 2.242 14.165 5.732 21.656 14.111 30.287 49.157 31.596 77.819.85 6.211-6.663 11.347-14.025 15.457-21.06 12.291-19.31 12.7-33.849 8.33-56.329-2.693-12.389-8.454-25.425-23.817-24.892" style="mix-blend-mode:overlay"/><path fill="url(#ae)" d="M116.943 154.336c-13.676 14.834-19.411 30.892-25.146 46.951 1.12 7.082 2.242 14.165 5.732 21.656 10.32 22.148 31.833 28.8 53.86 18.75a58.3 58.3 0 0 0 8.93-31.004 58.295 58.295 0 0 0-43.376-56.353"/><path fill="#ff9898" fill-opacity=".388" d="M175.318 121.512c-15.362.532-40.327 14.633-55.847 30.191s-21.598 32.57-27.674 49.584c1.12 7.082 2.242 14.165 5.732 21.656 14.111 30.287 49.157 31.596 77.819.85 6.211-6.663 11.347-14.025 15.457-21.06 12.291-19.31 12.7-33.849 8.33-56.329-2.693-12.389-8.454-25.425-23.817-24.892" style="mix-blend-mode:overlay"/><path fill="url(#af)" d="M175.318 121.512c-15.362.532-40.327 14.633-55.847 30.191s-21.598 32.57-27.674 49.584c.494 3.122.988 6.245 1.685 9.402a90.23 90.23 0 0 0 45.58 12.358 90.23 90.23 0 0 0 47.49-13.508 133 133 0 0 0 4.253-6.807c12.291-19.309 12.7-33.848 8.33-56.328-2.693-12.389-8.454-25.425-23.817-24.892"/><ellipse cx="10.492" cy="269.741" fill="#f39c96" fill-opacity=".555" rx="7.094" ry="4.135" transform="matrix(.8894 -.45711 .50313 .86421 0 0)"/><path fill="url(#ag)" d="M39.836 59.018c-6.354 1.238-15.263 4.15-22.273 8.81-30.772 20.456-17.851 63.092 16.77 54.821 7.01-1.674 14.216-4.878 19.129-11.357 4.913-6.48 7.533-16.236 7.206-25.555-.328-9.319-3.603-18.2-7.14-22.86-3.538-4.66-7.337-5.096-13.692-3.859" transform="matrix(-.20575 1.34907 1.37348 .22718 56.15 -21.844)"/><path fill="url(#ah)" d="M44.159 58.445c3.915-.181 6.715.937 9.368 4.432 3.538 4.66 6.813 13.542 7.14 22.861.329 9.32-2.292 19.073-7.206 25.553-4.913 6.48-12.117 9.684-19.127 11.358-34.622 8.271-47.542-34.365-16.77-54.821 7.01-4.66 15.918-7.572 22.273-8.81 1.588-.31 3.017-.513 4.322-.573" style="mix-blend-mode:overlay" transform="matrix(-.20575 1.34907 1.37348 .22718 56.15 -21.844)"/><path fill="url(#ai)" fill-opacity=".471" d="M43.678 58.473c-1.173.083-2.447.273-3.842.545-6.354 1.237-15.262 4.15-22.272 8.81-30.772 20.456-17.852 63.091 16.77 54.82 7.01-1.674 14.214-4.877 19.127-11.357 1.665-2.196 3.067-4.768 4.18-7.572a54.155 60.187 0 0 0 .166-4.703 54.155 60.187 0 0 0-14.13-40.543" style="mix-blend-mode:multiply" transform="matrix(-.20575 1.34907 1.37348 .22718 56.15 -21.844)"/><path fill="url(#aj)" d="M154.13 40.606A51.008 48.98 90 0 1 187.09.19a43 43 0 0 1 8.096 1.548 40.4 40.4 0 0 1 6.275 2.426c3.992 1.943 7.57 4.525 10.548 7.654h.002a33.6 33.6 0 0 1 3.993 5.094 32.7 32.7 0 0 1 3.993 9.033 34 34 0 0 1 .73 3.349c.567 3.428.635 7.088.131 10.942a43 43 0 0 1-.697 3.916c-.598 2.652-1.464 5.384-2.619 8.185a63 63 0 0 1-3.237 6.732 52 52 0 0 1-1.974 3.247 46 46 0 0 1-2.242 3.104 39.6 39.6 0 0 1-5.374 5.614 36 36 0 0 1-3.177 2.422 35 35 0 0 1-3.531 2.107 39 39 0 0 1-3.894 1.754h-.002c-.307.118-.642.203-.954.315-.46.167-.932.313-1.403.465-.62.202-1.215.435-1.852.613h-.002c-.74.206-1.52.353-2.281.528-.3.069-.571.178-.873.242a83.812 73.878 11.906 0 1-.11-.014 83.812 73.878 11.906 0 1-.005 0c-1.91.4-3.854.742-5.855.949-5.523.572-11.316.407-16.94-.5a51.008 48.98 90 0 1-9.706-39.309" style="mix-blend-mode:multiply"/><path fill="url(#ak)" d="M181.926.012a46.4 46.4 0 0 0-10.604 1.496 49 49 0 0 0-5.334 1.726 51 51 0 0 0-5.281 2.412h-.002a53 53 0 0 0-5.178 3.124 57 57 0 0 0-5.021 3.863 61 61 0 0 0-4.809 4.627 65 65 0 0 0-4.219 5.03 52.93 52.93 0 0 0 52.932 52.93 53 53 0 0 0 4.584-.199 36 36 0 0 0 1.95-1.18c.126-.081.247-.168.372-.251.07-.047.151-.086.221-.133.213-.145.399-.313.607-.46.503-.358 1.007-.713 1.485-1.09.237-.188.464-.381.695-.573.125-.104.266-.194.389-.299.134-.114.249-.243.38-.36q.503-.438.987-.892c.321-.303.63-.615.94-.928l.119-.117c.17-.173.351-.336.517-.511.049-.052.104-.099.153-.15.166-.178.31-.371.472-.552.265-.293.514-.596.77-.896.344-.404.71-.794 1.037-1.21.148-.187.273-.388.418-.577.31-.407.6-.823.894-1.238.307-.432.64-.848.93-1.288v-.002c.091-.138.168-.283.258-.421.136-.21.254-.426.387-.637l.027-.043q.409-.651.797-1.31c.163-.28.348-.55.506-.833.368-.656.699-1.327 1.039-1.994.136-.268.285-.531.418-.8a66 66 0 0 0 1.78-3.938q.595-1.44 1.087-2.856c.28-.804.472-1.583.705-2.375.164-.559.332-1.117.473-1.67.094-.368.22-.745.304-1.11.013-.058.036-.118.049-.175.045-.197.062-.387.104-.584.086-.408.14-.805.214-1.209.13-.709.288-1.427.38-2.123v-.002c.01-.08.003-.154.013-.234.057-.459.076-.903.117-1.356.062-.683.091-1.351.117-2.021.024-.608.082-1.228.077-1.824-.001-.063.012-.13.011-.194-.004-.308-.066-.592-.078-.898a36 36 0 0 0-.123-1.926c-.06-.64-.12-1.276-.213-1.9-.028-.191-.021-.398-.052-.588-.051-.306-.137-.594-.196-.897a34 34 0 0 0-.252-1.166c-.077-.333-.136-.675-.222-1.004-.024-.091-.036-.19-.06-.28-.1-.367-.24-.713-.35-1.073a33 33 0 0 0-.327-1.008c-.087-.254-.16-.515-.254-.765-.04-.111-.068-.23-.11-.34l-.05-.114c-.092-.237-.21-.459-.308-.693a33 33 0 0 0-1.19-2.578c-.063-.12-.12-.244-.183-.363-.154-.287-.336-.553-.498-.834-.243-.421-.463-.858-.723-1.266-.19-.298-.412-.57-.611-.861-.052-.076-.093-.158-.145-.233-.063-.091-.113-.192-.178-.283l-.12-.164c-.11-.152-.238-.29-.35-.44a34 34 0 0 0-1.56-1.925c-.25-.287-.488-.583-.747-.862-.098-.105-.182-.222-.281-.326h-.002a35 35 0 0 0-2.258-2.16c-.028-.025-.052-.053-.08-.078l-.002-.002h-.002l-.002-.002-.053-.04q-.001-.003-.004-.005c-.333-.29-.694-.548-1.039-.826-.52-.42-1.032-.847-1.576-1.238q-.165-.118-.332-.233c-.304-.213-.628-.4-.94-.605-.509-.335-1.01-.68-1.537-.99-.075-.045-.146-.099-.222-.143-.17-.098-.351-.178-.522-.273-.344-.193-.696-.372-1.047-.555-.314-.164-.614-.348-.933-.504-.097-.047-.2-.083-.297-.129-.383-.182-.776-.345-1.166-.516-.353-.154-.702-.312-1.06-.457q-.472-.192-.95-.373c-.12-.045-.234-.104-.355-.148h-.002c-.266-.096-.545-.165-.813-.256-.1-.034-.205-.064-.306-.097-.15-.05-.297-.105-.448-.153-.253-.08-.498-.178-.753-.254-.043-.012-.083-.03-.125-.043-.142-.041-.292-.065-.434-.105a42 42 0 0 0-2.428-.59c-.352-.077-.693-.183-1.049-.252-.097-.019-.197-.03-.295-.049h-.006c-.087-.016-.171-.043-.26-.058h-.001a43 43 0 0 0-3.244-.44c-.128-.013-.251-.043-.38-.055a51.008 48.98 90 0 1-.001.002h-.002a45 45 0 0 0-5.16-.18z" style="mix-blend-mode:overlay"/><circle cx="126.247" cy="109.361" r="100.716" fill="#ff9ccc"/><path fill="url(#al)" d="M182.701 0c-.144 0-.291.021-.435.023-.115.002-.226-.014-.34-.011-.25.006-.506.052-.756.062-.443.018-.885.055-1.33.086-.494.034-.982.032-1.479.082-.335.034-.673.103-1.01.145h-.005c-.613.076-1.225.185-1.84.287l-.014.002c-.222.036-.442.061-.664.101-.125.023-.248.035-.373.059-.194.037-.385.05-.578.09-.51.103-1.02.256-1.53.377-.342.08-.682.116-1.025.205-.3.078-.6.208-.9.293l-.008.002a48 48 0 0 0-2.432.754q-.607.204-1.213.425c-.26.096-.521.152-.781.252-.197.077-.39.19-.588.27h-.002a51 51 0 0 0-3.547 1.621l-.049.021c-.363.181-.733.31-1.095.5h-.002c-.054.029-.105.068-.159.096l-.082.049h-.002v.002h-.002l-.002.002-.002.002c-1.056.565-2.098 1.216-3.14 1.869-.475.298-.957.555-1.428.871h-.002c-.086.058-.172.112-.258.17-.033.023-.068.04-.101.063a57 57 0 0 0-3.721 2.8c-.027.022-.055.039-.082.06-.094.077-.191.138-.285.216a100.7 100.7 0 0 0-25.192-3.201 101 101 0 0 0-14.326 1.07l-.02-.043a101 101 0 0 0-6.84 1.459 101 101 0 0 0-6.106 1.303 101 101 0 0 0-6.909 2.437 101 101 0 0 0-5.896 2.117l-.246.116a147.42 147.42 0 0 0 125.174 69.54 147 147 0 0 0 13.152-.587 101 101 0 0 0-4.611-14.45 101 101 0 0 0-5.711-11.84l.011-.023q.175-.303.346-.607l.04-.067.09-.166a59 59 0 0 0 1.499-2.883q.66-1.362 1.25-2.738.084-.194.164-.387.12-.279.234-.558.594-1.44 1.086-2.856l.034-.1.035-.103c.253-.735.423-1.447.636-2.172.165-.559.332-1.117.473-1.67.09-.354.21-.716.293-1.068l.012-.043c.01-.044.026-.091.039-.137l.004-.013v-.004l.002-.006v-.004l.002-.002v-.002l.002-.002v-.004l.01-.043.01-.043c.027-.139.047-.275.072-.414a44 44 0 0 0 .608-3.416v-.01l.004-.008v-.006c.019-.145.018-.284.035-.43.006-.046.006-.09.012-.136v-.002c.05-.441.073-.87.109-1.307.052-.63.135-1.27.156-1.888.013-.372-.018-.725-.015-1.092v-.026c0-.232.038-.478.035-.709a.4.4 0 0 0-.002-.064c-.003-.2-.045-.384-.051-.582-.012-.381.008-.776-.016-1.152a35 35 0 0 0-.388-3.46l-.002-.023q-.004-.025-.01-.049l-.018-.1-.004-.023c-.071-.42-.187-.82-.273-1.234q-.073-.353-.153-.705c-.076-.334-.136-.675-.222-1.004-.024-.092-.036-.19-.06-.281l-.013-.04v-.001l-.002-.006-.002-.004-.004-.022-.002-.01v-.004q-.001-.005-.006-.011c-.115-.42-.273-.818-.404-1.23q-.117-.379-.244-.753c-.087-.254-.16-.514-.254-.765-.041-.111-.069-.23-.111-.34l-.016-.035v-.006h-.002v-.002l-.006-.02-.006-.013-.014-.034c-.18-.462-.404-.897-.603-1.347l-.078-.178c-.209-.465-.394-.943-.623-1.395-.01-.017-.015-.035-.024-.052h-.002v-.002l-.004-.006-.004-.008c-.058-.115-.13-.22-.189-.334-.054-.105-.104-.212-.16-.316-.154-.287-.336-.553-.498-.834-.243-.421-.463-.858-.723-1.266l-.03-.045c-.083-.128-.174-.25-.265-.373q-.054-.078-.11-.154c-.036-.055-.076-.106-.112-.16l-.002-.002-.002-.002q-.001-.004-.004-.006l-.104-.149c-.043-.067-.081-.138-.127-.203-.064-.091-.113-.192-.178-.283l-.12-.164c-.106-.146-.226-.278-.335-.42-.168-.226-.316-.468-.49-.69l-.012-.013v-.002l-.002-.002-.008-.008-.006-.008-.002-.002-.002-.002v-.002c-.331-.421-.701-.81-1.052-1.215l-.002-.002-.043-.05c-.318-.365-.615-.746-.948-1.096l-.037-.041h-.002a35 35 0 0 0-2.324-2.225l-.014-.013-.002-.002h-.002l-.004-.002-.047-.04-.008-.003-.002-.002c-.313-.274-.652-.519-.976-.782a36 36 0 0 0-.865-.677l-.041-.032c-.085-.064-.165-.133-.25-.197-.19-.14-.363-.3-.555-.437l-.025-.018c-.076-.054-.157-.1-.233-.154-.304-.214-.628-.4-.94-.606-.508-.335-1.01-.679-1.536-.99-.062-.036-.121-.079-.182-.117l-.012-.008-.027-.017h-.002l-.027-.016-.02-.012a39 39 0 0 0-2.455-1.304c-.09-.044-.185-.078-.275-.12l-.018-.007c-.097-.047-.187-.105-.285-.15l-.014-.007-.03-.011h-.001l-.002-.002v-.002h-.002c-.265-.123-.546-.219-.815-.336l-.004-.002-.017-.008c-.353-.154-.702-.312-1.06-.457q-.45-.183-.903-.355l-.012-.004-.035-.014-.049-.022c-.102-.041-.202-.088-.306-.127h-.002l-.02-.005-.025-.01-.057-.018a41 41 0 0 0-2.344-.77c-.14-.04-.29-.065-.431-.105h-.002l-.014-.004c-.169-.047-.33-.112-.5-.158h-.004c-.394-.106-.804-.175-1.203-.27q-.532-.128-1.069-.244c-.227-.058-.454-.12-.687-.166-.074-.014-.149-.023-.223-.037l-.072-.011h-.006c-.087-.017-.17-.043-.258-.059h-.004A44 44 0 0 0 187.898.3c-.094-.01-.186-.027-.28-.037-.165-.017-.324-.055-.49-.07l-.04-.004a51.008 48.98 90 0 1-.003.002h-.002a45 45 0 0 0-4.382-.19"/><path fill="url(#am)" d="M126.563 42.188A117.97 117.97 0 0 0 26.146 98.242a101 101 0 0 0-.615 11.12 100.716 100.716 0 0 0 100.717 100.714 100.716 100.716 0 0 0 100.715-100.715 101 101 0 0 0-.76-12.359 117.97 117.97 0 0 0-99.64-54.814"/><path fill="url(#an)" d="M111.902 9.672a100.716 100.716 0 0 0-86.37 99.69 100.7 100.7 0 0 0 13.671 50.663A106.25 106.25 0 0 0 122.656 56.25a106.25 106.25 0 0 0-10.754-46.578"/><path fill="url(#ao)" d="M44.344 50.746a100.7 100.7 0 0 0-18.813 58.615 100.716 100.716 0 0 0 100.717 100.715 101 101 0 0 0 10.516-.549 109.4 109.4 0 0 0 11.84-49.502A109.4 109.4 0 0 0 44.344 50.746"/><path fill="url(#ap)" d="M126.248 8.645A100.72 100.72 0 0 0 33.811 69.37a114.55 114.55 0 0 0 106.267 71.79 114.55 114.55 0 0 0 86.586-39.556 100.716 100.716 0 0 0-100.416-92.96" style="mix-blend-mode:overlay"/><path fill="url(#aq)" d="M126.248 8.645A100.716 100.716 0 0 0 25.531 109.36a100.716 100.716 0 0 0 100.717 100.715A100.716 100.716 0 0 0 226.963 109.36 100.716 100.716 0 0 0 126.248 8.645" style="mix-blend-mode:overlay"/><path fill="url(#ar)" d="M126.563 42.188A117.97 117.97 0 0 0 26.146 98.242a101 101 0 0 0-.615 11.12 100.716 100.716 0 0 0 100.717 100.714 100.716 100.716 0 0 0 100.715-100.715 101 101 0 0 0-.76-12.359 117.97 117.97 0 0 0-99.64-54.814"/><path fill="url(#as)" fill-opacity=".471" d="M77.217 139.486c-1.475 4.432-3.447 8.488-5.865 11.87-3.629 5.073-23.211 8.087-30.956 10.667v.001a100.7 100.7 0 0 0 11.577 15.358c10.602-7.818 25.243-26.208 25.244-37.896" style="mix-blend-mode:multiply"/><path fill="url(#at)" fill-opacity=".471" d="M77.217 139.486c-.158.474-.363.907-.531 1.371-.047.128-.082.266-.13.393a67.355 79.365 0 0 1-.007.12l-.008.017a51 51 0 0 1-1.078 2.652l-.072.168v.001h-.002l-.002.001v.002l-.02.043-.004.012q-.001.005-.004.009l-.062.133a45 45 0 0 1-1.78 3.53l-.01.015q0 .005-.003.006a38 38 0 0 1-2.153 3.39l-.002.001a34 34 0 0 1-1.912 2.42c-.11.127-.223.247-.334.371-.06.067-.111.147-.171.213-.144.16-.304.292-.45.447-.364.39-.727.78-1.105 1.147-.24.233-.49.451-.735.676-.124.113-.236.248-.36.36-.095.083-.197.15-.292.232q-.396.345-.8.677c-.308.252-.622.49-.936.73-.264.202-.518.42-.785.614l-.024.016-.008.005c-.147.106-.304.19-.453.295-.364.254-.738.48-1.11.72-.48.312-.95.652-1.44.94-.15.087-.307.156-.458.242-.357.203-.722.382-1.084.574-.528.28-1.047.584-1.584.84l-.056.025h-.002l-.004.001c-.31.148-.629.266-.941.406q-.628.282-1.26.543c-.317.131-.629.285-.948.409h-.002q-1.162.448-2.333.84a59 59 0 0 1-4.202 1.23q-1.235.313-2.441.553c-.473.094-.933.16-1.39.22a101 101 0 0 0 8.243 10.278c10.603-7.818 25.244-26.208 25.245-37.897z" style="mix-blend-mode:multiply"/><path fill="url(#au)" d="M54.405 82.426c-7.903 1.632-18.984 5.472-27.702 11.616-38.272 26.974-22.203 83.197 20.858 72.29 8.718-2.208 17.68-6.432 23.79-14.976 6.111-8.545 9.37-21.409 8.963-33.697s-4.482-24.001-8.881-30.145c-4.4-6.144-9.125-6.72-17.028-5.088"/><path fill="url(#av)" d="M59.78 81.669c4.87-.239 8.353 1.236 11.653 5.844 4.4 6.145 8.473 17.858 8.88 30.147s-2.852 25.15-8.962 33.695c-6.11 8.544-15.072 12.77-23.79 14.978-43.06 10.906-59.13-45.316-20.857-72.29 8.718-6.145 19.798-9.986 27.701-11.618 1.976-.408 3.752-.677 5.375-.756" style="mix-blend-mode:overlay"/><path fill="url(#aw)" fill-opacity=".471" d="M59.182 81.706c-1.459.11-3.042.36-4.778.719-7.903 1.632-18.982 5.473-27.7 11.618-38.272 26.974-22.203 83.195 20.857 72.289 8.718-2.209 17.678-6.433 23.79-14.977 2.07-2.896 3.813-6.288 5.197-9.985a67.355 79.365 0 0 0 .207-6.202 67.355 79.365 0 0 0-17.573-53.462" style="mix-blend-mode:multiply"/><path fill="url(#ax)" d="M46.443 105.273a46.44 46.44 0 0 0-41.246 25.094c-.18 2.646-.113 5.26.188 7.803a39 39 0 0 0 1.248 6.223c1.154 4.015 2.943 7.735 5.314 10.97v.002a31 31 0 0 0 3.987 4.467 29.3 29.3 0 0 0 7.529 5.03 30 30 0 0 0 2.902 1.161c2.999 1.02 6.28 1.608 9.82 1.686q1.771.04 3.626-.094c2.473-.18 5.058-.601 7.75-1.283a56 56 0 0 0 6.535-2.07 47 47 0 0 0 3.213-1.385 42 42 0 0 0 3.125-1.656 36.7 36.7 0 0 0 5.847-4.23 34 34 0 0 0 5.07-5.635 38 38 0 0 0 2.157-3.397v-.002c.152-.27.278-.571.426-.848.218-.407.419-.828.627-1.248.273-.552.571-1.075.826-1.646v-.002c.296-.664.543-1.373.814-2.06.107-.27.245-.51.348-.784a67.355 79.365 0 0 0 .004-.105 67.355 79.365 0 0 0 0-.004c.644-1.731 1.24-3.503 1.724-5.348 1.337-5.09 2.05-10.539 2.07-15.936a46.44 46.44 0 0 0-33.904-14.703" style="mix-blend-mode:multiply"/><path fill="url(#ay)" fill-opacity=".447" d="M182.701 0c-.144 0-.291.021-.435.023-.115.002-.226-.014-.34-.011-.25.006-.506.052-.756.062-.443.018-.885.055-1.33.086-.494.034-.982.032-1.479.082-.335.034-.673.103-1.01.145h-.005c-.613.076-1.225.185-1.84.287l-.014.002c-.222.036-.442.061-.664.101-.125.023-.248.035-.373.059-.194.037-.385.05-.578.09-.51.103-1.02.256-1.53.377-.342.08-.682.116-1.025.205-.3.078-.6.208-.9.293l-.008.002a48 48 0 0 0-2.432.754q-.607.204-1.213.425c-.26.096-.521.152-.781.252-.197.077-.39.19-.588.27h-.002a51 51 0 0 0-3.547 1.621l-.049.021c-.363.181-.733.31-1.095.5h-.002c-.054.029-.105.068-.159.096l-.082.049h-.002v.002h-.002l-.002.002-.002.002c-1.056.565-2.098 1.216-3.14 1.869-.475.298-.957.555-1.428.871h-.002c-.086.058-.172.112-.258.17-.033.023-.068.04-.101.063a57 57 0 0 0-3.721 2.8c-.027.022-.055.039-.082.06-.094.077-.191.138-.285.216a100.7 100.7 0 0 0-25.192-3.201 101 101 0 0 0-14.326 1.07l-.02-.043a101 101 0 0 0-6.84 1.459 101 101 0 0 0-6.106 1.303 101 101 0 0 0-6.909 2.437 101 101 0 0 0-5.896 2.117 101 101 0 0 0-6.684 3.436 101 101 0 0 0-5.38 2.795h-.003a101 101 0 0 0-6.5 4.549 101 101 0 0 0-4.535 3.171l-.094.088-.005.004a101 101 0 0 0-6.344 5.865 101 101 0 0 0-3.633 3.372 101 101 0 0 0-7.219 8.767 101 101 0 0 0-7.426 11.254l-.002.004a101 101 0 0 0-1.652 3.32 101 101 0 0 0-3.207 6.715 101 101 0 0 0-.49 1.027v.002a101 101 0 0 0-2.307 6.77l-.008.023a101 101 0 0 0-1.304 3.829l-.002.005a101 101 0 0 0-2.653 12.059c-6.945 4.895-12.1 10.754-15.63 17a47 47 0 0 0-2.344 4.746l-.002.002a46 46 0 0 0-1.75 4.838 44.5 44.5 0 0 0-1.78 9.736v.002c-.109 1.6-.098 3.18-.029 4.746.008.173-.013.35-.004.522v.014c.016.28.078.548.1.828v.004c.043.562.055 1.133.121 1.69q.155 1.314.395 2.6a42 42 0 0 0-2.256 5.225V146c-.208.587-.319 1.184-.498 1.774-.359 1.18-.746 2.357-.994 3.545v.006l-.004.023a41 41 0 0 0-.664 4.524c-.013.132-.048.264-.059.396-.029.336-.005.668-.025 1.004v.014a42 42 0 0 0-.082 3.154 42 42 0 0 0 .334 4.596c.063.5.114 1 .195 1.496v.006l.002.002c.033.202.042.41.078.611l.055.022c.217 1.21.437 2.42.757 3.6q.633 2.327 1.52 4.554v.002a42 42 0 0 0 2.02 4.33v.002a41 41 0 0 0 1.97 3.29A217 217 0 0 0 40.683 202c.975.085 1.955.123 2.933.176.754.04 1.505.152 2.258.162l.026-.002c.048 0 .096-.008.144-.008h.008c1.43.014 2.855-.09 4.28-.182.666-.043 1.34-.021 2.003-.086.013 0 .025-.005.037-.006l.051-.008h.004c7.831-.776 15.418-3.064 21.926-6.367a100.7 100.7 0 0 0 17.904 8.49c.356 2.165.742 4.335 1.225 6.522.649 2.938 1.472 5.908 2.636 8.935a217 217 0 0 0 37.434 3.254 217 217 0 0 0 47.03-5.158 120 120 0 0 0 5.968-8.182h.002a133 133 0 0 0 4.252-6.806c5.913-9.289 9.075-17.473 10.28-25.97l.001-.001a101 101 0 0 0 7.657-9.623v-.002a101 101 0 0 0 6.427-10.485v-.002a101 101 0 0 0 5.102-11.189v-.002a101 101 0 0 0 3.699-11.728 100.7 100.7 0 0 0 2.992-24.37 101 101 0 0 0-.758-12.314l-.002-.045V97a100.7 100.7 0 0 0-6.584-25.393 101 101 0 0 0-5.71-11.84l.011-.023q.175-.303.346-.607l.039-.067.092-.166a59 59 0 0 0 1.498-2.883q.66-1.362 1.25-2.738l.164-.387q.12-.279.234-.558.594-1.44 1.086-2.856l.033-.1.036-.103c.253-.735.423-1.447.636-2.172.165-.559.332-1.117.473-1.67.09-.354.21-.716.293-1.068l.012-.043c.01-.044.026-.091.039-.137q.001-.007.004-.013v-.004l.002-.006v-.004l.002-.002v-.002l.002-.002v-.004l.01-.043.01-.043c.027-.139.047-.275.072-.414.246-1.153.46-2.295.607-3.416v-.01l.004-.008v-.006c.02-.145.018-.284.036-.43.006-.046.006-.09.011-.136v-.002c.052-.441.074-.87.11-1.307.052-.63.134-1.27.156-1.888.013-.371-.018-.725-.016-1.092v-.026c.001-.232.039-.478.036-.709a.4.4 0 0 0-.002-.064c-.003-.2-.045-.384-.051-.582-.012-.381.008-.776-.016-1.152a35 35 0 0 0-.388-3.46l-.002-.023-.01-.049-.018-.1-.004-.023c-.071-.42-.187-.82-.273-1.234q-.074-.353-.153-.705c-.077-.334-.136-.675-.222-1.004-.025-.092-.036-.19-.061-.281l-.012-.04v-.001l-.002-.006-.002-.004-.004-.022-.002-.01v-.004q-.001-.005-.006-.011c-.115-.42-.273-.818-.404-1.23-.08-.252-.158-.504-.244-.753-.088-.254-.16-.514-.254-.765-.041-.111-.069-.23-.111-.34l-.016-.035v-.006h-.002v-.002l-.006-.02-.006-.013-.014-.034c-.18-.462-.404-.897-.603-1.347l-.078-.178c-.209-.465-.395-.943-.623-1.395-.01-.017-.015-.035-.024-.052h-.002v-.002l-.004-.006-.004-.008c-.058-.115-.13-.22-.19-.334-.053-.105-.103-.212-.16-.316-.153-.287-.335-.553-.497-.834-.243-.421-.463-.858-.723-1.266l-.03-.045c-.083-.128-.174-.25-.265-.373q-.054-.078-.11-.154l-.113-.16-.002-.002-.002-.002q0-.004-.004-.006l-.103-.149c-.043-.067-.082-.137-.127-.203-.064-.091-.113-.192-.178-.283l-.12-.164c-.106-.146-.227-.278-.335-.42-.168-.226-.316-.468-.49-.69l-.012-.013v-.002l-.002-.002-.008-.008-.006-.008-.002-.002-.002-.002v-.002c-.331-.421-.701-.81-1.053-1.215l-.002-.002-.043-.05c-.317-.365-.614-.746-.947-1.096l-.037-.041h-.002a35 35 0 0 0-2.324-2.225l-.014-.013-.002-.002h-.002l-.004-.002-.047-.04-.008-.003-.002-.002c-.313-.274-.652-.519-.976-.782a36 36 0 0 0-.866-.677l-.04-.032c-.085-.064-.165-.133-.25-.197-.19-.14-.363-.3-.555-.437l-.026-.018c-.075-.054-.156-.1-.232-.154-.304-.214-.628-.4-.94-.606-.509-.335-1.01-.679-1.537-.99-.061-.036-.12-.079-.181-.117l-.012-.008-.027-.017h-.002l-.028-.016-.02-.012a39 39 0 0 0-2.454-1.304c-.09-.044-.185-.078-.276-.12l-.017-.007c-.098-.047-.187-.105-.285-.15l-.014-.007-.03-.011h-.001l-.002-.002v-.002h-.002c-.265-.123-.546-.219-.815-.336l-.004-.002-.017-.008c-.353-.154-.702-.312-1.06-.457q-.45-.183-.903-.355l-.012-.004-.035-.014q-.025-.01-.049-.022c-.102-.041-.202-.088-.307-.126h-.002l-.02-.006-.024-.01-.057-.018a41 41 0 0 0-2.344-.77c-.14-.04-.29-.065-.431-.105h-.002l-.014-.004c-.17-.047-.33-.112-.5-.158h-.004c-.394-.106-.804-.175-1.203-.27-.356-.084-.71-.168-1.069-.243-.227-.059-.454-.121-.687-.166-.074-.015-.15-.024-.223-.038l-.072-.011h-.006c-.087-.017-.17-.043-.258-.059h-.004A44 44 0 0 0 187.898.3c-.094-.01-.186-.027-.28-.037-.165-.017-.324-.055-.49-.07l-.041-.004a51.008 48.98 90 0 1-.002.002h-.002a45 45 0 0 0-4.382-.19" style="mix-blend-mode:overlay"/><g fill-opacity=".769" transform="matrix(.20623 -.2065 .2085 .17858 -111.612 46.651)"><ellipse cx="677.882" cy="745.614" fill="#ff588e" rx="35.625" ry="25.198" transform="rotate(5.952)"/><path fill="url(#az)" d="M617.006 710.4a88.7 88.7 0 0 0-22.955-3.023 88.7 88.7 0 0 0-63.151 26.415q1.023.925 2.061 1.849l.003.003.005.005.003.002.043.041.008.008.027.026a282.508 283.93 13.311 0 0-.147.622 282.508 283.93 13.311 0 0-6.205 36.86 282.508 283.93 13.311 0 0-.148 4.132 282.508 283.93 13.311 0 0-.002.052 282.508 283.93 13.311 0 0 0 .038 282.508 283.93 13.311 0 0-.003.054 282.508 283.93 13.311 0 0 0 .031 282.508 283.93 13.311 0 0-.013.34 282.508 283.93 13.311 0 0-1.167 32.7 282.508 283.93 13.311 0 0 3.563 37.189l-.026.152-.34 2.055-.018.012-.007.005-.027.02-.025.016-.59.407q-1.274.876-2.546 1.758a88.7 88.7 0 0 0 68.702 32.598 88.695 88.695 0 0 0 88.694-88.695 88.695 88.695 0 0 0-65.739-85.672" opacity=".483" style="mix-blend-mode:overlay"/></g><g fill-opacity=".769" transform="matrix(.27602 -.10621 .11047 .2546 -163.948 -28.47)"><ellipse cx="677.882" cy="745.614" fill="#ff588e" rx="35.625" ry="25.198" transform="rotate(5.952)"/><path fill="url(#aA)" d="M617.006 710.4a88.7 88.7 0 0 0-22.955-3.023 88.7 88.7 0 0 0-63.151 26.415q1.023.925 2.061 1.849l.003.003.005.005.003.002.043.041.008.008.027.026a282.508 283.93 13.311 0 0-.147.622 282.508 283.93 13.311 0 0-6.205 36.86 282.508 283.93 13.311 0 0-.148 4.132 282.508 283.93 13.311 0 0-.002.052 282.508 283.93 13.311 0 0 0 .038 282.508 283.93 13.311 0 0-.003.054 282.508 283.93 13.311 0 0 0 .031 282.508 283.93 13.311 0 0-.013.34 282.508 283.93 13.311 0 0-1.167 32.7 282.508 283.93 13.311 0 0 3.563 37.189l-.026.152-.34 2.055-.018.012-.007.005-.027.02-.025.016-.59.407q-1.274.876-2.546 1.758a88.7 88.7 0 0 0 68.702 32.598 88.695 88.695 0 0 0 88.694-88.695 88.695 88.695 0 0 0-65.739-85.672" opacity=".483" style="mix-blend-mode:overlay"/></g><path fill="url(#aB)" d="M182.701 0c-.144 0-.291.021-.435.023-.115.002-.226-.014-.34-.011-.25.006-.506.052-.756.062-.443.018-.885.055-1.33.086-.494.034-.982.032-1.479.082-.335.034-.673.103-1.01.145h-.005c-.613.076-1.225.185-1.84.287l-.014.002c-.222.036-.442.061-.664.101-.125.023-.248.035-.373.059-.194.037-.385.05-.578.09-.51.103-1.02.256-1.53.377-.342.08-.682.116-1.025.205-.3.078-.6.208-.9.293l-.008.002a48 48 0 0 0-2.432.754q-.607.204-1.213.425c-.26.096-.521.152-.781.252-.197.077-.39.19-.588.27h-.002a51 51 0 0 0-3.547 1.621l-.049.021c-.363.181-.733.31-1.095.5h-.002c-.054.029-.105.068-.159.096l-.082.049h-.002v.002h-.002l-.002.002v.002h-.002c-1.056.565-2.098 1.216-3.14 1.869-.475.298-.957.555-1.428.871h-.002c-.086.058-.172.112-.258.17-.033.023-.068.04-.101.063a57 57 0 0 0-3.721 2.8c-.027.022-.055.039-.082.06-.094.077-.191.138-.285.216a100.7 100.7 0 0 0-25.192-3.201 101 101 0 0 0-14.326 1.07l-.02-.043a101 101 0 0 0-6.84 1.459 101 101 0 0 0-6.106 1.303 101 101 0 0 0-6.909 2.437 101 101 0 0 0-5.896 2.117 101 101 0 0 0-6.684 3.436 101 101 0 0 0-5.38 2.795h-.003a101 101 0 0 0-6.5 4.549 101 101 0 0 0-4.535 3.171l-.094.088-.005.004a101 101 0 0 0-6.344 5.865 101 101 0 0 0-3.633 3.372 101 101 0 0 0-7.219 8.767 101 101 0 0 0-7.426 11.254l-.002.004a101 101 0 0 0-1.652 3.32 101 101 0 0 0-3.207 6.715 101 101 0 0 0-.49 1.027v.002a101 101 0 0 0-2.307 6.77l-.008.023a101 101 0 0 0-1.304 3.829l-.002.005a101 101 0 0 0-2.653 12.059c-6.945 4.895-12.1 10.754-15.63 17a47 47 0 0 0-2.344 4.746l-.002.002a46 46 0 0 0-1.75 4.838 44.5 44.5 0 0 0-1.78 9.736v.002c-.109 1.6-.098 3.18-.029 4.746.008.173-.013.35-.004.522v.014c.016.28.078.548.1.828v.004c.043.562.055 1.133.121 1.69q.155 1.314.395 2.6a42 42 0 0 0-2.256 5.225V146c-.208.587-.319 1.184-.498 1.774-.359 1.18-.746 2.357-.994 3.545v.006l-.004.023a41 41 0 0 0-.664 4.524c-.013.132-.048.264-.059.396-.029.336-.005.668-.025 1.004v.014a42 42 0 0 0-.082 3.154 42 42 0 0 0 .334 4.596c.063.5.114 1 .195 1.496v.004l.002.002v.002c.033.202.042.41.078.611l.055.022c.217 1.21.437 2.42.757 3.6q.633 2.327 1.52 4.554v.002a42 42 0 0 0 2.02 4.33v.002a41 41 0 0 0 2.494 4.057 41 41 0 0 0 2.943 3.736v.002h.002a43.4 43.4 0 0 0 4.65 4.494c.067.056.129.12.196.176.573.473 1.199.827 1.789 1.263 1.166.864 2.323 1.75 3.547 2.477.764.454 1.571.789 2.355 1.191 1.1.565 2.182 1.169 3.315 1.635.865.357 1.762.601 2.644.903.98.334 1.941.735 2.938 1.003l.003.002c.114.031.232.04.346.069.116.03.226.082.342.111h.002c.988.25 2 .373 3 .56l.309.057c.401.073.797.177 1.2.24.393.062.777.18 1.17.233h.003c.028.004.056.002.084.006.06.008.121.006.181.014 1.31.167 2.628.212 3.946.283.753.04 1.504.152 2.257.162l.026-.002c.048 0 .096-.006.144-.006h.008c1.431.014 2.855-.09 4.28-.182.666-.042 1.34-.02 2.003-.086.013 0 .025-.005.037-.006l.051-.008h.004c7.831-.776 15.418-3.063 21.926-6.367a100.7 100.7 0 0 0 17.904 8.49c.356 2.165.742 4.336 1.225 6.522.884 4.004 2.095 8.065 4.047 12.254.79 1.694 1.666 3.267 2.582 4.78.107.176.194.383.302.558.163.26.355.475.522.73a44 44 0 0 0 2.295 3.201c.272.346.535.705.814 1.038a39 39 0 0 0 3.328 3.527c.205.19.426.349.633.533l.012.01q1.485 1.315 3.066 2.438.571.404 1.155.783a35 35 0 0 0 3.185 1.846c.291.148.573.318.867.458l.01.004a34 34 0 0 0 4.204 1.665c.35.112.709.193 1.062.294l.022.006h.002q1.706.493 3.47.813c.442.08.883.159 1.33.223l.012.002a38 38 0 0 0 4.084.361c.168.005.328.04.496.043.037 0 .076-.006.113-.006h.006c1.562.025 3.15-.066 4.752-.229h.004c.463-.046.93-.12 1.395-.183h.006a45 45 0 0 0 3.687-.656c.175-.039.345-.052.52-.092.29-.068.58-.144.871-.217l.053-.016.008-.002a50 50 0 0 0 4.963-1.51c.167-.06.336-.143.503-.206a56 56 0 0 0 3.526-1.446l.05-.095c.548-.25 1.093-.436 1.641-.707a65 65 0 0 0 5.653-3.164c5.642-3.532 11.24-8.17 16.615-13.934 4.228-4.535 7.956-9.395 11.203-14.254h.002a133 133 0 0 0 4.252-6.807c5.913-9.288 9.075-17.473 10.28-25.968l.001-.002a101 101 0 0 0 7.657-9.623v-.002a101 101 0 0 0 6.427-10.485v-.002a101 101 0 0 0 5.102-11.19v-.001a101 101 0 0 0 3.699-11.729 100.7 100.7 0 0 0 2.992-24.369 101 101 0 0 0-.758-12.314l-.002-.045V97a100.7 100.7 0 0 0-6.584-25.393 101 101 0 0 0-5.71-11.84q.004-.011.011-.023.175-.303.346-.608l.039-.066.092-.166a59 59 0 0 0 1.498-2.883q.66-1.363 1.25-2.738l.164-.387.234-.558q.594-1.44 1.086-2.856l.033-.1.036-.103c.253-.735.423-1.447.636-2.172.165-.56.332-1.117.473-1.67.09-.354.21-.716.293-1.068l.012-.043c.01-.045.026-.092.039-.137l.004-.014v-.004l.002-.01v-.001l.004-.006v-.002l.01-.043.008-.043c.027-.14.047-.276.072-.414.246-1.153.46-2.295.607-3.416v-.008l.004-.006v-.01c.02-.146.018-.285.036-.43.006-.046.006-.09.011-.137v-.002c.051-.44.073-.87.11-1.306.052-.63.134-1.27.156-1.889.013-.37-.018-.725-.016-1.092v-.025c.001-.233.039-.478.035-.709a.4.4 0 0 0-.002-.064c-.003-.2-.044-.384-.05-.583-.012-.38.008-.775-.016-1.152a35 35 0 0 0-.389-3.459l-.002-.023-.008-.05-.017-.099-.004-.023c-.071-.421-.188-.82-.274-1.235q-.073-.353-.152-.705c-.077-.333-.136-.675-.223-1.004-.024-.091-.035-.19-.06-.28l-.012-.04-.004-.012-.004-.021-.002-.01q-.001-.008-.006-.015c-.115-.421-.273-.819-.404-1.23q-.118-.38-.244-.753c-.088-.254-.16-.515-.254-.766-.041-.11-.07-.229-.111-.34l-.016-.035v-.004l-.002-.002v-.002q-.002-.01-.006-.019l-.006-.014-.014-.033c-.18-.462-.404-.897-.603-1.348l-.078-.177c-.209-.465-.395-.943-.623-1.395-.01-.017-.015-.035-.024-.053l-.002-.002-.008-.013c-.058-.115-.13-.22-.19-.334q-.078-.16-.16-.317c-.154-.286-.335-.553-.498-.834-.242-.42-.462-.857-.722-1.265l-.03-.045c-.083-.128-.175-.25-.265-.373q-.054-.078-.11-.154l-.113-.16-.008-.01-.103-.149c-.043-.067-.082-.138-.127-.203-.064-.091-.113-.193-.178-.283l-.121-.164c-.105-.146-.226-.278-.334-.42-.168-.226-.316-.468-.49-.69l-.012-.013v-.002l-.002-.002-.006-.006-.002-.002-.006-.008-.004-.006c-.332-.421-.702-.81-1.053-1.215l-.002-.002-.043-.05c-.317-.365-.614-.746-.947-1.096l-.037-.041h-.002a35 35 0 0 0-2.324-2.225l-.014-.014-.002-.002h-.002l-.002-.001-.049-.04-.002-.001h-.002l-.002-.002-.002-.002c-.313-.273-.653-.518-.977-.781a36 36 0 0 0-.865-.678l-.041-.031c-.085-.064-.165-.134-.25-.197-.19-.141-.363-.3-.555-.438l-.025-.017c-.076-.054-.157-.101-.233-.155-.304-.213-.628-.4-.94-.605-.508-.335-1.01-.679-1.536-.99-.062-.037-.121-.08-.182-.118l-.012-.007-.027-.018h-.002l-.027-.016-.02-.011a39 39 0 0 0-2.455-1.305c-.09-.043-.185-.078-.275-.12l-.018-.007c-.097-.046-.187-.105-.285-.15l-.014-.006-.03-.012h-.001l-.002-.002v-.002h-.002c-.265-.123-.546-.218-.815-.336l-.004-.002-.017-.007c-.353-.155-.702-.313-1.06-.457q-.45-.184-.903-.356l-.012-.004-.035-.014-.049-.021c-.102-.042-.202-.089-.306-.127h-.002l-.02-.006-.025-.01-.057-.017a41 41 0 0 0-2.343-.77c-.142-.041-.29-.065-.432-.105h-.002l-.014-.004c-.169-.048-.33-.113-.5-.158h-.004c-.394-.106-.804-.175-1.203-.27-.356-.084-.709-.168-1.068-.244-.228-.058-.454-.121-.688-.166-.073-.014-.149-.023-.222-.037q-.037-.005-.073-.012h-.006c-.087-.016-.17-.043-.258-.058h-.004A44 44 0 0 0 187.9.3c-.094-.01-.185-.027-.28-.037-.165-.018-.324-.055-.49-.07l-.04-.005a51.008 48.98 90 0 1-.003.002h-.002a44 44 0 0 0-4.384-.19" style="mix-blend-mode:overlay"/><path fill="url(#aC)" d="M152.19 331.105c-1.289 10.374-10.116 12.052-18.17 5.582-4.544-3.65-7.592-9.276-5.377-14.1 2.923-6.366 10.268-9.435 15.659-8.165 5.39 1.27 9.105 6.88 7.888 16.683" transform="translate(0 -221.513)"/><path fill="url(#aD)" d="M142.256 314.148c-2.11-.083-4.377.398-6.49 1.39a12.816 12.816 0 0 0 12.814 12.814 12.8 12.8 0 0 0 3.84-.588c.073-7.743-3.374-12.224-8.12-13.342a11 11 0 0 0-2.044-.274" transform="translate(0 -221.513)"/><path fill="url(#aE)" d="M144.22 323.943a16.8 16.8 0 0 0-14.38 8.116c1.075 1.715 2.528 3.302 4.18 4.628 8.054 6.47 16.881 4.792 18.17-5.582.227-1.829.282-3.512.187-5.048a16.8 16.8 0 0 0-8.156-2.114" transform="translate(0 -221.513)"/><path fill="url(#aF)" fill-opacity=".698" d="M144.22 323.943a16.8 16.8 0 0 0-13.767 7.233 13.2 13.2 0 0 0 .711 2.709 20 20 0 0 0 2.856 2.803c8.054 6.47 16.881 4.791 18.17-5.583.227-1.829.282-3.512.187-5.048a16.8 16.8 0 0 0-8.156-2.114" transform="translate(0 -221.513)"/><path fill="url(#aG)" d="M144.22 323.943a16.8 16.8 0 0 0-14.38 8.116c1.075 1.715 2.528 3.302 4.18 4.628q.727.585 1.46 1.08a14.5 14.5 0 0 0 4.477.708 14.5 14.5 0 0 0 12.107-6.522q.072-.413.125-.848c.228-1.829.283-3.512.188-5.048a16.8 16.8 0 0 0-8.156-2.114" transform="translate(0 -221.513)"/><path fill="url(#aH)" d="M155.068 280.504c7.472 13.34 9.97 25.986 4.495 28.3-5.473 2.313-16.143-7.025-23.616-20.365s-7.864-23.954-2.39-26.267c5.474-2.314 13.441 4.722 20.914 18.062" transform="translate(0 -223.308)"/><path fill="#fff" d="M133.51 38.781c1.027-.434 2.174-.657 3.08-.632 3.566.102 5.79 2.77 8.34 6.025 1.37 1.749 4.042 4.558 4.852 6.588 1.684 4.222 1.807 8.411-1.096 10.955-.745.653-1.297.833-2.055 1.127-1.638.636-3.769.595-5.563-.074-1.998-.746-3.833-2.068-5.305-3.634-1.408-1.497-2.73-3.546-4.036-6.046-1.612-3.084-2.25-5.273-2.263-7.945-.008-1.752.48-3.414 1.579-4.675.553-.634 1.446-1.257 2.467-1.69"/><path fill="#63bdda" fill-opacity=".494" d="m168.041 354.893-.682 10.461 8.23 6.493-10.16 2.584-3.631 9.834-5.597-8.865-10.475-.414 6.701-8.062-2.842-10.091 9.738 3.882z" style="mix-blend-mode:normal" transform="rotate(14.222 363.966 487.082)scale(.3868)"/><path fill="url(#aI)" d="M132.263 261.435c3.3-1.656 8.58.102 13.997 5.797 6.772 7.12 15.246 22.238 17.512 31.245 3.618 14.384-6.693 19.24-18.67 4.745-4.929-5.965-12.108-18.007-14.963-27.1-2.499-7.96-1.177-13.03 2.124-14.687m1.851 2.363c-1.184.484-2.128 1.422-2.534 2.694-1.755 5.498 6.145 18.53 12.253 17.656 1.891-.27 3.1-1.206 3.721-2.878 1.794-4.833-3.973-15.238-9.461-17.436-1.369-.548-2.794-.52-3.979-.036m22.83 25.67-.256 1.48c-.99 5.707-7.619 7.702-12.673 4.785-.985-.569-.939-.472 1.193 2.47 12.311 16.984 21.054 12.524 12.328-7.385z" transform="translate(0 -223.308)"/><path fill="url(#aJ)" d="M156.973 284.102a19.55 19.55 0 0 0-17.59 11.013c1.994 3.19 3.994 6.02 5.719 8.108 11.976 14.494 22.288 9.637 18.67-4.746-1.005-3.995-3.232-9.19-5.989-14.358a20 20 0 0 0-.81-.017" style="mix-blend-mode:overlay" transform="translate(0 -223.308)"/><path fill="url(#aK)" d="M155.068 280.504c7.472 13.34 9.97 25.986 4.495 28.3-5.473 2.313-16.143-7.025-23.616-20.365s-7.864-23.954-2.39-26.267c5.474-2.314 13.441 4.722 20.914 18.062" transform="matrix(1.0121 .08544 -.08622 .99038 -22.106 -211.546)"/><path fill="#fff" d="M90.422 59.429c1.077-.342 2.257-.465 3.172-.363 3.6.406 5.621 3.238 7.921 6.68 1.236 1.849 3.698 4.86 4.343 6.939 1.34 4.325 1.104 8.484-2.054 10.756-.81.583-1.384.714-2.177.94-1.712.49-3.866.268-5.624-.548-1.958-.91-3.7-2.376-5.056-4.053-1.296-1.602-2.457-3.745-3.563-6.332-1.366-3.192-1.823-5.415-1.606-8.062.143-1.736.78-3.34 2.002-4.495.614-.58 1.572-1.122 2.642-1.463"/><path fill="#63bdda" fill-opacity=".494" d="m168.041 354.893-.682 10.461 8.23 6.493-10.16 2.584-3.631 9.834-5.597-8.865-10.475-.414 6.701-8.062-2.842-10.091 9.738 3.882z" style="mix-blend-mode:normal" transform="matrix(.3713 .12615 -.1285 .36322 97.467 -52.983)"/><path fill="url(#aL)" d="M132.263 261.435c3.3-1.656 8.58.102 13.997 5.797 6.772 7.12 15.246 22.238 17.512 31.245 3.618 14.384-6.693 19.24-18.67 4.745-4.929-5.965-12.108-18.007-14.963-27.1-2.499-7.96-1.177-13.03 2.124-14.687m1.851 2.363c-1.184.484-2.128 1.422-2.534 2.694-1.755 5.498 6.145 18.53 12.253 17.656 1.891-.27 3.1-1.206 3.721-2.878 1.794-4.833-3.973-15.238-9.461-17.436-1.369-.548-2.794-.52-3.979-.036m22.83 25.67-.256 1.48c-.99 5.707-7.619 7.702-12.673 4.785-.985-.569-.939-.472 1.193 2.47 12.311 16.984 21.054 12.524 12.328-7.385z" transform="matrix(1.0121 .08544 -.08622 .99038 -22.106 -211.546)"/><path fill="url(#aM)" d="M156.973 284.102a19.55 19.55 0 0 0-17.59 11.013c1.994 3.19 3.994 6.02 5.719 8.108 11.976 14.494 22.288 9.637 18.67-4.746-1.005-3.995-3.232-9.19-5.989-14.358a20 20 0 0 0-.81-.017" style="mix-blend-mode:overlay" transform="matrix(1.0121 .08544 -.08622 .99038 -22.106 -211.546)"/><path fill="url(#aN)" d="M182.701 0c-.144 0-.291.021-.435.023-.115.002-.226-.014-.34-.011-.25.006-.506.052-.756.062-.443.018-.885.055-1.33.086-.494.034-.982.032-1.479.082-.335.034-.673.103-1.01.145h-.005c-.613.076-1.225.185-1.84.287l-.014.002c-.222.036-.442.061-.664.101-.125.023-.248.035-.373.059-.194.037-.385.05-.578.09-.51.103-1.02.256-1.53.377-.342.08-.682.116-1.025.205-.3.078-.6.208-.9.293l-.008.002a48 48 0 0 0-2.432.754q-.607.204-1.213.425c-.26.096-.521.152-.781.252-.197.077-.39.19-.588.27h-.002a51 51 0 0 0-3.547 1.621l-.049.021c-.363.181-.733.31-1.095.5h-.002c-.054.029-.105.068-.159.096l-.082.049h-.002v.002h-.002l-.002.002-.002.002c-1.056.565-2.098 1.216-3.14 1.869-.475.298-.957.555-1.428.871h-.002c-.086.058-.172.112-.258.17-.033.023-.068.04-.101.063a57 57 0 0 0-3.721 2.8c-.027.022-.055.039-.082.06-.094.077-.191.138-.285.216a100.7 100.7 0 0 0-25.192-3.201 101 101 0 0 0-14.326 1.07l-.02-.043a101 101 0 0 0-6.84 1.459 101 101 0 0 0-6.106 1.303 101 101 0 0 0-6.909 2.437 101 101 0 0 0-5.896 2.117 101 101 0 0 0-6.684 3.436 101 101 0 0 0-5.38 2.795h-.003a101 101 0 0 0-6.5 4.549 101 101 0 0 0-4.535 3.171l-.094.088-.005.004a101 101 0 0 0-6.344 5.865 101 101 0 0 0-3.633 3.372 101 101 0 0 0-7.219 8.767 101 101 0 0 0-7.426 11.254l-.002.004a101 101 0 0 0-1.652 3.32 101 101 0 0 0-3.207 6.715 101 101 0 0 0-.49 1.027v.002a101 101 0 0 0-2.307 6.77l-.008.023a101 101 0 0 0-1.304 3.829l-.002.005a101 101 0 0 0-2.653 12.059c-6.945 4.895-12.1 10.754-15.63 17a47 47 0 0 0-2.344 4.746l-.002.002a46 46 0 0 0-1.75 4.838 44.5 44.5 0 0 0-1.78 9.736v.002c-.109 1.6-.098 3.18-.029 4.746.008.173-.013.35-.004.522v.014c.016.28.078.548.1.828v.004c.043.562.055 1.133.121 1.69q.155 1.314.395 2.6a42 42 0 0 0-2.256 5.225V146c-.208.587-.319 1.184-.498 1.774-.359 1.18-.746 2.357-.994 3.545v.006l-.004.023a41 41 0 0 0-.664 4.524c-.013.132-.048.264-.059.396-.029.336-.005.668-.025 1.004v.014a42 42 0 0 0-.082 3.154 42 42 0 0 0 .334 4.596c.063.5.114 1 .195 1.496v.006l.002.002c.033.202.042.41.078.611l.055.022c.217 1.21.437 2.42.757 3.6q.633 2.327 1.52 4.554v.002a42 42 0 0 0 2.02 4.33v.002a41 41 0 0 0 2.494 4.057 41 41 0 0 0 2.943 3.736v.002h.002a43.4 43.4 0 0 0 4.65 4.494c.052.043.1.093.15.139a347 347 0 0 0 54.147 5.355 59 59 0 0 0 3.809-1.765 101 101 0 0 0 3.181 1.835 347.2 347.2 0 0 0 126.124-23.72 101 101 0 0 0 5.084-6.655v-.002a101 101 0 0 0 6.427-10.484v-.002a101 101 0 0 0 5.102-11.19v-.001a101 101 0 0 0 3.699-11.729 100.7 100.7 0 0 0 2.992-24.369 101 101 0 0 0-.758-12.314l-.002-.045V97a100.7 100.7 0 0 0-6.584-25.393 101 101 0 0 0-5.71-11.84q.004-.011.011-.023.175-.303.346-.608l.039-.066.092-.166a59 59 0 0 0 1.498-2.883q.66-1.363 1.25-2.738l.164-.387.234-.558q.594-1.44 1.086-2.856l.033-.1.036-.103c.253-.735.423-1.447.636-2.172.165-.56.332-1.117.473-1.67.09-.354.21-.716.293-1.068l.012-.043c.01-.045.026-.092.039-.137l.004-.014v-.004l.002-.006v-.003l.002-.002v-.002l.002-.002v-.004l.01-.043.01-.043c.027-.14.047-.276.072-.414a44 44 0 0 0 .607-3.416v-.01l.004-.008v-.006c.02-.146.018-.285.036-.43.006-.046.006-.09.011-.137v-.002c.052-.44.074-.87.11-1.306.052-.63.134-1.27.156-1.889.013-.37-.018-.725-.016-1.092v-.025c.001-.233.039-.478.036-.709a.4.4 0 0 0-.002-.064c-.003-.2-.045-.384-.051-.582-.012-.382.008-.776-.016-1.153a35 35 0 0 0-.388-3.459l-.002-.023-.01-.05-.018-.099-.004-.023c-.071-.421-.187-.82-.274-1.235q-.073-.353-.152-.705c-.077-.333-.136-.675-.223-1.004-.024-.091-.035-.19-.06-.28l-.012-.04v-.002l-.002-.006-.002-.004-.004-.021-.002-.01v-.004q-.001-.006-.006-.012c-.115-.42-.273-.818-.404-1.23-.08-.252-.158-.503-.244-.752-.088-.254-.16-.515-.254-.766-.041-.11-.069-.23-.111-.34l-.016-.035v-.006h-.002v-.002l-.006-.02-.006-.013-.014-.033c-.18-.462-.404-.897-.603-1.348l-.078-.177c-.209-.465-.395-.943-.623-1.395-.01-.017-.015-.036-.024-.053h-.002v-.002l-.004-.006-.004-.007c-.058-.115-.13-.22-.19-.334-.053-.106-.103-.213-.16-.317-.154-.286-.335-.553-.497-.834-.243-.42-.463-.857-.723-1.265l-.03-.045c-.083-.129-.175-.25-.265-.373q-.054-.078-.11-.155l-.113-.16-.002-.002-.002-.002-.004-.006-.103-.148c-.043-.067-.082-.138-.127-.203-.064-.092-.113-.193-.178-.283l-.12-.165c-.106-.145-.227-.277-.335-.42-.168-.225-.316-.467-.49-.689l-.012-.014v-.002l-.002-.002-.008-.007-.006-.008-.002-.002-.002-.002v-.002c-.331-.421-.701-.81-1.053-1.215l-.002-.002-.043-.05c-.317-.365-.614-.746-.947-1.097l-.037-.04h-.002a35 35 0 0 0-2.324-2.225l-.014-.014-.002-.002h-.002l-.004-.002-.047-.039-.008-.004-.002-.002c-.313-.273-.652-.518-.976-.78a36 36 0 0 0-.866-.679l-.04-.03c-.085-.065-.165-.135-.25-.198-.19-.141-.363-.3-.555-.438l-.026-.017c-.075-.054-.156-.101-.232-.155-.304-.213-.628-.4-.94-.605-.509-.335-1.01-.679-1.537-.99-.061-.037-.12-.08-.181-.117l-.012-.008-.027-.018h-.002l-.028-.015-.02-.012a39 39 0 0 0-2.454-1.305c-.09-.043-.185-.077-.276-.119l-.017-.008c-.098-.046-.187-.104-.285-.15l-.014-.006-.03-.012h-.001l-.002-.002v-.002h-.002c-.265-.123-.547-.218-.815-.336l-.004-.002-.017-.007c-.353-.155-.702-.313-1.06-.457q-.45-.183-.903-.356l-.012-.004-.035-.013-.049-.022c-.102-.042-.202-.089-.307-.127h-.002l-.02-.006-.024-.01-.057-.017a41 41 0 0 0-2.344-.77c-.141-.041-.29-.065-.431-.105h-.002l-.014-.004c-.17-.048-.33-.113-.5-.158h-.004c-.395-.106-.804-.175-1.203-.27q-.532-.128-1.069-.244c-.227-.058-.454-.12-.687-.166-.074-.014-.15-.023-.223-.037l-.072-.012h-.006c-.087-.016-.17-.043-.258-.058h-.004A44 44 0 0 0 187.898.3c-.094-.01-.186-.027-.28-.037-.165-.018-.324-.055-.49-.07l-.041-.004a51.008 48.98 90 0 1-.002.002h-.002A44 44 0 0 0 182.701 0" style="mix-blend-mode:overlay"/></g><g transform="translate(915.368 1532.488)scale(3.36583)"><path fill="url(#aO)" d="M239.637-198.556c-13.596-5.436-38.32-13.334-58.348-10.358-44.857 6.666-92.296 70.229-7.176 147.666 27.411 24.936 68.477 49.192 93.345 57.689 24.869 8.497 33.538 1.233 49.694-15.996 70.886-75.597 74.863-133.102 54.03-166.665-20.832-33.564-66.476-43.187-94.83-23.02-9.238 6.57-13.712 14.317-17.182 16.705-3.471 2.387-5.938-.586-19.533-6.021"/><path fill="url(#aP)" fill-opacity=".58" d="M181.289-208.914c-44.857 6.665-92.296 70.228-7.177 147.665 5.468 4.974 11.48 9.922 17.797 14.723a110.16 110.16 0 0 0 100.166-119.318 110.2 110.2 0 0 0-13.862-44.662q-.943.612-1.862 1.266c-9.237 6.57-13.71 14.318-17.181 16.705-3.47 2.388-5.938-.585-19.533-6.021-13.596-5.435-38.32-13.334-58.348-10.358" style="mix-blend-mode:overlay"/><path fill="url(#aQ)" d="M188.823-209.543a118.04 118.04 0 0 0-16.255 70.79A118.037 118.037 0 0 0 300.42-31.422a118 118 0 0 0 34.496-8.367c53.642-65.655 55.2-115.93 36.267-146.43-20.833-33.564-66.477-43.187-94.832-23.02-9.237 6.57-13.71 14.318-17.181 16.705-3.47 2.388-5.938-.585-19.533-6.021-11.932-4.77-32.436-11.438-50.814-10.987"/><path fill="url(#aR)" d="M187.575-209.5c-2.133.09-4.235.28-6.286.586-43.769 6.504-89.995 67.178-13.14 142.054a99.88 99.88 0 0 0 70.75-104.332 99.9 99.9 0 0 0-7.615-30.469c-12.26-4.224-28.775-8.476-43.709-7.84z"/><path fill="url(#aS)" d="M304.375-219.414c-10.111.978-19.796 4.322-28.024 10.174-8.746 6.22-13.222 13.497-16.619 16.28-5.78 13.108-1.9 26.777 1.296 29.826 3.229 3.08 5.76-4.684 10.994-12.772 5.234-8.087 13.17-16.497 20.813-23.828 7.642-7.332 14.99-13.585 14.512-17.016-.17-1.223-1.337-2.088-2.972-2.664"/><path fill="url(#aT)" d="M306.975-175.957A186.36 186.36 0 0 0 148.99-88.441q.322.452.67.91l.002.002v.002h.002c.151.197.389.407.541.605.049.064.125.13.174.194.347.449.87.924 1.227 1.375.073.092.14.183.212.275l.026.035c1.183 1.49 2.142 2.941 3.422 4.445l.185.223c3.596 4.212 7.635 8.486 12.024 12.8.204.202.362.398.552.597l.002.002.01.01.108.107h.002a240 240 0 0 0 5.963 5.613q.291.265.588.53h.002l.01.01.406.359c4.968 4.463 10.364 8.9 16.014 13.222l.267.21h.002l.002.001.002.002.002.002v.002h.002q.248.192.5.383h.002c19.015 14.448 40.803 27.568 58.908 36.094h.002c6.035 2.841 11.66 5.175 16.637 6.875a79 79 0 0 0 8.018 2.285c.032.007.071.022.103.03.213.048.395.06.606.105.28.06.629.195.904.25h.002c1.268.254 2.467.428 3.644.572.17.02.358.064.526.082l.04.006h.003c.067.007.126.005.193.012 1.123.116 2.202.172 3.252.189h.014c.317.005.629 0 .94-.004h.015q1.284-.018 2.504-.137l.014-.002c.258-.025.524-.04.779-.072h.004q.39-.049.773-.11c.075-.009.152-.015.225-.027a28 28 0 0 0 2.086-.42l.074-.017q.31-.074.617-.156c.68-.187 1.337-.431 1.996-.67.173-.063.354-.102.526-.168.028-.011.055-.026.084-.037.06-.024.125-.039.185-.063a29 29 0 0 0 2.692-1.24q.036-.021.072-.045l.01-.006.002-.002.059-.035c.665-.353 1.318-.78 1.974-1.187.39-.243.785-.444 1.172-.706l.014-.01c.415-.28.828-.621 1.242-.923l.297-.22c.536-.399 1.074-.763 1.611-1.196l.01-.008q.67-.529 1.342-1.103c.408-.35.891-.92 1.303-1.29 1.097-.985 2.173-1.874 3.31-2.994l.004-.004c1.952-1.923 3.997-4.069 6.156-6.369l.014-.013c.107-.114.187-.178.295-.293 6.467-6.897 12.378-13.643 17.764-20.235h.002l.03-.039c5.3-6.487 10.091-12.825 14.403-19.008q.127-.182.244-.36v-.003l.002-.002.002-.002v-.002a12 12 0 0 0 .186-.275l.016-.024c.97-1.4 1.611-2.688 2.533-4.072.065-.097.115-.188.18-.285a593 593 0 0 0 3.956-6.283c.173-.277.337-.55.512-.828l.008-.002c1.95-3.099 4.041-6.242 5.701-9.239l.002-.002v-.002l.002-.006c.06-.106.147-.223.205-.33.073-.11.144-.22.202-.326l.002-.002v-.002h.002v-.002l.002-.002.002-.002v-.002l.086-.148q.05-.091.093-.18v-.002l.002-.002v-.002l.01-.018.008-.015c.032-.058.05-.11.08-.168.484-.886.758-1.694 1.221-2.572l.014-.03c.65-1.246 1.249-2.47 1.826-3.687.464-.967.914-1.93 1.367-2.893l.46-.974c.463-.985.937-1.972 1.405-2.958q.082-.168.162-.337.33-.69.645-1.371c.234-.503.452-1 .678-1.499.282-.617.598-1.245.855-1.853.03-.057.051-.113.078-.17q.043-.086.08-.17c.164-.398.427-.836.586-1.232l.008-.016v-.002h.002v-.004l.002-.002v-.004l.006-.012.002-.002v-.002q.054-.12.1-.238v-.002h.002v-.002q.052-.113.096-.223.09-.231.173-.459l.004-.008.002-.002.002-.002v-.004q.06-.15.114-.298l.058-.157.006-.015v-.002l.004-.01.002-.002v-.004l.002-.002v-.002l.002-.002v-.002l.002-.002v-.004l.002-.006v-.002l.002-.002.002-.002v-.004l.002-.002v-.008l.002-.002v-.002l.018-.047.002-.01.002-.004v-.002h.002v-.004l.008-.02c.509-1.314.855-2.56 1.318-3.855.915-2.559 1.87-5.135 2.61-7.617l.086-.27.002-.008v-.002h.002v-.002l.002-.006.006-.021.002-.002.01-.031q.092-.296.177-.588v-.004l.002-.002v-.002l.002-.002v-.004q.06-.212.114-.42l.006-.022v-.004l.002-.002v-.008l.008-.03.01-.04c.171-.606.282-1.183.414-1.77.05-.19.08-.37.13-.56.017-.062.027-.122.043-.184.255-.972.47-1.926.684-2.879l.02-.086c.104-.42.197-.837.296-1.255q.136-.553.262-1.102l.008-.031c.064-.281.14-.569.2-.848l.08-.377c.132-.648.35-1.336.47-1.978q.018-.104.031-.205v-.004c.02-.107.057-.222.077-.329v-.01l.004-.01v-.01h.002v-.006h.002v-.002l.002-.01q.019-.077.033-.152v-.004h.002v-.008q.026-.146.047-.289v-.008h.002v-.006l.004-.027v-.012h.002v-.002l.008-.069v-.002c.049-.277.055-.532.101-.808.024-.142.03-.275.053-.416.016-.098.02-.19.035-.287l.006-.043v-.004q.216-1.334.397-2.649c.099-.726.247-1.473.33-2.191.122-1.058.185-2.085.273-3.125l.016-.184v-.004l.002-.002v-.008c.028-.347.108-.72.133-1.066q.01-.073.017-.145v-.004h.002v-.016l.002-.011.002-.022v-.004a4 4 0 0 0 .022-.223v-.01q.006-.094.008-.185v-.012l.002-.035v-.002q-.002-.033 0-.067c.013-.21-.006-.403.006-.613v-.022H382v-.002q.074-1.258.115-2.5c.036-1.122.027-2.216.023-3.316-.004-1.175.014-2.362-.035-3.512l-.012-.133v-.029c-.002-.05.004-.103.002-.152l.002-.088v-.11q.002-.067 0-.133v-.006a3 3 0 0 0-.013-.16l-.002-.017v-.004l-.004-.051v-.002l-.002-.006v-.002c-.015-.275-.07-.524-.086-.797a94 94 0 0 0-.207-2.576 83 83 0 0 0-.512-4.305c-.082-.564-.131-1.147-.215-1.709q-.018-.12-.039-.238l-.01-.047-.002-.006-.02-.117v-.004l-.003-.037q-.003-.048-.01-.092a3 3 0 0 0-.04-.184l-.008-.033-.008-.03a3 3 0 0 0-.039-.183 186.4 186.4 0 0 0-73.894-15.277z" style="mix-blend-mode:multiply"/><ellipse cx="349.31" cy="109.398" fill="#fff4fd" rx="12.819" ry="15.799" transform="rotate(-47.831)"/><path fill="url(#aU)" d="M181.289-208.914a57 57 0 0 0-4.161.78 140 140 0 0 0-.102 25.447A139.94 139.94 0 0 0 328.6-55.442a140 140 0 0 0 20.748-3.396c39.316-56.37 38.892-99.901 21.834-127.383-20.833-33.563-66.477-43.186-94.832-23.019-9.237 6.57-13.71 14.318-17.181 16.705-3.47 2.388-5.938-.585-19.533-6.021s-38.32-13.334-58.348-10.358"/><path fill="url(#aV)" d="M181.289-208.914c-44.857 6.665-92.296 70.228-7.177 147.665 27.411 24.937 68.478 49.194 93.346 57.69 24.868 8.497 33.538 1.234 49.693-15.995 28.538-30.435 46.233-57.938 55.829-82.126a177 177 0 0 0 2.052-46.31 177 177 0 0 0-10.987-47.785c-22.865-25.668-62.244-31.566-87.694-13.465-9.237 6.57-13.71 14.318-17.181 16.705-3.47 2.388-5.938-.585-19.533-6.021s-38.32-13.334-58.348-10.358" style="mix-blend-mode:multiply"/><path fill="url(#aW)" d="m309.25-219.703-.025.002h-.036c-1.96.045-3.904.211-5.838.43-.439.05-.877.095-1.314.154-.376.05-.747.113-1.121.17-.168.01-.336.016-.5.043-.148.023-.29.065-.434.103-.684.115-1.362.246-2.04.383-.252.044-.506.083-.755.137-.134.029-.264.067-.396.101-.266.06-.538.098-.803.16h-.006c-.235.056-.457.145-.691.204-.031.008-.061.02-.092.027h-.002c-.226.057-.457.097-.682.156-.183.048-.37.077-.553.127-.472.13-.93.3-1.398.442l-.064.02c-.196.043-.396.072-.586.132-.218.068-.422.171-.633.258l-.285.095c-.536.178-1.076.337-1.606.53h-.002v.002h-.002q-.609.22-1.213.455c-.149.047-.298.091-.443.148l-.018.006-.006.002-.006.004c-.18.073-.353.162-.533.237-.27.11-.53.24-.799.355-.82.353-1.646.695-2.449 1.088l-.055.023-.02.01-.007.004-.01.004c-.228.113-.444.249-.67.364l-.096.05-.021.012-.028.016q-.318.165-.634.332v.002h-.004v.002h-.002v.002h-.002c-.167.087-.347.149-.512.238-.089.048-.17.114-.258.162q-.363.2-.719.412c-.255.145-.52.269-.773.418l-.096.057h-.002v.002l-.076.045-.016.01-.017.01-.002.002c-.279.166-.543.361-.819.533-.055.034-.108.073-.164.107-.23.145-.456.3-.685.448l-.006-.012-.012-.024v-.002h-.002q-.927.602-1.83 1.245l-.014.01-.002.002-.006.004-.002.002h-.004l-.002.002v.002h-.004l-.002.002-.002.002-.002.002-.015.011-.051.04a52 52 0 0 0-2.984 2.298q-.435.355-.85.711v.002h-.002l-.018.018a15 15 0 0 0-.343.306 61 61 0 0 0-1.704 1.555c-.028.027-.067.052-.095.078l-.01.01-.012.01-.002.002-.002.002h-.002l-.002.002-.021.022-.055.056q-.33.318-.62.625c-.146.134-.296.267-.427.399v.002l-.035.037c-.53.531-.926.993-1.36 1.48a73 73 0 0 0-1.738 1.83c-.093.102-.208.212-.297.313l-.002.002-.002.002-.002.002c-.024.027-.059.061-.086.09l-.002.002v.002l-.002.002-.002.002-.002.002-.002.002-.027.03-.04.046-.013.015-.004.004-.152.176c-.749.85-1.452 1.66-2.092 2.395l-.088.1c-.098.112-.185.206-.281.316-.31.355-.618.7-.908 1.021l-.018.018-.316.346-.008.01-.243.26c-.087.085-.171.156-.261.25-.084.086-.162.155-.244.238-.346.347-.705.732-1.028 1.005l-.037.036-.066.056h-.002v.002l-.053.041a9 9 0 0 1-.547.418h-.002c-.04.028-.08.048-.119.074-.118.078-.235.156-.352.221l-.13.07-.004.002-.012.006-.002.002h-.006l-.002.002-.012.006-.002.002-.002.002h-.002l-.002.002a4 4 0 0 1-.498.215h-.002l-.002.002h-.004q-.12.041-.24.074l-.113.034-.03.008-.03.008h-.003v.002h-.006q-.082.017-.166.03-.11.024-.223.04h-.012c-.055.007-.111.009-.167.014a4 4 0 0 1-.499.011h-.03l-.02-.002h-.035q-.02 0-.037-.002c-.032-.002-.066-.009-.098-.011-.053-.004-.112-.02-.166-.026l-.072-.011-.069-.01q-.118-.015-.238-.036a9 9 0 0 1-.682-.156h-.002l-.01-.002-.033-.01h-.002v-.002h-.002c-.081-.024-.168-.053-.25-.078-.21-.064-.453-.158-.684-.242-1.395-.496-3.063-1.264-5.433-2.356h-.002l-.041-.017h-.002v-.002a184 184 0 0 0-8.643-3.748l-.03-.012-.007-.004-.291-.12a184 184 0 0 0-8.352-3.103l-.01-.004-.002-.002h-.004l-.5-.172-.115-.039-.144-.048q-1.571-.534-3.225-1.061c-4.861-1.547-10.231-3.021-15.793-4.186-.09-.019-.167-.05-.258-.068h-.004l-.017-.004h-.002l-.002-.002h-.002l-.008-.002h-.006q-.01 0-.02-.004l-.002-.002h-.004l-.105-.023-.149-.03h-.008l-.271-.054-.018-.004-.037-.008h-.002l-.008-.002h-.006v-.002h-.004c-.603-.122-1.227-.174-1.834-.287-2.917-.547-5.856-1.062-8.814-1.38l-.03-.003h-.01l-.002-.002h-.014l-.015-.002h-.008l-.002-.002h-.006l-.032-.002h-.002l-.006-.002h-.002c-.065-.006-.13-.005-.195-.01-3.085-.321-6.169-.51-9.203-.5-.266 0-.514.053-.78.056h-.017l-.027-.002-.035-.002-.04-.002h-.013c-.068.001-.14-.01-.207-.01-.14-.01-.28-.02-.416-.02h-.042q-.157.006-.316.01h-.01l-.324.012-.184.006-.273.01-.092.004-.047.002c-.042.002-.081.01-.123.012q-.023.001-.045.004c-2.07.094-4.111.273-6.103.569h-.004l-.012.002h-.004v.002h-.002l-.02.004-.07.011q-2.032.305-4.064.762c-.425.096-.846.255-1.27.361-.792.198-1.576.41-2.365.64A151.055 151.055 0 0 0 324.127-67.35 151 151 0 0 0 357-70.974c1.95-3.098 4.041-6.241 5.701-9.238l.008-.02.008-.013c.114-.205.282-.429.395-.633l.002-.002v-.002h.002v-.002l.002-.002.002-.004.086-.148q.05-.091.093-.18v-.002l.002-.002v-.002c.515-.94.804-1.795 1.295-2.727.047-.088.077-.17.123-.26l.006-.011.014-.027c1.285-2.485 2.399-4.898 3.547-7.332.464-.985.937-1.972 1.406-2.957a133 133 0 0 0 1.916-4.176l.014-.03c.044-.105.11-.22.154-.326.125-.3.319-.627.442-.927.155-.38.405-.795.556-1.172l.014-.03.004-.01q.055-.123.103-.244v-.002h.002v-.002q.053-.113.096-.222.09-.232.174-.46l.004-.01.002-.001v-.002a22 22 0 0 0 .183-.487v-.002l.002-.002.002-.002v-.002l.036-.101c.513-1.323.86-2.574 1.326-3.877.931-2.606 1.906-5.231 2.65-7.756.017-.056.042-.116.059-.172l.01-.031q.092-.296.177-.588v-.004l.002-.002.002-.006v-.002q.06-.21.114-.42l.025-.105c.226-.798.337-1.541.545-2.33.016-.063.027-.122.043-.184.355-1.353.634-2.671.936-4 .21-.862.44-1.733.613-2.578.132-.648.35-1.337.47-1.979.014-.071.021-.139.032-.209.02-.106.057-.221.076-.328l.006-.03v-.003l.002-.002v-.002l.002-.01q.02-.078.033-.152v-.004h.002v-.008q.027-.147.047-.29v-.008h.002v-.006l.014-.109c.093-.528.106-1.017.191-1.54l.002-.013v-.002l.002-.002v-.004q.216-1.332.397-2.648c.099-.726.247-1.474.33-2.191.122-1.058.185-2.086.273-3.125l.016-.184.002-.014c.029-.347.108-.72.133-1.066l.021-.176.002-.025a4 4 0 0 0 .022-.223v-.01q.006-.094.008-.186v-.01c.002-.035 0-.067.002-.103.013-.21-.006-.403.006-.613q.076-1.272.117-2.524c.036-1.122.027-2.216.023-3.316-.004-1.175.014-2.363-.035-3.512q-.005-.082-.012-.162v-.025q-.003-.096.002-.196l.002-.072v-.057q.002-.067 0-.133v-.006a3 3 0 0 0-.013-.16l-.002-.017v-.004q-.005-.057-.012-.112c-.012-.23-.06-.437-.074-.666v-.01a92 92 0 0 0-.213-2.646 83 83 0 0 0-.512-4.305c-.094-.644-.146-1.313-.254-1.947q-.01-.052-.023-.102v-.002l-.002-.01q-.007-.046-.01-.097-.003-.048-.01-.092a3 3 0 0 0-.04-.184l-.015-.062c-.05-.286-.145-.542-.2-.827l-.01-.054a79 79 0 0 0-.817-3.768c-.23-.947-.45-1.896-.711-2.82-.135-.476-.25-.966-.393-1.436l-.029-.084-.02-.056c-.061-.202-.141-.39-.205-.59q-.04-.11-.078-.223c-.176-.546-.374-1.073-.56-1.611-.29-.836-.558-1.688-.873-2.504-.369-.952-.782-1.867-1.186-2.791l-.004-.008c-.124-.283-.205-.6-.332-.88q0-.003-.002-.005 0-.005-.004-.01l-.004-.01a4 4 0 0 0-.07-.17v-.002a3 3 0 0 0-.082-.164l-.004-.008-.012-.021c-.173-.377-.374-.73-.553-1.102l-.011-.025c-.132-.298-.26-.599-.405-.887a77 77 0 0 0-1.19-2.291l-.07-.13c-.103-.19-.218-.37-.324-.558a65 65 0 0 0-1.562-2.69c-.01-.018-.025-.034-.035-.052l-.133-.215a31 31 0 0 0-.41-.632l-.02-.03q-.18-.27-.361-.537c-.32-.484-.66-.95-.992-1.424l-.047-.068c-.4-.575-.78-1.17-1.193-1.73l-.03-.04a11 11 0 0 0-.246-.33l-.01-.011a69 69 0 0 0-2.597-3.237c-.06-.07-.114-.148-.174-.218l-.03-.036a43 43 0 0 0-.656-.763q-.1-.117-.203-.23v-.003l-.025-.025-.065-.07-.127-.135-.002-.002-.006-.006c-.251-.26-.515-.506-.762-.772a70 70 0 0 0-2.812-2.83c-.222-.216-.45-.429-.674-.642l-.025-.024c-.356-.333-.676-.712-1.037-1.037l-.008-.008-.17-.158-.002-.002h-.002l-.008-.006-.002-.002-.07-.059-.034-.029h-.002l-.002-.002c-.05-.044-.104-.08-.154-.123-.03-.026-.063-.046-.092-.072l-.055-.045c-.046-.04-.096-.075-.142-.115q-.113-.105-.229-.208c-.495-.428-1.01-.824-1.515-1.238a45 45 0 0 0-1.243-.974 73 73 0 0 0-1.033-.784c-.47-.354-.908-.761-1.386-1.103l-.045-.033-.145-.106-.002-.002-.006-.004-.002-.002-.08-.053-.014-.01-.004-.002c-.127-.09-.266-.158-.394-.248l-.008-.006h-.002v-.004h-.002c-.107-.08-.212-.164-.322-.24-.263-.18-.538-.334-.803-.512a72 72 0 0 0-3.262-2.025l-.18-.105c-.459-.271-.891-.595-1.355-.856l-.07-.039-.084-.049-.006-.004h-.002l-.002-.002h-.002l-.06-.03-.024-.015c-.176-.098-.364-.167-.541-.263l-.002-.002-.004-.002c-.288-.16-.569-.333-.86-.487-.267-.14-.545-.25-.814-.388-.687-.352-1.386-.668-2.082-.996-.692-.327-1.37-.685-2.07-.989l-.055-.023-.01-.004h-.002c-.114-.05-.222-.117-.336-.166h-.002l-.031-.014-.034-.013-.002-.002-.07-.03c-.072-.03-.147-.05-.219-.08-.016-.007-.034-.01-.05-.017-.122-.052-.25-.087-.371-.137s-.246-.086-.368-.135l-.332-.133c-.696-.28-1.395-.535-2.097-.793-.37-.135-.736-.288-1.108-.418-.331-.115-.653-.262-.986-.373a7 7 0 0 0-.26-.08 31 31 0 0 0-.79-.24l-.016-.004c-.153-.048-.3-.119-.454-.166l-.052-.016h-.002v-.002h-.002l-.002-.002h-.002l-.059-.017c-.515-.158-1.041-.245-1.558-.39l-.112-.034c-.609-.17-1.21-.365-1.822-.52-.363-.091-.722-.199-1.086-.285-.47-.11-.945-.189-1.418-.277-.433-.093-.86-.236-1.293-.32l-.01-.002h-.004l-.01-.002v-.002h-.004l-.008-.002h-.004l-.021-.004c-.335-.066-.673-.083-1.008-.143a52 52 0 0 0-2.301-.402c-.17-.025-.336-.053-.506-.077-.673-.093-1.346-.132-2.02-.2h-.003c-.16-.018-.318-.05-.477-.067-.068-.007-.135-.02-.203-.03-.285-.04-.569-.096-.854-.12h-.012l-.015-.003c-.366-.031-.729-.01-1.094-.037a47 47 0 0 0-1.227-.084l-.134-.01c-.29-.014-.582-.063-.871-.074h-.02l-.11-.002c-.1.001-.2.007-.302.008h-.112a14 14 0 0 0-.585-.004c-.314.003-.627.01-.942.008q-.136 0-.273-.004c-.515-.012-1.03-.04-1.543-.039l-.11-.002c-.03 0-.06-.005-.091-.004z" style="mix-blend-mode:overlay"/><path fill="url(#aX)" d="M309.254-219.702c-.462.01-.916.072-1.377.092a66 66 0 0 0-2.486.16c-.48.039-.96.053-1.436.102-.785.081-1.558.21-2.337.319a63 63 0 0 0-2.583.413c-.616.114-1.236.203-1.847.334-.47.101-.923.249-1.39.36l-.337.088c-.828.204-1.654.403-2.47.641-.807.236-1.602.499-2.397.769q-.894.303-1.778.636c-.363.136-.744.226-1.104.37-.187.075-.36.18-.547.257-1.063.439-2.091.948-3.125 1.452-.552.268-1.117.505-1.66.792h-.001c-.17.09-.35.152-.52.244-.088.048-.169.112-.258.161-1.15.632-2.25 1.356-3.354 2.073l-.034-.067q-.94.613-1.859 1.264l-.002.001-.001.001-.025.02a55 55 0 0 0-5.949 4.926c-.028.027-.067.053-.095.08l-.025.02c-.678.646-1.171 1.234-1.783 1.866l-.01.01c-.96.993-1.948 1.971-2.766 2.893l-.004.005c-.028.032-.068.07-.096.1-1.239 1.4-2.293 2.642-3.274 3.744l-.003.003c-.23.257-.444.485-.662.72l-.01.01c-.283.308-.561.6-.829.866-.36.36-.714.704-1.05.981v.002h-.001a9 9 0 0 1-.6.46c-1.301.895-2.462 1.036-4.12.577a17 17 0 0 1-1.85-.654c-2.75-1.125-6.765-3.227-13.563-5.945a184 184 0 0 0-8.352-3.103l-.01-.003q-.003 0-.005-.002c-5.263-1.813-11.416-3.503-17.785-4.938h-.001c-.096-.022-.174-.053-.27-.075-.77-.172-1.377-.438-2.155-.598-.657-.135-1.339-.192-2.001-.318h-.002c-1.504-.286-2.982-.484-4.503-.715a102 102 0 0 0-7.781-.874h-.002c-2.331-.173-4.64-.338-6.932-.314-.335.004-.682-.054-1.016-.046l-.045.003q-.597.014-1.19.04c-2.137.09-4.243.28-6.299.586h-.005q-2.077.31-4.156.78c-.695.157-1.38.438-2.074.621-1.041.276-2.073.54-3.109.874-.65.21-1.296.407-1.942.64-.989.355-1.952.796-2.93 1.203-1.035.432-2.064.844-3.084 1.332-.589.282-1.175.552-1.758.853-.982.507-1.922 1.103-2.885 1.663-1.005.584-2.009 1.143-2.988 1.783-.518.338-1.035.664-1.545 1.018-.95.658-1.838 1.408-2.758 2.119-.95.735-1.91 1.438-2.825 2.228-.44.38-.883.747-1.314 1.14-.89.809-1.699 1.71-2.548 2.571-.87.883-1.76 1.729-2.584 2.665-.357.405-.719.8-1.067 1.215-.806.962-1.508 2.017-2.261 3.031-.761 1.024-1.552 2.009-2.256 3.084-.273.418-.554.826-.818 1.252-.692 1.114-1.255 2.322-1.88 3.488-.623 1.16-1.291 2.277-1.844 3.486-.192.419-.392.827-.575 1.252-.546 1.266-.936 2.625-1.401 3.942-.492 1.39-1.058 2.732-1.455 4.178-.1.366-.205.728-.3 1.098-.073.288-.127.585-.196.875l-.037.164c-.188.794-.38 1.585-.538 2.394-.164.836-.29 1.69-.42 2.542-.127.821-.258 1.638-.353 2.474v.001q-.076.659-.138 1.321c-.026.282-.031.572-.054.855-.012.16-.018.322-.03.482-.06.843-.13 1.681-.158 2.538-.03.91-.014 1.838-.007 2.764.006.787.006 1.57.04 2.367v.002q.028.645.07 1.297c.108 1.744.47 3.574.714 5.367.22 1.61.32 3.176.655 4.824.063.311.114.618.182.93.414 1.916 1.121 3.915 1.698 5.879.495 1.685.846 3.327 1.466 5.046.095.264.178.523.276.787.783 2.111 1.901 4.303 2.88 6.463.73 1.612 1.251 3.173 2.095 4.81.06.116.15.238.21.354.108.206.205.41.314.617 1.244 2.357 2.87 4.79 4.357 7.198 1.053 1.704 1.906 3.369 3.085 5.096.098.143.188.285.287.428 1.907 2.772 4.25 5.615 6.495 8.443l.026.035c1.183 1.49 2.14 2.943 3.42 4.447q.094.11.187.223c3.596 4.212 7.635 8.486 12.024 12.8.245.242.424.474.672.716a240 240 0 0 0 5.964 5.611c3.206 2.917 6.903 5.759 10.435 8.633 2.492 2.027 4.748 4.104 7.361 6.09 25.354 19.264 55.642 36.165 75.55 42.967C278.336.16 286.114.861 292.776-.97q1.426-.393 2.793-.938a29 29 0 0 0 2.69-1.239c2.652-1.387 5.202-3.214 7.806-5.442 3.474-2.97 7.044-6.655 11.083-10.962 6.468-6.897 12.378-13.644 17.763-20.235h.001c.012-.014.019-.026.03-.04 5.299-6.487 10.092-12.825 14.404-19.007.622-.892 1.034-1.714 1.636-2.6 2.02-2.97 3.681-5.811 5.483-8.708 2.093-3.365 4.414-6.805 6.222-10.07.637-1.15 1.113-2.237 1.716-3.375 1.444-2.726 2.615-5.34 3.867-7.993 1.368-2.9 2.882-5.852 4.028-8.664.188-.463.496-.973.679-1.433v-.001c.463-1.169.751-2.264 1.177-3.417.53-1.433.99-2.83 1.462-4.24.738-2.197 1.541-4.42 2.144-6.558.304-1.08.481-2.096.752-3.16.492-1.933.984-3.866 1.368-5.749.133-.648.35-1.335.47-1.977.133-.71.197-1.385.315-2.088.185-1.104.345-2.196.493-3.281.1-.726.247-1.475.33-2.193.122-1.058.186-2.084.274-3.124.065-.768.15-1.544.196-2.303a97 97 0 0 0 .134-2.83c.036-1.121.027-2.217.023-3.316-.004-1.176.013-2.362-.036-3.512-.019-.444-.061-.872-.086-1.312a85 85 0 0 0-.237-2.954 83 83 0 0 0-.51-4.304c-.094-.644-.147-1.314-.255-1.948-.062-.363-.163-.698-.23-1.058l-.008-.04a77 77 0 0 0-.89-4.099c-.228-.946-.45-1.897-.71-2.82-.136-.476-.25-.966-.393-1.436-.095-.312-.218-.6-.317-.91-.179-.561-.385-1.102-.576-1.654-.289-.836-.556-1.688-.872-2.504-.368-.952-.782-1.867-1.185-2.79-.269-.615-.533-1.229-.816-1.83-.228-.484-.431-.988-.668-1.463a70 70 0 0 0-3.147-5.67c-.01-.017-.024-.032-.034-.05a69 69 0 0 0-3.823-5.488c-.437-.572-.905-1.106-1.357-1.66-.64-.786-1.254-1.603-1.923-2.355l-.026-.026c-.307-.344-.648-.647-.961-.984a70 70 0 0 0-2.007-2.054 70 70 0 0 0-2.524-2.407c-.332-.298-.652-.61-.988-.9-.496-.43-1.01-.825-1.516-1.238a71 71 0 0 0-3.108-2.39c-.53-.387-1.039-.81-1.579-1.181-.263-.181-.538-.336-.803-.513a72 72 0 0 0-3.262-2.026c-.756-.45-1.502-.914-2.271-1.334-.309-.168-.609-.355-.92-.519-.267-.14-.545-.251-.814-.389-.687-.351-1.387-.667-2.083-.995-.691-.327-1.369-.685-2.068-.989-.622-.27-1.255-.5-1.883-.753a73 73 0 0 0-2.097-.793c-.37-.136-.735-.29-1.106-.419-.332-.115-.655-.262-.988-.373-1.093-.363-2.204-.64-3.309-.95-.609-.171-1.21-.365-1.821-.52-.363-.091-.722-.199-1.086-.285-.618-.146-1.241-.236-1.861-.365-1.405-.292-2.808-.584-4.22-.79q-.254-.04-.507-.076c-.707-.099-1.413-.134-2.12-.21-1.31-.142-2.615-.273-3.923-.34-.29-.015-.58-.064-.87-.075-.175-.007-.348.01-.523.006-.518-.016-1.03.009-1.547.005-.666-.005-1.336-.06-2-.045z" style="mix-blend-mode:overlay"/><path fill="url(#aY)" d="M309.25-219.702h-.032l-.028.002c-1.756.04-3.5.173-5.234.352h-.003c-.784.082-1.556.21-2.334.319l-.2.032c-.331.048-.673.039-1.002.092-.316.05-.615.161-.93.217-.15.026-.3.045-.45.072-.616.113-1.237.203-1.848.334-.469.101-.922.248-1.387.36h-.002l-.338.088c-.827.204-1.653.403-2.47.641-.107.032-.212.07-.319.103-.248.074-.512.101-.76.179-.287.09-.551.238-.837.332-.159.053-.32.1-.478.154h-.003q-.896.305-1.78.637h-.003c-.362.137-.74.227-1.1.37-.187.076-.36.18-.547.257-.72.297-1.416.645-2.117.983-.395.182-.82.291-1.21.483-.23.113-.45.25-.68.367l-.01.006q-.388.202-.775.409h-.002c-.167.088-.345.15-.51.24-.09.048-.17.112-.259.16-.12.067-.23.15-.35.217l-.004.002c-.408.229-.83.429-1.234.668l-.003.002c-.606.36-1.184.772-1.777 1.157l-.007-.013-.013-.025a53 53 0 0 0-1.847 1.255l-.015.01c-.145.103-.26.212-.402.315l-.08.064a55 55 0 0 0-3.427 2.688l-.002.002-.018.017c-.495.426-.907.848-1.37 1.274l-.31.289v.001c-.107.1-.254.198-.359.297-.028.027-.067.053-.095.08l-.025.02c-.158.151-.275.29-.417.437-.229.222-.498.448-.718.668v.001l-.036.038c-.691.692-1.151 1.266-1.77 1.933-.555.57-1.139 1.153-1.617 1.692h-.002v.002l-.002.002c-.028.032-.069.07-.097.101a253 253 0 0 0-1.68 1.922c-.4.462-.739.835-1.107 1.256-.27.308-.552.632-.807.914l-.345.375-.009.01c-.056.061-.108.113-.164.172-.122.13-.228.216-.346.338-.084.087-.162.156-.245.24-.345.346-.704.73-1.027 1.004-.024.02-.052.054-.076.074l-.009.009-.01.01v.001q-.307.255-.604.46l-.022.013q-.296.202-.588.35-.064.036-.13.069l-.113.051a4 4 0 0 1-.384.15 4 4 0 0 1-.612.149l-.13.02a4 4 0 0 1-.28.022l-.106.006q-.18.005-.369-.007h-.03l-.045-.005a6 6 0 0 1-.427-.05 8 8 0 0 1-.872-.199c-.09-.025-.193-.061-.287-.09-.363-.11-.759-.254-1.175-.416a45 45 0 0 1-2.008-.86c-2.407-1.077-5.909-2.7-10.655-4.657-.6-.247-.646-.308-1.295-.567a184 184 0 0 0-8.352-3.104l-.01-.003-.005-.002-.5-.171-.115-.04-.145-.048c-5.678-1.929-12.237-3.83-19.084-5.26-.081-.017-.145-.046-.227-.063h-.005a6 6 0 0 0-.278-.058l-.006-.001c-2.087-.427-4.228-.68-6.353-1.003h-.004c-1.564-.237-3.106-.57-4.676-.737l-.014-.002c-.737-.079-1.458-.037-2.194-.099-2.753-.23-5.48-.41-8.18-.368-.21.003-.427-.034-.636-.029l-.024.001h-.008l-.277.009h-.05l-.051.003c-.29.01-.58.017-.87.03-2.133.09-4.235.28-6.287.586a57 57 0 0 0-4.16.78c-.698.157-1.384.438-2.08.623-1.038.274-2.066.537-3.098.87-.65.21-1.295.407-1.942.64-.99.355-1.953.795-2.932 1.203-1.035.431-2.063.843-3.083 1.332-.589.282-1.175.551-1.757.852-.984.508-1.925 1.104-2.89 1.665-1.001.582-2.004 1.14-2.981 1.778-.52.34-1.04.668-1.552 1.023-.947.657-1.834 1.405-2.752 2.114-.95.735-1.91 1.438-2.826 2.228-.441.381-.885.75-1.317 1.144-.891.81-1.701 1.711-2.552 2.574-.869.88-1.756 1.726-2.58 2.66-.357.406-.718.8-1.067 1.216-.807.963-1.51 2.02-2.266 3.037-.758 1.02-1.547 2.001-2.248 3.073l-.002.002c-.274.42-.556.828-.821 1.256-.693 1.116-1.256 2.325-1.883 3.492-.621 1.157-1.288 2.272-1.84 3.478v.001c-.192.42-.393.83-.576 1.255-.548 1.27-.938 2.633-1.405 3.954-.49 1.385-1.054 2.72-1.449 4.16-.101.368-.207.733-.302 1.105-.073.288-.127.585-.197.876l-.039.174c-.186.787-.376 1.571-.533 2.373v.002c-.165.843-.293 1.703-.424 2.562-.125.815-.257 1.626-.351 2.455v.002q-.076.66-.138 1.329c-.026.281-.031.57-.054.853-.013.162-.018.327-.03.49-.06.84-.13 1.677-.158 2.532v.003c-.03.907-.013 1.832-.006 2.754.005.669-.03 1.32-.005 1.997.004.12.039.252.044.374q.03.645.071 1.297c.107 1.74.469 3.568.712 5.357.22 1.613.32 3.182.656 4.834.064.312.115.62.183.933.414 1.914 1.12 3.912 1.696 5.874.496 1.687.847 3.33 1.468 5.051v.001c.094.262.177.52.275.783.782 2.11 1.898 4.298 2.876 6.456.784 1.73 1.397 3.417 2.311 5.176.106.204.203.405.31.609 1.25 2.368 2.88 4.812 4.375 7.23 1.048 1.695 1.896 3.35 3.069 5.068v.001c.097.143.187.285.286.428 1.915 2.784 4.266 5.639 6.522 8.48 1.183 1.489 2.14 2.942 3.42 4.446l.185.22c3.586 4.2 7.615 8.463 11.989 12.765.258.254.447.5.708.754a240 240 0 0 0 5.963 5.611c5.468 4.974 11.479 9.923 17.796 14.723C217.27-27.261 247.557-10.36 267.465-3.56c.05.018.088.023.139.04 2.869.976 5.5 1.713 7.974 2.277a50.6 50.6 0 0 0 7.118 1.117c.439.032.877.061 1.305.078.667.025 1.316.023 1.956.01.382-.008.77-.01 1.144-.03a29 29 0 0 0 2.044-.205c.289-.038.587-.059.87-.105a27 27 0 0 0 2.778-.594q1.425-.392 2.792-.938a29 29 0 0 0 2.69-1.239c.048-.025.094-.062.142-.087 1.008-.535 2.002-1.175 2.99-1.835a49 49 0 0 0 4.673-3.52c3.473-2.97 7.044-6.655 11.083-10.962 6.467-6.897 12.377-13.643 17.762-20.234h.003c.012-.014.019-.027.03-.04 5.299-6.488 10.091-12.826 14.403-19.008q.127-.183.244-.361l.005-.008c.573-.825.937-1.58 1.493-2.398l.008-.014c1.964-2.903 3.605-5.69 5.37-8.527 2.092-3.365 4.413-6.805 6.221-10.07l.04-.08c.134-.24.332-.505.464-.746.18-.328.274-.624.452-.951.29-.535.456-1.023.738-1.555l.022-.043c1.444-2.726 2.615-5.34 3.866-7.993 1.222-2.59 2.509-5.2 3.597-7.736.287-.692.74-1.449 1.014-2.136l.002-.002q.051-.114.095-.223v-.001q.091-.231.175-.458l.005-.014c.513-1.305.836-2.53 1.302-3.815.155-.427.282-.841.432-1.265.238-.7.49-1.405.725-2.104.055-.164.104-.324.16-.488.588-1.774 1.325-3.613 1.825-5.349l.004-.012c.293-1.016.434-1.962.697-2.964.148-.566.253-1.11.392-1.671l.02-.086c.418-1.646.84-3.293 1.167-4.897.132-.649.35-1.335.47-1.977.016-.083.023-.162.037-.244.03-.16.087-.334.115-.494q0-.006.002-.01v-.002c.101-.559.113-1.073.204-1.627q.248-1.508.45-2.993c.099-.726.246-1.475.33-2.193.121-1.058.186-2.083.274-3.123l.03-.366c.035-.43.137-.896.166-1.323v-.01c.018-.275-.008-.525.008-.798a96 96 0 0 0 .124-2.636c.036-1.122.027-2.217.023-3.317-.004-1.175.014-2.362-.035-3.512-.003-.063-.01-.125-.013-.187-.007-.148.012-.31.004-.458v-.004c-.014-.281-.073-.534-.09-.812a89 89 0 0 0-.224-2.805 83 83 0 0 0-.51-4.304c-.094-.644-.147-1.313-.256-1.948l-.024-.112c-.01-.061-.01-.129-.02-.19-.054-.304-.155-.576-.211-.878a78 78 0 0 0-.871-4.016c-.23-.947-.45-1.897-.712-2.82-.134-.477-.249-.966-.392-1.436l-.029-.084c-.091-.297-.208-.574-.303-.869-.176-.546-.375-1.073-.56-1.611-.29-.837-.557-1.688-.872-2.504-.369-.953-.783-1.867-1.186-2.79l-.04-.088c-.14-.32-.233-.678-.377-.995v-.002c-.117-.256-.272-.478-.392-.732l-.006-.014c-.228-.484-.43-.987-.668-1.463a70 70 0 0 0-3.146-5.67q-.018-.023-.035-.049l-.134-.214c-.671-1.07-1.405-2.078-2.125-3.1-.363-.514-.696-1.059-1.071-1.56-.155-.208-.327-.397-.484-.602l-.009-.013c-.089-.116-.185-.225-.276-.338-.91-1.175-1.827-2.342-2.8-3.445l-.204-.231v-.001l-.025-.025-.065-.072c-.29-.315-.605-.599-.896-.913a70 70 0 0 0-2.007-2.054c-.51-.506-1.033-.989-1.552-1.48-.4-.374-.76-.801-1.168-1.165l-.013-.01c-.166-.148-.35-.268-.518-.414q-.129-.121-.262-.238c-.495-.429-1.01-.825-1.515-1.238a68 68 0 0 0-2.36-1.815c-.507-.38-.976-.82-1.491-1.186l-.01-.007c-.154-.109-.321-.193-.476-.3-.117-.087-.23-.18-.35-.263-.263-.18-.538-.335-.803-.512a72 72 0 0 0-3.263-2.026q-.19-.11-.379-.223c-.444-.26-.861-.575-1.31-.826l-.01-.005c-.186-.103-.385-.178-.572-.28l-.003-.001c-.308-.168-.607-.354-.917-.518-.267-.14-.545-.251-.814-.389-.687-.351-1.387-.666-2.083-.995-.691-.326-1.369-.685-2.068-.99q-.042-.015-.084-.033c-.128-.055-.249-.13-.377-.184l-.011-.004c-.327-.14-.668-.23-.997-.365l-.414-.166a73 73 0 0 0-2.097-.793c-.37-.136-.735-.29-1.106-.419-.332-.115-.655-.262-.988-.373-.284-.094-.573-.162-.859-.247-.241-.077-.474-.187-.716-.261l-.004-.001c-.507-.156-1.026-.242-1.535-.386l-.195-.056c-.609-.17-1.209-.364-1.82-.519-.364-.091-.723-.2-1.087-.285-.498-.118-1-.2-1.501-.294-.406-.087-.803-.225-1.21-.304-.535-.105-1.076-.136-1.612-.229-.586-.109-1.169-.242-1.756-.328q-.254-.04-.507-.077c-.673-.093-1.346-.13-2.02-.2h-.004c-.159-.017-.317-.051-.477-.067-.352-.036-.703-.119-1.056-.15-.515-.045-1.027-.017-1.541-.05-.314-.023-.628-.066-.942-.082-.29-.015-.58-.064-.87-.075-.175-.007-.348.01-.523.006-.518-.016-1.03.009-1.547.005-.579-.004-1.16-.038-1.737-.039-.09.002-.18-.01-.27-.009h-.003z" style="mix-blend-mode:overlay"/><path fill="url(#aZ)" d="m309.252-219.71-.002.007-.018.002h-.043l-.326.008-.055.002-.054.002q-.39.013-.78.031c-.519.024-1.033.078-1.55.115-.88.058-1.757.123-2.631.215q-.345.038-.69.084l-.01.002c-.353.04-.704.078-1.056.125-.355.048-.706.106-1.059.16-.188.012-.378.024-.562.053-.022.003-.042.012-.063.016-.035.006-.072.006-.107.012-.193.03-.375.097-.567.13q-.333.06-.664.123c-.494.091-.988.175-1.478.278h-.002v.002h-.004c-.096.018-.194.032-.29.052l-.054.01q-.262.058-.52.127c-.226.046-.455.082-.68.135h-.005c-.235.056-.458.145-.692.203l-.092.028h-.002c-.225.056-.456.096-.681.156-.183.048-.37.077-.553.127-.383.105-.757.238-1.135.36-.272.08-.555.126-.826.21l-.049.012h-.004q-.006.001-.011.004l-.024.008-.039.012-.002.002c-.13.04-.255.095-.385.136-.535.172-1.058.377-1.588.565h-.002v.002h-.002l-.023.008c-.16.053-.323.1-.482.158h-.002v.002h-.002q-.354.13-.703.264c-.316.12-.64.214-.954.34q-.006 0-.011.003l-.006.002h-.004l-.002.002h-.002v.002h-.002l-.002.002-.018.008h-.002l-.006.002-.002.002h-.002l-.023.01-.008.004q-.096.041-.19.086l-.008.004h-.002l-.002.002h-.004a7 7 0 0 1-.267.12c-.27.11-.531.24-.8.355q-.484.21-.966.43l-.03.011-.01.004c-.479.208-.961.408-1.43.637l-.054.023h-.002l-.023.012-.018.008-.002.002h-.004l-.002.002h-.002l-.072.038c-.348.171-.689.356-1.033.535l-.043.021c-.26.136-.525.264-.783.404l-.037.02-.022.014-.004.002c-.374.203-.742.417-1.111.629-.19.108-.38.211-.569.322l-.015.01-.05.03h-.003l-.002.001h-.002l-.002.002-.002.002-.002.002h-.002l-.002.002-.002.002-.056.032h-.002v.002l-.077.045-.002.002v.002h-.002l-.01.006-.002.002-.008.004-.006.004h-.002l-.002.002-.002.002q-.85.507-1.685 1.048l-.002.002-.467.307h-.002q-.609.407-1.207.83l-.008.006q-.07.047-.139.096l-.008.006-.011.008-.002.002-.002.002h-.002l-.002.002h-.002l-.002.002-.006.004h-.002l-.002.002-.002.002-.002.002-.002.002-.002.002h-.002l-.002.002-.01.008-.05.037-.001.002-.04.03a52 52 0 0 0-2.943 2.267l-.002.002q-.434.354-.847.709v.002h-.002l-.002.002-.006.006-.01.01-.002.002q-.161.139-.31.277-.007.004-.01.008l-.022.02-.002.002-.022.02a61 61 0 0 0-1.68 1.532l-.002.002-.002.002-.023.02h-.002l-.002.002-.002.002-.002.002-.008.008q-.029.02-.053.04l-.002.003-.006.006-.002.002-.002.002-.01.008-.002.002-.002.002h-.002l-.002.002-.002.002-.015.015-.004.004-.002.002h-.002c-.021.02-.034.037-.055.057q-.328.318-.615.623l-.002.002h-.002c-.146.133-.293.266-.424.397h-.002l-.002.002v.002l-.035.037c-.528.528-.92.988-1.352 1.472l-.002.002v.002l-.002.002-.002.002h-.002l-.012.016a73 73 0 0 0-1.726 1.814l-.117.125-.004.004c-.054.06-.12.123-.172.182l-.002.002-.002.002-.002.002h-.002l-.002.002-.03.031-.033.035-.008.01-.002.002h-.002l-.002.002v.002l-.006.006h-.002v.002h-.002l-.002.002v.002l-.002.002-.002.002v.002l-.002.002-.002.002-.02.022v.002l-.003.004-.004.004-.04.045-.015.015v.002h-.002v.002l-.021.026c-.114.128-.22.25-.33.377l-.065.074-.215.244-.088.1-.068.078-.27.308-.002.002-.004.004-.017.02-.02.023-.502.576-.638.735-.004.004-.088.1c-.099.112-.185.206-.281.316-.311.355-.618.7-.909 1.021l-.002.002-.015.016c-.104.112-.209.23-.313.342q-.002 0-.004.004l-.002.002-.002.002-.002.002v.002l-.002.002-.228.246-.01.01-.004.004-.02.017c-.08.077-.156.144-.238.229l-.004.004c-.082.084-.16.153-.24.234l-.004.004-.018.018-.213.215-.027.027-.006.006c-.24.232-.493.506-.72.701l-.032.03-.002.001h-.002l-.002.002-.002.002-.004.004-.033.032-.004.004-.063.052h-.002v.002l-.002.002h-.002l-.02.018h-.001l-.002.002-.03.023-.066.053-.022.018c-.106.084-.213.17-.318.246l-.043.031-.006.004-.088.062h-.002v.002l-.002.002h-.002c-.04.028-.08.049-.119.075l-.062.04-.002.003-.05.03c-.055.036-.113.074-.17.106h-.001v.004h-.002l-.008.004-.053.03-.047.025-.008.004-.076.041-.008.004-.006.004-.002.002-.004.002-.004.002h-.004l-.002.002h-.002l-.002.002h-.004l-.002.002v.002h-.004a4 4 0 0 1-.523.227q-.238.083-.479.134l-.033.006q-.18.038-.363.057l-.03.002-.033.002h-.012q-.17.016-.346.018h-.029l-.104-.004-.168-.006h-.008c-.069-.005-.142-.018-.213-.026l-.046-.008-.073-.012-.068-.01q-.118-.014-.238-.035a10 10 0 0 1-.356-.074q-.165-.041-.334-.088c-.091-.025-.193-.061-.287-.09l-.098-.03c-.217-.069-.463-.16-.699-.247q-.222-.08-.455-.172c-.375-.146-.84-.353-1.268-.539l-.113-.049-.031-.013-.025-.012c-.172-.076-.32-.134-.495-.213l-2.933-1.322-.045-.02-.611-.275a191 191 0 0 0-7.332-3.168c-.223-.09-.333-.152-.563-.244l-.166-.072-.008-.004-.291-.12a184 184 0 0 0-8.352-3.103l-.01-.004-.002-.002h-.004l-.5-.172-.115-.039-.144-.049q-1.57-.534-3.225-1.06c-4.861-1.547-10.231-3.022-15.793-4.186-.09-.019-.167-.05-.258-.068h-.004l-.017-.004h-.002l-.002-.002h-.002l-.008-.002h-.006l-.02-.004-.002-.002h-.004l-.105-.024-.149-.029h-.008l-.271-.055-.018-.004-.037-.008h-.002l-.008-.002h-.006v-.002h-.004l-.008-.002h-.002q-.01 0-.021-.004a64 64 0 0 0-2.944-.488c-2.381-.436-4.778-.84-7.187-1.115a24 24 0 0 0-.516-.06h-.01l-.002-.003h-.014q-.008 0-.015-.002h-.008l-.002-.002h-.006l-.032-.002h-.002l-.006-.002h-.002a9 9 0 0 0-.42-.029c-2.278-.232-4.538-.301-6.795-.361-.724-.019-1.463-.122-2.183-.12-.233.001-.453.046-.686.05l-.213.001h-.013c-.087.001-.177-.013-.264-.011a4 4 0 0 0-.36-.018h-.031l-.043.002-.283.008h-.01l-.027.002-.11.004-.109.004-.404.014h-.014q-.064.001-.127.006l-.129.004h-.004l-.004.002h-.002c-.039.002-.076.008-.115.01-.024 0-.046.005-.07.006a60 60 0 0 0-6.053.564l-.02.002-.011.002h-.008l-.014.002-.094.016q-1.338.202-2.68.472l-.095.018a55 55 0 0 0-1.277.271l-.01.002a6 6 0 0 0-.295.077 13 13 0 0 0-.522.158l-.054.015c-.072.018-.144.043-.215.061l-.184.05-.025.007c-.781.195-1.556.404-2.334.633l-.006.002-.016.006h-.004c-.643.189-1.282.372-1.922.584-.723.238-1.437.512-2.156.779-.807.3-1.607.605-2.406.94-.59.246-1.178.487-1.764.753-.715.325-1.414.685-2.121 1.037l-.215.106c-.741.372-1.476.746-2.207 1.148h-.002l-.002.002h-.002c-.535.295-1.069.582-1.598.893l-.058.035a159.6 159.6 0 0 0-5.488 41.488A159.55 159.55 0 0 0 293.095-1.05c.567-.171 1.12-.376 1.675-.578.173-.063.354-.102.526-.168.028-.01.055-.026.084-.037.06-.024.125-.038.185-.063a29 29 0 0 0 2.692-1.24q.036-.02.072-.045l.01-.006.002-.001.058-.036c.666-.353 1.32-.779 1.975-1.187.39-.242.785-.444 1.172-.705l.014-.01c.415-.28.828-.622 1.242-.924l.297-.22c.536-.399 1.073-.762 1.611-1.196l.01-.008q.67-.529 1.342-1.103c.408-.35.89-.92 1.303-1.29 1.097-.984 2.173-1.873 3.31-2.993l.004-.004c1.952-1.924 3.997-4.07 6.156-6.37l.014-.013c.107-.114.187-.178.295-.293 6.467-6.897 12.378-13.643 17.764-20.234h.002l.03-.04c5.3-6.487 10.091-12.825 14.403-19.007q.127-.182.244-.362v-.002l.002-.002.002-.002v-.002a12 12 0 0 0 .186-.275l.015-.023c.97-1.4 1.612-2.69 2.534-4.073.064-.097.115-.188.18-.285a593 593 0 0 0 3.956-6.283c.173-.277.337-.55.512-.828l.008-.002c1.95-3.098 4.041-6.242 5.701-9.238l.002-.002v-.002l.002-.006c.06-.107.147-.224.205-.33.073-.11.144-.222.202-.327l.002-.002v-.002h.002v-.002l.002-.002.002-.002v-.002q.046-.075.085-.148.051-.09.094-.18v-.002l.002-.002v-.002l.01-.017.008-.016c.032-.058.05-.11.08-.168.484-.886.758-1.694 1.22-2.572l.015-.03c.65-1.246 1.249-2.47 1.826-3.687.464-.967.914-1.929 1.367-2.893l.459-.974c.464-.985.937-1.972 1.406-2.957l.162-.338q.33-.688.645-1.371c.234-.502.452-1 .678-1.498.282-.617.598-1.246.855-1.854.029-.057.05-.113.078-.17q.043-.086.08-.17c.164-.398.427-.835.586-1.232l.008-.016v-.002h.002v-.004l.002-.002v-.004l.006-.011.002-.002v-.002q.054-.12.1-.239v-.002h.002v-.002q.052-.113.096-.222.09-.232.173-.46l.004-.007.002-.002.002-.002v-.004q.06-.15.114-.3l.058-.155.006-.016v-.002l.004-.01.002-.002v-.004l.002-.002v-.002l.002-.002v-.002l.002-.002v-.004l.002-.006v-.002l.002-.002.002-.002v-.004l.002-.002v-.008l.002-.002v-.002l.018-.047.002-.01.002-.004v-.002h.002v-.004l.008-.02c.509-1.314.855-2.56 1.318-3.855.915-2.558 1.87-5.134 2.61-7.617l.085-.27.002-.008v-.002h.002v-.002l.002-.006.006-.021.002-.002.01-.031q.094-.296.178-.588v-.004l.002-.002v-.002l.002-.002v-.004q.061-.212.113-.42l.006-.022v-.004l.002-.002v-.008l.008-.029.01-.04c.172-.606.283-1.183.415-1.77.05-.19.08-.371.13-.56.017-.063.027-.122.043-.185.255-.972.47-1.926.684-2.878l.02-.086c.104-.421.197-.838.296-1.256q.136-.553.262-1.102l.008-.03c.064-.282.14-.57.2-.849l.08-.377c.132-.648.35-1.336.47-1.978q.018-.104.031-.205v-.004c.02-.107.057-.222.076-.328v-.01l.004-.01v-.01h.002v-.006h.002v-.002l.002-.01q.02-.078.034-.153v-.004h.002v-.008q.026-.145.047-.289v-.008h.002v-.006q.001-.014.004-.027v-.012h.002v-.002l.008-.068v-.002c.048-.278.055-.533.101-.809.024-.142.03-.274.053-.416.016-.098.02-.19.035-.287l.006-.043v-.004q.216-1.334.397-2.649c.099-.726.247-1.473.33-2.191.122-1.058.185-2.085.273-3.125l.016-.184v-.004l.002-.002v-.008c.028-.347.108-.72.132-1.066l.018-.144v-.004h.002v-.016l.002-.012.002-.022v-.004a4 4 0 0 0 .022-.222v-.01q.006-.094.008-.186v-.012l.002-.035v-.068c.013-.211-.006-.404.006-.614v-.021h.002v-.002q.074-1.26.115-2.5c.036-1.123.027-2.217.023-3.317-.004-1.175.014-2.362-.035-3.512q-.004-.067-.012-.132v-.03c-.002-.049.004-.103.002-.152l.002-.088v-.11q.002-.067 0-.132v-.006a3 3 0 0 0-.013-.16l-.002-.018v-.004l-.004-.05v-.003l-.002-.006v-.002c-.015-.274-.07-.524-.086-.797a94 94 0 0 0-.207-2.576 83 83 0 0 0-.512-4.305c-.082-.563-.131-1.147-.215-1.709q-.018-.12-.039-.238l-.01-.047-.002-.006-.02-.117v-.004l-.003-.037q-.003-.047-.01-.092a3 3 0 0 0-.04-.184l-.008-.033-.008-.029c-.053-.301-.152-.572-.209-.871l-.002-.01-.002-.01a79 79 0 0 0-.814-3.758c-.23-.947-.45-1.897-.711-2.82-.135-.476-.25-.966-.393-1.436l-.002-.006-.027-.078-.02-.056c-.04-.13-.092-.251-.132-.381a5 5 0 0 1-.072-.21q-.041-.109-.079-.222c-.175-.546-.374-1.073-.56-1.611-.29-.837-.557-1.688-.873-2.504-.355-.918-.753-1.8-1.143-2.69-.122-.281-.204-.596-.33-.875l-.004-.011-.045-.104v-.002l-.002-.002s0-.006-.002-.008l-.002-.002-.004-.01a4 4 0 0 0-.07-.17v-.004a3 3 0 0 0-.082-.164l-.002-.002-.002-.002v-.004l-.012-.021-.074-.157-.002-.002v-.002l-.004-.006-.01-.021c-.153-.33-.33-.64-.486-.965l-.004-.01c-.126-.286-.251-.575-.389-.852a77 77 0 0 0-1.19-2.29l-.07-.131q-.052-.093-.105-.182l-.004-.006-.012-.022-.035-.06q-.32-.576-.648-1.143l-.116-.203-.023-.04a51 51 0 0 0-.943-1.593l-.036-.05-.132-.215a31 31 0 0 0-.41-.633l-.02-.03-.108-.16-.062-.09-.191-.286q-.146-.22-.295-.434c-.18-.267-.368-.526-.551-.789l-.09-.129c-.343-.496-.671-1.007-1.025-1.492q-.134-.192-.272-.379l-.03-.04a11 11 0 0 0-.245-.33l-.01-.01a61 61 0 0 0-1.094-1.411q-.657-.824-1.334-1.625l-.27-.326-.011-.016q-.03-.04-.063-.078l-.03-.035a43 43 0 0 0-.655-.764q-.1-.117-.203-.23v-.002l-.026-.026-.064-.07-.127-.135-.002-.002-.006-.006-.069-.07-.002-.002h-.002l-.002-.002q-.076-.079-.154-.156c-.18-.179-.36-.355-.533-.541a70 70 0 0 0-2.813-2.83q-.239-.231-.48-.46c-.368-.347-.704-.737-1.078-1.076l-.008-.008-.03-.027q-.068-.068-.14-.133h-.002v-.002l-.002-.002-.002-.002h-.002l-.002-.002q-.082-.08-.168-.158l-.004-.002h-.002v-.002h-.002l-.006-.004-.002-.002-.07-.058-.034-.03h-.002l-.002-.002-.058-.049-.006-.004-.002-.002q-.022-.016-.043-.035l-.002-.002h-.002l-.002-.002-.002-.002-.008-.006c-.057-.05-.12-.089-.176-.138q-.053-.044-.107-.086l-.026-.022-.01-.008-.002-.002h-.002q-.11-.105-.224-.205c-.496-.428-1.01-.825-1.516-1.238a45 45 0 0 0-1.242-.975q-.41-.316-.825-.625l-.023-.02h-.002c-.451-.341-.872-.732-1.33-1.062l-.006-.006a8 8 0 0 0-.234-.174l-.045-.033-.145-.105-.002-.002-.002-.002-.002-.002h-.002l-.002-.002q-.04-.028-.08-.053l-.014-.01-.002-.002h-.002a2 2 0 0 0-.107-.07l-.014-.01h-.002c-.092-.065-.19-.116-.283-.18l-.008-.006h-.002l-.002-.002-.012-.008q-.147-.114-.298-.223c-.263-.18-.538-.334-.803-.511a71 71 0 0 0-3.194-1.985l-.01-.006-.004-.002-.054-.033c-.405-.24-.787-.526-1.196-.758l-.021-.013-.006-.004-.037-.024h-.002l-.002-.002-.012-.008a7 7 0 0 0-.26-.152l-.07-.04-.084-.048-.002-.002v-.002h-.006l-.002-.002h-.002l-.06-.031-.024-.014-.133-.068c-.007-.003-.015-.01-.021-.012-.148-.082-.305-.142-.453-.223-.267-.15-.529-.308-.8-.45-.267-.142-.545-.252-.814-.39-.686-.35-1.386-.667-2.082-.996-.691-.326-1.37-.684-2.07-.988l-.015-.006-.034-.016-.015-.008c-.07-.03-.136-.071-.205-.101a2 2 0 0 0-.133-.065h-.002l-.031-.013-.034-.014-.002-.002-.07-.03q-.06-.023-.119-.042h-.002l-.098-.037-.002-.002h-.004a73 73 0 0 0-5.142-1.946l-.004-.002a6 6 0 0 0-.42-.136l-.1-.032-.07-.023q-.47-.155-.94-.303-.075-.029-.15-.053l-.053-.015h-.002v-.002h-.002l-.002-.002h-.002l-.058-.018a8 8 0 0 0-.307-.086h-.002c-.477-.143-.964-.227-1.443-.361l-.008-.002h-.002v-.002h-.002l-.006-.002c-.575-.164-1.145-.344-1.723-.49-.363-.092-.722-.2-1.086-.285-.43-.102-.864-.173-1.297-.252h-.002l-.017-.004c-.198-.043-.394-.108-.592-.149-.17-.035-.335-.093-.504-.127h-.002l-.037-.008q-.13-.031-.26-.058h-.01l-.002-.002h-.004l-.01-.002v-.002h-.004l-.008-.002h-.004l-.021-.004a5 5 0 0 0-.254-.041h-.002c-.29-.056-.584-.072-.875-.123l-.008-.002-.01-.002a51 51 0 0 0-2.16-.377q-.254-.04-.506-.076c-.623-.087-1.246-.128-1.87-.188h-.007c-.47-.052-.938-.156-1.409-.2a5 5 0 0 0-.271-.03h-.012l-.016-.002a6 6 0 0 0-.257-.016h-.006a69 69 0 0 0-2.89-.18 3 3 0 0 0-.173-.01h-.02l-.109-.002h-.019c-.078-.003-.155 0-.233-.002a68 68 0 0 0-3.543-.029h-.004l-.068-.002c-.03 0-.062-.005-.092-.004z" style="mix-blend-mode:overlay"/></g></g></svg>