<svg xmlns="http://www.w3.org/2000/svg" xmlns:xlink="http://www.w3.org/1999/xlink" width="3000" height="3600"><defs><linearGradient id="a"><stop offset="0" style="stop-color:#f3cfaa;stop-opacity:1"/><stop offset=".5" style="stop-color:#f2caa2;stop-opacity:1"/><stop offset="1" style="stop-color:#eb8;stop-opacity:1"/></linearGradient><linearGradient xlink:href="#a" id="b" x1="540.942" x2="540.942" y1="815.4" y2="890.464" gradientUnits="userSpaceOnUse"/></defs><rect width="3000" height="3600" ry=".405" style="opacity:1;fill:#b9ddf1;fill-opacity:1;stroke:none;stroke-width:7;stroke-linecap:round;stroke-linejoin:round;stroke-dasharray:none;stroke-opacity:1"/><path d="M1570.853 1032.2c-16.073.17-31.146 2.233-47.002 2.915-21.837.935-42.884 2.113-64.159 3.983-33.366 2.925-64.977 7.192-96.406 12.285-19.244 3.115-38.307 5.83-56.619 9.709-32.41 6.858-61.656 15.41-90.475 24.504-15.201 4.794-31.83 8.646-45.85 14.02-12.08 4.629-23.438 9.51-34.554 14.548-5.907 2.678-12.213 5.17-17.83 7.959-17.208 8.545-33.292 17.502-47.543 27.04l.025-.052c-32.526 21.76-56.893 45.997-71.025 72.227-10.443 19.382-23.838 31.35-54.742 46.093v.024c-8.446 4.029-18.197 8.265-29.553 12.916-105.274 43.119-173.18 135.112-214.78 246.793-.002 0-.004-.01-.006-.01-11.437 30.707-20.866 62.92-28.556 95.997.115.111.256.214.37.326-.957 4.12-2.289 8.034-3.192 12.181-2.993 13.737-5.018 27.843-7.438 41.81-1.969 11.367-4.426 22.558-6.035 34.026-4.299 30.64-5.129 61.343-7.086 92.11-1.313 20.644-4.352 41.425-4.736 61.797-.67 35.495 1.424 68.861 3.158 102.43.742 14.37.246 30.012 1.36 43.847 3.714 46.163 9.375 89.038 16.216 126.578h.002c7.99 43.848 17.585 80.423 27.555 106.475 162.14 423.701 1545.636 417.451 1712.685 59.086 27.996-60.06 47.12-125.637 58.883-193.8 6.845-39.664 10.401-80.303 12.559-121.142.48-9.086.987-18.023 1.254-27.133.581-19.833-.53-39.37-.914-59.218-.72-37.444-2.665-74.292-6.471-111.114-1.818-17.612-3.668-34.625-6.115-51.947-5.357-37.964-12.166-74.426-20.166-110.256-2.857-12.8-5.037-25.857-8.186-38.297-1.04-4.113-1.66-8.703-2.73-12.773-11.513-43.765-24.752-85.031-39.17-122.723-29.437-76.948-63.81-139.074-98.559-177.537-16.384-18.135-34.45-34.856-53.389-50.783-2.608-2.194-5.087-4.488-7.74-6.64-8.05-6.532-17.07-12.108-25.517-18.264-15.805-11.52-31.753-22.85-48.829-33.088-9.982-5.986-20.499-11.308-30.873-16.866-16.234-8.697-32.605-17.152-49.7-24.824-11.431-5.13-23.09-9.849-34.86-14.531-17.194-6.84-34.588-13.267-52.414-19.174-12.245-4.058-24.488-7.962-36.987-11.59-18.39-5.338-37-10.078-55.841-14.507-12.417-2.92-24.705-5.933-37.276-8.467-10.517-2.121-21.083-3.578-31.687-5.434-34.34-6.014-68.727-8.99-103.547-12.332-38.622-3.716-76.372-6.145-114.735-6.771-13.545-.225-27.337-2.55-40.775-2.407z" style="fill:#a8d5ee;fill-opacity:1;stroke-width:93.7995;stroke-linecap:round;stroke-linejoin:round" transform="translate(0 -69.425)"/><g transform="translate(-3618.749 -5927.836)scale(9.46266)"><path d="M481.602 748.18c-1.406 2.608-3.318 3.946-8.91 6.236-35.96 14.728-30.662 83.417-23.585 101.912 17.135 44.776 163.341 44.116 180.995 6.244 17.009-36.488 3.026-92.248-11.584-108.42-34.163-37.814-124.279-29.428-136.916-5.972" style="fill:url(#b);fill-opacity:1;stroke-width:9.91259;stroke-linecap:round;stroke-linejoin:round"/><path d="M541.988 1808.19c-28.379.301-54.068 8.262-60.386 19.99-1.406 2.608-3.318 3.945-8.91 6.236-30.607 12.536-31.325 64.164-26.497 90.66 5.83-3.033 5.651-17.673 8.29-21.348 2.22-3.092 6.506-1.11 7.277 6.254 1.013 9.683-4.456 21.939.629 27.024 2.654 2.654 9.71 2.024 12.154-1.572 2.85-5.825 2.162-12.972 2.242-19.315.14-9.776 8.337-17.835 15.97-7.277 10.175 14.071 20.59 11.648 28.087 6.334 3.107-2.203 6.41-5.428 9.99-7.592 5.614-3.393 9.012-3.392 14.625 0 3.58 2.164 6.883 5.389 9.99 7.592 7.497 5.314 17.911 7.738 28.086-6.334 7.634-10.558 15.831-2.499 15.97 7.277.081 6.343-.608 13.49 2.243 19.315 2.443 3.596 9.5 4.226 12.154 1.572 5.085-5.085-.384-17.341.63-27.024.77-7.363 5.057-9.346 7.277-6.254 2.938 4.093 2.38 21.785 10.523 21.899 1.02.014 2.027-.32 3.992-3.535 5.903-34.209-5.737-74.58-17.806-87.94-17.082-18.907-48.15-26.264-76.53-25.963" style="fill:#fff;fill-opacity:1;stroke:none;stroke-width:7.55906;stroke-linecap:round;stroke-linejoin:round;stroke-dasharray:none" transform="translate(0 -1080)"/><path d="M361.943 582.369c3.13-22.6 14.629-44.211 33.221-59.252 13.28-10.742 28.619-17.235 44.479-19.82-4.457-2.483-9.204-4.842-14.133-7.074a104.1 104.1 0 0 0-36.635 19.12c-21 16.988-33.85 41.475-37.046 67.026zm117.787 37.185a36 36 0 0 0 1.3-4.736l-.003.001c.433-2.139.671-4.316.702-6.497.126-8.725-3.3-17.73-11.068-23.673-4.702-3.597-10.804-5.414-16.904-4.942-22.245 2.469-18.711 30.339-5.555 31.141 4.307.263 7.084-2.175 6.226-5.468l-.03-.114.166.01c2.734.167 4.973-.428 6.275-1.5 1.012-.833 1.457-1.955 1.124-3.231-.761-2.918-5.285-5.505-10.145-5.801l-.169-.01-3.746-.23c.339-2.577 2.323-4.37 6.63-4.828 3.396-.263 7.57 1.012 10.056 2.914 5.09 3.893 7.233 9.457 7.145 15.59s-2.66 12.622-6.893 17.147c-12.92 13.808-35.604 11.29-48.37-1.945-17.344-17.98-13.676-47.565 4.4-63.944 18.857-17.089 46.81-16.903 67.26-3.636-2.48-4.096-5.57-7.523-9.256-10.061-2.723-1.876-4.212-3.699-5.644-7.322-20.19-5.297-42.46-1.447-59.077 13.61-22.013 19.948-26.464 55.92-4.88 78.295 16.437 17.04 45.636 20.252 62.869 1.833 3.398-3.632 5.967-7.959 7.587-12.602z" style="baseline-shift:baseline;display:inline;overflow:visible;opacity:1;vector-effect:none;fill:#c07d5b;fill-opacity:1;fill-rule:evenodd;stroke-linecap:round;stroke-linejoin:round;stop-color:#000;stop-opacity:1" transform="matrix(-.2963 -.62657 1.01855 -.18227 67.628 1147.702)"/><path d="M570.35 843.25c3.208-.135 6.453.563 7.49 1.803.506.606.57.982.28 1.655-.936 2.181-3.712.07-8.484.623-3.473.316-6.683 1.537-9.76 3.084-4.449 2.24-1.677-4.51 7.36-6.74.978-.241 2.043-.38 3.113-.425m-58.815 0c-3.208-.135-6.454.563-7.49 1.803-.506.606-.57.982-.281 1.655.936 2.181 3.712.07 8.484.623 3.474.316 6.684 1.537 9.761 3.084 4.448 2.24 1.676-4.51-7.36-6.74a16 16 0 0 0-3.114-.425" style="fill:#4a280e;fill-opacity:1;stroke-width:.125563"/><path d="m540.916 851.742-.536 1.094c-1.55 3.184-3.645 3.841-5.486 3.547a5.14 5.14 0 0 1-2.41-1.088c-.635-.524-1.033-1.16-1.115-1.643a4 4 0 0 0-.16-.69 1 1 0 0 0-.184-.325.7.7 0 0 0-.521-.254.84.84 0 0 0-.622.258c-.133.134-.219.29-.285.455-.133.334-.195.751-.187 1.279.018 1.293.593 2.408 1.469 3.219.874.81 2.038 1.333 3.298 1.547a7.34 7.34 0 0 0 6.79-2.47 7.34 7.34 0 0 0 6.84 2.325c1.255-.24 2.408-.787 3.265-1.615.858-.829 1.411-1.957 1.402-3.25a4 4 0 0 0-.11-.951c-.066-.27-.147-.568-.429-.797h-.002a.9.9 0 0 0-.48-.219.6.6 0 0 0-.121 0 .7.7 0 0 0-.569.342c-.187.286-.208.557-.265.943-.073.484-.455 1.127-1.079 1.664a5.15 5.15 0 0 1-2.388 1.14c-1.834.334-3.94-.278-5.557-3.429z" style="baseline-shift:baseline;display:inline;overflow:visible;vector-effect:none;fill:#4a280e;stop-color:#000"/><ellipse cx="475.34" cy="917.62" rx="8.88" ry="4.262" style="opacity:1;fill:#fbadb1;fill-opacity:1;stroke:none;stroke-width:7.34158;stroke-linecap:round;stroke-linejoin:round;stroke-dasharray:none;stroke-opacity:1" transform="rotate(-6.182)"/><ellipse cx="-600.253" cy="801.117" rx="8.88" ry="4.262" style="opacity:1;fill:#fbadb1;fill-opacity:1;stroke:none;stroke-width:7.34158;stroke-linecap:round;stroke-linejoin:round;stroke-dasharray:none;stroke-opacity:1" transform="scale(-1 1)rotate(-6.182)"/><path d="M351.829 582.369c-3.183 25.447 3.212 51.95 20.675 73.152a89.4 89.4 0 0 0 11.002 11.19c7.126.878 13.911 1.479 20.174 1.805-8.827-4.83-16.848-11.327-23.457-19.352-15.868-19.266-21.5-43.554-18.28-66.795z" style="baseline-shift:baseline;display:inline;overflow:visible;opacity:1;vector-effect:none;fill:#c07d5b;fill-opacity:1;fill-rule:evenodd;stroke-linecap:round;stroke-linejoin:round;stop-color:#000;stop-opacity:1" transform="matrix(-.2963 -.62657 1.01855 -.18227 67.628 1147.702)"/><rect width="19.613" height="6.63" x="-493.782" y="811.66" ry="3.315" style="fill:#ffa4ba;fill-opacity:1;stroke:none;stroke-width:4.31158;stroke-linecap:round;stroke-linejoin:round;stroke-dasharray:none;stroke-opacity:1" transform="scale(-1 1)rotate(1.389)"/><rect width="19.613" height="6.63" x="-64.702" y="959.609" ry="3.315" style="fill:#fbce8a;fill-opacity:1;stroke:none;stroke-width:4.31158;stroke-linecap:round;stroke-linejoin:round;stroke-dasharray:none;stroke-opacity:1" transform="scale(-1 1)rotate(30)"/><rect width="19.613" height="6.63" x="-978.778" y="88.906" ry="3.315" style="fill:#b9ddf1;fill-opacity:1;stroke:none;stroke-width:4.31158;stroke-linecap:round;stroke-linejoin:round;stroke-dasharray:none;stroke-opacity:1" transform="scale(-1 1)rotate(-49.99)"/><rect width="19.613" height="6.63" x="-254.826" y="949.952" ry="3.315" style="fill:#ffa4ba;fill-opacity:1;stroke:none;stroke-width:4.31158;stroke-linecap:round;stroke-linejoin:round;stroke-dasharray:none;stroke-opacity:1" transform="scale(-1 1)rotate(21.59)"/><rect width="19.613" height="6.63" x="-995.633" y="40.194" ry="3.315" style="fill:#b9ddf1;fill-opacity:1;stroke:none;stroke-width:4.31158;stroke-linecap:round;stroke-linejoin:round;stroke-dasharray:none;stroke-opacity:1" transform="scale(-1 1)rotate(-49.99)"/><rect width="19.613" height="6.63" x="576.191" y="785.614" ry="3.315" style="fill:#fbce8a;fill-opacity:1;stroke:none;stroke-width:4.31158;stroke-linecap:round;stroke-linejoin:round;stroke-dasharray:none;stroke-opacity:1" transform="scale(-1 1)rotate(75.241)"/><rect width="19.613" height="6.63" x="-922.391" y="286.707" ry="3.315" style="fill:#ffa4ba;fill-opacity:1;stroke:none;stroke-width:4.31158;stroke-linecap:round;stroke-linejoin:round;stroke-dasharray:none;stroke-opacity:1" transform="scale(-1 1)rotate(-33.619)"/><rect width="19.613" height="6.63" x="-922.852" y="137.178" ry="3.315" style="fill:#b9ddf1;fill-opacity:1;stroke:none;stroke-width:4.31158;stroke-linecap:round;stroke-linejoin:round;stroke-dasharray:none;stroke-opacity:1" transform="scale(-1 1)rotate(-49.99)"/><rect width="19.613" height="6.63" x="-25.038" y="899.918" ry="3.315" style="fill:#fbce8a;fill-opacity:1;stroke:none;stroke-width:4.31158;stroke-linecap:round;stroke-linejoin:round;stroke-dasharray:none;stroke-opacity:1" transform="scale(-1 1)rotate(30)"/><rect width="15.505" height="5.241" x="-772.785" y="536.13" ry="2.621" style="fill:#b9ddf1;fill-opacity:1;stroke:none;stroke-width:3.4085;stroke-linecap:round;stroke-linejoin:round;stroke-dasharray:none;stroke-opacity:1" transform="scale(-1 1)rotate(-16.67)"/><rect width="19.613" height="6.63" x="-68.773" y="896.263" ry="3.315" style="fill:#fbce8a;fill-opacity:1;stroke:none;stroke-width:4.31158;stroke-linecap:round;stroke-linejoin:round;stroke-dasharray:none;stroke-opacity:1" transform="scale(-1 1)rotate(30)"/><rect width="19.613" height="6.63" x="-928.973" y="98.737" ry="3.315" style="fill:#b9ddf1;fill-opacity:1;stroke:none;stroke-width:4.31158;stroke-linecap:round;stroke-linejoin:round;stroke-dasharray:none;stroke-opacity:1" transform="scale(-1 1)rotate(-49.99)"/><rect width="19.613" height="6.63" x="-531.459" y="786.198" ry="3.315" style="fill:#ffa4ba;fill-opacity:1;stroke:none;stroke-width:4.31158;stroke-linecap:round;stroke-linejoin:round;stroke-dasharray:none;stroke-opacity:1" transform="scale(-1 1)rotate(1.389)"/><rect width="19.613" height="6.63" x="583.712" y="741.343" ry="3.315" style="fill:#fbce8a;fill-opacity:1;stroke:none;stroke-width:4.31158;stroke-linecap:round;stroke-linejoin:round;stroke-dasharray:none;stroke-opacity:1" transform="scale(-1 1)rotate(75.241)"/><rect width="15.505" height="5.241" x="-755.551" y="552.624" ry="2.621" style="fill:#b9ddf1;fill-opacity:1;stroke:none;stroke-width:3.4085;stroke-linecap:round;stroke-linejoin:round;stroke-dasharray:none;stroke-opacity:1" transform="scale(-1 1)rotate(-16.67)"/><rect width="19.613" height="6.63" x="-355.04" y="829.867" ry="3.315" style="fill:#ffa4ba;fill-opacity:1;stroke:none;stroke-width:4.31158;stroke-linecap:round;stroke-linejoin:round;stroke-dasharray:none;stroke-opacity:1" transform="scale(-1 1)rotate(12.879)"/></g><text xml:space="preserve" x="1516.936" y="448.608" style="font-size:409.58px;line-height:1;font-family:&quot;Magic Bubble&quot;;-inkscape-font-specification:&quot;Magic Bubble&quot;;text-align:center;writing-mode:lr-tb;direction:ltr;text-anchor:middle;opacity:1;fill:#a8d5ee;fill-opacity:1;stroke:none;stroke-width:10.7515;stroke-linecap:round;stroke-linejoin:round;stroke-dasharray:none;stroke-opacity:1"><tspan x="1516.936" y="448.608" style="fill:#a8d5ee;fill-opacity:1;stroke-width:10.7515">To Bri:</tspan></text><text xml:space="preserve" x="1516.936" y="426.9" style="font-size:409.58px;line-height:1;font-family:&quot;Magic Bubble&quot;;-inkscape-font-specification:&quot;Magic Bubble&quot;;text-align:center;writing-mode:lr-tb;direction:ltr;text-anchor:middle;opacity:1;fill:#fff;fill-opacity:1;stroke:none;stroke-width:10.7515;stroke-linecap:round;stroke-linejoin:round;stroke-dasharray:none;stroke-opacity:1"><tspan x="1516.936" y="426.9" style="stroke-width:10.7515">To Bri:</tspan></text><text xml:space="preserve" x="1529.226" y="2846.435" style="font-size:266.667px;line-height:1;font-family:&quot;Magic Bubble&quot;;-inkscape-font-specification:&quot;Magic Bubble&quot;;text-align:center;writing-mode:lr-tb;direction:ltr;text-anchor:middle;opacity:1;fill:#a8d5ee;fill-opacity:1;stroke:none;stroke-width:7;stroke-linecap:round;stroke-linejoin:round;stroke-dasharray:none;stroke-opacity:1"><tspan x="1529.226" y="2846.435">A Silly Cinnamon Roll</tspan><tspan x="1529.226" y="3113.102">To Make Things More </tspan><tspan x="1529.226" y="3382.373">Manageable For You!</tspan></text><text xml:space="preserve" x="1529.226" y="2817.063" style="font-size:266.667px;line-height:1;font-family:&quot;Magic Bubble&quot;;-inkscape-font-specification:&quot;Magic Bubble&quot;;text-align:center;writing-mode:lr-tb;direction:ltr;text-anchor:middle;display:inline;opacity:1;fill:#fff;fill-opacity:1;stroke:none;stroke-width:7;stroke-linecap:round;stroke-linejoin:round;stroke-dasharray:none;stroke-opacity:1"><tspan x="1529.226" y="2817.063">A Silly Cinnamon Roll</tspan><tspan x="1529.226" y="3083.73">To Make Things More </tspan><tspan x="1529.226" y="3353.001">Manageable For You!</tspan></text></svg>