<?xml version="1.0" encoding="UTF-8" standalone="no"?>
<!-- Created with Inkscape (http://www.inkscape.org/) -->

<svg
   version="1.1"
   id="svg1"
   width="3000"
   height="3600"
   viewBox="0 0 3000 3600"
   xml:space="preserve"
   xmlns:xlink="http://www.w3.org/1999/xlink"
   xmlns="http://www.w3.org/2000/svg"
   xmlns:svg="http://www.w3.org/2000/svg"><defs
     id="defs1"><linearGradient
       id="linearGradient105"><stop
         style="stop-color:#242a32;stop-opacity:1;"
         offset="0"
         id="stop106" /><stop
         style="stop-color:#283039;stop-opacity:1;"
         offset="1"
         id="stop107" /></linearGradient><linearGradient
       id="linearGradient104"><stop
         style="stop-color:#593832;stop-opacity:1;"
         offset="0"
         id="stop104" /><stop
         style="stop-color:#593832;stop-opacity:0;"
         offset="1"
         id="stop105" /></linearGradient><linearGradient
       id="linearGradient100"><stop
         style="stop-color:#a98074;stop-opacity:1;"
         offset="0"
         id="stop100" /><stop
         style="stop-color:#886054;stop-opacity:0;"
         offset="1"
         id="stop101" /></linearGradient><linearGradient
       id="linearGradient98"><stop
         style="stop-color:#fbfffe;stop-opacity:1;"
         offset="0"
         id="stop98" /><stop
         style="stop-color:#fbfffe;stop-opacity:0;"
         offset="1"
         id="stop99" /></linearGradient><linearGradient
       id="linearGradient95"><stop
         style="stop-color:#262831;stop-opacity:1;"
         offset="0"
         id="stop95" /><stop
         style="stop-color:#262831;stop-opacity:0;"
         offset="1"
         id="stop96" /></linearGradient><linearGradient
       id="linearGradient93"><stop
         style="stop-color:#592d30;stop-opacity:1;"
         offset="0"
         id="stop93" /><stop
         style="stop-color:#954b50;stop-opacity:1;"
         offset="1"
         id="stop94" /></linearGradient><linearGradient
       id="linearGradient89"><stop
         style="stop-color:#32304a;stop-opacity:1;"
         offset="0"
         id="stop89" /><stop
         style="stop-color:#32304a;stop-opacity:0;"
         offset="1"
         id="stop90" /></linearGradient><linearGradient
       id="linearGradient86"><stop
         style="stop-color:#f5f5f5;stop-opacity:1;"
         offset="0"
         id="stop87" /><stop
         style="stop-color:#f5f5f5;stop-opacity:0;"
         offset="1"
         id="stop88" /></linearGradient><linearGradient
       id="linearGradient84"><stop
         style="stop-color:#fdfafa;stop-opacity:1;"
         offset="0"
         id="stop85" /><stop
         style="stop-color:#fdfafa;stop-opacity:0;"
         offset="1"
         id="stop86" /></linearGradient><linearGradient
       id="linearGradient82"><stop
         style="stop-color:#d8dde2;stop-opacity:1;"
         offset="0"
         id="stop83" /><stop
         style="stop-color:#d8dde2;stop-opacity:0;"
         offset="1"
         id="stop84" /></linearGradient><linearGradient
       id="linearGradient81"><stop
         style="stop-color:#fff37a;stop-opacity:1;"
         offset="0"
         id="stop81" /><stop
         style="stop-color:#fff37a;stop-opacity:0;"
         offset="1"
         id="stop82" /></linearGradient><linearGradient
       id="linearGradient79"><stop
         style="stop-color:#ffeb1f;stop-opacity:1;"
         offset="0"
         id="stop79" /><stop
         style="stop-color:#ffeb1f;stop-opacity:0;"
         offset="1"
         id="stop80" /></linearGradient><linearGradient
       id="linearGradient74"><stop
         style="stop-color:#5d3a37;stop-opacity:1;"
         offset="0"
         id="stop74" /><stop
         style="stop-color:#5d3a37;stop-opacity:0;"
         offset="1"
         id="stop75" /></linearGradient><linearGradient
       id="linearGradient72"><stop
         style="stop-color:#21202b;stop-opacity:1;"
         offset="0"
         id="stop72" /><stop
         style="stop-color:#21202b;stop-opacity:0;"
         offset="1"
         id="stop73" /></linearGradient><linearGradient
       id="linearGradient70"><stop
         style="stop-color:#4c2f2c;stop-opacity:1;"
         offset="0"
         id="stop70" /><stop
         style="stop-color:#4c2f2c;stop-opacity:0;"
         offset="1"
         id="stop71" /></linearGradient><linearGradient
       id="linearGradient67"><stop
         style="stop-color:#925b55;stop-opacity:1;"
         offset="0"
         id="stop67" /><stop
         style="stop-color:#925b55;stop-opacity:0;"
         offset="1"
         id="stop68" /></linearGradient><linearGradient
       id="linearGradient64"><stop
         style="stop-color:#4b4761;stop-opacity:1;"
         offset="0"
         id="stop64" /><stop
         style="stop-color:#4b4761;stop-opacity:0;"
         offset="1"
         id="stop65" /></linearGradient><linearGradient
       id="linearGradient62"><stop
         style="stop-color:#e0cfcb;stop-opacity:1;"
         offset="0"
         id="stop62" /><stop
         style="stop-color:#e0cfcb;stop-opacity:0;"
         offset="1"
         id="stop63" /></linearGradient><linearGradient
       id="linearGradient56"><stop
         style="stop-color:#664640;stop-opacity:1;"
         offset="0"
         id="stop56" /><stop
         style="stop-color:#664640;stop-opacity:0;"
         offset="1"
         id="stop57" /></linearGradient><linearGradient
       id="linearGradient54"><stop
         style="stop-color:#33304d;stop-opacity:1;"
         offset="0"
         id="stop54" /><stop
         style="stop-color:#33304d;stop-opacity:0;"
         offset="1"
         id="stop55" /></linearGradient><linearGradient
       id="linearGradient51"><stop
         style="stop-color:#8d5d56;stop-opacity:1;"
         offset="0"
         id="stop51" /><stop
         style="stop-color:#8d5d56;stop-opacity:0;"
         offset="1"
         id="stop52" /></linearGradient><linearGradient
       id="linearGradient49"><stop
         style="stop-color:#21202b;stop-opacity:1;"
         offset="0"
         id="stop49" /><stop
         style="stop-color:#21202b;stop-opacity:0;"
         offset="1"
         id="stop50" /></linearGradient><linearGradient
       id="linearGradient47"><stop
         style="stop-color:#534f6b;stop-opacity:1;"
         offset="0"
         id="stop47" /><stop
         style="stop-color:#534f6b;stop-opacity:0;"
         offset="1"
         id="stop48" /></linearGradient><linearGradient
       id="linearGradient45"><stop
         style="stop-color:#6c443f;stop-opacity:1;"
         offset="0"
         id="stop45" /><stop
         style="stop-color:#694741;stop-opacity:1;"
         offset="1"
         id="stop46" /></linearGradient><linearGradient
       id="linearGradient43"><stop
         style="stop-color:#33304d;stop-opacity:1;"
         offset="0"
         id="stop43" /><stop
         style="stop-color:#33304d;stop-opacity:0;"
         offset="1"
         id="stop44" /></linearGradient><linearGradient
       id="linearGradient41"><stop
         style="stop-color:#5c3f3a;stop-opacity:1;"
         offset="0"
         id="stop41" /><stop
         style="stop-color:#5c3f3a;stop-opacity:0;"
         offset="1"
         id="stop42" /></linearGradient><linearGradient
       id="linearGradient31"><stop
         style="stop-color:#6a4943;stop-opacity:1;"
         offset="0"
         id="stop31" /><stop
         style="stop-color:#6a4943;stop-opacity:0;"
         offset="1"
         id="stop32" /></linearGradient><linearGradient
       id="linearGradient29"><stop
         style="stop-color:#4c466f;stop-opacity:1;"
         offset="0"
         id="stop29" /><stop
         style="stop-color:#4c466f;stop-opacity:0;"
         offset="1"
         id="stop30" /></linearGradient><linearGradient
       id="linearGradient23"><stop
         style="stop-color:#492e29;stop-opacity:1;"
         offset="0"
         id="stop23" /><stop
         style="stop-color:#492e29;stop-opacity:0;"
         offset="1"
         id="stop24" /></linearGradient><linearGradient
       id="linearGradient13"><stop
         style="stop-color:#ebe1df;stop-opacity:1;"
         offset="0"
         id="stop13" /><stop
         style="stop-color:#ebe1df;stop-opacity:0;"
         offset="1"
         id="stop14" /></linearGradient><linearGradient
       id="linearGradient11"><stop
         style="stop-color:#6c4841;stop-opacity:1;"
         offset="0"
         id="stop11" /><stop
         style="stop-color:#6c4841;stop-opacity:0;"
         offset="1"
         id="stop12" /></linearGradient><linearGradient
       id="linearGradient9"><stop
         style="stop-color:#322f4b;stop-opacity:1;"
         offset="0"
         id="stop9" /><stop
         style="stop-color:#322f4b;stop-opacity:0;"
         offset="1"
         id="stop10" /></linearGradient><linearGradient
       id="linearGradient7"><stop
         style="stop-color:#74514a;stop-opacity:1;"
         offset="0"
         id="stop7" /><stop
         style="stop-color:#74514a;stop-opacity:0;"
         offset="1"
         id="stop8" /></linearGradient><linearGradient
       id="linearGradient3"><stop
         style="stop-color:#b1867f;stop-opacity:1;"
         offset="0"
         id="stop3" /><stop
         style="stop-color:#b1867f;stop-opacity:0;"
         offset="1"
         id="stop4" /></linearGradient><linearGradient
       xlink:href="#linearGradient3"
       id="linearGradient4"
       x1="333.39896"
       y1="30.605358"
       x2="260.0451"
       y2="181.34219"
       gradientUnits="userSpaceOnUse" /><linearGradient
       xlink:href="#linearGradient7"
       id="linearGradient8"
       x1="79.146408"
       y1="195.82292"
       x2="237.14874"
       y2="231.19135"
       gradientUnits="userSpaceOnUse" /><linearGradient
       xlink:href="#linearGradient9"
       id="linearGradient10"
       x1="77.634079"
       y1="186.16881"
       x2="220.59261"
       y2="220.10992"
       gradientUnits="userSpaceOnUse" /><linearGradient
       xlink:href="#linearGradient11"
       id="linearGradient12"
       x1="311.91345"
       y1="347.02271"
       x2="284.30664"
       y2="275.11929"
       gradientUnits="userSpaceOnUse" /><radialGradient
       xlink:href="#linearGradient13"
       id="radialGradient14"
       cx="269.65387"
       cy="101.05888"
       fx="269.65387"
       fy="101.05888"
       r="158.17938"
       gradientUnits="userSpaceOnUse"
       gradientTransform="matrix(1.0806948,0,0,1.0806948,136.79916,-8.4064414)" /><linearGradient
       xlink:href="#linearGradient23"
       id="linearGradient24"
       x1="162.21274"
       y1="290.96524"
       x2="128.3801"
       y2="305.18997"
       gradientUnits="userSpaceOnUse" /><radialGradient
       xlink:href="#linearGradient26"
       id="radialGradient27"
       cx="25.263159"
       cy="206.52632"
       fx="25.263159"
       fy="206.52632"
       r="65.894737"
       gradientUnits="userSpaceOnUse"
       gradientTransform="matrix(1.3294494,0,0,1.3294494,-75.107684,38.214879)" /><linearGradient
       id="linearGradient26"><stop
         style="stop-color:#606093;stop-opacity:1;"
         offset="0"
         id="stop26" /><stop
         style="stop-color:#606093;stop-opacity:0;"
         offset="1"
         id="stop27" /></linearGradient><radialGradient
       xlink:href="#linearGradient29"
       id="radialGradient30"
       cx="0"
       cy="148.26913"
       fx="0"
       fy="148.26913"
       r="110.75525"
       gradientUnits="userSpaceOnUse"
       gradientTransform="translate(-25.334916,55.907255)" /><linearGradient
       xlink:href="#linearGradient31"
       id="linearGradient32"
       x1="113.77344"
       y1="306.03516"
       x2="198.59399"
       y2="280.98434"
       gradientUnits="userSpaceOnUse" /><linearGradient
       xlink:href="#linearGradient41"
       id="linearGradient42"
       x1="116.19841"
       y1="225.37988"
       x2="135.51256"
       y2="237.76152"
       gradientUnits="userSpaceOnUse" /><linearGradient
       xlink:href="#linearGradient43"
       id="linearGradient44"
       x1="125.84489"
       y1="218.22507"
       x2="141.70604"
       y2="227.05348"
       gradientUnits="userSpaceOnUse" /><linearGradient
       xlink:href="#linearGradient45"
       id="linearGradient46"
       x1="116.19904"
       y1="495.61411"
       x2="170.9928"
       y2="521.85999"
       gradientUnits="userSpaceOnUse" /><linearGradient
       xlink:href="#linearGradient47"
       id="linearGradient48"
       x1="66.287437"
       y1="75.544083"
       x2="110.78906"
       y2="99.316406"
       gradientUnits="userSpaceOnUse"
       gradientTransform="translate(-4.59e-4,1.23e-4)" /><linearGradient
       xlink:href="#linearGradient49"
       id="linearGradient50"
       x1="192.44897"
       y1="178.49008"
       x2="134.78268"
       y2="147.91211"
       gradientUnits="userSpaceOnUse" /><linearGradient
       xlink:href="#linearGradient51"
       id="linearGradient52"
       x1="86.133339"
       y1="82.935829"
       x2="116.19904"
       y2="101.63187"
       gradientUnits="userSpaceOnUse" /><linearGradient
       xlink:href="#linearGradient54"
       id="linearGradient55"
       x1="133.49434"
       y1="177.99454"
       x2="165.54373"
       y2="192.48363"
       gradientUnits="userSpaceOnUse" /><linearGradient
       xlink:href="#linearGradient56"
       id="linearGradient57"
       x1="169.11247"
       y1="143.73351"
       x2="185.72266"
       y2="157.01031"
       gradientUnits="userSpaceOnUse" /><radialGradient
       xlink:href="#linearGradient62"
       id="radialGradient63"
       cx="317.95975"
       cy="40.08926"
       fx="317.95975"
       fy="40.08926"
       r="85.16555"
       gradientUnits="userSpaceOnUse"
       gradientTransform="translate(-38.65914,-23.623234)" /><linearGradient
       xlink:href="#linearGradient64"
       id="linearGradient65"
       x1="317.12231"
       y1="22.381306"
       x2="321.33398"
       y2="41.613281"
       gradientUnits="userSpaceOnUse" /><linearGradient
       xlink:href="#linearGradient67"
       id="linearGradient68"
       x1="301.65143"
       y1="67.385796"
       x2="321.5733"
       y2="101.63086"
       gradientUnits="userSpaceOnUse" /><linearGradient
       xlink:href="#linearGradient70"
       id="linearGradient71"
       x1="326.3569"
       y1="161.04108"
       x2="342.58701"
       y2="128.17307"
       gradientUnits="userSpaceOnUse" /><linearGradient
       xlink:href="#linearGradient72"
       id="linearGradient73"
       x1="319.43527"
       y1="147.91211"
       x2="328.66406"
       y2="96.300781"
       gradientUnits="userSpaceOnUse" /><linearGradient
       xlink:href="#linearGradient74"
       id="linearGradient75"
       x1="276.0611"
       y1="119.72758"
       x2="297.42636"
       y2="92.587944"
       gradientUnits="userSpaceOnUse" /><linearGradient
       xlink:href="#linearGradient79"
       id="linearGradient80"
       x1="349.93164"
       y1="230.48242"
       x2="344.38397"
       y2="215.16072"
       gradientUnits="userSpaceOnUse" /><radialGradient
       xlink:href="#linearGradient81"
       id="radialGradient82"
       cx="335.20306"
       cy="176.18311"
       fx="335.20306"
       fy="176.18311"
       r="29.101154"
       gradientUnits="userSpaceOnUse" /><radialGradient
       xlink:href="#linearGradient82"
       id="radialGradient84"
       cx="329.47369"
       cy="179.89473"
       fx="329.47369"
       fy="179.89473"
       r="19.052631"
       gradientUnits="userSpaceOnUse"
       gradientTransform="translate(3.5188999,3.617936)" /><radialGradient
       xlink:href="#linearGradient84"
       id="radialGradient86"
       cx="349.70914"
       cy="193.83781"
       fx="349.70914"
       fy="193.83781"
       r="12.713264"
       gradientUnits="userSpaceOnUse"
       gradientTransform="matrix(2.5782137,0,0,2.5782137,-538.79871,-316.97866)" /><radialGradient
       xlink:href="#linearGradient86"
       id="radialGradient88"
       cx="351.16797"
       cy="199.54883"
       fx="351.16797"
       fy="199.54883"
       r="24.135382"
       gradientUnits="userSpaceOnUse" /><linearGradient
       xlink:href="#linearGradient89"
       id="linearGradient90"
       x1="292.12598"
       y1="287.58023"
       x2="278.22852"
       y2="251.00148"
       gradientUnits="userSpaceOnUse" /><linearGradient
       xlink:href="#linearGradient93"
       id="linearGradient94"
       x1="277.23099"
       y1="670.97833"
       x2="367.36349"
       y2="695.54327"
       gradientUnits="userSpaceOnUse" /><linearGradient
       xlink:href="#linearGradient95"
       id="linearGradient96"
       x1="338.82159"
       y1="274.43945"
       x2="302.13669"
       y2="281.97098"
       gradientUnits="userSpaceOnUse" /><radialGradient
       xlink:href="#linearGradient98"
       id="radialGradient99"
       cx="430.927"
       cy="159.63286"
       fx="430.927"
       fy="159.63286"
       r="120.8421"
       gradientUnits="userSpaceOnUse"
       gradientTransform="matrix(1.7970685,0,0,1.7970685,-563.33801,-334.58594)" /><radialGradient
       xlink:href="#linearGradient100"
       id="radialGradient101"
       cx="50.018501"
       cy="0"
       fx="50.018501"
       fy="0"
       r="221.5105"
       gradientUnits="userSpaceOnUse"
       gradientTransform="translate(-98.430934,-21.816668)" /><radialGradient
       xlink:href="#linearGradient104"
       id="radialGradient105"
       cx="53.790298"
       cy="56.421043"
       fx="53.790298"
       fy="56.421043"
       r="184.42105"
       gradientUnits="userSpaceOnUse"
       gradientTransform="translate(-30.211351,43.45857)" /><linearGradient
       xlink:href="#linearGradient105"
       id="linearGradient107"
       x1="185.15187"
       y1="217.08623"
       x2="228.50378"
       y2="238.11102"
       gradientUnits="userSpaceOnUse"
       gradientTransform="matrix(0.95631366,-0.02798911,0.02798911,0.95631366,9.8698524,20.953531)" /></defs><g
     id="g1"><g
       id="g107"
       transform="matrix(7.2756068,0,0,7.2756068,94.03662,437.41771)"><path
         style="fill:#6c433f;fill-opacity:1;stroke-width:3;paint-order:markers fill stroke"
         d="m 301.79814,492.98989 c 0.79394,-16.52397 4.76367,-34.28848 8.78305,-46.89242 4.01939,-12.60395 8.08827,-20.04703 11.41294,-22.97468 3.32466,-2.92765 5.90493,-1.3398 8.38603,4.01942 2.4811,5.35922 4.86289,14.48939 7.24474,27.88738 2.38186,13.39799 4.76365,31.0629 4.96211,45.35401 0.19847,14.29111 -1.78635,25.20763 -8.28688,31.26147 -6.50053,6.05384 -17.51629,7.24473 -24.21522,0.19832 -6.69893,-7.04641 -9.08072,-22.32953 -8.28677,-38.8535 z"
         id="path60"
         transform="translate(0,-372.21054)" /><path
         style="fill:#6c433f;fill-opacity:1;stroke-width:3;paint-order:markers fill stroke"
         d="m 317.95975,407.24716 c -27.12432,8.01564 -55.22286,67.67581 -50.95051,68.10305 0,0 15.0393,34.35435 30.90899,20.22886 11.05618,-9.84101 19.62152,-43.34128 23.09724,-62.09179 3.47573,-18.75052 1.86172,-22.75044 0.31785,-24.71535 -1.54388,-1.96491 0.0449,-2.53497 -3.37357,-1.52477 z"
         id="path61"
         transform="translate(0,-367.1579)" /><path
         id="path73"
         style="opacity:1;fill:url(#linearGradient75);fill-opacity:1;stroke-width:3;paint-order:markers fill stroke"
         d="m 286.04297,68.865234 c -12.96626,18.583954 -21.53082,39.076406 -19.0332,39.326176 0,0 15.03851,34.35596 30.9082,20.23047 0.27589,-0.24558 0.55146,-0.50681 0.82422,-0.78126 a 41.116055,41.116055 0 0 0 7.35156,-23.46484 41.116055,41.116055 0 0 0 -20.05078,-35.310546 z" /><path
         id="path68"
         style="opacity:1;fill:url(#linearGradient71);fill-opacity:1;stroke-width:3;paint-order:markers fill stroke"
         d="M 328.66406,96.300781 A 71.937401,71.937401 0 0 0 304.09961,100.625 c -1.14615,6.64049 -1.98096,13.49799 -2.30078,20.1543 -0.79395,16.52397 1.58622,31.8071 8.28515,38.85351 6.69894,7.04641 17.71627,5.85462 24.2168,-0.19922 6.50053,-6.05384 8.48558,-16.96865 8.28711,-31.25976 -0.13305,-9.58085 -1.24777,-20.67895 -2.68555,-30.990236 a 71.937401,71.937401 0 0 0 -11.23828,-0.882813 z" /><path
         id="path62"
         style="opacity:1;mix-blend-mode:overlay;fill:url(#radialGradient63);stroke-width:3;paint-order:markers fill stroke"
         d="m 319.94531,39.599609 c -0.3387,0.0127 -0.91805,0.174547 -1.98633,0.490235 -21.34581,6.308004 -43.2947,44.598729 -49.5957,60.835936 3.62691,0.46962 7.28031,0.70514 10.9375,0.70508 12.09974,1.7e-4 15.56932,-5.175282 26.59463,-10.159879 2.94053,-9.962233 5.78937,-17.167976 7.20894,-24.826162 3.47573,-18.75052 9.7735,-23.066628 8.22963,-25.031538 -1.06141,-1.350875 -0.64352,-2.041614 -1.38867,-2.013672 z" /><path
         id="path65"
         style="opacity:1;fill:url(#linearGradient68);fill-opacity:1;stroke-width:3;paint-order:markers fill stroke"
         d="m 325.18555,49.462891 c -0.99314,-0.03054 -2.04856,0.442838 -3.19141,1.449218 -3.32466,2.927651 -7.39272,10.370666 -11.41211,22.97461 -4.01938,12.603944 -7.98926,30.368611 -8.7832,46.892581 -0.23166,4.82141 -0.19291,9.53631 0.14453,13.97265 a 74.526314,74.526314 0 0 0 39.25195,-27.18945 c -0.94704,-8.691108 -2.25849,-17.365143 -3.57031,-24.744141 -2.38186,-13.397989 -4.76304,-22.5275 -7.24414,-27.886718 -1.62822,-3.516988 -3.29932,-5.410457 -5.19531,-5.46875 z" /><path
         style="fill:#2f3141;fill-opacity:1;stroke-width:3;paint-order:markers fill stroke"
         d="m 327.36842,427.57895 c 2.34461,-21.10132 -13.90341,-19.06294 -13.43858,-7.2105 0.10527,2.68423 0.87718,5.10524 1.64911,7.52629 -7.83845,13.97861 -28.90743,66.76047 -18.63152,85.57899 2.91233,5.33338 8.03504,9.82452 9.64905,7.82444 3.6865,-4.5683 -6.44565,-10.95659 8.27777,-58.28082 4.03738,-12.97696 8.36229,-23.32815 9.8977,-22.42085 0.77194,0.45616 1.47368,1.71929 2.91229,6.28077 9.79229,28.42704 11.86333,57.78829 9.01752,87.40353 C 336,541.89482 336,546.10526 337.8246,548.45614 c 1.8246,2.35089 5.47365,2.8421 8.94737,2.45613 7.76057,-0.86231 11.47941,-5.17608 7.96485,-9.64912 -1.54389,-1.96493 -4.35085,-3.50876 -5.54383,-4.63157 -1.19298,-1.12282 -0.77194,-1.82456 0.0702,-3.82459 2.879,-6.83765 2.15035,-9.33793 -2.38598,-11.22804 -1.26316,-0.52632 -1.54386,-0.52632 -1.7193,-5.85976 -1.0792,-32.80998 -5.31144,-49.51578 -10.38598,-67.36837 -2.91231,-10.24566 -5.15788,-15.50871 -7.40349,-20.77187 z"
         id="path59"
         transform="translate(0,-384)" /><path
         id="path71"
         style="opacity:1;fill:url(#linearGradient73);fill-opacity:1;stroke-width:3;paint-order:markers fill stroke"
         d="m 314.875,79.017578 a 77.403519,77.403519 0 0 0 -14.03906,1.283203 c -5.78996,18.630791 -9.48104,38.932399 -3.88867,49.173829 2.91233,5.33338 8.03442,9.8243 9.64843,7.82422 3.6865,-4.5683 -6.44412,-10.95702 8.2793,-58.281252 z m 18.03906,2.13086 c 5.22086,22.665372 6.02722,45.820912 3.78711,69.132812 -0.70176,7.61402 -0.70155,11.8249 1.12305,14.17578 1.8246,2.35089 5.47354,2.84105 8.94726,2.45508 7.76057,-0.86231 11.47941,-5.1754 7.96485,-9.64844 -1.54389,-1.96493 -4.34999,-3.51 -5.54297,-4.63281 -1.19298,-1.12282 -0.77183,-1.82419 0.0703,-3.82422 2.879,-6.83765 2.14961,-9.33841 -2.38672,-11.22852 -1.26316,-0.52632 -1.54331,-0.52593 -1.71875,-5.85937 -0.70778,-21.51822 -2.77264,-36.109741 -5.54101,-48.640625 a 77.403519,77.403519 0 0 0 -6.70313,-1.929687 z" /><path
         style="fill:#633e38;fill-opacity:1;stroke-width:3;paint-order:markers fill stroke"
         d="m 120.6212,229.71888 c -8.3773,-2.55151 -13.73643,-4.63561 -17.30919,-6.02502 -3.572772,-1.38941 -5.359113,-2.0841 -7.889844,-4.46597 -4.175917,-3.66993 -8.760425,-12.13633 -15.382652,-9.62652 -1.736765,0.8932 -2.927658,2.67954 -4.118575,4.46592 -5.213858,-9.61327 -17.655519,-10.44697 -22.974772,-0.29769 -1.587891,3.37431 -1.885614,7.79054 -2.183343,12.20686 -0.744323,-0.24811 -1.488646,-0.49622 -3.150993,-1.51348 -13.985302,-8.55819 -26.229862,-4.29473 -23.867916,19.77424 0.52104,5.30956 1.860794,10.12275 3.2254,13.91883 1.364606,3.79607 2.75398,6.57482 4.143383,9.35362 -0.297729,0.0992 -0.595459,0.19849 -2.05932,0.64509 -1.46386,0.4466 -4.093748,1.24053 -5.731265,3.15099 -1.637517,1.91046 -2.282584,4.93731 1.439112,10.495 6.063765,9.05517 43.039429,49.27697 123.870465,50.01623 11.50888,0.10525 46.21872,-5.69953 46.21872,-5.69953 0,0 8.83152,-29.76455 3.74359,-45.13311 -5.08792,-15.36855 -25.94602,-29.02221 -42.07313,-37.35865 -16.12711,-8.33645 -27.52236,-11.3553 -35.89967,-13.90681 z"
         id="path19" /><path
         id="path104"
         style="opacity:1;mix-blend-mode:overlay;fill:url(#radialGradient105);stroke-width:3;paint-order:markers fill stroke"
         d="m 64.472656,206.50781 c -4.427054,-0.14142 -8.867717,2.18708 -11.527344,7.26172 -1.58789,3.37431 -1.883911,7.79071 -2.18164,12.20703 -0.744323,-0.24811 -1.489997,-0.49641 -3.152344,-1.51367 -13.985302,-8.55819 -26.229133,-4.29553 -23.867187,19.77344 0.52104,5.30956 1.860003,10.12384 3.224609,13.91992 1.364606,3.79607 2.755128,6.57472 4.144531,9.35352 -0.297729,0.0992 -0.596686,0.19793 -2.060547,0.64453 -1.46386,0.4466 -4.092951,1.24188 -5.730468,3.15234 -1.637517,1.91046 -2.282243,4.93645 1.439453,10.49414 5.343012,7.97885 34.684703,40.15505 96.882811,48.19727 a 184.42105,184.42105 0 0 0 31.80469,-87.92383 c -14.51804,-7.17273 -24.99271,-9.96901 -32.82813,-12.35547 -8.3773,-2.55151 -13.73583,-4.63598 -17.30859,-6.02539 -3.572772,-1.38941 -5.359894,-2.08297 -7.890625,-4.46484 -4.175917,-3.66993 -8.760585,-12.13677 -15.382813,-9.62696 -1.736765,0.8932 -2.92627,2.67847 -4.117187,4.46485 -2.606929,-4.80664 -7.022165,-7.41717 -11.449219,-7.5586 z" /><path
         id="path22"
         style="fill:url(#linearGradient24);fill-opacity:1;stroke-width:3;paint-order:markers fill stroke"
         d="m 93.835938,217.66016 c -6.669602,31.91253 -2.027768,64.50523 19.937502,88.375 9.91781,10.77774 21.74906,19.33443 34.71289,25.78125 0.0483,4.7e-4 0.0962,-4.5e-4 0.14453,0 11.50888,0.10525 46.21875,-5.69922 46.21875,-5.69922 0,0 8.83207,-29.76425 3.74414,-45.13281 -5.08792,-15.36856 -25.94516,-29.02294 -42.07227,-37.35938 -16.12711,-8.33645 -27.52308,-11.35474 -35.90039,-13.90625 -8.3773,-2.55151 -13.73583,-4.63598 -17.30859,-6.02539 -3.572772,-1.38941 -5.359894,-2.08297 -7.890625,-4.46484 -0.521505,-0.45832 -1.048515,-0.99116 -1.585937,-1.56836 z" /><path
         style="fill:#845850;fill-opacity:1;stroke-width:3;paint-order:markers fill stroke"
         d="m 361.86931,210.2915 c 7.48563,38.32827 -1.4179,77.01553 -24.11503,100.58563 -45.48032,47.22954 -147.63321,50.76859 -198.80684,-4.84208 -43.985062,-47.79879 -18.50286,-130.57921 28.16568,-172.82305 40.14903,-36.342451 84.66116,-38.459391 121.2245,-20.79731 36.56333,17.66208 65.17786,55.10318 73.53169,97.87681 z"
         id="path1" /><path
         id="path30"
         style="opacity:1;fill:url(#linearGradient32);fill-opacity:1;stroke-width:3;paint-order:markers fill stroke"
         d="m 137.56055,170.06641 c -25.3941,43.52175 -31.91983,99.77436 1.38672,135.96875 33.38209,36.27651 88.45774,47.38204 135.34375,37.60937 a 140.54482,140.54482 0 0 0 3.9375,-33.0332 140.54482,140.54482 0 0 0 -140.54493,-140.54492 140.54482,140.54482 0 0 0 -0.12304,0 z" /><path
         id="path6"
         style="opacity:1;fill:url(#linearGradient8);fill-opacity:1;stroke-width:3;paint-order:markers fill stroke"
         d="m 240.99219,101.64453 c -24.43693,0.39172 -49.93405,9.89374 -73.87891,31.56836 -46.66854,42.24384 -72.151076,125.02348 -28.16601,172.82227 12.96995,14.09452 29.21563,24.38969 46.98242,31.13672 a 170.10527,170.10527 0 0 0 98.37695,-154.24415 170.10527,170.10527 0 0 0 -19.32812,-78.75195 c -7.81339,-1.78018 -15.84069,-2.66182 -23.98633,-2.53125 z" /><path
         id="path2"
         style="fill:url(#linearGradient4);fill-opacity:1;stroke-width:3;paint-order:markers fill stroke"
         d="m 244.5,101.65039 c -25.49598,-0.49767 -52.29358,8.84847 -77.38672,31.5625 -5.84808,5.29362 -11.36346,11.22253 -16.45117,17.64063 a 141.47368,141.47368 0 0 0 139.02148,115.25195 141.47368,141.47368 0 0 0 74.54493,-21.23242 c 0.67666,-11.27151 -0.0863,-22.9434 -2.35938,-34.58203 -8.35383,-42.77363 -36.96792,-80.21488 -73.53125,-97.87696 -13.71125,-6.62328 -28.5403,-10.46507 -43.83789,-10.76367 z" /><path
         id="path38"
         style="display:inline;opacity:1;fill:url(#linearGradient42);fill-opacity:1;stroke-width:3.35816;paint-order:markers fill stroke"
         d="m 129.33008,186.08984 c -11.33029,25.34114 -16.20134,53.35129 -11.12891,78.58008 a 47.658203,47.658203 0 0 0 27.08985,-42.99023 47.658203,47.658203 0 0 0 -15.96094,-35.58985 z" /><path
         id="path5"
         style="fill:#3c395a;fill-opacity:1;stroke-width:3;paint-order:markers fill stroke"
         d="m 332.5293,147.91211 c -11.28204,54.44248 -162.50264,47.54422 -183.54492,5.09766 -14.7477,19.27697 -25.66956,42.66875 -30.31641,66.34375 28.4817,62.8094 209.29923,86.44654 244.1582,-3.5918 -0.28223,-1.82356 -0.60088,-3.64711 -0.95703,-5.4707 -4.51325,-23.10893 -14.94062,-44.66103 -29.33984,-62.37891 z" /><path
         id="path53"
         style="display:inline;opacity:1;fill:url(#linearGradient57);fill-opacity:1;stroke-width:4.36247;paint-order:markers fill stroke"
         d="m 193.25391,114.50195 c -8.83251,4.77583 -17.58523,10.96669 -26.14063,18.71094 -6.51436,5.89673 -12.45823,12.73112 -18.01562,20.00195 5.4107,10.66939 19.05532,19.08015 36.625,24.81446 a 77.930023,77.930023 0 0 0 11.12695,-40.13086 77.930023,77.930023 0 0 0 -3.5957,-23.39649 z m -55.14258,54.82617 c -0.85314,1.44365 -1.56614,2.94101 -2.37695,4.41211 0.8069,-1.46378 1.52814,-2.97551 2.37695,-4.41211 z m -9.96094,20.05274 c -0.7998,1.89545 -1.59656,3.75178 -2.32227,5.67187 0.7218,-1.90914 1.52722,-3.78708 2.32227,-5.67187 z" /><path
         style="fill:url(#linearGradient107);fill-opacity:1;stroke-width:0.563724"
         d="m 224.59013,229.09731 c 9.10899,7.15534 12.07031,11.56143 10.46553,13.16944 -5.34236,5.35319 -25.59842,-13.43696 -53.32474,-10.55922 -9.17825,0.95262 -14.5125,3.51184 -18.08079,0.43823 -12.16781,-10.48457 20.62623,-34.44599 60.94055,-3.04865"
         id="path90" /><path
         id="path8"
         style="opacity:1;fill:url(#linearGradient10);fill-opacity:1;stroke-width:3;paint-order:markers fill stroke"
         d="m 149.08789,153.19141 c -4.09493,5.3568 -7.95258,10.96573 -11.4043,16.875 -0.91447,1.56589 -1.68028,3.21707 -2.54492,4.81445 -2.7477,5.07709 -5.24031,10.28664 -7.44336,15.61719 -1.2267,2.9692 -2.47501,5.92902 -3.51758,8.95312 -0.42156,1.22294 -0.86565,2.43996 -1.25585,3.66992 -1.62869,5.13462 -3.0185,10.31691 -4.06836,15.52344 -0.0542,0.26868 -0.0803,0.53788 -0.13282,0.80664 16.00863,35.08171 79.54708,57.91617 138.55078,55.49219 a 170.10527,170.10527 0 0 0 27.03516,-92.01563 c -49.5879,10.80382 -120.9985,-1.62552 -135.21875,-29.73632 z" /><path
         id="path52"
         style="opacity:1;fill:url(#linearGradient55);fill-opacity:1;stroke-width:4.36247;paint-order:markers fill stroke"
         d="m 149.09766,153.21484 c -3.92264,5.13206 -7.65206,10.47113 -10.98633,16.11328 -0.84881,1.4366 -1.57005,2.94833 -2.37695,4.41211 -2.79838,5.07723 -5.33067,10.30046 -7.58399,15.64063 -0.79505,1.88479 -1.60047,3.76273 -2.32227,5.67187 -2.58121,6.82947 -4.86003,13.76044 -6.42187,20.77344 a 77.930023,77.930023 0 0 0 66.31641,-37.79687 c -17.56968,-5.73431 -31.2143,-14.14507 -36.625,-24.81446 z" /><path
         style="fill:url(#linearGradient46);fill-opacity:1;stroke-width:3;paint-order:markers fill stroke"
         d="m 142.07018,569.92982 c -0.39743,-34.02841 27.24558,-55.02126 47.85963,-65.92984 0,0 0.59651,-4.21051 -7.26328,-10.38605 -7.8598,-6.17554 -22.31565,-16.21042 -36.84211,-22.56133 -14.52647,-6.3509 -29.12267,-9.01751 -37.61392,-2.70157 -8.491251,6.31594 -10.877167,21.61388 -7.75427,38.17546 3.12289,16.56159 11.7543,34.38579 19.75437,46.35076 8.00008,11.96497 15.36835,18.07012 18.87712,20.24554 3.50877,2.17542 2.98246,-3.19297 2.98246,-3.19297 z"
         id="path33"
         transform="translate(0,-373.94785)" /><path
         id="path39"
         style="display:inline;opacity:1;fill:url(#linearGradient44);fill-opacity:1;stroke-width:3.35816;paint-order:markers fill stroke"
         d="m 129.33203,186.0918 c -0.0346,0.0774 -0.0573,0.15885 -0.0918,0.23632 -2.58789,5.81215 -4.76473,11.78145 -6.63085,17.80665 -0.61264,1.97846 -1.01808,3.98453 -1.54688,5.97656 -0.85069,3.2053 -1.54828,6.41982 -2.17188,9.64453 4.16207,8.94451 11.38381,17.09536 20.86329,24.21875 a 47.658203,47.658203 0 0 0 5.53711,-22.29492 47.658203,47.658203 0 0 0 -15.95899,-35.58789 z" /><path
         id="path10"
         style="opacity:1;fill:url(#linearGradient12);fill-opacity:1;stroke-width:3.47795;paint-order:markers fill stroke"
         d="M 265.90625,158.84961 A 147.18536,147.18536 0 0 0 121.59766,277.07227 c 3.69579,10.50254 9.38383,20.30643 17.34961,28.96289 51.17363,55.61067 153.32632,52.07133 198.80664,4.84179 22.69713,-23.5701 31.60086,-62.25766 24.11523,-100.58593 -1.36594,-6.99395 -3.27248,-13.84458 -5.66797,-20.49024 a 147.18536,147.18536 0 0 0 -90.29492,-30.95117 z" /><path
         style="fill:#fafffe;fill-opacity:1;stroke-width:3;paint-order:markers fill stroke"
         d="m 292.52633,123.29828 c 8.7892,8.40716 -2.29115,21.03132 -11.15793,14.35081 -3.71572,-2.79954 -7.76566,-10.07787 -3.43856,-15.40348 3.88145,-4.77714 11.61863,-1.79575 14.59649,1.05267 z"
         id="path12" /><path
         id="path13"
         style="opacity:1;mix-blend-mode:overlay;fill:url(#radialGradient14);stroke-width:3.24208;paint-order:markers fill stroke"
         d="m 252.22852,102.10352 a 170.94363,170.94363 0 0 0 -0.0117,2.07226 170.94363,170.94363 0 0 0 109.46484,159.50586 c 3.60082,-16.76002 3.7565,-35.11649 0.1875,-53.39062 -8.35383,-42.77363 -36.96792,-80.21488 -73.53125,-97.87696 -11.38901,-5.50151 -23.55,-9.08372 -36.10937,-10.31054 z" /><path
         style="fill:#22242d;fill-opacity:1;stroke-width:3.01598;paint-order:markers fill stroke"
         d="m 298.50015,249.26316 c 6.20299,1.35066 24.38488,13.90823 27.76185,2.98535 1.15285,-5.28098 2.24535,-11.81822 2.40261,-12.07306 0,0 19.79891,23.84656 4.11356,50.42112 -5.1776,8.772 -13.12102,16.14027 -21.41932,21.01749 -8.72608,5.12864 -22.05394,9.23381 -35.14041,8.74107 -22.93109,-0.86342 -47.27035,-18.96669 -32.2284,-49.61157 4.44975,-9.06546 10.40933,-15.62438 10.52264,-15.72601 1.3406,1.47213 2.44096,5.22316 8.35402,11.46256 3.33155,3.51543 9.77002,3.95475 13.64897,1.05326 7.74395,-5.79254 15.16841,-12.7772 21.98448,-18.27021 z"
         id="path14" /><path
         id="path94"
         style="opacity:1;fill:url(#linearGradient96);fill-opacity:1;stroke-width:3;paint-order:markers fill stroke"
         d="m 328.66406,240.17578 c -0.15726,0.25484 -1.24949,6.79129 -2.40234,12.07227 -3.37697,10.92288 -21.55873,-1.63372 -27.76172,-2.98438 -6.81607,5.49301 -14.24043,12.47699 -21.98438,18.26953 -1.61431,1.20753 -3.67118,1.83691 -5.76367,1.90625 a 46.938961,46.938961 0 0 0 45.09766,39.26367 c 6.61311,-4.70098 12.69461,-10.93557 16.92773,-18.10742 15.68535,-26.57456 -4.11328,-50.41992 -4.11328,-50.41992 z" /><path
         style="fill:url(#linearGradient94);fill-opacity:1;stroke-width:3;paint-order:markers fill stroke"
         d="m 292.99035,656.24474 c 8.00957,3.09764 13.1311,9.67867 14.03682,16.15209 1.38389,9.89108 -6.86273,15.44489 -17.12148,16.7011 -10.25874,1.25621 -22.52961,-1.78518 -29.19419,-9.08454 -5.20551,-5.70131 -4.73498,-11.82186 -1.01189,-16.6884 6.20569,-8.11161 20.45662,-12.04376 33.29074,-7.08025 z"
         id="path18"
         transform="matrix(1.0507002,0,0,1.0507002,-14.296293,-413.0004)" /><path
         id="path21"
         style="fill:#2f2f48;fill-opacity:1;stroke-width:3;paint-order:markers fill stroke"
         d="m 64.472656,206.50781 c -4.427054,-0.14142 -8.867717,2.18708 -11.527344,7.26172 -1.58789,3.37431 -1.883911,7.79071 -2.18164,12.20703 -0.744323,-0.24811 -1.489997,-0.49641 -3.152344,-1.51367 -13.985302,-8.55819 -26.229133,-4.29553 -23.867187,19.77344 0.52104,5.30956 1.860003,10.12384 3.224609,13.91992 1.364606,3.79607 2.755128,6.57472 4.144531,9.35352 -0.297729,0.0992 -0.596686,0.19793 -2.060547,0.64453 -1.46386,0.4466 -4.092951,1.24188 -5.730468,3.15234 -1.637517,1.91046 -2.282243,4.93645 1.439453,10.49414 3.489362,5.21075 17.214695,20.74154 43.642578,33.13086 -5.555588,-34.73233 2.53925,-73.65886 29.226562,-93.9082 -0.714671,-0.48415 -1.426818,-1.05877 -2.208984,-1.79492 -4.175917,-3.66993 -8.760585,-12.13677 -15.382813,-9.62696 -1.736765,0.8932 -2.92627,2.67847 -4.117187,4.46485 -2.606929,-4.80664 -7.022165,-7.41717 -11.449219,-7.5586 z" /><path
         id="path24"
         style="mix-blend-mode:overlay;fill:url(#radialGradient27);stroke-width:3.98835;paint-order:markers fill stroke"
         d="m 26.970703,258.16211 c 1.36384,3.79267 2.753986,6.57048 4.142578,9.34766 -0.297729,0.0992 -0.596686,0.19793 -2.060547,0.64453 -1.46386,0.4466 -4.092951,1.24188 -5.730468,3.15234 -1.637517,1.91046 -2.282243,4.93645 1.439453,10.49414 2.276363,3.39935 8.908194,11.19066 20.582031,19.63672 A 87.603722,87.603722 0 0 0 26.970703,258.16211 Z" /><path
         id="path27"
         style="opacity:1;fill:url(#radialGradient30);fill-opacity:1;stroke-width:3;paint-order:markers fill stroke"
         d="m 64.472656,206.50781 c -4.427054,-0.14142 -8.867716,2.18708 -11.527344,7.26172 -1.58789,3.37431 -1.883911,7.79071 -2.18164,12.20703 -0.744323,-0.24811 -1.489997,-0.49641 -3.152344,-1.51367 -13.985302,-8.55819 -26.229133,-4.29553 -23.867187,19.77344 0.52104,5.30956 1.860003,10.12384 3.224609,13.91992 1.364606,3.79607 2.755128,6.57472 4.144531,9.35352 -0.297729,0.0992 -0.596686,0.19793 -2.060547,0.64453 -1.46386,0.4466 -4.092951,1.24188 -5.730468,3.15234 -1.637517,1.91046 -2.282243,4.93645 1.439453,10.49414 1.711621,2.55601 5.885843,7.59581 12.814453,13.5293 a 110.75525,110.75525 0 0 0 36.884766,-43.11719 c 0.760247,-1.86258 1.578654,-3.69072 2.457031,-5.48047 a 110.75525,110.75525 0 0 0 8.361328,-36.95117 c -1.604151,-0.71604 -3.338623,-0.90039 -5.240235,-0.17969 -1.736765,0.8932 -2.92627,2.67847 -4.117187,4.46485 -2.606929,-4.80664 -7.022165,-7.41717 -11.449219,-7.5586 z" /><path
         id="path50"
         style="opacity:1;fill:url(#linearGradient52);fill-opacity:1;stroke-width:3;paint-order:markers fill stroke"
         d="m 119.12695,90.84375 c -4.21183,0.234409 -7.93895,1.344202 -10.91601,3.558594 -8.491254,6.315936 -10.876806,21.614206 -7.75391,38.175776 0.33962,1.8011 0.74306,3.61766 1.20508,5.43946 a 66.947365,66.947365 0 0 0 41.32812,-42.103518 c -8.47842,-3.41786 -16.84356,-5.460994 -23.86328,-5.070312 z" /><path
         style="fill:#323041;fill-opacity:1;stroke-width:3;paint-order:markers fill stroke"
         d="m 119.63164,95.86296 c 16.15394,3.414515 26.61119,7.51294 36.00675,13.5057 9.39557,5.99275 17.72945,13.87985 29.63667,24.87171 11.18022,10.32075 16.46762,0.2588 14.52161,-5.80131 -1.29902,-4.04529 -4.65819,-8.22208 -7.25594,-10.8488 C 167.1537,92.52286 137.16339,84.44904 103.82452,75.63517 99.719229,74.10882 96.280701,71.05625 93.035057,69.28432 84.893943,64.83973 75.861682,68.3637 77.964925,77.82821 c 1.809319,8.14183 6.879002,9.6744 7.263132,13.98246 C 85.473655,94.5651 84,98.60011 82.9562,107.7163 c -7.133868,62.30468 25.57569,83.63812 20.00842,85.49392 -0.44661,0.14887 -1.3894,0.0496 -2.7292,0.19849 -7.359431,0.81774 -6.636838,8.28752 -2.87801,10.44533 1.339797,0.76914 2.97727,0.918 3.82084,1.33979 0.84356,0.42179 0.89319,1.11648 0.24809,2.30741 -6.208227,11.46129 9.28404,12.84079 14.48956,12.25648 12.56203,-1.66678 27.5619,-3.38764 29.37587,-18.80658 0.52689,-8.11486 -11.68694,-18.35211 -22.23851,-34.14647 -10.55158,-15.79436 -19.4409,-37.14581 -12.26499,-67.48908 1.42246,-6.01491 2.58022,-5.2424 8.84332,-3.45263 h 2e-5 z"
         id="path32" /><path
         id="path46"
         style="opacity:1;fill:url(#linearGradient48);stroke-width:3;paint-order:markers fill stroke"
         d="m 85.507353,67.390748 c -5.172477,0.232176 -8.988948,3.930649 -7.542968,10.4375 1.809319,8.14183 6.879542,9.674362 7.263672,13.982422 0.245598,2.75443 -1.227685,6.79006 -2.271485,15.90625 -1.501563,13.11412 -1.237852,24.41343 0.0625,34.09765 a 80,80 0 0 0 26.138668,-8.91211 c -1.56228,-9.79183 -1.36853,-20.90303 1.63086,-33.585931 1.42246,-6.01491 2.5787,-5.242895 8.8418,-3.453125 8.23495,1.740651 14.99077,3.659546 20.87891,5.916016 a 80,80 0 0 0 5.875,-13.195313 c -13.44389,-5.222226 -27.66858,-9.012196 -42.56055,-12.949218 -4.105291,-1.52635 -7.543419,-4.57768 -10.789063,-6.34961 -2.544098,-1.388934 -5.176217,-2.000066 -7.527344,-1.894531 z" /><path
         id="path48"
         style="opacity:1;fill:url(#linearGradient50);stroke-width:3;paint-order:markers fill stroke"
         d="m 171.80273,103.98828 c -6.84108,-1e-4 -13.64473,0.99895 -20.19726,2.96484 0.50778,0.28462 1.01065,0.5731 1.50976,0.86719 0.85144,0.50157 1.69185,1.01842 2.52344,1.54883 9.39557,5.99275 17.7295,13.87923 29.63672,24.87109 0.92885,0.85745 1.80561,1.53495 2.65234,2.125 0.57214,0.39869 1.13786,0.77525 1.67188,1.0625 0.38489,0.20695 0.76011,0.38613 1.125,0.53907 0.10067,0.0422 0.19774,0.0731 0.29687,0.11132 0.2706,0.10437 0.53579,0.19759 0.79493,0.27344 0.12039,0.0352 0.2395,0.0664 0.35742,0.0957 0.25091,0.0624 0.49477,0.11198 0.73437,0.14843 0.0901,0.0137 0.18295,0.0328 0.27149,0.043 0.31764,0.0365 0.62699,0.0518 0.92383,0.0449 0.11032,-0.003 0.21874,-0.009 0.32617,-0.0176 0.0591,-0.005 0.11956,-0.006 0.17773,-0.0117 0.17611,-0.0189 0.34757,-0.0463 0.51563,-0.0801 0.0386,-0.008 0.0751,-0.0188 0.11328,-0.0273 0.12824,-0.0286 0.25549,-0.0588 0.3789,-0.0957 0.0602,-0.018 0.11868,-0.0406 0.17774,-0.0605 0.1022,-0.0345 0.20399,-0.0693 0.30273,-0.10937 0.0548,-0.0222 0.10839,-0.0464 0.16211,-0.0703 0.10643,-0.0474 0.21027,-0.0986 0.3125,-0.15235 0.0415,-0.0218 0.0842,-0.0417 0.125,-0.0645 0.0529,-0.0296 0.10253,-0.0644 0.1543,-0.0957 0.20894,-0.12612 0.40982,-0.26255 0.59961,-0.41406 0.0171,-0.0136 0.0358,-0.0252 0.0527,-0.0391 0.18934,-0.15472 0.36541,-0.32451 0.53516,-0.50195 0.0548,-0.0572 0.10735,-0.11646 0.16016,-0.17578 0.16722,-0.1885 0.33007,-0.38341 0.47656,-0.5918 0.001,-0.001 0.003,-0.002 0.004,-0.004 0.137,-0.19519 0.25827,-0.40323 0.37696,-0.61329 0.17776,-0.31462 0.33825,-0.64118 0.47461,-0.98242 0.10947,-0.27398 0.20853,-0.55357 0.29101,-0.83984 0.11124,-0.38605 0.18836,-0.78433 0.25,-1.1836 0.0134,-0.0867 0.0281,-0.17276 0.0391,-0.25976 0.0325,-0.25671 0.0408,-0.51381 0.0527,-0.77149 0.009,-0.1923 0.0261,-0.38469 0.0234,-0.57617 -0.004,-0.26654 -0.0343,-0.52869 -0.0606,-0.79101 -0.0171,-0.17115 -0.0202,-0.34542 -0.0469,-0.51368 -0.004,-0.0237 -0.01,-0.0466 -0.0137,-0.0703 -0.0648,-0.38709 -0.1508,-0.76722 -0.26757,-1.13086 -1.29903,-4.04529 -4.65811,-8.22289 -7.25586,-10.84961 -5.21819,-5.15249 -10.63031,-9.58646 -16.22657,-13.45703 -1.50147,-0.0965 -3.00713,-0.14467 -4.51172,-0.14453 z m -61.22461,35.76563 c -3.58696,6.36276 -14.279795,15.14162 -22.191401,23.75976 1.177963,3.22429 2.410234,6.25853 3.685547,8.89258 0.302245,0.62388 0.603495,1.2165 0.90625,1.80859 0.946292,1.84913 1.858624,3.41177 2.771484,4.96094 1.201401,2.03315 2.401185,4.05702 3.425781,5.60156 1.721359,2.58899 3.242209,4.80549 3.931639,6.13672 0.10776,0.20835 0.20406,0.40986 0.27735,0.58985 0.0279,0.0687 0.0535,0.13657 0.0762,0.20117 0.0142,0.0404 0.0289,0.0823 0.041,0.12109 0.0281,0.0902 0.05,0.17407 0.0664,0.25586 0.005,0.0235 0.0138,0.0495 0.0176,0.0723 9e-5,5.8e-4 -1e-4,0.001 0,0.002 0.002,0.0149 0.004,0.0284 0.006,0.043 0.004,0.0293 0.007,0.0598 0.01,0.0879 0.003,0.0329 0.004,0.0644 0.004,0.0957 7e-5,0.008 1e-4,0.0172 0,0.0254 -2e-5,0.002 3e-5,0.004 0,0.006 -5e-4,0.029 -0.003,0.0564 -0.006,0.084 -0.001,0.0138 -0.004,0.0275 -0.006,0.041 -0.003,0.0227 -0.007,0.0447 -0.0117,0.0664 -0.005,0.0214 -0.009,0.0421 -0.0156,0.0625 -0.006,0.0197 -0.0121,0.0398 -0.0195,0.0586 -0.0119,0.03 -0.0253,0.0601 -0.041,0.0879 -7.2e-4,0.001 -10e-4,0.003 -0.002,0.004 -0.002,0.003 -0.004,0.005 -0.006,0.008 -0.0156,0.0262 -0.0317,0.052 -0.0508,0.0762 -0.0161,0.0205 -0.0341,0.0396 -0.0527,0.0586 -0.006,0.006 -0.0115,0.0118 -0.0176,0.0176 -0.002,0.002 -0.004,0.004 -0.006,0.006 -0.0155,0.0145 -0.0337,0.0274 -0.0508,0.041 -0.0179,0.0142 -0.037,0.0278 -0.0566,0.041 -0.0148,0.01 -0.0292,0.0199 -0.0449,0.0293 -0.0252,0.015 -0.0523,0.0294 -0.0801,0.043 -0.009,0.004 -0.0162,0.009 -0.0254,0.0137 -0.003,0.001 -0.006,0.002 -0.01,0.004 -0.0437,0.0197 -0.089,0.0381 -0.13868,0.0547 -0.12818,0.0427 -0.2964,0.0647 -0.5039,0.0781 -0.51568,0.0338 -1.2692,0.013 -2.22461,0.11914 -1.027835,0.11421 -1.894804,0.36201 -2.621096,0.70313 -0.08558,0.0402 -0.174252,0.0782 -0.255859,0.12109 -7.49e-4,4e-4 -0.0012,0.002 -0.002,0.002 -0.154033,0.081 -0.301317,0.16596 -0.441406,0.25585 -0.423395,0.27143 -0.782297,0.58061 -1.083985,0.91993 -0.100399,0.11291 -0.193709,0.22869 -0.28125,0.34765 -0.02956,0.0401 -0.05392,0.0823 -0.08203,0.12305 -0.05525,0.0802 -0.112363,0.15974 -0.162109,0.24219 -0.150326,0.249 -0.275169,0.50744 -0.376953,0.77343 -0.05081,0.13275 -0.09558,0.26646 -0.134766,0.40235 -1.71e-4,5.9e-4 1.7e-4,10e-4 0,0.002 -0.0076,0.0264 -0.01236,0.0536 -0.01953,0.0801 -0.06648,0.24571 -0.118083,0.49596 -0.148438,0.74805 -0.06736,0.55984 -0.04768,1.13008 0.04883,1.6875 0.04823,0.27871 0.115669,0.55292 0.201172,0.82226 1.91e-4,6e-4 -1.91e-4,0.001 0,0.002 0.170977,0.53805 0.413756,1.05194 0.71875,1.51758 0.152678,0.23308 0.321348,0.45398 0.503906,0.66016 0.273819,0.30927 0.57993,0.58603 0.914063,0.81836 0.111379,0.0774 0.226287,0.14936 0.34375,0.2168 1.339797,0.76914 2.976741,0.91805 3.820311,1.33984 0.11326,0.0566 0.212,0.1185 0.29688,0.18555 0.27391,0.21604 0.40139,0.48821 0.39062,0.83593 -0.005,0.15501 -0.0425,0.3273 -0.10156,0.51368 -0.007,0.0227 -0.01,0.0432 -0.0176,0.0664 -2.1e-4,6.3e-4 2.2e-4,0.001 0,0.002 -0.0367,0.1063 -0.0816,0.217 -0.13476,0.33398 -2.7e-4,5.9e-4 2.7e-4,10e-4 0,0.002 -0.0533,0.11713 -0.11601,0.24077 -0.18555,0.36914 -0.38801,0.71633 -0.68973,1.3917 -0.91601,2.03125 -0.20414,0.57694 -0.33922,1.1192 -0.42383,1.63672 -0.009,0.0562 -0.0254,0.11639 -0.0332,0.17188 -8e-5,6e-4 9e-5,0.001 0,0.002 -0.003,0.0215 -0.003,0.0411 -0.006,0.0625 -0.07186,0.5419 -0.0835,1.05285 -0.0352,1.53125 6e-5,6.3e-4 -6e-5,0.001 0,0.002 0.0252,0.24824 0.0664,0.48885 0.12109,0.72071 0.21939,0.92987 0.66877,1.72985 1.28516,2.41601 0.1541,0.17154 0.31816,0.33659 0.49219,0.49414 0.34805,0.3151 0.73432,0.60314 1.15039,0.86524 3.74464,2.35887 9.92736,2.65094 12.85547,2.32226 12.56203,-1.66678 27.56103,-3.3877 29.375,-18.80664 0.0656,-1.01065 -0.0654,-2.05358 -0.36719,-3.13672 -0.001,-0.004 -0.003,-0.008 -0.004,-0.0117 -0.12432,-0.44452 -0.2814,-0.89715 -0.46094,-1.35546 -0.057,-0.1455 -0.12909,-0.29446 -0.1914,-0.44141 -0.12205,-0.28784 -0.25086,-0.57752 -0.39258,-0.87109 -0.16889,-0.34989 -0.39639,-0.71975 -0.5918,-1.07813 -0.32383,-0.59397 -0.66569,-1.19582 -1.05664,-1.81445 -0.52689,-0.83406 -1.24714,-1.76204 -1.88086,-2.64453 -4.42378,-6.16407 -11.05265,-13.45202 -17.29297,-22.79297 -0.14487,-0.21686 -0.28938,-0.43534 -0.43359,-0.6543 -2.27741,-3.4664 -4.44471,-7.22607 -6.40234,-11.25195 -0.0945,-0.19428 -0.19614,-0.37604 -0.29492,-0.5625 -2.11388,-4.43003 -3.95139,-9.20003 -5.29493,-14.39453 -0.0165,-0.0624 -0.0328,-0.12474 -0.0488,-0.1875 z" /><path
         id="path63"
         style="opacity:1;fill:url(#linearGradient65);fill-opacity:1;stroke-width:3;paint-order:markers fill stroke"
         d="m 320.65625,27.542969 c -3.49027,-0.129487 -6.94445,3.27034 -6.72656,8.826172 0.10527,2.68423 0.87651,5.10434 1.64843,7.52539 -1.24595,2.221968 -2.82503,5.423879 -4.56054,9.314453 a 29.624052,29.624052 0 0 0 13.32617,3.384766 c 0.15969,-0.07003 0.30314,-0.07167 0.42773,0.002 a 29.624052,29.624052 0 0 0 7.31836,-0.917969 c -1.70813,-5.036543 -3.21395,-8.56815 -4.7207,-12.099609 1.24557,-11.210076 -2.75725,-15.888405 -6.71289,-16.035156 z" /><path
         style="fill:#ffef4f;fill-opacity:1;stroke-width:3;paint-order:markers fill stroke"
         d="m 342.03333,178.63406 c 7.73408,1.92996 11.73131,32.5176 9.63633,36.44829 -0.0474,0.0889 -7.09832,13.30328 -15.7207,20.67769 -2.66673,2.28075 -3.62362,1.79732 -4.76876,-0.19883 -7.8125,-13.61828 1.25363,-59.3226 10.85313,-56.92715 z"
         id="path75" /><path
         id="path78"
         style="opacity:1;fill:url(#linearGradient80);fill-opacity:1;stroke-width:3;paint-order:markers fill stroke"
         d="m 339.01758,196.41211 a 25.094797,25.094797 0 0 0 -8.24414,1.39258 c -3.0997,13.48254 -3.83893,30.35591 0.40625,37.75586 1.14514,1.99615 2.1028,2.47997 4.76953,0.19922 8.62238,-7.37441 15.6733,-20.58884 15.7207,-20.67774 0.90394,-1.69601 0.67333,-8.35495 -0.50195,-15.5332 a 25.094797,25.094797 0 0 0 -12.15039,-3.13672 z" /><path
         id="path80"
         style="opacity:1;fill:url(#radialGradient82);fill-opacity:1;stroke-width:3;paint-order:markers fill stroke"
         d="m 341.29688,178.54297 c -4.97955,0.008 -9.70117,12.50647 -11.85547,26.16601 a 29.101154,29.101154 0 0 0 5.76171,0.57618 29.101154,29.101154 0 0 0 16.10352,-4.86328 c -1.4915,-9.68277 -4.74069,-20.65601 -9.27344,-21.78711 -0.24587,-0.0614 -0.49143,-0.0922 -0.73632,-0.0918 z" /><path
         id="path76"
         style="fill:#232930;fill-opacity:1;stroke-width:3;paint-order:markers fill stroke"
         d="m 339.03711,179.38477 c -5.20579,3.83035 -9.70564,20.0699 -10.63867,34.68164 1.00697,5.9611 4.07695,9.89871 6.98178,9.94634 8.2651,0.13544 6.76775,-27.1383 3.65689,-44.62798 z" /><path
         id="path84"
         style="opacity:1;mix-blend-mode:overlay;fill:url(#radialGradient86);fill-opacity:1;stroke-width:7.73465;paint-order:markers fill stroke"
         d="m 339.03711,179.38477 c -5.20579,3.83035 -9.70564,20.0699 -10.63867,34.68164 0.0728,0.43102 0.15646,0.8506 0.25,1.25976 a 32.777512,32.777512 0 0 0 10.88672,5.1211 c 3.36523,-7.94265 1.92123,-27.46099 -0.49805,-41.0625 z" /><circle
         style="fill:#fdfafa;fill-opacity:1;stroke-width:3.12801;paint-order:markers fill stroke"
         id="path77"
         cx="340.59766"
         cy="196.31775"
         r="4.5012832" /><path
         id="path82"
         style="opacity:1;mix-blend-mode:overlay;fill:url(#radialGradient84);stroke-width:3;paint-order:markers fill stroke"
         d="m 339.03711,179.38477 c -3.81859,2.80966 -7.25773,12.29659 -9.1875,22.91992 a 19.052631,19.052631 0 0 0 3.14258,0.25976 19.052631,19.052631 0 0 0 8.4082,-1.95507 c -0.31048,-7.17396 -1.22931,-14.84929 -2.36328,-21.22461 z" /><path
         id="path86"
         style="opacity:1;mix-blend-mode:overlay;fill:url(#radialGradient88);stroke-width:3;paint-order:markers fill stroke"
         d="m 341.22656,178.54492 c -5.44857,0.13618 -10.5748,15.17577 -12.34961,30.25977 a 24.135382,24.135382 0 0 0 17.76367,14.45117 c 3.06979,-4.50294 5.00455,-8.12741 5.0293,-8.17383 2.09498,-3.93069 -1.90264,-34.5173 -9.63672,-36.44726 -0.26916,-0.0672 -0.53867,-0.0966 -0.80664,-0.0899 z" /><path
         id="path88"
         style="opacity:1;fill:url(#linearGradient90);fill-opacity:1;stroke-width:3.73124;paint-order:markers fill stroke"
         d="m 292.12695,214.29883 c -25.24384,-5.6e-4 -45.70847,20.46319 -45.70898,45.70703 2.4e-4,1.88957 0.11765,3.7773 0.35156,5.65234 3.81172,-6.33556 7.65144,-10.55923 7.74219,-10.64062 1.3406,1.47213 2.44241,5.22349 8.35547,11.46289 3.33155,3.51543 9.76949,3.95422 13.64843,1.05273 7.74395,-5.79254 15.16831,-12.77652 21.98438,-18.26953 6.20299,1.35066 24.38475,13.90726 27.76172,2.98438 1.15285,-5.28098 2.24508,-11.81743 2.40234,-12.07227 0,0 3.522,4.24077 6.41797,11.13867 0.55891,-0.4081 -0.54798,0.41945 0,0 -10.94134,-19.81083 -21.54649,-37.01432 -42.95508,-37.01562 z" /><path
         id="path96"
         style="opacity:1;mix-blend-mode:overlay;fill:url(#radialGradient99);stroke-width:5.39121;paint-order:markers fill stroke"
         d="m 320.65625,27.542969 c -0.21815,-0.0081 -0.43537,-0.0016 -0.65234,0.01758 -0.10542,0.0093 -0.20963,0.03126 -0.31446,0.04687 -0.12674,0.01889 -0.25335,0.03451 -0.3789,0.0625 -0.094,0.02094 -0.18614,0.05214 -0.2793,0.07813 -0.12135,0.03384 -0.24365,0.06515 -0.36328,0.107422 -0.10551,0.03728 -0.20856,0.08319 -0.3125,0.126953 -0.11093,0.04671 -0.22122,0.0925 -0.33008,0.146484 -0.0941,0.04663 -0.18502,0.100364 -0.27734,0.152344 -0.11577,0.06517 -0.23103,0.131598 -0.34375,0.205078 -0.0867,0.05654 -0.17113,0.118298 -0.25586,0.179688 -0.10898,0.07894 -0.2169,0.159253 -0.32227,0.246093 -0.0846,0.06969 -0.166,0.14404 -0.24805,0.21875 -0.10219,0.09304 -0.2028,0.188363 -0.30078,0.289063 -0.0779,0.08007 -0.15544,0.161254 -0.23046,0.246094 -0.0923,0.1043 -0.17994,0.212828 -0.26758,0.324218 -0.0766,0.09733 -0.15179,0.196168 -0.22461,0.298828 -0.0784,0.11049 -0.15282,0.225227 -0.22657,0.341797 -0.0693,0.10955 -0.1381,0.219155 -0.20312,0.333985 -0.0722,0.1275 -0.13846,0.260631 -0.20508,0.394531 -0.0564,0.11344 -0.11379,0.22579 -0.16601,0.34375 -0.0658,0.14867 -0.1248,0.303264 -0.1836,0.458984 -0.0435,0.11528 -0.0894,0.228577 -0.1289,0.347657 -0.0527,0.15886 -0.0974,0.324724 -0.14258,0.490234 -0.0365,0.13344 -0.0741,0.264654 -0.10547,0.402344 -0.0402,0.17617 -0.07,0.359989 -0.10156,0.542968 -0.0214,0.12408 -0.0473,0.243944 -0.0645,0.371094 -0.0337,0.2481 -0.055,0.506075 -0.0723,0.765625 -0.005,0.07639 -0.0159,0.149203 -0.0195,0.226563 -0.0161,0.34458 -0.02,0.697137 -0.006,1.060547 0.0673,1.71526 0.40814,3.321905 0.8457,4.890625 -1.27247,0.55708 -2.54492,1.221119 -3.8125,1.974609 -0.55147,0.32784 -1.09883,0.735736 -1.64844,1.097656 -0.71119,0.46829 -1.42387,0.902088 -2.13086,1.423828 -0.96379,0.71123 -1.8924,1.66713 -2.8457,2.46875 -1.53743,1.29274 -3.08828,2.501381 -4.58789,3.994141 -0.95168,0.94739 -1.84518,2.062482 -2.77734,3.076172 -1.44407,1.57027 -2.90982,3.079821 -4.29688,4.77539 -0.96115,1.174931 -1.83687,2.441777 -2.76562,3.660157 -1.26939,1.66516 -2.56977,3.291722 -3.76954,5.007812 -0.0304,0.04348 -0.0653,0.08345 -0.0957,0.126953 a 41.116055,41.116055 0 0 0 -0.002,0 c -3.10806,4.45466 -5.64574,8.894792 -8.15625,13.263672 -0.80799,1.40597 -1.88754,2.904416 -2.6211,4.259766 -2.4687,4.56118 -4.14444,8.350457 -5.61914,11.835937 -0.041,0.09679 -0.11615,0.232475 -0.15625,0.328125 -0.28946,0.6906 -0.88333,1.745254 -1.12695,2.373044 h 0.002 c -0.55651,1.43418 -0.99182,2.6972 -1.29296,3.75 -0.69589,-0.17367 -1.39435,-0.34065 -2.09375,-0.5 -1.0901,-0.24837 -2.21629,-0.32599 -3.31446,-0.53906 -2.56468,-0.49761 -5.13233,-0.95828 -7.73633,-1.25781 h -0.002 c -8.4e-4,10e-6 -0.005,-5e-5 -0.006,0 h -0.002 c -1.87364,-0.21542 -3.75935,-0.32813 -5.65039,-0.4375 -1.25976,-0.0729 -2.50103,-0.2663 -3.76758,-0.29102 -0.52932,-0.0103 -1.06921,0.0741 -1.59961,0.0723 -0.63941,-0.002 -1.26727,-0.0884 -1.9082,-0.0781 -0.61677,0.01 -1.24324,0.12103 -1.86133,0.14258 -1.31935,0.046 -2.64209,0.18344 -3.9668,0.2832 -1.53394,0.11546 -3.05966,0.1821 -4.59961,0.3711 -1.70168,0.20883 -3.40783,0.54907 -5.11523,0.84961 -1.41897,0.24971 -2.83208,0.49428 -4.25391,0.80859 -1.01549,0.22446 -2.02646,0.39441 -3.04297,0.65234 -2.32502,0.5899 -4.64922,1.41309 -6.97656,2.18164 -1.32447,0.43732 -2.64462,0.77503 -3.96875,1.27149 -0.51124,0.19167 -1.02209,0.34433 -1.5332,0.54492 -4.14855,1.62813 -8.2937,3.52075 -12.41992,5.75195 -0.82638,0.44684 -1.65362,0.90719 -2.47852,1.37891 -4.67067,-4.43226 -9.49322,-8.3122 -14.46094,-11.74805 -9.46381,-6.545496 -19.54079,-11.304486 -30.00195,-15.369136 a 80,80 0 0 0 0.0723,-0.179688 c -0.56517,-0.21954 -1.22114,-0.330331 -1.78907,-0.544922 -12.93265,-4.884379 -26.51438,-8.635626 -40.76953,-12.404296 h -0.002 c -0.51259,-0.19058 -1.01509,-0.405992 -1.50781,-0.638672 h -0.002 c -0.49324,-0.23297 -0.976,-0.483847 -1.45117,-0.748047 -2.85094,-1.58548 -5.39404,-3.634021 -7.828124,-4.962891 -0.58901,-0.32156 -1.181605,-0.591168 -1.77539,-0.830078 -0.162554,-0.06542 -0.323848,-0.116481 -0.486328,-0.175781 -0.432109,-0.15769 -0.861867,-0.2973 -1.291016,-0.412109 -0.192445,-0.05151 -0.382879,-0.09765 -0.574219,-0.140626 -0.415264,-0.09326 -0.824737,-0.163356 -1.232422,-0.216796 -0.170354,-0.02236 -0.341138,-0.05093 -0.509765,-0.06641 -0.562981,-0.05162 -1.118198,-0.07688 -1.65625,-0.05273 h -0.002 c -0.418435,0.01878 -0.824036,0.06901 -1.222656,0.132813 -0.103947,0.01666 -0.20617,0.03501 -0.308594,0.05469 -0.351504,0.06748 -0.693755,0.151046 -1.02539,0.253906 -0.04369,0.01355 -0.0895,0.02294 -0.132813,0.03711 -0.362583,0.11852 -0.708812,0.262998 -1.042968,0.423828 -0.178894,0.08613 -0.355519,0.173374 -0.525391,0.271484 -0.03102,0.01791 -0.06304,0.03444 -0.09375,0.05273 -0.223046,0.13303 -0.43685,0.27778 -0.642578,0.43164 -0.05022,0.03753 -0.09735,0.07842 -0.146484,0.117188 -0.150357,0.11869 -0.29574,0.242886 -0.435547,0.373046 -0.05637,0.05246 -0.113379,0.103894 -0.167969,0.158204 -0.160668,0.15992 -0.314425,0.326083 -0.458984,0.501953 -0.03417,0.04155 -0.06638,0.08451 -0.09961,0.126953 -0.135704,0.17333 -0.263237,0.354969 -0.382812,0.542969 -0.04621,0.07266 -0.0891,0.147826 -0.132813,0.222656 -0.08831,0.1512 -0.170265,0.306777 -0.248047,0.466797 -0.04136,0.08505 -0.08476,0.168329 -0.123047,0.255859 -0.09936,0.22722 -0.18965,0.461288 -0.267578,0.705078 -0.02195,0.06863 -0.0384,0.140998 -0.05859,0.210938 -0.05892,0.20407 -0.110742,0.413806 -0.154297,0.628906 -0.01736,0.08576 -0.03398,0.172266 -0.04883,0.259766 -0.039,0.22983 -0.06865,0.465271 -0.08984,0.707031 -0.0055,0.06237 -0.01332,0.122387 -0.01758,0.185547 -0.0037,0.05565 -0.0011,0.115605 -0.0039,0.171875 -0.02005,0.40298 -0.01103,0.823762 0.01953,1.257812 0.0081,0.11514 0.01553,0.230357 0.02734,0.347656 0.04993,0.49619 0.12147,1.004623 0.240235,1.539063 1.80932,8.14183 6.879542,9.674362 7.263672,13.982422 0.03069,0.34431 0.03445,0.707869 0.01563,1.099609 v 0.002 c -0.01883,0.39176 -0.05919,0.809612 -0.119141,1.263672 -0.119934,0.90806 -0.314734,1.954892 -0.548828,3.201172 v 0.002 c -0.468093,2.49272 -1.09725,5.779869 -1.619141,10.337889 -0.738194,6.44713 -1.030455,12.42794 -1.001953,18.02148 0.002,0.40561 0.01292,0.79782 0.03125,1.18164 a 217.16154,217.16154 0 0 0 129.080608,42.5272 217.16154,217.16154 0 0 0 133.71289,-46.04883 c -0.63157,-10.82984 -1.71715,-19.48258 -2.98242,-27.419924 -0.39486,-2.4731 -0.80606,-5.119707 -1.25196,-7.404297 -0.33735,-1.72504 -0.56667,-3.850941 -0.92969,-5.494141 a 77.403519,77.403519 0 0 0 -0.41211,-0.132812 c -1.41178,-6.28689 -2.75119,-12.68181 -4.43164,-18.59375 -0.98145,-3.45282 -1.86321,-6.154246 -2.71875,-8.666016 a 29.624052,29.624052 0 0 0 0.0352,-0.0078 c -1.70813,-5.036541 -3.21395,-8.56815 -4.7207,-12.09961 0.15114,-1.3603 0.22049,-2.615559 0.22656,-3.787109 0.002,-0.4327 -0.0448,-0.797458 -0.0605,-1.205078 -0.027,-0.6989 -0.0449,-1.408547 -0.12109,-2.035157 -0.10159,-0.83522 -0.24481,-1.603933 -0.42383,-2.314453 -0.0321,-0.1276 -0.0613,-0.259152 -0.0957,-0.382812 -0.0563,-0.20238 -0.11748,-0.395971 -0.17969,-0.587891 -0.0643,-0.19855 -0.12892,-0.394561 -0.19922,-0.582031 -0.0647,-0.1725 -0.13168,-0.338743 -0.20117,-0.501953 -0.0786,-0.18458 -0.15978,-0.36427 -0.24414,-0.53711 -0.0741,-0.15177 -0.15019,-0.298586 -0.22852,-0.441406 -0.0922,-0.16818 -0.18751,-0.328465 -0.28515,-0.484375 -0.0788,-0.12572 -0.15815,-0.249367 -0.24024,-0.367187 -0.0993,-0.14257 -0.20085,-0.277064 -0.30468,-0.408204 -0.0906,-0.114439 -0.1816,-0.228144 -0.27539,-0.333984 -0.1115,-0.12582 -0.22618,-0.241659 -0.3418,-0.355469 -0.0889,-0.08753 -0.17645,-0.177302 -0.26758,-0.257812 -0.11955,-0.10561 -0.24223,-0.199309 -0.36523,-0.292969 -0.0996,-0.0758 -0.19727,-0.154586 -0.29883,-0.222656 -0.12872,-0.0863 -0.26105,-0.158392 -0.39258,-0.232422 -0.0913,-0.05136 -0.18101,-0.108777 -0.27344,-0.154297 -0.15513,-0.07642 -0.31286,-0.137076 -0.4707,-0.197265 -0.0766,-0.02921 -0.15138,-0.06636 -0.22852,-0.0918 -0.23157,-0.07639 -0.4645,-0.136758 -0.69922,-0.179688 h -0.002 -0.002 -0.002 c -0.2443,-0.04442 -0.48915,-0.07294 -0.73437,-0.08203 z" /><path
         id="path100"
         style="opacity:1;mix-blend-mode:overlay;fill:url(#radialGradient101);stroke-width:3;paint-order:markers fill stroke"
         d="m 85.507812,67.390625 c -0.418435,0.01878 -0.824036,0.06901 -1.222656,0.132813 -0.103947,0.01666 -0.20617,0.03501 -0.308594,0.05469 -0.351504,0.06748 -0.693755,0.151046 -1.02539,0.253906 -0.04369,0.01355 -0.0895,0.02294 -0.132813,0.03711 -0.362583,0.11852 -0.708812,0.262998 -1.042968,0.423828 -0.178894,0.08613 -0.355519,0.173374 -0.525391,0.271484 -0.03102,0.01791 -0.06304,0.03444 -0.09375,0.05273 -0.223046,0.13303 -0.43685,0.27778 -0.642578,0.43164 -0.05022,0.03753 -0.09735,0.07842 -0.146484,0.117188 -0.150357,0.11869 -0.29574,0.242886 -0.435547,0.373046 -0.05637,0.05246 -0.113379,0.103894 -0.167969,0.158204 -0.160668,0.15992 -0.314425,0.326083 -0.458984,0.501953 -0.03417,0.04155 -0.06638,0.08451 -0.09961,0.126953 -0.135704,0.17333 -0.263237,0.354969 -0.382812,0.542969 -0.04621,0.07266 -0.0891,0.147826 -0.132813,0.222656 -0.08831,0.1512 -0.170265,0.306777 -0.248047,0.466797 -0.04136,0.08505 -0.08476,0.168329 -0.123047,0.255859 -0.09936,0.22722 -0.18965,0.461288 -0.267578,0.705078 -0.02195,0.06863 -0.0384,0.140998 -0.05859,0.210938 -0.05892,0.20407 -0.110742,0.413806 -0.154297,0.628906 -0.01736,0.08576 -0.03398,0.172266 -0.04883,0.259766 -0.039,0.22983 -0.06865,0.465271 -0.08984,0.707031 -0.0055,0.06237 -0.01332,0.122387 -0.01758,0.185547 -0.0037,0.05565 -0.0011,0.115605 -0.0039,0.171875 -0.02005,0.40298 -0.01103,0.823762 0.01953,1.257812 0.0081,0.11514 0.01553,0.230357 0.02734,0.347656 0.04993,0.49619 0.12147,1.004623 0.240235,1.539063 1.80932,8.14183 6.879542,9.674362 7.263672,13.982422 0.03069,0.34431 0.03445,0.707869 0.01563,1.099609 v 0.002 c -0.01883,0.39176 -0.05919,0.809612 -0.119141,1.263672 -0.119934,0.90806 -0.314734,1.954892 -0.548828,3.201172 v 0.002 c -0.468093,2.49272 -1.09725,5.779872 -1.619141,10.337892 -0.738194,6.44713 -1.030455,12.42794 -1.001953,18.02148 0.0098,1.94397 0.245654,3.58493 0.333984,5.42969 0.165819,3.46292 0.287702,6.97811 0.69336,10.10156 0.02186,0.16836 0.01463,0.37752 0.03711,0.54492 a 80,80 0 0 0 0.06055,-0.0137 c 0.6243,4.62652 1.48018,8.87678 2.492188,12.77734 A 221.5105,221.5105 0 0 0 144.05469,87.835938 C 131.28454,83.05062 117.88252,79.350877 103.82617,75.634766 h -0.002 c -0.51259,-0.19058 -1.01509,-0.405992 -1.50781,-0.638672 h -0.002 c -0.49324,-0.23297 -0.976,-0.483847 -1.45117,-0.748047 -2.85094,-1.58548 -5.39404,-3.634021 -7.828124,-4.962891 -0.58901,-0.32156 -1.181605,-0.591168 -1.77539,-0.830078 -0.162554,-0.06542 -0.323848,-0.116481 -0.486328,-0.175781 -0.432109,-0.15769 -0.861867,-0.2973 -1.291016,-0.412109 -0.192445,-0.05151 -0.382879,-0.09765 -0.574219,-0.140626 -0.415264,-0.09326 -0.824737,-0.163356 -1.232422,-0.216796 -0.170354,-0.02236 -0.341138,-0.05093 -0.509765,-0.06641 -0.562981,-0.05162 -1.118198,-0.07688 -1.65625,-0.05273 z" /></g></g></svg>
