<?xml version="1.0" encoding="UTF-8" standalone="no"?>
<!-- Created with Inkscape (http://www.inkscape.org/) -->

<svg
   version="1.1"
   id="svg1"
   width="3000"
   height="3600"
   viewBox="0 0 3000.0001 3600.0001"
   xml:space="preserve"
   xmlns:xlink="http://www.w3.org/1999/xlink"
   xmlns="http://www.w3.org/2000/svg"
   xmlns:svg="http://www.w3.org/2000/svg"><defs
     id="defs1"><linearGradient
       id="linearGradient67"><stop
         style="stop-color:#11100f;stop-opacity:1;"
         offset="0"
         id="stop67" /><stop
         style="stop-color:#211f1e;stop-opacity:1;"
         offset="1"
         id="stop68" /></linearGradient><linearGradient
       id="linearGradient50"><stop
         style="stop-color:#ff8db2;stop-opacity:0.76862697;"
         offset="0"
         id="stop50" /><stop
         style="stop-color:#ff8db2;stop-opacity:0;"
         offset="1"
         id="stop51" /></linearGradient><linearGradient
       id="linearGradient48"><stop
         style="stop-color:#d93532;stop-opacity:1;"
         offset="0"
         id="stop48" /><stop
         style="stop-color:#b92522;stop-opacity:1;"
         offset="1"
         id="stop49" /></linearGradient><linearGradient
       id="linearGradient45"><stop
         style="stop-color:#ff5c60;stop-opacity:1;"
         offset="0"
         id="stop46" /><stop
         style="stop-color:#ff4448;stop-opacity:1;"
         offset="1"
         id="stop47" /></linearGradient><linearGradient
       id="linearGradient44"><stop
         style="stop-color:#ff7880;stop-opacity:0.69649297;"
         offset="0"
         id="stop44" /><stop
         style="stop-color:#ff7880;stop-opacity:0;"
         offset="1"
         id="stop45" /></linearGradient><linearGradient
       id="linearGradient41"><stop
         style="stop-color:#ff4a48;stop-opacity:1;"
         offset="0"
         id="stop41" /><stop
         style="stop-color:#ff4a48;stop-opacity:0;"
         offset="1"
         id="stop42" /></linearGradient><linearGradient
       id="linearGradient38"><stop
         style="stop-color:#9b271f;stop-opacity:0.52330399;"
         offset="0"
         id="stop38" /><stop
         style="stop-color:#ad2c23;stop-opacity:0;"
         offset="1"
         id="stop39" /></linearGradient><linearGradient
       id="linearGradient36"><stop
         style="stop-color:#ff4e4d;stop-opacity:0.61702651;"
         offset="0"
         id="stop36" /><stop
         style="stop-color:#ff4e4d;stop-opacity:0;"
         offset="1"
         id="stop37" /></linearGradient><linearGradient
       id="linearGradient31"><stop
         style="stop-color:#841d17;stop-opacity:0.54104781;"
         offset="0"
         id="stop31" /><stop
         style="stop-color:#841d17;stop-opacity:0;"
         offset="1"
         id="stop32" /></linearGradient><linearGradient
       id="linearGradient29"><stop
         style="stop-color:#ff9898;stop-opacity:0.64370495;"
         offset="0"
         id="stop29" /><stop
         style="stop-color:#ff9898;stop-opacity:0;"
         offset="1"
         id="stop30" /></linearGradient><linearGradient
       id="linearGradient25"><stop
         style="stop-color:#d93228;stop-opacity:0.40907237;"
         offset="0"
         id="stop25" /><stop
         style="stop-color:#d93228;stop-opacity:0;"
         offset="1"
         id="stop26" /></linearGradient><linearGradient
       id="linearGradient23"><stop
         style="stop-color:#ffafd9;stop-opacity:0.5011161;"
         offset="0"
         id="stop23" /><stop
         style="stop-color:#ffafd9;stop-opacity:0;"
         offset="1"
         id="stop24" /></linearGradient><linearGradient
       id="linearGradient21"><stop
         style="stop-color:#ff6ba4;stop-opacity:0.37767214;"
         offset="0"
         id="stop21" /><stop
         style="stop-color:#ff6ba4;stop-opacity:0;"
         offset="1"
         id="stop22" /></linearGradient><linearGradient
       id="linearGradient17"><stop
         style="stop-color:#ff72a3;stop-opacity:1;"
         offset="0"
         id="stop18" /><stop
         style="stop-color:#ff72a3;stop-opacity:0;"
         offset="1"
         id="stop19" /></linearGradient><linearGradient
       id="linearGradient16"><stop
         style="stop-color:#ffafd9;stop-opacity:1;"
         offset="0"
         id="stop16" /><stop
         style="stop-color:#ffafd9;stop-opacity:0;"
         offset="1"
         id="stop17" /></linearGradient><linearGradient
       id="linearGradient14"><stop
         style="stop-color:#ff85b6;stop-opacity:0.47066021;"
         offset="0"
         id="stop14" /><stop
         style="stop-color:#ff85b6;stop-opacity:0;"
         offset="1"
         id="stop15" /></linearGradient><linearGradient
       id="linearGradient10"><stop
         style="stop-color:#ff8db5;stop-opacity:1;"
         offset="0"
         id="stop10" /><stop
         style="stop-color:#ff8db5;stop-opacity:0;"
         offset="1"
         id="stop11" /></linearGradient><linearGradient
       id="linearGradient8"><stop
         style="stop-color:#ffbae1;stop-opacity:1;"
         offset="0"
         id="stop8" /><stop
         style="stop-color:#ffbae1;stop-opacity:0;"
         offset="1"
         id="stop9" /></linearGradient><linearGradient
       id="linearGradient4"><stop
         style="stop-color:#ffafd8;stop-opacity:0.29425654;"
         offset="0"
         id="stop4" /><stop
         style="stop-color:#ffafd8;stop-opacity:0;"
         offset="1"
         id="stop5" /></linearGradient><radialGradient
       xlink:href="#linearGradient4"
       id="radialGradient5"
       cx="70.086433"
       cy="89.778244"
       fx="70.086433"
       fy="89.778244"
       r="58.317204"
       gradientTransform="matrix(1.201814,0,0,1.2177908,-14.144426,-37.508119)"
       gradientUnits="userSpaceOnUse" /><linearGradient
       xlink:href="#linearGradient8"
       id="linearGradient9"
       x1="87.730499"
       y1="0"
       x2="78.11319"
       y2="43.730904"
       gradientUnits="userSpaceOnUse" /><linearGradient
       xlink:href="#linearGradient10"
       id="linearGradient11"
       x1="140.17287"
       y1="160.7964"
       x2="103.49124"
       y2="104.94079"
       gradientUnits="userSpaceOnUse" /><linearGradient
       xlink:href="#linearGradient10"
       id="linearGradient12"
       gradientUnits="userSpaceOnUse"
       x1="140.17287"
       y1="160.7964"
       x2="103.49124"
       y2="104.94079"
       gradientTransform="matrix(-1,0,0,1,140.17287,0)" /><linearGradient
       xlink:href="#linearGradient14"
       id="linearGradient15"
       x1="31.9282"
       y1="44.151497"
       x2="22.692472"
       y2="32.965534"
       gradientUnits="userSpaceOnUse" /><radialGradient
       xlink:href="#linearGradient16"
       id="radialGradient17"
       cx="51.716846"
       cy="7.4485054"
       fx="51.716846"
       fy="7.4485054"
       r="65.907692"
       gradientUnits="userSpaceOnUse"
       gradientTransform="matrix(0.43393237,0,0,0.43393237,-2.0731249,14.760743)" /><linearGradient
       xlink:href="#linearGradient17"
       id="linearGradient19"
       x1="163.2"
       y1="153.96542"
       x2="109.66068"
       y2="103.3377"
       gradientUnits="userSpaceOnUse" /><linearGradient
       xlink:href="#linearGradient21"
       id="linearGradient22"
       x1="129.79607"
       y1="94.380676"
       x2="149.96675"
       y2="96.685974"
       gradientUnits="userSpaceOnUse" /><radialGradient
       xlink:href="#linearGradient23"
       id="radialGradient24"
       cx="180.58963"
       cy="61.306156"
       fx="180.58963"
       fy="61.306156"
       r="17.389633"
       gradientUnits="userSpaceOnUse"
       gradientTransform="matrix(1.4541449,0,0,1.4541449,-109.54492,16.12098)" /><linearGradient
       xlink:href="#linearGradient25"
       id="linearGradient26"
       x1="41.478531"
       y1="141.27727"
       x2="28.491209"
       y2="160.79688"
       gradientUnits="userSpaceOnUse" /><radialGradient
       xlink:href="#linearGradient29"
       id="radialGradient30"
       cx="32.695835"
       cy="149.56229"
       fx="32.695835"
       fy="149.56229"
       r="41.120556"
       gradientUnits="userSpaceOnUse"
       gradientTransform="translate(0,-9.6115383)" /><linearGradient
       xlink:href="#linearGradient31"
       id="linearGradient32"
       x1="32.6875"
       y1="195.62201"
       x2="32.6875"
       y2="171.70935"
       gradientUnits="userSpaceOnUse" /><radialGradient
       xlink:href="#linearGradient36"
       id="radialGradient37"
       cx="115.60678"
       cy="121.95652"
       fx="115.60678"
       fy="121.95652"
       r="27.710142"
       gradientUnits="userSpaceOnUse"
       gradientTransform="translate(-3.2075431,11.130218)" /><linearGradient
       xlink:href="#linearGradient38"
       id="linearGradient39"
       x1="120.16462"
       y1="160.7964"
       x2="114.64867"
       y2="140.21059"
       gradientUnits="userSpaceOnUse"
       gradientTransform="translate(4.1e-4,-4.3e-4)" /><linearGradient
       xlink:href="#linearGradient41"
       id="linearGradient42"
       x1="136.92395"
       y1="111.15019"
       x2="123.66877"
       y2="135.55672"
       gradientUnits="userSpaceOnUse" /><radialGradient
       xlink:href="#linearGradient44"
       id="radialGradient45"
       cx="69.015038"
       cy="95.086441"
       fx="69.015038"
       fy="95.086441"
       r="8.2874994"
       gradientUnits="userSpaceOnUse"
       gradientTransform="matrix(0.95833226,0,0,0.95833226,1.9708742,7.9138883)" /><linearGradient
       xlink:href="#linearGradient45"
       id="linearGradient47"
       x1="68.220703"
       y1="109.85045"
       x2="68.220703"
       y2="90.600449"
       gradientUnits="userSpaceOnUse" /><linearGradient
       xlink:href="#linearGradient48"
       id="linearGradient49"
       x1="68.564644"
       y1="90.518318"
       x2="68.564644"
       y2="108.26461"
       gradientUnits="userSpaceOnUse" /><radialGradient
       xlink:href="#linearGradient50"
       id="radialGradient51"
       cx="111.14173"
       cy="88.491425"
       fx="111.14173"
       fy="88.491425"
       r="25.028454"
       gradientUnits="userSpaceOnUse" /><radialGradient
       xlink:href="#linearGradient50"
       id="radialGradient52"
       gradientUnits="userSpaceOnUse"
       cx="111.14173"
       cy="88.491425"
       fx="111.14173"
       fy="88.491425"
       r="25.028454"
       gradientTransform="translate(-80.398433,-11.928347)" /><linearGradient
       xlink:href="#k"
       id="ap"
       x1="474.49701"
       x2="474.61099"
       y1="275.064"
       y2="407.47101"
       gradientTransform="matrix(2.0723116,-0.02821331,0.03257086,2.3923801,-804.59332,-635.78058)"
       gradientUnits="userSpaceOnUse" /><linearGradient
       id="k"><stop
         offset="0.63599998"
         stop-color="#262e56"
         id="stop44-9"
         style="stop-color:#2e3676;stop-opacity:1;" /><stop
         offset="0.88099998"
         stop-color="#235793"
         id="stop45-7"
         style="stop-color:#304cbf;stop-opacity:1;" /><stop
         offset="1"
         stop-color="#205a98"
         id="stop46-7"
         style="stop-color:#324ebd;stop-opacity:1;" /></linearGradient><linearGradient
       xlink:href="#linearGradient67"
       id="linearGradient68"
       x1="187.5365"
       y1="-7.0331001"
       x2="187.5365"
       y2="173.61595"
       gradientUnits="userSpaceOnUse" /><linearGradient
       xlink:href="#k"
       id="linearGradient72"
       gradientUnits="userSpaceOnUse"
       gradientTransform="matrix(2.0723116,-0.02821331,0.03257086,2.3923801,-804.59332,-635.78058)"
       x1="474.49701"
       y1="275.064"
       x2="474.61099"
       y2="407.47101" /><linearGradient
       xlink:href="#linearGradient67"
       id="linearGradient73"
       gradientUnits="userSpaceOnUse"
       x1="187.5365"
       y1="-7.0331001"
       x2="187.5365"
       y2="173.61595" /><radialGradient
       xlink:href="#linearGradient4"
       id="radialGradient76"
       gradientUnits="userSpaceOnUse"
       gradientTransform="matrix(1.201814,0,0,1.2177908,-13.619036,-31.287416)"
       cx="70.086433"
       cy="89.778244"
       fx="70.086433"
       fy="89.778244"
       r="58.317204" /><linearGradient
       xlink:href="#linearGradient38"
       id="linearGradient76"
       gradientUnits="userSpaceOnUse"
       gradientTransform="translate(4.1e-4,-4.3e-4)"
       x1="120.16462"
       y1="160.7964"
       x2="114.64867"
       y2="140.21059" /><filter
       style="color-interpolation-filters:sRGB"
       id="filter78"
       x="-0.051890419"
       y="-0.051890419"
       width="1.1037808"
       height="1.1037808"><feGaussianBlur
         stdDeviation="42.31373"
         id="feGaussianBlur78" /></filter><filter
       style="color-interpolation-filters:sRGB"
       id="filter79"
       x="-0.10795234"
       y="-0.10795234"
       width="1.2159047"
       height="1.2159047"><feGaussianBlur
         stdDeviation="88.029084"
         id="feGaussianBlur79" /></filter></defs><g
     id="g1"><g
       id="g127"
       transform="matrix(1.0569335,0,0,1.0569335,44.309916,23.380813)"><path
         style="opacity:1;fill:#edff7c;fill-opacity:1;stroke:none;stroke-width:3.77953;stroke-linecap:round;stroke-linejoin:round;stroke-opacity:1;filter:url(#filter79)"
         id="path79"
         d="M 1659.3118,1157.1579 1004.1878,934.99894 449.77879,1348.7291 458.62007,657.01829 -106.18251,257.59364 554.40567,52.2518 759.7475,-608.33637 1159.1722,-43.533799 1850.883,-52.37509 1437.1528,502.03394 Z"
         transform="matrix(1.2197614,0.35663247,-0.35663247,1.2197614,445.24177,918.25891)" /><path
         style="opacity:1;fill:#edff7c;fill-opacity:1;stroke:none;stroke-width:3.77953;stroke-linecap:round;stroke-linejoin:round;stroke-opacity:1;filter:url(#filter78)"
         id="path78"
         d="M 1659.3118,1157.1579 1004.1878,934.99894 449.77879,1348.7291 458.62007,657.01829 -106.18251,257.59364 554.40567,52.2518 759.7475,-608.33637 1159.1722,-43.533799 1850.883,-52.37509 1437.1528,502.03394 Z"
         transform="matrix(1.2197614,0.35663247,-0.35663247,1.2197614,445.24177,918.25891)" /><path
         style="opacity:1;fill:#edff7c;fill-opacity:1;stroke:none;stroke-width:3.77953;stroke-linecap:round;stroke-linejoin:round;stroke-opacity:1"
         id="path77"
         d="M 1659.3118,1157.1579 1004.1878,934.99894 449.77879,1348.7291 458.62007,657.01829 -106.18251,257.59364 554.40567,52.2518 759.7475,-608.33637 1159.1722,-43.533799 1850.883,-52.37509 1437.1528,502.03394 Z"
         transform="matrix(1.2197614,0.35663247,-0.35663247,1.2197614,445.24177,918.25891)" /><g
         id="g76"
         transform="matrix(10.24946,0,0,10.24946,665.33415,827.37375)"><path
           style="fill:#e13b2e;fill-opacity:1;stroke:none;stroke-width:3.77953;stroke-linecap:round;stroke-linejoin:round;stroke-opacity:1"
           d="m 6.510135,119.22396 c -0.8216735,2.60464 -1.9005197,6.00464 -2.5660676,11.20295 -0.665548,5.1983 -0.9177882,12.19464 -0.049862,19.36855 2.0295834,16.77567 9.8670846,31.57158 19.9290246,37.26739 10.06194,5.69582 22.348319,2.29155 33.275659,-17.33311 2.265475,-4.06862 3.929862,-7.99842 5.039483,-17.86952 1.10962,-9.8711 1.664416,-25.68278 -0.994093,-34.46724 -2.658509,-8.78446 -8.530096,-10.54131 -17.846356,-10.10206 -9.31626,0.43925 -22.076562,3.07453 -28.739095,5.29685 -6.6625341,2.22232 -7.2270197,4.03155 -8.048693,6.63619 z"
           id="path24" /><path
           id="ellipse24"
           style="opacity:1;mix-blend-mode:multiply;fill:url(#linearGradient26);stroke-width:3.84492;stroke-linecap:round;stroke-linejoin:round"
           d="m 46.630859,107.23828 c -1.057338,-0.0232 -2.167498,-0.002 -3.332031,0.0527 -9.31626,0.43925 -22.077701,3.07455 -28.740234,5.29687 -6.6625343,2.22232 -7.2271551,4.03208 -8.0488284,6.63672 -0.8216735,2.60464 -1.9008583,6.00481 -2.5664062,11.20312 -0.5732406,4.47733 -0.8392922,10.28683 -0.3476563,16.39649 A 70.086433,71.018158 0 0 0 52.166016,177.4043 c 1.666244,-2.21794 3.315322,-4.76754 4.933593,-7.67383 2.265475,-4.06862 3.929442,-8 5.039063,-17.87109 1.10962,-9.87111 1.664368,-25.68234 -0.994141,-34.4668 -2.326195,-7.6864 -7.1123,-9.99219 -14.513672,-10.1543 z" /><path
           style="fill:#ff94c6;fill-opacity:1;stroke:none;stroke-width:3.77953;stroke-linecap:round;stroke-linejoin:round;stroke-opacity:1"
           d="m 139.12211,74.64542 c 17.58014,6.98285 24.4296,18.98487 23.6951,27.93978 -0.83194,10.14304 -10.56775,18.1425 -22.53456,19.97897 -3.30195,0.50673 -6.86535,0.6375 -10.42881,0.76827 -2.87692,-8.075 -5.75384,-16.15 -5.70477,-24.76451 0.0491,-8.61452 3.024,-17.76818 5.57403,-22.01 2.55002,-4.24182 4.67497,-3.57164 5.94998,-3.16299 1.275,0.40866 1.69999,0.55577 3.44903,1.25048 z"
           id="path19" /><path
           id="path23"
           style="opacity:1;mix-blend-mode:overlay;fill:url(#radialGradient24);stroke:none;stroke-width:5.49598;stroke-linecap:round;stroke-linejoin:round;stroke-opacity:1"
           d="m 149.6582,80.210938 a 25.287046,25.287046 0 0 0 -21.88672,25.058592 25.287046,25.287046 0 0 0 7.34961,17.82227 c 1.76481,-0.11254 3.49678,-0.27178 5.16211,-0.52735 11.96681,-1.83647 21.70127,-9.83547 22.53321,-19.97851 0.56419,-6.878625 -3.34655,-15.556452 -13.15821,-22.375002 z" /><path
           id="path20"
           style="opacity:1;mix-blend-mode:multiply;fill:url(#linearGradient22);fill-opacity:1;stroke:none;stroke-width:3.77953;stroke-linecap:round;stroke-linejoin:round;stroke-opacity:1"
           d="m 134.24219,73.09375 c -1.21326,-0.04598 -2.76639,0.548592 -4.51953,3.464844 -2.55003,4.24182 -5.52512,13.395245 -5.57422,22.009765 -0.0491,8.614511 2.82816,16.688671 5.70508,24.763671 3.56346,-0.13077 7.12773,-0.26085 10.42968,-0.76758 3.74407,-0.57458 7.27012,-1.75211 10.37305,-3.41015 a 30.181328,30.181328 0 0 0 8.60352,-21.103519 30.181328,30.181328 0 0 0 -2.07618,-11 c -3.84725,-4.688245 -9.75611,-9.107719 -18.06054,-12.40625 -1.74904,-0.69471 -2.17422,-0.84134 -3.44922,-1.25 -0.39844,-0.127703 -0.88016,-0.279881 -1.43164,-0.300781 z" /><path
           style="fill:#ff9ccc;fill-opacity:1;stroke:none;stroke-width:3.77953;stroke-linecap:round;stroke-linejoin:round;stroke-opacity:1"
           d="M 8.7844417,66.4439 C 2.3095579,55.65243 -0.47485989,29.34638 3.7449709,16.62105 7.3259639,5.8222 16.099268,-0.38448 25.043381,0.28974 33.987494,0.96395 43.102417,8.51907 47.366648,25.24381 49.146666,32.22522 50.441189,41.56428 45.586519,50.97297 40.73185,60.38167 29.7284,69.85943 18.724731,79.33738 15.072253,73.41944 11.419774,70.83612 8.7844417,66.4439 Z"
           id="path12" /><path
           id="path13"
           style="opacity:1;mix-blend-mode:multiply;fill:url(#linearGradient15);fill-opacity:1;stroke:none;stroke-width:3.77953;stroke-linecap:round;stroke-linejoin:round;stroke-opacity:1"
           d="M 24.542969,9.3222656 A 29.273296,29.273296 0 0 0 3.1738281,18.587891 C 0.25554842,30.116962 1.9857786,49.903933 6.5078125,61.654297 a 29.273296,29.273296 0 0 0 18.0351565,6.214844 29.273296,29.273296 0 0 0 8.376953,-1.22461 c 5.410645,-5.237387 9.979449,-10.465115 12.666016,-15.671875 4.85467,-9.40869 3.561268,-18.747105 1.78125,-25.728515 -0.731621,-2.869487 -1.605821,-5.469349 -2.597657,-7.810547 A 29.273296,29.273296 0 0 0 24.542969,9.3222656 Z" /><ellipse
           style="opacity:1;fill:#ff9ccc;fill-opacity:1;stroke-width:3.84492;stroke-linecap:round;stroke-linejoin:round"
           id="path1"
           cx="70.086433"
           cy="89.778244"
           rx="70.086433"
           ry="71.018158" /><path
           id="path8"
           style="opacity:1;fill:url(#linearGradient9);fill-opacity:1;stroke-width:3.77953;stroke-linecap:round;stroke-linejoin:round"
           d="M 70.085938,18.759766 A 70.086433,71.018158 0 0 0 7.0957031,58.642578 86.633415,86.633415 0 0 0 84.804688,106.98047 86.633415,86.633415 0 0 0 140.11914,87.021484 70.086433,71.018158 0 0 0 70.085938,18.759766 Z" /><path
           id="path9"
           style="opacity:1;fill:url(#linearGradient11);fill-opacity:1;stroke-width:3.77953;stroke-linecap:round;stroke-linejoin:round"
           d="M 81.207031,67.869141 A 81.99231,81.99231 0 0 0 5.7148438,117.86719 70.086433,71.018158 0 0 0 70.085938,160.79688 70.086433,71.018158 0 0 0 140.10938,92.822266 81.99231,81.99231 0 0 0 81.207031,67.869141 Z" /><path
           id="path11"
           style="fill:url(#linearGradient12);fill-opacity:1;stroke-width:3.77953;stroke-linecap:round;stroke-linejoin:round"
           d="M 58.965839,67.869141 A 81.99231,81.99231 0 0 1 134.45803,117.86719 70.086433,71.018158 0 0 1 70.086932,160.79688 70.086433,71.018158 0 0 1 0.06349,92.822266 81.99231,81.99231 0 0 1 58.965839,67.869141 Z" /><path
           id="path15"
           style="opacity:1;mix-blend-mode:overlay;fill:url(#radialGradient17);stroke:none;stroke-width:1.64006;stroke-linecap:round;stroke-linejoin:round;stroke-opacity:1"
           d="M 23.369141,0.24414062 C 15.022441,0.41003326 7.1013216,6.4971719 3.7441406,16.621094 1.8045395,22.470159 1.3448082,31.189118 2.0429688,39.951172 A 28.599482,28.599482 0 0 0 20.369141,46.591797 28.599482,28.599482 0 0 0 47.673828,26.498047 C 47.573783,26.072221 47.47173,25.654165 47.367188,25.244141 43.102957,8.5194006 33.987082,0.9632725 25.042969,0.2890625 24.483962,0.24692375 23.925587,0.23308112 23.369141,0.24414062 Z" /><path
           id="path17"
           style="opacity:1;fill:url(#linearGradient19);fill-opacity:1;stroke:none;stroke-width:3.77953;stroke-linecap:round;stroke-linejoin:round;stroke-opacity:1"
           d="M 131.37695,55.333984 A 97.83744,97.83744 0 0 1 36.621094,128.81055 97.83744,97.83744 0 0 1 9.1582031,124.87695 70.086433,71.018158 0 0 0 70.085938,160.79688 70.086433,71.018158 0 0 0 140.17383,89.777344 70.086433,71.018158 0 0 0 131.37695,55.333984 Z" /><path
           id="path26"
           style="opacity:1;mix-blend-mode:overlay;fill:url(#radialGradient30);fill-opacity:1;stroke:none;stroke-width:3.77953;stroke-linecap:round;stroke-linejoin:round;stroke-opacity:1"
           d="m 6.4277344,119.48633 c -0.8102042,2.57029 -1.8409332,5.91576 -2.484375,10.9414 -0.665548,5.1983 -0.9167543,12.19328 -0.048828,19.36719 1.1963887,9.88884 4.4114962,19.09002 8.9101566,26.14453 a 41.120556,41.120556 0 0 0 19.890624,5.13282 41.120556,41.120556 0 0 0 20.957032,-5.74219 c 1.160965,-1.69712 2.311634,-3.56011 3.447265,-5.59961 1.487901,-2.67216 2.716878,-5.2852 3.699219,-9.56055 A 70.086433,71.018158 0 0 1 6.4277344,119.48633 Z" /><path
           id="path30"
           style="opacity:1;fill:url(#linearGradient32);fill-opacity:1;stroke:none;stroke-width:3.77953;stroke-linecap:round;stroke-linejoin:round;stroke-opacity:1"
           d="M 31.337891,148.95508 A 31.273678,31.273678 0 0 0 6.3183594,161.46289 c 3.5062507,11.70176 9.8634526,21.27454 17.5039066,25.59961 10.06194,5.69582 22.350003,2.29263 33.277343,-17.33203 0.711493,-1.27779 1.362678,-2.54173 1.957032,-3.98047 a 31.273678,31.273678 0 0 0 -27.71875,-16.79492 z" /><path
           style="fill:#d93228;fill-opacity:1;stroke:none;stroke-width:3.77953;stroke-linecap:round;stroke-linejoin:round;stroke-opacity:1"
           d="m 97.715503,117.04588 c 12.178907,-5.25864 25.621487,-4.55488 34.374787,1.57246 1.8052,1.26365 16.00848,14.12512 9.15426,27.43982 -4.67722,9.08576 -25.50192,26.23585 -44.407679,26.23771 -2.362248,2.3e-4 -19.652172,0.22505 -25.509518,-13.26914 -2.944231,-6.78294 3.718117,-32.1923 26.38815,-41.98085 z"
           id="path32" /><circle
           style="opacity:1;mix-blend-mode:overlay;fill:url(#radialGradient37);stroke:none;stroke-width:3.77953;stroke-linecap:round;stroke-linejoin:round;stroke-opacity:1"
           id="path36"
           cx="112.39924"
           cy="133.08673"
           r="27.710142" /><path
           id="path37"
           style="opacity:1;fill:url(#linearGradient76);fill-opacity:0.523304;stroke:none;stroke-width:4.17358;stroke-linecap:round;stroke-linejoin:round;stroke-opacity:1"
           d="m 113.69768,130.87262 a 43.610413,35.764259 0 0 0 -42.513676,27.78906 c 0.04484,0.12721 0.094,0.24882 0.144531,0.36523 5.857346,13.49419 23.145565,13.26781 25.507813,13.26758 18.905762,-0.002 39.730982,-17.15057 44.408202,-26.23633 0.80622,-1.56612 1.32162,-3.12665 1.59961,-4.66211 -0.0936,-0.54605 -0.21125,-1.08592 -0.34961,-1.61718 a 43.610413,35.764259 0 0 0 -28.79687,-8.90625 z" /><path
           id="path39"
           style="opacity:1;fill:url(#linearGradient39);fill-opacity:0.523304;stroke:none;stroke-width:4.17358;stroke-linecap:round;stroke-linejoin:round;stroke-opacity:1"
           d="m 113.69768,130.87262 a 43.610413,35.764259 0 0 0 -42.513676,27.78906 c 0.04484,0.12721 0.094,0.24882 0.144531,0.36523 5.857346,13.49419 23.145565,13.26781 25.507813,13.26758 18.905762,-0.002 39.730982,-17.15057 44.408202,-26.23633 0.80622,-1.56612 1.32162,-3.12665 1.59961,-4.66211 -0.0936,-0.54605 -0.21125,-1.08592 -0.34961,-1.61718 a 43.610413,35.764259 0 0 0 -28.79687,-8.90625 z" /><path
           id="path40"
           style="opacity:1;fill:url(#linearGradient42);fill-opacity:1;stroke:none;stroke-width:3.77953;stroke-linecap:round;stroke-linejoin:round;stroke-opacity:1"
           d="m 116.1875,113.5625 c -5.97717,-0.28453 -12.3832,0.8531 -18.472656,3.48242 -4.474827,1.93216 -8.324909,4.47335 -11.601563,7.35938 a 36.011906,36.011906 0 0 0 34.490239,25.65429 36.011906,36.011906 0 0 0 21.98242,-7.48828 c 3.11524,-11.99496 -8.84936,-22.79845 -10.4961,-23.95117 -4.37665,-3.06367 -9.92517,-4.77211 -15.90234,-5.05664 z" /><path
           style="fill:url(#linearGradient49);fill-opacity:1;stroke:none;stroke-width:3.77953;stroke-linecap:round;stroke-linejoin:round;stroke-opacity:1"
           d="m 78.597824,93.53051 c 0.556574,1.44468 0.34355,3.04317 -0.456601,4.84353 -1.815679,4.08531 -5.813616,7.78803 -8.889663,8.77653 -3.046267,0.97893 -6.130903,-2.28075 -8.624004,-6.22139 -5.123858,-8.09886 -1.279119,-11.630075 4.170498,-12.2958 5.449617,-0.665726 12.504112,1.534037 13.79977,4.89713 z"
           id="path42" /><path
           id="path43"
           style="fill:url(#linearGradient47);fill-opacity:1;stroke:none;stroke-width:3.77953;stroke-linecap:round;stroke-linejoin:round;stroke-opacity:1"
           d="m 67.378906,93.125 a 12.259615,12.259615 0 0 0 -8.783203,3.707031 c 0.387101,1.167117 1.034638,2.522394 2.03125,4.097659 2.4931,3.94064 5.578733,7.19963 8.625,6.2207 2.918144,-0.93776 6.666492,-4.31788 8.59375,-8.15039 A 12.259615,12.259615 0 0 0 67.378906,93.125 Z" /><path
           id="path44"
           style="opacity:1;fill:url(#radialGradient45);stroke:none;stroke-width:3.62205;stroke-linecap:round;stroke-linejoin:round;stroke-opacity:1"
           d="m 67.378906,93.125 a 12.259615,12.259615 0 0 0 -5.86914,1.496094 7.9421782,7.9421782 0 0 0 -1.341797,4.417968 7.9421782,7.9421782 0 0 0 0.111328,1.328128 c 0.110656,0.18445 0.22691,0.37164 0.347656,0.5625 1.556367,2.46002 3.344514,4.65521 5.208985,5.71875 a 7.9421782,7.9421782 0 0 0 2.273437,0.33203 7.9421782,7.9421782 0 0 0 2.472656,-0.39453 c 1.420103,-0.73719 2.932223,-1.92455 4.283203,-3.3711 a 7.9421782,7.9421782 0 0 0 1.1875,-4.175778 A 7.9421782,7.9421782 0 0 0 75.542969,96.236328 12.259615,12.259615 0 0 0 67.378906,93.125 Z" /><ellipse
           style="fill:#ff588e;fill-opacity:0.77;stroke:none;stroke-width:3.77953;stroke-linecap:round;stroke-linejoin:round;stroke-opacity:1"
           id="path49"
           cx="109.30672"
           cy="89.575951"
           rx="10.052884"
           ry="7.1105766" /><ellipse
           style="fill:#ff588e;fill-opacity:0.768627;stroke:none;stroke-width:3.77953;stroke-linecap:round;stroke-linejoin:round;stroke-opacity:1"
           id="ellipse49"
           cx="39.782593"
           cy="77.31749"
           rx="10.052884"
           ry="7.1105766"
           transform="rotate(5.9519458)" /><circle
           style="opacity:0.48305;mix-blend-mode:overlay;fill:url(#radialGradient51);fill-opacity:0.768627;stroke:none;stroke-width:3.77953;stroke-linecap:round;stroke-linejoin:round;stroke-opacity:1"
           id="path50"
           cx="111.14173"
           cy="88.491425"
           r="25.028454" /><circle
           style="opacity:0.48305;mix-blend-mode:overlay;fill:url(#radialGradient52);fill-opacity:0.768627;stroke:none;stroke-width:3.77953;stroke-linecap:round;stroke-linejoin:round;stroke-opacity:1"
           id="circle51"
           cx="30.743298"
           cy="76.56308"
           r="25.028454" /><g
           id="g67"
           transform="matrix(0.07284042,0.00412587,-0.00412587,0.07284042,75.184537,59.157619)"><path
             fill="url(#ao)"
             d="M 285.61858,74.955045 C 287.65434,224.48476 250.62172,349.18901 193.46737,349.96713 136.31302,350.74526 88.68384,225.85467 86.64808,76.32495 c -2.03576,-149.529716 43.51617,-247.85675 100.6726,-248.63491 57.15642,-0.77815 92.43438,93.053364 94.47014,242.58308"
             style="fill:url(#ap);stroke-width:2.0725"
             id="path125" /><path
             fill="#ffffff"
             d="m 187.30804,-173.24078 c 10.72064,-0.14798 21.49226,2.08165 29.06248,5.67931 29.83199,14.18512 36.44195,46.78935 43.11276,85.980523 3.57957,21.054877 13.33996,56.622081 10.86862,78.1669511 -5.13999,44.7932029 -23.39139,83.4861649 -59.76264,95.9184909 -9.3411,3.193172 -14.85598,2.783749 -22.65639,2.650563 -16.83733,-0.286103 -34.75329,-8.573224 -46.91103,-21.35249 -13.53892,-14.231157 -23.03458,-33.109021 -28.33077,-52.874791 -5.06764,-18.897595 -6.85167,-42.512601 -6.43567,-70.187309 0.50972,-34.139978 5.16465,-56.488898 17.36678,-80.926038 8.00102,-16.02177 19.80359,-29.37653 34.94731,-36.80534 7.61297,-3.73249 18.07053,-6.10517 28.73855,-6.25151"
             id="path126"
             style="stroke-width:1.64427" /><path
             d="m 179.71809,-183.84139 c 35.66751,-2.85281 72.42023,32.81141 92.21066,104.920871 24.73969,90.148747 27.08606,259.636809 4.8506,350.265689 C 241.26805,416.0771 131.31078,422.08526 96.325652,245.28184 81.930068,172.52289 76.413542,35.925164 94.043405,-57.684772 109.47488,-139.62203 144.05223,-180.98693 179.71809,-183.84139 m 4.84731,28.44587 c -12.29092,0.0164 -24.62787,5.06764 -33.93115,15.17168 -40.232,43.663593 -33.15178,191.976747 22.76327,206.692963 17.31416,4.554628 31.89884,0.509724 44.86884,-12.445479 37.49922,-37.449894 36.43209,-153.854344 -0.0691,-194.301744 -9.10432,-10.08759 -21.34427,-15.12728 -33.6319,-15.11577 m 75.70877,319.13636 -8.99745,12.55894 c -34.6908,48.41553 -100.1903,41.98808 -129.69015,-3.4168 -5.75001,-8.85439 -5.79934,-7.80041 -1.23485,26.97425 26.35436,200.77195 121.16462,192.55717 138.73035,-21.58926 z"
             id="path127"
             style="fill:url(#linearGradient68);fill-opacity:1;stroke-width:1.64427" /></g><g
           id="g72"
           transform="matrix(0.15447844,0.01752767,-0.01752767,0.15447844,75.007063,26.11349)"><g
             id="g71"
             transform="matrix(0.46926959,0,0,0.46926959,-173.51482,207.88646)"><path
               fill="url(#ao)"
               d="M 285.61858,74.955045 C 287.65434,224.48476 250.62172,349.18901 193.46737,349.96713 136.31302,350.74526 88.68384,225.85467 86.64808,76.32495 c -2.03576,-149.529716 43.51617,-247.85675 100.6726,-248.63491 57.15642,-0.77815 92.43438,93.053364 94.47014,242.58308"
               style="fill:url(#linearGradient72);stroke-width:2.0725"
               id="path69" /><path
               fill="#ffffff"
               d="m 187.30804,-173.24078 c 10.72064,-0.14798 21.49226,2.08165 29.06248,5.67931 29.83199,14.18512 36.44195,46.78935 43.11276,85.980523 3.57957,21.054877 13.33996,56.622081 10.86862,78.1669511 -5.13999,44.7932029 -23.39139,83.4861649 -59.76264,95.9184909 -9.3411,3.193172 -14.85598,2.783749 -22.65639,2.650563 -16.83733,-0.286103 -34.75329,-8.573224 -46.91103,-21.35249 -13.53892,-14.231157 -23.03458,-33.109021 -28.33077,-52.874791 -5.06764,-18.897595 -6.85167,-42.512601 -6.43567,-70.187309 0.50972,-34.139978 5.16465,-56.488898 17.36678,-80.926038 8.00102,-16.02177 19.80359,-29.37653 34.94731,-36.80534 7.61297,-3.73249 18.07053,-6.10517 28.73855,-6.25151"
               id="path70"
               style="stroke-width:1.64427" /><path
               d="m 179.71809,-183.84139 c 35.66751,-2.85281 72.42023,32.81141 92.21066,104.920871 24.73969,90.148747 27.08606,259.636809 4.8506,350.265689 C 241.26805,416.0771 131.31078,422.08526 96.325652,245.28184 81.930068,172.52289 76.413542,35.925164 94.043405,-57.684772 109.47488,-139.62203 144.05223,-180.98693 179.71809,-183.84139 m 4.84731,28.44587 c -12.29092,0.0164 -24.62787,5.06764 -33.93115,15.17168 -40.232,43.663593 -33.15178,191.976747 22.76327,206.692963 17.31416,4.554628 31.89884,0.509724 44.86884,-12.445479 37.49922,-37.449894 36.43209,-153.854344 -0.0691,-194.301744 -9.10432,-10.08759 -21.34427,-15.12728 -33.6319,-15.11577 m 75.70877,319.13636 -8.99745,12.55894 c -34.6908,48.41553 -100.1903,41.98808 -129.69015,-3.4168 -5.75001,-8.85439 -5.79934,-7.80041 -1.23485,26.97425 26.35436,200.77195 121.16462,192.55717 138.73035,-21.58926 z"
               id="path71"
               style="fill:url(#linearGradient73);fill-opacity:1;stroke-width:1.64427" /></g></g><path
           id="ellipse4"
           style="display:inline;opacity:1;mix-blend-mode:overlay;fill:url(#radialGradient5);stroke-width:3.84492;stroke-linecap:round;stroke-linejoin:round"
           d="M 70.085938,18.759766 A 70.086433,71.018158 0 0 0 0.58007812,80.800781 70.086433,71.018158 0 0 0 70.085938,142.8418 70.086433,71.018158 0 0 0 139.59375,80.800781 70.086433,71.018158 0 0 0 70.085938,18.759766 Z" /><path
           id="path76"
           style="display:inline;opacity:1;mix-blend-mode:overlay;fill:url(#radialGradient76);stroke-width:3.84492;stroke-linecap:round;stroke-linejoin:round"
           d="M 70.611328,24.980469 A 70.086433,71.018158 0 0 0 1.1054681,87.021484 70.086433,71.018158 0 0 0 70.611328,149.0625 70.086433,71.018158 0 0 0 140.11914,87.021484 70.086433,71.018158 0 0 0 70.611328,24.980469 Z" /></g></g></g></svg>
