<?xml version="1.0" encoding="UTF-8" standalone="no"?>
<!-- Created with Inkscape (http://www.inkscape.org/) -->

<svg
   version="1.1"
   id="svg1"
   width="512"
   height="519"
   viewBox="0 0 512 519"
   xmlns="http://www.w3.org/2000/svg"
   xmlns:svg="http://www.w3.org/2000/svg">
  <defs
     id="defs1" />
  <g
     id="g1">
    <path
       style="opacity:1;fill:#f26aff;fill-opacity:1;stroke-width:23.832;stroke-linecap:round;stroke-linejoin:round"
       d="m 274.54696,115.85813 c -0.65173,-2.21421 0.96624,-2.42752 2.65522,-3.8624 0.21993,-0.50853 0.41542,-1.33185 0.63536,-1.79195 0.21994,-0.46009 0.46431,-0.55695 0.85531,-1.01706 1.0358,-1.99726 3.21315,-2.09038 5.1993,-2.43366 2.29669,-1.52927 3.88048,-1.03471 6.32926,0.0242 2.30963,-0.0816 3.26939,-0.0526 4.76527,1.52557 0.36656,0.3148 0.90417,0.65382 1.5151,0.87176 0.61095,0.21794 1.29518,0.31481 2.29712,0.26637 1.00195,-0.0484 2.32154,-0.24215 3.42122,-0.36324 1.95075,-0.21477 4.60253,0.37182 6.79355,1.59824 5.46805,3.06073 -2.24745,10.63282 -2.63922,16.10343 -0.40198,5.61323 -0.6598,12.01089 -0.17104,15.83697 0.48876,3.82608 1.80834,5.08527 2.44371,6.70773 1.02927,2.56477 0.32398,4.88277 -0.70869,7.24046 -0.0185,1.52655 0.12184,2.4827 -1.12894,3.48599 -0.66466,0.48327 -1.65183,1.15919 -2.21455,2.01086 -0.56272,0.85167 -0.70096,1.87903 -1.08112,2.5982 -0.38016,0.71918 -1.00222,1.13012 -1.52062,2.12327 -0.5184,0.99315 -0.19999,3.14961 -0.47647,4.79344 -0.0854,6.11844 -3.16273,10.12611 -6.67365,14.71147 -0.82572,1.32028 -1.233,1.97454 -1.48551,2.76177 -0.25253,0.78725 -0.35028,1.70743 -0.76572,2.67607 -0.41544,0.96863 -1.14854,1.98566 -1.68617,2.76057 -0.53763,0.7749 -0.87974,1.30763 -0.77905,3.5735 1.02985,6.34793 0.33577,12.01401 -2.05276,17.91955 -1.27369,3.15852 -2.83764,7.22665 -4.45052,10.81059 -1.61288,3.58395 -3.27458,6.68348 -4.05657,9.87997 -0.78199,3.1965 -0.68424,6.48976 -0.87975,8.47545 -0.19551,1.98568 -0.68424,2.66371 -0.92862,3.97137 -0.24437,1.30766 -0.24437,3.24487 -0.68425,6.05392 -1.7207,9.15779 -4.48901,18.08844 -6.94018,27.07304 -1.22188,4.50413 -1.90611,7.31309 -2.4926,9.39564 -0.58651,2.08256 -1.07524,3.43861 -1.07524,4.69783 0,1.25922 0.48874,2.42155 0.58649,3.7292 0.0977,1.30766 -0.19549,2.76057 -0.39099,4.40725 -0.19551,1.64668 -0.29325,3.48703 -0.83088,5.5696 -0.53763,2.08256 -1.51509,4.40721 -2.05272,6.87723 -0.53763,2.47002 -0.63537,5.08526 -0.87975,6.82879 -0.24437,1.74353 -0.63537,2.61528 -0.97749,3.24489 -0.34213,0.6296 -0.63536,1.01705 -0.92862,3.05119 -0.29325,2.03415 -0.5865,5.71486 -0.9775,9.10507 -0.391,3.39022 -0.87973,6.48975 -1.56399,9.39565 -0.68425,2.9059 -1.56398,5.61799 -2.88361,7.50682 -1.31962,1.88883 -3.07908,2.9543 -4.3987,3.82607 -1.31962,0.87177 -2.19935,1.54979 -2.8836,1.98567 -0.68425,0.43588 -1.17298,0.6296 -1.5151,1.45295 -0.34213,0.82334 -0.53762,2.27625 -0.74342,3.94569 -1.76676,14.3328 -20.738,19.85416 -28.07821,8.48909 -0.55296,-0.85616 -0.76031,-1.54106 -1.03679,-2.32873 -0.27648,-0.78767 -0.62207,-1.67805 -1.10591,-1.98626 -0.48384,-0.30821 -1.10589,-0.0343 -2.76478,0.23972 -8.50504,2.05425 -15.57572,-0.75596 -15.79368,-10.34233 0.0346,-1.9178 0.44926,-3.90403 0.65662,-5.95881 0.76187,-7.97965 1.38832,-16.1144 -0.24192,-23.93799 -2.26409,-10.86541 0.11453,-22.30444 -0.1728,-32.32825 -0.0233,-0.81155 -1.79709,2.02052 -2.41917,1.78081 -0.62208,-0.23973 -1.17502,0.0342 -1.69341,0.92465 -0.51841,0.89041 -1.00223,2.39721 -1.93535,3.66432 -0.93312,1.26712 -2.31548,2.29448 -3.21403,3.32188 -1.85252,2.11815 -1.863,4.7718 -2.86845,6.91768 -0.44927,0.9589 -1.00222,1.43834 -1.34781,2.60272 -0.3456,1.16438 -0.48384,3.01363 -0.89855,4.2465 -0.41473,1.23286 -1.10591,1.84928 -1.93535,2.67119 -0.82943,0.82192 -1.79708,1.84928 -2.59195,3.25338 -0.79488,1.40411 -1.41694,3.18486 -2.24638,5.41088 -2.54788,7.83769 -5.99556,11.45738 -10.40242,22.63663 -0.864,2.19176 -1.34782,3.63007 -1.76254,4.55471 -0.41472,0.92465 -0.76031,1.33559 -1.00223,1.67806 -0.64814,1.58095 -2.1543,2.55512 -3.07565,3.87399 -0.069,0.44939 0.41515,1.0057 0.87715,1.76818 4.9446,8.16049 0.83244,11.83026 -1.51743,10.54556 -0.70869,-0.38745 -1.49067,-0.48431 -3.009,0.19946 -3.78918,1.70642 -9.31058,6.46037 -12.66299,7.82476 -1.93535,0.78765 -3.45594,0.65067 -5.11481,0.92465 -1.65888,0.27397 -3.45594,0.95888 -5.08026,1.36984 -1.62431,0.41095 -3.07578,0.54793 -4.28538,0.99314 -1.20959,0.44521 -2.17724,1.1986 -3.0758,1.60956 -0.89856,0.41095 -1.72796,0.47944 -2.79932,0.68492 -1.07137,0.20548 -2.3846,0.54794 -3.31771,0.95889 -0.93311,0.41096 -1.48606,0.8904 -2.07358,1.30135 -0.58751,0.41095 -1.20957,0.75341 -2.00446,0.7534 -0.79488,0 -1.773,-0.48814 -2.79932,-0.34245 -2.07267,0.29423 -4.20755,-0.11128 -5.90162,-1.14102 -3.41496,-1.9574 -3.11927,-5.1988 -3.29122,-8.51639 -0.42582,-2.44647 -1.27454,-4.40901 0.58753,-6.33551 0.864,-0.85617 2.17723,-2.15749 2.59195,-3.32187 -0.56377,-2.97845 1.72629,-4.47382 2.41917,-7.22591 0.45591,-3.0082 0.84827,-5.92977 2.35005,-8.63 0.41473,-0.71917 0.76032,-1.33558 1.10591,-2.39723 0.74302,-3.38844 1.79217,-6.41848 3.84095,-9.25281 0.36756,-0.61154 0.50478,-1.28981 0.50288,-2.11902 -0.322,-1.80423 0.2911,-3.02827 1.18231,-4.50873 0.29324,-0.65383 0.29324,-1.42871 0.65981,-1.96146 0.36656,-0.53275 1.09967,-0.82333 1.6373,-1.59824 0.53762,-0.77491 0.87973,-2.03409 1.34406,-3.09959 0.4643,-1.0655 1.05079,-1.93724 1.28794,-2.76337 0.23717,-0.82613 0.125,-1.60659 0.70021,-3.08033 1.90009,-3.29985 2.93876,-6.79441 3.80883,-10.45146 0.38016,-1.4041 1.00222,-2.63693 1.17502,-3.73281 0.26503,-1.68088 -0.63976,-3.44133 0.72576,-4.79445 0.41471,-0.41095 0.89854,-0.54793 1.20957,-1.74657 0.63041,-2.42939 0.37347,-6.86228 0.82944,-7.63684 0.24193,-0.41096 0.72574,-0.47944 1.03678,-1.19862 0.5502,-1.27216 0.7023,-5.58953 1.76254,-7.46563 0.48384,-0.85615 1.1059,-0.99314 1.31326,-1.71232 0.20736,-0.71918 0,-2.0205 0.1728,-2.87665 0.17281,-0.85616 0.72575,-1.2671 1.14046,-1.98628 0.41473,-0.71917 0.6912,-1.74653 0.89855,-2.70544 1.21839,-5.63424 1.21559,-2.31747 1.79709,-5.10266 0.20736,-0.99315 0.0692,-2.29447 0.31105,-3.25337 0.67689,-2.68297 2.72847,-0.79452 2.7574,-1.25304 -1.33147,-3.54147 -0.48952,-5.58071 1.23791,-8.53808 0.34213,-0.79913 0.39099,-1.96145 0.41543,-2.88166 -0.22588,-1.64722 0.6391,-2.09385 1.58844,-3.14802 1.39345,-2.41649 -0.58633,-4.56944 1.63729,-5.59382 0.31768,-0.6054 0.4643,-2.30046 0.78199,-3.51126 0.31769,-1.21078 0.80643,-1.93724 1.14855,-2.15517 0.34213,-0.21794 0.53762,0.0726 0.53762,-0.53277 -0.25411,-2.25457 -0.15226,-4.33512 1.14856,-6.24761 0.56207,-0.70226 1.19742,-1.13813 1.49067,-1.86461 0.29324,-0.72648 0.24437,-1.74351 0.31768,-3.09961 0.30316,-5.60738 1.53822,-2.9146 1.80836,-3.94714 0.17107,-0.65385 -0.0733,-2.68791 0.19551,-4.09242 0.26882,-1.40452 1.05079,-2.17941 1.46623,-3.00274 0.52158,-2.03882 1.2956,-3.9749 2.07717,-5.93282 0.391,-1.04129 0.58649,-1.96146 0.63537,-2.63951 -0.57883,-4.13268 -1.15132,-7.3007 1.46624,-10.94545 0.24437,-0.53275 0.1955,-1.30765 0.31768,-2.49423 0.11104,-2.55215 1.20305,-4.80797 2.15048,-7.11937 0.0994,-2.99101 1.31486,-5.10893 3.03023,-7.36156 0.41543,-0.70226 0.61092,-1.76772 1.31962,-2.54262 0.7087,-0.77491 1.93054,-1.25921 2.73698,-2.61531 0.80643,-1.35609 1.19742,-3.58388 1.41736,-5.3032 -0.1228,-2.47885 0.9341,-4.15198 2.07717,-6.17499 0.77543,-2.05589 1.17359,-4.22897 1.75948,-6.34449 0.1955,-0.72647 0.39099,-1.54978 0.51318,-2.08252 0.0804,-0.35053 0.41116,-1.95977 0.0488,-3.29334 -0.17107,-0.62961 -0.51319,-1.06548 -0.90418,-1.33185 -1.21707,-0.49179 -1.85174,-1.33393 -2.37041,-2.49422 -0.22194,-1.87054 -1.36475,-3.06789 -2.63924,-4.35881 -5.14768,-7.30091 7.87021,-15.53077 12.60966,-19.25141 1.63732,-1.23501 3.3479,-2.25204 5.08296,-3.68078 1.73507,-1.42874 3.49451,-3.26908 5.05852,-5.03684 6.32824,-7.88023 12.49488,-14.56806 18.52346,-1.67084 1.02638,2.22786 2.05272,4.74624 2.98136,6.73193 2.17669,4.6545 3.30166,5.34373 4.52088,5.83596 0.65982,0.26637 1.34406,0.46009 2.10161,0.19371 3.78039,-2.51018 9.03562,1.55124 7.991,5.83599 -0.0977,1.16236 0.83086,3.19644 1.29517,4.62517 0.46432,1.42872 0.46432,2.25204 1.0997,3.705 3.37795,4.90344 5.03475,9.6939 5.5717,15.32848 0.24438,1.18657 1.27072,2.63948 1.68616,4.09243 0.41543,1.45295 0.21994,2.90586 0.61094,4.6494 1.64152,3.95002 2.09511,7.88265 2.05272,12.1078 0,1.93727 0.14663,3.63233 0.21994,4.64938 0.0733,1.01707 0.0733,1.35608 0.29325,2.25207 1.35882,3.3026 1.14455,6.69048 1.27076,10.14634 0.0733,1.16235 0.31768,2.27626 0.34211,3.29332 0.0243,1.01707 -0.17105,1.93724 -0.21993,2.78479 -0.14343,2.4892 1.05022,3.12419 1.41736,2.88165 0.29325,-0.19373 0.391,-0.92019 0.68425,-1.79196 0.29326,-0.87177 0.78199,-1.88881 1.17299,-3.58393 0.93863,-4.06925 0.94637,-9.29603 1.49068,-10.58219 0.31769,-0.75068 0.8553,-0.55696 1.36849,-0.94442 0.51319,-0.38746 1.00192,-1.35607 1.17298,-2.56687 0.17106,-1.21079 0.0245,-2.6637 0.17106,-3.72919 0.14663,-1.06549 0.5865,-1.74351 0.80643,-2.61529 0.2475,-3.0526 2.04339,-5.52326 3.32347,-8.20909 0.84822,-2.00996 0.0641,-3.18472 1.49068,-6.24762 0.43988,-0.94442 0.92862,-1.57402 1.46625,-2.78482 0.53761,-1.21079 1.1241,-3.00271 1.73504,-4.38301 0.61094,-1.3803 1.2463,-2.3489 1.66173,-3.4144 0.41544,-1.0655 0.61093,-2.22783 0.87975,-3.36597 0.26881,-1.13814 0.61093,-2.25205 1.00193,-3.70499 0.391,-1.45296 0.83086,-3.24488 1.44181,-5.06106 1.46866,-4.36605 1.00292,-1.88868 3.49452,-10.00104 0.34212,-1.11393 0.53762,-1.64666 0.63537,-2.17941 0.0978,-0.53275 0.0978,-1.06548 0.36657,-1.33185 0.2688,-0.26637 0.80642,-0.26637 1.44179,-1.35609 0.63538,-1.08973 1.36849,-3.2691 1.78392,-4.86733 0.41544,-1.59824 -2.62557,-2.54263 -2.11239,-3.89872 1.5575,-2.75742 3.86177,-8.71757 3.86177,-8.71757 z"
       id="path7" />
    <path
       style="opacity:1;fill:#f3d8d8;fill-opacity:1;stroke-width:25;stroke-linecap:round;stroke-linejoin:round"
       d="m 251.49995,107.796 c 1.19092,-0.0361 3.57275,-0.10826 5.59371,0.0361 2.02097,0.14436 3.68101,0.50524 4.72757,1.08266 1.04657,0.57742 1.47962,1.37135 2.34575,1.94877 2.62739,1.00813 3.59945,2.53341 4.47496,5.08847 0.43307,1.19093 1.01047,2.27356 1.5518,5.55766 1.13488,12.94184 0.89492,41.41617 -7.8133,55.076 -0.99259,1.55698 -1.38986,2.36125 -1.61402,3.68208 -0.22416,1.32082 -0.27519,3.15811 -0.88765,5.42927 -1.84218,6.83139 -7.56298,14.90589 -9.56936,20.92502 -0.53589,1.60768 -0.94418,3.29186 -1.40351,4.66986 -0.45934,1.378 -0.96969,2.44975 -1.07176,3.59809 -0.14669,1.65015 1.08308,4.4803 -0.94419,11.10048 -6.74178,14.82491 -4.62625,24.54694 -10.33493,36.03189 -0.86763,1.93941 -1.27592,3.16426 -1.58214,4.38915 -0.30622,1.2249 -0.51036,2.44975 -1.22489,4.54228 -0.71452,2.09254 -1.93938,5.05261 -2.19456,6.8389 -0.25517,1.78629 0.45933,2.39872 0.40828,4.08296 -0.0873,2.88346 -2.51271,9.25368 -3.16426,14.59647 0.0671,6.8358 -2.78544,6.39667 -3.26635,10.5646 -0.15311,1.32697 -0.15311,3.16426 -0.4083,4.74641 -0.25519,1.58215 -0.76554,2.90908 -1.07176,4.28708 -0.30623,1.378 -0.4083,2.807 -0.50899,4.84716 -0.10069,2.04016 -0.19999,4.69135 -0.39401,7.17183 -0.33098,7.2642 -1.71102,6.5144 -2.93672,12.76563 -0.36089,1.84053 -0.72177,4.15015 -0.90221,5.91849 -0.18044,1.76834 -0.18044,2.99532 -0.46585,4.08245 -0.2854,1.08713 -0.85619,2.03434 -1.34574,2.91625 -0.48955,0.88192 -0.89784,1.69849 -1.07646,2.7958 -0.17863,1.0973 -0.1276,2.47526 -0.0766,4.79746 0.77438,6.67042 -1.64061,12.07736 -4.26157,17.99042 -0.84212,1.83734 -1.8118,3.62359 -3.16429,5.2823 -1.35249,1.6587 -3.0877,3.18977 -4.41466,4.3381 -1.32697,1.14833 -2.24561,1.91387 -2.60914,2.93618 -0.36353,1.0223 -0.17193,2.30131 -0.43702,3.95132 -0.33612,2.09213 -2.82083,14.42451 -14.84479,15.72445 -9.34376,5.42722 -20.99948,5.39865 -28.4196,-3.01339 -0.84808,-0.99243 -1.02852,-1.35331 -1.17287,-1.67811 -0.14436,-0.3248 -0.25262,-0.6135 -0.92026,-0.83003 -0.66765,-0.21654 -1.89463,-0.36089 -3.1397,-0.46915 -2.41107,0.0435 -4.53207,-0.81124 -6.71243,-1.69615 -0.99244,-0.36089 -2.0029,-0.54133 -2.79685,-0.88417 -0.69168,-0.29869 -4.22272,-2.72162 -5.14259,-3.84342 -0.73982,-0.90222 -0.99243,-1.91267 -1.47963,-2.85098 -1.3509,-1.91992 -2.33075,-3.89548 -2.7788,-6.20721 -0.19849,-1.15483 -0.27066,-2.27355 -0.50524,-4.04191 -1.53139,-11.54417 0.42928,-9.23317 -0.13511,-25.67798 -0.10207,-1.04627 -0.45932,-1.96491 -0.5614,-2.96013 -0.10207,-0.99523 0.051,-2.06698 -0.0255,-2.75597 -0.0765,-0.689 -0.38277,-0.99522 -0.86763,-1.27592 -0.48485,-0.28071 -1.14831,-0.53589 -1.88835,10e-6 -0.74004,0.5359 -1.55661,1.86283 -1.96491,3.0622 -0.39211,2.75457 -1.46923,5.15175 -2.7815,7.57895 -2.55624,5.67849 -6.75167,10.83666 -8.26793,16.94417 -0.22967,1.17386 -0.0766,2.0925 -0.58694,2.83254 -0.51038,0.74004 -1.6842,1.30143 -2.2456,1.8118 -0.5614,0.51037 -0.51037,0.96969 -0.39031,1.57591 0.12006,0.60622 0.30913,1.3593 0.49389,2.49372 0.18477,1.13442 0.36521,2.65011 0.43738,4.21997 0.0722,1.56986 0.0361,3.1938 0.14436,4.70953 0.10826,1.51572 0.36088,2.92314 0.0722,3.78927 -0.28872,0.86612 -1.11874,1.19091 -1.62398,1.3894 -0.50525,0.19849 -0.68567,0.27066 -0.68567,0.88418 0.51862,5.80118 -4.83049,7.02174 -9.39521,7.50261 -0.58693,0.0765 -0.94418,0.17863 -1.2504,0.2807 -0.30623,0.10208 -0.5614,0.20414 -0.94418,0.66348 -0.80534,1.48273 -2.108808,1.86592 -3.521534,2.5008 -1.29926,1.65352 -2.638319,1.44104 -4.542261,1.30144 -0.58692,0.0766 -0.484849,0.63795 -0.612444,1.02073 -0.127596,0.38277 -0.484844,0.58691 -1.071775,0.74002 -0.586931,0.15312 -1.403501,0.25519 -2.015946,0.53589 -1.986128,1.77005 -3.318603,2.41129 -6.073366,2.09246 -0.918667,-0.12759 -1.582132,-0.2807 -1.990427,-0.0255 -1.591159,3.14073 -4.30757,2.12898 -7.34928,2.04145 -0.408294,0.10208 -0.408294,0.51037 -0.586927,1.0973 -0.954129,2.45827 -3.958398,1.25282 -5.945776,0.91865 -1.275925,-0.17863 -1.939387,-0.0255 -2.322164,0.20415 -0.382776,0.22967 -0.484847,0.53588 -0.510364,0.91866 0.07701,2.4313 -2.913177,2.29321 -4.695384,2.85806 -0.995222,0.38278 -1.691373,1.08216 -2.909098,1.17384 -24.321708,1.83103 -26.743097,-22.92821 -19.827735,-33.30145 0.30622,-0.45933 0.357256,-1.02072 0.331737,-1.88836 -0.02552,-0.86763 -0.12759,-2.04145 0.05104,-2.73045 0.178633,-0.689 0.637953,-0.89314 1.071769,-0.99522 0.433817,-0.10207 0.842102,-0.10207 0.995212,-0.25518 0.15311,-0.15311 0.05104,-0.45933 -0.02552,-1.65871 -0.01003,-1.92608 -0.724921,-5.10841 1.76077,-5.53746 0.612445,-0.051 1.17384,-0.10207 1.326948,-1.09731 0.170351,-1.95903 -0.649384,-4.11681 1.097298,-5.43539 0.433815,-0.35726 0.791065,-0.96969 0.842099,-1.9394 0.02854,-1.4696 -0.687684,-3.07422 0.995217,-3.57256 1.047421,-0.48342 -0.02153,-9.30597 2.653909,-6.78787 0.433813,0.4083 0.535883,0.96969 0.433807,0.33172 -0.530836,-3.31775 -0.429888,-4.59318 0.944185,-5.07814 0.433814,-0.15311 0.688992,-0.15311 0.765546,-0.76556 0.07655,-0.61245 -0.02552,-1.83731 0.07656,-2.73046 0.102075,-0.89314 0.408288,-1.45453 0.76555,-1.83731 0.357263,-0.38278 0.765547,-0.58692 0.995213,-1.04626 0.229666,-0.45934 0.280702,-1.17384 0.357257,-1.9394 0.318384,-3.18363 0.929764,-1.9982 1.505583,-3.72568 0.468602,-1.89538 0.427843,-3.90397 2.07975,-5.14193 0.446573,-0.24243 0.829341,-0.37002 0.98245,-1.46732 0.245529,-2.30683 -0.26682,-4.91872 1.505587,-6.68579 0.433815,-0.33174 0.765546,-0.43381 0.880377,-1.30145 0.114832,-0.86764 0.01276,-2.50078 0.112218,-3.50081 0.09946,-1.00002 0.400437,-1.36688 0.73617,-1.64414 0.335733,-0.27726 0.797095,-0.51094 0.991695,-1.25935 0.194599,-0.7484 0.122424,-2.01147 0.140469,-3.29262 0.01804,-1.28115 0.126308,-2.58031 0.487198,-3.44643 0.360891,-0.86613 0.97438,-1.29918 1.281132,-1.75029 0.814659,-1.19804 -0.484468,-6.03076 1.299188,-6.96506 0.378934,-0.19848 0.775895,-0.12631 0.956336,-0.37893 0.651294,-0.91182 -0.667025,-5.72929 1.660065,-6.89288 0.288708,-0.14435 0.396973,-0.36088 0.427073,-1.28499 0.0301,-0.9241 -0.01796,-2.55571 0.06008,-3.7288 0.200499,-3.01385 1.001003,-1.89619 1.762256,-3.4187 0.975113,-1.95025 1.662926,-6.45214 2.500799,-6.60923 0.4083,-0.0765 0.918654,0.68899 1.020725,-0.25522 0.10207,-0.9442 -0.204144,-3.59805 -0.02551,-5.02708 0.178635,-1.42903 0.842097,-1.63317 1.326948,-1.55662 0.484852,0.0766 0.791066,0.43381 0.918658,-0.48487 0.127592,-0.91868 0.07656,-3.11322 0.331744,-4.18499 0.255187,-1.07176 0.816583,-1.02073 1.173841,-1.91389 0.680754,-1.70191 0.580053,-6.45448 1.48007,-7.29822 0.408302,-0.38278 1.020727,0.0255 1.168057,0.21132 -0.497246,-1.56394 0.01136,-5.61691 1.334276,-6.39243 0.261638,-0.15338 0.505231,-0.20751 0.667629,-0.35187 0.324795,-0.28871 0.324795,-0.93829 0.288706,-2.12923 -0.03609,-1.19093 -0.108265,-2.92314 0.144359,-3.78926 0.252625,-0.86612 0.830028,-0.86612 1.190913,-1.55181 0.807852,-1.53494 0.356745,-5.09405 1.29919,-6.1711 0.505248,-0.57742 1.443526,-0.64959 1.876586,-1.26311 0.43306,-0.61351 0.360884,-1.76832 0.394431,-2.95975 0.03355,-1.19143 0.172813,-2.41941 0.39556,-2.93134 0.222747,-0.51193 0.52896,-0.30779 0.733109,-0.81817 0.351795,-0.8795 0.401409,-4.05139 1.429031,-4.95055 0.4083,-0.35725 0.918657,-0.25518 1.250397,10e-6 0.331741,0.25519 0.484847,0.66347 0.510364,-0.94422 0.02552,-1.60769 -0.07655,-5.23122 0.07656,-7.85963 0.153115,-2.62841 0.5614,-4.26155 0.791065,-5.48643 0.229666,-1.22489 0.280701,-2.04146 0.30622,-2.98565 -0.110734,-2.22512 0.528461,-4.23653 1.505589,-6.20096 0.459334,-0.86763 0.867616,-1.48005 1.071763,-2.3732 0.204147,-0.89316 0.204147,-2.06698 0.535892,-2.73046 0.331744,-0.66348 0.995209,-0.81659 1.531098,-1.76079 0.535889,-0.94419 0.944174,-2.6794 1.525512,-4.38207 0.581337,-1.70266 1.335688,-3.37267 2.218125,-5.03775 0.88243,-1.66507 1.89288,-3.3251 2.50639,-4.913 0.44972,-2.70216 1.86535,-4.89993 3.03142,-7.28986 0.39697,-1.08267 0.39697,-2.454 0.75786,-3.60884 0.36089,-1.15483 1.08264,-2.09311 1.55179,-2.92315 0.46915,-0.83004 0.68568,-1.55179 0.79394,-2.27357 0.10827,-0.72177 0.10827,-1.44353 -0.32479,-2.09312 -0.43307,-0.6496 -1.29918,-1.227 -1.80442,-2.02096 -0.50524,-0.79395 -0.64959,-1.80441 -0.90221,-2.38182 -0.25262,-0.57742 -1.03455,-0.68349 -1.35935,-1.22482 -0.68086,-1.13481 -0.61325,-3.52506 -1.78034,-4.83803 -0.57742,-0.6496 -1.37135,-1.08265 -1.58788,-2.70665 -0.55178,-13.59177 13.06068,-22.88137 23.02441,-29.66465 2.2375,-1.55182 4.25841,-3.42838 5.77413,-5.16064 1.51572,-1.73225 2.52617,-3.32011 4.078,-4.6193 1.55182,-1.29919 3.6449,-2.30965 5.01627,-3.24795 1.37136,-0.93831 2.02094,-1.80442 3.28405,-2.70664 2.30714,-1.64793 7.18292,-4.29316 10.89868,-0.5774 0.46915,0.46915 0.75786,0.75786 1.45509,0.90354 0.69724,0.14569 1.80296,0.14835 2.86621,0.58351 4.83382,1.97831 10.63446,17.21621 10.86228,17.55794 0.35726,0.53588 0.81658,0.53588 2.14355,0.74003 5.69927,0.45518 8.57135,4.54534 11.1515,9.21213 0.689,1.40352 0.689,2.42423 1.04626,3.80224 2.79559,7.45373 6.21644,14.66165 9.08453,22.09888 0.66348,1.68422 1.27591,3.01115 1.63317,4.05741 0.35726,1.04626 0.45933,1.81179 0.91866,2.44976 0.45934,0.63796 1.27591,1.14832 1.70972,0.96968 0.43382,-0.17864 0.48485,-1.04624 0.66348,-2.19458 0.82912,-4.62165 2.87925,-8.91751 4.5678,-13.26957 1.32697,-3.44501 2.75596,-7.42579 3.92982,-10.76872 4.81347,-13.70797 1.73611,-10.32608 4.0064,-15.18341 1.0973,-2.34772 3.34287,-5.00157 4.41464,-7.14513 1.07177,-2.14356 0.9697,-3.7767 1.07178,-5.25677 0.10208,-1.48008 0.40829,-2.80701 1.14833,-3.92982 0.74004,-1.12282 1.91387,-2.04146 2.52631,-3.21532 0.61244,-1.17386 0.66347,-2.60286 1.30144,-3.87879 6.53227,-10.50204 16.31704,-8.07773 18.32217,-7.09408 1.35248,0.66349 2.16905,1.73524 2.98564,1.91386 0.43665,0.0955 3.56321,-1.91088 6.88995,1.04627 0.45934,0.4083 0.61244,0.81658 0.93987,0.90023 0.32742,0.0837 0.82915,-0.15731 1.08001,-0.2778 0.25087,-0.12049 0.25087,-0.12043 1.44179,-0.15652 z"
       id="path5" />
    <path
       style="opacity:1;fill:#ff6d2f;fill-opacity:1;stroke-width:24.2096;stroke-linecap:round;stroke-linejoin:round"
       d="m 366.47926,121.51134 c 0.63334,-0.31337 1.39336,-1.03651 1.92537,-1.78375 0.532,-0.74726 0.836,-1.51859 1.26667,-1.97659 0.43068,-0.45798 0.98802,-0.6026 2.28005,-0.55439 1.29205,0.0482 3.31869,0.28924 7.37215,0.38566 8.76426,0.20846 45.83652,-0.225 54.79675,0.0241 4.33209,0.12053 6.35873,0.40978 7.57474,0.5303 1.21604,0.12052 1.62137,0.0724 2.28006,-0.19284 0.65868,-0.26516 1.57068,-0.74723 2.91338,-1.22933 12.52487,-2.50275 36.18988,-0.36725 36.20184,-0.36156 0.65869,0.31336 1.46935,0.84366 3.01473,1.13291 5.43556,1.01741 6.10867,-0.83141 10.80291,0.98825 0.68401,0.26515 1.02642,0.44972 1.59602,0.60262 14.3659,3.85638 8.5527,19.72931 1.25577,29.8858 -10.16864,14.09819 -26.2079,10.90891 -41.18072,9.73101 -13.82531,-0.9746 -27.45924,-1.44786 -33.1489,1.01287 -0.7882,0.34088 -1.00315,0.68179 -1.11064,1.2954 -0.19184,1.09531 -0.0534,3.53937 -0.14331,5.24973 -0.0359,0.68179 -0.10748,0.95449 0.37619,1.21016 3.29342,1.07667 4.49133,4.19844 3.81564,7.31213 -0.21497,0.61361 -0.57323,0.64769 -0.93152,0.93746 -0.35827,0.28977 -0.71653,0.83518 -0.84193,1.43174 -0.057,1.25619 -0.11802,1.88402 -1.54057,1.78968 -0.48368,-0.10227 -0.87777,-0.3068 -1.05691,0.44317 -0.13916,1.66172 -0.48799,3.6838 0.6807,5.04519 0.42994,0.3409 1.11064,0.74996 1.54057,1.12495 0.42993,0.37498 0.60907,0.71587 1.14649,1.05677 6.40534,2.77647 3.608,7.83693 2.86614,8.38593 -0.64489,0.47726 -1.61221,0.54543 -2.3825,0.69883 -0.7703,0.1534 -1.34352,0.39202 -1.5025,1.08016 0.10847,2.12592 -0.45842,2.93017 -2.35917,3.90346 -0.58269,0.36158 -0.68402,0.79545 -0.0254,1.9766 4.18824,7.39106 0.54266,16.10003 -1.01336,23.86364 -0.35467,1.61503 -0.81066,2.82024 -0.73466,4.17011 0.75791,2.82378 0.56406,4.45575 -1.21602,6.74931 -0.58269,0.86778 -0.78535,1.83196 -1.24137,2.77204 -0.45602,0.94009 -1.16534,1.85605 -1.24133,2.31404 -0.0761,0.458 0.48133,0.458 1.29202,0.86778 4.83381,2.82863 4.1046,6.3509 0.63332,9.40083 -0.53201,0.55442 -0.63333,1.08471 -1.11468,1.27754 -0.48135,0.19284 -1.34268,0.0482 -1.87469,0.14464 -0.53201,0.0964 -0.73468,0.43388 -0.44858,1.15484 1.70604,2.8425 1.71851,5.79294 -1.31699,7.6682 -0.42994,0.30681 -0.57324,0.6477 -0.57324,1.70448 0.68848,4.50555 0.0444,7.17302 -3.33193,10.32901 -0.17914,0.3409 -0.10748,0.88632 0.25079,1.70446 1.20195,1.89451 1.01753,3.04349 0.0359,4.87476 -0.32244,0.78406 -0.32244,1.80671 -0.50159,2.62486 -0.57049,2.42212 -2.66859,3.68277 -4.69337,4.94294 -0.50159,0.37498 -0.71654,0.78404 -0.46573,2.21581 0.71747,4.11041 3.41625,10.7201 -1.28981,13.46522 -0.8957,0.51134 -1.9705,1.19311 -2.2571,1.77263 -0.28662,0.57952 0.21496,1.05677 0.75237,1.73855 1.47531,2.20409 4.82761,4.90667 1.18228,6.64739 -0.64489,0.30681 -1.14646,0.71587 -1.32559,1.09085 -0.17914,0.37498 -0.0359,0.71587 0.21496,1.12495 1.70136,2.37181 1.99456,4.25138 0.0359,6.40877 -0.71654,0.88634 -1.50472,2.31806 -1.79134,3.61346 -0.85124,3.84725 2.32409,4.57275 -0.0717,7.84051 -0.5016,0.74997 -1.00316,1.84081 -1.25396,2.55668 -0.25079,0.71588 -0.25079,1.05676 -0.25079,1.53402 0,0.47725 0,1.09085 -0.25079,1.5681 -0.25079,0.47725 -0.75237,0.81814 -1.00315,1.36357 -1.73245,3.7678 3.95938,5.16016 0.68073,11.69259 -0.71656,1.3295 -1.57639,2.4885 -1.64805,3.85209 1.39714,5.88068 -1.11399,6.46254 -1.50474,10.73808 -0.41354,2.12085 0.0433,4.35995 -0.71656,6.40877 -0.50158,0.98859 -1.57638,1.53401 -1.82717,1.97717 -0.25079,0.44316 0.32245,0.78405 1.11065,1.19313 5.94198,3.08385 1.81601,7.55103 1.03897,8.31776 -5.89652,5.81821 -11.11303,-0.76754 -11.35722,-1.26132 -0.28663,-0.57952 -0.35828,-1.19312 -0.82404,-1.46583 -0.46577,-0.27271 -1.32561,-0.20454 -2.65124,-0.0682 -1.32562,0.13635 -3.11695,0.34089 -4.37091,0.44316 -1.25397,0.10226 -1.97049,0.10226 -2.36459,0.54543 -0.3941,0.44317 -0.46575,1.32947 -1.07483,1.73854 -0.60908,0.40907 -1.75553,0.3409 -3.26029,0.0682 -1.50476,-0.27271 -3.36774,-0.74996 -5.1233,-0.78404 -5.93579,0.73013 -10.58271,-0.87823 -12.93362,-6.44287 -0.50157,-1.36358 -0.50157,-2.38623 -1.07482,-3.57936 -3.24116,-5.69861 -2.88725,-13.37507 -0.44782,-19.3797 0.44784,-0.86928 0.9494,-1.14198 1.23603,-1.56811 0.28661,-0.42612 0.35827,-1.00562 0.35827,-1.96013 -0.0569,-1.57216 -0.28639,-3.01484 1.00313,-4.10774 1.67455,-1.67301 0.65271,-6.27423 1.41518,-8.98249 0.26871,-0.9545 0.73445,-0.85223 1.07482,-0.8011 0.34037,0.0511 0.55531,0.0511 0.69863,-1.80677 0.38613,-5.00567 0.0134,-11.78967 0.40159,-13.20959 0.24593,-0.89977 0.80326,-1.18902 1.18327,-1.35776 0.38,-0.16873 0.58267,-0.21693 0.68402,-1.06062 0.32249,-2.685 -0.4305,-7.22346 -0.35466,-9.20798 0.0506,-1.32577 0.40534,-2.09711 0.81069,-2.69972 0.40533,-0.60262 0.86134,-1.03651 1.24133,-1.32576 0.38001,-0.28926 0.68402,-0.43389 0.78535,-1.27757 0.13392,-2.52092 -0.72025,-5.09556 1.36804,-6.99034 0.40533,-0.31337 0.76001,-0.5062 0.76001,-1.83199 0.0468,-3.29924 -2.13826,-6.65394 1.26668,-8.53304 0.55735,-0.36157 0.96268,-0.84365 1.16534,-2.09712 0.87709,-5.4245 -1.63879,-10.17216 1.03873,-10.17216 0.58269,0 1.24135,0.0482 1.41869,-0.79548 0.17732,-0.84368 -0.12667,-2.57918 -0.20267,-3.97726 -0.1031,-1.89545 0.39501,-5.90608 0.53201,-6.46005 0.20267,-0.81957 0.55733,-1.39807 0.73467,-2.12122 0.17733,-0.72315 0.17733,-1.5909 0.25334,-2.5792 -0.0412,-2.05453 0.96616,-3.45724 2.2547,-4.96557 0.456,-0.60263 0.65866,-1.22934 0.58267,-2.72385 -0.0761,-1.49451 -0.43067,-3.85673 -0.532,-5.88154 -0.10131,-2.02481 0.0506,-3.71211 0.0506,-5.08608 -0.35939,-3.27139 2.2301,-5.269 1.92536,0.67495 -0.22471,4.3864 4.31311,2.89793 2.73603,-2.67563 -0.35468,-1.25346 -1.06401,-2.60329 -1.62135,-3.80853 -1.40562,-3.03963 -1.23855,-3.84728 -0.43066,-4.79684 0.43067,-0.5062 1.03867,-1.03649 1.29201,-1.97659 0.25333,-0.9401 0.152,-2.28993 0.20267,-3.78445 0.25644,-7.56943 2.62461,-8.47646 3.01471,-11.281 0.22799,-1.63914 -0.0254,-4.00135 0.0506,-5.59227 0.0761,-1.59092 0.48134,-2.41046 0.93735,-3.06129 0.45602,-0.65084 0.96269,-1.13292 1.03868,-2.50691 0.076,-1.37399 -0.27866,-3.63979 -0.43066,-5.03786 -0.15201,-1.39808 -0.10132,-1.92837 0.32935,-2.14531 0.43067,-0.21694 -2.50987,-0.12052 -2.02852,-0.916 0.48133,-0.79547 0.63333,-2.48277 0.58266,-3.85675 -0.0506,-1.37398 -0.304,-2.43456 -0.32933,-3.20591 -0.0768,-2.33727 1.13851,-2.38 1.67203,-3.85676 0.27866,-0.77136 0.32933,-1.63911 0.32933,-3.23004 -0.39743,-2.93428 0.37448,-5.54442 1.24134,-8.2679 0.12666,-0.79547 -0.22799,-1.75964 -0.10131,-2.5792 0.12667,-0.81957 0.73466,-1.49449 1.01333,-2.28995 0.4846,-1.38329 3.7381,-3.68069 4.23254,-5.32714 0.20268,-0.67493 0.55734,-1.01239 0.96268,-1.18112 0.40535,-0.16874 0.86136,-0.16874 1.06403,-0.74726 0.35456,-2.92267 0.58538,-6.37332 -2.30539,-8.09916 -0.73468,-0.33747 -1.59601,-0.38568 -2.43204,0.0964 -4.13495,4.17766 -11.65803,2.67487 -17.25637,2.42933 -4.83886,-0.22984 -9.68902,-0.62264 -14.46142,-0.76611 -2.81168,-0.0845 -4.33204,0.0241 -5.75074,0.33747 -1.4187,0.31337 -2.73603,0.84366 -3.87605,0.84365 -2.75539,-2e-5 -3.16661,-2.45865 -5.19342,-3.06129 -3.25841,-0.96883 -10.98665,1.27321 -16.18823,0.72313 -1.96951,-0.0918 -2.9603,-1.53608 -4.28138,-2.69973 -0.60802,-0.45798 -1.16534,-0.5544 -1.72269,-0.77134 -0.55735,-0.21695 -1.11469,-0.55441 -2.00138,-0.77135 -0.88668,-0.21695 -2.10268,-0.31337 -3.21737,-0.55441 -5.17677,-1.11949 -10.14438,-6.41625 -12.04617,-6.01412 -0.9138,0.19323 -2.85291,3.04395 -6.32077,4.54373 -0.83602,0.36158 -1.69734,0.55441 -2.35602,1.01241 -1.06537,1.14814 -2.03043,1.94405 -3.59739,2.33815 -0.608,0.14462 -1.11467,0.28925 -1.69736,0.94009 -1.78687,3.4271 -4.74442,2.94782 -3.14137,-0.69908 0.12667,-0.67494 -0.22799,-1.54269 -0.65117,-2.02328 -0.42315,-0.4806 -0.91477,-0.57402 -1.73384,-0.92754 -5.7825,-1.79023 -5.64462,-6.28016 -2.80739,-10.40982 0.55533,-0.74997 1.2002,-1.43173 1.70179,-1.84081 1.08586,-0.60108 1.65814,-1.58617 2.34669,-2.53964 0.41202,-0.49431 0.87776,-0.8011 0.9315,-1.39767 -1.18378,-4.64327 3.83922,-6.1437 4.22762,-6.18718 0.30452,-0.0341 0.55532,0 1.02108,-0.17045 0.36868,-0.13492 1.85028,-0.80466 3.54689,-2.31806 1.87501,-1.95068 6.94918,-4.01124 9.10013,-1.49992 0.25079,0.44317 0.46575,1.05676 0.59114,1.51697 0.12541,0.46021 0.16122,0.767 0.87779,0.74996 l 12.2109,-1.09577 12.21089,0.35051 c 1.14003,0.21694 2.35603,0.36157 3.04005,0.14462 0.684,-0.21695 0.836,-0.79545 1.69735,-1.15702 0.86136,-0.36157 2.43203,-0.5062 4.8641,-0.5303 7.35898,0.55134 14.68158,-0.19693 22.01497,-0.4098 1.74803,1e-5 3.26803,0.28926 4.53471,0.40978 1.2667,0.12052 2.28003,0.0724 3.04005,0.0964 0.76001,0.0241 1.26667,0.12052 1.90002,-0.19284 z"
       id="path4" />
    <path
       style="opacity:1;fill:#e789ff;fill-opacity:1;stroke-width:25;stroke-linecap:round;stroke-linejoin:round"
       d="m 224.33174,124.73365 c -0.68056,-2.33332 -0.58984,-2.44328 1.17385,-3.95535 0.22966,-0.53589 0.4338,-1.4035 0.66347,-1.88835 0.22967,-0.48485 0.48485,-0.58692 0.89315,-1.07178 1.08162,-2.10471 2.59584,-2.54733 4.66986,-2.90908 2.39829,-1.61154 4.05214,-1.09038 6.60925,0.0255 2.4118,-0.086 3.41402,-0.0554 4.97607,1.60764 0.38278,0.33174 0.94417,0.68899 1.58213,0.91866 0.63797,0.22966 1.35247,0.33174 2.39874,0.2807 1.04627,-0.051 2.42423,-0.25518 3.57256,-0.38278 2.03705,-0.22633 8.02118,-0.69961 7.09408,1.68422 -2.51217,5.28757 -2.43118,11.22598 -2.75597,16.96975 -0.33174,5.92033 -0.68899,12.65704 -0.17861,16.68895 0.51038,4.03191 1.88834,5.35884 2.55182,7.06859 1.0748,2.70275 0.33831,5.14545 -0.74004,7.62997 -0.0193,1.60868 0.12723,2.61627 -1.17888,3.67353 -0.69407,0.50927 -1.72491,1.22155 -2.31252,2.11904 -0.58762,0.89749 -0.73197,1.98012 -1.12895,2.73798 -0.39698,0.75786 -1.04655,1.19091 -1.58789,2.23749 -0.54133,1.04658 -0.20883,3.31905 -0.49754,5.05131 -0.0892,6.4476 -3.30265,10.67087 -6.96888,15.50291 -0.86225,1.39131 -1.28754,2.08076 -1.55123,2.91035 -0.2637,0.8296 -0.36577,1.79928 -0.79959,2.82003 -0.43382,1.02074 -1.19935,2.09248 -1.76076,2.90908 -0.56141,0.81659 -0.91866,1.37798 -0.81351,3.76575 1.0754,6.68943 0.35062,12.66032 -2.14357,18.88357 -1.33004,3.32843 -2.96317,7.61542 -4.6474,11.39217 -1.68423,3.77675 -3.41944,7.04303 -4.23603,10.41148 -0.81658,3.36846 -0.71451,6.83889 -0.91867,8.9314 -0.20415,2.09251 -0.7145,2.80701 -0.96969,4.18502 -0.25518,1.37801 -0.25518,3.41944 -0.71452,6.37961 -1.79682,9.65045 -4.6876,19.06154 -7.2472,28.52949 -1.27593,4.74644 -1.99043,7.70651 -2.60287,9.9011 -0.61245,2.19459 -1.1228,3.62359 -1.1228,4.95056 0,1.32696 0.51036,2.55182 0.61243,3.92982 0.10207,1.37801 -0.20414,2.90908 -0.40829,4.64435 -0.20415,1.73526 -0.30622,3.67462 -0.86763,5.86922 -0.56141,2.1946 -1.58212,4.64431 -2.14353,7.24721 -0.56141,2.6029 -0.66348,5.35883 -0.91867,7.19616 -0.25518,1.83733 -0.66347,2.75597 -1.02073,3.41945 -0.35726,0.66348 -0.66347,1.07177 -0.9697,3.21534 -0.30622,2.14358 -0.61244,6.0223 -1.02074,9.5949 -0.4083,3.5726 -0.91865,6.83888 -1.63318,9.90111 -0.71452,3.06223 -1.63316,5.92022 -3.01117,7.91066 -1.378,1.99045 -3.21529,3.11323 -4.59329,4.0319 -1.378,0.91867 -2.29664,1.63317 -3.01116,2.0925 -0.71452,0.45933 -1.22487,0.66347 -1.58213,1.53111 -0.35726,0.86764 -0.5614,2.39871 -0.7763,4.15796 -1.84492,15.10386 -21.6554,20.92226 -29.32033,8.94578 -0.57742,-0.90222 -0.79394,-1.62397 -1.08265,-2.45401 -0.28871,-0.83005 -0.64959,-1.76833 -1.15483,-2.09312 -0.50525,-0.32479 -1.15482,-0.0361 -2.88709,0.25262 -8.88128,2.16476 -16.26475,-0.79663 -16.49236,-10.89872 0.0361,-2.02097 0.46914,-4.11405 0.68567,-6.27938 0.79557,-8.40893 1.44974,-16.9813 -0.25262,-25.22578 -2.36425,-11.44994 0.1196,-23.50436 -0.18044,-34.06742 -0.0243,-0.85521 -1.87659,2.12922 -2.52619,1.87661 -0.6496,-0.25262 -1.227,0.0361 -1.76833,0.9744 -0.54134,0.93831 -1.04656,2.52617 -2.02096,3.86145 -0.9744,1.33528 -2.41791,2.41791 -3.35621,3.50058 -1.93447,2.2321 -1.94542,5.02851 -2.99534,7.28984 -0.46915,1.01048 -1.04656,1.51571 -1.40744,2.74274 -0.36089,1.22702 -0.50524,3.17575 -0.9383,4.47494 -0.43307,1.29919 -1.15483,1.94877 -2.02096,2.8149 -0.86613,0.86613 -1.87658,1.94876 -2.70662,3.4284 -0.83004,1.47965 -1.47962,3.3562 -2.34575,5.70197 -2.66059,8.25934 -6.2608,12.07375 -10.8626,23.85442 -0.90222,2.30967 -1.40744,3.82535 -1.84051,4.79974 -0.43306,0.97439 -0.79394,1.40744 -1.04656,1.76833 -0.67682,1.666 -2.2496,2.69258 -3.21171,4.0824 -0.072,0.47357 0.43351,1.0598 0.91595,1.8633 5.16334,8.5995 0.86926,12.4667 -1.58456,11.11289 -0.74004,-0.4083 -1.55661,-0.51037 -3.142109,0.21019 -3.9568,1.79822 -9.722456,6.80792 -13.223165,8.2457 -2.020965,0.83003 -3.608823,0.68568 -5.341084,0.9744 -1.732262,0.28871 -3.608822,1.01046 -5.304991,1.44353 -1.696168,0.43306 -3.21185,0.57741 -4.474954,1.04657 -1.263103,0.46916 -2.273554,1.26308 -3.211863,1.69615 -0.93831,0.43306 -1.804411,0.50523 -2.923165,0.72177 -1.118754,0.21653 -2.490086,0.57741 -3.464478,1.01047 -0.974393,0.43307 -1.551797,0.9383 -2.165304,1.37136 -0.613508,0.43306 -1.263087,0.79394 -2.09313,0.79393 -0.830042,0 -1.851435,-0.5144 -2.923158,-0.36087 -2.164355,0.31006 -4.393682,-0.11727 -6.162683,-1.2024 -3.566032,-2.06271 -3.257266,-5.47849 -3.436825,-8.97455 -0.444649,-2.57809 -1.330921,-4.6462 0.613522,-6.67634 0.902224,-0.90223 2.273554,-2.27356 2.70661,-3.50058 -0.58871,-3.13868 1.80266,-4.7145 2.526191,-7.61464 0.476083,-3.17004 0.885792,-6.24878 2.454012,-9.09427 0.433064,-0.75786 0.793942,-1.40744 1.154829,-2.5262 0.775885,-3.57073 1.871444,-6.76377 4.010856,-9.75058 0.383824,-0.64444 0.527118,-1.3592 0.525134,-2.23302 -0.336245,-1.90129 0.303975,-3.19118 1.234606,-4.75129 0.306222,-0.689 0.306222,-1.50557 0.689003,-2.06698 0.382782,-0.56141 1.148319,-0.86762 1.709726,-1.68422 0.561407,-0.8166 0.918655,-2.14352 1.403511,-3.26634 0.484856,-1.12282 1.097283,-2.04146 1.344936,-2.91203 0.247652,-0.87057 0.130522,-1.69302 0.731173,-3.24604 1.984151,-3.47738 3.068762,-7.15993 3.977327,-11.01372 0.396978,-1.47964 1.046553,-2.77879 1.226994,-3.93363 0.276762,-1.7713 -0.668055,-3.62646 0.757867,-5.05237 0.433065,-0.43306 0.938292,-0.57741 1.263089,-1.84053 0.658299,-2.56009 0.389989,-7.23146 0.866126,-8.04768 0.252625,-0.43307 0.757849,-0.50524 1.082645,-1.26311 0.574534,-1.3406 0.733363,-5.89023 1.840515,-7.86726 0.505243,-0.90221 1.154821,-1.04656 1.371348,-1.80443 0.216528,-0.75787 2e-6,-2.1292 0.18045,-3.03141 0.180449,-0.90222 0.757851,-1.33527 1.190914,-2.09314 0.433063,-0.75786 0.721765,-1.84049 0.938297,-2.85098 1.272292,-5.93735 1.269358,-2.44215 1.876592,-5.37717 0.21653,-1.04658 0.07218,-2.41791 0.324804,-3.42839 0.706838,-2.82731 2.849175,-0.83726 2.879388,-1.32045 -1.390374,-3.73199 -0.511184,-5.88094 1.292666,-8.99741 0.357257,-0.84212 0.408292,-2.06697 0.433811,-3.03668 -0.235883,-1.73584 0.667369,-2.2065 1.658695,-3.31738 1.455108,-2.54649 -0.612259,-4.81526 1.709724,-5.89475 0.331738,-0.63797 0.484845,-2.42422 0.816588,-3.70015 0.331743,-1.27592 0.842102,-2.04146 1.199362,-2.27112 0.35726,-0.22966 0.5614,0.0765 0.561398,-0.56143 -0.26535,-2.37586 -0.158995,-4.56833 1.199372,-6.58371 0.586928,-0.74004 1.250391,-1.19936 1.556611,-1.96492 0.306219,-0.76556 0.255184,-1.83731 0.331741,-3.26636 0.316573,-5.90904 1.606269,-3.0714 1.888352,-4.15949 0.178626,-0.68902 -0.07655,-2.83251 0.20416,-4.31258 0.280711,-1.48008 1.097281,-2.29665 1.531092,-3.16428 0.544652,-2.1485 1.352912,-4.18873 2.169052,-6.25199 0.4083,-1.0973 0.61244,-2.06698 0.66348,-2.7815 -0.60443,-4.35501 -1.20225,-7.69346 1.5311,-11.53429 0.25518,-0.56141 0.20415,-1.37799 0.33174,-2.62841 0.11595,-2.68945 1.25627,-5.06662 2.24561,-7.50237 0.10382,-3.15192 1.37303,-5.38378 3.16428,-7.75759 0.43381,-0.74004 0.63795,-1.86282 1.378,-2.67941 0.74005,-0.8166 2.01594,-1.32695 2.85805,-2.756 0.84211,-1.42905 1.2504,-3.77669 1.48006,-5.5885 -0.12823,-2.61221 0.97543,-4.37535 2.16906,-6.50719 0.80974,-2.16649 1.22551,-4.45648 1.83732,-6.6858 0.20415,-0.76556 0.40829,-1.63316 0.53588,-2.19456 0.084,-0.36939 0.42935,-2.0652 0.051,-3.47051 -0.17864,-0.66348 -0.53589,-1.1228 -0.94418,-1.4035 -1.27091,-0.51825 -1.93365,-1.40569 -2.47527,-2.6284 -0.23176,-1.97117 -1.42512,-3.23294 -2.75599,-4.5933 -5.3754,-7.69368 8.21837,-16.36628 13.16748,-20.28708 1.70975,-1.30145 3.496,-2.3732 5.30782,-3.8788 1.81182,-1.5056 3.6491,-3.44495 5.28229,-5.30781 6.60819,-8.30416 13.04763,-15.35178 19.3429,-1.76072 1.07178,2.34771 2.14353,5.00157 3.11324,7.09408 2.27299,4.9049 3.44772,5.63121 4.72088,6.14992 0.68901,0.2807 1.40351,0.48484 2.19458,0.20413 3.94762,-2.64522 9.43533,1.6347 8.3445,6.14995 -0.10206,1.2249 0.86762,3.3684 1.35247,4.87399 0.48485,1.50559 0.48485,2.3732 1.14834,3.90432 3.52739,5.16723 5.25748,10.21541 5.81818,16.15311 0.25519,1.25041 1.32694,2.78148 1.76075,4.31259 0.43381,1.53112 0.22967,3.06219 0.63797,4.89953 1.71414,4.16252 2.18779,8.30671 2.14353,12.75916 0,2.04149 0.15311,3.82774 0.22967,4.89951 0.0765,1.07178 0.0765,1.42903 0.30622,2.37322 1.41893,3.48027 1.19519,7.05041 1.32697,10.69218 0.0766,1.22489 0.33174,2.39872 0.35725,3.4705 0.0255,1.07178 -0.17862,2.04145 -0.22966,2.9346 -0.14978,2.62311 1.09668,3.29226 1.48006,3.03667 0.30622,-0.20415 0.4083,-0.96969 0.71452,-1.88836 0.30623,-0.91867 0.81658,-1.99042 1.22488,-3.77673 0.98015,-4.28817 0.98824,-9.79613 1.55662,-11.15148 0.33175,-0.79107 0.89314,-0.58693 1.42903,-0.99523 0.53589,-0.40831 1.04624,-1.42902 1.22487,-2.70496 0.17863,-1.27593 0.0255,-2.807 0.17863,-3.92981 0.15312,-1.12281 0.61244,-1.83731 0.8421,-2.75599 0.25845,-3.21682 2.13378,-5.82039 3.4705,-8.65071 0.88574,-2.11809 0.0669,-3.35605 1.55662,-6.58373 0.45934,-0.99522 0.9697,-1.65869 1.53111,-2.93463 0.5614,-1.27593 1.17383,-3.16425 1.8118,-4.61881 0.63796,-1.45455 1.30143,-2.47526 1.73524,-3.59808 0.43382,-1.12282 0.63796,-2.34768 0.91867,-3.54705 0.2807,-1.19937 0.63795,-2.3732 1.04625,-3.90431 0.4083,-1.53112 0.86762,-3.41944 1.50559,-5.33333 1.53363,-4.60093 1.04729,-1.99028 3.64911,-10.53907 0.35726,-1.17385 0.5614,-1.73524 0.66348,-2.29665 0.10207,-0.56141 0.10207,-1.1228 0.38278,-1.4035 0.2807,-0.2807 0.8421,-0.2807 1.50558,-1.42905 0.66348,-1.14835 1.42902,-3.44496 1.86283,-5.12918 0.43382,-1.68422 0.53589,-2.75597 1.07178,-4.18502 0.5359,-1.42904 1.50557,-3.21529 2.04146,-4.28706 0.53588,-1.07177 0.63796,-1.42902 0.74003,-2.06699 0.10208,-0.63797 0.20415,-1.55661 0.33174,-2.52631 z"
       id="path6" />
    <path
       style="opacity:1;fill:#f3d8d8;fill-opacity:1;stroke-width:25;stroke-linecap:round;stroke-linejoin:round"
       d="m 226.56769,123.66248 c 6.31224,-5.71976 13.13558,-6.43448 21.17908,-4.02948 17.82462,1.45361 35.97984,-0.50055 53.84387,-1.24505 3.4284,-0.12631 4.22233,-0.0902 4.79975,-0.25263 0.57742,-0.1624 0.93829,-0.52328 1.71421,-1.06461 0.77591,-0.54133 1.9668,-1.26308 3.55471,-1.71419 1.58791,-0.45111 3.57273,-0.63155 10.26724,-0.9383 6.69451,-0.30676 18.09821,-0.73981 29.06919,-0.99243 10.97097,-0.25262 21.50856,-0.32479 26.84964,-0.21653 5.34109,0.10827 5.48544,0.39697 5.84633,0.57742 0.36089,0.18044 1.53375,-0.50525 2.61642,-0.68566 10.78794,-0.11927 21.59332,-0.27379 32.38933,-0.32482 4.6762,0.0984 9.68139,-0.91381 13.82183,1.69616 0.68568,0.43306 1.04656,0.57741 1.91269,0.18043 4.04872,-2.99709 6.71882,-0.40381 10.53782,0.97439 1.22702,0.36089 3.10358,0.50524 4.22233,0.90222 1.11874,0.39698 1.47962,1.04656 2.56228,1.40744 9.87826,1.77593 15.08171,8.55398 15.62626,17.89986 0.18045,2.2375 0.68568,4.54712 0.36087,7.1816 -0.3848,3.12101 -5.67143,19.81316 -15.33758,27.57151 -2.74275,2.2014 -5.62976,3.50056 -7.54246,4.51104 -1.91269,1.01048 -2.85097,1.73223 -5.99071,2.09312 -0.58838,0.0676 -41.02489,1.95956 -51.53417,0.32479 -1.624,-0.25262 -3.0675,-0.54132 -3.75318,2e-5 -0.68568,0.54134 -0.61351,1.91267 -0.59546,2.74271 0.018,0.83003 -0.018,1.11873 0.0902,1.82247 0.27729,1.61145 0.84385,3.34367 -0.16241,4.69147 -0.4872,0.16239 -1.31721,-0.30675 -1.66005,0.41504 -0.34284,0.72179 -0.19849,2.63443 0.0902,3.82535 0.28871,1.19092 0.72177,1.66006 1.51572,2.12922 0.79396,0.46915 1.94876,0.93829 2.76004,1.87027 3.46054,3.97543 -2.54579,17.35301 -3.48456,18.77736 -0.74004,1.12281 -1.35247,1.37799 -1.63317,1.88836 -0.2807,0.51037 -0.28363,1.28327 -0.0401,2.86746 2.15637,14.02748 -0.31269,15.37509 -3.80947,32.08534 -0.28913,1.38169 -0.32479,2.27357 -0.32479,3.17579 1e-5,0.90222 0.21653,1.8405 0.68569,2.02093 0.46916,0.18043 1.4526,-0.55237 1.73224,0.21656 2.20678,6.0681 -0.96676,14.21892 -5.55762,17.89983 -0.84373,0.6765 -0.6135,1.98485 -0.75785,3.13969 -0.14436,1.15484 -0.28871,2.454 -0.75786,3.17577 -0.46916,0.72177 -1.26309,0.86612 -1.76833,2.30968 -0.6555,8.28273 -4.10993,16.03908 -4.2026,24.36254 -0.0255,1.27593 -0.12759,2.34768 -0.45933,2.5263 -0.33174,0.17862 -0.89314,-0.53588 -1.42902,-0.3062 -0.53589,0.22967 -1.04625,1.40349 -1.09728,2.65391 0.6348,4.47712 0.19943,8.33536 -2.85806,11.81497 -0.51037,0.61245 -0.66348,1.02074 -0.43381,1.48008 2.52911,3.76411 0.13475,8.22069 -0.35726,12.19779 0.0333,3.7758 0.24119,7.36983 -1.68422,10.71768 -0.63796,1.12282 -1.25039,2.39871 -1.48005,3.64913 -0.22967,1.25041 -0.0766,2.47526 0.22966,3.64912 0.30623,1.17385 0.76555,2.29664 0.76555,3.41945 -1e-5,1.12282 -0.45933,2.24561 -0.99522,2.62838 -0.53589,0.38277 -1.14832,0.0255 -1.55661,-0.051 -0.4083,-0.0765 -0.61244,0.12759 -0.5614,1.25042 1.79832,14.38603 -3.64201,20.23612 -0.94417,25.39074 0.48485,0.68901 1.35246,1.50558 1.25038,1.93939 -0.10209,0.43381 -1.17384,0.48484 -1.73524,0.81659 -0.56141,0.33175 -0.61244,0.94417 -0.79108,1.83733 -0.81456,4.07282 -1.94257,3.35301 -1.5566,3.67462 0.15312,0.1276 0.91865,0.22967 1.50558,0.74004 1.96759,1.711 1.44335,10.52474 -0.2552,12.22329 -0.53589,0.53588 -1.19935,0.68899 -1.42902,1.04625 -0.52376,0.81477 1.20837,3.14331 -3.68934,5.9975 -0.70359,0.41004 -1.06447,0.55439 -1.38926,1.11377 -0.68974,1.88875 -1.55254,2.16961 -3.42841,1.93073 -0.79395,-0.0722 -1.5157,0.0361 -1.94876,0.23458 -0.43307,0.19849 -0.57742,0.48719 -0.86613,0.97439 -0.28871,0.4872 -0.72176,1.17286 -1.10069,1.33526 -0.37893,0.16239 -0.70372,-0.19848 -1.13679,-0.75786 -0.43307,-0.55938 -0.97438,-1.31722 -1.66007,-1.53375 -3.03162,0.44838 -5.20771,-0.37437 -6.87484,-2.72467 -0.37893,-0.27067 -1.06459,-0.23458 -1.3533,0.21653 -0.39237,2.36472 -1.54746,4.40686 -4.09604,4.90801 -0.59546,-0.0902 -0.99242,-0.81198 -1.31722,-1.3894 -0.3248,-0.57742 -0.57741,-1.01047 -0.97439,-1.35331 -0.99109,-0.54195 -1.45501,-1.29082 -1.87659,-2.29162 -23.1055,6.52145 -29.29695,-9.98301 -30.34878,-13.55013 -1.15216,-3.90738 -1.23326,-7.71595 -1.96491,-9.49281 -0.35726,-0.86763 -0.91866,-1.53109 -0.81658,-2.78151 1.58025,-5.1681 0.7575,-10.48158 0.76555,-15.77031 0.051,-2.27114 0.61244,-2.52632 1.12281,-2.83254 0.51037,-0.30623 0.96969,-0.66348 1.32695,-1.9139 0.87964,-3.07875 0.69922,-8.1761 1.14833,-9.03346 0.28071,-0.53589 0.8421,-0.1276 1.1228,-1.99048 0.2807,-1.86288 0.2807,-5.99677 0.57678,-8.5913 0.29609,-2.59452 0.88823,-3.64955 1.1843,-4.7906 0.29608,-1.14104 0.29608,-2.36802 0.51262,-4.85815 0.88449,-10.17185 2.12365,-11.20435 2.52618,-13.56922 0.28871,-1.69618 0.28871,-4.15015 0.50524,-5.62978 0.21654,-1.47962 0.64959,-1.98485 0.9383,-3.71712 0.28871,-1.73227 0.43306,-4.69146 0.75786,-6.60416 0.3248,-1.91269 0.83003,-2.77879 1.19091,-5.0524 0.099,-4.96697 1.53285,-9.574 2.8149,-14.29098 0.43306,-1.91271 0.50523,-4.36668 0.83003,-5.81022 0.3248,-1.44354 0.90221,-1.87659 1.04656,-2.92317 0.14435,-1.04658 -0.14435,-2.70661 -0.0361,-4.51105 0.19303,-3.21711 1.5408,-6.50221 1.8405,-8.30032 0.14435,-0.86613 0.14435,-1.73223 0.39697,-2.38183 0.25263,-0.64959 0.75786,-1.08264 1.19092,-1.66006 0.43306,-0.57742 0.85758,-1.30756 0.72176,-2.09313 -0.32495,-1.87946 -1.35318,-4.73466 -1.8041,-7.42012 -0.77936,-3.75361 0.23716,-6.29229 3.89724,-6.54608 0.64959,-0.25263 1.01047,-0.90221 0.93829,-1.98488 -0.091,-1.36393 -1.54868,-5.54892 -0.83003,-10.68215 0.55723,-3.98008 1.82003,-3.78043 2.34575,-5.305 0.36088,-1.04659 0.72176,-3.13967 0.9022,-5.08846 -0.0709,-3.21329 0.6779,-6.25019 1.37137,-9.3469 0.41976,-2.89092 0.77527,-5.74905 1.8405,-8.48076 1.76293,-4.05667 0.69472,-9.43497 1.51572,-11.69262 0.28871,-0.79394 0.79393,-0.64959 1.04655,-0.83004 0.49232,-0.35167 -0.21773,-4.92782 -1.98487,-5.08845 -0.79396,-0.0722 -2.09311,1.15482 -2.95924,1.33526 -0.86613,0.18044 -1.29918,0.18044 -2.12923,-0.25263 -0.83004,-0.43307 -1.87375,-1.55038 -3.96973,-2.88708 -8.50335,-5.42296 -6.63372,-7.23733 -6.53701,-15.67384 0.0117,-1.02195 -0.15311,-1.78628 -1.30145,-1.93939 -1.14835,-0.1531 -3.34288,0.30622 -5.92026,0.48485 -5.50541,0.81654 -10.51879,-1.42582 -15.74482,-2.57735 -2.55186,-0.51037 -5.30778,-0.51037 -7.29823,-0.45933 -6.5121,0.73774 -12.34566,-1.81422 -18.22009,-4.23605 -2.04149,-0.81659 -3.47049,-1.22488 -4.79745,-1.83733 -1.32697,-0.61244 -2.55182,-1.42901 -3.47049,-1.83731 -0.91867,-0.40829 -1.53109,-0.40829 -2.55184,0.20416 -0.96172,0.57704 -9.35355,7.21466 -9.79904,7.60446 -1.22488,1.07178 -1.32695,1.48006 -1.9394,1.12279 -0.61245,-0.35727 -1.73523,-1.48005 -2.90908,-2.39872 -1.17386,-0.91866 -2.39872,-1.63316 -3.8788,-2.0925 -1.48008,-0.45933 -3.21529,-0.66347 -5.05263,-1.68423 -1.83734,-1.02075 -3.7767,-2.85803 -5.66507,-4.33811 -1.88838,-1.48007 -3.72566,-2.60285 -4.84848,-3.72567 -3.93941,-3.93944 4.08946,-23.78793 11.63638,-29.44816 1.42904,-1.07177 2.34768,-1.27591 3.41571,-1.72646 1.06804,-0.45055 2.2854,-1.14747 3.79631,-2.2538 z"
       id="path1" />
    <path
       style="opacity:1;fill:#ff764d;fill-opacity:1;stroke-width:25;stroke-linecap:round;stroke-linejoin:round"
       d="m 311.24721,128.02552 c 0.63796,-0.33174 1.40351,-1.09729 1.9394,-1.88836 0.53588,-0.79108 0.8421,-1.60765 1.27591,-2.0925 0.43382,-0.48485 0.99522,-0.63796 2.29667,-0.58692 1.30146,0.051 3.34288,0.30622 7.42588,0.40829 8.82813,0.22069 46.17059,-0.23821 55.19613,0.0255 4.36366,0.1276 6.40508,0.43381 7.62996,0.5614 1.22489,0.12759 1.63318,0.0766 2.29667,-0.20415 0.66348,-0.28071 1.58212,-0.79106 2.93461,-1.30143 12.61616,-2.64952 36.45365,-0.38879 36.4657,-0.38277 0.66349,0.33174 1.48006,0.89314 3.0367,1.19936 5.47518,1.07708 9.9701,-0.88017 14.69855,1.04621 0.68899,0.2807 1.04624,0.43381 1.60766,0.63796 19.96455,5.63253 6.41864,31.97755 -5.13831,38.82616 -1.84394,1.42377 -3.50388,2.19955 -5.84634,2.02094 -5.2662,-0.72028 -10.98421,-1.28081 -15.98714,0.93831 -1.227,0.6496 -1.87659,1.58788 -2.95925,1.76832 -1.08267,0.18043 -2.59835,-0.39697 -6.27943,-0.64958 -13.56012,0.26699 -35.80875,-2.34812 -41.21288,0.10826 -0.79394,0.36089 -1.01047,0.72177 -1.11874,1.37137 -0.19324,1.15954 -0.0538,3.74694 -0.14436,5.5576 -0.0361,0.72178 -0.10826,1.01047 0.37894,1.28114 3.31742,1.13981 4.52406,4.44466 3.84344,7.74095 -0.21653,0.6496 -0.57741,0.68568 -0.9383,0.99244 -0.36088,0.30676 -0.72176,0.88416 -0.84807,1.51571 -0.0574,1.32986 -0.11888,1.99451 -1.5518,1.89463 -0.4872,-0.10826 -0.88417,-0.32479 -1.06461,0.46917 -0.14017,1.75917 -0.49154,3.89983 0.68567,5.34107 0.43307,0.36089 1.11873,0.79394 1.55179,1.19092 0.43307,0.39697 0.61351,0.75785 1.15484,1.11874 6.45203,2.9393 3.63431,8.29654 2.88704,8.87774 -0.6496,0.50524 -1.62397,0.57741 -2.39987,0.73981 -0.77591,0.1624 -1.35331,0.41501 -1.51345,1.14351 0.10926,2.25059 -0.46176,3.10201 -2.37637,4.13238 -0.58693,0.38278 -0.689,0.8421 -0.0255,2.09252 4.21876,7.82452 0.5466,17.04423 -1.02075,25.26315 -0.35726,1.70974 -0.81658,2.98563 -0.74002,4.41467 0.76343,2.98938 0.56817,4.71706 -1.22489,7.14513 -0.58693,0.91867 -0.79107,1.93939 -1.25041,2.93461 -0.45934,0.99522 -1.17383,1.9649 -1.25038,2.44975 -0.0766,0.48485 0.48484,0.48485 1.30144,0.91867 4.86904,2.99451 4.13451,6.72335 0.63794,9.95215 -0.53589,0.58693 -0.63796,1.14832 -1.12281,1.35246 -0.48486,0.20415 -1.35246,0.051 -1.88835,0.15312 -0.53589,0.10208 -0.74004,0.45933 -0.45185,1.22257 1.71847,3.0092 1.73104,6.13267 -1.32659,8.11791 -0.43307,0.3248 -0.57742,0.68568 -0.57742,1.80444 0.6935,4.76978 0.0447,7.59369 -3.35621,10.93477 -0.18045,0.36089 -0.10827,0.93829 0.25262,1.80442 1.2107,2.00561 1.02494,3.22197 0.0361,5.16064 -0.32479,0.83004 -0.32479,1.91267 -0.50524,2.7788 -0.57465,2.56417 -2.68804,3.89875 -4.72758,5.23282 -0.50524,0.39697 -0.72176,0.83002 -0.46913,2.34576 0.72271,4.35147 3.44116,11.34879 -1.29921,14.2549 -0.90222,0.54133 -1.98485,1.26308 -2.27355,1.87659 -0.2887,0.61351 0.21653,1.11874 0.75786,1.84051 1.48606,2.33335 4.8628,5.19443 1.1909,7.03723 -0.64959,0.3248 -1.15482,0.75785 -1.33526,1.15482 -0.18044,0.39698 -0.0361,0.75786 0.21653,1.19093 1.71377,2.51091 2.0091,4.50071 0.0361,6.78462 -0.72177,0.93832 -1.5157,2.454 -1.8044,3.82537 -0.85745,4.07288 2.34103,4.84093 -0.0722,8.30033 -0.50525,0.79395 -1.01047,1.94876 -1.26309,2.70662 -0.25262,0.75786 -0.25262,1.11873 -0.25262,1.62398 0,0.50524 0,1.15482 -0.25262,1.66006 -0.25263,0.50524 -0.75786,0.86612 -1.01047,1.44354 -1.74507,3.98877 3.98824,5.46278 0.6857,12.37832 -0.72178,1.40746 -1.58789,2.63444 -1.66006,4.07799 1.40732,6.22556 -1.12212,6.84155 -1.51572,11.36783 -0.41654,2.24523 0.0437,4.61564 -0.72177,6.78462 -0.50525,1.04657 -1.58788,1.62397 -1.8405,2.09312 -0.25261,0.46915 0.3248,0.83003 1.11875,1.2631 5.98529,3.26471 1.82925,7.99387 1.04654,8.80557 -5.93949,6.15942 -11.19402,-0.81255 -11.44,-1.33529 -0.28871,-0.61351 -0.36088,-1.26309 -0.83004,-1.5518 -0.46916,-0.2887 -1.33527,-0.21653 -2.67056,-0.0722 -1.33528,0.14435 -3.13967,0.36088 -4.40277,0.46915 -1.2631,0.10826 -1.98485,0.10826 -2.38182,0.57742 -0.39698,0.46916 -0.46915,1.40744 -1.08267,1.8405 -0.61351,0.43306 -1.76832,0.36089 -3.28405,0.0722 -1.51573,-0.28871 -3.39229,-0.79394 -5.16064,-0.83002 -5.97906,0.77295 -10.65985,-0.92974 -13.02788,-6.82072 -0.50524,-1.44355 -0.50524,-2.52618 -1.08267,-3.78928 -3.26477,-6.03281 -2.90829,-14.15946 -0.45108,-20.51624 0.45111,-0.92026 0.95633,-1.20895 1.24504,-1.66007 0.28871,-0.45111 0.36088,-1.0646 0.36088,-2.07509 -0.0574,-1.66436 -0.28847,-3.19165 1.01045,-4.34864 1.68675,-1.77112 0.65746,-6.64219 1.42549,-9.50928 0.27067,-1.01047 0.73981,-0.90221 1.08266,-0.84808 0.34284,0.0541 0.55936,0.0541 0.70371,-1.91273 0.38895,-5.29923 0.0135,-12.48108 0.40452,-13.98428 0.24773,-0.95254 0.80912,-1.25875 1.1919,-1.43738 0.38277,-0.17863 0.58692,-0.22966 0.689,-1.12283 0.32484,-2.84246 -0.43364,-7.64708 -0.35724,-9.74799 0.051,-1.40352 0.40829,-2.22009 0.81659,-2.85805 0.40829,-0.63796 0.86762,-1.09729 1.25039,-1.40351 0.38278,-0.30622 0.689,-0.45933 0.79107,-1.35249 0.1349,-2.66876 -0.7255,-5.39439 1.37801,-7.4003 0.40829,-0.33174 0.76554,-0.53588 0.76554,-1.93942 0.0472,-3.49273 -2.15384,-7.04417 1.27592,-9.03347 0.56141,-0.38278 0.9697,-0.89313 1.17384,-2.22011 0.88347,-5.74263 -1.65074,-10.76872 1.0463,-10.76872 0.58693,0 1.25039,0.051 1.42902,-0.84213 0.17862,-0.89316 -0.12759,-2.73044 -0.20414,-4.21051 -0.10385,-2.00661 0.39789,-6.25245 0.53588,-6.83891 0.20415,-0.86763 0.5614,-1.48006 0.74003,-2.24562 0.17863,-0.76556 0.17863,-1.6842 0.25519,-2.73046 -0.0415,-2.17502 0.97319,-3.65999 2.27113,-5.25678 0.45933,-0.63797 0.66347,-1.30143 0.58692,-2.88359 -0.0766,-1.58216 -0.43381,-4.08291 -0.53588,-6.22647 -0.10208,-2.14356 0.051,-3.92981 0.051,-5.38436 -0.36201,-3.46324 2.24636,-5.578 1.93939,0.71453 -0.22635,4.64365 4.34455,3.06789 2.75598,-2.83254 -0.35727,-1.32697 -1.07177,-2.75596 -1.63317,-4.03189 -1.41587,-3.21789 -1.24758,-4.0729 -0.4338,-5.07815 0.43381,-0.53589 1.04624,-1.09728 1.30142,-2.09251 0.25518,-0.99523 0.15311,-2.42423 0.20415,-4.00639 0.25831,-8.01335 2.64374,-8.97357 3.03668,-11.94259 0.22966,-1.73527 -0.0255,-4.23601 0.051,-5.92023 0.0766,-1.68422 0.48485,-2.55183 0.94418,-3.24083 0.45934,-0.689 0.9697,-1.19936 1.04625,-2.65392 0.0765,-1.45457 -0.2807,-3.85325 -0.43381,-5.33332 -0.15311,-1.48007 -0.10208,-2.04146 0.33175,-2.27112 0.43382,-0.22966 1.25039,-0.12759 1.73524,-0.96972 0.48484,-0.84212 0.63795,-2.62837 0.58691,-4.08293 -0.051,-1.45456 -0.30622,-2.57734 -0.33173,-3.39393 -0.0773,-2.47434 1.14681,-2.51957 1.68421,-4.08294 0.2807,-0.8166 0.33173,-1.73524 0.33173,-3.41947 -0.40032,-3.10636 0.37722,-5.86958 1.2504,-8.75278 0.12758,-0.84212 -0.22966,-1.86283 -0.10206,-2.73046 0.1276,-0.86763 0.74002,-1.58213 1.02072,-2.42424 0.48813,-1.46442 -0.0132,-3.89655 0.48485,-5.63956 0.20415,-0.71451 0.5614,-1.07176 0.9697,-1.25039 0.4083,-0.17863 0.86763,-0.17863 1.07178,-0.79108 0.35715,-3.09407 0.58965,-6.74709 -2.32219,-8.57415 -0.74004,-0.35726 -1.60764,-0.40829 -2.44976,0.10208 -4.1651,4.42266 -11.743,2.83174 -17.38215,2.5718 -4.87413,-0.24332 -9.75964,-0.65916 -14.56682,-0.81104 -2.83217,-0.0895 -4.36362,0.0255 -5.79266,0.35726 -1.42904,0.33175 -2.75597,0.89314 -3.9043,0.89313 -2.77547,-2e-5 -3.18969,-2.60284 -5.23127,-3.24082 -3.28216,-1.02565 -11.06673,1.34788 -16.30621,0.76554 -1.98388,-0.0972 -2.98189,-1.62617 -4.3126,-2.85806 -0.61244,-0.48484 -1.17383,-0.58692 -1.73524,-0.81658 -0.56141,-0.22967 -1.12281,-0.58692 -2.01596,-0.81659 -0.89315,-0.22967 -2.11801,-0.33174 -3.24083,-0.58692 -5.2145,-1.18514 -10.21832,-6.79254 -12.13396,-6.36682 -0.92046,0.20456 -2.8737,3.22246 -6.36684,4.8102 -0.84211,0.38278 -1.70971,0.58692 -2.37319,1.07178 -1.07313,1.21547 -2.04524,2.05806 -3.62361,2.47527 -0.61244,0.15311 -1.1228,0.30622 -1.70973,0.99523 -1.7999,3.62808 -4.779,3.1207 -3.16427,-0.74008 0.12759,-0.71452 -0.22966,-1.63316 -0.65591,-2.14194 -0.42624,-0.50878 -0.92145,-0.60768 -1.74648,-0.98193 -5.82465,-1.89523 -5.68576,-6.64847 -2.82786,-11.02032 0.55938,-0.79395 1.20896,-1.5157 1.7142,-1.94877 1.09377,-0.63633 1.67022,-1.67919 2.36379,-2.68858 0.41502,-0.52329 0.88416,-0.84808 0.93829,-1.47963 -1.19241,-4.91558 3.8672,-6.50401 4.25843,-6.55004 0.30675,-0.0361 0.55937,0 1.02853,-0.18044 0.37136,-0.14284 1.86376,-0.85185 3.57274,-2.45401 1.88867,-2.06508 6.99982,-4.24648 9.16645,-1.58788 0.25263,0.46916 0.46915,1.11873 0.59546,1.60593 0.12631,0.4872 0.16239,0.81198 0.88418,0.79394 l 12.2999,-1.16003 12.29989,0.37107 c 1.14834,0.22966 2.3732,0.38277 3.0622,0.1531 0.68899,-0.22967 0.8421,-0.8421 1.70973,-1.22488 0.86764,-0.38277 2.44975,-0.53588 4.89955,-0.5614 7.41261,0.58368 14.78858,-0.20848 22.17542,-0.43383 1.76078,1e-5 3.29185,0.30622 4.56777,0.43381 1.27593,0.12759 2.29664,0.0766 3.0622,0.10208 0.76555,0.0255 1.27591,0.12759 1.91387,-0.20415 z"
       id="path2" />
    <path
       style="opacity:1;fill:#ff764d;fill-opacity:1;stroke-width:25;stroke-linecap:round;stroke-linejoin:round"
       d="m 323.7512,174.54551 c 0.0206,0.85756 0.81656,1.27591 0.72726,2.29666 -0.41325,4.7237 -3.33127,7.1303 -6.43816,7.2707 -5.43104,0.24543 -8.85759,-6.30703 -7.20138,-8.63595 0.4083,-0.57417 0.99521,-0.98245 1.22487,-1.93941 0.18576,-3.17076 0.0887,-5.45539 3.70017,-5.60126 0.79108,-0.0255 1.63317,-0.0766 2.0925,-0.3445 0.45933,-0.26794 0.53589,-0.75278 0.80383,-1.07176 1.4938,-1.77829 5.03346,5.63791 5.09091,8.02552 z"
       id="path3" />
    <g
       id="g15"
       style="fill:#f3d8d8;fill-opacity:1">
      <path
         style="opacity:1;fill:#f3d8d8;fill-opacity:1;stroke-width:25;stroke-linecap:round;stroke-linejoin:round"
         d="m 194.22769,242.67634 c 0.39697,0.41502 0.68567,1.53376 0.61349,2.3638 -0.0722,0.83003 -0.50523,1.37135 -1.31723,1.3533 -0.812,-0.018 -2.00289,-0.59545 -2.11114,-1.04656 -0.10826,-0.45111 0.8661,-0.7759 1.28112,-1.17287 0.41501,-0.39698 0.27066,-0.86612 0.45111,-1.24505 0.18045,-0.37893 0.68567,-0.66763 1.08265,-0.25262 z"
         id="path8" />
      <path
         style="opacity:1;fill:#f3d8d8;fill-opacity:1;stroke-width:25;stroke-linecap:round;stroke-linejoin:round"
         d="m 73.952153,396.6571 c 0.408297,0 0.969699,0.40829 1.071767,1.04626 0.102068,0.63797 -0.255179,1.50557 -0.663479,1.76075 -0.4083,0.25518 -0.867621,-0.10207 -1.097285,-0.53588 -0.229663,-0.43382 -0.229663,-0.94418 -0.102069,-1.40352 0.127594,-0.45933 0.38277,-0.86761 0.791066,-0.86761 z"
         id="path9" />
      <path
         style="opacity:1;fill:#f3d8d8;fill-opacity:1;stroke-width:25;stroke-linecap:round;stroke-linejoin:round"
         d="m 145.78628,182.30303 c 0.689,0.40829 1.40351,1.22488 1.70973,2.14355 0.30622,0.91867 0.20415,1.93939 -0.61245,2.42424 -0.8166,0.48484 -2.34767,0.43381 -3.13874,-0.12761 -0.79108,-0.56141 -0.84211,-1.63316 -0.71452,-2.52631 0.1276,-0.89315 0.43382,-1.60765 0.91867,-1.96491 0.48486,-0.35725 1.14832,-0.35725 1.83731,0.051 z"
         id="path10" />
    </g>
    <g
       id="g14"
       style="fill:#f3d8d8;fill-opacity:1">
      <path
         style="opacity:1;fill:#f3d8d8;fill-opacity:1;stroke-width:25;stroke-linecap:round;stroke-linejoin:round"
         d="m 331.65225,350.30995 c 0.36089,0.32479 0.64959,0.72177 0.68568,1.31723 0.0361,0.59547 -0.18044,1.3894 -0.68569,1.56984 -0.50524,0.18043 -1.29917,-0.25262 -1.66005,-0.73982 -0.36088,-0.4872 -0.28871,-1.02851 -0.14435,-1.53375 0.14435,-0.50525 0.36088,-0.97439 0.68568,-1.08265 0.3248,-0.10826 0.75785,0.14435 1.11873,0.46915 z"
         id="path11" />
      <path
         style="opacity:1;fill:#f3d8d8;fill-opacity:1;stroke-width:25;stroke-linecap:round;stroke-linejoin:round"
         d="m 311.9362,374.4051 c 0.91866,0.30622 2.34769,0.81659 2.83254,1.45456 0.48484,0.63796 0.0255,1.4035 -0.91867,1.45453 -0.9442,0.051 -2.3732,-0.61244 -3.06219,-1.30144 -0.68899,-0.689 -0.63796,-1.4035 -0.40829,-1.70972 0.22967,-0.30622 0.63795,-0.20415 1.55661,0.10207 z"
         id="path12" />
      <path
         style="opacity:1;fill:#f3d8d8;fill-opacity:1;stroke-width:25;stroke-linecap:round;stroke-linejoin:round"
         d="m 318.44338,377.3142 c 0.48485,0.5614 0.79107,1.93939 0.63795,2.83254 -0.15311,0.89314 -0.76554,1.30143 -1.4035,0.9952 -0.63797,-0.30623 -1.30143,-1.32695 -1.48006,-2.0925 -0.17862,-0.76556 0.12759,-1.27591 0.61244,-1.65869 0.48486,-0.38278 1.14832,-0.63796 1.63317,-0.0765 z"
         id="path13" />
      <path
         style="opacity:1;fill:#f3d8d8;fill-opacity:1;stroke-width:25;stroke-linecap:round;stroke-linejoin:round"
         d="m 309.0016,383.311 c 0.53588,0.1276 1.25039,0.94418 1.22487,1.70974 -0.0255,0.76556 -0.79106,1.48006 -1.32695,1.35246 -0.53588,-0.1276 -0.8421,-1.09728 -0.81658,-1.86283 0.0255,-0.76556 0.38277,-1.32696 0.91866,-1.19937 z"
         id="path14" />
    </g>
  </g>
</svg>
