<svg xmlns="http://www.w3.org/2000/svg" xmlns:xlink="http://www.w3.org/1999/xlink" xml:space="preserve" width="3000" height="3600" viewBox="0 0 3000 3600"><defs><linearGradient id="P"><stop offset="0" style="stop-color:#ffeb20;stop-opacity:1"/><stop offset="1" style="stop-color:#ffeb20;stop-opacity:0"/></linearGradient><linearGradient id="O"><stop offset="0" style="stop-color:#fdcd26;stop-opacity:1"/><stop offset="1" style="stop-color:#fdcd26;stop-opacity:0"/></linearGradient><linearGradient id="N"><stop offset="0" style="stop-color:#fff982;stop-opacity:1"/><stop offset="1" style="stop-color:#fff982;stop-opacity:0"/></linearGradient><linearGradient id="M"><stop offset="0" style="stop-color:#e03803;stop-opacity:1"/><stop offset="1" style="stop-color:#e03803;stop-opacity:0"/></linearGradient><linearGradient id="L"><stop offset="0" style="stop-color:#ff932a;stop-opacity:1"/><stop offset="1" style="stop-color:#ffe52a;stop-opacity:0"/></linearGradient><linearGradient id="K"><stop offset="0" style="stop-color:#fdce28;stop-opacity:1"/><stop offset="1" style="stop-color:#fdce28;stop-opacity:0"/></linearGradient><linearGradient id="J"><stop offset="0" style="stop-color:#fdce28;stop-opacity:1"/><stop offset="1" style="stop-color:#fdce28;stop-opacity:0"/></linearGradient><linearGradient id="I"><stop offset="0" style="stop-color:#fdffff;stop-opacity:1"/><stop offset="1" style="stop-color:#fdffff;stop-opacity:0"/></linearGradient><linearGradient id="H"><stop offset="0" style="stop-color:#fdffff;stop-opacity:1"/><stop offset="1" style="stop-color:#fdffff;stop-opacity:0"/></linearGradient><linearGradient id="G"><stop offset="0" style="stop-color:#eb3b03;stop-opacity:1"/><stop offset="1" style="stop-color:#eb3b03;stop-opacity:0"/></linearGradient><linearGradient id="F"><stop offset="0" style="stop-color:#ffe159;stop-opacity:1"/><stop offset="1" style="stop-color:#ffe159;stop-opacity:0"/></linearGradient><linearGradient id="E"><stop offset="0" style="stop-color:#4b3e02;stop-opacity:1"/><stop offset="1" style="stop-color:#f9d016;stop-opacity:0"/></linearGradient><linearGradient id="D"><stop offset="0" style="stop-color:#a68d7c;stop-opacity:1"/><stop offset="1" style="stop-color:#a68d7c;stop-opacity:0"/></linearGradient><linearGradient id="C"><stop offset="0" style="stop-color:#a68d7c;stop-opacity:1"/><stop offset="1" style="stop-color:#a68d7c;stop-opacity:0"/></linearGradient><linearGradient id="B"><stop offset="0" style="stop-color:#312923;stop-opacity:1"/><stop offset="1" style="stop-color:#312923;stop-opacity:0"/></linearGradient><linearGradient id="A"><stop offset="0" style="stop-color:#312923;stop-opacity:1"/><stop offset="1" style="stop-color:#312923;stop-opacity:0"/></linearGradient><linearGradient id="z"><stop offset="0" style="stop-color:#ffa323;stop-opacity:1"/><stop offset="1" style="stop-color:#ffa323;stop-opacity:0"/></linearGradient><linearGradient id="y"><stop offset="0" style="stop-color:#ee4705;stop-opacity:1"/><stop offset="1" style="stop-color:#ee4705;stop-opacity:0"/></linearGradient><linearGradient id="x"><stop offset="0" style="stop-color:#000;stop-opacity:1"/><stop offset="1" style="stop-color:#0e0e0e;stop-opacity:1"/></linearGradient><linearGradient id="w"><stop offset="0" style="stop-color:#0e0e0e;stop-opacity:1"/><stop offset="1" style="stop-color:#000;stop-opacity:1"/></linearGradient><linearGradient id="v"><stop offset="0" style="stop-color:#edabb4;stop-opacity:1"/><stop offset="1" style="stop-color:#d33045;stop-opacity:0"/></linearGradient><linearGradient id="u"><stop offset="0" style="stop-color:#2b2d2a;stop-opacity:1"/><stop offset="1" style="stop-color:#2b2d2a;stop-opacity:0"/></linearGradient><linearGradient id="t"><stop offset="0" style="stop-color:#ae1f31;stop-opacity:1"/><stop offset="1" style="stop-color:#ae1f31;stop-opacity:0"/></linearGradient><linearGradient id="s"><stop offset="0" style="stop-color:#252724;stop-opacity:1"/><stop offset="1" style="stop-color:#2f322e;stop-opacity:1"/></linearGradient><linearGradient id="r"><stop offset="0" style="stop-color:#ae1f31;stop-opacity:1"/><stop offset="1" style="stop-color:#e15567;stop-opacity:0"/></linearGradient><linearGradient id="q"><stop offset="0" style="stop-color:#f3650c;stop-opacity:1"/><stop offset="1" style="stop-color:#f3650c;stop-opacity:0"/></linearGradient><linearGradient id="p"><stop offset="0" style="stop-color:#562808;stop-opacity:1"/><stop offset="1" style="stop-color:#562808;stop-opacity:0"/></linearGradient><linearGradient id="o"><stop offset="0" style="stop-color:#fedb56;stop-opacity:1"/><stop offset="1" style="stop-color:#fedb56;stop-opacity:0"/></linearGradient><linearGradient id="n"><stop offset="0" style="stop-color:#fedb56;stop-opacity:1"/><stop offset="1" style="stop-color:#fedb56;stop-opacity:0"/></linearGradient><linearGradient id="m"><stop offset="0" style="stop-color:#f48408;stop-opacity:1"/><stop offset="1" style="stop-color:#f48408;stop-opacity:0"/></linearGradient><linearGradient id="l"><stop offset="0" style="stop-color:#fff;stop-opacity:1"/><stop offset="1" style="stop-color:#fff;stop-opacity:0"/></linearGradient><linearGradient id="k"><stop offset="0" style="stop-color:#312923;stop-opacity:1"/><stop offset="1" style="stop-color:#312923;stop-opacity:0"/></linearGradient><linearGradient id="j"><stop offset="0" style="stop-color:#784313;stop-opacity:1"/><stop offset="1" style="stop-color:#411802;stop-opacity:1"/></linearGradient><linearGradient id="i"><stop offset="0" style="stop-color:#0de6f4;stop-opacity:1"/><stop offset="1" style="stop-color:#0de6f4;stop-opacity:0"/></linearGradient><linearGradient id="h"><stop offset="0" style="stop-color:#f46e0d;stop-opacity:1"/><stop offset="1" style="stop-color:#f46e0d;stop-opacity:0"/></linearGradient><linearGradient id="g"><stop offset="0" style="stop-color:#f5680b;stop-opacity:1"/><stop offset="1" style="stop-color:#f5680b;stop-opacity:0"/></linearGradient><linearGradient id="f"><stop offset="0" style="stop-color:#ffa323;stop-opacity:1"/><stop offset="1" style="stop-color:#ffa323;stop-opacity:0"/></linearGradient><linearGradient id="e"><stop offset="0" style="stop-color:#f18c00;stop-opacity:1"/><stop offset="1" style="stop-color:#f18c00;stop-opacity:0"/></linearGradient><linearGradient id="d"><stop offset="0" style="stop-color:#f18c00;stop-opacity:1"/><stop offset="1" style="stop-color:#f18c00;stop-opacity:0"/></linearGradient><linearGradient id="c"><stop offset="0" style="stop-color:#fee955;stop-opacity:1"/><stop offset="1" style="stop-color:#fee955;stop-opacity:0"/></linearGradient><linearGradient id="b"><stop offset="0" style="stop-color:#ffac49;stop-opacity:1"/><stop offset="1" style="stop-color:#fff149;stop-opacity:0"/></linearGradient><linearGradient id="a"><stop offset="0" style="stop-color:#ffec8b;stop-opacity:1"/><stop offset="1" style="stop-color:#ffec8b;stop-opacity:0"/></linearGradient><linearGradient xlink:href="#d" id="W" x1="425.969" x2="189.777" y1="396.543" y2="185.272" gradientUnits="userSpaceOnUse"/><linearGradient xlink:href="#f" id="T" x1="426.41" x2="246.433" y1="240.092" y2="192.65" gradientUnits="userSpaceOnUse"/><linearGradient xlink:href="#d" id="Y" x1="510.758" x2="146.372" y1="430.863" y2="179.215" gradientUnits="userSpaceOnUse"/><linearGradient xlink:href="#j" id="aj" x1="73.459" x2="337" y1="221.932" y2="221.932" gradientUnits="userSpaceOnUse"/><linearGradient xlink:href="#k" id="ai" x1="316.37" x2="73.459" y1="169.459" y2="192.901" gradientUnits="userSpaceOnUse"/><linearGradient xlink:href="#l" id="ak" x1="93.535" x2="185.039" y1="221.381" y2="221.381" gradientUnits="userSpaceOnUse"/><linearGradient xlink:href="#s" id="ad" x1="257.176" x2="263.916" y1="266.223" y2="285.448" gradientTransform="translate(81.285 132.858)" gradientUnits="userSpaceOnUse"/><linearGradient xlink:href="#w" id="as" x1="313.517" x2="309.341" y1="219.842" y2="210.452" gradientTransform="rotate(.858 1495.288 -1444.34)scale(1.08045)" gradientUnits="userSpaceOnUse"/><linearGradient xlink:href="#x" id="ar" x1="193.291" x2="191.461" y1="242.427" y2="259.471" gradientTransform="translate(-37.855 -50.667)scale(1.20198)" gradientUnits="userSpaceOnUse"/><linearGradient xlink:href="#L" id="aF" x1="84.127" x2="174.188" y1="412.469" y2="310.048" gradientUnits="userSpaceOnUse"/><radialGradient xlink:href="#a" id="Z" cx="151.064" cy="25.396" r="207.937" fx="151.064" fy="25.396" gradientTransform="translate(64.602 -41.385)" gradientUnits="userSpaceOnUse"/><radialGradient xlink:href="#b" id="S" cx="335.525" cy="275.974" r="183.711" fx="335.525" fy="275.974" gradientTransform="translate(-407.698 -67.944)scale(1.1554)" gradientUnits="userSpaceOnUse"/><radialGradient xlink:href="#c" id="V" cx="372.469" cy="260.426" r="190.777" fx="372.469" fy="260.426" gradientTransform="translate(-229.657 -291.08)scale(1.13469)" gradientUnits="userSpaceOnUse"/><radialGradient xlink:href="#e" id="R" cx="105.113" cy="128.11" r="203.899" fx="105.113" fy="128.11" gradientTransform="translate(-70.658 -169.58)" gradientUnits="userSpaceOnUse"/><radialGradient xlink:href="#g" id="X" cx="-81.368" cy="115.628" r="251.242" fx="-81.368" fy="115.628" gradientTransform="translate(94.651 -204.02)" gradientUnits="userSpaceOnUse"/><radialGradient xlink:href="#h" id="aa" cx="148.771" cy="271.364" r="172.827" fx="148.771" fy="271.364" gradientTransform="translate(105.086 72.616)scale(1.27246)" gradientUnits="userSpaceOnUse"/><radialGradient xlink:href="#i" id="ac" cx="11.212" cy="99.784" r="173.781" fx="11.212" fy="99.784" gradientTransform="translate(223.88 -74.288)" gradientUnits="userSpaceOnUse"/><radialGradient xlink:href="#m" id="an" cx="207.411" cy="411.73" r="232.077" fx="207.411" fy="411.73" gradientTransform="translate(151.923 17.939)" gradientUnits="userSpaceOnUse"/><radialGradient xlink:href="#n" id="ao" cx="85.954" cy="52.1" r="130.24" fx="85.954" fy="52.1" gradientTransform="translate(149.263 -52.1)" gradientUnits="userSpaceOnUse"/><radialGradient xlink:href="#o" id="ap" cx="17.441" cy="348.969" r="108.612" fx="17.441" fy="348.969" gradientTransform="translate(21.973 35.03)" gradientUnits="userSpaceOnUse"/><radialGradient xlink:href="#p" id="am" cx="92.507" cy="199.854" r="84.637" fx="92.507" fy="199.854" gradientTransform="translate(-2.632 66.13)scale(1.13316)" gradientUnits="userSpaceOnUse"/><radialGradient xlink:href="#q" id="aq" cx="326.878" cy="296.007" r="124.752" fx="326.878" fy="296.007" gradientTransform="translate(-586.015 -176.373)scale(1.56944)" gradientUnits="userSpaceOnUse"/><radialGradient xlink:href="#r" id="ae" cx="257.457" cy="254.881" r="31.117" fx="257.457" fy="254.881" gradientTransform="translate(82.891 136.879)" gradientUnits="userSpaceOnUse"/><radialGradient xlink:href="#t" id="af" cx="262.634" cy="266.277" r="19.2" fx="262.634" fy="266.277" gradientTransform="translate(75.539 167.194)" gradientUnits="userSpaceOnUse"/><radialGradient xlink:href="#u" id="ag" cx="241.205" cy="256.268" r="22.991" fx="241.205" fy="256.268" gradientTransform="translate(27.76 50.033)scale(1.2926)" gradientUnits="userSpaceOnUse"/><radialGradient xlink:href="#v" id="ah" cx="339.574" cy="420.438" r="17.238" fx="339.574" fy="420.438" gradientTransform="translate(2.102 -15.696)" gradientUnits="userSpaceOnUse"/><radialGradient xlink:href="#y" id="at" cx="122.043" cy="321.825" r="146.665" fx="122.043" fy="321.825" gradientTransform="translate(-224.637 -52.731)scale(1.4054)" gradientUnits="userSpaceOnUse"/><radialGradient xlink:href="#z" id="U" cx="385.294" cy="207.71" r="134.774" fx="385.294" fy="207.71" gradientTransform="translate(-228.718 -23.545)" gradientUnits="userSpaceOnUse"/><radialGradient xlink:href="#A" id="al" cx="141.909" cy="64.216" r="121.296" fx="141.909" fy="64.216" gradientTransform="translate(200.971 -22.99)" gradientUnits="userSpaceOnUse"/><radialGradient xlink:href="#B" id="au" cx="256.912" cy="211.036" r="64.187" fx="256.912" fy="211.036" gradientTransform="translate(-123.54 -126.795)scale(1.37054)" gradientUnits="userSpaceOnUse"/><radialGradient xlink:href="#C" id="av" cx="236.475" cy="351.901" r="66.709" fx="236.475" fy="351.901" gradientTransform="translate(-121.463 -153.6)scale(1.45378)" gradientUnits="userSpaceOnUse"/><radialGradient xlink:href="#D" id="aw" cx="346.441" cy="280.853" r="62.225" fx="346.441" fy="280.853" gradientTransform="translate(-5.946 9.91)" gradientUnits="userSpaceOnUse"/><radialGradient xlink:href="#E" id="ay" cx="97.708" cy="355.408" r="187.097" fx="97.708" fy="355.408" gradientTransform="translate(162.521 109.404)" gradientUnits="userSpaceOnUse"/><radialGradient xlink:href="#F" id="az" cx="-224.234" cy="136.782" r="165.933" fx="-224.234" fy="136.782" gradientTransform="translate(510.556 -106.86)scale(1.1419)" gradientUnits="userSpaceOnUse"/><radialGradient xlink:href="#G" id="aA" cx="229.191" cy="440.423" r="114.161" fx="229.191" fy="440.423" gradientTransform="matrix(1.72932 0 0 1.59722 -149.789 -241.26)" gradientUnits="userSpaceOnUse"/><radialGradient xlink:href="#H" id="aB" cx="105.39" cy="209.098" r="80.724" fx="105.39" fy="209.098" gradientTransform="translate(-21.302 29.71)" gradientUnits="userSpaceOnUse"/><radialGradient xlink:href="#I" id="aC" cx="-19.027" cy="332.177" r="130.81" fx="-19.027" fy="332.177" gradientTransform="translate(193.44 -286.196)" gradientUnits="userSpaceOnUse"/><radialGradient xlink:href="#J" id="aD" cx="238.809" cy="371.107" r="110.996" fx="238.809" fy="371.107" gradientTransform="translate(71.615 -10.923)scale(1.07857)" gradientUnits="userSpaceOnUse"/><radialGradient xlink:href="#K" id="aE" cx="298.771" cy="325.429" r="92.993" fx="298.771" fy="325.429" gradientTransform="translate(16.324 37.277)" gradientUnits="userSpaceOnUse"/><radialGradient xlink:href="#M" id="aG" cx="68.424" cy="92.079" r="169.003" fx="68.424" fy="92.079" gradientTransform="translate(-68.424 -45.186)" gradientUnits="userSpaceOnUse"/><radialGradient xlink:href="#N" id="ab" cx="228.158" cy="234.324" r="119.993" fx="228.158" fy="234.324" gradientTransform="translate(81.265 72.689)scale(.76268)" gradientUnits="userSpaceOnUse"/><radialGradient xlink:href="#O" id="ax" cx="159.206" cy="0" r="155.842" fx="159.206" fy="0" gradientTransform="translate(95.3 82.966)" gradientUnits="userSpaceOnUse"/><radialGradient xlink:href="#P" id="Q" cx="306.342" cy="1738.877" r="1158.64" fx="306.342" fy="1738.877" gradientTransform="translate(1119.974 -216.955)scale(1.08908)" gradientUnits="userSpaceOnUse"/></defs><g transform="translate(-227.95 -193.286)scale(1.18873)"><circle cx="1453.603" cy="1676.813" r="1261.846" style="opacity:1;mix-blend-mode:overlay;fill:url(#Q);stroke:none;stroke-width:4.3563;stroke-linecap:round;stroke-linejoin:round;stroke-opacity:1;paint-order:stroke fill markers"/><g transform="translate(390.078 535.675)scale(5.80906)"><path d="M103.732 60.61c16.002-12.18 57.82-1.511 77.978.297 27.427.218 36.075 11.538 57.695 27.42 6.365 4.7 8.744 6.721 12.788 8.208s9.755 2.439 17.368 4.997c19.557 6.57 66.463 29.253 80.365 98.246 2.271 11.271 4.963 23.973 6.35 32.174 1.389 8.202 1.473 11.903.716 15.1s-2.356 5.887-3.996 7.78c-1.64 1.892-3.322 2.986-5.72 6.14-7.66 11.14-13.79 23.257-20.398 35.035-7.06 12.53-10.554 17.332-25.908 27.927-81.358 56.137-165.442 21.17-179.505 14.636-13.66-6.134-28.434-9.082-38.778-20.525-6.646-7.654-15.898-21.281-22.375-30.87s-10.178-15.141-14.637-22.964-9.673-17.917-12.028-24.815c-4.688-11.234 3.356-18.795 8.496-27.926 2.439-4.543 3.617-9.085 3.28-13.711-3.06-11.05-3.41-22.923-8.748-33.227-2.355-4.374-5.888-9.252-7.655-14.047-1.766-4.795-1.766-9.505-1.848-17.561-1.282-20.688-2.6-49.572 20.53-24.552 2.737 2.974 4.283 4.758 5.235 7.375.951 2.617 1.308 6.067 1.19 8.684-.12 2.617-.714 4.402-.12 6.721.595 2.32 2.38 5.175 4.461 6.662 4.19 2.993 13.537 1.147 11.599-14.037-.357-2.796-.952-4.937-2.022-6.78-1.071-1.845-2.617-3.391-4.164-5.71s-3.093-5.413-3.628-8.268-.06-5.473 1.07-8.03c1.13-2.558 2.915-5.056 4.64-7.078s3.39-3.569 4.342-4.818c.952-1.25 1.19-2.2.654-3.152s-1.844-1.904-2.974-2.915-2.082-2.082-2.974-2.914-1.725-1.428-3.51-.655c-1.784.774-4.52 2.915-6.931 3.841s-4.498.64-6.282-.788c-1.785-1.428-3.267-3.995-6.625-9.62-3.358-5.626-8.592-14.31-12.102-20.199-3.509-5.888-5.293-8.981-4.817-11.182.475-2.2 3.211-3.509 5.65-3.509s4.58 1.309 7.376 3.985c2.795 2.677 6.245 6.721 8.743 9.636s4.045 4.699 5.532 5.948 2.914 1.963 3.747 1.368 1.07-2.498 3.33-4.164c15.21-11.206 39.197 14.862 44.61 11.837" style="fill:#ffe52a;fill-opacity:1;stroke-width:4;stroke-linecap:round;stroke-linejoin:round;paint-order:stroke fill markers"/><path d="M30.395 32c-2.44 0-5.175 1.309-5.65 3.51-.477 2.2 1.306 5.293 4.816 11.181 3.509 5.889 8.743 14.572 12.101 20.198 3.358 5.625 4.84 8.193 6.625 9.62 1.785 1.428 3.872 1.717 6.283.79s5.148-3.069 6.932-3.842 2.618-.178 3.51.654 1.842 1.903 2.972 2.914 2.44 1.965 2.975 2.916c.535.952.297 1.904-.654 3.153s-2.617 2.794-4.342 4.816-3.509 4.52-4.639 7.078-1.607 5.176-1.072 8.032 2.082 5.947 3.629 8.267c1.546 2.32 3.093 3.865 4.164 5.71 1.07 1.843 1.665 3.985 2.021 6.78 1.939 15.185-7.407 17.03-11.597 14.037-2.082-1.487-3.866-4.342-4.461-6.662s0-4.103.119-6.72-.238-6.067-1.19-8.684c-.951-2.617-2.498-4.403-5.234-7.377-23.131-25.02-21.813 3.865-20.531 24.553.081 8.056.081 12.766 1.848 17.56 1.766 4.795 5.3 9.675 7.656 14.05 5.338 10.303 5.688 22.174 8.748 33.224a21.9 21.9 0 0 1-.38 5.89 203.9 203.9 0 0 0 142.47-142.511 89 89 0 0 0-5.803-.23c-20.159-1.809-61.977-12.478-77.979-.298-5.413 3.026-29.4-23.042-44.609-11.836-2.26 1.666-2.5 3.57-3.332 4.164-.833.595-2.26-.12-3.746-1.369s-3.033-3.032-5.531-5.947-5.949-6.96-8.744-9.637C34.974 33.308 32.833 32 30.395 32" style="mix-blend-mode:multiply;fill:url(#R);stroke-width:4;stroke-linecap:round;stroke-linejoin:round;paint-order:stroke fill markers"/><path d="M30.395 32c-2.44 0-5.175 1.309-5.65 3.51-.477 2.2 1.306 5.293 4.816 11.181 3.509 5.889 8.743 14.572 12.101 20.198 3.358 5.625 4.84 8.193 6.625 9.62 1.785 1.428 3.872 1.717 6.283.79s5.148-3.069 6.932-3.842 2.618-.178 3.51.654 1.842 1.903 2.972 2.914 2.44 1.965 2.975 2.916c.535.952.297 1.904-.654 3.153s-2.617 2.794-4.342 4.816-3.509 4.52-4.639 7.078-1.607 5.176-1.072 8.032 2.082 5.947 3.629 8.267c1.546 2.32 3.093 3.865 4.164 5.71 1.07 1.843 1.665 3.985 2.021 6.78 1.939 15.185-7.407 17.03-11.597 14.037-2.082-1.487-3.866-4.342-4.461-6.662s0-4.103.119-6.72-.238-6.067-1.19-8.684c-.951-2.617-2.498-4.403-5.234-7.377-23.131-25.02-21.813 3.865-20.531 24.553.081 8.056.081 12.766 1.848 17.56 1.766 4.795 5.3 9.675 7.656 14.05 5.338 10.303 5.688 22.174 8.748 33.224.336 4.626-.842 9.168-3.281 13.71-5.14 9.132-13.184 16.694-8.497 27.928 2.356 6.898 7.572 16.992 12.03 24.815s8.16 13.373 14.636 22.963c6.478 9.59 15.73 23.216 22.376 30.87 10.344 11.443 25.117 14.392 38.777 20.526 7.534 3.5 35.162 15.16 71.701 16.602a212.26 212.26 0 0 0 34.754-116.387A212.26 212.26 0 0 0 121.98 55.072c-7.392.54-13.812 2.16-18.248 5.537-5.413 3.026-29.4-23.042-44.609-11.836-2.26 1.666-2.5 3.57-3.332 4.164-.833.595-2.26-.12-3.746-1.369s-3.033-3.032-5.531-5.947-5.949-6.96-8.744-9.637C34.974 33.308 32.833 32 30.395 32" style="mix-blend-mode:multiply;fill:url(#S);stroke-width:4.62163;stroke-linecap:round;stroke-linejoin:round;paint-order:stroke fill markers"/><path d="M103.732 60.61c16.002-12.18 57.82-1.511 77.978.297 27.427.218 36.075 11.538 57.695 27.42 6.365 4.7 8.744 6.721 12.788 8.208s9.755 2.439 17.368 4.997c19.557 6.57 66.463 29.253 80.365 98.246 2.271 11.271 4.963 23.973 6.35 32.174 1.389 8.202 1.473 11.903.716 15.1s-2.356 5.887-3.996 7.78c-1.64 1.892-3.322 2.986-5.72 6.14-7.66 11.14-13.79 23.257-20.398 35.035-7.06 12.53-10.554 17.332-25.908 27.927-81.358 56.137-165.442 21.17-179.505 14.636-13.66-6.134-28.434-9.082-38.778-20.525-6.646-7.654-15.898-21.281-22.375-30.87s-10.178-15.141-14.637-22.964-9.673-17.917-12.028-24.815c-4.688-11.234 3.356-18.795 8.496-27.926 2.439-4.543 3.617-9.085 3.28-13.711-3.06-11.05-3.41-22.923-8.748-33.227-2.355-4.374-5.888-9.252-7.655-14.047-1.766-4.795-1.766-9.505-1.848-17.561-1.282-20.688-2.6-49.572 20.53-24.552 2.737 2.974 4.283 4.758 5.235 7.375.951 2.617 1.308 6.067 1.19 8.684-.12 2.617-.714 4.402-.12 6.721.595 2.32 2.38 5.175 4.461 6.662 4.19 2.993 13.537 1.147 11.599-14.037-.357-2.796-.952-4.937-2.022-6.78-1.071-1.845-2.617-3.391-4.164-5.71s-3.093-5.413-3.628-8.268-.06-5.473 1.07-8.03c1.13-2.558 2.915-5.056 4.64-7.078s3.39-3.569 4.342-4.818c.952-1.25 1.19-2.2.654-3.152s-1.844-1.904-2.974-2.915-2.082-2.082-2.974-2.914-1.725-1.428-3.51-.655c-1.784.774-4.52 2.915-6.931 3.841s-4.498.64-6.282-.788c-1.785-1.428-3.267-3.995-6.625-9.62-3.358-5.626-8.592-14.31-12.102-20.199-3.509-5.888-5.293-8.981-4.817-11.182.475-2.2 3.211-3.509 5.65-3.509s4.58 1.309 7.376 3.985c2.795 2.677 6.245 6.721 8.743 9.636s4.045 4.699 5.532 5.948 2.914 1.963 3.747 1.368 1.07-2.498 3.33-4.164c15.21-11.206 39.197 14.862 44.61 11.837" style="mix-blend-mode:multiply;fill:url(#T);fill-opacity:1;stroke-width:4;stroke-linecap:round;stroke-linejoin:round;paint-order:stroke fill markers"/><path d="M131.174 54.896c-5.899-.155-11.486.132-16.36 1.13a135 135 0 0 0-9.459 3.478q-.85.518-1.623 1.105c-.4.224-.902.288-1.494.221a134.8 134.8 0 0 0-31.226 19.207c.466.92.212 1.85-.707 3.057-.952 1.249-2.617 2.794-4.342 4.816s-3.509 4.52-4.639 7.078-1.607 5.176-1.072 8.032 2.082 5.947 3.629 8.267c1.546 2.32 3.093 3.865 4.164 5.71 1.07 1.843 1.665 3.985 2.021 6.78 1.939 15.185-7.407 17.03-11.597 14.037-2.082-1.487-3.866-4.342-4.461-6.662s0-4.103.119-6.72-.238-6.067-1.19-8.684c-.951-2.617-2.498-4.403-5.234-7.377a85 85 0 0 0-1.486-1.568 134.8 134.8 0 0 0-18.551 38.037c.262 1.996.68 3.814 1.354 5.644 1.766 4.795 5.3 9.675 7.656 14.05 5.338 10.303 5.688 22.174 8.748 33.224.336 4.626-.842 9.168-3.281 13.71-5.14 9.132-13.184 16.694-8.497 27.928l.026.075a134.77 134.77 0 0 0 122.904 79.468A134.774 134.774 0 0 0 291.35 184.166a134.77 134.77 0 0 0-30.3-85.143c-3.553-.932-6.49-1.618-8.857-2.488-4.044-1.487-6.424-3.508-12.789-8.207-21.62-15.882-30.266-27.203-57.693-27.422-12.354-1.108-32.842-5.544-50.537-6.01" style="mix-blend-mode:overlay;fill:url(#U);stroke:none;stroke-width:4;stroke-linecap:round;stroke-linejoin:round;stroke-opacity:1;paint-order:stroke fill markers"/><path d="M237.68 101.948c104.415 31.667 135.305 137.815 55.435 205.204C220.412 368.495 56.294 335.84 60.61 200.208c.416-13.086 2.557-25.814 6.9-37.413 19.234-51.379 87.817-85.823 170.17-60.847" style="fill:#ff9f20;fill-opacity:1;stroke-width:4;stroke-linecap:round;stroke-linejoin:round;paint-order:stroke fill markers"/><path d="M30.395 32c-2.44 0-5.175 1.309-5.65 3.51-.477 2.2 1.306 5.293 4.816 11.181 3.509 5.889 8.743 14.572 12.101 20.198 3.358 5.625 4.84 8.193 6.625 9.62 1.785 1.428 3.872 1.717 6.283.79s5.148-3.069 6.932-3.842 2.618-.178 3.51.654 1.842 1.903 2.972 2.914 2.44 1.965 2.975 2.916c.535.952.297 1.904-.654 3.153s-2.617 2.794-4.342 4.816-3.509 4.52-4.639 7.078-1.607 5.176-1.072 8.032 2.082 5.947 3.629 8.267c1.546 2.32 3.093 3.865 4.164 5.71 1.07 1.843 1.665 3.985 2.021 6.78 1.939 15.185-7.407 17.03-11.597 14.037-2.082-1.487-3.866-4.342-4.461-6.662s0-4.103.119-6.72-.238-6.067-1.19-8.684c-.951-2.617-2.498-4.403-5.234-7.377-23.131-25.02-21.813 3.865-20.531 24.553.046 4.59.067 8.092.402 11.144a216.47 216.47 0 0 0 165.405 76.827 216.47 216.47 0 0 0 145.572-56.258c-19.695-42.046-53.227-57.81-68.99-63.106-7.614-2.557-13.323-3.509-17.368-4.996s-6.424-3.508-12.789-8.207c-21.62-15.882-30.266-27.203-57.693-27.422-20.159-1.808-61.977-12.477-77.979-.297-5.413 3.026-29.4-23.042-44.609-11.836-2.26 1.666-2.5 3.57-3.332 4.164-.833.595-2.26-.12-3.746-1.369s-3.033-3.032-5.531-5.947-5.949-6.96-8.744-9.637C34.974 33.308 32.833 32 30.395 32" style="mix-blend-mode:overlay;fill:url(#V);stroke-width:4.53875;stroke-linecap:round;stroke-linejoin:round;paint-order:stroke fill markers"/><path d="M237.68 101.948c104.415 31.667 135.305 137.815 55.435 205.204C220.412 368.495 56.294 335.84 60.61 200.208c.416-13.086 2.557-25.814 6.9-37.413 19.234-51.379 87.817-85.823 170.17-60.847" style="mix-blend-mode:multiply;fill:url(#W);fill-opacity:1;stroke-width:4;stroke-linecap:round;stroke-linejoin:round;paint-order:stroke fill markers"/><path d="M30.395 32c-2.44 0-5.175 1.309-5.65 3.51-.477 2.2 1.306 5.293 4.816 11.181 3.509 5.889 8.743 14.572 12.101 20.198 3.358 5.625 4.84 8.193 6.625 9.62 1.785 1.428 3.872 1.717 6.283.79s5.148-3.069 6.932-3.842 2.618-.178 3.51.654 1.842 1.903 2.972 2.914 2.44 1.965 2.975 2.916c.535.952.297 1.904-.654 3.153s-2.617 2.794-4.342 4.816-3.509 4.52-4.639 7.078-1.607 5.176-1.072 8.032 2.082 5.947 3.629 8.267c1.546 2.32 3.093 3.865 4.164 5.71 1.07 1.843 1.665 3.985 2.021 6.78 1.939 15.185-7.407 17.03-11.597 14.037-2.082-1.487-3.866-4.342-4.461-6.662s0-4.103.119-6.72-.238-6.067-1.19-8.684c-.951-2.617-2.498-4.403-5.234-7.377-23.131-25.02-21.813 3.865-20.531 24.553.081 8.056.081 12.766 1.848 17.56 1.418 3.851 3.978 7.756 6.15 11.41a251.24 251.24 0 0 0 175.2-94.466c-7.668-4.046-16.238-6.423-28.66-6.522-20.158-1.808-61.976-12.477-77.978-.297-5.413 3.026-29.4-23.042-44.609-11.836-2.26 1.666-2.5 3.57-3.332 4.164-.833.595-2.26-.12-3.746-1.369s-3.033-3.032-5.531-5.947-5.949-6.96-8.744-9.637C34.974 33.308 32.833 32 30.395 32" style="mix-blend-mode:multiply;fill:url(#X);stroke-width:4;stroke-linecap:round;stroke-linejoin:round;paint-order:stroke fill markers"/><path d="M237.68 101.948c104.415 31.667 135.305 137.815 55.435 205.204C220.412 368.495 56.294 335.84 60.61 200.208c.416-13.086 2.557-25.814 6.9-37.413 19.234-51.379 87.817-85.823 170.17-60.847" style="mix-blend-mode:multiply;fill:url(#Y);fill-opacity:1;stroke-width:4;stroke-linecap:round;stroke-linejoin:round;paint-order:stroke fill markers"/><path d="M179.053 93.693c-54.934 1.56-97.117 30.567-111.543 69.102a102 102 0 0 0-3.912 13.174 207.94 207.94 0 0 0 146.357 60.23 207.94 207.94 0 0 0 125.34-42.02c-9.845-40.15-44.06-75.99-97.615-92.232-20.589-6.244-40.316-8.773-58.627-8.254" style="fill:url(#Z);stroke-width:4;stroke-linecap:round;stroke-linejoin:round;paint-order:stroke fill markers"/><path d="M230.176 169.459a219.92 219.92 0 0 0-164.6 74.074c27.808 98.653 163.328 117.798 227.54 63.62 38.113-32.159 51.004-73.142 42.72-110.647a219.9 219.9 0 0 0-105.66-27.047" style="mix-blend-mode:multiply;fill:url(#aa);stroke-width:5.08985;stroke-linecap:round;stroke-linejoin:round;paint-order:stroke fill markers"/><circle cx="255.275" cy="251.402" r="91.516" style="mix-blend-mode:overlay;fill:url(#ab);stroke:none;stroke-width:3.0507;stroke-linecap:round;stroke-linejoin:round;stroke-opacity:1;paint-order:stroke fill markers"/><path d="M68.541 45.967c-2.032-.064-4.017.203-5.91.904a174 174 0 0 0 6.922 31.508c.595.527 1.115 1.045 1.406 1.562.412.733.366 1.464-.111 2.332a173.78 173.78 0 0 0 164.244 117.004 173.78 173.78 0 0 0 103.629-34.279c-19.672-42.317-53.352-58.156-69.16-63.467-7.614-2.557-13.323-3.509-17.368-4.996s-6.424-3.508-12.789-8.207c-21.62-15.882-30.266-27.203-57.693-27.422-20.159-1.808-61.977-12.477-77.979-.297-4.386 2.452-20.966-14.198-35.191-14.642" style="mix-blend-mode:overlay;fill:url(#ac);stroke-width:4;stroke-linecap:round;stroke-linejoin:round;paint-order:stroke fill markers"/><path d="M360.94 388.504c-.265-.628-.628-1.288-.446-1.503.181-.215.908.017 1.998 1.47s2.544 4.13 3.072 6.177c.529 2.048.132 3.469-.43 4.476-.56 1.008-1.287 1.602-1.783 2.23-.495.627-.76 1.288-1.928 3.587-1.168 2.298-3.24 6.235-5.42 9.628-2.181 3.393-4.47 6.243-6.876 8.111a16.1 16.1 0 0 1-6.984 3.13c-11.035 1.285-16.263-11.802-20.952-19.527-1.518-2.522-2.64-4.625-3.55-5.746-.911-1.12-1.612-1.261-2.453-2.079-.84-.817-1.822-2.312-2.242-3.83s-.28-3.06.187-3.76c.467-.702 1.261-.561 1.915-.281s1.168.7 1.845 1.658c4.594 10.039 51.018 15.607 44.047-3.74" style="fill:url(#ad);stroke:none;stroke-width:4;stroke-linecap:round;stroke-linejoin:round;stroke-opacity:1;paint-order:stroke fill markers" transform="rotate(-4.034 -1590.08 1446.21)"/><path d="M329.406 419.571c3.252 4.001 7.285 6.873 12.736 6.239a16.1 16.1 0 0 0 6.984-3.13c1.369-1.062 2.7-2.443 3.995-4.06-.313-.372-.626-.727-.934-1.078-8.858-9.89-15.303-5.085-22.781 2.03" style="fill:#7d1623;fill-opacity:1;stroke:none;stroke-width:4;stroke-linecap:round;stroke-linejoin:round;stroke-opacity:1;paint-order:stroke fill markers" transform="rotate(-4.034 -1590.08 1446.21)"/><path d="M329.406 419.571c3.252 4.001 7.285 6.873 12.736 6.239a16.1 16.1 0 0 0 6.984-3.13c1.369-1.062 2.7-2.443 3.995-4.06-.313-.372-.626-.727-.934-1.078-8.858-9.89-15.303-5.085-22.781 2.03" style="fill:#7d1623;fill-opacity:1;stroke:none;stroke-width:4;stroke-linecap:round;stroke-linejoin:round;stroke-opacity:1;paint-order:stroke fill markers" transform="rotate(-4.034 -1590.08 1446.21)"/><path d="M342.355 411.935c-4.433.003-8.509 3.412-12.95 7.636.544.669 1.11 1.306 1.7 1.9a31.1 31.1 0 0 0 9.244 1.405 31.1 31.1 0 0 0 10.674-1.889c.71-.714 1.41-1.507 2.098-2.367-.313-.372-.626-.727-.934-1.078-3.598-4.017-6.799-5.61-9.832-5.607" style="fill:url(#ae);stroke:none;stroke-width:4;stroke-linecap:round;stroke-linejoin:round;stroke-opacity:1;paint-order:stroke fill markers" transform="rotate(-4.034 -1590.08 1446.21)"/><path d="M338.171 414.272a19 19 0 0 0-2.734.196c-1.98 1.351-3.966 3.139-6.031 5.103 3.252 4.001 7.285 6.873 12.736 6.239a16.1 16.1 0 0 0 6.984-3.13c.944-.733 1.871-1.617 2.78-2.626a19.2 19.2 0 0 0-13.735-5.782" style="mix-blend-mode:multiply;fill:url(#af);stroke:none;stroke-width:4;stroke-linecap:round;stroke-linejoin:round;stroke-opacity:1;paint-order:stroke fill markers" transform="rotate(-4.034 -1590.08 1446.21)"/><path d="M360.69 386.932c-.09-.004-.157.022-.197.069-.182.214.182.876.446 1.504 6.971 19.348-39.453 13.78-44.046 3.74-.677-.957-1.19-1.378-1.845-1.659-.654-.28-1.448-.42-1.915.28-.467.701-.607 2.244-.187 3.762s1.401 3.012 2.242 3.83c.841.817 1.543.958 2.454 2.08.91 1.12 2.031 3.223 3.55 5.746.865 1.425 1.748 3.032 2.683 4.698 5.275.583 11.233.018 15.665.018 5.418 0 13.185-.901 20.276-2.983.63-1.174 1.18-2.235 1.607-3.076 1.168-2.3 1.433-2.959 1.929-3.587.495-.627 1.22-1.222 1.782-2.23.562-1.007.96-2.428.431-4.476s-1.983-4.723-3.073-6.177c-.852-1.135-1.48-1.525-1.802-1.539" style="mix-blend-mode:multiply;fill:url(#ag);stroke:none;stroke-width:5.17038;stroke-linecap:round;stroke-linejoin:round;stroke-opacity:1;paint-order:stroke fill markers" transform="rotate(-4.034 -1590.08 1446.21)"/><path d="M342.307 411.934c-3.918.024-7.558 2.706-11.42 6.252a17.24 17.24 0 0 0 10.789 3.794 17.24 17.24 0 0 0 10.957-3.93q-.225-.256-.445-.509c-3.618-4.039-6.834-5.626-9.881-5.607" style="fill:url(#ah);stroke:none;stroke-width:4;stroke-linecap:round;stroke-linejoin:round;stroke-opacity:1;paint-order:stroke fill markers" transform="rotate(-4.034 -1590.08 1446.21)"/><path d="M273.73 227.374c25.235-43.03 61.503-123.523 65.236-134.971 2.758 24.113 4.097 62.58.211 95.517s-12.996 60.343-31.136 62.334c-20.735 2.276-30.96-7.562-36.064-8.782-2.15-.514-2.803.794-5.606 4.951-21.261 31.538-46.498 43.146-68.27 46.175-81.18 9.306-102.235-64.14-124.642-128.053 0 0 7.265 2.696 18.384 7.274 58.54 20.281 157.84 63.263 175.291 62.15 2.609-.165 3.399-1.026 6.597-6.595" style="fill:url(#ai);fill-opacity:1;stroke-width:4;stroke-linecap:round;stroke-linejoin:round;paint-order:stroke fill markers"/><path d="M313.27 150.465c-12.46 26.347-27.298 56.035-39.54 76.908-3.197 5.57-3.987 6.432-6.595 6.598-17.451 1.112-116.752-41.871-175.293-62.153-11.119-4.578-18.383-7.273-18.383-7.273 22.407 63.912 43.463 137.36 124.643 128.053 21.772-3.03 47.008-14.637 68.27-46.174 2.802-4.158 3.456-5.467 5.605-4.953 5.104 1.22 15.33 11.059 36.064 8.783 15.35-1.685 24.235-21.569 28.959-47.602-2.926-18.555-10.996-36.433-23.73-52.187" style="mix-blend-mode:normal;fill:url(#aj);fill-opacity:1;stroke-width:4;stroke-linecap:round;stroke-linejoin:round;paint-order:stroke fill markers"/><path d="M143.777 191.13c-16.441 9.816-33.443 18.657-50.242 27.839 5.011 11.683 10.593 22.778 17.158 32.662 18.395-11.289 41.584-25.119 74.346-44.506-13.5-5.212-27.542-10.7-41.262-15.994" style="fill:url(#ak);fill-opacity:1;stroke-width:4;stroke-linecap:round;stroke-linejoin:round;paint-order:stroke fill markers"/><path d="M338.967 92.402c-2.091 6.412-14.388 34.483-29.237 65.5a121.3 121.3 0 0 0 31.44 4.608c1.135-25.85-.135-52.019-2.203-70.108" style="mix-blend-mode:multiply;fill:url(#al);stroke:none;stroke-width:4;stroke-linecap:round;stroke-linejoin:round;stroke-opacity:1;paint-order:stroke fill markers"/><path d="M320.084 135.887c-2.163 4.683-4.446 9.57-6.814 14.578 12.734 15.754 20.804 33.634 23.73 52.19.859-4.733 1.58-9.668 2.178-14.735.7-5.94 1.23-12.058 1.613-18.24-5.765-13.7-12.982-24.807-20.707-33.793" style="mix-blend-mode:normal;fill:#3a2604;fill-opacity:1;stroke-width:4;stroke-linecap:round;stroke-linejoin:round;paint-order:stroke fill markers"/><path d="M102.193 196.69a96 96 0 0 0-16.873 1.496c19.662 53.263 45.685 102.104 112.782 94.412a95.91 95.91 0 0 0-95.909-95.909" style="mix-blend-mode:multiply;fill:url(#am);stroke-width:4.53265;stroke-linecap:round;stroke-linejoin:round;paint-order:stroke fill markers"/><path d="M299.68 136.09a232.08 232.08 0 0 0-146.608 193.15c48.488 15.24 104.928 7.54 140.043-22.088 60.685-51.202 57.43-124.78 6.565-171.062" style="mix-blend-mode:multiply;fill:url(#an);stroke-width:4;stroke-linecap:round;stroke-linejoin:round;paint-order:stroke fill markers"/><path d="M125.154 54.906c-2.694.088-5.286.298-7.73.66a130.24 130.24 0 0 0 117.793 74.674 130.24 130.24 0 0 0 61.28-15.316c-10.553-7.094-20.313-11.168-26.936-13.393-7.614-2.557-13.323-3.509-17.368-4.996s-6.424-3.508-12.789-8.207c-21.62-15.882-30.266-27.203-57.693-27.422-13.785-1.236-37.697-6.616-56.557-6" style="mix-blend-mode:overlay;fill:url(#ao);stroke-width:4;stroke-linecap:round;stroke-linejoin:round;paint-order:stroke fill markers"/><path d="M65.576 243.533a108.6 108.6 0 0 0-28.652 3.848c2.558 5.555 5.819 11.684 8.752 16.83 4.458 7.823 8.16 13.373 14.636 22.963 6.478 9.59 15.73 23.216 22.376 30.87 10.344 11.443 25.117 14.392 38.777 20.526 6.163 2.864 25.776 11.189 52.715 14.912a109 109 0 0 0 .008-1.337A108.61 108.61 0 0 0 65.576 243.533" style="mix-blend-mode:overlay;fill:url(#ap);stroke-width:4;stroke-linecap:round;stroke-linejoin:round;paint-order:stroke fill markers"/><path d="M26.59 119.623c.053 4.42.317 9.034.582 13.3.081 8.057.081 12.767 1.848 17.561 1.766 4.795 5.3 9.675 7.656 14.05 5.338 10.303 5.688 22.174 8.748 33.224.336 4.626-.842 9.168-3.281 13.71-5.14 9.132-13.184 16.694-8.497 27.928 2.356 6.898 7.572 16.992 12.03 24.815s8.16 13.373 14.636 22.963c6.478 9.59 15.73 23.216 22.376 30.87 9.156 10.13 21.781 13.602 34.035 18.52a195.8 195.8 0 0 0 6.07-48.37A195.79 195.79 0 0 0 26.59 119.622" style="mix-blend-mode:overlay;fill:url(#aq);stroke-width:6.27778;stroke-linecap:round;stroke-linejoin:round;paint-order:stroke fill markers"/><path d="M235.16 259.025c-.386.014-.742.167-.976.579-.417.731-.448 2.28.078 3.765s1.61 2.906 2.506 3.662c.896.757 1.604.848 2.591 1.903.804.857 1.792 2.353 3.043 4.177 2.418-1.957 4.82-4.089 7.201-6.406-5.628-1.265-10.133-3.353-11.572-5.99-.743-.908-1.285-1.292-1.957-1.526-.294-.102-.613-.174-.914-.164" style="mix-blend-mode:normal;fill:#1f1006;fill-opacity:1;stroke-width:4;stroke-linecap:round;stroke-linejoin:round;paint-order:stroke fill markers"/><path d="M184.36 242.463c-8.535.726-13.782 3.913-16.327 7.14-2.601 3.297-2.337 6.578.097 7.19 1.751.44 4.565-.853 8.19-1.983 4.698-1.464 15.512-2.374 24.064 1.634 1.911.896 4.859 3.531 6.977 2.722 2.354-.9 1.82-5.793-4.402-10.757-4.537-3.62-11.359-6.561-18.599-5.946" style="fill:url(#ar);stroke:none;stroke-width:3.84475;stroke-dasharray:none;stroke-opacity:1"/><path d="M307.831 209.884c5.428-3.223 9.938-3.56 12.846-2.717 2.973.862 4.22 2.943 3.024 4.352-.861 1.015-3.102 1.445-5.76 2.321-3.443 1.135-10.315 5.224-13.724 11.291-.762 1.356-1.4 4.2-3.016 4.622-1.797.47-3.574-2.693-1.97-8.335 1.168-4.113 3.996-8.8 8.6-11.534" style="fill:url(#as);stroke:none;stroke-width:2.83302;stroke-dasharray:none;stroke-opacity:1"/><path d="M43.61 189.83c.52 2.668 1.092 5.32 1.814 7.928.336 4.626-.842 9.168-3.281 13.71-5.14 9.132-13.184 16.694-8.497 27.928 2.356 6.898 7.572 16.992 12.03 24.815s8.16 13.373 14.636 22.963c6.478 9.59 15.73 23.216 22.376 30.87 10.344 11.443 25.117 14.392 38.777 20.526 6.263 2.91 26.417 11.46 54.033 15.09A206.12 206.12 0 0 0 43.609 189.83" style="mix-blend-mode:multiply;fill:url(#at);stroke:none;stroke-width:5.62162;stroke-linecap:round;stroke-linejoin:round;stroke-opacity:1;paint-order:stroke fill markers"/><path d="M313.27 150.465c-12.46 26.347-27.298 56.035-39.54 76.908-3.197 5.57-3.987 6.432-6.595 6.598-12.612.803-67.975-21.424-119.807-41.47a87.97 87.97 0 0 0 86.393 71.386 88 88 0 0 0 21.056-2.559c3.962-4.388 7.84-9.335 11.594-14.904 2.803-4.158 3.457-5.467 5.606-4.953 2.66.636 6.712 3.615 12.92 5.998a87.97 87.97 0 0 0 36.794-71.553 88 88 0 0 0-1.453-15.92 121 121 0 0 0-6.968-9.531" style="mix-blend-mode:multiply;fill:url(#au);stroke:none;stroke-width:5.48215;stroke-linecap:round;stroke-linejoin:round;stroke-opacity:1;paint-order:stroke fill markers"/><path d="M228.158 234.324a96.98 96.98 0 0 0-84.414 49.237c14.463 7.94 32.163 11.581 54.358 9.037 21.772-3.03 47.008-14.637 68.27-46.174.94-1.396 1.64-2.47 2.233-3.262a97 97 0 0 0-40.447-8.838" style="fill:url(#av);stroke:none;stroke-width:5.81513;stroke-linecap:round;stroke-linejoin:round;stroke-opacity:1;paint-order:stroke fill markers"/><path d="M325.36 205.553a62.225 62.225 0 0 0-57.721 38.984c1.803-2.665 2.556-3.492 4.338-3.066 5.104 1.22 15.33 11.059 36.064 8.783 14.582-1.6 23.328-19.623 28.217-43.738a62 62 0 0 0-10.899-.963" style="fill:url(#aw);stroke:none;stroke-width:4;stroke-linecap:round;stroke-linejoin:round;stroke-opacity:1;paint-order:stroke fill markers"/><path d="M179.502 93.682c-30.308.776-56.757 9.9-76.836 24.377a155.84 155.84 0 0 0 151.84 120.75 155.84 155.84 0 0 0 83.654-24.356c-1.889-47.993-38.038-93.568-100.48-112.506-20.42-6.193-39.994-8.731-58.178-8.265" style="mix-blend-mode:overlay;fill:url(#ax);stroke:none;stroke-width:4;stroke-linecap:round;stroke-linejoin:round;stroke-opacity:1;paint-order:stroke fill markers"/><path d="M248.936 209.295A187.1 187.1 0 0 0 80.35 315.246c.806 1 1.59 1.937 2.338 2.799 10.344 11.442 25.117 14.39 38.777 20.525 14.063 6.535 98.148 41.5 179.506-14.636 15.354-10.595 18.846-15.395 25.906-27.926 6.608-11.778 12.738-23.896 20.398-35.035 2.398-3.155 4.08-4.248 5.721-6.141 1.64-1.893 3.24-4.585 3.996-7.781a17.4 17.4 0 0 0 .44-3.084 187.1 187.1 0 0 0-108.496-34.672" style="mix-blend-mode:multiply;fill:url(#ay);stroke:none;stroke-width:4;stroke-linecap:round;stroke-linejoin:round;stroke-opacity:1;paint-order:stroke fill markers"/><path d="M67.887 45.957c-.958.004-1.905.085-2.834.254a190 190 0 0 0-.026 3.121 189.5 189.5 0 0 0 1.889 26.68c.34.337.694.678 1.068 1.013 1.13 1.012 2.44 1.965 2.975 2.916.535.952.297 1.904-.654 3.153-.47.617-1.114 1.306-1.854 2.09a189.48 189.48 0 0 0 186.055 153.625 189.5 189.5 0 0 0 97.828-27.207c-.806-3.95-1.632-7.972-2.408-11.825-13.902-68.993-60.808-91.676-80.365-98.246-7.614-2.557-13.323-3.509-17.368-4.996s-6.424-3.508-12.789-8.207c-21.62-15.882-30.266-27.203-57.693-27.422-20.159-1.808-61.977-12.477-77.979-.297-4.454 2.49-21.48-14.715-35.845-14.652" style="mix-blend-mode:overlay;fill:url(#az);stroke:none;stroke-width:4.56757;stroke-linecap:round;stroke-linejoin:round;stroke-opacity:1;paint-order:stroke fill markers"/><path d="M235.457 251.313a197.421 182.34 0 0 0-134.523 48.884c52.472 46.942 143.131 48.341 192.181 6.955 13.332-11.249 23.577-23.576 30.91-36.459a197.421 182.34 0 0 0-88.568-19.38" style="mix-blend-mode:multiply;fill:url(#aA);stroke:none;stroke-width:6.91729;stroke-linecap:round;stroke-linejoin:round;stroke-opacity:1;paint-order:stroke fill markers"/><path d="M73.459 164.545c17.049 48.628 33.316 102.775 75.877 121.793a80.72 80.72 0 0 0 15.476-47.53 80.72 80.72 0 0 0-13.566-44.788c-21.251-8.234-42.107-16.21-59.404-22.202-11.119-4.578-18.383-7.273-18.383-7.273" style="mix-blend-mode:overlay;fill:url(#aB);stroke:none;stroke-width:4;stroke-linecap:round;stroke-linejoin:round;stroke-opacity:1;paint-order:stroke fill markers"/><path d="M43.654 42.305a131 131 0 0 0-.05 3.677 130.8 130.8 0 0 0 3.279 29.106c.474.58.928 1.04 1.404 1.422 1.785 1.427 3.872 1.716 6.283.789s5.148-3.069 6.932-3.842 2.618-.178 3.51.654 1.842 1.903 2.972 2.914 2.44 1.965 2.975 2.916c.535.952.297 1.904-.654 3.153s-2.617 2.794-4.342 4.816-3.509 4.52-4.639 7.078-1.607 5.176-1.072 8.032 2.082 5.947 3.629 8.267c1.546 2.32 3.093 3.865 4.164 5.71 1.07 1.843 1.665 3.985 2.021 6.78q.085.654.141 1.276a130.81 130.81 0 0 0 104.205 51.738 130.81 130.81 0 0 0 114.078-66.797c-7.395-4.153-14.024-6.815-18.93-8.463-7.613-2.557-13.322-3.509-17.367-4.996-4.044-1.487-6.424-3.508-12.789-8.207-21.62-15.882-30.266-27.203-57.693-27.422-20.159-1.808-61.977-12.477-77.979-.297-5.413 3.026-29.4-23.042-44.609-11.836-2.26 1.666-2.5 3.57-3.332 4.164-.833.595-2.26-.12-3.746-1.369s-3.033-3.032-5.531-5.947c-.862-1.005-1.838-2.145-2.86-3.316" style="mix-blend-mode:overlay;fill:url(#aC);stroke:none;stroke-width:4;stroke-linecap:round;stroke-linejoin:round;stroke-opacity:1;paint-order:stroke fill markers"/><path d="M324.578 269.713a119.72 119.72 0 0 0-102.476 66.103c26.82-3.04 52.032-12.648 71.013-28.664 13.67-11.533 24.096-24.203 31.463-37.44" style="fill:url(#aD);stroke:none;stroke-width:4.31427;stroke-linecap:round;stroke-linejoin:round;stroke-opacity:1;paint-order:stroke fill markers"/><path d="M315.096 269.713a92.993 92.993 0 0 0-92.586 84.285c24.73-3.018 51.743-11.629 78.46-30.064 15.355-10.595 18.847-15.395 25.907-27.926 4.286-7.64 8.371-15.422 12.803-22.987a93 93 0 0 0-24.584-3.308" style="mix-blend-mode:multiply;fill:url(#aE);stroke:none;stroke-width:4;stroke-linecap:round;stroke-linejoin:round;stroke-opacity:1;paint-order:stroke fill markers"/><path d="M103.732 60.61c16.002-12.18 57.82-1.511 77.978.297 27.427.218 36.075 11.538 57.695 27.42 6.365 4.7 8.744 6.721 12.788 8.208s9.755 2.439 17.368 4.997c19.557 6.57 66.463 29.253 80.365 98.246 2.271 11.271 4.963 23.973 6.35 32.174 1.389 8.202 1.473 11.903.716 15.1s-2.356 5.887-3.996 7.78c-1.64 1.892-3.322 2.986-5.72 6.14-7.66 11.14-13.79 23.257-20.398 35.035-7.06 12.53-10.554 17.332-25.908 27.927-81.358 56.137-165.442 21.17-179.505 14.636-13.66-6.134-28.434-9.082-38.778-20.525-6.646-7.654-15.898-21.281-22.375-30.87s-10.178-15.141-14.637-22.964-9.673-17.917-12.028-24.815c-4.688-11.234 3.356-18.795 8.496-27.926 2.439-4.543 3.617-9.085 3.28-13.711-3.06-11.05-3.41-22.923-8.748-33.227-2.355-4.374-5.888-9.252-7.655-14.047-1.766-4.795-1.766-9.505-1.848-17.561-1.282-20.688-2.6-49.572 20.53-24.552 2.737 2.974 4.283 4.758 5.235 7.375.951 2.617 1.308 6.067 1.19 8.684-.12 2.617-.714 4.402-.12 6.721.595 2.32 2.38 5.175 4.461 6.662 4.19 2.993 13.537 1.147 11.599-14.037-.357-2.796-.952-4.937-2.022-6.78-1.071-1.845-2.617-3.391-4.164-5.71s-3.093-5.413-3.628-8.268-.06-5.473 1.07-8.03c1.13-2.558 2.915-5.056 4.64-7.078s3.39-3.569 4.342-4.818c.952-1.25 1.19-2.2.654-3.152s-1.844-1.904-2.974-2.915-2.082-2.082-2.974-2.914-1.725-1.428-3.51-.655c-1.784.774-4.52 2.915-6.931 3.841s-4.498.64-6.282-.788c-1.785-1.428-3.267-3.995-6.625-9.62-3.358-5.626-8.592-14.31-12.102-20.199-3.509-5.888-5.293-8.981-4.817-11.182.475-2.2 3.211-3.509 5.65-3.509s4.58 1.309 7.376 3.985c2.795 2.677 6.245 6.721 8.743 9.636s4.045 4.699 5.532 5.948 2.914 1.963 3.747 1.368 1.07-2.498 3.33-4.164c15.21-11.206 39.197 14.862 44.61 11.837" style="mix-blend-mode:multiply;fill:url(#aF);fill-opacity:1;stroke-width:4;stroke-linecap:round;stroke-linejoin:round;paint-order:stroke fill markers"/><path d="M178.496 93.71c-54.662 1.74-96.61 30.68-110.986 69.085-4.342 11.599-6.484 24.328-6.9 37.414-.25 7.846.065 15.346.892 22.504A169 169 0 0 0 178.496 93.71" style="mix-blend-mode:multiply;fill:url(#aG);stroke:none;stroke-width:4;stroke-linecap:round;stroke-linejoin:round;stroke-opacity:1;paint-order:stroke fill markers"/></g></g></svg>