<svg xmlns="http://www.w3.org/2000/svg" xmlns:xlink="http://www.w3.org/1999/xlink" xml:space="preserve" width="979.142" height="560.256" viewBox="0 0 259.065 148.234"><defs><linearGradient id="a"><stop offset="0" style="stop-color:#25120b;stop-opacity:1"/><stop offset="1" style="stop-color:#0c0604;stop-opacity:1"/></linearGradient><linearGradient xlink:href="#a" id="b" x1="80.855" x2="80.588" y1="84.42" y2="68.212" gradientTransform="translate(5.816 -26.721)scale(.84045)" gradientUnits="userSpaceOnUse"/><linearGradient xlink:href="#a" id="c" x1="80.855" x2="80.588" y1="84.42" y2="68.212" gradientTransform="matrix(.84045 0 0 -.84045 5.816 169.037)" gradientUnits="userSpaceOnUse"/><linearGradient xlink:href="#a" id="d" x1="80.855" x2="80.588" y1="84.42" y2="68.212" gradientTransform="translate(64.47 -26.721)scale(.84045)" gradientUnits="userSpaceOnUse"/><linearGradient xlink:href="#a" id="e" x1="80.855" x2="80.588" y1="84.42" y2="68.212" gradientTransform="matrix(.84045 0 0 -.84045 64.47 169.037)" gradientUnits="userSpaceOnUse"/><linearGradient xlink:href="#a" id="f" x1="80.855" x2="80.588" y1="84.42" y2="68.212" gradientTransform="translate(64.47 54.378)scale(.84045)" gradientUnits="userSpaceOnUse"/><linearGradient xlink:href="#a" id="g" x1="80.855" x2="80.588" y1="84.42" y2="68.212" gradientTransform="matrix(.84045 0 0 -.84045 64.47 250.137)" gradientUnits="userSpaceOnUse"/><linearGradient xlink:href="#a" id="h" x1="80.855" x2="80.588" y1="84.42" y2="68.212" gradientTransform="translate(5.816 54.378)scale(.84045)" gradientUnits="userSpaceOnUse"/><linearGradient xlink:href="#a" id="i" x1="80.855" x2="80.588" y1="84.42" y2="68.212" gradientTransform="matrix(.84045 0 0 -.84045 5.816 250.137)" gradientUnits="userSpaceOnUse"/><linearGradient xlink:href="#a" id="j" x1="80.855" x2="80.588" y1="84.42" y2="68.212" gradientTransform="translate(5.816 135.478)scale(.84045)" gradientUnits="userSpaceOnUse"/><linearGradient xlink:href="#a" id="k" x1="80.855" x2="80.588" y1="84.42" y2="68.212" gradientTransform="matrix(.84045 0 0 -.84045 5.816 331.236)" gradientUnits="userSpaceOnUse"/><linearGradient xlink:href="#a" id="l" x1="80.855" x2="80.588" y1="84.42" y2="68.212" gradientTransform="translate(64.47 135.478)scale(.84045)" gradientUnits="userSpaceOnUse"/><linearGradient xlink:href="#a" id="m" x1="80.855" x2="80.588" y1="84.42" y2="68.212" gradientTransform="matrix(.84045 0 0 -.84045 64.47 331.236)" gradientUnits="userSpaceOnUse"/></defs><path d="m56.347 23.956 107.004 6.633c.168.01.305.13.307.266l3.628 251.678c.004.26-.18.455-.412.437L19.469 271.513c-.228-.018-.38-.237-.342-.492l36.885-246.84c.02-.135.17-.235.335-.225" style="fill:#040201;fill-opacity:1;fill-rule:evenodd;stroke:none;stroke-width:1.36174;stroke-linecap:round;stroke-miterlimit:7;paint-order:stroke markers fill" transform="rotate(-90 71.677 95.615)"/><path d="m-109.67 27.262 53.622-3.324 9.852 65.932-58.993 3.904z" style="fill:#040201;fill-opacity:1;fill-rule:evenodd;stroke:none;stroke-width:1.48891;stroke-linecap:round;stroke-miterlimit:7;paint-order:stroke markers fill" transform="matrix(0 1 1 0 -23.938 167.293)"/><path d="m65.122 32.917 33.605 2.101c.124.008.217.096.208.198l-3.97 48.045c-.01.117-.125.204-.257.195l-36.03-2.362c-.132-.009-.226-.11-.21-.226l6.407-47.782c.014-.101.124-.176.247-.169" style="fill:#341910;fill-opacity:1;fill-rule:evenodd;stroke:none;stroke-width:1.16567;stroke-linecap:round;stroke-miterlimit:7;paint-order:stroke markers fill" transform="rotate(-90 71.677 95.615)"/><path d="m56.048 23.938 53.622 3.324-10.876 9.669-34.148-2.14Z" style="fill:url(#b);fill-opacity:1;fill-rule:evenodd;stroke-width:.708259;stroke-linecap:round;stroke-miterlimit:7;paint-order:stroke markers fill" transform="rotate(-90 71.677 95.615)"/><path d="M105.189 93.774 46.196 89.87l12.577-11.279 36.38 2.38Z" style="fill:#25120b;fill-opacity:1;fill-rule:evenodd;stroke-width:.708259;stroke-linecap:round;stroke-miterlimit:7;paint-order:stroke markers fill" transform="rotate(-90 71.677 95.615)"/><path d="m61.61 57.434-2.837 21.157 36.38 2.38.005-.061c-5.528-3.976-25.164-9.778-33.548-23.476" style="fill:#432014;fill-opacity:.508966;fill-rule:evenodd;stroke:none;stroke-width:1.16567;stroke-linecap:round;stroke-miterlimit:7;paint-order:stroke markers fill" transform="rotate(-90 71.677 95.615)"/><path d="m46.196 89.87 58.993 3.904L95.154 80.97l-36.381-2.38Z" style="fill:url(#c);fill-opacity:1;fill-rule:evenodd;stroke-width:.708259;stroke-linecap:round;stroke-miterlimit:7;paint-order:stroke markers fill" transform="rotate(-90 71.677 95.615)"/><path d="m-163.654 30.608 53.984-3.346 4.481 66.512-59.432 3.933z" style="fill:#040201;fill-opacity:1;fill-rule:evenodd;stroke:none;stroke-width:1.48891;stroke-linecap:round;stroke-miterlimit:7;paint-order:stroke markers fill" transform="matrix(0 1 1 0 -23.938 167.293)"/><path d="m119.494 36.316 33.835 2.116c.124.008.225.096.224.199l-.039 48.468c0 .118-.108.206-.241.197l-36.295-2.38c-.133-.008-.235-.11-.23-.227l2.512-48.202c.005-.102.11-.178.234-.17" style="fill:#341910;fill-opacity:1;fill-rule:evenodd;stroke:none;stroke-width:1.16567;stroke-linecap:round;stroke-miterlimit:7;paint-order:stroke markers fill" transform="rotate(-90 71.677 95.615)"/><path d="m109.67 27.262 53.984 3.346-10.102 9.753-34.382-2.154z" style="fill:url(#d);fill-opacity:1;fill-rule:evenodd;stroke-width:.708259;stroke-linecap:round;stroke-miterlimit:7;paint-order:stroke markers fill" transform="rotate(-90 71.677 95.615)"/><path d="m164.621 97.707-59.432-3.933 11.68-11.383 36.647 2.398z" style="fill:#25120b;fill-opacity:1;fill-rule:evenodd;stroke-width:.708259;stroke-linecap:round;stroke-miterlimit:7;paint-order:stroke markers fill" transform="rotate(-90 71.677 95.615)"/><path d="m105.189 93.774 59.432 3.933-11.105-12.918-36.647-2.398Z" style="fill:url(#e);fill-opacity:1;fill-rule:evenodd;stroke-width:.708259;stroke-linecap:round;stroke-miterlimit:7;paint-order:stroke markers fill" transform="rotate(-90 71.677 95.615)"/><path d="m-164.621 97.707 59.432-3.933 5.486 81.433-66.104 4.713z" style="fill:#040201;fill-opacity:1;fill-rule:evenodd;stroke:none;stroke-width:1.48891;stroke-linecap:round;stroke-miterlimit:7;paint-order:stroke markers fill" transform="matrix(0 1 1 0 -23.938 167.293)"/><path d="m115.952 104.738 37.298 2.492c.137.009.248.117.248.242l-.049 59.365c0 .146-.12.255-.268.244l-40.309-2.844a.27.27 0 0 1-.253-.28l3.075-59.012c.006-.124.121-.216.258-.207" style="fill:#341910;fill-opacity:1;fill-rule:evenodd;stroke:none;stroke-width:1.16567;stroke-linecap:round;stroke-miterlimit:7;paint-order:stroke markers fill" transform="rotate(-90 71.677 95.615)"/><path d="m105.189 93.774 59.432 3.933-11.125 11.868-37.911-2.539z" style="fill:url(#f);fill-opacity:1;fill-rule:evenodd;stroke-width:.708259;stroke-linecap:round;stroke-miterlimit:7;paint-order:stroke markers fill" transform="rotate(-90 71.677 95.615)"/><path d="m165.807 179.92-66.104-4.713 13.064-14.082 40.685 2.862z" style="fill:#25120b;fill-opacity:1;fill-rule:evenodd;stroke-width:.708259;stroke-linecap:round;stroke-miterlimit:7;paint-order:stroke markers fill" transform="rotate(-90 71.677 95.615)"/><path d="m99.703 175.207 66.104 4.713-12.355-15.933-40.685-2.862z" style="fill:url(#g);fill-opacity:1;fill-rule:evenodd;stroke-width:.708259;stroke-linecap:round;stroke-miterlimit:7;paint-order:stroke markers fill" transform="rotate(-90 71.677 95.615)"/><path d="m-105.189 93.774 58.993-3.904 12.053 80.662-65.56 4.675z" style="fill:#040201;fill-opacity:1;fill-rule:evenodd;stroke:none;stroke-width:1.48891;stroke-linecap:round;stroke-miterlimit:7;paint-order:stroke markers fill" transform="matrix(0 1 1 0 -23.938 167.293)"/><path d="m56.05 100.736 37.018 2.473c.137.01.238.116.228.24l-4.86 58.802a.267.267 0 0 1-.287.242l-39.983-2.82a.243.243 0 0 1-.23-.278l7.84-58.454c.016-.123.138-.214.274-.205" style="fill:#341910;fill-opacity:1;fill-rule:evenodd;stroke:none;stroke-width:1.16567;stroke-linecap:round;stroke-miterlimit:7;paint-order:stroke markers fill" transform="rotate(-90 71.677 95.615)"/><path d="m46.196 89.87 58.993 3.904-12.065 11.758-37.626-2.519Z" style="fill:url(#h);fill-opacity:1;fill-rule:evenodd;stroke-width:.708259;stroke-linecap:round;stroke-miterlimit:7;paint-order:stroke markers fill" transform="rotate(-90 71.677 95.615)"/><path d="m99.703 175.207-65.56-4.675 14.17-13.942 40.356 2.84z" style="fill:#25120b;fill-opacity:1;fill-rule:evenodd;stroke-width:.708259;stroke-linecap:round;stroke-miterlimit:7;paint-order:stroke markers fill" transform="rotate(-90 71.677 95.615)"/><path d="m34.143 170.532 65.56 4.675-11.034-15.778-40.356-2.84Z" style="fill:url(#i);fill-opacity:1;fill-rule:evenodd;stroke-width:.708259;stroke-linecap:round;stroke-miterlimit:7;paint-order:stroke markers fill" transform="rotate(-90 71.677 95.615)"/><path d="m-99.703 175.207 65.56-4.675 15.085 100.95-73.773 5.733z" style="fill:#040201;fill-opacity:1;fill-rule:evenodd;stroke:none;stroke-width:1.48891;stroke-linecap:round;stroke-miterlimit:7;paint-order:stroke markers fill" transform="matrix(0 1 1 0 -23.938 167.293)"/><path d="m44.918 183.954 41.203 2.97a.27.27 0 0 1 .251.297l-6.085 73.627c-.015.182-.16.319-.326.306l-44.909-3.448c-.164-.013-.277-.169-.253-.35l9.81-73.147a.296.296 0 0 1 .309-.255" style="fill:#341910;fill-opacity:1;fill-rule:evenodd;stroke:none;stroke-width:1.16567;stroke-linecap:round;stroke-miterlimit:7;paint-order:stroke markers fill" transform="rotate(-90 71.677 95.615)"/><path d="m34.143 170.532 65.56 4.675-13.544 14.6-41.895-3.028z" style="fill:url(#j);fill-opacity:1;fill-rule:evenodd;stroke-width:.708259;stroke-linecap:round;stroke-miterlimit:7;paint-order:stroke markers fill" transform="rotate(-90 71.677 95.615)"/><path d="m92.83 277.215-73.772-5.734 16.216-17.665 45.308 3.467Z" style="fill:#25120b;fill-opacity:1;fill-rule:evenodd;stroke-width:.708259;stroke-linecap:round;stroke-miterlimit:7;paint-order:stroke markers fill" transform="rotate(-90 71.677 95.615)"/><path d="m19.058 271.481 73.773 5.734-12.25-19.932-45.307-3.467Z" style="fill:url(#k);fill-opacity:1;fill-rule:evenodd;stroke-width:.708259;stroke-linecap:round;stroke-miterlimit:7;paint-order:stroke markers fill" transform="rotate(-90 71.677 95.615)"/><path d="m-165.807 179.92 66.104-4.713 6.872 102.008-74.462 5.788z" style="fill:#040201;fill-opacity:1;fill-rule:evenodd;stroke:none;stroke-width:1.48891;stroke-linecap:round;stroke-miterlimit:7;paint-order:stroke markers fill" transform="matrix(0 1 1 0 -23.938 167.293)"/><path d="m111.603 188.761 41.55 2.996a.3.3 0 0 1 .276.3l-.06 74.4c0 .185-.135.323-.302.31l-45.322-3.48c-.166-.013-.292-.17-.282-.353l3.85-73.915a.27.27 0 0 1 .29-.258" style="fill:#341910;fill-opacity:1;fill-rule:evenodd;stroke:none;stroke-width:1.16567;stroke-linecap:round;stroke-miterlimit:7;paint-order:stroke markers fill" transform="rotate(-90 71.677 95.615)"/><path d="m99.703 175.207 66.104 4.713-12.38 14.749-42.249-3.054z" style="fill:url(#l);fill-opacity:1;fill-rule:evenodd;stroke-width:.708259;stroke-linecap:round;stroke-miterlimit:7;paint-order:stroke markers fill" transform="rotate(-90 71.677 95.615)"/><path d="m167.293 283.003-74.462-5.788 14.818-17.86 45.722 3.5z" style="fill:#25120b;fill-opacity:1;fill-rule:evenodd;stroke-width:.708259;stroke-linecap:round;stroke-miterlimit:7;paint-order:stroke markers fill" transform="rotate(-90 71.677 95.615)"/><path d="m92.83 277.215 74.463 5.788-13.922-20.149-45.722-3.5z" style="fill:url(#m);fill-opacity:1;fill-rule:evenodd;stroke-width:.708259;stroke-linecap:round;stroke-miterlimit:7;paint-order:stroke markers fill" transform="rotate(-90 71.677 95.615)"/><path d="m117.98 61.046-1.11 21.344 36.646 2.397v-.061c-5.865-4.011-26.014-9.863-35.534-23.681M51.796 130.62l-3.483 25.97 40.356 2.84.006-.076c-6.094-4.881-27.8-11.965-36.88-28.734m62.338 4.283-1.366 26.222 40.684 2.862v-.075c-6.508-4.93-28.845-12.08-39.318-29.009m-4.765 91.47-1.719 32.982 45.722 3.5v-.097c-7.31-6.205-32.367-15.154-44.003-36.385m-69.718-5.191-4.376 32.634 45.307 3.467.008-.094c-6.788-6.14-31.05-14.997-40.939-36.007" style="fill:#432014;fill-opacity:.508966;fill-rule:evenodd;stroke:none;stroke-width:1.16567;stroke-linecap:round;stroke-miterlimit:7;paint-order:stroke markers fill" transform="rotate(-90 71.677 95.615)"/></svg>