<?xml version="1.0" encoding="UTF-8" standalone="no"?>
<!-- Created with Inkscape (http://www.inkscape.org/) -->

<svg
   version="1.1"
   id="svg1"
   width="1000"
   height="500"
   viewBox="0 0 999.99999 500.00001"
   xml:space="preserve"
   sodipodi:docname="steam-deck.svg"
   inkscape:version="1.4.2 (ebf0e940d0, 2025-05-08)"
   xmlns:inkscape="http://www.inkscape.org/namespaces/inkscape"
   xmlns:sodipodi="http://sodipodi.sourceforge.net/DTD/sodipodi-0.dtd"
   xmlns="http://www.w3.org/2000/svg"
   xmlns:svg="http://www.w3.org/2000/svg"><sodipodi:namedview
     id="namedview1"
     pagecolor="#ffffff"
     bordercolor="#000000"
     borderopacity="0.25"
     inkscape:showpageshadow="2"
     inkscape:pageopacity="0.0"
     inkscape:pagecheckerboard="0"
     inkscape:deskcolor="#d1d1d1"
     inkscape:zoom="0.64609424"
     inkscape:cx="357.53298"
     inkscape:cy="268.53668"
     inkscape:window-width="1536"
     inkscape:window-height="888"
     inkscape:window-x="0"
     inkscape:window-y="0"
     inkscape:window-maximized="1"
     inkscape:current-layer="svg1" /><defs
     id="defs1" /><path
     id="path2"
     style="fill:#000000;fill-rule:evenodd;stroke:none;stroke-width:4.39766;stroke-linecap:round;stroke-miterlimit:7;paint-order:stroke markers fill"
     d="m 153.63986,72.5897 c -39.21498,-0.0052 -46.52601,0.458356 -56.750829,3.59636 -6.924682,2.12519 -9.91121,3.885579 -18.77039,11.058921 -16.368988,13.254089 -21.640924,22.622639 -25.039596,44.496229 -1.029291,6.62443 -1.218816,16.49278 -1.144508,59.55162 0.04899,28.38628 0.45981,70.54804 0.911885,93.69377 1.240172,63.49537 3.231915,79.15499 12.431401,97.66466 3.437092,6.91554 7.401051,12.228 14.185381,19.01231 16.253669,16.25367 31.209096,21.96205 64.592566,24.65112 9.65588,0.7778 87.59857,1.0174 353.81339,1.09565 H 500 h 2.13083 c 266.21484,-0.0781 344.15751,-0.31785 353.81338,-1.09565 33.38347,-2.68907 48.3389,-8.39745 64.59257,-24.65112 6.78434,-6.78431 10.74829,-12.09677 14.18539,-19.01231 9.19948,-18.50967 11.19122,-34.16929 12.43141,-97.66466 0.45206,-23.14573 0.86288,-65.30749 0.91188,-93.69377 0.0743,-43.05884 -0.11518,-52.92719 -1.14451,-59.55162 -3.39869,-21.87359 -8.67062,-31.24214 -25.0396,-44.496229 -8.85919,-7.173342 -11.8457,-8.933731 -18.7704,-11.058921 -10.22481,-3.138004 -17.53584,-3.6016 -56.75082,-3.59636 -31.21927,0.0042 -37.29604,0.188661 -39.218,1.191033 -3.45105,1.799836 -610.83086,1.80107 -614.28427,0 -1.92196,-1.002372 -7.99872,-1.186864 -39.218,-1.191033 z" /><circle
     cx="806.00543"
     cy="148.52225"
     r="16.284426"
     stroke="none"
     style="fill:none;stroke:#dfdfe7;stroke-width:1.35551;stroke-opacity:1"
     id="circle15-6" /><circle
     cx="806.00543"
     cy="148.52225"
     r="15.60667"
     style="fill:none;stroke:#dfdfe7;stroke-width:1.35551;stroke-opacity:1"
     id="circle16-2" /><circle
     cx="806.28864"
     cy="148.75404"
     r="30.806009"
     style="fill:none;stroke:#dfdfe7;stroke-width:2.71102;stroke-opacity:1"
     id="circle17-9" /><rect
     style="fill:none;fill-rule:evenodd;stroke:#dfdfe7;stroke-width:3.21579;stroke-linecap:round;stroke-miterlimit:7;stroke-opacity:1;paint-order:stroke markers fill"
     id="rect2"
     width="92.136703"
     height="92.136703"
     x="770.52954"
     y="201.55118"
     rx="8.5385113" /><rect
     style="fill:none;fill-rule:evenodd;stroke:#dfdfe7;stroke-width:3.21579;stroke-linecap:round;stroke-miterlimit:7;stroke-opacity:1;paint-order:stroke markers fill"
     id="rect3"
     width="92.136703"
     height="92.136703"
     x="-229.47047"
     y="201.55118"
     rx="8.5385113"
     transform="scale(-1,1)" /><circle
     cx="-193.9946"
     cy="148.52226"
     r="16.284426"
     stroke="none"
     style="fill:none;stroke:#dfdfe7;stroke-width:1.35551;stroke-opacity:1"
     id="circle10"
     transform="scale(-1,1)" /><circle
     cx="-193.9946"
     cy="148.52226"
     r="15.606671"
     style="fill:none;stroke:#dfdfe7;stroke-width:1.35551;stroke-opacity:1"
     id="circle11"
     transform="scale(-1,1)" /><circle
     cx="-193.71135"
     cy="148.75404"
     r="30.806009"
     style="fill:none;stroke:#dfdfe7;stroke-width:2.71102;stroke-opacity:1"
     id="circle12"
     transform="scale(-1,1)" /><path
     d="m 893.65014,96.234876 c -6.64158,0 -12.04296,5.401364 -12.04296,12.042944 0,6.64159 5.40138,12.04192 12.04296,12.04192 6.64157,0 12.04191,-5.39983 12.04191,-12.04192 0,-6.64209 -5.40034,-12.042428 -12.04191,-12.042428 m -26.11801,25.908018 c -6.64156,0 -12.04294,5.40087 -12.04294,12.04243 0,6.64157 5.40138,12.04294 12.04294,12.04294 6.64159,0 12.04194,-5.40137 12.04194,-12.04294 0,-6.64156 -5.40035,-12.04294 -12.04194,-12.04294 m 53.07845,0 c -6.64209,0 -12.04295,5.40085 -12.04295,12.04243 0,6.64158 5.40137,12.04295 12.04295,12.04295 6.64157,0 12.04088,-5.40137 12.04088,-12.04295 0,-6.64158 -5.39931,-12.04296 -12.04088,-12.04296 m -25.90803,27.13637 c -6.64107,0 -12.04243,5.40137 -12.04243,12.04294 0,6.64158 5.40136,12.04192 12.04294,12.04192 6.64159,0 12.04192,-5.40034 12.04192,-12.04192 0,-6.64157 -5.40033,-12.04294 -12.04192,-12.04294"
     style="baseline-shift:baseline;display:inline;overflow:visible;vector-effect:none;fill:#dfdfe7;fill-opacity:1;stroke-width:0.515891;stop-color:#000000"
     id="path15-9" /><path
     d="m 102.278,104.56328 a 4.7564094,4.7564094 0 0 0 -4.768748,4.76874 v 12.79528 a 1.6805467,1.6805467 0 0 1 -1.680555,1.68055 H 83.034196 a 4.7564094,4.7564094 0 0 0 -4.768744,4.76797 v 12.44761 a 4.7564094,4.7564094 0 0 0 4.768744,4.76797 h 12.794501 a 1.6805467,1.6805467 0 0 1 1.680555,1.68054 v 12.79452 a 4.7564094,4.7564094 0 0 0 4.768748,4.76874 h 12.44837 a 4.7564094,4.7564094 0 0 0 4.7672,-4.76874 v -12.79452 a 1.6805467,1.6805467 0 0 1 1.68055,-1.68054 h 12.79682 a 4.7564094,4.7564094 0 0 0 4.76644,-4.76797 v -12.44761 a 4.7564094,4.7564094 0 0 0 -4.7672,-4.76797 h -12.79684 a 1.6805467,1.6805467 0 0 1 -1.68053,-1.68055 v -12.79528 a 4.7564094,4.7564094 0 0 0 -4.76644,-4.76797 z"
     style="fill:#dfdfe7;fill-opacity:1;fill-rule:evenodd;stroke:none;stroke-width:2.02218;stroke-miterlimit:7;paint-order:stroke markers fill"
     id="path2-0" /><rect
     style="fill:#dfdfe7;fill-opacity:1;fill-rule:evenodd;stroke:none;stroke-width:3.38975;stroke-linecap:round;stroke-miterlimit:7;paint-order:stroke markers fill"
     id="rect17"
     width="47.85778"
     height="19.636715"
     x="768.74982"
     y="313.43182"
     rx="9.0004072" /><rect
     style="fill:#dfdfe7;fill-opacity:1;fill-rule:evenodd;stroke:none;stroke-width:3.38975;stroke-linecap:round;stroke-miterlimit:7;paint-order:stroke markers fill"
     id="rect18"
     width="47.85778"
     height="19.636715"
     x="-231.2502"
     y="313.43182"
     rx="9.0004072"
     transform="scale(-1,1)" /><g
     id="g3"><g
       id="g1"
       style="stroke:#dfdfe7;stroke-opacity:1"><rect
         style="fill:#dfdfe7;fill-opacity:1;fill-rule:evenodd;stroke:#dfdfe7;stroke-width:0.778025;stroke-linecap:round;stroke-miterlimit:7;paint-order:stroke markers fill;stroke-opacity:1"
         id="rect19"
         width="11.255403"
         height="4.3985672"
         x="766.36511"
         y="350.20541"
         rx="2.1167552" /><rect
         style="fill:#dfdfe7;fill-opacity:1;fill-rule:evenodd;stroke:#dfdfe7;stroke-width:0.778025;stroke-linecap:round;stroke-miterlimit:7;paint-order:stroke markers fill;stroke-opacity:1"
         id="rect20"
         width="11.255403"
         height="4.3985672"
         x="779.53442"
         y="350.20541"
         rx="2.1167552" /><rect
         style="fill:#dfdfe7;fill-opacity:1;fill-rule:evenodd;stroke:#dfdfe7;stroke-width:0.778025;stroke-linecap:round;stroke-miterlimit:7;paint-order:stroke markers fill;stroke-opacity:1"
         id="rect21"
         width="11.255403"
         height="4.3985672"
         x="792.70386"
         y="350.20541"
         rx="2.1167552" /><rect
         style="fill:#dfdfe7;fill-opacity:1;fill-rule:evenodd;stroke:#dfdfe7;stroke-width:0.778025;stroke-linecap:round;stroke-miterlimit:7;paint-order:stroke markers fill;stroke-opacity:1"
         id="rect22"
         width="11.255403"
         height="4.3985672"
         x="805.87317"
         y="350.20541"
         rx="2.1167552" /><rect
         style="fill:#dfdfe7;fill-opacity:1;fill-rule:evenodd;stroke:#dfdfe7;stroke-width:0.778025;stroke-linecap:round;stroke-miterlimit:7;paint-order:stroke markers fill;stroke-opacity:1"
         id="rect23"
         width="11.255403"
         height="4.3985672"
         x="766.36511"
         y="368.83438"
         rx="2.1167552" /><rect
         style="fill:#dfdfe7;fill-opacity:1;fill-rule:evenodd;stroke:#dfdfe7;stroke-width:0.778025;stroke-linecap:round;stroke-miterlimit:7;paint-order:stroke markers fill;stroke-opacity:1"
         id="rect24"
         width="11.255403"
         height="4.3985672"
         x="779.77557"
         y="368.83438"
         rx="2.1167552" /><rect
         style="fill:#dfdfe7;fill-opacity:1;fill-rule:evenodd;stroke:#dfdfe7;stroke-width:0.778025;stroke-linecap:round;stroke-miterlimit:7;paint-order:stroke markers fill;stroke-opacity:1"
         id="rect25"
         width="11.255403"
         height="4.3985672"
         x="792.94489"
         y="368.83438"
         rx="2.1167552" /><rect
         style="fill:#dfdfe7;fill-opacity:1;fill-rule:evenodd;stroke:#dfdfe7;stroke-width:0.778025;stroke-linecap:round;stroke-miterlimit:7;paint-order:stroke markers fill;stroke-opacity:1"
         id="rect26"
         width="11.255403"
         height="4.3985672"
         x="786.18884"
         y="359.5199"
         rx="2.1167552" /><rect
         style="fill:#dfdfe7;fill-opacity:1;fill-rule:evenodd;stroke:#dfdfe7;stroke-width:0.778025;stroke-linecap:round;stroke-miterlimit:7;paint-order:stroke markers fill;stroke-opacity:1"
         id="rect27"
         width="11.255403"
         height="4.3985672"
         x="799.35815"
         y="359.5199"
         rx="2.1167552" /></g><path
       id="rect28"
       style="baseline-shift:baseline;display:inline;overflow:visible;vector-effect:none;fill:#dfdfe7;fill-rule:evenodd;stroke-width:1.19103;stroke-linecap:round;stroke-miterlimit:7;paint-order:stroke markers fill;enable-background:accumulate;stop-color:#000000;fill-opacity:1"
       d="M 768.48242 359.13086 C 767.10095 359.13086 765.97656 360.25526 765.97656 361.63672 L 765.97656 361.80078 C 765.97656 363.18225 767.10095 364.30664 768.48242 364.30664 L 782.27148 364.30664 C 783.65294 364.30664 784.7793 363.18225 784.7793 361.80078 L 784.7793 361.63672 C 784.7793 360.25526 783.65294 359.13086 782.27148 359.13086 L 768.48242 359.13086 z " /></g><rect
     style="fill:#dfdfe7;fill-opacity:1;fill-rule:evenodd;stroke:none;stroke-width:1.91872;stroke-linecap:round;stroke-miterlimit:7;paint-order:stroke markers fill"
     id="rect57"
     width="26.593479"
     height="11.322308"
     x="830.04749"
     y="92.741203"
     rx="5.0013213" /><rect
     style="fill:#dfdfe7;fill-opacity:1;fill-rule:evenodd;stroke:none;stroke-width:1.91872;stroke-linecap:round;stroke-miterlimit:7;paint-order:stroke markers fill"
     id="rect58"
     width="26.593479"
     height="11.322308"
     x="-169.95251"
     y="92.741203"
     rx="5.0013213"
     transform="scale(-1,1)" /><rect
     style="fill:none;fill-opacity:1;fill-rule:evenodd;stroke:#dfdfe7;stroke-width:5.50031;stroke-linecap:square;stroke-linejoin:round;stroke-miterlimit:7;stroke-opacity:1;paint-order:stroke markers fill"
     id="rect59"
     width="513.24908"
     height="315.73166"
     x="243.37544"
     y="92.134178"
     rx="19.818304"
     ry="0" /><rect
     style="fill:#dfdfe7;fill-opacity:1;fill-rule:evenodd;stroke:#dfdfe7;stroke-width:4.83601;stroke-linecap:square;stroke-linejoin:round;stroke-miterlimit:7;stroke-opacity:1;paint-order:stroke markers fill"
     id="rect60"
     width="451.26123"
     height="277.59903"
     x="274.36938"
     y="111.20048"
     rx="17.42474"
     ry="0" /><path
     id="path65"
     style="baseline-shift:baseline;display:inline;overflow:visible;vector-effect:none;fill:#dfdfe7;fill-opacity:1;fill-rule:evenodd;stroke-width:1.19103;stroke-linecap:round;stroke-miterlimit:7;paint-order:stroke markers fill;enable-background:accumulate;stop-color:#000000"
     d="m 99.347853,201.35846 c 5.593307,0 10.144717,4.55373 10.144717,10.14703 v 71.51585 c 0,1.95644 -0.078,5.13583 0.13136,7.07926 0.4283,3.97549 1.71656,7.89593 2.9991,10.99731 0.9434,2.28127 2.77645,5.84853 4.07254,7.94956 1.96929,3.19228 4.8426,7.31099 9.98089,14.61279 7.41264,10.53372 19.49253,27.6357 30.16197,42.63059 10.66943,14.99488 19.93027,27.88458 25.35132,35.56581 5.42104,7.68123 7.02284,10.18298 8.20928,12.25926 1.18644,2.07627 2.02401,3.85518 2.52629,5.98772 0.24766,1.05151 0.46525,6.8973 0.46525,6.8973 l -3.15015,-0.0186 c 0,0 -0.0432,-4.10768 -0.44637,-6.14126 -0.41344,-1.75536 -1.06801,-3.16761 -2.18899,-5.12935 -1.121,-1.96173 -2.64066,-4.34472 -8.04412,-12.00105 -5.40347,-7.65632 -14.67003,-20.55474 -25.34434,-35.55651 -10.67432,-15.00173 -22.7528,-32.10346 -30.16895,-42.64221 -7.41615,-10.53874 -10.21528,-14.56987 -12.41976,-18.89136 -0.36693,-0.71928 -3.14825,-6.27089 -4.54915,-11.98919 -0.76909,-3.1393 -0.8012,-8.42446 -0.8012,-11.66535 v -71.46055 c 0,-3.86738 -3.06248,-6.93219 -6.929853,-6.93218 H 51.978565 c -0.0048,-1.08249 -0.0095,-2.15455 -0.01394,-3.21486 z"
     sodipodi:nodetypes="ssssssssssscccsssssssscccs" /><path
     id="path1"
     style="baseline-shift:baseline;display:inline;overflow:visible;vector-effect:none;fill:#dfdfe7;fill-opacity:1;fill-rule:evenodd;stroke-width:1.19103;stroke-linecap:round;stroke-miterlimit:7;paint-order:stroke markers fill;enable-background:accumulate;stop-color:#000000"
     d="m 900.65215,201.35846 c -5.59331,0 -10.14472,4.55373 -10.14472,10.14703 v 71.51585 c 0,1.95644 0.078,5.13583 -0.13136,7.07926 -0.4283,3.97549 -1.71656,7.89593 -2.9991,10.99731 -0.9434,2.28127 -2.77645,5.84853 -4.07254,7.94956 -1.96929,3.19228 -4.8426,7.31099 -9.98089,14.61279 -7.41264,10.53372 -19.49253,27.6357 -30.16197,42.63059 -10.66943,14.99488 -19.93027,27.88458 -25.35132,35.56581 -5.42104,7.68123 -7.02284,10.18298 -8.20928,12.25926 -1.18644,2.07627 -2.02401,3.85518 -2.52629,5.98772 -0.24766,1.05151 -0.46525,6.8973 -0.46525,6.8973 l 3.15015,-0.0186 c 0,0 0.0432,-4.10768 0.44637,-6.14126 0.41344,-1.75536 1.06801,-3.16761 2.18899,-5.12935 1.121,-1.96173 2.64066,-4.34472 8.04412,-12.00105 5.40347,-7.65632 14.67003,-20.55474 25.34434,-35.55651 10.67432,-15.00173 22.7528,-32.10346 30.16895,-42.64221 7.41615,-10.53874 10.21528,-14.56987 12.41976,-18.89136 0.36693,-0.71928 3.14825,-6.27089 4.54915,-11.98919 0.76909,-3.1393 0.8012,-8.42446 0.8012,-11.66535 v -71.46055 c 0,-3.86738 3.06248,-6.93219 6.92985,-6.93218 h 47.36912 c 0.005,-1.08249 0.01,-2.15455 0.014,-3.21486 z"
     sodipodi:nodetypes="ssssssssssscccsssssssscccs" /><g
     id="g13"
     transform="matrix(-1,0,0,1,1000,0)"><g
       id="g12"
       style="stroke:#dfdfe7;stroke-opacity:1"><rect
         style="fill:#dfdfe7;fill-opacity:1;fill-rule:evenodd;stroke:#dfdfe7;stroke-width:0.778025;stroke-linecap:round;stroke-miterlimit:7;stroke-opacity:1;paint-order:stroke markers fill"
         id="rect4"
         width="11.255403"
         height="4.3985672"
         x="766.36511"
         y="350.20541"
         rx="2.1167552" /><rect
         style="fill:#dfdfe7;fill-opacity:1;fill-rule:evenodd;stroke:#dfdfe7;stroke-width:0.778025;stroke-linecap:round;stroke-miterlimit:7;stroke-opacity:1;paint-order:stroke markers fill"
         id="rect5"
         width="11.255403"
         height="4.3985672"
         x="779.53442"
         y="350.20541"
         rx="2.1167552" /><rect
         style="fill:#dfdfe7;fill-opacity:1;fill-rule:evenodd;stroke:#dfdfe7;stroke-width:0.778025;stroke-linecap:round;stroke-miterlimit:7;stroke-opacity:1;paint-order:stroke markers fill"
         id="rect6"
         width="11.255403"
         height="4.3985672"
         x="792.70386"
         y="350.20541"
         rx="2.1167552" /><rect
         style="fill:#dfdfe7;fill-opacity:1;fill-rule:evenodd;stroke:#dfdfe7;stroke-width:0.778025;stroke-linecap:round;stroke-miterlimit:7;stroke-opacity:1;paint-order:stroke markers fill"
         id="rect7"
         width="11.255403"
         height="4.3985672"
         x="805.87317"
         y="350.20541"
         rx="2.1167552" /><rect
         style="fill:#dfdfe7;fill-opacity:1;fill-rule:evenodd;stroke:#dfdfe7;stroke-width:0.778025;stroke-linecap:round;stroke-miterlimit:7;stroke-opacity:1;paint-order:stroke markers fill"
         id="rect8"
         width="11.255403"
         height="4.3985672"
         x="766.36511"
         y="368.83438"
         rx="2.1167552" /><rect
         style="fill:#dfdfe7;fill-opacity:1;fill-rule:evenodd;stroke:#dfdfe7;stroke-width:0.778025;stroke-linecap:round;stroke-miterlimit:7;stroke-opacity:1;paint-order:stroke markers fill"
         id="rect9"
         width="11.255403"
         height="4.3985672"
         x="779.77557"
         y="368.83438"
         rx="2.1167552" /><rect
         style="fill:#dfdfe7;fill-opacity:1;fill-rule:evenodd;stroke:#dfdfe7;stroke-width:0.778025;stroke-linecap:round;stroke-miterlimit:7;stroke-opacity:1;paint-order:stroke markers fill"
         id="rect10"
         width="11.255403"
         height="4.3985672"
         x="792.94489"
         y="368.83438"
         rx="2.1167552" /><rect
         style="fill:#dfdfe7;fill-opacity:1;fill-rule:evenodd;stroke:#dfdfe7;stroke-width:0.778025;stroke-linecap:round;stroke-miterlimit:7;stroke-opacity:1;paint-order:stroke markers fill"
         id="rect11"
         width="11.255403"
         height="4.3985672"
         x="786.18884"
         y="359.5199"
         rx="2.1167552" /><rect
         style="fill:#dfdfe7;fill-opacity:1;fill-rule:evenodd;stroke:#dfdfe7;stroke-width:0.778025;stroke-linecap:round;stroke-miterlimit:7;stroke-opacity:1;paint-order:stroke markers fill"
         id="rect12"
         width="11.255403"
         height="4.3985672"
         x="799.35815"
         y="359.5199"
         rx="2.1167552" /></g><path
       id="path12"
       style="baseline-shift:baseline;display:inline;overflow:visible;vector-effect:none;fill:#dfdfe7;fill-opacity:1;fill-rule:evenodd;stroke-width:1.19103;stroke-linecap:round;stroke-miterlimit:7;paint-order:stroke markers fill;enable-background:accumulate;stop-color:#000000"
       d="m 768.48242,359.13086 c -1.38147,0 -2.50586,1.1244 -2.50586,2.50586 v 0.16406 c 0,1.38147 1.12439,2.50586 2.50586,2.50586 h 13.78906 c 1.38146,0 2.50782,-1.12439 2.50782,-2.50586 v -0.16406 c 0,-1.38146 -1.12636,-2.50586 -2.50782,-2.50586 z" /></g></svg>
